{
    "header": {
        "PPQ": 192,
        "bpm": 53.000022083342536,
        "timeSignature": [
            4,
            4
        ],
        "name": "text      "
    },
    "startTime": 0,
    "duration": 103.79123033854158,
    "tracks": [
        {
            "startTime": 0,
            "duration": 0,
            "length": 0,
            "notes": [],
            "controlChanges": {},
            "id": 0
        },
        {
            "startTime": 4.5283,
            "duration": 103.78533411458308,
            "length": 243,
            "notes": [
                {
                    "name": "E5",
                    "midi": 76,
                    "time": 4.5283,
                    "velocity": 0.6299212598425197,
                    "duration": 1.037735416666667
                },
                {
                    "name": "E5",
                    "midi": 76,
                    "time": 5.660375,
                    "velocity": 0.6299212598425197,
                    "duration": 0.5424526041666669
                },
                {
                    "name": "E5",
                    "midi": 76,
                    "time": 6.2264125,
                    "velocity": 0.6299212598425197,
                    "duration": 0.5070752604166664
                },
                {
                    "name": "A4",
                    "midi": 69,
                    "time": 6.79245,
                    "velocity": 0.6299212598425197,
                    "duration": 1.0377354166666661
                },
                {
                    "name": "B4",
                    "midi": 71,
                    "time": 7.924524999999999,
                    "velocity": 0.6299212598425197,
                    "duration": 1.037735416666667
                },
                {
                    "name": "A4",
                    "midi": 69,
                    "time": 9.0566,
                    "velocity": 0.6299212598425197,
                    "duration": 0.14150937500000005
                },
                {
                    "name": "G#4",
                    "midi": 68,
                    "time": 9.198109375,
                    "velocity": 0.6299212598425197,
                    "duration": 0.14150937500000005
                },
                {
                    "name": "A4",
                    "midi": 69,
                    "time": 9.33961875,
                    "velocity": 0.6299212598425197,
                    "duration": 0.14150937500000005
                },
                {
                    "name": "G#4",
                    "midi": 68,
                    "time": 9.481128125,
                    "velocity": 0.6299212598425197,
                    "duration": 0.14150937500000005
                },
                {
                    "name": "A4",
                    "midi": 69,
                    "time": 9.6226375,
                    "velocity": 0.6299212598425197,
                    "duration": 0.14150937500000005
                },
                {
                    "name": "G#4",
                    "midi": 68,
                    "time": 9.764146875,
                    "velocity": 0.6299212598425197,
                    "duration": 0.14150937500000005
                },
                {
                    "name": "A4",
                    "midi": 69,
                    "time": 9.90565625,
                    "velocity": 0.6299212598425197,
                    "duration": 0.14150937500000005
                },
                {
                    "name": "G#4",
                    "midi": 68,
                    "time": 10.047165625,
                    "velocity": 0.6299212598425197,
                    "duration": 0.14150937500000005
                },
                {
                    "name": "A4",
                    "midi": 69,
                    "time": 10.188675,
                    "velocity": 0.6299212598425197,
                    "duration": 0.14150937500000005
                },
                {
                    "name": "G#4",
                    "midi": 68,
                    "time": 10.330184375,
                    "velocity": 0.6299212598425197,
                    "duration": 0.14150937500000005
                },
                {
                    "name": "A4",
                    "midi": 69,
                    "time": 10.47169375,
                    "velocity": 0.6299212598425197,
                    "duration": 0.14150937500000005
                },
                {
                    "name": "G#4",
                    "midi": 68,
                    "time": 10.613203125,
                    "velocity": 0.6299212598425197,
                    "duration": 0.14150937500000005
                },
                {
                    "name": "A4",
                    "midi": 69,
                    "time": 10.7547125,
                    "velocity": 0.6299212598425197,
                    "duration": 0.14150937500000005
                },
                {
                    "name": "G#4",
                    "midi": 68,
                    "time": 10.896221875,
                    "velocity": 0.6299212598425197,
                    "duration": 0.14150937500000005
                },
                {
                    "name": "A4",
                    "midi": 69,
                    "time": 11.03773125,
                    "velocity": 0.6299212598425197,
                    "duration": 0.14150937500000005
                },
                {
                    "name": "G#4",
                    "midi": 68,
                    "time": 11.179240625,
                    "velocity": 0.6299212598425197,
                    "duration": 0.14150937500000005
                },
                {
                    "name": "A4",
                    "midi": 69,
                    "time": 11.32075,
                    "velocity": 0.6299212598425197,
                    "duration": 1.037735416666667
                },
                {
                    "name": "B4",
                    "midi": 71,
                    "time": 12.452825,
                    "velocity": 0.6299212598425197,
                    "duration": 0.5188677083333335
                },
                {
                    "name": "C5",
                    "midi": 72,
                    "time": 13.018862500000001,
                    "velocity": 0.6299212598425197,
                    "duration": 0.2653300781250003
                },
                {
                    "name": "D5",
                    "midi": 74,
                    "time": 13.301881250000001,
                    "velocity": 0.6299212598425197,
                    "duration": 0.25943385416666587
                },
                {
                    "name": "D5",
                    "midi": 74,
                    "time": 13.5849,
                    "velocity": 0.6299212598425197,
                    "duration": 0.2653300781250003
                },
                {
                    "name": "C#5",
                    "midi": 73,
                    "time": 13.86791875,
                    "velocity": 0.6299212598425197,
                    "duration": 1.580188020833333
                },
                {
                    "name": "A5",
                    "midi": 81,
                    "time": 15.849049999999998,
                    "velocity": 0.6299212598425197,
                    "duration": 1.037735416666667
                },
                {
                    "name": "D5",
                    "midi": 74,
                    "time": 15.849049999999998,
                    "velocity": 0.6299212598425197,
                    "duration": 3.301885416666668
                },
                {
                    "name": "A5",
                    "midi": 81,
                    "time": 16.981125,
                    "velocity": 0.6299212598425197,
                    "duration": 0.542452604166666
                },
                {
                    "name": "A5",
                    "midi": 81,
                    "time": 17.5471625,
                    "velocity": 0.6299212598425197,
                    "duration": 0.5070752604166664
                },
                {
                    "name": "E5",
                    "midi": 76,
                    "time": 18.1132,
                    "velocity": 0.6299212598425197,
                    "duration": 1.5566031249999988
                },
                {
                    "name": "C5",
                    "midi": 72,
                    "time": 19.245275,
                    "velocity": 0.6299212598425197,
                    "duration": 1.0377354166666635
                },
                {
                    "name": "F#5",
                    "midi": 78,
                    "time": 19.811312499999996,
                    "velocity": 0.6299212598425197,
                    "duration": 0.5188677083333317
                },
                {
                    "name": "G5",
                    "midi": 79,
                    "time": 20.377349999999993,
                    "velocity": 0.6299212598425197,
                    "duration": 1.037735416666667
                },
                {
                    "name": "B4",
                    "midi": 71,
                    "time": 20.377349999999993,
                    "velocity": 0.6299212598425197,
                    "duration": 1.037735416666667
                },
                {
                    "name": "E5",
                    "midi": 76,
                    "time": 21.509424999999993,
                    "velocity": 0.6299212598425197,
                    "duration": 2.169810416666664
                },
                {
                    "name": "C5",
                    "midi": 72,
                    "time": 21.509424999999993,
                    "velocity": 0.6299212598425197,
                    "duration": 0.542452604166666
                },
                {
                    "name": "B4",
                    "midi": 71,
                    "time": 22.075462499999993,
                    "velocity": 0.6299212598425197,
                    "duration": 0.5188677083333317
                },
                {
                    "name": "A4",
                    "midi": 69,
                    "time": 22.64149999999999,
                    "velocity": 0.6299212598425197,
                    "duration": 2.0813670572916685
                },
                {
                    "name": "D5",
                    "midi": 74,
                    "time": 23.77357499999999,
                    "velocity": 0.6299212598425197,
                    "duration": 2.0813670572916685
                },
                {
                    "name": "G#4",
                    "midi": 68,
                    "time": 24.90564999999999,
                    "velocity": 0.6299212598425197,
                    "duration": 1.037735416666667
                },
                {
                    "name": "C5",
                    "midi": 72,
                    "time": 26.03772499999999,
                    "velocity": 0.6299212598425197,
                    "duration": 0.542452604166666
                },
                {
                    "name": "A4",
                    "midi": 69,
                    "time": 26.03772499999999,
                    "velocity": 0.6299212598425197,
                    "duration": 1.037735416666667
                },
                {
                    "name": "D5",
                    "midi": 74,
                    "time": 26.60376249999999,
                    "velocity": 0.6299212598425197,
                    "duration": 0.5188677083333317
                },
                {
                    "name": "C5",
                    "midi": 72,
                    "time": 27.169799999999988,
                    "velocity": 0.6299212598425197,
                    "duration": 0.14150937499999827
                },
                {
                    "name": "G#4",
                    "midi": 68,
                    "time": 27.169799999999988,
                    "velocity": 0.6299212598425197,
                    "duration": 1.0849052083333213
                },
                {
                    "name": "B4",
                    "midi": 71,
                    "time": 27.311309374999986,
                    "velocity": 0.6299212598425197,
                    "duration": 0.14150937499999827
                },
                {
                    "name": "C5",
                    "midi": 72,
                    "time": 27.452818749999985,
                    "velocity": 0.6299212598425197,
                    "duration": 0.14150937499999827
                },
                {
                    "name": "B4",
                    "midi": 71,
                    "time": 27.594328124999983,
                    "velocity": 0.6299212598425197,
                    "duration": 0.14150937499999827
                },
                {
                    "name": "C5",
                    "midi": 72,
                    "time": 27.73583749999998,
                    "velocity": 0.6299212598425197,
                    "duration": 0.14150937499999827
                },
                {
                    "name": "B4",
                    "midi": 71,
                    "time": 27.87734687499998,
                    "velocity": 0.6299212598425197,
                    "duration": 0.14150937499999827
                },
                {
                    "name": "C5",
                    "midi": 72,
                    "time": 28.018856249999978,
                    "velocity": 0.6299212598425197,
                    "duration": 0.14150937499999827
                },
                {
                    "name": "B4",
                    "midi": 71,
                    "time": 28.160365624999976,
                    "velocity": 0.6299212598425197,
                    "duration": 0.12971692708333293
                },
                {
                    "name": "E5",
                    "midi": 76,
                    "time": 28.301874999999974,
                    "velocity": 0.6299212598425197,
                    "duration": 0.5306601562500006
                },
                {
                    "name": "G4",
                    "midi": 67,
                    "time": 28.301874999999974,
                    "velocity": 0.6299212598425197,
                    "duration": 0.5306601562500006
                },
                {
                    "name": "F#5",
                    "midi": 78,
                    "time": 28.867912499999974,
                    "velocity": 0.6299212598425197,
                    "duration": 0.5188677083333317
                },
                {
                    "name": "A4",
                    "midi": 69,
                    "time": 28.867912499999974,
                    "velocity": 0.6299212598425197,
                    "duration": 0.5188677083333317
                },
                {
                    "name": "B4",
                    "midi": 71,
                    "time": 29.43394999999997,
                    "velocity": 0.6299212598425197,
                    "duration": 1.037735416666667
                },
                {
                    "name": "G5",
                    "midi": 79,
                    "time": 29.43394999999997,
                    "velocity": 0.6299212598425197,
                    "duration": 0.5306601562500006
                },
                {
                    "name": "E5",
                    "midi": 76,
                    "time": 29.99998749999997,
                    "velocity": 0.6299212598425197,
                    "duration": 0.5188677083333317
                },
                {
                    "name": "A5",
                    "midi": 81,
                    "time": 30.566024999999968,
                    "velocity": 0.6299212598425197,
                    "duration": 2.169810416666664
                },
                {
                    "name": "C5",
                    "midi": 72,
                    "time": 30.566024999999968,
                    "velocity": 0.6299212598425197,
                    "duration": 0.5306601562500006
                },
                {
                    "name": "D5",
                    "midi": 74,
                    "time": 31.132062499999968,
                    "velocity": 0.6299212598425197,
                    "duration": 0.5188677083333317
                },
                {
                    "name": "B4",
                    "midi": 71,
                    "time": 31.698099999999965,
                    "velocity": 0.6299212598425197,
                    "duration": 2.0813670572916614
                },
                {
                    "name": "G5",
                    "midi": 79,
                    "time": 32.83017499999996,
                    "velocity": 0.6299212598425197,
                    "duration": 2.081367057291665
                },
                {
                    "name": "C#5",
                    "midi": 73,
                    "time": 33.96224999999996,
                    "velocity": 0.6299212598425197,
                    "duration": 1.0377354166666635
                },
                {
                    "name": "F5",
                    "midi": 77,
                    "time": 35.094324999999955,
                    "velocity": 0.6299212598425197,
                    "duration": 1.0377354166666635
                },
                {
                    "name": "D5",
                    "midi": 74,
                    "time": 35.094324999999955,
                    "velocity": 0.6299212598425197,
                    "duration": 1.662735156249994
                },
                {
                    "name": "E5",
                    "midi": 76,
                    "time": 36.22639999999995,
                    "velocity": 0.6299212598425197,
                    "duration": 1.0377354166666635
                },
                {
                    "name": "C5",
                    "midi": 72,
                    "time": 36.79243749999995,
                    "velocity": 0.6299212598425197,
                    "duration": 0.5188677083333317
                },
                {
                    "name": "F5",
                    "midi": 77,
                    "time": 37.35847499999995,
                    "velocity": 0.6299212598425197,
                    "duration": 1.0377354166666635
                },
                {
                    "name": "B4",
                    "midi": 71,
                    "time": 37.35847499999995,
                    "velocity": 0.6299212598425197,
                    "duration": 0.5306601562500006
                },
                {
                    "name": "A4",
                    "midi": 69,
                    "time": 37.92451249999995,
                    "velocity": 0.6299212598425197,
                    "duration": 0.5188677083333317
                },
                {
                    "name": "B4",
                    "midi": 71,
                    "time": 38.49054999999995,
                    "velocity": 0.6299212598425197,
                    "duration": 1.556603124999981
                },
                {
                    "name": "A4",
                    "midi": 69,
                    "time": 38.49054999999995,
                    "velocity": 0.6299212598425197,
                    "duration": 0.14150937499999827
                },
                {
                    "name": "G#4",
                    "midi": 68,
                    "time": 38.63205937499995,
                    "velocity": 0.6299212598425197,
                    "duration": 0.14150937499999827
                },
                {
                    "name": "A4",
                    "midi": 69,
                    "time": 38.773568749999946,
                    "velocity": 0.6299212598425197,
                    "duration": 0.14150937499999827
                },
                {
                    "name": "G#4",
                    "midi": 68,
                    "time": 38.915078124999944,
                    "velocity": 0.6299212598425197,
                    "duration": 0.14150937499999827
                },
                {
                    "name": "A4",
                    "midi": 69,
                    "time": 39.05658749999994,
                    "velocity": 0.6299212598425197,
                    "duration": 0.14150937499999827
                },
                {
                    "name": "G#4",
                    "midi": 68,
                    "time": 39.19809687499994,
                    "velocity": 0.6299212598425197,
                    "duration": 0.14150937499999827
                },
                {
                    "name": "A4",
                    "midi": 69,
                    "time": 39.33960624999994,
                    "velocity": 0.6299212598425197,
                    "duration": 0.14150937499999827
                },
                {
                    "name": "G#4",
                    "midi": 68,
                    "time": 39.48111562499994,
                    "velocity": 0.6299212598425197,
                    "duration": 0.14150937499999827
                },
                {
                    "name": "A4",
                    "midi": 69,
                    "time": 39.622624999999935,
                    "velocity": 0.6299212598425197,
                    "duration": 0.14150937499999827
                },
                {
                    "name": "G#4",
                    "midi": 68,
                    "time": 39.764134374999934,
                    "velocity": 0.6299212598425197,
                    "duration": 0.14150937499999827
                },
                {
                    "name": "A4",
                    "midi": 69,
                    "time": 39.90564374999993,
                    "velocity": 0.6299212598425197,
                    "duration": 0.14150937499999827
                },
                {
                    "name": "G#4",
                    "midi": 68,
                    "time": 40.04715312499993,
                    "velocity": 0.6299212598425197,
                    "duration": 0.14150937499999827
                },
                {
                    "name": "C5",
                    "midi": 72,
                    "time": 40.18866249999993,
                    "velocity": 0.6299212598425197,
                    "duration": 0.25943385416666587
                },
                {
                    "name": "A4",
                    "midi": 69,
                    "time": 40.18866249999993,
                    "velocity": 0.6299212598425197,
                    "duration": 0.14150937499999827
                },
                {
                    "name": "G#4",
                    "midi": 68,
                    "time": 40.33017187499993,
                    "velocity": 0.6299212598425197,
                    "duration": 0.14150937499999827
                },
                {
                    "name": "D5",
                    "midi": 74,
                    "time": 40.471681249999925,
                    "velocity": 0.6299212598425197,
                    "duration": 0.25943385416666587
                },
                {
                    "name": "A4",
                    "midi": 69,
                    "time": 40.471681249999925,
                    "velocity": 0.6299212598425197,
                    "duration": 0.14150937499999827
                },
                {
                    "name": "G#4",
                    "midi": 68,
                    "time": 40.61319062499992,
                    "velocity": 0.6299212598425197,
                    "duration": 0.13561315104166738
                },
                {
                    "name": "A4",
                    "midi": 69,
                    "time": 40.75469999999992,
                    "velocity": 0.6299212598425197,
                    "duration": 2.081367057291665
                },
                {
                    "name": "C5",
                    "midi": 72,
                    "time": 40.75469999999992,
                    "velocity": 0.6299212598425197,
                    "duration": 2.081367057291665
                },
                {
                    "name": "A5",
                    "midi": 81,
                    "time": 43.01884999999992,
                    "velocity": 0.6299212598425197,
                    "duration": 1.0377354166666635
                },
                {
                    "name": "A5",
                    "midi": 81,
                    "time": 44.150924999999916,
                    "velocity": 0.6299212598425197,
                    "duration": 0.5424526041666695
                },
                {
                    "name": "A5",
                    "midi": 81,
                    "time": 44.716962499999916,
                    "velocity": 0.6299212598425197,
                    "duration": 0.501179036458332
                },
                {
                    "name": "E5",
                    "midi": 76,
                    "time": 45.282999999999916,
                    "velocity": 0.6299212598425197,
                    "duration": 0.5306601562500006
                },
                {
                    "name": "D5",
                    "midi": 74,
                    "time": 45.849037499999916,
                    "velocity": 0.6299212598425197,
                    "duration": 0.5188677083333317
                },
                {
                    "name": "E5",
                    "midi": 76,
                    "time": 46.415074999999916,
                    "velocity": 0.6299212598425197,
                    "duration": 0.5306601562500006
                },
                {
                    "name": "F#5",
                    "midi": 78,
                    "time": 46.98111249999992,
                    "velocity": 0.6299212598425197,
                    "duration": 0.5188677083333317
                },
                {
                    "name": "G5",
                    "midi": 79,
                    "time": 47.54714999999992,
                    "velocity": 0.6299212598425197,
                    "duration": 0.5306601562500006
                },
                {
                    "name": "A5",
                    "midi": 81,
                    "time": 48.11318749999992,
                    "velocity": 0.6299212598425197,
                    "duration": 0.5188677083333317
                },
                {
                    "name": "A5",
                    "midi": 81,
                    "time": 48.67922499999992,
                    "velocity": 0.6299212598425197,
                    "duration": 0.14150937499999827
                },
                {
                    "name": "G5",
                    "midi": 79,
                    "time": 48.820734374999915,
                    "velocity": 0.6299212598425197,
                    "duration": 0.14150937499999827
                },
                {
                    "name": "A5",
                    "midi": 81,
                    "time": 48.962243749999914,
                    "velocity": 0.6299212598425197,
                    "duration": 0.14150937499999827
                },
                {
                    "name": "G5",
                    "midi": 79,
                    "time": 49.10375312499991,
                    "velocity": 0.6299212598425197,
                    "duration": 0.13561315104166738
                },
                {
                    "name": "F5",
                    "midi": 77,
                    "time": 49.24526249999991,
                    "velocity": 0.6299212598425197,
                    "duration": 0.5188677083333317
                },
                {
                    "name": "B5",
                    "midi": 83,
                    "time": 49.81129999999991,
                    "velocity": 0.6299212598425197,
                    "duration": 1.0377354166666635
                },
                {
                    "name": "E5",
                    "midi": 76,
                    "time": 49.81129999999991,
                    "velocity": 0.6299212598425197,
                    "duration": 1.0377354166666635
                },
                {
                    "name": "B5",
                    "midi": 83,
                    "time": 50.943374999999904,
                    "velocity": 0.6299212598425197,
                    "duration": 0.5424526041666695
                },
                {
                    "name": "D5",
                    "midi": 74,
                    "time": 50.943374999999904,
                    "velocity": 0.6299212598425197,
                    "duration": 1.0377354166666635
                },
                {
                    "name": "B5",
                    "midi": 83,
                    "time": 51.509412499999904,
                    "velocity": 0.6299212598425197,
                    "duration": 0.501179036458332
                },
                {
                    "name": "E5",
                    "midi": 76,
                    "time": 52.075449999999904,
                    "velocity": 0.6299212598425197,
                    "duration": 1.0377354166666635
                },
                {
                    "name": "C#5",
                    "midi": 73,
                    "time": 52.075449999999904,
                    "velocity": 0.6299212598425197,
                    "duration": 1.0377354166666635
                },
                {
                    "name": "F#5",
                    "midi": 78,
                    "time": 53.2075249999999,
                    "velocity": 0.6299212598425197,
                    "duration": 0.5424526041666695
                },
                {
                    "name": "D5",
                    "midi": 74,
                    "time": 53.2075249999999,
                    "velocity": 0.6299212598425197,
                    "duration": 0.5424526041666695
                },
                {
                    "name": "G5",
                    "midi": 79,
                    "time": 53.7735624999999,
                    "velocity": 0.6299212598425197,
                    "duration": 0.5188677083333317
                },
                {
                    "name": "E5",
                    "midi": 76,
                    "time": 53.7735624999999,
                    "velocity": 0.6299212598425197,
                    "duration": 0.5188677083333317
                },
                {
                    "name": "A5",
                    "midi": 81,
                    "time": 54.3395999999999,
                    "velocity": 0.6299212598425197,
                    "duration": 1.0377354166666635
                },
                {
                    "name": "G5",
                    "midi": 79,
                    "time": 55.47167499999989,
                    "velocity": 0.6299212598425197,
                    "duration": 0.5365563802083315
                },
                {
                    "name": "F#5",
                    "midi": 78,
                    "time": 56.03771249999989,
                    "velocity": 0.6299212598425197,
                    "duration": 0.5188677083333317
                },
                {
                    "name": "G5",
                    "midi": 79,
                    "time": 56.60374999999989,
                    "velocity": 0.6299212598425197,
                    "duration": 0.14150937499999827
                },
                {
                    "name": "F#5",
                    "midi": 78,
                    "time": 56.74525937499989,
                    "velocity": 0.6299212598425197,
                    "duration": 0.14150937499999827
                },
                {
                    "name": "G5",
                    "midi": 79,
                    "time": 56.88676874999989,
                    "velocity": 0.6299212598425197,
                    "duration": 0.14150937499999827
                },
                {
                    "name": "F#5",
                    "midi": 78,
                    "time": 57.028278124999886,
                    "velocity": 0.6299212598425197,
                    "duration": 0.14150937499999827
                },
                {
                    "name": "G5",
                    "midi": 79,
                    "time": 57.169787499999885,
                    "velocity": 0.6299212598425197,
                    "duration": 0.14150937499999827
                },
                {
                    "name": "F#5",
                    "midi": 78,
                    "time": 57.31129687499988,
                    "velocity": 0.6299212598425197,
                    "duration": 0.14150937499999827
                },
                {
                    "name": "G5",
                    "midi": 79,
                    "time": 57.45280624999988,
                    "velocity": 0.6299212598425197,
                    "duration": 0.14150937499999827
                },
                {
                    "name": "F#5",
                    "midi": 78,
                    "time": 57.59431562499988,
                    "velocity": 0.6299212598425197,
                    "duration": 0.14150937499999827
                },
                {
                    "name": "G5",
                    "midi": 79,
                    "time": 57.73582499999988,
                    "velocity": 0.6299212598425197,
                    "duration": 0.14150937499999827
                },
                {
                    "name": "F#5",
                    "midi": 78,
                    "time": 57.877334374999876,
                    "velocity": 0.6299212598425197,
                    "duration": 0.14150937499999827
                },
                {
                    "name": "G5",
                    "midi": 79,
                    "time": 58.018843749999874,
                    "velocity": 0.6299212598425197,
                    "duration": 0.14150937499999827
                },
                {
                    "name": "F#5",
                    "midi": 78,
                    "time": 58.16035312499987,
                    "velocity": 0.6299212598425197,
                    "duration": 0.13561315104166738
                },
                {
                    "name": "E5",
                    "midi": 76,
                    "time": 58.30186249999987,
                    "velocity": 0.6299212598425197,
                    "duration": 0.5188677083333317
                },
                {
                    "name": "E5",
                    "midi": 76,
                    "time": 58.86789999999987,
                    "velocity": 0.6299212598425197,
                    "duration": 1.5566031250000023
                },
                {
                    "name": "E5",
                    "midi": 76,
                    "time": 60.56601249999987,
                    "velocity": 0.6299212598425197,
                    "duration": 0.5188677083333317
                },
                {
                    "name": "A4",
                    "midi": 69,
                    "time": 61.13204999999987,
                    "velocity": 0.6299212598425197,
                    "duration": 0.5306601562500006
                },
                {
                    "name": "G4",
                    "midi": 67,
                    "time": 61.69808749999987,
                    "velocity": 0.6299212598425197,
                    "duration": 0.5188677083333317
                },
                {
                    "name": "D4",
                    "midi": 62,
                    "time": 62.26412499999987,
                    "velocity": 0.6299212598425197,
                    "duration": 1.0377354166666635
                },
                {
                    "name": "A4",
                    "midi": 69,
                    "time": 62.26412499999987,
                    "velocity": 0.6299212598425197,
                    "duration": 0.5306601562500006
                },
                {
                    "name": "B4",
                    "midi": 71,
                    "time": 62.83016249999987,
                    "velocity": 0.6299212598425197,
                    "duration": 0.5188677083333317
                },
                {
                    "name": "C5",
                    "midi": 72,
                    "time": 63.39619999999987,
                    "velocity": 0.6299212598425197,
                    "duration": 0.5306601562500006
                },
                {
                    "name": "G4",
                    "midi": 67,
                    "time": 63.39619999999987,
                    "velocity": 0.6299212598425197,
                    "duration": 1.556603124999988
                },
                {
                    "name": "D5",
                    "midi": 74,
                    "time": 63.96223749999987,
                    "velocity": 0.6299212598425197,
                    "duration": 0.5188677083333317
                },
                {
                    "name": "E5",
                    "midi": 76,
                    "time": 64.52827499999987,
                    "velocity": 0.6299212598425197,
                    "duration": 0.5306601562499935
                },
                {
                    "name": "C5",
                    "midi": 72,
                    "time": 65.09431249999986,
                    "velocity": 0.6299212598425197,
                    "duration": 0.5188677083333317
                },
                {
                    "name": "A4",
                    "midi": 69,
                    "time": 65.09431249999986,
                    "velocity": 0.6299212598425197,
                    "duration": 0.5188677083333317
                },
                {
                    "name": "D5",
                    "midi": 74,
                    "time": 65.66034999999985,
                    "velocity": 0.6299212598425197,
                    "duration": 1.5566031249999952
                },
                {
                    "name": "B4",
                    "midi": 71,
                    "time": 65.66034999999985,
                    "velocity": 0.6299212598425197,
                    "duration": 2.081367057291658
                },
                {
                    "name": "E5",
                    "midi": 76,
                    "time": 67.35846249999985,
                    "velocity": 0.6299212598425197,
                    "duration": 0.5188677083333317
                },
                {
                    "name": "F5",
                    "midi": 77,
                    "time": 67.92449999999984,
                    "velocity": 0.6299212598425197,
                    "duration": 1.0377354166666635
                },
                {
                    "name": "A4",
                    "midi": 69,
                    "time": 67.92449999999984,
                    "velocity": 0.6299212598425197,
                    "duration": 2.7830177083333325
                },
                {
                    "name": "D5",
                    "midi": 74,
                    "time": 69.05657499999984,
                    "velocity": 0.6299212598425197,
                    "duration": 0.5365563802083386
                },
                {
                    "name": "E5",
                    "midi": 76,
                    "time": 69.62261249999985,
                    "velocity": 0.6299212598425197,
                    "duration": 0.5188677083333317
                },
                {
                    "name": "C5",
                    "midi": 72,
                    "time": 70.18864999999984,
                    "velocity": 0.6299212598425197,
                    "duration": 0.5188677083333317
                },
                {
                    "name": "B4",
                    "midi": 71,
                    "time": 70.75468749999983,
                    "velocity": 0.6299212598425197,
                    "duration": 0.5188677083333317
                },
                {
                    "name": "G#4",
                    "midi": 68,
                    "time": 70.75468749999983,
                    "velocity": 0.6299212598425197,
                    "duration": 0.5188677083333317
                },
                {
                    "name": "C5",
                    "midi": 72,
                    "time": 71.32072499999983,
                    "velocity": 0.6299212598425197,
                    "duration": 0.5188677083333317
                },
                {
                    "name": "A4",
                    "midi": 69,
                    "time": 71.32072499999983,
                    "velocity": 0.6299212598425197,
                    "duration": 2.1698104166666354
                },
                {
                    "name": "D5",
                    "midi": 74,
                    "time": 71.88676249999982,
                    "velocity": 0.6299212598425197,
                    "duration": 0.5188677083333317
                },
                {
                    "name": "C5",
                    "midi": 72,
                    "time": 72.45279999999981,
                    "velocity": 0.6299212598425197,
                    "duration": 0.14150937499999827
                },
                {
                    "name": "B4",
                    "midi": 71,
                    "time": 72.59430937499981,
                    "velocity": 0.6299212598425197,
                    "duration": 0.14150937499999827
                },
                {
                    "name": "C5",
                    "midi": 72,
                    "time": 72.73581874999981,
                    "velocity": 0.6299212598425197,
                    "duration": 0.14150937499999827
                },
                {
                    "name": "B4",
                    "midi": 71,
                    "time": 72.8773281249998,
                    "velocity": 0.6299212598425197,
                    "duration": 0.14150937499999827
                },
                {
                    "name": "C5",
                    "midi": 72,
                    "time": 73.0188374999998,
                    "velocity": 0.6299212598425197,
                    "duration": 0.14150937499999827
                },
                {
                    "name": "B4",
                    "midi": 71,
                    "time": 73.1603468749998,
                    "velocity": 0.6299212598425197,
                    "duration": 0.14150937499999827
                },
                {
                    "name": "C5",
                    "midi": 72,
                    "time": 73.3018562499998,
                    "velocity": 0.6299212598425197,
                    "duration": 0.14150937499999827
                },
                {
                    "name": "B4",
                    "midi": 71,
                    "time": 73.4433656249998,
                    "velocity": 0.6299212598425197,
                    "duration": 0.13561315104166738
                },
                {
                    "name": "G4",
                    "midi": 67,
                    "time": 73.5848749999998,
                    "velocity": 0.6299212598425197,
                    "duration": 2.081367057291672
                },
                {
                    "name": "C#5",
                    "midi": 73,
                    "time": 73.5848749999998,
                    "velocity": 0.6299212598425197,
                    "duration": 1.0377354166666635
                },
                {
                    "name": "D5",
                    "midi": 74,
                    "time": 74.7169499999998,
                    "velocity": 0.6299212598425197,
                    "duration": 3.3018854166666785
                },
                {
                    "name": "F4",
                    "midi": 65,
                    "time": 75.8490249999998,
                    "velocity": 0.6299212598425197,
                    "duration": 0.5188677083333317
                },
                {
                    "name": "G4",
                    "midi": 67,
                    "time": 76.41506249999979,
                    "velocity": 0.6299212598425197,
                    "duration": 0.259433854166673
                },
                {
                    "name": "A4",
                    "midi": 69,
                    "time": 76.6980812499998,
                    "velocity": 0.6299212598425197,
                    "duration": 0.259433854166673
                },
                {
                    "name": "E4",
                    "midi": 64,
                    "time": 76.98109999999981,
                    "velocity": 0.6299212598425197,
                    "duration": 1.5566031249999952
                },
                {
                    "name": "C5",
                    "midi": 72,
                    "time": 78.11317499999981,
                    "velocity": 0.6299212598425197,
                    "duration": 1.0377354166666635
                },
                {
                    "name": "F4",
                    "midi": 65,
                    "time": 78.6792124999998,
                    "velocity": 0.6299212598425197,
                    "duration": 0.5188677083333317
                },
                {
                    "name": "B4",
                    "midi": 71,
                    "time": 79.2452499999998,
                    "velocity": 0.6299212598425197,
                    "duration": 0.5365563802083386
                },
                {
                    "name": "D#4",
                    "midi": 63,
                    "time": 79.2452499999998,
                    "velocity": 0.6299212598425197,
                    "duration": 1.0377354166666777
                },
                {
                    "name": "A4",
                    "midi": 69,
                    "time": 79.8112874999998,
                    "velocity": 0.6299212598425197,
                    "duration": 0.5188677083333317
                },
                {
                    "name": "E4",
                    "midi": 64,
                    "time": 80.3773249999998,
                    "velocity": 0.6299212598425197,
                    "duration": 2.169810416666678
                },
                {
                    "name": "G4",
                    "midi": 67,
                    "time": 80.3773249999998,
                    "velocity": 0.6299212598425197,
                    "duration": 1.0377354166666635
                },
                {
                    "name": "G4",
                    "midi": 67,
                    "time": 81.5093999999998,
                    "velocity": 0.6299212598425197,
                    "duration": 0.259433854166673
                },
                {
                    "name": "F#4",
                    "midi": 66,
                    "time": 81.79241874999981,
                    "velocity": 0.6299212598425197,
                    "duration": 1.8160369791666682
                },
                {
                    "name": "D4",
                    "midi": 62,
                    "time": 82.64147499999982,
                    "velocity": 0.6299212598425197,
                    "duration": 2.081367057291672
                },
                {
                    "name": "G#4",
                    "midi": 68,
                    "time": 83.77354999999982,
                    "velocity": 0.6299212598425197,
                    "duration": 1.0377354166666777
                },
                {
                    "name": "B4",
                    "midi": 71,
                    "time": 84.90562499999983,
                    "velocity": 0.6299212598425197,
                    "duration": 0.14150937499999827
                },
                {
                    "name": "A4",
                    "midi": 69,
                    "time": 85.04713437499983,
                    "velocity": 0.6299212598425197,
                    "duration": 0.14150937499999827
                },
                {
                    "name": "B4",
                    "midi": 71,
                    "time": 85.18864374999983,
                    "velocity": 0.6299212598425197,
                    "duration": 0.14150937499999827
                },
                {
                    "name": "A4",
                    "midi": 69,
                    "time": 85.33015312499982,
                    "velocity": 0.6299212598425197,
                    "duration": 0.14150937499999827
                },
                {
                    "name": "B4",
                    "midi": 71,
                    "time": 85.47166249999982,
                    "velocity": 0.6299212598425197,
                    "duration": 0.14150937499999827
                },
                {
                    "name": "A4",
                    "midi": 69,
                    "time": 85.61317187499982,
                    "velocity": 0.6299212598425197,
                    "duration": 0.14150937499999827
                },
                {
                    "name": "B4",
                    "midi": 71,
                    "time": 85.75468124999982,
                    "velocity": 0.6299212598425197,
                    "duration": 0.14150937499999827
                },
                {
                    "name": "A4",
                    "midi": 69,
                    "time": 85.89619062499982,
                    "velocity": 0.6299212598425197,
                    "duration": 0.13561315104166738
                },
                {
                    "name": "A4",
                    "midi": 69,
                    "time": 86.03769999999982,
                    "velocity": 0.6299212598425197,
                    "duration": 0.259433854166673
                },
                {
                    "name": "B3",
                    "midi": 59,
                    "time": 86.03769999999982,
                    "velocity": 0.6299212598425197,
                    "duration": 1.0377354166666777
                },
                {
                    "name": "G#4",
                    "midi": 68,
                    "time": 86.32071874999983,
                    "velocity": 0.6299212598425197,
                    "duration": 0.7783015625000047
                },
                {
                    "name": "A4",
                    "midi": 69,
                    "time": 87.16977499999983,
                    "velocity": 0.6299212598425197,
                    "duration": 0.5306601562499935
                },
                {
                    "name": "E4",
                    "midi": 64,
                    "time": 87.16977499999983,
                    "velocity": 0.6299212598425197,
                    "duration": 0.5306601562499935
                },
                {
                    "name": "B4",
                    "midi": 71,
                    "time": 87.73581249999982,
                    "velocity": 0.6299212598425197,
                    "duration": 0.50707526041667
                },
                {
                    "name": "D4",
                    "midi": 62,
                    "time": 87.73581249999982,
                    "velocity": 0.6299212598425197,
                    "duration": 0.50707526041667
                },
                {
                    "name": "C5",
                    "midi": 72,
                    "time": 88.30184999999983,
                    "velocity": 0.6299212598425197,
                    "duration": 0.5188677083333317
                },
                {
                    "name": "E4",
                    "midi": 64,
                    "time": 88.30184999999983,
                    "velocity": 0.6299212598425197,
                    "duration": 1.0377354166666635
                },
                {
                    "name": "A4",
                    "midi": 69,
                    "time": 88.86788749999982,
                    "velocity": 0.6299212598425197,
                    "duration": 0.5188677083333317
                },
                {
                    "name": "D5",
                    "midi": 74,
                    "time": 89.43392499999982,
                    "velocity": 0.6299212598425197,
                    "duration": 0.5188677083333317
                },
                {
                    "name": "F#4",
                    "midi": 66,
                    "time": 89.43392499999982,
                    "velocity": 0.6299212598425197,
                    "duration": 0.5188677083333317
                },
                {
                    "name": "E5",
                    "midi": 76,
                    "time": 89.99996249999981,
                    "velocity": 0.6299212598425197,
                    "duration": 0.5188677083333317
                },
                {
                    "name": "G#4",
                    "midi": 68,
                    "time": 89.99996249999981,
                    "velocity": 0.6299212598425197,
                    "duration": 0.5188677083333317
                },
                {
                    "name": "A4",
                    "midi": 69,
                    "time": 90.5659999999998,
                    "velocity": 0.6299212598425197,
                    "duration": 3.349055208333297
                },
                {
                    "name": "D5",
                    "midi": 74,
                    "time": 90.5659999999998,
                    "velocity": 0.6299212598425197,
                    "duration": 0.14150937499999827
                },
                {
                    "name": "C5",
                    "midi": 72,
                    "time": 90.7075093749998,
                    "velocity": 0.6299212598425197,
                    "duration": 0.14150937499999827
                },
                {
                    "name": "D5",
                    "midi": 74,
                    "time": 90.8490187499998,
                    "velocity": 0.6299212598425197,
                    "duration": 0.14150937499999827
                },
                {
                    "name": "C5",
                    "midi": 72,
                    "time": 90.9905281249998,
                    "velocity": 0.6299212598425197,
                    "duration": 0.14150937499999827
                },
                {
                    "name": "D5",
                    "midi": 74,
                    "time": 91.1320374999998,
                    "velocity": 0.6299212598425197,
                    "duration": 0.14150937499999827
                },
                {
                    "name": "C5",
                    "midi": 72,
                    "time": 91.2735468749998,
                    "velocity": 0.6299212598425197,
                    "duration": 0.14150937499999827
                },
                {
                    "name": "D5",
                    "midi": 74,
                    "time": 91.4150562499998,
                    "velocity": 0.6299212598425197,
                    "duration": 0.14150937499999827
                },
                {
                    "name": "C5",
                    "midi": 72,
                    "time": 91.55656562499979,
                    "velocity": 0.6299212598425197,
                    "duration": 0.14150937499999827
                },
                {
                    "name": "D5",
                    "midi": 74,
                    "time": 91.69807499999979,
                    "velocity": 0.6299212598425197,
                    "duration": 0.14150937499999827
                },
                {
                    "name": "C5",
                    "midi": 72,
                    "time": 91.83958437499979,
                    "velocity": 0.6299212598425197,
                    "duration": 0.14150937499999827
                },
                {
                    "name": "D5",
                    "midi": 74,
                    "time": 91.98109374999979,
                    "velocity": 0.6299212598425197,
                    "duration": 0.14150937499999827
                },
                {
                    "name": "C5",
                    "midi": 72,
                    "time": 92.12260312499978,
                    "velocity": 0.6299212598425197,
                    "duration": 0.14150937499999827
                },
                {
                    "name": "D5",
                    "midi": 74,
                    "time": 92.26411249999978,
                    "velocity": 0.6299212598425197,
                    "duration": 0.14150937499999827
                },
                {
                    "name": "C5",
                    "midi": 72,
                    "time": 92.40562187499978,
                    "velocity": 0.6299212598425197,
                    "duration": 0.14150937499999827
                },
                {
                    "name": "D5",
                    "midi": 74,
                    "time": 92.54713124999978,
                    "velocity": 0.6299212598425197,
                    "duration": 0.14150937499999827
                },
                {
                    "name": "C5",
                    "midi": 72,
                    "time": 92.68864062499978,
                    "velocity": 0.6299212598425197,
                    "duration": 0.1297169270833365
                },
                {
                    "name": "B4",
                    "midi": 71,
                    "time": 92.83014999999978,
                    "velocity": 0.6299212598425197,
                    "duration": 1.0377354166666635
                },
                {
                    "name": "G4",
                    "midi": 67,
                    "time": 93.96222499999976,
                    "velocity": 0.6299212598425197,
                    "duration": 2.169810416666664
                },
                {
                    "name": "E5",
                    "midi": 76,
                    "time": 93.96222499999976,
                    "velocity": 0.6299212598425197,
                    "duration": 0.5247639322916626
                },
                {
                    "name": "E5",
                    "midi": 76,
                    "time": 94.52826249999976,
                    "velocity": 0.6299212598425197,
                    "duration": 0.5011790364583391
                },
                {
                    "name": "A4",
                    "midi": 69,
                    "time": 95.09429999999976,
                    "velocity": 0.6299212598425197,
                    "duration": 2.081367057291672
                },
                {
                    "name": "F4",
                    "midi": 65,
                    "time": 96.22637499999976,
                    "velocity": 0.6299212598425197,
                    "duration": 1.0377354166666777
                },
                {
                    "name": "D5",
                    "midi": 74,
                    "time": 96.22637499999976,
                    "velocity": 0.6299212598425197,
                    "duration": 1.6627351562500081
                },
                {
                    "name": "E4",
                    "midi": 64,
                    "time": 97.35844999999978,
                    "velocity": 0.6299212598425197,
                    "duration": 2.0813670572916436
                },
                {
                    "name": "G#4",
                    "midi": 68,
                    "time": 97.35844999999978,
                    "velocity": 0.6299212598425197,
                    "duration": 1.556603124999981
                },
                {
                    "name": "C5",
                    "midi": 72,
                    "time": 97.92448749999977,
                    "velocity": 0.6299212598425197,
                    "duration": 0.5188677083333317
                },
                {
                    "name": "B4",
                    "midi": 71,
                    "time": 98.49052499999976,
                    "velocity": 0.6299212598425197,
                    "duration": 0.5306601562499935
                },
                {
                    "name": "A4",
                    "midi": 69,
                    "time": 99.05656249999976,
                    "velocity": 0.6299212598425197,
                    "duration": 0.5188677083333317
                },
                {
                    "name": "C5",
                    "midi": 72,
                    "time": 99.05656249999976,
                    "velocity": 0.6299212598425197,
                    "duration": 0.5188677083333317
                },
                {
                    "name": "B4",
                    "midi": 71,
                    "time": 99.62259999999975,
                    "velocity": 0.6299212598425197,
                    "duration": 4.16273411458333
                },
                {
                    "name": "G#4",
                    "midi": 68,
                    "time": 99.62259999999975,
                    "velocity": 0.6299212598425197,
                    "duration": 4.16273411458333
                },
                {
                    "name": "E4",
                    "midi": 64,
                    "time": 99.62259999999975,
                    "velocity": 0.6299212598425197,
                    "duration": 4.16273411458333
                }
            ],
            "controlChanges": {
                "7": [
                    {
                        "number": 7,
                        "time": 0,
                        "value": 0.9448818897637795
                    }
                ],
                "10": [
                    {
                        "number": 10,
                        "time": 0,
                        "value": 0.36220472440944884
                    }
                ],
                "91": [
                    {
                        "number": 91,
                        "time": 0,
                        "value": 0.2677165354330709
                    }
                ],
                "93": [
                    {
                        "number": 93,
                        "time": 0,
                        "value": 0.15748031496062992
                    }
                ],
                "121": [
                    {
                        "number": 121,
                        "time": 0,
                        "value": 0
                    },
                    {
                        "number": 121,
                        "time": 99.62259999999975,
                        "value": 0
                    }
                ]
            },
            "id": 1,
            "name": "Organ RH  ",
            "instrumentNumber": 74,
            "instrument": "recorder",
            "instrumentFamily": "pipe",
            "channelNumber": 0,
            "isPercussion": false
        },
        {
            "startTime": 0,
            "duration": 103.78533411458321,
            "length": 108,
            "notes": [
                {
                    "name": "E4",
                    "midi": 64,
                    "time": 0,
                    "velocity": 0.6299212598425197,
                    "duration": 1.0377354166666666
                },
                {
                    "name": "E4",
                    "midi": 64,
                    "time": 1.132075,
                    "velocity": 0.6299212598425197,
                    "duration": 0.5188677083333333
                },
                {
                    "name": "E4",
                    "midi": 64,
                    "time": 1.6981125,
                    "velocity": 0.6299212598425197,
                    "duration": 0.48938658854166683
                },
                {
                    "name": "A3",
                    "midi": 57,
                    "time": 2.26415,
                    "velocity": 0.6299212598425197,
                    "duration": 1.0377354166666666
                },
                {
                    "name": "B3",
                    "midi": 59,
                    "time": 3.396225,
                    "velocity": 0.6299212598425197,
                    "duration": 1.0377354166666666
                },
                {
                    "name": "C4",
                    "midi": 60,
                    "time": 4.5283,
                    "velocity": 0.6299212598425197,
                    "duration": 1.037735416666667
                },
                {
                    "name": "A3",
                    "midi": 57,
                    "time": 5.660375,
                    "velocity": 0.6299212598425197,
                    "duration": 1.037735416666667
                },
                {
                    "name": "F4",
                    "midi": 65,
                    "time": 6.7924500000000005,
                    "velocity": 0.6299212598425197,
                    "duration": 1.037735416666667
                },
                {
                    "name": "D4",
                    "midi": 62,
                    "time": 7.924525000000001,
                    "velocity": 0.6299212598425197,
                    "duration": 1.037735416666667
                },
                {
                    "name": "E4",
                    "midi": 64,
                    "time": 9.056600000000001,
                    "velocity": 0.6299212598425197,
                    "duration": 1.037735416666667
                },
                {
                    "name": "D4",
                    "midi": 62,
                    "time": 10.188675000000002,
                    "velocity": 0.6299212598425197,
                    "duration": 0.542452604166666
                },
                {
                    "name": "E4",
                    "midi": 64,
                    "time": 10.7547125,
                    "velocity": 0.6299212598425197,
                    "duration": 0.5188677083333335
                },
                {
                    "name": "C4",
                    "midi": 60,
                    "time": 11.32075,
                    "velocity": 0.6299212598425197,
                    "duration": 1.037735416666667
                },
                {
                    "name": "B3",
                    "midi": 59,
                    "time": 12.452825,
                    "velocity": 0.6299212598425197,
                    "duration": 1.037735416666667
                },
                {
                    "name": "A3",
                    "midi": 57,
                    "time": 13.584900000000001,
                    "velocity": 0.6299212598425197,
                    "duration": 1.037735416666667
                },
                {
                    "name": "G3",
                    "midi": 55,
                    "time": 14.716975000000001,
                    "velocity": 0.6299212598425197,
                    "duration": 0.542452604166666
                },
                {
                    "name": "A3",
                    "midi": 57,
                    "time": 15.2830125,
                    "velocity": 0.6299212598425197,
                    "duration": 0.5188677083333335
                },
                {
                    "name": "F#3",
                    "midi": 54,
                    "time": 15.84905,
                    "velocity": 0.6299212598425197,
                    "duration": 1.5566031250000005
                },
                {
                    "name": "G3",
                    "midi": 55,
                    "time": 17.5471625,
                    "velocity": 0.6299212598425197,
                    "duration": 0.5188677083333317
                },
                {
                    "name": "A3",
                    "midi": 57,
                    "time": 18.113199999999996,
                    "velocity": 0.6299212598425197,
                    "duration": 1.037735416666667
                },
                {
                    "name": "A2",
                    "midi": 45,
                    "time": 19.245274999999996,
                    "velocity": 0.6299212598425197,
                    "duration": 1.037735416666667
                },
                {
                    "name": "E3",
                    "midi": 52,
                    "time": 20.377349999999996,
                    "velocity": 0.6299212598425197,
                    "duration": 2.0813670572916685
                },
                {
                    "name": "F3",
                    "midi": 53,
                    "time": 22.641499999999997,
                    "velocity": 0.6299212598425197,
                    "duration": 1.037735416666667
                },
                {
                    "name": "F3",
                    "midi": 53,
                    "time": 23.773574999999997,
                    "velocity": 0.6299212598425197,
                    "duration": 0.14150937499999827
                },
                {
                    "name": "E3",
                    "midi": 52,
                    "time": 23.915084374999996,
                    "velocity": 0.6299212598425197,
                    "duration": 0.14150937499999827
                },
                {
                    "name": "F3",
                    "midi": 53,
                    "time": 24.056593749999994,
                    "velocity": 0.6299212598425197,
                    "duration": 0.14150937499999827
                },
                {
                    "name": "E3",
                    "midi": 52,
                    "time": 24.198103124999992,
                    "velocity": 0.6299212598425197,
                    "duration": 0.13561315104166738
                },
                {
                    "name": "D3",
                    "midi": 50,
                    "time": 24.339612499999994,
                    "velocity": 0.6299212598425197,
                    "duration": 0.5188677083333317
                },
                {
                    "name": "E3",
                    "midi": 52,
                    "time": 24.90564999999999,
                    "velocity": 0.6299212598425197,
                    "duration": 1.037735416666667
                },
                {
                    "name": "A2",
                    "midi": 45,
                    "time": 26.03772499999999,
                    "velocity": 0.6299212598425197,
                    "duration": 1.037735416666667
                },
                {
                    "name": "E2",
                    "midi": 40,
                    "time": 27.16979999999999,
                    "velocity": 0.6299212598425197,
                    "duration": 4.528299999999998
                },
                {
                    "name": "E3",
                    "midi": 52,
                    "time": 31.69809999999999,
                    "velocity": 0.6299212598425197,
                    "duration": 1.0377354166666635
                },
                {
                    "name": "E3",
                    "midi": 52,
                    "time": 32.83017499999998,
                    "velocity": 0.6299212598425197,
                    "duration": 0.5188677083333317
                },
                {
                    "name": "E3",
                    "midi": 52,
                    "time": 33.39621249999998,
                    "velocity": 0.6299212598425197,
                    "duration": 0.48938658854167016
                },
                {
                    "name": "A2",
                    "midi": 45,
                    "time": 33.96224999999998,
                    "velocity": 0.6299212598425197,
                    "duration": 1.5566031250000023
                },
                {
                    "name": "B2",
                    "midi": 47,
                    "time": 35.660362499999984,
                    "velocity": 0.6299212598425197,
                    "duration": 0.5188677083333317
                },
                {
                    "name": "C3",
                    "midi": 48,
                    "time": 36.226399999999984,
                    "velocity": 0.6299212598425197,
                    "duration": 1.0377354166666635
                },
                {
                    "name": "D3",
                    "midi": 50,
                    "time": 37.35847499999998,
                    "velocity": 0.6299212598425197,
                    "duration": 1.0377354166666635
                },
                {
                    "name": "E3",
                    "midi": 52,
                    "time": 38.49054999999997,
                    "velocity": 0.6299212598425197,
                    "duration": 2.081367057291665
                },
                {
                    "name": "A3",
                    "midi": 57,
                    "time": 40.75469999999997,
                    "velocity": 0.6299212598425197,
                    "duration": 0.5306601562500006
                },
                {
                    "name": "B3",
                    "midi": 59,
                    "time": 41.32073749999997,
                    "velocity": 0.6299212598425197,
                    "duration": 0.5188677083333317
                },
                {
                    "name": "B3",
                    "midi": 59,
                    "time": 41.88677499999997,
                    "velocity": 0.6299212598425197,
                    "duration": 0.14150937499999827
                },
                {
                    "name": "A3",
                    "midi": 57,
                    "time": 42.02828437499997,
                    "velocity": 0.6299212598425197,
                    "duration": 0.14150937499999827
                },
                {
                    "name": "B3",
                    "midi": 59,
                    "time": 42.16979374999997,
                    "velocity": 0.6299212598425197,
                    "duration": 0.14150937499999827
                },
                {
                    "name": "A3",
                    "midi": 57,
                    "time": 42.31130312499997,
                    "velocity": 0.6299212598425197,
                    "duration": 0.1297169270833365
                },
                {
                    "name": "G3",
                    "midi": 55,
                    "time": 42.45281249999997,
                    "velocity": 0.6299212598425197,
                    "duration": 0.5188677083333317
                },
                {
                    "name": "F3",
                    "midi": 53,
                    "time": 43.01884999999997,
                    "velocity": 0.6299212598425197,
                    "duration": 1.0377354166666635
                },
                {
                    "name": "F4",
                    "midi": 65,
                    "time": 44.150924999999965,
                    "velocity": 0.6299212598425197,
                    "duration": 1.0377354166666635
                },
                {
                    "name": "C4",
                    "midi": 60,
                    "time": 45.28299999999996,
                    "velocity": 0.6299212598425197,
                    "duration": 2.081367057291665
                },
                {
                    "name": "B3",
                    "midi": 59,
                    "time": 47.54714999999996,
                    "velocity": 0.6299212598425197,
                    "duration": 0.5306601562500006
                },
                {
                    "name": "C4",
                    "midi": 60,
                    "time": 48.11318749999996,
                    "velocity": 0.6299212598425197,
                    "duration": 0.5188677083333317
                },
                {
                    "name": "B3",
                    "midi": 59,
                    "time": 48.67922499999996,
                    "velocity": 0.6299212598425197,
                    "duration": 0.5306601562500006
                },
                {
                    "name": "A3",
                    "midi": 57,
                    "time": 49.24526249999996,
                    "velocity": 0.6299212598425197,
                    "duration": 0.50707526041667
                },
                {
                    "name": "G#3",
                    "midi": 56,
                    "time": 49.81129999999996,
                    "velocity": 0.6299212598425197,
                    "duration": 2.081367057291665
                },
                {
                    "name": "A3",
                    "midi": 57,
                    "time": 52.07544999999996,
                    "velocity": 0.6299212598425197,
                    "duration": 0.5424526041666695
                },
                {
                    "name": "G3",
                    "midi": 55,
                    "time": 52.64148749999996,
                    "velocity": 0.6299212598425197,
                    "duration": 0.5188677083333317
                },
                {
                    "name": "G3",
                    "midi": 55,
                    "time": 53.20752499999996,
                    "velocity": 0.6299212598425197,
                    "duration": 0.14150937499999827
                },
                {
                    "name": "F#3",
                    "midi": 54,
                    "time": 53.34903437499996,
                    "velocity": 0.6299212598425197,
                    "duration": 0.14150937499999827
                },
                {
                    "name": "G3",
                    "midi": 55,
                    "time": 53.49054374999996,
                    "velocity": 0.6299212598425197,
                    "duration": 0.14150937499999827
                },
                {
                    "name": "F#3",
                    "midi": 54,
                    "time": 53.632053124999956,
                    "velocity": 0.6299212598425197,
                    "duration": 0.13561315104166738
                },
                {
                    "name": "E3",
                    "midi": 52,
                    "time": 53.773562499999954,
                    "velocity": 0.6299212598425197,
                    "duration": 0.5188677083333317
                },
                {
                    "name": "D#3",
                    "midi": 51,
                    "time": 54.339599999999955,
                    "velocity": 0.6299212598425197,
                    "duration": 0.5306601562500006
                },
                {
                    "name": "B2",
                    "midi": 47,
                    "time": 54.905637499999955,
                    "velocity": 0.6299212598425197,
                    "duration": 0.5188677083333317
                },
                {
                    "name": "E3",
                    "midi": 52,
                    "time": 55.471674999999955,
                    "velocity": 0.6299212598425197,
                    "duration": 0.5306601562500006
                },
                {
                    "name": "A2",
                    "midi": 45,
                    "time": 56.037712499999955,
                    "velocity": 0.6299212598425197,
                    "duration": 0.50707526041667
                },
                {
                    "name": "B2",
                    "midi": 47,
                    "time": 56.603749999999955,
                    "velocity": 0.6299212598425197,
                    "duration": 2.081367057291665
                },
                {
                    "name": "E3",
                    "midi": 52,
                    "time": 58.867899999999956,
                    "velocity": 0.6299212598425197,
                    "duration": 0.5306601562500006
                },
                {
                    "name": "C3",
                    "midi": 48,
                    "time": 59.433937499999956,
                    "velocity": 0.6299212598425197,
                    "duration": 0.5188677083333317
                },
                {
                    "name": "D3",
                    "midi": 50,
                    "time": 59.99997499999996,
                    "velocity": 0.6299212598425197,
                    "duration": 0.5306601562500006
                },
                {
                    "name": "E3",
                    "midi": 52,
                    "time": 60.56601249999996,
                    "velocity": 0.6299212598425197,
                    "duration": 0.50707526041667
                },
                {
                    "name": "F3",
                    "midi": 53,
                    "time": 61.13204999999996,
                    "velocity": 0.6299212598425197,
                    "duration": 2.081367057291665
                },
                {
                    "name": "E3",
                    "midi": 52,
                    "time": 63.39619999999996,
                    "velocity": 0.6299212598425197,
                    "duration": 0.5306601562500006
                },
                {
                    "name": "D3",
                    "midi": 50,
                    "time": 63.96223749999996,
                    "velocity": 0.6299212598425197,
                    "duration": 0.5188677083333317
                },
                {
                    "name": "C3",
                    "midi": 48,
                    "time": 64.52827499999995,
                    "velocity": 0.6299212598425197,
                    "duration": 1.0377354166666635
                },
                {
                    "name": "G3",
                    "midi": 55,
                    "time": 65.66034999999995,
                    "velocity": 0.6299212598425197,
                    "duration": 0.5306601562499935
                },
                {
                    "name": "A3",
                    "midi": 57,
                    "time": 66.22638749999994,
                    "velocity": 0.6299212598425197,
                    "duration": 0.5188677083333317
                },
                {
                    "name": "B3",
                    "midi": 59,
                    "time": 66.79242499999994,
                    "velocity": 0.6299212598425197,
                    "duration": 0.5306601562499935
                },
                {
                    "name": "C4",
                    "midi": 60,
                    "time": 67.35846249999993,
                    "velocity": 0.6299212598425197,
                    "duration": 0.50707526041667
                },
                {
                    "name": "D4",
                    "midi": 62,
                    "time": 67.92449999999994,
                    "velocity": 0.6299212598425197,
                    "duration": 0.5306601562499935
                },
                {
                    "name": "D3",
                    "midi": 50,
                    "time": 68.49053749999993,
                    "velocity": 0.6299212598425197,
                    "duration": 0.5188677083333317
                },
                {
                    "name": "F3",
                    "midi": 53,
                    "time": 69.05657499999992,
                    "velocity": 0.6299212598425197,
                    "duration": 0.5306601562499935
                },
                {
                    "name": "G3",
                    "midi": 55,
                    "time": 69.62261249999992,
                    "velocity": 0.6299212598425197,
                    "duration": 0.50707526041667
                },
                {
                    "name": "A3",
                    "midi": 57,
                    "time": 70.18864999999992,
                    "velocity": 0.6299212598425197,
                    "duration": 1.0377354166666635
                },
                {
                    "name": "A3",
                    "midi": 57,
                    "time": 71.32072499999992,
                    "velocity": 0.6299212598425197,
                    "duration": 1.0377354166666635
                },
                {
                    "name": "E3",
                    "midi": 52,
                    "time": 72.45279999999993,
                    "velocity": 0.6299212598425197,
                    "duration": 1.0377354166666635
                },
                {
                    "name": "E3",
                    "midi": 52,
                    "time": 73.58487499999993,
                    "velocity": 0.6299212598425197,
                    "duration": 0.5188677083333317
                },
                {
                    "name": "E3",
                    "midi": 52,
                    "time": 74.15091249999992,
                    "velocity": 0.6299212598425197,
                    "duration": 0.48938658854166306
                },
                {
                    "name": "A2",
                    "midi": 45,
                    "time": 74.71694999999991,
                    "velocity": 0.6299212598425197,
                    "duration": 2.081367057291672
                },
                {
                    "name": "A2",
                    "midi": 45,
                    "time": 76.98109999999991,
                    "velocity": 0.6299212598425197,
                    "duration": 0.259433854166673
                },
                {
                    "name": "G#2",
                    "midi": 44,
                    "time": 77.26411874999992,
                    "velocity": 0.6299212598425197,
                    "duration": 0.7783015625000047
                },
                {
                    "name": "A2",
                    "midi": 45,
                    "time": 78.11317499999993,
                    "velocity": 0.6299212598425197,
                    "duration": 1.0377354166666635
                },
                {
                    "name": "B2",
                    "midi": 47,
                    "time": 79.24524999999993,
                    "velocity": 0.6299212598425197,
                    "duration": 2.081367057291672
                },
                {
                    "name": "B3",
                    "midi": 59,
                    "time": 81.50939999999993,
                    "velocity": 0.6299212598425197,
                    "duration": 1.0377354166666635
                },
                {
                    "name": "B3",
                    "midi": 59,
                    "time": 82.64147499999993,
                    "velocity": 0.6299212598425197,
                    "duration": 0.5188677083333317
                },
                {
                    "name": "B3",
                    "midi": 59,
                    "time": 83.20751249999992,
                    "velocity": 0.6299212598425197,
                    "duration": 0.48938658854166306
                },
                {
                    "name": "E3",
                    "midi": 52,
                    "time": 83.77354999999991,
                    "velocity": 0.6299212598425197,
                    "duration": 2.081367057291672
                },
                {
                    "name": "E3",
                    "midi": 52,
                    "time": 86.03769999999992,
                    "velocity": 0.6299212598425197,
                    "duration": 0.5306601562499935
                },
                {
                    "name": "D3",
                    "midi": 50,
                    "time": 86.60373749999991,
                    "velocity": 0.6299212598425197,
                    "duration": 0.5188677083333317
                },
                {
                    "name": "C3",
                    "midi": 48,
                    "time": 87.1697749999999,
                    "velocity": 0.6299212598425197,
                    "duration": 0.5306601562499935
                },
                {
                    "name": "B2",
                    "midi": 47,
                    "time": 87.7358124999999,
                    "velocity": 0.6299212598425197,
                    "duration": 0.50707526041667
                },
                {
                    "name": "A2",
                    "midi": 45,
                    "time": 88.3018499999999,
                    "velocity": 0.6299212598425197,
                    "duration": 2.081367057291672
                },
                {
                    "name": "A2",
                    "midi": 45,
                    "time": 90.5659999999999,
                    "velocity": 0.6299212598425197,
                    "duration": 1.0377354166666635
                },
                {
                    "name": "A2",
                    "midi": 45,
                    "time": 91.6980749999999,
                    "velocity": 0.6299212598425197,
                    "duration": 0.5188677083333317
                },
                {
                    "name": "A2",
                    "midi": 45,
                    "time": 92.2641124999999,
                    "velocity": 0.6299212598425197,
                    "duration": 0.48938658854166306
                },
                {
                    "name": "E2",
                    "midi": 40,
                    "time": 92.83014999999989,
                    "velocity": 0.6299212598425197,
                    "duration": 2.081367057291672
                },
                {
                    "name": "F2",
                    "midi": 41,
                    "time": 95.09429999999989,
                    "velocity": 0.6299212598425197,
                    "duration": 1.5566031249999952
                },
                {
                    "name": "D2",
                    "midi": 38,
                    "time": 96.79241249999988,
                    "velocity": 0.6299212598425197,
                    "duration": 0.5188677083333317
                },
                {
                    "name": "E2",
                    "midi": 40,
                    "time": 97.35844999999988,
                    "velocity": 0.6299212598425197,
                    "duration": 6.426884114583331
                }
            ],
            "controlChanges": {
                "7": [
                    {
                        "number": 7,
                        "time": 0,
                        "value": 1
                    }
                ],
                "10": [
                    {
                        "number": 10,
                        "time": 0,
                        "value": 0.6299212598425197
                    }
                ],
                "91": [
                    {
                        "number": 91,
                        "time": 0,
                        "value": 0.3700787401574803
                    }
                ],
                "93": [
                    {
                        "number": 93,
                        "time": 0,
                        "value": 0.15748031496062992
                    }
                ],
                "121": [
                    {
                        "number": 121,
                        "time": 0,
                        "value": 0
                    },
                    {
                        "number": 121,
                        "time": 97.35844999999988,
                        "value": 0
                    }
                ]
            },
            "id": 2,
            "name": "Organ LH  ",
            "instrumentNumber": 74,
            "instrument": "recorder",
            "instrumentFamily": "pipe",
            "channelNumber": 1,
            "isPercussion": false
        },
        {
            "startTime": 4.534196223958332,
            "duration": 103.79123033854145,
            "length": 243,
            "notes": [
                {
                    "name": "E5",
                    "midi": 76,
                    "time": 4.534196223958332,
                    "velocity": 0.6299212598425197,
                    "duration": 1.037735416666667
                },
                {
                    "name": "E5",
                    "midi": 76,
                    "time": 5.666271223958333,
                    "velocity": 0.6299212598425197,
                    "duration": 0.5424526041666669
                },
                {
                    "name": "E5",
                    "midi": 76,
                    "time": 6.232308723958333,
                    "velocity": 0.6299212598425197,
                    "duration": 0.49528281250000017
                },
                {
                    "name": "A4",
                    "midi": 69,
                    "time": 6.798346223958333,
                    "velocity": 0.6299212598425197,
                    "duration": 1.037735416666667
                },
                {
                    "name": "B4",
                    "midi": 71,
                    "time": 7.930421223958334,
                    "velocity": 0.6299212598425197,
                    "duration": 1.037735416666667
                },
                {
                    "name": "A4",
                    "midi": 69,
                    "time": 9.062496223958334,
                    "velocity": 0.6299212598425197,
                    "duration": 0.14150937500000005
                },
                {
                    "name": "G#4",
                    "midi": 68,
                    "time": 9.204005598958334,
                    "velocity": 0.6299212598425197,
                    "duration": 0.14150937500000005
                },
                {
                    "name": "A4",
                    "midi": 69,
                    "time": 9.345514973958334,
                    "velocity": 0.6299212598425197,
                    "duration": 0.14150937500000005
                },
                {
                    "name": "G#4",
                    "midi": 68,
                    "time": 9.487024348958334,
                    "velocity": 0.6299212598425197,
                    "duration": 0.14150937500000005
                },
                {
                    "name": "A4",
                    "midi": 69,
                    "time": 9.628533723958334,
                    "velocity": 0.6299212598425197,
                    "duration": 0.14150937500000005
                },
                {
                    "name": "G#4",
                    "midi": 68,
                    "time": 9.770043098958334,
                    "velocity": 0.6299212598425197,
                    "duration": 0.14150937500000005
                },
                {
                    "name": "A4",
                    "midi": 69,
                    "time": 9.911552473958334,
                    "velocity": 0.6299212598425197,
                    "duration": 0.14150937500000005
                },
                {
                    "name": "G#4",
                    "midi": 68,
                    "time": 10.053061848958334,
                    "velocity": 0.6299212598425197,
                    "duration": 0.14150937500000005
                },
                {
                    "name": "A4",
                    "midi": 69,
                    "time": 10.194571223958334,
                    "velocity": 0.6299212598425197,
                    "duration": 0.14150937500000005
                },
                {
                    "name": "G#4",
                    "midi": 68,
                    "time": 10.336080598958334,
                    "velocity": 0.6299212598425197,
                    "duration": 0.14150937500000005
                },
                {
                    "name": "A4",
                    "midi": 69,
                    "time": 10.477589973958334,
                    "velocity": 0.6299212598425197,
                    "duration": 0.14150937500000005
                },
                {
                    "name": "G#4",
                    "midi": 68,
                    "time": 10.619099348958335,
                    "velocity": 0.6299212598425197,
                    "duration": 0.14150937500000005
                },
                {
                    "name": "A4",
                    "midi": 69,
                    "time": 10.760608723958335,
                    "velocity": 0.6299212598425197,
                    "duration": 0.14150937500000005
                },
                {
                    "name": "G#4",
                    "midi": 68,
                    "time": 10.902118098958335,
                    "velocity": 0.6299212598425197,
                    "duration": 0.14150937500000005
                },
                {
                    "name": "A4",
                    "midi": 69,
                    "time": 11.043627473958335,
                    "velocity": 0.6299212598425197,
                    "duration": 0.14150937500000005
                },
                {
                    "name": "G#4",
                    "midi": 68,
                    "time": 11.185136848958335,
                    "velocity": 0.6299212598425197,
                    "duration": 0.14150937500000005
                },
                {
                    "name": "A4",
                    "midi": 69,
                    "time": 11.326646223958335,
                    "velocity": 0.6299212598425197,
                    "duration": 1.037735416666667
                },
                {
                    "name": "B4",
                    "midi": 71,
                    "time": 12.458721223958335,
                    "velocity": 0.6299212598425197,
                    "duration": 0.5188677083333335
                },
                {
                    "name": "C5",
                    "midi": 72,
                    "time": 13.024758723958335,
                    "velocity": 0.6299212598425197,
                    "duration": 0.2653300781250003
                },
                {
                    "name": "D5",
                    "midi": 74,
                    "time": 13.307777473958335,
                    "velocity": 0.6299212598425197,
                    "duration": 0.25943385416666587
                },
                {
                    "name": "D5",
                    "midi": 74,
                    "time": 13.590796223958334,
                    "velocity": 0.6299212598425197,
                    "duration": 0.2653300781250003
                },
                {
                    "name": "C#5",
                    "midi": 73,
                    "time": 13.873814973958334,
                    "velocity": 0.6299212598425197,
                    "duration": 1.580188020833333
                },
                {
                    "name": "A5",
                    "midi": 81,
                    "time": 15.854946223958333,
                    "velocity": 0.6299212598425197,
                    "duration": 1.037735416666667
                },
                {
                    "name": "D5",
                    "midi": 74,
                    "time": 15.854946223958333,
                    "velocity": 0.6299212598425197,
                    "duration": 3.301885416666668
                },
                {
                    "name": "A5",
                    "midi": 81,
                    "time": 16.987021223958333,
                    "velocity": 0.6299212598425197,
                    "duration": 0.542452604166666
                },
                {
                    "name": "A5",
                    "midi": 81,
                    "time": 17.553058723958333,
                    "velocity": 0.6299212598425197,
                    "duration": 0.49528281250000106
                },
                {
                    "name": "E5",
                    "midi": 76,
                    "time": 18.119096223958334,
                    "velocity": 0.6299212598425197,
                    "duration": 1.5566031249999988
                },
                {
                    "name": "C5",
                    "midi": 72,
                    "time": 19.251171223958334,
                    "velocity": 0.6299212598425197,
                    "duration": 1.0377354166666635
                },
                {
                    "name": "F#5",
                    "midi": 78,
                    "time": 19.81720872395833,
                    "velocity": 0.6299212598425197,
                    "duration": 0.5188677083333317
                },
                {
                    "name": "G5",
                    "midi": 79,
                    "time": 20.383246223958327,
                    "velocity": 0.6299212598425197,
                    "duration": 1.037735416666667
                },
                {
                    "name": "B4",
                    "midi": 71,
                    "time": 20.383246223958327,
                    "velocity": 0.6299212598425197,
                    "duration": 1.037735416666667
                },
                {
                    "name": "E5",
                    "midi": 76,
                    "time": 21.515321223958328,
                    "velocity": 0.6299212598425197,
                    "duration": 2.169810416666664
                },
                {
                    "name": "C5",
                    "midi": 72,
                    "time": 21.515321223958328,
                    "velocity": 0.6299212598425197,
                    "duration": 0.542452604166666
                },
                {
                    "name": "B4",
                    "midi": 71,
                    "time": 22.081358723958328,
                    "velocity": 0.6299212598425197,
                    "duration": 0.5188677083333317
                },
                {
                    "name": "A4",
                    "midi": 69,
                    "time": 22.647396223958324,
                    "velocity": 0.6299212598425197,
                    "duration": 2.0813670572916685
                },
                {
                    "name": "D5",
                    "midi": 74,
                    "time": 23.779471223958325,
                    "velocity": 0.6299212598425197,
                    "duration": 2.0813670572916685
                },
                {
                    "name": "G#4",
                    "midi": 68,
                    "time": 24.911546223958325,
                    "velocity": 0.6299212598425197,
                    "duration": 1.037735416666667
                },
                {
                    "name": "C5",
                    "midi": 72,
                    "time": 26.043621223958326,
                    "velocity": 0.6299212598425197,
                    "duration": 0.542452604166666
                },
                {
                    "name": "A4",
                    "midi": 69,
                    "time": 26.043621223958326,
                    "velocity": 0.6299212598425197,
                    "duration": 1.037735416666667
                },
                {
                    "name": "D5",
                    "midi": 74,
                    "time": 26.609658723958326,
                    "velocity": 0.6299212598425197,
                    "duration": 0.5188677083333317
                },
                {
                    "name": "C5",
                    "midi": 72,
                    "time": 27.175696223958322,
                    "velocity": 0.6299212598425197,
                    "duration": 0.13561315104166738
                },
                {
                    "name": "G#4",
                    "midi": 68,
                    "time": 27.175696223958322,
                    "velocity": 0.6299212598425197,
                    "duration": 1.0377354166666777
                },
                {
                    "name": "B4",
                    "midi": 71,
                    "time": 27.317205598958324,
                    "velocity": 0.6299212598425197,
                    "duration": 0.13561315104166738
                },
                {
                    "name": "C5",
                    "midi": 72,
                    "time": 27.458714973958326,
                    "velocity": 0.6299212598425197,
                    "duration": 0.13561315104166738
                },
                {
                    "name": "B4",
                    "midi": 71,
                    "time": 27.600224348958328,
                    "velocity": 0.6299212598425197,
                    "duration": 0.13561315104166738
                },
                {
                    "name": "C5",
                    "midi": 72,
                    "time": 27.74173372395833,
                    "velocity": 0.6299212598425197,
                    "duration": 0.13561315104166738
                },
                {
                    "name": "B4",
                    "midi": 71,
                    "time": 27.88324309895833,
                    "velocity": 0.6299212598425197,
                    "duration": 0.13561315104166738
                },
                {
                    "name": "C5",
                    "midi": 72,
                    "time": 28.024752473958333,
                    "velocity": 0.6299212598425197,
                    "duration": 0.13561315104166738
                },
                {
                    "name": "B4",
                    "midi": 71,
                    "time": 28.166261848958335,
                    "velocity": 0.6299212598425197,
                    "duration": 0.13561315104166383
                },
                {
                    "name": "E5",
                    "midi": 76,
                    "time": 28.307771223958333,
                    "velocity": 0.6299212598425197,
                    "duration": 0.5306601562500006
                },
                {
                    "name": "G4",
                    "midi": 67,
                    "time": 28.307771223958333,
                    "velocity": 0.6299212598425197,
                    "duration": 0.5306601562500006
                },
                {
                    "name": "F#5",
                    "midi": 78,
                    "time": 28.873808723958334,
                    "velocity": 0.6299212598425197,
                    "duration": 0.5188677083333317
                },
                {
                    "name": "A4",
                    "midi": 69,
                    "time": 28.873808723958334,
                    "velocity": 0.6299212598425197,
                    "duration": 0.5188677083333317
                },
                {
                    "name": "B4",
                    "midi": 71,
                    "time": 29.43984622395833,
                    "velocity": 0.6299212598425197,
                    "duration": 1.037735416666667
                },
                {
                    "name": "G5",
                    "midi": 79,
                    "time": 29.43984622395833,
                    "velocity": 0.6299212598425197,
                    "duration": 0.5306601562500006
                },
                {
                    "name": "E5",
                    "midi": 76,
                    "time": 30.00588372395833,
                    "velocity": 0.6299212598425197,
                    "duration": 0.5188677083333317
                },
                {
                    "name": "A5",
                    "midi": 81,
                    "time": 30.571921223958327,
                    "velocity": 0.6299212598425197,
                    "duration": 2.169810416666664
                },
                {
                    "name": "C5",
                    "midi": 72,
                    "time": 30.571921223958327,
                    "velocity": 0.6299212598425197,
                    "duration": 0.5306601562500006
                },
                {
                    "name": "D5",
                    "midi": 74,
                    "time": 31.137958723958327,
                    "velocity": 0.6299212598425197,
                    "duration": 0.5188677083333317
                },
                {
                    "name": "B4",
                    "midi": 71,
                    "time": 31.703996223958324,
                    "velocity": 0.6299212598425197,
                    "duration": 2.0813670572916614
                },
                {
                    "name": "G5",
                    "midi": 79,
                    "time": 32.83607122395832,
                    "velocity": 0.6299212598425197,
                    "duration": 2.081367057291665
                },
                {
                    "name": "C#5",
                    "midi": 73,
                    "time": 33.96814622395832,
                    "velocity": 0.6299212598425197,
                    "duration": 1.0377354166666635
                },
                {
                    "name": "F5",
                    "midi": 77,
                    "time": 35.100221223958314,
                    "velocity": 0.6299212598425197,
                    "duration": 1.0377354166666635
                },
                {
                    "name": "D5",
                    "midi": 74,
                    "time": 35.100221223958314,
                    "velocity": 0.6299212598425197,
                    "duration": 1.662735156249994
                },
                {
                    "name": "E5",
                    "midi": 76,
                    "time": 36.23229622395831,
                    "velocity": 0.6299212598425197,
                    "duration": 1.0377354166666635
                },
                {
                    "name": "C5",
                    "midi": 72,
                    "time": 36.79833372395831,
                    "velocity": 0.6299212598425197,
                    "duration": 0.5188677083333317
                },
                {
                    "name": "F5",
                    "midi": 77,
                    "time": 37.36437122395831,
                    "velocity": 0.6299212598425197,
                    "duration": 1.0377354166666635
                },
                {
                    "name": "B4",
                    "midi": 71,
                    "time": 37.36437122395831,
                    "velocity": 0.6299212598425197,
                    "duration": 0.5306601562500006
                },
                {
                    "name": "A4",
                    "midi": 69,
                    "time": 37.93040872395831,
                    "velocity": 0.6299212598425197,
                    "duration": 0.5188677083333317
                },
                {
                    "name": "B4",
                    "midi": 71,
                    "time": 38.49644622395831,
                    "velocity": 0.6299212598425197,
                    "duration": 1.556603124999981
                },
                {
                    "name": "A4",
                    "midi": 69,
                    "time": 38.49644622395831,
                    "velocity": 0.6299212598425197,
                    "duration": 0.13561315104166738
                },
                {
                    "name": "G#4",
                    "midi": 68,
                    "time": 38.63795559895831,
                    "velocity": 0.6299212598425197,
                    "duration": 0.13561315104166738
                },
                {
                    "name": "A4",
                    "midi": 69,
                    "time": 38.779464973958305,
                    "velocity": 0.6299212598425197,
                    "duration": 0.13561315104166738
                },
                {
                    "name": "G#4",
                    "midi": 68,
                    "time": 38.9209743489583,
                    "velocity": 0.6299212598425197,
                    "duration": 0.13561315104166738
                },
                {
                    "name": "A4",
                    "midi": 69,
                    "time": 39.0624837239583,
                    "velocity": 0.6299212598425197,
                    "duration": 0.13561315104166738
                },
                {
                    "name": "G#4",
                    "midi": 68,
                    "time": 39.2039930989583,
                    "velocity": 0.6299212598425197,
                    "duration": 0.13561315104166738
                },
                {
                    "name": "A4",
                    "midi": 69,
                    "time": 39.3455024739583,
                    "velocity": 0.6299212598425197,
                    "duration": 0.13561315104166738
                },
                {
                    "name": "G#4",
                    "midi": 68,
                    "time": 39.487011848958296,
                    "velocity": 0.6299212598425197,
                    "duration": 0.13561315104166738
                },
                {
                    "name": "A4",
                    "midi": 69,
                    "time": 39.628521223958295,
                    "velocity": 0.6299212598425197,
                    "duration": 0.13561315104166738
                },
                {
                    "name": "G#4",
                    "midi": 68,
                    "time": 39.77003059895829,
                    "velocity": 0.6299212598425197,
                    "duration": 0.13561315104166738
                },
                {
                    "name": "A4",
                    "midi": 69,
                    "time": 39.91153997395829,
                    "velocity": 0.6299212598425197,
                    "duration": 0.13561315104166738
                },
                {
                    "name": "G#4",
                    "midi": 68,
                    "time": 40.05304934895829,
                    "velocity": 0.6299212598425197,
                    "duration": 0.13561315104166738
                },
                {
                    "name": "C5",
                    "midi": 72,
                    "time": 40.19455872395829,
                    "velocity": 0.6299212598425197,
                    "duration": 0.25943385416666587
                },
                {
                    "name": "A4",
                    "midi": 69,
                    "time": 40.19455872395829,
                    "velocity": 0.6299212598425197,
                    "duration": 0.13561315104166738
                },
                {
                    "name": "G#4",
                    "midi": 68,
                    "time": 40.336068098958286,
                    "velocity": 0.6299212598425197,
                    "duration": 0.13561315104166738
                },
                {
                    "name": "D5",
                    "midi": 74,
                    "time": 40.477577473958284,
                    "velocity": 0.6299212598425197,
                    "duration": 0.25943385416666587
                },
                {
                    "name": "A4",
                    "midi": 69,
                    "time": 40.477577473958284,
                    "velocity": 0.6299212598425197,
                    "duration": 0.13561315104166738
                },
                {
                    "name": "G#4",
                    "midi": 68,
                    "time": 40.61908684895828,
                    "velocity": 0.6299212598425197,
                    "duration": 0.13561315104166738
                },
                {
                    "name": "A4",
                    "midi": 69,
                    "time": 40.76059622395828,
                    "velocity": 0.6299212598425197,
                    "duration": 2.081367057291665
                },
                {
                    "name": "C5",
                    "midi": 72,
                    "time": 40.76059622395828,
                    "velocity": 0.6299212598425197,
                    "duration": 2.081367057291665
                },
                {
                    "name": "A5",
                    "midi": 81,
                    "time": 43.02474622395828,
                    "velocity": 0.6299212598425197,
                    "duration": 1.0377354166666635
                },
                {
                    "name": "A5",
                    "midi": 81,
                    "time": 44.156821223958275,
                    "velocity": 0.6299212598425197,
                    "duration": 0.5306601562500006
                },
                {
                    "name": "A5",
                    "midi": 81,
                    "time": 44.722858723958275,
                    "velocity": 0.6299212598425197,
                    "duration": 0.48938658854167016
                },
                {
                    "name": "E5",
                    "midi": 76,
                    "time": 45.288896223958275,
                    "velocity": 0.6299212598425197,
                    "duration": 0.5306601562500006
                },
                {
                    "name": "D5",
                    "midi": 74,
                    "time": 45.854933723958275,
                    "velocity": 0.6299212598425197,
                    "duration": 0.5188677083333317
                },
                {
                    "name": "E5",
                    "midi": 76,
                    "time": 46.420971223958276,
                    "velocity": 0.6299212598425197,
                    "duration": 0.5306601562500006
                },
                {
                    "name": "F#5",
                    "midi": 78,
                    "time": 46.987008723958276,
                    "velocity": 0.6299212598425197,
                    "duration": 0.5188677083333317
                },
                {
                    "name": "G5",
                    "midi": 79,
                    "time": 47.553046223958276,
                    "velocity": 0.6299212598425197,
                    "duration": 0.5306601562500006
                },
                {
                    "name": "A5",
                    "midi": 81,
                    "time": 48.119083723958276,
                    "velocity": 0.6299212598425197,
                    "duration": 0.5188677083333317
                },
                {
                    "name": "A5",
                    "midi": 81,
                    "time": 48.68512122395828,
                    "velocity": 0.6299212598425197,
                    "duration": 0.14150937499999827
                },
                {
                    "name": "G5",
                    "midi": 79,
                    "time": 48.826630598958275,
                    "velocity": 0.6299212598425197,
                    "duration": 0.14150937499999827
                },
                {
                    "name": "A5",
                    "midi": 81,
                    "time": 48.96813997395827,
                    "velocity": 0.6299212598425197,
                    "duration": 0.14150937499999827
                },
                {
                    "name": "G5",
                    "midi": 79,
                    "time": 49.10964934895827,
                    "velocity": 0.6299212598425197,
                    "duration": 0.13561315104166738
                },
                {
                    "name": "F5",
                    "midi": 77,
                    "time": 49.25115872395827,
                    "velocity": 0.6299212598425197,
                    "duration": 0.5188677083333317
                },
                {
                    "name": "B5",
                    "midi": 83,
                    "time": 49.81719622395827,
                    "velocity": 0.6299212598425197,
                    "duration": 1.0377354166666635
                },
                {
                    "name": "E5",
                    "midi": 76,
                    "time": 49.81719622395827,
                    "velocity": 0.6299212598425197,
                    "duration": 1.0377354166666635
                },
                {
                    "name": "B5",
                    "midi": 83,
                    "time": 50.94927122395826,
                    "velocity": 0.6299212598425197,
                    "duration": 0.5188677083333317
                },
                {
                    "name": "D5",
                    "midi": 74,
                    "time": 50.94927122395826,
                    "velocity": 0.6299212598425197,
                    "duration": 1.0377354166666635
                },
                {
                    "name": "B5",
                    "midi": 83,
                    "time": 51.51530872395826,
                    "velocity": 0.6299212598425197,
                    "duration": 0.48938658854166306
                },
                {
                    "name": "E5",
                    "midi": 76,
                    "time": 52.081346223958256,
                    "velocity": 0.6299212598425197,
                    "duration": 1.0377354166666635
                },
                {
                    "name": "C#5",
                    "midi": 73,
                    "time": 52.081346223958256,
                    "velocity": 0.6299212598425197,
                    "duration": 1.0377354166666635
                },
                {
                    "name": "F#5",
                    "midi": 78,
                    "time": 53.21342122395825,
                    "velocity": 0.6299212598425197,
                    "duration": 0.5424526041666695
                },
                {
                    "name": "D5",
                    "midi": 74,
                    "time": 53.21342122395825,
                    "velocity": 0.6299212598425197,
                    "duration": 0.5424526041666695
                },
                {
                    "name": "G5",
                    "midi": 79,
                    "time": 53.77945872395825,
                    "velocity": 0.6299212598425197,
                    "duration": 0.5188677083333317
                },
                {
                    "name": "E5",
                    "midi": 76,
                    "time": 53.77945872395825,
                    "velocity": 0.6299212598425197,
                    "duration": 0.5188677083333317
                },
                {
                    "name": "A5",
                    "midi": 81,
                    "time": 54.34549622395825,
                    "velocity": 0.6299212598425197,
                    "duration": 1.0377354166666635
                },
                {
                    "name": "G5",
                    "midi": 79,
                    "time": 55.47757122395824,
                    "velocity": 0.6299212598425197,
                    "duration": 0.5365563802083315
                },
                {
                    "name": "F#5",
                    "midi": 78,
                    "time": 56.04360872395824,
                    "velocity": 0.6299212598425197,
                    "duration": 0.5188677083333317
                },
                {
                    "name": "G5",
                    "midi": 79,
                    "time": 56.609646223958244,
                    "velocity": 0.6299212598425197,
                    "duration": 0.13561315104166738
                },
                {
                    "name": "F#5",
                    "midi": 78,
                    "time": 56.75115559895824,
                    "velocity": 0.6299212598425197,
                    "duration": 0.13561315104166738
                },
                {
                    "name": "G5",
                    "midi": 79,
                    "time": 56.89266497395824,
                    "velocity": 0.6299212598425197,
                    "duration": 0.13561315104166738
                },
                {
                    "name": "F#5",
                    "midi": 78,
                    "time": 57.03417434895824,
                    "velocity": 0.6299212598425197,
                    "duration": 0.13561315104166738
                },
                {
                    "name": "G5",
                    "midi": 79,
                    "time": 57.17568372395824,
                    "velocity": 0.6299212598425197,
                    "duration": 0.13561315104166738
                },
                {
                    "name": "F#5",
                    "midi": 78,
                    "time": 57.317193098958235,
                    "velocity": 0.6299212598425197,
                    "duration": 0.13561315104166738
                },
                {
                    "name": "G5",
                    "midi": 79,
                    "time": 57.45870247395823,
                    "velocity": 0.6299212598425197,
                    "duration": 0.13561315104166738
                },
                {
                    "name": "F#5",
                    "midi": 78,
                    "time": 57.60021184895823,
                    "velocity": 0.6299212598425197,
                    "duration": 0.13561315104166738
                },
                {
                    "name": "G5",
                    "midi": 79,
                    "time": 57.74172122395823,
                    "velocity": 0.6299212598425197,
                    "duration": 0.13561315104166738
                },
                {
                    "name": "F#5",
                    "midi": 78,
                    "time": 57.88323059895823,
                    "velocity": 0.6299212598425197,
                    "duration": 0.13561315104166738
                },
                {
                    "name": "G5",
                    "midi": 79,
                    "time": 58.024739973958226,
                    "velocity": 0.6299212598425197,
                    "duration": 0.13561315104166738
                },
                {
                    "name": "F#5",
                    "midi": 78,
                    "time": 58.166249348958225,
                    "velocity": 0.6299212598425197,
                    "duration": 0.1297169270833365
                },
                {
                    "name": "E5",
                    "midi": 76,
                    "time": 58.30775872395823,
                    "velocity": 0.6299212598425197,
                    "duration": 0.5188677083333317
                },
                {
                    "name": "E5",
                    "midi": 76,
                    "time": 58.87379622395823,
                    "velocity": 0.6299212598425197,
                    "duration": 1.5566031250000023
                },
                {
                    "name": "E5",
                    "midi": 76,
                    "time": 60.57190872395823,
                    "velocity": 0.6299212598425197,
                    "duration": 0.5188677083333317
                },
                {
                    "name": "A4",
                    "midi": 69,
                    "time": 61.13794622395823,
                    "velocity": 0.6299212598425197,
                    "duration": 0.5306601562500006
                },
                {
                    "name": "G4",
                    "midi": 67,
                    "time": 61.70398372395823,
                    "velocity": 0.6299212598425197,
                    "duration": 0.5188677083333317
                },
                {
                    "name": "D4",
                    "midi": 62,
                    "time": 62.27002122395823,
                    "velocity": 0.6299212598425197,
                    "duration": 1.0377354166666635
                },
                {
                    "name": "A4",
                    "midi": 69,
                    "time": 62.27002122395823,
                    "velocity": 0.6299212598425197,
                    "duration": 0.5306601562500006
                },
                {
                    "name": "B4",
                    "midi": 71,
                    "time": 62.83605872395823,
                    "velocity": 0.6299212598425197,
                    "duration": 0.5188677083333317
                },
                {
                    "name": "C5",
                    "midi": 72,
                    "time": 63.40209622395823,
                    "velocity": 0.6299212598425197,
                    "duration": 0.5306601562500006
                },
                {
                    "name": "G4",
                    "midi": 67,
                    "time": 63.40209622395823,
                    "velocity": 0.6299212598425197,
                    "duration": 1.556603124999988
                },
                {
                    "name": "D5",
                    "midi": 74,
                    "time": 63.96813372395823,
                    "velocity": 0.6299212598425197,
                    "duration": 0.5188677083333317
                },
                {
                    "name": "E5",
                    "midi": 76,
                    "time": 64.53417122395823,
                    "velocity": 0.6299212598425197,
                    "duration": 0.5306601562499935
                },
                {
                    "name": "C5",
                    "midi": 72,
                    "time": 65.10020872395822,
                    "velocity": 0.6299212598425197,
                    "duration": 0.5188677083333317
                },
                {
                    "name": "A4",
                    "midi": 69,
                    "time": 65.10020872395822,
                    "velocity": 0.6299212598425197,
                    "duration": 0.5188677083333317
                },
                {
                    "name": "D5",
                    "midi": 74,
                    "time": 65.66624622395821,
                    "velocity": 0.6299212598425197,
                    "duration": 1.5566031249999952
                },
                {
                    "name": "B4",
                    "midi": 71,
                    "time": 65.66624622395821,
                    "velocity": 0.6299212598425197,
                    "duration": 2.081367057291658
                },
                {
                    "name": "E5",
                    "midi": 76,
                    "time": 67.3643587239582,
                    "velocity": 0.6299212598425197,
                    "duration": 0.5188677083333317
                },
                {
                    "name": "F5",
                    "midi": 77,
                    "time": 67.9303962239582,
                    "velocity": 0.6299212598425197,
                    "duration": 1.0377354166666635
                },
                {
                    "name": "A4",
                    "midi": 69,
                    "time": 67.9303962239582,
                    "velocity": 0.6299212598425197,
                    "duration": 2.7830177083333325
                },
                {
                    "name": "D5",
                    "midi": 74,
                    "time": 69.0624712239582,
                    "velocity": 0.6299212598425197,
                    "duration": 0.5365563802083386
                },
                {
                    "name": "E5",
                    "midi": 76,
                    "time": 69.6285087239582,
                    "velocity": 0.6299212598425197,
                    "duration": 0.5188677083333317
                },
                {
                    "name": "C5",
                    "midi": 72,
                    "time": 70.1945462239582,
                    "velocity": 0.6299212598425197,
                    "duration": 0.5188677083333317
                },
                {
                    "name": "B4",
                    "midi": 71,
                    "time": 70.76058372395819,
                    "velocity": 0.6299212598425197,
                    "duration": 0.5188677083333317
                },
                {
                    "name": "G#4",
                    "midi": 68,
                    "time": 70.76058372395819,
                    "velocity": 0.6299212598425197,
                    "duration": 0.5188677083333317
                },
                {
                    "name": "C5",
                    "midi": 72,
                    "time": 71.32662122395818,
                    "velocity": 0.6299212598425197,
                    "duration": 0.5188677083333317
                },
                {
                    "name": "A4",
                    "midi": 69,
                    "time": 71.32662122395818,
                    "velocity": 0.6299212598425197,
                    "duration": 2.1698104166666354
                },
                {
                    "name": "D5",
                    "midi": 74,
                    "time": 71.89265872395818,
                    "velocity": 0.6299212598425197,
                    "duration": 0.5188677083333317
                },
                {
                    "name": "C5",
                    "midi": 72,
                    "time": 72.45869622395817,
                    "velocity": 0.6299212598425197,
                    "duration": 0.13561315104166738
                },
                {
                    "name": "B4",
                    "midi": 71,
                    "time": 72.60020559895817,
                    "velocity": 0.6299212598425197,
                    "duration": 0.13561315104166738
                },
                {
                    "name": "C5",
                    "midi": 72,
                    "time": 72.74171497395817,
                    "velocity": 0.6299212598425197,
                    "duration": 0.13561315104166738
                },
                {
                    "name": "B4",
                    "midi": 71,
                    "time": 72.88322434895817,
                    "velocity": 0.6299212598425197,
                    "duration": 0.13561315104166738
                },
                {
                    "name": "C5",
                    "midi": 72,
                    "time": 73.02473372395816,
                    "velocity": 0.6299212598425197,
                    "duration": 0.13561315104166738
                },
                {
                    "name": "B4",
                    "midi": 71,
                    "time": 73.16624309895816,
                    "velocity": 0.6299212598425197,
                    "duration": 0.13561315104166738
                },
                {
                    "name": "C5",
                    "midi": 72,
                    "time": 73.30775247395816,
                    "velocity": 0.6299212598425197,
                    "duration": 0.13561315104166738
                },
                {
                    "name": "B4",
                    "midi": 71,
                    "time": 73.44926184895816,
                    "velocity": 0.6299212598425197,
                    "duration": 0.13561315104166738
                },
                {
                    "name": "G4",
                    "midi": 67,
                    "time": 73.59077122395816,
                    "velocity": 0.6299212598425197,
                    "duration": 2.081367057291672
                },
                {
                    "name": "C#5",
                    "midi": 73,
                    "time": 73.59077122395816,
                    "velocity": 0.6299212598425197,
                    "duration": 1.0377354166666635
                },
                {
                    "name": "D5",
                    "midi": 74,
                    "time": 74.72284622395816,
                    "velocity": 0.6299212598425197,
                    "duration": 3.3018854166666785
                },
                {
                    "name": "F4",
                    "midi": 65,
                    "time": 75.85492122395816,
                    "velocity": 0.6299212598425197,
                    "duration": 0.5188677083333317
                },
                {
                    "name": "G4",
                    "midi": 67,
                    "time": 76.42095872395815,
                    "velocity": 0.6299212598425197,
                    "duration": 0.259433854166673
                },
                {
                    "name": "A4",
                    "midi": 69,
                    "time": 76.70397747395816,
                    "velocity": 0.6299212598425197,
                    "duration": 0.259433854166673
                },
                {
                    "name": "E4",
                    "midi": 64,
                    "time": 76.98699622395817,
                    "velocity": 0.6299212598425197,
                    "duration": 1.5566031249999952
                },
                {
                    "name": "C5",
                    "midi": 72,
                    "time": 78.11907122395817,
                    "velocity": 0.6299212598425197,
                    "duration": 1.0377354166666635
                },
                {
                    "name": "F4",
                    "midi": 65,
                    "time": 78.68510872395817,
                    "velocity": 0.6299212598425197,
                    "duration": 0.5188677083333317
                },
                {
                    "name": "B4",
                    "midi": 71,
                    "time": 79.25114622395816,
                    "velocity": 0.6299212598425197,
                    "duration": 0.5365563802083386
                },
                {
                    "name": "D#4",
                    "midi": 63,
                    "time": 79.25114622395816,
                    "velocity": 0.6299212598425197,
                    "duration": 1.0377354166666777
                },
                {
                    "name": "A4",
                    "midi": 69,
                    "time": 79.81718372395817,
                    "velocity": 0.6299212598425197,
                    "duration": 0.5188677083333317
                },
                {
                    "name": "E4",
                    "midi": 64,
                    "time": 80.38322122395816,
                    "velocity": 0.6299212598425197,
                    "duration": 2.169810416666678
                },
                {
                    "name": "G4",
                    "midi": 67,
                    "time": 80.38322122395816,
                    "velocity": 0.6299212598425197,
                    "duration": 1.0377354166666635
                },
                {
                    "name": "G4",
                    "midi": 67,
                    "time": 81.51529622395816,
                    "velocity": 0.6299212598425197,
                    "duration": 0.259433854166673
                },
                {
                    "name": "F#4",
                    "midi": 66,
                    "time": 81.79831497395817,
                    "velocity": 0.6299212598425197,
                    "duration": 1.8160369791666682
                },
                {
                    "name": "D4",
                    "midi": 62,
                    "time": 82.64737122395817,
                    "velocity": 0.6299212598425197,
                    "duration": 2.081367057291672
                },
                {
                    "name": "G#4",
                    "midi": 68,
                    "time": 83.77944622395817,
                    "velocity": 0.6299212598425197,
                    "duration": 1.0377354166666777
                },
                {
                    "name": "B4",
                    "midi": 71,
                    "time": 84.91152122395819,
                    "velocity": 0.6299212598425197,
                    "duration": 0.13561315104166738
                },
                {
                    "name": "A4",
                    "midi": 69,
                    "time": 85.05303059895819,
                    "velocity": 0.6299212598425197,
                    "duration": 0.13561315104166738
                },
                {
                    "name": "B4",
                    "midi": 71,
                    "time": 85.19453997395819,
                    "velocity": 0.6299212598425197,
                    "duration": 0.13561315104166738
                },
                {
                    "name": "A4",
                    "midi": 69,
                    "time": 85.33604934895818,
                    "velocity": 0.6299212598425197,
                    "duration": 0.13561315104166738
                },
                {
                    "name": "B4",
                    "midi": 71,
                    "time": 85.47755872395818,
                    "velocity": 0.6299212598425197,
                    "duration": 0.13561315104166738
                },
                {
                    "name": "A4",
                    "midi": 69,
                    "time": 85.61906809895818,
                    "velocity": 0.6299212598425197,
                    "duration": 0.13561315104166738
                },
                {
                    "name": "B4",
                    "midi": 71,
                    "time": 85.76057747395818,
                    "velocity": 0.6299212598425197,
                    "duration": 0.13561315104166738
                },
                {
                    "name": "A4",
                    "midi": 69,
                    "time": 85.90208684895818,
                    "velocity": 0.6299212598425197,
                    "duration": 0.13561315104166738
                },
                {
                    "name": "A4",
                    "midi": 69,
                    "time": 86.04359622395818,
                    "velocity": 0.6299212598425197,
                    "duration": 0.259433854166673
                },
                {
                    "name": "B3",
                    "midi": 59,
                    "time": 86.04359622395818,
                    "velocity": 0.6299212598425197,
                    "duration": 1.0377354166666777
                },
                {
                    "name": "G#4",
                    "midi": 68,
                    "time": 86.32661497395819,
                    "velocity": 0.6299212598425197,
                    "duration": 0.7783015625000047
                },
                {
                    "name": "A4",
                    "midi": 69,
                    "time": 87.17567122395819,
                    "velocity": 0.6299212598425197,
                    "duration": 0.5306601562499935
                },
                {
                    "name": "E4",
                    "midi": 64,
                    "time": 87.17567122395819,
                    "velocity": 0.6299212598425197,
                    "duration": 0.5306601562499935
                },
                {
                    "name": "B4",
                    "midi": 71,
                    "time": 87.74170872395818,
                    "velocity": 0.6299212598425197,
                    "duration": 0.50707526041667
                },
                {
                    "name": "D4",
                    "midi": 62,
                    "time": 87.74170872395818,
                    "velocity": 0.6299212598425197,
                    "duration": 0.50707526041667
                },
                {
                    "name": "C5",
                    "midi": 72,
                    "time": 88.30774622395819,
                    "velocity": 0.6299212598425197,
                    "duration": 0.5188677083333317
                },
                {
                    "name": "E4",
                    "midi": 64,
                    "time": 88.30774622395819,
                    "velocity": 0.6299212598425197,
                    "duration": 1.0377354166666635
                },
                {
                    "name": "A4",
                    "midi": 69,
                    "time": 88.87378372395818,
                    "velocity": 0.6299212598425197,
                    "duration": 0.5188677083333317
                },
                {
                    "name": "D5",
                    "midi": 74,
                    "time": 89.43982122395818,
                    "velocity": 0.6299212598425197,
                    "duration": 0.5188677083333317
                },
                {
                    "name": "F#4",
                    "midi": 66,
                    "time": 89.43982122395818,
                    "velocity": 0.6299212598425197,
                    "duration": 0.5188677083333317
                },
                {
                    "name": "E5",
                    "midi": 76,
                    "time": 90.00585872395817,
                    "velocity": 0.6299212598425197,
                    "duration": 0.5188677083333317
                },
                {
                    "name": "G#4",
                    "midi": 68,
                    "time": 90.00585872395817,
                    "velocity": 0.6299212598425197,
                    "duration": 0.5188677083333317
                },
                {
                    "name": "A4",
                    "midi": 69,
                    "time": 90.57189622395816,
                    "velocity": 0.6299212598425197,
                    "duration": 3.119102473958307
                },
                {
                    "name": "D5",
                    "midi": 74,
                    "time": 90.57189622395816,
                    "velocity": 0.6299212598425197,
                    "duration": 0.13561315104166738
                },
                {
                    "name": "C5",
                    "midi": 72,
                    "time": 90.71340559895816,
                    "velocity": 0.6299212598425197,
                    "duration": 0.13561315104166738
                },
                {
                    "name": "D5",
                    "midi": 74,
                    "time": 90.85491497395816,
                    "velocity": 0.6299212598425197,
                    "duration": 0.13561315104166738
                },
                {
                    "name": "C5",
                    "midi": 72,
                    "time": 90.99642434895816,
                    "velocity": 0.6299212598425197,
                    "duration": 0.13561315104166738
                },
                {
                    "name": "D5",
                    "midi": 74,
                    "time": 91.13793372395816,
                    "velocity": 0.6299212598425197,
                    "duration": 0.13561315104166738
                },
                {
                    "name": "C5",
                    "midi": 72,
                    "time": 91.27944309895815,
                    "velocity": 0.6299212598425197,
                    "duration": 0.13561315104166738
                },
                {
                    "name": "D5",
                    "midi": 74,
                    "time": 91.42095247395815,
                    "velocity": 0.6299212598425197,
                    "duration": 0.13561315104166738
                },
                {
                    "name": "C5",
                    "midi": 72,
                    "time": 91.56246184895815,
                    "velocity": 0.6299212598425197,
                    "duration": 0.13561315104166738
                },
                {
                    "name": "D5",
                    "midi": 74,
                    "time": 91.70397122395815,
                    "velocity": 0.6299212598425197,
                    "duration": 0.13561315104166738
                },
                {
                    "name": "C5",
                    "midi": 72,
                    "time": 91.84548059895815,
                    "velocity": 0.6299212598425197,
                    "duration": 0.13561315104166738
                },
                {
                    "name": "D5",
                    "midi": 74,
                    "time": 91.98698997395815,
                    "velocity": 0.6299212598425197,
                    "duration": 0.13561315104166738
                },
                {
                    "name": "C5",
                    "midi": 72,
                    "time": 92.12849934895814,
                    "velocity": 0.6299212598425197,
                    "duration": 0.13561315104166738
                },
                {
                    "name": "D5",
                    "midi": 74,
                    "time": 92.27000872395814,
                    "velocity": 0.6299212598425197,
                    "duration": 0.13561315104166738
                },
                {
                    "name": "C5",
                    "midi": 72,
                    "time": 92.41151809895814,
                    "velocity": 0.6299212598425197,
                    "duration": 0.13561315104166738
                },
                {
                    "name": "D5",
                    "midi": 74,
                    "time": 92.55302747395814,
                    "velocity": 0.6299212598425197,
                    "duration": 0.13561315104166738
                },
                {
                    "name": "C5",
                    "midi": 72,
                    "time": 92.69453684895814,
                    "velocity": 0.6299212598425197,
                    "duration": 0.1297169270833365
                },
                {
                    "name": "B4",
                    "midi": 71,
                    "time": 92.83604622395814,
                    "velocity": 0.6299212598425197,
                    "duration": 1.0377354166666635
                },
                {
                    "name": "G4",
                    "midi": 67,
                    "time": 93.96812122395814,
                    "velocity": 0.6299212598425197,
                    "duration": 2.169810416666664
                },
                {
                    "name": "E5",
                    "midi": 76,
                    "time": 93.96812122395814,
                    "velocity": 0.6299212598425197,
                    "duration": 0.5365563802083386
                },
                {
                    "name": "E5",
                    "midi": 76,
                    "time": 94.53415872395814,
                    "velocity": 0.6299212598425197,
                    "duration": 0.5188677083333317
                },
                {
                    "name": "A4",
                    "midi": 69,
                    "time": 95.10019622395814,
                    "velocity": 0.6299212598425197,
                    "duration": 2.081367057291672
                },
                {
                    "name": "F4",
                    "midi": 65,
                    "time": 96.23227122395814,
                    "velocity": 0.6299212598425197,
                    "duration": 1.0377354166666777
                },
                {
                    "name": "D5",
                    "midi": 74,
                    "time": 96.23227122395814,
                    "velocity": 0.6299212598425197,
                    "duration": 1.6627351562500081
                },
                {
                    "name": "E4",
                    "midi": 64,
                    "time": 97.36434622395815,
                    "velocity": 0.6299212598425197,
                    "duration": 2.0813670572916436
                },
                {
                    "name": "G#4",
                    "midi": 68,
                    "time": 97.36434622395815,
                    "velocity": 0.6299212598425197,
                    "duration": 1.556603124999981
                },
                {
                    "name": "C5",
                    "midi": 72,
                    "time": 97.93038372395814,
                    "velocity": 0.6299212598425197,
                    "duration": 0.5188677083333317
                },
                {
                    "name": "B4",
                    "midi": 71,
                    "time": 98.49642122395814,
                    "velocity": 0.6299212598425197,
                    "duration": 0.5306601562499935
                },
                {
                    "name": "A4",
                    "midi": 69,
                    "time": 99.06245872395813,
                    "velocity": 0.6299212598425197,
                    "duration": 0.5188677083333317
                },
                {
                    "name": "C5",
                    "midi": 72,
                    "time": 99.06245872395813,
                    "velocity": 0.6299212598425197,
                    "duration": 0.5188677083333317
                },
                {
                    "name": "B4",
                    "midi": 71,
                    "time": 99.62849622395812,
                    "velocity": 0.6299212598425197,
                    "duration": 4.16273411458333
                },
                {
                    "name": "G#4",
                    "midi": 68,
                    "time": 99.62849622395812,
                    "velocity": 0.6299212598425197,
                    "duration": 4.16273411458333
                },
                {
                    "name": "E4",
                    "midi": 64,
                    "time": 99.62849622395812,
                    "velocity": 0.6299212598425197,
                    "duration": 4.16273411458333
                }
            ],
            "controlChanges": {
                "7": [
                    {
                        "number": 7,
                        "time": 0,
                        "value": 1
                    }
                ],
                "10": [
                    {
                        "number": 10,
                        "time": 0,
                        "value": 0.3700787401574803
                    }
                ],
                "91": [
                    {
                        "number": 91,
                        "time": 0,
                        "value": 0.3228346456692913
                    }
                ],
                "93": [
                    {
                        "number": 93,
                        "time": 0,
                        "value": 0.2755905511811024
                    }
                ],
                "121": [
                    {
                        "number": 121,
                        "time": 0,
                        "value": 0
                    },
                    {
                        "number": 121,
                        "time": 99.62849622395812,
                        "value": 0
                    }
                ]
            },
            "id": 3,
            "name": "Organ RH  ",
            "instrumentNumber": 69,
            "instrument": "english horn",
            "instrumentFamily": "reed",
            "channelNumber": 2,
            "isPercussion": false
        },
        {
            "startTime": 0.005896223958333333,
            "duration": 103.79123033854158,
            "length": 108,
            "notes": [
                {
                    "name": "E4",
                    "midi": 64,
                    "time": 0.005896223958333333,
                    "velocity": 0.6299212598425197,
                    "duration": 1.0377354166666666
                },
                {
                    "name": "E4",
                    "midi": 64,
                    "time": 1.1379712239583333,
                    "velocity": 0.6299212598425197,
                    "duration": 0.5188677083333333
                },
                {
                    "name": "E4",
                    "midi": 64,
                    "time": 1.7040087239583332,
                    "velocity": 0.6299212598425197,
                    "duration": 0.4893865885416666
                },
                {
                    "name": "A3",
                    "midi": 57,
                    "time": 2.270046223958333,
                    "velocity": 0.6299212598425197,
                    "duration": 1.0377354166666666
                },
                {
                    "name": "B3",
                    "midi": 59,
                    "time": 3.402121223958333,
                    "velocity": 0.6299212598425197,
                    "duration": 1.0377354166666661
                },
                {
                    "name": "C4",
                    "midi": 60,
                    "time": 4.534196223958332,
                    "velocity": 0.6299212598425197,
                    "duration": 1.037735416666667
                },
                {
                    "name": "A3",
                    "midi": 57,
                    "time": 5.666271223958333,
                    "velocity": 0.6299212598425197,
                    "duration": 1.037735416666667
                },
                {
                    "name": "F4",
                    "midi": 65,
                    "time": 6.798346223958333,
                    "velocity": 0.6299212598425197,
                    "duration": 1.037735416666667
                },
                {
                    "name": "D4",
                    "midi": 62,
                    "time": 7.930421223958334,
                    "velocity": 0.6299212598425197,
                    "duration": 1.037735416666667
                },
                {
                    "name": "E4",
                    "midi": 64,
                    "time": 9.062496223958334,
                    "velocity": 0.6299212598425197,
                    "duration": 1.037735416666667
                },
                {
                    "name": "D4",
                    "midi": 62,
                    "time": 10.194571223958334,
                    "velocity": 0.6299212598425197,
                    "duration": 0.542452604166666
                },
                {
                    "name": "E4",
                    "midi": 64,
                    "time": 10.760608723958333,
                    "velocity": 0.6299212598425197,
                    "duration": 0.5188677083333335
                },
                {
                    "name": "C4",
                    "midi": 60,
                    "time": 11.326646223958333,
                    "velocity": 0.6299212598425197,
                    "duration": 1.037735416666667
                },
                {
                    "name": "B3",
                    "midi": 59,
                    "time": 12.458721223958333,
                    "velocity": 0.6299212598425197,
                    "duration": 1.037735416666667
                },
                {
                    "name": "A3",
                    "midi": 57,
                    "time": 13.590796223958334,
                    "velocity": 0.6299212598425197,
                    "duration": 1.037735416666667
                },
                {
                    "name": "G3",
                    "midi": 55,
                    "time": 14.722871223958334,
                    "velocity": 0.6299212598425197,
                    "duration": 0.542452604166666
                },
                {
                    "name": "A3",
                    "midi": 57,
                    "time": 15.288908723958333,
                    "velocity": 0.6299212598425197,
                    "duration": 0.5188677083333335
                },
                {
                    "name": "F#3",
                    "midi": 54,
                    "time": 15.854946223958333,
                    "velocity": 0.6299212598425197,
                    "duration": 1.5566031249999988
                },
                {
                    "name": "G3",
                    "midi": 55,
                    "time": 17.55305872395833,
                    "velocity": 0.6299212598425197,
                    "duration": 0.5188677083333317
                },
                {
                    "name": "A3",
                    "midi": 57,
                    "time": 18.119096223958326,
                    "velocity": 0.6299212598425197,
                    "duration": 1.037735416666667
                },
                {
                    "name": "A2",
                    "midi": 45,
                    "time": 19.251171223958327,
                    "velocity": 0.6299212598425197,
                    "duration": 1.037735416666667
                },
                {
                    "name": "E3",
                    "midi": 52,
                    "time": 20.383246223958327,
                    "velocity": 0.6299212598425197,
                    "duration": 2.0813670572916685
                },
                {
                    "name": "F3",
                    "midi": 53,
                    "time": 22.647396223958328,
                    "velocity": 0.6299212598425197,
                    "duration": 1.037735416666667
                },
                {
                    "name": "F3",
                    "midi": 53,
                    "time": 23.77947122395833,
                    "velocity": 0.6299212598425197,
                    "duration": 0.14150937499999827
                },
                {
                    "name": "E3",
                    "midi": 52,
                    "time": 23.920980598958327,
                    "velocity": 0.6299212598425197,
                    "duration": 0.14150937499999827
                },
                {
                    "name": "F3",
                    "midi": 53,
                    "time": 24.062489973958325,
                    "velocity": 0.6299212598425197,
                    "duration": 0.14150937499999827
                },
                {
                    "name": "E3",
                    "midi": 52,
                    "time": 24.203999348958323,
                    "velocity": 0.6299212598425197,
                    "duration": 0.13561315104166738
                },
                {
                    "name": "D3",
                    "midi": 50,
                    "time": 24.345508723958325,
                    "velocity": 0.6299212598425197,
                    "duration": 0.5188677083333317
                },
                {
                    "name": "E3",
                    "midi": 52,
                    "time": 24.91154622395832,
                    "velocity": 0.6299212598425197,
                    "duration": 1.037735416666667
                },
                {
                    "name": "A2",
                    "midi": 45,
                    "time": 26.043621223958322,
                    "velocity": 0.6299212598425197,
                    "duration": 1.037735416666667
                },
                {
                    "name": "E2",
                    "midi": 40,
                    "time": 27.175696223958322,
                    "velocity": 0.6299212598425197,
                    "duration": 4.528299999999998
                },
                {
                    "name": "E3",
                    "midi": 52,
                    "time": 31.70399622395832,
                    "velocity": 0.6299212598425197,
                    "duration": 1.0377354166666635
                },
                {
                    "name": "E3",
                    "midi": 52,
                    "time": 32.836071223958314,
                    "velocity": 0.6299212598425197,
                    "duration": 0.5188677083333317
                },
                {
                    "name": "E3",
                    "midi": 52,
                    "time": 33.402108723958314,
                    "velocity": 0.6299212598425197,
                    "duration": 0.48349036458333217
                },
                {
                    "name": "A2",
                    "midi": 45,
                    "time": 33.968146223958314,
                    "velocity": 0.6299212598425197,
                    "duration": 1.5566031250000023
                },
                {
                    "name": "B2",
                    "midi": 47,
                    "time": 35.666258723958315,
                    "velocity": 0.6299212598425197,
                    "duration": 0.5188677083333317
                },
                {
                    "name": "C3",
                    "midi": 48,
                    "time": 36.232296223958315,
                    "velocity": 0.6299212598425197,
                    "duration": 1.0377354166666635
                },
                {
                    "name": "D3",
                    "midi": 50,
                    "time": 37.36437122395831,
                    "velocity": 0.6299212598425197,
                    "duration": 1.0377354166666635
                },
                {
                    "name": "E3",
                    "midi": 52,
                    "time": 38.4964462239583,
                    "velocity": 0.6299212598425197,
                    "duration": 2.081367057291665
                },
                {
                    "name": "A3",
                    "midi": 57,
                    "time": 40.7605962239583,
                    "velocity": 0.6299212598425197,
                    "duration": 0.5306601562500006
                },
                {
                    "name": "B3",
                    "midi": 59,
                    "time": 41.3266337239583,
                    "velocity": 0.6299212598425197,
                    "duration": 0.5188677083333317
                },
                {
                    "name": "B3",
                    "midi": 59,
                    "time": 41.8926712239583,
                    "velocity": 0.6299212598425197,
                    "duration": 0.14150937499999827
                },
                {
                    "name": "A3",
                    "midi": 57,
                    "time": 42.0341805989583,
                    "velocity": 0.6299212598425197,
                    "duration": 0.14150937499999827
                },
                {
                    "name": "B3",
                    "midi": 59,
                    "time": 42.1756899739583,
                    "velocity": 0.6299212598425197,
                    "duration": 0.14150937499999827
                },
                {
                    "name": "A3",
                    "midi": 57,
                    "time": 42.3171993489583,
                    "velocity": 0.6299212598425197,
                    "duration": 0.13561315104166738
                },
                {
                    "name": "G3",
                    "midi": 55,
                    "time": 42.458708723958296,
                    "velocity": 0.6299212598425197,
                    "duration": 0.5188677083333317
                },
                {
                    "name": "F3",
                    "midi": 53,
                    "time": 43.024746223958296,
                    "velocity": 0.6299212598425197,
                    "duration": 1.0377354166666635
                },
                {
                    "name": "F4",
                    "midi": 65,
                    "time": 44.15682122395829,
                    "velocity": 0.6299212598425197,
                    "duration": 1.0377354166666635
                },
                {
                    "name": "C4",
                    "midi": 60,
                    "time": 45.28889622395828,
                    "velocity": 0.6299212598425197,
                    "duration": 2.081367057291665
                },
                {
                    "name": "B3",
                    "midi": 59,
                    "time": 47.55304622395828,
                    "velocity": 0.6299212598425197,
                    "duration": 0.5306601562500006
                },
                {
                    "name": "C4",
                    "midi": 60,
                    "time": 48.11908372395828,
                    "velocity": 0.6299212598425197,
                    "duration": 0.5188677083333317
                },
                {
                    "name": "B3",
                    "midi": 59,
                    "time": 48.685121223958284,
                    "velocity": 0.6299212598425197,
                    "duration": 0.5306601562500006
                },
                {
                    "name": "A3",
                    "midi": 57,
                    "time": 49.251158723958284,
                    "velocity": 0.6299212598425197,
                    "duration": 0.50707526041667
                },
                {
                    "name": "G#3",
                    "midi": 56,
                    "time": 49.817196223958284,
                    "velocity": 0.6299212598425197,
                    "duration": 2.081367057291665
                },
                {
                    "name": "A3",
                    "midi": 57,
                    "time": 52.081346223958285,
                    "velocity": 0.6299212598425197,
                    "duration": 0.5424526041666695
                },
                {
                    "name": "G3",
                    "midi": 55,
                    "time": 52.647383723958285,
                    "velocity": 0.6299212598425197,
                    "duration": 0.5188677083333317
                },
                {
                    "name": "G3",
                    "midi": 55,
                    "time": 53.213421223958285,
                    "velocity": 0.6299212598425197,
                    "duration": 0.14150937499999827
                },
                {
                    "name": "F#3",
                    "midi": 54,
                    "time": 53.35493059895828,
                    "velocity": 0.6299212598425197,
                    "duration": 0.14150937499999827
                },
                {
                    "name": "G3",
                    "midi": 55,
                    "time": 53.49643997395828,
                    "velocity": 0.6299212598425197,
                    "duration": 0.14150937499999827
                },
                {
                    "name": "F#3",
                    "midi": 54,
                    "time": 53.63794934895828,
                    "velocity": 0.6299212598425197,
                    "duration": 0.13561315104166738
                },
                {
                    "name": "E3",
                    "midi": 52,
                    "time": 53.77945872395828,
                    "velocity": 0.6299212598425197,
                    "duration": 0.5188677083333317
                },
                {
                    "name": "D#3",
                    "midi": 51,
                    "time": 54.34549622395828,
                    "velocity": 0.6299212598425197,
                    "duration": 0.5306601562500006
                },
                {
                    "name": "B2",
                    "midi": 47,
                    "time": 54.91153372395828,
                    "velocity": 0.6299212598425197,
                    "duration": 0.5188677083333317
                },
                {
                    "name": "E3",
                    "midi": 52,
                    "time": 55.47757122395828,
                    "velocity": 0.6299212598425197,
                    "duration": 0.5306601562500006
                },
                {
                    "name": "A2",
                    "midi": 45,
                    "time": 56.04360872395828,
                    "velocity": 0.6299212598425197,
                    "duration": 0.50707526041667
                },
                {
                    "name": "B2",
                    "midi": 47,
                    "time": 56.60964622395828,
                    "velocity": 0.6299212598425197,
                    "duration": 2.081367057291665
                },
                {
                    "name": "E3",
                    "midi": 52,
                    "time": 58.87379622395828,
                    "velocity": 0.6299212598425197,
                    "duration": 0.5306601562500006
                },
                {
                    "name": "C3",
                    "midi": 48,
                    "time": 59.43983372395828,
                    "velocity": 0.6299212598425197,
                    "duration": 0.5188677083333317
                },
                {
                    "name": "D3",
                    "midi": 50,
                    "time": 60.00587122395828,
                    "velocity": 0.6299212598425197,
                    "duration": 0.5306601562500006
                },
                {
                    "name": "E3",
                    "midi": 52,
                    "time": 60.57190872395828,
                    "velocity": 0.6299212598425197,
                    "duration": 0.50707526041667
                },
                {
                    "name": "F3",
                    "midi": 53,
                    "time": 61.13794622395828,
                    "velocity": 0.6299212598425197,
                    "duration": 2.081367057291665
                },
                {
                    "name": "E3",
                    "midi": 52,
                    "time": 63.40209622395828,
                    "velocity": 0.6299212598425197,
                    "duration": 0.5306601562500006
                },
                {
                    "name": "D3",
                    "midi": 50,
                    "time": 63.96813372395828,
                    "velocity": 0.6299212598425197,
                    "duration": 0.5188677083333388
                },
                {
                    "name": "C3",
                    "midi": 48,
                    "time": 64.53417122395828,
                    "velocity": 0.6299212598425197,
                    "duration": 1.0377354166666635
                },
                {
                    "name": "G3",
                    "midi": 55,
                    "time": 65.66624622395828,
                    "velocity": 0.6299212598425197,
                    "duration": 0.5306601562499935
                },
                {
                    "name": "A3",
                    "midi": 57,
                    "time": 66.23228372395828,
                    "velocity": 0.6299212598425197,
                    "duration": 0.5188677083333317
                },
                {
                    "name": "B3",
                    "midi": 59,
                    "time": 66.79832122395827,
                    "velocity": 0.6299212598425197,
                    "duration": 0.5306601562499935
                },
                {
                    "name": "C4",
                    "midi": 60,
                    "time": 67.36435872395826,
                    "velocity": 0.6299212598425197,
                    "duration": 0.50707526041667
                },
                {
                    "name": "D4",
                    "midi": 62,
                    "time": 67.93039622395827,
                    "velocity": 0.6299212598425197,
                    "duration": 0.5424526041666695
                },
                {
                    "name": "D3",
                    "midi": 50,
                    "time": 68.49643372395828,
                    "velocity": 0.6299212598425197,
                    "duration": 0.5188677083333317
                },
                {
                    "name": "F3",
                    "midi": 53,
                    "time": 69.06247122395827,
                    "velocity": 0.6299212598425197,
                    "duration": 0.5306601562499935
                },
                {
                    "name": "G3",
                    "midi": 55,
                    "time": 69.62850872395826,
                    "velocity": 0.6299212598425197,
                    "duration": 0.50707526041667
                },
                {
                    "name": "A3",
                    "midi": 57,
                    "time": 70.19454622395827,
                    "velocity": 0.6299212598425197,
                    "duration": 1.0377354166666635
                },
                {
                    "name": "A3",
                    "midi": 57,
                    "time": 71.32662122395827,
                    "velocity": 0.6299212598425197,
                    "duration": 1.0377354166666635
                },
                {
                    "name": "E3",
                    "midi": 52,
                    "time": 72.45869622395827,
                    "velocity": 0.6299212598425197,
                    "duration": 1.0377354166666635
                },
                {
                    "name": "E3",
                    "midi": 52,
                    "time": 73.59077122395827,
                    "velocity": 0.6299212598425197,
                    "duration": 0.5188677083333317
                },
                {
                    "name": "E3",
                    "midi": 52,
                    "time": 74.15680872395826,
                    "velocity": 0.6299212598425197,
                    "duration": 0.48349036458333217
                },
                {
                    "name": "A2",
                    "midi": 45,
                    "time": 74.72284622395826,
                    "velocity": 0.6299212598425197,
                    "duration": 2.081367057291672
                },
                {
                    "name": "A2",
                    "midi": 45,
                    "time": 76.98699622395826,
                    "velocity": 0.6299212598425197,
                    "duration": 0.259433854166673
                },
                {
                    "name": "G#2",
                    "midi": 44,
                    "time": 77.27001497395827,
                    "velocity": 0.6299212598425197,
                    "duration": 0.7783015625000047
                },
                {
                    "name": "A2",
                    "midi": 45,
                    "time": 78.11907122395827,
                    "velocity": 0.6299212598425197,
                    "duration": 1.0377354166666635
                },
                {
                    "name": "B2",
                    "midi": 47,
                    "time": 79.25114622395827,
                    "velocity": 0.6299212598425197,
                    "duration": 2.081367057291672
                },
                {
                    "name": "B3",
                    "midi": 59,
                    "time": 81.51529622395827,
                    "velocity": 0.6299212598425197,
                    "duration": 1.0377354166666635
                },
                {
                    "name": "B3",
                    "midi": 59,
                    "time": 82.64737122395827,
                    "velocity": 0.6299212598425197,
                    "duration": 0.5188677083333317
                },
                {
                    "name": "B3",
                    "midi": 59,
                    "time": 83.21340872395827,
                    "velocity": 0.6299212598425197,
                    "duration": 0.4775941406250013
                },
                {
                    "name": "E3",
                    "midi": 52,
                    "time": 83.77944622395827,
                    "velocity": 0.6299212598425197,
                    "duration": 2.081367057291672
                },
                {
                    "name": "E3",
                    "midi": 52,
                    "time": 86.04359622395828,
                    "velocity": 0.6299212598425197,
                    "duration": 0.5306601562499935
                },
                {
                    "name": "D3",
                    "midi": 50,
                    "time": 86.60963372395827,
                    "velocity": 0.6299212598425197,
                    "duration": 0.5188677083333317
                },
                {
                    "name": "C3",
                    "midi": 48,
                    "time": 87.17567122395826,
                    "velocity": 0.6299212598425197,
                    "duration": 0.5306601562499935
                },
                {
                    "name": "B2",
                    "midi": 47,
                    "time": 87.74170872395825,
                    "velocity": 0.6299212598425197,
                    "duration": 0.50707526041667
                },
                {
                    "name": "A2",
                    "midi": 45,
                    "time": 88.30774622395826,
                    "velocity": 0.6299212598425197,
                    "duration": 2.081367057291672
                },
                {
                    "name": "A2",
                    "midi": 45,
                    "time": 90.57189622395826,
                    "velocity": 0.6299212598425197,
                    "duration": 1.0377354166666635
                },
                {
                    "name": "A2",
                    "midi": 45,
                    "time": 91.70397122395826,
                    "velocity": 0.6299212598425197,
                    "duration": 0.5188677083333317
                },
                {
                    "name": "A2",
                    "midi": 45,
                    "time": 92.27000872395826,
                    "velocity": 0.6299212598425197,
                    "duration": 0.4775941406250013
                },
                {
                    "name": "E2",
                    "midi": 40,
                    "time": 92.83604622395826,
                    "velocity": 0.6299212598425197,
                    "duration": 2.081367057291672
                },
                {
                    "name": "F2",
                    "midi": 41,
                    "time": 95.10019622395826,
                    "velocity": 0.6299212598425197,
                    "duration": 1.5566031249999952
                },
                {
                    "name": "D2",
                    "midi": 38,
                    "time": 96.79830872395826,
                    "velocity": 0.6299212598425197,
                    "duration": 0.5188677083333317
                },
                {
                    "name": "E2",
                    "midi": 40,
                    "time": 97.36434622395825,
                    "velocity": 0.6299212598425197,
                    "duration": 6.426884114583331
                }
            ],
            "controlChanges": {
                "7": [
                    {
                        "number": 7,
                        "time": 0,
                        "value": 0.937007874015748
                    }
                ],
                "10": [
                    {
                        "number": 10,
                        "time": 0,
                        "value": 0.6299212598425197
                    }
                ],
                "91": [
                    {
                        "number": 91,
                        "time": 0,
                        "value": 0.2755905511811024
                    }
                ],
                "93": [
                    {
                        "number": 93,
                        "time": 0,
                        "value": 0.28346456692913385
                    }
                ],
                "121": [
                    {
                        "number": 121,
                        "time": 0,
                        "value": 0
                    },
                    {
                        "number": 121,
                        "time": 97.36434622395825,
                        "value": 0
                    }
                ]
            },
            "id": 4,
            "name": "Organ LH  ",
            "instrumentNumber": 69,
            "instrument": "english horn",
            "instrumentFamily": "reed",
            "channelNumber": 3,
            "isPercussion": false
        },
        {
            "startTime": 0,
            "duration": 0,
            "length": 0,
            "notes": [],
            "controlChanges": {},
            "id": 5,
            "name": "text      "
        }
    ]
}