{
    "header": {
        "PPQ": 120,
        "timeSignature": [
            2,
            2
        ],
        "bpm": 176.00004693334586,
        "name": "Entered by John Cowles"
    },
    "startTime": 0,
    "duration": 66.63918677499977,
    "tracks": [
        {
            "startTime": 0,
            "duration": 0,
            "length": 0,
            "notes": [],
            "controlChanges": {},
            "id": 0
        },
        {
            "startTime": 1.1931815,
            "duration": 66.63350495833313,
            "length": 210,
            "notes": [
                {
                    "name": "C5",
                    "midi": 72,
                    "time": 1.1931815,
                    "velocity": 0.6929133858267716,
                    "duration": 0.1647726833333334
                },
                {
                    "name": "C5",
                    "midi": 72,
                    "time": 1.3607950916666667,
                    "velocity": 0.8031496062992126,
                    "duration": 1.014204275
                },
                {
                    "name": "C5",
                    "midi": 72,
                    "time": 2.3806811833333335,
                    "velocity": 0.7322834645669292,
                    "duration": 0.16761359166666656
                },
                {
                    "name": "D5",
                    "midi": 74,
                    "time": 2.5624993166666665,
                    "velocity": 0.7480314960629921,
                    "duration": 0.17045449999999995
                },
                {
                    "name": "E5",
                    "midi": 76,
                    "time": 2.7244310916666663,
                    "velocity": 0.8031496062992126,
                    "duration": 0.34090900000000035
                },
                {
                    "name": "F5",
                    "midi": 77,
                    "time": 3.0624991833333333,
                    "velocity": 0.7244094488188977,
                    "duration": 0.3380680916666665
                },
                {
                    "name": "D5",
                    "midi": 74,
                    "time": 3.403408183333333,
                    "velocity": 0.7874015748031497,
                    "duration": 0.5085225916666665
                },
                {
                    "name": "C5",
                    "midi": 72,
                    "time": 3.9232944083333328,
                    "velocity": 0.7007874015748031,
                    "duration": 0.1590908666666664
                },
                {
                    "name": "G5",
                    "midi": 79,
                    "time": 4.085226183333332,
                    "velocity": 0.7874015748031497,
                    "duration": 0.8380679583333333
                },
                {
                    "name": "A5",
                    "midi": 81,
                    "time": 4.946021408333332,
                    "velocity": 0.7480314960629921,
                    "duration": 0.167613591666667
                },
                {
                    "name": "G5",
                    "midi": 79,
                    "time": 5.119316816666665,
                    "velocity": 0.7244094488188977,
                    "duration": 0.16193177500000022
                },
                {
                    "name": "F5",
                    "midi": 77,
                    "time": 5.281248591666666,
                    "velocity": 0.7244094488188977,
                    "duration": 0.1590908666666664
                },
                {
                    "name": "E5",
                    "midi": 76,
                    "time": 5.457384908333332,
                    "velocity": 0.8188976377952756,
                    "duration": 0.167613591666667
                },
                {
                    "name": "D5",
                    "midi": 74,
                    "time": 5.619316683333333,
                    "velocity": 0.7086614173228346,
                    "duration": 0.1534090500000005
                },
                {
                    "name": "C5",
                    "midi": 72,
                    "time": 5.801134816666666,
                    "velocity": 0.7007874015748031,
                    "duration": 0.15624995833333344
                },
                {
                    "name": "B4",
                    "midi": 71,
                    "time": 5.963066591666666,
                    "velocity": 0.7165354330708661,
                    "duration": 0.15624995833333344
                },
                {
                    "name": "A4",
                    "midi": 69,
                    "time": 6.139202908333333,
                    "velocity": 0.7716535433070866,
                    "duration": 0.32386354999999956
                },
                {
                    "name": "D5",
                    "midi": 74,
                    "time": 6.471589183333332,
                    "velocity": 0.7244094488188977,
                    "duration": 0.3267044583333334
                },
                {
                    "name": "B4",
                    "midi": 71,
                    "time": 6.823861816666666,
                    "velocity": 0.7952755905511811,
                    "duration": 0.5113634999999999
                },
                {
                    "name": "A4",
                    "midi": 69,
                    "time": 7.323861683333332,
                    "velocity": 0.6929133858267716,
                    "duration": 0.167613591666667
                },
                {
                    "name": "G4",
                    "midi": 67,
                    "time": 7.505679816666666,
                    "velocity": 0.7716535433070866,
                    "duration": 0.505681683333334
                },
                {
                    "name": "G4",
                    "midi": 67,
                    "time": 8.014202408333333,
                    "velocity": 0.7165354330708661,
                    "duration": 0.16477268333333228
                },
                {
                    "name": "A4",
                    "midi": 69,
                    "time": 8.176134183333332,
                    "velocity": 0.8188976377952756,
                    "duration": 0.33806809166666696
                },
                {
                    "name": "E4",
                    "midi": 64,
                    "time": 8.522725,
                    "velocity": 0.7480314960629921,
                    "duration": 0.167613591666667
                },
                {
                    "name": "F4",
                    "midi": 65,
                    "time": 8.698861316666667,
                    "velocity": 0.7401574803149606,
                    "duration": 0.1590908666666664
                },
                {
                    "name": "F4",
                    "midi": 65,
                    "time": 8.863634,
                    "velocity": 0.7480314960629921,
                    "duration": 0.49715895833333335
                },
                {
                    "name": "E4",
                    "midi": 64,
                    "time": 9.372156591666666,
                    "velocity": 0.6929133858267716,
                    "duration": 0.1590908666666664
                },
                {
                    "name": "D4",
                    "midi": 62,
                    "time": 9.539770183333333,
                    "velocity": 0.7952755905511811,
                    "duration": 0.4943180500000004
                },
                {
                    "name": "D5",
                    "midi": 74,
                    "time": 10.0568155,
                    "velocity": 0.7401574803149606,
                    "duration": 0.15624995833333344
                },
                {
                    "name": "E5",
                    "midi": 76,
                    "time": 10.22727,
                    "velocity": 0.7637795275590551,
                    "duration": 0.33806809166666696
                },
                {
                    "name": "B4",
                    "midi": 71,
                    "time": 10.573860816666668,
                    "velocity": 0.7480314960629921,
                    "duration": 0.1534090500000005
                },
                {
                    "name": "C5",
                    "midi": 72,
                    "time": 10.744315316666668,
                    "velocity": 0.7401574803149606,
                    "duration": 0.15624995833333344
                },
                {
                    "name": "C5",
                    "midi": 72,
                    "time": 10.909088000000002,
                    "velocity": 0.8110236220472441,
                    "duration": 0.49715895833333335
                },
                {
                    "name": "B4",
                    "midi": 71,
                    "time": 11.420451500000002,
                    "velocity": 0.7559055118110236,
                    "duration": 0.167613591666667
                },
                {
                    "name": "A4",
                    "midi": 69,
                    "time": 11.59658781666667,
                    "velocity": 0.7322834645669292,
                    "duration": 0.3267044583333334
                },
                {
                    "name": "F5",
                    "midi": 77,
                    "time": 11.926133183333336,
                    "velocity": 0.7559055118110236,
                    "duration": 0.16193177499999933
                },
                {
                    "name": "E5",
                    "midi": 76,
                    "time": 12.096587683333336,
                    "velocity": 0.7086614173228346,
                    "duration": 0.16477268333333406
                },
                {
                    "name": "D5",
                    "midi": 74,
                    "time": 12.267042183333336,
                    "velocity": 0.7874015748031497,
                    "duration": 0.1534090500000005
                },
                {
                    "name": "G4",
                    "midi": 67,
                    "time": 12.446019408333337,
                    "velocity": 0.7086614173228346,
                    "duration": 0.15624995833333344
                },
                {
                    "name": "A4",
                    "midi": 69,
                    "time": 12.61079209166667,
                    "velocity": 0.7480314960629921,
                    "duration": 0.17045449999999995
                },
                {
                    "name": "B4",
                    "midi": 71,
                    "time": 12.786928408333337,
                    "velocity": 0.7559055118110236,
                    "duration": 0.15624995833333344
                },
                {
                    "name": "C5",
                    "midi": 72,
                    "time": 12.96022381666667,
                    "velocity": 0.7874015748031497,
                    "duration": 0.167613591666667
                },
                {
                    "name": "D5",
                    "midi": 74,
                    "time": 13.124996500000004,
                    "velocity": 0.7480314960629921,
                    "duration": 0.15340904999999871
                },
                {
                    "name": "E5",
                    "midi": 76,
                    "time": 13.295451000000002,
                    "velocity": 0.7322834645669292,
                    "duration": 0.167613591666667
                },
                {
                    "name": "F5",
                    "midi": 77,
                    "time": 13.468746408333335,
                    "velocity": 0.7165354330708661,
                    "duration": 0.16477268333333228
                },
                {
                    "name": "G5",
                    "midi": 79,
                    "time": 13.630678183333334,
                    "velocity": 0.8188976377952756,
                    "duration": 0.32954536666666634
                },
                {
                    "name": "A5",
                    "midi": 81,
                    "time": 13.974428091666667,
                    "velocity": 0.7007874015748031,
                    "duration": 0.07670452500000025
                },
                {
                    "name": "E5",
                    "midi": 76,
                    "time": 14.056814433333333,
                    "velocity": 0.7322834645669292,
                    "duration": 0.23863629999999958
                },
                {
                    "name": "F#5",
                    "midi": 78,
                    "time": 14.321018908333333,
                    "velocity": 0.7795275590551181,
                    "duration": 0.4999998666666663
                },
                {
                    "name": "E5",
                    "midi": 76,
                    "time": 14.835223316666665,
                    "velocity": 0.7244094488188977,
                    "duration": 0.06818179999999963
                },
                {
                    "name": "F#5",
                    "midi": 78,
                    "time": 14.911927841666666,
                    "velocity": 0.7007874015748031,
                    "duration": 0.08522725000000086
                },
                {
                    "name": "G5",
                    "midi": 79,
                    "time": 14.999996,
                    "velocity": 0.7795275590551181,
                    "duration": 1.3522723666666678
                },
                {
                    "name": "G5",
                    "midi": 79,
                    "time": 16.36931381666667,
                    "velocity": 0.8188976377952756,
                    "duration": 1.187499683333332
                },
                {
                    "name": "G5",
                    "midi": 79,
                    "time": 17.562495316666666,
                    "velocity": 0.7480314960629921,
                    "duration": 0.1590908666666664
                },
                {
                    "name": "C5",
                    "midi": 72,
                    "time": 17.721586183333333,
                    "velocity": 0.7874015748031497,
                    "duration": 1.0056815499999985
                },
                {
                    "name": "C5",
                    "midi": 72,
                    "time": 18.749995,
                    "velocity": 0.7480314960629921,
                    "duration": 0.15624995833333344
                },
                {
                    "name": "D5",
                    "midi": 74,
                    "time": 18.9204495,
                    "velocity": 0.7401574803149606,
                    "duration": 0.1534090500000005
                },
                {
                    "name": "E5",
                    "midi": 76,
                    "time": 19.090904000000002,
                    "velocity": 0.7874015748031497,
                    "duration": 0.335227183333334
                },
                {
                    "name": "F5",
                    "midi": 77,
                    "time": 19.434653908333335,
                    "velocity": 0.7007874015748031,
                    "duration": 0.3295453666666681
                },
                {
                    "name": "D5",
                    "midi": 74,
                    "time": 19.772722,
                    "velocity": 0.7401574803149606,
                    "duration": 0.5113635000000016
                },
                {
                    "name": "C5",
                    "midi": 72,
                    "time": 20.286926408333336,
                    "velocity": 0.7086614173228346,
                    "duration": 0.17045449999999818
                },
                {
                    "name": "G5",
                    "midi": 79,
                    "time": 20.448858183333336,
                    "velocity": 0.8031496062992126,
                    "duration": 0.8465906833333321
                },
                {
                    "name": "A5",
                    "midi": 81,
                    "time": 21.303971591666667,
                    "velocity": 0.7480314960629921,
                    "duration": 0.17045450000000173
                },
                {
                    "name": "G5",
                    "midi": 79,
                    "time": 21.480107908333334,
                    "velocity": 0.7322834645669292,
                    "duration": 0.15624995833333344
                },
                {
                    "name": "F5",
                    "midi": 77,
                    "time": 21.644880591666666,
                    "velocity": 0.7007874015748031,
                    "duration": 0.1534090500000005
                },
                {
                    "name": "E5",
                    "midi": 76,
                    "time": 21.815335091666668,
                    "velocity": 0.8031496062992126,
                    "duration": 0.16193177499999933
                },
                {
                    "name": "D5",
                    "midi": 74,
                    "time": 21.991471408333336,
                    "velocity": 0.7007874015748031,
                    "duration": 0.1590908666666664
                },
                {
                    "name": "C5",
                    "midi": 72,
                    "time": 22.159085,
                    "velocity": 0.7322834645669292,
                    "duration": 0.1590908666666664
                },
                {
                    "name": "B4",
                    "midi": 71,
                    "time": 22.326698591666666,
                    "velocity": 0.7007874015748031,
                    "duration": 0.1534090500000005
                },
                {
                    "name": "A4",
                    "midi": 69,
                    "time": 22.505675816666667,
                    "velocity": 0.7322834645669292,
                    "duration": 0.32386354999999867
                },
                {
                    "name": "D5",
                    "midi": 74,
                    "time": 22.840902999999997,
                    "velocity": 0.7244094488188977,
                    "duration": 0.33238627500000106
                },
                {
                    "name": "B4",
                    "midi": 71,
                    "time": 23.17613018333333,
                    "velocity": 0.8110236220472441,
                    "duration": 0.5028407749999992
                },
                {
                    "name": "A4",
                    "midi": 69,
                    "time": 23.6931755,
                    "velocity": 0.6929133858267716,
                    "duration": 0.15624995833333344
                },
                {
                    "name": "G4",
                    "midi": 67,
                    "time": 23.860789091666664,
                    "velocity": 0.7716535433070866,
                    "duration": 0.4999998666666663
                },
                {
                    "name": "G4",
                    "midi": 67,
                    "time": 24.36931168333333,
                    "velocity": 0.7322834645669292,
                    "duration": 0.16761359166666523
                },
                {
                    "name": "A4",
                    "midi": 69,
                    "time": 24.545447999999993,
                    "velocity": 0.7637795275590551,
                    "duration": 0.33806809166666696
                },
                {
                    "name": "E4",
                    "midi": 64,
                    "time": 24.89203881666666,
                    "velocity": 0.7322834645669292,
                    "duration": 0.16477268333333228
                },
                {
                    "name": "F4",
                    "midi": 65,
                    "time": 25.05397059166666,
                    "velocity": 0.7165354330708661,
                    "duration": 0.1590908666666664
                },
                {
                    "name": "F4",
                    "midi": 65,
                    "time": 25.227265999999993,
                    "velocity": 0.7480314960629921,
                    "duration": 0.49715895833333335
                },
                {
                    "name": "E4",
                    "midi": 64,
                    "time": 25.74431131666666,
                    "velocity": 0.7480314960629921,
                    "duration": 0.16193177499999933
                },
                {
                    "name": "D4",
                    "midi": 62,
                    "time": 25.91476581666666,
                    "velocity": 0.7874015748031497,
                    "duration": 0.5056816833333322
                },
                {
                    "name": "D5",
                    "midi": 74,
                    "time": 26.414765683333325,
                    "velocity": 0.7401574803149606,
                    "duration": 0.17045449999999818
                },
                {
                    "name": "E5",
                    "midi": 76,
                    "time": 26.585220183333323,
                    "velocity": 0.7716535433070866,
                    "duration": 0.32386354999999867
                },
                {
                    "name": "B4",
                    "midi": 71,
                    "time": 26.93181099999999,
                    "velocity": 0.7322834645669292,
                    "duration": 0.15624995833333344
                },
                {
                    "name": "C5",
                    "midi": 72,
                    "time": 27.09658368333332,
                    "velocity": 0.7480314960629921,
                    "duration": 0.16477268333333228
                },
                {
                    "name": "C5",
                    "midi": 72,
                    "time": 27.275560908333322,
                    "velocity": 0.8110236220472441,
                    "duration": 0.4943180500000004
                },
                {
                    "name": "B4",
                    "midi": 71,
                    "time": 27.789765316666657,
                    "velocity": 0.7322834645669292,
                    "duration": 0.16193177499999933
                },
                {
                    "name": "A4",
                    "midi": 69,
                    "time": 27.951697091666656,
                    "velocity": 0.7322834645669292,
                    "duration": 0.33806809166666696
                },
                {
                    "name": "F5",
                    "midi": 77,
                    "time": 28.292606091666656,
                    "velocity": 0.6929133858267716,
                    "duration": 0.1534090500000005
                },
                {
                    "name": "E5",
                    "midi": 76,
                    "time": 28.463060591666657,
                    "velocity": 0.7401574803149606,
                    "duration": 0.16477268333333228
                },
                {
                    "name": "D5",
                    "midi": 74,
                    "time": 28.630674183333323,
                    "velocity": 0.8188976377952756,
                    "duration": 0.1590908666666664
                },
                {
                    "name": "G4",
                    "midi": 67,
                    "time": 28.809651408333323,
                    "velocity": 0.7480314960629921,
                    "duration": 0.16193177499999933
                },
                {
                    "name": "A4",
                    "midi": 69,
                    "time": 28.97726499999999,
                    "velocity": 0.6929133858267716,
                    "duration": 0.17045449999999818
                },
                {
                    "name": "B4",
                    "midi": 71,
                    "time": 29.144878591666654,
                    "velocity": 0.7007874015748031,
                    "duration": 0.16477268333333228
                },
                {
                    "name": "C5",
                    "midi": 72,
                    "time": 29.321014908333318,
                    "velocity": 0.7716535433070866,
                    "duration": 0.1534090500000005
                },
                {
                    "name": "D5",
                    "midi": 74,
                    "time": 29.494310316666652,
                    "velocity": 0.6929133858267716,
                    "duration": 0.16761359166666523
                },
                {
                    "name": "E5",
                    "midi": 76,
                    "time": 29.66476481666665,
                    "velocity": 0.7480314960629921,
                    "duration": 0.16761359166666523
                },
                {
                    "name": "F5",
                    "midi": 77,
                    "time": 29.832378408333316,
                    "velocity": 0.7401574803149606,
                    "duration": 0.1534090500000005
                },
                {
                    "name": "G5",
                    "midi": 79,
                    "time": 29.999991999999985,
                    "velocity": 0.7637795275590551,
                    "duration": 0.335227183333334
                },
                {
                    "name": "A5",
                    "midi": 81,
                    "time": 30.340900999999985,
                    "velocity": 0.7086614173228346,
                    "duration": 0.0681818000000014
                },
                {
                    "name": "E5",
                    "midi": 76,
                    "time": 30.42896915833332,
                    "velocity": 0.7480314960629921,
                    "duration": 0.2528408416666643
                },
                {
                    "name": "F#5",
                    "midi": 78,
                    "time": 30.67612818333332,
                    "velocity": 0.7322834645669292,
                    "duration": 0.5056816833333322
                },
                {
                    "name": "E5",
                    "midi": 76,
                    "time": 31.19033259166665,
                    "velocity": 0.7007874015748031,
                    "duration": 0.0738636166666673
                },
                {
                    "name": "F#5",
                    "midi": 78,
                    "time": 31.281241658333318,
                    "velocity": 0.7480314960629921,
                    "duration": 0.0795454333333332
                },
                {
                    "name": "G5",
                    "midi": 79,
                    "time": 31.36930981666665,
                    "velocity": 0.7795275590551181,
                    "duration": 1.3522723666666678
                },
                {
                    "name": "G5",
                    "midi": 79,
                    "time": 32.727263999999984,
                    "velocity": 0.7795275590551181,
                    "duration": 1.1903405916666685
                },
                {
                    "name": "G5",
                    "midi": 79,
                    "time": 33.92328640833332,
                    "velocity": 0.7480314960629921,
                    "duration": 0.1534090500000005
                },
                {
                    "name": "G5",
                    "midi": 79,
                    "time": 34.09658181666665,
                    "velocity": 0.7559055118110236,
                    "duration": 0.32386354999999867
                },
                {
                    "name": "F5",
                    "midi": 77,
                    "time": 34.42896809166665,
                    "velocity": 0.7086614173228346,
                    "duration": 0.15624995833333344
                },
                {
                    "name": "E5",
                    "midi": 76,
                    "time": 34.60510440833331,
                    "velocity": 0.7401574803149606,
                    "duration": 0.17045449999999818
                },
                {
                    "name": "D5",
                    "midi": 74,
                    "time": 34.76987709166664,
                    "velocity": 0.7244094488188977,
                    "duration": 0.16477268333333228
                },
                {
                    "name": "E5",
                    "midi": 76,
                    "time": 34.93749068333331,
                    "velocity": 0.7480314960629921,
                    "duration": 0.1590908666666664
                },
                {
                    "name": "F5",
                    "midi": 77,
                    "time": 35.11930881666664,
                    "velocity": 0.7244094488188977,
                    "duration": 0.1534090500000005
                },
                {
                    "name": "D5",
                    "midi": 74,
                    "time": 35.28124059166664,
                    "velocity": 0.7401574803149606,
                    "duration": 0.16761359166666523
                },
                {
                    "name": "E5",
                    "midi": 76,
                    "time": 35.4573769083333,
                    "velocity": 0.7716535433070866,
                    "duration": 1.0085224583333314
                },
                {
                    "name": "E5",
                    "midi": 76,
                    "time": 36.4715811833333,
                    "velocity": 0.7244094488188977,
                    "duration": 0.32954536666666456
                },
                {
                    "name": "E5",
                    "midi": 76,
                    "time": 36.821012908333294,
                    "velocity": 0.8110236220472441,
                    "duration": 0.17045449999999818
                },
                {
                    "name": "D5",
                    "midi": 74,
                    "time": 36.994308316666626,
                    "velocity": 0.7086614173228346,
                    "duration": 0.17045449999999818
                },
                {
                    "name": "F5",
                    "midi": 77,
                    "time": 37.164762816666624,
                    "velocity": 0.7165354330708661,
                    "duration": 0.16761359166666523
                },
                {
                    "name": "E5",
                    "midi": 76,
                    "time": 37.33237640833329,
                    "velocity": 0.7007874015748031,
                    "duration": 0.16193177499999933
                },
                {
                    "name": "D5",
                    "midi": 74,
                    "time": 37.49430818333329,
                    "velocity": 0.7716535433070866,
                    "duration": 0.1590908666666664
                },
                {
                    "name": "C5",
                    "midi": 72,
                    "time": 37.67044449999995,
                    "velocity": 0.7322834645669292,
                    "duration": 0.16761359166666523
                },
                {
                    "name": "D5",
                    "midi": 74,
                    "time": 37.84373990833328,
                    "velocity": 0.7086614173228346,
                    "duration": 0.16477268333333228
                },
                {
                    "name": "B4",
                    "midi": 71,
                    "time": 38.017035316666615,
                    "velocity": 0.7480314960629921,
                    "duration": 0.1590908666666664
                },
                {
                    "name": "C5",
                    "midi": 72,
                    "time": 38.18748981666661,
                    "velocity": 0.8031496062992126,
                    "duration": 0.17045449999999818
                },
                {
                    "name": "E5",
                    "midi": 76,
                    "time": 38.34942159166661,
                    "velocity": 0.7480314960629921,
                    "duration": 0.1534090500000005
                },
                {
                    "name": "D5",
                    "midi": 74,
                    "time": 38.525557908333276,
                    "velocity": 0.6929133858267716,
                    "duration": 0.1590908666666664
                },
                {
                    "name": "C5",
                    "midi": 72,
                    "time": 38.696012408333274,
                    "velocity": 0.7401574803149606,
                    "duration": 0.17045449999999818
                },
                {
                    "name": "B4",
                    "midi": 71,
                    "time": 38.86646690833327,
                    "velocity": 0.7480314960629921,
                    "duration": 0.5113635000000016
                },
                {
                    "name": "A4",
                    "midi": 69,
                    "time": 39.377830408333274,
                    "velocity": 0.7086614173228346,
                    "duration": 0.15624995833333344
                },
                {
                    "name": "A4",
                    "midi": 69,
                    "time": 39.53976218333327,
                    "velocity": 0.7874015748031497,
                    "duration": 0.8409088666666662
                },
                {
                    "name": "B4",
                    "midi": 71,
                    "time": 40.4033983166666,
                    "velocity": 0.7401574803149606,
                    "duration": 0.16477268333333228
                },
                {
                    "name": "C5",
                    "midi": 72,
                    "time": 40.5738528166666,
                    "velocity": 0.7401574803149606,
                    "duration": 0.16761359166666523
                },
                {
                    "name": "A4",
                    "midi": 69,
                    "time": 40.7443073166666,
                    "velocity": 0.7322834645669292,
                    "duration": 0.16477268333333228
                },
                {
                    "name": "D5",
                    "midi": 74,
                    "time": 40.903398183333266,
                    "velocity": 0.7795275590551181,
                    "duration": 0.8380679583333333
                },
                {
                    "name": "E5",
                    "midi": 76,
                    "time": 41.7585115916666,
                    "velocity": 0.7165354330708661,
                    "duration": 0.1590908666666664
                },
                {
                    "name": "F5",
                    "midi": 77,
                    "time": 41.92612518333326,
                    "velocity": 0.7559055118110236,
                    "duration": 0.16477268333333228
                },
                {
                    "name": "D5",
                    "midi": 74,
                    "time": 42.09942059166659,
                    "velocity": 0.7007874015748031,
                    "duration": 0.1590908666666664
                },
                {
                    "name": "E5",
                    "midi": 76,
                    "time": 42.27839781666659,
                    "velocity": 0.7795275590551181,
                    "duration": 1.0056815499999985
                },
                {
                    "name": "F5",
                    "midi": 77,
                    "time": 43.29260209166659,
                    "velocity": 0.7165354330708661,
                    "duration": 0.33522718333333046
                },
                {
                    "name": "G5",
                    "midi": 79,
                    "time": 43.64203381666658,
                    "velocity": 0.7716535433070866,
                    "duration": 0.33522718333333046
                },
                {
                    "name": "G5",
                    "midi": 79,
                    "time": 43.98294281666658,
                    "velocity": 0.7401574803149606,
                    "duration": 0.1590908666666664
                },
                {
                    "name": "F5",
                    "midi": 77,
                    "time": 44.150556408333244,
                    "velocity": 0.7559055118110236,
                    "duration": 0.16477268333333228
                },
                {
                    "name": "G5",
                    "midi": 79,
                    "time": 44.312488183333244,
                    "velocity": 0.7322834645669292,
                    "duration": 0.3380680916666634
                },
                {
                    "name": "G4",
                    "midi": 67,
                    "time": 44.65623809166657,
                    "velocity": 0.7480314960629921,
                    "duration": 0.33522718333333046
                },
                {
                    "name": "A4",
                    "midi": 69,
                    "time": 44.99430618333324,
                    "velocity": 0.8031496062992126,
                    "duration": 0.3380680916666634
                },
                {
                    "name": "F5",
                    "midi": 77,
                    "time": 45.33521518333323,
                    "velocity": 0.7165354330708661,
                    "duration": 0.17045449999999818
                },
                {
                    "name": "E5",
                    "midi": 76,
                    "time": 45.51419240833323,
                    "velocity": 0.7165354330708661,
                    "duration": 0.17045449999999818
                },
                {
                    "name": "F5",
                    "midi": 77,
                    "time": 45.681805999999895,
                    "velocity": 0.7401574803149606,
                    "duration": 0.34090899999999635
                },
                {
                    "name": "A4",
                    "midi": 69,
                    "time": 46.02271499999989,
                    "velocity": 0.7322834645669292,
                    "duration": 0.3323862749999975
                },
                {
                    "name": "B4",
                    "midi": 71,
                    "time": 46.36362399999989,
                    "velocity": 0.7874015748031497,
                    "duration": 0.15624995833333344
                },
                {
                    "name": "D5",
                    "midi": 74,
                    "time": 46.53691940833322,
                    "velocity": 0.7244094488188977,
                    "duration": 0.1534090500000005
                },
                {
                    "name": "C5",
                    "midi": 72,
                    "time": 46.70737390833322,
                    "velocity": 0.7559055118110236,
                    "duration": 0.16761359166666523
                },
                {
                    "name": "D5",
                    "midi": 74,
                    "time": 46.87214659166655,
                    "velocity": 0.7559055118110236,
                    "duration": 0.16477268333333228
                },
                {
                    "name": "D5",
                    "midi": 74,
                    "time": 47.04828290833321,
                    "velocity": 0.7716535433070866,
                    "duration": 0.5113635000000016
                },
                {
                    "name": "C5",
                    "midi": 72,
                    "time": 47.56248731666655,
                    "velocity": 0.7322834645669292,
                    "duration": 0.15624995833333344
                },
                {
                    "name": "C5",
                    "midi": 72,
                    "time": 47.72441909166655,
                    "velocity": 0.8188976377952756,
                    "duration": 1.346590550000002
                },
                {
                    "name": "C5",
                    "midi": 72,
                    "time": 49.09089599999988,
                    "velocity": 0.8188976377952756,
                    "duration": 1.1931815000000014
                },
                {
                    "name": "G5",
                    "midi": 79,
                    "time": 50.278395683333216,
                    "velocity": 0.7244094488188977,
                    "duration": 0.1534090500000005
                },
                {
                    "name": "G5",
                    "midi": 79,
                    "time": 50.45453199999988,
                    "velocity": 0.8110236220472441,
                    "duration": 0.33522718333333046
                },
                {
                    "name": "F5",
                    "midi": 77,
                    "time": 50.79828190833321,
                    "velocity": 0.7086614173228346,
                    "duration": 0.1534090500000005
                },
                {
                    "name": "E5",
                    "midi": 76,
                    "time": 50.96873640833321,
                    "velocity": 0.7165354330708661,
                    "duration": 0.1590908666666664
                },
                {
                    "name": "D5",
                    "midi": 74,
                    "time": 51.13350909166654,
                    "velocity": 0.7244094488188977,
                    "duration": 0.1590908666666664
                },
                {
                    "name": "E5",
                    "midi": 76,
                    "time": 51.3096454083332,
                    "velocity": 0.7322834645669292,
                    "duration": 0.1590908666666664
                },
                {
                    "name": "F5",
                    "midi": 77,
                    "time": 51.474418091666536,
                    "velocity": 0.6929133858267716,
                    "duration": 0.17045449999999818
                },
                {
                    "name": "D5",
                    "midi": 74,
                    "time": 51.64771349999987,
                    "velocity": 0.7559055118110236,
                    "duration": 0.15624995833333344
                },
                {
                    "name": "E5",
                    "midi": 76,
                    "time": 51.8210089083332,
                    "velocity": 0.7716535433070866,
                    "duration": 1.0113633666666644
                },
                {
                    "name": "E5",
                    "midi": 76,
                    "time": 52.84657681666653,
                    "velocity": 0.7165354330708661,
                    "duration": 0.3267044583333316
                },
                {
                    "name": "E5",
                    "midi": 76,
                    "time": 53.178963091666525,
                    "velocity": 0.7637795275590551,
                    "duration": 0.16761359166666523
                },
                {
                    "name": "D5",
                    "midi": 74,
                    "time": 53.35794031666652,
                    "velocity": 0.6929133858267716,
                    "duration": 0.16477268333333228
                },
                {
                    "name": "F5",
                    "midi": 77,
                    "time": 53.522712999999854,
                    "velocity": 0.7244094488188977,
                    "duration": 0.17045449999999818
                },
                {
                    "name": "E5",
                    "midi": 76,
                    "time": 53.696008408333185,
                    "velocity": 0.7007874015748031,
                    "duration": 0.16477268333333228
                },
                {
                    "name": "D5",
                    "midi": 74,
                    "time": 53.86362199999985,
                    "velocity": 0.7244094488188977,
                    "duration": 0.16761359166666523
                },
                {
                    "name": "C5",
                    "midi": 72,
                    "time": 54.02839468333318,
                    "velocity": 0.6929133858267716,
                    "duration": 0.16193177499999933
                },
                {
                    "name": "D5",
                    "midi": 74,
                    "time": 54.20737190833318,
                    "velocity": 0.7322834645669292,
                    "duration": 0.1590908666666664
                },
                {
                    "name": "B4",
                    "midi": 71,
                    "time": 54.37214459166651,
                    "velocity": 0.7322834645669292,
                    "duration": 0.16761359166666523
                },
                {
                    "name": "C5",
                    "midi": 72,
                    "time": 54.548280908333176,
                    "velocity": 0.8110236220472441,
                    "duration": 0.16761359166666523
                },
                {
                    "name": "E5",
                    "midi": 76,
                    "time": 54.710212683333175,
                    "velocity": 0.7401574803149606,
                    "duration": 0.17045449999999818
                },
                {
                    "name": "D5",
                    "midi": 74,
                    "time": 54.883508091666506,
                    "velocity": 0.7007874015748031,
                    "duration": 0.1590908666666664
                },
                {
                    "name": "C5",
                    "midi": 72,
                    "time": 55.05964440833317,
                    "velocity": 0.7007874015748031,
                    "duration": 0.1534090500000005
                },
                {
                    "name": "B4",
                    "midi": 71,
                    "time": 55.227257999999836,
                    "velocity": 0.7559055118110236,
                    "duration": 0.4971589583333298
                },
                {
                    "name": "A4",
                    "midi": 69,
                    "time": 55.73862149999983,
                    "velocity": 0.6929133858267716,
                    "duration": 0.1590908666666664
                },
                {
                    "name": "A4",
                    "midi": 69,
                    "time": 55.91191690833316,
                    "velocity": 0.7952755905511811,
                    "duration": 0.8409088666666662
                },
                {
                    "name": "B4",
                    "midi": 71,
                    "time": 56.75566668333316,
                    "velocity": 0.7007874015748031,
                    "duration": 0.1534090500000005
                },
                {
                    "name": "C5",
                    "midi": 72,
                    "time": 56.9374848166665,
                    "velocity": 0.7086614173228346,
                    "duration": 0.15624995833333344
                },
                {
                    "name": "A4",
                    "midi": 69,
                    "time": 57.107939316666496,
                    "velocity": 0.6929133858267716,
                    "duration": 0.17045449999999818
                },
                {
                    "name": "D5",
                    "midi": 74,
                    "time": 57.27555290833316,
                    "velocity": 0.7874015748031497,
                    "duration": 0.8409088666666662
                },
                {
                    "name": "E5",
                    "midi": 76,
                    "time": 58.124984499999826,
                    "velocity": 0.7559055118110236,
                    "duration": 0.16761359166666523
                },
                {
                    "name": "F5",
                    "midi": 77,
                    "time": 58.29259809166649,
                    "velocity": 0.7165354330708661,
                    "duration": 0.1590908666666664
                },
                {
                    "name": "D5",
                    "midi": 74,
                    "time": 58.46589349999982,
                    "velocity": 0.7559055118110236,
                    "duration": 0.1534090500000005
                },
                {
                    "name": "E5",
                    "midi": 76,
                    "time": 58.630666183333155,
                    "velocity": 0.8110236220472441,
                    "duration": 1.0227270000000033
                },
                {
                    "name": "F5",
                    "midi": 77,
                    "time": 59.659074999999824,
                    "velocity": 0.6929133858267716,
                    "duration": 0.33522718333333046
                },
                {
                    "name": "G5",
                    "midi": 79,
                    "time": 59.994302183333154,
                    "velocity": 0.8031496062992126,
                    "duration": 0.3267044583333316
                },
                {
                    "name": "G5",
                    "midi": 79,
                    "time": 60.33805209166648,
                    "velocity": 0.6929133858267716,
                    "duration": 0.17045449999999818
                },
                {
                    "name": "F5",
                    "midi": 77,
                    "time": 60.50850659166648,
                    "velocity": 0.7007874015748031,
                    "duration": 0.15624995833333344
                },
                {
                    "name": "G5",
                    "midi": 79,
                    "time": 60.68748381666648,
                    "velocity": 0.7559055118110236,
                    "duration": 0.3323862749999975
                },
                {
                    "name": "G4",
                    "midi": 67,
                    "time": 61.01702918333314,
                    "velocity": 0.6929133858267716,
                    "duration": 0.3323862749999975
                },
                {
                    "name": "A4",
                    "midi": 69,
                    "time": 61.36930181666647,
                    "velocity": 0.8110236220472441,
                    "duration": 0.3267044583333316
                },
                {
                    "name": "F5",
                    "midi": 77,
                    "time": 61.698847183333136,
                    "velocity": 0.6929133858267716,
                    "duration": 0.15624995833333344
                },
                {
                    "name": "E5",
                    "midi": 76,
                    "time": 61.87782440833313,
                    "velocity": 0.7086614173228346,
                    "duration": 0.16761359166666523
                },
                {
                    "name": "F5",
                    "midi": 77,
                    "time": 62.051119816666464,
                    "velocity": 0.7795275590551181,
                    "duration": 0.32386354999999867
                },
                {
                    "name": "A4",
                    "midi": 69,
                    "time": 62.386346999999795,
                    "velocity": 0.7480314960629921,
                    "duration": 0.34090900000000346
                },
                {
                    "name": "B4",
                    "midi": 71,
                    "time": 62.7272559999998,
                    "velocity": 0.7716535433070866,
                    "duration": 0.16761359166666523
                },
                {
                    "name": "D5",
                    "midi": 74,
                    "time": 62.90339231666646,
                    "velocity": 0.7086614173228346,
                    "duration": 0.1534090500000005
                },
                {
                    "name": "C5",
                    "midi": 72,
                    "time": 63.07384681666646,
                    "velocity": 0.7244094488188977,
                    "duration": 0.16477268333333228
                },
                {
                    "name": "D5",
                    "midi": 74,
                    "time": 63.24430131666646,
                    "velocity": 0.7480314960629921,
                    "duration": 0.15624995833333344
                },
                {
                    "name": "D5",
                    "midi": 74,
                    "time": 63.40623309166646,
                    "velocity": 0.7322834645669292,
                    "duration": 0.5056816833333357
                },
                {
                    "name": "C5",
                    "midi": 72,
                    "time": 63.92611931666646,
                    "velocity": 0.7480314960629921,
                    "duration": 0.15624995833333344
                },
                {
                    "name": "C5",
                    "midi": 72,
                    "time": 64.09657381666646,
                    "velocity": 0.7795275590551181,
                    "duration": 1.346590550000002
                },
                {
                    "name": "C5",
                    "midi": 72,
                    "time": 65.44884618333313,
                    "velocity": 0.7874015748031497,
                    "duration": 1.1846587750000026
                }
            ],
            "controlChanges": {
                "10": [
                    {
                        "number": 10,
                        "time": 0,
                        "value": 0.7480314960629921
                    }
                ]
            },
            "id": 1,
            "name": "Henry Purcell",
            "instrumentNumber": 73,
            "instrument": "flute",
            "instrumentFamily": "pipe",
            "channelNumber": 1,
            "isPercussion": false
        },
        {
            "startTime": 1.3579541833333333,
            "duration": 66.63918677499977,
            "length": 228,
            "notes": [
                {
                    "name": "C5",
                    "midi": 72,
                    "time": 1.3579541833333333,
                    "velocity": 0.6377952755905512,
                    "duration": 1.031249725
                },
                {
                    "name": "G4",
                    "midi": 67,
                    "time": 1.3607950916666667,
                    "velocity": 0.6377952755905512,
                    "duration": 1.014204275
                },
                {
                    "name": "C4",
                    "midi": 60,
                    "time": 1.3664769083333332,
                    "velocity": 0.8661417322834646,
                    "duration": 0.3409089999999999
                },
                {
                    "name": "E4",
                    "midi": 64,
                    "time": 1.3664769083333332,
                    "velocity": 0.6299212598425197,
                    "duration": 1.0255679083333333
                },
                {
                    "name": "B3",
                    "midi": 59,
                    "time": 1.7073859083333331,
                    "velocity": 0.7952755905511811,
                    "duration": 0.17045449999999995
                },
                {
                    "name": "A3",
                    "midi": 57,
                    "time": 1.8749994999999997,
                    "velocity": 0.7637795275590551,
                    "duration": 0.161931775
                },
                {
                    "name": "G3",
                    "midi": 55,
                    "time": 2.0426130916666665,
                    "velocity": 0.84251968503937,
                    "duration": 0.17045449999999995
                },
                {
                    "name": "F3",
                    "midi": 53,
                    "time": 2.2187494083333332,
                    "velocity": 0.8188976377952756,
                    "duration": 0.15624995833333344
                },
                {
                    "name": "E3",
                    "midi": 52,
                    "time": 2.386363,
                    "velocity": 0.7952755905511811,
                    "duration": 0.15909086666666683
                },
                {
                    "name": "D3",
                    "midi": 50,
                    "time": 2.5568174999999997,
                    "velocity": 0.7716535433070866,
                    "duration": 0.15624995833333344
                },
                {
                    "name": "C3",
                    "midi": 48,
                    "time": 2.7244310916666663,
                    "velocity": 0.8503937007874016,
                    "duration": 0.6676134583333333
                },
                {
                    "name": "C4",
                    "midi": 60,
                    "time": 3.0738628166666664,
                    "velocity": 0.7952755905511811,
                    "duration": 1.7130677249999988
                },
                {
                    "name": "E4",
                    "midi": 64,
                    "time": 3.4034081833333327,
                    "velocity": 0.8031496062992126,
                    "duration": 0.6647725499999999
                },
                {
                    "name": "D4",
                    "midi": 62,
                    "time": 4.090907999999999,
                    "velocity": 0.8582677165354331,
                    "duration": 1.3607950916666658
                },
                {
                    "name": "B3",
                    "midi": 59,
                    "time": 4.772725999999999,
                    "velocity": 0.8031496062992126,
                    "duration": 0.676136183333333
                },
                {
                    "name": "C4",
                    "midi": 60,
                    "time": 5.463066724999998,
                    "velocity": 0.7559055118110236,
                    "duration": 0.6874998166666666
                },
                {
                    "name": "E3",
                    "midi": 52,
                    "time": 5.795452999999998,
                    "velocity": 0.7716535433070866,
                    "duration": 0.3323862750000002
                },
                {
                    "name": "F3",
                    "midi": 53,
                    "time": 6.142043816666665,
                    "velocity": 0.7952755905511811,
                    "duration": 0.6704543666666662
                },
                {
                    "name": "D3",
                    "midi": 50,
                    "time": 6.471589183333331,
                    "velocity": 0.8110236220472441,
                    "duration": 0.3352271833333331
                },
                {
                    "name": "G3",
                    "midi": 55,
                    "time": 6.821020908333331,
                    "velocity": 0.8267716535433071,
                    "duration": 0.676136183333333
                },
                {
                    "name": "D4",
                    "midi": 62,
                    "time": 7.153407183333331,
                    "velocity": 0.7637795275590551,
                    "duration": 0.3409089999999999
                },
                {
                    "name": "E4",
                    "midi": 64,
                    "time": 7.494316183333331,
                    "velocity": 0.7952755905511811,
                    "duration": 0.34374990833333285
                },
                {
                    "name": "B3",
                    "midi": 59,
                    "time": 7.840906999999997,
                    "velocity": 0.7637795275590551,
                    "duration": 0.33806809166666607
                },
                {
                    "name": "C4",
                    "midi": 60,
                    "time": 8.187497816666664,
                    "velocity": 0.8740157480314961,
                    "duration": 0.6761361833333339
                },
                {
                    "name": "A3",
                    "midi": 57,
                    "time": 8.522724999999998,
                    "velocity": 0.7952755905511811,
                    "duration": 0.3323862749999993
                },
                {
                    "name": "D4",
                    "midi": 62,
                    "time": 8.86647490833333,
                    "velocity": 0.7874015748031497,
                    "duration": 0.32954536666666634
                },
                {
                    "name": "C4",
                    "midi": 60,
                    "time": 9.210224816666663,
                    "velocity": 0.7952755905511811,
                    "duration": 0.335227183333334
                },
                {
                    "name": "B3",
                    "midi": 59,
                    "time": 9.551133816666663,
                    "velocity": 0.8582677165354331,
                    "duration": 0.6761361833333321
                },
                {
                    "name": "G3",
                    "midi": 55,
                    "time": 9.883520091666663,
                    "velocity": 0.7952755905511811,
                    "duration": 0.32954536666666634
                },
                {
                    "name": "C4",
                    "midi": 60,
                    "time": 10.230110908333328,
                    "velocity": 0.8267716535433071,
                    "duration": 0.33806809166666696
                },
                {
                    "name": "G3",
                    "midi": 55,
                    "time": 10.568178999999995,
                    "velocity": 0.7952755905511811,
                    "duration": 0.32954536666666634
                },
                {
                    "name": "A3",
                    "midi": 57,
                    "time": 10.914769816666661,
                    "velocity": 0.8582677165354331,
                    "duration": 0.33806809166666696
                },
                {
                    "name": "E3",
                    "midi": 52,
                    "time": 11.249996999999995,
                    "velocity": 0.8110236220472441,
                    "duration": 0.33806809166666696
                },
                {
                    "name": "F3",
                    "midi": 53,
                    "time": 11.593746908333328,
                    "velocity": 0.7952755905511811,
                    "duration": 0.6761361833333339
                },
                {
                    "name": "D3",
                    "midi": 50,
                    "time": 11.928974091666662,
                    "velocity": 0.7795275590551181,
                    "duration": 0.32386355000000044
                },
                {
                    "name": "G3",
                    "midi": 55,
                    "time": 12.272723999999995,
                    "velocity": 0.8503937007874016,
                    "duration": 1.0198860916666685
                },
                {
                    "name": "G2",
                    "midi": 43,
                    "time": 12.607951183333329,
                    "velocity": 0.7795275590551181,
                    "duration": 0.6761361833333339
                },
                {
                    "name": "F3",
                    "midi": 53,
                    "time": 13.295450999999996,
                    "velocity": 0.8031496062992126,
                    "duration": 0.3409089999999999
                },
                {
                    "name": "E3",
                    "midi": 52,
                    "time": 13.63067818333333,
                    "velocity": 0.8818897637795275,
                    "duration": 0.6903407249999987
                },
                {
                    "name": "C4",
                    "midi": 60,
                    "time": 13.977268999999996,
                    "velocity": 0.7952755905511811,
                    "duration": 0.32386355000000044
                },
                {
                    "name": "B3",
                    "midi": 59,
                    "time": 14.318177999999996,
                    "velocity": 0.7952755905511811,
                    "duration": 0.33806809166666696
                },
                {
                    "name": "D3",
                    "midi": 50,
                    "time": 14.318177999999996,
                    "velocity": 0.8110236220472441,
                    "duration": 0.6903407250000004
                },
                {
                    "name": "A3",
                    "midi": 57,
                    "time": 14.664768816666664,
                    "velocity": 0.8031496062992126,
                    "duration": 0.3522726333333335
                },
                {
                    "name": "G3",
                    "midi": 55,
                    "time": 14.99431418333333,
                    "velocity": 0.8818897637795275,
                    "duration": 0.335227183333334
                },
                {
                    "name": "F#3",
                    "midi": 54,
                    "time": 15.346586816666663,
                    "velocity": 0.8110236220472441,
                    "duration": 0.167613591666667
                },
                {
                    "name": "E3",
                    "midi": 52,
                    "time": 15.511359499999998,
                    "velocity": 0.7716535433070866,
                    "duration": 0.1534090500000005
                },
                {
                    "name": "D3",
                    "midi": 50,
                    "time": 15.678973091666665,
                    "velocity": 0.84251968503937,
                    "duration": 0.16193177499999933
                },
                {
                    "name": "C3",
                    "midi": 48,
                    "time": 15.84658668333333,
                    "velocity": 0.7952755905511811,
                    "duration": 0.16477268333333406
                },
                {
                    "name": "B2",
                    "midi": 47,
                    "time": 16.019882091666663,
                    "velocity": 0.8188976377952756,
                    "duration": 0.1590908666666664
                },
                {
                    "name": "A2",
                    "midi": 45,
                    "time": 16.193177499999997,
                    "velocity": 0.7716535433070866,
                    "duration": 0.16193177499999933
                },
                {
                    "name": "G2",
                    "midi": 43,
                    "time": 16.360791091666663,
                    "velocity": 0.84251968503937,
                    "duration": 1.0056815499999985
                },
                {
                    "name": "D5",
                    "midi": 74,
                    "time": 16.360791091666663,
                    "velocity": 0.8346456692913385,
                    "duration": 1.193181499999998
                },
                {
                    "name": "B4",
                    "midi": 71,
                    "time": 16.36931381666666,
                    "velocity": 0.8346456692913385,
                    "duration": 1.187499683333332
                },
                {
                    "name": "G5",
                    "midi": 79,
                    "time": 16.36931381666666,
                    "velocity": 0.8188976377952756,
                    "duration": 1.1960224083333308
                },
                {
                    "name": "D3",
                    "midi": 50,
                    "time": 16.701700091666662,
                    "velocity": 0.7559055118110236,
                    "duration": 0.3267044583333316
                },
                {
                    "name": "G3",
                    "midi": 55,
                    "time": 17.05113181666666,
                    "velocity": 0.8110236220472441,
                    "duration": 0.4943180500000004
                },
                {
                    "name": "G2",
                    "midi": 43,
                    "time": 17.383518091666662,
                    "velocity": 0.8031496062992126,
                    "duration": 0.16193177499999933
                },
                {
                    "name": "G2",
                    "midi": 43,
                    "time": 17.551131683333328,
                    "velocity": 0.7952755905511811,
                    "duration": 0.17045449999999818
                },
                {
                    "name": "C4",
                    "midi": 60,
                    "time": 17.721586183333326,
                    "velocity": 0.8661417322834646,
                    "duration": 0.3380680916666634
                },
                {
                    "name": "G4",
                    "midi": 67,
                    "time": 17.72442709166666,
                    "velocity": 0.8740157480314961,
                    "duration": 1.005681549999995
                },
                {
                    "name": "C5",
                    "midi": 72,
                    "time": 17.730108908333325,
                    "velocity": 0.8346456692913385,
                    "duration": 1.0227269999999926
                },
                {
                    "name": "E4",
                    "midi": 64,
                    "time": 17.732949816666657,
                    "velocity": 0.8267716535433071,
                    "duration": 1.0227269999999926
                },
                {
                    "name": "B3",
                    "midi": 59,
                    "time": 18.07101790833332,
                    "velocity": 0.7716535433070866,
                    "duration": 0.1590908666666664
                },
                {
                    "name": "A3",
                    "midi": 57,
                    "time": 18.235790591666653,
                    "velocity": 0.7874015748031497,
                    "duration": 0.16761359166666523
                },
                {
                    "name": "G3",
                    "midi": 55,
                    "time": 18.40624509166665,
                    "velocity": 0.8110236220472441,
                    "duration": 0.15624995833333344
                },
                {
                    "name": "F3",
                    "midi": 53,
                    "time": 18.58238140833332,
                    "velocity": 0.8031496062992126,
                    "duration": 0.1534090500000005
                },
                {
                    "name": "E3",
                    "midi": 52,
                    "time": 18.74715409166665,
                    "velocity": 0.7637795275590551,
                    "duration": 0.1534090500000005
                },
                {
                    "name": "D3",
                    "midi": 50,
                    "time": 18.92329040833332,
                    "velocity": 0.8110236220472441,
                    "duration": 0.1590908666666664
                },
                {
                    "name": "C3",
                    "midi": 48,
                    "time": 19.096585816666654,
                    "velocity": 0.8267716535433071,
                    "duration": 0.6676134583333351
                },
                {
                    "name": "C4",
                    "midi": 60,
                    "time": 19.431812999999988,
                    "velocity": 0.7874015748031497,
                    "duration": 1.710226816666669
                },
                {
                    "name": "E4",
                    "midi": 64,
                    "time": 19.778403816666657,
                    "velocity": 0.8267716535433071,
                    "duration": 0.6789770916666669
                },
                {
                    "name": "D4",
                    "midi": 62,
                    "time": 20.457380908333324,
                    "velocity": 0.8582677165354331,
                    "duration": 1.3636359999999996
                },
                {
                    "name": "B3",
                    "midi": 59,
                    "time": 21.142039816666657,
                    "velocity": 0.7952755905511811,
                    "duration": 0.6789770916666669
                },
                {
                    "name": "C4",
                    "midi": 60,
                    "time": 21.815335091666658,
                    "velocity": 0.8503937007874016,
                    "duration": 0.6732952749999974
                },
                {
                    "name": "E3",
                    "midi": 52,
                    "time": 22.153403183333324,
                    "velocity": 0.7795275590551181,
                    "duration": 0.32386354999999867
                },
                {
                    "name": "F3",
                    "midi": 53,
                    "time": 22.497153091666654,
                    "velocity": 0.8031496062992126,
                    "duration": 0.6704543666666645
                },
                {
                    "name": "D3",
                    "midi": 50,
                    "time": 22.838062091666654,
                    "velocity": 0.8031496062992126,
                    "duration": 0.3267044583333316
                },
                {
                    "name": "G3",
                    "midi": 55,
                    "time": 23.18465290833332,
                    "velocity": 0.8503937007874016,
                    "duration": 0.6818179999999963
                },
                {
                    "name": "D4",
                    "midi": 62,
                    "time": 23.522720999999986,
                    "velocity": 0.8110236220472441,
                    "duration": 0.3267044583333316
                },
                {
                    "name": "E4",
                    "midi": 64,
                    "time": 23.857948183333317,
                    "velocity": 0.8031496062992126,
                    "duration": 0.3465908166666658
                },
                {
                    "name": "B3",
                    "midi": 59,
                    "time": 24.20169809166665,
                    "velocity": 0.8110236220472441,
                    "duration": 0.3267044583333316
                },
                {
                    "name": "C4",
                    "midi": 60,
                    "time": 24.539766183333313,
                    "velocity": 0.8661417322834646,
                    "duration": 0.6761361833333304
                },
                {
                    "name": "A3",
                    "midi": 57,
                    "time": 24.889197908333312,
                    "velocity": 0.7874015748031497,
                    "duration": 0.3323862749999975
                },
                {
                    "name": "D4",
                    "midi": 62,
                    "time": 25.22158418333331,
                    "velocity": 0.8188976377952756,
                    "duration": 0.3267044583333316
                },
                {
                    "name": "C4",
                    "midi": 60,
                    "time": 25.57385681666664,
                    "velocity": 0.7952755905511811,
                    "duration": 0.3267044583333316
                },
                {
                    "name": "B3",
                    "midi": 59,
                    "time": 25.90624309166664,
                    "velocity": 0.8267716535433071,
                    "duration": 0.6732952749999974
                },
                {
                    "name": "G3",
                    "midi": 55,
                    "time": 26.255674816666637,
                    "velocity": 0.7716535433070866,
                    "duration": 0.34090899999999635
                },
                {
                    "name": "C4",
                    "midi": 60,
                    "time": 26.585220183333302,
                    "velocity": 0.8346456692913385,
                    "duration": 0.32386354999999867
                },
                {
                    "name": "G3",
                    "midi": 55,
                    "time": 26.937492816666634,
                    "velocity": 0.7952755905511811,
                    "duration": 0.3409089999999999
                },
                {
                    "name": "A3",
                    "midi": 57,
                    "time": 27.278401816666634,
                    "velocity": 0.8818897637795275,
                    "duration": 0.3267044583333316
                },
                {
                    "name": "E3",
                    "midi": 52,
                    "time": 27.61078809166663,
                    "velocity": 0.7559055118110236,
                    "duration": 0.3267044583333316
                },
                {
                    "name": "F3",
                    "midi": 53,
                    "time": 27.95169709166663,
                    "velocity": 0.8188976377952756,
                    "duration": 0.6818179999999998
                },
                {
                    "name": "D3",
                    "midi": 50,
                    "time": 28.29260609166663,
                    "velocity": 0.7795275590551181,
                    "duration": 0.3267044583333316
                },
                {
                    "name": "G3",
                    "midi": 55,
                    "time": 28.63351509166663,
                    "velocity": 0.8267716535433071,
                    "duration": 1.0170451833333303
                },
                {
                    "name": "G2",
                    "midi": 43,
                    "time": 28.98294681666663,
                    "velocity": 0.7716535433070866,
                    "duration": 0.6704543666666645
                },
                {
                    "name": "F3",
                    "midi": 53,
                    "time": 29.664764816666626,
                    "velocity": 0.7716535433070866,
                    "duration": 0.3409089999999999
                },
                {
                    "name": "E3",
                    "midi": 52,
                    "time": 30.002832908333293,
                    "velocity": 0.8818897637795275,
                    "duration": 0.6818179999999963
                },
                {
                    "name": "C4",
                    "midi": 60,
                    "time": 30.34090099999996,
                    "velocity": 0.7637795275590551,
                    "duration": 0.32386354999999867
                },
                {
                    "name": "D3",
                    "midi": 50,
                    "time": 30.67612818333329,
                    "velocity": 0.8346456692913385,
                    "duration": 0.6761361833333304
                },
                {
                    "name": "B3",
                    "midi": 59,
                    "time": 30.687491816666622,
                    "velocity": 0.8110236220472441,
                    "duration": 0.3409089999999999
                },
                {
                    "name": "A3",
                    "midi": 57,
                    "time": 31.028400816666622,
                    "velocity": 0.7637795275590551,
                    "duration": 0.34943172499999875
                },
                {
                    "name": "G3",
                    "midi": 55,
                    "time": 31.36078709166662,
                    "velocity": 0.8740157480314961,
                    "duration": 0.3238635500000022
                },
                {
                    "name": "F#3",
                    "midi": 54,
                    "time": 31.71021881666662,
                    "velocity": 0.7559055118110236,
                    "duration": 0.15624995833333344
                },
                {
                    "name": "E3",
                    "midi": 52,
                    "time": 31.87215059166662,
                    "velocity": 0.7952755905511811,
                    "duration": 0.15340904999999694
                },
                {
                    "name": "D3",
                    "midi": 50,
                    "time": 32.04828690833328,
                    "velocity": 0.84251968503937,
                    "duration": 0.1590908666666664
                },
                {
                    "name": "C3",
                    "midi": 48,
                    "time": 32.21021868333328,
                    "velocity": 0.7952755905511811,
                    "duration": 0.16761359166666523
                },
                {
                    "name": "B2",
                    "midi": 47,
                    "time": 32.38351409166661,
                    "velocity": 0.7952755905511811,
                    "duration": 0.16477268333333228
                },
                {
                    "name": "A2",
                    "midi": 45,
                    "time": 32.55396859166661,
                    "velocity": 0.7637795275590551,
                    "duration": 0.15624995833333344
                },
                {
                    "name": "G5",
                    "midi": 79,
                    "time": 32.72442309166661,
                    "velocity": 0.8661417322834646,
                    "duration": 1.201704224999986
                },
                {
                    "name": "G2",
                    "midi": 43,
                    "time": 32.72442309166661,
                    "velocity": 0.8740157480314961,
                    "duration": 1.3693178166666513
                },
                {
                    "name": "D5",
                    "midi": 74,
                    "time": 32.73294581666661,
                    "velocity": 0.8818897637795275,
                    "duration": 1.1960224083333202
                },
                {
                    "name": "B4",
                    "midi": 71,
                    "time": 32.73294581666661,
                    "velocity": 0.8582677165354331,
                    "duration": 1.1931814999999872
                },
                {
                    "name": "D3",
                    "midi": 50,
                    "time": 33.065332091666605,
                    "velocity": 0.8188976377952756,
                    "duration": 0.32954536666666456
                },
                {
                    "name": "G3",
                    "midi": 55,
                    "time": 33.41192290833327,
                    "velocity": 0.8110236220472441,
                    "duration": 0.4971589583333298
                },
                {
                    "name": "B3",
                    "midi": 59,
                    "time": 34.09658181666659,
                    "velocity": 0.8346456692913385,
                    "duration": 1.3551132750000008
                },
                {
                    "name": "G3",
                    "midi": 55,
                    "time": 34.09658181666659,
                    "velocity": 0.8661417322834646,
                    "duration": 1.3551132750000008
                },
                {
                    "name": "C4",
                    "midi": 60,
                    "time": 35.45169509166659,
                    "velocity": 0.8661417322834646,
                    "duration": 0.33522718333333046
                },
                {
                    "name": "B3",
                    "midi": 59,
                    "time": 35.78976318333326,
                    "velocity": 0.7559055118110236,
                    "duration": 0.1590908666666664
                },
                {
                    "name": "A3",
                    "midi": 57,
                    "time": 35.96589949999992,
                    "velocity": 0.7874015748031497,
                    "duration": 0.16193177499999933
                },
                {
                    "name": "G#3",
                    "midi": 56,
                    "time": 36.13919490833325,
                    "velocity": 0.8267716535433071,
                    "duration": 0.17045449999999818
                },
                {
                    "name": "A3",
                    "midi": 57,
                    "time": 36.31249031666658,
                    "velocity": 0.7559055118110236,
                    "duration": 0.17045449999999818
                },
                {
                    "name": "E3",
                    "midi": 52,
                    "time": 36.47158118333325,
                    "velocity": 0.7795275590551181,
                    "duration": 0.17045449999999818
                },
                {
                    "name": "F#3",
                    "midi": 54,
                    "time": 36.65055840833325,
                    "velocity": 0.8110236220472441,
                    "duration": 0.16477268333333228
                },
                {
                    "name": "G#3",
                    "midi": 56,
                    "time": 36.81533109166658,
                    "velocity": 0.8188976377952756,
                    "duration": 1.3579541833333337
                },
                {
                    "name": "E3",
                    "midi": 52,
                    "time": 37.494308183333246,
                    "velocity": 0.8267716535433071,
                    "duration": 0.6789770916666669
                },
                {
                    "name": "A3",
                    "midi": 57,
                    "time": 38.17896709166658,
                    "velocity": 0.84251968503937,
                    "duration": 1.0056815499999985
                },
                {
                    "name": "D3",
                    "midi": 50,
                    "time": 38.52839881666658,
                    "velocity": 0.7637795275590551,
                    "duration": 0.3380680916666634
                },
                {
                    "name": "E3",
                    "midi": 52,
                    "time": 38.866466908333244,
                    "velocity": 0.84251968503937,
                    "duration": 0.667613458333328
                },
                {
                    "name": "G#3",
                    "midi": 56,
                    "time": 39.21021681666657,
                    "velocity": 0.7559055118110236,
                    "duration": 0.3380680916666634
                },
                {
                    "name": "A3",
                    "midi": 57,
                    "time": 39.545443999999904,
                    "velocity": 0.8346456692913385,
                    "duration": 1.0170451833333232
                },
                {
                    "name": "F4",
                    "midi": 65,
                    "time": 39.88351209166657,
                    "velocity": 0.8031496062992126,
                    "duration": 0.16761359166666523
                },
                {
                    "name": "E4",
                    "midi": 64,
                    "time": 40.053966591666565,
                    "velocity": 0.7559055118110236,
                    "duration": 0.17045449999999818
                },
                {
                    "name": "F4",
                    "midi": 65,
                    "time": 40.23294381666656,
                    "velocity": 0.8503937007874016,
                    "duration": 0.6903407249999916
                },
                {
                    "name": "A3",
                    "midi": 57,
                    "time": 40.56817099999989,
                    "velocity": 0.8031496062992126,
                    "duration": 0.3551135416666611
                },
                {
                    "name": "B3",
                    "midi": 59,
                    "time": 40.906239091666556,
                    "velocity": 0.8818897637795275,
                    "duration": 1.0198860916666561
                },
                {
                    "name": "G4",
                    "midi": 67,
                    "time": 41.24714809166655,
                    "velocity": 0.8031496062992126,
                    "duration": 0.16761359166666523
                },
                {
                    "name": "E4",
                    "midi": 64,
                    "time": 41.41760259166655,
                    "velocity": 0.8110236220472441,
                    "duration": 0.17045449999999818
                },
                {
                    "name": "G4",
                    "midi": 67,
                    "time": 41.58805709166655,
                    "velocity": 0.8188976377952756,
                    "duration": 0.6590907333333291
                },
                {
                    "name": "B3",
                    "midi": 59,
                    "time": 41.928966091666545,
                    "velocity": 0.7952755905511811,
                    "duration": 0.3181817333333328
                },
                {
                    "name": "C4",
                    "midi": 60,
                    "time": 42.26703418333321,
                    "velocity": 0.8503937007874016,
                    "duration": 0.3323862749999975
                },
                {
                    "name": "D4",
                    "midi": 62,
                    "time": 42.616465908333204,
                    "velocity": 0.7559055118110236,
                    "duration": 0.1590908666666664
                },
                {
                    "name": "C4",
                    "midi": 60,
                    "time": 42.781238591666536,
                    "velocity": 0.7559055118110236,
                    "duration": 0.17045449999999818
                },
                {
                    "name": "B3",
                    "midi": 59,
                    "time": 42.96021581666653,
                    "velocity": 0.8503937007874016,
                    "duration": 0.15624995833333344
                },
                {
                    "name": "A3",
                    "midi": 57,
                    "time": 43.1193066833332,
                    "velocity": 0.7716535433070866,
                    "duration": 0.15624995833333344
                },
                {
                    "name": "G3",
                    "midi": 55,
                    "time": 43.2897611833332,
                    "velocity": 0.7716535433070866,
                    "duration": 0.17045449999999818
                },
                {
                    "name": "F3",
                    "midi": 53,
                    "time": 43.47157931666653,
                    "velocity": 0.8110236220472441,
                    "duration": 0.1590908666666664
                },
                {
                    "name": "G3",
                    "midi": 55,
                    "time": 43.63351109166653,
                    "velocity": 0.8267716535433071,
                    "duration": 0.34090900000000346
                },
                {
                    "name": "E3",
                    "midi": 52,
                    "time": 43.977260999999864,
                    "velocity": 0.7559055118110236,
                    "duration": 0.5056816833333357
                },
                {
                    "name": "F3",
                    "midi": 53,
                    "time": 44.4914654083332,
                    "velocity": 0.7716535433070866,
                    "duration": 0.16761359166666523
                },
                {
                    "name": "G3",
                    "midi": 55,
                    "time": 44.65907899999986,
                    "velocity": 0.7637795275590551,
                    "duration": 0.1590908666666664
                },
                {
                    "name": "E3",
                    "midi": 52,
                    "time": 44.82669259166653,
                    "velocity": 0.7874015748031497,
                    "duration": 0.17045449999999818
                },
                {
                    "name": "F3",
                    "midi": 53,
                    "time": 45.00282890833319,
                    "velocity": 0.8582677165354331,
                    "duration": 0.8409088666666662
                },
                {
                    "name": "G3",
                    "midi": 55,
                    "time": 45.857942316666524,
                    "velocity": 0.7716535433070866,
                    "duration": 0.17045449999999818
                },
                {
                    "name": "A3",
                    "midi": 57,
                    "time": 46.02555590833319,
                    "velocity": 0.7559055118110236,
                    "duration": 0.17045449999999818
                },
                {
                    "name": "F3",
                    "midi": 53,
                    "time": 46.18748768333319,
                    "velocity": 0.7637795275590551,
                    "duration": 0.16193177499999933
                },
                {
                    "name": "G3",
                    "midi": 55,
                    "time": 46.36362399999985,
                    "velocity": 0.8661417322834646,
                    "duration": 0.667613458333328
                },
                {
                    "name": "C3",
                    "midi": 48,
                    "time": 46.69885118333318,
                    "velocity": 0.7952755905511811,
                    "duration": 0.3380680916666634
                },
                {
                    "name": "G2",
                    "midi": 43,
                    "time": 47.045441999999845,
                    "velocity": 0.8346456692913385,
                    "duration": 0.6818179999999998
                },
                {
                    "name": "C3",
                    "midi": 48,
                    "time": 47.72157818333318,
                    "velocity": 0.8740157480314961,
                    "duration": 0.3380680916666634
                },
                {
                    "name": "B2",
                    "midi": 47,
                    "time": 48.06816899999984,
                    "velocity": 0.8188976377952756,
                    "duration": 0.1590908666666664
                },
                {
                    "name": "A2",
                    "midi": 45,
                    "time": 48.23862349999984,
                    "velocity": 0.8110236220472441,
                    "duration": 0.16761359166666523
                },
                {
                    "name": "G2",
                    "midi": 43,
                    "time": 48.406237091666505,
                    "velocity": 0.8503937007874016,
                    "duration": 0.1590908666666664
                },
                {
                    "name": "F2",
                    "midi": 41,
                    "time": 48.5852143166665,
                    "velocity": 0.8188976377952756,
                    "duration": 0.1534090500000005
                },
                {
                    "name": "E2",
                    "midi": 40,
                    "time": 48.75282790833317,
                    "velocity": 0.7559055118110236,
                    "duration": 0.15624995833333344
                },
                {
                    "name": "D2",
                    "midi": 38,
                    "time": 48.9261233166665,
                    "velocity": 0.7559055118110236,
                    "duration": 0.16761359166666523
                },
                {
                    "name": "C5",
                    "midi": 72,
                    "time": 49.085214183333164,
                    "velocity": 0.84251968503937,
                    "duration": 1.1903405916666543
                },
                {
                    "name": "E4",
                    "midi": 64,
                    "time": 49.085214183333164,
                    "velocity": 0.8346456692913385,
                    "duration": 1.1818178666666554
                },
                {
                    "name": "G4",
                    "midi": 67,
                    "time": 49.09089599999983,
                    "velocity": 0.8818897637795275,
                    "duration": 1.1789769583333225
                },
                {
                    "name": "C2",
                    "midi": 36,
                    "time": 49.096577816666496,
                    "velocity": 0.84251968503937,
                    "duration": 1.1874996833333213
                },
                {
                    "name": "G2",
                    "midi": 43,
                    "time": 49.42612318333316,
                    "velocity": 0.8110236220472441,
                    "duration": 0.32954536666666456
                },
                {
                    "name": "C3",
                    "midi": 48,
                    "time": 49.775554908333156,
                    "velocity": 0.8110236220472441,
                    "duration": 0.49999986666666274
                },
                {
                    "name": "B3",
                    "midi": 59,
                    "time": 50.44885018333315,
                    "velocity": 0.8503937007874016,
                    "duration": 1.3579541833333337
                },
                {
                    "name": "G3",
                    "midi": 55,
                    "time": 50.45169109166648,
                    "velocity": 0.8740157480314961,
                    "duration": 1.346590550000002
                },
                {
                    "name": "C4",
                    "midi": 60,
                    "time": 51.82100890833315,
                    "velocity": 0.8582677165354331,
                    "duration": 0.32386354999999867
                },
                {
                    "name": "B3",
                    "midi": 59,
                    "time": 52.153395183333146,
                    "velocity": 0.8188976377952756,
                    "duration": 0.1534090500000005
                },
                {
                    "name": "A3",
                    "midi": 57,
                    "time": 52.33237240833314,
                    "velocity": 0.7559055118110236,
                    "duration": 0.16761359166666523
                },
                {
                    "name": "G#3",
                    "midi": 56,
                    "time": 52.505667816666474,
                    "velocity": 0.7952755905511811,
                    "duration": 0.16193177499999933
                },
                {
                    "name": "A3",
                    "midi": 57,
                    "time": 52.66759959166647,
                    "velocity": 0.7637795275590551,
                    "duration": 0.1534090500000005
                },
                {
                    "name": "E3",
                    "midi": 52,
                    "time": 52.84657681666647,
                    "velocity": 0.8188976377952756,
                    "duration": 0.15624995833333344
                },
                {
                    "name": "F#3",
                    "midi": 54,
                    "time": 53.014190408333135,
                    "velocity": 0.8031496062992126,
                    "duration": 0.17045449999999818
                },
                {
                    "name": "G#3",
                    "midi": 56,
                    "time": 53.176122183333135,
                    "velocity": 0.8582677165354331,
                    "duration": 1.3494314583333349
                },
                {
                    "name": "E3",
                    "midi": 52,
                    "time": 53.869303816666466,
                    "velocity": 0.7952755905511811,
                    "duration": 0.6789770916666669
                },
                {
                    "name": "A3",
                    "midi": 57,
                    "time": 54.539758183333134,
                    "velocity": 0.8503937007874016,
                    "duration": 1.0227269999999962
                },
                {
                    "name": "D3",
                    "midi": 50,
                    "time": 54.89203081666647,
                    "velocity": 0.7637795275590551,
                    "duration": 0.33522718333333046
                },
                {
                    "name": "E3",
                    "midi": 52,
                    "time": 55.221576183333134,
                    "velocity": 0.8188976377952756,
                    "duration": 0.664772549999995
                },
                {
                    "name": "G#3",
                    "midi": 56,
                    "time": 55.57100790833313,
                    "velocity": 0.7795275590551181,
                    "duration": 0.33522718333333046
                },
                {
                    "name": "A3",
                    "midi": 57,
                    "time": 55.90623509166646,
                    "velocity": 0.8582677165354331,
                    "duration": 1.0085224583333314
                },
                {
                    "name": "F4",
                    "midi": 65,
                    "time": 56.25566681666646,
                    "velocity": 0.7874015748031497,
                    "duration": 0.16477268333333228
                },
                {
                    "name": "E4",
                    "midi": 64,
                    "time": 56.42612131666646,
                    "velocity": 0.7716535433070866,
                    "duration": 0.17329540833333112
                },
                {
                    "name": "F4",
                    "midi": 65,
                    "time": 56.59089399999979,
                    "velocity": 0.8346456692913385,
                    "duration": 0.6874998166666657
                },
                {
                    "name": "A3",
                    "midi": 57,
                    "time": 56.93464390833312,
                    "velocity": 0.7795275590551181,
                    "duration": 0.3494317250000023
                },
                {
                    "name": "B3",
                    "midi": 59,
                    "time": 57.275552908333125,
                    "velocity": 0.8188976377952756,
                    "duration": 1.0113633666666573
                },
                {
                    "name": "G4",
                    "midi": 67,
                    "time": 57.61646190833312,
                    "velocity": 0.7559055118110236,
                    "duration": 0.16193177499999933
                },
                {
                    "name": "E4",
                    "midi": 64,
                    "time": 57.78407549999979,
                    "velocity": 0.8188976377952756,
                    "duration": 0.16193177499999933
                },
                {
                    "name": "G4",
                    "midi": 67,
                    "time": 57.954529999999785,
                    "velocity": 0.8503937007874016,
                    "duration": 0.664772549999995
                },
                {
                    "name": "B3",
                    "midi": 59,
                    "time": 58.29259809166645,
                    "velocity": 0.8110236220472441,
                    "duration": 0.3181817333333328
                },
                {
                    "name": "C4",
                    "midi": 60,
                    "time": 58.642029816666444,
                    "velocity": 0.84251968503937,
                    "duration": 0.33522718333333046
                },
                {
                    "name": "D4",
                    "midi": 62,
                    "time": 58.97441609166644,
                    "velocity": 0.8188976377952756,
                    "duration": 0.1534090500000005
                },
                {
                    "name": "C4",
                    "midi": 60,
                    "time": 59.14771149999977,
                    "velocity": 0.7952755905511811,
                    "duration": 0.1534090500000005
                },
                {
                    "name": "B3",
                    "midi": 59,
                    "time": 59.312484183333105,
                    "velocity": 0.7952755905511811,
                    "duration": 0.1590908666666664
                },
                {
                    "name": "A3",
                    "midi": 57,
                    "time": 59.48862049999977,
                    "velocity": 0.7716535433070866,
                    "duration": 0.16761359166666523
                },
                {
                    "name": "G3",
                    "midi": 55,
                    "time": 59.66475681666643,
                    "velocity": 0.7716535433070866,
                    "duration": 0.15624995833333344
                },
                {
                    "name": "F3",
                    "midi": 53,
                    "time": 59.8323704083331,
                    "velocity": 0.8110236220472441,
                    "duration": 0.16477268333333228
                },
                {
                    "name": "G3",
                    "midi": 55,
                    "time": 59.99714309166643,
                    "velocity": 0.8503937007874016,
                    "duration": 0.34090899999999635
                },
                {
                    "name": "E3",
                    "midi": 52,
                    "time": 60.335211183333094,
                    "velocity": 0.8110236220472441,
                    "duration": 0.5113635000000016
                },
                {
                    "name": "F3",
                    "midi": 53,
                    "time": 60.855097408333094,
                    "velocity": 0.7716535433070866,
                    "duration": 0.1590908666666664
                },
                {
                    "name": "G3",
                    "midi": 55,
                    "time": 61.028392816666425,
                    "velocity": 0.7952755905511811,
                    "duration": 0.15624995833333344
                },
                {
                    "name": "E3",
                    "midi": 52,
                    "time": 61.19600640833309,
                    "velocity": 0.8031496062992126,
                    "duration": 0.16761359166666523
                },
                {
                    "name": "F3",
                    "midi": 53,
                    "time": 61.36930181666642,
                    "velocity": 0.8661417322834646,
                    "duration": 0.8465906833333321
                },
                {
                    "name": "G3",
                    "midi": 55,
                    "time": 62.22157431666642,
                    "velocity": 0.7716535433070866,
                    "duration": 0.15624995833333344
                },
                {
                    "name": "A3",
                    "midi": 57,
                    "time": 62.389187908333085,
                    "velocity": 0.7637795275590551,
                    "duration": 0.1590908666666664
                },
                {
                    "name": "F3",
                    "midi": 53,
                    "time": 62.55964240833308,
                    "velocity": 0.7874015748031497,
                    "duration": 0.1590908666666664
                },
                {
                    "name": "G3",
                    "midi": 55,
                    "time": 62.724415091666415,
                    "velocity": 0.8188976377952756,
                    "duration": 0.6761361833333339
                },
                {
                    "name": "C3",
                    "midi": 48,
                    "time": 63.06532409166642,
                    "velocity": 0.7716535433070866,
                    "duration": 0.3380680916666634
                },
                {
                    "name": "G2",
                    "midi": 43,
                    "time": 63.40339218333308,
                    "velocity": 0.8031496062992126,
                    "duration": 0.6789770916666669
                },
                {
                    "name": "C3",
                    "midi": 48,
                    "time": 64.08521018333309,
                    "velocity": 0.8582677165354331,
                    "duration": 0.3380680916666705
                },
                {
                    "name": "B2",
                    "midi": 47,
                    "time": 64.43180099999977,
                    "velocity": 0.7637795275590551,
                    "duration": 0.15340904999999339
                },
                {
                    "name": "A2",
                    "midi": 45,
                    "time": 64.59657368333309,
                    "velocity": 0.7795275590551181,
                    "duration": 0.16193177499999933
                },
                {
                    "name": "G2",
                    "midi": 43,
                    "time": 64.77555090833309,
                    "velocity": 0.8031496062992126,
                    "duration": 0.15340904999999339
                },
                {
                    "name": "F2",
                    "midi": 41,
                    "time": 64.93748268333309,
                    "velocity": 0.7795275590551181,
                    "duration": 0.16761359166666523
                },
                {
                    "name": "E2",
                    "midi": 40,
                    "time": 65.11361899999976,
                    "velocity": 0.7952755905511811,
                    "duration": 0.1647726833333394
                },
                {
                    "name": "D2",
                    "midi": 38,
                    "time": 65.28975531666643,
                    "velocity": 0.7952755905511811,
                    "duration": 0.15340904999999339
                },
                {
                    "name": "G4",
                    "midi": 67,
                    "time": 65.44884618333309,
                    "velocity": 0.8267716535433071,
                    "duration": 1.1761360500000109
                },
                {
                    "name": "E4",
                    "midi": 64,
                    "time": 65.45168709166643,
                    "velocity": 0.84251968503937,
                    "duration": 1.1903405916666827
                },
                {
                    "name": "C5",
                    "midi": 72,
                    "time": 65.45452799999977,
                    "velocity": 0.8346456692913385,
                    "duration": 1.1818178666666626
                },
                {
                    "name": "C2",
                    "midi": 36,
                    "time": 65.45452799999977,
                    "velocity": 0.8503937007874016,
                    "duration": 1.1903405916666827
                },
                {
                    "name": "G2",
                    "midi": 43,
                    "time": 65.7982779083331,
                    "velocity": 0.7637795275590551,
                    "duration": 0.33522718333333046
                },
                {
                    "name": "C3",
                    "midi": 48,
                    "time": 66.13350509166644,
                    "velocity": 0.7952755905511811,
                    "duration": 0.5056816833333357
                }
            ],
            "controlChanges": {
                "10": [
                    {
                        "number": 10,
                        "time": 0,
                        "value": 0.25196850393700787
                    }
                ]
            },
            "id": 2,
            "name": "March in C major",
            "instrumentNumber": 24,
            "instrument": "acoustic guitar (nylon)",
            "instrumentFamily": "guitar",
            "channelNumber": 2,
            "isPercussion": false
        },
        {
            "startTime": 0,
            "duration": 0,
            "length": 0,
            "notes": [],
            "controlChanges": {},
            "id": 3,
            "name": "Entered by John Cowles"
        },
        {
            "startTime": 0,
            "duration": 0,
            "length": 0,
            "notes": [],
            "controlChanges": {},
            "id": 4,
            "name": "cowles@hydra.convex.com"
        }
    ]
}