{
    "header": {
        "PPQ": 1024,
        "timeSignature": [
            2,
            2
        ],
        "bpm": 84.000084000084,
        "name": ""
    },
    "startTime": 0,
    "duration": 208.57052245605524,
    "tracks": [
        {
            "startTime": 0,
            "duration": 0,
            "length": 0,
            "notes": [],
            "controlChanges": {},
            "id": 0
        },
        {
            "startTime": 0.006975439453124999,
            "duration": 208.57052245605524,
            "length": 945,
            "notes": [
                {
                    "name": "A3",
                    "midi": 57,
                    "time": 0.006975439453124999,
                    "velocity": 0.9291338582677166,
                    "duration": 0.39132215332031245
                },
                {
                    "name": "A1",
                    "midi": 33,
                    "time": 0.006975439453124999,
                    "velocity": 0.8740157480314961,
                    "duration": 2.849467016601561
                },
                {
                    "name": "A2",
                    "midi": 45,
                    "time": 0.006975439453124999,
                    "velocity": 1,
                    "duration": 2.849467016601561
                },
                {
                    "name": "B3",
                    "midi": 59,
                    "time": 0.38504425781249996,
                    "velocity": 0.9133858267716536,
                    "duration": 0.3648154833984375
                },
                {
                    "name": "C#4",
                    "midi": 61,
                    "time": 0.73660640625,
                    "velocity": 0.8818897637795275,
                    "duration": 0.3648154833984374
                },
                {
                    "name": "E4",
                    "midi": 64,
                    "time": 1.0881685546875,
                    "velocity": 0.8818897637795275,
                    "duration": 0.37318601074218716
                },
                {
                    "name": "A4",
                    "midi": 69,
                    "time": 1.4481012304687497,
                    "velocity": 0.8818897637795275,
                    "duration": 0.3710933789062498
                },
                {
                    "name": "C#5",
                    "midi": 73,
                    "time": 1.8059412744140622,
                    "velocity": 0.8818897637795275,
                    "duration": 0.359235131835937
                },
                {
                    "name": "E5",
                    "midi": 76,
                    "time": 2.151923071289062,
                    "velocity": 0.8818897637795275,
                    "duration": 0.35993267578124977
                },
                {
                    "name": "A4",
                    "midi": 69,
                    "time": 2.498602412109374,
                    "velocity": 0.8818897637795275,
                    "duration": 0.3717909228515621
                },
                {
                    "name": "A5",
                    "midi": 81,
                    "time": 2.857139999999999,
                    "velocity": 0.9291338582677166,
                    "duration": 0.39829759277343735
                },
                {
                    "name": "A2",
                    "midi": 45,
                    "time": 2.857139999999999,
                    "velocity": 0.9291338582677166,
                    "duration": 0.39829759277343735
                },
                {
                    "name": "A4",
                    "midi": 69,
                    "time": 3.242184257812499,
                    "velocity": 0.9133858267716536,
                    "duration": 0.3648154833984374
                },
                {
                    "name": "B2",
                    "midi": 47,
                    "time": 3.242184257812499,
                    "velocity": 0.9133858267716536,
                    "duration": 0.3648154833984374
                },
                {
                    "name": "A5",
                    "midi": 81,
                    "time": 3.593746406249999,
                    "velocity": 0.9763779527559056,
                    "duration": 1.405551049804688
                },
                {
                    "name": "C#3",
                    "midi": 49,
                    "time": 3.593746406249999,
                    "velocity": 0.8818897637795275,
                    "duration": 0.3648154833984374
                },
                {
                    "name": "E3",
                    "midi": 52,
                    "time": 3.945308554687499,
                    "velocity": 0.8818897637795275,
                    "duration": 0.3731860107421876
                },
                {
                    "name": "A3",
                    "midi": 57,
                    "time": 4.305241230468749,
                    "velocity": 0.8818897637795275,
                    "duration": 0.3710933789062505
                },
                {
                    "name": "C#4",
                    "midi": 61,
                    "time": 4.663081274414061,
                    "velocity": 0.8818897637795275,
                    "duration": 0.3592351318359386
                },
                {
                    "name": "B5",
                    "midi": 83,
                    "time": 4.999994999999999,
                    "velocity": 0.9763779527559056,
                    "duration": 0.25251090820312516
                },
                {
                    "name": "E4",
                    "midi": 64,
                    "time": 5.009063071289062,
                    "velocity": 0.8818897637795275,
                    "duration": 0.3599326757812502
                },
                {
                    "name": "A5",
                    "midi": 81,
                    "time": 5.22599923828125,
                    "velocity": 0.9763779527559056,
                    "duration": 0.14997194824218774
                },
                {
                    "name": "A3",
                    "midi": 57,
                    "time": 5.355742412109374,
                    "velocity": 0.8818897637795275,
                    "duration": 0.3717909228515648
                },
                {
                    "name": "B5",
                    "midi": 83,
                    "time": 5.3599276757812495,
                    "velocity": 0.9763779527559056,
                    "duration": 0.14997194824218862
                },
                {
                    "name": "A5",
                    "midi": 81,
                    "time": 5.49385611328125,
                    "velocity": 0.937007874015748,
                    "duration": 0.0390624609375001
                },
                {
                    "name": "G#5",
                    "midi": 80,
                    "time": 5.531523486328125,
                    "velocity": 0.9763779527559056,
                    "duration": 0.09835369628906321
                },
                {
                    "name": "A5",
                    "midi": 81,
                    "time": 5.620111567382813,
                    "velocity": 0.937007874015748,
                    "duration": 0.0781249218750002
                },
                {
                    "name": "B5",
                    "midi": 83,
                    "time": 5.714280000000001,
                    "velocity": 1,
                    "duration": 0.3564449560546876
                },
                {
                    "name": "E4",
                    "midi": 64,
                    "time": 5.714280000000001,
                    "velocity": 0.9291338582677166,
                    "duration": 0.3982975927734378
                },
                {
                    "name": "A5",
                    "midi": 81,
                    "time": 6.099324257812501,
                    "velocity": 1,
                    "duration": 0.32296284667968767
                },
                {
                    "name": "E3",
                    "midi": 52,
                    "time": 6.099324257812501,
                    "velocity": 0.9133858267716536,
                    "duration": 0.36481548339843783
                },
                {
                    "name": "G#5",
                    "midi": 80,
                    "time": 6.450886406250001,
                    "velocity": 0.9763779527559056,
                    "duration": 0.32296284667968767
                },
                {
                    "name": "E4",
                    "midi": 64,
                    "time": 6.450886406250001,
                    "velocity": 0.9763779527559056,
                    "duration": 2.1198360498046895
                },
                {
                    "name": "F#5",
                    "midi": 78,
                    "time": 6.802448554687501,
                    "velocity": 0.9763779527559056,
                    "duration": 0.3313333740234379
                },
                {
                    "name": "E5",
                    "midi": 76,
                    "time": 7.1623812304687515,
                    "velocity": 0.9763779527559056,
                    "duration": 0.3292407421875003
                },
                {
                    "name": "D5",
                    "midi": 74,
                    "time": 7.520221274414064,
                    "velocity": 0.9763779527559056,
                    "duration": 0.3173824951171875
                },
                {
                    "name": "D5",
                    "midi": 74,
                    "time": 7.857135000000001,
                    "velocity": 0.9763779527559056,
                    "duration": 0.0941684326171881
                },
                {
                    "name": "C#5",
                    "midi": 73,
                    "time": 7.941537817382814,
                    "velocity": 0.9763779527559056,
                    "duration": 0.0941684326171881
                },
                {
                    "name": "D5",
                    "midi": 74,
                    "time": 8.025940634765627,
                    "velocity": 0.9763779527559056,
                    "duration": 0.0941684326171881
                },
                {
                    "name": "C#5",
                    "midi": 73,
                    "time": 8.11034345214844,
                    "velocity": 0.937007874015748,
                    "duration": 0.09626106445312566
                },
                {
                    "name": "B4",
                    "midi": 71,
                    "time": 8.212882412109378,
                    "velocity": 0.9763779527559056,
                    "duration": 0.32993828613281195
                },
                {
                    "name": "C#5",
                    "midi": 73,
                    "time": 8.571420000000003,
                    "velocity": 1,
                    "duration": 0.3564449560546876
                },
                {
                    "name": "E5",
                    "midi": 76,
                    "time": 8.956464257812504,
                    "velocity": 1,
                    "duration": 0.3229628466796868
                },
                {
                    "name": "A4",
                    "midi": 69,
                    "time": 9.308026406250004,
                    "velocity": 0.9763779527559056,
                    "duration": 0.3229628466796868
                },
                {
                    "name": "A3",
                    "midi": 57,
                    "time": 9.308026406250004,
                    "velocity": 0.9763779527559056,
                    "duration": 0.7107972802734377
                },
                {
                    "name": "C#5",
                    "midi": 73,
                    "time": 9.659588554687504,
                    "velocity": 0.9763779527559056,
                    "duration": 0.331333374023437
                },
                {
                    "name": "A3",
                    "midi": 57,
                    "time": 9.999990000000004,
                    "velocity": 0.9763779527559056,
                    "duration": 0.17020072265625075
                },
                {
                    "name": "B4",
                    "midi": 71,
                    "time": 10.019521230468754,
                    "velocity": 0.9763779527559056,
                    "duration": 0.3292407421875012
                },
                {
                    "name": "G#3",
                    "midi": 56,
                    "time": 10.15205458007813,
                    "velocity": 0.9763779527559056,
                    "duration": 0.17020072265625075
                },
                {
                    "name": "A3",
                    "midi": 57,
                    "time": 10.304119160156255,
                    "velocity": 0.9763779527559056,
                    "duration": 0.17020072265625252
                },
                {
                    "name": "E5",
                    "midi": 76,
                    "time": 10.377361274414069,
                    "velocity": 0.9763779527559056,
                    "duration": 0.3173824951171884
                },
                {
                    "name": "G#3",
                    "midi": 56,
                    "time": 10.456183740234382,
                    "velocity": 0.937007874015748,
                    "duration": 0.23786248535156318
                },
                {
                    "name": "G#4",
                    "midi": 68,
                    "time": 10.72334307128907,
                    "velocity": 0.9763779527559056,
                    "duration": 0.31808003906249915
                },
                {
                    "name": "E3",
                    "midi": 52,
                    "time": 10.72334307128907,
                    "velocity": 0.9763779527559056,
                    "duration": 0.704519384765625
                },
                {
                    "name": "B4",
                    "midi": 71,
                    "time": 11.070022412109383,
                    "velocity": 0.9763779527559056,
                    "duration": 0.32993828613281195
                },
                {
                    "name": "C#5",
                    "midi": 73,
                    "time": 11.428560000000008,
                    "velocity": 1,
                    "duration": 0.3564449560546876
                },
                {
                    "name": "A3",
                    "midi": 57,
                    "time": 11.428560000000008,
                    "velocity": 0.9763779527559056,
                    "duration": 0.7714836035156267
                },
                {
                    "name": "E5",
                    "midi": 76,
                    "time": 11.813604257812509,
                    "velocity": 1,
                    "duration": 0.3229628466796868
                },
                {
                    "name": "A3",
                    "midi": 57,
                    "time": 12.142845000000008,
                    "velocity": 0.9763779527559056,
                    "duration": 0.17159581054687756
                },
                {
                    "name": "B4",
                    "midi": 71,
                    "time": 12.165166406250009,
                    "velocity": 0.9763779527559056,
                    "duration": 0.32296284667969033
                },
                {
                    "name": "G#3",
                    "midi": 56,
                    "time": 12.29630466796876,
                    "velocity": 0.9763779527559056,
                    "duration": 0.17159581054687578
                },
                {
                    "name": "A3",
                    "midi": 57,
                    "time": 12.44976433593751,
                    "velocity": 0.9763779527559056,
                    "duration": 0.17159581054687756
                },
                {
                    "name": "E5",
                    "midi": 76,
                    "time": 12.516728554687512,
                    "velocity": 0.9763779527559056,
                    "duration": 0.33133337402343876
                },
                {
                    "name": "G#3",
                    "midi": 56,
                    "time": 12.603224003906263,
                    "velocity": 0.937007874015748,
                    "duration": 0.23367722167968807
                },
                {
                    "name": "A4",
                    "midi": 69,
                    "time": 12.876661230468764,
                    "velocity": 0.9763779527559056,
                    "duration": 0.32924074218749944
                },
                {
                    "name": "F#3",
                    "midi": 54,
                    "time": 12.876661230468764,
                    "velocity": 0.9763779527559056,
                    "duration": 1.4083412255859393
                },
                {
                    "name": "C#5",
                    "midi": 73,
                    "time": 13.234501274414077,
                    "velocity": 0.9763779527559056,
                    "duration": 0.31738249511718664
                },
                {
                    "name": "C#5",
                    "midi": 73,
                    "time": 13.571415000000014,
                    "velocity": 0.9763779527559056,
                    "duration": 0.0941684326171881
                },
                {
                    "name": "A3",
                    "midi": 57,
                    "time": 13.580483071289077,
                    "velocity": 0.9763779527559056,
                    "duration": 0.7045193847656268
                },
                {
                    "name": "B4",
                    "midi": 71,
                    "time": 13.655817817382827,
                    "velocity": 0.9763779527559056,
                    "duration": 0.0941684326171881
                },
                {
                    "name": "C#5",
                    "midi": 73,
                    "time": 13.74022063476564,
                    "velocity": 0.9763779527559056,
                    "duration": 0.0941684326171881
                },
                {
                    "name": "B4",
                    "midi": 71,
                    "time": 13.824623452148453,
                    "velocity": 0.937007874015748,
                    "duration": 0.09626106445312566
                },
                {
                    "name": "A4",
                    "midi": 69,
                    "time": 13.927162412109391,
                    "velocity": 0.9763779527559056,
                    "duration": 0.32993828613281195
                },
                {
                    "name": "B4",
                    "midi": 71,
                    "time": 14.285700000000016,
                    "velocity": 1,
                    "duration": 0.3564449560546876
                },
                {
                    "name": "G#3",
                    "midi": 56,
                    "time": 14.285700000000016,
                    "velocity": 1,
                    "duration": 1.4474036865234385
                },
                {
                    "name": "E3",
                    "midi": 52,
                    "time": 14.285700000000016,
                    "velocity": 1,
                    "duration": 2.856442456054687
                },
                {
                    "name": "A4",
                    "midi": 69,
                    "time": 14.670744257812517,
                    "velocity": 1,
                    "duration": 0.3229628466796868
                },
                {
                    "name": "G#4",
                    "midi": 68,
                    "time": 15.022306406250017,
                    "velocity": 0.9763779527559056,
                    "duration": 0.3229628466796868
                },
                {
                    "name": "F#4",
                    "midi": 66,
                    "time": 15.373868554687517,
                    "velocity": 0.9763779527559056,
                    "duration": 0.331333374023437
                },
                {
                    "name": "E4",
                    "midi": 64,
                    "time": 15.733801230468767,
                    "velocity": 0.9763779527559056,
                    "duration": 0.3292407421875012
                },
                {
                    "name": "E2",
                    "midi": 40,
                    "time": 15.733801230468767,
                    "velocity": 0.968503937007874,
                    "duration": 1.4083412255859358
                },
                {
                    "name": "D4",
                    "midi": 62,
                    "time": 16.09164127441408,
                    "velocity": 0.9763779527559056,
                    "duration": 0.31738249511718664
                },
                {
                    "name": "D4",
                    "midi": 62,
                    "time": 16.428555000000017,
                    "velocity": 0.9763779527559056,
                    "duration": 0.0941684326171881
                },
                {
                    "name": "C#4",
                    "midi": 61,
                    "time": 16.51295781738283,
                    "velocity": 0.9763779527559056,
                    "duration": 0.0941684326171881
                },
                {
                    "name": "D4",
                    "midi": 62,
                    "time": 16.597360634765643,
                    "velocity": 0.9763779527559056,
                    "duration": 0.0941684326171881
                },
                {
                    "name": "C#4",
                    "midi": 61,
                    "time": 16.681763452148456,
                    "velocity": 0.937007874015748,
                    "duration": 0.09626106445312388
                },
                {
                    "name": "B3",
                    "midi": 59,
                    "time": 16.78430241210939,
                    "velocity": 0.9763779527559056,
                    "duration": 0.32993828613281195
                },
                {
                    "name": "A3",
                    "midi": 57,
                    "time": 17.142840000000014,
                    "velocity": 1,
                    "duration": 0.3564449560546876
                },
                {
                    "name": "A1",
                    "midi": 33,
                    "time": 17.142840000000014,
                    "velocity": 0.8740157480314961,
                    "duration": 2.8564424560546797
                },
                {
                    "name": "A2",
                    "midi": 45,
                    "time": 17.142840000000014,
                    "velocity": 1,
                    "duration": 2.8564424560546797
                },
                {
                    "name": "B3",
                    "midi": 59,
                    "time": 17.527884257812513,
                    "velocity": 1,
                    "duration": 0.3229628466796868
                },
                {
                    "name": "C#4",
                    "midi": 61,
                    "time": 17.87944640625001,
                    "velocity": 0.9763779527559056,
                    "duration": 0.3229628466796868
                },
                {
                    "name": "E4",
                    "midi": 64,
                    "time": 18.23100855468751,
                    "velocity": 0.9763779527559056,
                    "duration": 0.331333374023437
                },
                {
                    "name": "A4",
                    "midi": 69,
                    "time": 18.590941230468758,
                    "velocity": 0.9763779527559056,
                    "duration": 0.3292407421875012
                },
                {
                    "name": "C#5",
                    "midi": 73,
                    "time": 18.94878127441407,
                    "velocity": 0.9763779527559056,
                    "duration": 0.31738249511718664
                },
                {
                    "name": "E5",
                    "midi": 76,
                    "time": 19.29476307128907,
                    "velocity": 0.9763779527559056,
                    "duration": 0.31808003906250093
                },
                {
                    "name": "A4",
                    "midi": 69,
                    "time": 19.64144241210938,
                    "velocity": 0.9763779527559056,
                    "duration": 0.32993828613281195
                },
                {
                    "name": "A5",
                    "midi": 81,
                    "time": 19.999980000000004,
                    "velocity": 1,
                    "duration": 0.3564449560546876
                },
                {
                    "name": "A2",
                    "midi": 45,
                    "time": 19.999980000000004,
                    "velocity": 0.9291338582677166,
                    "duration": 0.3982975927734351
                },
                {
                    "name": "A4",
                    "midi": 69,
                    "time": 20.385024257812503,
                    "velocity": 1,
                    "duration": 0.3229628466796868
                },
                {
                    "name": "B2",
                    "midi": 47,
                    "time": 20.385024257812503,
                    "velocity": 0.9133858267716536,
                    "duration": 0.3648154833984343
                },
                {
                    "name": "A5",
                    "midi": 81,
                    "time": 20.73658640625,
                    "velocity": 0.9763779527559056,
                    "duration": 1.4055510498046822
                },
                {
                    "name": "C#3",
                    "midi": 49,
                    "time": 20.73658640625,
                    "velocity": 0.8818897637795275,
                    "duration": 0.3648154833984343
                },
                {
                    "name": "E3",
                    "midi": 52,
                    "time": 21.0881485546875,
                    "velocity": 0.8818897637795275,
                    "duration": 0.3731860107421845
                },
                {
                    "name": "A3",
                    "midi": 57,
                    "time": 21.44808123046875,
                    "velocity": 0.8818897637795275,
                    "duration": 0.3710933789062487
                },
                {
                    "name": "C#4",
                    "midi": 61,
                    "time": 21.80592127441406,
                    "velocity": 0.8818897637795275,
                    "duration": 0.3592351318359306
                },
                {
                    "name": "B5",
                    "midi": 83,
                    "time": 22.142834999999994,
                    "velocity": 0.9763779527559056,
                    "duration": 0.2573937158203101
                },
                {
                    "name": "E4",
                    "midi": 64,
                    "time": 22.151903071289055,
                    "velocity": 0.8818897637795275,
                    "duration": 0.35993267578124843
                },
                {
                    "name": "A5",
                    "midi": 81,
                    "time": 22.373024501953118,
                    "velocity": 0.9763779527559056,
                    "duration": 0.14997194824218596
                },
                {
                    "name": "A3",
                    "midi": 57,
                    "time": 22.498582412109368,
                    "velocity": 0.8818897637795275,
                    "duration": 0.37179092285155946
                },
                {
                    "name": "B5",
                    "midi": 83,
                    "time": 22.506952939453118,
                    "velocity": 0.9763779527559056,
                    "duration": 0.14997194824218596
                },
                {
                    "name": "A5",
                    "midi": 81,
                    "time": 22.640881376953118,
                    "velocity": 0.937007874015748,
                    "duration": 0.03487719726562233
                },
                {
                    "name": "G#5",
                    "midi": 80,
                    "time": 22.674363486328115,
                    "velocity": 0.9763779527559056,
                    "duration": 0.09835369628906321
                },
                {
                    "name": "A5",
                    "midi": 81,
                    "time": 22.762951567382803,
                    "velocity": 0.937007874015748,
                    "duration": 0.07812492187500197
                },
                {
                    "name": "B5",
                    "midi": 83,
                    "time": 22.85711999999999,
                    "velocity": 1,
                    "duration": 0.3564449560546876
                },
                {
                    "name": "E4",
                    "midi": 64,
                    "time": 22.85711999999999,
                    "velocity": 0.9291338582677166,
                    "duration": 0.3982975927734351
                },
                {
                    "name": "A5",
                    "midi": 81,
                    "time": 23.24216425781249,
                    "velocity": 1,
                    "duration": 0.3229628466796868
                },
                {
                    "name": "E3",
                    "midi": 52,
                    "time": 23.24216425781249,
                    "velocity": 0.9133858267716536,
                    "duration": 0.3648154833984343
                },
                {
                    "name": "G#5",
                    "midi": 80,
                    "time": 23.59372640624999,
                    "velocity": 0.9763779527559056,
                    "duration": 0.3229628466796868
                },
                {
                    "name": "E4",
                    "midi": 64,
                    "time": 23.59372640624999,
                    "velocity": 0.9763779527559056,
                    "duration": 2.1198360498046824
                },
                {
                    "name": "F#5",
                    "midi": 78,
                    "time": 23.945288554687487,
                    "velocity": 0.9763779527559056,
                    "duration": 0.331333374023437
                },
                {
                    "name": "E5",
                    "midi": 76,
                    "time": 24.305221230468735,
                    "velocity": 0.9763779527559056,
                    "duration": 0.3292407421875012
                },
                {
                    "name": "D5",
                    "midi": 74,
                    "time": 24.663061274414048,
                    "velocity": 0.9763779527559056,
                    "duration": 0.31738249511718664
                },
                {
                    "name": "D5",
                    "midi": 74,
                    "time": 24.999974999999985,
                    "velocity": 0.9763779527559056,
                    "duration": 0.0941684326171881
                },
                {
                    "name": "C#5",
                    "midi": 73,
                    "time": 25.084377817382798,
                    "velocity": 0.9763779527559056,
                    "duration": 0.0941684326171881
                },
                {
                    "name": "D5",
                    "midi": 74,
                    "time": 25.16878063476561,
                    "velocity": 0.9763779527559056,
                    "duration": 0.0941684326171881
                },
                {
                    "name": "C#5",
                    "midi": 73,
                    "time": 25.253183452148424,
                    "velocity": 0.937007874015748,
                    "duration": 0.09626106445312388
                },
                {
                    "name": "B4",
                    "midi": 71,
                    "time": 25.35572241210936,
                    "velocity": 0.9763779527559056,
                    "duration": 0.32993828613281195
                },
                {
                    "name": "C#5",
                    "midi": 73,
                    "time": 25.71425999999998,
                    "velocity": 1,
                    "duration": 0.3564449560546876
                },
                {
                    "name": "E5",
                    "midi": 76,
                    "time": 26.09930425781248,
                    "velocity": 1,
                    "duration": 0.3229628466796868
                },
                {
                    "name": "A4",
                    "midi": 69,
                    "time": 26.45086640624998,
                    "velocity": 0.9763779527559056,
                    "duration": 0.3229628466796868
                },
                {
                    "name": "A3",
                    "midi": 57,
                    "time": 26.45086640624998,
                    "velocity": 0.9763779527559056,
                    "duration": 0.7107972802734324
                },
                {
                    "name": "C#5",
                    "midi": 73,
                    "time": 26.802428554687477,
                    "velocity": 0.9763779527559056,
                    "duration": 0.331333374023437
                },
                {
                    "name": "A3",
                    "midi": 57,
                    "time": 27.142829999999975,
                    "velocity": 0.9763779527559056,
                    "duration": 0.17229335449218652
                },
                {
                    "name": "B4",
                    "midi": 71,
                    "time": 27.162361230468722,
                    "velocity": 0.9763779527559056,
                    "duration": 0.32924074218750476
                },
                {
                    "name": "G#3",
                    "midi": 56,
                    "time": 27.296987211914036,
                    "velocity": 0.9763779527559056,
                    "duration": 0.17229335449219008
                },
                {
                    "name": "A3",
                    "midi": 57,
                    "time": 27.4511444238281,
                    "velocity": 0.9763779527559056,
                    "duration": 0.17229335449218652
                },
                {
                    "name": "E5",
                    "midi": 76,
                    "time": 27.52020127441404,
                    "velocity": 0.9763779527559056,
                    "duration": 0.31738249511718664
                },
                {
                    "name": "G#3",
                    "midi": 56,
                    "time": 27.605301635742162,
                    "velocity": 0.937007874015748,
                    "duration": 0.23228213378906304
                },
                {
                    "name": "G#4",
                    "midi": 68,
                    "time": 27.866183071289036,
                    "velocity": 0.9763779527559056,
                    "duration": 0.31808003906250093
                },
                {
                    "name": "E3",
                    "midi": 52,
                    "time": 27.866183071289036,
                    "velocity": 0.9763779527559056,
                    "duration": 0.704519384765625
                },
                {
                    "name": "B4",
                    "midi": 71,
                    "time": 28.21286241210935,
                    "velocity": 0.9763779527559056,
                    "duration": 0.32993828613281195
                },
                {
                    "name": "C#5",
                    "midi": 73,
                    "time": 28.571399999999972,
                    "velocity": 1,
                    "duration": 0.3564449560546876
                },
                {
                    "name": "A3",
                    "midi": 57,
                    "time": 28.571399999999972,
                    "velocity": 1,
                    "duration": 0.7359088623046866
                },
                {
                    "name": "E5",
                    "midi": 76,
                    "time": 28.95644425781247,
                    "velocity": 1,
                    "duration": 0.3229628466796868
                },
                {
                    "name": "A4",
                    "midi": 69,
                    "time": 29.30800640624997,
                    "velocity": 0.9763779527559056,
                    "duration": 0.3229628466796868
                },
                {
                    "name": "C#3",
                    "midi": 49,
                    "time": 29.30800640624997,
                    "velocity": 0.9763779527559056,
                    "duration": 0.7107972802734359
                },
                {
                    "name": "C#5",
                    "midi": 73,
                    "time": 29.659568554687468,
                    "velocity": 0.9763779527559056,
                    "duration": 0.331333374023437
                },
                {
                    "name": "B4",
                    "midi": 71,
                    "time": 30.019501230468716,
                    "velocity": 0.9763779527559056,
                    "duration": 0.3292407421875012
                },
                {
                    "name": "D3",
                    "midi": 50,
                    "time": 30.019501230468716,
                    "velocity": 0.9763779527559056,
                    "duration": 0.703124296875
                },
                {
                    "name": "E5",
                    "midi": 76,
                    "time": 30.37734127441403,
                    "velocity": 0.9763779527559056,
                    "duration": 0.31738249511718664
                },
                {
                    "name": "G#4",
                    "midi": 68,
                    "time": 30.723323071289027,
                    "velocity": 0.9763779527559056,
                    "duration": 0.31808003906250093
                },
                {
                    "name": "E3",
                    "midi": 52,
                    "time": 30.723323071289027,
                    "velocity": 0.9763779527559056,
                    "duration": 0.704519384765625
                },
                {
                    "name": "B4",
                    "midi": 71,
                    "time": 31.07000241210934,
                    "velocity": 0.9763779527559056,
                    "duration": 0.32993828613281195
                },
                {
                    "name": "A4",
                    "midi": 69,
                    "time": 31.428539999999963,
                    "velocity": 0.9763779527559056,
                    "duration": 2.856442456054701
                },
                {
                    "name": "A2",
                    "midi": 45,
                    "time": 31.428539999999963,
                    "velocity": 1,
                    "duration": 0.3564449560546876
                },
                {
                    "name": "B2",
                    "midi": 47,
                    "time": 31.81358425781246,
                    "velocity": 1,
                    "duration": 0.32296284667969033
                },
                {
                    "name": "C#3",
                    "midi": 49,
                    "time": 32.16514640624997,
                    "velocity": 0.9763779527559056,
                    "duration": 0.3229628466796868
                },
                {
                    "name": "E3",
                    "midi": 52,
                    "time": 32.51670855468747,
                    "velocity": 0.9763779527559056,
                    "duration": 0.331333374023437
                },
                {
                    "name": "A3",
                    "midi": 57,
                    "time": 32.87664123046872,
                    "velocity": 0.9763779527559056,
                    "duration": 0.3292407421875012
                },
                {
                    "name": "E3",
                    "midi": 52,
                    "time": 33.23448127441404,
                    "velocity": 0.9763779527559056,
                    "duration": 0.31738249511718664
                },
                {
                    "name": "C#3",
                    "midi": 49,
                    "time": 33.58046307128904,
                    "velocity": 0.9763779527559056,
                    "duration": 0.31808003906250093
                },
                {
                    "name": "A2",
                    "midi": 45,
                    "time": 33.927142412109355,
                    "velocity": 0.9763779527559056,
                    "duration": 0.3585375878906234
                },
                {
                    "name": "A3",
                    "midi": 57,
                    "time": 34.292655439453114,
                    "velocity": 0.9291338582677166,
                    "duration": 0.39132215332030995
                },
                {
                    "name": "A1",
                    "midi": 33,
                    "time": 34.292655439453114,
                    "velocity": 0.8740157480314961,
                    "duration": 2.849467016601558
                },
                {
                    "name": "A2",
                    "midi": 45,
                    "time": 34.292655439453114,
                    "velocity": 1,
                    "duration": 2.849467016601558
                },
                {
                    "name": "B3",
                    "midi": 59,
                    "time": 34.67072425781249,
                    "velocity": 0.9133858267716536,
                    "duration": 0.36481548339843783
                },
                {
                    "name": "C#4",
                    "midi": 61,
                    "time": 35.02228640624999,
                    "velocity": 0.8818897637795275,
                    "duration": 0.36481548339843783
                },
                {
                    "name": "E4",
                    "midi": 64,
                    "time": 35.37384855468749,
                    "velocity": 0.8818897637795275,
                    "duration": 0.37318601074218805
                },
                {
                    "name": "A4",
                    "midi": 69,
                    "time": 35.73378123046874,
                    "velocity": 0.8818897637795275,
                    "duration": 0.37109337890624516
                },
                {
                    "name": "C#5",
                    "midi": 73,
                    "time": 36.09162127441405,
                    "velocity": 0.8818897637795275,
                    "duration": 0.3592351318359377
                },
                {
                    "name": "E5",
                    "midi": 76,
                    "time": 36.437603071289054,
                    "velocity": 0.8818897637795275,
                    "duration": 0.3599326757812449
                },
                {
                    "name": "A4",
                    "midi": 69,
                    "time": 36.78428241210936,
                    "velocity": 0.8818897637795275,
                    "duration": 0.37179092285155946
                },
                {
                    "name": "A5",
                    "midi": 81,
                    "time": 37.142819999999986,
                    "velocity": 0.9291338582677166,
                    "duration": 0.3982975927734316
                },
                {
                    "name": "A2",
                    "midi": 45,
                    "time": 37.142819999999986,
                    "velocity": 0.9291338582677166,
                    "duration": 0.3982975927734316
                },
                {
                    "name": "A4",
                    "midi": 69,
                    "time": 37.52786425781248,
                    "velocity": 0.9133858267716536,
                    "duration": 0.36481548339843783
                },
                {
                    "name": "B2",
                    "midi": 47,
                    "time": 37.52786425781248,
                    "velocity": 0.9133858267716536,
                    "duration": 0.36481548339843783
                },
                {
                    "name": "A5",
                    "midi": 81,
                    "time": 37.87942640624998,
                    "velocity": 0.9763779527559056,
                    "duration": 1.4055510498046857
                },
                {
                    "name": "C#3",
                    "midi": 49,
                    "time": 37.87942640624998,
                    "velocity": 0.8818897637795275,
                    "duration": 0.36481548339843783
                },
                {
                    "name": "E3",
                    "midi": 52,
                    "time": 38.230988554687485,
                    "velocity": 0.8818897637795275,
                    "duration": 0.37318601074218805
                },
                {
                    "name": "A3",
                    "midi": 57,
                    "time": 38.59092123046874,
                    "velocity": 0.8818897637795275,
                    "duration": 0.37109337890624516
                },
                {
                    "name": "C#4",
                    "midi": 61,
                    "time": 38.948761274414046,
                    "velocity": 0.8818897637795275,
                    "duration": 0.3592351318359377
                },
                {
                    "name": "B5",
                    "midi": 83,
                    "time": 39.28567499999998,
                    "velocity": 0.9763779527559056,
                    "duration": 0.2525109082031207
                },
                {
                    "name": "E4",
                    "midi": 64,
                    "time": 39.29474307128905,
                    "velocity": 0.8818897637795275,
                    "duration": 0.3599326757812449
                },
                {
                    "name": "A5",
                    "midi": 81,
                    "time": 39.51167923828123,
                    "velocity": 0.9763779527559056,
                    "duration": 0.1499719482421824
                },
                {
                    "name": "A3",
                    "midi": 57,
                    "time": 39.64142241210936,
                    "velocity": 0.8818897637795275,
                    "duration": 0.37179092285153814
                },
                {
                    "name": "B5",
                    "midi": 83,
                    "time": 39.64560767578123,
                    "velocity": 0.9763779527559056,
                    "duration": 0.1499719482421824
                },
                {
                    "name": "A5",
                    "midi": 81,
                    "time": 39.779536113281225,
                    "velocity": 0.937007874015748,
                    "duration": 0.03906246093749388
                },
                {
                    "name": "G#5",
                    "midi": 80,
                    "time": 39.8172034863281,
                    "velocity": 0.9763779527559056,
                    "duration": 0.09835369628905255
                },
                {
                    "name": "A5",
                    "midi": 81,
                    "time": 39.90579156738278,
                    "velocity": 0.937007874015748,
                    "duration": 0.07812492187499487
                },
                {
                    "name": "B5",
                    "midi": 83,
                    "time": 39.99995999999996,
                    "velocity": 1,
                    "duration": 0.3564449560546876
                },
                {
                    "name": "E4",
                    "midi": 64,
                    "time": 39.99995999999996,
                    "velocity": 0.9291338582677166,
                    "duration": 0.3982975927734387
                },
                {
                    "name": "A5",
                    "midi": 81,
                    "time": 40.38500425781246,
                    "velocity": 1,
                    "duration": 0.3229628466796868
                },
                {
                    "name": "E3",
                    "midi": 52,
                    "time": 40.38500425781246,
                    "velocity": 0.9133858267716536,
                    "duration": 0.36481548339843783
                },
                {
                    "name": "G#5",
                    "midi": 80,
                    "time": 40.73656640624996,
                    "velocity": 0.9763779527559056,
                    "duration": 0.3229628466796868
                },
                {
                    "name": "E4",
                    "midi": 64,
                    "time": 40.73656640624996,
                    "velocity": 0.9763779527559056,
                    "duration": 2.1198360498046895
                },
                {
                    "name": "F#5",
                    "midi": 78,
                    "time": 41.088128554687465,
                    "velocity": 0.9763779527559056,
                    "duration": 0.331333374023437
                },
                {
                    "name": "E5",
                    "midi": 76,
                    "time": 41.44806123046872,
                    "velocity": 0.9763779527559056,
                    "duration": 0.3292407421875012
                },
                {
                    "name": "D5",
                    "midi": 74,
                    "time": 41.80590127441403,
                    "velocity": 0.9763779527559056,
                    "duration": 0.31738249511718664
                },
                {
                    "name": "D5",
                    "midi": 74,
                    "time": 42.14281499999997,
                    "velocity": 0.9763779527559056,
                    "duration": 0.094168432617181
                },
                {
                    "name": "C#5",
                    "midi": 73,
                    "time": 42.22721781738278,
                    "velocity": 0.9763779527559056,
                    "duration": 0.094168432617181
                },
                {
                    "name": "D5",
                    "midi": 74,
                    "time": 42.31162063476559,
                    "velocity": 0.9763779527559056,
                    "duration": 0.094168432617181
                },
                {
                    "name": "C#5",
                    "midi": 73,
                    "time": 42.3960234521484,
                    "velocity": 0.937007874015748,
                    "duration": 0.09626106445312388
                },
                {
                    "name": "B4",
                    "midi": 71,
                    "time": 42.49856241210934,
                    "velocity": 0.9763779527559056,
                    "duration": 0.3299382861328155
                },
                {
                    "name": "C#5",
                    "midi": 73,
                    "time": 42.85709999999997,
                    "velocity": 1,
                    "duration": 0.3564449560546876
                },
                {
                    "name": "E5",
                    "midi": 76,
                    "time": 43.24214425781247,
                    "velocity": 1,
                    "duration": 0.3229628466796868
                },
                {
                    "name": "A4",
                    "midi": 69,
                    "time": 43.59370640624997,
                    "velocity": 0.9763779527559056,
                    "duration": 0.3229628466796868
                },
                {
                    "name": "A3",
                    "midi": 57,
                    "time": 43.59370640624997,
                    "velocity": 0.9763779527559056,
                    "duration": 0.7107972802734395
                },
                {
                    "name": "C#5",
                    "midi": 73,
                    "time": 43.94526855468747,
                    "velocity": 0.9763779527559056,
                    "duration": 0.331333374023437
                },
                {
                    "name": "A3",
                    "midi": 57,
                    "time": 44.285669999999975,
                    "velocity": 0.9763779527559056,
                    "duration": 0.1702007226562472
                },
                {
                    "name": "B4",
                    "midi": 71,
                    "time": 44.305201230468725,
                    "velocity": 0.9763779527559056,
                    "duration": 0.3292407421874941
                },
                {
                    "name": "G#3",
                    "midi": 56,
                    "time": 44.4377345800781,
                    "velocity": 0.9763779527559056,
                    "duration": 0.1702007226562472
                },
                {
                    "name": "A3",
                    "midi": 57,
                    "time": 44.589799160156225,
                    "velocity": 0.9763779527559056,
                    "duration": 0.1702007226562401
                },
                {
                    "name": "E5",
                    "midi": 76,
                    "time": 44.663041274414034,
                    "velocity": 0.9763779527559056,
                    "duration": 0.31738249511717953
                },
                {
                    "name": "G#3",
                    "midi": 56,
                    "time": 44.74186374023434,
                    "velocity": 0.937007874015748,
                    "duration": 0.23786248535155607
                },
                {
                    "name": "G#4",
                    "midi": 68,
                    "time": 45.00902307128903,
                    "velocity": 0.9763779527559056,
                    "duration": 0.31808003906250093
                },
                {
                    "name": "E3",
                    "midi": 52,
                    "time": 45.00902307128903,
                    "velocity": 0.9763779527559056,
                    "duration": 0.7045193847656321
                },
                {
                    "name": "B4",
                    "midi": 71,
                    "time": 45.355702412109345,
                    "velocity": 0.9763779527559056,
                    "duration": 0.3299382861328155
                },
                {
                    "name": "C#5",
                    "midi": 73,
                    "time": 45.714239999999975,
                    "velocity": 1,
                    "duration": 0.3564449560546876
                },
                {
                    "name": "A3",
                    "midi": 57,
                    "time": 45.714239999999975,
                    "velocity": 0.9763779527559056,
                    "duration": 0.7714836035156267
                },
                {
                    "name": "E5",
                    "midi": 76,
                    "time": 46.09928425781248,
                    "velocity": 1,
                    "duration": 0.3229628466796868
                },
                {
                    "name": "A3",
                    "midi": 57,
                    "time": 46.42852499999998,
                    "velocity": 0.9763779527559056,
                    "duration": 0.17159581054686868
                },
                {
                    "name": "B4",
                    "midi": 71,
                    "time": 46.45084640624998,
                    "velocity": 0.9763779527559056,
                    "duration": 0.32296284667967967
                },
                {
                    "name": "G#3",
                    "midi": 56,
                    "time": 46.581984667968726,
                    "velocity": 0.9763779527559056,
                    "duration": 0.17159581054686868
                },
                {
                    "name": "A3",
                    "midi": 57,
                    "time": 46.73544433593747,
                    "velocity": 0.9763779527559056,
                    "duration": 0.17159581054687578
                },
                {
                    "name": "E5",
                    "midi": 76,
                    "time": 46.802408554687474,
                    "velocity": 0.9763779527559056,
                    "duration": 0.331333374023437
                },
                {
                    "name": "G#3",
                    "midi": 56,
                    "time": 46.88890400390623,
                    "velocity": 0.937007874015748,
                    "duration": 0.23367722167968452
                },
                {
                    "name": "A4",
                    "midi": 69,
                    "time": 47.162341230468726,
                    "velocity": 0.9763779527559056,
                    "duration": 0.3292407421875012
                },
                {
                    "name": "F#3",
                    "midi": 54,
                    "time": 47.162341230468726,
                    "velocity": 0.9763779527559056,
                    "duration": 1.4083412255859429
                },
                {
                    "name": "C#5",
                    "midi": 73,
                    "time": 47.52018127441404,
                    "velocity": 0.9763779527559056,
                    "duration": 0.31738249511718664
                },
                {
                    "name": "C#5",
                    "midi": 73,
                    "time": 47.85709499999998,
                    "velocity": 0.9763779527559056,
                    "duration": 0.0941684326171881
                },
                {
                    "name": "A3",
                    "midi": 57,
                    "time": 47.866163071289044,
                    "velocity": 0.9763779527559056,
                    "duration": 0.704519384765625
                },
                {
                    "name": "B4",
                    "midi": 71,
                    "time": 47.941497817382796,
                    "velocity": 0.9763779527559056,
                    "duration": 0.094168432617181
                },
                {
                    "name": "C#5",
                    "midi": 73,
                    "time": 48.025900634765605,
                    "velocity": 0.9763779527559056,
                    "duration": 0.094168432617181
                },
                {
                    "name": "B4",
                    "midi": 71,
                    "time": 48.110303452148415,
                    "velocity": 0.937007874015748,
                    "duration": 0.09626106445312388
                },
                {
                    "name": "A4",
                    "midi": 69,
                    "time": 48.21284241210935,
                    "velocity": 0.9763779527559056,
                    "duration": 0.3299382861328155
                },
                {
                    "name": "B4",
                    "midi": 71,
                    "time": 48.571379999999984,
                    "velocity": 1,
                    "duration": 0.3564449560546876
                },
                {
                    "name": "G#3",
                    "midi": 56,
                    "time": 48.571379999999984,
                    "velocity": 1,
                    "duration": 1.4474036865234439
                },
                {
                    "name": "E3",
                    "midi": 52,
                    "time": 48.571379999999984,
                    "velocity": 1,
                    "duration": 2.856442456054694
                },
                {
                    "name": "A4",
                    "midi": 69,
                    "time": 48.956424257812486,
                    "velocity": 1,
                    "duration": 0.3229628466796868
                },
                {
                    "name": "G#4",
                    "midi": 68,
                    "time": 49.30798640624999,
                    "velocity": 0.9763779527559056,
                    "duration": 0.3229628466796868
                },
                {
                    "name": "F#4",
                    "midi": 66,
                    "time": 49.65954855468749,
                    "velocity": 0.9763779527559056,
                    "duration": 0.331333374023437
                },
                {
                    "name": "E4",
                    "midi": 64,
                    "time": 50.01948123046874,
                    "velocity": 0.9763779527559056,
                    "duration": 0.3292407421875012
                },
                {
                    "name": "E2",
                    "midi": 40,
                    "time": 50.01948123046874,
                    "velocity": 0.968503937007874,
                    "duration": 1.4083412255859358
                },
                {
                    "name": "D4",
                    "midi": 62,
                    "time": 50.37732127441406,
                    "velocity": 0.9763779527559056,
                    "duration": 0.31738249511718664
                },
                {
                    "name": "D4",
                    "midi": 62,
                    "time": 50.714234999999995,
                    "velocity": 0.9763779527559056,
                    "duration": 0.094168432617181
                },
                {
                    "name": "C#4",
                    "midi": 61,
                    "time": 50.798637817382804,
                    "velocity": 0.9763779527559056,
                    "duration": 0.094168432617181
                },
                {
                    "name": "D4",
                    "midi": 62,
                    "time": 50.883040634765614,
                    "velocity": 0.9763779527559056,
                    "duration": 0.094168432617181
                },
                {
                    "name": "C#4",
                    "midi": 61,
                    "time": 50.96744345214842,
                    "velocity": 0.937007874015748,
                    "duration": 0.09626106445312388
                },
                {
                    "name": "B3",
                    "midi": 59,
                    "time": 51.06998241210936,
                    "velocity": 0.9763779527559056,
                    "duration": 0.3299382861328155
                },
                {
                    "name": "A3",
                    "midi": 57,
                    "time": 51.42851999999999,
                    "velocity": 1,
                    "duration": 0.3564449560546876
                },
                {
                    "name": "A1",
                    "midi": 33,
                    "time": 51.42851999999999,
                    "velocity": 0.8740157480314961,
                    "duration": 2.856442456054708
                },
                {
                    "name": "A2",
                    "midi": 45,
                    "time": 51.42851999999999,
                    "velocity": 1,
                    "duration": 2.856442456054708
                },
                {
                    "name": "B3",
                    "midi": 59,
                    "time": 51.813564257812494,
                    "velocity": 1,
                    "duration": 0.3229628466796868
                },
                {
                    "name": "C#4",
                    "midi": 61,
                    "time": 52.165126406249996,
                    "velocity": 0.9763779527559056,
                    "duration": 0.3229628466796868
                },
                {
                    "name": "E4",
                    "midi": 64,
                    "time": 52.5166885546875,
                    "velocity": 0.9763779527559056,
                    "duration": 0.331333374023437
                },
                {
                    "name": "A4",
                    "midi": 69,
                    "time": 52.87662123046875,
                    "velocity": 0.9763779527559056,
                    "duration": 0.3292407421875012
                },
                {
                    "name": "C#5",
                    "midi": 73,
                    "time": 53.234461274414066,
                    "velocity": 0.9763779527559056,
                    "duration": 0.31738249511718664
                },
                {
                    "name": "E5",
                    "midi": 76,
                    "time": 53.58044307128907,
                    "velocity": 0.9763779527559056,
                    "duration": 0.31808003906250093
                },
                {
                    "name": "A4",
                    "midi": 69,
                    "time": 53.927122412109384,
                    "velocity": 0.9763779527559056,
                    "duration": 0.3299382861328155
                },
                {
                    "name": "A5",
                    "midi": 81,
                    "time": 54.285660000000014,
                    "velocity": 1,
                    "duration": 0.3564449560546876
                },
                {
                    "name": "A2",
                    "midi": 45,
                    "time": 54.285660000000014,
                    "velocity": 0.9291338582677166,
                    "duration": 0.3982975927734387
                },
                {
                    "name": "A4",
                    "midi": 69,
                    "time": 54.67070425781252,
                    "velocity": 1,
                    "duration": 0.3229628466796868
                },
                {
                    "name": "B2",
                    "midi": 47,
                    "time": 54.67070425781252,
                    "velocity": 0.9133858267716536,
                    "duration": 0.36481548339843783
                },
                {
                    "name": "A5",
                    "midi": 81,
                    "time": 55.02226640625002,
                    "velocity": 0.9763779527559056,
                    "duration": 1.4055510498046857
                },
                {
                    "name": "C#3",
                    "midi": 49,
                    "time": 55.02226640625002,
                    "velocity": 0.8818897637795275,
                    "duration": 0.36481548339843783
                },
                {
                    "name": "E3",
                    "midi": 52,
                    "time": 55.37382855468752,
                    "velocity": 0.8818897637795275,
                    "duration": 0.37318601074218805
                },
                {
                    "name": "A3",
                    "midi": 57,
                    "time": 55.73376123046877,
                    "velocity": 0.8818897637795275,
                    "duration": 0.37109337890624516
                },
                {
                    "name": "C#4",
                    "midi": 61,
                    "time": 56.09160127441408,
                    "velocity": 0.8818897637795275,
                    "duration": 0.3592351318359377
                },
                {
                    "name": "B5",
                    "midi": 83,
                    "time": 56.42851500000002,
                    "velocity": 0.9763779527559056,
                    "duration": 0.2573937158203137
                },
                {
                    "name": "E4",
                    "midi": 64,
                    "time": 56.43758307128908,
                    "velocity": 0.8818897637795275,
                    "duration": 0.3599326757812449
                },
                {
                    "name": "A5",
                    "midi": 81,
                    "time": 56.658704501953146,
                    "velocity": 0.9763779527559056,
                    "duration": 0.1499719482421824
                },
                {
                    "name": "A3",
                    "midi": 57,
                    "time": 56.78426241210939,
                    "velocity": 0.8818897637795275,
                    "duration": 0.37179092285154525
                },
                {
                    "name": "B5",
                    "midi": 83,
                    "time": 56.79263293945314,
                    "velocity": 0.9763779527559056,
                    "duration": 0.1499719482421824
                },
                {
                    "name": "A5",
                    "midi": 81,
                    "time": 56.92656137695314,
                    "velocity": 0.937007874015748,
                    "duration": 0.03487719726562233
                },
                {
                    "name": "G#5",
                    "midi": 80,
                    "time": 56.96004348632814,
                    "velocity": 0.9763779527559056,
                    "duration": 0.09835369628905255
                },
                {
                    "name": "A5",
                    "midi": 81,
                    "time": 57.04863156738282,
                    "velocity": 0.937007874015748,
                    "duration": 0.07812492187499487
                },
                {
                    "name": "B5",
                    "midi": 83,
                    "time": 57.1428,
                    "velocity": 1,
                    "duration": 0.3564449560546876
                },
                {
                    "name": "E4",
                    "midi": 64,
                    "time": 57.1428,
                    "velocity": 0.9291338582677166,
                    "duration": 0.3982975927734387
                },
                {
                    "name": "A5",
                    "midi": 81,
                    "time": 57.527844257812504,
                    "velocity": 1,
                    "duration": 0.3229628466796868
                },
                {
                    "name": "E3",
                    "midi": 52,
                    "time": 57.527844257812504,
                    "velocity": 0.9133858267716536,
                    "duration": 0.36481548339843783
                },
                {
                    "name": "G#5",
                    "midi": 80,
                    "time": 57.879406406250006,
                    "velocity": 0.9763779527559056,
                    "duration": 0.3229628466796868
                },
                {
                    "name": "E4",
                    "midi": 64,
                    "time": 57.879406406250006,
                    "velocity": 0.9763779527559056,
                    "duration": 2.1198360498046895
                },
                {
                    "name": "F#5",
                    "midi": 78,
                    "time": 58.23096855468751,
                    "velocity": 0.9763779527559056,
                    "duration": 0.331333374023437
                },
                {
                    "name": "E5",
                    "midi": 76,
                    "time": 58.59090123046876,
                    "velocity": 0.9763779527559056,
                    "duration": 0.3292407421875012
                },
                {
                    "name": "D5",
                    "midi": 74,
                    "time": 58.948741274414076,
                    "velocity": 0.9763779527559056,
                    "duration": 0.31738249511718664
                },
                {
                    "name": "D5",
                    "midi": 74,
                    "time": 59.28565500000001,
                    "velocity": 0.9763779527559056,
                    "duration": 0.094168432617181
                },
                {
                    "name": "C#5",
                    "midi": 73,
                    "time": 59.37005781738282,
                    "velocity": 0.9763779527559056,
                    "duration": 0.094168432617181
                },
                {
                    "name": "D5",
                    "midi": 74,
                    "time": 59.45446063476563,
                    "velocity": 0.9763779527559056,
                    "duration": 0.094168432617181
                },
                {
                    "name": "C#5",
                    "midi": 73,
                    "time": 59.53886345214844,
                    "velocity": 0.937007874015748,
                    "duration": 0.09626106445312388
                },
                {
                    "name": "B4",
                    "midi": 71,
                    "time": 59.64140241210938,
                    "velocity": 0.9763779527559056,
                    "duration": 0.3299382861328155
                },
                {
                    "name": "C#5",
                    "midi": 73,
                    "time": 59.99994000000001,
                    "velocity": 1,
                    "duration": 0.3564449560546876
                },
                {
                    "name": "E5",
                    "midi": 76,
                    "time": 60.38498425781251,
                    "velocity": 1,
                    "duration": 0.3229628466796868
                },
                {
                    "name": "A4",
                    "midi": 69,
                    "time": 60.736546406250014,
                    "velocity": 0.9763779527559056,
                    "duration": 0.3229628466796868
                },
                {
                    "name": "A3",
                    "midi": 57,
                    "time": 60.736546406250014,
                    "velocity": 0.9763779527559056,
                    "duration": 0.7107972802734395
                },
                {
                    "name": "C#5",
                    "midi": 73,
                    "time": 61.088108554687516,
                    "velocity": 0.9763779527559056,
                    "duration": 0.331333374023437
                },
                {
                    "name": "A3",
                    "midi": 57,
                    "time": 61.42851000000002,
                    "velocity": 0.9763779527559056,
                    "duration": 0.17229335449218297
                },
                {
                    "name": "B4",
                    "midi": 71,
                    "time": 61.44804123046877,
                    "velocity": 0.9763779527559056,
                    "duration": 0.3292407421874941
                },
                {
                    "name": "G#3",
                    "midi": 56,
                    "time": 61.58266721191408,
                    "velocity": 0.9763779527559056,
                    "duration": 0.17229335449218297
                },
                {
                    "name": "A3",
                    "midi": 57,
                    "time": 61.73682442382814,
                    "velocity": 0.9763779527559056,
                    "duration": 0.17229335449218297
                },
                {
                    "name": "E5",
                    "midi": 76,
                    "time": 61.80588127441408,
                    "velocity": 0.9763779527559056,
                    "duration": 0.31738249511717953
                },
                {
                    "name": "G#3",
                    "midi": 56,
                    "time": 61.8909816357422,
                    "velocity": 0.937007874015748,
                    "duration": 0.23228213378905593
                },
                {
                    "name": "G#4",
                    "midi": 68,
                    "time": 62.15186307128907,
                    "velocity": 0.9763779527559056,
                    "duration": 0.31808003906250093
                },
                {
                    "name": "E3",
                    "midi": 52,
                    "time": 62.15186307128907,
                    "velocity": 0.9763779527559056,
                    "duration": 0.7045193847656321
                },
                {
                    "name": "B4",
                    "midi": 71,
                    "time": 62.49854241210939,
                    "velocity": 0.9763779527559056,
                    "duration": 0.3299382861328155
                },
                {
                    "name": "C#5",
                    "midi": 73,
                    "time": 62.85708000000002,
                    "velocity": 1,
                    "duration": 0.3564449560546876
                },
                {
                    "name": "A3",
                    "midi": 57,
                    "time": 62.85708000000002,
                    "velocity": 1,
                    "duration": 0.7359088623046901
                },
                {
                    "name": "E5",
                    "midi": 76,
                    "time": 63.24212425781252,
                    "velocity": 1,
                    "duration": 0.3229628466796868
                },
                {
                    "name": "A4",
                    "midi": 69,
                    "time": 63.59368640625002,
                    "velocity": 0.9763779527559056,
                    "duration": 0.3229628466796868
                },
                {
                    "name": "C#3",
                    "midi": 49,
                    "time": 63.59368640625002,
                    "velocity": 0.9763779527559056,
                    "duration": 0.7107972802734466
                },
                {
                    "name": "C#5",
                    "midi": 73,
                    "time": 63.945248554687524,
                    "velocity": 0.9763779527559056,
                    "duration": 0.3313333740234441
                },
                {
                    "name": "B4",
                    "midi": 71,
                    "time": 64.30518123046878,
                    "velocity": 0.9763779527559056,
                    "duration": 0.3292407421874941
                },
                {
                    "name": "D3",
                    "midi": 50,
                    "time": 64.30518123046878,
                    "velocity": 0.9763779527559056,
                    "duration": 0.7031242968749893
                },
                {
                    "name": "E5",
                    "midi": 76,
                    "time": 64.66302127441408,
                    "velocity": 0.9763779527559056,
                    "duration": 0.31738249511718664
                },
                {
                    "name": "G#4",
                    "midi": 68,
                    "time": 65.00900307128907,
                    "velocity": 0.9763779527559056,
                    "duration": 0.3180800390624938
                },
                {
                    "name": "E3",
                    "midi": 52,
                    "time": 65.00900307128907,
                    "velocity": 0.9763779527559056,
                    "duration": 0.7045193847656179
                },
                {
                    "name": "B4",
                    "midi": 71,
                    "time": 65.35568241210937,
                    "velocity": 0.9763779527559056,
                    "duration": 0.3299382861328155
                },
                {
                    "name": "A4",
                    "midi": 69,
                    "time": 65.71422,
                    "velocity": 0.9763779527559056,
                    "duration": 2.8564424560546513
                },
                {
                    "name": "A2",
                    "midi": 45,
                    "time": 65.71422,
                    "velocity": 1,
                    "duration": 0.3564449560546876
                },
                {
                    "name": "B2",
                    "midi": 47,
                    "time": 66.0992642578125,
                    "velocity": 1,
                    "duration": 0.3229628466796868
                },
                {
                    "name": "C#3",
                    "midi": 49,
                    "time": 66.45082640624999,
                    "velocity": 0.9763779527559056,
                    "duration": 0.3229628466796868
                },
                {
                    "name": "E3",
                    "midi": 52,
                    "time": 66.80238855468748,
                    "velocity": 0.9763779527559056,
                    "duration": 0.3313333740234441
                },
                {
                    "name": "A3",
                    "midi": 57,
                    "time": 67.16232123046873,
                    "velocity": 0.9763779527559056,
                    "duration": 0.3292407421874941
                },
                {
                    "name": "E3",
                    "midi": 52,
                    "time": 67.52016127441404,
                    "velocity": 0.9763779527559056,
                    "duration": 0.31738249511718664
                },
                {
                    "name": "C#3",
                    "midi": 49,
                    "time": 67.86614307128903,
                    "velocity": 0.9763779527559056,
                    "duration": 0.3180800390624938
                },
                {
                    "name": "A2",
                    "midi": 45,
                    "time": 68.21282241210933,
                    "velocity": 0.9763779527559056,
                    "duration": 3.214980043945289
                },
                {
                    "name": "A4",
                    "midi": 69,
                    "time": 68.57135999999996,
                    "velocity": 1,
                    "duration": 0.3564449560546876
                },
                {
                    "name": "A1",
                    "midi": 33,
                    "time": 68.57135999999996,
                    "velocity": 0.8740157480314961,
                    "duration": 2.8564424560546655
                },
                {
                    "name": "B4",
                    "midi": 71,
                    "time": 68.95640425781245,
                    "velocity": 1,
                    "duration": 0.3229628466796868
                },
                {
                    "name": "C#5",
                    "midi": 73,
                    "time": 69.30796640624995,
                    "velocity": 0.9763779527559056,
                    "duration": 0.3229628466796868
                },
                {
                    "name": "D5",
                    "midi": 74,
                    "time": 69.65952855468744,
                    "velocity": 0.9763779527559056,
                    "duration": 0.3313333740234441
                },
                {
                    "name": "E5",
                    "midi": 76,
                    "time": 70.01946123046869,
                    "velocity": 0.9763779527559056,
                    "duration": 0.3292407421874941
                },
                {
                    "name": "C#5",
                    "midi": 73,
                    "time": 70.377301274414,
                    "velocity": 0.9763779527559056,
                    "duration": 0.31738249511718664
                },
                {
                    "name": "A5",
                    "midi": 81,
                    "time": 70.72328307128899,
                    "velocity": 0.9763779527559056,
                    "duration": 0.7045193847656321
                },
                {
                    "name": "C#5",
                    "midi": 73,
                    "time": 71.0699624121093,
                    "velocity": 0.9763779527559056,
                    "duration": 0.3299382861328155
                },
                {
                    "name": "A5",
                    "midi": 81,
                    "time": 71.42849999999993,
                    "velocity": 0.9763779527559056,
                    "duration": 0.7714836035156196
                },
                {
                    "name": "C#5",
                    "midi": 73,
                    "time": 71.42849999999993,
                    "velocity": 0.9763779527559056,
                    "duration": 0.7714836035156196
                },
                {
                    "name": "E3",
                    "midi": 52,
                    "time": 71.42849999999993,
                    "velocity": 1,
                    "duration": 0.3564449560546876
                },
                {
                    "name": "F#3",
                    "midi": 54,
                    "time": 71.81354425781242,
                    "velocity": 1,
                    "duration": 0.3229628466796868
                },
                {
                    "name": "G#5",
                    "midi": 80,
                    "time": 72.16510640624992,
                    "velocity": 0.937007874015748,
                    "duration": 1.414619121093736
                },
                {
                    "name": "B4",
                    "midi": 71,
                    "time": 72.16510640624992,
                    "velocity": 0.937007874015748,
                    "duration": 1.414619121093736
                },
                {
                    "name": "G#3",
                    "midi": 56,
                    "time": 72.16510640624992,
                    "velocity": 0.9763779527559056,
                    "duration": 0.3229628466796868
                },
                {
                    "name": "B3",
                    "midi": 59,
                    "time": 72.51666855468741,
                    "velocity": 0.9763779527559056,
                    "duration": 0.3313333740234441
                },
                {
                    "name": "E4",
                    "midi": 64,
                    "time": 72.87660123046867,
                    "velocity": 0.9763779527559056,
                    "duration": 0.3292407421874941
                },
                {
                    "name": "G#4",
                    "midi": 68,
                    "time": 73.23444127441397,
                    "velocity": 0.9763779527559056,
                    "duration": 0.31738249511718664
                },
                {
                    "name": "G#5",
                    "midi": 80,
                    "time": 73.58042307128896,
                    "velocity": 0.9763779527559056,
                    "duration": 0.7045193847656179
                },
                {
                    "name": "B4",
                    "midi": 71,
                    "time": 73.58042307128896,
                    "velocity": 0.9763779527559056,
                    "duration": 0.7045193847656179
                },
                {
                    "name": "E4",
                    "midi": 64,
                    "time": 73.58042307128896,
                    "velocity": 0.9763779527559056,
                    "duration": 0.3180800390624938
                },
                {
                    "name": "E3",
                    "midi": 52,
                    "time": 73.92710241210926,
                    "velocity": 0.9763779527559056,
                    "duration": 0.3299382861328155
                },
                {
                    "name": "G#5",
                    "midi": 80,
                    "time": 74.28563999999989,
                    "velocity": 0.9763779527559056,
                    "duration": 0.7714836035156196
                },
                {
                    "name": "B4",
                    "midi": 71,
                    "time": 74.28563999999989,
                    "velocity": 0.9763779527559056,
                    "duration": 0.7714836035156196
                },
                {
                    "name": "F#3",
                    "midi": 54,
                    "time": 74.28563999999989,
                    "velocity": 1,
                    "duration": 0.3564449560546876
                },
                {
                    "name": "G#3",
                    "midi": 56,
                    "time": 74.67068425781238,
                    "velocity": 1,
                    "duration": 0.3229628466796868
                },
                {
                    "name": "F#5",
                    "midi": 78,
                    "time": 75.02224640624988,
                    "velocity": 0.937007874015748,
                    "duration": 1.414619121093736
                },
                {
                    "name": "A4",
                    "midi": 69,
                    "time": 75.02224640624988,
                    "velocity": 0.937007874015748,
                    "duration": 1.414619121093736
                },
                {
                    "name": "A3",
                    "midi": 57,
                    "time": 75.02224640624988,
                    "velocity": 0.9763779527559056,
                    "duration": 0.3229628466796868
                },
                {
                    "name": "G#3",
                    "midi": 56,
                    "time": 75.37380855468737,
                    "velocity": 0.9763779527559056,
                    "duration": 0.3313333740234441
                },
                {
                    "name": "F#3",
                    "midi": 54,
                    "time": 75.73374123046862,
                    "velocity": 0.9763779527559056,
                    "duration": 0.3292407421874941
                },
                {
                    "name": "E3",
                    "midi": 52,
                    "time": 76.09158127441393,
                    "velocity": 0.9763779527559056,
                    "duration": 0.31738249511718664
                },
                {
                    "name": "E5",
                    "midi": 76,
                    "time": 76.43756307128892,
                    "velocity": 0.9763779527559056,
                    "duration": 0.7045193847656179
                },
                {
                    "name": "G#4",
                    "midi": 68,
                    "time": 76.43756307128892,
                    "velocity": 0.9763779527559056,
                    "duration": 0.7045193847656179
                },
                {
                    "name": "D#3",
                    "midi": 51,
                    "time": 76.43756307128892,
                    "velocity": 0.9763779527559056,
                    "duration": 0.3180800390624938
                },
                {
                    "name": "E3",
                    "midi": 52,
                    "time": 76.78424241210922,
                    "velocity": 0.9763779527559056,
                    "duration": 0.3299382861328155
                },
                {
                    "name": "E5",
                    "midi": 76,
                    "time": 77.14277999999985,
                    "velocity": 1,
                    "duration": 0.17438598632813296
                },
                {
                    "name": "F#4",
                    "midi": 66,
                    "time": 77.14277999999985,
                    "velocity": 1,
                    "duration": 0.7359088623046972
                },
                {
                    "name": "B2",
                    "midi": 47,
                    "time": 77.14277999999985,
                    "velocity": 1,
                    "duration": 0.35644495605470183
                },
                {
                    "name": "D#5",
                    "midi": 75,
                    "time": 77.29902984374985,
                    "velocity": 0.9763779527559056,
                    "duration": 0.17438598632813296
                },
                {
                    "name": "E5",
                    "midi": 76,
                    "time": 77.45527968749985,
                    "velocity": 0.9763779527559056,
                    "duration": 0.17438598632813296
                },
                {
                    "name": "C#3",
                    "midi": 49,
                    "time": 77.52782425781236,
                    "velocity": 1,
                    "duration": 0.3229628466796868
                },
                {
                    "name": "D#5",
                    "midi": 75,
                    "time": 77.61152953124986,
                    "velocity": 0.937007874015748,
                    "duration": 2.388390468749961
                },
                {
                    "name": "D#3",
                    "midi": 51,
                    "time": 77.87938640624985,
                    "velocity": 0.9763779527559056,
                    "duration": 0.3229628466796868
                },
                {
                    "name": "F#3",
                    "midi": 54,
                    "time": 78.23094855468734,
                    "velocity": 0.9763779527559056,
                    "duration": 0.3313333740234441
                },
                {
                    "name": "B3",
                    "midi": 59,
                    "time": 78.5908812304686,
                    "velocity": 0.9763779527559056,
                    "duration": 0.3292407421874941
                },
                {
                    "name": "F#3",
                    "midi": 54,
                    "time": 78.9487212744139,
                    "velocity": 0.9763779527559056,
                    "duration": 0.31738249511718664
                },
                {
                    "name": "D#3",
                    "midi": 51,
                    "time": 79.2947030712889,
                    "velocity": 0.9763779527559056,
                    "duration": 0.3180800390624938
                },
                {
                    "name": "B2",
                    "midi": 47,
                    "time": 79.6413824121092,
                    "velocity": 0.9763779527559056,
                    "duration": 0.3299382861328155
                },
                {
                    "name": "E4",
                    "midi": 64,
                    "time": 79.99991999999982,
                    "velocity": 0.9291338582677166,
                    "duration": 0.3982975927734316
                },
                {
                    "name": "G#2",
                    "midi": 44,
                    "time": 79.99991999999982,
                    "velocity": 0.9921259842519685,
                    "duration": 2.8564424560546797
                },
                {
                    "name": "B2",
                    "midi": 47,
                    "time": 79.99991999999982,
                    "velocity": 0.9921259842519685,
                    "duration": 2.8564424560546797
                },
                {
                    "name": "E3",
                    "midi": 52,
                    "time": 79.99991999999982,
                    "velocity": 0.9606299212598425,
                    "duration": 2.8564424560546797
                },
                {
                    "name": "F#4",
                    "midi": 66,
                    "time": 80.38496425781231,
                    "velocity": 0.9133858267716536,
                    "duration": 0.36481548339843073
                },
                {
                    "name": "G#4",
                    "midi": 68,
                    "time": 80.73652640624981,
                    "velocity": 0.8818897637795275,
                    "duration": 0.36481548339843073
                },
                {
                    "name": "B4",
                    "midi": 71,
                    "time": 81.0880885546873,
                    "velocity": 0.8818897637795275,
                    "duration": 0.37318601074218805
                },
                {
                    "name": "E5",
                    "midi": 76,
                    "time": 81.44802123046856,
                    "velocity": 0.8818897637795275,
                    "duration": 0.37109337890625227
                },
                {
                    "name": "G#5",
                    "midi": 80,
                    "time": 81.80586127441387,
                    "velocity": 0.8818897637795275,
                    "duration": 0.3592351318359306
                },
                {
                    "name": "B5",
                    "midi": 83,
                    "time": 82.15184307128887,
                    "velocity": 0.8818897637795275,
                    "duration": 0.359932675781252
                },
                {
                    "name": "E5",
                    "midi": 76,
                    "time": 82.49852241210918,
                    "velocity": 0.8818897637795275,
                    "duration": 0.37179092285155946
                },
                {
                    "name": "E4",
                    "midi": 64,
                    "time": 82.8570599999998,
                    "velocity": 0.9291338582677166,
                    "duration": 0.3982975927734316
                },
                {
                    "name": "A2",
                    "midi": 45,
                    "time": 82.8570599999998,
                    "velocity": 0.9921259842519685,
                    "duration": 2.8564424560546797
                },
                {
                    "name": "C#3",
                    "midi": 49,
                    "time": 82.8570599999998,
                    "velocity": 1,
                    "duration": 2.8564424560546797
                },
                {
                    "name": "E3",
                    "midi": 52,
                    "time": 82.8570599999998,
                    "velocity": 0.9606299212598425,
                    "duration": 2.8564424560546797
                },
                {
                    "name": "A4",
                    "midi": 69,
                    "time": 83.2421042578123,
                    "velocity": 0.9133858267716536,
                    "duration": 0.36481548339843073
                },
                {
                    "name": "C#5",
                    "midi": 73,
                    "time": 83.5936664062498,
                    "velocity": 0.8818897637795275,
                    "duration": 0.36481548339843073
                },
                {
                    "name": "A4",
                    "midi": 69,
                    "time": 83.94522855468729,
                    "velocity": 0.8818897637795275,
                    "duration": 0.37318601074218805
                },
                {
                    "name": "E5",
                    "midi": 76,
                    "time": 84.30516123046854,
                    "velocity": 0.8818897637795275,
                    "duration": 0.37109337890625227
                },
                {
                    "name": "C#5",
                    "midi": 73,
                    "time": 84.66300127441386,
                    "velocity": 0.8818897637795275,
                    "duration": 0.3592351318359306
                },
                {
                    "name": "A5",
                    "midi": 81,
                    "time": 85.00898307128885,
                    "velocity": 0.8818897637795275,
                    "duration": 0.359932675781252
                },
                {
                    "name": "C#5",
                    "midi": 73,
                    "time": 85.35566241210917,
                    "velocity": 0.8818897637795275,
                    "duration": 0.37179092285155946
                },
                {
                    "name": "E4",
                    "midi": 64,
                    "time": 85.71419999999979,
                    "velocity": 0.9291338582677166,
                    "duration": 0.3982975927734316
                },
                {
                    "name": "G#2",
                    "midi": 44,
                    "time": 85.71419999999979,
                    "velocity": 0.9921259842519685,
                    "duration": 2.8564424560546797
                },
                {
                    "name": "B2",
                    "midi": 47,
                    "time": 85.71419999999979,
                    "velocity": 0.9921259842519685,
                    "duration": 2.8564424560546797
                },
                {
                    "name": "E3",
                    "midi": 52,
                    "time": 85.71419999999979,
                    "velocity": 0.9606299212598425,
                    "duration": 2.8564424560546797
                },
                {
                    "name": "F#4",
                    "midi": 66,
                    "time": 86.09924425781229,
                    "velocity": 0.9133858267716536,
                    "duration": 0.36481548339843073
                },
                {
                    "name": "G#4",
                    "midi": 68,
                    "time": 86.45080640624978,
                    "velocity": 0.8818897637795275,
                    "duration": 0.36481548339843073
                },
                {
                    "name": "B4",
                    "midi": 71,
                    "time": 86.80236855468728,
                    "velocity": 0.8818897637795275,
                    "duration": 0.37318601074218805
                },
                {
                    "name": "E5",
                    "midi": 76,
                    "time": 87.16230123046853,
                    "velocity": 0.8818897637795275,
                    "duration": 0.37109337890625227
                },
                {
                    "name": "G#5",
                    "midi": 80,
                    "time": 87.52014127441385,
                    "velocity": 0.8818897637795275,
                    "duration": 0.3592351318359306
                },
                {
                    "name": "B5",
                    "midi": 83,
                    "time": 87.86612307128884,
                    "velocity": 0.8818897637795275,
                    "duration": 0.359932675781252
                },
                {
                    "name": "E5",
                    "midi": 76,
                    "time": 88.21280241210916,
                    "velocity": 0.8818897637795275,
                    "duration": 0.37179092285155946
                },
                {
                    "name": "E4",
                    "midi": 64,
                    "time": 88.57133999999978,
                    "velocity": 0.9291338582677166,
                    "duration": 0.3982975927734316
                },
                {
                    "name": "A2",
                    "midi": 45,
                    "time": 88.57133999999978,
                    "velocity": 0.9921259842519685,
                    "duration": 2.8564424560546797
                },
                {
                    "name": "C#3",
                    "midi": 49,
                    "time": 88.57133999999978,
                    "velocity": 1,
                    "duration": 2.8564424560546797
                },
                {
                    "name": "E3",
                    "midi": 52,
                    "time": 88.57133999999978,
                    "velocity": 0.9606299212598425,
                    "duration": 2.8564424560546797
                },
                {
                    "name": "A4",
                    "midi": 69,
                    "time": 88.95638425781227,
                    "velocity": 0.9133858267716536,
                    "duration": 0.36481548339843073
                },
                {
                    "name": "C#5",
                    "midi": 73,
                    "time": 89.30794640624977,
                    "velocity": 0.8818897637795275,
                    "duration": 0.36481548339843073
                },
                {
                    "name": "A4",
                    "midi": 69,
                    "time": 89.65950855468726,
                    "velocity": 0.8818897637795275,
                    "duration": 0.37318601074218805
                },
                {
                    "name": "E5",
                    "midi": 76,
                    "time": 90.01944123046852,
                    "velocity": 0.8818897637795275,
                    "duration": 0.37109337890625227
                },
                {
                    "name": "C#5",
                    "midi": 73,
                    "time": 90.37728127441383,
                    "velocity": 0.8818897637795275,
                    "duration": 0.3592351318359306
                },
                {
                    "name": "A5",
                    "midi": 81,
                    "time": 90.72326307128883,
                    "velocity": 0.8818897637795275,
                    "duration": 0.359932675781252
                },
                {
                    "name": "C#5",
                    "midi": 73,
                    "time": 91.06994241210914,
                    "velocity": 0.8818897637795275,
                    "duration": 0.37179092285155946
                },
                {
                    "name": "E4",
                    "midi": 64,
                    "time": 91.42847999999977,
                    "velocity": 0.9291338582677166,
                    "duration": 0.3982975927734316
                },
                {
                    "name": "G#2",
                    "midi": 44,
                    "time": 91.42847999999977,
                    "velocity": 0.9921259842519685,
                    "duration": 2.8564424560546797
                },
                {
                    "name": "B2",
                    "midi": 47,
                    "time": 91.42847999999977,
                    "velocity": 0.9921259842519685,
                    "duration": 2.8564424560546797
                },
                {
                    "name": "E3",
                    "midi": 52,
                    "time": 91.42847999999977,
                    "velocity": 0.9606299212598425,
                    "duration": 2.8564424560546797
                },
                {
                    "name": "F#4",
                    "midi": 66,
                    "time": 91.81352425781226,
                    "velocity": 0.9133858267716536,
                    "duration": 0.36481548339843073
                },
                {
                    "name": "G#4",
                    "midi": 68,
                    "time": 92.16508640624976,
                    "velocity": 0.8818897637795275,
                    "duration": 0.36481548339843073
                },
                {
                    "name": "B4",
                    "midi": 71,
                    "time": 92.51664855468725,
                    "velocity": 0.8818897637795275,
                    "duration": 0.37318601074218805
                },
                {
                    "name": "E5",
                    "midi": 76,
                    "time": 92.8765812304685,
                    "velocity": 0.8818897637795275,
                    "duration": 0.37109337890625227
                },
                {
                    "name": "G#5",
                    "midi": 80,
                    "time": 93.23442127441382,
                    "velocity": 0.8818897637795275,
                    "duration": 0.3592351318359306
                },
                {
                    "name": "B5",
                    "midi": 83,
                    "time": 93.58040307128881,
                    "velocity": 0.8818897637795275,
                    "duration": 0.359932675781252
                },
                {
                    "name": "E5",
                    "midi": 76,
                    "time": 93.92708241210913,
                    "velocity": 0.8818897637795275,
                    "duration": 0.37179092285155946
                },
                {
                    "name": "E5",
                    "midi": 76,
                    "time": 94.28561999999975,
                    "velocity": 1,
                    "duration": 0.1708982666015686
                },
                {
                    "name": "A4",
                    "midi": 69,
                    "time": 94.28561999999975,
                    "velocity": 1,
                    "duration": 0.7359088623046972
                },
                {
                    "name": "F#3",
                    "midi": 54,
                    "time": 94.28561999999975,
                    "velocity": 1,
                    "duration": 0.7359088623046972
                },
                {
                    "name": "F#2",
                    "midi": 42,
                    "time": 94.28561999999975,
                    "velocity": 1,
                    "duration": 0.7359088623046972
                },
                {
                    "name": "D#5",
                    "midi": 75,
                    "time": 94.43838212402319,
                    "velocity": 0.9763779527559056,
                    "duration": 0.1708982666015686
                },
                {
                    "name": "E5",
                    "midi": 76,
                    "time": 94.59114424804663,
                    "velocity": 0.9763779527559056,
                    "duration": 0.1708982666015686
                },
                {
                    "name": "D#5",
                    "midi": 75,
                    "time": 94.74390637207007,
                    "velocity": 0.937007874015748,
                    "duration": 0.2357698535156345
                },
                {
                    "name": "E5",
                    "midi": 76,
                    "time": 95.02222640624976,
                    "velocity": 0.9763779527559056,
                    "duration": 0.7107972802734253
                },
                {
                    "name": "E3",
                    "midi": 52,
                    "time": 95.02222640624976,
                    "velocity": 0.9763779527559056,
                    "duration": 0.7107972802734253
                },
                {
                    "name": "E2",
                    "midi": 40,
                    "time": 95.02222640624976,
                    "velocity": 0.968503937007874,
                    "duration": 0.7107972802734253
                },
                {
                    "name": "G#4",
                    "midi": 68,
                    "time": 95.37378855468725,
                    "velocity": 0.9763779527559056,
                    "duration": 0.3118021435546865
                },
                {
                    "name": "G#4",
                    "midi": 68,
                    "time": 95.71418999999975,
                    "velocity": 0.9763779527559056,
                    "duration": 0.36272285156249495
                },
                {
                    "name": "E5",
                    "midi": 76,
                    "time": 95.73372123046849,
                    "velocity": 0.9763779527559056,
                    "duration": 0.7031242968750036
                },
                {
                    "name": "B2",
                    "midi": 47,
                    "time": 95.73372123046849,
                    "velocity": 0.9763779527559056,
                    "duration": 1.4083412255859287
                },
                {
                    "name": "F#4",
                    "midi": 66,
                    "time": 96.03854793457005,
                    "velocity": 0.937007874015748,
                    "duration": 0.3592351318359448
                },
                {
                    "name": "E5",
                    "midi": 76,
                    "time": 96.4375430712888,
                    "velocity": 0.9763779527559056,
                    "duration": 0.3180800390624938
                },
                {
                    "name": "A4",
                    "midi": 69,
                    "time": 96.4375430712888,
                    "velocity": 0.9763779527559056,
                    "duration": 0.7045193847656179
                },
                {
                    "name": "B1",
                    "midi": 35,
                    "time": 96.4375430712888,
                    "velocity": 0.952755905511811,
                    "duration": 0.7045193847656179
                },
                {
                    "name": "D#5",
                    "midi": 75,
                    "time": 96.7842224121091,
                    "velocity": 0.9763779527559056,
                    "duration": 0.3299382861328155
                },
                {
                    "name": "D#5",
                    "midi": 75,
                    "time": 97.14275999999973,
                    "velocity": 1,
                    "duration": 0.3564449560546876
                },
                {
                    "name": "E4",
                    "midi": 64,
                    "time": 97.14275999999973,
                    "velocity": 0.9133858267716536,
                    "duration": 2.8564424560546513
                },
                {
                    "name": "G#4",
                    "midi": 68,
                    "time": 97.14275999999973,
                    "velocity": 0.9133858267716536,
                    "duration": 2.8564424560546513
                },
                {
                    "name": "B4",
                    "midi": 71,
                    "time": 97.14275999999973,
                    "velocity": 1,
                    "duration": 2.8564424560546513
                },
                {
                    "name": "E2",
                    "midi": 40,
                    "time": 97.14275999999973,
                    "velocity": 1,
                    "duration": 0.3564449560546876
                },
                {
                    "name": "E5",
                    "midi": 76,
                    "time": 97.52780425781222,
                    "velocity": 1,
                    "duration": 2.471398198242156
                },
                {
                    "name": "F#2",
                    "midi": 42,
                    "time": 97.52780425781222,
                    "velocity": 0.9921259842519685,
                    "duration": 0.3229628466796868
                },
                {
                    "name": "G#2",
                    "midi": 44,
                    "time": 97.87936640624972,
                    "velocity": 0.9763779527559056,
                    "duration": 0.3229628466796868
                },
                {
                    "name": "B2",
                    "midi": 47,
                    "time": 98.23092855468721,
                    "velocity": 0.9763779527559056,
                    "duration": 0.3313333740234441
                },
                {
                    "name": "E3",
                    "midi": 52,
                    "time": 98.59086123046846,
                    "velocity": 0.9763779527559056,
                    "duration": 0.3292407421874941
                },
                {
                    "name": "B2",
                    "midi": 47,
                    "time": 98.94870127441376,
                    "velocity": 0.9763779527559056,
                    "duration": 0.31738249511718664
                },
                {
                    "name": "G#2",
                    "midi": 44,
                    "time": 99.29468307128876,
                    "velocity": 0.9763779527559056,
                    "duration": 0.3180800390624938
                },
                {
                    "name": "E2",
                    "midi": 40,
                    "time": 99.64136241210906,
                    "velocity": 0.968503937007874,
                    "duration": 0.3299382861328155
                },
                {
                    "name": "A3",
                    "midi": 57,
                    "time": 99.99989999999968,
                    "velocity": 0.9291338582677166,
                    "duration": 0.3982975927734316
                },
                {
                    "name": "A1",
                    "midi": 33,
                    "time": 99.99989999999968,
                    "velocity": 0.8740157480314961,
                    "duration": 2.8564424560546797
                },
                {
                    "name": "A2",
                    "midi": 45,
                    "time": 99.99989999999968,
                    "velocity": 1,
                    "duration": 2.8564424560546797
                },
                {
                    "name": "B3",
                    "midi": 59,
                    "time": 100.38494425781218,
                    "velocity": 0.9133858267716536,
                    "duration": 0.36481548339843073
                },
                {
                    "name": "C#4",
                    "midi": 61,
                    "time": 100.73650640624967,
                    "velocity": 0.8818897637795275,
                    "duration": 0.36481548339843073
                },
                {
                    "name": "E4",
                    "midi": 64,
                    "time": 101.08806855468717,
                    "velocity": 0.8818897637795275,
                    "duration": 0.37318601074218805
                },
                {
                    "name": "A4",
                    "midi": 69,
                    "time": 101.44800123046842,
                    "velocity": 0.8818897637795275,
                    "duration": 0.37109337890625227
                },
                {
                    "name": "C#5",
                    "midi": 73,
                    "time": 101.80584127441374,
                    "velocity": 0.8818897637795275,
                    "duration": 0.3592351318359306
                },
                {
                    "name": "E5",
                    "midi": 76,
                    "time": 102.15182307128873,
                    "velocity": 0.8818897637795275,
                    "duration": 0.359932675781252
                },
                {
                    "name": "A4",
                    "midi": 69,
                    "time": 102.49850241210905,
                    "velocity": 0.8818897637795275,
                    "duration": 0.37179092285155946
                },
                {
                    "name": "A5",
                    "midi": 81,
                    "time": 102.85703999999967,
                    "velocity": 0.9291338582677166,
                    "duration": 0.3982975927734316
                },
                {
                    "name": "A2",
                    "midi": 45,
                    "time": 102.85703999999967,
                    "velocity": 0.9291338582677166,
                    "duration": 0.3982975927734316
                },
                {
                    "name": "A4",
                    "midi": 69,
                    "time": 103.24208425781217,
                    "velocity": 0.9133858267716536,
                    "duration": 0.36481548339843073
                },
                {
                    "name": "B2",
                    "midi": 47,
                    "time": 103.24208425781217,
                    "velocity": 0.9133858267716536,
                    "duration": 0.36481548339843073
                },
                {
                    "name": "A5",
                    "midi": 81,
                    "time": 103.59364640624966,
                    "velocity": 0.9763779527559056,
                    "duration": 1.4055510498046857
                },
                {
                    "name": "C#3",
                    "midi": 49,
                    "time": 103.59364640624966,
                    "velocity": 0.8818897637795275,
                    "duration": 0.36481548339843073
                },
                {
                    "name": "E3",
                    "midi": 52,
                    "time": 103.94520855468716,
                    "velocity": 0.8818897637795275,
                    "duration": 0.37318601074218805
                },
                {
                    "name": "A3",
                    "midi": 57,
                    "time": 104.30514123046841,
                    "velocity": 0.8818897637795275,
                    "duration": 0.37109337890625227
                },
                {
                    "name": "C#4",
                    "midi": 61,
                    "time": 104.66298127441372,
                    "velocity": 0.8818897637795275,
                    "duration": 0.3592351318359306
                },
                {
                    "name": "B5",
                    "midi": 83,
                    "time": 104.99989499999965,
                    "velocity": 0.9763779527559056,
                    "duration": 0.2539059960937635
                },
                {
                    "name": "E4",
                    "midi": 64,
                    "time": 105.00896307128872,
                    "velocity": 0.8818897637795275,
                    "duration": 0.3599326757812662
                },
                {
                    "name": "A5",
                    "midi": 81,
                    "time": 105.22659678222622,
                    "velocity": 0.9763779527559056,
                    "duration": 0.14997194824219662
                },
                {
                    "name": "A3",
                    "midi": 57,
                    "time": 105.35564241210905,
                    "velocity": 0.8818897637795275,
                    "duration": 0.37179092285157367
                },
                {
                    "name": "B5",
                    "midi": 83,
                    "time": 105.36052521972624,
                    "velocity": 0.9763779527559056,
                    "duration": 0.1499719482421824
                },
                {
                    "name": "A5",
                    "midi": 81,
                    "time": 105.49445365722623,
                    "velocity": 0.937007874015748,
                    "duration": 0.0383649169921938
                },
                {
                    "name": "G#5",
                    "midi": 80,
                    "time": 105.5314234863278,
                    "velocity": 0.9763779527559056,
                    "duration": 0.09835369628906676
                },
                {
                    "name": "A5",
                    "midi": 81,
                    "time": 105.62001156738249,
                    "velocity": 0.937007874015748,
                    "duration": 0.07812492187500197
                },
                {
                    "name": "B5",
                    "midi": 83,
                    "time": 105.71417999999969,
                    "velocity": 1,
                    "duration": 0.3564449560546876
                },
                {
                    "name": "E4",
                    "midi": 64,
                    "time": 105.71417999999969,
                    "velocity": 0.9291338582677166,
                    "duration": 0.3982975927734316
                },
                {
                    "name": "A5",
                    "midi": 81,
                    "time": 106.09922425781218,
                    "velocity": 1,
                    "duration": 0.3229628466796868
                },
                {
                    "name": "E3",
                    "midi": 52,
                    "time": 106.09922425781218,
                    "velocity": 0.9133858267716536,
                    "duration": 0.36481548339843073
                },
                {
                    "name": "G#5",
                    "midi": 80,
                    "time": 106.45078640624968,
                    "velocity": 0.9763779527559056,
                    "duration": 0.3229628466796868
                },
                {
                    "name": "E4",
                    "midi": 64,
                    "time": 106.45078640624968,
                    "velocity": 0.9763779527559056,
                    "duration": 2.119836049804647
                },
                {
                    "name": "F#5",
                    "midi": 78,
                    "time": 106.80234855468717,
                    "velocity": 0.9763779527559056,
                    "duration": 0.3313333740234441
                },
                {
                    "name": "E5",
                    "midi": 76,
                    "time": 107.16228123046842,
                    "velocity": 0.9763779527559056,
                    "duration": 0.3292407421874941
                },
                {
                    "name": "D5",
                    "midi": 74,
                    "time": 107.52012127441373,
                    "velocity": 0.9763779527559056,
                    "duration": 0.31738249511718664
                },
                {
                    "name": "D5",
                    "midi": 74,
                    "time": 107.85703499999966,
                    "velocity": 0.9763779527559056,
                    "duration": 0.094168432617181
                },
                {
                    "name": "C#5",
                    "midi": 73,
                    "time": 107.94143781738246,
                    "velocity": 0.9763779527559056,
                    "duration": 0.094168432617181
                },
                {
                    "name": "D5",
                    "midi": 74,
                    "time": 108.02584063476527,
                    "velocity": 0.9763779527559056,
                    "duration": 0.094168432617181
                },
                {
                    "name": "C#5",
                    "midi": 73,
                    "time": 108.11024345214808,
                    "velocity": 0.937007874015748,
                    "duration": 0.09626106445311677
                },
                {
                    "name": "B4",
                    "midi": 71,
                    "time": 108.21278241210901,
                    "velocity": 0.9763779527559056,
                    "duration": 0.3299382861328155
                },
                {
                    "name": "C#5",
                    "midi": 73,
                    "time": 108.57131999999963,
                    "velocity": 1,
                    "duration": 0.3564449560546876
                },
                {
                    "name": "E5",
                    "midi": 76,
                    "time": 108.95636425781213,
                    "velocity": 1,
                    "duration": 0.3229628466796868
                },
                {
                    "name": "A4",
                    "midi": 69,
                    "time": 109.30792640624962,
                    "velocity": 0.9763779527559056,
                    "duration": 0.3229628466796868
                },
                {
                    "name": "A3",
                    "midi": 57,
                    "time": 109.30792640624962,
                    "velocity": 0.9763779527559056,
                    "duration": 0.7107972802734395
                },
                {
                    "name": "C#5",
                    "midi": 73,
                    "time": 109.65948855468712,
                    "velocity": 0.9763779527559056,
                    "duration": 0.3313333740234441
                },
                {
                    "name": "A3",
                    "midi": 57,
                    "time": 109.99988999999962,
                    "velocity": 0.9763779527559056,
                    "duration": 0.16950317871094
                },
                {
                    "name": "B4",
                    "midi": 71,
                    "time": 110.01942123046837,
                    "velocity": 0.9763779527559056,
                    "duration": 0.3292407421875083
                },
                {
                    "name": "G#3",
                    "midi": 56,
                    "time": 110.15125703613244,
                    "velocity": 0.9763779527559056,
                    "duration": 0.16950317871094
                },
                {
                    "name": "A3",
                    "midi": 57,
                    "time": 110.30262407226525,
                    "velocity": 0.9763779527559056,
                    "duration": 0.16950317871094
                },
                {
                    "name": "E5",
                    "midi": 76,
                    "time": 110.37726127441368,
                    "velocity": 0.9763779527559056,
                    "duration": 0.31738249511718664
                },
                {
                    "name": "G#3",
                    "midi": 56,
                    "time": 110.45399110839806,
                    "velocity": 0.937007874015748,
                    "duration": 0.23995511718750606
                },
                {
                    "name": "G#4",
                    "midi": 68,
                    "time": 110.72324307128868,
                    "velocity": 0.9763779527559056,
                    "duration": 0.3180800390624938
                },
                {
                    "name": "E3",
                    "midi": 52,
                    "time": 110.72324307128868,
                    "velocity": 0.9763779527559056,
                    "duration": 0.7045193847656179
                },
                {
                    "name": "B4",
                    "midi": 71,
                    "time": 111.06992241210898,
                    "velocity": 0.9763779527559056,
                    "duration": 0.3299382861328155
                },
                {
                    "name": "C#5",
                    "midi": 73,
                    "time": 111.4284599999996,
                    "velocity": 1,
                    "duration": 0.3564449560546876
                },
                {
                    "name": "A3",
                    "midi": 57,
                    "time": 111.4284599999996,
                    "velocity": 0.9763779527559056,
                    "duration": 0.7714836035156196
                },
                {
                    "name": "E5",
                    "midi": 76,
                    "time": 111.8135042578121,
                    "velocity": 1,
                    "duration": 0.3229628466796868
                },
                {
                    "name": "A3",
                    "midi": 57,
                    "time": 112.14274499999959,
                    "velocity": 0.9763779527559056,
                    "duration": 0.17159581054689
                },
                {
                    "name": "B4",
                    "midi": 71,
                    "time": 112.1650664062496,
                    "velocity": 0.9763779527559056,
                    "duration": 0.3229628466797152
                },
                {
                    "name": "G#3",
                    "midi": 56,
                    "time": 112.29620466796835,
                    "velocity": 0.9763779527559056,
                    "duration": 0.17159581054689
                },
                {
                    "name": "A3",
                    "midi": 57,
                    "time": 112.44966433593711,
                    "velocity": 0.9763779527559056,
                    "duration": 0.17159581054687578
                },
                {
                    "name": "E5",
                    "midi": 76,
                    "time": 112.51662855468712,
                    "velocity": 0.9763779527559056,
                    "duration": 0.3313333740234299
                },
                {
                    "name": "G#3",
                    "midi": 56,
                    "time": 112.60312400390586,
                    "velocity": 0.937007874015748,
                    "duration": 0.23367722167968452
                },
                {
                    "name": "A4",
                    "midi": 69,
                    "time": 112.87656123046835,
                    "velocity": 0.9763779527559056,
                    "duration": 0.3292407421874941
                },
                {
                    "name": "F#3",
                    "midi": 54,
                    "time": 112.87656123046835,
                    "velocity": 0.9763779527559056,
                    "duration": 1.4083412255859002
                },
                {
                    "name": "C#5",
                    "midi": 73,
                    "time": 113.23440127441366,
                    "velocity": 0.9763779527559056,
                    "duration": 0.31738249511718664
                },
                {
                    "name": "C#5",
                    "midi": 73,
                    "time": 113.57131499999959,
                    "velocity": 0.9763779527559056,
                    "duration": 0.094168432617181
                },
                {
                    "name": "A3",
                    "midi": 57,
                    "time": 113.58038307128865,
                    "velocity": 0.9763779527559056,
                    "duration": 0.7045193847656037
                },
                {
                    "name": "B4",
                    "midi": 71,
                    "time": 113.6557178173824,
                    "velocity": 0.9763779527559056,
                    "duration": 0.094168432617181
                },
                {
                    "name": "C#5",
                    "midi": 73,
                    "time": 113.7401206347652,
                    "velocity": 0.9763779527559056,
                    "duration": 0.094168432617181
                },
                {
                    "name": "B4",
                    "midi": 71,
                    "time": 113.82452345214801,
                    "velocity": 0.937007874015748,
                    "duration": 0.09626106445311677
                },
                {
                    "name": "A4",
                    "midi": 69,
                    "time": 113.92706241210894,
                    "velocity": 0.9763779527559056,
                    "duration": 0.3299382861328155
                },
                {
                    "name": "B4",
                    "midi": 71,
                    "time": 114.28559999999956,
                    "velocity": 1,
                    "duration": 0.3564449560546876
                },
                {
                    "name": "G#3",
                    "midi": 56,
                    "time": 114.28559999999956,
                    "velocity": 1,
                    "duration": 1.4474036865234297
                },
                {
                    "name": "E3",
                    "midi": 52,
                    "time": 114.28559999999956,
                    "velocity": 1,
                    "duration": 2.856442456054637
                },
                {
                    "name": "A4",
                    "midi": 69,
                    "time": 114.67064425781206,
                    "velocity": 1,
                    "duration": 0.3229628466796868
                },
                {
                    "name": "G#4",
                    "midi": 68,
                    "time": 115.02220640624955,
                    "velocity": 0.9763779527559056,
                    "duration": 0.3229628466796868
                },
                {
                    "name": "F#4",
                    "midi": 66,
                    "time": 115.37376855468705,
                    "velocity": 0.9763779527559056,
                    "duration": 0.3313333740234441
                },
                {
                    "name": "E4",
                    "midi": 64,
                    "time": 115.7337012304683,
                    "velocity": 0.9763779527559056,
                    "duration": 0.3292407421874941
                },
                {
                    "name": "E2",
                    "midi": 40,
                    "time": 115.7337012304683,
                    "velocity": 0.968503937007874,
                    "duration": 1.4083412255859002
                },
                {
                    "name": "D4",
                    "midi": 62,
                    "time": 116.0915412744136,
                    "velocity": 0.9763779527559056,
                    "duration": 0.31738249511718664
                },
                {
                    "name": "D4",
                    "midi": 62,
                    "time": 116.42845499999953,
                    "velocity": 0.9763779527559056,
                    "duration": 0.094168432617181
                },
                {
                    "name": "C#4",
                    "midi": 61,
                    "time": 116.51285781738234,
                    "velocity": 0.9763779527559056,
                    "duration": 0.094168432617181
                },
                {
                    "name": "D4",
                    "midi": 62,
                    "time": 116.59726063476515,
                    "velocity": 0.9763779527559056,
                    "duration": 0.094168432617181
                },
                {
                    "name": "C#4",
                    "midi": 61,
                    "time": 116.68166345214796,
                    "velocity": 0.937007874015748,
                    "duration": 0.09626106445311677
                },
                {
                    "name": "B3",
                    "midi": 59,
                    "time": 116.78420241210888,
                    "velocity": 0.9763779527559056,
                    "duration": 0.3299382861328155
                },
                {
                    "name": "A3",
                    "midi": 57,
                    "time": 117.1427399999995,
                    "velocity": 1,
                    "duration": 0.3564449560546876
                },
                {
                    "name": "A1",
                    "midi": 33,
                    "time": 117.1427399999995,
                    "velocity": 0.8740157480314961,
                    "duration": 2.8564424560546513
                },
                {
                    "name": "A2",
                    "midi": 45,
                    "time": 117.1427399999995,
                    "velocity": 1,
                    "duration": 2.8564424560546513
                },
                {
                    "name": "B3",
                    "midi": 59,
                    "time": 117.527784257812,
                    "velocity": 1,
                    "duration": 0.3229628466796868
                },
                {
                    "name": "C#4",
                    "midi": 61,
                    "time": 117.8793464062495,
                    "velocity": 0.9763779527559056,
                    "duration": 0.3229628466796868
                },
                {
                    "name": "E4",
                    "midi": 64,
                    "time": 118.23090855468699,
                    "velocity": 0.9763779527559056,
                    "duration": 0.3313333740234441
                },
                {
                    "name": "A4",
                    "midi": 69,
                    "time": 118.59084123046824,
                    "velocity": 0.9763779527559056,
                    "duration": 0.3292407421874941
                },
                {
                    "name": "C#5",
                    "midi": 73,
                    "time": 118.94868127441354,
                    "velocity": 0.9763779527559056,
                    "duration": 0.31738249511718664
                },
                {
                    "name": "E5",
                    "midi": 76,
                    "time": 119.29466307128854,
                    "velocity": 0.9763779527559056,
                    "duration": 0.3180800390624938
                },
                {
                    "name": "A4",
                    "midi": 69,
                    "time": 119.64134241210884,
                    "velocity": 0.9763779527559056,
                    "duration": 0.3299382861328155
                },
                {
                    "name": "A5",
                    "midi": 81,
                    "time": 119.99987999999946,
                    "velocity": 1,
                    "duration": 0.3564449560546876
                },
                {
                    "name": "A2",
                    "midi": 45,
                    "time": 119.99987999999946,
                    "velocity": 0.9291338582677166,
                    "duration": 0.3982975927734316
                },
                {
                    "name": "A4",
                    "midi": 69,
                    "time": 120.38492425781196,
                    "velocity": 1,
                    "duration": 0.3229628466796868
                },
                {
                    "name": "B2",
                    "midi": 47,
                    "time": 120.38492425781196,
                    "velocity": 0.9133858267716536,
                    "duration": 0.36481548339843073
                },
                {
                    "name": "A5",
                    "midi": 81,
                    "time": 120.73648640624945,
                    "velocity": 0.9763779527559056,
                    "duration": 1.4055510498046857
                },
                {
                    "name": "C#3",
                    "midi": 49,
                    "time": 120.73648640624945,
                    "velocity": 0.8818897637795275,
                    "duration": 0.36481548339843073
                },
                {
                    "name": "E3",
                    "midi": 52,
                    "time": 121.08804855468695,
                    "velocity": 0.8818897637795275,
                    "duration": 0.37318601074218805
                },
                {
                    "name": "A3",
                    "midi": 57,
                    "time": 121.4479812304682,
                    "velocity": 0.8818897637795275,
                    "duration": 0.37109337890625227
                },
                {
                    "name": "C#4",
                    "midi": 61,
                    "time": 121.80582127441352,
                    "velocity": 0.8818897637795275,
                    "duration": 0.3592351318359306
                },
                {
                    "name": "B5",
                    "midi": 83,
                    "time": 122.14273499999945,
                    "velocity": 0.9763779527559056,
                    "duration": 0.2539059960937635
                },
                {
                    "name": "E4",
                    "midi": 64,
                    "time": 122.15180307128851,
                    "velocity": 0.8818897637795275,
                    "duration": 0.3599326757812662
                },
                {
                    "name": "A5",
                    "midi": 81,
                    "time": 122.36943678222602,
                    "velocity": 0.9763779527559056,
                    "duration": 0.14997194824219662
                },
                {
                    "name": "A3",
                    "midi": 57,
                    "time": 122.49848241210884,
                    "velocity": 0.8818897637795275,
                    "duration": 0.37179092285157367
                },
                {
                    "name": "B5",
                    "midi": 83,
                    "time": 122.50336521972604,
                    "velocity": 0.9763779527559056,
                    "duration": 0.1499719482421824
                },
                {
                    "name": "A5",
                    "midi": 81,
                    "time": 122.63729365722602,
                    "velocity": 0.937007874015748,
                    "duration": 0.0383649169921938
                },
                {
                    "name": "G#5",
                    "midi": 80,
                    "time": 122.67426348632759,
                    "velocity": 0.9763779527559056,
                    "duration": 0.09835369628906676
                },
                {
                    "name": "A5",
                    "midi": 81,
                    "time": 122.76285156738228,
                    "velocity": 0.937007874015748,
                    "duration": 0.07812492187500197
                },
                {
                    "name": "B5",
                    "midi": 83,
                    "time": 122.85701999999948,
                    "velocity": 1,
                    "duration": 0.3564449560546876
                },
                {
                    "name": "E4",
                    "midi": 64,
                    "time": 122.85701999999948,
                    "velocity": 0.9291338582677166,
                    "duration": 0.3982975927734316
                },
                {
                    "name": "A5",
                    "midi": 81,
                    "time": 123.24206425781198,
                    "velocity": 1,
                    "duration": 0.3229628466796868
                },
                {
                    "name": "E3",
                    "midi": 52,
                    "time": 123.24206425781198,
                    "velocity": 0.9133858267716536,
                    "duration": 0.36481548339843073
                },
                {
                    "name": "G#5",
                    "midi": 80,
                    "time": 123.59362640624947,
                    "velocity": 0.9763779527559056,
                    "duration": 0.3229628466796868
                },
                {
                    "name": "E4",
                    "midi": 64,
                    "time": 123.59362640624947,
                    "velocity": 0.9763779527559056,
                    "duration": 2.119836049804647
                },
                {
                    "name": "F#5",
                    "midi": 78,
                    "time": 123.94518855468696,
                    "velocity": 0.9763779527559056,
                    "duration": 0.3313333740234441
                },
                {
                    "name": "E5",
                    "midi": 76,
                    "time": 124.30512123046822,
                    "velocity": 0.9763779527559056,
                    "duration": 0.3292407421874941
                },
                {
                    "name": "D5",
                    "midi": 74,
                    "time": 124.66296127441352,
                    "velocity": 0.9763779527559056,
                    "duration": 0.31738249511718664
                },
                {
                    "name": "D5",
                    "midi": 74,
                    "time": 124.99987499999945,
                    "velocity": 0.9763779527559056,
                    "duration": 0.094168432617181
                },
                {
                    "name": "C#5",
                    "midi": 73,
                    "time": 125.08427781738226,
                    "velocity": 0.9763779527559056,
                    "duration": 0.094168432617181
                },
                {
                    "name": "D5",
                    "midi": 74,
                    "time": 125.16868063476507,
                    "velocity": 0.9763779527559056,
                    "duration": 0.094168432617181
                },
                {
                    "name": "C#5",
                    "midi": 73,
                    "time": 125.25308345214788,
                    "velocity": 0.937007874015748,
                    "duration": 0.09626106445311677
                },
                {
                    "name": "B4",
                    "midi": 71,
                    "time": 125.3556224121088,
                    "velocity": 0.9763779527559056,
                    "duration": 0.3299382861328155
                },
                {
                    "name": "C#5",
                    "midi": 73,
                    "time": 125.71415999999942,
                    "velocity": 1,
                    "duration": 0.3564449560546876
                },
                {
                    "name": "E5",
                    "midi": 76,
                    "time": 126.09920425781192,
                    "velocity": 1,
                    "duration": 0.3229628466796868
                },
                {
                    "name": "A4",
                    "midi": 69,
                    "time": 126.45076640624941,
                    "velocity": 0.9763779527559056,
                    "duration": 0.3229628466796868
                },
                {
                    "name": "A3",
                    "midi": 57,
                    "time": 126.45076640624941,
                    "velocity": 0.9763779527559056,
                    "duration": 0.7107972802734395
                },
                {
                    "name": "C#5",
                    "midi": 73,
                    "time": 126.80232855468691,
                    "velocity": 0.9763779527559056,
                    "duration": 0.3313333740234441
                },
                {
                    "name": "A3",
                    "midi": 57,
                    "time": 127.14272999999942,
                    "velocity": 0.9763779527559056,
                    "duration": 0.17299089843750437
                },
                {
                    "name": "B4",
                    "midi": 71,
                    "time": 127.16226123046816,
                    "velocity": 0.9763779527559056,
                    "duration": 0.3292407421875083
                },
                {
                    "name": "G#3",
                    "midi": 56,
                    "time": 127.2975847558588,
                    "velocity": 0.9763779527559056,
                    "duration": 0.17299089843750437
                },
                {
                    "name": "A3",
                    "midi": 57,
                    "time": 127.45243951171817,
                    "velocity": 0.9763779527559056,
                    "duration": 0.17299089843750437
                },
                {
                    "name": "E5",
                    "midi": 76,
                    "time": 127.52010127441348,
                    "velocity": 0.9763779527559056,
                    "duration": 0.31738249511720085
                },
                {
                    "name": "G#3",
                    "midi": 56,
                    "time": 127.60729426757754,
                    "velocity": 0.937007874015748,
                    "duration": 0.23018950195313437
                },
                {
                    "name": "G#4",
                    "midi": 68,
                    "time": 127.86608307128849,
                    "velocity": 0.9763779527559056,
                    "duration": 0.31808003906250804
                },
                {
                    "name": "E3",
                    "midi": 52,
                    "time": 127.86608307128849,
                    "velocity": 0.9763779527559056,
                    "duration": 0.7045193847656179
                },
                {
                    "name": "B4",
                    "midi": 71,
                    "time": 128.21276241210882,
                    "velocity": 0.9763779527559056,
                    "duration": 0.3299382861328013
                },
                {
                    "name": "C#5",
                    "midi": 73,
                    "time": 128.5712999999994,
                    "velocity": 1,
                    "duration": 0.3564449560546734
                },
                {
                    "name": "A3",
                    "midi": 57,
                    "time": 128.5712999999994,
                    "velocity": 1,
                    "duration": 0.735908862304683
                },
                {
                    "name": "E5",
                    "midi": 76,
                    "time": 128.9563442578119,
                    "velocity": 1,
                    "duration": 0.322962846679701
                },
                {
                    "name": "A4",
                    "midi": 69,
                    "time": 129.3079064062494,
                    "velocity": 0.9763779527559056,
                    "duration": 0.322962846679701
                },
                {
                    "name": "C#3",
                    "midi": 49,
                    "time": 129.3079064062494,
                    "velocity": 0.9763779527559056,
                    "duration": 0.7107972802734537
                },
                {
                    "name": "C#5",
                    "midi": 73,
                    "time": 129.65946855468692,
                    "velocity": 0.9763779527559056,
                    "duration": 0.3313333740234441
                },
                {
                    "name": "B4",
                    "midi": 71,
                    "time": 130.01940123046816,
                    "velocity": 0.9763779527559056,
                    "duration": 0.3292407421874941
                },
                {
                    "name": "D3",
                    "midi": 50,
                    "time": 130.01940123046816,
                    "velocity": 0.9763779527559056,
                    "duration": 0.7031242968749893
                },
                {
                    "name": "E5",
                    "midi": 76,
                    "time": 130.37724127441348,
                    "velocity": 0.9763779527559056,
                    "duration": 0.31738249511718664
                },
                {
                    "name": "G#4",
                    "midi": 68,
                    "time": 130.72322307128846,
                    "velocity": 0.9763779527559056,
                    "duration": 0.3180800390624938
                },
                {
                    "name": "E3",
                    "midi": 52,
                    "time": 130.72322307128846,
                    "velocity": 0.9763779527559056,
                    "duration": 0.7045193847656037
                },
                {
                    "name": "B4",
                    "midi": 71,
                    "time": 131.06990241210877,
                    "velocity": 0.9763779527559056,
                    "duration": 0.3299382861328013
                },
                {
                    "name": "A4",
                    "midi": 69,
                    "time": 131.42843999999937,
                    "velocity": 0.9763779527559056,
                    "duration": 2.856442456054765
                },
                {
                    "name": "A2",
                    "midi": 45,
                    "time": 131.42843999999937,
                    "velocity": 1,
                    "duration": 0.3564449560546734
                },
                {
                    "name": "B2",
                    "midi": 47,
                    "time": 131.81348425781187,
                    "velocity": 1,
                    "duration": 0.322962846679701
                },
                {
                    "name": "C#3",
                    "midi": 49,
                    "time": 132.1650464062494,
                    "velocity": 0.9763779527559056,
                    "duration": 0.322962846679701
                },
                {
                    "name": "E3",
                    "midi": 52,
                    "time": 132.5166085546869,
                    "velocity": 0.9763779527559056,
                    "duration": 0.3313333740234441
                },
                {
                    "name": "A3",
                    "midi": 57,
                    "time": 132.87654123046818,
                    "velocity": 0.9763779527559056,
                    "duration": 0.3292407421874941
                },
                {
                    "name": "E3",
                    "midi": 52,
                    "time": 133.2343812744135,
                    "velocity": 0.9763779527559056,
                    "duration": 0.31738249511718664
                },
                {
                    "name": "C#3",
                    "midi": 49,
                    "time": 133.5803630712885,
                    "velocity": 0.9763779527559056,
                    "duration": 0.3180800390624938
                },
                {
                    "name": "A2",
                    "midi": 45,
                    "time": 133.92704241210882,
                    "velocity": 0.9763779527559056,
                    "duration": 0.3585375878906234
                },
                {
                    "name": "F#3",
                    "midi": 54,
                    "time": 134.28557999999944,
                    "velocity": 1,
                    "duration": 0.3564449560546734
                },
                {
                    "name": "F#2",
                    "midi": 42,
                    "time": 134.28557999999944,
                    "velocity": 0.968503937007874,
                    "duration": 2.8564424560547366
                },
                {
                    "name": "G#3",
                    "midi": 56,
                    "time": 134.67062425781194,
                    "velocity": 1,
                    "duration": 0.322962846679701
                },
                {
                    "name": "A3",
                    "midi": 57,
                    "time": 135.02218640624946,
                    "velocity": 0.9763779527559056,
                    "duration": 0.322962846679701
                },
                {
                    "name": "C#4",
                    "midi": 61,
                    "time": 135.37374855468698,
                    "velocity": 0.9763779527559056,
                    "duration": 0.3313333740234441
                },
                {
                    "name": "F#4",
                    "midi": 66,
                    "time": 135.73368123046825,
                    "velocity": 0.9763779527559056,
                    "duration": 0.3292407421874941
                },
                {
                    "name": "A4",
                    "midi": 69,
                    "time": 136.09152127441357,
                    "velocity": 0.9763779527559056,
                    "duration": 0.31738249511718664
                },
                {
                    "name": "F#4",
                    "midi": 66,
                    "time": 136.43750307128857,
                    "velocity": 0.9763779527559056,
                    "duration": 0.3180800390624938
                },
                {
                    "name": "C#4",
                    "midi": 61,
                    "time": 136.7841824121089,
                    "velocity": 0.9763779527559056,
                    "duration": 0.3299382861328013
                },
                {
                    "name": "C#4",
                    "midi": 61,
                    "time": 137.0534343749995,
                    "velocity": 0.9763779527559056,
                    "duration": 0.08928562499997383
                },
                {
                    "name": "D4",
                    "midi": 62,
                    "time": 137.14271999999949,
                    "velocity": 1,
                    "duration": 0.208565639648441
                },
                {
                    "name": "F#3",
                    "midi": 54,
                    "time": 137.14271999999949,
                    "velocity": 1,
                    "duration": 0.35644495605470183
                },
                {
                    "name": "C#4",
                    "midi": 61,
                    "time": 137.32896423339793,
                    "velocity": 0.9763779527559056,
                    "duration": 0.208565639648441
                },
                {
                    "name": "D4",
                    "midi": 62,
                    "time": 137.51520846679637,
                    "velocity": 0.937007874015748,
                    "duration": 1.7703665332031733
                },
                {
                    "name": "G#3",
                    "midi": 56,
                    "time": 137.52776425781198,
                    "velocity": 1,
                    "duration": 0.322962846679701
                },
                {
                    "name": "A3",
                    "midi": 57,
                    "time": 137.8793264062495,
                    "velocity": 0.9763779527559056,
                    "duration": 0.322962846679701
                },
                {
                    "name": "G#3",
                    "midi": 56,
                    "time": 138.23088855468703,
                    "velocity": 0.9763779527559056,
                    "duration": 0.3313333740234441
                },
                {
                    "name": "F#3",
                    "midi": 54,
                    "time": 138.5908212304683,
                    "velocity": 0.9763779527559056,
                    "duration": 0.3292407421874941
                },
                {
                    "name": "G#3",
                    "midi": 56,
                    "time": 138.9486612744136,
                    "velocity": 0.9763779527559056,
                    "duration": 0.31738249511718664
                },
                {
                    "name": "C#4",
                    "midi": 61,
                    "time": 139.2946430712886,
                    "velocity": 0.9763779527559056,
                    "duration": 0.7045193847656037
                },
                {
                    "name": "E3",
                    "midi": 52,
                    "time": 139.2946430712886,
                    "velocity": 0.9763779527559056,
                    "duration": 0.3180800390624938
                },
                {
                    "name": "F#3",
                    "midi": 54,
                    "time": 139.6413224121089,
                    "velocity": 0.9763779527559056,
                    "duration": 0.3299382861328013
                },
                {
                    "name": "F#4",
                    "midi": 66,
                    "time": 139.9998599999995,
                    "velocity": 1,
                    "duration": 0.3564449560546734
                },
                {
                    "name": "D3",
                    "midi": 50,
                    "time": 139.9998599999995,
                    "velocity": 0.9763779527559056,
                    "duration": 2.8564424560547366
                },
                {
                    "name": "E4",
                    "midi": 64,
                    "time": 140.384904257812,
                    "velocity": 1,
                    "duration": 0.322962846679701
                },
                {
                    "name": "D4",
                    "midi": 62,
                    "time": 140.73646640624952,
                    "velocity": 0.9763779527559056,
                    "duration": 0.322962846679701
                },
                {
                    "name": "C#4",
                    "midi": 61,
                    "time": 141.08802855468704,
                    "velocity": 0.9763779527559056,
                    "duration": 0.3313333740234441
                },
                {
                    "name": "B3",
                    "midi": 59,
                    "time": 141.4479612304683,
                    "velocity": 0.9763779527559056,
                    "duration": 0.3292407421874941
                },
                {
                    "name": "F#3",
                    "midi": 54,
                    "time": 141.4479612304683,
                    "velocity": 0.9763779527559056,
                    "duration": 0.7031242968749893
                },
                {
                    "name": "A3",
                    "midi": 57,
                    "time": 141.80580127441362,
                    "velocity": 0.9763779527559056,
                    "duration": 0.31738249511718664
                },
                {
                    "name": "A3",
                    "midi": 57,
                    "time": 142.14271499999955,
                    "velocity": 0.9763779527559056,
                    "duration": 0.094168432617181
                },
                {
                    "name": "G#3",
                    "midi": 56,
                    "time": 142.22711781738235,
                    "velocity": 0.9763779527559056,
                    "duration": 0.09416843261720942
                },
                {
                    "name": "A3",
                    "midi": 57,
                    "time": 142.31152063476517,
                    "velocity": 0.9763779527559056,
                    "duration": 0.09416843261720942
                },
                {
                    "name": "G#3",
                    "midi": 56,
                    "time": 142.395923452148,
                    "velocity": 0.937007874015748,
                    "duration": 0.09626106445313098
                },
                {
                    "name": "F#3",
                    "midi": 54,
                    "time": 142.49846241210895,
                    "velocity": 0.9763779527559056,
                    "duration": 0.3299382861328013
                },
                {
                    "name": "C#4",
                    "midi": 61,
                    "time": 142.85699999999954,
                    "velocity": 1,
                    "duration": 1.4474036865234723
                },
                {
                    "name": "C#3",
                    "midi": 49,
                    "time": 142.85699999999954,
                    "velocity": 0.9606299212598425,
                    "duration": 0.3564449560546734
                },
                {
                    "name": "F3",
                    "midi": 53,
                    "time": 142.85699999999954,
                    "velocity": 0.9606299212598425,
                    "duration": 0.3564449560546734
                },
                {
                    "name": "G#3",
                    "midi": 56,
                    "time": 142.85699999999954,
                    "velocity": 1,
                    "duration": 0.3564449560546734
                },
                {
                    "name": "D#3",
                    "midi": 51,
                    "time": 143.24204425781204,
                    "velocity": 1,
                    "duration": 0.322962846679701
                },
                {
                    "name": "F3",
                    "midi": 53,
                    "time": 143.59360640624956,
                    "velocity": 0.9763779527559056,
                    "duration": 0.322962846679701
                },
                {
                    "name": "G#3",
                    "midi": 56,
                    "time": 143.9451685546871,
                    "velocity": 0.9763779527559056,
                    "duration": 0.3313333740234441
                },
                {
                    "name": "C#4",
                    "midi": 61,
                    "time": 144.30510123046832,
                    "velocity": 0.9763779527559056,
                    "duration": 0.3292407421874941
                },
                {
                    "name": "G#3",
                    "midi": 56,
                    "time": 144.66294127441364,
                    "velocity": 0.9763779527559056,
                    "duration": 0.31738249511718664
                },
                {
                    "name": "F3",
                    "midi": 53,
                    "time": 145.00892307128865,
                    "velocity": 0.9763779527559056,
                    "duration": 0.3180800390624938
                },
                {
                    "name": "C#3",
                    "midi": 49,
                    "time": 145.35560241210896,
                    "velocity": 0.9763779527559056,
                    "duration": 0.3299382861328013
                },
                {
                    "name": "A4",
                    "midi": 69,
                    "time": 145.7141399999996,
                    "velocity": 1,
                    "duration": 0.3564449560546734
                },
                {
                    "name": "C3",
                    "midi": 48,
                    "time": 145.7141399999996,
                    "velocity": 0.9133858267716536,
                    "duration": 2.8564424560547366
                },
                {
                    "name": "D#3",
                    "midi": 51,
                    "time": 145.7141399999996,
                    "velocity": 0.9133858267716536,
                    "duration": 2.8564424560547366
                },
                {
                    "name": "F#3",
                    "midi": 54,
                    "time": 145.7141399999996,
                    "velocity": 0.9133858267716536,
                    "duration": 2.8564424560547366
                },
                {
                    "name": "A3",
                    "midi": 57,
                    "time": 145.7141399999996,
                    "velocity": 1,
                    "duration": 2.8564424560547366
                },
                {
                    "name": "G#4",
                    "midi": 68,
                    "time": 146.09918425781208,
                    "velocity": 1,
                    "duration": 0.322962846679701
                },
                {
                    "name": "F#4",
                    "midi": 66,
                    "time": 146.4507464062496,
                    "velocity": 0.9763779527559056,
                    "duration": 0.322962846679701
                },
                {
                    "name": "G#4",
                    "midi": 68,
                    "time": 146.80230855468713,
                    "velocity": 0.9763779527559056,
                    "duration": 0.3313333740234441
                },
                {
                    "name": "A4",
                    "midi": 69,
                    "time": 147.1622412304684,
                    "velocity": 0.9763779527559056,
                    "duration": 0.3292407421874941
                },
                {
                    "name": "C5",
                    "midi": 72,
                    "time": 147.5200812744137,
                    "velocity": 0.9763779527559056,
                    "duration": 0.31738249511718664
                },
                {
                    "name": "F#4",
                    "midi": 66,
                    "time": 147.86606307128872,
                    "velocity": 0.9763779527559056,
                    "duration": 0.3180800390624938
                },
                {
                    "name": "A4",
                    "midi": 69,
                    "time": 148.21274241210904,
                    "velocity": 0.9763779527559056,
                    "duration": 0.3299382861328013
                },
                {
                    "name": "G4",
                    "midi": 67,
                    "time": 148.57127999999963,
                    "velocity": 1,
                    "duration": 0.3564449560546734
                },
                {
                    "name": "B2",
                    "midi": 47,
                    "time": 148.57127999999963,
                    "velocity": 0.9133858267716536,
                    "duration": 2.8564424560547366
                },
                {
                    "name": "E3",
                    "midi": 52,
                    "time": 148.57127999999963,
                    "velocity": 0.9133858267716536,
                    "duration": 2.8564424560547366
                },
                {
                    "name": "G3",
                    "midi": 55,
                    "time": 148.57127999999963,
                    "velocity": 1,
                    "duration": 2.8564424560547366
                },
                {
                    "name": "F#4",
                    "midi": 66,
                    "time": 148.95632425781213,
                    "velocity": 1,
                    "duration": 0.322962846679701
                },
                {
                    "name": "E4",
                    "midi": 64,
                    "time": 149.30788640624965,
                    "velocity": 0.9763779527559056,
                    "duration": 0.322962846679701
                },
                {
                    "name": "F#4",
                    "midi": 66,
                    "time": 149.65944855468717,
                    "velocity": 0.9763779527559056,
                    "duration": 0.3313333740234441
                },
                {
                    "name": "G4",
                    "midi": 67,
                    "time": 150.01938123046844,
                    "velocity": 0.9763779527559056,
                    "duration": 0.3292407421874941
                },
                {
                    "name": "A4",
                    "midi": 69,
                    "time": 150.37722127441376,
                    "velocity": 0.9763779527559056,
                    "duration": 0.31738249511718664
                },
                {
                    "name": "B4",
                    "midi": 71,
                    "time": 150.72320307128876,
                    "velocity": 0.9763779527559056,
                    "duration": 0.3180800390624938
                },
                {
                    "name": "A4",
                    "midi": 69,
                    "time": 151.06988241210908,
                    "velocity": 0.9763779527559056,
                    "duration": 0.3299382861328013
                },
                {
                    "name": "G4",
                    "midi": 67,
                    "time": 151.42841999999968,
                    "velocity": 1,
                    "duration": 0.3564449560546734
                },
                {
                    "name": "A#2",
                    "midi": 46,
                    "time": 151.42841999999968,
                    "velocity": 0.9133858267716536,
                    "duration": 2.8564424560547366
                },
                {
                    "name": "C#3",
                    "midi": 49,
                    "time": 151.42841999999968,
                    "velocity": 0.9133858267716536,
                    "duration": 2.8564424560547366
                },
                {
                    "name": "E3",
                    "midi": 52,
                    "time": 151.42841999999968,
                    "velocity": 0.9133858267716536,
                    "duration": 2.8564424560547366
                },
                {
                    "name": "G3",
                    "midi": 55,
                    "time": 151.42841999999968,
                    "velocity": 1,
                    "duration": 2.8564424560547366
                },
                {
                    "name": "F#4",
                    "midi": 66,
                    "time": 151.81346425781217,
                    "velocity": 1,
                    "duration": 0.322962846679701
                },
                {
                    "name": "E4",
                    "midi": 64,
                    "time": 152.1650264062497,
                    "velocity": 0.9763779527559056,
                    "duration": 0.322962846679701
                },
                {
                    "name": "F#4",
                    "midi": 66,
                    "time": 152.51658855468722,
                    "velocity": 0.9763779527559056,
                    "duration": 0.3313333740234441
                },
                {
                    "name": "G4",
                    "midi": 67,
                    "time": 152.87652123046848,
                    "velocity": 0.9763779527559056,
                    "duration": 0.3292407421874941
                },
                {
                    "name": "A#4",
                    "midi": 70,
                    "time": 153.2343612744138,
                    "velocity": 0.9763779527559056,
                    "duration": 0.31738249511718664
                },
                {
                    "name": "C#4",
                    "midi": 61,
                    "time": 153.5803430712888,
                    "velocity": 0.9763779527559056,
                    "duration": 0.3180800390624938
                },
                {
                    "name": "E4",
                    "midi": 64,
                    "time": 153.92702241210912,
                    "velocity": 0.9763779527559056,
                    "duration": 0.3299382861328013
                },
                {
                    "name": "D#4",
                    "midi": 63,
                    "time": 154.28555999999972,
                    "velocity": 1,
                    "duration": 0.3564449560546734
                },
                {
                    "name": "A2",
                    "midi": 45,
                    "time": 154.28555999999972,
                    "velocity": 0.9133858267716536,
                    "duration": 2.1512255273437972
                },
                {
                    "name": "B2",
                    "midi": 47,
                    "time": 154.28555999999972,
                    "velocity": 0.9133858267716536,
                    "duration": 2.1512255273437972
                },
                {
                    "name": "D#3",
                    "midi": 51,
                    "time": 154.28555999999972,
                    "velocity": 0.9133858267716536,
                    "duration": 2.1512255273437972
                },
                {
                    "name": "F#3",
                    "midi": 54,
                    "time": 154.28555999999972,
                    "velocity": 1,
                    "duration": 2.1512255273437972
                },
                {
                    "name": "B3",
                    "midi": 59,
                    "time": 154.67060425781222,
                    "velocity": 1,
                    "duration": 0.322962846679701
                },
                {
                    "name": "D#4",
                    "midi": 63,
                    "time": 155.02216640624974,
                    "velocity": 0.9763779527559056,
                    "duration": 0.322962846679701
                },
                {
                    "name": "B3",
                    "midi": 59,
                    "time": 155.37372855468726,
                    "velocity": 0.9763779527559056,
                    "duration": 0.3313333740234441
                },
                {
                    "name": "F#4",
                    "midi": 66,
                    "time": 155.73366123046853,
                    "velocity": 0.9763779527559056,
                    "duration": 0.3292407421874941
                },
                {
                    "name": "B3",
                    "midi": 59,
                    "time": 156.09150127441384,
                    "velocity": 0.9763779527559056,
                    "duration": 0.31738249511718664
                },
                {
                    "name": "B4",
                    "midi": 71,
                    "time": 156.43748307128882,
                    "velocity": 0.9763779527559056,
                    "duration": 1.0616618847656127
                },
                {
                    "name": "A2",
                    "midi": 45,
                    "time": 156.43748307128882,
                    "velocity": 0.9133858267716536,
                    "duration": 0.7045193847656321
                },
                {
                    "name": "B2",
                    "midi": 47,
                    "time": 156.43748307128882,
                    "velocity": 0.9133858267716536,
                    "duration": 0.7045193847656321
                },
                {
                    "name": "D#3",
                    "midi": 51,
                    "time": 156.43748307128882,
                    "velocity": 0.9133858267716536,
                    "duration": 0.7045193847656321
                },
                {
                    "name": "F#3",
                    "midi": 54,
                    "time": 156.43748307128882,
                    "velocity": 1,
                    "duration": 0.7045193847656321
                },
                {
                    "name": "G2",
                    "midi": 43,
                    "time": 157.14269999999976,
                    "velocity": 0.9133858267716536,
                    "duration": 2.856442456054765
                },
                {
                    "name": "B2",
                    "midi": 47,
                    "time": 157.14269999999976,
                    "velocity": 0.9133858267716536,
                    "duration": 2.856442456054765
                },
                {
                    "name": "E3",
                    "midi": 52,
                    "time": 157.14269999999976,
                    "velocity": 1,
                    "duration": 2.856442456054765
                },
                {
                    "name": "E4",
                    "midi": 64,
                    "time": 157.52774425781226,
                    "velocity": 1,
                    "duration": 0.322962846679701
                },
                {
                    "name": "G4",
                    "midi": 67,
                    "time": 157.87930640624978,
                    "velocity": 0.9763779527559056,
                    "duration": 0.322962846679701
                },
                {
                    "name": "E4",
                    "midi": 64,
                    "time": 158.2308685546873,
                    "velocity": 0.9763779527559056,
                    "duration": 0.3313333740234441
                },
                {
                    "name": "B4",
                    "midi": 71,
                    "time": 158.59080123046857,
                    "velocity": 0.9763779527559056,
                    "duration": 0.3292407421874941
                },
                {
                    "name": "E4",
                    "midi": 64,
                    "time": 158.9486412744139,
                    "velocity": 0.9763779527559056,
                    "duration": 0.31738249511718664
                },
                {
                    "name": "E5",
                    "midi": 76,
                    "time": 159.2946230712889,
                    "velocity": 0.9763779527559056,
                    "duration": 1.0616618847656127
                },
                {
                    "name": "E2",
                    "midi": 40,
                    "time": 159.2946230712889,
                    "velocity": 0.968503937007874,
                    "duration": 0.7045193847656321
                },
                {
                    "name": "C3",
                    "midi": 48,
                    "time": 159.99983999999984,
                    "velocity": 0.9921259842519685,
                    "duration": 2.1512255273437972
                },
                {
                    "name": "E3",
                    "midi": 52,
                    "time": 159.99983999999984,
                    "velocity": 0.9606299212598425,
                    "duration": 2.1512255273437972
                },
                {
                    "name": "A2",
                    "midi": 45,
                    "time": 159.99983999999984,
                    "velocity": 0.9763779527559056,
                    "duration": 2.1512255273437972
                },
                {
                    "name": "A4",
                    "midi": 69,
                    "time": 160.38488425781233,
                    "velocity": 1,
                    "duration": 0.322962846679701
                },
                {
                    "name": "C5",
                    "midi": 72,
                    "time": 160.73644640624985,
                    "velocity": 0.9763779527559056,
                    "duration": 0.322962846679701
                },
                {
                    "name": "A4",
                    "midi": 69,
                    "time": 161.08800855468738,
                    "velocity": 0.9763779527559056,
                    "duration": 0.3313333740234441
                },
                {
                    "name": "E5",
                    "midi": 76,
                    "time": 161.44794123046864,
                    "velocity": 0.9763779527559056,
                    "duration": 0.3292407421874941
                },
                {
                    "name": "A4",
                    "midi": 69,
                    "time": 161.80578127441396,
                    "velocity": 0.9763779527559056,
                    "duration": 0.31738249511718664
                },
                {
                    "name": "F#5",
                    "midi": 78,
                    "time": 162.15176307128894,
                    "velocity": 0.9763779527559056,
                    "duration": 1.0616618847656127
                },
                {
                    "name": "F#3",
                    "midi": 54,
                    "time": 162.15176307128894,
                    "velocity": 0.9763779527559056,
                    "duration": 2.152620615234383
                },
                {
                    "name": "F#2",
                    "midi": 42,
                    "time": 162.15176307128894,
                    "velocity": 0.968503937007874,
                    "duration": 0.7045193847656321
                },
                {
                    "name": "B2",
                    "midi": 47,
                    "time": 162.85697999999988,
                    "velocity": 1,
                    "duration": 0.735908862304683
                },
                {
                    "name": "E5",
                    "midi": 76,
                    "time": 163.24202425781237,
                    "velocity": 1,
                    "duration": 0.322962846679701
                },
                {
                    "name": "D#5",
                    "midi": 75,
                    "time": 163.59358640624987,
                    "velocity": 0.9763779527559056,
                    "duration": 0.322962846679701
                },
                {
                    "name": "C#3",
                    "midi": 49,
                    "time": 163.59358640624987,
                    "velocity": 0.9763779527559056,
                    "duration": 0.7107972802734537
                },
                {
                    "name": "C#5",
                    "midi": 73,
                    "time": 163.9451485546874,
                    "velocity": 0.9763779527559056,
                    "duration": 0.3313333740234441
                },
                {
                    "name": "B4",
                    "midi": 71,
                    "time": 164.30508123046863,
                    "velocity": 0.9763779527559056,
                    "duration": 0.3292407421874941
                },
                {
                    "name": "D#3",
                    "midi": 51,
                    "time": 164.30508123046863,
                    "velocity": 0.9763779527559056,
                    "duration": 0.7031242968749893
                },
                {
                    "name": "A4",
                    "midi": 69,
                    "time": 164.66292127441395,
                    "velocity": 0.9763779527559056,
                    "duration": 0.31738249511718664
                },
                {
                    "name": "A4",
                    "midi": 69,
                    "time": 164.99983499999988,
                    "velocity": 0.9763779527559056,
                    "duration": 0.094168432617181
                },
                {
                    "name": "B2",
                    "midi": 47,
                    "time": 165.00890307128893,
                    "velocity": 0.9763779527559056,
                    "duration": 0.7045193847656321
                },
                {
                    "name": "G4",
                    "midi": 67,
                    "time": 165.08423781738267,
                    "velocity": 0.9763779527559056,
                    "duration": 0.09416843261720942
                },
                {
                    "name": "A4",
                    "midi": 69,
                    "time": 165.1686406347655,
                    "velocity": 0.9763779527559056,
                    "duration": 0.09416843261720942
                },
                {
                    "name": "G4",
                    "midi": 67,
                    "time": 165.25304345214832,
                    "velocity": 0.937007874015748,
                    "duration": 0.09626106445313098
                },
                {
                    "name": "F#4",
                    "midi": 66,
                    "time": 165.35558241210927,
                    "velocity": 0.9763779527559056,
                    "duration": 0.3299382861328013
                },
                {
                    "name": "G4",
                    "midi": 67,
                    "time": 165.71411999999987,
                    "velocity": 1,
                    "duration": 0.3564449560546734
                },
                {
                    "name": "E3",
                    "midi": 52,
                    "time": 165.71411999999987,
                    "velocity": 1,
                    "duration": 0.735908862304683
                },
                {
                    "name": "E5",
                    "midi": 76,
                    "time": 166.09916425781236,
                    "velocity": 1,
                    "duration": 0.322962846679701
                },
                {
                    "name": "D5",
                    "midi": 74,
                    "time": 166.45072640624986,
                    "velocity": 0.9763779527559056,
                    "duration": 0.322962846679701
                },
                {
                    "name": "G2",
                    "midi": 43,
                    "time": 166.45072640624986,
                    "velocity": 0.9763779527559056,
                    "duration": 0.7107972802734537
                },
                {
                    "name": "C5",
                    "midi": 72,
                    "time": 166.80228855468738,
                    "velocity": 0.9763779527559056,
                    "duration": 0.3313333740234441
                },
                {
                    "name": "B4",
                    "midi": 71,
                    "time": 167.16222123046862,
                    "velocity": 0.9763779527559056,
                    "duration": 0.3292407421874941
                },
                {
                    "name": "A2",
                    "midi": 45,
                    "time": 167.16222123046862,
                    "velocity": 0.9763779527559056,
                    "duration": 0.7031242968749893
                },
                {
                    "name": "A4",
                    "midi": 69,
                    "time": 167.52006127441393,
                    "velocity": 0.9763779527559056,
                    "duration": 0.31738249511718664
                },
                {
                    "name": "A4",
                    "midi": 69,
                    "time": 167.85697499999986,
                    "velocity": 0.9763779527559056,
                    "duration": 0.094168432617181
                },
                {
                    "name": "B2",
                    "midi": 47,
                    "time": 167.8660430712889,
                    "velocity": 0.9763779527559056,
                    "duration": 0.7045193847656321
                },
                {
                    "name": "G4",
                    "midi": 67,
                    "time": 167.94137781738266,
                    "velocity": 0.9763779527559056,
                    "duration": 0.09416843261720942
                },
                {
                    "name": "A4",
                    "midi": 69,
                    "time": 168.02578063476548,
                    "velocity": 0.9763779527559056,
                    "duration": 0.09416843261720942
                },
                {
                    "name": "G4",
                    "midi": 67,
                    "time": 168.1101834521483,
                    "velocity": 0.937007874015748,
                    "duration": 0.09626106445313098
                },
                {
                    "name": "F#4",
                    "midi": 66,
                    "time": 168.21272241210926,
                    "velocity": 0.9763779527559056,
                    "duration": 0.3299382861328013
                },
                {
                    "name": "E4",
                    "midi": 64,
                    "time": 168.57125999999985,
                    "velocity": 1,
                    "duration": 1.4474036865234723
                },
                {
                    "name": "E2",
                    "midi": 40,
                    "time": 168.57125999999985,
                    "velocity": 1,
                    "duration": 0.3564449560546734
                },
                {
                    "name": "F#2",
                    "midi": 42,
                    "time": 168.95630425781235,
                    "velocity": 0.9921259842519685,
                    "duration": 0.322962846679701
                },
                {
                    "name": "G#2",
                    "midi": 44,
                    "time": 169.30786640624987,
                    "velocity": 0.9763779527559056,
                    "duration": 0.322962846679701
                },
                {
                    "name": "B2",
                    "midi": 47,
                    "time": 169.6594285546874,
                    "velocity": 0.9763779527559056,
                    "duration": 0.3313333740234441
                },
                {
                    "name": "E3",
                    "midi": 52,
                    "time": 170.01936123046863,
                    "velocity": 0.9763779527559056,
                    "duration": 0.3292407421874941
                },
                {
                    "name": "B2",
                    "midi": 47,
                    "time": 170.37720127441395,
                    "velocity": 0.9763779527559056,
                    "duration": 0.31738249511718664
                },
                {
                    "name": "G#2",
                    "midi": 44,
                    "time": 170.72318307128896,
                    "velocity": 0.9763779527559056,
                    "duration": 0.3180800390624938
                },
                {
                    "name": "E2",
                    "midi": 40,
                    "time": 171.06986241210927,
                    "velocity": 0.968503937007874,
                    "duration": 0.3299382861328013
                },
                {
                    "name": "A3",
                    "midi": 57,
                    "time": 171.4283999999999,
                    "velocity": 0.9291338582677166,
                    "duration": 0.3982975927734458
                },
                {
                    "name": "A1",
                    "midi": 33,
                    "time": 171.4283999999999,
                    "velocity": 0.8740157480314961,
                    "duration": 2.856442456054765
                },
                {
                    "name": "A2",
                    "midi": 45,
                    "time": 171.4283999999999,
                    "velocity": 1,
                    "duration": 2.856442456054765
                },
                {
                    "name": "B3",
                    "midi": 59,
                    "time": 171.8134442578124,
                    "velocity": 0.9133858267716536,
                    "duration": 0.36481548339847336
                },
                {
                    "name": "C#4",
                    "midi": 61,
                    "time": 172.16500640624992,
                    "velocity": 0.8818897637795275,
                    "duration": 0.36481548339847336
                },
                {
                    "name": "E4",
                    "midi": 64,
                    "time": 172.51656855468744,
                    "velocity": 0.8818897637795275,
                    "duration": 0.37318601074221647
                },
                {
                    "name": "A4",
                    "midi": 69,
                    "time": 172.8765012304687,
                    "velocity": 0.8818897637795275,
                    "duration": 0.3710933789062665
                },
                {
                    "name": "C#5",
                    "midi": 73,
                    "time": 173.23434127441402,
                    "velocity": 0.8818897637795275,
                    "duration": 0.359235131835959
                },
                {
                    "name": "E5",
                    "midi": 76,
                    "time": 173.58032307128903,
                    "velocity": 0.8818897637795275,
                    "duration": 0.3599326757812662
                },
                {
                    "name": "A4",
                    "midi": 69,
                    "time": 173.92700241210935,
                    "velocity": 0.8818897637795275,
                    "duration": 0.37179092285157367
                },
                {
                    "name": "A5",
                    "midi": 81,
                    "time": 174.28553999999997,
                    "velocity": 0.9291338582677166,
                    "duration": 0.3982975927734742
                },
                {
                    "name": "A2",
                    "midi": 45,
                    "time": 174.28553999999997,
                    "velocity": 0.9291338582677166,
                    "duration": 0.3982975927734742
                },
                {
                    "name": "A4",
                    "midi": 69,
                    "time": 174.6705842578125,
                    "velocity": 0.9133858267716536,
                    "duration": 0.36481548339847336
                },
                {
                    "name": "B2",
                    "midi": 47,
                    "time": 174.6705842578125,
                    "velocity": 0.9133858267716536,
                    "duration": 0.36481548339847336
                },
                {
                    "name": "A5",
                    "midi": 81,
                    "time": 175.02214640625002,
                    "velocity": 0.9763779527559056,
                    "duration": 1.4055510498047568
                },
                {
                    "name": "C#3",
                    "midi": 49,
                    "time": 175.02214640625002,
                    "velocity": 0.8818897637795275,
                    "duration": 0.36481548339847336
                },
                {
                    "name": "E3",
                    "midi": 52,
                    "time": 175.37370855468754,
                    "velocity": 0.8818897637795275,
                    "duration": 0.37318601074221647
                },
                {
                    "name": "A3",
                    "midi": 57,
                    "time": 175.7336412304688,
                    "velocity": 0.8818897637795275,
                    "duration": 0.3710933789062665
                },
                {
                    "name": "C#4",
                    "midi": 61,
                    "time": 176.09148127441412,
                    "velocity": 0.8818897637795275,
                    "duration": 0.359235131835959
                },
                {
                    "name": "B5",
                    "midi": 83,
                    "time": 176.42839500000008,
                    "velocity": 0.9763779527559056,
                    "duration": 0.2573937158203137
                },
                {
                    "name": "E4",
                    "midi": 64,
                    "time": 176.43746307128913,
                    "velocity": 0.8818897637795275,
                    "duration": 0.3599326757812378
                },
                {
                    "name": "A5",
                    "midi": 81,
                    "time": 176.65858450195321,
                    "velocity": 0.9763779527559056,
                    "duration": 0.14997194824215399
                },
                {
                    "name": "A3",
                    "midi": 57,
                    "time": 176.78414241210945,
                    "velocity": 0.8818897637795275,
                    "duration": 0.37179092285154525
                },
                {
                    "name": "B5",
                    "midi": 83,
                    "time": 176.7925129394532,
                    "velocity": 0.9763779527559056,
                    "duration": 0.1499719482421824
                },
                {
                    "name": "A5",
                    "midi": 81,
                    "time": 176.9264413769532,
                    "velocity": 0.937007874015748,
                    "duration": 0.03487719726561522
                },
                {
                    "name": "G#5",
                    "midi": 80,
                    "time": 176.9599234863282,
                    "velocity": 0.9763779527559056,
                    "duration": 0.09835369628905255
                },
                {
                    "name": "A5",
                    "midi": 81,
                    "time": 177.04851156738286,
                    "velocity": 0.937007874015748,
                    "duration": 0.07812492187500197
                },
                {
                    "name": "B5",
                    "midi": 83,
                    "time": 177.14268000000004,
                    "velocity": 1,
                    "duration": 0.35644495605470183
                },
                {
                    "name": "E4",
                    "midi": 64,
                    "time": 177.14268000000004,
                    "velocity": 0.9291338582677166,
                    "duration": 0.3982975927734742
                },
                {
                    "name": "A5",
                    "midi": 81,
                    "time": 177.52772425781257,
                    "velocity": 1,
                    "duration": 0.322962846679701
                },
                {
                    "name": "E3",
                    "midi": 52,
                    "time": 177.52772425781257,
                    "velocity": 0.9133858267716536,
                    "duration": 0.36481548339847336
                },
                {
                    "name": "G#5",
                    "midi": 80,
                    "time": 177.8792864062501,
                    "velocity": 0.9763779527559056,
                    "duration": 0.322962846679701
                },
                {
                    "name": "E4",
                    "midi": 64,
                    "time": 177.8792864062501,
                    "velocity": 0.9763779527559056,
                    "duration": 2.1198360498047464
                },
                {
                    "name": "F#5",
                    "midi": 78,
                    "time": 178.2308485546876,
                    "velocity": 0.9763779527559056,
                    "duration": 0.3313333740234441
                },
                {
                    "name": "E5",
                    "midi": 76,
                    "time": 178.59078123046888,
                    "velocity": 0.9763779527559056,
                    "duration": 0.3292407421874941
                },
                {
                    "name": "D5",
                    "midi": 74,
                    "time": 178.9486212744142,
                    "velocity": 0.9763779527559056,
                    "duration": 0.31738249511718664
                },
                {
                    "name": "D5",
                    "midi": 74,
                    "time": 179.28553500000012,
                    "velocity": 0.9763779527559056,
                    "duration": 0.09416843261720942
                },
                {
                    "name": "C#5",
                    "midi": 73,
                    "time": 179.36993781738295,
                    "velocity": 0.9763779527559056,
                    "duration": 0.09416843261720942
                },
                {
                    "name": "D5",
                    "midi": 74,
                    "time": 179.45434063476577,
                    "velocity": 0.9763779527559056,
                    "duration": 0.09416843261720942
                },
                {
                    "name": "C#5",
                    "midi": 73,
                    "time": 179.5387434521486,
                    "velocity": 0.937007874015748,
                    "duration": 0.09626106445313098
                },
                {
                    "name": "B4",
                    "midi": 71,
                    "time": 179.64128241210955,
                    "velocity": 0.9763779527559056,
                    "duration": 0.3299382861328013
                },
                {
                    "name": "C#5",
                    "midi": 73,
                    "time": 179.99982000000014,
                    "velocity": 1,
                    "duration": 0.3564449560546734
                },
                {
                    "name": "E5",
                    "midi": 76,
                    "time": 180.38486425781264,
                    "velocity": 1,
                    "duration": 0.322962846679701
                },
                {
                    "name": "A4",
                    "midi": 69,
                    "time": 180.73642640625016,
                    "velocity": 0.9763779527559056,
                    "duration": 0.322962846679701
                },
                {
                    "name": "A3",
                    "midi": 57,
                    "time": 180.73642640625016,
                    "velocity": 0.9763779527559056,
                    "duration": 0.7107972802734537
                },
                {
                    "name": "C#5",
                    "midi": 73,
                    "time": 181.08798855468768,
                    "velocity": 0.9763779527559056,
                    "duration": 0.3313333740234441
                },
                {
                    "name": "A3",
                    "midi": 57,
                    "time": 181.42839000000018,
                    "velocity": 0.9763779527559056,
                    "duration": 0.1702007226562614
                },
                {
                    "name": "B4",
                    "midi": 71,
                    "time": 181.44792123046892,
                    "velocity": 0.9763779527559056,
                    "duration": 0.32924074218752253
                },
                {
                    "name": "G#3",
                    "midi": 56,
                    "time": 181.5804545800783,
                    "velocity": 0.9763779527559056,
                    "duration": 0.1702007226562614
                },
                {
                    "name": "A3",
                    "midi": 57,
                    "time": 181.73251916015644,
                    "velocity": 0.9763779527559056,
                    "duration": 0.1702007226562614
                },
                {
                    "name": "E5",
                    "midi": 76,
                    "time": 181.80576127441427,
                    "velocity": 0.9763779527559056,
                    "duration": 0.31738249511718664
                },
                {
                    "name": "G#3",
                    "midi": 56,
                    "time": 181.88458374023458,
                    "velocity": 0.937007874015748,
                    "duration": 0.23786248535157029
                },
                {
                    "name": "G#4",
                    "midi": 68,
                    "time": 182.15174307128927,
                    "velocity": 0.9763779527559056,
                    "duration": 0.3180800390624938
                },
                {
                    "name": "E3",
                    "midi": 52,
                    "time": 182.15174307128927,
                    "velocity": 0.9763779527559056,
                    "duration": 0.7045193847656037
                },
                {
                    "name": "B4",
                    "midi": 71,
                    "time": 182.4984224121096,
                    "velocity": 0.9763779527559056,
                    "duration": 0.3299382861328013
                },
                {
                    "name": "C#5",
                    "midi": 73,
                    "time": 182.85696000000019,
                    "velocity": 1,
                    "duration": 0.3564449560546734
                },
                {
                    "name": "A3",
                    "midi": 57,
                    "time": 182.85696000000019,
                    "velocity": 0.9763779527559056,
                    "duration": 0.7714836035156338
                },
                {
                    "name": "E5",
                    "midi": 76,
                    "time": 183.24200425781268,
                    "velocity": 1,
                    "duration": 0.322962846679701
                },
                {
                    "name": "A3",
                    "midi": 57,
                    "time": 183.5712450000002,
                    "velocity": 0.9763779527559056,
                    "duration": 0.1708982666015686
                },
                {
                    "name": "B4",
                    "midi": 71,
                    "time": 183.5935664062502,
                    "velocity": 0.9763779527559056,
                    "duration": 0.322962846679701
                },
                {
                    "name": "G#3",
                    "midi": 56,
                    "time": 183.72400712402364,
                    "velocity": 0.9763779527559056,
                    "duration": 0.1708982666015686
                },
                {
                    "name": "A3",
                    "midi": 57,
                    "time": 183.87676924804708,
                    "velocity": 0.9763779527559056,
                    "duration": 0.17089826660159702
                },
                {
                    "name": "E5",
                    "midi": 76,
                    "time": 183.94512855468773,
                    "velocity": 0.9763779527559056,
                    "duration": 0.3313333740234441
                },
                {
                    "name": "G#3",
                    "midi": 56,
                    "time": 184.02953137207055,
                    "velocity": 0.937007874015748,
                    "duration": 0.2357698535156203
                },
                {
                    "name": "A4",
                    "midi": 69,
                    "time": 184.305061230469,
                    "velocity": 0.9763779527559056,
                    "duration": 0.3292407421874941
                },
                {
                    "name": "F#3",
                    "midi": 54,
                    "time": 184.305061230469,
                    "velocity": 0.9763779527559056,
                    "duration": 1.4083412255859287
                },
                {
                    "name": "C#5",
                    "midi": 73,
                    "time": 184.6629012744143,
                    "velocity": 0.9763779527559056,
                    "duration": 0.31738249511718664
                },
                {
                    "name": "C#5",
                    "midi": 73,
                    "time": 184.99981500000024,
                    "velocity": 0.9763779527559056,
                    "duration": 0.094168432617181
                },
                {
                    "name": "A3",
                    "midi": 57,
                    "time": 185.0088830712893,
                    "velocity": 0.9763779527559056,
                    "duration": 0.7045193847656321
                },
                {
                    "name": "B4",
                    "midi": 71,
                    "time": 185.08421781738303,
                    "velocity": 0.9763779527559056,
                    "duration": 0.09416843261720942
                },
                {
                    "name": "C#5",
                    "midi": 73,
                    "time": 185.16862063476586,
                    "velocity": 0.9763779527559056,
                    "duration": 0.09416843261720942
                },
                {
                    "name": "B4",
                    "midi": 71,
                    "time": 185.25302345214868,
                    "velocity": 0.937007874015748,
                    "duration": 0.09626106445313098
                },
                {
                    "name": "A4",
                    "midi": 69,
                    "time": 185.35556241210963,
                    "velocity": 0.9763779527559056,
                    "duration": 0.3299382861328013
                },
                {
                    "name": "B4",
                    "midi": 71,
                    "time": 185.71410000000023,
                    "velocity": 1,
                    "duration": 0.3564449560546734
                },
                {
                    "name": "G#3",
                    "midi": 56,
                    "time": 185.71410000000023,
                    "velocity": 1,
                    "duration": 1.4474036865234723
                },
                {
                    "name": "E3",
                    "midi": 52,
                    "time": 185.71410000000023,
                    "velocity": 1,
                    "duration": 2.8564424560547366
                },
                {
                    "name": "A4",
                    "midi": 69,
                    "time": 186.09914425781272,
                    "velocity": 1,
                    "duration": 0.322962846679701
                },
                {
                    "name": "G#4",
                    "midi": 68,
                    "time": 186.45070640625025,
                    "velocity": 0.9763779527559056,
                    "duration": 0.322962846679701
                },
                {
                    "name": "F#4",
                    "midi": 66,
                    "time": 186.80226855468777,
                    "velocity": 0.9763779527559056,
                    "duration": 0.3313333740234441
                },
                {
                    "name": "E4",
                    "midi": 64,
                    "time": 187.162201230469,
                    "velocity": 0.9763779527559056,
                    "duration": 0.3292407421874941
                },
                {
                    "name": "E2",
                    "midi": 40,
                    "time": 187.162201230469,
                    "velocity": 0.968503937007874,
                    "duration": 1.408341225585957
                },
                {
                    "name": "D4",
                    "midi": 62,
                    "time": 187.52004127441433,
                    "velocity": 0.9763779527559056,
                    "duration": 0.31738249511718664
                },
                {
                    "name": "D4",
                    "midi": 62,
                    "time": 187.85695500000026,
                    "velocity": 0.9763779527559056,
                    "duration": 0.09416843261720942
                },
                {
                    "name": "C#4",
                    "midi": 61,
                    "time": 187.94135781738308,
                    "velocity": 0.9763779527559056,
                    "duration": 0.09416843261720942
                },
                {
                    "name": "D4",
                    "midi": 62,
                    "time": 188.0257606347659,
                    "velocity": 0.9763779527559056,
                    "duration": 0.09416843261720942
                },
                {
                    "name": "C#4",
                    "midi": 61,
                    "time": 188.11016345214873,
                    "velocity": 0.937007874015748,
                    "duration": 0.09626106445313098
                },
                {
                    "name": "B3",
                    "midi": 59,
                    "time": 188.21270241210968,
                    "velocity": 0.9763779527559056,
                    "duration": 0.3299382861328013
                },
                {
                    "name": "A3",
                    "midi": 57,
                    "time": 188.57124000000027,
                    "velocity": 1,
                    "duration": 0.3564449560546734
                },
                {
                    "name": "A1",
                    "midi": 33,
                    "time": 188.57124000000027,
                    "velocity": 0.8740157480314961,
                    "duration": 2.8564424560547366
                },
                {
                    "name": "A2",
                    "midi": 45,
                    "time": 188.57124000000027,
                    "velocity": 1,
                    "duration": 2.8564424560547366
                },
                {
                    "name": "B3",
                    "midi": 59,
                    "time": 188.95628425781277,
                    "velocity": 1,
                    "duration": 0.322962846679701
                },
                {
                    "name": "C#4",
                    "midi": 61,
                    "time": 189.3078464062503,
                    "velocity": 0.9763779527559056,
                    "duration": 0.322962846679701
                },
                {
                    "name": "E4",
                    "midi": 64,
                    "time": 189.65940855468781,
                    "velocity": 0.9763779527559056,
                    "duration": 0.3313333740234441
                },
                {
                    "name": "A4",
                    "midi": 69,
                    "time": 190.01934123046908,
                    "velocity": 0.9763779527559056,
                    "duration": 0.3292407421874941
                },
                {
                    "name": "C#5",
                    "midi": 73,
                    "time": 190.3771812744144,
                    "velocity": 0.9763779527559056,
                    "duration": 0.31738249511718664
                },
                {
                    "name": "E5",
                    "midi": 76,
                    "time": 190.7231630712894,
                    "velocity": 0.9763779527559056,
                    "duration": 0.3180800390624938
                },
                {
                    "name": "A4",
                    "midi": 69,
                    "time": 191.06984241210972,
                    "velocity": 0.9763779527559056,
                    "duration": 0.3299382861328013
                },
                {
                    "name": "A5",
                    "midi": 81,
                    "time": 191.42838000000032,
                    "velocity": 1,
                    "duration": 0.3564449560546734
                },
                {
                    "name": "A2",
                    "midi": 45,
                    "time": 191.42838000000032,
                    "velocity": 0.9291338582677166,
                    "duration": 0.3982975927734458
                },
                {
                    "name": "A4",
                    "midi": 69,
                    "time": 191.8134242578128,
                    "velocity": 1,
                    "duration": 0.322962846679701
                },
                {
                    "name": "B2",
                    "midi": 47,
                    "time": 191.8134242578128,
                    "velocity": 0.9133858267716536,
                    "duration": 0.36481548339847336
                },
                {
                    "name": "A5",
                    "midi": 81,
                    "time": 192.16498640625034,
                    "velocity": 0.9763779527559056,
                    "duration": 1.4055510498047568
                },
                {
                    "name": "C#3",
                    "midi": 49,
                    "time": 192.16498640625034,
                    "velocity": 0.8818897637795275,
                    "duration": 0.36481548339847336
                },
                {
                    "name": "E3",
                    "midi": 52,
                    "time": 192.51654855468786,
                    "velocity": 0.8818897637795275,
                    "duration": 0.37318601074221647
                },
                {
                    "name": "A3",
                    "midi": 57,
                    "time": 192.87648123046912,
                    "velocity": 0.8818897637795275,
                    "duration": 0.3710933789062665
                },
                {
                    "name": "C#4",
                    "midi": 61,
                    "time": 193.23432127441444,
                    "velocity": 0.8818897637795275,
                    "duration": 0.359235131835959
                },
                {
                    "name": "B5",
                    "midi": 83,
                    "time": 193.5712350000004,
                    "velocity": 0.9763779527559056,
                    "duration": 0.2559986279296709
                },
                {
                    "name": "E4",
                    "midi": 64,
                    "time": 193.58030307128945,
                    "velocity": 0.8818897637795275,
                    "duration": 0.3599326757812662
                },
                {
                    "name": "A5",
                    "midi": 81,
                    "time": 193.8000294140629,
                    "velocity": 0.9763779527559056,
                    "duration": 0.14997194824221083
                },
                {
                    "name": "A3",
                    "midi": 57,
                    "time": 193.92698241210977,
                    "velocity": 0.8818897637795275,
                    "duration": 0.37179092285157367
                },
                {
                    "name": "B5",
                    "midi": 83,
                    "time": 193.9339578515629,
                    "velocity": 0.9763779527559056,
                    "duration": 0.14997194824221083
                },
                {
                    "name": "A5",
                    "midi": 81,
                    "time": 194.06788628906293,
                    "velocity": 0.937007874015748,
                    "duration": 0.0362722851562296
                },
                {
                    "name": "G#5",
                    "midi": 80,
                    "time": 194.10276348632854,
                    "velocity": 0.9763779527559056,
                    "duration": 0.09835369628905255
                },
                {
                    "name": "A5",
                    "midi": 81,
                    "time": 194.1913515673832,
                    "velocity": 0.937007874015748,
                    "duration": 0.07812492187500197
                },
                {
                    "name": "B5",
                    "midi": 83,
                    "time": 194.2855200000004,
                    "velocity": 1,
                    "duration": 0.35644495605470183
                },
                {
                    "name": "E4",
                    "midi": 64,
                    "time": 194.2855200000004,
                    "velocity": 0.9291338582677166,
                    "duration": 0.3982975927734742
                },
                {
                    "name": "A5",
                    "midi": 81,
                    "time": 194.6705642578129,
                    "velocity": 1,
                    "duration": 0.322962846679701
                },
                {
                    "name": "E3",
                    "midi": 52,
                    "time": 194.6705642578129,
                    "velocity": 0.9133858267716536,
                    "duration": 0.36481548339847336
                },
                {
                    "name": "G#5",
                    "midi": 80,
                    "time": 195.02212640625044,
                    "velocity": 0.9763779527559056,
                    "duration": 0.322962846679701
                },
                {
                    "name": "E4",
                    "midi": 64,
                    "time": 195.02212640625044,
                    "velocity": 0.9763779527559056,
                    "duration": 2.1198360498047464
                },
                {
                    "name": "F#5",
                    "midi": 78,
                    "time": 195.37368855468796,
                    "velocity": 0.9763779527559056,
                    "duration": 0.3313333740234441
                },
                {
                    "name": "E5",
                    "midi": 76,
                    "time": 195.73362123046923,
                    "velocity": 0.9763779527559056,
                    "duration": 0.3292407421874941
                },
                {
                    "name": "D5",
                    "midi": 74,
                    "time": 196.09146127441454,
                    "velocity": 0.9763779527559056,
                    "duration": 0.31738249511718664
                },
                {
                    "name": "D5",
                    "midi": 74,
                    "time": 196.42837500000047,
                    "velocity": 0.9763779527559056,
                    "duration": 0.09416843261720942
                },
                {
                    "name": "C#5",
                    "midi": 73,
                    "time": 196.5127778173833,
                    "velocity": 0.9763779527559056,
                    "duration": 0.09416843261720942
                },
                {
                    "name": "D5",
                    "midi": 74,
                    "time": 196.59718063476612,
                    "velocity": 0.9763779527559056,
                    "duration": 0.09416843261720942
                },
                {
                    "name": "C#5",
                    "midi": 73,
                    "time": 196.68158345214894,
                    "velocity": 0.937007874015748,
                    "duration": 0.09626106445313098
                },
                {
                    "name": "B4",
                    "midi": 71,
                    "time": 196.7841224121099,
                    "velocity": 0.9763779527559056,
                    "duration": 0.3299382861328013
                },
                {
                    "name": "C#5",
                    "midi": 73,
                    "time": 197.1426600000005,
                    "velocity": 1,
                    "duration": 0.3564449560546734
                },
                {
                    "name": "E5",
                    "midi": 76,
                    "time": 197.52770425781299,
                    "velocity": 1,
                    "duration": 0.322962846679701
                },
                {
                    "name": "A4",
                    "midi": 69,
                    "time": 197.8792664062505,
                    "velocity": 0.9763779527559056,
                    "duration": 0.322962846679701
                },
                {
                    "name": "A3",
                    "midi": 57,
                    "time": 197.8792664062505,
                    "velocity": 0.9763779527559056,
                    "duration": 0.7107972802734537
                },
                {
                    "name": "C#5",
                    "midi": 73,
                    "time": 198.23082855468803,
                    "velocity": 0.9763779527559056,
                    "duration": 0.3313333740234441
                },
                {
                    "name": "A3",
                    "midi": 57,
                    "time": 198.57123000000053,
                    "velocity": 0.9763779527559056,
                    "duration": 0.1702007226562614
                },
                {
                    "name": "B4",
                    "midi": 71,
                    "time": 198.59076123046927,
                    "velocity": 0.9763779527559056,
                    "duration": 0.32924074218752253
                },
                {
                    "name": "G#3",
                    "midi": 56,
                    "time": 198.72329458007866,
                    "velocity": 0.9763779527559056,
                    "duration": 0.1702007226562614
                },
                {
                    "name": "A3",
                    "midi": 57,
                    "time": 198.8753591601568,
                    "velocity": 0.9763779527559056,
                    "duration": 0.1702007226562614
                },
                {
                    "name": "E5",
                    "midi": 76,
                    "time": 198.9486012744146,
                    "velocity": 0.9763779527559056,
                    "duration": 0.31738249511718664
                },
                {
                    "name": "G#3",
                    "midi": 56,
                    "time": 199.02742374023492,
                    "velocity": 0.937007874015748,
                    "duration": 0.23786248535157029
                },
                {
                    "name": "G#4",
                    "midi": 68,
                    "time": 199.29458307128962,
                    "velocity": 0.9763779527559056,
                    "duration": 0.3180800390624938
                },
                {
                    "name": "E3",
                    "midi": 52,
                    "time": 199.29458307128962,
                    "velocity": 0.9763779527559056,
                    "duration": 0.7045193847656037
                },
                {
                    "name": "B4",
                    "midi": 71,
                    "time": 199.64126241210994,
                    "velocity": 0.9763779527559056,
                    "duration": 0.3299382861328013
                },
                {
                    "name": "C#5",
                    "midi": 73,
                    "time": 199.99980000000053,
                    "velocity": 1,
                    "duration": 0.3564449560546734
                },
                {
                    "name": "A3",
                    "midi": 57,
                    "time": 199.99980000000053,
                    "velocity": 1,
                    "duration": 0.735908862304683
                },
                {
                    "name": "E5",
                    "midi": 76,
                    "time": 200.38484425781303,
                    "velocity": 1,
                    "duration": 0.322962846679701
                },
                {
                    "name": "A4",
                    "midi": 69,
                    "time": 200.73640640625052,
                    "velocity": 0.9763779527559056,
                    "duration": 0.322962846679701
                },
                {
                    "name": "C#3",
                    "midi": 49,
                    "time": 200.73640640625052,
                    "velocity": 0.9763779527559056,
                    "duration": 0.7107972802734537
                },
                {
                    "name": "C#5",
                    "midi": 73,
                    "time": 201.08796855468805,
                    "velocity": 0.9763779527559056,
                    "duration": 0.3313333740234441
                },
                {
                    "name": "B4",
                    "midi": 71,
                    "time": 201.44790123046928,
                    "velocity": 0.9763779527559056,
                    "duration": 0.3292407421874941
                },
                {
                    "name": "D3",
                    "midi": 50,
                    "time": 201.44790123046928,
                    "velocity": 0.9763779527559056,
                    "duration": 0.7031242968749893
                },
                {
                    "name": "E5",
                    "midi": 76,
                    "time": 201.8057412744146,
                    "velocity": 0.9763779527559056,
                    "duration": 0.31738249511718664
                },
                {
                    "name": "G#4",
                    "midi": 68,
                    "time": 202.15172307128958,
                    "velocity": 0.9763779527559056,
                    "duration": 0.3180800390624938
                },
                {
                    "name": "E3",
                    "midi": 52,
                    "time": 202.15172307128958,
                    "velocity": 0.9763779527559056,
                    "duration": 0.7045193847656037
                },
                {
                    "name": "B4",
                    "midi": 71,
                    "time": 202.4984024121099,
                    "velocity": 0.9763779527559056,
                    "duration": 0.3299382861328013
                },
                {
                    "name": "A4",
                    "midi": 69,
                    "time": 202.8569400000005,
                    "velocity": 0.9763779527559056,
                    "duration": 5.763805620117239
                },
                {
                    "name": "A2",
                    "midi": 45,
                    "time": 202.8569400000005,
                    "velocity": 1,
                    "duration": 0.3564449560546734
                },
                {
                    "name": "B2",
                    "midi": 47,
                    "time": 203.241984257813,
                    "velocity": 1,
                    "duration": 0.322962846679701
                },
                {
                    "name": "C#3",
                    "midi": 49,
                    "time": 203.5935464062505,
                    "velocity": 0.9763779527559056,
                    "duration": 0.322962846679701
                },
                {
                    "name": "E3",
                    "midi": 52,
                    "time": 203.94510855468803,
                    "velocity": 0.9763779527559056,
                    "duration": 0.3313333740234441
                },
                {
                    "name": "A3",
                    "midi": 57,
                    "time": 204.3050412304693,
                    "velocity": 0.9763779527559056,
                    "duration": 0.3292407421874941
                },
                {
                    "name": "E3",
                    "midi": 52,
                    "time": 204.66288127441462,
                    "velocity": 0.9763779527559056,
                    "duration": 0.31738249511718664
                },
                {
                    "name": "C#3",
                    "midi": 49,
                    "time": 205.00886307128962,
                    "velocity": 0.9763779527559056,
                    "duration": 0.3180800390624938
                },
                {
                    "name": "A2",
                    "midi": 45,
                    "time": 205.35554241210994,
                    "velocity": 0.9763779527559056,
                    "duration": 3.214980043945303
                },
                {
                    "name": "A1",
                    "midi": 33,
                    "time": 205.71408000000056,
                    "velocity": 0.8740157480314961,
                    "duration": 2.8564424560546797
                }
            ],
            "controlChanges": {
                "6": [
                    {
                        "number": 6,
                        "time": 0.00279017578125,
                        "value": 0.09448818897637795
                    },
                    {
                        "number": 6,
                        "time": 0.00279017578125,
                        "value": 0.09448818897637795
                    },
                    {
                        "number": 6,
                        "time": 34.288470175781235,
                        "value": 0.09448818897637795
                    },
                    {
                        "number": 6,
                        "time": 34.288470175781235,
                        "value": 0.09448818897637795
                    }
                ],
                "7": [
                    {
                        "number": 7,
                        "time": 0,
                        "value": 1
                    },
                    {
                        "number": 7,
                        "time": 0,
                        "value": 1
                    },
                    {
                        "number": 7,
                        "time": 34.28567999999998,
                        "value": 1
                    },
                    {
                        "number": 7,
                        "time": 34.28567999999998,
                        "value": 1
                    }
                ],
                "10": [
                    {
                        "number": 10,
                        "time": 0.0006975439453125,
                        "value": 0.5039370078740157
                    },
                    {
                        "number": 10,
                        "time": 0.0006975439453125,
                        "value": 0.5039370078740157
                    },
                    {
                        "number": 10,
                        "time": 34.28637754394529,
                        "value": 0.5039370078740157
                    },
                    {
                        "number": 10,
                        "time": 34.28637754394529,
                        "value": 0.5039370078740157
                    }
                ],
                "12": [
                    {
                        "number": 12,
                        "time": 0.001395087890625,
                        "value": 0.023622047244094488
                    },
                    {
                        "number": 12,
                        "time": 0.001395087890625,
                        "value": 0.023622047244094488
                    },
                    {
                        "number": 12,
                        "time": 34.28707508789061,
                        "value": 0.023622047244094488
                    },
                    {
                        "number": 12,
                        "time": 34.28707508789061,
                        "value": 0.023622047244094488
                    }
                ],
                "38": [
                    {
                        "number": 38,
                        "time": 0.0034877197265624996,
                        "value": 0
                    },
                    {
                        "number": 38,
                        "time": 0.0034877197265624996,
                        "value": 0
                    },
                    {
                        "number": 38,
                        "time": 34.28916771972655,
                        "value": 0
                    },
                    {
                        "number": 38,
                        "time": 34.28916771972655,
                        "value": 0
                    }
                ],
                "91": [
                    {
                        "number": 91,
                        "time": 0.001395087890625,
                        "value": 0.4881889763779528
                    },
                    {
                        "number": 91,
                        "time": 0.001395087890625,
                        "value": 0.4881889763779528
                    },
                    {
                        "number": 91,
                        "time": 34.28707508789061,
                        "value": 0.4881889763779528
                    },
                    {
                        "number": 91,
                        "time": 34.28707508789061,
                        "value": 0.4881889763779528
                    }
                ],
                "100": [
                    {
                        "number": 100,
                        "time": 0.0020926318359375,
                        "value": 0
                    },
                    {
                        "number": 100,
                        "time": 0.0020926318359375,
                        "value": 0
                    },
                    {
                        "number": 100,
                        "time": 34.28777263183592,
                        "value": 0
                    },
                    {
                        "number": 100,
                        "time": 34.28777263183592,
                        "value": 0
                    }
                ],
                "101": [
                    {
                        "number": 101,
                        "time": 0.0020926318359375,
                        "value": 0
                    },
                    {
                        "number": 101,
                        "time": 0.0020926318359375,
                        "value": 0
                    },
                    {
                        "number": 101,
                        "time": 34.28777263183592,
                        "value": 0
                    },
                    {
                        "number": 101,
                        "time": 34.28777263183592,
                        "value": 0
                    }
                ]
            },
            "id": 1,
            "name": "Instrument 1",
            "instrumentNumber": 6,
            "instrument": "harpsichord",
            "instrumentFamily": "piano",
            "channelNumber": 0,
            "isPercussion": false
        },
        {
            "startTime": 0,
            "duration": 0,
            "length": 0,
            "notes": [],
            "controlChanges": {},
            "id": 2
        }
    ]
}