{
    "header": {
        "PPQ": 1024,
        "timeSignature": [
            3,
            4
        ],
        "bpm": 96,
        "name": ""
    },
    "startTime": 0,
    "duration": 645,
    "tracks": [
        {
            "startTime": 0,
            "duration": 0,
            "length": 0,
            "notes": [],
            "controlChanges": {},
            "id": 0
        },
        {
            "startTime": 0,
            "duration": 645,
            "length": 1769,
            "notes": [
                {
                    "name": "D5",
                    "midi": 74,
                    "time": 0,
                    "velocity": 0.5039370078740157,
                    "duration": 0.625
                },
                {
                    "name": "D5",
                    "midi": 74,
                    "time": 0.625,
                    "velocity": 0.5039370078740157,
                    "duration": 0.9375
                },
                {
                    "name": "D5",
                    "midi": 74,
                    "time": 1.5625,
                    "velocity": 0.5039370078740157,
                    "duration": 0.3125
                },
                {
                    "name": "C#5",
                    "midi": 73,
                    "time": 1.875,
                    "velocity": 0.5039370078740157,
                    "duration": 0.625
                },
                {
                    "name": "C#5",
                    "midi": 73,
                    "time": 2.5,
                    "velocity": 0.5039370078740157,
                    "duration": 0.9375
                },
                {
                    "name": "C#5",
                    "midi": 73,
                    "time": 3.4375,
                    "velocity": 0.5039370078740157,
                    "duration": 0.3125
                },
                {
                    "name": "D5",
                    "midi": 74,
                    "time": 3.75,
                    "velocity": 0.5039370078740157,
                    "duration": 0.625
                },
                {
                    "name": "D5",
                    "midi": 74,
                    "time": 4.375,
                    "velocity": 0.5039370078740157,
                    "duration": 0.9375
                },
                {
                    "name": "D5",
                    "midi": 74,
                    "time": 5.3125,
                    "velocity": 0.5039370078740157,
                    "duration": 0.3125
                },
                {
                    "name": "E5",
                    "midi": 76,
                    "time": 5.625,
                    "velocity": 0.5039370078740157,
                    "duration": 0.625
                },
                {
                    "name": "E5",
                    "midi": 76,
                    "time": 6.25,
                    "velocity": 0.5039370078740157,
                    "duration": 0.9375
                },
                {
                    "name": "E5",
                    "midi": 76,
                    "time": 7.1875,
                    "velocity": 0.5039370078740157,
                    "duration": 0.3125
                },
                {
                    "name": "F5",
                    "midi": 77,
                    "time": 7.5,
                    "velocity": 0.5039370078740157,
                    "duration": 0.625
                },
                {
                    "name": "F5",
                    "midi": 77,
                    "time": 8.125,
                    "velocity": 0.5039370078740157,
                    "duration": 0.9375
                },
                {
                    "name": "F5",
                    "midi": 77,
                    "time": 9.0625,
                    "velocity": 0.5039370078740157,
                    "duration": 0.3125
                },
                {
                    "name": "E5",
                    "midi": 76,
                    "time": 9.375,
                    "velocity": 0.5039370078740157,
                    "duration": 0.625
                },
                {
                    "name": "E5",
                    "midi": 76,
                    "time": 10,
                    "velocity": 0.5039370078740157,
                    "duration": 0.9375
                },
                {
                    "name": "E5",
                    "midi": 76,
                    "time": 10.9375,
                    "velocity": 0.5039370078740157,
                    "duration": 0.3125
                },
                {
                    "name": "D5",
                    "midi": 74,
                    "time": 11.25,
                    "velocity": 0.5039370078740157,
                    "duration": 0.625
                },
                {
                    "name": "D5",
                    "midi": 74,
                    "time": 11.875,
                    "velocity": 0.5039370078740157,
                    "duration": 0.9375
                },
                {
                    "name": "D5",
                    "midi": 74,
                    "time": 12.8125,
                    "velocity": 0.5039370078740157,
                    "duration": 0.3125
                },
                {
                    "name": "C#5",
                    "midi": 73,
                    "time": 13.125,
                    "velocity": 0.5039370078740157,
                    "duration": 1.875
                },
                {
                    "name": "D5",
                    "midi": 74,
                    "time": 15,
                    "velocity": 0.3858267716535433,
                    "duration": 0.625
                },
                {
                    "name": "D5",
                    "midi": 74,
                    "time": 15.625,
                    "velocity": 0.3858267716535433,
                    "duration": 0.9375
                },
                {
                    "name": "D5",
                    "midi": 74,
                    "time": 16.5625,
                    "velocity": 0.3858267716535433,
                    "duration": 0.3125
                },
                {
                    "name": "C#5",
                    "midi": 73,
                    "time": 16.875,
                    "velocity": 0.3858267716535433,
                    "duration": 0.625
                },
                {
                    "name": "C#5",
                    "midi": 73,
                    "time": 17.5,
                    "velocity": 0.3858267716535433,
                    "duration": 0.9375
                },
                {
                    "name": "C#5",
                    "midi": 73,
                    "time": 18.4375,
                    "velocity": 0.3858267716535433,
                    "duration": 0.3125
                },
                {
                    "name": "D5",
                    "midi": 74,
                    "time": 18.75,
                    "velocity": 0.3858267716535433,
                    "duration": 0.625
                },
                {
                    "name": "D5",
                    "midi": 74,
                    "time": 19.375,
                    "velocity": 0.3858267716535433,
                    "duration": 0.9375
                },
                {
                    "name": "D5",
                    "midi": 74,
                    "time": 20.3125,
                    "velocity": 0.3858267716535433,
                    "duration": 0.3125
                },
                {
                    "name": "E5",
                    "midi": 76,
                    "time": 20.625,
                    "velocity": 0.3858267716535433,
                    "duration": 0.625
                },
                {
                    "name": "E5",
                    "midi": 76,
                    "time": 21.25,
                    "velocity": 0.3858267716535433,
                    "duration": 0.9375
                },
                {
                    "name": "E5",
                    "midi": 76,
                    "time": 22.1875,
                    "velocity": 0.3858267716535433,
                    "duration": 0.3125
                },
                {
                    "name": "F5",
                    "midi": 77,
                    "time": 22.5,
                    "velocity": 0.3858267716535433,
                    "duration": 0.625
                },
                {
                    "name": "F5",
                    "midi": 77,
                    "time": 23.125,
                    "velocity": 0.3858267716535433,
                    "duration": 0.9375
                },
                {
                    "name": "F5",
                    "midi": 77,
                    "time": 24.0625,
                    "velocity": 0.3858267716535433,
                    "duration": 0.3125
                },
                {
                    "name": "E5",
                    "midi": 76,
                    "time": 24.375,
                    "velocity": 0.3858267716535433,
                    "duration": 0.625
                },
                {
                    "name": "E5",
                    "midi": 76,
                    "time": 25,
                    "velocity": 0.3858267716535433,
                    "duration": 0.3125
                },
                {
                    "name": "F5",
                    "midi": 77,
                    "time": 25.3125,
                    "velocity": 0.3858267716535433,
                    "duration": 0.3125
                },
                {
                    "name": "G5",
                    "midi": 79,
                    "time": 25.625,
                    "velocity": 0.3858267716535433,
                    "duration": 0.625
                },
                {
                    "name": "F5",
                    "midi": 77,
                    "time": 26.25,
                    "velocity": 0.3858267716535433,
                    "duration": 0.3125
                },
                {
                    "name": "E5",
                    "midi": 76,
                    "time": 26.5625,
                    "velocity": 0.3858267716535433,
                    "duration": 0.15625
                },
                {
                    "name": "D5",
                    "midi": 74,
                    "time": 26.71875,
                    "velocity": 0.3858267716535433,
                    "duration": 0.15625
                },
                {
                    "name": "C#5",
                    "midi": 73,
                    "time": 26.875,
                    "velocity": 0.3858267716535433,
                    "duration": 0.9375
                },
                {
                    "name": "D5",
                    "midi": 74,
                    "time": 27.8125,
                    "velocity": 0.3858267716535433,
                    "duration": 0.3125
                },
                {
                    "name": "D5",
                    "midi": 74,
                    "time": 28.125,
                    "velocity": 0.3858267716535433,
                    "duration": 1.875
                },
                {
                    "name": "F5",
                    "midi": 77,
                    "time": 30,
                    "velocity": 0.3858267716535433,
                    "duration": 0.625
                },
                {
                    "name": "F5",
                    "midi": 77,
                    "time": 30.625,
                    "velocity": 0.3858267716535433,
                    "duration": 0.46875
                },
                {
                    "name": "G5",
                    "midi": 79,
                    "time": 31.09375,
                    "velocity": 0.3858267716535433,
                    "duration": 0.15625
                },
                {
                    "name": "A5",
                    "midi": 81,
                    "time": 31.25,
                    "velocity": 0.3858267716535433,
                    "duration": 0.46875
                },
                {
                    "name": "F5",
                    "midi": 77,
                    "time": 31.71875,
                    "velocity": 0.3858267716535433,
                    "duration": 0.15625
                },
                {
                    "name": "E5",
                    "midi": 76,
                    "time": 31.875,
                    "velocity": 0.3858267716535433,
                    "duration": 0.625
                },
                {
                    "name": "E5",
                    "midi": 76,
                    "time": 32.5,
                    "velocity": 0.3858267716535433,
                    "duration": 0.9375
                },
                {
                    "name": "E5",
                    "midi": 76,
                    "time": 33.4375,
                    "velocity": 0.3858267716535433,
                    "duration": 0.3125
                },
                {
                    "name": "F5",
                    "midi": 77,
                    "time": 33.75,
                    "velocity": 0.3858267716535433,
                    "duration": 0.625
                },
                {
                    "name": "F5",
                    "midi": 77,
                    "time": 34.375,
                    "velocity": 0.3858267716535433,
                    "duration": 0.46875
                },
                {
                    "name": "G5",
                    "midi": 79,
                    "time": 34.84375,
                    "velocity": 0.3858267716535433,
                    "duration": 0.15625
                },
                {
                    "name": "A5",
                    "midi": 81,
                    "time": 35,
                    "velocity": 0.3858267716535433,
                    "duration": 0.46875
                },
                {
                    "name": "F5",
                    "midi": 77,
                    "time": 35.46875,
                    "velocity": 0.3858267716535433,
                    "duration": 0.15625
                },
                {
                    "name": "G5",
                    "midi": 79,
                    "time": 35.625,
                    "velocity": 0.3858267716535433,
                    "duration": 0.625
                },
                {
                    "name": "G5",
                    "midi": 79,
                    "time": 36.25,
                    "velocity": 0.3858267716535433,
                    "duration": 0.9375
                },
                {
                    "name": "G5",
                    "midi": 79,
                    "time": 37.1875,
                    "velocity": 0.3858267716535433,
                    "duration": 0.3125
                },
                {
                    "name": "A5",
                    "midi": 81,
                    "time": 37.5,
                    "velocity": 0.3858267716535433,
                    "duration": 0.625
                },
                {
                    "name": "A5",
                    "midi": 81,
                    "time": 38.125,
                    "velocity": 0.3858267716535433,
                    "duration": 0.46875
                },
                {
                    "name": "A#5",
                    "midi": 82,
                    "time": 38.59375,
                    "velocity": 0.3858267716535433,
                    "duration": 0.15625
                },
                {
                    "name": "C6",
                    "midi": 84,
                    "time": 38.75,
                    "velocity": 0.3858267716535433,
                    "duration": 0.46875
                },
                {
                    "name": "A5",
                    "midi": 81,
                    "time": 39.21875,
                    "velocity": 0.3858267716535433,
                    "duration": 0.15625
                },
                {
                    "name": "G5",
                    "midi": 79,
                    "time": 39.375,
                    "velocity": 0.3858267716535433,
                    "duration": 0.625
                },
                {
                    "name": "G5",
                    "midi": 79,
                    "time": 40,
                    "velocity": 0.3858267716535433,
                    "duration": 0.46875
                },
                {
                    "name": "A5",
                    "midi": 81,
                    "time": 40.46875,
                    "velocity": 0.3858267716535433,
                    "duration": 0.15625
                },
                {
                    "name": "A#5",
                    "midi": 82,
                    "time": 40.625,
                    "velocity": 0.3858267716535433,
                    "duration": 0.46875
                },
                {
                    "name": "G5",
                    "midi": 79,
                    "time": 41.09375,
                    "velocity": 0.3858267716535433,
                    "duration": 0.15625
                },
                {
                    "name": "F5",
                    "midi": 77,
                    "time": 41.25,
                    "velocity": 0.3858267716535433,
                    "duration": 0.625
                },
                {
                    "name": "F5",
                    "midi": 77,
                    "time": 41.875,
                    "velocity": 0.3858267716535433,
                    "duration": 0.46875
                },
                {
                    "name": "G5",
                    "midi": 79,
                    "time": 42.34375,
                    "velocity": 0.3858267716535433,
                    "duration": 0.15625
                },
                {
                    "name": "A5",
                    "midi": 81,
                    "time": 42.5,
                    "velocity": 0.3858267716535433,
                    "duration": 0.46875
                },
                {
                    "name": "F5",
                    "midi": 77,
                    "time": 42.96875,
                    "velocity": 0.3858267716535433,
                    "duration": 0.15625
                },
                {
                    "name": "E5",
                    "midi": 76,
                    "time": 43.125,
                    "velocity": 0.3858267716535433,
                    "duration": 1.875
                },
                {
                    "name": "F5",
                    "midi": 77,
                    "time": 45,
                    "velocity": 0.3858267716535433,
                    "duration": 0.625
                },
                {
                    "name": "F5",
                    "midi": 77,
                    "time": 45.625,
                    "velocity": 0.3858267716535433,
                    "duration": 0.46875
                },
                {
                    "name": "G5",
                    "midi": 79,
                    "time": 46.09375,
                    "velocity": 0.3858267716535433,
                    "duration": 0.15625
                },
                {
                    "name": "A5",
                    "midi": 81,
                    "time": 46.25,
                    "velocity": 0.3858267716535433,
                    "duration": 0.46875
                },
                {
                    "name": "F5",
                    "midi": 77,
                    "time": 46.71875,
                    "velocity": 0.3858267716535433,
                    "duration": 0.15625
                },
                {
                    "name": "E5",
                    "midi": 76,
                    "time": 46.875,
                    "velocity": 0.3858267716535433,
                    "duration": 0.625
                },
                {
                    "name": "E5",
                    "midi": 76,
                    "time": 47.5,
                    "velocity": 0.3858267716535433,
                    "duration": 0.9375
                },
                {
                    "name": "E5",
                    "midi": 76,
                    "time": 48.4375,
                    "velocity": 0.3858267716535433,
                    "duration": 0.3125
                },
                {
                    "name": "F5",
                    "midi": 77,
                    "time": 48.75,
                    "velocity": 0.3858267716535433,
                    "duration": 0.625
                },
                {
                    "name": "F5",
                    "midi": 77,
                    "time": 49.375,
                    "velocity": 0.3858267716535433,
                    "duration": 0.46875
                },
                {
                    "name": "G5",
                    "midi": 79,
                    "time": 49.84375,
                    "velocity": 0.3858267716535433,
                    "duration": 0.15625
                },
                {
                    "name": "A5",
                    "midi": 81,
                    "time": 50,
                    "velocity": 0.3858267716535433,
                    "duration": 0.46875
                },
                {
                    "name": "F5",
                    "midi": 77,
                    "time": 50.46875,
                    "velocity": 0.3858267716535433,
                    "duration": 0.15625
                },
                {
                    "name": "G5",
                    "midi": 79,
                    "time": 50.625,
                    "velocity": 0.3858267716535433,
                    "duration": 0.625
                },
                {
                    "name": "G5",
                    "midi": 79,
                    "time": 51.25,
                    "velocity": 0.3858267716535433,
                    "duration": 0.9375
                },
                {
                    "name": "G5",
                    "midi": 79,
                    "time": 52.1875,
                    "velocity": 0.3858267716535433,
                    "duration": 0.3125
                },
                {
                    "name": "A5",
                    "midi": 81,
                    "time": 52.5,
                    "velocity": 0.3858267716535433,
                    "duration": 0.625
                },
                {
                    "name": "A5",
                    "midi": 81,
                    "time": 53.125,
                    "velocity": 0.3858267716535433,
                    "duration": 0.46875
                },
                {
                    "name": "A#5",
                    "midi": 82,
                    "time": 53.59375,
                    "velocity": 0.3858267716535433,
                    "duration": 0.15625
                },
                {
                    "name": "C6",
                    "midi": 84,
                    "time": 53.75,
                    "velocity": 0.3858267716535433,
                    "duration": 0.46875
                },
                {
                    "name": "A5",
                    "midi": 81,
                    "time": 54.21875,
                    "velocity": 0.3858267716535433,
                    "duration": 0.15625
                },
                {
                    "name": "G5",
                    "midi": 79,
                    "time": 54.375,
                    "velocity": 0.3858267716535433,
                    "duration": 0.46875
                },
                {
                    "name": "A5",
                    "midi": 81,
                    "time": 54.84375,
                    "velocity": 0.3858267716535433,
                    "duration": 0.15625
                },
                {
                    "name": "A#5",
                    "midi": 82,
                    "time": 55,
                    "velocity": 0.3858267716535433,
                    "duration": 0.9375
                },
                {
                    "name": "A#5",
                    "midi": 82,
                    "time": 55.9375,
                    "velocity": 0.3858267716535433,
                    "duration": 0.3125
                },
                {
                    "name": "A5",
                    "midi": 81,
                    "time": 56.25,
                    "velocity": 0.3858267716535433,
                    "duration": 0.3125
                },
                {
                    "name": "G5",
                    "midi": 79,
                    "time": 56.5625,
                    "velocity": 0.3858267716535433,
                    "duration": 0.15625
                },
                {
                    "name": "F5",
                    "midi": 77,
                    "time": 56.71875,
                    "velocity": 0.3858267716535433,
                    "duration": 0.15625
                },
                {
                    "name": "E5",
                    "midi": 76,
                    "time": 56.875,
                    "velocity": 0.3858267716535433,
                    "duration": 0.9375
                },
                {
                    "name": "D5",
                    "midi": 74,
                    "time": 57.8125,
                    "velocity": 0.3858267716535433,
                    "duration": 0.3125
                },
                {
                    "name": "D5",
                    "midi": 74,
                    "time": 58.125,
                    "velocity": 0.3858267716535433,
                    "duration": 1.875
                },
                {
                    "name": "D4",
                    "midi": 62,
                    "time": 60,
                    "velocity": 0.3858267716535433,
                    "duration": 0.625
                },
                {
                    "name": "F5",
                    "midi": 77,
                    "time": 60.625,
                    "velocity": 0.3858267716535433,
                    "duration": 0.625
                },
                {
                    "name": "C#4",
                    "midi": 61,
                    "time": 61.875,
                    "velocity": 0.3858267716535433,
                    "duration": 0.625
                },
                {
                    "name": "E5",
                    "midi": 76,
                    "time": 62.5,
                    "velocity": 0.3858267716535433,
                    "duration": 0.625
                },
                {
                    "name": "F4",
                    "midi": 65,
                    "time": 63.75,
                    "velocity": 0.3858267716535433,
                    "duration": 0.625
                },
                {
                    "name": "F5",
                    "midi": 77,
                    "time": 64.375,
                    "velocity": 0.3858267716535433,
                    "duration": 0.625
                },
                {
                    "name": "E4",
                    "midi": 64,
                    "time": 65.625,
                    "velocity": 0.3858267716535433,
                    "duration": 0.625
                },
                {
                    "name": "G5",
                    "midi": 79,
                    "time": 66.25,
                    "velocity": 0.3858267716535433,
                    "duration": 0.625
                },
                {
                    "name": "A4",
                    "midi": 69,
                    "time": 67.5,
                    "velocity": 0.3858267716535433,
                    "duration": 0.625
                },
                {
                    "name": "A5",
                    "midi": 81,
                    "time": 68.125,
                    "velocity": 0.3858267716535433,
                    "duration": 0.625
                },
                {
                    "name": "E4",
                    "midi": 64,
                    "time": 69.375,
                    "velocity": 0.3858267716535433,
                    "duration": 0.625
                },
                {
                    "name": "G5",
                    "midi": 79,
                    "time": 70,
                    "velocity": 0.3858267716535433,
                    "duration": 0.625
                },
                {
                    "name": "F4",
                    "midi": 65,
                    "time": 71.25,
                    "velocity": 0.3858267716535433,
                    "duration": 0.625
                },
                {
                    "name": "A5",
                    "midi": 81,
                    "time": 71.875,
                    "velocity": 0.3858267716535433,
                    "duration": 0.625
                },
                {
                    "name": "A#5",
                    "midi": 82,
                    "time": 72.5,
                    "velocity": 0.3858267716535433,
                    "duration": 0.625
                },
                {
                    "name": "E5",
                    "midi": 76,
                    "time": 73.125,
                    "velocity": 0.3858267716535433,
                    "duration": 0.625
                },
                {
                    "name": "C#5",
                    "midi": 73,
                    "time": 73.75,
                    "velocity": 0.3858267716535433,
                    "duration": 0.625
                },
                {
                    "name": "C#4",
                    "midi": 61,
                    "time": 74.375,
                    "velocity": 0.3858267716535433,
                    "duration": 0.625
                },
                {
                    "name": "D5",
                    "midi": 74,
                    "time": 75.625,
                    "velocity": 0.3858267716535433,
                    "duration": 0.625
                },
                {
                    "name": "D4",
                    "midi": 62,
                    "time": 76.25,
                    "velocity": 0.3858267716535433,
                    "duration": 0.625
                },
                {
                    "name": "C#5",
                    "midi": 73,
                    "time": 77.5,
                    "velocity": 0.3858267716535433,
                    "duration": 0.625
                },
                {
                    "name": "C#4",
                    "midi": 61,
                    "time": 78.125,
                    "velocity": 0.3858267716535433,
                    "duration": 0.625
                },
                {
                    "name": "D5",
                    "midi": 74,
                    "time": 79.375,
                    "velocity": 0.3858267716535433,
                    "duration": 0.625
                },
                {
                    "name": "D4",
                    "midi": 62,
                    "time": 80,
                    "velocity": 0.3858267716535433,
                    "duration": 0.625
                },
                {
                    "name": "E5",
                    "midi": 76,
                    "time": 81.25,
                    "velocity": 0.3858267716535433,
                    "duration": 0.625
                },
                {
                    "name": "E4",
                    "midi": 64,
                    "time": 81.875,
                    "velocity": 0.3858267716535433,
                    "duration": 0.625
                },
                {
                    "name": "F5",
                    "midi": 77,
                    "time": 83.125,
                    "velocity": 0.3858267716535433,
                    "duration": 0.625
                },
                {
                    "name": "F4",
                    "midi": 65,
                    "time": 83.75,
                    "velocity": 0.3858267716535433,
                    "duration": 0.625
                },
                {
                    "name": "G5",
                    "midi": 79,
                    "time": 85,
                    "velocity": 0.3858267716535433,
                    "duration": 0.625
                },
                {
                    "name": "F5",
                    "midi": 77,
                    "time": 85.625,
                    "velocity": 0.3858267716535433,
                    "duration": 0.625
                },
                {
                    "name": "A#5",
                    "midi": 82,
                    "time": 86.25,
                    "velocity": 0.3858267716535433,
                    "duration": 0.625
                },
                {
                    "name": "E5",
                    "midi": 76,
                    "time": 86.875,
                    "velocity": 0.3858267716535433,
                    "duration": 0.9375
                },
                {
                    "name": "D5",
                    "midi": 74,
                    "time": 87.8125,
                    "velocity": 0.3858267716535433,
                    "duration": 0.3125
                },
                {
                    "name": "D5",
                    "midi": 74,
                    "time": 88.125,
                    "velocity": 0.3858267716535433,
                    "duration": 1.875
                },
                {
                    "name": "F4",
                    "midi": 65,
                    "time": 90.9375,
                    "velocity": 0.3858267716535433,
                    "duration": 0.3125
                },
                {
                    "name": "A4",
                    "midi": 69,
                    "time": 91.25,
                    "velocity": 0.3858267716535433,
                    "duration": 0.3125
                },
                {
                    "name": "D5",
                    "midi": 74,
                    "time": 91.5625,
                    "velocity": 0.3858267716535433,
                    "duration": 0.3125
                },
                {
                    "name": "C#5",
                    "midi": 73,
                    "time": 91.875,
                    "velocity": 0.3858267716535433,
                    "duration": 0.625
                },
                {
                    "name": "E4",
                    "midi": 64,
                    "time": 92.8125,
                    "velocity": 0.3858267716535433,
                    "duration": 0.3125
                },
                {
                    "name": "A4",
                    "midi": 69,
                    "time": 93.125,
                    "velocity": 0.3858267716535433,
                    "duration": 0.3125
                },
                {
                    "name": "C#5",
                    "midi": 73,
                    "time": 93.4375,
                    "velocity": 0.3858267716535433,
                    "duration": 0.3125
                },
                {
                    "name": "D5",
                    "midi": 74,
                    "time": 93.75,
                    "velocity": 0.3858267716535433,
                    "duration": 0.625
                },
                {
                    "name": "F4",
                    "midi": 65,
                    "time": 94.6875,
                    "velocity": 0.3858267716535433,
                    "duration": 0.3125
                },
                {
                    "name": "A4",
                    "midi": 69,
                    "time": 95,
                    "velocity": 0.3858267716535433,
                    "duration": 0.3125
                },
                {
                    "name": "D5",
                    "midi": 74,
                    "time": 95.3125,
                    "velocity": 0.3858267716535433,
                    "duration": 0.3125
                },
                {
                    "name": "E5",
                    "midi": 76,
                    "time": 95.625,
                    "velocity": 0.3858267716535433,
                    "duration": 0.625
                },
                {
                    "name": "C5",
                    "midi": 72,
                    "time": 96.5625,
                    "velocity": 0.3858267716535433,
                    "duration": 0.3125
                },
                {
                    "name": "E5",
                    "midi": 76,
                    "time": 96.875,
                    "velocity": 0.3858267716535433,
                    "duration": 0.3125
                },
                {
                    "name": "G5",
                    "midi": 79,
                    "time": 97.1875,
                    "velocity": 0.3858267716535433,
                    "duration": 0.3125
                },
                {
                    "name": "F5",
                    "midi": 77,
                    "time": 97.5,
                    "velocity": 0.3858267716535433,
                    "duration": 0.625
                },
                {
                    "name": "A4",
                    "midi": 69,
                    "time": 98.4375,
                    "velocity": 0.3858267716535433,
                    "duration": 0.3125
                },
                {
                    "name": "C5",
                    "midi": 72,
                    "time": 98.75,
                    "velocity": 0.3858267716535433,
                    "duration": 0.3125
                },
                {
                    "name": "F5",
                    "midi": 77,
                    "time": 99.0625,
                    "velocity": 0.3858267716535433,
                    "duration": 0.3125
                },
                {
                    "name": "E5",
                    "midi": 76,
                    "time": 99.375,
                    "velocity": 0.3858267716535433,
                    "duration": 0.625
                },
                {
                    "name": "C#5",
                    "midi": 73,
                    "time": 100.3125,
                    "velocity": 0.3858267716535433,
                    "duration": 0.3125
                },
                {
                    "name": "E5",
                    "midi": 76,
                    "time": 100.625,
                    "velocity": 0.3858267716535433,
                    "duration": 0.3125
                },
                {
                    "name": "G5",
                    "midi": 79,
                    "time": 100.9375,
                    "velocity": 0.3858267716535433,
                    "duration": 0.3125
                },
                {
                    "name": "F5",
                    "midi": 77,
                    "time": 101.25,
                    "velocity": 0.3858267716535433,
                    "duration": 0.625
                },
                {
                    "name": "D5",
                    "midi": 74,
                    "time": 102.1875,
                    "velocity": 0.3858267716535433,
                    "duration": 0.3125
                },
                {
                    "name": "F5",
                    "midi": 77,
                    "time": 102.5,
                    "velocity": 0.3858267716535433,
                    "duration": 0.3125
                },
                {
                    "name": "D5",
                    "midi": 74,
                    "time": 102.8125,
                    "velocity": 0.3858267716535433,
                    "duration": 0.3125
                },
                {
                    "name": "C#5",
                    "midi": 73,
                    "time": 103.125,
                    "velocity": 0.3858267716535433,
                    "duration": 0.625
                },
                {
                    "name": "E5",
                    "midi": 76,
                    "time": 104.0625,
                    "velocity": 0.3858267716535433,
                    "duration": 0.3125
                },
                {
                    "name": "A4",
                    "midi": 69,
                    "time": 104.375,
                    "velocity": 0.3858267716535433,
                    "duration": 0.625
                },
                {
                    "name": "A4",
                    "midi": 69,
                    "time": 105.3125,
                    "velocity": 0.3858267716535433,
                    "duration": 0.3125
                },
                {
                    "name": "F4",
                    "midi": 65,
                    "time": 105.625,
                    "velocity": 0.3858267716535433,
                    "duration": 0.3125
                },
                {
                    "name": "D4",
                    "midi": 62,
                    "time": 105.9375,
                    "velocity": 0.3858267716535433,
                    "duration": 0.3125
                },
                {
                    "name": "F5",
                    "midi": 77,
                    "time": 106.25,
                    "velocity": 0.3858267716535433,
                    "duration": 0.625
                },
                {
                    "name": "A4",
                    "midi": 69,
                    "time": 107.1875,
                    "velocity": 0.3858267716535433,
                    "duration": 0.3125
                },
                {
                    "name": "E4",
                    "midi": 64,
                    "time": 107.5,
                    "velocity": 0.3858267716535433,
                    "duration": 0.3125
                },
                {
                    "name": "C#4",
                    "midi": 61,
                    "time": 107.8125,
                    "velocity": 0.3858267716535433,
                    "duration": 0.3125
                },
                {
                    "name": "E5",
                    "midi": 76,
                    "time": 108.125,
                    "velocity": 0.3858267716535433,
                    "duration": 0.625
                },
                {
                    "name": "A4",
                    "midi": 69,
                    "time": 109.0625,
                    "velocity": 0.3858267716535433,
                    "duration": 0.3125
                },
                {
                    "name": "F4",
                    "midi": 65,
                    "time": 109.375,
                    "velocity": 0.3858267716535433,
                    "duration": 0.3125
                },
                {
                    "name": "D4",
                    "midi": 62,
                    "time": 109.6875,
                    "velocity": 0.3858267716535433,
                    "duration": 0.3125
                },
                {
                    "name": "F5",
                    "midi": 77,
                    "time": 110,
                    "velocity": 0.3858267716535433,
                    "duration": 0.625
                },
                {
                    "name": "C5",
                    "midi": 72,
                    "time": 110.9375,
                    "velocity": 0.3858267716535433,
                    "duration": 0.3125
                },
                {
                    "name": "G4",
                    "midi": 67,
                    "time": 111.25,
                    "velocity": 0.3858267716535433,
                    "duration": 0.3125
                },
                {
                    "name": "E4",
                    "midi": 64,
                    "time": 111.5625,
                    "velocity": 0.3858267716535433,
                    "duration": 0.3125
                },
                {
                    "name": "G5",
                    "midi": 79,
                    "time": 111.875,
                    "velocity": 0.3858267716535433,
                    "duration": 0.625
                },
                {
                    "name": "C5",
                    "midi": 72,
                    "time": 112.8125,
                    "velocity": 0.3858267716535433,
                    "duration": 0.3125
                },
                {
                    "name": "A4",
                    "midi": 69,
                    "time": 113.125,
                    "velocity": 0.3858267716535433,
                    "duration": 0.3125
                },
                {
                    "name": "F4",
                    "midi": 65,
                    "time": 113.4375,
                    "velocity": 0.3858267716535433,
                    "duration": 0.3125
                },
                {
                    "name": "A5",
                    "midi": 81,
                    "time": 113.75,
                    "velocity": 0.3858267716535433,
                    "duration": 0.625
                },
                {
                    "name": "G5",
                    "midi": 79,
                    "time": 114.375,
                    "velocity": 0.3858267716535433,
                    "duration": 0.625
                },
                {
                    "name": "F5",
                    "midi": 77,
                    "time": 115,
                    "velocity": 0.3858267716535433,
                    "duration": 0.625
                },
                {
                    "name": "E5",
                    "midi": 76,
                    "time": 115.625,
                    "velocity": 0.3858267716535433,
                    "duration": 0.625
                },
                {
                    "name": "F5",
                    "midi": 77,
                    "time": 116.25,
                    "velocity": 0.3858267716535433,
                    "duration": 0.3125
                },
                {
                    "name": "G5",
                    "midi": 79,
                    "time": 116.5625,
                    "velocity": 0.3858267716535433,
                    "duration": 0.3125
                },
                {
                    "name": "E5",
                    "midi": 76,
                    "time": 116.875,
                    "velocity": 0.3858267716535433,
                    "duration": 0.9375
                },
                {
                    "name": "D5",
                    "midi": 74,
                    "time": 117.8125,
                    "velocity": 0.3858267716535433,
                    "duration": 0.3125
                },
                {
                    "name": "D5",
                    "midi": 74,
                    "time": 118.125,
                    "velocity": 0.3858267716535433,
                    "duration": 1.875
                },
                {
                    "name": "A5",
                    "midi": 81,
                    "time": 122.03125,
                    "velocity": 0.3858267716535433,
                    "duration": 0.15625
                },
                {
                    "name": "G5",
                    "midi": 79,
                    "time": 122.1875,
                    "velocity": 0.3858267716535433,
                    "duration": 0.15625
                },
                {
                    "name": "F5",
                    "midi": 77,
                    "time": 122.34375,
                    "velocity": 0.3858267716535433,
                    "duration": 0.15625
                },
                {
                    "name": "E5",
                    "midi": 76,
                    "time": 122.5,
                    "velocity": 0.3858267716535433,
                    "duration": 0.15625
                },
                {
                    "name": "D5",
                    "midi": 74,
                    "time": 122.65625,
                    "velocity": 0.3858267716535433,
                    "duration": 0.15625
                },
                {
                    "name": "C#5",
                    "midi": 73,
                    "time": 122.8125,
                    "velocity": 0.3858267716535433,
                    "duration": 0.15625
                },
                {
                    "name": "B4",
                    "midi": 71,
                    "time": 122.96875,
                    "velocity": 0.3858267716535433,
                    "duration": 0.15625
                },
                {
                    "name": "A4",
                    "midi": 69,
                    "time": 123.125,
                    "velocity": 0.3858267716535433,
                    "duration": 0.3125
                },
                {
                    "name": "A5",
                    "midi": 81,
                    "time": 123.4375,
                    "velocity": 0.3858267716535433,
                    "duration": 0.3125
                },
                {
                    "name": "F5",
                    "midi": 77,
                    "time": 123.75,
                    "velocity": 0.3858267716535433,
                    "duration": 0.625
                },
                {
                    "name": "C6",
                    "midi": 84,
                    "time": 125.78125,
                    "velocity": 0.3858267716535433,
                    "duration": 0.15625
                },
                {
                    "name": "A#5",
                    "midi": 82,
                    "time": 125.9375,
                    "velocity": 0.3858267716535433,
                    "duration": 0.15625
                },
                {
                    "name": "A5",
                    "midi": 81,
                    "time": 126.09375,
                    "velocity": 0.3858267716535433,
                    "duration": 0.15625
                },
                {
                    "name": "G5",
                    "midi": 79,
                    "time": 126.25,
                    "velocity": 0.3858267716535433,
                    "duration": 0.15625
                },
                {
                    "name": "F5",
                    "midi": 77,
                    "time": 126.40625,
                    "velocity": 0.3858267716535433,
                    "duration": 0.15625
                },
                {
                    "name": "E5",
                    "midi": 76,
                    "time": 126.5625,
                    "velocity": 0.3858267716535433,
                    "duration": 0.15625
                },
                {
                    "name": "D5",
                    "midi": 74,
                    "time": 126.71875,
                    "velocity": 0.3858267716535433,
                    "duration": 0.15625
                },
                {
                    "name": "C5",
                    "midi": 72,
                    "time": 126.875,
                    "velocity": 0.3858267716535433,
                    "duration": 0.3125
                },
                {
                    "name": "C6",
                    "midi": 84,
                    "time": 127.1875,
                    "velocity": 0.3858267716535433,
                    "duration": 0.3125
                },
                {
                    "name": "A5",
                    "midi": 81,
                    "time": 127.5,
                    "velocity": 0.3858267716535433,
                    "duration": 0.625
                },
                {
                    "name": "A5",
                    "midi": 81,
                    "time": 129.53125,
                    "velocity": 0.3858267716535433,
                    "duration": 0.15625
                },
                {
                    "name": "G5",
                    "midi": 79,
                    "time": 129.6875,
                    "velocity": 0.3858267716535433,
                    "duration": 0.15625
                },
                {
                    "name": "F5",
                    "midi": 77,
                    "time": 129.84375,
                    "velocity": 0.3858267716535433,
                    "duration": 0.15625
                },
                {
                    "name": "E5",
                    "midi": 76,
                    "time": 130,
                    "velocity": 0.3858267716535433,
                    "duration": 0.15625
                },
                {
                    "name": "D5",
                    "midi": 74,
                    "time": 130.15625,
                    "velocity": 0.3858267716535433,
                    "duration": 0.15625
                },
                {
                    "name": "C#5",
                    "midi": 73,
                    "time": 130.3125,
                    "velocity": 0.3858267716535433,
                    "duration": 0.15625
                },
                {
                    "name": "B4",
                    "midi": 71,
                    "time": 130.46875,
                    "velocity": 0.3858267716535433,
                    "duration": 0.15625
                },
                {
                    "name": "A4",
                    "midi": 69,
                    "time": 130.625,
                    "velocity": 0.3858267716535433,
                    "duration": 0.3125
                },
                {
                    "name": "A5",
                    "midi": 81,
                    "time": 130.9375,
                    "velocity": 0.3858267716535433,
                    "duration": 0.3125
                },
                {
                    "name": "F5",
                    "midi": 77,
                    "time": 131.25,
                    "velocity": 0.3858267716535433,
                    "duration": 0.625
                },
                {
                    "name": "E5",
                    "midi": 76,
                    "time": 133.125,
                    "velocity": 0.3858267716535433,
                    "duration": 0.625
                },
                {
                    "name": "G5",
                    "midi": 79,
                    "time": 133.75,
                    "velocity": 0.3858267716535433,
                    "duration": 0.9375
                },
                {
                    "name": "G5",
                    "midi": 79,
                    "time": 134.6875,
                    "velocity": 0.3858267716535433,
                    "duration": 0.3125
                },
                {
                    "name": "F5",
                    "midi": 77,
                    "time": 135,
                    "velocity": 0.3858267716535433,
                    "duration": 0.625
                },
                {
                    "name": "A5",
                    "midi": 81,
                    "time": 137.03125,
                    "velocity": 0.3858267716535433,
                    "duration": 0.15625
                },
                {
                    "name": "G5",
                    "midi": 79,
                    "time": 137.1875,
                    "velocity": 0.3858267716535433,
                    "duration": 0.15625
                },
                {
                    "name": "F5",
                    "midi": 77,
                    "time": 137.34375,
                    "velocity": 0.3858267716535433,
                    "duration": 0.15625
                },
                {
                    "name": "E5",
                    "midi": 76,
                    "time": 137.5,
                    "velocity": 0.3858267716535433,
                    "duration": 0.15625
                },
                {
                    "name": "D5",
                    "midi": 74,
                    "time": 137.65625,
                    "velocity": 0.3858267716535433,
                    "duration": 0.15625
                },
                {
                    "name": "C#5",
                    "midi": 73,
                    "time": 137.8125,
                    "velocity": 0.3858267716535433,
                    "duration": 0.15625
                },
                {
                    "name": "B4",
                    "midi": 71,
                    "time": 137.96875,
                    "velocity": 0.3858267716535433,
                    "duration": 0.15625
                },
                {
                    "name": "A4",
                    "midi": 69,
                    "time": 138.125,
                    "velocity": 0.3858267716535433,
                    "duration": 0.3125
                },
                {
                    "name": "A5",
                    "midi": 81,
                    "time": 138.4375,
                    "velocity": 0.3858267716535433,
                    "duration": 0.3125
                },
                {
                    "name": "F5",
                    "midi": 77,
                    "time": 138.75,
                    "velocity": 0.3858267716535433,
                    "duration": 0.625
                },
                {
                    "name": "C6",
                    "midi": 84,
                    "time": 140.78125,
                    "velocity": 0.3858267716535433,
                    "duration": 0.15625
                },
                {
                    "name": "A#5",
                    "midi": 82,
                    "time": 140.9375,
                    "velocity": 0.3858267716535433,
                    "duration": 0.15625
                },
                {
                    "name": "A5",
                    "midi": 81,
                    "time": 141.09375,
                    "velocity": 0.3858267716535433,
                    "duration": 0.15625
                },
                {
                    "name": "G5",
                    "midi": 79,
                    "time": 141.25,
                    "velocity": 0.3858267716535433,
                    "duration": 0.15625
                },
                {
                    "name": "F5",
                    "midi": 77,
                    "time": 141.40625,
                    "velocity": 0.3858267716535433,
                    "duration": 0.15625
                },
                {
                    "name": "E5",
                    "midi": 76,
                    "time": 141.5625,
                    "velocity": 0.3858267716535433,
                    "duration": 0.15625
                },
                {
                    "name": "D5",
                    "midi": 74,
                    "time": 141.71875,
                    "velocity": 0.3858267716535433,
                    "duration": 0.15625
                },
                {
                    "name": "C5",
                    "midi": 72,
                    "time": 141.875,
                    "velocity": 0.3858267716535433,
                    "duration": 0.3125
                },
                {
                    "name": "C6",
                    "midi": 84,
                    "time": 142.1875,
                    "velocity": 0.3858267716535433,
                    "duration": 0.3125
                },
                {
                    "name": "A5",
                    "midi": 81,
                    "time": 142.5,
                    "velocity": 0.3858267716535433,
                    "duration": 0.625
                },
                {
                    "name": "A5",
                    "midi": 81,
                    "time": 144.53125,
                    "velocity": 0.3858267716535433,
                    "duration": 0.15625
                },
                {
                    "name": "G5",
                    "midi": 79,
                    "time": 144.6875,
                    "velocity": 0.3858267716535433,
                    "duration": 0.15625
                },
                {
                    "name": "F5",
                    "midi": 77,
                    "time": 144.84375,
                    "velocity": 0.3858267716535433,
                    "duration": 0.15625
                },
                {
                    "name": "E5",
                    "midi": 76,
                    "time": 145,
                    "velocity": 0.3858267716535433,
                    "duration": 0.15625
                },
                {
                    "name": "D5",
                    "midi": 74,
                    "time": 145.15625,
                    "velocity": 0.3858267716535433,
                    "duration": 0.15625
                },
                {
                    "name": "C#5",
                    "midi": 73,
                    "time": 145.3125,
                    "velocity": 0.3858267716535433,
                    "duration": 0.15625
                },
                {
                    "name": "B4",
                    "midi": 71,
                    "time": 145.46875,
                    "velocity": 0.3858267716535433,
                    "duration": 0.15625
                },
                {
                    "name": "A4",
                    "midi": 69,
                    "time": 145.625,
                    "velocity": 0.3858267716535433,
                    "duration": 0.3125
                },
                {
                    "name": "G5",
                    "midi": 79,
                    "time": 145.9375,
                    "velocity": 0.3858267716535433,
                    "duration": 0.3125
                },
                {
                    "name": "F5",
                    "midi": 77,
                    "time": 146.25,
                    "velocity": 0.3858267716535433,
                    "duration": 0.3125
                },
                {
                    "name": "E5",
                    "midi": 76,
                    "time": 146.5625,
                    "velocity": 0.3858267716535433,
                    "duration": 0.15625
                },
                {
                    "name": "D5",
                    "midi": 74,
                    "time": 146.71875,
                    "velocity": 0.3858267716535433,
                    "duration": 0.15625
                },
                {
                    "name": "C#5",
                    "midi": 73,
                    "time": 146.875,
                    "velocity": 0.3858267716535433,
                    "duration": 0.9375
                },
                {
                    "name": "D5",
                    "midi": 74,
                    "time": 147.8125,
                    "velocity": 0.3858267716535433,
                    "duration": 0.3125
                },
                {
                    "name": "D5",
                    "midi": 74,
                    "time": 148.125,
                    "velocity": 0.3858267716535433,
                    "duration": 1.875
                },
                {
                    "name": "A5",
                    "midi": 81,
                    "time": 151.875,
                    "velocity": 0.3858267716535433,
                    "duration": 0.3125
                },
                {
                    "name": "E5",
                    "midi": 76,
                    "time": 152.1875,
                    "velocity": 0.3858267716535433,
                    "duration": 0.3125
                },
                {
                    "name": "C#5",
                    "midi": 73,
                    "time": 152.5,
                    "velocity": 0.3858267716535433,
                    "duration": 0.3125
                },
                {
                    "name": "A4",
                    "midi": 69,
                    "time": 152.8125,
                    "velocity": 0.3858267716535433,
                    "duration": 0.3125
                },
                {
                    "name": "E5",
                    "midi": 76,
                    "time": 153.125,
                    "velocity": 0.3858267716535433,
                    "duration": 0.3125
                },
                {
                    "name": "G5",
                    "midi": 79,
                    "time": 153.4375,
                    "velocity": 0.3858267716535433,
                    "duration": 0.3125
                },
                {
                    "name": "F5",
                    "midi": 77,
                    "time": 153.75,
                    "velocity": 0.3858267716535433,
                    "duration": 0.625
                },
                {
                    "name": "F5",
                    "midi": 77,
                    "time": 154.375,
                    "velocity": 0.3858267716535433,
                    "duration": 0.9375
                },
                {
                    "name": "F5",
                    "midi": 77,
                    "time": 155.3125,
                    "velocity": 0.3858267716535433,
                    "duration": 0.3125
                },
                {
                    "name": "G5",
                    "midi": 79,
                    "time": 155.625,
                    "velocity": 0.3858267716535433,
                    "duration": 0.3125
                },
                {
                    "name": "E5",
                    "midi": 76,
                    "time": 155.9375,
                    "velocity": 0.3858267716535433,
                    "duration": 0.3125
                },
                {
                    "name": "C5",
                    "midi": 72,
                    "time": 156.25,
                    "velocity": 0.3858267716535433,
                    "duration": 0.3125
                },
                {
                    "name": "E5",
                    "midi": 76,
                    "time": 156.5625,
                    "velocity": 0.3858267716535433,
                    "duration": 0.3125
                },
                {
                    "name": "G5",
                    "midi": 79,
                    "time": 156.875,
                    "velocity": 0.3858267716535433,
                    "duration": 0.3125
                },
                {
                    "name": "A#5",
                    "midi": 82,
                    "time": 157.1875,
                    "velocity": 0.3858267716535433,
                    "duration": 0.3125
                },
                {
                    "name": "A5",
                    "midi": 81,
                    "time": 157.5,
                    "velocity": 0.3858267716535433,
                    "duration": 0.9375
                },
                {
                    "name": "A5",
                    "midi": 81,
                    "time": 158.4375,
                    "velocity": 0.3858267716535433,
                    "duration": 0.3125
                },
                {
                    "name": "C5",
                    "midi": 72,
                    "time": 158.75,
                    "velocity": 0.3858267716535433,
                    "duration": 0.3125
                },
                {
                    "name": "A5",
                    "midi": 81,
                    "time": 159.0625,
                    "velocity": 0.3858267716535433,
                    "duration": 0.3125
                },
                {
                    "name": "G5",
                    "midi": 79,
                    "time": 159.375,
                    "velocity": 0.3858267716535433,
                    "duration": 0.9375
                },
                {
                    "name": "G5",
                    "midi": 79,
                    "time": 160.3125,
                    "velocity": 0.3858267716535433,
                    "duration": 0.3125
                },
                {
                    "name": "C#5",
                    "midi": 73,
                    "time": 160.625,
                    "velocity": 0.3858267716535433,
                    "duration": 0.3125
                },
                {
                    "name": "G5",
                    "midi": 79,
                    "time": 160.9375,
                    "velocity": 0.3858267716535433,
                    "duration": 0.3125
                },
                {
                    "name": "F5",
                    "midi": 77,
                    "time": 161.25,
                    "velocity": 0.3858267716535433,
                    "duration": 0.3125
                },
                {
                    "name": "D5",
                    "midi": 74,
                    "time": 161.5625,
                    "velocity": 0.3858267716535433,
                    "duration": 0.3125
                },
                {
                    "name": "A5",
                    "midi": 81,
                    "time": 161.875,
                    "velocity": 0.3858267716535433,
                    "duration": 0.9375
                },
                {
                    "name": "A#5",
                    "midi": 82,
                    "time": 162.8125,
                    "velocity": 0.3858267716535433,
                    "duration": 0.3125
                },
                {
                    "name": "C#5",
                    "midi": 73,
                    "time": 163.125,
                    "velocity": 0.3858267716535433,
                    "duration": 0.3125
                },
                {
                    "name": "A5",
                    "midi": 81,
                    "time": 163.4375,
                    "velocity": 0.3858267716535433,
                    "duration": 0.3125
                },
                {
                    "name": "A5",
                    "midi": 81,
                    "time": 163.75,
                    "velocity": 0.3858267716535433,
                    "duration": 0.3125
                },
                {
                    "name": "G5",
                    "midi": 79,
                    "time": 164.0625,
                    "velocity": 0.3858267716535433,
                    "duration": 0.3125
                },
                {
                    "name": "G5",
                    "midi": 79,
                    "time": 164.375,
                    "velocity": 0.3858267716535433,
                    "duration": 0.3125
                },
                {
                    "name": "F5",
                    "midi": 77,
                    "time": 164.6875,
                    "velocity": 0.3858267716535433,
                    "duration": 0.3125
                },
                {
                    "name": "F5",
                    "midi": 77,
                    "time": 165,
                    "velocity": 0.3858267716535433,
                    "duration": 0.625
                },
                {
                    "name": "A5",
                    "midi": 81,
                    "time": 166.875,
                    "velocity": 0.3858267716535433,
                    "duration": 0.3125
                },
                {
                    "name": "E5",
                    "midi": 76,
                    "time": 167.1875,
                    "velocity": 0.3858267716535433,
                    "duration": 0.3125
                },
                {
                    "name": "C#5",
                    "midi": 73,
                    "time": 167.5,
                    "velocity": 0.3858267716535433,
                    "duration": 0.3125
                },
                {
                    "name": "A4",
                    "midi": 69,
                    "time": 167.8125,
                    "velocity": 0.3858267716535433,
                    "duration": 0.3125
                },
                {
                    "name": "E5",
                    "midi": 76,
                    "time": 168.125,
                    "velocity": 0.3858267716535433,
                    "duration": 0.3125
                },
                {
                    "name": "G5",
                    "midi": 79,
                    "time": 168.4375,
                    "velocity": 0.3858267716535433,
                    "duration": 0.3125
                },
                {
                    "name": "F5",
                    "midi": 77,
                    "time": 168.75,
                    "velocity": 0.3858267716535433,
                    "duration": 0.625
                },
                {
                    "name": "F5",
                    "midi": 77,
                    "time": 169.375,
                    "velocity": 0.3858267716535433,
                    "duration": 0.9375
                },
                {
                    "name": "F5",
                    "midi": 77,
                    "time": 170.3125,
                    "velocity": 0.3858267716535433,
                    "duration": 0.3125
                },
                {
                    "name": "G5",
                    "midi": 79,
                    "time": 170.625,
                    "velocity": 0.3858267716535433,
                    "duration": 0.3125
                },
                {
                    "name": "E5",
                    "midi": 76,
                    "time": 170.9375,
                    "velocity": 0.3858267716535433,
                    "duration": 0.3125
                },
                {
                    "name": "C5",
                    "midi": 72,
                    "time": 171.25,
                    "velocity": 0.3858267716535433,
                    "duration": 0.3125
                },
                {
                    "name": "E5",
                    "midi": 76,
                    "time": 171.5625,
                    "velocity": 0.3858267716535433,
                    "duration": 0.3125
                },
                {
                    "name": "G5",
                    "midi": 79,
                    "time": 171.875,
                    "velocity": 0.3858267716535433,
                    "duration": 0.3125
                },
                {
                    "name": "A#5",
                    "midi": 82,
                    "time": 172.1875,
                    "velocity": 0.3858267716535433,
                    "duration": 0.3125
                },
                {
                    "name": "A5",
                    "midi": 81,
                    "time": 172.5,
                    "velocity": 0.3858267716535433,
                    "duration": 0.9375
                },
                {
                    "name": "A5",
                    "midi": 81,
                    "time": 173.4375,
                    "velocity": 0.3858267716535433,
                    "duration": 0.3125
                },
                {
                    "name": "C5",
                    "midi": 72,
                    "time": 173.75,
                    "velocity": 0.3858267716535433,
                    "duration": 0.3125
                },
                {
                    "name": "A5",
                    "midi": 81,
                    "time": 174.0625,
                    "velocity": 0.3858267716535433,
                    "duration": 0.3125
                },
                {
                    "name": "G5",
                    "midi": 79,
                    "time": 174.375,
                    "velocity": 0.3858267716535433,
                    "duration": 0.9375
                },
                {
                    "name": "G5",
                    "midi": 79,
                    "time": 175.3125,
                    "velocity": 0.3858267716535433,
                    "duration": 0.3125
                },
                {
                    "name": "C#5",
                    "midi": 73,
                    "time": 175.625,
                    "velocity": 0.3858267716535433,
                    "duration": 0.3125
                },
                {
                    "name": "G5",
                    "midi": 79,
                    "time": 175.9375,
                    "velocity": 0.3858267716535433,
                    "duration": 0.3125
                },
                {
                    "name": "F5",
                    "midi": 77,
                    "time": 176.25,
                    "velocity": 0.3858267716535433,
                    "duration": 0.3125
                },
                {
                    "name": "C#5",
                    "midi": 73,
                    "time": 176.5625,
                    "velocity": 0.3858267716535433,
                    "duration": 0.3125
                },
                {
                    "name": "D5",
                    "midi": 74,
                    "time": 176.875,
                    "velocity": 0.3858267716535433,
                    "duration": 0.3125
                },
                {
                    "name": "F4",
                    "midi": 65,
                    "time": 177.1875,
                    "velocity": 0.3858267716535433,
                    "duration": 0.3125
                },
                {
                    "name": "A3",
                    "midi": 57,
                    "time": 177.5,
                    "velocity": 0.3858267716535433,
                    "duration": 0.3125
                },
                {
                    "name": "C#5",
                    "midi": 73,
                    "time": 177.8125,
                    "velocity": 0.3858267716535433,
                    "duration": 0.3125
                },
                {
                    "name": "D5",
                    "midi": 74,
                    "time": 178.125,
                    "velocity": 0.3858267716535433,
                    "duration": 1.875
                },
                {
                    "name": "F5",
                    "midi": 77,
                    "time": 180.78125,
                    "velocity": 0.3858267716535433,
                    "duration": 0.15625
                },
                {
                    "name": "A5",
                    "midi": 81,
                    "time": 180.9375,
                    "velocity": 0.3858267716535433,
                    "duration": 0.15625
                },
                {
                    "name": "F5",
                    "midi": 77,
                    "time": 181.09375,
                    "velocity": 0.3858267716535433,
                    "duration": 0.15625
                },
                {
                    "name": "D5",
                    "midi": 74,
                    "time": 181.25,
                    "velocity": 0.3858267716535433,
                    "duration": 0.15625
                },
                {
                    "name": "A4",
                    "midi": 69,
                    "time": 181.40625,
                    "velocity": 0.3858267716535433,
                    "duration": 0.15625
                },
                {
                    "name": "A5",
                    "midi": 81,
                    "time": 181.5625,
                    "velocity": 0.3858267716535433,
                    "duration": 0.15625
                },
                {
                    "name": "F5",
                    "midi": 77,
                    "time": 181.71875,
                    "velocity": 0.3858267716535433,
                    "duration": 0.15625
                },
                {
                    "name": "E5",
                    "midi": 76,
                    "time": 181.875,
                    "velocity": 0.3858267716535433,
                    "duration": 0.625
                },
                {
                    "name": "E5",
                    "midi": 76,
                    "time": 182.65625,
                    "velocity": 0.3858267716535433,
                    "duration": 0.15625
                },
                {
                    "name": "A5",
                    "midi": 81,
                    "time": 182.8125,
                    "velocity": 0.3858267716535433,
                    "duration": 0.15625
                },
                {
                    "name": "E5",
                    "midi": 76,
                    "time": 182.96875,
                    "velocity": 0.3858267716535433,
                    "duration": 0.15625
                },
                {
                    "name": "C#5",
                    "midi": 73,
                    "time": 183.125,
                    "velocity": 0.3858267716535433,
                    "duration": 0.15625
                },
                {
                    "name": "A4",
                    "midi": 69,
                    "time": 183.28125,
                    "velocity": 0.3858267716535433,
                    "duration": 0.15625
                },
                {
                    "name": "G5",
                    "midi": 79,
                    "time": 183.4375,
                    "velocity": 0.3858267716535433,
                    "duration": 0.15625
                },
                {
                    "name": "E5",
                    "midi": 76,
                    "time": 183.59375,
                    "velocity": 0.3858267716535433,
                    "duration": 0.15625
                },
                {
                    "name": "F5",
                    "midi": 77,
                    "time": 183.75,
                    "velocity": 0.3858267716535433,
                    "duration": 0.625
                },
                {
                    "name": "F5",
                    "midi": 77,
                    "time": 184.53125,
                    "velocity": 0.3858267716535433,
                    "duration": 0.15625
                },
                {
                    "name": "A5",
                    "midi": 81,
                    "time": 184.6875,
                    "velocity": 0.3858267716535433,
                    "duration": 0.15625
                },
                {
                    "name": "F5",
                    "midi": 77,
                    "time": 184.84375,
                    "velocity": 0.3858267716535433,
                    "duration": 0.15625
                },
                {
                    "name": "D5",
                    "midi": 74,
                    "time": 185,
                    "velocity": 0.3858267716535433,
                    "duration": 0.15625
                },
                {
                    "name": "A4",
                    "midi": 69,
                    "time": 185.15625,
                    "velocity": 0.3858267716535433,
                    "duration": 0.15625
                },
                {
                    "name": "A5",
                    "midi": 81,
                    "time": 185.3125,
                    "velocity": 0.3858267716535433,
                    "duration": 0.15625
                },
                {
                    "name": "F5",
                    "midi": 77,
                    "time": 185.46875,
                    "velocity": 0.3858267716535433,
                    "duration": 0.15625
                },
                {
                    "name": "G5",
                    "midi": 79,
                    "time": 185.625,
                    "velocity": 0.3858267716535433,
                    "duration": 0.625
                },
                {
                    "name": "G5",
                    "midi": 79,
                    "time": 186.40625,
                    "velocity": 0.3858267716535433,
                    "duration": 0.15625
                },
                {
                    "name": "C6",
                    "midi": 84,
                    "time": 186.5625,
                    "velocity": 0.3858267716535433,
                    "duration": 0.15625
                },
                {
                    "name": "G5",
                    "midi": 79,
                    "time": 186.71875,
                    "velocity": 0.3858267716535433,
                    "duration": 0.15625
                },
                {
                    "name": "E5",
                    "midi": 76,
                    "time": 186.875,
                    "velocity": 0.3858267716535433,
                    "duration": 0.15625
                },
                {
                    "name": "C5",
                    "midi": 72,
                    "time": 187.03125,
                    "velocity": 0.3858267716535433,
                    "duration": 0.15625
                },
                {
                    "name": "C6",
                    "midi": 84,
                    "time": 187.1875,
                    "velocity": 0.3858267716535433,
                    "duration": 0.15625
                },
                {
                    "name": "G5",
                    "midi": 79,
                    "time": 187.34375,
                    "velocity": 0.3858267716535433,
                    "duration": 0.15625
                },
                {
                    "name": "A5",
                    "midi": 81,
                    "time": 187.5,
                    "velocity": 0.3858267716535433,
                    "duration": 0.625
                },
                {
                    "name": "A5",
                    "midi": 81,
                    "time": 188.28125,
                    "velocity": 0.3858267716535433,
                    "duration": 0.15625
                },
                {
                    "name": "C6",
                    "midi": 84,
                    "time": 188.4375,
                    "velocity": 0.3858267716535433,
                    "duration": 0.15625
                },
                {
                    "name": "A5",
                    "midi": 81,
                    "time": 188.59375,
                    "velocity": 0.3858267716535433,
                    "duration": 0.15625
                },
                {
                    "name": "F5",
                    "midi": 77,
                    "time": 188.75,
                    "velocity": 0.3858267716535433,
                    "duration": 0.15625
                },
                {
                    "name": "C5",
                    "midi": 72,
                    "time": 188.90625,
                    "velocity": 0.3858267716535433,
                    "duration": 0.15625
                },
                {
                    "name": "C6",
                    "midi": 84,
                    "time": 189.0625,
                    "velocity": 0.3858267716535433,
                    "duration": 0.15625
                },
                {
                    "name": "A5",
                    "midi": 81,
                    "time": 189.21875,
                    "velocity": 0.3858267716535433,
                    "duration": 0.15625
                },
                {
                    "name": "G5",
                    "midi": 79,
                    "time": 189.375,
                    "velocity": 0.3858267716535433,
                    "duration": 0.625
                },
                {
                    "name": "A#5",
                    "midi": 82,
                    "time": 190.15625,
                    "velocity": 0.3858267716535433,
                    "duration": 0.15625
                },
                {
                    "name": "G5",
                    "midi": 79,
                    "time": 190.3125,
                    "velocity": 0.3858267716535433,
                    "duration": 0.15625
                },
                {
                    "name": "E5",
                    "midi": 76,
                    "time": 190.46875,
                    "velocity": 0.3858267716535433,
                    "duration": 0.15625
                },
                {
                    "name": "C#5",
                    "midi": 73,
                    "time": 190.625,
                    "velocity": 0.3858267716535433,
                    "duration": 0.15625
                },
                {
                    "name": "E5",
                    "midi": 76,
                    "time": 190.78125,
                    "velocity": 0.3858267716535433,
                    "duration": 0.15625
                },
                {
                    "name": "G5",
                    "midi": 79,
                    "time": 190.9375,
                    "velocity": 0.3858267716535433,
                    "duration": 0.15625
                },
                {
                    "name": "E5",
                    "midi": 76,
                    "time": 191.09375,
                    "velocity": 0.3858267716535433,
                    "duration": 0.15625
                },
                {
                    "name": "F5",
                    "midi": 77,
                    "time": 191.25,
                    "velocity": 0.3858267716535433,
                    "duration": 0.625
                },
                {
                    "name": "F5",
                    "midi": 77,
                    "time": 192.03125,
                    "velocity": 0.3858267716535433,
                    "duration": 0.15625
                },
                {
                    "name": "A5",
                    "midi": 81,
                    "time": 192.1875,
                    "velocity": 0.3858267716535433,
                    "duration": 0.15625
                },
                {
                    "name": "F5",
                    "midi": 77,
                    "time": 192.34375,
                    "velocity": 0.3858267716535433,
                    "duration": 0.15625
                },
                {
                    "name": "D5",
                    "midi": 74,
                    "time": 192.5,
                    "velocity": 0.3858267716535433,
                    "duration": 0.15625
                },
                {
                    "name": "A4",
                    "midi": 69,
                    "time": 192.65625,
                    "velocity": 0.3858267716535433,
                    "duration": 0.15625
                },
                {
                    "name": "F5",
                    "midi": 77,
                    "time": 192.8125,
                    "velocity": 0.3858267716535433,
                    "duration": 0.15625
                },
                {
                    "name": "D5",
                    "midi": 74,
                    "time": 192.96875,
                    "velocity": 0.3858267716535433,
                    "duration": 0.15625
                },
                {
                    "name": "C#5",
                    "midi": 73,
                    "time": 193.125,
                    "velocity": 0.3858267716535433,
                    "duration": 0.3125
                },
                {
                    "name": "A4",
                    "midi": 69,
                    "time": 193.4375,
                    "velocity": 0.3858267716535433,
                    "duration": 0.3125
                },
                {
                    "name": "E5",
                    "midi": 76,
                    "time": 193.75,
                    "velocity": 0.3858267716535433,
                    "duration": 0.15625
                },
                {
                    "name": "A5",
                    "midi": 81,
                    "time": 193.90625,
                    "velocity": 0.3858267716535433,
                    "duration": 0.15625
                },
                {
                    "name": "E5",
                    "midi": 76,
                    "time": 194.0625,
                    "velocity": 0.3858267716535433,
                    "duration": 0.15625
                },
                {
                    "name": "C#5",
                    "midi": 73,
                    "time": 194.21875,
                    "velocity": 0.3858267716535433,
                    "duration": 0.15625
                },
                {
                    "name": "A4",
                    "midi": 69,
                    "time": 194.375,
                    "velocity": 0.3858267716535433,
                    "duration": 0.15625
                },
                {
                    "name": "E5",
                    "midi": 76,
                    "time": 194.53125,
                    "velocity": 0.3858267716535433,
                    "duration": 0.15625
                },
                {
                    "name": "A5",
                    "midi": 81,
                    "time": 194.6875,
                    "velocity": 0.3858267716535433,
                    "duration": 0.15625
                },
                {
                    "name": "G5",
                    "midi": 79,
                    "time": 194.84375,
                    "velocity": 0.3858267716535433,
                    "duration": 0.15625
                },
                {
                    "name": "F5",
                    "midi": 77,
                    "time": 195,
                    "velocity": 0.3858267716535433,
                    "duration": 0.625
                },
                {
                    "name": "F5",
                    "midi": 77,
                    "time": 195.78125,
                    "velocity": 0.3858267716535433,
                    "duration": 0.15625
                },
                {
                    "name": "A5",
                    "midi": 81,
                    "time": 195.9375,
                    "velocity": 0.3858267716535433,
                    "duration": 0.15625
                },
                {
                    "name": "F5",
                    "midi": 77,
                    "time": 196.09375,
                    "velocity": 0.3858267716535433,
                    "duration": 0.15625
                },
                {
                    "name": "D5",
                    "midi": 74,
                    "time": 196.25,
                    "velocity": 0.3858267716535433,
                    "duration": 0.15625
                },
                {
                    "name": "A4",
                    "midi": 69,
                    "time": 196.40625,
                    "velocity": 0.3858267716535433,
                    "duration": 0.15625
                },
                {
                    "name": "A5",
                    "midi": 81,
                    "time": 196.5625,
                    "velocity": 0.3858267716535433,
                    "duration": 0.15625
                },
                {
                    "name": "F5",
                    "midi": 77,
                    "time": 196.71875,
                    "velocity": 0.3858267716535433,
                    "duration": 0.15625
                },
                {
                    "name": "E5",
                    "midi": 76,
                    "time": 196.875,
                    "velocity": 0.3858267716535433,
                    "duration": 0.625
                },
                {
                    "name": "E5",
                    "midi": 76,
                    "time": 197.65625,
                    "velocity": 0.3858267716535433,
                    "duration": 0.15625
                },
                {
                    "name": "G5",
                    "midi": 79,
                    "time": 197.8125,
                    "velocity": 0.3858267716535433,
                    "duration": 0.15625
                },
                {
                    "name": "E5",
                    "midi": 76,
                    "time": 197.96875,
                    "velocity": 0.3858267716535433,
                    "duration": 0.15625
                },
                {
                    "name": "C#5",
                    "midi": 73,
                    "time": 198.125,
                    "velocity": 0.3858267716535433,
                    "duration": 0.15625
                },
                {
                    "name": "A4",
                    "midi": 69,
                    "time": 198.28125,
                    "velocity": 0.3858267716535433,
                    "duration": 0.15625
                },
                {
                    "name": "G5",
                    "midi": 79,
                    "time": 198.4375,
                    "velocity": 0.3858267716535433,
                    "duration": 0.15625
                },
                {
                    "name": "E5",
                    "midi": 76,
                    "time": 198.59375,
                    "velocity": 0.3858267716535433,
                    "duration": 0.15625
                },
                {
                    "name": "F5",
                    "midi": 77,
                    "time": 198.75,
                    "velocity": 0.3858267716535433,
                    "duration": 0.625
                },
                {
                    "name": "F5",
                    "midi": 77,
                    "time": 199.53125,
                    "velocity": 0.3858267716535433,
                    "duration": 0.15625
                },
                {
                    "name": "A5",
                    "midi": 81,
                    "time": 199.6875,
                    "velocity": 0.3858267716535433,
                    "duration": 0.15625
                },
                {
                    "name": "F5",
                    "midi": 77,
                    "time": 199.84375,
                    "velocity": 0.3858267716535433,
                    "duration": 0.15625
                },
                {
                    "name": "D5",
                    "midi": 74,
                    "time": 200,
                    "velocity": 0.3858267716535433,
                    "duration": 0.15625
                },
                {
                    "name": "A4",
                    "midi": 69,
                    "time": 200.15625,
                    "velocity": 0.3858267716535433,
                    "duration": 0.15625
                },
                {
                    "name": "A5",
                    "midi": 81,
                    "time": 200.3125,
                    "velocity": 0.3858267716535433,
                    "duration": 0.15625
                },
                {
                    "name": "F5",
                    "midi": 77,
                    "time": 200.46875,
                    "velocity": 0.3858267716535433,
                    "duration": 0.15625
                },
                {
                    "name": "G5",
                    "midi": 79,
                    "time": 200.625,
                    "velocity": 0.3858267716535433,
                    "duration": 0.625
                },
                {
                    "name": "G5",
                    "midi": 79,
                    "time": 201.40625,
                    "velocity": 0.3858267716535433,
                    "duration": 0.15625
                },
                {
                    "name": "C6",
                    "midi": 84,
                    "time": 201.5625,
                    "velocity": 0.3858267716535433,
                    "duration": 0.15625
                },
                {
                    "name": "G5",
                    "midi": 79,
                    "time": 201.71875,
                    "velocity": 0.3858267716535433,
                    "duration": 0.15625
                },
                {
                    "name": "E5",
                    "midi": 76,
                    "time": 201.875,
                    "velocity": 0.3858267716535433,
                    "duration": 0.15625
                },
                {
                    "name": "C5",
                    "midi": 72,
                    "time": 202.03125,
                    "velocity": 0.3858267716535433,
                    "duration": 0.15625
                },
                {
                    "name": "C6",
                    "midi": 84,
                    "time": 202.1875,
                    "velocity": 0.3858267716535433,
                    "duration": 0.15625
                },
                {
                    "name": "G5",
                    "midi": 79,
                    "time": 202.34375,
                    "velocity": 0.3858267716535433,
                    "duration": 0.15625
                },
                {
                    "name": "A5",
                    "midi": 81,
                    "time": 202.5,
                    "velocity": 0.3858267716535433,
                    "duration": 0.625
                },
                {
                    "name": "A5",
                    "midi": 81,
                    "time": 203.28125,
                    "velocity": 0.3858267716535433,
                    "duration": 0.15625
                },
                {
                    "name": "C6",
                    "midi": 84,
                    "time": 203.4375,
                    "velocity": 0.3858267716535433,
                    "duration": 0.15625
                },
                {
                    "name": "A5",
                    "midi": 81,
                    "time": 203.59375,
                    "velocity": 0.3858267716535433,
                    "duration": 0.15625
                },
                {
                    "name": "F5",
                    "midi": 77,
                    "time": 203.75,
                    "velocity": 0.3858267716535433,
                    "duration": 0.15625
                },
                {
                    "name": "C5",
                    "midi": 72,
                    "time": 203.90625,
                    "velocity": 0.3858267716535433,
                    "duration": 0.15625
                },
                {
                    "name": "C6",
                    "midi": 84,
                    "time": 204.0625,
                    "velocity": 0.3858267716535433,
                    "duration": 0.15625
                },
                {
                    "name": "A5",
                    "midi": 81,
                    "time": 204.21875,
                    "velocity": 0.3858267716535433,
                    "duration": 0.15625
                },
                {
                    "name": "G5",
                    "midi": 79,
                    "time": 204.375,
                    "velocity": 0.3858267716535433,
                    "duration": 0.625
                },
                {
                    "name": "A#5",
                    "midi": 82,
                    "time": 205.15625,
                    "velocity": 0.3858267716535433,
                    "duration": 0.15625
                },
                {
                    "name": "G5",
                    "midi": 79,
                    "time": 205.3125,
                    "velocity": 0.3858267716535433,
                    "duration": 0.15625
                },
                {
                    "name": "E5",
                    "midi": 76,
                    "time": 205.46875,
                    "velocity": 0.3858267716535433,
                    "duration": 0.15625
                },
                {
                    "name": "C#5",
                    "midi": 73,
                    "time": 205.625,
                    "velocity": 0.3858267716535433,
                    "duration": 0.15625
                },
                {
                    "name": "A4",
                    "midi": 69,
                    "time": 205.78125,
                    "velocity": 0.3858267716535433,
                    "duration": 0.15625
                },
                {
                    "name": "G5",
                    "midi": 79,
                    "time": 205.9375,
                    "velocity": 0.3858267716535433,
                    "duration": 0.15625
                },
                {
                    "name": "E5",
                    "midi": 76,
                    "time": 206.09375,
                    "velocity": 0.3858267716535433,
                    "duration": 0.15625
                },
                {
                    "name": "F5",
                    "midi": 77,
                    "time": 206.25,
                    "velocity": 0.3858267716535433,
                    "duration": 0.3125
                },
                {
                    "name": "E5",
                    "midi": 76,
                    "time": 206.5625,
                    "velocity": 0.3858267716535433,
                    "duration": 0.15625
                },
                {
                    "name": "D5",
                    "midi": 74,
                    "time": 206.71875,
                    "velocity": 0.3858267716535433,
                    "duration": 0.15625
                },
                {
                    "name": "C#5",
                    "midi": 73,
                    "time": 206.875,
                    "velocity": 0.3858267716535433,
                    "duration": 0.3125
                },
                {
                    "name": "D5",
                    "midi": 74,
                    "time": 207.1875,
                    "velocity": 0.3858267716535433,
                    "duration": 0.3125
                },
                {
                    "name": "E4",
                    "midi": 64,
                    "time": 207.5,
                    "velocity": 0.3858267716535433,
                    "duration": 0.3125
                },
                {
                    "name": "C#5",
                    "midi": 73,
                    "time": 207.8125,
                    "velocity": 0.3858267716535433,
                    "duration": 0.3125
                },
                {
                    "name": "D4",
                    "midi": 62,
                    "time": 208.125,
                    "velocity": 0.3858267716535433,
                    "duration": 1.875
                },
                {
                    "name": "D5",
                    "midi": 74,
                    "time": 210,
                    "velocity": 0.3858267716535433,
                    "duration": 0.3125
                },
                {
                    "name": "A4",
                    "midi": 69,
                    "time": 210.3125,
                    "velocity": 0.3858267716535433,
                    "duration": 0.3125
                },
                {
                    "name": "F5",
                    "midi": 77,
                    "time": 210.625,
                    "velocity": 0.3858267716535433,
                    "duration": 0.3125
                },
                {
                    "name": "D5",
                    "midi": 74,
                    "time": 210.9375,
                    "velocity": 0.3858267716535433,
                    "duration": 0.3125
                },
                {
                    "name": "A5",
                    "midi": 81,
                    "time": 211.25,
                    "velocity": 0.3858267716535433,
                    "duration": 0.3125
                },
                {
                    "name": "D5",
                    "midi": 74,
                    "time": 211.5625,
                    "velocity": 0.3858267716535433,
                    "duration": 0.3125
                },
                {
                    "name": "C#5",
                    "midi": 73,
                    "time": 211.875,
                    "velocity": 0.3858267716535433,
                    "duration": 0.3125
                },
                {
                    "name": "A4",
                    "midi": 69,
                    "time": 212.1875,
                    "velocity": 0.3858267716535433,
                    "duration": 0.3125
                },
                {
                    "name": "E5",
                    "midi": 76,
                    "time": 212.5,
                    "velocity": 0.3858267716535433,
                    "duration": 0.3125
                },
                {
                    "name": "C#5",
                    "midi": 73,
                    "time": 212.8125,
                    "velocity": 0.3858267716535433,
                    "duration": 0.3125
                },
                {
                    "name": "A5",
                    "midi": 81,
                    "time": 213.125,
                    "velocity": 0.3858267716535433,
                    "duration": 0.3125
                },
                {
                    "name": "C#5",
                    "midi": 73,
                    "time": 213.4375,
                    "velocity": 0.3858267716535433,
                    "duration": 0.3125
                },
                {
                    "name": "D5",
                    "midi": 74,
                    "time": 213.75,
                    "velocity": 0.3858267716535433,
                    "duration": 0.3125
                },
                {
                    "name": "A4",
                    "midi": 69,
                    "time": 214.0625,
                    "velocity": 0.3858267716535433,
                    "duration": 0.3125
                },
                {
                    "name": "F5",
                    "midi": 77,
                    "time": 214.375,
                    "velocity": 0.3858267716535433,
                    "duration": 0.3125
                },
                {
                    "name": "D5",
                    "midi": 74,
                    "time": 214.6875,
                    "velocity": 0.3858267716535433,
                    "duration": 0.3125
                },
                {
                    "name": "A5",
                    "midi": 81,
                    "time": 215,
                    "velocity": 0.3858267716535433,
                    "duration": 0.3125
                },
                {
                    "name": "D5",
                    "midi": 74,
                    "time": 215.3125,
                    "velocity": 0.3858267716535433,
                    "duration": 0.3125
                },
                {
                    "name": "E5",
                    "midi": 76,
                    "time": 215.625,
                    "velocity": 0.3858267716535433,
                    "duration": 0.3125
                },
                {
                    "name": "C5",
                    "midi": 72,
                    "time": 215.9375,
                    "velocity": 0.3858267716535433,
                    "duration": 0.3125
                },
                {
                    "name": "G5",
                    "midi": 79,
                    "time": 216.25,
                    "velocity": 0.3858267716535433,
                    "duration": 0.3125
                },
                {
                    "name": "E5",
                    "midi": 76,
                    "time": 216.5625,
                    "velocity": 0.3858267716535433,
                    "duration": 0.3125
                },
                {
                    "name": "C6",
                    "midi": 84,
                    "time": 216.875,
                    "velocity": 0.3858267716535433,
                    "duration": 0.3125
                },
                {
                    "name": "E5",
                    "midi": 76,
                    "time": 217.1875,
                    "velocity": 0.3858267716535433,
                    "duration": 0.3125
                },
                {
                    "name": "F5",
                    "midi": 77,
                    "time": 217.5,
                    "velocity": 0.3858267716535433,
                    "duration": 0.3125
                },
                {
                    "name": "C5",
                    "midi": 72,
                    "time": 217.8125,
                    "velocity": 0.3858267716535433,
                    "duration": 0.3125
                },
                {
                    "name": "A5",
                    "midi": 81,
                    "time": 218.125,
                    "velocity": 0.3858267716535433,
                    "duration": 0.3125
                },
                {
                    "name": "F5",
                    "midi": 77,
                    "time": 218.4375,
                    "velocity": 0.3858267716535433,
                    "duration": 0.3125
                },
                {
                    "name": "C6",
                    "midi": 84,
                    "time": 218.75,
                    "velocity": 0.3858267716535433,
                    "duration": 0.3125
                },
                {
                    "name": "F5",
                    "midi": 77,
                    "time": 219.0625,
                    "velocity": 0.3858267716535433,
                    "duration": 0.3125
                },
                {
                    "name": "E5",
                    "midi": 76,
                    "time": 219.375,
                    "velocity": 0.3858267716535433,
                    "duration": 0.3125
                },
                {
                    "name": "C5",
                    "midi": 72,
                    "time": 219.6875,
                    "velocity": 0.3858267716535433,
                    "duration": 0.3125
                },
                {
                    "name": "G5",
                    "midi": 79,
                    "time": 220,
                    "velocity": 0.3858267716535433,
                    "duration": 0.3125
                },
                {
                    "name": "E5",
                    "midi": 76,
                    "time": 220.3125,
                    "velocity": 0.3858267716535433,
                    "duration": 0.3125
                },
                {
                    "name": "A#5",
                    "midi": 82,
                    "time": 220.625,
                    "velocity": 0.3858267716535433,
                    "duration": 0.3125
                },
                {
                    "name": "E5",
                    "midi": 76,
                    "time": 220.9375,
                    "velocity": 0.3858267716535433,
                    "duration": 0.3125
                },
                {
                    "name": "A5",
                    "midi": 81,
                    "time": 221.25,
                    "velocity": 0.3858267716535433,
                    "duration": 0.3125
                },
                {
                    "name": "A4",
                    "midi": 69,
                    "time": 221.5625,
                    "velocity": 0.3858267716535433,
                    "duration": 0.3125
                },
                {
                    "name": "D5",
                    "midi": 74,
                    "time": 221.875,
                    "velocity": 0.3858267716535433,
                    "duration": 0.3125
                },
                {
                    "name": "F5",
                    "midi": 77,
                    "time": 222.1875,
                    "velocity": 0.3858267716535433,
                    "duration": 0.3125
                },
                {
                    "name": "E5",
                    "midi": 76,
                    "time": 222.5,
                    "velocity": 0.3858267716535433,
                    "duration": 0.3125
                },
                {
                    "name": "D5",
                    "midi": 74,
                    "time": 222.8125,
                    "velocity": 0.3858267716535433,
                    "duration": 0.3125
                },
                {
                    "name": "C#5",
                    "midi": 73,
                    "time": 223.125,
                    "velocity": 0.3858267716535433,
                    "duration": 0.2081298828125
                },
                {
                    "name": "A#4",
                    "midi": 70,
                    "time": 223.3331298828125,
                    "velocity": 0.3858267716535433,
                    "duration": 0.208740234375
                },
                {
                    "name": "A4",
                    "midi": 69,
                    "time": 223.5418701171875,
                    "velocity": 0.3858267716535433,
                    "duration": 0.2081298828125
                },
                {
                    "name": "E5",
                    "midi": 76,
                    "time": 223.75,
                    "velocity": 0.3858267716535433,
                    "duration": 0.2081298828125
                },
                {
                    "name": "D5",
                    "midi": 74,
                    "time": 223.9581298828125,
                    "velocity": 0.3858267716535433,
                    "duration": 0.208740234375
                },
                {
                    "name": "C#5",
                    "midi": 73,
                    "time": 224.1668701171875,
                    "velocity": 0.3858267716535433,
                    "duration": 0.2081298828125
                },
                {
                    "name": "A5",
                    "midi": 81,
                    "time": 224.375,
                    "velocity": 0.3858267716535433,
                    "duration": 0.3125
                },
                {
                    "name": "C#5",
                    "midi": 73,
                    "time": 224.6875,
                    "velocity": 0.3858267716535433,
                    "duration": 0.3125
                },
                {
                    "name": "D5",
                    "midi": 74,
                    "time": 225,
                    "velocity": 0.3858267716535433,
                    "duration": 0.3125
                },
                {
                    "name": "A4",
                    "midi": 69,
                    "time": 225.3125,
                    "velocity": 0.3858267716535433,
                    "duration": 0.3125
                },
                {
                    "name": "F5",
                    "midi": 77,
                    "time": 225.625,
                    "velocity": 0.3858267716535433,
                    "duration": 0.2081298828125
                },
                {
                    "name": "E5",
                    "midi": 76,
                    "time": 225.8331298828125,
                    "velocity": 0.3858267716535433,
                    "duration": 0.208740234375
                },
                {
                    "name": "D5",
                    "midi": 74,
                    "time": 226.0418701171875,
                    "velocity": 0.3858267716535433,
                    "duration": 0.2081298828125
                },
                {
                    "name": "A5",
                    "midi": 81,
                    "time": 226.25,
                    "velocity": 0.3858267716535433,
                    "duration": 0.3125
                },
                {
                    "name": "D5",
                    "midi": 74,
                    "time": 226.5625,
                    "velocity": 0.3858267716535433,
                    "duration": 0.3125
                },
                {
                    "name": "C#5",
                    "midi": 73,
                    "time": 226.875,
                    "velocity": 0.3858267716535433,
                    "duration": 0.2081298828125
                },
                {
                    "name": "A#4",
                    "midi": 70,
                    "time": 227.0831298828125,
                    "velocity": 0.3858267716535433,
                    "duration": 0.208740234375
                },
                {
                    "name": "A4",
                    "midi": 69,
                    "time": 227.2918701171875,
                    "velocity": 0.3858267716535433,
                    "duration": 0.2081298828125
                },
                {
                    "name": "E5",
                    "midi": 76,
                    "time": 227.5,
                    "velocity": 0.3858267716535433,
                    "duration": 0.2081298828125
                },
                {
                    "name": "D5",
                    "midi": 74,
                    "time": 227.7081298828125,
                    "velocity": 0.3858267716535433,
                    "duration": 0.208740234375
                },
                {
                    "name": "C#5",
                    "midi": 73,
                    "time": 227.9168701171875,
                    "velocity": 0.3858267716535433,
                    "duration": 0.2081298828125
                },
                {
                    "name": "A5",
                    "midi": 81,
                    "time": 228.125,
                    "velocity": 0.3858267716535433,
                    "duration": 0.3125
                },
                {
                    "name": "C#5",
                    "midi": 73,
                    "time": 228.4375,
                    "velocity": 0.3858267716535433,
                    "duration": 0.3125
                },
                {
                    "name": "D5",
                    "midi": 74,
                    "time": 228.75,
                    "velocity": 0.3858267716535433,
                    "duration": 0.3125
                },
                {
                    "name": "A4",
                    "midi": 69,
                    "time": 229.0625,
                    "velocity": 0.3858267716535433,
                    "duration": 0.3125
                },
                {
                    "name": "F5",
                    "midi": 77,
                    "time": 229.375,
                    "velocity": 0.3858267716535433,
                    "duration": 0.2081298828125
                },
                {
                    "name": "E5",
                    "midi": 76,
                    "time": 229.5831298828125,
                    "velocity": 0.3858267716535433,
                    "duration": 0.208740234375
                },
                {
                    "name": "D5",
                    "midi": 74,
                    "time": 229.7918701171875,
                    "velocity": 0.3858267716535433,
                    "duration": 0.2081298828125
                },
                {
                    "name": "A5",
                    "midi": 81,
                    "time": 230,
                    "velocity": 0.3858267716535433,
                    "duration": 0.3125
                },
                {
                    "name": "D5",
                    "midi": 74,
                    "time": 230.3125,
                    "velocity": 0.3858267716535433,
                    "duration": 0.3125
                },
                {
                    "name": "E5",
                    "midi": 76,
                    "time": 230.625,
                    "velocity": 0.3858267716535433,
                    "duration": 0.2081298828125
                },
                {
                    "name": "D5",
                    "midi": 74,
                    "time": 230.8331298828125,
                    "velocity": 0.3858267716535433,
                    "duration": 0.208740234375
                },
                {
                    "name": "C5",
                    "midi": 72,
                    "time": 231.0418701171875,
                    "velocity": 0.3858267716535433,
                    "duration": 0.2081298828125
                },
                {
                    "name": "G5",
                    "midi": 79,
                    "time": 231.25,
                    "velocity": 0.3858267716535433,
                    "duration": 0.2081298828125
                },
                {
                    "name": "F5",
                    "midi": 77,
                    "time": 231.4581298828125,
                    "velocity": 0.3858267716535433,
                    "duration": 0.208740234375
                },
                {
                    "name": "E5",
                    "midi": 76,
                    "time": 231.6668701171875,
                    "velocity": 0.3858267716535433,
                    "duration": 0.2081298828125
                },
                {
                    "name": "C6",
                    "midi": 84,
                    "time": 231.875,
                    "velocity": 0.3858267716535433,
                    "duration": 0.3125
                },
                {
                    "name": "E5",
                    "midi": 76,
                    "time": 232.1875,
                    "velocity": 0.3858267716535433,
                    "duration": 0.3125
                },
                {
                    "name": "F5",
                    "midi": 77,
                    "time": 232.5,
                    "velocity": 0.3858267716535433,
                    "duration": 0.3125
                },
                {
                    "name": "C5",
                    "midi": 72,
                    "time": 232.8125,
                    "velocity": 0.3858267716535433,
                    "duration": 0.3125
                },
                {
                    "name": "A5",
                    "midi": 81,
                    "time": 233.125,
                    "velocity": 0.3858267716535433,
                    "duration": 0.2081298828125
                },
                {
                    "name": "G5",
                    "midi": 79,
                    "time": 233.3331298828125,
                    "velocity": 0.3858267716535433,
                    "duration": 0.208740234375
                },
                {
                    "name": "F5",
                    "midi": 77,
                    "time": 233.5418701171875,
                    "velocity": 0.3858267716535433,
                    "duration": 0.2081298828125
                },
                {
                    "name": "C6",
                    "midi": 84,
                    "time": 233.75,
                    "velocity": 0.3858267716535433,
                    "duration": 0.3125
                },
                {
                    "name": "F5",
                    "midi": 77,
                    "time": 234.0625,
                    "velocity": 0.3858267716535433,
                    "duration": 0.3125
                },
                {
                    "name": "E5",
                    "midi": 76,
                    "time": 234.375,
                    "velocity": 0.3858267716535433,
                    "duration": 0.2081298828125
                },
                {
                    "name": "D5",
                    "midi": 74,
                    "time": 234.5831298828125,
                    "velocity": 0.3858267716535433,
                    "duration": 0.208740234375
                },
                {
                    "name": "C5",
                    "midi": 72,
                    "time": 234.7918701171875,
                    "velocity": 0.3858267716535433,
                    "duration": 0.2081298828125
                },
                {
                    "name": "G5",
                    "midi": 79,
                    "time": 235,
                    "velocity": 0.3858267716535433,
                    "duration": 0.2081298828125
                },
                {
                    "name": "F5",
                    "midi": 77,
                    "time": 235.2081298828125,
                    "velocity": 0.3858267716535433,
                    "duration": 0.208740234375
                },
                {
                    "name": "E5",
                    "midi": 76,
                    "time": 235.4168701171875,
                    "velocity": 0.3858267716535433,
                    "duration": 0.2081298828125
                },
                {
                    "name": "A#5",
                    "midi": 82,
                    "time": 235.625,
                    "velocity": 0.3858267716535433,
                    "duration": 0.2081298828125
                },
                {
                    "name": "A5",
                    "midi": 81,
                    "time": 235.8331298828125,
                    "velocity": 0.3858267716535433,
                    "duration": 0.208740234375
                },
                {
                    "name": "G5",
                    "midi": 79,
                    "time": 236.0418701171875,
                    "velocity": 0.3858267716535433,
                    "duration": 0.2081298828125
                },
                {
                    "name": "F5",
                    "midi": 77,
                    "time": 236.25,
                    "velocity": 0.3858267716535433,
                    "duration": 0.2081298828125
                },
                {
                    "name": "E5",
                    "midi": 76,
                    "time": 236.4581298828125,
                    "velocity": 0.3858267716535433,
                    "duration": 0.208740234375
                },
                {
                    "name": "D5",
                    "midi": 74,
                    "time": 236.6668701171875,
                    "velocity": 0.3858267716535433,
                    "duration": 0.2081298828125
                },
                {
                    "name": "C#5",
                    "midi": 73,
                    "time": 236.875,
                    "velocity": 0.3858267716535433,
                    "duration": 0.2081298828125
                },
                {
                    "name": "A4",
                    "midi": 69,
                    "time": 237.0831298828125,
                    "velocity": 0.3858267716535433,
                    "duration": 0.208740234375
                },
                {
                    "name": "D5",
                    "midi": 74,
                    "time": 237.2918701171875,
                    "velocity": 0.3858267716535433,
                    "duration": 0.2081298828125
                },
                {
                    "name": "E4",
                    "midi": 64,
                    "time": 237.5,
                    "velocity": 0.3858267716535433,
                    "duration": 0.2081298828125
                },
                {
                    "name": "D5",
                    "midi": 74,
                    "time": 237.7081298828125,
                    "velocity": 0.3858267716535433,
                    "duration": 0.208740234375
                },
                {
                    "name": "C#5",
                    "midi": 73,
                    "time": 237.9168701171875,
                    "velocity": 0.3858267716535433,
                    "duration": 0.2081298828125
                },
                {
                    "name": "D5",
                    "midi": 74,
                    "time": 238.125,
                    "velocity": 0.3858267716535433,
                    "duration": 1.875
                },
                {
                    "name": "D4",
                    "midi": 62,
                    "time": 240,
                    "velocity": 0.3858267716535433,
                    "duration": 0.625
                },
                {
                    "name": "D5",
                    "midi": 74,
                    "time": 240.625,
                    "velocity": 0.3858267716535433,
                    "duration": 1.875
                },
                {
                    "name": "C#5",
                    "midi": 73,
                    "time": 242.5,
                    "velocity": 0.3858267716535433,
                    "duration": 0.3125
                },
                {
                    "name": "B4",
                    "midi": 71,
                    "time": 242.8125,
                    "velocity": 0.3858267716535433,
                    "duration": 0.3125
                },
                {
                    "name": "C#5",
                    "midi": 73,
                    "time": 243.125,
                    "velocity": 0.3858267716535433,
                    "duration": 0.625
                },
                {
                    "name": "D5",
                    "midi": 74,
                    "time": 243.75,
                    "velocity": 0.3858267716535433,
                    "duration": 0.625
                },
                {
                    "name": "A4",
                    "midi": 69,
                    "time": 244.375,
                    "velocity": 0.3858267716535433,
                    "duration": 0.625
                },
                {
                    "name": "A5",
                    "midi": 81,
                    "time": 245,
                    "velocity": 0.3858267716535433,
                    "duration": 0.3125
                },
                {
                    "name": "B5",
                    "midi": 83,
                    "time": 245.3125,
                    "velocity": 0.3858267716535433,
                    "duration": 0.3125
                },
                {
                    "name": "C6",
                    "midi": 84,
                    "time": 245.625,
                    "velocity": 0.3858267716535433,
                    "duration": 0.625
                },
                {
                    "name": "C5",
                    "midi": 72,
                    "time": 246.25,
                    "velocity": 0.3858267716535433,
                    "duration": 0.625
                },
                {
                    "name": "A#5",
                    "midi": 82,
                    "time": 246.875,
                    "velocity": 0.3858267716535433,
                    "duration": 1.25
                },
                {
                    "name": "A5",
                    "midi": 81,
                    "time": 248.125,
                    "velocity": 0.3858267716535433,
                    "duration": 0.3125
                },
                {
                    "name": "G5",
                    "midi": 79,
                    "time": 248.4375,
                    "velocity": 0.3858267716535433,
                    "duration": 0.3125
                },
                {
                    "name": "A5",
                    "midi": 81,
                    "time": 248.75,
                    "velocity": 0.3858267716535433,
                    "duration": 0.625
                },
                {
                    "name": "G5",
                    "midi": 79,
                    "time": 249.375,
                    "velocity": 0.3858267716535433,
                    "duration": 0.625
                },
                {
                    "name": "C5",
                    "midi": 72,
                    "time": 250,
                    "velocity": 0.3858267716535433,
                    "duration": 0.625
                },
                {
                    "name": "G5",
                    "midi": 79,
                    "time": 250.625,
                    "velocity": 0.3858267716535433,
                    "duration": 1.25
                },
                {
                    "name": "F5",
                    "midi": 77,
                    "time": 251.875,
                    "velocity": 0.3858267716535433,
                    "duration": 0.3125
                },
                {
                    "name": "E5",
                    "midi": 76,
                    "time": 252.1875,
                    "velocity": 0.3858267716535433,
                    "duration": 0.3125
                },
                {
                    "name": "F5",
                    "midi": 77,
                    "time": 252.5,
                    "velocity": 0.3858267716535433,
                    "duration": 0.3125
                },
                {
                    "name": "G5",
                    "midi": 79,
                    "time": 252.8125,
                    "velocity": 0.3858267716535433,
                    "duration": 0.3125
                },
                {
                    "name": "E5",
                    "midi": 76,
                    "time": 253.125,
                    "velocity": 0.3858267716535433,
                    "duration": 1.25
                },
                {
                    "name": "A4",
                    "midi": 69,
                    "time": 255.625,
                    "velocity": 0.3858267716535433,
                    "duration": 0.625
                },
                {
                    "name": "D5",
                    "midi": 74,
                    "time": 256.25,
                    "velocity": 0.3858267716535433,
                    "duration": 0.625
                },
                {
                    "name": "E5",
                    "midi": 76,
                    "time": 256.875,
                    "velocity": 0.3858267716535433,
                    "duration": 0.625
                },
                {
                    "name": "A4",
                    "midi": 69,
                    "time": 257.5,
                    "velocity": 0.3858267716535433,
                    "duration": 0.625
                },
                {
                    "name": "G5",
                    "midi": 79,
                    "time": 258.125,
                    "velocity": 0.3858267716535433,
                    "duration": 1.25
                },
                {
                    "name": "F5",
                    "midi": 77,
                    "time": 259.375,
                    "velocity": 0.3858267716535433,
                    "duration": 0.3125
                },
                {
                    "name": "E5",
                    "midi": 76,
                    "time": 259.6875,
                    "velocity": 0.3858267716535433,
                    "duration": 0.3125
                },
                {
                    "name": "F5",
                    "midi": 77,
                    "time": 260,
                    "velocity": 0.3858267716535433,
                    "duration": 1.25
                },
                {
                    "name": "E5",
                    "midi": 76,
                    "time": 261.25,
                    "velocity": 0.3858267716535433,
                    "duration": 0.3125
                },
                {
                    "name": "D5",
                    "midi": 74,
                    "time": 261.5625,
                    "velocity": 0.3858267716535433,
                    "duration": 0.3125
                },
                {
                    "name": "E5",
                    "midi": 76,
                    "time": 261.875,
                    "velocity": 0.3858267716535433,
                    "duration": 0.625
                },
                {
                    "name": "F5",
                    "midi": 77,
                    "time": 262.5,
                    "velocity": 0.3858267716535433,
                    "duration": 0.625
                },
                {
                    "name": "C5",
                    "midi": 72,
                    "time": 263.125,
                    "velocity": 0.3858267716535433,
                    "duration": 0.625
                },
                {
                    "name": "F5",
                    "midi": 77,
                    "time": 263.75,
                    "velocity": 0.3858267716535433,
                    "duration": 0.625
                },
                {
                    "name": "D#5",
                    "midi": 75,
                    "time": 264.375,
                    "velocity": 0.3858267716535433,
                    "duration": 0.625
                },
                {
                    "name": "C#5",
                    "midi": 73,
                    "time": 265,
                    "velocity": 0.3858267716535433,
                    "duration": 0.625
                },
                {
                    "name": "D5",
                    "midi": 74,
                    "time": 265.625,
                    "velocity": 0.3858267716535433,
                    "duration": 0.625
                },
                {
                    "name": "A3",
                    "midi": 57,
                    "time": 266.25,
                    "velocity": 0.3858267716535433,
                    "duration": 0.625
                },
                {
                    "name": "C#5",
                    "midi": 73,
                    "time": 266.875,
                    "velocity": 0.3858267716535433,
                    "duration": 1.25
                },
                {
                    "name": "D5",
                    "midi": 74,
                    "time": 268.125,
                    "velocity": 0.3858267716535433,
                    "duration": 1.875
                },
                {
                    "name": "D5",
                    "midi": 74,
                    "time": 270,
                    "velocity": 0.3858267716535433,
                    "duration": 0.3125
                },
                {
                    "name": "D4",
                    "midi": 62,
                    "time": 270.3125,
                    "velocity": 0.3858267716535433,
                    "duration": 0.3125
                },
                {
                    "name": "F4",
                    "midi": 65,
                    "time": 270.625,
                    "velocity": 0.3858267716535433,
                    "duration": 0.3125
                },
                {
                    "name": "D4",
                    "midi": 62,
                    "time": 270.9375,
                    "velocity": 0.3858267716535433,
                    "duration": 0.3125
                },
                {
                    "name": "A4",
                    "midi": 69,
                    "time": 271.25,
                    "velocity": 0.3858267716535433,
                    "duration": 0.3125
                },
                {
                    "name": "D5",
                    "midi": 74,
                    "time": 271.5625,
                    "velocity": 0.3858267716535433,
                    "duration": 0.3125
                },
                {
                    "name": "C#5",
                    "midi": 73,
                    "time": 271.875,
                    "velocity": 0.3858267716535433,
                    "duration": 0.3125
                },
                {
                    "name": "A3",
                    "midi": 57,
                    "time": 272.1875,
                    "velocity": 0.3858267716535433,
                    "duration": 0.3125
                },
                {
                    "name": "C#4",
                    "midi": 61,
                    "time": 272.5,
                    "velocity": 0.3858267716535433,
                    "duration": 0.3125
                },
                {
                    "name": "E4",
                    "midi": 64,
                    "time": 272.8125,
                    "velocity": 0.3858267716535433,
                    "duration": 0.3125
                },
                {
                    "name": "A4",
                    "midi": 69,
                    "time": 273.125,
                    "velocity": 0.3858267716535433,
                    "duration": 0.3125
                },
                {
                    "name": "C#5",
                    "midi": 73,
                    "time": 273.4375,
                    "velocity": 0.3858267716535433,
                    "duration": 0.3125
                },
                {
                    "name": "D5",
                    "midi": 74,
                    "time": 273.75,
                    "velocity": 0.3858267716535433,
                    "duration": 0.3125
                },
                {
                    "name": "D4",
                    "midi": 62,
                    "time": 274.0625,
                    "velocity": 0.3858267716535433,
                    "duration": 0.3125
                },
                {
                    "name": "F4",
                    "midi": 65,
                    "time": 274.375,
                    "velocity": 0.3858267716535433,
                    "duration": 0.3125
                },
                {
                    "name": "D4",
                    "midi": 62,
                    "time": 274.6875,
                    "velocity": 0.3858267716535433,
                    "duration": 0.3125
                },
                {
                    "name": "A4",
                    "midi": 69,
                    "time": 275,
                    "velocity": 0.3858267716535433,
                    "duration": 0.3125
                },
                {
                    "name": "D5",
                    "midi": 74,
                    "time": 275.3125,
                    "velocity": 0.3858267716535433,
                    "duration": 0.3125
                },
                {
                    "name": "E5",
                    "midi": 76,
                    "time": 275.625,
                    "velocity": 0.3858267716535433,
                    "duration": 0.3125
                },
                {
                    "name": "C4",
                    "midi": 60,
                    "time": 275.9375,
                    "velocity": 0.3858267716535433,
                    "duration": 0.3125
                },
                {
                    "name": "E4",
                    "midi": 64,
                    "time": 276.25,
                    "velocity": 0.3858267716535433,
                    "duration": 0.3125
                },
                {
                    "name": "G4",
                    "midi": 67,
                    "time": 276.5625,
                    "velocity": 0.3858267716535433,
                    "duration": 0.3125
                },
                {
                    "name": "C5",
                    "midi": 72,
                    "time": 276.875,
                    "velocity": 0.3858267716535433,
                    "duration": 0.3125
                },
                {
                    "name": "E5",
                    "midi": 76,
                    "time": 277.1875,
                    "velocity": 0.3858267716535433,
                    "duration": 0.3125
                },
                {
                    "name": "F5",
                    "midi": 77,
                    "time": 277.5,
                    "velocity": 0.3858267716535433,
                    "duration": 0.3125
                },
                {
                    "name": "F4",
                    "midi": 65,
                    "time": 277.8125,
                    "velocity": 0.3858267716535433,
                    "duration": 0.3125
                },
                {
                    "name": "A4",
                    "midi": 69,
                    "time": 278.125,
                    "velocity": 0.3858267716535433,
                    "duration": 0.3125
                },
                {
                    "name": "F4",
                    "midi": 65,
                    "time": 278.4375,
                    "velocity": 0.3858267716535433,
                    "duration": 0.3125
                },
                {
                    "name": "C5",
                    "midi": 72,
                    "time": 278.75,
                    "velocity": 0.3858267716535433,
                    "duration": 0.3125
                },
                {
                    "name": "F5",
                    "midi": 77,
                    "time": 279.0625,
                    "velocity": 0.3858267716535433,
                    "duration": 0.3125
                },
                {
                    "name": "E5",
                    "midi": 76,
                    "time": 279.375,
                    "velocity": 0.3858267716535433,
                    "duration": 0.3125
                },
                {
                    "name": "C4",
                    "midi": 60,
                    "time": 279.6875,
                    "velocity": 0.3858267716535433,
                    "duration": 0.3125
                },
                {
                    "name": "E4",
                    "midi": 64,
                    "time": 280,
                    "velocity": 0.3858267716535433,
                    "duration": 0.3125
                },
                {
                    "name": "G4",
                    "midi": 67,
                    "time": 280.3125,
                    "velocity": 0.3858267716535433,
                    "duration": 0.3125
                },
                {
                    "name": "C#5",
                    "midi": 73,
                    "time": 280.625,
                    "velocity": 0.3858267716535433,
                    "duration": 0.3125
                },
                {
                    "name": "E5",
                    "midi": 76,
                    "time": 280.9375,
                    "velocity": 0.3858267716535433,
                    "duration": 0.3125
                },
                {
                    "name": "D5",
                    "midi": 74,
                    "time": 281.25,
                    "velocity": 0.3858267716535433,
                    "duration": 0.3125
                },
                {
                    "name": "D4",
                    "midi": 62,
                    "time": 281.5625,
                    "velocity": 0.3858267716535433,
                    "duration": 0.3125
                },
                {
                    "name": "F4",
                    "midi": 65,
                    "time": 281.875,
                    "velocity": 0.3858267716535433,
                    "duration": 0.3125
                },
                {
                    "name": "D4",
                    "midi": 62,
                    "time": 282.1875,
                    "velocity": 0.3858267716535433,
                    "duration": 0.3125
                },
                {
                    "name": "A#4",
                    "midi": 70,
                    "time": 282.5,
                    "velocity": 0.3858267716535433,
                    "duration": 0.3125
                },
                {
                    "name": "D5",
                    "midi": 74,
                    "time": 282.8125,
                    "velocity": 0.3858267716535433,
                    "duration": 0.3125
                },
                {
                    "name": "C#5",
                    "midi": 73,
                    "time": 283.125,
                    "velocity": 0.3858267716535433,
                    "duration": 0.3125
                },
                {
                    "name": "A3",
                    "midi": 57,
                    "time": 283.4375,
                    "velocity": 0.3858267716535433,
                    "duration": 0.3125
                },
                {
                    "name": "C#4",
                    "midi": 61,
                    "time": 283.75,
                    "velocity": 0.3858267716535433,
                    "duration": 0.3125
                },
                {
                    "name": "E4",
                    "midi": 64,
                    "time": 284.0625,
                    "velocity": 0.3858267716535433,
                    "duration": 0.3125
                },
                {
                    "name": "A4",
                    "midi": 69,
                    "time": 284.375,
                    "velocity": 0.3858267716535433,
                    "duration": 0.3125
                },
                {
                    "name": "C#5",
                    "midi": 73,
                    "time": 284.6875,
                    "velocity": 0.3858267716535433,
                    "duration": 0.3125
                },
                {
                    "name": "D5",
                    "midi": 74,
                    "time": 285,
                    "velocity": 0.3858267716535433,
                    "duration": 0.3125
                },
                {
                    "name": "D4",
                    "midi": 62,
                    "time": 285.3125,
                    "velocity": 0.3858267716535433,
                    "duration": 0.3125
                },
                {
                    "name": "F4",
                    "midi": 65,
                    "time": 285.625,
                    "velocity": 0.3858267716535433,
                    "duration": 0.3125
                },
                {
                    "name": "D4",
                    "midi": 62,
                    "time": 285.9375,
                    "velocity": 0.3858267716535433,
                    "duration": 0.3125
                },
                {
                    "name": "A4",
                    "midi": 69,
                    "time": 286.25,
                    "velocity": 0.3858267716535433,
                    "duration": 0.3125
                },
                {
                    "name": "D5",
                    "midi": 74,
                    "time": 286.5625,
                    "velocity": 0.3858267716535433,
                    "duration": 0.3125
                },
                {
                    "name": "C#5",
                    "midi": 73,
                    "time": 286.875,
                    "velocity": 0.3858267716535433,
                    "duration": 0.3125
                },
                {
                    "name": "A3",
                    "midi": 57,
                    "time": 287.1875,
                    "velocity": 0.3858267716535433,
                    "duration": 0.3125
                },
                {
                    "name": "C#4",
                    "midi": 61,
                    "time": 287.5,
                    "velocity": 0.3858267716535433,
                    "duration": 0.3125
                },
                {
                    "name": "E4",
                    "midi": 64,
                    "time": 287.8125,
                    "velocity": 0.3858267716535433,
                    "duration": 0.3125
                },
                {
                    "name": "A4",
                    "midi": 69,
                    "time": 288.125,
                    "velocity": 0.3858267716535433,
                    "duration": 0.3125
                },
                {
                    "name": "C#5",
                    "midi": 73,
                    "time": 288.4375,
                    "velocity": 0.3858267716535433,
                    "duration": 0.3125
                },
                {
                    "name": "D5",
                    "midi": 74,
                    "time": 288.75,
                    "velocity": 0.3858267716535433,
                    "duration": 0.3125
                },
                {
                    "name": "D4",
                    "midi": 62,
                    "time": 289.0625,
                    "velocity": 0.3858267716535433,
                    "duration": 0.3125
                },
                {
                    "name": "F4",
                    "midi": 65,
                    "time": 289.375,
                    "velocity": 0.3858267716535433,
                    "duration": 0.3125
                },
                {
                    "name": "D4",
                    "midi": 62,
                    "time": 289.6875,
                    "velocity": 0.3858267716535433,
                    "duration": 0.3125
                },
                {
                    "name": "A4",
                    "midi": 69,
                    "time": 290,
                    "velocity": 0.3858267716535433,
                    "duration": 0.3125
                },
                {
                    "name": "D5",
                    "midi": 74,
                    "time": 290.3125,
                    "velocity": 0.3858267716535433,
                    "duration": 0.3125
                },
                {
                    "name": "E5",
                    "midi": 76,
                    "time": 290.625,
                    "velocity": 0.3858267716535433,
                    "duration": 0.3125
                },
                {
                    "name": "C4",
                    "midi": 60,
                    "time": 290.9375,
                    "velocity": 0.3858267716535433,
                    "duration": 0.3125
                },
                {
                    "name": "E4",
                    "midi": 64,
                    "time": 291.25,
                    "velocity": 0.3858267716535433,
                    "duration": 0.3125
                },
                {
                    "name": "G4",
                    "midi": 67,
                    "time": 291.5625,
                    "velocity": 0.3858267716535433,
                    "duration": 0.3125
                },
                {
                    "name": "C5",
                    "midi": 72,
                    "time": 291.875,
                    "velocity": 0.3858267716535433,
                    "duration": 0.3125
                },
                {
                    "name": "E5",
                    "midi": 76,
                    "time": 292.1875,
                    "velocity": 0.3858267716535433,
                    "duration": 0.3125
                },
                {
                    "name": "F5",
                    "midi": 77,
                    "time": 292.5,
                    "velocity": 0.3858267716535433,
                    "duration": 0.3125
                },
                {
                    "name": "F4",
                    "midi": 65,
                    "time": 292.8125,
                    "velocity": 0.3858267716535433,
                    "duration": 0.3125
                },
                {
                    "name": "A4",
                    "midi": 69,
                    "time": 293.125,
                    "velocity": 0.3858267716535433,
                    "duration": 0.3125
                },
                {
                    "name": "F4",
                    "midi": 65,
                    "time": 293.4375,
                    "velocity": 0.3858267716535433,
                    "duration": 0.3125
                },
                {
                    "name": "C5",
                    "midi": 72,
                    "time": 293.75,
                    "velocity": 0.3858267716535433,
                    "duration": 0.3125
                },
                {
                    "name": "F5",
                    "midi": 77,
                    "time": 294.0625,
                    "velocity": 0.3858267716535433,
                    "duration": 0.3125
                },
                {
                    "name": "E5",
                    "midi": 76,
                    "time": 294.375,
                    "velocity": 0.3858267716535433,
                    "duration": 0.3125
                },
                {
                    "name": "F5",
                    "midi": 77,
                    "time": 294.6875,
                    "velocity": 0.3858267716535433,
                    "duration": 0.3125
                },
                {
                    "name": "G5",
                    "midi": 79,
                    "time": 295,
                    "velocity": 0.3858267716535433,
                    "duration": 0.3125
                },
                {
                    "name": "C#5",
                    "midi": 73,
                    "time": 295.3125,
                    "velocity": 0.3858267716535433,
                    "duration": 0.3125
                },
                {
                    "name": "A4",
                    "midi": 69,
                    "time": 295.625,
                    "velocity": 0.3858267716535433,
                    "duration": 0.3125
                },
                {
                    "name": "G5",
                    "midi": 79,
                    "time": 295.9375,
                    "velocity": 0.3858267716535433,
                    "duration": 0.3125
                },
                {
                    "name": "F5",
                    "midi": 77,
                    "time": 296.25,
                    "velocity": 0.3858267716535433,
                    "duration": 0.3125
                },
                {
                    "name": "E5",
                    "midi": 76,
                    "time": 296.5625,
                    "velocity": 0.3858267716535433,
                    "duration": 0.15625
                },
                {
                    "name": "D5",
                    "midi": 74,
                    "time": 296.71875,
                    "velocity": 0.3858267716535433,
                    "duration": 0.15625
                },
                {
                    "name": "C#5",
                    "midi": 73,
                    "time": 296.875,
                    "velocity": 0.3858267716535433,
                    "duration": 0.9375
                },
                {
                    "name": "D5",
                    "midi": 74,
                    "time": 297.8125,
                    "velocity": 0.3858267716535433,
                    "duration": 0.3125
                },
                {
                    "name": "D5",
                    "midi": 74,
                    "time": 298.125,
                    "velocity": 0.3858267716535433,
                    "duration": 1.875
                },
                {
                    "name": "A5",
                    "midi": 81,
                    "time": 300.15625,
                    "velocity": 0.3858267716535433,
                    "duration": 0.15625
                },
                {
                    "name": "F5",
                    "midi": 77,
                    "time": 300.3125,
                    "velocity": 0.3858267716535433,
                    "duration": 0.15625
                },
                {
                    "name": "A5",
                    "midi": 81,
                    "time": 300.46875,
                    "velocity": 0.3858267716535433,
                    "duration": 0.15625
                },
                {
                    "name": "D5",
                    "midi": 74,
                    "time": 300.625,
                    "velocity": 0.3858267716535433,
                    "duration": 0.625
                },
                {
                    "name": "A5",
                    "midi": 81,
                    "time": 301.40625,
                    "velocity": 0.3858267716535433,
                    "duration": 0.15625
                },
                {
                    "name": "F5",
                    "midi": 77,
                    "time": 301.5625,
                    "velocity": 0.3858267716535433,
                    "duration": 0.15625
                },
                {
                    "name": "A5",
                    "midi": 81,
                    "time": 301.71875,
                    "velocity": 0.3858267716535433,
                    "duration": 0.15625
                },
                {
                    "name": "C#5",
                    "midi": 73,
                    "time": 301.875,
                    "velocity": 0.3858267716535433,
                    "duration": 0.625
                },
                {
                    "name": "A5",
                    "midi": 81,
                    "time": 302.65625,
                    "velocity": 0.3858267716535433,
                    "duration": 0.15625
                },
                {
                    "name": "E5",
                    "midi": 76,
                    "time": 302.8125,
                    "velocity": 0.3858267716535433,
                    "duration": 0.15625
                },
                {
                    "name": "A5",
                    "midi": 81,
                    "time": 302.96875,
                    "velocity": 0.3858267716535433,
                    "duration": 0.15625
                },
                {
                    "name": "C#5",
                    "midi": 73,
                    "time": 303.125,
                    "velocity": 0.3858267716535433,
                    "duration": 0.625
                },
                {
                    "name": "A5",
                    "midi": 81,
                    "time": 303.90625,
                    "velocity": 0.3858267716535433,
                    "duration": 0.15625
                },
                {
                    "name": "F5",
                    "midi": 77,
                    "time": 304.0625,
                    "velocity": 0.3858267716535433,
                    "duration": 0.15625
                },
                {
                    "name": "A5",
                    "midi": 81,
                    "time": 304.21875,
                    "velocity": 0.3858267716535433,
                    "duration": 0.15625
                },
                {
                    "name": "D5",
                    "midi": 74,
                    "time": 304.375,
                    "velocity": 0.3858267716535433,
                    "duration": 0.625
                },
                {
                    "name": "A5",
                    "midi": 81,
                    "time": 305.15625,
                    "velocity": 0.3858267716535433,
                    "duration": 0.15625
                },
                {
                    "name": "F5",
                    "midi": 77,
                    "time": 305.3125,
                    "velocity": 0.3858267716535433,
                    "duration": 0.15625
                },
                {
                    "name": "A5",
                    "midi": 81,
                    "time": 305.46875,
                    "velocity": 0.3858267716535433,
                    "duration": 0.15625
                },
                {
                    "name": "E5",
                    "midi": 76,
                    "time": 305.625,
                    "velocity": 0.3858267716535433,
                    "duration": 0.625
                },
                {
                    "name": "C6",
                    "midi": 84,
                    "time": 306.40625,
                    "velocity": 0.3858267716535433,
                    "duration": 0.15625
                },
                {
                    "name": "G5",
                    "midi": 79,
                    "time": 306.5625,
                    "velocity": 0.3858267716535433,
                    "duration": 0.15625
                },
                {
                    "name": "C6",
                    "midi": 84,
                    "time": 306.71875,
                    "velocity": 0.3858267716535433,
                    "duration": 0.15625
                },
                {
                    "name": "E5",
                    "midi": 76,
                    "time": 306.875,
                    "velocity": 0.3858267716535433,
                    "duration": 0.625
                },
                {
                    "name": "C6",
                    "midi": 84,
                    "time": 307.65625,
                    "velocity": 0.3858267716535433,
                    "duration": 0.15625
                },
                {
                    "name": "A5",
                    "midi": 81,
                    "time": 307.8125,
                    "velocity": 0.3858267716535433,
                    "duration": 0.15625
                },
                {
                    "name": "C6",
                    "midi": 84,
                    "time": 307.96875,
                    "velocity": 0.3858267716535433,
                    "duration": 0.15625
                },
                {
                    "name": "F5",
                    "midi": 77,
                    "time": 308.125,
                    "velocity": 0.3858267716535433,
                    "duration": 0.625
                },
                {
                    "name": "C6",
                    "midi": 84,
                    "time": 308.90625,
                    "velocity": 0.3858267716535433,
                    "duration": 0.15625
                },
                {
                    "name": "A5",
                    "midi": 81,
                    "time": 309.0625,
                    "velocity": 0.3858267716535433,
                    "duration": 0.15625
                },
                {
                    "name": "C6",
                    "midi": 84,
                    "time": 309.21875,
                    "velocity": 0.3858267716535433,
                    "duration": 0.15625
                },
                {
                    "name": "E5",
                    "midi": 76,
                    "time": 309.375,
                    "velocity": 0.3858267716535433,
                    "duration": 0.625
                },
                {
                    "name": "G5",
                    "midi": 79,
                    "time": 310.15625,
                    "velocity": 0.3858267716535433,
                    "duration": 0.15625
                },
                {
                    "name": "E5",
                    "midi": 76,
                    "time": 310.3125,
                    "velocity": 0.3858267716535433,
                    "duration": 0.15625
                },
                {
                    "name": "G5",
                    "midi": 79,
                    "time": 310.46875,
                    "velocity": 0.3858267716535433,
                    "duration": 0.15625
                },
                {
                    "name": "C#5",
                    "midi": 73,
                    "time": 310.625,
                    "velocity": 0.3858267716535433,
                    "duration": 0.625
                },
                {
                    "name": "A5",
                    "midi": 81,
                    "time": 311.40625,
                    "velocity": 0.3858267716535433,
                    "duration": 0.15625
                },
                {
                    "name": "F5",
                    "midi": 77,
                    "time": 311.5625,
                    "velocity": 0.3858267716535433,
                    "duration": 0.15625
                },
                {
                    "name": "A5",
                    "midi": 81,
                    "time": 311.71875,
                    "velocity": 0.3858267716535433,
                    "duration": 0.15625
                },
                {
                    "name": "D5",
                    "midi": 74,
                    "time": 311.875,
                    "velocity": 0.3858267716535433,
                    "duration": 0.625
                },
                {
                    "name": "D5",
                    "midi": 74,
                    "time": 312.65625,
                    "velocity": 0.3858267716535433,
                    "duration": 0.15625
                },
                {
                    "name": "F5",
                    "midi": 77,
                    "time": 312.8125,
                    "velocity": 0.3858267716535433,
                    "duration": 0.15625
                },
                {
                    "name": "D5",
                    "midi": 74,
                    "time": 312.96875,
                    "velocity": 0.3858267716535433,
                    "duration": 0.15625
                },
                {
                    "name": "C#5",
                    "midi": 73,
                    "time": 313.125,
                    "velocity": 0.3858267716535433,
                    "duration": 0.625
                },
                {
                    "name": "A5",
                    "midi": 81,
                    "time": 313.90625,
                    "velocity": 0.3858267716535433,
                    "duration": 0.15625
                },
                {
                    "name": "E5",
                    "midi": 76,
                    "time": 314.0625,
                    "velocity": 0.3858267716535433,
                    "duration": 0.15625
                },
                {
                    "name": "A5",
                    "midi": 81,
                    "time": 314.21875,
                    "velocity": 0.3858267716535433,
                    "duration": 0.15625
                },
                {
                    "name": "C#5",
                    "midi": 73,
                    "time": 314.375,
                    "velocity": 0.3858267716535433,
                    "duration": 0.625
                },
                {
                    "name": "A5",
                    "midi": 81,
                    "time": 315.15625,
                    "velocity": 0.3858267716535433,
                    "duration": 0.15625
                },
                {
                    "name": "F5",
                    "midi": 77,
                    "time": 315.3125,
                    "velocity": 0.3858267716535433,
                    "duration": 0.15625
                },
                {
                    "name": "A5",
                    "midi": 81,
                    "time": 315.46875,
                    "velocity": 0.3858267716535433,
                    "duration": 0.15625
                },
                {
                    "name": "D5",
                    "midi": 74,
                    "time": 315.625,
                    "velocity": 0.3858267716535433,
                    "duration": 0.625
                },
                {
                    "name": "A5",
                    "midi": 81,
                    "time": 316.40625,
                    "velocity": 0.3858267716535433,
                    "duration": 0.15625
                },
                {
                    "name": "F5",
                    "midi": 77,
                    "time": 316.5625,
                    "velocity": 0.3858267716535433,
                    "duration": 0.15625
                },
                {
                    "name": "A5",
                    "midi": 81,
                    "time": 316.71875,
                    "velocity": 0.3858267716535433,
                    "duration": 0.15625
                },
                {
                    "name": "C#5",
                    "midi": 73,
                    "time": 316.875,
                    "velocity": 0.3858267716535433,
                    "duration": 0.625
                },
                {
                    "name": "A5",
                    "midi": 81,
                    "time": 317.65625,
                    "velocity": 0.3858267716535433,
                    "duration": 0.15625
                },
                {
                    "name": "E5",
                    "midi": 76,
                    "time": 317.8125,
                    "velocity": 0.3858267716535433,
                    "duration": 0.15625
                },
                {
                    "name": "A5",
                    "midi": 81,
                    "time": 317.96875,
                    "velocity": 0.3858267716535433,
                    "duration": 0.15625
                },
                {
                    "name": "C#5",
                    "midi": 73,
                    "time": 318.125,
                    "velocity": 0.3858267716535433,
                    "duration": 0.625
                },
                {
                    "name": "A5",
                    "midi": 81,
                    "time": 318.90625,
                    "velocity": 0.3858267716535433,
                    "duration": 0.15625
                },
                {
                    "name": "F5",
                    "midi": 77,
                    "time": 319.0625,
                    "velocity": 0.3858267716535433,
                    "duration": 0.15625
                },
                {
                    "name": "A5",
                    "midi": 81,
                    "time": 319.21875,
                    "velocity": 0.3858267716535433,
                    "duration": 0.15625
                },
                {
                    "name": "D5",
                    "midi": 74,
                    "time": 319.375,
                    "velocity": 0.3858267716535433,
                    "duration": 0.625
                },
                {
                    "name": "A5",
                    "midi": 81,
                    "time": 320.15625,
                    "velocity": 0.3858267716535433,
                    "duration": 0.15625
                },
                {
                    "name": "F5",
                    "midi": 77,
                    "time": 320.3125,
                    "velocity": 0.3858267716535433,
                    "duration": 0.15625
                },
                {
                    "name": "A5",
                    "midi": 81,
                    "time": 320.46875,
                    "velocity": 0.3858267716535433,
                    "duration": 0.15625
                },
                {
                    "name": "E5",
                    "midi": 76,
                    "time": 320.625,
                    "velocity": 0.3858267716535433,
                    "duration": 0.625
                },
                {
                    "name": "C6",
                    "midi": 84,
                    "time": 321.40625,
                    "velocity": 0.3858267716535433,
                    "duration": 0.15625
                },
                {
                    "name": "G5",
                    "midi": 79,
                    "time": 321.5625,
                    "velocity": 0.3858267716535433,
                    "duration": 0.15625
                },
                {
                    "name": "C6",
                    "midi": 84,
                    "time": 321.71875,
                    "velocity": 0.3858267716535433,
                    "duration": 0.15625
                },
                {
                    "name": "E5",
                    "midi": 76,
                    "time": 321.875,
                    "velocity": 0.3858267716535433,
                    "duration": 0.625
                },
                {
                    "name": "C6",
                    "midi": 84,
                    "time": 322.65625,
                    "velocity": 0.3858267716535433,
                    "duration": 0.15625
                },
                {
                    "name": "A5",
                    "midi": 81,
                    "time": 322.8125,
                    "velocity": 0.3858267716535433,
                    "duration": 0.15625
                },
                {
                    "name": "C6",
                    "midi": 84,
                    "time": 322.96875,
                    "velocity": 0.3858267716535433,
                    "duration": 0.15625
                },
                {
                    "name": "F5",
                    "midi": 77,
                    "time": 323.125,
                    "velocity": 0.3858267716535433,
                    "duration": 0.625
                },
                {
                    "name": "C6",
                    "midi": 84,
                    "time": 323.90625,
                    "velocity": 0.3858267716535433,
                    "duration": 0.15625
                },
                {
                    "name": "A5",
                    "midi": 81,
                    "time": 324.0625,
                    "velocity": 0.3858267716535433,
                    "duration": 0.15625
                },
                {
                    "name": "C6",
                    "midi": 84,
                    "time": 324.21875,
                    "velocity": 0.3858267716535433,
                    "duration": 0.15625
                },
                {
                    "name": "E5",
                    "midi": 76,
                    "time": 324.375,
                    "velocity": 0.3858267716535433,
                    "duration": 0.625
                },
                {
                    "name": "G5",
                    "midi": 79,
                    "time": 325.15625,
                    "velocity": 0.3858267716535433,
                    "duration": 0.15625
                },
                {
                    "name": "E5",
                    "midi": 76,
                    "time": 325.3125,
                    "velocity": 0.3858267716535433,
                    "duration": 0.15625
                },
                {
                    "name": "G5",
                    "midi": 79,
                    "time": 325.46875,
                    "velocity": 0.3858267716535433,
                    "duration": 0.15625
                },
                {
                    "name": "C#5",
                    "midi": 73,
                    "time": 325.625,
                    "velocity": 0.3858267716535433,
                    "duration": 0.625
                },
                {
                    "name": "F5",
                    "midi": 77,
                    "time": 326.40625,
                    "velocity": 0.3858267716535433,
                    "duration": 0.15625
                },
                {
                    "name": "D5",
                    "midi": 74,
                    "time": 326.5625,
                    "velocity": 0.3858267716535433,
                    "duration": 0.15625
                },
                {
                    "name": "F5",
                    "midi": 77,
                    "time": 326.71875,
                    "velocity": 0.3858267716535433,
                    "duration": 0.15625
                },
                {
                    "name": "A4",
                    "midi": 69,
                    "time": 326.875,
                    "velocity": 0.3858267716535433,
                    "duration": 0.15625
                },
                {
                    "name": "F5",
                    "midi": 77,
                    "time": 327.03125,
                    "velocity": 0.3858267716535433,
                    "duration": 0.15625
                },
                {
                    "name": "D5",
                    "midi": 74,
                    "time": 327.1875,
                    "velocity": 0.3858267716535433,
                    "duration": 0.15625
                },
                {
                    "name": "F5",
                    "midi": 77,
                    "time": 327.34375,
                    "velocity": 0.3858267716535433,
                    "duration": 0.15625
                },
                {
                    "name": "A4",
                    "midi": 69,
                    "time": 327.5,
                    "velocity": 0.3858267716535433,
                    "duration": 0.15625
                },
                {
                    "name": "E5",
                    "midi": 76,
                    "time": 327.65625,
                    "velocity": 0.3858267716535433,
                    "duration": 0.15625
                },
                {
                    "name": "C#5",
                    "midi": 73,
                    "time": 327.8125,
                    "velocity": 0.3858267716535433,
                    "duration": 0.15625
                },
                {
                    "name": "E5",
                    "midi": 76,
                    "time": 327.96875,
                    "velocity": 0.3858267716535433,
                    "duration": 0.15625
                },
                {
                    "name": "D5",
                    "midi": 74,
                    "time": 328.125,
                    "velocity": 0.3858267716535433,
                    "duration": 1.875
                },
                {
                    "name": "A5",
                    "midi": 81,
                    "time": 330,
                    "velocity": 0.3858267716535433,
                    "duration": 0.625
                },
                {
                    "name": "G5",
                    "midi": 79,
                    "time": 330.625,
                    "velocity": 0.3858267716535433,
                    "duration": 0.3125
                },
                {
                    "name": "F5",
                    "midi": 77,
                    "time": 330.9375,
                    "velocity": 0.3858267716535433,
                    "duration": 0.3125
                },
                {
                    "name": "E5",
                    "midi": 76,
                    "time": 331.25,
                    "velocity": 0.3858267716535433,
                    "duration": 0.3125
                },
                {
                    "name": "F5",
                    "midi": 77,
                    "time": 331.5625,
                    "velocity": 0.3858267716535433,
                    "duration": 0.234375
                },
                {
                    "name": "G5",
                    "midi": 79,
                    "time": 331.796875,
                    "velocity": 0.3858267716535433,
                    "duration": 0.078125
                },
                {
                    "name": "C#5",
                    "midi": 73,
                    "time": 331.875,
                    "velocity": 0.3858267716535433,
                    "duration": 1.25
                },
                {
                    "name": "C#5",
                    "midi": 73,
                    "time": 333.125,
                    "velocity": 0.3858267716535433,
                    "duration": 0.625
                },
                {
                    "name": "D5",
                    "midi": 74,
                    "time": 333.75,
                    "velocity": 0.3858267716535433,
                    "duration": 0.625
                },
                {
                    "name": "D5",
                    "midi": 74,
                    "time": 334.375,
                    "velocity": 0.3858267716535433,
                    "duration": 0.46875
                },
                {
                    "name": "E5",
                    "midi": 76,
                    "time": 334.84375,
                    "velocity": 0.3858267716535433,
                    "duration": 0.15625
                },
                {
                    "name": "F5",
                    "midi": 77,
                    "time": 335,
                    "velocity": 0.3858267716535433,
                    "duration": 0.46875
                },
                {
                    "name": "G5",
                    "midi": 79,
                    "time": 335.46875,
                    "velocity": 0.3858267716535433,
                    "duration": 0.15625
                },
                {
                    "name": "E5",
                    "midi": 76,
                    "time": 335.625,
                    "velocity": 0.3858267716535433,
                    "duration": 1.25
                },
                {
                    "name": "E5",
                    "midi": 76,
                    "time": 336.875,
                    "velocity": 0.3858267716535433,
                    "duration": 0.625
                },
                {
                    "name": "F5",
                    "midi": 77,
                    "time": 337.5,
                    "velocity": 0.3858267716535433,
                    "duration": 0.625
                },
                {
                    "name": "G5",
                    "midi": 79,
                    "time": 338.125,
                    "velocity": 0.3858267716535433,
                    "duration": 0.46875
                },
                {
                    "name": "A5",
                    "midi": 81,
                    "time": 338.59375,
                    "velocity": 0.3858267716535433,
                    "duration": 0.15625
                },
                {
                    "name": "G5",
                    "midi": 79,
                    "time": 338.75,
                    "velocity": 0.3858267716535433,
                    "duration": 0.46875
                },
                {
                    "name": "F5",
                    "midi": 77,
                    "time": 339.21875,
                    "velocity": 0.3858267716535433,
                    "duration": 0.15625
                },
                {
                    "name": "E5",
                    "midi": 76,
                    "time": 339.375,
                    "velocity": 0.3858267716535433,
                    "duration": 0.625
                },
                {
                    "name": "F5",
                    "midi": 77,
                    "time": 340,
                    "velocity": 0.3858267716535433,
                    "duration": 0.46875
                },
                {
                    "name": "G5",
                    "midi": 79,
                    "time": 340.46875,
                    "velocity": 0.3858267716535433,
                    "duration": 0.15625
                },
                {
                    "name": "F5",
                    "midi": 77,
                    "time": 340.625,
                    "velocity": 0.3858267716535433,
                    "duration": 0.46875
                },
                {
                    "name": "E5",
                    "midi": 76,
                    "time": 341.09375,
                    "velocity": 0.3858267716535433,
                    "duration": 0.15625
                },
                {
                    "name": "D5",
                    "midi": 74,
                    "time": 341.25,
                    "velocity": 0.3858267716535433,
                    "duration": 0.625
                },
                {
                    "name": "E5",
                    "midi": 76,
                    "time": 341.875,
                    "velocity": 0.3858267716535433,
                    "duration": 0.46875
                },
                {
                    "name": "F5",
                    "midi": 77,
                    "time": 342.34375,
                    "velocity": 0.3858267716535433,
                    "duration": 0.15625
                },
                {
                    "name": "E5",
                    "midi": 76,
                    "time": 342.5,
                    "velocity": 0.3858267716535433,
                    "duration": 0.46875
                },
                {
                    "name": "D5",
                    "midi": 74,
                    "time": 342.96875,
                    "velocity": 0.3858267716535433,
                    "duration": 0.15625
                },
                {
                    "name": "C#5",
                    "midi": 73,
                    "time": 343.125,
                    "velocity": 0.3858267716535433,
                    "duration": 1.875
                },
                {
                    "name": "A5",
                    "midi": 81,
                    "time": 345,
                    "velocity": 0.3858267716535433,
                    "duration": 0.625
                },
                {
                    "name": "G5",
                    "midi": 79,
                    "time": 345.625,
                    "velocity": 0.3858267716535433,
                    "duration": 0.3125
                },
                {
                    "name": "F5",
                    "midi": 77,
                    "time": 345.9375,
                    "velocity": 0.3858267716535433,
                    "duration": 0.3125
                },
                {
                    "name": "E5",
                    "midi": 76,
                    "time": 346.25,
                    "velocity": 0.3858267716535433,
                    "duration": 0.3125
                },
                {
                    "name": "F5",
                    "midi": 77,
                    "time": 346.5625,
                    "velocity": 0.3858267716535433,
                    "duration": 0.234375
                },
                {
                    "name": "G5",
                    "midi": 79,
                    "time": 346.796875,
                    "velocity": 0.3858267716535433,
                    "duration": 0.078125
                },
                {
                    "name": "C#5",
                    "midi": 73,
                    "time": 346.875,
                    "velocity": 0.3858267716535433,
                    "duration": 1.25
                },
                {
                    "name": "C#5",
                    "midi": 73,
                    "time": 348.125,
                    "velocity": 0.3858267716535433,
                    "duration": 0.625
                },
                {
                    "name": "D5",
                    "midi": 74,
                    "time": 348.75,
                    "velocity": 0.3858267716535433,
                    "duration": 0.625
                },
                {
                    "name": "D5",
                    "midi": 74,
                    "time": 349.375,
                    "velocity": 0.3858267716535433,
                    "duration": 0.46875
                },
                {
                    "name": "E5",
                    "midi": 76,
                    "time": 349.84375,
                    "velocity": 0.3858267716535433,
                    "duration": 0.15625
                },
                {
                    "name": "F5",
                    "midi": 77,
                    "time": 350,
                    "velocity": 0.3858267716535433,
                    "duration": 0.46875
                },
                {
                    "name": "G5",
                    "midi": 79,
                    "time": 350.46875,
                    "velocity": 0.3858267716535433,
                    "duration": 0.15625
                },
                {
                    "name": "E5",
                    "midi": 76,
                    "time": 350.625,
                    "velocity": 0.3858267716535433,
                    "duration": 1.25
                },
                {
                    "name": "E5",
                    "midi": 76,
                    "time": 351.875,
                    "velocity": 0.3858267716535433,
                    "duration": 0.625
                },
                {
                    "name": "A5",
                    "midi": 81,
                    "time": 352.5,
                    "velocity": 0.3858267716535433,
                    "duration": 0.625
                },
                {
                    "name": "G5",
                    "midi": 79,
                    "time": 353.125,
                    "velocity": 0.3858267716535433,
                    "duration": 0.3125
                },
                {
                    "name": "F5",
                    "midi": 77,
                    "time": 353.4375,
                    "velocity": 0.3858267716535433,
                    "duration": 0.3125
                },
                {
                    "name": "E5",
                    "midi": 76,
                    "time": 353.75,
                    "velocity": 0.3858267716535433,
                    "duration": 0.3125
                },
                {
                    "name": "F5",
                    "midi": 77,
                    "time": 354.0625,
                    "velocity": 0.3858267716535433,
                    "duration": 0.234375
                },
                {
                    "name": "G5",
                    "midi": 79,
                    "time": 354.296875,
                    "velocity": 0.3858267716535433,
                    "duration": 0.078125
                },
                {
                    "name": "C#5",
                    "midi": 73,
                    "time": 354.375,
                    "velocity": 0.3858267716535433,
                    "duration": 0.9375
                },
                {
                    "name": "A4",
                    "midi": 69,
                    "time": 355.3125,
                    "velocity": 0.3858267716535433,
                    "duration": 0.3125
                },
                {
                    "name": "D5",
                    "midi": 74,
                    "time": 355.625,
                    "velocity": 0.3858267716535433,
                    "duration": 0.78125
                },
                {
                    "name": "C#5",
                    "midi": 73,
                    "time": 356.40625,
                    "velocity": 0.3858267716535433,
                    "duration": 0.15625
                },
                {
                    "name": "D5",
                    "midi": 74,
                    "time": 356.5625,
                    "velocity": 0.3858267716535433,
                    "duration": 0.15625
                },
                {
                    "name": "E5",
                    "midi": 76,
                    "time": 356.71875,
                    "velocity": 0.3858267716535433,
                    "duration": 0.15625
                },
                {
                    "name": "E5",
                    "midi": 76,
                    "time": 356.875,
                    "velocity": 0.3858267716535433,
                    "duration": 0.9375
                },
                {
                    "name": "D5",
                    "midi": 74,
                    "time": 357.8125,
                    "velocity": 0.3858267716535433,
                    "duration": 0.3125
                },
                {
                    "name": "D5",
                    "midi": 74,
                    "time": 358.125,
                    "velocity": 0.3858267716535433,
                    "duration": 1.875
                },
                {
                    "name": "F5",
                    "midi": 77,
                    "time": 360,
                    "velocity": 0.3858267716535433,
                    "duration": 0.3125
                },
                {
                    "name": "E5",
                    "midi": 76,
                    "time": 360.3125,
                    "velocity": 0.3858267716535433,
                    "duration": 0.3125
                },
                {
                    "name": "F5",
                    "midi": 77,
                    "time": 360.625,
                    "velocity": 0.3858267716535433,
                    "duration": 0.3125
                },
                {
                    "name": "F5",
                    "midi": 77,
                    "time": 360.9375,
                    "velocity": 0.3858267716535433,
                    "duration": 0.3125
                },
                {
                    "name": "E5",
                    "midi": 76,
                    "time": 361.25,
                    "velocity": 0.3858267716535433,
                    "duration": 0.3125
                },
                {
                    "name": "F5",
                    "midi": 77,
                    "time": 361.5625,
                    "velocity": 0.3858267716535433,
                    "duration": 0.3125
                },
                {
                    "name": "F5",
                    "midi": 77,
                    "time": 361.875,
                    "velocity": 0.3858267716535433,
                    "duration": 0.3125
                },
                {
                    "name": "G5",
                    "midi": 79,
                    "time": 362.1875,
                    "velocity": 0.3858267716535433,
                    "duration": 0.3125
                },
                {
                    "name": "F5",
                    "midi": 77,
                    "time": 362.5,
                    "velocity": 0.3858267716535433,
                    "duration": 0.3125
                },
                {
                    "name": "E5",
                    "midi": 76,
                    "time": 362.8125,
                    "velocity": 0.3858267716535433,
                    "duration": 0.3125
                },
                {
                    "name": "D5",
                    "midi": 74,
                    "time": 363.125,
                    "velocity": 0.3858267716535433,
                    "duration": 0.3125
                },
                {
                    "name": "E5",
                    "midi": 76,
                    "time": 363.4375,
                    "velocity": 0.3858267716535433,
                    "duration": 0.3125
                },
                {
                    "name": "E5",
                    "midi": 76,
                    "time": 363.75,
                    "velocity": 0.3858267716535433,
                    "duration": 0.3125
                },
                {
                    "name": "D5",
                    "midi": 74,
                    "time": 364.0625,
                    "velocity": 0.3858267716535433,
                    "duration": 0.3125
                },
                {
                    "name": "E5",
                    "midi": 76,
                    "time": 364.375,
                    "velocity": 0.3858267716535433,
                    "duration": 0.3125
                },
                {
                    "name": "E5",
                    "midi": 76,
                    "time": 364.6875,
                    "velocity": 0.3858267716535433,
                    "duration": 0.3125
                },
                {
                    "name": "D5",
                    "midi": 74,
                    "time": 365,
                    "velocity": 0.3858267716535433,
                    "duration": 0.3125
                },
                {
                    "name": "E5",
                    "midi": 76,
                    "time": 365.3125,
                    "velocity": 0.3858267716535433,
                    "duration": 0.3125
                },
                {
                    "name": "F5",
                    "midi": 77,
                    "time": 365.625,
                    "velocity": 0.3858267716535433,
                    "duration": 0.3125
                },
                {
                    "name": "E5",
                    "midi": 76,
                    "time": 365.9375,
                    "velocity": 0.3858267716535433,
                    "duration": 0.3125
                },
                {
                    "name": "F5",
                    "midi": 77,
                    "time": 366.25,
                    "velocity": 0.3858267716535433,
                    "duration": 0.3125
                },
                {
                    "name": "F5",
                    "midi": 77,
                    "time": 366.5625,
                    "velocity": 0.3858267716535433,
                    "duration": 0.3125
                },
                {
                    "name": "E5",
                    "midi": 76,
                    "time": 366.875,
                    "velocity": 0.3858267716535433,
                    "duration": 0.3125
                },
                {
                    "name": "F5",
                    "midi": 77,
                    "time": 367.1875,
                    "velocity": 0.3858267716535433,
                    "duration": 0.3125
                },
                {
                    "name": "F5",
                    "midi": 77,
                    "time": 367.5,
                    "velocity": 0.3858267716535433,
                    "duration": 0.3125
                },
                {
                    "name": "G5",
                    "midi": 79,
                    "time": 367.8125,
                    "velocity": 0.3858267716535433,
                    "duration": 0.3125
                },
                {
                    "name": "F5",
                    "midi": 77,
                    "time": 368.125,
                    "velocity": 0.3858267716535433,
                    "duration": 0.3125
                },
                {
                    "name": "F5",
                    "midi": 77,
                    "time": 368.4375,
                    "velocity": 0.3858267716535433,
                    "duration": 0.3125
                },
                {
                    "name": "E5",
                    "midi": 76,
                    "time": 368.75,
                    "velocity": 0.3858267716535433,
                    "duration": 0.3125
                },
                {
                    "name": "F5",
                    "midi": 77,
                    "time": 369.0625,
                    "velocity": 0.3858267716535433,
                    "duration": 0.3125
                },
                {
                    "name": "F5",
                    "midi": 77,
                    "time": 369.375,
                    "velocity": 0.3858267716535433,
                    "duration": 0.3125
                },
                {
                    "name": "E5",
                    "midi": 76,
                    "time": 369.6875,
                    "velocity": 0.3858267716535433,
                    "duration": 0.3125
                },
                {
                    "name": "F5",
                    "midi": 77,
                    "time": 370,
                    "velocity": 0.3858267716535433,
                    "duration": 0.3125
                },
                {
                    "name": "F5",
                    "midi": 77,
                    "time": 370.3125,
                    "velocity": 0.3858267716535433,
                    "duration": 0.3125
                },
                {
                    "name": "G5",
                    "midi": 79,
                    "time": 370.625,
                    "velocity": 0.3858267716535433,
                    "duration": 0.3125
                },
                {
                    "name": "F5",
                    "midi": 77,
                    "time": 370.9375,
                    "velocity": 0.3858267716535433,
                    "duration": 0.3125
                },
                {
                    "name": "A5",
                    "midi": 81,
                    "time": 371.25,
                    "velocity": 0.3858267716535433,
                    "duration": 0.3125
                },
                {
                    "name": "G5",
                    "midi": 79,
                    "time": 371.5625,
                    "velocity": 0.3858267716535433,
                    "duration": 0.3125
                },
                {
                    "name": "A5",
                    "midi": 81,
                    "time": 371.875,
                    "velocity": 0.3858267716535433,
                    "duration": 0.3125
                },
                {
                    "name": "A5",
                    "midi": 81,
                    "time": 372.1875,
                    "velocity": 0.3858267716535433,
                    "duration": 0.3125
                },
                {
                    "name": "G5",
                    "midi": 79,
                    "time": 372.5,
                    "velocity": 0.3858267716535433,
                    "duration": 0.3125
                },
                {
                    "name": "A5",
                    "midi": 81,
                    "time": 372.8125,
                    "velocity": 0.3858267716535433,
                    "duration": 0.3125
                },
                {
                    "name": "A5",
                    "midi": 81,
                    "time": 373.125,
                    "velocity": 0.3858267716535433,
                    "duration": 0.3125
                },
                {
                    "name": "A#5",
                    "midi": 82,
                    "time": 373.4375,
                    "velocity": 0.3858267716535433,
                    "duration": 0.3125
                },
                {
                    "name": "A5",
                    "midi": 81,
                    "time": 373.75,
                    "velocity": 0.3858267716535433,
                    "duration": 0.3125
                },
                {
                    "name": "G5",
                    "midi": 79,
                    "time": 374.0625,
                    "velocity": 0.3858267716535433,
                    "duration": 0.3125
                },
                {
                    "name": "F5",
                    "midi": 77,
                    "time": 374.375,
                    "velocity": 0.3858267716535433,
                    "duration": 0.3125
                },
                {
                    "name": "G5",
                    "midi": 79,
                    "time": 374.6875,
                    "velocity": 0.3858267716535433,
                    "duration": 0.3125
                },
                {
                    "name": "G5",
                    "midi": 79,
                    "time": 375,
                    "velocity": 0.3858267716535433,
                    "duration": 0.3125
                },
                {
                    "name": "F5",
                    "midi": 77,
                    "time": 375.3125,
                    "velocity": 0.3858267716535433,
                    "duration": 0.3125
                },
                {
                    "name": "G5",
                    "midi": 79,
                    "time": 375.625,
                    "velocity": 0.3858267716535433,
                    "duration": 0.3125
                },
                {
                    "name": "G5",
                    "midi": 79,
                    "time": 375.9375,
                    "velocity": 0.3858267716535433,
                    "duration": 0.3125
                },
                {
                    "name": "A5",
                    "midi": 81,
                    "time": 376.25,
                    "velocity": 0.3858267716535433,
                    "duration": 0.3125
                },
                {
                    "name": "G5",
                    "midi": 79,
                    "time": 376.5625,
                    "velocity": 0.3858267716535433,
                    "duration": 0.3125
                },
                {
                    "name": "F5",
                    "midi": 77,
                    "time": 376.875,
                    "velocity": 0.3858267716535433,
                    "duration": 0.3125
                },
                {
                    "name": "E5",
                    "midi": 76,
                    "time": 377.1875,
                    "velocity": 0.3858267716535433,
                    "duration": 0.3125
                },
                {
                    "name": "F5",
                    "midi": 77,
                    "time": 377.5,
                    "velocity": 0.3858267716535433,
                    "duration": 0.3125
                },
                {
                    "name": "F5",
                    "midi": 77,
                    "time": 377.8125,
                    "velocity": 0.3858267716535433,
                    "duration": 0.3125
                },
                {
                    "name": "E5",
                    "midi": 76,
                    "time": 378.125,
                    "velocity": 0.3858267716535433,
                    "duration": 0.3125
                },
                {
                    "name": "F5",
                    "midi": 77,
                    "time": 378.4375,
                    "velocity": 0.3858267716535433,
                    "duration": 0.3125
                },
                {
                    "name": "F5",
                    "midi": 77,
                    "time": 378.75,
                    "velocity": 0.3858267716535433,
                    "duration": 0.3125
                },
                {
                    "name": "G5",
                    "midi": 79,
                    "time": 379.0625,
                    "velocity": 0.3858267716535433,
                    "duration": 0.3125
                },
                {
                    "name": "F5",
                    "midi": 77,
                    "time": 379.375,
                    "velocity": 0.3858267716535433,
                    "duration": 0.3125
                },
                {
                    "name": "E5",
                    "midi": 76,
                    "time": 379.6875,
                    "velocity": 0.3858267716535433,
                    "duration": 0.3125
                },
                {
                    "name": "D5",
                    "midi": 74,
                    "time": 380,
                    "velocity": 0.3858267716535433,
                    "duration": 0.3125
                },
                {
                    "name": "E5",
                    "midi": 76,
                    "time": 380.3125,
                    "velocity": 0.3858267716535433,
                    "duration": 0.3125
                },
                {
                    "name": "E5",
                    "midi": 76,
                    "time": 380.625,
                    "velocity": 0.3858267716535433,
                    "duration": 0.3125
                },
                {
                    "name": "D5",
                    "midi": 74,
                    "time": 380.9375,
                    "velocity": 0.3858267716535433,
                    "duration": 0.3125
                },
                {
                    "name": "E5",
                    "midi": 76,
                    "time": 381.25,
                    "velocity": 0.3858267716535433,
                    "duration": 0.3125
                },
                {
                    "name": "E5",
                    "midi": 76,
                    "time": 381.5625,
                    "velocity": 0.3858267716535433,
                    "duration": 0.3125
                },
                {
                    "name": "D5",
                    "midi": 74,
                    "time": 381.875,
                    "velocity": 0.3858267716535433,
                    "duration": 0.3125
                },
                {
                    "name": "E5",
                    "midi": 76,
                    "time": 382.1875,
                    "velocity": 0.3858267716535433,
                    "duration": 0.3125
                },
                {
                    "name": "F5",
                    "midi": 77,
                    "time": 382.5,
                    "velocity": 0.3858267716535433,
                    "duration": 0.3125
                },
                {
                    "name": "E5",
                    "midi": 76,
                    "time": 382.8125,
                    "velocity": 0.3858267716535433,
                    "duration": 0.3125
                },
                {
                    "name": "F5",
                    "midi": 77,
                    "time": 383.125,
                    "velocity": 0.3858267716535433,
                    "duration": 0.3125
                },
                {
                    "name": "F5",
                    "midi": 77,
                    "time": 383.4375,
                    "velocity": 0.3858267716535433,
                    "duration": 0.3125
                },
                {
                    "name": "E5",
                    "midi": 76,
                    "time": 383.75,
                    "velocity": 0.3858267716535433,
                    "duration": 0.3125
                },
                {
                    "name": "F5",
                    "midi": 77,
                    "time": 384.0625,
                    "velocity": 0.3858267716535433,
                    "duration": 0.3125
                },
                {
                    "name": "F5",
                    "midi": 77,
                    "time": 384.375,
                    "velocity": 0.3858267716535433,
                    "duration": 0.3125
                },
                {
                    "name": "G5",
                    "midi": 79,
                    "time": 384.6875,
                    "velocity": 0.3858267716535433,
                    "duration": 0.3125
                },
                {
                    "name": "F5",
                    "midi": 77,
                    "time": 385,
                    "velocity": 0.3858267716535433,
                    "duration": 0.3125
                },
                {
                    "name": "E5",
                    "midi": 76,
                    "time": 385.3125,
                    "velocity": 0.3858267716535433,
                    "duration": 0.3125
                },
                {
                    "name": "D5",
                    "midi": 74,
                    "time": 385.625,
                    "velocity": 0.3858267716535433,
                    "duration": 0.3125
                },
                {
                    "name": "E5",
                    "midi": 76,
                    "time": 385.9375,
                    "velocity": 0.3858267716535433,
                    "duration": 0.3125
                },
                {
                    "name": "E5",
                    "midi": 76,
                    "time": 386.25,
                    "velocity": 0.3858267716535433,
                    "duration": 0.3125
                },
                {
                    "name": "D5",
                    "midi": 74,
                    "time": 386.5625,
                    "velocity": 0.3858267716535433,
                    "duration": 0.3125
                },
                {
                    "name": "E5",
                    "midi": 76,
                    "time": 386.875,
                    "velocity": 0.3858267716535433,
                    "duration": 0.3125
                },
                {
                    "name": "E5",
                    "midi": 76,
                    "time": 387.1875,
                    "velocity": 0.3858267716535433,
                    "duration": 0.3125
                },
                {
                    "name": "D5",
                    "midi": 74,
                    "time": 387.5,
                    "velocity": 0.3858267716535433,
                    "duration": 0.3125
                },
                {
                    "name": "E5",
                    "midi": 76,
                    "time": 387.8125,
                    "velocity": 0.3858267716535433,
                    "duration": 0.3125
                },
                {
                    "name": "F5",
                    "midi": 77,
                    "time": 388.125,
                    "velocity": 0.3858267716535433,
                    "duration": 0.3125
                },
                {
                    "name": "E5",
                    "midi": 76,
                    "time": 388.4375,
                    "velocity": 0.3858267716535433,
                    "duration": 0.3125
                },
                {
                    "name": "F5",
                    "midi": 77,
                    "time": 388.75,
                    "velocity": 0.3858267716535433,
                    "duration": 0.3125
                },
                {
                    "name": "F5",
                    "midi": 77,
                    "time": 389.0625,
                    "velocity": 0.3858267716535433,
                    "duration": 0.3125
                },
                {
                    "name": "E5",
                    "midi": 76,
                    "time": 389.375,
                    "velocity": 0.3858267716535433,
                    "duration": 0.3125
                },
                {
                    "name": "F5",
                    "midi": 77,
                    "time": 389.6875,
                    "velocity": 0.3858267716535433,
                    "duration": 0.3125
                },
                {
                    "name": "F5",
                    "midi": 77,
                    "time": 390,
                    "velocity": 0.3858267716535433,
                    "duration": 0.3125
                },
                {
                    "name": "E5",
                    "midi": 76,
                    "time": 390.3125,
                    "velocity": 0.3858267716535433,
                    "duration": 0.3125
                },
                {
                    "name": "F5",
                    "midi": 77,
                    "time": 390.625,
                    "velocity": 0.3858267716535433,
                    "duration": 0.3125
                },
                {
                    "name": "G5",
                    "midi": 79,
                    "time": 390.9375,
                    "velocity": 0.3858267716535433,
                    "duration": 0.3125
                },
                {
                    "name": "F5",
                    "midi": 77,
                    "time": 391.25,
                    "velocity": 0.3858267716535433,
                    "duration": 0.3125
                },
                {
                    "name": "G5",
                    "midi": 79,
                    "time": 391.5625,
                    "velocity": 0.3858267716535433,
                    "duration": 0.3125
                },
                {
                    "name": "G5",
                    "midi": 79,
                    "time": 391.875,
                    "velocity": 0.3858267716535433,
                    "duration": 0.3125
                },
                {
                    "name": "F5",
                    "midi": 77,
                    "time": 392.1875,
                    "velocity": 0.3858267716535433,
                    "duration": 0.3125
                },
                {
                    "name": "G5",
                    "midi": 79,
                    "time": 392.5,
                    "velocity": 0.3858267716535433,
                    "duration": 0.3125
                },
                {
                    "name": "G5",
                    "midi": 79,
                    "time": 392.8125,
                    "velocity": 0.3858267716535433,
                    "duration": 0.3125
                },
                {
                    "name": "F5",
                    "midi": 77,
                    "time": 393.125,
                    "velocity": 0.3858267716535433,
                    "duration": 0.3125
                },
                {
                    "name": "G5",
                    "midi": 79,
                    "time": 393.4375,
                    "velocity": 0.3858267716535433,
                    "duration": 0.3125
                },
                {
                    "name": "A5",
                    "midi": 81,
                    "time": 393.75,
                    "velocity": 0.3858267716535433,
                    "duration": 0.3125
                },
                {
                    "name": "G5",
                    "midi": 79,
                    "time": 394.0625,
                    "velocity": 0.3858267716535433,
                    "duration": 0.3125
                },
                {
                    "name": "A5",
                    "midi": 81,
                    "time": 394.375,
                    "velocity": 0.3858267716535433,
                    "duration": 0.3125
                },
                {
                    "name": "A5",
                    "midi": 81,
                    "time": 394.6875,
                    "velocity": 0.3858267716535433,
                    "duration": 0.3125
                },
                {
                    "name": "G5",
                    "midi": 79,
                    "time": 395,
                    "velocity": 0.3858267716535433,
                    "duration": 0.3125
                },
                {
                    "name": "A5",
                    "midi": 81,
                    "time": 395.3125,
                    "velocity": 0.3858267716535433,
                    "duration": 0.3125
                },
                {
                    "name": "A5",
                    "midi": 81,
                    "time": 395.625,
                    "velocity": 0.3858267716535433,
                    "duration": 0.3125
                },
                {
                    "name": "A#5",
                    "midi": 82,
                    "time": 395.9375,
                    "velocity": 0.3858267716535433,
                    "duration": 0.3125
                },
                {
                    "name": "A5",
                    "midi": 81,
                    "time": 396.25,
                    "velocity": 0.3858267716535433,
                    "duration": 0.3125
                },
                {
                    "name": "G5",
                    "midi": 79,
                    "time": 396.5625,
                    "velocity": 0.3858267716535433,
                    "duration": 0.3125
                },
                {
                    "name": "F5",
                    "midi": 77,
                    "time": 396.875,
                    "velocity": 0.3858267716535433,
                    "duration": 0.3125
                },
                {
                    "name": "G5",
                    "midi": 79,
                    "time": 397.1875,
                    "velocity": 0.3858267716535433,
                    "duration": 0.3125
                },
                {
                    "name": "G5",
                    "midi": 79,
                    "time": 397.5,
                    "velocity": 0.3858267716535433,
                    "duration": 0.3125
                },
                {
                    "name": "F5",
                    "midi": 77,
                    "time": 397.8125,
                    "velocity": 0.3858267716535433,
                    "duration": 0.3125
                },
                {
                    "name": "G5",
                    "midi": 79,
                    "time": 398.125,
                    "velocity": 0.3858267716535433,
                    "duration": 0.3125
                },
                {
                    "name": "G5",
                    "midi": 79,
                    "time": 398.4375,
                    "velocity": 0.3858267716535433,
                    "duration": 0.3125
                },
                {
                    "name": "A5",
                    "midi": 81,
                    "time": 398.75,
                    "velocity": 0.3858267716535433,
                    "duration": 0.3125
                },
                {
                    "name": "G5",
                    "midi": 79,
                    "time": 399.0625,
                    "velocity": 0.3858267716535433,
                    "duration": 0.3125
                },
                {
                    "name": "A5",
                    "midi": 81,
                    "time": 399.375,
                    "velocity": 0.3858267716535433,
                    "duration": 0.3125
                },
                {
                    "name": "G5",
                    "midi": 79,
                    "time": 399.6875,
                    "velocity": 0.3858267716535433,
                    "duration": 0.3125
                },
                {
                    "name": "F5",
                    "midi": 77,
                    "time": 400,
                    "velocity": 0.3858267716535433,
                    "duration": 0.3125
                },
                {
                    "name": "E5",
                    "midi": 76,
                    "time": 400.3125,
                    "velocity": 0.3858267716535433,
                    "duration": 1.5625
                },
                {
                    "name": "D5",
                    "midi": 74,
                    "time": 401.875,
                    "velocity": 0.3858267716535433,
                    "duration": 0.3125
                },
                {
                    "name": "D5",
                    "midi": 74,
                    "time": 402.1875,
                    "velocity": 0.3858267716535433,
                    "duration": 2.8125
                },
                {
                    "name": "F5",
                    "midi": 77,
                    "time": 405,
                    "velocity": 0.3858267716535433,
                    "duration": 0.9375
                },
                {
                    "name": "E5",
                    "midi": 76,
                    "time": 407.8125,
                    "velocity": 0.3858267716535433,
                    "duration": 0.9375
                },
                {
                    "name": "F5",
                    "midi": 77,
                    "time": 410.625,
                    "velocity": 0.3858267716535433,
                    "duration": 0.9375
                },
                {
                    "name": "G5",
                    "midi": 79,
                    "time": 413.4375,
                    "velocity": 0.3858267716535433,
                    "duration": 0.9375
                },
                {
                    "name": "A5",
                    "midi": 81,
                    "time": 416.25,
                    "velocity": 0.3858267716535433,
                    "duration": 0.9375
                },
                {
                    "name": "G5",
                    "midi": 79,
                    "time": 419.0625,
                    "velocity": 0.3858267716535433,
                    "duration": 0.9375
                },
                {
                    "name": "F5",
                    "midi": 77,
                    "time": 421.875,
                    "velocity": 0.3858267716535433,
                    "duration": 0.9375
                },
                {
                    "name": "E5",
                    "midi": 76,
                    "time": 424.6875,
                    "velocity": 0.3858267716535433,
                    "duration": 0.9375
                },
                {
                    "name": "F5",
                    "midi": 77,
                    "time": 427.5,
                    "velocity": 0.3858267716535433,
                    "duration": 0.9375
                },
                {
                    "name": "E5",
                    "midi": 76,
                    "time": 430.3125,
                    "velocity": 0.3858267716535433,
                    "duration": 0.9375
                },
                {
                    "name": "F5",
                    "midi": 77,
                    "time": 433.125,
                    "velocity": 0.3858267716535433,
                    "duration": 0.9375
                },
                {
                    "name": "G5",
                    "midi": 79,
                    "time": 435.9375,
                    "velocity": 0.3858267716535433,
                    "duration": 0.9375
                },
                {
                    "name": "A5",
                    "midi": 81,
                    "time": 438.75,
                    "velocity": 0.3858267716535433,
                    "duration": 0.9375
                },
                {
                    "name": "G5",
                    "midi": 79,
                    "time": 441.5625,
                    "velocity": 0.3858267716535433,
                    "duration": 0.9375
                },
                {
                    "name": "F5",
                    "midi": 77,
                    "time": 444.375,
                    "velocity": 0.3858267716535433,
                    "duration": 0.9375
                },
                {
                    "name": "E5",
                    "midi": 76,
                    "time": 445.3125,
                    "velocity": 0.3858267716535433,
                    "duration": 1.5625
                },
                {
                    "name": "D5",
                    "midi": 74,
                    "time": 446.875,
                    "velocity": 0.3858267716535433,
                    "duration": 0.3125
                },
                {
                    "name": "D5",
                    "midi": 74,
                    "time": 447.1875,
                    "velocity": 0.3858267716535433,
                    "duration": 2.8125
                },
                {
                    "name": "D5",
                    "midi": 74,
                    "time": 450,
                    "velocity": 0.3858267716535433,
                    "duration": 0.46875
                },
                {
                    "name": "E5",
                    "midi": 76,
                    "time": 450.46875,
                    "velocity": 0.3858267716535433,
                    "duration": 0.15625
                },
                {
                    "name": "D5",
                    "midi": 74,
                    "time": 450.625,
                    "velocity": 0.3858267716535433,
                    "duration": 0.3125
                },
                {
                    "name": "A5",
                    "midi": 81,
                    "time": 450.9375,
                    "velocity": 0.3858267716535433,
                    "duration": 0.625
                },
                {
                    "name": "D5",
                    "midi": 74,
                    "time": 451.5625,
                    "velocity": 0.3858267716535433,
                    "duration": 0.3125
                },
                {
                    "name": "D5",
                    "midi": 74,
                    "time": 451.875,
                    "velocity": 0.3858267716535433,
                    "duration": 0.625
                },
                {
                    "name": "C#5",
                    "midi": 73,
                    "time": 452.5,
                    "velocity": 0.3858267716535433,
                    "duration": 0.3125
                },
                {
                    "name": "A3",
                    "midi": 57,
                    "time": 452.8125,
                    "velocity": 0.3858267716535433,
                    "duration": 0.625
                },
                {
                    "name": "C#5",
                    "midi": 73,
                    "time": 453.4375,
                    "velocity": 0.3858267716535433,
                    "duration": 0.3125
                },
                {
                    "name": "D5",
                    "midi": 74,
                    "time": 453.75,
                    "velocity": 0.3858267716535433,
                    "duration": 0.46875
                },
                {
                    "name": "E5",
                    "midi": 76,
                    "time": 454.21875,
                    "velocity": 0.3858267716535433,
                    "duration": 0.15625
                },
                {
                    "name": "D5",
                    "midi": 74,
                    "time": 454.375,
                    "velocity": 0.3858267716535433,
                    "duration": 0.3125
                },
                {
                    "name": "A5",
                    "midi": 81,
                    "time": 454.6875,
                    "velocity": 0.3858267716535433,
                    "duration": 0.625
                },
                {
                    "name": "D5",
                    "midi": 74,
                    "time": 455.3125,
                    "velocity": 0.3858267716535433,
                    "duration": 0.3125
                },
                {
                    "name": "E5",
                    "midi": 76,
                    "time": 455.625,
                    "velocity": 0.3858267716535433,
                    "duration": 0.46875
                },
                {
                    "name": "D5",
                    "midi": 74,
                    "time": 456.09375,
                    "velocity": 0.3858267716535433,
                    "duration": 0.15625
                },
                {
                    "name": "C5",
                    "midi": 72,
                    "time": 456.25,
                    "velocity": 0.3858267716535433,
                    "duration": 0.3125
                },
                {
                    "name": "C4",
                    "midi": 60,
                    "time": 456.5625,
                    "velocity": 0.3858267716535433,
                    "duration": 0.625
                },
                {
                    "name": "E5",
                    "midi": 76,
                    "time": 457.1875,
                    "velocity": 0.3858267716535433,
                    "duration": 0.3125
                },
                {
                    "name": "F5",
                    "midi": 77,
                    "time": 457.5,
                    "velocity": 0.3858267716535433,
                    "duration": 0.46875
                },
                {
                    "name": "G5",
                    "midi": 79,
                    "time": 457.96875,
                    "velocity": 0.3858267716535433,
                    "duration": 0.15625
                },
                {
                    "name": "F5",
                    "midi": 77,
                    "time": 458.125,
                    "velocity": 0.3858267716535433,
                    "duration": 0.3125
                },
                {
                    "name": "C6",
                    "midi": 84,
                    "time": 458.4375,
                    "velocity": 0.3858267716535433,
                    "duration": 0.625
                },
                {
                    "name": "F5",
                    "midi": 77,
                    "time": 459.0625,
                    "velocity": 0.3858267716535433,
                    "duration": 0.3125
                },
                {
                    "name": "E5",
                    "midi": 76,
                    "time": 459.375,
                    "velocity": 0.3858267716535433,
                    "duration": 0.46875
                },
                {
                    "name": "F5",
                    "midi": 77,
                    "time": 459.84375,
                    "velocity": 0.3858267716535433,
                    "duration": 0.15625
                },
                {
                    "name": "E5",
                    "midi": 76,
                    "time": 460,
                    "velocity": 0.3858267716535433,
                    "duration": 0.3125
                },
                {
                    "name": "A5",
                    "midi": 81,
                    "time": 460.3125,
                    "velocity": 0.3858267716535433,
                    "duration": 0.625
                },
                {
                    "name": "C#5",
                    "midi": 73,
                    "time": 460.9375,
                    "velocity": 0.3858267716535433,
                    "duration": 0.3125
                },
                {
                    "name": "D5",
                    "midi": 74,
                    "time": 461.25,
                    "velocity": 0.3858267716535433,
                    "duration": 0.46875
                },
                {
                    "name": "E5",
                    "midi": 76,
                    "time": 461.71875,
                    "velocity": 0.3858267716535433,
                    "duration": 0.15625
                },
                {
                    "name": "D5",
                    "midi": 74,
                    "time": 461.875,
                    "velocity": 0.3858267716535433,
                    "duration": 0.3125
                },
                {
                    "name": "A#5",
                    "midi": 82,
                    "time": 462.1875,
                    "velocity": 0.3858267716535433,
                    "duration": 0.625
                },
                {
                    "name": "D5",
                    "midi": 74,
                    "time": 462.8125,
                    "velocity": 0.3858267716535433,
                    "duration": 0.3125
                },
                {
                    "name": "D5",
                    "midi": 74,
                    "time": 463.125,
                    "velocity": 0.3858267716535433,
                    "duration": 0.9375
                },
                {
                    "name": "C#5",
                    "midi": 73,
                    "time": 464.0625,
                    "velocity": 0.3858267716535433,
                    "duration": 0.9375
                },
                {
                    "name": "D5",
                    "midi": 74,
                    "time": 465,
                    "velocity": 0.3858267716535433,
                    "duration": 0.46875
                },
                {
                    "name": "E5",
                    "midi": 76,
                    "time": 465.46875,
                    "velocity": 0.3858267716535433,
                    "duration": 0.15625
                },
                {
                    "name": "D5",
                    "midi": 74,
                    "time": 465.625,
                    "velocity": 0.3858267716535433,
                    "duration": 0.3125
                },
                {
                    "name": "A5",
                    "midi": 81,
                    "time": 465.9375,
                    "velocity": 0.3858267716535433,
                    "duration": 0.625
                },
                {
                    "name": "D5",
                    "midi": 74,
                    "time": 466.5625,
                    "velocity": 0.3858267716535433,
                    "duration": 0.3125
                },
                {
                    "name": "D5",
                    "midi": 74,
                    "time": 466.875,
                    "velocity": 0.3858267716535433,
                    "duration": 0.625
                },
                {
                    "name": "C#5",
                    "midi": 73,
                    "time": 467.5,
                    "velocity": 0.3858267716535433,
                    "duration": 0.3125
                },
                {
                    "name": "A3",
                    "midi": 57,
                    "time": 467.8125,
                    "velocity": 0.3858267716535433,
                    "duration": 0.625
                },
                {
                    "name": "C#5",
                    "midi": 73,
                    "time": 468.4375,
                    "velocity": 0.3858267716535433,
                    "duration": 0.3125
                },
                {
                    "name": "D5",
                    "midi": 74,
                    "time": 468.75,
                    "velocity": 0.3858267716535433,
                    "duration": 0.46875
                },
                {
                    "name": "E5",
                    "midi": 76,
                    "time": 469.21875,
                    "velocity": 0.3858267716535433,
                    "duration": 0.15625
                },
                {
                    "name": "D5",
                    "midi": 74,
                    "time": 469.375,
                    "velocity": 0.3858267716535433,
                    "duration": 0.3125
                },
                {
                    "name": "A5",
                    "midi": 81,
                    "time": 469.6875,
                    "velocity": 0.3858267716535433,
                    "duration": 0.625
                },
                {
                    "name": "D5",
                    "midi": 74,
                    "time": 470.3125,
                    "velocity": 0.3858267716535433,
                    "duration": 0.3125
                },
                {
                    "name": "E5",
                    "midi": 76,
                    "time": 470.625,
                    "velocity": 0.3858267716535433,
                    "duration": 0.46875
                },
                {
                    "name": "D5",
                    "midi": 74,
                    "time": 471.09375,
                    "velocity": 0.3858267716535433,
                    "duration": 0.15625
                },
                {
                    "name": "C5",
                    "midi": 72,
                    "time": 471.25,
                    "velocity": 0.3858267716535433,
                    "duration": 0.3125
                },
                {
                    "name": "C4",
                    "midi": 60,
                    "time": 471.5625,
                    "velocity": 0.3858267716535433,
                    "duration": 0.625
                },
                {
                    "name": "E5",
                    "midi": 76,
                    "time": 472.1875,
                    "velocity": 0.3858267716535433,
                    "duration": 0.3125
                },
                {
                    "name": "F5",
                    "midi": 77,
                    "time": 472.5,
                    "velocity": 0.3858267716535433,
                    "duration": 0.46875
                },
                {
                    "name": "G5",
                    "midi": 79,
                    "time": 472.96875,
                    "velocity": 0.3858267716535433,
                    "duration": 0.15625
                },
                {
                    "name": "F5",
                    "midi": 77,
                    "time": 473.125,
                    "velocity": 0.3858267716535433,
                    "duration": 0.3125
                },
                {
                    "name": "C6",
                    "midi": 84,
                    "time": 473.4375,
                    "velocity": 0.3858267716535433,
                    "duration": 0.625
                },
                {
                    "name": "F5",
                    "midi": 77,
                    "time": 474.0625,
                    "velocity": 0.3858267716535433,
                    "duration": 0.3125
                },
                {
                    "name": "F5",
                    "midi": 77,
                    "time": 474.375,
                    "velocity": 0.3858267716535433,
                    "duration": 0.625
                },
                {
                    "name": "E5",
                    "midi": 76,
                    "time": 475,
                    "velocity": 0.3858267716535433,
                    "duration": 0.3125
                },
                {
                    "name": "A#5",
                    "midi": 82,
                    "time": 475.3125,
                    "velocity": 0.3858267716535433,
                    "duration": 0.46875
                },
                {
                    "name": "A5",
                    "midi": 81,
                    "time": 475.78125,
                    "velocity": 0.3858267716535433,
                    "duration": 0.15625
                },
                {
                    "name": "G5",
                    "midi": 79,
                    "time": 475.9375,
                    "velocity": 0.3858267716535433,
                    "duration": 0.3125
                },
                {
                    "name": "A5",
                    "midi": 81,
                    "time": 476.25,
                    "velocity": 0.3858267716535433,
                    "duration": 0.46875
                },
                {
                    "name": "G5",
                    "midi": 79,
                    "time": 476.71875,
                    "velocity": 0.3858267716535433,
                    "duration": 0.15625
                },
                {
                    "name": "F5",
                    "midi": 77,
                    "time": 476.875,
                    "velocity": 0.3858267716535433,
                    "duration": 0.3125
                },
                {
                    "name": "F5",
                    "midi": 77,
                    "time": 477.1875,
                    "velocity": 0.3858267716535433,
                    "duration": 0.625
                },
                {
                    "name": "E5",
                    "midi": 76,
                    "time": 477.8125,
                    "velocity": 0.3858267716535433,
                    "duration": 0.3125
                },
                {
                    "name": "D5",
                    "midi": 74,
                    "time": 478.125,
                    "velocity": 0.3858267716535433,
                    "duration": 1.875
                },
                {
                    "name": "D5",
                    "midi": 74,
                    "time": 480,
                    "velocity": 0.3858267716535433,
                    "duration": 0.3125
                },
                {
                    "name": "F4",
                    "midi": 65,
                    "time": 480.3125,
                    "velocity": 0.3858267716535433,
                    "duration": 0.3125
                },
                {
                    "name": "D4",
                    "midi": 62,
                    "time": 480.625,
                    "velocity": 0.3858267716535433,
                    "duration": 0.3125
                },
                {
                    "name": "D5",
                    "midi": 74,
                    "time": 480.9375,
                    "velocity": 0.3858267716535433,
                    "duration": 0.3125
                },
                {
                    "name": "D4",
                    "midi": 62,
                    "time": 481.25,
                    "velocity": 0.3858267716535433,
                    "duration": 0.3125
                },
                {
                    "name": "D5",
                    "midi": 74,
                    "time": 481.5625,
                    "velocity": 0.3858267716535433,
                    "duration": 0.3125
                },
                {
                    "name": "C#5",
                    "midi": 73,
                    "time": 481.875,
                    "velocity": 0.3858267716535433,
                    "duration": 0.3125
                },
                {
                    "name": "E4",
                    "midi": 64,
                    "time": 482.1875,
                    "velocity": 0.3858267716535433,
                    "duration": 0.3125
                },
                {
                    "name": "A3",
                    "midi": 57,
                    "time": 482.5,
                    "velocity": 0.3858267716535433,
                    "duration": 0.3125
                },
                {
                    "name": "C#5",
                    "midi": 73,
                    "time": 482.8125,
                    "velocity": 0.3858267716535433,
                    "duration": 0.3125
                },
                {
                    "name": "A3",
                    "midi": 57,
                    "time": 483.125,
                    "velocity": 0.3858267716535433,
                    "duration": 0.3125
                },
                {
                    "name": "C#5",
                    "midi": 73,
                    "time": 483.4375,
                    "velocity": 0.3858267716535433,
                    "duration": 0.3125
                },
                {
                    "name": "D5",
                    "midi": 74,
                    "time": 483.75,
                    "velocity": 0.3858267716535433,
                    "duration": 0.3125
                },
                {
                    "name": "F4",
                    "midi": 65,
                    "time": 484.0625,
                    "velocity": 0.3858267716535433,
                    "duration": 0.3125
                },
                {
                    "name": "D4",
                    "midi": 62,
                    "time": 484.375,
                    "velocity": 0.3858267716535433,
                    "duration": 0.3125
                },
                {
                    "name": "D5",
                    "midi": 74,
                    "time": 484.6875,
                    "velocity": 0.3858267716535433,
                    "duration": 0.3125
                },
                {
                    "name": "D4",
                    "midi": 62,
                    "time": 485,
                    "velocity": 0.3858267716535433,
                    "duration": 0.3125
                },
                {
                    "name": "D5",
                    "midi": 74,
                    "time": 485.3125,
                    "velocity": 0.3858267716535433,
                    "duration": 0.3125
                },
                {
                    "name": "E5",
                    "midi": 76,
                    "time": 485.625,
                    "velocity": 0.3858267716535433,
                    "duration": 0.3125
                },
                {
                    "name": "G4",
                    "midi": 67,
                    "time": 485.9375,
                    "velocity": 0.3858267716535433,
                    "duration": 0.3125
                },
                {
                    "name": "C4",
                    "midi": 60,
                    "time": 486.25,
                    "velocity": 0.3858267716535433,
                    "duration": 0.3125
                },
                {
                    "name": "E5",
                    "midi": 76,
                    "time": 486.5625,
                    "velocity": 0.3858267716535433,
                    "duration": 0.3125
                },
                {
                    "name": "C4",
                    "midi": 60,
                    "time": 486.875,
                    "velocity": 0.3858267716535433,
                    "duration": 0.3125
                },
                {
                    "name": "E5",
                    "midi": 76,
                    "time": 487.1875,
                    "velocity": 0.3858267716535433,
                    "duration": 0.3125
                },
                {
                    "name": "F5",
                    "midi": 77,
                    "time": 487.5,
                    "velocity": 0.3858267716535433,
                    "duration": 0.3125
                },
                {
                    "name": "C5",
                    "midi": 72,
                    "time": 487.8125,
                    "velocity": 0.3858267716535433,
                    "duration": 0.3125
                },
                {
                    "name": "F4",
                    "midi": 65,
                    "time": 488.125,
                    "velocity": 0.3858267716535433,
                    "duration": 0.3125
                },
                {
                    "name": "F5",
                    "midi": 77,
                    "time": 488.4375,
                    "velocity": 0.3858267716535433,
                    "duration": 0.3125
                },
                {
                    "name": "F4",
                    "midi": 65,
                    "time": 488.75,
                    "velocity": 0.3858267716535433,
                    "duration": 0.3125
                },
                {
                    "name": "F5",
                    "midi": 77,
                    "time": 489.0625,
                    "velocity": 0.3858267716535433,
                    "duration": 0.3125
                },
                {
                    "name": "E5",
                    "midi": 76,
                    "time": 489.375,
                    "velocity": 0.3858267716535433,
                    "duration": 0.3125
                },
                {
                    "name": "G4",
                    "midi": 67,
                    "time": 489.6875,
                    "velocity": 0.3858267716535433,
                    "duration": 0.3125
                },
                {
                    "name": "C4",
                    "midi": 60,
                    "time": 490,
                    "velocity": 0.3858267716535433,
                    "duration": 0.3125
                },
                {
                    "name": "E5",
                    "midi": 76,
                    "time": 490.3125,
                    "velocity": 0.3858267716535433,
                    "duration": 0.3125
                },
                {
                    "name": "C#4",
                    "midi": 61,
                    "time": 490.625,
                    "velocity": 0.3858267716535433,
                    "duration": 0.3125
                },
                {
                    "name": "E5",
                    "midi": 76,
                    "time": 490.9375,
                    "velocity": 0.3858267716535433,
                    "duration": 0.3125
                },
                {
                    "name": "D5",
                    "midi": 74,
                    "time": 491.25,
                    "velocity": 0.3858267716535433,
                    "duration": 0.3125
                },
                {
                    "name": "F4",
                    "midi": 65,
                    "time": 491.5625,
                    "velocity": 0.3858267716535433,
                    "duration": 0.3125
                },
                {
                    "name": "A#3",
                    "midi": 58,
                    "time": 491.875,
                    "velocity": 0.3858267716535433,
                    "duration": 0.3125
                },
                {
                    "name": "D5",
                    "midi": 74,
                    "time": 492.1875,
                    "velocity": 0.3858267716535433,
                    "duration": 0.3125
                },
                {
                    "name": "G3",
                    "midi": 55,
                    "time": 492.5,
                    "velocity": 0.3858267716535433,
                    "duration": 0.3125
                },
                {
                    "name": "D5",
                    "midi": 74,
                    "time": 492.8125,
                    "velocity": 0.3858267716535433,
                    "duration": 0.3125
                },
                {
                    "name": "C#5",
                    "midi": 73,
                    "time": 493.125,
                    "velocity": 0.3858267716535433,
                    "duration": 0.3125
                },
                {
                    "name": "E4",
                    "midi": 64,
                    "time": 493.4375,
                    "velocity": 0.3858267716535433,
                    "duration": 0.3125
                },
                {
                    "name": "A3",
                    "midi": 57,
                    "time": 493.75,
                    "velocity": 0.3858267716535433,
                    "duration": 0.3125
                },
                {
                    "name": "C#5",
                    "midi": 73,
                    "time": 494.0625,
                    "velocity": 0.3858267716535433,
                    "duration": 0.3125
                },
                {
                    "name": "A3",
                    "midi": 57,
                    "time": 494.375,
                    "velocity": 0.3858267716535433,
                    "duration": 0.3125
                },
                {
                    "name": "C#5",
                    "midi": 73,
                    "time": 494.6875,
                    "velocity": 0.3858267716535433,
                    "duration": 0.3125
                },
                {
                    "name": "D5",
                    "midi": 74,
                    "time": 495,
                    "velocity": 0.3858267716535433,
                    "duration": 0.3125
                },
                {
                    "name": "F4",
                    "midi": 65,
                    "time": 495.3125,
                    "velocity": 0.3858267716535433,
                    "duration": 0.3125
                },
                {
                    "name": "D4",
                    "midi": 62,
                    "time": 495.625,
                    "velocity": 0.3858267716535433,
                    "duration": 0.3125
                },
                {
                    "name": "D5",
                    "midi": 74,
                    "time": 495.9375,
                    "velocity": 0.3858267716535433,
                    "duration": 0.3125
                },
                {
                    "name": "D4",
                    "midi": 62,
                    "time": 496.25,
                    "velocity": 0.3858267716535433,
                    "duration": 0.3125
                },
                {
                    "name": "D5",
                    "midi": 74,
                    "time": 496.5625,
                    "velocity": 0.3858267716535433,
                    "duration": 0.3125
                },
                {
                    "name": "C#5",
                    "midi": 73,
                    "time": 496.875,
                    "velocity": 0.3858267716535433,
                    "duration": 0.3125
                },
                {
                    "name": "E4",
                    "midi": 64,
                    "time": 497.1875,
                    "velocity": 0.3858267716535433,
                    "duration": 0.3125
                },
                {
                    "name": "A3",
                    "midi": 57,
                    "time": 497.5,
                    "velocity": 0.3858267716535433,
                    "duration": 0.3125
                },
                {
                    "name": "C#5",
                    "midi": 73,
                    "time": 497.8125,
                    "velocity": 0.3858267716535433,
                    "duration": 0.3125
                },
                {
                    "name": "A3",
                    "midi": 57,
                    "time": 498.125,
                    "velocity": 0.3858267716535433,
                    "duration": 0.3125
                },
                {
                    "name": "C#5",
                    "midi": 73,
                    "time": 498.4375,
                    "velocity": 0.3858267716535433,
                    "duration": 0.3125
                },
                {
                    "name": "D5",
                    "midi": 74,
                    "time": 498.75,
                    "velocity": 0.3858267716535433,
                    "duration": 0.3125
                },
                {
                    "name": "F4",
                    "midi": 65,
                    "time": 499.0625,
                    "velocity": 0.3858267716535433,
                    "duration": 0.3125
                },
                {
                    "name": "D4",
                    "midi": 62,
                    "time": 499.375,
                    "velocity": 0.3858267716535433,
                    "duration": 0.3125
                },
                {
                    "name": "D5",
                    "midi": 74,
                    "time": 499.6875,
                    "velocity": 0.3858267716535433,
                    "duration": 0.3125
                },
                {
                    "name": "D4",
                    "midi": 62,
                    "time": 500,
                    "velocity": 0.3858267716535433,
                    "duration": 0.3125
                },
                {
                    "name": "D5",
                    "midi": 74,
                    "time": 500.3125,
                    "velocity": 0.3858267716535433,
                    "duration": 0.3125
                },
                {
                    "name": "E5",
                    "midi": 76,
                    "time": 500.625,
                    "velocity": 0.3858267716535433,
                    "duration": 0.3125
                },
                {
                    "name": "G4",
                    "midi": 67,
                    "time": 500.9375,
                    "velocity": 0.3858267716535433,
                    "duration": 0.3125
                },
                {
                    "name": "C4",
                    "midi": 60,
                    "time": 501.25,
                    "velocity": 0.3858267716535433,
                    "duration": 0.3125
                },
                {
                    "name": "E5",
                    "midi": 76,
                    "time": 501.5625,
                    "velocity": 0.3858267716535433,
                    "duration": 0.3125
                },
                {
                    "name": "C4",
                    "midi": 60,
                    "time": 501.875,
                    "velocity": 0.3858267716535433,
                    "duration": 0.3125
                },
                {
                    "name": "E5",
                    "midi": 76,
                    "time": 502.1875,
                    "velocity": 0.3858267716535433,
                    "duration": 0.3125
                },
                {
                    "name": "F5",
                    "midi": 77,
                    "time": 502.5,
                    "velocity": 0.3858267716535433,
                    "duration": 0.3125
                },
                {
                    "name": "C5",
                    "midi": 72,
                    "time": 502.8125,
                    "velocity": 0.3858267716535433,
                    "duration": 0.3125
                },
                {
                    "name": "F4",
                    "midi": 65,
                    "time": 503.125,
                    "velocity": 0.3858267716535433,
                    "duration": 0.3125
                },
                {
                    "name": "F5",
                    "midi": 77,
                    "time": 503.4375,
                    "velocity": 0.3858267716535433,
                    "duration": 0.3125
                },
                {
                    "name": "F4",
                    "midi": 65,
                    "time": 503.75,
                    "velocity": 0.3858267716535433,
                    "duration": 0.3125
                },
                {
                    "name": "F5",
                    "midi": 77,
                    "time": 504.0625,
                    "velocity": 0.3858267716535433,
                    "duration": 0.3125
                },
                {
                    "name": "E5",
                    "midi": 76,
                    "time": 504.375,
                    "velocity": 0.3858267716535433,
                    "duration": 0.3125
                },
                {
                    "name": "G4",
                    "midi": 67,
                    "time": 504.6875,
                    "velocity": 0.3858267716535433,
                    "duration": 0.3125
                },
                {
                    "name": "C4",
                    "midi": 60,
                    "time": 505,
                    "velocity": 0.3858267716535433,
                    "duration": 0.3125
                },
                {
                    "name": "E5",
                    "midi": 76,
                    "time": 505.3125,
                    "velocity": 0.3858267716535433,
                    "duration": 0.3125
                },
                {
                    "name": "C#4",
                    "midi": 61,
                    "time": 505.625,
                    "velocity": 0.3858267716535433,
                    "duration": 0.3125
                },
                {
                    "name": "E5",
                    "midi": 76,
                    "time": 505.9375,
                    "velocity": 0.3858267716535433,
                    "duration": 0.3125
                },
                {
                    "name": "D5",
                    "midi": 74,
                    "time": 506.25,
                    "velocity": 0.3858267716535433,
                    "duration": 0.3125
                },
                {
                    "name": "F4",
                    "midi": 65,
                    "time": 506.5625,
                    "velocity": 0.3858267716535433,
                    "duration": 0.3125
                },
                {
                    "name": "A3",
                    "midi": 57,
                    "time": 506.875,
                    "velocity": 0.3858267716535433,
                    "duration": 0.3125
                },
                {
                    "name": "D5",
                    "midi": 74,
                    "time": 507.1875,
                    "velocity": 0.3858267716535433,
                    "duration": 0.3125
                },
                {
                    "name": "A3",
                    "midi": 57,
                    "time": 507.5,
                    "velocity": 0.3858267716535433,
                    "duration": 0.3125
                },
                {
                    "name": "C#5",
                    "midi": 73,
                    "time": 507.8125,
                    "velocity": 0.3858267716535433,
                    "duration": 0.3125
                },
                {
                    "name": "D5",
                    "midi": 74,
                    "time": 508.125,
                    "velocity": 0.3858267716535433,
                    "duration": 1.875
                },
                {
                    "name": "F5",
                    "midi": 77,
                    "time": 510.3125,
                    "velocity": 0.3858267716535433,
                    "duration": 0.15625
                },
                {
                    "name": "E5",
                    "midi": 76,
                    "time": 510.46875,
                    "velocity": 0.3858267716535433,
                    "duration": 0.15625
                },
                {
                    "name": "F5",
                    "midi": 77,
                    "time": 510.625,
                    "velocity": 0.3858267716535433,
                    "duration": 0.3125
                },
                {
                    "name": "F4",
                    "midi": 65,
                    "time": 510.9375,
                    "velocity": 0.3858267716535433,
                    "duration": 0.3125
                },
                {
                    "name": "F5",
                    "midi": 77,
                    "time": 511.25,
                    "velocity": 0.3858267716535433,
                    "duration": 0.3125
                },
                {
                    "name": "F4",
                    "midi": 65,
                    "time": 511.5625,
                    "velocity": 0.3858267716535433,
                    "duration": 0.3125
                },
                {
                    "name": "E4",
                    "midi": 64,
                    "time": 511.875,
                    "velocity": 0.3858267716535433,
                    "duration": 0.3125
                },
                {
                    "name": "E5",
                    "midi": 76,
                    "time": 512.1875,
                    "velocity": 0.3858267716535433,
                    "duration": 0.15625
                },
                {
                    "name": "D5",
                    "midi": 74,
                    "time": 512.34375,
                    "velocity": 0.3858267716535433,
                    "duration": 0.15625
                },
                {
                    "name": "E5",
                    "midi": 76,
                    "time": 512.5,
                    "velocity": 0.3858267716535433,
                    "duration": 0.3125
                },
                {
                    "name": "E4",
                    "midi": 64,
                    "time": 512.8125,
                    "velocity": 0.3858267716535433,
                    "duration": 0.3125
                },
                {
                    "name": "E5",
                    "midi": 76,
                    "time": 513.125,
                    "velocity": 0.3858267716535433,
                    "duration": 0.3125
                },
                {
                    "name": "E4",
                    "midi": 64,
                    "time": 513.4375,
                    "velocity": 0.3858267716535433,
                    "duration": 0.3125
                },
                {
                    "name": "F4",
                    "midi": 65,
                    "time": 513.75,
                    "velocity": 0.3858267716535433,
                    "duration": 0.3125
                },
                {
                    "name": "F5",
                    "midi": 77,
                    "time": 514.0625,
                    "velocity": 0.3858267716535433,
                    "duration": 0.15625
                },
                {
                    "name": "E5",
                    "midi": 76,
                    "time": 514.21875,
                    "velocity": 0.3858267716535433,
                    "duration": 0.15625
                },
                {
                    "name": "F5",
                    "midi": 77,
                    "time": 514.375,
                    "velocity": 0.3858267716535433,
                    "duration": 0.3125
                },
                {
                    "name": "F4",
                    "midi": 65,
                    "time": 514.6875,
                    "velocity": 0.3858267716535433,
                    "duration": 0.3125
                },
                {
                    "name": "F5",
                    "midi": 77,
                    "time": 515,
                    "velocity": 0.3858267716535433,
                    "duration": 0.3125
                },
                {
                    "name": "F4",
                    "midi": 65,
                    "time": 515.3125,
                    "velocity": 0.3858267716535433,
                    "duration": 0.3125
                },
                {
                    "name": "G4",
                    "midi": 67,
                    "time": 515.625,
                    "velocity": 0.3858267716535433,
                    "duration": 0.3125
                },
                {
                    "name": "G5",
                    "midi": 79,
                    "time": 515.9375,
                    "velocity": 0.3858267716535433,
                    "duration": 0.15625
                },
                {
                    "name": "F5",
                    "midi": 77,
                    "time": 516.09375,
                    "velocity": 0.3858267716535433,
                    "duration": 0.15625
                },
                {
                    "name": "G5",
                    "midi": 79,
                    "time": 516.25,
                    "velocity": 0.3858267716535433,
                    "duration": 0.3125
                },
                {
                    "name": "G4",
                    "midi": 67,
                    "time": 516.5625,
                    "velocity": 0.3858267716535433,
                    "duration": 0.3125
                },
                {
                    "name": "G5",
                    "midi": 79,
                    "time": 516.875,
                    "velocity": 0.3858267716535433,
                    "duration": 0.3125
                },
                {
                    "name": "G4",
                    "midi": 67,
                    "time": 517.1875,
                    "velocity": 0.3858267716535433,
                    "duration": 0.3125
                },
                {
                    "name": "A4",
                    "midi": 69,
                    "time": 517.5,
                    "velocity": 0.3858267716535433,
                    "duration": 0.3125
                },
                {
                    "name": "A5",
                    "midi": 81,
                    "time": 517.8125,
                    "velocity": 0.3858267716535433,
                    "duration": 0.15625
                },
                {
                    "name": "G5",
                    "midi": 79,
                    "time": 517.96875,
                    "velocity": 0.3858267716535433,
                    "duration": 0.15625
                },
                {
                    "name": "A5",
                    "midi": 81,
                    "time": 518.125,
                    "velocity": 0.3858267716535433,
                    "duration": 0.3125
                },
                {
                    "name": "A4",
                    "midi": 69,
                    "time": 518.4375,
                    "velocity": 0.3858267716535433,
                    "duration": 0.3125
                },
                {
                    "name": "A5",
                    "midi": 81,
                    "time": 518.75,
                    "velocity": 0.3858267716535433,
                    "duration": 0.3125
                },
                {
                    "name": "A4",
                    "midi": 69,
                    "time": 519.0625,
                    "velocity": 0.3858267716535433,
                    "duration": 0.3125
                },
                {
                    "name": "G4",
                    "midi": 67,
                    "time": 519.375,
                    "velocity": 0.3858267716535433,
                    "duration": 0.3125
                },
                {
                    "name": "G5",
                    "midi": 79,
                    "time": 519.6875,
                    "velocity": 0.3858267716535433,
                    "duration": 0.15625
                },
                {
                    "name": "F5",
                    "midi": 77,
                    "time": 519.84375,
                    "velocity": 0.3858267716535433,
                    "duration": 0.15625
                },
                {
                    "name": "G5",
                    "midi": 79,
                    "time": 520,
                    "velocity": 0.3858267716535433,
                    "duration": 0.3125
                },
                {
                    "name": "G4",
                    "midi": 67,
                    "time": 520.3125,
                    "velocity": 0.3858267716535433,
                    "duration": 0.3125
                },
                {
                    "name": "G5",
                    "midi": 79,
                    "time": 520.625,
                    "velocity": 0.3858267716535433,
                    "duration": 0.3125
                },
                {
                    "name": "G4",
                    "midi": 67,
                    "time": 520.9375,
                    "velocity": 0.3858267716535433,
                    "duration": 0.3125
                },
                {
                    "name": "F4",
                    "midi": 65,
                    "time": 521.25,
                    "velocity": 0.3858267716535433,
                    "duration": 0.3125
                },
                {
                    "name": "F5",
                    "midi": 77,
                    "time": 521.5625,
                    "velocity": 0.3858267716535433,
                    "duration": 0.15625
                },
                {
                    "name": "E5",
                    "midi": 76,
                    "time": 521.71875,
                    "velocity": 0.3858267716535433,
                    "duration": 0.15625
                },
                {
                    "name": "F5",
                    "midi": 77,
                    "time": 521.875,
                    "velocity": 0.3858267716535433,
                    "duration": 0.3125
                },
                {
                    "name": "F4",
                    "midi": 65,
                    "time": 522.1875,
                    "velocity": 0.3858267716535433,
                    "duration": 0.3125
                },
                {
                    "name": "F5",
                    "midi": 77,
                    "time": 522.5,
                    "velocity": 0.3858267716535433,
                    "duration": 0.3125
                },
                {
                    "name": "F4",
                    "midi": 65,
                    "time": 522.8125,
                    "velocity": 0.3858267716535433,
                    "duration": 0.3125
                },
                {
                    "name": "E4",
                    "midi": 64,
                    "time": 523.125,
                    "velocity": 0.3858267716535433,
                    "duration": 0.3125
                },
                {
                    "name": "E5",
                    "midi": 76,
                    "time": 523.4375,
                    "velocity": 0.3858267716535433,
                    "duration": 0.15625
                },
                {
                    "name": "D5",
                    "midi": 74,
                    "time": 523.59375,
                    "velocity": 0.3858267716535433,
                    "duration": 0.15625
                },
                {
                    "name": "E5",
                    "midi": 76,
                    "time": 523.75,
                    "velocity": 0.3858267716535433,
                    "duration": 0.3125
                },
                {
                    "name": "E4",
                    "midi": 64,
                    "time": 524.0625,
                    "velocity": 0.3858267716535433,
                    "duration": 0.3125
                },
                {
                    "name": "E5",
                    "midi": 76,
                    "time": 524.375,
                    "velocity": 0.3858267716535433,
                    "duration": 0.3125
                },
                {
                    "name": "E4",
                    "midi": 64,
                    "time": 524.6875,
                    "velocity": 0.3858267716535433,
                    "duration": 0.3125
                },
                {
                    "name": "F4",
                    "midi": 65,
                    "time": 525,
                    "velocity": 0.3858267716535433,
                    "duration": 0.3125
                },
                {
                    "name": "F5",
                    "midi": 77,
                    "time": 525.3125,
                    "velocity": 0.3858267716535433,
                    "duration": 0.15625
                },
                {
                    "name": "E5",
                    "midi": 76,
                    "time": 525.46875,
                    "velocity": 0.3858267716535433,
                    "duration": 0.15625
                },
                {
                    "name": "F5",
                    "midi": 77,
                    "time": 525.625,
                    "velocity": 0.3858267716535433,
                    "duration": 0.3125
                },
                {
                    "name": "F4",
                    "midi": 65,
                    "time": 525.9375,
                    "velocity": 0.3858267716535433,
                    "duration": 0.3125
                },
                {
                    "name": "F5",
                    "midi": 77,
                    "time": 526.25,
                    "velocity": 0.3858267716535433,
                    "duration": 0.3125
                },
                {
                    "name": "F4",
                    "midi": 65,
                    "time": 526.5625,
                    "velocity": 0.3858267716535433,
                    "duration": 0.3125
                },
                {
                    "name": "E4",
                    "midi": 64,
                    "time": 526.875,
                    "velocity": 0.3858267716535433,
                    "duration": 0.3125
                },
                {
                    "name": "E5",
                    "midi": 76,
                    "time": 527.1875,
                    "velocity": 0.3858267716535433,
                    "duration": 0.15625
                },
                {
                    "name": "D5",
                    "midi": 74,
                    "time": 527.34375,
                    "velocity": 0.3858267716535433,
                    "duration": 0.15625
                },
                {
                    "name": "E5",
                    "midi": 76,
                    "time": 527.5,
                    "velocity": 0.3858267716535433,
                    "duration": 0.3125
                },
                {
                    "name": "E4",
                    "midi": 64,
                    "time": 527.8125,
                    "velocity": 0.3858267716535433,
                    "duration": 0.3125
                },
                {
                    "name": "E5",
                    "midi": 76,
                    "time": 528.125,
                    "velocity": 0.3858267716535433,
                    "duration": 0.3125
                },
                {
                    "name": "E4",
                    "midi": 64,
                    "time": 528.4375,
                    "velocity": 0.3858267716535433,
                    "duration": 0.3125
                },
                {
                    "name": "F4",
                    "midi": 65,
                    "time": 528.75,
                    "velocity": 0.3858267716535433,
                    "duration": 0.3125
                },
                {
                    "name": "F5",
                    "midi": 77,
                    "time": 529.0625,
                    "velocity": 0.3858267716535433,
                    "duration": 0.15625
                },
                {
                    "name": "E5",
                    "midi": 76,
                    "time": 529.21875,
                    "velocity": 0.3858267716535433,
                    "duration": 0.15625
                },
                {
                    "name": "F5",
                    "midi": 77,
                    "time": 529.375,
                    "velocity": 0.3858267716535433,
                    "duration": 0.3125
                },
                {
                    "name": "F4",
                    "midi": 65,
                    "time": 529.6875,
                    "velocity": 0.3858267716535433,
                    "duration": 0.3125
                },
                {
                    "name": "F5",
                    "midi": 77,
                    "time": 530,
                    "velocity": 0.3858267716535433,
                    "duration": 0.3125
                },
                {
                    "name": "F4",
                    "midi": 65,
                    "time": 530.3125,
                    "velocity": 0.3858267716535433,
                    "duration": 0.3125
                },
                {
                    "name": "G4",
                    "midi": 67,
                    "time": 530.625,
                    "velocity": 0.3858267716535433,
                    "duration": 0.3125
                },
                {
                    "name": "G5",
                    "midi": 79,
                    "time": 530.9375,
                    "velocity": 0.3858267716535433,
                    "duration": 0.15625
                },
                {
                    "name": "F5",
                    "midi": 77,
                    "time": 531.09375,
                    "velocity": 0.3858267716535433,
                    "duration": 0.15625
                },
                {
                    "name": "G5",
                    "midi": 79,
                    "time": 531.25,
                    "velocity": 0.3858267716535433,
                    "duration": 0.3125
                },
                {
                    "name": "G4",
                    "midi": 67,
                    "time": 531.5625,
                    "velocity": 0.3858267716535433,
                    "duration": 0.3125
                },
                {
                    "name": "G5",
                    "midi": 79,
                    "time": 531.875,
                    "velocity": 0.3858267716535433,
                    "duration": 0.3125
                },
                {
                    "name": "G4",
                    "midi": 67,
                    "time": 532.1875,
                    "velocity": 0.3858267716535433,
                    "duration": 0.3125
                },
                {
                    "name": "A4",
                    "midi": 69,
                    "time": 532.5,
                    "velocity": 0.3858267716535433,
                    "duration": 0.3125
                },
                {
                    "name": "A5",
                    "midi": 81,
                    "time": 532.8125,
                    "velocity": 0.3858267716535433,
                    "duration": 0.15625
                },
                {
                    "name": "G5",
                    "midi": 79,
                    "time": 532.96875,
                    "velocity": 0.3858267716535433,
                    "duration": 0.15625
                },
                {
                    "name": "A5",
                    "midi": 81,
                    "time": 533.125,
                    "velocity": 0.3858267716535433,
                    "duration": 0.3125
                },
                {
                    "name": "A4",
                    "midi": 69,
                    "time": 533.4375,
                    "velocity": 0.3858267716535433,
                    "duration": 0.3125
                },
                {
                    "name": "A5",
                    "midi": 81,
                    "time": 533.75,
                    "velocity": 0.3858267716535433,
                    "duration": 0.3125
                },
                {
                    "name": "A4",
                    "midi": 69,
                    "time": 534.0625,
                    "velocity": 0.3858267716535433,
                    "duration": 0.3125
                },
                {
                    "name": "G4",
                    "midi": 67,
                    "time": 534.375,
                    "velocity": 0.3858267716535433,
                    "duration": 0.3125
                },
                {
                    "name": "G5",
                    "midi": 79,
                    "time": 534.6875,
                    "velocity": 0.3858267716535433,
                    "duration": 0.15625
                },
                {
                    "name": "F5",
                    "midi": 77,
                    "time": 534.84375,
                    "velocity": 0.3858267716535433,
                    "duration": 0.15625
                },
                {
                    "name": "G5",
                    "midi": 79,
                    "time": 535,
                    "velocity": 0.3858267716535433,
                    "duration": 0.3125
                },
                {
                    "name": "G4",
                    "midi": 67,
                    "time": 535.3125,
                    "velocity": 0.3858267716535433,
                    "duration": 0.3125
                },
                {
                    "name": "G5",
                    "midi": 79,
                    "time": 535.625,
                    "velocity": 0.3858267716535433,
                    "duration": 0.3125
                },
                {
                    "name": "G4",
                    "midi": 67,
                    "time": 535.9375,
                    "velocity": 0.3858267716535433,
                    "duration": 0.3125
                },
                {
                    "name": "F5",
                    "midi": 77,
                    "time": 536.25,
                    "velocity": 0.3858267716535433,
                    "duration": 0.3125
                },
                {
                    "name": "G5",
                    "midi": 79,
                    "time": 536.5625,
                    "velocity": 0.3858267716535433,
                    "duration": 0.15625
                },
                {
                    "name": "F5",
                    "midi": 77,
                    "time": 536.71875,
                    "velocity": 0.3858267716535433,
                    "duration": 0.15625
                },
                {
                    "name": "E5",
                    "midi": 76,
                    "time": 536.875,
                    "velocity": 0.3858267716535433,
                    "duration": 0.3125
                },
                {
                    "name": "E4",
                    "midi": 64,
                    "time": 537.1875,
                    "velocity": 0.3858267716535433,
                    "duration": 0.3125
                },
                {
                    "name": "E5",
                    "midi": 76,
                    "time": 537.5,
                    "velocity": 0.3858267716535433,
                    "duration": 0.3125
                },
                {
                    "name": "E4",
                    "midi": 64,
                    "time": 537.8125,
                    "velocity": 0.3858267716535433,
                    "duration": 0.3125
                },
                {
                    "name": "D4",
                    "midi": 62,
                    "time": 538.125,
                    "velocity": 0.3858267716535433,
                    "duration": 1.875
                },
                {
                    "name": "F5",
                    "midi": 77,
                    "time": 540,
                    "velocity": 0.3858267716535433,
                    "duration": 0.15625
                },
                {
                    "name": "D5",
                    "midi": 74,
                    "time": 540.15625,
                    "velocity": 0.3858267716535433,
                    "duration": 0.15625
                },
                {
                    "name": "A4",
                    "midi": 69,
                    "time": 540.3125,
                    "velocity": 0.3858267716535433,
                    "duration": 0.15625
                },
                {
                    "name": "F5",
                    "midi": 77,
                    "time": 540.46875,
                    "velocity": 0.3858267716535433,
                    "duration": 0.15625
                },
                {
                    "name": "F5",
                    "midi": 77,
                    "time": 540.625,
                    "velocity": 0.3858267716535433,
                    "duration": 0.15625
                },
                {
                    "name": "D5",
                    "midi": 74,
                    "time": 540.78125,
                    "velocity": 0.3858267716535433,
                    "duration": 0.15625
                },
                {
                    "name": "A4",
                    "midi": 69,
                    "time": 540.9375,
                    "velocity": 0.3858267716535433,
                    "duration": 0.15625
                },
                {
                    "name": "F5",
                    "midi": 77,
                    "time": 541.09375,
                    "velocity": 0.3858267716535433,
                    "duration": 0.15625
                },
                {
                    "name": "F5",
                    "midi": 77,
                    "time": 541.25,
                    "velocity": 0.3858267716535433,
                    "duration": 0.15625
                },
                {
                    "name": "D5",
                    "midi": 74,
                    "time": 541.40625,
                    "velocity": 0.3858267716535433,
                    "duration": 0.15625
                },
                {
                    "name": "A4",
                    "midi": 69,
                    "time": 541.5625,
                    "velocity": 0.3858267716535433,
                    "duration": 0.15625
                },
                {
                    "name": "F5",
                    "midi": 77,
                    "time": 541.71875,
                    "velocity": 0.3858267716535433,
                    "duration": 0.15625
                },
                {
                    "name": "E5",
                    "midi": 76,
                    "time": 541.875,
                    "velocity": 0.3858267716535433,
                    "duration": 0.15625
                },
                {
                    "name": "C#5",
                    "midi": 73,
                    "time": 542.03125,
                    "velocity": 0.3858267716535433,
                    "duration": 0.15625
                },
                {
                    "name": "A4",
                    "midi": 69,
                    "time": 542.1875,
                    "velocity": 0.3858267716535433,
                    "duration": 0.15625
                },
                {
                    "name": "E5",
                    "midi": 76,
                    "time": 542.34375,
                    "velocity": 0.3858267716535433,
                    "duration": 0.15625
                },
                {
                    "name": "E5",
                    "midi": 76,
                    "time": 542.5,
                    "velocity": 0.3858267716535433,
                    "duration": 0.15625
                },
                {
                    "name": "C#5",
                    "midi": 73,
                    "time": 542.65625,
                    "velocity": 0.3858267716535433,
                    "duration": 0.15625
                },
                {
                    "name": "A4",
                    "midi": 69,
                    "time": 542.8125,
                    "velocity": 0.3858267716535433,
                    "duration": 0.15625
                },
                {
                    "name": "E5",
                    "midi": 76,
                    "time": 542.96875,
                    "velocity": 0.3858267716535433,
                    "duration": 0.15625
                },
                {
                    "name": "E5",
                    "midi": 76,
                    "time": 543.125,
                    "velocity": 0.3858267716535433,
                    "duration": 0.15625
                },
                {
                    "name": "C#5",
                    "midi": 73,
                    "time": 543.28125,
                    "velocity": 0.3858267716535433,
                    "duration": 0.15625
                },
                {
                    "name": "A4",
                    "midi": 69,
                    "time": 543.4375,
                    "velocity": 0.3858267716535433,
                    "duration": 0.15625
                },
                {
                    "name": "E5",
                    "midi": 76,
                    "time": 543.59375,
                    "velocity": 0.3858267716535433,
                    "duration": 0.15625
                },
                {
                    "name": "F5",
                    "midi": 77,
                    "time": 543.75,
                    "velocity": 0.3858267716535433,
                    "duration": 0.15625
                },
                {
                    "name": "D5",
                    "midi": 74,
                    "time": 543.90625,
                    "velocity": 0.3858267716535433,
                    "duration": 0.15625
                },
                {
                    "name": "A4",
                    "midi": 69,
                    "time": 544.0625,
                    "velocity": 0.3858267716535433,
                    "duration": 0.15625
                },
                {
                    "name": "F5",
                    "midi": 77,
                    "time": 544.21875,
                    "velocity": 0.3858267716535433,
                    "duration": 0.15625
                },
                {
                    "name": "F5",
                    "midi": 77,
                    "time": 544.375,
                    "velocity": 0.3858267716535433,
                    "duration": 0.15625
                },
                {
                    "name": "D5",
                    "midi": 74,
                    "time": 544.53125,
                    "velocity": 0.3858267716535433,
                    "duration": 0.15625
                },
                {
                    "name": "A4",
                    "midi": 69,
                    "time": 544.6875,
                    "velocity": 0.3858267716535433,
                    "duration": 0.15625
                },
                {
                    "name": "F5",
                    "midi": 77,
                    "time": 544.84375,
                    "velocity": 0.3858267716535433,
                    "duration": 0.15625
                },
                {
                    "name": "F5",
                    "midi": 77,
                    "time": 545,
                    "velocity": 0.3858267716535433,
                    "duration": 0.15625
                },
                {
                    "name": "D5",
                    "midi": 74,
                    "time": 545.15625,
                    "velocity": 0.3858267716535433,
                    "duration": 0.15625
                },
                {
                    "name": "A4",
                    "midi": 69,
                    "time": 545.3125,
                    "velocity": 0.3858267716535433,
                    "duration": 0.15625
                },
                {
                    "name": "F5",
                    "midi": 77,
                    "time": 545.46875,
                    "velocity": 0.3858267716535433,
                    "duration": 0.15625
                },
                {
                    "name": "G5",
                    "midi": 79,
                    "time": 545.625,
                    "velocity": 0.3858267716535433,
                    "duration": 0.15625
                },
                {
                    "name": "E5",
                    "midi": 76,
                    "time": 545.78125,
                    "velocity": 0.3858267716535433,
                    "duration": 0.15625
                },
                {
                    "name": "C5",
                    "midi": 72,
                    "time": 545.9375,
                    "velocity": 0.3858267716535433,
                    "duration": 0.15625
                },
                {
                    "name": "G5",
                    "midi": 79,
                    "time": 546.09375,
                    "velocity": 0.3858267716535433,
                    "duration": 0.15625
                },
                {
                    "name": "G5",
                    "midi": 79,
                    "time": 546.25,
                    "velocity": 0.3858267716535433,
                    "duration": 0.15625
                },
                {
                    "name": "E5",
                    "midi": 76,
                    "time": 546.40625,
                    "velocity": 0.3858267716535433,
                    "duration": 0.15625
                },
                {
                    "name": "C5",
                    "midi": 72,
                    "time": 546.5625,
                    "velocity": 0.3858267716535433,
                    "duration": 0.15625
                },
                {
                    "name": "G5",
                    "midi": 79,
                    "time": 546.71875,
                    "velocity": 0.3858267716535433,
                    "duration": 0.15625
                },
                {
                    "name": "G5",
                    "midi": 79,
                    "time": 546.875,
                    "velocity": 0.3858267716535433,
                    "duration": 0.15625
                },
                {
                    "name": "E5",
                    "midi": 76,
                    "time": 547.03125,
                    "velocity": 0.3858267716535433,
                    "duration": 0.15625
                },
                {
                    "name": "C5",
                    "midi": 72,
                    "time": 547.1875,
                    "velocity": 0.3858267716535433,
                    "duration": 0.15625
                },
                {
                    "name": "G5",
                    "midi": 79,
                    "time": 547.34375,
                    "velocity": 0.3858267716535433,
                    "duration": 0.15625
                },
                {
                    "name": "A5",
                    "midi": 81,
                    "time": 547.5,
                    "velocity": 0.3858267716535433,
                    "duration": 0.15625
                },
                {
                    "name": "F5",
                    "midi": 77,
                    "time": 547.65625,
                    "velocity": 0.3858267716535433,
                    "duration": 0.15625
                },
                {
                    "name": "C5",
                    "midi": 72,
                    "time": 547.8125,
                    "velocity": 0.3858267716535433,
                    "duration": 0.15625
                },
                {
                    "name": "A5",
                    "midi": 81,
                    "time": 547.96875,
                    "velocity": 0.3858267716535433,
                    "duration": 0.15625
                },
                {
                    "name": "A5",
                    "midi": 81,
                    "time": 548.125,
                    "velocity": 0.3858267716535433,
                    "duration": 0.15625
                },
                {
                    "name": "F5",
                    "midi": 77,
                    "time": 548.28125,
                    "velocity": 0.3858267716535433,
                    "duration": 0.15625
                },
                {
                    "name": "C5",
                    "midi": 72,
                    "time": 548.4375,
                    "velocity": 0.3858267716535433,
                    "duration": 0.15625
                },
                {
                    "name": "A5",
                    "midi": 81,
                    "time": 548.59375,
                    "velocity": 0.3858267716535433,
                    "duration": 0.15625
                },
                {
                    "name": "A5",
                    "midi": 81,
                    "time": 548.75,
                    "velocity": 0.3858267716535433,
                    "duration": 0.15625
                },
                {
                    "name": "F5",
                    "midi": 77,
                    "time": 548.90625,
                    "velocity": 0.3858267716535433,
                    "duration": 0.15625
                },
                {
                    "name": "C5",
                    "midi": 72,
                    "time": 549.0625,
                    "velocity": 0.3858267716535433,
                    "duration": 0.15625
                },
                {
                    "name": "A5",
                    "midi": 81,
                    "time": 549.21875,
                    "velocity": 0.3858267716535433,
                    "duration": 0.15625
                },
                {
                    "name": "G5",
                    "midi": 79,
                    "time": 549.375,
                    "velocity": 0.3858267716535433,
                    "duration": 0.15625
                },
                {
                    "name": "E5",
                    "midi": 76,
                    "time": 549.53125,
                    "velocity": 0.3858267716535433,
                    "duration": 0.15625
                },
                {
                    "name": "C5",
                    "midi": 72,
                    "time": 549.6875,
                    "velocity": 0.3858267716535433,
                    "duration": 0.15625
                },
                {
                    "name": "G5",
                    "midi": 79,
                    "time": 549.84375,
                    "velocity": 0.3858267716535433,
                    "duration": 0.15625
                },
                {
                    "name": "G5",
                    "midi": 79,
                    "time": 550,
                    "velocity": 0.3858267716535433,
                    "duration": 0.15625
                },
                {
                    "name": "E5",
                    "midi": 76,
                    "time": 550.15625,
                    "velocity": 0.3858267716535433,
                    "duration": 0.15625
                },
                {
                    "name": "A4",
                    "midi": 69,
                    "time": 550.3125,
                    "velocity": 0.3858267716535433,
                    "duration": 0.15625
                },
                {
                    "name": "G5",
                    "midi": 79,
                    "time": 550.46875,
                    "velocity": 0.3858267716535433,
                    "duration": 0.15625
                },
                {
                    "name": "G5",
                    "midi": 79,
                    "time": 550.625,
                    "velocity": 0.3858267716535433,
                    "duration": 0.15625
                },
                {
                    "name": "E5",
                    "midi": 76,
                    "time": 550.78125,
                    "velocity": 0.3858267716535433,
                    "duration": 0.15625
                },
                {
                    "name": "A4",
                    "midi": 69,
                    "time": 550.9375,
                    "velocity": 0.3858267716535433,
                    "duration": 0.15625
                },
                {
                    "name": "G5",
                    "midi": 79,
                    "time": 551.09375,
                    "velocity": 0.3858267716535433,
                    "duration": 0.15625
                },
                {
                    "name": "F5",
                    "midi": 77,
                    "time": 551.25,
                    "velocity": 0.3858267716535433,
                    "duration": 0.15625
                },
                {
                    "name": "D5",
                    "midi": 74,
                    "time": 551.40625,
                    "velocity": 0.3858267716535433,
                    "duration": 0.15625
                },
                {
                    "name": "A4",
                    "midi": 69,
                    "time": 551.5625,
                    "velocity": 0.3858267716535433,
                    "duration": 0.15625
                },
                {
                    "name": "F5",
                    "midi": 77,
                    "time": 551.71875,
                    "velocity": 0.3858267716535433,
                    "duration": 0.15625
                },
                {
                    "name": "F5",
                    "midi": 77,
                    "time": 551.875,
                    "velocity": 0.3858267716535433,
                    "duration": 0.15625
                },
                {
                    "name": "D5",
                    "midi": 74,
                    "time": 552.03125,
                    "velocity": 0.3858267716535433,
                    "duration": 0.15625
                },
                {
                    "name": "A#4",
                    "midi": 70,
                    "time": 552.1875,
                    "velocity": 0.3858267716535433,
                    "duration": 0.15625
                },
                {
                    "name": "F5",
                    "midi": 77,
                    "time": 552.34375,
                    "velocity": 0.3858267716535433,
                    "duration": 0.15625
                },
                {
                    "name": "F5",
                    "midi": 77,
                    "time": 552.5,
                    "velocity": 0.3858267716535433,
                    "duration": 0.15625
                },
                {
                    "name": "D5",
                    "midi": 74,
                    "time": 552.65625,
                    "velocity": 0.3858267716535433,
                    "duration": 0.15625
                },
                {
                    "name": "A#4",
                    "midi": 70,
                    "time": 552.8125,
                    "velocity": 0.3858267716535433,
                    "duration": 0.15625
                },
                {
                    "name": "F5",
                    "midi": 77,
                    "time": 552.96875,
                    "velocity": 0.3858267716535433,
                    "duration": 0.15625
                },
                {
                    "name": "E5",
                    "midi": 76,
                    "time": 553.125,
                    "velocity": 0.3858267716535433,
                    "duration": 0.15625
                },
                {
                    "name": "C#5",
                    "midi": 73,
                    "time": 553.28125,
                    "velocity": 0.3858267716535433,
                    "duration": 0.15625
                },
                {
                    "name": "A4",
                    "midi": 69,
                    "time": 553.4375,
                    "velocity": 0.3858267716535433,
                    "duration": 0.15625
                },
                {
                    "name": "E5",
                    "midi": 76,
                    "time": 553.59375,
                    "velocity": 0.3858267716535433,
                    "duration": 0.15625
                },
                {
                    "name": "E5",
                    "midi": 76,
                    "time": 553.75,
                    "velocity": 0.3858267716535433,
                    "duration": 0.15625
                },
                {
                    "name": "C#5",
                    "midi": 73,
                    "time": 553.90625,
                    "velocity": 0.3858267716535433,
                    "duration": 0.15625
                },
                {
                    "name": "A4",
                    "midi": 69,
                    "time": 554.0625,
                    "velocity": 0.3858267716535433,
                    "duration": 0.15625
                },
                {
                    "name": "E5",
                    "midi": 76,
                    "time": 554.21875,
                    "velocity": 0.3858267716535433,
                    "duration": 0.15625
                },
                {
                    "name": "E5",
                    "midi": 76,
                    "time": 554.375,
                    "velocity": 0.3858267716535433,
                    "duration": 0.15625
                },
                {
                    "name": "C#5",
                    "midi": 73,
                    "time": 554.53125,
                    "velocity": 0.3858267716535433,
                    "duration": 0.15625
                },
                {
                    "name": "A4",
                    "midi": 69,
                    "time": 554.6875,
                    "velocity": 0.3858267716535433,
                    "duration": 0.15625
                },
                {
                    "name": "E5",
                    "midi": 76,
                    "time": 554.84375,
                    "velocity": 0.3858267716535433,
                    "duration": 0.15625
                },
                {
                    "name": "F5",
                    "midi": 77,
                    "time": 555,
                    "velocity": 0.3858267716535433,
                    "duration": 0.15625
                },
                {
                    "name": "D5",
                    "midi": 74,
                    "time": 555.15625,
                    "velocity": 0.3858267716535433,
                    "duration": 0.15625
                },
                {
                    "name": "A4",
                    "midi": 69,
                    "time": 555.3125,
                    "velocity": 0.3858267716535433,
                    "duration": 0.15625
                },
                {
                    "name": "F5",
                    "midi": 77,
                    "time": 555.46875,
                    "velocity": 0.3858267716535433,
                    "duration": 0.15625
                },
                {
                    "name": "F5",
                    "midi": 77,
                    "time": 555.625,
                    "velocity": 0.3858267716535433,
                    "duration": 0.15625
                },
                {
                    "name": "D5",
                    "midi": 74,
                    "time": 555.78125,
                    "velocity": 0.3858267716535433,
                    "duration": 0.15625
                },
                {
                    "name": "A4",
                    "midi": 69,
                    "time": 555.9375,
                    "velocity": 0.3858267716535433,
                    "duration": 0.15625
                },
                {
                    "name": "F5",
                    "midi": 77,
                    "time": 556.09375,
                    "velocity": 0.3858267716535433,
                    "duration": 0.15625
                },
                {
                    "name": "F5",
                    "midi": 77,
                    "time": 556.25,
                    "velocity": 0.3858267716535433,
                    "duration": 0.15625
                },
                {
                    "name": "D5",
                    "midi": 74,
                    "time": 556.40625,
                    "velocity": 0.3858267716535433,
                    "duration": 0.15625
                },
                {
                    "name": "A4",
                    "midi": 69,
                    "time": 556.5625,
                    "velocity": 0.3858267716535433,
                    "duration": 0.15625
                },
                {
                    "name": "F5",
                    "midi": 77,
                    "time": 556.71875,
                    "velocity": 0.3858267716535433,
                    "duration": 0.15625
                },
                {
                    "name": "E5",
                    "midi": 76,
                    "time": 556.875,
                    "velocity": 0.3858267716535433,
                    "duration": 0.15625
                },
                {
                    "name": "C#5",
                    "midi": 73,
                    "time": 557.03125,
                    "velocity": 0.3858267716535433,
                    "duration": 0.15625
                },
                {
                    "name": "A4",
                    "midi": 69,
                    "time": 557.1875,
                    "velocity": 0.3858267716535433,
                    "duration": 0.15625
                },
                {
                    "name": "E5",
                    "midi": 76,
                    "time": 557.34375,
                    "velocity": 0.3858267716535433,
                    "duration": 0.15625
                },
                {
                    "name": "E5",
                    "midi": 76,
                    "time": 557.5,
                    "velocity": 0.3858267716535433,
                    "duration": 0.15625
                },
                {
                    "name": "C#5",
                    "midi": 73,
                    "time": 557.65625,
                    "velocity": 0.3858267716535433,
                    "duration": 0.15625
                },
                {
                    "name": "A4",
                    "midi": 69,
                    "time": 557.8125,
                    "velocity": 0.3858267716535433,
                    "duration": 0.15625
                },
                {
                    "name": "E5",
                    "midi": 76,
                    "time": 557.96875,
                    "velocity": 0.3858267716535433,
                    "duration": 0.15625
                },
                {
                    "name": "E5",
                    "midi": 76,
                    "time": 558.125,
                    "velocity": 0.3858267716535433,
                    "duration": 0.15625
                },
                {
                    "name": "C#5",
                    "midi": 73,
                    "time": 558.28125,
                    "velocity": 0.3858267716535433,
                    "duration": 0.15625
                },
                {
                    "name": "A4",
                    "midi": 69,
                    "time": 558.4375,
                    "velocity": 0.3858267716535433,
                    "duration": 0.15625
                },
                {
                    "name": "E5",
                    "midi": 76,
                    "time": 558.59375,
                    "velocity": 0.3858267716535433,
                    "duration": 0.15625
                },
                {
                    "name": "F5",
                    "midi": 77,
                    "time": 558.75,
                    "velocity": 0.3858267716535433,
                    "duration": 0.15625
                },
                {
                    "name": "D5",
                    "midi": 74,
                    "time": 558.90625,
                    "velocity": 0.3858267716535433,
                    "duration": 0.15625
                },
                {
                    "name": "A4",
                    "midi": 69,
                    "time": 559.0625,
                    "velocity": 0.3858267716535433,
                    "duration": 0.15625
                },
                {
                    "name": "F5",
                    "midi": 77,
                    "time": 559.21875,
                    "velocity": 0.3858267716535433,
                    "duration": 0.15625
                },
                {
                    "name": "F5",
                    "midi": 77,
                    "time": 559.375,
                    "velocity": 0.3858267716535433,
                    "duration": 0.15625
                },
                {
                    "name": "D5",
                    "midi": 74,
                    "time": 559.53125,
                    "velocity": 0.3858267716535433,
                    "duration": 0.15625
                },
                {
                    "name": "A4",
                    "midi": 69,
                    "time": 559.6875,
                    "velocity": 0.3858267716535433,
                    "duration": 0.15625
                },
                {
                    "name": "F5",
                    "midi": 77,
                    "time": 559.84375,
                    "velocity": 0.3858267716535433,
                    "duration": 0.15625
                },
                {
                    "name": "F5",
                    "midi": 77,
                    "time": 560,
                    "velocity": 0.3858267716535433,
                    "duration": 0.15625
                },
                {
                    "name": "D5",
                    "midi": 74,
                    "time": 560.15625,
                    "velocity": 0.3858267716535433,
                    "duration": 0.15625
                },
                {
                    "name": "A4",
                    "midi": 69,
                    "time": 560.3125,
                    "velocity": 0.3858267716535433,
                    "duration": 0.15625
                },
                {
                    "name": "F5",
                    "midi": 77,
                    "time": 560.46875,
                    "velocity": 0.3858267716535433,
                    "duration": 0.15625
                },
                {
                    "name": "G5",
                    "midi": 79,
                    "time": 560.625,
                    "velocity": 0.3858267716535433,
                    "duration": 0.15625
                },
                {
                    "name": "E5",
                    "midi": 76,
                    "time": 560.78125,
                    "velocity": 0.3858267716535433,
                    "duration": 0.15625
                },
                {
                    "name": "C5",
                    "midi": 72,
                    "time": 560.9375,
                    "velocity": 0.3858267716535433,
                    "duration": 0.15625
                },
                {
                    "name": "G5",
                    "midi": 79,
                    "time": 561.09375,
                    "velocity": 0.3858267716535433,
                    "duration": 0.15625
                },
                {
                    "name": "G5",
                    "midi": 79,
                    "time": 561.25,
                    "velocity": 0.3858267716535433,
                    "duration": 0.15625
                },
                {
                    "name": "E5",
                    "midi": 76,
                    "time": 561.40625,
                    "velocity": 0.3858267716535433,
                    "duration": 0.15625
                },
                {
                    "name": "C5",
                    "midi": 72,
                    "time": 561.5625,
                    "velocity": 0.3858267716535433,
                    "duration": 0.15625
                },
                {
                    "name": "G5",
                    "midi": 79,
                    "time": 561.71875,
                    "velocity": 0.3858267716535433,
                    "duration": 0.15625
                },
                {
                    "name": "G5",
                    "midi": 79,
                    "time": 561.875,
                    "velocity": 0.3858267716535433,
                    "duration": 0.15625
                },
                {
                    "name": "E5",
                    "midi": 76,
                    "time": 562.03125,
                    "velocity": 0.3858267716535433,
                    "duration": 0.15625
                },
                {
                    "name": "C5",
                    "midi": 72,
                    "time": 562.1875,
                    "velocity": 0.3858267716535433,
                    "duration": 0.15625
                },
                {
                    "name": "G5",
                    "midi": 79,
                    "time": 562.34375,
                    "velocity": 0.3858267716535433,
                    "duration": 0.15625
                },
                {
                    "name": "A5",
                    "midi": 81,
                    "time": 562.5,
                    "velocity": 0.3858267716535433,
                    "duration": 0.15625
                },
                {
                    "name": "F5",
                    "midi": 77,
                    "time": 562.65625,
                    "velocity": 0.3858267716535433,
                    "duration": 0.15625
                },
                {
                    "name": "C5",
                    "midi": 72,
                    "time": 562.8125,
                    "velocity": 0.3858267716535433,
                    "duration": 0.15625
                },
                {
                    "name": "A5",
                    "midi": 81,
                    "time": 562.96875,
                    "velocity": 0.3858267716535433,
                    "duration": 0.15625
                },
                {
                    "name": "A5",
                    "midi": 81,
                    "time": 563.125,
                    "velocity": 0.3858267716535433,
                    "duration": 0.15625
                },
                {
                    "name": "F5",
                    "midi": 77,
                    "time": 563.28125,
                    "velocity": 0.3858267716535433,
                    "duration": 0.15625
                },
                {
                    "name": "C5",
                    "midi": 72,
                    "time": 563.4375,
                    "velocity": 0.3858267716535433,
                    "duration": 0.15625
                },
                {
                    "name": "A5",
                    "midi": 81,
                    "time": 563.59375,
                    "velocity": 0.3858267716535433,
                    "duration": 0.15625
                },
                {
                    "name": "A5",
                    "midi": 81,
                    "time": 563.75,
                    "velocity": 0.3858267716535433,
                    "duration": 0.15625
                },
                {
                    "name": "F5",
                    "midi": 77,
                    "time": 563.90625,
                    "velocity": 0.3858267716535433,
                    "duration": 0.15625
                },
                {
                    "name": "C5",
                    "midi": 72,
                    "time": 564.0625,
                    "velocity": 0.3858267716535433,
                    "duration": 0.15625
                },
                {
                    "name": "A5",
                    "midi": 81,
                    "time": 564.21875,
                    "velocity": 0.3858267716535433,
                    "duration": 0.15625
                },
                {
                    "name": "G5",
                    "midi": 79,
                    "time": 564.375,
                    "velocity": 0.3858267716535433,
                    "duration": 0.15625
                },
                {
                    "name": "E5",
                    "midi": 76,
                    "time": 564.53125,
                    "velocity": 0.3858267716535433,
                    "duration": 0.15625
                },
                {
                    "name": "C5",
                    "midi": 72,
                    "time": 564.6875,
                    "velocity": 0.3858267716535433,
                    "duration": 0.15625
                },
                {
                    "name": "G5",
                    "midi": 79,
                    "time": 564.84375,
                    "velocity": 0.3858267716535433,
                    "duration": 0.15625
                },
                {
                    "name": "G5",
                    "midi": 79,
                    "time": 565,
                    "velocity": 0.3858267716535433,
                    "duration": 0.15625
                },
                {
                    "name": "E5",
                    "midi": 76,
                    "time": 565.15625,
                    "velocity": 0.3858267716535433,
                    "duration": 0.15625
                },
                {
                    "name": "A4",
                    "midi": 69,
                    "time": 565.3125,
                    "velocity": 0.3858267716535433,
                    "duration": 0.15625
                },
                {
                    "name": "G5",
                    "midi": 79,
                    "time": 565.46875,
                    "velocity": 0.3858267716535433,
                    "duration": 0.15625
                },
                {
                    "name": "G5",
                    "midi": 79,
                    "time": 565.625,
                    "velocity": 0.3858267716535433,
                    "duration": 0.15625
                },
                {
                    "name": "E5",
                    "midi": 76,
                    "time": 565.78125,
                    "velocity": 0.3858267716535433,
                    "duration": 0.15625
                },
                {
                    "name": "A4",
                    "midi": 69,
                    "time": 565.9375,
                    "velocity": 0.3858267716535433,
                    "duration": 0.15625
                },
                {
                    "name": "G5",
                    "midi": 79,
                    "time": 566.09375,
                    "velocity": 0.3858267716535433,
                    "duration": 0.15625
                },
                {
                    "name": "F5",
                    "midi": 77,
                    "time": 566.25,
                    "velocity": 0.3858267716535433,
                    "duration": 0.15625
                },
                {
                    "name": "D5",
                    "midi": 74,
                    "time": 566.40625,
                    "velocity": 0.3858267716535433,
                    "duration": 0.15625
                },
                {
                    "name": "A4",
                    "midi": 69,
                    "time": 566.5625,
                    "velocity": 0.3858267716535433,
                    "duration": 0.15625
                },
                {
                    "name": "F5",
                    "midi": 77,
                    "time": 566.71875,
                    "velocity": 0.3858267716535433,
                    "duration": 0.15625
                },
                {
                    "name": "E5",
                    "midi": 76,
                    "time": 566.875,
                    "velocity": 0.3858267716535433,
                    "duration": 0.15625
                },
                {
                    "name": "C#5",
                    "midi": 73,
                    "time": 567.03125,
                    "velocity": 0.3858267716535433,
                    "duration": 0.15625
                },
                {
                    "name": "A4",
                    "midi": 69,
                    "time": 567.1875,
                    "velocity": 0.3858267716535433,
                    "duration": 0.15625
                },
                {
                    "name": "E5",
                    "midi": 76,
                    "time": 567.34375,
                    "velocity": 0.3858267716535433,
                    "duration": 0.15625
                },
                {
                    "name": "E5",
                    "midi": 76,
                    "time": 567.5,
                    "velocity": 0.3858267716535433,
                    "duration": 0.15625
                },
                {
                    "name": "C#5",
                    "midi": 73,
                    "time": 567.65625,
                    "velocity": 0.3858267716535433,
                    "duration": 0.15625
                },
                {
                    "name": "A4",
                    "midi": 69,
                    "time": 567.8125,
                    "velocity": 0.3858267716535433,
                    "duration": 0.15625
                },
                {
                    "name": "E5",
                    "midi": 76,
                    "time": 567.96875,
                    "velocity": 0.3858267716535433,
                    "duration": 0.15625
                },
                {
                    "name": "D5",
                    "midi": 74,
                    "time": 568.125,
                    "velocity": 0.3858267716535433,
                    "duration": 1.875
                },
                {
                    "name": "F5",
                    "midi": 77,
                    "time": 570,
                    "velocity": 0.3858267716535433,
                    "duration": 0.15625
                },
                {
                    "name": "A5",
                    "midi": 81,
                    "time": 570.15625,
                    "velocity": 0.3858267716535433,
                    "duration": 0.15625
                },
                {
                    "name": "A5",
                    "midi": 81,
                    "time": 570.3125,
                    "velocity": 0.3858267716535433,
                    "duration": 0.15625
                },
                {
                    "name": "F5",
                    "midi": 77,
                    "time": 570.46875,
                    "velocity": 0.3858267716535433,
                    "duration": 0.15625
                },
                {
                    "name": "F5",
                    "midi": 77,
                    "time": 570.625,
                    "velocity": 0.3858267716535433,
                    "duration": 0.15625
                },
                {
                    "name": "A5",
                    "midi": 81,
                    "time": 570.78125,
                    "velocity": 0.3858267716535433,
                    "duration": 0.15625
                },
                {
                    "name": "A5",
                    "midi": 81,
                    "time": 570.9375,
                    "velocity": 0.3858267716535433,
                    "duration": 0.15625
                },
                {
                    "name": "F5",
                    "midi": 77,
                    "time": 571.09375,
                    "velocity": 0.3858267716535433,
                    "duration": 0.15625
                },
                {
                    "name": "F5",
                    "midi": 77,
                    "time": 571.25,
                    "velocity": 0.3858267716535433,
                    "duration": 0.15625
                },
                {
                    "name": "A5",
                    "midi": 81,
                    "time": 571.40625,
                    "velocity": 0.3858267716535433,
                    "duration": 0.15625
                },
                {
                    "name": "A5",
                    "midi": 81,
                    "time": 571.5625,
                    "velocity": 0.3858267716535433,
                    "duration": 0.15625
                },
                {
                    "name": "F5",
                    "midi": 77,
                    "time": 571.71875,
                    "velocity": 0.3858267716535433,
                    "duration": 0.15625
                },
                {
                    "name": "E5",
                    "midi": 76,
                    "time": 571.875,
                    "velocity": 0.3858267716535433,
                    "duration": 0.15625
                },
                {
                    "name": "G5",
                    "midi": 79,
                    "time": 572.03125,
                    "velocity": 0.3858267716535433,
                    "duration": 0.15625
                },
                {
                    "name": "G5",
                    "midi": 79,
                    "time": 572.1875,
                    "velocity": 0.3858267716535433,
                    "duration": 0.15625
                },
                {
                    "name": "E5",
                    "midi": 76,
                    "time": 572.34375,
                    "velocity": 0.3858267716535433,
                    "duration": 0.15625
                },
                {
                    "name": "E5",
                    "midi": 76,
                    "time": 572.5,
                    "velocity": 0.3858267716535433,
                    "duration": 0.15625
                },
                {
                    "name": "G5",
                    "midi": 79,
                    "time": 572.65625,
                    "velocity": 0.3858267716535433,
                    "duration": 0.15625
                },
                {
                    "name": "G5",
                    "midi": 79,
                    "time": 572.8125,
                    "velocity": 0.3858267716535433,
                    "duration": 0.15625
                },
                {
                    "name": "E5",
                    "midi": 76,
                    "time": 572.96875,
                    "velocity": 0.3858267716535433,
                    "duration": 0.15625
                },
                {
                    "name": "E5",
                    "midi": 76,
                    "time": 573.125,
                    "velocity": 0.3858267716535433,
                    "duration": 0.15625
                },
                {
                    "name": "G5",
                    "midi": 79,
                    "time": 573.28125,
                    "velocity": 0.3858267716535433,
                    "duration": 0.15625
                },
                {
                    "name": "G5",
                    "midi": 79,
                    "time": 573.4375,
                    "velocity": 0.3858267716535433,
                    "duration": 0.15625
                },
                {
                    "name": "E5",
                    "midi": 76,
                    "time": 573.59375,
                    "velocity": 0.3858267716535433,
                    "duration": 0.15625
                },
                {
                    "name": "F5",
                    "midi": 77,
                    "time": 573.75,
                    "velocity": 0.3858267716535433,
                    "duration": 0.15625
                },
                {
                    "name": "A5",
                    "midi": 81,
                    "time": 573.90625,
                    "velocity": 0.3858267716535433,
                    "duration": 0.15625
                },
                {
                    "name": "A5",
                    "midi": 81,
                    "time": 574.0625,
                    "velocity": 0.3858267716535433,
                    "duration": 0.15625
                },
                {
                    "name": "F5",
                    "midi": 77,
                    "time": 574.21875,
                    "velocity": 0.3858267716535433,
                    "duration": 0.15625
                },
                {
                    "name": "F5",
                    "midi": 77,
                    "time": 574.375,
                    "velocity": 0.3858267716535433,
                    "duration": 0.15625
                },
                {
                    "name": "A5",
                    "midi": 81,
                    "time": 574.53125,
                    "velocity": 0.3858267716535433,
                    "duration": 0.15625
                },
                {
                    "name": "A5",
                    "midi": 81,
                    "time": 574.6875,
                    "velocity": 0.3858267716535433,
                    "duration": 0.15625
                },
                {
                    "name": "F5",
                    "midi": 77,
                    "time": 574.84375,
                    "velocity": 0.3858267716535433,
                    "duration": 0.15625
                },
                {
                    "name": "F5",
                    "midi": 77,
                    "time": 575,
                    "velocity": 0.3858267716535433,
                    "duration": 0.15625
                },
                {
                    "name": "A#5",
                    "midi": 82,
                    "time": 575.15625,
                    "velocity": 0.3858267716535433,
                    "duration": 0.15625
                },
                {
                    "name": "A#5",
                    "midi": 82,
                    "time": 575.3125,
                    "velocity": 0.3858267716535433,
                    "duration": 0.15625
                },
                {
                    "name": "F5",
                    "midi": 77,
                    "time": 575.46875,
                    "velocity": 0.3858267716535433,
                    "duration": 0.15625
                },
                {
                    "name": "G5",
                    "midi": 79,
                    "time": 575.625,
                    "velocity": 0.3858267716535433,
                    "duration": 0.15625
                },
                {
                    "name": "A#5",
                    "midi": 82,
                    "time": 575.78125,
                    "velocity": 0.3858267716535433,
                    "duration": 0.15625
                },
                {
                    "name": "A#5",
                    "midi": 82,
                    "time": 575.9375,
                    "velocity": 0.3858267716535433,
                    "duration": 0.15625
                },
                {
                    "name": "G5",
                    "midi": 79,
                    "time": 576.09375,
                    "velocity": 0.3858267716535433,
                    "duration": 0.15625
                },
                {
                    "name": "G5",
                    "midi": 79,
                    "time": 576.25,
                    "velocity": 0.3858267716535433,
                    "duration": 0.15625
                },
                {
                    "name": "A#5",
                    "midi": 82,
                    "time": 576.40625,
                    "velocity": 0.3858267716535433,
                    "duration": 0.15625
                },
                {
                    "name": "A#5",
                    "midi": 82,
                    "time": 576.5625,
                    "velocity": 0.3858267716535433,
                    "duration": 0.15625
                },
                {
                    "name": "G5",
                    "midi": 79,
                    "time": 576.71875,
                    "velocity": 0.3858267716535433,
                    "duration": 0.15625
                },
                {
                    "name": "G5",
                    "midi": 79,
                    "time": 576.875,
                    "velocity": 0.3858267716535433,
                    "duration": 0.15625
                },
                {
                    "name": "A#5",
                    "midi": 82,
                    "time": 577.03125,
                    "velocity": 0.3858267716535433,
                    "duration": 0.15625
                },
                {
                    "name": "A#5",
                    "midi": 82,
                    "time": 577.1875,
                    "velocity": 0.3858267716535433,
                    "duration": 0.15625
                },
                {
                    "name": "G5",
                    "midi": 79,
                    "time": 577.34375,
                    "velocity": 0.3858267716535433,
                    "duration": 0.15625
                },
                {
                    "name": "A5",
                    "midi": 81,
                    "time": 577.5,
                    "velocity": 0.3858267716535433,
                    "duration": 0.15625
                },
                {
                    "name": "C6",
                    "midi": 84,
                    "time": 577.65625,
                    "velocity": 0.3858267716535433,
                    "duration": 0.15625
                },
                {
                    "name": "C6",
                    "midi": 84,
                    "time": 577.8125,
                    "velocity": 0.3858267716535433,
                    "duration": 0.15625
                },
                {
                    "name": "A5",
                    "midi": 81,
                    "time": 577.96875,
                    "velocity": 0.3858267716535433,
                    "duration": 0.15625
                },
                {
                    "name": "A5",
                    "midi": 81,
                    "time": 578.125,
                    "velocity": 0.3858267716535433,
                    "duration": 0.15625
                },
                {
                    "name": "C6",
                    "midi": 84,
                    "time": 578.28125,
                    "velocity": 0.3858267716535433,
                    "duration": 0.15625
                },
                {
                    "name": "C6",
                    "midi": 84,
                    "time": 578.4375,
                    "velocity": 0.3858267716535433,
                    "duration": 0.15625
                },
                {
                    "name": "A5",
                    "midi": 81,
                    "time": 578.59375,
                    "velocity": 0.3858267716535433,
                    "duration": 0.15625
                },
                {
                    "name": "A5",
                    "midi": 81,
                    "time": 578.75,
                    "velocity": 0.3858267716535433,
                    "duration": 0.15625
                },
                {
                    "name": "C6",
                    "midi": 84,
                    "time": 578.90625,
                    "velocity": 0.3858267716535433,
                    "duration": 0.15625
                },
                {
                    "name": "C6",
                    "midi": 84,
                    "time": 579.0625,
                    "velocity": 0.3858267716535433,
                    "duration": 0.15625
                },
                {
                    "name": "A5",
                    "midi": 81,
                    "time": 579.21875,
                    "velocity": 0.3858267716535433,
                    "duration": 0.15625
                },
                {
                    "name": "G5",
                    "midi": 79,
                    "time": 579.375,
                    "velocity": 0.3858267716535433,
                    "duration": 0.15625
                },
                {
                    "name": "A#5",
                    "midi": 82,
                    "time": 579.53125,
                    "velocity": 0.3858267716535433,
                    "duration": 0.15625
                },
                {
                    "name": "A#5",
                    "midi": 82,
                    "time": 579.6875,
                    "velocity": 0.3858267716535433,
                    "duration": 0.15625
                },
                {
                    "name": "G5",
                    "midi": 79,
                    "time": 579.84375,
                    "velocity": 0.3858267716535433,
                    "duration": 0.15625
                },
                {
                    "name": "G5",
                    "midi": 79,
                    "time": 580,
                    "velocity": 0.3858267716535433,
                    "duration": 0.15625
                },
                {
                    "name": "A#5",
                    "midi": 82,
                    "time": 580.15625,
                    "velocity": 0.3858267716535433,
                    "duration": 0.15625
                },
                {
                    "name": "A#5",
                    "midi": 82,
                    "time": 580.3125,
                    "velocity": 0.3858267716535433,
                    "duration": 0.15625
                },
                {
                    "name": "G5",
                    "midi": 79,
                    "time": 580.46875,
                    "velocity": 0.3858267716535433,
                    "duration": 0.15625
                },
                {
                    "name": "G5",
                    "midi": 79,
                    "time": 580.625,
                    "velocity": 0.3858267716535433,
                    "duration": 0.15625
                },
                {
                    "name": "A#5",
                    "midi": 82,
                    "time": 580.78125,
                    "velocity": 0.3858267716535433,
                    "duration": 0.15625
                },
                {
                    "name": "A#5",
                    "midi": 82,
                    "time": 580.9375,
                    "velocity": 0.3858267716535433,
                    "duration": 0.15625
                },
                {
                    "name": "G5",
                    "midi": 79,
                    "time": 581.09375,
                    "velocity": 0.3858267716535433,
                    "duration": 0.15625
                },
                {
                    "name": "F5",
                    "midi": 77,
                    "time": 581.25,
                    "velocity": 0.3858267716535433,
                    "duration": 0.15625
                },
                {
                    "name": "A5",
                    "midi": 81,
                    "time": 581.40625,
                    "velocity": 0.3858267716535433,
                    "duration": 0.15625
                },
                {
                    "name": "A5",
                    "midi": 81,
                    "time": 581.5625,
                    "velocity": 0.3858267716535433,
                    "duration": 0.15625
                },
                {
                    "name": "F5",
                    "midi": 77,
                    "time": 581.71875,
                    "velocity": 0.3858267716535433,
                    "duration": 0.15625
                },
                {
                    "name": "F5",
                    "midi": 77,
                    "time": 581.875,
                    "velocity": 0.3858267716535433,
                    "duration": 0.15625
                },
                {
                    "name": "A5",
                    "midi": 81,
                    "time": 582.03125,
                    "velocity": 0.3858267716535433,
                    "duration": 0.15625
                },
                {
                    "name": "A5",
                    "midi": 81,
                    "time": 582.1875,
                    "velocity": 0.3858267716535433,
                    "duration": 0.15625
                },
                {
                    "name": "F5",
                    "midi": 77,
                    "time": 582.34375,
                    "velocity": 0.3858267716535433,
                    "duration": 0.15625
                },
                {
                    "name": "F5",
                    "midi": 77,
                    "time": 582.5,
                    "velocity": 0.3858267716535433,
                    "duration": 0.15625
                },
                {
                    "name": "A5",
                    "midi": 81,
                    "time": 582.65625,
                    "velocity": 0.3858267716535433,
                    "duration": 0.15625
                },
                {
                    "name": "A5",
                    "midi": 81,
                    "time": 582.8125,
                    "velocity": 0.3858267716535433,
                    "duration": 0.15625
                },
                {
                    "name": "F5",
                    "midi": 77,
                    "time": 582.96875,
                    "velocity": 0.3858267716535433,
                    "duration": 0.15625
                },
                {
                    "name": "E5",
                    "midi": 76,
                    "time": 583.125,
                    "velocity": 0.3858267716535433,
                    "duration": 0.15625
                },
                {
                    "name": "G5",
                    "midi": 79,
                    "time": 583.28125,
                    "velocity": 0.3858267716535433,
                    "duration": 0.15625
                },
                {
                    "name": "G5",
                    "midi": 79,
                    "time": 583.4375,
                    "velocity": 0.3858267716535433,
                    "duration": 0.15625
                },
                {
                    "name": "E5",
                    "midi": 76,
                    "time": 583.59375,
                    "velocity": 0.3858267716535433,
                    "duration": 0.15625
                },
                {
                    "name": "E5",
                    "midi": 76,
                    "time": 583.75,
                    "velocity": 0.3858267716535433,
                    "duration": 0.15625
                },
                {
                    "name": "G5",
                    "midi": 79,
                    "time": 583.90625,
                    "velocity": 0.3858267716535433,
                    "duration": 0.15625
                },
                {
                    "name": "G5",
                    "midi": 79,
                    "time": 584.0625,
                    "velocity": 0.3858267716535433,
                    "duration": 0.15625
                },
                {
                    "name": "E5",
                    "midi": 76,
                    "time": 584.21875,
                    "velocity": 0.3858267716535433,
                    "duration": 0.15625
                },
                {
                    "name": "E5",
                    "midi": 76,
                    "time": 584.375,
                    "velocity": 0.3858267716535433,
                    "duration": 0.15625
                },
                {
                    "name": "G5",
                    "midi": 79,
                    "time": 584.53125,
                    "velocity": 0.3858267716535433,
                    "duration": 0.15625
                },
                {
                    "name": "G5",
                    "midi": 79,
                    "time": 584.6875,
                    "velocity": 0.3858267716535433,
                    "duration": 0.15625
                },
                {
                    "name": "E5",
                    "midi": 76,
                    "time": 584.84375,
                    "velocity": 0.3858267716535433,
                    "duration": 0.15625
                },
                {
                    "name": "F5",
                    "midi": 77,
                    "time": 585,
                    "velocity": 0.3858267716535433,
                    "duration": 0.15625
                },
                {
                    "name": "A5",
                    "midi": 81,
                    "time": 585.15625,
                    "velocity": 0.3858267716535433,
                    "duration": 0.15625
                },
                {
                    "name": "A5",
                    "midi": 81,
                    "time": 585.3125,
                    "velocity": 0.3858267716535433,
                    "duration": 0.15625
                },
                {
                    "name": "F5",
                    "midi": 77,
                    "time": 585.46875,
                    "velocity": 0.3858267716535433,
                    "duration": 0.15625
                },
                {
                    "name": "F5",
                    "midi": 77,
                    "time": 585.625,
                    "velocity": 0.3858267716535433,
                    "duration": 0.15625
                },
                {
                    "name": "A5",
                    "midi": 81,
                    "time": 585.78125,
                    "velocity": 0.3858267716535433,
                    "duration": 0.15625
                },
                {
                    "name": "A5",
                    "midi": 81,
                    "time": 585.9375,
                    "velocity": 0.3858267716535433,
                    "duration": 0.15625
                },
                {
                    "name": "F5",
                    "midi": 77,
                    "time": 586.09375,
                    "velocity": 0.3858267716535433,
                    "duration": 0.15625
                },
                {
                    "name": "F5",
                    "midi": 77,
                    "time": 586.25,
                    "velocity": 0.3858267716535433,
                    "duration": 0.15625
                },
                {
                    "name": "A5",
                    "midi": 81,
                    "time": 586.40625,
                    "velocity": 0.3858267716535433,
                    "duration": 0.15625
                },
                {
                    "name": "A5",
                    "midi": 81,
                    "time": 586.5625,
                    "velocity": 0.3858267716535433,
                    "duration": 0.15625
                },
                {
                    "name": "F5",
                    "midi": 77,
                    "time": 586.71875,
                    "velocity": 0.3858267716535433,
                    "duration": 0.15625
                },
                {
                    "name": "E5",
                    "midi": 76,
                    "time": 586.875,
                    "velocity": 0.3858267716535433,
                    "duration": 0.15625
                },
                {
                    "name": "G5",
                    "midi": 79,
                    "time": 587.03125,
                    "velocity": 0.3858267716535433,
                    "duration": 0.15625
                },
                {
                    "name": "G5",
                    "midi": 79,
                    "time": 587.1875,
                    "velocity": 0.3858267716535433,
                    "duration": 0.15625
                },
                {
                    "name": "E5",
                    "midi": 76,
                    "time": 587.34375,
                    "velocity": 0.3858267716535433,
                    "duration": 0.15625
                },
                {
                    "name": "E5",
                    "midi": 76,
                    "time": 587.5,
                    "velocity": 0.3858267716535433,
                    "duration": 0.15625
                },
                {
                    "name": "G5",
                    "midi": 79,
                    "time": 587.65625,
                    "velocity": 0.3858267716535433,
                    "duration": 0.15625
                },
                {
                    "name": "G5",
                    "midi": 79,
                    "time": 587.8125,
                    "velocity": 0.3858267716535433,
                    "duration": 0.15625
                },
                {
                    "name": "E5",
                    "midi": 76,
                    "time": 587.96875,
                    "velocity": 0.3858267716535433,
                    "duration": 0.15625
                },
                {
                    "name": "E5",
                    "midi": 76,
                    "time": 588.125,
                    "velocity": 0.3858267716535433,
                    "duration": 0.15625
                },
                {
                    "name": "G5",
                    "midi": 79,
                    "time": 588.28125,
                    "velocity": 0.3858267716535433,
                    "duration": 0.15625
                },
                {
                    "name": "G5",
                    "midi": 79,
                    "time": 588.4375,
                    "velocity": 0.3858267716535433,
                    "duration": 0.15625
                },
                {
                    "name": "E5",
                    "midi": 76,
                    "time": 588.59375,
                    "velocity": 0.3858267716535433,
                    "duration": 0.15625
                },
                {
                    "name": "F5",
                    "midi": 77,
                    "time": 588.75,
                    "velocity": 0.3858267716535433,
                    "duration": 0.15625
                },
                {
                    "name": "A5",
                    "midi": 81,
                    "time": 588.90625,
                    "velocity": 0.3858267716535433,
                    "duration": 0.15625
                },
                {
                    "name": "A5",
                    "midi": 81,
                    "time": 589.0625,
                    "velocity": 0.3858267716535433,
                    "duration": 0.15625
                },
                {
                    "name": "F5",
                    "midi": 77,
                    "time": 589.21875,
                    "velocity": 0.3858267716535433,
                    "duration": 0.15625
                },
                {
                    "name": "F5",
                    "midi": 77,
                    "time": 589.375,
                    "velocity": 0.3858267716535433,
                    "duration": 0.15625
                },
                {
                    "name": "A5",
                    "midi": 81,
                    "time": 589.53125,
                    "velocity": 0.3858267716535433,
                    "duration": 0.15625
                },
                {
                    "name": "A5",
                    "midi": 81,
                    "time": 589.6875,
                    "velocity": 0.3858267716535433,
                    "duration": 0.15625
                },
                {
                    "name": "F5",
                    "midi": 77,
                    "time": 589.84375,
                    "velocity": 0.3858267716535433,
                    "duration": 0.15625
                },
                {
                    "name": "F5",
                    "midi": 77,
                    "time": 590,
                    "velocity": 0.3858267716535433,
                    "duration": 0.15625
                },
                {
                    "name": "A#5",
                    "midi": 82,
                    "time": 590.15625,
                    "velocity": 0.3858267716535433,
                    "duration": 0.15625
                },
                {
                    "name": "A#5",
                    "midi": 82,
                    "time": 590.3125,
                    "velocity": 0.3858267716535433,
                    "duration": 0.15625
                },
                {
                    "name": "F5",
                    "midi": 77,
                    "time": 590.46875,
                    "velocity": 0.3858267716535433,
                    "duration": 0.15625
                },
                {
                    "name": "G5",
                    "midi": 79,
                    "time": 590.625,
                    "velocity": 0.3858267716535433,
                    "duration": 0.15625
                },
                {
                    "name": "A#5",
                    "midi": 82,
                    "time": 590.78125,
                    "velocity": 0.3858267716535433,
                    "duration": 0.15625
                },
                {
                    "name": "A#5",
                    "midi": 82,
                    "time": 590.9375,
                    "velocity": 0.3858267716535433,
                    "duration": 0.15625
                },
                {
                    "name": "G5",
                    "midi": 79,
                    "time": 591.09375,
                    "velocity": 0.3858267716535433,
                    "duration": 0.15625
                },
                {
                    "name": "G5",
                    "midi": 79,
                    "time": 591.25,
                    "velocity": 0.3858267716535433,
                    "duration": 0.15625
                },
                {
                    "name": "A#5",
                    "midi": 82,
                    "time": 591.40625,
                    "velocity": 0.3858267716535433,
                    "duration": 0.15625
                },
                {
                    "name": "A#5",
                    "midi": 82,
                    "time": 591.5625,
                    "velocity": 0.3858267716535433,
                    "duration": 0.15625
                },
                {
                    "name": "G5",
                    "midi": 79,
                    "time": 591.71875,
                    "velocity": 0.3858267716535433,
                    "duration": 0.15625
                },
                {
                    "name": "G5",
                    "midi": 79,
                    "time": 591.875,
                    "velocity": 0.3858267716535433,
                    "duration": 0.15625
                },
                {
                    "name": "A#5",
                    "midi": 82,
                    "time": 592.03125,
                    "velocity": 0.3858267716535433,
                    "duration": 0.15625
                },
                {
                    "name": "A#5",
                    "midi": 82,
                    "time": 592.1875,
                    "velocity": 0.3858267716535433,
                    "duration": 0.15625
                },
                {
                    "name": "G5",
                    "midi": 79,
                    "time": 592.34375,
                    "velocity": 0.3858267716535433,
                    "duration": 0.15625
                },
                {
                    "name": "A5",
                    "midi": 81,
                    "time": 592.5,
                    "velocity": 0.3858267716535433,
                    "duration": 0.15625
                },
                {
                    "name": "C6",
                    "midi": 84,
                    "time": 592.65625,
                    "velocity": 0.3858267716535433,
                    "duration": 0.15625
                },
                {
                    "name": "C6",
                    "midi": 84,
                    "time": 592.8125,
                    "velocity": 0.3858267716535433,
                    "duration": 0.15625
                },
                {
                    "name": "A5",
                    "midi": 81,
                    "time": 592.96875,
                    "velocity": 0.3858267716535433,
                    "duration": 0.15625
                },
                {
                    "name": "A5",
                    "midi": 81,
                    "time": 593.125,
                    "velocity": 0.3858267716535433,
                    "duration": 0.15625
                },
                {
                    "name": "C6",
                    "midi": 84,
                    "time": 593.28125,
                    "velocity": 0.3858267716535433,
                    "duration": 0.15625
                },
                {
                    "name": "C6",
                    "midi": 84,
                    "time": 593.4375,
                    "velocity": 0.3858267716535433,
                    "duration": 0.15625
                },
                {
                    "name": "A5",
                    "midi": 81,
                    "time": 593.59375,
                    "velocity": 0.3858267716535433,
                    "duration": 0.15625
                },
                {
                    "name": "A5",
                    "midi": 81,
                    "time": 593.75,
                    "velocity": 0.3858267716535433,
                    "duration": 0.15625
                },
                {
                    "name": "C6",
                    "midi": 84,
                    "time": 593.90625,
                    "velocity": 0.3858267716535433,
                    "duration": 0.15625
                },
                {
                    "name": "C6",
                    "midi": 84,
                    "time": 594.0625,
                    "velocity": 0.3858267716535433,
                    "duration": 0.15625
                },
                {
                    "name": "A5",
                    "midi": 81,
                    "time": 594.21875,
                    "velocity": 0.3858267716535433,
                    "duration": 0.15625
                },
                {
                    "name": "G5",
                    "midi": 79,
                    "time": 594.375,
                    "velocity": 0.3858267716535433,
                    "duration": 0.15625
                },
                {
                    "name": "A#5",
                    "midi": 82,
                    "time": 594.53125,
                    "velocity": 0.3858267716535433,
                    "duration": 0.15625
                },
                {
                    "name": "A#5",
                    "midi": 82,
                    "time": 594.6875,
                    "velocity": 0.3858267716535433,
                    "duration": 0.15625
                },
                {
                    "name": "G5",
                    "midi": 79,
                    "time": 594.84375,
                    "velocity": 0.3858267716535433,
                    "duration": 0.15625
                },
                {
                    "name": "G5",
                    "midi": 79,
                    "time": 595,
                    "velocity": 0.3858267716535433,
                    "duration": 0.15625
                },
                {
                    "name": "A#5",
                    "midi": 82,
                    "time": 595.15625,
                    "velocity": 0.3858267716535433,
                    "duration": 0.15625
                },
                {
                    "name": "A#5",
                    "midi": 82,
                    "time": 595.3125,
                    "velocity": 0.3858267716535433,
                    "duration": 0.15625
                },
                {
                    "name": "G5",
                    "midi": 79,
                    "time": 595.46875,
                    "velocity": 0.3858267716535433,
                    "duration": 0.15625
                },
                {
                    "name": "G5",
                    "midi": 79,
                    "time": 595.625,
                    "velocity": 0.3858267716535433,
                    "duration": 0.15625
                },
                {
                    "name": "A#5",
                    "midi": 82,
                    "time": 595.78125,
                    "velocity": 0.3858267716535433,
                    "duration": 0.15625
                },
                {
                    "name": "A#5",
                    "midi": 82,
                    "time": 595.9375,
                    "velocity": 0.3858267716535433,
                    "duration": 0.15625
                },
                {
                    "name": "G5",
                    "midi": 79,
                    "time": 596.09375,
                    "velocity": 0.3858267716535433,
                    "duration": 0.15625
                },
                {
                    "name": "F5",
                    "midi": 77,
                    "time": 596.25,
                    "velocity": 0.3858267716535433,
                    "duration": 0.15625
                },
                {
                    "name": "D6",
                    "midi": 86,
                    "time": 596.40625,
                    "velocity": 0.3858267716535433,
                    "duration": 0.15625
                },
                {
                    "name": "F5",
                    "midi": 77,
                    "time": 596.5625,
                    "velocity": 0.3858267716535433,
                    "duration": 0.15625
                },
                {
                    "name": "D6",
                    "midi": 86,
                    "time": 596.71875,
                    "velocity": 0.3858267716535433,
                    "duration": 0.15625
                },
                {
                    "name": "E5",
                    "midi": 76,
                    "time": 596.875,
                    "velocity": 0.3858267716535433,
                    "duration": 0.15625
                },
                {
                    "name": "D6",
                    "midi": 86,
                    "time": 597.03125,
                    "velocity": 0.3858267716535433,
                    "duration": 0.15625
                },
                {
                    "name": "E5",
                    "midi": 76,
                    "time": 597.1875,
                    "velocity": 0.3858267716535433,
                    "duration": 0.15625
                },
                {
                    "name": "D6",
                    "midi": 86,
                    "time": 597.34375,
                    "velocity": 0.3858267716535433,
                    "duration": 0.15625
                },
                {
                    "name": "E5",
                    "midi": 76,
                    "time": 597.5,
                    "velocity": 0.3858267716535433,
                    "duration": 0.15625
                },
                {
                    "name": "C#6",
                    "midi": 85,
                    "time": 597.65625,
                    "velocity": 0.3858267716535433,
                    "duration": 0.15625
                },
                {
                    "name": "E5",
                    "midi": 76,
                    "time": 597.8125,
                    "velocity": 0.3858267716535433,
                    "duration": 0.15625
                },
                {
                    "name": "C#6",
                    "midi": 85,
                    "time": 597.96875,
                    "velocity": 0.3858267716535433,
                    "duration": 0.15625
                },
                {
                    "name": "D6",
                    "midi": 86,
                    "time": 598.125,
                    "velocity": 0.3858267716535433,
                    "duration": 1.875
                },
                {
                    "name": "F5",
                    "midi": 77,
                    "time": 600,
                    "velocity": 0.3858267716535433,
                    "duration": 0.625
                },
                {
                    "name": "F4",
                    "midi": 65,
                    "time": 600.625,
                    "velocity": 0.3858267716535433,
                    "duration": 0.625
                },
                {
                    "name": "F5",
                    "midi": 77,
                    "time": 601.25,
                    "velocity": 0.3858267716535433,
                    "duration": 0.625
                },
                {
                    "name": "E5",
                    "midi": 76,
                    "time": 601.875,
                    "velocity": 0.3858267716535433,
                    "duration": 0.15625
                },
                {
                    "name": "G5",
                    "midi": 79,
                    "time": 602.03125,
                    "velocity": 0.3858267716535433,
                    "duration": 0.15625
                },
                {
                    "name": "G5",
                    "midi": 79,
                    "time": 602.1875,
                    "velocity": 0.3858267716535433,
                    "duration": 0.15625
                },
                {
                    "name": "E5",
                    "midi": 76,
                    "time": 602.34375,
                    "velocity": 0.3858267716535433,
                    "duration": 0.15625
                },
                {
                    "name": "E5",
                    "midi": 76,
                    "time": 602.5,
                    "velocity": 0.3858267716535433,
                    "duration": 0.15625
                },
                {
                    "name": "G5",
                    "midi": 79,
                    "time": 602.65625,
                    "velocity": 0.3858267716535433,
                    "duration": 0.15625
                },
                {
                    "name": "G5",
                    "midi": 79,
                    "time": 602.8125,
                    "velocity": 0.3858267716535433,
                    "duration": 0.15625
                },
                {
                    "name": "E5",
                    "midi": 76,
                    "time": 602.96875,
                    "velocity": 0.3858267716535433,
                    "duration": 0.15625
                },
                {
                    "name": "E5",
                    "midi": 76,
                    "time": 603.125,
                    "velocity": 0.3858267716535433,
                    "duration": 0.15625
                },
                {
                    "name": "G5",
                    "midi": 79,
                    "time": 603.28125,
                    "velocity": 0.3858267716535433,
                    "duration": 0.15625
                },
                {
                    "name": "G5",
                    "midi": 79,
                    "time": 603.4375,
                    "velocity": 0.3858267716535433,
                    "duration": 0.15625
                },
                {
                    "name": "E5",
                    "midi": 76,
                    "time": 603.59375,
                    "velocity": 0.3858267716535433,
                    "duration": 0.15625
                },
                {
                    "name": "F5",
                    "midi": 77,
                    "time": 603.75,
                    "velocity": 0.3858267716535433,
                    "duration": 0.625
                },
                {
                    "name": "F4",
                    "midi": 65,
                    "time": 604.375,
                    "velocity": 0.3858267716535433,
                    "duration": 0.625
                },
                {
                    "name": "F5",
                    "midi": 77,
                    "time": 605,
                    "velocity": 0.3858267716535433,
                    "duration": 0.625
                },
                {
                    "name": "G5",
                    "midi": 79,
                    "time": 605.625,
                    "velocity": 0.3858267716535433,
                    "duration": 0.15625
                },
                {
                    "name": "A#5",
                    "midi": 82,
                    "time": 605.78125,
                    "velocity": 0.3858267716535433,
                    "duration": 0.15625
                },
                {
                    "name": "A#5",
                    "midi": 82,
                    "time": 605.9375,
                    "velocity": 0.3858267716535433,
                    "duration": 0.15625
                },
                {
                    "name": "G5",
                    "midi": 79,
                    "time": 606.09375,
                    "velocity": 0.3858267716535433,
                    "duration": 0.15625
                },
                {
                    "name": "G5",
                    "midi": 79,
                    "time": 606.25,
                    "velocity": 0.3858267716535433,
                    "duration": 0.15625
                },
                {
                    "name": "A#5",
                    "midi": 82,
                    "time": 606.40625,
                    "velocity": 0.3858267716535433,
                    "duration": 0.15625
                },
                {
                    "name": "A#5",
                    "midi": 82,
                    "time": 606.5625,
                    "velocity": 0.3858267716535433,
                    "duration": 0.15625
                },
                {
                    "name": "G5",
                    "midi": 79,
                    "time": 606.71875,
                    "velocity": 0.3858267716535433,
                    "duration": 0.15625
                },
                {
                    "name": "G5",
                    "midi": 79,
                    "time": 606.875,
                    "velocity": 0.3858267716535433,
                    "duration": 0.15625
                },
                {
                    "name": "A#5",
                    "midi": 82,
                    "time": 607.03125,
                    "velocity": 0.3858267716535433,
                    "duration": 0.15625
                },
                {
                    "name": "A#5",
                    "midi": 82,
                    "time": 607.1875,
                    "velocity": 0.3858267716535433,
                    "duration": 0.15625
                },
                {
                    "name": "G5",
                    "midi": 79,
                    "time": 607.34375,
                    "velocity": 0.3858267716535433,
                    "duration": 0.15625
                },
                {
                    "name": "A5",
                    "midi": 81,
                    "time": 607.5,
                    "velocity": 0.3858267716535433,
                    "duration": 0.625
                },
                {
                    "name": "A4",
                    "midi": 69,
                    "time": 608.125,
                    "velocity": 0.3858267716535433,
                    "duration": 0.625
                },
                {
                    "name": "A5",
                    "midi": 81,
                    "time": 608.75,
                    "velocity": 0.3858267716535433,
                    "duration": 0.625
                },
                {
                    "name": "G5",
                    "midi": 79,
                    "time": 609.375,
                    "velocity": 0.3858267716535433,
                    "duration": 0.15625
                },
                {
                    "name": "A#5",
                    "midi": 82,
                    "time": 609.53125,
                    "velocity": 0.3858267716535433,
                    "duration": 0.15625
                },
                {
                    "name": "A#5",
                    "midi": 82,
                    "time": 609.6875,
                    "velocity": 0.3858267716535433,
                    "duration": 0.15625
                },
                {
                    "name": "G5",
                    "midi": 79,
                    "time": 609.84375,
                    "velocity": 0.3858267716535433,
                    "duration": 0.15625
                },
                {
                    "name": "G5",
                    "midi": 79,
                    "time": 610,
                    "velocity": 0.3858267716535433,
                    "duration": 0.15625
                },
                {
                    "name": "A#5",
                    "midi": 82,
                    "time": 610.15625,
                    "velocity": 0.3858267716535433,
                    "duration": 0.15625
                },
                {
                    "name": "A#5",
                    "midi": 82,
                    "time": 610.3125,
                    "velocity": 0.3858267716535433,
                    "duration": 0.15625
                },
                {
                    "name": "G5",
                    "midi": 79,
                    "time": 610.46875,
                    "velocity": 0.3858267716535433,
                    "duration": 0.15625
                },
                {
                    "name": "G5",
                    "midi": 79,
                    "time": 610.625,
                    "velocity": 0.3858267716535433,
                    "duration": 0.15625
                },
                {
                    "name": "A#5",
                    "midi": 82,
                    "time": 610.78125,
                    "velocity": 0.3858267716535433,
                    "duration": 0.15625
                },
                {
                    "name": "A#5",
                    "midi": 82,
                    "time": 610.9375,
                    "velocity": 0.3858267716535433,
                    "duration": 0.15625
                },
                {
                    "name": "G5",
                    "midi": 79,
                    "time": 611.09375,
                    "velocity": 0.3858267716535433,
                    "duration": 0.15625
                },
                {
                    "name": "F5",
                    "midi": 77,
                    "time": 611.25,
                    "velocity": 0.3858267716535433,
                    "duration": 0.625
                },
                {
                    "name": "F4",
                    "midi": 65,
                    "time": 611.875,
                    "velocity": 0.3858267716535433,
                    "duration": 0.625
                },
                {
                    "name": "F5",
                    "midi": 77,
                    "time": 612.5,
                    "velocity": 0.3858267716535433,
                    "duration": 0.625
                },
                {
                    "name": "E5",
                    "midi": 76,
                    "time": 613.125,
                    "velocity": 0.3858267716535433,
                    "duration": 0.15625
                },
                {
                    "name": "G5",
                    "midi": 79,
                    "time": 613.28125,
                    "velocity": 0.3858267716535433,
                    "duration": 0.15625
                },
                {
                    "name": "G5",
                    "midi": 79,
                    "time": 613.4375,
                    "velocity": 0.3858267716535433,
                    "duration": 0.15625
                },
                {
                    "name": "E5",
                    "midi": 76,
                    "time": 613.59375,
                    "velocity": 0.3858267716535433,
                    "duration": 0.15625
                },
                {
                    "name": "E5",
                    "midi": 76,
                    "time": 613.75,
                    "velocity": 0.3858267716535433,
                    "duration": 0.15625
                },
                {
                    "name": "G5",
                    "midi": 79,
                    "time": 613.90625,
                    "velocity": 0.3858267716535433,
                    "duration": 0.15625
                },
                {
                    "name": "G5",
                    "midi": 79,
                    "time": 614.0625,
                    "velocity": 0.3858267716535433,
                    "duration": 0.15625
                },
                {
                    "name": "E5",
                    "midi": 76,
                    "time": 614.21875,
                    "velocity": 0.3858267716535433,
                    "duration": 0.15625
                },
                {
                    "name": "E5",
                    "midi": 76,
                    "time": 614.375,
                    "velocity": 0.3858267716535433,
                    "duration": 0.15625
                },
                {
                    "name": "G5",
                    "midi": 79,
                    "time": 614.53125,
                    "velocity": 0.3858267716535433,
                    "duration": 0.15625
                },
                {
                    "name": "G5",
                    "midi": 79,
                    "time": 614.6875,
                    "velocity": 0.3858267716535433,
                    "duration": 0.15625
                },
                {
                    "name": "E5",
                    "midi": 76,
                    "time": 614.84375,
                    "velocity": 0.3858267716535433,
                    "duration": 0.15625
                },
                {
                    "name": "F5",
                    "midi": 77,
                    "time": 615,
                    "velocity": 0.3858267716535433,
                    "duration": 0.625
                },
                {
                    "name": "F4",
                    "midi": 65,
                    "time": 615.625,
                    "velocity": 0.3858267716535433,
                    "duration": 0.625
                },
                {
                    "name": "F5",
                    "midi": 77,
                    "time": 616.25,
                    "velocity": 0.3858267716535433,
                    "duration": 0.625
                },
                {
                    "name": "E5",
                    "midi": 76,
                    "time": 616.875,
                    "velocity": 0.3858267716535433,
                    "duration": 0.15625
                },
                {
                    "name": "G5",
                    "midi": 79,
                    "time": 617.03125,
                    "velocity": 0.3858267716535433,
                    "duration": 0.15625
                },
                {
                    "name": "G5",
                    "midi": 79,
                    "time": 617.1875,
                    "velocity": 0.3858267716535433,
                    "duration": 0.15625
                },
                {
                    "name": "E5",
                    "midi": 76,
                    "time": 617.34375,
                    "velocity": 0.3858267716535433,
                    "duration": 0.15625
                },
                {
                    "name": "E5",
                    "midi": 76,
                    "time": 617.5,
                    "velocity": 0.3858267716535433,
                    "duration": 0.15625
                },
                {
                    "name": "G5",
                    "midi": 79,
                    "time": 617.65625,
                    "velocity": 0.3858267716535433,
                    "duration": 0.15625
                },
                {
                    "name": "G5",
                    "midi": 79,
                    "time": 617.8125,
                    "velocity": 0.3858267716535433,
                    "duration": 0.15625
                },
                {
                    "name": "E5",
                    "midi": 76,
                    "time": 617.96875,
                    "velocity": 0.3858267716535433,
                    "duration": 0.15625
                },
                {
                    "name": "E5",
                    "midi": 76,
                    "time": 618.125,
                    "velocity": 0.3858267716535433,
                    "duration": 0.15625
                },
                {
                    "name": "G5",
                    "midi": 79,
                    "time": 618.28125,
                    "velocity": 0.3858267716535433,
                    "duration": 0.15625
                },
                {
                    "name": "G5",
                    "midi": 79,
                    "time": 618.4375,
                    "velocity": 0.3858267716535433,
                    "duration": 0.15625
                },
                {
                    "name": "E5",
                    "midi": 76,
                    "time": 618.59375,
                    "velocity": 0.3858267716535433,
                    "duration": 0.15625
                },
                {
                    "name": "F5",
                    "midi": 77,
                    "time": 618.75,
                    "velocity": 0.3858267716535433,
                    "duration": 0.625
                },
                {
                    "name": "F4",
                    "midi": 65,
                    "time": 619.375,
                    "velocity": 0.3858267716535433,
                    "duration": 0.625
                },
                {
                    "name": "F5",
                    "midi": 77,
                    "time": 620,
                    "velocity": 0.3858267716535433,
                    "duration": 0.625
                },
                {
                    "name": "G5",
                    "midi": 79,
                    "time": 620.625,
                    "velocity": 0.3858267716535433,
                    "duration": 0.15625
                },
                {
                    "name": "A#5",
                    "midi": 82,
                    "time": 620.78125,
                    "velocity": 0.3858267716535433,
                    "duration": 0.15625
                },
                {
                    "name": "A#5",
                    "midi": 82,
                    "time": 620.9375,
                    "velocity": 0.3858267716535433,
                    "duration": 0.15625
                },
                {
                    "name": "G5",
                    "midi": 79,
                    "time": 621.09375,
                    "velocity": 0.3858267716535433,
                    "duration": 0.15625
                },
                {
                    "name": "G5",
                    "midi": 79,
                    "time": 621.25,
                    "velocity": 0.3858267716535433,
                    "duration": 0.15625
                },
                {
                    "name": "A#5",
                    "midi": 82,
                    "time": 621.40625,
                    "velocity": 0.3858267716535433,
                    "duration": 0.15625
                },
                {
                    "name": "A#5",
                    "midi": 82,
                    "time": 621.5625,
                    "velocity": 0.3858267716535433,
                    "duration": 0.15625
                },
                {
                    "name": "G5",
                    "midi": 79,
                    "time": 621.71875,
                    "velocity": 0.3858267716535433,
                    "duration": 0.15625
                },
                {
                    "name": "G5",
                    "midi": 79,
                    "time": 621.875,
                    "velocity": 0.3858267716535433,
                    "duration": 0.15625
                },
                {
                    "name": "A#5",
                    "midi": 82,
                    "time": 622.03125,
                    "velocity": 0.3858267716535433,
                    "duration": 0.15625
                },
                {
                    "name": "A#5",
                    "midi": 82,
                    "time": 622.1875,
                    "velocity": 0.3858267716535433,
                    "duration": 0.15625
                },
                {
                    "name": "G5",
                    "midi": 79,
                    "time": 622.34375,
                    "velocity": 0.3858267716535433,
                    "duration": 0.15625
                },
                {
                    "name": "A5",
                    "midi": 81,
                    "time": 622.5,
                    "velocity": 0.3858267716535433,
                    "duration": 0.625
                },
                {
                    "name": "A4",
                    "midi": 69,
                    "time": 623.125,
                    "velocity": 0.3858267716535433,
                    "duration": 0.625
                },
                {
                    "name": "A5",
                    "midi": 81,
                    "time": 623.75,
                    "velocity": 0.3858267716535433,
                    "duration": 0.625
                },
                {
                    "name": "G5",
                    "midi": 79,
                    "time": 624.375,
                    "velocity": 0.3858267716535433,
                    "duration": 0.15625
                },
                {
                    "name": "A#5",
                    "midi": 82,
                    "time": 624.53125,
                    "velocity": 0.3858267716535433,
                    "duration": 0.15625
                },
                {
                    "name": "A#5",
                    "midi": 82,
                    "time": 624.6875,
                    "velocity": 0.3858267716535433,
                    "duration": 0.15625
                },
                {
                    "name": "G5",
                    "midi": 79,
                    "time": 624.84375,
                    "velocity": 0.3858267716535433,
                    "duration": 0.15625
                },
                {
                    "name": "G5",
                    "midi": 79,
                    "time": 625,
                    "velocity": 0.3858267716535433,
                    "duration": 0.15625
                },
                {
                    "name": "A#5",
                    "midi": 82,
                    "time": 625.15625,
                    "velocity": 0.3858267716535433,
                    "duration": 0.15625
                },
                {
                    "name": "A#5",
                    "midi": 82,
                    "time": 625.3125,
                    "velocity": 0.3858267716535433,
                    "duration": 0.15625
                },
                {
                    "name": "G5",
                    "midi": 79,
                    "time": 625.46875,
                    "velocity": 0.3858267716535433,
                    "duration": 0.15625
                },
                {
                    "name": "G5",
                    "midi": 79,
                    "time": 625.625,
                    "velocity": 0.3858267716535433,
                    "duration": 0.15625
                },
                {
                    "name": "A#5",
                    "midi": 82,
                    "time": 625.78125,
                    "velocity": 0.3858267716535433,
                    "duration": 0.15625
                },
                {
                    "name": "A#5",
                    "midi": 82,
                    "time": 625.9375,
                    "velocity": 0.3858267716535433,
                    "duration": 0.15625
                },
                {
                    "name": "G5",
                    "midi": 79,
                    "time": 626.09375,
                    "velocity": 0.3858267716535433,
                    "duration": 0.15625
                },
                {
                    "name": "F5",
                    "midi": 77,
                    "time": 626.25,
                    "velocity": 0.3858267716535433,
                    "duration": 0.15625
                },
                {
                    "name": "D6",
                    "midi": 86,
                    "time": 626.40625,
                    "velocity": 0.3858267716535433,
                    "duration": 0.15625
                },
                {
                    "name": "F5",
                    "midi": 77,
                    "time": 626.5625,
                    "velocity": 0.3858267716535433,
                    "duration": 0.15625
                },
                {
                    "name": "D6",
                    "midi": 86,
                    "time": 626.71875,
                    "velocity": 0.3858267716535433,
                    "duration": 0.15625
                },
                {
                    "name": "E5",
                    "midi": 76,
                    "time": 626.875,
                    "velocity": 0.3858267716535433,
                    "duration": 0.15625
                },
                {
                    "name": "D6",
                    "midi": 86,
                    "time": 627.03125,
                    "velocity": 0.3858267716535433,
                    "duration": 0.15625
                },
                {
                    "name": "E5",
                    "midi": 76,
                    "time": 627.1875,
                    "velocity": 0.3858267716535433,
                    "duration": 0.15625
                },
                {
                    "name": "D6",
                    "midi": 86,
                    "time": 627.34375,
                    "velocity": 0.3858267716535433,
                    "duration": 0.15625
                },
                {
                    "name": "E5",
                    "midi": 76,
                    "time": 627.5,
                    "velocity": 0.3858267716535433,
                    "duration": 0.15625
                },
                {
                    "name": "C#6",
                    "midi": 85,
                    "time": 627.65625,
                    "velocity": 0.3858267716535433,
                    "duration": 0.15625
                },
                {
                    "name": "E5",
                    "midi": 76,
                    "time": 627.8125,
                    "velocity": 0.3858267716535433,
                    "duration": 0.15625
                },
                {
                    "name": "C#6",
                    "midi": 85,
                    "time": 627.96875,
                    "velocity": 0.3858267716535433,
                    "duration": 0.15625
                },
                {
                    "name": "D6",
                    "midi": 86,
                    "time": 628.125,
                    "velocity": 0.3858267716535433,
                    "duration": 1.875
                },
                {
                    "name": "F5",
                    "midi": 77,
                    "time": 630,
                    "velocity": 0.3858267716535433,
                    "duration": 0.625
                },
                {
                    "name": "F5",
                    "midi": 77,
                    "time": 630.625,
                    "velocity": 0.3858267716535433,
                    "duration": 0.9375
                },
                {
                    "name": "F5",
                    "midi": 77,
                    "time": 631.5625,
                    "velocity": 0.3858267716535433,
                    "duration": 0.3125
                },
                {
                    "name": "E5",
                    "midi": 76,
                    "time": 631.875,
                    "velocity": 0.3858267716535433,
                    "duration": 0.625
                },
                {
                    "name": "E5",
                    "midi": 76,
                    "time": 632.5,
                    "velocity": 0.3858267716535433,
                    "duration": 0.9375
                },
                {
                    "name": "E5",
                    "midi": 76,
                    "time": 633.4375,
                    "velocity": 0.3858267716535433,
                    "duration": 0.3125
                },
                {
                    "name": "E5",
                    "midi": 76,
                    "time": 633.75,
                    "velocity": 0.3858267716535433,
                    "duration": 0.625
                },
                {
                    "name": "E5",
                    "midi": 76,
                    "time": 634.375,
                    "velocity": 0.3858267716535433,
                    "duration": 0.9375
                },
                {
                    "name": "E5",
                    "midi": 76,
                    "time": 635.3125,
                    "velocity": 0.3858267716535433,
                    "duration": 0.3125
                },
                {
                    "name": "D5",
                    "midi": 74,
                    "time": 635.625,
                    "velocity": 0.3858267716535433,
                    "duration": 0.625
                },
                {
                    "name": "F4",
                    "midi": 65,
                    "time": 637.5,
                    "velocity": 0.3858267716535433,
                    "duration": 0.625
                },
                {
                    "name": "F4",
                    "midi": 65,
                    "time": 638.125,
                    "velocity": 0.3858267716535433,
                    "duration": 0.9375
                },
                {
                    "name": "F4",
                    "midi": 65,
                    "time": 639.0625,
                    "velocity": 0.3858267716535433,
                    "duration": 0.3125
                },
                {
                    "name": "E4",
                    "midi": 64,
                    "time": 639.375,
                    "velocity": 0.3858267716535433,
                    "duration": 0.625
                },
                {
                    "name": "E4",
                    "midi": 64,
                    "time": 640,
                    "velocity": 0.3858267716535433,
                    "duration": 0.9375
                },
                {
                    "name": "E4",
                    "midi": 64,
                    "time": 640.9375,
                    "velocity": 0.3858267716535433,
                    "duration": 0.3125
                },
                {
                    "name": "E4",
                    "midi": 64,
                    "time": 641.25,
                    "velocity": 0.3858267716535433,
                    "duration": 0.625
                },
                {
                    "name": "E4",
                    "midi": 64,
                    "time": 641.875,
                    "velocity": 0.3858267716535433,
                    "duration": 0.9375
                },
                {
                    "name": "E4",
                    "midi": 64,
                    "time": 642.8125,
                    "velocity": 0.3858267716535433,
                    "duration": 0.3125
                },
                {
                    "name": "D4",
                    "midi": 62,
                    "time": 643.125,
                    "velocity": 0.3858267716535433,
                    "duration": 1.875
                }
            ],
            "controlChanges": {},
            "id": 1,
            "name": "Instrument14",
            "instrumentNumber": 40,
            "instrument": "violin",
            "instrumentFamily": "strings",
            "channelNumber": 0,
            "isPercussion": false
        },
        {
            "startTime": 0,
            "duration": 645,
            "length": 1430,
            "notes": [
                {
                    "name": "F4",
                    "midi": 65,
                    "time": 0,
                    "velocity": 0.5039370078740157,
                    "duration": 0.625
                },
                {
                    "name": "F4",
                    "midi": 65,
                    "time": 0.625,
                    "velocity": 0.5039370078740157,
                    "duration": 0.9375
                },
                {
                    "name": "F4",
                    "midi": 65,
                    "time": 1.5625,
                    "velocity": 0.5039370078740157,
                    "duration": 0.3125
                },
                {
                    "name": "E4",
                    "midi": 64,
                    "time": 1.875,
                    "velocity": 0.5039370078740157,
                    "duration": 0.625
                },
                {
                    "name": "E4",
                    "midi": 64,
                    "time": 2.5,
                    "velocity": 0.5039370078740157,
                    "duration": 0.9375
                },
                {
                    "name": "E4",
                    "midi": 64,
                    "time": 3.4375,
                    "velocity": 0.5039370078740157,
                    "duration": 0.3125
                },
                {
                    "name": "F4",
                    "midi": 65,
                    "time": 3.75,
                    "velocity": 0.5039370078740157,
                    "duration": 0.625
                },
                {
                    "name": "F4",
                    "midi": 65,
                    "time": 4.375,
                    "velocity": 0.5039370078740157,
                    "duration": 0.9375
                },
                {
                    "name": "F4",
                    "midi": 65,
                    "time": 5.3125,
                    "velocity": 0.5039370078740157,
                    "duration": 0.3125
                },
                {
                    "name": "G4",
                    "midi": 67,
                    "time": 5.625,
                    "velocity": 0.5039370078740157,
                    "duration": 0.625
                },
                {
                    "name": "G4",
                    "midi": 67,
                    "time": 6.25,
                    "velocity": 0.5039370078740157,
                    "duration": 0.9375
                },
                {
                    "name": "G4",
                    "midi": 67,
                    "time": 7.1875,
                    "velocity": 0.5039370078740157,
                    "duration": 0.3125
                },
                {
                    "name": "A4",
                    "midi": 69,
                    "time": 7.5,
                    "velocity": 0.5039370078740157,
                    "duration": 0.625
                },
                {
                    "name": "A4",
                    "midi": 69,
                    "time": 8.125,
                    "velocity": 0.5039370078740157,
                    "duration": 0.9375
                },
                {
                    "name": "A4",
                    "midi": 69,
                    "time": 9.0625,
                    "velocity": 0.5039370078740157,
                    "duration": 0.3125
                },
                {
                    "name": "G4",
                    "midi": 67,
                    "time": 9.375,
                    "velocity": 0.5039370078740157,
                    "duration": 0.625
                },
                {
                    "name": "G4",
                    "midi": 67,
                    "time": 10,
                    "velocity": 0.5039370078740157,
                    "duration": 0.9375
                },
                {
                    "name": "G4",
                    "midi": 67,
                    "time": 10.9375,
                    "velocity": 0.5039370078740157,
                    "duration": 0.3125
                },
                {
                    "name": "F4",
                    "midi": 65,
                    "time": 11.25,
                    "velocity": 0.5039370078740157,
                    "duration": 0.625
                },
                {
                    "name": "F4",
                    "midi": 65,
                    "time": 11.875,
                    "velocity": 0.5039370078740157,
                    "duration": 0.9375
                },
                {
                    "name": "F4",
                    "midi": 65,
                    "time": 12.8125,
                    "velocity": 0.5039370078740157,
                    "duration": 0.3125
                },
                {
                    "name": "E4",
                    "midi": 64,
                    "time": 13.125,
                    "velocity": 0.5039370078740157,
                    "duration": 1.875
                },
                {
                    "name": "F4",
                    "midi": 65,
                    "time": 15,
                    "velocity": 0.3858267716535433,
                    "duration": 0.625
                },
                {
                    "name": "F4",
                    "midi": 65,
                    "time": 15.625,
                    "velocity": 0.3858267716535433,
                    "duration": 0.9375
                },
                {
                    "name": "F4",
                    "midi": 65,
                    "time": 16.5625,
                    "velocity": 0.3858267716535433,
                    "duration": 0.3125
                },
                {
                    "name": "E4",
                    "midi": 64,
                    "time": 16.875,
                    "velocity": 0.3858267716535433,
                    "duration": 0.625
                },
                {
                    "name": "E4",
                    "midi": 64,
                    "time": 17.5,
                    "velocity": 0.3858267716535433,
                    "duration": 0.9375
                },
                {
                    "name": "E4",
                    "midi": 64,
                    "time": 18.4375,
                    "velocity": 0.3858267716535433,
                    "duration": 0.3125
                },
                {
                    "name": "F4",
                    "midi": 65,
                    "time": 18.75,
                    "velocity": 0.3858267716535433,
                    "duration": 0.625
                },
                {
                    "name": "F4",
                    "midi": 65,
                    "time": 19.375,
                    "velocity": 0.3858267716535433,
                    "duration": 0.9375
                },
                {
                    "name": "F4",
                    "midi": 65,
                    "time": 20.3125,
                    "velocity": 0.3858267716535433,
                    "duration": 0.3125
                },
                {
                    "name": "G4",
                    "midi": 67,
                    "time": 20.625,
                    "velocity": 0.3858267716535433,
                    "duration": 0.625
                },
                {
                    "name": "G4",
                    "midi": 67,
                    "time": 21.25,
                    "velocity": 0.3858267716535433,
                    "duration": 0.9375
                },
                {
                    "name": "G4",
                    "midi": 67,
                    "time": 22.1875,
                    "velocity": 0.3858267716535433,
                    "duration": 0.3125
                },
                {
                    "name": "A4",
                    "midi": 69,
                    "time": 22.5,
                    "velocity": 0.3858267716535433,
                    "duration": 0.625
                },
                {
                    "name": "A4",
                    "midi": 69,
                    "time": 23.125,
                    "velocity": 0.3858267716535433,
                    "duration": 0.9375
                },
                {
                    "name": "A4",
                    "midi": 69,
                    "time": 24.0625,
                    "velocity": 0.3858267716535433,
                    "duration": 0.3125
                },
                {
                    "name": "G4",
                    "midi": 67,
                    "time": 24.375,
                    "velocity": 0.3858267716535433,
                    "duration": 0.625
                },
                {
                    "name": "G4",
                    "midi": 67,
                    "time": 25,
                    "velocity": 0.3858267716535433,
                    "duration": 0.3125
                },
                {
                    "name": "A4",
                    "midi": 69,
                    "time": 25.3125,
                    "velocity": 0.3858267716535433,
                    "duration": 0.3125
                },
                {
                    "name": "A#4",
                    "midi": 70,
                    "time": 25.625,
                    "velocity": 0.3858267716535433,
                    "duration": 0.625
                },
                {
                    "name": "A4",
                    "midi": 69,
                    "time": 26.25,
                    "velocity": 0.3858267716535433,
                    "duration": 0.3125
                },
                {
                    "name": "G4",
                    "midi": 67,
                    "time": 26.5625,
                    "velocity": 0.3858267716535433,
                    "duration": 0.15625
                },
                {
                    "name": "F4",
                    "midi": 65,
                    "time": 26.71875,
                    "velocity": 0.3858267716535433,
                    "duration": 0.15625
                },
                {
                    "name": "E4",
                    "midi": 64,
                    "time": 26.875,
                    "velocity": 0.3858267716535433,
                    "duration": 0.9375
                },
                {
                    "name": "D4",
                    "midi": 62,
                    "time": 27.8125,
                    "velocity": 0.3858267716535433,
                    "duration": 0.3125
                },
                {
                    "name": "D4",
                    "midi": 62,
                    "time": 28.125,
                    "velocity": 0.3858267716535433,
                    "duration": 1.875
                },
                {
                    "name": "D5",
                    "midi": 74,
                    "time": 30,
                    "velocity": 0.3858267716535433,
                    "duration": 0.625
                },
                {
                    "name": "D5",
                    "midi": 74,
                    "time": 30.625,
                    "velocity": 0.3858267716535433,
                    "duration": 0.46875
                },
                {
                    "name": "E5",
                    "midi": 76,
                    "time": 31.09375,
                    "velocity": 0.3858267716535433,
                    "duration": 0.15625
                },
                {
                    "name": "F5",
                    "midi": 77,
                    "time": 31.25,
                    "velocity": 0.3858267716535433,
                    "duration": 0.46875
                },
                {
                    "name": "D5",
                    "midi": 74,
                    "time": 31.71875,
                    "velocity": 0.3858267716535433,
                    "duration": 0.15625
                },
                {
                    "name": "C#5",
                    "midi": 73,
                    "time": 31.875,
                    "velocity": 0.3858267716535433,
                    "duration": 0.625
                },
                {
                    "name": "C#5",
                    "midi": 73,
                    "time": 32.5,
                    "velocity": 0.3858267716535433,
                    "duration": 0.9375
                },
                {
                    "name": "C#5",
                    "midi": 73,
                    "time": 33.4375,
                    "velocity": 0.3858267716535433,
                    "duration": 0.3125
                },
                {
                    "name": "D5",
                    "midi": 74,
                    "time": 33.75,
                    "velocity": 0.3858267716535433,
                    "duration": 0.625
                },
                {
                    "name": "D5",
                    "midi": 74,
                    "time": 34.375,
                    "velocity": 0.3858267716535433,
                    "duration": 0.46875
                },
                {
                    "name": "E5",
                    "midi": 76,
                    "time": 34.84375,
                    "velocity": 0.3858267716535433,
                    "duration": 0.15625
                },
                {
                    "name": "F5",
                    "midi": 77,
                    "time": 35,
                    "velocity": 0.3858267716535433,
                    "duration": 0.46875
                },
                {
                    "name": "D5",
                    "midi": 74,
                    "time": 35.46875,
                    "velocity": 0.3858267716535433,
                    "duration": 0.15625
                },
                {
                    "name": "E5",
                    "midi": 76,
                    "time": 35.625,
                    "velocity": 0.3858267716535433,
                    "duration": 0.625
                },
                {
                    "name": "E5",
                    "midi": 76,
                    "time": 36.25,
                    "velocity": 0.3858267716535433,
                    "duration": 0.9375
                },
                {
                    "name": "E5",
                    "midi": 76,
                    "time": 37.1875,
                    "velocity": 0.3858267716535433,
                    "duration": 0.3125
                },
                {
                    "name": "F5",
                    "midi": 77,
                    "time": 37.5,
                    "velocity": 0.3858267716535433,
                    "duration": 0.625
                },
                {
                    "name": "F5",
                    "midi": 77,
                    "time": 38.125,
                    "velocity": 0.3858267716535433,
                    "duration": 0.46875
                },
                {
                    "name": "G5",
                    "midi": 79,
                    "time": 38.59375,
                    "velocity": 0.3858267716535433,
                    "duration": 0.15625
                },
                {
                    "name": "A5",
                    "midi": 81,
                    "time": 38.75,
                    "velocity": 0.3858267716535433,
                    "duration": 0.46875
                },
                {
                    "name": "F5",
                    "midi": 77,
                    "time": 39.21875,
                    "velocity": 0.3858267716535433,
                    "duration": 0.15625
                },
                {
                    "name": "E5",
                    "midi": 76,
                    "time": 39.375,
                    "velocity": 0.3858267716535433,
                    "duration": 0.625
                },
                {
                    "name": "E5",
                    "midi": 76,
                    "time": 40,
                    "velocity": 0.3858267716535433,
                    "duration": 0.46875
                },
                {
                    "name": "F5",
                    "midi": 77,
                    "time": 40.46875,
                    "velocity": 0.3858267716535433,
                    "duration": 0.15625
                },
                {
                    "name": "G5",
                    "midi": 79,
                    "time": 40.625,
                    "velocity": 0.3858267716535433,
                    "duration": 0.46875
                },
                {
                    "name": "E5",
                    "midi": 76,
                    "time": 41.09375,
                    "velocity": 0.3858267716535433,
                    "duration": 0.15625
                },
                {
                    "name": "D5",
                    "midi": 74,
                    "time": 41.25,
                    "velocity": 0.3858267716535433,
                    "duration": 0.625
                },
                {
                    "name": "D5",
                    "midi": 74,
                    "time": 41.875,
                    "velocity": 0.3858267716535433,
                    "duration": 0.46875
                },
                {
                    "name": "E5",
                    "midi": 76,
                    "time": 42.34375,
                    "velocity": 0.3858267716535433,
                    "duration": 0.15625
                },
                {
                    "name": "F5",
                    "midi": 77,
                    "time": 42.5,
                    "velocity": 0.3858267716535433,
                    "duration": 0.46875
                },
                {
                    "name": "D5",
                    "midi": 74,
                    "time": 42.96875,
                    "velocity": 0.3858267716535433,
                    "duration": 0.15625
                },
                {
                    "name": "C#5",
                    "midi": 73,
                    "time": 43.125,
                    "velocity": 0.3858267716535433,
                    "duration": 1.875
                },
                {
                    "name": "D5",
                    "midi": 74,
                    "time": 45,
                    "velocity": 0.3858267716535433,
                    "duration": 0.625
                },
                {
                    "name": "D5",
                    "midi": 74,
                    "time": 45.625,
                    "velocity": 0.3858267716535433,
                    "duration": 0.46875
                },
                {
                    "name": "E5",
                    "midi": 76,
                    "time": 46.09375,
                    "velocity": 0.3858267716535433,
                    "duration": 0.15625
                },
                {
                    "name": "F5",
                    "midi": 77,
                    "time": 46.25,
                    "velocity": 0.3858267716535433,
                    "duration": 0.46875
                },
                {
                    "name": "D5",
                    "midi": 74,
                    "time": 46.71875,
                    "velocity": 0.3858267716535433,
                    "duration": 0.15625
                },
                {
                    "name": "C#5",
                    "midi": 73,
                    "time": 46.875,
                    "velocity": 0.3858267716535433,
                    "duration": 0.625
                },
                {
                    "name": "C#5",
                    "midi": 73,
                    "time": 47.5,
                    "velocity": 0.3858267716535433,
                    "duration": 0.9375
                },
                {
                    "name": "C#5",
                    "midi": 73,
                    "time": 48.4375,
                    "velocity": 0.3858267716535433,
                    "duration": 0.3125
                },
                {
                    "name": "D5",
                    "midi": 74,
                    "time": 48.75,
                    "velocity": 0.3858267716535433,
                    "duration": 0.625
                },
                {
                    "name": "D5",
                    "midi": 74,
                    "time": 49.375,
                    "velocity": 0.3858267716535433,
                    "duration": 0.46875
                },
                {
                    "name": "E5",
                    "midi": 76,
                    "time": 49.84375,
                    "velocity": 0.3858267716535433,
                    "duration": 0.15625
                },
                {
                    "name": "F5",
                    "midi": 77,
                    "time": 50,
                    "velocity": 0.3858267716535433,
                    "duration": 0.46875
                },
                {
                    "name": "D5",
                    "midi": 74,
                    "time": 50.46875,
                    "velocity": 0.3858267716535433,
                    "duration": 0.15625
                },
                {
                    "name": "E5",
                    "midi": 76,
                    "time": 50.625,
                    "velocity": 0.3858267716535433,
                    "duration": 0.625
                },
                {
                    "name": "E5",
                    "midi": 76,
                    "time": 51.25,
                    "velocity": 0.3858267716535433,
                    "duration": 0.9375
                },
                {
                    "name": "E5",
                    "midi": 76,
                    "time": 52.1875,
                    "velocity": 0.3858267716535433,
                    "duration": 0.3125
                },
                {
                    "name": "F5",
                    "midi": 77,
                    "time": 52.5,
                    "velocity": 0.3858267716535433,
                    "duration": 0.625
                },
                {
                    "name": "F5",
                    "midi": 77,
                    "time": 53.125,
                    "velocity": 0.3858267716535433,
                    "duration": 0.46875
                },
                {
                    "name": "G5",
                    "midi": 79,
                    "time": 53.59375,
                    "velocity": 0.3858267716535433,
                    "duration": 0.15625
                },
                {
                    "name": "A5",
                    "midi": 81,
                    "time": 53.75,
                    "velocity": 0.3858267716535433,
                    "duration": 0.46875
                },
                {
                    "name": "F5",
                    "midi": 77,
                    "time": 54.21875,
                    "velocity": 0.3858267716535433,
                    "duration": 0.15625
                },
                {
                    "name": "E5",
                    "midi": 76,
                    "time": 54.375,
                    "velocity": 0.3858267716535433,
                    "duration": 0.625
                },
                {
                    "name": "E5",
                    "midi": 76,
                    "time": 55,
                    "velocity": 0.3858267716535433,
                    "duration": 0.46875
                },
                {
                    "name": "F5",
                    "midi": 77,
                    "time": 55.46875,
                    "velocity": 0.3858267716535433,
                    "duration": 0.15625
                },
                {
                    "name": "G5",
                    "midi": 79,
                    "time": 55.625,
                    "velocity": 0.3858267716535433,
                    "duration": 0.46875
                },
                {
                    "name": "E5",
                    "midi": 76,
                    "time": 56.09375,
                    "velocity": 0.3858267716535433,
                    "duration": 0.15625
                },
                {
                    "name": "F5",
                    "midi": 77,
                    "time": 56.25,
                    "velocity": 0.3858267716535433,
                    "duration": 0.3125
                },
                {
                    "name": "E5",
                    "midi": 76,
                    "time": 56.5625,
                    "velocity": 0.3858267716535433,
                    "duration": 0.15625
                },
                {
                    "name": "D5",
                    "midi": 74,
                    "time": 56.71875,
                    "velocity": 0.3858267716535433,
                    "duration": 0.15625
                },
                {
                    "name": "C#5",
                    "midi": 73,
                    "time": 56.875,
                    "velocity": 0.3858267716535433,
                    "duration": 0.9375
                },
                {
                    "name": "D5",
                    "midi": 74,
                    "time": 57.8125,
                    "velocity": 0.3858267716535433,
                    "duration": 0.3125
                },
                {
                    "name": "D5",
                    "midi": 74,
                    "time": 58.125,
                    "velocity": 0.3858267716535433,
                    "duration": 1.875
                },
                {
                    "name": "D5",
                    "midi": 74,
                    "time": 60.625,
                    "velocity": 0.3858267716535433,
                    "duration": 0.625
                },
                {
                    "name": "D4",
                    "midi": 62,
                    "time": 61.25,
                    "velocity": 0.3858267716535433,
                    "duration": 0.625
                },
                {
                    "name": "C#5",
                    "midi": 73,
                    "time": 62.5,
                    "velocity": 0.3858267716535433,
                    "duration": 0.625
                },
                {
                    "name": "C#4",
                    "midi": 61,
                    "time": 63.125,
                    "velocity": 0.3858267716535433,
                    "duration": 0.625
                },
                {
                    "name": "D5",
                    "midi": 74,
                    "time": 64.375,
                    "velocity": 0.3858267716535433,
                    "duration": 0.625
                },
                {
                    "name": "D4",
                    "midi": 62,
                    "time": 65,
                    "velocity": 0.3858267716535433,
                    "duration": 0.625
                },
                {
                    "name": "E5",
                    "midi": 76,
                    "time": 66.25,
                    "velocity": 0.3858267716535433,
                    "duration": 0.625
                },
                {
                    "name": "E4",
                    "midi": 64,
                    "time": 66.875,
                    "velocity": 0.3858267716535433,
                    "duration": 0.625
                },
                {
                    "name": "F5",
                    "midi": 77,
                    "time": 68.125,
                    "velocity": 0.3858267716535433,
                    "duration": 0.625
                },
                {
                    "name": "F4",
                    "midi": 65,
                    "time": 68.75,
                    "velocity": 0.3858267716535433,
                    "duration": 0.625
                },
                {
                    "name": "E5",
                    "midi": 76,
                    "time": 70,
                    "velocity": 0.3858267716535433,
                    "duration": 0.625
                },
                {
                    "name": "E4",
                    "midi": 64,
                    "time": 70.625,
                    "velocity": 0.3858267716535433,
                    "duration": 0.625
                },
                {
                    "name": "D5",
                    "midi": 74,
                    "time": 71.875,
                    "velocity": 0.3858267716535433,
                    "duration": 0.625
                },
                {
                    "name": "D4",
                    "midi": 62,
                    "time": 72.5,
                    "velocity": 0.3858267716535433,
                    "duration": 0.625
                },
                {
                    "name": "C#4",
                    "midi": 61,
                    "time": 73.125,
                    "velocity": 0.3858267716535433,
                    "duration": 0.625
                },
                {
                    "name": "E5",
                    "midi": 76,
                    "time": 73.75,
                    "velocity": 0.3858267716535433,
                    "duration": 0.625
                },
                {
                    "name": "D4",
                    "midi": 62,
                    "time": 75,
                    "velocity": 0.3858267716535433,
                    "duration": 0.625
                },
                {
                    "name": "F5",
                    "midi": 77,
                    "time": 75.625,
                    "velocity": 0.3858267716535433,
                    "duration": 0.625
                },
                {
                    "name": "C#4",
                    "midi": 61,
                    "time": 76.875,
                    "velocity": 0.3858267716535433,
                    "duration": 0.625
                },
                {
                    "name": "E5",
                    "midi": 76,
                    "time": 77.5,
                    "velocity": 0.3858267716535433,
                    "duration": 0.625
                },
                {
                    "name": "F4",
                    "midi": 65,
                    "time": 78.75,
                    "velocity": 0.3858267716535433,
                    "duration": 0.625
                },
                {
                    "name": "F5",
                    "midi": 77,
                    "time": 79.375,
                    "velocity": 0.3858267716535433,
                    "duration": 0.625
                },
                {
                    "name": "E4",
                    "midi": 64,
                    "time": 80.625,
                    "velocity": 0.3858267716535433,
                    "duration": 0.625
                },
                {
                    "name": "G5",
                    "midi": 79,
                    "time": 81.25,
                    "velocity": 0.3858267716535433,
                    "duration": 0.625
                },
                {
                    "name": "F4",
                    "midi": 65,
                    "time": 82.5,
                    "velocity": 0.3858267716535433,
                    "duration": 0.625
                },
                {
                    "name": "A5",
                    "midi": 81,
                    "time": 83.125,
                    "velocity": 0.3858267716535433,
                    "duration": 0.625
                },
                {
                    "name": "E4",
                    "midi": 64,
                    "time": 84.375,
                    "velocity": 0.3858267716535433,
                    "duration": 0.625
                },
                {
                    "name": "E5",
                    "midi": 76,
                    "time": 85,
                    "velocity": 0.3858267716535433,
                    "duration": 0.625
                },
                {
                    "name": "A4",
                    "midi": 69,
                    "time": 85.625,
                    "velocity": 0.3858267716535433,
                    "duration": 0.625
                },
                {
                    "name": "F5",
                    "midi": 77,
                    "time": 86.25,
                    "velocity": 0.3858267716535433,
                    "duration": 0.3125
                },
                {
                    "name": "D5",
                    "midi": 74,
                    "time": 86.5625,
                    "velocity": 0.3858267716535433,
                    "duration": 0.3125
                },
                {
                    "name": "C#5",
                    "midi": 73,
                    "time": 86.875,
                    "velocity": 0.3858267716535433,
                    "duration": 0.9375
                },
                {
                    "name": "D5",
                    "midi": 74,
                    "time": 87.8125,
                    "velocity": 0.3858267716535433,
                    "duration": 0.3125
                },
                {
                    "name": "D5",
                    "midi": 74,
                    "time": 88.125,
                    "velocity": 0.3858267716535433,
                    "duration": 1.875
                },
                {
                    "name": "A4",
                    "midi": 69,
                    "time": 90.3125,
                    "velocity": 0.3858267716535433,
                    "duration": 0.3125
                },
                {
                    "name": "F4",
                    "midi": 65,
                    "time": 90.625,
                    "velocity": 0.3858267716535433,
                    "duration": 0.3125
                },
                {
                    "name": "D4",
                    "midi": 62,
                    "time": 90.9375,
                    "velocity": 0.3858267716535433,
                    "duration": 0.3125
                },
                {
                    "name": "F5",
                    "midi": 77,
                    "time": 91.25,
                    "velocity": 0.3858267716535433,
                    "duration": 0.625
                },
                {
                    "name": "A4",
                    "midi": 69,
                    "time": 92.1875,
                    "velocity": 0.3858267716535433,
                    "duration": 0.3125
                },
                {
                    "name": "E4",
                    "midi": 64,
                    "time": 92.5,
                    "velocity": 0.3858267716535433,
                    "duration": 0.3125
                },
                {
                    "name": "C#4",
                    "midi": 61,
                    "time": 92.8125,
                    "velocity": 0.3858267716535433,
                    "duration": 0.3125
                },
                {
                    "name": "E5",
                    "midi": 76,
                    "time": 93.125,
                    "velocity": 0.3858267716535433,
                    "duration": 0.625
                },
                {
                    "name": "A4",
                    "midi": 69,
                    "time": 94.0625,
                    "velocity": 0.3858267716535433,
                    "duration": 0.3125
                },
                {
                    "name": "F4",
                    "midi": 65,
                    "time": 94.375,
                    "velocity": 0.3858267716535433,
                    "duration": 0.3125
                },
                {
                    "name": "D4",
                    "midi": 62,
                    "time": 94.6875,
                    "velocity": 0.3858267716535433,
                    "duration": 0.3125
                },
                {
                    "name": "F5",
                    "midi": 77,
                    "time": 95,
                    "velocity": 0.3858267716535433,
                    "duration": 0.625
                },
                {
                    "name": "C5",
                    "midi": 72,
                    "time": 95.9375,
                    "velocity": 0.3858267716535433,
                    "duration": 0.3125
                },
                {
                    "name": "G4",
                    "midi": 67,
                    "time": 96.25,
                    "velocity": 0.3858267716535433,
                    "duration": 0.3125
                },
                {
                    "name": "E4",
                    "midi": 64,
                    "time": 96.5625,
                    "velocity": 0.3858267716535433,
                    "duration": 0.3125
                },
                {
                    "name": "G5",
                    "midi": 79,
                    "time": 96.875,
                    "velocity": 0.3858267716535433,
                    "duration": 0.625
                },
                {
                    "name": "C5",
                    "midi": 72,
                    "time": 97.8125,
                    "velocity": 0.3858267716535433,
                    "duration": 0.3125
                },
                {
                    "name": "A4",
                    "midi": 69,
                    "time": 98.125,
                    "velocity": 0.3858267716535433,
                    "duration": 0.3125
                },
                {
                    "name": "F4",
                    "midi": 65,
                    "time": 98.4375,
                    "velocity": 0.3858267716535433,
                    "duration": 0.3125
                },
                {
                    "name": "A5",
                    "midi": 81,
                    "time": 98.75,
                    "velocity": 0.3858267716535433,
                    "duration": 0.625
                },
                {
                    "name": "C5",
                    "midi": 72,
                    "time": 99.6875,
                    "velocity": 0.3858267716535433,
                    "duration": 0.3125
                },
                {
                    "name": "G4",
                    "midi": 67,
                    "time": 100,
                    "velocity": 0.3858267716535433,
                    "duration": 0.3125
                },
                {
                    "name": "E4",
                    "midi": 64,
                    "time": 100.3125,
                    "velocity": 0.3858267716535433,
                    "duration": 0.3125
                },
                {
                    "name": "G5",
                    "midi": 79,
                    "time": 100.625,
                    "velocity": 0.3858267716535433,
                    "duration": 0.625
                },
                {
                    "name": "A4",
                    "midi": 69,
                    "time": 101.5625,
                    "velocity": 0.3858267716535433,
                    "duration": 0.3125
                },
                {
                    "name": "F4",
                    "midi": 65,
                    "time": 101.875,
                    "velocity": 0.3858267716535433,
                    "duration": 0.3125
                },
                {
                    "name": "D4",
                    "midi": 62,
                    "time": 102.1875,
                    "velocity": 0.3858267716535433,
                    "duration": 0.3125
                },
                {
                    "name": "D5",
                    "midi": 74,
                    "time": 102.5,
                    "velocity": 0.3858267716535433,
                    "duration": 0.625
                },
                {
                    "name": "E5",
                    "midi": 76,
                    "time": 103.4375,
                    "velocity": 0.3858267716535433,
                    "duration": 0.3125
                },
                {
                    "name": "C#5",
                    "midi": 73,
                    "time": 103.75,
                    "velocity": 0.3858267716535433,
                    "duration": 0.625
                },
                {
                    "name": "C#5",
                    "midi": 73,
                    "time": 104.6875,
                    "velocity": 0.3858267716535433,
                    "duration": 0.3125
                },
                {
                    "name": "D5",
                    "midi": 74,
                    "time": 105,
                    "velocity": 0.3858267716535433,
                    "duration": 0.625
                },
                {
                    "name": "F4",
                    "midi": 65,
                    "time": 105.9375,
                    "velocity": 0.3858267716535433,
                    "duration": 0.3125
                },
                {
                    "name": "A4",
                    "midi": 69,
                    "time": 106.25,
                    "velocity": 0.3858267716535433,
                    "duration": 0.3125
                },
                {
                    "name": "D5",
                    "midi": 74,
                    "time": 106.5625,
                    "velocity": 0.3858267716535433,
                    "duration": 0.3125
                },
                {
                    "name": "C#5",
                    "midi": 73,
                    "time": 106.875,
                    "velocity": 0.3858267716535433,
                    "duration": 0.625
                },
                {
                    "name": "E4",
                    "midi": 64,
                    "time": 107.8125,
                    "velocity": 0.3858267716535433,
                    "duration": 0.3125
                },
                {
                    "name": "A4",
                    "midi": 69,
                    "time": 108.125,
                    "velocity": 0.3858267716535433,
                    "duration": 0.3125
                },
                {
                    "name": "C#5",
                    "midi": 73,
                    "time": 108.4375,
                    "velocity": 0.3858267716535433,
                    "duration": 0.3125
                },
                {
                    "name": "D5",
                    "midi": 74,
                    "time": 108.75,
                    "velocity": 0.3858267716535433,
                    "duration": 0.625
                },
                {
                    "name": "F4",
                    "midi": 65,
                    "time": 109.6875,
                    "velocity": 0.3858267716535433,
                    "duration": 0.3125
                },
                {
                    "name": "A4",
                    "midi": 69,
                    "time": 110,
                    "velocity": 0.3858267716535433,
                    "duration": 0.3125
                },
                {
                    "name": "D5",
                    "midi": 74,
                    "time": 110.3125,
                    "velocity": 0.3858267716535433,
                    "duration": 0.3125
                },
                {
                    "name": "E5",
                    "midi": 76,
                    "time": 110.625,
                    "velocity": 0.3858267716535433,
                    "duration": 0.625
                },
                {
                    "name": "C5",
                    "midi": 72,
                    "time": 111.5625,
                    "velocity": 0.3858267716535433,
                    "duration": 0.3125
                },
                {
                    "name": "E5",
                    "midi": 76,
                    "time": 111.875,
                    "velocity": 0.3858267716535433,
                    "duration": 0.3125
                },
                {
                    "name": "G5",
                    "midi": 79,
                    "time": 112.1875,
                    "velocity": 0.3858267716535433,
                    "duration": 0.3125
                },
                {
                    "name": "F5",
                    "midi": 77,
                    "time": 112.5,
                    "velocity": 0.3858267716535433,
                    "duration": 0.625
                },
                {
                    "name": "A4",
                    "midi": 69,
                    "time": 113.4375,
                    "velocity": 0.3858267716535433,
                    "duration": 0.3125
                },
                {
                    "name": "D5",
                    "midi": 74,
                    "time": 113.75,
                    "velocity": 0.3858267716535433,
                    "duration": 0.3125
                },
                {
                    "name": "F5",
                    "midi": 77,
                    "time": 114.0625,
                    "velocity": 0.3858267716535433,
                    "duration": 0.3125
                },
                {
                    "name": "D#5",
                    "midi": 75,
                    "time": 114.375,
                    "velocity": 0.3858267716535433,
                    "duration": 0.3125
                },
                {
                    "name": "C#5",
                    "midi": 73,
                    "time": 114.6875,
                    "velocity": 0.3858267716535433,
                    "duration": 0.3125
                },
                {
                    "name": "D5",
                    "midi": 74,
                    "time": 115,
                    "velocity": 0.3858267716535433,
                    "duration": 1.5625
                },
                {
                    "name": "E5",
                    "midi": 76,
                    "time": 116.5625,
                    "velocity": 0.3858267716535433,
                    "duration": 0.3125
                },
                {
                    "name": "C#5",
                    "midi": 73,
                    "time": 116.875,
                    "velocity": 0.3858267716535433,
                    "duration": 0.9375
                },
                {
                    "name": "D5",
                    "midi": 74,
                    "time": 117.8125,
                    "velocity": 0.3858267716535433,
                    "duration": 0.3125
                },
                {
                    "name": "D5",
                    "midi": 74,
                    "time": 118.125,
                    "velocity": 0.3858267716535433,
                    "duration": 1.875
                },
                {
                    "name": "D5",
                    "midi": 74,
                    "time": 120.15625,
                    "velocity": 0.3858267716535433,
                    "duration": 0.15625
                },
                {
                    "name": "C5",
                    "midi": 72,
                    "time": 120.3125,
                    "velocity": 0.3858267716535433,
                    "duration": 0.15625
                },
                {
                    "name": "A#4",
                    "midi": 70,
                    "time": 120.46875,
                    "velocity": 0.3858267716535433,
                    "duration": 0.15625
                },
                {
                    "name": "A4",
                    "midi": 69,
                    "time": 120.625,
                    "velocity": 0.3858267716535433,
                    "duration": 0.15625
                },
                {
                    "name": "G4",
                    "midi": 67,
                    "time": 120.78125,
                    "velocity": 0.3858267716535433,
                    "duration": 0.15625
                },
                {
                    "name": "F4",
                    "midi": 65,
                    "time": 120.9375,
                    "velocity": 0.3858267716535433,
                    "duration": 0.15625
                },
                {
                    "name": "E4",
                    "midi": 64,
                    "time": 121.09375,
                    "velocity": 0.3858267716535433,
                    "duration": 0.15625
                },
                {
                    "name": "D4",
                    "midi": 62,
                    "time": 121.25,
                    "velocity": 0.3858267716535433,
                    "duration": 0.3125
                },
                {
                    "name": "D5",
                    "midi": 74,
                    "time": 121.5625,
                    "velocity": 0.3858267716535433,
                    "duration": 0.3125
                },
                {
                    "name": "C#5",
                    "midi": 73,
                    "time": 121.875,
                    "velocity": 0.3858267716535433,
                    "duration": 0.625
                },
                {
                    "name": "D5",
                    "midi": 74,
                    "time": 123.90625,
                    "velocity": 0.3858267716535433,
                    "duration": 0.15625
                },
                {
                    "name": "C5",
                    "midi": 72,
                    "time": 124.0625,
                    "velocity": 0.3858267716535433,
                    "duration": 0.15625
                },
                {
                    "name": "A#4",
                    "midi": 70,
                    "time": 124.21875,
                    "velocity": 0.3858267716535433,
                    "duration": 0.15625
                },
                {
                    "name": "A4",
                    "midi": 69,
                    "time": 124.375,
                    "velocity": 0.3858267716535433,
                    "duration": 0.15625
                },
                {
                    "name": "G4",
                    "midi": 67,
                    "time": 124.53125,
                    "velocity": 0.3858267716535433,
                    "duration": 0.15625
                },
                {
                    "name": "F4",
                    "midi": 65,
                    "time": 124.6875,
                    "velocity": 0.3858267716535433,
                    "duration": 0.15625
                },
                {
                    "name": "E4",
                    "midi": 64,
                    "time": 124.84375,
                    "velocity": 0.3858267716535433,
                    "duration": 0.15625
                },
                {
                    "name": "D4",
                    "midi": 62,
                    "time": 125,
                    "velocity": 0.3858267716535433,
                    "duration": 0.3125
                },
                {
                    "name": "D5",
                    "midi": 74,
                    "time": 125.3125,
                    "velocity": 0.3858267716535433,
                    "duration": 0.3125
                },
                {
                    "name": "E5",
                    "midi": 76,
                    "time": 125.625,
                    "velocity": 0.3858267716535433,
                    "duration": 0.625
                },
                {
                    "name": "F5",
                    "midi": 77,
                    "time": 127.65625,
                    "velocity": 0.3858267716535433,
                    "duration": 0.15625
                },
                {
                    "name": "E5",
                    "midi": 76,
                    "time": 127.8125,
                    "velocity": 0.3858267716535433,
                    "duration": 0.15625
                },
                {
                    "name": "D5",
                    "midi": 74,
                    "time": 127.96875,
                    "velocity": 0.3858267716535433,
                    "duration": 0.15625
                },
                {
                    "name": "C5",
                    "midi": 72,
                    "time": 128.125,
                    "velocity": 0.3858267716535433,
                    "duration": 0.15625
                },
                {
                    "name": "A#4",
                    "midi": 70,
                    "time": 128.28125,
                    "velocity": 0.3858267716535433,
                    "duration": 0.15625
                },
                {
                    "name": "A4",
                    "midi": 69,
                    "time": 128.4375,
                    "velocity": 0.3858267716535433,
                    "duration": 0.15625
                },
                {
                    "name": "G4",
                    "midi": 67,
                    "time": 128.59375,
                    "velocity": 0.3858267716535433,
                    "duration": 0.15625
                },
                {
                    "name": "F4",
                    "midi": 65,
                    "time": 128.75,
                    "velocity": 0.3858267716535433,
                    "duration": 0.3125
                },
                {
                    "name": "F5",
                    "midi": 77,
                    "time": 129.0625,
                    "velocity": 0.3858267716535433,
                    "duration": 0.3125
                },
                {
                    "name": "E5",
                    "midi": 76,
                    "time": 129.375,
                    "velocity": 0.3858267716535433,
                    "duration": 0.625
                },
                {
                    "name": "D5",
                    "midi": 74,
                    "time": 131.40625,
                    "velocity": 0.3858267716535433,
                    "duration": 0.15625
                },
                {
                    "name": "C5",
                    "midi": 72,
                    "time": 131.5625,
                    "velocity": 0.3858267716535433,
                    "duration": 0.15625
                },
                {
                    "name": "A#4",
                    "midi": 70,
                    "time": 131.71875,
                    "velocity": 0.3858267716535433,
                    "duration": 0.15625
                },
                {
                    "name": "A4",
                    "midi": 69,
                    "time": 131.875,
                    "velocity": 0.3858267716535433,
                    "duration": 0.15625
                },
                {
                    "name": "G4",
                    "midi": 67,
                    "time": 132.03125,
                    "velocity": 0.3858267716535433,
                    "duration": 0.15625
                },
                {
                    "name": "F4",
                    "midi": 65,
                    "time": 132.1875,
                    "velocity": 0.3858267716535433,
                    "duration": 0.15625
                },
                {
                    "name": "E4",
                    "midi": 64,
                    "time": 132.34375,
                    "velocity": 0.3858267716535433,
                    "duration": 0.15625
                },
                {
                    "name": "D4",
                    "midi": 62,
                    "time": 132.5,
                    "velocity": 0.3858267716535433,
                    "duration": 0.3125
                },
                {
                    "name": "D5",
                    "midi": 74,
                    "time": 132.8125,
                    "velocity": 0.3858267716535433,
                    "duration": 0.3125
                },
                {
                    "name": "C#5",
                    "midi": 73,
                    "time": 133.125,
                    "velocity": 0.3858267716535433,
                    "duration": 0.625
                },
                {
                    "name": "E5",
                    "midi": 76,
                    "time": 133.75,
                    "velocity": 0.3858267716535433,
                    "duration": 0.9375
                },
                {
                    "name": "E5",
                    "midi": 76,
                    "time": 134.6875,
                    "velocity": 0.3858267716535433,
                    "duration": 0.3125
                },
                {
                    "name": "A4",
                    "midi": 69,
                    "time": 135,
                    "velocity": 0.3858267716535433,
                    "duration": 0.15625
                },
                {
                    "name": "D5",
                    "midi": 74,
                    "time": 135.15625,
                    "velocity": 0.3858267716535433,
                    "duration": 0.15625
                },
                {
                    "name": "C5",
                    "midi": 72,
                    "time": 135.3125,
                    "velocity": 0.3858267716535433,
                    "duration": 0.15625
                },
                {
                    "name": "A#4",
                    "midi": 70,
                    "time": 135.46875,
                    "velocity": 0.3858267716535433,
                    "duration": 0.15625
                },
                {
                    "name": "A4",
                    "midi": 69,
                    "time": 135.625,
                    "velocity": 0.3858267716535433,
                    "duration": 0.15625
                },
                {
                    "name": "G4",
                    "midi": 67,
                    "time": 135.78125,
                    "velocity": 0.3858267716535433,
                    "duration": 0.15625
                },
                {
                    "name": "F4",
                    "midi": 65,
                    "time": 135.9375,
                    "velocity": 0.3858267716535433,
                    "duration": 0.15625
                },
                {
                    "name": "E4",
                    "midi": 64,
                    "time": 136.09375,
                    "velocity": 0.3858267716535433,
                    "duration": 0.15625
                },
                {
                    "name": "D4",
                    "midi": 62,
                    "time": 136.25,
                    "velocity": 0.3858267716535433,
                    "duration": 0.3125
                },
                {
                    "name": "D5",
                    "midi": 74,
                    "time": 136.5625,
                    "velocity": 0.3858267716535433,
                    "duration": 0.3125
                },
                {
                    "name": "C#5",
                    "midi": 73,
                    "time": 136.875,
                    "velocity": 0.3858267716535433,
                    "duration": 0.625
                },
                {
                    "name": "D5",
                    "midi": 74,
                    "time": 138.90625,
                    "velocity": 0.3858267716535433,
                    "duration": 0.15625
                },
                {
                    "name": "C5",
                    "midi": 72,
                    "time": 139.0625,
                    "velocity": 0.3858267716535433,
                    "duration": 0.15625
                },
                {
                    "name": "A#4",
                    "midi": 70,
                    "time": 139.21875,
                    "velocity": 0.3858267716535433,
                    "duration": 0.15625
                },
                {
                    "name": "A4",
                    "midi": 69,
                    "time": 139.375,
                    "velocity": 0.3858267716535433,
                    "duration": 0.15625
                },
                {
                    "name": "G4",
                    "midi": 67,
                    "time": 139.53125,
                    "velocity": 0.3858267716535433,
                    "duration": 0.15625
                },
                {
                    "name": "F4",
                    "midi": 65,
                    "time": 139.6875,
                    "velocity": 0.3858267716535433,
                    "duration": 0.15625
                },
                {
                    "name": "E4",
                    "midi": 64,
                    "time": 139.84375,
                    "velocity": 0.3858267716535433,
                    "duration": 0.15625
                },
                {
                    "name": "D4",
                    "midi": 62,
                    "time": 140,
                    "velocity": 0.3858267716535433,
                    "duration": 0.3125
                },
                {
                    "name": "D5",
                    "midi": 74,
                    "time": 140.3125,
                    "velocity": 0.3858267716535433,
                    "duration": 0.3125
                },
                {
                    "name": "E5",
                    "midi": 76,
                    "time": 140.625,
                    "velocity": 0.3858267716535433,
                    "duration": 0.625
                },
                {
                    "name": "F5",
                    "midi": 77,
                    "time": 142.65625,
                    "velocity": 0.3858267716535433,
                    "duration": 0.15625
                },
                {
                    "name": "E5",
                    "midi": 76,
                    "time": 142.8125,
                    "velocity": 0.3858267716535433,
                    "duration": 0.15625
                },
                {
                    "name": "D5",
                    "midi": 74,
                    "time": 142.96875,
                    "velocity": 0.3858267716535433,
                    "duration": 0.15625
                },
                {
                    "name": "C5",
                    "midi": 72,
                    "time": 143.125,
                    "velocity": 0.3858267716535433,
                    "duration": 0.15625
                },
                {
                    "name": "A#4",
                    "midi": 70,
                    "time": 143.28125,
                    "velocity": 0.3858267716535433,
                    "duration": 0.15625
                },
                {
                    "name": "A4",
                    "midi": 69,
                    "time": 143.4375,
                    "velocity": 0.3858267716535433,
                    "duration": 0.15625
                },
                {
                    "name": "G4",
                    "midi": 67,
                    "time": 143.59375,
                    "velocity": 0.3858267716535433,
                    "duration": 0.15625
                },
                {
                    "name": "F4",
                    "midi": 65,
                    "time": 143.75,
                    "velocity": 0.3858267716535433,
                    "duration": 0.3125
                },
                {
                    "name": "F5",
                    "midi": 77,
                    "time": 144.0625,
                    "velocity": 0.3858267716535433,
                    "duration": 0.3125
                },
                {
                    "name": "E5",
                    "midi": 76,
                    "time": 144.375,
                    "velocity": 0.3858267716535433,
                    "duration": 0.625
                },
                {
                    "name": "E5",
                    "midi": 76,
                    "time": 145,
                    "velocity": 0.3858267716535433,
                    "duration": 0.9375
                },
                {
                    "name": "E5",
                    "midi": 76,
                    "time": 145.9375,
                    "velocity": 0.3858267716535433,
                    "duration": 0.3125
                },
                {
                    "name": "A4",
                    "midi": 69,
                    "time": 146.25,
                    "velocity": 0.3858267716535433,
                    "duration": 0.3125
                },
                {
                    "name": "A#4",
                    "midi": 70,
                    "time": 146.5625,
                    "velocity": 0.3858267716535433,
                    "duration": 0.3125
                },
                {
                    "name": "E4",
                    "midi": 64,
                    "time": 146.875,
                    "velocity": 0.3858267716535433,
                    "duration": 0.9375
                },
                {
                    "name": "A4",
                    "midi": 69,
                    "time": 147.8125,
                    "velocity": 0.3858267716535433,
                    "duration": 0.3125
                },
                {
                    "name": "F4",
                    "midi": 65,
                    "time": 148.125,
                    "velocity": 0.3858267716535433,
                    "duration": 1.875
                },
                {
                    "name": "D5",
                    "midi": 74,
                    "time": 150,
                    "velocity": 0.3858267716535433,
                    "duration": 0.3125
                },
                {
                    "name": "A4",
                    "midi": 69,
                    "time": 150.3125,
                    "velocity": 0.3858267716535433,
                    "duration": 0.3125
                },
                {
                    "name": "F4",
                    "midi": 65,
                    "time": 150.625,
                    "velocity": 0.3858267716535433,
                    "duration": 0.3125
                },
                {
                    "name": "D4",
                    "midi": 62,
                    "time": 150.9375,
                    "velocity": 0.3858267716535433,
                    "duration": 0.3125
                },
                {
                    "name": "A4",
                    "midi": 69,
                    "time": 151.25,
                    "velocity": 0.3858267716535433,
                    "duration": 0.3125
                },
                {
                    "name": "D5",
                    "midi": 74,
                    "time": 151.5625,
                    "velocity": 0.3858267716535433,
                    "duration": 0.3125
                },
                {
                    "name": "C#5",
                    "midi": 73,
                    "time": 151.875,
                    "velocity": 0.3858267716535433,
                    "duration": 0.625
                },
                {
                    "name": "C#5",
                    "midi": 73,
                    "time": 152.5,
                    "velocity": 0.3858267716535433,
                    "duration": 0.9375
                },
                {
                    "name": "C#5",
                    "midi": 73,
                    "time": 153.4375,
                    "velocity": 0.3858267716535433,
                    "duration": 0.3125
                },
                {
                    "name": "D5",
                    "midi": 74,
                    "time": 153.75,
                    "velocity": 0.3858267716535433,
                    "duration": 0.3125
                },
                {
                    "name": "A4",
                    "midi": 69,
                    "time": 154.0625,
                    "velocity": 0.3858267716535433,
                    "duration": 0.3125
                },
                {
                    "name": "F4",
                    "midi": 65,
                    "time": 154.375,
                    "velocity": 0.3858267716535433,
                    "duration": 0.3125
                },
                {
                    "name": "D4",
                    "midi": 62,
                    "time": 154.6875,
                    "velocity": 0.3858267716535433,
                    "duration": 0.3125
                },
                {
                    "name": "A4",
                    "midi": 69,
                    "time": 155,
                    "velocity": 0.3858267716535433,
                    "duration": 0.3125
                },
                {
                    "name": "D5",
                    "midi": 74,
                    "time": 155.3125,
                    "velocity": 0.3858267716535433,
                    "duration": 0.3125
                },
                {
                    "name": "E5",
                    "midi": 76,
                    "time": 155.625,
                    "velocity": 0.3858267716535433,
                    "duration": 0.625
                },
                {
                    "name": "E5",
                    "midi": 76,
                    "time": 156.25,
                    "velocity": 0.3858267716535433,
                    "duration": 0.9375
                },
                {
                    "name": "E5",
                    "midi": 76,
                    "time": 157.1875,
                    "velocity": 0.3858267716535433,
                    "duration": 0.3125
                },
                {
                    "name": "F5",
                    "midi": 77,
                    "time": 157.5,
                    "velocity": 0.3858267716535433,
                    "duration": 0.3125
                },
                {
                    "name": "C5",
                    "midi": 72,
                    "time": 157.8125,
                    "velocity": 0.3858267716535433,
                    "duration": 0.3125
                },
                {
                    "name": "A4",
                    "midi": 69,
                    "time": 158.125,
                    "velocity": 0.3858267716535433,
                    "duration": 0.3125
                },
                {
                    "name": "F4",
                    "midi": 65,
                    "time": 158.4375,
                    "velocity": 0.3858267716535433,
                    "duration": 0.3125
                },
                {
                    "name": "F5",
                    "midi": 77,
                    "time": 158.75,
                    "velocity": 0.3858267716535433,
                    "duration": 0.625
                },
                {
                    "name": "E5",
                    "midi": 76,
                    "time": 159.375,
                    "velocity": 0.3858267716535433,
                    "duration": 0.3125
                },
                {
                    "name": "C5",
                    "midi": 72,
                    "time": 159.6875,
                    "velocity": 0.3858267716535433,
                    "duration": 0.3125
                },
                {
                    "name": "G4",
                    "midi": 67,
                    "time": 160,
                    "velocity": 0.3858267716535433,
                    "duration": 0.3125
                },
                {
                    "name": "E4",
                    "midi": 64,
                    "time": 160.3125,
                    "velocity": 0.3858267716535433,
                    "duration": 0.3125
                },
                {
                    "name": "E5",
                    "midi": 76,
                    "time": 160.625,
                    "velocity": 0.3858267716535433,
                    "duration": 0.625
                },
                {
                    "name": "D5",
                    "midi": 74,
                    "time": 161.25,
                    "velocity": 0.3858267716535433,
                    "duration": 0.3125
                },
                {
                    "name": "A4",
                    "midi": 69,
                    "time": 161.5625,
                    "velocity": 0.3858267716535433,
                    "duration": 0.3125
                },
                {
                    "name": "F5",
                    "midi": 77,
                    "time": 161.875,
                    "velocity": 0.3858267716535433,
                    "duration": 0.9375
                },
                {
                    "name": "G5",
                    "midi": 79,
                    "time": 162.8125,
                    "velocity": 0.3858267716535433,
                    "duration": 0.3125
                },
                {
                    "name": "E5",
                    "midi": 76,
                    "time": 163.125,
                    "velocity": 0.3858267716535433,
                    "duration": 0.625
                },
                {
                    "name": "C#5",
                    "midi": 73,
                    "time": 163.75,
                    "velocity": 0.3858267716535433,
                    "duration": 0.9375
                },
                {
                    "name": "C#5",
                    "midi": 73,
                    "time": 164.6875,
                    "velocity": 0.3858267716535433,
                    "duration": 0.3125
                },
                {
                    "name": "D5",
                    "midi": 74,
                    "time": 165,
                    "velocity": 0.3858267716535433,
                    "duration": 0.3125
                },
                {
                    "name": "A4",
                    "midi": 69,
                    "time": 165.3125,
                    "velocity": 0.3858267716535433,
                    "duration": 0.3125
                },
                {
                    "name": "F4",
                    "midi": 65,
                    "time": 165.625,
                    "velocity": 0.3858267716535433,
                    "duration": 0.3125
                },
                {
                    "name": "D4",
                    "midi": 62,
                    "time": 165.9375,
                    "velocity": 0.3858267716535433,
                    "duration": 0.3125
                },
                {
                    "name": "A4",
                    "midi": 69,
                    "time": 166.25,
                    "velocity": 0.3858267716535433,
                    "duration": 0.3125
                },
                {
                    "name": "D5",
                    "midi": 74,
                    "time": 166.5625,
                    "velocity": 0.3858267716535433,
                    "duration": 0.3125
                },
                {
                    "name": "C#5",
                    "midi": 73,
                    "time": 166.875,
                    "velocity": 0.3858267716535433,
                    "duration": 0.625
                },
                {
                    "name": "C#5",
                    "midi": 73,
                    "time": 167.5,
                    "velocity": 0.3858267716535433,
                    "duration": 0.9375
                },
                {
                    "name": "C#5",
                    "midi": 73,
                    "time": 168.4375,
                    "velocity": 0.3858267716535433,
                    "duration": 0.3125
                },
                {
                    "name": "D5",
                    "midi": 74,
                    "time": 168.75,
                    "velocity": 0.3858267716535433,
                    "duration": 0.3125
                },
                {
                    "name": "A4",
                    "midi": 69,
                    "time": 169.0625,
                    "velocity": 0.3858267716535433,
                    "duration": 0.3125
                },
                {
                    "name": "F4",
                    "midi": 65,
                    "time": 169.375,
                    "velocity": 0.3858267716535433,
                    "duration": 0.3125
                },
                {
                    "name": "D4",
                    "midi": 62,
                    "time": 169.6875,
                    "velocity": 0.3858267716535433,
                    "duration": 0.3125
                },
                {
                    "name": "A4",
                    "midi": 69,
                    "time": 170,
                    "velocity": 0.3858267716535433,
                    "duration": 0.3125
                },
                {
                    "name": "D5",
                    "midi": 74,
                    "time": 170.3125,
                    "velocity": 0.3858267716535433,
                    "duration": 0.3125
                },
                {
                    "name": "E5",
                    "midi": 76,
                    "time": 170.625,
                    "velocity": 0.3858267716535433,
                    "duration": 0.625
                },
                {
                    "name": "E5",
                    "midi": 76,
                    "time": 171.25,
                    "velocity": 0.3858267716535433,
                    "duration": 0.9375
                },
                {
                    "name": "E5",
                    "midi": 76,
                    "time": 172.1875,
                    "velocity": 0.3858267716535433,
                    "duration": 0.3125
                },
                {
                    "name": "F5",
                    "midi": 77,
                    "time": 172.5,
                    "velocity": 0.3858267716535433,
                    "duration": 0.3125
                },
                {
                    "name": "C5",
                    "midi": 72,
                    "time": 172.8125,
                    "velocity": 0.3858267716535433,
                    "duration": 0.3125
                },
                {
                    "name": "A4",
                    "midi": 69,
                    "time": 173.125,
                    "velocity": 0.3858267716535433,
                    "duration": 0.3125
                },
                {
                    "name": "F4",
                    "midi": 65,
                    "time": 173.4375,
                    "velocity": 0.3858267716535433,
                    "duration": 0.3125
                },
                {
                    "name": "F5",
                    "midi": 77,
                    "time": 173.75,
                    "velocity": 0.3858267716535433,
                    "duration": 0.625
                },
                {
                    "name": "E5",
                    "midi": 76,
                    "time": 174.375,
                    "velocity": 0.3858267716535433,
                    "duration": 0.3125
                },
                {
                    "name": "C5",
                    "midi": 72,
                    "time": 174.6875,
                    "velocity": 0.3858267716535433,
                    "duration": 0.3125
                },
                {
                    "name": "G4",
                    "midi": 67,
                    "time": 175,
                    "velocity": 0.3858267716535433,
                    "duration": 0.3125
                },
                {
                    "name": "E4",
                    "midi": 64,
                    "time": 175.3125,
                    "velocity": 0.3858267716535433,
                    "duration": 0.3125
                },
                {
                    "name": "E5",
                    "midi": 76,
                    "time": 175.625,
                    "velocity": 0.3858267716535433,
                    "duration": 0.625
                },
                {
                    "name": "D5",
                    "midi": 74,
                    "time": 176.25,
                    "velocity": 0.3858267716535433,
                    "duration": 0.3125
                },
                {
                    "name": "G5",
                    "midi": 79,
                    "time": 176.5625,
                    "velocity": 0.3858267716535433,
                    "duration": 0.3125
                },
                {
                    "name": "F5",
                    "midi": 77,
                    "time": 176.875,
                    "velocity": 0.3858267716535433,
                    "duration": 0.625
                },
                {
                    "name": "E5",
                    "midi": 76,
                    "time": 177.5,
                    "velocity": 0.3858267716535433,
                    "duration": 0.625
                },
                {
                    "name": "D5",
                    "midi": 74,
                    "time": 178.125,
                    "velocity": 0.3858267716535433,
                    "duration": 1.875
                },
                {
                    "name": "D5",
                    "midi": 74,
                    "time": 180,
                    "velocity": 0.3858267716535433,
                    "duration": 0.15625
                },
                {
                    "name": "A4",
                    "midi": 69,
                    "time": 180.15625,
                    "velocity": 0.3858267716535433,
                    "duration": 0.15625
                },
                {
                    "name": "F4",
                    "midi": 65,
                    "time": 180.3125,
                    "velocity": 0.3858267716535433,
                    "duration": 0.15625
                },
                {
                    "name": "A4",
                    "midi": 69,
                    "time": 180.46875,
                    "velocity": 0.3858267716535433,
                    "duration": 0.15625
                },
                {
                    "name": "D4",
                    "midi": 62,
                    "time": 180.625,
                    "velocity": 0.3858267716535433,
                    "duration": 0.625
                },
                {
                    "name": "C#5",
                    "midi": 73,
                    "time": 181.875,
                    "velocity": 0.3858267716535433,
                    "duration": 0.15625
                },
                {
                    "name": "A4",
                    "midi": 69,
                    "time": 182.03125,
                    "velocity": 0.3858267716535433,
                    "duration": 0.15625
                },
                {
                    "name": "E4",
                    "midi": 64,
                    "time": 182.1875,
                    "velocity": 0.3858267716535433,
                    "duration": 0.15625
                },
                {
                    "name": "A4",
                    "midi": 69,
                    "time": 182.34375,
                    "velocity": 0.3858267716535433,
                    "duration": 0.15625
                },
                {
                    "name": "C#4",
                    "midi": 61,
                    "time": 182.5,
                    "velocity": 0.3858267716535433,
                    "duration": 0.625
                },
                {
                    "name": "D5",
                    "midi": 74,
                    "time": 183.75,
                    "velocity": 0.3858267716535433,
                    "duration": 0.15625
                },
                {
                    "name": "A4",
                    "midi": 69,
                    "time": 183.90625,
                    "velocity": 0.3858267716535433,
                    "duration": 0.15625
                },
                {
                    "name": "F4",
                    "midi": 65,
                    "time": 184.0625,
                    "velocity": 0.3858267716535433,
                    "duration": 0.15625
                },
                {
                    "name": "A4",
                    "midi": 69,
                    "time": 184.21875,
                    "velocity": 0.3858267716535433,
                    "duration": 0.15625
                },
                {
                    "name": "D4",
                    "midi": 62,
                    "time": 184.375,
                    "velocity": 0.3858267716535433,
                    "duration": 0.625
                },
                {
                    "name": "E5",
                    "midi": 76,
                    "time": 185.625,
                    "velocity": 0.3858267716535433,
                    "duration": 0.15625
                },
                {
                    "name": "C5",
                    "midi": 72,
                    "time": 185.78125,
                    "velocity": 0.3858267716535433,
                    "duration": 0.15625
                },
                {
                    "name": "G4",
                    "midi": 67,
                    "time": 185.9375,
                    "velocity": 0.3858267716535433,
                    "duration": 0.15625
                },
                {
                    "name": "C5",
                    "midi": 72,
                    "time": 186.09375,
                    "velocity": 0.3858267716535433,
                    "duration": 0.15625
                },
                {
                    "name": "E4",
                    "midi": 64,
                    "time": 186.25,
                    "velocity": 0.3858267716535433,
                    "duration": 0.625
                },
                {
                    "name": "F5",
                    "midi": 77,
                    "time": 187.5,
                    "velocity": 0.3858267716535433,
                    "duration": 0.15625
                },
                {
                    "name": "C5",
                    "midi": 72,
                    "time": 187.65625,
                    "velocity": 0.3858267716535433,
                    "duration": 0.15625
                },
                {
                    "name": "A4",
                    "midi": 69,
                    "time": 187.8125,
                    "velocity": 0.3858267716535433,
                    "duration": 0.15625
                },
                {
                    "name": "C5",
                    "midi": 72,
                    "time": 187.96875,
                    "velocity": 0.3858267716535433,
                    "duration": 0.15625
                },
                {
                    "name": "F4",
                    "midi": 65,
                    "time": 188.125,
                    "velocity": 0.3858267716535433,
                    "duration": 0.625
                },
                {
                    "name": "E5",
                    "midi": 76,
                    "time": 189.375,
                    "velocity": 0.3858267716535433,
                    "duration": 0.15625
                },
                {
                    "name": "C5",
                    "midi": 72,
                    "time": 189.53125,
                    "velocity": 0.3858267716535433,
                    "duration": 0.15625
                },
                {
                    "name": "G4",
                    "midi": 67,
                    "time": 189.6875,
                    "velocity": 0.3858267716535433,
                    "duration": 0.15625
                },
                {
                    "name": "C5",
                    "midi": 72,
                    "time": 189.84375,
                    "velocity": 0.3858267716535433,
                    "duration": 0.15625
                },
                {
                    "name": "E4",
                    "midi": 64,
                    "time": 190,
                    "velocity": 0.3858267716535433,
                    "duration": 0.625
                },
                {
                    "name": "D5",
                    "midi": 74,
                    "time": 191.25,
                    "velocity": 0.3858267716535433,
                    "duration": 0.15625
                },
                {
                    "name": "A4",
                    "midi": 69,
                    "time": 191.40625,
                    "velocity": 0.3858267716535433,
                    "duration": 0.15625
                },
                {
                    "name": "F4",
                    "midi": 65,
                    "time": 191.5625,
                    "velocity": 0.3858267716535433,
                    "duration": 0.15625
                },
                {
                    "name": "A4",
                    "midi": 69,
                    "time": 191.71875,
                    "velocity": 0.3858267716535433,
                    "duration": 0.15625
                },
                {
                    "name": "D4",
                    "midi": 62,
                    "time": 191.875,
                    "velocity": 0.3858267716535433,
                    "duration": 0.625
                },
                {
                    "name": "E5",
                    "midi": 76,
                    "time": 193.125,
                    "velocity": 0.3858267716535433,
                    "duration": 0.15625
                },
                {
                    "name": "A5",
                    "midi": 81,
                    "time": 193.28125,
                    "velocity": 0.3858267716535433,
                    "duration": 0.15625
                },
                {
                    "name": "E5",
                    "midi": 76,
                    "time": 193.4375,
                    "velocity": 0.3858267716535433,
                    "duration": 0.15625
                },
                {
                    "name": "C#5",
                    "midi": 73,
                    "time": 193.59375,
                    "velocity": 0.3858267716535433,
                    "duration": 0.15625
                },
                {
                    "name": "A4",
                    "midi": 69,
                    "time": 193.75,
                    "velocity": 0.3858267716535433,
                    "duration": 0.9375
                },
                {
                    "name": "C#5",
                    "midi": 73,
                    "time": 194.6875,
                    "velocity": 0.3858267716535433,
                    "duration": 0.3125
                },
                {
                    "name": "D5",
                    "midi": 74,
                    "time": 195,
                    "velocity": 0.3858267716535433,
                    "duration": 0.15625
                },
                {
                    "name": "A4",
                    "midi": 69,
                    "time": 195.15625,
                    "velocity": 0.3858267716535433,
                    "duration": 0.15625
                },
                {
                    "name": "F4",
                    "midi": 65,
                    "time": 195.3125,
                    "velocity": 0.3858267716535433,
                    "duration": 0.15625
                },
                {
                    "name": "A4",
                    "midi": 69,
                    "time": 195.46875,
                    "velocity": 0.3858267716535433,
                    "duration": 0.15625
                },
                {
                    "name": "D4",
                    "midi": 62,
                    "time": 195.625,
                    "velocity": 0.3858267716535433,
                    "duration": 0.625
                },
                {
                    "name": "C#5",
                    "midi": 73,
                    "time": 196.875,
                    "velocity": 0.3858267716535433,
                    "duration": 0.15625
                },
                {
                    "name": "A4",
                    "midi": 69,
                    "time": 197.03125,
                    "velocity": 0.3858267716535433,
                    "duration": 0.15625
                },
                {
                    "name": "E4",
                    "midi": 64,
                    "time": 197.1875,
                    "velocity": 0.3858267716535433,
                    "duration": 0.15625
                },
                {
                    "name": "A4",
                    "midi": 69,
                    "time": 197.34375,
                    "velocity": 0.3858267716535433,
                    "duration": 0.15625
                },
                {
                    "name": "C#4",
                    "midi": 61,
                    "time": 197.5,
                    "velocity": 0.3858267716535433,
                    "duration": 0.625
                },
                {
                    "name": "D5",
                    "midi": 74,
                    "time": 198.75,
                    "velocity": 0.3858267716535433,
                    "duration": 0.15625
                },
                {
                    "name": "A4",
                    "midi": 69,
                    "time": 198.90625,
                    "velocity": 0.3858267716535433,
                    "duration": 0.15625
                },
                {
                    "name": "F4",
                    "midi": 65,
                    "time": 199.0625,
                    "velocity": 0.3858267716535433,
                    "duration": 0.15625
                },
                {
                    "name": "A4",
                    "midi": 69,
                    "time": 199.21875,
                    "velocity": 0.3858267716535433,
                    "duration": 0.15625
                },
                {
                    "name": "D4",
                    "midi": 62,
                    "time": 199.375,
                    "velocity": 0.3858267716535433,
                    "duration": 0.625
                },
                {
                    "name": "E5",
                    "midi": 76,
                    "time": 200.625,
                    "velocity": 0.3858267716535433,
                    "duration": 0.15625
                },
                {
                    "name": "C5",
                    "midi": 72,
                    "time": 200.78125,
                    "velocity": 0.3858267716535433,
                    "duration": 0.15625
                },
                {
                    "name": "G4",
                    "midi": 67,
                    "time": 200.9375,
                    "velocity": 0.3858267716535433,
                    "duration": 0.15625
                },
                {
                    "name": "C5",
                    "midi": 72,
                    "time": 201.09375,
                    "velocity": 0.3858267716535433,
                    "duration": 0.15625
                },
                {
                    "name": "E5",
                    "midi": 76,
                    "time": 201.25,
                    "velocity": 0.3858267716535433,
                    "duration": 0.625
                },
                {
                    "name": "F5",
                    "midi": 77,
                    "time": 202.5,
                    "velocity": 0.3858267716535433,
                    "duration": 0.15625
                },
                {
                    "name": "C5",
                    "midi": 72,
                    "time": 202.65625,
                    "velocity": 0.3858267716535433,
                    "duration": 0.15625
                },
                {
                    "name": "A4",
                    "midi": 69,
                    "time": 202.8125,
                    "velocity": 0.3858267716535433,
                    "duration": 0.15625
                },
                {
                    "name": "C5",
                    "midi": 72,
                    "time": 202.96875,
                    "velocity": 0.3858267716535433,
                    "duration": 0.15625
                },
                {
                    "name": "F4",
                    "midi": 65,
                    "time": 203.125,
                    "velocity": 0.3858267716535433,
                    "duration": 0.625
                },
                {
                    "name": "E5",
                    "midi": 76,
                    "time": 204.375,
                    "velocity": 0.3858267716535433,
                    "duration": 0.15625
                },
                {
                    "name": "C5",
                    "midi": 72,
                    "time": 204.53125,
                    "velocity": 0.3858267716535433,
                    "duration": 0.15625
                },
                {
                    "name": "G4",
                    "midi": 67,
                    "time": 204.6875,
                    "velocity": 0.3858267716535433,
                    "duration": 0.15625
                },
                {
                    "name": "C5",
                    "midi": 72,
                    "time": 204.84375,
                    "velocity": 0.3858267716535433,
                    "duration": 0.15625
                },
                {
                    "name": "E4",
                    "midi": 64,
                    "time": 205,
                    "velocity": 0.3858267716535433,
                    "duration": 0.625
                },
                {
                    "name": "E5",
                    "midi": 76,
                    "time": 205.9375,
                    "velocity": 0.3858267716535433,
                    "duration": 0.3125
                },
                {
                    "name": "A4",
                    "midi": 69,
                    "time": 206.25,
                    "velocity": 0.3858267716535433,
                    "duration": 0.3125
                },
                {
                    "name": "A#4",
                    "midi": 70,
                    "time": 206.5625,
                    "velocity": 0.3858267716535433,
                    "duration": 0.3125
                },
                {
                    "name": "E4",
                    "midi": 64,
                    "time": 206.875,
                    "velocity": 0.3858267716535433,
                    "duration": 0.3125
                },
                {
                    "name": "A4",
                    "midi": 69,
                    "time": 207.1875,
                    "velocity": 0.3858267716535433,
                    "duration": 0.625
                },
                {
                    "name": "G4",
                    "midi": 67,
                    "time": 207.8125,
                    "velocity": 0.3858267716535433,
                    "duration": 0.3125
                },
                {
                    "name": "F4",
                    "midi": 65,
                    "time": 208.125,
                    "velocity": 0.3858267716535433,
                    "duration": 1.875
                },
                {
                    "name": "F4",
                    "midi": 65,
                    "time": 210,
                    "velocity": 0.3858267716535433,
                    "duration": 0.625
                },
                {
                    "name": "F4",
                    "midi": 65,
                    "time": 210.9375,
                    "velocity": 0.3858267716535433,
                    "duration": 0.3125
                },
                {
                    "name": "F5",
                    "midi": 77,
                    "time": 211.25,
                    "velocity": 0.3858267716535433,
                    "duration": 0.3125
                },
                {
                    "name": "F4",
                    "midi": 65,
                    "time": 211.5625,
                    "velocity": 0.3858267716535433,
                    "duration": 0.3125
                },
                {
                    "name": "E4",
                    "midi": 64,
                    "time": 211.875,
                    "velocity": 0.3858267716535433,
                    "duration": 0.625
                },
                {
                    "name": "E4",
                    "midi": 64,
                    "time": 212.8125,
                    "velocity": 0.3858267716535433,
                    "duration": 0.3125
                },
                {
                    "name": "E5",
                    "midi": 76,
                    "time": 213.125,
                    "velocity": 0.3858267716535433,
                    "duration": 0.3125
                },
                {
                    "name": "E4",
                    "midi": 64,
                    "time": 213.4375,
                    "velocity": 0.3858267716535433,
                    "duration": 0.3125
                },
                {
                    "name": "F4",
                    "midi": 65,
                    "time": 213.75,
                    "velocity": 0.3858267716535433,
                    "duration": 0.625
                },
                {
                    "name": "F4",
                    "midi": 65,
                    "time": 214.6875,
                    "velocity": 0.3858267716535433,
                    "duration": 0.3125
                },
                {
                    "name": "F5",
                    "midi": 77,
                    "time": 215,
                    "velocity": 0.3858267716535433,
                    "duration": 0.3125
                },
                {
                    "name": "F4",
                    "midi": 65,
                    "time": 215.3125,
                    "velocity": 0.3858267716535433,
                    "duration": 0.3125
                },
                {
                    "name": "G4",
                    "midi": 67,
                    "time": 215.625,
                    "velocity": 0.3858267716535433,
                    "duration": 0.625
                },
                {
                    "name": "G4",
                    "midi": 67,
                    "time": 216.5625,
                    "velocity": 0.3858267716535433,
                    "duration": 0.3125
                },
                {
                    "name": "G5",
                    "midi": 79,
                    "time": 216.875,
                    "velocity": 0.3858267716535433,
                    "duration": 0.3125
                },
                {
                    "name": "G4",
                    "midi": 67,
                    "time": 217.1875,
                    "velocity": 0.3858267716535433,
                    "duration": 0.3125
                },
                {
                    "name": "A4",
                    "midi": 69,
                    "time": 217.5,
                    "velocity": 0.3858267716535433,
                    "duration": 0.625
                },
                {
                    "name": "A4",
                    "midi": 69,
                    "time": 218.4375,
                    "velocity": 0.3858267716535433,
                    "duration": 0.3125
                },
                {
                    "name": "A5",
                    "midi": 81,
                    "time": 218.75,
                    "velocity": 0.3858267716535433,
                    "duration": 0.3125
                },
                {
                    "name": "A4",
                    "midi": 69,
                    "time": 219.0625,
                    "velocity": 0.3858267716535433,
                    "duration": 0.3125
                },
                {
                    "name": "G4",
                    "midi": 67,
                    "time": 219.375,
                    "velocity": 0.3858267716535433,
                    "duration": 0.625
                },
                {
                    "name": "G4",
                    "midi": 67,
                    "time": 220.3125,
                    "velocity": 0.3858267716535433,
                    "duration": 0.3125
                },
                {
                    "name": "G5",
                    "midi": 79,
                    "time": 220.625,
                    "velocity": 0.3858267716535433,
                    "duration": 0.3125
                },
                {
                    "name": "G4",
                    "midi": 67,
                    "time": 220.9375,
                    "velocity": 0.3858267716535433,
                    "duration": 0.3125
                },
                {
                    "name": "F4",
                    "midi": 65,
                    "time": 221.25,
                    "velocity": 0.3858267716535433,
                    "duration": 0.625
                },
                {
                    "name": "D5",
                    "midi": 74,
                    "time": 222.1875,
                    "velocity": 0.3858267716535433,
                    "duration": 0.3125
                },
                {
                    "name": "G5",
                    "midi": 79,
                    "time": 222.5,
                    "velocity": 0.3858267716535433,
                    "duration": 0.3125
                },
                {
                    "name": "F5",
                    "midi": 77,
                    "time": 222.8125,
                    "velocity": 0.3858267716535433,
                    "duration": 0.3125
                },
                {
                    "name": "E5",
                    "midi": 76,
                    "time": 223.125,
                    "velocity": 0.3858267716535433,
                    "duration": 0.625
                },
                {
                    "name": "E4",
                    "midi": 64,
                    "time": 224.0625,
                    "velocity": 0.3858267716535433,
                    "duration": 0.3125
                },
                {
                    "name": "E5",
                    "midi": 76,
                    "time": 224.375,
                    "velocity": 0.3858267716535433,
                    "duration": 0.3125
                },
                {
                    "name": "E4",
                    "midi": 64,
                    "time": 224.6875,
                    "velocity": 0.3858267716535433,
                    "duration": 0.3125
                },
                {
                    "name": "F4",
                    "midi": 65,
                    "time": 225,
                    "velocity": 0.3858267716535433,
                    "duration": 0.625
                },
                {
                    "name": "F4",
                    "midi": 65,
                    "time": 225.9375,
                    "velocity": 0.3858267716535433,
                    "duration": 0.3125
                },
                {
                    "name": "F5",
                    "midi": 77,
                    "time": 226.25,
                    "velocity": 0.3858267716535433,
                    "duration": 0.3125
                },
                {
                    "name": "F4",
                    "midi": 65,
                    "time": 226.5625,
                    "velocity": 0.3858267716535433,
                    "duration": 0.3125
                },
                {
                    "name": "E4",
                    "midi": 64,
                    "time": 226.875,
                    "velocity": 0.3858267716535433,
                    "duration": 0.625
                },
                {
                    "name": "E4",
                    "midi": 64,
                    "time": 227.8125,
                    "velocity": 0.3858267716535433,
                    "duration": 0.3125
                },
                {
                    "name": "E5",
                    "midi": 76,
                    "time": 228.125,
                    "velocity": 0.3858267716535433,
                    "duration": 0.3125
                },
                {
                    "name": "E4",
                    "midi": 64,
                    "time": 228.4375,
                    "velocity": 0.3858267716535433,
                    "duration": 0.3125
                },
                {
                    "name": "F4",
                    "midi": 65,
                    "time": 228.75,
                    "velocity": 0.3858267716535433,
                    "duration": 0.625
                },
                {
                    "name": "F4",
                    "midi": 65,
                    "time": 229.6875,
                    "velocity": 0.3858267716535433,
                    "duration": 0.3125
                },
                {
                    "name": "F5",
                    "midi": 77,
                    "time": 230,
                    "velocity": 0.3858267716535433,
                    "duration": 0.3125
                },
                {
                    "name": "F4",
                    "midi": 65,
                    "time": 230.3125,
                    "velocity": 0.3858267716535433,
                    "duration": 0.3125
                },
                {
                    "name": "G4",
                    "midi": 67,
                    "time": 230.625,
                    "velocity": 0.3858267716535433,
                    "duration": 0.625
                },
                {
                    "name": "G4",
                    "midi": 67,
                    "time": 231.5625,
                    "velocity": 0.3858267716535433,
                    "duration": 0.3125
                },
                {
                    "name": "G5",
                    "midi": 79,
                    "time": 231.875,
                    "velocity": 0.3858267716535433,
                    "duration": 0.3125
                },
                {
                    "name": "G4",
                    "midi": 67,
                    "time": 232.1875,
                    "velocity": 0.3858267716535433,
                    "duration": 0.3125
                },
                {
                    "name": "A4",
                    "midi": 69,
                    "time": 232.5,
                    "velocity": 0.3858267716535433,
                    "duration": 0.625
                },
                {
                    "name": "A4",
                    "midi": 69,
                    "time": 233.4375,
                    "velocity": 0.3858267716535433,
                    "duration": 0.3125
                },
                {
                    "name": "A5",
                    "midi": 81,
                    "time": 233.75,
                    "velocity": 0.3858267716535433,
                    "duration": 0.3125
                },
                {
                    "name": "A4",
                    "midi": 69,
                    "time": 234.0625,
                    "velocity": 0.3858267716535433,
                    "duration": 0.3125
                },
                {
                    "name": "G4",
                    "midi": 67,
                    "time": 234.375,
                    "velocity": 0.3858267716535433,
                    "duration": 0.625
                },
                {
                    "name": "G4",
                    "midi": 67,
                    "time": 235.3125,
                    "velocity": 0.3858267716535433,
                    "duration": 0.3125
                },
                {
                    "name": "E5",
                    "midi": 76,
                    "time": 235.625,
                    "velocity": 0.3858267716535433,
                    "duration": 0.625
                },
                {
                    "name": "A4",
                    "midi": 69,
                    "time": 236.25,
                    "velocity": 0.3858267716535433,
                    "duration": 0.3125
                },
                {
                    "name": "F4",
                    "midi": 65,
                    "time": 236.5625,
                    "velocity": 0.3858267716535433,
                    "duration": 0.3125
                },
                {
                    "name": "E4",
                    "midi": 64,
                    "time": 236.875,
                    "velocity": 0.3858267716535433,
                    "duration": 0.3125
                },
                {
                    "name": "A4",
                    "midi": 69,
                    "time": 237.1875,
                    "velocity": 0.3858267716535433,
                    "duration": 0.3125
                },
                {
                    "name": "G4",
                    "midi": 67,
                    "time": 237.5,
                    "velocity": 0.3858267716535433,
                    "duration": 0.625
                },
                {
                    "name": "F4",
                    "midi": 65,
                    "time": 238.125,
                    "velocity": 0.3858267716535433,
                    "duration": 1.875
                },
                {
                    "name": "A4",
                    "midi": 69,
                    "time": 241.875,
                    "velocity": 0.3858267716535433,
                    "duration": 0.625
                },
                {
                    "name": "G5",
                    "midi": 79,
                    "time": 242.5,
                    "velocity": 0.3858267716535433,
                    "duration": 1.875
                },
                {
                    "name": "F5",
                    "midi": 77,
                    "time": 244.375,
                    "velocity": 0.3858267716535433,
                    "duration": 0.3125
                },
                {
                    "name": "E5",
                    "midi": 76,
                    "time": 244.6875,
                    "velocity": 0.3858267716535433,
                    "duration": 0.3125
                },
                {
                    "name": "F5",
                    "midi": 77,
                    "time": 245,
                    "velocity": 0.3858267716535433,
                    "duration": 1.25
                },
                {
                    "name": "E5",
                    "midi": 76,
                    "time": 246.25,
                    "velocity": 0.3858267716535433,
                    "duration": 0.3125
                },
                {
                    "name": "D5",
                    "midi": 74,
                    "time": 246.5625,
                    "velocity": 0.3858267716535433,
                    "duration": 0.3125
                },
                {
                    "name": "E5",
                    "midi": 76,
                    "time": 246.875,
                    "velocity": 0.3858267716535433,
                    "duration": 0.625
                },
                {
                    "name": "F5",
                    "midi": 77,
                    "time": 247.5,
                    "velocity": 0.3858267716535433,
                    "duration": 0.625
                },
                {
                    "name": "C5",
                    "midi": 72,
                    "time": 248.125,
                    "velocity": 0.3858267716535433,
                    "duration": 0.625
                },
                {
                    "name": "F5",
                    "midi": 77,
                    "time": 248.75,
                    "velocity": 0.3858267716535433,
                    "duration": 1.25
                },
                {
                    "name": "E5",
                    "midi": 76,
                    "time": 250,
                    "velocity": 0.3858267716535433,
                    "duration": 0.3125
                },
                {
                    "name": "D5",
                    "midi": 74,
                    "time": 250.3125,
                    "velocity": 0.3858267716535433,
                    "duration": 0.3125
                },
                {
                    "name": "E5",
                    "midi": 76,
                    "time": 250.625,
                    "velocity": 0.3858267716535433,
                    "duration": 0.625
                },
                {
                    "name": "A4",
                    "midi": 69,
                    "time": 251.25,
                    "velocity": 0.3858267716535433,
                    "duration": 0.625
                },
                {
                    "name": "D5",
                    "midi": 74,
                    "time": 251.875,
                    "velocity": 0.3858267716535433,
                    "duration": 0.3125
                },
                {
                    "name": "C#5",
                    "midi": 73,
                    "time": 252.1875,
                    "velocity": 0.3858267716535433,
                    "duration": 0.3125
                },
                {
                    "name": "D5",
                    "midi": 74,
                    "time": 252.5,
                    "velocity": 0.3858267716535433,
                    "duration": 0.3125
                },
                {
                    "name": "E5",
                    "midi": 76,
                    "time": 252.8125,
                    "velocity": 0.3858267716535433,
                    "duration": 0.3125
                },
                {
                    "name": "C#5",
                    "midi": 73,
                    "time": 253.125,
                    "velocity": 0.3858267716535433,
                    "duration": 0.625
                },
                {
                    "name": "A4",
                    "midi": 69,
                    "time": 253.75,
                    "velocity": 0.3858267716535433,
                    "duration": 0.625
                },
                {
                    "name": "C#5",
                    "midi": 73,
                    "time": 254.375,
                    "velocity": 0.3858267716535433,
                    "duration": 0.625
                },
                {
                    "name": "D5",
                    "midi": 74,
                    "time": 255,
                    "velocity": 0.3858267716535433,
                    "duration": 2.5
                },
                {
                    "name": "C#5",
                    "midi": 73,
                    "time": 257.5,
                    "velocity": 0.3858267716535433,
                    "duration": 0.3125
                },
                {
                    "name": "B4",
                    "midi": 71,
                    "time": 257.8125,
                    "velocity": 0.3858267716535433,
                    "duration": 0.3125
                },
                {
                    "name": "C#5",
                    "midi": 73,
                    "time": 258.125,
                    "velocity": 0.3858267716535433,
                    "duration": 0.625
                },
                {
                    "name": "D5",
                    "midi": 74,
                    "time": 258.75,
                    "velocity": 0.3858267716535433,
                    "duration": 0.625
                },
                {
                    "name": "A4",
                    "midi": 69,
                    "time": 259.375,
                    "velocity": 0.3858267716535433,
                    "duration": 0.625
                },
                {
                    "name": "A5",
                    "midi": 81,
                    "time": 260,
                    "velocity": 0.3858267716535433,
                    "duration": 0.3125
                },
                {
                    "name": "B5",
                    "midi": 83,
                    "time": 260.3125,
                    "velocity": 0.3858267716535433,
                    "duration": 0.3125
                },
                {
                    "name": "C6",
                    "midi": 84,
                    "time": 260.625,
                    "velocity": 0.3858267716535433,
                    "duration": 0.625
                },
                {
                    "name": "C5",
                    "midi": 72,
                    "time": 261.25,
                    "velocity": 0.3858267716535433,
                    "duration": 0.625
                },
                {
                    "name": "A#5",
                    "midi": 82,
                    "time": 261.875,
                    "velocity": 0.3858267716535433,
                    "duration": 1.25
                },
                {
                    "name": "A5",
                    "midi": 81,
                    "time": 263.125,
                    "velocity": 0.3858267716535433,
                    "duration": 0.3125
                },
                {
                    "name": "G5",
                    "midi": 79,
                    "time": 263.4375,
                    "velocity": 0.3858267716535433,
                    "duration": 0.3125
                },
                {
                    "name": "A5",
                    "midi": 81,
                    "time": 263.75,
                    "velocity": 0.3858267716535433,
                    "duration": 0.625
                },
                {
                    "name": "G5",
                    "midi": 79,
                    "time": 264.375,
                    "velocity": 0.3858267716535433,
                    "duration": 1.25
                },
                {
                    "name": "F5",
                    "midi": 77,
                    "time": 265.625,
                    "velocity": 0.3858267716535433,
                    "duration": 1.25
                },
                {
                    "name": "E5",
                    "midi": 76,
                    "time": 266.875,
                    "velocity": 0.3858267716535433,
                    "duration": 1.25
                },
                {
                    "name": "D5",
                    "midi": 74,
                    "time": 268.125,
                    "velocity": 0.3858267716535433,
                    "duration": 1.875
                },
                {
                    "name": "F4",
                    "midi": 65,
                    "time": 270,
                    "velocity": 0.3858267716535433,
                    "duration": 0.625
                },
                {
                    "name": "F4",
                    "midi": 65,
                    "time": 271.25,
                    "velocity": 0.3858267716535433,
                    "duration": 0.625
                },
                {
                    "name": "E4",
                    "midi": 64,
                    "time": 271.875,
                    "velocity": 0.3858267716535433,
                    "duration": 0.625
                },
                {
                    "name": "E4",
                    "midi": 64,
                    "time": 273.125,
                    "velocity": 0.3858267716535433,
                    "duration": 0.625
                },
                {
                    "name": "F4",
                    "midi": 65,
                    "time": 273.75,
                    "velocity": 0.3858267716535433,
                    "duration": 0.625
                },
                {
                    "name": "F4",
                    "midi": 65,
                    "time": 275,
                    "velocity": 0.3858267716535433,
                    "duration": 0.625
                },
                {
                    "name": "G4",
                    "midi": 67,
                    "time": 275.625,
                    "velocity": 0.3858267716535433,
                    "duration": 0.625
                },
                {
                    "name": "G4",
                    "midi": 67,
                    "time": 276.875,
                    "velocity": 0.3858267716535433,
                    "duration": 0.625
                },
                {
                    "name": "A4",
                    "midi": 69,
                    "time": 277.5,
                    "velocity": 0.3858267716535433,
                    "duration": 0.625
                },
                {
                    "name": "A4",
                    "midi": 69,
                    "time": 278.75,
                    "velocity": 0.3858267716535433,
                    "duration": 0.625
                },
                {
                    "name": "G4",
                    "midi": 67,
                    "time": 279.375,
                    "velocity": 0.3858267716535433,
                    "duration": 0.625
                },
                {
                    "name": "G4",
                    "midi": 67,
                    "time": 280.625,
                    "velocity": 0.3858267716535433,
                    "duration": 0.625
                },
                {
                    "name": "F4",
                    "midi": 65,
                    "time": 281.25,
                    "velocity": 0.3858267716535433,
                    "duration": 0.625
                },
                {
                    "name": "F4",
                    "midi": 65,
                    "time": 282.5,
                    "velocity": 0.3858267716535433,
                    "duration": 0.625
                },
                {
                    "name": "E4",
                    "midi": 64,
                    "time": 283.125,
                    "velocity": 0.3858267716535433,
                    "duration": 1.875
                },
                {
                    "name": "F4",
                    "midi": 65,
                    "time": 285,
                    "velocity": 0.3858267716535433,
                    "duration": 0.625
                },
                {
                    "name": "F4",
                    "midi": 65,
                    "time": 286.25,
                    "velocity": 0.3858267716535433,
                    "duration": 0.625
                },
                {
                    "name": "E4",
                    "midi": 64,
                    "time": 286.875,
                    "velocity": 0.3858267716535433,
                    "duration": 0.625
                },
                {
                    "name": "E4",
                    "midi": 64,
                    "time": 288.125,
                    "velocity": 0.3858267716535433,
                    "duration": 0.625
                },
                {
                    "name": "F4",
                    "midi": 65,
                    "time": 288.75,
                    "velocity": 0.3858267716535433,
                    "duration": 0.625
                },
                {
                    "name": "F4",
                    "midi": 65,
                    "time": 290,
                    "velocity": 0.3858267716535433,
                    "duration": 0.625
                },
                {
                    "name": "G4",
                    "midi": 67,
                    "time": 290.625,
                    "velocity": 0.3858267716535433,
                    "duration": 0.625
                },
                {
                    "name": "G4",
                    "midi": 67,
                    "time": 291.875,
                    "velocity": 0.3858267716535433,
                    "duration": 0.625
                },
                {
                    "name": "A4",
                    "midi": 69,
                    "time": 292.5,
                    "velocity": 0.3858267716535433,
                    "duration": 0.625
                },
                {
                    "name": "A4",
                    "midi": 69,
                    "time": 293.75,
                    "velocity": 0.3858267716535433,
                    "duration": 0.625
                },
                {
                    "name": "G4",
                    "midi": 67,
                    "time": 294.375,
                    "velocity": 0.3858267716535433,
                    "duration": 0.3125
                },
                {
                    "name": "A4",
                    "midi": 69,
                    "time": 294.6875,
                    "velocity": 0.3858267716535433,
                    "duration": 0.3125
                },
                {
                    "name": "A#4",
                    "midi": 70,
                    "time": 295,
                    "velocity": 0.3858267716535433,
                    "duration": 0.9375
                },
                {
                    "name": "A#4",
                    "midi": 70,
                    "time": 295.9375,
                    "velocity": 0.3858267716535433,
                    "duration": 0.3125
                },
                {
                    "name": "A4",
                    "midi": 69,
                    "time": 296.25,
                    "velocity": 0.3858267716535433,
                    "duration": 0.3125
                },
                {
                    "name": "G4",
                    "midi": 67,
                    "time": 296.5625,
                    "velocity": 0.3858267716535433,
                    "duration": 0.15625
                },
                {
                    "name": "F4",
                    "midi": 65,
                    "time": 296.71875,
                    "velocity": 0.3858267716535433,
                    "duration": 0.15625
                },
                {
                    "name": "E4",
                    "midi": 64,
                    "time": 296.875,
                    "velocity": 0.3858267716535433,
                    "duration": 0.9375
                },
                {
                    "name": "D4",
                    "midi": 62,
                    "time": 297.8125,
                    "velocity": 0.3858267716535433,
                    "duration": 0.3125
                },
                {
                    "name": "D4",
                    "midi": 62,
                    "time": 298.125,
                    "velocity": 0.3858267716535433,
                    "duration": 1.875
                },
                {
                    "name": "A5",
                    "midi": 81,
                    "time": 300.78125,
                    "velocity": 0.3858267716535433,
                    "duration": 0.15625
                },
                {
                    "name": "F5",
                    "midi": 77,
                    "time": 300.9375,
                    "velocity": 0.3858267716535433,
                    "duration": 0.15625
                },
                {
                    "name": "A5",
                    "midi": 81,
                    "time": 301.09375,
                    "velocity": 0.3858267716535433,
                    "duration": 0.15625
                },
                {
                    "name": "D5",
                    "midi": 74,
                    "time": 301.25,
                    "velocity": 0.3858267716535433,
                    "duration": 0.625
                },
                {
                    "name": "A5",
                    "midi": 81,
                    "time": 302.03125,
                    "velocity": 0.3858267716535433,
                    "duration": 0.15625
                },
                {
                    "name": "E5",
                    "midi": 76,
                    "time": 302.1875,
                    "velocity": 0.3858267716535433,
                    "duration": 0.15625
                },
                {
                    "name": "A5",
                    "midi": 81,
                    "time": 302.34375,
                    "velocity": 0.3858267716535433,
                    "duration": 0.15625
                },
                {
                    "name": "C#5",
                    "midi": 73,
                    "time": 302.5,
                    "velocity": 0.3858267716535433,
                    "duration": 0.625
                },
                {
                    "name": "A5",
                    "midi": 81,
                    "time": 303.28125,
                    "velocity": 0.3858267716535433,
                    "duration": 0.15625
                },
                {
                    "name": "E5",
                    "midi": 76,
                    "time": 303.4375,
                    "velocity": 0.3858267716535433,
                    "duration": 0.15625
                },
                {
                    "name": "A5",
                    "midi": 81,
                    "time": 303.59375,
                    "velocity": 0.3858267716535433,
                    "duration": 0.15625
                },
                {
                    "name": "F5",
                    "midi": 77,
                    "time": 303.75,
                    "velocity": 0.3858267716535433,
                    "duration": 0.625
                },
                {
                    "name": "A5",
                    "midi": 81,
                    "time": 304.53125,
                    "velocity": 0.3858267716535433,
                    "duration": 0.15625
                },
                {
                    "name": "F5",
                    "midi": 77,
                    "time": 304.6875,
                    "velocity": 0.3858267716535433,
                    "duration": 0.15625
                },
                {
                    "name": "A5",
                    "midi": 81,
                    "time": 304.84375,
                    "velocity": 0.3858267716535433,
                    "duration": 0.15625
                },
                {
                    "name": "D5",
                    "midi": 74,
                    "time": 305,
                    "velocity": 0.3858267716535433,
                    "duration": 0.625
                },
                {
                    "name": "C6",
                    "midi": 84,
                    "time": 305.78125,
                    "velocity": 0.3858267716535433,
                    "duration": 0.15625
                },
                {
                    "name": "G5",
                    "midi": 79,
                    "time": 305.9375,
                    "velocity": 0.3858267716535433,
                    "duration": 0.15625
                },
                {
                    "name": "C6",
                    "midi": 84,
                    "time": 306.09375,
                    "velocity": 0.3858267716535433,
                    "duration": 0.15625
                },
                {
                    "name": "E5",
                    "midi": 76,
                    "time": 306.25,
                    "velocity": 0.3858267716535433,
                    "duration": 0.625
                },
                {
                    "name": "C6",
                    "midi": 84,
                    "time": 307.03125,
                    "velocity": 0.3858267716535433,
                    "duration": 0.15625
                },
                {
                    "name": "G5",
                    "midi": 79,
                    "time": 307.1875,
                    "velocity": 0.3858267716535433,
                    "duration": 0.15625
                },
                {
                    "name": "C6",
                    "midi": 84,
                    "time": 307.34375,
                    "velocity": 0.3858267716535433,
                    "duration": 0.15625
                },
                {
                    "name": "A5",
                    "midi": 81,
                    "time": 307.5,
                    "velocity": 0.3858267716535433,
                    "duration": 0.625
                },
                {
                    "name": "C6",
                    "midi": 84,
                    "time": 308.28125,
                    "velocity": 0.3858267716535433,
                    "duration": 0.15625
                },
                {
                    "name": "A5",
                    "midi": 81,
                    "time": 308.4375,
                    "velocity": 0.3858267716535433,
                    "duration": 0.15625
                },
                {
                    "name": "C6",
                    "midi": 84,
                    "time": 308.59375,
                    "velocity": 0.3858267716535433,
                    "duration": 0.15625
                },
                {
                    "name": "F5",
                    "midi": 77,
                    "time": 308.75,
                    "velocity": 0.3858267716535433,
                    "duration": 0.625
                },
                {
                    "name": "C6",
                    "midi": 84,
                    "time": 309.53125,
                    "velocity": 0.3858267716535433,
                    "duration": 0.15625
                },
                {
                    "name": "G5",
                    "midi": 79,
                    "time": 309.6875,
                    "velocity": 0.3858267716535433,
                    "duration": 0.15625
                },
                {
                    "name": "C6",
                    "midi": 84,
                    "time": 309.84375,
                    "velocity": 0.3858267716535433,
                    "duration": 0.15625
                },
                {
                    "name": "E5",
                    "midi": 76,
                    "time": 310,
                    "velocity": 0.3858267716535433,
                    "duration": 0.625
                },
                {
                    "name": "G5",
                    "midi": 79,
                    "time": 310.78125,
                    "velocity": 0.3858267716535433,
                    "duration": 0.15625
                },
                {
                    "name": "E5",
                    "midi": 76,
                    "time": 310.9375,
                    "velocity": 0.3858267716535433,
                    "duration": 0.15625
                },
                {
                    "name": "G5",
                    "midi": 79,
                    "time": 311.09375,
                    "velocity": 0.3858267716535433,
                    "duration": 0.15625
                },
                {
                    "name": "F5",
                    "midi": 77,
                    "time": 311.25,
                    "velocity": 0.3858267716535433,
                    "duration": 0.625
                },
                {
                    "name": "F5",
                    "midi": 77,
                    "time": 312.03125,
                    "velocity": 0.3858267716535433,
                    "duration": 0.15625
                },
                {
                    "name": "D5",
                    "midi": 74,
                    "time": 312.1875,
                    "velocity": 0.3858267716535433,
                    "duration": 0.15625
                },
                {
                    "name": "F5",
                    "midi": 77,
                    "time": 312.34375,
                    "velocity": 0.3858267716535433,
                    "duration": 0.15625
                },
                {
                    "name": "A#4",
                    "midi": 70,
                    "time": 312.5,
                    "velocity": 0.3858267716535433,
                    "duration": 0.15625
                },
                {
                    "name": "F5",
                    "midi": 77,
                    "time": 312.65625,
                    "velocity": 0.3858267716535433,
                    "duration": 0.15625
                },
                {
                    "name": "D5",
                    "midi": 74,
                    "time": 312.8125,
                    "velocity": 0.3858267716535433,
                    "duration": 0.15625
                },
                {
                    "name": "F5",
                    "midi": 77,
                    "time": 312.96875,
                    "velocity": 0.3858267716535433,
                    "duration": 0.15625
                },
                {
                    "name": "E5",
                    "midi": 76,
                    "time": 313.125,
                    "velocity": 0.3858267716535433,
                    "duration": 0.15625
                },
                {
                    "name": "A5",
                    "midi": 81,
                    "time": 313.28125,
                    "velocity": 0.3858267716535433,
                    "duration": 0.15625
                },
                {
                    "name": "E5",
                    "midi": 76,
                    "time": 313.4375,
                    "velocity": 0.3858267716535433,
                    "duration": 0.15625
                },
                {
                    "name": "A5",
                    "midi": 81,
                    "time": 313.59375,
                    "velocity": 0.3858267716535433,
                    "duration": 0.15625
                },
                {
                    "name": "C#5",
                    "midi": 73,
                    "time": 313.75,
                    "velocity": 0.3858267716535433,
                    "duration": 0.625
                },
                {
                    "name": "A5",
                    "midi": 81,
                    "time": 314.53125,
                    "velocity": 0.3858267716535433,
                    "duration": 0.15625
                },
                {
                    "name": "E5",
                    "midi": 76,
                    "time": 314.6875,
                    "velocity": 0.3858267716535433,
                    "duration": 0.15625
                },
                {
                    "name": "A5",
                    "midi": 81,
                    "time": 314.84375,
                    "velocity": 0.3858267716535433,
                    "duration": 0.15625
                },
                {
                    "name": "F5",
                    "midi": 77,
                    "time": 315,
                    "velocity": 0.3858267716535433,
                    "duration": 0.625
                },
                {
                    "name": "A5",
                    "midi": 81,
                    "time": 315.78125,
                    "velocity": 0.3858267716535433,
                    "duration": 0.15625
                },
                {
                    "name": "F5",
                    "midi": 77,
                    "time": 315.9375,
                    "velocity": 0.3858267716535433,
                    "duration": 0.15625
                },
                {
                    "name": "A5",
                    "midi": 81,
                    "time": 316.09375,
                    "velocity": 0.3858267716535433,
                    "duration": 0.15625
                },
                {
                    "name": "D5",
                    "midi": 74,
                    "time": 316.25,
                    "velocity": 0.3858267716535433,
                    "duration": 0.625
                },
                {
                    "name": "A5",
                    "midi": 81,
                    "time": 317.03125,
                    "velocity": 0.3858267716535433,
                    "duration": 0.15625
                },
                {
                    "name": "E5",
                    "midi": 76,
                    "time": 317.1875,
                    "velocity": 0.3858267716535433,
                    "duration": 0.15625
                },
                {
                    "name": "A5",
                    "midi": 81,
                    "time": 317.34375,
                    "velocity": 0.3858267716535433,
                    "duration": 0.15625
                },
                {
                    "name": "C#5",
                    "midi": 73,
                    "time": 317.5,
                    "velocity": 0.3858267716535433,
                    "duration": 0.625
                },
                {
                    "name": "A5",
                    "midi": 81,
                    "time": 318.28125,
                    "velocity": 0.3858267716535433,
                    "duration": 0.15625
                },
                {
                    "name": "E5",
                    "midi": 76,
                    "time": 318.4375,
                    "velocity": 0.3858267716535433,
                    "duration": 0.15625
                },
                {
                    "name": "A5",
                    "midi": 81,
                    "time": 318.59375,
                    "velocity": 0.3858267716535433,
                    "duration": 0.15625
                },
                {
                    "name": "F5",
                    "midi": 77,
                    "time": 318.75,
                    "velocity": 0.3858267716535433,
                    "duration": 0.625
                },
                {
                    "name": "A5",
                    "midi": 81,
                    "time": 319.53125,
                    "velocity": 0.3858267716535433,
                    "duration": 0.15625
                },
                {
                    "name": "F5",
                    "midi": 77,
                    "time": 319.6875,
                    "velocity": 0.3858267716535433,
                    "duration": 0.15625
                },
                {
                    "name": "A5",
                    "midi": 81,
                    "time": 319.84375,
                    "velocity": 0.3858267716535433,
                    "duration": 0.15625
                },
                {
                    "name": "D5",
                    "midi": 74,
                    "time": 320,
                    "velocity": 0.3858267716535433,
                    "duration": 0.625
                },
                {
                    "name": "C6",
                    "midi": 84,
                    "time": 320.78125,
                    "velocity": 0.3858267716535433,
                    "duration": 0.15625
                },
                {
                    "name": "G5",
                    "midi": 79,
                    "time": 320.9375,
                    "velocity": 0.3858267716535433,
                    "duration": 0.15625
                },
                {
                    "name": "C6",
                    "midi": 84,
                    "time": 321.09375,
                    "velocity": 0.3858267716535433,
                    "duration": 0.15625
                },
                {
                    "name": "E5",
                    "midi": 76,
                    "time": 321.25,
                    "velocity": 0.3858267716535433,
                    "duration": 0.625
                },
                {
                    "name": "C6",
                    "midi": 84,
                    "time": 322.03125,
                    "velocity": 0.3858267716535433,
                    "duration": 0.15625
                },
                {
                    "name": "G5",
                    "midi": 79,
                    "time": 322.1875,
                    "velocity": 0.3858267716535433,
                    "duration": 0.15625
                },
                {
                    "name": "C6",
                    "midi": 84,
                    "time": 322.34375,
                    "velocity": 0.3858267716535433,
                    "duration": 0.15625
                },
                {
                    "name": "A5",
                    "midi": 81,
                    "time": 322.5,
                    "velocity": 0.3858267716535433,
                    "duration": 0.625
                },
                {
                    "name": "C6",
                    "midi": 84,
                    "time": 323.28125,
                    "velocity": 0.3858267716535433,
                    "duration": 0.15625
                },
                {
                    "name": "A5",
                    "midi": 81,
                    "time": 323.4375,
                    "velocity": 0.3858267716535433,
                    "duration": 0.15625
                },
                {
                    "name": "C6",
                    "midi": 84,
                    "time": 323.59375,
                    "velocity": 0.3858267716535433,
                    "duration": 0.15625
                },
                {
                    "name": "F5",
                    "midi": 77,
                    "time": 323.75,
                    "velocity": 0.3858267716535433,
                    "duration": 0.625
                },
                {
                    "name": "C6",
                    "midi": 84,
                    "time": 324.53125,
                    "velocity": 0.3858267716535433,
                    "duration": 0.15625
                },
                {
                    "name": "A5",
                    "midi": 81,
                    "time": 324.6875,
                    "velocity": 0.3858267716535433,
                    "duration": 0.15625
                },
                {
                    "name": "C6",
                    "midi": 84,
                    "time": 324.84375,
                    "velocity": 0.3858267716535433,
                    "duration": 0.15625
                },
                {
                    "name": "E5",
                    "midi": 76,
                    "time": 325,
                    "velocity": 0.3858267716535433,
                    "duration": 0.625
                },
                {
                    "name": "G5",
                    "midi": 79,
                    "time": 325.78125,
                    "velocity": 0.3858267716535433,
                    "duration": 0.15625
                },
                {
                    "name": "E5",
                    "midi": 76,
                    "time": 325.9375,
                    "velocity": 0.3858267716535433,
                    "duration": 0.15625
                },
                {
                    "name": "G5",
                    "midi": 79,
                    "time": 326.09375,
                    "velocity": 0.3858267716535433,
                    "duration": 0.15625
                },
                {
                    "name": "F5",
                    "midi": 77,
                    "time": 326.25,
                    "velocity": 0.3858267716535433,
                    "duration": 0.15625
                },
                {
                    "name": "D5",
                    "midi": 74,
                    "time": 326.40625,
                    "velocity": 0.3858267716535433,
                    "duration": 0.15625
                },
                {
                    "name": "A4",
                    "midi": 69,
                    "time": 326.5625,
                    "velocity": 0.3858267716535433,
                    "duration": 0.15625
                },
                {
                    "name": "D5",
                    "midi": 74,
                    "time": 326.71875,
                    "velocity": 0.3858267716535433,
                    "duration": 0.15625
                },
                {
                    "name": "E4",
                    "midi": 64,
                    "time": 326.875,
                    "velocity": 0.3858267716535433,
                    "duration": 0.15625
                },
                {
                    "name": "D5",
                    "midi": 74,
                    "time": 327.03125,
                    "velocity": 0.3858267716535433,
                    "duration": 0.15625
                },
                {
                    "name": "A4",
                    "midi": 69,
                    "time": 327.1875,
                    "velocity": 0.3858267716535433,
                    "duration": 0.15625
                },
                {
                    "name": "D5",
                    "midi": 74,
                    "time": 327.34375,
                    "velocity": 0.3858267716535433,
                    "duration": 0.15625
                },
                {
                    "name": "E4",
                    "midi": 64,
                    "time": 327.5,
                    "velocity": 0.3858267716535433,
                    "duration": 0.15625
                },
                {
                    "name": "C#5",
                    "midi": 73,
                    "time": 327.65625,
                    "velocity": 0.3858267716535433,
                    "duration": 0.15625
                },
                {
                    "name": "A4",
                    "midi": 69,
                    "time": 327.8125,
                    "velocity": 0.3858267716535433,
                    "duration": 0.15625
                },
                {
                    "name": "C#5",
                    "midi": 73,
                    "time": 327.96875,
                    "velocity": 0.3858267716535433,
                    "duration": 0.15625
                },
                {
                    "name": "D5",
                    "midi": 74,
                    "time": 328.125,
                    "velocity": 0.3858267716535433,
                    "duration": 1.875
                },
                {
                    "name": "F4",
                    "midi": 65,
                    "time": 330,
                    "velocity": 0.3858267716535433,
                    "duration": 1.25
                },
                {
                    "name": "A#4",
                    "midi": 70,
                    "time": 331.25,
                    "velocity": 0.3858267716535433,
                    "duration": 0.625
                },
                {
                    "name": "E4",
                    "midi": 64,
                    "time": 331.875,
                    "velocity": 0.3858267716535433,
                    "duration": 1.25
                },
                {
                    "name": "E4",
                    "midi": 64,
                    "time": 333.125,
                    "velocity": 0.3858267716535433,
                    "duration": 0.625
                },
                {
                    "name": "F4",
                    "midi": 65,
                    "time": 333.75,
                    "velocity": 0.3858267716535433,
                    "duration": 1.25
                },
                {
                    "name": "F4",
                    "midi": 65,
                    "time": 335,
                    "velocity": 0.3858267716535433,
                    "duration": 0.625
                },
                {
                    "name": "G4",
                    "midi": 67,
                    "time": 335.625,
                    "velocity": 0.3858267716535433,
                    "duration": 1.25
                },
                {
                    "name": "G4",
                    "midi": 67,
                    "time": 336.875,
                    "velocity": 0.3858267716535433,
                    "duration": 0.625
                },
                {
                    "name": "A4",
                    "midi": 69,
                    "time": 337.5,
                    "velocity": 0.3858267716535433,
                    "duration": 0.625
                },
                {
                    "name": "A#4",
                    "midi": 70,
                    "time": 338.125,
                    "velocity": 0.3858267716535433,
                    "duration": 0.9375
                },
                {
                    "name": "A4",
                    "midi": 69,
                    "time": 339.0625,
                    "velocity": 0.3858267716535433,
                    "duration": 0.3125
                },
                {
                    "name": "G4",
                    "midi": 67,
                    "time": 339.375,
                    "velocity": 0.3858267716535433,
                    "duration": 0.625
                },
                {
                    "name": "A4",
                    "midi": 69,
                    "time": 340,
                    "velocity": 0.3858267716535433,
                    "duration": 0.9375
                },
                {
                    "name": "G4",
                    "midi": 67,
                    "time": 340.9375,
                    "velocity": 0.3858267716535433,
                    "duration": 0.3125
                },
                {
                    "name": "F4",
                    "midi": 65,
                    "time": 341.25,
                    "velocity": 0.3858267716535433,
                    "duration": 0.625
                },
                {
                    "name": "G4",
                    "midi": 67,
                    "time": 341.875,
                    "velocity": 0.3858267716535433,
                    "duration": 0.9375
                },
                {
                    "name": "F4",
                    "midi": 65,
                    "time": 342.8125,
                    "velocity": 0.3858267716535433,
                    "duration": 0.3125
                },
                {
                    "name": "E4",
                    "midi": 64,
                    "time": 343.125,
                    "velocity": 0.3858267716535433,
                    "duration": 1.875
                },
                {
                    "name": "F4",
                    "midi": 65,
                    "time": 345,
                    "velocity": 0.3858267716535433,
                    "duration": 1.25
                },
                {
                    "name": "A#4",
                    "midi": 70,
                    "time": 346.25,
                    "velocity": 0.3858267716535433,
                    "duration": 0.625
                },
                {
                    "name": "E4",
                    "midi": 64,
                    "time": 346.875,
                    "velocity": 0.3858267716535433,
                    "duration": 1.25
                },
                {
                    "name": "E4",
                    "midi": 64,
                    "time": 348.125,
                    "velocity": 0.3858267716535433,
                    "duration": 0.625
                },
                {
                    "name": "F4",
                    "midi": 65,
                    "time": 348.75,
                    "velocity": 0.3858267716535433,
                    "duration": 1.25
                },
                {
                    "name": "F4",
                    "midi": 65,
                    "time": 350,
                    "velocity": 0.3858267716535433,
                    "duration": 0.625
                },
                {
                    "name": "G4",
                    "midi": 67,
                    "time": 350.625,
                    "velocity": 0.3858267716535433,
                    "duration": 1.25
                },
                {
                    "name": "G4",
                    "midi": 67,
                    "time": 351.875,
                    "velocity": 0.3858267716535433,
                    "duration": 0.625
                },
                {
                    "name": "F4",
                    "midi": 65,
                    "time": 352.5,
                    "velocity": 0.3858267716535433,
                    "duration": 0.625
                },
                {
                    "name": "A#4",
                    "midi": 70,
                    "time": 353.125,
                    "velocity": 0.3858267716535433,
                    "duration": 0.625
                },
                {
                    "name": "G4",
                    "midi": 67,
                    "time": 353.75,
                    "velocity": 0.3858267716535433,
                    "duration": 0.625
                },
                {
                    "name": "E4",
                    "midi": 64,
                    "time": 354.375,
                    "velocity": 0.3858267716535433,
                    "duration": 0.625
                },
                {
                    "name": "E5",
                    "midi": 76,
                    "time": 355,
                    "velocity": 0.3858267716535433,
                    "duration": 0.625
                },
                {
                    "name": "A4",
                    "midi": 69,
                    "time": 355.625,
                    "velocity": 0.3858267716535433,
                    "duration": 0.625
                },
                {
                    "name": "F5",
                    "midi": 77,
                    "time": 356.25,
                    "velocity": 0.3858267716535433,
                    "duration": 0.3125
                },
                {
                    "name": "D5",
                    "midi": 74,
                    "time": 356.5625,
                    "velocity": 0.3858267716535433,
                    "duration": 0.3125
                },
                {
                    "name": "C#5",
                    "midi": 73,
                    "time": 356.875,
                    "velocity": 0.3858267716535433,
                    "duration": 0.9375
                },
                {
                    "name": "D5",
                    "midi": 74,
                    "time": 357.8125,
                    "velocity": 0.3858267716535433,
                    "duration": 0.3125
                },
                {
                    "name": "D5",
                    "midi": 74,
                    "time": 358.125,
                    "velocity": 0.3858267716535433,
                    "duration": 1.875
                },
                {
                    "name": "D5",
                    "midi": 74,
                    "time": 360,
                    "velocity": 0.3858267716535433,
                    "duration": 0.3125
                },
                {
                    "name": "C#5",
                    "midi": 73,
                    "time": 360.3125,
                    "velocity": 0.3858267716535433,
                    "duration": 0.3125
                },
                {
                    "name": "D5",
                    "midi": 74,
                    "time": 360.625,
                    "velocity": 0.3858267716535433,
                    "duration": 0.3125
                },
                {
                    "name": "D5",
                    "midi": 74,
                    "time": 360.9375,
                    "velocity": 0.3858267716535433,
                    "duration": 0.3125
                },
                {
                    "name": "C#5",
                    "midi": 73,
                    "time": 361.25,
                    "velocity": 0.3858267716535433,
                    "duration": 0.3125
                },
                {
                    "name": "D5",
                    "midi": 74,
                    "time": 361.5625,
                    "velocity": 0.3858267716535433,
                    "duration": 0.3125
                },
                {
                    "name": "D5",
                    "midi": 74,
                    "time": 361.875,
                    "velocity": 0.3858267716535433,
                    "duration": 0.3125
                },
                {
                    "name": "E5",
                    "midi": 76,
                    "time": 362.1875,
                    "velocity": 0.3858267716535433,
                    "duration": 0.3125
                },
                {
                    "name": "D5",
                    "midi": 74,
                    "time": 362.5,
                    "velocity": 0.3858267716535433,
                    "duration": 0.3125
                },
                {
                    "name": "C#5",
                    "midi": 73,
                    "time": 362.8125,
                    "velocity": 0.3858267716535433,
                    "duration": 0.3125
                },
                {
                    "name": "B4",
                    "midi": 71,
                    "time": 363.125,
                    "velocity": 0.3858267716535433,
                    "duration": 0.3125
                },
                {
                    "name": "C#5",
                    "midi": 73,
                    "time": 363.4375,
                    "velocity": 0.3858267716535433,
                    "duration": 0.3125
                },
                {
                    "name": "C#5",
                    "midi": 73,
                    "time": 363.75,
                    "velocity": 0.3858267716535433,
                    "duration": 0.3125
                },
                {
                    "name": "B4",
                    "midi": 71,
                    "time": 364.0625,
                    "velocity": 0.3858267716535433,
                    "duration": 0.3125
                },
                {
                    "name": "C#5",
                    "midi": 73,
                    "time": 364.375,
                    "velocity": 0.3858267716535433,
                    "duration": 0.3125
                },
                {
                    "name": "C#5",
                    "midi": 73,
                    "time": 364.6875,
                    "velocity": 0.3858267716535433,
                    "duration": 0.3125
                },
                {
                    "name": "B4",
                    "midi": 71,
                    "time": 365,
                    "velocity": 0.3858267716535433,
                    "duration": 0.3125
                },
                {
                    "name": "C#5",
                    "midi": 73,
                    "time": 365.3125,
                    "velocity": 0.3858267716535433,
                    "duration": 0.3125
                },
                {
                    "name": "D5",
                    "midi": 74,
                    "time": 365.625,
                    "velocity": 0.3858267716535433,
                    "duration": 0.3125
                },
                {
                    "name": "C#5",
                    "midi": 73,
                    "time": 365.9375,
                    "velocity": 0.3858267716535433,
                    "duration": 0.3125
                },
                {
                    "name": "D5",
                    "midi": 74,
                    "time": 366.25,
                    "velocity": 0.3858267716535433,
                    "duration": 0.3125
                },
                {
                    "name": "D5",
                    "midi": 74,
                    "time": 366.5625,
                    "velocity": 0.3858267716535433,
                    "duration": 0.3125
                },
                {
                    "name": "C#5",
                    "midi": 73,
                    "time": 366.875,
                    "velocity": 0.3858267716535433,
                    "duration": 0.3125
                },
                {
                    "name": "D5",
                    "midi": 74,
                    "time": 367.1875,
                    "velocity": 0.3858267716535433,
                    "duration": 0.3125
                },
                {
                    "name": "D5",
                    "midi": 74,
                    "time": 367.5,
                    "velocity": 0.3858267716535433,
                    "duration": 0.3125
                },
                {
                    "name": "E5",
                    "midi": 76,
                    "time": 367.8125,
                    "velocity": 0.3858267716535433,
                    "duration": 0.3125
                },
                {
                    "name": "D5",
                    "midi": 74,
                    "time": 368.125,
                    "velocity": 0.3858267716535433,
                    "duration": 0.3125
                },
                {
                    "name": "D5",
                    "midi": 74,
                    "time": 368.4375,
                    "velocity": 0.3858267716535433,
                    "duration": 0.3125
                },
                {
                    "name": "C#5",
                    "midi": 73,
                    "time": 368.75,
                    "velocity": 0.3858267716535433,
                    "duration": 0.3125
                },
                {
                    "name": "D5",
                    "midi": 74,
                    "time": 369.0625,
                    "velocity": 0.3858267716535433,
                    "duration": 0.3125
                },
                {
                    "name": "D5",
                    "midi": 74,
                    "time": 369.375,
                    "velocity": 0.3858267716535433,
                    "duration": 0.3125
                },
                {
                    "name": "C#5",
                    "midi": 73,
                    "time": 369.6875,
                    "velocity": 0.3858267716535433,
                    "duration": 0.3125
                },
                {
                    "name": "D5",
                    "midi": 74,
                    "time": 370,
                    "velocity": 0.3858267716535433,
                    "duration": 0.3125
                },
                {
                    "name": "D5",
                    "midi": 74,
                    "time": 370.3125,
                    "velocity": 0.3858267716535433,
                    "duration": 0.3125
                },
                {
                    "name": "E5",
                    "midi": 76,
                    "time": 370.625,
                    "velocity": 0.3858267716535433,
                    "duration": 0.3125
                },
                {
                    "name": "D5",
                    "midi": 74,
                    "time": 370.9375,
                    "velocity": 0.3858267716535433,
                    "duration": 0.3125
                },
                {
                    "name": "F5",
                    "midi": 77,
                    "time": 371.25,
                    "velocity": 0.3858267716535433,
                    "duration": 0.3125
                },
                {
                    "name": "E5",
                    "midi": 76,
                    "time": 371.5625,
                    "velocity": 0.3858267716535433,
                    "duration": 0.3125
                },
                {
                    "name": "F5",
                    "midi": 77,
                    "time": 371.875,
                    "velocity": 0.3858267716535433,
                    "duration": 0.3125
                },
                {
                    "name": "F5",
                    "midi": 77,
                    "time": 372.1875,
                    "velocity": 0.3858267716535433,
                    "duration": 0.3125
                },
                {
                    "name": "E5",
                    "midi": 76,
                    "time": 372.5,
                    "velocity": 0.3858267716535433,
                    "duration": 0.3125
                },
                {
                    "name": "F5",
                    "midi": 77,
                    "time": 372.8125,
                    "velocity": 0.3858267716535433,
                    "duration": 0.3125
                },
                {
                    "name": "F5",
                    "midi": 77,
                    "time": 373.125,
                    "velocity": 0.3858267716535433,
                    "duration": 0.3125
                },
                {
                    "name": "G5",
                    "midi": 79,
                    "time": 373.4375,
                    "velocity": 0.3858267716535433,
                    "duration": 0.3125
                },
                {
                    "name": "F5",
                    "midi": 77,
                    "time": 373.75,
                    "velocity": 0.3858267716535433,
                    "duration": 0.3125
                },
                {
                    "name": "E5",
                    "midi": 76,
                    "time": 374.0625,
                    "velocity": 0.3858267716535433,
                    "duration": 0.3125
                },
                {
                    "name": "D5",
                    "midi": 74,
                    "time": 374.375,
                    "velocity": 0.3858267716535433,
                    "duration": 0.3125
                },
                {
                    "name": "E5",
                    "midi": 76,
                    "time": 374.6875,
                    "velocity": 0.3858267716535433,
                    "duration": 0.3125
                },
                {
                    "name": "E5",
                    "midi": 76,
                    "time": 375,
                    "velocity": 0.3858267716535433,
                    "duration": 0.3125
                },
                {
                    "name": "D5",
                    "midi": 74,
                    "time": 375.3125,
                    "velocity": 0.3858267716535433,
                    "duration": 0.3125
                },
                {
                    "name": "E5",
                    "midi": 76,
                    "time": 375.625,
                    "velocity": 0.3858267716535433,
                    "duration": 0.3125
                },
                {
                    "name": "E5",
                    "midi": 76,
                    "time": 375.9375,
                    "velocity": 0.3858267716535433,
                    "duration": 0.3125
                },
                {
                    "name": "F5",
                    "midi": 77,
                    "time": 376.25,
                    "velocity": 0.3858267716535433,
                    "duration": 0.3125
                },
                {
                    "name": "E5",
                    "midi": 76,
                    "time": 376.5625,
                    "velocity": 0.3858267716535433,
                    "duration": 0.3125
                },
                {
                    "name": "D5",
                    "midi": 74,
                    "time": 376.875,
                    "velocity": 0.3858267716535433,
                    "duration": 0.3125
                },
                {
                    "name": "C#5",
                    "midi": 73,
                    "time": 377.1875,
                    "velocity": 0.3858267716535433,
                    "duration": 0.3125
                },
                {
                    "name": "D5",
                    "midi": 74,
                    "time": 377.5,
                    "velocity": 0.3858267716535433,
                    "duration": 0.3125
                },
                {
                    "name": "D5",
                    "midi": 74,
                    "time": 377.8125,
                    "velocity": 0.3858267716535433,
                    "duration": 0.3125
                },
                {
                    "name": "C#5",
                    "midi": 73,
                    "time": 378.125,
                    "velocity": 0.3858267716535433,
                    "duration": 0.3125
                },
                {
                    "name": "D5",
                    "midi": 74,
                    "time": 378.4375,
                    "velocity": 0.3858267716535433,
                    "duration": 0.3125
                },
                {
                    "name": "D5",
                    "midi": 74,
                    "time": 378.75,
                    "velocity": 0.3858267716535433,
                    "duration": 0.3125
                },
                {
                    "name": "E5",
                    "midi": 76,
                    "time": 379.0625,
                    "velocity": 0.3858267716535433,
                    "duration": 0.3125
                },
                {
                    "name": "D5",
                    "midi": 74,
                    "time": 379.375,
                    "velocity": 0.3858267716535433,
                    "duration": 0.3125
                },
                {
                    "name": "C#5",
                    "midi": 73,
                    "time": 379.6875,
                    "velocity": 0.3858267716535433,
                    "duration": 0.3125
                },
                {
                    "name": "B4",
                    "midi": 71,
                    "time": 380,
                    "velocity": 0.3858267716535433,
                    "duration": 0.3125
                },
                {
                    "name": "C#5",
                    "midi": 73,
                    "time": 380.3125,
                    "velocity": 0.3858267716535433,
                    "duration": 0.3125
                },
                {
                    "name": "C#5",
                    "midi": 73,
                    "time": 380.625,
                    "velocity": 0.3858267716535433,
                    "duration": 0.3125
                },
                {
                    "name": "B4",
                    "midi": 71,
                    "time": 380.9375,
                    "velocity": 0.3858267716535433,
                    "duration": 0.3125
                },
                {
                    "name": "C#5",
                    "midi": 73,
                    "time": 381.25,
                    "velocity": 0.3858267716535433,
                    "duration": 0.3125
                },
                {
                    "name": "C#5",
                    "midi": 73,
                    "time": 381.5625,
                    "velocity": 0.3858267716535433,
                    "duration": 0.3125
                },
                {
                    "name": "B4",
                    "midi": 71,
                    "time": 381.875,
                    "velocity": 0.3858267716535433,
                    "duration": 0.3125
                },
                {
                    "name": "C#5",
                    "midi": 73,
                    "time": 382.1875,
                    "velocity": 0.3858267716535433,
                    "duration": 0.3125
                },
                {
                    "name": "D5",
                    "midi": 74,
                    "time": 382.5,
                    "velocity": 0.3858267716535433,
                    "duration": 0.3125
                },
                {
                    "name": "C#5",
                    "midi": 73,
                    "time": 382.8125,
                    "velocity": 0.3858267716535433,
                    "duration": 0.3125
                },
                {
                    "name": "D5",
                    "midi": 74,
                    "time": 383.125,
                    "velocity": 0.3858267716535433,
                    "duration": 0.3125
                },
                {
                    "name": "D5",
                    "midi": 74,
                    "time": 383.4375,
                    "velocity": 0.3858267716535433,
                    "duration": 0.3125
                },
                {
                    "name": "C#5",
                    "midi": 73,
                    "time": 383.75,
                    "velocity": 0.3858267716535433,
                    "duration": 0.3125
                },
                {
                    "name": "D5",
                    "midi": 74,
                    "time": 384.0625,
                    "velocity": 0.3858267716535433,
                    "duration": 0.3125
                },
                {
                    "name": "D5",
                    "midi": 74,
                    "time": 384.375,
                    "velocity": 0.3858267716535433,
                    "duration": 0.3125
                },
                {
                    "name": "E5",
                    "midi": 76,
                    "time": 384.6875,
                    "velocity": 0.3858267716535433,
                    "duration": 0.3125
                },
                {
                    "name": "D5",
                    "midi": 74,
                    "time": 385,
                    "velocity": 0.3858267716535433,
                    "duration": 0.3125
                },
                {
                    "name": "C#5",
                    "midi": 73,
                    "time": 385.3125,
                    "velocity": 0.3858267716535433,
                    "duration": 0.3125
                },
                {
                    "name": "B4",
                    "midi": 71,
                    "time": 385.625,
                    "velocity": 0.3858267716535433,
                    "duration": 0.3125
                },
                {
                    "name": "C#5",
                    "midi": 73,
                    "time": 385.9375,
                    "velocity": 0.3858267716535433,
                    "duration": 0.3125
                },
                {
                    "name": "C#5",
                    "midi": 73,
                    "time": 386.25,
                    "velocity": 0.3858267716535433,
                    "duration": 0.3125
                },
                {
                    "name": "B4",
                    "midi": 71,
                    "time": 386.5625,
                    "velocity": 0.3858267716535433,
                    "duration": 0.3125
                },
                {
                    "name": "C#5",
                    "midi": 73,
                    "time": 386.875,
                    "velocity": 0.3858267716535433,
                    "duration": 0.3125
                },
                {
                    "name": "C#5",
                    "midi": 73,
                    "time": 387.1875,
                    "velocity": 0.3858267716535433,
                    "duration": 0.3125
                },
                {
                    "name": "B4",
                    "midi": 71,
                    "time": 387.5,
                    "velocity": 0.3858267716535433,
                    "duration": 0.3125
                },
                {
                    "name": "C#5",
                    "midi": 73,
                    "time": 387.8125,
                    "velocity": 0.3858267716535433,
                    "duration": 0.3125
                },
                {
                    "name": "D5",
                    "midi": 74,
                    "time": 388.125,
                    "velocity": 0.3858267716535433,
                    "duration": 0.3125
                },
                {
                    "name": "C#5",
                    "midi": 73,
                    "time": 388.4375,
                    "velocity": 0.3858267716535433,
                    "duration": 0.3125
                },
                {
                    "name": "D5",
                    "midi": 74,
                    "time": 388.75,
                    "velocity": 0.3858267716535433,
                    "duration": 0.3125
                },
                {
                    "name": "D5",
                    "midi": 74,
                    "time": 389.0625,
                    "velocity": 0.3858267716535433,
                    "duration": 0.3125
                },
                {
                    "name": "C#5",
                    "midi": 73,
                    "time": 389.375,
                    "velocity": 0.3858267716535433,
                    "duration": 0.3125
                },
                {
                    "name": "D5",
                    "midi": 74,
                    "time": 389.6875,
                    "velocity": 0.3858267716535433,
                    "duration": 0.3125
                },
                {
                    "name": "D5",
                    "midi": 74,
                    "time": 390,
                    "velocity": 0.3858267716535433,
                    "duration": 0.3125
                },
                {
                    "name": "C#5",
                    "midi": 73,
                    "time": 390.3125,
                    "velocity": 0.3858267716535433,
                    "duration": 0.3125
                },
                {
                    "name": "D5",
                    "midi": 74,
                    "time": 390.625,
                    "velocity": 0.3858267716535433,
                    "duration": 0.3125
                },
                {
                    "name": "E5",
                    "midi": 76,
                    "time": 390.9375,
                    "velocity": 0.3858267716535433,
                    "duration": 0.3125
                },
                {
                    "name": "D5",
                    "midi": 74,
                    "time": 391.25,
                    "velocity": 0.3858267716535433,
                    "duration": 0.3125
                },
                {
                    "name": "E5",
                    "midi": 76,
                    "time": 391.5625,
                    "velocity": 0.3858267716535433,
                    "duration": 0.3125
                },
                {
                    "name": "E5",
                    "midi": 76,
                    "time": 391.875,
                    "velocity": 0.3858267716535433,
                    "duration": 0.3125
                },
                {
                    "name": "D5",
                    "midi": 74,
                    "time": 392.1875,
                    "velocity": 0.3858267716535433,
                    "duration": 0.3125
                },
                {
                    "name": "E5",
                    "midi": 76,
                    "time": 392.5,
                    "velocity": 0.3858267716535433,
                    "duration": 0.3125
                },
                {
                    "name": "E5",
                    "midi": 76,
                    "time": 392.8125,
                    "velocity": 0.3858267716535433,
                    "duration": 0.3125
                },
                {
                    "name": "D5",
                    "midi": 74,
                    "time": 393.125,
                    "velocity": 0.3858267716535433,
                    "duration": 0.3125
                },
                {
                    "name": "E5",
                    "midi": 76,
                    "time": 393.4375,
                    "velocity": 0.3858267716535433,
                    "duration": 0.3125
                },
                {
                    "name": "F5",
                    "midi": 77,
                    "time": 393.75,
                    "velocity": 0.3858267716535433,
                    "duration": 0.3125
                },
                {
                    "name": "E5",
                    "midi": 76,
                    "time": 394.0625,
                    "velocity": 0.3858267716535433,
                    "duration": 0.3125
                },
                {
                    "name": "F5",
                    "midi": 77,
                    "time": 394.375,
                    "velocity": 0.3858267716535433,
                    "duration": 0.3125
                },
                {
                    "name": "F5",
                    "midi": 77,
                    "time": 394.6875,
                    "velocity": 0.3858267716535433,
                    "duration": 0.3125
                },
                {
                    "name": "E5",
                    "midi": 76,
                    "time": 395,
                    "velocity": 0.3858267716535433,
                    "duration": 0.3125
                },
                {
                    "name": "F5",
                    "midi": 77,
                    "time": 395.3125,
                    "velocity": 0.3858267716535433,
                    "duration": 0.3125
                },
                {
                    "name": "F5",
                    "midi": 77,
                    "time": 395.625,
                    "velocity": 0.3858267716535433,
                    "duration": 0.3125
                },
                {
                    "name": "G5",
                    "midi": 79,
                    "time": 395.9375,
                    "velocity": 0.3858267716535433,
                    "duration": 0.3125
                },
                {
                    "name": "F5",
                    "midi": 77,
                    "time": 396.25,
                    "velocity": 0.3858267716535433,
                    "duration": 0.3125
                },
                {
                    "name": "E5",
                    "midi": 76,
                    "time": 396.5625,
                    "velocity": 0.3858267716535433,
                    "duration": 0.3125
                },
                {
                    "name": "D5",
                    "midi": 74,
                    "time": 396.875,
                    "velocity": 0.3858267716535433,
                    "duration": 0.3125
                },
                {
                    "name": "E5",
                    "midi": 76,
                    "time": 397.1875,
                    "velocity": 0.3858267716535433,
                    "duration": 0.3125
                },
                {
                    "name": "E5",
                    "midi": 76,
                    "time": 397.5,
                    "velocity": 0.3858267716535433,
                    "duration": 0.3125
                },
                {
                    "name": "D5",
                    "midi": 74,
                    "time": 397.8125,
                    "velocity": 0.3858267716535433,
                    "duration": 0.3125
                },
                {
                    "name": "E5",
                    "midi": 76,
                    "time": 398.125,
                    "velocity": 0.3858267716535433,
                    "duration": 0.3125
                },
                {
                    "name": "E5",
                    "midi": 76,
                    "time": 398.4375,
                    "velocity": 0.3858267716535433,
                    "duration": 0.3125
                },
                {
                    "name": "F5",
                    "midi": 77,
                    "time": 398.75,
                    "velocity": 0.3858267716535433,
                    "duration": 0.3125
                },
                {
                    "name": "E5",
                    "midi": 76,
                    "time": 399.0625,
                    "velocity": 0.3858267716535433,
                    "duration": 0.3125
                },
                {
                    "name": "F5",
                    "midi": 77,
                    "time": 399.375,
                    "velocity": 0.3858267716535433,
                    "duration": 0.3125
                },
                {
                    "name": "E5",
                    "midi": 76,
                    "time": 399.6875,
                    "velocity": 0.3858267716535433,
                    "duration": 0.3125
                },
                {
                    "name": "D5",
                    "midi": 74,
                    "time": 400,
                    "velocity": 0.3858267716535433,
                    "duration": 0.3125
                },
                {
                    "name": "C#5",
                    "midi": 73,
                    "time": 400.3125,
                    "velocity": 0.3858267716535433,
                    "duration": 1.5625
                },
                {
                    "name": "D5",
                    "midi": 74,
                    "time": 401.875,
                    "velocity": 0.3858267716535433,
                    "duration": 0.3125
                },
                {
                    "name": "D5",
                    "midi": 74,
                    "time": 402.1875,
                    "velocity": 0.3858267716535433,
                    "duration": 2.8125
                },
                {
                    "name": "D5",
                    "midi": 74,
                    "time": 405,
                    "velocity": 0.3858267716535433,
                    "duration": 0.9375
                },
                {
                    "name": "C#5",
                    "midi": 73,
                    "time": 407.8125,
                    "velocity": 0.3858267716535433,
                    "duration": 0.9375
                },
                {
                    "name": "D5",
                    "midi": 74,
                    "time": 410.625,
                    "velocity": 0.3858267716535433,
                    "duration": 0.9375
                },
                {
                    "name": "E5",
                    "midi": 76,
                    "time": 413.4375,
                    "velocity": 0.3858267716535433,
                    "duration": 0.9375
                },
                {
                    "name": "F5",
                    "midi": 77,
                    "time": 416.25,
                    "velocity": 0.3858267716535433,
                    "duration": 0.9375
                },
                {
                    "name": "E5",
                    "midi": 76,
                    "time": 419.0625,
                    "velocity": 0.3858267716535433,
                    "duration": 0.9375
                },
                {
                    "name": "D5",
                    "midi": 74,
                    "time": 421.875,
                    "velocity": 0.3858267716535433,
                    "duration": 0.9375
                },
                {
                    "name": "C#5",
                    "midi": 73,
                    "time": 424.6875,
                    "velocity": 0.3858267716535433,
                    "duration": 0.9375
                },
                {
                    "name": "D5",
                    "midi": 74,
                    "time": 427.5,
                    "velocity": 0.3858267716535433,
                    "duration": 0.9375
                },
                {
                    "name": "C#5",
                    "midi": 73,
                    "time": 430.3125,
                    "velocity": 0.3858267716535433,
                    "duration": 0.9375
                },
                {
                    "name": "D5",
                    "midi": 74,
                    "time": 433.125,
                    "velocity": 0.3858267716535433,
                    "duration": 0.9375
                },
                {
                    "name": "E5",
                    "midi": 76,
                    "time": 435.9375,
                    "velocity": 0.3858267716535433,
                    "duration": 0.9375
                },
                {
                    "name": "F5",
                    "midi": 77,
                    "time": 438.75,
                    "velocity": 0.3858267716535433,
                    "duration": 0.9375
                },
                {
                    "name": "E5",
                    "midi": 76,
                    "time": 441.5625,
                    "velocity": 0.3858267716535433,
                    "duration": 0.9375
                },
                {
                    "name": "D5",
                    "midi": 74,
                    "time": 444.375,
                    "velocity": 0.3858267716535433,
                    "duration": 0.9375
                },
                {
                    "name": "D5",
                    "midi": 74,
                    "time": 445.3125,
                    "velocity": 0.3858267716535433,
                    "duration": 1.5625
                },
                {
                    "name": "C#5",
                    "midi": 73,
                    "time": 446.875,
                    "velocity": 0.3858267716535433,
                    "duration": 0.3125
                },
                {
                    "name": "D5",
                    "midi": 74,
                    "time": 447.1875,
                    "velocity": 0.3858267716535433,
                    "duration": 2.8125
                },
                {
                    "name": "F4",
                    "midi": 65,
                    "time": 450,
                    "velocity": 0.3858267716535433,
                    "duration": 0.625
                },
                {
                    "name": "F4",
                    "midi": 65,
                    "time": 450.625,
                    "velocity": 0.3858267716535433,
                    "duration": 0.3125
                },
                {
                    "name": "F4",
                    "midi": 65,
                    "time": 450.9375,
                    "velocity": 0.3858267716535433,
                    "duration": 0.625
                },
                {
                    "name": "F4",
                    "midi": 65,
                    "time": 451.5625,
                    "velocity": 0.3858267716535433,
                    "duration": 0.3125
                },
                {
                    "name": "E4",
                    "midi": 64,
                    "time": 451.875,
                    "velocity": 0.3858267716535433,
                    "duration": 0.625
                },
                {
                    "name": "E4",
                    "midi": 64,
                    "time": 452.5,
                    "velocity": 0.3858267716535433,
                    "duration": 0.3125
                },
                {
                    "name": "E4",
                    "midi": 64,
                    "time": 452.8125,
                    "velocity": 0.3858267716535433,
                    "duration": 0.625
                },
                {
                    "name": "E4",
                    "midi": 64,
                    "time": 453.4375,
                    "velocity": 0.3858267716535433,
                    "duration": 0.3125
                },
                {
                    "name": "F4",
                    "midi": 65,
                    "time": 453.75,
                    "velocity": 0.3858267716535433,
                    "duration": 0.625
                },
                {
                    "name": "F4",
                    "midi": 65,
                    "time": 454.375,
                    "velocity": 0.3858267716535433,
                    "duration": 0.3125
                },
                {
                    "name": "F4",
                    "midi": 65,
                    "time": 454.6875,
                    "velocity": 0.3858267716535433,
                    "duration": 0.625
                },
                {
                    "name": "F4",
                    "midi": 65,
                    "time": 455.3125,
                    "velocity": 0.3858267716535433,
                    "duration": 0.3125
                },
                {
                    "name": "G4",
                    "midi": 67,
                    "time": 455.625,
                    "velocity": 0.3858267716535433,
                    "duration": 0.625
                },
                {
                    "name": "G4",
                    "midi": 67,
                    "time": 456.25,
                    "velocity": 0.3858267716535433,
                    "duration": 0.3125
                },
                {
                    "name": "G4",
                    "midi": 67,
                    "time": 456.5625,
                    "velocity": 0.3858267716535433,
                    "duration": 0.625
                },
                {
                    "name": "G4",
                    "midi": 67,
                    "time": 457.1875,
                    "velocity": 0.3858267716535433,
                    "duration": 0.3125
                },
                {
                    "name": "A4",
                    "midi": 69,
                    "time": 457.5,
                    "velocity": 0.3858267716535433,
                    "duration": 0.625
                },
                {
                    "name": "A4",
                    "midi": 69,
                    "time": 458.125,
                    "velocity": 0.3858267716535433,
                    "duration": 0.3125
                },
                {
                    "name": "A4",
                    "midi": 69,
                    "time": 458.4375,
                    "velocity": 0.3858267716535433,
                    "duration": 0.625
                },
                {
                    "name": "A4",
                    "midi": 69,
                    "time": 459.0625,
                    "velocity": 0.3858267716535433,
                    "duration": 0.3125
                },
                {
                    "name": "G4",
                    "midi": 67,
                    "time": 459.375,
                    "velocity": 0.3858267716535433,
                    "duration": 0.625
                },
                {
                    "name": "G4",
                    "midi": 67,
                    "time": 460,
                    "velocity": 0.3858267716535433,
                    "duration": 0.3125
                },
                {
                    "name": "G4",
                    "midi": 67,
                    "time": 460.3125,
                    "velocity": 0.3858267716535433,
                    "duration": 0.625
                },
                {
                    "name": "G4",
                    "midi": 67,
                    "time": 460.9375,
                    "velocity": 0.3858267716535433,
                    "duration": 0.3125
                },
                {
                    "name": "F4",
                    "midi": 65,
                    "time": 461.25,
                    "velocity": 0.3858267716535433,
                    "duration": 0.625
                },
                {
                    "name": "F4",
                    "midi": 65,
                    "time": 461.875,
                    "velocity": 0.3858267716535433,
                    "duration": 0.3125
                },
                {
                    "name": "F4",
                    "midi": 65,
                    "time": 462.1875,
                    "velocity": 0.3858267716535433,
                    "duration": 0.625
                },
                {
                    "name": "F4",
                    "midi": 65,
                    "time": 462.8125,
                    "velocity": 0.3858267716535433,
                    "duration": 0.3125
                },
                {
                    "name": "E4",
                    "midi": 64,
                    "time": 463.125,
                    "velocity": 0.3858267716535433,
                    "duration": 0.625
                },
                {
                    "name": "E4",
                    "midi": 64,
                    "time": 463.75,
                    "velocity": 0.3858267716535433,
                    "duration": 0.3125
                },
                {
                    "name": "E4",
                    "midi": 64,
                    "time": 464.0625,
                    "velocity": 0.3858267716535433,
                    "duration": 0.625
                },
                {
                    "name": "E4",
                    "midi": 64,
                    "time": 464.6875,
                    "velocity": 0.3858267716535433,
                    "duration": 0.3125
                },
                {
                    "name": "F4",
                    "midi": 65,
                    "time": 465,
                    "velocity": 0.3858267716535433,
                    "duration": 0.625
                },
                {
                    "name": "F4",
                    "midi": 65,
                    "time": 465.625,
                    "velocity": 0.3858267716535433,
                    "duration": 0.3125
                },
                {
                    "name": "F4",
                    "midi": 65,
                    "time": 465.9375,
                    "velocity": 0.3858267716535433,
                    "duration": 0.625
                },
                {
                    "name": "F4",
                    "midi": 65,
                    "time": 466.5625,
                    "velocity": 0.3858267716535433,
                    "duration": 0.3125
                },
                {
                    "name": "E4",
                    "midi": 64,
                    "time": 466.875,
                    "velocity": 0.3858267716535433,
                    "duration": 0.625
                },
                {
                    "name": "E4",
                    "midi": 64,
                    "time": 467.5,
                    "velocity": 0.3858267716535433,
                    "duration": 0.3125
                },
                {
                    "name": "E4",
                    "midi": 64,
                    "time": 467.8125,
                    "velocity": 0.3858267716535433,
                    "duration": 0.625
                },
                {
                    "name": "E4",
                    "midi": 64,
                    "time": 468.4375,
                    "velocity": 0.3858267716535433,
                    "duration": 0.3125
                },
                {
                    "name": "F4",
                    "midi": 65,
                    "time": 468.75,
                    "velocity": 0.3858267716535433,
                    "duration": 0.625
                },
                {
                    "name": "F4",
                    "midi": 65,
                    "time": 469.375,
                    "velocity": 0.3858267716535433,
                    "duration": 0.3125
                },
                {
                    "name": "F4",
                    "midi": 65,
                    "time": 469.6875,
                    "velocity": 0.3858267716535433,
                    "duration": 0.625
                },
                {
                    "name": "F4",
                    "midi": 65,
                    "time": 470.3125,
                    "velocity": 0.3858267716535433,
                    "duration": 0.3125
                },
                {
                    "name": "G4",
                    "midi": 67,
                    "time": 470.625,
                    "velocity": 0.3858267716535433,
                    "duration": 0.625
                },
                {
                    "name": "G4",
                    "midi": 67,
                    "time": 471.25,
                    "velocity": 0.3858267716535433,
                    "duration": 0.3125
                },
                {
                    "name": "G4",
                    "midi": 67,
                    "time": 471.5625,
                    "velocity": 0.3858267716535433,
                    "duration": 0.625
                },
                {
                    "name": "G4",
                    "midi": 67,
                    "time": 472.1875,
                    "velocity": 0.3858267716535433,
                    "duration": 0.3125
                },
                {
                    "name": "A4",
                    "midi": 69,
                    "time": 472.5,
                    "velocity": 0.3858267716535433,
                    "duration": 0.625
                },
                {
                    "name": "A4",
                    "midi": 69,
                    "time": 473.125,
                    "velocity": 0.3858267716535433,
                    "duration": 0.3125
                },
                {
                    "name": "A4",
                    "midi": 69,
                    "time": 473.4375,
                    "velocity": 0.3858267716535433,
                    "duration": 0.625
                },
                {
                    "name": "A4",
                    "midi": 69,
                    "time": 474.0625,
                    "velocity": 0.3858267716535433,
                    "duration": 0.3125
                },
                {
                    "name": "G4",
                    "midi": 67,
                    "time": 474.375,
                    "velocity": 0.3858267716535433,
                    "duration": 0.9375
                },
                {
                    "name": "G5",
                    "midi": 79,
                    "time": 475.3125,
                    "velocity": 0.3858267716535433,
                    "duration": 0.46875
                },
                {
                    "name": "F5",
                    "midi": 77,
                    "time": 475.78125,
                    "velocity": 0.3858267716535433,
                    "duration": 0.15625
                },
                {
                    "name": "E5",
                    "midi": 76,
                    "time": 475.9375,
                    "velocity": 0.3858267716535433,
                    "duration": 0.3125
                },
                {
                    "name": "F5",
                    "midi": 77,
                    "time": 476.25,
                    "velocity": 0.3858267716535433,
                    "duration": 0.46875
                },
                {
                    "name": "E5",
                    "midi": 76,
                    "time": 476.71875,
                    "velocity": 0.3858267716535433,
                    "duration": 0.15625
                },
                {
                    "name": "D5",
                    "midi": 74,
                    "time": 476.875,
                    "velocity": 0.3858267716535433,
                    "duration": 0.3125
                },
                {
                    "name": "D5",
                    "midi": 74,
                    "time": 477.1875,
                    "velocity": 0.3858267716535433,
                    "duration": 0.625
                },
                {
                    "name": "C#5",
                    "midi": 73,
                    "time": 477.8125,
                    "velocity": 0.3858267716535433,
                    "duration": 0.3125
                },
                {
                    "name": "D5",
                    "midi": 74,
                    "time": 478.125,
                    "velocity": 0.3858267716535433,
                    "duration": 1.875
                },
                {
                    "name": "F4",
                    "midi": 65,
                    "time": 480,
                    "velocity": 0.3858267716535433,
                    "duration": 0.625
                },
                {
                    "name": "F4",
                    "midi": 65,
                    "time": 480.625,
                    "velocity": 0.3858267716535433,
                    "duration": 0.625
                },
                {
                    "name": "F4",
                    "midi": 65,
                    "time": 481.25,
                    "velocity": 0.3858267716535433,
                    "duration": 0.625
                },
                {
                    "name": "E4",
                    "midi": 64,
                    "time": 481.875,
                    "velocity": 0.3858267716535433,
                    "duration": 0.625
                },
                {
                    "name": "E4",
                    "midi": 64,
                    "time": 482.5,
                    "velocity": 0.3858267716535433,
                    "duration": 0.625
                },
                {
                    "name": "E4",
                    "midi": 64,
                    "time": 483.125,
                    "velocity": 0.3858267716535433,
                    "duration": 0.625
                },
                {
                    "name": "F4",
                    "midi": 65,
                    "time": 483.75,
                    "velocity": 0.3858267716535433,
                    "duration": 0.625
                },
                {
                    "name": "F4",
                    "midi": 65,
                    "time": 484.375,
                    "velocity": 0.3858267716535433,
                    "duration": 0.625
                },
                {
                    "name": "F4",
                    "midi": 65,
                    "time": 485,
                    "velocity": 0.3858267716535433,
                    "duration": 0.625
                },
                {
                    "name": "G4",
                    "midi": 67,
                    "time": 485.625,
                    "velocity": 0.3858267716535433,
                    "duration": 0.625
                },
                {
                    "name": "G4",
                    "midi": 67,
                    "time": 486.25,
                    "velocity": 0.3858267716535433,
                    "duration": 0.625
                },
                {
                    "name": "G4",
                    "midi": 67,
                    "time": 486.875,
                    "velocity": 0.3858267716535433,
                    "duration": 0.625
                },
                {
                    "name": "A4",
                    "midi": 69,
                    "time": 487.5,
                    "velocity": 0.3858267716535433,
                    "duration": 0.625
                },
                {
                    "name": "A4",
                    "midi": 69,
                    "time": 488.125,
                    "velocity": 0.3858267716535433,
                    "duration": 0.625
                },
                {
                    "name": "A4",
                    "midi": 69,
                    "time": 488.75,
                    "velocity": 0.3858267716535433,
                    "duration": 0.625
                },
                {
                    "name": "G4",
                    "midi": 67,
                    "time": 489.375,
                    "velocity": 0.3858267716535433,
                    "duration": 0.625
                },
                {
                    "name": "G4",
                    "midi": 67,
                    "time": 490,
                    "velocity": 0.3858267716535433,
                    "duration": 0.625
                },
                {
                    "name": "G4",
                    "midi": 67,
                    "time": 490.625,
                    "velocity": 0.3858267716535433,
                    "duration": 0.625
                },
                {
                    "name": "F4",
                    "midi": 65,
                    "time": 491.25,
                    "velocity": 0.3858267716535433,
                    "duration": 0.625
                },
                {
                    "name": "F4",
                    "midi": 65,
                    "time": 491.875,
                    "velocity": 0.3858267716535433,
                    "duration": 0.625
                },
                {
                    "name": "F4",
                    "midi": 65,
                    "time": 492.5,
                    "velocity": 0.3858267716535433,
                    "duration": 0.625
                },
                {
                    "name": "E4",
                    "midi": 64,
                    "time": 493.125,
                    "velocity": 0.3858267716535433,
                    "duration": 0.625
                },
                {
                    "name": "E4",
                    "midi": 64,
                    "time": 493.75,
                    "velocity": 0.3858267716535433,
                    "duration": 0.625
                },
                {
                    "name": "E4",
                    "midi": 64,
                    "time": 494.375,
                    "velocity": 0.3858267716535433,
                    "duration": 0.625
                },
                {
                    "name": "F4",
                    "midi": 65,
                    "time": 495,
                    "velocity": 0.3858267716535433,
                    "duration": 0.625
                },
                {
                    "name": "F4",
                    "midi": 65,
                    "time": 495.625,
                    "velocity": 0.3858267716535433,
                    "duration": 0.625
                },
                {
                    "name": "F4",
                    "midi": 65,
                    "time": 496.25,
                    "velocity": 0.3858267716535433,
                    "duration": 0.625
                },
                {
                    "name": "E4",
                    "midi": 64,
                    "time": 496.875,
                    "velocity": 0.3858267716535433,
                    "duration": 0.625
                },
                {
                    "name": "E4",
                    "midi": 64,
                    "time": 497.5,
                    "velocity": 0.3858267716535433,
                    "duration": 0.625
                },
                {
                    "name": "E4",
                    "midi": 64,
                    "time": 498.125,
                    "velocity": 0.3858267716535433,
                    "duration": 0.625
                },
                {
                    "name": "F4",
                    "midi": 65,
                    "time": 498.75,
                    "velocity": 0.3858267716535433,
                    "duration": 0.625
                },
                {
                    "name": "F4",
                    "midi": 65,
                    "time": 499.375,
                    "velocity": 0.3858267716535433,
                    "duration": 0.625
                },
                {
                    "name": "F4",
                    "midi": 65,
                    "time": 500,
                    "velocity": 0.3858267716535433,
                    "duration": 0.625
                },
                {
                    "name": "G4",
                    "midi": 67,
                    "time": 500.625,
                    "velocity": 0.3858267716535433,
                    "duration": 0.625
                },
                {
                    "name": "G4",
                    "midi": 67,
                    "time": 501.25,
                    "velocity": 0.3858267716535433,
                    "duration": 0.625
                },
                {
                    "name": "G4",
                    "midi": 67,
                    "time": 501.875,
                    "velocity": 0.3858267716535433,
                    "duration": 0.625
                },
                {
                    "name": "A4",
                    "midi": 69,
                    "time": 502.5,
                    "velocity": 0.3858267716535433,
                    "duration": 0.625
                },
                {
                    "name": "A4",
                    "midi": 69,
                    "time": 503.125,
                    "velocity": 0.3858267716535433,
                    "duration": 0.625
                },
                {
                    "name": "A4",
                    "midi": 69,
                    "time": 503.75,
                    "velocity": 0.3858267716535433,
                    "duration": 0.625
                },
                {
                    "name": "G4",
                    "midi": 67,
                    "time": 504.375,
                    "velocity": 0.3858267716535433,
                    "duration": 0.625
                },
                {
                    "name": "G4",
                    "midi": 67,
                    "time": 505,
                    "velocity": 0.3858267716535433,
                    "duration": 0.625
                },
                {
                    "name": "G4",
                    "midi": 67,
                    "time": 505.625,
                    "velocity": 0.3858267716535433,
                    "duration": 0.625
                },
                {
                    "name": "F4",
                    "midi": 65,
                    "time": 506.25,
                    "velocity": 0.3858267716535433,
                    "duration": 0.625
                },
                {
                    "name": "E4",
                    "midi": 64,
                    "time": 506.875,
                    "velocity": 0.3858267716535433,
                    "duration": 0.625
                },
                {
                    "name": "E4",
                    "midi": 64,
                    "time": 507.5,
                    "velocity": 0.3858267716535433,
                    "duration": 0.625
                },
                {
                    "name": "D4",
                    "midi": 62,
                    "time": 508.125,
                    "velocity": 0.3858267716535433,
                    "duration": 1.875
                },
                {
                    "name": "D5",
                    "midi": 74,
                    "time": 510.3125,
                    "velocity": 0.3858267716535433,
                    "duration": 0.15625
                },
                {
                    "name": "C#5",
                    "midi": 73,
                    "time": 510.46875,
                    "velocity": 0.3858267716535433,
                    "duration": 0.15625
                },
                {
                    "name": "D5",
                    "midi": 74,
                    "time": 510.625,
                    "velocity": 0.3858267716535433,
                    "duration": 0.3125
                },
                {
                    "name": "D4",
                    "midi": 62,
                    "time": 510.9375,
                    "velocity": 0.3858267716535433,
                    "duration": 0.3125
                },
                {
                    "name": "D5",
                    "midi": 74,
                    "time": 511.25,
                    "velocity": 0.3858267716535433,
                    "duration": 0.3125
                },
                {
                    "name": "D4",
                    "midi": 62,
                    "time": 511.5625,
                    "velocity": 0.3858267716535433,
                    "duration": 0.3125
                },
                {
                    "name": "C#4",
                    "midi": 61,
                    "time": 511.875,
                    "velocity": 0.3858267716535433,
                    "duration": 0.3125
                },
                {
                    "name": "C#5",
                    "midi": 73,
                    "time": 512.1875,
                    "velocity": 0.3858267716535433,
                    "duration": 0.15625
                },
                {
                    "name": "A#4",
                    "midi": 70,
                    "time": 512.34375,
                    "velocity": 0.3858267716535433,
                    "duration": 0.15625
                },
                {
                    "name": "C#5",
                    "midi": 73,
                    "time": 512.5,
                    "velocity": 0.3858267716535433,
                    "duration": 0.3125
                },
                {
                    "name": "C#4",
                    "midi": 61,
                    "time": 512.8125,
                    "velocity": 0.3858267716535433,
                    "duration": 0.3125
                },
                {
                    "name": "C#5",
                    "midi": 73,
                    "time": 513.125,
                    "velocity": 0.3858267716535433,
                    "duration": 0.3125
                },
                {
                    "name": "C#4",
                    "midi": 61,
                    "time": 513.4375,
                    "velocity": 0.3858267716535433,
                    "duration": 0.3125
                },
                {
                    "name": "D4",
                    "midi": 62,
                    "time": 513.75,
                    "velocity": 0.3858267716535433,
                    "duration": 0.3125
                },
                {
                    "name": "D5",
                    "midi": 74,
                    "time": 514.0625,
                    "velocity": 0.3858267716535433,
                    "duration": 0.15625
                },
                {
                    "name": "C#5",
                    "midi": 73,
                    "time": 514.21875,
                    "velocity": 0.3858267716535433,
                    "duration": 0.15625
                },
                {
                    "name": "D5",
                    "midi": 74,
                    "time": 514.375,
                    "velocity": 0.3858267716535433,
                    "duration": 0.3125
                },
                {
                    "name": "D4",
                    "midi": 62,
                    "time": 514.6875,
                    "velocity": 0.3858267716535433,
                    "duration": 0.3125
                },
                {
                    "name": "D5",
                    "midi": 74,
                    "time": 515,
                    "velocity": 0.3858267716535433,
                    "duration": 0.3125
                },
                {
                    "name": "D4",
                    "midi": 62,
                    "time": 515.3125,
                    "velocity": 0.3858267716535433,
                    "duration": 0.3125
                },
                {
                    "name": "E4",
                    "midi": 64,
                    "time": 515.625,
                    "velocity": 0.3858267716535433,
                    "duration": 0.3125
                },
                {
                    "name": "E5",
                    "midi": 76,
                    "time": 515.9375,
                    "velocity": 0.3858267716535433,
                    "duration": 0.15625
                },
                {
                    "name": "D5",
                    "midi": 74,
                    "time": 516.09375,
                    "velocity": 0.3858267716535433,
                    "duration": 0.15625
                },
                {
                    "name": "E5",
                    "midi": 76,
                    "time": 516.25,
                    "velocity": 0.3858267716535433,
                    "duration": 0.3125
                },
                {
                    "name": "E4",
                    "midi": 64,
                    "time": 516.5625,
                    "velocity": 0.3858267716535433,
                    "duration": 0.3125
                },
                {
                    "name": "E5",
                    "midi": 76,
                    "time": 516.875,
                    "velocity": 0.3858267716535433,
                    "duration": 0.3125
                },
                {
                    "name": "E4",
                    "midi": 64,
                    "time": 517.1875,
                    "velocity": 0.3858267716535433,
                    "duration": 0.3125
                },
                {
                    "name": "F4",
                    "midi": 65,
                    "time": 517.5,
                    "velocity": 0.3858267716535433,
                    "duration": 0.3125
                },
                {
                    "name": "F5",
                    "midi": 77,
                    "time": 517.8125,
                    "velocity": 0.3858267716535433,
                    "duration": 0.15625
                },
                {
                    "name": "E5",
                    "midi": 76,
                    "time": 517.96875,
                    "velocity": 0.3858267716535433,
                    "duration": 0.15625
                },
                {
                    "name": "F5",
                    "midi": 77,
                    "time": 518.125,
                    "velocity": 0.3858267716535433,
                    "duration": 0.3125
                },
                {
                    "name": "F4",
                    "midi": 65,
                    "time": 518.4375,
                    "velocity": 0.3858267716535433,
                    "duration": 0.3125
                },
                {
                    "name": "F5",
                    "midi": 77,
                    "time": 518.75,
                    "velocity": 0.3858267716535433,
                    "duration": 0.3125
                },
                {
                    "name": "F4",
                    "midi": 65,
                    "time": 519.0625,
                    "velocity": 0.3858267716535433,
                    "duration": 0.3125
                },
                {
                    "name": "E4",
                    "midi": 64,
                    "time": 519.375,
                    "velocity": 0.3858267716535433,
                    "duration": 0.3125
                },
                {
                    "name": "E5",
                    "midi": 76,
                    "time": 519.6875,
                    "velocity": 0.3858267716535433,
                    "duration": 0.15625
                },
                {
                    "name": "D5",
                    "midi": 74,
                    "time": 519.84375,
                    "velocity": 0.3858267716535433,
                    "duration": 0.15625
                },
                {
                    "name": "E5",
                    "midi": 76,
                    "time": 520,
                    "velocity": 0.3858267716535433,
                    "duration": 0.3125
                },
                {
                    "name": "E4",
                    "midi": 64,
                    "time": 520.3125,
                    "velocity": 0.3858267716535433,
                    "duration": 0.3125
                },
                {
                    "name": "E5",
                    "midi": 76,
                    "time": 520.625,
                    "velocity": 0.3858267716535433,
                    "duration": 0.3125
                },
                {
                    "name": "E4",
                    "midi": 64,
                    "time": 520.9375,
                    "velocity": 0.3858267716535433,
                    "duration": 0.3125
                },
                {
                    "name": "D4",
                    "midi": 62,
                    "time": 521.25,
                    "velocity": 0.3858267716535433,
                    "duration": 0.3125
                },
                {
                    "name": "D5",
                    "midi": 74,
                    "time": 521.5625,
                    "velocity": 0.3858267716535433,
                    "duration": 0.15625
                },
                {
                    "name": "C#5",
                    "midi": 73,
                    "time": 521.71875,
                    "velocity": 0.3858267716535433,
                    "duration": 0.15625
                },
                {
                    "name": "D5",
                    "midi": 74,
                    "time": 521.875,
                    "velocity": 0.3858267716535433,
                    "duration": 0.3125
                },
                {
                    "name": "D4",
                    "midi": 62,
                    "time": 522.1875,
                    "velocity": 0.3858267716535433,
                    "duration": 0.3125
                },
                {
                    "name": "D5",
                    "midi": 74,
                    "time": 522.5,
                    "velocity": 0.3858267716535433,
                    "duration": 0.3125
                },
                {
                    "name": "D4",
                    "midi": 62,
                    "time": 522.8125,
                    "velocity": 0.3858267716535433,
                    "duration": 0.3125
                },
                {
                    "name": "C#4",
                    "midi": 61,
                    "time": 523.125,
                    "velocity": 0.3858267716535433,
                    "duration": 0.3125
                },
                {
                    "name": "C#5",
                    "midi": 73,
                    "time": 523.4375,
                    "velocity": 0.3858267716535433,
                    "duration": 0.15625
                },
                {
                    "name": "A#4",
                    "midi": 70,
                    "time": 523.59375,
                    "velocity": 0.3858267716535433,
                    "duration": 0.15625
                },
                {
                    "name": "C#5",
                    "midi": 73,
                    "time": 523.75,
                    "velocity": 0.3858267716535433,
                    "duration": 0.3125
                },
                {
                    "name": "C#4",
                    "midi": 61,
                    "time": 524.0625,
                    "velocity": 0.3858267716535433,
                    "duration": 0.3125
                },
                {
                    "name": "C#5",
                    "midi": 73,
                    "time": 524.375,
                    "velocity": 0.3858267716535433,
                    "duration": 0.3125
                },
                {
                    "name": "C#4",
                    "midi": 61,
                    "time": 524.6875,
                    "velocity": 0.3858267716535433,
                    "duration": 0.3125
                },
                {
                    "name": "D4",
                    "midi": 62,
                    "time": 525,
                    "velocity": 0.3858267716535433,
                    "duration": 0.3125
                },
                {
                    "name": "D5",
                    "midi": 74,
                    "time": 525.3125,
                    "velocity": 0.3858267716535433,
                    "duration": 0.15625
                },
                {
                    "name": "C#5",
                    "midi": 73,
                    "time": 525.46875,
                    "velocity": 0.3858267716535433,
                    "duration": 0.15625
                },
                {
                    "name": "D5",
                    "midi": 74,
                    "time": 525.625,
                    "velocity": 0.3858267716535433,
                    "duration": 0.3125
                },
                {
                    "name": "D4",
                    "midi": 62,
                    "time": 525.9375,
                    "velocity": 0.3858267716535433,
                    "duration": 0.3125
                },
                {
                    "name": "D5",
                    "midi": 74,
                    "time": 526.25,
                    "velocity": 0.3858267716535433,
                    "duration": 0.3125
                },
                {
                    "name": "D4",
                    "midi": 62,
                    "time": 526.5625,
                    "velocity": 0.3858267716535433,
                    "duration": 0.3125
                },
                {
                    "name": "C#4",
                    "midi": 61,
                    "time": 526.875,
                    "velocity": 0.3858267716535433,
                    "duration": 0.3125
                },
                {
                    "name": "C#5",
                    "midi": 73,
                    "time": 527.1875,
                    "velocity": 0.3858267716535433,
                    "duration": 0.15625
                },
                {
                    "name": "A#4",
                    "midi": 70,
                    "time": 527.34375,
                    "velocity": 0.3858267716535433,
                    "duration": 0.15625
                },
                {
                    "name": "C#5",
                    "midi": 73,
                    "time": 527.5,
                    "velocity": 0.3858267716535433,
                    "duration": 0.3125
                },
                {
                    "name": "C#4",
                    "midi": 61,
                    "time": 527.8125,
                    "velocity": 0.3858267716535433,
                    "duration": 0.3125
                },
                {
                    "name": "C#5",
                    "midi": 73,
                    "time": 528.125,
                    "velocity": 0.3858267716535433,
                    "duration": 0.3125
                },
                {
                    "name": "C#4",
                    "midi": 61,
                    "time": 528.4375,
                    "velocity": 0.3858267716535433,
                    "duration": 0.3125
                },
                {
                    "name": "D4",
                    "midi": 62,
                    "time": 528.75,
                    "velocity": 0.3858267716535433,
                    "duration": 0.3125
                },
                {
                    "name": "D5",
                    "midi": 74,
                    "time": 529.0625,
                    "velocity": 0.3858267716535433,
                    "duration": 0.15625
                },
                {
                    "name": "C#5",
                    "midi": 73,
                    "time": 529.21875,
                    "velocity": 0.3858267716535433,
                    "duration": 0.15625
                },
                {
                    "name": "D5",
                    "midi": 74,
                    "time": 529.375,
                    "velocity": 0.3858267716535433,
                    "duration": 0.3125
                },
                {
                    "name": "D4",
                    "midi": 62,
                    "time": 529.6875,
                    "velocity": 0.3858267716535433,
                    "duration": 0.3125
                },
                {
                    "name": "D5",
                    "midi": 74,
                    "time": 530,
                    "velocity": 0.3858267716535433,
                    "duration": 0.3125
                },
                {
                    "name": "D4",
                    "midi": 62,
                    "time": 530.3125,
                    "velocity": 0.3858267716535433,
                    "duration": 0.3125
                },
                {
                    "name": "E4",
                    "midi": 64,
                    "time": 530.625,
                    "velocity": 0.3858267716535433,
                    "duration": 0.3125
                },
                {
                    "name": "E5",
                    "midi": 76,
                    "time": 530.9375,
                    "velocity": 0.3858267716535433,
                    "duration": 0.15625
                },
                {
                    "name": "D5",
                    "midi": 74,
                    "time": 531.09375,
                    "velocity": 0.3858267716535433,
                    "duration": 0.15625
                },
                {
                    "name": "E5",
                    "midi": 76,
                    "time": 531.25,
                    "velocity": 0.3858267716535433,
                    "duration": 0.3125
                },
                {
                    "name": "E4",
                    "midi": 64,
                    "time": 531.5625,
                    "velocity": 0.3858267716535433,
                    "duration": 0.3125
                },
                {
                    "name": "E5",
                    "midi": 76,
                    "time": 531.875,
                    "velocity": 0.3858267716535433,
                    "duration": 0.3125
                },
                {
                    "name": "E4",
                    "midi": 64,
                    "time": 532.1875,
                    "velocity": 0.3858267716535433,
                    "duration": 0.3125
                },
                {
                    "name": "F4",
                    "midi": 65,
                    "time": 532.5,
                    "velocity": 0.3858267716535433,
                    "duration": 0.3125
                },
                {
                    "name": "F5",
                    "midi": 77,
                    "time": 532.8125,
                    "velocity": 0.3858267716535433,
                    "duration": 0.15625
                },
                {
                    "name": "E5",
                    "midi": 76,
                    "time": 532.96875,
                    "velocity": 0.3858267716535433,
                    "duration": 0.15625
                },
                {
                    "name": "F5",
                    "midi": 77,
                    "time": 533.125,
                    "velocity": 0.3858267716535433,
                    "duration": 0.3125
                },
                {
                    "name": "F4",
                    "midi": 65,
                    "time": 533.4375,
                    "velocity": 0.3858267716535433,
                    "duration": 0.3125
                },
                {
                    "name": "F5",
                    "midi": 77,
                    "time": 533.75,
                    "velocity": 0.3858267716535433,
                    "duration": 0.3125
                },
                {
                    "name": "F4",
                    "midi": 65,
                    "time": 534.0625,
                    "velocity": 0.3858267716535433,
                    "duration": 0.3125
                },
                {
                    "name": "E4",
                    "midi": 64,
                    "time": 534.375,
                    "velocity": 0.3858267716535433,
                    "duration": 0.3125
                },
                {
                    "name": "E5",
                    "midi": 76,
                    "time": 534.6875,
                    "velocity": 0.3858267716535433,
                    "duration": 0.15625
                },
                {
                    "name": "D5",
                    "midi": 74,
                    "time": 534.84375,
                    "velocity": 0.3858267716535433,
                    "duration": 0.15625
                },
                {
                    "name": "E5",
                    "midi": 76,
                    "time": 535,
                    "velocity": 0.3858267716535433,
                    "duration": 0.3125
                },
                {
                    "name": "E4",
                    "midi": 64,
                    "time": 535.3125,
                    "velocity": 0.3858267716535433,
                    "duration": 0.3125
                },
                {
                    "name": "E5",
                    "midi": 76,
                    "time": 535.625,
                    "velocity": 0.3858267716535433,
                    "duration": 0.3125
                },
                {
                    "name": "E4",
                    "midi": 64,
                    "time": 535.9375,
                    "velocity": 0.3858267716535433,
                    "duration": 0.3125
                },
                {
                    "name": "D5",
                    "midi": 74,
                    "time": 536.25,
                    "velocity": 0.3858267716535433,
                    "duration": 0.3125
                },
                {
                    "name": "E5",
                    "midi": 76,
                    "time": 536.5625,
                    "velocity": 0.3858267716535433,
                    "duration": 0.15625
                },
                {
                    "name": "D5",
                    "midi": 74,
                    "time": 536.71875,
                    "velocity": 0.3858267716535433,
                    "duration": 0.15625
                },
                {
                    "name": "C#5",
                    "midi": 73,
                    "time": 536.875,
                    "velocity": 0.3858267716535433,
                    "duration": 0.3125
                },
                {
                    "name": "C#4",
                    "midi": 61,
                    "time": 537.1875,
                    "velocity": 0.3858267716535433,
                    "duration": 0.3125
                },
                {
                    "name": "C#5",
                    "midi": 73,
                    "time": 537.5,
                    "velocity": 0.3858267716535433,
                    "duration": 0.3125
                },
                {
                    "name": "C#4",
                    "midi": 61,
                    "time": 537.8125,
                    "velocity": 0.3858267716535433,
                    "duration": 0.3125
                },
                {
                    "name": "D4",
                    "midi": 62,
                    "time": 538.125,
                    "velocity": 0.3858267716535433,
                    "duration": 1.875
                },
                {
                    "name": "D5",
                    "midi": 74,
                    "time": 540,
                    "velocity": 0.3858267716535433,
                    "duration": 0.625
                },
                {
                    "name": "D5",
                    "midi": 74,
                    "time": 540.625,
                    "velocity": 0.3858267716535433,
                    "duration": 0.9375
                },
                {
                    "name": "D5",
                    "midi": 74,
                    "time": 541.5625,
                    "velocity": 0.3858267716535433,
                    "duration": 0.3125
                },
                {
                    "name": "C#5",
                    "midi": 73,
                    "time": 541.875,
                    "velocity": 0.3858267716535433,
                    "duration": 0.625
                },
                {
                    "name": "C#5",
                    "midi": 73,
                    "time": 542.5,
                    "velocity": 0.3858267716535433,
                    "duration": 0.9375
                },
                {
                    "name": "C#5",
                    "midi": 73,
                    "time": 543.4375,
                    "velocity": 0.3858267716535433,
                    "duration": 0.3125
                },
                {
                    "name": "D5",
                    "midi": 74,
                    "time": 543.75,
                    "velocity": 0.3858267716535433,
                    "duration": 0.625
                },
                {
                    "name": "D5",
                    "midi": 74,
                    "time": 544.375,
                    "velocity": 0.3858267716535433,
                    "duration": 0.9375
                },
                {
                    "name": "D5",
                    "midi": 74,
                    "time": 545.3125,
                    "velocity": 0.3858267716535433,
                    "duration": 0.3125
                },
                {
                    "name": "D5",
                    "midi": 74,
                    "time": 545.625,
                    "velocity": 0.3858267716535433,
                    "duration": 0.625
                },
                {
                    "name": "D5",
                    "midi": 74,
                    "time": 546.25,
                    "velocity": 0.3858267716535433,
                    "duration": 0.9375
                },
                {
                    "name": "D5",
                    "midi": 74,
                    "time": 547.1875,
                    "velocity": 0.3858267716535433,
                    "duration": 0.3125
                },
                {
                    "name": "F5",
                    "midi": 77,
                    "time": 547.5,
                    "velocity": 0.3858267716535433,
                    "duration": 0.625
                },
                {
                    "name": "F5",
                    "midi": 77,
                    "time": 548.125,
                    "velocity": 0.3858267716535433,
                    "duration": 0.9375
                },
                {
                    "name": "F5",
                    "midi": 77,
                    "time": 549.0625,
                    "velocity": 0.3858267716535433,
                    "duration": 0.3125
                },
                {
                    "name": "E5",
                    "midi": 76,
                    "time": 549.375,
                    "velocity": 0.3858267716535433,
                    "duration": 0.625
                },
                {
                    "name": "E5",
                    "midi": 76,
                    "time": 550,
                    "velocity": 0.3858267716535433,
                    "duration": 0.9375
                },
                {
                    "name": "E5",
                    "midi": 76,
                    "time": 550.9375,
                    "velocity": 0.3858267716535433,
                    "duration": 0.3125
                },
                {
                    "name": "D5",
                    "midi": 74,
                    "time": 551.25,
                    "velocity": 0.3858267716535433,
                    "duration": 0.625
                },
                {
                    "name": "D5",
                    "midi": 74,
                    "time": 551.875,
                    "velocity": 0.3858267716535433,
                    "duration": 0.9375
                },
                {
                    "name": "D5",
                    "midi": 74,
                    "time": 552.8125,
                    "velocity": 0.3858267716535433,
                    "duration": 0.3125
                },
                {
                    "name": "C#5",
                    "midi": 73,
                    "time": 553.125,
                    "velocity": 0.3858267716535433,
                    "duration": 0.625
                },
                {
                    "name": "C#5",
                    "midi": 73,
                    "time": 553.75,
                    "velocity": 0.3858267716535433,
                    "duration": 0.9375
                },
                {
                    "name": "C#5",
                    "midi": 73,
                    "time": 554.6875,
                    "velocity": 0.3858267716535433,
                    "duration": 0.3125
                },
                {
                    "name": "D5",
                    "midi": 74,
                    "time": 555,
                    "velocity": 0.3858267716535433,
                    "duration": 0.625
                },
                {
                    "name": "D5",
                    "midi": 74,
                    "time": 555.625,
                    "velocity": 0.3858267716535433,
                    "duration": 0.9375
                },
                {
                    "name": "D5",
                    "midi": 74,
                    "time": 556.5625,
                    "velocity": 0.3858267716535433,
                    "duration": 0.3125
                },
                {
                    "name": "C#5",
                    "midi": 73,
                    "time": 556.875,
                    "velocity": 0.3858267716535433,
                    "duration": 0.625
                },
                {
                    "name": "C#5",
                    "midi": 73,
                    "time": 557.5,
                    "velocity": 0.3858267716535433,
                    "duration": 0.9375
                },
                {
                    "name": "C#5",
                    "midi": 73,
                    "time": 558.4375,
                    "velocity": 0.3858267716535433,
                    "duration": 0.3125
                },
                {
                    "name": "D5",
                    "midi": 74,
                    "time": 558.75,
                    "velocity": 0.3858267716535433,
                    "duration": 0.625
                },
                {
                    "name": "D5",
                    "midi": 74,
                    "time": 559.375,
                    "velocity": 0.3858267716535433,
                    "duration": 0.9375
                },
                {
                    "name": "D5",
                    "midi": 74,
                    "time": 560.3125,
                    "velocity": 0.3858267716535433,
                    "duration": 0.3125
                },
                {
                    "name": "E5",
                    "midi": 76,
                    "time": 560.625,
                    "velocity": 0.3858267716535433,
                    "duration": 0.625
                },
                {
                    "name": "E5",
                    "midi": 76,
                    "time": 561.25,
                    "velocity": 0.3858267716535433,
                    "duration": 0.9375
                },
                {
                    "name": "E5",
                    "midi": 76,
                    "time": 562.1875,
                    "velocity": 0.3858267716535433,
                    "duration": 0.3125
                },
                {
                    "name": "F5",
                    "midi": 77,
                    "time": 562.5,
                    "velocity": 0.3858267716535433,
                    "duration": 0.625
                },
                {
                    "name": "F5",
                    "midi": 77,
                    "time": 563.125,
                    "velocity": 0.3858267716535433,
                    "duration": 0.9375
                },
                {
                    "name": "F5",
                    "midi": 77,
                    "time": 564.0625,
                    "velocity": 0.3858267716535433,
                    "duration": 0.3125
                },
                {
                    "name": "E5",
                    "midi": 76,
                    "time": 564.375,
                    "velocity": 0.3858267716535433,
                    "duration": 0.625
                },
                {
                    "name": "E5",
                    "midi": 76,
                    "time": 565,
                    "velocity": 0.3858267716535433,
                    "duration": 0.9375
                },
                {
                    "name": "E5",
                    "midi": 76,
                    "time": 565.9375,
                    "velocity": 0.3858267716535433,
                    "duration": 0.3125
                },
                {
                    "name": "D5",
                    "midi": 74,
                    "time": 566.25,
                    "velocity": 0.3858267716535433,
                    "duration": 0.625
                },
                {
                    "name": "C#5",
                    "midi": 73,
                    "time": 566.875,
                    "velocity": 0.3858267716535433,
                    "duration": 0.9375
                },
                {
                    "name": "C#5",
                    "midi": 73,
                    "time": 567.8125,
                    "velocity": 0.3858267716535433,
                    "duration": 0.3125
                },
                {
                    "name": "D5",
                    "midi": 74,
                    "time": 568.125,
                    "velocity": 0.3858267716535433,
                    "duration": 1.875
                },
                {
                    "name": "D5",
                    "midi": 74,
                    "time": 570,
                    "velocity": 0.3858267716535433,
                    "duration": 0.15625
                },
                {
                    "name": "F5",
                    "midi": 77,
                    "time": 570.15625,
                    "velocity": 0.3858267716535433,
                    "duration": 0.15625
                },
                {
                    "name": "F5",
                    "midi": 77,
                    "time": 570.3125,
                    "velocity": 0.3858267716535433,
                    "duration": 0.15625
                },
                {
                    "name": "D5",
                    "midi": 74,
                    "time": 570.46875,
                    "velocity": 0.3858267716535433,
                    "duration": 0.15625
                },
                {
                    "name": "D5",
                    "midi": 74,
                    "time": 570.625,
                    "velocity": 0.3858267716535433,
                    "duration": 0.15625
                },
                {
                    "name": "F5",
                    "midi": 77,
                    "time": 570.78125,
                    "velocity": 0.3858267716535433,
                    "duration": 0.15625
                },
                {
                    "name": "F5",
                    "midi": 77,
                    "time": 570.9375,
                    "velocity": 0.3858267716535433,
                    "duration": 0.15625
                },
                {
                    "name": "D5",
                    "midi": 74,
                    "time": 571.09375,
                    "velocity": 0.3858267716535433,
                    "duration": 0.15625
                },
                {
                    "name": "D5",
                    "midi": 74,
                    "time": 571.25,
                    "velocity": 0.3858267716535433,
                    "duration": 0.15625
                },
                {
                    "name": "F5",
                    "midi": 77,
                    "time": 571.40625,
                    "velocity": 0.3858267716535433,
                    "duration": 0.15625
                },
                {
                    "name": "F5",
                    "midi": 77,
                    "time": 571.5625,
                    "velocity": 0.3858267716535433,
                    "duration": 0.15625
                },
                {
                    "name": "D5",
                    "midi": 74,
                    "time": 571.71875,
                    "velocity": 0.3858267716535433,
                    "duration": 0.15625
                },
                {
                    "name": "C#5",
                    "midi": 73,
                    "time": 571.875,
                    "velocity": 0.3858267716535433,
                    "duration": 0.15625
                },
                {
                    "name": "E5",
                    "midi": 76,
                    "time": 572.03125,
                    "velocity": 0.3858267716535433,
                    "duration": 0.15625
                },
                {
                    "name": "E5",
                    "midi": 76,
                    "time": 572.1875,
                    "velocity": 0.3858267716535433,
                    "duration": 0.15625
                },
                {
                    "name": "C#5",
                    "midi": 73,
                    "time": 572.34375,
                    "velocity": 0.3858267716535433,
                    "duration": 0.15625
                },
                {
                    "name": "C#5",
                    "midi": 73,
                    "time": 572.5,
                    "velocity": 0.3858267716535433,
                    "duration": 0.15625
                },
                {
                    "name": "E5",
                    "midi": 76,
                    "time": 572.65625,
                    "velocity": 0.3858267716535433,
                    "duration": 0.15625
                },
                {
                    "name": "E5",
                    "midi": 76,
                    "time": 572.8125,
                    "velocity": 0.3858267716535433,
                    "duration": 0.15625
                },
                {
                    "name": "C#5",
                    "midi": 73,
                    "time": 572.96875,
                    "velocity": 0.3858267716535433,
                    "duration": 0.15625
                },
                {
                    "name": "C#5",
                    "midi": 73,
                    "time": 573.125,
                    "velocity": 0.3858267716535433,
                    "duration": 0.15625
                },
                {
                    "name": "E5",
                    "midi": 76,
                    "time": 573.28125,
                    "velocity": 0.3858267716535433,
                    "duration": 0.15625
                },
                {
                    "name": "E5",
                    "midi": 76,
                    "time": 573.4375,
                    "velocity": 0.3858267716535433,
                    "duration": 0.15625
                },
                {
                    "name": "C#5",
                    "midi": 73,
                    "time": 573.59375,
                    "velocity": 0.3858267716535433,
                    "duration": 0.15625
                },
                {
                    "name": "D5",
                    "midi": 74,
                    "time": 573.75,
                    "velocity": 0.3858267716535433,
                    "duration": 0.15625
                },
                {
                    "name": "F5",
                    "midi": 77,
                    "time": 573.90625,
                    "velocity": 0.3858267716535433,
                    "duration": 0.15625
                },
                {
                    "name": "F5",
                    "midi": 77,
                    "time": 574.0625,
                    "velocity": 0.3858267716535433,
                    "duration": 0.15625
                },
                {
                    "name": "D5",
                    "midi": 74,
                    "time": 574.21875,
                    "velocity": 0.3858267716535433,
                    "duration": 0.15625
                },
                {
                    "name": "D5",
                    "midi": 74,
                    "time": 574.375,
                    "velocity": 0.3858267716535433,
                    "duration": 0.15625
                },
                {
                    "name": "F5",
                    "midi": 77,
                    "time": 574.53125,
                    "velocity": 0.3858267716535433,
                    "duration": 0.15625
                },
                {
                    "name": "F5",
                    "midi": 77,
                    "time": 574.6875,
                    "velocity": 0.3858267716535433,
                    "duration": 0.15625
                },
                {
                    "name": "D5",
                    "midi": 74,
                    "time": 574.84375,
                    "velocity": 0.3858267716535433,
                    "duration": 0.15625
                },
                {
                    "name": "D5",
                    "midi": 74,
                    "time": 575,
                    "velocity": 0.3858267716535433,
                    "duration": 0.15625
                },
                {
                    "name": "F5",
                    "midi": 77,
                    "time": 575.15625,
                    "velocity": 0.3858267716535433,
                    "duration": 0.15625
                },
                {
                    "name": "F5",
                    "midi": 77,
                    "time": 575.3125,
                    "velocity": 0.3858267716535433,
                    "duration": 0.15625
                },
                {
                    "name": "D5",
                    "midi": 74,
                    "time": 575.46875,
                    "velocity": 0.3858267716535433,
                    "duration": 0.15625
                },
                {
                    "name": "E5",
                    "midi": 76,
                    "time": 575.625,
                    "velocity": 0.3858267716535433,
                    "duration": 0.15625
                },
                {
                    "name": "G5",
                    "midi": 79,
                    "time": 575.78125,
                    "velocity": 0.3858267716535433,
                    "duration": 0.15625
                },
                {
                    "name": "G5",
                    "midi": 79,
                    "time": 575.9375,
                    "velocity": 0.3858267716535433,
                    "duration": 0.15625
                },
                {
                    "name": "E5",
                    "midi": 76,
                    "time": 576.09375,
                    "velocity": 0.3858267716535433,
                    "duration": 0.15625
                },
                {
                    "name": "E5",
                    "midi": 76,
                    "time": 576.25,
                    "velocity": 0.3858267716535433,
                    "duration": 0.15625
                },
                {
                    "name": "G5",
                    "midi": 79,
                    "time": 576.40625,
                    "velocity": 0.3858267716535433,
                    "duration": 0.15625
                },
                {
                    "name": "G5",
                    "midi": 79,
                    "time": 576.5625,
                    "velocity": 0.3858267716535433,
                    "duration": 0.15625
                },
                {
                    "name": "E5",
                    "midi": 76,
                    "time": 576.71875,
                    "velocity": 0.3858267716535433,
                    "duration": 0.15625
                },
                {
                    "name": "E5",
                    "midi": 76,
                    "time": 576.875,
                    "velocity": 0.3858267716535433,
                    "duration": 0.15625
                },
                {
                    "name": "G5",
                    "midi": 79,
                    "time": 577.03125,
                    "velocity": 0.3858267716535433,
                    "duration": 0.15625
                },
                {
                    "name": "G5",
                    "midi": 79,
                    "time": 577.1875,
                    "velocity": 0.3858267716535433,
                    "duration": 0.15625
                },
                {
                    "name": "E5",
                    "midi": 76,
                    "time": 577.34375,
                    "velocity": 0.3858267716535433,
                    "duration": 0.15625
                },
                {
                    "name": "F5",
                    "midi": 77,
                    "time": 577.5,
                    "velocity": 0.3858267716535433,
                    "duration": 0.15625
                },
                {
                    "name": "A5",
                    "midi": 81,
                    "time": 577.65625,
                    "velocity": 0.3858267716535433,
                    "duration": 0.15625
                },
                {
                    "name": "A5",
                    "midi": 81,
                    "time": 577.8125,
                    "velocity": 0.3858267716535433,
                    "duration": 0.15625
                },
                {
                    "name": "F5",
                    "midi": 77,
                    "time": 577.96875,
                    "velocity": 0.3858267716535433,
                    "duration": 0.15625
                },
                {
                    "name": "F5",
                    "midi": 77,
                    "time": 578.125,
                    "velocity": 0.3858267716535433,
                    "duration": 0.15625
                },
                {
                    "name": "A5",
                    "midi": 81,
                    "time": 578.28125,
                    "velocity": 0.3858267716535433,
                    "duration": 0.15625
                },
                {
                    "name": "A5",
                    "midi": 81,
                    "time": 578.4375,
                    "velocity": 0.3858267716535433,
                    "duration": 0.15625
                },
                {
                    "name": "F5",
                    "midi": 77,
                    "time": 578.59375,
                    "velocity": 0.3858267716535433,
                    "duration": 0.15625
                },
                {
                    "name": "F5",
                    "midi": 77,
                    "time": 578.75,
                    "velocity": 0.3858267716535433,
                    "duration": 0.15625
                },
                {
                    "name": "A5",
                    "midi": 81,
                    "time": 578.90625,
                    "velocity": 0.3858267716535433,
                    "duration": 0.15625
                },
                {
                    "name": "A5",
                    "midi": 81,
                    "time": 579.0625,
                    "velocity": 0.3858267716535433,
                    "duration": 0.15625
                },
                {
                    "name": "F5",
                    "midi": 77,
                    "time": 579.21875,
                    "velocity": 0.3858267716535433,
                    "duration": 0.15625
                },
                {
                    "name": "E5",
                    "midi": 76,
                    "time": 579.375,
                    "velocity": 0.3858267716535433,
                    "duration": 0.15625
                },
                {
                    "name": "G5",
                    "midi": 79,
                    "time": 579.53125,
                    "velocity": 0.3858267716535433,
                    "duration": 0.15625
                },
                {
                    "name": "G5",
                    "midi": 79,
                    "time": 579.6875,
                    "velocity": 0.3858267716535433,
                    "duration": 0.15625
                },
                {
                    "name": "E5",
                    "midi": 76,
                    "time": 579.84375,
                    "velocity": 0.3858267716535433,
                    "duration": 0.15625
                },
                {
                    "name": "E5",
                    "midi": 76,
                    "time": 580,
                    "velocity": 0.3858267716535433,
                    "duration": 0.15625
                },
                {
                    "name": "G5",
                    "midi": 79,
                    "time": 580.15625,
                    "velocity": 0.3858267716535433,
                    "duration": 0.15625
                },
                {
                    "name": "G5",
                    "midi": 79,
                    "time": 580.3125,
                    "velocity": 0.3858267716535433,
                    "duration": 0.15625
                },
                {
                    "name": "E5",
                    "midi": 76,
                    "time": 580.46875,
                    "velocity": 0.3858267716535433,
                    "duration": 0.15625
                },
                {
                    "name": "E5",
                    "midi": 76,
                    "time": 580.625,
                    "velocity": 0.3858267716535433,
                    "duration": 0.15625
                },
                {
                    "name": "G5",
                    "midi": 79,
                    "time": 580.78125,
                    "velocity": 0.3858267716535433,
                    "duration": 0.15625
                },
                {
                    "name": "G5",
                    "midi": 79,
                    "time": 580.9375,
                    "velocity": 0.3858267716535433,
                    "duration": 0.15625
                },
                {
                    "name": "E5",
                    "midi": 76,
                    "time": 581.09375,
                    "velocity": 0.3858267716535433,
                    "duration": 0.15625
                },
                {
                    "name": "D5",
                    "midi": 74,
                    "time": 581.25,
                    "velocity": 0.3858267716535433,
                    "duration": 0.15625
                },
                {
                    "name": "F5",
                    "midi": 77,
                    "time": 581.40625,
                    "velocity": 0.3858267716535433,
                    "duration": 0.15625
                },
                {
                    "name": "F5",
                    "midi": 77,
                    "time": 581.5625,
                    "velocity": 0.3858267716535433,
                    "duration": 0.15625
                },
                {
                    "name": "D5",
                    "midi": 74,
                    "time": 581.71875,
                    "velocity": 0.3858267716535433,
                    "duration": 0.15625
                },
                {
                    "name": "D5",
                    "midi": 74,
                    "time": 581.875,
                    "velocity": 0.3858267716535433,
                    "duration": 0.15625
                },
                {
                    "name": "F5",
                    "midi": 77,
                    "time": 582.03125,
                    "velocity": 0.3858267716535433,
                    "duration": 0.15625
                },
                {
                    "name": "F5",
                    "midi": 77,
                    "time": 582.1875,
                    "velocity": 0.3858267716535433,
                    "duration": 0.15625
                },
                {
                    "name": "D5",
                    "midi": 74,
                    "time": 582.34375,
                    "velocity": 0.3858267716535433,
                    "duration": 0.15625
                },
                {
                    "name": "D5",
                    "midi": 74,
                    "time": 582.5,
                    "velocity": 0.3858267716535433,
                    "duration": 0.15625
                },
                {
                    "name": "F5",
                    "midi": 77,
                    "time": 582.65625,
                    "velocity": 0.3858267716535433,
                    "duration": 0.15625
                },
                {
                    "name": "F5",
                    "midi": 77,
                    "time": 582.8125,
                    "velocity": 0.3858267716535433,
                    "duration": 0.15625
                },
                {
                    "name": "D5",
                    "midi": 74,
                    "time": 582.96875,
                    "velocity": 0.3858267716535433,
                    "duration": 0.15625
                },
                {
                    "name": "C#5",
                    "midi": 73,
                    "time": 583.125,
                    "velocity": 0.3858267716535433,
                    "duration": 0.15625
                },
                {
                    "name": "E5",
                    "midi": 76,
                    "time": 583.28125,
                    "velocity": 0.3858267716535433,
                    "duration": 0.15625
                },
                {
                    "name": "E5",
                    "midi": 76,
                    "time": 583.4375,
                    "velocity": 0.3858267716535433,
                    "duration": 0.15625
                },
                {
                    "name": "C#5",
                    "midi": 73,
                    "time": 583.59375,
                    "velocity": 0.3858267716535433,
                    "duration": 0.15625
                },
                {
                    "name": "C#5",
                    "midi": 73,
                    "time": 583.75,
                    "velocity": 0.3858267716535433,
                    "duration": 0.15625
                },
                {
                    "name": "E5",
                    "midi": 76,
                    "time": 583.90625,
                    "velocity": 0.3858267716535433,
                    "duration": 0.15625
                },
                {
                    "name": "E5",
                    "midi": 76,
                    "time": 584.0625,
                    "velocity": 0.3858267716535433,
                    "duration": 0.15625
                },
                {
                    "name": "C#5",
                    "midi": 73,
                    "time": 584.21875,
                    "velocity": 0.3858267716535433,
                    "duration": 0.15625
                },
                {
                    "name": "C#5",
                    "midi": 73,
                    "time": 584.375,
                    "velocity": 0.3858267716535433,
                    "duration": 0.15625
                },
                {
                    "name": "E5",
                    "midi": 76,
                    "time": 584.53125,
                    "velocity": 0.3858267716535433,
                    "duration": 0.15625
                },
                {
                    "name": "E5",
                    "midi": 76,
                    "time": 584.6875,
                    "velocity": 0.3858267716535433,
                    "duration": 0.15625
                },
                {
                    "name": "C#5",
                    "midi": 73,
                    "time": 584.84375,
                    "velocity": 0.3858267716535433,
                    "duration": 0.15625
                },
                {
                    "name": "D5",
                    "midi": 74,
                    "time": 585,
                    "velocity": 0.3858267716535433,
                    "duration": 0.15625
                },
                {
                    "name": "F5",
                    "midi": 77,
                    "time": 585.15625,
                    "velocity": 0.3858267716535433,
                    "duration": 0.15625
                },
                {
                    "name": "F5",
                    "midi": 77,
                    "time": 585.3125,
                    "velocity": 0.3858267716535433,
                    "duration": 0.15625
                },
                {
                    "name": "D5",
                    "midi": 74,
                    "time": 585.46875,
                    "velocity": 0.3858267716535433,
                    "duration": 0.15625
                },
                {
                    "name": "D5",
                    "midi": 74,
                    "time": 585.625,
                    "velocity": 0.3858267716535433,
                    "duration": 0.15625
                },
                {
                    "name": "F5",
                    "midi": 77,
                    "time": 585.78125,
                    "velocity": 0.3858267716535433,
                    "duration": 0.15625
                },
                {
                    "name": "F5",
                    "midi": 77,
                    "time": 585.9375,
                    "velocity": 0.3858267716535433,
                    "duration": 0.15625
                },
                {
                    "name": "D5",
                    "midi": 74,
                    "time": 586.09375,
                    "velocity": 0.3858267716535433,
                    "duration": 0.15625
                },
                {
                    "name": "D5",
                    "midi": 74,
                    "time": 586.25,
                    "velocity": 0.3858267716535433,
                    "duration": 0.15625
                },
                {
                    "name": "F5",
                    "midi": 77,
                    "time": 586.40625,
                    "velocity": 0.3858267716535433,
                    "duration": 0.15625
                },
                {
                    "name": "F5",
                    "midi": 77,
                    "time": 586.5625,
                    "velocity": 0.3858267716535433,
                    "duration": 0.15625
                },
                {
                    "name": "D5",
                    "midi": 74,
                    "time": 586.71875,
                    "velocity": 0.3858267716535433,
                    "duration": 0.15625
                },
                {
                    "name": "C#5",
                    "midi": 73,
                    "time": 586.875,
                    "velocity": 0.3858267716535433,
                    "duration": 0.15625
                },
                {
                    "name": "E5",
                    "midi": 76,
                    "time": 587.03125,
                    "velocity": 0.3858267716535433,
                    "duration": 0.15625
                },
                {
                    "name": "E5",
                    "midi": 76,
                    "time": 587.1875,
                    "velocity": 0.3858267716535433,
                    "duration": 0.15625
                },
                {
                    "name": "C#5",
                    "midi": 73,
                    "time": 587.34375,
                    "velocity": 0.3858267716535433,
                    "duration": 0.15625
                },
                {
                    "name": "C#5",
                    "midi": 73,
                    "time": 587.5,
                    "velocity": 0.3858267716535433,
                    "duration": 0.15625
                },
                {
                    "name": "E5",
                    "midi": 76,
                    "time": 587.65625,
                    "velocity": 0.3858267716535433,
                    "duration": 0.15625
                },
                {
                    "name": "E5",
                    "midi": 76,
                    "time": 587.8125,
                    "velocity": 0.3858267716535433,
                    "duration": 0.15625
                },
                {
                    "name": "C#5",
                    "midi": 73,
                    "time": 587.96875,
                    "velocity": 0.3858267716535433,
                    "duration": 0.15625
                },
                {
                    "name": "C#5",
                    "midi": 73,
                    "time": 588.125,
                    "velocity": 0.3858267716535433,
                    "duration": 0.15625
                },
                {
                    "name": "E5",
                    "midi": 76,
                    "time": 588.28125,
                    "velocity": 0.3858267716535433,
                    "duration": 0.15625
                },
                {
                    "name": "E5",
                    "midi": 76,
                    "time": 588.4375,
                    "velocity": 0.3858267716535433,
                    "duration": 0.15625
                },
                {
                    "name": "C#5",
                    "midi": 73,
                    "time": 588.59375,
                    "velocity": 0.3858267716535433,
                    "duration": 0.15625
                },
                {
                    "name": "D5",
                    "midi": 74,
                    "time": 588.75,
                    "velocity": 0.3858267716535433,
                    "duration": 0.15625
                },
                {
                    "name": "F5",
                    "midi": 77,
                    "time": 588.90625,
                    "velocity": 0.3858267716535433,
                    "duration": 0.15625
                },
                {
                    "name": "F5",
                    "midi": 77,
                    "time": 589.0625,
                    "velocity": 0.3858267716535433,
                    "duration": 0.15625
                },
                {
                    "name": "D5",
                    "midi": 74,
                    "time": 589.21875,
                    "velocity": 0.3858267716535433,
                    "duration": 0.15625
                },
                {
                    "name": "D5",
                    "midi": 74,
                    "time": 589.375,
                    "velocity": 0.3858267716535433,
                    "duration": 0.15625
                },
                {
                    "name": "F5",
                    "midi": 77,
                    "time": 589.53125,
                    "velocity": 0.3858267716535433,
                    "duration": 0.15625
                },
                {
                    "name": "F5",
                    "midi": 77,
                    "time": 589.6875,
                    "velocity": 0.3858267716535433,
                    "duration": 0.15625
                },
                {
                    "name": "D5",
                    "midi": 74,
                    "time": 589.84375,
                    "velocity": 0.3858267716535433,
                    "duration": 0.15625
                },
                {
                    "name": "D5",
                    "midi": 74,
                    "time": 590,
                    "velocity": 0.3858267716535433,
                    "duration": 0.15625
                },
                {
                    "name": "F5",
                    "midi": 77,
                    "time": 590.15625,
                    "velocity": 0.3858267716535433,
                    "duration": 0.15625
                },
                {
                    "name": "F5",
                    "midi": 77,
                    "time": 590.3125,
                    "velocity": 0.3858267716535433,
                    "duration": 0.15625
                },
                {
                    "name": "D5",
                    "midi": 74,
                    "time": 590.46875,
                    "velocity": 0.3858267716535433,
                    "duration": 0.15625
                },
                {
                    "name": "E5",
                    "midi": 76,
                    "time": 590.625,
                    "velocity": 0.3858267716535433,
                    "duration": 0.15625
                },
                {
                    "name": "G5",
                    "midi": 79,
                    "time": 590.78125,
                    "velocity": 0.3858267716535433,
                    "duration": 0.15625
                },
                {
                    "name": "G5",
                    "midi": 79,
                    "time": 590.9375,
                    "velocity": 0.3858267716535433,
                    "duration": 0.15625
                },
                {
                    "name": "E5",
                    "midi": 76,
                    "time": 591.09375,
                    "velocity": 0.3858267716535433,
                    "duration": 0.15625
                },
                {
                    "name": "E5",
                    "midi": 76,
                    "time": 591.25,
                    "velocity": 0.3858267716535433,
                    "duration": 0.15625
                },
                {
                    "name": "G5",
                    "midi": 79,
                    "time": 591.40625,
                    "velocity": 0.3858267716535433,
                    "duration": 0.15625
                },
                {
                    "name": "G5",
                    "midi": 79,
                    "time": 591.5625,
                    "velocity": 0.3858267716535433,
                    "duration": 0.15625
                },
                {
                    "name": "E5",
                    "midi": 76,
                    "time": 591.71875,
                    "velocity": 0.3858267716535433,
                    "duration": 0.15625
                },
                {
                    "name": "E5",
                    "midi": 76,
                    "time": 591.875,
                    "velocity": 0.3858267716535433,
                    "duration": 0.15625
                },
                {
                    "name": "G5",
                    "midi": 79,
                    "time": 592.03125,
                    "velocity": 0.3858267716535433,
                    "duration": 0.15625
                },
                {
                    "name": "G5",
                    "midi": 79,
                    "time": 592.1875,
                    "velocity": 0.3858267716535433,
                    "duration": 0.15625
                },
                {
                    "name": "E5",
                    "midi": 76,
                    "time": 592.34375,
                    "velocity": 0.3858267716535433,
                    "duration": 0.15625
                },
                {
                    "name": "F5",
                    "midi": 77,
                    "time": 592.5,
                    "velocity": 0.3858267716535433,
                    "duration": 0.15625
                },
                {
                    "name": "A5",
                    "midi": 81,
                    "time": 592.65625,
                    "velocity": 0.3858267716535433,
                    "duration": 0.15625
                },
                {
                    "name": "A5",
                    "midi": 81,
                    "time": 592.8125,
                    "velocity": 0.3858267716535433,
                    "duration": 0.15625
                },
                {
                    "name": "F5",
                    "midi": 77,
                    "time": 592.96875,
                    "velocity": 0.3858267716535433,
                    "duration": 0.15625
                },
                {
                    "name": "F5",
                    "midi": 77,
                    "time": 593.125,
                    "velocity": 0.3858267716535433,
                    "duration": 0.15625
                },
                {
                    "name": "A5",
                    "midi": 81,
                    "time": 593.28125,
                    "velocity": 0.3858267716535433,
                    "duration": 0.15625
                },
                {
                    "name": "A5",
                    "midi": 81,
                    "time": 593.4375,
                    "velocity": 0.3858267716535433,
                    "duration": 0.15625
                },
                {
                    "name": "F5",
                    "midi": 77,
                    "time": 593.59375,
                    "velocity": 0.3858267716535433,
                    "duration": 0.15625
                },
                {
                    "name": "F5",
                    "midi": 77,
                    "time": 593.75,
                    "velocity": 0.3858267716535433,
                    "duration": 0.15625
                },
                {
                    "name": "A5",
                    "midi": 81,
                    "time": 593.90625,
                    "velocity": 0.3858267716535433,
                    "duration": 0.15625
                },
                {
                    "name": "A5",
                    "midi": 81,
                    "time": 594.0625,
                    "velocity": 0.3858267716535433,
                    "duration": 0.15625
                },
                {
                    "name": "F5",
                    "midi": 77,
                    "time": 594.21875,
                    "velocity": 0.3858267716535433,
                    "duration": 0.15625
                },
                {
                    "name": "E5",
                    "midi": 76,
                    "time": 594.375,
                    "velocity": 0.3858267716535433,
                    "duration": 0.15625
                },
                {
                    "name": "G5",
                    "midi": 79,
                    "time": 594.53125,
                    "velocity": 0.3858267716535433,
                    "duration": 0.15625
                },
                {
                    "name": "G5",
                    "midi": 79,
                    "time": 594.6875,
                    "velocity": 0.3858267716535433,
                    "duration": 0.15625
                },
                {
                    "name": "E5",
                    "midi": 76,
                    "time": 594.84375,
                    "velocity": 0.3858267716535433,
                    "duration": 0.15625
                },
                {
                    "name": "E5",
                    "midi": 76,
                    "time": 595,
                    "velocity": 0.3858267716535433,
                    "duration": 0.15625
                },
                {
                    "name": "G5",
                    "midi": 79,
                    "time": 595.15625,
                    "velocity": 0.3858267716535433,
                    "duration": 0.15625
                },
                {
                    "name": "G5",
                    "midi": 79,
                    "time": 595.3125,
                    "velocity": 0.3858267716535433,
                    "duration": 0.15625
                },
                {
                    "name": "E5",
                    "midi": 76,
                    "time": 595.46875,
                    "velocity": 0.3858267716535433,
                    "duration": 0.15625
                },
                {
                    "name": "E5",
                    "midi": 76,
                    "time": 595.625,
                    "velocity": 0.3858267716535433,
                    "duration": 0.15625
                },
                {
                    "name": "G5",
                    "midi": 79,
                    "time": 595.78125,
                    "velocity": 0.3858267716535433,
                    "duration": 0.15625
                },
                {
                    "name": "G5",
                    "midi": 79,
                    "time": 595.9375,
                    "velocity": 0.3858267716535433,
                    "duration": 0.15625
                },
                {
                    "name": "E5",
                    "midi": 76,
                    "time": 596.09375,
                    "velocity": 0.3858267716535433,
                    "duration": 0.15625
                },
                {
                    "name": "A4",
                    "midi": 69,
                    "time": 596.25,
                    "velocity": 0.3858267716535433,
                    "duration": 0.15625
                },
                {
                    "name": "F5",
                    "midi": 77,
                    "time": 596.40625,
                    "velocity": 0.3858267716535433,
                    "duration": 0.15625
                },
                {
                    "name": "A5",
                    "midi": 81,
                    "time": 596.5625,
                    "velocity": 0.3858267716535433,
                    "duration": 0.15625
                },
                {
                    "name": "F5",
                    "midi": 77,
                    "time": 596.71875,
                    "velocity": 0.3858267716535433,
                    "duration": 0.15625
                },
                {
                    "name": "G5",
                    "midi": 79,
                    "time": 596.875,
                    "velocity": 0.3858267716535433,
                    "duration": 0.15625
                },
                {
                    "name": "E5",
                    "midi": 76,
                    "time": 597.03125,
                    "velocity": 0.3858267716535433,
                    "duration": 0.15625
                },
                {
                    "name": "G5",
                    "midi": 79,
                    "time": 597.1875,
                    "velocity": 0.3858267716535433,
                    "duration": 0.15625
                },
                {
                    "name": "E5",
                    "midi": 76,
                    "time": 597.34375,
                    "velocity": 0.3858267716535433,
                    "duration": 0.15625
                },
                {
                    "name": "C#5",
                    "midi": 73,
                    "time": 597.5,
                    "velocity": 0.3858267716535433,
                    "duration": 0.15625
                },
                {
                    "name": "E5",
                    "midi": 76,
                    "time": 597.65625,
                    "velocity": 0.3858267716535433,
                    "duration": 0.15625
                },
                {
                    "name": "C#5",
                    "midi": 73,
                    "time": 597.8125,
                    "velocity": 0.3858267716535433,
                    "duration": 0.15625
                },
                {
                    "name": "E5",
                    "midi": 76,
                    "time": 597.96875,
                    "velocity": 0.3858267716535433,
                    "duration": 0.15625
                },
                {
                    "name": "D5",
                    "midi": 74,
                    "time": 598.125,
                    "velocity": 0.3858267716535433,
                    "duration": 1.875
                },
                {
                    "name": "D5",
                    "midi": 74,
                    "time": 600,
                    "velocity": 0.3858267716535433,
                    "duration": 0.625
                },
                {
                    "name": "D4",
                    "midi": 62,
                    "time": 600.625,
                    "velocity": 0.3858267716535433,
                    "duration": 0.625
                },
                {
                    "name": "D5",
                    "midi": 74,
                    "time": 601.25,
                    "velocity": 0.3858267716535433,
                    "duration": 0.625
                },
                {
                    "name": "C#5",
                    "midi": 73,
                    "time": 601.875,
                    "velocity": 0.3858267716535433,
                    "duration": 0.15625
                },
                {
                    "name": "E5",
                    "midi": 76,
                    "time": 602.03125,
                    "velocity": 0.3858267716535433,
                    "duration": 0.15625
                },
                {
                    "name": "E5",
                    "midi": 76,
                    "time": 602.1875,
                    "velocity": 0.3858267716535433,
                    "duration": 0.15625
                },
                {
                    "name": "C#5",
                    "midi": 73,
                    "time": 602.34375,
                    "velocity": 0.3858267716535433,
                    "duration": 0.15625
                },
                {
                    "name": "C#5",
                    "midi": 73,
                    "time": 602.5,
                    "velocity": 0.3858267716535433,
                    "duration": 0.15625
                },
                {
                    "name": "E5",
                    "midi": 76,
                    "time": 602.65625,
                    "velocity": 0.3858267716535433,
                    "duration": 0.15625
                },
                {
                    "name": "E5",
                    "midi": 76,
                    "time": 602.8125,
                    "velocity": 0.3858267716535433,
                    "duration": 0.15625
                },
                {
                    "name": "C#5",
                    "midi": 73,
                    "time": 602.96875,
                    "velocity": 0.3858267716535433,
                    "duration": 0.15625
                },
                {
                    "name": "C#5",
                    "midi": 73,
                    "time": 603.125,
                    "velocity": 0.3858267716535433,
                    "duration": 0.15625
                },
                {
                    "name": "E5",
                    "midi": 76,
                    "time": 603.28125,
                    "velocity": 0.3858267716535433,
                    "duration": 0.15625
                },
                {
                    "name": "E5",
                    "midi": 76,
                    "time": 603.4375,
                    "velocity": 0.3858267716535433,
                    "duration": 0.15625
                },
                {
                    "name": "C#5",
                    "midi": 73,
                    "time": 603.59375,
                    "velocity": 0.3858267716535433,
                    "duration": 0.15625
                },
                {
                    "name": "D5",
                    "midi": 74,
                    "time": 603.75,
                    "velocity": 0.3858267716535433,
                    "duration": 0.625
                },
                {
                    "name": "D4",
                    "midi": 62,
                    "time": 604.375,
                    "velocity": 0.3858267716535433,
                    "duration": 0.625
                },
                {
                    "name": "D5",
                    "midi": 74,
                    "time": 605,
                    "velocity": 0.3858267716535433,
                    "duration": 0.625
                },
                {
                    "name": "E5",
                    "midi": 76,
                    "time": 605.625,
                    "velocity": 0.3858267716535433,
                    "duration": 0.15625
                },
                {
                    "name": "G5",
                    "midi": 79,
                    "time": 605.78125,
                    "velocity": 0.3858267716535433,
                    "duration": 0.15625
                },
                {
                    "name": "G5",
                    "midi": 79,
                    "time": 605.9375,
                    "velocity": 0.3858267716535433,
                    "duration": 0.15625
                },
                {
                    "name": "E5",
                    "midi": 76,
                    "time": 606.09375,
                    "velocity": 0.3858267716535433,
                    "duration": 0.15625
                },
                {
                    "name": "E5",
                    "midi": 76,
                    "time": 606.25,
                    "velocity": 0.3858267716535433,
                    "duration": 0.15625
                },
                {
                    "name": "G5",
                    "midi": 79,
                    "time": 606.40625,
                    "velocity": 0.3858267716535433,
                    "duration": 0.15625
                },
                {
                    "name": "G5",
                    "midi": 79,
                    "time": 606.5625,
                    "velocity": 0.3858267716535433,
                    "duration": 0.15625
                },
                {
                    "name": "E5",
                    "midi": 76,
                    "time": 606.71875,
                    "velocity": 0.3858267716535433,
                    "duration": 0.15625
                },
                {
                    "name": "E5",
                    "midi": 76,
                    "time": 606.875,
                    "velocity": 0.3858267716535433,
                    "duration": 0.15625
                },
                {
                    "name": "G5",
                    "midi": 79,
                    "time": 607.03125,
                    "velocity": 0.3858267716535433,
                    "duration": 0.15625
                },
                {
                    "name": "G5",
                    "midi": 79,
                    "time": 607.1875,
                    "velocity": 0.3858267716535433,
                    "duration": 0.15625
                },
                {
                    "name": "E5",
                    "midi": 76,
                    "time": 607.34375,
                    "velocity": 0.3858267716535433,
                    "duration": 0.15625
                },
                {
                    "name": "F5",
                    "midi": 77,
                    "time": 607.5,
                    "velocity": 0.3858267716535433,
                    "duration": 0.625
                },
                {
                    "name": "F4",
                    "midi": 65,
                    "time": 608.125,
                    "velocity": 0.3858267716535433,
                    "duration": 0.625
                },
                {
                    "name": "F5",
                    "midi": 77,
                    "time": 608.75,
                    "velocity": 0.3858267716535433,
                    "duration": 0.625
                },
                {
                    "name": "E5",
                    "midi": 76,
                    "time": 609.375,
                    "velocity": 0.3858267716535433,
                    "duration": 0.15625
                },
                {
                    "name": "G5",
                    "midi": 79,
                    "time": 609.53125,
                    "velocity": 0.3858267716535433,
                    "duration": 0.15625
                },
                {
                    "name": "G5",
                    "midi": 79,
                    "time": 609.6875,
                    "velocity": 0.3858267716535433,
                    "duration": 0.15625
                },
                {
                    "name": "E5",
                    "midi": 76,
                    "time": 609.84375,
                    "velocity": 0.3858267716535433,
                    "duration": 0.15625
                },
                {
                    "name": "E5",
                    "midi": 76,
                    "time": 610,
                    "velocity": 0.3858267716535433,
                    "duration": 0.15625
                },
                {
                    "name": "G5",
                    "midi": 79,
                    "time": 610.15625,
                    "velocity": 0.3858267716535433,
                    "duration": 0.15625
                },
                {
                    "name": "G5",
                    "midi": 79,
                    "time": 610.3125,
                    "velocity": 0.3858267716535433,
                    "duration": 0.15625
                },
                {
                    "name": "E5",
                    "midi": 76,
                    "time": 610.46875,
                    "velocity": 0.3858267716535433,
                    "duration": 0.15625
                },
                {
                    "name": "E5",
                    "midi": 76,
                    "time": 610.625,
                    "velocity": 0.3858267716535433,
                    "duration": 0.15625
                },
                {
                    "name": "G5",
                    "midi": 79,
                    "time": 610.78125,
                    "velocity": 0.3858267716535433,
                    "duration": 0.15625
                },
                {
                    "name": "G5",
                    "midi": 79,
                    "time": 610.9375,
                    "velocity": 0.3858267716535433,
                    "duration": 0.15625
                },
                {
                    "name": "E5",
                    "midi": 76,
                    "time": 611.09375,
                    "velocity": 0.3858267716535433,
                    "duration": 0.15625
                },
                {
                    "name": "D5",
                    "midi": 74,
                    "time": 611.25,
                    "velocity": 0.3858267716535433,
                    "duration": 0.625
                },
                {
                    "name": "D4",
                    "midi": 62,
                    "time": 611.875,
                    "velocity": 0.3858267716535433,
                    "duration": 0.625
                },
                {
                    "name": "D5",
                    "midi": 74,
                    "time": 612.5,
                    "velocity": 0.3858267716535433,
                    "duration": 0.625
                },
                {
                    "name": "C#5",
                    "midi": 73,
                    "time": 613.125,
                    "velocity": 0.3858267716535433,
                    "duration": 0.15625
                },
                {
                    "name": "E5",
                    "midi": 76,
                    "time": 613.28125,
                    "velocity": 0.3858267716535433,
                    "duration": 0.15625
                },
                {
                    "name": "E5",
                    "midi": 76,
                    "time": 613.4375,
                    "velocity": 0.3858267716535433,
                    "duration": 0.15625
                },
                {
                    "name": "C#5",
                    "midi": 73,
                    "time": 613.59375,
                    "velocity": 0.3858267716535433,
                    "duration": 0.15625
                },
                {
                    "name": "C#5",
                    "midi": 73,
                    "time": 613.75,
                    "velocity": 0.3858267716535433,
                    "duration": 0.15625
                },
                {
                    "name": "E5",
                    "midi": 76,
                    "time": 613.90625,
                    "velocity": 0.3858267716535433,
                    "duration": 0.15625
                },
                {
                    "name": "E5",
                    "midi": 76,
                    "time": 614.0625,
                    "velocity": 0.3858267716535433,
                    "duration": 0.15625
                },
                {
                    "name": "C#5",
                    "midi": 73,
                    "time": 614.21875,
                    "velocity": 0.3858267716535433,
                    "duration": 0.15625
                },
                {
                    "name": "C#5",
                    "midi": 73,
                    "time": 614.375,
                    "velocity": 0.3858267716535433,
                    "duration": 0.15625
                },
                {
                    "name": "E5",
                    "midi": 76,
                    "time": 614.53125,
                    "velocity": 0.3858267716535433,
                    "duration": 0.15625
                },
                {
                    "name": "E5",
                    "midi": 76,
                    "time": 614.6875,
                    "velocity": 0.3858267716535433,
                    "duration": 0.15625
                },
                {
                    "name": "C#5",
                    "midi": 73,
                    "time": 614.84375,
                    "velocity": 0.3858267716535433,
                    "duration": 0.15625
                },
                {
                    "name": "D5",
                    "midi": 74,
                    "time": 615,
                    "velocity": 0.3858267716535433,
                    "duration": 0.625
                },
                {
                    "name": "D4",
                    "midi": 62,
                    "time": 615.625,
                    "velocity": 0.3858267716535433,
                    "duration": 0.625
                },
                {
                    "name": "D5",
                    "midi": 74,
                    "time": 616.25,
                    "velocity": 0.3858267716535433,
                    "duration": 0.625
                },
                {
                    "name": "C#5",
                    "midi": 73,
                    "time": 616.875,
                    "velocity": 0.3858267716535433,
                    "duration": 0.15625
                },
                {
                    "name": "E5",
                    "midi": 76,
                    "time": 617.03125,
                    "velocity": 0.3858267716535433,
                    "duration": 0.15625
                },
                {
                    "name": "E5",
                    "midi": 76,
                    "time": 617.1875,
                    "velocity": 0.3858267716535433,
                    "duration": 0.15625
                },
                {
                    "name": "C#5",
                    "midi": 73,
                    "time": 617.34375,
                    "velocity": 0.3858267716535433,
                    "duration": 0.15625
                },
                {
                    "name": "C#5",
                    "midi": 73,
                    "time": 617.5,
                    "velocity": 0.3858267716535433,
                    "duration": 0.15625
                },
                {
                    "name": "E5",
                    "midi": 76,
                    "time": 617.65625,
                    "velocity": 0.3858267716535433,
                    "duration": 0.15625
                },
                {
                    "name": "E5",
                    "midi": 76,
                    "time": 617.8125,
                    "velocity": 0.3858267716535433,
                    "duration": 0.15625
                },
                {
                    "name": "C#5",
                    "midi": 73,
                    "time": 617.96875,
                    "velocity": 0.3858267716535433,
                    "duration": 0.15625
                },
                {
                    "name": "C#5",
                    "midi": 73,
                    "time": 618.125,
                    "velocity": 0.3858267716535433,
                    "duration": 0.15625
                },
                {
                    "name": "E5",
                    "midi": 76,
                    "time": 618.28125,
                    "velocity": 0.3858267716535433,
                    "duration": 0.15625
                },
                {
                    "name": "E5",
                    "midi": 76,
                    "time": 618.4375,
                    "velocity": 0.3858267716535433,
                    "duration": 0.15625
                },
                {
                    "name": "C#5",
                    "midi": 73,
                    "time": 618.59375,
                    "velocity": 0.3858267716535433,
                    "duration": 0.15625
                },
                {
                    "name": "D5",
                    "midi": 74,
                    "time": 618.75,
                    "velocity": 0.3858267716535433,
                    "duration": 0.625
                },
                {
                    "name": "D4",
                    "midi": 62,
                    "time": 619.375,
                    "velocity": 0.3858267716535433,
                    "duration": 0.625
                },
                {
                    "name": "D5",
                    "midi": 74,
                    "time": 620,
                    "velocity": 0.3858267716535433,
                    "duration": 0.625
                },
                {
                    "name": "E5",
                    "midi": 76,
                    "time": 620.625,
                    "velocity": 0.3858267716535433,
                    "duration": 0.15625
                },
                {
                    "name": "G5",
                    "midi": 79,
                    "time": 620.78125,
                    "velocity": 0.3858267716535433,
                    "duration": 0.15625
                },
                {
                    "name": "G5",
                    "midi": 79,
                    "time": 620.9375,
                    "velocity": 0.3858267716535433,
                    "duration": 0.15625
                },
                {
                    "name": "E5",
                    "midi": 76,
                    "time": 621.09375,
                    "velocity": 0.3858267716535433,
                    "duration": 0.15625
                },
                {
                    "name": "E5",
                    "midi": 76,
                    "time": 621.25,
                    "velocity": 0.3858267716535433,
                    "duration": 0.15625
                },
                {
                    "name": "G5",
                    "midi": 79,
                    "time": 621.40625,
                    "velocity": 0.3858267716535433,
                    "duration": 0.15625
                },
                {
                    "name": "G5",
                    "midi": 79,
                    "time": 621.5625,
                    "velocity": 0.3858267716535433,
                    "duration": 0.15625
                },
                {
                    "name": "E5",
                    "midi": 76,
                    "time": 621.71875,
                    "velocity": 0.3858267716535433,
                    "duration": 0.15625
                },
                {
                    "name": "E5",
                    "midi": 76,
                    "time": 621.875,
                    "velocity": 0.3858267716535433,
                    "duration": 0.15625
                },
                {
                    "name": "G5",
                    "midi": 79,
                    "time": 622.03125,
                    "velocity": 0.3858267716535433,
                    "duration": 0.15625
                },
                {
                    "name": "G5",
                    "midi": 79,
                    "time": 622.1875,
                    "velocity": 0.3858267716535433,
                    "duration": 0.15625
                },
                {
                    "name": "E5",
                    "midi": 76,
                    "time": 622.34375,
                    "velocity": 0.3858267716535433,
                    "duration": 0.15625
                },
                {
                    "name": "F5",
                    "midi": 77,
                    "time": 622.5,
                    "velocity": 0.3858267716535433,
                    "duration": 0.625
                },
                {
                    "name": "F4",
                    "midi": 65,
                    "time": 623.125,
                    "velocity": 0.3858267716535433,
                    "duration": 0.625
                },
                {
                    "name": "F5",
                    "midi": 77,
                    "time": 623.75,
                    "velocity": 0.3858267716535433,
                    "duration": 0.625
                },
                {
                    "name": "E5",
                    "midi": 76,
                    "time": 624.375,
                    "velocity": 0.3858267716535433,
                    "duration": 0.15625
                },
                {
                    "name": "G5",
                    "midi": 79,
                    "time": 624.53125,
                    "velocity": 0.3858267716535433,
                    "duration": 0.15625
                },
                {
                    "name": "G5",
                    "midi": 79,
                    "time": 624.6875,
                    "velocity": 0.3858267716535433,
                    "duration": 0.15625
                },
                {
                    "name": "E5",
                    "midi": 76,
                    "time": 624.84375,
                    "velocity": 0.3858267716535433,
                    "duration": 0.15625
                },
                {
                    "name": "E5",
                    "midi": 76,
                    "time": 625,
                    "velocity": 0.3858267716535433,
                    "duration": 0.15625
                },
                {
                    "name": "G5",
                    "midi": 79,
                    "time": 625.15625,
                    "velocity": 0.3858267716535433,
                    "duration": 0.15625
                },
                {
                    "name": "G5",
                    "midi": 79,
                    "time": 625.3125,
                    "velocity": 0.3858267716535433,
                    "duration": 0.15625
                },
                {
                    "name": "E5",
                    "midi": 76,
                    "time": 625.46875,
                    "velocity": 0.3858267716535433,
                    "duration": 0.15625
                },
                {
                    "name": "E5",
                    "midi": 76,
                    "time": 625.625,
                    "velocity": 0.3858267716535433,
                    "duration": 0.15625
                },
                {
                    "name": "G5",
                    "midi": 79,
                    "time": 625.78125,
                    "velocity": 0.3858267716535433,
                    "duration": 0.15625
                },
                {
                    "name": "G5",
                    "midi": 79,
                    "time": 625.9375,
                    "velocity": 0.3858267716535433,
                    "duration": 0.15625
                },
                {
                    "name": "E5",
                    "midi": 76,
                    "time": 626.09375,
                    "velocity": 0.3858267716535433,
                    "duration": 0.15625
                },
                {
                    "name": "A4",
                    "midi": 69,
                    "time": 626.25,
                    "velocity": 0.3858267716535433,
                    "duration": 0.15625
                },
                {
                    "name": "F5",
                    "midi": 77,
                    "time": 626.40625,
                    "velocity": 0.3858267716535433,
                    "duration": 0.15625
                },
                {
                    "name": "A5",
                    "midi": 81,
                    "time": 626.5625,
                    "velocity": 0.3858267716535433,
                    "duration": 0.15625
                },
                {
                    "name": "F5",
                    "midi": 77,
                    "time": 626.71875,
                    "velocity": 0.3858267716535433,
                    "duration": 0.15625
                },
                {
                    "name": "E5",
                    "midi": 76,
                    "time": 626.875,
                    "velocity": 0.3858267716535433,
                    "duration": 0.15625
                },
                {
                    "name": "G5",
                    "midi": 79,
                    "time": 627.03125,
                    "velocity": 0.3858267716535433,
                    "duration": 0.15625
                },
                {
                    "name": "E5",
                    "midi": 76,
                    "time": 627.1875,
                    "velocity": 0.3858267716535433,
                    "duration": 0.15625
                },
                {
                    "name": "G5",
                    "midi": 79,
                    "time": 627.34375,
                    "velocity": 0.3858267716535433,
                    "duration": 0.15625
                },
                {
                    "name": "C#5",
                    "midi": 73,
                    "time": 627.5,
                    "velocity": 0.3858267716535433,
                    "duration": 0.15625
                },
                {
                    "name": "E5",
                    "midi": 76,
                    "time": 627.65625,
                    "velocity": 0.3858267716535433,
                    "duration": 0.15625
                },
                {
                    "name": "C#5",
                    "midi": 73,
                    "time": 627.8125,
                    "velocity": 0.3858267716535433,
                    "duration": 0.15625
                },
                {
                    "name": "E5",
                    "midi": 76,
                    "time": 627.96875,
                    "velocity": 0.3858267716535433,
                    "duration": 0.15625
                },
                {
                    "name": "D5",
                    "midi": 74,
                    "time": 628.125,
                    "velocity": 0.3858267716535433,
                    "duration": 1.875
                },
                {
                    "name": "D5",
                    "midi": 74,
                    "time": 630,
                    "velocity": 0.3858267716535433,
                    "duration": 0.625
                },
                {
                    "name": "D5",
                    "midi": 74,
                    "time": 630.625,
                    "velocity": 0.3858267716535433,
                    "duration": 0.9375
                },
                {
                    "name": "D5",
                    "midi": 74,
                    "time": 631.5625,
                    "velocity": 0.3858267716535433,
                    "duration": 0.3125
                },
                {
                    "name": "D5",
                    "midi": 74,
                    "time": 631.875,
                    "velocity": 0.3858267716535433,
                    "duration": 0.625
                },
                {
                    "name": "D5",
                    "midi": 74,
                    "time": 632.5,
                    "velocity": 0.3858267716535433,
                    "duration": 0.9375
                },
                {
                    "name": "D5",
                    "midi": 74,
                    "time": 633.4375,
                    "velocity": 0.3858267716535433,
                    "duration": 0.3125
                },
                {
                    "name": "C#5",
                    "midi": 73,
                    "time": 633.75,
                    "velocity": 0.3858267716535433,
                    "duration": 0.625
                },
                {
                    "name": "C#5",
                    "midi": 73,
                    "time": 634.375,
                    "velocity": 0.3858267716535433,
                    "duration": 0.9375
                },
                {
                    "name": "C#5",
                    "midi": 73,
                    "time": 635.3125,
                    "velocity": 0.3858267716535433,
                    "duration": 0.3125
                },
                {
                    "name": "D5",
                    "midi": 74,
                    "time": 635.625,
                    "velocity": 0.3858267716535433,
                    "duration": 0.625
                },
                {
                    "name": "D4",
                    "midi": 62,
                    "time": 637.5,
                    "velocity": 0.3858267716535433,
                    "duration": 0.625
                },
                {
                    "name": "D4",
                    "midi": 62,
                    "time": 638.125,
                    "velocity": 0.3858267716535433,
                    "duration": 0.9375
                },
                {
                    "name": "D4",
                    "midi": 62,
                    "time": 639.0625,
                    "velocity": 0.3858267716535433,
                    "duration": 0.3125
                },
                {
                    "name": "D4",
                    "midi": 62,
                    "time": 639.375,
                    "velocity": 0.3858267716535433,
                    "duration": 0.625
                },
                {
                    "name": "D4",
                    "midi": 62,
                    "time": 640,
                    "velocity": 0.3858267716535433,
                    "duration": 0.9375
                },
                {
                    "name": "D4",
                    "midi": 62,
                    "time": 640.9375,
                    "velocity": 0.3858267716535433,
                    "duration": 0.3125
                },
                {
                    "name": "C#4",
                    "midi": 61,
                    "time": 641.25,
                    "velocity": 0.3858267716535433,
                    "duration": 0.625
                },
                {
                    "name": "C#4",
                    "midi": 61,
                    "time": 641.875,
                    "velocity": 0.3858267716535433,
                    "duration": 0.9375
                },
                {
                    "name": "C#4",
                    "midi": 61,
                    "time": 642.8125,
                    "velocity": 0.3858267716535433,
                    "duration": 0.3125
                },
                {
                    "name": "D4",
                    "midi": 62,
                    "time": 643.125,
                    "velocity": 0.3858267716535433,
                    "duration": 1.875
                }
            ],
            "controlChanges": {},
            "id": 2,
            "name": "Instrument15",
            "instrumentNumber": 40,
            "instrument": "violin",
            "instrumentFamily": "strings",
            "channelNumber": 1,
            "isPercussion": false
        },
        {
            "startTime": 0,
            "duration": 645,
            "length": 1568,
            "notes": [
                {
                    "name": "D3",
                    "midi": 50,
                    "time": 0,
                    "velocity": 0.5039370078740157,
                    "duration": 0.625
                },
                {
                    "name": "D3",
                    "midi": 50,
                    "time": 0.625,
                    "velocity": 0.5039370078740157,
                    "duration": 0.9375
                },
                {
                    "name": "D3",
                    "midi": 50,
                    "time": 1.5625,
                    "velocity": 0.5039370078740157,
                    "duration": 0.3125
                },
                {
                    "name": "A2",
                    "midi": 45,
                    "time": 1.875,
                    "velocity": 0.5039370078740157,
                    "duration": 0.625
                },
                {
                    "name": "A2",
                    "midi": 45,
                    "time": 2.5,
                    "velocity": 0.5039370078740157,
                    "duration": 0.9375
                },
                {
                    "name": "A2",
                    "midi": 45,
                    "time": 3.4375,
                    "velocity": 0.5039370078740157,
                    "duration": 0.3125
                },
                {
                    "name": "D3",
                    "midi": 50,
                    "time": 3.75,
                    "velocity": 0.5039370078740157,
                    "duration": 0.625
                },
                {
                    "name": "D3",
                    "midi": 50,
                    "time": 4.375,
                    "velocity": 0.5039370078740157,
                    "duration": 0.9375
                },
                {
                    "name": "D3",
                    "midi": 50,
                    "time": 5.3125,
                    "velocity": 0.5039370078740157,
                    "duration": 0.3125
                },
                {
                    "name": "C3",
                    "midi": 48,
                    "time": 5.625,
                    "velocity": 0.5039370078740157,
                    "duration": 0.625
                },
                {
                    "name": "C3",
                    "midi": 48,
                    "time": 6.25,
                    "velocity": 0.5039370078740157,
                    "duration": 0.9375
                },
                {
                    "name": "C3",
                    "midi": 48,
                    "time": 7.1875,
                    "velocity": 0.5039370078740157,
                    "duration": 0.3125
                },
                {
                    "name": "F3",
                    "midi": 53,
                    "time": 7.5,
                    "velocity": 0.5039370078740157,
                    "duration": 0.625
                },
                {
                    "name": "F3",
                    "midi": 53,
                    "time": 8.125,
                    "velocity": 0.5039370078740157,
                    "duration": 0.9375
                },
                {
                    "name": "F3",
                    "midi": 53,
                    "time": 9.0625,
                    "velocity": 0.5039370078740157,
                    "duration": 0.3125
                },
                {
                    "name": "C3",
                    "midi": 48,
                    "time": 9.375,
                    "velocity": 0.5039370078740157,
                    "duration": 0.625
                },
                {
                    "name": "C#3",
                    "midi": 49,
                    "time": 10,
                    "velocity": 0.5039370078740157,
                    "duration": 0.9375
                },
                {
                    "name": "C#3",
                    "midi": 49,
                    "time": 10.9375,
                    "velocity": 0.5039370078740157,
                    "duration": 0.3125
                },
                {
                    "name": "D3",
                    "midi": 50,
                    "time": 11.25,
                    "velocity": 0.5039370078740157,
                    "duration": 0.625
                },
                {
                    "name": "A#2",
                    "midi": 46,
                    "time": 11.875,
                    "velocity": 0.5039370078740157,
                    "duration": 0.9375
                },
                {
                    "name": "G2",
                    "midi": 43,
                    "time": 12.8125,
                    "velocity": 0.5039370078740157,
                    "duration": 0.3125
                },
                {
                    "name": "A2",
                    "midi": 45,
                    "time": 13.125,
                    "velocity": 0.5039370078740157,
                    "duration": 0.625
                },
                {
                    "name": "A3",
                    "midi": 57,
                    "time": 13.75,
                    "velocity": 0.5039370078740157,
                    "duration": 0.3125
                },
                {
                    "name": "G3",
                    "midi": 55,
                    "time": 14.0625,
                    "velocity": 0.5039370078740157,
                    "duration": 0.3125
                },
                {
                    "name": "F3",
                    "midi": 53,
                    "time": 14.375,
                    "velocity": 0.5039370078740157,
                    "duration": 0.3125
                },
                {
                    "name": "E3",
                    "midi": 52,
                    "time": 14.6875,
                    "velocity": 0.5039370078740157,
                    "duration": 0.3125
                },
                {
                    "name": "D3",
                    "midi": 50,
                    "time": 15,
                    "velocity": 0.3858267716535433,
                    "duration": 0.625
                },
                {
                    "name": "D3",
                    "midi": 50,
                    "time": 15.625,
                    "velocity": 0.3858267716535433,
                    "duration": 0.9375
                },
                {
                    "name": "D3",
                    "midi": 50,
                    "time": 16.5625,
                    "velocity": 0.3858267716535433,
                    "duration": 0.3125
                },
                {
                    "name": "A2",
                    "midi": 45,
                    "time": 16.875,
                    "velocity": 0.3858267716535433,
                    "duration": 0.625
                },
                {
                    "name": "A2",
                    "midi": 45,
                    "time": 17.5,
                    "velocity": 0.3858267716535433,
                    "duration": 0.9375
                },
                {
                    "name": "A2",
                    "midi": 45,
                    "time": 18.4375,
                    "velocity": 0.3858267716535433,
                    "duration": 0.3125
                },
                {
                    "name": "D3",
                    "midi": 50,
                    "time": 18.75,
                    "velocity": 0.3858267716535433,
                    "duration": 0.625
                },
                {
                    "name": "D3",
                    "midi": 50,
                    "time": 19.375,
                    "velocity": 0.3858267716535433,
                    "duration": 0.9375
                },
                {
                    "name": "D3",
                    "midi": 50,
                    "time": 20.3125,
                    "velocity": 0.3858267716535433,
                    "duration": 0.3125
                },
                {
                    "name": "C3",
                    "midi": 48,
                    "time": 20.625,
                    "velocity": 0.3858267716535433,
                    "duration": 0.625
                },
                {
                    "name": "C3",
                    "midi": 48,
                    "time": 21.25,
                    "velocity": 0.3858267716535433,
                    "duration": 0.9375
                },
                {
                    "name": "C3",
                    "midi": 48,
                    "time": 22.1875,
                    "velocity": 0.3858267716535433,
                    "duration": 0.3125
                },
                {
                    "name": "F3",
                    "midi": 53,
                    "time": 22.5,
                    "velocity": 0.3858267716535433,
                    "duration": 0.625
                },
                {
                    "name": "F3",
                    "midi": 53,
                    "time": 23.125,
                    "velocity": 0.3858267716535433,
                    "duration": 0.9375
                },
                {
                    "name": "F3",
                    "midi": 53,
                    "time": 24.0625,
                    "velocity": 0.3858267716535433,
                    "duration": 0.3125
                },
                {
                    "name": "C3",
                    "midi": 48,
                    "time": 24.375,
                    "velocity": 0.3858267716535433,
                    "duration": 0.625
                },
                {
                    "name": "C#3",
                    "midi": 49,
                    "time": 25,
                    "velocity": 0.3858267716535433,
                    "duration": 0.9375
                },
                {
                    "name": "C#3",
                    "midi": 49,
                    "time": 25.9375,
                    "velocity": 0.3858267716535433,
                    "duration": 0.3125
                },
                {
                    "name": "D3",
                    "midi": 50,
                    "time": 26.25,
                    "velocity": 0.3858267716535433,
                    "duration": 0.3125
                },
                {
                    "name": "G3",
                    "midi": 55,
                    "time": 26.5625,
                    "velocity": 0.3858267716535433,
                    "duration": 0.3125
                },
                {
                    "name": "A3",
                    "midi": 57,
                    "time": 26.875,
                    "velocity": 0.3858267716535433,
                    "duration": 0.625
                },
                {
                    "name": "A2",
                    "midi": 45,
                    "time": 27.5,
                    "velocity": 0.3858267716535433,
                    "duration": 0.625
                },
                {
                    "name": "D3",
                    "midi": 50,
                    "time": 28.125,
                    "velocity": 0.3858267716535433,
                    "duration": 1.875
                },
                {
                    "name": "D3",
                    "midi": 50,
                    "time": 30,
                    "velocity": 0.3858267716535433,
                    "duration": 0.625
                },
                {
                    "name": "D4",
                    "midi": 62,
                    "time": 30.625,
                    "velocity": 0.3858267716535433,
                    "duration": 0.625
                },
                {
                    "name": "A3",
                    "midi": 57,
                    "time": 31.875,
                    "velocity": 0.3858267716535433,
                    "duration": 0.46875
                },
                {
                    "name": "A#3",
                    "midi": 58,
                    "time": 32.34375,
                    "velocity": 0.3858267716535433,
                    "duration": 0.15625
                },
                {
                    "name": "A3",
                    "midi": 57,
                    "time": 32.5,
                    "velocity": 0.3858267716535433,
                    "duration": 0.46875
                },
                {
                    "name": "G3",
                    "midi": 55,
                    "time": 32.96875,
                    "velocity": 0.3858267716535433,
                    "duration": 0.15625
                },
                {
                    "name": "F3",
                    "midi": 53,
                    "time": 33.125,
                    "velocity": 0.3858267716535433,
                    "duration": 0.46875
                },
                {
                    "name": "E3",
                    "midi": 52,
                    "time": 33.59375,
                    "velocity": 0.3858267716535433,
                    "duration": 0.15625
                },
                {
                    "name": "D3",
                    "midi": 50,
                    "time": 33.75,
                    "velocity": 0.3858267716535433,
                    "duration": 0.625
                },
                {
                    "name": "D4",
                    "midi": 62,
                    "time": 34.375,
                    "velocity": 0.3858267716535433,
                    "duration": 0.625
                },
                {
                    "name": "C4",
                    "midi": 60,
                    "time": 35.625,
                    "velocity": 0.3858267716535433,
                    "duration": 0.46875
                },
                {
                    "name": "D4",
                    "midi": 62,
                    "time": 36.09375,
                    "velocity": 0.3858267716535433,
                    "duration": 0.15625
                },
                {
                    "name": "C4",
                    "midi": 60,
                    "time": 36.25,
                    "velocity": 0.3858267716535433,
                    "duration": 0.46875
                },
                {
                    "name": "A#3",
                    "midi": 58,
                    "time": 36.71875,
                    "velocity": 0.3858267716535433,
                    "duration": 0.15625
                },
                {
                    "name": "A3",
                    "midi": 57,
                    "time": 36.875,
                    "velocity": 0.3858267716535433,
                    "duration": 0.46875
                },
                {
                    "name": "G3",
                    "midi": 55,
                    "time": 37.34375,
                    "velocity": 0.3858267716535433,
                    "duration": 0.15625
                },
                {
                    "name": "F3",
                    "midi": 53,
                    "time": 37.5,
                    "velocity": 0.3858267716535433,
                    "duration": 0.625
                },
                {
                    "name": "F4",
                    "midi": 65,
                    "time": 38.125,
                    "velocity": 0.3858267716535433,
                    "duration": 0.625
                },
                {
                    "name": "C4",
                    "midi": 60,
                    "time": 39.375,
                    "velocity": 0.3858267716535433,
                    "duration": 0.625
                },
                {
                    "name": "C#4",
                    "midi": 61,
                    "time": 40,
                    "velocity": 0.3858267716535433,
                    "duration": 1.25
                },
                {
                    "name": "D4",
                    "midi": 62,
                    "time": 41.25,
                    "velocity": 0.3858267716535433,
                    "duration": 0.625
                },
                {
                    "name": "D3",
                    "midi": 50,
                    "time": 41.875,
                    "velocity": 0.3858267716535433,
                    "duration": 1.25
                },
                {
                    "name": "A3",
                    "midi": 57,
                    "time": 43.125,
                    "velocity": 0.3858267716535433,
                    "duration": 0.46875
                },
                {
                    "name": "A#3",
                    "midi": 58,
                    "time": 43.59375,
                    "velocity": 0.3858267716535433,
                    "duration": 0.15625
                },
                {
                    "name": "A3",
                    "midi": 57,
                    "time": 43.75,
                    "velocity": 0.3858267716535433,
                    "duration": 0.46875
                },
                {
                    "name": "G3",
                    "midi": 55,
                    "time": 44.21875,
                    "velocity": 0.3858267716535433,
                    "duration": 0.15625
                },
                {
                    "name": "F3",
                    "midi": 53,
                    "time": 44.375,
                    "velocity": 0.3858267716535433,
                    "duration": 0.46875
                },
                {
                    "name": "E3",
                    "midi": 52,
                    "time": 44.84375,
                    "velocity": 0.3858267716535433,
                    "duration": 0.15625
                },
                {
                    "name": "D3",
                    "midi": 50,
                    "time": 45,
                    "velocity": 0.3858267716535433,
                    "duration": 0.625
                },
                {
                    "name": "D4",
                    "midi": 62,
                    "time": 45.625,
                    "velocity": 0.3858267716535433,
                    "duration": 0.625
                },
                {
                    "name": "A3",
                    "midi": 57,
                    "time": 46.875,
                    "velocity": 0.3858267716535433,
                    "duration": 0.46875
                },
                {
                    "name": "A#3",
                    "midi": 58,
                    "time": 47.34375,
                    "velocity": 0.3858267716535433,
                    "duration": 0.15625
                },
                {
                    "name": "A3",
                    "midi": 57,
                    "time": 47.5,
                    "velocity": 0.3858267716535433,
                    "duration": 0.46875
                },
                {
                    "name": "G3",
                    "midi": 55,
                    "time": 47.96875,
                    "velocity": 0.3858267716535433,
                    "duration": 0.15625
                },
                {
                    "name": "F3",
                    "midi": 53,
                    "time": 48.125,
                    "velocity": 0.3858267716535433,
                    "duration": 0.46875
                },
                {
                    "name": "E3",
                    "midi": 52,
                    "time": 48.59375,
                    "velocity": 0.3858267716535433,
                    "duration": 0.15625
                },
                {
                    "name": "D3",
                    "midi": 50,
                    "time": 48.75,
                    "velocity": 0.3858267716535433,
                    "duration": 0.625
                },
                {
                    "name": "D4",
                    "midi": 62,
                    "time": 49.375,
                    "velocity": 0.3858267716535433,
                    "duration": 0.625
                },
                {
                    "name": "C4",
                    "midi": 60,
                    "time": 50.625,
                    "velocity": 0.3858267716535433,
                    "duration": 0.46875
                },
                {
                    "name": "D4",
                    "midi": 62,
                    "time": 51.09375,
                    "velocity": 0.3858267716535433,
                    "duration": 0.15625
                },
                {
                    "name": "C4",
                    "midi": 60,
                    "time": 51.25,
                    "velocity": 0.3858267716535433,
                    "duration": 0.46875
                },
                {
                    "name": "A#3",
                    "midi": 58,
                    "time": 51.71875,
                    "velocity": 0.3858267716535433,
                    "duration": 0.15625
                },
                {
                    "name": "A3",
                    "midi": 57,
                    "time": 51.875,
                    "velocity": 0.3858267716535433,
                    "duration": 0.46875
                },
                {
                    "name": "G3",
                    "midi": 55,
                    "time": 52.34375,
                    "velocity": 0.3858267716535433,
                    "duration": 0.15625
                },
                {
                    "name": "F3",
                    "midi": 53,
                    "time": 52.5,
                    "velocity": 0.3858267716535433,
                    "duration": 0.625
                },
                {
                    "name": "F4",
                    "midi": 65,
                    "time": 53.125,
                    "velocity": 0.3858267716535433,
                    "duration": 0.625
                },
                {
                    "name": "C4",
                    "midi": 60,
                    "time": 54.375,
                    "velocity": 0.3858267716535433,
                    "duration": 0.625
                },
                {
                    "name": "C#4",
                    "midi": 61,
                    "time": 55,
                    "velocity": 0.3858267716535433,
                    "duration": 0.46875
                },
                {
                    "name": "D4",
                    "midi": 62,
                    "time": 55.46875,
                    "velocity": 0.3858267716535433,
                    "duration": 0.15625
                },
                {
                    "name": "E4",
                    "midi": 64,
                    "time": 55.625,
                    "velocity": 0.3858267716535433,
                    "duration": 0.46875
                },
                {
                    "name": "C#4",
                    "midi": 61,
                    "time": 56.09375,
                    "velocity": 0.3858267716535433,
                    "duration": 0.15625
                },
                {
                    "name": "D4",
                    "midi": 62,
                    "time": 56.25,
                    "velocity": 0.3858267716535433,
                    "duration": 0.3125
                },
                {
                    "name": "G3",
                    "midi": 55,
                    "time": 56.5625,
                    "velocity": 0.3858267716535433,
                    "duration": 0.3125
                },
                {
                    "name": "A3",
                    "midi": 57,
                    "time": 56.875,
                    "velocity": 0.3858267716535433,
                    "duration": 0.625
                },
                {
                    "name": "A2",
                    "midi": 45,
                    "time": 57.5,
                    "velocity": 0.3858267716535433,
                    "duration": 0.625
                },
                {
                    "name": "D3",
                    "midi": 50,
                    "time": 58.125,
                    "velocity": 0.3858267716535433,
                    "duration": 1.875
                },
                {
                    "name": "D4",
                    "midi": 62,
                    "time": 60,
                    "velocity": 0.3858267716535433,
                    "duration": 0.625
                },
                {
                    "name": "D3",
                    "midi": 50,
                    "time": 61.25,
                    "velocity": 0.3858267716535433,
                    "duration": 0.625
                },
                {
                    "name": "A3",
                    "midi": 57,
                    "time": 61.875,
                    "velocity": 0.3858267716535433,
                    "duration": 0.625
                },
                {
                    "name": "A2",
                    "midi": 45,
                    "time": 63.125,
                    "velocity": 0.3858267716535433,
                    "duration": 0.625
                },
                {
                    "name": "D3",
                    "midi": 50,
                    "time": 63.75,
                    "velocity": 0.3858267716535433,
                    "duration": 0.625
                },
                {
                    "name": "D4",
                    "midi": 62,
                    "time": 65,
                    "velocity": 0.3858267716535433,
                    "duration": 0.625
                },
                {
                    "name": "C4",
                    "midi": 60,
                    "time": 65.625,
                    "velocity": 0.3858267716535433,
                    "duration": 0.625
                },
                {
                    "name": "C3",
                    "midi": 48,
                    "time": 66.875,
                    "velocity": 0.3858267716535433,
                    "duration": 0.625
                },
                {
                    "name": "F3",
                    "midi": 53,
                    "time": 67.5,
                    "velocity": 0.3858267716535433,
                    "duration": 0.625
                },
                {
                    "name": "F3",
                    "midi": 53,
                    "time": 68.75,
                    "velocity": 0.3858267716535433,
                    "duration": 0.625
                },
                {
                    "name": "C4",
                    "midi": 60,
                    "time": 69.375,
                    "velocity": 0.3858267716535433,
                    "duration": 0.625
                },
                {
                    "name": "C#4",
                    "midi": 61,
                    "time": 70.625,
                    "velocity": 0.3858267716535433,
                    "duration": 0.625
                },
                {
                    "name": "D4",
                    "midi": 62,
                    "time": 71.25,
                    "velocity": 0.3858267716535433,
                    "duration": 0.625
                },
                {
                    "name": "G2",
                    "midi": 43,
                    "time": 72.5,
                    "velocity": 0.3858267716535433,
                    "duration": 0.625
                },
                {
                    "name": "A2",
                    "midi": 45,
                    "time": 73.125,
                    "velocity": 0.3858267716535433,
                    "duration": 0.625
                },
                {
                    "name": "A3",
                    "midi": 57,
                    "time": 73.75,
                    "velocity": 0.3858267716535433,
                    "duration": 0.625
                },
                {
                    "name": "A2",
                    "midi": 45,
                    "time": 74.375,
                    "velocity": 0.3858267716535433,
                    "duration": 0.625
                },
                {
                    "name": "D3",
                    "midi": 50,
                    "time": 75,
                    "velocity": 0.3858267716535433,
                    "duration": 0.625
                },
                {
                    "name": "D3",
                    "midi": 50,
                    "time": 76.25,
                    "velocity": 0.3858267716535433,
                    "duration": 0.625
                },
                {
                    "name": "A3",
                    "midi": 57,
                    "time": 76.875,
                    "velocity": 0.3858267716535433,
                    "duration": 0.625
                },
                {
                    "name": "A2",
                    "midi": 45,
                    "time": 78.125,
                    "velocity": 0.3858267716535433,
                    "duration": 0.625
                },
                {
                    "name": "D3",
                    "midi": 50,
                    "time": 78.75,
                    "velocity": 0.3858267716535433,
                    "duration": 0.625
                },
                {
                    "name": "D4",
                    "midi": 62,
                    "time": 80,
                    "velocity": 0.3858267716535433,
                    "duration": 0.625
                },
                {
                    "name": "C4",
                    "midi": 60,
                    "time": 80.625,
                    "velocity": 0.3858267716535433,
                    "duration": 0.625
                },
                {
                    "name": "C3",
                    "midi": 48,
                    "time": 81.875,
                    "velocity": 0.3858267716535433,
                    "duration": 0.625
                },
                {
                    "name": "F3",
                    "midi": 53,
                    "time": 82.5,
                    "velocity": 0.3858267716535433,
                    "duration": 0.625
                },
                {
                    "name": "F3",
                    "midi": 53,
                    "time": 83.75,
                    "velocity": 0.3858267716535433,
                    "duration": 0.625
                },
                {
                    "name": "C3",
                    "midi": 48,
                    "time": 84.375,
                    "velocity": 0.3858267716535433,
                    "duration": 0.9375
                },
                {
                    "name": "C#3",
                    "midi": 49,
                    "time": 85.3125,
                    "velocity": 0.3858267716535433,
                    "duration": 0.3125
                },
                {
                    "name": "D3",
                    "midi": 50,
                    "time": 85.625,
                    "velocity": 0.3858267716535433,
                    "duration": 0.625
                },
                {
                    "name": "G2",
                    "midi": 43,
                    "time": 86.25,
                    "velocity": 0.3858267716535433,
                    "duration": 0.625
                },
                {
                    "name": "A2",
                    "midi": 45,
                    "time": 86.875,
                    "velocity": 0.3858267716535433,
                    "duration": 1.25
                },
                {
                    "name": "D3",
                    "midi": 50,
                    "time": 88.125,
                    "velocity": 0.3858267716535433,
                    "duration": 1.875
                },
                {
                    "name": "D3",
                    "midi": 50,
                    "time": 90,
                    "velocity": 0.3858267716535433,
                    "duration": 0.625
                },
                {
                    "name": "D4",
                    "midi": 62,
                    "time": 90.625,
                    "velocity": 0.3858267716535433,
                    "duration": 0.625
                },
                {
                    "name": "D3",
                    "midi": 50,
                    "time": 91.25,
                    "velocity": 0.3858267716535433,
                    "duration": 0.625
                },
                {
                    "name": "A2",
                    "midi": 45,
                    "time": 91.875,
                    "velocity": 0.3858267716535433,
                    "duration": 0.625
                },
                {
                    "name": "A3",
                    "midi": 57,
                    "time": 92.5,
                    "velocity": 0.3858267716535433,
                    "duration": 0.625
                },
                {
                    "name": "A2",
                    "midi": 45,
                    "time": 93.125,
                    "velocity": 0.3858267716535433,
                    "duration": 0.625
                },
                {
                    "name": "D3",
                    "midi": 50,
                    "time": 93.75,
                    "velocity": 0.3858267716535433,
                    "duration": 0.625
                },
                {
                    "name": "D4",
                    "midi": 62,
                    "time": 94.375,
                    "velocity": 0.3858267716535433,
                    "duration": 0.625
                },
                {
                    "name": "D3",
                    "midi": 50,
                    "time": 95,
                    "velocity": 0.3858267716535433,
                    "duration": 0.625
                },
                {
                    "name": "C3",
                    "midi": 48,
                    "time": 95.625,
                    "velocity": 0.3858267716535433,
                    "duration": 0.625
                },
                {
                    "name": "C4",
                    "midi": 60,
                    "time": 96.25,
                    "velocity": 0.3858267716535433,
                    "duration": 0.625
                },
                {
                    "name": "C3",
                    "midi": 48,
                    "time": 96.875,
                    "velocity": 0.3858267716535433,
                    "duration": 0.625
                },
                {
                    "name": "F3",
                    "midi": 53,
                    "time": 97.5,
                    "velocity": 0.3858267716535433,
                    "duration": 0.625
                },
                {
                    "name": "F4",
                    "midi": 65,
                    "time": 98.125,
                    "velocity": 0.3858267716535433,
                    "duration": 0.625
                },
                {
                    "name": "F3",
                    "midi": 53,
                    "time": 98.75,
                    "velocity": 0.3858267716535433,
                    "duration": 0.625
                },
                {
                    "name": "C3",
                    "midi": 48,
                    "time": 99.375,
                    "velocity": 0.3858267716535433,
                    "duration": 0.625
                },
                {
                    "name": "E3",
                    "midi": 52,
                    "time": 100,
                    "velocity": 0.3858267716535433,
                    "duration": 0.625
                },
                {
                    "name": "C#3",
                    "midi": 49,
                    "time": 100.625,
                    "velocity": 0.3858267716535433,
                    "duration": 0.625
                },
                {
                    "name": "D3",
                    "midi": 50,
                    "time": 101.25,
                    "velocity": 0.3858267716535433,
                    "duration": 0.625
                },
                {
                    "name": "A#3",
                    "midi": 58,
                    "time": 101.875,
                    "velocity": 0.3858267716535433,
                    "duration": 0.625
                },
                {
                    "name": "A#2",
                    "midi": 46,
                    "time": 102.5,
                    "velocity": 0.3858267716535433,
                    "duration": 0.625
                },
                {
                    "name": "A2",
                    "midi": 45,
                    "time": 103.125,
                    "velocity": 0.3858267716535433,
                    "duration": 0.625
                },
                {
                    "name": "A3",
                    "midi": 57,
                    "time": 103.75,
                    "velocity": 0.3858267716535433,
                    "duration": 0.625
                },
                {
                    "name": "A2",
                    "midi": 45,
                    "time": 104.375,
                    "velocity": 0.3858267716535433,
                    "duration": 0.625
                },
                {
                    "name": "D3",
                    "midi": 50,
                    "time": 105,
                    "velocity": 0.3858267716535433,
                    "duration": 0.625
                },
                {
                    "name": "D4",
                    "midi": 62,
                    "time": 105.625,
                    "velocity": 0.3858267716535433,
                    "duration": 0.625
                },
                {
                    "name": "D3",
                    "midi": 50,
                    "time": 106.25,
                    "velocity": 0.3858267716535433,
                    "duration": 0.625
                },
                {
                    "name": "A2",
                    "midi": 45,
                    "time": 106.875,
                    "velocity": 0.3858267716535433,
                    "duration": 0.625
                },
                {
                    "name": "A3",
                    "midi": 57,
                    "time": 107.5,
                    "velocity": 0.3858267716535433,
                    "duration": 0.625
                },
                {
                    "name": "A2",
                    "midi": 45,
                    "time": 108.125,
                    "velocity": 0.3858267716535433,
                    "duration": 0.625
                },
                {
                    "name": "D3",
                    "midi": 50,
                    "time": 108.75,
                    "velocity": 0.3858267716535433,
                    "duration": 0.625
                },
                {
                    "name": "D4",
                    "midi": 62,
                    "time": 109.375,
                    "velocity": 0.3858267716535433,
                    "duration": 0.625
                },
                {
                    "name": "D3",
                    "midi": 50,
                    "time": 110,
                    "velocity": 0.3858267716535433,
                    "duration": 0.625
                },
                {
                    "name": "C3",
                    "midi": 48,
                    "time": 110.625,
                    "velocity": 0.3858267716535433,
                    "duration": 0.625
                },
                {
                    "name": "C4",
                    "midi": 60,
                    "time": 111.25,
                    "velocity": 0.3858267716535433,
                    "duration": 0.625
                },
                {
                    "name": "C3",
                    "midi": 48,
                    "time": 111.875,
                    "velocity": 0.3858267716535433,
                    "duration": 0.625
                },
                {
                    "name": "F3",
                    "midi": 53,
                    "time": 112.5,
                    "velocity": 0.3858267716535433,
                    "duration": 0.625
                },
                {
                    "name": "F4",
                    "midi": 65,
                    "time": 113.125,
                    "velocity": 0.3858267716535433,
                    "duration": 0.625
                },
                {
                    "name": "F3",
                    "midi": 53,
                    "time": 113.75,
                    "velocity": 0.3858267716535433,
                    "duration": 0.625
                },
                {
                    "name": "G3",
                    "midi": 55,
                    "time": 114.375,
                    "velocity": 0.3858267716535433,
                    "duration": 0.3125
                },
                {
                    "name": "A3",
                    "midi": 57,
                    "time": 114.6875,
                    "velocity": 0.3858267716535433,
                    "duration": 0.3125
                },
                {
                    "name": "A#3",
                    "midi": 58,
                    "time": 115,
                    "velocity": 0.3858267716535433,
                    "duration": 0.3125
                },
                {
                    "name": "A3",
                    "midi": 57,
                    "time": 115.3125,
                    "velocity": 0.3858267716535433,
                    "duration": 0.3125
                },
                {
                    "name": "G3",
                    "midi": 55,
                    "time": 115.625,
                    "velocity": 0.3858267716535433,
                    "duration": 0.3125
                },
                {
                    "name": "A#3",
                    "midi": 58,
                    "time": 115.9375,
                    "velocity": 0.3858267716535433,
                    "duration": 0.3125
                },
                {
                    "name": "A3",
                    "midi": 57,
                    "time": 116.25,
                    "velocity": 0.3858267716535433,
                    "duration": 0.625
                },
                {
                    "name": "A2",
                    "midi": 45,
                    "time": 116.875,
                    "velocity": 0.3858267716535433,
                    "duration": 1.25
                },
                {
                    "name": "D3",
                    "midi": 50,
                    "time": 118.125,
                    "velocity": 0.3858267716535433,
                    "duration": 1.875
                },
                {
                    "name": "D3",
                    "midi": 50,
                    "time": 120,
                    "velocity": 0.3858267716535433,
                    "duration": 0.3125
                },
                {
                    "name": "E3",
                    "midi": 52,
                    "time": 120.3125,
                    "velocity": 0.3858267716535433,
                    "duration": 0.3125
                },
                {
                    "name": "F3",
                    "midi": 53,
                    "time": 120.625,
                    "velocity": 0.3858267716535433,
                    "duration": 0.3125
                },
                {
                    "name": "D3",
                    "midi": 50,
                    "time": 120.9375,
                    "velocity": 0.3858267716535433,
                    "duration": 0.3125
                },
                {
                    "name": "F3",
                    "midi": 53,
                    "time": 121.25,
                    "velocity": 0.3858267716535433,
                    "duration": 0.3125
                },
                {
                    "name": "G3",
                    "midi": 55,
                    "time": 121.5625,
                    "velocity": 0.3858267716535433,
                    "duration": 0.3125
                },
                {
                    "name": "A2",
                    "midi": 45,
                    "time": 121.875,
                    "velocity": 0.3858267716535433,
                    "duration": 0.3125
                },
                {
                    "name": "B2",
                    "midi": 47,
                    "time": 122.1875,
                    "velocity": 0.3858267716535433,
                    "duration": 0.3125
                },
                {
                    "name": "C#3",
                    "midi": 49,
                    "time": 122.5,
                    "velocity": 0.3858267716535433,
                    "duration": 0.3125
                },
                {
                    "name": "B2",
                    "midi": 47,
                    "time": 122.8125,
                    "velocity": 0.3858267716535433,
                    "duration": 0.3125
                },
                {
                    "name": "C#3",
                    "midi": 49,
                    "time": 123.125,
                    "velocity": 0.3858267716535433,
                    "duration": 0.3125
                },
                {
                    "name": "A2",
                    "midi": 45,
                    "time": 123.4375,
                    "velocity": 0.3858267716535433,
                    "duration": 0.3125
                },
                {
                    "name": "D3",
                    "midi": 50,
                    "time": 123.75,
                    "velocity": 0.3858267716535433,
                    "duration": 0.3125
                },
                {
                    "name": "E3",
                    "midi": 52,
                    "time": 124.0625,
                    "velocity": 0.3858267716535433,
                    "duration": 0.3125
                },
                {
                    "name": "F3",
                    "midi": 53,
                    "time": 124.375,
                    "velocity": 0.3858267716535433,
                    "duration": 0.3125
                },
                {
                    "name": "D3",
                    "midi": 50,
                    "time": 124.6875,
                    "velocity": 0.3858267716535433,
                    "duration": 0.3125
                },
                {
                    "name": "F3",
                    "midi": 53,
                    "time": 125,
                    "velocity": 0.3858267716535433,
                    "duration": 0.3125
                },
                {
                    "name": "G3",
                    "midi": 55,
                    "time": 125.3125,
                    "velocity": 0.3858267716535433,
                    "duration": 0.3125
                },
                {
                    "name": "C3",
                    "midi": 48,
                    "time": 125.625,
                    "velocity": 0.3858267716535433,
                    "duration": 0.3125
                },
                {
                    "name": "D3",
                    "midi": 50,
                    "time": 125.9375,
                    "velocity": 0.3858267716535433,
                    "duration": 0.3125
                },
                {
                    "name": "E3",
                    "midi": 52,
                    "time": 126.25,
                    "velocity": 0.3858267716535433,
                    "duration": 0.3125
                },
                {
                    "name": "D3",
                    "midi": 50,
                    "time": 126.5625,
                    "velocity": 0.3858267716535433,
                    "duration": 0.3125
                },
                {
                    "name": "E3",
                    "midi": 52,
                    "time": 126.875,
                    "velocity": 0.3858267716535433,
                    "duration": 0.3125
                },
                {
                    "name": "C3",
                    "midi": 48,
                    "time": 127.1875,
                    "velocity": 0.3858267716535433,
                    "duration": 0.3125
                },
                {
                    "name": "F3",
                    "midi": 53,
                    "time": 127.5,
                    "velocity": 0.3858267716535433,
                    "duration": 0.3125
                },
                {
                    "name": "G3",
                    "midi": 55,
                    "time": 127.8125,
                    "velocity": 0.3858267716535433,
                    "duration": 0.3125
                },
                {
                    "name": "A3",
                    "midi": 57,
                    "time": 128.125,
                    "velocity": 0.3858267716535433,
                    "duration": 0.3125
                },
                {
                    "name": "F3",
                    "midi": 53,
                    "time": 128.4375,
                    "velocity": 0.3858267716535433,
                    "duration": 0.3125
                },
                {
                    "name": "A3",
                    "midi": 57,
                    "time": 128.75,
                    "velocity": 0.3858267716535433,
                    "duration": 0.3125
                },
                {
                    "name": "B3",
                    "midi": 59,
                    "time": 129.0625,
                    "velocity": 0.3858267716535433,
                    "duration": 0.3125
                },
                {
                    "name": "C4",
                    "midi": 60,
                    "time": 129.375,
                    "velocity": 0.3858267716535433,
                    "duration": 0.625
                },
                {
                    "name": "C#4",
                    "midi": 61,
                    "time": 130,
                    "velocity": 0.3858267716535433,
                    "duration": 0.9375
                },
                {
                    "name": "C#4",
                    "midi": 61,
                    "time": 130.9375,
                    "velocity": 0.3858267716535433,
                    "duration": 0.3125
                },
                {
                    "name": "D4",
                    "midi": 62,
                    "time": 131.25,
                    "velocity": 0.3858267716535433,
                    "duration": 0.3125
                },
                {
                    "name": "D3",
                    "midi": 50,
                    "time": 131.5625,
                    "velocity": 0.3858267716535433,
                    "duration": 0.3125
                },
                {
                    "name": "F3",
                    "midi": 53,
                    "time": 131.875,
                    "velocity": 0.3858267716535433,
                    "duration": 0.3125
                },
                {
                    "name": "D3",
                    "midi": 50,
                    "time": 132.1875,
                    "velocity": 0.3858267716535433,
                    "duration": 0.3125
                },
                {
                    "name": "F3",
                    "midi": 53,
                    "time": 132.5,
                    "velocity": 0.3858267716535433,
                    "duration": 0.3125
                },
                {
                    "name": "G3",
                    "midi": 55,
                    "time": 132.8125,
                    "velocity": 0.3858267716535433,
                    "duration": 0.3125
                },
                {
                    "name": "A3",
                    "midi": 57,
                    "time": 133.125,
                    "velocity": 0.3858267716535433,
                    "duration": 0.15625
                },
                {
                    "name": "A3",
                    "midi": 57,
                    "time": 133.28125,
                    "velocity": 0.3858267716535433,
                    "duration": 0.15625
                },
                {
                    "name": "G3",
                    "midi": 55,
                    "time": 133.4375,
                    "velocity": 0.3858267716535433,
                    "duration": 0.15625
                },
                {
                    "name": "F3",
                    "midi": 53,
                    "time": 133.59375,
                    "velocity": 0.3858267716535433,
                    "duration": 0.15625
                },
                {
                    "name": "E3",
                    "midi": 52,
                    "time": 133.75,
                    "velocity": 0.3858267716535433,
                    "duration": 0.15625
                },
                {
                    "name": "D3",
                    "midi": 50,
                    "time": 133.90625,
                    "velocity": 0.3858267716535433,
                    "duration": 0.15625
                },
                {
                    "name": "C#3",
                    "midi": 49,
                    "time": 134.0625,
                    "velocity": 0.3858267716535433,
                    "duration": 0.15625
                },
                {
                    "name": "B2",
                    "midi": 47,
                    "time": 134.21875,
                    "velocity": 0.3858267716535433,
                    "duration": 0.15625
                },
                {
                    "name": "A2",
                    "midi": 45,
                    "time": 134.375,
                    "velocity": 0.3858267716535433,
                    "duration": 0.3125
                },
                {
                    "name": "C#3",
                    "midi": 49,
                    "time": 134.6875,
                    "velocity": 0.3858267716535433,
                    "duration": 0.3125
                },
                {
                    "name": "D3",
                    "midi": 50,
                    "time": 135,
                    "velocity": 0.3858267716535433,
                    "duration": 0.3125
                },
                {
                    "name": "E3",
                    "midi": 52,
                    "time": 135.3125,
                    "velocity": 0.3858267716535433,
                    "duration": 0.3125
                },
                {
                    "name": "F3",
                    "midi": 53,
                    "time": 135.625,
                    "velocity": 0.3858267716535433,
                    "duration": 0.3125
                },
                {
                    "name": "D3",
                    "midi": 50,
                    "time": 135.9375,
                    "velocity": 0.3858267716535433,
                    "duration": 0.3125
                },
                {
                    "name": "F3",
                    "midi": 53,
                    "time": 136.25,
                    "velocity": 0.3858267716535433,
                    "duration": 0.3125
                },
                {
                    "name": "G3",
                    "midi": 55,
                    "time": 136.5625,
                    "velocity": 0.3858267716535433,
                    "duration": 0.3125
                },
                {
                    "name": "A2",
                    "midi": 45,
                    "time": 136.875,
                    "velocity": 0.3858267716535433,
                    "duration": 0.3125
                },
                {
                    "name": "B2",
                    "midi": 47,
                    "time": 137.1875,
                    "velocity": 0.3858267716535433,
                    "duration": 0.3125
                },
                {
                    "name": "C#3",
                    "midi": 49,
                    "time": 137.5,
                    "velocity": 0.3858267716535433,
                    "duration": 0.3125
                },
                {
                    "name": "B2",
                    "midi": 47,
                    "time": 137.8125,
                    "velocity": 0.3858267716535433,
                    "duration": 0.3125
                },
                {
                    "name": "C#3",
                    "midi": 49,
                    "time": 138.125,
                    "velocity": 0.3858267716535433,
                    "duration": 0.3125
                },
                {
                    "name": "A2",
                    "midi": 45,
                    "time": 138.4375,
                    "velocity": 0.3858267716535433,
                    "duration": 0.3125
                },
                {
                    "name": "D3",
                    "midi": 50,
                    "time": 138.75,
                    "velocity": 0.3858267716535433,
                    "duration": 0.3125
                },
                {
                    "name": "E3",
                    "midi": 52,
                    "time": 139.0625,
                    "velocity": 0.3858267716535433,
                    "duration": 0.3125
                },
                {
                    "name": "F3",
                    "midi": 53,
                    "time": 139.375,
                    "velocity": 0.3858267716535433,
                    "duration": 0.3125
                },
                {
                    "name": "D3",
                    "midi": 50,
                    "time": 139.6875,
                    "velocity": 0.3858267716535433,
                    "duration": 0.3125
                },
                {
                    "name": "F3",
                    "midi": 53,
                    "time": 140,
                    "velocity": 0.3858267716535433,
                    "duration": 0.3125
                },
                {
                    "name": "G3",
                    "midi": 55,
                    "time": 140.3125,
                    "velocity": 0.3858267716535433,
                    "duration": 0.3125
                },
                {
                    "name": "C3",
                    "midi": 48,
                    "time": 140.625,
                    "velocity": 0.3858267716535433,
                    "duration": 0.3125
                },
                {
                    "name": "D3",
                    "midi": 50,
                    "time": 140.9375,
                    "velocity": 0.3858267716535433,
                    "duration": 0.3125
                },
                {
                    "name": "E3",
                    "midi": 52,
                    "time": 141.25,
                    "velocity": 0.3858267716535433,
                    "duration": 0.3125
                },
                {
                    "name": "D3",
                    "midi": 50,
                    "time": 141.5625,
                    "velocity": 0.3858267716535433,
                    "duration": 0.3125
                },
                {
                    "name": "E3",
                    "midi": 52,
                    "time": 141.875,
                    "velocity": 0.3858267716535433,
                    "duration": 0.3125
                },
                {
                    "name": "C3",
                    "midi": 48,
                    "time": 142.1875,
                    "velocity": 0.3858267716535433,
                    "duration": 0.3125
                },
                {
                    "name": "F3",
                    "midi": 53,
                    "time": 142.5,
                    "velocity": 0.3858267716535433,
                    "duration": 0.3125
                },
                {
                    "name": "G3",
                    "midi": 55,
                    "time": 142.8125,
                    "velocity": 0.3858267716535433,
                    "duration": 0.3125
                },
                {
                    "name": "A3",
                    "midi": 57,
                    "time": 143.125,
                    "velocity": 0.3858267716535433,
                    "duration": 0.3125
                },
                {
                    "name": "F3",
                    "midi": 53,
                    "time": 143.4375,
                    "velocity": 0.3858267716535433,
                    "duration": 0.3125
                },
                {
                    "name": "A3",
                    "midi": 57,
                    "time": 143.75,
                    "velocity": 0.3858267716535433,
                    "duration": 0.3125
                },
                {
                    "name": "B3",
                    "midi": 59,
                    "time": 144.0625,
                    "velocity": 0.3858267716535433,
                    "duration": 0.3125
                },
                {
                    "name": "C4",
                    "midi": 60,
                    "time": 144.375,
                    "velocity": 0.3858267716535433,
                    "duration": 0.625
                },
                {
                    "name": "C#4",
                    "midi": 61,
                    "time": 145,
                    "velocity": 0.3858267716535433,
                    "duration": 0.9375
                },
                {
                    "name": "C#4",
                    "midi": 61,
                    "time": 145.9375,
                    "velocity": 0.3858267716535433,
                    "duration": 0.3125
                },
                {
                    "name": "D4",
                    "midi": 62,
                    "time": 146.25,
                    "velocity": 0.3858267716535433,
                    "duration": 0.3125
                },
                {
                    "name": "G3",
                    "midi": 55,
                    "time": 146.5625,
                    "velocity": 0.3858267716535433,
                    "duration": 0.3125
                },
                {
                    "name": "A3",
                    "midi": 57,
                    "time": 146.875,
                    "velocity": 0.3858267716535433,
                    "duration": 0.625
                },
                {
                    "name": "A2",
                    "midi": 45,
                    "time": 147.5,
                    "velocity": 0.3858267716535433,
                    "duration": 0.625
                },
                {
                    "name": "D3",
                    "midi": 50,
                    "time": 148.125,
                    "velocity": 0.3858267716535433,
                    "duration": 1.875
                },
                {
                    "name": "D3",
                    "midi": 50,
                    "time": 150,
                    "velocity": 0.3858267716535433,
                    "duration": 0.15625
                },
                {
                    "name": "F3",
                    "midi": 53,
                    "time": 150.15625,
                    "velocity": 0.3858267716535433,
                    "duration": 0.15625
                },
                {
                    "name": "G3",
                    "midi": 55,
                    "time": 150.3125,
                    "velocity": 0.3858267716535433,
                    "duration": 0.15625
                },
                {
                    "name": "A3",
                    "midi": 57,
                    "time": 150.46875,
                    "velocity": 0.3858267716535433,
                    "duration": 0.15625
                },
                {
                    "name": "D3",
                    "midi": 50,
                    "time": 150.625,
                    "velocity": 0.3858267716535433,
                    "duration": 0.15625
                },
                {
                    "name": "F3",
                    "midi": 53,
                    "time": 150.78125,
                    "velocity": 0.3858267716535433,
                    "duration": 0.15625
                },
                {
                    "name": "G3",
                    "midi": 55,
                    "time": 150.9375,
                    "velocity": 0.3858267716535433,
                    "duration": 0.15625
                },
                {
                    "name": "A3",
                    "midi": 57,
                    "time": 151.09375,
                    "velocity": 0.3858267716535433,
                    "duration": 0.15625
                },
                {
                    "name": "D3",
                    "midi": 50,
                    "time": 151.25,
                    "velocity": 0.3858267716535433,
                    "duration": 0.15625
                },
                {
                    "name": "F3",
                    "midi": 53,
                    "time": 151.40625,
                    "velocity": 0.3858267716535433,
                    "duration": 0.15625
                },
                {
                    "name": "E3",
                    "midi": 52,
                    "time": 151.5625,
                    "velocity": 0.3858267716535433,
                    "duration": 0.15625
                },
                {
                    "name": "D3",
                    "midi": 50,
                    "time": 151.71875,
                    "velocity": 0.3858267716535433,
                    "duration": 0.15625
                },
                {
                    "name": "A3",
                    "midi": 57,
                    "time": 151.875,
                    "velocity": 0.3858267716535433,
                    "duration": 0.15625
                },
                {
                    "name": "C#4",
                    "midi": 61,
                    "time": 152.03125,
                    "velocity": 0.3858267716535433,
                    "duration": 0.15625
                },
                {
                    "name": "D4",
                    "midi": 62,
                    "time": 152.1875,
                    "velocity": 0.3858267716535433,
                    "duration": 0.15625
                },
                {
                    "name": "E4",
                    "midi": 64,
                    "time": 152.34375,
                    "velocity": 0.3858267716535433,
                    "duration": 0.15625
                },
                {
                    "name": "A3",
                    "midi": 57,
                    "time": 152.5,
                    "velocity": 0.3858267716535433,
                    "duration": 0.15625
                },
                {
                    "name": "C#4",
                    "midi": 61,
                    "time": 152.65625,
                    "velocity": 0.3858267716535433,
                    "duration": 0.15625
                },
                {
                    "name": "D4",
                    "midi": 62,
                    "time": 152.8125,
                    "velocity": 0.3858267716535433,
                    "duration": 0.15625
                },
                {
                    "name": "E4",
                    "midi": 64,
                    "time": 152.96875,
                    "velocity": 0.3858267716535433,
                    "duration": 0.15625
                },
                {
                    "name": "A3",
                    "midi": 57,
                    "time": 153.125,
                    "velocity": 0.3858267716535433,
                    "duration": 0.15625
                },
                {
                    "name": "C#4",
                    "midi": 61,
                    "time": 153.28125,
                    "velocity": 0.3858267716535433,
                    "duration": 0.15625
                },
                {
                    "name": "B3",
                    "midi": 59,
                    "time": 153.4375,
                    "velocity": 0.3858267716535433,
                    "duration": 0.15625
                },
                {
                    "name": "A3",
                    "midi": 57,
                    "time": 153.59375,
                    "velocity": 0.3858267716535433,
                    "duration": 0.15625
                },
                {
                    "name": "D3",
                    "midi": 50,
                    "time": 153.75,
                    "velocity": 0.3858267716535433,
                    "duration": 0.15625
                },
                {
                    "name": "F3",
                    "midi": 53,
                    "time": 153.90625,
                    "velocity": 0.3858267716535433,
                    "duration": 0.15625
                },
                {
                    "name": "G3",
                    "midi": 55,
                    "time": 154.0625,
                    "velocity": 0.3858267716535433,
                    "duration": 0.15625
                },
                {
                    "name": "A3",
                    "midi": 57,
                    "time": 154.21875,
                    "velocity": 0.3858267716535433,
                    "duration": 0.15625
                },
                {
                    "name": "D3",
                    "midi": 50,
                    "time": 154.375,
                    "velocity": 0.3858267716535433,
                    "duration": 0.15625
                },
                {
                    "name": "F3",
                    "midi": 53,
                    "time": 154.53125,
                    "velocity": 0.3858267716535433,
                    "duration": 0.15625
                },
                {
                    "name": "G3",
                    "midi": 55,
                    "time": 154.6875,
                    "velocity": 0.3858267716535433,
                    "duration": 0.15625
                },
                {
                    "name": "A3",
                    "midi": 57,
                    "time": 154.84375,
                    "velocity": 0.3858267716535433,
                    "duration": 0.15625
                },
                {
                    "name": "D3",
                    "midi": 50,
                    "time": 155,
                    "velocity": 0.3858267716535433,
                    "duration": 0.15625
                },
                {
                    "name": "F3",
                    "midi": 53,
                    "time": 155.15625,
                    "velocity": 0.3858267716535433,
                    "duration": 0.15625
                },
                {
                    "name": "E3",
                    "midi": 52,
                    "time": 155.3125,
                    "velocity": 0.3858267716535433,
                    "duration": 0.15625
                },
                {
                    "name": "D3",
                    "midi": 50,
                    "time": 155.46875,
                    "velocity": 0.3858267716535433,
                    "duration": 0.15625
                },
                {
                    "name": "C3",
                    "midi": 48,
                    "time": 155.625,
                    "velocity": 0.3858267716535433,
                    "duration": 0.15625
                },
                {
                    "name": "E3",
                    "midi": 52,
                    "time": 155.78125,
                    "velocity": 0.3858267716535433,
                    "duration": 0.15625
                },
                {
                    "name": "F3",
                    "midi": 53,
                    "time": 155.9375,
                    "velocity": 0.3858267716535433,
                    "duration": 0.15625
                },
                {
                    "name": "G3",
                    "midi": 55,
                    "time": 156.09375,
                    "velocity": 0.3858267716535433,
                    "duration": 0.15625
                },
                {
                    "name": "C3",
                    "midi": 48,
                    "time": 156.25,
                    "velocity": 0.3858267716535433,
                    "duration": 0.15625
                },
                {
                    "name": "E3",
                    "midi": 52,
                    "time": 156.40625,
                    "velocity": 0.3858267716535433,
                    "duration": 0.15625
                },
                {
                    "name": "F3",
                    "midi": 53,
                    "time": 156.5625,
                    "velocity": 0.3858267716535433,
                    "duration": 0.15625
                },
                {
                    "name": "G3",
                    "midi": 55,
                    "time": 156.71875,
                    "velocity": 0.3858267716535433,
                    "duration": 0.15625
                },
                {
                    "name": "C3",
                    "midi": 48,
                    "time": 156.875,
                    "velocity": 0.3858267716535433,
                    "duration": 0.15625
                },
                {
                    "name": "E3",
                    "midi": 52,
                    "time": 157.03125,
                    "velocity": 0.3858267716535433,
                    "duration": 0.15625
                },
                {
                    "name": "D3",
                    "midi": 50,
                    "time": 157.1875,
                    "velocity": 0.3858267716535433,
                    "duration": 0.15625
                },
                {
                    "name": "C3",
                    "midi": 48,
                    "time": 157.34375,
                    "velocity": 0.3858267716535433,
                    "duration": 0.15625
                },
                {
                    "name": "F3",
                    "midi": 53,
                    "time": 157.5,
                    "velocity": 0.3858267716535433,
                    "duration": 0.15625
                },
                {
                    "name": "A3",
                    "midi": 57,
                    "time": 157.65625,
                    "velocity": 0.3858267716535433,
                    "duration": 0.15625
                },
                {
                    "name": "A#3",
                    "midi": 58,
                    "time": 157.8125,
                    "velocity": 0.3858267716535433,
                    "duration": 0.15625
                },
                {
                    "name": "C4",
                    "midi": 60,
                    "time": 157.96875,
                    "velocity": 0.3858267716535433,
                    "duration": 0.15625
                },
                {
                    "name": "F3",
                    "midi": 53,
                    "time": 158.125,
                    "velocity": 0.3858267716535433,
                    "duration": 0.15625
                },
                {
                    "name": "A3",
                    "midi": 57,
                    "time": 158.28125,
                    "velocity": 0.3858267716535433,
                    "duration": 0.15625
                },
                {
                    "name": "A#3",
                    "midi": 58,
                    "time": 158.4375,
                    "velocity": 0.3858267716535433,
                    "duration": 0.15625
                },
                {
                    "name": "C4",
                    "midi": 60,
                    "time": 158.59375,
                    "velocity": 0.3858267716535433,
                    "duration": 0.15625
                },
                {
                    "name": "F3",
                    "midi": 53,
                    "time": 158.75,
                    "velocity": 0.3858267716535433,
                    "duration": 0.15625
                },
                {
                    "name": "A3",
                    "midi": 57,
                    "time": 158.90625,
                    "velocity": 0.3858267716535433,
                    "duration": 0.15625
                },
                {
                    "name": "G3",
                    "midi": 55,
                    "time": 159.0625,
                    "velocity": 0.3858267716535433,
                    "duration": 0.15625
                },
                {
                    "name": "F3",
                    "midi": 53,
                    "time": 159.21875,
                    "velocity": 0.3858267716535433,
                    "duration": 0.15625
                },
                {
                    "name": "C4",
                    "midi": 60,
                    "time": 159.375,
                    "velocity": 0.3858267716535433,
                    "duration": 0.15625
                },
                {
                    "name": "C4",
                    "midi": 60,
                    "time": 159.53125,
                    "velocity": 0.3858267716535433,
                    "duration": 0.15625
                },
                {
                    "name": "D4",
                    "midi": 62,
                    "time": 159.6875,
                    "velocity": 0.3858267716535433,
                    "duration": 0.15625
                },
                {
                    "name": "E4",
                    "midi": 64,
                    "time": 159.84375,
                    "velocity": 0.3858267716535433,
                    "duration": 0.15625
                },
                {
                    "name": "C#4",
                    "midi": 61,
                    "time": 160,
                    "velocity": 0.3858267716535433,
                    "duration": 0.15625
                },
                {
                    "name": "C#4",
                    "midi": 61,
                    "time": 160.15625,
                    "velocity": 0.3858267716535433,
                    "duration": 0.15625
                },
                {
                    "name": "D4",
                    "midi": 62,
                    "time": 160.3125,
                    "velocity": 0.3858267716535433,
                    "duration": 0.15625
                },
                {
                    "name": "E4",
                    "midi": 64,
                    "time": 160.46875,
                    "velocity": 0.3858267716535433,
                    "duration": 0.15625
                },
                {
                    "name": "A3",
                    "midi": 57,
                    "time": 160.625,
                    "velocity": 0.3858267716535433,
                    "duration": 0.15625
                },
                {
                    "name": "C#4",
                    "midi": 61,
                    "time": 160.78125,
                    "velocity": 0.3858267716535433,
                    "duration": 0.15625
                },
                {
                    "name": "B3",
                    "midi": 59,
                    "time": 160.9375,
                    "velocity": 0.3858267716535433,
                    "duration": 0.15625
                },
                {
                    "name": "A3",
                    "midi": 57,
                    "time": 161.09375,
                    "velocity": 0.3858267716535433,
                    "duration": 0.15625
                },
                {
                    "name": "D4",
                    "midi": 62,
                    "time": 161.25,
                    "velocity": 0.3858267716535433,
                    "duration": 0.15625
                },
                {
                    "name": "F3",
                    "midi": 53,
                    "time": 161.40625,
                    "velocity": 0.3858267716535433,
                    "duration": 0.15625
                },
                {
                    "name": "G3",
                    "midi": 55,
                    "time": 161.5625,
                    "velocity": 0.3858267716535433,
                    "duration": 0.15625
                },
                {
                    "name": "A3",
                    "midi": 57,
                    "time": 161.71875,
                    "velocity": 0.3858267716535433,
                    "duration": 0.15625
                },
                {
                    "name": "D3",
                    "midi": 50,
                    "time": 161.875,
                    "velocity": 0.3858267716535433,
                    "duration": 0.15625
                },
                {
                    "name": "F3",
                    "midi": 53,
                    "time": 162.03125,
                    "velocity": 0.3858267716535433,
                    "duration": 0.15625
                },
                {
                    "name": "G3",
                    "midi": 55,
                    "time": 162.1875,
                    "velocity": 0.3858267716535433,
                    "duration": 0.15625
                },
                {
                    "name": "A3",
                    "midi": 57,
                    "time": 162.34375,
                    "velocity": 0.3858267716535433,
                    "duration": 0.15625
                },
                {
                    "name": "D3",
                    "midi": 50,
                    "time": 162.5,
                    "velocity": 0.3858267716535433,
                    "duration": 0.15625
                },
                {
                    "name": "F3",
                    "midi": 53,
                    "time": 162.65625,
                    "velocity": 0.3858267716535433,
                    "duration": 0.15625
                },
                {
                    "name": "E3",
                    "midi": 52,
                    "time": 162.8125,
                    "velocity": 0.3858267716535433,
                    "duration": 0.15625
                },
                {
                    "name": "D3",
                    "midi": 50,
                    "time": 162.96875,
                    "velocity": 0.3858267716535433,
                    "duration": 0.15625
                },
                {
                    "name": "A3",
                    "midi": 57,
                    "time": 163.125,
                    "velocity": 0.3858267716535433,
                    "duration": 0.15625
                },
                {
                    "name": "C#3",
                    "midi": 49,
                    "time": 163.28125,
                    "velocity": 0.3858267716535433,
                    "duration": 0.15625
                },
                {
                    "name": "D3",
                    "midi": 50,
                    "time": 163.4375,
                    "velocity": 0.3858267716535433,
                    "duration": 0.15625
                },
                {
                    "name": "E3",
                    "midi": 52,
                    "time": 163.59375,
                    "velocity": 0.3858267716535433,
                    "duration": 0.15625
                },
                {
                    "name": "A2",
                    "midi": 45,
                    "time": 163.75,
                    "velocity": 0.3858267716535433,
                    "duration": 0.15625
                },
                {
                    "name": "C#3",
                    "midi": 49,
                    "time": 163.90625,
                    "velocity": 0.3858267716535433,
                    "duration": 0.15625
                },
                {
                    "name": "D3",
                    "midi": 50,
                    "time": 164.0625,
                    "velocity": 0.3858267716535433,
                    "duration": 0.15625
                },
                {
                    "name": "E3",
                    "midi": 52,
                    "time": 164.21875,
                    "velocity": 0.3858267716535433,
                    "duration": 0.15625
                },
                {
                    "name": "A2",
                    "midi": 45,
                    "time": 164.375,
                    "velocity": 0.3858267716535433,
                    "duration": 0.15625
                },
                {
                    "name": "C#3",
                    "midi": 49,
                    "time": 164.53125,
                    "velocity": 0.3858267716535433,
                    "duration": 0.15625
                },
                {
                    "name": "B2",
                    "midi": 47,
                    "time": 164.6875,
                    "velocity": 0.3858267716535433,
                    "duration": 0.15625
                },
                {
                    "name": "A2",
                    "midi": 45,
                    "time": 164.84375,
                    "velocity": 0.3858267716535433,
                    "duration": 0.15625
                },
                {
                    "name": "D3",
                    "midi": 50,
                    "time": 165,
                    "velocity": 0.3858267716535433,
                    "duration": 0.15625
                },
                {
                    "name": "F3",
                    "midi": 53,
                    "time": 165.15625,
                    "velocity": 0.3858267716535433,
                    "duration": 0.15625
                },
                {
                    "name": "G3",
                    "midi": 55,
                    "time": 165.3125,
                    "velocity": 0.3858267716535433,
                    "duration": 0.15625
                },
                {
                    "name": "A3",
                    "midi": 57,
                    "time": 165.46875,
                    "velocity": 0.3858267716535433,
                    "duration": 0.15625
                },
                {
                    "name": "D3",
                    "midi": 50,
                    "time": 165.625,
                    "velocity": 0.3858267716535433,
                    "duration": 0.15625
                },
                {
                    "name": "F3",
                    "midi": 53,
                    "time": 165.78125,
                    "velocity": 0.3858267716535433,
                    "duration": 0.15625
                },
                {
                    "name": "G3",
                    "midi": 55,
                    "time": 165.9375,
                    "velocity": 0.3858267716535433,
                    "duration": 0.15625
                },
                {
                    "name": "A3",
                    "midi": 57,
                    "time": 166.09375,
                    "velocity": 0.3858267716535433,
                    "duration": 0.15625
                },
                {
                    "name": "D3",
                    "midi": 50,
                    "time": 166.25,
                    "velocity": 0.3858267716535433,
                    "duration": 0.15625
                },
                {
                    "name": "F3",
                    "midi": 53,
                    "time": 166.40625,
                    "velocity": 0.3858267716535433,
                    "duration": 0.15625
                },
                {
                    "name": "E3",
                    "midi": 52,
                    "time": 166.5625,
                    "velocity": 0.3858267716535433,
                    "duration": 0.15625
                },
                {
                    "name": "D3",
                    "midi": 50,
                    "time": 166.71875,
                    "velocity": 0.3858267716535433,
                    "duration": 0.15625
                },
                {
                    "name": "A3",
                    "midi": 57,
                    "time": 166.875,
                    "velocity": 0.3858267716535433,
                    "duration": 0.15625
                },
                {
                    "name": "C#4",
                    "midi": 61,
                    "time": 167.03125,
                    "velocity": 0.3858267716535433,
                    "duration": 0.15625
                },
                {
                    "name": "D4",
                    "midi": 62,
                    "time": 167.1875,
                    "velocity": 0.3858267716535433,
                    "duration": 0.15625
                },
                {
                    "name": "E4",
                    "midi": 64,
                    "time": 167.34375,
                    "velocity": 0.3858267716535433,
                    "duration": 0.15625
                },
                {
                    "name": "A3",
                    "midi": 57,
                    "time": 167.5,
                    "velocity": 0.3858267716535433,
                    "duration": 0.15625
                },
                {
                    "name": "C#4",
                    "midi": 61,
                    "time": 167.65625,
                    "velocity": 0.3858267716535433,
                    "duration": 0.15625
                },
                {
                    "name": "D4",
                    "midi": 62,
                    "time": 167.8125,
                    "velocity": 0.3858267716535433,
                    "duration": 0.15625
                },
                {
                    "name": "E4",
                    "midi": 64,
                    "time": 167.96875,
                    "velocity": 0.3858267716535433,
                    "duration": 0.15625
                },
                {
                    "name": "A3",
                    "midi": 57,
                    "time": 168.125,
                    "velocity": 0.3858267716535433,
                    "duration": 0.15625
                },
                {
                    "name": "C#4",
                    "midi": 61,
                    "time": 168.28125,
                    "velocity": 0.3858267716535433,
                    "duration": 0.15625
                },
                {
                    "name": "B3",
                    "midi": 59,
                    "time": 168.4375,
                    "velocity": 0.3858267716535433,
                    "duration": 0.15625
                },
                {
                    "name": "A3",
                    "midi": 57,
                    "time": 168.59375,
                    "velocity": 0.3858267716535433,
                    "duration": 0.15625
                },
                {
                    "name": "D3",
                    "midi": 50,
                    "time": 168.75,
                    "velocity": 0.3858267716535433,
                    "duration": 0.15625
                },
                {
                    "name": "F3",
                    "midi": 53,
                    "time": 168.90625,
                    "velocity": 0.3858267716535433,
                    "duration": 0.15625
                },
                {
                    "name": "G3",
                    "midi": 55,
                    "time": 169.0625,
                    "velocity": 0.3858267716535433,
                    "duration": 0.15625
                },
                {
                    "name": "A3",
                    "midi": 57,
                    "time": 169.21875,
                    "velocity": 0.3858267716535433,
                    "duration": 0.15625
                },
                {
                    "name": "D3",
                    "midi": 50,
                    "time": 169.375,
                    "velocity": 0.3858267716535433,
                    "duration": 0.15625
                },
                {
                    "name": "F3",
                    "midi": 53,
                    "time": 169.53125,
                    "velocity": 0.3858267716535433,
                    "duration": 0.15625
                },
                {
                    "name": "G3",
                    "midi": 55,
                    "time": 169.6875,
                    "velocity": 0.3858267716535433,
                    "duration": 0.15625
                },
                {
                    "name": "A3",
                    "midi": 57,
                    "time": 169.84375,
                    "velocity": 0.3858267716535433,
                    "duration": 0.15625
                },
                {
                    "name": "D3",
                    "midi": 50,
                    "time": 170,
                    "velocity": 0.3858267716535433,
                    "duration": 0.15625
                },
                {
                    "name": "F3",
                    "midi": 53,
                    "time": 170.15625,
                    "velocity": 0.3858267716535433,
                    "duration": 0.15625
                },
                {
                    "name": "E3",
                    "midi": 52,
                    "time": 170.3125,
                    "velocity": 0.3858267716535433,
                    "duration": 0.15625
                },
                {
                    "name": "D3",
                    "midi": 50,
                    "time": 170.46875,
                    "velocity": 0.3858267716535433,
                    "duration": 0.15625
                },
                {
                    "name": "C3",
                    "midi": 48,
                    "time": 170.625,
                    "velocity": 0.3858267716535433,
                    "duration": 0.15625
                },
                {
                    "name": "E3",
                    "midi": 52,
                    "time": 170.78125,
                    "velocity": 0.3858267716535433,
                    "duration": 0.15625
                },
                {
                    "name": "F3",
                    "midi": 53,
                    "time": 170.9375,
                    "velocity": 0.3858267716535433,
                    "duration": 0.15625
                },
                {
                    "name": "G3",
                    "midi": 55,
                    "time": 171.09375,
                    "velocity": 0.3858267716535433,
                    "duration": 0.15625
                },
                {
                    "name": "C3",
                    "midi": 48,
                    "time": 171.25,
                    "velocity": 0.3858267716535433,
                    "duration": 0.15625
                },
                {
                    "name": "E3",
                    "midi": 52,
                    "time": 171.40625,
                    "velocity": 0.3858267716535433,
                    "duration": 0.15625
                },
                {
                    "name": "F3",
                    "midi": 53,
                    "time": 171.5625,
                    "velocity": 0.3858267716535433,
                    "duration": 0.15625
                },
                {
                    "name": "G3",
                    "midi": 55,
                    "time": 171.71875,
                    "velocity": 0.3858267716535433,
                    "duration": 0.15625
                },
                {
                    "name": "C3",
                    "midi": 48,
                    "time": 171.875,
                    "velocity": 0.3858267716535433,
                    "duration": 0.15625
                },
                {
                    "name": "E3",
                    "midi": 52,
                    "time": 172.03125,
                    "velocity": 0.3858267716535433,
                    "duration": 0.15625
                },
                {
                    "name": "D3",
                    "midi": 50,
                    "time": 172.1875,
                    "velocity": 0.3858267716535433,
                    "duration": 0.15625
                },
                {
                    "name": "C3",
                    "midi": 48,
                    "time": 172.34375,
                    "velocity": 0.3858267716535433,
                    "duration": 0.15625
                },
                {
                    "name": "F3",
                    "midi": 53,
                    "time": 172.5,
                    "velocity": 0.3858267716535433,
                    "duration": 0.15625
                },
                {
                    "name": "A3",
                    "midi": 57,
                    "time": 172.65625,
                    "velocity": 0.3858267716535433,
                    "duration": 0.15625
                },
                {
                    "name": "A#3",
                    "midi": 58,
                    "time": 172.8125,
                    "velocity": 0.3858267716535433,
                    "duration": 0.15625
                },
                {
                    "name": "C4",
                    "midi": 60,
                    "time": 172.96875,
                    "velocity": 0.3858267716535433,
                    "duration": 0.15625
                },
                {
                    "name": "F3",
                    "midi": 53,
                    "time": 173.125,
                    "velocity": 0.3858267716535433,
                    "duration": 0.15625
                },
                {
                    "name": "A3",
                    "midi": 57,
                    "time": 173.28125,
                    "velocity": 0.3858267716535433,
                    "duration": 0.15625
                },
                {
                    "name": "A#3",
                    "midi": 58,
                    "time": 173.4375,
                    "velocity": 0.3858267716535433,
                    "duration": 0.15625
                },
                {
                    "name": "C4",
                    "midi": 60,
                    "time": 173.59375,
                    "velocity": 0.3858267716535433,
                    "duration": 0.15625
                },
                {
                    "name": "F3",
                    "midi": 53,
                    "time": 173.75,
                    "velocity": 0.3858267716535433,
                    "duration": 0.15625
                },
                {
                    "name": "A3",
                    "midi": 57,
                    "time": 173.90625,
                    "velocity": 0.3858267716535433,
                    "duration": 0.15625
                },
                {
                    "name": "G3",
                    "midi": 55,
                    "time": 174.0625,
                    "velocity": 0.3858267716535433,
                    "duration": 0.15625
                },
                {
                    "name": "F3",
                    "midi": 53,
                    "time": 174.21875,
                    "velocity": 0.3858267716535433,
                    "duration": 0.15625
                },
                {
                    "name": "C4",
                    "midi": 60,
                    "time": 174.375,
                    "velocity": 0.3858267716535433,
                    "duration": 0.15625
                },
                {
                    "name": "C4",
                    "midi": 60,
                    "time": 174.53125,
                    "velocity": 0.3858267716535433,
                    "duration": 0.15625
                },
                {
                    "name": "D4",
                    "midi": 62,
                    "time": 174.6875,
                    "velocity": 0.3858267716535433,
                    "duration": 0.15625
                },
                {
                    "name": "E4",
                    "midi": 64,
                    "time": 174.84375,
                    "velocity": 0.3858267716535433,
                    "duration": 0.15625
                },
                {
                    "name": "C#4",
                    "midi": 61,
                    "time": 175,
                    "velocity": 0.3858267716535433,
                    "duration": 0.15625
                },
                {
                    "name": "C#4",
                    "midi": 61,
                    "time": 175.15625,
                    "velocity": 0.3858267716535433,
                    "duration": 0.15625
                },
                {
                    "name": "D4",
                    "midi": 62,
                    "time": 175.3125,
                    "velocity": 0.3858267716535433,
                    "duration": 0.15625
                },
                {
                    "name": "E4",
                    "midi": 64,
                    "time": 175.46875,
                    "velocity": 0.3858267716535433,
                    "duration": 0.15625
                },
                {
                    "name": "A3",
                    "midi": 57,
                    "time": 175.625,
                    "velocity": 0.3858267716535433,
                    "duration": 0.15625
                },
                {
                    "name": "C#4",
                    "midi": 61,
                    "time": 175.78125,
                    "velocity": 0.3858267716535433,
                    "duration": 0.15625
                },
                {
                    "name": "B3",
                    "midi": 59,
                    "time": 175.9375,
                    "velocity": 0.3858267716535433,
                    "duration": 0.15625
                },
                {
                    "name": "A3",
                    "midi": 57,
                    "time": 176.09375,
                    "velocity": 0.3858267716535433,
                    "duration": 0.15625
                },
                {
                    "name": "D4",
                    "midi": 62,
                    "time": 176.25,
                    "velocity": 0.3858267716535433,
                    "duration": 0.3125
                },
                {
                    "name": "A3",
                    "midi": 57,
                    "time": 176.5625,
                    "velocity": 0.3858267716535433,
                    "duration": 0.3125
                },
                {
                    "name": "A#3",
                    "midi": 58,
                    "time": 176.875,
                    "velocity": 0.3858267716535433,
                    "duration": 0.3125
                },
                {
                    "name": "G3",
                    "midi": 55,
                    "time": 177.1875,
                    "velocity": 0.3858267716535433,
                    "duration": 0.3125
                },
                {
                    "name": "A3",
                    "midi": 57,
                    "time": 177.5,
                    "velocity": 0.3858267716535433,
                    "duration": 0.3125
                },
                {
                    "name": "A2",
                    "midi": 45,
                    "time": 177.8125,
                    "velocity": 0.3858267716535433,
                    "duration": 0.3125
                },
                {
                    "name": "D3",
                    "midi": 50,
                    "time": 178.125,
                    "velocity": 0.3858267716535433,
                    "duration": 1.875
                },
                {
                    "name": "D4",
                    "midi": 62,
                    "time": 180,
                    "velocity": 0.3858267716535433,
                    "duration": 0.3125
                },
                {
                    "name": "D3",
                    "midi": 50,
                    "time": 180.3125,
                    "velocity": 0.3858267716535433,
                    "duration": 0.625
                },
                {
                    "name": "F3",
                    "midi": 53,
                    "time": 180.9375,
                    "velocity": 0.3858267716535433,
                    "duration": 0.625
                },
                {
                    "name": "D3",
                    "midi": 50,
                    "time": 181.5625,
                    "velocity": 0.3858267716535433,
                    "duration": 0.3125
                },
                {
                    "name": "A3",
                    "midi": 57,
                    "time": 181.875,
                    "velocity": 0.3858267716535433,
                    "duration": 0.3125
                },
                {
                    "name": "A2",
                    "midi": 45,
                    "time": 182.1875,
                    "velocity": 0.3858267716535433,
                    "duration": 0.625
                },
                {
                    "name": "C#3",
                    "midi": 49,
                    "time": 182.8125,
                    "velocity": 0.3858267716535433,
                    "duration": 0.625
                },
                {
                    "name": "A2",
                    "midi": 45,
                    "time": 183.4375,
                    "velocity": 0.3858267716535433,
                    "duration": 0.3125
                },
                {
                    "name": "D4",
                    "midi": 62,
                    "time": 183.75,
                    "velocity": 0.3858267716535433,
                    "duration": 0.3125
                },
                {
                    "name": "D3",
                    "midi": 50,
                    "time": 184.0625,
                    "velocity": 0.3858267716535433,
                    "duration": 0.625
                },
                {
                    "name": "F3",
                    "midi": 53,
                    "time": 184.6875,
                    "velocity": 0.3858267716535433,
                    "duration": 0.625
                },
                {
                    "name": "D3",
                    "midi": 50,
                    "time": 185.3125,
                    "velocity": 0.3858267716535433,
                    "duration": 0.3125
                },
                {
                    "name": "C4",
                    "midi": 60,
                    "time": 185.625,
                    "velocity": 0.3858267716535433,
                    "duration": 0.3125
                },
                {
                    "name": "C3",
                    "midi": 48,
                    "time": 185.9375,
                    "velocity": 0.3858267716535433,
                    "duration": 0.625
                },
                {
                    "name": "E3",
                    "midi": 52,
                    "time": 186.5625,
                    "velocity": 0.3858267716535433,
                    "duration": 0.625
                },
                {
                    "name": "C3",
                    "midi": 48,
                    "time": 187.1875,
                    "velocity": 0.3858267716535433,
                    "duration": 0.3125
                },
                {
                    "name": "F2",
                    "midi": 41,
                    "time": 187.5,
                    "velocity": 0.3858267716535433,
                    "duration": 0.3125
                },
                {
                    "name": "F3",
                    "midi": 53,
                    "time": 187.8125,
                    "velocity": 0.3858267716535433,
                    "duration": 0.625
                },
                {
                    "name": "A3",
                    "midi": 57,
                    "time": 188.4375,
                    "velocity": 0.3858267716535433,
                    "duration": 0.625
                },
                {
                    "name": "F3",
                    "midi": 53,
                    "time": 189.0625,
                    "velocity": 0.3858267716535433,
                    "duration": 0.3125
                },
                {
                    "name": "C4",
                    "midi": 60,
                    "time": 189.375,
                    "velocity": 0.3858267716535433,
                    "duration": 0.3125
                },
                {
                    "name": "C3",
                    "midi": 48,
                    "time": 189.6875,
                    "velocity": 0.3858267716535433,
                    "duration": 0.625
                },
                {
                    "name": "E3",
                    "midi": 52,
                    "time": 190.3125,
                    "velocity": 0.3858267716535433,
                    "duration": 0.625
                },
                {
                    "name": "C#3",
                    "midi": 49,
                    "time": 190.9375,
                    "velocity": 0.3858267716535433,
                    "duration": 0.3125
                },
                {
                    "name": "D3",
                    "midi": 50,
                    "time": 191.25,
                    "velocity": 0.3858267716535433,
                    "duration": 0.3125
                },
                {
                    "name": "D4",
                    "midi": 62,
                    "time": 191.5625,
                    "velocity": 0.3858267716535433,
                    "duration": 0.625
                },
                {
                    "name": "F4",
                    "midi": 65,
                    "time": 192.1875,
                    "velocity": 0.3858267716535433,
                    "duration": 0.625
                },
                {
                    "name": "D4",
                    "midi": 62,
                    "time": 192.8125,
                    "velocity": 0.3858267716535433,
                    "duration": 0.3125
                },
                {
                    "name": "A3",
                    "midi": 57,
                    "time": 193.125,
                    "velocity": 0.3858267716535433,
                    "duration": 0.3125
                },
                {
                    "name": "A2",
                    "midi": 45,
                    "time": 193.4375,
                    "velocity": 0.3858267716535433,
                    "duration": 0.625
                },
                {
                    "name": "C#3",
                    "midi": 49,
                    "time": 194.0625,
                    "velocity": 0.3858267716535433,
                    "duration": 0.625
                },
                {
                    "name": "A2",
                    "midi": 45,
                    "time": 194.6875,
                    "velocity": 0.3858267716535433,
                    "duration": 0.3125
                },
                {
                    "name": "D4",
                    "midi": 62,
                    "time": 195,
                    "velocity": 0.3858267716535433,
                    "duration": 0.3125
                },
                {
                    "name": "D3",
                    "midi": 50,
                    "time": 195.3125,
                    "velocity": 0.3858267716535433,
                    "duration": 0.625
                },
                {
                    "name": "F3",
                    "midi": 53,
                    "time": 195.9375,
                    "velocity": 0.3858267716535433,
                    "duration": 0.625
                },
                {
                    "name": "D3",
                    "midi": 50,
                    "time": 196.5625,
                    "velocity": 0.3858267716535433,
                    "duration": 0.3125
                },
                {
                    "name": "A3",
                    "midi": 57,
                    "time": 196.875,
                    "velocity": 0.3858267716535433,
                    "duration": 0.3125
                },
                {
                    "name": "A2",
                    "midi": 45,
                    "time": 197.1875,
                    "velocity": 0.3858267716535433,
                    "duration": 0.625
                },
                {
                    "name": "C#3",
                    "midi": 49,
                    "time": 197.8125,
                    "velocity": 0.3858267716535433,
                    "duration": 0.625
                },
                {
                    "name": "A2",
                    "midi": 45,
                    "time": 198.4375,
                    "velocity": 0.3858267716535433,
                    "duration": 0.3125
                },
                {
                    "name": "D4",
                    "midi": 62,
                    "time": 198.75,
                    "velocity": 0.3858267716535433,
                    "duration": 0.3125
                },
                {
                    "name": "D3",
                    "midi": 50,
                    "time": 199.0625,
                    "velocity": 0.3858267716535433,
                    "duration": 0.625
                },
                {
                    "name": "F3",
                    "midi": 53,
                    "time": 199.6875,
                    "velocity": 0.3858267716535433,
                    "duration": 0.625
                },
                {
                    "name": "D3",
                    "midi": 50,
                    "time": 200.3125,
                    "velocity": 0.3858267716535433,
                    "duration": 0.3125
                },
                {
                    "name": "C4",
                    "midi": 60,
                    "time": 200.625,
                    "velocity": 0.3858267716535433,
                    "duration": 0.3125
                },
                {
                    "name": "C3",
                    "midi": 48,
                    "time": 200.9375,
                    "velocity": 0.3858267716535433,
                    "duration": 0.625
                },
                {
                    "name": "E3",
                    "midi": 52,
                    "time": 201.5625,
                    "velocity": 0.3858267716535433,
                    "duration": 0.625
                },
                {
                    "name": "C3",
                    "midi": 48,
                    "time": 202.1875,
                    "velocity": 0.3858267716535433,
                    "duration": 0.3125
                },
                {
                    "name": "F2",
                    "midi": 41,
                    "time": 202.5,
                    "velocity": 0.3858267716535433,
                    "duration": 0.3125
                },
                {
                    "name": "F3",
                    "midi": 53,
                    "time": 202.8125,
                    "velocity": 0.3858267716535433,
                    "duration": 0.625
                },
                {
                    "name": "A3",
                    "midi": 57,
                    "time": 203.4375,
                    "velocity": 0.3858267716535433,
                    "duration": 0.625
                },
                {
                    "name": "F3",
                    "midi": 53,
                    "time": 204.0625,
                    "velocity": 0.3858267716535433,
                    "duration": 0.3125
                },
                {
                    "name": "C4",
                    "midi": 60,
                    "time": 204.375,
                    "velocity": 0.3858267716535433,
                    "duration": 0.3125
                },
                {
                    "name": "C3",
                    "midi": 48,
                    "time": 204.6875,
                    "velocity": 0.3858267716535433,
                    "duration": 0.625
                },
                {
                    "name": "E3",
                    "midi": 52,
                    "time": 205.3125,
                    "velocity": 0.3858267716535433,
                    "duration": 0.625
                },
                {
                    "name": "C#3",
                    "midi": 49,
                    "time": 205.9375,
                    "velocity": 0.3858267716535433,
                    "duration": 0.3125
                },
                {
                    "name": "D3",
                    "midi": 50,
                    "time": 206.25,
                    "velocity": 0.3858267716535433,
                    "duration": 0.3125
                },
                {
                    "name": "G3",
                    "midi": 55,
                    "time": 206.5625,
                    "velocity": 0.3858267716535433,
                    "duration": 0.625
                },
                {
                    "name": "F3",
                    "midi": 53,
                    "time": 207.1875,
                    "velocity": 0.3858267716535433,
                    "duration": 0.15625
                },
                {
                    "name": "G3",
                    "midi": 55,
                    "time": 207.34375,
                    "velocity": 0.3858267716535433,
                    "duration": 0.15625
                },
                {
                    "name": "A3",
                    "midi": 57,
                    "time": 207.5,
                    "velocity": 0.3858267716535433,
                    "duration": 0.3125
                },
                {
                    "name": "A2",
                    "midi": 45,
                    "time": 207.8125,
                    "velocity": 0.3858267716535433,
                    "duration": 0.3125
                },
                {
                    "name": "D3",
                    "midi": 50,
                    "time": 208.125,
                    "velocity": 0.3858267716535433,
                    "duration": 1.875
                },
                {
                    "name": "D3",
                    "midi": 50,
                    "time": 210,
                    "velocity": 0.3858267716535433,
                    "duration": 0.625
                },
                {
                    "name": "D3",
                    "midi": 50,
                    "time": 210.625,
                    "velocity": 0.3858267716535433,
                    "duration": 0.9375
                },
                {
                    "name": "D3",
                    "midi": 50,
                    "time": 211.5625,
                    "velocity": 0.3858267716535433,
                    "duration": 0.3125
                },
                {
                    "name": "A2",
                    "midi": 45,
                    "time": 211.875,
                    "velocity": 0.3858267716535433,
                    "duration": 0.625
                },
                {
                    "name": "A2",
                    "midi": 45,
                    "time": 212.5,
                    "velocity": 0.3858267716535433,
                    "duration": 0.9375
                },
                {
                    "name": "A2",
                    "midi": 45,
                    "time": 213.4375,
                    "velocity": 0.3858267716535433,
                    "duration": 0.3125
                },
                {
                    "name": "D3",
                    "midi": 50,
                    "time": 213.75,
                    "velocity": 0.3858267716535433,
                    "duration": 0.625
                },
                {
                    "name": "D3",
                    "midi": 50,
                    "time": 214.375,
                    "velocity": 0.3858267716535433,
                    "duration": 0.9375
                },
                {
                    "name": "D3",
                    "midi": 50,
                    "time": 215.3125,
                    "velocity": 0.3858267716535433,
                    "duration": 0.3125
                },
                {
                    "name": "C3",
                    "midi": 48,
                    "time": 215.625,
                    "velocity": 0.3858267716535433,
                    "duration": 0.625
                },
                {
                    "name": "C3",
                    "midi": 48,
                    "time": 216.25,
                    "velocity": 0.3858267716535433,
                    "duration": 0.9375
                },
                {
                    "name": "C3",
                    "midi": 48,
                    "time": 217.1875,
                    "velocity": 0.3858267716535433,
                    "duration": 0.3125
                },
                {
                    "name": "F3",
                    "midi": 53,
                    "time": 217.5,
                    "velocity": 0.3858267716535433,
                    "duration": 0.625
                },
                {
                    "name": "F3",
                    "midi": 53,
                    "time": 218.125,
                    "velocity": 0.3858267716535433,
                    "duration": 0.9375
                },
                {
                    "name": "F3",
                    "midi": 53,
                    "time": 219.0625,
                    "velocity": 0.3858267716535433,
                    "duration": 0.3125
                },
                {
                    "name": "C3",
                    "midi": 48,
                    "time": 219.375,
                    "velocity": 0.3858267716535433,
                    "duration": 0.625
                },
                {
                    "name": "C#3",
                    "midi": 49,
                    "time": 220,
                    "velocity": 0.3858267716535433,
                    "duration": 0.9375
                },
                {
                    "name": "C#3",
                    "midi": 49,
                    "time": 220.9375,
                    "velocity": 0.3858267716535433,
                    "duration": 0.3125
                },
                {
                    "name": "D3",
                    "midi": 50,
                    "time": 221.25,
                    "velocity": 0.3858267716535433,
                    "duration": 0.625
                },
                {
                    "name": "A#2",
                    "midi": 46,
                    "time": 221.875,
                    "velocity": 0.3858267716535433,
                    "duration": 0.625
                },
                {
                    "name": "G2",
                    "midi": 43,
                    "time": 222.5,
                    "velocity": 0.3858267716535433,
                    "duration": 0.625
                },
                {
                    "name": "A2",
                    "midi": 45,
                    "time": 223.125,
                    "velocity": 0.3858267716535433,
                    "duration": 0.625
                },
                {
                    "name": "A2",
                    "midi": 45,
                    "time": 223.75,
                    "velocity": 0.3858267716535433,
                    "duration": 0.9375
                },
                {
                    "name": "A2",
                    "midi": 45,
                    "time": 224.6875,
                    "velocity": 0.3858267716535433,
                    "duration": 0.3125
                },
                {
                    "name": "D3",
                    "midi": 50,
                    "time": 225,
                    "velocity": 0.3858267716535433,
                    "duration": 0.625
                },
                {
                    "name": "D3",
                    "midi": 50,
                    "time": 225.625,
                    "velocity": 0.3858267716535433,
                    "duration": 0.9375
                },
                {
                    "name": "D3",
                    "midi": 50,
                    "time": 226.5625,
                    "velocity": 0.3858267716535433,
                    "duration": 0.3125
                },
                {
                    "name": "A2",
                    "midi": 45,
                    "time": 226.875,
                    "velocity": 0.3858267716535433,
                    "duration": 0.625
                },
                {
                    "name": "A2",
                    "midi": 45,
                    "time": 227.5,
                    "velocity": 0.3858267716535433,
                    "duration": 0.9375
                },
                {
                    "name": "A2",
                    "midi": 45,
                    "time": 228.4375,
                    "velocity": 0.3858267716535433,
                    "duration": 0.3125
                },
                {
                    "name": "D3",
                    "midi": 50,
                    "time": 228.75,
                    "velocity": 0.3858267716535433,
                    "duration": 0.625
                },
                {
                    "name": "D3",
                    "midi": 50,
                    "time": 229.375,
                    "velocity": 0.3858267716535433,
                    "duration": 0.9375
                },
                {
                    "name": "D3",
                    "midi": 50,
                    "time": 230.3125,
                    "velocity": 0.3858267716535433,
                    "duration": 0.3125
                },
                {
                    "name": "C3",
                    "midi": 48,
                    "time": 230.625,
                    "velocity": 0.3858267716535433,
                    "duration": 0.625
                },
                {
                    "name": "C3",
                    "midi": 48,
                    "time": 231.25,
                    "velocity": 0.3858267716535433,
                    "duration": 0.9375
                },
                {
                    "name": "C3",
                    "midi": 48,
                    "time": 232.1875,
                    "velocity": 0.3858267716535433,
                    "duration": 0.3125
                },
                {
                    "name": "F3",
                    "midi": 53,
                    "time": 232.5,
                    "velocity": 0.3858267716535433,
                    "duration": 0.625
                },
                {
                    "name": "F3",
                    "midi": 53,
                    "time": 233.125,
                    "velocity": 0.3858267716535433,
                    "duration": 0.9375
                },
                {
                    "name": "F3",
                    "midi": 53,
                    "time": 234.0625,
                    "velocity": 0.3858267716535433,
                    "duration": 0.3125
                },
                {
                    "name": "C3",
                    "midi": 48,
                    "time": 234.375,
                    "velocity": 0.3858267716535433,
                    "duration": 0.625
                },
                {
                    "name": "C#3",
                    "midi": 49,
                    "time": 235,
                    "velocity": 0.3858267716535433,
                    "duration": 0.9375
                },
                {
                    "name": "C#3",
                    "midi": 49,
                    "time": 235.9375,
                    "velocity": 0.3858267716535433,
                    "duration": 0.3125
                },
                {
                    "name": "D3",
                    "midi": 50,
                    "time": 236.25,
                    "velocity": 0.3858267716535433,
                    "duration": 0.3125
                },
                {
                    "name": "G3",
                    "midi": 55,
                    "time": 236.5625,
                    "velocity": 0.3858267716535433,
                    "duration": 0.3125
                },
                {
                    "name": "A3",
                    "midi": 57,
                    "time": 236.875,
                    "velocity": 0.3858267716535433,
                    "duration": 0.625
                },
                {
                    "name": "A2",
                    "midi": 45,
                    "time": 237.5,
                    "velocity": 0.3858267716535433,
                    "duration": 0.625
                },
                {
                    "name": "D3",
                    "midi": 50,
                    "time": 238.125,
                    "velocity": 0.3858267716535433,
                    "duration": 1.875
                },
                {
                    "name": "D3",
                    "midi": 50,
                    "time": 240,
                    "velocity": 0.3858267716535433,
                    "duration": 0.3125
                },
                {
                    "name": "D4",
                    "midi": 62,
                    "time": 240.3125,
                    "velocity": 0.3858267716535433,
                    "duration": 0.3125
                },
                {
                    "name": "D4",
                    "midi": 62,
                    "time": 240.625,
                    "velocity": 0.3858267716535433,
                    "duration": 0.3125
                },
                {
                    "name": "D3",
                    "midi": 50,
                    "time": 240.9375,
                    "velocity": 0.3858267716535433,
                    "duration": 0.3125
                },
                {
                    "name": "D3",
                    "midi": 50,
                    "time": 241.25,
                    "velocity": 0.3858267716535433,
                    "duration": 0.3125
                },
                {
                    "name": "D4",
                    "midi": 62,
                    "time": 241.5625,
                    "velocity": 0.3858267716535433,
                    "duration": 0.3125
                },
                {
                    "name": "A2",
                    "midi": 45,
                    "time": 241.875,
                    "velocity": 0.3858267716535433,
                    "duration": 0.3125
                },
                {
                    "name": "A3",
                    "midi": 57,
                    "time": 242.1875,
                    "velocity": 0.3858267716535433,
                    "duration": 0.3125
                },
                {
                    "name": "A3",
                    "midi": 57,
                    "time": 242.5,
                    "velocity": 0.3858267716535433,
                    "duration": 0.3125
                },
                {
                    "name": "A2",
                    "midi": 45,
                    "time": 242.8125,
                    "velocity": 0.3858267716535433,
                    "duration": 0.3125
                },
                {
                    "name": "A2",
                    "midi": 45,
                    "time": 243.125,
                    "velocity": 0.3858267716535433,
                    "duration": 0.3125
                },
                {
                    "name": "A3",
                    "midi": 57,
                    "time": 243.4375,
                    "velocity": 0.3858267716535433,
                    "duration": 0.3125
                },
                {
                    "name": "D3",
                    "midi": 50,
                    "time": 243.75,
                    "velocity": 0.3858267716535433,
                    "duration": 0.3125
                },
                {
                    "name": "D4",
                    "midi": 62,
                    "time": 244.0625,
                    "velocity": 0.3858267716535433,
                    "duration": 0.3125
                },
                {
                    "name": "D4",
                    "midi": 62,
                    "time": 244.375,
                    "velocity": 0.3858267716535433,
                    "duration": 0.3125
                },
                {
                    "name": "D3",
                    "midi": 50,
                    "time": 244.6875,
                    "velocity": 0.3858267716535433,
                    "duration": 0.3125
                },
                {
                    "name": "D3",
                    "midi": 50,
                    "time": 245,
                    "velocity": 0.3858267716535433,
                    "duration": 0.3125
                },
                {
                    "name": "D4",
                    "midi": 62,
                    "time": 245.3125,
                    "velocity": 0.3858267716535433,
                    "duration": 0.3125
                },
                {
                    "name": "C3",
                    "midi": 48,
                    "time": 245.625,
                    "velocity": 0.3858267716535433,
                    "duration": 0.3125
                },
                {
                    "name": "C4",
                    "midi": 60,
                    "time": 245.9375,
                    "velocity": 0.3858267716535433,
                    "duration": 0.3125
                },
                {
                    "name": "C4",
                    "midi": 60,
                    "time": 246.25,
                    "velocity": 0.3858267716535433,
                    "duration": 0.3125
                },
                {
                    "name": "C3",
                    "midi": 48,
                    "time": 246.5625,
                    "velocity": 0.3858267716535433,
                    "duration": 0.3125
                },
                {
                    "name": "C3",
                    "midi": 48,
                    "time": 246.875,
                    "velocity": 0.3858267716535433,
                    "duration": 0.3125
                },
                {
                    "name": "C4",
                    "midi": 60,
                    "time": 247.1875,
                    "velocity": 0.3858267716535433,
                    "duration": 0.3125
                },
                {
                    "name": "F3",
                    "midi": 53,
                    "time": 247.5,
                    "velocity": 0.3858267716535433,
                    "duration": 0.3125
                },
                {
                    "name": "F4",
                    "midi": 65,
                    "time": 247.8125,
                    "velocity": 0.3858267716535433,
                    "duration": 0.3125
                },
                {
                    "name": "F4",
                    "midi": 65,
                    "time": 248.125,
                    "velocity": 0.3858267716535433,
                    "duration": 0.3125
                },
                {
                    "name": "F3",
                    "midi": 53,
                    "time": 248.4375,
                    "velocity": 0.3858267716535433,
                    "duration": 0.3125
                },
                {
                    "name": "F3",
                    "midi": 53,
                    "time": 248.75,
                    "velocity": 0.3858267716535433,
                    "duration": 0.3125
                },
                {
                    "name": "F4",
                    "midi": 65,
                    "time": 249.0625,
                    "velocity": 0.3858267716535433,
                    "duration": 0.3125
                },
                {
                    "name": "C3",
                    "midi": 48,
                    "time": 249.375,
                    "velocity": 0.3858267716535433,
                    "duration": 0.3125
                },
                {
                    "name": "C4",
                    "midi": 60,
                    "time": 249.6875,
                    "velocity": 0.3858267716535433,
                    "duration": 0.3125
                },
                {
                    "name": "C4",
                    "midi": 60,
                    "time": 250,
                    "velocity": 0.3858267716535433,
                    "duration": 0.3125
                },
                {
                    "name": "C3",
                    "midi": 48,
                    "time": 250.3125,
                    "velocity": 0.3858267716535433,
                    "duration": 0.3125
                },
                {
                    "name": "A2",
                    "midi": 45,
                    "time": 250.625,
                    "velocity": 0.3858267716535433,
                    "duration": 0.3125
                },
                {
                    "name": "C#3",
                    "midi": 49,
                    "time": 250.9375,
                    "velocity": 0.3858267716535433,
                    "duration": 0.3125
                },
                {
                    "name": "D3",
                    "midi": 50,
                    "time": 251.25,
                    "velocity": 0.3858267716535433,
                    "duration": 0.3125
                },
                {
                    "name": "D4",
                    "midi": 62,
                    "time": 251.5625,
                    "velocity": 0.3858267716535433,
                    "duration": 0.3125
                },
                {
                    "name": "D4",
                    "midi": 62,
                    "time": 251.875,
                    "velocity": 0.3858267716535433,
                    "duration": 0.3125
                },
                {
                    "name": "D3",
                    "midi": 50,
                    "time": 252.1875,
                    "velocity": 0.3858267716535433,
                    "duration": 0.3125
                },
                {
                    "name": "G3",
                    "midi": 55,
                    "time": 252.5,
                    "velocity": 0.3858267716535433,
                    "duration": 0.3125
                },
                {
                    "name": "G2",
                    "midi": 43,
                    "time": 252.8125,
                    "velocity": 0.3858267716535433,
                    "duration": 0.3125
                },
                {
                    "name": "A2",
                    "midi": 45,
                    "time": 253.125,
                    "velocity": 0.3858267716535433,
                    "duration": 0.3125
                },
                {
                    "name": "A3",
                    "midi": 57,
                    "time": 253.4375,
                    "velocity": 0.3858267716535433,
                    "duration": 0.3125
                },
                {
                    "name": "A3",
                    "midi": 57,
                    "time": 253.75,
                    "velocity": 0.3858267716535433,
                    "duration": 0.3125
                },
                {
                    "name": "A2",
                    "midi": 45,
                    "time": 254.0625,
                    "velocity": 0.3858267716535433,
                    "duration": 0.3125
                },
                {
                    "name": "A2",
                    "midi": 45,
                    "time": 254.375,
                    "velocity": 0.3858267716535433,
                    "duration": 0.3125
                },
                {
                    "name": "A3",
                    "midi": 57,
                    "time": 254.6875,
                    "velocity": 0.3858267716535433,
                    "duration": 0.3125
                },
                {
                    "name": "D3",
                    "midi": 50,
                    "time": 255,
                    "velocity": 0.3858267716535433,
                    "duration": 0.3125
                },
                {
                    "name": "D4",
                    "midi": 62,
                    "time": 255.3125,
                    "velocity": 0.3858267716535433,
                    "duration": 0.3125
                },
                {
                    "name": "D4",
                    "midi": 62,
                    "time": 255.625,
                    "velocity": 0.3858267716535433,
                    "duration": 0.3125
                },
                {
                    "name": "D3",
                    "midi": 50,
                    "time": 255.9375,
                    "velocity": 0.3858267716535433,
                    "duration": 0.3125
                },
                {
                    "name": "D3",
                    "midi": 50,
                    "time": 256.25,
                    "velocity": 0.3858267716535433,
                    "duration": 0.3125
                },
                {
                    "name": "D4",
                    "midi": 62,
                    "time": 256.5625,
                    "velocity": 0.3858267716535433,
                    "duration": 0.3125
                },
                {
                    "name": "A2",
                    "midi": 45,
                    "time": 256.875,
                    "velocity": 0.3858267716535433,
                    "duration": 0.3125
                },
                {
                    "name": "A3",
                    "midi": 57,
                    "time": 257.1875,
                    "velocity": 0.3858267716535433,
                    "duration": 0.3125
                },
                {
                    "name": "A3",
                    "midi": 57,
                    "time": 257.5,
                    "velocity": 0.3858267716535433,
                    "duration": 0.3125
                },
                {
                    "name": "A2",
                    "midi": 45,
                    "time": 257.8125,
                    "velocity": 0.3858267716535433,
                    "duration": 0.3125
                },
                {
                    "name": "A2",
                    "midi": 45,
                    "time": 258.125,
                    "velocity": 0.3858267716535433,
                    "duration": 0.3125
                },
                {
                    "name": "A3",
                    "midi": 57,
                    "time": 258.4375,
                    "velocity": 0.3858267716535433,
                    "duration": 0.3125
                },
                {
                    "name": "D3",
                    "midi": 50,
                    "time": 258.75,
                    "velocity": 0.3858267716535433,
                    "duration": 0.3125
                },
                {
                    "name": "D4",
                    "midi": 62,
                    "time": 259.0625,
                    "velocity": 0.3858267716535433,
                    "duration": 0.3125
                },
                {
                    "name": "D4",
                    "midi": 62,
                    "time": 259.375,
                    "velocity": 0.3858267716535433,
                    "duration": 0.3125
                },
                {
                    "name": "D3",
                    "midi": 50,
                    "time": 259.6875,
                    "velocity": 0.3858267716535433,
                    "duration": 0.3125
                },
                {
                    "name": "D3",
                    "midi": 50,
                    "time": 260,
                    "velocity": 0.3858267716535433,
                    "duration": 0.3125
                },
                {
                    "name": "D4",
                    "midi": 62,
                    "time": 260.3125,
                    "velocity": 0.3858267716535433,
                    "duration": 0.3125
                },
                {
                    "name": "C3",
                    "midi": 48,
                    "time": 260.625,
                    "velocity": 0.3858267716535433,
                    "duration": 0.3125
                },
                {
                    "name": "C4",
                    "midi": 60,
                    "time": 260.9375,
                    "velocity": 0.3858267716535433,
                    "duration": 0.3125
                },
                {
                    "name": "C4",
                    "midi": 60,
                    "time": 261.25,
                    "velocity": 0.3858267716535433,
                    "duration": 0.3125
                },
                {
                    "name": "C3",
                    "midi": 48,
                    "time": 261.5625,
                    "velocity": 0.3858267716535433,
                    "duration": 0.3125
                },
                {
                    "name": "C3",
                    "midi": 48,
                    "time": 261.875,
                    "velocity": 0.3858267716535433,
                    "duration": 0.3125
                },
                {
                    "name": "C4",
                    "midi": 60,
                    "time": 262.1875,
                    "velocity": 0.3858267716535433,
                    "duration": 0.3125
                },
                {
                    "name": "F3",
                    "midi": 53,
                    "time": 262.5,
                    "velocity": 0.3858267716535433,
                    "duration": 0.3125
                },
                {
                    "name": "F4",
                    "midi": 65,
                    "time": 262.8125,
                    "velocity": 0.3858267716535433,
                    "duration": 0.3125
                },
                {
                    "name": "F4",
                    "midi": 65,
                    "time": 263.125,
                    "velocity": 0.3858267716535433,
                    "duration": 0.3125
                },
                {
                    "name": "F3",
                    "midi": 53,
                    "time": 263.4375,
                    "velocity": 0.3858267716535433,
                    "duration": 0.3125
                },
                {
                    "name": "F3",
                    "midi": 53,
                    "time": 263.75,
                    "velocity": 0.3858267716535433,
                    "duration": 0.3125
                },
                {
                    "name": "F4",
                    "midi": 65,
                    "time": 264.0625,
                    "velocity": 0.3858267716535433,
                    "duration": 0.3125
                },
                {
                    "name": "G4",
                    "midi": 67,
                    "time": 264.375,
                    "velocity": 0.3858267716535433,
                    "duration": 0.3125
                },
                {
                    "name": "G3",
                    "midi": 55,
                    "time": 264.6875,
                    "velocity": 0.3858267716535433,
                    "duration": 0.3125
                },
                {
                    "name": "G3",
                    "midi": 55,
                    "time": 265,
                    "velocity": 0.3858267716535433,
                    "duration": 0.3125
                },
                {
                    "name": "A3",
                    "midi": 57,
                    "time": 265.3125,
                    "velocity": 0.3858267716535433,
                    "duration": 0.3125
                },
                {
                    "name": "A#3",
                    "midi": 58,
                    "time": 265.625,
                    "velocity": 0.3858267716535433,
                    "duration": 0.3125
                },
                {
                    "name": "G3",
                    "midi": 55,
                    "time": 265.9375,
                    "velocity": 0.3858267716535433,
                    "duration": 0.3125
                },
                {
                    "name": "A3",
                    "midi": 57,
                    "time": 266.25,
                    "velocity": 0.3858267716535433,
                    "duration": 0.3125
                },
                {
                    "name": "D3",
                    "midi": 50,
                    "time": 266.5625,
                    "velocity": 0.3858267716535433,
                    "duration": 0.3125
                },
                {
                    "name": "A3",
                    "midi": 57,
                    "time": 266.875,
                    "velocity": 0.3858267716535433,
                    "duration": 0.3125
                },
                {
                    "name": "A2",
                    "midi": 45,
                    "time": 267.1875,
                    "velocity": 0.3858267716535433,
                    "duration": 0.3125
                },
                {
                    "name": "A2",
                    "midi": 45,
                    "time": 267.5,
                    "velocity": 0.3858267716535433,
                    "duration": 0.3125
                },
                {
                    "name": "A3",
                    "midi": 57,
                    "time": 267.8125,
                    "velocity": 0.3858267716535433,
                    "duration": 0.3125
                },
                {
                    "name": "D3",
                    "midi": 50,
                    "time": 268.125,
                    "velocity": 0.3858267716535433,
                    "duration": 1.875
                },
                {
                    "name": "D3",
                    "midi": 50,
                    "time": 270,
                    "velocity": 0.3858267716535433,
                    "duration": 0.625
                },
                {
                    "name": "D3",
                    "midi": 50,
                    "time": 271.25,
                    "velocity": 0.3858267716535433,
                    "duration": 0.625
                },
                {
                    "name": "A3",
                    "midi": 57,
                    "time": 271.875,
                    "velocity": 0.3858267716535433,
                    "duration": 0.625
                },
                {
                    "name": "A3",
                    "midi": 57,
                    "time": 273.125,
                    "velocity": 0.3858267716535433,
                    "duration": 0.625
                },
                {
                    "name": "D3",
                    "midi": 50,
                    "time": 273.75,
                    "velocity": 0.3858267716535433,
                    "duration": 0.625
                },
                {
                    "name": "D3",
                    "midi": 50,
                    "time": 275,
                    "velocity": 0.3858267716535433,
                    "duration": 0.625
                },
                {
                    "name": "C3",
                    "midi": 48,
                    "time": 275.625,
                    "velocity": 0.3858267716535433,
                    "duration": 0.625
                },
                {
                    "name": "C3",
                    "midi": 48,
                    "time": 276.875,
                    "velocity": 0.3858267716535433,
                    "duration": 0.625
                },
                {
                    "name": "F2",
                    "midi": 41,
                    "time": 277.5,
                    "velocity": 0.3858267716535433,
                    "duration": 0.625
                },
                {
                    "name": "F2",
                    "midi": 41,
                    "time": 278.75,
                    "velocity": 0.3858267716535433,
                    "duration": 0.625
                },
                {
                    "name": "C3",
                    "midi": 48,
                    "time": 279.375,
                    "velocity": 0.3858267716535433,
                    "duration": 0.625
                },
                {
                    "name": "A2",
                    "midi": 45,
                    "time": 280.625,
                    "velocity": 0.3858267716535433,
                    "duration": 0.625
                },
                {
                    "name": "D3",
                    "midi": 50,
                    "time": 281.25,
                    "velocity": 0.3858267716535433,
                    "duration": 0.625
                },
                {
                    "name": "G2",
                    "midi": 43,
                    "time": 282.5,
                    "velocity": 0.3858267716535433,
                    "duration": 0.625
                },
                {
                    "name": "A2",
                    "midi": 45,
                    "time": 283.125,
                    "velocity": 0.3858267716535433,
                    "duration": 1.875
                },
                {
                    "name": "D3",
                    "midi": 50,
                    "time": 285,
                    "velocity": 0.3858267716535433,
                    "duration": 0.625
                },
                {
                    "name": "D3",
                    "midi": 50,
                    "time": 286.25,
                    "velocity": 0.3858267716535433,
                    "duration": 0.625
                },
                {
                    "name": "A3",
                    "midi": 57,
                    "time": 286.875,
                    "velocity": 0.3858267716535433,
                    "duration": 0.625
                },
                {
                    "name": "A3",
                    "midi": 57,
                    "time": 288.125,
                    "velocity": 0.3858267716535433,
                    "duration": 0.625
                },
                {
                    "name": "D3",
                    "midi": 50,
                    "time": 288.75,
                    "velocity": 0.3858267716535433,
                    "duration": 0.625
                },
                {
                    "name": "D3",
                    "midi": 50,
                    "time": 290,
                    "velocity": 0.3858267716535433,
                    "duration": 0.625
                },
                {
                    "name": "C3",
                    "midi": 48,
                    "time": 290.625,
                    "velocity": 0.3858267716535433,
                    "duration": 0.625
                },
                {
                    "name": "C3",
                    "midi": 48,
                    "time": 291.875,
                    "velocity": 0.3858267716535433,
                    "duration": 0.625
                },
                {
                    "name": "F2",
                    "midi": 41,
                    "time": 292.5,
                    "velocity": 0.3858267716535433,
                    "duration": 0.625
                },
                {
                    "name": "F2",
                    "midi": 41,
                    "time": 293.75,
                    "velocity": 0.3858267716535433,
                    "duration": 0.625
                },
                {
                    "name": "C3",
                    "midi": 48,
                    "time": 294.375,
                    "velocity": 0.3858267716535433,
                    "duration": 0.625
                },
                {
                    "name": "C#3",
                    "midi": 49,
                    "time": 295,
                    "velocity": 0.3858267716535433,
                    "duration": 1.25
                },
                {
                    "name": "D3",
                    "midi": 50,
                    "time": 296.25,
                    "velocity": 0.3858267716535433,
                    "duration": 0.3125
                },
                {
                    "name": "G3",
                    "midi": 55,
                    "time": 296.5625,
                    "velocity": 0.3858267716535433,
                    "duration": 0.3125
                },
                {
                    "name": "A3",
                    "midi": 57,
                    "time": 296.875,
                    "velocity": 0.3858267716535433,
                    "duration": 0.625
                },
                {
                    "name": "A2",
                    "midi": 45,
                    "time": 297.5,
                    "velocity": 0.3858267716535433,
                    "duration": 0.625
                },
                {
                    "name": "D3",
                    "midi": 50,
                    "time": 298.125,
                    "velocity": 0.3858267716535433,
                    "duration": 1.875
                },
                {
                    "name": "D3",
                    "midi": 50,
                    "time": 300,
                    "velocity": 0.3858267716535433,
                    "duration": 0.3125
                },
                {
                    "name": "D4",
                    "midi": 62,
                    "time": 300.3125,
                    "velocity": 0.3858267716535433,
                    "duration": 0.3125
                },
                {
                    "name": "D4",
                    "midi": 62,
                    "time": 300.625,
                    "velocity": 0.3858267716535433,
                    "duration": 0.3125
                },
                {
                    "name": "D3",
                    "midi": 50,
                    "time": 300.9375,
                    "velocity": 0.3858267716535433,
                    "duration": 0.3125
                },
                {
                    "name": "D3",
                    "midi": 50,
                    "time": 301.25,
                    "velocity": 0.3858267716535433,
                    "duration": 0.625
                },
                {
                    "name": "A3",
                    "midi": 57,
                    "time": 302.1875,
                    "velocity": 0.3858267716535433,
                    "duration": 0.3125
                },
                {
                    "name": "A3",
                    "midi": 57,
                    "time": 302.5,
                    "velocity": 0.3858267716535433,
                    "duration": 0.3125
                },
                {
                    "name": "A2",
                    "midi": 45,
                    "time": 302.8125,
                    "velocity": 0.3858267716535433,
                    "duration": 0.3125
                },
                {
                    "name": "A2",
                    "midi": 45,
                    "time": 303.125,
                    "velocity": 0.3858267716535433,
                    "duration": 0.3125
                },
                {
                    "name": "C#3",
                    "midi": 49,
                    "time": 303.4375,
                    "velocity": 0.3858267716535433,
                    "duration": 0.3125
                },
                {
                    "name": "D3",
                    "midi": 50,
                    "time": 303.75,
                    "velocity": 0.3858267716535433,
                    "duration": 0.3125
                },
                {
                    "name": "D4",
                    "midi": 62,
                    "time": 304.0625,
                    "velocity": 0.3858267716535433,
                    "duration": 0.3125
                },
                {
                    "name": "D4",
                    "midi": 62,
                    "time": 304.375,
                    "velocity": 0.3858267716535433,
                    "duration": 0.3125
                },
                {
                    "name": "D3",
                    "midi": 50,
                    "time": 304.6875,
                    "velocity": 0.3858267716535433,
                    "duration": 0.3125
                },
                {
                    "name": "D3",
                    "midi": 50,
                    "time": 305,
                    "velocity": 0.3858267716535433,
                    "duration": 0.625
                },
                {
                    "name": "C4",
                    "midi": 60,
                    "time": 305.9375,
                    "velocity": 0.3858267716535433,
                    "duration": 0.3125
                },
                {
                    "name": "C4",
                    "midi": 60,
                    "time": 306.25,
                    "velocity": 0.3858267716535433,
                    "duration": 0.3125
                },
                {
                    "name": "C3",
                    "midi": 48,
                    "time": 306.5625,
                    "velocity": 0.3858267716535433,
                    "duration": 0.3125
                },
                {
                    "name": "C3",
                    "midi": 48,
                    "time": 306.875,
                    "velocity": 0.3858267716535433,
                    "duration": 0.3125
                },
                {
                    "name": "E3",
                    "midi": 52,
                    "time": 307.1875,
                    "velocity": 0.3858267716535433,
                    "duration": 0.3125
                },
                {
                    "name": "F3",
                    "midi": 53,
                    "time": 307.5,
                    "velocity": 0.3858267716535433,
                    "duration": 0.3125
                },
                {
                    "name": "F4",
                    "midi": 65,
                    "time": 307.8125,
                    "velocity": 0.3858267716535433,
                    "duration": 0.3125
                },
                {
                    "name": "F4",
                    "midi": 65,
                    "time": 308.125,
                    "velocity": 0.3858267716535433,
                    "duration": 0.3125
                },
                {
                    "name": "F3",
                    "midi": 53,
                    "time": 308.4375,
                    "velocity": 0.3858267716535433,
                    "duration": 0.3125
                },
                {
                    "name": "F3",
                    "midi": 53,
                    "time": 308.75,
                    "velocity": 0.3858267716535433,
                    "duration": 0.625
                },
                {
                    "name": "C4",
                    "midi": 60,
                    "time": 309.6875,
                    "velocity": 0.3858267716535433,
                    "duration": 0.3125
                },
                {
                    "name": "C4",
                    "midi": 60,
                    "time": 310,
                    "velocity": 0.3858267716535433,
                    "duration": 0.3125
                },
                {
                    "name": "C3",
                    "midi": 48,
                    "time": 310.3125,
                    "velocity": 0.3858267716535433,
                    "duration": 0.3125
                },
                {
                    "name": "A2",
                    "midi": 45,
                    "time": 310.625,
                    "velocity": 0.3858267716535433,
                    "duration": 0.3125
                },
                {
                    "name": "C#3",
                    "midi": 49,
                    "time": 310.9375,
                    "velocity": 0.3858267716535433,
                    "duration": 0.3125
                },
                {
                    "name": "D3",
                    "midi": 50,
                    "time": 311.25,
                    "velocity": 0.3858267716535433,
                    "duration": 0.3125
                },
                {
                    "name": "D4",
                    "midi": 62,
                    "time": 311.5625,
                    "velocity": 0.3858267716535433,
                    "duration": 0.3125
                },
                {
                    "name": "D4",
                    "midi": 62,
                    "time": 311.875,
                    "velocity": 0.3858267716535433,
                    "duration": 0.3125
                },
                {
                    "name": "D3",
                    "midi": 50,
                    "time": 312.1875,
                    "velocity": 0.3858267716535433,
                    "duration": 0.3125
                },
                {
                    "name": "G3",
                    "midi": 55,
                    "time": 312.5,
                    "velocity": 0.3858267716535433,
                    "duration": 0.3125
                },
                {
                    "name": "G2",
                    "midi": 43,
                    "time": 312.8125,
                    "velocity": 0.3858267716535433,
                    "duration": 0.3125
                },
                {
                    "name": "A2",
                    "midi": 45,
                    "time": 313.125,
                    "velocity": 0.3858267716535433,
                    "duration": 0.3125
                },
                {
                    "name": "A3",
                    "midi": 57,
                    "time": 313.4375,
                    "velocity": 0.3858267716535433,
                    "duration": 0.3125
                },
                {
                    "name": "A3",
                    "midi": 57,
                    "time": 313.75,
                    "velocity": 0.3858267716535433,
                    "duration": 0.3125
                },
                {
                    "name": "A2",
                    "midi": 45,
                    "time": 314.0625,
                    "velocity": 0.3858267716535433,
                    "duration": 0.3125
                },
                {
                    "name": "A2",
                    "midi": 45,
                    "time": 314.375,
                    "velocity": 0.3858267716535433,
                    "duration": 0.3125
                },
                {
                    "name": "C#3",
                    "midi": 49,
                    "time": 314.6875,
                    "velocity": 0.3858267716535433,
                    "duration": 0.3125
                },
                {
                    "name": "D3",
                    "midi": 50,
                    "time": 315,
                    "velocity": 0.3858267716535433,
                    "duration": 0.3125
                },
                {
                    "name": "D4",
                    "midi": 62,
                    "time": 315.3125,
                    "velocity": 0.3858267716535433,
                    "duration": 0.3125
                },
                {
                    "name": "D4",
                    "midi": 62,
                    "time": 315.625,
                    "velocity": 0.3858267716535433,
                    "duration": 0.3125
                },
                {
                    "name": "D3",
                    "midi": 50,
                    "time": 315.9375,
                    "velocity": 0.3858267716535433,
                    "duration": 0.3125
                },
                {
                    "name": "D3",
                    "midi": 50,
                    "time": 316.25,
                    "velocity": 0.3858267716535433,
                    "duration": 0.625
                },
                {
                    "name": "A3",
                    "midi": 57,
                    "time": 317.1875,
                    "velocity": 0.3858267716535433,
                    "duration": 0.3125
                },
                {
                    "name": "A3",
                    "midi": 57,
                    "time": 317.5,
                    "velocity": 0.3858267716535433,
                    "duration": 0.3125
                },
                {
                    "name": "A2",
                    "midi": 45,
                    "time": 317.8125,
                    "velocity": 0.3858267716535433,
                    "duration": 0.3125
                },
                {
                    "name": "A2",
                    "midi": 45,
                    "time": 318.125,
                    "velocity": 0.3858267716535433,
                    "duration": 0.3125
                },
                {
                    "name": "C#3",
                    "midi": 49,
                    "time": 318.4375,
                    "velocity": 0.3858267716535433,
                    "duration": 0.3125
                },
                {
                    "name": "D3",
                    "midi": 50,
                    "time": 318.75,
                    "velocity": 0.3858267716535433,
                    "duration": 0.3125
                },
                {
                    "name": "D4",
                    "midi": 62,
                    "time": 319.0625,
                    "velocity": 0.3858267716535433,
                    "duration": 0.3125
                },
                {
                    "name": "D4",
                    "midi": 62,
                    "time": 319.375,
                    "velocity": 0.3858267716535433,
                    "duration": 0.3125
                },
                {
                    "name": "D3",
                    "midi": 50,
                    "time": 319.6875,
                    "velocity": 0.3858267716535433,
                    "duration": 0.3125
                },
                {
                    "name": "D3",
                    "midi": 50,
                    "time": 320,
                    "velocity": 0.3858267716535433,
                    "duration": 0.625
                },
                {
                    "name": "C4",
                    "midi": 60,
                    "time": 320.9375,
                    "velocity": 0.3858267716535433,
                    "duration": 0.3125
                },
                {
                    "name": "C4",
                    "midi": 60,
                    "time": 321.25,
                    "velocity": 0.3858267716535433,
                    "duration": 0.3125
                },
                {
                    "name": "C3",
                    "midi": 48,
                    "time": 321.5625,
                    "velocity": 0.3858267716535433,
                    "duration": 0.3125
                },
                {
                    "name": "C3",
                    "midi": 48,
                    "time": 321.875,
                    "velocity": 0.3858267716535433,
                    "duration": 0.3125
                },
                {
                    "name": "E3",
                    "midi": 52,
                    "time": 322.1875,
                    "velocity": 0.3858267716535433,
                    "duration": 0.3125
                },
                {
                    "name": "F3",
                    "midi": 53,
                    "time": 322.5,
                    "velocity": 0.3858267716535433,
                    "duration": 0.3125
                },
                {
                    "name": "F4",
                    "midi": 65,
                    "time": 322.8125,
                    "velocity": 0.3858267716535433,
                    "duration": 0.3125
                },
                {
                    "name": "F4",
                    "midi": 65,
                    "time": 323.125,
                    "velocity": 0.3858267716535433,
                    "duration": 0.3125
                },
                {
                    "name": "F3",
                    "midi": 53,
                    "time": 323.4375,
                    "velocity": 0.3858267716535433,
                    "duration": 0.3125
                },
                {
                    "name": "F3",
                    "midi": 53,
                    "time": 323.75,
                    "velocity": 0.3858267716535433,
                    "duration": 0.625
                },
                {
                    "name": "C4",
                    "midi": 60,
                    "time": 324.6875,
                    "velocity": 0.3858267716535433,
                    "duration": 0.3125
                },
                {
                    "name": "C4",
                    "midi": 60,
                    "time": 325,
                    "velocity": 0.3858267716535433,
                    "duration": 0.3125
                },
                {
                    "name": "C3",
                    "midi": 48,
                    "time": 325.3125,
                    "velocity": 0.3858267716535433,
                    "duration": 0.3125
                },
                {
                    "name": "A2",
                    "midi": 45,
                    "time": 325.625,
                    "velocity": 0.3858267716535433,
                    "duration": 0.3125
                },
                {
                    "name": "C#3",
                    "midi": 49,
                    "time": 325.9375,
                    "velocity": 0.3858267716535433,
                    "duration": 0.3125
                },
                {
                    "name": "D3",
                    "midi": 50,
                    "time": 326.25,
                    "velocity": 0.3858267716535433,
                    "duration": 0.625
                },
                {
                    "name": "A3",
                    "midi": 57,
                    "time": 326.875,
                    "velocity": 0.3858267716535433,
                    "duration": 0.625
                },
                {
                    "name": "A2",
                    "midi": 45,
                    "time": 327.5,
                    "velocity": 0.3858267716535433,
                    "duration": 0.625
                },
                {
                    "name": "D3",
                    "midi": 50,
                    "time": 328.125,
                    "velocity": 0.3858267716535433,
                    "duration": 1.875
                },
                {
                    "name": "D3",
                    "midi": 50,
                    "time": 330,
                    "velocity": 0.3858267716535433,
                    "duration": 1.25
                },
                {
                    "name": "G2",
                    "midi": 43,
                    "time": 331.25,
                    "velocity": 0.3858267716535433,
                    "duration": 0.625
                },
                {
                    "name": "A2",
                    "midi": 45,
                    "time": 331.875,
                    "velocity": 0.3858267716535433,
                    "duration": 1.25
                },
                {
                    "name": "A2",
                    "midi": 45,
                    "time": 333.125,
                    "velocity": 0.3858267716535433,
                    "duration": 0.625
                },
                {
                    "name": "D3",
                    "midi": 50,
                    "time": 333.75,
                    "velocity": 0.3858267716535433,
                    "duration": 1.25
                },
                {
                    "name": "D3",
                    "midi": 50,
                    "time": 335,
                    "velocity": 0.3858267716535433,
                    "duration": 0.625
                },
                {
                    "name": "C3",
                    "midi": 48,
                    "time": 335.625,
                    "velocity": 0.3858267716535433,
                    "duration": 1.25
                },
                {
                    "name": "C3",
                    "midi": 48,
                    "time": 336.875,
                    "velocity": 0.3858267716535433,
                    "duration": 0.625
                },
                {
                    "name": "F3",
                    "midi": 53,
                    "time": 337.5,
                    "velocity": 0.3858267716535433,
                    "duration": 0.625
                },
                {
                    "name": "A#2",
                    "midi": 46,
                    "time": 338.125,
                    "velocity": 0.3858267716535433,
                    "duration": 1.25
                },
                {
                    "name": "C3",
                    "midi": 48,
                    "time": 339.375,
                    "velocity": 0.3858267716535433,
                    "duration": 0.625
                },
                {
                    "name": "A2",
                    "midi": 45,
                    "time": 340,
                    "velocity": 0.3858267716535433,
                    "duration": 1.25
                },
                {
                    "name": "A#2",
                    "midi": 46,
                    "time": 341.25,
                    "velocity": 0.3858267716535433,
                    "duration": 0.625
                },
                {
                    "name": "G2",
                    "midi": 43,
                    "time": 341.875,
                    "velocity": 0.3858267716535433,
                    "duration": 1.25
                },
                {
                    "name": "A2",
                    "midi": 45,
                    "time": 343.125,
                    "velocity": 0.3858267716535433,
                    "duration": 1.875
                },
                {
                    "name": "D3",
                    "midi": 50,
                    "time": 345,
                    "velocity": 0.3858267716535433,
                    "duration": 1.25
                },
                {
                    "name": "G2",
                    "midi": 43,
                    "time": 346.25,
                    "velocity": 0.3858267716535433,
                    "duration": 0.625
                },
                {
                    "name": "A2",
                    "midi": 45,
                    "time": 346.875,
                    "velocity": 0.3858267716535433,
                    "duration": 1.25
                },
                {
                    "name": "A2",
                    "midi": 45,
                    "time": 348.125,
                    "velocity": 0.3858267716535433,
                    "duration": 0.625
                },
                {
                    "name": "D3",
                    "midi": 50,
                    "time": 348.75,
                    "velocity": 0.3858267716535433,
                    "duration": 1.25
                },
                {
                    "name": "D3",
                    "midi": 50,
                    "time": 350,
                    "velocity": 0.3858267716535433,
                    "duration": 0.625
                },
                {
                    "name": "C3",
                    "midi": 48,
                    "time": 350.625,
                    "velocity": 0.3858267716535433,
                    "duration": 1.25
                },
                {
                    "name": "C3",
                    "midi": 48,
                    "time": 351.875,
                    "velocity": 0.3858267716535433,
                    "duration": 0.625
                },
                {
                    "name": "F3",
                    "midi": 53,
                    "time": 352.5,
                    "velocity": 0.3858267716535433,
                    "duration": 0.625
                },
                {
                    "name": "G3",
                    "midi": 55,
                    "time": 353.125,
                    "velocity": 0.3858267716535433,
                    "duration": 1.25
                },
                {
                    "name": "A3",
                    "midi": 57,
                    "time": 354.375,
                    "velocity": 0.3858267716535433,
                    "duration": 0.9375
                },
                {
                    "name": "G3",
                    "midi": 55,
                    "time": 355.3125,
                    "velocity": 0.3858267716535433,
                    "duration": 0.3125
                },
                {
                    "name": "F3",
                    "midi": 53,
                    "time": 355.625,
                    "velocity": 0.3858267716535433,
                    "duration": 0.3125
                },
                {
                    "name": "E3",
                    "midi": 52,
                    "time": 355.9375,
                    "velocity": 0.3858267716535433,
                    "duration": 0.3125
                },
                {
                    "name": "D3",
                    "midi": 50,
                    "time": 356.25,
                    "velocity": 0.3858267716535433,
                    "duration": 0.3125
                },
                {
                    "name": "G3",
                    "midi": 55,
                    "time": 356.5625,
                    "velocity": 0.3858267716535433,
                    "duration": 0.3125
                },
                {
                    "name": "A3",
                    "midi": 57,
                    "time": 356.875,
                    "velocity": 0.3858267716535433,
                    "duration": 0.625
                },
                {
                    "name": "A2",
                    "midi": 45,
                    "time": 357.5,
                    "velocity": 0.3858267716535433,
                    "duration": 0.625
                },
                {
                    "name": "D3",
                    "midi": 50,
                    "time": 358.125,
                    "velocity": 0.3858267716535433,
                    "duration": 1.875
                },
                {
                    "name": "D4",
                    "midi": 62,
                    "time": 360,
                    "velocity": 0.3858267716535433,
                    "duration": 0.9375
                },
                {
                    "name": "D3",
                    "midi": 50,
                    "time": 360.9375,
                    "velocity": 0.3858267716535433,
                    "duration": 0.9375
                },
                {
                    "name": "A3",
                    "midi": 57,
                    "time": 362.8125,
                    "velocity": 0.3858267716535433,
                    "duration": 0.9375
                },
                {
                    "name": "A2",
                    "midi": 45,
                    "time": 363.75,
                    "velocity": 0.3858267716535433,
                    "duration": 0.9375
                },
                {
                    "name": "D4",
                    "midi": 62,
                    "time": 365.625,
                    "velocity": 0.3858267716535433,
                    "duration": 0.9375
                },
                {
                    "name": "D3",
                    "midi": 50,
                    "time": 366.5625,
                    "velocity": 0.3858267716535433,
                    "duration": 0.9375
                },
                {
                    "name": "C4",
                    "midi": 60,
                    "time": 368.4375,
                    "velocity": 0.3858267716535433,
                    "duration": 0.9375
                },
                {
                    "name": "C3",
                    "midi": 48,
                    "time": 369.375,
                    "velocity": 0.3858267716535433,
                    "duration": 0.9375
                },
                {
                    "name": "F3",
                    "midi": 53,
                    "time": 371.25,
                    "velocity": 0.3858267716535433,
                    "duration": 0.9375
                },
                {
                    "name": "F2",
                    "midi": 41,
                    "time": 372.1875,
                    "velocity": 0.3858267716535433,
                    "duration": 0.9375
                },
                {
                    "name": "C3",
                    "midi": 48,
                    "time": 374.0625,
                    "velocity": 0.3858267716535433,
                    "duration": 0.9375
                },
                {
                    "name": "C#3",
                    "midi": 49,
                    "time": 375,
                    "velocity": 0.3858267716535433,
                    "duration": 0.9375
                },
                {
                    "name": "A2",
                    "midi": 45,
                    "time": 375.9375,
                    "velocity": 0.3858267716535433,
                    "duration": 0.9375
                },
                {
                    "name": "D3",
                    "midi": 50,
                    "time": 376.875,
                    "velocity": 0.3858267716535433,
                    "duration": 0.9375
                },
                {
                    "name": "A#2",
                    "midi": 46,
                    "time": 377.8125,
                    "velocity": 0.3858267716535433,
                    "duration": 0.9375
                },
                {
                    "name": "G2",
                    "midi": 43,
                    "time": 378.75,
                    "velocity": 0.3858267716535433,
                    "duration": 0.9375
                },
                {
                    "name": "A2",
                    "midi": 45,
                    "time": 379.6875,
                    "velocity": 0.3858267716535433,
                    "duration": 0.9375
                },
                {
                    "name": "A3",
                    "midi": 57,
                    "time": 380.625,
                    "velocity": 0.3858267716535433,
                    "duration": 0.9375
                },
                {
                    "name": "D3",
                    "midi": 50,
                    "time": 382.5,
                    "velocity": 0.3858267716535433,
                    "duration": 0.9375
                },
                {
                    "name": "D4",
                    "midi": 62,
                    "time": 383.4375,
                    "velocity": 0.3858267716535433,
                    "duration": 0.9375
                },
                {
                    "name": "A2",
                    "midi": 45,
                    "time": 385.3125,
                    "velocity": 0.3858267716535433,
                    "duration": 0.9375
                },
                {
                    "name": "A3",
                    "midi": 57,
                    "time": 386.25,
                    "velocity": 0.3858267716535433,
                    "duration": 0.9375
                },
                {
                    "name": "D3",
                    "midi": 50,
                    "time": 388.125,
                    "velocity": 0.3858267716535433,
                    "duration": 0.9375
                },
                {
                    "name": "D4",
                    "midi": 62,
                    "time": 389.0625,
                    "velocity": 0.3858267716535433,
                    "duration": 0.9375
                },
                {
                    "name": "C3",
                    "midi": 48,
                    "time": 390.9375,
                    "velocity": 0.3858267716535433,
                    "duration": 0.9375
                },
                {
                    "name": "C4",
                    "midi": 60,
                    "time": 391.875,
                    "velocity": 0.3858267716535433,
                    "duration": 0.9375
                },
                {
                    "name": "F2",
                    "midi": 41,
                    "time": 393.75,
                    "velocity": 0.3858267716535433,
                    "duration": 0.9375
                },
                {
                    "name": "F3",
                    "midi": 53,
                    "time": 394.6875,
                    "velocity": 0.3858267716535433,
                    "duration": 0.9375
                },
                {
                    "name": "C3",
                    "midi": 48,
                    "time": 396.5625,
                    "velocity": 0.3858267716535433,
                    "duration": 0.9375
                },
                {
                    "name": "C#3",
                    "midi": 49,
                    "time": 397.5,
                    "velocity": 0.3858267716535433,
                    "duration": 0.9375
                },
                {
                    "name": "A2",
                    "midi": 45,
                    "time": 398.4375,
                    "velocity": 0.3858267716535433,
                    "duration": 0.9375
                },
                {
                    "name": "D3",
                    "midi": 50,
                    "time": 399.375,
                    "velocity": 0.3858267716535433,
                    "duration": 0.625
                },
                {
                    "name": "G3",
                    "midi": 55,
                    "time": 400,
                    "velocity": 0.3858267716535433,
                    "duration": 0.3125
                },
                {
                    "name": "A3",
                    "midi": 57,
                    "time": 400.3125,
                    "velocity": 0.3858267716535433,
                    "duration": 0.9375
                },
                {
                    "name": "A2",
                    "midi": 45,
                    "time": 401.25,
                    "velocity": 0.3858267716535433,
                    "duration": 0.9375
                },
                {
                    "name": "D3",
                    "midi": 50,
                    "time": 402.1875,
                    "velocity": 0.3858267716535433,
                    "duration": 2.8125
                },
                {
                    "name": "D4",
                    "midi": 62,
                    "time": 405,
                    "velocity": 0.3858267716535433,
                    "duration": 0.3125
                },
                {
                    "name": "D3",
                    "midi": 50,
                    "time": 405.3125,
                    "velocity": 0.3858267716535433,
                    "duration": 0.3125
                },
                {
                    "name": "E3",
                    "midi": 52,
                    "time": 405.625,
                    "velocity": 0.3858267716535433,
                    "duration": 0.3125
                },
                {
                    "name": "F3",
                    "midi": 53,
                    "time": 405.9375,
                    "velocity": 0.3858267716535433,
                    "duration": 0.3125
                },
                {
                    "name": "G3",
                    "midi": 55,
                    "time": 406.25,
                    "velocity": 0.3858267716535433,
                    "duration": 0.3125
                },
                {
                    "name": "A3",
                    "midi": 57,
                    "time": 406.5625,
                    "velocity": 0.3858267716535433,
                    "duration": 0.3125
                },
                {
                    "name": "F3",
                    "midi": 53,
                    "time": 406.875,
                    "velocity": 0.3858267716535433,
                    "duration": 0.3125
                },
                {
                    "name": "E3",
                    "midi": 52,
                    "time": 407.1875,
                    "velocity": 0.3858267716535433,
                    "duration": 0.3125
                },
                {
                    "name": "D3",
                    "midi": 50,
                    "time": 407.5,
                    "velocity": 0.3858267716535433,
                    "duration": 0.3125
                },
                {
                    "name": "A3",
                    "midi": 57,
                    "time": 407.8125,
                    "velocity": 0.3858267716535433,
                    "duration": 0.3125
                },
                {
                    "name": "A2",
                    "midi": 45,
                    "time": 408.125,
                    "velocity": 0.3858267716535433,
                    "duration": 0.3125
                },
                {
                    "name": "B2",
                    "midi": 47,
                    "time": 408.4375,
                    "velocity": 0.3858267716535433,
                    "duration": 0.3125
                },
                {
                    "name": "C#3",
                    "midi": 49,
                    "time": 408.75,
                    "velocity": 0.3858267716535433,
                    "duration": 0.3125
                },
                {
                    "name": "D3",
                    "midi": 50,
                    "time": 409.0625,
                    "velocity": 0.3858267716535433,
                    "duration": 0.3125
                },
                {
                    "name": "E3",
                    "midi": 52,
                    "time": 409.375,
                    "velocity": 0.3858267716535433,
                    "duration": 0.3125
                },
                {
                    "name": "C#3",
                    "midi": 49,
                    "time": 409.6875,
                    "velocity": 0.3858267716535433,
                    "duration": 0.3125
                },
                {
                    "name": "B2",
                    "midi": 47,
                    "time": 410,
                    "velocity": 0.3858267716535433,
                    "duration": 0.3125
                },
                {
                    "name": "A2",
                    "midi": 45,
                    "time": 410.3125,
                    "velocity": 0.3858267716535433,
                    "duration": 0.3125
                },
                {
                    "name": "D4",
                    "midi": 62,
                    "time": 410.625,
                    "velocity": 0.3858267716535433,
                    "duration": 0.3125
                },
                {
                    "name": "D3",
                    "midi": 50,
                    "time": 410.9375,
                    "velocity": 0.3858267716535433,
                    "duration": 0.3125
                },
                {
                    "name": "E3",
                    "midi": 52,
                    "time": 411.25,
                    "velocity": 0.3858267716535433,
                    "duration": 0.3125
                },
                {
                    "name": "F3",
                    "midi": 53,
                    "time": 411.5625,
                    "velocity": 0.3858267716535433,
                    "duration": 0.3125
                },
                {
                    "name": "G3",
                    "midi": 55,
                    "time": 411.875,
                    "velocity": 0.3858267716535433,
                    "duration": 0.3125
                },
                {
                    "name": "A3",
                    "midi": 57,
                    "time": 412.1875,
                    "velocity": 0.3858267716535433,
                    "duration": 0.3125
                },
                {
                    "name": "F3",
                    "midi": 53,
                    "time": 412.5,
                    "velocity": 0.3858267716535433,
                    "duration": 0.3125
                },
                {
                    "name": "E3",
                    "midi": 52,
                    "time": 412.8125,
                    "velocity": 0.3858267716535433,
                    "duration": 0.3125
                },
                {
                    "name": "D3",
                    "midi": 50,
                    "time": 413.125,
                    "velocity": 0.3858267716535433,
                    "duration": 0.3125
                },
                {
                    "name": "C4",
                    "midi": 60,
                    "time": 413.4375,
                    "velocity": 0.3858267716535433,
                    "duration": 0.3125
                },
                {
                    "name": "C3",
                    "midi": 48,
                    "time": 413.75,
                    "velocity": 0.3858267716535433,
                    "duration": 0.3125
                },
                {
                    "name": "D3",
                    "midi": 50,
                    "time": 414.0625,
                    "velocity": 0.3858267716535433,
                    "duration": 0.3125
                },
                {
                    "name": "E3",
                    "midi": 52,
                    "time": 414.375,
                    "velocity": 0.3858267716535433,
                    "duration": 0.3125
                },
                {
                    "name": "F3",
                    "midi": 53,
                    "time": 414.6875,
                    "velocity": 0.3858267716535433,
                    "duration": 0.3125
                },
                {
                    "name": "G3",
                    "midi": 55,
                    "time": 415,
                    "velocity": 0.3858267716535433,
                    "duration": 0.3125
                },
                {
                    "name": "E3",
                    "midi": 52,
                    "time": 415.3125,
                    "velocity": 0.3858267716535433,
                    "duration": 0.3125
                },
                {
                    "name": "D3",
                    "midi": 50,
                    "time": 415.625,
                    "velocity": 0.3858267716535433,
                    "duration": 0.3125
                },
                {
                    "name": "C3",
                    "midi": 48,
                    "time": 415.9375,
                    "velocity": 0.3858267716535433,
                    "duration": 0.3125
                },
                {
                    "name": "F4",
                    "midi": 65,
                    "time": 416.25,
                    "velocity": 0.3858267716535433,
                    "duration": 0.3125
                },
                {
                    "name": "F3",
                    "midi": 53,
                    "time": 416.5625,
                    "velocity": 0.3858267716535433,
                    "duration": 0.3125
                },
                {
                    "name": "G3",
                    "midi": 55,
                    "time": 416.875,
                    "velocity": 0.3858267716535433,
                    "duration": 0.3125
                },
                {
                    "name": "A3",
                    "midi": 57,
                    "time": 417.1875,
                    "velocity": 0.3858267716535433,
                    "duration": 0.3125
                },
                {
                    "name": "A#3",
                    "midi": 58,
                    "time": 417.5,
                    "velocity": 0.3858267716535433,
                    "duration": 0.3125
                },
                {
                    "name": "C4",
                    "midi": 60,
                    "time": 417.8125,
                    "velocity": 0.3858267716535433,
                    "duration": 0.3125
                },
                {
                    "name": "A3",
                    "midi": 57,
                    "time": 418.125,
                    "velocity": 0.3858267716535433,
                    "duration": 0.3125
                },
                {
                    "name": "G3",
                    "midi": 55,
                    "time": 418.4375,
                    "velocity": 0.3858267716535433,
                    "duration": 0.3125
                },
                {
                    "name": "F3",
                    "midi": 53,
                    "time": 418.75,
                    "velocity": 0.3858267716535433,
                    "duration": 0.3125
                },
                {
                    "name": "C4",
                    "midi": 60,
                    "time": 419.0625,
                    "velocity": 0.3858267716535433,
                    "duration": 0.3125
                },
                {
                    "name": "C3",
                    "midi": 48,
                    "time": 419.375,
                    "velocity": 0.3858267716535433,
                    "duration": 0.3125
                },
                {
                    "name": "D3",
                    "midi": 50,
                    "time": 419.6875,
                    "velocity": 0.3858267716535433,
                    "duration": 0.3125
                },
                {
                    "name": "E3",
                    "midi": 52,
                    "time": 420,
                    "velocity": 0.3858267716535433,
                    "duration": 0.3125
                },
                {
                    "name": "F3",
                    "midi": 53,
                    "time": 420.3125,
                    "velocity": 0.3858267716535433,
                    "duration": 0.3125
                },
                {
                    "name": "G3",
                    "midi": 55,
                    "time": 420.625,
                    "velocity": 0.3858267716535433,
                    "duration": 0.3125
                },
                {
                    "name": "E3",
                    "midi": 52,
                    "time": 420.9375,
                    "velocity": 0.3858267716535433,
                    "duration": 0.3125
                },
                {
                    "name": "D3",
                    "midi": 50,
                    "time": 421.25,
                    "velocity": 0.3858267716535433,
                    "duration": 0.3125
                },
                {
                    "name": "C3",
                    "midi": 48,
                    "time": 421.5625,
                    "velocity": 0.3858267716535433,
                    "duration": 0.3125
                },
                {
                    "name": "D4",
                    "midi": 62,
                    "time": 421.875,
                    "velocity": 0.3858267716535433,
                    "duration": 0.3125
                },
                {
                    "name": "D3",
                    "midi": 50,
                    "time": 422.1875,
                    "velocity": 0.3858267716535433,
                    "duration": 0.3125
                },
                {
                    "name": "E3",
                    "midi": 52,
                    "time": 422.5,
                    "velocity": 0.3858267716535433,
                    "duration": 0.3125
                },
                {
                    "name": "F3",
                    "midi": 53,
                    "time": 422.8125,
                    "velocity": 0.3858267716535433,
                    "duration": 0.3125
                },
                {
                    "name": "G3",
                    "midi": 55,
                    "time": 423.125,
                    "velocity": 0.3858267716535433,
                    "duration": 0.3125
                },
                {
                    "name": "A3",
                    "midi": 57,
                    "time": 423.4375,
                    "velocity": 0.3858267716535433,
                    "duration": 0.3125
                },
                {
                    "name": "F3",
                    "midi": 53,
                    "time": 423.75,
                    "velocity": 0.3858267716535433,
                    "duration": 0.3125
                },
                {
                    "name": "E3",
                    "midi": 52,
                    "time": 424.0625,
                    "velocity": 0.3858267716535433,
                    "duration": 0.3125
                },
                {
                    "name": "D3",
                    "midi": 50,
                    "time": 424.375,
                    "velocity": 0.3858267716535433,
                    "duration": 0.3125
                },
                {
                    "name": "A3",
                    "midi": 57,
                    "time": 424.6875,
                    "velocity": 0.3858267716535433,
                    "duration": 0.3125
                },
                {
                    "name": "A2",
                    "midi": 45,
                    "time": 425,
                    "velocity": 0.3858267716535433,
                    "duration": 0.3125
                },
                {
                    "name": "B2",
                    "midi": 47,
                    "time": 425.3125,
                    "velocity": 0.3858267716535433,
                    "duration": 0.3125
                },
                {
                    "name": "C#3",
                    "midi": 49,
                    "time": 425.625,
                    "velocity": 0.3858267716535433,
                    "duration": 0.3125
                },
                {
                    "name": "D3",
                    "midi": 50,
                    "time": 425.9375,
                    "velocity": 0.3858267716535433,
                    "duration": 0.3125
                },
                {
                    "name": "E3",
                    "midi": 52,
                    "time": 426.25,
                    "velocity": 0.3858267716535433,
                    "duration": 0.3125
                },
                {
                    "name": "C#3",
                    "midi": 49,
                    "time": 426.5625,
                    "velocity": 0.3858267716535433,
                    "duration": 0.3125
                },
                {
                    "name": "B2",
                    "midi": 47,
                    "time": 426.875,
                    "velocity": 0.3858267716535433,
                    "duration": 0.3125
                },
                {
                    "name": "A2",
                    "midi": 45,
                    "time": 427.1875,
                    "velocity": 0.3858267716535433,
                    "duration": 0.3125
                },
                {
                    "name": "D4",
                    "midi": 62,
                    "time": 427.5,
                    "velocity": 0.3858267716535433,
                    "duration": 0.3125
                },
                {
                    "name": "D3",
                    "midi": 50,
                    "time": 427.8125,
                    "velocity": 0.3858267716535433,
                    "duration": 0.3125
                },
                {
                    "name": "E3",
                    "midi": 52,
                    "time": 428.125,
                    "velocity": 0.3858267716535433,
                    "duration": 0.3125
                },
                {
                    "name": "F3",
                    "midi": 53,
                    "time": 428.4375,
                    "velocity": 0.3858267716535433,
                    "duration": 0.3125
                },
                {
                    "name": "G3",
                    "midi": 55,
                    "time": 428.75,
                    "velocity": 0.3858267716535433,
                    "duration": 0.3125
                },
                {
                    "name": "A3",
                    "midi": 57,
                    "time": 429.0625,
                    "velocity": 0.3858267716535433,
                    "duration": 0.3125
                },
                {
                    "name": "F3",
                    "midi": 53,
                    "time": 429.375,
                    "velocity": 0.3858267716535433,
                    "duration": 0.3125
                },
                {
                    "name": "E3",
                    "midi": 52,
                    "time": 429.6875,
                    "velocity": 0.3858267716535433,
                    "duration": 0.3125
                },
                {
                    "name": "D3",
                    "midi": 50,
                    "time": 430,
                    "velocity": 0.3858267716535433,
                    "duration": 0.3125
                },
                {
                    "name": "A3",
                    "midi": 57,
                    "time": 430.3125,
                    "velocity": 0.3858267716535433,
                    "duration": 0.3125
                },
                {
                    "name": "A2",
                    "midi": 45,
                    "time": 430.625,
                    "velocity": 0.3858267716535433,
                    "duration": 0.3125
                },
                {
                    "name": "B2",
                    "midi": 47,
                    "time": 430.9375,
                    "velocity": 0.3858267716535433,
                    "duration": 0.3125
                },
                {
                    "name": "C#3",
                    "midi": 49,
                    "time": 431.25,
                    "velocity": 0.3858267716535433,
                    "duration": 0.3125
                },
                {
                    "name": "D3",
                    "midi": 50,
                    "time": 431.5625,
                    "velocity": 0.3858267716535433,
                    "duration": 0.3125
                },
                {
                    "name": "E3",
                    "midi": 52,
                    "time": 431.875,
                    "velocity": 0.3858267716535433,
                    "duration": 0.3125
                },
                {
                    "name": "C#3",
                    "midi": 49,
                    "time": 432.1875,
                    "velocity": 0.3858267716535433,
                    "duration": 0.3125
                },
                {
                    "name": "B2",
                    "midi": 47,
                    "time": 432.5,
                    "velocity": 0.3858267716535433,
                    "duration": 0.3125
                },
                {
                    "name": "A2",
                    "midi": 45,
                    "time": 432.8125,
                    "velocity": 0.3858267716535433,
                    "duration": 0.3125
                },
                {
                    "name": "D4",
                    "midi": 62,
                    "time": 433.125,
                    "velocity": 0.3858267716535433,
                    "duration": 0.3125
                },
                {
                    "name": "D3",
                    "midi": 50,
                    "time": 433.4375,
                    "velocity": 0.3858267716535433,
                    "duration": 0.3125
                },
                {
                    "name": "E3",
                    "midi": 52,
                    "time": 433.75,
                    "velocity": 0.3858267716535433,
                    "duration": 0.3125
                },
                {
                    "name": "F3",
                    "midi": 53,
                    "time": 434.0625,
                    "velocity": 0.3858267716535433,
                    "duration": 0.3125
                },
                {
                    "name": "G3",
                    "midi": 55,
                    "time": 434.375,
                    "velocity": 0.3858267716535433,
                    "duration": 0.3125
                },
                {
                    "name": "A3",
                    "midi": 57,
                    "time": 434.6875,
                    "velocity": 0.3858267716535433,
                    "duration": 0.3125
                },
                {
                    "name": "F3",
                    "midi": 53,
                    "time": 435,
                    "velocity": 0.3858267716535433,
                    "duration": 0.3125
                },
                {
                    "name": "E3",
                    "midi": 52,
                    "time": 435.3125,
                    "velocity": 0.3858267716535433,
                    "duration": 0.3125
                },
                {
                    "name": "D3",
                    "midi": 50,
                    "time": 435.625,
                    "velocity": 0.3858267716535433,
                    "duration": 0.3125
                },
                {
                    "name": "C4",
                    "midi": 60,
                    "time": 435.9375,
                    "velocity": 0.3858267716535433,
                    "duration": 0.3125
                },
                {
                    "name": "C3",
                    "midi": 48,
                    "time": 436.25,
                    "velocity": 0.3858267716535433,
                    "duration": 0.3125
                },
                {
                    "name": "D3",
                    "midi": 50,
                    "time": 436.5625,
                    "velocity": 0.3858267716535433,
                    "duration": 0.3125
                },
                {
                    "name": "E3",
                    "midi": 52,
                    "time": 436.875,
                    "velocity": 0.3858267716535433,
                    "duration": 0.3125
                },
                {
                    "name": "F3",
                    "midi": 53,
                    "time": 437.1875,
                    "velocity": 0.3858267716535433,
                    "duration": 0.3125
                },
                {
                    "name": "G3",
                    "midi": 55,
                    "time": 437.5,
                    "velocity": 0.3858267716535433,
                    "duration": 0.3125
                },
                {
                    "name": "E3",
                    "midi": 52,
                    "time": 437.8125,
                    "velocity": 0.3858267716535433,
                    "duration": 0.3125
                },
                {
                    "name": "D3",
                    "midi": 50,
                    "time": 438.125,
                    "velocity": 0.3858267716535433,
                    "duration": 0.3125
                },
                {
                    "name": "C3",
                    "midi": 48,
                    "time": 438.4375,
                    "velocity": 0.3858267716535433,
                    "duration": 0.3125
                },
                {
                    "name": "F4",
                    "midi": 65,
                    "time": 438.75,
                    "velocity": 0.3858267716535433,
                    "duration": 0.3125
                },
                {
                    "name": "F3",
                    "midi": 53,
                    "time": 439.0625,
                    "velocity": 0.3858267716535433,
                    "duration": 0.3125
                },
                {
                    "name": "G3",
                    "midi": 55,
                    "time": 439.375,
                    "velocity": 0.3858267716535433,
                    "duration": 0.3125
                },
                {
                    "name": "A3",
                    "midi": 57,
                    "time": 439.6875,
                    "velocity": 0.3858267716535433,
                    "duration": 0.3125
                },
                {
                    "name": "A#3",
                    "midi": 58,
                    "time": 440,
                    "velocity": 0.3858267716535433,
                    "duration": 0.3125
                },
                {
                    "name": "C4",
                    "midi": 60,
                    "time": 440.3125,
                    "velocity": 0.3858267716535433,
                    "duration": 0.3125
                },
                {
                    "name": "A3",
                    "midi": 57,
                    "time": 440.625,
                    "velocity": 0.3858267716535433,
                    "duration": 0.3125
                },
                {
                    "name": "G3",
                    "midi": 55,
                    "time": 440.9375,
                    "velocity": 0.3858267716535433,
                    "duration": 0.3125
                },
                {
                    "name": "F3",
                    "midi": 53,
                    "time": 441.25,
                    "velocity": 0.3858267716535433,
                    "duration": 0.3125
                },
                {
                    "name": "C4",
                    "midi": 60,
                    "time": 441.5625,
                    "velocity": 0.3858267716535433,
                    "duration": 0.3125
                },
                {
                    "name": "C3",
                    "midi": 48,
                    "time": 441.875,
                    "velocity": 0.3858267716535433,
                    "duration": 0.3125
                },
                {
                    "name": "D3",
                    "midi": 50,
                    "time": 442.1875,
                    "velocity": 0.3858267716535433,
                    "duration": 0.3125
                },
                {
                    "name": "E3",
                    "midi": 52,
                    "time": 442.5,
                    "velocity": 0.3858267716535433,
                    "duration": 0.3125
                },
                {
                    "name": "F3",
                    "midi": 53,
                    "time": 442.8125,
                    "velocity": 0.3858267716535433,
                    "duration": 0.3125
                },
                {
                    "name": "G3",
                    "midi": 55,
                    "time": 443.125,
                    "velocity": 0.3858267716535433,
                    "duration": 0.3125
                },
                {
                    "name": "A2",
                    "midi": 45,
                    "time": 443.4375,
                    "velocity": 0.3858267716535433,
                    "duration": 0.3125
                },
                {
                    "name": "B2",
                    "midi": 47,
                    "time": 443.75,
                    "velocity": 0.3858267716535433,
                    "duration": 0.3125
                },
                {
                    "name": "C#3",
                    "midi": 49,
                    "time": 444.0625,
                    "velocity": 0.3858267716535433,
                    "duration": 0.3125
                },
                {
                    "name": "D3",
                    "midi": 50,
                    "time": 444.375,
                    "velocity": 0.3858267716535433,
                    "duration": 0.3125
                },
                {
                    "name": "E3",
                    "midi": 52,
                    "time": 444.6875,
                    "velocity": 0.3858267716535433,
                    "duration": 0.3125
                },
                {
                    "name": "F3",
                    "midi": 53,
                    "time": 445,
                    "velocity": 0.3858267716535433,
                    "duration": 0.3125
                },
                {
                    "name": "G3",
                    "midi": 55,
                    "time": 445.3125,
                    "velocity": 0.3858267716535433,
                    "duration": 0.3125
                },
                {
                    "name": "A3",
                    "midi": 57,
                    "time": 445.625,
                    "velocity": 0.3858267716535433,
                    "duration": 0.3125
                },
                {
                    "name": "A#3",
                    "midi": 58,
                    "time": 445.9375,
                    "velocity": 0.3858267716535433,
                    "duration": 0.3125
                },
                {
                    "name": "A3",
                    "midi": 57,
                    "time": 446.25,
                    "velocity": 0.3858267716535433,
                    "duration": 0.625
                },
                {
                    "name": "A2",
                    "midi": 45,
                    "time": 446.875,
                    "velocity": 0.3858267716535433,
                    "duration": 0.3125
                },
                {
                    "name": "D3",
                    "midi": 50,
                    "time": 447.1875,
                    "velocity": 0.3858267716535433,
                    "duration": 2.8125
                },
                {
                    "name": "D3",
                    "midi": 50,
                    "time": 450,
                    "velocity": 0.3858267716535433,
                    "duration": 0.625
                },
                {
                    "name": "D3",
                    "midi": 50,
                    "time": 450.625,
                    "velocity": 0.3858267716535433,
                    "duration": 0.3125
                },
                {
                    "name": "D3",
                    "midi": 50,
                    "time": 450.9375,
                    "velocity": 0.3858267716535433,
                    "duration": 0.625
                },
                {
                    "name": "D3",
                    "midi": 50,
                    "time": 451.5625,
                    "velocity": 0.3858267716535433,
                    "duration": 0.3125
                },
                {
                    "name": "A2",
                    "midi": 45,
                    "time": 451.875,
                    "velocity": 0.3858267716535433,
                    "duration": 0.625
                },
                {
                    "name": "A2",
                    "midi": 45,
                    "time": 452.5,
                    "velocity": 0.3858267716535433,
                    "duration": 0.3125
                },
                {
                    "name": "A2",
                    "midi": 45,
                    "time": 452.8125,
                    "velocity": 0.3858267716535433,
                    "duration": 0.625
                },
                {
                    "name": "A2",
                    "midi": 45,
                    "time": 453.4375,
                    "velocity": 0.3858267716535433,
                    "duration": 0.3125
                },
                {
                    "name": "D3",
                    "midi": 50,
                    "time": 453.75,
                    "velocity": 0.3858267716535433,
                    "duration": 0.625
                },
                {
                    "name": "D3",
                    "midi": 50,
                    "time": 454.375,
                    "velocity": 0.3858267716535433,
                    "duration": 0.3125
                },
                {
                    "name": "D3",
                    "midi": 50,
                    "time": 454.6875,
                    "velocity": 0.3858267716535433,
                    "duration": 0.625
                },
                {
                    "name": "D3",
                    "midi": 50,
                    "time": 455.3125,
                    "velocity": 0.3858267716535433,
                    "duration": 0.3125
                },
                {
                    "name": "C3",
                    "midi": 48,
                    "time": 455.625,
                    "velocity": 0.3858267716535433,
                    "duration": 0.625
                },
                {
                    "name": "C3",
                    "midi": 48,
                    "time": 456.25,
                    "velocity": 0.3858267716535433,
                    "duration": 0.3125
                },
                {
                    "name": "C3",
                    "midi": 48,
                    "time": 456.5625,
                    "velocity": 0.3858267716535433,
                    "duration": 0.625
                },
                {
                    "name": "C3",
                    "midi": 48,
                    "time": 457.1875,
                    "velocity": 0.3858267716535433,
                    "duration": 0.3125
                },
                {
                    "name": "F3",
                    "midi": 53,
                    "time": 457.5,
                    "velocity": 0.3858267716535433,
                    "duration": 0.625
                },
                {
                    "name": "F3",
                    "midi": 53,
                    "time": 458.125,
                    "velocity": 0.3858267716535433,
                    "duration": 0.3125
                },
                {
                    "name": "F3",
                    "midi": 53,
                    "time": 458.4375,
                    "velocity": 0.3858267716535433,
                    "duration": 0.625
                },
                {
                    "name": "F3",
                    "midi": 53,
                    "time": 459.0625,
                    "velocity": 0.3858267716535433,
                    "duration": 0.3125
                },
                {
                    "name": "C3",
                    "midi": 48,
                    "time": 459.375,
                    "velocity": 0.3858267716535433,
                    "duration": 0.625
                },
                {
                    "name": "C#3",
                    "midi": 49,
                    "time": 460,
                    "velocity": 0.3858267716535433,
                    "duration": 0.3125
                },
                {
                    "name": "C#3",
                    "midi": 49,
                    "time": 460.3125,
                    "velocity": 0.3858267716535433,
                    "duration": 0.625
                },
                {
                    "name": "A2",
                    "midi": 45,
                    "time": 460.9375,
                    "velocity": 0.3858267716535433,
                    "duration": 0.3125
                },
                {
                    "name": "D3",
                    "midi": 50,
                    "time": 461.25,
                    "velocity": 0.3858267716535433,
                    "duration": 0.625
                },
                {
                    "name": "D3",
                    "midi": 50,
                    "time": 461.875,
                    "velocity": 0.3858267716535433,
                    "duration": 0.3125
                },
                {
                    "name": "G2",
                    "midi": 43,
                    "time": 462.1875,
                    "velocity": 0.3858267716535433,
                    "duration": 0.625
                },
                {
                    "name": "G2",
                    "midi": 43,
                    "time": 462.8125,
                    "velocity": 0.3858267716535433,
                    "duration": 0.3125
                },
                {
                    "name": "A2",
                    "midi": 45,
                    "time": 463.125,
                    "velocity": 0.3858267716535433,
                    "duration": 0.625
                },
                {
                    "name": "A2",
                    "midi": 45,
                    "time": 463.75,
                    "velocity": 0.3858267716535433,
                    "duration": 0.3125
                },
                {
                    "name": "A2",
                    "midi": 45,
                    "time": 464.0625,
                    "velocity": 0.3858267716535433,
                    "duration": 0.625
                },
                {
                    "name": "A2",
                    "midi": 45,
                    "time": 464.6875,
                    "velocity": 0.3858267716535433,
                    "duration": 0.3125
                },
                {
                    "name": "D3",
                    "midi": 50,
                    "time": 465,
                    "velocity": 0.3858267716535433,
                    "duration": 0.625
                },
                {
                    "name": "D3",
                    "midi": 50,
                    "time": 465.625,
                    "velocity": 0.3858267716535433,
                    "duration": 0.3125
                },
                {
                    "name": "D3",
                    "midi": 50,
                    "time": 465.9375,
                    "velocity": 0.3858267716535433,
                    "duration": 0.625
                },
                {
                    "name": "D3",
                    "midi": 50,
                    "time": 466.5625,
                    "velocity": 0.3858267716535433,
                    "duration": 0.3125
                },
                {
                    "name": "A2",
                    "midi": 45,
                    "time": 466.875,
                    "velocity": 0.3858267716535433,
                    "duration": 0.625
                },
                {
                    "name": "A2",
                    "midi": 45,
                    "time": 467.5,
                    "velocity": 0.3858267716535433,
                    "duration": 0.3125
                },
                {
                    "name": "A2",
                    "midi": 45,
                    "time": 467.8125,
                    "velocity": 0.3858267716535433,
                    "duration": 0.625
                },
                {
                    "name": "A2",
                    "midi": 45,
                    "time": 468.4375,
                    "velocity": 0.3858267716535433,
                    "duration": 0.3125
                },
                {
                    "name": "D3",
                    "midi": 50,
                    "time": 468.75,
                    "velocity": 0.3858267716535433,
                    "duration": 0.625
                },
                {
                    "name": "D3",
                    "midi": 50,
                    "time": 469.375,
                    "velocity": 0.3858267716535433,
                    "duration": 0.3125
                },
                {
                    "name": "D3",
                    "midi": 50,
                    "time": 469.6875,
                    "velocity": 0.3858267716535433,
                    "duration": 0.625
                },
                {
                    "name": "D3",
                    "midi": 50,
                    "time": 470.3125,
                    "velocity": 0.3858267716535433,
                    "duration": 0.3125
                },
                {
                    "name": "C3",
                    "midi": 48,
                    "time": 470.625,
                    "velocity": 0.3858267716535433,
                    "duration": 0.625
                },
                {
                    "name": "C3",
                    "midi": 48,
                    "time": 471.25,
                    "velocity": 0.3858267716535433,
                    "duration": 0.3125
                },
                {
                    "name": "C3",
                    "midi": 48,
                    "time": 471.5625,
                    "velocity": 0.3858267716535433,
                    "duration": 0.625
                },
                {
                    "name": "C3",
                    "midi": 48,
                    "time": 472.1875,
                    "velocity": 0.3858267716535433,
                    "duration": 0.3125
                },
                {
                    "name": "F3",
                    "midi": 53,
                    "time": 472.5,
                    "velocity": 0.3858267716535433,
                    "duration": 0.625
                },
                {
                    "name": "F3",
                    "midi": 53,
                    "time": 473.125,
                    "velocity": 0.3858267716535433,
                    "duration": 0.3125
                },
                {
                    "name": "F3",
                    "midi": 53,
                    "time": 473.4375,
                    "velocity": 0.3858267716535433,
                    "duration": 0.625
                },
                {
                    "name": "F3",
                    "midi": 53,
                    "time": 474.0625,
                    "velocity": 0.3858267716535433,
                    "duration": 0.3125
                },
                {
                    "name": "C3",
                    "midi": 48,
                    "time": 474.375,
                    "velocity": 0.3858267716535433,
                    "duration": 0.625
                },
                {
                    "name": "C3",
                    "midi": 48,
                    "time": 475,
                    "velocity": 0.3858267716535433,
                    "duration": 0.3125
                },
                {
                    "name": "C#3",
                    "midi": 49,
                    "time": 475.3125,
                    "velocity": 0.3858267716535433,
                    "duration": 0.3125
                },
                {
                    "name": "D3",
                    "midi": 50,
                    "time": 475.625,
                    "velocity": 0.3858267716535433,
                    "duration": 0.3125
                },
                {
                    "name": "E3",
                    "midi": 52,
                    "time": 475.9375,
                    "velocity": 0.3858267716535433,
                    "duration": 0.3125
                },
                {
                    "name": "D3",
                    "midi": 50,
                    "time": 476.25,
                    "velocity": 0.3858267716535433,
                    "duration": 0.625
                },
                {
                    "name": "G3",
                    "midi": 55,
                    "time": 476.875,
                    "velocity": 0.3858267716535433,
                    "duration": 0.3125
                },
                {
                    "name": "A3",
                    "midi": 57,
                    "time": 477.1875,
                    "velocity": 0.3858267716535433,
                    "duration": 0.625
                },
                {
                    "name": "A2",
                    "midi": 45,
                    "time": 477.8125,
                    "velocity": 0.3858267716535433,
                    "duration": 0.3125
                },
                {
                    "name": "D3",
                    "midi": 50,
                    "time": 478.125,
                    "velocity": 0.3858267716535433,
                    "duration": 1.875
                },
                {
                    "name": "D3",
                    "midi": 50,
                    "time": 480,
                    "velocity": 0.3858267716535433,
                    "duration": 0.625
                },
                {
                    "name": "D3",
                    "midi": 50,
                    "time": 480.625,
                    "velocity": 0.3858267716535433,
                    "duration": 0.625
                },
                {
                    "name": "D3",
                    "midi": 50,
                    "time": 481.25,
                    "velocity": 0.3858267716535433,
                    "duration": 0.625
                },
                {
                    "name": "A2",
                    "midi": 45,
                    "time": 481.875,
                    "velocity": 0.3858267716535433,
                    "duration": 0.625
                },
                {
                    "name": "A2",
                    "midi": 45,
                    "time": 482.5,
                    "velocity": 0.3858267716535433,
                    "duration": 0.625
                },
                {
                    "name": "A2",
                    "midi": 45,
                    "time": 483.125,
                    "velocity": 0.3858267716535433,
                    "duration": 0.625
                },
                {
                    "name": "D3",
                    "midi": 50,
                    "time": 483.75,
                    "velocity": 0.3858267716535433,
                    "duration": 0.625
                },
                {
                    "name": "D3",
                    "midi": 50,
                    "time": 484.375,
                    "velocity": 0.3858267716535433,
                    "duration": 0.625
                },
                {
                    "name": "D3",
                    "midi": 50,
                    "time": 485,
                    "velocity": 0.3858267716535433,
                    "duration": 0.625
                },
                {
                    "name": "C3",
                    "midi": 48,
                    "time": 485.625,
                    "velocity": 0.3858267716535433,
                    "duration": 0.625
                },
                {
                    "name": "C3",
                    "midi": 48,
                    "time": 486.25,
                    "velocity": 0.3858267716535433,
                    "duration": 0.625
                },
                {
                    "name": "C3",
                    "midi": 48,
                    "time": 486.875,
                    "velocity": 0.3858267716535433,
                    "duration": 0.625
                },
                {
                    "name": "F3",
                    "midi": 53,
                    "time": 487.5,
                    "velocity": 0.3858267716535433,
                    "duration": 0.625
                },
                {
                    "name": "F3",
                    "midi": 53,
                    "time": 488.125,
                    "velocity": 0.3858267716535433,
                    "duration": 0.625
                },
                {
                    "name": "F3",
                    "midi": 53,
                    "time": 488.75,
                    "velocity": 0.3858267716535433,
                    "duration": 0.625
                },
                {
                    "name": "C3",
                    "midi": 48,
                    "time": 489.375,
                    "velocity": 0.3858267716535433,
                    "duration": 0.625
                },
                {
                    "name": "C3",
                    "midi": 48,
                    "time": 490,
                    "velocity": 0.3858267716535433,
                    "duration": 0.625
                },
                {
                    "name": "C#3",
                    "midi": 49,
                    "time": 490.625,
                    "velocity": 0.3858267716535433,
                    "duration": 0.625
                },
                {
                    "name": "D3",
                    "midi": 50,
                    "time": 491.25,
                    "velocity": 0.3858267716535433,
                    "duration": 0.625
                },
                {
                    "name": "A#2",
                    "midi": 46,
                    "time": 491.875,
                    "velocity": 0.3858267716535433,
                    "duration": 0.625
                },
                {
                    "name": "G2",
                    "midi": 43,
                    "time": 492.5,
                    "velocity": 0.3858267716535433,
                    "duration": 0.625
                },
                {
                    "name": "A2",
                    "midi": 45,
                    "time": 493.125,
                    "velocity": 0.3858267716535433,
                    "duration": 0.625
                },
                {
                    "name": "A2",
                    "midi": 45,
                    "time": 493.75,
                    "velocity": 0.3858267716535433,
                    "duration": 0.625
                },
                {
                    "name": "A2",
                    "midi": 45,
                    "time": 494.375,
                    "velocity": 0.3858267716535433,
                    "duration": 0.625
                },
                {
                    "name": "D3",
                    "midi": 50,
                    "time": 495,
                    "velocity": 0.3858267716535433,
                    "duration": 0.625
                },
                {
                    "name": "D3",
                    "midi": 50,
                    "time": 495.625,
                    "velocity": 0.3858267716535433,
                    "duration": 0.625
                },
                {
                    "name": "D3",
                    "midi": 50,
                    "time": 496.25,
                    "velocity": 0.3858267716535433,
                    "duration": 0.625
                },
                {
                    "name": "A2",
                    "midi": 45,
                    "time": 496.875,
                    "velocity": 0.3858267716535433,
                    "duration": 0.625
                },
                {
                    "name": "A2",
                    "midi": 45,
                    "time": 497.5,
                    "velocity": 0.3858267716535433,
                    "duration": 0.625
                },
                {
                    "name": "A2",
                    "midi": 45,
                    "time": 498.125,
                    "velocity": 0.3858267716535433,
                    "duration": 0.625
                },
                {
                    "name": "D3",
                    "midi": 50,
                    "time": 498.75,
                    "velocity": 0.3858267716535433,
                    "duration": 0.625
                },
                {
                    "name": "D3",
                    "midi": 50,
                    "time": 499.375,
                    "velocity": 0.3858267716535433,
                    "duration": 0.625
                },
                {
                    "name": "D3",
                    "midi": 50,
                    "time": 500,
                    "velocity": 0.3858267716535433,
                    "duration": 0.625
                },
                {
                    "name": "C3",
                    "midi": 48,
                    "time": 500.625,
                    "velocity": 0.3858267716535433,
                    "duration": 0.625
                },
                {
                    "name": "C3",
                    "midi": 48,
                    "time": 501.25,
                    "velocity": 0.3858267716535433,
                    "duration": 0.625
                },
                {
                    "name": "C3",
                    "midi": 48,
                    "time": 501.875,
                    "velocity": 0.3858267716535433,
                    "duration": 0.625
                },
                {
                    "name": "F3",
                    "midi": 53,
                    "time": 502.5,
                    "velocity": 0.3858267716535433,
                    "duration": 0.625
                },
                {
                    "name": "F3",
                    "midi": 53,
                    "time": 503.125,
                    "velocity": 0.3858267716535433,
                    "duration": 0.625
                },
                {
                    "name": "F3",
                    "midi": 53,
                    "time": 503.75,
                    "velocity": 0.3858267716535433,
                    "duration": 0.625
                },
                {
                    "name": "C3",
                    "midi": 48,
                    "time": 504.375,
                    "velocity": 0.3858267716535433,
                    "duration": 0.625
                },
                {
                    "name": "C3",
                    "midi": 48,
                    "time": 505,
                    "velocity": 0.3858267716535433,
                    "duration": 0.625
                },
                {
                    "name": "C#3",
                    "midi": 49,
                    "time": 505.625,
                    "velocity": 0.3858267716535433,
                    "duration": 0.625
                },
                {
                    "name": "D3",
                    "midi": 50,
                    "time": 506.25,
                    "velocity": 0.3858267716535433,
                    "duration": 0.625
                },
                {
                    "name": "A3",
                    "midi": 57,
                    "time": 506.875,
                    "velocity": 0.3858267716535433,
                    "duration": 0.625
                },
                {
                    "name": "A2",
                    "midi": 45,
                    "time": 507.5,
                    "velocity": 0.3858267716535433,
                    "duration": 0.625
                },
                {
                    "name": "D3",
                    "midi": 50,
                    "time": 508.125,
                    "velocity": 0.3858267716535433,
                    "duration": 1.875
                },
                {
                    "name": "D4",
                    "midi": 62,
                    "time": 510,
                    "velocity": 0.3858267716535433,
                    "duration": 0.3125
                },
                {
                    "name": "D3",
                    "midi": 50,
                    "time": 510.3125,
                    "velocity": 0.3858267716535433,
                    "duration": 0.3125
                },
                {
                    "name": "D3",
                    "midi": 50,
                    "time": 510.625,
                    "velocity": 0.3858267716535433,
                    "duration": 0.15625
                },
                {
                    "name": "E3",
                    "midi": 52,
                    "time": 510.78125,
                    "velocity": 0.3858267716535433,
                    "duration": 0.15625
                },
                {
                    "name": "F3",
                    "midi": 53,
                    "time": 510.9375,
                    "velocity": 0.3858267716535433,
                    "duration": 0.15625
                },
                {
                    "name": "G3",
                    "midi": 55,
                    "time": 511.09375,
                    "velocity": 0.3858267716535433,
                    "duration": 0.15625
                },
                {
                    "name": "A3",
                    "midi": 57,
                    "time": 511.25,
                    "velocity": 0.3858267716535433,
                    "duration": 0.15625
                },
                {
                    "name": "B3",
                    "midi": 59,
                    "time": 511.40625,
                    "velocity": 0.3858267716535433,
                    "duration": 0.15625
                },
                {
                    "name": "C#4",
                    "midi": 61,
                    "time": 511.5625,
                    "velocity": 0.3858267716535433,
                    "duration": 0.15625
                },
                {
                    "name": "D4",
                    "midi": 62,
                    "time": 511.71875,
                    "velocity": 0.3858267716535433,
                    "duration": 0.15625
                },
                {
                    "name": "A3",
                    "midi": 57,
                    "time": 511.875,
                    "velocity": 0.3858267716535433,
                    "duration": 0.3125
                },
                {
                    "name": "A2",
                    "midi": 45,
                    "time": 512.1875,
                    "velocity": 0.3858267716535433,
                    "duration": 0.3125
                },
                {
                    "name": "A2",
                    "midi": 45,
                    "time": 512.5,
                    "velocity": 0.3858267716535433,
                    "duration": 0.15625
                },
                {
                    "name": "C#3",
                    "midi": 49,
                    "time": 512.65625,
                    "velocity": 0.3858267716535433,
                    "duration": 0.15625
                },
                {
                    "name": "D#3",
                    "midi": 51,
                    "time": 512.8125,
                    "velocity": 0.3858267716535433,
                    "duration": 0.15625
                },
                {
                    "name": "E3",
                    "midi": 52,
                    "time": 512.96875,
                    "velocity": 0.3858267716535433,
                    "duration": 0.15625
                },
                {
                    "name": "F3",
                    "midi": 53,
                    "time": 513.125,
                    "velocity": 0.3858267716535433,
                    "duration": 0.15625
                },
                {
                    "name": "G3",
                    "midi": 55,
                    "time": 513.28125,
                    "velocity": 0.3858267716535433,
                    "duration": 0.15625
                },
                {
                    "name": "A3",
                    "midi": 57,
                    "time": 513.4375,
                    "velocity": 0.3858267716535433,
                    "duration": 0.15625
                },
                {
                    "name": "A#3",
                    "midi": 58,
                    "time": 513.59375,
                    "velocity": 0.3858267716535433,
                    "duration": 0.15625
                },
                {
                    "name": "D3",
                    "midi": 50,
                    "time": 513.75,
                    "velocity": 0.3858267716535433,
                    "duration": 0.3125
                },
                {
                    "name": "D2",
                    "midi": 38,
                    "time": 514.0625,
                    "velocity": 0.3858267716535433,
                    "duration": 0.3125
                },
                {
                    "name": "D3",
                    "midi": 50,
                    "time": 514.375,
                    "velocity": 0.3858267716535433,
                    "duration": 0.15625
                },
                {
                    "name": "E3",
                    "midi": 52,
                    "time": 514.53125,
                    "velocity": 0.3858267716535433,
                    "duration": 0.15625
                },
                {
                    "name": "F3",
                    "midi": 53,
                    "time": 514.6875,
                    "velocity": 0.3858267716535433,
                    "duration": 0.15625
                },
                {
                    "name": "G3",
                    "midi": 55,
                    "time": 514.84375,
                    "velocity": 0.3858267716535433,
                    "duration": 0.15625
                },
                {
                    "name": "A3",
                    "midi": 57,
                    "time": 515,
                    "velocity": 0.3858267716535433,
                    "duration": 0.15625
                },
                {
                    "name": "A#3",
                    "midi": 58,
                    "time": 515.15625,
                    "velocity": 0.3858267716535433,
                    "duration": 0.15625
                },
                {
                    "name": "C4",
                    "midi": 60,
                    "time": 515.3125,
                    "velocity": 0.3858267716535433,
                    "duration": 0.15625
                },
                {
                    "name": "D4",
                    "midi": 62,
                    "time": 515.46875,
                    "velocity": 0.3858267716535433,
                    "duration": 0.15625
                },
                {
                    "name": "C4",
                    "midi": 60,
                    "time": 515.625,
                    "velocity": 0.3858267716535433,
                    "duration": 0.3125
                },
                {
                    "name": "C3",
                    "midi": 48,
                    "time": 515.9375,
                    "velocity": 0.3858267716535433,
                    "duration": 0.3125
                },
                {
                    "name": "C3",
                    "midi": 48,
                    "time": 516.25,
                    "velocity": 0.3858267716535433,
                    "duration": 0.15625
                },
                {
                    "name": "D3",
                    "midi": 50,
                    "time": 516.40625,
                    "velocity": 0.3858267716535433,
                    "duration": 0.15625
                },
                {
                    "name": "E3",
                    "midi": 52,
                    "time": 516.5625,
                    "velocity": 0.3858267716535433,
                    "duration": 0.15625
                },
                {
                    "name": "F3",
                    "midi": 53,
                    "time": 516.71875,
                    "velocity": 0.3858267716535433,
                    "duration": 0.15625
                },
                {
                    "name": "G3",
                    "midi": 55,
                    "time": 516.875,
                    "velocity": 0.3858267716535433,
                    "duration": 0.15625
                },
                {
                    "name": "A3",
                    "midi": 57,
                    "time": 517.03125,
                    "velocity": 0.3858267716535433,
                    "duration": 0.15625
                },
                {
                    "name": "A#3",
                    "midi": 58,
                    "time": 517.1875,
                    "velocity": 0.3858267716535433,
                    "duration": 0.15625
                },
                {
                    "name": "C4",
                    "midi": 60,
                    "time": 517.34375,
                    "velocity": 0.3858267716535433,
                    "duration": 0.15625
                },
                {
                    "name": "F3",
                    "midi": 53,
                    "time": 517.5,
                    "velocity": 0.3858267716535433,
                    "duration": 0.3125
                },
                {
                    "name": "F2",
                    "midi": 41,
                    "time": 517.8125,
                    "velocity": 0.3858267716535433,
                    "duration": 0.3125
                },
                {
                    "name": "F3",
                    "midi": 53,
                    "time": 518.125,
                    "velocity": 0.3858267716535433,
                    "duration": 0.15625
                },
                {
                    "name": "G3",
                    "midi": 55,
                    "time": 518.28125,
                    "velocity": 0.3858267716535433,
                    "duration": 0.15625
                },
                {
                    "name": "A3",
                    "midi": 57,
                    "time": 518.4375,
                    "velocity": 0.3858267716535433,
                    "duration": 0.15625
                },
                {
                    "name": "A#3",
                    "midi": 58,
                    "time": 518.59375,
                    "velocity": 0.3858267716535433,
                    "duration": 0.15625
                },
                {
                    "name": "C4",
                    "midi": 60,
                    "time": 518.75,
                    "velocity": 0.3858267716535433,
                    "duration": 0.15625
                },
                {
                    "name": "D4",
                    "midi": 62,
                    "time": 518.90625,
                    "velocity": 0.3858267716535433,
                    "duration": 0.15625
                },
                {
                    "name": "E4",
                    "midi": 64,
                    "time": 519.0625,
                    "velocity": 0.3858267716535433,
                    "duration": 0.15625
                },
                {
                    "name": "F4",
                    "midi": 65,
                    "time": 519.21875,
                    "velocity": 0.3858267716535433,
                    "duration": 0.15625
                },
                {
                    "name": "C4",
                    "midi": 60,
                    "time": 519.375,
                    "velocity": 0.3858267716535433,
                    "duration": 0.3125
                },
                {
                    "name": "C3",
                    "midi": 48,
                    "time": 519.6875,
                    "velocity": 0.3858267716535433,
                    "duration": 0.3125
                },
                {
                    "name": "C#3",
                    "midi": 49,
                    "time": 520,
                    "velocity": 0.3858267716535433,
                    "duration": 0.15625
                },
                {
                    "name": "D3",
                    "midi": 50,
                    "time": 520.15625,
                    "velocity": 0.3858267716535433,
                    "duration": 0.15625
                },
                {
                    "name": "E3",
                    "midi": 52,
                    "time": 520.3125,
                    "velocity": 0.3858267716535433,
                    "duration": 0.15625
                },
                {
                    "name": "F3",
                    "midi": 53,
                    "time": 520.46875,
                    "velocity": 0.3858267716535433,
                    "duration": 0.15625
                },
                {
                    "name": "G3",
                    "midi": 55,
                    "time": 520.625,
                    "velocity": 0.3858267716535433,
                    "duration": 0.15625
                },
                {
                    "name": "A3",
                    "midi": 57,
                    "time": 520.78125,
                    "velocity": 0.3858267716535433,
                    "duration": 0.15625
                },
                {
                    "name": "B3",
                    "midi": 59,
                    "time": 520.9375,
                    "velocity": 0.3858267716535433,
                    "duration": 0.15625
                },
                {
                    "name": "C#4",
                    "midi": 61,
                    "time": 521.09375,
                    "velocity": 0.3858267716535433,
                    "duration": 0.15625
                },
                {
                    "name": "D4",
                    "midi": 62,
                    "time": 521.25,
                    "velocity": 0.3858267716535433,
                    "duration": 0.3125
                },
                {
                    "name": "D3",
                    "midi": 50,
                    "time": 521.5625,
                    "velocity": 0.3858267716535433,
                    "duration": 0.3125
                },
                {
                    "name": "G2",
                    "midi": 43,
                    "time": 521.875,
                    "velocity": 0.3858267716535433,
                    "duration": 0.15625
                },
                {
                    "name": "A2",
                    "midi": 45,
                    "time": 522.03125,
                    "velocity": 0.3858267716535433,
                    "duration": 0.15625
                },
                {
                    "name": "A#2",
                    "midi": 46,
                    "time": 522.1875,
                    "velocity": 0.3858267716535433,
                    "duration": 0.15625
                },
                {
                    "name": "C3",
                    "midi": 48,
                    "time": 522.34375,
                    "velocity": 0.3858267716535433,
                    "duration": 0.15625
                },
                {
                    "name": "D3",
                    "midi": 50,
                    "time": 522.5,
                    "velocity": 0.3858267716535433,
                    "duration": 0.15625
                },
                {
                    "name": "E3",
                    "midi": 52,
                    "time": 522.65625,
                    "velocity": 0.3858267716535433,
                    "duration": 0.15625
                },
                {
                    "name": "F3",
                    "midi": 53,
                    "time": 522.8125,
                    "velocity": 0.3858267716535433,
                    "duration": 0.15625
                },
                {
                    "name": "G3",
                    "midi": 55,
                    "time": 522.96875,
                    "velocity": 0.3858267716535433,
                    "duration": 0.15625
                },
                {
                    "name": "A2",
                    "midi": 45,
                    "time": 523.125,
                    "velocity": 0.3858267716535433,
                    "duration": 0.625
                },
                {
                    "name": "A2",
                    "midi": 45,
                    "time": 523.75,
                    "velocity": 0.3858267716535433,
                    "duration": 0.15625
                },
                {
                    "name": "B2",
                    "midi": 47,
                    "time": 523.90625,
                    "velocity": 0.3858267716535433,
                    "duration": 0.15625
                },
                {
                    "name": "C#3",
                    "midi": 49,
                    "time": 524.0625,
                    "velocity": 0.3858267716535433,
                    "duration": 0.15625
                },
                {
                    "name": "D3",
                    "midi": 50,
                    "time": 524.21875,
                    "velocity": 0.3858267716535433,
                    "duration": 0.15625
                },
                {
                    "name": "E3",
                    "midi": 52,
                    "time": 524.375,
                    "velocity": 0.3858267716535433,
                    "duration": 0.15625
                },
                {
                    "name": "F3",
                    "midi": 53,
                    "time": 524.53125,
                    "velocity": 0.3858267716535433,
                    "duration": 0.15625
                },
                {
                    "name": "G3",
                    "midi": 55,
                    "time": 524.6875,
                    "velocity": 0.3858267716535433,
                    "duration": 0.15625
                },
                {
                    "name": "A3",
                    "midi": 57,
                    "time": 524.84375,
                    "velocity": 0.3858267716535433,
                    "duration": 0.15625
                },
                {
                    "name": "D3",
                    "midi": 50,
                    "time": 525,
                    "velocity": 0.3858267716535433,
                    "duration": 0.3125
                },
                {
                    "name": "D2",
                    "midi": 38,
                    "time": 525.3125,
                    "velocity": 0.3858267716535433,
                    "duration": 0.3125
                },
                {
                    "name": "D3",
                    "midi": 50,
                    "time": 525.625,
                    "velocity": 0.3858267716535433,
                    "duration": 0.15625
                },
                {
                    "name": "E3",
                    "midi": 52,
                    "time": 525.78125,
                    "velocity": 0.3858267716535433,
                    "duration": 0.15625
                },
                {
                    "name": "F3",
                    "midi": 53,
                    "time": 525.9375,
                    "velocity": 0.3858267716535433,
                    "duration": 0.15625
                },
                {
                    "name": "G3",
                    "midi": 55,
                    "time": 526.09375,
                    "velocity": 0.3858267716535433,
                    "duration": 0.15625
                },
                {
                    "name": "A3",
                    "midi": 57,
                    "time": 526.25,
                    "velocity": 0.3858267716535433,
                    "duration": 0.15625
                },
                {
                    "name": "B3",
                    "midi": 59,
                    "time": 526.40625,
                    "velocity": 0.3858267716535433,
                    "duration": 0.15625
                },
                {
                    "name": "C#4",
                    "midi": 61,
                    "time": 526.5625,
                    "velocity": 0.3858267716535433,
                    "duration": 0.15625
                },
                {
                    "name": "D4",
                    "midi": 62,
                    "time": 526.71875,
                    "velocity": 0.3858267716535433,
                    "duration": 0.15625
                },
                {
                    "name": "A3",
                    "midi": 57,
                    "time": 526.875,
                    "velocity": 0.3858267716535433,
                    "duration": 0.3125
                },
                {
                    "name": "A2",
                    "midi": 45,
                    "time": 527.1875,
                    "velocity": 0.3858267716535433,
                    "duration": 0.3125
                },
                {
                    "name": "A2",
                    "midi": 45,
                    "time": 527.5,
                    "velocity": 0.3858267716535433,
                    "duration": 0.15625
                },
                {
                    "name": "B2",
                    "midi": 47,
                    "time": 527.65625,
                    "velocity": 0.3858267716535433,
                    "duration": 0.15625
                },
                {
                    "name": "C#3",
                    "midi": 49,
                    "time": 527.8125,
                    "velocity": 0.3858267716535433,
                    "duration": 0.15625
                },
                {
                    "name": "D3",
                    "midi": 50,
                    "time": 527.96875,
                    "velocity": 0.3858267716535433,
                    "duration": 0.15625
                },
                {
                    "name": "E3",
                    "midi": 52,
                    "time": 528.125,
                    "velocity": 0.3858267716535433,
                    "duration": 0.15625
                },
                {
                    "name": "F3",
                    "midi": 53,
                    "time": 528.28125,
                    "velocity": 0.3858267716535433,
                    "duration": 0.15625
                },
                {
                    "name": "G3",
                    "midi": 55,
                    "time": 528.4375,
                    "velocity": 0.3858267716535433,
                    "duration": 0.15625
                },
                {
                    "name": "A3",
                    "midi": 57,
                    "time": 528.59375,
                    "velocity": 0.3858267716535433,
                    "duration": 0.15625
                },
                {
                    "name": "D3",
                    "midi": 50,
                    "time": 528.75,
                    "velocity": 0.3858267716535433,
                    "duration": 0.3125
                },
                {
                    "name": "D2",
                    "midi": 38,
                    "time": 529.0625,
                    "velocity": 0.3858267716535433,
                    "duration": 0.3125
                },
                {
                    "name": "D3",
                    "midi": 50,
                    "time": 529.375,
                    "velocity": 0.3858267716535433,
                    "duration": 0.15625
                },
                {
                    "name": "E3",
                    "midi": 52,
                    "time": 529.53125,
                    "velocity": 0.3858267716535433,
                    "duration": 0.15625
                },
                {
                    "name": "F3",
                    "midi": 53,
                    "time": 529.6875,
                    "velocity": 0.3858267716535433,
                    "duration": 0.15625
                },
                {
                    "name": "G3",
                    "midi": 55,
                    "time": 529.84375,
                    "velocity": 0.3858267716535433,
                    "duration": 0.15625
                },
                {
                    "name": "A3",
                    "midi": 57,
                    "time": 530,
                    "velocity": 0.3858267716535433,
                    "duration": 0.15625
                },
                {
                    "name": "A#3",
                    "midi": 58,
                    "time": 530.15625,
                    "velocity": 0.3858267716535433,
                    "duration": 0.15625
                },
                {
                    "name": "C4",
                    "midi": 60,
                    "time": 530.3125,
                    "velocity": 0.3858267716535433,
                    "duration": 0.15625
                },
                {
                    "name": "D4",
                    "midi": 62,
                    "time": 530.46875,
                    "velocity": 0.3858267716535433,
                    "duration": 0.15625
                },
                {
                    "name": "C4",
                    "midi": 60,
                    "time": 530.625,
                    "velocity": 0.3858267716535433,
                    "duration": 0.3125
                },
                {
                    "name": "C3",
                    "midi": 48,
                    "time": 530.9375,
                    "velocity": 0.3858267716535433,
                    "duration": 0.3125
                },
                {
                    "name": "C3",
                    "midi": 48,
                    "time": 531.25,
                    "velocity": 0.3858267716535433,
                    "duration": 0.15625
                },
                {
                    "name": "D3",
                    "midi": 50,
                    "time": 531.40625,
                    "velocity": 0.3858267716535433,
                    "duration": 0.15625
                },
                {
                    "name": "E3",
                    "midi": 52,
                    "time": 531.5625,
                    "velocity": 0.3858267716535433,
                    "duration": 0.15625
                },
                {
                    "name": "F3",
                    "midi": 53,
                    "time": 531.71875,
                    "velocity": 0.3858267716535433,
                    "duration": 0.15625
                },
                {
                    "name": "G3",
                    "midi": 55,
                    "time": 531.875,
                    "velocity": 0.3858267716535433,
                    "duration": 0.15625
                },
                {
                    "name": "A3",
                    "midi": 57,
                    "time": 532.03125,
                    "velocity": 0.3858267716535433,
                    "duration": 0.15625
                },
                {
                    "name": "A#3",
                    "midi": 58,
                    "time": 532.1875,
                    "velocity": 0.3858267716535433,
                    "duration": 0.15625
                },
                {
                    "name": "C4",
                    "midi": 60,
                    "time": 532.34375,
                    "velocity": 0.3858267716535433,
                    "duration": 0.15625
                },
                {
                    "name": "F3",
                    "midi": 53,
                    "time": 532.5,
                    "velocity": 0.3858267716535433,
                    "duration": 0.3125
                },
                {
                    "name": "F2",
                    "midi": 41,
                    "time": 532.8125,
                    "velocity": 0.3858267716535433,
                    "duration": 0.3125
                },
                {
                    "name": "F3",
                    "midi": 53,
                    "time": 533.125,
                    "velocity": 0.3858267716535433,
                    "duration": 0.15625
                },
                {
                    "name": "G3",
                    "midi": 55,
                    "time": 533.28125,
                    "velocity": 0.3858267716535433,
                    "duration": 0.15625
                },
                {
                    "name": "A3",
                    "midi": 57,
                    "time": 533.4375,
                    "velocity": 0.3858267716535433,
                    "duration": 0.15625
                },
                {
                    "name": "A#3",
                    "midi": 58,
                    "time": 533.59375,
                    "velocity": 0.3858267716535433,
                    "duration": 0.15625
                },
                {
                    "name": "C4",
                    "midi": 60,
                    "time": 533.75,
                    "velocity": 0.3858267716535433,
                    "duration": 0.15625
                },
                {
                    "name": "D4",
                    "midi": 62,
                    "time": 533.90625,
                    "velocity": 0.3858267716535433,
                    "duration": 0.15625
                },
                {
                    "name": "E4",
                    "midi": 64,
                    "time": 534.0625,
                    "velocity": 0.3858267716535433,
                    "duration": 0.15625
                },
                {
                    "name": "F4",
                    "midi": 65,
                    "time": 534.21875,
                    "velocity": 0.3858267716535433,
                    "duration": 0.15625
                },
                {
                    "name": "C4",
                    "midi": 60,
                    "time": 534.375,
                    "velocity": 0.3858267716535433,
                    "duration": 0.3125
                },
                {
                    "name": "C3",
                    "midi": 48,
                    "time": 534.6875,
                    "velocity": 0.3858267716535433,
                    "duration": 0.3125
                },
                {
                    "name": "C#3",
                    "midi": 49,
                    "time": 535,
                    "velocity": 0.3858267716535433,
                    "duration": 0.15625
                },
                {
                    "name": "D3",
                    "midi": 50,
                    "time": 535.15625,
                    "velocity": 0.3858267716535433,
                    "duration": 0.15625
                },
                {
                    "name": "E3",
                    "midi": 52,
                    "time": 535.3125,
                    "velocity": 0.3858267716535433,
                    "duration": 0.15625
                },
                {
                    "name": "F3",
                    "midi": 53,
                    "time": 535.46875,
                    "velocity": 0.3858267716535433,
                    "duration": 0.15625
                },
                {
                    "name": "G3",
                    "midi": 55,
                    "time": 535.625,
                    "velocity": 0.3858267716535433,
                    "duration": 0.15625
                },
                {
                    "name": "A3",
                    "midi": 57,
                    "time": 535.78125,
                    "velocity": 0.3858267716535433,
                    "duration": 0.15625
                },
                {
                    "name": "B3",
                    "midi": 59,
                    "time": 535.9375,
                    "velocity": 0.3858267716535433,
                    "duration": 0.15625
                },
                {
                    "name": "C#4",
                    "midi": 61,
                    "time": 536.09375,
                    "velocity": 0.3858267716535433,
                    "duration": 0.15625
                },
                {
                    "name": "D3",
                    "midi": 50,
                    "time": 536.25,
                    "velocity": 0.3858267716535433,
                    "duration": 0.3125
                },
                {
                    "name": "G2",
                    "midi": 43,
                    "time": 536.5625,
                    "velocity": 0.3858267716535433,
                    "duration": 0.3125
                },
                {
                    "name": "A2",
                    "midi": 45,
                    "time": 536.875,
                    "velocity": 0.3858267716535433,
                    "duration": 0.15625
                },
                {
                    "name": "B2",
                    "midi": 47,
                    "time": 537.03125,
                    "velocity": 0.3858267716535433,
                    "duration": 0.15625
                },
                {
                    "name": "C#3",
                    "midi": 49,
                    "time": 537.1875,
                    "velocity": 0.3858267716535433,
                    "duration": 0.15625
                },
                {
                    "name": "D3",
                    "midi": 50,
                    "time": 537.34375,
                    "velocity": 0.3858267716535433,
                    "duration": 0.15625
                },
                {
                    "name": "E3",
                    "midi": 52,
                    "time": 537.5,
                    "velocity": 0.3858267716535433,
                    "duration": 0.15625
                },
                {
                    "name": "F3",
                    "midi": 53,
                    "time": 537.65625,
                    "velocity": 0.3858267716535433,
                    "duration": 0.15625
                },
                {
                    "name": "G3",
                    "midi": 55,
                    "time": 537.8125,
                    "velocity": 0.3858267716535433,
                    "duration": 0.15625
                },
                {
                    "name": "A3",
                    "midi": 57,
                    "time": 537.96875,
                    "velocity": 0.3858267716535433,
                    "duration": 0.15625
                },
                {
                    "name": "D3",
                    "midi": 50,
                    "time": 538.125,
                    "velocity": 0.3858267716535433,
                    "duration": 1.875
                },
                {
                    "name": "D4",
                    "midi": 62,
                    "time": 540,
                    "velocity": 0.3858267716535433,
                    "duration": 0.625
                },
                {
                    "name": "D3",
                    "midi": 50,
                    "time": 540.625,
                    "velocity": 0.3858267716535433,
                    "duration": 0.3125
                },
                {
                    "name": "F3",
                    "midi": 53,
                    "time": 540.9375,
                    "velocity": 0.3858267716535433,
                    "duration": 0.3125
                },
                {
                    "name": "E3",
                    "midi": 52,
                    "time": 541.25,
                    "velocity": 0.3858267716535433,
                    "duration": 0.3125
                },
                {
                    "name": "D3",
                    "midi": 50,
                    "time": 541.5625,
                    "velocity": 0.3858267716535433,
                    "duration": 0.3125
                },
                {
                    "name": "A3",
                    "midi": 57,
                    "time": 541.875,
                    "velocity": 0.3858267716535433,
                    "duration": 0.625
                },
                {
                    "name": "A2",
                    "midi": 45,
                    "time": 542.5,
                    "velocity": 0.3858267716535433,
                    "duration": 0.3125
                },
                {
                    "name": "C#3",
                    "midi": 49,
                    "time": 542.8125,
                    "velocity": 0.3858267716535433,
                    "duration": 0.3125
                },
                {
                    "name": "B2",
                    "midi": 47,
                    "time": 543.125,
                    "velocity": 0.3858267716535433,
                    "duration": 0.3125
                },
                {
                    "name": "A2",
                    "midi": 45,
                    "time": 543.4375,
                    "velocity": 0.3858267716535433,
                    "duration": 0.3125
                },
                {
                    "name": "D3",
                    "midi": 50,
                    "time": 543.75,
                    "velocity": 0.3858267716535433,
                    "duration": 0.625
                },
                {
                    "name": "D4",
                    "midi": 62,
                    "time": 544.375,
                    "velocity": 0.3858267716535433,
                    "duration": 0.3125
                },
                {
                    "name": "F4",
                    "midi": 65,
                    "time": 544.6875,
                    "velocity": 0.3858267716535433,
                    "duration": 0.3125
                },
                {
                    "name": "E4",
                    "midi": 64,
                    "time": 545,
                    "velocity": 0.3858267716535433,
                    "duration": 0.3125
                },
                {
                    "name": "D4",
                    "midi": 62,
                    "time": 545.3125,
                    "velocity": 0.3858267716535433,
                    "duration": 0.3125
                },
                {
                    "name": "C4",
                    "midi": 60,
                    "time": 545.625,
                    "velocity": 0.3858267716535433,
                    "duration": 0.625
                },
                {
                    "name": "C3",
                    "midi": 48,
                    "time": 546.25,
                    "velocity": 0.3858267716535433,
                    "duration": 0.3125
                },
                {
                    "name": "E3",
                    "midi": 52,
                    "time": 546.5625,
                    "velocity": 0.3858267716535433,
                    "duration": 0.3125
                },
                {
                    "name": "D3",
                    "midi": 50,
                    "time": 546.875,
                    "velocity": 0.3858267716535433,
                    "duration": 0.3125
                },
                {
                    "name": "C3",
                    "midi": 48,
                    "time": 547.1875,
                    "velocity": 0.3858267716535433,
                    "duration": 0.3125
                },
                {
                    "name": "F2",
                    "midi": 41,
                    "time": 547.5,
                    "velocity": 0.3858267716535433,
                    "duration": 0.625
                },
                {
                    "name": "F3",
                    "midi": 53,
                    "time": 548.125,
                    "velocity": 0.3858267716535433,
                    "duration": 0.3125
                },
                {
                    "name": "A3",
                    "midi": 57,
                    "time": 548.4375,
                    "velocity": 0.3858267716535433,
                    "duration": 0.3125
                },
                {
                    "name": "G3",
                    "midi": 55,
                    "time": 548.75,
                    "velocity": 0.3858267716535433,
                    "duration": 0.3125
                },
                {
                    "name": "F3",
                    "midi": 53,
                    "time": 549.0625,
                    "velocity": 0.3858267716535433,
                    "duration": 0.3125
                },
                {
                    "name": "C3",
                    "midi": 48,
                    "time": 549.375,
                    "velocity": 0.3858267716535433,
                    "duration": 0.625
                },
                {
                    "name": "C#3",
                    "midi": 49,
                    "time": 550,
                    "velocity": 0.3858267716535433,
                    "duration": 0.3125
                },
                {
                    "name": "E3",
                    "midi": 52,
                    "time": 550.3125,
                    "velocity": 0.3858267716535433,
                    "duration": 0.3125
                },
                {
                    "name": "D3",
                    "midi": 50,
                    "time": 550.625,
                    "velocity": 0.3858267716535433,
                    "duration": 0.3125
                },
                {
                    "name": "C#3",
                    "midi": 49,
                    "time": 550.9375,
                    "velocity": 0.3858267716535433,
                    "duration": 0.3125
                },
                {
                    "name": "D3",
                    "midi": 50,
                    "time": 551.25,
                    "velocity": 0.3858267716535433,
                    "duration": 0.625
                },
                {
                    "name": "G2",
                    "midi": 43,
                    "time": 551.875,
                    "velocity": 0.3858267716535433,
                    "duration": 0.3125
                },
                {
                    "name": "A#2",
                    "midi": 46,
                    "time": 552.1875,
                    "velocity": 0.3858267716535433,
                    "duration": 0.3125
                },
                {
                    "name": "A2",
                    "midi": 45,
                    "time": 552.5,
                    "velocity": 0.3858267716535433,
                    "duration": 0.3125
                },
                {
                    "name": "G2",
                    "midi": 43,
                    "time": 552.8125,
                    "velocity": 0.3858267716535433,
                    "duration": 0.3125
                },
                {
                    "name": "A2",
                    "midi": 45,
                    "time": 553.125,
                    "velocity": 0.3858267716535433,
                    "duration": 0.625
                },
                {
                    "name": "A3",
                    "midi": 57,
                    "time": 553.75,
                    "velocity": 0.3858267716535433,
                    "duration": 0.3125
                },
                {
                    "name": "C#4",
                    "midi": 61,
                    "time": 554.0625,
                    "velocity": 0.3858267716535433,
                    "duration": 0.3125
                },
                {
                    "name": "B3",
                    "midi": 59,
                    "time": 554.375,
                    "velocity": 0.3858267716535433,
                    "duration": 0.3125
                },
                {
                    "name": "A3",
                    "midi": 57,
                    "time": 554.6875,
                    "velocity": 0.3858267716535433,
                    "duration": 0.3125
                },
                {
                    "name": "D4",
                    "midi": 62,
                    "time": 555,
                    "velocity": 0.3858267716535433,
                    "duration": 0.625
                },
                {
                    "name": "D3",
                    "midi": 50,
                    "time": 555.625,
                    "velocity": 0.3858267716535433,
                    "duration": 0.3125
                },
                {
                    "name": "F3",
                    "midi": 53,
                    "time": 555.9375,
                    "velocity": 0.3858267716535433,
                    "duration": 0.3125
                },
                {
                    "name": "E3",
                    "midi": 52,
                    "time": 556.25,
                    "velocity": 0.3858267716535433,
                    "duration": 0.3125
                },
                {
                    "name": "D3",
                    "midi": 50,
                    "time": 556.5625,
                    "velocity": 0.3858267716535433,
                    "duration": 0.3125
                },
                {
                    "name": "A3",
                    "midi": 57,
                    "time": 556.875,
                    "velocity": 0.3858267716535433,
                    "duration": 0.625
                },
                {
                    "name": "A2",
                    "midi": 45,
                    "time": 557.5,
                    "velocity": 0.3858267716535433,
                    "duration": 0.3125
                },
                {
                    "name": "C#3",
                    "midi": 49,
                    "time": 557.8125,
                    "velocity": 0.3858267716535433,
                    "duration": 0.3125
                },
                {
                    "name": "B2",
                    "midi": 47,
                    "time": 558.125,
                    "velocity": 0.3858267716535433,
                    "duration": 0.3125
                },
                {
                    "name": "A2",
                    "midi": 45,
                    "time": 558.4375,
                    "velocity": 0.3858267716535433,
                    "duration": 0.3125
                },
                {
                    "name": "D3",
                    "midi": 50,
                    "time": 558.75,
                    "velocity": 0.3858267716535433,
                    "duration": 0.625
                },
                {
                    "name": "D4",
                    "midi": 62,
                    "time": 559.375,
                    "velocity": 0.3858267716535433,
                    "duration": 0.3125
                },
                {
                    "name": "F4",
                    "midi": 65,
                    "time": 559.6875,
                    "velocity": 0.3858267716535433,
                    "duration": 0.3125
                },
                {
                    "name": "E4",
                    "midi": 64,
                    "time": 560,
                    "velocity": 0.3858267716535433,
                    "duration": 0.3125
                },
                {
                    "name": "D4",
                    "midi": 62,
                    "time": 560.3125,
                    "velocity": 0.3858267716535433,
                    "duration": 0.3125
                },
                {
                    "name": "C4",
                    "midi": 60,
                    "time": 560.625,
                    "velocity": 0.3858267716535433,
                    "duration": 0.625
                },
                {
                    "name": "C3",
                    "midi": 48,
                    "time": 561.25,
                    "velocity": 0.3858267716535433,
                    "duration": 0.3125
                },
                {
                    "name": "E3",
                    "midi": 52,
                    "time": 561.5625,
                    "velocity": 0.3858267716535433,
                    "duration": 0.3125
                },
                {
                    "name": "D3",
                    "midi": 50,
                    "time": 561.875,
                    "velocity": 0.3858267716535433,
                    "duration": 0.3125
                },
                {
                    "name": "C3",
                    "midi": 48,
                    "time": 562.1875,
                    "velocity": 0.3858267716535433,
                    "duration": 0.3125
                },
                {
                    "name": "F2",
                    "midi": 41,
                    "time": 562.5,
                    "velocity": 0.3858267716535433,
                    "duration": 0.625
                },
                {
                    "name": "F3",
                    "midi": 53,
                    "time": 563.125,
                    "velocity": 0.3858267716535433,
                    "duration": 0.3125
                },
                {
                    "name": "A3",
                    "midi": 57,
                    "time": 563.4375,
                    "velocity": 0.3858267716535433,
                    "duration": 0.3125
                },
                {
                    "name": "G3",
                    "midi": 55,
                    "time": 563.75,
                    "velocity": 0.3858267716535433,
                    "duration": 0.3125
                },
                {
                    "name": "F3",
                    "midi": 53,
                    "time": 564.0625,
                    "velocity": 0.3858267716535433,
                    "duration": 0.3125
                },
                {
                    "name": "C3",
                    "midi": 48,
                    "time": 564.375,
                    "velocity": 0.3858267716535433,
                    "duration": 0.625
                },
                {
                    "name": "C#3",
                    "midi": 49,
                    "time": 565,
                    "velocity": 0.3858267716535433,
                    "duration": 0.3125
                },
                {
                    "name": "E3",
                    "midi": 52,
                    "time": 565.3125,
                    "velocity": 0.3858267716535433,
                    "duration": 0.3125
                },
                {
                    "name": "D3",
                    "midi": 50,
                    "time": 565.625,
                    "velocity": 0.3858267716535433,
                    "duration": 0.3125
                },
                {
                    "name": "C#3",
                    "midi": 49,
                    "time": 565.9375,
                    "velocity": 0.3858267716535433,
                    "duration": 0.3125
                },
                {
                    "name": "D3",
                    "midi": 50,
                    "time": 566.25,
                    "velocity": 0.3858267716535433,
                    "duration": 0.625
                },
                {
                    "name": "A3",
                    "midi": 57,
                    "time": 566.875,
                    "velocity": 0.3858267716535433,
                    "duration": 0.625
                },
                {
                    "name": "A2",
                    "midi": 45,
                    "time": 567.5,
                    "velocity": 0.3858267716535433,
                    "duration": 0.625
                },
                {
                    "name": "D3",
                    "midi": 50,
                    "time": 568.125,
                    "velocity": 0.3858267716535433,
                    "duration": 1.875
                },
                {
                    "name": "D3",
                    "midi": 50,
                    "time": 570,
                    "velocity": 0.3858267716535433,
                    "duration": 0.3125
                },
                {
                    "name": "D3",
                    "midi": 50,
                    "time": 570.3125,
                    "velocity": 0.3858267716535433,
                    "duration": 0.3125
                },
                {
                    "name": "D3",
                    "midi": 50,
                    "time": 570.625,
                    "velocity": 0.3858267716535433,
                    "duration": 0.3125
                },
                {
                    "name": "D3",
                    "midi": 50,
                    "time": 570.9375,
                    "velocity": 0.3858267716535433,
                    "duration": 0.3125
                },
                {
                    "name": "D3",
                    "midi": 50,
                    "time": 571.25,
                    "velocity": 0.3858267716535433,
                    "duration": 0.3125
                },
                {
                    "name": "D3",
                    "midi": 50,
                    "time": 571.5625,
                    "velocity": 0.3858267716535433,
                    "duration": 0.3125
                },
                {
                    "name": "A3",
                    "midi": 57,
                    "time": 571.875,
                    "velocity": 0.3858267716535433,
                    "duration": 0.3125
                },
                {
                    "name": "A3",
                    "midi": 57,
                    "time": 572.1875,
                    "velocity": 0.3858267716535433,
                    "duration": 0.3125
                },
                {
                    "name": "A3",
                    "midi": 57,
                    "time": 572.5,
                    "velocity": 0.3858267716535433,
                    "duration": 0.3125
                },
                {
                    "name": "A3",
                    "midi": 57,
                    "time": 572.8125,
                    "velocity": 0.3858267716535433,
                    "duration": 0.3125
                },
                {
                    "name": "A3",
                    "midi": 57,
                    "time": 573.125,
                    "velocity": 0.3858267716535433,
                    "duration": 0.3125
                },
                {
                    "name": "A3",
                    "midi": 57,
                    "time": 573.4375,
                    "velocity": 0.3858267716535433,
                    "duration": 0.3125
                },
                {
                    "name": "D3",
                    "midi": 50,
                    "time": 573.75,
                    "velocity": 0.3858267716535433,
                    "duration": 0.3125
                },
                {
                    "name": "D3",
                    "midi": 50,
                    "time": 574.0625,
                    "velocity": 0.3858267716535433,
                    "duration": 0.3125
                },
                {
                    "name": "D3",
                    "midi": 50,
                    "time": 574.375,
                    "velocity": 0.3858267716535433,
                    "duration": 0.3125
                },
                {
                    "name": "D3",
                    "midi": 50,
                    "time": 574.6875,
                    "velocity": 0.3858267716535433,
                    "duration": 0.3125
                },
                {
                    "name": "D3",
                    "midi": 50,
                    "time": 575,
                    "velocity": 0.3858267716535433,
                    "duration": 0.3125
                },
                {
                    "name": "D3",
                    "midi": 50,
                    "time": 575.3125,
                    "velocity": 0.3858267716535433,
                    "duration": 0.3125
                },
                {
                    "name": "C3",
                    "midi": 48,
                    "time": 575.625,
                    "velocity": 0.3858267716535433,
                    "duration": 0.3125
                },
                {
                    "name": "C3",
                    "midi": 48,
                    "time": 575.9375,
                    "velocity": 0.3858267716535433,
                    "duration": 0.3125
                },
                {
                    "name": "C3",
                    "midi": 48,
                    "time": 576.25,
                    "velocity": 0.3858267716535433,
                    "duration": 0.3125
                },
                {
                    "name": "C3",
                    "midi": 48,
                    "time": 576.5625,
                    "velocity": 0.3858267716535433,
                    "duration": 0.3125
                },
                {
                    "name": "C3",
                    "midi": 48,
                    "time": 576.875,
                    "velocity": 0.3858267716535433,
                    "duration": 0.3125
                },
                {
                    "name": "C3",
                    "midi": 48,
                    "time": 577.1875,
                    "velocity": 0.3858267716535433,
                    "duration": 0.3125
                },
                {
                    "name": "F3",
                    "midi": 53,
                    "time": 577.5,
                    "velocity": 0.3858267716535433,
                    "duration": 0.3125
                },
                {
                    "name": "F3",
                    "midi": 53,
                    "time": 577.8125,
                    "velocity": 0.3858267716535433,
                    "duration": 0.3125
                },
                {
                    "name": "F3",
                    "midi": 53,
                    "time": 578.125,
                    "velocity": 0.3858267716535433,
                    "duration": 0.3125
                },
                {
                    "name": "F3",
                    "midi": 53,
                    "time": 578.4375,
                    "velocity": 0.3858267716535433,
                    "duration": 0.3125
                },
                {
                    "name": "F3",
                    "midi": 53,
                    "time": 578.75,
                    "velocity": 0.3858267716535433,
                    "duration": 0.3125
                },
                {
                    "name": "F3",
                    "midi": 53,
                    "time": 579.0625,
                    "velocity": 0.3858267716535433,
                    "duration": 0.3125
                },
                {
                    "name": "C4",
                    "midi": 60,
                    "time": 579.375,
                    "velocity": 0.3858267716535433,
                    "duration": 0.3125
                },
                {
                    "name": "C4",
                    "midi": 60,
                    "time": 579.6875,
                    "velocity": 0.3858267716535433,
                    "duration": 0.3125
                },
                {
                    "name": "C#4",
                    "midi": 61,
                    "time": 580,
                    "velocity": 0.3858267716535433,
                    "duration": 0.3125
                },
                {
                    "name": "C#4",
                    "midi": 61,
                    "time": 580.3125,
                    "velocity": 0.3858267716535433,
                    "duration": 0.3125
                },
                {
                    "name": "C#4",
                    "midi": 61,
                    "time": 580.625,
                    "velocity": 0.3858267716535433,
                    "duration": 0.3125
                },
                {
                    "name": "C#4",
                    "midi": 61,
                    "time": 580.9375,
                    "velocity": 0.3858267716535433,
                    "duration": 0.3125
                },
                {
                    "name": "D4",
                    "midi": 62,
                    "time": 581.25,
                    "velocity": 0.3858267716535433,
                    "duration": 0.3125
                },
                {
                    "name": "D4",
                    "midi": 62,
                    "time": 581.5625,
                    "velocity": 0.3858267716535433,
                    "duration": 0.3125
                },
                {
                    "name": "D3",
                    "midi": 50,
                    "time": 581.875,
                    "velocity": 0.3858267716535433,
                    "duration": 0.3125
                },
                {
                    "name": "D3",
                    "midi": 50,
                    "time": 582.1875,
                    "velocity": 0.3858267716535433,
                    "duration": 0.3125
                },
                {
                    "name": "D3",
                    "midi": 50,
                    "time": 582.5,
                    "velocity": 0.3858267716535433,
                    "duration": 0.3125
                },
                {
                    "name": "D3",
                    "midi": 50,
                    "time": 582.8125,
                    "velocity": 0.3858267716535433,
                    "duration": 0.3125
                },
                {
                    "name": "A3",
                    "midi": 57,
                    "time": 583.125,
                    "velocity": 0.3858267716535433,
                    "duration": 0.3125
                },
                {
                    "name": "A3",
                    "midi": 57,
                    "time": 583.4375,
                    "velocity": 0.3858267716535433,
                    "duration": 0.3125
                },
                {
                    "name": "A3",
                    "midi": 57,
                    "time": 583.75,
                    "velocity": 0.3858267716535433,
                    "duration": 0.3125
                },
                {
                    "name": "A3",
                    "midi": 57,
                    "time": 584.0625,
                    "velocity": 0.3858267716535433,
                    "duration": 0.3125
                },
                {
                    "name": "A3",
                    "midi": 57,
                    "time": 584.375,
                    "velocity": 0.3858267716535433,
                    "duration": 0.3125
                },
                {
                    "name": "A3",
                    "midi": 57,
                    "time": 584.6875,
                    "velocity": 0.3858267716535433,
                    "duration": 0.3125
                },
                {
                    "name": "D3",
                    "midi": 50,
                    "time": 585,
                    "velocity": 0.3858267716535433,
                    "duration": 0.3125
                },
                {
                    "name": "D3",
                    "midi": 50,
                    "time": 585.3125,
                    "velocity": 0.3858267716535433,
                    "duration": 0.3125
                },
                {
                    "name": "D3",
                    "midi": 50,
                    "time": 585.625,
                    "velocity": 0.3858267716535433,
                    "duration": 0.3125
                },
                {
                    "name": "D3",
                    "midi": 50,
                    "time": 585.9375,
                    "velocity": 0.3858267716535433,
                    "duration": 0.3125
                },
                {
                    "name": "D3",
                    "midi": 50,
                    "time": 586.25,
                    "velocity": 0.3858267716535433,
                    "duration": 0.3125
                },
                {
                    "name": "D3",
                    "midi": 50,
                    "time": 586.5625,
                    "velocity": 0.3858267716535433,
                    "duration": 0.3125
                },
                {
                    "name": "A3",
                    "midi": 57,
                    "time": 586.875,
                    "velocity": 0.3858267716535433,
                    "duration": 0.3125
                },
                {
                    "name": "A3",
                    "midi": 57,
                    "time": 587.1875,
                    "velocity": 0.3858267716535433,
                    "duration": 0.3125
                },
                {
                    "name": "A3",
                    "midi": 57,
                    "time": 587.5,
                    "velocity": 0.3858267716535433,
                    "duration": 0.3125
                },
                {
                    "name": "A3",
                    "midi": 57,
                    "time": 587.8125,
                    "velocity": 0.3858267716535433,
                    "duration": 0.3125
                },
                {
                    "name": "A3",
                    "midi": 57,
                    "time": 588.125,
                    "velocity": 0.3858267716535433,
                    "duration": 0.3125
                },
                {
                    "name": "A3",
                    "midi": 57,
                    "time": 588.4375,
                    "velocity": 0.3858267716535433,
                    "duration": 0.3125
                },
                {
                    "name": "D3",
                    "midi": 50,
                    "time": 588.75,
                    "velocity": 0.3858267716535433,
                    "duration": 0.3125
                },
                {
                    "name": "D3",
                    "midi": 50,
                    "time": 589.0625,
                    "velocity": 0.3858267716535433,
                    "duration": 0.3125
                },
                {
                    "name": "D3",
                    "midi": 50,
                    "time": 589.375,
                    "velocity": 0.3858267716535433,
                    "duration": 0.3125
                },
                {
                    "name": "D3",
                    "midi": 50,
                    "time": 589.6875,
                    "velocity": 0.3858267716535433,
                    "duration": 0.3125
                },
                {
                    "name": "D3",
                    "midi": 50,
                    "time": 590,
                    "velocity": 0.3858267716535433,
                    "duration": 0.3125
                },
                {
                    "name": "D3",
                    "midi": 50,
                    "time": 590.3125,
                    "velocity": 0.3858267716535433,
                    "duration": 0.3125
                },
                {
                    "name": "C3",
                    "midi": 48,
                    "time": 590.625,
                    "velocity": 0.3858267716535433,
                    "duration": 0.3125
                },
                {
                    "name": "C3",
                    "midi": 48,
                    "time": 590.9375,
                    "velocity": 0.3858267716535433,
                    "duration": 0.3125
                },
                {
                    "name": "C3",
                    "midi": 48,
                    "time": 591.25,
                    "velocity": 0.3858267716535433,
                    "duration": 0.3125
                },
                {
                    "name": "C3",
                    "midi": 48,
                    "time": 591.5625,
                    "velocity": 0.3858267716535433,
                    "duration": 0.3125
                },
                {
                    "name": "C3",
                    "midi": 48,
                    "time": 591.875,
                    "velocity": 0.3858267716535433,
                    "duration": 0.3125
                },
                {
                    "name": "C3",
                    "midi": 48,
                    "time": 592.1875,
                    "velocity": 0.3858267716535433,
                    "duration": 0.3125
                },
                {
                    "name": "F3",
                    "midi": 53,
                    "time": 592.5,
                    "velocity": 0.3858267716535433,
                    "duration": 0.3125
                },
                {
                    "name": "F3",
                    "midi": 53,
                    "time": 592.8125,
                    "velocity": 0.3858267716535433,
                    "duration": 0.3125
                },
                {
                    "name": "F3",
                    "midi": 53,
                    "time": 593.125,
                    "velocity": 0.3858267716535433,
                    "duration": 0.3125
                },
                {
                    "name": "F3",
                    "midi": 53,
                    "time": 593.4375,
                    "velocity": 0.3858267716535433,
                    "duration": 0.3125
                },
                {
                    "name": "F3",
                    "midi": 53,
                    "time": 593.75,
                    "velocity": 0.3858267716535433,
                    "duration": 0.3125
                },
                {
                    "name": "F3",
                    "midi": 53,
                    "time": 594.0625,
                    "velocity": 0.3858267716535433,
                    "duration": 0.3125
                },
                {
                    "name": "C4",
                    "midi": 60,
                    "time": 594.375,
                    "velocity": 0.3858267716535433,
                    "duration": 0.3125
                },
                {
                    "name": "C4",
                    "midi": 60,
                    "time": 594.6875,
                    "velocity": 0.3858267716535433,
                    "duration": 0.3125
                },
                {
                    "name": "C#4",
                    "midi": 61,
                    "time": 595,
                    "velocity": 0.3858267716535433,
                    "duration": 0.3125
                },
                {
                    "name": "C#4",
                    "midi": 61,
                    "time": 595.3125,
                    "velocity": 0.3858267716535433,
                    "duration": 0.3125
                },
                {
                    "name": "C#4",
                    "midi": 61,
                    "time": 595.625,
                    "velocity": 0.3858267716535433,
                    "duration": 0.3125
                },
                {
                    "name": "C#4",
                    "midi": 61,
                    "time": 595.9375,
                    "velocity": 0.3858267716535433,
                    "duration": 0.3125
                },
                {
                    "name": "D4",
                    "midi": 62,
                    "time": 596.25,
                    "velocity": 0.3858267716535433,
                    "duration": 0.3125
                },
                {
                    "name": "D3",
                    "midi": 50,
                    "time": 596.5625,
                    "velocity": 0.3858267716535433,
                    "duration": 0.3125
                },
                {
                    "name": "G3",
                    "midi": 55,
                    "time": 596.875,
                    "velocity": 0.3858267716535433,
                    "duration": 0.3125
                },
                {
                    "name": "G3",
                    "midi": 55,
                    "time": 597.1875,
                    "velocity": 0.3858267716535433,
                    "duration": 0.3125
                },
                {
                    "name": "A3",
                    "midi": 57,
                    "time": 597.5,
                    "velocity": 0.3858267716535433,
                    "duration": 0.3125
                },
                {
                    "name": "A3",
                    "midi": 57,
                    "time": 597.8125,
                    "velocity": 0.3858267716535433,
                    "duration": 0.3125
                },
                {
                    "name": "D3",
                    "midi": 50,
                    "time": 598.125,
                    "velocity": 0.3858267716535433,
                    "duration": 1.875
                },
                {
                    "name": "D3",
                    "midi": 50,
                    "time": 600,
                    "velocity": 0.3858267716535433,
                    "duration": 0.15625
                },
                {
                    "name": "D4",
                    "midi": 62,
                    "time": 600.15625,
                    "velocity": 0.3858267716535433,
                    "duration": 0.15625
                },
                {
                    "name": "D4",
                    "midi": 62,
                    "time": 600.3125,
                    "velocity": 0.3858267716535433,
                    "duration": 0.15625
                },
                {
                    "name": "D3",
                    "midi": 50,
                    "time": 600.46875,
                    "velocity": 0.3858267716535433,
                    "duration": 0.15625
                },
                {
                    "name": "D3",
                    "midi": 50,
                    "time": 600.625,
                    "velocity": 0.3858267716535433,
                    "duration": 0.15625
                },
                {
                    "name": "D4",
                    "midi": 62,
                    "time": 600.78125,
                    "velocity": 0.3858267716535433,
                    "duration": 0.15625
                },
                {
                    "name": "D4",
                    "midi": 62,
                    "time": 600.9375,
                    "velocity": 0.3858267716535433,
                    "duration": 0.15625
                },
                {
                    "name": "D3",
                    "midi": 50,
                    "time": 601.09375,
                    "velocity": 0.3858267716535433,
                    "duration": 0.15625
                },
                {
                    "name": "D3",
                    "midi": 50,
                    "time": 601.25,
                    "velocity": 0.3858267716535433,
                    "duration": 0.15625
                },
                {
                    "name": "D4",
                    "midi": 62,
                    "time": 601.40625,
                    "velocity": 0.3858267716535433,
                    "duration": 0.15625
                },
                {
                    "name": "D4",
                    "midi": 62,
                    "time": 601.5625,
                    "velocity": 0.3858267716535433,
                    "duration": 0.15625
                },
                {
                    "name": "D3",
                    "midi": 50,
                    "time": 601.71875,
                    "velocity": 0.3858267716535433,
                    "duration": 0.15625
                },
                {
                    "name": "A2",
                    "midi": 45,
                    "time": 601.875,
                    "velocity": 0.3858267716535433,
                    "duration": 0.625
                },
                {
                    "name": "A3",
                    "midi": 57,
                    "time": 602.5,
                    "velocity": 0.3858267716535433,
                    "duration": 0.625
                },
                {
                    "name": "A2",
                    "midi": 45,
                    "time": 603.125,
                    "velocity": 0.3858267716535433,
                    "duration": 0.625
                },
                {
                    "name": "D3",
                    "midi": 50,
                    "time": 603.75,
                    "velocity": 0.3858267716535433,
                    "duration": 0.15625
                },
                {
                    "name": "D4",
                    "midi": 62,
                    "time": 603.90625,
                    "velocity": 0.3858267716535433,
                    "duration": 0.15625
                },
                {
                    "name": "D4",
                    "midi": 62,
                    "time": 604.0625,
                    "velocity": 0.3858267716535433,
                    "duration": 0.15625
                },
                {
                    "name": "D3",
                    "midi": 50,
                    "time": 604.21875,
                    "velocity": 0.3858267716535433,
                    "duration": 0.15625
                },
                {
                    "name": "D3",
                    "midi": 50,
                    "time": 604.375,
                    "velocity": 0.3858267716535433,
                    "duration": 0.15625
                },
                {
                    "name": "D4",
                    "midi": 62,
                    "time": 604.53125,
                    "velocity": 0.3858267716535433,
                    "duration": 0.15625
                },
                {
                    "name": "D4",
                    "midi": 62,
                    "time": 604.6875,
                    "velocity": 0.3858267716535433,
                    "duration": 0.15625
                },
                {
                    "name": "D3",
                    "midi": 50,
                    "time": 604.84375,
                    "velocity": 0.3858267716535433,
                    "duration": 0.15625
                },
                {
                    "name": "D3",
                    "midi": 50,
                    "time": 605,
                    "velocity": 0.3858267716535433,
                    "duration": 0.15625
                },
                {
                    "name": "D4",
                    "midi": 62,
                    "time": 605.15625,
                    "velocity": 0.3858267716535433,
                    "duration": 0.15625
                },
                {
                    "name": "D4",
                    "midi": 62,
                    "time": 605.3125,
                    "velocity": 0.3858267716535433,
                    "duration": 0.15625
                },
                {
                    "name": "D3",
                    "midi": 50,
                    "time": 605.46875,
                    "velocity": 0.3858267716535433,
                    "duration": 0.15625
                },
                {
                    "name": "C3",
                    "midi": 48,
                    "time": 605.625,
                    "velocity": 0.3858267716535433,
                    "duration": 0.625
                },
                {
                    "name": "C4",
                    "midi": 60,
                    "time": 606.25,
                    "velocity": 0.3858267716535433,
                    "duration": 0.625
                },
                {
                    "name": "C3",
                    "midi": 48,
                    "time": 606.875,
                    "velocity": 0.3858267716535433,
                    "duration": 0.625
                },
                {
                    "name": "F3",
                    "midi": 53,
                    "time": 607.5,
                    "velocity": 0.3858267716535433,
                    "duration": 0.15625
                },
                {
                    "name": "A3",
                    "midi": 57,
                    "time": 607.65625,
                    "velocity": 0.3858267716535433,
                    "duration": 0.15625
                },
                {
                    "name": "A3",
                    "midi": 57,
                    "time": 607.8125,
                    "velocity": 0.3858267716535433,
                    "duration": 0.15625
                },
                {
                    "name": "F3",
                    "midi": 53,
                    "time": 607.96875,
                    "velocity": 0.3858267716535433,
                    "duration": 0.15625
                },
                {
                    "name": "F3",
                    "midi": 53,
                    "time": 608.125,
                    "velocity": 0.3858267716535433,
                    "duration": 0.15625
                },
                {
                    "name": "A3",
                    "midi": 57,
                    "time": 608.28125,
                    "velocity": 0.3858267716535433,
                    "duration": 0.15625
                },
                {
                    "name": "A3",
                    "midi": 57,
                    "time": 608.4375,
                    "velocity": 0.3858267716535433,
                    "duration": 0.15625
                },
                {
                    "name": "F3",
                    "midi": 53,
                    "time": 608.59375,
                    "velocity": 0.3858267716535433,
                    "duration": 0.15625
                },
                {
                    "name": "F3",
                    "midi": 53,
                    "time": 608.75,
                    "velocity": 0.3858267716535433,
                    "duration": 0.15625
                },
                {
                    "name": "A3",
                    "midi": 57,
                    "time": 608.90625,
                    "velocity": 0.3858267716535433,
                    "duration": 0.15625
                },
                {
                    "name": "A3",
                    "midi": 57,
                    "time": 609.0625,
                    "velocity": 0.3858267716535433,
                    "duration": 0.15625
                },
                {
                    "name": "F3",
                    "midi": 53,
                    "time": 609.21875,
                    "velocity": 0.3858267716535433,
                    "duration": 0.15625
                },
                {
                    "name": "C3",
                    "midi": 48,
                    "time": 609.375,
                    "velocity": 0.3858267716535433,
                    "duration": 0.625
                },
                {
                    "name": "C#3",
                    "midi": 49,
                    "time": 610,
                    "velocity": 0.3858267716535433,
                    "duration": 0.9375
                },
                {
                    "name": "C#3",
                    "midi": 49,
                    "time": 610.9375,
                    "velocity": 0.3858267716535433,
                    "duration": 0.3125
                },
                {
                    "name": "D3",
                    "midi": 50,
                    "time": 611.25,
                    "velocity": 0.3858267716535433,
                    "duration": 0.15625
                },
                {
                    "name": "D4",
                    "midi": 62,
                    "time": 611.40625,
                    "velocity": 0.3858267716535433,
                    "duration": 0.15625
                },
                {
                    "name": "D4",
                    "midi": 62,
                    "time": 611.5625,
                    "velocity": 0.3858267716535433,
                    "duration": 0.15625
                },
                {
                    "name": "D3",
                    "midi": 50,
                    "time": 611.71875,
                    "velocity": 0.3858267716535433,
                    "duration": 0.15625
                },
                {
                    "name": "D3",
                    "midi": 50,
                    "time": 611.875,
                    "velocity": 0.3858267716535433,
                    "duration": 0.15625
                },
                {
                    "name": "D4",
                    "midi": 62,
                    "time": 612.03125,
                    "velocity": 0.3858267716535433,
                    "duration": 0.15625
                },
                {
                    "name": "D4",
                    "midi": 62,
                    "time": 612.1875,
                    "velocity": 0.3858267716535433,
                    "duration": 0.15625
                },
                {
                    "name": "D3",
                    "midi": 50,
                    "time": 612.34375,
                    "velocity": 0.3858267716535433,
                    "duration": 0.15625
                },
                {
                    "name": "D3",
                    "midi": 50,
                    "time": 612.5,
                    "velocity": 0.3858267716535433,
                    "duration": 0.15625
                },
                {
                    "name": "D4",
                    "midi": 62,
                    "time": 612.65625,
                    "velocity": 0.3858267716535433,
                    "duration": 0.15625
                },
                {
                    "name": "D4",
                    "midi": 62,
                    "time": 612.8125,
                    "velocity": 0.3858267716535433,
                    "duration": 0.15625
                },
                {
                    "name": "D3",
                    "midi": 50,
                    "time": 612.96875,
                    "velocity": 0.3858267716535433,
                    "duration": 0.15625
                },
                {
                    "name": "A2",
                    "midi": 45,
                    "time": 613.125,
                    "velocity": 0.3858267716535433,
                    "duration": 0.625
                },
                {
                    "name": "A3",
                    "midi": 57,
                    "time": 613.75,
                    "velocity": 0.3858267716535433,
                    "duration": 0.625
                },
                {
                    "name": "A2",
                    "midi": 45,
                    "time": 614.375,
                    "velocity": 0.3858267716535433,
                    "duration": 0.625
                },
                {
                    "name": "D3",
                    "midi": 50,
                    "time": 615,
                    "velocity": 0.3858267716535433,
                    "duration": 0.15625
                },
                {
                    "name": "D4",
                    "midi": 62,
                    "time": 615.15625,
                    "velocity": 0.3858267716535433,
                    "duration": 0.15625
                },
                {
                    "name": "D4",
                    "midi": 62,
                    "time": 615.3125,
                    "velocity": 0.3858267716535433,
                    "duration": 0.15625
                },
                {
                    "name": "D3",
                    "midi": 50,
                    "time": 615.46875,
                    "velocity": 0.3858267716535433,
                    "duration": 0.15625
                },
                {
                    "name": "D3",
                    "midi": 50,
                    "time": 615.625,
                    "velocity": 0.3858267716535433,
                    "duration": 0.15625
                },
                {
                    "name": "D4",
                    "midi": 62,
                    "time": 615.78125,
                    "velocity": 0.3858267716535433,
                    "duration": 0.15625
                },
                {
                    "name": "D4",
                    "midi": 62,
                    "time": 615.9375,
                    "velocity": 0.3858267716535433,
                    "duration": 0.15625
                },
                {
                    "name": "D3",
                    "midi": 50,
                    "time": 616.09375,
                    "velocity": 0.3858267716535433,
                    "duration": 0.15625
                },
                {
                    "name": "D3",
                    "midi": 50,
                    "time": 616.25,
                    "velocity": 0.3858267716535433,
                    "duration": 0.15625
                },
                {
                    "name": "D4",
                    "midi": 62,
                    "time": 616.40625,
                    "velocity": 0.3858267716535433,
                    "duration": 0.15625
                },
                {
                    "name": "D4",
                    "midi": 62,
                    "time": 616.5625,
                    "velocity": 0.3858267716535433,
                    "duration": 0.15625
                },
                {
                    "name": "D3",
                    "midi": 50,
                    "time": 616.71875,
                    "velocity": 0.3858267716535433,
                    "duration": 0.15625
                },
                {
                    "name": "A2",
                    "midi": 45,
                    "time": 616.875,
                    "velocity": 0.3858267716535433,
                    "duration": 0.625
                },
                {
                    "name": "A3",
                    "midi": 57,
                    "time": 617.5,
                    "velocity": 0.3858267716535433,
                    "duration": 0.625
                },
                {
                    "name": "A2",
                    "midi": 45,
                    "time": 618.125,
                    "velocity": 0.3858267716535433,
                    "duration": 0.625
                },
                {
                    "name": "D3",
                    "midi": 50,
                    "time": 618.75,
                    "velocity": 0.3858267716535433,
                    "duration": 0.15625
                },
                {
                    "name": "D4",
                    "midi": 62,
                    "time": 618.90625,
                    "velocity": 0.3858267716535433,
                    "duration": 0.15625
                },
                {
                    "name": "D4",
                    "midi": 62,
                    "time": 619.0625,
                    "velocity": 0.3858267716535433,
                    "duration": 0.15625
                },
                {
                    "name": "D3",
                    "midi": 50,
                    "time": 619.21875,
                    "velocity": 0.3858267716535433,
                    "duration": 0.15625
                },
                {
                    "name": "D3",
                    "midi": 50,
                    "time": 619.375,
                    "velocity": 0.3858267716535433,
                    "duration": 0.15625
                },
                {
                    "name": "D4",
                    "midi": 62,
                    "time": 619.53125,
                    "velocity": 0.3858267716535433,
                    "duration": 0.15625
                },
                {
                    "name": "D4",
                    "midi": 62,
                    "time": 619.6875,
                    "velocity": 0.3858267716535433,
                    "duration": 0.15625
                },
                {
                    "name": "D3",
                    "midi": 50,
                    "time": 619.84375,
                    "velocity": 0.3858267716535433,
                    "duration": 0.15625
                },
                {
                    "name": "D3",
                    "midi": 50,
                    "time": 620,
                    "velocity": 0.3858267716535433,
                    "duration": 0.15625
                },
                {
                    "name": "D4",
                    "midi": 62,
                    "time": 620.15625,
                    "velocity": 0.3858267716535433,
                    "duration": 0.15625
                },
                {
                    "name": "D4",
                    "midi": 62,
                    "time": 620.3125,
                    "velocity": 0.3858267716535433,
                    "duration": 0.15625
                },
                {
                    "name": "D3",
                    "midi": 50,
                    "time": 620.46875,
                    "velocity": 0.3858267716535433,
                    "duration": 0.15625
                },
                {
                    "name": "C3",
                    "midi": 48,
                    "time": 620.625,
                    "velocity": 0.3858267716535433,
                    "duration": 0.625
                },
                {
                    "name": "C4",
                    "midi": 60,
                    "time": 621.25,
                    "velocity": 0.3858267716535433,
                    "duration": 0.625
                },
                {
                    "name": "C3",
                    "midi": 48,
                    "time": 621.875,
                    "velocity": 0.3858267716535433,
                    "duration": 0.625
                },
                {
                    "name": "F3",
                    "midi": 53,
                    "time": 622.5,
                    "velocity": 0.3858267716535433,
                    "duration": 0.15625
                },
                {
                    "name": "A3",
                    "midi": 57,
                    "time": 622.65625,
                    "velocity": 0.3858267716535433,
                    "duration": 0.15625
                },
                {
                    "name": "A3",
                    "midi": 57,
                    "time": 622.8125,
                    "velocity": 0.3858267716535433,
                    "duration": 0.15625
                },
                {
                    "name": "F3",
                    "midi": 53,
                    "time": 622.96875,
                    "velocity": 0.3858267716535433,
                    "duration": 0.15625
                },
                {
                    "name": "F3",
                    "midi": 53,
                    "time": 623.125,
                    "velocity": 0.3858267716535433,
                    "duration": 0.15625
                },
                {
                    "name": "A3",
                    "midi": 57,
                    "time": 623.28125,
                    "velocity": 0.3858267716535433,
                    "duration": 0.15625
                },
                {
                    "name": "A3",
                    "midi": 57,
                    "time": 623.4375,
                    "velocity": 0.3858267716535433,
                    "duration": 0.15625
                },
                {
                    "name": "F3",
                    "midi": 53,
                    "time": 623.59375,
                    "velocity": 0.3858267716535433,
                    "duration": 0.15625
                },
                {
                    "name": "F3",
                    "midi": 53,
                    "time": 623.75,
                    "velocity": 0.3858267716535433,
                    "duration": 0.15625
                },
                {
                    "name": "A3",
                    "midi": 57,
                    "time": 623.90625,
                    "velocity": 0.3858267716535433,
                    "duration": 0.15625
                },
                {
                    "name": "A3",
                    "midi": 57,
                    "time": 624.0625,
                    "velocity": 0.3858267716535433,
                    "duration": 0.15625
                },
                {
                    "name": "F3",
                    "midi": 53,
                    "time": 624.21875,
                    "velocity": 0.3858267716535433,
                    "duration": 0.15625
                },
                {
                    "name": "C3",
                    "midi": 48,
                    "time": 624.375,
                    "velocity": 0.3858267716535433,
                    "duration": 0.625
                },
                {
                    "name": "C#3",
                    "midi": 49,
                    "time": 625,
                    "velocity": 0.3858267716535433,
                    "duration": 0.9375
                },
                {
                    "name": "C#3",
                    "midi": 49,
                    "time": 625.9375,
                    "velocity": 0.3858267716535433,
                    "duration": 0.3125
                },
                {
                    "name": "D3",
                    "midi": 50,
                    "time": 626.25,
                    "velocity": 0.3858267716535433,
                    "duration": 0.625
                },
                {
                    "name": "A3",
                    "midi": 57,
                    "time": 626.875,
                    "velocity": 0.3858267716535433,
                    "duration": 0.625
                },
                {
                    "name": "A2",
                    "midi": 45,
                    "time": 627.5,
                    "velocity": 0.3858267716535433,
                    "duration": 0.625
                },
                {
                    "name": "D3",
                    "midi": 50,
                    "time": 628.125,
                    "velocity": 0.3858267716535433,
                    "duration": 1.875
                },
                {
                    "name": "D3",
                    "midi": 50,
                    "time": 630,
                    "velocity": 0.3858267716535433,
                    "duration": 0.15625
                },
                {
                    "name": "D4",
                    "midi": 62,
                    "time": 630.15625,
                    "velocity": 0.3858267716535433,
                    "duration": 0.15625
                },
                {
                    "name": "D4",
                    "midi": 62,
                    "time": 630.3125,
                    "velocity": 0.3858267716535433,
                    "duration": 0.15625
                },
                {
                    "name": "D3",
                    "midi": 50,
                    "time": 630.46875,
                    "velocity": 0.3858267716535433,
                    "duration": 0.15625
                },
                {
                    "name": "D3",
                    "midi": 50,
                    "time": 630.625,
                    "velocity": 0.3858267716535433,
                    "duration": 0.15625
                },
                {
                    "name": "D4",
                    "midi": 62,
                    "time": 630.78125,
                    "velocity": 0.3858267716535433,
                    "duration": 0.15625
                },
                {
                    "name": "D4",
                    "midi": 62,
                    "time": 630.9375,
                    "velocity": 0.3858267716535433,
                    "duration": 0.15625
                },
                {
                    "name": "D3",
                    "midi": 50,
                    "time": 631.09375,
                    "velocity": 0.3858267716535433,
                    "duration": 0.15625
                },
                {
                    "name": "D3",
                    "midi": 50,
                    "time": 631.25,
                    "velocity": 0.3858267716535433,
                    "duration": 0.15625
                },
                {
                    "name": "D4",
                    "midi": 62,
                    "time": 631.40625,
                    "velocity": 0.3858267716535433,
                    "duration": 0.15625
                },
                {
                    "name": "D4",
                    "midi": 62,
                    "time": 631.5625,
                    "velocity": 0.3858267716535433,
                    "duration": 0.15625
                },
                {
                    "name": "D3",
                    "midi": 50,
                    "time": 631.71875,
                    "velocity": 0.3858267716535433,
                    "duration": 0.15625
                },
                {
                    "name": "G2",
                    "midi": 43,
                    "time": 631.875,
                    "velocity": 0.3858267716535433,
                    "duration": 0.15625
                },
                {
                    "name": "G3",
                    "midi": 55,
                    "time": 632.03125,
                    "velocity": 0.3858267716535433,
                    "duration": 0.15625
                },
                {
                    "name": "G3",
                    "midi": 55,
                    "time": 632.1875,
                    "velocity": 0.3858267716535433,
                    "duration": 0.15625
                },
                {
                    "name": "G2",
                    "midi": 43,
                    "time": 632.34375,
                    "velocity": 0.3858267716535433,
                    "duration": 0.15625
                },
                {
                    "name": "G2",
                    "midi": 43,
                    "time": 632.5,
                    "velocity": 0.3858267716535433,
                    "duration": 0.15625
                },
                {
                    "name": "G3",
                    "midi": 55,
                    "time": 632.65625,
                    "velocity": 0.3858267716535433,
                    "duration": 0.15625
                },
                {
                    "name": "G3",
                    "midi": 55,
                    "time": 632.8125,
                    "velocity": 0.3858267716535433,
                    "duration": 0.15625
                },
                {
                    "name": "G2",
                    "midi": 43,
                    "time": 632.96875,
                    "velocity": 0.3858267716535433,
                    "duration": 0.15625
                },
                {
                    "name": "G2",
                    "midi": 43,
                    "time": 633.125,
                    "velocity": 0.3858267716535433,
                    "duration": 0.15625
                },
                {
                    "name": "G3",
                    "midi": 55,
                    "time": 633.28125,
                    "velocity": 0.3858267716535433,
                    "duration": 0.15625
                },
                {
                    "name": "G3",
                    "midi": 55,
                    "time": 633.4375,
                    "velocity": 0.3858267716535433,
                    "duration": 0.15625
                },
                {
                    "name": "G2",
                    "midi": 43,
                    "time": 633.59375,
                    "velocity": 0.3858267716535433,
                    "duration": 0.15625
                },
                {
                    "name": "A2",
                    "midi": 45,
                    "time": 633.75,
                    "velocity": 0.3858267716535433,
                    "duration": 0.15625
                },
                {
                    "name": "A3",
                    "midi": 57,
                    "time": 633.90625,
                    "velocity": 0.3858267716535433,
                    "duration": 0.15625
                },
                {
                    "name": "A3",
                    "midi": 57,
                    "time": 634.0625,
                    "velocity": 0.3858267716535433,
                    "duration": 0.15625
                },
                {
                    "name": "A2",
                    "midi": 45,
                    "time": 634.21875,
                    "velocity": 0.3858267716535433,
                    "duration": 0.15625
                },
                {
                    "name": "A2",
                    "midi": 45,
                    "time": 634.375,
                    "velocity": 0.3858267716535433,
                    "duration": 0.15625
                },
                {
                    "name": "A3",
                    "midi": 57,
                    "time": 634.53125,
                    "velocity": 0.3858267716535433,
                    "duration": 0.15625
                },
                {
                    "name": "A3",
                    "midi": 57,
                    "time": 634.6875,
                    "velocity": 0.3858267716535433,
                    "duration": 0.15625
                },
                {
                    "name": "A2",
                    "midi": 45,
                    "time": 634.84375,
                    "velocity": 0.3858267716535433,
                    "duration": 0.15625
                },
                {
                    "name": "A2",
                    "midi": 45,
                    "time": 635,
                    "velocity": 0.3858267716535433,
                    "duration": 0.15625
                },
                {
                    "name": "A3",
                    "midi": 57,
                    "time": 635.15625,
                    "velocity": 0.3858267716535433,
                    "duration": 0.15625
                },
                {
                    "name": "A3",
                    "midi": 57,
                    "time": 635.3125,
                    "velocity": 0.3858267716535433,
                    "duration": 0.15625
                },
                {
                    "name": "A2",
                    "midi": 45,
                    "time": 635.46875,
                    "velocity": 0.3858267716535433,
                    "duration": 0.15625
                },
                {
                    "name": "D3",
                    "midi": 50,
                    "time": 635.625,
                    "velocity": 0.3858267716535433,
                    "duration": 0.625
                },
                {
                    "name": "D3",
                    "midi": 50,
                    "time": 637.5,
                    "velocity": 0.3858267716535433,
                    "duration": 0.15625
                },
                {
                    "name": "D4",
                    "midi": 62,
                    "time": 637.65625,
                    "velocity": 0.3858267716535433,
                    "duration": 0.15625
                },
                {
                    "name": "D4",
                    "midi": 62,
                    "time": 637.8125,
                    "velocity": 0.3858267716535433,
                    "duration": 0.15625
                },
                {
                    "name": "D3",
                    "midi": 50,
                    "time": 637.96875,
                    "velocity": 0.3858267716535433,
                    "duration": 0.15625
                },
                {
                    "name": "D3",
                    "midi": 50,
                    "time": 638.125,
                    "velocity": 0.3858267716535433,
                    "duration": 0.15625
                },
                {
                    "name": "D4",
                    "midi": 62,
                    "time": 638.28125,
                    "velocity": 0.3858267716535433,
                    "duration": 0.15625
                },
                {
                    "name": "D4",
                    "midi": 62,
                    "time": 638.4375,
                    "velocity": 0.3858267716535433,
                    "duration": 0.15625
                },
                {
                    "name": "D3",
                    "midi": 50,
                    "time": 638.59375,
                    "velocity": 0.3858267716535433,
                    "duration": 0.15625
                },
                {
                    "name": "D3",
                    "midi": 50,
                    "time": 638.75,
                    "velocity": 0.3858267716535433,
                    "duration": 0.15625
                },
                {
                    "name": "D4",
                    "midi": 62,
                    "time": 638.90625,
                    "velocity": 0.3858267716535433,
                    "duration": 0.15625
                },
                {
                    "name": "D4",
                    "midi": 62,
                    "time": 639.0625,
                    "velocity": 0.3858267716535433,
                    "duration": 0.15625
                },
                {
                    "name": "D3",
                    "midi": 50,
                    "time": 639.21875,
                    "velocity": 0.3858267716535433,
                    "duration": 0.15625
                },
                {
                    "name": "G2",
                    "midi": 43,
                    "time": 639.375,
                    "velocity": 0.3858267716535433,
                    "duration": 0.15625
                },
                {
                    "name": "G3",
                    "midi": 55,
                    "time": 639.53125,
                    "velocity": 0.3858267716535433,
                    "duration": 0.15625
                },
                {
                    "name": "G3",
                    "midi": 55,
                    "time": 639.6875,
                    "velocity": 0.3858267716535433,
                    "duration": 0.15625
                },
                {
                    "name": "G2",
                    "midi": 43,
                    "time": 639.84375,
                    "velocity": 0.3858267716535433,
                    "duration": 0.15625
                },
                {
                    "name": "G2",
                    "midi": 43,
                    "time": 640,
                    "velocity": 0.3858267716535433,
                    "duration": 0.15625
                },
                {
                    "name": "G3",
                    "midi": 55,
                    "time": 640.15625,
                    "velocity": 0.3858267716535433,
                    "duration": 0.15625
                },
                {
                    "name": "G3",
                    "midi": 55,
                    "time": 640.3125,
                    "velocity": 0.3858267716535433,
                    "duration": 0.15625
                },
                {
                    "name": "G2",
                    "midi": 43,
                    "time": 640.46875,
                    "velocity": 0.3858267716535433,
                    "duration": 0.15625
                },
                {
                    "name": "G2",
                    "midi": 43,
                    "time": 640.625,
                    "velocity": 0.3858267716535433,
                    "duration": 0.15625
                },
                {
                    "name": "G3",
                    "midi": 55,
                    "time": 640.78125,
                    "velocity": 0.3858267716535433,
                    "duration": 0.15625
                },
                {
                    "name": "G3",
                    "midi": 55,
                    "time": 640.9375,
                    "velocity": 0.3858267716535433,
                    "duration": 0.15625
                },
                {
                    "name": "G2",
                    "midi": 43,
                    "time": 641.09375,
                    "velocity": 0.3858267716535433,
                    "duration": 0.15625
                },
                {
                    "name": "A2",
                    "midi": 45,
                    "time": 641.25,
                    "velocity": 0.3858267716535433,
                    "duration": 0.15625
                },
                {
                    "name": "A3",
                    "midi": 57,
                    "time": 641.40625,
                    "velocity": 0.3858267716535433,
                    "duration": 0.15625
                },
                {
                    "name": "A3",
                    "midi": 57,
                    "time": 641.5625,
                    "velocity": 0.3858267716535433,
                    "duration": 0.15625
                },
                {
                    "name": "A2",
                    "midi": 45,
                    "time": 641.71875,
                    "velocity": 0.3858267716535433,
                    "duration": 0.15625
                },
                {
                    "name": "A2",
                    "midi": 45,
                    "time": 641.875,
                    "velocity": 0.3858267716535433,
                    "duration": 0.15625
                },
                {
                    "name": "A3",
                    "midi": 57,
                    "time": 642.03125,
                    "velocity": 0.3858267716535433,
                    "duration": 0.15625
                },
                {
                    "name": "A3",
                    "midi": 57,
                    "time": 642.1875,
                    "velocity": 0.3858267716535433,
                    "duration": 0.15625
                },
                {
                    "name": "A2",
                    "midi": 45,
                    "time": 642.34375,
                    "velocity": 0.3858267716535433,
                    "duration": 0.15625
                },
                {
                    "name": "A2",
                    "midi": 45,
                    "time": 642.5,
                    "velocity": 0.3858267716535433,
                    "duration": 0.15625
                },
                {
                    "name": "A3",
                    "midi": 57,
                    "time": 642.65625,
                    "velocity": 0.3858267716535433,
                    "duration": 0.15625
                },
                {
                    "name": "A3",
                    "midi": 57,
                    "time": 642.8125,
                    "velocity": 0.3858267716535433,
                    "duration": 0.15625
                },
                {
                    "name": "A2",
                    "midi": 45,
                    "time": 642.96875,
                    "velocity": 0.3858267716535433,
                    "duration": 0.15625
                },
                {
                    "name": "D3",
                    "midi": 50,
                    "time": 643.125,
                    "velocity": 0.3858267716535433,
                    "duration": 1.875
                }
            ],
            "controlChanges": {},
            "id": 3,
            "name": "Instrument16",
            "instrumentNumber": 42,
            "instrument": "cello",
            "instrumentFamily": "strings",
            "channelNumber": 2,
            "isPercussion": false
        },
        {
            "startTime": 0,
            "duration": 0,
            "length": 0,
            "notes": [],
            "controlChanges": {},
            "id": 4
        }
    ]
}