{
    "header": {
        "PPQ": 384,
        "timeSignature": [
            3,
            8
        ],
        "bpm": 60,
        "name": ""
    },
    "startTime": 0,
    "duration": 251.9166666666671,
    "tracks": [
        {
            "startTime": 0,
            "duration": 0,
            "length": 0,
            "notes": [],
            "controlChanges": {},
            "id": 0
        },
        {
            "startTime": 0,
            "duration": 23.91666666666666,
            "length": 106,
            "notes": [
                {
                    "name": "C5",
                    "midi": 72,
                    "time": 0,
                    "velocity": 0.937007874015748,
                    "duration": 0.4166666666666667
                },
                {
                    "name": "C5",
                    "midi": 72,
                    "time": 0.5,
                    "velocity": 0.937007874015748,
                    "duration": 0.125
                },
                {
                    "name": "B4",
                    "midi": 71,
                    "time": 0.625,
                    "velocity": 0.937007874015748,
                    "duration": 0.08333333333333337
                },
                {
                    "name": "C5",
                    "midi": 72,
                    "time": 0.7083333333333334,
                    "velocity": 0.937007874015748,
                    "duration": 0.08333333333333337
                },
                {
                    "name": "B4",
                    "midi": 71,
                    "time": 0.7916666666666667,
                    "velocity": 0.937007874015748,
                    "duration": 0.08333333333333337
                },
                {
                    "name": "C5",
                    "midi": 72,
                    "time": 0.8750000000000001,
                    "velocity": 0.937007874015748,
                    "duration": 0.08333333333333337
                },
                {
                    "name": "B4",
                    "midi": 71,
                    "time": 0.9583333333333335,
                    "velocity": 0.937007874015748,
                    "duration": 0.08333333333333326
                },
                {
                    "name": "C5",
                    "midi": 72,
                    "time": 1.0416666666666667,
                    "velocity": 0.937007874015748,
                    "duration": 0.08333333333333326
                },
                {
                    "name": "B4",
                    "midi": 71,
                    "time": 1.125,
                    "velocity": 0.937007874015748,
                    "duration": 0.125
                },
                {
                    "name": "A4",
                    "midi": 69,
                    "time": 1.25,
                    "velocity": 0.937007874015748,
                    "duration": 0.20833333333333326
                },
                {
                    "name": "B4",
                    "midi": 71,
                    "time": 1.5,
                    "velocity": 0.937007874015748,
                    "duration": 0.20833333333333326
                },
                {
                    "name": "C5",
                    "midi": 72,
                    "time": 1.75,
                    "velocity": 0.937007874015748,
                    "duration": 0.20833333333333326
                },
                {
                    "name": "G4",
                    "midi": 67,
                    "time": 2,
                    "velocity": 0.937007874015748,
                    "duration": 0.4166666666666665
                },
                {
                    "name": "G4",
                    "midi": 67,
                    "time": 2.5,
                    "velocity": 0.937007874015748,
                    "duration": 0.4166666666666665
                },
                {
                    "name": "F5",
                    "midi": 77,
                    "time": 3,
                    "velocity": 0.937007874015748,
                    "duration": 0.4166666666666665
                },
                {
                    "name": "F5",
                    "midi": 77,
                    "time": 3.5,
                    "velocity": 0.937007874015748,
                    "duration": 0.125
                },
                {
                    "name": "E5",
                    "midi": 76,
                    "time": 3.625,
                    "velocity": 0.937007874015748,
                    "duration": 0.08333333333333348
                },
                {
                    "name": "F5",
                    "midi": 77,
                    "time": 3.7083333333333335,
                    "velocity": 0.937007874015748,
                    "duration": 0.08333333333333348
                },
                {
                    "name": "E5",
                    "midi": 76,
                    "time": 3.791666666666667,
                    "velocity": 0.937007874015748,
                    "duration": 0.08333333333333348
                },
                {
                    "name": "F5",
                    "midi": 77,
                    "time": 3.8750000000000004,
                    "velocity": 0.937007874015748,
                    "duration": 0.08333333333333348
                },
                {
                    "name": "E5",
                    "midi": 76,
                    "time": 3.958333333333334,
                    "velocity": 0.937007874015748,
                    "duration": 0.08333333333333304
                },
                {
                    "name": "F5",
                    "midi": 77,
                    "time": 4.041666666666667,
                    "velocity": 0.937007874015748,
                    "duration": 0.08333333333333304
                },
                {
                    "name": "E5",
                    "midi": 76,
                    "time": 4.125,
                    "velocity": 0.937007874015748,
                    "duration": 0.125
                },
                {
                    "name": "D5",
                    "midi": 74,
                    "time": 4.25,
                    "velocity": 0.937007874015748,
                    "duration": 0.20833333333333304
                },
                {
                    "name": "E5",
                    "midi": 76,
                    "time": 4.5,
                    "velocity": 0.937007874015748,
                    "duration": 0.20833333333333304
                },
                {
                    "name": "F5",
                    "midi": 77,
                    "time": 4.75,
                    "velocity": 0.937007874015748,
                    "duration": 0.20833333333333304
                },
                {
                    "name": "G5",
                    "midi": 79,
                    "time": 5,
                    "velocity": 0.937007874015748,
                    "duration": 1.416666666666667
                },
                {
                    "name": "C6",
                    "midi": 84,
                    "time": 6.5,
                    "velocity": 0.937007874015748,
                    "duration": 0.20833333333333304
                },
                {
                    "name": "F5",
                    "midi": 77,
                    "time": 6.75,
                    "velocity": 0.937007874015748,
                    "duration": 0.25
                },
                {
                    "name": "E5",
                    "midi": 76,
                    "time": 7,
                    "velocity": 0.937007874015748,
                    "duration": 0.08333333333333304
                },
                {
                    "name": "F5",
                    "midi": 77,
                    "time": 7.083333333333333,
                    "velocity": 0.937007874015748,
                    "duration": 0.08333333333333304
                },
                {
                    "name": "E5",
                    "midi": 76,
                    "time": 7.166666666666666,
                    "velocity": 0.937007874015748,
                    "duration": 0.08333333333333304
                },
                {
                    "name": "D5",
                    "midi": 74,
                    "time": 7.249999999999999,
                    "velocity": 0.937007874015748,
                    "duration": 0.20833333333333304
                },
                {
                    "name": "E5",
                    "midi": 76,
                    "time": 7.499999999999999,
                    "velocity": 0.937007874015748,
                    "duration": 0.41666666666666696
                },
                {
                    "name": "C6",
                    "midi": 84,
                    "time": 7.999999999999999,
                    "velocity": 0.937007874015748,
                    "duration": 0.20833333333333304
                },
                {
                    "name": "F5",
                    "midi": 77,
                    "time": 8.249999999999998,
                    "velocity": 0.937007874015748,
                    "duration": 0.25
                },
                {
                    "name": "E5",
                    "midi": 76,
                    "time": 8.499999999999998,
                    "velocity": 0.937007874015748,
                    "duration": 0.08333333333333393
                },
                {
                    "name": "F5",
                    "midi": 77,
                    "time": 8.583333333333332,
                    "velocity": 0.937007874015748,
                    "duration": 0.08333333333333393
                },
                {
                    "name": "E5",
                    "midi": 76,
                    "time": 8.666666666666666,
                    "velocity": 0.937007874015748,
                    "duration": 0.08333333333333393
                },
                {
                    "name": "D5",
                    "midi": 74,
                    "time": 8.75,
                    "velocity": 0.937007874015748,
                    "duration": 0.20833333333333393
                },
                {
                    "name": "E5",
                    "midi": 76,
                    "time": 9,
                    "velocity": 0.937007874015748,
                    "duration": 0.4166666666666661
                },
                {
                    "name": "A5",
                    "midi": 81,
                    "time": 9.5,
                    "velocity": 0.937007874015748,
                    "duration": 0.20833333333333393
                },
                {
                    "name": "G5",
                    "midi": 79,
                    "time": 9.75,
                    "velocity": 0.937007874015748,
                    "duration": 0.20833333333333393
                },
                {
                    "name": "F5",
                    "midi": 77,
                    "time": 10,
                    "velocity": 0.937007874015748,
                    "duration": 0.20833333333333393
                },
                {
                    "name": "E5",
                    "midi": 76,
                    "time": 10.25,
                    "velocity": 0.937007874015748,
                    "duration": 0.20833333333333393
                },
                {
                    "name": "D5",
                    "midi": 74,
                    "time": 10.5,
                    "velocity": 0.937007874015748,
                    "duration": 0.20833333333333393
                },
                {
                    "name": "C5",
                    "midi": 72,
                    "time": 10.75,
                    "velocity": 0.937007874015748,
                    "duration": 0.20833333333333393
                },
                {
                    "name": "C5",
                    "midi": 72,
                    "time": 11,
                    "velocity": 0.937007874015748,
                    "duration": 0.08333333333333393
                },
                {
                    "name": "B4",
                    "midi": 71,
                    "time": 11.083333333333334,
                    "velocity": 0.937007874015748,
                    "duration": 0.08333333333333393
                },
                {
                    "name": "C5",
                    "midi": 72,
                    "time": 11.166666666666668,
                    "velocity": 0.937007874015748,
                    "duration": 0.08333333333333393
                },
                {
                    "name": "B4",
                    "midi": 71,
                    "time": 11.250000000000002,
                    "velocity": 0.937007874015748,
                    "duration": 0.08333333333333393
                },
                {
                    "name": "C5",
                    "midi": 72,
                    "time": 11.333333333333336,
                    "velocity": 0.937007874015748,
                    "duration": 0.08333333333333393
                },
                {
                    "name": "B4",
                    "midi": 71,
                    "time": 11.41666666666667,
                    "velocity": 0.937007874015748,
                    "duration": 0.08333333333333393
                },
                {
                    "name": "A4",
                    "midi": 69,
                    "time": 11.500000000000004,
                    "velocity": 0.937007874015748,
                    "duration": 0.25
                },
                {
                    "name": "G4",
                    "midi": 67,
                    "time": 11.750000000000004,
                    "velocity": 0.937007874015748,
                    "duration": 0.20833333333333393
                },
                {
                    "name": "C5",
                    "midi": 72,
                    "time": 12.000000000000004,
                    "velocity": 0.937007874015748,
                    "duration": 0.4166666666666661
                },
                {
                    "name": "C5",
                    "midi": 72,
                    "time": 12.500000000000004,
                    "velocity": 0.937007874015748,
                    "duration": 0.125
                },
                {
                    "name": "B4",
                    "midi": 71,
                    "time": 12.625000000000004,
                    "velocity": 0.937007874015748,
                    "duration": 0.08333333333333393
                },
                {
                    "name": "C5",
                    "midi": 72,
                    "time": 12.708333333333337,
                    "velocity": 0.937007874015748,
                    "duration": 0.08333333333333393
                },
                {
                    "name": "B4",
                    "midi": 71,
                    "time": 12.791666666666671,
                    "velocity": 0.937007874015748,
                    "duration": 0.08333333333333393
                },
                {
                    "name": "C5",
                    "midi": 72,
                    "time": 12.875000000000005,
                    "velocity": 0.937007874015748,
                    "duration": 0.08333333333333393
                },
                {
                    "name": "B4",
                    "midi": 71,
                    "time": 12.95833333333334,
                    "velocity": 0.937007874015748,
                    "duration": 0.08333333333333393
                },
                {
                    "name": "C5",
                    "midi": 72,
                    "time": 13.041666666666673,
                    "velocity": 0.937007874015748,
                    "duration": 0.08333333333333393
                },
                {
                    "name": "B4",
                    "midi": 71,
                    "time": 13.125000000000007,
                    "velocity": 0.937007874015748,
                    "duration": 0.125
                },
                {
                    "name": "A4",
                    "midi": 69,
                    "time": 13.250000000000007,
                    "velocity": 0.937007874015748,
                    "duration": 0.20833333333333393
                },
                {
                    "name": "B4",
                    "midi": 71,
                    "time": 13.500000000000007,
                    "velocity": 0.937007874015748,
                    "duration": 0.20833333333333393
                },
                {
                    "name": "C5",
                    "midi": 72,
                    "time": 13.750000000000007,
                    "velocity": 0.937007874015748,
                    "duration": 0.20833333333333393
                },
                {
                    "name": "G4",
                    "midi": 67,
                    "time": 14.000000000000007,
                    "velocity": 0.937007874015748,
                    "duration": 0.4166666666666661
                },
                {
                    "name": "G4",
                    "midi": 67,
                    "time": 14.500000000000007,
                    "velocity": 0.937007874015748,
                    "duration": 0.4166666666666661
                },
                {
                    "name": "F5",
                    "midi": 77,
                    "time": 15.000000000000007,
                    "velocity": 0.937007874015748,
                    "duration": 0.4166666666666661
                },
                {
                    "name": "F5",
                    "midi": 77,
                    "time": 15.500000000000007,
                    "velocity": 0.937007874015748,
                    "duration": 0.125
                },
                {
                    "name": "E5",
                    "midi": 76,
                    "time": 15.625000000000007,
                    "velocity": 0.937007874015748,
                    "duration": 0.08333333333333393
                },
                {
                    "name": "F5",
                    "midi": 77,
                    "time": 15.708333333333341,
                    "velocity": 0.937007874015748,
                    "duration": 0.08333333333333393
                },
                {
                    "name": "E5",
                    "midi": 76,
                    "time": 15.791666666666675,
                    "velocity": 0.937007874015748,
                    "duration": 0.08333333333333393
                },
                {
                    "name": "F5",
                    "midi": 77,
                    "time": 15.875000000000009,
                    "velocity": 0.937007874015748,
                    "duration": 0.08333333333333393
                },
                {
                    "name": "E5",
                    "midi": 76,
                    "time": 15.958333333333343,
                    "velocity": 0.937007874015748,
                    "duration": 0.08333333333333215
                },
                {
                    "name": "F5",
                    "midi": 77,
                    "time": 16.041666666666675,
                    "velocity": 0.937007874015748,
                    "duration": 0.08333333333333215
                },
                {
                    "name": "E5",
                    "midi": 76,
                    "time": 16.125000000000007,
                    "velocity": 0.937007874015748,
                    "duration": 0.125
                },
                {
                    "name": "D5",
                    "midi": 74,
                    "time": 16.250000000000007,
                    "velocity": 0.937007874015748,
                    "duration": 0.20833333333333215
                },
                {
                    "name": "E5",
                    "midi": 76,
                    "time": 16.500000000000007,
                    "velocity": 0.937007874015748,
                    "duration": 0.20833333333333215
                },
                {
                    "name": "F5",
                    "midi": 77,
                    "time": 16.750000000000007,
                    "velocity": 0.937007874015748,
                    "duration": 0.20833333333333215
                },
                {
                    "name": "G5",
                    "midi": 79,
                    "time": 17.000000000000007,
                    "velocity": 0.937007874015748,
                    "duration": 1.4166666666666679
                },
                {
                    "name": "C6",
                    "midi": 84,
                    "time": 18.500000000000007,
                    "velocity": 0.937007874015748,
                    "duration": 0.20833333333333215
                },
                {
                    "name": "F5",
                    "midi": 77,
                    "time": 18.750000000000007,
                    "velocity": 0.937007874015748,
                    "duration": 0.25
                },
                {
                    "name": "E5",
                    "midi": 76,
                    "time": 19.000000000000007,
                    "velocity": 0.937007874015748,
                    "duration": 0.08333333333333215
                },
                {
                    "name": "F5",
                    "midi": 77,
                    "time": 19.08333333333334,
                    "velocity": 0.937007874015748,
                    "duration": 0.08333333333333215
                },
                {
                    "name": "E5",
                    "midi": 76,
                    "time": 19.16666666666667,
                    "velocity": 0.937007874015748,
                    "duration": 0.08333333333333215
                },
                {
                    "name": "D5",
                    "midi": 74,
                    "time": 19.250000000000004,
                    "velocity": 0.937007874015748,
                    "duration": 0.20833333333333215
                },
                {
                    "name": "E5",
                    "midi": 76,
                    "time": 19.500000000000004,
                    "velocity": 0.937007874015748,
                    "duration": 0.41666666666666785
                },
                {
                    "name": "A5",
                    "midi": 81,
                    "time": 20.000000000000004,
                    "velocity": 0.937007874015748,
                    "duration": 0.20833333333333215
                },
                {
                    "name": "G5",
                    "midi": 79,
                    "time": 20.250000000000004,
                    "velocity": 0.937007874015748,
                    "duration": 0.20833333333333215
                },
                {
                    "name": "F5",
                    "midi": 77,
                    "time": 20.500000000000004,
                    "velocity": 0.937007874015748,
                    "duration": 0.20833333333333215
                },
                {
                    "name": "E5",
                    "midi": 76,
                    "time": 20.750000000000004,
                    "velocity": 0.937007874015748,
                    "duration": 0.20833333333333215
                },
                {
                    "name": "D5",
                    "midi": 74,
                    "time": 21.000000000000004,
                    "velocity": 0.937007874015748,
                    "duration": 0.20833333333333215
                },
                {
                    "name": "C5",
                    "midi": 72,
                    "time": 21.250000000000004,
                    "velocity": 0.937007874015748,
                    "duration": 0.20833333333333215
                },
                {
                    "name": "E5",
                    "midi": 76,
                    "time": 21.500000000000004,
                    "velocity": 0.937007874015748,
                    "duration": 0.16666666666666785
                },
                {
                    "name": "D5",
                    "midi": 74,
                    "time": 21.66666666666667,
                    "velocity": 0.937007874015748,
                    "duration": 0.16666666666666785
                },
                {
                    "name": "C5",
                    "midi": 72,
                    "time": 21.83333333333334,
                    "velocity": 0.937007874015748,
                    "duration": 0.14583333333333215
                },
                {
                    "name": "D5",
                    "midi": 74,
                    "time": 22.000000000000004,
                    "velocity": 0.937007874015748,
                    "duration": 0.41666666666666785
                },
                {
                    "name": "C5",
                    "midi": 72,
                    "time": 22.500000000000004,
                    "velocity": 0.937007874015748,
                    "duration": 0.08333333333333215
                },
                {
                    "name": "B4",
                    "midi": 71,
                    "time": 22.583333333333336,
                    "velocity": 0.937007874015748,
                    "duration": 0.08333333333333215
                },
                {
                    "name": "C5",
                    "midi": 72,
                    "time": 22.666666666666668,
                    "velocity": 0.937007874015748,
                    "duration": 0.08333333333333215
                },
                {
                    "name": "B4",
                    "midi": 71,
                    "time": 22.75,
                    "velocity": 0.937007874015748,
                    "duration": 0.08333333333333215
                },
                {
                    "name": "C5",
                    "midi": 72,
                    "time": 22.833333333333332,
                    "velocity": 0.937007874015748,
                    "duration": 0.08333333333333215
                },
                {
                    "name": "B4",
                    "midi": 71,
                    "time": 22.916666666666664,
                    "velocity": 0.937007874015748,
                    "duration": 0.08333333333333215
                },
                {
                    "name": "C5",
                    "midi": 72,
                    "time": 22.999999999999996,
                    "velocity": 0.937007874015748,
                    "duration": 0.9166666666666643
                }
            ],
            "controlChanges": {
                "10": [
                    {
                        "number": 10,
                        "time": 0,
                        "value": 0
                    }
                ]
            },
            "id": 1,
            "name": "Musette",
            "instrumentNumber": 74,
            "instrument": "recorder",
            "instrumentFamily": "pipe",
            "channelNumber": 0,
            "isPercussion": false
        },
        {
            "startTime": 1.5,
            "duration": 23.91666666666667,
            "length": 80,
            "notes": [
                {
                    "name": "G3",
                    "midi": 55,
                    "time": 1.5,
                    "velocity": 0.3543307086614173,
                    "duration": 0.41666666666666674
                },
                {
                    "name": "F3",
                    "midi": 53,
                    "time": 2,
                    "velocity": 0.3543307086614173,
                    "duration": 0.125
                },
                {
                    "name": "E3",
                    "midi": 52,
                    "time": 2.125,
                    "velocity": 0.3543307086614173,
                    "duration": 0.08333333333333348
                },
                {
                    "name": "F3",
                    "midi": 53,
                    "time": 2.2083333333333335,
                    "velocity": 0.3543307086614173,
                    "duration": 0.08333333333333348
                },
                {
                    "name": "E3",
                    "midi": 52,
                    "time": 2.291666666666667,
                    "velocity": 0.3543307086614173,
                    "duration": 0.08333333333333348
                },
                {
                    "name": "F3",
                    "midi": 53,
                    "time": 2.3750000000000004,
                    "velocity": 0.3543307086614173,
                    "duration": 0.08333333333333348
                },
                {
                    "name": "E3",
                    "midi": 52,
                    "time": 2.458333333333334,
                    "velocity": 0.3543307086614173,
                    "duration": 0.08333333333333348
                },
                {
                    "name": "F3",
                    "midi": 53,
                    "time": 2.5416666666666674,
                    "velocity": 0.3543307086614173,
                    "duration": 0.08333333333333348
                },
                {
                    "name": "E3",
                    "midi": 52,
                    "time": 2.625000000000001,
                    "velocity": 0.3543307086614173,
                    "duration": 0.125
                },
                {
                    "name": "D3",
                    "midi": 50,
                    "time": 2.750000000000001,
                    "velocity": 0.3543307086614173,
                    "duration": 0.20833333333333348
                },
                {
                    "name": "C3",
                    "midi": 48,
                    "time": 3.000000000000001,
                    "velocity": 0.3543307086614173,
                    "duration": 0.20833333333333348
                },
                {
                    "name": "B2",
                    "midi": 47,
                    "time": 3.250000000000001,
                    "velocity": 0.3543307086614173,
                    "duration": 0.20833333333333348
                },
                {
                    "name": "C3",
                    "midi": 48,
                    "time": 3.500000000000001,
                    "velocity": 0.3543307086614173,
                    "duration": 0.671875
                },
                {
                    "name": "G2",
                    "midi": 43,
                    "time": 4.250000000000001,
                    "velocity": 0.3543307086614173,
                    "duration": 0.20833333333333304
                },
                {
                    "name": "C3",
                    "midi": 48,
                    "time": 4.500000000000001,
                    "velocity": 0.3543307086614173,
                    "duration": 0.20833333333333304
                },
                {
                    "name": "D3",
                    "midi": 50,
                    "time": 4.750000000000001,
                    "velocity": 0.3543307086614173,
                    "duration": 0.20833333333333304
                },
                {
                    "name": "E3",
                    "midi": 52,
                    "time": 5.000000000000001,
                    "velocity": 0.3543307086614173,
                    "duration": 0.20833333333333304
                },
                {
                    "name": "D3",
                    "midi": 50,
                    "time": 5.250000000000001,
                    "velocity": 0.3543307086614173,
                    "duration": 0.20833333333333304
                },
                {
                    "name": "C3",
                    "midi": 48,
                    "time": 5.500000000000001,
                    "velocity": 0.3543307086614173,
                    "duration": 0.20833333333333304
                },
                {
                    "name": "B2",
                    "midi": 47,
                    "time": 5.750000000000001,
                    "velocity": 0.3543307086614173,
                    "duration": 0.20833333333333304
                },
                {
                    "name": "C3",
                    "midi": 48,
                    "time": 6.000000000000001,
                    "velocity": 0.3543307086614173,
                    "duration": 0.41666666666666696
                },
                {
                    "name": "E4",
                    "midi": 64,
                    "time": 6.500000000000001,
                    "velocity": 0.3543307086614173,
                    "duration": 0.20833333333333304
                },
                {
                    "name": "D4",
                    "midi": 62,
                    "time": 6.750000000000001,
                    "velocity": 0.3543307086614173,
                    "duration": 0.25
                },
                {
                    "name": "C4",
                    "midi": 60,
                    "time": 7.000000000000001,
                    "velocity": 0.3543307086614173,
                    "duration": 0.08333333333333304
                },
                {
                    "name": "D4",
                    "midi": 62,
                    "time": 7.083333333333334,
                    "velocity": 0.3543307086614173,
                    "duration": 0.08333333333333304
                },
                {
                    "name": "C4",
                    "midi": 60,
                    "time": 7.166666666666667,
                    "velocity": 0.3543307086614173,
                    "duration": 0.08333333333333304
                },
                {
                    "name": "B3",
                    "midi": 59,
                    "time": 7.25,
                    "velocity": 0.3543307086614173,
                    "duration": 0.20833333333333304
                },
                {
                    "name": "C4",
                    "midi": 60,
                    "time": 7.5,
                    "velocity": 0.3543307086614173,
                    "duration": 0.41666666666666696
                },
                {
                    "name": "E3",
                    "midi": 52,
                    "time": 8,
                    "velocity": 0.3543307086614173,
                    "duration": 0.20833333333333393
                },
                {
                    "name": "D3",
                    "midi": 50,
                    "time": 8.25,
                    "velocity": 0.3543307086614173,
                    "duration": 0.25
                },
                {
                    "name": "C3",
                    "midi": 48,
                    "time": 8.5,
                    "velocity": 0.3543307086614173,
                    "duration": 0.08333333333333393
                },
                {
                    "name": "D3",
                    "midi": 50,
                    "time": 8.583333333333334,
                    "velocity": 0.3543307086614173,
                    "duration": 0.08333333333333393
                },
                {
                    "name": "C3",
                    "midi": 48,
                    "time": 8.666666666666668,
                    "velocity": 0.3543307086614173,
                    "duration": 0.08333333333333393
                },
                {
                    "name": "B2",
                    "midi": 47,
                    "time": 8.750000000000002,
                    "velocity": 0.3543307086614173,
                    "duration": 0.20833333333333393
                },
                {
                    "name": "C3",
                    "midi": 48,
                    "time": 9.000000000000002,
                    "velocity": 0.3543307086614173,
                    "duration": 0.4166666666666661
                },
                {
                    "name": "F3",
                    "midi": 53,
                    "time": 9.500000000000002,
                    "velocity": 0.3543307086614173,
                    "duration": 0.20833333333333393
                },
                {
                    "name": "G3",
                    "midi": 55,
                    "time": 9.750000000000002,
                    "velocity": 0.3543307086614173,
                    "duration": 0.20833333333333393
                },
                {
                    "name": "A3",
                    "midi": 57,
                    "time": 10.000000000000002,
                    "velocity": 0.3543307086614173,
                    "duration": 0.4166666666666661
                },
                {
                    "name": "F3",
                    "midi": 53,
                    "time": 10.500000000000002,
                    "velocity": 0.3543307086614173,
                    "duration": 0.4166666666666661
                },
                {
                    "name": "G3",
                    "midi": 55,
                    "time": 11.000000000000002,
                    "velocity": 0.3543307086614173,
                    "duration": 0.20833333333333393
                },
                {
                    "name": "F3",
                    "midi": 53,
                    "time": 11.250000000000002,
                    "velocity": 0.3543307086614173,
                    "duration": 0.20833333333333393
                },
                {
                    "name": "E3",
                    "midi": 52,
                    "time": 11.500000000000002,
                    "velocity": 0.3543307086614173,
                    "duration": 0.20833333333333393
                },
                {
                    "name": "D3",
                    "midi": 50,
                    "time": 11.750000000000002,
                    "velocity": 0.3543307086614173,
                    "duration": 0.20833333333333393
                },
                {
                    "name": "E3",
                    "midi": 52,
                    "time": 12.000000000000002,
                    "velocity": 0.3543307086614173,
                    "duration": 0.20833333333333393
                },
                {
                    "name": "C3",
                    "midi": 48,
                    "time": 12.250000000000002,
                    "velocity": 0.3543307086614173,
                    "duration": 0.20833333333333393
                },
                {
                    "name": "G3",
                    "midi": 55,
                    "time": 12.500000000000002,
                    "velocity": 0.3543307086614173,
                    "duration": 0.4166666666666661
                },
                {
                    "name": "G2",
                    "midi": 43,
                    "time": 13.000000000000002,
                    "velocity": 0.3543307086614173,
                    "duration": 0.4166666666666661
                },
                {
                    "name": "G3",
                    "midi": 55,
                    "time": 13.500000000000002,
                    "velocity": 0.3543307086614173,
                    "duration": 0.4166666666666661
                },
                {
                    "name": "F3",
                    "midi": 53,
                    "time": 14.000000000000002,
                    "velocity": 0.3543307086614173,
                    "duration": 0.125
                },
                {
                    "name": "E3",
                    "midi": 52,
                    "time": 14.125000000000002,
                    "velocity": 0.3543307086614173,
                    "duration": 0.08333333333333393
                },
                {
                    "name": "F3",
                    "midi": 53,
                    "time": 14.208333333333336,
                    "velocity": 0.3543307086614173,
                    "duration": 0.08333333333333393
                },
                {
                    "name": "E3",
                    "midi": 52,
                    "time": 14.29166666666667,
                    "velocity": 0.3543307086614173,
                    "duration": 0.08333333333333393
                },
                {
                    "name": "F3",
                    "midi": 53,
                    "time": 14.375000000000004,
                    "velocity": 0.3543307086614173,
                    "duration": 0.08333333333333393
                },
                {
                    "name": "E3",
                    "midi": 52,
                    "time": 14.458333333333337,
                    "velocity": 0.3543307086614173,
                    "duration": 0.08333333333333393
                },
                {
                    "name": "F3",
                    "midi": 53,
                    "time": 14.541666666666671,
                    "velocity": 0.3543307086614173,
                    "duration": 0.08333333333333393
                },
                {
                    "name": "E3",
                    "midi": 52,
                    "time": 14.625000000000005,
                    "velocity": 0.3543307086614173,
                    "duration": 0.125
                },
                {
                    "name": "D3",
                    "midi": 50,
                    "time": 14.750000000000005,
                    "velocity": 0.3543307086614173,
                    "duration": 0.20833333333333393
                },
                {
                    "name": "C3",
                    "midi": 48,
                    "time": 15.000000000000005,
                    "velocity": 0.3543307086614173,
                    "duration": 0.20833333333333393
                },
                {
                    "name": "B2",
                    "midi": 47,
                    "time": 15.250000000000005,
                    "velocity": 0.3543307086614173,
                    "duration": 0.20833333333333393
                },
                {
                    "name": "C3",
                    "midi": 48,
                    "time": 15.500000000000005,
                    "velocity": 0.3543307086614173,
                    "duration": 0.6718750000000018
                },
                {
                    "name": "G2",
                    "midi": 43,
                    "time": 16.250000000000007,
                    "velocity": 0.3543307086614173,
                    "duration": 0.20833333333333215
                },
                {
                    "name": "C3",
                    "midi": 48,
                    "time": 16.500000000000007,
                    "velocity": 0.3543307086614173,
                    "duration": 0.20833333333333215
                },
                {
                    "name": "D3",
                    "midi": 50,
                    "time": 16.750000000000007,
                    "velocity": 0.3543307086614173,
                    "duration": 0.20833333333333215
                },
                {
                    "name": "E3",
                    "midi": 52,
                    "time": 17.000000000000007,
                    "velocity": 0.3543307086614173,
                    "duration": 0.20833333333333215
                },
                {
                    "name": "D3",
                    "midi": 50,
                    "time": 17.250000000000007,
                    "velocity": 0.3543307086614173,
                    "duration": 0.20833333333333215
                },
                {
                    "name": "C3",
                    "midi": 48,
                    "time": 17.500000000000007,
                    "velocity": 0.3543307086614173,
                    "duration": 0.20833333333333215
                },
                {
                    "name": "B2",
                    "midi": 47,
                    "time": 17.750000000000007,
                    "velocity": 0.3543307086614173,
                    "duration": 0.20833333333333215
                },
                {
                    "name": "C3",
                    "midi": 48,
                    "time": 18.000000000000007,
                    "velocity": 0.3543307086614173,
                    "duration": 0.41666666666666785
                },
                {
                    "name": "E4",
                    "midi": 64,
                    "time": 18.500000000000007,
                    "velocity": 0.3543307086614173,
                    "duration": 0.20833333333333215
                },
                {
                    "name": "D4",
                    "midi": 62,
                    "time": 18.750000000000007,
                    "velocity": 0.3543307086614173,
                    "duration": 0.20833333333333215
                },
                {
                    "name": "C4",
                    "midi": 60,
                    "time": 19.000000000000007,
                    "velocity": 0.3543307086614173,
                    "duration": 0.20833333333333215
                },
                {
                    "name": "B3",
                    "midi": 59,
                    "time": 19.250000000000007,
                    "velocity": 0.3543307086614173,
                    "duration": 0.20833333333333215
                },
                {
                    "name": "C4",
                    "midi": 60,
                    "time": 19.500000000000007,
                    "velocity": 0.3543307086614173,
                    "duration": 0.41666666666666785
                },
                {
                    "name": "F3",
                    "midi": 53,
                    "time": 20.000000000000007,
                    "velocity": 0.3543307086614173,
                    "duration": 0.20833333333333215
                },
                {
                    "name": "G3",
                    "midi": 55,
                    "time": 20.250000000000007,
                    "velocity": 0.3543307086614173,
                    "duration": 0.20833333333333215
                },
                {
                    "name": "A3",
                    "midi": 57,
                    "time": 20.500000000000007,
                    "velocity": 0.3543307086614173,
                    "duration": 0.41666666666666785
                },
                {
                    "name": "F3",
                    "midi": 53,
                    "time": 21.000000000000007,
                    "velocity": 0.3543307086614173,
                    "duration": 0.41666666666666785
                },
                {
                    "name": "G3",
                    "midi": 55,
                    "time": 21.500000000000007,
                    "velocity": 0.3543307086614173,
                    "duration": 0.41666666666666785
                },
                {
                    "name": "G2",
                    "midi": 43,
                    "time": 22.000000000000007,
                    "velocity": 0.3543307086614173,
                    "duration": 0.9166666666666679
                },
                {
                    "name": "C3",
                    "midi": 48,
                    "time": 23.000000000000007,
                    "velocity": 0.3543307086614173,
                    "duration": 0.9166666666666643
                }
            ],
            "controlChanges": {
                "10": [
                    {
                        "number": 10,
                        "time": 0,
                        "value": 1
                    }
                ]
            },
            "id": 2,
            "name": "Violoncello",
            "instrumentNumber": 42,
            "instrument": "cello",
            "instrumentFamily": "strings",
            "channelNumber": 1,
            "isPercussion": false
        },
        {
            "startTime": 24,
            "duration": 47.91666666666672,
            "length": 106,
            "notes": [
                {
                    "name": "C5",
                    "midi": 72,
                    "time": 24,
                    "velocity": 0.9763779527559056,
                    "duration": 0.41666666666666785
                },
                {
                    "name": "C5",
                    "midi": 72,
                    "time": 24.5,
                    "velocity": 0.9763779527559056,
                    "duration": 0.125
                },
                {
                    "name": "B4",
                    "midi": 71,
                    "time": 24.625,
                    "velocity": 0.9763779527559056,
                    "duration": 0.08333333333333215
                },
                {
                    "name": "C5",
                    "midi": 72,
                    "time": 24.708333333333332,
                    "velocity": 0.9763779527559056,
                    "duration": 0.08333333333333215
                },
                {
                    "name": "B4",
                    "midi": 71,
                    "time": 24.791666666666664,
                    "velocity": 0.9763779527559056,
                    "duration": 0.08333333333333215
                },
                {
                    "name": "C5",
                    "midi": 72,
                    "time": 24.874999999999996,
                    "velocity": 0.9763779527559056,
                    "duration": 0.08333333333333215
                },
                {
                    "name": "B4",
                    "midi": 71,
                    "time": 24.95833333333333,
                    "velocity": 0.9763779527559056,
                    "duration": 0.08333333333333215
                },
                {
                    "name": "C5",
                    "midi": 72,
                    "time": 25.04166666666666,
                    "velocity": 0.9763779527559056,
                    "duration": 0.08333333333333215
                },
                {
                    "name": "B4",
                    "midi": 71,
                    "time": 25.124999999999993,
                    "velocity": 0.9763779527559056,
                    "duration": 0.125
                },
                {
                    "name": "A4",
                    "midi": 69,
                    "time": 25.249999999999993,
                    "velocity": 0.9763779527559056,
                    "duration": 0.20833333333333215
                },
                {
                    "name": "B4",
                    "midi": 71,
                    "time": 25.499999999999993,
                    "velocity": 0.9763779527559056,
                    "duration": 0.20833333333333215
                },
                {
                    "name": "C5",
                    "midi": 72,
                    "time": 25.749999999999993,
                    "velocity": 0.9763779527559056,
                    "duration": 0.20833333333333215
                },
                {
                    "name": "G4",
                    "midi": 67,
                    "time": 25.999999999999993,
                    "velocity": 0.9763779527559056,
                    "duration": 0.41666666666666785
                },
                {
                    "name": "G4",
                    "midi": 67,
                    "time": 26.499999999999993,
                    "velocity": 0.9763779527559056,
                    "duration": 0.41666666666666785
                },
                {
                    "name": "F5",
                    "midi": 77,
                    "time": 26.999999999999993,
                    "velocity": 0.9763779527559056,
                    "duration": 0.41666666666666785
                },
                {
                    "name": "F5",
                    "midi": 77,
                    "time": 27.499999999999993,
                    "velocity": 0.9763779527559056,
                    "duration": 0.125
                },
                {
                    "name": "E5",
                    "midi": 76,
                    "time": 27.624999999999993,
                    "velocity": 0.9763779527559056,
                    "duration": 0.08333333333333215
                },
                {
                    "name": "F5",
                    "midi": 77,
                    "time": 27.708333333333325,
                    "velocity": 0.9763779527559056,
                    "duration": 0.08333333333333215
                },
                {
                    "name": "E5",
                    "midi": 76,
                    "time": 27.791666666666657,
                    "velocity": 0.9763779527559056,
                    "duration": 0.08333333333333215
                },
                {
                    "name": "F5",
                    "midi": 77,
                    "time": 27.87499999999999,
                    "velocity": 0.9763779527559056,
                    "duration": 0.08333333333333215
                },
                {
                    "name": "E5",
                    "midi": 76,
                    "time": 27.95833333333332,
                    "velocity": 0.9763779527559056,
                    "duration": 0.08333333333333215
                },
                {
                    "name": "F5",
                    "midi": 77,
                    "time": 28.041666666666654,
                    "velocity": 0.9763779527559056,
                    "duration": 0.08333333333333215
                },
                {
                    "name": "E5",
                    "midi": 76,
                    "time": 28.124999999999986,
                    "velocity": 0.9763779527559056,
                    "duration": 0.125
                },
                {
                    "name": "D5",
                    "midi": 74,
                    "time": 28.249999999999986,
                    "velocity": 0.9763779527559056,
                    "duration": 0.20833333333333215
                },
                {
                    "name": "E5",
                    "midi": 76,
                    "time": 28.499999999999986,
                    "velocity": 0.9763779527559056,
                    "duration": 0.20833333333333215
                },
                {
                    "name": "F5",
                    "midi": 77,
                    "time": 28.749999999999986,
                    "velocity": 0.9763779527559056,
                    "duration": 0.20833333333333215
                },
                {
                    "name": "G5",
                    "midi": 79,
                    "time": 28.999999999999986,
                    "velocity": 0.9763779527559056,
                    "duration": 1.4166666666666679
                },
                {
                    "name": "C6",
                    "midi": 84,
                    "time": 30.499999999999986,
                    "velocity": 0.9763779527559056,
                    "duration": 0.20833333333333215
                },
                {
                    "name": "F5",
                    "midi": 77,
                    "time": 30.749999999999986,
                    "velocity": 0.9763779527559056,
                    "duration": 0.25
                },
                {
                    "name": "E5",
                    "midi": 76,
                    "time": 30.999999999999986,
                    "velocity": 0.9763779527559056,
                    "duration": 0.08333333333333215
                },
                {
                    "name": "F5",
                    "midi": 77,
                    "time": 31.083333333333318,
                    "velocity": 0.9763779527559056,
                    "duration": 0.08333333333333215
                },
                {
                    "name": "E5",
                    "midi": 76,
                    "time": 31.16666666666665,
                    "velocity": 0.9763779527559056,
                    "duration": 0.08333333333333215
                },
                {
                    "name": "D5",
                    "midi": 74,
                    "time": 31.249999999999982,
                    "velocity": 0.9763779527559056,
                    "duration": 0.20833333333333215
                },
                {
                    "name": "E5",
                    "midi": 76,
                    "time": 31.499999999999982,
                    "velocity": 0.9763779527559056,
                    "duration": 0.41666666666666785
                },
                {
                    "name": "C6",
                    "midi": 84,
                    "time": 31.999999999999982,
                    "velocity": 0.9763779527559056,
                    "duration": 0.20833333333333215
                },
                {
                    "name": "F5",
                    "midi": 77,
                    "time": 32.24999999999998,
                    "velocity": 0.9763779527559056,
                    "duration": 0.25
                },
                {
                    "name": "E5",
                    "midi": 76,
                    "time": 32.49999999999998,
                    "velocity": 0.9763779527559056,
                    "duration": 0.0833333333333357
                },
                {
                    "name": "F5",
                    "midi": 77,
                    "time": 32.583333333333314,
                    "velocity": 0.9763779527559056,
                    "duration": 0.0833333333333357
                },
                {
                    "name": "E5",
                    "midi": 76,
                    "time": 32.66666666666665,
                    "velocity": 0.9763779527559056,
                    "duration": 0.0833333333333357
                },
                {
                    "name": "D5",
                    "midi": 74,
                    "time": 32.749999999999986,
                    "velocity": 0.9763779527559056,
                    "duration": 0.2083333333333357
                },
                {
                    "name": "E5",
                    "midi": 76,
                    "time": 32.999999999999986,
                    "velocity": 0.9763779527559056,
                    "duration": 0.4166666666666643
                },
                {
                    "name": "A5",
                    "midi": 81,
                    "time": 33.499999999999986,
                    "velocity": 0.9763779527559056,
                    "duration": 0.2083333333333357
                },
                {
                    "name": "G5",
                    "midi": 79,
                    "time": 33.749999999999986,
                    "velocity": 0.9763779527559056,
                    "duration": 0.2083333333333357
                },
                {
                    "name": "F5",
                    "midi": 77,
                    "time": 33.999999999999986,
                    "velocity": 0.9763779527559056,
                    "duration": 0.2083333333333357
                },
                {
                    "name": "E5",
                    "midi": 76,
                    "time": 34.249999999999986,
                    "velocity": 0.9763779527559056,
                    "duration": 0.2083333333333357
                },
                {
                    "name": "D5",
                    "midi": 74,
                    "time": 34.499999999999986,
                    "velocity": 0.9763779527559056,
                    "duration": 0.2083333333333357
                },
                {
                    "name": "C5",
                    "midi": 72,
                    "time": 34.749999999999986,
                    "velocity": 0.9763779527559056,
                    "duration": 0.2083333333333357
                },
                {
                    "name": "C5",
                    "midi": 72,
                    "time": 34.999999999999986,
                    "velocity": 0.9763779527559056,
                    "duration": 0.0833333333333357
                },
                {
                    "name": "B4",
                    "midi": 71,
                    "time": 35.08333333333332,
                    "velocity": 0.9763779527559056,
                    "duration": 0.0833333333333357
                },
                {
                    "name": "C5",
                    "midi": 72,
                    "time": 35.16666666666666,
                    "velocity": 0.9763779527559056,
                    "duration": 0.0833333333333357
                },
                {
                    "name": "B4",
                    "midi": 71,
                    "time": 35.24999999999999,
                    "velocity": 0.9763779527559056,
                    "duration": 0.0833333333333357
                },
                {
                    "name": "C5",
                    "midi": 72,
                    "time": 35.33333333333333,
                    "velocity": 0.9763779527559056,
                    "duration": 0.0833333333333357
                },
                {
                    "name": "B4",
                    "midi": 71,
                    "time": 35.416666666666664,
                    "velocity": 0.9763779527559056,
                    "duration": 0.0833333333333357
                },
                {
                    "name": "A4",
                    "midi": 69,
                    "time": 35.5,
                    "velocity": 0.9763779527559056,
                    "duration": 0.25
                },
                {
                    "name": "G4",
                    "midi": 67,
                    "time": 35.75,
                    "velocity": 0.9763779527559056,
                    "duration": 0.2083333333333357
                },
                {
                    "name": "C5",
                    "midi": 72,
                    "time": 36,
                    "velocity": 0.9763779527559056,
                    "duration": 0.4166666666666643
                },
                {
                    "name": "C5",
                    "midi": 72,
                    "time": 36.5,
                    "velocity": 0.9763779527559056,
                    "duration": 0.125
                },
                {
                    "name": "B4",
                    "midi": 71,
                    "time": 36.625,
                    "velocity": 0.9763779527559056,
                    "duration": 0.0833333333333357
                },
                {
                    "name": "C5",
                    "midi": 72,
                    "time": 36.708333333333336,
                    "velocity": 0.9763779527559056,
                    "duration": 0.0833333333333357
                },
                {
                    "name": "B4",
                    "midi": 71,
                    "time": 36.79166666666667,
                    "velocity": 0.9763779527559056,
                    "duration": 0.0833333333333357
                },
                {
                    "name": "C5",
                    "midi": 72,
                    "time": 36.87500000000001,
                    "velocity": 0.9763779527559056,
                    "duration": 0.0833333333333357
                },
                {
                    "name": "B4",
                    "midi": 71,
                    "time": 36.95833333333334,
                    "velocity": 0.9763779527559056,
                    "duration": 0.0833333333333357
                },
                {
                    "name": "C5",
                    "midi": 72,
                    "time": 37.04166666666668,
                    "velocity": 0.9763779527559056,
                    "duration": 0.0833333333333357
                },
                {
                    "name": "B4",
                    "midi": 71,
                    "time": 37.125000000000014,
                    "velocity": 0.9763779527559056,
                    "duration": 0.125
                },
                {
                    "name": "A4",
                    "midi": 69,
                    "time": 37.250000000000014,
                    "velocity": 0.9763779527559056,
                    "duration": 0.2083333333333357
                },
                {
                    "name": "B4",
                    "midi": 71,
                    "time": 37.500000000000014,
                    "velocity": 0.9763779527559056,
                    "duration": 0.2083333333333357
                },
                {
                    "name": "C5",
                    "midi": 72,
                    "time": 37.750000000000014,
                    "velocity": 0.9763779527559056,
                    "duration": 0.2083333333333357
                },
                {
                    "name": "G4",
                    "midi": 67,
                    "time": 38.000000000000014,
                    "velocity": 0.9763779527559056,
                    "duration": 0.4166666666666643
                },
                {
                    "name": "G4",
                    "midi": 67,
                    "time": 38.500000000000014,
                    "velocity": 0.9763779527559056,
                    "duration": 0.4166666666666643
                },
                {
                    "name": "F5",
                    "midi": 77,
                    "time": 39.000000000000014,
                    "velocity": 0.9763779527559056,
                    "duration": 0.4166666666666643
                },
                {
                    "name": "F5",
                    "midi": 77,
                    "time": 39.500000000000014,
                    "velocity": 0.9763779527559056,
                    "duration": 0.125
                },
                {
                    "name": "E5",
                    "midi": 76,
                    "time": 39.625000000000014,
                    "velocity": 0.9763779527559056,
                    "duration": 0.0833333333333357
                },
                {
                    "name": "F5",
                    "midi": 77,
                    "time": 39.70833333333335,
                    "velocity": 0.9763779527559056,
                    "duration": 0.0833333333333357
                },
                {
                    "name": "E5",
                    "midi": 76,
                    "time": 39.791666666666686,
                    "velocity": 0.9763779527559056,
                    "duration": 0.0833333333333357
                },
                {
                    "name": "F5",
                    "midi": 77,
                    "time": 39.87500000000002,
                    "velocity": 0.9763779527559056,
                    "duration": 0.0833333333333357
                },
                {
                    "name": "E5",
                    "midi": 76,
                    "time": 39.95833333333336,
                    "velocity": 0.9763779527559056,
                    "duration": 0.0833333333333357
                },
                {
                    "name": "F5",
                    "midi": 77,
                    "time": 40.04166666666669,
                    "velocity": 0.9763779527559056,
                    "duration": 0.0833333333333357
                },
                {
                    "name": "E5",
                    "midi": 76,
                    "time": 40.12500000000003,
                    "velocity": 0.9763779527559056,
                    "duration": 0.125
                },
                {
                    "name": "D5",
                    "midi": 74,
                    "time": 40.25000000000003,
                    "velocity": 0.9763779527559056,
                    "duration": 0.2083333333333357
                },
                {
                    "name": "E5",
                    "midi": 76,
                    "time": 40.50000000000003,
                    "velocity": 0.9763779527559056,
                    "duration": 0.2083333333333357
                },
                {
                    "name": "F5",
                    "midi": 77,
                    "time": 40.75000000000003,
                    "velocity": 0.9763779527559056,
                    "duration": 0.2083333333333357
                },
                {
                    "name": "G5",
                    "midi": 79,
                    "time": 41.00000000000003,
                    "velocity": 0.9763779527559056,
                    "duration": 1.4166666666666643
                },
                {
                    "name": "C6",
                    "midi": 84,
                    "time": 42.50000000000003,
                    "velocity": 0.9763779527559056,
                    "duration": 0.2083333333333357
                },
                {
                    "name": "F5",
                    "midi": 77,
                    "time": 42.75000000000003,
                    "velocity": 0.9763779527559056,
                    "duration": 0.25
                },
                {
                    "name": "E5",
                    "midi": 76,
                    "time": 43.00000000000003,
                    "velocity": 0.9763779527559056,
                    "duration": 0.0833333333333357
                },
                {
                    "name": "F5",
                    "midi": 77,
                    "time": 43.083333333333364,
                    "velocity": 0.9763779527559056,
                    "duration": 0.0833333333333357
                },
                {
                    "name": "E5",
                    "midi": 76,
                    "time": 43.1666666666667,
                    "velocity": 0.9763779527559056,
                    "duration": 0.0833333333333357
                },
                {
                    "name": "D5",
                    "midi": 74,
                    "time": 43.250000000000036,
                    "velocity": 0.9763779527559056,
                    "duration": 0.2083333333333357
                },
                {
                    "name": "E5",
                    "midi": 76,
                    "time": 43.500000000000036,
                    "velocity": 0.9763779527559056,
                    "duration": 0.4166666666666643
                },
                {
                    "name": "A5",
                    "midi": 81,
                    "time": 44.000000000000036,
                    "velocity": 0.9763779527559056,
                    "duration": 0.2083333333333357
                },
                {
                    "name": "G5",
                    "midi": 79,
                    "time": 44.250000000000036,
                    "velocity": 0.9763779527559056,
                    "duration": 0.2083333333333357
                },
                {
                    "name": "F5",
                    "midi": 77,
                    "time": 44.500000000000036,
                    "velocity": 0.9763779527559056,
                    "duration": 0.2083333333333357
                },
                {
                    "name": "E5",
                    "midi": 76,
                    "time": 44.750000000000036,
                    "velocity": 0.9763779527559056,
                    "duration": 0.2083333333333357
                },
                {
                    "name": "D5",
                    "midi": 74,
                    "time": 45.000000000000036,
                    "velocity": 0.9763779527559056,
                    "duration": 0.2083333333333357
                },
                {
                    "name": "C5",
                    "midi": 72,
                    "time": 45.250000000000036,
                    "velocity": 0.9763779527559056,
                    "duration": 0.2083333333333357
                },
                {
                    "name": "E5",
                    "midi": 76,
                    "time": 45.500000000000036,
                    "velocity": 0.9763779527559056,
                    "duration": 0.1666666666666643
                },
                {
                    "name": "D5",
                    "midi": 74,
                    "time": 45.6666666666667,
                    "velocity": 0.9763779527559056,
                    "duration": 0.1666666666666643
                },
                {
                    "name": "C5",
                    "midi": 72,
                    "time": 45.833333333333364,
                    "velocity": 0.9763779527559056,
                    "duration": 0.1458333333333357
                },
                {
                    "name": "D5",
                    "midi": 74,
                    "time": 46.000000000000036,
                    "velocity": 0.9763779527559056,
                    "duration": 0.4166666666666643
                },
                {
                    "name": "C5",
                    "midi": 72,
                    "time": 46.500000000000036,
                    "velocity": 0.9763779527559056,
                    "duration": 0.0833333333333357
                },
                {
                    "name": "B4",
                    "midi": 71,
                    "time": 46.58333333333337,
                    "velocity": 0.9763779527559056,
                    "duration": 0.0833333333333357
                },
                {
                    "name": "C5",
                    "midi": 72,
                    "time": 46.66666666666671,
                    "velocity": 0.9763779527559056,
                    "duration": 0.0833333333333357
                },
                {
                    "name": "B4",
                    "midi": 71,
                    "time": 46.75000000000004,
                    "velocity": 0.9763779527559056,
                    "duration": 0.0833333333333357
                },
                {
                    "name": "C5",
                    "midi": 72,
                    "time": 46.83333333333338,
                    "velocity": 0.9763779527559056,
                    "duration": 0.0833333333333357
                },
                {
                    "name": "B4",
                    "midi": 71,
                    "time": 46.916666666666714,
                    "velocity": 0.9763779527559056,
                    "duration": 0.0833333333333357
                },
                {
                    "name": "C5",
                    "midi": 72,
                    "time": 47.00000000000005,
                    "velocity": 0.9763779527559056,
                    "duration": 0.9166666666666714
                }
            ],
            "controlChanges": {
                "10": [
                    {
                        "number": 10,
                        "time": 0,
                        "value": 0
                    }
                ]
            },
            "id": 3,
            "name": "Musette",
            "instrumentNumber": 74,
            "instrument": "recorder",
            "instrumentFamily": "pipe",
            "channelNumber": 0,
            "isPercussion": false
        },
        {
            "startTime": 25.5,
            "duration": 47.91666666666668,
            "length": 80,
            "notes": [
                {
                    "name": "G3",
                    "midi": 55,
                    "time": 25.5,
                    "velocity": 0.33858267716535434,
                    "duration": 0.41666666666666785
                },
                {
                    "name": "F3",
                    "midi": 53,
                    "time": 26,
                    "velocity": 0.33858267716535434,
                    "duration": 0.125
                },
                {
                    "name": "E3",
                    "midi": 52,
                    "time": 26.125,
                    "velocity": 0.33858267716535434,
                    "duration": 0.08333333333333215
                },
                {
                    "name": "F3",
                    "midi": 53,
                    "time": 26.208333333333332,
                    "velocity": 0.33858267716535434,
                    "duration": 0.08333333333333215
                },
                {
                    "name": "E3",
                    "midi": 52,
                    "time": 26.291666666666664,
                    "velocity": 0.33858267716535434,
                    "duration": 0.08333333333333215
                },
                {
                    "name": "F3",
                    "midi": 53,
                    "time": 26.374999999999996,
                    "velocity": 0.33858267716535434,
                    "duration": 0.08333333333333215
                },
                {
                    "name": "E3",
                    "midi": 52,
                    "time": 26.45833333333333,
                    "velocity": 0.33858267716535434,
                    "duration": 0.08333333333333215
                },
                {
                    "name": "F3",
                    "midi": 53,
                    "time": 26.54166666666666,
                    "velocity": 0.33858267716535434,
                    "duration": 0.08333333333333215
                },
                {
                    "name": "E3",
                    "midi": 52,
                    "time": 26.624999999999993,
                    "velocity": 0.33858267716535434,
                    "duration": 0.125
                },
                {
                    "name": "D3",
                    "midi": 50,
                    "time": 26.749999999999993,
                    "velocity": 0.33858267716535434,
                    "duration": 0.20833333333333215
                },
                {
                    "name": "C3",
                    "midi": 48,
                    "time": 26.999999999999993,
                    "velocity": 0.33858267716535434,
                    "duration": 0.20833333333333215
                },
                {
                    "name": "B2",
                    "midi": 47,
                    "time": 27.249999999999993,
                    "velocity": 0.33858267716535434,
                    "duration": 0.20833333333333215
                },
                {
                    "name": "C3",
                    "midi": 48,
                    "time": 27.499999999999993,
                    "velocity": 0.33858267716535434,
                    "duration": 0.671875
                },
                {
                    "name": "G2",
                    "midi": 43,
                    "time": 28.249999999999993,
                    "velocity": 0.33858267716535434,
                    "duration": 0.20833333333333215
                },
                {
                    "name": "C3",
                    "midi": 48,
                    "time": 28.499999999999993,
                    "velocity": 0.33858267716535434,
                    "duration": 0.20833333333333215
                },
                {
                    "name": "D3",
                    "midi": 50,
                    "time": 28.749999999999993,
                    "velocity": 0.33858267716535434,
                    "duration": 0.20833333333333215
                },
                {
                    "name": "E3",
                    "midi": 52,
                    "time": 28.999999999999993,
                    "velocity": 0.33858267716535434,
                    "duration": 0.20833333333333215
                },
                {
                    "name": "D3",
                    "midi": 50,
                    "time": 29.249999999999993,
                    "velocity": 0.33858267716535434,
                    "duration": 0.20833333333333215
                },
                {
                    "name": "C3",
                    "midi": 48,
                    "time": 29.499999999999993,
                    "velocity": 0.33858267716535434,
                    "duration": 0.20833333333333215
                },
                {
                    "name": "B2",
                    "midi": 47,
                    "time": 29.749999999999993,
                    "velocity": 0.33858267716535434,
                    "duration": 0.20833333333333215
                },
                {
                    "name": "C3",
                    "midi": 48,
                    "time": 29.999999999999993,
                    "velocity": 0.33858267716535434,
                    "duration": 0.41666666666666785
                },
                {
                    "name": "E4",
                    "midi": 64,
                    "time": 30.499999999999993,
                    "velocity": 0.33858267716535434,
                    "duration": 0.20833333333333215
                },
                {
                    "name": "D4",
                    "midi": 62,
                    "time": 30.749999999999993,
                    "velocity": 0.33858267716535434,
                    "duration": 0.25
                },
                {
                    "name": "C4",
                    "midi": 60,
                    "time": 30.999999999999993,
                    "velocity": 0.33858267716535434,
                    "duration": 0.08333333333333215
                },
                {
                    "name": "D4",
                    "midi": 62,
                    "time": 31.083333333333325,
                    "velocity": 0.33858267716535434,
                    "duration": 0.08333333333333215
                },
                {
                    "name": "C4",
                    "midi": 60,
                    "time": 31.166666666666657,
                    "velocity": 0.33858267716535434,
                    "duration": 0.08333333333333215
                },
                {
                    "name": "B3",
                    "midi": 59,
                    "time": 31.24999999999999,
                    "velocity": 0.33858267716535434,
                    "duration": 0.20833333333333215
                },
                {
                    "name": "C4",
                    "midi": 60,
                    "time": 31.49999999999999,
                    "velocity": 0.33858267716535434,
                    "duration": 0.41666666666666785
                },
                {
                    "name": "E3",
                    "midi": 52,
                    "time": 31.99999999999999,
                    "velocity": 0.33858267716535434,
                    "duration": 0.20833333333333215
                },
                {
                    "name": "D3",
                    "midi": 50,
                    "time": 32.249999999999986,
                    "velocity": 0.33858267716535434,
                    "duration": 0.25
                },
                {
                    "name": "C3",
                    "midi": 48,
                    "time": 32.499999999999986,
                    "velocity": 0.33858267716535434,
                    "duration": 0.0833333333333357
                },
                {
                    "name": "D3",
                    "midi": 50,
                    "time": 32.58333333333332,
                    "velocity": 0.33858267716535434,
                    "duration": 0.0833333333333357
                },
                {
                    "name": "C3",
                    "midi": 48,
                    "time": 32.66666666666666,
                    "velocity": 0.33858267716535434,
                    "duration": 0.0833333333333357
                },
                {
                    "name": "B2",
                    "midi": 47,
                    "time": 32.74999999999999,
                    "velocity": 0.33858267716535434,
                    "duration": 0.2083333333333357
                },
                {
                    "name": "C3",
                    "midi": 48,
                    "time": 32.99999999999999,
                    "velocity": 0.33858267716535434,
                    "duration": 0.4166666666666643
                },
                {
                    "name": "F3",
                    "midi": 53,
                    "time": 33.49999999999999,
                    "velocity": 0.33858267716535434,
                    "duration": 0.2083333333333357
                },
                {
                    "name": "G3",
                    "midi": 55,
                    "time": 33.74999999999999,
                    "velocity": 0.33858267716535434,
                    "duration": 0.2083333333333357
                },
                {
                    "name": "A3",
                    "midi": 57,
                    "time": 33.99999999999999,
                    "velocity": 0.33858267716535434,
                    "duration": 0.4166666666666643
                },
                {
                    "name": "F3",
                    "midi": 53,
                    "time": 34.49999999999999,
                    "velocity": 0.33858267716535434,
                    "duration": 0.4166666666666643
                },
                {
                    "name": "G3",
                    "midi": 55,
                    "time": 34.99999999999999,
                    "velocity": 0.33858267716535434,
                    "duration": 0.2083333333333357
                },
                {
                    "name": "F3",
                    "midi": 53,
                    "time": 35.24999999999999,
                    "velocity": 0.33858267716535434,
                    "duration": 0.2083333333333357
                },
                {
                    "name": "E3",
                    "midi": 52,
                    "time": 35.49999999999999,
                    "velocity": 0.33858267716535434,
                    "duration": 0.2083333333333357
                },
                {
                    "name": "D3",
                    "midi": 50,
                    "time": 35.74999999999999,
                    "velocity": 0.33858267716535434,
                    "duration": 0.2083333333333357
                },
                {
                    "name": "E3",
                    "midi": 52,
                    "time": 35.99999999999999,
                    "velocity": 0.33858267716535434,
                    "duration": 0.2083333333333357
                },
                {
                    "name": "C3",
                    "midi": 48,
                    "time": 36.24999999999999,
                    "velocity": 0.33858267716535434,
                    "duration": 0.2083333333333357
                },
                {
                    "name": "G3",
                    "midi": 55,
                    "time": 36.49999999999999,
                    "velocity": 0.33858267716535434,
                    "duration": 0.4166666666666643
                },
                {
                    "name": "G2",
                    "midi": 43,
                    "time": 36.99999999999999,
                    "velocity": 0.33858267716535434,
                    "duration": 0.4166666666666643
                },
                {
                    "name": "G3",
                    "midi": 55,
                    "time": 37.49999999999999,
                    "velocity": 0.33858267716535434,
                    "duration": 0.4166666666666643
                },
                {
                    "name": "F3",
                    "midi": 53,
                    "time": 37.99999999999999,
                    "velocity": 0.33858267716535434,
                    "duration": 0.125
                },
                {
                    "name": "E3",
                    "midi": 52,
                    "time": 38.12499999999999,
                    "velocity": 0.33858267716535434,
                    "duration": 0.0833333333333357
                },
                {
                    "name": "F3",
                    "midi": 53,
                    "time": 38.20833333333333,
                    "velocity": 0.33858267716535434,
                    "duration": 0.0833333333333357
                },
                {
                    "name": "E3",
                    "midi": 52,
                    "time": 38.291666666666664,
                    "velocity": 0.33858267716535434,
                    "duration": 0.0833333333333357
                },
                {
                    "name": "F3",
                    "midi": 53,
                    "time": 38.375,
                    "velocity": 0.33858267716535434,
                    "duration": 0.0833333333333357
                },
                {
                    "name": "E3",
                    "midi": 52,
                    "time": 38.458333333333336,
                    "velocity": 0.33858267716535434,
                    "duration": 0.0833333333333357
                },
                {
                    "name": "F3",
                    "midi": 53,
                    "time": 38.54166666666667,
                    "velocity": 0.33858267716535434,
                    "duration": 0.0833333333333357
                },
                {
                    "name": "E3",
                    "midi": 52,
                    "time": 38.62500000000001,
                    "velocity": 0.33858267716535434,
                    "duration": 0.125
                },
                {
                    "name": "D3",
                    "midi": 50,
                    "time": 38.75000000000001,
                    "velocity": 0.33858267716535434,
                    "duration": 0.2083333333333357
                },
                {
                    "name": "C3",
                    "midi": 48,
                    "time": 39.00000000000001,
                    "velocity": 0.33858267716535434,
                    "duration": 0.2083333333333357
                },
                {
                    "name": "B2",
                    "midi": 47,
                    "time": 39.25000000000001,
                    "velocity": 0.33858267716535434,
                    "duration": 0.2083333333333357
                },
                {
                    "name": "C3",
                    "midi": 48,
                    "time": 39.50000000000001,
                    "velocity": 0.33858267716535434,
                    "duration": 0.671875
                },
                {
                    "name": "G2",
                    "midi": 43,
                    "time": 40.25000000000001,
                    "velocity": 0.33858267716535434,
                    "duration": 0.2083333333333357
                },
                {
                    "name": "C3",
                    "midi": 48,
                    "time": 40.50000000000001,
                    "velocity": 0.33858267716535434,
                    "duration": 0.2083333333333357
                },
                {
                    "name": "D3",
                    "midi": 50,
                    "time": 40.75000000000001,
                    "velocity": 0.33858267716535434,
                    "duration": 0.2083333333333357
                },
                {
                    "name": "E3",
                    "midi": 52,
                    "time": 41.00000000000001,
                    "velocity": 0.33858267716535434,
                    "duration": 0.2083333333333357
                },
                {
                    "name": "D3",
                    "midi": 50,
                    "time": 41.25000000000001,
                    "velocity": 0.33858267716535434,
                    "duration": 0.2083333333333357
                },
                {
                    "name": "C3",
                    "midi": 48,
                    "time": 41.50000000000001,
                    "velocity": 0.33858267716535434,
                    "duration": 0.2083333333333357
                },
                {
                    "name": "B2",
                    "midi": 47,
                    "time": 41.75000000000001,
                    "velocity": 0.33858267716535434,
                    "duration": 0.2083333333333357
                },
                {
                    "name": "C3",
                    "midi": 48,
                    "time": 42.00000000000001,
                    "velocity": 0.33858267716535434,
                    "duration": 0.4166666666666643
                },
                {
                    "name": "E4",
                    "midi": 64,
                    "time": 42.50000000000001,
                    "velocity": 0.33858267716535434,
                    "duration": 0.2083333333333357
                },
                {
                    "name": "D4",
                    "midi": 62,
                    "time": 42.75000000000001,
                    "velocity": 0.33858267716535434,
                    "duration": 0.2083333333333357
                },
                {
                    "name": "C4",
                    "midi": 60,
                    "time": 43.00000000000001,
                    "velocity": 0.33858267716535434,
                    "duration": 0.2083333333333357
                },
                {
                    "name": "B3",
                    "midi": 59,
                    "time": 43.25000000000001,
                    "velocity": 0.33858267716535434,
                    "duration": 0.2083333333333357
                },
                {
                    "name": "C4",
                    "midi": 60,
                    "time": 43.50000000000001,
                    "velocity": 0.33858267716535434,
                    "duration": 0.4166666666666643
                },
                {
                    "name": "F3",
                    "midi": 53,
                    "time": 44.00000000000001,
                    "velocity": 0.33858267716535434,
                    "duration": 0.2083333333333357
                },
                {
                    "name": "G3",
                    "midi": 55,
                    "time": 44.25000000000001,
                    "velocity": 0.33858267716535434,
                    "duration": 0.2083333333333357
                },
                {
                    "name": "A3",
                    "midi": 57,
                    "time": 44.50000000000001,
                    "velocity": 0.33858267716535434,
                    "duration": 0.4166666666666643
                },
                {
                    "name": "F3",
                    "midi": 53,
                    "time": 45.00000000000001,
                    "velocity": 0.33858267716535434,
                    "duration": 0.4166666666666643
                },
                {
                    "name": "G3",
                    "midi": 55,
                    "time": 45.50000000000001,
                    "velocity": 0.33858267716535434,
                    "duration": 0.4166666666666643
                },
                {
                    "name": "G2",
                    "midi": 43,
                    "time": 46.00000000000001,
                    "velocity": 0.33858267716535434,
                    "duration": 0.9166666666666643
                },
                {
                    "name": "C3",
                    "midi": 48,
                    "time": 47.00000000000001,
                    "velocity": 0.33858267716535434,
                    "duration": 0.9166666666666714
                }
            ],
            "controlChanges": {
                "10": [
                    {
                        "number": 10,
                        "time": 0,
                        "value": 1
                    }
                ]
            },
            "id": 4,
            "name": "Violoncello",
            "instrumentNumber": 42,
            "instrument": "cello",
            "instrumentFamily": "strings",
            "channelNumber": 1,
            "isPercussion": false
        },
        {
            "startTime": 48,
            "duration": 137.99999999999974,
            "length": 400,
            "notes": [
                {
                    "name": "C5",
                    "midi": 72,
                    "time": 48,
                    "velocity": 0.8740157480314961,
                    "duration": 0.4166666666666643
                },
                {
                    "name": "C5",
                    "midi": 72,
                    "time": 48.5,
                    "velocity": 0.8740157480314961,
                    "duration": 0.125
                },
                {
                    "name": "B4",
                    "midi": 71,
                    "time": 48.625,
                    "velocity": 0.8740157480314961,
                    "duration": 0.0833333333333357
                },
                {
                    "name": "C5",
                    "midi": 72,
                    "time": 48.708333333333336,
                    "velocity": 0.8740157480314961,
                    "duration": 0.0833333333333357
                },
                {
                    "name": "B4",
                    "midi": 71,
                    "time": 48.79166666666667,
                    "velocity": 0.8740157480314961,
                    "duration": 0.0833333333333357
                },
                {
                    "name": "C5",
                    "midi": 72,
                    "time": 48.87500000000001,
                    "velocity": 0.8740157480314961,
                    "duration": 0.0833333333333357
                },
                {
                    "name": "B4",
                    "midi": 71,
                    "time": 48.95833333333334,
                    "velocity": 0.8740157480314961,
                    "duration": 0.0833333333333357
                },
                {
                    "name": "C5",
                    "midi": 72,
                    "time": 49.04166666666668,
                    "velocity": 0.8740157480314961,
                    "duration": 0.0833333333333357
                },
                {
                    "name": "B4",
                    "midi": 71,
                    "time": 49.125000000000014,
                    "velocity": 0.8740157480314961,
                    "duration": 0.125
                },
                {
                    "name": "A4",
                    "midi": 69,
                    "time": 49.250000000000014,
                    "velocity": 0.8740157480314961,
                    "duration": 0.25
                },
                {
                    "name": "B4",
                    "midi": 71,
                    "time": 49.500000000000014,
                    "velocity": 0.8740157480314961,
                    "duration": 0.25
                },
                {
                    "name": "C5",
                    "midi": 72,
                    "time": 49.750000000000014,
                    "velocity": 0.8740157480314961,
                    "duration": 0.25
                },
                {
                    "name": "B4",
                    "midi": 71,
                    "time": 50.000000000000014,
                    "velocity": 0.8740157480314961,
                    "duration": 0.0833333333333357
                },
                {
                    "name": "A4",
                    "midi": 69,
                    "time": 50.08333333333335,
                    "velocity": 0.8740157480314961,
                    "duration": 0.0833333333333357
                },
                {
                    "name": "B4",
                    "midi": 71,
                    "time": 50.166666666666686,
                    "velocity": 0.8740157480314961,
                    "duration": 0.0833333333333357
                },
                {
                    "name": "A4",
                    "midi": 69,
                    "time": 50.25000000000002,
                    "velocity": 0.8740157480314961,
                    "duration": 0.0833333333333357
                },
                {
                    "name": "B4",
                    "midi": 71,
                    "time": 50.33333333333336,
                    "velocity": 0.8740157480314961,
                    "duration": 0.0833333333333357
                },
                {
                    "name": "A4",
                    "midi": 69,
                    "time": 50.41666666666669,
                    "velocity": 0.8740157480314961,
                    "duration": 0.0833333333333357
                },
                {
                    "name": "G4",
                    "midi": 67,
                    "time": 50.50000000000003,
                    "velocity": 0.8740157480314961,
                    "duration": 0.4166666666666643
                },
                {
                    "name": "C5",
                    "midi": 72,
                    "time": 51.00000000000003,
                    "velocity": 0.8740157480314961,
                    "duration": 0.4166666666666643
                },
                {
                    "name": "C5",
                    "midi": 72,
                    "time": 51.50000000000003,
                    "velocity": 0.8740157480314961,
                    "duration": 0.125
                },
                {
                    "name": "B4",
                    "midi": 71,
                    "time": 51.62500000000003,
                    "velocity": 0.8740157480314961,
                    "duration": 0.0833333333333357
                },
                {
                    "name": "C5",
                    "midi": 72,
                    "time": 51.708333333333364,
                    "velocity": 0.8740157480314961,
                    "duration": 0.0833333333333357
                },
                {
                    "name": "B4",
                    "midi": 71,
                    "time": 51.7916666666667,
                    "velocity": 0.8740157480314961,
                    "duration": 0.0833333333333357
                },
                {
                    "name": "C5",
                    "midi": 72,
                    "time": 51.875000000000036,
                    "velocity": 0.8740157480314961,
                    "duration": 0.0833333333333357
                },
                {
                    "name": "C5",
                    "midi": 72,
                    "time": 51.95833333333337,
                    "velocity": 0.8740157480314961,
                    "duration": 0.0833333333333357
                },
                {
                    "name": "C5",
                    "midi": 72,
                    "time": 52.04166666666671,
                    "velocity": 0.8740157480314961,
                    "duration": 0.0833333333333357
                },
                {
                    "name": "B4",
                    "midi": 71,
                    "time": 52.12500000000004,
                    "velocity": 0.8740157480314961,
                    "duration": 0.125
                },
                {
                    "name": "A4",
                    "midi": 69,
                    "time": 52.25000000000004,
                    "velocity": 0.8740157480314961,
                    "duration": 0.25
                },
                {
                    "name": "B4",
                    "midi": 71,
                    "time": 52.50000000000004,
                    "velocity": 0.8740157480314961,
                    "duration": 0.25
                },
                {
                    "name": "C5",
                    "midi": 72,
                    "time": 52.75000000000004,
                    "velocity": 0.8740157480314961,
                    "duration": 0.25
                },
                {
                    "name": "D5",
                    "midi": 74,
                    "time": 53.00000000000004,
                    "velocity": 0.8740157480314961,
                    "duration": 0.9166666666666643
                },
                {
                    "name": "G5",
                    "midi": 79,
                    "time": 54.00000000000004,
                    "velocity": 0.8740157480314961,
                    "duration": 0.4166666666666643
                },
                {
                    "name": "A5",
                    "midi": 81,
                    "time": 54.50000000000004,
                    "velocity": 0.8740157480314961,
                    "duration": 0.125
                },
                {
                    "name": "G5",
                    "midi": 79,
                    "time": 54.62500000000004,
                    "velocity": 0.8740157480314961,
                    "duration": 0.0833333333333357
                },
                {
                    "name": "A5",
                    "midi": 81,
                    "time": 54.70833333333338,
                    "velocity": 0.8740157480314961,
                    "duration": 0.0833333333333357
                },
                {
                    "name": "G5",
                    "midi": 79,
                    "time": 54.791666666666714,
                    "velocity": 0.8740157480314961,
                    "duration": 0.0833333333333357
                },
                {
                    "name": "A5",
                    "midi": 81,
                    "time": 54.87500000000005,
                    "velocity": 0.8740157480314961,
                    "duration": 0.0833333333333357
                },
                {
                    "name": "G5",
                    "midi": 79,
                    "time": 54.958333333333385,
                    "velocity": 0.8740157480314961,
                    "duration": 0.0833333333333357
                },
                {
                    "name": "A5",
                    "midi": 81,
                    "time": 55.04166666666672,
                    "velocity": 0.8740157480314961,
                    "duration": 0.0833333333333357
                },
                {
                    "name": "G5",
                    "midi": 79,
                    "time": 55.12500000000006,
                    "velocity": 0.8740157480314961,
                    "duration": 0.125
                },
                {
                    "name": "F#5",
                    "midi": 78,
                    "time": 55.25000000000006,
                    "velocity": 0.8740157480314961,
                    "duration": 0.25
                },
                {
                    "name": "G5",
                    "midi": 79,
                    "time": 55.50000000000006,
                    "velocity": 0.8740157480314961,
                    "duration": 0.25
                },
                {
                    "name": "A5",
                    "midi": 81,
                    "time": 55.75000000000006,
                    "velocity": 0.8740157480314961,
                    "duration": 0.25
                },
                {
                    "name": "B5",
                    "midi": 83,
                    "time": 56.00000000000006,
                    "velocity": 0.8740157480314961,
                    "duration": 0.4166666666666643
                },
                {
                    "name": "A5",
                    "midi": 81,
                    "time": 56.50000000000006,
                    "velocity": 0.8740157480314961,
                    "duration": 0.4166666666666643
                },
                {
                    "name": "C6",
                    "midi": 84,
                    "time": 57.00000000000006,
                    "velocity": 0.8740157480314961,
                    "duration": 0.4166666666666643
                },
                {
                    "name": "C6",
                    "midi": 84,
                    "time": 57.50000000000006,
                    "velocity": 0.8740157480314961,
                    "duration": 0.125
                },
                {
                    "name": "B5",
                    "midi": 83,
                    "time": 57.62500000000006,
                    "velocity": 0.8740157480314961,
                    "duration": 0.0833333333333357
                },
                {
                    "name": "C6",
                    "midi": 84,
                    "time": 57.70833333333339,
                    "velocity": 0.8740157480314961,
                    "duration": 0.0833333333333357
                },
                {
                    "name": "B5",
                    "midi": 83,
                    "time": 57.79166666666673,
                    "velocity": 0.8740157480314961,
                    "duration": 0.0833333333333357
                },
                {
                    "name": "C6",
                    "midi": 84,
                    "time": 57.875000000000064,
                    "velocity": 0.8740157480314961,
                    "duration": 0.0833333333333357
                },
                {
                    "name": "B5",
                    "midi": 83,
                    "time": 57.9583333333334,
                    "velocity": 0.8740157480314961,
                    "duration": 0.0833333333333357
                },
                {
                    "name": "C6",
                    "midi": 84,
                    "time": 58.041666666666735,
                    "velocity": 0.8740157480314961,
                    "duration": 0.0833333333333357
                },
                {
                    "name": "B5",
                    "midi": 83,
                    "time": 58.12500000000007,
                    "velocity": 0.8740157480314961,
                    "duration": 0.125
                },
                {
                    "name": "A5",
                    "midi": 81,
                    "time": 58.25000000000007,
                    "velocity": 0.8740157480314961,
                    "duration": 0.25
                },
                {
                    "name": "B5",
                    "midi": 83,
                    "time": 58.50000000000007,
                    "velocity": 0.8740157480314961,
                    "duration": 0.25
                },
                {
                    "name": "C6",
                    "midi": 84,
                    "time": 58.75000000000007,
                    "velocity": 0.8740157480314961,
                    "duration": 0.25
                },
                {
                    "name": "B5",
                    "midi": 83,
                    "time": 59.00000000000007,
                    "velocity": 0.8740157480314961,
                    "duration": 0.0833333333333357
                },
                {
                    "name": "A5",
                    "midi": 81,
                    "time": 59.08333333333341,
                    "velocity": 0.8740157480314961,
                    "duration": 0.0833333333333357
                },
                {
                    "name": "B5",
                    "midi": 83,
                    "time": 59.16666666666674,
                    "velocity": 0.8740157480314961,
                    "duration": 0.0833333333333357
                },
                {
                    "name": "A5",
                    "midi": 81,
                    "time": 59.25000000000008,
                    "velocity": 0.8740157480314961,
                    "duration": 0.0833333333333357
                },
                {
                    "name": "B5",
                    "midi": 83,
                    "time": 59.333333333333414,
                    "velocity": 0.8740157480314961,
                    "duration": 0.0833333333333357
                },
                {
                    "name": "A5",
                    "midi": 81,
                    "time": 59.41666666666675,
                    "velocity": 0.8740157480314961,
                    "duration": 0.0833333333333357
                },
                {
                    "name": "B5",
                    "midi": 83,
                    "time": 59.500000000000085,
                    "velocity": 0.8740157480314961,
                    "duration": 0.0833333333333357
                },
                {
                    "name": "A5",
                    "midi": 81,
                    "time": 59.58333333333342,
                    "velocity": 0.8740157480314961,
                    "duration": 0.0833333333333357
                },
                {
                    "name": "B5",
                    "midi": 83,
                    "time": 59.66666666666676,
                    "velocity": 0.8740157480314961,
                    "duration": 0.0833333333333357
                },
                {
                    "name": "A5",
                    "midi": 81,
                    "time": 59.75000000000009,
                    "velocity": 0.8740157480314961,
                    "duration": 0.0833333333333357
                },
                {
                    "name": "B5",
                    "midi": 83,
                    "time": 59.83333333333343,
                    "velocity": 0.8740157480314961,
                    "duration": 0.0833333333333357
                },
                {
                    "name": "A5",
                    "midi": 81,
                    "time": 59.916666666666764,
                    "velocity": 0.8740157480314961,
                    "duration": 0.0833333333333357
                },
                {
                    "name": "D6",
                    "midi": 86,
                    "time": 60.0000000000001,
                    "velocity": 0.8740157480314961,
                    "duration": 0.4166666666666643
                },
                {
                    "name": "B5",
                    "midi": 83,
                    "time": 60.5000000000001,
                    "velocity": 0.8740157480314961,
                    "duration": 0.4166666666666643
                },
                {
                    "name": "A5",
                    "midi": 81,
                    "time": 61.0000000000001,
                    "velocity": 0.8740157480314961,
                    "duration": 0.2083333333333357
                },
                {
                    "name": "B5",
                    "midi": 83,
                    "time": 61.2500000000001,
                    "velocity": 0.8740157480314961,
                    "duration": 0.2083333333333357
                },
                {
                    "name": "C6",
                    "midi": 84,
                    "time": 61.5000000000001,
                    "velocity": 0.8740157480314961,
                    "duration": 0.2083333333333357
                },
                {
                    "name": "D6",
                    "midi": 86,
                    "time": 61.7500000000001,
                    "velocity": 0.8740157480314961,
                    "duration": 0.2083333333333357
                },
                {
                    "name": "F#5",
                    "midi": 78,
                    "time": 62.0000000000001,
                    "velocity": 0.8740157480314961,
                    "duration": 0.4166666666666643
                },
                {
                    "name": "D5",
                    "midi": 74,
                    "time": 62.5000000000001,
                    "velocity": 0.8740157480314961,
                    "duration": 0.4166666666666643
                },
                {
                    "name": "D6",
                    "midi": 86,
                    "time": 63.0000000000001,
                    "velocity": 0.8740157480314961,
                    "duration": 0.4166666666666643
                },
                {
                    "name": "C6",
                    "midi": 84,
                    "time": 63.5000000000001,
                    "velocity": 0.8740157480314961,
                    "duration": 0.0833333333333357
                },
                {
                    "name": "B5",
                    "midi": 83,
                    "time": 63.583333333333435,
                    "velocity": 0.8740157480314961,
                    "duration": 0.0833333333333357
                },
                {
                    "name": "C6",
                    "midi": 84,
                    "time": 63.66666666666677,
                    "velocity": 0.8740157480314961,
                    "duration": 0.0833333333333357
                },
                {
                    "name": "B5",
                    "midi": 83,
                    "time": 63.75000000000011,
                    "velocity": 0.8740157480314961,
                    "duration": 0.0833333333333357
                },
                {
                    "name": "C6",
                    "midi": 84,
                    "time": 63.83333333333344,
                    "velocity": 0.8740157480314961,
                    "duration": 0.0833333333333357
                },
                {
                    "name": "B5",
                    "midi": 83,
                    "time": 63.91666666666678,
                    "velocity": 0.8740157480314961,
                    "duration": 0.0833333333333357
                },
                {
                    "name": "A5",
                    "midi": 81,
                    "time": 64.00000000000011,
                    "velocity": 0.8740157480314961,
                    "duration": 0.2083333333333286
                },
                {
                    "name": "B5",
                    "midi": 83,
                    "time": 64.25000000000011,
                    "velocity": 0.8740157480314961,
                    "duration": 0.2083333333333286
                },
                {
                    "name": "C6",
                    "midi": 84,
                    "time": 64.50000000000011,
                    "velocity": 0.8740157480314961,
                    "duration": 0.2083333333333286
                },
                {
                    "name": "D6",
                    "midi": 86,
                    "time": 64.75000000000011,
                    "velocity": 0.8740157480314961,
                    "duration": 0.2083333333333286
                },
                {
                    "name": "G5",
                    "midi": 79,
                    "time": 65.00000000000011,
                    "velocity": 0.8740157480314961,
                    "duration": 0.0833333333333286
                },
                {
                    "name": "F#5",
                    "midi": 78,
                    "time": 65.08333333333344,
                    "velocity": 0.8740157480314961,
                    "duration": 0.0833333333333286
                },
                {
                    "name": "G5",
                    "midi": 79,
                    "time": 65.16666666666677,
                    "velocity": 0.8740157480314961,
                    "duration": 0.0833333333333286
                },
                {
                    "name": "F#5",
                    "midi": 78,
                    "time": 65.2500000000001,
                    "velocity": 0.8740157480314961,
                    "duration": 0.0833333333333286
                },
                {
                    "name": "G5",
                    "midi": 79,
                    "time": 65.33333333333343,
                    "velocity": 0.8740157480314961,
                    "duration": 0.0833333333333286
                },
                {
                    "name": "F#5",
                    "midi": 78,
                    "time": 65.41666666666676,
                    "velocity": 0.8740157480314961,
                    "duration": 0.0833333333333286
                },
                {
                    "name": "D5",
                    "midi": 74,
                    "time": 65.50000000000009,
                    "velocity": 0.8740157480314961,
                    "duration": 0.4166666666666714
                },
                {
                    "name": "D6",
                    "midi": 86,
                    "time": 66.00000000000009,
                    "velocity": 0.8740157480314961,
                    "duration": 0.4166666666666714
                },
                {
                    "name": "B5",
                    "midi": 83,
                    "time": 66.50000000000009,
                    "velocity": 0.8740157480314961,
                    "duration": 0.4166666666666714
                },
                {
                    "name": "A5",
                    "midi": 81,
                    "time": 67.00000000000009,
                    "velocity": 0.8740157480314961,
                    "duration": 0.2083333333333286
                },
                {
                    "name": "G5",
                    "midi": 79,
                    "time": 67.25000000000009,
                    "velocity": 0.8740157480314961,
                    "duration": 0.2083333333333286
                },
                {
                    "name": "A5",
                    "midi": 81,
                    "time": 67.50000000000009,
                    "velocity": 0.8740157480314961,
                    "duration": 0.2083333333333286
                },
                {
                    "name": "F#5",
                    "midi": 78,
                    "time": 67.75000000000009,
                    "velocity": 0.8740157480314961,
                    "duration": 0.2083333333333286
                },
                {
                    "name": "G5",
                    "midi": 79,
                    "time": 68.00000000000009,
                    "velocity": 0.8740157480314961,
                    "duration": 0.9166666666666714
                },
                {
                    "name": "D5",
                    "midi": 74,
                    "time": 69.00000000000009,
                    "velocity": 0.8740157480314961,
                    "duration": 0.4166666666666714
                },
                {
                    "name": "C5",
                    "midi": 72,
                    "time": 69.50000000000009,
                    "velocity": 0.8740157480314961,
                    "duration": 0.0833333333333286
                },
                {
                    "name": "B4",
                    "midi": 71,
                    "time": 69.58333333333341,
                    "velocity": 0.8740157480314961,
                    "duration": 0.0833333333333286
                },
                {
                    "name": "C5",
                    "midi": 72,
                    "time": 69.66666666666674,
                    "velocity": 0.8740157480314961,
                    "duration": 0.0833333333333286
                },
                {
                    "name": "B4",
                    "midi": 71,
                    "time": 69.75000000000007,
                    "velocity": 0.8740157480314961,
                    "duration": 0.0833333333333286
                },
                {
                    "name": "C5",
                    "midi": 72,
                    "time": 69.8333333333334,
                    "velocity": 0.8740157480314961,
                    "duration": 0.0833333333333286
                },
                {
                    "name": "B4",
                    "midi": 71,
                    "time": 69.91666666666673,
                    "velocity": 0.8740157480314961,
                    "duration": 0.0833333333333286
                },
                {
                    "name": "A4",
                    "midi": 69,
                    "time": 70.00000000000006,
                    "velocity": 0.8740157480314961,
                    "duration": 0.2083333333333286
                },
                {
                    "name": "B4",
                    "midi": 71,
                    "time": 70.25000000000006,
                    "velocity": 0.8740157480314961,
                    "duration": 0.2083333333333286
                },
                {
                    "name": "C5",
                    "midi": 72,
                    "time": 70.50000000000006,
                    "velocity": 0.8740157480314961,
                    "duration": 0.2083333333333286
                },
                {
                    "name": "D5",
                    "midi": 74,
                    "time": 70.75000000000006,
                    "velocity": 0.8740157480314961,
                    "duration": 0.2083333333333286
                },
                {
                    "name": "C5",
                    "midi": 72,
                    "time": 71.00000000000006,
                    "velocity": 0.8740157480314961,
                    "duration": 0.0833333333333286
                },
                {
                    "name": "B4",
                    "midi": 71,
                    "time": 71.08333333333339,
                    "velocity": 0.8740157480314961,
                    "duration": 0.0833333333333286
                },
                {
                    "name": "C5",
                    "midi": 72,
                    "time": 71.16666666666671,
                    "velocity": 0.8740157480314961,
                    "duration": 0.0833333333333286
                },
                {
                    "name": "B4",
                    "midi": 71,
                    "time": 71.25000000000004,
                    "velocity": 0.8740157480314961,
                    "duration": 0.0833333333333286
                },
                {
                    "name": "C5",
                    "midi": 72,
                    "time": 71.33333333333337,
                    "velocity": 0.8740157480314961,
                    "duration": 0.0833333333333286
                },
                {
                    "name": "B4",
                    "midi": 71,
                    "time": 71.4166666666667,
                    "velocity": 0.8740157480314961,
                    "duration": 0.0833333333333286
                },
                {
                    "name": "A4",
                    "midi": 69,
                    "time": 71.50000000000003,
                    "velocity": 0.8740157480314961,
                    "duration": 0.4166666666666714
                },
                {
                    "name": "D5",
                    "midi": 74,
                    "time": 72.00000000000003,
                    "velocity": 0.8740157480314961,
                    "duration": 0.4166666666666714
                },
                {
                    "name": "C5",
                    "midi": 72,
                    "time": 72.50000000000003,
                    "velocity": 0.8740157480314961,
                    "duration": 0.0833333333333286
                },
                {
                    "name": "B4",
                    "midi": 71,
                    "time": 72.58333333333336,
                    "velocity": 0.8740157480314961,
                    "duration": 0.0833333333333286
                },
                {
                    "name": "C5",
                    "midi": 72,
                    "time": 72.66666666666669,
                    "velocity": 0.8740157480314961,
                    "duration": 0.0833333333333286
                },
                {
                    "name": "B4",
                    "midi": 71,
                    "time": 72.75000000000001,
                    "velocity": 0.8740157480314961,
                    "duration": 0.0833333333333286
                },
                {
                    "name": "C5",
                    "midi": 72,
                    "time": 72.83333333333334,
                    "velocity": 0.8740157480314961,
                    "duration": 0.0833333333333286
                },
                {
                    "name": "B4",
                    "midi": 71,
                    "time": 72.91666666666667,
                    "velocity": 0.8740157480314961,
                    "duration": 0.0833333333333286
                },
                {
                    "name": "A4",
                    "midi": 69,
                    "time": 73,
                    "velocity": 0.8740157480314961,
                    "duration": 0.2083333333333286
                },
                {
                    "name": "B4",
                    "midi": 71,
                    "time": 73.25,
                    "velocity": 0.8740157480314961,
                    "duration": 0.2083333333333286
                },
                {
                    "name": "C5",
                    "midi": 72,
                    "time": 73.5,
                    "velocity": 0.8740157480314961,
                    "duration": 0.2083333333333286
                },
                {
                    "name": "D5",
                    "midi": 74,
                    "time": 73.75,
                    "velocity": 0.8740157480314961,
                    "duration": 0.2083333333333286
                },
                {
                    "name": "C5",
                    "midi": 72,
                    "time": 74,
                    "velocity": 0.8740157480314961,
                    "duration": 0.0833333333333286
                },
                {
                    "name": "B4",
                    "midi": 71,
                    "time": 74.08333333333333,
                    "velocity": 0.8740157480314961,
                    "duration": 0.0833333333333286
                },
                {
                    "name": "C5",
                    "midi": 72,
                    "time": 74.16666666666666,
                    "velocity": 0.8740157480314961,
                    "duration": 0.0833333333333286
                },
                {
                    "name": "B4",
                    "midi": 71,
                    "time": 74.24999999999999,
                    "velocity": 0.8740157480314961,
                    "duration": 0.0833333333333286
                },
                {
                    "name": "C5",
                    "midi": 72,
                    "time": 74.33333333333331,
                    "velocity": 0.8740157480314961,
                    "duration": 0.0833333333333286
                },
                {
                    "name": "B4",
                    "midi": 71,
                    "time": 74.41666666666664,
                    "velocity": 0.8740157480314961,
                    "duration": 0.0833333333333286
                },
                {
                    "name": "A4",
                    "midi": 69,
                    "time": 74.49999999999997,
                    "velocity": 0.8740157480314961,
                    "duration": 0.4166666666666714
                },
                {
                    "name": "D5",
                    "midi": 74,
                    "time": 74.99999999999997,
                    "velocity": 0.8740157480314961,
                    "duration": 0.4166666666666714
                },
                {
                    "name": "E5",
                    "midi": 76,
                    "time": 75.49999999999997,
                    "velocity": 0.8740157480314961,
                    "duration": 0.2083333333333286
                },
                {
                    "name": "F#5",
                    "midi": 78,
                    "time": 75.74999999999997,
                    "velocity": 0.8740157480314961,
                    "duration": 0.2083333333333286
                },
                {
                    "name": "G5",
                    "midi": 79,
                    "time": 75.99999999999997,
                    "velocity": 0.8740157480314961,
                    "duration": 0.9166666666666714
                },
                {
                    "name": "D5",
                    "midi": 74,
                    "time": 76.99999999999997,
                    "velocity": 0.8740157480314961,
                    "duration": 0.2083333333333286
                },
                {
                    "name": "F#5",
                    "midi": 78,
                    "time": 77.24999999999997,
                    "velocity": 0.8740157480314961,
                    "duration": 0.2083333333333286
                },
                {
                    "name": "G5",
                    "midi": 79,
                    "time": 77.49999999999997,
                    "velocity": 0.8740157480314961,
                    "duration": 0.9166666666666714
                },
                {
                    "name": "C5",
                    "midi": 72,
                    "time": 78.49999999999997,
                    "velocity": 0.8740157480314961,
                    "duration": 0.1666666666666714
                },
                {
                    "name": "B4",
                    "midi": 71,
                    "time": 78.66666666666664,
                    "velocity": 0.8740157480314961,
                    "duration": 0.1666666666666714
                },
                {
                    "name": "A4",
                    "midi": 69,
                    "time": 78.83333333333331,
                    "velocity": 0.8740157480314961,
                    "duration": 0.1458333333333286
                },
                {
                    "name": "C5",
                    "midi": 72,
                    "time": 78.99999999999997,
                    "velocity": 0.8740157480314961,
                    "duration": 0.0833333333333286
                },
                {
                    "name": "B4",
                    "midi": 71,
                    "time": 79.0833333333333,
                    "velocity": 0.8740157480314961,
                    "duration": 0.0833333333333286
                },
                {
                    "name": "C5",
                    "midi": 72,
                    "time": 79.16666666666663,
                    "velocity": 0.8740157480314961,
                    "duration": 0.0833333333333286
                },
                {
                    "name": "B4",
                    "midi": 71,
                    "time": 79.24999999999996,
                    "velocity": 0.8740157480314961,
                    "duration": 0.0833333333333286
                },
                {
                    "name": "C5",
                    "midi": 72,
                    "time": 79.33333333333329,
                    "velocity": 0.8740157480314961,
                    "duration": 0.0833333333333286
                },
                {
                    "name": "B4",
                    "midi": 71,
                    "time": 79.41666666666661,
                    "velocity": 0.8740157480314961,
                    "duration": 0.0833333333333286
                },
                {
                    "name": "A4",
                    "midi": 69,
                    "time": 79.49999999999994,
                    "velocity": 0.8740157480314961,
                    "duration": 0.4166666666666714
                },
                {
                    "name": "G4",
                    "midi": 67,
                    "time": 79.99999999999994,
                    "velocity": 0.8740157480314961,
                    "duration": 0.9166666666666714
                },
                {
                    "name": "C5",
                    "midi": 72,
                    "time": 80.99999999999994,
                    "velocity": 0.8740157480314961,
                    "duration": 0.4166666666666714
                },
                {
                    "name": "C5",
                    "midi": 72,
                    "time": 81.49999999999994,
                    "velocity": 0.8740157480314961,
                    "duration": 0.125
                },
                {
                    "name": "B4",
                    "midi": 71,
                    "time": 81.62499999999994,
                    "velocity": 0.8740157480314961,
                    "duration": 0.0833333333333286
                },
                {
                    "name": "C5",
                    "midi": 72,
                    "time": 81.70833333333327,
                    "velocity": 0.8740157480314961,
                    "duration": 0.0833333333333286
                },
                {
                    "name": "B4",
                    "midi": 71,
                    "time": 81.7916666666666,
                    "velocity": 0.8740157480314961,
                    "duration": 0.0833333333333286
                },
                {
                    "name": "C5",
                    "midi": 72,
                    "time": 81.87499999999993,
                    "velocity": 0.8740157480314961,
                    "duration": 0.0833333333333286
                },
                {
                    "name": "B4",
                    "midi": 71,
                    "time": 81.95833333333326,
                    "velocity": 0.8740157480314961,
                    "duration": 0.0833333333333286
                },
                {
                    "name": "C5",
                    "midi": 72,
                    "time": 82.04166666666659,
                    "velocity": 0.8740157480314961,
                    "duration": 0.0833333333333286
                },
                {
                    "name": "B4",
                    "midi": 71,
                    "time": 82.12499999999991,
                    "velocity": 0.8740157480314961,
                    "duration": 0.125
                },
                {
                    "name": "A4",
                    "midi": 69,
                    "time": 82.24999999999991,
                    "velocity": 0.8740157480314961,
                    "duration": 0.25
                },
                {
                    "name": "B4",
                    "midi": 71,
                    "time": 82.49999999999991,
                    "velocity": 0.8740157480314961,
                    "duration": 0.25
                },
                {
                    "name": "C5",
                    "midi": 72,
                    "time": 82.74999999999991,
                    "velocity": 0.8740157480314961,
                    "duration": 0.25
                },
                {
                    "name": "G4",
                    "midi": 67,
                    "time": 82.99999999999991,
                    "velocity": 0.8740157480314961,
                    "duration": 0.4166666666666714
                },
                {
                    "name": "G4",
                    "midi": 67,
                    "time": 83.49999999999991,
                    "velocity": 0.8740157480314961,
                    "duration": 0.4166666666666714
                },
                {
                    "name": "F5",
                    "midi": 77,
                    "time": 83.99999999999991,
                    "velocity": 0.8740157480314961,
                    "duration": 0.4166666666666714
                },
                {
                    "name": "F5",
                    "midi": 77,
                    "time": 84.49999999999991,
                    "velocity": 0.8740157480314961,
                    "duration": 0.125
                },
                {
                    "name": "E5",
                    "midi": 76,
                    "time": 84.62499999999991,
                    "velocity": 0.8740157480314961,
                    "duration": 0.0833333333333286
                },
                {
                    "name": "F5",
                    "midi": 77,
                    "time": 84.70833333333324,
                    "velocity": 0.8740157480314961,
                    "duration": 0.0833333333333286
                },
                {
                    "name": "E5",
                    "midi": 76,
                    "time": 84.79166666666657,
                    "velocity": 0.8740157480314961,
                    "duration": 0.0833333333333286
                },
                {
                    "name": "F5",
                    "midi": 77,
                    "time": 84.8749999999999,
                    "velocity": 0.8740157480314961,
                    "duration": 0.0833333333333286
                },
                {
                    "name": "E5",
                    "midi": 76,
                    "time": 84.95833333333323,
                    "velocity": 0.8740157480314961,
                    "duration": 0.0833333333333286
                },
                {
                    "name": "F5",
                    "midi": 77,
                    "time": 85.04166666666656,
                    "velocity": 0.8740157480314961,
                    "duration": 0.0833333333333286
                },
                {
                    "name": "E5",
                    "midi": 76,
                    "time": 85.12499999999989,
                    "velocity": 0.8740157480314961,
                    "duration": 0.125
                },
                {
                    "name": "D5",
                    "midi": 74,
                    "time": 85.24999999999989,
                    "velocity": 0.8740157480314961,
                    "duration": 0.25
                },
                {
                    "name": "E5",
                    "midi": 76,
                    "time": 85.49999999999989,
                    "velocity": 0.8740157480314961,
                    "duration": 0.25
                },
                {
                    "name": "F5",
                    "midi": 77,
                    "time": 85.74999999999989,
                    "velocity": 0.8740157480314961,
                    "duration": 0.25
                },
                {
                    "name": "G5",
                    "midi": 79,
                    "time": 85.99999999999989,
                    "velocity": 0.8740157480314961,
                    "duration": 1.4166666666666714
                },
                {
                    "name": "C6",
                    "midi": 84,
                    "time": 87.49999999999989,
                    "velocity": 0.8740157480314961,
                    "duration": 0.2083333333333286
                },
                {
                    "name": "F5",
                    "midi": 77,
                    "time": 87.74999999999989,
                    "velocity": 0.8740157480314961,
                    "duration": 0.25
                },
                {
                    "name": "E5",
                    "midi": 76,
                    "time": 87.99999999999989,
                    "velocity": 0.8740157480314961,
                    "duration": 0.0833333333333286
                },
                {
                    "name": "F5",
                    "midi": 77,
                    "time": 88.08333333333321,
                    "velocity": 0.8740157480314961,
                    "duration": 0.0833333333333286
                },
                {
                    "name": "E5",
                    "midi": 76,
                    "time": 88.16666666666654,
                    "velocity": 0.8740157480314961,
                    "duration": 0.0833333333333286
                },
                {
                    "name": "D5",
                    "midi": 74,
                    "time": 88.24999999999987,
                    "velocity": 0.8740157480314961,
                    "duration": 0.2083333333333286
                },
                {
                    "name": "E5",
                    "midi": 76,
                    "time": 88.49999999999987,
                    "velocity": 0.8740157480314961,
                    "duration": 0.4166666666666714
                },
                {
                    "name": "C6",
                    "midi": 84,
                    "time": 88.99999999999987,
                    "velocity": 0.8740157480314961,
                    "duration": 0.2083333333333286
                },
                {
                    "name": "F5",
                    "midi": 77,
                    "time": 89.24999999999987,
                    "velocity": 0.8740157480314961,
                    "duration": 0.25
                },
                {
                    "name": "E5",
                    "midi": 76,
                    "time": 89.49999999999987,
                    "velocity": 0.8740157480314961,
                    "duration": 0.0833333333333286
                },
                {
                    "name": "F5",
                    "midi": 77,
                    "time": 89.5833333333332,
                    "velocity": 0.8740157480314961,
                    "duration": 0.0833333333333286
                },
                {
                    "name": "E5",
                    "midi": 76,
                    "time": 89.66666666666653,
                    "velocity": 0.8740157480314961,
                    "duration": 0.0833333333333286
                },
                {
                    "name": "D5",
                    "midi": 74,
                    "time": 89.74999999999986,
                    "velocity": 0.8740157480314961,
                    "duration": 0.2083333333333286
                },
                {
                    "name": "E5",
                    "midi": 76,
                    "time": 89.99999999999986,
                    "velocity": 0.8740157480314961,
                    "duration": 0.4166666666666714
                },
                {
                    "name": "A5",
                    "midi": 81,
                    "time": 90.49999999999986,
                    "velocity": 0.8740157480314961,
                    "duration": 0.2083333333333286
                },
                {
                    "name": "G5",
                    "midi": 79,
                    "time": 90.74999999999986,
                    "velocity": 0.8740157480314961,
                    "duration": 0.2083333333333286
                },
                {
                    "name": "F5",
                    "midi": 77,
                    "time": 90.99999999999986,
                    "velocity": 0.8740157480314961,
                    "duration": 0.2083333333333286
                },
                {
                    "name": "E5",
                    "midi": 76,
                    "time": 91.24999999999986,
                    "velocity": 0.8740157480314961,
                    "duration": 0.2083333333333286
                },
                {
                    "name": "D5",
                    "midi": 74,
                    "time": 91.49999999999986,
                    "velocity": 0.8740157480314961,
                    "duration": 0.2083333333333286
                },
                {
                    "name": "C5",
                    "midi": 72,
                    "time": 91.74999999999986,
                    "velocity": 0.8740157480314961,
                    "duration": 0.2083333333333286
                },
                {
                    "name": "C5",
                    "midi": 72,
                    "time": 91.99999999999986,
                    "velocity": 0.8740157480314961,
                    "duration": 0.0833333333333286
                },
                {
                    "name": "B4",
                    "midi": 71,
                    "time": 92.08333333333319,
                    "velocity": 0.8740157480314961,
                    "duration": 0.0833333333333286
                },
                {
                    "name": "C5",
                    "midi": 72,
                    "time": 92.16666666666652,
                    "velocity": 0.8740157480314961,
                    "duration": 0.0833333333333286
                },
                {
                    "name": "B4",
                    "midi": 71,
                    "time": 92.24999999999984,
                    "velocity": 0.8740157480314961,
                    "duration": 0.0833333333333286
                },
                {
                    "name": "C5",
                    "midi": 72,
                    "time": 92.33333333333317,
                    "velocity": 0.8740157480314961,
                    "duration": 0.0833333333333286
                },
                {
                    "name": "B4",
                    "midi": 71,
                    "time": 92.4166666666665,
                    "velocity": 0.8740157480314961,
                    "duration": 0.0833333333333286
                },
                {
                    "name": "A4",
                    "midi": 69,
                    "time": 92.49999999999983,
                    "velocity": 0.8740157480314961,
                    "duration": 0.25
                },
                {
                    "name": "G4",
                    "midi": 67,
                    "time": 92.74999999999983,
                    "velocity": 0.8740157480314961,
                    "duration": 0.2083333333333286
                },
                {
                    "name": "C5",
                    "midi": 72,
                    "time": 92.99999999999983,
                    "velocity": 0.8740157480314961,
                    "duration": 0.4166666666666714
                },
                {
                    "name": "C5",
                    "midi": 72,
                    "time": 93.49999999999983,
                    "velocity": 0.8740157480314961,
                    "duration": 0.125
                },
                {
                    "name": "B4",
                    "midi": 71,
                    "time": 93.62499999999983,
                    "velocity": 0.8740157480314961,
                    "duration": 0.0833333333333286
                },
                {
                    "name": "C5",
                    "midi": 72,
                    "time": 93.70833333333316,
                    "velocity": 0.8740157480314961,
                    "duration": 0.0833333333333286
                },
                {
                    "name": "B4",
                    "midi": 71,
                    "time": 93.79166666666649,
                    "velocity": 0.8740157480314961,
                    "duration": 0.0833333333333286
                },
                {
                    "name": "C5",
                    "midi": 72,
                    "time": 93.87499999999982,
                    "velocity": 0.8740157480314961,
                    "duration": 0.0833333333333286
                },
                {
                    "name": "B4",
                    "midi": 71,
                    "time": 93.95833333333314,
                    "velocity": 0.8740157480314961,
                    "duration": 0.0833333333333286
                },
                {
                    "name": "C5",
                    "midi": 72,
                    "time": 94.04166666666647,
                    "velocity": 0.8740157480314961,
                    "duration": 0.0833333333333286
                },
                {
                    "name": "B4",
                    "midi": 71,
                    "time": 94.1249999999998,
                    "velocity": 0.8740157480314961,
                    "duration": 0.125
                },
                {
                    "name": "A4",
                    "midi": 69,
                    "time": 94.2499999999998,
                    "velocity": 0.8740157480314961,
                    "duration": 0.2083333333333286
                },
                {
                    "name": "B4",
                    "midi": 71,
                    "time": 94.4999999999998,
                    "velocity": 0.8740157480314961,
                    "duration": 0.2083333333333286
                },
                {
                    "name": "C5",
                    "midi": 72,
                    "time": 94.7499999999998,
                    "velocity": 0.8740157480314961,
                    "duration": 0.2083333333333286
                },
                {
                    "name": "G4",
                    "midi": 67,
                    "time": 94.9999999999998,
                    "velocity": 0.8740157480314961,
                    "duration": 0.4166666666666714
                },
                {
                    "name": "G4",
                    "midi": 67,
                    "time": 95.4999999999998,
                    "velocity": 0.8740157480314961,
                    "duration": 0.4166666666666714
                },
                {
                    "name": "F5",
                    "midi": 77,
                    "time": 95.9999999999998,
                    "velocity": 0.8740157480314961,
                    "duration": 0.4166666666666714
                },
                {
                    "name": "F5",
                    "midi": 77,
                    "time": 96.4999999999998,
                    "velocity": 0.8740157480314961,
                    "duration": 0.125
                },
                {
                    "name": "E5",
                    "midi": 76,
                    "time": 96.6249999999998,
                    "velocity": 0.8740157480314961,
                    "duration": 0.0833333333333286
                },
                {
                    "name": "F5",
                    "midi": 77,
                    "time": 96.70833333333313,
                    "velocity": 0.8740157480314961,
                    "duration": 0.0833333333333286
                },
                {
                    "name": "E5",
                    "midi": 76,
                    "time": 96.79166666666646,
                    "velocity": 0.8740157480314961,
                    "duration": 0.0833333333333286
                },
                {
                    "name": "F5",
                    "midi": 77,
                    "time": 96.87499999999979,
                    "velocity": 0.8740157480314961,
                    "duration": 0.0833333333333286
                },
                {
                    "name": "E5",
                    "midi": 76,
                    "time": 96.95833333333312,
                    "velocity": 0.8740157480314961,
                    "duration": 0.0833333333333286
                },
                {
                    "name": "F5",
                    "midi": 77,
                    "time": 97.04166666666644,
                    "velocity": 0.8740157480314961,
                    "duration": 0.0833333333333286
                },
                {
                    "name": "E5",
                    "midi": 76,
                    "time": 97.12499999999977,
                    "velocity": 0.8740157480314961,
                    "duration": 0.125
                },
                {
                    "name": "D5",
                    "midi": 74,
                    "time": 97.24999999999977,
                    "velocity": 0.8740157480314961,
                    "duration": 0.2083333333333286
                },
                {
                    "name": "E5",
                    "midi": 76,
                    "time": 97.49999999999977,
                    "velocity": 0.8740157480314961,
                    "duration": 0.2083333333333286
                },
                {
                    "name": "F5",
                    "midi": 77,
                    "time": 97.74999999999977,
                    "velocity": 0.8740157480314961,
                    "duration": 0.2083333333333286
                },
                {
                    "name": "G5",
                    "midi": 79,
                    "time": 97.99999999999977,
                    "velocity": 0.8740157480314961,
                    "duration": 1.4166666666666714
                },
                {
                    "name": "C6",
                    "midi": 84,
                    "time": 99.49999999999977,
                    "velocity": 0.8740157480314961,
                    "duration": 0.2083333333333286
                },
                {
                    "name": "F5",
                    "midi": 77,
                    "time": 99.74999999999977,
                    "velocity": 0.8740157480314961,
                    "duration": 0.25
                },
                {
                    "name": "E5",
                    "midi": 76,
                    "time": 99.99999999999977,
                    "velocity": 0.8740157480314961,
                    "duration": 0.0833333333333286
                },
                {
                    "name": "F5",
                    "midi": 77,
                    "time": 100.0833333333331,
                    "velocity": 0.8740157480314961,
                    "duration": 0.0833333333333286
                },
                {
                    "name": "E5",
                    "midi": 76,
                    "time": 100.16666666666643,
                    "velocity": 0.8740157480314961,
                    "duration": 0.0833333333333286
                },
                {
                    "name": "D5",
                    "midi": 74,
                    "time": 100.24999999999976,
                    "velocity": 0.8740157480314961,
                    "duration": 0.2083333333333286
                },
                {
                    "name": "E5",
                    "midi": 76,
                    "time": 100.49999999999976,
                    "velocity": 0.8740157480314961,
                    "duration": 0.4166666666666714
                },
                {
                    "name": "A5",
                    "midi": 81,
                    "time": 100.99999999999976,
                    "velocity": 0.8740157480314961,
                    "duration": 0.2083333333333286
                },
                {
                    "name": "G5",
                    "midi": 79,
                    "time": 101.24999999999976,
                    "velocity": 0.8740157480314961,
                    "duration": 0.2083333333333286
                },
                {
                    "name": "F5",
                    "midi": 77,
                    "time": 101.49999999999976,
                    "velocity": 0.8740157480314961,
                    "duration": 0.2083333333333286
                },
                {
                    "name": "E5",
                    "midi": 76,
                    "time": 101.74999999999976,
                    "velocity": 0.8740157480314961,
                    "duration": 0.2083333333333286
                },
                {
                    "name": "D5",
                    "midi": 74,
                    "time": 101.99999999999976,
                    "velocity": 0.8740157480314961,
                    "duration": 0.2083333333333286
                },
                {
                    "name": "C5",
                    "midi": 72,
                    "time": 102.24999999999976,
                    "velocity": 0.8740157480314961,
                    "duration": 0.2083333333333286
                },
                {
                    "name": "E5",
                    "midi": 76,
                    "time": 102.49999999999976,
                    "velocity": 0.8740157480314961,
                    "duration": 0.1666666666666714
                },
                {
                    "name": "D5",
                    "midi": 74,
                    "time": 102.66666666666643,
                    "velocity": 0.8740157480314961,
                    "duration": 0.1666666666666714
                },
                {
                    "name": "C5",
                    "midi": 72,
                    "time": 102.8333333333331,
                    "velocity": 0.8740157480314961,
                    "duration": 0.1458333333333286
                },
                {
                    "name": "D5",
                    "midi": 74,
                    "time": 102.99999999999976,
                    "velocity": 0.8740157480314961,
                    "duration": 0.4166666666666714
                },
                {
                    "name": "C5",
                    "midi": 72,
                    "time": 103.49999999999976,
                    "velocity": 0.8740157480314961,
                    "duration": 0.0833333333333286
                },
                {
                    "name": "B4",
                    "midi": 71,
                    "time": 103.58333333333309,
                    "velocity": 0.8740157480314961,
                    "duration": 0.0833333333333286
                },
                {
                    "name": "C5",
                    "midi": 72,
                    "time": 103.66666666666642,
                    "velocity": 0.8740157480314961,
                    "duration": 0.0833333333333286
                },
                {
                    "name": "B4",
                    "midi": 71,
                    "time": 103.74999999999974,
                    "velocity": 0.8740157480314961,
                    "duration": 0.0833333333333286
                },
                {
                    "name": "C5",
                    "midi": 72,
                    "time": 103.83333333333307,
                    "velocity": 0.8740157480314961,
                    "duration": 0.0833333333333286
                },
                {
                    "name": "B4",
                    "midi": 71,
                    "time": 103.9166666666664,
                    "velocity": 0.8740157480314961,
                    "duration": 0.0833333333333286
                },
                {
                    "name": "C5",
                    "midi": 72,
                    "time": 103.99999999999973,
                    "velocity": 0.8740157480314961,
                    "duration": 0.9166666666666714
                },
                {
                    "name": "C6",
                    "midi": 84,
                    "time": 104.99999999999973,
                    "velocity": 0.8740157480314961,
                    "duration": 0.4166666666666714
                },
                {
                    "name": "C6",
                    "midi": 84,
                    "time": 105.49999999999973,
                    "velocity": 0.8740157480314961,
                    "duration": 0.671875
                },
                {
                    "name": "B5",
                    "midi": 83,
                    "time": 106.24999999999973,
                    "velocity": 0.8740157480314961,
                    "duration": 0.2083333333333286
                },
                {
                    "name": "A5",
                    "midi": 81,
                    "time": 106.49999999999973,
                    "velocity": 0.8740157480314961,
                    "duration": 0.2083333333333286
                },
                {
                    "name": "G5",
                    "midi": 79,
                    "time": 106.74999999999973,
                    "velocity": 0.8740157480314961,
                    "duration": 0.2083333333333286
                },
                {
                    "name": "A5",
                    "midi": 81,
                    "time": 106.99999999999973,
                    "velocity": 0.8740157480314961,
                    "duration": 0.4166666666666714
                },
                {
                    "name": "G5",
                    "midi": 79,
                    "time": 107.49999999999973,
                    "velocity": 0.8740157480314961,
                    "duration": 0.4166666666666714
                },
                {
                    "name": "F5",
                    "midi": 77,
                    "time": 107.99999999999973,
                    "velocity": 0.8740157480314961,
                    "duration": 0.4166666666666714
                },
                {
                    "name": "F5",
                    "midi": 77,
                    "time": 108.49999999999973,
                    "velocity": 0.8740157480314961,
                    "duration": 0.125
                },
                {
                    "name": "E5",
                    "midi": 76,
                    "time": 108.62499999999973,
                    "velocity": 0.8740157480314961,
                    "duration": 0.0833333333333286
                },
                {
                    "name": "F5",
                    "midi": 77,
                    "time": 108.70833333333306,
                    "velocity": 0.8740157480314961,
                    "duration": 0.0833333333333286
                },
                {
                    "name": "E5",
                    "midi": 76,
                    "time": 108.79166666666639,
                    "velocity": 0.8740157480314961,
                    "duration": 0.0833333333333286
                },
                {
                    "name": "F5",
                    "midi": 77,
                    "time": 108.87499999999972,
                    "velocity": 0.8740157480314961,
                    "duration": 0.0833333333333286
                },
                {
                    "name": "E5",
                    "midi": 76,
                    "time": 108.95833333333304,
                    "velocity": 0.8740157480314961,
                    "duration": 0.0833333333333286
                },
                {
                    "name": "F5",
                    "midi": 77,
                    "time": 109.04166666666637,
                    "velocity": 0.8740157480314961,
                    "duration": 0.0833333333333286
                },
                {
                    "name": "E5",
                    "midi": 76,
                    "time": 109.1249999999997,
                    "velocity": 0.8740157480314961,
                    "duration": 0.125
                },
                {
                    "name": "D5",
                    "midi": 74,
                    "time": 109.2499999999997,
                    "velocity": 0.8740157480314961,
                    "duration": 0.2083333333333286
                },
                {
                    "name": "C5",
                    "midi": 72,
                    "time": 109.4999999999997,
                    "velocity": 0.8740157480314961,
                    "duration": 0.2083333333333286
                },
                {
                    "name": "B4",
                    "midi": 71,
                    "time": 109.7499999999997,
                    "velocity": 0.8740157480314961,
                    "duration": 0.2083333333333286
                },
                {
                    "name": "C5",
                    "midi": 72,
                    "time": 109.9999999999997,
                    "velocity": 0.8740157480314961,
                    "duration": 0.4166666666666714
                },
                {
                    "name": "G4",
                    "midi": 67,
                    "time": 110.4999999999997,
                    "velocity": 0.8740157480314961,
                    "duration": 0.4166666666666714
                },
                {
                    "name": "C6",
                    "midi": 84,
                    "time": 110.9999999999997,
                    "velocity": 0.8740157480314961,
                    "duration": 0.4166666666666714
                },
                {
                    "name": "C6",
                    "midi": 84,
                    "time": 111.4999999999997,
                    "velocity": 0.8740157480314961,
                    "duration": 0.671875
                },
                {
                    "name": "B5",
                    "midi": 83,
                    "time": 112.2499999999997,
                    "velocity": 0.8740157480314961,
                    "duration": 0.2083333333333286
                },
                {
                    "name": "A5",
                    "midi": 81,
                    "time": 112.4999999999997,
                    "velocity": 0.8740157480314961,
                    "duration": 0.2083333333333286
                },
                {
                    "name": "G5",
                    "midi": 79,
                    "time": 112.7499999999997,
                    "velocity": 0.8740157480314961,
                    "duration": 0.2083333333333286
                },
                {
                    "name": "A5",
                    "midi": 81,
                    "time": 112.9999999999997,
                    "velocity": 0.8740157480314961,
                    "duration": 0.4166666666666714
                },
                {
                    "name": "G5",
                    "midi": 79,
                    "time": 113.4999999999997,
                    "velocity": 0.8740157480314961,
                    "duration": 0.4166666666666714
                },
                {
                    "name": "F5",
                    "midi": 77,
                    "time": 113.9999999999997,
                    "velocity": 0.8740157480314961,
                    "duration": 0.4166666666666714
                },
                {
                    "name": "F5",
                    "midi": 77,
                    "time": 114.4999999999997,
                    "velocity": 0.8740157480314961,
                    "duration": 0.125
                },
                {
                    "name": "E5",
                    "midi": 76,
                    "time": 114.6249999999997,
                    "velocity": 0.8740157480314961,
                    "duration": 0.0833333333333286
                },
                {
                    "name": "F5",
                    "midi": 77,
                    "time": 114.70833333333303,
                    "velocity": 0.8740157480314961,
                    "duration": 0.0833333333333286
                },
                {
                    "name": "E5",
                    "midi": 76,
                    "time": 114.79166666666636,
                    "velocity": 0.8740157480314961,
                    "duration": 0.0833333333333286
                },
                {
                    "name": "F5",
                    "midi": 77,
                    "time": 114.87499999999969,
                    "velocity": 0.8740157480314961,
                    "duration": 0.0833333333333286
                },
                {
                    "name": "E5",
                    "midi": 76,
                    "time": 114.95833333333302,
                    "velocity": 0.8740157480314961,
                    "duration": 0.0833333333333286
                },
                {
                    "name": "F5",
                    "midi": 77,
                    "time": 115.04166666666634,
                    "velocity": 0.8740157480314961,
                    "duration": 0.0833333333333286
                },
                {
                    "name": "E5",
                    "midi": 76,
                    "time": 115.12499999999967,
                    "velocity": 0.8740157480314961,
                    "duration": 0.125
                },
                {
                    "name": "D5",
                    "midi": 74,
                    "time": 115.24999999999967,
                    "velocity": 0.8740157480314961,
                    "duration": 0.2083333333333286
                },
                {
                    "name": "E5",
                    "midi": 76,
                    "time": 115.49999999999967,
                    "velocity": 0.8740157480314961,
                    "duration": 0.2083333333333286
                },
                {
                    "name": "F5",
                    "midi": 77,
                    "time": 115.74999999999967,
                    "velocity": 0.8740157480314961,
                    "duration": 0.2083333333333286
                },
                {
                    "name": "E5",
                    "midi": 76,
                    "time": 115.99999999999967,
                    "velocity": 0.8740157480314961,
                    "duration": 0.0833333333333286
                },
                {
                    "name": "D5",
                    "midi": 74,
                    "time": 116.083333333333,
                    "velocity": 0.8740157480314961,
                    "duration": 0.0833333333333286
                },
                {
                    "name": "E5",
                    "midi": 76,
                    "time": 116.16666666666633,
                    "velocity": 0.8740157480314961,
                    "duration": 0.0833333333333286
                },
                {
                    "name": "D5",
                    "midi": 74,
                    "time": 116.24999999999966,
                    "velocity": 0.8740157480314961,
                    "duration": 0.0833333333333286
                },
                {
                    "name": "E5",
                    "midi": 76,
                    "time": 116.33333333333299,
                    "velocity": 0.8740157480314961,
                    "duration": 0.0833333333333286
                },
                {
                    "name": "D5",
                    "midi": 74,
                    "time": 116.41666666666632,
                    "velocity": 0.8740157480314961,
                    "duration": 0.0833333333333286
                },
                {
                    "name": "E5",
                    "midi": 76,
                    "time": 116.49999999999964,
                    "velocity": 0.8740157480314961,
                    "duration": 0.0833333333333286
                },
                {
                    "name": "D5",
                    "midi": 74,
                    "time": 116.58333333333297,
                    "velocity": 0.8740157480314961,
                    "duration": 0.0833333333333286
                },
                {
                    "name": "E5",
                    "midi": 76,
                    "time": 116.6666666666663,
                    "velocity": 0.8740157480314961,
                    "duration": 0.0833333333333286
                },
                {
                    "name": "D5",
                    "midi": 74,
                    "time": 116.74999999999963,
                    "velocity": 0.8740157480314961,
                    "duration": 0.0833333333333286
                },
                {
                    "name": "E5",
                    "midi": 76,
                    "time": 116.83333333333296,
                    "velocity": 0.8740157480314961,
                    "duration": 0.0833333333333286
                },
                {
                    "name": "D5",
                    "midi": 74,
                    "time": 116.91666666666629,
                    "velocity": 0.8740157480314961,
                    "duration": 0.0833333333333286
                },
                {
                    "name": "D5",
                    "midi": 74,
                    "time": 116.99999999999962,
                    "velocity": 0.8740157480314961,
                    "duration": 0.4166666666666714
                },
                {
                    "name": "D5",
                    "midi": 74,
                    "time": 117.49999999999962,
                    "velocity": 0.8740157480314961,
                    "duration": 0.671875
                },
                {
                    "name": "E5",
                    "midi": 76,
                    "time": 118.24999999999962,
                    "velocity": 0.8740157480314961,
                    "duration": 0.2083333333333286
                },
                {
                    "name": "D5",
                    "midi": 74,
                    "time": 118.49999999999962,
                    "velocity": 0.8740157480314961,
                    "duration": 0.2083333333333286
                },
                {
                    "name": "C5",
                    "midi": 72,
                    "time": 118.74999999999962,
                    "velocity": 0.8740157480314961,
                    "duration": 0.2083333333333286
                },
                {
                    "name": "C5",
                    "midi": 72,
                    "time": 118.99999999999962,
                    "velocity": 0.8740157480314961,
                    "duration": 0.0833333333333286
                },
                {
                    "name": "B4",
                    "midi": 71,
                    "time": 119.08333333333294,
                    "velocity": 0.8740157480314961,
                    "duration": 0.0833333333333286
                },
                {
                    "name": "C5",
                    "midi": 72,
                    "time": 119.16666666666627,
                    "velocity": 0.8740157480314961,
                    "duration": 0.0833333333333286
                },
                {
                    "name": "B4",
                    "midi": 71,
                    "time": 119.2499999999996,
                    "velocity": 0.8740157480314961,
                    "duration": 0.0833333333333286
                },
                {
                    "name": "C5",
                    "midi": 72,
                    "time": 119.33333333333293,
                    "velocity": 0.8740157480314961,
                    "duration": 0.0833333333333286
                },
                {
                    "name": "B4",
                    "midi": 71,
                    "time": 119.41666666666626,
                    "velocity": 0.8740157480314961,
                    "duration": 0.0833333333333286
                },
                {
                    "name": "A4",
                    "midi": 69,
                    "time": 119.49999999999959,
                    "velocity": 0.8740157480314961,
                    "duration": 0.25
                },
                {
                    "name": "G4",
                    "midi": 67,
                    "time": 119.74999999999959,
                    "velocity": 0.8740157480314961,
                    "duration": 0.2083333333333286
                },
                {
                    "name": "D5",
                    "midi": 74,
                    "time": 119.99999999999959,
                    "velocity": 0.8740157480314961,
                    "duration": 0.4166666666666714
                },
                {
                    "name": "D5",
                    "midi": 74,
                    "time": 120.49999999999959,
                    "velocity": 0.8740157480314961,
                    "duration": 0.671875
                },
                {
                    "name": "E5",
                    "midi": 76,
                    "time": 121.24999999999959,
                    "velocity": 0.8740157480314961,
                    "duration": 0.2083333333333286
                },
                {
                    "name": "D5",
                    "midi": 74,
                    "time": 121.49999999999959,
                    "velocity": 0.8740157480314961,
                    "duration": 0.2083333333333286
                },
                {
                    "name": "C5",
                    "midi": 72,
                    "time": 121.74999999999959,
                    "velocity": 0.8740157480314961,
                    "duration": 0.2083333333333286
                },
                {
                    "name": "C5",
                    "midi": 72,
                    "time": 121.99999999999959,
                    "velocity": 0.8740157480314961,
                    "duration": 0.0833333333333286
                },
                {
                    "name": "B4",
                    "midi": 71,
                    "time": 122.08333333333292,
                    "velocity": 0.8740157480314961,
                    "duration": 0.0833333333333286
                },
                {
                    "name": "C5",
                    "midi": 72,
                    "time": 122.16666666666625,
                    "velocity": 0.8740157480314961,
                    "duration": 0.0833333333333286
                },
                {
                    "name": "B4",
                    "midi": 71,
                    "time": 122.24999999999957,
                    "velocity": 0.8740157480314961,
                    "duration": 0.0833333333333286
                },
                {
                    "name": "C5",
                    "midi": 72,
                    "time": 122.3333333333329,
                    "velocity": 0.8740157480314961,
                    "duration": 0.0833333333333286
                },
                {
                    "name": "B4",
                    "midi": 71,
                    "time": 122.41666666666623,
                    "velocity": 0.8740157480314961,
                    "duration": 0.0833333333333286
                },
                {
                    "name": "G4",
                    "midi": 67,
                    "time": 122.49999999999956,
                    "velocity": 0.8740157480314961,
                    "duration": 0.4166666666666714
                },
                {
                    "name": "G5",
                    "midi": 79,
                    "time": 122.99999999999956,
                    "velocity": 0.8740157480314961,
                    "duration": 0.4166666666666714
                },
                {
                    "name": "G5",
                    "midi": 79,
                    "time": 123.49999999999956,
                    "velocity": 0.8740157480314961,
                    "duration": 0.671875
                },
                {
                    "name": "A5",
                    "midi": 81,
                    "time": 124.24999999999956,
                    "velocity": 0.8740157480314961,
                    "duration": 0.2083333333333286
                },
                {
                    "name": "G5",
                    "midi": 79,
                    "time": 124.49999999999956,
                    "velocity": 0.8740157480314961,
                    "duration": 0.2083333333333286
                },
                {
                    "name": "A5",
                    "midi": 81,
                    "time": 124.74999999999956,
                    "velocity": 0.8740157480314961,
                    "duration": 0.2083333333333286
                },
                {
                    "name": "G5",
                    "midi": 79,
                    "time": 124.99999999999956,
                    "velocity": 0.8740157480314961,
                    "duration": 0.671875
                },
                {
                    "name": "A5",
                    "midi": 81,
                    "time": 125.74999999999956,
                    "velocity": 0.8740157480314961,
                    "duration": 0.2083333333333286
                },
                {
                    "name": "G5",
                    "midi": 79,
                    "time": 125.99999999999956,
                    "velocity": 0.8740157480314961,
                    "duration": 0.2083333333333286
                },
                {
                    "name": "A5",
                    "midi": 81,
                    "time": 126.24999999999956,
                    "velocity": 0.8740157480314961,
                    "duration": 0.2083333333333286
                },
                {
                    "name": "G5",
                    "midi": 79,
                    "time": 126.49999999999956,
                    "velocity": 0.8740157480314961,
                    "duration": 0.4166666666666714
                },
                {
                    "name": "A5",
                    "midi": 81,
                    "time": 126.99999999999956,
                    "velocity": 0.8740157480314961,
                    "duration": 0.2083333333333286
                },
                {
                    "name": "B5",
                    "midi": 83,
                    "time": 127.24999999999956,
                    "velocity": 0.8740157480314961,
                    "duration": 0.2083333333333286
                },
                {
                    "name": "C6",
                    "midi": 84,
                    "time": 127.49999999999956,
                    "velocity": 0.8740157480314961,
                    "duration": 0.2083333333333286
                },
                {
                    "name": "F5",
                    "midi": 77,
                    "time": 127.74999999999956,
                    "velocity": 0.8740157480314961,
                    "duration": 0.2083333333333286
                },
                {
                    "name": "E5",
                    "midi": 76,
                    "time": 127.99999999999956,
                    "velocity": 0.8740157480314961,
                    "duration": 0.4166666666666714
                },
                {
                    "name": "A5",
                    "midi": 81,
                    "time": 128.49999999999957,
                    "velocity": 0.8740157480314961,
                    "duration": 0.2083333333333428
                },
                {
                    "name": "B5",
                    "midi": 83,
                    "time": 128.74999999999957,
                    "velocity": 0.8740157480314961,
                    "duration": 0.2083333333333428
                },
                {
                    "name": "C6",
                    "midi": 84,
                    "time": 128.99999999999957,
                    "velocity": 0.8740157480314961,
                    "duration": 0.2083333333333428
                },
                {
                    "name": "E5",
                    "midi": 76,
                    "time": 129.24999999999957,
                    "velocity": 0.8740157480314961,
                    "duration": 0.2083333333333428
                },
                {
                    "name": "D5",
                    "midi": 74,
                    "time": 129.49999999999957,
                    "velocity": 0.8740157480314961,
                    "duration": 0.4166666666666572
                },
                {
                    "name": "A5",
                    "midi": 81,
                    "time": 129.99999999999957,
                    "velocity": 0.8740157480314961,
                    "duration": 0.2083333333333428
                },
                {
                    "name": "B5",
                    "midi": 83,
                    "time": 130.24999999999957,
                    "velocity": 0.8740157480314961,
                    "duration": 0.2083333333333428
                },
                {
                    "name": "C6",
                    "midi": 84,
                    "time": 130.49999999999957,
                    "velocity": 0.8740157480314961,
                    "duration": 0.2083333333333428
                },
                {
                    "name": "D5",
                    "midi": 74,
                    "time": 130.74999999999957,
                    "velocity": 0.8740157480314961,
                    "duration": 0.2083333333333428
                },
                {
                    "name": "C5",
                    "midi": 72,
                    "time": 130.99999999999957,
                    "velocity": 0.8740157480314961,
                    "duration": 0.4166666666666572
                },
                {
                    "name": "D5",
                    "midi": 74,
                    "time": 131.49999999999957,
                    "velocity": 0.8740157480314961,
                    "duration": 0.2083333333333428
                },
                {
                    "name": "E5",
                    "midi": 76,
                    "time": 131.74999999999957,
                    "velocity": 0.8740157480314961,
                    "duration": 0.2083333333333428
                },
                {
                    "name": "D5",
                    "midi": 74,
                    "time": 131.99999999999957,
                    "velocity": 0.8740157480314961,
                    "duration": 0.2083333333333428
                },
                {
                    "name": "C5",
                    "midi": 72,
                    "time": 132.24999999999957,
                    "velocity": 0.8740157480314961,
                    "duration": 0.2083333333333428
                },
                {
                    "name": "C5",
                    "midi": 72,
                    "time": 132.49999999999957,
                    "velocity": 0.8740157480314961,
                    "duration": 0.08333333333334281
                },
                {
                    "name": "B4",
                    "midi": 71,
                    "time": 132.58333333333292,
                    "velocity": 0.8740157480314961,
                    "duration": 0.08333333333334281
                },
                {
                    "name": "C5",
                    "midi": 72,
                    "time": 132.66666666666626,
                    "velocity": 0.8740157480314961,
                    "duration": 0.08333333333334281
                },
                {
                    "name": "B4",
                    "midi": 71,
                    "time": 132.7499999999996,
                    "velocity": 0.8740157480314961,
                    "duration": 0.08333333333334281
                },
                {
                    "name": "C5",
                    "midi": 72,
                    "time": 132.83333333333294,
                    "velocity": 0.8740157480314961,
                    "duration": 0.08333333333334281
                },
                {
                    "name": "B4",
                    "midi": 71,
                    "time": 132.9166666666663,
                    "velocity": 0.8740157480314961,
                    "duration": 0.08333333333334281
                },
                {
                    "name": "A4",
                    "midi": 69,
                    "time": 132.99999999999963,
                    "velocity": 0.8740157480314961,
                    "duration": 0.25
                },
                {
                    "name": "G4",
                    "midi": 67,
                    "time": 133.24999999999963,
                    "velocity": 0.8740157480314961,
                    "duration": 0.2083333333333428
                },
                {
                    "name": "D5",
                    "midi": 74,
                    "time": 133.49999999999963,
                    "velocity": 0.8740157480314961,
                    "duration": 0.4166666666666572
                },
                {
                    "name": "D5",
                    "midi": 74,
                    "time": 133.99999999999963,
                    "velocity": 0.8740157480314961,
                    "duration": 0.671875
                },
                {
                    "name": "E5",
                    "midi": 76,
                    "time": 134.74999999999963,
                    "velocity": 0.8740157480314961,
                    "duration": 0.2083333333333428
                },
                {
                    "name": "D5",
                    "midi": 74,
                    "time": 134.99999999999963,
                    "velocity": 0.8740157480314961,
                    "duration": 0.2083333333333428
                },
                {
                    "name": "E5",
                    "midi": 76,
                    "time": 135.24999999999963,
                    "velocity": 0.8740157480314961,
                    "duration": 0.2083333333333428
                },
                {
                    "name": "D5",
                    "midi": 74,
                    "time": 135.49999999999963,
                    "velocity": 0.8740157480314961,
                    "duration": 0.2083333333333428
                },
                {
                    "name": "G5",
                    "midi": 79,
                    "time": 135.74999999999963,
                    "velocity": 0.8740157480314961,
                    "duration": 0.2083333333333428
                },
                {
                    "name": "F5",
                    "midi": 77,
                    "time": 135.99999999999963,
                    "velocity": 0.8740157480314961,
                    "duration": 0.2083333333333428
                },
                {
                    "name": "E5",
                    "midi": 76,
                    "time": 136.24999999999963,
                    "velocity": 0.8740157480314961,
                    "duration": 0.2083333333333428
                },
                {
                    "name": "D5",
                    "midi": 74,
                    "time": 136.49999999999963,
                    "velocity": 0.8740157480314961,
                    "duration": 0.2083333333333428
                },
                {
                    "name": "C5",
                    "midi": 72,
                    "time": 136.74999999999963,
                    "velocity": 0.8740157480314961,
                    "duration": 0.2083333333333428
                },
                {
                    "name": "E5",
                    "midi": 76,
                    "time": 136.99999999999963,
                    "velocity": 0.8740157480314961,
                    "duration": 0.08333333333334281
                },
                {
                    "name": "D5",
                    "midi": 74,
                    "time": 137.08333333333297,
                    "velocity": 0.8740157480314961,
                    "duration": 0.08333333333334281
                },
                {
                    "name": "E5",
                    "midi": 76,
                    "time": 137.16666666666632,
                    "velocity": 0.8740157480314961,
                    "duration": 0.08333333333334281
                },
                {
                    "name": "D5",
                    "midi": 74,
                    "time": 137.24999999999966,
                    "velocity": 0.8740157480314961,
                    "duration": 0.08333333333334281
                },
                {
                    "name": "E5",
                    "midi": 76,
                    "time": 137.333333333333,
                    "velocity": 0.8740157480314961,
                    "duration": 0.08333333333334281
                },
                {
                    "name": "D5",
                    "midi": 74,
                    "time": 137.41666666666634,
                    "velocity": 0.8740157480314961,
                    "duration": 0.08333333333334281
                },
                {
                    "name": "E5",
                    "midi": 76,
                    "time": 137.4999999999997,
                    "velocity": 0.8740157480314961,
                    "duration": 0.08333333333334281
                },
                {
                    "name": "D5",
                    "midi": 74,
                    "time": 137.58333333333303,
                    "velocity": 0.8740157480314961,
                    "duration": 0.08333333333334281
                },
                {
                    "name": "E5",
                    "midi": 76,
                    "time": 137.66666666666637,
                    "velocity": 0.8740157480314961,
                    "duration": 0.08333333333334281
                },
                {
                    "name": "D5",
                    "midi": 74,
                    "time": 137.74999999999972,
                    "velocity": 0.8740157480314961,
                    "duration": 0.08333333333334281
                },
                {
                    "name": "E5",
                    "midi": 76,
                    "time": 137.83333333333306,
                    "velocity": 0.8740157480314961,
                    "duration": 0.08333333333334281
                },
                {
                    "name": "D5",
                    "midi": 74,
                    "time": 137.9166666666664,
                    "velocity": 0.8740157480314961,
                    "duration": 0.08333333333334281
                }
            ],
            "controlChanges": {
                "10": [
                    {
                        "number": 10,
                        "time": 0,
                        "value": 0
                    }
                ]
            },
            "id": 5,
            "name": "Musette",
            "instrumentNumber": 74,
            "instrument": "recorder",
            "instrumentFamily": "pipe",
            "channelNumber": 0,
            "isPercussion": false
        },
        {
            "startTime": 48,
            "duration": 137.91666666666657,
            "length": 263,
            "notes": [
                {
                    "name": "C3",
                    "midi": 48,
                    "time": 48,
                    "velocity": 0.3228346456692913,
                    "duration": 0.4166666666666643
                },
                {
                    "name": "A3",
                    "midi": 57,
                    "time": 48.5,
                    "velocity": 0.3228346456692913,
                    "duration": 0.125
                },
                {
                    "name": "G3",
                    "midi": 55,
                    "time": 48.625,
                    "velocity": 0.3228346456692913,
                    "duration": 0.0833333333333357
                },
                {
                    "name": "A3",
                    "midi": 57,
                    "time": 48.708333333333336,
                    "velocity": 0.3228346456692913,
                    "duration": 0.0833333333333357
                },
                {
                    "name": "G3",
                    "midi": 55,
                    "time": 48.79166666666667,
                    "velocity": 0.3228346456692913,
                    "duration": 0.0833333333333357
                },
                {
                    "name": "A3",
                    "midi": 57,
                    "time": 48.87500000000001,
                    "velocity": 0.3228346456692913,
                    "duration": 0.0833333333333357
                },
                {
                    "name": "G3",
                    "midi": 55,
                    "time": 48.95833333333334,
                    "velocity": 0.3228346456692913,
                    "duration": 0.0833333333333357
                },
                {
                    "name": "A3",
                    "midi": 57,
                    "time": 49.04166666666668,
                    "velocity": 0.3228346456692913,
                    "duration": 0.0833333333333357
                },
                {
                    "name": "G3",
                    "midi": 55,
                    "time": 49.125000000000014,
                    "velocity": 0.3228346456692913,
                    "duration": 0.125
                },
                {
                    "name": "F3",
                    "midi": 53,
                    "time": 49.250000000000014,
                    "velocity": 0.3228346456692913,
                    "duration": 0.2083333333333357
                },
                {
                    "name": "G3",
                    "midi": 55,
                    "time": 49.500000000000014,
                    "velocity": 0.3228346456692913,
                    "duration": 0.2083333333333357
                },
                {
                    "name": "E3",
                    "midi": 52,
                    "time": 49.750000000000014,
                    "velocity": 0.3228346456692913,
                    "duration": 0.2083333333333357
                },
                {
                    "name": "G3",
                    "midi": 55,
                    "time": 50.000000000000014,
                    "velocity": 0.3228346456692913,
                    "duration": 0.0833333333333357
                },
                {
                    "name": "F3",
                    "midi": 53,
                    "time": 50.08333333333335,
                    "velocity": 0.3228346456692913,
                    "duration": 0.0833333333333357
                },
                {
                    "name": "G3",
                    "midi": 55,
                    "time": 50.166666666666686,
                    "velocity": 0.3228346456692913,
                    "duration": 0.0833333333333357
                },
                {
                    "name": "F3",
                    "midi": 53,
                    "time": 50.25000000000002,
                    "velocity": 0.3228346456692913,
                    "duration": 0.0833333333333357
                },
                {
                    "name": "G3",
                    "midi": 55,
                    "time": 50.33333333333336,
                    "velocity": 0.3228346456692913,
                    "duration": 0.0833333333333357
                },
                {
                    "name": "F3",
                    "midi": 53,
                    "time": 50.41666666666669,
                    "velocity": 0.3228346456692913,
                    "duration": 0.0833333333333357
                },
                {
                    "name": "E3",
                    "midi": 52,
                    "time": 50.50000000000003,
                    "velocity": 0.3228346456692913,
                    "duration": 0.2083333333333357
                },
                {
                    "name": "D3",
                    "midi": 50,
                    "time": 50.75000000000003,
                    "velocity": 0.3228346456692913,
                    "duration": 0.2083333333333357
                },
                {
                    "name": "E3",
                    "midi": 52,
                    "time": 51.00000000000003,
                    "velocity": 0.3228346456692913,
                    "duration": 0.2083333333333357
                },
                {
                    "name": "C3",
                    "midi": 48,
                    "time": 51.25000000000003,
                    "velocity": 0.3228346456692913,
                    "duration": 0.2083333333333357
                },
                {
                    "name": "G3",
                    "midi": 55,
                    "time": 51.50000000000003,
                    "velocity": 0.3228346456692913,
                    "duration": 0.2083333333333357
                },
                {
                    "name": "G2",
                    "midi": 43,
                    "time": 51.75000000000003,
                    "velocity": 0.3228346456692913,
                    "duration": 0.2083333333333357
                },
                {
                    "name": "G3",
                    "midi": 55,
                    "time": 52.00000000000003,
                    "velocity": 0.3228346456692913,
                    "duration": 0.2083333333333357
                },
                {
                    "name": "F#3",
                    "midi": 54,
                    "time": 52.25000000000003,
                    "velocity": 0.3228346456692913,
                    "duration": 0.2083333333333357
                },
                {
                    "name": "G3",
                    "midi": 55,
                    "time": 52.50000000000003,
                    "velocity": 0.3228346456692913,
                    "duration": 0.2083333333333357
                },
                {
                    "name": "A3",
                    "midi": 57,
                    "time": 52.75000000000003,
                    "velocity": 0.3228346456692913,
                    "duration": 0.2083333333333357
                },
                {
                    "name": "B3",
                    "midi": 59,
                    "time": 53.00000000000003,
                    "velocity": 0.3228346456692913,
                    "duration": 0.2083333333333357
                },
                {
                    "name": "C4",
                    "midi": 60,
                    "time": 53.25000000000003,
                    "velocity": 0.3228346456692913,
                    "duration": 0.2083333333333357
                },
                {
                    "name": "B3",
                    "midi": 59,
                    "time": 53.50000000000003,
                    "velocity": 0.3228346456692913,
                    "duration": 0.2083333333333357
                },
                {
                    "name": "A3",
                    "midi": 57,
                    "time": 53.75000000000003,
                    "velocity": 0.3228346456692913,
                    "duration": 0.2083333333333357
                },
                {
                    "name": "G3",
                    "midi": 55,
                    "time": 54.00000000000003,
                    "velocity": 0.3228346456692913,
                    "duration": 0.2083333333333357
                },
                {
                    "name": "F#3",
                    "midi": 54,
                    "time": 54.25000000000003,
                    "velocity": 0.3228346456692913,
                    "duration": 0.2083333333333357
                },
                {
                    "name": "E3",
                    "midi": 52,
                    "time": 54.50000000000003,
                    "velocity": 0.3228346456692913,
                    "duration": 0.4166666666666643
                },
                {
                    "name": "D3",
                    "midi": 50,
                    "time": 55.00000000000003,
                    "velocity": 0.3228346456692913,
                    "duration": 0.4166666666666643
                },
                {
                    "name": "D2",
                    "midi": 38,
                    "time": 55.50000000000003,
                    "velocity": 0.3228346456692913,
                    "duration": 0.4166666666666643
                },
                {
                    "name": "G2",
                    "midi": 43,
                    "time": 56.00000000000003,
                    "velocity": 0.3228346456692913,
                    "duration": 0.4166666666666643
                },
                {
                    "name": "D3",
                    "midi": 50,
                    "time": 56.50000000000003,
                    "velocity": 0.3228346456692913,
                    "duration": 0.2083333333333357
                },
                {
                    "name": "E3",
                    "midi": 52,
                    "time": 56.75000000000003,
                    "velocity": 0.3228346456692913,
                    "duration": 0.2083333333333357
                },
                {
                    "name": "F#3",
                    "midi": 54,
                    "time": 57.00000000000003,
                    "velocity": 0.3228346456692913,
                    "duration": 0.2083333333333357
                },
                {
                    "name": "D3",
                    "midi": 50,
                    "time": 57.25000000000003,
                    "velocity": 0.3228346456692913,
                    "duration": 0.2083333333333357
                },
                {
                    "name": "G3",
                    "midi": 55,
                    "time": 57.50000000000003,
                    "velocity": 0.3228346456692913,
                    "duration": 0.4166666666666643
                },
                {
                    "name": "G3",
                    "midi": 55,
                    "time": 58.00000000000003,
                    "velocity": 0.3228346456692913,
                    "duration": 0.4166666666666643
                },
                {
                    "name": "G2",
                    "midi": 43,
                    "time": 58.50000000000003,
                    "velocity": 0.3228346456692913,
                    "duration": 0.4166666666666643
                },
                {
                    "name": "D3",
                    "midi": 50,
                    "time": 59.00000000000003,
                    "velocity": 0.3228346456692913,
                    "duration": 0.4166666666666643
                },
                {
                    "name": "D3",
                    "midi": 50,
                    "time": 59.50000000000003,
                    "velocity": 0.3228346456692913,
                    "duration": 0.2083333333333357
                },
                {
                    "name": "E3",
                    "midi": 52,
                    "time": 59.75000000000003,
                    "velocity": 0.3228346456692913,
                    "duration": 0.2083333333333357
                },
                {
                    "name": "F#3",
                    "midi": 54,
                    "time": 60.00000000000003,
                    "velocity": 0.3228346456692913,
                    "duration": 0.2083333333333357
                },
                {
                    "name": "D3",
                    "midi": 50,
                    "time": 60.25000000000003,
                    "velocity": 0.3228346456692913,
                    "duration": 0.2083333333333357
                },
                {
                    "name": "G3",
                    "midi": 55,
                    "time": 60.50000000000003,
                    "velocity": 0.3228346456692913,
                    "duration": 0.4166666666666643
                },
                {
                    "name": "D4",
                    "midi": 62,
                    "time": 61.00000000000003,
                    "velocity": 0.3228346456692913,
                    "duration": 0.4166666666666643
                },
                {
                    "name": "C3",
                    "midi": 48,
                    "time": 62.00000000000003,
                    "velocity": 0.3228346456692913,
                    "duration": 0.9166666666666643
                },
                {
                    "name": "B2",
                    "midi": 47,
                    "time": 63.00000000000003,
                    "velocity": 0.3228346456692913,
                    "duration": 0.4166666666666643
                },
                {
                    "name": "E3",
                    "midi": 52,
                    "time": 63.50000000000003,
                    "velocity": 0.3228346456692913,
                    "duration": 0.2083333333333357
                },
                {
                    "name": "D3",
                    "midi": 50,
                    "time": 63.75000000000003,
                    "velocity": 0.3228346456692913,
                    "duration": 0.2083333333333357
                },
                {
                    "name": "C3",
                    "midi": 48,
                    "time": 64.00000000000003,
                    "velocity": 0.3228346456692913,
                    "duration": 0.2083333333333286
                },
                {
                    "name": "B2",
                    "midi": 47,
                    "time": 64.25000000000003,
                    "velocity": 0.3228346456692913,
                    "duration": 0.2083333333333286
                },
                {
                    "name": "A2",
                    "midi": 45,
                    "time": 64.50000000000003,
                    "velocity": 0.3228346456692913,
                    "duration": 0.2083333333333286
                },
                {
                    "name": "B2",
                    "midi": 47,
                    "time": 64.75000000000003,
                    "velocity": 0.3228346456692913,
                    "duration": 0.2083333333333286
                },
                {
                    "name": "C3",
                    "midi": 48,
                    "time": 65.00000000000003,
                    "velocity": 0.3228346456692913,
                    "duration": 0.4166666666666714
                },
                {
                    "name": "B2",
                    "midi": 47,
                    "time": 65.50000000000003,
                    "velocity": 0.3228346456692913,
                    "duration": 0.2083333333333286
                },
                {
                    "name": "A2",
                    "midi": 45,
                    "time": 65.75000000000003,
                    "velocity": 0.3228346456692913,
                    "duration": 0.2083333333333286
                },
                {
                    "name": "G2",
                    "midi": 43,
                    "time": 66.00000000000003,
                    "velocity": 0.3228346456692913,
                    "duration": 0.4166666666666714
                },
                {
                    "name": "G3",
                    "midi": 55,
                    "time": 66.50000000000003,
                    "velocity": 0.3228346456692913,
                    "duration": 0.4166666666666714
                },
                {
                    "name": "D4",
                    "midi": 62,
                    "time": 67.00000000000003,
                    "velocity": 0.3228346456692913,
                    "duration": 0.4166666666666714
                },
                {
                    "name": "D3",
                    "midi": 50,
                    "time": 67.50000000000003,
                    "velocity": 0.3228346456692913,
                    "duration": 0.4166666666666714
                },
                {
                    "name": "G3",
                    "midi": 55,
                    "time": 68.00000000000003,
                    "velocity": 0.3228346456692913,
                    "duration": 0.4166666666666714
                },
                {
                    "name": "B3",
                    "midi": 59,
                    "time": 68.50000000000003,
                    "velocity": 0.3228346456692913,
                    "duration": 0.2083333333333286
                },
                {
                    "name": "A3",
                    "midi": 57,
                    "time": 68.75000000000003,
                    "velocity": 0.3228346456692913,
                    "duration": 0.2083333333333286
                },
                {
                    "name": "G3",
                    "midi": 55,
                    "time": 69.00000000000003,
                    "velocity": 0.3228346456692913,
                    "duration": 0.2083333333333286
                },
                {
                    "name": "F#3",
                    "midi": 54,
                    "time": 69.25000000000003,
                    "velocity": 0.3228346456692913,
                    "duration": 0.2083333333333286
                },
                {
                    "name": "G3",
                    "midi": 55,
                    "time": 69.50000000000003,
                    "velocity": 0.3228346456692913,
                    "duration": 0.2083333333333286
                },
                {
                    "name": "D4",
                    "midi": 62,
                    "time": 69.75000000000003,
                    "velocity": 0.3228346456692913,
                    "duration": 0.2083333333333286
                },
                {
                    "name": "F#3",
                    "midi": 54,
                    "time": 70.00000000000003,
                    "velocity": 0.3228346456692913,
                    "duration": 0.2083333333333286
                },
                {
                    "name": "D4",
                    "midi": 62,
                    "time": 70.25000000000003,
                    "velocity": 0.3228346456692913,
                    "duration": 0.2083333333333286
                },
                {
                    "name": "D3",
                    "midi": 50,
                    "time": 70.50000000000003,
                    "velocity": 0.3228346456692913,
                    "duration": 0.2083333333333286
                },
                {
                    "name": "D4",
                    "midi": 62,
                    "time": 70.75000000000003,
                    "velocity": 0.3228346456692913,
                    "duration": 0.2083333333333286
                },
                {
                    "name": "G3",
                    "midi": 55,
                    "time": 71.00000000000003,
                    "velocity": 0.3228346456692913,
                    "duration": 0.2083333333333286
                },
                {
                    "name": "D4",
                    "midi": 62,
                    "time": 71.25000000000003,
                    "velocity": 0.3228346456692913,
                    "duration": 0.2083333333333286
                },
                {
                    "name": "F#3",
                    "midi": 54,
                    "time": 71.50000000000003,
                    "velocity": 0.3228346456692913,
                    "duration": 0.2083333333333286
                },
                {
                    "name": "D4",
                    "midi": 62,
                    "time": 71.75000000000003,
                    "velocity": 0.3228346456692913,
                    "duration": 0.2083333333333286
                },
                {
                    "name": "D3",
                    "midi": 50,
                    "time": 72.00000000000003,
                    "velocity": 0.3228346456692913,
                    "duration": 0.2083333333333286
                },
                {
                    "name": "D4",
                    "midi": 62,
                    "time": 72.25000000000003,
                    "velocity": 0.3228346456692913,
                    "duration": 0.2083333333333286
                },
                {
                    "name": "G3",
                    "midi": 55,
                    "time": 72.50000000000003,
                    "velocity": 0.3228346456692913,
                    "duration": 0.2083333333333286
                },
                {
                    "name": "D4",
                    "midi": 62,
                    "time": 72.75000000000003,
                    "velocity": 0.3228346456692913,
                    "duration": 0.2083333333333286
                },
                {
                    "name": "F#3",
                    "midi": 54,
                    "time": 73.00000000000003,
                    "velocity": 0.3228346456692913,
                    "duration": 0.2083333333333286
                },
                {
                    "name": "D4",
                    "midi": 62,
                    "time": 73.25000000000003,
                    "velocity": 0.3228346456692913,
                    "duration": 0.2083333333333286
                },
                {
                    "name": "D3",
                    "midi": 50,
                    "time": 73.50000000000003,
                    "velocity": 0.3228346456692913,
                    "duration": 0.2083333333333286
                },
                {
                    "name": "D4",
                    "midi": 62,
                    "time": 73.75000000000003,
                    "velocity": 0.3228346456692913,
                    "duration": 0.2083333333333286
                },
                {
                    "name": "G3",
                    "midi": 55,
                    "time": 74.00000000000003,
                    "velocity": 0.3228346456692913,
                    "duration": 0.2083333333333286
                },
                {
                    "name": "D4",
                    "midi": 62,
                    "time": 74.25000000000003,
                    "velocity": 0.3228346456692913,
                    "duration": 0.2083333333333286
                },
                {
                    "name": "D4",
                    "midi": 62,
                    "time": 74.50000000000003,
                    "velocity": 0.3228346456692913,
                    "duration": 0.2083333333333286
                },
                {
                    "name": "C4",
                    "midi": 60,
                    "time": 74.75000000000003,
                    "velocity": 0.3228346456692913,
                    "duration": 0.2083333333333286
                },
                {
                    "name": "B3",
                    "midi": 59,
                    "time": 75.00000000000003,
                    "velocity": 0.3228346456692913,
                    "duration": 0.2083333333333286
                },
                {
                    "name": "G3",
                    "midi": 55,
                    "time": 75.25000000000003,
                    "velocity": 0.3228346456692913,
                    "duration": 0.2083333333333286
                },
                {
                    "name": "C3",
                    "midi": 48,
                    "time": 75.50000000000003,
                    "velocity": 0.3228346456692913,
                    "duration": 0.4166666666666714
                },
                {
                    "name": "E4",
                    "midi": 64,
                    "time": 76.00000000000003,
                    "velocity": 0.3228346456692913,
                    "duration": 0.4166666666666714
                },
                {
                    "name": "C3",
                    "midi": 48,
                    "time": 76.50000000000003,
                    "velocity": 0.3228346456692913,
                    "duration": 0.4166666666666714
                },
                {
                    "name": "B2",
                    "midi": 47,
                    "time": 77.00000000000003,
                    "velocity": 0.3228346456692913,
                    "duration": 0.4166666666666714
                },
                {
                    "name": "D4",
                    "midi": 62,
                    "time": 77.50000000000003,
                    "velocity": 0.3228346456692913,
                    "duration": 0.4166666666666714
                },
                {
                    "name": "B2",
                    "midi": 47,
                    "time": 78.00000000000003,
                    "velocity": 0.3228346456692913,
                    "duration": 0.4166666666666714
                },
                {
                    "name": "A2",
                    "midi": 45,
                    "time": 78.50000000000003,
                    "velocity": 0.3228346456692913,
                    "duration": 0.4166666666666714
                },
                {
                    "name": "D3",
                    "midi": 50,
                    "time": 79.00000000000003,
                    "velocity": 0.3228346456692913,
                    "duration": 0.4166666666666714
                },
                {
                    "name": "D2",
                    "midi": 38,
                    "time": 79.50000000000003,
                    "velocity": 0.3228346456692913,
                    "duration": 0.4166666666666714
                },
                {
                    "name": "G2",
                    "midi": 43,
                    "time": 80.00000000000003,
                    "velocity": 0.3228346456692913,
                    "duration": 0.9166666666666714
                },
                {
                    "name": "G3",
                    "midi": 55,
                    "time": 82.50000000000003,
                    "velocity": 0.3228346456692913,
                    "duration": 0.4166666666666714
                },
                {
                    "name": "F3",
                    "midi": 53,
                    "time": 83.00000000000003,
                    "velocity": 0.3228346456692913,
                    "duration": 0.125
                },
                {
                    "name": "E3",
                    "midi": 52,
                    "time": 83.12500000000003,
                    "velocity": 0.3228346456692913,
                    "duration": 0.0833333333333286
                },
                {
                    "name": "F3",
                    "midi": 53,
                    "time": 83.20833333333336,
                    "velocity": 0.3228346456692913,
                    "duration": 0.0833333333333286
                },
                {
                    "name": "E3",
                    "midi": 52,
                    "time": 83.29166666666669,
                    "velocity": 0.3228346456692913,
                    "duration": 0.0833333333333286
                },
                {
                    "name": "F3",
                    "midi": 53,
                    "time": 83.37500000000001,
                    "velocity": 0.3228346456692913,
                    "duration": 0.0833333333333286
                },
                {
                    "name": "E3",
                    "midi": 52,
                    "time": 83.45833333333334,
                    "velocity": 0.3228346456692913,
                    "duration": 0.0833333333333286
                },
                {
                    "name": "F3",
                    "midi": 53,
                    "time": 83.54166666666667,
                    "velocity": 0.3228346456692913,
                    "duration": 0.0833333333333286
                },
                {
                    "name": "E3",
                    "midi": 52,
                    "time": 83.625,
                    "velocity": 0.3228346456692913,
                    "duration": 0.125
                },
                {
                    "name": "D3",
                    "midi": 50,
                    "time": 83.75,
                    "velocity": 0.3228346456692913,
                    "duration": 0.2083333333333286
                },
                {
                    "name": "C3",
                    "midi": 48,
                    "time": 84,
                    "velocity": 0.3228346456692913,
                    "duration": 0.2083333333333286
                },
                {
                    "name": "B2",
                    "midi": 47,
                    "time": 84.25,
                    "velocity": 0.3228346456692913,
                    "duration": 0.2083333333333286
                },
                {
                    "name": "C3",
                    "midi": 48,
                    "time": 84.5,
                    "velocity": 0.3228346456692913,
                    "duration": 0.671875
                },
                {
                    "name": "G2",
                    "midi": 43,
                    "time": 85.25,
                    "velocity": 0.3228346456692913,
                    "duration": 0.2083333333333286
                },
                {
                    "name": "C3",
                    "midi": 48,
                    "time": 85.5,
                    "velocity": 0.3228346456692913,
                    "duration": 0.2083333333333286
                },
                {
                    "name": "D3",
                    "midi": 50,
                    "time": 85.75,
                    "velocity": 0.3228346456692913,
                    "duration": 0.2083333333333286
                },
                {
                    "name": "E3",
                    "midi": 52,
                    "time": 86,
                    "velocity": 0.3228346456692913,
                    "duration": 0.2083333333333286
                },
                {
                    "name": "D3",
                    "midi": 50,
                    "time": 86.25,
                    "velocity": 0.3228346456692913,
                    "duration": 0.2083333333333286
                },
                {
                    "name": "C3",
                    "midi": 48,
                    "time": 86.5,
                    "velocity": 0.3228346456692913,
                    "duration": 0.0833333333333286
                },
                {
                    "name": "D3",
                    "midi": 50,
                    "time": 86.58333333333333,
                    "velocity": 0.3228346456692913,
                    "duration": 0.0833333333333286
                },
                {
                    "name": "C3",
                    "midi": 48,
                    "time": 86.66666666666666,
                    "velocity": 0.3228346456692913,
                    "duration": 0.0833333333333286
                },
                {
                    "name": "B2",
                    "midi": 47,
                    "time": 86.74999999999999,
                    "velocity": 0.3228346456692913,
                    "duration": 0.2083333333333286
                },
                {
                    "name": "C3",
                    "midi": 48,
                    "time": 86.99999999999999,
                    "velocity": 0.3228346456692913,
                    "duration": 0.4166666666666714
                },
                {
                    "name": "E4",
                    "midi": 64,
                    "time": 87.49999999999999,
                    "velocity": 0.3228346456692913,
                    "duration": 0.2083333333333286
                },
                {
                    "name": "D4",
                    "midi": 62,
                    "time": 87.74999999999999,
                    "velocity": 0.3228346456692913,
                    "duration": 0.25
                },
                {
                    "name": "C4",
                    "midi": 60,
                    "time": 87.99999999999999,
                    "velocity": 0.3228346456692913,
                    "duration": 0.0833333333333286
                },
                {
                    "name": "D4",
                    "midi": 62,
                    "time": 88.08333333333331,
                    "velocity": 0.3228346456692913,
                    "duration": 0.0833333333333286
                },
                {
                    "name": "C4",
                    "midi": 60,
                    "time": 88.16666666666664,
                    "velocity": 0.3228346456692913,
                    "duration": 0.0833333333333286
                },
                {
                    "name": "B3",
                    "midi": 59,
                    "time": 88.24999999999997,
                    "velocity": 0.3228346456692913,
                    "duration": 0.2083333333333286
                },
                {
                    "name": "C4",
                    "midi": 60,
                    "time": 88.49999999999997,
                    "velocity": 0.3228346456692913,
                    "duration": 0.4166666666666714
                },
                {
                    "name": "E3",
                    "midi": 52,
                    "time": 88.99999999999997,
                    "velocity": 0.3228346456692913,
                    "duration": 0.2083333333333286
                },
                {
                    "name": "D3",
                    "midi": 50,
                    "time": 89.24999999999997,
                    "velocity": 0.3228346456692913,
                    "duration": 0.25
                },
                {
                    "name": "C3",
                    "midi": 48,
                    "time": 89.49999999999997,
                    "velocity": 0.3228346456692913,
                    "duration": 0.0833333333333286
                },
                {
                    "name": "D3",
                    "midi": 50,
                    "time": 89.5833333333333,
                    "velocity": 0.3228346456692913,
                    "duration": 0.0833333333333286
                },
                {
                    "name": "C3",
                    "midi": 48,
                    "time": 89.66666666666663,
                    "velocity": 0.3228346456692913,
                    "duration": 0.0833333333333286
                },
                {
                    "name": "B2",
                    "midi": 47,
                    "time": 89.74999999999996,
                    "velocity": 0.3228346456692913,
                    "duration": 0.2083333333333286
                },
                {
                    "name": "C3",
                    "midi": 48,
                    "time": 89.99999999999996,
                    "velocity": 0.3228346456692913,
                    "duration": 0.4166666666666714
                },
                {
                    "name": "F3",
                    "midi": 53,
                    "time": 90.49999999999996,
                    "velocity": 0.3228346456692913,
                    "duration": 0.2083333333333286
                },
                {
                    "name": "G3",
                    "midi": 55,
                    "time": 90.74999999999996,
                    "velocity": 0.3228346456692913,
                    "duration": 0.2083333333333286
                },
                {
                    "name": "A3",
                    "midi": 57,
                    "time": 90.99999999999996,
                    "velocity": 0.3228346456692913,
                    "duration": 0.4166666666666714
                },
                {
                    "name": "F3",
                    "midi": 53,
                    "time": 91.49999999999996,
                    "velocity": 0.3228346456692913,
                    "duration": 0.4166666666666714
                },
                {
                    "name": "G3",
                    "midi": 55,
                    "time": 91.99999999999996,
                    "velocity": 0.3228346456692913,
                    "duration": 0.2083333333333286
                },
                {
                    "name": "F3",
                    "midi": 53,
                    "time": 92.24999999999996,
                    "velocity": 0.3228346456692913,
                    "duration": 0.2083333333333286
                },
                {
                    "name": "E3",
                    "midi": 52,
                    "time": 92.49999999999996,
                    "velocity": 0.3228346456692913,
                    "duration": 0.2083333333333286
                },
                {
                    "name": "D3",
                    "midi": 50,
                    "time": 92.74999999999996,
                    "velocity": 0.3228346456692913,
                    "duration": 0.2083333333333286
                },
                {
                    "name": "E3",
                    "midi": 52,
                    "time": 92.99999999999996,
                    "velocity": 0.3228346456692913,
                    "duration": 0.2083333333333286
                },
                {
                    "name": "C3",
                    "midi": 48,
                    "time": 93.24999999999996,
                    "velocity": 0.3228346456692913,
                    "duration": 0.2083333333333286
                },
                {
                    "name": "G3",
                    "midi": 55,
                    "time": 93.49999999999996,
                    "velocity": 0.3228346456692913,
                    "duration": 0.4166666666666714
                },
                {
                    "name": "G2",
                    "midi": 43,
                    "time": 93.99999999999996,
                    "velocity": 0.3228346456692913,
                    "duration": 0.4166666666666714
                },
                {
                    "name": "G3",
                    "midi": 55,
                    "time": 94.49999999999996,
                    "velocity": 0.3228346456692913,
                    "duration": 0.4166666666666714
                },
                {
                    "name": "F3",
                    "midi": 53,
                    "time": 94.99999999999996,
                    "velocity": 0.3228346456692913,
                    "duration": 0.125
                },
                {
                    "name": "E3",
                    "midi": 52,
                    "time": 95.12499999999996,
                    "velocity": 0.3228346456692913,
                    "duration": 0.0833333333333286
                },
                {
                    "name": "F3",
                    "midi": 53,
                    "time": 95.20833333333329,
                    "velocity": 0.3228346456692913,
                    "duration": 0.0833333333333286
                },
                {
                    "name": "E3",
                    "midi": 52,
                    "time": 95.29166666666661,
                    "velocity": 0.3228346456692913,
                    "duration": 0.0833333333333286
                },
                {
                    "name": "F3",
                    "midi": 53,
                    "time": 95.37499999999994,
                    "velocity": 0.3228346456692913,
                    "duration": 0.0833333333333286
                },
                {
                    "name": "E3",
                    "midi": 52,
                    "time": 95.45833333333327,
                    "velocity": 0.3228346456692913,
                    "duration": 0.0833333333333286
                },
                {
                    "name": "F3",
                    "midi": 53,
                    "time": 95.5416666666666,
                    "velocity": 0.3228346456692913,
                    "duration": 0.0833333333333286
                },
                {
                    "name": "E3",
                    "midi": 52,
                    "time": 95.62499999999993,
                    "velocity": 0.3228346456692913,
                    "duration": 0.125
                },
                {
                    "name": "D3",
                    "midi": 50,
                    "time": 95.74999999999993,
                    "velocity": 0.3228346456692913,
                    "duration": 0.2083333333333286
                },
                {
                    "name": "C3",
                    "midi": 48,
                    "time": 95.99999999999993,
                    "velocity": 0.3228346456692913,
                    "duration": 0.2083333333333286
                },
                {
                    "name": "B2",
                    "midi": 47,
                    "time": 96.24999999999993,
                    "velocity": 0.3228346456692913,
                    "duration": 0.2083333333333286
                },
                {
                    "name": "C3",
                    "midi": 48,
                    "time": 96.49999999999993,
                    "velocity": 0.3228346456692913,
                    "duration": 0.671875
                },
                {
                    "name": "G2",
                    "midi": 43,
                    "time": 97.24999999999993,
                    "velocity": 0.3228346456692913,
                    "duration": 0.2083333333333286
                },
                {
                    "name": "C3",
                    "midi": 48,
                    "time": 97.49999999999993,
                    "velocity": 0.3228346456692913,
                    "duration": 0.2083333333333286
                },
                {
                    "name": "D3",
                    "midi": 50,
                    "time": 97.74999999999993,
                    "velocity": 0.3228346456692913,
                    "duration": 0.2083333333333286
                },
                {
                    "name": "E3",
                    "midi": 52,
                    "time": 97.99999999999993,
                    "velocity": 0.3228346456692913,
                    "duration": 0.2083333333333286
                },
                {
                    "name": "D3",
                    "midi": 50,
                    "time": 98.24999999999993,
                    "velocity": 0.3228346456692913,
                    "duration": 0.2083333333333286
                },
                {
                    "name": "C3",
                    "midi": 48,
                    "time": 98.49999999999993,
                    "velocity": 0.3228346456692913,
                    "duration": 0.2083333333333286
                },
                {
                    "name": "B2",
                    "midi": 47,
                    "time": 98.74999999999993,
                    "velocity": 0.3228346456692913,
                    "duration": 0.2083333333333286
                },
                {
                    "name": "C3",
                    "midi": 48,
                    "time": 98.99999999999993,
                    "velocity": 0.3228346456692913,
                    "duration": 0.4166666666666714
                },
                {
                    "name": "E4",
                    "midi": 64,
                    "time": 99.49999999999993,
                    "velocity": 0.3228346456692913,
                    "duration": 0.2083333333333286
                },
                {
                    "name": "D4",
                    "midi": 62,
                    "time": 99.74999999999993,
                    "velocity": 0.3228346456692913,
                    "duration": 0.2083333333333286
                },
                {
                    "name": "C4",
                    "midi": 60,
                    "time": 99.99999999999993,
                    "velocity": 0.3228346456692913,
                    "duration": 0.0833333333333286
                },
                {
                    "name": "D4",
                    "midi": 62,
                    "time": 100.08333333333326,
                    "velocity": 0.3228346456692913,
                    "duration": 0.0833333333333286
                },
                {
                    "name": "C4",
                    "midi": 60,
                    "time": 100.16666666666659,
                    "velocity": 0.3228346456692913,
                    "duration": 0.0833333333333286
                },
                {
                    "name": "B3",
                    "midi": 59,
                    "time": 100.24999999999991,
                    "velocity": 0.3228346456692913,
                    "duration": 0.2083333333333286
                },
                {
                    "name": "C4",
                    "midi": 60,
                    "time": 100.49999999999991,
                    "velocity": 0.3228346456692913,
                    "duration": 0.4166666666666714
                },
                {
                    "name": "F3",
                    "midi": 53,
                    "time": 100.99999999999991,
                    "velocity": 0.3228346456692913,
                    "duration": 0.2083333333333286
                },
                {
                    "name": "G3",
                    "midi": 55,
                    "time": 101.24999999999991,
                    "velocity": 0.3228346456692913,
                    "duration": 0.2083333333333286
                },
                {
                    "name": "A3",
                    "midi": 57,
                    "time": 101.49999999999991,
                    "velocity": 0.3228346456692913,
                    "duration": 0.4166666666666714
                },
                {
                    "name": "F3",
                    "midi": 53,
                    "time": 101.99999999999991,
                    "velocity": 0.3228346456692913,
                    "duration": 0.4166666666666714
                },
                {
                    "name": "G3",
                    "midi": 55,
                    "time": 102.49999999999991,
                    "velocity": 0.3228346456692913,
                    "duration": 0.4166666666666714
                },
                {
                    "name": "G2",
                    "midi": 43,
                    "time": 102.99999999999991,
                    "velocity": 0.3228346456692913,
                    "duration": 0.9166666666666714
                },
                {
                    "name": "C3",
                    "midi": 48,
                    "time": 103.99999999999991,
                    "velocity": 0.3228346456692913,
                    "duration": 0.9166666666666714
                },
                {
                    "name": "C3",
                    "midi": 48,
                    "time": 105.49999999999991,
                    "velocity": 0.3228346456692913,
                    "duration": 0.4166666666666714
                },
                {
                    "name": "C4",
                    "midi": 60,
                    "time": 105.99999999999991,
                    "velocity": 0.3228346456692913,
                    "duration": 0.4166666666666714
                },
                {
                    "name": "C3",
                    "midi": 48,
                    "time": 106.49999999999991,
                    "velocity": 0.3228346456692913,
                    "duration": 0.4166666666666714
                },
                {
                    "name": "F3",
                    "midi": 53,
                    "time": 106.99999999999991,
                    "velocity": 0.3228346456692913,
                    "duration": 0.4166666666666714
                },
                {
                    "name": "E3",
                    "midi": 52,
                    "time": 107.49999999999991,
                    "velocity": 0.3228346456692913,
                    "duration": 0.4166666666666714
                },
                {
                    "name": "D3",
                    "midi": 50,
                    "time": 107.99999999999991,
                    "velocity": 0.3228346456692913,
                    "duration": 0.4166666666666714
                },
                {
                    "name": "C3",
                    "midi": 48,
                    "time": 108.49999999999991,
                    "velocity": 0.3228346456692913,
                    "duration": 0.4166666666666714
                },
                {
                    "name": "G3",
                    "midi": 55,
                    "time": 108.99999999999991,
                    "velocity": 0.3228346456692913,
                    "duration": 0.4166666666666714
                },
                {
                    "name": "G2",
                    "midi": 43,
                    "time": 109.49999999999991,
                    "velocity": 0.3228346456692913,
                    "duration": 0.4166666666666714
                },
                {
                    "name": "C3",
                    "midi": 48,
                    "time": 109.99999999999991,
                    "velocity": 0.3228346456692913,
                    "duration": 0.9166666666666714
                },
                {
                    "name": "C3",
                    "midi": 48,
                    "time": 111.49999999999991,
                    "velocity": 0.3228346456692913,
                    "duration": 0.4166666666666714
                },
                {
                    "name": "C4",
                    "midi": 60,
                    "time": 111.99999999999991,
                    "velocity": 0.3228346456692913,
                    "duration": 0.4166666666666714
                },
                {
                    "name": "C3",
                    "midi": 48,
                    "time": 112.49999999999991,
                    "velocity": 0.3228346456692913,
                    "duration": 0.4166666666666714
                },
                {
                    "name": "F3",
                    "midi": 53,
                    "time": 112.99999999999991,
                    "velocity": 0.3228346456692913,
                    "duration": 0.4166666666666714
                },
                {
                    "name": "E3",
                    "midi": 52,
                    "time": 113.49999999999991,
                    "velocity": 0.3228346456692913,
                    "duration": 0.4166666666666714
                },
                {
                    "name": "D3",
                    "midi": 50,
                    "time": 113.99999999999991,
                    "velocity": 0.3228346456692913,
                    "duration": 0.4166666666666714
                },
                {
                    "name": "C3",
                    "midi": 48,
                    "time": 114.49999999999991,
                    "velocity": 0.3228346456692913,
                    "duration": 0.4166666666666714
                },
                {
                    "name": "C2",
                    "midi": 36,
                    "time": 114.99999999999991,
                    "velocity": 0.3228346456692913,
                    "duration": 0.9166666666666714
                },
                {
                    "name": "G2",
                    "midi": 43,
                    "time": 115.99999999999991,
                    "velocity": 0.3228346456692913,
                    "duration": 0.9166666666666714
                },
                {
                    "name": "G2",
                    "midi": 43,
                    "time": 117.49999999999991,
                    "velocity": 0.3228346456692913,
                    "duration": 0.4166666666666714
                },
                {
                    "name": "G3",
                    "midi": 55,
                    "time": 117.99999999999991,
                    "velocity": 0.3228346456692913,
                    "duration": 0.4166666666666714
                },
                {
                    "name": "F#3",
                    "midi": 54,
                    "time": 118.49999999999991,
                    "velocity": 0.3228346456692913,
                    "duration": 0.4166666666666714
                },
                {
                    "name": "G3",
                    "midi": 55,
                    "time": 118.99999999999991,
                    "velocity": 0.3228346456692913,
                    "duration": 0.2083333333333286
                },
                {
                    "name": "G2",
                    "midi": 43,
                    "time": 119.24999999999991,
                    "velocity": 0.3228346456692913,
                    "duration": 0.2083333333333286
                },
                {
                    "name": "B2",
                    "midi": 47,
                    "time": 119.49999999999991,
                    "velocity": 0.3228346456692913,
                    "duration": 0.2083333333333286
                },
                {
                    "name": "D3",
                    "midi": 50,
                    "time": 119.74999999999991,
                    "velocity": 0.3228346456692913,
                    "duration": 0.2083333333333286
                },
                {
                    "name": "G3",
                    "midi": 55,
                    "time": 119.99999999999991,
                    "velocity": 0.3228346456692913,
                    "duration": 0.2083333333333286
                },
                {
                    "name": "B3",
                    "midi": 59,
                    "time": 120.24999999999991,
                    "velocity": 0.3228346456692913,
                    "duration": 0.2083333333333286
                },
                {
                    "name": "G2",
                    "midi": 43,
                    "time": 120.49999999999991,
                    "velocity": 0.3228346456692913,
                    "duration": 0.4166666666666714
                },
                {
                    "name": "G3",
                    "midi": 55,
                    "time": 120.99999999999991,
                    "velocity": 0.3228346456692913,
                    "duration": 0.4166666666666714
                },
                {
                    "name": "F#3",
                    "midi": 54,
                    "time": 121.49999999999991,
                    "velocity": 0.3228346456692913,
                    "duration": 0.4166666666666714
                },
                {
                    "name": "G3",
                    "midi": 55,
                    "time": 121.99999999999991,
                    "velocity": 0.3228346456692913,
                    "duration": 0.2083333333333286
                },
                {
                    "name": "G2",
                    "midi": 43,
                    "time": 122.24999999999991,
                    "velocity": 0.3228346456692913,
                    "duration": 0.2083333333333286
                },
                {
                    "name": "B2",
                    "midi": 47,
                    "time": 122.49999999999991,
                    "velocity": 0.3228346456692913,
                    "duration": 0.2083333333333286
                },
                {
                    "name": "D3",
                    "midi": 50,
                    "time": 122.74999999999991,
                    "velocity": 0.3228346456692913,
                    "duration": 0.2083333333333286
                },
                {
                    "name": "G3",
                    "midi": 55,
                    "time": 122.99999999999991,
                    "velocity": 0.3228346456692913,
                    "duration": 0.2083333333333286
                },
                {
                    "name": "B3",
                    "midi": 59,
                    "time": 123.24999999999991,
                    "velocity": 0.3228346456692913,
                    "duration": 0.2083333333333286
                },
                {
                    "name": "C3",
                    "midi": 48,
                    "time": 123.49999999999991,
                    "velocity": 0.3228346456692913,
                    "duration": 0.4166666666666714
                },
                {
                    "name": "C4",
                    "midi": 60,
                    "time": 123.99999999999991,
                    "velocity": 0.3228346456692913,
                    "duration": 0.4166666666666714
                },
                {
                    "name": "B3",
                    "midi": 59,
                    "time": 124.49999999999991,
                    "velocity": 0.3228346456692913,
                    "duration": 0.4166666666666714
                },
                {
                    "name": "C4",
                    "midi": 60,
                    "time": 124.99999999999991,
                    "velocity": 0.3228346456692913,
                    "duration": 0.4166666666666714
                },
                {
                    "name": "C3",
                    "midi": 48,
                    "time": 125.49999999999991,
                    "velocity": 0.3228346456692913,
                    "duration": 0.4166666666666714
                },
                {
                    "name": "B2",
                    "midi": 47,
                    "time": 125.99999999999991,
                    "velocity": 0.3228346456692913,
                    "duration": 0.4166666666666714
                },
                {
                    "name": "C3",
                    "midi": 48,
                    "time": 126.49999999999991,
                    "velocity": 0.3228346456692913,
                    "duration": 0.4166666666666714
                },
                {
                    "name": "F3",
                    "midi": 53,
                    "time": 126.99999999999991,
                    "velocity": 0.3228346456692913,
                    "duration": 0.2083333333333286
                },
                {
                    "name": "G3",
                    "midi": 55,
                    "time": 127.24999999999991,
                    "velocity": 0.3228346456692913,
                    "duration": 0.2083333333333286
                },
                {
                    "name": "A3",
                    "midi": 57,
                    "time": 127.49999999999991,
                    "velocity": 0.3228346456692913,
                    "duration": 0.2083333333333286
                },
                {
                    "name": "B3",
                    "midi": 59,
                    "time": 127.74999999999991,
                    "velocity": 0.3228346456692913,
                    "duration": 0.2083333333333286
                },
                {
                    "name": "C4",
                    "midi": 60,
                    "time": 127.99999999999991,
                    "velocity": 0.3228346456692913,
                    "duration": 0.4166666666666572
                },
                {
                    "name": "F3",
                    "midi": 53,
                    "time": 128.49999999999991,
                    "velocity": 0.3228346456692913,
                    "duration": 0.2083333333333428
                },
                {
                    "name": "D3",
                    "midi": 50,
                    "time": 128.74999999999991,
                    "velocity": 0.3228346456692913,
                    "duration": 0.2083333333333428
                },
                {
                    "name": "E3",
                    "midi": 52,
                    "time": 128.99999999999991,
                    "velocity": 0.3228346456692913,
                    "duration": 0.2083333333333428
                },
                {
                    "name": "C3",
                    "midi": 48,
                    "time": 129.24999999999991,
                    "velocity": 0.3228346456692913,
                    "duration": 0.2083333333333428
                },
                {
                    "name": "G3",
                    "midi": 55,
                    "time": 129.49999999999991,
                    "velocity": 0.3228346456692913,
                    "duration": 0.2083333333333428
                },
                {
                    "name": "B3",
                    "midi": 59,
                    "time": 129.74999999999991,
                    "velocity": 0.3228346456692913,
                    "duration": 0.2083333333333428
                },
                {
                    "name": "C4",
                    "midi": 60,
                    "time": 129.99999999999991,
                    "velocity": 0.3228346456692913,
                    "duration": 0.2083333333333428
                },
                {
                    "name": "B3",
                    "midi": 59,
                    "time": 130.24999999999991,
                    "velocity": 0.3228346456692913,
                    "duration": 0.2083333333333428
                },
                {
                    "name": "A3",
                    "midi": 57,
                    "time": 130.49999999999991,
                    "velocity": 0.3228346456692913,
                    "duration": 0.2083333333333428
                },
                {
                    "name": "G3",
                    "midi": 55,
                    "time": 130.74999999999991,
                    "velocity": 0.3228346456692913,
                    "duration": 0.2083333333333428
                },
                {
                    "name": "G3",
                    "midi": 55,
                    "time": 130.99999999999991,
                    "velocity": 0.3228346456692913,
                    "duration": 0.4166666666666572
                },
                {
                    "name": "F#3",
                    "midi": 54,
                    "time": 131.49999999999991,
                    "velocity": 0.3228346456692913,
                    "duration": 0.4166666666666572
                },
                {
                    "name": "D3",
                    "midi": 50,
                    "time": 131.99999999999991,
                    "velocity": 0.3228346456692913,
                    "duration": 0.4166666666666572
                },
                {
                    "name": "G3",
                    "midi": 55,
                    "time": 132.49999999999991,
                    "velocity": 0.3228346456692913,
                    "duration": 0.9166666666666572
                },
                {
                    "name": "G2",
                    "midi": 43,
                    "time": 133.99999999999991,
                    "velocity": 0.3228346456692913,
                    "duration": 0.4166666666666572
                },
                {
                    "name": "G3",
                    "midi": 55,
                    "time": 134.49999999999991,
                    "velocity": 0.3228346456692913,
                    "duration": 0.4166666666666572
                },
                {
                    "name": "F#3",
                    "midi": 54,
                    "time": 134.99999999999991,
                    "velocity": 0.3228346456692913,
                    "duration": 0.4166666666666572
                },
                {
                    "name": "G3",
                    "midi": 55,
                    "time": 135.49999999999991,
                    "velocity": 0.3228346456692913,
                    "duration": 0.2083333333333428
                },
                {
                    "name": "G2",
                    "midi": 43,
                    "time": 135.74999999999991,
                    "velocity": 0.3228346456692913,
                    "duration": 0.2083333333333428
                },
                {
                    "name": "B2",
                    "midi": 47,
                    "time": 135.99999999999991,
                    "velocity": 0.3228346456692913,
                    "duration": 0.2083333333333428
                },
                {
                    "name": "A2",
                    "midi": 45,
                    "time": 136.24999999999991,
                    "velocity": 0.3228346456692913,
                    "duration": 0.2083333333333428
                },
                {
                    "name": "G3",
                    "midi": 55,
                    "time": 136.49999999999991,
                    "velocity": 0.3228346456692913,
                    "duration": 0.2083333333333428
                },
                {
                    "name": "C4",
                    "midi": 60,
                    "time": 136.74999999999991,
                    "velocity": 0.3228346456692913,
                    "duration": 0.2083333333333428
                },
                {
                    "name": "G2",
                    "midi": 43,
                    "time": 136.99999999999991,
                    "velocity": 0.3228346456692913,
                    "duration": 0.9166666666666572
                }
            ],
            "controlChanges": {
                "10": [
                    {
                        "number": 10,
                        "time": 0,
                        "value": 1
                    }
                ]
            },
            "id": 6,
            "name": "Violoncello",
            "instrumentNumber": 42,
            "instrument": "cello",
            "instrumentFamily": "strings",
            "channelNumber": 1,
            "isPercussion": false
        },
        {
            "startTime": 138,
            "duration": 228.00000000000173,
            "length": 400,
            "notes": [
                {
                    "name": "C5",
                    "midi": 72,
                    "time": 138,
                    "velocity": 0.952755905511811,
                    "duration": 0.4166666666666572
                },
                {
                    "name": "C5",
                    "midi": 72,
                    "time": 138.5,
                    "velocity": 0.952755905511811,
                    "duration": 0.125
                },
                {
                    "name": "B4",
                    "midi": 71,
                    "time": 138.625,
                    "velocity": 0.952755905511811,
                    "duration": 0.08333333333334281
                },
                {
                    "name": "C5",
                    "midi": 72,
                    "time": 138.70833333333334,
                    "velocity": 0.952755905511811,
                    "duration": 0.08333333333334281
                },
                {
                    "name": "B4",
                    "midi": 71,
                    "time": 138.79166666666669,
                    "velocity": 0.952755905511811,
                    "duration": 0.08333333333334281
                },
                {
                    "name": "C5",
                    "midi": 72,
                    "time": 138.87500000000003,
                    "velocity": 0.952755905511811,
                    "duration": 0.08333333333334281
                },
                {
                    "name": "B4",
                    "midi": 71,
                    "time": 138.95833333333337,
                    "velocity": 0.952755905511811,
                    "duration": 0.08333333333334281
                },
                {
                    "name": "C5",
                    "midi": 72,
                    "time": 139.0416666666667,
                    "velocity": 0.952755905511811,
                    "duration": 0.08333333333334281
                },
                {
                    "name": "B4",
                    "midi": 71,
                    "time": 139.12500000000006,
                    "velocity": 0.952755905511811,
                    "duration": 0.125
                },
                {
                    "name": "A4",
                    "midi": 69,
                    "time": 139.25000000000006,
                    "velocity": 0.952755905511811,
                    "duration": 0.25
                },
                {
                    "name": "B4",
                    "midi": 71,
                    "time": 139.50000000000006,
                    "velocity": 0.952755905511811,
                    "duration": 0.25
                },
                {
                    "name": "C5",
                    "midi": 72,
                    "time": 139.75000000000006,
                    "velocity": 0.952755905511811,
                    "duration": 0.25
                },
                {
                    "name": "B4",
                    "midi": 71,
                    "time": 140.00000000000006,
                    "velocity": 0.952755905511811,
                    "duration": 0.08333333333334281
                },
                {
                    "name": "A4",
                    "midi": 69,
                    "time": 140.0833333333334,
                    "velocity": 0.952755905511811,
                    "duration": 0.08333333333334281
                },
                {
                    "name": "B4",
                    "midi": 71,
                    "time": 140.16666666666674,
                    "velocity": 0.952755905511811,
                    "duration": 0.08333333333334281
                },
                {
                    "name": "A4",
                    "midi": 69,
                    "time": 140.25000000000009,
                    "velocity": 0.952755905511811,
                    "duration": 0.08333333333334281
                },
                {
                    "name": "B4",
                    "midi": 71,
                    "time": 140.33333333333343,
                    "velocity": 0.952755905511811,
                    "duration": 0.08333333333334281
                },
                {
                    "name": "A4",
                    "midi": 69,
                    "time": 140.41666666666677,
                    "velocity": 0.952755905511811,
                    "duration": 0.08333333333334281
                },
                {
                    "name": "G4",
                    "midi": 67,
                    "time": 140.5000000000001,
                    "velocity": 0.952755905511811,
                    "duration": 0.4166666666666572
                },
                {
                    "name": "C5",
                    "midi": 72,
                    "time": 141.0000000000001,
                    "velocity": 0.952755905511811,
                    "duration": 0.4166666666666572
                },
                {
                    "name": "C5",
                    "midi": 72,
                    "time": 141.5000000000001,
                    "velocity": 0.952755905511811,
                    "duration": 0.125
                },
                {
                    "name": "B4",
                    "midi": 71,
                    "time": 141.6250000000001,
                    "velocity": 0.952755905511811,
                    "duration": 0.08333333333334281
                },
                {
                    "name": "C5",
                    "midi": 72,
                    "time": 141.70833333333346,
                    "velocity": 0.952755905511811,
                    "duration": 0.08333333333334281
                },
                {
                    "name": "B4",
                    "midi": 71,
                    "time": 141.7916666666668,
                    "velocity": 0.952755905511811,
                    "duration": 0.08333333333334281
                },
                {
                    "name": "C5",
                    "midi": 72,
                    "time": 141.87500000000014,
                    "velocity": 0.952755905511811,
                    "duration": 0.08333333333334281
                },
                {
                    "name": "C5",
                    "midi": 72,
                    "time": 141.95833333333348,
                    "velocity": 0.952755905511811,
                    "duration": 0.08333333333334281
                },
                {
                    "name": "C5",
                    "midi": 72,
                    "time": 142.04166666666683,
                    "velocity": 0.952755905511811,
                    "duration": 0.08333333333334281
                },
                {
                    "name": "B4",
                    "midi": 71,
                    "time": 142.12500000000017,
                    "velocity": 0.952755905511811,
                    "duration": 0.125
                },
                {
                    "name": "A4",
                    "midi": 69,
                    "time": 142.25000000000017,
                    "velocity": 0.952755905511811,
                    "duration": 0.25
                },
                {
                    "name": "B4",
                    "midi": 71,
                    "time": 142.50000000000017,
                    "velocity": 0.952755905511811,
                    "duration": 0.25
                },
                {
                    "name": "C5",
                    "midi": 72,
                    "time": 142.75000000000017,
                    "velocity": 0.952755905511811,
                    "duration": 0.25
                },
                {
                    "name": "D5",
                    "midi": 74,
                    "time": 143.00000000000017,
                    "velocity": 0.952755905511811,
                    "duration": 0.9166666666666572
                },
                {
                    "name": "G5",
                    "midi": 79,
                    "time": 144.00000000000017,
                    "velocity": 0.952755905511811,
                    "duration": 0.4166666666666572
                },
                {
                    "name": "A5",
                    "midi": 81,
                    "time": 144.50000000000017,
                    "velocity": 0.952755905511811,
                    "duration": 0.125
                },
                {
                    "name": "G5",
                    "midi": 79,
                    "time": 144.62500000000017,
                    "velocity": 0.952755905511811,
                    "duration": 0.08333333333334281
                },
                {
                    "name": "A5",
                    "midi": 81,
                    "time": 144.7083333333335,
                    "velocity": 0.952755905511811,
                    "duration": 0.08333333333334281
                },
                {
                    "name": "G5",
                    "midi": 79,
                    "time": 144.79166666666686,
                    "velocity": 0.952755905511811,
                    "duration": 0.08333333333334281
                },
                {
                    "name": "A5",
                    "midi": 81,
                    "time": 144.8750000000002,
                    "velocity": 0.952755905511811,
                    "duration": 0.08333333333334281
                },
                {
                    "name": "G5",
                    "midi": 79,
                    "time": 144.95833333333354,
                    "velocity": 0.952755905511811,
                    "duration": 0.08333333333334281
                },
                {
                    "name": "A5",
                    "midi": 81,
                    "time": 145.04166666666688,
                    "velocity": 0.952755905511811,
                    "duration": 0.08333333333334281
                },
                {
                    "name": "G5",
                    "midi": 79,
                    "time": 145.12500000000023,
                    "velocity": 0.952755905511811,
                    "duration": 0.125
                },
                {
                    "name": "F#5",
                    "midi": 78,
                    "time": 145.25000000000023,
                    "velocity": 0.952755905511811,
                    "duration": 0.25
                },
                {
                    "name": "G5",
                    "midi": 79,
                    "time": 145.50000000000023,
                    "velocity": 0.952755905511811,
                    "duration": 0.25
                },
                {
                    "name": "A5",
                    "midi": 81,
                    "time": 145.75000000000023,
                    "velocity": 0.952755905511811,
                    "duration": 0.25
                },
                {
                    "name": "B5",
                    "midi": 83,
                    "time": 146.00000000000023,
                    "velocity": 0.952755905511811,
                    "duration": 0.4166666666666572
                },
                {
                    "name": "A5",
                    "midi": 81,
                    "time": 146.50000000000023,
                    "velocity": 0.952755905511811,
                    "duration": 0.4166666666666572
                },
                {
                    "name": "C6",
                    "midi": 84,
                    "time": 147.00000000000023,
                    "velocity": 0.952755905511811,
                    "duration": 0.4166666666666572
                },
                {
                    "name": "C6",
                    "midi": 84,
                    "time": 147.50000000000023,
                    "velocity": 0.952755905511811,
                    "duration": 0.125
                },
                {
                    "name": "B5",
                    "midi": 83,
                    "time": 147.62500000000023,
                    "velocity": 0.952755905511811,
                    "duration": 0.08333333333334281
                },
                {
                    "name": "C6",
                    "midi": 84,
                    "time": 147.70833333333357,
                    "velocity": 0.952755905511811,
                    "duration": 0.08333333333334281
                },
                {
                    "name": "B5",
                    "midi": 83,
                    "time": 147.7916666666669,
                    "velocity": 0.952755905511811,
                    "duration": 0.08333333333334281
                },
                {
                    "name": "C6",
                    "midi": 84,
                    "time": 147.87500000000026,
                    "velocity": 0.952755905511811,
                    "duration": 0.08333333333334281
                },
                {
                    "name": "B5",
                    "midi": 83,
                    "time": 147.9583333333336,
                    "velocity": 0.952755905511811,
                    "duration": 0.08333333333334281
                },
                {
                    "name": "C6",
                    "midi": 84,
                    "time": 148.04166666666694,
                    "velocity": 0.952755905511811,
                    "duration": 0.08333333333334281
                },
                {
                    "name": "B5",
                    "midi": 83,
                    "time": 148.12500000000028,
                    "velocity": 0.952755905511811,
                    "duration": 0.125
                },
                {
                    "name": "A5",
                    "midi": 81,
                    "time": 148.25000000000028,
                    "velocity": 0.952755905511811,
                    "duration": 0.25
                },
                {
                    "name": "B5",
                    "midi": 83,
                    "time": 148.50000000000028,
                    "velocity": 0.952755905511811,
                    "duration": 0.25
                },
                {
                    "name": "C6",
                    "midi": 84,
                    "time": 148.75000000000028,
                    "velocity": 0.952755905511811,
                    "duration": 0.25
                },
                {
                    "name": "B5",
                    "midi": 83,
                    "time": 149.00000000000028,
                    "velocity": 0.952755905511811,
                    "duration": 0.08333333333334281
                },
                {
                    "name": "A5",
                    "midi": 81,
                    "time": 149.08333333333363,
                    "velocity": 0.952755905511811,
                    "duration": 0.08333333333334281
                },
                {
                    "name": "B5",
                    "midi": 83,
                    "time": 149.16666666666697,
                    "velocity": 0.952755905511811,
                    "duration": 0.08333333333334281
                },
                {
                    "name": "A5",
                    "midi": 81,
                    "time": 149.2500000000003,
                    "velocity": 0.952755905511811,
                    "duration": 0.08333333333334281
                },
                {
                    "name": "B5",
                    "midi": 83,
                    "time": 149.33333333333366,
                    "velocity": 0.952755905511811,
                    "duration": 0.08333333333334281
                },
                {
                    "name": "A5",
                    "midi": 81,
                    "time": 149.416666666667,
                    "velocity": 0.952755905511811,
                    "duration": 0.08333333333334281
                },
                {
                    "name": "B5",
                    "midi": 83,
                    "time": 149.50000000000034,
                    "velocity": 0.952755905511811,
                    "duration": 0.08333333333334281
                },
                {
                    "name": "A5",
                    "midi": 81,
                    "time": 149.58333333333368,
                    "velocity": 0.952755905511811,
                    "duration": 0.08333333333334281
                },
                {
                    "name": "B5",
                    "midi": 83,
                    "time": 149.66666666666703,
                    "velocity": 0.952755905511811,
                    "duration": 0.08333333333334281
                },
                {
                    "name": "A5",
                    "midi": 81,
                    "time": 149.75000000000037,
                    "velocity": 0.952755905511811,
                    "duration": 0.08333333333334281
                },
                {
                    "name": "B5",
                    "midi": 83,
                    "time": 149.8333333333337,
                    "velocity": 0.952755905511811,
                    "duration": 0.08333333333334281
                },
                {
                    "name": "A5",
                    "midi": 81,
                    "time": 149.91666666666706,
                    "velocity": 0.952755905511811,
                    "duration": 0.08333333333334281
                },
                {
                    "name": "D6",
                    "midi": 86,
                    "time": 150.0000000000004,
                    "velocity": 0.952755905511811,
                    "duration": 0.4166666666666572
                },
                {
                    "name": "B5",
                    "midi": 83,
                    "time": 150.5000000000004,
                    "velocity": 0.952755905511811,
                    "duration": 0.4166666666666572
                },
                {
                    "name": "A5",
                    "midi": 81,
                    "time": 151.0000000000004,
                    "velocity": 0.952755905511811,
                    "duration": 0.2083333333333428
                },
                {
                    "name": "B5",
                    "midi": 83,
                    "time": 151.2500000000004,
                    "velocity": 0.952755905511811,
                    "duration": 0.2083333333333428
                },
                {
                    "name": "C6",
                    "midi": 84,
                    "time": 151.5000000000004,
                    "velocity": 0.952755905511811,
                    "duration": 0.2083333333333428
                },
                {
                    "name": "D6",
                    "midi": 86,
                    "time": 151.7500000000004,
                    "velocity": 0.952755905511811,
                    "duration": 0.2083333333333428
                },
                {
                    "name": "F#5",
                    "midi": 78,
                    "time": 152.0000000000004,
                    "velocity": 0.952755905511811,
                    "duration": 0.4166666666666572
                },
                {
                    "name": "D5",
                    "midi": 74,
                    "time": 152.5000000000004,
                    "velocity": 0.952755905511811,
                    "duration": 0.4166666666666572
                },
                {
                    "name": "D6",
                    "midi": 86,
                    "time": 153.0000000000004,
                    "velocity": 0.952755905511811,
                    "duration": 0.4166666666666572
                },
                {
                    "name": "C6",
                    "midi": 84,
                    "time": 153.5000000000004,
                    "velocity": 0.952755905511811,
                    "duration": 0.08333333333334281
                },
                {
                    "name": "B5",
                    "midi": 83,
                    "time": 153.58333333333374,
                    "velocity": 0.952755905511811,
                    "duration": 0.08333333333334281
                },
                {
                    "name": "C6",
                    "midi": 84,
                    "time": 153.66666666666708,
                    "velocity": 0.952755905511811,
                    "duration": 0.08333333333334281
                },
                {
                    "name": "B5",
                    "midi": 83,
                    "time": 153.75000000000043,
                    "velocity": 0.952755905511811,
                    "duration": 0.08333333333334281
                },
                {
                    "name": "C6",
                    "midi": 84,
                    "time": 153.83333333333377,
                    "velocity": 0.952755905511811,
                    "duration": 0.08333333333334281
                },
                {
                    "name": "B5",
                    "midi": 83,
                    "time": 153.9166666666671,
                    "velocity": 0.952755905511811,
                    "duration": 0.08333333333334281
                },
                {
                    "name": "A5",
                    "midi": 81,
                    "time": 154.00000000000045,
                    "velocity": 0.952755905511811,
                    "duration": 0.2083333333333428
                },
                {
                    "name": "B5",
                    "midi": 83,
                    "time": 154.25000000000045,
                    "velocity": 0.952755905511811,
                    "duration": 0.2083333333333428
                },
                {
                    "name": "C6",
                    "midi": 84,
                    "time": 154.50000000000045,
                    "velocity": 0.952755905511811,
                    "duration": 0.2083333333333428
                },
                {
                    "name": "D6",
                    "midi": 86,
                    "time": 154.75000000000045,
                    "velocity": 0.952755905511811,
                    "duration": 0.2083333333333428
                },
                {
                    "name": "G5",
                    "midi": 79,
                    "time": 155.00000000000045,
                    "velocity": 0.952755905511811,
                    "duration": 0.08333333333334281
                },
                {
                    "name": "F#5",
                    "midi": 78,
                    "time": 155.0833333333338,
                    "velocity": 0.952755905511811,
                    "duration": 0.08333333333334281
                },
                {
                    "name": "G5",
                    "midi": 79,
                    "time": 155.16666666666714,
                    "velocity": 0.952755905511811,
                    "duration": 0.08333333333334281
                },
                {
                    "name": "F#5",
                    "midi": 78,
                    "time": 155.25000000000048,
                    "velocity": 0.952755905511811,
                    "duration": 0.08333333333334281
                },
                {
                    "name": "G5",
                    "midi": 79,
                    "time": 155.33333333333383,
                    "velocity": 0.952755905511811,
                    "duration": 0.08333333333334281
                },
                {
                    "name": "F#5",
                    "midi": 78,
                    "time": 155.41666666666717,
                    "velocity": 0.952755905511811,
                    "duration": 0.08333333333334281
                },
                {
                    "name": "D5",
                    "midi": 74,
                    "time": 155.5000000000005,
                    "velocity": 0.952755905511811,
                    "duration": 0.4166666666666572
                },
                {
                    "name": "D6",
                    "midi": 86,
                    "time": 156.0000000000005,
                    "velocity": 0.952755905511811,
                    "duration": 0.4166666666666572
                },
                {
                    "name": "B5",
                    "midi": 83,
                    "time": 156.5000000000005,
                    "velocity": 0.952755905511811,
                    "duration": 0.4166666666666572
                },
                {
                    "name": "A5",
                    "midi": 81,
                    "time": 157.0000000000005,
                    "velocity": 0.952755905511811,
                    "duration": 0.2083333333333428
                },
                {
                    "name": "G5",
                    "midi": 79,
                    "time": 157.2500000000005,
                    "velocity": 0.952755905511811,
                    "duration": 0.2083333333333428
                },
                {
                    "name": "A5",
                    "midi": 81,
                    "time": 157.5000000000005,
                    "velocity": 0.952755905511811,
                    "duration": 0.2083333333333428
                },
                {
                    "name": "F#5",
                    "midi": 78,
                    "time": 157.7500000000005,
                    "velocity": 0.952755905511811,
                    "duration": 0.2083333333333428
                },
                {
                    "name": "G5",
                    "midi": 79,
                    "time": 158.0000000000005,
                    "velocity": 0.952755905511811,
                    "duration": 0.9166666666666572
                },
                {
                    "name": "D5",
                    "midi": 74,
                    "time": 159.0000000000005,
                    "velocity": 0.952755905511811,
                    "duration": 0.4166666666666572
                },
                {
                    "name": "C5",
                    "midi": 72,
                    "time": 159.5000000000005,
                    "velocity": 0.952755905511811,
                    "duration": 0.08333333333334281
                },
                {
                    "name": "B4",
                    "midi": 71,
                    "time": 159.58333333333385,
                    "velocity": 0.952755905511811,
                    "duration": 0.08333333333334281
                },
                {
                    "name": "C5",
                    "midi": 72,
                    "time": 159.6666666666672,
                    "velocity": 0.952755905511811,
                    "duration": 0.08333333333334281
                },
                {
                    "name": "B4",
                    "midi": 71,
                    "time": 159.75000000000054,
                    "velocity": 0.952755905511811,
                    "duration": 0.08333333333334281
                },
                {
                    "name": "C5",
                    "midi": 72,
                    "time": 159.83333333333388,
                    "velocity": 0.952755905511811,
                    "duration": 0.08333333333334281
                },
                {
                    "name": "B4",
                    "midi": 71,
                    "time": 159.91666666666723,
                    "velocity": 0.952755905511811,
                    "duration": 0.08333333333334281
                },
                {
                    "name": "A4",
                    "midi": 69,
                    "time": 160.00000000000057,
                    "velocity": 0.952755905511811,
                    "duration": 0.2083333333333428
                },
                {
                    "name": "B4",
                    "midi": 71,
                    "time": 160.25000000000057,
                    "velocity": 0.952755905511811,
                    "duration": 0.2083333333333428
                },
                {
                    "name": "C5",
                    "midi": 72,
                    "time": 160.50000000000057,
                    "velocity": 0.952755905511811,
                    "duration": 0.2083333333333428
                },
                {
                    "name": "D5",
                    "midi": 74,
                    "time": 160.75000000000057,
                    "velocity": 0.952755905511811,
                    "duration": 0.2083333333333428
                },
                {
                    "name": "C5",
                    "midi": 72,
                    "time": 161.00000000000057,
                    "velocity": 0.952755905511811,
                    "duration": 0.08333333333334281
                },
                {
                    "name": "B4",
                    "midi": 71,
                    "time": 161.0833333333339,
                    "velocity": 0.952755905511811,
                    "duration": 0.08333333333334281
                },
                {
                    "name": "C5",
                    "midi": 72,
                    "time": 161.16666666666725,
                    "velocity": 0.952755905511811,
                    "duration": 0.08333333333334281
                },
                {
                    "name": "B4",
                    "midi": 71,
                    "time": 161.2500000000006,
                    "velocity": 0.952755905511811,
                    "duration": 0.08333333333334281
                },
                {
                    "name": "C5",
                    "midi": 72,
                    "time": 161.33333333333394,
                    "velocity": 0.952755905511811,
                    "duration": 0.08333333333334281
                },
                {
                    "name": "B4",
                    "midi": 71,
                    "time": 161.41666666666728,
                    "velocity": 0.952755905511811,
                    "duration": 0.08333333333334281
                },
                {
                    "name": "A4",
                    "midi": 69,
                    "time": 161.50000000000063,
                    "velocity": 0.952755905511811,
                    "duration": 0.4166666666666572
                },
                {
                    "name": "D5",
                    "midi": 74,
                    "time": 162.00000000000063,
                    "velocity": 0.952755905511811,
                    "duration": 0.4166666666666572
                },
                {
                    "name": "C5",
                    "midi": 72,
                    "time": 162.50000000000063,
                    "velocity": 0.952755905511811,
                    "duration": 0.08333333333334281
                },
                {
                    "name": "B4",
                    "midi": 71,
                    "time": 162.58333333333397,
                    "velocity": 0.952755905511811,
                    "duration": 0.08333333333334281
                },
                {
                    "name": "C5",
                    "midi": 72,
                    "time": 162.6666666666673,
                    "velocity": 0.952755905511811,
                    "duration": 0.08333333333334281
                },
                {
                    "name": "B4",
                    "midi": 71,
                    "time": 162.75000000000065,
                    "velocity": 0.952755905511811,
                    "duration": 0.08333333333334281
                },
                {
                    "name": "C5",
                    "midi": 72,
                    "time": 162.833333333334,
                    "velocity": 0.952755905511811,
                    "duration": 0.08333333333334281
                },
                {
                    "name": "B4",
                    "midi": 71,
                    "time": 162.91666666666734,
                    "velocity": 0.952755905511811,
                    "duration": 0.08333333333334281
                },
                {
                    "name": "A4",
                    "midi": 69,
                    "time": 163.00000000000068,
                    "velocity": 0.952755905511811,
                    "duration": 0.2083333333333428
                },
                {
                    "name": "B4",
                    "midi": 71,
                    "time": 163.25000000000068,
                    "velocity": 0.952755905511811,
                    "duration": 0.2083333333333428
                },
                {
                    "name": "C5",
                    "midi": 72,
                    "time": 163.50000000000068,
                    "velocity": 0.952755905511811,
                    "duration": 0.2083333333333428
                },
                {
                    "name": "D5",
                    "midi": 74,
                    "time": 163.75000000000068,
                    "velocity": 0.952755905511811,
                    "duration": 0.2083333333333428
                },
                {
                    "name": "C5",
                    "midi": 72,
                    "time": 164.00000000000068,
                    "velocity": 0.952755905511811,
                    "duration": 0.08333333333334281
                },
                {
                    "name": "B4",
                    "midi": 71,
                    "time": 164.08333333333402,
                    "velocity": 0.952755905511811,
                    "duration": 0.08333333333334281
                },
                {
                    "name": "C5",
                    "midi": 72,
                    "time": 164.16666666666737,
                    "velocity": 0.952755905511811,
                    "duration": 0.08333333333334281
                },
                {
                    "name": "B4",
                    "midi": 71,
                    "time": 164.2500000000007,
                    "velocity": 0.952755905511811,
                    "duration": 0.08333333333334281
                },
                {
                    "name": "C5",
                    "midi": 72,
                    "time": 164.33333333333405,
                    "velocity": 0.952755905511811,
                    "duration": 0.08333333333334281
                },
                {
                    "name": "B4",
                    "midi": 71,
                    "time": 164.4166666666674,
                    "velocity": 0.952755905511811,
                    "duration": 0.08333333333334281
                },
                {
                    "name": "A4",
                    "midi": 69,
                    "time": 164.50000000000074,
                    "velocity": 0.952755905511811,
                    "duration": 0.4166666666666572
                },
                {
                    "name": "D5",
                    "midi": 74,
                    "time": 165.00000000000074,
                    "velocity": 0.952755905511811,
                    "duration": 0.4166666666666572
                },
                {
                    "name": "E5",
                    "midi": 76,
                    "time": 165.50000000000074,
                    "velocity": 0.952755905511811,
                    "duration": 0.2083333333333428
                },
                {
                    "name": "F#5",
                    "midi": 78,
                    "time": 165.75000000000074,
                    "velocity": 0.952755905511811,
                    "duration": 0.2083333333333428
                },
                {
                    "name": "G5",
                    "midi": 79,
                    "time": 166.00000000000074,
                    "velocity": 0.952755905511811,
                    "duration": 0.9166666666666572
                },
                {
                    "name": "D5",
                    "midi": 74,
                    "time": 167.00000000000074,
                    "velocity": 0.952755905511811,
                    "duration": 0.2083333333333428
                },
                {
                    "name": "F#5",
                    "midi": 78,
                    "time": 167.25000000000074,
                    "velocity": 0.952755905511811,
                    "duration": 0.2083333333333428
                },
                {
                    "name": "G5",
                    "midi": 79,
                    "time": 167.50000000000074,
                    "velocity": 0.952755905511811,
                    "duration": 0.9166666666666572
                },
                {
                    "name": "C5",
                    "midi": 72,
                    "time": 168.50000000000074,
                    "velocity": 0.952755905511811,
                    "duration": 0.1666666666666572
                },
                {
                    "name": "B4",
                    "midi": 71,
                    "time": 168.6666666666674,
                    "velocity": 0.952755905511811,
                    "duration": 0.1666666666666572
                },
                {
                    "name": "A4",
                    "midi": 69,
                    "time": 168.83333333333405,
                    "velocity": 0.952755905511811,
                    "duration": 0.1458333333333428
                },
                {
                    "name": "C5",
                    "midi": 72,
                    "time": 169.00000000000074,
                    "velocity": 0.952755905511811,
                    "duration": 0.08333333333334281
                },
                {
                    "name": "B4",
                    "midi": 71,
                    "time": 169.08333333333408,
                    "velocity": 0.952755905511811,
                    "duration": 0.08333333333334281
                },
                {
                    "name": "C5",
                    "midi": 72,
                    "time": 169.16666666666742,
                    "velocity": 0.952755905511811,
                    "duration": 0.08333333333334281
                },
                {
                    "name": "B4",
                    "midi": 71,
                    "time": 169.25000000000077,
                    "velocity": 0.952755905511811,
                    "duration": 0.08333333333334281
                },
                {
                    "name": "C5",
                    "midi": 72,
                    "time": 169.3333333333341,
                    "velocity": 0.952755905511811,
                    "duration": 0.08333333333334281
                },
                {
                    "name": "B4",
                    "midi": 71,
                    "time": 169.41666666666745,
                    "velocity": 0.952755905511811,
                    "duration": 0.08333333333334281
                },
                {
                    "name": "A4",
                    "midi": 69,
                    "time": 169.5000000000008,
                    "velocity": 0.952755905511811,
                    "duration": 0.4166666666666572
                },
                {
                    "name": "G4",
                    "midi": 67,
                    "time": 170.0000000000008,
                    "velocity": 0.952755905511811,
                    "duration": 0.9166666666666572
                },
                {
                    "name": "C5",
                    "midi": 72,
                    "time": 171.0000000000008,
                    "velocity": 0.952755905511811,
                    "duration": 0.4166666666666572
                },
                {
                    "name": "C5",
                    "midi": 72,
                    "time": 171.5000000000008,
                    "velocity": 0.952755905511811,
                    "duration": 0.125
                },
                {
                    "name": "B4",
                    "midi": 71,
                    "time": 171.6250000000008,
                    "velocity": 0.952755905511811,
                    "duration": 0.08333333333334281
                },
                {
                    "name": "C5",
                    "midi": 72,
                    "time": 171.70833333333414,
                    "velocity": 0.952755905511811,
                    "duration": 0.08333333333334281
                },
                {
                    "name": "B4",
                    "midi": 71,
                    "time": 171.79166666666748,
                    "velocity": 0.952755905511811,
                    "duration": 0.08333333333334281
                },
                {
                    "name": "C5",
                    "midi": 72,
                    "time": 171.87500000000082,
                    "velocity": 0.952755905511811,
                    "duration": 0.08333333333334281
                },
                {
                    "name": "B4",
                    "midi": 71,
                    "time": 171.95833333333417,
                    "velocity": 0.952755905511811,
                    "duration": 0.08333333333334281
                },
                {
                    "name": "C5",
                    "midi": 72,
                    "time": 172.0416666666675,
                    "velocity": 0.952755905511811,
                    "duration": 0.08333333333334281
                },
                {
                    "name": "B4",
                    "midi": 71,
                    "time": 172.12500000000085,
                    "velocity": 0.952755905511811,
                    "duration": 0.125
                },
                {
                    "name": "A4",
                    "midi": 69,
                    "time": 172.25000000000085,
                    "velocity": 0.952755905511811,
                    "duration": 0.25
                },
                {
                    "name": "B4",
                    "midi": 71,
                    "time": 172.50000000000085,
                    "velocity": 0.952755905511811,
                    "duration": 0.25
                },
                {
                    "name": "C5",
                    "midi": 72,
                    "time": 172.75000000000085,
                    "velocity": 0.952755905511811,
                    "duration": 0.25
                },
                {
                    "name": "G4",
                    "midi": 67,
                    "time": 173.00000000000085,
                    "velocity": 0.952755905511811,
                    "duration": 0.4166666666666572
                },
                {
                    "name": "G4",
                    "midi": 67,
                    "time": 173.50000000000085,
                    "velocity": 0.952755905511811,
                    "duration": 0.4166666666666572
                },
                {
                    "name": "F5",
                    "midi": 77,
                    "time": 174.00000000000085,
                    "velocity": 0.952755905511811,
                    "duration": 0.4166666666666572
                },
                {
                    "name": "F5",
                    "midi": 77,
                    "time": 174.50000000000085,
                    "velocity": 0.952755905511811,
                    "duration": 0.125
                },
                {
                    "name": "E5",
                    "midi": 76,
                    "time": 174.62500000000085,
                    "velocity": 0.952755905511811,
                    "duration": 0.08333333333334281
                },
                {
                    "name": "F5",
                    "midi": 77,
                    "time": 174.7083333333342,
                    "velocity": 0.952755905511811,
                    "duration": 0.08333333333334281
                },
                {
                    "name": "E5",
                    "midi": 76,
                    "time": 174.79166666666754,
                    "velocity": 0.952755905511811,
                    "duration": 0.08333333333334281
                },
                {
                    "name": "F5",
                    "midi": 77,
                    "time": 174.87500000000088,
                    "velocity": 0.952755905511811,
                    "duration": 0.08333333333334281
                },
                {
                    "name": "E5",
                    "midi": 76,
                    "time": 174.95833333333422,
                    "velocity": 0.952755905511811,
                    "duration": 0.08333333333334281
                },
                {
                    "name": "F5",
                    "midi": 77,
                    "time": 175.04166666666757,
                    "velocity": 0.952755905511811,
                    "duration": 0.08333333333334281
                },
                {
                    "name": "E5",
                    "midi": 76,
                    "time": 175.1250000000009,
                    "velocity": 0.952755905511811,
                    "duration": 0.125
                },
                {
                    "name": "D5",
                    "midi": 74,
                    "time": 175.2500000000009,
                    "velocity": 0.952755905511811,
                    "duration": 0.25
                },
                {
                    "name": "E5",
                    "midi": 76,
                    "time": 175.5000000000009,
                    "velocity": 0.952755905511811,
                    "duration": 0.25
                },
                {
                    "name": "F5",
                    "midi": 77,
                    "time": 175.7500000000009,
                    "velocity": 0.952755905511811,
                    "duration": 0.25
                },
                {
                    "name": "G5",
                    "midi": 79,
                    "time": 176.0000000000009,
                    "velocity": 0.952755905511811,
                    "duration": 1.4166666666666572
                },
                {
                    "name": "C6",
                    "midi": 84,
                    "time": 177.5000000000009,
                    "velocity": 0.952755905511811,
                    "duration": 0.2083333333333428
                },
                {
                    "name": "F5",
                    "midi": 77,
                    "time": 177.7500000000009,
                    "velocity": 0.952755905511811,
                    "duration": 0.25
                },
                {
                    "name": "E5",
                    "midi": 76,
                    "time": 178.0000000000009,
                    "velocity": 0.952755905511811,
                    "duration": 0.08333333333334281
                },
                {
                    "name": "F5",
                    "midi": 77,
                    "time": 178.08333333333425,
                    "velocity": 0.952755905511811,
                    "duration": 0.08333333333334281
                },
                {
                    "name": "E5",
                    "midi": 76,
                    "time": 178.1666666666676,
                    "velocity": 0.952755905511811,
                    "duration": 0.08333333333334281
                },
                {
                    "name": "D5",
                    "midi": 74,
                    "time": 178.25000000000094,
                    "velocity": 0.952755905511811,
                    "duration": 0.2083333333333428
                },
                {
                    "name": "E5",
                    "midi": 76,
                    "time": 178.50000000000094,
                    "velocity": 0.952755905511811,
                    "duration": 0.4166666666666572
                },
                {
                    "name": "C6",
                    "midi": 84,
                    "time": 179.00000000000094,
                    "velocity": 0.952755905511811,
                    "duration": 0.2083333333333428
                },
                {
                    "name": "F5",
                    "midi": 77,
                    "time": 179.25000000000094,
                    "velocity": 0.952755905511811,
                    "duration": 0.25
                },
                {
                    "name": "E5",
                    "midi": 76,
                    "time": 179.50000000000094,
                    "velocity": 0.952755905511811,
                    "duration": 0.08333333333334281
                },
                {
                    "name": "F5",
                    "midi": 77,
                    "time": 179.58333333333428,
                    "velocity": 0.952755905511811,
                    "duration": 0.08333333333334281
                },
                {
                    "name": "E5",
                    "midi": 76,
                    "time": 179.66666666666762,
                    "velocity": 0.952755905511811,
                    "duration": 0.08333333333334281
                },
                {
                    "name": "D5",
                    "midi": 74,
                    "time": 179.75000000000097,
                    "velocity": 0.952755905511811,
                    "duration": 0.2083333333333428
                },
                {
                    "name": "E5",
                    "midi": 76,
                    "time": 180.00000000000097,
                    "velocity": 0.952755905511811,
                    "duration": 0.4166666666666572
                },
                {
                    "name": "A5",
                    "midi": 81,
                    "time": 180.50000000000097,
                    "velocity": 0.952755905511811,
                    "duration": 0.2083333333333428
                },
                {
                    "name": "G5",
                    "midi": 79,
                    "time": 180.75000000000097,
                    "velocity": 0.952755905511811,
                    "duration": 0.2083333333333428
                },
                {
                    "name": "F5",
                    "midi": 77,
                    "time": 181.00000000000097,
                    "velocity": 0.952755905511811,
                    "duration": 0.2083333333333428
                },
                {
                    "name": "E5",
                    "midi": 76,
                    "time": 181.25000000000097,
                    "velocity": 0.952755905511811,
                    "duration": 0.2083333333333428
                },
                {
                    "name": "D5",
                    "midi": 74,
                    "time": 181.50000000000097,
                    "velocity": 0.952755905511811,
                    "duration": 0.2083333333333428
                },
                {
                    "name": "C5",
                    "midi": 72,
                    "time": 181.75000000000097,
                    "velocity": 0.952755905511811,
                    "duration": 0.2083333333333428
                },
                {
                    "name": "C5",
                    "midi": 72,
                    "time": 182.00000000000097,
                    "velocity": 0.952755905511811,
                    "duration": 0.08333333333334281
                },
                {
                    "name": "B4",
                    "midi": 71,
                    "time": 182.0833333333343,
                    "velocity": 0.952755905511811,
                    "duration": 0.08333333333334281
                },
                {
                    "name": "C5",
                    "midi": 72,
                    "time": 182.16666666666765,
                    "velocity": 0.952755905511811,
                    "duration": 0.08333333333334281
                },
                {
                    "name": "B4",
                    "midi": 71,
                    "time": 182.250000000001,
                    "velocity": 0.952755905511811,
                    "duration": 0.08333333333334281
                },
                {
                    "name": "C5",
                    "midi": 72,
                    "time": 182.33333333333434,
                    "velocity": 0.952755905511811,
                    "duration": 0.08333333333334281
                },
                {
                    "name": "B4",
                    "midi": 71,
                    "time": 182.41666666666768,
                    "velocity": 0.952755905511811,
                    "duration": 0.08333333333334281
                },
                {
                    "name": "A4",
                    "midi": 69,
                    "time": 182.50000000000102,
                    "velocity": 0.952755905511811,
                    "duration": 0.25
                },
                {
                    "name": "G4",
                    "midi": 67,
                    "time": 182.75000000000102,
                    "velocity": 0.952755905511811,
                    "duration": 0.2083333333333428
                },
                {
                    "name": "C5",
                    "midi": 72,
                    "time": 183.00000000000102,
                    "velocity": 0.952755905511811,
                    "duration": 0.4166666666666572
                },
                {
                    "name": "C5",
                    "midi": 72,
                    "time": 183.50000000000102,
                    "velocity": 0.952755905511811,
                    "duration": 0.125
                },
                {
                    "name": "B4",
                    "midi": 71,
                    "time": 183.62500000000102,
                    "velocity": 0.952755905511811,
                    "duration": 0.08333333333334281
                },
                {
                    "name": "C5",
                    "midi": 72,
                    "time": 183.70833333333437,
                    "velocity": 0.952755905511811,
                    "duration": 0.08333333333334281
                },
                {
                    "name": "B4",
                    "midi": 71,
                    "time": 183.7916666666677,
                    "velocity": 0.952755905511811,
                    "duration": 0.08333333333334281
                },
                {
                    "name": "C5",
                    "midi": 72,
                    "time": 183.87500000000105,
                    "velocity": 0.952755905511811,
                    "duration": 0.08333333333334281
                },
                {
                    "name": "B4",
                    "midi": 71,
                    "time": 183.9583333333344,
                    "velocity": 0.952755905511811,
                    "duration": 0.08333333333334281
                },
                {
                    "name": "C5",
                    "midi": 72,
                    "time": 184.04166666666774,
                    "velocity": 0.952755905511811,
                    "duration": 0.08333333333334281
                },
                {
                    "name": "B4",
                    "midi": 71,
                    "time": 184.12500000000108,
                    "velocity": 0.952755905511811,
                    "duration": 0.125
                },
                {
                    "name": "A4",
                    "midi": 69,
                    "time": 184.25000000000108,
                    "velocity": 0.952755905511811,
                    "duration": 0.2083333333333428
                },
                {
                    "name": "B4",
                    "midi": 71,
                    "time": 184.50000000000108,
                    "velocity": 0.952755905511811,
                    "duration": 0.2083333333333428
                },
                {
                    "name": "C5",
                    "midi": 72,
                    "time": 184.75000000000108,
                    "velocity": 0.952755905511811,
                    "duration": 0.2083333333333428
                },
                {
                    "name": "G4",
                    "midi": 67,
                    "time": 185.00000000000108,
                    "velocity": 0.952755905511811,
                    "duration": 0.4166666666666572
                },
                {
                    "name": "G4",
                    "midi": 67,
                    "time": 185.50000000000108,
                    "velocity": 0.952755905511811,
                    "duration": 0.4166666666666572
                },
                {
                    "name": "F5",
                    "midi": 77,
                    "time": 186.00000000000108,
                    "velocity": 0.952755905511811,
                    "duration": 0.4166666666666572
                },
                {
                    "name": "F5",
                    "midi": 77,
                    "time": 186.50000000000108,
                    "velocity": 0.952755905511811,
                    "duration": 0.125
                },
                {
                    "name": "E5",
                    "midi": 76,
                    "time": 186.62500000000108,
                    "velocity": 0.952755905511811,
                    "duration": 0.08333333333334281
                },
                {
                    "name": "F5",
                    "midi": 77,
                    "time": 186.70833333333442,
                    "velocity": 0.952755905511811,
                    "duration": 0.08333333333334281
                },
                {
                    "name": "E5",
                    "midi": 76,
                    "time": 186.79166666666777,
                    "velocity": 0.952755905511811,
                    "duration": 0.08333333333334281
                },
                {
                    "name": "F5",
                    "midi": 77,
                    "time": 186.8750000000011,
                    "velocity": 0.952755905511811,
                    "duration": 0.08333333333334281
                },
                {
                    "name": "E5",
                    "midi": 76,
                    "time": 186.95833333333445,
                    "velocity": 0.952755905511811,
                    "duration": 0.08333333333334281
                },
                {
                    "name": "F5",
                    "midi": 77,
                    "time": 187.0416666666678,
                    "velocity": 0.952755905511811,
                    "duration": 0.08333333333334281
                },
                {
                    "name": "E5",
                    "midi": 76,
                    "time": 187.12500000000114,
                    "velocity": 0.952755905511811,
                    "duration": 0.125
                },
                {
                    "name": "D5",
                    "midi": 74,
                    "time": 187.25000000000114,
                    "velocity": 0.952755905511811,
                    "duration": 0.2083333333333428
                },
                {
                    "name": "E5",
                    "midi": 76,
                    "time": 187.50000000000114,
                    "velocity": 0.952755905511811,
                    "duration": 0.2083333333333428
                },
                {
                    "name": "F5",
                    "midi": 77,
                    "time": 187.75000000000114,
                    "velocity": 0.952755905511811,
                    "duration": 0.2083333333333428
                },
                {
                    "name": "G5",
                    "midi": 79,
                    "time": 188.00000000000114,
                    "velocity": 0.952755905511811,
                    "duration": 1.4166666666666572
                },
                {
                    "name": "C6",
                    "midi": 84,
                    "time": 189.50000000000114,
                    "velocity": 0.952755905511811,
                    "duration": 0.2083333333333428
                },
                {
                    "name": "F5",
                    "midi": 77,
                    "time": 189.75000000000114,
                    "velocity": 0.952755905511811,
                    "duration": 0.25
                },
                {
                    "name": "E5",
                    "midi": 76,
                    "time": 190.00000000000114,
                    "velocity": 0.952755905511811,
                    "duration": 0.08333333333334281
                },
                {
                    "name": "F5",
                    "midi": 77,
                    "time": 190.08333333333448,
                    "velocity": 0.952755905511811,
                    "duration": 0.08333333333334281
                },
                {
                    "name": "E5",
                    "midi": 76,
                    "time": 190.16666666666782,
                    "velocity": 0.952755905511811,
                    "duration": 0.08333333333334281
                },
                {
                    "name": "D5",
                    "midi": 74,
                    "time": 190.25000000000117,
                    "velocity": 0.952755905511811,
                    "duration": 0.2083333333333428
                },
                {
                    "name": "E5",
                    "midi": 76,
                    "time": 190.50000000000117,
                    "velocity": 0.952755905511811,
                    "duration": 0.4166666666666572
                },
                {
                    "name": "A5",
                    "midi": 81,
                    "time": 191.00000000000117,
                    "velocity": 0.952755905511811,
                    "duration": 0.2083333333333428
                },
                {
                    "name": "G5",
                    "midi": 79,
                    "time": 191.25000000000117,
                    "velocity": 0.952755905511811,
                    "duration": 0.2083333333333428
                },
                {
                    "name": "F5",
                    "midi": 77,
                    "time": 191.50000000000117,
                    "velocity": 0.952755905511811,
                    "duration": 0.2083333333333428
                },
                {
                    "name": "E5",
                    "midi": 76,
                    "time": 191.75000000000117,
                    "velocity": 0.952755905511811,
                    "duration": 0.2083333333333428
                },
                {
                    "name": "D5",
                    "midi": 74,
                    "time": 192.00000000000117,
                    "velocity": 0.952755905511811,
                    "duration": 0.2083333333333428
                },
                {
                    "name": "C5",
                    "midi": 72,
                    "time": 192.25000000000117,
                    "velocity": 0.952755905511811,
                    "duration": 0.2083333333333428
                },
                {
                    "name": "E5",
                    "midi": 76,
                    "time": 192.50000000000117,
                    "velocity": 0.952755905511811,
                    "duration": 0.1666666666666572
                },
                {
                    "name": "D5",
                    "midi": 74,
                    "time": 192.66666666666782,
                    "velocity": 0.952755905511811,
                    "duration": 0.1666666666666572
                },
                {
                    "name": "C5",
                    "midi": 72,
                    "time": 192.83333333333448,
                    "velocity": 0.952755905511811,
                    "duration": 0.1458333333333428
                },
                {
                    "name": "D5",
                    "midi": 74,
                    "time": 193.00000000000117,
                    "velocity": 0.952755905511811,
                    "duration": 0.4166666666666572
                },
                {
                    "name": "C5",
                    "midi": 72,
                    "time": 193.50000000000117,
                    "velocity": 0.952755905511811,
                    "duration": 0.08333333333334281
                },
                {
                    "name": "B4",
                    "midi": 71,
                    "time": 193.5833333333345,
                    "velocity": 0.952755905511811,
                    "duration": 0.08333333333334281
                },
                {
                    "name": "C5",
                    "midi": 72,
                    "time": 193.66666666666785,
                    "velocity": 0.952755905511811,
                    "duration": 0.08333333333334281
                },
                {
                    "name": "B4",
                    "midi": 71,
                    "time": 193.7500000000012,
                    "velocity": 0.952755905511811,
                    "duration": 0.08333333333334281
                },
                {
                    "name": "C5",
                    "midi": 72,
                    "time": 193.83333333333454,
                    "velocity": 0.952755905511811,
                    "duration": 0.08333333333334281
                },
                {
                    "name": "B4",
                    "midi": 71,
                    "time": 193.91666666666788,
                    "velocity": 0.952755905511811,
                    "duration": 0.08333333333334281
                },
                {
                    "name": "C5",
                    "midi": 72,
                    "time": 194.00000000000122,
                    "velocity": 0.952755905511811,
                    "duration": 0.9166666666666572
                },
                {
                    "name": "C6",
                    "midi": 84,
                    "time": 195.00000000000122,
                    "velocity": 0.952755905511811,
                    "duration": 0.4166666666666572
                },
                {
                    "name": "C6",
                    "midi": 84,
                    "time": 195.50000000000122,
                    "velocity": 0.952755905511811,
                    "duration": 0.671875
                },
                {
                    "name": "B5",
                    "midi": 83,
                    "time": 196.25000000000122,
                    "velocity": 0.952755905511811,
                    "duration": 0.2083333333333428
                },
                {
                    "name": "A5",
                    "midi": 81,
                    "time": 196.50000000000122,
                    "velocity": 0.952755905511811,
                    "duration": 0.2083333333333428
                },
                {
                    "name": "G5",
                    "midi": 79,
                    "time": 196.75000000000122,
                    "velocity": 0.952755905511811,
                    "duration": 0.2083333333333428
                },
                {
                    "name": "A5",
                    "midi": 81,
                    "time": 197.00000000000122,
                    "velocity": 0.952755905511811,
                    "duration": 0.4166666666666572
                },
                {
                    "name": "G5",
                    "midi": 79,
                    "time": 197.50000000000122,
                    "velocity": 0.952755905511811,
                    "duration": 0.4166666666666572
                },
                {
                    "name": "F5",
                    "midi": 77,
                    "time": 198.00000000000122,
                    "velocity": 0.952755905511811,
                    "duration": 0.4166666666666572
                },
                {
                    "name": "F5",
                    "midi": 77,
                    "time": 198.50000000000122,
                    "velocity": 0.952755905511811,
                    "duration": 0.125
                },
                {
                    "name": "E5",
                    "midi": 76,
                    "time": 198.62500000000122,
                    "velocity": 0.952755905511811,
                    "duration": 0.08333333333334281
                },
                {
                    "name": "F5",
                    "midi": 77,
                    "time": 198.70833333333456,
                    "velocity": 0.952755905511811,
                    "duration": 0.08333333333334281
                },
                {
                    "name": "E5",
                    "midi": 76,
                    "time": 198.7916666666679,
                    "velocity": 0.952755905511811,
                    "duration": 0.08333333333334281
                },
                {
                    "name": "F5",
                    "midi": 77,
                    "time": 198.87500000000125,
                    "velocity": 0.952755905511811,
                    "duration": 0.08333333333334281
                },
                {
                    "name": "E5",
                    "midi": 76,
                    "time": 198.9583333333346,
                    "velocity": 0.952755905511811,
                    "duration": 0.08333333333334281
                },
                {
                    "name": "F5",
                    "midi": 77,
                    "time": 199.04166666666794,
                    "velocity": 0.952755905511811,
                    "duration": 0.08333333333334281
                },
                {
                    "name": "E5",
                    "midi": 76,
                    "time": 199.12500000000128,
                    "velocity": 0.952755905511811,
                    "duration": 0.125
                },
                {
                    "name": "D5",
                    "midi": 74,
                    "time": 199.25000000000128,
                    "velocity": 0.952755905511811,
                    "duration": 0.2083333333333428
                },
                {
                    "name": "C5",
                    "midi": 72,
                    "time": 199.50000000000128,
                    "velocity": 0.952755905511811,
                    "duration": 0.2083333333333428
                },
                {
                    "name": "B4",
                    "midi": 71,
                    "time": 199.75000000000128,
                    "velocity": 0.952755905511811,
                    "duration": 0.2083333333333428
                },
                {
                    "name": "C5",
                    "midi": 72,
                    "time": 200.00000000000128,
                    "velocity": 0.952755905511811,
                    "duration": 0.4166666666666572
                },
                {
                    "name": "G4",
                    "midi": 67,
                    "time": 200.50000000000128,
                    "velocity": 0.952755905511811,
                    "duration": 0.4166666666666572
                },
                {
                    "name": "C6",
                    "midi": 84,
                    "time": 201.00000000000128,
                    "velocity": 0.952755905511811,
                    "duration": 0.4166666666666572
                },
                {
                    "name": "C6",
                    "midi": 84,
                    "time": 201.50000000000128,
                    "velocity": 0.952755905511811,
                    "duration": 0.671875
                },
                {
                    "name": "B5",
                    "midi": 83,
                    "time": 202.25000000000128,
                    "velocity": 0.952755905511811,
                    "duration": 0.2083333333333428
                },
                {
                    "name": "A5",
                    "midi": 81,
                    "time": 202.50000000000128,
                    "velocity": 0.952755905511811,
                    "duration": 0.2083333333333428
                },
                {
                    "name": "G5",
                    "midi": 79,
                    "time": 202.75000000000128,
                    "velocity": 0.952755905511811,
                    "duration": 0.2083333333333428
                },
                {
                    "name": "A5",
                    "midi": 81,
                    "time": 203.00000000000128,
                    "velocity": 0.952755905511811,
                    "duration": 0.4166666666666572
                },
                {
                    "name": "G5",
                    "midi": 79,
                    "time": 203.50000000000128,
                    "velocity": 0.952755905511811,
                    "duration": 0.4166666666666572
                },
                {
                    "name": "F5",
                    "midi": 77,
                    "time": 204.00000000000128,
                    "velocity": 0.952755905511811,
                    "duration": 0.4166666666666572
                },
                {
                    "name": "F5",
                    "midi": 77,
                    "time": 204.50000000000128,
                    "velocity": 0.952755905511811,
                    "duration": 0.125
                },
                {
                    "name": "E5",
                    "midi": 76,
                    "time": 204.62500000000128,
                    "velocity": 0.952755905511811,
                    "duration": 0.08333333333334281
                },
                {
                    "name": "F5",
                    "midi": 77,
                    "time": 204.70833333333462,
                    "velocity": 0.952755905511811,
                    "duration": 0.08333333333334281
                },
                {
                    "name": "E5",
                    "midi": 76,
                    "time": 204.79166666666796,
                    "velocity": 0.952755905511811,
                    "duration": 0.08333333333334281
                },
                {
                    "name": "F5",
                    "midi": 77,
                    "time": 204.8750000000013,
                    "velocity": 0.952755905511811,
                    "duration": 0.08333333333334281
                },
                {
                    "name": "E5",
                    "midi": 76,
                    "time": 204.95833333333465,
                    "velocity": 0.952755905511811,
                    "duration": 0.08333333333334281
                },
                {
                    "name": "F5",
                    "midi": 77,
                    "time": 205.041666666668,
                    "velocity": 0.952755905511811,
                    "duration": 0.08333333333334281
                },
                {
                    "name": "E5",
                    "midi": 76,
                    "time": 205.12500000000134,
                    "velocity": 0.952755905511811,
                    "duration": 0.125
                },
                {
                    "name": "D5",
                    "midi": 74,
                    "time": 205.25000000000134,
                    "velocity": 0.952755905511811,
                    "duration": 0.2083333333333428
                },
                {
                    "name": "E5",
                    "midi": 76,
                    "time": 205.50000000000134,
                    "velocity": 0.952755905511811,
                    "duration": 0.2083333333333428
                },
                {
                    "name": "F5",
                    "midi": 77,
                    "time": 205.75000000000134,
                    "velocity": 0.952755905511811,
                    "duration": 0.2083333333333428
                },
                {
                    "name": "E5",
                    "midi": 76,
                    "time": 206.00000000000134,
                    "velocity": 0.952755905511811,
                    "duration": 0.08333333333334281
                },
                {
                    "name": "D5",
                    "midi": 74,
                    "time": 206.08333333333468,
                    "velocity": 0.952755905511811,
                    "duration": 0.08333333333334281
                },
                {
                    "name": "E5",
                    "midi": 76,
                    "time": 206.16666666666802,
                    "velocity": 0.952755905511811,
                    "duration": 0.08333333333334281
                },
                {
                    "name": "D5",
                    "midi": 74,
                    "time": 206.25000000000136,
                    "velocity": 0.952755905511811,
                    "duration": 0.08333333333334281
                },
                {
                    "name": "E5",
                    "midi": 76,
                    "time": 206.3333333333347,
                    "velocity": 0.952755905511811,
                    "duration": 0.08333333333334281
                },
                {
                    "name": "D5",
                    "midi": 74,
                    "time": 206.41666666666805,
                    "velocity": 0.952755905511811,
                    "duration": 0.08333333333334281
                },
                {
                    "name": "E5",
                    "midi": 76,
                    "time": 206.5000000000014,
                    "velocity": 0.952755905511811,
                    "duration": 0.08333333333334281
                },
                {
                    "name": "D5",
                    "midi": 74,
                    "time": 206.58333333333474,
                    "velocity": 0.952755905511811,
                    "duration": 0.08333333333334281
                },
                {
                    "name": "E5",
                    "midi": 76,
                    "time": 206.66666666666808,
                    "velocity": 0.952755905511811,
                    "duration": 0.08333333333334281
                },
                {
                    "name": "D5",
                    "midi": 74,
                    "time": 206.75000000000142,
                    "velocity": 0.952755905511811,
                    "duration": 0.08333333333334281
                },
                {
                    "name": "E5",
                    "midi": 76,
                    "time": 206.83333333333476,
                    "velocity": 0.952755905511811,
                    "duration": 0.08333333333334281
                },
                {
                    "name": "D5",
                    "midi": 74,
                    "time": 206.9166666666681,
                    "velocity": 0.952755905511811,
                    "duration": 0.08333333333334281
                },
                {
                    "name": "D5",
                    "midi": 74,
                    "time": 207.00000000000145,
                    "velocity": 0.952755905511811,
                    "duration": 0.4166666666666572
                },
                {
                    "name": "D5",
                    "midi": 74,
                    "time": 207.50000000000145,
                    "velocity": 0.952755905511811,
                    "duration": 0.671875
                },
                {
                    "name": "E5",
                    "midi": 76,
                    "time": 208.25000000000145,
                    "velocity": 0.952755905511811,
                    "duration": 0.2083333333333428
                },
                {
                    "name": "D5",
                    "midi": 74,
                    "time": 208.50000000000145,
                    "velocity": 0.952755905511811,
                    "duration": 0.2083333333333428
                },
                {
                    "name": "C5",
                    "midi": 72,
                    "time": 208.75000000000145,
                    "velocity": 0.952755905511811,
                    "duration": 0.2083333333333428
                },
                {
                    "name": "C5",
                    "midi": 72,
                    "time": 209.00000000000145,
                    "velocity": 0.952755905511811,
                    "duration": 0.08333333333334281
                },
                {
                    "name": "B4",
                    "midi": 71,
                    "time": 209.0833333333348,
                    "velocity": 0.952755905511811,
                    "duration": 0.08333333333334281
                },
                {
                    "name": "C5",
                    "midi": 72,
                    "time": 209.16666666666814,
                    "velocity": 0.952755905511811,
                    "duration": 0.08333333333334281
                },
                {
                    "name": "B4",
                    "midi": 71,
                    "time": 209.25000000000148,
                    "velocity": 0.952755905511811,
                    "duration": 0.08333333333334281
                },
                {
                    "name": "C5",
                    "midi": 72,
                    "time": 209.33333333333482,
                    "velocity": 0.952755905511811,
                    "duration": 0.08333333333334281
                },
                {
                    "name": "B4",
                    "midi": 71,
                    "time": 209.41666666666816,
                    "velocity": 0.952755905511811,
                    "duration": 0.08333333333334281
                },
                {
                    "name": "A4",
                    "midi": 69,
                    "time": 209.5000000000015,
                    "velocity": 0.952755905511811,
                    "duration": 0.25
                },
                {
                    "name": "G4",
                    "midi": 67,
                    "time": 209.7500000000015,
                    "velocity": 0.952755905511811,
                    "duration": 0.2083333333333428
                },
                {
                    "name": "D5",
                    "midi": 74,
                    "time": 210.0000000000015,
                    "velocity": 0.952755905511811,
                    "duration": 0.4166666666666572
                },
                {
                    "name": "D5",
                    "midi": 74,
                    "time": 210.5000000000015,
                    "velocity": 0.952755905511811,
                    "duration": 0.671875
                },
                {
                    "name": "E5",
                    "midi": 76,
                    "time": 211.2500000000015,
                    "velocity": 0.952755905511811,
                    "duration": 0.2083333333333428
                },
                {
                    "name": "D5",
                    "midi": 74,
                    "time": 211.5000000000015,
                    "velocity": 0.952755905511811,
                    "duration": 0.2083333333333428
                },
                {
                    "name": "C5",
                    "midi": 72,
                    "time": 211.7500000000015,
                    "velocity": 0.952755905511811,
                    "duration": 0.2083333333333428
                },
                {
                    "name": "C5",
                    "midi": 72,
                    "time": 212.0000000000015,
                    "velocity": 0.952755905511811,
                    "duration": 0.08333333333334281
                },
                {
                    "name": "B4",
                    "midi": 71,
                    "time": 212.08333333333485,
                    "velocity": 0.952755905511811,
                    "duration": 0.08333333333334281
                },
                {
                    "name": "C5",
                    "midi": 72,
                    "time": 212.1666666666682,
                    "velocity": 0.952755905511811,
                    "duration": 0.08333333333334281
                },
                {
                    "name": "B4",
                    "midi": 71,
                    "time": 212.25000000000153,
                    "velocity": 0.952755905511811,
                    "duration": 0.08333333333334281
                },
                {
                    "name": "C5",
                    "midi": 72,
                    "time": 212.33333333333488,
                    "velocity": 0.952755905511811,
                    "duration": 0.08333333333334281
                },
                {
                    "name": "B4",
                    "midi": 71,
                    "time": 212.41666666666822,
                    "velocity": 0.952755905511811,
                    "duration": 0.08333333333334281
                },
                {
                    "name": "G4",
                    "midi": 67,
                    "time": 212.50000000000156,
                    "velocity": 0.952755905511811,
                    "duration": 0.4166666666666572
                },
                {
                    "name": "G5",
                    "midi": 79,
                    "time": 213.00000000000156,
                    "velocity": 0.952755905511811,
                    "duration": 0.4166666666666572
                },
                {
                    "name": "G5",
                    "midi": 79,
                    "time": 213.50000000000156,
                    "velocity": 0.952755905511811,
                    "duration": 0.671875
                },
                {
                    "name": "A5",
                    "midi": 81,
                    "time": 214.25000000000156,
                    "velocity": 0.952755905511811,
                    "duration": 0.2083333333333428
                },
                {
                    "name": "G5",
                    "midi": 79,
                    "time": 214.50000000000156,
                    "velocity": 0.952755905511811,
                    "duration": 0.2083333333333428
                },
                {
                    "name": "A5",
                    "midi": 81,
                    "time": 214.75000000000156,
                    "velocity": 0.952755905511811,
                    "duration": 0.2083333333333428
                },
                {
                    "name": "G5",
                    "midi": 79,
                    "time": 215.00000000000156,
                    "velocity": 0.952755905511811,
                    "duration": 0.671875
                },
                {
                    "name": "A5",
                    "midi": 81,
                    "time": 215.75000000000156,
                    "velocity": 0.952755905511811,
                    "duration": 0.2083333333333428
                },
                {
                    "name": "G5",
                    "midi": 79,
                    "time": 216.00000000000156,
                    "velocity": 0.952755905511811,
                    "duration": 0.2083333333333428
                },
                {
                    "name": "A5",
                    "midi": 81,
                    "time": 216.25000000000156,
                    "velocity": 0.952755905511811,
                    "duration": 0.2083333333333428
                },
                {
                    "name": "G5",
                    "midi": 79,
                    "time": 216.50000000000156,
                    "velocity": 0.952755905511811,
                    "duration": 0.4166666666666572
                },
                {
                    "name": "A5",
                    "midi": 81,
                    "time": 217.00000000000156,
                    "velocity": 0.952755905511811,
                    "duration": 0.2083333333333428
                },
                {
                    "name": "B5",
                    "midi": 83,
                    "time": 217.25000000000156,
                    "velocity": 0.952755905511811,
                    "duration": 0.2083333333333428
                },
                {
                    "name": "C6",
                    "midi": 84,
                    "time": 217.50000000000156,
                    "velocity": 0.952755905511811,
                    "duration": 0.2083333333333428
                },
                {
                    "name": "F5",
                    "midi": 77,
                    "time": 217.75000000000156,
                    "velocity": 0.952755905511811,
                    "duration": 0.2083333333333428
                },
                {
                    "name": "E5",
                    "midi": 76,
                    "time": 218.00000000000156,
                    "velocity": 0.952755905511811,
                    "duration": 0.4166666666666572
                },
                {
                    "name": "A5",
                    "midi": 81,
                    "time": 218.50000000000156,
                    "velocity": 0.952755905511811,
                    "duration": 0.2083333333333428
                },
                {
                    "name": "B5",
                    "midi": 83,
                    "time": 218.75000000000156,
                    "velocity": 0.952755905511811,
                    "duration": 0.2083333333333428
                },
                {
                    "name": "C6",
                    "midi": 84,
                    "time": 219.00000000000156,
                    "velocity": 0.952755905511811,
                    "duration": 0.2083333333333428
                },
                {
                    "name": "E5",
                    "midi": 76,
                    "time": 219.25000000000156,
                    "velocity": 0.952755905511811,
                    "duration": 0.2083333333333428
                },
                {
                    "name": "D5",
                    "midi": 74,
                    "time": 219.50000000000156,
                    "velocity": 0.952755905511811,
                    "duration": 0.4166666666666572
                },
                {
                    "name": "A5",
                    "midi": 81,
                    "time": 220.00000000000156,
                    "velocity": 0.952755905511811,
                    "duration": 0.2083333333333428
                },
                {
                    "name": "B5",
                    "midi": 83,
                    "time": 220.25000000000156,
                    "velocity": 0.952755905511811,
                    "duration": 0.2083333333333428
                },
                {
                    "name": "C6",
                    "midi": 84,
                    "time": 220.50000000000156,
                    "velocity": 0.952755905511811,
                    "duration": 0.2083333333333428
                },
                {
                    "name": "D5",
                    "midi": 74,
                    "time": 220.75000000000156,
                    "velocity": 0.952755905511811,
                    "duration": 0.2083333333333428
                },
                {
                    "name": "C5",
                    "midi": 72,
                    "time": 221.00000000000156,
                    "velocity": 0.952755905511811,
                    "duration": 0.4166666666666572
                },
                {
                    "name": "D5",
                    "midi": 74,
                    "time": 221.50000000000156,
                    "velocity": 0.952755905511811,
                    "duration": 0.2083333333333428
                },
                {
                    "name": "E5",
                    "midi": 76,
                    "time": 221.75000000000156,
                    "velocity": 0.952755905511811,
                    "duration": 0.2083333333333428
                },
                {
                    "name": "D5",
                    "midi": 74,
                    "time": 222.00000000000156,
                    "velocity": 0.952755905511811,
                    "duration": 0.2083333333333428
                },
                {
                    "name": "C5",
                    "midi": 72,
                    "time": 222.25000000000156,
                    "velocity": 0.952755905511811,
                    "duration": 0.2083333333333428
                },
                {
                    "name": "C5",
                    "midi": 72,
                    "time": 222.50000000000156,
                    "velocity": 0.952755905511811,
                    "duration": 0.08333333333334281
                },
                {
                    "name": "B4",
                    "midi": 71,
                    "time": 222.5833333333349,
                    "velocity": 0.952755905511811,
                    "duration": 0.08333333333334281
                },
                {
                    "name": "C5",
                    "midi": 72,
                    "time": 222.66666666666825,
                    "velocity": 0.952755905511811,
                    "duration": 0.08333333333334281
                },
                {
                    "name": "B4",
                    "midi": 71,
                    "time": 222.7500000000016,
                    "velocity": 0.952755905511811,
                    "duration": 0.08333333333334281
                },
                {
                    "name": "C5",
                    "midi": 72,
                    "time": 222.83333333333493,
                    "velocity": 0.952755905511811,
                    "duration": 0.08333333333334281
                },
                {
                    "name": "B4",
                    "midi": 71,
                    "time": 222.91666666666828,
                    "velocity": 0.952755905511811,
                    "duration": 0.08333333333334281
                },
                {
                    "name": "A4",
                    "midi": 69,
                    "time": 223.00000000000162,
                    "velocity": 0.952755905511811,
                    "duration": 0.25
                },
                {
                    "name": "G4",
                    "midi": 67,
                    "time": 223.25000000000162,
                    "velocity": 0.952755905511811,
                    "duration": 0.2083333333333428
                },
                {
                    "name": "D5",
                    "midi": 74,
                    "time": 223.50000000000162,
                    "velocity": 0.952755905511811,
                    "duration": 0.4166666666666572
                },
                {
                    "name": "D5",
                    "midi": 74,
                    "time": 224.00000000000162,
                    "velocity": 0.952755905511811,
                    "duration": 0.671875
                },
                {
                    "name": "E5",
                    "midi": 76,
                    "time": 224.75000000000162,
                    "velocity": 0.952755905511811,
                    "duration": 0.2083333333333428
                },
                {
                    "name": "D5",
                    "midi": 74,
                    "time": 225.00000000000162,
                    "velocity": 0.952755905511811,
                    "duration": 0.2083333333333428
                },
                {
                    "name": "E5",
                    "midi": 76,
                    "time": 225.25000000000162,
                    "velocity": 0.952755905511811,
                    "duration": 0.2083333333333428
                },
                {
                    "name": "D5",
                    "midi": 74,
                    "time": 225.50000000000162,
                    "velocity": 0.952755905511811,
                    "duration": 0.2083333333333428
                },
                {
                    "name": "G5",
                    "midi": 79,
                    "time": 225.75000000000162,
                    "velocity": 0.952755905511811,
                    "duration": 0.2083333333333428
                },
                {
                    "name": "F5",
                    "midi": 77,
                    "time": 226.00000000000162,
                    "velocity": 0.952755905511811,
                    "duration": 0.2083333333333428
                },
                {
                    "name": "E5",
                    "midi": 76,
                    "time": 226.25000000000162,
                    "velocity": 0.952755905511811,
                    "duration": 0.2083333333333428
                },
                {
                    "name": "D5",
                    "midi": 74,
                    "time": 226.50000000000162,
                    "velocity": 0.952755905511811,
                    "duration": 0.2083333333333428
                },
                {
                    "name": "C5",
                    "midi": 72,
                    "time": 226.75000000000162,
                    "velocity": 0.952755905511811,
                    "duration": 0.2083333333333428
                },
                {
                    "name": "E5",
                    "midi": 76,
                    "time": 227.00000000000162,
                    "velocity": 0.952755905511811,
                    "duration": 0.08333333333334281
                },
                {
                    "name": "D5",
                    "midi": 74,
                    "time": 227.08333333333496,
                    "velocity": 0.952755905511811,
                    "duration": 0.08333333333334281
                },
                {
                    "name": "E5",
                    "midi": 76,
                    "time": 227.1666666666683,
                    "velocity": 0.952755905511811,
                    "duration": 0.08333333333334281
                },
                {
                    "name": "D5",
                    "midi": 74,
                    "time": 227.25000000000165,
                    "velocity": 0.952755905511811,
                    "duration": 0.08333333333334281
                },
                {
                    "name": "E5",
                    "midi": 76,
                    "time": 227.333333333335,
                    "velocity": 0.952755905511811,
                    "duration": 0.08333333333334281
                },
                {
                    "name": "D5",
                    "midi": 74,
                    "time": 227.41666666666833,
                    "velocity": 0.952755905511811,
                    "duration": 0.08333333333334281
                },
                {
                    "name": "E5",
                    "midi": 76,
                    "time": 227.50000000000168,
                    "velocity": 0.952755905511811,
                    "duration": 0.08333333333334281
                },
                {
                    "name": "D5",
                    "midi": 74,
                    "time": 227.58333333333502,
                    "velocity": 0.952755905511811,
                    "duration": 0.08333333333334281
                },
                {
                    "name": "E5",
                    "midi": 76,
                    "time": 227.66666666666836,
                    "velocity": 0.952755905511811,
                    "duration": 0.08333333333334281
                },
                {
                    "name": "D5",
                    "midi": 74,
                    "time": 227.7500000000017,
                    "velocity": 0.952755905511811,
                    "duration": 0.08333333333334281
                },
                {
                    "name": "E5",
                    "midi": 76,
                    "time": 227.83333333333505,
                    "velocity": 0.952755905511811,
                    "duration": 0.08333333333334281
                },
                {
                    "name": "D5",
                    "midi": 74,
                    "time": 227.9166666666684,
                    "velocity": 0.952755905511811,
                    "duration": 0.08333333333334281
                }
            ],
            "controlChanges": {
                "10": [
                    {
                        "number": 10,
                        "time": 0,
                        "value": 0
                    }
                ]
            },
            "id": 7,
            "name": "Musette",
            "instrumentNumber": 74,
            "instrument": "recorder",
            "instrumentFamily": "pipe",
            "channelNumber": 0,
            "isPercussion": false
        },
        {
            "startTime": 138,
            "duration": 227.916666666667,
            "length": 263,
            "notes": [
                {
                    "name": "C3",
                    "midi": 48,
                    "time": 138,
                    "velocity": 0.3543307086614173,
                    "duration": 0.4166666666666572
                },
                {
                    "name": "A3",
                    "midi": 57,
                    "time": 138.5,
                    "velocity": 0.3543307086614173,
                    "duration": 0.125
                },
                {
                    "name": "G3",
                    "midi": 55,
                    "time": 138.625,
                    "velocity": 0.3543307086614173,
                    "duration": 0.08333333333334281
                },
                {
                    "name": "A3",
                    "midi": 57,
                    "time": 138.70833333333334,
                    "velocity": 0.3543307086614173,
                    "duration": 0.08333333333334281
                },
                {
                    "name": "G3",
                    "midi": 55,
                    "time": 138.79166666666669,
                    "velocity": 0.3543307086614173,
                    "duration": 0.08333333333334281
                },
                {
                    "name": "A3",
                    "midi": 57,
                    "time": 138.87500000000003,
                    "velocity": 0.3543307086614173,
                    "duration": 0.08333333333334281
                },
                {
                    "name": "G3",
                    "midi": 55,
                    "time": 138.95833333333337,
                    "velocity": 0.3543307086614173,
                    "duration": 0.08333333333334281
                },
                {
                    "name": "A3",
                    "midi": 57,
                    "time": 139.0416666666667,
                    "velocity": 0.3543307086614173,
                    "duration": 0.08333333333334281
                },
                {
                    "name": "G3",
                    "midi": 55,
                    "time": 139.12500000000006,
                    "velocity": 0.3543307086614173,
                    "duration": 0.125
                },
                {
                    "name": "F3",
                    "midi": 53,
                    "time": 139.25000000000006,
                    "velocity": 0.3543307086614173,
                    "duration": 0.2083333333333428
                },
                {
                    "name": "G3",
                    "midi": 55,
                    "time": 139.50000000000006,
                    "velocity": 0.3543307086614173,
                    "duration": 0.2083333333333428
                },
                {
                    "name": "E3",
                    "midi": 52,
                    "time": 139.75000000000006,
                    "velocity": 0.3543307086614173,
                    "duration": 0.2083333333333428
                },
                {
                    "name": "G3",
                    "midi": 55,
                    "time": 140.00000000000006,
                    "velocity": 0.3543307086614173,
                    "duration": 0.08333333333334281
                },
                {
                    "name": "F3",
                    "midi": 53,
                    "time": 140.0833333333334,
                    "velocity": 0.3543307086614173,
                    "duration": 0.08333333333334281
                },
                {
                    "name": "G3",
                    "midi": 55,
                    "time": 140.16666666666674,
                    "velocity": 0.3543307086614173,
                    "duration": 0.08333333333334281
                },
                {
                    "name": "F3",
                    "midi": 53,
                    "time": 140.25000000000009,
                    "velocity": 0.3543307086614173,
                    "duration": 0.08333333333334281
                },
                {
                    "name": "G3",
                    "midi": 55,
                    "time": 140.33333333333343,
                    "velocity": 0.3543307086614173,
                    "duration": 0.08333333333334281
                },
                {
                    "name": "F3",
                    "midi": 53,
                    "time": 140.41666666666677,
                    "velocity": 0.3543307086614173,
                    "duration": 0.08333333333334281
                },
                {
                    "name": "E3",
                    "midi": 52,
                    "time": 140.5000000000001,
                    "velocity": 0.3543307086614173,
                    "duration": 0.2083333333333428
                },
                {
                    "name": "D3",
                    "midi": 50,
                    "time": 140.7500000000001,
                    "velocity": 0.3543307086614173,
                    "duration": 0.2083333333333428
                },
                {
                    "name": "E3",
                    "midi": 52,
                    "time": 141.0000000000001,
                    "velocity": 0.3543307086614173,
                    "duration": 0.2083333333333428
                },
                {
                    "name": "C3",
                    "midi": 48,
                    "time": 141.2500000000001,
                    "velocity": 0.3543307086614173,
                    "duration": 0.2083333333333428
                },
                {
                    "name": "G3",
                    "midi": 55,
                    "time": 141.5000000000001,
                    "velocity": 0.3543307086614173,
                    "duration": 0.2083333333333428
                },
                {
                    "name": "G2",
                    "midi": 43,
                    "time": 141.7500000000001,
                    "velocity": 0.3543307086614173,
                    "duration": 0.2083333333333428
                },
                {
                    "name": "G3",
                    "midi": 55,
                    "time": 142.0000000000001,
                    "velocity": 0.3543307086614173,
                    "duration": 0.2083333333333428
                },
                {
                    "name": "F#3",
                    "midi": 54,
                    "time": 142.2500000000001,
                    "velocity": 0.3543307086614173,
                    "duration": 0.2083333333333428
                },
                {
                    "name": "G3",
                    "midi": 55,
                    "time": 142.5000000000001,
                    "velocity": 0.3543307086614173,
                    "duration": 0.2083333333333428
                },
                {
                    "name": "A3",
                    "midi": 57,
                    "time": 142.7500000000001,
                    "velocity": 0.3543307086614173,
                    "duration": 0.2083333333333428
                },
                {
                    "name": "B3",
                    "midi": 59,
                    "time": 143.0000000000001,
                    "velocity": 0.3543307086614173,
                    "duration": 0.2083333333333428
                },
                {
                    "name": "C4",
                    "midi": 60,
                    "time": 143.2500000000001,
                    "velocity": 0.3543307086614173,
                    "duration": 0.2083333333333428
                },
                {
                    "name": "B3",
                    "midi": 59,
                    "time": 143.5000000000001,
                    "velocity": 0.3543307086614173,
                    "duration": 0.2083333333333428
                },
                {
                    "name": "A3",
                    "midi": 57,
                    "time": 143.7500000000001,
                    "velocity": 0.3543307086614173,
                    "duration": 0.2083333333333428
                },
                {
                    "name": "G3",
                    "midi": 55,
                    "time": 144.0000000000001,
                    "velocity": 0.3543307086614173,
                    "duration": 0.2083333333333428
                },
                {
                    "name": "F#3",
                    "midi": 54,
                    "time": 144.2500000000001,
                    "velocity": 0.3543307086614173,
                    "duration": 0.2083333333333428
                },
                {
                    "name": "E3",
                    "midi": 52,
                    "time": 144.5000000000001,
                    "velocity": 0.3543307086614173,
                    "duration": 0.4166666666666572
                },
                {
                    "name": "D3",
                    "midi": 50,
                    "time": 145.0000000000001,
                    "velocity": 0.3543307086614173,
                    "duration": 0.4166666666666572
                },
                {
                    "name": "D2",
                    "midi": 38,
                    "time": 145.5000000000001,
                    "velocity": 0.3543307086614173,
                    "duration": 0.4166666666666572
                },
                {
                    "name": "G2",
                    "midi": 43,
                    "time": 146.0000000000001,
                    "velocity": 0.3543307086614173,
                    "duration": 0.4166666666666572
                },
                {
                    "name": "D3",
                    "midi": 50,
                    "time": 146.5000000000001,
                    "velocity": 0.3543307086614173,
                    "duration": 0.2083333333333428
                },
                {
                    "name": "E3",
                    "midi": 52,
                    "time": 146.7500000000001,
                    "velocity": 0.3543307086614173,
                    "duration": 0.2083333333333428
                },
                {
                    "name": "F#3",
                    "midi": 54,
                    "time": 147.0000000000001,
                    "velocity": 0.3543307086614173,
                    "duration": 0.2083333333333428
                },
                {
                    "name": "D3",
                    "midi": 50,
                    "time": 147.2500000000001,
                    "velocity": 0.3543307086614173,
                    "duration": 0.2083333333333428
                },
                {
                    "name": "G3",
                    "midi": 55,
                    "time": 147.5000000000001,
                    "velocity": 0.3543307086614173,
                    "duration": 0.4166666666666572
                },
                {
                    "name": "G3",
                    "midi": 55,
                    "time": 148.0000000000001,
                    "velocity": 0.3543307086614173,
                    "duration": 0.4166666666666572
                },
                {
                    "name": "G2",
                    "midi": 43,
                    "time": 148.5000000000001,
                    "velocity": 0.3543307086614173,
                    "duration": 0.4166666666666572
                },
                {
                    "name": "D3",
                    "midi": 50,
                    "time": 149.0000000000001,
                    "velocity": 0.3543307086614173,
                    "duration": 0.4166666666666572
                },
                {
                    "name": "D3",
                    "midi": 50,
                    "time": 149.5000000000001,
                    "velocity": 0.3543307086614173,
                    "duration": 0.2083333333333428
                },
                {
                    "name": "E3",
                    "midi": 52,
                    "time": 149.7500000000001,
                    "velocity": 0.3543307086614173,
                    "duration": 0.2083333333333428
                },
                {
                    "name": "F#3",
                    "midi": 54,
                    "time": 150.0000000000001,
                    "velocity": 0.3543307086614173,
                    "duration": 0.2083333333333428
                },
                {
                    "name": "D3",
                    "midi": 50,
                    "time": 150.2500000000001,
                    "velocity": 0.3543307086614173,
                    "duration": 0.2083333333333428
                },
                {
                    "name": "G3",
                    "midi": 55,
                    "time": 150.5000000000001,
                    "velocity": 0.3543307086614173,
                    "duration": 0.4166666666666572
                },
                {
                    "name": "D4",
                    "midi": 62,
                    "time": 151.0000000000001,
                    "velocity": 0.3543307086614173,
                    "duration": 0.4166666666666572
                },
                {
                    "name": "C3",
                    "midi": 48,
                    "time": 152.0000000000001,
                    "velocity": 0.3543307086614173,
                    "duration": 0.9166666666666572
                },
                {
                    "name": "B2",
                    "midi": 47,
                    "time": 153.0000000000001,
                    "velocity": 0.3543307086614173,
                    "duration": 0.4166666666666572
                },
                {
                    "name": "E3",
                    "midi": 52,
                    "time": 153.5000000000001,
                    "velocity": 0.3543307086614173,
                    "duration": 0.2083333333333428
                },
                {
                    "name": "D3",
                    "midi": 50,
                    "time": 153.7500000000001,
                    "velocity": 0.3543307086614173,
                    "duration": 0.2083333333333428
                },
                {
                    "name": "C3",
                    "midi": 48,
                    "time": 154.0000000000001,
                    "velocity": 0.3543307086614173,
                    "duration": 0.2083333333333428
                },
                {
                    "name": "B2",
                    "midi": 47,
                    "time": 154.2500000000001,
                    "velocity": 0.3543307086614173,
                    "duration": 0.2083333333333428
                },
                {
                    "name": "A2",
                    "midi": 45,
                    "time": 154.5000000000001,
                    "velocity": 0.3543307086614173,
                    "duration": 0.2083333333333428
                },
                {
                    "name": "B2",
                    "midi": 47,
                    "time": 154.7500000000001,
                    "velocity": 0.3543307086614173,
                    "duration": 0.2083333333333428
                },
                {
                    "name": "C3",
                    "midi": 48,
                    "time": 155.0000000000001,
                    "velocity": 0.3543307086614173,
                    "duration": 0.4166666666666572
                },
                {
                    "name": "B2",
                    "midi": 47,
                    "time": 155.5000000000001,
                    "velocity": 0.3543307086614173,
                    "duration": 0.2083333333333428
                },
                {
                    "name": "A2",
                    "midi": 45,
                    "time": 155.7500000000001,
                    "velocity": 0.3543307086614173,
                    "duration": 0.2083333333333428
                },
                {
                    "name": "G2",
                    "midi": 43,
                    "time": 156.0000000000001,
                    "velocity": 0.3543307086614173,
                    "duration": 0.4166666666666572
                },
                {
                    "name": "G3",
                    "midi": 55,
                    "time": 156.5000000000001,
                    "velocity": 0.3543307086614173,
                    "duration": 0.4166666666666572
                },
                {
                    "name": "D4",
                    "midi": 62,
                    "time": 157.0000000000001,
                    "velocity": 0.3543307086614173,
                    "duration": 0.4166666666666572
                },
                {
                    "name": "D3",
                    "midi": 50,
                    "time": 157.5000000000001,
                    "velocity": 0.3543307086614173,
                    "duration": 0.4166666666666572
                },
                {
                    "name": "G3",
                    "midi": 55,
                    "time": 158.0000000000001,
                    "velocity": 0.3543307086614173,
                    "duration": 0.4166666666666572
                },
                {
                    "name": "B3",
                    "midi": 59,
                    "time": 158.5000000000001,
                    "velocity": 0.3543307086614173,
                    "duration": 0.2083333333333428
                },
                {
                    "name": "A3",
                    "midi": 57,
                    "time": 158.7500000000001,
                    "velocity": 0.3543307086614173,
                    "duration": 0.2083333333333428
                },
                {
                    "name": "G3",
                    "midi": 55,
                    "time": 159.0000000000001,
                    "velocity": 0.3543307086614173,
                    "duration": 0.2083333333333428
                },
                {
                    "name": "F#3",
                    "midi": 54,
                    "time": 159.2500000000001,
                    "velocity": 0.3543307086614173,
                    "duration": 0.2083333333333428
                },
                {
                    "name": "G3",
                    "midi": 55,
                    "time": 159.5000000000001,
                    "velocity": 0.3543307086614173,
                    "duration": 0.2083333333333428
                },
                {
                    "name": "D4",
                    "midi": 62,
                    "time": 159.7500000000001,
                    "velocity": 0.3543307086614173,
                    "duration": 0.2083333333333428
                },
                {
                    "name": "F#3",
                    "midi": 54,
                    "time": 160.0000000000001,
                    "velocity": 0.3543307086614173,
                    "duration": 0.2083333333333428
                },
                {
                    "name": "D4",
                    "midi": 62,
                    "time": 160.2500000000001,
                    "velocity": 0.3543307086614173,
                    "duration": 0.2083333333333428
                },
                {
                    "name": "D3",
                    "midi": 50,
                    "time": 160.5000000000001,
                    "velocity": 0.3543307086614173,
                    "duration": 0.2083333333333428
                },
                {
                    "name": "D4",
                    "midi": 62,
                    "time": 160.7500000000001,
                    "velocity": 0.3543307086614173,
                    "duration": 0.2083333333333428
                },
                {
                    "name": "G3",
                    "midi": 55,
                    "time": 161.0000000000001,
                    "velocity": 0.3543307086614173,
                    "duration": 0.2083333333333428
                },
                {
                    "name": "D4",
                    "midi": 62,
                    "time": 161.2500000000001,
                    "velocity": 0.3543307086614173,
                    "duration": 0.2083333333333428
                },
                {
                    "name": "F#3",
                    "midi": 54,
                    "time": 161.5000000000001,
                    "velocity": 0.3543307086614173,
                    "duration": 0.2083333333333428
                },
                {
                    "name": "D4",
                    "midi": 62,
                    "time": 161.7500000000001,
                    "velocity": 0.3543307086614173,
                    "duration": 0.2083333333333428
                },
                {
                    "name": "D3",
                    "midi": 50,
                    "time": 162.0000000000001,
                    "velocity": 0.3543307086614173,
                    "duration": 0.2083333333333428
                },
                {
                    "name": "D4",
                    "midi": 62,
                    "time": 162.2500000000001,
                    "velocity": 0.3543307086614173,
                    "duration": 0.2083333333333428
                },
                {
                    "name": "G3",
                    "midi": 55,
                    "time": 162.5000000000001,
                    "velocity": 0.3543307086614173,
                    "duration": 0.2083333333333428
                },
                {
                    "name": "D4",
                    "midi": 62,
                    "time": 162.7500000000001,
                    "velocity": 0.3543307086614173,
                    "duration": 0.2083333333333428
                },
                {
                    "name": "F#3",
                    "midi": 54,
                    "time": 163.0000000000001,
                    "velocity": 0.3543307086614173,
                    "duration": 0.2083333333333428
                },
                {
                    "name": "D4",
                    "midi": 62,
                    "time": 163.2500000000001,
                    "velocity": 0.3543307086614173,
                    "duration": 0.2083333333333428
                },
                {
                    "name": "D3",
                    "midi": 50,
                    "time": 163.5000000000001,
                    "velocity": 0.3543307086614173,
                    "duration": 0.2083333333333428
                },
                {
                    "name": "D4",
                    "midi": 62,
                    "time": 163.7500000000001,
                    "velocity": 0.3543307086614173,
                    "duration": 0.2083333333333428
                },
                {
                    "name": "G3",
                    "midi": 55,
                    "time": 164.0000000000001,
                    "velocity": 0.3543307086614173,
                    "duration": 0.2083333333333428
                },
                {
                    "name": "D4",
                    "midi": 62,
                    "time": 164.2500000000001,
                    "velocity": 0.3543307086614173,
                    "duration": 0.2083333333333428
                },
                {
                    "name": "D4",
                    "midi": 62,
                    "time": 164.5000000000001,
                    "velocity": 0.3543307086614173,
                    "duration": 0.2083333333333428
                },
                {
                    "name": "C4",
                    "midi": 60,
                    "time": 164.7500000000001,
                    "velocity": 0.3543307086614173,
                    "duration": 0.2083333333333428
                },
                {
                    "name": "B3",
                    "midi": 59,
                    "time": 165.0000000000001,
                    "velocity": 0.3543307086614173,
                    "duration": 0.2083333333333428
                },
                {
                    "name": "G3",
                    "midi": 55,
                    "time": 165.2500000000001,
                    "velocity": 0.3543307086614173,
                    "duration": 0.2083333333333428
                },
                {
                    "name": "C3",
                    "midi": 48,
                    "time": 165.5000000000001,
                    "velocity": 0.3543307086614173,
                    "duration": 0.4166666666666572
                },
                {
                    "name": "E4",
                    "midi": 64,
                    "time": 166.0000000000001,
                    "velocity": 0.3543307086614173,
                    "duration": 0.4166666666666572
                },
                {
                    "name": "C3",
                    "midi": 48,
                    "time": 166.5000000000001,
                    "velocity": 0.3543307086614173,
                    "duration": 0.4166666666666572
                },
                {
                    "name": "B2",
                    "midi": 47,
                    "time": 167.0000000000001,
                    "velocity": 0.3543307086614173,
                    "duration": 0.4166666666666572
                },
                {
                    "name": "D4",
                    "midi": 62,
                    "time": 167.5000000000001,
                    "velocity": 0.3543307086614173,
                    "duration": 0.4166666666666572
                },
                {
                    "name": "B2",
                    "midi": 47,
                    "time": 168.0000000000001,
                    "velocity": 0.3543307086614173,
                    "duration": 0.4166666666666572
                },
                {
                    "name": "A2",
                    "midi": 45,
                    "time": 168.5000000000001,
                    "velocity": 0.3543307086614173,
                    "duration": 0.4166666666666572
                },
                {
                    "name": "D3",
                    "midi": 50,
                    "time": 169.0000000000001,
                    "velocity": 0.3543307086614173,
                    "duration": 0.4166666666666572
                },
                {
                    "name": "D2",
                    "midi": 38,
                    "time": 169.5000000000001,
                    "velocity": 0.3543307086614173,
                    "duration": 0.4166666666666572
                },
                {
                    "name": "G2",
                    "midi": 43,
                    "time": 170.0000000000001,
                    "velocity": 0.3543307086614173,
                    "duration": 0.9166666666666572
                },
                {
                    "name": "G3",
                    "midi": 55,
                    "time": 172.5000000000001,
                    "velocity": 0.3543307086614173,
                    "duration": 0.4166666666666572
                },
                {
                    "name": "F3",
                    "midi": 53,
                    "time": 173.0000000000001,
                    "velocity": 0.3543307086614173,
                    "duration": 0.125
                },
                {
                    "name": "E3",
                    "midi": 52,
                    "time": 173.1250000000001,
                    "velocity": 0.3543307086614173,
                    "duration": 0.08333333333334281
                },
                {
                    "name": "F3",
                    "midi": 53,
                    "time": 173.20833333333346,
                    "velocity": 0.3543307086614173,
                    "duration": 0.08333333333334281
                },
                {
                    "name": "E3",
                    "midi": 52,
                    "time": 173.2916666666668,
                    "velocity": 0.3543307086614173,
                    "duration": 0.08333333333334281
                },
                {
                    "name": "F3",
                    "midi": 53,
                    "time": 173.37500000000014,
                    "velocity": 0.3543307086614173,
                    "duration": 0.08333333333334281
                },
                {
                    "name": "E3",
                    "midi": 52,
                    "time": 173.45833333333348,
                    "velocity": 0.3543307086614173,
                    "duration": 0.08333333333334281
                },
                {
                    "name": "F3",
                    "midi": 53,
                    "time": 173.54166666666683,
                    "velocity": 0.3543307086614173,
                    "duration": 0.08333333333334281
                },
                {
                    "name": "E3",
                    "midi": 52,
                    "time": 173.62500000000017,
                    "velocity": 0.3543307086614173,
                    "duration": 0.125
                },
                {
                    "name": "D3",
                    "midi": 50,
                    "time": 173.75000000000017,
                    "velocity": 0.3543307086614173,
                    "duration": 0.2083333333333428
                },
                {
                    "name": "C3",
                    "midi": 48,
                    "time": 174.00000000000017,
                    "velocity": 0.3543307086614173,
                    "duration": 0.2083333333333428
                },
                {
                    "name": "B2",
                    "midi": 47,
                    "time": 174.25000000000017,
                    "velocity": 0.3543307086614173,
                    "duration": 0.2083333333333428
                },
                {
                    "name": "C3",
                    "midi": 48,
                    "time": 174.50000000000017,
                    "velocity": 0.3543307086614173,
                    "duration": 0.671875
                },
                {
                    "name": "G2",
                    "midi": 43,
                    "time": 175.25000000000017,
                    "velocity": 0.3543307086614173,
                    "duration": 0.2083333333333428
                },
                {
                    "name": "C3",
                    "midi": 48,
                    "time": 175.50000000000017,
                    "velocity": 0.3543307086614173,
                    "duration": 0.2083333333333428
                },
                {
                    "name": "D3",
                    "midi": 50,
                    "time": 175.75000000000017,
                    "velocity": 0.3543307086614173,
                    "duration": 0.2083333333333428
                },
                {
                    "name": "E3",
                    "midi": 52,
                    "time": 176.00000000000017,
                    "velocity": 0.3543307086614173,
                    "duration": 0.2083333333333428
                },
                {
                    "name": "D3",
                    "midi": 50,
                    "time": 176.25000000000017,
                    "velocity": 0.3543307086614173,
                    "duration": 0.2083333333333428
                },
                {
                    "name": "C3",
                    "midi": 48,
                    "time": 176.50000000000017,
                    "velocity": 0.3543307086614173,
                    "duration": 0.08333333333334281
                },
                {
                    "name": "D3",
                    "midi": 50,
                    "time": 176.5833333333335,
                    "velocity": 0.3543307086614173,
                    "duration": 0.08333333333334281
                },
                {
                    "name": "C3",
                    "midi": 48,
                    "time": 176.66666666666686,
                    "velocity": 0.3543307086614173,
                    "duration": 0.08333333333334281
                },
                {
                    "name": "B2",
                    "midi": 47,
                    "time": 176.7500000000002,
                    "velocity": 0.3543307086614173,
                    "duration": 0.2083333333333428
                },
                {
                    "name": "C3",
                    "midi": 48,
                    "time": 177.0000000000002,
                    "velocity": 0.3543307086614173,
                    "duration": 0.4166666666666572
                },
                {
                    "name": "E4",
                    "midi": 64,
                    "time": 177.5000000000002,
                    "velocity": 0.3543307086614173,
                    "duration": 0.2083333333333428
                },
                {
                    "name": "D4",
                    "midi": 62,
                    "time": 177.7500000000002,
                    "velocity": 0.3543307086614173,
                    "duration": 0.25
                },
                {
                    "name": "C4",
                    "midi": 60,
                    "time": 178.0000000000002,
                    "velocity": 0.3543307086614173,
                    "duration": 0.08333333333334281
                },
                {
                    "name": "D4",
                    "midi": 62,
                    "time": 178.08333333333354,
                    "velocity": 0.3543307086614173,
                    "duration": 0.08333333333334281
                },
                {
                    "name": "C4",
                    "midi": 60,
                    "time": 178.16666666666688,
                    "velocity": 0.3543307086614173,
                    "duration": 0.08333333333334281
                },
                {
                    "name": "B3",
                    "midi": 59,
                    "time": 178.25000000000023,
                    "velocity": 0.3543307086614173,
                    "duration": 0.2083333333333428
                },
                {
                    "name": "C4",
                    "midi": 60,
                    "time": 178.50000000000023,
                    "velocity": 0.3543307086614173,
                    "duration": 0.4166666666666572
                },
                {
                    "name": "E3",
                    "midi": 52,
                    "time": 179.00000000000023,
                    "velocity": 0.3543307086614173,
                    "duration": 0.2083333333333428
                },
                {
                    "name": "D3",
                    "midi": 50,
                    "time": 179.25000000000023,
                    "velocity": 0.3543307086614173,
                    "duration": 0.25
                },
                {
                    "name": "C3",
                    "midi": 48,
                    "time": 179.50000000000023,
                    "velocity": 0.3543307086614173,
                    "duration": 0.08333333333334281
                },
                {
                    "name": "D3",
                    "midi": 50,
                    "time": 179.58333333333357,
                    "velocity": 0.3543307086614173,
                    "duration": 0.08333333333334281
                },
                {
                    "name": "C3",
                    "midi": 48,
                    "time": 179.6666666666669,
                    "velocity": 0.3543307086614173,
                    "duration": 0.08333333333334281
                },
                {
                    "name": "B2",
                    "midi": 47,
                    "time": 179.75000000000026,
                    "velocity": 0.3543307086614173,
                    "duration": 0.2083333333333428
                },
                {
                    "name": "C3",
                    "midi": 48,
                    "time": 180.00000000000026,
                    "velocity": 0.3543307086614173,
                    "duration": 0.4166666666666572
                },
                {
                    "name": "F3",
                    "midi": 53,
                    "time": 180.50000000000026,
                    "velocity": 0.3543307086614173,
                    "duration": 0.2083333333333428
                },
                {
                    "name": "G3",
                    "midi": 55,
                    "time": 180.75000000000026,
                    "velocity": 0.3543307086614173,
                    "duration": 0.2083333333333428
                },
                {
                    "name": "A3",
                    "midi": 57,
                    "time": 181.00000000000026,
                    "velocity": 0.3543307086614173,
                    "duration": 0.4166666666666572
                },
                {
                    "name": "F3",
                    "midi": 53,
                    "time": 181.50000000000026,
                    "velocity": 0.3543307086614173,
                    "duration": 0.4166666666666572
                },
                {
                    "name": "G3",
                    "midi": 55,
                    "time": 182.00000000000026,
                    "velocity": 0.3543307086614173,
                    "duration": 0.2083333333333428
                },
                {
                    "name": "F3",
                    "midi": 53,
                    "time": 182.25000000000026,
                    "velocity": 0.3543307086614173,
                    "duration": 0.2083333333333428
                },
                {
                    "name": "E3",
                    "midi": 52,
                    "time": 182.50000000000026,
                    "velocity": 0.3543307086614173,
                    "duration": 0.2083333333333428
                },
                {
                    "name": "D3",
                    "midi": 50,
                    "time": 182.75000000000026,
                    "velocity": 0.3543307086614173,
                    "duration": 0.2083333333333428
                },
                {
                    "name": "E3",
                    "midi": 52,
                    "time": 183.00000000000026,
                    "velocity": 0.3543307086614173,
                    "duration": 0.2083333333333428
                },
                {
                    "name": "C3",
                    "midi": 48,
                    "time": 183.25000000000026,
                    "velocity": 0.3543307086614173,
                    "duration": 0.2083333333333428
                },
                {
                    "name": "G3",
                    "midi": 55,
                    "time": 183.50000000000026,
                    "velocity": 0.3543307086614173,
                    "duration": 0.4166666666666572
                },
                {
                    "name": "G2",
                    "midi": 43,
                    "time": 184.00000000000026,
                    "velocity": 0.3543307086614173,
                    "duration": 0.4166666666666572
                },
                {
                    "name": "G3",
                    "midi": 55,
                    "time": 184.50000000000026,
                    "velocity": 0.3543307086614173,
                    "duration": 0.4166666666666572
                },
                {
                    "name": "F3",
                    "midi": 53,
                    "time": 185.00000000000026,
                    "velocity": 0.3543307086614173,
                    "duration": 0.125
                },
                {
                    "name": "E3",
                    "midi": 52,
                    "time": 185.12500000000026,
                    "velocity": 0.3543307086614173,
                    "duration": 0.08333333333334281
                },
                {
                    "name": "F3",
                    "midi": 53,
                    "time": 185.2083333333336,
                    "velocity": 0.3543307086614173,
                    "duration": 0.08333333333334281
                },
                {
                    "name": "E3",
                    "midi": 52,
                    "time": 185.29166666666694,
                    "velocity": 0.3543307086614173,
                    "duration": 0.08333333333334281
                },
                {
                    "name": "F3",
                    "midi": 53,
                    "time": 185.37500000000028,
                    "velocity": 0.3543307086614173,
                    "duration": 0.08333333333334281
                },
                {
                    "name": "E3",
                    "midi": 52,
                    "time": 185.45833333333363,
                    "velocity": 0.3543307086614173,
                    "duration": 0.08333333333334281
                },
                {
                    "name": "F3",
                    "midi": 53,
                    "time": 185.54166666666697,
                    "velocity": 0.3543307086614173,
                    "duration": 0.08333333333334281
                },
                {
                    "name": "E3",
                    "midi": 52,
                    "time": 185.6250000000003,
                    "velocity": 0.3543307086614173,
                    "duration": 0.125
                },
                {
                    "name": "D3",
                    "midi": 50,
                    "time": 185.7500000000003,
                    "velocity": 0.3543307086614173,
                    "duration": 0.2083333333333428
                },
                {
                    "name": "C3",
                    "midi": 48,
                    "time": 186.0000000000003,
                    "velocity": 0.3543307086614173,
                    "duration": 0.2083333333333428
                },
                {
                    "name": "B2",
                    "midi": 47,
                    "time": 186.2500000000003,
                    "velocity": 0.3543307086614173,
                    "duration": 0.2083333333333428
                },
                {
                    "name": "C3",
                    "midi": 48,
                    "time": 186.5000000000003,
                    "velocity": 0.3543307086614173,
                    "duration": 0.671875
                },
                {
                    "name": "G2",
                    "midi": 43,
                    "time": 187.2500000000003,
                    "velocity": 0.3543307086614173,
                    "duration": 0.2083333333333428
                },
                {
                    "name": "C3",
                    "midi": 48,
                    "time": 187.5000000000003,
                    "velocity": 0.3543307086614173,
                    "duration": 0.2083333333333428
                },
                {
                    "name": "D3",
                    "midi": 50,
                    "time": 187.7500000000003,
                    "velocity": 0.3543307086614173,
                    "duration": 0.2083333333333428
                },
                {
                    "name": "E3",
                    "midi": 52,
                    "time": 188.0000000000003,
                    "velocity": 0.3543307086614173,
                    "duration": 0.2083333333333428
                },
                {
                    "name": "D3",
                    "midi": 50,
                    "time": 188.2500000000003,
                    "velocity": 0.3543307086614173,
                    "duration": 0.2083333333333428
                },
                {
                    "name": "C3",
                    "midi": 48,
                    "time": 188.5000000000003,
                    "velocity": 0.3543307086614173,
                    "duration": 0.2083333333333428
                },
                {
                    "name": "B2",
                    "midi": 47,
                    "time": 188.7500000000003,
                    "velocity": 0.3543307086614173,
                    "duration": 0.2083333333333428
                },
                {
                    "name": "C3",
                    "midi": 48,
                    "time": 189.0000000000003,
                    "velocity": 0.3543307086614173,
                    "duration": 0.4166666666666572
                },
                {
                    "name": "E4",
                    "midi": 64,
                    "time": 189.5000000000003,
                    "velocity": 0.3543307086614173,
                    "duration": 0.2083333333333428
                },
                {
                    "name": "D4",
                    "midi": 62,
                    "time": 189.7500000000003,
                    "velocity": 0.3543307086614173,
                    "duration": 0.2083333333333428
                },
                {
                    "name": "C4",
                    "midi": 60,
                    "time": 190.0000000000003,
                    "velocity": 0.3543307086614173,
                    "duration": 0.08333333333334281
                },
                {
                    "name": "D4",
                    "midi": 62,
                    "time": 190.08333333333366,
                    "velocity": 0.3543307086614173,
                    "duration": 0.08333333333334281
                },
                {
                    "name": "C4",
                    "midi": 60,
                    "time": 190.166666666667,
                    "velocity": 0.3543307086614173,
                    "duration": 0.08333333333334281
                },
                {
                    "name": "B3",
                    "midi": 59,
                    "time": 190.25000000000034,
                    "velocity": 0.3543307086614173,
                    "duration": 0.2083333333333428
                },
                {
                    "name": "C4",
                    "midi": 60,
                    "time": 190.50000000000034,
                    "velocity": 0.3543307086614173,
                    "duration": 0.4166666666666572
                },
                {
                    "name": "F3",
                    "midi": 53,
                    "time": 191.00000000000034,
                    "velocity": 0.3543307086614173,
                    "duration": 0.2083333333333428
                },
                {
                    "name": "G3",
                    "midi": 55,
                    "time": 191.25000000000034,
                    "velocity": 0.3543307086614173,
                    "duration": 0.2083333333333428
                },
                {
                    "name": "A3",
                    "midi": 57,
                    "time": 191.50000000000034,
                    "velocity": 0.3543307086614173,
                    "duration": 0.4166666666666572
                },
                {
                    "name": "F3",
                    "midi": 53,
                    "time": 192.00000000000034,
                    "velocity": 0.3543307086614173,
                    "duration": 0.4166666666666572
                },
                {
                    "name": "G3",
                    "midi": 55,
                    "time": 192.50000000000034,
                    "velocity": 0.3543307086614173,
                    "duration": 0.4166666666666572
                },
                {
                    "name": "G2",
                    "midi": 43,
                    "time": 193.00000000000034,
                    "velocity": 0.3543307086614173,
                    "duration": 0.9166666666666572
                },
                {
                    "name": "C3",
                    "midi": 48,
                    "time": 194.00000000000034,
                    "velocity": 0.3543307086614173,
                    "duration": 0.9166666666666572
                },
                {
                    "name": "C3",
                    "midi": 48,
                    "time": 195.50000000000034,
                    "velocity": 0.3543307086614173,
                    "duration": 0.4166666666666572
                },
                {
                    "name": "C4",
                    "midi": 60,
                    "time": 196.00000000000034,
                    "velocity": 0.3543307086614173,
                    "duration": 0.4166666666666572
                },
                {
                    "name": "C3",
                    "midi": 48,
                    "time": 196.50000000000034,
                    "velocity": 0.3543307086614173,
                    "duration": 0.4166666666666572
                },
                {
                    "name": "F3",
                    "midi": 53,
                    "time": 197.00000000000034,
                    "velocity": 0.3543307086614173,
                    "duration": 0.4166666666666572
                },
                {
                    "name": "E3",
                    "midi": 52,
                    "time": 197.50000000000034,
                    "velocity": 0.3543307086614173,
                    "duration": 0.4166666666666572
                },
                {
                    "name": "D3",
                    "midi": 50,
                    "time": 198.00000000000034,
                    "velocity": 0.3543307086614173,
                    "duration": 0.4166666666666572
                },
                {
                    "name": "C3",
                    "midi": 48,
                    "time": 198.50000000000034,
                    "velocity": 0.3543307086614173,
                    "duration": 0.4166666666666572
                },
                {
                    "name": "G3",
                    "midi": 55,
                    "time": 199.00000000000034,
                    "velocity": 0.3543307086614173,
                    "duration": 0.4166666666666572
                },
                {
                    "name": "G2",
                    "midi": 43,
                    "time": 199.50000000000034,
                    "velocity": 0.3543307086614173,
                    "duration": 0.4166666666666572
                },
                {
                    "name": "C3",
                    "midi": 48,
                    "time": 200.00000000000034,
                    "velocity": 0.3543307086614173,
                    "duration": 0.9166666666666572
                },
                {
                    "name": "C3",
                    "midi": 48,
                    "time": 201.50000000000034,
                    "velocity": 0.3543307086614173,
                    "duration": 0.4166666666666572
                },
                {
                    "name": "C4",
                    "midi": 60,
                    "time": 202.00000000000034,
                    "velocity": 0.3543307086614173,
                    "duration": 0.4166666666666572
                },
                {
                    "name": "C3",
                    "midi": 48,
                    "time": 202.50000000000034,
                    "velocity": 0.3543307086614173,
                    "duration": 0.4166666666666572
                },
                {
                    "name": "F3",
                    "midi": 53,
                    "time": 203.00000000000034,
                    "velocity": 0.3543307086614173,
                    "duration": 0.4166666666666572
                },
                {
                    "name": "E3",
                    "midi": 52,
                    "time": 203.50000000000034,
                    "velocity": 0.3543307086614173,
                    "duration": 0.4166666666666572
                },
                {
                    "name": "D3",
                    "midi": 50,
                    "time": 204.00000000000034,
                    "velocity": 0.3543307086614173,
                    "duration": 0.4166666666666572
                },
                {
                    "name": "C3",
                    "midi": 48,
                    "time": 204.50000000000034,
                    "velocity": 0.3543307086614173,
                    "duration": 0.4166666666666572
                },
                {
                    "name": "C2",
                    "midi": 36,
                    "time": 205.00000000000034,
                    "velocity": 0.3543307086614173,
                    "duration": 0.9166666666666572
                },
                {
                    "name": "G2",
                    "midi": 43,
                    "time": 206.00000000000034,
                    "velocity": 0.3543307086614173,
                    "duration": 0.9166666666666572
                },
                {
                    "name": "G2",
                    "midi": 43,
                    "time": 207.50000000000034,
                    "velocity": 0.3543307086614173,
                    "duration": 0.4166666666666572
                },
                {
                    "name": "G3",
                    "midi": 55,
                    "time": 208.00000000000034,
                    "velocity": 0.3543307086614173,
                    "duration": 0.4166666666666572
                },
                {
                    "name": "F#3",
                    "midi": 54,
                    "time": 208.50000000000034,
                    "velocity": 0.3543307086614173,
                    "duration": 0.4166666666666572
                },
                {
                    "name": "G3",
                    "midi": 55,
                    "time": 209.00000000000034,
                    "velocity": 0.3543307086614173,
                    "duration": 0.2083333333333428
                },
                {
                    "name": "G2",
                    "midi": 43,
                    "time": 209.25000000000034,
                    "velocity": 0.3543307086614173,
                    "duration": 0.2083333333333428
                },
                {
                    "name": "B2",
                    "midi": 47,
                    "time": 209.50000000000034,
                    "velocity": 0.3543307086614173,
                    "duration": 0.2083333333333428
                },
                {
                    "name": "D3",
                    "midi": 50,
                    "time": 209.75000000000034,
                    "velocity": 0.3543307086614173,
                    "duration": 0.2083333333333428
                },
                {
                    "name": "G3",
                    "midi": 55,
                    "time": 210.00000000000034,
                    "velocity": 0.3543307086614173,
                    "duration": 0.2083333333333428
                },
                {
                    "name": "B3",
                    "midi": 59,
                    "time": 210.25000000000034,
                    "velocity": 0.3543307086614173,
                    "duration": 0.2083333333333428
                },
                {
                    "name": "G2",
                    "midi": 43,
                    "time": 210.50000000000034,
                    "velocity": 0.3543307086614173,
                    "duration": 0.4166666666666572
                },
                {
                    "name": "G3",
                    "midi": 55,
                    "time": 211.00000000000034,
                    "velocity": 0.3543307086614173,
                    "duration": 0.4166666666666572
                },
                {
                    "name": "F#3",
                    "midi": 54,
                    "time": 211.50000000000034,
                    "velocity": 0.3543307086614173,
                    "duration": 0.4166666666666572
                },
                {
                    "name": "G3",
                    "midi": 55,
                    "time": 212.00000000000034,
                    "velocity": 0.3543307086614173,
                    "duration": 0.2083333333333428
                },
                {
                    "name": "G2",
                    "midi": 43,
                    "time": 212.25000000000034,
                    "velocity": 0.3543307086614173,
                    "duration": 0.2083333333333428
                },
                {
                    "name": "B2",
                    "midi": 47,
                    "time": 212.50000000000034,
                    "velocity": 0.3543307086614173,
                    "duration": 0.2083333333333428
                },
                {
                    "name": "D3",
                    "midi": 50,
                    "time": 212.75000000000034,
                    "velocity": 0.3543307086614173,
                    "duration": 0.2083333333333428
                },
                {
                    "name": "G3",
                    "midi": 55,
                    "time": 213.00000000000034,
                    "velocity": 0.3543307086614173,
                    "duration": 0.2083333333333428
                },
                {
                    "name": "B3",
                    "midi": 59,
                    "time": 213.25000000000034,
                    "velocity": 0.3543307086614173,
                    "duration": 0.2083333333333428
                },
                {
                    "name": "C3",
                    "midi": 48,
                    "time": 213.50000000000034,
                    "velocity": 0.3543307086614173,
                    "duration": 0.4166666666666572
                },
                {
                    "name": "C4",
                    "midi": 60,
                    "time": 214.00000000000034,
                    "velocity": 0.3543307086614173,
                    "duration": 0.4166666666666572
                },
                {
                    "name": "B3",
                    "midi": 59,
                    "time": 214.50000000000034,
                    "velocity": 0.3543307086614173,
                    "duration": 0.4166666666666572
                },
                {
                    "name": "C4",
                    "midi": 60,
                    "time": 215.00000000000034,
                    "velocity": 0.3543307086614173,
                    "duration": 0.4166666666666572
                },
                {
                    "name": "C3",
                    "midi": 48,
                    "time": 215.50000000000034,
                    "velocity": 0.3543307086614173,
                    "duration": 0.4166666666666572
                },
                {
                    "name": "B2",
                    "midi": 47,
                    "time": 216.00000000000034,
                    "velocity": 0.3543307086614173,
                    "duration": 0.4166666666666572
                },
                {
                    "name": "C3",
                    "midi": 48,
                    "time": 216.50000000000034,
                    "velocity": 0.3543307086614173,
                    "duration": 0.4166666666666572
                },
                {
                    "name": "F3",
                    "midi": 53,
                    "time": 217.00000000000034,
                    "velocity": 0.3543307086614173,
                    "duration": 0.2083333333333428
                },
                {
                    "name": "G3",
                    "midi": 55,
                    "time": 217.25000000000034,
                    "velocity": 0.3543307086614173,
                    "duration": 0.2083333333333428
                },
                {
                    "name": "A3",
                    "midi": 57,
                    "time": 217.50000000000034,
                    "velocity": 0.3543307086614173,
                    "duration": 0.2083333333333428
                },
                {
                    "name": "B3",
                    "midi": 59,
                    "time": 217.75000000000034,
                    "velocity": 0.3543307086614173,
                    "duration": 0.2083333333333428
                },
                {
                    "name": "C4",
                    "midi": 60,
                    "time": 218.00000000000034,
                    "velocity": 0.3543307086614173,
                    "duration": 0.4166666666666572
                },
                {
                    "name": "F3",
                    "midi": 53,
                    "time": 218.50000000000034,
                    "velocity": 0.3543307086614173,
                    "duration": 0.2083333333333428
                },
                {
                    "name": "D3",
                    "midi": 50,
                    "time": 218.75000000000034,
                    "velocity": 0.3543307086614173,
                    "duration": 0.2083333333333428
                },
                {
                    "name": "E3",
                    "midi": 52,
                    "time": 219.00000000000034,
                    "velocity": 0.3543307086614173,
                    "duration": 0.2083333333333428
                },
                {
                    "name": "C3",
                    "midi": 48,
                    "time": 219.25000000000034,
                    "velocity": 0.3543307086614173,
                    "duration": 0.2083333333333428
                },
                {
                    "name": "G3",
                    "midi": 55,
                    "time": 219.50000000000034,
                    "velocity": 0.3543307086614173,
                    "duration": 0.2083333333333428
                },
                {
                    "name": "B3",
                    "midi": 59,
                    "time": 219.75000000000034,
                    "velocity": 0.3543307086614173,
                    "duration": 0.2083333333333428
                },
                {
                    "name": "C4",
                    "midi": 60,
                    "time": 220.00000000000034,
                    "velocity": 0.3543307086614173,
                    "duration": 0.2083333333333428
                },
                {
                    "name": "B3",
                    "midi": 59,
                    "time": 220.25000000000034,
                    "velocity": 0.3543307086614173,
                    "duration": 0.2083333333333428
                },
                {
                    "name": "A3",
                    "midi": 57,
                    "time": 220.50000000000034,
                    "velocity": 0.3543307086614173,
                    "duration": 0.2083333333333428
                },
                {
                    "name": "G3",
                    "midi": 55,
                    "time": 220.75000000000034,
                    "velocity": 0.3543307086614173,
                    "duration": 0.2083333333333428
                },
                {
                    "name": "G3",
                    "midi": 55,
                    "time": 221.00000000000034,
                    "velocity": 0.3543307086614173,
                    "duration": 0.4166666666666572
                },
                {
                    "name": "F#3",
                    "midi": 54,
                    "time": 221.50000000000034,
                    "velocity": 0.3543307086614173,
                    "duration": 0.4166666666666572
                },
                {
                    "name": "D3",
                    "midi": 50,
                    "time": 222.00000000000034,
                    "velocity": 0.3543307086614173,
                    "duration": 0.4166666666666572
                },
                {
                    "name": "G3",
                    "midi": 55,
                    "time": 222.50000000000034,
                    "velocity": 0.3543307086614173,
                    "duration": 0.9166666666666572
                },
                {
                    "name": "G2",
                    "midi": 43,
                    "time": 224.00000000000034,
                    "velocity": 0.3543307086614173,
                    "duration": 0.4166666666666572
                },
                {
                    "name": "G3",
                    "midi": 55,
                    "time": 224.50000000000034,
                    "velocity": 0.3543307086614173,
                    "duration": 0.4166666666666572
                },
                {
                    "name": "F#3",
                    "midi": 54,
                    "time": 225.00000000000034,
                    "velocity": 0.3543307086614173,
                    "duration": 0.4166666666666572
                },
                {
                    "name": "G3",
                    "midi": 55,
                    "time": 225.50000000000034,
                    "velocity": 0.3543307086614173,
                    "duration": 0.2083333333333428
                },
                {
                    "name": "G2",
                    "midi": 43,
                    "time": 225.75000000000034,
                    "velocity": 0.3543307086614173,
                    "duration": 0.2083333333333428
                },
                {
                    "name": "B2",
                    "midi": 47,
                    "time": 226.00000000000034,
                    "velocity": 0.3543307086614173,
                    "duration": 0.2083333333333428
                },
                {
                    "name": "A2",
                    "midi": 45,
                    "time": 226.25000000000034,
                    "velocity": 0.3543307086614173,
                    "duration": 0.2083333333333428
                },
                {
                    "name": "G3",
                    "midi": 55,
                    "time": 226.50000000000034,
                    "velocity": 0.3543307086614173,
                    "duration": 0.2083333333333428
                },
                {
                    "name": "C4",
                    "midi": 60,
                    "time": 226.75000000000034,
                    "velocity": 0.3543307086614173,
                    "duration": 0.2083333333333428
                },
                {
                    "name": "G2",
                    "midi": 43,
                    "time": 227.00000000000034,
                    "velocity": 0.3543307086614173,
                    "duration": 0.9166666666666572
                }
            ],
            "controlChanges": {
                "10": [
                    {
                        "number": 10,
                        "time": 0,
                        "value": 1
                    }
                ]
            },
            "id": 8,
            "name": "Violoncello",
            "instrumentNumber": 42,
            "instrument": "cello",
            "instrumentFamily": "strings",
            "channelNumber": 1,
            "isPercussion": false
        },
        {
            "startTime": 228,
            "duration": 251.9166666666671,
            "length": 106,
            "notes": [
                {
                    "name": "C5",
                    "midi": 72,
                    "time": 228,
                    "velocity": 1,
                    "duration": 0.4166666666666572
                },
                {
                    "name": "C5",
                    "midi": 72,
                    "time": 228.5,
                    "velocity": 1,
                    "duration": 0.125
                },
                {
                    "name": "B4",
                    "midi": 71,
                    "time": 228.625,
                    "velocity": 1,
                    "duration": 0.08333333333334281
                },
                {
                    "name": "C5",
                    "midi": 72,
                    "time": 228.70833333333334,
                    "velocity": 1,
                    "duration": 0.08333333333334281
                },
                {
                    "name": "B4",
                    "midi": 71,
                    "time": 228.79166666666669,
                    "velocity": 1,
                    "duration": 0.08333333333334281
                },
                {
                    "name": "C5",
                    "midi": 72,
                    "time": 228.87500000000003,
                    "velocity": 1,
                    "duration": 0.08333333333334281
                },
                {
                    "name": "B4",
                    "midi": 71,
                    "time": 228.95833333333337,
                    "velocity": 1,
                    "duration": 0.08333333333334281
                },
                {
                    "name": "C5",
                    "midi": 72,
                    "time": 229.0416666666667,
                    "velocity": 1,
                    "duration": 0.08333333333334281
                },
                {
                    "name": "B4",
                    "midi": 71,
                    "time": 229.12500000000006,
                    "velocity": 1,
                    "duration": 0.125
                },
                {
                    "name": "A4",
                    "midi": 69,
                    "time": 229.25000000000006,
                    "velocity": 1,
                    "duration": 0.2083333333333428
                },
                {
                    "name": "B4",
                    "midi": 71,
                    "time": 229.50000000000006,
                    "velocity": 1,
                    "duration": 0.2083333333333428
                },
                {
                    "name": "C5",
                    "midi": 72,
                    "time": 229.75000000000006,
                    "velocity": 1,
                    "duration": 0.2083333333333428
                },
                {
                    "name": "G4",
                    "midi": 67,
                    "time": 230.00000000000006,
                    "velocity": 1,
                    "duration": 0.4166666666666572
                },
                {
                    "name": "G4",
                    "midi": 67,
                    "time": 230.50000000000006,
                    "velocity": 1,
                    "duration": 0.4166666666666572
                },
                {
                    "name": "F5",
                    "midi": 77,
                    "time": 231.00000000000006,
                    "velocity": 1,
                    "duration": 0.4166666666666572
                },
                {
                    "name": "F5",
                    "midi": 77,
                    "time": 231.50000000000006,
                    "velocity": 1,
                    "duration": 0.125
                },
                {
                    "name": "E5",
                    "midi": 76,
                    "time": 231.62500000000006,
                    "velocity": 1,
                    "duration": 0.08333333333334281
                },
                {
                    "name": "F5",
                    "midi": 77,
                    "time": 231.7083333333334,
                    "velocity": 1,
                    "duration": 0.08333333333334281
                },
                {
                    "name": "E5",
                    "midi": 76,
                    "time": 231.79166666666674,
                    "velocity": 1,
                    "duration": 0.08333333333334281
                },
                {
                    "name": "F5",
                    "midi": 77,
                    "time": 231.87500000000009,
                    "velocity": 1,
                    "duration": 0.08333333333334281
                },
                {
                    "name": "E5",
                    "midi": 76,
                    "time": 231.95833333333343,
                    "velocity": 1,
                    "duration": 0.08333333333334281
                },
                {
                    "name": "F5",
                    "midi": 77,
                    "time": 232.04166666666677,
                    "velocity": 1,
                    "duration": 0.08333333333334281
                },
                {
                    "name": "E5",
                    "midi": 76,
                    "time": 232.1250000000001,
                    "velocity": 1,
                    "duration": 0.125
                },
                {
                    "name": "D5",
                    "midi": 74,
                    "time": 232.2500000000001,
                    "velocity": 1,
                    "duration": 0.2083333333333428
                },
                {
                    "name": "E5",
                    "midi": 76,
                    "time": 232.5000000000001,
                    "velocity": 1,
                    "duration": 0.2083333333333428
                },
                {
                    "name": "F5",
                    "midi": 77,
                    "time": 232.7500000000001,
                    "velocity": 1,
                    "duration": 0.2083333333333428
                },
                {
                    "name": "G5",
                    "midi": 79,
                    "time": 233.0000000000001,
                    "velocity": 1,
                    "duration": 1.4166666666666572
                },
                {
                    "name": "C6",
                    "midi": 84,
                    "time": 234.5000000000001,
                    "velocity": 1,
                    "duration": 0.2083333333333428
                },
                {
                    "name": "F5",
                    "midi": 77,
                    "time": 234.7500000000001,
                    "velocity": 1,
                    "duration": 0.25
                },
                {
                    "name": "E5",
                    "midi": 76,
                    "time": 235.0000000000001,
                    "velocity": 1,
                    "duration": 0.08333333333334281
                },
                {
                    "name": "F5",
                    "midi": 77,
                    "time": 235.08333333333346,
                    "velocity": 1,
                    "duration": 0.08333333333334281
                },
                {
                    "name": "E5",
                    "midi": 76,
                    "time": 235.1666666666668,
                    "velocity": 1,
                    "duration": 0.08333333333334281
                },
                {
                    "name": "D5",
                    "midi": 74,
                    "time": 235.25000000000014,
                    "velocity": 1,
                    "duration": 0.2083333333333428
                },
                {
                    "name": "E5",
                    "midi": 76,
                    "time": 235.50000000000014,
                    "velocity": 1,
                    "duration": 0.4166666666666572
                },
                {
                    "name": "C6",
                    "midi": 84,
                    "time": 236.00000000000014,
                    "velocity": 1,
                    "duration": 0.2083333333333428
                },
                {
                    "name": "F5",
                    "midi": 77,
                    "time": 236.25000000000014,
                    "velocity": 1,
                    "duration": 0.25
                },
                {
                    "name": "E5",
                    "midi": 76,
                    "time": 236.50000000000014,
                    "velocity": 1,
                    "duration": 0.08333333333334281
                },
                {
                    "name": "F5",
                    "midi": 77,
                    "time": 236.58333333333348,
                    "velocity": 1,
                    "duration": 0.08333333333334281
                },
                {
                    "name": "E5",
                    "midi": 76,
                    "time": 236.66666666666683,
                    "velocity": 1,
                    "duration": 0.08333333333334281
                },
                {
                    "name": "D5",
                    "midi": 74,
                    "time": 236.75000000000017,
                    "velocity": 1,
                    "duration": 0.2083333333333428
                },
                {
                    "name": "E5",
                    "midi": 76,
                    "time": 237.00000000000017,
                    "velocity": 1,
                    "duration": 0.4166666666666572
                },
                {
                    "name": "A5",
                    "midi": 81,
                    "time": 237.50000000000017,
                    "velocity": 1,
                    "duration": 0.2083333333333428
                },
                {
                    "name": "G5",
                    "midi": 79,
                    "time": 237.75000000000017,
                    "velocity": 1,
                    "duration": 0.2083333333333428
                },
                {
                    "name": "F5",
                    "midi": 77,
                    "time": 238.00000000000017,
                    "velocity": 1,
                    "duration": 0.2083333333333428
                },
                {
                    "name": "E5",
                    "midi": 76,
                    "time": 238.25000000000017,
                    "velocity": 1,
                    "duration": 0.2083333333333428
                },
                {
                    "name": "D5",
                    "midi": 74,
                    "time": 238.50000000000017,
                    "velocity": 1,
                    "duration": 0.2083333333333428
                },
                {
                    "name": "C5",
                    "midi": 72,
                    "time": 238.75000000000017,
                    "velocity": 1,
                    "duration": 0.2083333333333428
                },
                {
                    "name": "C5",
                    "midi": 72,
                    "time": 239.00000000000017,
                    "velocity": 1,
                    "duration": 0.08333333333334281
                },
                {
                    "name": "B4",
                    "midi": 71,
                    "time": 239.0833333333335,
                    "velocity": 1,
                    "duration": 0.08333333333334281
                },
                {
                    "name": "C5",
                    "midi": 72,
                    "time": 239.16666666666686,
                    "velocity": 1,
                    "duration": 0.08333333333334281
                },
                {
                    "name": "B4",
                    "midi": 71,
                    "time": 239.2500000000002,
                    "velocity": 1,
                    "duration": 0.08333333333334281
                },
                {
                    "name": "C5",
                    "midi": 72,
                    "time": 239.33333333333354,
                    "velocity": 1,
                    "duration": 0.08333333333334281
                },
                {
                    "name": "B4",
                    "midi": 71,
                    "time": 239.41666666666688,
                    "velocity": 1,
                    "duration": 0.08333333333334281
                },
                {
                    "name": "A4",
                    "midi": 69,
                    "time": 239.50000000000023,
                    "velocity": 1,
                    "duration": 0.25
                },
                {
                    "name": "G4",
                    "midi": 67,
                    "time": 239.75000000000023,
                    "velocity": 1,
                    "duration": 0.2083333333333428
                },
                {
                    "name": "C5",
                    "midi": 72,
                    "time": 240.00000000000023,
                    "velocity": 1,
                    "duration": 0.4166666666666572
                },
                {
                    "name": "C5",
                    "midi": 72,
                    "time": 240.50000000000023,
                    "velocity": 1,
                    "duration": 0.125
                },
                {
                    "name": "B4",
                    "midi": 71,
                    "time": 240.62500000000023,
                    "velocity": 1,
                    "duration": 0.08333333333334281
                },
                {
                    "name": "C5",
                    "midi": 72,
                    "time": 240.70833333333357,
                    "velocity": 1,
                    "duration": 0.08333333333334281
                },
                {
                    "name": "B4",
                    "midi": 71,
                    "time": 240.7916666666669,
                    "velocity": 1,
                    "duration": 0.08333333333334281
                },
                {
                    "name": "C5",
                    "midi": 72,
                    "time": 240.87500000000026,
                    "velocity": 1,
                    "duration": 0.08333333333334281
                },
                {
                    "name": "B4",
                    "midi": 71,
                    "time": 240.9583333333336,
                    "velocity": 1,
                    "duration": 0.08333333333334281
                },
                {
                    "name": "C5",
                    "midi": 72,
                    "time": 241.04166666666694,
                    "velocity": 1,
                    "duration": 0.08333333333334281
                },
                {
                    "name": "B4",
                    "midi": 71,
                    "time": 241.12500000000028,
                    "velocity": 1,
                    "duration": 0.125
                },
                {
                    "name": "A4",
                    "midi": 69,
                    "time": 241.25000000000028,
                    "velocity": 1,
                    "duration": 0.2083333333333428
                },
                {
                    "name": "B4",
                    "midi": 71,
                    "time": 241.50000000000028,
                    "velocity": 1,
                    "duration": 0.2083333333333428
                },
                {
                    "name": "C5",
                    "midi": 72,
                    "time": 241.75000000000028,
                    "velocity": 1,
                    "duration": 0.2083333333333428
                },
                {
                    "name": "G4",
                    "midi": 67,
                    "time": 242.00000000000028,
                    "velocity": 1,
                    "duration": 0.4166666666666572
                },
                {
                    "name": "G4",
                    "midi": 67,
                    "time": 242.50000000000028,
                    "velocity": 1,
                    "duration": 0.4166666666666572
                },
                {
                    "name": "F5",
                    "midi": 77,
                    "time": 243.00000000000028,
                    "velocity": 1,
                    "duration": 0.4166666666666572
                },
                {
                    "name": "F5",
                    "midi": 77,
                    "time": 243.50000000000028,
                    "velocity": 1,
                    "duration": 0.125
                },
                {
                    "name": "E5",
                    "midi": 76,
                    "time": 243.62500000000028,
                    "velocity": 1,
                    "duration": 0.08333333333334281
                },
                {
                    "name": "F5",
                    "midi": 77,
                    "time": 243.70833333333363,
                    "velocity": 1,
                    "duration": 0.08333333333334281
                },
                {
                    "name": "E5",
                    "midi": 76,
                    "time": 243.79166666666697,
                    "velocity": 1,
                    "duration": 0.08333333333334281
                },
                {
                    "name": "F5",
                    "midi": 77,
                    "time": 243.8750000000003,
                    "velocity": 1,
                    "duration": 0.08333333333334281
                },
                {
                    "name": "E5",
                    "midi": 76,
                    "time": 243.95833333333366,
                    "velocity": 1,
                    "duration": 0.08333333333334281
                },
                {
                    "name": "F5",
                    "midi": 77,
                    "time": 244.041666666667,
                    "velocity": 1,
                    "duration": 0.08333333333334281
                },
                {
                    "name": "E5",
                    "midi": 76,
                    "time": 244.12500000000034,
                    "velocity": 1,
                    "duration": 0.125
                },
                {
                    "name": "D5",
                    "midi": 74,
                    "time": 244.25000000000034,
                    "velocity": 1,
                    "duration": 0.2083333333333428
                },
                {
                    "name": "E5",
                    "midi": 76,
                    "time": 244.50000000000034,
                    "velocity": 1,
                    "duration": 0.2083333333333428
                },
                {
                    "name": "F5",
                    "midi": 77,
                    "time": 244.75000000000034,
                    "velocity": 1,
                    "duration": 0.2083333333333428
                },
                {
                    "name": "G5",
                    "midi": 79,
                    "time": 245.00000000000034,
                    "velocity": 1,
                    "duration": 1.4166666666666572
                },
                {
                    "name": "C6",
                    "midi": 84,
                    "time": 246.50000000000034,
                    "velocity": 1,
                    "duration": 0.2083333333333428
                },
                {
                    "name": "F5",
                    "midi": 77,
                    "time": 246.75000000000034,
                    "velocity": 1,
                    "duration": 0.25
                },
                {
                    "name": "E5",
                    "midi": 76,
                    "time": 247.00000000000034,
                    "velocity": 1,
                    "duration": 0.08333333333334281
                },
                {
                    "name": "F5",
                    "midi": 77,
                    "time": 247.08333333333368,
                    "velocity": 1,
                    "duration": 0.08333333333334281
                },
                {
                    "name": "E5",
                    "midi": 76,
                    "time": 247.16666666666703,
                    "velocity": 1,
                    "duration": 0.08333333333334281
                },
                {
                    "name": "D5",
                    "midi": 74,
                    "time": 247.25000000000037,
                    "velocity": 1,
                    "duration": 0.2083333333333428
                },
                {
                    "name": "E5",
                    "midi": 76,
                    "time": 247.50000000000037,
                    "velocity": 1,
                    "duration": 0.4166666666666572
                },
                {
                    "name": "A5",
                    "midi": 81,
                    "time": 248.00000000000037,
                    "velocity": 1,
                    "duration": 0.2083333333333428
                },
                {
                    "name": "G5",
                    "midi": 79,
                    "time": 248.25000000000037,
                    "velocity": 1,
                    "duration": 0.2083333333333428
                },
                {
                    "name": "F5",
                    "midi": 77,
                    "time": 248.50000000000037,
                    "velocity": 1,
                    "duration": 0.2083333333333428
                },
                {
                    "name": "E5",
                    "midi": 76,
                    "time": 248.75000000000037,
                    "velocity": 1,
                    "duration": 0.2083333333333428
                },
                {
                    "name": "D5",
                    "midi": 74,
                    "time": 249.00000000000037,
                    "velocity": 1,
                    "duration": 0.2083333333333428
                },
                {
                    "name": "C5",
                    "midi": 72,
                    "time": 249.25000000000037,
                    "velocity": 1,
                    "duration": 0.2083333333333428
                },
                {
                    "name": "E5",
                    "midi": 76,
                    "time": 249.50000000000037,
                    "velocity": 1,
                    "duration": 0.1666666666666572
                },
                {
                    "name": "D5",
                    "midi": 74,
                    "time": 249.66666666666703,
                    "velocity": 1,
                    "duration": 0.1666666666666572
                },
                {
                    "name": "C5",
                    "midi": 72,
                    "time": 249.83333333333368,
                    "velocity": 1,
                    "duration": 0.1458333333333428
                },
                {
                    "name": "D5",
                    "midi": 74,
                    "time": 250.00000000000037,
                    "velocity": 1,
                    "duration": 0.4166666666666572
                },
                {
                    "name": "C5",
                    "midi": 72,
                    "time": 250.50000000000037,
                    "velocity": 1,
                    "duration": 0.08333333333334281
                },
                {
                    "name": "B4",
                    "midi": 71,
                    "time": 250.5833333333337,
                    "velocity": 1,
                    "duration": 0.08333333333334281
                },
                {
                    "name": "C5",
                    "midi": 72,
                    "time": 250.66666666666706,
                    "velocity": 1,
                    "duration": 0.08333333333334281
                },
                {
                    "name": "B4",
                    "midi": 71,
                    "time": 250.7500000000004,
                    "velocity": 1,
                    "duration": 0.08333333333334281
                },
                {
                    "name": "C5",
                    "midi": 72,
                    "time": 250.83333333333374,
                    "velocity": 1,
                    "duration": 0.08333333333334281
                },
                {
                    "name": "B4",
                    "midi": 71,
                    "time": 250.91666666666708,
                    "velocity": 1,
                    "duration": 0.08333333333334281
                },
                {
                    "name": "C5",
                    "midi": 72,
                    "time": 251.00000000000043,
                    "velocity": 1,
                    "duration": 0.9166666666666856
                }
            ],
            "controlChanges": {
                "10": [
                    {
                        "number": 10,
                        "time": 0,
                        "value": 0
                    }
                ]
            },
            "id": 9,
            "name": "Musette",
            "instrumentNumber": 74,
            "instrument": "recorder",
            "instrumentFamily": "pipe",
            "channelNumber": 0,
            "isPercussion": false
        },
        {
            "startTime": 229.5,
            "duration": 251.91666666666686,
            "length": 80,
            "notes": [
                {
                    "name": "G3",
                    "midi": 55,
                    "time": 229.5,
                    "velocity": 0.3858267716535433,
                    "duration": 0.4166666666666572
                },
                {
                    "name": "F3",
                    "midi": 53,
                    "time": 230,
                    "velocity": 0.3858267716535433,
                    "duration": 0.125
                },
                {
                    "name": "E3",
                    "midi": 52,
                    "time": 230.125,
                    "velocity": 0.3858267716535433,
                    "duration": 0.08333333333334281
                },
                {
                    "name": "F3",
                    "midi": 53,
                    "time": 230.20833333333334,
                    "velocity": 0.3858267716535433,
                    "duration": 0.08333333333334281
                },
                {
                    "name": "E3",
                    "midi": 52,
                    "time": 230.29166666666669,
                    "velocity": 0.3858267716535433,
                    "duration": 0.08333333333334281
                },
                {
                    "name": "F3",
                    "midi": 53,
                    "time": 230.37500000000003,
                    "velocity": 0.3858267716535433,
                    "duration": 0.08333333333334281
                },
                {
                    "name": "E3",
                    "midi": 52,
                    "time": 230.45833333333337,
                    "velocity": 0.3858267716535433,
                    "duration": 0.08333333333334281
                },
                {
                    "name": "F3",
                    "midi": 53,
                    "time": 230.5416666666667,
                    "velocity": 0.3858267716535433,
                    "duration": 0.08333333333334281
                },
                {
                    "name": "E3",
                    "midi": 52,
                    "time": 230.62500000000006,
                    "velocity": 0.3858267716535433,
                    "duration": 0.125
                },
                {
                    "name": "D3",
                    "midi": 50,
                    "time": 230.75000000000006,
                    "velocity": 0.3858267716535433,
                    "duration": 0.2083333333333428
                },
                {
                    "name": "C3",
                    "midi": 48,
                    "time": 231.00000000000006,
                    "velocity": 0.3858267716535433,
                    "duration": 0.2083333333333428
                },
                {
                    "name": "B2",
                    "midi": 47,
                    "time": 231.25000000000006,
                    "velocity": 0.3858267716535433,
                    "duration": 0.2083333333333428
                },
                {
                    "name": "C3",
                    "midi": 48,
                    "time": 231.50000000000006,
                    "velocity": 0.3858267716535433,
                    "duration": 0.671875
                },
                {
                    "name": "G2",
                    "midi": 43,
                    "time": 232.25000000000006,
                    "velocity": 0.3858267716535433,
                    "duration": 0.2083333333333428
                },
                {
                    "name": "C3",
                    "midi": 48,
                    "time": 232.50000000000006,
                    "velocity": 0.3858267716535433,
                    "duration": 0.2083333333333428
                },
                {
                    "name": "D3",
                    "midi": 50,
                    "time": 232.75000000000006,
                    "velocity": 0.3858267716535433,
                    "duration": 0.2083333333333428
                },
                {
                    "name": "E3",
                    "midi": 52,
                    "time": 233.00000000000006,
                    "velocity": 0.3858267716535433,
                    "duration": 0.2083333333333428
                },
                {
                    "name": "D3",
                    "midi": 50,
                    "time": 233.25000000000006,
                    "velocity": 0.3858267716535433,
                    "duration": 0.2083333333333428
                },
                {
                    "name": "C3",
                    "midi": 48,
                    "time": 233.50000000000006,
                    "velocity": 0.3858267716535433,
                    "duration": 0.2083333333333428
                },
                {
                    "name": "B2",
                    "midi": 47,
                    "time": 233.75000000000006,
                    "velocity": 0.3858267716535433,
                    "duration": 0.2083333333333428
                },
                {
                    "name": "C3",
                    "midi": 48,
                    "time": 234.00000000000006,
                    "velocity": 0.3858267716535433,
                    "duration": 0.4166666666666572
                },
                {
                    "name": "E4",
                    "midi": 64,
                    "time": 234.50000000000006,
                    "velocity": 0.3858267716535433,
                    "duration": 0.2083333333333428
                },
                {
                    "name": "D4",
                    "midi": 62,
                    "time": 234.75000000000006,
                    "velocity": 0.3858267716535433,
                    "duration": 0.25
                },
                {
                    "name": "C4",
                    "midi": 60,
                    "time": 235.00000000000006,
                    "velocity": 0.3858267716535433,
                    "duration": 0.08333333333334281
                },
                {
                    "name": "D4",
                    "midi": 62,
                    "time": 235.0833333333334,
                    "velocity": 0.3858267716535433,
                    "duration": 0.08333333333334281
                },
                {
                    "name": "C4",
                    "midi": 60,
                    "time": 235.16666666666674,
                    "velocity": 0.3858267716535433,
                    "duration": 0.08333333333334281
                },
                {
                    "name": "B3",
                    "midi": 59,
                    "time": 235.25000000000009,
                    "velocity": 0.3858267716535433,
                    "duration": 0.2083333333333428
                },
                {
                    "name": "C4",
                    "midi": 60,
                    "time": 235.50000000000009,
                    "velocity": 0.3858267716535433,
                    "duration": 0.4166666666666572
                },
                {
                    "name": "E3",
                    "midi": 52,
                    "time": 236.00000000000009,
                    "velocity": 0.3858267716535433,
                    "duration": 0.2083333333333428
                },
                {
                    "name": "D3",
                    "midi": 50,
                    "time": 236.25000000000009,
                    "velocity": 0.3858267716535433,
                    "duration": 0.25
                },
                {
                    "name": "C3",
                    "midi": 48,
                    "time": 236.50000000000009,
                    "velocity": 0.3858267716535433,
                    "duration": 0.08333333333334281
                },
                {
                    "name": "D3",
                    "midi": 50,
                    "time": 236.58333333333343,
                    "velocity": 0.3858267716535433,
                    "duration": 0.08333333333334281
                },
                {
                    "name": "C3",
                    "midi": 48,
                    "time": 236.66666666666677,
                    "velocity": 0.3858267716535433,
                    "duration": 0.08333333333334281
                },
                {
                    "name": "B2",
                    "midi": 47,
                    "time": 236.7500000000001,
                    "velocity": 0.3858267716535433,
                    "duration": 0.2083333333333428
                },
                {
                    "name": "C3",
                    "midi": 48,
                    "time": 237.0000000000001,
                    "velocity": 0.3858267716535433,
                    "duration": 0.4166666666666572
                },
                {
                    "name": "F3",
                    "midi": 53,
                    "time": 237.5000000000001,
                    "velocity": 0.3858267716535433,
                    "duration": 0.2083333333333428
                },
                {
                    "name": "G3",
                    "midi": 55,
                    "time": 237.7500000000001,
                    "velocity": 0.3858267716535433,
                    "duration": 0.2083333333333428
                },
                {
                    "name": "A3",
                    "midi": 57,
                    "time": 238.0000000000001,
                    "velocity": 0.3858267716535433,
                    "duration": 0.4166666666666572
                },
                {
                    "name": "F3",
                    "midi": 53,
                    "time": 238.5000000000001,
                    "velocity": 0.3858267716535433,
                    "duration": 0.4166666666666572
                },
                {
                    "name": "G3",
                    "midi": 55,
                    "time": 239.0000000000001,
                    "velocity": 0.3858267716535433,
                    "duration": 0.2083333333333428
                },
                {
                    "name": "F3",
                    "midi": 53,
                    "time": 239.2500000000001,
                    "velocity": 0.3858267716535433,
                    "duration": 0.2083333333333428
                },
                {
                    "name": "E3",
                    "midi": 52,
                    "time": 239.5000000000001,
                    "velocity": 0.3858267716535433,
                    "duration": 0.2083333333333428
                },
                {
                    "name": "D3",
                    "midi": 50,
                    "time": 239.7500000000001,
                    "velocity": 0.3858267716535433,
                    "duration": 0.2083333333333428
                },
                {
                    "name": "E3",
                    "midi": 52,
                    "time": 240.0000000000001,
                    "velocity": 0.3858267716535433,
                    "duration": 0.2083333333333428
                },
                {
                    "name": "C3",
                    "midi": 48,
                    "time": 240.2500000000001,
                    "velocity": 0.3858267716535433,
                    "duration": 0.2083333333333428
                },
                {
                    "name": "G3",
                    "midi": 55,
                    "time": 240.5000000000001,
                    "velocity": 0.3858267716535433,
                    "duration": 0.4166666666666572
                },
                {
                    "name": "G2",
                    "midi": 43,
                    "time": 241.0000000000001,
                    "velocity": 0.3858267716535433,
                    "duration": 0.4166666666666572
                },
                {
                    "name": "G3",
                    "midi": 55,
                    "time": 241.5000000000001,
                    "velocity": 0.3858267716535433,
                    "duration": 0.4166666666666572
                },
                {
                    "name": "F3",
                    "midi": 53,
                    "time": 242.0000000000001,
                    "velocity": 0.3858267716535433,
                    "duration": 0.125
                },
                {
                    "name": "E3",
                    "midi": 52,
                    "time": 242.1250000000001,
                    "velocity": 0.3858267716535433,
                    "duration": 0.08333333333334281
                },
                {
                    "name": "F3",
                    "midi": 53,
                    "time": 242.20833333333346,
                    "velocity": 0.3858267716535433,
                    "duration": 0.08333333333334281
                },
                {
                    "name": "E3",
                    "midi": 52,
                    "time": 242.2916666666668,
                    "velocity": 0.3858267716535433,
                    "duration": 0.08333333333334281
                },
                {
                    "name": "F3",
                    "midi": 53,
                    "time": 242.37500000000014,
                    "velocity": 0.3858267716535433,
                    "duration": 0.08333333333334281
                },
                {
                    "name": "E3",
                    "midi": 52,
                    "time": 242.45833333333348,
                    "velocity": 0.3858267716535433,
                    "duration": 0.08333333333334281
                },
                {
                    "name": "F3",
                    "midi": 53,
                    "time": 242.54166666666683,
                    "velocity": 0.3858267716535433,
                    "duration": 0.08333333333334281
                },
                {
                    "name": "E3",
                    "midi": 52,
                    "time": 242.62500000000017,
                    "velocity": 0.3858267716535433,
                    "duration": 0.125
                },
                {
                    "name": "D3",
                    "midi": 50,
                    "time": 242.75000000000017,
                    "velocity": 0.3858267716535433,
                    "duration": 0.2083333333333428
                },
                {
                    "name": "C3",
                    "midi": 48,
                    "time": 243.00000000000017,
                    "velocity": 0.3858267716535433,
                    "duration": 0.2083333333333428
                },
                {
                    "name": "B2",
                    "midi": 47,
                    "time": 243.25000000000017,
                    "velocity": 0.3858267716535433,
                    "duration": 0.2083333333333428
                },
                {
                    "name": "C3",
                    "midi": 48,
                    "time": 243.50000000000017,
                    "velocity": 0.3858267716535433,
                    "duration": 0.671875
                },
                {
                    "name": "G2",
                    "midi": 43,
                    "time": 244.25000000000017,
                    "velocity": 0.3858267716535433,
                    "duration": 0.2083333333333428
                },
                {
                    "name": "C3",
                    "midi": 48,
                    "time": 244.50000000000017,
                    "velocity": 0.3858267716535433,
                    "duration": 0.2083333333333428
                },
                {
                    "name": "D3",
                    "midi": 50,
                    "time": 244.75000000000017,
                    "velocity": 0.3858267716535433,
                    "duration": 0.2083333333333428
                },
                {
                    "name": "E3",
                    "midi": 52,
                    "time": 245.00000000000017,
                    "velocity": 0.3858267716535433,
                    "duration": 0.2083333333333428
                },
                {
                    "name": "D3",
                    "midi": 50,
                    "time": 245.25000000000017,
                    "velocity": 0.3858267716535433,
                    "duration": 0.2083333333333428
                },
                {
                    "name": "C3",
                    "midi": 48,
                    "time": 245.50000000000017,
                    "velocity": 0.3858267716535433,
                    "duration": 0.2083333333333428
                },
                {
                    "name": "B2",
                    "midi": 47,
                    "time": 245.75000000000017,
                    "velocity": 0.3858267716535433,
                    "duration": 0.2083333333333428
                },
                {
                    "name": "C3",
                    "midi": 48,
                    "time": 246.00000000000017,
                    "velocity": 0.3858267716535433,
                    "duration": 0.4166666666666572
                },
                {
                    "name": "E4",
                    "midi": 64,
                    "time": 246.50000000000017,
                    "velocity": 0.3858267716535433,
                    "duration": 0.2083333333333428
                },
                {
                    "name": "D4",
                    "midi": 62,
                    "time": 246.75000000000017,
                    "velocity": 0.3858267716535433,
                    "duration": 0.2083333333333428
                },
                {
                    "name": "C4",
                    "midi": 60,
                    "time": 247.00000000000017,
                    "velocity": 0.3858267716535433,
                    "duration": 0.2083333333333428
                },
                {
                    "name": "B3",
                    "midi": 59,
                    "time": 247.25000000000017,
                    "velocity": 0.3858267716535433,
                    "duration": 0.2083333333333428
                },
                {
                    "name": "C4",
                    "midi": 60,
                    "time": 247.50000000000017,
                    "velocity": 0.3858267716535433,
                    "duration": 0.4166666666666572
                },
                {
                    "name": "F3",
                    "midi": 53,
                    "time": 248.00000000000017,
                    "velocity": 0.3858267716535433,
                    "duration": 0.2083333333333428
                },
                {
                    "name": "G3",
                    "midi": 55,
                    "time": 248.25000000000017,
                    "velocity": 0.3858267716535433,
                    "duration": 0.2083333333333428
                },
                {
                    "name": "A3",
                    "midi": 57,
                    "time": 248.50000000000017,
                    "velocity": 0.3858267716535433,
                    "duration": 0.4166666666666572
                },
                {
                    "name": "F3",
                    "midi": 53,
                    "time": 249.00000000000017,
                    "velocity": 0.3858267716535433,
                    "duration": 0.4166666666666572
                },
                {
                    "name": "G3",
                    "midi": 55,
                    "time": 249.50000000000017,
                    "velocity": 0.3858267716535433,
                    "duration": 0.4166666666666572
                },
                {
                    "name": "G2",
                    "midi": 43,
                    "time": 250.00000000000017,
                    "velocity": 0.3858267716535433,
                    "duration": 0.9166666666666572
                },
                {
                    "name": "C3",
                    "midi": 48,
                    "time": 251.00000000000017,
                    "velocity": 0.3858267716535433,
                    "duration": 0.9166666666666856
                }
            ],
            "controlChanges": {
                "10": [
                    {
                        "number": 10,
                        "time": 0,
                        "value": 1
                    }
                ]
            },
            "id": 10,
            "name": "Violoncello",
            "instrumentNumber": 42,
            "instrument": "cello",
            "instrumentFamily": "strings",
            "channelNumber": 1,
            "isPercussion": false
        },
        {
            "startTime": 0,
            "duration": 0,
            "length": 0,
            "notes": [],
            "controlChanges": {},
            "id": 11
        },
        {
            "startTime": 0,
            "duration": 0,
            "length": 0,
            "notes": [],
            "controlChanges": {},
            "id": 12
        },
        {
            "startTime": 0,
            "duration": 0,
            "length": 0,
            "notes": [],
            "controlChanges": {},
            "id": 13
        },
        {
            "startTime": 0,
            "duration": 0,
            "length": 0,
            "notes": [],
            "controlChanges": {},
            "id": 14
        },
        {
            "startTime": 0,
            "duration": 0,
            "length": 0,
            "notes": [],
            "controlChanges": {},
            "id": 15
        },
        {
            "startTime": 0,
            "duration": 0,
            "length": 0,
            "notes": [],
            "controlChanges": {},
            "id": 16
        }
    ]
}