{
    "header": {
        "PPQ": 384,
        "timeSignature": [
            6,
            8
        ],
        "bpm": 96,
        "name": "JS BACH: CONCERTO BWV 982"
    },
    "startTime": 0,
    "duration": 440.3059895833333,
    "tracks": [
        {
            "startTime": 0,
            "duration": 0,
            "length": 0,
            "notes": [],
            "controlChanges": {},
            "id": 0
        },
        {
            "startTime": 0,
            "duration": 0,
            "length": 0,
            "notes": [],
            "controlChanges": {},
            "id": 1,
            "name": "JS BACH: CONCERTO BWV 982"
        },
        {
            "startTime": 0,
            "duration": 0,
            "length": 0,
            "notes": [],
            "controlChanges": {},
            "id": 2,
            "name": "SEQUENCE (c) 1997 BY T.L. HUBEART JR."
        },
        {
            "startTime": 0,
            "duration": 440.3059895833333,
            "length": 853,
            "notes": [
                {
                    "name": "A#3",
                    "midi": 58,
                    "time": 0,
                    "velocity": 0.8346456692913385,
                    "duration": 0.3059895833333333
                },
                {
                    "name": "A#4",
                    "midi": 70,
                    "time": 0.3125,
                    "velocity": 0.8346456692913385,
                    "duration": 0.14973958333333337
                },
                {
                    "name": "C5",
                    "midi": 72,
                    "time": 0.46875000000000006,
                    "velocity": 0.8346456692913385,
                    "duration": 0.14973958333333331
                },
                {
                    "name": "D5",
                    "midi": 74,
                    "time": 0.625,
                    "velocity": 0.8346456692913385,
                    "duration": 0.30598958333333326
                },
                {
                    "name": "F5",
                    "midi": 77,
                    "time": 0.9374999999999999,
                    "velocity": 0.8346456692913385,
                    "duration": 0.30598958333333337
                },
                {
                    "name": "D5",
                    "midi": 74,
                    "time": 0.9374999999999999,
                    "velocity": 0.8346456692913385,
                    "duration": 0.30598958333333337
                },
                {
                    "name": "A#4",
                    "midi": 70,
                    "time": 0.9374999999999999,
                    "velocity": 0.8346456692913385,
                    "duration": 0.30598958333333337
                },
                {
                    "name": "D5",
                    "midi": 74,
                    "time": 1.25,
                    "velocity": 0.8346456692913385,
                    "duration": 0.30598958333333326
                },
                {
                    "name": "A#4",
                    "midi": 70,
                    "time": 1.25,
                    "velocity": 0.8346456692913385,
                    "duration": 0.30598958333333326
                },
                {
                    "name": "F4",
                    "midi": 65,
                    "time": 1.25,
                    "velocity": 0.8346456692913385,
                    "duration": 0.30598958333333326
                },
                {
                    "name": "A#4",
                    "midi": 70,
                    "time": 1.5625,
                    "velocity": 0.8346456692913385,
                    "duration": 0.30598958333333326
                },
                {
                    "name": "F4",
                    "midi": 65,
                    "time": 1.5625,
                    "velocity": 0.8346456692913385,
                    "duration": 0.30598958333333326
                },
                {
                    "name": "D4",
                    "midi": 62,
                    "time": 1.5625,
                    "velocity": 0.8346456692913385,
                    "duration": 0.30598958333333326
                },
                {
                    "name": "A#4",
                    "midi": 70,
                    "time": 2.1875,
                    "velocity": 0.8346456692913385,
                    "duration": 0.14973958333333348
                },
                {
                    "name": "C5",
                    "midi": 72,
                    "time": 2.34375,
                    "velocity": 0.8346456692913385,
                    "duration": 0.14973958333333348
                },
                {
                    "name": "D5",
                    "midi": 74,
                    "time": 2.5,
                    "velocity": 0.8346456692913385,
                    "duration": 0.3059895833333335
                },
                {
                    "name": "F5",
                    "midi": 77,
                    "time": 2.8125,
                    "velocity": 0.8346456692913385,
                    "duration": 0.3059895833333335
                },
                {
                    "name": "D5",
                    "midi": 74,
                    "time": 3.125,
                    "velocity": 0.8346456692913385,
                    "duration": 0.3059895833333335
                },
                {
                    "name": "A#4",
                    "midi": 70,
                    "time": 3.4375,
                    "velocity": 0.8346456692913385,
                    "duration": 0.3059895833333335
                },
                {
                    "name": "C4",
                    "midi": 60,
                    "time": 3.75,
                    "velocity": 0.8346456692913385,
                    "duration": 0.30598958333333304
                },
                {
                    "name": "C5",
                    "midi": 72,
                    "time": 4.0625,
                    "velocity": 0.8346456692913385,
                    "duration": 0.14973958333333304
                },
                {
                    "name": "D5",
                    "midi": 74,
                    "time": 4.21875,
                    "velocity": 0.8346456692913385,
                    "duration": 0.14973958333333304
                },
                {
                    "name": "D#5",
                    "midi": 75,
                    "time": 4.375,
                    "velocity": 0.8346456692913385,
                    "duration": 0.30598958333333304
                },
                {
                    "name": "G5",
                    "midi": 79,
                    "time": 4.6875,
                    "velocity": 0.8346456692913385,
                    "duration": 0.30598958333333304
                },
                {
                    "name": "D#5",
                    "midi": 75,
                    "time": 4.6875,
                    "velocity": 0.8346456692913385,
                    "duration": 0.30598958333333304
                },
                {
                    "name": "C5",
                    "midi": 72,
                    "time": 4.6875,
                    "velocity": 0.8346456692913385,
                    "duration": 0.30598958333333304
                },
                {
                    "name": "C5",
                    "midi": 72,
                    "time": 5,
                    "velocity": 0.8346456692913385,
                    "duration": 0.30598958333333304
                },
                {
                    "name": "D#5",
                    "midi": 75,
                    "time": 5,
                    "velocity": 0.8346456692913385,
                    "duration": 0.30598958333333304
                },
                {
                    "name": "G4",
                    "midi": 67,
                    "time": 5,
                    "velocity": 0.8346456692913385,
                    "duration": 0.30598958333333304
                },
                {
                    "name": "C5",
                    "midi": 72,
                    "time": 5.3125,
                    "velocity": 0.8346456692913385,
                    "duration": 0.30598958333333304
                },
                {
                    "name": "G4",
                    "midi": 67,
                    "time": 5.3125,
                    "velocity": 0.8346456692913385,
                    "duration": 0.30598958333333304
                },
                {
                    "name": "D#4",
                    "midi": 63,
                    "time": 5.3125,
                    "velocity": 0.8346456692913385,
                    "duration": 0.30598958333333304
                },
                {
                    "name": "C5",
                    "midi": 72,
                    "time": 5.9375,
                    "velocity": 0.8346456692913385,
                    "duration": 0.14973958333333304
                },
                {
                    "name": "D5",
                    "midi": 74,
                    "time": 6.09375,
                    "velocity": 0.8346456692913385,
                    "duration": 0.14973958333333304
                },
                {
                    "name": "D#5",
                    "midi": 75,
                    "time": 6.25,
                    "velocity": 0.8346456692913385,
                    "duration": 0.30598958333333304
                },
                {
                    "name": "G5",
                    "midi": 79,
                    "time": 6.5625,
                    "velocity": 0.8346456692913385,
                    "duration": 0.30598958333333304
                },
                {
                    "name": "D#5",
                    "midi": 75,
                    "time": 6.875,
                    "velocity": 0.8346456692913385,
                    "duration": 0.30598958333333304
                },
                {
                    "name": "C5",
                    "midi": 72,
                    "time": 7.1875,
                    "velocity": 0.8346456692913385,
                    "duration": 0.30598958333333304
                },
                {
                    "name": "D4",
                    "midi": 62,
                    "time": 7.5,
                    "velocity": 0.8346456692913385,
                    "duration": 0.30598958333333304
                },
                {
                    "name": "D5",
                    "midi": 74,
                    "time": 7.8125,
                    "velocity": 0.8346456692913385,
                    "duration": 0.14973958333333304
                },
                {
                    "name": "D#5",
                    "midi": 75,
                    "time": 7.96875,
                    "velocity": 0.8346456692913385,
                    "duration": 0.14973958333333393
                },
                {
                    "name": "F5",
                    "midi": 77,
                    "time": 8.125,
                    "velocity": 0.8346456692913385,
                    "duration": 0.3059895833333339
                },
                {
                    "name": "A#5",
                    "midi": 82,
                    "time": 8.4375,
                    "velocity": 0.8346456692913385,
                    "duration": 0.3059895833333339
                },
                {
                    "name": "F5",
                    "midi": 77,
                    "time": 8.4375,
                    "velocity": 0.8346456692913385,
                    "duration": 0.3059895833333339
                },
                {
                    "name": "D5",
                    "midi": 74,
                    "time": 8.4375,
                    "velocity": 0.8346456692913385,
                    "duration": 0.3059895833333339
                },
                {
                    "name": "F5",
                    "midi": 77,
                    "time": 8.75,
                    "velocity": 0.8346456692913385,
                    "duration": 0.3059895833333339
                },
                {
                    "name": "D5",
                    "midi": 74,
                    "time": 8.75,
                    "velocity": 0.8346456692913385,
                    "duration": 0.3059895833333339
                },
                {
                    "name": "A#4",
                    "midi": 70,
                    "time": 8.75,
                    "velocity": 0.8346456692913385,
                    "duration": 0.3059895833333339
                },
                {
                    "name": "D5",
                    "midi": 74,
                    "time": 9.0625,
                    "velocity": 0.8346456692913385,
                    "duration": 0.3059895833333339
                },
                {
                    "name": "A#4",
                    "midi": 70,
                    "time": 9.0625,
                    "velocity": 0.8346456692913385,
                    "duration": 0.3059895833333339
                },
                {
                    "name": "F4",
                    "midi": 65,
                    "time": 9.0625,
                    "velocity": 0.8346456692913385,
                    "duration": 0.3059895833333339
                },
                {
                    "name": "D5",
                    "midi": 74,
                    "time": 9.6875,
                    "velocity": 0.8346456692913385,
                    "duration": 0.14973958333333393
                },
                {
                    "name": "D#5",
                    "midi": 75,
                    "time": 9.84375,
                    "velocity": 0.8346456692913385,
                    "duration": 0.14973958333333393
                },
                {
                    "name": "F5",
                    "midi": 77,
                    "time": 10,
                    "velocity": 0.8346456692913385,
                    "duration": 0.3059895833333339
                },
                {
                    "name": "A#5",
                    "midi": 82,
                    "time": 10.3125,
                    "velocity": 0.8346456692913385,
                    "duration": 0.3059895833333339
                },
                {
                    "name": "F5",
                    "midi": 77,
                    "time": 10.625,
                    "velocity": 0.8346456692913385,
                    "duration": 0.3059895833333339
                },
                {
                    "name": "D5",
                    "midi": 74,
                    "time": 10.9375,
                    "velocity": 0.8346456692913385,
                    "duration": 0.3059895833333339
                },
                {
                    "name": "G5",
                    "midi": 79,
                    "time": 11.25,
                    "velocity": 0.8346456692913385,
                    "duration": 0.14973958333333393
                },
                {
                    "name": "F5",
                    "midi": 77,
                    "time": 11.40625,
                    "velocity": 0.8346456692913385,
                    "duration": 0.14973958333333393
                },
                {
                    "name": "D#5",
                    "midi": 75,
                    "time": 11.5625,
                    "velocity": 0.8346456692913385,
                    "duration": 0.14973958333333393
                },
                {
                    "name": "D5",
                    "midi": 74,
                    "time": 11.71875,
                    "velocity": 0.8346456692913385,
                    "duration": 0.14973958333333393
                },
                {
                    "name": "D#5",
                    "midi": 75,
                    "time": 11.875,
                    "velocity": 0.8346456692913385,
                    "duration": 0.14973958333333393
                },
                {
                    "name": "D5",
                    "midi": 74,
                    "time": 12.03125,
                    "velocity": 0.8346456692913385,
                    "duration": 0.14973958333333393
                },
                {
                    "name": "C5",
                    "midi": 72,
                    "time": 12.1875,
                    "velocity": 0.8346456692913385,
                    "duration": 0.14973958333333393
                },
                {
                    "name": "A#4",
                    "midi": 70,
                    "time": 12.34375,
                    "velocity": 0.8346456692913385,
                    "duration": 0.14973958333333393
                },
                {
                    "name": "C5",
                    "midi": 72,
                    "time": 12.5,
                    "velocity": 0.8346456692913385,
                    "duration": 0.14973958333333393
                },
                {
                    "name": "A#4",
                    "midi": 70,
                    "time": 12.65625,
                    "velocity": 0.8346456692913385,
                    "duration": 0.14973958333333393
                },
                {
                    "name": "A4",
                    "midi": 69,
                    "time": 12.8125,
                    "velocity": 0.8346456692913385,
                    "duration": 0.14973958333333393
                },
                {
                    "name": "G4",
                    "midi": 67,
                    "time": 12.96875,
                    "velocity": 0.8346456692913385,
                    "duration": 0.14973958333333393
                },
                {
                    "name": "F4",
                    "midi": 65,
                    "time": 13.125,
                    "velocity": 0.8346456692913385,
                    "duration": 0.3059895833333339
                },
                {
                    "name": "A#4",
                    "midi": 70,
                    "time": 13.4375,
                    "velocity": 0.8346456692913385,
                    "duration": 0.3059895833333339
                },
                {
                    "name": "F4",
                    "midi": 65,
                    "time": 13.4375,
                    "velocity": 0.8346456692913385,
                    "duration": 0.3059895833333339
                },
                {
                    "name": "D4",
                    "midi": 62,
                    "time": 13.4375,
                    "velocity": 0.8346456692913385,
                    "duration": 0.3059895833333339
                },
                {
                    "name": "F4",
                    "midi": 65,
                    "time": 13.75,
                    "velocity": 0.8346456692913385,
                    "duration": 1.2434895833333357
                },
                {
                    "name": "C4",
                    "midi": 60,
                    "time": 13.75,
                    "velocity": 0.8346456692913385,
                    "duration": 1.2434895833333357
                },
                {
                    "name": "A#4",
                    "midi": 70,
                    "time": 13.75,
                    "velocity": 0.8346456692913385,
                    "duration": 0.14973958333333393
                },
                {
                    "name": "A4",
                    "midi": 69,
                    "time": 13.828125,
                    "velocity": 0.8346456692913385,
                    "duration": 0.14973958333333393
                },
                {
                    "name": "A#4",
                    "midi": 70,
                    "time": 13.90625,
                    "velocity": 0.8346456692913385,
                    "duration": 0.14973958333333393
                },
                {
                    "name": "A4",
                    "midi": 69,
                    "time": 13.984375,
                    "velocity": 0.8346456692913385,
                    "duration": 0.14973958333333393
                },
                {
                    "name": "A#4",
                    "midi": 70,
                    "time": 14.0625,
                    "velocity": 0.8346456692913385,
                    "duration": 0.14973958333333393
                },
                {
                    "name": "A4",
                    "midi": 69,
                    "time": 14.147135416666668,
                    "velocity": 0.8346456692913385,
                    "duration": 0.3125
                },
                {
                    "name": "A#4",
                    "midi": 70,
                    "time": 14.687500000000002,
                    "velocity": 0.8346456692913385,
                    "duration": 0.3059895833333339
                },
                {
                    "name": "A#4",
                    "midi": 70,
                    "time": 15.000000000000002,
                    "velocity": 0.8346456692913385,
                    "duration": 0.3059895833333339
                },
                {
                    "name": "F4",
                    "midi": 65,
                    "time": 15.000000000000002,
                    "velocity": 0.8346456692913385,
                    "duration": 0.3059895833333339
                },
                {
                    "name": "D4",
                    "midi": 62,
                    "time": 15.000000000000002,
                    "velocity": 0.8346456692913385,
                    "duration": 0.3059895833333339
                },
                {
                    "name": "G4",
                    "midi": 67,
                    "time": 49.0625,
                    "velocity": 0.8346456692913385,
                    "duration": 0.1497395833333357
                },
                {
                    "name": "A4",
                    "midi": 69,
                    "time": 49.21875,
                    "velocity": 0.8346456692913385,
                    "duration": 0.1497395833333357
                },
                {
                    "name": "A#4",
                    "midi": 70,
                    "time": 49.375,
                    "velocity": 0.8346456692913385,
                    "duration": 0.3059895833333357
                },
                {
                    "name": "D5",
                    "midi": 74,
                    "time": 49.6875,
                    "velocity": 0.8346456692913385,
                    "duration": 0.3059895833333357
                },
                {
                    "name": "A#4",
                    "midi": 70,
                    "time": 49.6875,
                    "velocity": 0.8346456692913385,
                    "duration": 0.3059895833333357
                },
                {
                    "name": "G4",
                    "midi": 67,
                    "time": 49.6875,
                    "velocity": 0.8346456692913385,
                    "duration": 0.3059895833333357
                },
                {
                    "name": "A#4",
                    "midi": 70,
                    "time": 50,
                    "velocity": 0.8346456692913385,
                    "duration": 0.3059895833333357
                },
                {
                    "name": "G4",
                    "midi": 67,
                    "time": 50,
                    "velocity": 0.8346456692913385,
                    "duration": 0.3059895833333357
                },
                {
                    "name": "D4",
                    "midi": 62,
                    "time": 50,
                    "velocity": 0.8346456692913385,
                    "duration": 0.3059895833333357
                },
                {
                    "name": "G4",
                    "midi": 67,
                    "time": 50.3125,
                    "velocity": 0.8346456692913385,
                    "duration": 0.3059895833333357
                },
                {
                    "name": "D4",
                    "midi": 62,
                    "time": 50.3125,
                    "velocity": 0.8346456692913385,
                    "duration": 0.3059895833333357
                },
                {
                    "name": "A#3",
                    "midi": 58,
                    "time": 50.3125,
                    "velocity": 0.8346456692913385,
                    "duration": 0.3059895833333357
                },
                {
                    "name": "G4",
                    "midi": 67,
                    "time": 50.9375,
                    "velocity": 0.8346456692913385,
                    "duration": 0.1497395833333357
                },
                {
                    "name": "A4",
                    "midi": 69,
                    "time": 51.09375,
                    "velocity": 0.8346456692913385,
                    "duration": 0.1497395833333357
                },
                {
                    "name": "A#4",
                    "midi": 70,
                    "time": 51.25,
                    "velocity": 0.8346456692913385,
                    "duration": 0.3059895833333357
                },
                {
                    "name": "D5",
                    "midi": 74,
                    "time": 51.5625,
                    "velocity": 0.8346456692913385,
                    "duration": 0.3059895833333357
                },
                {
                    "name": "A#4",
                    "midi": 70,
                    "time": 51.5625,
                    "velocity": 0.8346456692913385,
                    "duration": 0.3059895833333357
                },
                {
                    "name": "G4",
                    "midi": 67,
                    "time": 51.5625,
                    "velocity": 0.8346456692913385,
                    "duration": 0.3059895833333357
                },
                {
                    "name": "A#4",
                    "midi": 70,
                    "time": 51.875,
                    "velocity": 0.8346456692913385,
                    "duration": 0.3059895833333357
                },
                {
                    "name": "G4",
                    "midi": 67,
                    "time": 51.875,
                    "velocity": 0.8346456692913385,
                    "duration": 0.3059895833333357
                },
                {
                    "name": "D4",
                    "midi": 62,
                    "time": 51.875,
                    "velocity": 0.8346456692913385,
                    "duration": 0.3059895833333357
                },
                {
                    "name": "G4",
                    "midi": 67,
                    "time": 52.1875,
                    "velocity": 0.8346456692913385,
                    "duration": 0.3059895833333357
                },
                {
                    "name": "D4",
                    "midi": 62,
                    "time": 52.1875,
                    "velocity": 0.8346456692913385,
                    "duration": 0.3059895833333357
                },
                {
                    "name": "A#3",
                    "midi": 58,
                    "time": 52.1875,
                    "velocity": 0.8346456692913385,
                    "duration": 0.3059895833333357
                },
                {
                    "name": "B3",
                    "midi": 59,
                    "time": 52.5,
                    "velocity": 0.8346456692913385,
                    "duration": 0.3059895833333357
                },
                {
                    "name": "G4",
                    "midi": 67,
                    "time": 52.8125,
                    "velocity": 0.8346456692913385,
                    "duration": 0.1497395833333357
                },
                {
                    "name": "A4",
                    "midi": 69,
                    "time": 52.96875,
                    "velocity": 0.8346456692913385,
                    "duration": 0.1497395833333357
                },
                {
                    "name": "B4",
                    "midi": 71,
                    "time": 53.125,
                    "velocity": 0.8346456692913385,
                    "duration": 0.3059895833333357
                },
                {
                    "name": "D5",
                    "midi": 74,
                    "time": 53.4375,
                    "velocity": 0.8346456692913385,
                    "duration": 0.3059895833333357
                },
                {
                    "name": "B4",
                    "midi": 71,
                    "time": 53.4375,
                    "velocity": 0.8346456692913385,
                    "duration": 0.3059895833333357
                },
                {
                    "name": "G4",
                    "midi": 67,
                    "time": 53.4375,
                    "velocity": 0.8346456692913385,
                    "duration": 0.3059895833333357
                },
                {
                    "name": "B4",
                    "midi": 71,
                    "time": 53.75,
                    "velocity": 0.8346456692913385,
                    "duration": 0.3059895833333357
                },
                {
                    "name": "G4",
                    "midi": 67,
                    "time": 53.75,
                    "velocity": 0.8346456692913385,
                    "duration": 0.3059895833333357
                },
                {
                    "name": "D4",
                    "midi": 62,
                    "time": 53.75,
                    "velocity": 0.8346456692913385,
                    "duration": 0.3059895833333357
                },
                {
                    "name": "G4",
                    "midi": 67,
                    "time": 54.0625,
                    "velocity": 0.8346456692913385,
                    "duration": 0.3059895833333357
                },
                {
                    "name": "D4",
                    "midi": 62,
                    "time": 54.0625,
                    "velocity": 0.8346456692913385,
                    "duration": 0.3059895833333357
                },
                {
                    "name": "B3",
                    "midi": 59,
                    "time": 54.0625,
                    "velocity": 0.8346456692913385,
                    "duration": 0.3059895833333357
                },
                {
                    "name": "B3",
                    "midi": 59,
                    "time": 54.375,
                    "velocity": 0.8346456692913385,
                    "duration": 0.3059895833333357
                },
                {
                    "name": "G4",
                    "midi": 67,
                    "time": 54.6875,
                    "velocity": 0.8346456692913385,
                    "duration": 0.1497395833333357
                },
                {
                    "name": "A4",
                    "midi": 69,
                    "time": 54.84375,
                    "velocity": 0.8346456692913385,
                    "duration": 0.1497395833333357
                },
                {
                    "name": "B4",
                    "midi": 71,
                    "time": 55,
                    "velocity": 0.8346456692913385,
                    "duration": 0.3059895833333357
                },
                {
                    "name": "D5",
                    "midi": 74,
                    "time": 55.3125,
                    "velocity": 0.8346456692913385,
                    "duration": 0.3059895833333357
                },
                {
                    "name": "B4",
                    "midi": 71,
                    "time": 55.3125,
                    "velocity": 0.8346456692913385,
                    "duration": 0.3059895833333357
                },
                {
                    "name": "G4",
                    "midi": 67,
                    "time": 55.3125,
                    "velocity": 0.8346456692913385,
                    "duration": 0.3059895833333357
                },
                {
                    "name": "B4",
                    "midi": 71,
                    "time": 55.625,
                    "velocity": 0.8346456692913385,
                    "duration": 0.3059895833333357
                },
                {
                    "name": "G4",
                    "midi": 67,
                    "time": 55.625,
                    "velocity": 0.8346456692913385,
                    "duration": 0.3059895833333357
                },
                {
                    "name": "D4",
                    "midi": 62,
                    "time": 55.625,
                    "velocity": 0.8346456692913385,
                    "duration": 0.3059895833333357
                },
                {
                    "name": "G4",
                    "midi": 67,
                    "time": 55.9375,
                    "velocity": 0.8346456692913385,
                    "duration": 0.3059895833333357
                },
                {
                    "name": "D4",
                    "midi": 62,
                    "time": 55.9375,
                    "velocity": 0.8346456692913385,
                    "duration": 0.3059895833333357
                },
                {
                    "name": "B3",
                    "midi": 59,
                    "time": 55.9375,
                    "velocity": 0.8346456692913385,
                    "duration": 0.3059895833333357
                },
                {
                    "name": "C4",
                    "midi": 60,
                    "time": 56.25,
                    "velocity": 0.8346456692913385,
                    "duration": 0.3059895833333357
                },
                {
                    "name": "C5",
                    "midi": 72,
                    "time": 56.5625,
                    "velocity": 0.8346456692913385,
                    "duration": 0.1497395833333357
                },
                {
                    "name": "D5",
                    "midi": 74,
                    "time": 56.71875,
                    "velocity": 0.8346456692913385,
                    "duration": 0.1497395833333357
                },
                {
                    "name": "D#5",
                    "midi": 75,
                    "time": 56.875,
                    "velocity": 0.8346456692913385,
                    "duration": 0.3059895833333357
                },
                {
                    "name": "G5",
                    "midi": 79,
                    "time": 57.1875,
                    "velocity": 0.8346456692913385,
                    "duration": 0.3059895833333357
                },
                {
                    "name": "D#5",
                    "midi": 75,
                    "time": 57.1875,
                    "velocity": 0.8346456692913385,
                    "duration": 0.3059895833333357
                },
                {
                    "name": "C5",
                    "midi": 72,
                    "time": 57.1875,
                    "velocity": 0.8346456692913385,
                    "duration": 0.3059895833333357
                },
                {
                    "name": "D#5",
                    "midi": 75,
                    "time": 57.5,
                    "velocity": 0.8346456692913385,
                    "duration": 0.3059895833333357
                },
                {
                    "name": "C5",
                    "midi": 72,
                    "time": 57.5,
                    "velocity": 0.8346456692913385,
                    "duration": 0.3059895833333357
                },
                {
                    "name": "G4",
                    "midi": 67,
                    "time": 57.5,
                    "velocity": 0.8346456692913385,
                    "duration": 0.3059895833333357
                },
                {
                    "name": "C5",
                    "midi": 72,
                    "time": 57.8125,
                    "velocity": 0.8346456692913385,
                    "duration": 0.3059895833333357
                },
                {
                    "name": "G4",
                    "midi": 67,
                    "time": 57.8125,
                    "velocity": 0.8346456692913385,
                    "duration": 0.3059895833333357
                },
                {
                    "name": "D#4",
                    "midi": 63,
                    "time": 57.8125,
                    "velocity": 0.8346456692913385,
                    "duration": 0.3059895833333357
                },
                {
                    "name": "C4",
                    "midi": 60,
                    "time": 58.125,
                    "velocity": 0.8346456692913385,
                    "duration": 0.3059895833333357
                },
                {
                    "name": "C5",
                    "midi": 72,
                    "time": 58.4375,
                    "velocity": 0.8346456692913385,
                    "duration": 0.1497395833333357
                },
                {
                    "name": "D5",
                    "midi": 74,
                    "time": 58.59375,
                    "velocity": 0.8346456692913385,
                    "duration": 0.1497395833333357
                },
                {
                    "name": "D#5",
                    "midi": 75,
                    "time": 58.75,
                    "velocity": 0.8346456692913385,
                    "duration": 0.3059895833333357
                },
                {
                    "name": "G5",
                    "midi": 79,
                    "time": 59.0625,
                    "velocity": 0.8346456692913385,
                    "duration": 0.3059895833333357
                },
                {
                    "name": "D#5",
                    "midi": 75,
                    "time": 59.0625,
                    "velocity": 0.8346456692913385,
                    "duration": 0.3059895833333357
                },
                {
                    "name": "C5",
                    "midi": 72,
                    "time": 59.0625,
                    "velocity": 0.8346456692913385,
                    "duration": 0.3059895833333357
                },
                {
                    "name": "D#5",
                    "midi": 75,
                    "time": 59.375,
                    "velocity": 0.8346456692913385,
                    "duration": 0.3059895833333357
                },
                {
                    "name": "C5",
                    "midi": 72,
                    "time": 59.375,
                    "velocity": 0.8346456692913385,
                    "duration": 0.3059895833333357
                },
                {
                    "name": "G4",
                    "midi": 67,
                    "time": 59.375,
                    "velocity": 0.8346456692913385,
                    "duration": 0.3059895833333357
                },
                {
                    "name": "C5",
                    "midi": 72,
                    "time": 59.6875,
                    "velocity": 0.8346456692913385,
                    "duration": 0.3059895833333357
                },
                {
                    "name": "G4",
                    "midi": 67,
                    "time": 59.6875,
                    "velocity": 0.8346456692913385,
                    "duration": 0.3059895833333357
                },
                {
                    "name": "D#4",
                    "midi": 63,
                    "time": 59.6875,
                    "velocity": 0.8346456692913385,
                    "duration": 0.3059895833333357
                },
                {
                    "name": "D4",
                    "midi": 62,
                    "time": 60,
                    "velocity": 0.8346456692913385,
                    "duration": 0.3059895833333357
                },
                {
                    "name": "D5",
                    "midi": 74,
                    "time": 60.3125,
                    "velocity": 0.8346456692913385,
                    "duration": 0.1497395833333357
                },
                {
                    "name": "D#5",
                    "midi": 75,
                    "time": 60.46875,
                    "velocity": 0.8346456692913385,
                    "duration": 0.1497395833333357
                },
                {
                    "name": "F5",
                    "midi": 77,
                    "time": 60.625,
                    "velocity": 0.8346456692913385,
                    "duration": 0.3059895833333357
                },
                {
                    "name": "G#5",
                    "midi": 80,
                    "time": 60.9375,
                    "velocity": 0.8346456692913385,
                    "duration": 0.3059895833333357
                },
                {
                    "name": "F5",
                    "midi": 77,
                    "time": 60.9375,
                    "velocity": 0.8346456692913385,
                    "duration": 0.3059895833333357
                },
                {
                    "name": "D5",
                    "midi": 74,
                    "time": 60.9375,
                    "velocity": 0.8346456692913385,
                    "duration": 0.3059895833333357
                },
                {
                    "name": "F5",
                    "midi": 77,
                    "time": 61.25,
                    "velocity": 0.8346456692913385,
                    "duration": 0.3059895833333357
                },
                {
                    "name": "D5",
                    "midi": 74,
                    "time": 61.25,
                    "velocity": 0.8346456692913385,
                    "duration": 0.3059895833333357
                },
                {
                    "name": "G#4",
                    "midi": 68,
                    "time": 61.25,
                    "velocity": 0.8346456692913385,
                    "duration": 0.3059895833333357
                },
                {
                    "name": "D5",
                    "midi": 74,
                    "time": 61.5625,
                    "velocity": 0.8346456692913385,
                    "duration": 0.3059895833333357
                },
                {
                    "name": "G#4",
                    "midi": 68,
                    "time": 61.5625,
                    "velocity": 0.8346456692913385,
                    "duration": 0.3059895833333357
                },
                {
                    "name": "F4",
                    "midi": 65,
                    "time": 61.5625,
                    "velocity": 0.8346456692913385,
                    "duration": 0.3059895833333357
                },
                {
                    "name": "D4",
                    "midi": 62,
                    "time": 61.875,
                    "velocity": 0.8346456692913385,
                    "duration": 0.3059895833333357
                },
                {
                    "name": "D5",
                    "midi": 74,
                    "time": 62.1875,
                    "velocity": 0.8346456692913385,
                    "duration": 0.1497395833333357
                },
                {
                    "name": "D#5",
                    "midi": 75,
                    "time": 62.34375,
                    "velocity": 0.8346456692913385,
                    "duration": 0.1497395833333357
                },
                {
                    "name": "F5",
                    "midi": 77,
                    "time": 62.5,
                    "velocity": 0.8346456692913385,
                    "duration": 0.3059895833333357
                },
                {
                    "name": "G#5",
                    "midi": 80,
                    "time": 62.8125,
                    "velocity": 0.8346456692913385,
                    "duration": 0.3059895833333357
                },
                {
                    "name": "F5",
                    "midi": 77,
                    "time": 62.8125,
                    "velocity": 0.8346456692913385,
                    "duration": 0.3059895833333357
                },
                {
                    "name": "D5",
                    "midi": 74,
                    "time": 62.8125,
                    "velocity": 0.8346456692913385,
                    "duration": 0.3059895833333357
                },
                {
                    "name": "F5",
                    "midi": 77,
                    "time": 63.125,
                    "velocity": 0.8346456692913385,
                    "duration": 0.3059895833333357
                },
                {
                    "name": "D5",
                    "midi": 74,
                    "time": 63.125,
                    "velocity": 0.8346456692913385,
                    "duration": 0.3059895833333357
                },
                {
                    "name": "G#4",
                    "midi": 68,
                    "time": 63.125,
                    "velocity": 0.8346456692913385,
                    "duration": 0.3059895833333357
                },
                {
                    "name": "D5",
                    "midi": 74,
                    "time": 63.4375,
                    "velocity": 0.8346456692913385,
                    "duration": 0.3059895833333357
                },
                {
                    "name": "G#4",
                    "midi": 68,
                    "time": 63.4375,
                    "velocity": 0.8346456692913385,
                    "duration": 0.3059895833333357
                },
                {
                    "name": "F4",
                    "midi": 65,
                    "time": 63.4375,
                    "velocity": 0.8346456692913385,
                    "duration": 0.3059895833333357
                },
                {
                    "name": "D#5",
                    "midi": 75,
                    "time": 63.75,
                    "velocity": 0.8346456692913385,
                    "duration": 0.1497395833333357
                },
                {
                    "name": "C5",
                    "midi": 72,
                    "time": 63.90625,
                    "velocity": 0.8346456692913385,
                    "duration": 0.1497395833333286
                },
                {
                    "name": "G4",
                    "midi": 67,
                    "time": 64.0625,
                    "velocity": 0.8346456692913385,
                    "duration": 0.1497395833333286
                },
                {
                    "name": "B4",
                    "midi": 71,
                    "time": 64.21875,
                    "velocity": 0.8346456692913385,
                    "duration": 0.1497395833333286
                },
                {
                    "name": "C5",
                    "midi": 72,
                    "time": 64.375,
                    "velocity": 0.8346456692913385,
                    "duration": 0.1497395833333286
                },
                {
                    "name": "G4",
                    "midi": 67,
                    "time": 64.53125,
                    "velocity": 0.8346456692913385,
                    "duration": 0.1497395833333286
                },
                {
                    "name": "D#4",
                    "midi": 63,
                    "time": 64.6875,
                    "velocity": 0.8346456692913385,
                    "duration": 0.1497395833333286
                },
                {
                    "name": "C4",
                    "midi": 60,
                    "time": 64.84375,
                    "velocity": 0.8346456692913385,
                    "duration": 0.1497395833333286
                },
                {
                    "name": "D4",
                    "midi": 62,
                    "time": 65,
                    "velocity": 0.8346456692913385,
                    "duration": 0.1497395833333286
                },
                {
                    "name": "F4",
                    "midi": 65,
                    "time": 65.15625,
                    "velocity": 0.8346456692913385,
                    "duration": 0.1497395833333286
                },
                {
                    "name": "C5",
                    "midi": 72,
                    "time": 65.3125,
                    "velocity": 0.8346456692913385,
                    "duration": 0.1497395833333286
                },
                {
                    "name": "B4",
                    "midi": 71,
                    "time": 65.46875,
                    "velocity": 0.8346456692913385,
                    "duration": 0.1497395833333286
                },
                {
                    "name": "G3",
                    "midi": 55,
                    "time": 101.25,
                    "velocity": 0.8346456692913385,
                    "duration": 0.3059895833333286
                },
                {
                    "name": "G4",
                    "midi": 67,
                    "time": 101.5625,
                    "velocity": 0.8346456692913385,
                    "duration": 0.1497395833333286
                },
                {
                    "name": "A4",
                    "midi": 69,
                    "time": 101.71875,
                    "velocity": 0.8346456692913385,
                    "duration": 0.1497395833333286
                },
                {
                    "name": "A#4",
                    "midi": 70,
                    "time": 101.875,
                    "velocity": 0.8346456692913385,
                    "duration": 0.3059895833333286
                },
                {
                    "name": "D5",
                    "midi": 74,
                    "time": 102.1875,
                    "velocity": 0.8346456692913385,
                    "duration": 0.3059895833333286
                },
                {
                    "name": "A#4",
                    "midi": 70,
                    "time": 102.1875,
                    "velocity": 0.8346456692913385,
                    "duration": 0.3059895833333286
                },
                {
                    "name": "G4",
                    "midi": 67,
                    "time": 102.1875,
                    "velocity": 0.8346456692913385,
                    "duration": 0.3059895833333286
                },
                {
                    "name": "A#4",
                    "midi": 70,
                    "time": 102.5,
                    "velocity": 0.8346456692913385,
                    "duration": 0.3059895833333286
                },
                {
                    "name": "G4",
                    "midi": 67,
                    "time": 102.5,
                    "velocity": 0.8346456692913385,
                    "duration": 0.3059895833333286
                },
                {
                    "name": "D4",
                    "midi": 62,
                    "time": 102.5,
                    "velocity": 0.8346456692913385,
                    "duration": 0.3059895833333286
                },
                {
                    "name": "G4",
                    "midi": 67,
                    "time": 102.8125,
                    "velocity": 0.8346456692913385,
                    "duration": 0.3059895833333286
                },
                {
                    "name": "D4",
                    "midi": 62,
                    "time": 102.8125,
                    "velocity": 0.8346456692913385,
                    "duration": 0.3059895833333286
                },
                {
                    "name": "A#3",
                    "midi": 58,
                    "time": 102.8125,
                    "velocity": 0.8346456692913385,
                    "duration": 0.3059895833333286
                },
                {
                    "name": "G4",
                    "midi": 67,
                    "time": 103.4375,
                    "velocity": 0.8346456692913385,
                    "duration": 0.1497395833333286
                },
                {
                    "name": "A4",
                    "midi": 69,
                    "time": 103.59375,
                    "velocity": 0.8346456692913385,
                    "duration": 0.1497395833333286
                },
                {
                    "name": "A#4",
                    "midi": 70,
                    "time": 103.75,
                    "velocity": 0.8346456692913385,
                    "duration": 0.3059895833333286
                },
                {
                    "name": "D5",
                    "midi": 74,
                    "time": 104.0625,
                    "velocity": 0.8346456692913385,
                    "duration": 0.3059895833333286
                },
                {
                    "name": "A#4",
                    "midi": 70,
                    "time": 104.375,
                    "velocity": 0.8346456692913385,
                    "duration": 0.3059895833333286
                },
                {
                    "name": "G4",
                    "midi": 67,
                    "time": 104.6875,
                    "velocity": 0.8346456692913385,
                    "duration": 0.3059895833333286
                },
                {
                    "name": "A3",
                    "midi": 57,
                    "time": 105,
                    "velocity": 0.8346456692913385,
                    "duration": 0.3059895833333286
                },
                {
                    "name": "A4",
                    "midi": 69,
                    "time": 105.3125,
                    "velocity": 0.8346456692913385,
                    "duration": 0.1497395833333286
                },
                {
                    "name": "A#4",
                    "midi": 70,
                    "time": 105.46875,
                    "velocity": 0.8346456692913385,
                    "duration": 0.1497395833333286
                },
                {
                    "name": "C5",
                    "midi": 72,
                    "time": 105.625,
                    "velocity": 0.8346456692913385,
                    "duration": 0.3059895833333286
                },
                {
                    "name": "F5",
                    "midi": 77,
                    "time": 105.9375,
                    "velocity": 0.8346456692913385,
                    "duration": 0.3059895833333286
                },
                {
                    "name": "C5",
                    "midi": 72,
                    "time": 105.9375,
                    "velocity": 0.8346456692913385,
                    "duration": 0.3059895833333286
                },
                {
                    "name": "A4",
                    "midi": 69,
                    "time": 105.9375,
                    "velocity": 0.8346456692913385,
                    "duration": 0.3059895833333286
                },
                {
                    "name": "C5",
                    "midi": 72,
                    "time": 106.25,
                    "velocity": 0.8346456692913385,
                    "duration": 0.3059895833333286
                },
                {
                    "name": "A4",
                    "midi": 69,
                    "time": 106.25,
                    "velocity": 0.8346456692913385,
                    "duration": 0.3059895833333286
                },
                {
                    "name": "F4",
                    "midi": 65,
                    "time": 106.25,
                    "velocity": 0.8346456692913385,
                    "duration": 0.3059895833333286
                },
                {
                    "name": "A4",
                    "midi": 69,
                    "time": 106.5625,
                    "velocity": 0.8346456692913385,
                    "duration": 0.3059895833333286
                },
                {
                    "name": "F4",
                    "midi": 65,
                    "time": 106.5625,
                    "velocity": 0.8346456692913385,
                    "duration": 0.3059895833333286
                },
                {
                    "name": "C4",
                    "midi": 60,
                    "time": 106.5625,
                    "velocity": 0.8346456692913385,
                    "duration": 0.3059895833333286
                },
                {
                    "name": "A4",
                    "midi": 69,
                    "time": 107.1875,
                    "velocity": 0.8346456692913385,
                    "duration": 0.1497395833333286
                },
                {
                    "name": "A#4",
                    "midi": 70,
                    "time": 107.34375,
                    "velocity": 0.8346456692913385,
                    "duration": 0.1497395833333286
                },
                {
                    "name": "C5",
                    "midi": 72,
                    "time": 107.5,
                    "velocity": 0.8346456692913385,
                    "duration": 0.3059895833333286
                },
                {
                    "name": "F5",
                    "midi": 77,
                    "time": 107.8125,
                    "velocity": 0.8346456692913385,
                    "duration": 0.3059895833333286
                },
                {
                    "name": "C5",
                    "midi": 72,
                    "time": 108.125,
                    "velocity": 0.8346456692913385,
                    "duration": 0.3059895833333286
                },
                {
                    "name": "A4",
                    "midi": 69,
                    "time": 108.4375,
                    "velocity": 0.8346456692913385,
                    "duration": 0.3059895833333286
                },
                {
                    "name": "A#3",
                    "midi": 58,
                    "time": 108.75,
                    "velocity": 0.8346456692913385,
                    "duration": 0.3059895833333286
                },
                {
                    "name": "D5",
                    "midi": 74,
                    "time": 109.0625,
                    "velocity": 0.8346456692913385,
                    "duration": 0.1497395833333286
                },
                {
                    "name": "D#5",
                    "midi": 75,
                    "time": 109.21875,
                    "velocity": 0.8346456692913385,
                    "duration": 0.1497395833333286
                },
                {
                    "name": "F5",
                    "midi": 77,
                    "time": 109.375,
                    "velocity": 0.8346456692913385,
                    "duration": 0.3059895833333286
                },
                {
                    "name": "A#5",
                    "midi": 82,
                    "time": 109.6875,
                    "velocity": 0.8346456692913385,
                    "duration": 0.3059895833333286
                },
                {
                    "name": "F5",
                    "midi": 77,
                    "time": 109.6875,
                    "velocity": 0.8346456692913385,
                    "duration": 0.3059895833333286
                },
                {
                    "name": "D5",
                    "midi": 74,
                    "time": 109.6875,
                    "velocity": 0.8346456692913385,
                    "duration": 0.3059895833333286
                },
                {
                    "name": "F5",
                    "midi": 77,
                    "time": 110,
                    "velocity": 0.8346456692913385,
                    "duration": 0.3059895833333286
                },
                {
                    "name": "D5",
                    "midi": 74,
                    "time": 110,
                    "velocity": 0.8346456692913385,
                    "duration": 0.3059895833333286
                },
                {
                    "name": "A#4",
                    "midi": 70,
                    "time": 110,
                    "velocity": 0.8346456692913385,
                    "duration": 0.3059895833333286
                },
                {
                    "name": "D5",
                    "midi": 74,
                    "time": 110.3125,
                    "velocity": 0.8346456692913385,
                    "duration": 0.3059895833333286
                },
                {
                    "name": "A#4",
                    "midi": 70,
                    "time": 110.3125,
                    "velocity": 0.8346456692913385,
                    "duration": 0.3059895833333286
                },
                {
                    "name": "F4",
                    "midi": 65,
                    "time": 110.3125,
                    "velocity": 0.8346456692913385,
                    "duration": 0.3059895833333286
                },
                {
                    "name": "D5",
                    "midi": 74,
                    "time": 110.9375,
                    "velocity": 0.8346456692913385,
                    "duration": 0.1497395833333286
                },
                {
                    "name": "D#5",
                    "midi": 75,
                    "time": 111.09375,
                    "velocity": 0.8346456692913385,
                    "duration": 0.1497395833333286
                },
                {
                    "name": "F5",
                    "midi": 77,
                    "time": 111.25,
                    "velocity": 0.8346456692913385,
                    "duration": 0.3059895833333286
                },
                {
                    "name": "A#5",
                    "midi": 82,
                    "time": 111.5625,
                    "velocity": 0.8346456692913385,
                    "duration": 0.3059895833333286
                },
                {
                    "name": "F5",
                    "midi": 77,
                    "time": 111.875,
                    "velocity": 0.8346456692913385,
                    "duration": 0.3059895833333286
                },
                {
                    "name": "D5",
                    "midi": 74,
                    "time": 112.1875,
                    "velocity": 0.8346456692913385,
                    "duration": 0.3059895833333286
                },
                {
                    "name": "A#4",
                    "midi": 70,
                    "time": 127.8125,
                    "velocity": 0.8346456692913385,
                    "duration": 0.1497395833333286
                },
                {
                    "name": "C5",
                    "midi": 72,
                    "time": 127.96875,
                    "velocity": 0.8346456692913385,
                    "duration": 0.1497395833333428
                },
                {
                    "name": "D5",
                    "midi": 74,
                    "time": 128.125,
                    "velocity": 0.8346456692913385,
                    "duration": 0.3059895833333428
                },
                {
                    "name": "F5",
                    "midi": 77,
                    "time": 128.4375,
                    "velocity": 0.8346456692913385,
                    "duration": 0.3059895833333428
                },
                {
                    "name": "D5",
                    "midi": 74,
                    "time": 128.4375,
                    "velocity": 0.8346456692913385,
                    "duration": 0.3059895833333428
                },
                {
                    "name": "A#4",
                    "midi": 70,
                    "time": 128.4375,
                    "velocity": 0.8346456692913385,
                    "duration": 0.3059895833333428
                },
                {
                    "name": "D5",
                    "midi": 74,
                    "time": 128.75,
                    "velocity": 0.8346456692913385,
                    "duration": 0.3059895833333428
                },
                {
                    "name": "A#4",
                    "midi": 70,
                    "time": 128.75,
                    "velocity": 0.8346456692913385,
                    "duration": 0.3059895833333428
                },
                {
                    "name": "F4",
                    "midi": 65,
                    "time": 128.75,
                    "velocity": 0.8346456692913385,
                    "duration": 0.3059895833333428
                },
                {
                    "name": "A#4",
                    "midi": 70,
                    "time": 129.0625,
                    "velocity": 0.8346456692913385,
                    "duration": 0.3059895833333428
                },
                {
                    "name": "F4",
                    "midi": 65,
                    "time": 129.0625,
                    "velocity": 0.8346456692913385,
                    "duration": 0.3059895833333428
                },
                {
                    "name": "D4",
                    "midi": 62,
                    "time": 129.0625,
                    "velocity": 0.8346456692913385,
                    "duration": 0.3059895833333428
                },
                {
                    "name": "A#4",
                    "midi": 70,
                    "time": 129.6875,
                    "velocity": 0.8346456692913385,
                    "duration": 0.1497395833333428
                },
                {
                    "name": "C5",
                    "midi": 72,
                    "time": 129.84375,
                    "velocity": 0.8346456692913385,
                    "duration": 0.1497395833333428
                },
                {
                    "name": "D5",
                    "midi": 74,
                    "time": 130,
                    "velocity": 0.8346456692913385,
                    "duration": 0.3059895833333428
                },
                {
                    "name": "F5",
                    "midi": 77,
                    "time": 130.3125,
                    "velocity": 0.8346456692913385,
                    "duration": 0.3059895833333428
                },
                {
                    "name": "D5",
                    "midi": 74,
                    "time": 130.625,
                    "velocity": 0.8346456692913385,
                    "duration": 0.3059895833333428
                },
                {
                    "name": "A#4",
                    "midi": 70,
                    "time": 130.9375,
                    "velocity": 0.8346456692913385,
                    "duration": 0.3059895833333428
                },
                {
                    "name": "C4",
                    "midi": 60,
                    "time": 131.25,
                    "velocity": 0.8346456692913385,
                    "duration": 0.3059895833333428
                },
                {
                    "name": "C5",
                    "midi": 72,
                    "time": 131.5625,
                    "velocity": 0.8346456692913385,
                    "duration": 0.1497395833333428
                },
                {
                    "name": "D5",
                    "midi": 74,
                    "time": 131.71875,
                    "velocity": 0.8346456692913385,
                    "duration": 0.1497395833333428
                },
                {
                    "name": "D#5",
                    "midi": 75,
                    "time": 131.875,
                    "velocity": 0.8346456692913385,
                    "duration": 0.3059895833333428
                },
                {
                    "name": "G5",
                    "midi": 79,
                    "time": 132.1875,
                    "velocity": 0.8346456692913385,
                    "duration": 0.3059895833333428
                },
                {
                    "name": "D#5",
                    "midi": 75,
                    "time": 132.1875,
                    "velocity": 0.8346456692913385,
                    "duration": 0.3059895833333428
                },
                {
                    "name": "C5",
                    "midi": 72,
                    "time": 132.1875,
                    "velocity": 0.8346456692913385,
                    "duration": 0.3059895833333428
                },
                {
                    "name": "C5",
                    "midi": 72,
                    "time": 132.5,
                    "velocity": 0.8346456692913385,
                    "duration": 0.3059895833333428
                },
                {
                    "name": "D#5",
                    "midi": 75,
                    "time": 132.5,
                    "velocity": 0.8346456692913385,
                    "duration": 0.3059895833333428
                },
                {
                    "name": "G4",
                    "midi": 67,
                    "time": 132.5,
                    "velocity": 0.8346456692913385,
                    "duration": 0.3059895833333428
                },
                {
                    "name": "C5",
                    "midi": 72,
                    "time": 132.8125,
                    "velocity": 0.8346456692913385,
                    "duration": 0.3059895833333428
                },
                {
                    "name": "G4",
                    "midi": 67,
                    "time": 132.8125,
                    "velocity": 0.8346456692913385,
                    "duration": 0.3059895833333428
                },
                {
                    "name": "D#4",
                    "midi": 63,
                    "time": 132.8125,
                    "velocity": 0.8346456692913385,
                    "duration": 0.3059895833333428
                },
                {
                    "name": "C5",
                    "midi": 72,
                    "time": 133.4375,
                    "velocity": 0.8346456692913385,
                    "duration": 0.1497395833333428
                },
                {
                    "name": "D5",
                    "midi": 74,
                    "time": 133.59375,
                    "velocity": 0.8346456692913385,
                    "duration": 0.1497395833333428
                },
                {
                    "name": "D#5",
                    "midi": 75,
                    "time": 133.75,
                    "velocity": 0.8346456692913385,
                    "duration": 0.3059895833333428
                },
                {
                    "name": "G5",
                    "midi": 79,
                    "time": 134.0625,
                    "velocity": 0.8346456692913385,
                    "duration": 0.3059895833333428
                },
                {
                    "name": "D#5",
                    "midi": 75,
                    "time": 134.375,
                    "velocity": 0.8346456692913385,
                    "duration": 0.3059895833333428
                },
                {
                    "name": "C5",
                    "midi": 72,
                    "time": 134.6875,
                    "velocity": 0.8346456692913385,
                    "duration": 0.3059895833333428
                },
                {
                    "name": "D4",
                    "midi": 62,
                    "time": 135,
                    "velocity": 0.8346456692913385,
                    "duration": 0.3059895833333428
                },
                {
                    "name": "D5",
                    "midi": 74,
                    "time": 135.3125,
                    "velocity": 0.8346456692913385,
                    "duration": 0.1497395833333428
                },
                {
                    "name": "D#5",
                    "midi": 75,
                    "time": 135.46875,
                    "velocity": 0.8346456692913385,
                    "duration": 0.1497395833333428
                },
                {
                    "name": "F5",
                    "midi": 77,
                    "time": 135.625,
                    "velocity": 0.8346456692913385,
                    "duration": 0.3059895833333428
                },
                {
                    "name": "A#5",
                    "midi": 82,
                    "time": 135.9375,
                    "velocity": 0.8346456692913385,
                    "duration": 0.3059895833333428
                },
                {
                    "name": "F5",
                    "midi": 77,
                    "time": 135.9375,
                    "velocity": 0.8346456692913385,
                    "duration": 0.3059895833333428
                },
                {
                    "name": "D5",
                    "midi": 74,
                    "time": 135.9375,
                    "velocity": 0.8346456692913385,
                    "duration": 0.3059895833333428
                },
                {
                    "name": "F5",
                    "midi": 77,
                    "time": 136.25,
                    "velocity": 0.8346456692913385,
                    "duration": 0.3059895833333428
                },
                {
                    "name": "D5",
                    "midi": 74,
                    "time": 136.25,
                    "velocity": 0.8346456692913385,
                    "duration": 0.3059895833333428
                },
                {
                    "name": "A#4",
                    "midi": 70,
                    "time": 136.25,
                    "velocity": 0.8346456692913385,
                    "duration": 0.3059895833333428
                },
                {
                    "name": "D5",
                    "midi": 74,
                    "time": 136.5625,
                    "velocity": 0.8346456692913385,
                    "duration": 0.3059895833333428
                },
                {
                    "name": "A#4",
                    "midi": 70,
                    "time": 136.5625,
                    "velocity": 0.8346456692913385,
                    "duration": 0.3059895833333428
                },
                {
                    "name": "F4",
                    "midi": 65,
                    "time": 136.5625,
                    "velocity": 0.8346456692913385,
                    "duration": 0.3059895833333428
                },
                {
                    "name": "D5",
                    "midi": 74,
                    "time": 137.1875,
                    "velocity": 0.8346456692913385,
                    "duration": 0.1497395833333428
                },
                {
                    "name": "D#5",
                    "midi": 75,
                    "time": 137.34375,
                    "velocity": 0.8346456692913385,
                    "duration": 0.1497395833333428
                },
                {
                    "name": "F5",
                    "midi": 77,
                    "time": 137.5,
                    "velocity": 0.8346456692913385,
                    "duration": 0.3059895833333428
                },
                {
                    "name": "A#5",
                    "midi": 82,
                    "time": 137.8125,
                    "velocity": 0.8346456692913385,
                    "duration": 0.3059895833333428
                },
                {
                    "name": "F5",
                    "midi": 77,
                    "time": 138.125,
                    "velocity": 0.8346456692913385,
                    "duration": 0.3059895833333428
                },
                {
                    "name": "D5",
                    "midi": 74,
                    "time": 138.4375,
                    "velocity": 0.8346456692913385,
                    "duration": 0.3059895833333428
                },
                {
                    "name": "G5",
                    "midi": 79,
                    "time": 138.75,
                    "velocity": 0.8346456692913385,
                    "duration": 0.1497395833333428
                },
                {
                    "name": "F5",
                    "midi": 77,
                    "time": 138.90625,
                    "velocity": 0.8346456692913385,
                    "duration": 0.1497395833333428
                },
                {
                    "name": "D#5",
                    "midi": 75,
                    "time": 139.0625,
                    "velocity": 0.8346456692913385,
                    "duration": 0.1497395833333428
                },
                {
                    "name": "D5",
                    "midi": 74,
                    "time": 139.21875,
                    "velocity": 0.8346456692913385,
                    "duration": 0.1497395833333428
                },
                {
                    "name": "D#5",
                    "midi": 75,
                    "time": 139.375,
                    "velocity": 0.8346456692913385,
                    "duration": 0.1497395833333428
                },
                {
                    "name": "D5",
                    "midi": 74,
                    "time": 139.53125,
                    "velocity": 0.8346456692913385,
                    "duration": 0.1497395833333428
                },
                {
                    "name": "C5",
                    "midi": 72,
                    "time": 139.6875,
                    "velocity": 0.8346456692913385,
                    "duration": 0.1497395833333428
                },
                {
                    "name": "A#4",
                    "midi": 70,
                    "time": 139.84375,
                    "velocity": 0.8346456692913385,
                    "duration": 0.1497395833333428
                },
                {
                    "name": "C5",
                    "midi": 72,
                    "time": 140,
                    "velocity": 0.8346456692913385,
                    "duration": 0.1497395833333428
                },
                {
                    "name": "A#4",
                    "midi": 70,
                    "time": 140.15625,
                    "velocity": 0.8346456692913385,
                    "duration": 0.1497395833333428
                },
                {
                    "name": "A4",
                    "midi": 69,
                    "time": 140.3125,
                    "velocity": 0.8346456692913385,
                    "duration": 0.1497395833333428
                },
                {
                    "name": "G4",
                    "midi": 67,
                    "time": 140.46875,
                    "velocity": 0.8346456692913385,
                    "duration": 0.1497395833333428
                },
                {
                    "name": "A4",
                    "midi": 69,
                    "time": 140.625,
                    "velocity": 0.8346456692913385,
                    "duration": 0.1497395833333428
                },
                {
                    "name": "F4",
                    "midi": 65,
                    "time": 140.78125,
                    "velocity": 0.8346456692913385,
                    "duration": 0.1497395833333428
                },
                {
                    "name": "D4",
                    "midi": 62,
                    "time": 141.09375,
                    "velocity": 0.8346456692913385,
                    "duration": 0.1497395833333428
                },
                {
                    "name": "D3",
                    "midi": 50,
                    "time": 141.09375,
                    "velocity": 0.8346456692913385,
                    "duration": 0.1497395833333428
                },
                {
                    "name": "D#4",
                    "midi": 63,
                    "time": 141.40625,
                    "velocity": 0.8346456692913385,
                    "duration": 0.1497395833333428
                },
                {
                    "name": "D#3",
                    "midi": 51,
                    "time": 141.40625,
                    "velocity": 0.8346456692913385,
                    "duration": 0.1497395833333428
                },
                {
                    "name": "F4",
                    "midi": 65,
                    "time": 141.71875,
                    "velocity": 0.8346456692913385,
                    "duration": 0.1497395833333428
                },
                {
                    "name": "F3",
                    "midi": 53,
                    "time": 141.71875,
                    "velocity": 0.8346456692913385,
                    "duration": 0.1497395833333428
                },
                {
                    "name": "G4",
                    "midi": 67,
                    "time": 142.03125,
                    "velocity": 0.8346456692913385,
                    "duration": 0.1497395833333428
                },
                {
                    "name": "G3",
                    "midi": 55,
                    "time": 142.03125,
                    "velocity": 0.8346456692913385,
                    "duration": 0.1497395833333428
                },
                {
                    "name": "A4",
                    "midi": 69,
                    "time": 142.34375,
                    "velocity": 0.8346456692913385,
                    "duration": 0.1497395833333428
                },
                {
                    "name": "A3",
                    "midi": 57,
                    "time": 142.34375,
                    "velocity": 0.8346456692913385,
                    "duration": 0.1497395833333428
                },
                {
                    "name": "A#4",
                    "midi": 70,
                    "time": 142.65625,
                    "velocity": 0.8346456692913385,
                    "duration": 0.1497395833333428
                },
                {
                    "name": "A#3",
                    "midi": 58,
                    "time": 142.65625,
                    "velocity": 0.8346456692913385,
                    "duration": 0.1497395833333428
                },
                {
                    "name": "D5",
                    "midi": 74,
                    "time": 142.96875,
                    "velocity": 0.8346456692913385,
                    "duration": 0.1497395833333428
                },
                {
                    "name": "D4",
                    "midi": 62,
                    "time": 142.96875,
                    "velocity": 0.8346456692913385,
                    "duration": 0.1497395833333428
                },
                {
                    "name": "D#5",
                    "midi": 75,
                    "time": 143.28125,
                    "velocity": 0.8346456692913385,
                    "duration": 0.1497395833333428
                },
                {
                    "name": "D#4",
                    "midi": 63,
                    "time": 143.28125,
                    "velocity": 0.8346456692913385,
                    "duration": 0.1497395833333428
                },
                {
                    "name": "F5",
                    "midi": 77,
                    "time": 143.59375,
                    "velocity": 0.8346456692913385,
                    "duration": 0.1497395833333428
                },
                {
                    "name": "F4",
                    "midi": 65,
                    "time": 143.59375,
                    "velocity": 0.8346456692913385,
                    "duration": 0.1497395833333428
                },
                {
                    "name": "G5",
                    "midi": 79,
                    "time": 143.90625,
                    "velocity": 0.8346456692913385,
                    "duration": 0.1497395833333428
                },
                {
                    "name": "G4",
                    "midi": 67,
                    "time": 143.90625,
                    "velocity": 0.8346456692913385,
                    "duration": 0.1497395833333428
                },
                {
                    "name": "A5",
                    "midi": 81,
                    "time": 144.21875,
                    "velocity": 0.8346456692913385,
                    "duration": 0.1497395833333428
                },
                {
                    "name": "A4",
                    "midi": 69,
                    "time": 144.21875,
                    "velocity": 0.8346456692913385,
                    "duration": 0.1497395833333428
                },
                {
                    "name": "A#4",
                    "midi": 70,
                    "time": 144.375,
                    "velocity": 0.8346456692913385,
                    "duration": 0.6184895833333428
                },
                {
                    "name": "A#5",
                    "midi": 82,
                    "time": 144.375,
                    "velocity": 0.8346456692913385,
                    "duration": 0.6184895833333428
                },
                {
                    "name": "D4",
                    "midi": 62,
                    "time": 145,
                    "velocity": 0.8346456692913385,
                    "duration": 0.6184895833333428
                },
                {
                    "name": "F4",
                    "midi": 65,
                    "time": 145.625,
                    "velocity": 0.8346456692913385,
                    "duration": 0.6184895833333428
                },
                {
                    "name": "A#3",
                    "midi": 58,
                    "time": 146.25,
                    "velocity": 0.8346456692913385,
                    "duration": 1.2434895833333428
                },
                {
                    "name": "A#4",
                    "midi": 70,
                    "time": 150,
                    "velocity": 0.6299212598425197,
                    "duration": 0.1497395833333428
                },
                {
                    "name": "G4",
                    "midi": 67,
                    "time": 150.15625,
                    "velocity": 0.6299212598425197,
                    "duration": 0.1497395833333428
                },
                {
                    "name": "D#5",
                    "midi": 75,
                    "time": 150.3125,
                    "velocity": 0.6299212598425197,
                    "duration": 0.3059895833333428
                },
                {
                    "name": "A#4",
                    "midi": 70,
                    "time": 150.46875,
                    "velocity": 0.6299212598425197,
                    "duration": 0.1497395833333428
                },
                {
                    "name": "G#4",
                    "midi": 68,
                    "time": 150.625,
                    "velocity": 0.6299212598425197,
                    "duration": 0.6184895833333428
                },
                {
                    "name": "D#5",
                    "midi": 75,
                    "time": 150.78125,
                    "velocity": 0.6299212598425197,
                    "duration": 0.1497395833333428
                },
                {
                    "name": "D5",
                    "midi": 74,
                    "time": 150.9375,
                    "velocity": 0.6299212598425197,
                    "duration": 0.1497395833333428
                },
                {
                    "name": "C5",
                    "midi": 72,
                    "time": 151.09375,
                    "velocity": 0.6299212598425197,
                    "duration": 0.1497395833333428
                },
                {
                    "name": "B4",
                    "midi": 71,
                    "time": 151.25,
                    "velocity": 0.6299212598425197,
                    "duration": 0.6184895833333428
                },
                {
                    "name": "G#4",
                    "midi": 68,
                    "time": 151.40625,
                    "velocity": 0.6299212598425197,
                    "duration": 0.1497395833333428
                },
                {
                    "name": "G4",
                    "midi": 67,
                    "time": 151.5625,
                    "velocity": 0.6299212598425197,
                    "duration": 0.1497395833333428
                },
                {
                    "name": "F4",
                    "midi": 65,
                    "time": 151.71875,
                    "velocity": 0.6299212598425197,
                    "duration": 0.1497395833333428
                },
                {
                    "name": "G4",
                    "midi": 67,
                    "time": 151.875,
                    "velocity": 0.6299212598425197,
                    "duration": 0.1497395833333428
                },
                {
                    "name": "F4",
                    "midi": 65,
                    "time": 152.03125,
                    "velocity": 0.6299212598425197,
                    "duration": 0.1497395833333428
                },
                {
                    "name": "D5",
                    "midi": 74,
                    "time": 152.03125,
                    "velocity": 0.6299212598425197,
                    "duration": 0.1497395833333428
                },
                {
                    "name": "D#4",
                    "midi": 63,
                    "time": 152.1875,
                    "velocity": 0.6299212598425197,
                    "duration": 0.1497395833333428
                },
                {
                    "name": "C5",
                    "midi": 72,
                    "time": 152.1875,
                    "velocity": 0.6299212598425197,
                    "duration": 0.1497395833333428
                },
                {
                    "name": "D4",
                    "midi": 62,
                    "time": 152.34375,
                    "velocity": 0.6299212598425197,
                    "duration": 0.1497395833333428
                },
                {
                    "name": "B4",
                    "midi": 71,
                    "time": 152.34375,
                    "velocity": 0.6299212598425197,
                    "duration": 0.1497395833333428
                },
                {
                    "name": "C4",
                    "midi": 60,
                    "time": 152.5,
                    "velocity": 0.6299212598425197,
                    "duration": 0.9309895833333428
                },
                {
                    "name": "C5",
                    "midi": 72,
                    "time": 152.5,
                    "velocity": 0.6299212598425197,
                    "duration": 0.1497395833333428
                },
                {
                    "name": "G4",
                    "midi": 67,
                    "time": 152.65625,
                    "velocity": 0.6299212598425197,
                    "duration": 0.1497395833333428
                },
                {
                    "name": "F4",
                    "midi": 65,
                    "time": 152.8125,
                    "velocity": 0.6299212598425197,
                    "duration": 0.1497395833333428
                },
                {
                    "name": "D#4",
                    "midi": 63,
                    "time": 152.96875,
                    "velocity": 0.6299212598425197,
                    "duration": 0.1497395833333428
                },
                {
                    "name": "D4",
                    "midi": 62,
                    "time": 153.125,
                    "velocity": 0.6299212598425197,
                    "duration": 0.1497395833333428
                },
                {
                    "name": "D#4",
                    "midi": 63,
                    "time": 153.28125,
                    "velocity": 0.6299212598425197,
                    "duration": 0.1497395833333428
                },
                {
                    "name": "B3",
                    "midi": 59,
                    "time": 153.4375,
                    "velocity": 0.6299212598425197,
                    "duration": 0.3059895833333428
                },
                {
                    "name": "F4",
                    "midi": 65,
                    "time": 153.4375,
                    "velocity": 0.6299212598425197,
                    "duration": 0.1497395833333428
                },
                {
                    "name": "G4",
                    "midi": 67,
                    "time": 153.59375,
                    "velocity": 0.6299212598425197,
                    "duration": 0.1497395833333428
                },
                {
                    "name": "D#4",
                    "midi": 63,
                    "time": 153.75,
                    "velocity": 0.6299212598425197,
                    "duration": 0.6184895833333428
                },
                {
                    "name": "G4",
                    "midi": 67,
                    "time": 153.90625,
                    "velocity": 0.6299212598425197,
                    "duration": 0.1497395833333428
                },
                {
                    "name": "C5",
                    "midi": 72,
                    "time": 154.0625,
                    "velocity": 0.6299212598425197,
                    "duration": 0.1497395833333428
                },
                {
                    "name": "D#5",
                    "midi": 75,
                    "time": 154.21875,
                    "velocity": 0.6299212598425197,
                    "duration": 0.1497395833333428
                },
                {
                    "name": "D4",
                    "midi": 62,
                    "time": 154.375,
                    "velocity": 0.6299212598425197,
                    "duration": 0.6184895833333428
                },
                {
                    "name": "G4",
                    "midi": 67,
                    "time": 154.375,
                    "velocity": 0.6299212598425197,
                    "duration": 0.1497395833333428
                },
                {
                    "name": "F#4",
                    "midi": 66,
                    "time": 154.53125,
                    "velocity": 0.6299212598425197,
                    "duration": 0.1497395833333428
                },
                {
                    "name": "D#4",
                    "midi": 63,
                    "time": 154.6875,
                    "velocity": 0.6299212598425197,
                    "duration": 0.1497395833333428
                },
                {
                    "name": "D4",
                    "midi": 62,
                    "time": 154.84375,
                    "velocity": 0.6299212598425197,
                    "duration": 0.4622395833333428
                },
                {
                    "name": "G4",
                    "midi": 67,
                    "time": 155,
                    "velocity": 0.6299212598425197,
                    "duration": 0.4622395833333428
                },
                {
                    "name": "D#4",
                    "midi": 63,
                    "time": 155.3125,
                    "velocity": 0.6299212598425197,
                    "duration": 0.3059895833333428
                },
                {
                    "name": "A4",
                    "midi": 69,
                    "time": 155.46875,
                    "velocity": 0.6299212598425197,
                    "duration": 0.1497395833333428
                },
                {
                    "name": "F#4",
                    "midi": 66,
                    "time": 155.625,
                    "velocity": 0.6299212598425197,
                    "duration": 0.6184895833333144
                },
                {
                    "name": "C4",
                    "midi": 60,
                    "time": 155.625,
                    "velocity": 0.6299212598425197,
                    "duration": 0.6184895833333144
                },
                {
                    "name": "A#4",
                    "midi": 70,
                    "time": 155.64453125,
                    "velocity": 0.6299212598425197,
                    "duration": 0.13671875
                },
                {
                    "name": "A4",
                    "midi": 69,
                    "time": 155.76171875,
                    "velocity": 0.6299212598425197,
                    "duration": 0.06510416666665719
                },
                {
                    "name": "A#4",
                    "midi": 70,
                    "time": 155.82682291666666,
                    "velocity": 0.6299212598425197,
                    "duration": 0.05208333333334281
                },
                {
                    "name": "A4",
                    "midi": 69,
                    "time": 155.88541666666666,
                    "velocity": 0.6299212598425197,
                    "duration": 0.0390625
                },
                {
                    "name": "A#4",
                    "midi": 70,
                    "time": 155.91796875,
                    "velocity": 0.6299212598425197,
                    "duration": 0.052083333333314386
                },
                {
                    "name": "A4",
                    "midi": 69,
                    "time": 155.97005208333331,
                    "velocity": 0.6299212598425197,
                    "duration": 0.05859375
                },
                {
                    "name": "A#4",
                    "midi": 70,
                    "time": 156.01562499999997,
                    "velocity": 0.6299212598425197,
                    "duration": 0.045572916666685614
                },
                {
                    "name": "A4",
                    "midi": 69,
                    "time": 156.07421875,
                    "velocity": 0.6299212598425197,
                    "duration": 0.052083333333314386
                },
                {
                    "name": "G4",
                    "midi": 67,
                    "time": 156.11979166666666,
                    "velocity": 0.6299212598425197,
                    "duration": 0.09114583333331439
                },
                {
                    "name": "A4",
                    "midi": 69,
                    "time": 156.24999999999997,
                    "velocity": 0.6299212598425197,
                    "duration": 28.697916666666657
                },
                {
                    "name": "A#3",
                    "midi": 58,
                    "time": 156.24999999999997,
                    "velocity": 0.6299212598425197,
                    "duration": 0.3059895833333428
                },
                {
                    "name": "D4",
                    "midi": 62,
                    "time": 156.24999999999997,
                    "velocity": 0.6299212598425197,
                    "duration": 0.3059895833333428
                },
                {
                    "name": "G4",
                    "midi": 67,
                    "time": 156.26953124999997,
                    "velocity": 0.6299212598425197,
                    "duration": 0.3059895833333428
                },
                {
                    "name": "A#5",
                    "midi": 82,
                    "time": 182.81249999999997,
                    "velocity": 0.6299212598425197,
                    "duration": 0.10416666666665719
                },
                {
                    "name": "A5",
                    "midi": 81,
                    "time": 182.96874999999997,
                    "velocity": 0.6299212598425197,
                    "duration": 0.10416666666665719
                },
                {
                    "name": "G5",
                    "midi": 79,
                    "time": 183.12499999999997,
                    "velocity": 0.6299212598425197,
                    "duration": 0.1497395833333428
                },
                {
                    "name": "F5",
                    "midi": 77,
                    "time": 183.28124999999997,
                    "velocity": 0.6299212598425197,
                    "duration": 0.1497395833333428
                },
                {
                    "name": "D#5",
                    "midi": 75,
                    "time": 183.43749999999997,
                    "velocity": 0.6299212598425197,
                    "duration": 0.1497395833333428
                },
                {
                    "name": "D5",
                    "midi": 74,
                    "time": 183.59374999999997,
                    "velocity": 0.6299212598425197,
                    "duration": 0.10416666666665719
                },
                {
                    "name": "D#5",
                    "midi": 75,
                    "time": 183.74999999999997,
                    "velocity": 0.6299212598425197,
                    "duration": 0.1497395833333428
                },
                {
                    "name": "F5",
                    "midi": 77,
                    "time": 183.90624999999997,
                    "velocity": 0.6299212598425197,
                    "duration": 0.1497395833333428
                },
                {
                    "name": "G5",
                    "midi": 79,
                    "time": 184.06249999999997,
                    "velocity": 0.6299212598425197,
                    "duration": 0.1497395833333428
                },
                {
                    "name": "D5",
                    "midi": 74,
                    "time": 184.21874999999997,
                    "velocity": 0.6299212598425197,
                    "duration": 0.10416666666665719
                },
                {
                    "name": "D5",
                    "midi": 74,
                    "time": 184.37499999999997,
                    "velocity": 0.6299212598425197,
                    "duration": 0.1497395833333428
                },
                {
                    "name": "C#5",
                    "midi": 73,
                    "time": 184.53124999999997,
                    "velocity": 0.6299212598425197,
                    "duration": 0.1497395833333428
                },
                {
                    "name": "A#4",
                    "midi": 70,
                    "time": 184.68749999999997,
                    "velocity": 0.6299212598425197,
                    "duration": 0.1497395833333428
                },
                {
                    "name": "A4",
                    "midi": 69,
                    "time": 184.84374999999997,
                    "velocity": 0.6299212598425197,
                    "duration": 1.7122395833333712
                },
                {
                    "name": "D5",
                    "midi": 74,
                    "time": 184.99999999999997,
                    "velocity": 0.6299212598425197,
                    "duration": 0.9309895833333712
                },
                {
                    "name": "A#5",
                    "midi": 82,
                    "time": 185.15624999999997,
                    "velocity": 0.6299212598425197,
                    "duration": 0.1497395833333428
                },
                {
                    "name": "A5",
                    "midi": 81,
                    "time": 185.31249999999997,
                    "velocity": 0.6299212598425197,
                    "duration": 0.1497395833333428
                },
                {
                    "name": "G5",
                    "midi": 79,
                    "time": 185.46874999999997,
                    "velocity": 0.6299212598425197,
                    "duration": 0.1497395833333428
                },
                {
                    "name": "F5",
                    "midi": 77,
                    "time": 185.62499999999997,
                    "velocity": 0.6299212598425197,
                    "duration": 0.06510416666665719
                },
                {
                    "name": "G5",
                    "midi": 79,
                    "time": 185.67057291666663,
                    "velocity": 0.6299212598425197,
                    "duration": 0.06510416666668561
                },
                {
                    "name": "F5",
                    "midi": 77,
                    "time": 185.70312499999997,
                    "velocity": 0.6299212598425197,
                    "duration": 0.06510416666668561
                },
                {
                    "name": "G5",
                    "midi": 79,
                    "time": 185.73567708333331,
                    "velocity": 0.6299212598425197,
                    "duration": 0.06510416666668561
                },
                {
                    "name": "F5",
                    "midi": 77,
                    "time": 185.78776041666666,
                    "velocity": 0.6299212598425197,
                    "duration": 0.1497395833333428
                },
                {
                    "name": "E5",
                    "midi": 76,
                    "time": 185.9375,
                    "velocity": 0.6299212598425197,
                    "duration": 0.1497395833333428
                },
                {
                    "name": "C#5",
                    "midi": 73,
                    "time": 185.9375,
                    "velocity": 0.6299212598425197,
                    "duration": 0.3059895833333428
                },
                {
                    "name": "D5",
                    "midi": 74,
                    "time": 186.09375,
                    "velocity": 0.6299212598425197,
                    "duration": 0.1497395833333428
                },
                {
                    "name": "D5",
                    "midi": 74,
                    "time": 186.25,
                    "velocity": 0.6299212598425197,
                    "duration": 0.1497395833333428
                },
                {
                    "name": "A4",
                    "midi": 69,
                    "time": 186.40625,
                    "velocity": 0.6299212598425197,
                    "duration": 2.1809895833333712
                },
                {
                    "name": "A#4",
                    "midi": 70,
                    "time": 186.5625,
                    "velocity": 0.6299212598425197,
                    "duration": 0.1497395833333428
                },
                {
                    "name": "C5",
                    "midi": 72,
                    "time": 186.71875,
                    "velocity": 0.6299212598425197,
                    "duration": 0.1497395833333428
                },
                {
                    "name": "G4",
                    "midi": 67,
                    "time": 186.875,
                    "velocity": 0.6299212598425197,
                    "duration": 0.1497395833333428
                },
                {
                    "name": "F#4",
                    "midi": 66,
                    "time": 187.03125,
                    "velocity": 0.6299212598425197,
                    "duration": 0.1497395833333428
                },
                {
                    "name": "D#4",
                    "midi": 63,
                    "time": 187.1875,
                    "velocity": 0.6299212598425197,
                    "duration": 0.1497395833333428
                },
                {
                    "name": "D4",
                    "midi": 62,
                    "time": 187.34375,
                    "velocity": 0.6299212598425197,
                    "duration": 0.1497395833333428
                },
                {
                    "name": "G4",
                    "midi": 67,
                    "time": 187.5,
                    "velocity": 0.6299212598425197,
                    "duration": 0.9309895833333712
                },
                {
                    "name": "D#5",
                    "midi": 75,
                    "time": 187.65625,
                    "velocity": 0.6299212598425197,
                    "duration": 0.1497395833333428
                },
                {
                    "name": "D5",
                    "midi": 74,
                    "time": 187.8125,
                    "velocity": 0.6299212598425197,
                    "duration": 0.1497395833333428
                },
                {
                    "name": "C5",
                    "midi": 72,
                    "time": 187.96875,
                    "velocity": 0.6299212598425197,
                    "duration": 0.1497395833333428
                },
                {
                    "name": "A#4",
                    "midi": 70,
                    "time": 188.125,
                    "velocity": 0.6299212598425197,
                    "duration": 0.06510416666665719
                },
                {
                    "name": "C5",
                    "midi": 72,
                    "time": 188.17057291666666,
                    "velocity": 0.6299212598425197,
                    "duration": 0.06510416666668561
                },
                {
                    "name": "A#4",
                    "midi": 70,
                    "time": 188.203125,
                    "velocity": 0.6299212598425197,
                    "duration": 0.06510416666668561
                },
                {
                    "name": "C5",
                    "midi": 72,
                    "time": 188.23567708333334,
                    "velocity": 0.6299212598425197,
                    "duration": 0.06510416666668561
                },
                {
                    "name": "A#4",
                    "midi": 70,
                    "time": 188.28776041666669,
                    "velocity": 0.6299212598425197,
                    "duration": 0.1497395833333428
                },
                {
                    "name": "A4",
                    "midi": 69,
                    "time": 188.43750000000003,
                    "velocity": 0.6299212598425197,
                    "duration": 1.4583333333333428
                },
                {
                    "name": "F#4",
                    "midi": 66,
                    "time": 188.43750000000003,
                    "velocity": 0.6299212598425197,
                    "duration": 0.3059895833333428
                },
                {
                    "name": "G4",
                    "midi": 67,
                    "time": 188.59375000000003,
                    "velocity": 0.6299212598425197,
                    "duration": 0.1497395833333428
                },
                {
                    "name": "G4",
                    "midi": 67,
                    "time": 188.75000000000003,
                    "velocity": 0.6299212598425197,
                    "duration": 0.2083333333333428
                },
                {
                    "name": "G4",
                    "midi": 67,
                    "time": 189.06250000000003,
                    "velocity": 0.7874015748031497,
                    "duration": 0.2083333333333428
                },
                {
                    "name": "G4",
                    "midi": 67,
                    "time": 189.37500000000003,
                    "velocity": 0.7874015748031497,
                    "duration": 0.2083333333333428
                },
                {
                    "name": "A4",
                    "midi": 69,
                    "time": 189.68750000000003,
                    "velocity": 0.7874015748031497,
                    "duration": 2.805989583333343
                },
                {
                    "name": "A#4",
                    "midi": 70,
                    "time": 190.00000000000003,
                    "velocity": 0.7874015748031497,
                    "duration": 0.2083333333333428
                },
                {
                    "name": "G4",
                    "midi": 67,
                    "time": 190.31250000000003,
                    "velocity": 0.7874015748031497,
                    "duration": 0.2083333333333428
                },
                {
                    "name": "A#4",
                    "midi": 70,
                    "time": 190.62500000000003,
                    "velocity": 0.7874015748031497,
                    "duration": 0.2083333333333428
                },
                {
                    "name": "C5",
                    "midi": 72,
                    "time": 190.93750000000003,
                    "velocity": 0.7874015748031497,
                    "duration": 0.2083333333333428
                },
                {
                    "name": "D5",
                    "midi": 74,
                    "time": 191.25000000000003,
                    "velocity": 0.7874015748031497,
                    "duration": 0.2083333333333428
                },
                {
                    "name": "D4",
                    "midi": 62,
                    "time": 191.56250000000003,
                    "velocity": 0.7874015748031497,
                    "duration": 0.2083333333333428
                },
                {
                    "name": "D5",
                    "midi": 74,
                    "time": 191.56250000000003,
                    "velocity": 0.7874015748031497,
                    "duration": 0.1497395833333428
                },
                {
                    "name": "D#5",
                    "midi": 75,
                    "time": 191.71875000000003,
                    "velocity": 0.7874015748031497,
                    "duration": 0.1497395833333428
                },
                {
                    "name": "D4",
                    "midi": 62,
                    "time": 191.87500000000003,
                    "velocity": 0.7874015748031497,
                    "duration": 0.2083333333333428
                },
                {
                    "name": "D5",
                    "midi": 74,
                    "time": 191.87500000000003,
                    "velocity": 0.7874015748031497,
                    "duration": 0.1497395833333428
                },
                {
                    "name": "C5",
                    "midi": 72,
                    "time": 192.03125000000003,
                    "velocity": 0.7874015748031497,
                    "duration": 0.1497395833333428
                },
                {
                    "name": "D4",
                    "midi": 62,
                    "time": 192.18750000000003,
                    "velocity": 0.7874015748031497,
                    "duration": 0.2083333333333428
                },
                {
                    "name": "A#4",
                    "midi": 70,
                    "time": 192.18750000000003,
                    "velocity": 0.7874015748031497,
                    "duration": 0.1497395833333428
                },
                {
                    "name": "A4",
                    "midi": 69,
                    "time": 192.34375000000003,
                    "velocity": 0.7874015748031497,
                    "duration": 0.6184895833333428
                },
                {
                    "name": "G4",
                    "midi": 67,
                    "time": 192.50000000000003,
                    "velocity": 0.7874015748031497,
                    "duration": 0.3059895833333428
                },
                {
                    "name": "E4",
                    "midi": 64,
                    "time": 192.50000000000003,
                    "velocity": 0.7874015748031497,
                    "duration": 0.3059895833333428
                },
                {
                    "name": "A4",
                    "midi": 69,
                    "time": 192.81250000000003,
                    "velocity": 0.7874015748031497,
                    "duration": 1.5559895833333428
                },
                {
                    "name": "D4",
                    "midi": 62,
                    "time": 192.81250000000003,
                    "velocity": 0.7874015748031497,
                    "duration": 0.3059895833333428
                },
                {
                    "name": "A#4",
                    "midi": 70,
                    "time": 192.96875000000003,
                    "velocity": 0.7874015748031497,
                    "duration": 0.1497395833333428
                },
                {
                    "name": "C5",
                    "midi": 72,
                    "time": 193.12500000000003,
                    "velocity": 0.7874015748031497,
                    "duration": 0.2083333333333428
                },
                {
                    "name": "E4",
                    "midi": 64,
                    "time": 193.12500000000003,
                    "velocity": 0.7874015748031497,
                    "duration": 0.3059895833333428
                },
                {
                    "name": "C5",
                    "midi": 72,
                    "time": 193.43750000000003,
                    "velocity": 0.7874015748031497,
                    "duration": 0.2083333333333428
                },
                {
                    "name": "F#4",
                    "midi": 66,
                    "time": 193.43750000000003,
                    "velocity": 0.7874015748031497,
                    "duration": 0.3059895833333428
                },
                {
                    "name": "G4",
                    "midi": 67,
                    "time": 193.75000000000003,
                    "velocity": 0.7874015748031497,
                    "duration": 0.3059895833333428
                },
                {
                    "name": "C5",
                    "midi": 72,
                    "time": 193.90625000000003,
                    "velocity": 0.7874015748031497,
                    "duration": 0.1497395833333428
                },
                {
                    "name": "D4",
                    "midi": 62,
                    "time": 194.06250000000003,
                    "velocity": 0.7874015748031497,
                    "duration": 0.3059895833333428
                },
                {
                    "name": "A#4",
                    "midi": 70,
                    "time": 194.06250000000003,
                    "velocity": 0.7874015748031497,
                    "duration": 0.1497395833333428
                },
                {
                    "name": "A4",
                    "midi": 69,
                    "time": 194.21875000000003,
                    "velocity": 0.7874015748031497,
                    "duration": 1.3997395833333428
                },
                {
                    "name": "G4",
                    "midi": 67,
                    "time": 194.37500000000003,
                    "velocity": 0.7874015748031497,
                    "duration": 0.2083333333333428
                },
                {
                    "name": "A#4",
                    "midi": 70,
                    "time": 194.37500000000003,
                    "velocity": 0.7874015748031497,
                    "duration": 0.2083333333333428
                },
                {
                    "name": "G4",
                    "midi": 67,
                    "time": 194.68750000000003,
                    "velocity": 0.7874015748031497,
                    "duration": 0.3059895833333428
                },
                {
                    "name": "A#4",
                    "midi": 70,
                    "time": 194.68750000000003,
                    "velocity": 0.7874015748031497,
                    "duration": 0.2083333333333428
                },
                {
                    "name": "A4",
                    "midi": 69,
                    "time": 195.00000000000003,
                    "velocity": 0.7874015748031497,
                    "duration": 17.60416666666663
                },
                {
                    "name": "G4",
                    "midi": 67,
                    "time": 195.15625000000003,
                    "velocity": 0.7874015748031497,
                    "duration": 0.1497395833333428
                },
                {
                    "name": "F#4",
                    "midi": 66,
                    "time": 195.31250000000003,
                    "velocity": 0.7874015748031497,
                    "duration": 0.1497395833333428
                },
                {
                    "name": "E4",
                    "midi": 64,
                    "time": 195.46875000000003,
                    "velocity": 0.7874015748031497,
                    "duration": 0.1497395833333428
                },
                {
                    "name": "F#4",
                    "midi": 66,
                    "time": 195.62500000000003,
                    "velocity": 0.7874015748031497,
                    "duration": 0.6184895833333428
                },
                {
                    "name": "D#5",
                    "midi": 75,
                    "time": 195.78125000000003,
                    "velocity": 0.7874015748031497,
                    "duration": 0.1497395833333428
                },
                {
                    "name": "D5",
                    "midi": 74,
                    "time": 195.93750000000003,
                    "velocity": 0.7874015748031497,
                    "duration": 0.1497395833333428
                },
                {
                    "name": "C5",
                    "midi": 72,
                    "time": 196.09375000000003,
                    "velocity": 0.7874015748031497,
                    "duration": 0.1497395833333428
                },
                {
                    "name": "G4",
                    "midi": 67,
                    "time": 196.25000000000003,
                    "velocity": 0.7874015748031497,
                    "duration": 0.20833333333331439
                },
                {
                    "name": "A#4",
                    "midi": 70,
                    "time": 196.25000000000003,
                    "velocity": 0.7874015748031497,
                    "duration": 0.10416666666665719
                },
                {
                    "name": "F5",
                    "midi": 77,
                    "time": 206.5625,
                    "velocity": 0.7874015748031497,
                    "duration": 0.2083333333333428
                },
                {
                    "name": "F5",
                    "midi": 77,
                    "time": 206.875,
                    "velocity": 0.7874015748031497,
                    "duration": 0.2083333333333428
                },
                {
                    "name": "G5",
                    "midi": 79,
                    "time": 207.1875,
                    "velocity": 0.7874015748031497,
                    "duration": 0.2083333333333428
                },
                {
                    "name": "A5",
                    "midi": 81,
                    "time": 207.5,
                    "velocity": 0.7874015748031497,
                    "duration": 0.2083333333333428
                },
                {
                    "name": "F5",
                    "midi": 77,
                    "time": 207.8125,
                    "velocity": 0.7874015748031497,
                    "duration": 0.2083333333333428
                },
                {
                    "name": "G5",
                    "midi": 79,
                    "time": 208.125,
                    "velocity": 0.7874015748031497,
                    "duration": 0.2083333333333428
                },
                {
                    "name": "A5",
                    "midi": 81,
                    "time": 208.4375,
                    "velocity": 0.7874015748031497,
                    "duration": 0.2083333333333428
                },
                {
                    "name": "A#5",
                    "midi": 82,
                    "time": 208.75,
                    "velocity": 0.7874015748031497,
                    "duration": 0.1497395833333428
                },
                {
                    "name": "F5",
                    "midi": 77,
                    "time": 208.90625,
                    "velocity": 0.7874015748031497,
                    "duration": 0.1497395833333428
                },
                {
                    "name": "G5",
                    "midi": 79,
                    "time": 209.0625,
                    "velocity": 0.7874015748031497,
                    "duration": 0.1497395833333428
                },
                {
                    "name": "A5",
                    "midi": 81,
                    "time": 209.21875,
                    "velocity": 0.7874015748031497,
                    "duration": 0.1497395833333428
                },
                {
                    "name": "A#5",
                    "midi": 82,
                    "time": 209.375,
                    "velocity": 0.7874015748031497,
                    "duration": 0.1497395833333428
                },
                {
                    "name": "F5",
                    "midi": 77,
                    "time": 209.53125,
                    "velocity": 0.7874015748031497,
                    "duration": 0.1497395833333428
                },
                {
                    "name": "D#5",
                    "midi": 75,
                    "time": 209.6875,
                    "velocity": 0.7874015748031497,
                    "duration": 0.1497395833333428
                },
                {
                    "name": "D5",
                    "midi": 74,
                    "time": 209.84375,
                    "velocity": 0.7874015748031497,
                    "duration": 0.1497395833333428
                },
                {
                    "name": "C5",
                    "midi": 72,
                    "time": 210,
                    "velocity": 0.7874015748031497,
                    "duration": 0.10416666666665719
                },
                {
                    "name": "A#5",
                    "midi": 82,
                    "time": 210.15625,
                    "velocity": 0.7874015748031497,
                    "duration": 0.1497395833333428
                },
                {
                    "name": "A5",
                    "midi": 81,
                    "time": 210.3125,
                    "velocity": 0.7874015748031497,
                    "duration": 0.1497395833333428
                },
                {
                    "name": "G5",
                    "midi": 79,
                    "time": 210.46875,
                    "velocity": 0.7874015748031497,
                    "duration": 0.1497395833333428
                },
                {
                    "name": "A5",
                    "midi": 81,
                    "time": 210.625,
                    "velocity": 0.7874015748031497,
                    "duration": 0.10416666666665719
                },
                {
                    "name": "C5",
                    "midi": 72,
                    "time": 210.78125,
                    "velocity": 0.7874015748031497,
                    "duration": 0.10416666666665719
                },
                {
                    "name": "A5",
                    "midi": 81,
                    "time": 210.9375,
                    "velocity": 0.7874015748031497,
                    "duration": 0.10416666666665719
                },
                {
                    "name": "C5",
                    "midi": 72,
                    "time": 211.09375,
                    "velocity": 0.7874015748031497,
                    "duration": 0.10416666666665719
                },
                {
                    "name": "A#4",
                    "midi": 70,
                    "time": 211.25,
                    "velocity": 0.7874015748031497,
                    "duration": 0.10416666666665719
                },
                {
                    "name": "A5",
                    "midi": 81,
                    "time": 211.40625,
                    "velocity": 0.7874015748031497,
                    "duration": 0.1497395833333428
                },
                {
                    "name": "G5",
                    "midi": 79,
                    "time": 211.5625,
                    "velocity": 0.7874015748031497,
                    "duration": 0.1497395833333428
                },
                {
                    "name": "F#5",
                    "midi": 78,
                    "time": 211.71875,
                    "velocity": 0.7874015748031497,
                    "duration": 0.1497395833333428
                },
                {
                    "name": "G5",
                    "midi": 79,
                    "time": 211.875,
                    "velocity": 0.7874015748031497,
                    "duration": 0.10416666666665719
                },
                {
                    "name": "A#4",
                    "midi": 70,
                    "time": 212.03125,
                    "velocity": 0.7874015748031497,
                    "duration": 0.10416666666665719
                },
                {
                    "name": "G5",
                    "midi": 79,
                    "time": 212.1875,
                    "velocity": 0.7874015748031497,
                    "duration": 0.10416666666665719
                },
                {
                    "name": "A#4",
                    "midi": 70,
                    "time": 212.34375,
                    "velocity": 0.7874015748031497,
                    "duration": 0.10416666666665719
                },
                {
                    "name": "A4",
                    "midi": 69,
                    "time": 212.5,
                    "velocity": 0.7874015748031497,
                    "duration": 0.9309895833333428
                },
                {
                    "name": "G5",
                    "midi": 79,
                    "time": 212.65625,
                    "velocity": 0.7874015748031497,
                    "duration": 0.1497395833333428
                },
                {
                    "name": "F5",
                    "midi": 77,
                    "time": 212.8125,
                    "velocity": 0.7874015748031497,
                    "duration": 0.1497395833333428
                },
                {
                    "name": "E5",
                    "midi": 76,
                    "time": 212.96875,
                    "velocity": 0.7874015748031497,
                    "duration": 0.1497395833333428
                },
                {
                    "name": "F5",
                    "midi": 77,
                    "time": 213.125,
                    "velocity": 0.7874015748031497,
                    "duration": 0.1497395833333428
                },
                {
                    "name": "A4",
                    "midi": 69,
                    "time": 213.28125,
                    "velocity": 0.7874015748031497,
                    "duration": 1.5104166666666572
                },
                {
                    "name": "A#4",
                    "midi": 70,
                    "time": 213.4375,
                    "velocity": 0.7874015748031497,
                    "duration": 0.1497395833333428
                },
                {
                    "name": "C5",
                    "midi": 72,
                    "time": 213.59375,
                    "velocity": 0.7874015748031497,
                    "duration": 0.1497395833333428
                },
                {
                    "name": "D5",
                    "midi": 74,
                    "time": 213.75,
                    "velocity": 0.7874015748031497,
                    "duration": 0.10416666666665719
                },
                {
                    "name": "A#5",
                    "midi": 82,
                    "time": 213.90625,
                    "velocity": 0.7874015748031497,
                    "duration": 0.10416666666665719
                },
                {
                    "name": "C5",
                    "midi": 72,
                    "time": 214.0625,
                    "velocity": 0.7874015748031497,
                    "duration": 0.10416666666665719
                },
                {
                    "name": "A5",
                    "midi": 81,
                    "time": 214.21875,
                    "velocity": 0.7874015748031497,
                    "duration": 0.10416666666665719
                },
                {
                    "name": "A#4",
                    "midi": 70,
                    "time": 214.375,
                    "velocity": 0.7874015748031497,
                    "duration": 0.10416666666665719
                },
                {
                    "name": "G5",
                    "midi": 79,
                    "time": 214.53125,
                    "velocity": 0.7874015748031497,
                    "duration": 0.10416666666665719
                },
                {
                    "name": "A4",
                    "midi": 69,
                    "time": 214.6875,
                    "velocity": 0.7874015748031497,
                    "duration": 20.462239583333343
                },
                {
                    "name": "F5",
                    "midi": 77,
                    "time": 214.84375,
                    "velocity": 0.7874015748031497,
                    "duration": 0.10416666666665719
                },
                {
                    "name": "G4",
                    "midi": 67,
                    "time": 215,
                    "velocity": 0.7874015748031497,
                    "duration": 0.1497395833333428
                },
                {
                    "name": "A#4",
                    "midi": 70,
                    "time": 215.15625,
                    "velocity": 0.7874015748031497,
                    "duration": 0.1497395833333428
                },
                {
                    "name": "F5",
                    "midi": 77,
                    "time": 215.3125,
                    "velocity": 0.7874015748031497,
                    "duration": 0.1497395833333428
                },
                {
                    "name": "A#4",
                    "midi": 70,
                    "time": 215.46875,
                    "velocity": 0.7874015748031497,
                    "duration": 0.10416666666665719
                },
                {
                    "name": "G4",
                    "midi": 67,
                    "time": 215.625,
                    "velocity": 0.7874015748031497,
                    "duration": 0.1497395833333428
                },
                {
                    "name": "A#4",
                    "midi": 70,
                    "time": 215.78125,
                    "velocity": 0.7874015748031497,
                    "duration": 0.1497395833333428
                },
                {
                    "name": "E5",
                    "midi": 76,
                    "time": 215.9375,
                    "velocity": 0.7874015748031497,
                    "duration": 0.1497395833333428
                },
                {
                    "name": "A#4",
                    "midi": 70,
                    "time": 216.09375,
                    "velocity": 0.7874015748031497,
                    "duration": 0.10416666666665719
                },
                {
                    "name": "F5",
                    "midi": 77,
                    "time": 227.8125,
                    "velocity": 0.7874015748031497,
                    "duration": 0.2083333333333428
                },
                {
                    "name": "F5",
                    "midi": 77,
                    "time": 228.125,
                    "velocity": 0.7874015748031497,
                    "duration": 0.2083333333333428
                },
                {
                    "name": "G5",
                    "midi": 79,
                    "time": 228.4375,
                    "velocity": 0.7874015748031497,
                    "duration": 0.2083333333333428
                },
                {
                    "name": "A5",
                    "midi": 81,
                    "time": 228.75,
                    "velocity": 0.7874015748031497,
                    "duration": 0.2083333333333428
                },
                {
                    "name": "F5",
                    "midi": 77,
                    "time": 229.0625,
                    "velocity": 0.7874015748031497,
                    "duration": 0.2083333333333428
                },
                {
                    "name": "A5",
                    "midi": 81,
                    "time": 229.375,
                    "velocity": 0.7874015748031497,
                    "duration": 0.2083333333333428
                },
                {
                    "name": "A#5",
                    "midi": 82,
                    "time": 229.6875,
                    "velocity": 0.7874015748031497,
                    "duration": 0.2083333333333428
                },
                {
                    "name": "C6",
                    "midi": 84,
                    "time": 230,
                    "velocity": 0.7874015748031497,
                    "duration": 0.1497395833333428
                },
                {
                    "name": "A#5",
                    "midi": 82,
                    "time": 230.15625,
                    "velocity": 0.7874015748031497,
                    "duration": 0.1497395833333428
                },
                {
                    "name": "A5",
                    "midi": 81,
                    "time": 230.3125,
                    "velocity": 0.7874015748031497,
                    "duration": 0.1497395833333428
                },
                {
                    "name": "A#5",
                    "midi": 82,
                    "time": 230.46875,
                    "velocity": 0.7874015748031497,
                    "duration": 0.1497395833333428
                },
                {
                    "name": "C6",
                    "midi": 84,
                    "time": 230.625,
                    "velocity": 0.7874015748031497,
                    "duration": 0.10416666666665719
                },
                {
                    "name": "G5",
                    "midi": 79,
                    "time": 230.78125,
                    "velocity": 0.7874015748031497,
                    "duration": 0.1497395833333428
                },
                {
                    "name": "F5",
                    "midi": 77,
                    "time": 230.9375,
                    "velocity": 0.7874015748031497,
                    "duration": 0.1497395833333428
                },
                {
                    "name": "D#5",
                    "midi": 75,
                    "time": 231.09375,
                    "velocity": 0.7874015748031497,
                    "duration": 0.1497395833333428
                },
                {
                    "name": "D5",
                    "midi": 74,
                    "time": 231.25,
                    "velocity": 0.7874015748031497,
                    "duration": 0.10416666666665719
                },
                {
                    "name": "C6",
                    "midi": 84,
                    "time": 231.40625,
                    "velocity": 0.7874015748031497,
                    "duration": 0.1497395833333428
                },
                {
                    "name": "A#5",
                    "midi": 82,
                    "time": 231.5625,
                    "velocity": 0.7874015748031497,
                    "duration": 0.1497395833333428
                },
                {
                    "name": "A5",
                    "midi": 81,
                    "time": 231.71875,
                    "velocity": 0.7874015748031497,
                    "duration": 0.1497395833333428
                },
                {
                    "name": "A#5",
                    "midi": 82,
                    "time": 231.875,
                    "velocity": 0.7874015748031497,
                    "duration": 0.10416666666665719
                },
                {
                    "name": "D5",
                    "midi": 74,
                    "time": 232.03125,
                    "velocity": 0.7874015748031497,
                    "duration": 0.10416666666665719
                },
                {
                    "name": "A#5",
                    "midi": 82,
                    "time": 232.1875,
                    "velocity": 0.7874015748031497,
                    "duration": 0.10416666666665719
                },
                {
                    "name": "D5",
                    "midi": 74,
                    "time": 232.34375,
                    "velocity": 0.7874015748031497,
                    "duration": 0.10416666666665719
                },
                {
                    "name": "C5",
                    "midi": 72,
                    "time": 232.5,
                    "velocity": 0.7874015748031497,
                    "duration": 0.10416666666665719
                },
                {
                    "name": "A#5",
                    "midi": 82,
                    "time": 232.65625,
                    "velocity": 0.7874015748031497,
                    "duration": 0.1497395833333428
                },
                {
                    "name": "A5",
                    "midi": 81,
                    "time": 232.8125,
                    "velocity": 0.7874015748031497,
                    "duration": 0.1497395833333428
                },
                {
                    "name": "G5",
                    "midi": 79,
                    "time": 232.96875,
                    "velocity": 0.7874015748031497,
                    "duration": 0.1497395833333428
                },
                {
                    "name": "A5",
                    "midi": 81,
                    "time": 233.125,
                    "velocity": 0.7874015748031497,
                    "duration": 0.10416666666665719
                },
                {
                    "name": "C5",
                    "midi": 72,
                    "time": 233.28125,
                    "velocity": 0.7874015748031497,
                    "duration": 0.10416666666665719
                },
                {
                    "name": "A5",
                    "midi": 81,
                    "time": 233.4375,
                    "velocity": 0.7874015748031497,
                    "duration": 0.10416666666665719
                },
                {
                    "name": "C5",
                    "midi": 72,
                    "time": 233.59375,
                    "velocity": 0.7874015748031497,
                    "duration": 0.10416666666665719
                },
                {
                    "name": "A#4",
                    "midi": 70,
                    "time": 233.75,
                    "velocity": 0.7874015748031497,
                    "duration": 0.10416666666665719
                },
                {
                    "name": "A5",
                    "midi": 81,
                    "time": 233.90625,
                    "velocity": 0.7874015748031497,
                    "duration": 0.1497395833333428
                },
                {
                    "name": "G5",
                    "midi": 79,
                    "time": 234.0625,
                    "velocity": 0.7874015748031497,
                    "duration": 0.1497395833333428
                },
                {
                    "name": "F5",
                    "midi": 77,
                    "time": 234.21875,
                    "velocity": 0.7874015748031497,
                    "duration": 0.1497395833333428
                },
                {
                    "name": "G5",
                    "midi": 79,
                    "time": 234.375,
                    "velocity": 0.7874015748031497,
                    "duration": 0.10416666666665719
                },
                {
                    "name": "A#4",
                    "midi": 70,
                    "time": 234.53125,
                    "velocity": 0.7874015748031497,
                    "duration": 0.10416666666665719
                },
                {
                    "name": "G5",
                    "midi": 79,
                    "time": 234.6875,
                    "velocity": 0.7874015748031497,
                    "duration": 0.10416666666665719
                },
                {
                    "name": "A#4",
                    "midi": 70,
                    "time": 234.84375,
                    "velocity": 0.7874015748031497,
                    "duration": 0.10416666666665719
                },
                {
                    "name": "A4",
                    "midi": 69,
                    "time": 235,
                    "velocity": 0.7874015748031497,
                    "duration": 0.9309895833333428
                },
                {
                    "name": "G5",
                    "midi": 79,
                    "time": 235.15625,
                    "velocity": 0.7874015748031497,
                    "duration": 0.1497395833333428
                },
                {
                    "name": "F5",
                    "midi": 77,
                    "time": 235.3125,
                    "velocity": 0.7874015748031497,
                    "duration": 0.1497395833333428
                },
                {
                    "name": "E5",
                    "midi": 76,
                    "time": 235.46875,
                    "velocity": 0.7874015748031497,
                    "duration": 0.1497395833333428
                },
                {
                    "name": "F5",
                    "midi": 77,
                    "time": 235.625,
                    "velocity": 0.7874015748031497,
                    "duration": 0.1497395833333428
                },
                {
                    "name": "A4",
                    "midi": 69,
                    "time": 235.78125,
                    "velocity": 0.7874015748031497,
                    "duration": 0.4622395833333428
                },
                {
                    "name": "F5",
                    "midi": 77,
                    "time": 235.9375,
                    "velocity": 0.7874015748031497,
                    "duration": 0.1497395833333428
                },
                {
                    "name": "A4",
                    "midi": 69,
                    "time": 236.09375,
                    "velocity": 0.7874015748031497,
                    "duration": 19.427083333333343
                },
                {
                    "name": "G4",
                    "midi": 67,
                    "time": 236.25,
                    "velocity": 0.7874015748031497,
                    "duration": 0.1497395833333428
                },
                {
                    "name": "A#4",
                    "midi": 70,
                    "time": 236.40625,
                    "velocity": 0.7874015748031497,
                    "duration": 0.1497395833333428
                },
                {
                    "name": "F5",
                    "midi": 77,
                    "time": 236.5625,
                    "velocity": 0.7874015748031497,
                    "duration": 0.1497395833333428
                },
                {
                    "name": "A#4",
                    "midi": 70,
                    "time": 236.71875,
                    "velocity": 0.7874015748031497,
                    "duration": 0.10416666666665719
                },
                {
                    "name": "G4",
                    "midi": 67,
                    "time": 236.875,
                    "velocity": 0.7874015748031497,
                    "duration": 0.1497395833333428
                },
                {
                    "name": "A#4",
                    "midi": 70,
                    "time": 237.03125,
                    "velocity": 0.7874015748031497,
                    "duration": 0.1497395833333428
                },
                {
                    "name": "E5",
                    "midi": 76,
                    "time": 237.1875,
                    "velocity": 0.7874015748031497,
                    "duration": 0.1497395833333428
                },
                {
                    "name": "A#4",
                    "midi": 70,
                    "time": 237.34375,
                    "velocity": 0.7874015748031497,
                    "duration": 0.10416666666665719
                },
                {
                    "name": "A4",
                    "midi": 69,
                    "time": 255.3125,
                    "velocity": 0.7874015748031497,
                    "duration": 0.5208333333333428
                },
                {
                    "name": "A4",
                    "midi": 69,
                    "time": 255.625,
                    "velocity": 0.7874015748031497,
                    "duration": 1.2434895833333144
                },
                {
                    "name": "B4",
                    "midi": 71,
                    "time": 255.9375,
                    "velocity": 0.7874015748031497,
                    "duration": 0.20833333333331439
                },
                {
                    "name": "C5",
                    "midi": 72,
                    "time": 256.25,
                    "velocity": 0.7874015748031497,
                    "duration": 0.20833333333331439
                },
                {
                    "name": "A4",
                    "midi": 69,
                    "time": 256.5625,
                    "velocity": 0.7874015748031497,
                    "duration": 15.833333333333314
                },
                {
                    "name": "C5",
                    "midi": 72,
                    "time": 256.875,
                    "velocity": 0.7874015748031497,
                    "duration": 0.3059895833333144
                },
                {
                    "name": "D5",
                    "midi": 74,
                    "time": 257.1875,
                    "velocity": 0.7874015748031497,
                    "duration": 0.3059895833333144
                },
                {
                    "name": "G4",
                    "midi": 67,
                    "time": 271.5625,
                    "velocity": 0.7874015748031497,
                    "duration": 0.20833333333331439
                },
                {
                    "name": "G4",
                    "midi": 67,
                    "time": 271.875,
                    "velocity": 0.7874015748031497,
                    "duration": 0.20833333333331439
                },
                {
                    "name": "A4",
                    "midi": 69,
                    "time": 272.1875,
                    "velocity": 0.7874015748031497,
                    "duration": 2.8059895833333144
                },
                {
                    "name": "A#4",
                    "midi": 70,
                    "time": 272.5,
                    "velocity": 0.7874015748031497,
                    "duration": 0.20833333333331439
                },
                {
                    "name": "G4",
                    "midi": 67,
                    "time": 272.8125,
                    "velocity": 0.7874015748031497,
                    "duration": 0.3059895833333144
                },
                {
                    "name": "A#4",
                    "midi": 70,
                    "time": 273.125,
                    "velocity": 0.7874015748031497,
                    "duration": 0.3059895833333144
                },
                {
                    "name": "C5",
                    "midi": 72,
                    "time": 273.4375,
                    "velocity": 0.7874015748031497,
                    "duration": 0.3059895833333144
                },
                {
                    "name": "D5",
                    "midi": 74,
                    "time": 273.75,
                    "velocity": 0.7874015748031497,
                    "duration": 0.07161458333331439
                },
                {
                    "name": "C5",
                    "midi": 72,
                    "time": 273.828125,
                    "velocity": 0.7874015748031497,
                    "duration": 0.07161458333331439
                },
                {
                    "name": "D5",
                    "midi": 74,
                    "time": 273.90625,
                    "velocity": 0.7874015748031497,
                    "duration": 0.22786458333331439
                },
                {
                    "name": "D4",
                    "midi": 62,
                    "time": 274.0625,
                    "velocity": 0.7874015748031497,
                    "duration": 0.20833333333331439
                },
                {
                    "name": "D#5",
                    "midi": 75,
                    "time": 274.21875,
                    "velocity": 0.7874015748031497,
                    "duration": 0.14973958333331439
                },
                {
                    "name": "D4",
                    "midi": 62,
                    "time": 274.375,
                    "velocity": 0.7874015748031497,
                    "duration": 0.20833333333331439
                },
                {
                    "name": "D5",
                    "midi": 74,
                    "time": 274.375,
                    "velocity": 0.7874015748031497,
                    "duration": 0.14973958333331439
                },
                {
                    "name": "C5",
                    "midi": 72,
                    "time": 274.53125,
                    "velocity": 0.7874015748031497,
                    "duration": 0.14973958333331439
                },
                {
                    "name": "D4",
                    "midi": 62,
                    "time": 274.6875,
                    "velocity": 0.7874015748031497,
                    "duration": 0.20833333333331439
                },
                {
                    "name": "A#4",
                    "midi": 70,
                    "time": 274.6875,
                    "velocity": 0.7874015748031497,
                    "duration": 0.14973958333331439
                },
                {
                    "name": "A4",
                    "midi": 69,
                    "time": 274.84375,
                    "velocity": 0.7874015748031497,
                    "duration": 0.6184895833333144
                },
                {
                    "name": "G4",
                    "midi": 67,
                    "time": 275,
                    "velocity": 0.7874015748031497,
                    "duration": 0.3059895833333144
                },
                {
                    "name": "E4",
                    "midi": 64,
                    "time": 275,
                    "velocity": 0.7874015748031497,
                    "duration": 0.3059895833333144
                },
                {
                    "name": "A4",
                    "midi": 69,
                    "time": 275.3125,
                    "velocity": 0.7874015748031497,
                    "duration": 1.510416666666572
                },
                {
                    "name": "D4",
                    "midi": 62,
                    "time": 275.3125,
                    "velocity": 0.7874015748031497,
                    "duration": 0.3059895833333144
                },
                {
                    "name": "A#4",
                    "midi": 70,
                    "time": 275.46875,
                    "velocity": 0.7874015748031497,
                    "duration": 0.14973958333331439
                },
                {
                    "name": "E4",
                    "midi": 64,
                    "time": 275.625,
                    "velocity": 0.7874015748031497,
                    "duration": 0.20833333333331439
                },
                {
                    "name": "C5",
                    "midi": 72,
                    "time": 275.625,
                    "velocity": 0.7874015748031497,
                    "duration": 0.20833333333331439
                },
                {
                    "name": "F#4",
                    "midi": 66,
                    "time": 275.9375,
                    "velocity": 0.7874015748031497,
                    "duration": 0.20833333333331439
                },
                {
                    "name": "C5",
                    "midi": 72,
                    "time": 275.9375,
                    "velocity": 0.7874015748031497,
                    "duration": 0.20833333333331439
                },
                {
                    "name": "G4",
                    "midi": 67,
                    "time": 276.25,
                    "velocity": 0.7874015748031497,
                    "duration": 0.20833333333331439
                },
                {
                    "name": "C5",
                    "midi": 72,
                    "time": 276.40625,
                    "velocity": 0.7874015748031497,
                    "duration": 0.10416666666662877
                },
                {
                    "name": "D4",
                    "midi": 62,
                    "time": 276.56249999999994,
                    "velocity": 0.7874015748031497,
                    "duration": 0.20833333333331439
                },
                {
                    "name": "A#4",
                    "midi": 70,
                    "time": 276.56249999999994,
                    "velocity": 0.7874015748031497,
                    "duration": 0.10416666666668561
                },
                {
                    "name": "A4",
                    "midi": 69,
                    "time": 276.71874999999994,
                    "velocity": 0.7874015748031497,
                    "duration": 1.3997395833332575
                },
                {
                    "name": "G4",
                    "midi": 67,
                    "time": 276.8749999999999,
                    "velocity": 0.7874015748031497,
                    "duration": 0.20833333333331439
                },
                {
                    "name": "A#4",
                    "midi": 70,
                    "time": 276.8749999999999,
                    "velocity": 0.7874015748031497,
                    "duration": 0.20833333333331439
                },
                {
                    "name": "G4",
                    "midi": 67,
                    "time": 277.1874999999999,
                    "velocity": 0.7874015748031497,
                    "duration": 0.20833333333331439
                },
                {
                    "name": "A#4",
                    "midi": 70,
                    "time": 277.1874999999999,
                    "velocity": 0.7874015748031497,
                    "duration": 0.20833333333331439
                },
                {
                    "name": "A4",
                    "midi": 69,
                    "time": 277.4999999999999,
                    "velocity": 0.7874015748031497,
                    "duration": 14.680989583333371
                },
                {
                    "name": "G4",
                    "midi": 67,
                    "time": 277.6562499999999,
                    "velocity": 0.7874015748031497,
                    "duration": 0.14973958333331439
                },
                {
                    "name": "F#4",
                    "midi": 66,
                    "time": 277.8124999999999,
                    "velocity": 0.7874015748031497,
                    "duration": 0.14973958333331439
                },
                {
                    "name": "E4",
                    "midi": 64,
                    "time": 277.9687499999999,
                    "velocity": 0.7874015748031497,
                    "duration": 0.14973958333331439
                },
                {
                    "name": "F#4",
                    "midi": 66,
                    "time": 278.1249999999999,
                    "velocity": 0.7874015748031497,
                    "duration": 0.6184895833333712
                },
                {
                    "name": "D#5",
                    "midi": 75,
                    "time": 278.2812499999999,
                    "velocity": 0.7874015748031497,
                    "duration": 0.14973958333331439
                },
                {
                    "name": "D5",
                    "midi": 74,
                    "time": 278.4374999999999,
                    "velocity": 0.7874015748031497,
                    "duration": 0.14973958333331439
                },
                {
                    "name": "C5",
                    "midi": 72,
                    "time": 278.5937499999999,
                    "velocity": 0.7874015748031497,
                    "duration": 0.10416666666668561
                },
                {
                    "name": "F5",
                    "midi": 77,
                    "time": 289.06249999999994,
                    "velocity": 0.7874015748031497,
                    "duration": 0.20833333333331439
                },
                {
                    "name": "F5",
                    "midi": 77,
                    "time": 289.37499999999994,
                    "velocity": 0.7874015748031497,
                    "duration": 0.3059895833333144
                },
                {
                    "name": "A#5",
                    "midi": 82,
                    "time": 289.68749999999994,
                    "velocity": 0.7874015748031497,
                    "duration": 0.3059895833333144
                },
                {
                    "name": "D5",
                    "midi": 74,
                    "time": 289.99999999999994,
                    "velocity": 0.7874015748031497,
                    "duration": 0.20833333333331439
                },
                {
                    "name": "D#5",
                    "midi": 75,
                    "time": 290.31249999999994,
                    "velocity": 0.7874015748031497,
                    "duration": 0.3059895833333144
                },
                {
                    "name": "G5",
                    "midi": 79,
                    "time": 290.62499999999994,
                    "velocity": 0.7874015748031497,
                    "duration": 0.3059895833333144
                },
                {
                    "name": "C5",
                    "midi": 72,
                    "time": 290.93749999999994,
                    "velocity": 0.7874015748031497,
                    "duration": 0.20833333333331439
                },
                {
                    "name": "D5",
                    "midi": 74,
                    "time": 291.24999999999994,
                    "velocity": 0.7874015748031497,
                    "duration": 0.3059895833333144
                },
                {
                    "name": "F5",
                    "midi": 77,
                    "time": 291.56249999999994,
                    "velocity": 0.7874015748031497,
                    "duration": 0.3059895833333144
                },
                {
                    "name": "A4",
                    "midi": 69,
                    "time": 291.87499999999994,
                    "velocity": 0.7874015748031497,
                    "duration": 15.774739583333314
                },
                {
                    "name": "A#4",
                    "midi": 70,
                    "time": 292.18749999999994,
                    "velocity": 0.7874015748031497,
                    "duration": 0.4166666666666856
                },
                {
                    "name": "C5",
                    "midi": 72,
                    "time": 292.81249999999994,
                    "velocity": 0.7874015748031497,
                    "duration": 0.20833333333331439
                },
                {
                    "name": "D5",
                    "midi": 74,
                    "time": 293.12499999999994,
                    "velocity": 0.7874015748031497,
                    "duration": 0.3059895833333144
                },
                {
                    "name": "D#5",
                    "midi": 75,
                    "time": 293.43749999999994,
                    "velocity": 0.7874015748031497,
                    "duration": 0.3059895833333144
                },
                {
                    "name": "F5",
                    "midi": 77,
                    "time": 293.74999999999994,
                    "velocity": 0.7874015748031497,
                    "duration": 0.3059895833333144
                },
                {
                    "name": "D#5",
                    "midi": 75,
                    "time": 294.06249999999994,
                    "velocity": 0.7874015748031497,
                    "duration": 0.3059895833333144
                },
                {
                    "name": "F5",
                    "midi": 77,
                    "time": 294.37499999999994,
                    "velocity": 0.7874015748031497,
                    "duration": 0.3059895833333144
                },
                {
                    "name": "G5",
                    "midi": 79,
                    "time": 294.68749999999994,
                    "velocity": 0.7874015748031497,
                    "duration": 0.3059895833333144
                },
                {
                    "name": "F5",
                    "midi": 77,
                    "time": 294.99999999999994,
                    "velocity": 0.7874015748031497,
                    "duration": 0.3059895833333144
                },
                {
                    "name": "G5",
                    "midi": 79,
                    "time": 295.31249999999994,
                    "velocity": 0.7874015748031497,
                    "duration": 0.3059895833333144
                },
                {
                    "name": "A5",
                    "midi": 81,
                    "time": 295.62499999999994,
                    "velocity": 0.7874015748031497,
                    "duration": 0.3059895833333144
                },
                {
                    "name": "G5",
                    "midi": 79,
                    "time": 295.93749999999994,
                    "velocity": 0.7874015748031497,
                    "duration": 0.3059895833333144
                },
                {
                    "name": "A5",
                    "midi": 81,
                    "time": 296.24999999999994,
                    "velocity": 0.7874015748031497,
                    "duration": 0.3059895833333144
                },
                {
                    "name": "A#5",
                    "midi": 82,
                    "time": 296.56249999999994,
                    "velocity": 0.7874015748031497,
                    "duration": 0.3059895833333144
                },
                {
                    "name": "A5",
                    "midi": 81,
                    "time": 296.87499999999994,
                    "velocity": 0.7874015748031497,
                    "duration": 0.3059895833333144
                },
                {
                    "name": "G5",
                    "midi": 79,
                    "time": 297.18749999999994,
                    "velocity": 0.7874015748031497,
                    "duration": 0.3059895833333144
                },
                {
                    "name": "F5",
                    "midi": 77,
                    "time": 297.49999999999994,
                    "velocity": 0.7874015748031497,
                    "duration": 0.20833333333331439
                },
                {
                    "name": "F5",
                    "midi": 77,
                    "time": 297.81249999999994,
                    "velocity": 0.7874015748031497,
                    "duration": 0.3059895833333144
                },
                {
                    "name": "G5",
                    "midi": 79,
                    "time": 298.12499999999994,
                    "velocity": 0.7874015748031497,
                    "duration": 0.3059895833333144
                },
                {
                    "name": "E5",
                    "midi": 76,
                    "time": 298.43749999999994,
                    "velocity": 0.7874015748031497,
                    "duration": 0.3059895833333144
                },
                {
                    "name": "F5",
                    "midi": 77,
                    "time": 298.74999999999994,
                    "velocity": 0.7874015748031497,
                    "duration": 0.20833333333331439
                },
                {
                    "name": "A5",
                    "midi": 81,
                    "time": 299.06249999999994,
                    "velocity": 0.7874015748031497,
                    "duration": 0.10416666666668561
                },
                {
                    "name": "G5",
                    "midi": 79,
                    "time": 299.21874999999994,
                    "velocity": 0.7874015748031497,
                    "duration": 0.10416666666668561
                },
                {
                    "name": "F5",
                    "midi": 77,
                    "time": 299.37499999999994,
                    "velocity": 0.7874015748031497,
                    "duration": 0.20833333333331439
                },
                {
                    "name": "F5",
                    "midi": 77,
                    "time": 299.68749999999994,
                    "velocity": 0.7874015748031497,
                    "duration": 0.20833333333331439
                },
                {
                    "name": "A5",
                    "midi": 81,
                    "time": 299.99999999999994,
                    "velocity": 0.7874015748031497,
                    "duration": 0.10416666666668561
                },
                {
                    "name": "G5",
                    "midi": 79,
                    "time": 300.15624999999994,
                    "velocity": 0.7874015748031497,
                    "duration": 0.10416666666668561
                },
                {
                    "name": "F5",
                    "midi": 77,
                    "time": 300.31249999999994,
                    "velocity": 0.7874015748031497,
                    "duration": 0.20833333333331439
                },
                {
                    "name": "G5",
                    "midi": 79,
                    "time": 300.62499999999994,
                    "velocity": 0.7874015748031497,
                    "duration": 0.20833333333331439
                },
                {
                    "name": "A#5",
                    "midi": 82,
                    "time": 300.93749999999994,
                    "velocity": 0.7874015748031497,
                    "duration": 0.10416666666668561
                },
                {
                    "name": "A5",
                    "midi": 81,
                    "time": 301.09374999999994,
                    "velocity": 0.7874015748031497,
                    "duration": 0.10416666666668561
                },
                {
                    "name": "G5",
                    "midi": 79,
                    "time": 301.24999999999994,
                    "velocity": 0.7874015748031497,
                    "duration": 0.20833333333331439
                },
                {
                    "name": "G5",
                    "midi": 79,
                    "time": 301.56249999999994,
                    "velocity": 0.7874015748031497,
                    "duration": 0.20833333333331439
                },
                {
                    "name": "A#5",
                    "midi": 82,
                    "time": 301.87499999999994,
                    "velocity": 0.7874015748031497,
                    "duration": 0.10416666666668561
                },
                {
                    "name": "A5",
                    "midi": 81,
                    "time": 302.03124999999994,
                    "velocity": 0.7874015748031497,
                    "duration": 0.10416666666668561
                },
                {
                    "name": "G5",
                    "midi": 79,
                    "time": 302.18749999999994,
                    "velocity": 0.7874015748031497,
                    "duration": 0.20833333333331439
                },
                {
                    "name": "A5",
                    "midi": 81,
                    "time": 302.49999999999994,
                    "velocity": 0.7874015748031497,
                    "duration": 0.3059895833333144
                },
                {
                    "name": "F5",
                    "midi": 77,
                    "time": 302.81249999999994,
                    "velocity": 0.7874015748031497,
                    "duration": 0.14973958333331439
                },
                {
                    "name": "G5",
                    "midi": 79,
                    "time": 302.96874999999994,
                    "velocity": 0.7874015748031497,
                    "duration": 0.14973958333331439
                },
                {
                    "name": "A5",
                    "midi": 81,
                    "time": 303.12499999999994,
                    "velocity": 0.7874015748031497,
                    "duration": 0.20833333333331439
                },
                {
                    "name": "G5",
                    "midi": 79,
                    "time": 303.43749999999994,
                    "velocity": 0.7874015748031497,
                    "duration": 0.3059895833333144
                },
                {
                    "name": "E5",
                    "midi": 76,
                    "time": 303.74999999999994,
                    "velocity": 0.7874015748031497,
                    "duration": 0.14973958333331439
                },
                {
                    "name": "F5",
                    "midi": 77,
                    "time": 303.90624999999994,
                    "velocity": 0.7874015748031497,
                    "duration": 0.14973958333331439
                },
                {
                    "name": "G5",
                    "midi": 79,
                    "time": 304.06249999999994,
                    "velocity": 0.7874015748031497,
                    "duration": 0.20833333333331439
                },
                {
                    "name": "F5",
                    "midi": 77,
                    "time": 304.37499999999994,
                    "velocity": 0.7874015748031497,
                    "duration": 0.3059895833333144
                },
                {
                    "name": "D5",
                    "midi": 74,
                    "time": 304.68749999999994,
                    "velocity": 0.7874015748031497,
                    "duration": 0.14973958333331439
                },
                {
                    "name": "E5",
                    "midi": 76,
                    "time": 304.84374999999994,
                    "velocity": 0.7874015748031497,
                    "duration": 0.14973958333331439
                },
                {
                    "name": "F5",
                    "midi": 77,
                    "time": 304.99999999999994,
                    "velocity": 0.7874015748031497,
                    "duration": 0.20833333333331439
                },
                {
                    "name": "E5",
                    "midi": 76,
                    "time": 305.31249999999994,
                    "velocity": 0.7874015748031497,
                    "duration": 0.3059895833333144
                },
                {
                    "name": "C5",
                    "midi": 72,
                    "time": 305.62499999999994,
                    "velocity": 0.7874015748031497,
                    "duration": 0.14973958333331439
                },
                {
                    "name": "D5",
                    "midi": 74,
                    "time": 305.78124999999994,
                    "velocity": 0.7874015748031497,
                    "duration": 0.14973958333331439
                },
                {
                    "name": "E5",
                    "midi": 76,
                    "time": 305.93749999999994,
                    "velocity": 0.7874015748031497,
                    "duration": 0.20833333333331439
                },
                {
                    "name": "D5",
                    "midi": 74,
                    "time": 306.24999999999994,
                    "velocity": 0.7874015748031497,
                    "duration": 0.3059895833333144
                },
                {
                    "name": "A#4",
                    "midi": 70,
                    "time": 306.56249999999994,
                    "velocity": 0.7874015748031497,
                    "duration": 0.14973958333331439
                },
                {
                    "name": "C5",
                    "midi": 72,
                    "time": 306.71874999999994,
                    "velocity": 0.7874015748031497,
                    "duration": 0.14973958333331439
                },
                {
                    "name": "D5",
                    "midi": 74,
                    "time": 306.87499999999994,
                    "velocity": 0.7874015748031497,
                    "duration": 0.20833333333331439
                },
                {
                    "name": "C5",
                    "midi": 72,
                    "time": 307.18749999999994,
                    "velocity": 0.7874015748031497,
                    "duration": 0.3059895833333144
                },
                {
                    "name": "A4",
                    "midi": 69,
                    "time": 307.49999999999994,
                    "velocity": 0.7874015748031497,
                    "duration": 1.5559895833333144
                },
                {
                    "name": "A#4",
                    "midi": 70,
                    "time": 307.65624999999994,
                    "velocity": 0.7874015748031497,
                    "duration": 0.14973958333331439
                },
                {
                    "name": "C5",
                    "midi": 72,
                    "time": 307.81249999999994,
                    "velocity": 0.7874015748031497,
                    "duration": 0.20833333333331439
                },
                {
                    "name": "A#4",
                    "midi": 70,
                    "time": 308.12499999999994,
                    "velocity": 0.7874015748031497,
                    "duration": 0.3059895833333144
                },
                {
                    "name": "D5",
                    "midi": 74,
                    "time": 308.43749999999994,
                    "velocity": 0.7874015748031497,
                    "duration": 0.14973958333331439
                },
                {
                    "name": "C5",
                    "midi": 72,
                    "time": 308.59374999999994,
                    "velocity": 0.7874015748031497,
                    "duration": 0.14973958333331439
                },
                {
                    "name": "A#4",
                    "midi": 70,
                    "time": 308.74999999999994,
                    "velocity": 0.7874015748031497,
                    "duration": 0.14973958333331439
                },
                {
                    "name": "A4",
                    "midi": 69,
                    "time": 308.90624999999994,
                    "velocity": 0.7874015748031497,
                    "duration": 1.0872395833333144
                },
                {
                    "name": "A#4",
                    "midi": 70,
                    "time": 309.06249999999994,
                    "velocity": 0.7874015748031497,
                    "duration": 0.3059895833333144
                },
                {
                    "name": "D5",
                    "midi": 74,
                    "time": 309.37499999999994,
                    "velocity": 0.7874015748031497,
                    "duration": 0.14973958333331439
                },
                {
                    "name": "C5",
                    "midi": 72,
                    "time": 309.53124999999994,
                    "velocity": 0.7874015748031497,
                    "duration": 0.14973958333331439
                },
                {
                    "name": "A#4",
                    "midi": 70,
                    "time": 309.68749999999994,
                    "velocity": 0.7874015748031497,
                    "duration": 0.14973958333331439
                },
                {
                    "name": "A4",
                    "midi": 69,
                    "time": 309.84374999999994,
                    "velocity": 0.7874015748031497,
                    "duration": 0.7747395833333144
                },
                {
                    "name": "A#4",
                    "midi": 70,
                    "time": 309.99999999999994,
                    "velocity": 0.7874015748031497,
                    "duration": 0.3059895833333144
                },
                {
                    "name": "E5",
                    "midi": 76,
                    "time": 309.99999999999994,
                    "velocity": 0.7874015748031497,
                    "duration": 2.0833333333333144
                },
                {
                    "name": "G4",
                    "midi": 67,
                    "time": 310.31249999999994,
                    "velocity": 0.7874015748031497,
                    "duration": 0.14973958333331439
                },
                {
                    "name": "A4",
                    "midi": 69,
                    "time": 310.46874999999994,
                    "velocity": 0.7874015748031497,
                    "duration": 1.0872395833333144
                },
                {
                    "name": "A#4",
                    "midi": 70,
                    "time": 310.62499999999994,
                    "velocity": 0.7874015748031497,
                    "duration": 0.20833333333331439
                },
                {
                    "name": "A#4",
                    "midi": 70,
                    "time": 310.93749999999994,
                    "velocity": 0.7874015748031497,
                    "duration": 0.3059895833333144
                },
                {
                    "name": "G4",
                    "midi": 67,
                    "time": 311.24999999999994,
                    "velocity": 0.7874015748031497,
                    "duration": 0.14973958333331439
                },
                {
                    "name": "A4",
                    "midi": 69,
                    "time": 311.40624999999994,
                    "velocity": 0.7874015748031497,
                    "duration": 8.802083333333371
                },
                {
                    "name": "A#4",
                    "midi": 70,
                    "time": 311.56249999999994,
                    "velocity": 0.7874015748031497,
                    "duration": 0.20833333333331439
                },
                {
                    "name": "A#4",
                    "midi": 70,
                    "time": 311.87499999999994,
                    "velocity": 0.7874015748031497,
                    "duration": 1.8684895833333144
                },
                {
                    "name": "G5",
                    "midi": 79,
                    "time": 312.18749999999994,
                    "velocity": 0.7874015748031497,
                    "duration": 0.14973958333331439
                },
                {
                    "name": "F5",
                    "midi": 77,
                    "time": 312.34374999999994,
                    "velocity": 0.7874015748031497,
                    "duration": 0.14973958333331439
                },
                {
                    "name": "E5",
                    "midi": 76,
                    "time": 312.49999999999994,
                    "velocity": 0.7874015748031497,
                    "duration": 0.14973958333331439
                },
                {
                    "name": "D5",
                    "midi": 74,
                    "time": 312.65624999999994,
                    "velocity": 0.7874015748031497,
                    "duration": 0.14973958333331439
                },
                {
                    "name": "E5",
                    "midi": 76,
                    "time": 312.81249999999994,
                    "velocity": 0.7874015748031497,
                    "duration": 0.3059895833333144
                },
                {
                    "name": "G5",
                    "midi": 79,
                    "time": 313.12499999999994,
                    "velocity": 0.7874015748031497,
                    "duration": 0.14973958333331439
                },
                {
                    "name": "F5",
                    "midi": 77,
                    "time": 313.28124999999994,
                    "velocity": 0.7874015748031497,
                    "duration": 0.14973958333331439
                },
                {
                    "name": "E5",
                    "midi": 76,
                    "time": 313.43749999999994,
                    "velocity": 0.7874015748031497,
                    "duration": 0.14973958333331439
                },
                {
                    "name": "D5",
                    "midi": 74,
                    "time": 313.59374999999994,
                    "velocity": 0.7874015748031497,
                    "duration": 0.14973958333331439
                },
                {
                    "name": "E5",
                    "midi": 76,
                    "time": 313.74999999999994,
                    "velocity": 0.7874015748031497,
                    "duration": 0.3059895833333144
                },
                {
                    "name": "A#5",
                    "midi": 82,
                    "time": 313.74999999999994,
                    "velocity": 0.937007874015748,
                    "duration": 1.8684895833333144
                },
                {
                    "name": "C5",
                    "midi": 72,
                    "time": 314.06249999999994,
                    "velocity": 0.7874015748031497,
                    "duration": 0.14973958333331439
                },
                {
                    "name": "D5",
                    "midi": 74,
                    "time": 314.21874999999994,
                    "velocity": 0.7874015748031497,
                    "duration": 0.14973958333331439
                },
                {
                    "name": "E5",
                    "midi": 76,
                    "time": 314.37499999999994,
                    "velocity": 0.7874015748031497,
                    "duration": 0.20833333333331439
                },
                {
                    "name": "E5",
                    "midi": 76,
                    "time": 314.68749999999994,
                    "velocity": 0.7874015748031497,
                    "duration": 0.3059895833333144
                },
                {
                    "name": "C5",
                    "midi": 72,
                    "time": 314.99999999999994,
                    "velocity": 0.7874015748031497,
                    "duration": 0.14973958333331439
                },
                {
                    "name": "D5",
                    "midi": 74,
                    "time": 315.15624999999994,
                    "velocity": 0.7874015748031497,
                    "duration": 0.14973958333331439
                },
                {
                    "name": "E5",
                    "midi": 76,
                    "time": 315.31249999999994,
                    "velocity": 0.7874015748031497,
                    "duration": 0.20833333333331439
                },
                {
                    "name": "F5",
                    "midi": 77,
                    "time": 315.62499999999994,
                    "velocity": 0.7874015748031497,
                    "duration": 0.4166666666666856
                },
                {
                    "name": "A5",
                    "midi": 81,
                    "time": 315.62499999999994,
                    "velocity": 0.7874015748031497,
                    "duration": 0.20833333333331439
                },
                {
                    "name": "G5",
                    "midi": 79,
                    "time": 315.93749999999994,
                    "velocity": 0.7874015748031497,
                    "duration": 0.20833333333337123
                },
                {
                    "name": "F5",
                    "midi": 77,
                    "time": 316.25,
                    "velocity": 0.7874015748031497,
                    "duration": 0.20833333333331439
                },
                {
                    "name": "C5",
                    "midi": 72,
                    "time": 316.5625,
                    "velocity": 0.7874015748031497,
                    "duration": 0.20833333333331439
                },
                {
                    "name": "F5",
                    "midi": 77,
                    "time": 316.875,
                    "velocity": 0.7874015748031497,
                    "duration": 0.20833333333331439
                },
                {
                    "name": "E5",
                    "midi": 76,
                    "time": 317.1875,
                    "velocity": 0.7874015748031497,
                    "duration": 0.20833333333331439
                },
                {
                    "name": "F5",
                    "midi": 77,
                    "time": 317.5,
                    "velocity": 0.7874015748031497,
                    "duration": 0.3059895833333144
                },
                {
                    "name": "A5",
                    "midi": 81,
                    "time": 317.8125,
                    "velocity": 0.7874015748031497,
                    "duration": 0.3059895833333144
                },
                {
                    "name": "C5",
                    "midi": 72,
                    "time": 318.125,
                    "velocity": 0.7874015748031497,
                    "duration": 0.20833333333331439
                },
                {
                    "name": "D5",
                    "midi": 74,
                    "time": 318.4375,
                    "velocity": 0.7874015748031497,
                    "duration": 0.3059895833333144
                },
                {
                    "name": "F5",
                    "midi": 77,
                    "time": 318.75,
                    "velocity": 0.7874015748031497,
                    "duration": 0.3059895833333144
                },
                {
                    "name": "A#4",
                    "midi": 70,
                    "time": 319.0625,
                    "velocity": 0.7874015748031497,
                    "duration": 0.20833333333331439
                },
                {
                    "name": "C5",
                    "midi": 72,
                    "time": 319.375,
                    "velocity": 0.7874015748031497,
                    "duration": 0.3059895833333144
                },
                {
                    "name": "F5",
                    "midi": 77,
                    "time": 319.6875,
                    "velocity": 0.7874015748031497,
                    "duration": 0.3059895833333144
                },
                {
                    "name": "A4",
                    "midi": 69,
                    "time": 320,
                    "velocity": 0.7874015748031497,
                    "duration": 43.509114583333314
                },
                {
                    "name": "C4",
                    "midi": 60,
                    "time": 320.3125,
                    "velocity": 0.7874015748031497,
                    "duration": 0.20833333333331439
                },
                {
                    "name": "F4",
                    "midi": 65,
                    "time": 320.625,
                    "velocity": 0.7874015748031497,
                    "duration": 0.3059895833333144
                },
                {
                    "name": "E4",
                    "midi": 64,
                    "time": 320.9375,
                    "velocity": 0.7874015748031497,
                    "duration": 0.20833333333331439
                },
                {
                    "name": "F5",
                    "midi": 77,
                    "time": 360.625,
                    "velocity": 0.7874015748031497,
                    "duration": 0.3059895833333144
                },
                {
                    "name": "A#5",
                    "midi": 82,
                    "time": 360.9375,
                    "velocity": 0.7874015748031497,
                    "duration": 0.3059895833333144
                },
                {
                    "name": "D5",
                    "midi": 74,
                    "time": 361.25,
                    "velocity": 0.7874015748031497,
                    "duration": 0.20833333333331439
                },
                {
                    "name": "D#5",
                    "midi": 75,
                    "time": 361.5625,
                    "velocity": 0.7874015748031497,
                    "duration": 0.3059895833333144
                },
                {
                    "name": "G5",
                    "midi": 79,
                    "time": 361.875,
                    "velocity": 0.7874015748031497,
                    "duration": 0.3059895833333144
                },
                {
                    "name": "C5",
                    "midi": 72,
                    "time": 362.1875,
                    "velocity": 0.7874015748031497,
                    "duration": 0.20833333333331439
                },
                {
                    "name": "D5",
                    "midi": 74,
                    "time": 362.5,
                    "velocity": 0.7874015748031497,
                    "duration": 0.3059895833333144
                },
                {
                    "name": "F5",
                    "midi": 77,
                    "time": 362.8125,
                    "velocity": 0.7874015748031497,
                    "duration": 0.3059895833333144
                },
                {
                    "name": "A#4",
                    "midi": 70,
                    "time": 363.125,
                    "velocity": 0.7874015748031497,
                    "duration": 0.3059895833333144
                },
                {
                    "name": "A4",
                    "midi": 69,
                    "time": 363.4375,
                    "velocity": 0.7874015748031497,
                    "duration": 0.22786458333331439
                },
                {
                    "name": "A#4",
                    "midi": 70,
                    "time": 363.515625,
                    "velocity": 0.7874015748031497,
                    "duration": 0.07161458333331439
                },
                {
                    "name": "A4",
                    "midi": 69,
                    "time": 363.59375,
                    "velocity": 0.7874015748031497,
                    "duration": 0.4622395833333144
                },
                {
                    "name": "A#4",
                    "midi": 70,
                    "time": 363.671875,
                    "velocity": 0.7874015748031497,
                    "duration": 0.07161458333331439
                },
                {
                    "name": "A4",
                    "midi": 69,
                    "time": 363.75,
                    "velocity": 0.7874015748031497,
                    "duration": 66.14583333333331
                },
                {
                    "name": "A#4",
                    "midi": 70,
                    "time": 364.0625,
                    "velocity": 0.7874015748031497,
                    "duration": 0.20833333333331439
                },
                {
                    "name": "A#4",
                    "midi": 70,
                    "time": 426.25,
                    "velocity": 0.7874015748031497,
                    "duration": 0.3059895833333144
                },
                {
                    "name": "A#5",
                    "midi": 82,
                    "time": 426.5625,
                    "velocity": 0.7874015748031497,
                    "duration": 0.3059895833333144
                },
                {
                    "name": "D5",
                    "midi": 74,
                    "time": 426.875,
                    "velocity": 0.7874015748031497,
                    "duration": 0.20833333333331439
                },
                {
                    "name": "D#5",
                    "midi": 75,
                    "time": 427.1875,
                    "velocity": 0.7874015748031497,
                    "duration": 0.3059895833333144
                },
                {
                    "name": "G5",
                    "midi": 79,
                    "time": 427.5,
                    "velocity": 0.7874015748031497,
                    "duration": 0.3059895833333144
                },
                {
                    "name": "C5",
                    "midi": 72,
                    "time": 427.8125,
                    "velocity": 0.7874015748031497,
                    "duration": 0.20833333333331439
                },
                {
                    "name": "D5",
                    "midi": 74,
                    "time": 428.125,
                    "velocity": 0.7874015748031497,
                    "duration": 0.3059895833333144
                },
                {
                    "name": "F5",
                    "midi": 77,
                    "time": 428.4375,
                    "velocity": 0.7874015748031497,
                    "duration": 0.3059895833333144
                },
                {
                    "name": "A#4",
                    "midi": 70,
                    "time": 428.75,
                    "velocity": 0.7874015748031497,
                    "duration": 0.20833333333331439
                },
                {
                    "name": "C5",
                    "midi": 72,
                    "time": 429.0625,
                    "velocity": 0.7874015748031497,
                    "duration": 0.3059895833333144
                },
                {
                    "name": "D#5",
                    "midi": 75,
                    "time": 429.375,
                    "velocity": 0.7874015748031497,
                    "duration": 0.3059895833333144
                },
                {
                    "name": "A4",
                    "midi": 69,
                    "time": 429.6875,
                    "velocity": 0.7874015748031497,
                    "duration": 1.2434895833333144
                },
                {
                    "name": "A#4",
                    "midi": 70,
                    "time": 430,
                    "velocity": 0.7874015748031497,
                    "duration": 0.3059895833333144
                },
                {
                    "name": "D5",
                    "midi": 74,
                    "time": 430.3125,
                    "velocity": 0.7874015748031497,
                    "duration": 0.14973958333331439
                },
                {
                    "name": "C5",
                    "midi": 72,
                    "time": 430.46875,
                    "velocity": 0.7874015748031497,
                    "duration": 0.14973958333331439
                },
                {
                    "name": "A#4",
                    "midi": 70,
                    "time": 430.625,
                    "velocity": 0.7874015748031497,
                    "duration": 0.14973958333331439
                },
                {
                    "name": "A4",
                    "midi": 69,
                    "time": 430.78125,
                    "velocity": 0.7874015748031497,
                    "duration": 1.0872395833333144
                },
                {
                    "name": "A#4",
                    "midi": 70,
                    "time": 430.9375,
                    "velocity": 0.7874015748031497,
                    "duration": 0.3059895833333144
                },
                {
                    "name": "D5",
                    "midi": 74,
                    "time": 431.25,
                    "velocity": 0.7874015748031497,
                    "duration": 0.14973958333331439
                },
                {
                    "name": "C5",
                    "midi": 72,
                    "time": 431.40625,
                    "velocity": 0.7874015748031497,
                    "duration": 0.14973958333331439
                },
                {
                    "name": "A#4",
                    "midi": 70,
                    "time": 431.5625,
                    "velocity": 0.7874015748031497,
                    "duration": 0.14973958333331439
                },
                {
                    "name": "A4",
                    "midi": 69,
                    "time": 431.71875,
                    "velocity": 0.7874015748031497,
                    "duration": 1.0872395833333144
                },
                {
                    "name": "A#4",
                    "midi": 70,
                    "time": 431.875,
                    "velocity": 0.7874015748031497,
                    "duration": 0.3059895833333144
                },
                {
                    "name": "D5",
                    "midi": 74,
                    "time": 432.1875,
                    "velocity": 0.7874015748031497,
                    "duration": 0.14973958333331439
                },
                {
                    "name": "C5",
                    "midi": 72,
                    "time": 432.34375,
                    "velocity": 0.7874015748031497,
                    "duration": 0.14973958333331439
                },
                {
                    "name": "A#4",
                    "midi": 70,
                    "time": 432.5,
                    "velocity": 0.7874015748031497,
                    "duration": 0.14973958333331439
                },
                {
                    "name": "A4",
                    "midi": 69,
                    "time": 432.65625,
                    "velocity": 0.7874015748031497,
                    "duration": 1.0872395833333144
                },
                {
                    "name": "A#4",
                    "midi": 70,
                    "time": 432.8125,
                    "velocity": 0.7874015748031497,
                    "duration": 0.3059895833333144
                },
                {
                    "name": "D5",
                    "midi": 74,
                    "time": 433.125,
                    "velocity": 0.7874015748031497,
                    "duration": 0.14973958333331439
                },
                {
                    "name": "C5",
                    "midi": 72,
                    "time": 433.28125,
                    "velocity": 0.7874015748031497,
                    "duration": 0.14973958333331439
                },
                {
                    "name": "A#4",
                    "midi": 70,
                    "time": 433.4375,
                    "velocity": 0.7874015748031497,
                    "duration": 0.14973958333331439
                },
                {
                    "name": "A4",
                    "midi": 69,
                    "time": 433.59375,
                    "velocity": 0.7874015748031497,
                    "duration": 0
                },
                {
                    "name": "A#4",
                    "midi": 70,
                    "time": 433.75,
                    "velocity": 0.7874015748031497,
                    "duration": 0.20833333333331439
                },
                {
                    "name": "D4",
                    "midi": 62,
                    "time": 434.0625,
                    "velocity": 0.7874015748031497,
                    "duration": 0.14973958333331439
                },
                {
                    "name": "D#4",
                    "midi": 63,
                    "time": 434.21875,
                    "velocity": 0.7874015748031497,
                    "duration": 0.14973958333331439
                },
                {
                    "name": "F4",
                    "midi": 65,
                    "time": 434.375,
                    "velocity": 0.7874015748031497,
                    "duration": 0.20833333333331439
                },
                {
                    "name": "F4",
                    "midi": 65,
                    "time": 434.6875,
                    "velocity": 0.7874015748031497,
                    "duration": 0.3059895833333144
                },
                {
                    "name": "D4",
                    "midi": 62,
                    "time": 435,
                    "velocity": 0.7874015748031497,
                    "duration": 0.14973958333331439
                },
                {
                    "name": "D#4",
                    "midi": 63,
                    "time": 435.15625,
                    "velocity": 0.7874015748031497,
                    "duration": 0.14973958333331439
                },
                {
                    "name": "F4",
                    "midi": 65,
                    "time": 435.3125,
                    "velocity": 0.7874015748031497,
                    "duration": 0.20833333333331439
                },
                {
                    "name": "F4",
                    "midi": 65,
                    "time": 435.625,
                    "velocity": 0.7874015748031497,
                    "duration": 0.3059895833333144
                },
                {
                    "name": "D4",
                    "midi": 62,
                    "time": 435.9375,
                    "velocity": 0.7874015748031497,
                    "duration": 0.14973958333331439
                },
                {
                    "name": "D#4",
                    "midi": 63,
                    "time": 436.09375,
                    "velocity": 0.7874015748031497,
                    "duration": 0.14973958333331439
                },
                {
                    "name": "F4",
                    "midi": 65,
                    "time": 436.25,
                    "velocity": 0.7874015748031497,
                    "duration": 0.20833333333331439
                },
                {
                    "name": "F4",
                    "midi": 65,
                    "time": 436.5625,
                    "velocity": 0.7874015748031497,
                    "duration": 0.3059895833333144
                },
                {
                    "name": "D4",
                    "midi": 62,
                    "time": 436.875,
                    "velocity": 0.7874015748031497,
                    "duration": 0.14973958333331439
                },
                {
                    "name": "D#4",
                    "midi": 63,
                    "time": 437.03125,
                    "velocity": 0.7874015748031497,
                    "duration": 0.14973958333331439
                },
                {
                    "name": "F4",
                    "midi": 65,
                    "time": 437.1875,
                    "velocity": 0.7874015748031497,
                    "duration": 0.20833333333331439
                },
                {
                    "name": "A#3",
                    "midi": 58,
                    "time": 437.5,
                    "velocity": 0.7874015748031497,
                    "duration": 2.8059895833333144
                }
            ],
            "controlChanges": {
                "7": [
                    {
                        "number": 7,
                        "time": 0,
                        "value": 0.8188976377952756
                    }
                ],
                "10": [
                    {
                        "number": 10,
                        "time": 0,
                        "value": 0.5039370078740157
                    }
                ]
            },
            "id": 3,
            "name": "Manual 1 RH",
            "instrumentNumber": 6,
            "instrument": "harpsichord",
            "instrumentFamily": "piano",
            "channelNumber": 0,
            "isPercussion": false
        },
        {
            "startTime": 0.9375,
            "duration": 440.3059895833333,
            "length": 546,
            "notes": [
                {
                    "name": "A#2",
                    "midi": 46,
                    "time": 0.9375,
                    "velocity": 0.8818897637795275,
                    "duration": 0.14973958333333326
                },
                {
                    "name": "C3",
                    "midi": 48,
                    "time": 1.09375,
                    "velocity": 0.8818897637795275,
                    "duration": 0.14973958333333326
                },
                {
                    "name": "D3",
                    "midi": 50,
                    "time": 1.25,
                    "velocity": 0.8818897637795275,
                    "duration": 0.30598958333333326
                },
                {
                    "name": "F3",
                    "midi": 53,
                    "time": 1.5625,
                    "velocity": 0.8818897637795275,
                    "duration": 0.30598958333333326
                },
                {
                    "name": "A#3",
                    "midi": 58,
                    "time": 1.875,
                    "velocity": 0.8818897637795275,
                    "duration": 0.6184895833333335
                },
                {
                    "name": "A#2",
                    "midi": 46,
                    "time": 2.5,
                    "velocity": 0.8818897637795275,
                    "duration": 0.6184895833333335
                },
                {
                    "name": "C3",
                    "midi": 48,
                    "time": 4.6875,
                    "velocity": 0.8818897637795275,
                    "duration": 0.14973958333333304
                },
                {
                    "name": "D3",
                    "midi": 50,
                    "time": 4.84375,
                    "velocity": 0.8818897637795275,
                    "duration": 0.14973958333333304
                },
                {
                    "name": "D#3",
                    "midi": 51,
                    "time": 5,
                    "velocity": 0.8818897637795275,
                    "duration": 0.30598958333333304
                },
                {
                    "name": "G3",
                    "midi": 55,
                    "time": 5.3125,
                    "velocity": 0.8818897637795275,
                    "duration": 0.30598958333333304
                },
                {
                    "name": "C4",
                    "midi": 60,
                    "time": 5.625,
                    "velocity": 0.8818897637795275,
                    "duration": 0.618489583333333
                },
                {
                    "name": "C3",
                    "midi": 48,
                    "time": 6.25,
                    "velocity": 0.8818897637795275,
                    "duration": 0.618489583333333
                },
                {
                    "name": "D3",
                    "midi": 50,
                    "time": 8.4375,
                    "velocity": 0.8818897637795275,
                    "duration": 0.14973958333333393
                },
                {
                    "name": "D#3",
                    "midi": 51,
                    "time": 8.59375,
                    "velocity": 0.8818897637795275,
                    "duration": 0.14973958333333393
                },
                {
                    "name": "F3",
                    "midi": 53,
                    "time": 8.75,
                    "velocity": 0.8818897637795275,
                    "duration": 0.3059895833333339
                },
                {
                    "name": "A#3",
                    "midi": 58,
                    "time": 9.0625,
                    "velocity": 0.8818897637795275,
                    "duration": 0.3059895833333339
                },
                {
                    "name": "D4",
                    "midi": 62,
                    "time": 9.375,
                    "velocity": 0.8818897637795275,
                    "duration": 0.6184895833333339
                },
                {
                    "name": "D3",
                    "midi": 50,
                    "time": 10,
                    "velocity": 0.8818897637795275,
                    "duration": 0.6184895833333339
                },
                {
                    "name": "A#3",
                    "midi": 58,
                    "time": 10.9375,
                    "velocity": 0.8818897637795275,
                    "duration": 0.3059895833333339
                },
                {
                    "name": "D#4",
                    "midi": 63,
                    "time": 11.25,
                    "velocity": 0.8818897637795275,
                    "duration": 0.3059895833333339
                },
                {
                    "name": "G4",
                    "midi": 67,
                    "time": 11.5625,
                    "velocity": 0.8818897637795275,
                    "duration": 0.3059895833333339
                },
                {
                    "name": "C4",
                    "midi": 60,
                    "time": 11.875,
                    "velocity": 0.8818897637795275,
                    "duration": 0.3059895833333339
                },
                {
                    "name": "D#4",
                    "midi": 63,
                    "time": 12.1875,
                    "velocity": 0.8818897637795275,
                    "duration": 0.3059895833333339
                },
                {
                    "name": "A3",
                    "midi": 57,
                    "time": 12.5,
                    "velocity": 0.8818897637795275,
                    "duration": 0.3059895833333339
                },
                {
                    "name": "C4",
                    "midi": 60,
                    "time": 12.8125,
                    "velocity": 0.8818897637795275,
                    "duration": 0.3059895833333339
                },
                {
                    "name": "D#3",
                    "midi": 51,
                    "time": 13.125,
                    "velocity": 0.8818897637795275,
                    "duration": 0.14973958333333393
                },
                {
                    "name": "D3",
                    "midi": 50,
                    "time": 13.28125,
                    "velocity": 0.8818897637795275,
                    "duration": 0.14973958333333393
                },
                {
                    "name": "C3",
                    "midi": 48,
                    "time": 13.4375,
                    "velocity": 0.8818897637795275,
                    "duration": 0.14973958333333393
                },
                {
                    "name": "A#2",
                    "midi": 46,
                    "time": 13.59375,
                    "velocity": 0.8818897637795275,
                    "duration": 0.14973958333333393
                },
                {
                    "name": "F3",
                    "midi": 53,
                    "time": 13.75,
                    "velocity": 0.8818897637795275,
                    "duration": 0.6184895833333339
                },
                {
                    "name": "F2",
                    "midi": 41,
                    "time": 14.375,
                    "velocity": 0.8818897637795275,
                    "duration": 0.6184895833333339
                },
                {
                    "name": "G2",
                    "midi": 43,
                    "time": 48.75,
                    "velocity": 0.8818897637795275,
                    "duration": 0.6184895833333357
                },
                {
                    "name": "G3",
                    "midi": 55,
                    "time": 50.625,
                    "velocity": 0.8818897637795275,
                    "duration": 0.6184895833333357
                },
                {
                    "name": "F3",
                    "midi": 53,
                    "time": 52.5,
                    "velocity": 0.8818897637795275,
                    "duration": 0.6184895833333357
                },
                {
                    "name": "F3",
                    "midi": 53,
                    "time": 54.375,
                    "velocity": 0.8818897637795275,
                    "duration": 0.6184895833333357
                },
                {
                    "name": "D#3",
                    "midi": 51,
                    "time": 56.25,
                    "velocity": 0.8818897637795275,
                    "duration": 0.6184895833333357
                },
                {
                    "name": "D#3",
                    "midi": 51,
                    "time": 58.125,
                    "velocity": 0.8818897637795275,
                    "duration": 0.6184895833333357
                },
                {
                    "name": "F3",
                    "midi": 53,
                    "time": 60,
                    "velocity": 0.8818897637795275,
                    "duration": 0.6184895833333357
                },
                {
                    "name": "F3",
                    "midi": 53,
                    "time": 61.875,
                    "velocity": 0.8818897637795275,
                    "duration": 0.6184895833333357
                },
                {
                    "name": "C4",
                    "midi": 60,
                    "time": 63.75,
                    "velocity": 0.8818897637795275,
                    "duration": 0.6184895833333286
                },
                {
                    "name": "G3",
                    "midi": 55,
                    "time": 63.75,
                    "velocity": 0.8818897637795275,
                    "duration": 0.6184895833333286
                },
                {
                    "name": "G3",
                    "midi": 55,
                    "time": 65,
                    "velocity": 0.8818897637795275,
                    "duration": 0.6184895833333286
                },
                {
                    "name": "D3",
                    "midi": 50,
                    "time": 65,
                    "velocity": 0.8818897637795275,
                    "duration": 0.6184895833333286
                },
                {
                    "name": "G2",
                    "midi": 43,
                    "time": 65,
                    "velocity": 0.8818897637795275,
                    "duration": 0.6184895833333286
                },
                {
                    "name": "G3",
                    "midi": 55,
                    "time": 65.625,
                    "velocity": 0.8818897637795275,
                    "duration": 0.3059895833333286
                },
                {
                    "name": "C3",
                    "midi": 48,
                    "time": 65.625,
                    "velocity": 0.8818897637795275,
                    "duration": 0.3059895833333286
                },
                {
                    "name": "G2",
                    "midi": 43,
                    "time": 102.1875,
                    "velocity": 0.8818897637795275,
                    "duration": 0.1497395833333286
                },
                {
                    "name": "A2",
                    "midi": 45,
                    "time": 102.34375,
                    "velocity": 0.8818897637795275,
                    "duration": 0.1497395833333286
                },
                {
                    "name": "A#2",
                    "midi": 46,
                    "time": 102.5,
                    "velocity": 0.8818897637795275,
                    "duration": 0.3059895833333286
                },
                {
                    "name": "D3",
                    "midi": 50,
                    "time": 102.8125,
                    "velocity": 0.8818897637795275,
                    "duration": 0.3059895833333286
                },
                {
                    "name": "G3",
                    "midi": 55,
                    "time": 103.125,
                    "velocity": 0.8818897637795275,
                    "duration": 0.6184895833333286
                },
                {
                    "name": "G2",
                    "midi": 43,
                    "time": 103.75,
                    "velocity": 0.8818897637795275,
                    "duration": 0.6184895833333286
                },
                {
                    "name": "A2",
                    "midi": 45,
                    "time": 105.9375,
                    "velocity": 0.8818897637795275,
                    "duration": 0.1497395833333286
                },
                {
                    "name": "A#2",
                    "midi": 46,
                    "time": 106.09375,
                    "velocity": 0.8818897637795275,
                    "duration": 0.1497395833333286
                },
                {
                    "name": "C3",
                    "midi": 48,
                    "time": 106.25,
                    "velocity": 0.8818897637795275,
                    "duration": 0.3059895833333286
                },
                {
                    "name": "F3",
                    "midi": 53,
                    "time": 106.5625,
                    "velocity": 0.8818897637795275,
                    "duration": 0.3059895833333286
                },
                {
                    "name": "A3",
                    "midi": 57,
                    "time": 106.875,
                    "velocity": 0.8818897637795275,
                    "duration": 0.6184895833333286
                },
                {
                    "name": "A2",
                    "midi": 45,
                    "time": 107.5,
                    "velocity": 0.8818897637795275,
                    "duration": 0.6184895833333286
                },
                {
                    "name": "A#2",
                    "midi": 46,
                    "time": 109.6875,
                    "velocity": 0.8818897637795275,
                    "duration": 0.1497395833333286
                },
                {
                    "name": "C3",
                    "midi": 48,
                    "time": 109.84375,
                    "velocity": 0.8818897637795275,
                    "duration": 0.1497395833333286
                },
                {
                    "name": "D3",
                    "midi": 50,
                    "time": 110,
                    "velocity": 0.8818897637795275,
                    "duration": 0.3059895833333286
                },
                {
                    "name": "F3",
                    "midi": 53,
                    "time": 110.3125,
                    "velocity": 0.8818897637795275,
                    "duration": 0.3059895833333286
                },
                {
                    "name": "A#3",
                    "midi": 58,
                    "time": 110.625,
                    "velocity": 0.8818897637795275,
                    "duration": 0.6184895833333286
                },
                {
                    "name": "A#2",
                    "midi": 46,
                    "time": 111.25,
                    "velocity": 0.8818897637795275,
                    "duration": 0.6184895833333286
                },
                {
                    "name": "D3",
                    "midi": 50,
                    "time": 112.03125,
                    "velocity": 0.8818897637795275,
                    "duration": 0.1497395833333286
                },
                {
                    "name": "D#3",
                    "midi": 51,
                    "time": 112.1875,
                    "velocity": 0.8818897637795275,
                    "duration": 0.1497395833333286
                },
                {
                    "name": "F3",
                    "midi": 53,
                    "time": 112.34375,
                    "velocity": 0.8818897637795275,
                    "duration": 0.1497395833333286
                },
                {
                    "name": "G3",
                    "midi": 55,
                    "time": 112.5,
                    "velocity": 0.8818897637795275,
                    "duration": 0.3059895833333286
                },
                {
                    "name": "A#2",
                    "midi": 46,
                    "time": 128.4375,
                    "velocity": 0.8818897637795275,
                    "duration": 0.1497395833333428
                },
                {
                    "name": "C3",
                    "midi": 48,
                    "time": 128.59375,
                    "velocity": 0.8818897637795275,
                    "duration": 0.1497395833333428
                },
                {
                    "name": "D3",
                    "midi": 50,
                    "time": 128.75,
                    "velocity": 0.8818897637795275,
                    "duration": 0.3059895833333428
                },
                {
                    "name": "F3",
                    "midi": 53,
                    "time": 129.0625,
                    "velocity": 0.8818897637795275,
                    "duration": 0.3059895833333428
                },
                {
                    "name": "A#3",
                    "midi": 58,
                    "time": 129.375,
                    "velocity": 0.8818897637795275,
                    "duration": 0.6184895833333428
                },
                {
                    "name": "A#2",
                    "midi": 46,
                    "time": 130,
                    "velocity": 0.8818897637795275,
                    "duration": 0.6184895833333428
                },
                {
                    "name": "C3",
                    "midi": 48,
                    "time": 132.1875,
                    "velocity": 0.8818897637795275,
                    "duration": 0.1497395833333428
                },
                {
                    "name": "D3",
                    "midi": 50,
                    "time": 132.34375,
                    "velocity": 0.8818897637795275,
                    "duration": 0.1497395833333428
                },
                {
                    "name": "D#3",
                    "midi": 51,
                    "time": 132.5,
                    "velocity": 0.8818897637795275,
                    "duration": 0.3059895833333428
                },
                {
                    "name": "G3",
                    "midi": 55,
                    "time": 132.8125,
                    "velocity": 0.8818897637795275,
                    "duration": 0.3059895833333428
                },
                {
                    "name": "C4",
                    "midi": 60,
                    "time": 133.125,
                    "velocity": 0.8818897637795275,
                    "duration": 0.6184895833333428
                },
                {
                    "name": "C3",
                    "midi": 48,
                    "time": 133.75,
                    "velocity": 0.8818897637795275,
                    "duration": 0.6184895833333428
                },
                {
                    "name": "D3",
                    "midi": 50,
                    "time": 135.9375,
                    "velocity": 0.8818897637795275,
                    "duration": 0.1497395833333428
                },
                {
                    "name": "D#3",
                    "midi": 51,
                    "time": 136.09375,
                    "velocity": 0.8818897637795275,
                    "duration": 0.1497395833333428
                },
                {
                    "name": "F3",
                    "midi": 53,
                    "time": 136.25,
                    "velocity": 0.8818897637795275,
                    "duration": 0.3059895833333428
                },
                {
                    "name": "A#3",
                    "midi": 58,
                    "time": 136.5625,
                    "velocity": 0.8818897637795275,
                    "duration": 0.3059895833333428
                },
                {
                    "name": "D4",
                    "midi": 62,
                    "time": 136.875,
                    "velocity": 0.8818897637795275,
                    "duration": 0.6184895833333428
                },
                {
                    "name": "D3",
                    "midi": 50,
                    "time": 137.5,
                    "velocity": 0.8818897637795275,
                    "duration": 0.6184895833333428
                },
                {
                    "name": "A#3",
                    "midi": 58,
                    "time": 138.28125,
                    "velocity": 0.8818897637795275,
                    "duration": 0.1497395833333428
                },
                {
                    "name": "C4",
                    "midi": 60,
                    "time": 138.4375,
                    "velocity": 0.8818897637795275,
                    "duration": 0.1497395833333428
                },
                {
                    "name": "D4",
                    "midi": 62,
                    "time": 138.59375,
                    "velocity": 0.8818897637795275,
                    "duration": 0.1497395833333428
                },
                {
                    "name": "D#4",
                    "midi": 63,
                    "time": 138.75,
                    "velocity": 0.8818897637795275,
                    "duration": 0.3059895833333428
                },
                {
                    "name": "G4",
                    "midi": 67,
                    "time": 139.0625,
                    "velocity": 0.8818897637795275,
                    "duration": 0.3059895833333428
                },
                {
                    "name": "C4",
                    "midi": 60,
                    "time": 139.375,
                    "velocity": 0.8818897637795275,
                    "duration": 0.3059895833333428
                },
                {
                    "name": "D#4",
                    "midi": 63,
                    "time": 139.6875,
                    "velocity": 0.8818897637795275,
                    "duration": 0.3059895833333428
                },
                {
                    "name": "A3",
                    "midi": 57,
                    "time": 140,
                    "velocity": 0.8818897637795275,
                    "duration": 0.3059895833333428
                },
                {
                    "name": "C4",
                    "midi": 60,
                    "time": 140.3125,
                    "velocity": 0.8818897637795275,
                    "duration": 0.3059895833333428
                },
                {
                    "name": "F3",
                    "midi": 53,
                    "time": 140.625,
                    "velocity": 0.8818897637795275,
                    "duration": 0.3059895833333428
                },
                {
                    "name": "D3",
                    "midi": 50,
                    "time": 140.9375,
                    "velocity": 0.8818897637795275,
                    "duration": 0.3059895833333428
                },
                {
                    "name": "D2",
                    "midi": 38,
                    "time": 140.9375,
                    "velocity": 0.8818897637795275,
                    "duration": 0.3059895833333428
                },
                {
                    "name": "D#3",
                    "midi": 51,
                    "time": 141.25,
                    "velocity": 0.8818897637795275,
                    "duration": 0.3059895833333428
                },
                {
                    "name": "D#2",
                    "midi": 39,
                    "time": 141.25,
                    "velocity": 0.8818897637795275,
                    "duration": 0.3059895833333428
                },
                {
                    "name": "F3",
                    "midi": 53,
                    "time": 141.5625,
                    "velocity": 0.8818897637795275,
                    "duration": 0.3059895833333428
                },
                {
                    "name": "F2",
                    "midi": 41,
                    "time": 141.5625,
                    "velocity": 0.8818897637795275,
                    "duration": 0.3059895833333428
                },
                {
                    "name": "G3",
                    "midi": 55,
                    "time": 141.875,
                    "velocity": 0.8818897637795275,
                    "duration": 0.3059895833333428
                },
                {
                    "name": "G2",
                    "midi": 43,
                    "time": 141.875,
                    "velocity": 0.8818897637795275,
                    "duration": 0.3059895833333428
                },
                {
                    "name": "A3",
                    "midi": 57,
                    "time": 142.1875,
                    "velocity": 0.8818897637795275,
                    "duration": 0.3059895833333428
                },
                {
                    "name": "A2",
                    "midi": 45,
                    "time": 142.1875,
                    "velocity": 0.8818897637795275,
                    "duration": 0.3059895833333428
                },
                {
                    "name": "A#2",
                    "midi": 46,
                    "time": 142.5,
                    "velocity": 0.8818897637795275,
                    "duration": 0.3059895833333428
                },
                {
                    "name": "A#3",
                    "midi": 58,
                    "time": 142.5,
                    "velocity": 0.8818897637795275,
                    "duration": 0.3059895833333428
                },
                {
                    "name": "D3",
                    "midi": 50,
                    "time": 142.8125,
                    "velocity": 0.8818897637795275,
                    "duration": 0.3059895833333428
                },
                {
                    "name": "D4",
                    "midi": 62,
                    "time": 142.8125,
                    "velocity": 0.8818897637795275,
                    "duration": 0.3059895833333428
                },
                {
                    "name": "D#3",
                    "midi": 51,
                    "time": 143.125,
                    "velocity": 0.8818897637795275,
                    "duration": 0.3059895833333428
                },
                {
                    "name": "D#4",
                    "midi": 63,
                    "time": 143.125,
                    "velocity": 0.8818897637795275,
                    "duration": 0.3059895833333428
                },
                {
                    "name": "F3",
                    "midi": 53,
                    "time": 143.4375,
                    "velocity": 0.8818897637795275,
                    "duration": 0.3059895833333428
                },
                {
                    "name": "F4",
                    "midi": 65,
                    "time": 143.4375,
                    "velocity": 0.8818897637795275,
                    "duration": 0.3059895833333428
                },
                {
                    "name": "G3",
                    "midi": 55,
                    "time": 143.75,
                    "velocity": 0.8818897637795275,
                    "duration": 0.3059895833333428
                },
                {
                    "name": "G4",
                    "midi": 67,
                    "time": 143.75,
                    "velocity": 0.8818897637795275,
                    "duration": 0.3059895833333428
                },
                {
                    "name": "A3",
                    "midi": 57,
                    "time": 144.0625,
                    "velocity": 0.8818897637795275,
                    "duration": 0.3059895833333428
                },
                {
                    "name": "A4",
                    "midi": 69,
                    "time": 144.0625,
                    "velocity": 0.8818897637795275,
                    "duration": 0.3059895833333428
                },
                {
                    "name": "A#3",
                    "midi": 58,
                    "time": 144.375,
                    "velocity": 0.8818897637795275,
                    "duration": 0.6184895833333428
                },
                {
                    "name": "D3",
                    "midi": 50,
                    "time": 145,
                    "velocity": 0.8818897637795275,
                    "duration": 0.6184895833333428
                },
                {
                    "name": "D2",
                    "midi": 38,
                    "time": 145,
                    "velocity": 0.8818897637795275,
                    "duration": 0.6184895833333428
                },
                {
                    "name": "F3",
                    "midi": 53,
                    "time": 145.625,
                    "velocity": 0.8818897637795275,
                    "duration": 0.6184895833333428
                },
                {
                    "name": "F2",
                    "midi": 41,
                    "time": 145.625,
                    "velocity": 0.8818897637795275,
                    "duration": 0.6184895833333428
                },
                {
                    "name": "A#2",
                    "midi": 46,
                    "time": 146.25,
                    "velocity": 0.8818897637795275,
                    "duration": 1.2434895833333428
                },
                {
                    "name": "A#1",
                    "midi": 34,
                    "time": 146.25,
                    "velocity": 0.8818897637795275,
                    "duration": 1.2434895833333428
                },
                {
                    "name": "G2",
                    "midi": 43,
                    "time": 150,
                    "velocity": 0.6299212598425197,
                    "duration": 0.3059895833333428
                },
                {
                    "name": "G3",
                    "midi": 55,
                    "time": 150.3125,
                    "velocity": 0.6299212598425197,
                    "duration": 0.3059895833333428
                },
                {
                    "name": "F3",
                    "midi": 53,
                    "time": 150.625,
                    "velocity": 0.6299212598425197,
                    "duration": 0.1497395833333428
                },
                {
                    "name": "C4",
                    "midi": 60,
                    "time": 150.78125,
                    "velocity": 0.6299212598425197,
                    "duration": 0.1497395833333428
                },
                {
                    "name": "F3",
                    "midi": 53,
                    "time": 150.9375,
                    "velocity": 0.6299212598425197,
                    "duration": 0.1497395833333428
                },
                {
                    "name": "F4",
                    "midi": 65,
                    "time": 150.9375,
                    "velocity": 0.6299212598425197,
                    "duration": 0.1497395833333428
                },
                {
                    "name": "D#4",
                    "midi": 63,
                    "time": 151.09375,
                    "velocity": 0.6299212598425197,
                    "duration": 0.1497395833333428
                },
                {
                    "name": "D4",
                    "midi": 62,
                    "time": 151.25,
                    "velocity": 0.6299212598425197,
                    "duration": 0.1497395833333428
                },
                {
                    "name": "F3",
                    "midi": 53,
                    "time": 151.25,
                    "velocity": 0.6299212598425197,
                    "duration": 0.1497395833333428
                },
                {
                    "name": "D4",
                    "midi": 62,
                    "time": 151.5625,
                    "velocity": 0.6299212598425197,
                    "duration": 0.1497395833333428
                },
                {
                    "name": "F3",
                    "midi": 53,
                    "time": 151.5625,
                    "velocity": 0.6299212598425197,
                    "duration": 0.1497395833333428
                },
                {
                    "name": "G3",
                    "midi": 55,
                    "time": 151.875,
                    "velocity": 0.6299212598425197,
                    "duration": 0.1497395833333428
                },
                {
                    "name": "F3",
                    "midi": 53,
                    "time": 151.875,
                    "velocity": 0.6299212598425197,
                    "duration": 0.1497395833333428
                },
                {
                    "name": "G3",
                    "midi": 55,
                    "time": 152.1875,
                    "velocity": 0.6299212598425197,
                    "duration": 0.1497395833333428
                },
                {
                    "name": "F3",
                    "midi": 53,
                    "time": 152.1875,
                    "velocity": 0.6299212598425197,
                    "duration": 0.1497395833333428
                },
                {
                    "name": "D#3",
                    "midi": 51,
                    "time": 152.5,
                    "velocity": 0.6299212598425197,
                    "duration": 0.3059895833333428
                },
                {
                    "name": "G3",
                    "midi": 55,
                    "time": 152.5,
                    "velocity": 0.6299212598425197,
                    "duration": 0.3059895833333428
                },
                {
                    "name": "F3",
                    "midi": 53,
                    "time": 152.8125,
                    "velocity": 0.6299212598425197,
                    "duration": 0.3059895833333428
                },
                {
                    "name": "G3",
                    "midi": 55,
                    "time": 153.125,
                    "velocity": 0.6299212598425197,
                    "duration": 0.9309895833333428
                },
                {
                    "name": "G2",
                    "midi": 43,
                    "time": 153.4375,
                    "velocity": 0.6299212598425197,
                    "duration": 0.3059895833333428
                },
                {
                    "name": "C3",
                    "midi": 48,
                    "time": 153.75,
                    "velocity": 0.6299212598425197,
                    "duration": 0.2278645833333428
                },
                {
                    "name": "C3",
                    "midi": 48,
                    "time": 154.0625,
                    "velocity": 0.6299212598425197,
                    "duration": 0.2278645833333428
                },
                {
                    "name": "A3",
                    "midi": 57,
                    "time": 154.0625,
                    "velocity": 0.6299212598425197,
                    "duration": 0.1497395833333428
                },
                {
                    "name": "A#3",
                    "midi": 58,
                    "time": 154.21875,
                    "velocity": 0.6299212598425197,
                    "duration": 0.1497395833333428
                },
                {
                    "name": "C3",
                    "midi": 48,
                    "time": 154.375,
                    "velocity": 0.6299212598425197,
                    "duration": 0.2278645833333428
                },
                {
                    "name": "A3",
                    "midi": 57,
                    "time": 154.375,
                    "velocity": 0.6299212598425197,
                    "duration": 0.3059895833333428
                },
                {
                    "name": "C3",
                    "midi": 48,
                    "time": 154.6875,
                    "velocity": 0.6299212598425197,
                    "duration": 0.2278645833333428
                },
                {
                    "name": "G3",
                    "midi": 55,
                    "time": 154.6875,
                    "velocity": 0.6299212598425197,
                    "duration": 0.1497395833333428
                },
                {
                    "name": "F#3",
                    "midi": 54,
                    "time": 154.84375,
                    "velocity": 0.6299212598425197,
                    "duration": 0.1497395833333428
                },
                {
                    "name": "A#2",
                    "midi": 46,
                    "time": 155,
                    "velocity": 0.6299212598425197,
                    "duration": 0.3059895833333428
                },
                {
                    "name": "G3",
                    "midi": 55,
                    "time": 155,
                    "velocity": 0.6299212598425197,
                    "duration": 0.6184895833333428
                },
                {
                    "name": "C3",
                    "midi": 48,
                    "time": 155.3125,
                    "velocity": 0.6299212598425197,
                    "duration": 0.3059895833333428
                },
                {
                    "name": "D3",
                    "midi": 50,
                    "time": 155.625,
                    "velocity": 0.6299212598425197,
                    "duration": 0.6184895833333428
                },
                {
                    "name": "D2",
                    "midi": 38,
                    "time": 155.9375,
                    "velocity": 0.6299212598425197,
                    "duration": 0.3059895833333428
                },
                {
                    "name": "G2",
                    "midi": 43,
                    "time": 156.25,
                    "velocity": 0.6299212598425197,
                    "duration": 1.2434895833333428
                },
                {
                    "name": "D3",
                    "midi": 50,
                    "time": 156.5625,
                    "velocity": 0.6299212598425197,
                    "duration": 0.3059895833333428
                },
                {
                    "name": "G3",
                    "midi": 55,
                    "time": 156.875,
                    "velocity": 0.6299212598425197,
                    "duration": 0.6184895833333428
                },
                {
                    "name": "A#3",
                    "midi": 58,
                    "time": 182.8125,
                    "velocity": 0.6299212598425197,
                    "duration": 0.2083333333333428
                },
                {
                    "name": "A#3",
                    "midi": 58,
                    "time": 183.125,
                    "velocity": 0.6299212598425197,
                    "duration": 0.2083333333333428
                },
                {
                    "name": "A#3",
                    "midi": 58,
                    "time": 183.4375,
                    "velocity": 0.6299212598425197,
                    "duration": 0.2083333333333428
                },
                {
                    "name": "G3",
                    "midi": 55,
                    "time": 183.75,
                    "velocity": 0.6299212598425197,
                    "duration": 0.2083333333333428
                },
                {
                    "name": "A#3",
                    "midi": 58,
                    "time": 183.75,
                    "velocity": 0.6299212598425197,
                    "duration": 0.2083333333333428
                },
                {
                    "name": "G3",
                    "midi": 55,
                    "time": 184.0625,
                    "velocity": 0.6299212598425197,
                    "duration": 0.2083333333333428
                },
                {
                    "name": "A#3",
                    "midi": 58,
                    "time": 184.0625,
                    "velocity": 0.6299212598425197,
                    "duration": 0.2083333333333428
                },
                {
                    "name": "A3",
                    "midi": 57,
                    "time": 184.375,
                    "velocity": 0.6299212598425197,
                    "duration": 0.2083333333333428
                },
                {
                    "name": "G3",
                    "midi": 55,
                    "time": 184.375,
                    "velocity": 0.6299212598425197,
                    "duration": 0.2083333333333428
                },
                {
                    "name": "A3",
                    "midi": 57,
                    "time": 184.6875,
                    "velocity": 0.6299212598425197,
                    "duration": 0.2083333333333428
                },
                {
                    "name": "G3",
                    "midi": 55,
                    "time": 184.6875,
                    "velocity": 0.6299212598425197,
                    "duration": 0.2083333333333428
                },
                {
                    "name": "A3",
                    "midi": 57,
                    "time": 185,
                    "velocity": 0.6299212598425197,
                    "duration": 0.3059895833333428
                },
                {
                    "name": "F3",
                    "midi": 53,
                    "time": 185,
                    "velocity": 0.6299212598425197,
                    "duration": 0.3059895833333428
                },
                {
                    "name": "G3",
                    "midi": 55,
                    "time": 185.3125,
                    "velocity": 0.6299212598425197,
                    "duration": 0.3059895833333428
                },
                {
                    "name": "A#3",
                    "midi": 58,
                    "time": 185.3125,
                    "velocity": 0.6299212598425197,
                    "duration": 0.3059895833333428
                },
                {
                    "name": "A3",
                    "midi": 57,
                    "time": 185.625,
                    "velocity": 0.6299212598425197,
                    "duration": 0.3059895833333428
                },
                {
                    "name": "A2",
                    "midi": 45,
                    "time": 185.9375,
                    "velocity": 0.6299212598425197,
                    "duration": 0.3059895833333428
                },
                {
                    "name": "G3",
                    "midi": 55,
                    "time": 185.9375,
                    "velocity": 0.6299212598425197,
                    "duration": 0.3059895833333428
                },
                {
                    "name": "D3",
                    "midi": 50,
                    "time": 186.25,
                    "velocity": 0.6299212598425197,
                    "duration": 0.3059895833333428
                },
                {
                    "name": "F3",
                    "midi": 53,
                    "time": 186.25,
                    "velocity": 0.6299212598425197,
                    "duration": 0.3059895833333428
                },
                {
                    "name": "D3",
                    "midi": 50,
                    "time": 186.5625,
                    "velocity": 0.6299212598425197,
                    "duration": 0.3059895833333428
                },
                {
                    "name": "G3",
                    "midi": 55,
                    "time": 186.5625,
                    "velocity": 0.6299212598425197,
                    "duration": 0.3059895833333428
                },
                {
                    "name": "A3",
                    "midi": 57,
                    "time": 186.875,
                    "velocity": 0.6299212598425197,
                    "duration": 0.3059895833333428
                },
                {
                    "name": "C3",
                    "midi": 48,
                    "time": 186.875,
                    "velocity": 0.6299212598425197,
                    "duration": 0.3059895833333428
                },
                {
                    "name": "A3",
                    "midi": 57,
                    "time": 187.1875,
                    "velocity": 0.6299212598425197,
                    "duration": 0.3059895833333428
                },
                {
                    "name": "C3",
                    "midi": 48,
                    "time": 187.1875,
                    "velocity": 0.6299212598425197,
                    "duration": 0.3059895833333428
                },
                {
                    "name": "A#2",
                    "midi": 46,
                    "time": 187.5,
                    "velocity": 0.6299212598425197,
                    "duration": 0.3059895833333428
                },
                {
                    "name": "G3",
                    "midi": 55,
                    "time": 187.5,
                    "velocity": 0.6299212598425197,
                    "duration": 0.6184895833333428
                },
                {
                    "name": "C3",
                    "midi": 48,
                    "time": 187.8125,
                    "velocity": 0.6299212598425197,
                    "duration": 0.3059895833333428
                },
                {
                    "name": "D3",
                    "midi": 50,
                    "time": 188.125,
                    "velocity": 0.6299212598425197,
                    "duration": 0.6184895833333428
                },
                {
                    "name": "D2",
                    "midi": 38,
                    "time": 188.4375,
                    "velocity": 0.6299212598425197,
                    "duration": 0.3059895833333428
                },
                {
                    "name": "G2",
                    "midi": 43,
                    "time": 188.75,
                    "velocity": 0.6299212598425197,
                    "duration": 0.4166666666666572
                },
                {
                    "name": "G3",
                    "midi": 55,
                    "time": 194.0625,
                    "velocity": 0.7874015748031497,
                    "duration": 0.1497395833333428
                },
                {
                    "name": "F3",
                    "midi": 53,
                    "time": 194.21875,
                    "velocity": 0.7874015748031497,
                    "duration": 0.1497395833333428
                },
                {
                    "name": "D#3",
                    "midi": 51,
                    "time": 194.375,
                    "velocity": 0.7874015748031497,
                    "duration": 0.1497395833333428
                },
                {
                    "name": "D3",
                    "midi": 50,
                    "time": 194.53125,
                    "velocity": 0.7874015748031497,
                    "duration": 0.1497395833333428
                },
                {
                    "name": "C3",
                    "midi": 48,
                    "time": 194.6875,
                    "velocity": 0.7874015748031497,
                    "duration": 0.1497395833333428
                },
                {
                    "name": "A#2",
                    "midi": 46,
                    "time": 194.84375,
                    "velocity": 0.7874015748031497,
                    "duration": 0.1497395833333428
                },
                {
                    "name": "C3",
                    "midi": 48,
                    "time": 195,
                    "velocity": 0.7874015748031497,
                    "duration": 0.3059895833333428
                },
                {
                    "name": "A2",
                    "midi": 45,
                    "time": 195.3125,
                    "velocity": 0.7874015748031497,
                    "duration": 0.3059895833333428
                },
                {
                    "name": "D3",
                    "midi": 50,
                    "time": 195.625,
                    "velocity": 0.7874015748031497,
                    "duration": 0.3059895833333428
                },
                {
                    "name": "D2",
                    "midi": 38,
                    "time": 195.9375,
                    "velocity": 0.7874015748031497,
                    "duration": 0.3059895833333428
                },
                {
                    "name": "G2",
                    "midi": 43,
                    "time": 196.25,
                    "velocity": 0.7874015748031497,
                    "duration": 0.3059895833333428
                },
                {
                    "name": "A#2",
                    "midi": 46,
                    "time": 207.8125,
                    "velocity": 0.7874015748031497,
                    "duration": 0.2083333333333428
                },
                {
                    "name": "A#2",
                    "midi": 46,
                    "time": 208.125,
                    "velocity": 0.7874015748031497,
                    "duration": 0.2083333333333428
                },
                {
                    "name": "C3",
                    "midi": 48,
                    "time": 208.4375,
                    "velocity": 0.7874015748031497,
                    "duration": 0.2083333333333428
                },
                {
                    "name": "D3",
                    "midi": 50,
                    "time": 208.75,
                    "velocity": 0.7874015748031497,
                    "duration": 0.3059895833333428
                },
                {
                    "name": "A#2",
                    "midi": 46,
                    "time": 209.0625,
                    "velocity": 0.7874015748031497,
                    "duration": 0.3059895833333428
                },
                {
                    "name": "D3",
                    "midi": 50,
                    "time": 209.375,
                    "velocity": 0.7874015748031497,
                    "duration": 0.3059895833333428
                },
                {
                    "name": "D#3",
                    "midi": 51,
                    "time": 209.6875,
                    "velocity": 0.7874015748031497,
                    "duration": 0.3059895833333428
                },
                {
                    "name": "F3",
                    "midi": 53,
                    "time": 210,
                    "velocity": 0.7874015748031497,
                    "duration": 0.6184895833333428
                },
                {
                    "name": "F#3",
                    "midi": 54,
                    "time": 210.78125,
                    "velocity": 0.7874015748031497,
                    "duration": 0.1497395833333428
                },
                {
                    "name": "E3",
                    "midi": 52,
                    "time": 210.9375,
                    "velocity": 0.7874015748031497,
                    "duration": 0.1497395833333428
                },
                {
                    "name": "D3",
                    "midi": 50,
                    "time": 211.09375,
                    "velocity": 0.7874015748031497,
                    "duration": 0.1497395833333428
                },
                {
                    "name": "G3",
                    "midi": 55,
                    "time": 211.25,
                    "velocity": 0.7874015748031497,
                    "duration": 0.4166666666666572
                },
                {
                    "name": "A#2",
                    "midi": 46,
                    "time": 212.03125,
                    "velocity": 0.7874015748031497,
                    "duration": 0.1497395833333428
                },
                {
                    "name": "A2",
                    "midi": 45,
                    "time": 212.1875,
                    "velocity": 0.7874015748031497,
                    "duration": 0.1497395833333428
                },
                {
                    "name": "G2",
                    "midi": 43,
                    "time": 212.34375,
                    "velocity": 0.7874015748031497,
                    "duration": 0.1497395833333428
                },
                {
                    "name": "D3",
                    "midi": 50,
                    "time": 212.5,
                    "velocity": 0.7874015748031497,
                    "duration": 0.4166666666666572
                },
                {
                    "name": "D#3",
                    "midi": 51,
                    "time": 213.28125,
                    "velocity": 0.7874015748031497,
                    "duration": 0.1497395833333428
                },
                {
                    "name": "D3",
                    "midi": 50,
                    "time": 213.4375,
                    "velocity": 0.7874015748031497,
                    "duration": 0.1497395833333428
                },
                {
                    "name": "C3",
                    "midi": 48,
                    "time": 213.59375,
                    "velocity": 0.7874015748031497,
                    "duration": 0.1497395833333428
                },
                {
                    "name": "A#2",
                    "midi": 46,
                    "time": 213.75,
                    "velocity": 0.7874015748031497,
                    "duration": 0.1497395833333428
                },
                {
                    "name": "A2",
                    "midi": 45,
                    "time": 213.90625,
                    "velocity": 0.7874015748031497,
                    "duration": 0.1497395833333428
                },
                {
                    "name": "A#2",
                    "midi": 46,
                    "time": 214.0625,
                    "velocity": 0.7874015748031497,
                    "duration": 0.1497395833333428
                },
                {
                    "name": "C3",
                    "midi": 48,
                    "time": 214.21875,
                    "velocity": 0.7874015748031497,
                    "duration": 0.1497395833333428
                },
                {
                    "name": "D3",
                    "midi": 50,
                    "time": 214.375,
                    "velocity": 0.7874015748031497,
                    "duration": 0.1497395833333428
                },
                {
                    "name": "C3",
                    "midi": 48,
                    "time": 214.53125,
                    "velocity": 0.7874015748031497,
                    "duration": 0.1497395833333428
                },
                {
                    "name": "D3",
                    "midi": 50,
                    "time": 214.6875,
                    "velocity": 0.7874015748031497,
                    "duration": 0.1497395833333428
                },
                {
                    "name": "A#2",
                    "midi": 46,
                    "time": 214.84375,
                    "velocity": 0.7874015748031497,
                    "duration": 0.1497395833333428
                },
                {
                    "name": "C3",
                    "midi": 48,
                    "time": 215,
                    "velocity": 0.7874015748031497,
                    "duration": 0.1497395833333428
                },
                {
                    "name": "A#2",
                    "midi": 46,
                    "time": 215.15625,
                    "velocity": 0.7874015748031497,
                    "duration": 0.1497395833333428
                },
                {
                    "name": "A2",
                    "midi": 45,
                    "time": 215.3125,
                    "velocity": 0.7874015748031497,
                    "duration": 0.1497395833333428
                },
                {
                    "name": "A#2",
                    "midi": 46,
                    "time": 215.46875,
                    "velocity": 0.7874015748031497,
                    "duration": 0.1497395833333428
                },
                {
                    "name": "C3",
                    "midi": 48,
                    "time": 215.625,
                    "velocity": 0.7874015748031497,
                    "duration": 0.1497395833333428
                },
                {
                    "name": "A#2",
                    "midi": 46,
                    "time": 215.78125,
                    "velocity": 0.7874015748031497,
                    "duration": 0.1497395833333428
                },
                {
                    "name": "C3",
                    "midi": 48,
                    "time": 215.9375,
                    "velocity": 0.7874015748031497,
                    "duration": 0.1497395833333428
                },
                {
                    "name": "C2",
                    "midi": 36,
                    "time": 216.09375,
                    "velocity": 0.7874015748031497,
                    "duration": 0.1497395833333428
                },
                {
                    "name": "F2",
                    "midi": 41,
                    "time": 216.25,
                    "velocity": 0.7874015748031497,
                    "duration": 0.3059895833333428
                },
                {
                    "name": "F3",
                    "midi": 53,
                    "time": 229.0625,
                    "velocity": 0.7874015748031497,
                    "duration": 0.2083333333333428
                },
                {
                    "name": "F3",
                    "midi": 53,
                    "time": 229.375,
                    "velocity": 0.7874015748031497,
                    "duration": 0.2083333333333428
                },
                {
                    "name": "G3",
                    "midi": 55,
                    "time": 229.6875,
                    "velocity": 0.7874015748031497,
                    "duration": 0.2083333333333428
                },
                {
                    "name": "A3",
                    "midi": 57,
                    "time": 230,
                    "velocity": 0.7874015748031497,
                    "duration": 0.3059895833333428
                },
                {
                    "name": "F3",
                    "midi": 53,
                    "time": 230.3125,
                    "velocity": 0.7874015748031497,
                    "duration": 0.3059895833333428
                },
                {
                    "name": "G3",
                    "midi": 55,
                    "time": 230.625,
                    "velocity": 0.7874015748031497,
                    "duration": 0.3059895833333428
                },
                {
                    "name": "A3",
                    "midi": 57,
                    "time": 230.9375,
                    "velocity": 0.7874015748031497,
                    "duration": 0.3059895833333428
                },
                {
                    "name": "A#3",
                    "midi": 58,
                    "time": 231.25,
                    "velocity": 0.7874015748031497,
                    "duration": 0.6184895833333428
                },
                {
                    "name": "D3",
                    "midi": 50,
                    "time": 232.03125,
                    "velocity": 0.7874015748031497,
                    "duration": 0.1497395833333428
                },
                {
                    "name": "C3",
                    "midi": 48,
                    "time": 232.1875,
                    "velocity": 0.7874015748031497,
                    "duration": 0.1497395833333428
                },
                {
                    "name": "A#2",
                    "midi": 46,
                    "time": 232.34375,
                    "velocity": 0.7874015748031497,
                    "duration": 0.1497395833333428
                },
                {
                    "name": "F3",
                    "midi": 53,
                    "time": 232.5,
                    "velocity": 0.7874015748031497,
                    "duration": 0.6184895833333428
                },
                {
                    "name": "D3",
                    "midi": 50,
                    "time": 233.28125,
                    "velocity": 0.7874015748031497,
                    "duration": 0.1497395833333428
                },
                {
                    "name": "E3",
                    "midi": 52,
                    "time": 233.4375,
                    "velocity": 0.7874015748031497,
                    "duration": 0.1497395833333428
                },
                {
                    "name": "F3",
                    "midi": 53,
                    "time": 233.59375,
                    "velocity": 0.7874015748031497,
                    "duration": 0.1497395833333428
                },
                {
                    "name": "G3",
                    "midi": 55,
                    "time": 233.75,
                    "velocity": 0.7874015748031497,
                    "duration": 0.6184895833333428
                },
                {
                    "name": "E3",
                    "midi": 52,
                    "time": 234.53125,
                    "velocity": 0.7874015748031497,
                    "duration": 0.1497395833333428
                },
                {
                    "name": "D3",
                    "midi": 50,
                    "time": 234.6875,
                    "velocity": 0.7874015748031497,
                    "duration": 0.1497395833333428
                },
                {
                    "name": "C3",
                    "midi": 48,
                    "time": 234.84375,
                    "velocity": 0.7874015748031497,
                    "duration": 0.1497395833333428
                },
                {
                    "name": "F3",
                    "midi": 53,
                    "time": 235,
                    "velocity": 0.7874015748031497,
                    "duration": 0.6184895833333428
                },
                {
                    "name": "A2",
                    "midi": 45,
                    "time": 235.78125,
                    "velocity": 0.7874015748031497,
                    "duration": 0.1497395833333428
                },
                {
                    "name": "G2",
                    "midi": 43,
                    "time": 235.9375,
                    "velocity": 0.7874015748031497,
                    "duration": 0.1497395833333428
                },
                {
                    "name": "F2",
                    "midi": 41,
                    "time": 236.09375,
                    "velocity": 0.7874015748031497,
                    "duration": 0.1497395833333428
                },
                {
                    "name": "A#2",
                    "midi": 46,
                    "time": 236.25,
                    "velocity": 0.7874015748031497,
                    "duration": 0.1497395833333428
                },
                {
                    "name": "G2",
                    "midi": 43,
                    "time": 236.40625,
                    "velocity": 0.7874015748031497,
                    "duration": 0.1497395833333428
                },
                {
                    "name": "A2",
                    "midi": 45,
                    "time": 236.5625,
                    "velocity": 0.7874015748031497,
                    "duration": 0.1497395833333428
                },
                {
                    "name": "A#2",
                    "midi": 46,
                    "time": 236.71875,
                    "velocity": 0.7874015748031497,
                    "duration": 0.1497395833333428
                },
                {
                    "name": "C3",
                    "midi": 48,
                    "time": 236.875,
                    "velocity": 0.7874015748031497,
                    "duration": 0.1497395833333428
                },
                {
                    "name": "A#2",
                    "midi": 46,
                    "time": 237.03125,
                    "velocity": 0.7874015748031497,
                    "duration": 0.1497395833333428
                },
                {
                    "name": "C3",
                    "midi": 48,
                    "time": 237.1875,
                    "velocity": 0.7874015748031497,
                    "duration": 0.1497395833333428
                },
                {
                    "name": "C2",
                    "midi": 36,
                    "time": 237.34375,
                    "velocity": 0.7874015748031497,
                    "duration": 0.1497395833333428
                },
                {
                    "name": "F2",
                    "midi": 41,
                    "time": 237.5,
                    "velocity": 0.7874015748031497,
                    "duration": 0.6184895833333428
                },
                {
                    "name": "A2",
                    "midi": 45,
                    "time": 256.5625,
                    "velocity": 0.7874015748031497,
                    "duration": 0.20833333333331439
                },
                {
                    "name": "A2",
                    "midi": 45,
                    "time": 256.875,
                    "velocity": 0.7874015748031497,
                    "duration": 0.3059895833333144
                },
                {
                    "name": "B2",
                    "midi": 47,
                    "time": 257.1875,
                    "velocity": 0.7874015748031497,
                    "duration": 0.3059895833333144
                },
                {
                    "name": "C3",
                    "midi": 48,
                    "time": 257.5,
                    "velocity": 0.7874015748031497,
                    "duration": 0.3059895833333144
                },
                {
                    "name": "A2",
                    "midi": 45,
                    "time": 257.8125,
                    "velocity": 0.7874015748031497,
                    "duration": 0.3059895833333144
                },
                {
                    "name": "C3",
                    "midi": 48,
                    "time": 258.125,
                    "velocity": 0.7874015748031497,
                    "duration": 0.3059895833333144
                },
                {
                    "name": "D3",
                    "midi": 50,
                    "time": 258.4375,
                    "velocity": 0.7874015748031497,
                    "duration": 0.3059895833333144
                },
                {
                    "name": "E3",
                    "midi": 52,
                    "time": 258.75,
                    "velocity": 0.7874015748031497,
                    "duration": 0.3059895833333144
                },
                {
                    "name": "G3",
                    "midi": 55,
                    "time": 259.0625,
                    "velocity": 0.7874015748031497,
                    "duration": 0.14973958333331439
                },
                {
                    "name": "F3",
                    "midi": 53,
                    "time": 259.21875,
                    "velocity": 0.7874015748031497,
                    "duration": 0.14973958333331439
                },
                {
                    "name": "E3",
                    "midi": 52,
                    "time": 259.375,
                    "velocity": 0.7874015748031497,
                    "duration": 0.14973958333331439
                },
                {
                    "name": "D3",
                    "midi": 50,
                    "time": 259.53125,
                    "velocity": 0.7874015748031497,
                    "duration": 0.14973958333331439
                },
                {
                    "name": "C3",
                    "midi": 48,
                    "time": 259.6875,
                    "velocity": 0.7874015748031497,
                    "duration": 0.14973958333331439
                },
                {
                    "name": "B2",
                    "midi": 47,
                    "time": 259.84375,
                    "velocity": 0.7874015748031497,
                    "duration": 0.14973958333331439
                },
                {
                    "name": "A2",
                    "midi": 45,
                    "time": 260,
                    "velocity": 0.7874015748031497,
                    "duration": 0.3059895833333144
                },
                {
                    "name": "G3",
                    "midi": 55,
                    "time": 276.5625,
                    "velocity": 0.7874015748031497,
                    "duration": 0.10416666666668561
                },
                {
                    "name": "F3",
                    "midi": 53,
                    "time": 276.71875,
                    "velocity": 0.7874015748031497,
                    "duration": 0.10416666666668561
                },
                {
                    "name": "D#3",
                    "midi": 51,
                    "time": 276.875,
                    "velocity": 0.7874015748031497,
                    "duration": 0.10416666666668561
                },
                {
                    "name": "D3",
                    "midi": 50,
                    "time": 277.03125,
                    "velocity": 0.7874015748031497,
                    "duration": 0.10416666666668561
                },
                {
                    "name": "C3",
                    "midi": 48,
                    "time": 277.1875,
                    "velocity": 0.7874015748031497,
                    "duration": 0.10416666666668561
                },
                {
                    "name": "A#2",
                    "midi": 46,
                    "time": 277.34375,
                    "velocity": 0.7874015748031497,
                    "duration": 0.10416666666668561
                },
                {
                    "name": "C3",
                    "midi": 48,
                    "time": 277.5,
                    "velocity": 0.7874015748031497,
                    "duration": 0.3059895833333144
                },
                {
                    "name": "A2",
                    "midi": 45,
                    "time": 277.8125,
                    "velocity": 0.7874015748031497,
                    "duration": 0.3059895833333144
                },
                {
                    "name": "D3",
                    "midi": 50,
                    "time": 278.125,
                    "velocity": 0.7874015748031497,
                    "duration": 0.3059895833333144
                },
                {
                    "name": "D2",
                    "midi": 38,
                    "time": 278.4375,
                    "velocity": 0.7874015748031497,
                    "duration": 0.3059895833333144
                },
                {
                    "name": "G2",
                    "midi": 43,
                    "time": 278.75,
                    "velocity": 0.7874015748031497,
                    "duration": 0.20833333333331439
                },
                {
                    "name": "A#3",
                    "midi": 58,
                    "time": 289.0625,
                    "velocity": 0.7874015748031497,
                    "duration": 0.20833333333331439
                },
                {
                    "name": "D3",
                    "midi": 50,
                    "time": 289.375,
                    "velocity": 0.7874015748031497,
                    "duration": 0.3059895833333144
                },
                {
                    "name": "F3",
                    "midi": 53,
                    "time": 289.6875,
                    "velocity": 0.7874015748031497,
                    "duration": 0.3059895833333144
                },
                {
                    "name": "A#3",
                    "midi": 58,
                    "time": 290,
                    "velocity": 0.7874015748031497,
                    "duration": 0.3059895833333144
                },
                {
                    "name": "C3",
                    "midi": 48,
                    "time": 290.3125,
                    "velocity": 0.7874015748031497,
                    "duration": 0.3059895833333144
                },
                {
                    "name": "D#3",
                    "midi": 51,
                    "time": 290.625,
                    "velocity": 0.7874015748031497,
                    "duration": 0.3059895833333144
                },
                {
                    "name": "A3",
                    "midi": 57,
                    "time": 290.9375,
                    "velocity": 0.7874015748031497,
                    "duration": 0.3059895833333144
                },
                {
                    "name": "A#2",
                    "midi": 46,
                    "time": 291.25,
                    "velocity": 0.7874015748031497,
                    "duration": 0.3059895833333144
                },
                {
                    "name": "A#3",
                    "midi": 58,
                    "time": 291.5625,
                    "velocity": 0.7874015748031497,
                    "duration": 0.3059895833333144
                },
                {
                    "name": "C3",
                    "midi": 48,
                    "time": 291.875,
                    "velocity": 0.7874015748031497,
                    "duration": 0.3059895833333144
                },
                {
                    "name": "D3",
                    "midi": 50,
                    "time": 292.1875,
                    "velocity": 0.7874015748031497,
                    "duration": 0.3059895833333144
                },
                {
                    "name": "F3",
                    "midi": 53,
                    "time": 292.5,
                    "velocity": 0.7874015748031497,
                    "duration": 0.3059895833333144
                },
                {
                    "name": "A2",
                    "midi": 45,
                    "time": 292.8125,
                    "velocity": 0.7874015748031497,
                    "duration": 0.3059895833333144
                },
                {
                    "name": "A#2",
                    "midi": 46,
                    "time": 293.125,
                    "velocity": 0.7874015748031497,
                    "duration": 0.6184895833333144
                },
                {
                    "name": "F3",
                    "midi": 53,
                    "time": 293.125,
                    "velocity": 0.7874015748031497,
                    "duration": 0.6184895833333144
                },
                {
                    "name": "A#3",
                    "midi": 58,
                    "time": 294.0625,
                    "velocity": 0.7874015748031497,
                    "duration": 0.6184895833333144
                },
                {
                    "name": "C3",
                    "midi": 48,
                    "time": 294.0625,
                    "velocity": 0.7874015748031497,
                    "duration": 0.6184895833333144
                },
                {
                    "name": "D3",
                    "midi": 50,
                    "time": 295,
                    "velocity": 0.7874015748031497,
                    "duration": 0.6184895833333144
                },
                {
                    "name": "A3",
                    "midi": 57,
                    "time": 295,
                    "velocity": 0.7874015748031497,
                    "duration": 0.6184895833333144
                },
                {
                    "name": "E3",
                    "midi": 52,
                    "time": 295.9375,
                    "velocity": 0.7874015748031497,
                    "duration": 0.6184895833333144
                },
                {
                    "name": "C4",
                    "midi": 60,
                    "time": 295.9375,
                    "velocity": 0.7874015748031497,
                    "duration": 0.6184895833333144
                },
                {
                    "name": "F3",
                    "midi": 53,
                    "time": 296.875,
                    "velocity": 0.7874015748031497,
                    "duration": 0.6184895833333144
                },
                {
                    "name": "G3",
                    "midi": 55,
                    "time": 297.1875,
                    "velocity": 0.7874015748031497,
                    "duration": 0.3059895833333144
                },
                {
                    "name": "A3",
                    "midi": 57,
                    "time": 297.5,
                    "velocity": 0.7874015748031497,
                    "duration": 0.3059895833333144
                },
                {
                    "name": "D3",
                    "midi": 50,
                    "time": 297.5,
                    "velocity": 0.7874015748031497,
                    "duration": 0.3059895833333144
                },
                {
                    "name": "G3",
                    "midi": 55,
                    "time": 297.8125,
                    "velocity": 0.7874015748031497,
                    "duration": 0.6184895833333144
                },
                {
                    "name": "A#2",
                    "midi": 46,
                    "time": 297.8125,
                    "velocity": 0.7874015748031497,
                    "duration": 0.6184895833333144
                },
                {
                    "name": "G3",
                    "midi": 55,
                    "time": 298.4375,
                    "velocity": 0.7874015748031497,
                    "duration": 0.3059895833333144
                },
                {
                    "name": "C3",
                    "midi": 48,
                    "time": 298.4375,
                    "velocity": 0.7874015748031497,
                    "duration": 0.3059895833333144
                },
                {
                    "name": "F3",
                    "midi": 53,
                    "time": 298.75,
                    "velocity": 0.7874015748031497,
                    "duration": 0.4166666666666856
                },
                {
                    "name": "A3",
                    "midi": 57,
                    "time": 298.75,
                    "velocity": 0.7874015748031497,
                    "duration": 0.4166666666666856
                },
                {
                    "name": "D3",
                    "midi": 50,
                    "time": 299.6875,
                    "velocity": 0.7874015748031497,
                    "duration": 0.4166666666666856
                },
                {
                    "name": "F3",
                    "midi": 53,
                    "time": 299.6875,
                    "velocity": 0.7874015748031497,
                    "duration": 0.4166666666666856
                },
                {
                    "name": "A#2",
                    "midi": 46,
                    "time": 300.625,
                    "velocity": 0.7874015748031497,
                    "duration": 0.4166666666666856
                },
                {
                    "name": "F3",
                    "midi": 53,
                    "time": 300.625,
                    "velocity": 0.7874015748031497,
                    "duration": 0.4166666666666856
                },
                {
                    "name": "C3",
                    "midi": 48,
                    "time": 301.5625,
                    "velocity": 0.7874015748031497,
                    "duration": 0.4166666666666856
                },
                {
                    "name": "E3",
                    "midi": 52,
                    "time": 301.5625,
                    "velocity": 0.7874015748031497,
                    "duration": 0.4166666666666856
                },
                {
                    "name": "F3",
                    "midi": 53,
                    "time": 302.5,
                    "velocity": 0.7874015748031497,
                    "duration": 0.3059895833333144
                },
                {
                    "name": "A3",
                    "midi": 57,
                    "time": 302.8125,
                    "velocity": 0.7874015748031497,
                    "duration": 0.3059895833333144
                },
                {
                    "name": "C4",
                    "midi": 60,
                    "time": 303.125,
                    "velocity": 0.7874015748031497,
                    "duration": 0.20833333333331439
                },
                {
                    "name": "E3",
                    "midi": 52,
                    "time": 303.4375,
                    "velocity": 0.7874015748031497,
                    "duration": 0.3059895833333144
                },
                {
                    "name": "G3",
                    "midi": 55,
                    "time": 303.75,
                    "velocity": 0.7874015748031497,
                    "duration": 0.3059895833333144
                },
                {
                    "name": "C4",
                    "midi": 60,
                    "time": 304.0625,
                    "velocity": 0.7874015748031497,
                    "duration": 0.20833333333331439
                },
                {
                    "name": "D3",
                    "midi": 50,
                    "time": 304.375,
                    "velocity": 0.7874015748031497,
                    "duration": 0.3059895833333144
                },
                {
                    "name": "F3",
                    "midi": 53,
                    "time": 304.6875,
                    "velocity": 0.7874015748031497,
                    "duration": 0.3059895833333144
                },
                {
                    "name": "B3",
                    "midi": 59,
                    "time": 305,
                    "velocity": 0.7874015748031497,
                    "duration": 0.20833333333331439
                },
                {
                    "name": "C3",
                    "midi": 48,
                    "time": 305.3125,
                    "velocity": 0.7874015748031497,
                    "duration": 0.3059895833333144
                },
                {
                    "name": "E3",
                    "midi": 52,
                    "time": 305.625,
                    "velocity": 0.7874015748031497,
                    "duration": 0.3059895833333144
                },
                {
                    "name": "A3",
                    "midi": 57,
                    "time": 305.9375,
                    "velocity": 0.7874015748031497,
                    "duration": 0.20833333333331439
                },
                {
                    "name": "A#2",
                    "midi": 46,
                    "time": 306.25,
                    "velocity": 0.7874015748031497,
                    "duration": 0.3059895833333144
                },
                {
                    "name": "D3",
                    "midi": 50,
                    "time": 306.5625,
                    "velocity": 0.7874015748031497,
                    "duration": 0.3059895833333144
                },
                {
                    "name": "G3",
                    "midi": 55,
                    "time": 306.875,
                    "velocity": 0.7874015748031497,
                    "duration": 0.20833333333331439
                },
                {
                    "name": "A2",
                    "midi": 45,
                    "time": 307.1875,
                    "velocity": 0.7874015748031497,
                    "duration": 0.3059895833333144
                },
                {
                    "name": "C3",
                    "midi": 48,
                    "time": 307.5,
                    "velocity": 0.7874015748031497,
                    "duration": 0.3059895833333144
                },
                {
                    "name": "F3",
                    "midi": 53,
                    "time": 307.8125,
                    "velocity": 0.7874015748031497,
                    "duration": 0.20833333333331439
                },
                {
                    "name": "G2",
                    "midi": 43,
                    "time": 308.125,
                    "velocity": 0.7874015748031497,
                    "duration": 0.3059895833333144
                },
                {
                    "name": "A#2",
                    "midi": 46,
                    "time": 308.4375,
                    "velocity": 0.7874015748031497,
                    "duration": 0.3059895833333144
                },
                {
                    "name": "D3",
                    "midi": 50,
                    "time": 308.75,
                    "velocity": 0.7874015748031497,
                    "duration": 0.3059895833333144
                },
                {
                    "name": "G3",
                    "midi": 55,
                    "time": 309.0625,
                    "velocity": 0.7874015748031497,
                    "duration": 0.3059895833333144
                },
                {
                    "name": "D3",
                    "midi": 50,
                    "time": 309.375,
                    "velocity": 0.7874015748031497,
                    "duration": 0.3059895833333144
                },
                {
                    "name": "G2",
                    "midi": 43,
                    "time": 309.6875,
                    "velocity": 0.7874015748031497,
                    "duration": 0.3059895833333144
                },
                {
                    "name": "C3",
                    "midi": 48,
                    "time": 310,
                    "velocity": 0.7874015748031497,
                    "duration": 0.3059895833333144
                },
                {
                    "name": "E3",
                    "midi": 52,
                    "time": 310.3125,
                    "velocity": 0.7874015748031497,
                    "duration": 0.14973958333331439
                },
                {
                    "name": "D3",
                    "midi": 50,
                    "time": 310.46875,
                    "velocity": 0.7874015748031497,
                    "duration": 0.14973958333331439
                },
                {
                    "name": "C3",
                    "midi": 48,
                    "time": 310.625,
                    "velocity": 0.7874015748031497,
                    "duration": 0.20833333333331439
                },
                {
                    "name": "C3",
                    "midi": 48,
                    "time": 310.9375,
                    "velocity": 0.7874015748031497,
                    "duration": 0.3059895833333144
                },
                {
                    "name": "E3",
                    "midi": 52,
                    "time": 311.25,
                    "velocity": 0.7874015748031497,
                    "duration": 0.14973958333331439
                },
                {
                    "name": "D3",
                    "midi": 50,
                    "time": 311.40625,
                    "velocity": 0.7874015748031497,
                    "duration": 0.14973958333331439
                },
                {
                    "name": "C3",
                    "midi": 48,
                    "time": 311.5625,
                    "velocity": 0.7874015748031497,
                    "duration": 0.20833333333331439
                },
                {
                    "name": "C4",
                    "midi": 60,
                    "time": 311.875,
                    "velocity": 0.7874015748031497,
                    "duration": 1.8684895833333144
                },
                {
                    "name": "C3",
                    "midi": 48,
                    "time": 313.75,
                    "velocity": 0.7874015748031497,
                    "duration": 0.3059895833333144
                },
                {
                    "name": "E3",
                    "midi": 52,
                    "time": 314.0625,
                    "velocity": 0.7874015748031497,
                    "duration": 0.14973958333331439
                },
                {
                    "name": "D3",
                    "midi": 50,
                    "time": 314.21875,
                    "velocity": 0.7874015748031497,
                    "duration": 0.14973958333331439
                },
                {
                    "name": "C3",
                    "midi": 48,
                    "time": 314.375,
                    "velocity": 0.7874015748031497,
                    "duration": 0.20833333333331439
                },
                {
                    "name": "C3",
                    "midi": 48,
                    "time": 314.6875,
                    "velocity": 0.7874015748031497,
                    "duration": 0.3059895833333144
                },
                {
                    "name": "E3",
                    "midi": 52,
                    "time": 315,
                    "velocity": 0.7874015748031497,
                    "duration": 0.14973958333331439
                },
                {
                    "name": "D3",
                    "midi": 50,
                    "time": 315.15625,
                    "velocity": 0.7874015748031497,
                    "duration": 0.14973958333331439
                },
                {
                    "name": "C3",
                    "midi": 48,
                    "time": 315.3125,
                    "velocity": 0.7874015748031497,
                    "duration": 0.20833333333331439
                },
                {
                    "name": "F3",
                    "midi": 53,
                    "time": 315.625,
                    "velocity": 0.7874015748031497,
                    "duration": 0.4166666666666856
                },
                {
                    "name": "A3",
                    "midi": 57,
                    "time": 316.25,
                    "velocity": 0.7874015748031497,
                    "duration": 0.20833333333331439
                },
                {
                    "name": "C4",
                    "midi": 60,
                    "time": 316.5625,
                    "velocity": 0.7874015748031497,
                    "duration": 0.4166666666666856
                },
                {
                    "name": "C3",
                    "midi": 48,
                    "time": 317.1875,
                    "velocity": 0.7874015748031497,
                    "duration": 0.20833333333331439
                },
                {
                    "name": "F3",
                    "midi": 53,
                    "time": 317.5,
                    "velocity": 0.7874015748031497,
                    "duration": 0.6184895833333144
                },
                {
                    "name": "F2",
                    "midi": 41,
                    "time": 318.125,
                    "velocity": 0.7874015748031497,
                    "duration": 0.3059895833333144
                },
                {
                    "name": "A#2",
                    "midi": 46,
                    "time": 318.4375,
                    "velocity": 0.7874015748031497,
                    "duration": 0.3059895833333144
                },
                {
                    "name": "A2",
                    "midi": 45,
                    "time": 318.75,
                    "velocity": 0.7874015748031497,
                    "duration": 0.3059895833333144
                },
                {
                    "name": "G2",
                    "midi": 43,
                    "time": 319.0625,
                    "velocity": 0.7874015748031497,
                    "duration": 0.3059895833333144
                },
                {
                    "name": "A2",
                    "midi": 45,
                    "time": 319.375,
                    "velocity": 0.7874015748031497,
                    "duration": 0.3059895833333144
                },
                {
                    "name": "G2",
                    "midi": 43,
                    "time": 319.6875,
                    "velocity": 0.7874015748031497,
                    "duration": 0.3059895833333144
                },
                {
                    "name": "F2",
                    "midi": 41,
                    "time": 320,
                    "velocity": 0.7874015748031497,
                    "duration": 0.3059895833333144
                },
                {
                    "name": "C3",
                    "midi": 48,
                    "time": 320.3125,
                    "velocity": 0.7874015748031497,
                    "duration": 0.20833333333331439
                },
                {
                    "name": "A#2",
                    "midi": 46,
                    "time": 320.625,
                    "velocity": 0.7874015748031497,
                    "duration": 0.3059895833333144
                },
                {
                    "name": "C3",
                    "midi": 48,
                    "time": 320.9375,
                    "velocity": 0.7874015748031497,
                    "duration": 0.20833333333331439
                },
                {
                    "name": "F2",
                    "midi": 41,
                    "time": 321.25,
                    "velocity": 0.7874015748031497,
                    "duration": 0.6184895833333144
                },
                {
                    "name": "D3",
                    "midi": 50,
                    "time": 360.625,
                    "velocity": 0.7874015748031497,
                    "duration": 0.3059895833333144
                },
                {
                    "name": "F3",
                    "midi": 53,
                    "time": 360.9375,
                    "velocity": 0.7874015748031497,
                    "duration": 0.3059895833333144
                },
                {
                    "name": "A#3",
                    "midi": 58,
                    "time": 361.25,
                    "velocity": 0.7874015748031497,
                    "duration": 0.3059895833333144
                },
                {
                    "name": "C3",
                    "midi": 48,
                    "time": 361.5625,
                    "velocity": 0.7874015748031497,
                    "duration": 0.3059895833333144
                },
                {
                    "name": "D#3",
                    "midi": 51,
                    "time": 361.875,
                    "velocity": 0.7874015748031497,
                    "duration": 0.3059895833333144
                },
                {
                    "name": "A3",
                    "midi": 57,
                    "time": 362.1875,
                    "velocity": 0.7874015748031497,
                    "duration": 0.3059895833333144
                },
                {
                    "name": "A#2",
                    "midi": 46,
                    "time": 362.5,
                    "velocity": 0.7874015748031497,
                    "duration": 0.3059895833333144
                },
                {
                    "name": "D3",
                    "midi": 50,
                    "time": 362.8125,
                    "velocity": 0.7874015748031497,
                    "duration": 0.3059895833333144
                },
                {
                    "name": "D#3",
                    "midi": 51,
                    "time": 363.125,
                    "velocity": 0.7874015748031497,
                    "duration": 0.3059895833333144
                },
                {
                    "name": "F3",
                    "midi": 53,
                    "time": 363.4375,
                    "velocity": 0.7874015748031497,
                    "duration": 0.3059895833333144
                },
                {
                    "name": "D#3",
                    "midi": 51,
                    "time": 363.75,
                    "velocity": 0.7874015748031497,
                    "duration": 0.3059895833333144
                },
                {
                    "name": "F3",
                    "midi": 53,
                    "time": 364.0625,
                    "velocity": 0.7874015748031497,
                    "duration": 0.3059895833333144
                },
                {
                    "name": "A#2",
                    "midi": 46,
                    "time": 364.375,
                    "velocity": 0.7874015748031497,
                    "duration": 0.3059895833333144
                },
                {
                    "name": "A#3",
                    "midi": 58,
                    "time": 365,
                    "velocity": 0.7874015748031497,
                    "duration": 0.3059895833333144
                },
                {
                    "name": "D4",
                    "midi": 62,
                    "time": 365.3125,
                    "velocity": 0.7874015748031497,
                    "duration": 0.3059895833333144
                },
                {
                    "name": "F4",
                    "midi": 65,
                    "time": 365.625,
                    "velocity": 0.7874015748031497,
                    "duration": 0.3059895833333144
                },
                {
                    "name": "A#3",
                    "midi": 58,
                    "time": 365.9375,
                    "velocity": 0.7874015748031497,
                    "duration": 0.3059895833333144
                },
                {
                    "name": "C4",
                    "midi": 60,
                    "time": 366.25,
                    "velocity": 0.7874015748031497,
                    "duration": 0.3059895833333144
                },
                {
                    "name": "F4",
                    "midi": 65,
                    "time": 366.5625,
                    "velocity": 0.7874015748031497,
                    "duration": 0.3059895833333144
                },
                {
                    "name": "A3",
                    "midi": 57,
                    "time": 366.875,
                    "velocity": 0.7874015748031497,
                    "duration": 0.20833333333331439
                },
                {
                    "name": "C4",
                    "midi": 60,
                    "time": 367.1875,
                    "velocity": 0.7874015748031497,
                    "duration": 0.3059895833333144
                },
                {
                    "name": "F4",
                    "midi": 65,
                    "time": 367.5,
                    "velocity": 0.7874015748031497,
                    "duration": 0.3059895833333144
                },
                {
                    "name": "A3",
                    "midi": 57,
                    "time": 367.8125,
                    "velocity": 0.7874015748031497,
                    "duration": 0.20833333333331439
                },
                {
                    "name": "D4",
                    "midi": 62,
                    "time": 368.125,
                    "velocity": 0.7874015748031497,
                    "duration": 0.3059895833333144
                },
                {
                    "name": "F4",
                    "midi": 65,
                    "time": 368.4375,
                    "velocity": 0.7874015748031497,
                    "duration": 0.3059895833333144
                },
                {
                    "name": "A#3",
                    "midi": 58,
                    "time": 368.75,
                    "velocity": 0.7874015748031497,
                    "duration": 0.3059895833333144
                },
                {
                    "name": "D4",
                    "midi": 62,
                    "time": 369.0625,
                    "velocity": 0.7874015748031497,
                    "duration": 0.3059895833333144
                },
                {
                    "name": "F4",
                    "midi": 65,
                    "time": 369.375,
                    "velocity": 0.7874015748031497,
                    "duration": 0.3059895833333144
                },
                {
                    "name": "A#3",
                    "midi": 58,
                    "time": 369.6875,
                    "velocity": 0.7874015748031497,
                    "duration": 0.3059895833333144
                },
                {
                    "name": "D4",
                    "midi": 62,
                    "time": 370,
                    "velocity": 0.7874015748031497,
                    "duration": 0.3059895833333144
                },
                {
                    "name": "G4",
                    "midi": 67,
                    "time": 370.3125,
                    "velocity": 0.7874015748031497,
                    "duration": 0.3059895833333144
                },
                {
                    "name": "B3",
                    "midi": 59,
                    "time": 370.625,
                    "velocity": 0.7874015748031497,
                    "duration": 0.3059895833333144
                },
                {
                    "name": "D4",
                    "midi": 62,
                    "time": 370.9375,
                    "velocity": 0.7874015748031497,
                    "duration": 0.3059895833333144
                },
                {
                    "name": "G4",
                    "midi": 67,
                    "time": 371.25,
                    "velocity": 0.7874015748031497,
                    "duration": 0.3059895833333144
                },
                {
                    "name": "B3",
                    "midi": 59,
                    "time": 371.5625,
                    "velocity": 0.7874015748031497,
                    "duration": 0.3059895833333144
                },
                {
                    "name": "D#4",
                    "midi": 63,
                    "time": 371.875,
                    "velocity": 0.7874015748031497,
                    "duration": 0.3059895833333144
                },
                {
                    "name": "G4",
                    "midi": 67,
                    "time": 372.1875,
                    "velocity": 0.7874015748031497,
                    "duration": 0.3059895833333144
                },
                {
                    "name": "C4",
                    "midi": 60,
                    "time": 372.5,
                    "velocity": 0.7874015748031497,
                    "duration": 0.3059895833333144
                },
                {
                    "name": "D#4",
                    "midi": 63,
                    "time": 372.8125,
                    "velocity": 0.7874015748031497,
                    "duration": 0.3059895833333144
                },
                {
                    "name": "G4",
                    "midi": 67,
                    "time": 373.125,
                    "velocity": 0.7874015748031497,
                    "duration": 0.3059895833333144
                },
                {
                    "name": "C4",
                    "midi": 60,
                    "time": 373.4375,
                    "velocity": 0.7874015748031497,
                    "duration": 0.3059895833333144
                },
                {
                    "name": "D4",
                    "midi": 62,
                    "time": 373.75,
                    "velocity": 0.7874015748031497,
                    "duration": 0.3059895833333144
                },
                {
                    "name": "G4",
                    "midi": 67,
                    "time": 374.0625,
                    "velocity": 0.7874015748031497,
                    "duration": 0.3059895833333144
                },
                {
                    "name": "B3",
                    "midi": 59,
                    "time": 374.375,
                    "velocity": 0.7874015748031497,
                    "duration": 0.3059895833333144
                },
                {
                    "name": "D4",
                    "midi": 62,
                    "time": 374.6875,
                    "velocity": 0.7874015748031497,
                    "duration": 0.3059895833333144
                },
                {
                    "name": "G4",
                    "midi": 67,
                    "time": 375,
                    "velocity": 0.7874015748031497,
                    "duration": 0.3059895833333144
                },
                {
                    "name": "B3",
                    "midi": 59,
                    "time": 375.3125,
                    "velocity": 0.7874015748031497,
                    "duration": 0.3059895833333144
                },
                {
                    "name": "E4",
                    "midi": 64,
                    "time": 375.625,
                    "velocity": 0.7874015748031497,
                    "duration": 0.3059895833333144
                },
                {
                    "name": "A4",
                    "midi": 69,
                    "time": 375.9375,
                    "velocity": 0.7874015748031497,
                    "duration": 0.3059895833333144
                },
                {
                    "name": "C#4",
                    "midi": 61,
                    "time": 376.25,
                    "velocity": 0.7874015748031497,
                    "duration": 0.3059895833333144
                },
                {
                    "name": "E4",
                    "midi": 64,
                    "time": 376.5625,
                    "velocity": 0.7874015748031497,
                    "duration": 0.3059895833333144
                },
                {
                    "name": "A4",
                    "midi": 69,
                    "time": 376.875,
                    "velocity": 0.7874015748031497,
                    "duration": 0.3059895833333144
                },
                {
                    "name": "C#4",
                    "midi": 61,
                    "time": 377.1875,
                    "velocity": 0.7874015748031497,
                    "duration": 0.3059895833333144
                },
                {
                    "name": "F4",
                    "midi": 65,
                    "time": 377.5,
                    "velocity": 0.7874015748031497,
                    "duration": 0.3059895833333144
                },
                {
                    "name": "A4",
                    "midi": 69,
                    "time": 377.8125,
                    "velocity": 0.7874015748031497,
                    "duration": 0.3059895833333144
                },
                {
                    "name": "D4",
                    "midi": 62,
                    "time": 378.125,
                    "velocity": 0.7874015748031497,
                    "duration": 0.3059895833333144
                },
                {
                    "name": "F4",
                    "midi": 65,
                    "time": 378.4375,
                    "velocity": 0.7874015748031497,
                    "duration": 0.3059895833333144
                },
                {
                    "name": "A4",
                    "midi": 69,
                    "time": 378.75,
                    "velocity": 0.7874015748031497,
                    "duration": 0.3059895833333144
                },
                {
                    "name": "D4",
                    "midi": 62,
                    "time": 379.0625,
                    "velocity": 0.7874015748031497,
                    "duration": 0.3059895833333144
                },
                {
                    "name": "E4",
                    "midi": 64,
                    "time": 379.375,
                    "velocity": 0.7874015748031497,
                    "duration": 0.3059895833333144
                },
                {
                    "name": "A4",
                    "midi": 69,
                    "time": 379.6875,
                    "velocity": 0.7874015748031497,
                    "duration": 0.3059895833333144
                },
                {
                    "name": "C#4",
                    "midi": 61,
                    "time": 380,
                    "velocity": 0.7874015748031497,
                    "duration": 0.3059895833333144
                },
                {
                    "name": "E4",
                    "midi": 64,
                    "time": 380.3125,
                    "velocity": 0.7874015748031497,
                    "duration": 0.3059895833333144
                },
                {
                    "name": "A4",
                    "midi": 69,
                    "time": 380.625,
                    "velocity": 0.7874015748031497,
                    "duration": 0.3059895833333144
                },
                {
                    "name": "C#4",
                    "midi": 61,
                    "time": 380.9375,
                    "velocity": 0.7874015748031497,
                    "duration": 0.3059895833333144
                },
                {
                    "name": "F4",
                    "midi": 65,
                    "time": 381.25,
                    "velocity": 0.7874015748031497,
                    "duration": 0.3059895833333144
                },
                {
                    "name": "A#4",
                    "midi": 70,
                    "time": 381.5625,
                    "velocity": 0.7874015748031497,
                    "duration": 0.3059895833333144
                },
                {
                    "name": "D4",
                    "midi": 62,
                    "time": 381.875,
                    "velocity": 0.7874015748031497,
                    "duration": 0.3059895833333144
                },
                {
                    "name": "F4",
                    "midi": 65,
                    "time": 382.1875,
                    "velocity": 0.7874015748031497,
                    "duration": 0.3059895833333144
                },
                {
                    "name": "A#4",
                    "midi": 70,
                    "time": 382.5,
                    "velocity": 0.7874015748031497,
                    "duration": 0.3059895833333144
                },
                {
                    "name": "D4",
                    "midi": 62,
                    "time": 382.8125,
                    "velocity": 0.7874015748031497,
                    "duration": 0.3059895833333144
                },
                {
                    "name": "G4",
                    "midi": 67,
                    "time": 383.125,
                    "velocity": 0.7874015748031497,
                    "duration": 0.3059895833333144
                },
                {
                    "name": "A#4",
                    "midi": 70,
                    "time": 383.4375,
                    "velocity": 0.7874015748031497,
                    "duration": 0.3059895833333144
                },
                {
                    "name": "E4",
                    "midi": 64,
                    "time": 383.75,
                    "velocity": 0.7874015748031497,
                    "duration": 0.3059895833333144
                },
                {
                    "name": "G4",
                    "midi": 67,
                    "time": 384.0625,
                    "velocity": 0.7874015748031497,
                    "duration": 0.3059895833333144
                },
                {
                    "name": "A#4",
                    "midi": 70,
                    "time": 384.375,
                    "velocity": 0.7874015748031497,
                    "duration": 0.3059895833333144
                },
                {
                    "name": "E4",
                    "midi": 64,
                    "time": 384.6875,
                    "velocity": 0.7874015748031497,
                    "duration": 0.3059895833333144
                },
                {
                    "name": "G4",
                    "midi": 67,
                    "time": 385,
                    "velocity": 0.7874015748031497,
                    "duration": 0.3059895833333144
                },
                {
                    "name": "A#4",
                    "midi": 70,
                    "time": 385.3125,
                    "velocity": 0.7874015748031497,
                    "duration": 0.3059895833333144
                },
                {
                    "name": "E4",
                    "midi": 64,
                    "time": 385.625,
                    "velocity": 0.7874015748031497,
                    "duration": 0.3059895833333144
                },
                {
                    "name": "G4",
                    "midi": 67,
                    "time": 385.9375,
                    "velocity": 0.7874015748031497,
                    "duration": 0.3059895833333144
                },
                {
                    "name": "A#4",
                    "midi": 70,
                    "time": 386.25,
                    "velocity": 0.7874015748031497,
                    "duration": 0.3059895833333144
                },
                {
                    "name": "E4",
                    "midi": 64,
                    "time": 386.5625,
                    "velocity": 0.7874015748031497,
                    "duration": 0.3059895833333144
                },
                {
                    "name": "A4",
                    "midi": 69,
                    "time": 386.875,
                    "velocity": 0.7874015748031497,
                    "duration": 0.3059895833333144
                },
                {
                    "name": "C5",
                    "midi": 72,
                    "time": 387.1875,
                    "velocity": 0.7874015748031497,
                    "duration": 0.3059895833333144
                },
                {
                    "name": "F4",
                    "midi": 65,
                    "time": 387.5,
                    "velocity": 0.7874015748031497,
                    "duration": 0.3059895833333144
                },
                {
                    "name": "A4",
                    "midi": 69,
                    "time": 387.8125,
                    "velocity": 0.7874015748031497,
                    "duration": 0.3059895833333144
                },
                {
                    "name": "C5",
                    "midi": 72,
                    "time": 388.125,
                    "velocity": 0.7874015748031497,
                    "duration": 0.3059895833333144
                },
                {
                    "name": "F4",
                    "midi": 65,
                    "time": 388.4375,
                    "velocity": 0.7874015748031497,
                    "duration": 0.3059895833333144
                },
                {
                    "name": "G4",
                    "midi": 67,
                    "time": 388.75,
                    "velocity": 0.7874015748031497,
                    "duration": 0.3059895833333144
                },
                {
                    "name": "B4",
                    "midi": 71,
                    "time": 389.0625,
                    "velocity": 0.7874015748031497,
                    "duration": 0.3059895833333144
                },
                {
                    "name": "F4",
                    "midi": 65,
                    "time": 389.375,
                    "velocity": 0.7874015748031497,
                    "duration": 0.3059895833333144
                },
                {
                    "name": "G4",
                    "midi": 67,
                    "time": 389.6875,
                    "velocity": 0.7874015748031497,
                    "duration": 0.3059895833333144
                },
                {
                    "name": "B4",
                    "midi": 71,
                    "time": 390,
                    "velocity": 0.7874015748031497,
                    "duration": 0.3059895833333144
                },
                {
                    "name": "F4",
                    "midi": 65,
                    "time": 390.3125,
                    "velocity": 0.7874015748031497,
                    "duration": 0.3059895833333144
                },
                {
                    "name": "D#4",
                    "midi": 63,
                    "time": 390.625,
                    "velocity": 0.7874015748031497,
                    "duration": 0.3059895833333144
                },
                {
                    "name": "G4",
                    "midi": 67,
                    "time": 390.9375,
                    "velocity": 0.7874015748031497,
                    "duration": 0.3059895833333144
                },
                {
                    "name": "C4",
                    "midi": 60,
                    "time": 391.25,
                    "velocity": 0.7874015748031497,
                    "duration": 0.3059895833333144
                },
                {
                    "name": "D#4",
                    "midi": 63,
                    "time": 391.5625,
                    "velocity": 0.7874015748031497,
                    "duration": 0.3059895833333144
                },
                {
                    "name": "G4",
                    "midi": 67,
                    "time": 391.875,
                    "velocity": 0.7874015748031497,
                    "duration": 0.3059895833333144
                },
                {
                    "name": "C4",
                    "midi": 60,
                    "time": 392.1875,
                    "velocity": 0.7874015748031497,
                    "duration": 0.3059895833333144
                },
                {
                    "name": "D#4",
                    "midi": 63,
                    "time": 392.5,
                    "velocity": 0.7874015748031497,
                    "duration": 0.3059895833333144
                },
                {
                    "name": "G4",
                    "midi": 67,
                    "time": 392.8125,
                    "velocity": 0.7874015748031497,
                    "duration": 0.3059895833333144
                },
                {
                    "name": "C4",
                    "midi": 60,
                    "time": 393.125,
                    "velocity": 0.7874015748031497,
                    "duration": 0.3059895833333144
                },
                {
                    "name": "D#4",
                    "midi": 63,
                    "time": 393.4375,
                    "velocity": 0.7874015748031497,
                    "duration": 0.3059895833333144
                },
                {
                    "name": "G4",
                    "midi": 67,
                    "time": 393.75,
                    "velocity": 0.7874015748031497,
                    "duration": 0.3059895833333144
                },
                {
                    "name": "C4",
                    "midi": 60,
                    "time": 394.0625,
                    "velocity": 0.7874015748031497,
                    "duration": 0.3059895833333144
                },
                {
                    "name": "D4",
                    "midi": 62,
                    "time": 394.375,
                    "velocity": 0.7874015748031497,
                    "duration": 0.3059895833333144
                },
                {
                    "name": "F#4",
                    "midi": 66,
                    "time": 394.6875,
                    "velocity": 0.7874015748031497,
                    "duration": 0.3059895833333144
                },
                {
                    "name": "C4",
                    "midi": 60,
                    "time": 395,
                    "velocity": 0.7874015748031497,
                    "duration": 0.3059895833333144
                },
                {
                    "name": "D4",
                    "midi": 62,
                    "time": 395.3125,
                    "velocity": 0.7874015748031497,
                    "duration": 0.3059895833333144
                },
                {
                    "name": "F#4",
                    "midi": 66,
                    "time": 395.625,
                    "velocity": 0.7874015748031497,
                    "duration": 0.3059895833333144
                },
                {
                    "name": "C4",
                    "midi": 60,
                    "time": 395.9375,
                    "velocity": 0.7874015748031497,
                    "duration": 0.3059895833333144
                },
                {
                    "name": "A#3",
                    "midi": 58,
                    "time": 396.25,
                    "velocity": 0.7874015748031497,
                    "duration": 0.3059895833333144
                },
                {
                    "name": "G4",
                    "midi": 67,
                    "time": 396.5625,
                    "velocity": 0.7874015748031497,
                    "duration": 0.3059895833333144
                },
                {
                    "name": "C4",
                    "midi": 60,
                    "time": 396.875,
                    "velocity": 0.7874015748031497,
                    "duration": 0.3059895833333144
                },
                {
                    "name": "D4",
                    "midi": 62,
                    "time": 397.1875,
                    "velocity": 0.7874015748031497,
                    "duration": 0.3059895833333144
                },
                {
                    "name": "C4",
                    "midi": 60,
                    "time": 397.5,
                    "velocity": 0.7874015748031497,
                    "duration": 0.3059895833333144
                },
                {
                    "name": "D4",
                    "midi": 62,
                    "time": 397.8125,
                    "velocity": 0.7874015748031497,
                    "duration": 0.3059895833333144
                },
                {
                    "name": "A#2",
                    "midi": 46,
                    "time": 426.25,
                    "velocity": 0.7874015748031497,
                    "duration": 0.6184895833333144
                },
                {
                    "name": "A#3",
                    "midi": 58,
                    "time": 426.875,
                    "velocity": 0.7874015748031497,
                    "duration": 0.3059895833333144
                },
                {
                    "name": "D#3",
                    "midi": 51,
                    "time": 427.1875,
                    "velocity": 0.7874015748031497,
                    "duration": 0.3059895833333144
                },
                {
                    "name": "G3",
                    "midi": 55,
                    "time": 427.5,
                    "velocity": 0.7874015748031497,
                    "duration": 0.3059895833333144
                },
                {
                    "name": "C4",
                    "midi": 60,
                    "time": 427.8125,
                    "velocity": 0.7874015748031497,
                    "duration": 0.3059895833333144
                },
                {
                    "name": "D3",
                    "midi": 50,
                    "time": 428.125,
                    "velocity": 0.7874015748031497,
                    "duration": 0.3059895833333144
                },
                {
                    "name": "F3",
                    "midi": 53,
                    "time": 428.4375,
                    "velocity": 0.7874015748031497,
                    "duration": 0.3059895833333144
                },
                {
                    "name": "A#3",
                    "midi": 58,
                    "time": 428.75,
                    "velocity": 0.7874015748031497,
                    "duration": 0.3059895833333144
                },
                {
                    "name": "D#3",
                    "midi": 51,
                    "time": 429.0625,
                    "velocity": 0.7874015748031497,
                    "duration": 0.6184895833333144
                },
                {
                    "name": "C4",
                    "midi": 60,
                    "time": 429.375,
                    "velocity": 0.7874015748031497,
                    "duration": 0.6184895833333144
                },
                {
                    "name": "F3",
                    "midi": 53,
                    "time": 429.6875,
                    "velocity": 0.7874015748031497,
                    "duration": 0.3059895833333144
                },
                {
                    "name": "A#3",
                    "midi": 58,
                    "time": 430,
                    "velocity": 0.7874015748031497,
                    "duration": 0.625
                },
                {
                    "name": "D4",
                    "midi": 62,
                    "time": 430,
                    "velocity": 0.7874015748031497,
                    "duration": 0.625
                },
                {
                    "name": "A#2",
                    "midi": 46,
                    "time": 431.875,
                    "velocity": 0.7874015748031497,
                    "duration": 0.9309895833333144
                },
                {
                    "name": "D3",
                    "midi": 50,
                    "time": 431.875,
                    "velocity": 0.7874015748031497,
                    "duration": 0.9309895833333144
                },
                {
                    "name": "F3",
                    "midi": 53,
                    "time": 431.875,
                    "velocity": 0.7874015748031497,
                    "duration": 0.9309895833333144
                },
                {
                    "name": "A#3",
                    "midi": 58,
                    "time": 431.875,
                    "velocity": 0.7874015748031497,
                    "duration": 0.9309895833333144
                },
                {
                    "name": "A#3",
                    "midi": 58,
                    "time": 433.75,
                    "velocity": 0.7874015748031497,
                    "duration": 0.20833333333331439
                },
                {
                    "name": "D3",
                    "midi": 50,
                    "time": 434.0625,
                    "velocity": 0.7874015748031497,
                    "duration": 0.14973958333331439
                },
                {
                    "name": "D#3",
                    "midi": 51,
                    "time": 434.21875,
                    "velocity": 0.7874015748031497,
                    "duration": 0.14973958333331439
                },
                {
                    "name": "F3",
                    "midi": 53,
                    "time": 434.375,
                    "velocity": 0.7874015748031497,
                    "duration": 0.20833333333331439
                },
                {
                    "name": "F3",
                    "midi": 53,
                    "time": 434.6875,
                    "velocity": 0.7874015748031497,
                    "duration": 0.3059895833333144
                },
                {
                    "name": "D3",
                    "midi": 50,
                    "time": 435,
                    "velocity": 0.7874015748031497,
                    "duration": 0.14973958333331439
                },
                {
                    "name": "D#3",
                    "midi": 51,
                    "time": 435.15625,
                    "velocity": 0.7874015748031497,
                    "duration": 0.14973958333331439
                },
                {
                    "name": "F3",
                    "midi": 53,
                    "time": 435.3125,
                    "velocity": 0.7874015748031497,
                    "duration": 0.20833333333331439
                },
                {
                    "name": "F3",
                    "midi": 53,
                    "time": 435.625,
                    "velocity": 0.7874015748031497,
                    "duration": 0.3059895833333144
                },
                {
                    "name": "D3",
                    "midi": 50,
                    "time": 435.9375,
                    "velocity": 0.7874015748031497,
                    "duration": 0.14973958333331439
                },
                {
                    "name": "D#3",
                    "midi": 51,
                    "time": 436.09375,
                    "velocity": 0.7874015748031497,
                    "duration": 0.14973958333331439
                },
                {
                    "name": "F3",
                    "midi": 53,
                    "time": 436.25,
                    "velocity": 0.7874015748031497,
                    "duration": 0.20833333333331439
                },
                {
                    "name": "F3",
                    "midi": 53,
                    "time": 436.5625,
                    "velocity": 0.7874015748031497,
                    "duration": 0.3059895833333144
                },
                {
                    "name": "D3",
                    "midi": 50,
                    "time": 436.875,
                    "velocity": 0.7874015748031497,
                    "duration": 0.14973958333331439
                },
                {
                    "name": "D#3",
                    "midi": 51,
                    "time": 437.03125,
                    "velocity": 0.7874015748031497,
                    "duration": 0.14973958333331439
                },
                {
                    "name": "F3",
                    "midi": 53,
                    "time": 437.1875,
                    "velocity": 0.7874015748031497,
                    "duration": 0.20833333333331439
                },
                {
                    "name": "A#2",
                    "midi": 46,
                    "time": 437.5,
                    "velocity": 0.7874015748031497,
                    "duration": 2.8059895833333144
                }
            ],
            "controlChanges": {
                "7": [
                    {
                        "number": 7,
                        "time": 0,
                        "value": 0.8188976377952756
                    }
                ],
                "10": [
                    {
                        "number": 10,
                        "time": 0,
                        "value": 0.5039370078740157
                    }
                ]
            },
            "id": 4,
            "name": "Manual 1 LH",
            "instrumentNumber": 6,
            "instrument": "harpsichord",
            "instrumentFamily": "piano",
            "channelNumber": 0,
            "isPercussion": false
        },
        {
            "startTime": 15.3125,
            "duration": 426.24348958333303,
            "length": 1667,
            "notes": [
                {
                    "name": "F4",
                    "midi": 65,
                    "time": 15.3125,
                    "velocity": 0.6141732283464567,
                    "duration": 0.3059895833333339
                },
                {
                    "name": "A#4",
                    "midi": 70,
                    "time": 15.625,
                    "velocity": 0.6141732283464567,
                    "duration": 0.3059895833333339
                },
                {
                    "name": "D5",
                    "midi": 74,
                    "time": 15.9375,
                    "velocity": 0.6141732283464567,
                    "duration": 0.30598958333333215
                },
                {
                    "name": "A#4",
                    "midi": 70,
                    "time": 15.9375,
                    "velocity": 0.6141732283464567,
                    "duration": 0.30598958333333215
                },
                {
                    "name": "F4",
                    "midi": 65,
                    "time": 15.9375,
                    "velocity": 0.6141732283464567,
                    "duration": 0.30598958333333215
                },
                {
                    "name": "F5",
                    "midi": 77,
                    "time": 16.25,
                    "velocity": 0.6141732283464567,
                    "duration": 0.30598958333333215
                },
                {
                    "name": "D5",
                    "midi": 74,
                    "time": 16.25,
                    "velocity": 0.6141732283464567,
                    "duration": 0.30598958333333215
                },
                {
                    "name": "A#4",
                    "midi": 70,
                    "time": 16.25,
                    "velocity": 0.6141732283464567,
                    "duration": 0.30598958333333215
                },
                {
                    "name": "A#5",
                    "midi": 82,
                    "time": 16.5625,
                    "velocity": 0.6141732283464567,
                    "duration": 0.30598958333333215
                },
                {
                    "name": "F5",
                    "midi": 77,
                    "time": 16.5625,
                    "velocity": 0.6141732283464567,
                    "duration": 0.30598958333333215
                },
                {
                    "name": "D5",
                    "midi": 74,
                    "time": 16.5625,
                    "velocity": 0.6141732283464567,
                    "duration": 0.30598958333333215
                },
                {
                    "name": "A5",
                    "midi": 81,
                    "time": 16.875,
                    "velocity": 0.6141732283464567,
                    "duration": 0.14973958333333215
                },
                {
                    "name": "G5",
                    "midi": 79,
                    "time": 17.03125,
                    "velocity": 0.6141732283464567,
                    "duration": 0.14973958333333215
                },
                {
                    "name": "F5",
                    "midi": 77,
                    "time": 17.1875,
                    "velocity": 0.6141732283464567,
                    "duration": 0.14973958333333215
                },
                {
                    "name": "D#5",
                    "midi": 75,
                    "time": 17.34375,
                    "velocity": 0.6141732283464567,
                    "duration": 0.14973958333333215
                },
                {
                    "name": "F5",
                    "midi": 77,
                    "time": 17.5,
                    "velocity": 0.6141732283464567,
                    "duration": 0.14973958333333215
                },
                {
                    "name": "D#5",
                    "midi": 75,
                    "time": 17.65625,
                    "velocity": 0.6141732283464567,
                    "duration": 0.14973958333333215
                },
                {
                    "name": "D5",
                    "midi": 74,
                    "time": 17.8125,
                    "velocity": 0.6141732283464567,
                    "duration": 0.14973958333333215
                },
                {
                    "name": "C5",
                    "midi": 72,
                    "time": 17.96875,
                    "velocity": 0.6141732283464567,
                    "duration": 0.14973958333333215
                },
                {
                    "name": "D5",
                    "midi": 74,
                    "time": 18.125,
                    "velocity": 0.6141732283464567,
                    "duration": 0.14973958333333215
                },
                {
                    "name": "C5",
                    "midi": 72,
                    "time": 18.28125,
                    "velocity": 0.6141732283464567,
                    "duration": 0.14973958333333215
                },
                {
                    "name": "A#4",
                    "midi": 70,
                    "time": 18.4375,
                    "velocity": 0.6141732283464567,
                    "duration": 0.14973958333333215
                },
                {
                    "name": "A4",
                    "midi": 69,
                    "time": 18.59375,
                    "velocity": 0.6141732283464567,
                    "duration": 0.14973958333333215
                },
                {
                    "name": "G4",
                    "midi": 67,
                    "time": 18.75,
                    "velocity": 0.6141732283464567,
                    "duration": 0.14973958333333215
                },
                {
                    "name": "A#4",
                    "midi": 70,
                    "time": 18.90625,
                    "velocity": 0.6141732283464567,
                    "duration": 0.14973958333333215
                },
                {
                    "name": "G5",
                    "midi": 79,
                    "time": 19.0625,
                    "velocity": 0.6141732283464567,
                    "duration": 0.14973958333333215
                },
                {
                    "name": "A5",
                    "midi": 81,
                    "time": 19.21875,
                    "velocity": 0.6141732283464567,
                    "duration": 0.14973958333333215
                },
                {
                    "name": "G5",
                    "midi": 79,
                    "time": 19.375,
                    "velocity": 0.6141732283464567,
                    "duration": 0.14973958333333215
                },
                {
                    "name": "F5",
                    "midi": 77,
                    "time": 19.53125,
                    "velocity": 0.6141732283464567,
                    "duration": 0.14973958333333215
                },
                {
                    "name": "D#5",
                    "midi": 75,
                    "time": 19.6875,
                    "velocity": 0.6141732283464567,
                    "duration": 0.14973958333333215
                },
                {
                    "name": "D5",
                    "midi": 74,
                    "time": 19.84375,
                    "velocity": 0.6141732283464567,
                    "duration": 0.14973958333333215
                },
                {
                    "name": "D#5",
                    "midi": 75,
                    "time": 20,
                    "velocity": 0.6141732283464567,
                    "duration": 0.14973958333333215
                },
                {
                    "name": "D5",
                    "midi": 74,
                    "time": 20.15625,
                    "velocity": 0.6141732283464567,
                    "duration": 0.14973958333333215
                },
                {
                    "name": "C5",
                    "midi": 72,
                    "time": 20.3125,
                    "velocity": 0.6141732283464567,
                    "duration": 0.14973958333333215
                },
                {
                    "name": "A#4",
                    "midi": 70,
                    "time": 20.46875,
                    "velocity": 0.6141732283464567,
                    "duration": 0.14973958333333215
                },
                {
                    "name": "A4",
                    "midi": 69,
                    "time": 20.625,
                    "velocity": 0.6141732283464567,
                    "duration": 0.14973958333333215
                },
                {
                    "name": "C5",
                    "midi": 72,
                    "time": 20.78125,
                    "velocity": 0.6141732283464567,
                    "duration": 0.14973958333333215
                },
                {
                    "name": "A5",
                    "midi": 81,
                    "time": 20.9375,
                    "velocity": 0.6141732283464567,
                    "duration": 0.14973958333333215
                },
                {
                    "name": "A#5",
                    "midi": 82,
                    "time": 21.09375,
                    "velocity": 0.6141732283464567,
                    "duration": 0.14973958333333215
                },
                {
                    "name": "A5",
                    "midi": 81,
                    "time": 21.25,
                    "velocity": 0.6141732283464567,
                    "duration": 0.14973958333333215
                },
                {
                    "name": "G5",
                    "midi": 79,
                    "time": 21.40625,
                    "velocity": 0.6141732283464567,
                    "duration": 0.14973958333333215
                },
                {
                    "name": "F5",
                    "midi": 77,
                    "time": 21.5625,
                    "velocity": 0.6141732283464567,
                    "duration": 0.14973958333333215
                },
                {
                    "name": "D#5",
                    "midi": 75,
                    "time": 21.71875,
                    "velocity": 0.6141732283464567,
                    "duration": 0.14973958333333215
                },
                {
                    "name": "F5",
                    "midi": 77,
                    "time": 21.875,
                    "velocity": 0.6141732283464567,
                    "duration": 0.14973958333333215
                },
                {
                    "name": "D#5",
                    "midi": 75,
                    "time": 22.03125,
                    "velocity": 0.6141732283464567,
                    "duration": 0.14973958333333215
                },
                {
                    "name": "D5",
                    "midi": 74,
                    "time": 22.1875,
                    "velocity": 0.6141732283464567,
                    "duration": 0.14973958333333215
                },
                {
                    "name": "C5",
                    "midi": 72,
                    "time": 22.34375,
                    "velocity": 0.6141732283464567,
                    "duration": 0.14973958333333215
                },
                {
                    "name": "A#4",
                    "midi": 70,
                    "time": 22.5,
                    "velocity": 0.6141732283464567,
                    "duration": 0.14973958333333215
                },
                {
                    "name": "D5",
                    "midi": 74,
                    "time": 22.65625,
                    "velocity": 0.6141732283464567,
                    "duration": 0.14973958333333215
                },
                {
                    "name": "A#5",
                    "midi": 82,
                    "time": 22.8125,
                    "velocity": 0.6141732283464567,
                    "duration": 0.14973958333333215
                },
                {
                    "name": "C6",
                    "midi": 84,
                    "time": 22.96875,
                    "velocity": 0.6141732283464567,
                    "duration": 0.14973958333333215
                },
                {
                    "name": "A#5",
                    "midi": 82,
                    "time": 23.125,
                    "velocity": 0.6141732283464567,
                    "duration": 0.14973958333333215
                },
                {
                    "name": "A5",
                    "midi": 81,
                    "time": 23.28125,
                    "velocity": 0.6141732283464567,
                    "duration": 0.14973958333333215
                },
                {
                    "name": "G5",
                    "midi": 79,
                    "time": 23.4375,
                    "velocity": 0.6141732283464567,
                    "duration": 0.14973958333333215
                },
                {
                    "name": "F5",
                    "midi": 77,
                    "time": 23.59375,
                    "velocity": 0.6141732283464567,
                    "duration": 0.14973958333333215
                },
                {
                    "name": "G5",
                    "midi": 79,
                    "time": 23.75,
                    "velocity": 0.6141732283464567,
                    "duration": 0.14973958333333215
                },
                {
                    "name": "F5",
                    "midi": 77,
                    "time": 23.90625,
                    "velocity": 0.6141732283464567,
                    "duration": 0.14973958333333215
                },
                {
                    "name": "D#5",
                    "midi": 75,
                    "time": 24.0625,
                    "velocity": 0.6141732283464567,
                    "duration": 0.14973958333333215
                },
                {
                    "name": "D5",
                    "midi": 74,
                    "time": 24.21875,
                    "velocity": 0.6141732283464567,
                    "duration": 0.14973958333333215
                },
                {
                    "name": "C5",
                    "midi": 72,
                    "time": 24.375,
                    "velocity": 0.6141732283464567,
                    "duration": 0.14973958333333215
                },
                {
                    "name": "D#5",
                    "midi": 75,
                    "time": 24.53125,
                    "velocity": 0.6141732283464567,
                    "duration": 0.14973958333333215
                },
                {
                    "name": "F5",
                    "midi": 77,
                    "time": 24.6875,
                    "velocity": 0.6141732283464567,
                    "duration": 0.14973958333333215
                },
                {
                    "name": "G5",
                    "midi": 79,
                    "time": 24.84375,
                    "velocity": 0.6141732283464567,
                    "duration": 0.14973958333333215
                },
                {
                    "name": "A5",
                    "midi": 81,
                    "time": 25,
                    "velocity": 0.6141732283464567,
                    "duration": 0.14973958333333215
                },
                {
                    "name": "A#5",
                    "midi": 82,
                    "time": 25.15625,
                    "velocity": 0.6141732283464567,
                    "duration": 0.14973958333333215
                },
                {
                    "name": "C6",
                    "midi": 84,
                    "time": 25.3125,
                    "velocity": 0.6141732283464567,
                    "duration": 0.14973958333333215
                },
                {
                    "name": "A#5",
                    "midi": 82,
                    "time": 25.46875,
                    "velocity": 0.6141732283464567,
                    "duration": 0.14973958333333215
                },
                {
                    "name": "A5",
                    "midi": 81,
                    "time": 25.625,
                    "velocity": 0.6141732283464567,
                    "duration": 0.14973958333333215
                },
                {
                    "name": "G5",
                    "midi": 79,
                    "time": 25.78125,
                    "velocity": 0.6141732283464567,
                    "duration": 0.14973958333333215
                },
                {
                    "name": "F5",
                    "midi": 77,
                    "time": 25.9375,
                    "velocity": 0.6141732283464567,
                    "duration": 0.14973958333333215
                },
                {
                    "name": "D#5",
                    "midi": 75,
                    "time": 26.09375,
                    "velocity": 0.6141732283464567,
                    "duration": 0.14973958333333215
                },
                {
                    "name": "D5",
                    "midi": 74,
                    "time": 26.25,
                    "velocity": 0.6141732283464567,
                    "duration": 0.14973958333333215
                },
                {
                    "name": "A#4",
                    "midi": 70,
                    "time": 26.40625,
                    "velocity": 0.6141732283464567,
                    "duration": 0.14973958333333215
                },
                {
                    "name": "C5",
                    "midi": 72,
                    "time": 26.5625,
                    "velocity": 0.6141732283464567,
                    "duration": 0.14973958333333215
                },
                {
                    "name": "D5",
                    "midi": 74,
                    "time": 26.71875,
                    "velocity": 0.6141732283464567,
                    "duration": 0.14973958333333215
                },
                {
                    "name": "D#5",
                    "midi": 75,
                    "time": 26.875,
                    "velocity": 0.6141732283464567,
                    "duration": 0.14973958333333215
                },
                {
                    "name": "F5",
                    "midi": 77,
                    "time": 27.03125,
                    "velocity": 0.6141732283464567,
                    "duration": 0.14973958333333215
                },
                {
                    "name": "G5",
                    "midi": 79,
                    "time": 27.1875,
                    "velocity": 0.6141732283464567,
                    "duration": 0.14973958333333215
                },
                {
                    "name": "F5",
                    "midi": 77,
                    "time": 27.34375,
                    "velocity": 0.6141732283464567,
                    "duration": 0.14973958333333215
                },
                {
                    "name": "D#5",
                    "midi": 75,
                    "time": 27.5,
                    "velocity": 0.6141732283464567,
                    "duration": 0.14973958333333215
                },
                {
                    "name": "D5",
                    "midi": 74,
                    "time": 27.65625,
                    "velocity": 0.6141732283464567,
                    "duration": 0.14973958333333215
                },
                {
                    "name": "C5",
                    "midi": 72,
                    "time": 27.8125,
                    "velocity": 0.6141732283464567,
                    "duration": 0.14973958333333215
                },
                {
                    "name": "A#4",
                    "midi": 70,
                    "time": 27.96875,
                    "velocity": 0.6141732283464567,
                    "duration": 0.14973958333333215
                },
                {
                    "name": "A4",
                    "midi": 69,
                    "time": 28.125,
                    "velocity": 0.6141732283464567,
                    "duration": 0.14973958333333215
                },
                {
                    "name": "C5",
                    "midi": 72,
                    "time": 28.28125,
                    "velocity": 0.6141732283464567,
                    "duration": 0.14973958333333215
                },
                {
                    "name": "F5",
                    "midi": 77,
                    "time": 28.4375,
                    "velocity": 0.6141732283464567,
                    "duration": 0.14973958333333215
                },
                {
                    "name": "F5",
                    "midi": 77,
                    "time": 28.59375,
                    "velocity": 0.6141732283464567,
                    "duration": 0.14973958333333215
                },
                {
                    "name": "C5",
                    "midi": 72,
                    "time": 28.59375,
                    "velocity": 0.6141732283464567,
                    "duration": 0.14973958333333215
                },
                {
                    "name": "A4",
                    "midi": 69,
                    "time": 28.59375,
                    "velocity": 0.6141732283464567,
                    "duration": 0.14973958333333215
                },
                {
                    "name": "F5",
                    "midi": 77,
                    "time": 28.75,
                    "velocity": 0.6141732283464567,
                    "duration": 0.14973958333333215
                },
                {
                    "name": "C5",
                    "midi": 72,
                    "time": 28.75,
                    "velocity": 0.6141732283464567,
                    "duration": 0.14973958333333215
                },
                {
                    "name": "A4",
                    "midi": 69,
                    "time": 28.75,
                    "velocity": 0.6141732283464567,
                    "duration": 0.14973958333333215
                },
                {
                    "name": "F5",
                    "midi": 77,
                    "time": 28.90625,
                    "velocity": 0.6141732283464567,
                    "duration": 0.14973958333333215
                },
                {
                    "name": "C5",
                    "midi": 72,
                    "time": 28.90625,
                    "velocity": 0.6141732283464567,
                    "duration": 0.14973958333333215
                },
                {
                    "name": "A4",
                    "midi": 69,
                    "time": 28.90625,
                    "velocity": 0.6141732283464567,
                    "duration": 0.14973958333333215
                },
                {
                    "name": "F5",
                    "midi": 77,
                    "time": 29.0625,
                    "velocity": 0.6141732283464567,
                    "duration": 0.14973958333333215
                },
                {
                    "name": "C5",
                    "midi": 72,
                    "time": 29.0625,
                    "velocity": 0.6141732283464567,
                    "duration": 0.14973958333333215
                },
                {
                    "name": "A4",
                    "midi": 69,
                    "time": 29.0625,
                    "velocity": 0.6141732283464567,
                    "duration": 0.14973958333333215
                },
                {
                    "name": "F5",
                    "midi": 77,
                    "time": 29.21875,
                    "velocity": 0.6141732283464567,
                    "duration": 0.14973958333333215
                },
                {
                    "name": "C5",
                    "midi": 72,
                    "time": 29.21875,
                    "velocity": 0.6141732283464567,
                    "duration": 0.14973958333333215
                },
                {
                    "name": "A4",
                    "midi": 69,
                    "time": 29.21875,
                    "velocity": 0.6141732283464567,
                    "duration": 0.14973958333333215
                },
                {
                    "name": "A4",
                    "midi": 69,
                    "time": 29.375,
                    "velocity": 0.6141732283464567,
                    "duration": 0.14973958333333215
                },
                {
                    "name": "F5",
                    "midi": 77,
                    "time": 29.53125,
                    "velocity": 0.6141732283464567,
                    "duration": 0.14973958333333215
                },
                {
                    "name": "A4",
                    "midi": 69,
                    "time": 29.6875,
                    "velocity": 0.6141732283464567,
                    "duration": 0.14973958333333215
                },
                {
                    "name": "F5",
                    "midi": 77,
                    "time": 29.84375,
                    "velocity": 0.6141732283464567,
                    "duration": 0.14973958333333215
                },
                {
                    "name": "A#4",
                    "midi": 70,
                    "time": 30,
                    "velocity": 0.6141732283464567,
                    "duration": 0.14973958333333215
                },
                {
                    "name": "D5",
                    "midi": 74,
                    "time": 30.15625,
                    "velocity": 0.6141732283464567,
                    "duration": 0.14973958333333215
                },
                {
                    "name": "F5",
                    "midi": 77,
                    "time": 30.3125,
                    "velocity": 0.6141732283464567,
                    "duration": 0.14973958333333215
                },
                {
                    "name": "F5",
                    "midi": 77,
                    "time": 30.46875,
                    "velocity": 0.6141732283464567,
                    "duration": 0.14973958333333215
                },
                {
                    "name": "D5",
                    "midi": 74,
                    "time": 30.46875,
                    "velocity": 0.6141732283464567,
                    "duration": 0.14973958333333215
                },
                {
                    "name": "A#4",
                    "midi": 70,
                    "time": 30.46875,
                    "velocity": 0.6141732283464567,
                    "duration": 0.14973958333333215
                },
                {
                    "name": "F5",
                    "midi": 77,
                    "time": 30.625,
                    "velocity": 0.6141732283464567,
                    "duration": 0.14973958333333215
                },
                {
                    "name": "D5",
                    "midi": 74,
                    "time": 30.625,
                    "velocity": 0.6141732283464567,
                    "duration": 0.14973958333333215
                },
                {
                    "name": "A#4",
                    "midi": 70,
                    "time": 30.625,
                    "velocity": 0.6141732283464567,
                    "duration": 0.14973958333333215
                },
                {
                    "name": "F5",
                    "midi": 77,
                    "time": 30.78125,
                    "velocity": 0.6141732283464567,
                    "duration": 0.14973958333333215
                },
                {
                    "name": "D5",
                    "midi": 74,
                    "time": 30.78125,
                    "velocity": 0.6141732283464567,
                    "duration": 0.14973958333333215
                },
                {
                    "name": "A#4",
                    "midi": 70,
                    "time": 30.78125,
                    "velocity": 0.6141732283464567,
                    "duration": 0.14973958333333215
                },
                {
                    "name": "F5",
                    "midi": 77,
                    "time": 30.9375,
                    "velocity": 0.6141732283464567,
                    "duration": 0.14973958333333215
                },
                {
                    "name": "D5",
                    "midi": 74,
                    "time": 30.9375,
                    "velocity": 0.6141732283464567,
                    "duration": 0.14973958333333215
                },
                {
                    "name": "A#4",
                    "midi": 70,
                    "time": 30.9375,
                    "velocity": 0.6141732283464567,
                    "duration": 0.14973958333333215
                },
                {
                    "name": "F5",
                    "midi": 77,
                    "time": 31.09375,
                    "velocity": 0.6141732283464567,
                    "duration": 0.14973958333333215
                },
                {
                    "name": "D5",
                    "midi": 74,
                    "time": 31.09375,
                    "velocity": 0.6141732283464567,
                    "duration": 0.14973958333333215
                },
                {
                    "name": "A#4",
                    "midi": 70,
                    "time": 31.09375,
                    "velocity": 0.6141732283464567,
                    "duration": 0.14973958333333215
                },
                {
                    "name": "D5",
                    "midi": 74,
                    "time": 31.25,
                    "velocity": 0.6141732283464567,
                    "duration": 0.14973958333333215
                },
                {
                    "name": "F5",
                    "midi": 77,
                    "time": 31.40625,
                    "velocity": 0.6141732283464567,
                    "duration": 0.14973958333333215
                },
                {
                    "name": "D5",
                    "midi": 74,
                    "time": 31.5625,
                    "velocity": 0.6141732283464567,
                    "duration": 0.14973958333333215
                },
                {
                    "name": "F5",
                    "midi": 77,
                    "time": 31.71875,
                    "velocity": 0.6141732283464567,
                    "duration": 0.14973958333333215
                },
                {
                    "name": "A4",
                    "midi": 69,
                    "time": 31.875,
                    "velocity": 0.6141732283464567,
                    "duration": 0.1497395833333357
                },
                {
                    "name": "C5",
                    "midi": 72,
                    "time": 32.03125,
                    "velocity": 0.6141732283464567,
                    "duration": 0.1497395833333357
                },
                {
                    "name": "F5",
                    "midi": 77,
                    "time": 32.1875,
                    "velocity": 0.6141732283464567,
                    "duration": 0.1497395833333357
                },
                {
                    "name": "F5",
                    "midi": 77,
                    "time": 32.34375,
                    "velocity": 0.6141732283464567,
                    "duration": 0.1497395833333357
                },
                {
                    "name": "C5",
                    "midi": 72,
                    "time": 32.34375,
                    "velocity": 0.6141732283464567,
                    "duration": 0.1497395833333357
                },
                {
                    "name": "A4",
                    "midi": 69,
                    "time": 32.34375,
                    "velocity": 0.6141732283464567,
                    "duration": 0.1497395833333357
                },
                {
                    "name": "F5",
                    "midi": 77,
                    "time": 32.5,
                    "velocity": 0.6141732283464567,
                    "duration": 0.1497395833333357
                },
                {
                    "name": "C5",
                    "midi": 72,
                    "time": 32.5,
                    "velocity": 0.6141732283464567,
                    "duration": 0.1497395833333357
                },
                {
                    "name": "A4",
                    "midi": 69,
                    "time": 32.5,
                    "velocity": 0.6141732283464567,
                    "duration": 0.1497395833333357
                },
                {
                    "name": "F5",
                    "midi": 77,
                    "time": 32.65625,
                    "velocity": 0.6141732283464567,
                    "duration": 0.1497395833333357
                },
                {
                    "name": "C5",
                    "midi": 72,
                    "time": 32.65625,
                    "velocity": 0.6141732283464567,
                    "duration": 0.1497395833333357
                },
                {
                    "name": "A4",
                    "midi": 69,
                    "time": 32.65625,
                    "velocity": 0.6141732283464567,
                    "duration": 0.1497395833333357
                },
                {
                    "name": "F5",
                    "midi": 77,
                    "time": 32.8125,
                    "velocity": 0.6141732283464567,
                    "duration": 0.1497395833333357
                },
                {
                    "name": "C5",
                    "midi": 72,
                    "time": 32.8125,
                    "velocity": 0.6141732283464567,
                    "duration": 0.1497395833333357
                },
                {
                    "name": "A4",
                    "midi": 69,
                    "time": 32.8125,
                    "velocity": 0.6141732283464567,
                    "duration": 0.1497395833333357
                },
                {
                    "name": "F5",
                    "midi": 77,
                    "time": 32.96875,
                    "velocity": 0.6141732283464567,
                    "duration": 0.1497395833333357
                },
                {
                    "name": "C5",
                    "midi": 72,
                    "time": 32.96875,
                    "velocity": 0.6141732283464567,
                    "duration": 0.1497395833333357
                },
                {
                    "name": "A4",
                    "midi": 69,
                    "time": 32.96875,
                    "velocity": 0.6141732283464567,
                    "duration": 0.1497395833333357
                },
                {
                    "name": "A4",
                    "midi": 69,
                    "time": 33.125,
                    "velocity": 0.6141732283464567,
                    "duration": 0.1497395833333357
                },
                {
                    "name": "F5",
                    "midi": 77,
                    "time": 33.28125,
                    "velocity": 0.6141732283464567,
                    "duration": 0.1497395833333357
                },
                {
                    "name": "A4",
                    "midi": 69,
                    "time": 33.4375,
                    "velocity": 0.6141732283464567,
                    "duration": 0.1497395833333357
                },
                {
                    "name": "F5",
                    "midi": 77,
                    "time": 33.59375,
                    "velocity": 0.6141732283464567,
                    "duration": 0.1497395833333357
                },
                {
                    "name": "B4",
                    "midi": 71,
                    "time": 33.75,
                    "velocity": 0.6141732283464567,
                    "duration": 0.1497395833333357
                },
                {
                    "name": "D5",
                    "midi": 74,
                    "time": 33.90625,
                    "velocity": 0.6141732283464567,
                    "duration": 0.1497395833333357
                },
                {
                    "name": "G5",
                    "midi": 79,
                    "time": 34.0625,
                    "velocity": 0.6141732283464567,
                    "duration": 0.1497395833333357
                },
                {
                    "name": "G5",
                    "midi": 79,
                    "time": 34.21875,
                    "velocity": 0.6141732283464567,
                    "duration": 0.1497395833333357
                },
                {
                    "name": "D5",
                    "midi": 74,
                    "time": 34.21875,
                    "velocity": 0.6141732283464567,
                    "duration": 0.1497395833333357
                },
                {
                    "name": "B4",
                    "midi": 71,
                    "time": 34.21875,
                    "velocity": 0.6141732283464567,
                    "duration": 0.1497395833333357
                },
                {
                    "name": "G5",
                    "midi": 79,
                    "time": 34.375,
                    "velocity": 0.6141732283464567,
                    "duration": 0.1497395833333357
                },
                {
                    "name": "D5",
                    "midi": 74,
                    "time": 34.375,
                    "velocity": 0.6141732283464567,
                    "duration": 0.1497395833333357
                },
                {
                    "name": "B4",
                    "midi": 71,
                    "time": 34.375,
                    "velocity": 0.6141732283464567,
                    "duration": 0.1497395833333357
                },
                {
                    "name": "G5",
                    "midi": 79,
                    "time": 34.53125,
                    "velocity": 0.6141732283464567,
                    "duration": 0.1497395833333357
                },
                {
                    "name": "D5",
                    "midi": 74,
                    "time": 34.53125,
                    "velocity": 0.6141732283464567,
                    "duration": 0.1497395833333357
                },
                {
                    "name": "B4",
                    "midi": 71,
                    "time": 34.53125,
                    "velocity": 0.6141732283464567,
                    "duration": 0.1497395833333357
                },
                {
                    "name": "G5",
                    "midi": 79,
                    "time": 34.6875,
                    "velocity": 0.6141732283464567,
                    "duration": 0.1497395833333357
                },
                {
                    "name": "D5",
                    "midi": 74,
                    "time": 34.6875,
                    "velocity": 0.6141732283464567,
                    "duration": 0.1497395833333357
                },
                {
                    "name": "B4",
                    "midi": 71,
                    "time": 34.6875,
                    "velocity": 0.6141732283464567,
                    "duration": 0.1497395833333357
                },
                {
                    "name": "G5",
                    "midi": 79,
                    "time": 34.84375,
                    "velocity": 0.6141732283464567,
                    "duration": 0.1497395833333357
                },
                {
                    "name": "D5",
                    "midi": 74,
                    "time": 34.84375,
                    "velocity": 0.6141732283464567,
                    "duration": 0.1497395833333357
                },
                {
                    "name": "B4",
                    "midi": 71,
                    "time": 34.84375,
                    "velocity": 0.6141732283464567,
                    "duration": 0.1497395833333357
                },
                {
                    "name": "B4",
                    "midi": 71,
                    "time": 35,
                    "velocity": 0.6141732283464567,
                    "duration": 0.1497395833333357
                },
                {
                    "name": "G5",
                    "midi": 79,
                    "time": 35.15625,
                    "velocity": 0.6141732283464567,
                    "duration": 0.1497395833333357
                },
                {
                    "name": "B4",
                    "midi": 71,
                    "time": 35.3125,
                    "velocity": 0.6141732283464567,
                    "duration": 0.1497395833333357
                },
                {
                    "name": "G5",
                    "midi": 79,
                    "time": 35.46875,
                    "velocity": 0.6141732283464567,
                    "duration": 0.1497395833333357
                },
                {
                    "name": "C5",
                    "midi": 72,
                    "time": 35.625,
                    "velocity": 0.6141732283464567,
                    "duration": 0.1497395833333357
                },
                {
                    "name": "D#5",
                    "midi": 75,
                    "time": 35.78125,
                    "velocity": 0.6141732283464567,
                    "duration": 0.1497395833333357
                },
                {
                    "name": "G5",
                    "midi": 79,
                    "time": 35.9375,
                    "velocity": 0.6141732283464567,
                    "duration": 0.1497395833333357
                },
                {
                    "name": "C5",
                    "midi": 72,
                    "time": 36.09375,
                    "velocity": 0.6141732283464567,
                    "duration": 0.1497395833333357
                },
                {
                    "name": "G5",
                    "midi": 79,
                    "time": 36.09375,
                    "velocity": 0.6141732283464567,
                    "duration": 0.1497395833333357
                },
                {
                    "name": "D#5",
                    "midi": 75,
                    "time": 36.09375,
                    "velocity": 0.6141732283464567,
                    "duration": 0.1497395833333357
                },
                {
                    "name": "C5",
                    "midi": 72,
                    "time": 36.25,
                    "velocity": 0.6141732283464567,
                    "duration": 0.1497395833333357
                },
                {
                    "name": "G5",
                    "midi": 79,
                    "time": 36.25,
                    "velocity": 0.6141732283464567,
                    "duration": 0.1497395833333357
                },
                {
                    "name": "D#5",
                    "midi": 75,
                    "time": 36.25,
                    "velocity": 0.6141732283464567,
                    "duration": 0.1497395833333357
                },
                {
                    "name": "C5",
                    "midi": 72,
                    "time": 36.40625,
                    "velocity": 0.6141732283464567,
                    "duration": 0.1497395833333357
                },
                {
                    "name": "G5",
                    "midi": 79,
                    "time": 36.40625,
                    "velocity": 0.6141732283464567,
                    "duration": 0.1497395833333357
                },
                {
                    "name": "D#5",
                    "midi": 75,
                    "time": 36.40625,
                    "velocity": 0.6141732283464567,
                    "duration": 0.1497395833333357
                },
                {
                    "name": "D#5",
                    "midi": 75,
                    "time": 36.40625,
                    "velocity": 0.6141732283464567,
                    "duration": 0.1497395833333357
                },
                {
                    "name": "G5",
                    "midi": 79,
                    "time": 36.5625,
                    "velocity": 0.6141732283464567,
                    "duration": 0.1497395833333357
                },
                {
                    "name": "D#5",
                    "midi": 75,
                    "time": 36.5625,
                    "velocity": 0.6141732283464567,
                    "duration": 0.1497395833333357
                },
                {
                    "name": "C5",
                    "midi": 72,
                    "time": 36.5625,
                    "velocity": 0.6141732283464567,
                    "duration": 0.1497395833333357
                },
                {
                    "name": "C5",
                    "midi": 72,
                    "time": 36.71875,
                    "velocity": 0.6141732283464567,
                    "duration": 0.1497395833333357
                },
                {
                    "name": "G5",
                    "midi": 79,
                    "time": 36.71875,
                    "velocity": 0.6141732283464567,
                    "duration": 0.1497395833333357
                },
                {
                    "name": "D#5",
                    "midi": 75,
                    "time": 36.71875,
                    "velocity": 0.6141732283464567,
                    "duration": 0.1497395833333357
                },
                {
                    "name": "D#5",
                    "midi": 75,
                    "time": 36.875,
                    "velocity": 0.6141732283464567,
                    "duration": 0.1497395833333357
                },
                {
                    "name": "G5",
                    "midi": 79,
                    "time": 37.03125,
                    "velocity": 0.6141732283464567,
                    "duration": 0.1497395833333357
                },
                {
                    "name": "D#5",
                    "midi": 75,
                    "time": 37.1875,
                    "velocity": 0.6141732283464567,
                    "duration": 0.1497395833333357
                },
                {
                    "name": "G5",
                    "midi": 79,
                    "time": 37.34375,
                    "velocity": 0.6141732283464567,
                    "duration": 0.1497395833333357
                },
                {
                    "name": "C#5",
                    "midi": 73,
                    "time": 37.5,
                    "velocity": 0.6141732283464567,
                    "duration": 0.1497395833333357
                },
                {
                    "name": "E5",
                    "midi": 76,
                    "time": 37.65625,
                    "velocity": 0.6141732283464567,
                    "duration": 0.1497395833333357
                },
                {
                    "name": "A5",
                    "midi": 81,
                    "time": 37.8125,
                    "velocity": 0.6141732283464567,
                    "duration": 0.1497395833333357
                },
                {
                    "name": "A5",
                    "midi": 81,
                    "time": 37.96875,
                    "velocity": 0.6141732283464567,
                    "duration": 0.1497395833333357
                },
                {
                    "name": "E5",
                    "midi": 76,
                    "time": 37.96875,
                    "velocity": 0.6141732283464567,
                    "duration": 0.1497395833333357
                },
                {
                    "name": "C#5",
                    "midi": 73,
                    "time": 37.96875,
                    "velocity": 0.6141732283464567,
                    "duration": 0.1497395833333357
                },
                {
                    "name": "A5",
                    "midi": 81,
                    "time": 38.125,
                    "velocity": 0.6141732283464567,
                    "duration": 0.1497395833333357
                },
                {
                    "name": "E5",
                    "midi": 76,
                    "time": 38.125,
                    "velocity": 0.6141732283464567,
                    "duration": 0.1497395833333357
                },
                {
                    "name": "C#5",
                    "midi": 73,
                    "time": 38.125,
                    "velocity": 0.6141732283464567,
                    "duration": 0.1497395833333357
                },
                {
                    "name": "A5",
                    "midi": 81,
                    "time": 38.28125,
                    "velocity": 0.6141732283464567,
                    "duration": 0.1497395833333357
                },
                {
                    "name": "E5",
                    "midi": 76,
                    "time": 38.28125,
                    "velocity": 0.6141732283464567,
                    "duration": 0.1497395833333357
                },
                {
                    "name": "C#5",
                    "midi": 73,
                    "time": 38.28125,
                    "velocity": 0.6141732283464567,
                    "duration": 0.1497395833333357
                },
                {
                    "name": "A5",
                    "midi": 81,
                    "time": 38.4375,
                    "velocity": 0.6141732283464567,
                    "duration": 0.1497395833333357
                },
                {
                    "name": "E5",
                    "midi": 76,
                    "time": 38.4375,
                    "velocity": 0.6141732283464567,
                    "duration": 0.1497395833333357
                },
                {
                    "name": "C#5",
                    "midi": 73,
                    "time": 38.4375,
                    "velocity": 0.6141732283464567,
                    "duration": 0.1497395833333357
                },
                {
                    "name": "A5",
                    "midi": 81,
                    "time": 38.59375,
                    "velocity": 0.6141732283464567,
                    "duration": 0.1497395833333357
                },
                {
                    "name": "E5",
                    "midi": 76,
                    "time": 38.59375,
                    "velocity": 0.6141732283464567,
                    "duration": 0.1497395833333357
                },
                {
                    "name": "C#5",
                    "midi": 73,
                    "time": 38.59375,
                    "velocity": 0.6141732283464567,
                    "duration": 0.1497395833333357
                },
                {
                    "name": "C#5",
                    "midi": 73,
                    "time": 38.75,
                    "velocity": 0.6141732283464567,
                    "duration": 0.1497395833333357
                },
                {
                    "name": "A5",
                    "midi": 81,
                    "time": 38.90625,
                    "velocity": 0.6141732283464567,
                    "duration": 0.1497395833333357
                },
                {
                    "name": "C#5",
                    "midi": 73,
                    "time": 39.0625,
                    "velocity": 0.6141732283464567,
                    "duration": 0.1497395833333357
                },
                {
                    "name": "A5",
                    "midi": 81,
                    "time": 39.21875,
                    "velocity": 0.6141732283464567,
                    "duration": 0.1497395833333357
                },
                {
                    "name": "C5",
                    "midi": 72,
                    "time": 39.375,
                    "velocity": 0.6141732283464567,
                    "duration": 0.1497395833333357
                },
                {
                    "name": "D5",
                    "midi": 74,
                    "time": 39.53125,
                    "velocity": 0.6141732283464567,
                    "duration": 0.1497395833333357
                },
                {
                    "name": "A5",
                    "midi": 81,
                    "time": 39.6875,
                    "velocity": 0.6141732283464567,
                    "duration": 0.1497395833333357
                },
                {
                    "name": "A5",
                    "midi": 81,
                    "time": 39.84375,
                    "velocity": 0.6141732283464567,
                    "duration": 0.1497395833333357
                },
                {
                    "name": "D5",
                    "midi": 74,
                    "time": 39.84375,
                    "velocity": 0.6141732283464567,
                    "duration": 0.1497395833333357
                },
                {
                    "name": "C5",
                    "midi": 72,
                    "time": 39.84375,
                    "velocity": 0.6141732283464567,
                    "duration": 0.1497395833333357
                },
                {
                    "name": "A5",
                    "midi": 81,
                    "time": 40,
                    "velocity": 0.6141732283464567,
                    "duration": 0.1497395833333357
                },
                {
                    "name": "D5",
                    "midi": 74,
                    "time": 40,
                    "velocity": 0.6141732283464567,
                    "duration": 0.1497395833333357
                },
                {
                    "name": "C5",
                    "midi": 72,
                    "time": 40,
                    "velocity": 0.6141732283464567,
                    "duration": 0.1497395833333357
                },
                {
                    "name": "A5",
                    "midi": 81,
                    "time": 40.15625,
                    "velocity": 0.6141732283464567,
                    "duration": 0.1497395833333357
                },
                {
                    "name": "D5",
                    "midi": 74,
                    "time": 40.15625,
                    "velocity": 0.6141732283464567,
                    "duration": 0.1497395833333357
                },
                {
                    "name": "C5",
                    "midi": 72,
                    "time": 40.15625,
                    "velocity": 0.6141732283464567,
                    "duration": 0.1497395833333357
                },
                {
                    "name": "A5",
                    "midi": 81,
                    "time": 40.3125,
                    "velocity": 0.6141732283464567,
                    "duration": 0.1497395833333357
                },
                {
                    "name": "D5",
                    "midi": 74,
                    "time": 40.3125,
                    "velocity": 0.6141732283464567,
                    "duration": 0.1497395833333357
                },
                {
                    "name": "C5",
                    "midi": 72,
                    "time": 40.3125,
                    "velocity": 0.6141732283464567,
                    "duration": 0.1497395833333357
                },
                {
                    "name": "A5",
                    "midi": 81,
                    "time": 40.46875,
                    "velocity": 0.6141732283464567,
                    "duration": 0.1497395833333357
                },
                {
                    "name": "D5",
                    "midi": 74,
                    "time": 40.46875,
                    "velocity": 0.6141732283464567,
                    "duration": 0.1497395833333357
                },
                {
                    "name": "C5",
                    "midi": 72,
                    "time": 40.46875,
                    "velocity": 0.6141732283464567,
                    "duration": 0.1497395833333357
                },
                {
                    "name": "C5",
                    "midi": 72,
                    "time": 40.625,
                    "velocity": 0.6141732283464567,
                    "duration": 0.1497395833333357
                },
                {
                    "name": "A5",
                    "midi": 81,
                    "time": 40.78125,
                    "velocity": 0.6141732283464567,
                    "duration": 0.1497395833333357
                },
                {
                    "name": "C5",
                    "midi": 72,
                    "time": 40.9375,
                    "velocity": 0.6141732283464567,
                    "duration": 0.1497395833333357
                },
                {
                    "name": "A5",
                    "midi": 81,
                    "time": 41.09375,
                    "velocity": 0.6141732283464567,
                    "duration": 0.1497395833333357
                },
                {
                    "name": "A#4",
                    "midi": 70,
                    "time": 41.25,
                    "velocity": 0.6141732283464567,
                    "duration": 0.1497395833333357
                },
                {
                    "name": "D5",
                    "midi": 74,
                    "time": 41.40625,
                    "velocity": 0.6141732283464567,
                    "duration": 0.1497395833333357
                },
                {
                    "name": "G5",
                    "midi": 79,
                    "time": 41.5625,
                    "velocity": 0.6141732283464567,
                    "duration": 0.1497395833333357
                },
                {
                    "name": "G5",
                    "midi": 79,
                    "time": 41.71875,
                    "velocity": 0.6141732283464567,
                    "duration": 0.1497395833333357
                },
                {
                    "name": "D5",
                    "midi": 74,
                    "time": 41.71875,
                    "velocity": 0.6141732283464567,
                    "duration": 0.1497395833333357
                },
                {
                    "name": "A#4",
                    "midi": 70,
                    "time": 41.71875,
                    "velocity": 0.6141732283464567,
                    "duration": 0.1497395833333357
                },
                {
                    "name": "G5",
                    "midi": 79,
                    "time": 41.875,
                    "velocity": 0.6141732283464567,
                    "duration": 0.1497395833333357
                },
                {
                    "name": "D5",
                    "midi": 74,
                    "time": 41.875,
                    "velocity": 0.6141732283464567,
                    "duration": 0.1497395833333357
                },
                {
                    "name": "A#4",
                    "midi": 70,
                    "time": 41.875,
                    "velocity": 0.6141732283464567,
                    "duration": 0.1497395833333357
                },
                {
                    "name": "G5",
                    "midi": 79,
                    "time": 42.03125,
                    "velocity": 0.6141732283464567,
                    "duration": 0.1497395833333357
                },
                {
                    "name": "D5",
                    "midi": 74,
                    "time": 42.03125,
                    "velocity": 0.6141732283464567,
                    "duration": 0.1497395833333357
                },
                {
                    "name": "A#4",
                    "midi": 70,
                    "time": 42.03125,
                    "velocity": 0.6141732283464567,
                    "duration": 0.1497395833333357
                },
                {
                    "name": "G5",
                    "midi": 79,
                    "time": 42.1875,
                    "velocity": 0.6141732283464567,
                    "duration": 0.1497395833333357
                },
                {
                    "name": "D5",
                    "midi": 74,
                    "time": 42.1875,
                    "velocity": 0.6141732283464567,
                    "duration": 0.1497395833333357
                },
                {
                    "name": "A#4",
                    "midi": 70,
                    "time": 42.1875,
                    "velocity": 0.6141732283464567,
                    "duration": 0.1497395833333357
                },
                {
                    "name": "G5",
                    "midi": 79,
                    "time": 42.34375,
                    "velocity": 0.6141732283464567,
                    "duration": 0.1497395833333357
                },
                {
                    "name": "D5",
                    "midi": 74,
                    "time": 42.34375,
                    "velocity": 0.6141732283464567,
                    "duration": 0.1497395833333357
                },
                {
                    "name": "A#4",
                    "midi": 70,
                    "time": 42.34375,
                    "velocity": 0.6141732283464567,
                    "duration": 0.1497395833333357
                },
                {
                    "name": "A#4",
                    "midi": 70,
                    "time": 42.5,
                    "velocity": 0.6141732283464567,
                    "duration": 0.1497395833333357
                },
                {
                    "name": "G5",
                    "midi": 79,
                    "time": 42.65625,
                    "velocity": 0.6141732283464567,
                    "duration": 0.1497395833333357
                },
                {
                    "name": "A#4",
                    "midi": 70,
                    "time": 42.8125,
                    "velocity": 0.6141732283464567,
                    "duration": 0.1497395833333357
                },
                {
                    "name": "G5",
                    "midi": 79,
                    "time": 42.96875,
                    "velocity": 0.6141732283464567,
                    "duration": 0.1497395833333357
                },
                {
                    "name": "A4",
                    "midi": 69,
                    "time": 43.125,
                    "velocity": 0.6141732283464567,
                    "duration": 0.1497395833333357
                },
                {
                    "name": "C5",
                    "midi": 72,
                    "time": 43.28125,
                    "velocity": 0.6141732283464567,
                    "duration": 0.1497395833333357
                },
                {
                    "name": "G5",
                    "midi": 79,
                    "time": 43.4375,
                    "velocity": 0.6141732283464567,
                    "duration": 0.1497395833333357
                },
                {
                    "name": "C5",
                    "midi": 72,
                    "time": 43.59375,
                    "velocity": 0.6141732283464567,
                    "duration": 0.1497395833333357
                },
                {
                    "name": "A4",
                    "midi": 69,
                    "time": 43.59375,
                    "velocity": 0.6141732283464567,
                    "duration": 0.1497395833333357
                },
                {
                    "name": "G5",
                    "midi": 79,
                    "time": 43.59375,
                    "velocity": 0.6141732283464567,
                    "duration": 0.1497395833333357
                },
                {
                    "name": "A4",
                    "midi": 69,
                    "time": 43.75,
                    "velocity": 0.6141732283464567,
                    "duration": 0.1497395833333357
                },
                {
                    "name": "C5",
                    "midi": 72,
                    "time": 43.75,
                    "velocity": 0.6141732283464567,
                    "duration": 0.1497395833333357
                },
                {
                    "name": "G5",
                    "midi": 79,
                    "time": 43.75,
                    "velocity": 0.6141732283464567,
                    "duration": 0.1497395833333357
                },
                {
                    "name": "C5",
                    "midi": 72,
                    "time": 43.90625,
                    "velocity": 0.6141732283464567,
                    "duration": 0.1497395833333357
                },
                {
                    "name": "A4",
                    "midi": 69,
                    "time": 43.90625,
                    "velocity": 0.6141732283464567,
                    "duration": 0.1497395833333357
                },
                {
                    "name": "G5",
                    "midi": 79,
                    "time": 43.90625,
                    "velocity": 0.6141732283464567,
                    "duration": 0.1497395833333357
                },
                {
                    "name": "C5",
                    "midi": 72,
                    "time": 44.0625,
                    "velocity": 0.6141732283464567,
                    "duration": 0.1497395833333357
                },
                {
                    "name": "A4",
                    "midi": 69,
                    "time": 44.0625,
                    "velocity": 0.6141732283464567,
                    "duration": 0.1497395833333357
                },
                {
                    "name": "G5",
                    "midi": 79,
                    "time": 44.0625,
                    "velocity": 0.6141732283464567,
                    "duration": 0.1497395833333357
                },
                {
                    "name": "C5",
                    "midi": 72,
                    "time": 44.21875,
                    "velocity": 0.6141732283464567,
                    "duration": 0.1497395833333357
                },
                {
                    "name": "A4",
                    "midi": 69,
                    "time": 44.21875,
                    "velocity": 0.6141732283464567,
                    "duration": 0.1497395833333357
                },
                {
                    "name": "G5",
                    "midi": 79,
                    "time": 44.21875,
                    "velocity": 0.6141732283464567,
                    "duration": 0.1497395833333357
                },
                {
                    "name": "A4",
                    "midi": 69,
                    "time": 44.375,
                    "velocity": 0.6141732283464567,
                    "duration": 0.1497395833333357
                },
                {
                    "name": "G5",
                    "midi": 79,
                    "time": 44.53125,
                    "velocity": 0.6141732283464567,
                    "duration": 0.1497395833333357
                },
                {
                    "name": "A4",
                    "midi": 69,
                    "time": 44.6875,
                    "velocity": 0.6141732283464567,
                    "duration": 0.1497395833333357
                },
                {
                    "name": "G5",
                    "midi": 79,
                    "time": 44.84375,
                    "velocity": 0.6141732283464567,
                    "duration": 0.1497395833333357
                },
                {
                    "name": "A4",
                    "midi": 69,
                    "time": 45,
                    "velocity": 0.6141732283464567,
                    "duration": 0.1497395833333357
                },
                {
                    "name": "C5",
                    "midi": 72,
                    "time": 45.15625,
                    "velocity": 0.6141732283464567,
                    "duration": 0.1497395833333357
                },
                {
                    "name": "F#5",
                    "midi": 78,
                    "time": 45.3125,
                    "velocity": 0.6141732283464567,
                    "duration": 0.1497395833333357
                },
                {
                    "name": "F#5",
                    "midi": 78,
                    "time": 45.46875,
                    "velocity": 0.6141732283464567,
                    "duration": 0.1497395833333357
                },
                {
                    "name": "C5",
                    "midi": 72,
                    "time": 45.46875,
                    "velocity": 0.6141732283464567,
                    "duration": 0.1497395833333357
                },
                {
                    "name": "A4",
                    "midi": 69,
                    "time": 45.46875,
                    "velocity": 0.6141732283464567,
                    "duration": 0.1497395833333357
                },
                {
                    "name": "F#5",
                    "midi": 78,
                    "time": 45.625,
                    "velocity": 0.6141732283464567,
                    "duration": 0.1497395833333357
                },
                {
                    "name": "C5",
                    "midi": 72,
                    "time": 45.625,
                    "velocity": 0.6141732283464567,
                    "duration": 0.1497395833333357
                },
                {
                    "name": "A4",
                    "midi": 69,
                    "time": 45.625,
                    "velocity": 0.6141732283464567,
                    "duration": 0.1497395833333357
                },
                {
                    "name": "F#5",
                    "midi": 78,
                    "time": 45.78125,
                    "velocity": 0.6141732283464567,
                    "duration": 0.1497395833333357
                },
                {
                    "name": "C5",
                    "midi": 72,
                    "time": 45.78125,
                    "velocity": 0.6141732283464567,
                    "duration": 0.1497395833333357
                },
                {
                    "name": "A4",
                    "midi": 69,
                    "time": 45.78125,
                    "velocity": 0.6141732283464567,
                    "duration": 0.1497395833333357
                },
                {
                    "name": "F#5",
                    "midi": 78,
                    "time": 45.9375,
                    "velocity": 0.6141732283464567,
                    "duration": 0.1497395833333357
                },
                {
                    "name": "C5",
                    "midi": 72,
                    "time": 45.9375,
                    "velocity": 0.6141732283464567,
                    "duration": 0.1497395833333357
                },
                {
                    "name": "A4",
                    "midi": 69,
                    "time": 45.9375,
                    "velocity": 0.6141732283464567,
                    "duration": 0.1497395833333357
                },
                {
                    "name": "F#5",
                    "midi": 78,
                    "time": 46.09375,
                    "velocity": 0.6141732283464567,
                    "duration": 0.1497395833333357
                },
                {
                    "name": "C5",
                    "midi": 72,
                    "time": 46.09375,
                    "velocity": 0.6141732283464567,
                    "duration": 0.1497395833333357
                },
                {
                    "name": "A4",
                    "midi": 69,
                    "time": 46.09375,
                    "velocity": 0.6141732283464567,
                    "duration": 0.1497395833333357
                },
                {
                    "name": "A4",
                    "midi": 69,
                    "time": 46.25,
                    "velocity": 0.6141732283464567,
                    "duration": 0.1497395833333357
                },
                {
                    "name": "F#5",
                    "midi": 78,
                    "time": 46.40625,
                    "velocity": 0.6141732283464567,
                    "duration": 0.1497395833333357
                },
                {
                    "name": "A4",
                    "midi": 69,
                    "time": 46.5625,
                    "velocity": 0.6141732283464567,
                    "duration": 0.1497395833333357
                },
                {
                    "name": "F#5",
                    "midi": 78,
                    "time": 46.71875,
                    "velocity": 0.6141732283464567,
                    "duration": 0.1497395833333357
                },
                {
                    "name": "G5",
                    "midi": 79,
                    "time": 46.875,
                    "velocity": 0.6141732283464567,
                    "duration": 0.1497395833333357
                },
                {
                    "name": "D5",
                    "midi": 74,
                    "time": 47.03125,
                    "velocity": 0.6141732283464567,
                    "duration": 0.1497395833333357
                },
                {
                    "name": "A#4",
                    "midi": 70,
                    "time": 47.1875,
                    "velocity": 0.6141732283464567,
                    "duration": 0.1497395833333357
                },
                {
                    "name": "G4",
                    "midi": 67,
                    "time": 47.34375,
                    "velocity": 0.6141732283464567,
                    "duration": 0.1497395833333357
                },
                {
                    "name": "D5",
                    "midi": 74,
                    "time": 47.5,
                    "velocity": 0.6141732283464567,
                    "duration": 0.1497395833333357
                },
                {
                    "name": "A#4",
                    "midi": 70,
                    "time": 47.65625,
                    "velocity": 0.6141732283464567,
                    "duration": 0.1497395833333357
                },
                {
                    "name": "G4",
                    "midi": 67,
                    "time": 47.8125,
                    "velocity": 0.6141732283464567,
                    "duration": 0.1497395833333357
                },
                {
                    "name": "D4",
                    "midi": 62,
                    "time": 47.96875,
                    "velocity": 0.6141732283464567,
                    "duration": 0.1497395833333357
                },
                {
                    "name": "A#4",
                    "midi": 70,
                    "time": 48.125,
                    "velocity": 0.6141732283464567,
                    "duration": 0.1497395833333357
                },
                {
                    "name": "G4",
                    "midi": 67,
                    "time": 48.28125,
                    "velocity": 0.6141732283464567,
                    "duration": 0.1497395833333357
                },
                {
                    "name": "D4",
                    "midi": 62,
                    "time": 48.4375,
                    "velocity": 0.6141732283464567,
                    "duration": 0.1497395833333357
                },
                {
                    "name": "A#3",
                    "midi": 58,
                    "time": 48.59375,
                    "velocity": 0.6141732283464567,
                    "duration": 0.1497395833333357
                },
                {
                    "name": "G3",
                    "midi": 55,
                    "time": 48.75,
                    "velocity": 0.6141732283464567,
                    "duration": 0.3059895833333357
                },
                {
                    "name": "C5",
                    "midi": 72,
                    "time": 65.625,
                    "velocity": 0.6141732283464567,
                    "duration": 0.1497395833333286
                },
                {
                    "name": "C4",
                    "midi": 60,
                    "time": 65.625,
                    "velocity": 0.6141732283464567,
                    "duration": 0.3059895833333286
                },
                {
                    "name": "D#5",
                    "midi": 75,
                    "time": 65.78125,
                    "velocity": 0.6141732283464567,
                    "duration": 0.1497395833333286
                },
                {
                    "name": "C5",
                    "midi": 72,
                    "time": 65.9375,
                    "velocity": 0.6141732283464567,
                    "duration": 0.1497395833333286
                },
                {
                    "name": "C4",
                    "midi": 60,
                    "time": 65.9375,
                    "velocity": 0.6141732283464567,
                    "duration": 0.1497395833333286
                },
                {
                    "name": "D#5",
                    "midi": 75,
                    "time": 66.09375,
                    "velocity": 0.6141732283464567,
                    "duration": 0.1497395833333286
                },
                {
                    "name": "D4",
                    "midi": 62,
                    "time": 66.09375,
                    "velocity": 0.6141732283464567,
                    "duration": 0.1497395833333286
                },
                {
                    "name": "D#4",
                    "midi": 63,
                    "time": 66.25,
                    "velocity": 0.6141732283464567,
                    "duration": 0.3059895833333286
                },
                {
                    "name": "G4",
                    "midi": 67,
                    "time": 66.25,
                    "velocity": 0.6141732283464567,
                    "duration": 0.1497395833333286
                },
                {
                    "name": "D#5",
                    "midi": 75,
                    "time": 66.40625,
                    "velocity": 0.6141732283464567,
                    "duration": 0.1497395833333286
                },
                {
                    "name": "G4",
                    "midi": 67,
                    "time": 66.5625,
                    "velocity": 0.6141732283464567,
                    "duration": 0.3059895833333286
                },
                {
                    "name": "C5",
                    "midi": 72,
                    "time": 66.5625,
                    "velocity": 0.6141732283464567,
                    "duration": 0.1497395833333286
                },
                {
                    "name": "D#5",
                    "midi": 75,
                    "time": 66.71875,
                    "velocity": 0.6141732283464567,
                    "duration": 0.1497395833333286
                },
                {
                    "name": "D#4",
                    "midi": 63,
                    "time": 66.875,
                    "velocity": 0.6141732283464567,
                    "duration": 0.3059895833333286
                },
                {
                    "name": "G4",
                    "midi": 67,
                    "time": 66.875,
                    "velocity": 0.6141732283464567,
                    "duration": 0.1497395833333286
                },
                {
                    "name": "D#5",
                    "midi": 75,
                    "time": 67.03125,
                    "velocity": 0.6141732283464567,
                    "duration": 0.1497395833333286
                },
                {
                    "name": "C4",
                    "midi": 60,
                    "time": 67.1875,
                    "velocity": 0.6141732283464567,
                    "duration": 0.3059895833333286
                },
                {
                    "name": "G4",
                    "midi": 67,
                    "time": 67.1875,
                    "velocity": 0.6141732283464567,
                    "duration": 0.1497395833333286
                },
                {
                    "name": "D#5",
                    "midi": 75,
                    "time": 67.34375,
                    "velocity": 0.6141732283464567,
                    "duration": 0.1497395833333286
                },
                {
                    "name": "G4",
                    "midi": 67,
                    "time": 67.5,
                    "velocity": 0.6141732283464567,
                    "duration": 0.1497395833333286
                },
                {
                    "name": "D5",
                    "midi": 74,
                    "time": 67.65625,
                    "velocity": 0.6141732283464567,
                    "duration": 0.1497395833333286
                },
                {
                    "name": "B4",
                    "midi": 71,
                    "time": 67.8125,
                    "velocity": 0.6141732283464567,
                    "duration": 0.1497395833333286
                },
                {
                    "name": "D5",
                    "midi": 74,
                    "time": 67.96875,
                    "velocity": 0.6141732283464567,
                    "duration": 0.1497395833333286
                },
                {
                    "name": "G4",
                    "midi": 67,
                    "time": 68.125,
                    "velocity": 0.6141732283464567,
                    "duration": 0.1497395833333286
                },
                {
                    "name": "D5",
                    "midi": 74,
                    "time": 68.28125,
                    "velocity": 0.6141732283464567,
                    "duration": 0.1497395833333286
                },
                {
                    "name": "B4",
                    "midi": 71,
                    "time": 68.4375,
                    "velocity": 0.6141732283464567,
                    "duration": 0.1497395833333286
                },
                {
                    "name": "D5",
                    "midi": 74,
                    "time": 68.59375,
                    "velocity": 0.6141732283464567,
                    "duration": 0.1497395833333286
                },
                {
                    "name": "G4",
                    "midi": 67,
                    "time": 68.75,
                    "velocity": 0.6141732283464567,
                    "duration": 0.1497395833333286
                },
                {
                    "name": "D5",
                    "midi": 74,
                    "time": 68.90625,
                    "velocity": 0.6141732283464567,
                    "duration": 0.1497395833333286
                },
                {
                    "name": "G4",
                    "midi": 67,
                    "time": 69.0625,
                    "velocity": 0.6141732283464567,
                    "duration": 0.1497395833333286
                },
                {
                    "name": "D5",
                    "midi": 74,
                    "time": 69.21875,
                    "velocity": 0.6141732283464567,
                    "duration": 0.1497395833333286
                },
                {
                    "name": "G4",
                    "midi": 67,
                    "time": 69.375,
                    "velocity": 0.6141732283464567,
                    "duration": 0.1497395833333286
                },
                {
                    "name": "D#5",
                    "midi": 75,
                    "time": 69.53125,
                    "velocity": 0.6141732283464567,
                    "duration": 0.1497395833333286
                },
                {
                    "name": "C5",
                    "midi": 72,
                    "time": 69.6875,
                    "velocity": 0.6141732283464567,
                    "duration": 0.1497395833333286
                },
                {
                    "name": "D#5",
                    "midi": 75,
                    "time": 69.84375,
                    "velocity": 0.6141732283464567,
                    "duration": 0.1497395833333286
                },
                {
                    "name": "G4",
                    "midi": 67,
                    "time": 70,
                    "velocity": 0.6141732283464567,
                    "duration": 0.1497395833333286
                },
                {
                    "name": "D#4",
                    "midi": 63,
                    "time": 70,
                    "velocity": 0.6141732283464567,
                    "duration": 0.3059895833333286
                },
                {
                    "name": "D#5",
                    "midi": 75,
                    "time": 70.15625,
                    "velocity": 0.6141732283464567,
                    "duration": 0.1497395833333286
                },
                {
                    "name": "C5",
                    "midi": 72,
                    "time": 70.3125,
                    "velocity": 0.6141732283464567,
                    "duration": 0.1497395833333286
                },
                {
                    "name": "G4",
                    "midi": 67,
                    "time": 70.3125,
                    "velocity": 0.6141732283464567,
                    "duration": 0.3059895833333286
                },
                {
                    "name": "D#5",
                    "midi": 75,
                    "time": 70.46875,
                    "velocity": 0.6141732283464567,
                    "duration": 0.1497395833333286
                },
                {
                    "name": "G4",
                    "midi": 67,
                    "time": 70.625,
                    "velocity": 0.6141732283464567,
                    "duration": 0.1497395833333286
                },
                {
                    "name": "D#4",
                    "midi": 63,
                    "time": 70.625,
                    "velocity": 0.6141732283464567,
                    "duration": 0.3059895833333286
                },
                {
                    "name": "D#5",
                    "midi": 75,
                    "time": 70.78125,
                    "velocity": 0.6141732283464567,
                    "duration": 0.1497395833333286
                },
                {
                    "name": "G4",
                    "midi": 67,
                    "time": 70.9375,
                    "velocity": 0.6141732283464567,
                    "duration": 0.1497395833333286
                },
                {
                    "name": "C4",
                    "midi": 60,
                    "time": 70.9375,
                    "velocity": 0.6141732283464567,
                    "duration": 0.3059895833333286
                },
                {
                    "name": "D#5",
                    "midi": 75,
                    "time": 71.09375,
                    "velocity": 0.6141732283464567,
                    "duration": 0.1497395833333286
                },
                {
                    "name": "F4",
                    "midi": 65,
                    "time": 71.25,
                    "velocity": 0.6141732283464567,
                    "duration": 0.1497395833333286
                },
                {
                    "name": "D#5",
                    "midi": 75,
                    "time": 71.40625,
                    "velocity": 0.6141732283464567,
                    "duration": 0.1497395833333286
                },
                {
                    "name": "C5",
                    "midi": 72,
                    "time": 71.5625,
                    "velocity": 0.6141732283464567,
                    "duration": 0.1497395833333286
                },
                {
                    "name": "D#5",
                    "midi": 75,
                    "time": 71.71875,
                    "velocity": 0.6141732283464567,
                    "duration": 0.1497395833333286
                },
                {
                    "name": "F4",
                    "midi": 65,
                    "time": 71.875,
                    "velocity": 0.6141732283464567,
                    "duration": 0.1497395833333286
                },
                {
                    "name": "D#5",
                    "midi": 75,
                    "time": 72.03125,
                    "velocity": 0.6141732283464567,
                    "duration": 0.1497395833333286
                },
                {
                    "name": "C5",
                    "midi": 72,
                    "time": 72.1875,
                    "velocity": 0.6141732283464567,
                    "duration": 0.1497395833333286
                },
                {
                    "name": "D#5",
                    "midi": 75,
                    "time": 72.34375,
                    "velocity": 0.6141732283464567,
                    "duration": 0.1497395833333286
                },
                {
                    "name": "F4",
                    "midi": 65,
                    "time": 72.5,
                    "velocity": 0.6141732283464567,
                    "duration": 0.1497395833333286
                },
                {
                    "name": "D#5",
                    "midi": 75,
                    "time": 72.65625,
                    "velocity": 0.6141732283464567,
                    "duration": 0.1497395833333286
                },
                {
                    "name": "F4",
                    "midi": 65,
                    "time": 72.8125,
                    "velocity": 0.6141732283464567,
                    "duration": 0.1497395833333286
                },
                {
                    "name": "D#5",
                    "midi": 75,
                    "time": 72.96875,
                    "velocity": 0.6141732283464567,
                    "duration": 0.1497395833333286
                },
                {
                    "name": "F4",
                    "midi": 65,
                    "time": 73.125,
                    "velocity": 0.6141732283464567,
                    "duration": 0.1497395833333286
                },
                {
                    "name": "C#5",
                    "midi": 73,
                    "time": 73.28125,
                    "velocity": 0.6141732283464567,
                    "duration": 0.1497395833333286
                },
                {
                    "name": "A#4",
                    "midi": 70,
                    "time": 73.4375,
                    "velocity": 0.6141732283464567,
                    "duration": 0.1497395833333286
                },
                {
                    "name": "C#5",
                    "midi": 73,
                    "time": 73.59375,
                    "velocity": 0.6141732283464567,
                    "duration": 0.1497395833333286
                },
                {
                    "name": "F4",
                    "midi": 65,
                    "time": 73.75,
                    "velocity": 0.6141732283464567,
                    "duration": 0.1497395833333286
                },
                {
                    "name": "C#5",
                    "midi": 73,
                    "time": 73.90625,
                    "velocity": 0.6141732283464567,
                    "duration": 0.1497395833333286
                },
                {
                    "name": "A#4",
                    "midi": 70,
                    "time": 74.0625,
                    "velocity": 0.6141732283464567,
                    "duration": 0.1497395833333286
                },
                {
                    "name": "C#5",
                    "midi": 73,
                    "time": 74.21875,
                    "velocity": 0.6141732283464567,
                    "duration": 0.1497395833333286
                },
                {
                    "name": "F4",
                    "midi": 65,
                    "time": 74.375,
                    "velocity": 0.6141732283464567,
                    "duration": 0.1497395833333286
                },
                {
                    "name": "C#5",
                    "midi": 73,
                    "time": 74.53125,
                    "velocity": 0.6141732283464567,
                    "duration": 0.1497395833333286
                },
                {
                    "name": "F4",
                    "midi": 65,
                    "time": 74.6875,
                    "velocity": 0.6141732283464567,
                    "duration": 0.1497395833333286
                },
                {
                    "name": "C#5",
                    "midi": 73,
                    "time": 74.84375,
                    "velocity": 0.6141732283464567,
                    "duration": 0.1497395833333286
                },
                {
                    "name": "F4",
                    "midi": 65,
                    "time": 75,
                    "velocity": 0.6141732283464567,
                    "duration": 0.1497395833333286
                },
                {
                    "name": "C#5",
                    "midi": 73,
                    "time": 75.15625,
                    "velocity": 0.6141732283464567,
                    "duration": 0.1497395833333286
                },
                {
                    "name": "A#4",
                    "midi": 70,
                    "time": 75.3125,
                    "velocity": 0.6141732283464567,
                    "duration": 0.1497395833333286
                },
                {
                    "name": "C#5",
                    "midi": 73,
                    "time": 75.46875,
                    "velocity": 0.6141732283464567,
                    "duration": 0.1497395833333286
                },
                {
                    "name": "F4",
                    "midi": 65,
                    "time": 75.625,
                    "velocity": 0.6141732283464567,
                    "duration": 0.1497395833333286
                },
                {
                    "name": "C#5",
                    "midi": 73,
                    "time": 75.78125,
                    "velocity": 0.6141732283464567,
                    "duration": 0.1497395833333286
                },
                {
                    "name": "A#4",
                    "midi": 70,
                    "time": 75.9375,
                    "velocity": 0.6141732283464567,
                    "duration": 0.1497395833333286
                },
                {
                    "name": "C#5",
                    "midi": 73,
                    "time": 76.09375,
                    "velocity": 0.6141732283464567,
                    "duration": 0.1497395833333286
                },
                {
                    "name": "F4",
                    "midi": 65,
                    "time": 76.25,
                    "velocity": 0.6141732283464567,
                    "duration": 0.1497395833333286
                },
                {
                    "name": "C#5",
                    "midi": 73,
                    "time": 76.40625,
                    "velocity": 0.6141732283464567,
                    "duration": 0.1497395833333286
                },
                {
                    "name": "F4",
                    "midi": 65,
                    "time": 76.5625,
                    "velocity": 0.6141732283464567,
                    "duration": 0.1497395833333286
                },
                {
                    "name": "C#5",
                    "midi": 73,
                    "time": 76.71875,
                    "velocity": 0.6141732283464567,
                    "duration": 0.1497395833333286
                },
                {
                    "name": "D#4",
                    "midi": 63,
                    "time": 76.875,
                    "velocity": 0.6141732283464567,
                    "duration": 0.1497395833333286
                },
                {
                    "name": "C5",
                    "midi": 72,
                    "time": 77.03125,
                    "velocity": 0.6141732283464567,
                    "duration": 0.1497395833333286
                },
                {
                    "name": "G#4",
                    "midi": 68,
                    "time": 77.1875,
                    "velocity": 0.6141732283464567,
                    "duration": 0.1497395833333286
                },
                {
                    "name": "C5",
                    "midi": 72,
                    "time": 77.34375,
                    "velocity": 0.6141732283464567,
                    "duration": 0.1497395833333286
                },
                {
                    "name": "D#4",
                    "midi": 63,
                    "time": 77.5,
                    "velocity": 0.6141732283464567,
                    "duration": 0.1497395833333286
                },
                {
                    "name": "C5",
                    "midi": 72,
                    "time": 77.65625,
                    "velocity": 0.6141732283464567,
                    "duration": 0.1497395833333286
                },
                {
                    "name": "G#4",
                    "midi": 68,
                    "time": 77.8125,
                    "velocity": 0.6141732283464567,
                    "duration": 0.1497395833333286
                },
                {
                    "name": "C5",
                    "midi": 72,
                    "time": 77.96875,
                    "velocity": 0.6141732283464567,
                    "duration": 0.1497395833333286
                },
                {
                    "name": "D#4",
                    "midi": 63,
                    "time": 78.125,
                    "velocity": 0.6141732283464567,
                    "duration": 0.1497395833333286
                },
                {
                    "name": "C5",
                    "midi": 72,
                    "time": 78.28125,
                    "velocity": 0.6141732283464567,
                    "duration": 0.1497395833333286
                },
                {
                    "name": "D#4",
                    "midi": 63,
                    "time": 78.4375,
                    "velocity": 0.6141732283464567,
                    "duration": 0.1497395833333286
                },
                {
                    "name": "C5",
                    "midi": 72,
                    "time": 78.59375,
                    "velocity": 0.6141732283464567,
                    "duration": 0.1497395833333286
                },
                {
                    "name": "D4",
                    "midi": 62,
                    "time": 78.75,
                    "velocity": 0.6141732283464567,
                    "duration": 0.1497395833333286
                },
                {
                    "name": "C5",
                    "midi": 72,
                    "time": 78.90625,
                    "velocity": 0.6141732283464567,
                    "duration": 0.1497395833333286
                },
                {
                    "name": "A4",
                    "midi": 69,
                    "time": 79.0625,
                    "velocity": 0.6141732283464567,
                    "duration": 0.1497395833333286
                },
                {
                    "name": "C5",
                    "midi": 72,
                    "time": 79.21875,
                    "velocity": 0.6141732283464567,
                    "duration": 0.1497395833333286
                },
                {
                    "name": "D4",
                    "midi": 62,
                    "time": 79.375,
                    "velocity": 0.6141732283464567,
                    "duration": 0.1497395833333286
                },
                {
                    "name": "C5",
                    "midi": 72,
                    "time": 79.53125,
                    "velocity": 0.6141732283464567,
                    "duration": 0.1497395833333286
                },
                {
                    "name": "A4",
                    "midi": 69,
                    "time": 79.6875,
                    "velocity": 0.6141732283464567,
                    "duration": 0.1497395833333286
                },
                {
                    "name": "C5",
                    "midi": 72,
                    "time": 79.84375,
                    "velocity": 0.6141732283464567,
                    "duration": 0.1497395833333286
                },
                {
                    "name": "D4",
                    "midi": 62,
                    "time": 80,
                    "velocity": 0.6141732283464567,
                    "duration": 0.1497395833333286
                },
                {
                    "name": "C5",
                    "midi": 72,
                    "time": 80.15625,
                    "velocity": 0.6141732283464567,
                    "duration": 0.1497395833333286
                },
                {
                    "name": "D4",
                    "midi": 62,
                    "time": 80.3125,
                    "velocity": 0.6141732283464567,
                    "duration": 0.1497395833333286
                },
                {
                    "name": "C5",
                    "midi": 72,
                    "time": 80.46875,
                    "velocity": 0.6141732283464567,
                    "duration": 0.1497395833333286
                },
                {
                    "name": "D#4",
                    "midi": 63,
                    "time": 80.625,
                    "velocity": 0.6141732283464567,
                    "duration": 0.1497395833333286
                },
                {
                    "name": "C5",
                    "midi": 72,
                    "time": 80.78125,
                    "velocity": 0.6141732283464567,
                    "duration": 0.1497395833333286
                },
                {
                    "name": "G4",
                    "midi": 67,
                    "time": 80.9375,
                    "velocity": 0.6141732283464567,
                    "duration": 0.1497395833333286
                },
                {
                    "name": "C5",
                    "midi": 72,
                    "time": 81.09375,
                    "velocity": 0.6141732283464567,
                    "duration": 0.1497395833333286
                },
                {
                    "name": "D#4",
                    "midi": 63,
                    "time": 81.25,
                    "velocity": 0.6141732283464567,
                    "duration": 0.1497395833333286
                },
                {
                    "name": "C5",
                    "midi": 72,
                    "time": 81.40625,
                    "velocity": 0.6141732283464567,
                    "duration": 0.1497395833333286
                },
                {
                    "name": "G4",
                    "midi": 67,
                    "time": 81.5625,
                    "velocity": 0.6141732283464567,
                    "duration": 0.1497395833333286
                },
                {
                    "name": "C5",
                    "midi": 72,
                    "time": 81.71875,
                    "velocity": 0.6141732283464567,
                    "duration": 0.1497395833333286
                },
                {
                    "name": "D#4",
                    "midi": 63,
                    "time": 81.875,
                    "velocity": 0.6141732283464567,
                    "duration": 0.1497395833333286
                },
                {
                    "name": "C5",
                    "midi": 72,
                    "time": 82.03125,
                    "velocity": 0.6141732283464567,
                    "duration": 0.1497395833333286
                },
                {
                    "name": "D#4",
                    "midi": 63,
                    "time": 82.1875,
                    "velocity": 0.6141732283464567,
                    "duration": 0.1497395833333286
                },
                {
                    "name": "C5",
                    "midi": 72,
                    "time": 82.34375,
                    "velocity": 0.6141732283464567,
                    "duration": 0.1497395833333286
                },
                {
                    "name": "D4",
                    "midi": 62,
                    "time": 82.5,
                    "velocity": 0.6141732283464567,
                    "duration": 0.1497395833333286
                },
                {
                    "name": "A#4",
                    "midi": 70,
                    "time": 82.65625,
                    "velocity": 0.6141732283464567,
                    "duration": 0.1497395833333286
                },
                {
                    "name": "G4",
                    "midi": 67,
                    "time": 82.8125,
                    "velocity": 0.6141732283464567,
                    "duration": 0.1497395833333286
                },
                {
                    "name": "A#4",
                    "midi": 70,
                    "time": 82.96875,
                    "velocity": 0.6141732283464567,
                    "duration": 0.1497395833333286
                },
                {
                    "name": "D4",
                    "midi": 62,
                    "time": 83.125,
                    "velocity": 0.6141732283464567,
                    "duration": 0.1497395833333286
                },
                {
                    "name": "A#4",
                    "midi": 70,
                    "time": 83.28125,
                    "velocity": 0.6141732283464567,
                    "duration": 0.1497395833333286
                },
                {
                    "name": "G4",
                    "midi": 67,
                    "time": 83.4375,
                    "velocity": 0.6141732283464567,
                    "duration": 0.1497395833333286
                },
                {
                    "name": "A#4",
                    "midi": 70,
                    "time": 83.59375,
                    "velocity": 0.6141732283464567,
                    "duration": 0.1497395833333286
                },
                {
                    "name": "D4",
                    "midi": 62,
                    "time": 83.75,
                    "velocity": 0.6141732283464567,
                    "duration": 0.1497395833333286
                },
                {
                    "name": "A#4",
                    "midi": 70,
                    "time": 83.90625,
                    "velocity": 0.6141732283464567,
                    "duration": 0.1497395833333286
                },
                {
                    "name": "D4",
                    "midi": 62,
                    "time": 84.0625,
                    "velocity": 0.6141732283464567,
                    "duration": 0.1497395833333286
                },
                {
                    "name": "A#4",
                    "midi": 70,
                    "time": 84.21875,
                    "velocity": 0.6141732283464567,
                    "duration": 0.1497395833333286
                },
                {
                    "name": "G4",
                    "midi": 67,
                    "time": 84.375,
                    "velocity": 0.6141732283464567,
                    "duration": 0.1497395833333286
                },
                {
                    "name": "E5",
                    "midi": 76,
                    "time": 84.53125,
                    "velocity": 0.6141732283464567,
                    "duration": 0.1497395833333286
                },
                {
                    "name": "A#4",
                    "midi": 70,
                    "time": 84.6875,
                    "velocity": 0.6141732283464567,
                    "duration": 0.1497395833333286
                },
                {
                    "name": "E5",
                    "midi": 76,
                    "time": 84.84375,
                    "velocity": 0.6141732283464567,
                    "duration": 0.1497395833333286
                },
                {
                    "name": "G4",
                    "midi": 67,
                    "time": 85,
                    "velocity": 0.6141732283464567,
                    "duration": 0.1497395833333286
                },
                {
                    "name": "E5",
                    "midi": 76,
                    "time": 85.15625,
                    "velocity": 0.6141732283464567,
                    "duration": 0.1497395833333286
                },
                {
                    "name": "A#4",
                    "midi": 70,
                    "time": 85.3125,
                    "velocity": 0.6141732283464567,
                    "duration": 0.1497395833333286
                },
                {
                    "name": "E5",
                    "midi": 76,
                    "time": 85.46875,
                    "velocity": 0.6141732283464567,
                    "duration": 0.1497395833333286
                },
                {
                    "name": "G4",
                    "midi": 67,
                    "time": 85.625,
                    "velocity": 0.6141732283464567,
                    "duration": 0.1497395833333286
                },
                {
                    "name": "E5",
                    "midi": 76,
                    "time": 85.78125,
                    "velocity": 0.6141732283464567,
                    "duration": 0.1497395833333286
                },
                {
                    "name": "G4",
                    "midi": 67,
                    "time": 85.9375,
                    "velocity": 0.6141732283464567,
                    "duration": 0.1497395833333286
                },
                {
                    "name": "E5",
                    "midi": 76,
                    "time": 86.09375,
                    "velocity": 0.6141732283464567,
                    "duration": 0.1497395833333286
                },
                {
                    "name": "G4",
                    "midi": 67,
                    "time": 86.25,
                    "velocity": 0.6141732283464567,
                    "duration": 0.1497395833333286
                },
                {
                    "name": "E5",
                    "midi": 76,
                    "time": 86.40625,
                    "velocity": 0.6141732283464567,
                    "duration": 0.1497395833333286
                },
                {
                    "name": "A4",
                    "midi": 69,
                    "time": 86.5625,
                    "velocity": 0.6141732283464567,
                    "duration": 0.1497395833333286
                },
                {
                    "name": "E5",
                    "midi": 76,
                    "time": 86.71875,
                    "velocity": 0.6141732283464567,
                    "duration": 0.1497395833333286
                },
                {
                    "name": "G4",
                    "midi": 67,
                    "time": 86.875,
                    "velocity": 0.6141732283464567,
                    "duration": 0.1497395833333286
                },
                {
                    "name": "E5",
                    "midi": 76,
                    "time": 87.03125,
                    "velocity": 0.6141732283464567,
                    "duration": 0.1497395833333286
                },
                {
                    "name": "A4",
                    "midi": 69,
                    "time": 87.1875,
                    "velocity": 0.6141732283464567,
                    "duration": 0.1497395833333286
                },
                {
                    "name": "E5",
                    "midi": 76,
                    "time": 87.34375,
                    "velocity": 0.6141732283464567,
                    "duration": 0.1497395833333286
                },
                {
                    "name": "G4",
                    "midi": 67,
                    "time": 87.5,
                    "velocity": 0.6141732283464567,
                    "duration": 0.1497395833333286
                },
                {
                    "name": "E5",
                    "midi": 76,
                    "time": 87.65625,
                    "velocity": 0.6141732283464567,
                    "duration": 0.1497395833333286
                },
                {
                    "name": "G4",
                    "midi": 67,
                    "time": 87.8125,
                    "velocity": 0.6141732283464567,
                    "duration": 0.1497395833333286
                },
                {
                    "name": "E5",
                    "midi": 76,
                    "time": 87.96875,
                    "velocity": 0.6141732283464567,
                    "duration": 0.1497395833333286
                },
                {
                    "name": "F4",
                    "midi": 65,
                    "time": 88.125,
                    "velocity": 0.6141732283464567,
                    "duration": 0.1497395833333286
                },
                {
                    "name": "F5",
                    "midi": 77,
                    "time": 88.28125,
                    "velocity": 0.6141732283464567,
                    "duration": 0.1497395833333286
                },
                {
                    "name": "D5",
                    "midi": 74,
                    "time": 88.4375,
                    "velocity": 0.6141732283464567,
                    "duration": 0.1497395833333286
                },
                {
                    "name": "F5",
                    "midi": 77,
                    "time": 88.59375,
                    "velocity": 0.6141732283464567,
                    "duration": 0.1497395833333286
                },
                {
                    "name": "A4",
                    "midi": 69,
                    "time": 88.75,
                    "velocity": 0.6141732283464567,
                    "duration": 0.1497395833333286
                },
                {
                    "name": "F5",
                    "midi": 77,
                    "time": 88.90625,
                    "velocity": 0.6141732283464567,
                    "duration": 0.1497395833333286
                },
                {
                    "name": "D5",
                    "midi": 74,
                    "time": 89.0625,
                    "velocity": 0.6141732283464567,
                    "duration": 0.1497395833333286
                },
                {
                    "name": "F5",
                    "midi": 77,
                    "time": 89.21875,
                    "velocity": 0.6141732283464567,
                    "duration": 0.1497395833333286
                },
                {
                    "name": "D5",
                    "midi": 74,
                    "time": 89.375,
                    "velocity": 0.6141732283464567,
                    "duration": 0.1497395833333286
                },
                {
                    "name": "F5",
                    "midi": 77,
                    "time": 89.53125,
                    "velocity": 0.6141732283464567,
                    "duration": 0.1497395833333286
                },
                {
                    "name": "E5",
                    "midi": 76,
                    "time": 89.6875,
                    "velocity": 0.6141732283464567,
                    "duration": 0.1497395833333286
                },
                {
                    "name": "F5",
                    "midi": 77,
                    "time": 89.84375,
                    "velocity": 0.6141732283464567,
                    "duration": 0.1497395833333286
                },
                {
                    "name": "D5",
                    "midi": 74,
                    "time": 90,
                    "velocity": 0.6141732283464567,
                    "duration": 0.1497395833333286
                },
                {
                    "name": "G5",
                    "midi": 79,
                    "time": 90.15625,
                    "velocity": 0.6141732283464567,
                    "duration": 0.1497395833333286
                },
                {
                    "name": "D#5",
                    "midi": 75,
                    "time": 90.3125,
                    "velocity": 0.6141732283464567,
                    "duration": 0.1497395833333286
                },
                {
                    "name": "G5",
                    "midi": 79,
                    "time": 90.46875,
                    "velocity": 0.6141732283464567,
                    "duration": 0.1497395833333286
                },
                {
                    "name": "D5",
                    "midi": 74,
                    "time": 90.625,
                    "velocity": 0.6141732283464567,
                    "duration": 0.1497395833333286
                },
                {
                    "name": "G5",
                    "midi": 79,
                    "time": 90.78125,
                    "velocity": 0.6141732283464567,
                    "duration": 0.1497395833333286
                },
                {
                    "name": "D#5",
                    "midi": 75,
                    "time": 90.9375,
                    "velocity": 0.6141732283464567,
                    "duration": 0.1497395833333286
                },
                {
                    "name": "G5",
                    "midi": 79,
                    "time": 91.09375,
                    "velocity": 0.6141732283464567,
                    "duration": 0.1497395833333286
                },
                {
                    "name": "D5",
                    "midi": 74,
                    "time": 91.25,
                    "velocity": 0.6141732283464567,
                    "duration": 0.1497395833333286
                },
                {
                    "name": "G5",
                    "midi": 79,
                    "time": 91.40625,
                    "velocity": 0.6141732283464567,
                    "duration": 0.1497395833333286
                },
                {
                    "name": "D5",
                    "midi": 74,
                    "time": 91.5625,
                    "velocity": 0.6141732283464567,
                    "duration": 0.1497395833333286
                },
                {
                    "name": "G5",
                    "midi": 79,
                    "time": 91.71875,
                    "velocity": 0.6141732283464567,
                    "duration": 0.1497395833333286
                },
                {
                    "name": "C5",
                    "midi": 72,
                    "time": 91.875,
                    "velocity": 0.6141732283464567,
                    "duration": 0.1497395833333286
                },
                {
                    "name": "G5",
                    "midi": 79,
                    "time": 92.03125,
                    "velocity": 0.6141732283464567,
                    "duration": 0.1497395833333286
                },
                {
                    "name": "D#5",
                    "midi": 75,
                    "time": 92.1875,
                    "velocity": 0.6141732283464567,
                    "duration": 0.1497395833333286
                },
                {
                    "name": "G5",
                    "midi": 79,
                    "time": 92.34375,
                    "velocity": 0.6141732283464567,
                    "duration": 0.1497395833333286
                },
                {
                    "name": "C5",
                    "midi": 72,
                    "time": 92.5,
                    "velocity": 0.6141732283464567,
                    "duration": 0.1497395833333286
                },
                {
                    "name": "G5",
                    "midi": 79,
                    "time": 92.65625,
                    "velocity": 0.6141732283464567,
                    "duration": 0.1497395833333286
                },
                {
                    "name": "D#5",
                    "midi": 75,
                    "time": 92.8125,
                    "velocity": 0.6141732283464567,
                    "duration": 0.1497395833333286
                },
                {
                    "name": "G5",
                    "midi": 79,
                    "time": 92.96875,
                    "velocity": 0.6141732283464567,
                    "duration": 0.1497395833333286
                },
                {
                    "name": "C5",
                    "midi": 72,
                    "time": 93.125,
                    "velocity": 0.6141732283464567,
                    "duration": 0.1497395833333286
                },
                {
                    "name": "G5",
                    "midi": 79,
                    "time": 93.28125,
                    "velocity": 0.6141732283464567,
                    "duration": 0.1497395833333286
                },
                {
                    "name": "C5",
                    "midi": 72,
                    "time": 93.4375,
                    "velocity": 0.6141732283464567,
                    "duration": 0.1497395833333286
                },
                {
                    "name": "G5",
                    "midi": 79,
                    "time": 93.59375,
                    "velocity": 0.6141732283464567,
                    "duration": 0.1497395833333286
                },
                {
                    "name": "C5",
                    "midi": 72,
                    "time": 93.75,
                    "velocity": 0.6141732283464567,
                    "duration": 0.1497395833333286
                },
                {
                    "name": "F#5",
                    "midi": 78,
                    "time": 93.90625,
                    "velocity": 0.6141732283464567,
                    "duration": 0.1497395833333286
                },
                {
                    "name": "D5",
                    "midi": 74,
                    "time": 94.0625,
                    "velocity": 0.6141732283464567,
                    "duration": 0.1497395833333286
                },
                {
                    "name": "F#5",
                    "midi": 78,
                    "time": 94.21875,
                    "velocity": 0.6141732283464567,
                    "duration": 0.1497395833333286
                },
                {
                    "name": "C5",
                    "midi": 72,
                    "time": 94.375,
                    "velocity": 0.6141732283464567,
                    "duration": 0.1497395833333286
                },
                {
                    "name": "F#5",
                    "midi": 78,
                    "time": 94.53125,
                    "velocity": 0.6141732283464567,
                    "duration": 0.1497395833333286
                },
                {
                    "name": "D5",
                    "midi": 74,
                    "time": 94.6875,
                    "velocity": 0.6141732283464567,
                    "duration": 0.1497395833333286
                },
                {
                    "name": "F#5",
                    "midi": 78,
                    "time": 94.84375,
                    "velocity": 0.6141732283464567,
                    "duration": 0.1497395833333286
                },
                {
                    "name": "C5",
                    "midi": 72,
                    "time": 95,
                    "velocity": 0.6141732283464567,
                    "duration": 0.1497395833333286
                },
                {
                    "name": "F#5",
                    "midi": 78,
                    "time": 95.15625,
                    "velocity": 0.6141732283464567,
                    "duration": 0.1497395833333286
                },
                {
                    "name": "C5",
                    "midi": 72,
                    "time": 95.3125,
                    "velocity": 0.6141732283464567,
                    "duration": 0.1497395833333286
                },
                {
                    "name": "F#5",
                    "midi": 78,
                    "time": 95.46875,
                    "velocity": 0.6141732283464567,
                    "duration": 0.1497395833333286
                },
                {
                    "name": "A#4",
                    "midi": 70,
                    "time": 95.625,
                    "velocity": 0.6141732283464567,
                    "duration": 0.1497395833333286
                },
                {
                    "name": "G5",
                    "midi": 79,
                    "time": 95.78125,
                    "velocity": 0.6141732283464567,
                    "duration": 0.1497395833333286
                },
                {
                    "name": "D5",
                    "midi": 74,
                    "time": 95.9375,
                    "velocity": 0.6141732283464567,
                    "duration": 0.1497395833333286
                },
                {
                    "name": "G5",
                    "midi": 79,
                    "time": 96.09375,
                    "velocity": 0.6141732283464567,
                    "duration": 0.1497395833333286
                },
                {
                    "name": "A#4",
                    "midi": 70,
                    "time": 96.25,
                    "velocity": 0.6141732283464567,
                    "duration": 0.1497395833333286
                },
                {
                    "name": "G5",
                    "midi": 79,
                    "time": 96.40625,
                    "velocity": 0.6141732283464567,
                    "duration": 0.1497395833333286
                },
                {
                    "name": "D5",
                    "midi": 74,
                    "time": 96.5625,
                    "velocity": 0.6141732283464567,
                    "duration": 0.1497395833333286
                },
                {
                    "name": "G5",
                    "midi": 79,
                    "time": 96.71875,
                    "velocity": 0.6141732283464567,
                    "duration": 0.1497395833333286
                },
                {
                    "name": "A#4",
                    "midi": 70,
                    "time": 96.875,
                    "velocity": 0.6141732283464567,
                    "duration": 0.1497395833333286
                },
                {
                    "name": "G5",
                    "midi": 79,
                    "time": 97.03125,
                    "velocity": 0.6141732283464567,
                    "duration": 0.1497395833333286
                },
                {
                    "name": "A#4",
                    "midi": 70,
                    "time": 97.1875,
                    "velocity": 0.6141732283464567,
                    "duration": 0.1497395833333286
                },
                {
                    "name": "G5",
                    "midi": 79,
                    "time": 97.34375,
                    "velocity": 0.6141732283464567,
                    "duration": 0.1497395833333286
                },
                {
                    "name": "A4",
                    "midi": 69,
                    "time": 97.5,
                    "velocity": 0.6141732283464567,
                    "duration": 0.1497395833333286
                },
                {
                    "name": "G5",
                    "midi": 79,
                    "time": 97.65625,
                    "velocity": 0.6141732283464567,
                    "duration": 0.1497395833333286
                },
                {
                    "name": "C5",
                    "midi": 72,
                    "time": 97.8125,
                    "velocity": 0.6141732283464567,
                    "duration": 0.1497395833333286
                },
                {
                    "name": "G5",
                    "midi": 79,
                    "time": 97.96875,
                    "velocity": 0.6141732283464567,
                    "duration": 0.1497395833333286
                },
                {
                    "name": "A4",
                    "midi": 69,
                    "time": 98.125,
                    "velocity": 0.6141732283464567,
                    "duration": 0.1497395833333286
                },
                {
                    "name": "G5",
                    "midi": 79,
                    "time": 98.28125,
                    "velocity": 0.6141732283464567,
                    "duration": 0.1497395833333286
                },
                {
                    "name": "C5",
                    "midi": 72,
                    "time": 98.4375,
                    "velocity": 0.6141732283464567,
                    "duration": 0.1497395833333286
                },
                {
                    "name": "G5",
                    "midi": 79,
                    "time": 98.59375,
                    "velocity": 0.6141732283464567,
                    "duration": 0.1497395833333286
                },
                {
                    "name": "A4",
                    "midi": 69,
                    "time": 98.75,
                    "velocity": 0.6141732283464567,
                    "duration": 0.1497395833333286
                },
                {
                    "name": "G5",
                    "midi": 79,
                    "time": 98.90625,
                    "velocity": 0.6141732283464567,
                    "duration": 0.1497395833333286
                },
                {
                    "name": "A4",
                    "midi": 69,
                    "time": 99.0625,
                    "velocity": 0.6141732283464567,
                    "duration": 0.1497395833333286
                },
                {
                    "name": "G5",
                    "midi": 79,
                    "time": 99.21875,
                    "velocity": 0.6141732283464567,
                    "duration": 0.1497395833333286
                },
                {
                    "name": "A4",
                    "midi": 69,
                    "time": 99.375,
                    "velocity": 0.6141732283464567,
                    "duration": 0.1497395833333286
                },
                {
                    "name": "F#5",
                    "midi": 78,
                    "time": 99.53125,
                    "velocity": 0.6141732283464567,
                    "duration": 0.1497395833333286
                },
                {
                    "name": "C5",
                    "midi": 72,
                    "time": 99.6875,
                    "velocity": 0.6141732283464567,
                    "duration": 0.1497395833333286
                },
                {
                    "name": "F#5",
                    "midi": 78,
                    "time": 99.84375,
                    "velocity": 0.6141732283464567,
                    "duration": 0.1497395833333286
                },
                {
                    "name": "A4",
                    "midi": 69,
                    "time": 100,
                    "velocity": 0.6141732283464567,
                    "duration": 0.1497395833333286
                },
                {
                    "name": "F#5",
                    "midi": 78,
                    "time": 100.15625,
                    "velocity": 0.6141732283464567,
                    "duration": 0.1497395833333286
                },
                {
                    "name": "C5",
                    "midi": 72,
                    "time": 100.3125,
                    "velocity": 0.6141732283464567,
                    "duration": 0.1497395833333286
                },
                {
                    "name": "F#5",
                    "midi": 78,
                    "time": 100.46875,
                    "velocity": 0.6141732283464567,
                    "duration": 0.1497395833333286
                },
                {
                    "name": "A4",
                    "midi": 69,
                    "time": 100.625,
                    "velocity": 0.6141732283464567,
                    "duration": 0.1497395833333286
                },
                {
                    "name": "F#5",
                    "midi": 78,
                    "time": 100.78125,
                    "velocity": 0.6141732283464567,
                    "duration": 0.1497395833333286
                },
                {
                    "name": "A4",
                    "midi": 69,
                    "time": 100.9375,
                    "velocity": 0.6141732283464567,
                    "duration": 0.1497395833333286
                },
                {
                    "name": "F#5",
                    "midi": 78,
                    "time": 101.09375,
                    "velocity": 0.6141732283464567,
                    "duration": 0.1497395833333286
                },
                {
                    "name": "D#5",
                    "midi": 75,
                    "time": 112.5,
                    "velocity": 0.6141732283464567,
                    "duration": 0.1497395833333286
                },
                {
                    "name": "F5",
                    "midi": 77,
                    "time": 112.65625,
                    "velocity": 0.6141732283464567,
                    "duration": 0.1497395833333286
                },
                {
                    "name": "G5",
                    "midi": 79,
                    "time": 112.8125,
                    "velocity": 0.6141732283464567,
                    "duration": 0.1497395833333286
                },
                {
                    "name": "F5",
                    "midi": 77,
                    "time": 112.96875,
                    "velocity": 0.6141732283464567,
                    "duration": 0.1497395833333286
                },
                {
                    "name": "D#5",
                    "midi": 75,
                    "time": 113.125,
                    "velocity": 0.6141732283464567,
                    "duration": 0.1497395833333286
                },
                {
                    "name": "D5",
                    "midi": 74,
                    "time": 113.28125,
                    "velocity": 0.6141732283464567,
                    "duration": 0.1497395833333286
                },
                {
                    "name": "C5",
                    "midi": 72,
                    "time": 113.4375,
                    "velocity": 0.6141732283464567,
                    "duration": 0.1497395833333286
                },
                {
                    "name": "A#4",
                    "midi": 70,
                    "time": 113.59375,
                    "velocity": 0.6141732283464567,
                    "duration": 0.1497395833333286
                },
                {
                    "name": "D#5",
                    "midi": 75,
                    "time": 113.75,
                    "velocity": 0.6141732283464567,
                    "duration": 0.1497395833333286
                },
                {
                    "name": "D5",
                    "midi": 74,
                    "time": 113.90625,
                    "velocity": 0.6141732283464567,
                    "duration": 0.1497395833333286
                },
                {
                    "name": "C5",
                    "midi": 72,
                    "time": 114.0625,
                    "velocity": 0.6141732283464567,
                    "duration": 0.1497395833333286
                },
                {
                    "name": "A#4",
                    "midi": 70,
                    "time": 114.21875,
                    "velocity": 0.6141732283464567,
                    "duration": 0.1497395833333286
                },
                {
                    "name": "C5",
                    "midi": 72,
                    "time": 114.375,
                    "velocity": 0.6141732283464567,
                    "duration": 0.1497395833333286
                },
                {
                    "name": "D5",
                    "midi": 74,
                    "time": 114.53125,
                    "velocity": 0.6141732283464567,
                    "duration": 0.1497395833333286
                },
                {
                    "name": "D#5",
                    "midi": 75,
                    "time": 114.6875,
                    "velocity": 0.6141732283464567,
                    "duration": 0.1497395833333286
                },
                {
                    "name": "D5",
                    "midi": 74,
                    "time": 114.84375,
                    "velocity": 0.6141732283464567,
                    "duration": 0.1497395833333286
                },
                {
                    "name": "C5",
                    "midi": 72,
                    "time": 115,
                    "velocity": 0.6141732283464567,
                    "duration": 0.1497395833333286
                },
                {
                    "name": "A#4",
                    "midi": 70,
                    "time": 115.15625,
                    "velocity": 0.6141732283464567,
                    "duration": 0.1497395833333286
                },
                {
                    "name": "A4",
                    "midi": 69,
                    "time": 115.3125,
                    "velocity": 0.6141732283464567,
                    "duration": 0.1497395833333286
                },
                {
                    "name": "G4",
                    "midi": 67,
                    "time": 115.46875,
                    "velocity": 0.6141732283464567,
                    "duration": 0.1497395833333286
                },
                {
                    "name": "C5",
                    "midi": 72,
                    "time": 115.625,
                    "velocity": 0.6141732283464567,
                    "duration": 0.1497395833333286
                },
                {
                    "name": "A#4",
                    "midi": 70,
                    "time": 115.78125,
                    "velocity": 0.6141732283464567,
                    "duration": 0.1497395833333286
                },
                {
                    "name": "A4",
                    "midi": 69,
                    "time": 115.9375,
                    "velocity": 0.6141732283464567,
                    "duration": 0.1497395833333286
                },
                {
                    "name": "G4",
                    "midi": 67,
                    "time": 116.09375,
                    "velocity": 0.6141732283464567,
                    "duration": 0.1497395833333286
                },
                {
                    "name": "A4",
                    "midi": 69,
                    "time": 116.25,
                    "velocity": 0.6141732283464567,
                    "duration": 0.1497395833333286
                },
                {
                    "name": "A#4",
                    "midi": 70,
                    "time": 116.40625,
                    "velocity": 0.6141732283464567,
                    "duration": 0.1497395833333286
                },
                {
                    "name": "C5",
                    "midi": 72,
                    "time": 116.5625,
                    "velocity": 0.6141732283464567,
                    "duration": 0.1497395833333286
                },
                {
                    "name": "A#4",
                    "midi": 70,
                    "time": 116.71875,
                    "velocity": 0.6141732283464567,
                    "duration": 0.1497395833333286
                },
                {
                    "name": "A4",
                    "midi": 69,
                    "time": 116.875,
                    "velocity": 0.6141732283464567,
                    "duration": 0.1497395833333286
                },
                {
                    "name": "G4",
                    "midi": 67,
                    "time": 117.03125,
                    "velocity": 0.6141732283464567,
                    "duration": 0.1497395833333286
                },
                {
                    "name": "F4",
                    "midi": 65,
                    "time": 117.1875,
                    "velocity": 0.6141732283464567,
                    "duration": 0.1497395833333286
                },
                {
                    "name": "D#4",
                    "midi": 63,
                    "time": 117.34375,
                    "velocity": 0.6141732283464567,
                    "duration": 0.1497395833333286
                },
                {
                    "name": "A4",
                    "midi": 69,
                    "time": 117.5,
                    "velocity": 0.6141732283464567,
                    "duration": 0.1497395833333286
                },
                {
                    "name": "G4",
                    "midi": 67,
                    "time": 117.65625,
                    "velocity": 0.6141732283464567,
                    "duration": 0.1497395833333286
                },
                {
                    "name": "F4",
                    "midi": 65,
                    "time": 117.8125,
                    "velocity": 0.6141732283464567,
                    "duration": 0.1497395833333286
                },
                {
                    "name": "D#4",
                    "midi": 63,
                    "time": 117.96875,
                    "velocity": 0.6141732283464567,
                    "duration": 0.1497395833333286
                },
                {
                    "name": "D4",
                    "midi": 62,
                    "time": 118.125,
                    "velocity": 0.6141732283464567,
                    "duration": 0.1497395833333286
                },
                {
                    "name": "F4",
                    "midi": 65,
                    "time": 118.28125,
                    "velocity": 0.6141732283464567,
                    "duration": 0.1497395833333286
                },
                {
                    "name": "A#4",
                    "midi": 70,
                    "time": 118.4375,
                    "velocity": 0.6141732283464567,
                    "duration": 0.1497395833333286
                },
                {
                    "name": "A#4",
                    "midi": 70,
                    "time": 118.59375,
                    "velocity": 0.6141732283464567,
                    "duration": 0.1497395833333286
                },
                {
                    "name": "F4",
                    "midi": 65,
                    "time": 118.59375,
                    "velocity": 0.6141732283464567,
                    "duration": 0.1497395833333286
                },
                {
                    "name": "D4",
                    "midi": 62,
                    "time": 118.59375,
                    "velocity": 0.6141732283464567,
                    "duration": 0.1497395833333286
                },
                {
                    "name": "A#4",
                    "midi": 70,
                    "time": 118.75,
                    "velocity": 0.6141732283464567,
                    "duration": 0.1497395833333286
                },
                {
                    "name": "F4",
                    "midi": 65,
                    "time": 118.75,
                    "velocity": 0.6141732283464567,
                    "duration": 0.1497395833333286
                },
                {
                    "name": "D4",
                    "midi": 62,
                    "time": 118.75,
                    "velocity": 0.6141732283464567,
                    "duration": 0.1497395833333286
                },
                {
                    "name": "A#4",
                    "midi": 70,
                    "time": 118.90625,
                    "velocity": 0.6141732283464567,
                    "duration": 0.1497395833333286
                },
                {
                    "name": "F4",
                    "midi": 65,
                    "time": 118.90625,
                    "velocity": 0.6141732283464567,
                    "duration": 0.1497395833333286
                },
                {
                    "name": "D4",
                    "midi": 62,
                    "time": 118.90625,
                    "velocity": 0.6141732283464567,
                    "duration": 0.1497395833333286
                },
                {
                    "name": "A#4",
                    "midi": 70,
                    "time": 119.0625,
                    "velocity": 0.6141732283464567,
                    "duration": 0.1497395833333286
                },
                {
                    "name": "F4",
                    "midi": 65,
                    "time": 119.0625,
                    "velocity": 0.6141732283464567,
                    "duration": 0.1497395833333286
                },
                {
                    "name": "D4",
                    "midi": 62,
                    "time": 119.0625,
                    "velocity": 0.6141732283464567,
                    "duration": 0.1497395833333286
                },
                {
                    "name": "A#4",
                    "midi": 70,
                    "time": 119.21875,
                    "velocity": 0.6141732283464567,
                    "duration": 0.1497395833333286
                },
                {
                    "name": "F4",
                    "midi": 65,
                    "time": 119.21875,
                    "velocity": 0.6141732283464567,
                    "duration": 0.1497395833333286
                },
                {
                    "name": "D4",
                    "midi": 62,
                    "time": 119.21875,
                    "velocity": 0.6141732283464567,
                    "duration": 0.1497395833333286
                },
                {
                    "name": "D4",
                    "midi": 62,
                    "time": 119.375,
                    "velocity": 0.6141732283464567,
                    "duration": 0.1497395833333286
                },
                {
                    "name": "A#4",
                    "midi": 70,
                    "time": 119.53125,
                    "velocity": 0.6141732283464567,
                    "duration": 0.1497395833333286
                },
                {
                    "name": "D4",
                    "midi": 62,
                    "time": 119.6875,
                    "velocity": 0.6141732283464567,
                    "duration": 0.1497395833333286
                },
                {
                    "name": "A#4",
                    "midi": 70,
                    "time": 119.84375,
                    "velocity": 0.6141732283464567,
                    "duration": 0.1497395833333286
                },
                {
                    "name": "D#4",
                    "midi": 63,
                    "time": 120,
                    "velocity": 0.6141732283464567,
                    "duration": 0.1497395833333286
                },
                {
                    "name": "G4",
                    "midi": 67,
                    "time": 120.15625,
                    "velocity": 0.6141732283464567,
                    "duration": 0.1497395833333286
                },
                {
                    "name": "A#4",
                    "midi": 70,
                    "time": 120.3125,
                    "velocity": 0.6141732283464567,
                    "duration": 0.1497395833333286
                },
                {
                    "name": "A#4",
                    "midi": 70,
                    "time": 120.46875,
                    "velocity": 0.6141732283464567,
                    "duration": 0.1497395833333286
                },
                {
                    "name": "G4",
                    "midi": 67,
                    "time": 120.46875,
                    "velocity": 0.6141732283464567,
                    "duration": 0.1497395833333286
                },
                {
                    "name": "D#4",
                    "midi": 63,
                    "time": 120.46875,
                    "velocity": 0.6141732283464567,
                    "duration": 0.1497395833333286
                },
                {
                    "name": "A#4",
                    "midi": 70,
                    "time": 120.625,
                    "velocity": 0.6141732283464567,
                    "duration": 0.1497395833333286
                },
                {
                    "name": "G4",
                    "midi": 67,
                    "time": 120.625,
                    "velocity": 0.6141732283464567,
                    "duration": 0.1497395833333286
                },
                {
                    "name": "D#4",
                    "midi": 63,
                    "time": 120.625,
                    "velocity": 0.6141732283464567,
                    "duration": 0.1497395833333286
                },
                {
                    "name": "A#4",
                    "midi": 70,
                    "time": 120.78125,
                    "velocity": 0.6141732283464567,
                    "duration": 0.1497395833333286
                },
                {
                    "name": "G4",
                    "midi": 67,
                    "time": 120.78125,
                    "velocity": 0.6141732283464567,
                    "duration": 0.1497395833333286
                },
                {
                    "name": "D#4",
                    "midi": 63,
                    "time": 120.78125,
                    "velocity": 0.6141732283464567,
                    "duration": 0.1497395833333286
                },
                {
                    "name": "A#4",
                    "midi": 70,
                    "time": 120.9375,
                    "velocity": 0.6141732283464567,
                    "duration": 0.1497395833333286
                },
                {
                    "name": "G4",
                    "midi": 67,
                    "time": 120.9375,
                    "velocity": 0.6141732283464567,
                    "duration": 0.1497395833333286
                },
                {
                    "name": "D#4",
                    "midi": 63,
                    "time": 120.9375,
                    "velocity": 0.6141732283464567,
                    "duration": 0.1497395833333286
                },
                {
                    "name": "A#4",
                    "midi": 70,
                    "time": 121.09375,
                    "velocity": 0.6141732283464567,
                    "duration": 0.1497395833333286
                },
                {
                    "name": "G4",
                    "midi": 67,
                    "time": 121.09375,
                    "velocity": 0.6141732283464567,
                    "duration": 0.1497395833333286
                },
                {
                    "name": "D#4",
                    "midi": 63,
                    "time": 121.09375,
                    "velocity": 0.6141732283464567,
                    "duration": 0.1497395833333286
                },
                {
                    "name": "G4",
                    "midi": 67,
                    "time": 121.25,
                    "velocity": 0.6141732283464567,
                    "duration": 0.1497395833333286
                },
                {
                    "name": "A#4",
                    "midi": 70,
                    "time": 121.40625,
                    "velocity": 0.6141732283464567,
                    "duration": 0.1497395833333286
                },
                {
                    "name": "G4",
                    "midi": 67,
                    "time": 121.5625,
                    "velocity": 0.6141732283464567,
                    "duration": 0.1497395833333286
                },
                {
                    "name": "A#4",
                    "midi": 70,
                    "time": 121.71875,
                    "velocity": 0.6141732283464567,
                    "duration": 0.1497395833333286
                },
                {
                    "name": "D4",
                    "midi": 62,
                    "time": 121.875,
                    "velocity": 0.6141732283464567,
                    "duration": 0.1497395833333286
                },
                {
                    "name": "F4",
                    "midi": 65,
                    "time": 122.03125,
                    "velocity": 0.6141732283464567,
                    "duration": 0.1497395833333286
                },
                {
                    "name": "A#4",
                    "midi": 70,
                    "time": 122.1875,
                    "velocity": 0.6141732283464567,
                    "duration": 0.1497395833333286
                },
                {
                    "name": "A#4",
                    "midi": 70,
                    "time": 122.34375,
                    "velocity": 0.6141732283464567,
                    "duration": 0.1497395833333286
                },
                {
                    "name": "F4",
                    "midi": 65,
                    "time": 122.34375,
                    "velocity": 0.6141732283464567,
                    "duration": 0.1497395833333286
                },
                {
                    "name": "D4",
                    "midi": 62,
                    "time": 122.34375,
                    "velocity": 0.6141732283464567,
                    "duration": 0.1497395833333286
                },
                {
                    "name": "A#4",
                    "midi": 70,
                    "time": 122.5,
                    "velocity": 0.6141732283464567,
                    "duration": 0.1497395833333286
                },
                {
                    "name": "F4",
                    "midi": 65,
                    "time": 122.5,
                    "velocity": 0.6141732283464567,
                    "duration": 0.1497395833333286
                },
                {
                    "name": "D4",
                    "midi": 62,
                    "time": 122.5,
                    "velocity": 0.6141732283464567,
                    "duration": 0.1497395833333286
                },
                {
                    "name": "A#4",
                    "midi": 70,
                    "time": 122.65625,
                    "velocity": 0.6141732283464567,
                    "duration": 0.1497395833333286
                },
                {
                    "name": "F4",
                    "midi": 65,
                    "time": 122.65625,
                    "velocity": 0.6141732283464567,
                    "duration": 0.1497395833333286
                },
                {
                    "name": "D4",
                    "midi": 62,
                    "time": 122.65625,
                    "velocity": 0.6141732283464567,
                    "duration": 0.1497395833333286
                },
                {
                    "name": "A#4",
                    "midi": 70,
                    "time": 122.8125,
                    "velocity": 0.6141732283464567,
                    "duration": 0.1497395833333286
                },
                {
                    "name": "F4",
                    "midi": 65,
                    "time": 122.8125,
                    "velocity": 0.6141732283464567,
                    "duration": 0.1497395833333286
                },
                {
                    "name": "D4",
                    "midi": 62,
                    "time": 122.8125,
                    "velocity": 0.6141732283464567,
                    "duration": 0.1497395833333286
                },
                {
                    "name": "A#4",
                    "midi": 70,
                    "time": 122.96875,
                    "velocity": 0.6141732283464567,
                    "duration": 0.1497395833333286
                },
                {
                    "name": "F4",
                    "midi": 65,
                    "time": 122.96875,
                    "velocity": 0.6141732283464567,
                    "duration": 0.1497395833333286
                },
                {
                    "name": "D4",
                    "midi": 62,
                    "time": 122.96875,
                    "velocity": 0.6141732283464567,
                    "duration": 0.1497395833333286
                },
                {
                    "name": "D4",
                    "midi": 62,
                    "time": 123.125,
                    "velocity": 0.6141732283464567,
                    "duration": 0.1497395833333286
                },
                {
                    "name": "A#4",
                    "midi": 70,
                    "time": 123.28125,
                    "velocity": 0.6141732283464567,
                    "duration": 0.1497395833333286
                },
                {
                    "name": "D4",
                    "midi": 62,
                    "time": 123.4375,
                    "velocity": 0.6141732283464567,
                    "duration": 0.1497395833333286
                },
                {
                    "name": "A#4",
                    "midi": 70,
                    "time": 123.59375,
                    "velocity": 0.6141732283464567,
                    "duration": 0.1497395833333286
                },
                {
                    "name": "C4",
                    "midi": 60,
                    "time": 123.75,
                    "velocity": 0.6141732283464567,
                    "duration": 0.1497395833333286
                },
                {
                    "name": "D#4",
                    "midi": 63,
                    "time": 123.90625,
                    "velocity": 0.6141732283464567,
                    "duration": 0.1497395833333286
                },
                {
                    "name": "A#4",
                    "midi": 70,
                    "time": 124.0625,
                    "velocity": 0.6141732283464567,
                    "duration": 0.1497395833333286
                },
                {
                    "name": "A#4",
                    "midi": 70,
                    "time": 124.21875,
                    "velocity": 0.6141732283464567,
                    "duration": 0.1497395833333286
                },
                {
                    "name": "D#4",
                    "midi": 63,
                    "time": 124.21875,
                    "velocity": 0.6141732283464567,
                    "duration": 0.1497395833333286
                },
                {
                    "name": "C4",
                    "midi": 60,
                    "time": 124.21875,
                    "velocity": 0.6141732283464567,
                    "duration": 0.1497395833333286
                },
                {
                    "name": "A#4",
                    "midi": 70,
                    "time": 124.375,
                    "velocity": 0.6141732283464567,
                    "duration": 0.1497395833333286
                },
                {
                    "name": "D#4",
                    "midi": 63,
                    "time": 124.375,
                    "velocity": 0.6141732283464567,
                    "duration": 0.1497395833333286
                },
                {
                    "name": "C4",
                    "midi": 60,
                    "time": 124.375,
                    "velocity": 0.6141732283464567,
                    "duration": 0.1497395833333286
                },
                {
                    "name": "A#4",
                    "midi": 70,
                    "time": 124.53125,
                    "velocity": 0.6141732283464567,
                    "duration": 0.1497395833333286
                },
                {
                    "name": "D#4",
                    "midi": 63,
                    "time": 124.53125,
                    "velocity": 0.6141732283464567,
                    "duration": 0.1497395833333286
                },
                {
                    "name": "C4",
                    "midi": 60,
                    "time": 124.53125,
                    "velocity": 0.6141732283464567,
                    "duration": 0.1497395833333286
                },
                {
                    "name": "A#4",
                    "midi": 70,
                    "time": 124.6875,
                    "velocity": 0.6141732283464567,
                    "duration": 0.1497395833333286
                },
                {
                    "name": "D#4",
                    "midi": 63,
                    "time": 124.6875,
                    "velocity": 0.6141732283464567,
                    "duration": 0.1497395833333286
                },
                {
                    "name": "C4",
                    "midi": 60,
                    "time": 124.6875,
                    "velocity": 0.6141732283464567,
                    "duration": 0.1497395833333286
                },
                {
                    "name": "A#4",
                    "midi": 70,
                    "time": 124.84375,
                    "velocity": 0.6141732283464567,
                    "duration": 0.1497395833333286
                },
                {
                    "name": "D#4",
                    "midi": 63,
                    "time": 124.84375,
                    "velocity": 0.6141732283464567,
                    "duration": 0.1497395833333286
                },
                {
                    "name": "C4",
                    "midi": 60,
                    "time": 124.84375,
                    "velocity": 0.6141732283464567,
                    "duration": 0.1497395833333286
                },
                {
                    "name": "D#4",
                    "midi": 63,
                    "time": 125,
                    "velocity": 0.6141732283464567,
                    "duration": 0.1497395833333286
                },
                {
                    "name": "A#4",
                    "midi": 70,
                    "time": 125.15625,
                    "velocity": 0.6141732283464567,
                    "duration": 0.1497395833333286
                },
                {
                    "name": "D#4",
                    "midi": 63,
                    "time": 125.3125,
                    "velocity": 0.6141732283464567,
                    "duration": 0.1497395833333286
                },
                {
                    "name": "A#4",
                    "midi": 70,
                    "time": 125.46875,
                    "velocity": 0.6141732283464567,
                    "duration": 0.1497395833333286
                },
                {
                    "name": "C4",
                    "midi": 60,
                    "time": 125.625,
                    "velocity": 0.6141732283464567,
                    "duration": 0.1497395833333286
                },
                {
                    "name": "D#4",
                    "midi": 63,
                    "time": 125.78125,
                    "velocity": 0.6141732283464567,
                    "duration": 0.1497395833333286
                },
                {
                    "name": "A4",
                    "midi": 69,
                    "time": 125.9375,
                    "velocity": 0.6141732283464567,
                    "duration": 0.1497395833333286
                },
                {
                    "name": "A4",
                    "midi": 69,
                    "time": 126.09375,
                    "velocity": 0.6141732283464567,
                    "duration": 0.1497395833333286
                },
                {
                    "name": "D#4",
                    "midi": 63,
                    "time": 126.09375,
                    "velocity": 0.6141732283464567,
                    "duration": 0.1497395833333286
                },
                {
                    "name": "C4",
                    "midi": 60,
                    "time": 126.09375,
                    "velocity": 0.6141732283464567,
                    "duration": 0.1497395833333286
                },
                {
                    "name": "A4",
                    "midi": 69,
                    "time": 126.25,
                    "velocity": 0.6141732283464567,
                    "duration": 0.1497395833333286
                },
                {
                    "name": "D#4",
                    "midi": 63,
                    "time": 126.25,
                    "velocity": 0.6141732283464567,
                    "duration": 0.1497395833333286
                },
                {
                    "name": "C4",
                    "midi": 60,
                    "time": 126.25,
                    "velocity": 0.6141732283464567,
                    "duration": 0.1497395833333286
                },
                {
                    "name": "A4",
                    "midi": 69,
                    "time": 126.40625,
                    "velocity": 0.6141732283464567,
                    "duration": 0.1497395833333286
                },
                {
                    "name": "D#4",
                    "midi": 63,
                    "time": 126.40625,
                    "velocity": 0.6141732283464567,
                    "duration": 0.1497395833333286
                },
                {
                    "name": "C4",
                    "midi": 60,
                    "time": 126.40625,
                    "velocity": 0.6141732283464567,
                    "duration": 0.1497395833333286
                },
                {
                    "name": "A4",
                    "midi": 69,
                    "time": 126.5625,
                    "velocity": 0.6141732283464567,
                    "duration": 0.1497395833333286
                },
                {
                    "name": "D#4",
                    "midi": 63,
                    "time": 126.5625,
                    "velocity": 0.6141732283464567,
                    "duration": 0.1497395833333286
                },
                {
                    "name": "C4",
                    "midi": 60,
                    "time": 126.5625,
                    "velocity": 0.6141732283464567,
                    "duration": 0.1497395833333286
                },
                {
                    "name": "A4",
                    "midi": 69,
                    "time": 126.71875,
                    "velocity": 0.6141732283464567,
                    "duration": 0.1497395833333286
                },
                {
                    "name": "D#4",
                    "midi": 63,
                    "time": 126.71875,
                    "velocity": 0.6141732283464567,
                    "duration": 0.1497395833333286
                },
                {
                    "name": "C4",
                    "midi": 60,
                    "time": 126.71875,
                    "velocity": 0.6141732283464567,
                    "duration": 0.1497395833333286
                },
                {
                    "name": "D#4",
                    "midi": 63,
                    "time": 126.875,
                    "velocity": 0.6141732283464567,
                    "duration": 0.1497395833333286
                },
                {
                    "name": "A4",
                    "midi": 69,
                    "time": 127.03125,
                    "velocity": 0.6141732283464567,
                    "duration": 0.1497395833333286
                },
                {
                    "name": "D#4",
                    "midi": 63,
                    "time": 127.1875,
                    "velocity": 0.6141732283464567,
                    "duration": 0.1497395833333286
                },
                {
                    "name": "A4",
                    "midi": 69,
                    "time": 127.34375,
                    "velocity": 0.6141732283464567,
                    "duration": 0.1497395833333286
                },
                {
                    "name": "A#3",
                    "midi": 58,
                    "time": 127.5,
                    "velocity": 0.6141732283464567,
                    "duration": 0.3059895833333286
                },
                {
                    "name": "D5",
                    "midi": 74,
                    "time": 157.1875,
                    "velocity": 0.7874015748031497,
                    "duration": 0.2083333333333428
                },
                {
                    "name": "G5",
                    "midi": 79,
                    "time": 157.5,
                    "velocity": 0.7874015748031497,
                    "duration": 0.2083333333333428
                },
                {
                    "name": "G5",
                    "midi": 79,
                    "time": 157.8125,
                    "velocity": 0.7874015748031497,
                    "duration": 0.2083333333333428
                },
                {
                    "name": "G5",
                    "midi": 79,
                    "time": 158.125,
                    "velocity": 0.7874015748031497,
                    "duration": 0.3059895833333428
                },
                {
                    "name": "A5",
                    "midi": 81,
                    "time": 158.4375,
                    "velocity": 0.7874015748031497,
                    "duration": 0.04557291666665719
                },
                {
                    "name": "G5",
                    "midi": 79,
                    "time": 158.48958333333331,
                    "velocity": 0.7874015748031497,
                    "duration": 0.04557291666665719
                },
                {
                    "name": "A5",
                    "midi": 81,
                    "time": 158.53515624999997,
                    "velocity": 0.7874015748031497,
                    "duration": 0.1302083333333428
                },
                {
                    "name": "A#5",
                    "midi": 82,
                    "time": 158.66536458333331,
                    "velocity": 0.7874015748031497,
                    "duration": 0.11067708333331439
                },
                {
                    "name": "F#5",
                    "midi": 78,
                    "time": 158.74999999999997,
                    "velocity": 0.7874015748031497,
                    "duration": 0.14973958333331439
                },
                {
                    "name": "E5",
                    "midi": 76,
                    "time": 158.90624999999994,
                    "velocity": 0.7874015748031497,
                    "duration": 0.1497395833333428
                },
                {
                    "name": "D5",
                    "midi": 74,
                    "time": 159.06249999999994,
                    "velocity": 0.7874015748031497,
                    "duration": 0.3059895833333428
                },
                {
                    "name": "A5",
                    "midi": 81,
                    "time": 159.68749999999994,
                    "velocity": 0.7874015748031497,
                    "duration": 0.1497395833333428
                },
                {
                    "name": "C6",
                    "midi": 84,
                    "time": 159.84374999999994,
                    "velocity": 0.7874015748031497,
                    "duration": 0.07161458333334281
                },
                {
                    "name": "A#5",
                    "midi": 82,
                    "time": 159.92187499999994,
                    "velocity": 0.7874015748031497,
                    "duration": 0.07161458333334281
                },
                {
                    "name": "C6",
                    "midi": 84,
                    "time": 159.99999999999994,
                    "velocity": 0.7874015748031497,
                    "duration": 0.3059895833333428
                },
                {
                    "name": "A#5",
                    "midi": 82,
                    "time": 160.39062499999994,
                    "velocity": 0.7874015748031497,
                    "duration": 0.07161458333334281
                },
                {
                    "name": "A5",
                    "midi": 81,
                    "time": 160.46874999999994,
                    "velocity": 0.7874015748031497,
                    "duration": 0.07161458333334281
                },
                {
                    "name": "A#5",
                    "midi": 82,
                    "time": 160.54687499999994,
                    "velocity": 0.7874015748031497,
                    "duration": 0.03255208333334281
                },
                {
                    "name": "C6",
                    "midi": 84,
                    "time": 160.58593749999994,
                    "velocity": 0.7874015748031497,
                    "duration": 0.03255208333334281
                },
                {
                    "name": "D5",
                    "midi": 74,
                    "time": 160.62499999999994,
                    "velocity": 0.7874015748031497,
                    "duration": 0.07161458333334281
                },
                {
                    "name": "F#5",
                    "midi": 78,
                    "time": 160.70312499999994,
                    "velocity": 0.7874015748031497,
                    "duration": 0.07161458333334281
                },
                {
                    "name": "A5",
                    "midi": 81,
                    "time": 160.78124999999994,
                    "velocity": 0.7874015748031497,
                    "duration": 0.07161458333334281
                },
                {
                    "name": "C6",
                    "midi": 84,
                    "time": 160.85937499999994,
                    "velocity": 0.7874015748031497,
                    "duration": 0.07161458333334281
                },
                {
                    "name": "A#5",
                    "midi": 82,
                    "time": 160.93749999999994,
                    "velocity": 0.7874015748031497,
                    "duration": 0.1497395833333428
                },
                {
                    "name": "C6",
                    "midi": 84,
                    "time": 161.09374999999994,
                    "velocity": 0.7874015748031497,
                    "duration": 0.07161458333334281
                },
                {
                    "name": "A5",
                    "midi": 81,
                    "time": 161.17187499999994,
                    "velocity": 0.7874015748031497,
                    "duration": 0.07161458333334281
                },
                {
                    "name": "A#5",
                    "midi": 82,
                    "time": 161.24999999999994,
                    "velocity": 0.7874015748031497,
                    "duration": 0.1497395833333428
                },
                {
                    "name": "A5",
                    "midi": 81,
                    "time": 161.40624999999994,
                    "velocity": 0.7874015748031497,
                    "duration": 0.1497395833333428
                },
                {
                    "name": "G5",
                    "midi": 79,
                    "time": 161.56249999999994,
                    "velocity": 0.7874015748031497,
                    "duration": 0.3059895833333428
                },
                {
                    "name": "D5",
                    "midi": 74,
                    "time": 162.18749999999994,
                    "velocity": 0.7874015748031497,
                    "duration": 0.04557291666665719
                },
                {
                    "name": "D#5",
                    "midi": 75,
                    "time": 162.23958333333326,
                    "velocity": 0.7874015748031497,
                    "duration": 0.0390625
                },
                {
                    "name": "D5",
                    "midi": 74,
                    "time": 162.29817708333326,
                    "velocity": 0.7874015748031497,
                    "duration": 0.04557291666665719
                },
                {
                    "name": "C5",
                    "midi": 72,
                    "time": 162.34374999999991,
                    "velocity": 0.7874015748031497,
                    "duration": 0.07161458333334281
                },
                {
                    "name": "D5",
                    "midi": 74,
                    "time": 162.42187499999991,
                    "velocity": 0.7874015748031497,
                    "duration": 0.07161458333334281
                },
                {
                    "name": "G4",
                    "midi": 67,
                    "time": 162.49999999999991,
                    "velocity": 0.7874015748031497,
                    "duration": 0.3059895833333428
                },
                {
                    "name": "D#5",
                    "midi": 75,
                    "time": 162.49999999999991,
                    "velocity": 0.7874015748031497,
                    "duration": 0.1497395833333428
                },
                {
                    "name": "C5",
                    "midi": 72,
                    "time": 162.65624999999991,
                    "velocity": 0.7874015748031497,
                    "duration": 0.1497395833333428
                },
                {
                    "name": "A4",
                    "midi": 69,
                    "time": 162.81249999999991,
                    "velocity": 0.7874015748031497,
                    "duration": 0.1497395833333428
                },
                {
                    "name": "A4",
                    "midi": 69,
                    "time": 162.81249999999991,
                    "velocity": 0.7874015748031497,
                    "duration": 0.3059895833333428
                },
                {
                    "name": "F#4",
                    "midi": 66,
                    "time": 162.96874999999991,
                    "velocity": 0.7874015748031497,
                    "duration": 0.1497395833333428
                },
                {
                    "name": "A#4",
                    "midi": 70,
                    "time": 163.12499999999991,
                    "velocity": 0.7874015748031497,
                    "duration": 0.3059895833333428
                },
                {
                    "name": "D#5",
                    "midi": 75,
                    "time": 163.12499999999991,
                    "velocity": 0.7874015748031497,
                    "duration": 0.1497395833333428
                },
                {
                    "name": "C5",
                    "midi": 72,
                    "time": 163.28124999999991,
                    "velocity": 0.7874015748031497,
                    "duration": 0.1497395833333428
                },
                {
                    "name": "C5",
                    "midi": 72,
                    "time": 163.43749999999991,
                    "velocity": 0.7874015748031497,
                    "duration": 0.3059895833333428
                },
                {
                    "name": "A4",
                    "midi": 69,
                    "time": 163.43749999999991,
                    "velocity": 0.7874015748031497,
                    "duration": 0.1497395833333428
                },
                {
                    "name": "F#4",
                    "midi": 66,
                    "time": 163.59374999999991,
                    "velocity": 0.7874015748031497,
                    "duration": 0.1497395833333428
                },
                {
                    "name": "G5",
                    "midi": 79,
                    "time": 163.7565104166666,
                    "velocity": 0.7874015748031497,
                    "duration": 0.15625
                },
                {
                    "name": "F#5",
                    "midi": 78,
                    "time": 163.8932291666666,
                    "velocity": 0.7874015748031497,
                    "duration": 0.05208333333334281
                },
                {
                    "name": "G5",
                    "midi": 79,
                    "time": 163.9518229166666,
                    "velocity": 0.7874015748031497,
                    "duration": 0.04557291666665719
                },
                {
                    "name": "F#5",
                    "midi": 78,
                    "time": 163.9908854166666,
                    "velocity": 0.7874015748031497,
                    "duration": 0.04557291666665719
                },
                {
                    "name": "G5",
                    "midi": 79,
                    "time": 164.04296874999991,
                    "velocity": 0.7874015748031497,
                    "duration": 0.0390625
                },
                {
                    "name": "F#5",
                    "midi": 78,
                    "time": 164.08203124999991,
                    "velocity": 0.7874015748031497,
                    "duration": 0.0390625
                },
                {
                    "name": "G5",
                    "midi": 79,
                    "time": 164.12760416666657,
                    "velocity": 0.7874015748031497,
                    "duration": 0.0390625
                },
                {
                    "name": "F#5",
                    "midi": 78,
                    "time": 164.17317708333323,
                    "velocity": 0.7874015748031497,
                    "duration": 0.03255208333334281
                },
                {
                    "name": "G5",
                    "midi": 79,
                    "time": 164.20572916666657,
                    "velocity": 0.7874015748031497,
                    "duration": 0.0390625
                },
                {
                    "name": "F#5",
                    "midi": 78,
                    "time": 164.24479166666657,
                    "velocity": 0.7874015748031497,
                    "duration": 0.09114583333334281
                },
                {
                    "name": "D5",
                    "midi": 74,
                    "time": 164.53124999999991,
                    "velocity": 0.7874015748031497,
                    "duration": 0.1497395833333428
                },
                {
                    "name": "E5",
                    "midi": 76,
                    "time": 164.68749999999991,
                    "velocity": 0.7874015748031497,
                    "duration": 0.1497395833333428
                },
                {
                    "name": "G5",
                    "midi": 79,
                    "time": 164.84374999999991,
                    "velocity": 0.7874015748031497,
                    "duration": 0.07161458333334281
                },
                {
                    "name": "F#5",
                    "midi": 78,
                    "time": 164.92187499999991,
                    "velocity": 0.7874015748031497,
                    "duration": 0.07161458333334281
                },
                {
                    "name": "G5",
                    "midi": 79,
                    "time": 164.99999999999991,
                    "velocity": 0.7874015748031497,
                    "duration": 0.10416666666665719
                },
                {
                    "name": "A#4",
                    "midi": 70,
                    "time": 165.15624999999991,
                    "velocity": 0.7874015748031497,
                    "duration": 0.10416666666665719
                },
                {
                    "name": "C5",
                    "midi": 72,
                    "time": 165.31249999999991,
                    "velocity": 0.7874015748031497,
                    "duration": 0.10416666666665719
                },
                {
                    "name": "D5",
                    "midi": 74,
                    "time": 165.46874999999991,
                    "velocity": 0.7874015748031497,
                    "duration": 0.10416666666665719
                },
                {
                    "name": "A#4",
                    "midi": 70,
                    "time": 165.64453124999991,
                    "velocity": 0.7874015748031497,
                    "duration": 0.13671875
                },
                {
                    "name": "A4",
                    "midi": 69,
                    "time": 165.76171874999991,
                    "velocity": 0.7874015748031497,
                    "duration": 0.06510416666665719
                },
                {
                    "name": "A#4",
                    "midi": 70,
                    "time": 165.82682291666657,
                    "velocity": 0.7874015748031497,
                    "duration": 0.05208333333334281
                },
                {
                    "name": "A4",
                    "midi": 69,
                    "time": 165.88541666666657,
                    "velocity": 0.7874015748031497,
                    "duration": 0.0390625
                },
                {
                    "name": "A#4",
                    "midi": 70,
                    "time": 165.91796874999991,
                    "velocity": 0.7874015748031497,
                    "duration": 0.052083333333314386
                },
                {
                    "name": "A4",
                    "midi": 69,
                    "time": 165.97005208333323,
                    "velocity": 0.7874015748031497,
                    "duration": 0.05859375
                },
                {
                    "name": "A#4",
                    "midi": 70,
                    "time": 166.0156249999999,
                    "velocity": 0.7874015748031497,
                    "duration": 0.045572916666685614
                },
                {
                    "name": "A4",
                    "midi": 69,
                    "time": 166.07421874999991,
                    "velocity": 0.7874015748031497,
                    "duration": 0.052083333333314386
                },
                {
                    "name": "G4",
                    "midi": 67,
                    "time": 166.11979166666657,
                    "velocity": 0.7874015748031497,
                    "duration": 0.1171875
                },
                {
                    "name": "G4",
                    "midi": 67,
                    "time": 166.24999999999991,
                    "velocity": 0.7874015748031497,
                    "duration": 0.6184895833333428
                },
                {
                    "name": "D5",
                    "midi": 74,
                    "time": 167.18749999999991,
                    "velocity": 0.7874015748031497,
                    "duration": 0.1497395833333428
                },
                {
                    "name": "F5",
                    "midi": 77,
                    "time": 167.34374999999991,
                    "velocity": 0.7874015748031497,
                    "duration": 0.03255208333334281
                },
                {
                    "name": "D#5",
                    "midi": 75,
                    "time": 167.38281249999991,
                    "velocity": 0.7874015748031497,
                    "duration": 0.03255208333334281
                },
                {
                    "name": "D5",
                    "midi": 74,
                    "time": 167.42187499999991,
                    "velocity": 0.7874015748031497,
                    "duration": 0.03255208333334281
                },
                {
                    "name": "D#5",
                    "midi": 75,
                    "time": 167.46093749999991,
                    "velocity": 0.7874015748031497,
                    "duration": 0.03255208333334281
                },
                {
                    "name": "F5",
                    "midi": 77,
                    "time": 167.49999999999991,
                    "velocity": 0.7874015748031497,
                    "duration": 0.1497395833333428
                },
                {
                    "name": "D5",
                    "midi": 74,
                    "time": 167.65624999999991,
                    "velocity": 0.7874015748031497,
                    "duration": 0.1497395833333428
                },
                {
                    "name": "B4",
                    "midi": 71,
                    "time": 167.81249999999991,
                    "velocity": 0.7874015748031497,
                    "duration": 0.1497395833333428
                },
                {
                    "name": "G4",
                    "midi": 67,
                    "time": 167.96874999999991,
                    "velocity": 0.7874015748031497,
                    "duration": 0.11067708333334281
                },
                {
                    "name": "F5",
                    "midi": 77,
                    "time": 168.12499999999991,
                    "velocity": 0.7874015748031497,
                    "duration": 0.1497395833333428
                },
                {
                    "name": "D5",
                    "midi": 74,
                    "time": 168.28124999999991,
                    "velocity": 0.7874015748031497,
                    "duration": 0.1497395833333428
                },
                {
                    "name": "B4",
                    "midi": 71,
                    "time": 168.43749999999991,
                    "velocity": 0.7874015748031497,
                    "duration": 0.1497395833333428
                },
                {
                    "name": "G4",
                    "midi": 67,
                    "time": 168.59374999999991,
                    "velocity": 0.7874015748031497,
                    "duration": 0.11067708333334281
                },
                {
                    "name": "F5",
                    "midi": 77,
                    "time": 168.74999999999991,
                    "velocity": 0.7874015748031497,
                    "duration": 0.6184895833333428
                },
                {
                    "name": "G#5",
                    "midi": 80,
                    "time": 169.53124999999991,
                    "velocity": 0.7874015748031497,
                    "duration": 0.1497395833333428
                },
                {
                    "name": "G5",
                    "midi": 79,
                    "time": 169.68749999999991,
                    "velocity": 0.7874015748031497,
                    "duration": 0.1497395833333428
                },
                {
                    "name": "F5",
                    "midi": 77,
                    "time": 169.84374999999991,
                    "velocity": 0.7874015748031497,
                    "duration": 0.1497395833333428
                },
                {
                    "name": "D#5",
                    "midi": 75,
                    "time": 169.99999999999991,
                    "velocity": 0.7874015748031497,
                    "duration": 0.1497395833333428
                },
                {
                    "name": "B4",
                    "midi": 71,
                    "time": 170.15624999999991,
                    "velocity": 0.7874015748031497,
                    "duration": 0.1497395833333428
                },
                {
                    "name": "C5",
                    "midi": 72,
                    "time": 170.31249999999991,
                    "velocity": 0.7874015748031497,
                    "duration": 0.1497395833333428
                },
                {
                    "name": "G4",
                    "midi": 67,
                    "time": 170.46874999999991,
                    "velocity": 0.7874015748031497,
                    "duration": 0.1497395833333428
                },
                {
                    "name": "G#4",
                    "midi": 68,
                    "time": 170.62499999999991,
                    "velocity": 0.7874015748031497,
                    "duration": 0.07161458333334281
                },
                {
                    "name": "C5",
                    "midi": 72,
                    "time": 170.70312499999991,
                    "velocity": 0.7874015748031497,
                    "duration": 0.07161458333334281
                },
                {
                    "name": "G#4",
                    "midi": 68,
                    "time": 170.78124999999991,
                    "velocity": 0.7874015748031497,
                    "duration": 0.07161458333334281
                },
                {
                    "name": "F4",
                    "midi": 65,
                    "time": 170.85937499999991,
                    "velocity": 0.7874015748031497,
                    "duration": 0.07161458333334281
                },
                {
                    "name": "D4",
                    "midi": 62,
                    "time": 170.93749999999991,
                    "velocity": 0.7874015748031497,
                    "duration": 0.07161458333334281
                },
                {
                    "name": "F4",
                    "midi": 65,
                    "time": 171.01562499999991,
                    "velocity": 0.7874015748031497,
                    "duration": 0.07161458333334281
                },
                {
                    "name": "C5",
                    "midi": 72,
                    "time": 171.09374999999991,
                    "velocity": 0.7874015748031497,
                    "duration": 0.07161458333334281
                },
                {
                    "name": "B4",
                    "midi": 71,
                    "time": 171.17187499999991,
                    "velocity": 0.7874015748031497,
                    "duration": 0.07161458333334281
                },
                {
                    "name": "C5",
                    "midi": 72,
                    "time": 171.24999999999991,
                    "velocity": 0.7874015748031497,
                    "duration": 0.6184895833333428
                },
                {
                    "name": "D#5",
                    "midi": 75,
                    "time": 172.03124999999991,
                    "velocity": 0.7874015748031497,
                    "duration": 0.07161458333334281
                },
                {
                    "name": "F5",
                    "midi": 77,
                    "time": 172.06380208333326,
                    "velocity": 0.7874015748031497,
                    "duration": 0.03255208333334281
                },
                {
                    "name": "G5",
                    "midi": 79,
                    "time": 172.1158854166666,
                    "velocity": 0.7874015748031497,
                    "duration": 0.03255208333334281
                },
                {
                    "name": "F5",
                    "midi": 77,
                    "time": 172.18749999999994,
                    "velocity": 0.7874015748031497,
                    "duration": 0.1497395833333428
                },
                {
                    "name": "D#5",
                    "midi": 75,
                    "time": 172.34374999999994,
                    "velocity": 0.7874015748031497,
                    "duration": 0.1497395833333428
                },
                {
                    "name": "D5",
                    "midi": 74,
                    "time": 172.49999999999994,
                    "velocity": 0.7874015748031497,
                    "duration": 0.07161458333334281
                },
                {
                    "name": "C5",
                    "midi": 72,
                    "time": 172.57812499999994,
                    "velocity": 0.7874015748031497,
                    "duration": 0.07161458333334281
                },
                {
                    "name": "A#4",
                    "midi": 70,
                    "time": 172.65624999999994,
                    "velocity": 0.7874015748031497,
                    "duration": 0.07161458333334281
                },
                {
                    "name": "A4",
                    "midi": 69,
                    "time": 172.73437499999994,
                    "velocity": 0.7874015748031497,
                    "duration": 0.07161458333334281
                },
                {
                    "name": "A#4",
                    "midi": 70,
                    "time": 172.81249999999994,
                    "velocity": 0.7874015748031497,
                    "duration": 0.1497395833333428
                },
                {
                    "name": "F4",
                    "midi": 65,
                    "time": 172.96874999999994,
                    "velocity": 0.7874015748031497,
                    "duration": 0.1497395833333428
                },
                {
                    "name": "G4",
                    "midi": 67,
                    "time": 173.12499999999994,
                    "velocity": 0.7874015748031497,
                    "duration": 0.1497395833333428
                },
                {
                    "name": "A4",
                    "midi": 69,
                    "time": 173.28124999999994,
                    "velocity": 0.7874015748031497,
                    "duration": 0.07161458333334281
                },
                {
                    "name": "A#4",
                    "midi": 70,
                    "time": 173.35937499999994,
                    "velocity": 0.7874015748031497,
                    "duration": 0.07161458333334281
                },
                {
                    "name": "C4",
                    "midi": 60,
                    "time": 173.43749999999994,
                    "velocity": 0.7874015748031497,
                    "duration": 0.1497395833333428
                },
                {
                    "name": "A#4",
                    "midi": 70,
                    "time": 173.59374999999994,
                    "velocity": 0.7874015748031497,
                    "duration": 0.07161458333334281
                },
                {
                    "name": "A4",
                    "midi": 69,
                    "time": 173.67187499999994,
                    "velocity": 0.7874015748031497,
                    "duration": 0.07161458333334281
                },
                {
                    "name": "A#4",
                    "midi": 70,
                    "time": 173.74999999999994,
                    "velocity": 0.7874015748031497,
                    "duration": 0.6184895833333428
                },
                {
                    "name": "D5",
                    "midi": 74,
                    "time": 174.68749999999994,
                    "velocity": 0.7874015748031497,
                    "duration": 0.3059895833333428
                },
                {
                    "name": "F5",
                    "midi": 77,
                    "time": 174.99999999999994,
                    "velocity": 0.7874015748031497,
                    "duration": 0.2083333333333428
                },
                {
                    "name": "F5",
                    "midi": 77,
                    "time": 175.31249999999994,
                    "velocity": 0.7874015748031497,
                    "duration": 0.2083333333333428
                },
                {
                    "name": "F5",
                    "midi": 77,
                    "time": 175.62499999999994,
                    "velocity": 0.7874015748031497,
                    "duration": 0.3059895833333428
                },
                {
                    "name": "G5",
                    "midi": 79,
                    "time": 175.93749999999994,
                    "velocity": 0.7874015748031497,
                    "duration": 0.1497395833333428
                },
                {
                    "name": "F5",
                    "midi": 77,
                    "time": 176.09374999999994,
                    "velocity": 0.7874015748031497,
                    "duration": 0.1497395833333428
                },
                {
                    "name": "E5",
                    "midi": 76,
                    "time": 176.24999999999994,
                    "velocity": 0.7874015748031497,
                    "duration": 0.1497395833333428
                },
                {
                    "name": "D5",
                    "midi": 74,
                    "time": 176.40624999999994,
                    "velocity": 0.7874015748031497,
                    "duration": 0.1497395833333428
                },
                {
                    "name": "C5",
                    "midi": 72,
                    "time": 176.56249999999994,
                    "velocity": 0.7874015748031497,
                    "duration": 0.3059895833333428
                },
                {
                    "name": "E5",
                    "midi": 76,
                    "time": 177.18749999999994,
                    "velocity": 0.7874015748031497,
                    "duration": 0.1497395833333428
                },
                {
                    "name": "F5",
                    "midi": 77,
                    "time": 177.34374999999994,
                    "velocity": 0.7874015748031497,
                    "duration": 0.1497395833333428
                },
                {
                    "name": "G5",
                    "midi": 79,
                    "time": 177.49999999999994,
                    "velocity": 0.7874015748031497,
                    "duration": 0.1497395833333428
                },
                {
                    "name": "G5",
                    "midi": 79,
                    "time": 177.81249999999994,
                    "velocity": 0.7874015748031497,
                    "duration": 0.1497395833333428
                },
                {
                    "name": "G5",
                    "midi": 79,
                    "time": 178.12499999999994,
                    "velocity": 0.7874015748031497,
                    "duration": 0.07161458333334281
                },
                {
                    "name": "F5",
                    "midi": 77,
                    "time": 178.20312499999994,
                    "velocity": 0.7874015748031497,
                    "duration": 0.07161458333334281
                },
                {
                    "name": "E5",
                    "midi": 76,
                    "time": 178.28124999999994,
                    "velocity": 0.7874015748031497,
                    "duration": 0.07161458333334281
                },
                {
                    "name": "F5",
                    "midi": 77,
                    "time": 178.35937499999994,
                    "velocity": 0.7874015748031497,
                    "duration": 0.07161458333334281
                },
                {
                    "name": "G5",
                    "midi": 79,
                    "time": 178.43749999999994,
                    "velocity": 0.7874015748031497,
                    "duration": 0.07161458333334281
                },
                {
                    "name": "A5",
                    "midi": 81,
                    "time": 178.51562499999994,
                    "velocity": 0.7874015748031497,
                    "duration": 0.03255208333334281
                },
                {
                    "name": "A#5",
                    "midi": 82,
                    "time": 178.55468749999994,
                    "velocity": 0.7874015748031497,
                    "duration": 0.03255208333334281
                },
                {
                    "name": "A5",
                    "midi": 81,
                    "time": 178.59374999999994,
                    "velocity": 0.7874015748031497,
                    "duration": 0.07161458333334281
                },
                {
                    "name": "G5",
                    "midi": 79,
                    "time": 178.67187499999994,
                    "velocity": 0.7874015748031497,
                    "duration": 0.07161458333334281
                },
                {
                    "name": "F5",
                    "midi": 77,
                    "time": 178.74999999999994,
                    "velocity": 0.7874015748031497,
                    "duration": 0.1497395833333428
                },
                {
                    "name": "E5",
                    "midi": 76,
                    "time": 178.90624999999994,
                    "velocity": 0.7874015748031497,
                    "duration": 0.1497395833333428
                },
                {
                    "name": "D5",
                    "midi": 74,
                    "time": 179.06249999999994,
                    "velocity": 0.7874015748031497,
                    "duration": 0.3059895833333428
                },
                {
                    "name": "F5",
                    "midi": 77,
                    "time": 179.53124999999994,
                    "velocity": 0.7874015748031497,
                    "duration": 0.1497395833333428
                },
                {
                    "name": "G5",
                    "midi": 79,
                    "time": 179.68749999999994,
                    "velocity": 0.7874015748031497,
                    "duration": 0.1497395833333428
                },
                {
                    "name": "A5",
                    "midi": 81,
                    "time": 179.84374999999994,
                    "velocity": 0.7874015748031497,
                    "duration": 0.1497395833333428
                },
                {
                    "name": "A#5",
                    "midi": 82,
                    "time": 179.99999999999994,
                    "velocity": 0.7874015748031497,
                    "duration": 0.1497395833333428
                },
                {
                    "name": "F5",
                    "midi": 77,
                    "time": 180.15624999999994,
                    "velocity": 0.7874015748031497,
                    "duration": 0.1497395833333428
                },
                {
                    "name": "D5",
                    "midi": 74,
                    "time": 180.31249999999994,
                    "velocity": 0.7874015748031497,
                    "duration": 0.1497395833333428
                },
                {
                    "name": "A#4",
                    "midi": 70,
                    "time": 180.46874999999994,
                    "velocity": 0.7874015748031497,
                    "duration": 0.07161458333334281
                },
                {
                    "name": "A#5",
                    "midi": 82,
                    "time": 180.62499999999994,
                    "velocity": 0.7874015748031497,
                    "duration": 0.1497395833333428
                },
                {
                    "name": "F5",
                    "midi": 77,
                    "time": 180.78124999999994,
                    "velocity": 0.7874015748031497,
                    "duration": 0.1497395833333428
                },
                {
                    "name": "D5",
                    "midi": 74,
                    "time": 180.93749999999994,
                    "velocity": 0.7874015748031497,
                    "duration": 0.1497395833333428
                },
                {
                    "name": "A#4",
                    "midi": 70,
                    "time": 181.09374999999994,
                    "velocity": 0.7874015748031497,
                    "duration": 0.07161458333334281
                },
                {
                    "name": "G#5",
                    "midi": 80,
                    "time": 181.17187499999994,
                    "velocity": 0.7874015748031497,
                    "duration": 0.07161458333334281
                },
                {
                    "name": "G5",
                    "midi": 79,
                    "time": 181.24999999999994,
                    "velocity": 0.7874015748031497,
                    "duration": 0.10416666666665719
                },
                {
                    "name": "A4",
                    "midi": 69,
                    "time": 181.40624999999994,
                    "velocity": 0.7874015748031497,
                    "duration": 0.10416666666665719
                },
                {
                    "name": "A#4",
                    "midi": 70,
                    "time": 181.56249999999994,
                    "velocity": 0.7874015748031497,
                    "duration": 0.10416666666665719
                },
                {
                    "name": "C5",
                    "midi": 72,
                    "time": 181.71874999999994,
                    "velocity": 0.7874015748031497,
                    "duration": 0.10416666666665719
                },
                {
                    "name": "A#4",
                    "midi": 70,
                    "time": 181.89453124999994,
                    "velocity": 0.7874015748031497,
                    "duration": 0.13671875
                },
                {
                    "name": "A4",
                    "midi": 69,
                    "time": 182.01171874999994,
                    "velocity": 0.7874015748031497,
                    "duration": 0.06510416666665719
                },
                {
                    "name": "A#4",
                    "midi": 70,
                    "time": 182.0768229166666,
                    "velocity": 0.7874015748031497,
                    "duration": 0.05208333333334281
                },
                {
                    "name": "A4",
                    "midi": 69,
                    "time": 182.1354166666666,
                    "velocity": 0.7874015748031497,
                    "duration": 0.0390625
                },
                {
                    "name": "A#4",
                    "midi": 70,
                    "time": 182.16796874999994,
                    "velocity": 0.7874015748031497,
                    "duration": 0.052083333333314386
                },
                {
                    "name": "A4",
                    "midi": 69,
                    "time": 182.22005208333326,
                    "velocity": 0.7874015748031497,
                    "duration": 0.12369791666665719
                },
                {
                    "name": "A#4",
                    "midi": 70,
                    "time": 182.36979166666657,
                    "velocity": 0.7874015748031497,
                    "duration": 0.09765625
                },
                {
                    "name": "A#4",
                    "midi": 70,
                    "time": 182.49999999999991,
                    "velocity": 0.7874015748031497,
                    "duration": 0.1497395833333428
                },
                {
                    "name": "D5",
                    "midi": 74,
                    "time": 196.40624999999991,
                    "velocity": 0.7874015748031497,
                    "duration": 0.1497395833333428
                },
                {
                    "name": "G5",
                    "midi": 79,
                    "time": 196.56249999999991,
                    "velocity": 0.7874015748031497,
                    "duration": 0.1497395833333428
                },
                {
                    "name": "F5",
                    "midi": 77,
                    "time": 196.71874999999991,
                    "velocity": 0.7874015748031497,
                    "duration": 0.1497395833333428
                },
                {
                    "name": "D#5",
                    "midi": 75,
                    "time": 196.87499999999991,
                    "velocity": 0.7874015748031497,
                    "duration": 0.1497395833333428
                },
                {
                    "name": "D5",
                    "midi": 74,
                    "time": 197.03124999999991,
                    "velocity": 0.7874015748031497,
                    "duration": 0.1497395833333428
                },
                {
                    "name": "C5",
                    "midi": 72,
                    "time": 197.18749999999991,
                    "velocity": 0.7874015748031497,
                    "duration": 0.1497395833333428
                },
                {
                    "name": "A#4",
                    "midi": 70,
                    "time": 197.34374999999991,
                    "velocity": 0.7874015748031497,
                    "duration": 0.1497395833333428
                },
                {
                    "name": "A4",
                    "midi": 69,
                    "time": 197.49999999999991,
                    "velocity": 0.7874015748031497,
                    "duration": 0.1497395833333428
                },
                {
                    "name": "C5",
                    "midi": 72,
                    "time": 197.65624999999991,
                    "velocity": 0.7874015748031497,
                    "duration": 0.1497395833333428
                },
                {
                    "name": "F5",
                    "midi": 77,
                    "time": 197.81249999999991,
                    "velocity": 0.7874015748031497,
                    "duration": 0.1497395833333428
                },
                {
                    "name": "D#5",
                    "midi": 75,
                    "time": 197.96874999999991,
                    "velocity": 0.7874015748031497,
                    "duration": 0.1497395833333428
                },
                {
                    "name": "D5",
                    "midi": 74,
                    "time": 198.12499999999991,
                    "velocity": 0.7874015748031497,
                    "duration": 0.1497395833333428
                },
                {
                    "name": "C5",
                    "midi": 72,
                    "time": 198.28124999999991,
                    "velocity": 0.7874015748031497,
                    "duration": 0.1497395833333428
                },
                {
                    "name": "A#4",
                    "midi": 70,
                    "time": 198.43749999999991,
                    "velocity": 0.7874015748031497,
                    "duration": 0.1497395833333428
                },
                {
                    "name": "A4",
                    "midi": 69,
                    "time": 198.59374999999991,
                    "velocity": 0.7874015748031497,
                    "duration": 0.1497395833333428
                },
                {
                    "name": "G4",
                    "midi": 67,
                    "time": 198.74999999999991,
                    "velocity": 0.7874015748031497,
                    "duration": 0.1497395833333428
                },
                {
                    "name": "A#4",
                    "midi": 70,
                    "time": 198.90624999999991,
                    "velocity": 0.7874015748031497,
                    "duration": 0.1497395833333428
                },
                {
                    "name": "D#5",
                    "midi": 75,
                    "time": 199.06249999999991,
                    "velocity": 0.7874015748031497,
                    "duration": 0.1497395833333428
                },
                {
                    "name": "D5",
                    "midi": 74,
                    "time": 199.21874999999991,
                    "velocity": 0.7874015748031497,
                    "duration": 0.1497395833333428
                },
                {
                    "name": "C5",
                    "midi": 72,
                    "time": 199.37499999999991,
                    "velocity": 0.7874015748031497,
                    "duration": 0.1497395833333428
                },
                {
                    "name": "A#4",
                    "midi": 70,
                    "time": 199.53124999999991,
                    "velocity": 0.7874015748031497,
                    "duration": 0.1497395833333428
                },
                {
                    "name": "A4",
                    "midi": 69,
                    "time": 199.68749999999991,
                    "velocity": 0.7874015748031497,
                    "duration": 0.1497395833333428
                },
                {
                    "name": "G4",
                    "midi": 67,
                    "time": 199.84374999999991,
                    "velocity": 0.7874015748031497,
                    "duration": 0.1497395833333428
                },
                {
                    "name": "F4",
                    "midi": 65,
                    "time": 199.99999999999991,
                    "velocity": 0.7874015748031497,
                    "duration": 0.1497395833333428
                },
                {
                    "name": "A4",
                    "midi": 69,
                    "time": 200.15624999999991,
                    "velocity": 0.7874015748031497,
                    "duration": 0.1497395833333428
                },
                {
                    "name": "D5",
                    "midi": 74,
                    "time": 200.31249999999991,
                    "velocity": 0.7874015748031497,
                    "duration": 0.1497395833333428
                },
                {
                    "name": "C5",
                    "midi": 72,
                    "time": 200.46874999999991,
                    "velocity": 0.7874015748031497,
                    "duration": 0.1497395833333428
                },
                {
                    "name": "A#4",
                    "midi": 70,
                    "time": 200.62499999999991,
                    "velocity": 0.7874015748031497,
                    "duration": 0.1497395833333428
                },
                {
                    "name": "A4",
                    "midi": 69,
                    "time": 200.78124999999991,
                    "velocity": 0.7874015748031497,
                    "duration": 0.1497395833333428
                },
                {
                    "name": "G4",
                    "midi": 67,
                    "time": 200.93749999999991,
                    "velocity": 0.7874015748031497,
                    "duration": 0.1497395833333428
                },
                {
                    "name": "F4",
                    "midi": 65,
                    "time": 201.09374999999991,
                    "velocity": 0.7874015748031497,
                    "duration": 0.1497395833333428
                },
                {
                    "name": "D#4",
                    "midi": 63,
                    "time": 201.24999999999991,
                    "velocity": 0.7874015748031497,
                    "duration": 0.1497395833333428
                },
                {
                    "name": "G4",
                    "midi": 67,
                    "time": 201.40624999999991,
                    "velocity": 0.7874015748031497,
                    "duration": 0.1497395833333428
                },
                {
                    "name": "C5",
                    "midi": 72,
                    "time": 201.56249999999991,
                    "velocity": 0.7874015748031497,
                    "duration": 0.1497395833333428
                },
                {
                    "name": "A#4",
                    "midi": 70,
                    "time": 201.71874999999991,
                    "velocity": 0.7874015748031497,
                    "duration": 0.1497395833333428
                },
                {
                    "name": "A4",
                    "midi": 69,
                    "time": 201.87499999999991,
                    "velocity": 0.7874015748031497,
                    "duration": 0.1497395833333428
                },
                {
                    "name": "G4",
                    "midi": 67,
                    "time": 202.03124999999991,
                    "velocity": 0.7874015748031497,
                    "duration": 0.1497395833333428
                },
                {
                    "name": "F4",
                    "midi": 65,
                    "time": 202.18749999999991,
                    "velocity": 0.7874015748031497,
                    "duration": 0.1497395833333428
                },
                {
                    "name": "D#4",
                    "midi": 63,
                    "time": 202.34374999999991,
                    "velocity": 0.7874015748031497,
                    "duration": 0.1497395833333428
                },
                {
                    "name": "D4",
                    "midi": 62,
                    "time": 202.49999999999991,
                    "velocity": 0.7874015748031497,
                    "duration": 0.1497395833333428
                },
                {
                    "name": "F4",
                    "midi": 65,
                    "time": 202.65624999999991,
                    "velocity": 0.7874015748031497,
                    "duration": 0.1497395833333428
                },
                {
                    "name": "G4",
                    "midi": 67,
                    "time": 202.81249999999991,
                    "velocity": 0.7874015748031497,
                    "duration": 0.1497395833333428
                },
                {
                    "name": "A4",
                    "midi": 69,
                    "time": 202.96874999999991,
                    "velocity": 0.7874015748031497,
                    "duration": 0.1497395833333428
                },
                {
                    "name": "A#4",
                    "midi": 70,
                    "time": 203.12499999999991,
                    "velocity": 0.7874015748031497,
                    "duration": 0.1497395833333428
                },
                {
                    "name": "A#4",
                    "midi": 70,
                    "time": 203.43749999999991,
                    "velocity": 0.7874015748031497,
                    "duration": 0.1497395833333428
                },
                {
                    "name": "C4",
                    "midi": 60,
                    "time": 203.74999999999991,
                    "velocity": 0.7874015748031497,
                    "duration": 0.1497395833333428
                },
                {
                    "name": "A#4",
                    "midi": 70,
                    "time": 203.90624999999991,
                    "velocity": 0.7874015748031497,
                    "duration": 0.1497395833333428
                },
                {
                    "name": "A#3",
                    "midi": 58,
                    "time": 204.06249999999991,
                    "velocity": 0.7874015748031497,
                    "duration": 0.1497395833333428
                },
                {
                    "name": "A#4",
                    "midi": 70,
                    "time": 204.21874999999991,
                    "velocity": 0.7874015748031497,
                    "duration": 0.1497395833333428
                },
                {
                    "name": "C4",
                    "midi": 60,
                    "time": 204.37499999999991,
                    "velocity": 0.7874015748031497,
                    "duration": 0.1497395833333428
                },
                {
                    "name": "A#4",
                    "midi": 70,
                    "time": 204.53124999999991,
                    "velocity": 0.7874015748031497,
                    "duration": 0.1497395833333428
                },
                {
                    "name": "D4",
                    "midi": 62,
                    "time": 204.68749999999991,
                    "velocity": 0.7874015748031497,
                    "duration": 0.1497395833333428
                },
                {
                    "name": "A#4",
                    "midi": 70,
                    "time": 204.84374999999991,
                    "velocity": 0.7874015748031497,
                    "duration": 0.1497395833333428
                },
                {
                    "name": "D#4",
                    "midi": 63,
                    "time": 204.99999999999991,
                    "velocity": 0.7874015748031497,
                    "duration": 0.1497395833333428
                },
                {
                    "name": "A4",
                    "midi": 69,
                    "time": 205.15624999999991,
                    "velocity": 0.7874015748031497,
                    "duration": 0.1497395833333428
                },
                {
                    "name": "D4",
                    "midi": 62,
                    "time": 205.31249999999991,
                    "velocity": 0.7874015748031497,
                    "duration": 0.1497395833333428
                },
                {
                    "name": "A4",
                    "midi": 69,
                    "time": 205.46874999999991,
                    "velocity": 0.7874015748031497,
                    "duration": 0.1497395833333428
                },
                {
                    "name": "D#4",
                    "midi": 63,
                    "time": 205.62499999999991,
                    "velocity": 0.7874015748031497,
                    "duration": 0.1497395833333428
                },
                {
                    "name": "A4",
                    "midi": 69,
                    "time": 205.78124999999991,
                    "velocity": 0.7874015748031497,
                    "duration": 0.1497395833333428
                },
                {
                    "name": "F4",
                    "midi": 65,
                    "time": 205.93749999999991,
                    "velocity": 0.7874015748031497,
                    "duration": 0.1497395833333428
                },
                {
                    "name": "A4",
                    "midi": 69,
                    "time": 206.09374999999991,
                    "velocity": 0.7874015748031497,
                    "duration": 0.1497395833333428
                },
                {
                    "name": "A#3",
                    "midi": 58,
                    "time": 206.24999999999991,
                    "velocity": 0.7874015748031497,
                    "duration": 0.3059895833333428
                },
                {
                    "name": "F5",
                    "midi": 77,
                    "time": 216.24999999999991,
                    "velocity": 0.7874015748031497,
                    "duration": 0.1497395833333428
                },
                {
                    "name": "C5",
                    "midi": 72,
                    "time": 216.40624999999991,
                    "velocity": 0.7874015748031497,
                    "duration": 0.1497395833333428
                },
                {
                    "name": "A4",
                    "midi": 69,
                    "time": 216.56249999999991,
                    "velocity": 0.7874015748031497,
                    "duration": 0.1497395833333428
                },
                {
                    "name": "F4",
                    "midi": 65,
                    "time": 216.71874999999991,
                    "velocity": 0.7874015748031497,
                    "duration": 0.1497395833333428
                },
                {
                    "name": "A4",
                    "midi": 69,
                    "time": 216.87499999999991,
                    "velocity": 0.7874015748031497,
                    "duration": 0.10416666666665719
                },
                {
                    "name": "F5",
                    "midi": 77,
                    "time": 217.03124999999991,
                    "velocity": 0.7874015748031497,
                    "duration": 0.10416666666665719
                },
                {
                    "name": "A4",
                    "midi": 69,
                    "time": 217.18749999999991,
                    "velocity": 0.7874015748031497,
                    "duration": 0.10416666666665719
                },
                {
                    "name": "F5",
                    "midi": 77,
                    "time": 217.34374999999991,
                    "velocity": 0.7874015748031497,
                    "duration": 0.10416666666665719
                },
                {
                    "name": "A#4",
                    "midi": 70,
                    "time": 217.49999999999991,
                    "velocity": 0.7874015748031497,
                    "duration": 0.10416666666665719
                },
                {
                    "name": "F5",
                    "midi": 77,
                    "time": 217.65624999999991,
                    "velocity": 0.7874015748031497,
                    "duration": 0.10416666666665719
                },
                {
                    "name": "A#4",
                    "midi": 70,
                    "time": 217.81249999999991,
                    "velocity": 0.7874015748031497,
                    "duration": 0.10416666666665719
                },
                {
                    "name": "F5",
                    "midi": 77,
                    "time": 217.96874999999991,
                    "velocity": 0.7874015748031497,
                    "duration": 0.10416666666665719
                },
                {
                    "name": "A#4",
                    "midi": 70,
                    "time": 218.12499999999991,
                    "velocity": 0.7874015748031497,
                    "duration": 0.10416666666665719
                },
                {
                    "name": "F5",
                    "midi": 77,
                    "time": 218.28124999999991,
                    "velocity": 0.7874015748031497,
                    "duration": 0.10416666666665719
                },
                {
                    "name": "A#4",
                    "midi": 70,
                    "time": 218.43749999999991,
                    "velocity": 0.7874015748031497,
                    "duration": 0.10416666666665719
                },
                {
                    "name": "F5",
                    "midi": 77,
                    "time": 218.59374999999991,
                    "velocity": 0.7874015748031497,
                    "duration": 0.10416666666665719
                },
                {
                    "name": "C5",
                    "midi": 72,
                    "time": 218.74999999999991,
                    "velocity": 0.7874015748031497,
                    "duration": 0.10416666666665719
                },
                {
                    "name": "F5",
                    "midi": 77,
                    "time": 218.90624999999991,
                    "velocity": 0.7874015748031497,
                    "duration": 0.10416666666665719
                },
                {
                    "name": "C5",
                    "midi": 72,
                    "time": 219.06249999999991,
                    "velocity": 0.7874015748031497,
                    "duration": 0.10416666666665719
                },
                {
                    "name": "F5",
                    "midi": 77,
                    "time": 219.21874999999991,
                    "velocity": 0.7874015748031497,
                    "duration": 0.10416666666665719
                },
                {
                    "name": "C5",
                    "midi": 72,
                    "time": 219.37499999999991,
                    "velocity": 0.7874015748031497,
                    "duration": 0.10416666666665719
                },
                {
                    "name": "F5",
                    "midi": 77,
                    "time": 219.53124999999991,
                    "velocity": 0.7874015748031497,
                    "duration": 0.10416666666665719
                },
                {
                    "name": "C5",
                    "midi": 72,
                    "time": 219.68749999999991,
                    "velocity": 0.7874015748031497,
                    "duration": 0.10416666666665719
                },
                {
                    "name": "F5",
                    "midi": 77,
                    "time": 219.84374999999991,
                    "velocity": 0.7874015748031497,
                    "duration": 0.10416666666665719
                },
                {
                    "name": "D5",
                    "midi": 74,
                    "time": 219.99999999999991,
                    "velocity": 0.7874015748031497,
                    "duration": 0.10416666666665719
                },
                {
                    "name": "F5",
                    "midi": 77,
                    "time": 220.15624999999991,
                    "velocity": 0.7874015748031497,
                    "duration": 0.10416666666665719
                },
                {
                    "name": "D5",
                    "midi": 74,
                    "time": 220.31249999999991,
                    "velocity": 0.7874015748031497,
                    "duration": 0.10416666666665719
                },
                {
                    "name": "F5",
                    "midi": 77,
                    "time": 220.46874999999991,
                    "velocity": 0.7874015748031497,
                    "duration": 0.10416666666665719
                },
                {
                    "name": "D5",
                    "midi": 74,
                    "time": 220.62499999999991,
                    "velocity": 0.7874015748031497,
                    "duration": 0.10416666666665719
                },
                {
                    "name": "F5",
                    "midi": 77,
                    "time": 220.78124999999991,
                    "velocity": 0.7874015748031497,
                    "duration": 0.10416666666665719
                },
                {
                    "name": "D5",
                    "midi": 74,
                    "time": 220.93749999999991,
                    "velocity": 0.7874015748031497,
                    "duration": 0.10416666666665719
                },
                {
                    "name": "F5",
                    "midi": 77,
                    "time": 221.09374999999991,
                    "velocity": 0.7874015748031497,
                    "duration": 0.10416666666665719
                },
                {
                    "name": "D5",
                    "midi": 74,
                    "time": 221.24999999999991,
                    "velocity": 0.7874015748031497,
                    "duration": 0.1497395833333428
                },
                {
                    "name": "G5",
                    "midi": 79,
                    "time": 221.40624999999991,
                    "velocity": 0.7874015748031497,
                    "duration": 0.1497395833333428
                },
                {
                    "name": "D5",
                    "midi": 74,
                    "time": 221.56249999999991,
                    "velocity": 0.7874015748031497,
                    "duration": 0.1497395833333428
                },
                {
                    "name": "G5",
                    "midi": 79,
                    "time": 221.71874999999991,
                    "velocity": 0.7874015748031497,
                    "duration": 0.1497395833333428
                },
                {
                    "name": "D5",
                    "midi": 74,
                    "time": 221.87499999999991,
                    "velocity": 0.7874015748031497,
                    "duration": 0.1497395833333428
                },
                {
                    "name": "G5",
                    "midi": 79,
                    "time": 222.03124999999991,
                    "velocity": 0.7874015748031497,
                    "duration": 0.1497395833333428
                },
                {
                    "name": "D5",
                    "midi": 74,
                    "time": 222.18749999999991,
                    "velocity": 0.7874015748031497,
                    "duration": 0.1497395833333428
                },
                {
                    "name": "G5",
                    "midi": 79,
                    "time": 222.34374999999991,
                    "velocity": 0.7874015748031497,
                    "duration": 0.1497395833333428
                },
                {
                    "name": "E5",
                    "midi": 76,
                    "time": 222.49999999999991,
                    "velocity": 0.7874015748031497,
                    "duration": 0.1497395833333428
                },
                {
                    "name": "G5",
                    "midi": 79,
                    "time": 222.65624999999991,
                    "velocity": 0.7874015748031497,
                    "duration": 0.1497395833333428
                },
                {
                    "name": "E5",
                    "midi": 76,
                    "time": 222.81249999999991,
                    "velocity": 0.7874015748031497,
                    "duration": 0.1497395833333428
                },
                {
                    "name": "G5",
                    "midi": 79,
                    "time": 222.96874999999991,
                    "velocity": 0.7874015748031497,
                    "duration": 0.1497395833333428
                },
                {
                    "name": "E5",
                    "midi": 76,
                    "time": 223.12499999999991,
                    "velocity": 0.7874015748031497,
                    "duration": 0.1497395833333428
                },
                {
                    "name": "G5",
                    "midi": 79,
                    "time": 223.28124999999991,
                    "velocity": 0.7874015748031497,
                    "duration": 0.1497395833333428
                },
                {
                    "name": "E5",
                    "midi": 76,
                    "time": 223.43749999999991,
                    "velocity": 0.7874015748031497,
                    "duration": 0.1497395833333428
                },
                {
                    "name": "G5",
                    "midi": 79,
                    "time": 223.59374999999991,
                    "velocity": 0.7874015748031497,
                    "duration": 0.1497395833333428
                },
                {
                    "name": "C5",
                    "midi": 72,
                    "time": 223.74999999999991,
                    "velocity": 0.7874015748031497,
                    "duration": 0.1497395833333428
                },
                {
                    "name": "F5",
                    "midi": 77,
                    "time": 223.90624999999991,
                    "velocity": 0.7874015748031497,
                    "duration": 0.1497395833333428
                },
                {
                    "name": "C5",
                    "midi": 72,
                    "time": 224.06249999999991,
                    "velocity": 0.7874015748031497,
                    "duration": 0.1497395833333428
                },
                {
                    "name": "F5",
                    "midi": 77,
                    "time": 224.21874999999991,
                    "velocity": 0.7874015748031497,
                    "duration": 0.1497395833333428
                },
                {
                    "name": "C5",
                    "midi": 72,
                    "time": 224.37499999999991,
                    "velocity": 0.7874015748031497,
                    "duration": 0.1497395833333428
                },
                {
                    "name": "F5",
                    "midi": 77,
                    "time": 224.53124999999991,
                    "velocity": 0.7874015748031497,
                    "duration": 0.1497395833333428
                },
                {
                    "name": "C5",
                    "midi": 72,
                    "time": 224.68749999999991,
                    "velocity": 0.7874015748031497,
                    "duration": 0.1497395833333428
                },
                {
                    "name": "F5",
                    "midi": 77,
                    "time": 224.84374999999991,
                    "velocity": 0.7874015748031497,
                    "duration": 0.1497395833333428
                },
                {
                    "name": "D5",
                    "midi": 74,
                    "time": 224.99999999999991,
                    "velocity": 0.7874015748031497,
                    "duration": 0.1497395833333428
                },
                {
                    "name": "F5",
                    "midi": 77,
                    "time": 225.15624999999991,
                    "velocity": 0.7874015748031497,
                    "duration": 0.1497395833333428
                },
                {
                    "name": "C5",
                    "midi": 72,
                    "time": 225.31249999999991,
                    "velocity": 0.7874015748031497,
                    "duration": 0.1497395833333428
                },
                {
                    "name": "F5",
                    "midi": 77,
                    "time": 225.46874999999991,
                    "velocity": 0.7874015748031497,
                    "duration": 0.1497395833333428
                },
                {
                    "name": "A#4",
                    "midi": 70,
                    "time": 225.62499999999991,
                    "velocity": 0.7874015748031497,
                    "duration": 0.1497395833333428
                },
                {
                    "name": "F5",
                    "midi": 77,
                    "time": 225.78124999999991,
                    "velocity": 0.7874015748031497,
                    "duration": 0.1497395833333428
                },
                {
                    "name": "A4",
                    "midi": 69,
                    "time": 225.93749999999991,
                    "velocity": 0.7874015748031497,
                    "duration": 0.1497395833333428
                },
                {
                    "name": "F5",
                    "midi": 77,
                    "time": 226.09374999999991,
                    "velocity": 0.7874015748031497,
                    "duration": 0.1497395833333428
                },
                {
                    "name": "G4",
                    "midi": 67,
                    "time": 226.24999999999991,
                    "velocity": 0.7874015748031497,
                    "duration": 0.1497395833333428
                },
                {
                    "name": "F5",
                    "midi": 77,
                    "time": 226.40624999999991,
                    "velocity": 0.7874015748031497,
                    "duration": 0.1497395833333428
                },
                {
                    "name": "A4",
                    "midi": 69,
                    "time": 226.56249999999991,
                    "velocity": 0.7874015748031497,
                    "duration": 0.1497395833333428
                },
                {
                    "name": "F5",
                    "midi": 77,
                    "time": 226.71874999999991,
                    "velocity": 0.7874015748031497,
                    "duration": 0.1497395833333428
                },
                {
                    "name": "A#4",
                    "midi": 70,
                    "time": 226.87499999999991,
                    "velocity": 0.7874015748031497,
                    "duration": 0.10416666666665719
                },
                {
                    "name": "E5",
                    "midi": 76,
                    "time": 227.03124999999991,
                    "velocity": 0.7874015748031497,
                    "duration": 0.10416666666665719
                },
                {
                    "name": "C5",
                    "midi": 72,
                    "time": 227.18749999999991,
                    "velocity": 0.7874015748031497,
                    "duration": 0.10416666666665719
                },
                {
                    "name": "E5",
                    "midi": 76,
                    "time": 227.34374999999991,
                    "velocity": 0.7874015748031497,
                    "duration": 0.10416666666665719
                },
                {
                    "name": "F4",
                    "midi": 65,
                    "time": 227.49999999999991,
                    "velocity": 0.7874015748031497,
                    "duration": 0.2083333333333428
                },
                {
                    "name": "A4",
                    "midi": 69,
                    "time": 237.49999999999991,
                    "velocity": 0.7874015748031497,
                    "duration": 0.12369791666668561
                },
                {
                    "name": "C5",
                    "midi": 72,
                    "time": 237.59114583333326,
                    "velocity": 0.7874015748031497,
                    "duration": 0.12369791666665719
                },
                {
                    "name": "D5",
                    "midi": 74,
                    "time": 237.68880208333326,
                    "velocity": 0.7874015748031497,
                    "duration": 0.12369791666665719
                },
                {
                    "name": "E5",
                    "midi": 76,
                    "time": 237.78645833333326,
                    "velocity": 0.7874015748031497,
                    "duration": 0.10416666666665719
                },
                {
                    "name": "F5",
                    "midi": 77,
                    "time": 237.88411458333326,
                    "velocity": 0.7874015748031497,
                    "duration": 0.2018229166666572
                },
                {
                    "name": "A4",
                    "midi": 69,
                    "time": 238.12499999999991,
                    "velocity": 0.7874015748031497,
                    "duration": 0.1432291666666572
                },
                {
                    "name": "C5",
                    "midi": 72,
                    "time": 238.31380208333323,
                    "velocity": 0.7874015748031497,
                    "duration": 0.1432291666666572
                },
                {
                    "name": "F5",
                    "midi": 77,
                    "time": 238.50911458333323,
                    "velocity": 0.7874015748031497,
                    "duration": 0.2083333333333428
                },
                {
                    "name": "D5",
                    "midi": 74,
                    "time": 238.74999999999991,
                    "velocity": 0.7874015748031497,
                    "duration": 0.12369791666668561
                },
                {
                    "name": "F5",
                    "midi": 77,
                    "time": 238.84114583333326,
                    "velocity": 0.7874015748031497,
                    "duration": 0.12369791666665719
                },
                {
                    "name": "G5",
                    "midi": 79,
                    "time": 238.93880208333326,
                    "velocity": 0.7874015748031497,
                    "duration": 0.12369791666665719
                },
                {
                    "name": "A5",
                    "midi": 81,
                    "time": 239.03645833333326,
                    "velocity": 0.7874015748031497,
                    "duration": 0.10416666666665719
                },
                {
                    "name": "A#5",
                    "midi": 82,
                    "time": 239.13411458333326,
                    "velocity": 0.7874015748031497,
                    "duration": 0.2018229166666572
                },
                {
                    "name": "D5",
                    "midi": 74,
                    "time": 239.37499999999991,
                    "velocity": 0.7874015748031497,
                    "duration": 0.1432291666666572
                },
                {
                    "name": "F5",
                    "midi": 77,
                    "time": 239.56380208333323,
                    "velocity": 0.7874015748031497,
                    "duration": 0.1432291666666572
                },
                {
                    "name": "A#5",
                    "midi": 82,
                    "time": 239.75911458333323,
                    "velocity": 0.7874015748031497,
                    "duration": 0.21484375
                },
                {
                    "name": "D5",
                    "midi": 74,
                    "time": 239.9999999999999,
                    "velocity": 0.7874015748031497,
                    "duration": 0.12369791666668561
                },
                {
                    "name": "E5",
                    "midi": 76,
                    "time": 240.09114583333323,
                    "velocity": 0.7874015748031497,
                    "duration": 0.12369791666665719
                },
                {
                    "name": "G5",
                    "midi": 79,
                    "time": 240.18880208333323,
                    "velocity": 0.7874015748031497,
                    "duration": 0.12369791666665719
                },
                {
                    "name": "A5",
                    "midi": 81,
                    "time": 240.28645833333323,
                    "velocity": 0.7874015748031497,
                    "duration": 0.10416666666665719
                },
                {
                    "name": "A#5",
                    "midi": 82,
                    "time": 240.38411458333323,
                    "velocity": 0.7874015748031497,
                    "duration": 0.2018229166666572
                },
                {
                    "name": "D5",
                    "midi": 74,
                    "time": 240.6249999999999,
                    "velocity": 0.7874015748031497,
                    "duration": 0.1432291666666572
                },
                {
                    "name": "E5",
                    "midi": 76,
                    "time": 240.8138020833332,
                    "velocity": 0.7874015748031497,
                    "duration": 0.1432291666666572
                },
                {
                    "name": "A#5",
                    "midi": 82,
                    "time": 241.0091145833332,
                    "velocity": 0.7874015748031497,
                    "duration": 0.1822916666666572
                },
                {
                    "name": "C5",
                    "midi": 72,
                    "time": 241.3020833333332,
                    "velocity": 0.7874015748031497,
                    "duration": 0.12369791666668561
                },
                {
                    "name": "E5",
                    "midi": 76,
                    "time": 241.39322916666654,
                    "velocity": 0.7874015748031497,
                    "duration": 0.12369791666665719
                },
                {
                    "name": "F5",
                    "midi": 77,
                    "time": 241.49088541666654,
                    "velocity": 0.7874015748031497,
                    "duration": 0.12369791666665719
                },
                {
                    "name": "G5",
                    "midi": 79,
                    "time": 241.58854166666654,
                    "velocity": 0.7874015748031497,
                    "duration": 0.10416666666665719
                },
                {
                    "name": "A5",
                    "midi": 81,
                    "time": 241.68619791666654,
                    "velocity": 0.7874015748031497,
                    "duration": 0.2018229166666572
                },
                {
                    "name": "C5",
                    "midi": 72,
                    "time": 241.9270833333332,
                    "velocity": 0.7874015748031497,
                    "duration": 0.1432291666666572
                },
                {
                    "name": "E5",
                    "midi": 76,
                    "time": 242.11588541666652,
                    "velocity": 0.7874015748031497,
                    "duration": 0.1432291666666572
                },
                {
                    "name": "A5",
                    "midi": 81,
                    "time": 242.31119791666652,
                    "velocity": 0.7874015748031497,
                    "duration": 0.2083333333333428
                },
                {
                    "name": "C5",
                    "midi": 72,
                    "time": 242.49999999999986,
                    "velocity": 0.7874015748031497,
                    "duration": 0.12369791666668561
                },
                {
                    "name": "D5",
                    "midi": 74,
                    "time": 242.5911458333332,
                    "velocity": 0.7874015748031497,
                    "duration": 0.12369791666665719
                },
                {
                    "name": "F#5",
                    "midi": 78,
                    "time": 242.6888020833332,
                    "velocity": 0.7874015748031497,
                    "duration": 0.12369791666665719
                },
                {
                    "name": "G5",
                    "midi": 79,
                    "time": 242.7864583333332,
                    "velocity": 0.7874015748031497,
                    "duration": 0.10416666666665719
                },
                {
                    "name": "A5",
                    "midi": 81,
                    "time": 242.8841145833332,
                    "velocity": 0.7874015748031497,
                    "duration": 0.2018229166666572
                },
                {
                    "name": "C5",
                    "midi": 72,
                    "time": 243.12499999999986,
                    "velocity": 0.7874015748031497,
                    "duration": 0.1432291666666572
                },
                {
                    "name": "F#5",
                    "midi": 78,
                    "time": 243.31380208333317,
                    "velocity": 0.7874015748031497,
                    "duration": 0.1432291666666572
                },
                {
                    "name": "A5",
                    "midi": 81,
                    "time": 243.50911458333317,
                    "velocity": 0.7874015748031497,
                    "duration": 0.1692708333333428
                },
                {
                    "name": "A#4",
                    "midi": 70,
                    "time": 243.74999999999986,
                    "velocity": 0.7874015748031497,
                    "duration": 0.12369791666668561
                },
                {
                    "name": "D5",
                    "midi": 74,
                    "time": 243.8411458333332,
                    "velocity": 0.7874015748031497,
                    "duration": 0.12369791666665719
                },
                {
                    "name": "E5",
                    "midi": 76,
                    "time": 243.9388020833332,
                    "velocity": 0.7874015748031497,
                    "duration": 0.12369791666665719
                },
                {
                    "name": "F#5",
                    "midi": 78,
                    "time": 244.0364583333332,
                    "velocity": 0.7874015748031497,
                    "duration": 0.10416666666665719
                },
                {
                    "name": "G5",
                    "midi": 79,
                    "time": 244.1341145833332,
                    "velocity": 0.7874015748031497,
                    "duration": 0.2018229166666572
                },
                {
                    "name": "A#4",
                    "midi": 70,
                    "time": 244.37499999999986,
                    "velocity": 0.7874015748031497,
                    "duration": 0.1432291666666572
                },
                {
                    "name": "D5",
                    "midi": 74,
                    "time": 244.56380208333317,
                    "velocity": 0.7874015748031497,
                    "duration": 0.1432291666666572
                },
                {
                    "name": "G5",
                    "midi": 79,
                    "time": 244.75911458333317,
                    "velocity": 0.7874015748031497,
                    "duration": 0.1627604166666572
                },
                {
                    "name": "C#5",
                    "midi": 73,
                    "time": 244.99999999999983,
                    "velocity": 0.7874015748031497,
                    "duration": 0.12369791666668561
                },
                {
                    "name": "D5",
                    "midi": 74,
                    "time": 245.09114583333317,
                    "velocity": 0.7874015748031497,
                    "duration": 0.12369791666665719
                },
                {
                    "name": "E5",
                    "midi": 76,
                    "time": 245.18880208333317,
                    "velocity": 0.7874015748031497,
                    "duration": 0.12369791666665719
                },
                {
                    "name": "F5",
                    "midi": 77,
                    "time": 245.28645833333317,
                    "velocity": 0.7874015748031497,
                    "duration": 0.10416666666665719
                },
                {
                    "name": "G5",
                    "midi": 79,
                    "time": 245.38411458333317,
                    "velocity": 0.7874015748031497,
                    "duration": 0.2018229166666572
                },
                {
                    "name": "C#5",
                    "midi": 73,
                    "time": 245.62499999999983,
                    "velocity": 0.7874015748031497,
                    "duration": 0.1432291666666572
                },
                {
                    "name": "E5",
                    "midi": 76,
                    "time": 245.81380208333314,
                    "velocity": 0.7874015748031497,
                    "duration": 0.1432291666666572
                },
                {
                    "name": "G5",
                    "midi": 79,
                    "time": 246.00911458333314,
                    "velocity": 0.7874015748031497,
                    "duration": 0.1627604166666572
                },
                {
                    "name": "F5",
                    "midi": 77,
                    "time": 246.2499999999998,
                    "velocity": 0.7874015748031497,
                    "duration": 0.12369791666668561
                },
                {
                    "name": "E5",
                    "midi": 76,
                    "time": 246.34114583333314,
                    "velocity": 0.7874015748031497,
                    "duration": 0.12369791666665719
                },
                {
                    "name": "D5",
                    "midi": 74,
                    "time": 246.43880208333314,
                    "velocity": 0.7874015748031497,
                    "duration": 0.12369791666665719
                },
                {
                    "name": "C#5",
                    "midi": 73,
                    "time": 246.53645833333314,
                    "velocity": 0.7874015748031497,
                    "duration": 0.10416666666665719
                },
                {
                    "name": "D5",
                    "midi": 74,
                    "time": 246.63411458333314,
                    "velocity": 0.7874015748031497,
                    "duration": 0.2018229166666572
                },
                {
                    "name": "A4",
                    "midi": 69,
                    "time": 246.8749999999998,
                    "velocity": 0.7874015748031497,
                    "duration": 0.1432291666666572
                },
                {
                    "name": "D5",
                    "midi": 74,
                    "time": 247.06380208333312,
                    "velocity": 0.7874015748031497,
                    "duration": 0.1432291666666572
                },
                {
                    "name": "F5",
                    "midi": 77,
                    "time": 247.25911458333312,
                    "velocity": 0.7874015748031497,
                    "duration": 0.1627604166666572
                },
                {
                    "name": "A#5",
                    "midi": 82,
                    "time": 247.49999999999977,
                    "velocity": 0.7874015748031497,
                    "duration": 0.12369791666668561
                },
                {
                    "name": "A5",
                    "midi": 81,
                    "time": 247.59114583333312,
                    "velocity": 0.7874015748031497,
                    "duration": 0.12369791666665719
                },
                {
                    "name": "G5",
                    "midi": 79,
                    "time": 247.68880208333312,
                    "velocity": 0.7874015748031497,
                    "duration": 0.12369791666665719
                },
                {
                    "name": "F#5",
                    "midi": 78,
                    "time": 247.78645833333312,
                    "velocity": 0.7874015748031497,
                    "duration": 0.10416666666665719
                },
                {
                    "name": "G5",
                    "midi": 79,
                    "time": 247.88411458333312,
                    "velocity": 0.7874015748031497,
                    "duration": 0.2018229166666572
                },
                {
                    "name": "D5",
                    "midi": 74,
                    "time": 248.12499999999977,
                    "velocity": 0.7874015748031497,
                    "duration": 0.1432291666666572
                },
                {
                    "name": "G5",
                    "midi": 79,
                    "time": 248.3138020833331,
                    "velocity": 0.7874015748031497,
                    "duration": 0.1432291666666572
                },
                {
                    "name": "A#5",
                    "midi": 82,
                    "time": 248.5091145833331,
                    "velocity": 0.7874015748031497,
                    "duration": 0.1627604166666572
                },
                {
                    "name": "A5",
                    "midi": 81,
                    "time": 248.74999999999974,
                    "velocity": 0.7874015748031497,
                    "duration": 0.12369791666668561
                },
                {
                    "name": "G5",
                    "midi": 79,
                    "time": 248.8411458333331,
                    "velocity": 0.7874015748031497,
                    "duration": 0.12369791666665719
                },
                {
                    "name": "F5",
                    "midi": 77,
                    "time": 248.9388020833331,
                    "velocity": 0.7874015748031497,
                    "duration": 0.12369791666665719
                },
                {
                    "name": "E5",
                    "midi": 76,
                    "time": 249.0364583333331,
                    "velocity": 0.7874015748031497,
                    "duration": 0.10416666666665719
                },
                {
                    "name": "F5",
                    "midi": 77,
                    "time": 249.1341145833331,
                    "velocity": 0.7874015748031497,
                    "duration": 0.2018229166666572
                },
                {
                    "name": "D5",
                    "midi": 74,
                    "time": 249.37499999999974,
                    "velocity": 0.7874015748031497,
                    "duration": 0.1432291666666572
                },
                {
                    "name": "F5",
                    "midi": 77,
                    "time": 249.56380208333306,
                    "velocity": 0.7874015748031497,
                    "duration": 0.1432291666666572
                },
                {
                    "name": "A5",
                    "midi": 81,
                    "time": 249.75911458333306,
                    "velocity": 0.7874015748031497,
                    "duration": 0.1627604166666572
                },
                {
                    "name": "G#5",
                    "midi": 80,
                    "time": 249.99999999999972,
                    "velocity": 0.7874015748031497,
                    "duration": 0.12369791666668561
                },
                {
                    "name": "F#5",
                    "midi": 78,
                    "time": 250.09114583333306,
                    "velocity": 0.7874015748031497,
                    "duration": 0.12369791666665719
                },
                {
                    "name": "E5",
                    "midi": 76,
                    "time": 250.18880208333306,
                    "velocity": 0.7874015748031497,
                    "duration": 0.12369791666665719
                },
                {
                    "name": "D5",
                    "midi": 74,
                    "time": 250.28645833333306,
                    "velocity": 0.7874015748031497,
                    "duration": 0.10416666666665719
                },
                {
                    "name": "E5",
                    "midi": 76,
                    "time": 250.38411458333306,
                    "velocity": 0.7874015748031497,
                    "duration": 0.2018229166666572
                },
                {
                    "name": "D5",
                    "midi": 74,
                    "time": 250.62499999999972,
                    "velocity": 0.7874015748031497,
                    "duration": 0.1432291666666572
                },
                {
                    "name": "E5",
                    "midi": 76,
                    "time": 250.81380208333303,
                    "velocity": 0.7874015748031497,
                    "duration": 0.1432291666666572
                },
                {
                    "name": "G#5",
                    "midi": 80,
                    "time": 251.00911458333303,
                    "velocity": 0.7874015748031497,
                    "duration": 0.1888020833333428
                },
                {
                    "name": "C5",
                    "midi": 72,
                    "time": 251.24999999999972,
                    "velocity": 0.7874015748031497,
                    "duration": 0.12369791666668561
                },
                {
                    "name": "E5",
                    "midi": 76,
                    "time": 251.34114583333306,
                    "velocity": 0.7874015748031497,
                    "duration": 0.12369791666665719
                },
                {
                    "name": "F5",
                    "midi": 77,
                    "time": 251.43880208333306,
                    "velocity": 0.7874015748031497,
                    "duration": 0.12369791666665719
                },
                {
                    "name": "G5",
                    "midi": 79,
                    "time": 251.53645833333306,
                    "velocity": 0.7874015748031497,
                    "duration": 0.10416666666665719
                },
                {
                    "name": "A5",
                    "midi": 81,
                    "time": 251.63411458333306,
                    "velocity": 0.7874015748031497,
                    "duration": 0.2018229166666572
                },
                {
                    "name": "C5",
                    "midi": 72,
                    "time": 251.87499999999972,
                    "velocity": 0.7874015748031497,
                    "duration": 0.1432291666666572
                },
                {
                    "name": "F5",
                    "midi": 77,
                    "time": 252.06380208333303,
                    "velocity": 0.7874015748031497,
                    "duration": 0.1432291666666572
                },
                {
                    "name": "A5",
                    "midi": 81,
                    "time": 252.25911458333303,
                    "velocity": 0.7874015748031497,
                    "duration": 0.1627604166666572
                },
                {
                    "name": "A5",
                    "midi": 81,
                    "time": 252.4999999999997,
                    "velocity": 0.7874015748031497,
                    "duration": 0.12369791666668561
                },
                {
                    "name": "G5",
                    "midi": 79,
                    "time": 252.59114583333303,
                    "velocity": 0.7874015748031497,
                    "duration": 0.12369791666665719
                },
                {
                    "name": "F5",
                    "midi": 77,
                    "time": 252.68880208333303,
                    "velocity": 0.7874015748031497,
                    "duration": 0.12369791666665719
                },
                {
                    "name": "E5",
                    "midi": 76,
                    "time": 252.78645833333303,
                    "velocity": 0.7874015748031497,
                    "duration": 0.10416666666665719
                },
                {
                    "name": "F5",
                    "midi": 77,
                    "time": 252.88411458333303,
                    "velocity": 0.7874015748031497,
                    "duration": 0.2018229166666572
                },
                {
                    "name": "B4",
                    "midi": 71,
                    "time": 253.1249999999997,
                    "velocity": 0.7874015748031497,
                    "duration": 0.1432291666666572
                },
                {
                    "name": "F5",
                    "midi": 77,
                    "time": 253.313802083333,
                    "velocity": 0.7874015748031497,
                    "duration": 0.1432291666666572
                },
                {
                    "name": "A5",
                    "midi": 81,
                    "time": 253.509114583333,
                    "velocity": 0.7874015748031497,
                    "duration": 0.1627604166666572
                },
                {
                    "name": "B4",
                    "midi": 71,
                    "time": 253.74999999999966,
                    "velocity": 0.7874015748031497,
                    "duration": 0.12369791666668561
                },
                {
                    "name": "D5",
                    "midi": 74,
                    "time": 253.841145833333,
                    "velocity": 0.7874015748031497,
                    "duration": 0.12369791666665719
                },
                {
                    "name": "E5",
                    "midi": 76,
                    "time": 253.938802083333,
                    "velocity": 0.7874015748031497,
                    "duration": 0.12369791666665719
                },
                {
                    "name": "F#5",
                    "midi": 78,
                    "time": 254.036458333333,
                    "velocity": 0.7874015748031497,
                    "duration": 0.10416666666665719
                },
                {
                    "name": "G#5",
                    "midi": 80,
                    "time": 254.134114583333,
                    "velocity": 0.7874015748031497,
                    "duration": 0.2018229166666572
                },
                {
                    "name": "B4",
                    "midi": 71,
                    "time": 254.37499999999966,
                    "velocity": 0.7874015748031497,
                    "duration": 0.1432291666666572
                },
                {
                    "name": "D5",
                    "midi": 74,
                    "time": 254.56380208333297,
                    "velocity": 0.7874015748031497,
                    "duration": 0.1432291666666572
                },
                {
                    "name": "G#5",
                    "midi": 80,
                    "time": 254.75911458333297,
                    "velocity": 0.7874015748031497,
                    "duration": 0.1627604166666572
                },
                {
                    "name": "A5",
                    "midi": 81,
                    "time": 254.99999999999963,
                    "velocity": 0.7874015748031497,
                    "duration": 0.2083333333333428
                },
                {
                    "name": "E5",
                    "midi": 76,
                    "time": 257.49999999999966,
                    "velocity": 0.7874015748031497,
                    "duration": 0.3125
                },
                {
                    "name": "E4",
                    "midi": 64,
                    "time": 257.81249999999966,
                    "velocity": 0.7874015748031497,
                    "duration": 0.20833333333331439
                },
                {
                    "name": "E5",
                    "midi": 76,
                    "time": 257.96874999999966,
                    "velocity": 0.7874015748031497,
                    "duration": 0.10416666666662877
                },
                {
                    "name": "E4",
                    "midi": 64,
                    "time": 258.1249999999996,
                    "velocity": 0.7874015748031497,
                    "duration": 0.3059895833333144
                },
                {
                    "name": "E5",
                    "midi": 76,
                    "time": 258.2812499999996,
                    "velocity": 0.7874015748031497,
                    "duration": 0.20833333333331439
                },
                {
                    "name": "F4",
                    "midi": 65,
                    "time": 258.4374999999996,
                    "velocity": 0.7874015748031497,
                    "duration": 0.30598958333337123
                },
                {
                    "name": "E5",
                    "midi": 76,
                    "time": 258.5937499999996,
                    "velocity": 0.7874015748031497,
                    "duration": 0.10416666666668561
                },
                {
                    "name": "G4",
                    "midi": 67,
                    "time": 258.74999999999966,
                    "velocity": 0.7874015748031497,
                    "duration": 0.3059895833333144
                },
                {
                    "name": "E5",
                    "midi": 76,
                    "time": 258.90624999999966,
                    "velocity": 0.7874015748031497,
                    "duration": 0.3059895833333144
                },
                {
                    "name": "E4",
                    "midi": 64,
                    "time": 259.06249999999966,
                    "velocity": 0.7874015748031497,
                    "duration": 0.3059895833333144
                },
                {
                    "name": "E5",
                    "midi": 76,
                    "time": 259.21874999999966,
                    "velocity": 0.7874015748031497,
                    "duration": 0.3059895833333144
                },
                {
                    "name": "F4",
                    "midi": 65,
                    "time": 259.37499999999966,
                    "velocity": 0.7874015748031497,
                    "duration": 0.3059895833333144
                },
                {
                    "name": "E5",
                    "midi": 76,
                    "time": 259.53124999999966,
                    "velocity": 0.7874015748031497,
                    "duration": 0.3059895833333144
                },
                {
                    "name": "G4",
                    "midi": 67,
                    "time": 259.68749999999966,
                    "velocity": 0.7874015748031497,
                    "duration": 0.3059895833333144
                },
                {
                    "name": "E5",
                    "midi": 76,
                    "time": 259.84374999999966,
                    "velocity": 0.7874015748031497,
                    "duration": 0.14973958333331439
                },
                {
                    "name": "F4",
                    "midi": 65,
                    "time": 259.99999999999966,
                    "velocity": 0.7874015748031497,
                    "duration": 0.6184895833333144
                },
                {
                    "name": "E5",
                    "midi": 76,
                    "time": 260.15624999999966,
                    "velocity": 0.7874015748031497,
                    "duration": 0.14973958333331439
                },
                {
                    "name": "D5",
                    "midi": 74,
                    "time": 260.31249999999966,
                    "velocity": 0.7874015748031497,
                    "duration": 0.14973958333331439
                },
                {
                    "name": "C#5",
                    "midi": 73,
                    "time": 260.46874999999966,
                    "velocity": 0.7874015748031497,
                    "duration": 0.14973958333331439
                },
                {
                    "name": "D5",
                    "midi": 74,
                    "time": 260.62499999999966,
                    "velocity": 0.7874015748031497,
                    "duration": 0.14973958333331439
                },
                {
                    "name": "F4",
                    "midi": 65,
                    "time": 260.78124999999966,
                    "velocity": 0.7874015748031497,
                    "duration": 0.14973958333331439
                },
                {
                    "name": "D5",
                    "midi": 74,
                    "time": 260.93749999999966,
                    "velocity": 0.7874015748031497,
                    "duration": 0.14973958333331439
                },
                {
                    "name": "F4",
                    "midi": 65,
                    "time": 261.09374999999966,
                    "velocity": 0.7874015748031497,
                    "duration": 0.14973958333331439
                },
                {
                    "name": "E4",
                    "midi": 64,
                    "time": 261.24999999999966,
                    "velocity": 0.7874015748031497,
                    "duration": 0.14973958333331439
                },
                {
                    "name": "D5",
                    "midi": 74,
                    "time": 261.40624999999966,
                    "velocity": 0.7874015748031497,
                    "duration": 0.14973958333331439
                },
                {
                    "name": "C5",
                    "midi": 72,
                    "time": 261.56249999999966,
                    "velocity": 0.7874015748031497,
                    "duration": 0.14973958333331439
                },
                {
                    "name": "A#4",
                    "midi": 70,
                    "time": 261.71874999999966,
                    "velocity": 0.7874015748031497,
                    "duration": 0.14973958333331439
                },
                {
                    "name": "C5",
                    "midi": 72,
                    "time": 261.87499999999966,
                    "velocity": 0.7874015748031497,
                    "duration": 0.14973958333331439
                },
                {
                    "name": "D#4",
                    "midi": 63,
                    "time": 262.03124999999966,
                    "velocity": 0.7874015748031497,
                    "duration": 0.14973958333331439
                },
                {
                    "name": "C5",
                    "midi": 72,
                    "time": 262.18749999999966,
                    "velocity": 0.7874015748031497,
                    "duration": 0.14973958333331439
                },
                {
                    "name": "D#4",
                    "midi": 63,
                    "time": 262.34374999999966,
                    "velocity": 0.7874015748031497,
                    "duration": 0.14973958333331439
                },
                {
                    "name": "D4",
                    "midi": 62,
                    "time": 262.49999999999966,
                    "velocity": 0.7874015748031497,
                    "duration": 0.10416666666668561
                },
                {
                    "name": "C5",
                    "midi": 72,
                    "time": 262.65624999999966,
                    "velocity": 0.7874015748031497,
                    "duration": 0.14973958333331439
                },
                {
                    "name": "F#5",
                    "midi": 78,
                    "time": 262.81249999999966,
                    "velocity": 0.7874015748031497,
                    "duration": 0.14973958333331439
                },
                {
                    "name": "C5",
                    "midi": 72,
                    "time": 262.96874999999966,
                    "velocity": 0.7874015748031497,
                    "duration": 0.14973958333331439
                },
                {
                    "name": "A#4",
                    "midi": 70,
                    "time": 263.12499999999966,
                    "velocity": 0.7874015748031497,
                    "duration": 0.14973958333331439
                },
                {
                    "name": "D5",
                    "midi": 74,
                    "time": 263.28124999999966,
                    "velocity": 0.7874015748031497,
                    "duration": 0.14973958333331439
                },
                {
                    "name": "G5",
                    "midi": 79,
                    "time": 263.43749999999966,
                    "velocity": 0.7874015748031497,
                    "duration": 0.14973958333331439
                },
                {
                    "name": "D5",
                    "midi": 74,
                    "time": 263.59374999999966,
                    "velocity": 0.7874015748031497,
                    "duration": 0.14973958333331439
                },
                {
                    "name": "A4",
                    "midi": 69,
                    "time": 263.74999999999966,
                    "velocity": 0.7874015748031497,
                    "duration": 0.14973958333331439
                },
                {
                    "name": "C5",
                    "midi": 72,
                    "time": 263.90624999999966,
                    "velocity": 0.7874015748031497,
                    "duration": 0.14973958333331439
                },
                {
                    "name": "G5",
                    "midi": 79,
                    "time": 264.06249999999966,
                    "velocity": 0.7874015748031497,
                    "duration": 0.14973958333331439
                },
                {
                    "name": "C5",
                    "midi": 72,
                    "time": 264.21874999999966,
                    "velocity": 0.7874015748031497,
                    "duration": 0.14973958333331439
                },
                {
                    "name": "A4",
                    "midi": 69,
                    "time": 264.37499999999966,
                    "velocity": 0.7874015748031497,
                    "duration": 0.14973958333331439
                },
                {
                    "name": "C5",
                    "midi": 72,
                    "time": 264.53124999999966,
                    "velocity": 0.7874015748031497,
                    "duration": 0.14973958333331439
                },
                {
                    "name": "F#5",
                    "midi": 78,
                    "time": 264.68749999999966,
                    "velocity": 0.7874015748031497,
                    "duration": 0.14973958333331439
                },
                {
                    "name": "C5",
                    "midi": 72,
                    "time": 264.84374999999966,
                    "velocity": 0.7874015748031497,
                    "duration": 0.14973958333331439
                },
                {
                    "name": "G4",
                    "midi": 67,
                    "time": 264.99999999999966,
                    "velocity": 0.7874015748031497,
                    "duration": 0.20833333333331439
                },
                {
                    "name": "A#4",
                    "midi": 70,
                    "time": 264.99999999999966,
                    "velocity": 0.7874015748031497,
                    "duration": 0.20833333333331439
                },
                {
                    "name": "A#5",
                    "midi": 82,
                    "time": 265.31249999999966,
                    "velocity": 0.7874015748031497,
                    "duration": 0.14973958333331439
                },
                {
                    "name": "A5",
                    "midi": 81,
                    "time": 265.46874999999966,
                    "velocity": 0.7874015748031497,
                    "duration": 0.14973958333331439
                },
                {
                    "name": "G5",
                    "midi": 79,
                    "time": 265.62499999999966,
                    "velocity": 0.7874015748031497,
                    "duration": 0.14973958333331439
                },
                {
                    "name": "F5",
                    "midi": 77,
                    "time": 265.78124999999966,
                    "velocity": 0.7874015748031497,
                    "duration": 0.14973958333331439
                },
                {
                    "name": "D#5",
                    "midi": 75,
                    "time": 265.93749999999966,
                    "velocity": 0.7874015748031497,
                    "duration": 0.14973958333331439
                },
                {
                    "name": "D5",
                    "midi": 74,
                    "time": 266.09374999999966,
                    "velocity": 0.7874015748031497,
                    "duration": 0.14973958333331439
                },
                {
                    "name": "A4",
                    "midi": 69,
                    "time": 266.24999999999966,
                    "velocity": 0.7874015748031497,
                    "duration": 0.3059895833333144
                },
                {
                    "name": "C5",
                    "midi": 72,
                    "time": 266.24999999999966,
                    "velocity": 0.7874015748031497,
                    "duration": 0.14973958333331439
                },
                {
                    "name": "F5",
                    "midi": 77,
                    "time": 266.40624999999966,
                    "velocity": 0.7874015748031497,
                    "duration": 0.14973958333331439
                },
                {
                    "name": "A5",
                    "midi": 81,
                    "time": 266.56249999999966,
                    "velocity": 0.7874015748031497,
                    "duration": 0.14973958333331439
                },
                {
                    "name": "G5",
                    "midi": 79,
                    "time": 266.71874999999966,
                    "velocity": 0.7874015748031497,
                    "duration": 0.14973958333331439
                },
                {
                    "name": "F5",
                    "midi": 77,
                    "time": 266.87499999999966,
                    "velocity": 0.7874015748031497,
                    "duration": 0.14973958333331439
                },
                {
                    "name": "D#5",
                    "midi": 75,
                    "time": 267.03124999999966,
                    "velocity": 0.7874015748031497,
                    "duration": 0.14973958333331439
                },
                {
                    "name": "D5",
                    "midi": 74,
                    "time": 267.18749999999966,
                    "velocity": 0.7874015748031497,
                    "duration": 0.14973958333331439
                },
                {
                    "name": "C5",
                    "midi": 72,
                    "time": 267.34374999999966,
                    "velocity": 0.7874015748031497,
                    "duration": 0.14973958333331439
                },
                {
                    "name": "G4",
                    "midi": 67,
                    "time": 267.49999999999966,
                    "velocity": 0.7874015748031497,
                    "duration": 0.3059895833333144
                },
                {
                    "name": "A#4",
                    "midi": 70,
                    "time": 267.49999999999966,
                    "velocity": 0.7874015748031497,
                    "duration": 0.14973958333331439
                },
                {
                    "name": "D#5",
                    "midi": 75,
                    "time": 267.65624999999966,
                    "velocity": 0.7874015748031497,
                    "duration": 0.14973958333331439
                },
                {
                    "name": "G5",
                    "midi": 79,
                    "time": 267.81249999999966,
                    "velocity": 0.7874015748031497,
                    "duration": 0.14973958333331439
                },
                {
                    "name": "F5",
                    "midi": 77,
                    "time": 267.96874999999966,
                    "velocity": 0.7874015748031497,
                    "duration": 0.14973958333331439
                },
                {
                    "name": "D#5",
                    "midi": 75,
                    "time": 268.12499999999966,
                    "velocity": 0.7874015748031497,
                    "duration": 0.14973958333331439
                },
                {
                    "name": "D5",
                    "midi": 74,
                    "time": 268.28124999999966,
                    "velocity": 0.7874015748031497,
                    "duration": 0.14973958333331439
                },
                {
                    "name": "C5",
                    "midi": 72,
                    "time": 268.43749999999966,
                    "velocity": 0.7874015748031497,
                    "duration": 0.14973958333331439
                },
                {
                    "name": "A#4",
                    "midi": 70,
                    "time": 268.59374999999966,
                    "velocity": 0.7874015748031497,
                    "duration": 0.14973958333331439
                },
                {
                    "name": "A4",
                    "midi": 69,
                    "time": 268.74999999999966,
                    "velocity": 0.7874015748031497,
                    "duration": 0.14973958333331439
                },
                {
                    "name": "F4",
                    "midi": 65,
                    "time": 268.74999999999966,
                    "velocity": 0.7874015748031497,
                    "duration": 0.3059895833333144
                },
                {
                    "name": "D5",
                    "midi": 74,
                    "time": 268.90624999999966,
                    "velocity": 0.7874015748031497,
                    "duration": 0.14973958333331439
                },
                {
                    "name": "F5",
                    "midi": 77,
                    "time": 269.06249999999966,
                    "velocity": 0.7874015748031497,
                    "duration": 0.14973958333331439
                },
                {
                    "name": "D#5",
                    "midi": 75,
                    "time": 269.21874999999966,
                    "velocity": 0.7874015748031497,
                    "duration": 0.14973958333331439
                },
                {
                    "name": "D5",
                    "midi": 74,
                    "time": 269.37499999999966,
                    "velocity": 0.7874015748031497,
                    "duration": 0.14973958333331439
                },
                {
                    "name": "C5",
                    "midi": 72,
                    "time": 269.53124999999966,
                    "velocity": 0.7874015748031497,
                    "duration": 0.14973958333331439
                },
                {
                    "name": "A#4",
                    "midi": 70,
                    "time": 269.68749999999966,
                    "velocity": 0.7874015748031497,
                    "duration": 0.14973958333331439
                },
                {
                    "name": "A4",
                    "midi": 69,
                    "time": 269.84374999999966,
                    "velocity": 0.7874015748031497,
                    "duration": 0.14973958333331439
                },
                {
                    "name": "G4",
                    "midi": 67,
                    "time": 269.99999999999966,
                    "velocity": 0.7874015748031497,
                    "duration": 0.14973958333331439
                },
                {
                    "name": "D#4",
                    "midi": 63,
                    "time": 269.99999999999966,
                    "velocity": 0.7874015748031497,
                    "duration": 0.3059895833333144
                },
                {
                    "name": "C5",
                    "midi": 72,
                    "time": 270.15624999999966,
                    "velocity": 0.7874015748031497,
                    "duration": 0.14973958333331439
                },
                {
                    "name": "D#5",
                    "midi": 75,
                    "time": 270.31249999999966,
                    "velocity": 0.7874015748031497,
                    "duration": 0.14973958333331439
                },
                {
                    "name": "D5",
                    "midi": 74,
                    "time": 270.46874999999966,
                    "velocity": 0.7874015748031497,
                    "duration": 0.14973958333331439
                },
                {
                    "name": "C5",
                    "midi": 72,
                    "time": 270.62499999999966,
                    "velocity": 0.7874015748031497,
                    "duration": 0.14973958333331439
                },
                {
                    "name": "A#4",
                    "midi": 70,
                    "time": 270.78124999999966,
                    "velocity": 0.7874015748031497,
                    "duration": 0.14973958333331439
                },
                {
                    "name": "A4",
                    "midi": 69,
                    "time": 270.93749999999966,
                    "velocity": 0.7874015748031497,
                    "duration": 0.14973958333331439
                },
                {
                    "name": "G4",
                    "midi": 67,
                    "time": 271.09374999999966,
                    "velocity": 0.7874015748031497,
                    "duration": 0.14973958333331439
                },
                {
                    "name": "D4",
                    "midi": 62,
                    "time": 271.24999999999966,
                    "velocity": 0.7874015748031497,
                    "duration": 0.20833333333331439
                },
                {
                    "name": "F#4",
                    "midi": 66,
                    "time": 271.24999999999966,
                    "velocity": 0.7874015748031497,
                    "duration": 0.20833333333331439
                },
                {
                    "name": "G4",
                    "midi": 67,
                    "time": 278.74999999999966,
                    "velocity": 0.7874015748031497,
                    "duration": 0.3059895833333144
                },
                {
                    "name": "A#4",
                    "midi": 70,
                    "time": 278.74999999999966,
                    "velocity": 0.7874015748031497,
                    "duration": 0.14973958333331439
                },
                {
                    "name": "G5",
                    "midi": 79,
                    "time": 278.90624999999966,
                    "velocity": 0.7874015748031497,
                    "duration": 0.14973958333331439
                },
                {
                    "name": "F5",
                    "midi": 77,
                    "time": 279.06249999999966,
                    "velocity": 0.7874015748031497,
                    "duration": 0.14973958333331439
                },
                {
                    "name": "D#5",
                    "midi": 75,
                    "time": 279.21874999999966,
                    "velocity": 0.7874015748031497,
                    "duration": 0.14973958333331439
                },
                {
                    "name": "D5",
                    "midi": 74,
                    "time": 279.37499999999966,
                    "velocity": 0.7874015748031497,
                    "duration": 0.14973958333331439
                },
                {
                    "name": "C5",
                    "midi": 72,
                    "time": 279.53124999999966,
                    "velocity": 0.7874015748031497,
                    "duration": 0.14973958333331439
                },
                {
                    "name": "A#4",
                    "midi": 70,
                    "time": 279.68749999999966,
                    "velocity": 0.7874015748031497,
                    "duration": 0.14973958333331439
                },
                {
                    "name": "A4",
                    "midi": 69,
                    "time": 279.84374999999966,
                    "velocity": 0.7874015748031497,
                    "duration": 0.14973958333331439
                },
                {
                    "name": "G4",
                    "midi": 67,
                    "time": 279.99999999999966,
                    "velocity": 0.7874015748031497,
                    "duration": 0.07161458333331439
                },
                {
                    "name": "D5",
                    "midi": 74,
                    "time": 280.07812499999966,
                    "velocity": 0.7874015748031497,
                    "duration": 0.07161458333331439
                },
                {
                    "name": "G5",
                    "midi": 79,
                    "time": 280.15624999999966,
                    "velocity": 0.7874015748031497,
                    "duration": 0.07161458333331439
                },
                {
                    "name": "D5",
                    "midi": 74,
                    "time": 280.23437499999966,
                    "velocity": 0.7874015748031497,
                    "duration": 0.07161458333331439
                },
                {
                    "name": "A#4",
                    "midi": 70,
                    "time": 280.31249999999966,
                    "velocity": 0.7874015748031497,
                    "duration": 0.07161458333331439
                },
                {
                    "name": "D5",
                    "midi": 74,
                    "time": 280.39062499999966,
                    "velocity": 0.7874015748031497,
                    "duration": 0.07161458333331439
                },
                {
                    "name": "G5",
                    "midi": 79,
                    "time": 280.46874999999966,
                    "velocity": 0.7874015748031497,
                    "duration": 0.07161458333331439
                },
                {
                    "name": "D5",
                    "midi": 74,
                    "time": 280.54687499999966,
                    "velocity": 0.7874015748031497,
                    "duration": 0.07161458333331439
                },
                {
                    "name": "A#4",
                    "midi": 70,
                    "time": 280.62499999999966,
                    "velocity": 0.7874015748031497,
                    "duration": 0.07161458333331439
                },
                {
                    "name": "D5",
                    "midi": 74,
                    "time": 280.70312499999966,
                    "velocity": 0.7874015748031497,
                    "duration": 0.07161458333331439
                },
                {
                    "name": "G5",
                    "midi": 79,
                    "time": 280.78124999999966,
                    "velocity": 0.7874015748031497,
                    "duration": 0.07161458333331439
                },
                {
                    "name": "D5",
                    "midi": 74,
                    "time": 280.85937499999966,
                    "velocity": 0.7874015748031497,
                    "duration": 0.07161458333331439
                },
                {
                    "name": "A#4",
                    "midi": 70,
                    "time": 280.93749999999966,
                    "velocity": 0.7874015748031497,
                    "duration": 0.07161458333331439
                },
                {
                    "name": "D5",
                    "midi": 74,
                    "time": 281.01562499999966,
                    "velocity": 0.7874015748031497,
                    "duration": 0.07161458333331439
                },
                {
                    "name": "G5",
                    "midi": 79,
                    "time": 281.09374999999966,
                    "velocity": 0.7874015748031497,
                    "duration": 0.07161458333331439
                },
                {
                    "name": "D5",
                    "midi": 74,
                    "time": 281.17187499999966,
                    "velocity": 0.7874015748031497,
                    "duration": 0.07161458333331439
                },
                {
                    "name": "A#4",
                    "midi": 70,
                    "time": 281.24999999999966,
                    "velocity": 0.7874015748031497,
                    "duration": 0.07161458333331439
                },
                {
                    "name": "D5",
                    "midi": 74,
                    "time": 281.32812499999966,
                    "velocity": 0.7874015748031497,
                    "duration": 0.07161458333331439
                },
                {
                    "name": "G5",
                    "midi": 79,
                    "time": 281.40624999999966,
                    "velocity": 0.7874015748031497,
                    "duration": 0.07161458333331439
                },
                {
                    "name": "D5",
                    "midi": 74,
                    "time": 281.48437499999966,
                    "velocity": 0.7874015748031497,
                    "duration": 0.07161458333331439
                },
                {
                    "name": "A#4",
                    "midi": 70,
                    "time": 281.56249999999966,
                    "velocity": 0.7874015748031497,
                    "duration": 0.07161458333331439
                },
                {
                    "name": "D5",
                    "midi": 74,
                    "time": 281.64062499999966,
                    "velocity": 0.7874015748031497,
                    "duration": 0.07161458333331439
                },
                {
                    "name": "G5",
                    "midi": 79,
                    "time": 281.71874999999966,
                    "velocity": 0.7874015748031497,
                    "duration": 0.07161458333331439
                },
                {
                    "name": "D5",
                    "midi": 74,
                    "time": 281.79687499999966,
                    "velocity": 0.7874015748031497,
                    "duration": 0.07161458333331439
                },
                {
                    "name": "A#4",
                    "midi": 70,
                    "time": 281.87499999999966,
                    "velocity": 0.7874015748031497,
                    "duration": 0.07161458333331439
                },
                {
                    "name": "D5",
                    "midi": 74,
                    "time": 281.95312499999966,
                    "velocity": 0.7874015748031497,
                    "duration": 0.07161458333331439
                },
                {
                    "name": "G5",
                    "midi": 79,
                    "time": 282.03124999999966,
                    "velocity": 0.7874015748031497,
                    "duration": 0.07161458333331439
                },
                {
                    "name": "D5",
                    "midi": 74,
                    "time": 282.10937499999966,
                    "velocity": 0.7874015748031497,
                    "duration": 0.07161458333331439
                },
                {
                    "name": "A#4",
                    "midi": 70,
                    "time": 282.18749999999966,
                    "velocity": 0.7874015748031497,
                    "duration": 0.07161458333331439
                },
                {
                    "name": "D5",
                    "midi": 74,
                    "time": 282.26562499999966,
                    "velocity": 0.7874015748031497,
                    "duration": 0.07161458333331439
                },
                {
                    "name": "G5",
                    "midi": 79,
                    "time": 282.34374999999966,
                    "velocity": 0.7874015748031497,
                    "duration": 0.07161458333331439
                },
                {
                    "name": "D5",
                    "midi": 74,
                    "time": 282.42187499999966,
                    "velocity": 0.7874015748031497,
                    "duration": 0.07161458333331439
                },
                {
                    "name": "A4",
                    "midi": 69,
                    "time": 282.49999999999966,
                    "velocity": 0.7874015748031497,
                    "duration": 0.07161458333331439
                },
                {
                    "name": "C5",
                    "midi": 72,
                    "time": 282.57812499999966,
                    "velocity": 0.7874015748031497,
                    "duration": 0.07161458333331439
                },
                {
                    "name": "G5",
                    "midi": 79,
                    "time": 282.65624999999966,
                    "velocity": 0.7874015748031497,
                    "duration": 0.07161458333331439
                },
                {
                    "name": "C5",
                    "midi": 72,
                    "time": 282.73437499999966,
                    "velocity": 0.7874015748031497,
                    "duration": 0.07161458333331439
                },
                {
                    "name": "A4",
                    "midi": 69,
                    "time": 282.81249999999966,
                    "velocity": 0.7874015748031497,
                    "duration": 0.07161458333331439
                },
                {
                    "name": "C5",
                    "midi": 72,
                    "time": 282.89062499999966,
                    "velocity": 0.7874015748031497,
                    "duration": 0.07161458333331439
                },
                {
                    "name": "G5",
                    "midi": 79,
                    "time": 282.96874999999966,
                    "velocity": 0.7874015748031497,
                    "duration": 0.07161458333331439
                },
                {
                    "name": "C5",
                    "midi": 72,
                    "time": 283.04687499999966,
                    "velocity": 0.7874015748031497,
                    "duration": 0.07161458333331439
                },
                {
                    "name": "A4",
                    "midi": 69,
                    "time": 283.12499999999966,
                    "velocity": 0.7874015748031497,
                    "duration": 0.07161458333331439
                },
                {
                    "name": "C5",
                    "midi": 72,
                    "time": 283.20312499999966,
                    "velocity": 0.7874015748031497,
                    "duration": 0.07161458333331439
                },
                {
                    "name": "F#5",
                    "midi": 78,
                    "time": 283.28124999999966,
                    "velocity": 0.7874015748031497,
                    "duration": 0.07161458333331439
                },
                {
                    "name": "C5",
                    "midi": 72,
                    "time": 283.35937499999966,
                    "velocity": 0.7874015748031497,
                    "duration": 0.07161458333331439
                },
                {
                    "name": "A4",
                    "midi": 69,
                    "time": 283.43749999999966,
                    "velocity": 0.7874015748031497,
                    "duration": 0.07161458333331439
                },
                {
                    "name": "C5",
                    "midi": 72,
                    "time": 283.51562499999966,
                    "velocity": 0.7874015748031497,
                    "duration": 0.07161458333331439
                },
                {
                    "name": "F#5",
                    "midi": 78,
                    "time": 283.59374999999966,
                    "velocity": 0.7874015748031497,
                    "duration": 0.07161458333331439
                },
                {
                    "name": "C5",
                    "midi": 72,
                    "time": 283.67187499999966,
                    "velocity": 0.7874015748031497,
                    "duration": 0.07161458333331439
                },
                {
                    "name": "G4",
                    "midi": 67,
                    "time": 283.74999999999966,
                    "velocity": 0.7874015748031497,
                    "duration": 1.8684895833333144
                },
                {
                    "name": "A#4",
                    "midi": 70,
                    "time": 283.74999999999966,
                    "velocity": 0.7874015748031497,
                    "duration": 1.8684895833333144
                },
                {
                    "name": "D5",
                    "midi": 74,
                    "time": 283.74999999999966,
                    "velocity": 0.7874015748031497,
                    "duration": 1.8684895833333144
                },
                {
                    "name": "G5",
                    "midi": 79,
                    "time": 283.74999999999966,
                    "velocity": 0.7874015748031497,
                    "duration": 1.8684895833333144
                },
                {
                    "name": "F4",
                    "midi": 65,
                    "time": 321.24999999999966,
                    "velocity": 0.7874015748031497,
                    "duration": 0.20833333333331439
                },
                {
                    "name": "A4",
                    "midi": 69,
                    "time": 321.56249999999966,
                    "velocity": 0.7874015748031497,
                    "duration": 0.14973958333331439
                },
                {
                    "name": "G4",
                    "midi": 67,
                    "time": 321.71874999999966,
                    "velocity": 0.7874015748031497,
                    "duration": 0.14973958333331439
                },
                {
                    "name": "F4",
                    "midi": 65,
                    "time": 321.87499999999966,
                    "velocity": 0.7874015748031497,
                    "duration": 0.14973958333331439
                },
                {
                    "name": "E4",
                    "midi": 64,
                    "time": 322.03124999999966,
                    "velocity": 0.7874015748031497,
                    "duration": 0.10416666666668561
                },
                {
                    "name": "F4",
                    "midi": 65,
                    "time": 322.18749999999966,
                    "velocity": 0.7874015748031497,
                    "duration": 0.20833333333331439
                },
                {
                    "name": "A4",
                    "midi": 69,
                    "time": 322.49999999999966,
                    "velocity": 0.7874015748031497,
                    "duration": 0.14973958333331439
                },
                {
                    "name": "G4",
                    "midi": 67,
                    "time": 322.65624999999966,
                    "velocity": 0.7874015748031497,
                    "duration": 0.14973958333331439
                },
                {
                    "name": "F4",
                    "midi": 65,
                    "time": 322.81249999999966,
                    "velocity": 0.7874015748031497,
                    "duration": 0.14973958333331439
                },
                {
                    "name": "E4",
                    "midi": 64,
                    "time": 322.96874999999966,
                    "velocity": 0.7874015748031497,
                    "duration": 0.10416666666668561
                },
                {
                    "name": "F4",
                    "midi": 65,
                    "time": 323.12499999999966,
                    "velocity": 0.7874015748031497,
                    "duration": 0.3059895833333144
                },
                {
                    "name": "A4",
                    "midi": 69,
                    "time": 323.43749999999966,
                    "velocity": 0.7874015748031497,
                    "duration": 0.14973958333331439
                },
                {
                    "name": "G4",
                    "midi": 67,
                    "time": 323.59374999999966,
                    "velocity": 0.7874015748031497,
                    "duration": 0.14973958333331439
                },
                {
                    "name": "F4",
                    "midi": 65,
                    "time": 323.74999999999966,
                    "velocity": 0.7874015748031497,
                    "duration": 0.14973958333331439
                },
                {
                    "name": "E4",
                    "midi": 64,
                    "time": 323.90624999999966,
                    "velocity": 0.7874015748031497,
                    "duration": 0.10416666666668561
                },
                {
                    "name": "F4",
                    "midi": 65,
                    "time": 324.06249999999966,
                    "velocity": 0.7874015748031497,
                    "duration": 0.3059895833333144
                },
                {
                    "name": "A4",
                    "midi": 69,
                    "time": 324.37499999999966,
                    "velocity": 0.7874015748031497,
                    "duration": 0.14973958333331439
                },
                {
                    "name": "G4",
                    "midi": 67,
                    "time": 324.53124999999966,
                    "velocity": 0.7874015748031497,
                    "duration": 0.14973958333331439
                },
                {
                    "name": "F4",
                    "midi": 65,
                    "time": 324.68749999999966,
                    "velocity": 0.7874015748031497,
                    "duration": 0.14973958333331439
                },
                {
                    "name": "E4",
                    "midi": 64,
                    "time": 324.84374999999966,
                    "velocity": 0.7874015748031497,
                    "duration": 0.10416666666668561
                },
                {
                    "name": "D4",
                    "midi": 62,
                    "time": 324.99999999999966,
                    "velocity": 0.7874015748031497,
                    "duration": 0.6184895833333144
                },
                {
                    "name": "G4",
                    "midi": 67,
                    "time": 324.99999999999966,
                    "velocity": 0.7874015748031497,
                    "duration": 0.3059895833333144
                },
                {
                    "name": "A#4",
                    "midi": 70,
                    "time": 325.31249999999966,
                    "velocity": 0.7874015748031497,
                    "duration": 0.14973958333331439
                },
                {
                    "name": "A4",
                    "midi": 69,
                    "time": 325.46874999999966,
                    "velocity": 0.7874015748031497,
                    "duration": 0.14973958333331439
                },
                {
                    "name": "G4",
                    "midi": 67,
                    "time": 325.62499999999966,
                    "velocity": 0.7874015748031497,
                    "duration": 0.14973958333331439
                },
                {
                    "name": "F#4",
                    "midi": 66,
                    "time": 325.78124999999966,
                    "velocity": 0.7874015748031497,
                    "duration": 0.14973958333331439
                },
                {
                    "name": "G4",
                    "midi": 67,
                    "time": 325.93749999999966,
                    "velocity": 0.7874015748031497,
                    "duration": 0.3059895833333144
                },
                {
                    "name": "A#4",
                    "midi": 70,
                    "time": 326.24999999999966,
                    "velocity": 0.7874015748031497,
                    "duration": 0.14973958333331439
                },
                {
                    "name": "A4",
                    "midi": 69,
                    "time": 326.40624999999966,
                    "velocity": 0.7874015748031497,
                    "duration": 0.14973958333331439
                },
                {
                    "name": "G4",
                    "midi": 67,
                    "time": 326.56249999999966,
                    "velocity": 0.7874015748031497,
                    "duration": 0.14973958333331439
                },
                {
                    "name": "F#4",
                    "midi": 66,
                    "time": 326.71874999999966,
                    "velocity": 0.7874015748031497,
                    "duration": 0.14973958333331439
                },
                {
                    "name": "G4",
                    "midi": 67,
                    "time": 326.87499999999966,
                    "velocity": 0.7874015748031497,
                    "duration": 0.3059895833333144
                },
                {
                    "name": "A#4",
                    "midi": 70,
                    "time": 327.18749999999966,
                    "velocity": 0.7874015748031497,
                    "duration": 0.14973958333331439
                },
                {
                    "name": "A4",
                    "midi": 69,
                    "time": 327.34374999999966,
                    "velocity": 0.7874015748031497,
                    "duration": 0.14973958333331439
                },
                {
                    "name": "G4",
                    "midi": 67,
                    "time": 327.49999999999966,
                    "velocity": 0.7874015748031497,
                    "duration": 0.14973958333331439
                },
                {
                    "name": "F#4",
                    "midi": 66,
                    "time": 327.65624999999966,
                    "velocity": 0.7874015748031497,
                    "duration": 0.14973958333331439
                },
                {
                    "name": "G4",
                    "midi": 67,
                    "time": 327.81249999999966,
                    "velocity": 0.7874015748031497,
                    "duration": 0.3059895833333144
                },
                {
                    "name": "A#4",
                    "midi": 70,
                    "time": 328.12499999999966,
                    "velocity": 0.7874015748031497,
                    "duration": 0.14973958333331439
                },
                {
                    "name": "A4",
                    "midi": 69,
                    "time": 328.28124999999966,
                    "velocity": 0.7874015748031497,
                    "duration": 0.14973958333331439
                },
                {
                    "name": "G4",
                    "midi": 67,
                    "time": 328.43749999999966,
                    "velocity": 0.7874015748031497,
                    "duration": 0.20833333333331439
                },
                {
                    "name": "A4",
                    "midi": 69,
                    "time": 328.74999999999966,
                    "velocity": 0.7874015748031497,
                    "duration": 0.3059895833333144
                },
                {
                    "name": "C5",
                    "midi": 72,
                    "time": 329.06249999999966,
                    "velocity": 0.7874015748031497,
                    "duration": 0.14973958333331439
                },
                {
                    "name": "A#4",
                    "midi": 70,
                    "time": 329.21874999999966,
                    "velocity": 0.7874015748031497,
                    "duration": 0.14973958333331439
                },
                {
                    "name": "A4",
                    "midi": 69,
                    "time": 329.37499999999966,
                    "velocity": 0.7874015748031497,
                    "duration": 0.14973958333331439
                },
                {
                    "name": "G4",
                    "midi": 67,
                    "time": 329.53124999999966,
                    "velocity": 0.7874015748031497,
                    "duration": 0.14973958333331439
                },
                {
                    "name": "A4",
                    "midi": 69,
                    "time": 329.68749999999966,
                    "velocity": 0.7874015748031497,
                    "duration": 0.3059895833333144
                },
                {
                    "name": "C5",
                    "midi": 72,
                    "time": 329.99999999999966,
                    "velocity": 0.7874015748031497,
                    "duration": 0.14973958333331439
                },
                {
                    "name": "A#4",
                    "midi": 70,
                    "time": 330.15624999999966,
                    "velocity": 0.7874015748031497,
                    "duration": 0.14973958333331439
                },
                {
                    "name": "A4",
                    "midi": 69,
                    "time": 330.31249999999966,
                    "velocity": 0.7874015748031497,
                    "duration": 0.14973958333331439
                },
                {
                    "name": "G4",
                    "midi": 67,
                    "time": 330.46874999999966,
                    "velocity": 0.7874015748031497,
                    "duration": 0.14973958333331439
                },
                {
                    "name": "A4",
                    "midi": 69,
                    "time": 330.62499999999966,
                    "velocity": 0.7874015748031497,
                    "duration": 0.3059895833333144
                },
                {
                    "name": "C5",
                    "midi": 72,
                    "time": 330.93749999999966,
                    "velocity": 0.7874015748031497,
                    "duration": 0.14973958333331439
                },
                {
                    "name": "A#4",
                    "midi": 70,
                    "time": 331.09374999999966,
                    "velocity": 0.7874015748031497,
                    "duration": 0.14973958333331439
                },
                {
                    "name": "A4",
                    "midi": 69,
                    "time": 331.24999999999966,
                    "velocity": 0.7874015748031497,
                    "duration": 0.14973958333331439
                },
                {
                    "name": "G4",
                    "midi": 67,
                    "time": 331.40624999999966,
                    "velocity": 0.7874015748031497,
                    "duration": 0.14973958333331439
                },
                {
                    "name": "A4",
                    "midi": 69,
                    "time": 331.56249999999966,
                    "velocity": 0.7874015748031497,
                    "duration": 0.3059895833333144
                },
                {
                    "name": "C5",
                    "midi": 72,
                    "time": 331.87499999999966,
                    "velocity": 0.7874015748031497,
                    "duration": 0.14973958333331439
                },
                {
                    "name": "A#4",
                    "midi": 70,
                    "time": 332.03124999999966,
                    "velocity": 0.7874015748031497,
                    "duration": 0.14973958333331439
                },
                {
                    "name": "A4",
                    "midi": 69,
                    "time": 332.18749999999966,
                    "velocity": 0.7874015748031497,
                    "duration": 0.14973958333331439
                },
                {
                    "name": "G4",
                    "midi": 67,
                    "time": 332.34374999999966,
                    "velocity": 0.7874015748031497,
                    "duration": 0.14973958333331439
                },
                {
                    "name": "F4",
                    "midi": 65,
                    "time": 332.49999999999966,
                    "velocity": 0.7874015748031497,
                    "duration": 0.6184895833333144
                },
                {
                    "name": "A#4",
                    "midi": 70,
                    "time": 332.49999999999966,
                    "velocity": 0.7874015748031497,
                    "duration": 0.3059895833333144
                },
                {
                    "name": "D5",
                    "midi": 74,
                    "time": 332.81249999999966,
                    "velocity": 0.7874015748031497,
                    "duration": 0.14973958333331439
                },
                {
                    "name": "C5",
                    "midi": 72,
                    "time": 332.96874999999966,
                    "velocity": 0.7874015748031497,
                    "duration": 0.14973958333331439
                },
                {
                    "name": "A#4",
                    "midi": 70,
                    "time": 333.12499999999966,
                    "velocity": 0.7874015748031497,
                    "duration": 0.14973958333331439
                },
                {
                    "name": "A4",
                    "midi": 69,
                    "time": 333.28124999999966,
                    "velocity": 0.7874015748031497,
                    "duration": 0.14973958333331439
                },
                {
                    "name": "A#4",
                    "midi": 70,
                    "time": 333.43749999999966,
                    "velocity": 0.7874015748031497,
                    "duration": 0.3059895833333144
                },
                {
                    "name": "D5",
                    "midi": 74,
                    "time": 333.74999999999966,
                    "velocity": 0.7874015748031497,
                    "duration": 0.14973958333331439
                },
                {
                    "name": "C5",
                    "midi": 72,
                    "time": 333.90624999999966,
                    "velocity": 0.7874015748031497,
                    "duration": 0.14973958333331439
                },
                {
                    "name": "A#4",
                    "midi": 70,
                    "time": 334.06249999999966,
                    "velocity": 0.7874015748031497,
                    "duration": 0.14973958333331439
                },
                {
                    "name": "A4",
                    "midi": 69,
                    "time": 334.21874999999966,
                    "velocity": 0.7874015748031497,
                    "duration": 0.14973958333331439
                },
                {
                    "name": "A#4",
                    "midi": 70,
                    "time": 334.37499999999966,
                    "velocity": 0.7874015748031497,
                    "duration": 0.3059895833333144
                },
                {
                    "name": "D5",
                    "midi": 74,
                    "time": 334.68749999999966,
                    "velocity": 0.7874015748031497,
                    "duration": 0.14973958333331439
                },
                {
                    "name": "C5",
                    "midi": 72,
                    "time": 334.84374999999966,
                    "velocity": 0.7874015748031497,
                    "duration": 0.14973958333331439
                },
                {
                    "name": "A#4",
                    "midi": 70,
                    "time": 334.99999999999966,
                    "velocity": 0.7874015748031497,
                    "duration": 0.14973958333331439
                },
                {
                    "name": "A4",
                    "midi": 69,
                    "time": 335.15624999999966,
                    "velocity": 0.7874015748031497,
                    "duration": 0.14973958333331439
                },
                {
                    "name": "A#4",
                    "midi": 70,
                    "time": 335.31249999999966,
                    "velocity": 0.7874015748031497,
                    "duration": 0.3059895833333144
                },
                {
                    "name": "D5",
                    "midi": 74,
                    "time": 335.62499999999966,
                    "velocity": 0.7874015748031497,
                    "duration": 0.14973958333331439
                },
                {
                    "name": "C5",
                    "midi": 72,
                    "time": 335.78124999999966,
                    "velocity": 0.7874015748031497,
                    "duration": 0.14973958333331439
                },
                {
                    "name": "A#4",
                    "midi": 70,
                    "time": 335.93749999999966,
                    "velocity": 0.7874015748031497,
                    "duration": 0.14973958333331439
                },
                {
                    "name": "A4",
                    "midi": 69,
                    "time": 336.09374999999966,
                    "velocity": 0.7874015748031497,
                    "duration": 0.14973958333331439
                },
                {
                    "name": "G4",
                    "midi": 67,
                    "time": 336.24999999999966,
                    "velocity": 0.7874015748031497,
                    "duration": 0.4166666666666856
                },
                {
                    "name": "E5",
                    "midi": 76,
                    "time": 336.24999999999966,
                    "velocity": 0.7874015748031497,
                    "duration": 0.20833333333331439
                },
                {
                    "name": "A#4",
                    "midi": 70,
                    "time": 336.56249999999966,
                    "velocity": 0.7874015748031497,
                    "duration": 0.20833333333337123
                },
                {
                    "name": "A4",
                    "midi": 69,
                    "time": 336.8749999999997,
                    "velocity": 0.7874015748031497,
                    "duration": 0.20833333333331439
                },
                {
                    "name": "G4",
                    "midi": 67,
                    "time": 337.1874999999997,
                    "velocity": 0.7874015748031497,
                    "duration": 0.14973958333331439
                },
                {
                    "name": "A4",
                    "midi": 69,
                    "time": 337.3437499999997,
                    "velocity": 0.7874015748031497,
                    "duration": 0.14973958333331439
                },
                {
                    "name": "A#4",
                    "midi": 70,
                    "time": 337.4999999999997,
                    "velocity": 0.7874015748031497,
                    "duration": 0.14973958333331439
                },
                {
                    "name": "A4",
                    "midi": 69,
                    "time": 337.6562499999997,
                    "velocity": 0.7874015748031497,
                    "duration": 0.14973958333331439
                },
                {
                    "name": "G4",
                    "midi": 67,
                    "time": 337.8124999999997,
                    "velocity": 0.7874015748031497,
                    "duration": 0.3059895833333144
                },
                {
                    "name": "E5",
                    "midi": 76,
                    "time": 338.1249999999997,
                    "velocity": 0.7874015748031497,
                    "duration": 0.20833333333331439
                },
                {
                    "name": "A#4",
                    "midi": 70,
                    "time": 338.4374999999997,
                    "velocity": 0.7874015748031497,
                    "duration": 0.20833333333331439
                },
                {
                    "name": "A4",
                    "midi": 69,
                    "time": 338.7499999999997,
                    "velocity": 0.7874015748031497,
                    "duration": 0.20833333333331439
                },
                {
                    "name": "G4",
                    "midi": 67,
                    "time": 339.0624999999997,
                    "velocity": 0.7874015748031497,
                    "duration": 0.14973958333331439
                },
                {
                    "name": "A4",
                    "midi": 69,
                    "time": 339.2187499999997,
                    "velocity": 0.7874015748031497,
                    "duration": 0.14973958333331439
                },
                {
                    "name": "A#4",
                    "midi": 70,
                    "time": 339.3749999999997,
                    "velocity": 0.7874015748031497,
                    "duration": 0.14973958333331439
                },
                {
                    "name": "A4",
                    "midi": 69,
                    "time": 339.5312499999997,
                    "velocity": 0.7874015748031497,
                    "duration": 0.14973958333331439
                },
                {
                    "name": "G4",
                    "midi": 67,
                    "time": 339.6874999999997,
                    "velocity": 0.7874015748031497,
                    "duration": 0.3059895833333144
                },
                {
                    "name": "F5",
                    "midi": 77,
                    "time": 339.9999999999997,
                    "velocity": 0.7874015748031497,
                    "duration": 0.20833333333331439
                },
                {
                    "name": "C5",
                    "midi": 72,
                    "time": 340.3124999999997,
                    "velocity": 0.7874015748031497,
                    "duration": 0.20833333333331439
                },
                {
                    "name": "A#4",
                    "midi": 70,
                    "time": 340.6249999999997,
                    "velocity": 0.7874015748031497,
                    "duration": 0.20833333333331439
                },
                {
                    "name": "A4",
                    "midi": 69,
                    "time": 340.9374999999997,
                    "velocity": 0.7874015748031497,
                    "duration": 0.14973958333331439
                },
                {
                    "name": "A#4",
                    "midi": 70,
                    "time": 341.0937499999997,
                    "velocity": 0.7874015748031497,
                    "duration": 0.14973958333331439
                },
                {
                    "name": "C5",
                    "midi": 72,
                    "time": 341.2499999999997,
                    "velocity": 0.7874015748031497,
                    "duration": 0.14973958333331439
                },
                {
                    "name": "A#4",
                    "midi": 70,
                    "time": 341.4062499999997,
                    "velocity": 0.7874015748031497,
                    "duration": 0.14973958333331439
                },
                {
                    "name": "A4",
                    "midi": 69,
                    "time": 341.5624999999997,
                    "velocity": 0.7874015748031497,
                    "duration": 0.3059895833333144
                },
                {
                    "name": "F5",
                    "midi": 77,
                    "time": 341.8749999999997,
                    "velocity": 0.7874015748031497,
                    "duration": 0.20833333333331439
                },
                {
                    "name": "C5",
                    "midi": 72,
                    "time": 342.1874999999997,
                    "velocity": 0.7874015748031497,
                    "duration": 0.20833333333331439
                },
                {
                    "name": "A#4",
                    "midi": 70,
                    "time": 342.4999999999997,
                    "velocity": 0.7874015748031497,
                    "duration": 0.20833333333331439
                },
                {
                    "name": "A4",
                    "midi": 69,
                    "time": 342.8124999999997,
                    "velocity": 0.7874015748031497,
                    "duration": 0.14973958333331439
                },
                {
                    "name": "A#4",
                    "midi": 70,
                    "time": 342.9687499999997,
                    "velocity": 0.7874015748031497,
                    "duration": 0.14973958333331439
                },
                {
                    "name": "C5",
                    "midi": 72,
                    "time": 343.1249999999997,
                    "velocity": 0.7874015748031497,
                    "duration": 0.14973958333331439
                },
                {
                    "name": "A#4",
                    "midi": 70,
                    "time": 343.2812499999997,
                    "velocity": 0.7874015748031497,
                    "duration": 0.14973958333331439
                },
                {
                    "name": "A4",
                    "midi": 69,
                    "time": 343.4374999999997,
                    "velocity": 0.7874015748031497,
                    "duration": 0.3059895833333144
                },
                {
                    "name": "G5",
                    "midi": 79,
                    "time": 343.7499999999997,
                    "velocity": 0.7874015748031497,
                    "duration": 0.3059895833333144
                },
                {
                    "name": "E5",
                    "midi": 76,
                    "time": 344.0624999999997,
                    "velocity": 0.7874015748031497,
                    "duration": 0.3059895833333144
                },
                {
                    "name": "C5",
                    "midi": 72,
                    "time": 344.3749999999997,
                    "velocity": 0.7874015748031497,
                    "duration": 0.20833333333331439
                },
                {
                    "name": "F5",
                    "midi": 77,
                    "time": 344.6874999999997,
                    "velocity": 0.7874015748031497,
                    "duration": 0.3059895833333144
                },
                {
                    "name": "G5",
                    "midi": 79,
                    "time": 344.9999999999997,
                    "velocity": 0.7874015748031497,
                    "duration": 0.3059895833333144
                },
                {
                    "name": "E5",
                    "midi": 76,
                    "time": 345.3124999999997,
                    "velocity": 0.7874015748031497,
                    "duration": 0.20833333333331439
                },
                {
                    "name": "F5",
                    "midi": 77,
                    "time": 345.6249999999997,
                    "velocity": 0.7874015748031497,
                    "duration": 0.3059895833333144
                },
                {
                    "name": "A5",
                    "midi": 81,
                    "time": 345.9374999999997,
                    "velocity": 0.7874015748031497,
                    "duration": 0.3059895833333144
                },
                {
                    "name": "C5",
                    "midi": 72,
                    "time": 346.2499999999997,
                    "velocity": 0.7874015748031497,
                    "duration": 0.20833333333331439
                },
                {
                    "name": "D5",
                    "midi": 74,
                    "time": 346.5624999999997,
                    "velocity": 0.7874015748031497,
                    "duration": 0.3059895833333144
                },
                {
                    "name": "F5",
                    "midi": 77,
                    "time": 346.8749999999997,
                    "velocity": 0.7874015748031497,
                    "duration": 0.3059895833333144
                },
                {
                    "name": "A#4",
                    "midi": 70,
                    "time": 347.1874999999997,
                    "velocity": 0.7874015748031497,
                    "duration": 0.20833333333331439
                },
                {
                    "name": "C5",
                    "midi": 72,
                    "time": 347.4999999999997,
                    "velocity": 0.7874015748031497,
                    "duration": 0.3059895833333144
                },
                {
                    "name": "A4",
                    "midi": 69,
                    "time": 347.8124999999997,
                    "velocity": 0.7874015748031497,
                    "duration": 0.14973958333331439
                },
                {
                    "name": "A#4",
                    "midi": 70,
                    "time": 347.9687499999997,
                    "velocity": 0.7874015748031497,
                    "duration": 0.14973958333331439
                },
                {
                    "name": "C5",
                    "midi": 72,
                    "time": 348.1249999999997,
                    "velocity": 0.7874015748031497,
                    "duration": 0.20833333333331439
                },
                {
                    "name": "C5",
                    "midi": 72,
                    "time": 348.4374999999997,
                    "velocity": 0.7874015748031497,
                    "duration": 0.3059895833333144
                },
                {
                    "name": "A4",
                    "midi": 69,
                    "time": 348.7499999999997,
                    "velocity": 0.7874015748031497,
                    "duration": 0.14973958333331439
                },
                {
                    "name": "A#4",
                    "midi": 70,
                    "time": 348.9062499999997,
                    "velocity": 0.7874015748031497,
                    "duration": 0.14973958333331439
                },
                {
                    "name": "C5",
                    "midi": 72,
                    "time": 349.0624999999997,
                    "velocity": 0.7874015748031497,
                    "duration": 0.20833333333331439
                },
                {
                    "name": "D5",
                    "midi": 74,
                    "time": 349.3749999999997,
                    "velocity": 0.7874015748031497,
                    "duration": 0.3059895833333144
                },
                {
                    "name": "A#4",
                    "midi": 70,
                    "time": 349.6874999999997,
                    "velocity": 0.7874015748031497,
                    "duration": 0.14973958333331439
                },
                {
                    "name": "C5",
                    "midi": 72,
                    "time": 349.8437499999997,
                    "velocity": 0.7874015748031497,
                    "duration": 0.14973958333331439
                },
                {
                    "name": "D5",
                    "midi": 74,
                    "time": 349.9999999999997,
                    "velocity": 0.7874015748031497,
                    "duration": 0.20833333333331439
                },
                {
                    "name": "D5",
                    "midi": 74,
                    "time": 350.3124999999997,
                    "velocity": 0.7874015748031497,
                    "duration": 0.3059895833333144
                },
                {
                    "name": "A#4",
                    "midi": 70,
                    "time": 350.6249999999997,
                    "velocity": 0.7874015748031497,
                    "duration": 0.14973958333331439
                },
                {
                    "name": "C5",
                    "midi": 72,
                    "time": 350.7812499999997,
                    "velocity": 0.7874015748031497,
                    "duration": 0.14973958333331439
                },
                {
                    "name": "D5",
                    "midi": 74,
                    "time": 350.9374999999997,
                    "velocity": 0.7874015748031497,
                    "duration": 0.20833333333331439
                },
                {
                    "name": "E5",
                    "midi": 76,
                    "time": 351.2499999999997,
                    "velocity": 0.7874015748031497,
                    "duration": 0.3059895833333144
                },
                {
                    "name": "C5",
                    "midi": 72,
                    "time": 351.5624999999997,
                    "velocity": 0.7874015748031497,
                    "duration": 0.14973958333331439
                },
                {
                    "name": "D5",
                    "midi": 74,
                    "time": 351.7187499999997,
                    "velocity": 0.7874015748031497,
                    "duration": 0.14973958333331439
                },
                {
                    "name": "E5",
                    "midi": 76,
                    "time": 351.8749999999997,
                    "velocity": 0.7874015748031497,
                    "duration": 0.20833333333331439
                },
                {
                    "name": "E5",
                    "midi": 76,
                    "time": 352.1874999999997,
                    "velocity": 0.7874015748031497,
                    "duration": 0.3059895833333144
                },
                {
                    "name": "C5",
                    "midi": 72,
                    "time": 352.4999999999997,
                    "velocity": 0.7874015748031497,
                    "duration": 0.14973958333331439
                },
                {
                    "name": "D5",
                    "midi": 74,
                    "time": 352.6562499999997,
                    "velocity": 0.7874015748031497,
                    "duration": 0.14973958333331439
                },
                {
                    "name": "E5",
                    "midi": 76,
                    "time": 352.8124999999997,
                    "velocity": 0.7874015748031497,
                    "duration": 0.20833333333331439
                },
                {
                    "name": "F5",
                    "midi": 77,
                    "time": 353.1249999999997,
                    "velocity": 0.7874015748031497,
                    "duration": 0.3059895833333144
                },
                {
                    "name": "D5",
                    "midi": 74,
                    "time": 353.4374999999997,
                    "velocity": 0.7874015748031497,
                    "duration": 0.14973958333331439
                },
                {
                    "name": "E5",
                    "midi": 76,
                    "time": 353.5937499999997,
                    "velocity": 0.7874015748031497,
                    "duration": 0.14973958333331439
                },
                {
                    "name": "F5",
                    "midi": 77,
                    "time": 353.7499999999997,
                    "velocity": 0.7874015748031497,
                    "duration": 0.20833333333331439
                },
                {
                    "name": "F5",
                    "midi": 77,
                    "time": 354.0624999999997,
                    "velocity": 0.7874015748031497,
                    "duration": 0.3059895833333144
                },
                {
                    "name": "D5",
                    "midi": 74,
                    "time": 354.3749999999997,
                    "velocity": 0.7874015748031497,
                    "duration": 0.14973958333331439
                },
                {
                    "name": "E5",
                    "midi": 76,
                    "time": 354.5312499999997,
                    "velocity": 0.7874015748031497,
                    "duration": 0.14973958333331439
                },
                {
                    "name": "F5",
                    "midi": 77,
                    "time": 354.6874999999997,
                    "velocity": 0.7874015748031497,
                    "duration": 0.20833333333331439
                },
                {
                    "name": "G5",
                    "midi": 79,
                    "time": 354.9999999999997,
                    "velocity": 0.7874015748031497,
                    "duration": 0.3059895833333144
                },
                {
                    "name": "E5",
                    "midi": 76,
                    "time": 355.3124999999997,
                    "velocity": 0.7874015748031497,
                    "duration": 0.14973958333331439
                },
                {
                    "name": "F5",
                    "midi": 77,
                    "time": 355.4687499999997,
                    "velocity": 0.7874015748031497,
                    "duration": 0.14973958333331439
                },
                {
                    "name": "G5",
                    "midi": 79,
                    "time": 355.6249999999997,
                    "velocity": 0.7874015748031497,
                    "duration": 0.20833333333331439
                },
                {
                    "name": "G5",
                    "midi": 79,
                    "time": 355.9374999999997,
                    "velocity": 0.7874015748031497,
                    "duration": 0.3059895833333144
                },
                {
                    "name": "E5",
                    "midi": 76,
                    "time": 356.2499999999997,
                    "velocity": 0.7874015748031497,
                    "duration": 0.14973958333331439
                },
                {
                    "name": "F5",
                    "midi": 77,
                    "time": 356.4062499999997,
                    "velocity": 0.7874015748031497,
                    "duration": 0.14973958333331439
                },
                {
                    "name": "G5",
                    "midi": 79,
                    "time": 356.5624999999997,
                    "velocity": 0.7874015748031497,
                    "duration": 0.20833333333331439
                },
                {
                    "name": "A5",
                    "midi": 81,
                    "time": 356.8749999999997,
                    "velocity": 0.7874015748031497,
                    "duration": 0.20833333333331439
                },
                {
                    "name": "A#5",
                    "midi": 82,
                    "time": 357.1874999999997,
                    "velocity": 0.7874015748031497,
                    "duration": 0.14973958333331439
                },
                {
                    "name": "A5",
                    "midi": 81,
                    "time": 357.3437499999997,
                    "velocity": 0.7874015748031497,
                    "duration": 0.14973958333331439
                },
                {
                    "name": "G5",
                    "midi": 79,
                    "time": 357.4999999999997,
                    "velocity": 0.7874015748031497,
                    "duration": 0.14973958333331439
                },
                {
                    "name": "F5",
                    "midi": 77,
                    "time": 357.6562499999997,
                    "velocity": 0.7874015748031497,
                    "duration": 0.10416666666668561
                },
                {
                    "name": "A5",
                    "midi": 81,
                    "time": 357.8124999999997,
                    "velocity": 0.7874015748031497,
                    "duration": 0.20833333333331439
                },
                {
                    "name": "A#5",
                    "midi": 82,
                    "time": 358.1249999999997,
                    "velocity": 0.7874015748031497,
                    "duration": 0.14973958333331439
                },
                {
                    "name": "A5",
                    "midi": 81,
                    "time": 358.2812499999997,
                    "velocity": 0.7874015748031497,
                    "duration": 0.14973958333331439
                },
                {
                    "name": "G5",
                    "midi": 79,
                    "time": 358.4374999999997,
                    "velocity": 0.7874015748031497,
                    "duration": 0.14973958333331439
                },
                {
                    "name": "F5",
                    "midi": 77,
                    "time": 358.5937499999997,
                    "velocity": 0.7874015748031497,
                    "duration": 0.10416666666668561
                },
                {
                    "name": "A#5",
                    "midi": 82,
                    "time": 358.7499999999997,
                    "velocity": 0.7874015748031497,
                    "duration": 0.6184895833333144
                },
                {
                    "name": "F5",
                    "midi": 77,
                    "time": 359.3749999999997,
                    "velocity": 0.7874015748031497,
                    "duration": 0.3059895833333144
                },
                {
                    "name": "G5",
                    "midi": 79,
                    "time": 359.6874999999997,
                    "velocity": 0.7874015748031497,
                    "duration": 0.3059895833333144
                },
                {
                    "name": "A5",
                    "midi": 81,
                    "time": 359.9999999999997,
                    "velocity": 0.7874015748031497,
                    "duration": 0.14973958333331439
                },
                {
                    "name": "G5",
                    "midi": 79,
                    "time": 360.1562499999997,
                    "velocity": 0.7874015748031497,
                    "duration": 0.14973958333331439
                },
                {
                    "name": "F5",
                    "midi": 77,
                    "time": 360.3124999999997,
                    "velocity": 0.7874015748031497,
                    "duration": 0.14973958333331439
                },
                {
                    "name": "D#5",
                    "midi": 75,
                    "time": 360.4687499999997,
                    "velocity": 0.7874015748031497,
                    "duration": 0.14973958333331439
                },
                {
                    "name": "A#4",
                    "midi": 70,
                    "time": 364.3749999999997,
                    "velocity": 0.7874015748031497,
                    "duration": 0.3059895833333144
                },
                {
                    "name": "D5",
                    "midi": 74,
                    "time": 364.6874999999997,
                    "velocity": 0.7874015748031497,
                    "duration": 0.3059895833333144
                },
                {
                    "name": "F5",
                    "midi": 77,
                    "time": 364.9999999999997,
                    "velocity": 0.7874015748031497,
                    "duration": 0.20833333333331439
                },
                {
                    "name": "F5",
                    "midi": 77,
                    "time": 365.3124999999997,
                    "velocity": 0.7874015748031497,
                    "duration": 0.3059895833333144
                },
                {
                    "name": "D5",
                    "midi": 74,
                    "time": 365.6249999999997,
                    "velocity": 0.7874015748031497,
                    "duration": 0.3059895833333144
                },
                {
                    "name": "A#4",
                    "midi": 70,
                    "time": 365.9374999999997,
                    "velocity": 0.7874015748031497,
                    "duration": 0.20833333333331439
                },
                {
                    "name": "A4",
                    "midi": 69,
                    "time": 366.2499999999997,
                    "velocity": 0.7874015748031497,
                    "duration": 0.3059895833333144
                },
                {
                    "name": "C5",
                    "midi": 72,
                    "time": 366.5624999999997,
                    "velocity": 0.7874015748031497,
                    "duration": 0.3059895833333144
                },
                {
                    "name": "F5",
                    "midi": 77,
                    "time": 366.8749999999997,
                    "velocity": 0.7874015748031497,
                    "duration": 0.20833333333331439
                },
                {
                    "name": "F5",
                    "midi": 77,
                    "time": 367.1874999999997,
                    "velocity": 0.7874015748031497,
                    "duration": 0.3059895833333144
                },
                {
                    "name": "C5",
                    "midi": 72,
                    "time": 367.4999999999997,
                    "velocity": 0.7874015748031497,
                    "duration": 0.3059895833333144
                },
                {
                    "name": "A4",
                    "midi": 69,
                    "time": 367.8124999999997,
                    "velocity": 0.7874015748031497,
                    "duration": 0.20833333333331439
                },
                {
                    "name": "A#4",
                    "midi": 70,
                    "time": 368.1249999999997,
                    "velocity": 0.7874015748031497,
                    "duration": 0.3059895833333144
                },
                {
                    "name": "D5",
                    "midi": 74,
                    "time": 368.4374999999997,
                    "velocity": 0.7874015748031497,
                    "duration": 0.3059895833333144
                },
                {
                    "name": "F5",
                    "midi": 77,
                    "time": 368.7499999999997,
                    "velocity": 0.7874015748031497,
                    "duration": 0.20833333333331439
                },
                {
                    "name": "F5",
                    "midi": 77,
                    "time": 369.0624999999997,
                    "velocity": 0.7874015748031497,
                    "duration": 0.3059895833333144
                },
                {
                    "name": "D5",
                    "midi": 74,
                    "time": 369.3749999999997,
                    "velocity": 0.7874015748031497,
                    "duration": 0.3059895833333144
                },
                {
                    "name": "A#4",
                    "midi": 70,
                    "time": 369.6874999999997,
                    "velocity": 0.7874015748031497,
                    "duration": 0.20833333333331439
                },
                {
                    "name": "B4",
                    "midi": 71,
                    "time": 369.9999999999997,
                    "velocity": 0.7874015748031497,
                    "duration": 0.3059895833333144
                },
                {
                    "name": "D5",
                    "midi": 74,
                    "time": 370.3124999999997,
                    "velocity": 0.7874015748031497,
                    "duration": 0.3059895833333144
                },
                {
                    "name": "G5",
                    "midi": 79,
                    "time": 370.6249999999997,
                    "velocity": 0.7874015748031497,
                    "duration": 0.20833333333331439
                },
                {
                    "name": "G5",
                    "midi": 79,
                    "time": 370.9374999999997,
                    "velocity": 0.7874015748031497,
                    "duration": 0.3059895833333144
                },
                {
                    "name": "D5",
                    "midi": 74,
                    "time": 371.2499999999997,
                    "velocity": 0.7874015748031497,
                    "duration": 0.3059895833333144
                },
                {
                    "name": "B4",
                    "midi": 71,
                    "time": 371.5624999999997,
                    "velocity": 0.7874015748031497,
                    "duration": 0.20833333333331439
                },
                {
                    "name": "C5",
                    "midi": 72,
                    "time": 371.8749999999997,
                    "velocity": 0.7874015748031497,
                    "duration": 0.3059895833333144
                },
                {
                    "name": "D#5",
                    "midi": 75,
                    "time": 372.1874999999997,
                    "velocity": 0.7874015748031497,
                    "duration": 0.3059895833333144
                },
                {
                    "name": "G5",
                    "midi": 79,
                    "time": 372.4999999999997,
                    "velocity": 0.7874015748031497,
                    "duration": 0.20833333333331439
                },
                {
                    "name": "G5",
                    "midi": 79,
                    "time": 372.8124999999997,
                    "velocity": 0.7874015748031497,
                    "duration": 0.3059895833333144
                },
                {
                    "name": "D#5",
                    "midi": 75,
                    "time": 373.1249999999997,
                    "velocity": 0.7874015748031497,
                    "duration": 0.3059895833333144
                },
                {
                    "name": "C5",
                    "midi": 72,
                    "time": 373.4374999999997,
                    "velocity": 0.7874015748031497,
                    "duration": 0.20833333333331439
                },
                {
                    "name": "B4",
                    "midi": 71,
                    "time": 373.7499999999997,
                    "velocity": 0.7874015748031497,
                    "duration": 0.3059895833333144
                },
                {
                    "name": "D5",
                    "midi": 74,
                    "time": 374.0624999999997,
                    "velocity": 0.7874015748031497,
                    "duration": 0.3059895833333144
                },
                {
                    "name": "G5",
                    "midi": 79,
                    "time": 374.3749999999997,
                    "velocity": 0.7874015748031497,
                    "duration": 0.20833333333331439
                },
                {
                    "name": "G5",
                    "midi": 79,
                    "time": 374.6874999999997,
                    "velocity": 0.7874015748031497,
                    "duration": 0.3059895833333144
                },
                {
                    "name": "D5",
                    "midi": 74,
                    "time": 374.9999999999997,
                    "velocity": 0.7874015748031497,
                    "duration": 0.3059895833333144
                },
                {
                    "name": "B4",
                    "midi": 71,
                    "time": 375.3124999999997,
                    "velocity": 0.7874015748031497,
                    "duration": 0.20833333333331439
                },
                {
                    "name": "C#5",
                    "midi": 73,
                    "time": 375.6249999999997,
                    "velocity": 0.7874015748031497,
                    "duration": 0.3059895833333144
                },
                {
                    "name": "E5",
                    "midi": 76,
                    "time": 375.9374999999997,
                    "velocity": 0.7874015748031497,
                    "duration": 0.3059895833333144
                },
                {
                    "name": "A5",
                    "midi": 81,
                    "time": 376.2499999999997,
                    "velocity": 0.7874015748031497,
                    "duration": 0.20833333333331439
                },
                {
                    "name": "A5",
                    "midi": 81,
                    "time": 376.5624999999997,
                    "velocity": 0.7874015748031497,
                    "duration": 0.3059895833333144
                },
                {
                    "name": "E5",
                    "midi": 76,
                    "time": 376.8749999999997,
                    "velocity": 0.7874015748031497,
                    "duration": 0.3059895833333144
                },
                {
                    "name": "C#5",
                    "midi": 73,
                    "time": 377.1874999999997,
                    "velocity": 0.7874015748031497,
                    "duration": 0.20833333333331439
                },
                {
                    "name": "D5",
                    "midi": 74,
                    "time": 377.4999999999997,
                    "velocity": 0.7874015748031497,
                    "duration": 0.3059895833333144
                },
                {
                    "name": "F5",
                    "midi": 77,
                    "time": 377.8124999999997,
                    "velocity": 0.7874015748031497,
                    "duration": 0.3059895833333144
                },
                {
                    "name": "A5",
                    "midi": 81,
                    "time": 378.1249999999997,
                    "velocity": 0.7874015748031497,
                    "duration": 0.20833333333331439
                },
                {
                    "name": "A5",
                    "midi": 81,
                    "time": 378.4374999999997,
                    "velocity": 0.7874015748031497,
                    "duration": 0.3059895833333144
                },
                {
                    "name": "F5",
                    "midi": 77,
                    "time": 378.7499999999997,
                    "velocity": 0.7874015748031497,
                    "duration": 0.3059895833333144
                },
                {
                    "name": "D5",
                    "midi": 74,
                    "time": 379.0624999999997,
                    "velocity": 0.7874015748031497,
                    "duration": 0.3059895833333144
                },
                {
                    "name": "C#5",
                    "midi": 73,
                    "time": 379.3749999999997,
                    "velocity": 0.7874015748031497,
                    "duration": 0.3059895833333144
                },
                {
                    "name": "E5",
                    "midi": 76,
                    "time": 379.6874999999997,
                    "velocity": 0.7874015748031497,
                    "duration": 0.3059895833333144
                },
                {
                    "name": "A5",
                    "midi": 81,
                    "time": 379.9999999999997,
                    "velocity": 0.7874015748031497,
                    "duration": 0.20833333333331439
                },
                {
                    "name": "A5",
                    "midi": 81,
                    "time": 380.3124999999997,
                    "velocity": 0.7874015748031497,
                    "duration": 0.3059895833333144
                },
                {
                    "name": "E5",
                    "midi": 76,
                    "time": 380.6249999999997,
                    "velocity": 0.7874015748031497,
                    "duration": 0.3059895833333144
                },
                {
                    "name": "C#5",
                    "midi": 73,
                    "time": 380.9374999999997,
                    "velocity": 0.7874015748031497,
                    "duration": 0.20833333333331439
                },
                {
                    "name": "D5",
                    "midi": 74,
                    "time": 381.2499999999997,
                    "velocity": 0.7874015748031497,
                    "duration": 0.3059895833333144
                },
                {
                    "name": "F5",
                    "midi": 77,
                    "time": 381.5624999999997,
                    "velocity": 0.7874015748031497,
                    "duration": 0.3059895833333144
                },
                {
                    "name": "A#5",
                    "midi": 82,
                    "time": 381.8749999999997,
                    "velocity": 0.7874015748031497,
                    "duration": 0.20833333333331439
                },
                {
                    "name": "A#5",
                    "midi": 82,
                    "time": 382.1874999999997,
                    "velocity": 0.7874015748031497,
                    "duration": 0.3059895833333144
                },
                {
                    "name": "F5",
                    "midi": 77,
                    "time": 382.4999999999997,
                    "velocity": 0.7874015748031497,
                    "duration": 0.3059895833333144
                },
                {
                    "name": "D5",
                    "midi": 74,
                    "time": 382.8124999999997,
                    "velocity": 0.7874015748031497,
                    "duration": 0.3059895833333144
                },
                {
                    "name": "C#5",
                    "midi": 73,
                    "time": 383.1249999999997,
                    "velocity": 0.7874015748031497,
                    "duration": 0.3059895833333144
                },
                {
                    "name": "E5",
                    "midi": 76,
                    "time": 383.4374999999997,
                    "velocity": 0.7874015748031497,
                    "duration": 0.3059895833333144
                },
                {
                    "name": "A#5",
                    "midi": 82,
                    "time": 383.7499999999997,
                    "velocity": 0.7874015748031497,
                    "duration": 0.20833333333331439
                },
                {
                    "name": "A#5",
                    "midi": 82,
                    "time": 384.0624999999997,
                    "velocity": 0.7874015748031497,
                    "duration": 0.3059895833333144
                },
                {
                    "name": "E5",
                    "midi": 76,
                    "time": 384.3749999999997,
                    "velocity": 0.7874015748031497,
                    "duration": 0.3059895833333144
                },
                {
                    "name": "C#5",
                    "midi": 73,
                    "time": 384.6874999999997,
                    "velocity": 0.7874015748031497,
                    "duration": 0.20833333333331439
                },
                {
                    "name": "C5",
                    "midi": 72,
                    "time": 384.9999999999997,
                    "velocity": 0.7874015748031497,
                    "duration": 0.3059895833333144
                },
                {
                    "name": "E5",
                    "midi": 76,
                    "time": 385.3124999999997,
                    "velocity": 0.7874015748031497,
                    "duration": 0.3059895833333144
                },
                {
                    "name": "A#5",
                    "midi": 82,
                    "time": 385.6249999999997,
                    "velocity": 0.7874015748031497,
                    "duration": 0.20833333333331439
                },
                {
                    "name": "A#5",
                    "midi": 82,
                    "time": 385.9374999999997,
                    "velocity": 0.7874015748031497,
                    "duration": 0.3059895833333144
                },
                {
                    "name": "E5",
                    "midi": 76,
                    "time": 386.2499999999997,
                    "velocity": 0.7874015748031497,
                    "duration": 0.3059895833333144
                },
                {
                    "name": "C5",
                    "midi": 72,
                    "time": 386.5624999999997,
                    "velocity": 0.7874015748031497,
                    "duration": 0.20833333333331439
                },
                {
                    "name": "C5",
                    "midi": 72,
                    "time": 386.8749999999997,
                    "velocity": 0.7874015748031497,
                    "duration": 0.3059895833333144
                },
                {
                    "name": "F5",
                    "midi": 77,
                    "time": 387.1874999999997,
                    "velocity": 0.7874015748031497,
                    "duration": 0.3059895833333144
                },
                {
                    "name": "A5",
                    "midi": 81,
                    "time": 387.4999999999997,
                    "velocity": 0.7874015748031497,
                    "duration": 0.20833333333331439
                },
                {
                    "name": "A5",
                    "midi": 81,
                    "time": 387.8124999999997,
                    "velocity": 0.7874015748031497,
                    "duration": 0.3059895833333144
                },
                {
                    "name": "F5",
                    "midi": 77,
                    "time": 388.1249999999997,
                    "velocity": 0.7874015748031497,
                    "duration": 0.3059895833333144
                },
                {
                    "name": "C5",
                    "midi": 72,
                    "time": 388.4374999999997,
                    "velocity": 0.7874015748031497,
                    "duration": 0.20833333333331439
                },
                {
                    "name": "B4",
                    "midi": 71,
                    "time": 388.7499999999997,
                    "velocity": 0.7874015748031497,
                    "duration": 0.3059895833333144
                },
                {
                    "name": "D5",
                    "midi": 74,
                    "time": 389.0624999999997,
                    "velocity": 0.7874015748031497,
                    "duration": 0.3059895833333144
                },
                {
                    "name": "G5",
                    "midi": 79,
                    "time": 389.3749999999997,
                    "velocity": 0.7874015748031497,
                    "duration": 0.20833333333331439
                },
                {
                    "name": "G5",
                    "midi": 79,
                    "time": 389.6874999999997,
                    "velocity": 0.7874015748031497,
                    "duration": 0.3059895833333144
                },
                {
                    "name": "D5",
                    "midi": 74,
                    "time": 389.9999999999997,
                    "velocity": 0.7874015748031497,
                    "duration": 0.3059895833333144
                },
                {
                    "name": "B4",
                    "midi": 71,
                    "time": 390.3124999999997,
                    "velocity": 0.7874015748031497,
                    "duration": 0.20833333333331439
                },
                {
                    "name": "C5",
                    "midi": 72,
                    "time": 390.6249999999997,
                    "velocity": 0.7874015748031497,
                    "duration": 0.3059895833333144
                },
                {
                    "name": "D#5",
                    "midi": 75,
                    "time": 390.9374999999997,
                    "velocity": 0.7874015748031497,
                    "duration": 0.3059895833333144
                },
                {
                    "name": "G5",
                    "midi": 79,
                    "time": 391.2499999999997,
                    "velocity": 0.7874015748031497,
                    "duration": 0.20833333333331439
                },
                {
                    "name": "G5",
                    "midi": 79,
                    "time": 391.5624999999997,
                    "velocity": 0.7874015748031497,
                    "duration": 0.3059895833333144
                },
                {
                    "name": "D#5",
                    "midi": 75,
                    "time": 391.8749999999997,
                    "velocity": 0.7874015748031497,
                    "duration": 0.3059895833333144
                },
                {
                    "name": "C5",
                    "midi": 72,
                    "time": 392.1874999999997,
                    "velocity": 0.7874015748031497,
                    "duration": 0.3059895833333144
                },
                {
                    "name": "A4",
                    "midi": 69,
                    "time": 392.4999999999997,
                    "velocity": 0.7874015748031497,
                    "duration": 0.3059895833333144
                },
                {
                    "name": "C5",
                    "midi": 72,
                    "time": 392.8124999999997,
                    "velocity": 0.7874015748031497,
                    "duration": 0.3059895833333144
                },
                {
                    "name": "G5",
                    "midi": 79,
                    "time": 393.1249999999997,
                    "velocity": 0.7874015748031497,
                    "duration": 0.20833333333331439
                },
                {
                    "name": "G5",
                    "midi": 79,
                    "time": 393.4374999999997,
                    "velocity": 0.7874015748031497,
                    "duration": 0.3059895833333144
                },
                {
                    "name": "C5",
                    "midi": 72,
                    "time": 393.7499999999997,
                    "velocity": 0.7874015748031497,
                    "duration": 0.3059895833333144
                },
                {
                    "name": "A4",
                    "midi": 69,
                    "time": 394.0624999999997,
                    "velocity": 0.7874015748031497,
                    "duration": 0.3059895833333144
                },
                {
                    "name": "A4",
                    "midi": 69,
                    "time": 394.3749999999997,
                    "velocity": 0.7874015748031497,
                    "duration": 0.3059895833333144
                },
                {
                    "name": "C5",
                    "midi": 72,
                    "time": 394.6874999999997,
                    "velocity": 0.7874015748031497,
                    "duration": 0.3059895833333144
                },
                {
                    "name": "F#5",
                    "midi": 78,
                    "time": 394.9999999999997,
                    "velocity": 0.7874015748031497,
                    "duration": 0.20833333333331439
                },
                {
                    "name": "F#5",
                    "midi": 78,
                    "time": 395.3124999999997,
                    "velocity": 0.7874015748031497,
                    "duration": 0.3059895833333144
                },
                {
                    "name": "C5",
                    "midi": 72,
                    "time": 395.6249999999997,
                    "velocity": 0.7874015748031497,
                    "duration": 0.3059895833333144
                },
                {
                    "name": "A4",
                    "midi": 69,
                    "time": 395.9374999999997,
                    "velocity": 0.7874015748031497,
                    "duration": 0.3059895833333144
                },
                {
                    "name": "G5",
                    "midi": 79,
                    "time": 396.2499999999997,
                    "velocity": 0.7874015748031497,
                    "duration": 0.3059895833333144
                },
                {
                    "name": "D5",
                    "midi": 74,
                    "time": 396.5624999999997,
                    "velocity": 0.7874015748031497,
                    "duration": 0.3059895833333144
                },
                {
                    "name": "A#4",
                    "midi": 70,
                    "time": 396.8749999999997,
                    "velocity": 0.7874015748031497,
                    "duration": 0.3059895833333144
                },
                {
                    "name": "D5",
                    "midi": 74,
                    "time": 397.1874999999997,
                    "velocity": 0.7874015748031497,
                    "duration": 0.3059895833333144
                },
                {
                    "name": "A#4",
                    "midi": 70,
                    "time": 397.4999999999997,
                    "velocity": 0.7874015748031497,
                    "duration": 0.3059895833333144
                },
                {
                    "name": "F#4",
                    "midi": 66,
                    "time": 397.8124999999997,
                    "velocity": 0.7874015748031497,
                    "duration": 0.3059895833333144
                },
                {
                    "name": "G4",
                    "midi": 67,
                    "time": 398.1249999999997,
                    "velocity": 0.7874015748031497,
                    "duration": 0.20833333333331439
                },
                {
                    "name": "A4",
                    "midi": 69,
                    "time": 398.4374999999997,
                    "velocity": 0.7874015748031497,
                    "duration": 0.20833333333331439
                },
                {
                    "name": "A#4",
                    "midi": 70,
                    "time": 398.7499999999997,
                    "velocity": 0.7874015748031497,
                    "duration": 0.20833333333331439
                },
                {
                    "name": "G4",
                    "midi": 67,
                    "time": 399.0624999999997,
                    "velocity": 0.7874015748031497,
                    "duration": 0.20833333333331439
                },
                {
                    "name": "A4",
                    "midi": 69,
                    "time": 399.3749999999997,
                    "velocity": 0.7874015748031497,
                    "duration": 0.20833333333331439
                },
                {
                    "name": "A#4",
                    "midi": 70,
                    "time": 399.6874999999997,
                    "velocity": 0.7874015748031497,
                    "duration": 0.20833333333331439
                },
                {
                    "name": "A4",
                    "midi": 69,
                    "time": 399.9999999999997,
                    "velocity": 0.7874015748031497,
                    "duration": 0.20833333333331439
                },
                {
                    "name": "A#4",
                    "midi": 70,
                    "time": 400.3124999999997,
                    "velocity": 0.7874015748031497,
                    "duration": 0.20833333333331439
                },
                {
                    "name": "C5",
                    "midi": 72,
                    "time": 400.6249999999997,
                    "velocity": 0.7874015748031497,
                    "duration": 0.20833333333331439
                },
                {
                    "name": "A4",
                    "midi": 69,
                    "time": 400.9374999999997,
                    "velocity": 0.7874015748031497,
                    "duration": 0.20833333333331439
                },
                {
                    "name": "A#4",
                    "midi": 70,
                    "time": 401.2499999999997,
                    "velocity": 0.7874015748031497,
                    "duration": 0.20833333333331439
                },
                {
                    "name": "C5",
                    "midi": 72,
                    "time": 401.5624999999997,
                    "velocity": 0.7874015748031497,
                    "duration": 0.20833333333331439
                },
                {
                    "name": "A#4",
                    "midi": 70,
                    "time": 401.8749999999997,
                    "velocity": 0.7874015748031497,
                    "duration": 0.3059895833333144
                },
                {
                    "name": "C5",
                    "midi": 72,
                    "time": 402.1874999999997,
                    "velocity": 0.7874015748031497,
                    "duration": 0.20833333333331439
                },
                {
                    "name": "D5",
                    "midi": 74,
                    "time": 402.4999999999997,
                    "velocity": 0.7874015748031497,
                    "duration": 0.20833333333331439
                },
                {
                    "name": "A#4",
                    "midi": 70,
                    "time": 402.8124999999997,
                    "velocity": 0.7874015748031497,
                    "duration": 0.3059895833333144
                },
                {
                    "name": "C5",
                    "midi": 72,
                    "time": 403.1249999999997,
                    "velocity": 0.7874015748031497,
                    "duration": 0.20833333333331439
                },
                {
                    "name": "D5",
                    "midi": 74,
                    "time": 403.4374999999997,
                    "velocity": 0.7874015748031497,
                    "duration": 0.20833333333331439
                },
                {
                    "name": "C5",
                    "midi": 72,
                    "time": 403.7499999999997,
                    "velocity": 0.7874015748031497,
                    "duration": 0.3059895833333144
                },
                {
                    "name": "D5",
                    "midi": 74,
                    "time": 404.0624999999997,
                    "velocity": 0.7874015748031497,
                    "duration": 0.3059895833333144
                },
                {
                    "name": "D#5",
                    "midi": 75,
                    "time": 404.3749999999997,
                    "velocity": 0.7874015748031497,
                    "duration": 0.20833333333331439
                },
                {
                    "name": "C5",
                    "midi": 72,
                    "time": 404.6874999999997,
                    "velocity": 0.7874015748031497,
                    "duration": 0.3059895833333144
                },
                {
                    "name": "D5",
                    "midi": 74,
                    "time": 404.9999999999997,
                    "velocity": 0.7874015748031497,
                    "duration": 0.3059895833333144
                },
                {
                    "name": "D#5",
                    "midi": 75,
                    "time": 405.3124999999997,
                    "velocity": 0.7874015748031497,
                    "duration": 0.20833333333331439
                },
                {
                    "name": "D5",
                    "midi": 74,
                    "time": 405.6249999999997,
                    "velocity": 0.7874015748031497,
                    "duration": 0.3059895833333144
                },
                {
                    "name": "E5",
                    "midi": 76,
                    "time": 405.9374999999997,
                    "velocity": 0.7874015748031497,
                    "duration": 0.3059895833333144
                },
                {
                    "name": "F#5",
                    "midi": 78,
                    "time": 406.2499999999997,
                    "velocity": 0.7874015748031497,
                    "duration": 0.3059895833333144
                },
                {
                    "name": "D5",
                    "midi": 74,
                    "time": 406.5624999999997,
                    "velocity": 0.7874015748031497,
                    "duration": 0.3059895833333144
                },
                {
                    "name": "E5",
                    "midi": 76,
                    "time": 406.8749999999997,
                    "velocity": 0.7874015748031497,
                    "duration": 0.3059895833333144
                },
                {
                    "name": "F#5",
                    "midi": 78,
                    "time": 407.1874999999997,
                    "velocity": 0.7874015748031497,
                    "duration": 0.3059895833333144
                },
                {
                    "name": "G5",
                    "midi": 79,
                    "time": 407.4999999999997,
                    "velocity": 0.7874015748031497,
                    "duration": 0.3059895833333144
                },
                {
                    "name": "D5",
                    "midi": 74,
                    "time": 407.8124999999997,
                    "velocity": 0.7874015748031497,
                    "duration": 0.20833333333331439
                },
                {
                    "name": "G5",
                    "midi": 79,
                    "time": 408.1249999999997,
                    "velocity": 0.7874015748031497,
                    "duration": 0.20833333333331439
                },
                {
                    "name": "G5",
                    "midi": 79,
                    "time": 408.4374999999997,
                    "velocity": 0.7874015748031497,
                    "duration": 0.20833333333331439
                },
                {
                    "name": "A#5",
                    "midi": 82,
                    "time": 408.7499999999997,
                    "velocity": 0.7874015748031497,
                    "duration": 0.14973958333331439
                },
                {
                    "name": "A5",
                    "midi": 81,
                    "time": 408.9062499999997,
                    "velocity": 0.7874015748031497,
                    "duration": 0.14973958333331439
                },
                {
                    "name": "G5",
                    "midi": 79,
                    "time": 409.0624999999997,
                    "velocity": 0.7874015748031497,
                    "duration": 0.14973958333331439
                },
                {
                    "name": "F#5",
                    "midi": 78,
                    "time": 409.2187499999997,
                    "velocity": 0.7874015748031497,
                    "duration": 0.14973958333331439
                },
                {
                    "name": "G5",
                    "midi": 79,
                    "time": 409.3749999999997,
                    "velocity": 0.7874015748031497,
                    "duration": 0.3059895833333144
                },
                {
                    "name": "D5",
                    "midi": 74,
                    "time": 409.6874999999997,
                    "velocity": 0.7874015748031497,
                    "duration": 0.20833333333331439
                },
                {
                    "name": "G5",
                    "midi": 79,
                    "time": 409.9999999999997,
                    "velocity": 0.7874015748031497,
                    "duration": 0.20833333333331439
                },
                {
                    "name": "G5",
                    "midi": 79,
                    "time": 410.3124999999997,
                    "velocity": 0.7874015748031497,
                    "duration": 0.20833333333331439
                },
                {
                    "name": "A#5",
                    "midi": 82,
                    "time": 410.6249999999997,
                    "velocity": 0.7874015748031497,
                    "duration": 0.14973958333331439
                },
                {
                    "name": "A5",
                    "midi": 81,
                    "time": 410.7812499999997,
                    "velocity": 0.7874015748031497,
                    "duration": 0.14973958333331439
                },
                {
                    "name": "G5",
                    "midi": 79,
                    "time": 410.9374999999997,
                    "velocity": 0.7874015748031497,
                    "duration": 0.14973958333331439
                },
                {
                    "name": "F#5",
                    "midi": 78,
                    "time": 411.0937499999997,
                    "velocity": 0.7874015748031497,
                    "duration": 0.14973958333331439
                },
                {
                    "name": "G5",
                    "midi": 79,
                    "time": 411.2499999999997,
                    "velocity": 0.7874015748031497,
                    "duration": 0.3059895833333144
                },
                {
                    "name": "A#5",
                    "midi": 82,
                    "time": 411.5624999999997,
                    "velocity": 0.7874015748031497,
                    "duration": 0.3059895833333144
                },
                {
                    "name": "D5",
                    "midi": 74,
                    "time": 411.8749999999997,
                    "velocity": 0.7874015748031497,
                    "duration": 0.20833333333331439
                },
                {
                    "name": "D#5",
                    "midi": 75,
                    "time": 412.1874999999997,
                    "velocity": 0.7874015748031497,
                    "duration": 0.3059895833333144
                },
                {
                    "name": "G5",
                    "midi": 79,
                    "time": 412.4999999999997,
                    "velocity": 0.7874015748031497,
                    "duration": 0.3059895833333144
                },
                {
                    "name": "C5",
                    "midi": 72,
                    "time": 412.8124999999997,
                    "velocity": 0.7874015748031497,
                    "duration": 0.20833333333331439
                },
                {
                    "name": "D5",
                    "midi": 74,
                    "time": 413.1249999999997,
                    "velocity": 0.7874015748031497,
                    "duration": 0.3059895833333144
                },
                {
                    "name": "G5",
                    "midi": 79,
                    "time": 413.4374999999997,
                    "velocity": 0.7874015748031497,
                    "duration": 0.3059895833333144
                },
                {
                    "name": "A#4",
                    "midi": 70,
                    "time": 413.7499999999997,
                    "velocity": 0.7874015748031497,
                    "duration": 0.3059895833333144
                },
                {
                    "name": "A4",
                    "midi": 69,
                    "time": 414.0624999999997,
                    "velocity": 0.7874015748031497,
                    "duration": 0.07161458333331439
                },
                {
                    "name": "A#4",
                    "midi": 70,
                    "time": 414.1406249999997,
                    "velocity": 0.7874015748031497,
                    "duration": 0.07161458333331439
                },
                {
                    "name": "A4",
                    "midi": 69,
                    "time": 414.2187499999997,
                    "velocity": 0.7874015748031497,
                    "duration": 0.07161458333331439
                },
                {
                    "name": "A#4",
                    "midi": 70,
                    "time": 414.2968749999997,
                    "velocity": 0.7874015748031497,
                    "duration": 0.07161458333331439
                },
                {
                    "name": "A4",
                    "midi": 69,
                    "time": 414.3749999999997,
                    "velocity": 0.7874015748031497,
                    "duration": 0.3059895833333144
                },
                {
                    "name": "G4",
                    "midi": 67,
                    "time": 414.6874999999997,
                    "velocity": 0.7874015748031497,
                    "duration": 0.20833333333331439
                },
                {
                    "name": "G4",
                    "midi": 67,
                    "time": 414.9999999999997,
                    "velocity": 0.7874015748031497,
                    "duration": 0.625
                },
                {
                    "name": "D5",
                    "midi": 74,
                    "time": 416.2499999999997,
                    "velocity": 0.7874015748031497,
                    "duration": 0.20833333333331439
                },
                {
                    "name": "C5",
                    "midi": 72,
                    "time": 416.5624999999997,
                    "velocity": 0.7874015748031497,
                    "duration": 0.20833333333331439
                },
                {
                    "name": "B4",
                    "midi": 71,
                    "time": 416.8749999999997,
                    "velocity": 0.7874015748031497,
                    "duration": 0.3059895833333144
                },
                {
                    "name": "A4",
                    "midi": 69,
                    "time": 417.1874999999997,
                    "velocity": 0.7874015748031497,
                    "duration": 0.3059895833333144
                },
                {
                    "name": "G4",
                    "midi": 67,
                    "time": 417.4999999999997,
                    "velocity": 0.7874015748031497,
                    "duration": 0.3059895833333144
                },
                {
                    "name": "C5",
                    "midi": 72,
                    "time": 417.8124999999997,
                    "velocity": 0.7874015748031497,
                    "duration": 0.07161458333331439
                },
                {
                    "name": "B4",
                    "midi": 71,
                    "time": 417.8906249999997,
                    "velocity": 0.7874015748031497,
                    "duration": 0.07161458333331439
                },
                {
                    "name": "C5",
                    "midi": 72,
                    "time": 417.9687499999997,
                    "velocity": 0.7874015748031497,
                    "duration": 0.07161458333331439
                },
                {
                    "name": "B4",
                    "midi": 71,
                    "time": 418.0468749999997,
                    "velocity": 0.7874015748031497,
                    "duration": 0.07161458333331439
                },
                {
                    "name": "C5",
                    "midi": 72,
                    "time": 418.1249999999997,
                    "velocity": 0.7874015748031497,
                    "duration": 0.07161458333331439
                },
                {
                    "name": "B4",
                    "midi": 71,
                    "time": 418.2031249999997,
                    "velocity": 0.7874015748031497,
                    "duration": 0.14973958333331439
                },
                {
                    "name": "C5",
                    "midi": 72,
                    "time": 418.4374999999997,
                    "velocity": 0.7874015748031497,
                    "duration": 0.3059895833333144
                },
                {
                    "name": "C5",
                    "midi": 72,
                    "time": 418.7499999999997,
                    "velocity": 0.7874015748031497,
                    "duration": 0.9309895833333144
                },
                {
                    "name": "D#5",
                    "midi": 75,
                    "time": 419.9999999999997,
                    "velocity": 0.7874015748031497,
                    "duration": 0.3059895833333144
                },
                {
                    "name": "D5",
                    "midi": 74,
                    "time": 420.3124999999997,
                    "velocity": 0.7874015748031497,
                    "duration": 0.3059895833333144
                },
                {
                    "name": "C#5",
                    "midi": 73,
                    "time": 420.6249999999997,
                    "velocity": 0.7874015748031497,
                    "duration": 0.3059895833333144
                },
                {
                    "name": "B4",
                    "midi": 71,
                    "time": 420.9374999999997,
                    "velocity": 0.7874015748031497,
                    "duration": 0.3059895833333144
                },
                {
                    "name": "A4",
                    "midi": 69,
                    "time": 421.2499999999997,
                    "velocity": 0.7874015748031497,
                    "duration": 0.3059895833333144
                },
                {
                    "name": "D5",
                    "midi": 74,
                    "time": 421.5624999999997,
                    "velocity": 0.7874015748031497,
                    "duration": 0.07161458333331439
                },
                {
                    "name": "C#5",
                    "midi": 73,
                    "time": 421.6406249999997,
                    "velocity": 0.7874015748031497,
                    "duration": 0.07161458333331439
                },
                {
                    "name": "D5",
                    "midi": 74,
                    "time": 421.7187499999997,
                    "velocity": 0.7874015748031497,
                    "duration": 0.07161458333331439
                },
                {
                    "name": "C#5",
                    "midi": 73,
                    "time": 421.7968749999997,
                    "velocity": 0.7874015748031497,
                    "duration": 0.07161458333331439
                },
                {
                    "name": "D5",
                    "midi": 74,
                    "time": 421.8749999999997,
                    "velocity": 0.7874015748031497,
                    "duration": 0.07161458333331439
                },
                {
                    "name": "C#5",
                    "midi": 73,
                    "time": 421.9531249999997,
                    "velocity": 0.7874015748031497,
                    "duration": 0.14973958333331439
                },
                {
                    "name": "D5",
                    "midi": 74,
                    "time": 422.1874999999997,
                    "velocity": 0.7874015748031497,
                    "duration": 0.3059895833333144
                },
                {
                    "name": "D5",
                    "midi": 74,
                    "time": 422.4999999999997,
                    "velocity": 0.7874015748031497,
                    "duration": 0.9309895833333144
                },
                {
                    "name": "F5",
                    "midi": 77,
                    "time": 423.7499999999997,
                    "velocity": 0.7874015748031497,
                    "duration": 0.3059895833333144
                },
                {
                    "name": "D#5",
                    "midi": 75,
                    "time": 424.0624999999997,
                    "velocity": 0.7874015748031497,
                    "duration": 0.3059895833333144
                },
                {
                    "name": "D5",
                    "midi": 74,
                    "time": 424.3749999999997,
                    "velocity": 0.7874015748031497,
                    "duration": 0.3059895833333144
                },
                {
                    "name": "C5",
                    "midi": 72,
                    "time": 424.6874999999997,
                    "velocity": 0.7874015748031497,
                    "duration": 0.3059895833333144
                },
                {
                    "name": "A#4",
                    "midi": 70,
                    "time": 424.9999999999997,
                    "velocity": 0.7874015748031497,
                    "duration": 0.3059895833333144
                },
                {
                    "name": "A#4",
                    "midi": 70,
                    "time": 425.3124999999997,
                    "velocity": 0.7874015748031497,
                    "duration": 0.07161458333331439
                },
                {
                    "name": "A4",
                    "midi": 69,
                    "time": 425.3906249999997,
                    "velocity": 0.7874015748031497,
                    "duration": 0.07161458333331439
                },
                {
                    "name": "A#4",
                    "midi": 70,
                    "time": 425.4687499999997,
                    "velocity": 0.7874015748031497,
                    "duration": 0.07161458333331439
                },
                {
                    "name": "A4",
                    "midi": 69,
                    "time": 425.5468749999997,
                    "velocity": 0.7874015748031497,
                    "duration": 0.07161458333331439
                },
                {
                    "name": "A#4",
                    "midi": 70,
                    "time": 425.6249999999997,
                    "velocity": 0.7874015748031497,
                    "duration": 0.07161458333331439
                },
                {
                    "name": "A4",
                    "midi": 69,
                    "time": 425.7031249999997,
                    "velocity": 0.7874015748031497,
                    "duration": 0.14973958333331439
                },
                {
                    "name": "A#4",
                    "midi": 70,
                    "time": 425.9374999999997,
                    "velocity": 0.7874015748031497,
                    "duration": 0.3059895833333144
                }
            ],
            "controlChanges": {
                "7": [
                    {
                        "number": 7,
                        "time": 0,
                        "value": 0.7322834645669292
                    }
                ]
            },
            "id": 5,
            "name": "Manual 2 RH",
            "instrumentNumber": 6,
            "instrument": "harpsichord",
            "instrumentFamily": "piano",
            "channelNumber": 1,
            "isPercussion": false
        },
        {
            "startTime": 15.3125,
            "duration": 426.24348958333337,
            "length": 685,
            "notes": [
                {
                    "name": "A#2",
                    "midi": 46,
                    "time": 15.3125,
                    "velocity": 0.6141732283464567,
                    "duration": 0.14973958333333393
                },
                {
                    "name": "C3",
                    "midi": 48,
                    "time": 15.46875,
                    "velocity": 0.6141732283464567,
                    "duration": 0.14973958333333393
                },
                {
                    "name": "D3",
                    "midi": 50,
                    "time": 15.625,
                    "velocity": 0.6141732283464567,
                    "duration": 0.3059895833333339
                },
                {
                    "name": "F3",
                    "midi": 53,
                    "time": 15.9375,
                    "velocity": 0.6141732283464567,
                    "duration": 0.30598958333333215
                },
                {
                    "name": "D3",
                    "midi": 50,
                    "time": 16.25,
                    "velocity": 0.6141732283464567,
                    "duration": 0.30598958333333215
                },
                {
                    "name": "A#2",
                    "midi": 46,
                    "time": 16.5625,
                    "velocity": 0.6141732283464567,
                    "duration": 0.30598958333333215
                },
                {
                    "name": "F2",
                    "midi": 41,
                    "time": 16.875,
                    "velocity": 0.6141732283464567,
                    "duration": 0.6184895833333321
                },
                {
                    "name": "F2",
                    "midi": 41,
                    "time": 17.8125,
                    "velocity": 0.6141732283464567,
                    "duration": 0.30598958333333215
                },
                {
                    "name": "A#2",
                    "midi": 46,
                    "time": 18.125,
                    "velocity": 0.6141732283464567,
                    "duration": 0.30598958333333215
                },
                {
                    "name": "D3",
                    "midi": 50,
                    "time": 18.4375,
                    "velocity": 0.6141732283464567,
                    "duration": 0.30598958333333215
                },
                {
                    "name": "D#2",
                    "midi": 39,
                    "time": 18.75,
                    "velocity": 0.6141732283464567,
                    "duration": 0.30598958333333215
                },
                {
                    "name": "D#3",
                    "midi": 51,
                    "time": 19.0625,
                    "velocity": 0.6141732283464567,
                    "duration": 0.14973958333333215
                },
                {
                    "name": "F3",
                    "midi": 53,
                    "time": 19.21875,
                    "velocity": 0.6141732283464567,
                    "duration": 0.14973958333333215
                },
                {
                    "name": "G3",
                    "midi": 55,
                    "time": 19.375,
                    "velocity": 0.6141732283464567,
                    "duration": 0.30598958333333215
                },
                {
                    "name": "A#3",
                    "midi": 58,
                    "time": 19.6875,
                    "velocity": 0.6141732283464567,
                    "duration": 0.30598958333333215
                },
                {
                    "name": "G3",
                    "midi": 55,
                    "time": 20,
                    "velocity": 0.6141732283464567,
                    "duration": 0.30598958333333215
                },
                {
                    "name": "D#3",
                    "midi": 51,
                    "time": 20.3125,
                    "velocity": 0.6141732283464567,
                    "duration": 0.30598958333333215
                },
                {
                    "name": "F2",
                    "midi": 41,
                    "time": 20.625,
                    "velocity": 0.6141732283464567,
                    "duration": 0.30598958333333215
                },
                {
                    "name": "F3",
                    "midi": 53,
                    "time": 20.9375,
                    "velocity": 0.6141732283464567,
                    "duration": 0.14973958333333215
                },
                {
                    "name": "G3",
                    "midi": 55,
                    "time": 21.09375,
                    "velocity": 0.6141732283464567,
                    "duration": 0.14973958333333215
                },
                {
                    "name": "A3",
                    "midi": 57,
                    "time": 21.25,
                    "velocity": 0.6141732283464567,
                    "duration": 0.30598958333333215
                },
                {
                    "name": "C4",
                    "midi": 60,
                    "time": 21.5625,
                    "velocity": 0.6141732283464567,
                    "duration": 0.30598958333333215
                },
                {
                    "name": "A3",
                    "midi": 57,
                    "time": 21.875,
                    "velocity": 0.6141732283464567,
                    "duration": 0.30598958333333215
                },
                {
                    "name": "F3",
                    "midi": 53,
                    "time": 22.1875,
                    "velocity": 0.6141732283464567,
                    "duration": 0.30598958333333215
                },
                {
                    "name": "G2",
                    "midi": 43,
                    "time": 22.5,
                    "velocity": 0.6141732283464567,
                    "duration": 0.30598958333333215
                },
                {
                    "name": "G3",
                    "midi": 55,
                    "time": 22.8125,
                    "velocity": 0.6141732283464567,
                    "duration": 0.14973958333333215
                },
                {
                    "name": "A3",
                    "midi": 57,
                    "time": 22.96875,
                    "velocity": 0.6141732283464567,
                    "duration": 0.14973958333333215
                },
                {
                    "name": "A#3",
                    "midi": 58,
                    "time": 23.125,
                    "velocity": 0.6141732283464567,
                    "duration": 0.30598958333333215
                },
                {
                    "name": "D4",
                    "midi": 62,
                    "time": 23.4375,
                    "velocity": 0.6141732283464567,
                    "duration": 0.30598958333333215
                },
                {
                    "name": "A#3",
                    "midi": 58,
                    "time": 23.75,
                    "velocity": 0.6141732283464567,
                    "duration": 0.30598958333333215
                },
                {
                    "name": "G3",
                    "midi": 55,
                    "time": 24.0625,
                    "velocity": 0.6141732283464567,
                    "duration": 0.30598958333333215
                },
                {
                    "name": "A2",
                    "midi": 45,
                    "time": 24.375,
                    "velocity": 0.6141732283464567,
                    "duration": 0.30598958333333215
                },
                {
                    "name": "A3",
                    "midi": 57,
                    "time": 24.6875,
                    "velocity": 0.6141732283464567,
                    "duration": 0.14973958333333215
                },
                {
                    "name": "A#3",
                    "midi": 58,
                    "time": 24.84375,
                    "velocity": 0.6141732283464567,
                    "duration": 0.14973958333333215
                },
                {
                    "name": "C4",
                    "midi": 60,
                    "time": 25,
                    "velocity": 0.6141732283464567,
                    "duration": 0.30598958333333215
                },
                {
                    "name": "D#4",
                    "midi": 63,
                    "time": 25.3125,
                    "velocity": 0.6141732283464567,
                    "duration": 0.30598958333333215
                },
                {
                    "name": "C4",
                    "midi": 60,
                    "time": 25.625,
                    "velocity": 0.6141732283464567,
                    "duration": 0.30598958333333215
                },
                {
                    "name": "A3",
                    "midi": 57,
                    "time": 25.9375,
                    "velocity": 0.6141732283464567,
                    "duration": 0.30598958333333215
                },
                {
                    "name": "A#3",
                    "midi": 58,
                    "time": 26.25,
                    "velocity": 0.6141732283464567,
                    "duration": 0.14973958333333215
                },
                {
                    "name": "C4",
                    "midi": 60,
                    "time": 26.40625,
                    "velocity": 0.6141732283464567,
                    "duration": 0.14973958333333215
                },
                {
                    "name": "A#3",
                    "midi": 58,
                    "time": 26.5625,
                    "velocity": 0.6141732283464567,
                    "duration": 0.14973958333333215
                },
                {
                    "name": "G#3",
                    "midi": 56,
                    "time": 26.71875,
                    "velocity": 0.6141732283464567,
                    "duration": 0.14973958333333215
                },
                {
                    "name": "G3",
                    "midi": 55,
                    "time": 26.875,
                    "velocity": 0.6141732283464567,
                    "duration": 0.14973958333333215
                },
                {
                    "name": "F3",
                    "midi": 53,
                    "time": 27.03125,
                    "velocity": 0.6141732283464567,
                    "duration": 0.14973958333333215
                },
                {
                    "name": "D#3",
                    "midi": 51,
                    "time": 27.1875,
                    "velocity": 0.6141732283464567,
                    "duration": 0.14973958333333215
                },
                {
                    "name": "F3",
                    "midi": 53,
                    "time": 27.34375,
                    "velocity": 0.6141732283464567,
                    "duration": 0.14973958333333215
                },
                {
                    "name": "G3",
                    "midi": 55,
                    "time": 27.5,
                    "velocity": 0.6141732283464567,
                    "duration": 0.14973958333333215
                },
                {
                    "name": "F3",
                    "midi": 53,
                    "time": 27.65625,
                    "velocity": 0.6141732283464567,
                    "duration": 0.14973958333333215
                },
                {
                    "name": "G3",
                    "midi": 55,
                    "time": 27.8125,
                    "velocity": 0.6141732283464567,
                    "duration": 0.14973958333333215
                },
                {
                    "name": "D#3",
                    "midi": 51,
                    "time": 27.96875,
                    "velocity": 0.6141732283464567,
                    "duration": 0.14973958333333215
                },
                {
                    "name": "F3",
                    "midi": 53,
                    "time": 28.125,
                    "velocity": 0.6141732283464567,
                    "duration": 0.30598958333333215
                },
                {
                    "name": "F2",
                    "midi": 41,
                    "time": 28.4375,
                    "velocity": 0.6141732283464567,
                    "duration": 0.30598958333333215
                },
                {
                    "name": "F3",
                    "midi": 53,
                    "time": 29.0625,
                    "velocity": 0.6141732283464567,
                    "duration": 0.30598958333333215
                },
                {
                    "name": "C3",
                    "midi": 48,
                    "time": 29.375,
                    "velocity": 0.6141732283464567,
                    "duration": 0.30598958333333215
                },
                {
                    "name": "F3",
                    "midi": 53,
                    "time": 29.6875,
                    "velocity": 0.6141732283464567,
                    "duration": 0.30598958333333215
                },
                {
                    "name": "D3",
                    "midi": 50,
                    "time": 30,
                    "velocity": 0.6141732283464567,
                    "duration": 0.30598958333333215
                },
                {
                    "name": "A#2",
                    "midi": 46,
                    "time": 30.3125,
                    "velocity": 0.6141732283464567,
                    "duration": 0.30598958333333215
                },
                {
                    "name": "D3",
                    "midi": 50,
                    "time": 30.9375,
                    "velocity": 0.6141732283464567,
                    "duration": 0.30598958333333215
                },
                {
                    "name": "A#2",
                    "midi": 46,
                    "time": 31.25,
                    "velocity": 0.6141732283464567,
                    "duration": 0.30598958333333215
                },
                {
                    "name": "D3",
                    "midi": 50,
                    "time": 31.5625,
                    "velocity": 0.6141732283464567,
                    "duration": 0.30598958333333215
                },
                {
                    "name": "F3",
                    "midi": 53,
                    "time": 31.875,
                    "velocity": 0.6141732283464567,
                    "duration": 0.3059895833333357
                },
                {
                    "name": "F2",
                    "midi": 41,
                    "time": 32.1875,
                    "velocity": 0.6141732283464567,
                    "duration": 0.3059895833333357
                },
                {
                    "name": "F3",
                    "midi": 53,
                    "time": 32.8125,
                    "velocity": 0.6141732283464567,
                    "duration": 0.3059895833333357
                },
                {
                    "name": "D3",
                    "midi": 50,
                    "time": 33.125,
                    "velocity": 0.6141732283464567,
                    "duration": 0.3059895833333357
                },
                {
                    "name": "F3",
                    "midi": 53,
                    "time": 33.4375,
                    "velocity": 0.6141732283464567,
                    "duration": 0.3059895833333357
                },
                {
                    "name": "G3",
                    "midi": 55,
                    "time": 33.75,
                    "velocity": 0.6141732283464567,
                    "duration": 0.3059895833333357
                },
                {
                    "name": "G2",
                    "midi": 43,
                    "time": 34.0625,
                    "velocity": 0.6141732283464567,
                    "duration": 0.3059895833333357
                },
                {
                    "name": "G3",
                    "midi": 55,
                    "time": 34.6875,
                    "velocity": 0.6141732283464567,
                    "duration": 0.3059895833333357
                },
                {
                    "name": "D3",
                    "midi": 50,
                    "time": 35,
                    "velocity": 0.6141732283464567,
                    "duration": 0.3059895833333357
                },
                {
                    "name": "G3",
                    "midi": 55,
                    "time": 35.3125,
                    "velocity": 0.6141732283464567,
                    "duration": 0.3059895833333357
                },
                {
                    "name": "D#3",
                    "midi": 51,
                    "time": 35.625,
                    "velocity": 0.6141732283464567,
                    "duration": 0.3059895833333357
                },
                {
                    "name": "C3",
                    "midi": 48,
                    "time": 35.9375,
                    "velocity": 0.6141732283464567,
                    "duration": 0.3059895833333357
                },
                {
                    "name": "D#3",
                    "midi": 51,
                    "time": 36.5625,
                    "velocity": 0.6141732283464567,
                    "duration": 0.3059895833333357
                },
                {
                    "name": "C3",
                    "midi": 48,
                    "time": 36.875,
                    "velocity": 0.6141732283464567,
                    "duration": 0.3059895833333357
                },
                {
                    "name": "D#3",
                    "midi": 51,
                    "time": 37.1875,
                    "velocity": 0.6141732283464567,
                    "duration": 0.3059895833333357
                },
                {
                    "name": "A3",
                    "midi": 57,
                    "time": 37.5,
                    "velocity": 0.6141732283464567,
                    "duration": 0.3059895833333357
                },
                {
                    "name": "A2",
                    "midi": 45,
                    "time": 37.8125,
                    "velocity": 0.6141732283464567,
                    "duration": 0.3059895833333357
                },
                {
                    "name": "A3",
                    "midi": 57,
                    "time": 38.4375,
                    "velocity": 0.6141732283464567,
                    "duration": 0.3059895833333357
                },
                {
                    "name": "E3",
                    "midi": 52,
                    "time": 38.75,
                    "velocity": 0.6141732283464567,
                    "duration": 0.3059895833333357
                },
                {
                    "name": "A3",
                    "midi": 57,
                    "time": 39.0625,
                    "velocity": 0.6141732283464567,
                    "duration": 0.3059895833333357
                },
                {
                    "name": "F#3",
                    "midi": 54,
                    "time": 39.375,
                    "velocity": 0.6141732283464567,
                    "duration": 0.3059895833333357
                },
                {
                    "name": "D3",
                    "midi": 50,
                    "time": 39.6875,
                    "velocity": 0.6141732283464567,
                    "duration": 0.3059895833333357
                },
                {
                    "name": "F#3",
                    "midi": 54,
                    "time": 40.3125,
                    "velocity": 0.6141732283464567,
                    "duration": 0.3059895833333357
                },
                {
                    "name": "D3",
                    "midi": 50,
                    "time": 40.625,
                    "velocity": 0.6141732283464567,
                    "duration": 0.3059895833333357
                },
                {
                    "name": "F#3",
                    "midi": 54,
                    "time": 40.9375,
                    "velocity": 0.6141732283464567,
                    "duration": 0.3059895833333357
                },
                {
                    "name": "G3",
                    "midi": 55,
                    "time": 41.25,
                    "velocity": 0.6141732283464567,
                    "duration": 0.3059895833333357
                },
                {
                    "name": "G2",
                    "midi": 43,
                    "time": 41.5625,
                    "velocity": 0.6141732283464567,
                    "duration": 0.3059895833333357
                },
                {
                    "name": "A#2",
                    "midi": 46,
                    "time": 42.1875,
                    "velocity": 0.6141732283464567,
                    "duration": 0.3059895833333357
                },
                {
                    "name": "G2",
                    "midi": 43,
                    "time": 42.5,
                    "velocity": 0.6141732283464567,
                    "duration": 0.3059895833333357
                },
                {
                    "name": "A#2",
                    "midi": 46,
                    "time": 42.8125,
                    "velocity": 0.6141732283464567,
                    "duration": 0.3059895833333357
                },
                {
                    "name": "C3",
                    "midi": 48,
                    "time": 43.125,
                    "velocity": 0.6141732283464567,
                    "duration": 0.6184895833333357
                },
                {
                    "name": "C3",
                    "midi": 48,
                    "time": 44.0625,
                    "velocity": 0.6141732283464567,
                    "duration": 0.3059895833333357
                },
                {
                    "name": "A2",
                    "midi": 45,
                    "time": 44.375,
                    "velocity": 0.6141732283464567,
                    "duration": 0.3059895833333357
                },
                {
                    "name": "C3",
                    "midi": 48,
                    "time": 44.6875,
                    "velocity": 0.6141732283464567,
                    "duration": 0.3059895833333357
                },
                {
                    "name": "D3",
                    "midi": 50,
                    "time": 45,
                    "velocity": 0.6141732283464567,
                    "duration": 0.6184895833333357
                },
                {
                    "name": "D3",
                    "midi": 50,
                    "time": 45.9375,
                    "velocity": 0.6141732283464567,
                    "duration": 0.3059895833333357
                },
                {
                    "name": "D2",
                    "midi": 38,
                    "time": 46.25,
                    "velocity": 0.6141732283464567,
                    "duration": 0.3059895833333357
                },
                {
                    "name": "D3",
                    "midi": 50,
                    "time": 46.5625,
                    "velocity": 0.6141732283464567,
                    "duration": 0.3059895833333357
                },
                {
                    "name": "G2",
                    "midi": 43,
                    "time": 46.875,
                    "velocity": 0.6141732283464567,
                    "duration": 0.6184895833333357
                },
                {
                    "name": "B3",
                    "midi": 59,
                    "time": 67.5,
                    "velocity": 0.6141732283464567,
                    "duration": 0.3059895833333286
                },
                {
                    "name": "G3",
                    "midi": 55,
                    "time": 67.8125,
                    "velocity": 0.6141732283464567,
                    "duration": 0.1497395833333286
                },
                {
                    "name": "A3",
                    "midi": 57,
                    "time": 67.96875,
                    "velocity": 0.6141732283464567,
                    "duration": 0.1497395833333286
                },
                {
                    "name": "B3",
                    "midi": 59,
                    "time": 68.125,
                    "velocity": 0.6141732283464567,
                    "duration": 0.3059895833333286
                },
                {
                    "name": "D4",
                    "midi": 62,
                    "time": 68.4375,
                    "velocity": 0.6141732283464567,
                    "duration": 0.3059895833333286
                },
                {
                    "name": "B3",
                    "midi": 59,
                    "time": 68.75,
                    "velocity": 0.6141732283464567,
                    "duration": 0.3059895833333286
                },
                {
                    "name": "G3",
                    "midi": 55,
                    "time": 69.0625,
                    "velocity": 0.6141732283464567,
                    "duration": 0.3059895833333286
                },
                {
                    "name": "C3",
                    "midi": 48,
                    "time": 69.375,
                    "velocity": 0.6141732283464567,
                    "duration": 0.3059895833333286
                },
                {
                    "name": "C4",
                    "midi": 60,
                    "time": 69.6875,
                    "velocity": 0.6141732283464567,
                    "duration": 0.1497395833333286
                },
                {
                    "name": "D4",
                    "midi": 62,
                    "time": 69.84375,
                    "velocity": 0.6141732283464567,
                    "duration": 0.1497395833333286
                },
                {
                    "name": "A3",
                    "midi": 57,
                    "time": 71.25,
                    "velocity": 0.6141732283464567,
                    "duration": 0.3059895833333286
                },
                {
                    "name": "F3",
                    "midi": 53,
                    "time": 71.5625,
                    "velocity": 0.6141732283464567,
                    "duration": 0.1497395833333286
                },
                {
                    "name": "G3",
                    "midi": 55,
                    "time": 71.71875,
                    "velocity": 0.6141732283464567,
                    "duration": 0.1497395833333286
                },
                {
                    "name": "A3",
                    "midi": 57,
                    "time": 71.875,
                    "velocity": 0.6141732283464567,
                    "duration": 0.3059895833333286
                },
                {
                    "name": "C4",
                    "midi": 60,
                    "time": 72.1875,
                    "velocity": 0.6141732283464567,
                    "duration": 0.3059895833333286
                },
                {
                    "name": "A3",
                    "midi": 57,
                    "time": 72.5,
                    "velocity": 0.6141732283464567,
                    "duration": 0.3059895833333286
                },
                {
                    "name": "F3",
                    "midi": 53,
                    "time": 72.8125,
                    "velocity": 0.6141732283464567,
                    "duration": 0.3059895833333286
                },
                {
                    "name": "A#2",
                    "midi": 46,
                    "time": 73.125,
                    "velocity": 0.6141732283464567,
                    "duration": 0.3059895833333286
                },
                {
                    "name": "A#3",
                    "midi": 58,
                    "time": 73.4375,
                    "velocity": 0.6141732283464567,
                    "duration": 0.1497395833333286
                },
                {
                    "name": "C4",
                    "midi": 60,
                    "time": 73.59375,
                    "velocity": 0.6141732283464567,
                    "duration": 0.1497395833333286
                },
                {
                    "name": "C#4",
                    "midi": 61,
                    "time": 73.75,
                    "velocity": 0.6141732283464567,
                    "duration": 0.3059895833333286
                },
                {
                    "name": "F4",
                    "midi": 65,
                    "time": 74.0625,
                    "velocity": 0.6141732283464567,
                    "duration": 0.3059895833333286
                },
                {
                    "name": "C#4",
                    "midi": 61,
                    "time": 74.375,
                    "velocity": 0.6141732283464567,
                    "duration": 0.3059895833333286
                },
                {
                    "name": "A#3",
                    "midi": 58,
                    "time": 74.6875,
                    "velocity": 0.6141732283464567,
                    "duration": 0.3059895833333286
                },
                {
                    "name": "G3",
                    "midi": 55,
                    "time": 75,
                    "velocity": 0.6141732283464567,
                    "duration": 0.3059895833333286
                },
                {
                    "name": "D#3",
                    "midi": 51,
                    "time": 75.3125,
                    "velocity": 0.6141732283464567,
                    "duration": 0.1497395833333286
                },
                {
                    "name": "F3",
                    "midi": 53,
                    "time": 75.46875,
                    "velocity": 0.6141732283464567,
                    "duration": 0.1497395833333286
                },
                {
                    "name": "G3",
                    "midi": 55,
                    "time": 75.625,
                    "velocity": 0.6141732283464567,
                    "duration": 0.3059895833333286
                },
                {
                    "name": "A#3",
                    "midi": 58,
                    "time": 75.9375,
                    "velocity": 0.6141732283464567,
                    "duration": 0.3059895833333286
                },
                {
                    "name": "G3",
                    "midi": 55,
                    "time": 76.25,
                    "velocity": 0.6141732283464567,
                    "duration": 0.3059895833333286
                },
                {
                    "name": "D#3",
                    "midi": 51,
                    "time": 76.5625,
                    "velocity": 0.6141732283464567,
                    "duration": 0.3059895833333286
                },
                {
                    "name": "G#2",
                    "midi": 44,
                    "time": 76.875,
                    "velocity": 0.6141732283464567,
                    "duration": 0.3059895833333286
                },
                {
                    "name": "G#3",
                    "midi": 56,
                    "time": 77.1875,
                    "velocity": 0.6141732283464567,
                    "duration": 0.1497395833333286
                },
                {
                    "name": "A#3",
                    "midi": 58,
                    "time": 77.34375,
                    "velocity": 0.6141732283464567,
                    "duration": 0.1497395833333286
                },
                {
                    "name": "C4",
                    "midi": 60,
                    "time": 77.5,
                    "velocity": 0.6141732283464567,
                    "duration": 0.3059895833333286
                },
                {
                    "name": "D#4",
                    "midi": 63,
                    "time": 77.8125,
                    "velocity": 0.6141732283464567,
                    "duration": 0.3059895833333286
                },
                {
                    "name": "C4",
                    "midi": 60,
                    "time": 78.125,
                    "velocity": 0.6141732283464567,
                    "duration": 0.3059895833333286
                },
                {
                    "name": "G#3",
                    "midi": 56,
                    "time": 78.4375,
                    "velocity": 0.6141732283464567,
                    "duration": 0.3059895833333286
                },
                {
                    "name": "F#3",
                    "midi": 54,
                    "time": 78.75,
                    "velocity": 0.6141732283464567,
                    "duration": 0.3059895833333286
                },
                {
                    "name": "D3",
                    "midi": 50,
                    "time": 79.0625,
                    "velocity": 0.6141732283464567,
                    "duration": 0.1497395833333286
                },
                {
                    "name": "E3",
                    "midi": 52,
                    "time": 79.21875,
                    "velocity": 0.6141732283464567,
                    "duration": 0.1497395833333286
                },
                {
                    "name": "F#3",
                    "midi": 54,
                    "time": 79.375,
                    "velocity": 0.6141732283464567,
                    "duration": 0.3059895833333286
                },
                {
                    "name": "A3",
                    "midi": 57,
                    "time": 79.6875,
                    "velocity": 0.6141732283464567,
                    "duration": 0.3059895833333286
                },
                {
                    "name": "F#3",
                    "midi": 54,
                    "time": 80,
                    "velocity": 0.6141732283464567,
                    "duration": 0.3059895833333286
                },
                {
                    "name": "D3",
                    "midi": 50,
                    "time": 80.3125,
                    "velocity": 0.6141732283464567,
                    "duration": 0.3059895833333286
                },
                {
                    "name": "G2",
                    "midi": 43,
                    "time": 80.625,
                    "velocity": 0.6141732283464567,
                    "duration": 0.3059895833333286
                },
                {
                    "name": "D#3",
                    "midi": 51,
                    "time": 80.9375,
                    "velocity": 0.6141732283464567,
                    "duration": 0.1497395833333286
                },
                {
                    "name": "F3",
                    "midi": 53,
                    "time": 81.09375,
                    "velocity": 0.6141732283464567,
                    "duration": 0.1497395833333286
                },
                {
                    "name": "G3",
                    "midi": 55,
                    "time": 81.25,
                    "velocity": 0.6141732283464567,
                    "duration": 0.3059895833333286
                },
                {
                    "name": "C4",
                    "midi": 60,
                    "time": 81.5625,
                    "velocity": 0.6141732283464567,
                    "duration": 0.3059895833333286
                },
                {
                    "name": "G3",
                    "midi": 55,
                    "time": 81.875,
                    "velocity": 0.6141732283464567,
                    "duration": 0.3059895833333286
                },
                {
                    "name": "D#3",
                    "midi": 51,
                    "time": 82.1875,
                    "velocity": 0.6141732283464567,
                    "duration": 0.3059895833333286
                },
                {
                    "name": "G2",
                    "midi": 43,
                    "time": 82.5,
                    "velocity": 0.6141732283464567,
                    "duration": 0.3059895833333286
                },
                {
                    "name": "G3",
                    "midi": 55,
                    "time": 82.8125,
                    "velocity": 0.6141732283464567,
                    "duration": 0.1497395833333286
                },
                {
                    "name": "A3",
                    "midi": 57,
                    "time": 82.96875,
                    "velocity": 0.6141732283464567,
                    "duration": 0.1497395833333286
                },
                {
                    "name": "A#3",
                    "midi": 58,
                    "time": 83.125,
                    "velocity": 0.6141732283464567,
                    "duration": 0.3059895833333286
                },
                {
                    "name": "D4",
                    "midi": 62,
                    "time": 83.4375,
                    "velocity": 0.6141732283464567,
                    "duration": 0.3059895833333286
                },
                {
                    "name": "A#3",
                    "midi": 58,
                    "time": 83.75,
                    "velocity": 0.6141732283464567,
                    "duration": 0.3059895833333286
                },
                {
                    "name": "G3",
                    "midi": 55,
                    "time": 84.0625,
                    "velocity": 0.6141732283464567,
                    "duration": 0.3059895833333286
                },
                {
                    "name": "E3",
                    "midi": 52,
                    "time": 84.375,
                    "velocity": 0.6141732283464567,
                    "duration": 0.3059895833333286
                },
                {
                    "name": "C#4",
                    "midi": 61,
                    "time": 84.6875,
                    "velocity": 0.6141732283464567,
                    "duration": 0.1497395833333286
                },
                {
                    "name": "D4",
                    "midi": 62,
                    "time": 84.84375,
                    "velocity": 0.6141732283464567,
                    "duration": 0.1497395833333286
                },
                {
                    "name": "E4",
                    "midi": 64,
                    "time": 85,
                    "velocity": 0.6141732283464567,
                    "duration": 0.3059895833333286
                },
                {
                    "name": "G4",
                    "midi": 67,
                    "time": 85.3125,
                    "velocity": 0.6141732283464567,
                    "duration": 0.3059895833333286
                },
                {
                    "name": "E4",
                    "midi": 64,
                    "time": 85.625,
                    "velocity": 0.6141732283464567,
                    "duration": 0.3059895833333286
                },
                {
                    "name": "C#4",
                    "midi": 61,
                    "time": 85.9375,
                    "velocity": 0.6141732283464567,
                    "duration": 0.3059895833333286
                },
                {
                    "name": "A3",
                    "midi": 57,
                    "time": 86.25,
                    "velocity": 0.6141732283464567,
                    "duration": 0.3059895833333286
                },
                {
                    "name": "C#3",
                    "midi": 49,
                    "time": 86.5625,
                    "velocity": 0.6141732283464567,
                    "duration": 0.1497395833333286
                },
                {
                    "name": "D3",
                    "midi": 50,
                    "time": 86.71875,
                    "velocity": 0.6141732283464567,
                    "duration": 0.1497395833333286
                },
                {
                    "name": "E3",
                    "midi": 52,
                    "time": 86.875,
                    "velocity": 0.6141732283464567,
                    "duration": 0.3059895833333286
                },
                {
                    "name": "G3",
                    "midi": 55,
                    "time": 87.1875,
                    "velocity": 0.6141732283464567,
                    "duration": 0.3059895833333286
                },
                {
                    "name": "E3",
                    "midi": 52,
                    "time": 87.5,
                    "velocity": 0.6141732283464567,
                    "duration": 0.3059895833333286
                },
                {
                    "name": "C#3",
                    "midi": 49,
                    "time": 87.8125,
                    "velocity": 0.6141732283464567,
                    "duration": 0.3059895833333286
                },
                {
                    "name": "D2",
                    "midi": 38,
                    "time": 88.125,
                    "velocity": 0.6141732283464567,
                    "duration": 0.3059895833333286
                },
                {
                    "name": "D3",
                    "midi": 50,
                    "time": 88.4375,
                    "velocity": 0.6141732283464567,
                    "duration": 0.1497395833333286
                },
                {
                    "name": "E3",
                    "midi": 52,
                    "time": 88.59375,
                    "velocity": 0.6141732283464567,
                    "duration": 0.1497395833333286
                },
                {
                    "name": "F3",
                    "midi": 53,
                    "time": 88.75,
                    "velocity": 0.6141732283464567,
                    "duration": 0.3059895833333286
                },
                {
                    "name": "A3",
                    "midi": 57,
                    "time": 89.0625,
                    "velocity": 0.6141732283464567,
                    "duration": 0.3059895833333286
                },
                {
                    "name": "F3",
                    "midi": 53,
                    "time": 89.375,
                    "velocity": 0.6141732283464567,
                    "duration": 0.3059895833333286
                },
                {
                    "name": "D3",
                    "midi": 50,
                    "time": 89.6875,
                    "velocity": 0.6141732283464567,
                    "duration": 0.3059895833333286
                },
                {
                    "name": "D#3",
                    "midi": 51,
                    "time": 90,
                    "velocity": 0.6141732283464567,
                    "duration": 0.3059895833333286
                },
                {
                    "name": "D#4",
                    "midi": 63,
                    "time": 90.3125,
                    "velocity": 0.6141732283464567,
                    "duration": 0.1497395833333286
                },
                {
                    "name": "F4",
                    "midi": 65,
                    "time": 90.46875,
                    "velocity": 0.6141732283464567,
                    "duration": 0.1497395833333286
                },
                {
                    "name": "G4",
                    "midi": 67,
                    "time": 90.625,
                    "velocity": 0.6141732283464567,
                    "duration": 0.3059895833333286
                },
                {
                    "name": "A#4",
                    "midi": 70,
                    "time": 90.9375,
                    "velocity": 0.6141732283464567,
                    "duration": 0.3059895833333286
                },
                {
                    "name": "G4",
                    "midi": 67,
                    "time": 91.25,
                    "velocity": 0.6141732283464567,
                    "duration": 0.3059895833333286
                },
                {
                    "name": "D#4",
                    "midi": 63,
                    "time": 91.5625,
                    "velocity": 0.6141732283464567,
                    "duration": 0.3059895833333286
                },
                {
                    "name": "A3",
                    "midi": 57,
                    "time": 91.875,
                    "velocity": 0.6141732283464567,
                    "duration": 0.3059895833333286
                },
                {
                    "name": "A2",
                    "midi": 45,
                    "time": 92.1875,
                    "velocity": 0.6141732283464567,
                    "duration": 0.1497395833333286
                },
                {
                    "name": "A#2",
                    "midi": 46,
                    "time": 92.34375,
                    "velocity": 0.6141732283464567,
                    "duration": 0.1497395833333286
                },
                {
                    "name": "C3",
                    "midi": 48,
                    "time": 92.5,
                    "velocity": 0.6141732283464567,
                    "duration": 0.3059895833333286
                },
                {
                    "name": "D#3",
                    "midi": 51,
                    "time": 92.8125,
                    "velocity": 0.6141732283464567,
                    "duration": 0.3059895833333286
                },
                {
                    "name": "C3",
                    "midi": 48,
                    "time": 93.125,
                    "velocity": 0.6141732283464567,
                    "duration": 0.3059895833333286
                },
                {
                    "name": "A2",
                    "midi": 45,
                    "time": 93.4375,
                    "velocity": 0.6141732283464567,
                    "duration": 0.3059895833333286
                },
                {
                    "name": "D3",
                    "midi": 50,
                    "time": 93.75,
                    "velocity": 0.6141732283464567,
                    "duration": 0.3059895833333286
                },
                {
                    "name": "D4",
                    "midi": 62,
                    "time": 94.0625,
                    "velocity": 0.6141732283464567,
                    "duration": 0.1497395833333286
                },
                {
                    "name": "D#4",
                    "midi": 63,
                    "time": 94.21875,
                    "velocity": 0.6141732283464567,
                    "duration": 0.1497395833333286
                },
                {
                    "name": "F#4",
                    "midi": 66,
                    "time": 94.375,
                    "velocity": 0.6141732283464567,
                    "duration": 0.3059895833333286
                },
                {
                    "name": "A4",
                    "midi": 69,
                    "time": 94.6875,
                    "velocity": 0.6141732283464567,
                    "duration": 0.3059895833333286
                },
                {
                    "name": "F#4",
                    "midi": 66,
                    "time": 95,
                    "velocity": 0.6141732283464567,
                    "duration": 0.3059895833333286
                },
                {
                    "name": "D4",
                    "midi": 62,
                    "time": 95.3125,
                    "velocity": 0.6141732283464567,
                    "duration": 0.3059895833333286
                },
                {
                    "name": "G3",
                    "midi": 55,
                    "time": 95.625,
                    "velocity": 0.6141732283464567,
                    "duration": 0.3059895833333286
                },
                {
                    "name": "G2",
                    "midi": 43,
                    "time": 95.9375,
                    "velocity": 0.6141732283464567,
                    "duration": 0.1497395833333286
                },
                {
                    "name": "A2",
                    "midi": 45,
                    "time": 96.09375,
                    "velocity": 0.6141732283464567,
                    "duration": 0.1497395833333286
                },
                {
                    "name": "A#2",
                    "midi": 46,
                    "time": 96.25,
                    "velocity": 0.6141732283464567,
                    "duration": 0.3059895833333286
                },
                {
                    "name": "D3",
                    "midi": 50,
                    "time": 96.5625,
                    "velocity": 0.6141732283464567,
                    "duration": 0.3059895833333286
                },
                {
                    "name": "A#2",
                    "midi": 46,
                    "time": 96.875,
                    "velocity": 0.6141732283464567,
                    "duration": 0.3059895833333286
                },
                {
                    "name": "G2",
                    "midi": 43,
                    "time": 97.1875,
                    "velocity": 0.6141732283464567,
                    "duration": 0.3059895833333286
                },
                {
                    "name": "C3",
                    "midi": 48,
                    "time": 97.5,
                    "velocity": 0.6141732283464567,
                    "duration": 0.3059895833333286
                },
                {
                    "name": "A3",
                    "midi": 57,
                    "time": 97.8125,
                    "velocity": 0.6141732283464567,
                    "duration": 0.1497395833333286
                },
                {
                    "name": "A#3",
                    "midi": 58,
                    "time": 97.96875,
                    "velocity": 0.6141732283464567,
                    "duration": 0.1497395833333286
                },
                {
                    "name": "C4",
                    "midi": 60,
                    "time": 98.125,
                    "velocity": 0.6141732283464567,
                    "duration": 0.3059895833333286
                },
                {
                    "name": "D#4",
                    "midi": 63,
                    "time": 98.4375,
                    "velocity": 0.6141732283464567,
                    "duration": 0.3059895833333286
                },
                {
                    "name": "C4",
                    "midi": 60,
                    "time": 98.75,
                    "velocity": 0.6141732283464567,
                    "duration": 0.3059895833333286
                },
                {
                    "name": "A3",
                    "midi": 57,
                    "time": 99.0625,
                    "velocity": 0.6141732283464567,
                    "duration": 0.3059895833333286
                },
                {
                    "name": "D3",
                    "midi": 50,
                    "time": 99.375,
                    "velocity": 0.6141732283464567,
                    "duration": 0.3059895833333286
                },
                {
                    "name": "D2",
                    "midi": 38,
                    "time": 99.6875,
                    "velocity": 0.6141732283464567,
                    "duration": 0.1497395833333286
                },
                {
                    "name": "E2",
                    "midi": 40,
                    "time": 99.84375,
                    "velocity": 0.6141732283464567,
                    "duration": 0.1497395833333286
                },
                {
                    "name": "F#2",
                    "midi": 42,
                    "time": 100,
                    "velocity": 0.6141732283464567,
                    "duration": 0.3059895833333286
                },
                {
                    "name": "A2",
                    "midi": 45,
                    "time": 100.3125,
                    "velocity": 0.6141732283464567,
                    "duration": 0.3059895833333286
                },
                {
                    "name": "F#2",
                    "midi": 42,
                    "time": 100.625,
                    "velocity": 0.6141732283464567,
                    "duration": 0.3059895833333286
                },
                {
                    "name": "D2",
                    "midi": 38,
                    "time": 100.9375,
                    "velocity": 0.6141732283464567,
                    "duration": 0.3059895833333286
                },
                {
                    "name": "G2",
                    "midi": 43,
                    "time": 101.25,
                    "velocity": 0.6141732283464567,
                    "duration": 0.6184895833333286
                },
                {
                    "name": "D#3",
                    "midi": 51,
                    "time": 112.8125,
                    "velocity": 0.6141732283464567,
                    "duration": 0.1497395833333286
                },
                {
                    "name": "F3",
                    "midi": 53,
                    "time": 112.96875,
                    "velocity": 0.6141732283464567,
                    "duration": 0.1497395833333286
                },
                {
                    "name": "G3",
                    "midi": 55,
                    "time": 113.125,
                    "velocity": 0.6141732283464567,
                    "duration": 0.3059895833333286
                },
                {
                    "name": "A#3",
                    "midi": 58,
                    "time": 113.4375,
                    "velocity": 0.6141732283464567,
                    "duration": 0.3059895833333286
                },
                {
                    "name": "G3",
                    "midi": 55,
                    "time": 113.75,
                    "velocity": 0.6141732283464567,
                    "duration": 0.3059895833333286
                },
                {
                    "name": "D#3",
                    "midi": 51,
                    "time": 114.0625,
                    "velocity": 0.6141732283464567,
                    "duration": 0.3059895833333286
                },
                {
                    "name": "C3",
                    "midi": 48,
                    "time": 114.6875,
                    "velocity": 0.6141732283464567,
                    "duration": 0.1497395833333286
                },
                {
                    "name": "D3",
                    "midi": 50,
                    "time": 114.84375,
                    "velocity": 0.6141732283464567,
                    "duration": 0.1497395833333286
                },
                {
                    "name": "D#3",
                    "midi": 51,
                    "time": 115,
                    "velocity": 0.6141732283464567,
                    "duration": 0.3059895833333286
                },
                {
                    "name": "G3",
                    "midi": 55,
                    "time": 115.3125,
                    "velocity": 0.6141732283464567,
                    "duration": 0.3059895833333286
                },
                {
                    "name": "D#3",
                    "midi": 51,
                    "time": 115.625,
                    "velocity": 0.6141732283464567,
                    "duration": 0.3059895833333286
                },
                {
                    "name": "C3",
                    "midi": 48,
                    "time": 115.9375,
                    "velocity": 0.6141732283464567,
                    "duration": 0.3059895833333286
                },
                {
                    "name": "F3",
                    "midi": 53,
                    "time": 116.5625,
                    "velocity": 0.6141732283464567,
                    "duration": 0.1497395833333286
                },
                {
                    "name": "G3",
                    "midi": 55,
                    "time": 116.71875,
                    "velocity": 0.6141732283464567,
                    "duration": 0.1497395833333286
                },
                {
                    "name": "A3",
                    "midi": 57,
                    "time": 116.875,
                    "velocity": 0.6141732283464567,
                    "duration": 0.3059895833333286
                },
                {
                    "name": "C4",
                    "midi": 60,
                    "time": 117.1875,
                    "velocity": 0.6141732283464567,
                    "duration": 0.3059895833333286
                },
                {
                    "name": "F3",
                    "midi": 53,
                    "time": 117.5,
                    "velocity": 0.6141732283464567,
                    "duration": 0.3059895833333286
                },
                {
                    "name": "A3",
                    "midi": 57,
                    "time": 117.8125,
                    "velocity": 0.6141732283464567,
                    "duration": 0.3059895833333286
                },
                {
                    "name": "A#3",
                    "midi": 58,
                    "time": 118.125,
                    "velocity": 0.6141732283464567,
                    "duration": 0.3059895833333286
                },
                {
                    "name": "A#2",
                    "midi": 46,
                    "time": 118.4375,
                    "velocity": 0.6141732283464567,
                    "duration": 0.3059895833333286
                },
                {
                    "name": "A#3",
                    "midi": 58,
                    "time": 119.0625,
                    "velocity": 0.6141732283464567,
                    "duration": 0.3059895833333286
                },
                {
                    "name": "F3",
                    "midi": 53,
                    "time": 119.375,
                    "velocity": 0.6141732283464567,
                    "duration": 0.3059895833333286
                },
                {
                    "name": "A#3",
                    "midi": 58,
                    "time": 119.6875,
                    "velocity": 0.6141732283464567,
                    "duration": 0.3059895833333286
                },
                {
                    "name": "G3",
                    "midi": 55,
                    "time": 120,
                    "velocity": 0.6141732283464567,
                    "duration": 0.3059895833333286
                },
                {
                    "name": "D#3",
                    "midi": 51,
                    "time": 120.3125,
                    "velocity": 0.6141732283464567,
                    "duration": 0.3059895833333286
                },
                {
                    "name": "G3",
                    "midi": 55,
                    "time": 120.9375,
                    "velocity": 0.6141732283464567,
                    "duration": 0.3059895833333286
                },
                {
                    "name": "D#3",
                    "midi": 51,
                    "time": 121.25,
                    "velocity": 0.6141732283464567,
                    "duration": 0.3059895833333286
                },
                {
                    "name": "G3",
                    "midi": 55,
                    "time": 121.5625,
                    "velocity": 0.6141732283464567,
                    "duration": 0.3059895833333286
                },
                {
                    "name": "A#3",
                    "midi": 58,
                    "time": 121.875,
                    "velocity": 0.6141732283464567,
                    "duration": 0.3059895833333286
                },
                {
                    "name": "A#2",
                    "midi": 46,
                    "time": 122.1875,
                    "velocity": 0.6141732283464567,
                    "duration": 0.3059895833333286
                },
                {
                    "name": "D3",
                    "midi": 50,
                    "time": 122.8125,
                    "velocity": 0.6141732283464567,
                    "duration": 0.3059895833333286
                },
                {
                    "name": "A#2",
                    "midi": 46,
                    "time": 123.125,
                    "velocity": 0.6141732283464567,
                    "duration": 0.3059895833333286
                },
                {
                    "name": "D3",
                    "midi": 50,
                    "time": 123.4375,
                    "velocity": 0.6141732283464567,
                    "duration": 0.3059895833333286
                },
                {
                    "name": "D#3",
                    "midi": 51,
                    "time": 123.75,
                    "velocity": 0.6141732283464567,
                    "duration": 0.3059895833333286
                },
                {
                    "name": "D#2",
                    "midi": 39,
                    "time": 124.0625,
                    "velocity": 0.6141732283464567,
                    "duration": 0.3059895833333286
                },
                {
                    "name": "D#3",
                    "midi": 51,
                    "time": 124.6875,
                    "velocity": 0.6141732283464567,
                    "duration": 0.3059895833333286
                },
                {
                    "name": "C3",
                    "midi": 48,
                    "time": 125,
                    "velocity": 0.6141732283464567,
                    "duration": 0.3059895833333286
                },
                {
                    "name": "D#3",
                    "midi": 51,
                    "time": 125.3125,
                    "velocity": 0.6141732283464567,
                    "duration": 0.3059895833333286
                },
                {
                    "name": "F3",
                    "midi": 53,
                    "time": 125.625,
                    "velocity": 0.6141732283464567,
                    "duration": 0.3059895833333286
                },
                {
                    "name": "F2",
                    "midi": 41,
                    "time": 125.9375,
                    "velocity": 0.6141732283464567,
                    "duration": 0.3059895833333286
                },
                {
                    "name": "F3",
                    "midi": 53,
                    "time": 126.5625,
                    "velocity": 0.6141732283464567,
                    "duration": 0.3059895833333286
                },
                {
                    "name": "F2",
                    "midi": 41,
                    "time": 126.875,
                    "velocity": 0.6141732283464567,
                    "duration": 0.3059895833333286
                },
                {
                    "name": "F3",
                    "midi": 53,
                    "time": 127.1875,
                    "velocity": 0.6141732283464567,
                    "duration": 0.3059895833333286
                },
                {
                    "name": "A#2",
                    "midi": 46,
                    "time": 127.5,
                    "velocity": 0.6141732283464567,
                    "duration": 0.6184895833333428
                },
                {
                    "name": "G2",
                    "midi": 43,
                    "time": 158.4375,
                    "velocity": 0.7874015748031497,
                    "duration": 0.3059895833333428
                },
                {
                    "name": "G3",
                    "midi": 55,
                    "time": 158.4375,
                    "velocity": 0.7874015748031497,
                    "duration": 0.3059895833333428
                },
                {
                    "name": "D3",
                    "midi": 50,
                    "time": 158.75,
                    "velocity": 0.7874015748031497,
                    "duration": 0.2278645833333428
                },
                {
                    "name": "A3",
                    "midi": 57,
                    "time": 158.75,
                    "velocity": 0.7874015748031497,
                    "duration": 0.1497395833333428
                },
                {
                    "name": "G3",
                    "midi": 55,
                    "time": 158.90625,
                    "velocity": 0.7874015748031497,
                    "duration": 0.1497395833333428
                },
                {
                    "name": "D3",
                    "midi": 50,
                    "time": 159.0625,
                    "velocity": 0.7874015748031497,
                    "duration": 0.2278645833333428
                },
                {
                    "name": "F#3",
                    "midi": 54,
                    "time": 159.0625,
                    "velocity": 0.7874015748031497,
                    "duration": 0.1497395833333428
                },
                {
                    "name": "E3",
                    "midi": 52,
                    "time": 159.21875,
                    "velocity": 0.7874015748031497,
                    "duration": 0.1497395833333428
                },
                {
                    "name": "F#3",
                    "midi": 54,
                    "time": 159.375,
                    "velocity": 0.7874015748031497,
                    "duration": 0.4622395833333428
                },
                {
                    "name": "D3",
                    "midi": 50,
                    "time": 159.375,
                    "velocity": 0.7874015748031497,
                    "duration": 0.3059895833333428
                },
                {
                    "name": "C3",
                    "midi": 48,
                    "time": 159.6875,
                    "velocity": 0.7874015748031497,
                    "duration": 0.1497395833333428
                },
                {
                    "name": "G3",
                    "midi": 55,
                    "time": 159.84375,
                    "velocity": 0.7874015748031497,
                    "duration": 0.1497395833333428
                },
                {
                    "name": "A#2",
                    "midi": 46,
                    "time": 159.84375,
                    "velocity": 0.7874015748031497,
                    "duration": 0.1497395833333428
                },
                {
                    "name": "A3",
                    "midi": 57,
                    "time": 160,
                    "velocity": 0.7874015748031497,
                    "duration": 0.2083333333333428
                },
                {
                    "name": "A2",
                    "midi": 45,
                    "time": 160,
                    "velocity": 0.7874015748031497,
                    "duration": 0.3059895833333428
                },
                {
                    "name": "A3",
                    "midi": 57,
                    "time": 160.3125,
                    "velocity": 0.7874015748031497,
                    "duration": 0.2083333333333428
                },
                {
                    "name": "G3",
                    "midi": 55,
                    "time": 160.46875,
                    "velocity": 0.7874015748031497,
                    "duration": 0.10416666666668561
                },
                {
                    "name": "A3",
                    "midi": 57,
                    "time": 160.62500000000003,
                    "velocity": 0.7874015748031497,
                    "duration": 0.3059895833333428
                },
                {
                    "name": "F#3",
                    "midi": 54,
                    "time": 160.62500000000003,
                    "velocity": 0.7874015748031497,
                    "duration": 0.3059895833333428
                },
                {
                    "name": "F#3",
                    "midi": 54,
                    "time": 160.93750000000003,
                    "velocity": 0.7874015748031497,
                    "duration": 0.3059895833333428
                },
                {
                    "name": "D3",
                    "midi": 50,
                    "time": 160.93750000000003,
                    "velocity": 0.7874015748031497,
                    "duration": 0.3059895833333428
                },
                {
                    "name": "G3",
                    "midi": 55,
                    "time": 161.25000000000003,
                    "velocity": 0.7874015748031497,
                    "duration": 0.2083333333333428
                },
                {
                    "name": "G3",
                    "midi": 55,
                    "time": 161.56250000000003,
                    "velocity": 0.7874015748031497,
                    "duration": 0.2083333333333428
                },
                {
                    "name": "A3",
                    "midi": 57,
                    "time": 161.71875000000003,
                    "velocity": 0.7874015748031497,
                    "duration": 0.1497395833333428
                },
                {
                    "name": "A#3",
                    "midi": 58,
                    "time": 161.87500000000003,
                    "velocity": 0.7874015748031497,
                    "duration": 0.1497395833333428
                },
                {
                    "name": "G3",
                    "midi": 55,
                    "time": 161.87500000000003,
                    "velocity": 0.7874015748031497,
                    "duration": 0.2083333333333428
                },
                {
                    "name": "D4",
                    "midi": 62,
                    "time": 162.03125000000003,
                    "velocity": 0.7874015748031497,
                    "duration": 0.1497395833333428
                },
                {
                    "name": "G4",
                    "midi": 67,
                    "time": 162.18750000000003,
                    "velocity": 0.7874015748031497,
                    "duration": 0.3059895833333144
                },
                {
                    "name": "A3",
                    "midi": 57,
                    "time": 162.18750000000003,
                    "velocity": 0.7874015748031497,
                    "duration": 0.10416666666665719
                },
                {
                    "name": "A#3",
                    "midi": 58,
                    "time": 162.34375000000003,
                    "velocity": 0.7874015748031497,
                    "duration": 0.10416666666665719
                },
                {
                    "name": "C4",
                    "midi": 60,
                    "time": 162.5,
                    "velocity": 0.7874015748031497,
                    "duration": 0.2083333333333428
                },
                {
                    "name": "C4",
                    "midi": 60,
                    "time": 162.8125,
                    "velocity": 0.7874015748031497,
                    "duration": 0.2083333333333428
                },
                {
                    "name": "C4",
                    "midi": 60,
                    "time": 163.125,
                    "velocity": 0.7874015748031497,
                    "duration": 0.2083333333333428
                },
                {
                    "name": "C4",
                    "midi": 60,
                    "time": 163.4375,
                    "velocity": 0.7874015748031497,
                    "duration": 0.2083333333333428
                },
                {
                    "name": "C4",
                    "midi": 60,
                    "time": 163.75,
                    "velocity": 0.7874015748031497,
                    "duration": 0.3059895833333428
                },
                {
                    "name": "D4",
                    "midi": 62,
                    "time": 163.75,
                    "velocity": 0.7874015748031497,
                    "duration": 0.9309895833333428
                },
                {
                    "name": "A#3",
                    "midi": 58,
                    "time": 164.0625,
                    "velocity": 0.7874015748031497,
                    "duration": 0.1497395833333428
                },
                {
                    "name": "A3",
                    "midi": 57,
                    "time": 164.21875,
                    "velocity": 0.7874015748031497,
                    "duration": 0.1497395833333428
                },
                {
                    "name": "A#3",
                    "midi": 58,
                    "time": 164.375,
                    "velocity": 0.7874015748031497,
                    "duration": 0.3059895833333428
                },
                {
                    "name": "A3",
                    "midi": 57,
                    "time": 164.6875,
                    "velocity": 0.7874015748031497,
                    "duration": 0.3059895833333428
                },
                {
                    "name": "C4",
                    "midi": 60,
                    "time": 164.6875,
                    "velocity": 0.7874015748031497,
                    "duration": 0.3059895833333428
                },
                {
                    "name": "A#3",
                    "midi": 58,
                    "time": 165,
                    "velocity": 0.7874015748031497,
                    "duration": 0.3059895833333428
                },
                {
                    "name": "G3",
                    "midi": 55,
                    "time": 165,
                    "velocity": 0.7874015748031497,
                    "duration": 0.3059895833333428
                },
                {
                    "name": "G3",
                    "midi": 55,
                    "time": 165.3125,
                    "velocity": 0.7874015748031497,
                    "duration": 0.6184895833333428
                },
                {
                    "name": "D#3",
                    "midi": 51,
                    "time": 165.3125,
                    "velocity": 0.7874015748031497,
                    "duration": 0.3059895833333428
                },
                {
                    "name": "C3",
                    "midi": 48,
                    "time": 165.625,
                    "velocity": 0.7874015748031497,
                    "duration": 0.3059895833333428
                },
                {
                    "name": "F#3",
                    "midi": 54,
                    "time": 165.9375,
                    "velocity": 0.7874015748031497,
                    "duration": 0.3059895833333428
                },
                {
                    "name": "D3",
                    "midi": 50,
                    "time": 165.9375,
                    "velocity": 0.7874015748031497,
                    "duration": 0.3059895833333428
                },
                {
                    "name": "G3",
                    "midi": 55,
                    "time": 166.25,
                    "velocity": 0.7874015748031497,
                    "duration": 0.6184895833333428
                },
                {
                    "name": "A#2",
                    "midi": 46,
                    "time": 166.40625,
                    "velocity": 0.7874015748031497,
                    "duration": 0.1497395833333428
                },
                {
                    "name": "C3",
                    "midi": 48,
                    "time": 166.5625,
                    "velocity": 0.7874015748031497,
                    "duration": 0.1497395833333428
                },
                {
                    "name": "D3",
                    "midi": 50,
                    "time": 166.71875,
                    "velocity": 0.7874015748031497,
                    "duration": 0.1497395833333428
                },
                {
                    "name": "G2",
                    "midi": 43,
                    "time": 166.875,
                    "velocity": 0.7874015748031497,
                    "duration": 0.3059895833333428
                },
                {
                    "name": "D3",
                    "midi": 50,
                    "time": 168.4375,
                    "velocity": 0.7874015748031497,
                    "duration": 0.3059895833333428
                },
                {
                    "name": "C3",
                    "midi": 48,
                    "time": 168.59375,
                    "velocity": 0.7874015748031497,
                    "duration": 0.1497395833333428
                },
                {
                    "name": "B2",
                    "midi": 47,
                    "time": 168.75,
                    "velocity": 0.7874015748031497,
                    "duration": 0.1497395833333428
                },
                {
                    "name": "G3",
                    "midi": 55,
                    "time": 168.75,
                    "velocity": 0.7874015748031497,
                    "duration": 0.2083333333333428
                },
                {
                    "name": "C3",
                    "midi": 48,
                    "time": 168.90625,
                    "velocity": 0.7874015748031497,
                    "duration": 0.1497395833333428
                },
                {
                    "name": "B2",
                    "midi": 47,
                    "time": 169.0625,
                    "velocity": 0.7874015748031497,
                    "duration": 0.1497395833333428
                },
                {
                    "name": "G3",
                    "midi": 55,
                    "time": 169.0625,
                    "velocity": 0.7874015748031497,
                    "duration": 0.2083333333333428
                },
                {
                    "name": "A2",
                    "midi": 45,
                    "time": 169.21875,
                    "velocity": 0.7874015748031497,
                    "duration": 0.1497395833333428
                },
                {
                    "name": "G2",
                    "midi": 43,
                    "time": 169.375,
                    "velocity": 0.7874015748031497,
                    "duration": 0.3059895833333428
                },
                {
                    "name": "G3",
                    "midi": 55,
                    "time": 169.375,
                    "velocity": 0.7874015748031497,
                    "duration": 0.2083333333333428
                },
                {
                    "name": "A3",
                    "midi": 57,
                    "time": 169.6875,
                    "velocity": 0.7874015748031497,
                    "duration": 0.10416666666665719
                },
                {
                    "name": "B3",
                    "midi": 59,
                    "time": 169.84375,
                    "velocity": 0.7874015748031497,
                    "duration": 0.10416666666665719
                },
                {
                    "name": "C4",
                    "midi": 60,
                    "time": 170,
                    "velocity": 0.7874015748031497,
                    "duration": 0.3059895833333428
                },
                {
                    "name": "D#3",
                    "midi": 51,
                    "time": 170.3125,
                    "velocity": 0.7874015748031497,
                    "duration": 0.3059895833333428
                },
                {
                    "name": "F3",
                    "midi": 53,
                    "time": 170.625,
                    "velocity": 0.7874015748031497,
                    "duration": 0.3059895833333428
                },
                {
                    "name": "G3",
                    "midi": 55,
                    "time": 170.9375,
                    "velocity": 0.7874015748031497,
                    "duration": 0.3059895833333428
                },
                {
                    "name": "D#3",
                    "midi": 51,
                    "time": 171.25,
                    "velocity": 0.7874015748031497,
                    "duration": 0.1497395833333428
                },
                {
                    "name": "C3",
                    "midi": 48,
                    "time": 171.25,
                    "velocity": 0.7874015748031497,
                    "duration": 0.1497395833333428
                },
                {
                    "name": "D3",
                    "midi": 50,
                    "time": 171.40625,
                    "velocity": 0.7874015748031497,
                    "duration": 0.1497395833333428
                },
                {
                    "name": "D#3",
                    "midi": 51,
                    "time": 171.5625,
                    "velocity": 0.7874015748031497,
                    "duration": 0.1497395833333428
                },
                {
                    "name": "C3",
                    "midi": 48,
                    "time": 171.5625,
                    "velocity": 0.7874015748031497,
                    "duration": 0.1497395833333428
                },
                {
                    "name": "A#2",
                    "midi": 46,
                    "time": 171.71875,
                    "velocity": 0.7874015748031497,
                    "duration": 0.1497395833333428
                },
                {
                    "name": "F3",
                    "midi": 53,
                    "time": 171.875,
                    "velocity": 0.7874015748031497,
                    "duration": 0.3059895833333428
                },
                {
                    "name": "A2",
                    "midi": 45,
                    "time": 171.875,
                    "velocity": 0.7874015748031497,
                    "duration": 0.3059895833333428
                },
                {
                    "name": "G3",
                    "midi": 55,
                    "time": 172.1875,
                    "velocity": 0.7874015748031497,
                    "duration": 0.1497395833333428
                },
                {
                    "name": "A3",
                    "midi": 57,
                    "time": 172.34375,
                    "velocity": 0.7874015748031497,
                    "duration": 0.1497395833333428
                },
                {
                    "name": "A#3",
                    "midi": 58,
                    "time": 172.5,
                    "velocity": 0.7874015748031497,
                    "duration": 0.3059895833333428
                },
                {
                    "name": "D3",
                    "midi": 50,
                    "time": 172.8125,
                    "velocity": 0.7874015748031497,
                    "duration": 0.3059895833333428
                },
                {
                    "name": "D#3",
                    "midi": 51,
                    "time": 173.125,
                    "velocity": 0.7874015748031497,
                    "duration": 0.3059895833333428
                },
                {
                    "name": "F2",
                    "midi": 41,
                    "time": 173.4375,
                    "velocity": 0.7874015748031497,
                    "duration": 0.3059895833333428
                },
                {
                    "name": "F3",
                    "midi": 53,
                    "time": 173.4375,
                    "velocity": 0.7874015748031497,
                    "duration": 0.3059895833333428
                },
                {
                    "name": "A#2",
                    "midi": 46,
                    "time": 173.75,
                    "velocity": 0.7874015748031497,
                    "duration": 0.3059895833333428
                },
                {
                    "name": "A#3",
                    "midi": 58,
                    "time": 174.0625,
                    "velocity": 0.7874015748031497,
                    "duration": 0.1497395833333428
                },
                {
                    "name": "A3",
                    "midi": 57,
                    "time": 174.21875,
                    "velocity": 0.7874015748031497,
                    "duration": 0.1497395833333428
                },
                {
                    "name": "G3",
                    "midi": 55,
                    "time": 174.375,
                    "velocity": 0.7874015748031497,
                    "duration": 0.3059895833333428
                },
                {
                    "name": "F3",
                    "midi": 53,
                    "time": 174.6875,
                    "velocity": 0.7874015748031497,
                    "duration": 0.1497395833333428
                },
                {
                    "name": "D#3",
                    "midi": 51,
                    "time": 174.84375,
                    "velocity": 0.7874015748031497,
                    "duration": 0.1497395833333428
                },
                {
                    "name": "D3",
                    "midi": 50,
                    "time": 175,
                    "velocity": 0.7874015748031497,
                    "duration": 0.4622395833333428
                },
                {
                    "name": "F3",
                    "midi": 53,
                    "time": 175.15625,
                    "velocity": 0.7874015748031497,
                    "duration": 0.1497395833333428
                },
                {
                    "name": "G#3",
                    "midi": 56,
                    "time": 175.3125,
                    "velocity": 0.7874015748031497,
                    "duration": 0.3059895833333428
                },
                {
                    "name": "C3",
                    "midi": 48,
                    "time": 175.46875,
                    "velocity": 0.7874015748031497,
                    "duration": 0.1497395833333428
                },
                {
                    "name": "B2",
                    "midi": 47,
                    "time": 175.625,
                    "velocity": 0.7874015748031497,
                    "duration": 0.4622395833333428
                },
                {
                    "name": "D3",
                    "midi": 50,
                    "time": 175.78125,
                    "velocity": 0.7874015748031497,
                    "duration": 0.1497395833333428
                },
                {
                    "name": "G3",
                    "midi": 55,
                    "time": 175.9375,
                    "velocity": 0.7874015748031497,
                    "duration": 0.3059895833333428
                },
                {
                    "name": "G2",
                    "midi": 43,
                    "time": 176.09375,
                    "velocity": 0.7874015748031497,
                    "duration": 0.1497395833333428
                },
                {
                    "name": "C3",
                    "midi": 48,
                    "time": 176.25,
                    "velocity": 0.7874015748031497,
                    "duration": 0.3059895833333428
                },
                {
                    "name": "C4",
                    "midi": 60,
                    "time": 176.5625,
                    "velocity": 0.7874015748031497,
                    "duration": 0.1497395833333428
                },
                {
                    "name": "A#3",
                    "midi": 58,
                    "time": 176.71875,
                    "velocity": 0.7874015748031497,
                    "duration": 0.1497395833333428
                },
                {
                    "name": "A3",
                    "midi": 57,
                    "time": 176.875,
                    "velocity": 0.7874015748031497,
                    "duration": 0.3059895833333428
                },
                {
                    "name": "G3",
                    "midi": 55,
                    "time": 177.1875,
                    "velocity": 0.7874015748031497,
                    "duration": 0.1497395833333428
                },
                {
                    "name": "F3",
                    "midi": 53,
                    "time": 177.34375,
                    "velocity": 0.7874015748031497,
                    "duration": 0.1497395833333428
                },
                {
                    "name": "E3",
                    "midi": 52,
                    "time": 177.5,
                    "velocity": 0.7874015748031497,
                    "duration": 0.4622395833333428
                },
                {
                    "name": "G3",
                    "midi": 55,
                    "time": 177.65625,
                    "velocity": 0.7874015748031497,
                    "duration": 0.1497395833333428
                },
                {
                    "name": "A#3",
                    "midi": 58,
                    "time": 177.8125,
                    "velocity": 0.7874015748031497,
                    "duration": 0.3059895833333428
                },
                {
                    "name": "D3",
                    "midi": 50,
                    "time": 177.96875,
                    "velocity": 0.7874015748031497,
                    "duration": 0.1497395833333428
                },
                {
                    "name": "C#3",
                    "midi": 49,
                    "time": 178.125,
                    "velocity": 0.7874015748031497,
                    "duration": 0.4622395833333428
                },
                {
                    "name": "E3",
                    "midi": 52,
                    "time": 178.28125,
                    "velocity": 0.7874015748031497,
                    "duration": 0.1497395833333428
                },
                {
                    "name": "A3",
                    "midi": 57,
                    "time": 178.4375,
                    "velocity": 0.7874015748031497,
                    "duration": 0.3059895833333428
                },
                {
                    "name": "A2",
                    "midi": 45,
                    "time": 178.59375,
                    "velocity": 0.7874015748031497,
                    "duration": 0.1497395833333428
                },
                {
                    "name": "D3",
                    "midi": 50,
                    "time": 178.75,
                    "velocity": 0.7874015748031497,
                    "duration": 0.1497395833333428
                },
                {
                    "name": "A2",
                    "midi": 45,
                    "time": 178.90625,
                    "velocity": 0.7874015748031497,
                    "duration": 0.1497395833333428
                },
                {
                    "name": "F2",
                    "midi": 41,
                    "time": 179.0625,
                    "velocity": 0.7874015748031497,
                    "duration": 0.1497395833333428
                },
                {
                    "name": "D2",
                    "midi": 38,
                    "time": 179.21875,
                    "velocity": 0.7874015748031497,
                    "duration": 0.1497395833333428
                },
                {
                    "name": "D3",
                    "midi": 50,
                    "time": 179.375,
                    "velocity": 0.7874015748031497,
                    "duration": 0.1497395833333428
                },
                {
                    "name": "A2",
                    "midi": 45,
                    "time": 179.53125,
                    "velocity": 0.7874015748031497,
                    "duration": 0.1497395833333428
                },
                {
                    "name": "F2",
                    "midi": 41,
                    "time": 179.6875,
                    "velocity": 0.7874015748031497,
                    "duration": 0.1497395833333428
                },
                {
                    "name": "D2",
                    "midi": 38,
                    "time": 179.84375,
                    "velocity": 0.7874015748031497,
                    "duration": 0.1497395833333428
                },
                {
                    "name": "D3",
                    "midi": 50,
                    "time": 180,
                    "velocity": 0.7874015748031497,
                    "duration": 0.2083333333333428
                },
                {
                    "name": "F3",
                    "midi": 53,
                    "time": 180.3125,
                    "velocity": 0.7874015748031497,
                    "duration": 0.3059895833333428
                },
                {
                    "name": "D3",
                    "midi": 50,
                    "time": 180.3125,
                    "velocity": 0.7874015748031497,
                    "duration": 0.2083333333333428
                },
                {
                    "name": "A#3",
                    "midi": 58,
                    "time": 180.625,
                    "velocity": 0.7874015748031497,
                    "duration": 0.2083333333333428
                },
                {
                    "name": "D3",
                    "midi": 50,
                    "time": 180.625,
                    "velocity": 0.7874015748031497,
                    "duration": 0.2083333333333428
                },
                {
                    "name": "A#3",
                    "midi": 58,
                    "time": 180.9375,
                    "velocity": 0.7874015748031497,
                    "duration": 0.4166666666666572
                },
                {
                    "name": "D3",
                    "midi": 50,
                    "time": 180.9375,
                    "velocity": 0.7874015748031497,
                    "duration": 0.2083333333333428
                },
                {
                    "name": "D#3",
                    "midi": 51,
                    "time": 181.25,
                    "velocity": 0.7874015748031497,
                    "duration": 0.2083333333333428
                },
                {
                    "name": "C4",
                    "midi": 60,
                    "time": 181.40625,
                    "velocity": 0.7874015748031497,
                    "duration": 0.10416666666668561
                },
                {
                    "name": "D3",
                    "midi": 50,
                    "time": 181.56250000000003,
                    "velocity": 0.7874015748031497,
                    "duration": 0.10416666666665719
                },
                {
                    "name": "D4",
                    "midi": 62,
                    "time": 181.56250000000003,
                    "velocity": 0.7874015748031497,
                    "duration": 0.2083333333333428
                },
                {
                    "name": "D#3",
                    "midi": 51,
                    "time": 181.71875000000003,
                    "velocity": 0.7874015748031497,
                    "duration": 0.10416666666668561
                },
                {
                    "name": "C4",
                    "midi": 60,
                    "time": 181.87500000000006,
                    "velocity": 0.7874015748031497,
                    "duration": 0.3059895833333428
                },
                {
                    "name": "F3",
                    "midi": 53,
                    "time": 181.87500000000006,
                    "velocity": 0.7874015748031497,
                    "duration": 0.3059895833333428
                },
                {
                    "name": "F2",
                    "midi": 41,
                    "time": 182.18750000000006,
                    "velocity": 0.7874015748031497,
                    "duration": 0.3059895833333428
                },
                {
                    "name": "A#2",
                    "midi": 46,
                    "time": 182.50000000000006,
                    "velocity": 0.7874015748031497,
                    "duration": 0.1497395833333428
                },
                {
                    "name": "A#2",
                    "midi": 46,
                    "time": 196.56250000000006,
                    "velocity": 0.7874015748031497,
                    "duration": 0.3059895833333428
                },
                {
                    "name": "C3",
                    "midi": 48,
                    "time": 196.87500000000006,
                    "velocity": 0.7874015748031497,
                    "duration": 0.3059895833333428
                },
                {
                    "name": "D#3",
                    "midi": 51,
                    "time": 197.18750000000006,
                    "velocity": 0.7874015748031497,
                    "duration": 0.3059895833333428
                },
                {
                    "name": "F3",
                    "midi": 53,
                    "time": 197.50000000000006,
                    "velocity": 0.7874015748031497,
                    "duration": 0.3059895833333428
                },
                {
                    "name": "A2",
                    "midi": 45,
                    "time": 197.81250000000006,
                    "velocity": 0.7874015748031497,
                    "duration": 0.3059895833333428
                },
                {
                    "name": "A#2",
                    "midi": 46,
                    "time": 198.12500000000006,
                    "velocity": 0.7874015748031497,
                    "duration": 0.3059895833333428
                },
                {
                    "name": "D3",
                    "midi": 50,
                    "time": 198.43750000000006,
                    "velocity": 0.7874015748031497,
                    "duration": 0.3059895833333428
                },
                {
                    "name": "D#3",
                    "midi": 51,
                    "time": 198.75000000000006,
                    "velocity": 0.7874015748031497,
                    "duration": 0.3059895833333428
                },
                {
                    "name": "G2",
                    "midi": 43,
                    "time": 199.06250000000006,
                    "velocity": 0.7874015748031497,
                    "duration": 0.3059895833333428
                },
                {
                    "name": "A2",
                    "midi": 45,
                    "time": 199.37500000000006,
                    "velocity": 0.7874015748031497,
                    "duration": 0.3059895833333428
                },
                {
                    "name": "C3",
                    "midi": 48,
                    "time": 199.68750000000006,
                    "velocity": 0.7874015748031497,
                    "duration": 0.3059895833333428
                },
                {
                    "name": "D3",
                    "midi": 50,
                    "time": 200.00000000000006,
                    "velocity": 0.7874015748031497,
                    "duration": 0.3059895833333428
                },
                {
                    "name": "F2",
                    "midi": 41,
                    "time": 200.31250000000006,
                    "velocity": 0.7874015748031497,
                    "duration": 0.3059895833333428
                },
                {
                    "name": "G2",
                    "midi": 43,
                    "time": 200.62500000000006,
                    "velocity": 0.7874015748031497,
                    "duration": 0.3059895833333428
                },
                {
                    "name": "A#2",
                    "midi": 46,
                    "time": 200.93750000000006,
                    "velocity": 0.7874015748031497,
                    "duration": 0.3059895833333428
                },
                {
                    "name": "C3",
                    "midi": 48,
                    "time": 201.25000000000006,
                    "velocity": 0.7874015748031497,
                    "duration": 0.3059895833333428
                },
                {
                    "name": "D#2",
                    "midi": 39,
                    "time": 201.56250000000006,
                    "velocity": 0.7874015748031497,
                    "duration": 0.3059895833333428
                },
                {
                    "name": "F2",
                    "midi": 41,
                    "time": 201.87500000000006,
                    "velocity": 0.7874015748031497,
                    "duration": 0.3059895833333428
                },
                {
                    "name": "A2",
                    "midi": 45,
                    "time": 202.18750000000006,
                    "velocity": 0.7874015748031497,
                    "duration": 0.3059895833333428
                },
                {
                    "name": "A#2",
                    "midi": 46,
                    "time": 202.50000000000006,
                    "velocity": 0.7874015748031497,
                    "duration": 0.1497395833333428
                },
                {
                    "name": "A#3",
                    "midi": 58,
                    "time": 202.81250000000006,
                    "velocity": 0.7874015748031497,
                    "duration": 0.1497395833333428
                },
                {
                    "name": "A3",
                    "midi": 57,
                    "time": 202.96875000000006,
                    "velocity": 0.7874015748031497,
                    "duration": 0.1497395833333428
                },
                {
                    "name": "G3",
                    "midi": 55,
                    "time": 203.12500000000006,
                    "velocity": 0.7874015748031497,
                    "duration": 0.1497395833333428
                },
                {
                    "name": "F3",
                    "midi": 53,
                    "time": 203.28125000000006,
                    "velocity": 0.7874015748031497,
                    "duration": 0.1497395833333428
                },
                {
                    "name": "D#3",
                    "midi": 51,
                    "time": 203.43750000000006,
                    "velocity": 0.7874015748031497,
                    "duration": 0.1497395833333428
                },
                {
                    "name": "D3",
                    "midi": 50,
                    "time": 203.59375000000006,
                    "velocity": 0.7874015748031497,
                    "duration": 0.1497395833333428
                },
                {
                    "name": "C3",
                    "midi": 48,
                    "time": 203.75000000000006,
                    "velocity": 0.7874015748031497,
                    "duration": 0.3059895833333428
                },
                {
                    "name": "D#3",
                    "midi": 51,
                    "time": 204.06250000000006,
                    "velocity": 0.7874015748031497,
                    "duration": 0.1497395833333428
                },
                {
                    "name": "D3",
                    "midi": 50,
                    "time": 204.21875000000006,
                    "velocity": 0.7874015748031497,
                    "duration": 0.1497395833333428
                },
                {
                    "name": "C3",
                    "midi": 48,
                    "time": 204.37500000000006,
                    "velocity": 0.7874015748031497,
                    "duration": 0.1497395833333428
                },
                {
                    "name": "A#2",
                    "midi": 46,
                    "time": 204.53125000000006,
                    "velocity": 0.7874015748031497,
                    "duration": 0.1497395833333428
                },
                {
                    "name": "A2",
                    "midi": 45,
                    "time": 204.68750000000006,
                    "velocity": 0.7874015748031497,
                    "duration": 0.1497395833333428
                },
                {
                    "name": "G2",
                    "midi": 43,
                    "time": 204.84375000000006,
                    "velocity": 0.7874015748031497,
                    "duration": 0.1497395833333428
                },
                {
                    "name": "F2",
                    "midi": 41,
                    "time": 205.00000000000006,
                    "velocity": 0.7874015748031497,
                    "duration": 0.1497395833333428
                },
                {
                    "name": "F3",
                    "midi": 53,
                    "time": 205.31250000000006,
                    "velocity": 0.7874015748031497,
                    "duration": 0.1497395833333428
                },
                {
                    "name": "G3",
                    "midi": 55,
                    "time": 205.46875000000006,
                    "velocity": 0.7874015748031497,
                    "duration": 0.1497395833333428
                },
                {
                    "name": "F3",
                    "midi": 53,
                    "time": 205.62500000000006,
                    "velocity": 0.7874015748031497,
                    "duration": 0.1497395833333428
                },
                {
                    "name": "D#3",
                    "midi": 51,
                    "time": 205.78125000000006,
                    "velocity": 0.7874015748031497,
                    "duration": 0.1497395833333428
                },
                {
                    "name": "D3",
                    "midi": 50,
                    "time": 205.93750000000006,
                    "velocity": 0.7874015748031497,
                    "duration": 0.1497395833333428
                },
                {
                    "name": "C3",
                    "midi": 48,
                    "time": 206.09375000000006,
                    "velocity": 0.7874015748031497,
                    "duration": 0.1497395833333428
                },
                {
                    "name": "A#2",
                    "midi": 46,
                    "time": 206.25000000000006,
                    "velocity": 0.7874015748031497,
                    "duration": 0.3059895833333428
                },
                {
                    "name": "F3",
                    "midi": 53,
                    "time": 216.87500000000006,
                    "velocity": 0.7874015748031497,
                    "duration": 0.3059895833333428
                },
                {
                    "name": "G3",
                    "midi": 55,
                    "time": 217.50000000000006,
                    "velocity": 0.7874015748031497,
                    "duration": 0.3059895833333428
                },
                {
                    "name": "G2",
                    "midi": 43,
                    "time": 218.12500000000006,
                    "velocity": 0.7874015748031497,
                    "duration": 0.3059895833333428
                },
                {
                    "name": "A2",
                    "midi": 45,
                    "time": 218.75000000000006,
                    "velocity": 0.7874015748031497,
                    "duration": 0.2083333333333428
                },
                {
                    "name": "A3",
                    "midi": 57,
                    "time": 219.37500000000006,
                    "velocity": 0.7874015748031497,
                    "duration": 0.2083333333333428
                },
                {
                    "name": "A#3",
                    "midi": 58,
                    "time": 220.00000000000006,
                    "velocity": 0.7874015748031497,
                    "duration": 0.2083333333333428
                },
                {
                    "name": "A#2",
                    "midi": 46,
                    "time": 220.62500000000006,
                    "velocity": 0.7874015748031497,
                    "duration": 0.2083333333333428
                },
                {
                    "name": "B3",
                    "midi": 59,
                    "time": 221.25000000000006,
                    "velocity": 0.7874015748031497,
                    "duration": 0.3059895833333428
                },
                {
                    "name": "B2",
                    "midi": 47,
                    "time": 221.87500000000006,
                    "velocity": 0.7874015748031497,
                    "duration": 0.3059895833333428
                },
                {
                    "name": "C4",
                    "midi": 60,
                    "time": 222.50000000000006,
                    "velocity": 0.7874015748031497,
                    "duration": 0.3059895833333428
                },
                {
                    "name": "C3",
                    "midi": 48,
                    "time": 223.12500000000006,
                    "velocity": 0.7874015748031497,
                    "duration": 0.3059895833333428
                },
                {
                    "name": "A3",
                    "midi": 57,
                    "time": 223.75000000000006,
                    "velocity": 0.7874015748031497,
                    "duration": 0.3059895833333428
                },
                {
                    "name": "A2",
                    "midi": 45,
                    "time": 224.37500000000006,
                    "velocity": 0.7874015748031497,
                    "duration": 0.3059895833333428
                },
                {
                    "name": "A#3",
                    "midi": 58,
                    "time": 225.00000000000006,
                    "velocity": 0.7874015748031497,
                    "duration": 0.3059895833333428
                },
                {
                    "name": "A#2",
                    "midi": 46,
                    "time": 225.62500000000006,
                    "velocity": 0.7874015748031497,
                    "duration": 0.3059895833333428
                },
                {
                    "name": "C4",
                    "midi": 60,
                    "time": 226.25000000000006,
                    "velocity": 0.7874015748031497,
                    "duration": 0.3059895833333428
                },
                {
                    "name": "C3",
                    "midi": 48,
                    "time": 226.87500000000006,
                    "velocity": 0.7874015748031497,
                    "duration": 0.3059895833333428
                },
                {
                    "name": "F3",
                    "midi": 53,
                    "time": 227.50000000000006,
                    "velocity": 0.7874015748031497,
                    "duration": 0.4166666666666572
                },
                {
                    "name": "F3",
                    "midi": 53,
                    "time": 238.12500000000006,
                    "velocity": 0.7874015748031497,
                    "duration": 0.4166666666666572
                },
                {
                    "name": "A#2",
                    "midi": 46,
                    "time": 238.75000000000006,
                    "velocity": 0.7874015748031497,
                    "duration": 0.4166666666666572
                },
                {
                    "name": "G2",
                    "midi": 43,
                    "time": 240.00000000000006,
                    "velocity": 0.7874015748031497,
                    "duration": 0.4166666666666572
                },
                {
                    "name": "A2",
                    "midi": 45,
                    "time": 241.25000000000006,
                    "velocity": 0.7874015748031497,
                    "duration": 0.4166666666666572
                },
                {
                    "name": "D3",
                    "midi": 50,
                    "time": 242.50000000000006,
                    "velocity": 0.7874015748031497,
                    "duration": 0.4166666666666572
                },
                {
                    "name": "G2",
                    "midi": 43,
                    "time": 243.75000000000006,
                    "velocity": 0.7874015748031497,
                    "duration": 0.4166666666666572
                },
                {
                    "name": "A2",
                    "midi": 45,
                    "time": 245.00000000000006,
                    "velocity": 0.7874015748031497,
                    "duration": 0.4166666666666572
                },
                {
                    "name": "D3",
                    "midi": 50,
                    "time": 246.25000000000006,
                    "velocity": 0.7874015748031497,
                    "duration": 0.4166666666666572
                },
                {
                    "name": "G3",
                    "midi": 55,
                    "time": 247.50000000000006,
                    "velocity": 0.7874015748031497,
                    "duration": 0.4166666666666572
                },
                {
                    "name": "F3",
                    "midi": 53,
                    "time": 248.75000000000006,
                    "velocity": 0.7874015748031497,
                    "duration": 0.4166666666666572
                },
                {
                    "name": "E3",
                    "midi": 52,
                    "time": 250.00000000000006,
                    "velocity": 0.7874015748031497,
                    "duration": 0.4166666666666572
                },
                {
                    "name": "F3",
                    "midi": 53,
                    "time": 251.25000000000006,
                    "velocity": 0.7874015748031497,
                    "duration": 0.4166666666666572
                },
                {
                    "name": "D3",
                    "midi": 50,
                    "time": 252.50000000000006,
                    "velocity": 0.7874015748031497,
                    "duration": 0.4166666666666572
                },
                {
                    "name": "E3",
                    "midi": 52,
                    "time": 253.75000000000006,
                    "velocity": 0.7874015748031497,
                    "duration": 0.4166666666666572
                },
                {
                    "name": "A2",
                    "midi": 45,
                    "time": 255.00000000000006,
                    "velocity": 0.7874015748031497,
                    "duration": 0.4166666666666572
                },
                {
                    "name": "A3",
                    "midi": 57,
                    "time": 260.31250000000006,
                    "velocity": 0.7874015748031497,
                    "duration": 0.3059895833333144
                },
                {
                    "name": "A#3",
                    "midi": 58,
                    "time": 260.62500000000006,
                    "velocity": 0.7874015748031497,
                    "duration": 0.3059895833333144
                },
                {
                    "name": "A3",
                    "midi": 57,
                    "time": 260.93750000000006,
                    "velocity": 0.7874015748031497,
                    "duration": 0.3059895833333144
                },
                {
                    "name": "G3",
                    "midi": 55,
                    "time": 261.25000000000006,
                    "velocity": 0.7874015748031497,
                    "duration": 0.3059895833333144
                },
                {
                    "name": "E3",
                    "midi": 52,
                    "time": 261.56250000000006,
                    "velocity": 0.7874015748031497,
                    "duration": 0.3059895833333144
                },
                {
                    "name": "A3",
                    "midi": 57,
                    "time": 261.87500000000006,
                    "velocity": 0.7874015748031497,
                    "duration": 0.3059895833333144
                },
                {
                    "name": "G3",
                    "midi": 55,
                    "time": 262.18750000000006,
                    "velocity": 0.7874015748031497,
                    "duration": 0.3059895833333144
                },
                {
                    "name": "F#3",
                    "midi": 54,
                    "time": 262.50000000000006,
                    "velocity": 0.7874015748031497,
                    "duration": 0.3059895833333144
                },
                {
                    "name": "D3",
                    "midi": 50,
                    "time": 262.81250000000006,
                    "velocity": 0.7874015748031497,
                    "duration": 0.3059895833333144
                },
                {
                    "name": "G3",
                    "midi": 55,
                    "time": 263.12500000000006,
                    "velocity": 0.7874015748031497,
                    "duration": 0.3059895833333144
                },
                {
                    "name": "A#2",
                    "midi": 46,
                    "time": 263.43750000000006,
                    "velocity": 0.7874015748031497,
                    "duration": 0.3059895833333144
                },
                {
                    "name": "C3",
                    "midi": 48,
                    "time": 263.75000000000006,
                    "velocity": 0.7874015748031497,
                    "duration": 0.3059895833333144
                },
                {
                    "name": "A2",
                    "midi": 45,
                    "time": 264.06250000000006,
                    "velocity": 0.7874015748031497,
                    "duration": 0.3059895833333144
                },
                {
                    "name": "D3",
                    "midi": 50,
                    "time": 264.37500000000006,
                    "velocity": 0.7874015748031497,
                    "duration": 0.3059895833333144
                },
                {
                    "name": "D2",
                    "midi": 38,
                    "time": 264.68750000000006,
                    "velocity": 0.7874015748031497,
                    "duration": 0.3059895833333144
                },
                {
                    "name": "G2",
                    "midi": 43,
                    "time": 265.00000000000006,
                    "velocity": 0.7874015748031497,
                    "duration": 0.4166666666666856
                },
                {
                    "name": "D#3",
                    "midi": 51,
                    "time": 265.62500000000006,
                    "velocity": 0.7874015748031497,
                    "duration": 0.6184895833333144
                },
                {
                    "name": "F3",
                    "midi": 53,
                    "time": 266.25000000000006,
                    "velocity": 0.7874015748031497,
                    "duration": 0.6184895833333144
                },
                {
                    "name": "D3",
                    "midi": 50,
                    "time": 266.87500000000006,
                    "velocity": 0.7874015748031497,
                    "duration": 0.6184895833333144
                },
                {
                    "name": "D#3",
                    "midi": 51,
                    "time": 267.50000000000006,
                    "velocity": 0.7874015748031497,
                    "duration": 0.6184895833333144
                },
                {
                    "name": "C3",
                    "midi": 48,
                    "time": 268.12500000000006,
                    "velocity": 0.7874015748031497,
                    "duration": 0.6184895833333144
                },
                {
                    "name": "D3",
                    "midi": 50,
                    "time": 268.75000000000006,
                    "velocity": 0.7874015748031497,
                    "duration": 0.6184895833333144
                },
                {
                    "name": "A#2",
                    "midi": 46,
                    "time": 269.37500000000006,
                    "velocity": 0.7874015748031497,
                    "duration": 0.6184895833333144
                },
                {
                    "name": "C3",
                    "midi": 48,
                    "time": 270.00000000000006,
                    "velocity": 0.7874015748031497,
                    "duration": 0.6184895833333144
                },
                {
                    "name": "A2",
                    "midi": 45,
                    "time": 270.62500000000006,
                    "velocity": 0.7874015748031497,
                    "duration": 0.6184895833333144
                },
                {
                    "name": "D3",
                    "midi": 50,
                    "time": 271.25000000000006,
                    "velocity": 0.7874015748031497,
                    "duration": 0.20833333333331439
                },
                {
                    "name": "G2",
                    "midi": 43,
                    "time": 279.06250000000006,
                    "velocity": 0.7874015748031497,
                    "duration": 0.20833333333331439
                },
                {
                    "name": "G2",
                    "midi": 43,
                    "time": 279.37500000000006,
                    "velocity": 0.7874015748031497,
                    "duration": 0.20833333333331439
                },
                {
                    "name": "A2",
                    "midi": 45,
                    "time": 279.68750000000006,
                    "velocity": 0.7874015748031497,
                    "duration": 0.20833333333331439
                },
                {
                    "name": "A#2",
                    "midi": 46,
                    "time": 280.00000000000006,
                    "velocity": 0.7874015748031497,
                    "duration": 0.3059895833333144
                },
                {
                    "name": "G2",
                    "midi": 43,
                    "time": 280.31250000000006,
                    "velocity": 0.7874015748031497,
                    "duration": 0.3059895833333144
                },
                {
                    "name": "A#2",
                    "midi": 46,
                    "time": 280.62500000000006,
                    "velocity": 0.7874015748031497,
                    "duration": 0.3059895833333144
                },
                {
                    "name": "C3",
                    "midi": 48,
                    "time": 280.93750000000006,
                    "velocity": 0.7874015748031497,
                    "duration": 0.3059895833333144
                },
                {
                    "name": "D3",
                    "midi": 50,
                    "time": 281.25000000000006,
                    "velocity": 0.7874015748031497,
                    "duration": 0.3059895833333144
                },
                {
                    "name": "E3",
                    "midi": 52,
                    "time": 281.56250000000006,
                    "velocity": 0.7874015748031497,
                    "duration": 0.14973958333331439
                },
                {
                    "name": "F#3",
                    "midi": 54,
                    "time": 281.71875000000006,
                    "velocity": 0.7874015748031497,
                    "duration": 0.14973958333331439
                },
                {
                    "name": "G3",
                    "midi": 55,
                    "time": 281.87500000000006,
                    "velocity": 0.7874015748031497,
                    "duration": 0.14973958333331439
                },
                {
                    "name": "A3",
                    "midi": 57,
                    "time": 282.03125000000006,
                    "velocity": 0.7874015748031497,
                    "duration": 0.14973958333331439
                },
                {
                    "name": "A#3",
                    "midi": 58,
                    "time": 282.18750000000006,
                    "velocity": 0.7874015748031497,
                    "duration": 0.14973958333331439
                },
                {
                    "name": "C4",
                    "midi": 60,
                    "time": 282.34375000000006,
                    "velocity": 0.7874015748031497,
                    "duration": 0.14973958333331439
                },
                {
                    "name": "D4",
                    "midi": 62,
                    "time": 282.50000000000006,
                    "velocity": 0.7874015748031497,
                    "duration": 0.3059895833333144
                },
                {
                    "name": "C4",
                    "midi": 60,
                    "time": 282.81250000000006,
                    "velocity": 0.7874015748031497,
                    "duration": 0.3059895833333144
                },
                {
                    "name": "D4",
                    "midi": 62,
                    "time": 283.12500000000006,
                    "velocity": 0.7874015748031497,
                    "duration": 0.3059895833333144
                },
                {
                    "name": "D3",
                    "midi": 50,
                    "time": 283.43750000000006,
                    "velocity": 0.7874015748031497,
                    "duration": 0.3059895833333144
                },
                {
                    "name": "G2",
                    "midi": 43,
                    "time": 283.75000000000006,
                    "velocity": 0.7874015748031497,
                    "duration": 1.8684895833333144
                },
                {
                    "name": "D3",
                    "midi": 50,
                    "time": 322.18750000000006,
                    "velocity": 0.7874015748031497,
                    "duration": 0.4166666666666856
                },
                {
                    "name": "A#2",
                    "midi": 46,
                    "time": 323.12500000000006,
                    "velocity": 0.7874015748031497,
                    "duration": 0.6184895833333144
                },
                {
                    "name": "C3",
                    "midi": 48,
                    "time": 323.75000000000006,
                    "velocity": 0.7874015748031497,
                    "duration": 0.3059895833333144
                },
                {
                    "name": "F2",
                    "midi": 41,
                    "time": 324.06250000000006,
                    "velocity": 0.7874015748031497,
                    "duration": 0.6184895833333144
                },
                {
                    "name": "A#2",
                    "midi": 46,
                    "time": 325.00000000000006,
                    "velocity": 0.7874015748031497,
                    "duration": 0.6184895833333144
                },
                {
                    "name": "D#3",
                    "midi": 51,
                    "time": 325.93750000000006,
                    "velocity": 0.7874015748031497,
                    "duration": 0.6184895833333144
                },
                {
                    "name": "C3",
                    "midi": 48,
                    "time": 326.87500000000006,
                    "velocity": 0.7874015748031497,
                    "duration": 0.6184895833333144
                },
                {
                    "name": "D3",
                    "midi": 50,
                    "time": 327.50000000000006,
                    "velocity": 0.7874015748031497,
                    "duration": 0.3059895833333144
                },
                {
                    "name": "G2",
                    "midi": 43,
                    "time": 327.81250000000006,
                    "velocity": 0.7874015748031497,
                    "duration": 0.6184895833333144
                },
                {
                    "name": "F3",
                    "midi": 53,
                    "time": 328.75000000000006,
                    "velocity": 0.7874015748031497,
                    "duration": 0.4166666666666856
                },
                {
                    "name": "D3",
                    "midi": 50,
                    "time": 329.68750000000006,
                    "velocity": 0.7874015748031497,
                    "duration": 0.4166666666666856
                },
                {
                    "name": "A#2",
                    "midi": 46,
                    "time": 330.62500000000006,
                    "velocity": 0.7874015748031497,
                    "duration": 0.6184895833333144
                },
                {
                    "name": "C3",
                    "midi": 48,
                    "time": 331.25000000000006,
                    "velocity": 0.7874015748031497,
                    "duration": 0.3059895833333144
                },
                {
                    "name": "F2",
                    "midi": 41,
                    "time": 331.56250000000006,
                    "velocity": 0.7874015748031497,
                    "duration": 0.6184895833333144
                },
                {
                    "name": "D3",
                    "midi": 50,
                    "time": 332.50000000000006,
                    "velocity": 0.7874015748031497,
                    "duration": 0.6184895833333144
                },
                {
                    "name": "G3",
                    "midi": 55,
                    "time": 333.43750000000006,
                    "velocity": 0.7874015748031497,
                    "duration": 0.6184895833333144
                },
                {
                    "name": "D#3",
                    "midi": 51,
                    "time": 334.37500000000006,
                    "velocity": 0.7874015748031497,
                    "duration": 0.6184895833333144
                },
                {
                    "name": "F3",
                    "midi": 53,
                    "time": 335.00000000000006,
                    "velocity": 0.7874015748031497,
                    "duration": 0.3059895833333144
                },
                {
                    "name": "A#2",
                    "midi": 46,
                    "time": 335.31250000000006,
                    "velocity": 0.7874015748031497,
                    "duration": 0.6184895833333144
                },
                {
                    "name": "C3",
                    "midi": 48,
                    "time": 336.25000000000006,
                    "velocity": 0.7874015748031497,
                    "duration": 0.6184895833333144
                },
                {
                    "name": "D3",
                    "midi": 50,
                    "time": 336.87500000000006,
                    "velocity": 0.7874015748031497,
                    "duration": 0.3059895833333144
                },
                {
                    "name": "E3",
                    "midi": 52,
                    "time": 337.18750000000006,
                    "velocity": 0.7874015748031497,
                    "duration": 0.6184895833333144
                },
                {
                    "name": "F3",
                    "midi": 53,
                    "time": 337.81250000000006,
                    "velocity": 0.7874015748031497,
                    "duration": 0.3059895833333144
                },
                {
                    "name": "G3",
                    "midi": 55,
                    "time": 338.12500000000006,
                    "velocity": 0.7874015748031497,
                    "duration": 0.6184895833333144
                },
                {
                    "name": "A3",
                    "midi": 57,
                    "time": 338.75000000000006,
                    "velocity": 0.7874015748031497,
                    "duration": 0.3059895833333144
                },
                {
                    "name": "A#3",
                    "midi": 58,
                    "time": 339.06250000000006,
                    "velocity": 0.7874015748031497,
                    "duration": 0.3059895833333144
                },
                {
                    "name": "C4",
                    "midi": 60,
                    "time": 339.37500000000006,
                    "velocity": 0.7874015748031497,
                    "duration": 0.3059895833333144
                },
                {
                    "name": "A#3",
                    "midi": 58,
                    "time": 339.68750000000006,
                    "velocity": 0.7874015748031497,
                    "duration": 0.3059895833333144
                },
                {
                    "name": "A3",
                    "midi": 57,
                    "time": 340.00000000000006,
                    "velocity": 0.7874015748031497,
                    "duration": 0.6184895833333144
                },
                {
                    "name": "G3",
                    "midi": 55,
                    "time": 340.62500000000006,
                    "velocity": 0.7874015748031497,
                    "duration": 0.3059895833333144
                },
                {
                    "name": "F3",
                    "midi": 53,
                    "time": 340.93750000000006,
                    "velocity": 0.7874015748031497,
                    "duration": 0.3059895833333144
                },
                {
                    "name": "G3",
                    "midi": 55,
                    "time": 341.25000000000006,
                    "velocity": 0.7874015748031497,
                    "duration": 0.3059895833333144
                },
                {
                    "name": "A3",
                    "midi": 57,
                    "time": 341.56250000000006,
                    "velocity": 0.7874015748031497,
                    "duration": 0.3059895833333144
                },
                {
                    "name": "A#3",
                    "midi": 58,
                    "time": 341.87500000000006,
                    "velocity": 0.7874015748031497,
                    "duration": 0.3059895833333144
                },
                {
                    "name": "A3",
                    "midi": 57,
                    "time": 342.18750000000006,
                    "velocity": 0.7874015748031497,
                    "duration": 0.3059895833333144
                },
                {
                    "name": "G3",
                    "midi": 55,
                    "time": 342.50000000000006,
                    "velocity": 0.7874015748031497,
                    "duration": 0.3059895833333144
                },
                {
                    "name": "A3",
                    "midi": 57,
                    "time": 342.81250000000006,
                    "velocity": 0.7874015748031497,
                    "duration": 0.3059895833333144
                },
                {
                    "name": "G3",
                    "midi": 55,
                    "time": 343.12500000000006,
                    "velocity": 0.7874015748031497,
                    "duration": 0.3059895833333144
                },
                {
                    "name": "F3",
                    "midi": 53,
                    "time": 343.43750000000006,
                    "velocity": 0.7874015748031497,
                    "duration": 0.3059895833333144
                },
                {
                    "name": "A#3",
                    "midi": 58,
                    "time": 343.75000000000006,
                    "velocity": 0.7874015748031497,
                    "duration": 0.3059895833333144
                },
                {
                    "name": "A3",
                    "midi": 57,
                    "time": 344.06250000000006,
                    "velocity": 0.7874015748031497,
                    "duration": 0.3059895833333144
                },
                {
                    "name": "G3",
                    "midi": 55,
                    "time": 344.37500000000006,
                    "velocity": 0.7874015748031497,
                    "duration": 0.20833333333331439
                },
                {
                    "name": "A3",
                    "midi": 57,
                    "time": 344.68750000000006,
                    "velocity": 0.7874015748031497,
                    "duration": 0.3059895833333144
                },
                {
                    "name": "A#3",
                    "midi": 58,
                    "time": 345.00000000000006,
                    "velocity": 0.7874015748031497,
                    "duration": 0.3059895833333144
                },
                {
                    "name": "C4",
                    "midi": 60,
                    "time": 345.31250000000006,
                    "velocity": 0.7874015748031497,
                    "duration": 0.3059895833333144
                },
                {
                    "name": "F3",
                    "midi": 53,
                    "time": 345.62500000000006,
                    "velocity": 0.7874015748031497,
                    "duration": 0.3059895833333144
                },
                {
                    "name": "G3",
                    "midi": 55,
                    "time": 345.93750000000006,
                    "velocity": 0.7874015748031497,
                    "duration": 0.3059895833333144
                },
                {
                    "name": "A3",
                    "midi": 57,
                    "time": 346.25000000000006,
                    "velocity": 0.7874015748031497,
                    "duration": 0.3059895833333144
                },
                {
                    "name": "A#3",
                    "midi": 58,
                    "time": 346.56250000000006,
                    "velocity": 0.7874015748031497,
                    "duration": 0.3059895833333144
                },
                {
                    "name": "A3",
                    "midi": 57,
                    "time": 346.87500000000006,
                    "velocity": 0.7874015748031497,
                    "duration": 0.3059895833333144
                },
                {
                    "name": "G3",
                    "midi": 55,
                    "time": 347.18750000000006,
                    "velocity": 0.7874015748031497,
                    "duration": 0.3059895833333144
                },
                {
                    "name": "A3",
                    "midi": 57,
                    "time": 347.50000000000006,
                    "velocity": 0.7874015748031497,
                    "duration": 0.4166666666666856
                },
                {
                    "name": "F3",
                    "midi": 53,
                    "time": 348.43750000000006,
                    "velocity": 0.7874015748031497,
                    "duration": 0.4166666666666856
                },
                {
                    "name": "A3",
                    "midi": 57,
                    "time": 348.43750000000006,
                    "velocity": 0.7874015748031497,
                    "duration": 0.4166666666666856
                },
                {
                    "name": "A#2",
                    "midi": 46,
                    "time": 349.37500000000006,
                    "velocity": 0.7874015748031497,
                    "duration": 0.4166666666666856
                },
                {
                    "name": "A#3",
                    "midi": 58,
                    "time": 349.37500000000006,
                    "velocity": 0.7874015748031497,
                    "duration": 0.4166666666666856
                },
                {
                    "name": "G3",
                    "midi": 55,
                    "time": 350.31250000000006,
                    "velocity": 0.7874015748031497,
                    "duration": 0.4166666666666856
                },
                {
                    "name": "A#3",
                    "midi": 58,
                    "time": 350.31250000000006,
                    "velocity": 0.7874015748031497,
                    "duration": 0.4166666666666856
                },
                {
                    "name": "C3",
                    "midi": 48,
                    "time": 351.25000000000006,
                    "velocity": 0.7874015748031497,
                    "duration": 0.4166666666666856
                },
                {
                    "name": "G3",
                    "midi": 55,
                    "time": 351.25000000000006,
                    "velocity": 0.7874015748031497,
                    "duration": 0.4166666666666856
                },
                {
                    "name": "C4",
                    "midi": 60,
                    "time": 352.18750000000006,
                    "velocity": 0.7874015748031497,
                    "duration": 0.4166666666666856
                },
                {
                    "name": "A3",
                    "midi": 57,
                    "time": 352.18750000000006,
                    "velocity": 0.7874015748031497,
                    "duration": 0.4166666666666856
                },
                {
                    "name": "D3",
                    "midi": 50,
                    "time": 353.12500000000006,
                    "velocity": 0.7874015748031497,
                    "duration": 0.4166666666666856
                },
                {
                    "name": "A3",
                    "midi": 57,
                    "time": 353.12500000000006,
                    "velocity": 0.7874015748031497,
                    "duration": 0.4166666666666856
                },
                {
                    "name": "A#3",
                    "midi": 58,
                    "time": 354.06250000000006,
                    "velocity": 0.7874015748031497,
                    "duration": 0.4166666666666856
                },
                {
                    "name": "D4",
                    "midi": 62,
                    "time": 354.06250000000006,
                    "velocity": 0.7874015748031497,
                    "duration": 0.4166666666666856
                },
                {
                    "name": "E3",
                    "midi": 52,
                    "time": 355.00000000000006,
                    "velocity": 0.7874015748031497,
                    "duration": 0.4166666666666856
                },
                {
                    "name": "C4",
                    "midi": 60,
                    "time": 355.00000000000006,
                    "velocity": 0.7874015748031497,
                    "duration": 0.4166666666666856
                },
                {
                    "name": "C4",
                    "midi": 60,
                    "time": 355.93750000000006,
                    "velocity": 0.7874015748031497,
                    "duration": 0.4166666666666856
                },
                {
                    "name": "E4",
                    "midi": 64,
                    "time": 355.93750000000006,
                    "velocity": 0.7874015748031497,
                    "duration": 0.4166666666666856
                },
                {
                    "name": "F4",
                    "midi": 65,
                    "time": 356.87500000000006,
                    "velocity": 0.7874015748031497,
                    "duration": 0.4166666666666856
                },
                {
                    "name": "C4",
                    "midi": 60,
                    "time": 356.87500000000006,
                    "velocity": 0.7874015748031497,
                    "duration": 0.4166666666666856
                },
                {
                    "name": "F3",
                    "midi": 53,
                    "time": 356.87500000000006,
                    "velocity": 0.7874015748031497,
                    "duration": 0.4166666666666856
                },
                {
                    "name": "C4",
                    "midi": 60,
                    "time": 357.81250000000006,
                    "velocity": 0.7874015748031497,
                    "duration": 0.4166666666666856
                },
                {
                    "name": "F3",
                    "midi": 53,
                    "time": 357.81250000000006,
                    "velocity": 0.7874015748031497,
                    "duration": 0.4166666666666856
                },
                {
                    "name": "D#3",
                    "midi": 51,
                    "time": 357.81250000000006,
                    "velocity": 0.7874015748031497,
                    "duration": 0.4166666666666856
                },
                {
                    "name": "D3",
                    "midi": 50,
                    "time": 358.75000000000006,
                    "velocity": 0.7874015748031497,
                    "duration": 0.3059895833333144
                },
                {
                    "name": "F3",
                    "midi": 53,
                    "time": 359.06250000000006,
                    "velocity": 0.7874015748031497,
                    "duration": 0.3059895833333144
                },
                {
                    "name": "A#3",
                    "midi": 58,
                    "time": 359.37500000000006,
                    "velocity": 0.7874015748031497,
                    "duration": 0.3059895833333144
                },
                {
                    "name": "D#3",
                    "midi": 51,
                    "time": 359.68750000000006,
                    "velocity": 0.7874015748031497,
                    "duration": 0.3059895833333144
                },
                {
                    "name": "G3",
                    "midi": 55,
                    "time": 360.00000000000006,
                    "velocity": 0.7874015748031497,
                    "duration": 0.3059895833333144
                },
                {
                    "name": "C4",
                    "midi": 60,
                    "time": 360.31250000000006,
                    "velocity": 0.7874015748031497,
                    "duration": 0.3059895833333144
                },
                {
                    "name": "A#3",
                    "midi": 58,
                    "time": 398.12500000000006,
                    "velocity": 0.7874015748031497,
                    "duration": 0.20833333333331439
                },
                {
                    "name": "A3",
                    "midi": 57,
                    "time": 398.43750000000006,
                    "velocity": 0.7874015748031497,
                    "duration": 0.20833333333331439
                },
                {
                    "name": "G3",
                    "midi": 55,
                    "time": 398.75000000000006,
                    "velocity": 0.7874015748031497,
                    "duration": 0.20833333333331439
                },
                {
                    "name": "A#3",
                    "midi": 58,
                    "time": 399.06250000000006,
                    "velocity": 0.7874015748031497,
                    "duration": 0.20833333333331439
                },
                {
                    "name": "A3",
                    "midi": 57,
                    "time": 399.37500000000006,
                    "velocity": 0.7874015748031497,
                    "duration": 0.20833333333331439
                },
                {
                    "name": "G3",
                    "midi": 55,
                    "time": 399.68750000000006,
                    "velocity": 0.7874015748031497,
                    "duration": 0.20833333333331439
                },
                {
                    "name": "F#3",
                    "midi": 54,
                    "time": 400.00000000000006,
                    "velocity": 0.7874015748031497,
                    "duration": 0.20833333333331439
                },
                {
                    "name": "E3",
                    "midi": 52,
                    "time": 400.31250000000006,
                    "velocity": 0.7874015748031497,
                    "duration": 0.20833333333331439
                },
                {
                    "name": "D3",
                    "midi": 50,
                    "time": 400.62500000000006,
                    "velocity": 0.7874015748031497,
                    "duration": 0.20833333333331439
                },
                {
                    "name": "F#3",
                    "midi": 54,
                    "time": 400.93750000000006,
                    "velocity": 0.7874015748031497,
                    "duration": 0.20833333333331439
                },
                {
                    "name": "E3",
                    "midi": 52,
                    "time": 401.25000000000006,
                    "velocity": 0.7874015748031497,
                    "duration": 0.20833333333331439
                },
                {
                    "name": "D3",
                    "midi": 50,
                    "time": 401.56250000000006,
                    "velocity": 0.7874015748031497,
                    "duration": 0.20833333333331439
                },
                {
                    "name": "G3",
                    "midi": 55,
                    "time": 401.87500000000006,
                    "velocity": 0.7874015748031497,
                    "duration": 0.3059895833333144
                },
                {
                    "name": "A3",
                    "midi": 57,
                    "time": 402.18750000000006,
                    "velocity": 0.7874015748031497,
                    "duration": 0.20833333333331439
                },
                {
                    "name": "A#3",
                    "midi": 58,
                    "time": 402.50000000000006,
                    "velocity": 0.7874015748031497,
                    "duration": 0.20833333333331439
                },
                {
                    "name": "G3",
                    "midi": 55,
                    "time": 402.81250000000006,
                    "velocity": 0.7874015748031497,
                    "duration": 0.3059895833333144
                },
                {
                    "name": "A3",
                    "midi": 57,
                    "time": 403.12500000000006,
                    "velocity": 0.7874015748031497,
                    "duration": 0.20833333333331439
                },
                {
                    "name": "A#3",
                    "midi": 58,
                    "time": 403.43750000000006,
                    "velocity": 0.7874015748031497,
                    "duration": 0.20833333333331439
                },
                {
                    "name": "A3",
                    "midi": 57,
                    "time": 403.75000000000006,
                    "velocity": 0.7874015748031497,
                    "duration": 0.3059895833333144
                },
                {
                    "name": "A#3",
                    "midi": 58,
                    "time": 404.06250000000006,
                    "velocity": 0.7874015748031497,
                    "duration": 0.3059895833333144
                },
                {
                    "name": "C4",
                    "midi": 60,
                    "time": 404.37500000000006,
                    "velocity": 0.7874015748031497,
                    "duration": 0.20833333333331439
                },
                {
                    "name": "A3",
                    "midi": 57,
                    "time": 404.68750000000006,
                    "velocity": 0.7874015748031497,
                    "duration": 0.3059895833333144
                },
                {
                    "name": "A#3",
                    "midi": 58,
                    "time": 405.00000000000006,
                    "velocity": 0.7874015748031497,
                    "duration": 0.3059895833333144
                },
                {
                    "name": "C4",
                    "midi": 60,
                    "time": 405.31250000000006,
                    "velocity": 0.7874015748031497,
                    "duration": 0.20833333333331439
                },
                {
                    "name": "C3",
                    "midi": 48,
                    "time": 405.62500000000006,
                    "velocity": 0.7874015748031497,
                    "duration": 0.9309895833333144
                },
                {
                    "name": "F#3",
                    "midi": 54,
                    "time": 405.62500000000006,
                    "velocity": 0.7874015748031497,
                    "duration": 0.9309895833333144
                },
                {
                    "name": "A#2",
                    "midi": 46,
                    "time": 407.50000000000006,
                    "velocity": 0.7874015748031497,
                    "duration": 0.6184895833333144
                },
                {
                    "name": "C3",
                    "midi": 48,
                    "time": 408.12500000000006,
                    "velocity": 0.7874015748031497,
                    "duration": 0.3059895833333144
                },
                {
                    "name": "D3",
                    "midi": 50,
                    "time": 408.43750000000006,
                    "velocity": 0.7874015748031497,
                    "duration": 0.3059895833333144
                },
                {
                    "name": "C3",
                    "midi": 48,
                    "time": 408.75000000000006,
                    "velocity": 0.7874015748031497,
                    "duration": 0.3059895833333144
                },
                {
                    "name": "D3",
                    "midi": 50,
                    "time": 409.06250000000006,
                    "velocity": 0.7874015748031497,
                    "duration": 0.3059895833333144
                },
                {
                    "name": "D#3",
                    "midi": 51,
                    "time": 409.37500000000006,
                    "velocity": 0.7874015748031497,
                    "duration": 0.3059895833333144
                },
                {
                    "name": "D3",
                    "midi": 50,
                    "time": 409.68750000000006,
                    "velocity": 0.7874015748031497,
                    "duration": 0.3059895833333144
                },
                {
                    "name": "C3",
                    "midi": 48,
                    "time": 410.00000000000006,
                    "velocity": 0.7874015748031497,
                    "duration": 0.3059895833333144
                },
                {
                    "name": "D3",
                    "midi": 50,
                    "time": 410.31250000000006,
                    "velocity": 0.7874015748031497,
                    "duration": 0.3059895833333144
                },
                {
                    "name": "C3",
                    "midi": 48,
                    "time": 410.62500000000006,
                    "velocity": 0.7874015748031497,
                    "duration": 0.3059895833333144
                },
                {
                    "name": "D3",
                    "midi": 50,
                    "time": 410.93750000000006,
                    "velocity": 0.7874015748031497,
                    "duration": 0.3059895833333144
                },
                {
                    "name": "G2",
                    "midi": 43,
                    "time": 411.25000000000006,
                    "velocity": 0.7874015748031497,
                    "duration": 0.3059895833333144
                },
                {
                    "name": "D3",
                    "midi": 50,
                    "time": 411.56250000000006,
                    "velocity": 0.7874015748031497,
                    "duration": 0.3059895833333144
                },
                {
                    "name": "G3",
                    "midi": 55,
                    "time": 411.87500000000006,
                    "velocity": 0.7874015748031497,
                    "duration": 0.3059895833333144
                },
                {
                    "name": "C3",
                    "midi": 48,
                    "time": 412.18750000000006,
                    "velocity": 0.7874015748031497,
                    "duration": 0.3059895833333144
                },
                {
                    "name": "D#3",
                    "midi": 51,
                    "time": 412.50000000000006,
                    "velocity": 0.7874015748031497,
                    "duration": 0.3059895833333144
                },
                {
                    "name": "G3",
                    "midi": 55,
                    "time": 412.81250000000006,
                    "velocity": 0.7874015748031497,
                    "duration": 0.3059895833333144
                },
                {
                    "name": "A#2",
                    "midi": 46,
                    "time": 413.12500000000006,
                    "velocity": 0.7874015748031497,
                    "duration": 0.3059895833333144
                },
                {
                    "name": "D3",
                    "midi": 50,
                    "time": 413.43750000000006,
                    "velocity": 0.7874015748031497,
                    "duration": 0.3059895833333144
                },
                {
                    "name": "G3",
                    "midi": 55,
                    "time": 413.75000000000006,
                    "velocity": 0.7874015748031497,
                    "duration": 0.3059895833333144
                },
                {
                    "name": "C3",
                    "midi": 48,
                    "time": 414.06250000000006,
                    "velocity": 0.7874015748031497,
                    "duration": 0.6184895833333144
                },
                {
                    "name": "G3",
                    "midi": 55,
                    "time": 414.37500000000006,
                    "velocity": 0.7874015748031497,
                    "duration": 0.3059895833333144
                },
                {
                    "name": "F#3",
                    "midi": 54,
                    "time": 414.68750000000006,
                    "velocity": 0.7874015748031497,
                    "duration": 0.3059895833333144
                },
                {
                    "name": "D3",
                    "midi": 50,
                    "time": 414.68750000000006,
                    "velocity": 0.7874015748031497,
                    "duration": 0.3059895833333144
                },
                {
                    "name": "G2",
                    "midi": 43,
                    "time": 415.00000000000006,
                    "velocity": 0.7874015748031497,
                    "duration": 0.20833333333331439
                },
                {
                    "name": "A3",
                    "midi": 57,
                    "time": 415.31250000000006,
                    "velocity": 0.7874015748031497,
                    "duration": 0.20833333333331439
                },
                {
                    "name": "G3",
                    "midi": 55,
                    "time": 415.62500000000006,
                    "velocity": 0.7874015748031497,
                    "duration": 0.20833333333331439
                },
                {
                    "name": "F#3",
                    "midi": 54,
                    "time": 415.93750000000006,
                    "velocity": 0.7874015748031497,
                    "duration": 0.20833333333331439
                },
                {
                    "name": "E3",
                    "midi": 52,
                    "time": 416.25000000000006,
                    "velocity": 0.7874015748031497,
                    "duration": 0.20833333333331439
                },
                {
                    "name": "D3",
                    "midi": 50,
                    "time": 416.56250000000006,
                    "velocity": 0.7874015748031497,
                    "duration": 0.20833333333331439
                },
                {
                    "name": "G3",
                    "midi": 55,
                    "time": 416.87500000000006,
                    "velocity": 0.7874015748031497,
                    "duration": 0.6184895833333144
                },
                {
                    "name": "G2",
                    "midi": 43,
                    "time": 417.50000000000006,
                    "velocity": 0.7874015748031497,
                    "duration": 0.3059895833333144
                },
                {
                    "name": "G3",
                    "midi": 55,
                    "time": 418.12500000000006,
                    "velocity": 0.7874015748031497,
                    "duration": 0.3059895833333144
                },
                {
                    "name": "F3",
                    "midi": 53,
                    "time": 418.43750000000006,
                    "velocity": 0.7874015748031497,
                    "duration": 0.3059895833333144
                },
                {
                    "name": "D#3",
                    "midi": 51,
                    "time": 418.75000000000006,
                    "velocity": 0.7874015748031497,
                    "duration": 0.3059895833333144
                },
                {
                    "name": "D3",
                    "midi": 50,
                    "time": 419.06250000000006,
                    "velocity": 0.7874015748031497,
                    "duration": 0.3059895833333144
                },
                {
                    "name": "C3",
                    "midi": 48,
                    "time": 419.37500000000006,
                    "velocity": 0.7874015748031497,
                    "duration": 0.3059895833333144
                },
                {
                    "name": "C4",
                    "midi": 60,
                    "time": 419.68750000000006,
                    "velocity": 0.7874015748031497,
                    "duration": 0.3059895833333144
                },
                {
                    "name": "G3",
                    "midi": 55,
                    "time": 420.00000000000006,
                    "velocity": 0.7874015748031497,
                    "duration": 0.3059895833333144
                },
                {
                    "name": "A#3",
                    "midi": 58,
                    "time": 420.31250000000006,
                    "velocity": 0.7874015748031497,
                    "duration": 0.3059895833333144
                },
                {
                    "name": "A3",
                    "midi": 57,
                    "time": 420.62500000000006,
                    "velocity": 0.7874015748031497,
                    "duration": 0.6184895833333144
                },
                {
                    "name": "A2",
                    "midi": 45,
                    "time": 421.25000000000006,
                    "velocity": 0.7874015748031497,
                    "duration": 0.3059895833333144
                },
                {
                    "name": "A3",
                    "midi": 57,
                    "time": 421.87500000000006,
                    "velocity": 0.7874015748031497,
                    "duration": 0.3059895833333144
                },
                {
                    "name": "G3",
                    "midi": 55,
                    "time": 422.18750000000006,
                    "velocity": 0.7874015748031497,
                    "duration": 0.3059895833333144
                },
                {
                    "name": "F3",
                    "midi": 53,
                    "time": 422.50000000000006,
                    "velocity": 0.7874015748031497,
                    "duration": 0.3059895833333144
                },
                {
                    "name": "E3",
                    "midi": 52,
                    "time": 422.81250000000006,
                    "velocity": 0.7874015748031497,
                    "duration": 0.3059895833333144
                },
                {
                    "name": "D3",
                    "midi": 50,
                    "time": 423.12500000000006,
                    "velocity": 0.7874015748031497,
                    "duration": 0.3059895833333144
                },
                {
                    "name": "D4",
                    "midi": 62,
                    "time": 423.43750000000006,
                    "velocity": 0.7874015748031497,
                    "duration": 0.3059895833333144
                },
                {
                    "name": "A3",
                    "midi": 57,
                    "time": 423.75000000000006,
                    "velocity": 0.7874015748031497,
                    "duration": 0.3059895833333144
                },
                {
                    "name": "C4",
                    "midi": 60,
                    "time": 424.06250000000006,
                    "velocity": 0.7874015748031497,
                    "duration": 0.3059895833333144
                },
                {
                    "name": "A#3",
                    "midi": 58,
                    "time": 424.37500000000006,
                    "velocity": 0.7874015748031497,
                    "duration": 0.3059895833333144
                },
                {
                    "name": "D3",
                    "midi": 50,
                    "time": 424.68750000000006,
                    "velocity": 0.7874015748031497,
                    "duration": 0.3059895833333144
                },
                {
                    "name": "D#3",
                    "midi": 51,
                    "time": 425.00000000000006,
                    "velocity": 0.7874015748031497,
                    "duration": 0.3059895833333144
                },
                {
                    "name": "F3",
                    "midi": 53,
                    "time": 425.31250000000006,
                    "velocity": 0.7874015748031497,
                    "duration": 0.3059895833333144
                },
                {
                    "name": "D#3",
                    "midi": 51,
                    "time": 425.62500000000006,
                    "velocity": 0.7874015748031497,
                    "duration": 0.3059895833333144
                },
                {
                    "name": "F3",
                    "midi": 53,
                    "time": 425.93750000000006,
                    "velocity": 0.7874015748031497,
                    "duration": 0.3059895833333144
                }
            ],
            "controlChanges": {
                "7": [
                    {
                        "number": 7,
                        "time": 0,
                        "value": 0.7322834645669292
                    }
                ]
            },
            "id": 6,
            "name": "Manual 2 LH",
            "instrumentNumber": 6,
            "instrument": "harpsichord",
            "instrumentFamily": "piano",
            "channelNumber": 1,
            "isPercussion": false
        },
        {
            "startTime": 0,
            "duration": 0,
            "length": 0,
            "notes": [],
            "controlChanges": {},
            "id": 7,
            "name": "Sequenced & copyright 1997 by T.L. Hubeart Jr."
        }
    ]
}