{
    "header": {
        "PPQ": 480,
        "timeSignature": [
            3,
            4
        ],
        "bpm": 55.00000458333371,
        "name": "untitled"
    },
    "startTime": 0,
    "duration": 183.2727120000009,
    "tracks": [
        {
            "startTime": 0,
            "duration": 0,
            "length": 0,
            "notes": [],
            "controlChanges": {},
            "id": 0,
            "name": "untitled"
        },
        {
            "startTime": 0,
            "duration": 183.2727120000009,
            "length": 328,
            "notes": [
                {
                    "name": "D3",
                    "midi": 50,
                    "time": 0,
                    "velocity": 0.7874015748031497,
                    "duration": 0.8181817500000002
                },
                {
                    "name": "E3",
                    "midi": 52,
                    "time": 0.8181817500000002,
                    "velocity": 0.7874015748031497,
                    "duration": 0.27272725
                },
                {
                    "name": "E3",
                    "midi": 52,
                    "time": 1.0909090000000001,
                    "velocity": 0.7874015748031497,
                    "duration": 1.6363635
                },
                {
                    "name": "D3",
                    "midi": 50,
                    "time": 2.7090906833333337,
                    "velocity": 0.7874015748031497,
                    "duration": 0.27272725
                },
                {
                    "name": "E3",
                    "midi": 52,
                    "time": 2.990908841666667,
                    "velocity": 0.7874015748031497,
                    "duration": 0.27272725
                },
                {
                    "name": "F3",
                    "midi": 53,
                    "time": 3.2727270000000006,
                    "velocity": 0.7874015748031497,
                    "duration": 1.6363635000000007
                },
                {
                    "name": "E3",
                    "midi": 52,
                    "time": 4.909090500000001,
                    "velocity": 0.7874015748031497,
                    "duration": 0.5454545
                },
                {
                    "name": "D3",
                    "midi": 50,
                    "time": 5.454545000000001,
                    "velocity": 0.7874015748031497,
                    "duration": 0.5454545
                },
                {
                    "name": "C3",
                    "midi": 48,
                    "time": 5.999999500000001,
                    "velocity": 0.7874015748031497,
                    "duration": 0.5454545
                },
                {
                    "name": "A#2",
                    "midi": 46,
                    "time": 6.545454000000001,
                    "velocity": 0.7874015748031497,
                    "duration": 0.5454545
                },
                {
                    "name": "G3",
                    "midi": 55,
                    "time": 7.090908500000001,
                    "velocity": 0.7874015748031497,
                    "duration": 0.5454545
                },
                {
                    "name": "F3",
                    "midi": 53,
                    "time": 7.636363000000001,
                    "velocity": 0.7874015748031497,
                    "duration": 0.5454545
                },
                {
                    "name": "E3",
                    "midi": 52,
                    "time": 8.181817500000001,
                    "velocity": 0.7874015748031497,
                    "duration": 0.27272725000000086
                },
                {
                    "name": "F3",
                    "midi": 53,
                    "time": 8.454544750000002,
                    "velocity": 0.7874015748031497,
                    "duration": 0.27272725000000086
                },
                {
                    "name": "G3",
                    "midi": 55,
                    "time": 8.727272000000003,
                    "velocity": 0.7874015748031497,
                    "duration": 0.27272725000000086
                },
                {
                    "name": "A3",
                    "midi": 57,
                    "time": 8.999999250000004,
                    "velocity": 0.7874015748031497,
                    "duration": 0.27272725000000086
                },
                {
                    "name": "A#3",
                    "midi": 58,
                    "time": 9.272726500000005,
                    "velocity": 0.7874015748031497,
                    "duration": 0.27272725000000086
                },
                {
                    "name": "D3",
                    "midi": 50,
                    "time": 9.545453750000005,
                    "velocity": 0.7874015748031497,
                    "duration": 0.27272725000000086
                },
                {
                    "name": "C#3",
                    "midi": 49,
                    "time": 9.818181000000006,
                    "velocity": 0.7874015748031497,
                    "duration": 1.6363634999999999
                },
                {
                    "name": "B2",
                    "midi": 47,
                    "time": 11.454544500000006,
                    "velocity": 0.7874015748031497,
                    "duration": 0.5454545
                },
                {
                    "name": "A2",
                    "midi": 45,
                    "time": 11.999999000000006,
                    "velocity": 0.7874015748031497,
                    "duration": 0.5454545
                },
                {
                    "name": "G2",
                    "midi": 43,
                    "time": 12.545453500000006,
                    "velocity": 0.7874015748031497,
                    "duration": 0.5454545
                },
                {
                    "name": "D3",
                    "midi": 50,
                    "time": 13.090908000000006,
                    "velocity": 0.7874015748031497,
                    "duration": 0.8181817500000008
                },
                {
                    "name": "E3",
                    "midi": 52,
                    "time": 13.909089750000007,
                    "velocity": 0.7874015748031497,
                    "duration": 0.27272725000000086
                },
                {
                    "name": "E3",
                    "midi": 52,
                    "time": 14.181817000000008,
                    "velocity": 0.7874015748031497,
                    "duration": 1.6363634999999999
                },
                {
                    "name": "D3",
                    "midi": 50,
                    "time": 15.818180500000008,
                    "velocity": 0.7874015748031497,
                    "duration": 0.2727272499999991
                },
                {
                    "name": "E3",
                    "midi": 52,
                    "time": 16.090907750000007,
                    "velocity": 0.7874015748031497,
                    "duration": 0.2727272499999991
                },
                {
                    "name": "F3",
                    "midi": 53,
                    "time": 16.363635000000006,
                    "velocity": 0.7874015748031497,
                    "duration": 1.6363635000000016
                },
                {
                    "name": "D3",
                    "midi": 50,
                    "time": 17.999998500000007,
                    "velocity": 0.7874015748031497,
                    "duration": 0.5454545000000017
                },
                {
                    "name": "E3",
                    "midi": 52,
                    "time": 18.54545300000001,
                    "velocity": 0.7874015748031497,
                    "duration": 0.5454545000000017
                },
                {
                    "name": "F3",
                    "midi": 53,
                    "time": 19.09090750000001,
                    "velocity": 0.7874015748031497,
                    "duration": 0.5454545000000017
                },
                {
                    "name": "G3",
                    "midi": 55,
                    "time": 19.636362000000013,
                    "velocity": 0.7874015748031497,
                    "duration": 0.5454545000000017
                },
                {
                    "name": "A#3",
                    "midi": 58,
                    "time": 20.181816500000014,
                    "velocity": 0.7874015748031497,
                    "duration": 0.2727272499999991
                },
                {
                    "name": "A3",
                    "midi": 57,
                    "time": 20.454543750000013,
                    "velocity": 0.7874015748031497,
                    "duration": 0.2727272499999991
                },
                {
                    "name": "C4",
                    "midi": 60,
                    "time": 20.727271000000012,
                    "velocity": 0.7874015748031497,
                    "duration": 0.2727272499999991
                },
                {
                    "name": "A#3",
                    "midi": 58,
                    "time": 20.99999825000001,
                    "velocity": 0.7874015748031497,
                    "duration": 0.2727272499999991
                },
                {
                    "name": "A3",
                    "midi": 57,
                    "time": 21.27272550000001,
                    "velocity": 0.7874015748031497,
                    "duration": 0.2727272499999991
                },
                {
                    "name": "G3",
                    "midi": 55,
                    "time": 21.54545275000001,
                    "velocity": 0.7874015748031497,
                    "duration": 0.2727272499999991
                },
                {
                    "name": "D4",
                    "midi": 62,
                    "time": 21.81818000000001,
                    "velocity": 0.7874015748031497,
                    "duration": 0.5454545000000017
                },
                {
                    "name": "F3",
                    "midi": 53,
                    "time": 22.36363450000001,
                    "velocity": 0.7874015748031497,
                    "duration": 0.5454545000000017
                },
                {
                    "name": "E3",
                    "midi": 52,
                    "time": 22.909089000000012,
                    "velocity": 0.7874015748031497,
                    "duration": 1.636363499999998
                },
                {
                    "name": "D3",
                    "midi": 50,
                    "time": 24.54545250000001,
                    "velocity": 0.7874015748031497,
                    "duration": 0.5454545000000017
                },
                {
                    "name": "C3",
                    "midi": 48,
                    "time": 25.090907000000012,
                    "velocity": 0.7874015748031497,
                    "duration": 0.5454545000000017
                },
                {
                    "name": "A#2",
                    "midi": 46,
                    "time": 25.636361500000014,
                    "velocity": 0.7874015748031497,
                    "duration": 0.5454545000000017
                },
                {
                    "name": "A2",
                    "midi": 45,
                    "time": 26.181816000000016,
                    "velocity": 0.7874015748031497,
                    "duration": 1.090909
                },
                {
                    "name": "D3",
                    "midi": 50,
                    "time": 27.272725000000015,
                    "velocity": 0.7874015748031497,
                    "duration": 1.6363635000000016
                },
                {
                    "name": "G3",
                    "midi": 55,
                    "time": 28.909088500000017,
                    "velocity": 0.7874015748031497,
                    "duration": 0.2727272499999991
                },
                {
                    "name": "F3",
                    "midi": 53,
                    "time": 29.181815750000016,
                    "velocity": 0.7874015748031497,
                    "duration": 0.2727272499999991
                },
                {
                    "name": "G3",
                    "midi": 55,
                    "time": 29.454543000000015,
                    "velocity": 0.7874015748031497,
                    "duration": 0.5454545000000017
                },
                {
                    "name": "A3",
                    "midi": 57,
                    "time": 29.999997500000017,
                    "velocity": 0.7874015748031497,
                    "duration": 0.2727272499999991
                },
                {
                    "name": "A#3",
                    "midi": 58,
                    "time": 30.272724750000016,
                    "velocity": 0.7874015748031497,
                    "duration": 0.2727272499999991
                },
                {
                    "name": "A#3",
                    "midi": 58,
                    "time": 30.545452000000015,
                    "velocity": 0.7874015748031497,
                    "duration": 1.636363499999998
                },
                {
                    "name": "C4",
                    "midi": 60,
                    "time": 32.18181550000001,
                    "velocity": 0.7874015748031497,
                    "duration": 0.27272725000000264
                },
                {
                    "name": "D4",
                    "midi": 62,
                    "time": 32.454542750000016,
                    "velocity": 0.7874015748031497,
                    "duration": 0.27272725000000264
                },
                {
                    "name": "E3",
                    "midi": 52,
                    "time": 32.72727000000002,
                    "velocity": 0.7874015748031497,
                    "duration": 0.5454544999999982
                },
                {
                    "name": "F3",
                    "midi": 53,
                    "time": 33.27272450000002,
                    "velocity": 0.7874015748031497,
                    "duration": 0.5454544999999982
                },
                {
                    "name": "C2",
                    "midi": 36,
                    "time": 33.818179000000015,
                    "velocity": 0.7874015748031497,
                    "duration": 0.5454544999999982
                },
                {
                    "name": "G2",
                    "midi": 43,
                    "time": 34.36363350000001,
                    "velocity": 0.7874015748031497,
                    "duration": 0.5454544999999982
                },
                {
                    "name": "F3",
                    "midi": 53,
                    "time": 34.90908800000001,
                    "velocity": 0.7874015748031497,
                    "duration": 0.5454544999999982
                },
                {
                    "name": "E3",
                    "midi": 52,
                    "time": 35.45454250000001,
                    "velocity": 0.7874015748031497,
                    "duration": 0.5454544999999982
                },
                {
                    "name": "F3",
                    "midi": 53,
                    "time": 35.99999700000001,
                    "velocity": 0.7874015748031497,
                    "duration": 1.0909090000000035
                },
                {
                    "name": "F2",
                    "midi": 41,
                    "time": 37.09090600000001,
                    "velocity": 0.7874015748031497,
                    "duration": 2.181818
                },
                {
                    "name": "D3",
                    "midi": 50,
                    "time": 39.27272400000001,
                    "velocity": 0.7874015748031497,
                    "duration": 0.8181817500000008
                },
                {
                    "name": "E3",
                    "midi": 52,
                    "time": 40.09090575000001,
                    "velocity": 0.7874015748031497,
                    "duration": 0.27272725000000264
                },
                {
                    "name": "E3",
                    "midi": 52,
                    "time": 40.363633000000014,
                    "velocity": 0.7874015748031497,
                    "duration": 1.6363635000000087
                },
                {
                    "name": "D3",
                    "midi": 50,
                    "time": 41.981814683333354,
                    "velocity": 0.7874015748031497,
                    "duration": 0.27272725000000264
                },
                {
                    "name": "E3",
                    "midi": 52,
                    "time": 42.26363284166669,
                    "velocity": 0.7874015748031497,
                    "duration": 0.27272725000000264
                },
                {
                    "name": "F3",
                    "midi": 53,
                    "time": 42.54545100000003,
                    "velocity": 0.7874015748031497,
                    "duration": 1.6363635000000016
                },
                {
                    "name": "E3",
                    "midi": 52,
                    "time": 44.18181450000003,
                    "velocity": 0.7874015748031497,
                    "duration": 0.5454544999999982
                },
                {
                    "name": "D3",
                    "midi": 50,
                    "time": 44.72726900000003,
                    "velocity": 0.7874015748031497,
                    "duration": 0.5454544999999982
                },
                {
                    "name": "C3",
                    "midi": 48,
                    "time": 45.272723500000026,
                    "velocity": 0.7874015748031497,
                    "duration": 0.5454544999999982
                },
                {
                    "name": "A#2",
                    "midi": 46,
                    "time": 45.818178000000024,
                    "velocity": 0.7874015748031497,
                    "duration": 0.5454544999999982
                },
                {
                    "name": "G3",
                    "midi": 55,
                    "time": 46.36363250000002,
                    "velocity": 0.7874015748031497,
                    "duration": 0.5454544999999982
                },
                {
                    "name": "F3",
                    "midi": 53,
                    "time": 46.90908700000002,
                    "velocity": 0.7874015748031497,
                    "duration": 0.5454544999999982
                },
                {
                    "name": "E3",
                    "midi": 52,
                    "time": 47.45454150000002,
                    "velocity": 0.7874015748031497,
                    "duration": 0.27272725000000264
                },
                {
                    "name": "F3",
                    "midi": 53,
                    "time": 47.72726875000002,
                    "velocity": 0.7874015748031497,
                    "duration": 0.27272725000000264
                },
                {
                    "name": "G3",
                    "midi": 55,
                    "time": 47.999996000000024,
                    "velocity": 0.7874015748031497,
                    "duration": 0.27272725000000264
                },
                {
                    "name": "A3",
                    "midi": 57,
                    "time": 48.27272325000003,
                    "velocity": 0.7874015748031497,
                    "duration": 0.27272725000000264
                },
                {
                    "name": "A#3",
                    "midi": 58,
                    "time": 48.54545050000003,
                    "velocity": 0.7874015748031497,
                    "duration": 0.27272725000000264
                },
                {
                    "name": "D3",
                    "midi": 50,
                    "time": 48.81817775000003,
                    "velocity": 0.7874015748031497,
                    "duration": 0.27272725000000264
                },
                {
                    "name": "C#3",
                    "midi": 49,
                    "time": 49.090905000000035,
                    "velocity": 0.7874015748031497,
                    "duration": 1.6363635000000087
                },
                {
                    "name": "B2",
                    "midi": 47,
                    "time": 50.727268500000044,
                    "velocity": 0.7874015748031497,
                    "duration": 0.5454544999999982
                },
                {
                    "name": "A2",
                    "midi": 45,
                    "time": 51.27272300000004,
                    "velocity": 0.7874015748031497,
                    "duration": 0.5454544999999982
                },
                {
                    "name": "G2",
                    "midi": 43,
                    "time": 51.81817750000004,
                    "velocity": 0.7874015748031497,
                    "duration": 0.5454544999999982
                },
                {
                    "name": "D3",
                    "midi": 50,
                    "time": 52.36363200000004,
                    "velocity": 0.7874015748031497,
                    "duration": 0.8181817500000008
                },
                {
                    "name": "E3",
                    "midi": 52,
                    "time": 53.18181375000004,
                    "velocity": 0.7874015748031497,
                    "duration": 0.27272725000000264
                },
                {
                    "name": "E3",
                    "midi": 52,
                    "time": 53.45454100000004,
                    "velocity": 0.7874015748031497,
                    "duration": 1.6363635000000087
                },
                {
                    "name": "D3",
                    "midi": 50,
                    "time": 55.09090450000005,
                    "velocity": 0.7874015748031497,
                    "duration": 0.27272725000000264
                },
                {
                    "name": "E3",
                    "midi": 52,
                    "time": 55.36363175000005,
                    "velocity": 0.7874015748031497,
                    "duration": 0.27272725000000264
                },
                {
                    "name": "F3",
                    "midi": 53,
                    "time": 55.636359000000056,
                    "velocity": 0.7874015748031497,
                    "duration": 1.6363635000000016
                },
                {
                    "name": "D3",
                    "midi": 50,
                    "time": 57.27272250000006,
                    "velocity": 0.7874015748031497,
                    "duration": 0.5454544999999982
                },
                {
                    "name": "E3",
                    "midi": 52,
                    "time": 57.818177000000055,
                    "velocity": 0.7874015748031497,
                    "duration": 0.5454544999999982
                },
                {
                    "name": "F3",
                    "midi": 53,
                    "time": 58.363631500000054,
                    "velocity": 0.7874015748031497,
                    "duration": 0.5454544999999982
                },
                {
                    "name": "G3",
                    "midi": 55,
                    "time": 58.90908600000005,
                    "velocity": 0.7874015748031497,
                    "duration": 0.5454544999999982
                },
                {
                    "name": "A#3",
                    "midi": 58,
                    "time": 59.45454050000005,
                    "velocity": 0.7874015748031497,
                    "duration": 0.27272725000000264
                },
                {
                    "name": "A3",
                    "midi": 57,
                    "time": 59.72726775000005,
                    "velocity": 0.7874015748031497,
                    "duration": 0.27272725000000264
                },
                {
                    "name": "C4",
                    "midi": 60,
                    "time": 59.999995000000055,
                    "velocity": 0.7874015748031497,
                    "duration": 0.27272725000000264
                },
                {
                    "name": "A#3",
                    "midi": 58,
                    "time": 60.27272225000006,
                    "velocity": 0.7874015748031497,
                    "duration": 0.27272725000000264
                },
                {
                    "name": "A3",
                    "midi": 57,
                    "time": 60.54544950000006,
                    "velocity": 0.7874015748031497,
                    "duration": 0.27272725000000264
                },
                {
                    "name": "G3",
                    "midi": 55,
                    "time": 60.81817675000006,
                    "velocity": 0.7874015748031497,
                    "duration": 0.27272725000000264
                },
                {
                    "name": "D4",
                    "midi": 62,
                    "time": 61.090904000000066,
                    "velocity": 0.7874015748031497,
                    "duration": 0.5454544999999982
                },
                {
                    "name": "F3",
                    "midi": 53,
                    "time": 61.636358500000064,
                    "velocity": 0.7874015748031497,
                    "duration": 0.5454544999999982
                },
                {
                    "name": "E3",
                    "midi": 52,
                    "time": 62.18181300000006,
                    "velocity": 0.7874015748031497,
                    "duration": 1.6363635000000087
                },
                {
                    "name": "D3",
                    "midi": 50,
                    "time": 63.81817650000007,
                    "velocity": 0.7874015748031497,
                    "duration": 0.5454544999999982
                },
                {
                    "name": "C3",
                    "midi": 48,
                    "time": 64.36363100000007,
                    "velocity": 0.7874015748031497,
                    "duration": 0.5454545000000053
                },
                {
                    "name": "A#2",
                    "midi": 46,
                    "time": 64.90908550000007,
                    "velocity": 0.7874015748031497,
                    "duration": 0.5454545000000053
                },
                {
                    "name": "A2",
                    "midi": 45,
                    "time": 65.45454000000008,
                    "velocity": 0.7874015748031497,
                    "duration": 1.0909089999999964
                },
                {
                    "name": "D3",
                    "midi": 50,
                    "time": 66.54544900000008,
                    "velocity": 0.7874015748031497,
                    "duration": 1.6363635000000016
                },
                {
                    "name": "G3",
                    "midi": 55,
                    "time": 68.18181250000008,
                    "velocity": 0.7874015748031497,
                    "duration": 0.27272725000000264
                },
                {
                    "name": "F3",
                    "midi": 53,
                    "time": 68.45453975000008,
                    "velocity": 0.7874015748031497,
                    "duration": 0.27272725000000264
                },
                {
                    "name": "G3",
                    "midi": 55,
                    "time": 68.72726700000008,
                    "velocity": 0.7874015748031497,
                    "duration": 0.5454545000000053
                },
                {
                    "name": "A3",
                    "midi": 57,
                    "time": 69.27272150000009,
                    "velocity": 0.7874015748031497,
                    "duration": 0.27272725000000264
                },
                {
                    "name": "A#3",
                    "midi": 58,
                    "time": 69.54544875000009,
                    "velocity": 0.7874015748031497,
                    "duration": 0.27272725000000264
                },
                {
                    "name": "A#3",
                    "midi": 58,
                    "time": 69.8181760000001,
                    "velocity": 0.7874015748031497,
                    "duration": 1.6363635000000016
                },
                {
                    "name": "C4",
                    "midi": 60,
                    "time": 71.4545395000001,
                    "velocity": 0.7874015748031497,
                    "duration": 0.27272725000000264
                },
                {
                    "name": "D4",
                    "midi": 62,
                    "time": 71.7272667500001,
                    "velocity": 0.7874015748031497,
                    "duration": 0.27272725000000264
                },
                {
                    "name": "E3",
                    "midi": 52,
                    "time": 71.9999940000001,
                    "velocity": 0.7874015748031497,
                    "duration": 0.5454545000000053
                },
                {
                    "name": "F3",
                    "midi": 53,
                    "time": 72.5454485000001,
                    "velocity": 0.7874015748031497,
                    "duration": 0.5454545000000053
                },
                {
                    "name": "C2",
                    "midi": 36,
                    "time": 73.09090300000011,
                    "velocity": 0.7874015748031497,
                    "duration": 0.5454545000000053
                },
                {
                    "name": "G2",
                    "midi": 43,
                    "time": 73.63635750000012,
                    "velocity": 0.7874015748031497,
                    "duration": 0.5454545000000053
                },
                {
                    "name": "F3",
                    "midi": 53,
                    "time": 74.18181200000012,
                    "velocity": 0.7874015748031497,
                    "duration": 0.5454545000000053
                },
                {
                    "name": "E3",
                    "midi": 52,
                    "time": 74.72726650000013,
                    "velocity": 0.7874015748031497,
                    "duration": 0.5454545000000053
                },
                {
                    "name": "F3",
                    "midi": 53,
                    "time": 75.27272100000013,
                    "velocity": 0.7874015748031497,
                    "duration": 1.0909089999999964
                },
                {
                    "name": "F2",
                    "midi": 41,
                    "time": 76.36363000000013,
                    "velocity": 0.7874015748031497,
                    "duration": 2.181818000000007
                },
                {
                    "name": "A3",
                    "midi": 57,
                    "time": 78.54544800000014,
                    "velocity": 0.7874015748031497,
                    "duration": 1.0909089999999964
                },
                {
                    "name": "A3",
                    "midi": 57,
                    "time": 79.63635700000013,
                    "velocity": 0.7874015748031497,
                    "duration": 1.6363634999999874
                },
                {
                    "name": "A#3",
                    "midi": 58,
                    "time": 81.27272050000012,
                    "velocity": 0.7874015748031497,
                    "duration": 0.5454545000000053
                },
                {
                    "name": "C4",
                    "midi": 60,
                    "time": 81.81817500000012,
                    "velocity": 0.7874015748031497,
                    "duration": 0.5454545000000053
                },
                {
                    "name": "A#3",
                    "midi": 58,
                    "time": 82.36362950000013,
                    "velocity": 0.7874015748031497,
                    "duration": 0.27272725000000264
                },
                {
                    "name": "G3",
                    "midi": 55,
                    "time": 82.63635675000013,
                    "velocity": 0.7874015748031497,
                    "duration": 0.27272725000000264
                },
                {
                    "name": "F#3",
                    "midi": 54,
                    "time": 82.90908400000014,
                    "velocity": 0.7874015748031497,
                    "duration": 0.8181817499999937
                },
                {
                    "name": "D#3",
                    "midi": 51,
                    "time": 83.72726575000013,
                    "velocity": 0.7874015748031497,
                    "duration": 0.27272725000000264
                },
                {
                    "name": "D3",
                    "midi": 50,
                    "time": 83.99999300000013,
                    "velocity": 0.7874015748031497,
                    "duration": 0.5454545000000053
                },
                {
                    "name": "C3",
                    "midi": 48,
                    "time": 84.54544750000014,
                    "velocity": 0.7874015748031497,
                    "duration": 0.5454545000000053
                },
                {
                    "name": "A#2",
                    "midi": 46,
                    "time": 85.09090200000014,
                    "velocity": 0.7874015748031497,
                    "duration": 0.5454545000000053
                },
                {
                    "name": "G3",
                    "midi": 55,
                    "time": 85.63635650000015,
                    "velocity": 0.7874015748031497,
                    "duration": 0.5454545000000053
                },
                {
                    "name": "A2",
                    "midi": 45,
                    "time": 86.18181100000015,
                    "velocity": 0.7874015748031497,
                    "duration": 0.5454545000000053
                },
                {
                    "name": "F#3",
                    "midi": 54,
                    "time": 86.72726550000016,
                    "velocity": 0.7874015748031497,
                    "duration": 0.5454545000000053
                },
                {
                    "name": "D#4",
                    "midi": 63,
                    "time": 87.27272000000016,
                    "velocity": 0.7874015748031497,
                    "duration": 0.5454545000000053
                },
                {
                    "name": "D4",
                    "midi": 62,
                    "time": 87.81817450000017,
                    "velocity": 0.7874015748031497,
                    "duration": 0.5454545000000053
                },
                {
                    "name": "A#3",
                    "midi": 58,
                    "time": 88.36362900000017,
                    "velocity": 0.7874015748031497,
                    "duration": 1.6363634999999874
                },
                {
                    "name": "A3",
                    "midi": 57,
                    "time": 89.99999250000016,
                    "velocity": 0.7874015748031497,
                    "duration": 0.5454545000000053
                },
                {
                    "name": "G3",
                    "midi": 55,
                    "time": 90.54544700000017,
                    "velocity": 0.7874015748031497,
                    "duration": 0.5454545000000053
                },
                {
                    "name": "F3",
                    "midi": 53,
                    "time": 91.09090150000017,
                    "velocity": 0.7874015748031497,
                    "duration": 0.5454545000000053
                },
                {
                    "name": "E3",
                    "midi": 52,
                    "time": 91.63635600000018,
                    "velocity": 0.7874015748031497,
                    "duration": 0.5454545000000053
                },
                {
                    "name": "A#2",
                    "midi": 46,
                    "time": 92.18181050000018,
                    "velocity": 0.7874015748031497,
                    "duration": 0.5454545000000053
                },
                {
                    "name": "A2",
                    "midi": 45,
                    "time": 92.72726500000019,
                    "velocity": 0.7874015748031497,
                    "duration": 0.5454545000000053
                },
                {
                    "name": "F3",
                    "midi": 53,
                    "time": 93.27271950000019,
                    "velocity": 0.7874015748031497,
                    "duration": 0.5454545000000053
                },
                {
                    "name": "G3",
                    "midi": 55,
                    "time": 93.8181740000002,
                    "velocity": 0.7874015748031497,
                    "duration": 0.5454545000000053
                },
                {
                    "name": "A3",
                    "midi": 57,
                    "time": 94.3636285000002,
                    "velocity": 0.7874015748031497,
                    "duration": 0.5454545000000053
                },
                {
                    "name": "D3",
                    "midi": 50,
                    "time": 94.90908300000021,
                    "velocity": 0.7874015748031497,
                    "duration": 0.5454545000000053
                },
                {
                    "name": "G#2",
                    "midi": 44,
                    "time": 95.45453750000021,
                    "velocity": 0.7874015748031497,
                    "duration": 0.5454545000000053
                },
                {
                    "name": "G2",
                    "midi": 43,
                    "time": 95.99999200000022,
                    "velocity": 0.7874015748031497,
                    "duration": 0.5454545000000053
                },
                {
                    "name": "D#3",
                    "midi": 51,
                    "time": 96.54544650000022,
                    "velocity": 0.7874015748031497,
                    "duration": 0.5454545000000053
                },
                {
                    "name": "F3",
                    "midi": 53,
                    "time": 97.09090100000023,
                    "velocity": 0.7874015748031497,
                    "duration": 0.5454545000000053
                },
                {
                    "name": "G3",
                    "midi": 55,
                    "time": 97.63635550000023,
                    "velocity": 0.7874015748031497,
                    "duration": 0.5454545000000053
                },
                {
                    "name": "C#3",
                    "midi": 49,
                    "time": 98.18181000000024,
                    "velocity": 0.7874015748031497,
                    "duration": 0.5454545000000053
                },
                {
                    "name": "A#3",
                    "midi": 58,
                    "time": 98.72726450000025,
                    "velocity": 0.7874015748031497,
                    "duration": 0.5454545000000053
                },
                {
                    "name": "A3",
                    "midi": 57,
                    "time": 99.27271900000025,
                    "velocity": 0.7874015748031497,
                    "duration": 0.5454545000000053
                },
                {
                    "name": "G3",
                    "midi": 55,
                    "time": 99.81817350000026,
                    "velocity": 0.7874015748031497,
                    "duration": 0.27272725000000264
                },
                {
                    "name": "F3",
                    "midi": 53,
                    "time": 100.09090075000026,
                    "velocity": 0.7874015748031497,
                    "duration": 0.27272725000000264
                },
                {
                    "name": "E3",
                    "midi": 52,
                    "time": 100.36362800000026,
                    "velocity": 0.7874015748031497,
                    "duration": 0.5454545000000053
                },
                {
                    "name": "F3",
                    "midi": 53,
                    "time": 100.90908250000027,
                    "velocity": 0.7874015748031497,
                    "duration": 0.27272725000000264
                },
                {
                    "name": "D3",
                    "midi": 50,
                    "time": 101.18180975000027,
                    "velocity": 0.7874015748031497,
                    "duration": 0.27272725000000264
                },
                {
                    "name": "C#3",
                    "midi": 49,
                    "time": 101.45453700000027,
                    "velocity": 0.7874015748031497,
                    "duration": 0.5454545000000053
                },
                {
                    "name": "E3",
                    "midi": 52,
                    "time": 101.99999150000028,
                    "velocity": 0.7874015748031497,
                    "duration": 0.27272725000000264
                },
                {
                    "name": "A3",
                    "midi": 57,
                    "time": 102.27271875000028,
                    "velocity": 0.7874015748031497,
                    "duration": 0.27272725000000264
                },
                {
                    "name": "A2",
                    "midi": 45,
                    "time": 102.54544600000028,
                    "velocity": 0.7874015748031497,
                    "duration": 0.8181817499999937
                },
                {
                    "name": "G3",
                    "midi": 55,
                    "time": 103.36362775000028,
                    "velocity": 0.7874015748031497,
                    "duration": 0.27272725000000264
                },
                {
                    "name": "F3",
                    "midi": 53,
                    "time": 103.63635500000028,
                    "velocity": 0.7874015748031497,
                    "duration": 0.5454545000000053
                },
                {
                    "name": "E3",
                    "midi": 52,
                    "time": 104.18180950000028,
                    "velocity": 0.7874015748031497,
                    "duration": 0.5454545000000053
                },
                {
                    "name": "D3",
                    "midi": 50,
                    "time": 104.72726400000029,
                    "velocity": 0.7874015748031497,
                    "duration": 0.5454545000000053
                },
                {
                    "name": "E3",
                    "midi": 52,
                    "time": 105.2727185000003,
                    "velocity": 0.7874015748031497,
                    "duration": 0.27272725000000264
                },
                {
                    "name": "F3",
                    "midi": 53,
                    "time": 105.5454457500003,
                    "velocity": 0.7874015748031497,
                    "duration": 0.27272725000000264
                },
                {
                    "name": "F3",
                    "midi": 53,
                    "time": 105.8181730000003,
                    "velocity": 0.7874015748031497,
                    "duration": 1.6363635000000016
                },
                {
                    "name": "E3",
                    "midi": 52,
                    "time": 107.4545365000003,
                    "velocity": 0.7874015748031497,
                    "duration": 0.27272725000000264
                },
                {
                    "name": "D3",
                    "midi": 50,
                    "time": 107.7272637500003,
                    "velocity": 0.7874015748031497,
                    "duration": 0.27272725000000264
                },
                {
                    "name": "E3",
                    "midi": 52,
                    "time": 107.9999910000003,
                    "velocity": 0.7874015748031497,
                    "duration": 0.5454545000000053
                },
                {
                    "name": "F3",
                    "midi": 53,
                    "time": 108.54544550000031,
                    "velocity": 0.7874015748031497,
                    "duration": 0.27272725000000264
                },
                {
                    "name": "G3",
                    "midi": 55,
                    "time": 108.81817275000031,
                    "velocity": 0.7874015748031497,
                    "duration": 0.27272725000000264
                },
                {
                    "name": "G3",
                    "midi": 55,
                    "time": 109.09090000000032,
                    "velocity": 0.7874015748031497,
                    "duration": 1.6363635000000016
                },
                {
                    "name": "A3",
                    "midi": 57,
                    "time": 110.72726350000032,
                    "velocity": 0.7874015748031497,
                    "duration": 0.27272725000000264
                },
                {
                    "name": "A#3",
                    "midi": 58,
                    "time": 110.99999075000032,
                    "velocity": 0.7874015748031497,
                    "duration": 0.27272725000000264
                },
                {
                    "name": "A3",
                    "midi": 57,
                    "time": 111.27271800000032,
                    "velocity": 0.7874015748031497,
                    "duration": 0.5454545000000053
                },
                {
                    "name": "C#4",
                    "midi": 61,
                    "time": 111.81817250000033,
                    "velocity": 0.7874015748031497,
                    "duration": 0.27272725000000264
                },
                {
                    "name": "D4",
                    "midi": 62,
                    "time": 112.09089975000033,
                    "velocity": 0.7874015748031497,
                    "duration": 0.27272725000000264
                },
                {
                    "name": "D3",
                    "midi": 50,
                    "time": 112.36362700000033,
                    "velocity": 0.7874015748031497,
                    "duration": 0.27272725000000264
                },
                {
                    "name": "E3",
                    "midi": 52,
                    "time": 112.63635425000034,
                    "velocity": 0.7874015748031497,
                    "duration": 0.27272725000000264
                },
                {
                    "name": "F3",
                    "midi": 53,
                    "time": 112.90908150000034,
                    "velocity": 0.7874015748031497,
                    "duration": 0.27272725000000264
                },
                {
                    "name": "G3",
                    "midi": 55,
                    "time": 113.18180875000034,
                    "velocity": 0.7874015748031497,
                    "duration": 0.27272725000000264
                },
                {
                    "name": "F3",
                    "midi": 53,
                    "time": 113.45453600000035,
                    "velocity": 0.7874015748031497,
                    "duration": 0.5454544999999911
                },
                {
                    "name": "E3",
                    "midi": 52,
                    "time": 113.99999050000034,
                    "velocity": 0.7874015748031497,
                    "duration": 0.27272725000000264
                },
                {
                    "name": "D3",
                    "midi": 50,
                    "time": 114.27271775000034,
                    "velocity": 0.7874015748031497,
                    "duration": 0.27272725000000264
                },
                {
                    "name": "D3",
                    "midi": 50,
                    "time": 114.54544500000034,
                    "velocity": 0.7874015748031497,
                    "duration": 1.0909089999999964
                },
                {
                    "name": "D2",
                    "midi": 38,
                    "time": 115.63635400000034,
                    "velocity": 0.7874015748031497,
                    "duration": 0.27272725000000264
                },
                {
                    "name": "A2",
                    "midi": 45,
                    "time": 115.90908125000034,
                    "velocity": 0.7874015748031497,
                    "duration": 0.27272725000000264
                },
                {
                    "name": "B2",
                    "midi": 47,
                    "time": 116.18180850000034,
                    "velocity": 0.7874015748031497,
                    "duration": 0.27272725000000264
                },
                {
                    "name": "C#3",
                    "midi": 49,
                    "time": 116.45453575000035,
                    "velocity": 0.7874015748031497,
                    "duration": 0.27272725000000264
                },
                {
                    "name": "D3",
                    "midi": 50,
                    "time": 116.72726300000035,
                    "velocity": 0.7874015748031497,
                    "duration": 0.27272725000000264
                },
                {
                    "name": "E3",
                    "midi": 52,
                    "time": 116.99999025000035,
                    "velocity": 0.7874015748031497,
                    "duration": 0.27272725000000264
                },
                {
                    "name": "F3",
                    "midi": 53,
                    "time": 117.27271750000035,
                    "velocity": 0.7874015748031497,
                    "duration": 0.27272725000000264
                },
                {
                    "name": "G3",
                    "midi": 55,
                    "time": 117.54544475000036,
                    "velocity": 0.7874015748031497,
                    "duration": 0.27272725000000264
                },
                {
                    "name": "A3",
                    "midi": 57,
                    "time": 117.81817200000036,
                    "velocity": 0.7874015748031497,
                    "duration": 0.27272725000000264
                },
                {
                    "name": "B3",
                    "midi": 59,
                    "time": 118.09089925000036,
                    "velocity": 0.7874015748031497,
                    "duration": 0.27272725000000264
                },
                {
                    "name": "C4",
                    "midi": 60,
                    "time": 118.36362650000036,
                    "velocity": 0.7874015748031497,
                    "duration": 0.27272725000000264
                },
                {
                    "name": "B3",
                    "midi": 59,
                    "time": 118.63635375000037,
                    "velocity": 0.7874015748031497,
                    "duration": 0.27272725000000264
                },
                {
                    "name": "C4",
                    "midi": 60,
                    "time": 118.90908100000037,
                    "velocity": 0.7874015748031497,
                    "duration": 1.6363635000000016
                },
                {
                    "name": "B3",
                    "midi": 59,
                    "time": 120.54544450000037,
                    "velocity": 0.7874015748031497,
                    "duration": 0.27272725000000264
                },
                {
                    "name": "A3",
                    "midi": 57,
                    "time": 120.81817175000037,
                    "velocity": 0.7874015748031497,
                    "duration": 0.27272725000000264
                },
                {
                    "name": "B3",
                    "midi": 59,
                    "time": 121.09089900000038,
                    "velocity": 0.7874015748031497,
                    "duration": 0.27272725000000264
                },
                {
                    "name": "C#4",
                    "midi": 61,
                    "time": 121.36362625000038,
                    "velocity": 0.7874015748031497,
                    "duration": 0.27272725000000264
                },
                {
                    "name": "D4",
                    "midi": 62,
                    "time": 121.63635350000038,
                    "velocity": 0.7874015748031497,
                    "duration": 0.27272725000000264
                },
                {
                    "name": "C#4",
                    "midi": 61,
                    "time": 121.90908075000038,
                    "velocity": 0.7874015748031497,
                    "duration": 0.27272725000000264
                },
                {
                    "name": "D4",
                    "midi": 62,
                    "time": 122.18180800000039,
                    "velocity": 0.7874015748031497,
                    "duration": 1.6363635000000016
                },
                {
                    "name": "E4",
                    "midi": 64,
                    "time": 123.81817150000039,
                    "velocity": 0.7874015748031497,
                    "duration": 0.27272725000000264
                },
                {
                    "name": "F4",
                    "midi": 65,
                    "time": 124.09089875000039,
                    "velocity": 0.7874015748031497,
                    "duration": 0.27272725000000264
                },
                {
                    "name": "D4",
                    "midi": 62,
                    "time": 124.3636260000004,
                    "velocity": 0.7874015748031497,
                    "duration": 0.27272725000000264
                },
                {
                    "name": "C#4",
                    "midi": 61,
                    "time": 124.6363532500004,
                    "velocity": 0.7874015748031497,
                    "duration": 0.27272725000000264
                },
                {
                    "name": "D4",
                    "midi": 62,
                    "time": 124.9090805000004,
                    "velocity": 0.7874015748031497,
                    "duration": 0.27272725000000264
                },
                {
                    "name": "F3",
                    "midi": 53,
                    "time": 125.1818077500004,
                    "velocity": 0.7874015748031497,
                    "duration": 0.27272725000000264
                },
                {
                    "name": "A2",
                    "midi": 45,
                    "time": 125.4545350000004,
                    "velocity": 0.7874015748031497,
                    "duration": 0.5454545000000053
                },
                {
                    "name": "E3",
                    "midi": 52,
                    "time": 125.99998950000041,
                    "velocity": 0.7874015748031497,
                    "duration": 0.5454545000000053
                },
                {
                    "name": "D4",
                    "midi": 62,
                    "time": 126.54544400000042,
                    "velocity": 0.7874015748031497,
                    "duration": 0.5454545000000053
                },
                {
                    "name": "C#4",
                    "midi": 61,
                    "time": 127.09089850000042,
                    "velocity": 0.7874015748031497,
                    "duration": 0.5454545000000053
                },
                {
                    "name": "D4",
                    "midi": 62,
                    "time": 127.63635300000043,
                    "velocity": 0.7874015748031497,
                    "duration": 1.0909089999999964
                },
                {
                    "name": "D2",
                    "midi": 38,
                    "time": 128.72726200000042,
                    "velocity": 0.7874015748031497,
                    "duration": 2.1818179999999927
                },
                {
                    "name": "A3",
                    "midi": 57,
                    "time": 130.90908000000042,
                    "velocity": 0.7874015748031497,
                    "duration": 1.0909090000000106
                },
                {
                    "name": "A3",
                    "midi": 57,
                    "time": 131.99998900000043,
                    "velocity": 0.7874015748031497,
                    "duration": 1.6363635000000443
                },
                {
                    "name": "A#3",
                    "midi": 58,
                    "time": 133.63635250000047,
                    "velocity": 0.7874015748031497,
                    "duration": 0.5454545000000053
                },
                {
                    "name": "C4",
                    "midi": 60,
                    "time": 134.18180700000048,
                    "velocity": 0.7874015748031497,
                    "duration": 0.5454545000000053
                },
                {
                    "name": "A#3",
                    "midi": 58,
                    "time": 134.72726150000048,
                    "velocity": 0.7874015748031497,
                    "duration": 0.27272725000000264
                },
                {
                    "name": "G3",
                    "midi": 55,
                    "time": 134.99998875000048,
                    "velocity": 0.7874015748031497,
                    "duration": 0.27272725000000264
                },
                {
                    "name": "F#3",
                    "midi": 54,
                    "time": 135.2727160000005,
                    "velocity": 0.7874015748031497,
                    "duration": 0.8181817500000363
                },
                {
                    "name": "D#3",
                    "midi": 51,
                    "time": 136.09089775000052,
                    "velocity": 0.7874015748031497,
                    "duration": 0.27272725000000264
                },
                {
                    "name": "D3",
                    "midi": 50,
                    "time": 136.36362500000052,
                    "velocity": 0.7874015748031497,
                    "duration": 0.5454545000000053
                },
                {
                    "name": "C3",
                    "midi": 48,
                    "time": 136.90907950000053,
                    "velocity": 0.7874015748031497,
                    "duration": 0.5454545000000053
                },
                {
                    "name": "A#2",
                    "midi": 46,
                    "time": 137.45453400000054,
                    "velocity": 0.7874015748031497,
                    "duration": 0.5454545000000053
                },
                {
                    "name": "G3",
                    "midi": 55,
                    "time": 137.99998850000054,
                    "velocity": 0.7874015748031497,
                    "duration": 0.5454545000000053
                },
                {
                    "name": "A2",
                    "midi": 45,
                    "time": 138.54544300000055,
                    "velocity": 0.7874015748031497,
                    "duration": 0.5454545000000053
                },
                {
                    "name": "F#3",
                    "midi": 54,
                    "time": 139.09089750000055,
                    "velocity": 0.7874015748031497,
                    "duration": 0.5454545000000053
                },
                {
                    "name": "D#4",
                    "midi": 63,
                    "time": 139.63635200000056,
                    "velocity": 0.7874015748031497,
                    "duration": 0.5454545000000053
                },
                {
                    "name": "D4",
                    "midi": 62,
                    "time": 140.18180650000056,
                    "velocity": 0.7874015748031497,
                    "duration": 0.5454545000000053
                },
                {
                    "name": "A#3",
                    "midi": 58,
                    "time": 140.72726100000057,
                    "velocity": 0.7874015748031497,
                    "duration": 1.6363635000000443
                },
                {
                    "name": "A3",
                    "midi": 57,
                    "time": 142.3636245000006,
                    "velocity": 0.7874015748031497,
                    "duration": 0.5454545000000053
                },
                {
                    "name": "G3",
                    "midi": 55,
                    "time": 142.90907900000062,
                    "velocity": 0.7874015748031497,
                    "duration": 0.5454545000000053
                },
                {
                    "name": "F3",
                    "midi": 53,
                    "time": 143.45453350000062,
                    "velocity": 0.7874015748031497,
                    "duration": 0.5454545000000053
                },
                {
                    "name": "E3",
                    "midi": 52,
                    "time": 143.99998800000063,
                    "velocity": 0.7874015748031497,
                    "duration": 0.5454545000000053
                },
                {
                    "name": "A#2",
                    "midi": 46,
                    "time": 144.54544250000063,
                    "velocity": 0.7874015748031497,
                    "duration": 0.5454545000000053
                },
                {
                    "name": "A2",
                    "midi": 45,
                    "time": 145.09089700000064,
                    "velocity": 0.7874015748031497,
                    "duration": 0.5454545000000053
                },
                {
                    "name": "F3",
                    "midi": 53,
                    "time": 145.63635150000064,
                    "velocity": 0.7874015748031497,
                    "duration": 0.5454545000000053
                },
                {
                    "name": "G3",
                    "midi": 55,
                    "time": 146.18180600000065,
                    "velocity": 0.7874015748031497,
                    "duration": 0.5454545000000053
                },
                {
                    "name": "A3",
                    "midi": 57,
                    "time": 146.72726050000065,
                    "velocity": 0.7874015748031497,
                    "duration": 0.5454545000000053
                },
                {
                    "name": "D3",
                    "midi": 50,
                    "time": 147.27271500000066,
                    "velocity": 0.7874015748031497,
                    "duration": 0.5454545000000053
                },
                {
                    "name": "G#2",
                    "midi": 44,
                    "time": 147.81816950000066,
                    "velocity": 0.7874015748031497,
                    "duration": 0.5454545000000053
                },
                {
                    "name": "G2",
                    "midi": 43,
                    "time": 148.36362400000067,
                    "velocity": 0.7874015748031497,
                    "duration": 0.5454545000000053
                },
                {
                    "name": "D#3",
                    "midi": 51,
                    "time": 148.90907850000067,
                    "velocity": 0.7874015748031497,
                    "duration": 0.5454545000000053
                },
                {
                    "name": "F3",
                    "midi": 53,
                    "time": 149.45453300000068,
                    "velocity": 0.7874015748031497,
                    "duration": 0.5454545000000053
                },
                {
                    "name": "G3",
                    "midi": 55,
                    "time": 149.99998750000069,
                    "velocity": 0.7874015748031497,
                    "duration": 0.5454545000000053
                },
                {
                    "name": "C#3",
                    "midi": 49,
                    "time": 150.5454420000007,
                    "velocity": 0.7874015748031497,
                    "duration": 0.5454545000000053
                },
                {
                    "name": "A#3",
                    "midi": 58,
                    "time": 151.0908965000007,
                    "velocity": 0.7874015748031497,
                    "duration": 0.5454545000000053
                },
                {
                    "name": "A3",
                    "midi": 57,
                    "time": 151.6363510000007,
                    "velocity": 0.7874015748031497,
                    "duration": 0.5454545000000053
                },
                {
                    "name": "G3",
                    "midi": 55,
                    "time": 152.1818055000007,
                    "velocity": 0.7874015748031497,
                    "duration": 0.27272725000000264
                },
                {
                    "name": "F3",
                    "midi": 53,
                    "time": 152.4545327500007,
                    "velocity": 0.7874015748031497,
                    "duration": 0.27272725000000264
                },
                {
                    "name": "E3",
                    "midi": 52,
                    "time": 152.7272600000007,
                    "velocity": 0.7874015748031497,
                    "duration": 0.5454545000000053
                },
                {
                    "name": "F3",
                    "midi": 53,
                    "time": 153.27271450000072,
                    "velocity": 0.7874015748031497,
                    "duration": 0.27272725000000264
                },
                {
                    "name": "D3",
                    "midi": 50,
                    "time": 153.54544175000072,
                    "velocity": 0.7874015748031497,
                    "duration": 0.27272725000000264
                },
                {
                    "name": "C#3",
                    "midi": 49,
                    "time": 153.81816900000072,
                    "velocity": 0.7874015748031497,
                    "duration": 0.5454545000000053
                },
                {
                    "name": "E3",
                    "midi": 52,
                    "time": 154.36362350000073,
                    "velocity": 0.7874015748031497,
                    "duration": 0.27272725000000264
                },
                {
                    "name": "A3",
                    "midi": 57,
                    "time": 154.63635075000073,
                    "velocity": 0.7874015748031497,
                    "duration": 0.27272725000000264
                },
                {
                    "name": "A2",
                    "midi": 45,
                    "time": 154.90907800000073,
                    "velocity": 0.7874015748031497,
                    "duration": 0.8181817500000079
                },
                {
                    "name": "G3",
                    "midi": 55,
                    "time": 155.72725975000074,
                    "velocity": 0.7874015748031497,
                    "duration": 0.27272725000000264
                },
                {
                    "name": "F3",
                    "midi": 53,
                    "time": 155.99998700000074,
                    "velocity": 0.7874015748031497,
                    "duration": 0.5454545000000053
                },
                {
                    "name": "E3",
                    "midi": 52,
                    "time": 156.54544150000075,
                    "velocity": 0.7874015748031497,
                    "duration": 0.5454545000000053
                },
                {
                    "name": "D3",
                    "midi": 50,
                    "time": 157.09089600000075,
                    "velocity": 0.7874015748031497,
                    "duration": 0.5454545000000053
                },
                {
                    "name": "E3",
                    "midi": 52,
                    "time": 157.63635050000076,
                    "velocity": 0.7874015748031497,
                    "duration": 0.27272725000000264
                },
                {
                    "name": "F3",
                    "midi": 53,
                    "time": 157.90907775000076,
                    "velocity": 0.7874015748031497,
                    "duration": 0.27272725000000264
                },
                {
                    "name": "F3",
                    "midi": 53,
                    "time": 158.18180500000076,
                    "velocity": 0.7874015748031497,
                    "duration": 1.6363634999999874
                },
                {
                    "name": "E3",
                    "midi": 52,
                    "time": 159.81816850000075,
                    "velocity": 0.7874015748031497,
                    "duration": 0.27272725000000264
                },
                {
                    "name": "D3",
                    "midi": 50,
                    "time": 160.09089575000075,
                    "velocity": 0.7874015748031497,
                    "duration": 0.27272725000000264
                },
                {
                    "name": "E3",
                    "midi": 52,
                    "time": 160.36362300000076,
                    "velocity": 0.7874015748031497,
                    "duration": 0.5454545000000053
                },
                {
                    "name": "F3",
                    "midi": 53,
                    "time": 160.90907750000076,
                    "velocity": 0.7874015748031497,
                    "duration": 0.27272725000000264
                },
                {
                    "name": "G3",
                    "midi": 55,
                    "time": 161.18180475000077,
                    "velocity": 0.7874015748031497,
                    "duration": 0.27272725000000264
                },
                {
                    "name": "G3",
                    "midi": 55,
                    "time": 161.45453200000077,
                    "velocity": 0.7874015748031497,
                    "duration": 1.6363634999999874
                },
                {
                    "name": "A3",
                    "midi": 57,
                    "time": 163.09089550000076,
                    "velocity": 0.7874015748031497,
                    "duration": 0.27272725000000264
                },
                {
                    "name": "A#3",
                    "midi": 58,
                    "time": 163.36362275000076,
                    "velocity": 0.7874015748031497,
                    "duration": 0.27272725000000264
                },
                {
                    "name": "A3",
                    "midi": 57,
                    "time": 163.63635000000076,
                    "velocity": 0.7874015748031497,
                    "duration": 0.5454545000000053
                },
                {
                    "name": "C#4",
                    "midi": 61,
                    "time": 164.18180450000077,
                    "velocity": 0.7874015748031497,
                    "duration": 0.27272725000000264
                },
                {
                    "name": "D4",
                    "midi": 62,
                    "time": 164.45453175000077,
                    "velocity": 0.7874015748031497,
                    "duration": 0.27272725000000264
                },
                {
                    "name": "D3",
                    "midi": 50,
                    "time": 164.72725900000077,
                    "velocity": 0.7874015748031497,
                    "duration": 0.27272725000000264
                },
                {
                    "name": "E3",
                    "midi": 52,
                    "time": 164.99998625000077,
                    "velocity": 0.7874015748031497,
                    "duration": 0.27272725000000264
                },
                {
                    "name": "F3",
                    "midi": 53,
                    "time": 165.27271350000078,
                    "velocity": 0.7874015748031497,
                    "duration": 0.27272725000000264
                },
                {
                    "name": "G3",
                    "midi": 55,
                    "time": 165.54544075000078,
                    "velocity": 0.7874015748031497,
                    "duration": 0.27272725000000264
                },
                {
                    "name": "F3",
                    "midi": 53,
                    "time": 165.81816800000078,
                    "velocity": 0.7874015748031497,
                    "duration": 0.5454545000000337
                },
                {
                    "name": "E3",
                    "midi": 52,
                    "time": 166.36362250000082,
                    "velocity": 0.7874015748031497,
                    "duration": 0.27272725000000264
                },
                {
                    "name": "D3",
                    "midi": 50,
                    "time": 166.63634975000082,
                    "velocity": 0.7874015748031497,
                    "duration": 0.27272725000000264
                },
                {
                    "name": "D3",
                    "midi": 50,
                    "time": 166.90907700000082,
                    "velocity": 0.7874015748031497,
                    "duration": 1.0909090000000106
                },
                {
                    "name": "D2",
                    "midi": 38,
                    "time": 167.99998600000083,
                    "velocity": 0.7874015748031497,
                    "duration": 0.27272725000000264
                },
                {
                    "name": "A2",
                    "midi": 45,
                    "time": 168.27271325000083,
                    "velocity": 0.7874015748031497,
                    "duration": 0.27272725000000264
                },
                {
                    "name": "B2",
                    "midi": 47,
                    "time": 168.54544050000084,
                    "velocity": 0.7874015748031497,
                    "duration": 0.27272725000000264
                },
                {
                    "name": "C#3",
                    "midi": 49,
                    "time": 168.81816775000084,
                    "velocity": 0.7874015748031497,
                    "duration": 0.27272725000000264
                },
                {
                    "name": "D3",
                    "midi": 50,
                    "time": 169.09089500000084,
                    "velocity": 0.7874015748031497,
                    "duration": 0.27272725000000264
                },
                {
                    "name": "E3",
                    "midi": 52,
                    "time": 169.36362225000084,
                    "velocity": 0.7874015748031497,
                    "duration": 0.27272725000000264
                },
                {
                    "name": "F3",
                    "midi": 53,
                    "time": 169.63634950000085,
                    "velocity": 0.7874015748031497,
                    "duration": 0.27272725000000264
                },
                {
                    "name": "G3",
                    "midi": 55,
                    "time": 169.90907675000085,
                    "velocity": 0.7874015748031497,
                    "duration": 0.27272725000000264
                },
                {
                    "name": "A3",
                    "midi": 57,
                    "time": 170.18180400000085,
                    "velocity": 0.7874015748031497,
                    "duration": 0.27272725000000264
                },
                {
                    "name": "B3",
                    "midi": 59,
                    "time": 170.45453125000085,
                    "velocity": 0.7874015748031497,
                    "duration": 0.27272725000000264
                },
                {
                    "name": "C4",
                    "midi": 60,
                    "time": 170.72725850000086,
                    "velocity": 0.7874015748031497,
                    "duration": 0.27272725000000264
                },
                {
                    "name": "B3",
                    "midi": 59,
                    "time": 170.99998575000086,
                    "velocity": 0.7874015748031497,
                    "duration": 0.27272725000000264
                },
                {
                    "name": "C4",
                    "midi": 60,
                    "time": 171.27271300000086,
                    "velocity": 0.7874015748031497,
                    "duration": 1.6363634999999874
                },
                {
                    "name": "B3",
                    "midi": 59,
                    "time": 172.90907650000085,
                    "velocity": 0.7874015748031497,
                    "duration": 0.27272725000000264
                },
                {
                    "name": "A3",
                    "midi": 57,
                    "time": 173.18180375000085,
                    "velocity": 0.7874015748031497,
                    "duration": 0.27272725000000264
                },
                {
                    "name": "B3",
                    "midi": 59,
                    "time": 173.45453100000086,
                    "velocity": 0.7874015748031497,
                    "duration": 0.27272725000000264
                },
                {
                    "name": "C#4",
                    "midi": 61,
                    "time": 173.72725825000086,
                    "velocity": 0.7874015748031497,
                    "duration": 0.27272725000000264
                },
                {
                    "name": "D4",
                    "midi": 62,
                    "time": 173.99998550000086,
                    "velocity": 0.7874015748031497,
                    "duration": 0.27272725000000264
                },
                {
                    "name": "C#4",
                    "midi": 61,
                    "time": 174.27271275000086,
                    "velocity": 0.7874015748031497,
                    "duration": 0.27272725000000264
                },
                {
                    "name": "D4",
                    "midi": 62,
                    "time": 174.54544000000087,
                    "velocity": 0.7874015748031497,
                    "duration": 1.6363634999999874
                },
                {
                    "name": "E4",
                    "midi": 64,
                    "time": 176.18180350000085,
                    "velocity": 0.7874015748031497,
                    "duration": 0.27272725000000264
                },
                {
                    "name": "F4",
                    "midi": 65,
                    "time": 176.45453075000086,
                    "velocity": 0.7874015748031497,
                    "duration": 0.27272725000000264
                },
                {
                    "name": "D4",
                    "midi": 62,
                    "time": 176.72725800000086,
                    "velocity": 0.7874015748031497,
                    "duration": 0.27272725000000264
                },
                {
                    "name": "C#4",
                    "midi": 61,
                    "time": 176.99998525000086,
                    "velocity": 0.7874015748031497,
                    "duration": 0.27272725000000264
                },
                {
                    "name": "D4",
                    "midi": 62,
                    "time": 177.27271250000086,
                    "velocity": 0.7874015748031497,
                    "duration": 0.27272725000000264
                },
                {
                    "name": "F3",
                    "midi": 53,
                    "time": 177.54543975000087,
                    "velocity": 0.7874015748031497,
                    "duration": 0.27272725000000264
                },
                {
                    "name": "A2",
                    "midi": 45,
                    "time": 177.81816700000087,
                    "velocity": 0.7874015748031497,
                    "duration": 0.5454545000000053
                },
                {
                    "name": "E3",
                    "midi": 52,
                    "time": 178.36362150000087,
                    "velocity": 0.7874015748031497,
                    "duration": 0.5454545000000053
                },
                {
                    "name": "D4",
                    "midi": 62,
                    "time": 178.90907600000088,
                    "velocity": 0.7874015748031497,
                    "duration": 0.5454545000000053
                },
                {
                    "name": "C#4",
                    "midi": 61,
                    "time": 179.45453050000089,
                    "velocity": 0.7874015748031497,
                    "duration": 0.5454545000000053
                },
                {
                    "name": "D4",
                    "midi": 62,
                    "time": 179.9999850000009,
                    "velocity": 0.7874015748031497,
                    "duration": 1.0909090000000106
                },
                {
                    "name": "D2",
                    "midi": 38,
                    "time": 181.0908940000009,
                    "velocity": 0.7874015748031497,
                    "duration": 2.1818179999999927
                }
            ],
            "controlChanges": {
                "7": [
                    {
                        "number": 7,
                        "time": 0,
                        "value": 0.7874015748031497
                    }
                ],
                "10": [
                    {
                        "number": 10,
                        "time": 0,
                        "value": 0.5433070866141733
                    }
                ]
            },
            "id": 1,
            "name": "Solo Cello",
            "instrumentNumber": 42,
            "instrument": "cello",
            "instrumentFamily": "strings",
            "channelNumber": 0,
            "isPercussion": false
        },
        {
            "startTime": 0,
            "duration": 176.1818035000001,
            "length": 52,
            "notes": [
                {
                    "name": "D3",
                    "midi": 50,
                    "time": 0,
                    "velocity": 0.7874015748031497,
                    "duration": 1.0909090000000001
                },
                {
                    "name": "A2",
                    "midi": 45,
                    "time": 1.0818180916666669,
                    "velocity": 0.7874015748031497,
                    "duration": 2.1818180000000003
                },
                {
                    "name": "A2",
                    "midi": 45,
                    "time": 3.2727270000000006,
                    "velocity": 0.7874015748031497,
                    "duration": 1.6363635000000007
                },
                {
                    "name": "A2",
                    "midi": 45,
                    "time": 13.090908000000002,
                    "velocity": 0.7874015748031497,
                    "duration": 1.090909
                },
                {
                    "name": "A2",
                    "midi": 45,
                    "time": 14.181817000000002,
                    "velocity": 0.7874015748031497,
                    "duration": 2.181818
                },
                {
                    "name": "A2",
                    "midi": 45,
                    "time": 16.363635000000002,
                    "velocity": 0.7874015748031497,
                    "duration": 1.6363635000000016
                },
                {
                    "name": "G2",
                    "midi": 43,
                    "time": 22.909089000000005,
                    "velocity": 0.7874015748031497,
                    "duration": 1.6363635000000016
                },
                {
                    "name": "F3",
                    "midi": 53,
                    "time": 26.18181600000001,
                    "velocity": 0.7874015748031497,
                    "duration": 0.5454545000000017
                },
                {
                    "name": "G3",
                    "midi": 55,
                    "time": 26.72727050000001,
                    "velocity": 0.7874015748031497,
                    "duration": 0.2727272499999991
                },
                {
                    "name": "A3",
                    "midi": 57,
                    "time": 26.99999775000001,
                    "velocity": 0.7874015748031497,
                    "duration": 0.2727272499999991
                },
                {
                    "name": "A3",
                    "midi": 57,
                    "time": 27.27272500000001,
                    "velocity": 0.7874015748031497,
                    "duration": 1.6363635000000016
                },
                {
                    "name": "F3",
                    "midi": 53,
                    "time": 30.54545200000001,
                    "velocity": 0.7874015748031497,
                    "duration": 2.181818
                },
                {
                    "name": "D3",
                    "midi": 50,
                    "time": 39.27272400000001,
                    "velocity": 0.7874015748031497,
                    "duration": 1.0909090000000035
                },
                {
                    "name": "A2",
                    "midi": 45,
                    "time": 40.35454209166668,
                    "velocity": 0.7874015748031497,
                    "duration": 2.181818
                },
                {
                    "name": "A2",
                    "midi": 45,
                    "time": 42.545451000000014,
                    "velocity": 0.7874015748031497,
                    "duration": 1.6363635000000016
                },
                {
                    "name": "A2",
                    "midi": 45,
                    "time": 52.36363200000002,
                    "velocity": 0.7874015748031497,
                    "duration": 1.0909090000000035
                },
                {
                    "name": "A2",
                    "midi": 45,
                    "time": 53.45454100000002,
                    "velocity": 0.7874015748031497,
                    "duration": 2.181818
                },
                {
                    "name": "A2",
                    "midi": 45,
                    "time": 55.63635900000002,
                    "velocity": 0.7874015748031497,
                    "duration": 1.6363635000000016
                },
                {
                    "name": "G2",
                    "midi": 43,
                    "time": 62.18181300000002,
                    "velocity": 0.7874015748031497,
                    "duration": 1.6363635000000016
                },
                {
                    "name": "F3",
                    "midi": 53,
                    "time": 65.45454000000002,
                    "velocity": 0.7874015748031497,
                    "duration": 0.5454545000000053
                },
                {
                    "name": "G3",
                    "midi": 55,
                    "time": 65.99999450000003,
                    "velocity": 0.7874015748031497,
                    "duration": 0.27272725000000264
                },
                {
                    "name": "A3",
                    "midi": 57,
                    "time": 66.27272175000003,
                    "velocity": 0.7874015748031497,
                    "duration": 0.27272725000000264
                },
                {
                    "name": "A3",
                    "midi": 57,
                    "time": 66.54544900000003,
                    "velocity": 0.7874015748031497,
                    "duration": 1.6363635000000016
                },
                {
                    "name": "F3",
                    "midi": 53,
                    "time": 69.81817600000004,
                    "velocity": 0.7874015748031497,
                    "duration": 2.181818000000007
                },
                {
                    "name": "F3",
                    "midi": 53,
                    "time": 78.54544800000005,
                    "velocity": 0.7874015748031497,
                    "duration": 0.5454545000000053
                },
                {
                    "name": "D#3",
                    "midi": 51,
                    "time": 79.09090250000006,
                    "velocity": 0.7874015748031497,
                    "duration": 0.5454545000000053
                },
                {
                    "name": "D#3",
                    "midi": 51,
                    "time": 79.63635700000006,
                    "velocity": 0.7874015748031497,
                    "duration": 1.6363635000000016
                },
                {
                    "name": "D3",
                    "midi": 50,
                    "time": 81.81817500000007,
                    "velocity": 0.7874015748031497,
                    "duration": 1.0909089999999964
                },
                {
                    "name": "D3",
                    "midi": 50,
                    "time": 88.36362900000006,
                    "velocity": 0.7874015748031497,
                    "duration": 1.6363635000000016
                },
                {
                    "name": "A#2",
                    "midi": 46,
                    "time": 104.72726400000006,
                    "velocity": 0.7874015748031497,
                    "duration": 1.0909089999999964
                },
                {
                    "name": "G2",
                    "midi": 43,
                    "time": 105.81817300000006,
                    "velocity": 0.7874015748031497,
                    "duration": 2.181818000000007
                },
                {
                    "name": "G2",
                    "midi": 43,
                    "time": 107.99999100000007,
                    "velocity": 0.7874015748031497,
                    "duration": 1.0909089999999964
                },
                {
                    "name": "C#2",
                    "midi": 37,
                    "time": 109.09090000000006,
                    "velocity": 0.7874015748031497,
                    "duration": 1.6363635000000016
                },
                {
                    "name": "F2",
                    "midi": 41,
                    "time": 111.27271800000007,
                    "velocity": 0.7874015748031497,
                    "duration": 0.5454545000000053
                },
                {
                    "name": "F3",
                    "midi": 53,
                    "time": 117.81817200000008,
                    "velocity": 0.7874015748031497,
                    "duration": 1.0909089999999964
                },
                {
                    "name": "F#3",
                    "midi": 54,
                    "time": 118.90908100000007,
                    "velocity": 0.7874015748031497,
                    "duration": 1.6363635000000016
                },
                {
                    "name": "D3",
                    "midi": 50,
                    "time": 121.09089900000008,
                    "velocity": 0.7874015748031497,
                    "duration": 1.0909089999999964
                },
                {
                    "name": "G#3",
                    "midi": 56,
                    "time": 122.18180800000007,
                    "velocity": 0.7874015748031497,
                    "duration": 1.6363635000000016
                },
                {
                    "name": "F3",
                    "midi": 53,
                    "time": 130.90908000000007,
                    "velocity": 0.7874015748031497,
                    "duration": 0.5454545000000053
                },
                {
                    "name": "D#3",
                    "midi": 51,
                    "time": 131.45453450000008,
                    "velocity": 0.7874015748031497,
                    "duration": 0.5454545000000053
                },
                {
                    "name": "D#3",
                    "midi": 51,
                    "time": 131.99998900000008,
                    "velocity": 0.7874015748031497,
                    "duration": 1.6363634999999874
                },
                {
                    "name": "D3",
                    "midi": 50,
                    "time": 134.18180700000008,
                    "velocity": 0.7874015748031497,
                    "duration": 1.0909090000000106
                },
                {
                    "name": "D3",
                    "midi": 50,
                    "time": 140.72726100000008,
                    "velocity": 0.7874015748031497,
                    "duration": 1.6363634999999874
                },
                {
                    "name": "A#2",
                    "midi": 46,
                    "time": 157.09089600000007,
                    "velocity": 0.7874015748031497,
                    "duration": 1.0909090000000106
                },
                {
                    "name": "G2",
                    "midi": 43,
                    "time": 158.18180500000008,
                    "velocity": 0.7874015748031497,
                    "duration": 2.1818179999999927
                },
                {
                    "name": "G2",
                    "midi": 43,
                    "time": 160.36362300000008,
                    "velocity": 0.7874015748031497,
                    "duration": 1.0909090000000106
                },
                {
                    "name": "C#2",
                    "midi": 37,
                    "time": 161.45453200000009,
                    "velocity": 0.7874015748031497,
                    "duration": 1.6363634999999874
                },
                {
                    "name": "F2",
                    "midi": 41,
                    "time": 163.63635000000008,
                    "velocity": 0.7874015748031497,
                    "duration": 0.5454545000000053
                },
                {
                    "name": "F3",
                    "midi": 53,
                    "time": 170.18180400000008,
                    "velocity": 0.7874015748031497,
                    "duration": 1.0909090000000106
                },
                {
                    "name": "F#3",
                    "midi": 54,
                    "time": 171.2727130000001,
                    "velocity": 0.7874015748031497,
                    "duration": 1.6363634999999874
                },
                {
                    "name": "D3",
                    "midi": 50,
                    "time": 173.4545310000001,
                    "velocity": 0.7874015748031497,
                    "duration": 1.0909090000000106
                },
                {
                    "name": "G#3",
                    "midi": 56,
                    "time": 174.5454400000001,
                    "velocity": 0.7874015748031497,
                    "duration": 1.6363634999999874
                }
            ],
            "controlChanges": {
                "7": [
                    {
                        "number": 7,
                        "time": 0,
                        "value": 0.7874015748031497
                    }
                ],
                "10": [
                    {
                        "number": 10,
                        "time": 0,
                        "value": 0.4645669291338583
                    }
                ]
            },
            "id": 2,
            "name": "--------------------------------------",
            "instrumentNumber": 42,
            "instrument": "cello",
            "instrumentFamily": "strings",
            "channelNumber": 1,
            "isPercussion": false
        },
        {
            "startTime": 3.299999725,
            "duration": 174.54544000000007,
            "length": 30,
            "notes": [
                {
                    "name": "D2",
                    "midi": 38,
                    "time": 3.299999725,
                    "velocity": 0.7874015748031497,
                    "duration": 1.6363635000000007
                },
                {
                    "name": "F2",
                    "midi": 41,
                    "time": 13.090908,
                    "velocity": 0.7874015748031497,
                    "duration": 1.090909
                },
                {
                    "name": "D2",
                    "midi": 38,
                    "time": 16.363635000000002,
                    "velocity": 0.7874015748031497,
                    "duration": 1.6363635000000016
                },
                {
                    "name": "C2",
                    "midi": 36,
                    "time": 22.909089000000005,
                    "velocity": 0.7874015748031497,
                    "duration": 1.6363635000000016
                },
                {
                    "name": "A#2",
                    "midi": 46,
                    "time": 27.27272500000001,
                    "velocity": 0.7874015748031497,
                    "duration": 1.6363635000000016
                },
                {
                    "name": "A#2",
                    "midi": 46,
                    "time": 29.45454300000001,
                    "velocity": 0.7874015748031497,
                    "duration": 1.090909
                },
                {
                    "name": "G2",
                    "midi": 43,
                    "time": 30.54545200000001,
                    "velocity": 0.7874015748031497,
                    "duration": 2.181818
                },
                {
                    "name": "D2",
                    "midi": 38,
                    "time": 42.57272372500002,
                    "velocity": 0.7874015748031497,
                    "duration": 1.6363635000000016
                },
                {
                    "name": "F2",
                    "midi": 41,
                    "time": 52.36363200000002,
                    "velocity": 0.7874015748031497,
                    "duration": 1.0909090000000035
                },
                {
                    "name": "D2",
                    "midi": 38,
                    "time": 55.63635900000002,
                    "velocity": 0.7874015748031497,
                    "duration": 1.6363635000000016
                },
                {
                    "name": "C2",
                    "midi": 36,
                    "time": 62.18181300000002,
                    "velocity": 0.7874015748031497,
                    "duration": 1.6363635000000016
                },
                {
                    "name": "A#2",
                    "midi": 46,
                    "time": 66.54544900000002,
                    "velocity": 0.7874015748031497,
                    "duration": 1.6363635000000016
                },
                {
                    "name": "A#2",
                    "midi": 46,
                    "time": 68.72726700000003,
                    "velocity": 0.7874015748031497,
                    "duration": 1.0909089999999964
                },
                {
                    "name": "G2",
                    "midi": 43,
                    "time": 69.81817600000002,
                    "velocity": 0.7874015748031497,
                    "duration": 2.181818000000007
                },
                {
                    "name": "G2",
                    "midi": 43,
                    "time": 88.36362900000003,
                    "velocity": 0.7874015748031497,
                    "duration": 1.6363635000000016
                },
                {
                    "name": "A#2",
                    "midi": 46,
                    "time": 109.09090000000003,
                    "velocity": 0.7874015748031497,
                    "duration": 1.6363635000000016
                },
                {
                    "name": "D3",
                    "midi": 50,
                    "time": 111.27271800000004,
                    "velocity": 0.7874015748031497,
                    "duration": 0.5454545000000053
                },
                {
                    "name": "D3",
                    "midi": 50,
                    "time": 112.36362700000005,
                    "velocity": 0.007874015748031496,
                    "duration": 0.5454545000000053
                },
                {
                    "name": "E3",
                    "midi": 52,
                    "time": 112.90908150000006,
                    "velocity": 0.007874015748031496,
                    "duration": 0.27272725000000264
                },
                {
                    "name": "F3",
                    "midi": 53,
                    "time": 113.18180875000006,
                    "velocity": 0.007874015748031496,
                    "duration": 0.13636362500000132
                },
                {
                    "name": "G3",
                    "midi": 55,
                    "time": 113.31817237500006,
                    "velocity": 0.007874015748031496,
                    "duration": 0.13636362500000132
                },
                {
                    "name": "G2",
                    "midi": 43,
                    "time": 121.09089900000006,
                    "velocity": 0.7874015748031497,
                    "duration": 1.0909089999999964
                },
                {
                    "name": "G2",
                    "midi": 43,
                    "time": 140.72726100000006,
                    "velocity": 0.7874015748031497,
                    "duration": 1.6363634999999874
                },
                {
                    "name": "A#2",
                    "midi": 46,
                    "time": 161.45453200000006,
                    "velocity": 0.7874015748031497,
                    "duration": 1.6363634999999874
                },
                {
                    "name": "D3",
                    "midi": 50,
                    "time": 163.63635000000005,
                    "velocity": 0.7874015748031497,
                    "duration": 0.5454545000000053
                },
                {
                    "name": "D3",
                    "midi": 50,
                    "time": 164.72725900000006,
                    "velocity": 0.007874015748031496,
                    "duration": 0.5454545000000053
                },
                {
                    "name": "E3",
                    "midi": 52,
                    "time": 165.27271350000007,
                    "velocity": 0.007874015748031496,
                    "duration": 0.27272725000000264
                },
                {
                    "name": "F3",
                    "midi": 53,
                    "time": 165.54544075000007,
                    "velocity": 0.007874015748031496,
                    "duration": 0.13636362500000132
                },
                {
                    "name": "G3",
                    "midi": 55,
                    "time": 165.68180437500007,
                    "velocity": 0.007874015748031496,
                    "duration": 0.13636362500000132
                },
                {
                    "name": "G2",
                    "midi": 43,
                    "time": 173.45453100000006,
                    "velocity": 0.7874015748031497,
                    "duration": 1.0909090000000106
                }
            ],
            "controlChanges": {
                "7": [
                    {
                        "number": 7,
                        "time": 0,
                        "value": 0.7874015748031497
                    }
                ],
                "10": [
                    {
                        "number": 10,
                        "time": 0,
                        "value": 0.6220472440944882
                    }
                ]
            },
            "id": 3,
            "name": "Johann Sebastian Bach  (1685-1750)",
            "instrumentNumber": 42,
            "instrument": "cello",
            "instrumentFamily": "strings",
            "channelNumber": 2,
            "isPercussion": false
        },
        {
            "startTime": 111.27271800000001,
            "duration": 166.90907700000005,
            "length": 6,
            "notes": [
                {
                    "name": "A2",
                    "midi": 45,
                    "time": 111.27271800000001,
                    "velocity": 0.7874015748031497,
                    "duration": 0.5454545000000053
                },
                {
                    "name": "G2",
                    "midi": 43,
                    "time": 112.90908150000001,
                    "velocity": 0.7874015748031497,
                    "duration": 0.5454545000000053
                },
                {
                    "name": "A2",
                    "midi": 45,
                    "time": 113.45453600000002,
                    "velocity": 0.7874015748031497,
                    "duration": 1.0909089999999964
                },
                {
                    "name": "A2",
                    "midi": 45,
                    "time": 163.63635000000002,
                    "velocity": 0.7874015748031497,
                    "duration": 0.5454545000000053
                },
                {
                    "name": "G2",
                    "midi": 43,
                    "time": 165.27271350000004,
                    "velocity": 0.7874015748031497,
                    "duration": 0.5454545000000053
                },
                {
                    "name": "A2",
                    "midi": 45,
                    "time": 165.81816800000004,
                    "velocity": 0.7874015748031497,
                    "duration": 1.0909090000000106
                }
            ],
            "controlChanges": {
                "7": [
                    {
                        "number": 7,
                        "time": 0,
                        "value": 0.7874015748031497
                    }
                ],
                "10": [
                    {
                        "number": 10,
                        "time": 0,
                        "value": 0.3858267716535433
                    }
                ]
            },
            "id": 4,
            "name": "Six Suites for Solo Cello",
            "instrumentNumber": 42,
            "instrument": "cello",
            "instrumentFamily": "strings",
            "channelNumber": 3,
            "isPercussion": false
        },
        {
            "startTime": 0,
            "duration": 0,
            "length": 0,
            "notes": [],
            "controlChanges": {},
            "id": 5,
            "name": "--------------------------------------"
        },
        {
            "startTime": 0,
            "duration": 0,
            "length": 0,
            "notes": [],
            "controlChanges": {},
            "id": 6,
            "name": "Suite No. 2 in D minor - BWV 1008"
        },
        {
            "startTime": 0,
            "duration": 0,
            "length": 0,
            "notes": [],
            "controlChanges": {},
            "id": 7,
            "name": "4th Movement: Sarabande"
        },
        {
            "startTime": 0,
            "duration": 0,
            "length": 0,
            "notes": [],
            "controlChanges": {},
            "id": 8,
            "name": "--------------------------------------"
        },
        {
            "startTime": 0,
            "duration": 0,
            "length": 0,
            "notes": [],
            "controlChanges": {},
            "id": 9,
            "name": "Sequenced with Cakewalk Pro Audio by"
        },
        {
            "startTime": 0,
            "duration": 0,
            "length": 0,
            "notes": [],
            "controlChanges": {},
            "id": 10,
            "name": "David J. Grossman - dave@unpronounceable.com"
        },
        {
            "startTime": 0,
            "duration": 0,
            "length": 0,
            "notes": [],
            "controlChanges": {},
            "id": 11,
            "name": "This and other Bach MIDI files can be found at:"
        },
        {
            "startTime": 0,
            "duration": 0,
            "length": 0,
            "notes": [],
            "controlChanges": {},
            "id": 12,
            "name": "Dave's J.S. Bach Page"
        },
        {
            "startTime": 0,
            "duration": 0,
            "length": 0,
            "notes": [],
            "controlChanges": {},
            "id": 13,
            "name": "http://www.unpronounceable.com/bach"
        },
        {
            "startTime": 0,
            "duration": 0,
            "length": 0,
            "notes": [],
            "controlChanges": {},
            "id": 14,
            "name": "--------------------------------------"
        },
        {
            "startTime": 0,
            "duration": 0,
            "length": 0,
            "notes": [],
            "controlChanges": {},
            "id": 15,
            "name": "Original Filename: cs2-4sar.mid"
        },
        {
            "startTime": 0,
            "duration": 0,
            "length": 0,
            "notes": [],
            "controlChanges": {},
            "id": 16,
            "name": "Last Modified: February 22, 1997"
        }
    ]
}