{
    "header": {
        "PPQ": 480,
        "timeSignature": [
            6,
            8
        ],
        "bpm": 50.4900055034106,
        "name": "Venetianisches Gondellied"
    },
    "startTime": 0,
    "duration": 163.99285200000014,
    "tracks": [
        {
            "startTime": 0,
            "duration": 0,
            "length": 0,
            "notes": [],
            "controlChanges": {},
            "id": 0,
            "name": "Venetianisches Gondellied"
        },
        {
            "startTime": 7.1301239999999995,
            "duration": 161.0219670000003,
            "length": 282,
            "notes": [
                {
                    "name": "D4",
                    "midi": 62,
                    "time": 7.1301239999999995,
                    "velocity": 0.3937007874015748,
                    "duration": 1.7825309999999996
                },
                {
                    "name": "F4",
                    "midi": 65,
                    "time": 8.912654999999999,
                    "velocity": 0.48031496062992124,
                    "duration": 3.5650619999999993
                },
                {
                    "name": "D#4",
                    "midi": 63,
                    "time": 12.477716999999998,
                    "velocity": 0.44881889763779526,
                    "duration": 1.7825310000000005
                },
                {
                    "name": "D4",
                    "midi": 62,
                    "time": 14.260247999999999,
                    "velocity": 0.3937007874015748,
                    "duration": 2.970885000000001
                },
                {
                    "name": "D5",
                    "midi": 74,
                    "time": 24.361257,
                    "velocity": 0.41732283464566927,
                    "duration": 0.5941769999999984
                },
                {
                    "name": "A#4",
                    "midi": 70,
                    "time": 24.361257,
                    "velocity": 0.3543307086614173,
                    "duration": 0.5941769999999984
                },
                {
                    "name": "C5",
                    "midi": 72,
                    "time": 24.955433999999997,
                    "velocity": 0.48031496062992124,
                    "duration": 1.1883540000000004
                },
                {
                    "name": "A4",
                    "midi": 69,
                    "time": 24.955433999999997,
                    "velocity": 0.4015748031496063,
                    "duration": 1.1883540000000004
                },
                {
                    "name": "G4",
                    "midi": 67,
                    "time": 26.143787999999997,
                    "velocity": 0.33070866141732286,
                    "duration": 0.5941769999999984
                },
                {
                    "name": "A#4",
                    "midi": 70,
                    "time": 26.143787999999997,
                    "velocity": 0.3937007874015748,
                    "duration": 0.5941769999999984
                },
                {
                    "name": "A4",
                    "midi": 69,
                    "time": 26.737964999999996,
                    "velocity": 0.4330708661417323,
                    "duration": 1.1759753125000003
                },
                {
                    "name": "F#4",
                    "midi": 66,
                    "time": 26.737964999999996,
                    "velocity": 0.36220472440944884,
                    "duration": 1.1759753125000003
                },
                {
                    "name": "A4",
                    "midi": 69,
                    "time": 27.926318999999996,
                    "velocity": 0.33070866141732286,
                    "duration": 0.5941769999999984
                },
                {
                    "name": "C5",
                    "midi": 72,
                    "time": 27.926318999999996,
                    "velocity": 0.3937007874015748,
                    "duration": 0.5941769999999984
                },
                {
                    "name": "A#4",
                    "midi": 70,
                    "time": 28.520495999999994,
                    "velocity": 0.4409448818897638,
                    "duration": 1.1883540000000004
                },
                {
                    "name": "D4",
                    "midi": 62,
                    "time": 28.520495999999994,
                    "velocity": 0.3700787401574803,
                    "duration": 1.1883540000000004
                },
                {
                    "name": "C4",
                    "midi": 60,
                    "time": 29.708849999999995,
                    "velocity": 0.33070866141732286,
                    "duration": 0.5941769999999984
                },
                {
                    "name": "A4",
                    "midi": 69,
                    "time": 29.708849999999995,
                    "velocity": 0.3937007874015748,
                    "duration": 0.5941769999999984
                },
                {
                    "name": "G4",
                    "midi": 67,
                    "time": 30.303026999999993,
                    "velocity": 0.4330708661417323,
                    "duration": 1.1883540000000004
                },
                {
                    "name": "A#3",
                    "midi": 58,
                    "time": 30.303026999999993,
                    "velocity": 0.36220472440944884,
                    "duration": 1.1883540000000004
                },
                {
                    "name": "D4",
                    "midi": 62,
                    "time": 31.491380999999993,
                    "velocity": 0.3937007874015748,
                    "duration": 0.5941769999999984
                },
                {
                    "name": "D#4",
                    "midi": 63,
                    "time": 32.08555799999999,
                    "velocity": 0.4330708661417323,
                    "duration": 1.1635966249999967
                },
                {
                    "name": "C4",
                    "midi": 60,
                    "time": 32.08555799999999,
                    "velocity": 0.36220472440944884,
                    "duration": 1.1635966249999967
                },
                {
                    "name": "C4",
                    "midi": 60,
                    "time": 33.27391199999999,
                    "velocity": 0.33070866141732286,
                    "duration": 0.5694196250000019
                },
                {
                    "name": "D#4",
                    "midi": 63,
                    "time": 33.27391199999999,
                    "velocity": 0.3937007874015748,
                    "duration": 0.5694196250000019
                },
                {
                    "name": "D#4",
                    "midi": 63,
                    "time": 33.86808899999999,
                    "velocity": 0.3779527559055118,
                    "duration": 0.297088500000001
                },
                {
                    "name": "C4",
                    "midi": 60,
                    "time": 33.86808899999999,
                    "velocity": 0.31496062992125984,
                    "duration": 0.297088500000001
                },
                {
                    "name": "F4",
                    "midi": 65,
                    "time": 34.16517749999999,
                    "velocity": 0.41732283464566927,
                    "duration": 0.297088500000001
                },
                {
                    "name": "D4",
                    "midi": 62,
                    "time": 34.16517749999999,
                    "velocity": 0.3543307086614173,
                    "duration": 0.297088500000001
                },
                {
                    "name": "G4",
                    "midi": 67,
                    "time": 34.46226599999999,
                    "velocity": 0.4251968503937008,
                    "duration": 0.297088500000001
                },
                {
                    "name": "D#4",
                    "midi": 63,
                    "time": 34.46226599999999,
                    "velocity": 0.3543307086614173,
                    "duration": 0.297088500000001
                },
                {
                    "name": "C4",
                    "midi": 60,
                    "time": 35.056442999999994,
                    "velocity": 0.33070866141732286,
                    "duration": 0.297088500000001
                },
                {
                    "name": "D#4",
                    "midi": 63,
                    "time": 35.056442999999994,
                    "velocity": 0.3937007874015748,
                    "duration": 0.297088500000001
                },
                {
                    "name": "D4",
                    "midi": 62,
                    "time": 35.650619999999996,
                    "velocity": 0.36220472440944884,
                    "duration": 7.130124000000002
                },
                {
                    "name": "D5",
                    "midi": 74,
                    "time": 38.621505,
                    "velocity": 0.41732283464566927,
                    "duration": 0.594177000000002
                },
                {
                    "name": "A#4",
                    "midi": 70,
                    "time": 38.621505,
                    "velocity": 0.3543307086614173,
                    "duration": 0.594177000000002
                },
                {
                    "name": "C5",
                    "midi": 72,
                    "time": 39.215682,
                    "velocity": 0.48031496062992124,
                    "duration": 1.1883539999999968
                },
                {
                    "name": "A4",
                    "midi": 69,
                    "time": 39.215682,
                    "velocity": 0.4015748031496063,
                    "duration": 1.1883539999999968
                },
                {
                    "name": "G4",
                    "midi": 67,
                    "time": 40.404036,
                    "velocity": 0.33070866141732286,
                    "duration": 0.594177000000002
                },
                {
                    "name": "A#4",
                    "midi": 70,
                    "time": 40.404036,
                    "velocity": 0.3937007874015748,
                    "duration": 0.594177000000002
                },
                {
                    "name": "A4",
                    "midi": 69,
                    "time": 40.998213,
                    "velocity": 0.4330708661417323,
                    "duration": 1.1635966249999967
                },
                {
                    "name": "F#4",
                    "midi": 66,
                    "time": 40.998213,
                    "velocity": 0.36220472440944884,
                    "duration": 1.1635966249999967
                },
                {
                    "name": "A4",
                    "midi": 69,
                    "time": 42.186567,
                    "velocity": 0.33070866141732286,
                    "duration": 0.594177000000002
                },
                {
                    "name": "C5",
                    "midi": 72,
                    "time": 42.186567,
                    "velocity": 0.3937007874015748,
                    "duration": 0.594177000000002
                },
                {
                    "name": "A#4",
                    "midi": 70,
                    "time": 42.780744,
                    "velocity": 0.4409448818897638,
                    "duration": 1.1883539999999968
                },
                {
                    "name": "D4",
                    "midi": 62,
                    "time": 42.780744,
                    "velocity": 0.3700787401574803,
                    "duration": 1.1883539999999968
                },
                {
                    "name": "C4",
                    "midi": 60,
                    "time": 43.969097999999995,
                    "velocity": 0.33070866141732286,
                    "duration": 0.594177000000002
                },
                {
                    "name": "A4",
                    "midi": 69,
                    "time": 43.969097999999995,
                    "velocity": 0.3937007874015748,
                    "duration": 0.594177000000002
                },
                {
                    "name": "G4",
                    "midi": 67,
                    "time": 44.563275,
                    "velocity": 0.4330708661417323,
                    "duration": 0.5199048750000017
                },
                {
                    "name": "A#3",
                    "midi": 58,
                    "time": 44.563275,
                    "velocity": 0.36220472440944884,
                    "duration": 0.5199048750000017
                },
                {
                    "name": "G4",
                    "midi": 67,
                    "time": 45.157452,
                    "velocity": 0.4881889763779528,
                    "duration": 0.594177000000002
                },
                {
                    "name": "A4",
                    "midi": 69,
                    "time": 45.751629,
                    "velocity": 0.49606299212598426,
                    "duration": 0.594177000000002
                },
                {
                    "name": "A#4",
                    "midi": 70,
                    "time": 46.345806,
                    "velocity": 0.5433070866141733,
                    "duration": 0.594177000000002
                },
                {
                    "name": "C#5",
                    "midi": 73,
                    "time": 46.939983000000005,
                    "velocity": 0.4881889763779528,
                    "duration": 0.594177000000002
                },
                {
                    "name": "D5",
                    "midi": 74,
                    "time": 47.53416000000001,
                    "velocity": 0.5275590551181102,
                    "duration": 0.594177000000002
                },
                {
                    "name": "C#5",
                    "midi": 73,
                    "time": 48.12833700000001,
                    "velocity": 0.5196850393700787,
                    "duration": 0.594177000000002
                },
                {
                    "name": "F5",
                    "midi": 77,
                    "time": 48.12833700000001,
                    "velocity": 0.6141732283464567,
                    "duration": 0.594177000000002
                },
                {
                    "name": "E5",
                    "midi": 76,
                    "time": 48.72251400000001,
                    "velocity": 0.5196850393700787,
                    "duration": 0.594177000000002
                },
                {
                    "name": "D5",
                    "midi": 74,
                    "time": 49.31669100000001,
                    "velocity": 0.5669291338582677,
                    "duration": 0.594177000000002
                },
                {
                    "name": "A5",
                    "midi": 81,
                    "time": 49.910868000000015,
                    "velocity": 0.6141732283464567,
                    "duration": 1.1883539999999968
                },
                {
                    "name": "D5",
                    "midi": 74,
                    "time": 49.910868000000015,
                    "velocity": 0.4409448818897638,
                    "duration": 1.1883539999999968
                },
                {
                    "name": "F5",
                    "midi": 77,
                    "time": 51.09922200000001,
                    "velocity": 0.5354330708661418,
                    "duration": 0.594177000000002
                },
                {
                    "name": "D5",
                    "midi": 74,
                    "time": 51.693399000000014,
                    "velocity": 0.49606299212598426,
                    "duration": 1.1883539999999968
                },
                {
                    "name": "A4",
                    "midi": 69,
                    "time": 52.88175300000001,
                    "velocity": 0.4330708661417323,
                    "duration": 0.594177000000002
                },
                {
                    "name": "A#4",
                    "midi": 70,
                    "time": 53.47593000000001,
                    "velocity": 0.44881889763779526,
                    "duration": 0.594177000000002
                },
                {
                    "name": "E4",
                    "midi": 64,
                    "time": 54.070107000000014,
                    "velocity": 0.3779527559055118,
                    "duration": 0.594177000000002
                },
                {
                    "name": "C#5",
                    "midi": 73,
                    "time": 54.070107000000014,
                    "velocity": 0.44881889763779526,
                    "duration": 0.594177000000002
                },
                {
                    "name": "F4",
                    "midi": 65,
                    "time": 54.664284000000016,
                    "velocity": 0.3779527559055118,
                    "duration": 0.594177000000002
                },
                {
                    "name": "D5",
                    "midi": 74,
                    "time": 54.664284000000016,
                    "velocity": 0.44881889763779526,
                    "duration": 0.594177000000002
                },
                {
                    "name": "A4",
                    "midi": 69,
                    "time": 55.25846100000002,
                    "velocity": 0.41732283464566927,
                    "duration": 0.594177000000002
                },
                {
                    "name": "F5",
                    "midi": 77,
                    "time": 55.25846100000002,
                    "velocity": 0.49606299212598426,
                    "duration": 0.594177000000002
                },
                {
                    "name": "E5",
                    "midi": 76,
                    "time": 55.85263800000002,
                    "velocity": 0.44881889763779526,
                    "duration": 0.594177000000002
                },
                {
                    "name": "G4",
                    "midi": 67,
                    "time": 55.85263800000002,
                    "velocity": 0.3779527559055118,
                    "duration": 0.594177000000002
                },
                {
                    "name": "D5",
                    "midi": 74,
                    "time": 56.44681500000002,
                    "velocity": 0.4251968503937008,
                    "duration": 0.5644681500000033
                },
                {
                    "name": "F4",
                    "midi": 65,
                    "time": 56.44681500000002,
                    "velocity": 0.3543307086614173,
                    "duration": 0.5644681500000033
                },
                {
                    "name": "D5",
                    "midi": 74,
                    "time": 57.040992000000024,
                    "velocity": 0.5118110236220472,
                    "duration": 2.8966128750000024
                },
                {
                    "name": "F4",
                    "midi": 65,
                    "time": 57.040992000000024,
                    "velocity": 0.4330708661417323,
                    "duration": 2.8966128750000024
                },
                {
                    "name": "D5",
                    "midi": 74,
                    "time": 60.01187700000003,
                    "velocity": 0.4645669291338583,
                    "duration": 0.594177000000002
                },
                {
                    "name": "F5",
                    "midi": 77,
                    "time": 60.60605400000003,
                    "velocity": 0.5511811023622047,
                    "duration": 1.188354000000004
                },
                {
                    "name": "F4",
                    "midi": 65,
                    "time": 61.20023100000003,
                    "velocity": 0.30708661417322836,
                    "duration": 0.594177000000002
                },
                {
                    "name": "G4",
                    "midi": 67,
                    "time": 61.79440800000003,
                    "velocity": 0.2677165354330709,
                    "duration": 0.594177000000002
                },
                {
                    "name": "D5",
                    "midi": 74,
                    "time": 61.79440800000003,
                    "velocity": 0.48031496062992124,
                    "duration": 0.594177000000002
                },
                {
                    "name": "C5",
                    "midi": 72,
                    "time": 62.388585000000035,
                    "velocity": 0.5118110236220472,
                    "duration": 1.188354000000004
                },
                {
                    "name": "F4",
                    "midi": 65,
                    "time": 62.98276200000004,
                    "velocity": 0.30708661417322836,
                    "duration": 0.594177000000002
                },
                {
                    "name": "G4",
                    "midi": 67,
                    "time": 63.57693900000004,
                    "velocity": 0.2677165354330709,
                    "duration": 0.594177000000002
                },
                {
                    "name": "B4",
                    "midi": 71,
                    "time": 63.57693900000004,
                    "velocity": 0.48031496062992124,
                    "duration": 0.594177000000002
                },
                {
                    "name": "C5",
                    "midi": 72,
                    "time": 64.17111600000004,
                    "velocity": 0.5511811023622047,
                    "duration": 1.188354000000004
                },
                {
                    "name": "C4",
                    "midi": 60,
                    "time": 64.76529300000004,
                    "velocity": 0.30708661417322836,
                    "duration": 0.594177000000002
                },
                {
                    "name": "D#4",
                    "midi": 63,
                    "time": 64.76529300000004,
                    "velocity": 0.30708661417322836,
                    "duration": 0.594177000000002
                },
                {
                    "name": "G4",
                    "midi": 67,
                    "time": 65.35947000000004,
                    "velocity": 0.4566929133858268,
                    "duration": 0.594177000000002
                },
                {
                    "name": "G#4",
                    "midi": 68,
                    "time": 65.95364700000005,
                    "velocity": 0.5118110236220472,
                    "duration": 1.188354000000004
                },
                {
                    "name": "D4",
                    "midi": 62,
                    "time": 66.54782400000005,
                    "velocity": 0.30708661417322836,
                    "duration": 0.594177000000002
                },
                {
                    "name": "F4",
                    "midi": 65,
                    "time": 66.54782400000005,
                    "velocity": 0.30708661417322836,
                    "duration": 0.594177000000002
                },
                {
                    "name": "B4",
                    "midi": 71,
                    "time": 67.14200100000005,
                    "velocity": 0.5118110236220472,
                    "duration": 0.594177000000002
                },
                {
                    "name": "C5",
                    "midi": 72,
                    "time": 67.73617800000005,
                    "velocity": 0.5433070866141733,
                    "duration": 1.188354000000004
                },
                {
                    "name": "C4",
                    "midi": 60,
                    "time": 68.33035500000005,
                    "velocity": 0.30708661417322836,
                    "duration": 0.594177000000002
                },
                {
                    "name": "D#4",
                    "midi": 63,
                    "time": 68.33035500000005,
                    "velocity": 0.30708661417322836,
                    "duration": 0.594177000000002
                },
                {
                    "name": "G4",
                    "midi": 67,
                    "time": 68.92453200000006,
                    "velocity": 0.4409448818897638,
                    "duration": 0.594177000000002
                },
                {
                    "name": "G#4",
                    "midi": 68,
                    "time": 69.51870900000006,
                    "velocity": 0.4881889763779528,
                    "duration": 1.188354000000004
                },
                {
                    "name": "D4",
                    "midi": 62,
                    "time": 70.11288600000006,
                    "velocity": 0.30708661417322836,
                    "duration": 0.594177000000002
                },
                {
                    "name": "F4",
                    "midi": 65,
                    "time": 70.11288600000006,
                    "velocity": 0.30708661417322836,
                    "duration": 0.594177000000002
                },
                {
                    "name": "B4",
                    "midi": 71,
                    "time": 70.70706300000006,
                    "velocity": 0.4409448818897638,
                    "duration": 0.594177000000002
                },
                {
                    "name": "C5",
                    "midi": 72,
                    "time": 71.30124000000006,
                    "velocity": 0.5039370078740157,
                    "duration": 2.376708000000008
                },
                {
                    "name": "D#4",
                    "midi": 63,
                    "time": 71.89541700000007,
                    "velocity": 0.30708661417322836,
                    "duration": 0.594177000000002
                },
                {
                    "name": "G4",
                    "midi": 67,
                    "time": 72.48959400000007,
                    "velocity": 0.2677165354330709,
                    "duration": 0.594177000000002
                },
                {
                    "name": "D#4",
                    "midi": 63,
                    "time": 73.67794800000007,
                    "velocity": 0.30708661417322836,
                    "duration": 0.594177000000002
                },
                {
                    "name": "G4",
                    "midi": 67,
                    "time": 74.27212500000007,
                    "velocity": 0.2125984251968504,
                    "duration": 0.594177000000002
                },
                {
                    "name": "C5",
                    "midi": 72,
                    "time": 74.27212500000007,
                    "velocity": 0.3700787401574803,
                    "duration": 0.594177000000002
                },
                {
                    "name": "D#5",
                    "midi": 75,
                    "time": 74.86630200000008,
                    "velocity": 0.4566929133858268,
                    "duration": 1.188354000000004
                },
                {
                    "name": "D#4",
                    "midi": 63,
                    "time": 75.46047900000008,
                    "velocity": 0.2440944881889764,
                    "duration": 0.594177000000002
                },
                {
                    "name": "F#4",
                    "midi": 66,
                    "time": 76.05465600000008,
                    "velocity": 0.2125984251968504,
                    "duration": 0.594177000000002
                },
                {
                    "name": "A4",
                    "midi": 69,
                    "time": 76.05465600000008,
                    "velocity": 0.3779527559055118,
                    "duration": 0.594177000000002
                },
                {
                    "name": "D#5",
                    "midi": 75,
                    "time": 76.64883300000008,
                    "velocity": 0.4094488188976378,
                    "duration": 1.188354000000004
                },
                {
                    "name": "D#4",
                    "midi": 63,
                    "time": 77.24301000000008,
                    "velocity": 0.2440944881889764,
                    "duration": 0.594177000000002
                },
                {
                    "name": "F#4",
                    "midi": 66,
                    "time": 77.83718700000009,
                    "velocity": 0.2125984251968504,
                    "duration": 0.594177000000002
                },
                {
                    "name": "A4",
                    "midi": 69,
                    "time": 77.83718700000009,
                    "velocity": 0.3779527559055118,
                    "duration": 0.594177000000002
                },
                {
                    "name": "D#5",
                    "midi": 75,
                    "time": 78.43136400000009,
                    "velocity": 0.4566929133858268,
                    "duration": 2.9708850000000098
                },
                {
                    "name": "D#4",
                    "midi": 63,
                    "time": 79.02554100000009,
                    "velocity": 0.2440944881889764,
                    "duration": 0.594177000000002
                },
                {
                    "name": "F#4",
                    "midi": 66,
                    "time": 79.61971800000009,
                    "velocity": 0.36220472440944884,
                    "duration": 0.594177000000002
                },
                {
                    "name": "A4",
                    "midi": 69,
                    "time": 79.61971800000009,
                    "velocity": 0.36220472440944884,
                    "duration": 0.594177000000002
                },
                {
                    "name": "D#4",
                    "midi": 63,
                    "time": 80.8080720000001,
                    "velocity": 0.2440944881889764,
                    "duration": 0.594177000000002
                },
                {
                    "name": "A4",
                    "midi": 69,
                    "time": 81.4022490000001,
                    "velocity": 0.2440944881889764,
                    "duration": 0.594177000000002
                },
                {
                    "name": "D5",
                    "midi": 74,
                    "time": 81.4022490000001,
                    "velocity": 0.4094488188976378,
                    "duration": 0.594177000000002
                },
                {
                    "name": "C5",
                    "midi": 72,
                    "time": 81.9964260000001,
                    "velocity": 0.4330708661417323,
                    "duration": 1.188354000000004
                },
                {
                    "name": "D4",
                    "midi": 62,
                    "time": 82.5906030000001,
                    "velocity": 0.2440944881889764,
                    "duration": 0.594177000000002
                },
                {
                    "name": "G4",
                    "midi": 67,
                    "time": 83.1847800000001,
                    "velocity": 0.2440944881889764,
                    "duration": 0.594177000000002
                },
                {
                    "name": "A#4",
                    "midi": 70,
                    "time": 83.1847800000001,
                    "velocity": 0.3464566929133858,
                    "duration": 0.594177000000002
                },
                {
                    "name": "A4",
                    "midi": 69,
                    "time": 83.7715297875001,
                    "velocity": 0.2440944881889764,
                    "duration": 0.594177000000002
                },
                {
                    "name": "C#4",
                    "midi": 61,
                    "time": 84.3731340000001,
                    "velocity": 0.2440944881889764,
                    "duration": 0.594177000000002
                },
                {
                    "name": "A#4",
                    "midi": 70,
                    "time": 84.3731340000001,
                    "velocity": 0.2440944881889764,
                    "duration": 0.594177000000002
                },
                {
                    "name": "G4",
                    "midi": 67,
                    "time": 84.96731100000011,
                    "velocity": 0.3464566929133858,
                    "duration": 0.594177000000002
                },
                {
                    "name": "D4",
                    "midi": 62,
                    "time": 85.56148800000011,
                    "velocity": 0.3464566929133858,
                    "duration": 0.594177000000002
                },
                {
                    "name": "F#4",
                    "midi": 66,
                    "time": 85.56148800000011,
                    "velocity": 0.3464566929133858,
                    "duration": 0.594177000000002
                },
                {
                    "name": "A4",
                    "midi": 69,
                    "time": 85.56148800000011,
                    "velocity": 0.3464566929133858,
                    "duration": 0.594177000000002
                },
                {
                    "name": "D5",
                    "midi": 74,
                    "time": 85.56148800000011,
                    "velocity": 0.4330708661417323,
                    "duration": 0.594177000000002
                },
                {
                    "name": "D5",
                    "midi": 74,
                    "time": 86.15566500000011,
                    "velocity": 0.4330708661417323,
                    "duration": 0.44563275000000147
                },
                {
                    "name": "D5",
                    "midi": 74,
                    "time": 86.74984200000011,
                    "velocity": 0.48031496062992124,
                    "duration": 0.44563275000000147
                },
                {
                    "name": "D5",
                    "midi": 74,
                    "time": 87.34401900000012,
                    "velocity": 0.5590551181102362,
                    "duration": 0.44563275000000147
                },
                {
                    "name": "D5",
                    "midi": 74,
                    "time": 87.93819600000012,
                    "velocity": 0.5354330708661418,
                    "duration": 0.44563275000000147
                },
                {
                    "name": "D5",
                    "midi": 74,
                    "time": 88.53237300000012,
                    "velocity": 0.49606299212598426,
                    "duration": 0.44563275000000147
                },
                {
                    "name": "D5",
                    "midi": 74,
                    "time": 89.12655000000012,
                    "velocity": 0.49606299212598426,
                    "duration": 0.5347593000000046
                },
                {
                    "name": "D4",
                    "midi": 62,
                    "time": 89.72072700000012,
                    "velocity": 0.2992125984251969,
                    "duration": 0.5347593000000046
                },
                {
                    "name": "G4",
                    "midi": 67,
                    "time": 89.72072700000012,
                    "velocity": 0.2992125984251969,
                    "duration": 0.5347593000000046
                },
                {
                    "name": "A#4",
                    "midi": 70,
                    "time": 89.72072700000012,
                    "velocity": 0.4330708661417323,
                    "duration": 0.5347593000000046
                },
                {
                    "name": "F#4",
                    "midi": 66,
                    "time": 90.31490400000013,
                    "velocity": 0.33070866141732286,
                    "duration": 0.5347593000000046
                },
                {
                    "name": "C5",
                    "midi": 72,
                    "time": 90.31490400000013,
                    "velocity": 0.33070866141732286,
                    "duration": 0.5347593000000046
                },
                {
                    "name": "D#5",
                    "midi": 75,
                    "time": 90.31490400000013,
                    "velocity": 0.47244094488188976,
                    "duration": 0.5347593000000046
                },
                {
                    "name": "D5",
                    "midi": 74,
                    "time": 90.90908100000013,
                    "velocity": 0.49606299212598426,
                    "duration": 1.188354000000004
                },
                {
                    "name": "G4",
                    "midi": 67,
                    "time": 91.50325800000013,
                    "velocity": 0.33070866141732286,
                    "duration": 0.5347593000000046
                },
                {
                    "name": "A#4",
                    "midi": 70,
                    "time": 91.50325800000013,
                    "velocity": 0.33070866141732286,
                    "duration": 0.5347593000000046
                },
                {
                    "name": "A#4",
                    "midi": 70,
                    "time": 92.09743500000013,
                    "velocity": 0.33070866141732286,
                    "duration": 0.5347593000000046
                },
                {
                    "name": "D5",
                    "midi": 74,
                    "time": 92.09743500000013,
                    "velocity": 0.33070866141732286,
                    "duration": 0.5347593000000046
                },
                {
                    "name": "G5",
                    "midi": 79,
                    "time": 92.09743500000013,
                    "velocity": 0.48031496062992124,
                    "duration": 0.5347593000000046
                },
                {
                    "name": "D5",
                    "midi": 74,
                    "time": 92.69161200000013,
                    "velocity": 0.5039370078740157,
                    "duration": 0.5347593000000046
                },
                {
                    "name": "D4",
                    "midi": 62,
                    "time": 93.28578900000014,
                    "velocity": 0.2992125984251969,
                    "duration": 0.5347593000000046
                },
                {
                    "name": "G4",
                    "midi": 67,
                    "time": 93.28578900000014,
                    "velocity": 0.2992125984251969,
                    "duration": 0.5347593000000046
                },
                {
                    "name": "A#4",
                    "midi": 70,
                    "time": 93.28578900000014,
                    "velocity": 0.4330708661417323,
                    "duration": 0.5347593000000046
                },
                {
                    "name": "F#4",
                    "midi": 66,
                    "time": 93.87996600000014,
                    "velocity": 0.33858267716535434,
                    "duration": 0.5347593000000046
                },
                {
                    "name": "C5",
                    "midi": 72,
                    "time": 93.87996600000014,
                    "velocity": 0.33858267716535434,
                    "duration": 0.5347593000000046
                },
                {
                    "name": "D#5",
                    "midi": 75,
                    "time": 93.87996600000014,
                    "velocity": 0.4881889763779528,
                    "duration": 0.5347593000000046
                },
                {
                    "name": "D5",
                    "midi": 74,
                    "time": 94.47414300000014,
                    "velocity": 0.5118110236220472,
                    "duration": 1.188354000000004
                },
                {
                    "name": "G4",
                    "midi": 67,
                    "time": 95.06832000000014,
                    "velocity": 0.33070866141732286,
                    "duration": 0.5347593000000046
                },
                {
                    "name": "A#4",
                    "midi": 70,
                    "time": 95.06832000000014,
                    "velocity": 0.33070866141732286,
                    "duration": 0.5347593000000046
                },
                {
                    "name": "A#4",
                    "midi": 70,
                    "time": 95.66249700000014,
                    "velocity": 0.33070866141732286,
                    "duration": 0.5347593000000046
                },
                {
                    "name": "D5",
                    "midi": 74,
                    "time": 95.66249700000014,
                    "velocity": 0.33070866141732286,
                    "duration": 0.5347593000000046
                },
                {
                    "name": "G5",
                    "midi": 79,
                    "time": 95.66249700000014,
                    "velocity": 0.4645669291338583,
                    "duration": 0.5347593000000046
                },
                {
                    "name": "D5",
                    "midi": 74,
                    "time": 96.25667400000015,
                    "velocity": 0.5118110236220472,
                    "duration": 0.5347593000000046
                },
                {
                    "name": "D4",
                    "midi": 62,
                    "time": 96.85085100000015,
                    "velocity": 0.2992125984251969,
                    "duration": 0.5347593000000046
                },
                {
                    "name": "G4",
                    "midi": 67,
                    "time": 96.85085100000015,
                    "velocity": 0.2992125984251969,
                    "duration": 0.5347593000000046
                },
                {
                    "name": "C5",
                    "midi": 72,
                    "time": 96.85085100000015,
                    "velocity": 0.4330708661417323,
                    "duration": 0.5347593000000046
                },
                {
                    "name": "D4",
                    "midi": 62,
                    "time": 97.44502800000015,
                    "velocity": 0.2992125984251969,
                    "duration": 0.5347593000000046
                },
                {
                    "name": "G4",
                    "midi": 67,
                    "time": 97.44502800000015,
                    "velocity": 0.2992125984251969,
                    "duration": 0.5347593000000046
                },
                {
                    "name": "A#4",
                    "midi": 70,
                    "time": 97.44502800000015,
                    "velocity": 0.4330708661417323,
                    "duration": 0.5347593000000046
                },
                {
                    "name": "A4",
                    "midi": 69,
                    "time": 98.03920500000015,
                    "velocity": 0.48031496062992124,
                    "duration": 1.188354000000004
                },
                {
                    "name": "D#4",
                    "midi": 63,
                    "time": 98.63338200000015,
                    "velocity": 0.33070866141732286,
                    "duration": 0.5347593000000046
                },
                {
                    "name": "G4",
                    "midi": 67,
                    "time": 98.63338200000015,
                    "velocity": 0.33070866141732286,
                    "duration": 0.5347593000000046
                },
                {
                    "name": "D#4",
                    "midi": 63,
                    "time": 99.22755900000016,
                    "velocity": 0.33070866141732286,
                    "duration": 0.5347593000000046
                },
                {
                    "name": "G4",
                    "midi": 67,
                    "time": 99.22755900000016,
                    "velocity": 0.33070866141732286,
                    "duration": 0.5347593000000046
                },
                {
                    "name": "A4",
                    "midi": 69,
                    "time": 99.22755900000016,
                    "velocity": 0.4330708661417323,
                    "duration": 0.5347593000000046
                },
                {
                    "name": "D5",
                    "midi": 74,
                    "time": 99.82173600000016,
                    "velocity": 0.49606299212598426,
                    "duration": 1.188354000000004
                },
                {
                    "name": "D4",
                    "midi": 62,
                    "time": 100.41591300000016,
                    "velocity": 0.33070866141732286,
                    "duration": 0.5347593000000046
                },
                {
                    "name": "F#4",
                    "midi": 66,
                    "time": 100.41591300000016,
                    "velocity": 0.33070866141732286,
                    "duration": 0.5347593000000046
                },
                {
                    "name": "D4",
                    "midi": 62,
                    "time": 101.01009000000016,
                    "velocity": 0.33070866141732286,
                    "duration": 0.5347593000000046
                },
                {
                    "name": "F#4",
                    "midi": 66,
                    "time": 101.01009000000016,
                    "velocity": 0.33070866141732286,
                    "duration": 0.5347593000000046
                },
                {
                    "name": "A4",
                    "midi": 69,
                    "time": 101.01009000000016,
                    "velocity": 0.4330708661417323,
                    "duration": 0.5347593000000046
                },
                {
                    "name": "C5",
                    "midi": 72,
                    "time": 101.60426700000016,
                    "velocity": 0.49606299212598426,
                    "duration": 1.188354000000004
                },
                {
                    "name": "D4",
                    "midi": 62,
                    "time": 102.19844400000017,
                    "velocity": 0.33070866141732286,
                    "duration": 0.5347593000000046
                },
                {
                    "name": "A4",
                    "midi": 69,
                    "time": 102.19844400000017,
                    "velocity": 0.33070866141732286,
                    "duration": 0.5347593000000046
                },
                {
                    "name": "D4",
                    "midi": 62,
                    "time": 102.79262100000017,
                    "velocity": 0.33070866141732286,
                    "duration": 0.5347593000000046
                },
                {
                    "name": "G4",
                    "midi": 67,
                    "time": 102.79262100000017,
                    "velocity": 0.33070866141732286,
                    "duration": 0.5347593000000046
                },
                {
                    "name": "A#4",
                    "midi": 70,
                    "time": 102.79262100000017,
                    "velocity": 0.4330708661417323,
                    "duration": 0.5347593000000046
                },
                {
                    "name": "D5",
                    "midi": 74,
                    "time": 103.38679800000017,
                    "velocity": 0.49606299212598426,
                    "duration": 0.5347593000000046
                },
                {
                    "name": "D4",
                    "midi": 62,
                    "time": 103.98097500000017,
                    "velocity": 0.2992125984251969,
                    "duration": 0.5347593000000046
                },
                {
                    "name": "G4",
                    "midi": 67,
                    "time": 103.98097500000017,
                    "velocity": 0.2992125984251969,
                    "duration": 0.5347593000000046
                },
                {
                    "name": "A#4",
                    "midi": 70,
                    "time": 103.98097500000017,
                    "velocity": 0.4330708661417323,
                    "duration": 0.5347593000000046
                },
                {
                    "name": "F#4",
                    "midi": 66,
                    "time": 104.57515200000017,
                    "velocity": 0.33070866141732286,
                    "duration": 0.5347593000000046
                },
                {
                    "name": "C5",
                    "midi": 72,
                    "time": 104.57515200000017,
                    "velocity": 0.33070866141732286,
                    "duration": 0.5347593000000046
                },
                {
                    "name": "D#5",
                    "midi": 75,
                    "time": 104.57515200000017,
                    "velocity": 0.47244094488188976,
                    "duration": 0.5347593000000046
                },
                {
                    "name": "D5",
                    "midi": 74,
                    "time": 105.16932900000018,
                    "velocity": 0.5039370078740157,
                    "duration": 1.188354000000004
                },
                {
                    "name": "G4",
                    "midi": 67,
                    "time": 105.76350600000018,
                    "velocity": 0.33070866141732286,
                    "duration": 0.5347593000000046
                },
                {
                    "name": "A#4",
                    "midi": 70,
                    "time": 105.76350600000018,
                    "velocity": 0.33070866141732286,
                    "duration": 0.5347593000000046
                },
                {
                    "name": "A#4",
                    "midi": 70,
                    "time": 106.35768300000018,
                    "velocity": 0.33070866141732286,
                    "duration": 0.5347593000000046
                },
                {
                    "name": "D5",
                    "midi": 74,
                    "time": 106.35768300000018,
                    "velocity": 0.33070866141732286,
                    "duration": 0.5347593000000046
                },
                {
                    "name": "G5",
                    "midi": 79,
                    "time": 106.35768300000018,
                    "velocity": 0.4566929133858268,
                    "duration": 0.5347593000000046
                },
                {
                    "name": "D5",
                    "midi": 74,
                    "time": 106.95186000000018,
                    "velocity": 0.5118110236220472,
                    "duration": 0.5347593000000046
                },
                {
                    "name": "D4",
                    "midi": 62,
                    "time": 107.54603700000018,
                    "velocity": 0.31496062992125984,
                    "duration": 0.5347593000000046
                },
                {
                    "name": "G4",
                    "midi": 67,
                    "time": 107.54603700000018,
                    "velocity": 0.31496062992125984,
                    "duration": 0.5347593000000046
                },
                {
                    "name": "A#4",
                    "midi": 70,
                    "time": 107.54603700000018,
                    "velocity": 0.31496062992125984,
                    "duration": 0.5347593000000046
                },
                {
                    "name": "F#4",
                    "midi": 66,
                    "time": 108.14021400000019,
                    "velocity": 0.33858267716535434,
                    "duration": 0.5347593000000046
                },
                {
                    "name": "C5",
                    "midi": 72,
                    "time": 108.14021400000019,
                    "velocity": 0.33858267716535434,
                    "duration": 0.5347593000000046
                },
                {
                    "name": "D#5",
                    "midi": 75,
                    "time": 108.14021400000019,
                    "velocity": 0.4881889763779528,
                    "duration": 0.5347593000000046
                },
                {
                    "name": "D5",
                    "midi": 74,
                    "time": 108.73439100000019,
                    "velocity": 0.5118110236220472,
                    "duration": 1.1289363000000066
                },
                {
                    "name": "G4",
                    "midi": 67,
                    "time": 109.32856800000019,
                    "velocity": 0.31496062992125984,
                    "duration": 0.5347593000000046
                },
                {
                    "name": "B4",
                    "midi": 71,
                    "time": 109.32856800000019,
                    "velocity": 0.31496062992125984,
                    "duration": 0.5347593000000046
                },
                {
                    "name": "B4",
                    "midi": 71,
                    "time": 109.92274500000019,
                    "velocity": 0.44881889763779526,
                    "duration": 0.594177000000002
                },
                {
                    "name": "D5",
                    "midi": 74,
                    "time": 109.92274500000019,
                    "velocity": 0.44881889763779526,
                    "duration": 0.594177000000002
                },
                {
                    "name": "F5",
                    "midi": 77,
                    "time": 109.92274500000019,
                    "velocity": 0.44881889763779526,
                    "duration": 0.594177000000002
                },
                {
                    "name": "G5",
                    "midi": 79,
                    "time": 109.92274500000019,
                    "velocity": 0.6456692913385826,
                    "duration": 1.188354000000004
                },
                {
                    "name": "C5",
                    "midi": 72,
                    "time": 110.51692200000019,
                    "velocity": 0.44881889763779526,
                    "duration": 0.594177000000002
                },
                {
                    "name": "D#5",
                    "midi": 75,
                    "time": 110.51692200000019,
                    "velocity": 0.44881889763779526,
                    "duration": 0.594177000000002
                },
                {
                    "name": "G5",
                    "midi": 79,
                    "time": 111.1110990000002,
                    "velocity": 0.5669291338582677,
                    "duration": 0.5347593000000046
                },
                {
                    "name": "D#5",
                    "midi": 75,
                    "time": 111.7052760000002,
                    "velocity": 0.5590551181102362,
                    "duration": 0.5347593000000046
                },
                {
                    "name": "D5",
                    "midi": 74,
                    "time": 112.2994530000002,
                    "velocity": 0.5433070866141733,
                    "duration": 0.5347593000000046
                },
                {
                    "name": "D#5",
                    "midi": 75,
                    "time": 112.8936300000002,
                    "velocity": 0.5196850393700787,
                    "duration": 0.5347593000000046
                },
                {
                    "name": "C5",
                    "midi": 72,
                    "time": 113.4878070000002,
                    "velocity": 0.4645669291338583,
                    "duration": 0.5347593000000046
                },
                {
                    "name": "A#4",
                    "midi": 70,
                    "time": 114.0819840000002,
                    "velocity": 0.5039370078740157,
                    "duration": 0.5347593000000046
                },
                {
                    "name": "G4",
                    "midi": 67,
                    "time": 114.6761610000002,
                    "velocity": 0.3543307086614173,
                    "duration": 0.5347593000000046
                },
                {
                    "name": "C5",
                    "midi": 72,
                    "time": 114.6761610000002,
                    "velocity": 0.4251968503937008,
                    "duration": 0.5347593000000046
                },
                {
                    "name": "D#4",
                    "midi": 63,
                    "time": 115.27033800000021,
                    "velocity": 0.3700787401574803,
                    "duration": 0.5347593000000046
                },
                {
                    "name": "A4",
                    "midi": 69,
                    "time": 115.27033800000021,
                    "velocity": 0.4409448818897638,
                    "duration": 0.5347593000000046
                },
                {
                    "name": "G4",
                    "midi": 67,
                    "time": 115.86451500000021,
                    "velocity": 0.4251968503937008,
                    "duration": 0.5347593000000046
                },
                {
                    "name": "A4",
                    "midi": 69,
                    "time": 116.45869200000021,
                    "velocity": 0.3858267716535433,
                    "duration": 0.5347593000000046
                },
                {
                    "name": "C4",
                    "midi": 60,
                    "time": 117.05286900000021,
                    "velocity": 0.3228346456692913,
                    "duration": 0.5347593000000046
                },
                {
                    "name": "D4",
                    "midi": 62,
                    "time": 117.05286900000021,
                    "velocity": 0.3228346456692913,
                    "duration": 0.5347593000000046
                },
                {
                    "name": "F#4",
                    "midi": 66,
                    "time": 117.05286900000021,
                    "velocity": 0.3858267716535433,
                    "duration": 0.5347593000000046
                },
                {
                    "name": "A#3",
                    "midi": 58,
                    "time": 117.64704600000022,
                    "velocity": 0.3858267716535433,
                    "duration": 0.594177000000002
                },
                {
                    "name": "D4",
                    "midi": 62,
                    "time": 117.64704600000022,
                    "velocity": 0.3858267716535433,
                    "duration": 0.594177000000002
                },
                {
                    "name": "G4",
                    "midi": 67,
                    "time": 117.64704600000022,
                    "velocity": 0.4566929133858268,
                    "duration": 0.594177000000002
                },
                {
                    "name": "D5",
                    "midi": 74,
                    "time": 120.61793100000021,
                    "velocity": 0.41732283464566927,
                    "duration": 0.594177000000002
                },
                {
                    "name": "A#4",
                    "midi": 70,
                    "time": 120.61793100000021,
                    "velocity": 0.3543307086614173,
                    "duration": 0.594177000000002
                },
                {
                    "name": "C5",
                    "midi": 72,
                    "time": 121.21210800000021,
                    "velocity": 0.48031496062992124,
                    "duration": 1.188354000000004
                },
                {
                    "name": "A4",
                    "midi": 69,
                    "time": 121.21210800000021,
                    "velocity": 0.4015748031496063,
                    "duration": 1.188354000000004
                },
                {
                    "name": "G4",
                    "midi": 67,
                    "time": 122.40046200000022,
                    "velocity": 0.33070866141732286,
                    "duration": 0.594177000000002
                },
                {
                    "name": "A#4",
                    "midi": 70,
                    "time": 122.40046200000022,
                    "velocity": 0.3937007874015748,
                    "duration": 0.594177000000002
                },
                {
                    "name": "A4",
                    "midi": 69,
                    "time": 122.99463900000022,
                    "velocity": 0.4330708661417323,
                    "duration": 1.188354000000004
                },
                {
                    "name": "F#4",
                    "midi": 66,
                    "time": 122.99463900000022,
                    "velocity": 0.36220472440944884,
                    "duration": 1.188354000000004
                },
                {
                    "name": "C5",
                    "midi": 72,
                    "time": 124.18299300000022,
                    "velocity": 0.41732283464566927,
                    "duration": 0.594177000000002
                },
                {
                    "name": "D#4",
                    "midi": 63,
                    "time": 124.18299300000022,
                    "velocity": 0.3543307086614173,
                    "duration": 0.594177000000002
                },
                {
                    "name": "A#4",
                    "midi": 70,
                    "time": 124.77717000000023,
                    "velocity": 0.48031496062992124,
                    "duration": 1.188354000000004
                },
                {
                    "name": "D4",
                    "midi": 62,
                    "time": 124.77717000000023,
                    "velocity": 0.4015748031496063,
                    "duration": 1.188354000000004
                },
                {
                    "name": "D5",
                    "midi": 74,
                    "time": 125.96552400000023,
                    "velocity": 0.33070866141732286,
                    "duration": 0.5347593000000046
                },
                {
                    "name": "D6",
                    "midi": 86,
                    "time": 125.96552400000023,
                    "velocity": 0.3937007874015748,
                    "duration": 0.5347593000000046
                },
                {
                    "name": "D6",
                    "midi": 86,
                    "time": 126.55970100000023,
                    "velocity": 0.4330708661417323,
                    "duration": 1.188354000000004
                },
                {
                    "name": "D5",
                    "midi": 74,
                    "time": 126.55970100000023,
                    "velocity": 0.36220472440944884,
                    "duration": 1.188354000000004
                },
                {
                    "name": "A#4",
                    "midi": 70,
                    "time": 127.74805500000024,
                    "velocity": 0.3700787401574803,
                    "duration": 0.5941769999999877
                },
                {
                    "name": "D4",
                    "midi": 62,
                    "time": 127.74805500000024,
                    "velocity": 0.31496062992125984,
                    "duration": 0.5941769999999877
                },
                {
                    "name": "A4",
                    "midi": 69,
                    "time": 128.34223200000022,
                    "velocity": 0.41732283464566927,
                    "duration": 1.188354000000004
                },
                {
                    "name": "C4",
                    "midi": 60,
                    "time": 128.34223200000022,
                    "velocity": 0.3464566929133858,
                    "duration": 1.188354000000004
                },
                {
                    "name": "A#3",
                    "midi": 58,
                    "time": 129.53058600000023,
                    "velocity": 0.2755905511811024,
                    "duration": 0.594177000000002
                },
                {
                    "name": "G4",
                    "midi": 67,
                    "time": 129.53058600000023,
                    "velocity": 0.33070866141732286,
                    "duration": 0.594177000000002
                },
                {
                    "name": "F#4",
                    "midi": 66,
                    "time": 130.12476300000023,
                    "velocity": 0.3543307086614173,
                    "duration": 1.188354000000004
                },
                {
                    "name": "A3",
                    "midi": 57,
                    "time": 130.12476300000023,
                    "velocity": 0.29133858267716534,
                    "duration": 1.188354000000004
                },
                {
                    "name": "A4",
                    "midi": 69,
                    "time": 131.31311700000023,
                    "velocity": 0.3228346456692913,
                    "duration": 0.594177000000002
                },
                {
                    "name": "F#4",
                    "midi": 66,
                    "time": 131.31311700000023,
                    "velocity": 0.2755905511811024,
                    "duration": 0.594177000000002
                },
                {
                    "name": "G4",
                    "midi": 67,
                    "time": 131.90729400000023,
                    "velocity": 0.33070866141732286,
                    "duration": 1.188354000000004
                },
                {
                    "name": "D4",
                    "midi": 62,
                    "time": 131.90729400000023,
                    "velocity": 0.2755905511811024,
                    "duration": 1.188354000000004
                },
                {
                    "name": "D5",
                    "midi": 74,
                    "time": 133.09564800000024,
                    "velocity": 0.2283464566929134,
                    "duration": 0.5347592999999904
                },
                {
                    "name": "D6",
                    "midi": 86,
                    "time": 133.09564800000024,
                    "velocity": 0.2755905511811024,
                    "duration": 0.5347592999999904
                },
                {
                    "name": "D6",
                    "midi": 86,
                    "time": 133.68982500000024,
                    "velocity": 0.2992125984251969,
                    "duration": 1.188354000000004
                },
                {
                    "name": "D5",
                    "midi": 74,
                    "time": 133.68982500000024,
                    "velocity": 0.25196850393700787,
                    "duration": 1.188354000000004
                },
                {
                    "name": "A#4",
                    "midi": 70,
                    "time": 134.87817900000024,
                    "velocity": 0.29133858267716534,
                    "duration": 0.594177000000002
                },
                {
                    "name": "D4",
                    "midi": 62,
                    "time": 134.87817900000024,
                    "velocity": 0.2440944881889764,
                    "duration": 0.594177000000002
                },
                {
                    "name": "G4",
                    "midi": 67,
                    "time": 135.47235600000025,
                    "velocity": 0.33070866141732286,
                    "duration": 1.188354000000004
                },
                {
                    "name": "D5",
                    "midi": 74,
                    "time": 136.66071000000025,
                    "velocity": 0.2283464566929134,
                    "duration": 0.5347592999999904
                },
                {
                    "name": "D6",
                    "midi": 86,
                    "time": 136.66071000000025,
                    "velocity": 0.2755905511811024,
                    "duration": 0.5347592999999904
                },
                {
                    "name": "D6",
                    "midi": 86,
                    "time": 137.25488700000025,
                    "velocity": 0.2992125984251969,
                    "duration": 1.188354000000004
                },
                {
                    "name": "D5",
                    "midi": 74,
                    "time": 137.25488700000025,
                    "velocity": 0.25196850393700787,
                    "duration": 1.188354000000004
                },
                {
                    "name": "F4",
                    "midi": 65,
                    "time": 140.81994900000026,
                    "velocity": 0.29133858267716534,
                    "duration": 3.5650620000000117
                },
                {
                    "name": "D#4",
                    "midi": 63,
                    "time": 144.38501100000028,
                    "velocity": 0.29133858267716534,
                    "duration": 1.7825310000000059
                },
                {
                    "name": "D4",
                    "midi": 62,
                    "time": 146.16754200000028,
                    "velocity": 0.29133858267716534,
                    "duration": 2.9708850000000098
                },
                {
                    "name": "D4",
                    "midi": 62,
                    "time": 155.08019700000028,
                    "velocity": 0.29133858267716534,
                    "duration": 2.376708000000008
                },
                {
                    "name": "D4",
                    "midi": 62,
                    "time": 158.6452590000003,
                    "velocity": 0.29133858267716534,
                    "duration": 2.376708000000008
                }
            ],
            "controlChanges": {},
            "id": 1,
            "name": "Piano right",
            "instrumentNumber": 0,
            "instrument": "acoustic grand piano",
            "instrumentFamily": "piano",
            "channelNumber": 0,
            "isPercussion": false
        },
        {
            "startTime": 0,
            "duration": 163.99285200000014,
            "length": 308,
            "notes": [
                {
                    "name": "G2",
                    "midi": 43,
                    "time": 0,
                    "velocity": 0.28346456692913385,
                    "duration": 1.188354
                },
                {
                    "name": "A#3",
                    "midi": 58,
                    "time": 0.594177,
                    "velocity": 0.2204724409448819,
                    "duration": 0.594177
                },
                {
                    "name": "G3",
                    "midi": 55,
                    "time": 0.594177,
                    "velocity": 0.1889763779527559,
                    "duration": 0.594177
                },
                {
                    "name": "D3",
                    "midi": 50,
                    "time": 1.188354,
                    "velocity": 0.2204724409448819,
                    "duration": 0.594177
                },
                {
                    "name": "G2",
                    "midi": 43,
                    "time": 1.7825309999999999,
                    "velocity": 0.28346456692913385,
                    "duration": 1.1883540000000001
                },
                {
                    "name": "A#3",
                    "midi": 58,
                    "time": 2.376708,
                    "velocity": 0.23622047244094488,
                    "duration": 0.5941770000000002
                },
                {
                    "name": "G3",
                    "midi": 55,
                    "time": 2.376708,
                    "velocity": 0.1968503937007874,
                    "duration": 0.5941770000000002
                },
                {
                    "name": "D3",
                    "midi": 50,
                    "time": 2.970885,
                    "velocity": 0.23622047244094488,
                    "duration": 0.5941770000000002
                },
                {
                    "name": "G2",
                    "midi": 43,
                    "time": 3.565062,
                    "velocity": 0.28346456692913385,
                    "duration": 1.1883540000000004
                },
                {
                    "name": "A#3",
                    "midi": 58,
                    "time": 4.159239,
                    "velocity": 0.2204724409448819,
                    "duration": 0.5941770000000002
                },
                {
                    "name": "G3",
                    "midi": 55,
                    "time": 4.159239,
                    "velocity": 0.1889763779527559,
                    "duration": 0.5941770000000002
                },
                {
                    "name": "D3",
                    "midi": 50,
                    "time": 4.7534160000000005,
                    "velocity": 0.2204724409448819,
                    "duration": 0.5941770000000002
                },
                {
                    "name": "G2",
                    "midi": 43,
                    "time": 5.347593000000001,
                    "velocity": 0.28346456692913385,
                    "duration": 1.1883540000000004
                },
                {
                    "name": "A3",
                    "midi": 57,
                    "time": 5.941770000000001,
                    "velocity": 0.1968503937007874,
                    "duration": 0.5941770000000002
                },
                {
                    "name": "C4",
                    "midi": 60,
                    "time": 5.941770000000001,
                    "velocity": 0.23622047244094488,
                    "duration": 0.5941770000000002
                },
                {
                    "name": "G3",
                    "midi": 55,
                    "time": 5.941770000000001,
                    "velocity": 0.1968503937007874,
                    "duration": 0.5941770000000002
                },
                {
                    "name": "D#3",
                    "midi": 51,
                    "time": 6.535947000000001,
                    "velocity": 0.23622047244094488,
                    "duration": 0.5941770000000002
                },
                {
                    "name": "G1",
                    "midi": 31,
                    "time": 7.130124000000001,
                    "velocity": 0.23622047244094488,
                    "duration": 1.1883539999999995
                },
                {
                    "name": "G2",
                    "midi": 43,
                    "time": 7.130124000000001,
                    "velocity": 0.28346456692913385,
                    "duration": 1.1883539999999995
                },
                {
                    "name": "G3",
                    "midi": 55,
                    "time": 7.724301000000001,
                    "velocity": 0.2047244094488189,
                    "duration": 0.5941769999999993
                },
                {
                    "name": "A#3",
                    "midi": 58,
                    "time": 7.724301000000001,
                    "velocity": 0.2440944881889764,
                    "duration": 0.5941769999999993
                },
                {
                    "name": "D3",
                    "midi": 50,
                    "time": 8.318478,
                    "velocity": 0.28346456692913385,
                    "duration": 0.5941770000000002
                },
                {
                    "name": "F2",
                    "midi": 41,
                    "time": 8.912655,
                    "velocity": 0.3464566929133858,
                    "duration": 1.1883540000000004
                },
                {
                    "name": "F1",
                    "midi": 29,
                    "time": 8.912655,
                    "velocity": 0.28346456692913385,
                    "duration": 1.1883540000000004
                },
                {
                    "name": "A3",
                    "midi": 57,
                    "time": 9.506832000000001,
                    "velocity": 0.2283464566929134,
                    "duration": 0.5941770000000002
                },
                {
                    "name": "C4",
                    "midi": 60,
                    "time": 9.506832000000001,
                    "velocity": 0.2755905511811024,
                    "duration": 0.5941770000000002
                },
                {
                    "name": "F3",
                    "midi": 53,
                    "time": 10.101009000000001,
                    "velocity": 0.23622047244094488,
                    "duration": 0.5941770000000002
                },
                {
                    "name": "G1",
                    "midi": 31,
                    "time": 10.695186000000001,
                    "velocity": 0.23622047244094488,
                    "duration": 1.1883540000000004
                },
                {
                    "name": "G2",
                    "midi": 43,
                    "time": 10.695186000000001,
                    "velocity": 0.28346456692913385,
                    "duration": 1.1883540000000004
                },
                {
                    "name": "D4",
                    "midi": 62,
                    "time": 11.289363000000002,
                    "velocity": 0.2204724409448819,
                    "duration": 0.5941770000000002
                },
                {
                    "name": "A#3",
                    "midi": 58,
                    "time": 11.289363000000002,
                    "velocity": 0.1889763779527559,
                    "duration": 0.5941770000000002
                },
                {
                    "name": "F3",
                    "midi": 53,
                    "time": 11.883540000000002,
                    "velocity": 0.2204724409448819,
                    "duration": 0.5941770000000002
                },
                {
                    "name": "C2",
                    "midi": 36,
                    "time": 12.477717000000002,
                    "velocity": 0.23622047244094488,
                    "duration": 1.1883540000000004
                },
                {
                    "name": "C3",
                    "midi": 48,
                    "time": 12.477717000000002,
                    "velocity": 0.28346456692913385,
                    "duration": 1.1883540000000004
                },
                {
                    "name": "C4",
                    "midi": 60,
                    "time": 13.071894000000002,
                    "velocity": 0.23622047244094488,
                    "duration": 0.5941770000000002
                },
                {
                    "name": "G3",
                    "midi": 55,
                    "time": 13.071894000000002,
                    "velocity": 0.1968503937007874,
                    "duration": 0.5941770000000002
                },
                {
                    "name": "D#3",
                    "midi": 51,
                    "time": 13.666071000000002,
                    "velocity": 0.23622047244094488,
                    "duration": 0.5941770000000002
                },
                {
                    "name": "D2",
                    "midi": 38,
                    "time": 14.260248000000002,
                    "velocity": 0.28346456692913385,
                    "duration": 1.1883540000000004
                },
                {
                    "name": "A#3",
                    "midi": 58,
                    "time": 14.854425000000003,
                    "velocity": 0.2204724409448819,
                    "duration": 0.5941770000000002
                },
                {
                    "name": "G3",
                    "midi": 55,
                    "time": 14.854425000000003,
                    "velocity": 0.1889763779527559,
                    "duration": 0.5941770000000002
                },
                {
                    "name": "D3",
                    "midi": 50,
                    "time": 15.448602000000003,
                    "velocity": 0.2204724409448819,
                    "duration": 0.5941770000000002
                },
                {
                    "name": "D2",
                    "midi": 38,
                    "time": 16.042779000000003,
                    "velocity": 0.28346456692913385,
                    "duration": 1.1883539999999968
                },
                {
                    "name": "A#3",
                    "midi": 58,
                    "time": 16.636956,
                    "velocity": 0.23622047244094488,
                    "duration": 0.5941769999999984
                },
                {
                    "name": "G3",
                    "midi": 55,
                    "time": 16.636956,
                    "velocity": 0.23622047244094488,
                    "duration": 0.5941769999999984
                },
                {
                    "name": "D3",
                    "midi": 50,
                    "time": 17.231133,
                    "velocity": 0.23622047244094488,
                    "duration": 0.5941769999999984
                },
                {
                    "name": "D2",
                    "midi": 38,
                    "time": 17.825309999999998,
                    "velocity": 0.28346456692913385,
                    "duration": 1.1883539999999968
                },
                {
                    "name": "C4",
                    "midi": 60,
                    "time": 18.419486999999997,
                    "velocity": 0.2204724409448819,
                    "duration": 0.5941769999999984
                },
                {
                    "name": "A3",
                    "midi": 57,
                    "time": 18.419486999999997,
                    "velocity": 0.1889763779527559,
                    "duration": 0.5941769999999984
                },
                {
                    "name": "D3",
                    "midi": 50,
                    "time": 19.013663999999995,
                    "velocity": 0.2204724409448819,
                    "duration": 0.5941769999999984
                },
                {
                    "name": "D2",
                    "midi": 38,
                    "time": 19.607840999999993,
                    "velocity": 0.28346456692913385,
                    "duration": 1.1883539999999968
                },
                {
                    "name": "A3",
                    "midi": 57,
                    "time": 20.202017999999992,
                    "velocity": 0.23622047244094488,
                    "duration": 0.5941769999999984
                },
                {
                    "name": "F#3",
                    "midi": 54,
                    "time": 20.202017999999992,
                    "velocity": 0.1968503937007874,
                    "duration": 0.5941769999999984
                },
                {
                    "name": "D3",
                    "midi": 50,
                    "time": 20.79619499999999,
                    "velocity": 0.23622047244094488,
                    "duration": 0.5941769999999984
                },
                {
                    "name": "G2",
                    "midi": 43,
                    "time": 21.39037199999999,
                    "velocity": 0.28346456692913385,
                    "duration": 0.44563275000000147
                },
                {
                    "name": "A#3",
                    "midi": 58,
                    "time": 21.98454899999999,
                    "velocity": 0.2204724409448819,
                    "duration": 0.5941769999999984
                },
                {
                    "name": "G3",
                    "midi": 55,
                    "time": 21.98454899999999,
                    "velocity": 0.1889763779527559,
                    "duration": 0.5941769999999984
                },
                {
                    "name": "D3",
                    "midi": 50,
                    "time": 22.57872599999999,
                    "velocity": 0.2204724409448819,
                    "duration": 0.5941769999999984
                },
                {
                    "name": "G2",
                    "midi": 43,
                    "time": 23.172902999999987,
                    "velocity": 0.28346456692913385,
                    "duration": 0.44563275000000147
                },
                {
                    "name": "A#3",
                    "midi": 58,
                    "time": 23.76707999999999,
                    "velocity": 0.23622047244094488,
                    "duration": 0.5941769999999984
                },
                {
                    "name": "G3",
                    "midi": 55,
                    "time": 23.76707999999999,
                    "velocity": 0.1968503937007874,
                    "duration": 0.5941769999999984
                },
                {
                    "name": "D3",
                    "midi": 50,
                    "time": 24.361256999999988,
                    "velocity": 0.23622047244094488,
                    "duration": 0.5941769999999984
                },
                {
                    "name": "G2",
                    "midi": 43,
                    "time": 24.955433999999986,
                    "velocity": 0.28346456692913385,
                    "duration": 0.44563275000000147
                },
                {
                    "name": "C4",
                    "midi": 60,
                    "time": 25.549610999999988,
                    "velocity": 0.2204724409448819,
                    "duration": 0.5941769999999984
                },
                {
                    "name": "A3",
                    "midi": 57,
                    "time": 25.549610999999988,
                    "velocity": 0.1889763779527559,
                    "duration": 0.5941769999999984
                },
                {
                    "name": "D3",
                    "midi": 50,
                    "time": 26.143787999999986,
                    "velocity": 0.2204724409448819,
                    "duration": 0.5941769999999984
                },
                {
                    "name": "G2",
                    "midi": 43,
                    "time": 26.737964999999985,
                    "velocity": 0.28346456692913385,
                    "duration": 0.44563275000000147
                },
                {
                    "name": "C4",
                    "midi": 60,
                    "time": 27.332141999999987,
                    "velocity": 0.23622047244094488,
                    "duration": 0.5941769999999984
                },
                {
                    "name": "A3",
                    "midi": 57,
                    "time": 27.332141999999987,
                    "velocity": 0.1968503937007874,
                    "duration": 0.5941769999999984
                },
                {
                    "name": "D3",
                    "midi": 50,
                    "time": 27.926318999999985,
                    "velocity": 0.23622047244094488,
                    "duration": 0.5941769999999984
                },
                {
                    "name": "G2",
                    "midi": 43,
                    "time": 28.520495999999984,
                    "velocity": 0.28346456692913385,
                    "duration": 0.44563275000000147
                },
                {
                    "name": "A#3",
                    "midi": 58,
                    "time": 29.114672999999986,
                    "velocity": 0.2204724409448819,
                    "duration": 0.5941769999999984
                },
                {
                    "name": "G3",
                    "midi": 55,
                    "time": 29.114672999999986,
                    "velocity": 0.1889763779527559,
                    "duration": 0.5941769999999984
                },
                {
                    "name": "D3",
                    "midi": 50,
                    "time": 29.708849999999984,
                    "velocity": 0.2204724409448819,
                    "duration": 0.5941769999999984
                },
                {
                    "name": "G2",
                    "midi": 43,
                    "time": 30.303026999999982,
                    "velocity": 0.28346456692913385,
                    "duration": 0.44563275000000147
                },
                {
                    "name": "G3",
                    "midi": 55,
                    "time": 30.897203999999984,
                    "velocity": 0.23622047244094488,
                    "duration": 0.5941769999999984
                },
                {
                    "name": "D3",
                    "midi": 50,
                    "time": 31.491380999999983,
                    "velocity": 0.23622047244094488,
                    "duration": 0.594177000000002
                },
                {
                    "name": "G2",
                    "midi": 43,
                    "time": 32.085557999999985,
                    "velocity": 0.28346456692913385,
                    "duration": 0.44563275000000147
                },
                {
                    "name": "G3",
                    "midi": 55,
                    "time": 32.67973499999999,
                    "velocity": 0.2204724409448819,
                    "duration": 0.594177000000002
                },
                {
                    "name": "D#3",
                    "midi": 51,
                    "time": 33.27391199999999,
                    "velocity": 0.2204724409448819,
                    "duration": 0.594177000000002
                },
                {
                    "name": "G2",
                    "midi": 43,
                    "time": 33.86808899999999,
                    "velocity": 0.28346456692913385,
                    "duration": 0.44563275000000147
                },
                {
                    "name": "C4",
                    "midi": 60,
                    "time": 34.46226599999999,
                    "velocity": 0.23622047244094488,
                    "duration": 0.594177000000002
                },
                {
                    "name": "G3",
                    "midi": 55,
                    "time": 34.46226599999999,
                    "velocity": 0.1968503937007874,
                    "duration": 0.594177000000002
                },
                {
                    "name": "D#3",
                    "midi": 51,
                    "time": 35.056442999999994,
                    "velocity": 0.23622047244094488,
                    "duration": 0.594177000000002
                },
                {
                    "name": "G2",
                    "midi": 43,
                    "time": 35.650619999999996,
                    "velocity": 0.28346456692913385,
                    "duration": 0.44563275000000147
                },
                {
                    "name": "A#3",
                    "midi": 58,
                    "time": 36.244797,
                    "velocity": 0.2204724409448819,
                    "duration": 0.594177000000002
                },
                {
                    "name": "G3",
                    "midi": 55,
                    "time": 36.244797,
                    "velocity": 0.1889763779527559,
                    "duration": 0.594177000000002
                },
                {
                    "name": "D3",
                    "midi": 50,
                    "time": 36.838974,
                    "velocity": 0.2204724409448819,
                    "duration": 0.594177000000002
                },
                {
                    "name": "G2",
                    "midi": 43,
                    "time": 37.433151,
                    "velocity": 0.28346456692913385,
                    "duration": 0.44563275000000147
                },
                {
                    "name": "A#3",
                    "midi": 58,
                    "time": 38.027328000000004,
                    "velocity": 0.23622047244094488,
                    "duration": 0.594177000000002
                },
                {
                    "name": "G3",
                    "midi": 55,
                    "time": 38.027328000000004,
                    "velocity": 0.1968503937007874,
                    "duration": 0.594177000000002
                },
                {
                    "name": "D3",
                    "midi": 50,
                    "time": 38.621505000000006,
                    "velocity": 0.23622047244094488,
                    "duration": 0.594177000000002
                },
                {
                    "name": "G2",
                    "midi": 43,
                    "time": 39.21568200000001,
                    "velocity": 0.28346456692913385,
                    "duration": 0.44563275000000147
                },
                {
                    "name": "C4",
                    "midi": 60,
                    "time": 39.80985900000001,
                    "velocity": 0.2204724409448819,
                    "duration": 0.594177000000002
                },
                {
                    "name": "A3",
                    "midi": 57,
                    "time": 39.80985900000001,
                    "velocity": 0.1889763779527559,
                    "duration": 0.594177000000002
                },
                {
                    "name": "D3",
                    "midi": 50,
                    "time": 40.40403600000001,
                    "velocity": 0.2204724409448819,
                    "duration": 0.594177000000002
                },
                {
                    "name": "G2",
                    "midi": 43,
                    "time": 40.998213000000014,
                    "velocity": 0.28346456692913385,
                    "duration": 0.44563275000000147
                },
                {
                    "name": "C4",
                    "midi": 60,
                    "time": 41.592390000000016,
                    "velocity": 0.23622047244094488,
                    "duration": 0.594177000000002
                },
                {
                    "name": "A3",
                    "midi": 57,
                    "time": 41.592390000000016,
                    "velocity": 0.1968503937007874,
                    "duration": 0.594177000000002
                },
                {
                    "name": "D3",
                    "midi": 50,
                    "time": 42.18656700000002,
                    "velocity": 0.23622047244094488,
                    "duration": 0.594177000000002
                },
                {
                    "name": "G2",
                    "midi": 43,
                    "time": 42.78074400000002,
                    "velocity": 0.28346456692913385,
                    "duration": 0.44563275000000147
                },
                {
                    "name": "A#3",
                    "midi": 58,
                    "time": 43.37492100000002,
                    "velocity": 0.2204724409448819,
                    "duration": 0.594177000000002
                },
                {
                    "name": "G3",
                    "midi": 55,
                    "time": 43.37492100000002,
                    "velocity": 0.1889763779527559,
                    "duration": 0.594177000000002
                },
                {
                    "name": "D3",
                    "midi": 50,
                    "time": 43.969098000000024,
                    "velocity": 0.2204724409448819,
                    "duration": 0.594177000000002
                },
                {
                    "name": "G2",
                    "midi": 43,
                    "time": 44.563275000000026,
                    "velocity": 0.28346456692913385,
                    "duration": 0.44563275000000147
                },
                {
                    "name": "G3",
                    "midi": 55,
                    "time": 45.15745200000003,
                    "velocity": 0.25984251968503935,
                    "duration": 0.594177000000002
                },
                {
                    "name": "D3",
                    "midi": 50,
                    "time": 45.75162900000003,
                    "velocity": 0.2755905511811024,
                    "duration": 0.594177000000002
                },
                {
                    "name": "G2",
                    "midi": 43,
                    "time": 46.34580600000003,
                    "velocity": 0.3937007874015748,
                    "duration": 0.44563275000000147
                },
                {
                    "name": "D4",
                    "midi": 62,
                    "time": 46.93998300000003,
                    "velocity": 0.31496062992125984,
                    "duration": 0.594177000000002
                },
                {
                    "name": "A#3",
                    "midi": 58,
                    "time": 46.93998300000003,
                    "velocity": 0.31496062992125984,
                    "duration": 0.594177000000002
                },
                {
                    "name": "G3",
                    "midi": 55,
                    "time": 47.534160000000035,
                    "velocity": 0.3700787401574803,
                    "duration": 0.594177000000002
                },
                {
                    "name": "G2",
                    "midi": 43,
                    "time": 48.12833700000004,
                    "velocity": 0.3858267716535433,
                    "duration": 0.44563275000000147
                },
                {
                    "name": "C#4",
                    "midi": 61,
                    "time": 48.72251400000004,
                    "velocity": 0.3543307086614173,
                    "duration": 0.594177000000002
                },
                {
                    "name": "A#3",
                    "midi": 58,
                    "time": 48.72251400000004,
                    "velocity": 0.3543307086614173,
                    "duration": 0.594177000000002
                },
                {
                    "name": "G3",
                    "midi": 55,
                    "time": 49.31669100000004,
                    "velocity": 0.3700787401574803,
                    "duration": 0.594177000000002
                },
                {
                    "name": "F2",
                    "midi": 41,
                    "time": 49.91086800000004,
                    "velocity": 0.4330708661417323,
                    "duration": 0.44563275000000147
                },
                {
                    "name": "A3",
                    "midi": 57,
                    "time": 50.505045000000045,
                    "velocity": 0.2677165354330709,
                    "duration": 0.594177000000002
                },
                {
                    "name": "D4",
                    "midi": 62,
                    "time": 50.505045000000045,
                    "velocity": 0.3228346456692913,
                    "duration": 0.594177000000002
                },
                {
                    "name": "F3",
                    "midi": 53,
                    "time": 51.09922200000005,
                    "velocity": 0.2677165354330709,
                    "duration": 0.594177000000002
                },
                {
                    "name": "F2",
                    "midi": 41,
                    "time": 51.69339900000005,
                    "velocity": 0.31496062992125984,
                    "duration": 0.44563275000000147
                },
                {
                    "name": "A3",
                    "midi": 57,
                    "time": 52.28757600000005,
                    "velocity": 0.25984251968503935,
                    "duration": 0.594177000000002
                },
                {
                    "name": "D4",
                    "midi": 62,
                    "time": 52.28757600000005,
                    "velocity": 0.30708661417322836,
                    "duration": 0.594177000000002
                },
                {
                    "name": "F3",
                    "midi": 53,
                    "time": 52.88175300000005,
                    "velocity": 0.2677165354330709,
                    "duration": 0.594177000000002
                },
                {
                    "name": "G2",
                    "midi": 43,
                    "time": 53.475930000000055,
                    "velocity": 0.3543307086614173,
                    "duration": 0.44563275000000147
                },
                {
                    "name": "A#3",
                    "midi": 58,
                    "time": 54.07010700000006,
                    "velocity": 0.2047244094488189,
                    "duration": 0.594177000000002
                },
                {
                    "name": "D4",
                    "midi": 62,
                    "time": 54.07010700000006,
                    "velocity": 0.2440944881889764,
                    "duration": 0.594177000000002
                },
                {
                    "name": "G3",
                    "midi": 55,
                    "time": 54.66428400000006,
                    "velocity": 0.2677165354330709,
                    "duration": 0.594177000000002
                },
                {
                    "name": "G2",
                    "midi": 43,
                    "time": 55.25846100000006,
                    "velocity": 0.29133858267716534,
                    "duration": 0.44563275000000147
                },
                {
                    "name": "C#4",
                    "midi": 61,
                    "time": 55.85263800000006,
                    "velocity": 0.2677165354330709,
                    "duration": 0.594177000000002
                },
                {
                    "name": "A3",
                    "midi": 57,
                    "time": 56.446815000000065,
                    "velocity": 0.2677165354330709,
                    "duration": 0.594177000000002
                },
                {
                    "name": "F3",
                    "midi": 53,
                    "time": 57.04099200000007,
                    "velocity": 0.3228346456692913,
                    "duration": 0.44563275000000147
                },
                {
                    "name": "D4",
                    "midi": 62,
                    "time": 57.63516900000007,
                    "velocity": 0.2755905511811024,
                    "duration": 0.594177000000002
                },
                {
                    "name": "A3",
                    "midi": 57,
                    "time": 57.63516900000007,
                    "velocity": 0.2283464566929134,
                    "duration": 0.594177000000002
                },
                {
                    "name": "F3",
                    "midi": 53,
                    "time": 58.22934600000007,
                    "velocity": 0.23622047244094488,
                    "duration": 0.594177000000002
                },
                {
                    "name": "F3",
                    "midi": 53,
                    "time": 58.82352300000007,
                    "velocity": 0.3228346456692913,
                    "duration": 0.44563275000000147
                },
                {
                    "name": "D4",
                    "midi": 62,
                    "time": 59.417700000000075,
                    "velocity": 0.2755905511811024,
                    "duration": 0.594177000000002
                },
                {
                    "name": "A3",
                    "midi": 57,
                    "time": 59.417700000000075,
                    "velocity": 0.2283464566929134,
                    "duration": 0.594177000000002
                },
                {
                    "name": "F3",
                    "midi": 53,
                    "time": 60.01187700000008,
                    "velocity": 0.23622047244094488,
                    "duration": 0.594177000000002
                },
                {
                    "name": "G2",
                    "midi": 43,
                    "time": 60.60605400000008,
                    "velocity": 0.3228346456692913,
                    "duration": 0.44563275000000147
                },
                {
                    "name": "B3",
                    "midi": 59,
                    "time": 61.20023100000008,
                    "velocity": 0.2755905511811024,
                    "duration": 0.594177000000002
                },
                {
                    "name": "G3",
                    "midi": 55,
                    "time": 61.20023100000008,
                    "velocity": 0.2283464566929134,
                    "duration": 0.594177000000002
                },
                {
                    "name": "D3",
                    "midi": 50,
                    "time": 61.79440800000008,
                    "velocity": 0.23622047244094488,
                    "duration": 0.594177000000002
                },
                {
                    "name": "G2",
                    "midi": 43,
                    "time": 62.388585000000084,
                    "velocity": 0.3228346456692913,
                    "duration": 0.44563275000000147
                },
                {
                    "name": "B3",
                    "midi": 59,
                    "time": 62.982762000000086,
                    "velocity": 0.2755905511811024,
                    "duration": 0.594177000000002
                },
                {
                    "name": "G3",
                    "midi": 55,
                    "time": 62.982762000000086,
                    "velocity": 0.2283464566929134,
                    "duration": 0.594177000000002
                },
                {
                    "name": "D3",
                    "midi": 50,
                    "time": 63.57693900000009,
                    "velocity": 0.23622047244094488,
                    "duration": 0.5941769999999948
                },
                {
                    "name": "C2",
                    "midi": 36,
                    "time": 64.17111600000008,
                    "velocity": 0.4015748031496063,
                    "duration": 0.44563275000000147
                },
                {
                    "name": "G3",
                    "midi": 55,
                    "time": 64.76529300000009,
                    "velocity": 0.25196850393700787,
                    "duration": 0.594177000000002
                },
                {
                    "name": "D#3",
                    "midi": 51,
                    "time": 65.35947000000009,
                    "velocity": 0.23622047244094488,
                    "duration": 0.594177000000002
                },
                {
                    "name": "C3",
                    "midi": 48,
                    "time": 65.95364700000009,
                    "velocity": 0.3228346456692913,
                    "duration": 0.44563275000000147
                },
                {
                    "name": "G#3",
                    "midi": 56,
                    "time": 66.54782400000009,
                    "velocity": 0.2755905511811024,
                    "duration": 0.594177000000002
                },
                {
                    "name": "F3",
                    "midi": 53,
                    "time": 66.54782400000009,
                    "velocity": 0.2283464566929134,
                    "duration": 0.594177000000002
                },
                {
                    "name": "D3",
                    "midi": 50,
                    "time": 67.14200100000009,
                    "velocity": 0.23622047244094488,
                    "duration": 0.594177000000002
                },
                {
                    "name": "C2",
                    "midi": 36,
                    "time": 67.7361780000001,
                    "velocity": 0.33858267716535434,
                    "duration": 0.44563275000000147
                },
                {
                    "name": "G3",
                    "midi": 55,
                    "time": 68.3303550000001,
                    "velocity": 0.2283464566929134,
                    "duration": 0.594177000000002
                },
                {
                    "name": "D#3",
                    "midi": 51,
                    "time": 68.9245320000001,
                    "velocity": 0.23622047244094488,
                    "duration": 0.594177000000002
                },
                {
                    "name": "C3",
                    "midi": 48,
                    "time": 69.5187090000001,
                    "velocity": 0.3228346456692913,
                    "duration": 0.44563275000000147
                },
                {
                    "name": "G#3",
                    "midi": 56,
                    "time": 70.1128860000001,
                    "velocity": 0.25196850393700787,
                    "duration": 0.594177000000002
                },
                {
                    "name": "F3",
                    "midi": 53,
                    "time": 70.1128860000001,
                    "velocity": 0.2125984251968504,
                    "duration": 0.594177000000002
                },
                {
                    "name": "D3",
                    "midi": 50,
                    "time": 70.7070630000001,
                    "velocity": 0.23622047244094488,
                    "duration": 0.594177000000002
                },
                {
                    "name": "C2",
                    "midi": 36,
                    "time": 71.3012400000001,
                    "velocity": 0.3228346456692913,
                    "duration": 0.44563275000000147
                },
                {
                    "name": "G3",
                    "midi": 55,
                    "time": 71.89541700000011,
                    "velocity": 0.2755905511811024,
                    "duration": 0.594177000000002
                },
                {
                    "name": "D#3",
                    "midi": 51,
                    "time": 71.89541700000011,
                    "velocity": 0.2283464566929134,
                    "duration": 0.594177000000002
                },
                {
                    "name": "C3",
                    "midi": 48,
                    "time": 72.48959400000011,
                    "velocity": 0.23622047244094488,
                    "duration": 0.594177000000002
                },
                {
                    "name": "C2",
                    "midi": 36,
                    "time": 73.08377100000011,
                    "velocity": 0.29133858267716534,
                    "duration": 0.44563275000000147
                },
                {
                    "name": "D#3",
                    "midi": 51,
                    "time": 73.67794800000011,
                    "velocity": 0.1732283464566929,
                    "duration": 0.594177000000002
                },
                {
                    "name": "G3",
                    "midi": 55,
                    "time": 73.67794800000011,
                    "velocity": 0.2125984251968504,
                    "duration": 0.594177000000002
                },
                {
                    "name": "C3",
                    "midi": 48,
                    "time": 74.27212500000012,
                    "velocity": 0.15748031496062992,
                    "duration": 0.594177000000002
                },
                {
                    "name": "F#2",
                    "midi": 42,
                    "time": 74.86630200000012,
                    "velocity": 0.25196850393700787,
                    "duration": 0.44563275000000147
                },
                {
                    "name": "A3",
                    "midi": 57,
                    "time": 75.46047900000012,
                    "velocity": 0.2125984251968504,
                    "duration": 0.594177000000002
                },
                {
                    "name": "D#3",
                    "midi": 51,
                    "time": 75.46047900000012,
                    "velocity": 0.18110236220472442,
                    "duration": 0.594177000000002
                },
                {
                    "name": "C3",
                    "midi": 48,
                    "time": 76.05465600000012,
                    "velocity": 0.1889763779527559,
                    "duration": 0.594177000000002
                },
                {
                    "name": "F#2",
                    "midi": 42,
                    "time": 76.64883300000012,
                    "velocity": 0.25196850393700787,
                    "duration": 0.44563275000000147
                },
                {
                    "name": "A3",
                    "midi": 57,
                    "time": 77.24301000000013,
                    "velocity": 0.2125984251968504,
                    "duration": 0.594177000000002
                },
                {
                    "name": "D#3",
                    "midi": 51,
                    "time": 77.24301000000013,
                    "velocity": 0.18110236220472442,
                    "duration": 0.594177000000002
                },
                {
                    "name": "C3",
                    "midi": 48,
                    "time": 77.83718700000013,
                    "velocity": 0.1889763779527559,
                    "duration": 0.594177000000002
                },
                {
                    "name": "F#2",
                    "midi": 42,
                    "time": 78.43136400000013,
                    "velocity": 0.31496062992125984,
                    "duration": 0.44563275000000147
                },
                {
                    "name": "D#3",
                    "midi": 51,
                    "time": 79.02554100000013,
                    "velocity": 0.1732283464566929,
                    "duration": 0.594177000000002
                },
                {
                    "name": "A3",
                    "midi": 57,
                    "time": 79.02554100000013,
                    "velocity": 0.1968503937007874,
                    "duration": 0.594177000000002
                },
                {
                    "name": "C3",
                    "midi": 48,
                    "time": 79.61971800000013,
                    "velocity": 0.1889763779527559,
                    "duration": 0.594177000000002
                },
                {
                    "name": "F#2",
                    "midi": 42,
                    "time": 80.21389500000014,
                    "velocity": 0.25196850393700787,
                    "duration": 0.44563275000000147
                },
                {
                    "name": "A3",
                    "midi": 57,
                    "time": 80.80807200000014,
                    "velocity": 0.2125984251968504,
                    "duration": 0.594177000000002
                },
                {
                    "name": "D#3",
                    "midi": 51,
                    "time": 80.80807200000014,
                    "velocity": 0.18110236220472442,
                    "duration": 0.594177000000002
                },
                {
                    "name": "C3",
                    "midi": 48,
                    "time": 81.40224900000014,
                    "velocity": 0.1889763779527559,
                    "duration": 0.594177000000002
                },
                {
                    "name": "G2",
                    "midi": 43,
                    "time": 81.99642600000014,
                    "velocity": 0.2677165354330709,
                    "duration": 0.44563275000000147
                },
                {
                    "name": "D3",
                    "midi": 50,
                    "time": 82.59060300000014,
                    "velocity": 0.18110236220472442,
                    "duration": 0.594177000000002
                },
                {
                    "name": "G3",
                    "midi": 55,
                    "time": 82.59060300000014,
                    "velocity": 0.18110236220472442,
                    "duration": 0.594177000000002
                },
                {
                    "name": "A#2",
                    "midi": 46,
                    "time": 83.18478000000015,
                    "velocity": 0.1889763779527559,
                    "duration": 0.594177000000002
                },
                {
                    "name": "D#2",
                    "midi": 39,
                    "time": 83.77895700000015,
                    "velocity": 0.25196850393700787,
                    "duration": 0.44563275000000147
                },
                {
                    "name": "A#3",
                    "midi": 58,
                    "time": 84.37313400000015,
                    "velocity": 0.1968503937007874,
                    "duration": 0.594177000000002
                },
                {
                    "name": "G3",
                    "midi": 55,
                    "time": 84.37313400000015,
                    "velocity": 0.16535433070866143,
                    "duration": 0.594177000000002
                },
                {
                    "name": "D#3",
                    "midi": 51,
                    "time": 84.96731100000015,
                    "velocity": 0.1889763779527559,
                    "duration": 0.594177000000002
                },
                {
                    "name": "D2",
                    "midi": 38,
                    "time": 85.56148800000015,
                    "velocity": 0.2677165354330709,
                    "duration": 1.188354000000004
                },
                {
                    "name": "G1",
                    "midi": 31,
                    "time": 89.12655000000015,
                    "velocity": 0.29133858267716534,
                    "duration": 0.594177000000002
                },
                {
                    "name": "G2",
                    "midi": 43,
                    "time": 89.12655000000015,
                    "velocity": 0.3464566929133858,
                    "duration": 0.594177000000002
                },
                {
                    "name": "G1",
                    "midi": 31,
                    "time": 92.69161200000015,
                    "velocity": 0.29133858267716534,
                    "duration": 0.594177000000002
                },
                {
                    "name": "G2",
                    "midi": 43,
                    "time": 92.69161200000015,
                    "velocity": 0.3464566929133858,
                    "duration": 0.594177000000002
                },
                {
                    "name": "A#1",
                    "midi": 34,
                    "time": 96.25667400000015,
                    "velocity": 0.29133858267716534,
                    "duration": 0.594177000000002
                },
                {
                    "name": "A#2",
                    "midi": 46,
                    "time": 96.25667400000015,
                    "velocity": 0.3464566929133858,
                    "duration": 0.594177000000002
                },
                {
                    "name": "C2",
                    "midi": 36,
                    "time": 98.03920500000015,
                    "velocity": 0.29133858267716534,
                    "duration": 0.594177000000002
                },
                {
                    "name": "C3",
                    "midi": 48,
                    "time": 98.03920500000015,
                    "velocity": 0.3464566929133858,
                    "duration": 0.594177000000002
                },
                {
                    "name": "D2",
                    "midi": 38,
                    "time": 99.82173600000016,
                    "velocity": 0.29133858267716534,
                    "duration": 0.594177000000002
                },
                {
                    "name": "D3",
                    "midi": 50,
                    "time": 99.82173600000016,
                    "velocity": 0.3464566929133858,
                    "duration": 0.594177000000002
                },
                {
                    "name": "G2",
                    "midi": 43,
                    "time": 101.60426700000016,
                    "velocity": 0.29133858267716534,
                    "duration": 0.594177000000002
                },
                {
                    "name": "G3",
                    "midi": 55,
                    "time": 101.60426700000016,
                    "velocity": 0.3464566929133858,
                    "duration": 0.594177000000002
                },
                {
                    "name": "G1",
                    "midi": 31,
                    "time": 103.38679800000017,
                    "velocity": 0.29133858267716534,
                    "duration": 0.594177000000002
                },
                {
                    "name": "G2",
                    "midi": 43,
                    "time": 103.38679800000017,
                    "velocity": 0.3464566929133858,
                    "duration": 0.594177000000002
                },
                {
                    "name": "G2",
                    "midi": 43,
                    "time": 106.95186000000017,
                    "velocity": 0.29133858267716534,
                    "duration": 0.594177000000002
                },
                {
                    "name": "G3",
                    "midi": 55,
                    "time": 106.95186000000017,
                    "velocity": 0.3464566929133858,
                    "duration": 0.594177000000002
                },
                {
                    "name": "C2",
                    "midi": 36,
                    "time": 110.51692200000016,
                    "velocity": 0.5826771653543307,
                    "duration": 0.594177000000002
                },
                {
                    "name": "C3",
                    "midi": 48,
                    "time": 110.51692200000016,
                    "velocity": 0.5826771653543307,
                    "duration": 0.594177000000002
                },
                {
                    "name": "G4",
                    "midi": 67,
                    "time": 112.89363000000017,
                    "velocity": 0.3858267716535433,
                    "duration": 0.5347593000000046
                },
                {
                    "name": "D#4",
                    "midi": 63,
                    "time": 113.48780700000017,
                    "velocity": 0.3464566929133858,
                    "duration": 0.5347593000000046
                },
                {
                    "name": "D4",
                    "midi": 62,
                    "time": 114.08198400000018,
                    "velocity": 0.3779527559055118,
                    "duration": 0.5347593000000046
                },
                {
                    "name": "D#4",
                    "midi": 63,
                    "time": 114.67616100000018,
                    "velocity": 0.31496062992125984,
                    "duration": 0.5347593000000046
                },
                {
                    "name": "C4",
                    "midi": 60,
                    "time": 115.27033800000018,
                    "velocity": 0.33070866141732286,
                    "duration": 0.5347593000000046
                },
                {
                    "name": "D4",
                    "midi": 62,
                    "time": 115.86451500000018,
                    "velocity": 0.31496062992125984,
                    "duration": 0.5347593000000046
                },
                {
                    "name": "D3",
                    "midi": 50,
                    "time": 117.05286900000019,
                    "velocity": 0.3228346456692913,
                    "duration": 0.5347593000000046
                },
                {
                    "name": "G2",
                    "midi": 43,
                    "time": 117.64704600000019,
                    "velocity": 0.31496062992125984,
                    "duration": 0.44563275000000147
                },
                {
                    "name": "A#3",
                    "midi": 58,
                    "time": 118.24122300000019,
                    "velocity": 0.2204724409448819,
                    "duration": 0.594177000000002
                },
                {
                    "name": "G3",
                    "midi": 55,
                    "time": 118.24122300000019,
                    "velocity": 0.1889763779527559,
                    "duration": 0.594177000000002
                },
                {
                    "name": "D3",
                    "midi": 50,
                    "time": 118.83540000000019,
                    "velocity": 0.2204724409448819,
                    "duration": 0.594177000000002
                },
                {
                    "name": "G2",
                    "midi": 43,
                    "time": 119.4295770000002,
                    "velocity": 0.28346456692913385,
                    "duration": 0.44563275000000147
                },
                {
                    "name": "A#3",
                    "midi": 58,
                    "time": 120.0237540000002,
                    "velocity": 0.23622047244094488,
                    "duration": 0.594177000000002
                },
                {
                    "name": "G3",
                    "midi": 55,
                    "time": 120.0237540000002,
                    "velocity": 0.1968503937007874,
                    "duration": 0.594177000000002
                },
                {
                    "name": "D3",
                    "midi": 50,
                    "time": 120.6179310000002,
                    "velocity": 0.23622047244094488,
                    "duration": 0.594177000000002
                },
                {
                    "name": "G2",
                    "midi": 43,
                    "time": 121.2121080000002,
                    "velocity": 0.28346456692913385,
                    "duration": 0.44563275000000147
                },
                {
                    "name": "C4",
                    "midi": 60,
                    "time": 121.8062850000002,
                    "velocity": 0.2204724409448819,
                    "duration": 0.594177000000002
                },
                {
                    "name": "A3",
                    "midi": 57,
                    "time": 121.8062850000002,
                    "velocity": 0.1889763779527559,
                    "duration": 0.594177000000002
                },
                {
                    "name": "D3",
                    "midi": 50,
                    "time": 122.4004620000002,
                    "velocity": 0.2204724409448819,
                    "duration": 0.594177000000002
                },
                {
                    "name": "G2",
                    "midi": 43,
                    "time": 122.9946390000002,
                    "velocity": 0.28346456692913385,
                    "duration": 0.44563275000000147
                },
                {
                    "name": "C4",
                    "midi": 60,
                    "time": 123.58881600000021,
                    "velocity": 0.23622047244094488,
                    "duration": 0.594177000000002
                },
                {
                    "name": "A3",
                    "midi": 57,
                    "time": 123.58881600000021,
                    "velocity": 0.1968503937007874,
                    "duration": 0.594177000000002
                },
                {
                    "name": "D3",
                    "midi": 50,
                    "time": 124.18299300000021,
                    "velocity": 0.23622047244094488,
                    "duration": 0.594177000000002
                },
                {
                    "name": "G2",
                    "midi": 43,
                    "time": 124.77717000000021,
                    "velocity": 0.28346456692913385,
                    "duration": 0.44563275000000147
                },
                {
                    "name": "A#3",
                    "midi": 58,
                    "time": 125.37134700000021,
                    "velocity": 0.2204724409448819,
                    "duration": 0.594177000000002
                },
                {
                    "name": "G3",
                    "midi": 55,
                    "time": 125.37134700000021,
                    "velocity": 0.1889763779527559,
                    "duration": 0.594177000000002
                },
                {
                    "name": "D3",
                    "midi": 50,
                    "time": 125.96552400000022,
                    "velocity": 0.2204724409448819,
                    "duration": 0.594177000000002
                },
                {
                    "name": "G2",
                    "midi": 43,
                    "time": 126.55970100000022,
                    "velocity": 0.28346456692913385,
                    "duration": 0.44563275000000147
                },
                {
                    "name": "A#3",
                    "midi": 58,
                    "time": 127.15387800000022,
                    "velocity": 0.23622047244094488,
                    "duration": 0.594177000000002
                },
                {
                    "name": "G3",
                    "midi": 55,
                    "time": 127.15387800000022,
                    "velocity": 0.1968503937007874,
                    "duration": 0.594177000000002
                },
                {
                    "name": "D3",
                    "midi": 50,
                    "time": 127.74805500000022,
                    "velocity": 0.2125984251968504,
                    "duration": 0.594177000000002
                },
                {
                    "name": "G2",
                    "midi": 43,
                    "time": 128.34223200000022,
                    "velocity": 0.2440944881889764,
                    "duration": 0.44563274999998725
                },
                {
                    "name": "G3",
                    "midi": 55,
                    "time": 128.9364090000002,
                    "velocity": 0.1889763779527559,
                    "duration": 0.594177000000002
                },
                {
                    "name": "D3",
                    "midi": 50,
                    "time": 129.5305860000002,
                    "velocity": 0.18110236220472442,
                    "duration": 0.594177000000002
                },
                {
                    "name": "G2",
                    "midi": 43,
                    "time": 130.1247630000002,
                    "velocity": 0.2204724409448819,
                    "duration": 0.44563274999998725
                },
                {
                    "name": "D4",
                    "midi": 62,
                    "time": 130.71894000000017,
                    "velocity": 0.1889763779527559,
                    "duration": 0.594177000000002
                },
                {
                    "name": "C4",
                    "midi": 60,
                    "time": 130.71894000000017,
                    "velocity": 0.14960629921259844,
                    "duration": 0.594177000000002
                },
                {
                    "name": "D3",
                    "midi": 50,
                    "time": 131.31311700000018,
                    "velocity": 0.18110236220472442,
                    "duration": 0.594177000000002
                },
                {
                    "name": "G2",
                    "midi": 43,
                    "time": 131.90729400000018,
                    "velocity": 0.1968503937007874,
                    "duration": 0.44563274999998725
                },
                {
                    "name": "A#3",
                    "midi": 58,
                    "time": 132.50147100000015,
                    "velocity": 0.14960629921259844,
                    "duration": 0.594177000000002
                },
                {
                    "name": "G3",
                    "midi": 55,
                    "time": 132.50147100000015,
                    "velocity": 0.12598425196850394,
                    "duration": 0.594177000000002
                },
                {
                    "name": "D3",
                    "midi": 50,
                    "time": 133.09564800000015,
                    "velocity": 0.14960629921259844,
                    "duration": 0.594177000000002
                },
                {
                    "name": "G2",
                    "midi": 43,
                    "time": 133.68982500000016,
                    "velocity": 0.1968503937007874,
                    "duration": 0.44563274999998725
                },
                {
                    "name": "A#3",
                    "midi": 58,
                    "time": 134.28400200000013,
                    "velocity": 0.15748031496062992,
                    "duration": 0.594177000000002
                },
                {
                    "name": "G3",
                    "midi": 55,
                    "time": 134.28400200000013,
                    "velocity": 0.13385826771653545,
                    "duration": 0.594177000000002
                },
                {
                    "name": "D3",
                    "midi": 50,
                    "time": 134.87817900000013,
                    "velocity": 0.15748031496062992,
                    "duration": 0.594177000000002
                },
                {
                    "name": "G2",
                    "midi": 43,
                    "time": 135.47235600000013,
                    "velocity": 0.1968503937007874,
                    "duration": 0.44563274999998725
                },
                {
                    "name": "A#3",
                    "midi": 58,
                    "time": 136.0665330000001,
                    "velocity": 0.14960629921259844,
                    "duration": 0.594177000000002
                },
                {
                    "name": "G3",
                    "midi": 55,
                    "time": 136.0665330000001,
                    "velocity": 0.12598425196850394,
                    "duration": 0.594177000000002
                },
                {
                    "name": "D3",
                    "midi": 50,
                    "time": 136.6607100000001,
                    "velocity": 0.14960629921259844,
                    "duration": 0.594177000000002
                },
                {
                    "name": "G2",
                    "midi": 43,
                    "time": 137.2548870000001,
                    "velocity": 0.1968503937007874,
                    "duration": 0.44563274999998725
                },
                {
                    "name": "A#3",
                    "midi": 58,
                    "time": 137.84906400000008,
                    "velocity": 0.15748031496062992,
                    "duration": 0.594177000000002
                },
                {
                    "name": "G3",
                    "midi": 55,
                    "time": 137.84906400000008,
                    "velocity": 0.13385826771653545,
                    "duration": 0.594177000000002
                },
                {
                    "name": "D3",
                    "midi": 50,
                    "time": 138.44324100000009,
                    "velocity": 0.14960629921259844,
                    "duration": 0.594177000000002
                },
                {
                    "name": "G2",
                    "midi": 43,
                    "time": 139.0374180000001,
                    "velocity": 0.1968503937007874,
                    "duration": 0.44563274999998725
                },
                {
                    "name": "A#3",
                    "midi": 58,
                    "time": 139.63159500000006,
                    "velocity": 0.15748031496062992,
                    "duration": 0.594177000000002
                },
                {
                    "name": "G3",
                    "midi": 55,
                    "time": 139.63159500000006,
                    "velocity": 0.13385826771653545,
                    "duration": 0.594177000000002
                },
                {
                    "name": "D3",
                    "midi": 50,
                    "time": 140.22577200000006,
                    "velocity": 0.14960629921259844,
                    "duration": 0.594177000000002
                },
                {
                    "name": "F1",
                    "midi": 29,
                    "time": 140.81994900000007,
                    "velocity": 0.16535433070866143,
                    "duration": 1.188354000000004
                },
                {
                    "name": "F2",
                    "midi": 41,
                    "time": 140.81994900000007,
                    "velocity": 0.1968503937007874,
                    "duration": 1.188354000000004
                },
                {
                    "name": "C4",
                    "midi": 60,
                    "time": 141.41412600000007,
                    "velocity": 0.15748031496062992,
                    "duration": 0.594177000000002
                },
                {
                    "name": "A3",
                    "midi": 57,
                    "time": 141.41412600000007,
                    "velocity": 0.13385826771653545,
                    "duration": 0.594177000000002
                },
                {
                    "name": "F3",
                    "midi": 53,
                    "time": 142.00830300000007,
                    "velocity": 0.14960629921259844,
                    "duration": 0.594177000000002
                },
                {
                    "name": "A#1",
                    "midi": 34,
                    "time": 142.60248000000007,
                    "velocity": 0.16535433070866143,
                    "duration": 1.188354000000004
                },
                {
                    "name": "A#2",
                    "midi": 46,
                    "time": 142.60248000000007,
                    "velocity": 0.1968503937007874,
                    "duration": 1.188354000000004
                },
                {
                    "name": "D4",
                    "midi": 62,
                    "time": 143.19665700000007,
                    "velocity": 0.15748031496062992,
                    "duration": 0.594177000000002
                },
                {
                    "name": "A#3",
                    "midi": 58,
                    "time": 143.19665700000007,
                    "velocity": 0.13385826771653545,
                    "duration": 0.594177000000002
                },
                {
                    "name": "F3",
                    "midi": 53,
                    "time": 143.79083400000007,
                    "velocity": 0.14960629921259844,
                    "duration": 0.594177000000002
                },
                {
                    "name": "C2",
                    "midi": 36,
                    "time": 144.38501100000008,
                    "velocity": 0.16535433070866143,
                    "duration": 1.188354000000004
                },
                {
                    "name": "C3",
                    "midi": 48,
                    "time": 144.38501100000008,
                    "velocity": 0.1968503937007874,
                    "duration": 1.188354000000004
                },
                {
                    "name": "C4",
                    "midi": 60,
                    "time": 144.97918800000008,
                    "velocity": 0.15748031496062992,
                    "duration": 0.594177000000002
                },
                {
                    "name": "G3",
                    "midi": 55,
                    "time": 144.97918800000008,
                    "velocity": 0.13385826771653545,
                    "duration": 0.594177000000002
                },
                {
                    "name": "D#3",
                    "midi": 51,
                    "time": 145.57336500000008,
                    "velocity": 0.14960629921259844,
                    "duration": 0.594177000000002
                },
                {
                    "name": "D2",
                    "midi": 38,
                    "time": 146.16754200000008,
                    "velocity": 0.1968503937007874,
                    "duration": 1.188354000000004
                },
                {
                    "name": "A#3",
                    "midi": 58,
                    "time": 146.76171900000008,
                    "velocity": 0.15748031496062992,
                    "duration": 0.594177000000002
                },
                {
                    "name": "G3",
                    "midi": 55,
                    "time": 146.76171900000008,
                    "velocity": 0.13385826771653545,
                    "duration": 0.594177000000002
                },
                {
                    "name": "D3",
                    "midi": 50,
                    "time": 147.3558960000001,
                    "velocity": 0.14960629921259844,
                    "duration": 0.594177000000002
                },
                {
                    "name": "D2",
                    "midi": 38,
                    "time": 147.9500730000001,
                    "velocity": 0.1968503937007874,
                    "duration": 1.188354000000004
                },
                {
                    "name": "G3",
                    "midi": 55,
                    "time": 148.5442500000001,
                    "velocity": 0.13385826771653545,
                    "duration": 0.594177000000002
                },
                {
                    "name": "A#3",
                    "midi": 58,
                    "time": 148.5442500000001,
                    "velocity": 0.15748031496062992,
                    "duration": 0.594177000000002
                },
                {
                    "name": "D3",
                    "midi": 50,
                    "time": 149.1384270000001,
                    "velocity": 0.14960629921259844,
                    "duration": 0.594177000000002
                },
                {
                    "name": "D2",
                    "midi": 38,
                    "time": 149.7326040000001,
                    "velocity": 0.1968503937007874,
                    "duration": 1.188354000000004
                },
                {
                    "name": "C4",
                    "midi": 60,
                    "time": 150.3267810000001,
                    "velocity": 0.15748031496062992,
                    "duration": 0.594177000000002
                },
                {
                    "name": "A3",
                    "midi": 57,
                    "time": 150.3267810000001,
                    "velocity": 0.13385826771653545,
                    "duration": 0.594177000000002
                },
                {
                    "name": "D3",
                    "midi": 50,
                    "time": 150.9209580000001,
                    "velocity": 0.14960629921259844,
                    "duration": 0.594177000000002
                },
                {
                    "name": "D2",
                    "midi": 38,
                    "time": 151.5151350000001,
                    "velocity": 0.1968503937007874,
                    "duration": 1.188354000000004
                },
                {
                    "name": "A3",
                    "midi": 57,
                    "time": 152.1093120000001,
                    "velocity": 0.15748031496062992,
                    "duration": 0.594177000000002
                },
                {
                    "name": "F#3",
                    "midi": 54,
                    "time": 152.1093120000001,
                    "velocity": 0.13385826771653545,
                    "duration": 0.594177000000002
                },
                {
                    "name": "D3",
                    "midi": 50,
                    "time": 152.7034890000001,
                    "velocity": 0.14960629921259844,
                    "duration": 0.594177000000002
                },
                {
                    "name": "G1",
                    "midi": 31,
                    "time": 153.2976660000001,
                    "velocity": 0.1968503937007874,
                    "duration": 1.188354000000004
                },
                {
                    "name": "A#3",
                    "midi": 58,
                    "time": 153.8918430000001,
                    "velocity": 0.15748031496062992,
                    "duration": 0.594177000000002
                },
                {
                    "name": "G3",
                    "midi": 55,
                    "time": 153.8918430000001,
                    "velocity": 0.13385826771653545,
                    "duration": 0.594177000000002
                },
                {
                    "name": "D3",
                    "midi": 50,
                    "time": 154.4860200000001,
                    "velocity": 0.14960629921259844,
                    "duration": 0.594177000000002
                },
                {
                    "name": "G1",
                    "midi": 31,
                    "time": 156.86272800000012,
                    "velocity": 0.1968503937007874,
                    "duration": 1.188354000000004
                },
                {
                    "name": "A#3",
                    "midi": 58,
                    "time": 157.45690500000012,
                    "velocity": 0.15748031496062992,
                    "duration": 0.594177000000002
                },
                {
                    "name": "G3",
                    "midi": 55,
                    "time": 157.45690500000012,
                    "velocity": 0.13385826771653545,
                    "duration": 0.594177000000002
                },
                {
                    "name": "D3",
                    "midi": 50,
                    "time": 158.05108200000012,
                    "velocity": 0.14960629921259844,
                    "duration": 0.594177000000002
                },
                {
                    "name": "G1",
                    "midi": 31,
                    "time": 160.42779000000013,
                    "velocity": 0.16535433070866143,
                    "duration": 3.5650620000000117
                }
            ],
            "controlChanges": {},
            "id": 2,
            "name": "Piano left",
            "instrumentNumber": 0,
            "instrument": "acoustic grand piano",
            "instrumentFamily": "piano",
            "channelNumber": 0,
            "isPercussion": false
        },
        {
            "startTime": 0,
            "duration": 0,
            "length": 0,
            "notes": [],
            "controlChanges": {
                "64": [
                    {
                        "number": 64,
                        "time": 0.2970885,
                        "value": 1
                    },
                    {
                        "number": 64,
                        "time": 5.3500687375,
                        "value": 0
                    },
                    {
                        "number": 64,
                        "time": 5.6620116625,
                        "value": 1
                    },
                    {
                        "number": 64,
                        "time": 7.164784325,
                        "value": 0
                    },
                    {
                        "number": 64,
                        "time": 7.461872825,
                        "value": 1
                    },
                    {
                        "number": 64,
                        "time": 8.9646454875,
                        "value": 0
                    },
                    {
                        "number": 64,
                        "time": 9.343433325,
                        "value": 1
                    },
                    {
                        "number": 64,
                        "time": 10.729846324999999,
                        "value": 0
                    },
                    {
                        "number": 64,
                        "time": 11.026934824999998,
                        "value": 1
                    },
                    {
                        "number": 64,
                        "time": 12.504950112499998,
                        "value": 0
                    },
                    {
                        "number": 64,
                        "time": 12.873834999999998,
                        "value": 1
                    },
                    {
                        "number": 64,
                        "time": 14.289956849999998,
                        "value": 0
                    },
                    {
                        "number": 64,
                        "time": 14.691026324999997,
                        "value": 1
                    },
                    {
                        "number": 64,
                        "time": 17.869873274999996,
                        "value": 0
                    },
                    {
                        "number": 64,
                        "time": 18.110019812499996,
                        "value": 1
                    },
                    {
                        "number": 64,
                        "time": 21.425032324999997,
                        "value": 0
                    },
                    {
                        "number": 64,
                        "time": 21.521586087499998,
                        "value": 1
                    },
                    {
                        "number": 64,
                        "time": 24.982667112499996,
                        "value": 0
                    },
                    {
                        "number": 64,
                        "time": 25.069317924999996,
                        "value": 1
                    },
                    {
                        "number": 64,
                        "time": 26.782528274999997,
                        "value": 0
                    },
                    {
                        "number": 64,
                        "time": 26.886509249999996,
                        "value": 1
                    },
                    {
                        "number": 64,
                        "time": 28.540301899999996,
                        "value": 0
                    },
                    {
                        "number": 64,
                        "time": 28.626952712499996,
                        "value": 1
                    },
                    {
                        "number": 64,
                        "time": 30.327784374999997,
                        "value": 0
                    },
                    {
                        "number": 64,
                        "time": 30.513464687499997,
                        "value": 1
                    },
                    {
                        "number": 64,
                        "time": 32.130121275,
                        "value": 0
                    },
                    {
                        "number": 64,
                        "time": 32.209344875,
                        "value": 1
                    },
                    {
                        "number": 64,
                        "time": 33.9200794875,
                        "value": 0
                    },
                    {
                        "number": 64,
                        "time": 34.0438663625,
                        "value": 1
                    },
                    {
                        "number": 64,
                        "time": 34.496926325,
                        "value": 0
                    },
                    {
                        "number": 64,
                        "time": 34.630616149999994,
                        "value": 1
                    },
                    {
                        "number": 64,
                        "time": 35.685280324999994,
                        "value": 0
                    },
                    {
                        "number": 64,
                        "time": 35.76450392499999,
                        "value": 1
                    },
                    {
                        "number": 64,
                        "time": 39.235487899999995,
                        "value": 0
                    },
                    {
                        "number": 64,
                        "time": 39.339468874999994,
                        "value": 1
                    },
                    {
                        "number": 64,
                        "time": 41.00811595,
                        "value": 0
                    },
                    {
                        "number": 64,
                        "time": 41.0774366,
                        "value": 1
                    },
                    {
                        "number": 64,
                        "time": 42.8030256375,
                        "value": 0
                    },
                    {
                        "number": 64,
                        "time": 42.92928825,
                        "value": 1
                    },
                    {
                        "number": 64,
                        "time": 44.597935325,
                        "value": 0
                    },
                    {
                        "number": 64,
                        "time": 44.7217222,
                        "value": 1
                    },
                    {
                        "number": 64,
                        "time": 46.345806,
                        "value": 0
                    },
                    {
                        "number": 64,
                        "time": 46.442359762500004,
                        "value": 1
                    },
                    {
                        "number": 64,
                        "time": 46.994449225000004,
                        "value": 0
                    },
                    {
                        "number": 64,
                        "time": 47.115760362500005,
                        "value": 1
                    },
                    {
                        "number": 64,
                        "time": 47.578723275,
                        "value": 0
                    },
                    {
                        "number": 64,
                        "time": 47.68270425,
                        "value": 1
                    },
                    {
                        "number": 64,
                        "time": 48.1951819125,
                        "value": 0
                    },
                    {
                        "number": 64,
                        "time": 48.356104849999994,
                        "value": 1
                    },
                    {
                        "number": 64,
                        "time": 48.79183464999999,
                        "value": 0
                    },
                    {
                        "number": 64,
                        "time": 48.91562152499999,
                        "value": 1
                    },
                    {
                        "number": 64,
                        "time": 49.34144837499999,
                        "value": 0
                    },
                    {
                        "number": 64,
                        "time": 49.44047787499999,
                        "value": 1
                    },
                    {
                        "number": 64,
                        "time": 49.92819816249999,
                        "value": 0
                    },
                    {
                        "number": 64,
                        "time": 50.07674241249999,
                        "value": 1
                    },
                    {
                        "number": 64,
                        "time": 52.89660742499999,
                        "value": 0
                    },
                    {
                        "number": 64,
                        "time": 53.47592999999999,
                        "value": 0
                    },
                    {
                        "number": 64,
                        "time": 53.57248376249999,
                        "value": 1
                    },
                    {
                        "number": 64,
                        "time": 54.12457322499999,
                        "value": 0
                    },
                    {
                        "number": 64,
                        "time": 54.24588436249999,
                        "value": 1
                    },
                    {
                        "number": 64,
                        "time": 54.70884727499999,
                        "value": 0
                    },
                    {
                        "number": 64,
                        "time": 54.81282824999999,
                        "value": 1
                    },
                    {
                        "number": 64,
                        "time": 55.325305912499985,
                        "value": 0
                    },
                    {
                        "number": 64,
                        "time": 55.48622884999998,
                        "value": 1
                    },
                    {
                        "number": 64,
                        "time": 55.92195864999998,
                        "value": 0
                    },
                    {
                        "number": 64,
                        "time": 56.04574552499998,
                        "value": 1
                    },
                    {
                        "number": 64,
                        "time": 56.47157237499998,
                        "value": 0
                    },
                    {
                        "number": 64,
                        "time": 56.57060187499998,
                        "value": 1
                    },
                    {
                        "number": 64,
                        "time": 57.05832216249998,
                        "value": 0
                    },
                    {
                        "number": 64,
                        "time": 57.20686641249998,
                        "value": 1
                    },
                    {
                        "number": 64,
                        "time": 60.046537324999974,
                        "value": 0
                    },
                    {
                        "number": 64,
                        "time": 60.16042124999998,
                        "value": 1
                    },
                    {
                        "number": 64,
                        "time": 60.62585989999998,
                        "value": 0
                    },
                    {
                        "number": 64,
                        "time": 60.789258574999984,
                        "value": 1
                    },
                    {
                        "number": 64,
                        "time": 62.415818112499984,
                        "value": 0
                    },
                    {
                        "number": 64,
                        "time": 62.51979908749998,
                        "value": 1
                    },
                    {
                        "number": 64,
                        "time": 64.19092189999998,
                        "value": 0
                    },
                    {
                        "number": 64,
                        "time": 64.31223303749998,
                        "value": 1
                    },
                    {
                        "number": 64,
                        "time": 65.99325879999998,
                        "value": 0
                    },
                    {
                        "number": 64,
                        "time": 66.11209419999997,
                        "value": 1
                    },
                    {
                        "number": 64,
                        "time": 67.75598389999998,
                        "value": 0
                    },
                    {
                        "number": 64,
                        "time": 67.85996487499997,
                        "value": 1
                    },
                    {
                        "number": 64,
                        "time": 69.54346637499998,
                        "value": 0
                    },
                    {
                        "number": 64,
                        "time": 69.65982603749998,
                        "value": 1
                    },
                    {
                        "number": 64,
                        "time": 71.34580327499998,
                        "value": 0
                    },
                    {
                        "number": 64,
                        "time": 71.44235703749997,
                        "value": 1
                    },
                    {
                        "number": 64,
                        "time": 74.30678532499998,
                        "value": 0
                    },
                    {
                        "number": 64,
                        "time": 74.42066924999997,
                        "value": 1
                    },
                    {
                        "number": 64,
                        "time": 74.88610789999997,
                        "value": 0
                    },
                    {
                        "number": 64,
                        "time": 75.04950657499997,
                        "value": 1
                    },
                    {
                        "number": 64,
                        "time": 76.67606611249997,
                        "value": 0
                    },
                    {
                        "number": 64,
                        "time": 76.78004708749997,
                        "value": 1
                    },
                    {
                        "number": 64,
                        "time": 78.45116989999997,
                        "value": 0
                    },
                    {
                        "number": 64,
                        "time": 78.57248103749997,
                        "value": 1
                    },
                    {
                        "number": 64,
                        "time": 80.25350679999997,
                        "value": 0
                    },
                    {
                        "number": 64,
                        "time": 80.37234219999996,
                        "value": 1
                    },
                    {
                        "number": 64,
                        "time": 82.01623189999997,
                        "value": 0
                    },
                    {
                        "number": 64,
                        "time": 82.12021287499996,
                        "value": 1
                    },
                    {
                        "number": 64,
                        "time": 83.80371437499997,
                        "value": 0
                    },
                    {
                        "number": 64,
                        "time": 83.92007403749997,
                        "value": 1
                    },
                    {
                        "number": 64,
                        "time": 85.62833291249997,
                        "value": 0
                    },
                    {
                        "number": 64,
                        "time": 89.12654999999997,
                        "value": 1
                    },
                    {
                        "number": 64,
                        "time": 90.33718563749997,
                        "value": 0
                    },
                    {
                        "number": 64,
                        "time": 91.10713999999997,
                        "value": 1
                    },
                    {
                        "number": 64,
                        "time": 92.17913433749997,
                        "value": 0
                    },
                    {
                        "number": 64,
                        "time": 92.88967099999998,
                        "value": 1
                    },
                    {
                        "number": 64,
                        "time": 93.93443222499998,
                        "value": 0
                    },
                    {
                        "number": 64,
                        "time": 95.01137803749998,
                        "value": 1
                    },
                    {
                        "number": 64,
                        "time": 95.71943896249998,
                        "value": 0
                    },
                    {
                        "number": 64,
                        "time": 100.16091203749998,
                        "value": 1
                    },
                    {
                        "number": 64,
                        "time": 101.66863617499999,
                        "value": 0
                    },
                    {
                        "number": 64,
                        "time": 102.000385,
                        "value": 1
                    },
                    {
                        "number": 64,
                        "time": 102.827281325,
                        "value": 0
                    },
                    {
                        "number": 64,
                        "time": 103.6715078125,
                        "value": 1
                    },
                    {
                        "number": 64,
                        "time": 104.63704543749999,
                        "value": 0
                    },
                    {
                        "number": 64,
                        "time": 105.56544699999999,
                        "value": 1
                    },
                    {
                        "number": 64,
                        "time": 106.43938233749999,
                        "value": 0
                    },
                    {
                        "number": 64,
                        "time": 107.20686096249999,
                        "value": 1
                    },
                    {
                        "number": 64,
                        "time": 108.17239858749998,
                        "value": 0
                    },
                    {
                        "number": 64,
                        "time": 109.46968503749999,
                        "value": 1
                    },
                    {
                        "number": 64,
                        "time": 110.55158232499998,
                        "value": 0
                    },
                    {
                        "number": 64,
                        "time": 117.68170632499998,
                        "value": 0
                    },
                    {
                        "number": 64,
                        "time": 117.77826008749997,
                        "value": 1
                    },
                    {
                        "number": 64,
                        "time": 121.23934111249997,
                        "value": 0
                    },
                    {
                        "number": 64,
                        "time": 121.32599192499997,
                        "value": 1
                    },
                    {
                        "number": 64,
                        "time": 123.03920227499997,
                        "value": 0
                    },
                    {
                        "number": 64,
                        "time": 123.14318324999996,
                        "value": 1
                    },
                    {
                        "number": 64,
                        "time": 124.80440311249997,
                        "value": 0
                    },
                    {
                        "number": 64,
                        "time": 124.89105392499997,
                        "value": 1
                    },
                    {
                        "number": 64,
                        "time": 126.60426427499996,
                        "value": 0
                    },
                    {
                        "number": 64,
                        "time": 126.70824524999996,
                        "value": 1
                    },
                    {
                        "number": 64,
                        "time": 128.36946511249997,
                        "value": 0
                    },
                    {
                        "number": 64,
                        "time": 128.45611592499998,
                        "value": 1
                    },
                    {
                        "number": 64,
                        "time": 130.16932627499997,
                        "value": 0
                    },
                    {
                        "number": 64,
                        "time": 130.27330725,
                        "value": 1
                    },
                    {
                        "number": 64,
                        "time": 131.93452711249998,
                        "value": 0
                    },
                    {
                        "number": 64,
                        "time": 132.021177925,
                        "value": 1
                    },
                    {
                        "number": 64,
                        "time": 133.734388275,
                        "value": 0
                    },
                    {
                        "number": 64,
                        "time": 133.83836925,
                        "value": 1
                    },
                    {
                        "number": 64,
                        "time": 135.4995891125,
                        "value": 0
                    },
                    {
                        "number": 64,
                        "time": 135.586239925,
                        "value": 1
                    },
                    {
                        "number": 64,
                        "time": 137.299450275,
                        "value": 0
                    },
                    {
                        "number": 64,
                        "time": 137.40343125,
                        "value": 1
                    },
                    {
                        "number": 64,
                        "time": 139.081981275,
                        "value": 0
                    },
                    {
                        "number": 64,
                        "time": 139.18596225000002,
                        "value": 1
                    },
                    {
                        "number": 64,
                        "time": 140.864512275,
                        "value": 0
                    },
                    {
                        "number": 64,
                        "time": 140.96849325000002,
                        "value": 1
                    },
                    {
                        "number": 64,
                        "time": 142.64704327500002,
                        "value": 0
                    },
                    {
                        "number": 64,
                        "time": 142.8129176875,
                        "value": 1
                    },
                    {
                        "number": 64,
                        "time": 144.429574275,
                        "value": 0
                    },
                    {
                        "number": 64,
                        "time": 144.6202060625,
                        "value": 1
                    },
                    {
                        "number": 64,
                        "time": 146.212105275,
                        "value": 0
                    },
                    {
                        "number": 64,
                        "time": 146.4027370625,
                        "value": 1
                    },
                    {
                        "number": 64,
                        "time": 149.77716727499998,
                        "value": 0
                    },
                    {
                        "number": 64,
                        "time": 149.94304168749997,
                        "value": 1
                    },
                    {
                        "number": 64,
                        "time": 153.34222927499997,
                        "value": 0
                    },
                    {
                        "number": 64,
                        "time": 153.53286106249996,
                        "value": 1
                    },
                    {
                        "number": 64,
                        "time": 163.99285199999997,
                        "value": 0
                    }
                ]
            },
            "id": 3,
            "name": "Pedale",
            "instrumentNumber": 0,
            "instrument": "acoustic grand piano",
            "instrumentFamily": "piano",
            "channelNumber": 0,
            "isPercussion": false
        },
        {
            "startTime": 0,
            "duration": 0,
            "length": 0,
            "notes": [],
            "controlChanges": {},
            "id": 4,
            "name": "Mendelssohn: Songs without words Opus 19 No. 6"
        },
        {
            "startTime": 0,
            "duration": 0,
            "length": 0,
            "notes": [],
            "controlChanges": {},
            "id": 5,
            "name": "Copyright  2010 by Bernd Krueger"
        },
        {
            "startTime": 0,
            "duration": 0,
            "length": 0,
            "notes": [],
            "controlChanges": {},
            "id": 6,
            "name": "http://www.piano-midi.de/"
        },
        {
            "startTime": 0,
            "duration": 0,
            "length": 0,
            "notes": [],
            "controlChanges": {},
            "id": 7,
            "name": "Edition: 2014-12-09"
        },
        {
            "startTime": 0,
            "duration": 0,
            "length": 0,
            "notes": [],
            "controlChanges": {},
            "id": 8,
            "name": "Spur 8"
        },
        {
            "startTime": 0,
            "duration": 0,
            "length": 0,
            "notes": [],
            "controlChanges": {},
            "id": 9,
            "name": "Spur 9"
        },
        {
            "startTime": 0,
            "duration": 0,
            "length": 0,
            "notes": [],
            "controlChanges": {},
            "id": 10,
            "name": "Spur 10"
        },
        {
            "startTime": 0,
            "duration": 0,
            "length": 0,
            "notes": [],
            "controlChanges": {},
            "id": 11,
            "name": "Spur 11"
        },
        {
            "startTime": 0,
            "duration": 0,
            "length": 0,
            "notes": [],
            "controlChanges": {},
            "id": 12,
            "name": "Spur 12"
        },
        {
            "startTime": 0,
            "duration": 0,
            "length": 0,
            "notes": [],
            "controlChanges": {},
            "id": 13,
            "name": "Spur 13"
        },
        {
            "startTime": 0,
            "duration": 0,
            "length": 0,
            "notes": [],
            "controlChanges": {},
            "id": 14,
            "name": "Spur 14"
        },
        {
            "startTime": 0,
            "duration": 0,
            "length": 0,
            "notes": [],
            "controlChanges": {},
            "id": 15,
            "name": "Spur 15"
        },
        {
            "startTime": 0,
            "duration": 0,
            "length": 0,
            "notes": [],
            "controlChanges": {},
            "id": 16,
            "name": "Spur 16"
        }
    ]
}