{
    "header": {
        "PPQ": 480,
        "timeSignature": [
            6,
            8
        ],
        "bpm": 158.91008867182947,
        "name": "Jägerlied"
    },
    "startTime": 0,
    "duration": 139.41846099999853,
    "tracks": [
        {
            "startTime": 0,
            "duration": 0,
            "length": 0,
            "notes": [],
            "controlChanges": {},
            "id": 0,
            "name": "Jägerlied"
        },
        {
            "startTime": 0.566358,
            "duration": 139.41846099999765,
            "length": 1120,
            "notes": [
                {
                    "name": "E4",
                    "midi": 64,
                    "time": 0.566358,
                    "velocity": 0.5511811023622047,
                    "duration": 0.7551440000000001
                },
                {
                    "name": "C#4",
                    "midi": 61,
                    "time": 1.3215020000000002,
                    "velocity": 0.5433070866141733,
                    "duration": 0.09439299999999995
                },
                {
                    "name": "E4",
                    "midi": 64,
                    "time": 1.4158950000000001,
                    "velocity": 0.5669291338582677,
                    "duration": 0.09439299999999995
                },
                {
                    "name": "A4",
                    "midi": 69,
                    "time": 1.510288,
                    "velocity": 0.5905511811023622,
                    "duration": 0.09439299999999995
                },
                {
                    "name": "C#5",
                    "midi": 73,
                    "time": 1.604681,
                    "velocity": 0.6062992125984252,
                    "duration": 0.09439299999999995
                },
                {
                    "name": "E5",
                    "midi": 76,
                    "time": 1.699074,
                    "velocity": 0.6692913385826772,
                    "duration": 0.755144
                },
                {
                    "name": "C#5",
                    "midi": 73,
                    "time": 2.454218,
                    "velocity": 0.5748031496062992,
                    "duration": 0.09439300000000017
                },
                {
                    "name": "E5",
                    "midi": 76,
                    "time": 2.548611,
                    "velocity": 0.6062992125984252,
                    "duration": 0.09439300000000017
                },
                {
                    "name": "A5",
                    "midi": 81,
                    "time": 2.6430040000000004,
                    "velocity": 0.6299212598425197,
                    "duration": 0.09439300000000017
                },
                {
                    "name": "C#6",
                    "midi": 85,
                    "time": 2.7373970000000005,
                    "velocity": 0.6377952755905512,
                    "duration": 0.09439300000000017
                },
                {
                    "name": "E6",
                    "midi": 88,
                    "time": 2.8317900000000007,
                    "velocity": 0.6850393700787402,
                    "duration": 0.5663579999999997
                },
                {
                    "name": "B5",
                    "midi": 83,
                    "time": 3.0205760000000006,
                    "velocity": 0.6220472440944882,
                    "duration": 0.047196500000000086
                },
                {
                    "name": "E5",
                    "midi": 76,
                    "time": 3.0205760000000006,
                    "velocity": 0.5275590551181102,
                    "duration": 0.047196500000000086
                },
                {
                    "name": "B5",
                    "midi": 83,
                    "time": 3.2093620000000005,
                    "velocity": 0.5511811023622047,
                    "duration": 0.047196500000000086
                },
                {
                    "name": "E5",
                    "midi": 76,
                    "time": 3.2093620000000005,
                    "velocity": 0.4645669291338583,
                    "duration": 0.047196500000000086
                },
                {
                    "name": "E6",
                    "midi": 88,
                    "time": 3.3981480000000004,
                    "velocity": 0.6377952755905512,
                    "duration": 0.5663579999999997
                },
                {
                    "name": "C#6",
                    "midi": 85,
                    "time": 3.3981480000000004,
                    "velocity": 0.6377952755905512,
                    "duration": 0.1887859999999999
                },
                {
                    "name": "A5",
                    "midi": 81,
                    "time": 3.3981480000000004,
                    "velocity": 0.5354330708661418,
                    "duration": 0.1887859999999999
                },
                {
                    "name": "E5",
                    "midi": 76,
                    "time": 3.5869340000000003,
                    "velocity": 0.4645669291338583,
                    "duration": 0.047196500000000086
                },
                {
                    "name": "B5",
                    "midi": 83,
                    "time": 3.5869340000000003,
                    "velocity": 0.5511811023622047,
                    "duration": 0.047196500000000086
                },
                {
                    "name": "E5",
                    "midi": 76,
                    "time": 3.77572,
                    "velocity": 0.4645669291338583,
                    "duration": 0.047196500000000086
                },
                {
                    "name": "B5",
                    "midi": 83,
                    "time": 3.77572,
                    "velocity": 0.5511811023622047,
                    "duration": 0.047196500000000086
                },
                {
                    "name": "E6",
                    "midi": 88,
                    "time": 3.964506,
                    "velocity": 0.5984251968503937,
                    "duration": 0.566358000000001
                },
                {
                    "name": "C#6",
                    "midi": 85,
                    "time": 3.964506,
                    "velocity": 0.5984251968503937,
                    "duration": 0.18878600000000034
                },
                {
                    "name": "A5",
                    "midi": 81,
                    "time": 3.964506,
                    "velocity": 0.5039370078740157,
                    "duration": 0.18878600000000034
                },
                {
                    "name": "E5",
                    "midi": 76,
                    "time": 4.153292,
                    "velocity": 0.4645669291338583,
                    "duration": 0.047196500000000086
                },
                {
                    "name": "B5",
                    "midi": 83,
                    "time": 4.153292,
                    "velocity": 0.5511811023622047,
                    "duration": 0.047196500000000086
                },
                {
                    "name": "E5",
                    "midi": 76,
                    "time": 4.342078000000001,
                    "velocity": 0.4645669291338583,
                    "duration": 0.047196500000000086
                },
                {
                    "name": "B5",
                    "midi": 83,
                    "time": 4.342078000000001,
                    "velocity": 0.5511811023622047,
                    "duration": 0.047196500000000086
                },
                {
                    "name": "E6",
                    "midi": 88,
                    "time": 4.530864000000001,
                    "velocity": 0.6535433070866141,
                    "duration": 0.3775719999999998
                },
                {
                    "name": "A5",
                    "midi": 81,
                    "time": 4.530864000000001,
                    "velocity": 0.5590551181102362,
                    "duration": 0.3775719999999998
                },
                {
                    "name": "E4",
                    "midi": 64,
                    "time": 5.380401000000001,
                    "velocity": 0.4645669291338583,
                    "duration": 0.0849536999999998
                },
                {
                    "name": "A4",
                    "midi": 69,
                    "time": 5.380401000000001,
                    "velocity": 0.5511811023622047,
                    "duration": 0.0849536999999998
                },
                {
                    "name": "A4",
                    "midi": 69,
                    "time": 5.474794000000001,
                    "velocity": 0.5354330708661418,
                    "duration": 0.14158950000000026
                },
                {
                    "name": "E4",
                    "midi": 64,
                    "time": 5.474794000000001,
                    "velocity": 0.44881889763779526,
                    "duration": 0.14158950000000026
                },
                {
                    "name": "E4",
                    "midi": 64,
                    "time": 5.663580000000001,
                    "velocity": 0.4645669291338583,
                    "duration": 0.18878600000000034
                },
                {
                    "name": "A4",
                    "midi": 69,
                    "time": 5.663580000000001,
                    "velocity": 0.5511811023622047,
                    "duration": 0.18878600000000034
                },
                {
                    "name": "B4",
                    "midi": 71,
                    "time": 5.852366000000002,
                    "velocity": 0.5433070866141733,
                    "duration": 0.18878600000000034
                },
                {
                    "name": "G#4",
                    "midi": 68,
                    "time": 5.852366000000002,
                    "velocity": 0.4566929133858268,
                    "duration": 0.18878600000000034
                },
                {
                    "name": "C#5",
                    "midi": 73,
                    "time": 6.041152000000002,
                    "velocity": 0.5433070866141733,
                    "duration": 0.09439300000000017
                },
                {
                    "name": "A4",
                    "midi": 69,
                    "time": 6.041152000000002,
                    "velocity": 0.5433070866141733,
                    "duration": 0.09439300000000017
                },
                {
                    "name": "E4",
                    "midi": 64,
                    "time": 6.041152000000002,
                    "velocity": 0.4566929133858268,
                    "duration": 0.09439300000000017
                },
                {
                    "name": "C#5",
                    "midi": 73,
                    "time": 6.229938000000002,
                    "velocity": 0.5748031496062992,
                    "duration": 0.3775719999999998
                },
                {
                    "name": "A4",
                    "midi": 69,
                    "time": 6.229938000000002,
                    "velocity": 0.5748031496062992,
                    "duration": 0.3775719999999998
                },
                {
                    "name": "E4",
                    "midi": 64,
                    "time": 6.229938000000002,
                    "velocity": 0.4881889763779528,
                    "duration": 0.3775719999999998
                },
                {
                    "name": "C#5",
                    "midi": 73,
                    "time": 6.607510000000002,
                    "velocity": 0.5118110236220472,
                    "duration": 0.14158950000000026
                },
                {
                    "name": "A4",
                    "midi": 69,
                    "time": 6.607510000000002,
                    "velocity": 0.4330708661417323,
                    "duration": 0.14158950000000026
                },
                {
                    "name": "A4",
                    "midi": 69,
                    "time": 6.796296000000003,
                    "velocity": 0.4645669291338583,
                    "duration": 0.18878600000000034
                },
                {
                    "name": "C#5",
                    "midi": 73,
                    "time": 6.796296000000003,
                    "velocity": 0.5511811023622047,
                    "duration": 0.18878600000000034
                },
                {
                    "name": "D5",
                    "midi": 74,
                    "time": 6.985082000000003,
                    "velocity": 0.5196850393700787,
                    "duration": 0.18878600000000034
                },
                {
                    "name": "B4",
                    "midi": 71,
                    "time": 6.985082000000003,
                    "velocity": 0.4409448818897638,
                    "duration": 0.18878600000000034
                },
                {
                    "name": "E5",
                    "midi": 76,
                    "time": 7.173868000000003,
                    "velocity": 0.5039370078740157,
                    "duration": 0.09439300000000017
                },
                {
                    "name": "C#5",
                    "midi": 73,
                    "time": 7.173868000000003,
                    "velocity": 0.4251968503937008,
                    "duration": 0.09439300000000017
                },
                {
                    "name": "A4",
                    "midi": 69,
                    "time": 7.173868000000003,
                    "velocity": 0.4251968503937008,
                    "duration": 0.09439300000000017
                },
                {
                    "name": "E5",
                    "midi": 76,
                    "time": 7.362654000000004,
                    "velocity": 0.6141732283464567,
                    "duration": 0.2831789999999996
                },
                {
                    "name": "C#5",
                    "midi": 73,
                    "time": 7.362654000000004,
                    "velocity": 0.5196850393700787,
                    "duration": 0.2831789999999996
                },
                {
                    "name": "A4",
                    "midi": 69,
                    "time": 7.362654000000004,
                    "velocity": 0.5196850393700787,
                    "duration": 0.2831789999999996
                },
                {
                    "name": "D5",
                    "midi": 74,
                    "time": 7.645833000000003,
                    "velocity": 0.4645669291338583,
                    "duration": 0.0849536999999998
                },
                {
                    "name": "F#5",
                    "midi": 78,
                    "time": 7.645833000000003,
                    "velocity": 0.5511811023622047,
                    "duration": 0.0849536999999998
                },
                {
                    "name": "D5",
                    "midi": 74,
                    "time": 7.740226000000003,
                    "velocity": 0.4881889763779528,
                    "duration": 0.14158950000000026
                },
                {
                    "name": "F#5",
                    "midi": 78,
                    "time": 7.740226000000003,
                    "velocity": 0.5748031496062992,
                    "duration": 0.14158950000000026
                },
                {
                    "name": "A5",
                    "midi": 81,
                    "time": 7.929012000000004,
                    "velocity": 0.6299212598425197,
                    "duration": 0.2831790000000005
                },
                {
                    "name": "F#5",
                    "midi": 78,
                    "time": 7.929012000000004,
                    "velocity": 0.5354330708661418,
                    "duration": 0.2831790000000005
                },
                {
                    "name": "A4",
                    "midi": 69,
                    "time": 7.929012000000004,
                    "velocity": 0.5354330708661418,
                    "duration": 0.2831790000000005
                },
                {
                    "name": "F#5",
                    "midi": 78,
                    "time": 8.212191000000004,
                    "velocity": 0.48031496062992124,
                    "duration": 0.0849536999999998
                },
                {
                    "name": "A5",
                    "midi": 81,
                    "time": 8.212191000000004,
                    "velocity": 0.5669291338582677,
                    "duration": 0.0849536999999998
                },
                {
                    "name": "A5",
                    "midi": 81,
                    "time": 8.306584000000004,
                    "velocity": 0.5669291338582677,
                    "duration": 0.14158950000000026
                },
                {
                    "name": "F#5",
                    "midi": 78,
                    "time": 8.306584000000004,
                    "velocity": 0.48031496062992124,
                    "duration": 0.14158950000000026
                },
                {
                    "name": "A4",
                    "midi": 69,
                    "time": 8.495370000000005,
                    "velocity": 0.5196850393700787,
                    "duration": 0.18878600000000034
                },
                {
                    "name": "F#5",
                    "midi": 78,
                    "time": 8.495370000000005,
                    "velocity": 0.5196850393700787,
                    "duration": 0.18878600000000034
                },
                {
                    "name": "A5",
                    "midi": 81,
                    "time": 8.495370000000005,
                    "velocity": 0.6141732283464567,
                    "duration": 0.18878600000000034
                },
                {
                    "name": "G#5",
                    "midi": 80,
                    "time": 8.684156000000005,
                    "velocity": 0.5196850393700787,
                    "duration": 0.18878600000000034
                },
                {
                    "name": "E5",
                    "midi": 76,
                    "time": 8.684156000000005,
                    "velocity": 0.4409448818897638,
                    "duration": 0.18878600000000034
                },
                {
                    "name": "F#5",
                    "midi": 78,
                    "time": 8.872942000000005,
                    "velocity": 0.5196850393700787,
                    "duration": 0.09439300000000017
                },
                {
                    "name": "D5",
                    "midi": 74,
                    "time": 8.872942000000005,
                    "velocity": 0.4409448818897638,
                    "duration": 0.09439300000000017
                },
                {
                    "name": "F#5",
                    "midi": 78,
                    "time": 9.061728000000006,
                    "velocity": 0.5984251968503937,
                    "duration": 0.5663579999999993
                },
                {
                    "name": "D5",
                    "midi": 74,
                    "time": 9.061728000000006,
                    "velocity": 0.5039370078740157,
                    "duration": 0.5663579999999993
                },
                {
                    "name": "A4",
                    "midi": 69,
                    "time": 9.061728000000006,
                    "velocity": 0.5039370078740157,
                    "duration": 0.5663579999999993
                },
                {
                    "name": "E5",
                    "midi": 76,
                    "time": 9.628086000000005,
                    "velocity": 0.5196850393700787,
                    "duration": 0.18878600000000034
                },
                {
                    "name": "C#5",
                    "midi": 73,
                    "time": 9.628086000000005,
                    "velocity": 0.4409448818897638,
                    "duration": 0.18878600000000034
                },
                {
                    "name": "E4",
                    "midi": 64,
                    "time": 9.911265000000006,
                    "velocity": 0.4645669291338583,
                    "duration": 0.0849536999999998
                },
                {
                    "name": "A4",
                    "midi": 69,
                    "time": 9.911265000000006,
                    "velocity": 0.5511811023622047,
                    "duration": 0.0849536999999998
                },
                {
                    "name": "A4",
                    "midi": 69,
                    "time": 10.005658000000006,
                    "velocity": 0.5354330708661418,
                    "duration": 0.14158950000000026
                },
                {
                    "name": "E4",
                    "midi": 64,
                    "time": 10.005658000000006,
                    "velocity": 0.44881889763779526,
                    "duration": 0.14158950000000026
                },
                {
                    "name": "E4",
                    "midi": 64,
                    "time": 10.194444000000006,
                    "velocity": 0.4645669291338583,
                    "duration": 0.18878600000000034
                },
                {
                    "name": "A4",
                    "midi": 69,
                    "time": 10.194444000000006,
                    "velocity": 0.5511811023622047,
                    "duration": 0.18878600000000034
                },
                {
                    "name": "B4",
                    "midi": 71,
                    "time": 10.383230000000006,
                    "velocity": 0.5433070866141733,
                    "duration": 0.18878600000000034
                },
                {
                    "name": "G#4",
                    "midi": 68,
                    "time": 10.383230000000006,
                    "velocity": 0.4566929133858268,
                    "duration": 0.18878600000000034
                },
                {
                    "name": "C#5",
                    "midi": 73,
                    "time": 10.572016000000007,
                    "velocity": 0.5433070866141733,
                    "duration": 0.09439300000000017
                },
                {
                    "name": "A4",
                    "midi": 69,
                    "time": 10.572016000000007,
                    "velocity": 0.5433070866141733,
                    "duration": 0.09439300000000017
                },
                {
                    "name": "E4",
                    "midi": 64,
                    "time": 10.572016000000007,
                    "velocity": 0.4566929133858268,
                    "duration": 0.09439300000000017
                },
                {
                    "name": "C#5",
                    "midi": 73,
                    "time": 10.760802000000007,
                    "velocity": 0.5748031496062992,
                    "duration": 0.3775720000000007
                },
                {
                    "name": "A4",
                    "midi": 69,
                    "time": 10.760802000000007,
                    "velocity": 0.5748031496062992,
                    "duration": 0.3775720000000007
                },
                {
                    "name": "E4",
                    "midi": 64,
                    "time": 10.760802000000007,
                    "velocity": 0.4881889763779528,
                    "duration": 0.3775720000000007
                },
                {
                    "name": "C#5",
                    "midi": 73,
                    "time": 11.138374000000008,
                    "velocity": 0.5118110236220472,
                    "duration": 0.14158950000000026
                },
                {
                    "name": "A4",
                    "midi": 69,
                    "time": 11.138374000000008,
                    "velocity": 0.4330708661417323,
                    "duration": 0.14158950000000026
                },
                {
                    "name": "A4",
                    "midi": 69,
                    "time": 11.327160000000008,
                    "velocity": 0.4645669291338583,
                    "duration": 0.18878600000000034
                },
                {
                    "name": "C#5",
                    "midi": 73,
                    "time": 11.327160000000008,
                    "velocity": 0.5511811023622047,
                    "duration": 0.18878600000000034
                },
                {
                    "name": "D5",
                    "midi": 74,
                    "time": 11.515946000000008,
                    "velocity": 0.5196850393700787,
                    "duration": 0.18878600000000034
                },
                {
                    "name": "B4",
                    "midi": 71,
                    "time": 11.515946000000008,
                    "velocity": 0.4409448818897638,
                    "duration": 0.18878600000000034
                },
                {
                    "name": "E5",
                    "midi": 76,
                    "time": 11.704732000000009,
                    "velocity": 0.5039370078740157,
                    "duration": 0.09439300000000017
                },
                {
                    "name": "C#5",
                    "midi": 73,
                    "time": 11.704732000000009,
                    "velocity": 0.4251968503937008,
                    "duration": 0.09439300000000017
                },
                {
                    "name": "A4",
                    "midi": 69,
                    "time": 11.704732000000009,
                    "velocity": 0.4251968503937008,
                    "duration": 0.09439300000000017
                },
                {
                    "name": "E5",
                    "midi": 76,
                    "time": 11.89351800000001,
                    "velocity": 0.6141732283464567,
                    "duration": 0.2831790000000005
                },
                {
                    "name": "C#5",
                    "midi": 73,
                    "time": 11.89351800000001,
                    "velocity": 0.5196850393700787,
                    "duration": 0.2831790000000005
                },
                {
                    "name": "A4",
                    "midi": 69,
                    "time": 11.89351800000001,
                    "velocity": 0.5196850393700787,
                    "duration": 0.2831790000000005
                },
                {
                    "name": "C#5",
                    "midi": 73,
                    "time": 12.17669700000001,
                    "velocity": 0.3464566929133858,
                    "duration": 0.0849536999999998
                },
                {
                    "name": "F#5",
                    "midi": 78,
                    "time": 12.17669700000001,
                    "velocity": 0.4094488188976378,
                    "duration": 0.0849536999999998
                },
                {
                    "name": "C#5",
                    "midi": 73,
                    "time": 12.27109000000001,
                    "velocity": 0.36220472440944884,
                    "duration": 0.14158950000000026
                },
                {
                    "name": "F#5",
                    "midi": 78,
                    "time": 12.27109000000001,
                    "velocity": 0.4251968503937008,
                    "duration": 0.14158950000000026
                },
                {
                    "name": "A5",
                    "midi": 81,
                    "time": 12.45987600000001,
                    "velocity": 0.47244094488188976,
                    "duration": 0.2831790000000005
                },
                {
                    "name": "C#5",
                    "midi": 73,
                    "time": 12.45987600000001,
                    "velocity": 0.4015748031496063,
                    "duration": 0.2831790000000005
                },
                {
                    "name": "C#5",
                    "midi": 73,
                    "time": 12.74305500000001,
                    "velocity": 0.3543307086614173,
                    "duration": 0.0849536999999998
                },
                {
                    "name": "A5",
                    "midi": 81,
                    "time": 12.74305500000001,
                    "velocity": 0.4251968503937008,
                    "duration": 0.0849536999999998
                },
                {
                    "name": "A5",
                    "midi": 81,
                    "time": 12.83744800000001,
                    "velocity": 0.4251968503937008,
                    "duration": 0.14158950000000026
                },
                {
                    "name": "C#5",
                    "midi": 73,
                    "time": 12.83744800000001,
                    "velocity": 0.3543307086614173,
                    "duration": 0.14158950000000026
                },
                {
                    "name": "C#5",
                    "midi": 73,
                    "time": 13.026234000000011,
                    "velocity": 0.4015748031496063,
                    "duration": 1.4158950000000026
                },
                {
                    "name": "A5",
                    "midi": 81,
                    "time": 13.026234000000011,
                    "velocity": 0.47244094488188976,
                    "duration": 0.18878600000000034
                },
                {
                    "name": "G#5",
                    "midi": 80,
                    "time": 13.215020000000012,
                    "velocity": 0.47244094488188976,
                    "duration": 0.18878600000000034
                },
                {
                    "name": "F#5",
                    "midi": 78,
                    "time": 13.403806000000012,
                    "velocity": 0.47244094488188976,
                    "duration": 0.18878600000000034
                },
                {
                    "name": "C#6",
                    "midi": 85,
                    "time": 13.592592000000012,
                    "velocity": 0.47244094488188976,
                    "duration": 0.18878600000000034
                },
                {
                    "name": "A5",
                    "midi": 81,
                    "time": 13.781378000000013,
                    "velocity": 0.47244094488188976,
                    "duration": 0.18878600000000034
                },
                {
                    "name": "G#5",
                    "midi": 80,
                    "time": 13.970164000000013,
                    "velocity": 0.4330708661417323,
                    "duration": 0.18878600000000034
                },
                {
                    "name": "F#5",
                    "midi": 78,
                    "time": 14.158950000000013,
                    "velocity": 0.4330708661417323,
                    "duration": 0.2831790000000005
                },
                {
                    "name": "C#5",
                    "midi": 73,
                    "time": 14.442129000000014,
                    "velocity": 0.3543307086614173,
                    "duration": 0.0849536999999998
                },
                {
                    "name": "F#5",
                    "midi": 78,
                    "time": 14.442129000000014,
                    "velocity": 0.4251968503937008,
                    "duration": 0.0849536999999998
                },
                {
                    "name": "F#5",
                    "midi": 78,
                    "time": 14.536522000000014,
                    "velocity": 0.4251968503937008,
                    "duration": 0.14158950000000026
                },
                {
                    "name": "C#5",
                    "midi": 73,
                    "time": 14.536522000000014,
                    "velocity": 0.3543307086614173,
                    "duration": 0.14158950000000026
                },
                {
                    "name": "C#5",
                    "midi": 73,
                    "time": 14.725308000000014,
                    "velocity": 0.4015748031496063,
                    "duration": 1.8878600000000016
                },
                {
                    "name": "A5",
                    "midi": 81,
                    "time": 14.725308000000014,
                    "velocity": 0.47244094488188976,
                    "duration": 0.2831790000000005
                },
                {
                    "name": "A5",
                    "midi": 81,
                    "time": 15.008487000000015,
                    "velocity": 0.4251968503937008,
                    "duration": 0.0849536999999998
                },
                {
                    "name": "A5",
                    "midi": 81,
                    "time": 15.102880000000015,
                    "velocity": 0.4251968503937008,
                    "duration": 0.14158950000000026
                },
                {
                    "name": "A5",
                    "midi": 81,
                    "time": 15.291666000000015,
                    "velocity": 0.47244094488188976,
                    "duration": 0.18878600000000034
                },
                {
                    "name": "G#5",
                    "midi": 80,
                    "time": 15.480452000000016,
                    "velocity": 0.47244094488188976,
                    "duration": 0.18878600000000034
                },
                {
                    "name": "F#5",
                    "midi": 78,
                    "time": 15.669238000000016,
                    "velocity": 0.47244094488188976,
                    "duration": 0.18878600000000034
                },
                {
                    "name": "C#6",
                    "midi": 85,
                    "time": 15.858024000000016,
                    "velocity": 0.47244094488188976,
                    "duration": 0.18878599999999857
                },
                {
                    "name": "A5",
                    "midi": 81,
                    "time": 16.046810000000015,
                    "velocity": 0.47244094488188976,
                    "duration": 0.18878600000000034
                },
                {
                    "name": "G#5",
                    "midi": 80,
                    "time": 16.235596000000015,
                    "velocity": 0.4330708661417323,
                    "duration": 0.18878600000000034
                },
                {
                    "name": "F#5",
                    "midi": 78,
                    "time": 16.424382000000016,
                    "velocity": 0.4330708661417323,
                    "duration": 0.18878600000000034
                },
                {
                    "name": "B5",
                    "midi": 83,
                    "time": 16.613168000000016,
                    "velocity": 0.6535433070866141,
                    "duration": 0.09439300000000017
                },
                {
                    "name": "B4",
                    "midi": 71,
                    "time": 16.613168000000016,
                    "velocity": 0.5511811023622047,
                    "duration": 0.09439300000000017
                },
                {
                    "name": "B4",
                    "midi": 71,
                    "time": 16.801954000000016,
                    "velocity": 0.5196850393700787,
                    "duration": 0.09439300000000017
                },
                {
                    "name": "B5",
                    "midi": 83,
                    "time": 16.801954000000016,
                    "velocity": 0.6141732283464567,
                    "duration": 0.09439300000000017
                },
                {
                    "name": "B4",
                    "midi": 71,
                    "time": 16.990740000000017,
                    "velocity": 0.5826771653543307,
                    "duration": 0.566358000000001
                },
                {
                    "name": "B5",
                    "midi": 83,
                    "time": 16.990740000000017,
                    "velocity": 0.6929133858267716,
                    "duration": 0.566358000000001
                },
                {
                    "name": "B4",
                    "midi": 71,
                    "time": 17.557098000000018,
                    "velocity": 0.5590551181102362,
                    "duration": 0.566358000000001
                },
                {
                    "name": "B5",
                    "midi": 83,
                    "time": 17.557098000000018,
                    "velocity": 0.6614173228346457,
                    "duration": 0.566358000000001
                },
                {
                    "name": "B4",
                    "midi": 71,
                    "time": 18.12345600000002,
                    "velocity": 0.6771653543307087,
                    "duration": 0.2831790000000005
                },
                {
                    "name": "B5",
                    "midi": 83,
                    "time": 18.12345600000002,
                    "velocity": 0.6771653543307087,
                    "duration": 0.7551440000000014
                },
                {
                    "name": "B4",
                    "midi": 71,
                    "time": 18.40663500000002,
                    "velocity": 0.5590551181102362,
                    "duration": 0.0849536999999998
                },
                {
                    "name": "B4",
                    "midi": 71,
                    "time": 18.50102800000002,
                    "velocity": 0.5590551181102362,
                    "duration": 0.09439300000000017
                },
                {
                    "name": "B4",
                    "midi": 71,
                    "time": 18.68981400000002,
                    "velocity": 0.6692913385826772,
                    "duration": 0.18878600000000034
                },
                {
                    "name": "E5",
                    "midi": 76,
                    "time": 18.87860000000002,
                    "velocity": 0.4566929133858268,
                    "duration": 0.09439300000000017
                },
                {
                    "name": "B4",
                    "midi": 71,
                    "time": 18.87860000000002,
                    "velocity": 0.3858267716535433,
                    "duration": 0.09439300000000017
                },
                {
                    "name": "B4",
                    "midi": 71,
                    "time": 19.06738600000002,
                    "velocity": 0.3543307086614173,
                    "duration": 0.09439300000000017
                },
                {
                    "name": "E5",
                    "midi": 76,
                    "time": 19.06738600000002,
                    "velocity": 0.41732283464566927,
                    "duration": 0.09439300000000017
                },
                {
                    "name": "E5",
                    "midi": 76,
                    "time": 19.25617200000002,
                    "velocity": 0.4881889763779528,
                    "duration": 0.18878600000000034
                },
                {
                    "name": "B4",
                    "midi": 71,
                    "time": 19.25617200000002,
                    "velocity": 0.4094488188976378,
                    "duration": 0.18878600000000034
                },
                {
                    "name": "D#5",
                    "midi": 75,
                    "time": 19.44495800000002,
                    "velocity": 0.3543307086614173,
                    "duration": 0.18878600000000034
                },
                {
                    "name": "F#5",
                    "midi": 78,
                    "time": 19.44495800000002,
                    "velocity": 0.41732283464566927,
                    "duration": 0.18878600000000034
                },
                {
                    "name": "G#5",
                    "midi": 80,
                    "time": 19.63374400000002,
                    "velocity": 0.3858267716535433,
                    "duration": 0.09439300000000017
                },
                {
                    "name": "E5",
                    "midi": 76,
                    "time": 19.63374400000002,
                    "velocity": 0.3228346456692913,
                    "duration": 0.09439300000000017
                },
                {
                    "name": "G#5",
                    "midi": 80,
                    "time": 19.82253000000002,
                    "velocity": 0.41732283464566927,
                    "duration": 0.3775720000000007
                },
                {
                    "name": "E5",
                    "midi": 76,
                    "time": 19.82253000000002,
                    "velocity": 0.3543307086614173,
                    "duration": 0.3775720000000007
                },
                {
                    "name": "G#5",
                    "midi": 80,
                    "time": 20.200102000000022,
                    "velocity": 0.4330708661417323,
                    "duration": 0.09439300000000017
                },
                {
                    "name": "E5",
                    "midi": 76,
                    "time": 20.200102000000022,
                    "velocity": 0.36220472440944884,
                    "duration": 0.09439300000000017
                },
                {
                    "name": "G#5",
                    "midi": 80,
                    "time": 20.388888000000023,
                    "velocity": 0.6141732283464567,
                    "duration": 0.18878600000000034
                },
                {
                    "name": "E5",
                    "midi": 76,
                    "time": 20.388888000000023,
                    "velocity": 0.5196850393700787,
                    "duration": 0.18878600000000034
                },
                {
                    "name": "C#6",
                    "midi": 85,
                    "time": 20.577674000000023,
                    "velocity": 0.5354330708661418,
                    "duration": 0.18878600000000034
                },
                {
                    "name": "E6",
                    "midi": 88,
                    "time": 20.766460000000023,
                    "velocity": 0.5590551181102362,
                    "duration": 0.09439300000000017
                },
                {
                    "name": "E6",
                    "midi": 88,
                    "time": 20.955246000000024,
                    "velocity": 0.6220472440944882,
                    "duration": 0.2831790000000005
                },
                {
                    "name": "E5",
                    "midi": 76,
                    "time": 21.238425000000024,
                    "velocity": 0.5669291338582677,
                    "duration": 0.0849536999999998
                },
                {
                    "name": "C#5",
                    "midi": 73,
                    "time": 21.238425000000024,
                    "velocity": 0.48031496062992124,
                    "duration": 0.0849536999999998
                },
                {
                    "name": "E5",
                    "midi": 76,
                    "time": 21.332818000000024,
                    "velocity": 0.5905511811023622,
                    "duration": 0.09439300000000017
                },
                {
                    "name": "C#5",
                    "midi": 73,
                    "time": 21.332818000000024,
                    "velocity": 0.49606299212598426,
                    "duration": 0.09439300000000017
                },
                {
                    "name": "E5",
                    "midi": 76,
                    "time": 21.521604000000025,
                    "velocity": 0.6377952755905512,
                    "duration": 0.18878600000000034
                },
                {
                    "name": "B4",
                    "midi": 71,
                    "time": 21.521604000000025,
                    "velocity": 0.5433070866141733,
                    "duration": 0.18878600000000034
                },
                {
                    "name": "D#5",
                    "midi": 75,
                    "time": 21.710390000000025,
                    "velocity": 0.4645669291338583,
                    "duration": 0.18878600000000034
                },
                {
                    "name": "F#5",
                    "midi": 78,
                    "time": 21.710390000000025,
                    "velocity": 0.5511811023622047,
                    "duration": 0.18878600000000034
                },
                {
                    "name": "G#5",
                    "midi": 80,
                    "time": 21.899176000000026,
                    "velocity": 0.5196850393700787,
                    "duration": 0.09439300000000017
                },
                {
                    "name": "E5",
                    "midi": 76,
                    "time": 21.899176000000026,
                    "velocity": 0.4330708661417323,
                    "duration": 0.09439300000000017
                },
                {
                    "name": "G#5",
                    "midi": 80,
                    "time": 22.087962000000026,
                    "velocity": 0.5669291338582677,
                    "duration": 0.3775720000000007
                },
                {
                    "name": "E5",
                    "midi": 76,
                    "time": 22.087962000000026,
                    "velocity": 0.48031496062992124,
                    "duration": 0.3775720000000007
                },
                {
                    "name": "G#5",
                    "midi": 80,
                    "time": 22.465534000000027,
                    "velocity": 0.6062992125984252,
                    "duration": 0.09439300000000017
                },
                {
                    "name": "E5",
                    "midi": 76,
                    "time": 22.465534000000027,
                    "velocity": 0.49606299212598426,
                    "duration": 0.09439300000000017
                },
                {
                    "name": "G#5",
                    "midi": 80,
                    "time": 22.654320000000027,
                    "velocity": 0.7559055118110236,
                    "duration": 0.18878600000000034
                },
                {
                    "name": "E5",
                    "midi": 76,
                    "time": 22.654320000000027,
                    "velocity": 0.6456692913385826,
                    "duration": 0.18878600000000034
                },
                {
                    "name": "C#6",
                    "midi": 85,
                    "time": 22.843106000000027,
                    "velocity": 0.6692913385826772,
                    "duration": 0.18878600000000034
                },
                {
                    "name": "E6",
                    "midi": 88,
                    "time": 23.031892000000028,
                    "velocity": 0.7165354330708661,
                    "duration": 0.09439300000000017
                },
                {
                    "name": "E6",
                    "midi": 88,
                    "time": 23.220678000000028,
                    "velocity": 0.8031496062992126,
                    "duration": 0.2831790000000005
                },
                {
                    "name": "E5",
                    "midi": 76,
                    "time": 23.50385700000003,
                    "velocity": 0.6535433070866141,
                    "duration": 0.0849536999999998
                },
                {
                    "name": "C#5",
                    "midi": 73,
                    "time": 23.50385700000003,
                    "velocity": 0.5511811023622047,
                    "duration": 0.0849536999999998
                },
                {
                    "name": "E5",
                    "midi": 76,
                    "time": 23.59825000000003,
                    "velocity": 0.6771653543307087,
                    "duration": 0.09439300000000017
                },
                {
                    "name": "C#5",
                    "midi": 73,
                    "time": 23.59825000000003,
                    "velocity": 0.5748031496062992,
                    "duration": 0.09439300000000017
                },
                {
                    "name": "E5",
                    "midi": 76,
                    "time": 23.78703600000003,
                    "velocity": 0.6535433070866141,
                    "duration": 0.2831790000000005
                },
                {
                    "name": "B4",
                    "midi": 71,
                    "time": 23.78703600000003,
                    "velocity": 0.5511811023622047,
                    "duration": 0.2831790000000005
                },
                {
                    "name": "F#5",
                    "midi": 78,
                    "time": 24.07021500000003,
                    "velocity": 0.6929133858267716,
                    "duration": 0.09439300000000017
                },
                {
                    "name": "G#5",
                    "midi": 80,
                    "time": 24.16460800000003,
                    "velocity": 0.6377952755905512,
                    "duration": 0.09439300000000017
                },
                {
                    "name": "G#5",
                    "midi": 80,
                    "time": 24.35339400000003,
                    "velocity": 0.7637795275590551,
                    "duration": 0.18878600000000034
                },
                {
                    "name": "E5",
                    "midi": 76,
                    "time": 24.35339400000003,
                    "velocity": 0.6456692913385826,
                    "duration": 0.18878600000000034
                },
                {
                    "name": "B5",
                    "midi": 83,
                    "time": 24.54218000000003,
                    "velocity": 0.6692913385826772,
                    "duration": 0.18878600000000034
                },
                {
                    "name": "E6",
                    "midi": 88,
                    "time": 24.73096600000003,
                    "velocity": 0.7086614173228346,
                    "duration": 0.09439300000000017
                },
                {
                    "name": "A5",
                    "midi": 81,
                    "time": 24.91975200000003,
                    "velocity": 0.7480314960629921,
                    "duration": 0.7551440000000014
                },
                {
                    "name": "E5",
                    "midi": 76,
                    "time": 24.91975200000003,
                    "velocity": 0.7480314960629921,
                    "duration": 0.7551440000000014
                },
                {
                    "name": "E6",
                    "midi": 88,
                    "time": 24.91975200000003,
                    "velocity": 0.8818897637795275,
                    "duration": 0.7551440000000014
                },
                {
                    "name": "D#6",
                    "midi": 87,
                    "time": 25.674896000000032,
                    "velocity": 0.6141732283464567,
                    "duration": 0.09439300000000017
                },
                {
                    "name": "C#6",
                    "midi": 85,
                    "time": 25.863682000000033,
                    "velocity": 0.5669291338582677,
                    "duration": 0.09439300000000017
                },
                {
                    "name": "B5",
                    "midi": 83,
                    "time": 26.052468000000033,
                    "velocity": 0.6299212598425197,
                    "duration": 0.09439300000000017
                },
                {
                    "name": "A5",
                    "midi": 81,
                    "time": 26.241254000000033,
                    "velocity": 0.5354330708661418,
                    "duration": 0.09439300000000017
                },
                {
                    "name": "G#5",
                    "midi": 80,
                    "time": 26.430040000000034,
                    "velocity": 0.48031496062992124,
                    "duration": 0.09439300000000017
                },
                {
                    "name": "A5",
                    "midi": 81,
                    "time": 26.618826000000034,
                    "velocity": 0.5669291338582677,
                    "duration": 0.09439300000000017
                },
                {
                    "name": "F#5",
                    "midi": 78,
                    "time": 26.807612000000034,
                    "velocity": 0.4881889763779528,
                    "duration": 0.09439300000000017
                },
                {
                    "name": "D#5",
                    "midi": 75,
                    "time": 26.996398000000035,
                    "velocity": 0.4881889763779528,
                    "duration": 0.09439300000000017
                },
                {
                    "name": "B6",
                    "midi": 95,
                    "time": 27.185184000000035,
                    "velocity": 0.6377952755905512,
                    "duration": 0.7551440000000014
                },
                {
                    "name": "B5",
                    "midi": 83,
                    "time": 27.185184000000035,
                    "velocity": 0.5354330708661418,
                    "duration": 0.7551440000000014
                },
                {
                    "name": "A5",
                    "midi": 81,
                    "time": 27.940328000000036,
                    "velocity": 0.4645669291338583,
                    "duration": 0.09439300000000017
                },
                {
                    "name": "A6",
                    "midi": 93,
                    "time": 27.940328000000036,
                    "velocity": 0.5511811023622047,
                    "duration": 0.09439300000000017
                },
                {
                    "name": "G#5",
                    "midi": 80,
                    "time": 28.129114000000037,
                    "velocity": 0.4645669291338583,
                    "duration": 0.09439300000000017
                },
                {
                    "name": "G#6",
                    "midi": 92,
                    "time": 28.129114000000037,
                    "velocity": 0.5511811023622047,
                    "duration": 0.09439300000000017
                },
                {
                    "name": "F#6",
                    "midi": 90,
                    "time": 28.317900000000037,
                    "velocity": 0.6220472440944882,
                    "duration": 0.09439300000000017
                },
                {
                    "name": "F#5",
                    "midi": 78,
                    "time": 28.317900000000037,
                    "velocity": 0.5275590551181102,
                    "duration": 0.09439300000000017
                },
                {
                    "name": "E5",
                    "midi": 76,
                    "time": 28.506686000000037,
                    "velocity": 0.4645669291338583,
                    "duration": 0.09439300000000017
                },
                {
                    "name": "E6",
                    "midi": 88,
                    "time": 28.506686000000037,
                    "velocity": 0.5511811023622047,
                    "duration": 0.09439300000000017
                },
                {
                    "name": "D#5",
                    "midi": 75,
                    "time": 28.695472000000038,
                    "velocity": 0.4645669291338583,
                    "duration": 0.09439300000000017
                },
                {
                    "name": "D#6",
                    "midi": 87,
                    "time": 28.695472000000038,
                    "velocity": 0.5511811023622047,
                    "duration": 0.09439300000000017
                },
                {
                    "name": "C#6",
                    "midi": 85,
                    "time": 28.884258000000038,
                    "velocity": 0.5984251968503937,
                    "duration": 0.09439300000000017
                },
                {
                    "name": "C#5",
                    "midi": 73,
                    "time": 28.884258000000038,
                    "velocity": 0.5039370078740157,
                    "duration": 0.09439300000000017
                },
                {
                    "name": "B4",
                    "midi": 71,
                    "time": 29.07304400000004,
                    "velocity": 0.4645669291338583,
                    "duration": 0.09439300000000017
                },
                {
                    "name": "B5",
                    "midi": 83,
                    "time": 29.07304400000004,
                    "velocity": 0.5511811023622047,
                    "duration": 0.09439300000000017
                },
                {
                    "name": "A#4",
                    "midi": 70,
                    "time": 29.26183000000004,
                    "velocity": 0.4645669291338583,
                    "duration": 0.09439300000000017
                },
                {
                    "name": "A#5",
                    "midi": 82,
                    "time": 29.26183000000004,
                    "velocity": 0.5511811023622047,
                    "duration": 0.09439300000000017
                },
                {
                    "name": "G#5",
                    "midi": 80,
                    "time": 29.45061600000004,
                    "velocity": 0.6141732283464567,
                    "duration": 0.09439300000000017
                },
                {
                    "name": "G#4",
                    "midi": 68,
                    "time": 29.45061600000004,
                    "velocity": 0.5196850393700787,
                    "duration": 0.09439300000000017
                },
                {
                    "name": "F#5",
                    "midi": 78,
                    "time": 29.63940200000004,
                    "velocity": 0.5039370078740157,
                    "duration": 0.09439300000000017
                },
                {
                    "name": "F#4",
                    "midi": 66,
                    "time": 29.63940200000004,
                    "velocity": 0.4251968503937008,
                    "duration": 0.09439300000000017
                },
                {
                    "name": "E5",
                    "midi": 76,
                    "time": 29.82818800000004,
                    "velocity": 0.5039370078740157,
                    "duration": 0.09439300000000017
                },
                {
                    "name": "E4",
                    "midi": 64,
                    "time": 29.82818800000004,
                    "velocity": 0.4251968503937008,
                    "duration": 0.09439300000000017
                },
                {
                    "name": "D#5",
                    "midi": 75,
                    "time": 30.01697400000004,
                    "velocity": 0.5511811023622047,
                    "duration": 0.09439300000000017
                },
                {
                    "name": "D#4",
                    "midi": 63,
                    "time": 30.01697400000004,
                    "velocity": 0.4645669291338583,
                    "duration": 0.09439300000000017
                },
                {
                    "name": "E5",
                    "midi": 76,
                    "time": 30.20576000000004,
                    "velocity": 0.48031496062992124,
                    "duration": 0.09439300000000017
                },
                {
                    "name": "E4",
                    "midi": 64,
                    "time": 30.20576000000004,
                    "velocity": 0.4015748031496063,
                    "duration": 0.09439300000000017
                },
                {
                    "name": "C#5",
                    "midi": 73,
                    "time": 30.39454600000004,
                    "velocity": 0.48031496062992124,
                    "duration": 0.09439300000000017
                },
                {
                    "name": "C#4",
                    "midi": 61,
                    "time": 30.39454600000004,
                    "velocity": 0.4015748031496063,
                    "duration": 0.09439300000000017
                },
                {
                    "name": "B4",
                    "midi": 71,
                    "time": 30.58333200000004,
                    "velocity": 0.5433070866141733,
                    "duration": 0.09439300000000017
                },
                {
                    "name": "B3",
                    "midi": 59,
                    "time": 30.58333200000004,
                    "velocity": 0.4566929133858268,
                    "duration": 0.09439300000000017
                },
                {
                    "name": "E5",
                    "midi": 76,
                    "time": 30.77211800000004,
                    "velocity": 0.41732283464566927,
                    "duration": 0.09439300000000017
                },
                {
                    "name": "E4",
                    "midi": 64,
                    "time": 30.77211800000004,
                    "velocity": 0.3543307086614173,
                    "duration": 0.09439300000000017
                },
                {
                    "name": "G#4",
                    "midi": 68,
                    "time": 30.960904000000042,
                    "velocity": 0.41732283464566927,
                    "duration": 0.09439300000000017
                },
                {
                    "name": "E4",
                    "midi": 64,
                    "time": 30.960904000000042,
                    "velocity": 0.3543307086614173,
                    "duration": 0.09439300000000017
                },
                {
                    "name": "B4",
                    "midi": 71,
                    "time": 31.149690000000042,
                    "velocity": 0.4881889763779528,
                    "duration": 0.09439300000000017
                },
                {
                    "name": "D#4",
                    "midi": 63,
                    "time": 31.149690000000042,
                    "velocity": 0.4094488188976378,
                    "duration": 0.09439300000000017
                },
                {
                    "name": "A4",
                    "midi": 69,
                    "time": 31.338476000000043,
                    "velocity": 0.3543307086614173,
                    "duration": 0.09439300000000017
                },
                {
                    "name": "D#4",
                    "midi": 63,
                    "time": 31.338476000000043,
                    "velocity": 0.2992125984251969,
                    "duration": 0.09439300000000017
                },
                {
                    "name": "F#4",
                    "midi": 66,
                    "time": 31.527262000000043,
                    "velocity": 0.3543307086614173,
                    "duration": 0.09439300000000017
                },
                {
                    "name": "D#4",
                    "midi": 63,
                    "time": 31.527262000000043,
                    "velocity": 0.2992125984251969,
                    "duration": 0.09439300000000017
                },
                {
                    "name": "E4",
                    "midi": 64,
                    "time": 31.716048000000043,
                    "velocity": 0.44881889763779526,
                    "duration": 0.18878600000000034
                },
                {
                    "name": "E4",
                    "midi": 64,
                    "time": 32.56558500000004,
                    "velocity": 0.4645669291338583,
                    "duration": 0.0849536999999998
                },
                {
                    "name": "A4",
                    "midi": 69,
                    "time": 32.56558500000004,
                    "velocity": 0.5511811023622047,
                    "duration": 0.0849536999999998
                },
                {
                    "name": "A4",
                    "midi": 69,
                    "time": 32.65997800000004,
                    "velocity": 0.5354330708661418,
                    "duration": 0.14158950000000203
                },
                {
                    "name": "E4",
                    "midi": 64,
                    "time": 32.65997800000004,
                    "velocity": 0.44881889763779526,
                    "duration": 0.14158950000000203
                },
                {
                    "name": "E4",
                    "midi": 64,
                    "time": 32.84876400000004,
                    "velocity": 0.4645669291338583,
                    "duration": 0.18878600000000034
                },
                {
                    "name": "A4",
                    "midi": 69,
                    "time": 32.84876400000004,
                    "velocity": 0.5511811023622047,
                    "duration": 0.18878600000000034
                },
                {
                    "name": "B4",
                    "midi": 71,
                    "time": 33.03755000000004,
                    "velocity": 0.5433070866141733,
                    "duration": 0.18878600000000034
                },
                {
                    "name": "G#4",
                    "midi": 68,
                    "time": 33.03755000000004,
                    "velocity": 0.4566929133858268,
                    "duration": 0.18878600000000034
                },
                {
                    "name": "C#5",
                    "midi": 73,
                    "time": 33.22633600000004,
                    "velocity": 0.5433070866141733,
                    "duration": 0.09439299999999662
                },
                {
                    "name": "A4",
                    "midi": 69,
                    "time": 33.22633600000004,
                    "velocity": 0.5433070866141733,
                    "duration": 0.09439299999999662
                },
                {
                    "name": "E4",
                    "midi": 64,
                    "time": 33.22633600000004,
                    "velocity": 0.4566929133858268,
                    "duration": 0.09439299999999662
                },
                {
                    "name": "C#5",
                    "midi": 73,
                    "time": 33.41512200000003,
                    "velocity": 0.5748031496062992,
                    "duration": 0.3775720000000007
                },
                {
                    "name": "A4",
                    "midi": 69,
                    "time": 33.41512200000003,
                    "velocity": 0.5748031496062992,
                    "duration": 0.3775720000000007
                },
                {
                    "name": "E4",
                    "midi": 64,
                    "time": 33.41512200000003,
                    "velocity": 0.4881889763779528,
                    "duration": 0.3775720000000007
                },
                {
                    "name": "C#5",
                    "midi": 73,
                    "time": 33.79269400000003,
                    "velocity": 0.5118110236220472,
                    "duration": 0.14158950000000203
                },
                {
                    "name": "A4",
                    "midi": 69,
                    "time": 33.79269400000003,
                    "velocity": 0.4330708661417323,
                    "duration": 0.14158950000000203
                },
                {
                    "name": "A4",
                    "midi": 69,
                    "time": 33.98148000000003,
                    "velocity": 0.4645669291338583,
                    "duration": 0.18878600000000034
                },
                {
                    "name": "C#5",
                    "midi": 73,
                    "time": 33.98148000000003,
                    "velocity": 0.5511811023622047,
                    "duration": 0.18878600000000034
                },
                {
                    "name": "D5",
                    "midi": 74,
                    "time": 34.170266000000034,
                    "velocity": 0.5196850393700787,
                    "duration": 0.18878600000000034
                },
                {
                    "name": "B4",
                    "midi": 71,
                    "time": 34.170266000000034,
                    "velocity": 0.4409448818897638,
                    "duration": 0.18878600000000034
                },
                {
                    "name": "E5",
                    "midi": 76,
                    "time": 34.359052000000034,
                    "velocity": 0.5039370078740157,
                    "duration": 0.09439299999999662
                },
                {
                    "name": "C#5",
                    "midi": 73,
                    "time": 34.359052000000034,
                    "velocity": 0.4251968503937008,
                    "duration": 0.09439299999999662
                },
                {
                    "name": "A4",
                    "midi": 69,
                    "time": 34.359052000000034,
                    "velocity": 0.4251968503937008,
                    "duration": 0.09439299999999662
                },
                {
                    "name": "E5",
                    "midi": 76,
                    "time": 34.54783800000003,
                    "velocity": 0.6141732283464567,
                    "duration": 0.28317899999999696
                },
                {
                    "name": "C#5",
                    "midi": 73,
                    "time": 34.54783800000003,
                    "velocity": 0.5196850393700787,
                    "duration": 0.28317899999999696
                },
                {
                    "name": "A4",
                    "midi": 69,
                    "time": 34.54783800000003,
                    "velocity": 0.5196850393700787,
                    "duration": 0.28317899999999696
                },
                {
                    "name": "D5",
                    "midi": 74,
                    "time": 34.831017000000024,
                    "velocity": 0.4645669291338583,
                    "duration": 0.0849536999999998
                },
                {
                    "name": "F#5",
                    "midi": 78,
                    "time": 34.831017000000024,
                    "velocity": 0.5511811023622047,
                    "duration": 0.0849536999999998
                },
                {
                    "name": "D5",
                    "midi": 74,
                    "time": 34.92541000000002,
                    "velocity": 0.4881889763779528,
                    "duration": 0.14158950000000203
                },
                {
                    "name": "F#5",
                    "midi": 78,
                    "time": 34.92541000000002,
                    "velocity": 0.5748031496062992,
                    "duration": 0.14158950000000203
                },
                {
                    "name": "A5",
                    "midi": 81,
                    "time": 35.11419600000002,
                    "velocity": 0.6299212598425197,
                    "duration": 0.28317899999999696
                },
                {
                    "name": "F#5",
                    "midi": 78,
                    "time": 35.11419600000002,
                    "velocity": 0.5354330708661418,
                    "duration": 0.28317899999999696
                },
                {
                    "name": "A4",
                    "midi": 69,
                    "time": 35.11419600000002,
                    "velocity": 0.5354330708661418,
                    "duration": 0.28317899999999696
                },
                {
                    "name": "F#5",
                    "midi": 78,
                    "time": 35.39737500000002,
                    "velocity": 0.48031496062992124,
                    "duration": 0.0849536999999998
                },
                {
                    "name": "A5",
                    "midi": 81,
                    "time": 35.39737500000002,
                    "velocity": 0.5669291338582677,
                    "duration": 0.0849536999999998
                },
                {
                    "name": "A5",
                    "midi": 81,
                    "time": 35.491768000000015,
                    "velocity": 0.5669291338582677,
                    "duration": 0.14158950000000203
                },
                {
                    "name": "F#5",
                    "midi": 78,
                    "time": 35.491768000000015,
                    "velocity": 0.48031496062992124,
                    "duration": 0.14158950000000203
                },
                {
                    "name": "A4",
                    "midi": 69,
                    "time": 35.680554000000015,
                    "velocity": 0.5196850393700787,
                    "duration": 0.18878600000000034
                },
                {
                    "name": "F#5",
                    "midi": 78,
                    "time": 35.680554000000015,
                    "velocity": 0.5196850393700787,
                    "duration": 0.18878600000000034
                },
                {
                    "name": "A5",
                    "midi": 81,
                    "time": 35.680554000000015,
                    "velocity": 0.6141732283464567,
                    "duration": 0.18878600000000034
                },
                {
                    "name": "G#5",
                    "midi": 80,
                    "time": 35.869340000000015,
                    "velocity": 0.5196850393700787,
                    "duration": 0.18878600000000034
                },
                {
                    "name": "E5",
                    "midi": 76,
                    "time": 35.869340000000015,
                    "velocity": 0.4409448818897638,
                    "duration": 0.18878600000000034
                },
                {
                    "name": "F#5",
                    "midi": 78,
                    "time": 36.058126000000016,
                    "velocity": 0.5196850393700787,
                    "duration": 0.09439299999999662
                },
                {
                    "name": "D5",
                    "midi": 74,
                    "time": 36.058126000000016,
                    "velocity": 0.4409448818897638,
                    "duration": 0.09439299999999662
                },
                {
                    "name": "F#5",
                    "midi": 78,
                    "time": 36.24691200000001,
                    "velocity": 0.5984251968503937,
                    "duration": 0.566358000000001
                },
                {
                    "name": "D5",
                    "midi": 74,
                    "time": 36.24691200000001,
                    "velocity": 0.5039370078740157,
                    "duration": 0.566358000000001
                },
                {
                    "name": "A4",
                    "midi": 69,
                    "time": 36.24691200000001,
                    "velocity": 0.5039370078740157,
                    "duration": 0.566358000000001
                },
                {
                    "name": "E5",
                    "midi": 76,
                    "time": 36.81327000000001,
                    "velocity": 0.5196850393700787,
                    "duration": 0.18878600000000034
                },
                {
                    "name": "C#5",
                    "midi": 73,
                    "time": 36.81327000000001,
                    "velocity": 0.4409448818897638,
                    "duration": 0.18878600000000034
                },
                {
                    "name": "E4",
                    "midi": 64,
                    "time": 37.09644900000001,
                    "velocity": 0.4645669291338583,
                    "duration": 0.0849536999999998
                },
                {
                    "name": "A4",
                    "midi": 69,
                    "time": 37.09644900000001,
                    "velocity": 0.5511811023622047,
                    "duration": 0.0849536999999998
                },
                {
                    "name": "A4",
                    "midi": 69,
                    "time": 37.190842,
                    "velocity": 0.5354330708661418,
                    "duration": 0.14158950000000203
                },
                {
                    "name": "E4",
                    "midi": 64,
                    "time": 37.190842,
                    "velocity": 0.44881889763779526,
                    "duration": 0.14158950000000203
                },
                {
                    "name": "E4",
                    "midi": 64,
                    "time": 37.379628000000004,
                    "velocity": 0.4645669291338583,
                    "duration": 0.18878600000000034
                },
                {
                    "name": "A4",
                    "midi": 69,
                    "time": 37.379628000000004,
                    "velocity": 0.5511811023622047,
                    "duration": 0.18878600000000034
                },
                {
                    "name": "B4",
                    "midi": 71,
                    "time": 37.568414000000004,
                    "velocity": 0.5433070866141733,
                    "duration": 0.18878600000000034
                },
                {
                    "name": "G#4",
                    "midi": 68,
                    "time": 37.568414000000004,
                    "velocity": 0.4566929133858268,
                    "duration": 0.18878600000000034
                },
                {
                    "name": "C#5",
                    "midi": 73,
                    "time": 37.757200000000005,
                    "velocity": 0.5433070866141733,
                    "duration": 0.09439299999999662
                },
                {
                    "name": "A4",
                    "midi": 69,
                    "time": 37.757200000000005,
                    "velocity": 0.5433070866141733,
                    "duration": 0.09439299999999662
                },
                {
                    "name": "E4",
                    "midi": 64,
                    "time": 37.757200000000005,
                    "velocity": 0.4566929133858268,
                    "duration": 0.09439299999999662
                },
                {
                    "name": "C#5",
                    "midi": 73,
                    "time": 37.945986,
                    "velocity": 0.5748031496062992,
                    "duration": 0.3775720000000007
                },
                {
                    "name": "A4",
                    "midi": 69,
                    "time": 37.945986,
                    "velocity": 0.5748031496062992,
                    "duration": 0.3775720000000007
                },
                {
                    "name": "E4",
                    "midi": 64,
                    "time": 37.945986,
                    "velocity": 0.4881889763779528,
                    "duration": 0.3775720000000007
                },
                {
                    "name": "C#5",
                    "midi": 73,
                    "time": 38.323558,
                    "velocity": 0.5118110236220472,
                    "duration": 0.14158950000000203
                },
                {
                    "name": "A4",
                    "midi": 69,
                    "time": 38.323558,
                    "velocity": 0.4330708661417323,
                    "duration": 0.14158950000000203
                },
                {
                    "name": "A4",
                    "midi": 69,
                    "time": 38.512344,
                    "velocity": 0.4645669291338583,
                    "duration": 0.18878600000000034
                },
                {
                    "name": "C#5",
                    "midi": 73,
                    "time": 38.512344,
                    "velocity": 0.5511811023622047,
                    "duration": 0.18878600000000034
                },
                {
                    "name": "D5",
                    "midi": 74,
                    "time": 38.70113,
                    "velocity": 0.5196850393700787,
                    "duration": 0.18878600000000034
                },
                {
                    "name": "B4",
                    "midi": 71,
                    "time": 38.70113,
                    "velocity": 0.4409448818897638,
                    "duration": 0.18878600000000034
                },
                {
                    "name": "E5",
                    "midi": 76,
                    "time": 38.889916,
                    "velocity": 0.5039370078740157,
                    "duration": 0.09439299999999662
                },
                {
                    "name": "C#5",
                    "midi": 73,
                    "time": 38.889916,
                    "velocity": 0.4251968503937008,
                    "duration": 0.09439299999999662
                },
                {
                    "name": "A4",
                    "midi": 69,
                    "time": 38.889916,
                    "velocity": 0.4251968503937008,
                    "duration": 0.09439299999999662
                },
                {
                    "name": "E5",
                    "midi": 76,
                    "time": 39.07870199999999,
                    "velocity": 0.6141732283464567,
                    "duration": 0.28317899999999696
                },
                {
                    "name": "C#5",
                    "midi": 73,
                    "time": 39.07870199999999,
                    "velocity": 0.5196850393700787,
                    "duration": 0.28317899999999696
                },
                {
                    "name": "A4",
                    "midi": 69,
                    "time": 39.07870199999999,
                    "velocity": 0.5196850393700787,
                    "duration": 0.28317899999999696
                },
                {
                    "name": "C#5",
                    "midi": 73,
                    "time": 39.36188099999999,
                    "velocity": 0.3464566929133858,
                    "duration": 0.0849536999999998
                },
                {
                    "name": "F#5",
                    "midi": 78,
                    "time": 39.36188099999999,
                    "velocity": 0.4094488188976378,
                    "duration": 0.0849536999999998
                },
                {
                    "name": "C#5",
                    "midi": 73,
                    "time": 39.456273999999986,
                    "velocity": 0.36220472440944884,
                    "duration": 0.14158950000000203
                },
                {
                    "name": "F#5",
                    "midi": 78,
                    "time": 39.456273999999986,
                    "velocity": 0.4251968503937008,
                    "duration": 0.14158950000000203
                },
                {
                    "name": "A5",
                    "midi": 81,
                    "time": 39.64505999999999,
                    "velocity": 0.47244094488188976,
                    "duration": 0.28317899999999696
                },
                {
                    "name": "C#5",
                    "midi": 73,
                    "time": 39.64505999999999,
                    "velocity": 0.4015748031496063,
                    "duration": 0.28317899999999696
                },
                {
                    "name": "C#5",
                    "midi": 73,
                    "time": 39.928238999999984,
                    "velocity": 0.3543307086614173,
                    "duration": 0.0849536999999998
                },
                {
                    "name": "A5",
                    "midi": 81,
                    "time": 39.928238999999984,
                    "velocity": 0.4251968503937008,
                    "duration": 0.0849536999999998
                },
                {
                    "name": "A5",
                    "midi": 81,
                    "time": 40.02263199999998,
                    "velocity": 0.4251968503937008,
                    "duration": 0.14158950000000203
                },
                {
                    "name": "C#5",
                    "midi": 73,
                    "time": 40.02263199999998,
                    "velocity": 0.3543307086614173,
                    "duration": 0.14158950000000203
                },
                {
                    "name": "C#5",
                    "midi": 73,
                    "time": 40.21141799999998,
                    "velocity": 0.4015748031496063,
                    "duration": 1.415894999999999
                },
                {
                    "name": "A5",
                    "midi": 81,
                    "time": 40.21141799999998,
                    "velocity": 0.47244094488188976,
                    "duration": 0.18878600000000034
                },
                {
                    "name": "G#5",
                    "midi": 80,
                    "time": 40.40020399999998,
                    "velocity": 0.47244094488188976,
                    "duration": 0.18878600000000034
                },
                {
                    "name": "F#5",
                    "midi": 78,
                    "time": 40.58898999999998,
                    "velocity": 0.47244094488188976,
                    "duration": 0.18878600000000034
                },
                {
                    "name": "C#6",
                    "midi": 85,
                    "time": 40.77777599999998,
                    "velocity": 0.47244094488188976,
                    "duration": 0.18878600000000034
                },
                {
                    "name": "A5",
                    "midi": 81,
                    "time": 40.96656199999998,
                    "velocity": 0.47244094488188976,
                    "duration": 0.18878600000000034
                },
                {
                    "name": "G#5",
                    "midi": 80,
                    "time": 41.15534799999998,
                    "velocity": 0.4330708661417323,
                    "duration": 0.18878600000000034
                },
                {
                    "name": "F#5",
                    "midi": 78,
                    "time": 41.34413399999998,
                    "velocity": 0.4330708661417323,
                    "duration": 0.28317899999999696
                },
                {
                    "name": "C#5",
                    "midi": 73,
                    "time": 41.62731299999998,
                    "velocity": 0.3543307086614173,
                    "duration": 0.0849536999999998
                },
                {
                    "name": "F#5",
                    "midi": 78,
                    "time": 41.62731299999998,
                    "velocity": 0.4251968503937008,
                    "duration": 0.0849536999999998
                },
                {
                    "name": "F#5",
                    "midi": 78,
                    "time": 41.721705999999976,
                    "velocity": 0.4251968503937008,
                    "duration": 0.14158950000000203
                },
                {
                    "name": "C#5",
                    "midi": 73,
                    "time": 41.721705999999976,
                    "velocity": 0.3543307086614173,
                    "duration": 0.14158950000000203
                },
                {
                    "name": "C#5",
                    "midi": 73,
                    "time": 41.91049199999998,
                    "velocity": 0.4015748031496063,
                    "duration": 1.8878599999999963
                },
                {
                    "name": "A5",
                    "midi": 81,
                    "time": 41.91049199999998,
                    "velocity": 0.47244094488188976,
                    "duration": 0.28317899999999696
                },
                {
                    "name": "A5",
                    "midi": 81,
                    "time": 42.19367099999997,
                    "velocity": 0.4251968503937008,
                    "duration": 0.0849536999999998
                },
                {
                    "name": "A5",
                    "midi": 81,
                    "time": 42.28806399999997,
                    "velocity": 0.4251968503937008,
                    "duration": 0.14158950000000203
                },
                {
                    "name": "A5",
                    "midi": 81,
                    "time": 42.47684999999997,
                    "velocity": 0.47244094488188976,
                    "duration": 0.18878600000000034
                },
                {
                    "name": "G#5",
                    "midi": 80,
                    "time": 42.66563599999997,
                    "velocity": 0.47244094488188976,
                    "duration": 0.18878600000000034
                },
                {
                    "name": "F#5",
                    "midi": 78,
                    "time": 42.85442199999997,
                    "velocity": 0.47244094488188976,
                    "duration": 0.18878600000000034
                },
                {
                    "name": "C#6",
                    "midi": 85,
                    "time": 43.04320799999997,
                    "velocity": 0.47244094488188976,
                    "duration": 0.18878600000000034
                },
                {
                    "name": "A5",
                    "midi": 81,
                    "time": 43.23199399999997,
                    "velocity": 0.47244094488188976,
                    "duration": 0.18878600000000034
                },
                {
                    "name": "G#5",
                    "midi": 80,
                    "time": 43.42077999999997,
                    "velocity": 0.4330708661417323,
                    "duration": 0.18878600000000034
                },
                {
                    "name": "F#5",
                    "midi": 78,
                    "time": 43.60956599999997,
                    "velocity": 0.4330708661417323,
                    "duration": 0.18878600000000034
                },
                {
                    "name": "B5",
                    "midi": 83,
                    "time": 43.79835199999997,
                    "velocity": 0.6535433070866141,
                    "duration": 0.09439299999999662
                },
                {
                    "name": "B4",
                    "midi": 71,
                    "time": 43.79835199999997,
                    "velocity": 0.5511811023622047,
                    "duration": 0.09439299999999662
                },
                {
                    "name": "B4",
                    "midi": 71,
                    "time": 43.987137999999966,
                    "velocity": 0.5196850393700787,
                    "duration": 0.09439299999999662
                },
                {
                    "name": "B5",
                    "midi": 83,
                    "time": 43.987137999999966,
                    "velocity": 0.6141732283464567,
                    "duration": 0.09439299999999662
                },
                {
                    "name": "B4",
                    "midi": 71,
                    "time": 44.17592399999996,
                    "velocity": 0.5826771653543307,
                    "duration": 0.566358000000001
                },
                {
                    "name": "B5",
                    "midi": 83,
                    "time": 44.17592399999996,
                    "velocity": 0.6929133858267716,
                    "duration": 0.566358000000001
                },
                {
                    "name": "B4",
                    "midi": 71,
                    "time": 44.74228199999996,
                    "velocity": 0.5590551181102362,
                    "duration": 0.566358000000001
                },
                {
                    "name": "B5",
                    "midi": 83,
                    "time": 44.74228199999996,
                    "velocity": 0.6614173228346457,
                    "duration": 0.566358000000001
                },
                {
                    "name": "B4",
                    "midi": 71,
                    "time": 45.30863999999996,
                    "velocity": 0.6771653543307087,
                    "duration": 0.28317899999999696
                },
                {
                    "name": "B5",
                    "midi": 83,
                    "time": 45.30863999999996,
                    "velocity": 0.6771653543307087,
                    "duration": 0.7551439999999872
                },
                {
                    "name": "B4",
                    "midi": 71,
                    "time": 45.59181899999996,
                    "velocity": 0.5590551181102362,
                    "duration": 0.0849536999999998
                },
                {
                    "name": "B4",
                    "midi": 71,
                    "time": 45.686211999999955,
                    "velocity": 0.5590551181102362,
                    "duration": 0.09439299999999662
                },
                {
                    "name": "B4",
                    "midi": 71,
                    "time": 45.87499799999995,
                    "velocity": 0.6692913385826772,
                    "duration": 0.18878600000000034
                },
                {
                    "name": "E5",
                    "midi": 76,
                    "time": 46.06378399999995,
                    "velocity": 0.4566929133858268,
                    "duration": 0.09439299999999662
                },
                {
                    "name": "B4",
                    "midi": 71,
                    "time": 46.06378399999995,
                    "velocity": 0.3858267716535433,
                    "duration": 0.09439299999999662
                },
                {
                    "name": "B4",
                    "midi": 71,
                    "time": 46.25256999999994,
                    "velocity": 0.3543307086614173,
                    "duration": 0.09439299999999662
                },
                {
                    "name": "E5",
                    "midi": 76,
                    "time": 46.25256999999994,
                    "velocity": 0.41732283464566927,
                    "duration": 0.09439299999999662
                },
                {
                    "name": "E5",
                    "midi": 76,
                    "time": 46.441355999999935,
                    "velocity": 0.4881889763779528,
                    "duration": 0.18878600000000034
                },
                {
                    "name": "B4",
                    "midi": 71,
                    "time": 46.441355999999935,
                    "velocity": 0.4094488188976378,
                    "duration": 0.18878600000000034
                },
                {
                    "name": "D#5",
                    "midi": 75,
                    "time": 46.630141999999935,
                    "velocity": 0.3543307086614173,
                    "duration": 0.18878600000000034
                },
                {
                    "name": "F#5",
                    "midi": 78,
                    "time": 46.630141999999935,
                    "velocity": 0.41732283464566927,
                    "duration": 0.18878600000000034
                },
                {
                    "name": "G#5",
                    "midi": 80,
                    "time": 46.818927999999936,
                    "velocity": 0.3858267716535433,
                    "duration": 0.09439299999999662
                },
                {
                    "name": "E5",
                    "midi": 76,
                    "time": 46.818927999999936,
                    "velocity": 0.3228346456692913,
                    "duration": 0.09439299999999662
                },
                {
                    "name": "G#5",
                    "midi": 80,
                    "time": 47.00771399999993,
                    "velocity": 0.41732283464566927,
                    "duration": 0.3775720000000007
                },
                {
                    "name": "E5",
                    "midi": 76,
                    "time": 47.00771399999993,
                    "velocity": 0.3543307086614173,
                    "duration": 0.3775720000000007
                },
                {
                    "name": "G#5",
                    "midi": 80,
                    "time": 47.38528599999993,
                    "velocity": 0.4330708661417323,
                    "duration": 0.09439299999999662
                },
                {
                    "name": "E5",
                    "midi": 76,
                    "time": 47.38528599999993,
                    "velocity": 0.36220472440944884,
                    "duration": 0.09439299999999662
                },
                {
                    "name": "G#5",
                    "midi": 80,
                    "time": 47.57407199999992,
                    "velocity": 0.6141732283464567,
                    "duration": 0.18878600000000034
                },
                {
                    "name": "E5",
                    "midi": 76,
                    "time": 47.57407199999992,
                    "velocity": 0.5196850393700787,
                    "duration": 0.18878600000000034
                },
                {
                    "name": "C#6",
                    "midi": 85,
                    "time": 47.76285799999992,
                    "velocity": 0.5354330708661418,
                    "duration": 0.18878600000000034
                },
                {
                    "name": "E6",
                    "midi": 88,
                    "time": 47.95164399999992,
                    "velocity": 0.5590551181102362,
                    "duration": 0.09439299999999662
                },
                {
                    "name": "E6",
                    "midi": 88,
                    "time": 48.14042999999992,
                    "velocity": 0.6220472440944882,
                    "duration": 0.28317899999999696
                },
                {
                    "name": "E5",
                    "midi": 76,
                    "time": 48.423608999999914,
                    "velocity": 0.5669291338582677,
                    "duration": 0.0849536999999998
                },
                {
                    "name": "C#5",
                    "midi": 73,
                    "time": 48.423608999999914,
                    "velocity": 0.48031496062992124,
                    "duration": 0.0849536999999998
                },
                {
                    "name": "E5",
                    "midi": 76,
                    "time": 48.51800199999991,
                    "velocity": 0.5905511811023622,
                    "duration": 0.09439299999999662
                },
                {
                    "name": "C#5",
                    "midi": 73,
                    "time": 48.51800199999991,
                    "velocity": 0.49606299212598426,
                    "duration": 0.09439299999999662
                },
                {
                    "name": "E5",
                    "midi": 76,
                    "time": 48.706787999999904,
                    "velocity": 0.6377952755905512,
                    "duration": 0.18878600000000034
                },
                {
                    "name": "B4",
                    "midi": 71,
                    "time": 48.706787999999904,
                    "velocity": 0.5433070866141733,
                    "duration": 0.18878600000000034
                },
                {
                    "name": "D#5",
                    "midi": 75,
                    "time": 48.895573999999904,
                    "velocity": 0.4645669291338583,
                    "duration": 0.18878600000000034
                },
                {
                    "name": "F#5",
                    "midi": 78,
                    "time": 48.895573999999904,
                    "velocity": 0.5511811023622047,
                    "duration": 0.18878600000000034
                },
                {
                    "name": "G#5",
                    "midi": 80,
                    "time": 49.084359999999904,
                    "velocity": 0.5196850393700787,
                    "duration": 0.09439299999999662
                },
                {
                    "name": "E5",
                    "midi": 76,
                    "time": 49.084359999999904,
                    "velocity": 0.4330708661417323,
                    "duration": 0.09439299999999662
                },
                {
                    "name": "G#5",
                    "midi": 80,
                    "time": 49.2731459999999,
                    "velocity": 0.5669291338582677,
                    "duration": 0.3775720000000007
                },
                {
                    "name": "E5",
                    "midi": 76,
                    "time": 49.2731459999999,
                    "velocity": 0.48031496062992124,
                    "duration": 0.3775720000000007
                },
                {
                    "name": "G#5",
                    "midi": 80,
                    "time": 49.6507179999999,
                    "velocity": 0.6062992125984252,
                    "duration": 0.09439299999999662
                },
                {
                    "name": "E5",
                    "midi": 76,
                    "time": 49.6507179999999,
                    "velocity": 0.49606299212598426,
                    "duration": 0.09439299999999662
                },
                {
                    "name": "G#5",
                    "midi": 80,
                    "time": 49.83950399999989,
                    "velocity": 0.7559055118110236,
                    "duration": 0.18878600000000034
                },
                {
                    "name": "E5",
                    "midi": 76,
                    "time": 49.83950399999989,
                    "velocity": 0.6456692913385826,
                    "duration": 0.18878600000000034
                },
                {
                    "name": "C#6",
                    "midi": 85,
                    "time": 50.02828999999989,
                    "velocity": 0.6692913385826772,
                    "duration": 0.18878600000000034
                },
                {
                    "name": "E6",
                    "midi": 88,
                    "time": 50.21707599999989,
                    "velocity": 0.7165354330708661,
                    "duration": 0.09439299999999662
                },
                {
                    "name": "E6",
                    "midi": 88,
                    "time": 50.405861999999885,
                    "velocity": 0.8031496062992126,
                    "duration": 0.28317899999999696
                },
                {
                    "name": "E5",
                    "midi": 76,
                    "time": 50.68904099999988,
                    "velocity": 0.6535433070866141,
                    "duration": 0.0849536999999998
                },
                {
                    "name": "C#5",
                    "midi": 73,
                    "time": 50.68904099999988,
                    "velocity": 0.5511811023622047,
                    "duration": 0.0849536999999998
                },
                {
                    "name": "E5",
                    "midi": 76,
                    "time": 50.78343399999988,
                    "velocity": 0.6771653543307087,
                    "duration": 0.09439299999999662
                },
                {
                    "name": "C#5",
                    "midi": 73,
                    "time": 50.78343399999988,
                    "velocity": 0.5748031496062992,
                    "duration": 0.09439299999999662
                },
                {
                    "name": "E5",
                    "midi": 76,
                    "time": 50.97221999999987,
                    "velocity": 0.6535433070866141,
                    "duration": 0.28317899999999696
                },
                {
                    "name": "B4",
                    "midi": 71,
                    "time": 50.97221999999987,
                    "velocity": 0.5511811023622047,
                    "duration": 0.28317899999999696
                },
                {
                    "name": "F#5",
                    "midi": 78,
                    "time": 51.25539899999987,
                    "velocity": 0.6929133858267716,
                    "duration": 0.09439299999999662
                },
                {
                    "name": "G#5",
                    "midi": 80,
                    "time": 51.349791999999866,
                    "velocity": 0.6377952755905512,
                    "duration": 0.09439299999999662
                },
                {
                    "name": "G#5",
                    "midi": 80,
                    "time": 51.53857799999986,
                    "velocity": 0.7637795275590551,
                    "duration": 0.18878600000000034
                },
                {
                    "name": "E5",
                    "midi": 76,
                    "time": 51.53857799999986,
                    "velocity": 0.6456692913385826,
                    "duration": 0.18878600000000034
                },
                {
                    "name": "B5",
                    "midi": 83,
                    "time": 51.72736399999986,
                    "velocity": 0.6692913385826772,
                    "duration": 0.18878600000000034
                },
                {
                    "name": "E6",
                    "midi": 88,
                    "time": 51.91614999999986,
                    "velocity": 0.7086614173228346,
                    "duration": 0.09439299999999662
                },
                {
                    "name": "A5",
                    "midi": 81,
                    "time": 52.10493599999985,
                    "velocity": 0.7480314960629921,
                    "duration": 0.7551440000000014
                },
                {
                    "name": "E5",
                    "midi": 76,
                    "time": 52.10493599999985,
                    "velocity": 0.7480314960629921,
                    "duration": 0.7551440000000014
                },
                {
                    "name": "E6",
                    "midi": 88,
                    "time": 52.10493599999985,
                    "velocity": 0.8818897637795275,
                    "duration": 0.7551440000000014
                },
                {
                    "name": "D#6",
                    "midi": 87,
                    "time": 52.860079999999854,
                    "velocity": 0.6141732283464567,
                    "duration": 0.09439299999999662
                },
                {
                    "name": "C#6",
                    "midi": 85,
                    "time": 53.04886599999985,
                    "velocity": 0.5669291338582677,
                    "duration": 0.09439299999999662
                },
                {
                    "name": "B5",
                    "midi": 83,
                    "time": 53.23765199999984,
                    "velocity": 0.6299212598425197,
                    "duration": 0.09439299999999662
                },
                {
                    "name": "A5",
                    "midi": 81,
                    "time": 53.426437999999834,
                    "velocity": 0.5354330708661418,
                    "duration": 0.09439299999999662
                },
                {
                    "name": "G#5",
                    "midi": 80,
                    "time": 53.61522399999983,
                    "velocity": 0.48031496062992124,
                    "duration": 0.09439299999999662
                },
                {
                    "name": "A5",
                    "midi": 81,
                    "time": 53.80400999999982,
                    "velocity": 0.5669291338582677,
                    "duration": 0.09439299999999662
                },
                {
                    "name": "F#5",
                    "midi": 78,
                    "time": 53.992795999999814,
                    "velocity": 0.4881889763779528,
                    "duration": 0.09439299999999662
                },
                {
                    "name": "D#5",
                    "midi": 75,
                    "time": 54.18158199999981,
                    "velocity": 0.4881889763779528,
                    "duration": 0.09439299999999662
                },
                {
                    "name": "B6",
                    "midi": 95,
                    "time": 54.3703679999998,
                    "velocity": 0.6377952755905512,
                    "duration": 0.7551440000000014
                },
                {
                    "name": "B5",
                    "midi": 83,
                    "time": 54.3703679999998,
                    "velocity": 0.5354330708661418,
                    "duration": 0.7551440000000014
                },
                {
                    "name": "A5",
                    "midi": 81,
                    "time": 55.1255119999998,
                    "velocity": 0.4645669291338583,
                    "duration": 0.09439299999999662
                },
                {
                    "name": "A6",
                    "midi": 93,
                    "time": 55.1255119999998,
                    "velocity": 0.5511811023622047,
                    "duration": 0.09439299999999662
                },
                {
                    "name": "G#5",
                    "midi": 80,
                    "time": 55.314297999999795,
                    "velocity": 0.4645669291338583,
                    "duration": 0.09439299999999662
                },
                {
                    "name": "G#6",
                    "midi": 92,
                    "time": 55.314297999999795,
                    "velocity": 0.5511811023622047,
                    "duration": 0.09439299999999662
                },
                {
                    "name": "F#6",
                    "midi": 90,
                    "time": 55.50308399999979,
                    "velocity": 0.6220472440944882,
                    "duration": 0.09439299999999662
                },
                {
                    "name": "F#5",
                    "midi": 78,
                    "time": 55.50308399999979,
                    "velocity": 0.5275590551181102,
                    "duration": 0.09439299999999662
                },
                {
                    "name": "E5",
                    "midi": 76,
                    "time": 55.69186999999978,
                    "velocity": 0.4645669291338583,
                    "duration": 0.09439299999999662
                },
                {
                    "name": "E6",
                    "midi": 88,
                    "time": 55.69186999999978,
                    "velocity": 0.5511811023622047,
                    "duration": 0.09439299999999662
                },
                {
                    "name": "D#5",
                    "midi": 75,
                    "time": 55.880655999999775,
                    "velocity": 0.4645669291338583,
                    "duration": 0.09439299999999662
                },
                {
                    "name": "D#6",
                    "midi": 87,
                    "time": 55.880655999999775,
                    "velocity": 0.5511811023622047,
                    "duration": 0.09439299999999662
                },
                {
                    "name": "C#6",
                    "midi": 85,
                    "time": 56.06944199999977,
                    "velocity": 0.5984251968503937,
                    "duration": 0.09439299999999662
                },
                {
                    "name": "C#5",
                    "midi": 73,
                    "time": 56.06944199999977,
                    "velocity": 0.5039370078740157,
                    "duration": 0.09439299999999662
                },
                {
                    "name": "B4",
                    "midi": 71,
                    "time": 56.25822799999976,
                    "velocity": 0.4645669291338583,
                    "duration": 0.09439299999999662
                },
                {
                    "name": "B5",
                    "midi": 83,
                    "time": 56.25822799999976,
                    "velocity": 0.5511811023622047,
                    "duration": 0.09439299999999662
                },
                {
                    "name": "A#4",
                    "midi": 70,
                    "time": 56.447013999999754,
                    "velocity": 0.4645669291338583,
                    "duration": 0.09439299999999662
                },
                {
                    "name": "A#5",
                    "midi": 82,
                    "time": 56.447013999999754,
                    "velocity": 0.5511811023622047,
                    "duration": 0.09439299999999662
                },
                {
                    "name": "G#5",
                    "midi": 80,
                    "time": 56.63579999999975,
                    "velocity": 0.6141732283464567,
                    "duration": 0.09439299999999662
                },
                {
                    "name": "G#4",
                    "midi": 68,
                    "time": 56.63579999999975,
                    "velocity": 0.5196850393700787,
                    "duration": 0.09439299999999662
                },
                {
                    "name": "F#5",
                    "midi": 78,
                    "time": 56.82458599999974,
                    "velocity": 0.5039370078740157,
                    "duration": 0.09439299999999662
                },
                {
                    "name": "F#4",
                    "midi": 66,
                    "time": 56.82458599999974,
                    "velocity": 0.4251968503937008,
                    "duration": 0.09439299999999662
                },
                {
                    "name": "E5",
                    "midi": 76,
                    "time": 57.013371999999734,
                    "velocity": 0.5039370078740157,
                    "duration": 0.09439299999999662
                },
                {
                    "name": "E4",
                    "midi": 64,
                    "time": 57.013371999999734,
                    "velocity": 0.4251968503937008,
                    "duration": 0.09439299999999662
                },
                {
                    "name": "D#5",
                    "midi": 75,
                    "time": 57.20215799999973,
                    "velocity": 0.5511811023622047,
                    "duration": 0.09439299999999662
                },
                {
                    "name": "D#4",
                    "midi": 63,
                    "time": 57.20215799999973,
                    "velocity": 0.4645669291338583,
                    "duration": 0.09439299999999662
                },
                {
                    "name": "E5",
                    "midi": 76,
                    "time": 57.39094399999972,
                    "velocity": 0.48031496062992124,
                    "duration": 0.09439299999999662
                },
                {
                    "name": "E4",
                    "midi": 64,
                    "time": 57.39094399999972,
                    "velocity": 0.4015748031496063,
                    "duration": 0.09439299999999662
                },
                {
                    "name": "C#5",
                    "midi": 73,
                    "time": 57.579729999999714,
                    "velocity": 0.48031496062992124,
                    "duration": 0.09439299999999662
                },
                {
                    "name": "C#4",
                    "midi": 61,
                    "time": 57.579729999999714,
                    "velocity": 0.4015748031496063,
                    "duration": 0.09439299999999662
                },
                {
                    "name": "B4",
                    "midi": 71,
                    "time": 57.76851599999971,
                    "velocity": 0.5433070866141733,
                    "duration": 0.09439299999999662
                },
                {
                    "name": "B3",
                    "midi": 59,
                    "time": 57.76851599999971,
                    "velocity": 0.4566929133858268,
                    "duration": 0.09439299999999662
                },
                {
                    "name": "E5",
                    "midi": 76,
                    "time": 57.9573019999997,
                    "velocity": 0.41732283464566927,
                    "duration": 0.09439299999999662
                },
                {
                    "name": "E4",
                    "midi": 64,
                    "time": 57.9573019999997,
                    "velocity": 0.3543307086614173,
                    "duration": 0.09439299999999662
                },
                {
                    "name": "G#4",
                    "midi": 68,
                    "time": 58.14608799999969,
                    "velocity": 0.41732283464566927,
                    "duration": 0.09439299999999662
                },
                {
                    "name": "E4",
                    "midi": 64,
                    "time": 58.14608799999969,
                    "velocity": 0.3543307086614173,
                    "duration": 0.09439299999999662
                },
                {
                    "name": "B4",
                    "midi": 71,
                    "time": 58.33487399999969,
                    "velocity": 0.4881889763779528,
                    "duration": 0.09439299999999662
                },
                {
                    "name": "D#4",
                    "midi": 63,
                    "time": 58.33487399999969,
                    "velocity": 0.4094488188976378,
                    "duration": 0.09439299999999662
                },
                {
                    "name": "A4",
                    "midi": 69,
                    "time": 58.52365999999968,
                    "velocity": 0.3543307086614173,
                    "duration": 0.09439299999999662
                },
                {
                    "name": "D#4",
                    "midi": 63,
                    "time": 58.52365999999968,
                    "velocity": 0.2992125984251969,
                    "duration": 0.09439299999999662
                },
                {
                    "name": "F#4",
                    "midi": 66,
                    "time": 58.71244599999967,
                    "velocity": 0.3543307086614173,
                    "duration": 0.09439299999999662
                },
                {
                    "name": "D#4",
                    "midi": 63,
                    "time": 58.71244599999967,
                    "velocity": 0.2992125984251969,
                    "duration": 0.09439299999999662
                },
                {
                    "name": "E4",
                    "midi": 64,
                    "time": 58.901231999999666,
                    "velocity": 0.44881889763779526,
                    "duration": 0.18878600000000034
                },
                {
                    "name": "G#4",
                    "midi": 68,
                    "time": 59.46758999999967,
                    "velocity": 0.5511811023622047,
                    "duration": 0.5608517416666672
                },
                {
                    "name": "G#5",
                    "midi": 80,
                    "time": 59.46758999999967,
                    "velocity": 0.6535433070866141,
                    "duration": 0.5608517416666672
                },
                {
                    "name": "G#4",
                    "midi": 68,
                    "time": 60.03394799999967,
                    "velocity": 0.5826771653543307,
                    "duration": 0.5608517416666672
                },
                {
                    "name": "G#5",
                    "midi": 80,
                    "time": 60.03394799999967,
                    "velocity": 0.6929133858267716,
                    "duration": 0.5608517416666672
                },
                {
                    "name": "G#4",
                    "midi": 68,
                    "time": 60.60030599999967,
                    "velocity": 0.5590551181102362,
                    "duration": 0.1809199166666673
                },
                {
                    "name": "G#5",
                    "midi": 80,
                    "time": 60.60030599999967,
                    "velocity": 0.6614173228346457,
                    "duration": 0.5608517416666672
                },
                {
                    "name": "G#5",
                    "midi": 80,
                    "time": 61.16666399999967,
                    "velocity": 0.6141732283464567,
                    "duration": 0.18878600000000034
                },
                {
                    "name": "G#4",
                    "midi": 68,
                    "time": 61.16666399999967,
                    "velocity": 0.5196850393700787,
                    "duration": 0.18878600000000034
                },
                {
                    "name": "A4",
                    "midi": 69,
                    "time": 61.35544999999967,
                    "velocity": 0.49606299212598426,
                    "duration": 0.18878600000000034
                },
                {
                    "name": "A5",
                    "midi": 81,
                    "time": 61.35544999999967,
                    "velocity": 0.5905511811023622,
                    "duration": 0.18878600000000034
                },
                {
                    "name": "G#4",
                    "midi": 68,
                    "time": 61.54423599999967,
                    "velocity": 0.48031496062992124,
                    "duration": 0.09439299999999662
                },
                {
                    "name": "G#5",
                    "midi": 80,
                    "time": 61.54423599999967,
                    "velocity": 0.5669291338582677,
                    "duration": 0.09439299999999662
                },
                {
                    "name": "G#4",
                    "midi": 68,
                    "time": 61.733021999999664,
                    "velocity": 0.5196850393700787,
                    "duration": 0.09439299999999662
                },
                {
                    "name": "G#5",
                    "midi": 80,
                    "time": 61.733021999999664,
                    "velocity": 0.6141732283464567,
                    "duration": 0.09439299999999662
                },
                {
                    "name": "G#4",
                    "midi": 68,
                    "time": 61.92180799999966,
                    "velocity": 0.4645669291338583,
                    "duration": 0.09439299999999662
                },
                {
                    "name": "G#5",
                    "midi": 80,
                    "time": 61.92180799999966,
                    "velocity": 0.5511811023622047,
                    "duration": 0.09439299999999662
                },
                {
                    "name": "G#4",
                    "midi": 68,
                    "time": 62.11059399999965,
                    "velocity": 0.4645669291338583,
                    "duration": 0.09439299999999662
                },
                {
                    "name": "G#5",
                    "midi": 80,
                    "time": 62.11059399999965,
                    "velocity": 0.5511811023622047,
                    "duration": 0.09439299999999662
                },
                {
                    "name": "G#4",
                    "midi": 68,
                    "time": 62.299379999999644,
                    "velocity": 0.5826771653543307,
                    "duration": 0.5608517416666672
                },
                {
                    "name": "G#5",
                    "midi": 80,
                    "time": 62.299379999999644,
                    "velocity": 0.6929133858267716,
                    "duration": 0.5608517416666672
                },
                {
                    "name": "G#4",
                    "midi": 68,
                    "time": 62.865737999999645,
                    "velocity": 0.5590551181102362,
                    "duration": 0.1809199166666673
                },
                {
                    "name": "G#5",
                    "midi": 80,
                    "time": 62.865737999999645,
                    "velocity": 0.6614173228346457,
                    "duration": 0.5608517416666672
                },
                {
                    "name": "G#4",
                    "midi": 68,
                    "time": 63.432095999999646,
                    "velocity": 0.5826771653543307,
                    "duration": 0.5608517416666672
                },
                {
                    "name": "G#5",
                    "midi": 80,
                    "time": 63.432095999999646,
                    "velocity": 0.6929133858267716,
                    "duration": 0.5608517416666672
                },
                {
                    "name": "G#5",
                    "midi": 80,
                    "time": 64.18723999999965,
                    "velocity": 0.6692913385826772,
                    "duration": 0.09439299999999662
                },
                {
                    "name": "C#5",
                    "midi": 73,
                    "time": 64.18723999999965,
                    "velocity": 0.5669291338582677,
                    "duration": 0.09439299999999662
                },
                {
                    "name": "C#5",
                    "midi": 73,
                    "time": 64.37602599999964,
                    "velocity": 0.5039370078740157,
                    "duration": 0.09439299999999662
                },
                {
                    "name": "G#5",
                    "midi": 80,
                    "time": 64.37602599999964,
                    "velocity": 0.6062992125984252,
                    "duration": 0.09439299999999662
                },
                {
                    "name": "G#5",
                    "midi": 80,
                    "time": 64.56481199999963,
                    "velocity": 0.6692913385826772,
                    "duration": 0.18878599999999324
                },
                {
                    "name": "C#5",
                    "midi": 73,
                    "time": 64.56481199999963,
                    "velocity": 0.5669291338582677,
                    "duration": 0.18878599999999324
                },
                {
                    "name": "A4",
                    "midi": 69,
                    "time": 64.75359799999963,
                    "velocity": 0.5433070866141733,
                    "duration": 0.18878599999999324
                },
                {
                    "name": "F#5",
                    "midi": 78,
                    "time": 64.75359799999963,
                    "velocity": 0.6456692913385826,
                    "duration": 0.18878599999999324
                },
                {
                    "name": "C#5",
                    "midi": 73,
                    "time": 64.94238399999962,
                    "velocity": 0.5275590551181102,
                    "duration": 0.09439299999999662
                },
                {
                    "name": "G#5",
                    "midi": 80,
                    "time": 64.94238399999962,
                    "velocity": 0.6220472440944882,
                    "duration": 0.09439299999999662
                },
                {
                    "name": "A5",
                    "midi": 81,
                    "time": 65.13116999999961,
                    "velocity": 0.6692913385826772,
                    "duration": 0.18878599999999324
                },
                {
                    "name": "F#5",
                    "midi": 78,
                    "time": 65.13116999999961,
                    "velocity": 0.5669291338582677,
                    "duration": 0.18878599999999324
                },
                {
                    "name": "C#6",
                    "midi": 85,
                    "time": 65.3199559999996,
                    "velocity": 0.6377952755905512,
                    "duration": 0.18878599999999324
                },
                {
                    "name": "C#5",
                    "midi": 73,
                    "time": 65.5087419999996,
                    "velocity": 0.5354330708661418,
                    "duration": 0.09439299999999662
                },
                {
                    "name": "G#5",
                    "midi": 80,
                    "time": 65.5087419999996,
                    "velocity": 0.6377952755905512,
                    "duration": 0.09439299999999662
                },
                {
                    "name": "C#5",
                    "midi": 73,
                    "time": 65.6975279999996,
                    "velocity": 0.5669291338582677,
                    "duration": 0.3775720000000007
                },
                {
                    "name": "G#5",
                    "midi": 80,
                    "time": 65.6975279999996,
                    "velocity": 0.6692913385826772,
                    "duration": 0.3775720000000007
                },
                {
                    "name": "G#5",
                    "midi": 80,
                    "time": 66.4526719999996,
                    "velocity": 0.6692913385826772,
                    "duration": 0.09439299999999662
                },
                {
                    "name": "C#5",
                    "midi": 73,
                    "time": 66.4526719999996,
                    "velocity": 0.5669291338582677,
                    "duration": 0.09439299999999662
                },
                {
                    "name": "C#5",
                    "midi": 73,
                    "time": 66.64145799999959,
                    "velocity": 0.5039370078740157,
                    "duration": 0.09439299999999662
                },
                {
                    "name": "G#5",
                    "midi": 80,
                    "time": 66.64145799999959,
                    "velocity": 0.6062992125984252,
                    "duration": 0.09439299999999662
                },
                {
                    "name": "G#5",
                    "midi": 80,
                    "time": 66.83024399999958,
                    "velocity": 0.6692913385826772,
                    "duration": 0.18878599999999324
                },
                {
                    "name": "C#5",
                    "midi": 73,
                    "time": 66.83024399999958,
                    "velocity": 0.5669291338582677,
                    "duration": 0.18878599999999324
                },
                {
                    "name": "A4",
                    "midi": 69,
                    "time": 67.01902999999957,
                    "velocity": 0.5433070866141733,
                    "duration": 0.18878599999999324
                },
                {
                    "name": "F#5",
                    "midi": 78,
                    "time": 67.01902999999957,
                    "velocity": 0.6456692913385826,
                    "duration": 0.18878599999999324
                },
                {
                    "name": "C#5",
                    "midi": 73,
                    "time": 67.20781599999957,
                    "velocity": 0.5275590551181102,
                    "duration": 0.09439299999999662
                },
                {
                    "name": "G#5",
                    "midi": 80,
                    "time": 67.20781599999957,
                    "velocity": 0.6220472440944882,
                    "duration": 0.09439299999999662
                },
                {
                    "name": "A5",
                    "midi": 81,
                    "time": 67.39660199999956,
                    "velocity": 0.6692913385826772,
                    "duration": 0.18878599999999324
                },
                {
                    "name": "F#5",
                    "midi": 78,
                    "time": 67.39660199999956,
                    "velocity": 0.5669291338582677,
                    "duration": 0.18878599999999324
                },
                {
                    "name": "C#6",
                    "midi": 85,
                    "time": 67.58538799999955,
                    "velocity": 0.6377952755905512,
                    "duration": 0.18878599999999324
                },
                {
                    "name": "C#5",
                    "midi": 73,
                    "time": 67.77417399999955,
                    "velocity": 0.5354330708661418,
                    "duration": 0.09439299999999662
                },
                {
                    "name": "G#5",
                    "midi": 80,
                    "time": 67.77417399999955,
                    "velocity": 0.6377952755905512,
                    "duration": 0.09439299999999662
                },
                {
                    "name": "G#5",
                    "midi": 80,
                    "time": 67.96295999999954,
                    "velocity": 0.6692913385826772,
                    "duration": 0.5608517416666672
                },
                {
                    "name": "C#5",
                    "midi": 73,
                    "time": 67.96295999999954,
                    "velocity": 0.5669291338582677,
                    "duration": 0.5608517416666672
                },
                {
                    "name": "A4",
                    "midi": 69,
                    "time": 68.52931799999953,
                    "velocity": 0.5669291338582677,
                    "duration": 0.5608517416666672
                },
                {
                    "name": "A5",
                    "midi": 81,
                    "time": 68.52931799999953,
                    "velocity": 0.6692913385826772,
                    "duration": 0.5608517416666672
                },
                {
                    "name": "A4",
                    "midi": 69,
                    "time": 69.09567599999953,
                    "velocity": 0.5669291338582677,
                    "duration": 0.5608517416666672
                },
                {
                    "name": "A5",
                    "midi": 81,
                    "time": 69.09567599999953,
                    "velocity": 0.6692913385826772,
                    "duration": 0.5608517416666672
                },
                {
                    "name": "G#4",
                    "midi": 68,
                    "time": 69.66203399999952,
                    "velocity": 0.5669291338582677,
                    "duration": 0.5608517416666672
                },
                {
                    "name": "G#5",
                    "midi": 80,
                    "time": 69.66203399999952,
                    "velocity": 0.6692913385826772,
                    "duration": 0.5608517416666672
                },
                {
                    "name": "F#4",
                    "midi": 66,
                    "time": 70.22839199999952,
                    "velocity": 0.5669291338582677,
                    "duration": 0.5608517416666672
                },
                {
                    "name": "F#5",
                    "midi": 78,
                    "time": 70.22839199999952,
                    "velocity": 0.6692913385826772,
                    "duration": 0.5608517416666672
                },
                {
                    "name": "E4",
                    "midi": 64,
                    "time": 70.79474999999951,
                    "velocity": 0.5669291338582677,
                    "duration": 0.5608517416666672
                },
                {
                    "name": "E5",
                    "midi": 76,
                    "time": 70.79474999999951,
                    "velocity": 0.6692913385826772,
                    "duration": 0.5608517416666672
                },
                {
                    "name": "A3",
                    "midi": 57,
                    "time": 71.3611079999995,
                    "velocity": 0.5669291338582677,
                    "duration": 0.5608517416666672
                },
                {
                    "name": "A4",
                    "midi": 69,
                    "time": 71.3611079999995,
                    "velocity": 0.6692913385826772,
                    "duration": 0.5608517416666672
                },
                {
                    "name": "G#3",
                    "midi": 56,
                    "time": 71.9274659999995,
                    "velocity": 0.5669291338582677,
                    "duration": 0.5608517416666672
                },
                {
                    "name": "G#4",
                    "midi": 68,
                    "time": 71.9274659999995,
                    "velocity": 0.6692913385826772,
                    "duration": 0.5608517416666672
                },
                {
                    "name": "F#3",
                    "midi": 54,
                    "time": 72.49382399999949,
                    "velocity": 0.5669291338582677,
                    "duration": 0.5608517416666672
                },
                {
                    "name": "F#4",
                    "midi": 66,
                    "time": 72.49382399999949,
                    "velocity": 0.6692913385826772,
                    "duration": 0.5608517416666672
                },
                {
                    "name": "E4",
                    "midi": 64,
                    "time": 73.06018199999949,
                    "velocity": 0.7086614173228346,
                    "duration": 0.18878599999999324
                },
                {
                    "name": "C#5",
                    "midi": 73,
                    "time": 73.24896799999948,
                    "velocity": 0.6299212598425197,
                    "duration": 0.09439299999999662
                },
                {
                    "name": "C#4",
                    "midi": 61,
                    "time": 73.24896799999948,
                    "velocity": 0.5354330708661418,
                    "duration": 0.09439299999999662
                },
                {
                    "name": "C#5",
                    "midi": 73,
                    "time": 73.43775399999947,
                    "velocity": 0.6299212598425197,
                    "duration": 0.09439299999999662
                },
                {
                    "name": "C#4",
                    "midi": 61,
                    "time": 73.43775399999947,
                    "velocity": 0.5354330708661418,
                    "duration": 0.09439299999999662
                },
                {
                    "name": "D#4",
                    "midi": 63,
                    "time": 73.62653999999947,
                    "velocity": 0.5669291338582677,
                    "duration": 0.09439299999999662
                },
                {
                    "name": "D#5",
                    "midi": 75,
                    "time": 73.62653999999947,
                    "velocity": 0.6692913385826772,
                    "duration": 0.09439299999999662
                },
                {
                    "name": "E5",
                    "midi": 76,
                    "time": 73.81532599999946,
                    "velocity": 0.6299212598425197,
                    "duration": 0.09439299999999662
                },
                {
                    "name": "E4",
                    "midi": 64,
                    "time": 73.81532599999946,
                    "velocity": 0.5354330708661418,
                    "duration": 0.09439299999999662
                },
                {
                    "name": "F#5",
                    "midi": 78,
                    "time": 74.00411199999945,
                    "velocity": 0.6299212598425197,
                    "duration": 0.09439299999999662
                },
                {
                    "name": "F#4",
                    "midi": 66,
                    "time": 74.00411199999945,
                    "velocity": 0.5354330708661418,
                    "duration": 0.09439299999999662
                },
                {
                    "name": "D#4",
                    "midi": 63,
                    "time": 74.19289799999945,
                    "velocity": 0.5669291338582677,
                    "duration": 0.09439299999999662
                },
                {
                    "name": "D#5",
                    "midi": 75,
                    "time": 74.19289799999945,
                    "velocity": 0.6692913385826772,
                    "duration": 0.09439299999999662
                },
                {
                    "name": "E5",
                    "midi": 76,
                    "time": 74.38168399999944,
                    "velocity": 0.6377952755905512,
                    "duration": 0.09439299999999662
                },
                {
                    "name": "E4",
                    "midi": 64,
                    "time": 74.38168399999944,
                    "velocity": 0.5354330708661418,
                    "duration": 0.09439299999999662
                },
                {
                    "name": "F#5",
                    "midi": 78,
                    "time": 74.57046999999943,
                    "velocity": 0.6377952755905512,
                    "duration": 0.09439299999999662
                },
                {
                    "name": "F#4",
                    "midi": 66,
                    "time": 74.57046999999943,
                    "velocity": 0.5354330708661418,
                    "duration": 0.09439299999999662
                },
                {
                    "name": "G#4",
                    "midi": 68,
                    "time": 74.75925599999943,
                    "velocity": 0.5669291338582677,
                    "duration": 0.09439299999999662
                },
                {
                    "name": "G#5",
                    "midi": 80,
                    "time": 74.75925599999943,
                    "velocity": 0.6692913385826772,
                    "duration": 0.09439299999999662
                },
                {
                    "name": "A5",
                    "midi": 81,
                    "time": 74.94804199999942,
                    "velocity": 0.6220472440944882,
                    "duration": 0.09439299999999662
                },
                {
                    "name": "A4",
                    "midi": 69,
                    "time": 74.94804199999942,
                    "velocity": 0.5196850393700787,
                    "duration": 0.09439299999999662
                },
                {
                    "name": "B5",
                    "midi": 83,
                    "time": 75.13682799999941,
                    "velocity": 0.5984251968503937,
                    "duration": 0.09439299999999662
                },
                {
                    "name": "B4",
                    "midi": 71,
                    "time": 75.13682799999941,
                    "velocity": 0.5039370078740157,
                    "duration": 0.09439299999999662
                },
                {
                    "name": "A4",
                    "midi": 69,
                    "time": 75.3256139999994,
                    "velocity": 0.5196850393700787,
                    "duration": 0.09439299999999662
                },
                {
                    "name": "A5",
                    "midi": 81,
                    "time": 75.3256139999994,
                    "velocity": 0.6220472440944882,
                    "duration": 0.09439299999999662
                },
                {
                    "name": "B5",
                    "midi": 83,
                    "time": 75.5143999999994,
                    "velocity": 0.5669291338582677,
                    "duration": 0.09439299999999662
                },
                {
                    "name": "B4",
                    "midi": 71,
                    "time": 75.5143999999994,
                    "velocity": 0.48031496062992124,
                    "duration": 0.09439299999999662
                },
                {
                    "name": "C#6",
                    "midi": 85,
                    "time": 75.70318599999939,
                    "velocity": 0.5511811023622047,
                    "duration": 0.09439299999999662
                },
                {
                    "name": "C#5",
                    "midi": 73,
                    "time": 75.70318599999939,
                    "velocity": 0.4645669291338583,
                    "duration": 0.09439299999999662
                },
                {
                    "name": "E5",
                    "midi": 76,
                    "time": 75.89197199999938,
                    "velocity": 0.5669291338582677,
                    "duration": 0.18878599999999324
                },
                {
                    "name": "G#5",
                    "midi": 80,
                    "time": 75.89197199999938,
                    "velocity": 0.5669291338582677,
                    "duration": 0.5663579999999797
                },
                {
                    "name": "D#5",
                    "midi": 75,
                    "time": 76.08075799999938,
                    "velocity": 0.5275590551181102,
                    "duration": 0.18878599999999324
                },
                {
                    "name": "C#5",
                    "midi": 73,
                    "time": 76.26954399999937,
                    "velocity": 0.5275590551181102,
                    "duration": 0.18878599999999324
                },
                {
                    "name": "D#5",
                    "midi": 75,
                    "time": 76.45832999999936,
                    "velocity": 0.5669291338582677,
                    "duration": 0.18878599999999324
                },
                {
                    "name": "G#5",
                    "midi": 80,
                    "time": 76.45832999999936,
                    "velocity": 0.5669291338582677,
                    "duration": 0.5663579999999797
                },
                {
                    "name": "C5",
                    "midi": 72,
                    "time": 76.64711599999936,
                    "velocity": 0.5354330708661418,
                    "duration": 0.18878599999999324
                },
                {
                    "name": "G#4",
                    "midi": 68,
                    "time": 76.83590199999935,
                    "velocity": 0.5354330708661418,
                    "duration": 0.18878599999999324
                },
                {
                    "name": "C#5",
                    "midi": 73,
                    "time": 77.02468799999934,
                    "velocity": 0.6299212598425197,
                    "duration": 0.09439299999999662
                },
                {
                    "name": "G#5",
                    "midi": 80,
                    "time": 77.21347399999934,
                    "velocity": 0.6299212598425197,
                    "duration": 0.09439299999999662
                },
                {
                    "name": "F5",
                    "midi": 77,
                    "time": 77.21347399999934,
                    "velocity": 0.5354330708661418,
                    "duration": 0.09439299999999662
                },
                {
                    "name": "C#5",
                    "midi": 73,
                    "time": 77.21347399999934,
                    "velocity": 0.5354330708661418,
                    "duration": 0.09439299999999662
                },
                {
                    "name": "G#5",
                    "midi": 80,
                    "time": 77.40225999999933,
                    "velocity": 0.6929133858267716,
                    "duration": 0.09439299999999662
                },
                {
                    "name": "F5",
                    "midi": 77,
                    "time": 77.40225999999933,
                    "velocity": 0.5826771653543307,
                    "duration": 0.09439299999999662
                },
                {
                    "name": "C#5",
                    "midi": 73,
                    "time": 77.40225999999933,
                    "velocity": 0.5826771653543307,
                    "duration": 0.09439299999999662
                },
                {
                    "name": "A5",
                    "midi": 81,
                    "time": 77.59104599999932,
                    "velocity": 0.7480314960629921,
                    "duration": 0.5663579999999939
                },
                {
                    "name": "F#5",
                    "midi": 78,
                    "time": 77.59104599999932,
                    "velocity": 0.6299212598425197,
                    "duration": 0.5663579999999939
                },
                {
                    "name": "C#5",
                    "midi": 73,
                    "time": 78.15740399999932,
                    "velocity": 0.6299212598425197,
                    "duration": 0.09439299999999662
                },
                {
                    "name": "G#5",
                    "midi": 80,
                    "time": 78.34618999999931,
                    "velocity": 0.6299212598425197,
                    "duration": 0.09439299999999662
                },
                {
                    "name": "F5",
                    "midi": 77,
                    "time": 78.34618999999931,
                    "velocity": 0.5354330708661418,
                    "duration": 0.09439299999999662
                },
                {
                    "name": "C#5",
                    "midi": 73,
                    "time": 78.34618999999931,
                    "velocity": 0.5354330708661418,
                    "duration": 0.09439299999999662
                },
                {
                    "name": "G#5",
                    "midi": 80,
                    "time": 78.5349759999993,
                    "velocity": 0.6929133858267716,
                    "duration": 0.09439299999999662
                },
                {
                    "name": "F5",
                    "midi": 77,
                    "time": 78.5349759999993,
                    "velocity": 0.5826771653543307,
                    "duration": 0.09439299999999662
                },
                {
                    "name": "C#5",
                    "midi": 73,
                    "time": 78.5349759999993,
                    "velocity": 0.5826771653543307,
                    "duration": 0.09439299999999662
                },
                {
                    "name": "A5",
                    "midi": 81,
                    "time": 78.7237619999993,
                    "velocity": 0.7480314960629921,
                    "duration": 0.5663579999999939
                },
                {
                    "name": "F#5",
                    "midi": 78,
                    "time": 78.7237619999993,
                    "velocity": 0.6299212598425197,
                    "duration": 0.5663579999999939
                },
                {
                    "name": "C#6",
                    "midi": 85,
                    "time": 79.29011999999929,
                    "velocity": 0.8267716535433071,
                    "duration": 0.3775720000000007
                },
                {
                    "name": "G#5",
                    "midi": 80,
                    "time": 79.29011999999929,
                    "velocity": 0.7007874015748031,
                    "duration": 0.3775720000000007
                },
                {
                    "name": "F5",
                    "midi": 77,
                    "time": 79.29011999999929,
                    "velocity": 0.7007874015748031,
                    "duration": 0.3775720000000007
                },
                {
                    "name": "C#5",
                    "midi": 73,
                    "time": 79.29011999999929,
                    "velocity": 0.7007874015748031,
                    "duration": 0.3775720000000007
                },
                {
                    "name": "C#5",
                    "midi": 73,
                    "time": 79.66769199999929,
                    "velocity": 0.5984251968503937,
                    "duration": 0.14158949999999493
                },
                {
                    "name": "C#6",
                    "midi": 85,
                    "time": 79.66769199999929,
                    "velocity": 0.7086614173228346,
                    "duration": 0.14158949999999493
                },
                {
                    "name": "C#5",
                    "midi": 73,
                    "time": 79.85647799999929,
                    "velocity": 0.6299212598425197,
                    "duration": 0.14158949999999493
                },
                {
                    "name": "C#6",
                    "midi": 85,
                    "time": 79.85647799999929,
                    "velocity": 0.7480314960629921,
                    "duration": 0.14158949999999493
                },
                {
                    "name": "C#6",
                    "midi": 85,
                    "time": 80.04526399999928,
                    "velocity": 0.6929133858267716,
                    "duration": 0.14158949999999493
                },
                {
                    "name": "C#5",
                    "midi": 73,
                    "time": 80.04526399999928,
                    "velocity": 0.5826771653543307,
                    "duration": 0.14158949999999493
                },
                {
                    "name": "C#6",
                    "midi": 85,
                    "time": 80.23404999999927,
                    "velocity": 0.7007874015748031,
                    "duration": 0.14158949999999493
                },
                {
                    "name": "C#5",
                    "midi": 73,
                    "time": 80.23404999999927,
                    "velocity": 0.5905511811023622,
                    "duration": 0.14158949999999493
                },
                {
                    "name": "C#6",
                    "midi": 85,
                    "time": 80.42283599999926,
                    "velocity": 0.8267716535433071,
                    "duration": 0.3775720000000007
                },
                {
                    "name": "C#5",
                    "midi": 73,
                    "time": 80.42283599999926,
                    "velocity": 0.7007874015748031,
                    "duration": 0.3775720000000007
                },
                {
                    "name": "C#5",
                    "midi": 73,
                    "time": 80.80040799999927,
                    "velocity": 0.5984251968503937,
                    "duration": 0.14158949999999493
                },
                {
                    "name": "C#6",
                    "midi": 85,
                    "time": 80.80040799999927,
                    "velocity": 0.7086614173228346,
                    "duration": 0.14158949999999493
                },
                {
                    "name": "C#5",
                    "midi": 73,
                    "time": 80.98919399999926,
                    "velocity": 0.6299212598425197,
                    "duration": 0.14158949999999493
                },
                {
                    "name": "C#6",
                    "midi": 85,
                    "time": 80.98919399999926,
                    "velocity": 0.7480314960629921,
                    "duration": 0.14158949999999493
                },
                {
                    "name": "C#6",
                    "midi": 85,
                    "time": 81.17797999999925,
                    "velocity": 0.6929133858267716,
                    "duration": 0.14158949999999493
                },
                {
                    "name": "C#5",
                    "midi": 73,
                    "time": 81.17797999999925,
                    "velocity": 0.5826771653543307,
                    "duration": 0.14158949999999493
                },
                {
                    "name": "C#6",
                    "midi": 85,
                    "time": 81.36676599999925,
                    "velocity": 0.7007874015748031,
                    "duration": 0.14158949999999493
                },
                {
                    "name": "C#5",
                    "midi": 73,
                    "time": 81.36676599999925,
                    "velocity": 0.5905511811023622,
                    "duration": 0.14158949999999493
                },
                {
                    "name": "E6",
                    "midi": 88,
                    "time": 81.55555199999924,
                    "velocity": 0.8267716535433071,
                    "duration": 0.3775720000000007
                },
                {
                    "name": "C#6",
                    "midi": 85,
                    "time": 81.55555199999924,
                    "velocity": 0.7007874015748031,
                    "duration": 0.3775720000000007
                },
                {
                    "name": "G#5",
                    "midi": 80,
                    "time": 81.55555199999924,
                    "velocity": 0.7007874015748031,
                    "duration": 0.3775720000000007
                },
                {
                    "name": "E5",
                    "midi": 76,
                    "time": 81.55555199999924,
                    "velocity": 0.7007874015748031,
                    "duration": 0.3775720000000007
                },
                {
                    "name": "E5",
                    "midi": 76,
                    "time": 81.93312399999924,
                    "velocity": 0.5984251968503937,
                    "duration": 0.14158949999999493
                },
                {
                    "name": "E6",
                    "midi": 88,
                    "time": 81.93312399999924,
                    "velocity": 0.7086614173228346,
                    "duration": 0.14158949999999493
                },
                {
                    "name": "E5",
                    "midi": 76,
                    "time": 82.12190999999923,
                    "velocity": 0.6299212598425197,
                    "duration": 0.14158949999999493
                },
                {
                    "name": "E6",
                    "midi": 88,
                    "time": 82.12190999999923,
                    "velocity": 0.7480314960629921,
                    "duration": 0.14158949999999493
                },
                {
                    "name": "E6",
                    "midi": 88,
                    "time": 82.31069599999923,
                    "velocity": 0.6929133858267716,
                    "duration": 0.14158949999999493
                },
                {
                    "name": "E5",
                    "midi": 76,
                    "time": 82.31069599999923,
                    "velocity": 0.5826771653543307,
                    "duration": 0.14158949999999493
                },
                {
                    "name": "E6",
                    "midi": 88,
                    "time": 82.49948199999922,
                    "velocity": 0.7007874015748031,
                    "duration": 0.14158949999999493
                },
                {
                    "name": "E5",
                    "midi": 76,
                    "time": 82.49948199999922,
                    "velocity": 0.5905511811023622,
                    "duration": 0.14158949999999493
                },
                {
                    "name": "E6",
                    "midi": 88,
                    "time": 82.68826799999921,
                    "velocity": 0.8267716535433071,
                    "duration": 0.3775720000000007
                },
                {
                    "name": "E5",
                    "midi": 76,
                    "time": 82.68826799999921,
                    "velocity": 0.7007874015748031,
                    "duration": 0.3775720000000007
                },
                {
                    "name": "E5",
                    "midi": 76,
                    "time": 83.06583999999921,
                    "velocity": 0.5669291338582677,
                    "duration": 0.14158949999999493
                },
                {
                    "name": "E6",
                    "midi": 88,
                    "time": 83.06583999999921,
                    "velocity": 0.6692913385826772,
                    "duration": 0.14158949999999493
                },
                {
                    "name": "E5",
                    "midi": 76,
                    "time": 83.2546259999992,
                    "velocity": 0.5984251968503937,
                    "duration": 0.14158949999999493
                },
                {
                    "name": "E6",
                    "midi": 88,
                    "time": 83.2546259999992,
                    "velocity": 0.7086614173228346,
                    "duration": 0.14158949999999493
                },
                {
                    "name": "E6",
                    "midi": 88,
                    "time": 83.4434119999992,
                    "velocity": 0.5511811023622047,
                    "duration": 0.14158949999999493
                },
                {
                    "name": "E5",
                    "midi": 76,
                    "time": 83.4434119999992,
                    "velocity": 0.4645669291338583,
                    "duration": 0.14158949999999493
                },
                {
                    "name": "E6",
                    "midi": 88,
                    "time": 83.63219799999919,
                    "velocity": 0.5590551181102362,
                    "duration": 0.14158949999999493
                },
                {
                    "name": "E5",
                    "midi": 76,
                    "time": 83.63219799999919,
                    "velocity": 0.47244094488188976,
                    "duration": 0.14158949999999493
                },
                {
                    "name": "E6",
                    "midi": 88,
                    "time": 83.82098399999919,
                    "velocity": 0.5984251968503937,
                    "duration": 0.14158949999999493
                },
                {
                    "name": "E5",
                    "midi": 76,
                    "time": 83.82098399999919,
                    "velocity": 0.5039370078740157,
                    "duration": 0.14158949999999493
                },
                {
                    "name": "E6",
                    "midi": 88,
                    "time": 84.00976999999918,
                    "velocity": 0.5511811023622047,
                    "duration": 0.14158949999999493
                },
                {
                    "name": "E5",
                    "midi": 76,
                    "time": 84.00976999999918,
                    "velocity": 0.4645669291338583,
                    "duration": 0.14158949999999493
                },
                {
                    "name": "E5",
                    "midi": 76,
                    "time": 84.19855599999917,
                    "velocity": 0.47244094488188976,
                    "duration": 0.14158949999999493
                },
                {
                    "name": "E6",
                    "midi": 88,
                    "time": 84.19855599999917,
                    "velocity": 0.5590551181102362,
                    "duration": 0.14158949999999493
                },
                {
                    "name": "E6",
                    "midi": 88,
                    "time": 84.38734199999917,
                    "velocity": 0.5984251968503937,
                    "duration": 0.14158949999999493
                },
                {
                    "name": "E5",
                    "midi": 76,
                    "time": 84.38734199999917,
                    "velocity": 0.5039370078740157,
                    "duration": 0.14158949999999493
                },
                {
                    "name": "E6",
                    "midi": 88,
                    "time": 84.57612799999916,
                    "velocity": 0.5511811023622047,
                    "duration": 0.14158949999999493
                },
                {
                    "name": "E5",
                    "midi": 76,
                    "time": 84.57612799999916,
                    "velocity": 0.4645669291338583,
                    "duration": 0.14158949999999493
                },
                {
                    "name": "E6",
                    "midi": 88,
                    "time": 84.76491399999915,
                    "velocity": 0.5590551181102362,
                    "duration": 0.14158949999999493
                },
                {
                    "name": "E5",
                    "midi": 76,
                    "time": 84.76491399999915,
                    "velocity": 0.47244094488188976,
                    "duration": 0.14158949999999493
                },
                {
                    "name": "E6",
                    "midi": 88,
                    "time": 84.95369999999915,
                    "velocity": 0.5984251968503937,
                    "duration": 0.14158949999999493
                },
                {
                    "name": "E5",
                    "midi": 76,
                    "time": 84.95369999999915,
                    "velocity": 0.5039370078740157,
                    "duration": 0.14158949999999493
                },
                {
                    "name": "E6",
                    "midi": 88,
                    "time": 85.14248599999914,
                    "velocity": 0.5511811023622047,
                    "duration": 0.14158949999999493
                },
                {
                    "name": "E5",
                    "midi": 76,
                    "time": 85.14248599999914,
                    "velocity": 0.4645669291338583,
                    "duration": 0.14158949999999493
                },
                {
                    "name": "E5",
                    "midi": 76,
                    "time": 85.33127199999913,
                    "velocity": 0.47244094488188976,
                    "duration": 0.14158949999999493
                },
                {
                    "name": "E6",
                    "midi": 88,
                    "time": 85.33127199999913,
                    "velocity": 0.5590551181102362,
                    "duration": 0.14158949999999493
                },
                {
                    "name": "E6",
                    "midi": 88,
                    "time": 85.52005799999912,
                    "velocity": 0.5984251968503937,
                    "duration": 0.14158949999999493
                },
                {
                    "name": "E5",
                    "midi": 76,
                    "time": 85.52005799999912,
                    "velocity": 0.5039370078740157,
                    "duration": 0.14158949999999493
                },
                {
                    "name": "F#6",
                    "midi": 90,
                    "time": 85.70884399999912,
                    "velocity": 0.5196850393700787,
                    "duration": 0.14158949999999493
                },
                {
                    "name": "F#5",
                    "midi": 78,
                    "time": 85.70884399999912,
                    "velocity": 0.4409448818897638,
                    "duration": 0.14158949999999493
                },
                {
                    "name": "F#6",
                    "midi": 90,
                    "time": 85.89762999999911,
                    "velocity": 0.5039370078740157,
                    "duration": 0.14158949999999493
                },
                {
                    "name": "F#5",
                    "midi": 78,
                    "time": 85.89762999999911,
                    "velocity": 0.41732283464566927,
                    "duration": 0.14158949999999493
                },
                {
                    "name": "A6",
                    "midi": 93,
                    "time": 86.0864159999991,
                    "velocity": 0.5354330708661418,
                    "duration": 0.14158949999999493
                },
                {
                    "name": "A5",
                    "midi": 81,
                    "time": 86.0864159999991,
                    "velocity": 0.44881889763779526,
                    "duration": 0.14158949999999493
                },
                {
                    "name": "A5",
                    "midi": 81,
                    "time": 86.2752019999991,
                    "velocity": 0.4094488188976378,
                    "duration": 0.14158949999999493
                },
                {
                    "name": "A6",
                    "midi": 93,
                    "time": 86.2752019999991,
                    "velocity": 0.4881889763779528,
                    "duration": 0.14158949999999493
                },
                {
                    "name": "A5",
                    "midi": 81,
                    "time": 86.46398799999909,
                    "velocity": 0.41732283464566927,
                    "duration": 0.14158949999999493
                },
                {
                    "name": "A6",
                    "midi": 93,
                    "time": 86.46398799999909,
                    "velocity": 0.49606299212598426,
                    "duration": 0.14158949999999493
                },
                {
                    "name": "A6",
                    "midi": 93,
                    "time": 86.65277399999908,
                    "velocity": 0.5275590551181102,
                    "duration": 0.14158949999999493
                },
                {
                    "name": "A5",
                    "midi": 81,
                    "time": 86.65277399999908,
                    "velocity": 0.3700787401574803,
                    "duration": 0.14158949999999493
                },
                {
                    "name": "A6",
                    "midi": 93,
                    "time": 86.84155999999908,
                    "velocity": 0.49606299212598426,
                    "duration": 0.14158949999999493
                },
                {
                    "name": "A5",
                    "midi": 81,
                    "time": 86.84155999999908,
                    "velocity": 0.4251968503937008,
                    "duration": 0.14158949999999493
                },
                {
                    "name": "A5",
                    "midi": 81,
                    "time": 87.03034599999907,
                    "velocity": 0.4094488188976378,
                    "duration": 0.14158949999999493
                },
                {
                    "name": "A6",
                    "midi": 93,
                    "time": 87.03034599999907,
                    "velocity": 0.4881889763779528,
                    "duration": 0.14158949999999493
                },
                {
                    "name": "A6",
                    "midi": 93,
                    "time": 87.21913199999906,
                    "velocity": 0.48031496062992124,
                    "duration": 0.18878599999999324
                },
                {
                    "name": "A5",
                    "midi": 81,
                    "time": 87.21913199999906,
                    "velocity": 0.4015748031496063,
                    "duration": 0.18878599999999324
                },
                {
                    "name": "E4",
                    "midi": 64,
                    "time": 88.06866899999906,
                    "velocity": 0.4645669291338583,
                    "duration": 0.0849536999999998
                },
                {
                    "name": "A4",
                    "midi": 69,
                    "time": 88.06866899999906,
                    "velocity": 0.5511811023622047,
                    "duration": 0.0849536999999998
                },
                {
                    "name": "A4",
                    "midi": 69,
                    "time": 88.16306199999906,
                    "velocity": 0.5354330708661418,
                    "duration": 0.14158949999999493
                },
                {
                    "name": "E4",
                    "midi": 64,
                    "time": 88.16306199999906,
                    "velocity": 0.44881889763779526,
                    "duration": 0.14158949999999493
                },
                {
                    "name": "E4",
                    "midi": 64,
                    "time": 88.35184799999905,
                    "velocity": 0.4645669291338583,
                    "duration": 0.18878599999999324
                },
                {
                    "name": "A4",
                    "midi": 69,
                    "time": 88.35184799999905,
                    "velocity": 0.5511811023622047,
                    "duration": 0.18878599999999324
                },
                {
                    "name": "B4",
                    "midi": 71,
                    "time": 88.54063399999905,
                    "velocity": 0.5433070866141733,
                    "duration": 0.18878599999999324
                },
                {
                    "name": "G#4",
                    "midi": 68,
                    "time": 88.54063399999905,
                    "velocity": 0.4566929133858268,
                    "duration": 0.18878599999999324
                },
                {
                    "name": "C#5",
                    "midi": 73,
                    "time": 88.72941999999904,
                    "velocity": 0.5433070866141733,
                    "duration": 0.09439299999999662
                },
                {
                    "name": "A4",
                    "midi": 69,
                    "time": 88.72941999999904,
                    "velocity": 0.5433070866141733,
                    "duration": 0.09439299999999662
                },
                {
                    "name": "E4",
                    "midi": 64,
                    "time": 88.72941999999904,
                    "velocity": 0.4566929133858268,
                    "duration": 0.09439299999999662
                },
                {
                    "name": "C#5",
                    "midi": 73,
                    "time": 88.91820599999903,
                    "velocity": 0.5748031496062992,
                    "duration": 0.3775720000000007
                },
                {
                    "name": "A4",
                    "midi": 69,
                    "time": 88.91820599999903,
                    "velocity": 0.5748031496062992,
                    "duration": 0.3775720000000007
                },
                {
                    "name": "E4",
                    "midi": 64,
                    "time": 88.91820599999903,
                    "velocity": 0.4881889763779528,
                    "duration": 0.3775720000000007
                },
                {
                    "name": "C#5",
                    "midi": 73,
                    "time": 89.29577799999903,
                    "velocity": 0.5118110236220472,
                    "duration": 0.14158949999999493
                },
                {
                    "name": "A4",
                    "midi": 69,
                    "time": 89.29577799999903,
                    "velocity": 0.4330708661417323,
                    "duration": 0.14158949999999493
                },
                {
                    "name": "A4",
                    "midi": 69,
                    "time": 89.48456399999903,
                    "velocity": 0.4645669291338583,
                    "duration": 0.18878599999999324
                },
                {
                    "name": "C#5",
                    "midi": 73,
                    "time": 89.48456399999903,
                    "velocity": 0.5511811023622047,
                    "duration": 0.18878599999999324
                },
                {
                    "name": "D5",
                    "midi": 74,
                    "time": 89.67334999999902,
                    "velocity": 0.5196850393700787,
                    "duration": 0.18878599999999324
                },
                {
                    "name": "B4",
                    "midi": 71,
                    "time": 89.67334999999902,
                    "velocity": 0.4409448818897638,
                    "duration": 0.18878599999999324
                },
                {
                    "name": "E5",
                    "midi": 76,
                    "time": 89.86213599999901,
                    "velocity": 0.5039370078740157,
                    "duration": 0.09439299999999662
                },
                {
                    "name": "C#5",
                    "midi": 73,
                    "time": 89.86213599999901,
                    "velocity": 0.4251968503937008,
                    "duration": 0.09439299999999662
                },
                {
                    "name": "E5",
                    "midi": 76,
                    "time": 90.050921999999,
                    "velocity": 0.4251968503937008,
                    "duration": 0.18878599999999324
                },
                {
                    "name": "C#5",
                    "midi": 73,
                    "time": 90.050921999999,
                    "velocity": 0.4251968503937008,
                    "duration": 0.18878599999999324
                },
                {
                    "name": "D5",
                    "midi": 74,
                    "time": 90.239707999999,
                    "velocity": 0.3937007874015748,
                    "duration": 0.18878599999999324
                },
                {
                    "name": "C#5",
                    "midi": 73,
                    "time": 90.42849399999899,
                    "velocity": 0.33858267716535434,
                    "duration": 0.18878599999999324
                },
                {
                    "name": "A4",
                    "midi": 69,
                    "time": 90.61727999999898,
                    "velocity": 0.3858267716535433,
                    "duration": 0.28317900000000407
                },
                {
                    "name": "B4",
                    "midi": 71,
                    "time": 90.61727999999898,
                    "velocity": 0.4330708661417323,
                    "duration": 0.28317900000000407
                },
                {
                    "name": "B4",
                    "midi": 71,
                    "time": 90.90045899999899,
                    "velocity": 0.3543307086614173,
                    "duration": 0.0849536999999998
                },
                {
                    "name": "A4",
                    "midi": 69,
                    "time": 90.90045899999899,
                    "velocity": 0.3543307086614173,
                    "duration": 0.0849536999999998
                },
                {
                    "name": "B4",
                    "midi": 71,
                    "time": 90.99485199999899,
                    "velocity": 0.3543307086614173,
                    "duration": 0.14158949999999493
                },
                {
                    "name": "A4",
                    "midi": 69,
                    "time": 90.99485199999899,
                    "velocity": 0.3543307086614173,
                    "duration": 0.14158949999999493
                },
                {
                    "name": "A4",
                    "midi": 69,
                    "time": 91.18363799999898,
                    "velocity": 0.3858267716535433,
                    "duration": 1.4158949999999635
                },
                {
                    "name": "D5",
                    "midi": 74,
                    "time": 91.18363799999898,
                    "velocity": 0.4251968503937008,
                    "duration": 0.18878599999999324
                },
                {
                    "name": "C#5",
                    "midi": 73,
                    "time": 91.37242399999897,
                    "velocity": 0.3937007874015748,
                    "duration": 0.18878599999999324
                },
                {
                    "name": "B4",
                    "midi": 71,
                    "time": 91.56120999999897,
                    "velocity": 0.33858267716535434,
                    "duration": 0.18878599999999324
                },
                {
                    "name": "F#5",
                    "midi": 78,
                    "time": 91.74999599999896,
                    "velocity": 0.4251968503937008,
                    "duration": 0.18878599999999324
                },
                {
                    "name": "D5",
                    "midi": 74,
                    "time": 91.93878199999895,
                    "velocity": 0.3937007874015748,
                    "duration": 0.18878599999999324
                },
                {
                    "name": "C#5",
                    "midi": 73,
                    "time": 92.12756799999894,
                    "velocity": 0.3937007874015748,
                    "duration": 0.18878599999999324
                },
                {
                    "name": "B4",
                    "midi": 71,
                    "time": 92.31635399999894,
                    "velocity": 0.4330708661417323,
                    "duration": 0.28317900000000407
                },
                {
                    "name": "B4",
                    "midi": 71,
                    "time": 92.59953299999894,
                    "velocity": 0.3543307086614173,
                    "duration": 0.0849536999999998
                },
                {
                    "name": "A4",
                    "midi": 69,
                    "time": 92.59953299999894,
                    "velocity": 0.3543307086614173,
                    "duration": 0.0849536999999998
                },
                {
                    "name": "B4",
                    "midi": 71,
                    "time": 92.69392599999894,
                    "velocity": 0.3543307086614173,
                    "duration": 0.14158949999999493
                },
                {
                    "name": "A4",
                    "midi": 69,
                    "time": 92.69392599999894,
                    "velocity": 0.3543307086614173,
                    "duration": 0.14158949999999493
                },
                {
                    "name": "A4",
                    "midi": 69,
                    "time": 92.88271199999893,
                    "velocity": 0.3858267716535433,
                    "duration": 1.8878599999999466
                },
                {
                    "name": "B4",
                    "midi": 71,
                    "time": 92.88271199999893,
                    "velocity": 0.4330708661417323,
                    "duration": 0.28317900000000407
                },
                {
                    "name": "B4",
                    "midi": 71,
                    "time": 93.16589099999894,
                    "velocity": 0.3543307086614173,
                    "duration": 0.0849536999999998
                },
                {
                    "name": "B4",
                    "midi": 71,
                    "time": 93.26028399999893,
                    "velocity": 0.3543307086614173,
                    "duration": 0.14158949999999493
                },
                {
                    "name": "D5",
                    "midi": 74,
                    "time": 93.44906999999893,
                    "velocity": 0.4251968503937008,
                    "duration": 0.18878599999999324
                },
                {
                    "name": "C#5",
                    "midi": 73,
                    "time": 93.63785599999892,
                    "velocity": 0.3937007874015748,
                    "duration": 0.18878599999999324
                },
                {
                    "name": "B4",
                    "midi": 71,
                    "time": 93.82664199999891,
                    "velocity": 0.33858267716535434,
                    "duration": 0.18878599999999324
                },
                {
                    "name": "F#5",
                    "midi": 78,
                    "time": 94.0154279999989,
                    "velocity": 0.4251968503937008,
                    "duration": 0.18878599999999324
                },
                {
                    "name": "D5",
                    "midi": 74,
                    "time": 94.2042139999989,
                    "velocity": 0.3937007874015748,
                    "duration": 0.18878599999999324
                },
                {
                    "name": "C#5",
                    "midi": 73,
                    "time": 94.39299999999889,
                    "velocity": 0.3937007874015748,
                    "duration": 0.18878599999999324
                },
                {
                    "name": "B4",
                    "midi": 71,
                    "time": 94.58178599999889,
                    "velocity": 0.4330708661417323,
                    "duration": 0.1832797416666665
                },
                {
                    "name": "B4",
                    "midi": 71,
                    "time": 94.77057199999888,
                    "velocity": 0.3543307086614173,
                    "duration": 0.17305383333332713
                },
                {
                    "name": "A4",
                    "midi": 69,
                    "time": 94.77057199999888,
                    "velocity": 0.3543307086614173,
                    "duration": 0.17934669999999642
                },
                {
                    "name": "B4",
                    "midi": 71,
                    "time": 94.95935799999887,
                    "velocity": 0.3543307086614173,
                    "duration": 0.14158949999999493
                },
                {
                    "name": "A4",
                    "midi": 69,
                    "time": 94.95935799999887,
                    "velocity": 0.3543307086614173,
                    "duration": 0.14158949999999493
                },
                {
                    "name": "F#5",
                    "midi": 78,
                    "time": 95.14814399999887,
                    "velocity": 0.7086614173228346,
                    "duration": 0.7551440000000014
                },
                {
                    "name": "D#5",
                    "midi": 75,
                    "time": 95.90328799999887,
                    "velocity": 0.6141732283464567,
                    "duration": 0.09439299999999662
                },
                {
                    "name": "C#5",
                    "midi": 73,
                    "time": 96.09207399999886,
                    "velocity": 0.5669291338582677,
                    "duration": 0.09439299999999662
                },
                {
                    "name": "B4",
                    "midi": 71,
                    "time": 96.28085999999885,
                    "velocity": 0.6141732283464567,
                    "duration": 0.7551440000000014
                },
                {
                    "name": "B5",
                    "midi": 83,
                    "time": 96.28085999999885,
                    "velocity": 0.7086614173228346,
                    "duration": 0.7551440000000014
                },
                {
                    "name": "G#5",
                    "midi": 80,
                    "time": 97.03600399999885,
                    "velocity": 0.7637795275590551,
                    "duration": 0.09439299999999662
                },
                {
                    "name": "F#5",
                    "midi": 78,
                    "time": 97.22478999999885,
                    "velocity": 0.7086614173228346,
                    "duration": 0.09439299999999662
                },
                {
                    "name": "E6",
                    "midi": 88,
                    "time": 97.41357599999884,
                    "velocity": 0.7952755905511811,
                    "duration": 0.7551440000000014
                },
                {
                    "name": "E5",
                    "midi": 76,
                    "time": 97.41357599999884,
                    "velocity": 0.6692913385826772,
                    "duration": 0.7551440000000014
                },
                {
                    "name": "D5",
                    "midi": 74,
                    "time": 98.16871999999884,
                    "velocity": 0.5511811023622047,
                    "duration": 0.09439299999999662
                },
                {
                    "name": "D6",
                    "midi": 86,
                    "time": 98.16871999999884,
                    "velocity": 0.6614173228346457,
                    "duration": 0.09439299999999662
                },
                {
                    "name": "C#5",
                    "midi": 73,
                    "time": 98.35750599999884,
                    "velocity": 0.5511811023622047,
                    "duration": 0.09439299999999662
                },
                {
                    "name": "C#6",
                    "midi": 85,
                    "time": 98.35750599999884,
                    "velocity": 0.6535433070866141,
                    "duration": 0.09439299999999662
                },
                {
                    "name": "B5",
                    "midi": 83,
                    "time": 98.54629199999883,
                    "velocity": 0.7401574803149606,
                    "duration": 0.09439299999999662
                },
                {
                    "name": "B4",
                    "midi": 71,
                    "time": 98.54629199999883,
                    "velocity": 0.6220472440944882,
                    "duration": 0.09439299999999662
                },
                {
                    "name": "A4",
                    "midi": 69,
                    "time": 98.73507799999882,
                    "velocity": 0.5433070866141733,
                    "duration": 0.09439299999999662
                },
                {
                    "name": "A5",
                    "midi": 81,
                    "time": 98.73507799999882,
                    "velocity": 0.6456692913385826,
                    "duration": 0.09439299999999662
                },
                {
                    "name": "G#4",
                    "midi": 68,
                    "time": 98.92386399999882,
                    "velocity": 0.5433070866141733,
                    "duration": 0.09439299999999662
                },
                {
                    "name": "G#5",
                    "midi": 80,
                    "time": 98.92386399999882,
                    "velocity": 0.6377952755905512,
                    "duration": 0.09439299999999662
                },
                {
                    "name": "F#5",
                    "midi": 78,
                    "time": 99.11264999999881,
                    "velocity": 0.6929133858267716,
                    "duration": 0.09439299999999662
                },
                {
                    "name": "F#4",
                    "midi": 66,
                    "time": 99.11264999999881,
                    "velocity": 0.5826771653543307,
                    "duration": 0.09439299999999662
                },
                {
                    "name": "E4",
                    "midi": 64,
                    "time": 99.3014359999988,
                    "velocity": 0.5275590551181102,
                    "duration": 0.09439299999999662
                },
                {
                    "name": "E5",
                    "midi": 76,
                    "time": 99.3014359999988,
                    "velocity": 0.6299212598425197,
                    "duration": 0.09439299999999662
                },
                {
                    "name": "D4",
                    "midi": 62,
                    "time": 99.4902219999988,
                    "velocity": 0.5275590551181102,
                    "duration": 0.09439299999999662
                },
                {
                    "name": "D5",
                    "midi": 74,
                    "time": 99.4902219999988,
                    "velocity": 0.6220472440944882,
                    "duration": 0.09439299999999662
                },
                {
                    "name": "C#5",
                    "midi": 73,
                    "time": 99.67900799999879,
                    "velocity": 0.6929133858267716,
                    "duration": 0.09439299999999662
                },
                {
                    "name": "C#4",
                    "midi": 61,
                    "time": 99.67900799999879,
                    "velocity": 0.5826771653543307,
                    "duration": 0.09439299999999662
                },
                {
                    "name": "B4",
                    "midi": 71,
                    "time": 99.86779399999878,
                    "velocity": 0.5590551181102362,
                    "duration": 0.09439299999999662
                },
                {
                    "name": "B3",
                    "midi": 59,
                    "time": 99.86779399999878,
                    "velocity": 0.47244094488188976,
                    "duration": 0.09439299999999662
                },
                {
                    "name": "A4",
                    "midi": 69,
                    "time": 100.05657999999877,
                    "velocity": 0.5590551181102362,
                    "duration": 0.09439299999999662
                },
                {
                    "name": "A3",
                    "midi": 57,
                    "time": 100.05657999999877,
                    "velocity": 0.4645669291338583,
                    "duration": 0.09439299999999662
                },
                {
                    "name": "G#4",
                    "midi": 68,
                    "time": 100.24536599999877,
                    "velocity": 0.6062992125984252,
                    "duration": 0.09439299999999662
                },
                {
                    "name": "G#3",
                    "midi": 56,
                    "time": 100.24536599999877,
                    "velocity": 0.5118110236220472,
                    "duration": 0.09439299999999662
                },
                {
                    "name": "A4",
                    "midi": 69,
                    "time": 100.43415199999876,
                    "velocity": 0.5275590551181102,
                    "duration": 0.09439299999999662
                },
                {
                    "name": "A3",
                    "midi": 57,
                    "time": 100.43415199999876,
                    "velocity": 0.4409448818897638,
                    "duration": 0.09439299999999662
                },
                {
                    "name": "F#4",
                    "midi": 66,
                    "time": 100.62293799999875,
                    "velocity": 0.5196850393700787,
                    "duration": 0.09439299999999662
                },
                {
                    "name": "F#3",
                    "midi": 54,
                    "time": 100.62293799999875,
                    "velocity": 0.4330708661417323,
                    "duration": 0.09439299999999662
                },
                {
                    "name": "E4",
                    "midi": 64,
                    "time": 100.81172399999875,
                    "velocity": 0.5826771653543307,
                    "duration": 0.09439299999999662
                },
                {
                    "name": "E3",
                    "midi": 52,
                    "time": 100.81172399999875,
                    "velocity": 0.4881889763779528,
                    "duration": 0.09439299999999662
                },
                {
                    "name": "A4",
                    "midi": 69,
                    "time": 101.00050999999874,
                    "velocity": 0.4409448818897638,
                    "duration": 0.09439299999999662
                },
                {
                    "name": "A3",
                    "midi": 57,
                    "time": 101.00050999999874,
                    "velocity": 0.3779527559055118,
                    "duration": 0.09439299999999662
                },
                {
                    "name": "C#4",
                    "midi": 61,
                    "time": 101.18929599999873,
                    "velocity": 0.4409448818897638,
                    "duration": 0.09439299999999662
                },
                {
                    "name": "A3",
                    "midi": 57,
                    "time": 101.18929599999873,
                    "velocity": 0.3700787401574803,
                    "duration": 0.09439299999999662
                },
                {
                    "name": "E4",
                    "midi": 64,
                    "time": 101.37808199999873,
                    "velocity": 0.5118110236220472,
                    "duration": 0.09439299999999662
                },
                {
                    "name": "G#3",
                    "midi": 56,
                    "time": 101.37808199999873,
                    "velocity": 0.4251968503937008,
                    "duration": 0.09439299999999662
                },
                {
                    "name": "D4",
                    "midi": 62,
                    "time": 101.56686799999872,
                    "velocity": 0.36220472440944884,
                    "duration": 0.09439299999999662
                },
                {
                    "name": "G#3",
                    "midi": 56,
                    "time": 101.56686799999872,
                    "velocity": 0.30708661417322836,
                    "duration": 0.09439299999999662
                },
                {
                    "name": "B3",
                    "midi": 59,
                    "time": 101.75565399999871,
                    "velocity": 0.36220472440944884,
                    "duration": 0.09439299999999662
                },
                {
                    "name": "G#3",
                    "midi": 56,
                    "time": 101.75565399999871,
                    "velocity": 0.30708661417322836,
                    "duration": 0.09439299999999662
                },
                {
                    "name": "A3",
                    "midi": 57,
                    "time": 101.9444399999987,
                    "velocity": 0.3858267716535433,
                    "duration": 0.14158949999999493
                },
                {
                    "name": "A3",
                    "midi": 57,
                    "time": 102.1332259999987,
                    "velocity": 0.3543307086614173,
                    "duration": 0.09439299999999662
                },
                {
                    "name": "A3",
                    "midi": 57,
                    "time": 102.3220119999987,
                    "velocity": 0.33858267716535434,
                    "duration": 0.09439299999999662
                },
                {
                    "name": "A3",
                    "midi": 57,
                    "time": 102.51079799999869,
                    "velocity": 0.3858267716535433,
                    "duration": 0.747277916666647
                },
                {
                    "name": "E3",
                    "midi": 52,
                    "time": 102.69958399999868,
                    "velocity": 0.31496062992125984,
                    "duration": 0.09439299999999662
                },
                {
                    "name": "E3",
                    "midi": 52,
                    "time": 102.88836999999867,
                    "velocity": 0.36220472440944884,
                    "duration": 0.09439299999999662
                },
                {
                    "name": "F#3",
                    "midi": 54,
                    "time": 103.07715599999867,
                    "velocity": 0.41732283464566927,
                    "duration": 0.3775720000000007
                },
                {
                    "name": "D3",
                    "midi": 50,
                    "time": 103.07715599999867,
                    "velocity": 0.41732283464566927,
                    "duration": 0.3775720000000007
                },
                {
                    "name": "A3",
                    "midi": 57,
                    "time": 103.26594199999867,
                    "velocity": 0.3543307086614173,
                    "duration": 0.09439299999999662
                },
                {
                    "name": "A3",
                    "midi": 57,
                    "time": 103.45472799999867,
                    "velocity": 0.33858267716535434,
                    "duration": 0.09439299999999662
                },
                {
                    "name": "A3",
                    "midi": 57,
                    "time": 103.64351399999866,
                    "velocity": 0.3858267716535433,
                    "duration": 0.747277916666647
                },
                {
                    "name": "E3",
                    "midi": 52,
                    "time": 103.83229999999865,
                    "velocity": 0.31496062992125984,
                    "duration": 0.09439299999999662
                },
                {
                    "name": "E3",
                    "midi": 52,
                    "time": 104.02108599999865,
                    "velocity": 0.36220472440944884,
                    "duration": 0.09439299999999662
                },
                {
                    "name": "F#3",
                    "midi": 54,
                    "time": 104.20987199999864,
                    "velocity": 0.49606299212598426,
                    "duration": 0.3775720000000007
                },
                {
                    "name": "D3",
                    "midi": 50,
                    "time": 104.20987199999864,
                    "velocity": 0.49606299212598426,
                    "duration": 0.3775720000000007
                },
                {
                    "name": "A3",
                    "midi": 57,
                    "time": 104.39865799999865,
                    "velocity": 0.41732283464566927,
                    "duration": 0.09439299999999662
                },
                {
                    "name": "A3",
                    "midi": 57,
                    "time": 104.58744399999864,
                    "velocity": 0.48031496062992124,
                    "duration": 0.09439299999999662
                },
                {
                    "name": "C#4",
                    "midi": 61,
                    "time": 104.77622999999863,
                    "velocity": 0.5275590551181102,
                    "duration": 0.7472779166666612
                },
                {
                    "name": "C#4",
                    "midi": 61,
                    "time": 105.53137399999864,
                    "velocity": 0.4645669291338583,
                    "duration": 0.09439299999999662
                },
                {
                    "name": "C#4",
                    "midi": 61,
                    "time": 105.72015999999863,
                    "velocity": 0.5354330708661418,
                    "duration": 0.09439299999999662
                },
                {
                    "name": "E4",
                    "midi": 64,
                    "time": 105.90894599999862,
                    "velocity": 0.5905511811023622,
                    "duration": 0.7551440000000014
                },
                {
                    "name": "C#4",
                    "midi": 61,
                    "time": 106.66408999999862,
                    "velocity": 0.5511811023622047,
                    "duration": 0.09439299999999662
                },
                {
                    "name": "E4",
                    "midi": 64,
                    "time": 106.75848299999862,
                    "velocity": 0.5748031496062992,
                    "duration": 0.09439299999999662
                },
                {
                    "name": "A4",
                    "midi": 69,
                    "time": 106.85287599999862,
                    "velocity": 0.5984251968503937,
                    "duration": 0.09439299999999662
                },
                {
                    "name": "C#5",
                    "midi": 73,
                    "time": 106.94726899999861,
                    "velocity": 0.6614173228346457,
                    "duration": 0.09439299999999662
                },
                {
                    "name": "E5",
                    "midi": 76,
                    "time": 107.04166199999861,
                    "velocity": 0.6929133858267716,
                    "duration": 0.7551440000000014
                },
                {
                    "name": "C#4",
                    "midi": 61,
                    "time": 107.79680599999861,
                    "velocity": 0.5826771653543307,
                    "duration": 0.09439299999999662
                },
                {
                    "name": "E4",
                    "midi": 64,
                    "time": 107.89119899999861,
                    "velocity": 0.6062992125984252,
                    "duration": 0.09439299999999662
                },
                {
                    "name": "G4",
                    "midi": 67,
                    "time": 107.9855919999986,
                    "velocity": 0.6377952755905512,
                    "duration": 0.09439299999999662
                },
                {
                    "name": "C#5",
                    "midi": 73,
                    "time": 108.0799849999986,
                    "velocity": 0.6929133858267716,
                    "duration": 0.09439299999999662
                },
                {
                    "name": "E5",
                    "midi": 76,
                    "time": 108.1743779999986,
                    "velocity": 0.7322834645669292,
                    "duration": 0.7551440000000014
                },
                {
                    "name": "F#4",
                    "midi": 66,
                    "time": 108.9295219999986,
                    "velocity": 0.6141732283464567,
                    "duration": 0.09439299999999662
                },
                {
                    "name": "A4",
                    "midi": 69,
                    "time": 109.0239149999986,
                    "velocity": 0.6456692913385826,
                    "duration": 0.09439299999999662
                },
                {
                    "name": "D5",
                    "midi": 74,
                    "time": 109.11830799999859,
                    "velocity": 0.6692913385826772,
                    "duration": 0.09439299999999662
                },
                {
                    "name": "F#5",
                    "midi": 78,
                    "time": 109.21270099999859,
                    "velocity": 0.7322834645669292,
                    "duration": 0.09439299999999662
                },
                {
                    "name": "A5",
                    "midi": 81,
                    "time": 109.30709399999859,
                    "velocity": 0.7716535433070866,
                    "duration": 0.7551440000000014
                },
                {
                    "name": "F#4",
                    "midi": 66,
                    "time": 110.06223799999859,
                    "velocity": 0.6456692913385826,
                    "duration": 0.09439299999999662
                },
                {
                    "name": "A4",
                    "midi": 69,
                    "time": 110.15663099999858,
                    "velocity": 0.6771653543307087,
                    "duration": 0.09439299999999662
                },
                {
                    "name": "D#5",
                    "midi": 75,
                    "time": 110.25102399999858,
                    "velocity": 0.7086614173228346,
                    "duration": 0.09439299999999662
                },
                {
                    "name": "F#5",
                    "midi": 78,
                    "time": 110.34541699999858,
                    "velocity": 0.7716535433070866,
                    "duration": 0.09439299999999662
                },
                {
                    "name": "A5",
                    "midi": 81,
                    "time": 110.43980999999857,
                    "velocity": 0.8110236220472441,
                    "duration": 0.7551440000000014
                },
                {
                    "name": "C#5",
                    "midi": 73,
                    "time": 111.19495399999857,
                    "velocity": 0.6771653543307087,
                    "duration": 0.09439299999999662
                },
                {
                    "name": "E5",
                    "midi": 76,
                    "time": 111.28934699999857,
                    "velocity": 0.7086614173228346,
                    "duration": 0.09439299999999662
                },
                {
                    "name": "A5",
                    "midi": 81,
                    "time": 111.38373999999857,
                    "velocity": 0.7401574803149606,
                    "duration": 0.09439299999999662
                },
                {
                    "name": "C#6",
                    "midi": 85,
                    "time": 111.47813299999856,
                    "velocity": 0.7716535433070866,
                    "duration": 0.09439299999999662
                },
                {
                    "name": "E6",
                    "midi": 88,
                    "time": 111.57252599999856,
                    "velocity": 0.7952755905511811,
                    "duration": 0.09439299999999662
                },
                {
                    "name": "C#6",
                    "midi": 85,
                    "time": 111.66691899999856,
                    "velocity": 0.7401574803149606,
                    "duration": 0.09439299999999662
                },
                {
                    "name": "A5",
                    "midi": 81,
                    "time": 111.76131199999855,
                    "velocity": 0.6062992125984252,
                    "duration": 0.09439299999999662
                },
                {
                    "name": "E5",
                    "midi": 76,
                    "time": 111.85570499999855,
                    "velocity": 0.49606299212598426,
                    "duration": 0.09439299999999662
                },
                {
                    "name": "A5",
                    "midi": 81,
                    "time": 111.95009799999855,
                    "velocity": 0.5433070866141733,
                    "duration": 0.09439299999999662
                },
                {
                    "name": "E5",
                    "midi": 76,
                    "time": 112.04449099999854,
                    "velocity": 0.5275590551181102,
                    "duration": 0.09439299999999662
                },
                {
                    "name": "E6",
                    "midi": 88,
                    "time": 112.13888399999854,
                    "velocity": 0.5984251968503937,
                    "duration": 0.09439299999999662
                },
                {
                    "name": "C#6",
                    "midi": 85,
                    "time": 112.23327699999854,
                    "velocity": 0.5275590551181102,
                    "duration": 0.09439299999999662
                },
                {
                    "name": "A5",
                    "midi": 81,
                    "time": 112.32766999999853,
                    "velocity": 0.5511811023622047,
                    "duration": 0.09439299999999662
                },
                {
                    "name": "E5",
                    "midi": 76,
                    "time": 112.42206299999853,
                    "velocity": 0.49606299212598426,
                    "duration": 0.09439299999999662
                },
                {
                    "name": "A5",
                    "midi": 81,
                    "time": 112.51645599999853,
                    "velocity": 0.5433070866141733,
                    "duration": 0.09439299999999662
                },
                {
                    "name": "E5",
                    "midi": 76,
                    "time": 112.61084899999852,
                    "velocity": 0.5275590551181102,
                    "duration": 0.09439299999999662
                },
                {
                    "name": "E6",
                    "midi": 88,
                    "time": 112.70524199999852,
                    "velocity": 0.5984251968503937,
                    "duration": 0.09439299999999662
                },
                {
                    "name": "C#6",
                    "midi": 85,
                    "time": 112.79963499999852,
                    "velocity": 0.5275590551181102,
                    "duration": 0.09439299999999662
                },
                {
                    "name": "A5",
                    "midi": 81,
                    "time": 112.89402799999851,
                    "velocity": 0.5511811023622047,
                    "duration": 0.09439299999999662
                },
                {
                    "name": "E5",
                    "midi": 76,
                    "time": 112.98842099999851,
                    "velocity": 0.49606299212598426,
                    "duration": 0.09439299999999662
                },
                {
                    "name": "A5",
                    "midi": 81,
                    "time": 113.0828139999985,
                    "velocity": 0.5433070866141733,
                    "duration": 0.09439299999999662
                },
                {
                    "name": "E5",
                    "midi": 76,
                    "time": 113.1772069999985,
                    "velocity": 0.5275590551181102,
                    "duration": 0.09439299999999662
                },
                {
                    "name": "E6",
                    "midi": 88,
                    "time": 113.2715999999985,
                    "velocity": 0.5984251968503937,
                    "duration": 0.09439299999999662
                },
                {
                    "name": "C#6",
                    "midi": 85,
                    "time": 113.3659929999985,
                    "velocity": 0.5275590551181102,
                    "duration": 0.09439299999999662
                },
                {
                    "name": "A5",
                    "midi": 81,
                    "time": 113.4603859999985,
                    "velocity": 0.5511811023622047,
                    "duration": 0.09439299999999662
                },
                {
                    "name": "E5",
                    "midi": 76,
                    "time": 113.55477899999849,
                    "velocity": 0.49606299212598426,
                    "duration": 0.09439299999999662
                },
                {
                    "name": "A5",
                    "midi": 81,
                    "time": 113.64917199999849,
                    "velocity": 0.5433070866141733,
                    "duration": 0.09439299999999662
                },
                {
                    "name": "E5",
                    "midi": 76,
                    "time": 113.74356499999848,
                    "velocity": 0.5275590551181102,
                    "duration": 0.09439299999999662
                },
                {
                    "name": "E6",
                    "midi": 88,
                    "time": 113.83795799999848,
                    "velocity": 0.5984251968503937,
                    "duration": 0.09439299999999662
                },
                {
                    "name": "C#6",
                    "midi": 85,
                    "time": 113.93235099999848,
                    "velocity": 0.5275590551181102,
                    "duration": 0.09439299999999662
                },
                {
                    "name": "A5",
                    "midi": 81,
                    "time": 114.02674399999847,
                    "velocity": 0.5511811023622047,
                    "duration": 0.09439299999999662
                },
                {
                    "name": "E5",
                    "midi": 76,
                    "time": 114.12113699999847,
                    "velocity": 0.49606299212598426,
                    "duration": 0.09439299999999662
                },
                {
                    "name": "A5",
                    "midi": 81,
                    "time": 114.21552999999847,
                    "velocity": 0.5433070866141733,
                    "duration": 0.09439299999999662
                },
                {
                    "name": "E5",
                    "midi": 76,
                    "time": 114.30992299999846,
                    "velocity": 0.5275590551181102,
                    "duration": 0.09439299999999662
                },
                {
                    "name": "E6",
                    "midi": 88,
                    "time": 114.40431599999846,
                    "velocity": 0.5984251968503937,
                    "duration": 0.09439299999999662
                },
                {
                    "name": "D6",
                    "midi": 86,
                    "time": 114.49870899999846,
                    "velocity": 0.5275590551181102,
                    "duration": 0.09439299999999662
                },
                {
                    "name": "B5",
                    "midi": 83,
                    "time": 114.59310199999845,
                    "velocity": 0.5511811023622047,
                    "duration": 0.09439299999999662
                },
                {
                    "name": "E5",
                    "midi": 76,
                    "time": 114.68749499999845,
                    "velocity": 0.49606299212598426,
                    "duration": 0.09439299999999662
                },
                {
                    "name": "B5",
                    "midi": 83,
                    "time": 114.78188799999845,
                    "velocity": 0.5433070866141733,
                    "duration": 0.09439299999999662
                },
                {
                    "name": "E5",
                    "midi": 76,
                    "time": 114.87628099999844,
                    "velocity": 0.5275590551181102,
                    "duration": 0.09439299999999662
                },
                {
                    "name": "E6",
                    "midi": 88,
                    "time": 114.97067399999844,
                    "velocity": 0.5984251968503937,
                    "duration": 0.09439299999999662
                },
                {
                    "name": "D6",
                    "midi": 86,
                    "time": 115.06506699999844,
                    "velocity": 0.5275590551181102,
                    "duration": 0.09439299999999662
                },
                {
                    "name": "B5",
                    "midi": 83,
                    "time": 115.15945999999843,
                    "velocity": 0.5511811023622047,
                    "duration": 0.09439299999999662
                },
                {
                    "name": "E5",
                    "midi": 76,
                    "time": 115.25385299999843,
                    "velocity": 0.49606299212598426,
                    "duration": 0.09439299999999662
                },
                {
                    "name": "B5",
                    "midi": 83,
                    "time": 115.34824599999843,
                    "velocity": 0.5433070866141733,
                    "duration": 0.09439299999999662
                },
                {
                    "name": "E5",
                    "midi": 76,
                    "time": 115.44263899999842,
                    "velocity": 0.5275590551181102,
                    "duration": 0.09439299999999662
                },
                {
                    "name": "E6",
                    "midi": 88,
                    "time": 115.53703199999842,
                    "velocity": 0.5984251968503937,
                    "duration": 0.09439299999999662
                },
                {
                    "name": "D6",
                    "midi": 86,
                    "time": 115.63142499999842,
                    "velocity": 0.5275590551181102,
                    "duration": 0.09439299999999662
                },
                {
                    "name": "B5",
                    "midi": 83,
                    "time": 115.72581799999841,
                    "velocity": 0.5511811023622047,
                    "duration": 0.09439299999999662
                },
                {
                    "name": "E5",
                    "midi": 76,
                    "time": 115.82021099999841,
                    "velocity": 0.49606299212598426,
                    "duration": 0.09439299999999662
                },
                {
                    "name": "B5",
                    "midi": 83,
                    "time": 115.9146039999984,
                    "velocity": 0.5433070866141733,
                    "duration": 0.09439299999999662
                },
                {
                    "name": "E5",
                    "midi": 76,
                    "time": 116.0089969999984,
                    "velocity": 0.5275590551181102,
                    "duration": 0.09439299999999662
                },
                {
                    "name": "E6",
                    "midi": 88,
                    "time": 116.1033899999984,
                    "velocity": 0.5984251968503937,
                    "duration": 0.09439299999999662
                },
                {
                    "name": "C#6",
                    "midi": 85,
                    "time": 116.1977829999984,
                    "velocity": 0.5275590551181102,
                    "duration": 0.09439299999999662
                },
                {
                    "name": "A5",
                    "midi": 81,
                    "time": 116.29217599999839,
                    "velocity": 0.5511811023622047,
                    "duration": 0.09439299999999662
                },
                {
                    "name": "E5",
                    "midi": 76,
                    "time": 116.38656899999839,
                    "velocity": 0.49606299212598426,
                    "duration": 0.09439299999999662
                },
                {
                    "name": "A5",
                    "midi": 81,
                    "time": 116.48096199999839,
                    "velocity": 0.5433070866141733,
                    "duration": 0.09439299999999662
                },
                {
                    "name": "E5",
                    "midi": 76,
                    "time": 116.57535499999838,
                    "velocity": 0.5275590551181102,
                    "duration": 0.09439299999999662
                },
                {
                    "name": "E6",
                    "midi": 88,
                    "time": 116.66974799999838,
                    "velocity": 0.5984251968503937,
                    "duration": 0.09439299999999662
                },
                {
                    "name": "C#6",
                    "midi": 85,
                    "time": 116.76414099999838,
                    "velocity": 0.5275590551181102,
                    "duration": 0.09439299999999662
                },
                {
                    "name": "A5",
                    "midi": 81,
                    "time": 116.85853399999837,
                    "velocity": 0.5511811023622047,
                    "duration": 0.09439299999999662
                },
                {
                    "name": "E5",
                    "midi": 76,
                    "time": 116.95292699999837,
                    "velocity": 0.49606299212598426,
                    "duration": 0.09439299999999662
                },
                {
                    "name": "A5",
                    "midi": 81,
                    "time": 117.04731999999836,
                    "velocity": 0.5433070866141733,
                    "duration": 0.09439299999999662
                },
                {
                    "name": "E5",
                    "midi": 76,
                    "time": 117.14171299999836,
                    "velocity": 0.5275590551181102,
                    "duration": 0.09439299999999662
                },
                {
                    "name": "E6",
                    "midi": 88,
                    "time": 117.23610599999836,
                    "velocity": 0.5984251968503937,
                    "duration": 0.09439299999999662
                },
                {
                    "name": "C#6",
                    "midi": 85,
                    "time": 117.33049899999835,
                    "velocity": 0.5275590551181102,
                    "duration": 0.09439299999999662
                },
                {
                    "name": "A5",
                    "midi": 81,
                    "time": 117.42489199999835,
                    "velocity": 0.5511811023622047,
                    "duration": 0.09439299999999662
                },
                {
                    "name": "E5",
                    "midi": 76,
                    "time": 117.51928499999835,
                    "velocity": 0.49606299212598426,
                    "duration": 0.09439299999999662
                },
                {
                    "name": "A5",
                    "midi": 81,
                    "time": 117.61367799999834,
                    "velocity": 0.5433070866141733,
                    "duration": 0.09439299999999662
                },
                {
                    "name": "E5",
                    "midi": 76,
                    "time": 117.70807099999834,
                    "velocity": 0.5275590551181102,
                    "duration": 0.09439299999999662
                },
                {
                    "name": "E6",
                    "midi": 88,
                    "time": 117.80246399999834,
                    "velocity": 0.5984251968503937,
                    "duration": 0.09439299999999662
                },
                {
                    "name": "C#6",
                    "midi": 85,
                    "time": 117.89685699999833,
                    "velocity": 0.5275590551181102,
                    "duration": 0.09439299999999662
                },
                {
                    "name": "A5",
                    "midi": 81,
                    "time": 117.99124999999833,
                    "velocity": 0.5511811023622047,
                    "duration": 0.09439299999999662
                },
                {
                    "name": "E5",
                    "midi": 76,
                    "time": 118.08564299999833,
                    "velocity": 0.49606299212598426,
                    "duration": 0.09439299999999662
                },
                {
                    "name": "A5",
                    "midi": 81,
                    "time": 118.18003599999832,
                    "velocity": 0.5433070866141733,
                    "duration": 0.09439299999999662
                },
                {
                    "name": "E5",
                    "midi": 76,
                    "time": 118.27442899999832,
                    "velocity": 0.5275590551181102,
                    "duration": 0.09439299999999662
                },
                {
                    "name": "E6",
                    "midi": 88,
                    "time": 118.36882199999832,
                    "velocity": 0.5984251968503937,
                    "duration": 0.09439299999999662
                },
                {
                    "name": "C#6",
                    "midi": 85,
                    "time": 118.46321499999831,
                    "velocity": 0.5275590551181102,
                    "duration": 0.09439299999999662
                },
                {
                    "name": "A5",
                    "midi": 81,
                    "time": 118.55760799999831,
                    "velocity": 0.5511811023622047,
                    "duration": 0.09439299999999662
                },
                {
                    "name": "E5",
                    "midi": 76,
                    "time": 118.65200099999831,
                    "velocity": 0.49606299212598426,
                    "duration": 0.09439299999999662
                },
                {
                    "name": "A5",
                    "midi": 81,
                    "time": 118.7463939999983,
                    "velocity": 0.5433070866141733,
                    "duration": 0.09439299999999662
                },
                {
                    "name": "E5",
                    "midi": 76,
                    "time": 118.8407869999983,
                    "velocity": 0.5275590551181102,
                    "duration": 0.09439299999999662
                },
                {
                    "name": "E6",
                    "midi": 88,
                    "time": 118.9351799999983,
                    "velocity": 0.5984251968503937,
                    "duration": 0.09439299999999662
                },
                {
                    "name": "D6",
                    "midi": 86,
                    "time": 119.0295729999983,
                    "velocity": 0.5275590551181102,
                    "duration": 0.09439299999999662
                },
                {
                    "name": "B5",
                    "midi": 83,
                    "time": 119.12396599999829,
                    "velocity": 0.5511811023622047,
                    "duration": 0.09439299999999662
                },
                {
                    "name": "E5",
                    "midi": 76,
                    "time": 119.21835899999829,
                    "velocity": 0.49606299212598426,
                    "duration": 0.09439299999999662
                },
                {
                    "name": "B5",
                    "midi": 83,
                    "time": 119.31275199999828,
                    "velocity": 0.5433070866141733,
                    "duration": 0.09439299999999662
                },
                {
                    "name": "E5",
                    "midi": 76,
                    "time": 119.40714499999828,
                    "velocity": 0.5275590551181102,
                    "duration": 0.09439299999999662
                },
                {
                    "name": "E6",
                    "midi": 88,
                    "time": 119.50153799999828,
                    "velocity": 0.5984251968503937,
                    "duration": 0.09439299999999662
                },
                {
                    "name": "D6",
                    "midi": 86,
                    "time": 119.59593099999827,
                    "velocity": 0.5275590551181102,
                    "duration": 0.09439299999999662
                },
                {
                    "name": "B5",
                    "midi": 83,
                    "time": 119.69032399999827,
                    "velocity": 0.5511811023622047,
                    "duration": 0.09439299999999662
                },
                {
                    "name": "E5",
                    "midi": 76,
                    "time": 119.78471699999827,
                    "velocity": 0.49606299212598426,
                    "duration": 0.09439299999999662
                },
                {
                    "name": "B5",
                    "midi": 83,
                    "time": 119.87910999999826,
                    "velocity": 0.5433070866141733,
                    "duration": 0.09439299999999662
                },
                {
                    "name": "E5",
                    "midi": 76,
                    "time": 119.97350299999826,
                    "velocity": 0.5275590551181102,
                    "duration": 0.09439299999999662
                },
                {
                    "name": "E6",
                    "midi": 88,
                    "time": 120.06789599999826,
                    "velocity": 0.5984251968503937,
                    "duration": 0.09439299999999662
                },
                {
                    "name": "D6",
                    "midi": 86,
                    "time": 120.16228899999825,
                    "velocity": 0.5275590551181102,
                    "duration": 0.09439299999999662
                },
                {
                    "name": "B5",
                    "midi": 83,
                    "time": 120.25668199999825,
                    "velocity": 0.5511811023622047,
                    "duration": 0.09439299999999662
                },
                {
                    "name": "E5",
                    "midi": 76,
                    "time": 120.35107499999825,
                    "velocity": 0.49606299212598426,
                    "duration": 0.09439299999999662
                },
                {
                    "name": "B5",
                    "midi": 83,
                    "time": 120.44546799999824,
                    "velocity": 0.5433070866141733,
                    "duration": 0.09439299999999662
                },
                {
                    "name": "E5",
                    "midi": 76,
                    "time": 120.53986099999824,
                    "velocity": 0.5275590551181102,
                    "duration": 0.09439299999999662
                },
                {
                    "name": "E6",
                    "midi": 88,
                    "time": 120.63425399999824,
                    "velocity": 0.5984251968503937,
                    "duration": 0.09439299999999662
                },
                {
                    "name": "C#6",
                    "midi": 85,
                    "time": 120.72864699999823,
                    "velocity": 0.5275590551181102,
                    "duration": 0.09439299999999662
                },
                {
                    "name": "B5",
                    "midi": 83,
                    "time": 120.82303999999823,
                    "velocity": 0.5511811023622047,
                    "duration": 0.09439299999999662
                },
                {
                    "name": "A5",
                    "midi": 81,
                    "time": 120.91743299999823,
                    "velocity": 0.49606299212598426,
                    "duration": 0.09439299999999662
                },
                {
                    "name": "B5",
                    "midi": 83,
                    "time": 121.01182599999822,
                    "velocity": 0.5433070866141733,
                    "duration": 0.09439299999999662
                },
                {
                    "name": "A5",
                    "midi": 81,
                    "time": 121.10621899999822,
                    "velocity": 0.5275590551181102,
                    "duration": 0.09439299999999662
                },
                {
                    "name": "E6",
                    "midi": 88,
                    "time": 121.20061199999822,
                    "velocity": 0.5984251968503937,
                    "duration": 0.09439299999999662
                },
                {
                    "name": "C#6",
                    "midi": 85,
                    "time": 121.29500499999821,
                    "velocity": 0.5275590551181102,
                    "duration": 0.09439299999999662
                },
                {
                    "name": "B5",
                    "midi": 83,
                    "time": 121.38939799999821,
                    "velocity": 0.5511811023622047,
                    "duration": 0.09439299999999662
                },
                {
                    "name": "A5",
                    "midi": 81,
                    "time": 121.4837909999982,
                    "velocity": 0.49606299212598426,
                    "duration": 0.09439299999999662
                },
                {
                    "name": "B5",
                    "midi": 83,
                    "time": 121.5781839999982,
                    "velocity": 0.5433070866141733,
                    "duration": 0.09439299999999662
                },
                {
                    "name": "A5",
                    "midi": 81,
                    "time": 121.6725769999982,
                    "velocity": 0.5275590551181102,
                    "duration": 0.09439299999999662
                },
                {
                    "name": "E6",
                    "midi": 88,
                    "time": 121.7669699999982,
                    "velocity": 0.5984251968503937,
                    "duration": 0.09439299999999662
                },
                {
                    "name": "C#6",
                    "midi": 85,
                    "time": 121.86136299999819,
                    "velocity": 0.5275590551181102,
                    "duration": 0.09439299999999662
                },
                {
                    "name": "B5",
                    "midi": 83,
                    "time": 121.95575599999819,
                    "velocity": 0.5511811023622047,
                    "duration": 0.09439299999999662
                },
                {
                    "name": "A5",
                    "midi": 81,
                    "time": 122.05014899999819,
                    "velocity": 0.49606299212598426,
                    "duration": 0.09439299999999662
                },
                {
                    "name": "B5",
                    "midi": 83,
                    "time": 122.14454199999818,
                    "velocity": 0.5433070866141733,
                    "duration": 0.09439299999999662
                },
                {
                    "name": "A5",
                    "midi": 81,
                    "time": 122.23893499999818,
                    "velocity": 0.5275590551181102,
                    "duration": 0.09439299999999662
                },
                {
                    "name": "E6",
                    "midi": 88,
                    "time": 122.33332799999818,
                    "velocity": 0.5984251968503937,
                    "duration": 0.09439299999999662
                },
                {
                    "name": "C#6",
                    "midi": 85,
                    "time": 122.42772099999817,
                    "velocity": 0.5275590551181102,
                    "duration": 0.09439299999999662
                },
                {
                    "name": "B5",
                    "midi": 83,
                    "time": 122.52211399999817,
                    "velocity": 0.5511811023622047,
                    "duration": 0.09439299999999662
                },
                {
                    "name": "A5",
                    "midi": 81,
                    "time": 122.61650699999817,
                    "velocity": 0.49606299212598426,
                    "duration": 0.09439299999999662
                },
                {
                    "name": "B5",
                    "midi": 83,
                    "time": 122.71089999999816,
                    "velocity": 0.5433070866141733,
                    "duration": 0.09439299999999662
                },
                {
                    "name": "A5",
                    "midi": 81,
                    "time": 122.80529299999816,
                    "velocity": 0.5275590551181102,
                    "duration": 0.09439299999999662
                },
                {
                    "name": "E6",
                    "midi": 88,
                    "time": 122.89968599999816,
                    "velocity": 0.5984251968503937,
                    "duration": 0.09439299999999662
                },
                {
                    "name": "C#6",
                    "midi": 85,
                    "time": 122.99407899999815,
                    "velocity": 0.5275590551181102,
                    "duration": 0.09439299999999662
                },
                {
                    "name": "B5",
                    "midi": 83,
                    "time": 123.08847199999815,
                    "velocity": 0.4409448818897638,
                    "duration": 0.09439299999999662
                },
                {
                    "name": "A5",
                    "midi": 81,
                    "time": 123.18286499999815,
                    "velocity": 0.41732283464566927,
                    "duration": 0.09439299999999662
                },
                {
                    "name": "B5",
                    "midi": 83,
                    "time": 123.27725799999814,
                    "velocity": 0.4566929133858268,
                    "duration": 0.09439299999999662
                },
                {
                    "name": "A5",
                    "midi": 81,
                    "time": 123.37165099999814,
                    "velocity": 0.4409448818897638,
                    "duration": 0.09439299999999662
                },
                {
                    "name": "A6",
                    "midi": 93,
                    "time": 123.46604399999813,
                    "velocity": 0.5590551181102362,
                    "duration": 0.09439299999999662
                },
                {
                    "name": "F#6",
                    "midi": 90,
                    "time": 123.56043699999813,
                    "velocity": 0.4409448818897638,
                    "duration": 0.09439299999999662
                },
                {
                    "name": "B5",
                    "midi": 83,
                    "time": 123.65482999999813,
                    "velocity": 0.4645669291338583,
                    "duration": 0.09439299999999662
                },
                {
                    "name": "A5",
                    "midi": 81,
                    "time": 123.74922299999812,
                    "velocity": 0.41732283464566927,
                    "duration": 0.09439299999999662
                },
                {
                    "name": "B5",
                    "midi": 83,
                    "time": 123.84361599999812,
                    "velocity": 0.4566929133858268,
                    "duration": 0.09439299999999662
                },
                {
                    "name": "A5",
                    "midi": 81,
                    "time": 123.93800899999812,
                    "velocity": 0.4409448818897638,
                    "duration": 0.09439299999999662
                },
                {
                    "name": "A6",
                    "midi": 93,
                    "time": 124.03240199999811,
                    "velocity": 0.5039370078740157,
                    "duration": 0.09439299999999662
                },
                {
                    "name": "F#6",
                    "midi": 90,
                    "time": 124.12679499999811,
                    "velocity": 0.4409448818897638,
                    "duration": 0.09439299999999662
                },
                {
                    "name": "B5",
                    "midi": 83,
                    "time": 124.22118799999811,
                    "velocity": 0.4645669291338583,
                    "duration": 0.09439299999999662
                },
                {
                    "name": "A5",
                    "midi": 81,
                    "time": 124.3155809999981,
                    "velocity": 0.41732283464566927,
                    "duration": 0.09439299999999662
                },
                {
                    "name": "B5",
                    "midi": 83,
                    "time": 124.4099739999981,
                    "velocity": 0.4566929133858268,
                    "duration": 0.09439299999999662
                },
                {
                    "name": "A5",
                    "midi": 81,
                    "time": 124.5043669999981,
                    "velocity": 0.4409448818897638,
                    "duration": 0.09439299999999662
                },
                {
                    "name": "A6",
                    "midi": 93,
                    "time": 124.5987599999981,
                    "velocity": 0.5590551181102362,
                    "duration": 0.09439299999999662
                },
                {
                    "name": "F#6",
                    "midi": 90,
                    "time": 124.69315299999809,
                    "velocity": 0.4409448818897638,
                    "duration": 0.09439299999999662
                },
                {
                    "name": "B5",
                    "midi": 83,
                    "time": 124.78754599999809,
                    "velocity": 0.4645669291338583,
                    "duration": 0.09439299999999662
                },
                {
                    "name": "A5",
                    "midi": 81,
                    "time": 124.88193899999808,
                    "velocity": 0.41732283464566927,
                    "duration": 0.09439299999999662
                },
                {
                    "name": "B5",
                    "midi": 83,
                    "time": 124.97633199999808,
                    "velocity": 0.4566929133858268,
                    "duration": 0.09439299999999662
                },
                {
                    "name": "A5",
                    "midi": 81,
                    "time": 125.07072499999808,
                    "velocity": 0.4409448818897638,
                    "duration": 0.09439299999999662
                },
                {
                    "name": "A6",
                    "midi": 93,
                    "time": 125.16511799999807,
                    "velocity": 0.5039370078740157,
                    "duration": 0.09439299999999662
                },
                {
                    "name": "F#6",
                    "midi": 90,
                    "time": 125.25951099999807,
                    "velocity": 0.4409448818897638,
                    "duration": 0.09439299999999662
                },
                {
                    "name": "B5",
                    "midi": 83,
                    "time": 125.35390399999807,
                    "velocity": 0.4645669291338583,
                    "duration": 0.09439299999999662
                },
                {
                    "name": "A5",
                    "midi": 81,
                    "time": 125.44829699999806,
                    "velocity": 0.41732283464566927,
                    "duration": 0.09439299999999662
                },
                {
                    "name": "B5",
                    "midi": 83,
                    "time": 125.54268999999806,
                    "velocity": 0.4566929133858268,
                    "duration": 0.09439299999999662
                },
                {
                    "name": "A5",
                    "midi": 81,
                    "time": 125.63708299999806,
                    "velocity": 0.4409448818897638,
                    "duration": 0.09439299999999662
                },
                {
                    "name": "A6",
                    "midi": 93,
                    "time": 125.73147599999805,
                    "velocity": 0.5590551181102362,
                    "duration": 0.09439299999999662
                },
                {
                    "name": "F#6",
                    "midi": 90,
                    "time": 125.82586899999805,
                    "velocity": 0.4409448818897638,
                    "duration": 0.09439299999999662
                },
                {
                    "name": "D6",
                    "midi": 86,
                    "time": 125.92026199999805,
                    "velocity": 0.4566929133858268,
                    "duration": 0.09439299999999662
                },
                {
                    "name": "A5",
                    "midi": 81,
                    "time": 126.01465499999804,
                    "velocity": 0.4015748031496063,
                    "duration": 0.09439299999999662
                },
                {
                    "name": "D6",
                    "midi": 86,
                    "time": 126.10904799999804,
                    "velocity": 0.4409448818897638,
                    "duration": 0.09439299999999662
                },
                {
                    "name": "A5",
                    "midi": 81,
                    "time": 126.20344099999804,
                    "velocity": 0.41732283464566927,
                    "duration": 0.09439299999999662
                },
                {
                    "name": "A6",
                    "midi": 93,
                    "time": 126.29783399999803,
                    "velocity": 0.47244094488188976,
                    "duration": 0.09439299999999662
                },
                {
                    "name": "F#6",
                    "midi": 90,
                    "time": 126.39222699999803,
                    "velocity": 0.41732283464566927,
                    "duration": 0.09439299999999662
                },
                {
                    "name": "D6",
                    "midi": 86,
                    "time": 126.48661999999803,
                    "velocity": 0.4330708661417323,
                    "duration": 0.09439299999999662
                },
                {
                    "name": "A5",
                    "midi": 81,
                    "time": 126.58101299999802,
                    "velocity": 0.3858267716535433,
                    "duration": 0.09439299999999662
                },
                {
                    "name": "D6",
                    "midi": 86,
                    "time": 126.67540599999802,
                    "velocity": 0.41732283464566927,
                    "duration": 0.09439299999999662
                },
                {
                    "name": "A5",
                    "midi": 81,
                    "time": 126.76979899999802,
                    "velocity": 0.3937007874015748,
                    "duration": 0.09439299999999662
                },
                {
                    "name": "A6",
                    "midi": 93,
                    "time": 126.86419199999801,
                    "velocity": 0.49606299212598426,
                    "duration": 0.09439299999999662
                },
                {
                    "name": "F#6",
                    "midi": 90,
                    "time": 126.95858499999801,
                    "velocity": 0.3937007874015748,
                    "duration": 0.09439299999999662
                },
                {
                    "name": "D6",
                    "midi": 86,
                    "time": 127.052977999998,
                    "velocity": 0.4094488188976378,
                    "duration": 0.09439299999999662
                },
                {
                    "name": "A5",
                    "midi": 81,
                    "time": 127.147370999998,
                    "velocity": 0.36220472440944884,
                    "duration": 0.09439299999999662
                },
                {
                    "name": "D6",
                    "midi": 86,
                    "time": 127.241763999998,
                    "velocity": 0.3937007874015748,
                    "duration": 0.09439299999999662
                },
                {
                    "name": "A5",
                    "midi": 81,
                    "time": 127.336156999998,
                    "velocity": 0.3779527559055118,
                    "duration": 0.09439299999999662
                },
                {
                    "name": "A6",
                    "midi": 93,
                    "time": 127.430549999998,
                    "velocity": 0.4251968503937008,
                    "duration": 0.09439299999999662
                },
                {
                    "name": "F#6",
                    "midi": 90,
                    "time": 127.52494299999799,
                    "velocity": 0.3700787401574803,
                    "duration": 0.09439299999999662
                },
                {
                    "name": "D6",
                    "midi": 86,
                    "time": 127.61933599999799,
                    "velocity": 0.3858267716535433,
                    "duration": 0.09439299999999662
                },
                {
                    "name": "A5",
                    "midi": 81,
                    "time": 127.71372899999798,
                    "velocity": 0.33858267716535434,
                    "duration": 0.09439299999999662
                },
                {
                    "name": "D6",
                    "midi": 86,
                    "time": 127.80812199999798,
                    "velocity": 0.3700787401574803,
                    "duration": 0.09439299999999662
                },
                {
                    "name": "A5",
                    "midi": 81,
                    "time": 127.90251499999798,
                    "velocity": 0.3543307086614173,
                    "duration": 0.09439299999999662
                },
                {
                    "name": "A6",
                    "midi": 93,
                    "time": 127.99690799999797,
                    "velocity": 0.4409448818897638,
                    "duration": 0.09439299999999662
                },
                {
                    "name": "E6",
                    "midi": 88,
                    "time": 128.09130099999797,
                    "velocity": 0.3464566929133858,
                    "duration": 0.09439299999999662
                },
                {
                    "name": "C#6",
                    "midi": 85,
                    "time": 128.18569399999797,
                    "velocity": 0.3700787401574803,
                    "duration": 0.09439299999999662
                },
                {
                    "name": "A5",
                    "midi": 81,
                    "time": 128.28008699999796,
                    "velocity": 0.33070866141732286,
                    "duration": 0.09439299999999662
                },
                {
                    "name": "C#6",
                    "midi": 85,
                    "time": 128.37447999999796,
                    "velocity": 0.36220472440944884,
                    "duration": 0.09439299999999662
                },
                {
                    "name": "A5",
                    "midi": 81,
                    "time": 128.46887299999796,
                    "velocity": 0.3464566929133858,
                    "duration": 0.09439299999999662
                },
                {
                    "name": "F#6",
                    "midi": 90,
                    "time": 128.56326599999795,
                    "velocity": 0.4409448818897638,
                    "duration": 0.09439299999999662
                },
                {
                    "name": "E6",
                    "midi": 88,
                    "time": 128.65765899999795,
                    "velocity": 0.3464566929133858,
                    "duration": 0.09439299999999662
                },
                {
                    "name": "F#6",
                    "midi": 90,
                    "time": 128.75205199999795,
                    "velocity": 0.3700787401574803,
                    "duration": 0.09439299999999662
                },
                {
                    "name": "E6",
                    "midi": 88,
                    "time": 128.84644499999794,
                    "velocity": 0.33070866141732286,
                    "duration": 0.09439299999999662
                },
                {
                    "name": "F#6",
                    "midi": 90,
                    "time": 128.94083799999794,
                    "velocity": 0.36220472440944884,
                    "duration": 0.09439299999999662
                },
                {
                    "name": "E6",
                    "midi": 88,
                    "time": 129.03523099999794,
                    "velocity": 0.3464566929133858,
                    "duration": 0.09439299999999662
                },
                {
                    "name": "A6",
                    "midi": 93,
                    "time": 129.12962399999793,
                    "velocity": 0.4409448818897638,
                    "duration": 0.09439299999999662
                },
                {
                    "name": "E6",
                    "midi": 88,
                    "time": 129.22401699999793,
                    "velocity": 0.3464566929133858,
                    "duration": 0.09439299999999662
                },
                {
                    "name": "C#6",
                    "midi": 85,
                    "time": 129.31840999999793,
                    "velocity": 0.3700787401574803,
                    "duration": 0.09439299999999662
                },
                {
                    "name": "A5",
                    "midi": 81,
                    "time": 129.41280299999792,
                    "velocity": 0.33070866141732286,
                    "duration": 0.09439299999999662
                },
                {
                    "name": "C#6",
                    "midi": 85,
                    "time": 129.50719599999792,
                    "velocity": 0.36220472440944884,
                    "duration": 0.09439299999999662
                },
                {
                    "name": "A5",
                    "midi": 81,
                    "time": 129.60158899999792,
                    "velocity": 0.3464566929133858,
                    "duration": 0.09439299999999662
                },
                {
                    "name": "F#6",
                    "midi": 90,
                    "time": 129.6959819999979,
                    "velocity": 0.4409448818897638,
                    "duration": 0.09439299999999662
                },
                {
                    "name": "E6",
                    "midi": 88,
                    "time": 129.7903749999979,
                    "velocity": 0.3464566929133858,
                    "duration": 0.09439299999999662
                },
                {
                    "name": "F#6",
                    "midi": 90,
                    "time": 129.8847679999979,
                    "velocity": 0.3700787401574803,
                    "duration": 0.09439299999999662
                },
                {
                    "name": "E6",
                    "midi": 88,
                    "time": 129.9791609999979,
                    "velocity": 0.33070866141732286,
                    "duration": 0.09439299999999662
                },
                {
                    "name": "F#6",
                    "midi": 90,
                    "time": 130.0735539999979,
                    "velocity": 0.36220472440944884,
                    "duration": 0.09439299999999662
                },
                {
                    "name": "E6",
                    "midi": 88,
                    "time": 130.1679469999979,
                    "velocity": 0.3464566929133858,
                    "duration": 0.09439299999999662
                },
                {
                    "name": "A6",
                    "midi": 93,
                    "time": 130.2623399999979,
                    "velocity": 0.4409448818897638,
                    "duration": 0.09439299999999662
                },
                {
                    "name": "E6",
                    "midi": 88,
                    "time": 130.3567329999979,
                    "velocity": 0.3464566929133858,
                    "duration": 0.09439299999999662
                },
                {
                    "name": "C#6",
                    "midi": 85,
                    "time": 130.45112599999788,
                    "velocity": 0.3700787401574803,
                    "duration": 0.09439299999999662
                },
                {
                    "name": "A5",
                    "midi": 81,
                    "time": 130.54551899999788,
                    "velocity": 0.33070866141732286,
                    "duration": 0.09439299999999662
                },
                {
                    "name": "C#6",
                    "midi": 85,
                    "time": 130.63991199999788,
                    "velocity": 0.3543307086614173,
                    "duration": 0.09439299999999662
                },
                {
                    "name": "A5",
                    "midi": 81,
                    "time": 130.73430499999787,
                    "velocity": 0.33858267716535434,
                    "duration": 0.09439299999999662
                },
                {
                    "name": "F#6",
                    "midi": 90,
                    "time": 130.82869799999787,
                    "velocity": 0.4330708661417323,
                    "duration": 0.09439299999999662
                },
                {
                    "name": "E6",
                    "midi": 88,
                    "time": 130.92309099999787,
                    "velocity": 0.33858267716535434,
                    "duration": 0.09439299999999662
                },
                {
                    "name": "F#6",
                    "midi": 90,
                    "time": 131.01748399999786,
                    "velocity": 0.36220472440944884,
                    "duration": 0.09439299999999662
                },
                {
                    "name": "E6",
                    "midi": 88,
                    "time": 131.11187699999786,
                    "velocity": 0.3228346456692913,
                    "duration": 0.09439299999999662
                },
                {
                    "name": "F#6",
                    "midi": 90,
                    "time": 131.20626999999786,
                    "velocity": 0.3543307086614173,
                    "duration": 0.09439299999999662
                },
                {
                    "name": "E6",
                    "midi": 88,
                    "time": 131.30066299999785,
                    "velocity": 0.33070866141732286,
                    "duration": 0.09439299999999662
                },
                {
                    "name": "A6",
                    "midi": 93,
                    "time": 131.39505599999785,
                    "velocity": 0.4251968503937008,
                    "duration": 0.09439299999999662
                },
                {
                    "name": "E6",
                    "midi": 88,
                    "time": 131.48944899999785,
                    "velocity": 0.33070866141732286,
                    "duration": 0.09439299999999662
                },
                {
                    "name": "C#6",
                    "midi": 85,
                    "time": 131.58384199999784,
                    "velocity": 0.3543307086614173,
                    "duration": 0.09439299999999662
                },
                {
                    "name": "A5",
                    "midi": 81,
                    "time": 131.67823499999784,
                    "velocity": 0.31496062992125984,
                    "duration": 0.09439299999999662
                },
                {
                    "name": "C#6",
                    "midi": 85,
                    "time": 131.77262799999784,
                    "velocity": 0.3464566929133858,
                    "duration": 0.09439299999999662
                },
                {
                    "name": "A5",
                    "midi": 81,
                    "time": 131.86702099999783,
                    "velocity": 0.33070866141732286,
                    "duration": 0.09439299999999662
                },
                {
                    "name": "F#6",
                    "midi": 90,
                    "time": 131.96141399999783,
                    "velocity": 0.41732283464566927,
                    "duration": 0.09439299999999662
                },
                {
                    "name": "E6",
                    "midi": 88,
                    "time": 132.05580699999783,
                    "velocity": 0.3228346456692913,
                    "duration": 0.09439299999999662
                },
                {
                    "name": "F#6",
                    "midi": 90,
                    "time": 132.15019999999782,
                    "velocity": 0.3464566929133858,
                    "duration": 0.09439299999999662
                },
                {
                    "name": "E6",
                    "midi": 88,
                    "time": 132.24459299999782,
                    "velocity": 0.30708661417322836,
                    "duration": 0.09439299999999662
                },
                {
                    "name": "F#6",
                    "midi": 90,
                    "time": 132.33898599999782,
                    "velocity": 0.33858267716535434,
                    "duration": 0.09439299999999662
                },
                {
                    "name": "E6",
                    "midi": 88,
                    "time": 132.4333789999978,
                    "velocity": 0.3228346456692913,
                    "duration": 0.09439299999999662
                },
                {
                    "name": "A6",
                    "midi": 93,
                    "time": 132.5277719999978,
                    "velocity": 0.4094488188976378,
                    "duration": 0.09439299999999662
                },
                {
                    "name": "E6",
                    "midi": 88,
                    "time": 132.6221649999978,
                    "velocity": 0.3228346456692913,
                    "duration": 0.09439299999999662
                },
                {
                    "name": "C#6",
                    "midi": 85,
                    "time": 132.7165579999978,
                    "velocity": 0.33858267716535434,
                    "duration": 0.09439299999999662
                },
                {
                    "name": "A5",
                    "midi": 81,
                    "time": 132.8109509999978,
                    "velocity": 0.30708661417322836,
                    "duration": 0.09439299999999662
                },
                {
                    "name": "C#6",
                    "midi": 85,
                    "time": 132.9053439999978,
                    "velocity": 0.33070866141732286,
                    "duration": 0.09439299999999662
                },
                {
                    "name": "A5",
                    "midi": 81,
                    "time": 132.9997369999978,
                    "velocity": 0.31496062992125984,
                    "duration": 0.09439299999999662
                },
                {
                    "name": "E6",
                    "midi": 88,
                    "time": 133.0941299999978,
                    "velocity": 0.4015748031496063,
                    "duration": 0.09439299999999662
                },
                {
                    "name": "C#6",
                    "midi": 85,
                    "time": 133.1885229999978,
                    "velocity": 0.31496062992125984,
                    "duration": 0.09439299999999662
                },
                {
                    "name": "B5",
                    "midi": 83,
                    "time": 133.28291599999778,
                    "velocity": 0.33858267716535434,
                    "duration": 0.09439299999999662
                },
                {
                    "name": "A5",
                    "midi": 81,
                    "time": 133.37730899999778,
                    "velocity": 0.2992125984251969,
                    "duration": 0.09439299999999662
                },
                {
                    "name": "B5",
                    "midi": 83,
                    "time": 133.47170199999778,
                    "velocity": 0.3228346456692913,
                    "duration": 0.09439299999999662
                },
                {
                    "name": "A5",
                    "midi": 81,
                    "time": 133.56609499999777,
                    "velocity": 0.31496062992125984,
                    "duration": 0.09439299999999662
                },
                {
                    "name": "E6",
                    "midi": 88,
                    "time": 133.66048799999777,
                    "velocity": 0.3937007874015748,
                    "duration": 0.09439299999999662
                },
                {
                    "name": "C#6",
                    "midi": 85,
                    "time": 133.75488099999777,
                    "velocity": 0.30708661417322836,
                    "duration": 0.09439299999999662
                },
                {
                    "name": "B5",
                    "midi": 83,
                    "time": 133.84927399999776,
                    "velocity": 0.33070866141732286,
                    "duration": 0.09439299999999662
                },
                {
                    "name": "A5",
                    "midi": 81,
                    "time": 133.94366699999776,
                    "velocity": 0.29133858267716534,
                    "duration": 0.09439299999999662
                },
                {
                    "name": "B5",
                    "midi": 83,
                    "time": 134.03805999999776,
                    "velocity": 0.31496062992125984,
                    "duration": 0.09439299999999662
                },
                {
                    "name": "A5",
                    "midi": 81,
                    "time": 134.13245299999775,
                    "velocity": 0.30708661417322836,
                    "duration": 0.09439299999999662
                },
                {
                    "name": "E6",
                    "midi": 88,
                    "time": 134.22684599999775,
                    "velocity": 0.3858267716535433,
                    "duration": 0.09439299999999662
                },
                {
                    "name": "C#6",
                    "midi": 85,
                    "time": 134.32123899999775,
                    "velocity": 0.30708661417322836,
                    "duration": 0.09439299999999662
                },
                {
                    "name": "B5",
                    "midi": 83,
                    "time": 134.41563199999774,
                    "velocity": 0.3228346456692913,
                    "duration": 0.09439299999999662
                },
                {
                    "name": "A5",
                    "midi": 81,
                    "time": 134.51002499999774,
                    "velocity": 0.28346456692913385,
                    "duration": 0.09439299999999662
                },
                {
                    "name": "B5",
                    "midi": 83,
                    "time": 134.60441799999774,
                    "velocity": 0.31496062992125984,
                    "duration": 0.09439299999999662
                },
                {
                    "name": "A5",
                    "midi": 81,
                    "time": 134.69881099999773,
                    "velocity": 0.2992125984251969,
                    "duration": 0.09439299999999662
                },
                {
                    "name": "E6",
                    "midi": 88,
                    "time": 134.79320399999773,
                    "velocity": 0.3779527559055118,
                    "duration": 0.09439299999999662
                },
                {
                    "name": "C#6",
                    "midi": 85,
                    "time": 134.88759699999773,
                    "velocity": 0.2992125984251969,
                    "duration": 0.09439299999999662
                },
                {
                    "name": "B5",
                    "midi": 83,
                    "time": 134.98198999999772,
                    "velocity": 0.31496062992125984,
                    "duration": 0.09439299999999662
                },
                {
                    "name": "A5",
                    "midi": 81,
                    "time": 135.07638299999772,
                    "velocity": 0.28346456692913385,
                    "duration": 0.09439299999999662
                },
                {
                    "name": "B5",
                    "midi": 83,
                    "time": 135.17077599999772,
                    "velocity": 0.30708661417322836,
                    "duration": 0.09439299999999662
                },
                {
                    "name": "A5",
                    "midi": 81,
                    "time": 135.2651689999977,
                    "velocity": 0.29133858267716534,
                    "duration": 0.09439299999999662
                },
                {
                    "name": "E6",
                    "midi": 88,
                    "time": 135.3595619999977,
                    "velocity": 0.3700787401574803,
                    "duration": 0.09439299999999662
                },
                {
                    "name": "C#6",
                    "midi": 85,
                    "time": 135.4539549999977,
                    "velocity": 0.29133858267716534,
                    "duration": 0.09439299999999662
                },
                {
                    "name": "B5",
                    "midi": 83,
                    "time": 135.5483479999977,
                    "velocity": 0.30708661417322836,
                    "duration": 0.09439299999999662
                },
                {
                    "name": "A5",
                    "midi": 81,
                    "time": 135.6427409999977,
                    "velocity": 0.2755905511811024,
                    "duration": 0.09439299999999662
                },
                {
                    "name": "B5",
                    "midi": 83,
                    "time": 135.7371339999977,
                    "velocity": 0.30708661417322836,
                    "duration": 0.09439299999999662
                },
                {
                    "name": "A5",
                    "midi": 81,
                    "time": 135.8315269999977,
                    "velocity": 0.3543307086614173,
                    "duration": 0.09439299999999662
                },
                {
                    "name": "E6",
                    "midi": 88,
                    "time": 135.9259199999977,
                    "velocity": 0.3858267716535433,
                    "duration": 0.09439299999999662
                },
                {
                    "name": "C#6",
                    "midi": 85,
                    "time": 136.02031299999769,
                    "velocity": 0.36220472440944884,
                    "duration": 0.09439299999999662
                },
                {
                    "name": "B5",
                    "midi": 83,
                    "time": 136.11470599999768,
                    "velocity": 0.3858267716535433,
                    "duration": 0.09439299999999662
                },
                {
                    "name": "A5",
                    "midi": 81,
                    "time": 136.20909899999768,
                    "velocity": 0.41732283464566927,
                    "duration": 0.09439299999999662
                },
                {
                    "name": "B5",
                    "midi": 83,
                    "time": 136.30349199999768,
                    "velocity": 0.4330708661417323,
                    "duration": 0.09439299999999662
                },
                {
                    "name": "C#6",
                    "midi": 85,
                    "time": 136.39788499999767,
                    "velocity": 0.44881889763779526,
                    "duration": 0.09439299999999662
                },
                {
                    "name": "D6",
                    "midi": 86,
                    "time": 136.49227799999767,
                    "velocity": 0.48031496062992124,
                    "duration": 0.09439299999999662
                },
                {
                    "name": "E6",
                    "midi": 88,
                    "time": 136.58667099999766,
                    "velocity": 0.5118110236220472,
                    "duration": 0.09439299999999662
                },
                {
                    "name": "F#6",
                    "midi": 90,
                    "time": 136.68106399999766,
                    "velocity": 0.5354330708661418,
                    "duration": 0.09439299999999662
                },
                {
                    "name": "G#6",
                    "midi": 92,
                    "time": 136.77545699999766,
                    "velocity": 0.5511811023622047,
                    "duration": 0.09439299999999662
                },
                {
                    "name": "A6",
                    "midi": 93,
                    "time": 136.86984999999765,
                    "velocity": 0.5748031496062992,
                    "duration": 0.09439299999999662
                },
                {
                    "name": "B6",
                    "midi": 95,
                    "time": 136.96424299999765,
                    "velocity": 0.6062992125984252,
                    "duration": 0.09439299999999662
                },
                {
                    "name": "C#7",
                    "midi": 97,
                    "time": 137.05863599999765,
                    "velocity": 0.6141732283464567,
                    "duration": 0.18878599999999324
                },
                {
                    "name": "E5",
                    "midi": 76,
                    "time": 138.09695899999764,
                    "velocity": 0.3228346456692913,
                    "duration": 0.2831790000000183
                },
                {
                    "name": "A5",
                    "midi": 81,
                    "time": 138.14415549999765,
                    "velocity": 0.3228346456692913,
                    "duration": 0.23598250000000576
                },
                {
                    "name": "E6",
                    "midi": 88,
                    "time": 138.19135199999766,
                    "velocity": 0.3858267716535433,
                    "duration": 0.18878599999999324
                },
                {
                    "name": "A3",
                    "midi": 57,
                    "time": 139.32406799999765,
                    "velocity": 0.2677165354330709,
                    "duration": 0.09439299999999662
                }
            ],
            "controlChanges": {},
            "id": 1,
            "name": "Piano right",
            "instrumentNumber": 0,
            "instrument": "acoustic grand piano",
            "instrumentFamily": "piano",
            "channelNumber": 0,
            "isPercussion": false
        },
        {
            "startTime": 0,
            "duration": 139.41846099999853,
            "length": 1269,
            "notes": [
                {
                    "name": "A1",
                    "midi": 33,
                    "time": 0,
                    "velocity": 0.4645669291338583,
                    "duration": 0.377572
                },
                {
                    "name": "A2",
                    "midi": 45,
                    "time": 0,
                    "velocity": 0.5511811023622047,
                    "duration": 0.377572
                },
                {
                    "name": "C#3",
                    "midi": 49,
                    "time": 0.188786,
                    "velocity": 0.48031496062992124,
                    "duration": 0.094393
                },
                {
                    "name": "E3",
                    "midi": 52,
                    "time": 0.283179,
                    "velocity": 0.49606299212598426,
                    "duration": 0.094393
                },
                {
                    "name": "A3",
                    "midi": 57,
                    "time": 0.377572,
                    "velocity": 0.5275590551181102,
                    "duration": 0.094393
                },
                {
                    "name": "C#4",
                    "midi": 61,
                    "time": 0.471965,
                    "velocity": 0.5511811023622047,
                    "duration": 0.094393
                },
                {
                    "name": "B3",
                    "midi": 59,
                    "time": 0.755144,
                    "velocity": 0.49606299212598426,
                    "duration": 0.047196499999999975
                },
                {
                    "name": "E3",
                    "midi": 52,
                    "time": 0.755144,
                    "velocity": 0.41732283464566927,
                    "duration": 0.047196499999999975
                },
                {
                    "name": "B3",
                    "midi": 59,
                    "time": 0.94393,
                    "velocity": 0.49606299212598426,
                    "duration": 0.047196499999999975
                },
                {
                    "name": "E3",
                    "midi": 52,
                    "time": 0.94393,
                    "velocity": 0.41732283464566927,
                    "duration": 0.047196499999999975
                },
                {
                    "name": "C#4",
                    "midi": 61,
                    "time": 1.132716,
                    "velocity": 0.5511811023622047,
                    "duration": 0.377572
                },
                {
                    "name": "A3",
                    "midi": 57,
                    "time": 1.132716,
                    "velocity": 0.5511811023622047,
                    "duration": 0.377572
                },
                {
                    "name": "B4",
                    "midi": 71,
                    "time": 1.88786,
                    "velocity": 0.5196850393700787,
                    "duration": 0.047196500000000086
                },
                {
                    "name": "E4",
                    "midi": 64,
                    "time": 1.88786,
                    "velocity": 0.4409448818897638,
                    "duration": 0.047196500000000086
                },
                {
                    "name": "B4",
                    "midi": 71,
                    "time": 2.076646,
                    "velocity": 0.4881889763779528,
                    "duration": 0.047196500000000086
                },
                {
                    "name": "E4",
                    "midi": 64,
                    "time": 2.076646,
                    "velocity": 0.4094488188976378,
                    "duration": 0.047196500000000086
                },
                {
                    "name": "A4",
                    "midi": 69,
                    "time": 2.265432,
                    "velocity": 0.4645669291338583,
                    "duration": 0.37757200000000024
                },
                {
                    "name": "C#5",
                    "midi": 73,
                    "time": 2.265432,
                    "velocity": 0.5511811023622047,
                    "duration": 0.37757200000000024
                },
                {
                    "name": "B4",
                    "midi": 71,
                    "time": 3.020576,
                    "velocity": 0.5196850393700787,
                    "duration": 0.047196500000000086
                },
                {
                    "name": "E4",
                    "midi": 64,
                    "time": 3.020576,
                    "velocity": 0.4409448818897638,
                    "duration": 0.047196500000000086
                },
                {
                    "name": "B4",
                    "midi": 71,
                    "time": 3.209362,
                    "velocity": 0.5196850393700787,
                    "duration": 0.047196500000000086
                },
                {
                    "name": "E4",
                    "midi": 64,
                    "time": 3.209362,
                    "velocity": 0.4409448818897638,
                    "duration": 0.047196500000000086
                },
                {
                    "name": "A4",
                    "midi": 69,
                    "time": 3.398148,
                    "velocity": 0.4645669291338583,
                    "duration": 0.1887859999999999
                },
                {
                    "name": "C#5",
                    "midi": 73,
                    "time": 3.398148,
                    "velocity": 0.5511811023622047,
                    "duration": 0.1887859999999999
                },
                {
                    "name": "B4",
                    "midi": 71,
                    "time": 3.586934,
                    "velocity": 0.5039370078740157,
                    "duration": 0.047196500000000086
                },
                {
                    "name": "E4",
                    "midi": 64,
                    "time": 3.586934,
                    "velocity": 0.4251968503937008,
                    "duration": 0.047196500000000086
                },
                {
                    "name": "B4",
                    "midi": 71,
                    "time": 3.7757199999999997,
                    "velocity": 0.5039370078740157,
                    "duration": 0.047196500000000086
                },
                {
                    "name": "E4",
                    "midi": 64,
                    "time": 3.7757199999999997,
                    "velocity": 0.4251968503937008,
                    "duration": 0.047196500000000086
                },
                {
                    "name": "A4",
                    "midi": 69,
                    "time": 3.9645059999999996,
                    "velocity": 0.4645669291338583,
                    "duration": 0.1887859999999999
                },
                {
                    "name": "C#5",
                    "midi": 73,
                    "time": 3.9645059999999996,
                    "velocity": 0.5511811023622047,
                    "duration": 0.1887859999999999
                },
                {
                    "name": "B4",
                    "midi": 71,
                    "time": 4.1532919999999995,
                    "velocity": 0.5039370078740157,
                    "duration": 0.047196500000000086
                },
                {
                    "name": "E4",
                    "midi": 64,
                    "time": 4.1532919999999995,
                    "velocity": 0.4251968503937008,
                    "duration": 0.047196500000000086
                },
                {
                    "name": "B4",
                    "midi": 71,
                    "time": 4.342078,
                    "velocity": 0.5039370078740157,
                    "duration": 0.047196500000000086
                },
                {
                    "name": "E4",
                    "midi": 64,
                    "time": 4.342078,
                    "velocity": 0.4251968503937008,
                    "duration": 0.047196500000000086
                },
                {
                    "name": "A4",
                    "midi": 69,
                    "time": 4.530864,
                    "velocity": 0.4645669291338583,
                    "duration": 0.3775719999999998
                },
                {
                    "name": "C#5",
                    "midi": 73,
                    "time": 4.530864,
                    "velocity": 0.5511811023622047,
                    "duration": 0.3775719999999998
                },
                {
                    "name": "A2",
                    "midi": 45,
                    "time": 5.097222,
                    "velocity": 0.6220472440944882,
                    "duration": 0.2831789999999996
                },
                {
                    "name": "A1",
                    "midi": 33,
                    "time": 5.097222,
                    "velocity": 0.5275590551181102,
                    "duration": 0.2831789999999996
                },
                {
                    "name": "C#3",
                    "midi": 49,
                    "time": 5.380401,
                    "velocity": 0.3937007874015748,
                    "duration": 0.0849536999999998
                },
                {
                    "name": "A3",
                    "midi": 57,
                    "time": 5.380401,
                    "velocity": 0.4645669291338583,
                    "duration": 0.0849536999999998
                },
                {
                    "name": "A3",
                    "midi": 57,
                    "time": 5.474794,
                    "velocity": 0.4251968503937008,
                    "duration": 0.14158950000000026
                },
                {
                    "name": "C#3",
                    "midi": 49,
                    "time": 5.474794,
                    "velocity": 0.3543307086614173,
                    "duration": 0.14158950000000026
                },
                {
                    "name": "C#3",
                    "midi": 49,
                    "time": 5.6635800000000005,
                    "velocity": 0.3937007874015748,
                    "duration": 0.18878600000000034
                },
                {
                    "name": "A3",
                    "midi": 57,
                    "time": 5.6635800000000005,
                    "velocity": 0.4645669291338583,
                    "duration": 0.18878600000000034
                },
                {
                    "name": "B3",
                    "midi": 59,
                    "time": 5.852366000000001,
                    "velocity": 0.4330708661417323,
                    "duration": 0.18878600000000034
                },
                {
                    "name": "E3",
                    "midi": 52,
                    "time": 5.852366000000001,
                    "velocity": 0.36220472440944884,
                    "duration": 0.18878600000000034
                },
                {
                    "name": "A3",
                    "midi": 57,
                    "time": 6.041152000000001,
                    "velocity": 0.36220472440944884,
                    "duration": 0.09439300000000017
                },
                {
                    "name": "C#4",
                    "midi": 61,
                    "time": 6.041152000000001,
                    "velocity": 0.4330708661417323,
                    "duration": 0.09439300000000017
                },
                {
                    "name": "A3",
                    "midi": 57,
                    "time": 6.2299380000000015,
                    "velocity": 0.4015748031496063,
                    "duration": 0.3775719999999998
                },
                {
                    "name": "C#4",
                    "midi": 61,
                    "time": 6.2299380000000015,
                    "velocity": 0.47244094488188976,
                    "duration": 0.3775719999999998
                },
                {
                    "name": "A3",
                    "midi": 57,
                    "time": 6.607510000000001,
                    "velocity": 0.3937007874015748,
                    "duration": 0.14158950000000026
                },
                {
                    "name": "C#4",
                    "midi": 61,
                    "time": 6.607510000000001,
                    "velocity": 0.4645669291338583,
                    "duration": 0.14158950000000026
                },
                {
                    "name": "A3",
                    "midi": 57,
                    "time": 6.796296000000002,
                    "velocity": 0.41732283464566927,
                    "duration": 0.18878600000000034
                },
                {
                    "name": "C#4",
                    "midi": 61,
                    "time": 6.796296000000002,
                    "velocity": 0.49606299212598426,
                    "duration": 0.18878600000000034
                },
                {
                    "name": "D4",
                    "midi": 62,
                    "time": 6.985082000000002,
                    "velocity": 0.4645669291338583,
                    "duration": 0.18878600000000034
                },
                {
                    "name": "B3",
                    "midi": 59,
                    "time": 6.985082000000002,
                    "velocity": 0.3937007874015748,
                    "duration": 0.18878600000000034
                },
                {
                    "name": "C#4",
                    "midi": 61,
                    "time": 7.173868000000002,
                    "velocity": 0.3937007874015748,
                    "duration": 0.09439300000000017
                },
                {
                    "name": "E4",
                    "midi": 64,
                    "time": 7.173868000000002,
                    "velocity": 0.4645669291338583,
                    "duration": 0.09439300000000017
                },
                {
                    "name": "E4",
                    "midi": 64,
                    "time": 7.362654000000003,
                    "velocity": 0.5196850393700787,
                    "duration": 0.2831789999999996
                },
                {
                    "name": "C#4",
                    "midi": 61,
                    "time": 7.362654000000003,
                    "velocity": 0.4409448818897638,
                    "duration": 0.2831789999999996
                },
                {
                    "name": "D4",
                    "midi": 62,
                    "time": 7.645833000000002,
                    "velocity": 0.3937007874015748,
                    "duration": 0.0849536999999998
                },
                {
                    "name": "F#4",
                    "midi": 66,
                    "time": 7.645833000000002,
                    "velocity": 0.4645669291338583,
                    "duration": 0.0849536999999998
                },
                {
                    "name": "F#4",
                    "midi": 66,
                    "time": 7.7402260000000025,
                    "velocity": 0.4881889763779528,
                    "duration": 0.14158950000000026
                },
                {
                    "name": "D4",
                    "midi": 62,
                    "time": 7.7402260000000025,
                    "velocity": 0.4094488188976378,
                    "duration": 0.14158950000000026
                },
                {
                    "name": "F#4",
                    "midi": 66,
                    "time": 7.929012000000003,
                    "velocity": 0.5511811023622047,
                    "duration": 0.2831789999999996
                },
                {
                    "name": "D4",
                    "midi": 62,
                    "time": 7.929012000000003,
                    "velocity": 0.4645669291338583,
                    "duration": 0.2831789999999996
                },
                {
                    "name": "A3",
                    "midi": 57,
                    "time": 7.929012000000003,
                    "velocity": 0.4645669291338583,
                    "duration": 0.2831789999999996
                },
                {
                    "name": "D4",
                    "midi": 62,
                    "time": 8.212191000000002,
                    "velocity": 0.3937007874015748,
                    "duration": 0.0849536999999998
                },
                {
                    "name": "F#4",
                    "midi": 66,
                    "time": 8.212191000000002,
                    "velocity": 0.4645669291338583,
                    "duration": 0.0849536999999998
                },
                {
                    "name": "D4",
                    "midi": 62,
                    "time": 8.306584000000003,
                    "velocity": 0.3937007874015748,
                    "duration": 0.14158950000000026
                },
                {
                    "name": "F#4",
                    "midi": 66,
                    "time": 8.306584000000003,
                    "velocity": 0.4645669291338583,
                    "duration": 0.14158950000000026
                },
                {
                    "name": "F#4",
                    "midi": 66,
                    "time": 8.495370000000003,
                    "velocity": 0.5275590551181102,
                    "duration": 0.18878600000000034
                },
                {
                    "name": "D4",
                    "midi": 62,
                    "time": 8.495370000000003,
                    "velocity": 0.4409448818897638,
                    "duration": 0.18878600000000034
                },
                {
                    "name": "E4",
                    "midi": 64,
                    "time": 8.684156000000003,
                    "velocity": 0.3937007874015748,
                    "duration": 0.18878600000000034
                },
                {
                    "name": "G#4",
                    "midi": 68,
                    "time": 8.684156000000003,
                    "velocity": 0.4645669291338583,
                    "duration": 0.18878600000000034
                },
                {
                    "name": "D4",
                    "midi": 62,
                    "time": 8.872942000000004,
                    "velocity": 0.3937007874015748,
                    "duration": 0.09439300000000017
                },
                {
                    "name": "F#4",
                    "midi": 66,
                    "time": 8.872942000000004,
                    "velocity": 0.4645669291338583,
                    "duration": 0.09439300000000017
                },
                {
                    "name": "F#4",
                    "midi": 66,
                    "time": 9.061728000000004,
                    "velocity": 0.5275590551181102,
                    "duration": 0.5663579999999993
                },
                {
                    "name": "D4",
                    "midi": 62,
                    "time": 9.061728000000004,
                    "velocity": 0.4409448818897638,
                    "duration": 0.5663579999999993
                },
                {
                    "name": "A3",
                    "midi": 57,
                    "time": 9.061728000000004,
                    "velocity": 0.4409448818897638,
                    "duration": 0.5663579999999993
                },
                {
                    "name": "E4",
                    "midi": 64,
                    "time": 9.628086000000003,
                    "velocity": 0.4566929133858268,
                    "duration": 0.18878600000000034
                },
                {
                    "name": "C#4",
                    "midi": 61,
                    "time": 9.628086000000003,
                    "velocity": 0.3858267716535433,
                    "duration": 0.18878600000000034
                },
                {
                    "name": "C#3",
                    "midi": 49,
                    "time": 9.911265000000004,
                    "velocity": 0.3937007874015748,
                    "duration": 0.0849536999999998
                },
                {
                    "name": "A3",
                    "midi": 57,
                    "time": 9.911265000000004,
                    "velocity": 0.4645669291338583,
                    "duration": 0.0849536999999998
                },
                {
                    "name": "A3",
                    "midi": 57,
                    "time": 10.005658000000004,
                    "velocity": 0.4251968503937008,
                    "duration": 0.14158950000000026
                },
                {
                    "name": "C#3",
                    "midi": 49,
                    "time": 10.005658000000004,
                    "velocity": 0.3543307086614173,
                    "duration": 0.14158950000000026
                },
                {
                    "name": "C#3",
                    "midi": 49,
                    "time": 10.194444000000004,
                    "velocity": 0.3937007874015748,
                    "duration": 0.18878600000000034
                },
                {
                    "name": "A3",
                    "midi": 57,
                    "time": 10.194444000000004,
                    "velocity": 0.4645669291338583,
                    "duration": 0.18878600000000034
                },
                {
                    "name": "B3",
                    "midi": 59,
                    "time": 10.383230000000005,
                    "velocity": 0.4330708661417323,
                    "duration": 0.18878600000000034
                },
                {
                    "name": "E3",
                    "midi": 52,
                    "time": 10.383230000000005,
                    "velocity": 0.36220472440944884,
                    "duration": 0.18878600000000034
                },
                {
                    "name": "A3",
                    "midi": 57,
                    "time": 10.572016000000005,
                    "velocity": 0.36220472440944884,
                    "duration": 0.09439300000000017
                },
                {
                    "name": "C#4",
                    "midi": 61,
                    "time": 10.572016000000005,
                    "velocity": 0.4330708661417323,
                    "duration": 0.09439300000000017
                },
                {
                    "name": "A3",
                    "midi": 57,
                    "time": 10.760802000000005,
                    "velocity": 0.4015748031496063,
                    "duration": 0.3775720000000007
                },
                {
                    "name": "C#4",
                    "midi": 61,
                    "time": 10.760802000000005,
                    "velocity": 0.47244094488188976,
                    "duration": 0.3775720000000007
                },
                {
                    "name": "A3",
                    "midi": 57,
                    "time": 11.138374000000006,
                    "velocity": 0.3937007874015748,
                    "duration": 0.14158950000000026
                },
                {
                    "name": "C#4",
                    "midi": 61,
                    "time": 11.138374000000006,
                    "velocity": 0.4645669291338583,
                    "duration": 0.14158950000000026
                },
                {
                    "name": "A3",
                    "midi": 57,
                    "time": 11.327160000000006,
                    "velocity": 0.41732283464566927,
                    "duration": 0.18878600000000034
                },
                {
                    "name": "C#4",
                    "midi": 61,
                    "time": 11.327160000000006,
                    "velocity": 0.49606299212598426,
                    "duration": 0.18878600000000034
                },
                {
                    "name": "D4",
                    "midi": 62,
                    "time": 11.515946000000007,
                    "velocity": 0.4645669291338583,
                    "duration": 0.18878600000000034
                },
                {
                    "name": "B3",
                    "midi": 59,
                    "time": 11.515946000000007,
                    "velocity": 0.3937007874015748,
                    "duration": 0.18878600000000034
                },
                {
                    "name": "C#4",
                    "midi": 61,
                    "time": 11.704732000000007,
                    "velocity": 0.3937007874015748,
                    "duration": 0.09439300000000017
                },
                {
                    "name": "E4",
                    "midi": 64,
                    "time": 11.704732000000007,
                    "velocity": 0.4645669291338583,
                    "duration": 0.09439300000000017
                },
                {
                    "name": "E4",
                    "midi": 64,
                    "time": 11.893518000000007,
                    "velocity": 0.5196850393700787,
                    "duration": 0.3775720000000007
                },
                {
                    "name": "C#4",
                    "midi": 61,
                    "time": 11.893518000000007,
                    "velocity": 0.4409448818897638,
                    "duration": 0.3775720000000007
                },
                {
                    "name": "A2",
                    "midi": 45,
                    "time": 12.459876000000008,
                    "velocity": 0.4094488188976378,
                    "duration": 0.18878600000000034
                },
                {
                    "name": "A1",
                    "midi": 33,
                    "time": 12.459876000000008,
                    "velocity": 0.3464566929133858,
                    "duration": 0.18878600000000034
                },
                {
                    "name": "F#3",
                    "midi": 54,
                    "time": 12.648662000000009,
                    "velocity": 0.29133858267716534,
                    "duration": 0.1809199166666673
                },
                {
                    "name": "C#4",
                    "midi": 61,
                    "time": 12.648662000000009,
                    "velocity": 0.29133858267716534,
                    "duration": 0.1809199166666673
                },
                {
                    "name": "E4",
                    "midi": 64,
                    "time": 12.648662000000009,
                    "velocity": 0.3464566929133858,
                    "duration": 0.1809199166666673
                },
                {
                    "name": "F#3",
                    "midi": 54,
                    "time": 12.837448000000009,
                    "velocity": 0.29133858267716534,
                    "duration": 0.14158950000000026
                },
                {
                    "name": "C#4",
                    "midi": 61,
                    "time": 12.837448000000009,
                    "velocity": 0.29133858267716534,
                    "duration": 0.14158950000000026
                },
                {
                    "name": "E4",
                    "midi": 64,
                    "time": 12.837448000000009,
                    "velocity": 0.3464566929133858,
                    "duration": 0.14158950000000026
                },
                {
                    "name": "F#3",
                    "midi": 54,
                    "time": 13.02623400000001,
                    "velocity": 0.2283464566929134,
                    "duration": 0.18878600000000034
                },
                {
                    "name": "C#4",
                    "midi": 61,
                    "time": 13.02623400000001,
                    "velocity": 0.2283464566929134,
                    "duration": 0.18878600000000034
                },
                {
                    "name": "E4",
                    "midi": 64,
                    "time": 13.02623400000001,
                    "velocity": 0.2755905511811024,
                    "duration": 0.18878600000000034
                },
                {
                    "name": "F#3",
                    "midi": 54,
                    "time": 13.21502000000001,
                    "velocity": 0.2283464566929134,
                    "duration": 0.18878600000000034
                },
                {
                    "name": "C#4",
                    "midi": 61,
                    "time": 13.21502000000001,
                    "velocity": 0.2283464566929134,
                    "duration": 0.18878600000000034
                },
                {
                    "name": "E4",
                    "midi": 64,
                    "time": 13.21502000000001,
                    "velocity": 0.2755905511811024,
                    "duration": 0.18878600000000034
                },
                {
                    "name": "F#3",
                    "midi": 54,
                    "time": 13.40380600000001,
                    "velocity": 0.2283464566929134,
                    "duration": 0.18878600000000034
                },
                {
                    "name": "C#4",
                    "midi": 61,
                    "time": 13.40380600000001,
                    "velocity": 0.2283464566929134,
                    "duration": 0.18878600000000034
                },
                {
                    "name": "E4",
                    "midi": 64,
                    "time": 13.40380600000001,
                    "velocity": 0.2755905511811024,
                    "duration": 0.18878600000000034
                },
                {
                    "name": "F#3",
                    "midi": 54,
                    "time": 13.59259200000001,
                    "velocity": 0.29133858267716534,
                    "duration": 1.1327160000000003
                },
                {
                    "name": "C#4",
                    "midi": 61,
                    "time": 13.59259200000001,
                    "velocity": 0.29133858267716534,
                    "duration": 1.1327160000000003
                },
                {
                    "name": "E4",
                    "midi": 64,
                    "time": 13.59259200000001,
                    "velocity": 0.29133858267716534,
                    "duration": 1.1327160000000003
                },
                {
                    "name": "A2",
                    "midi": 45,
                    "time": 14.72530800000001,
                    "velocity": 0.4094488188976378,
                    "duration": 0.18878600000000034
                },
                {
                    "name": "A1",
                    "midi": 33,
                    "time": 14.72530800000001,
                    "velocity": 0.3464566929133858,
                    "duration": 0.18878600000000034
                },
                {
                    "name": "F#3",
                    "midi": 54,
                    "time": 14.914094000000011,
                    "velocity": 0.29133858267716534,
                    "duration": 0.1809199166666673
                },
                {
                    "name": "C#4",
                    "midi": 61,
                    "time": 14.914094000000011,
                    "velocity": 0.29133858267716534,
                    "duration": 0.1809199166666673
                },
                {
                    "name": "E4",
                    "midi": 64,
                    "time": 14.914094000000011,
                    "velocity": 0.3464566929133858,
                    "duration": 0.1809199166666673
                },
                {
                    "name": "F#3",
                    "midi": 54,
                    "time": 15.102880000000011,
                    "velocity": 0.29133858267716534,
                    "duration": 0.14158950000000026
                },
                {
                    "name": "C#4",
                    "midi": 61,
                    "time": 15.102880000000011,
                    "velocity": 0.29133858267716534,
                    "duration": 0.14158950000000026
                },
                {
                    "name": "E4",
                    "midi": 64,
                    "time": 15.102880000000011,
                    "velocity": 0.3464566929133858,
                    "duration": 0.14158950000000026
                },
                {
                    "name": "F#3",
                    "midi": 54,
                    "time": 15.291666000000012,
                    "velocity": 0.2283464566929134,
                    "duration": 0.18878600000000034
                },
                {
                    "name": "C#4",
                    "midi": 61,
                    "time": 15.291666000000012,
                    "velocity": 0.2283464566929134,
                    "duration": 0.18878600000000034
                },
                {
                    "name": "E4",
                    "midi": 64,
                    "time": 15.291666000000012,
                    "velocity": 0.2755905511811024,
                    "duration": 0.18878600000000034
                },
                {
                    "name": "F#3",
                    "midi": 54,
                    "time": 15.480452000000012,
                    "velocity": 0.2283464566929134,
                    "duration": 0.18878600000000034
                },
                {
                    "name": "C#4",
                    "midi": 61,
                    "time": 15.480452000000012,
                    "velocity": 0.2283464566929134,
                    "duration": 0.18878600000000034
                },
                {
                    "name": "E4",
                    "midi": 64,
                    "time": 15.480452000000012,
                    "velocity": 0.2755905511811024,
                    "duration": 0.18878600000000034
                },
                {
                    "name": "F#3",
                    "midi": 54,
                    "time": 15.669238000000012,
                    "velocity": 0.2283464566929134,
                    "duration": 0.18878600000000034
                },
                {
                    "name": "C#4",
                    "midi": 61,
                    "time": 15.669238000000012,
                    "velocity": 0.2283464566929134,
                    "duration": 0.18878600000000034
                },
                {
                    "name": "E4",
                    "midi": 64,
                    "time": 15.669238000000012,
                    "velocity": 0.2755905511811024,
                    "duration": 0.18878600000000034
                },
                {
                    "name": "F#3",
                    "midi": 54,
                    "time": 15.858024000000013,
                    "velocity": 0.29133858267716534,
                    "duration": 0.7551439999999996
                },
                {
                    "name": "C#4",
                    "midi": 61,
                    "time": 15.858024000000013,
                    "velocity": 0.29133858267716534,
                    "duration": 0.7551439999999996
                },
                {
                    "name": "E4",
                    "midi": 64,
                    "time": 15.858024000000013,
                    "velocity": 0.29133858267716534,
                    "duration": 0.7551439999999996
                },
                {
                    "name": "F#4",
                    "midi": 66,
                    "time": 16.613168000000012,
                    "velocity": 0.6141732283464567,
                    "duration": 0.09439300000000017
                },
                {
                    "name": "B3",
                    "midi": 59,
                    "time": 16.613168000000012,
                    "velocity": 0.5196850393700787,
                    "duration": 0.09439300000000017
                },
                {
                    "name": "B3",
                    "midi": 59,
                    "time": 16.801954000000013,
                    "velocity": 0.4645669291338583,
                    "duration": 0.09439300000000017
                },
                {
                    "name": "F#4",
                    "midi": 66,
                    "time": 16.801954000000013,
                    "velocity": 0.5511811023622047,
                    "duration": 0.09439300000000017
                },
                {
                    "name": "F#4",
                    "midi": 66,
                    "time": 16.990740000000013,
                    "velocity": 0.6141732283464567,
                    "duration": 0.18878600000000034
                },
                {
                    "name": "B3",
                    "midi": 59,
                    "time": 16.990740000000013,
                    "velocity": 0.5196850393700787,
                    "duration": 0.18878600000000034
                },
                {
                    "name": "G#3",
                    "midi": 56,
                    "time": 17.179526000000013,
                    "velocity": 0.49606299212598426,
                    "duration": 0.18878600000000034
                },
                {
                    "name": "E4",
                    "midi": 64,
                    "time": 17.179526000000013,
                    "velocity": 0.5905511811023622,
                    "duration": 0.18878600000000034
                },
                {
                    "name": "B3",
                    "midi": 59,
                    "time": 17.368312000000014,
                    "velocity": 0.48031496062992124,
                    "duration": 0.09439300000000017
                },
                {
                    "name": "F#4",
                    "midi": 66,
                    "time": 17.368312000000014,
                    "velocity": 0.5669291338582677,
                    "duration": 0.09439300000000017
                },
                {
                    "name": "G#4",
                    "midi": 68,
                    "time": 17.557098000000014,
                    "velocity": 0.6141732283464567,
                    "duration": 0.18878600000000034
                },
                {
                    "name": "E4",
                    "midi": 64,
                    "time": 17.557098000000014,
                    "velocity": 0.5196850393700787,
                    "duration": 0.18878600000000034
                },
                {
                    "name": "B4",
                    "midi": 71,
                    "time": 17.745884000000014,
                    "velocity": 0.5826771653543307,
                    "duration": 0.18878600000000034
                },
                {
                    "name": "G#4",
                    "midi": 68,
                    "time": 17.745884000000014,
                    "velocity": 0.4881889763779528,
                    "duration": 0.18878600000000034
                },
                {
                    "name": "B3",
                    "midi": 59,
                    "time": 17.934670000000015,
                    "velocity": 0.4881889763779528,
                    "duration": 0.09439300000000017
                },
                {
                    "name": "F#4",
                    "midi": 66,
                    "time": 17.934670000000015,
                    "velocity": 0.5826771653543307,
                    "duration": 0.09439300000000017
                },
                {
                    "name": "F#4",
                    "midi": 66,
                    "time": 18.123456000000015,
                    "velocity": 0.6614173228346457,
                    "duration": 0.7551440000000014
                },
                {
                    "name": "B3",
                    "midi": 59,
                    "time": 18.123456000000015,
                    "velocity": 0.5590551181102362,
                    "duration": 0.7551440000000014
                },
                {
                    "name": "G#1",
                    "midi": 32,
                    "time": 19.256172000000017,
                    "velocity": 0.3228346456692913,
                    "duration": 0.18878600000000034
                },
                {
                    "name": "G#2",
                    "midi": 44,
                    "time": 19.256172000000017,
                    "velocity": 0.3858267716535433,
                    "duration": 0.18878600000000034
                },
                {
                    "name": "E3",
                    "midi": 52,
                    "time": 19.444958000000018,
                    "velocity": 0.23622047244094488,
                    "duration": 0.09439300000000017
                },
                {
                    "name": "G#3",
                    "midi": 56,
                    "time": 19.444958000000018,
                    "velocity": 0.23622047244094488,
                    "duration": 0.09439300000000017
                },
                {
                    "name": "E4",
                    "midi": 64,
                    "time": 19.444958000000018,
                    "velocity": 0.29133858267716534,
                    "duration": 0.09439300000000017
                },
                {
                    "name": "B3",
                    "midi": 59,
                    "time": 19.444958000000018,
                    "velocity": 0.23622047244094488,
                    "duration": 0.09439300000000017
                },
                {
                    "name": "E3",
                    "midi": 52,
                    "time": 19.633744000000018,
                    "velocity": 0.23622047244094488,
                    "duration": 0.09439300000000017
                },
                {
                    "name": "G#3",
                    "midi": 56,
                    "time": 19.633744000000018,
                    "velocity": 0.23622047244094488,
                    "duration": 0.09439300000000017
                },
                {
                    "name": "B3",
                    "midi": 59,
                    "time": 19.633744000000018,
                    "velocity": 0.23622047244094488,
                    "duration": 0.09439300000000017
                },
                {
                    "name": "E4",
                    "midi": 64,
                    "time": 19.633744000000018,
                    "velocity": 0.29133858267716534,
                    "duration": 0.09439300000000017
                },
                {
                    "name": "E3",
                    "midi": 52,
                    "time": 19.822530000000018,
                    "velocity": 0.23622047244094488,
                    "duration": 0.3775720000000007
                },
                {
                    "name": "G#3",
                    "midi": 56,
                    "time": 19.822530000000018,
                    "velocity": 0.23622047244094488,
                    "duration": 0.3775720000000007
                },
                {
                    "name": "B3",
                    "midi": 59,
                    "time": 19.822530000000018,
                    "velocity": 0.23622047244094488,
                    "duration": 0.3775720000000007
                },
                {
                    "name": "E4",
                    "midi": 64,
                    "time": 19.822530000000018,
                    "velocity": 0.29133858267716534,
                    "duration": 0.3775720000000007
                },
                {
                    "name": "A1",
                    "midi": 33,
                    "time": 20.38888800000002,
                    "velocity": 0.3228346456692913,
                    "duration": 0.18878600000000034
                },
                {
                    "name": "A2",
                    "midi": 45,
                    "time": 20.38888800000002,
                    "velocity": 0.3858267716535433,
                    "duration": 0.18878600000000034
                },
                {
                    "name": "E3",
                    "midi": 52,
                    "time": 20.57767400000002,
                    "velocity": 0.29133858267716534,
                    "duration": 0.09439300000000017
                },
                {
                    "name": "G#3",
                    "midi": 56,
                    "time": 20.57767400000002,
                    "velocity": 0.29133858267716534,
                    "duration": 0.09439300000000017
                },
                {
                    "name": "E4",
                    "midi": 64,
                    "time": 20.57767400000002,
                    "velocity": 0.3543307086614173,
                    "duration": 0.09439300000000017
                },
                {
                    "name": "C#4",
                    "midi": 61,
                    "time": 20.57767400000002,
                    "velocity": 0.29133858267716534,
                    "duration": 0.09439300000000017
                },
                {
                    "name": "E3",
                    "midi": 52,
                    "time": 20.76646000000002,
                    "velocity": 0.29133858267716534,
                    "duration": 0.09439300000000017
                },
                {
                    "name": "G#3",
                    "midi": 56,
                    "time": 20.76646000000002,
                    "velocity": 0.29133858267716534,
                    "duration": 0.09439300000000017
                },
                {
                    "name": "C#4",
                    "midi": 61,
                    "time": 20.76646000000002,
                    "velocity": 0.29133858267716534,
                    "duration": 0.09439300000000017
                },
                {
                    "name": "E4",
                    "midi": 64,
                    "time": 20.76646000000002,
                    "velocity": 0.3543307086614173,
                    "duration": 0.09439300000000017
                },
                {
                    "name": "E3",
                    "midi": 52,
                    "time": 20.95524600000002,
                    "velocity": 0.29133858267716534,
                    "duration": 0.3775720000000007
                },
                {
                    "name": "G#3",
                    "midi": 56,
                    "time": 20.95524600000002,
                    "velocity": 0.29133858267716534,
                    "duration": 0.3775720000000007
                },
                {
                    "name": "C#4",
                    "midi": 61,
                    "time": 20.95524600000002,
                    "velocity": 0.29133858267716534,
                    "duration": 0.3775720000000007
                },
                {
                    "name": "E4",
                    "midi": 64,
                    "time": 20.95524600000002,
                    "velocity": 0.3543307086614173,
                    "duration": 0.3775720000000007
                },
                {
                    "name": "B1",
                    "midi": 35,
                    "time": 21.52160400000002,
                    "velocity": 0.41732283464566927,
                    "duration": 0.18878600000000034
                },
                {
                    "name": "B2",
                    "midi": 47,
                    "time": 21.52160400000002,
                    "velocity": 0.49606299212598426,
                    "duration": 0.18878600000000034
                },
                {
                    "name": "E3",
                    "midi": 52,
                    "time": 21.71039000000002,
                    "velocity": 0.30708661417322836,
                    "duration": 0.09439300000000017
                },
                {
                    "name": "G#3",
                    "midi": 56,
                    "time": 21.71039000000002,
                    "velocity": 0.30708661417322836,
                    "duration": 0.09439300000000017
                },
                {
                    "name": "E4",
                    "midi": 64,
                    "time": 21.71039000000002,
                    "velocity": 0.3779527559055118,
                    "duration": 0.09439300000000017
                },
                {
                    "name": "B3",
                    "midi": 59,
                    "time": 21.71039000000002,
                    "velocity": 0.30708661417322836,
                    "duration": 0.09439300000000017
                },
                {
                    "name": "E3",
                    "midi": 52,
                    "time": 21.899176000000022,
                    "velocity": 0.31496062992125984,
                    "duration": 0.09439300000000017
                },
                {
                    "name": "G#3",
                    "midi": 56,
                    "time": 21.899176000000022,
                    "velocity": 0.31496062992125984,
                    "duration": 0.09439300000000017
                },
                {
                    "name": "B3",
                    "midi": 59,
                    "time": 21.899176000000022,
                    "velocity": 0.31496062992125984,
                    "duration": 0.09439300000000017
                },
                {
                    "name": "E4",
                    "midi": 64,
                    "time": 21.899176000000022,
                    "velocity": 0.3937007874015748,
                    "duration": 0.09439300000000017
                },
                {
                    "name": "E3",
                    "midi": 52,
                    "time": 22.087962000000022,
                    "velocity": 0.31496062992125984,
                    "duration": 0.3775720000000007
                },
                {
                    "name": "G#3",
                    "midi": 56,
                    "time": 22.087962000000022,
                    "velocity": 0.31496062992125984,
                    "duration": 0.3775720000000007
                },
                {
                    "name": "B3",
                    "midi": 59,
                    "time": 22.087962000000022,
                    "velocity": 0.31496062992125984,
                    "duration": 0.3775720000000007
                },
                {
                    "name": "E4",
                    "midi": 64,
                    "time": 22.087962000000022,
                    "velocity": 0.3937007874015748,
                    "duration": 0.3775720000000007
                },
                {
                    "name": "C#2",
                    "midi": 37,
                    "time": 22.654320000000023,
                    "velocity": 0.4015748031496063,
                    "duration": 0.18878600000000034
                },
                {
                    "name": "C#3",
                    "midi": 49,
                    "time": 22.654320000000023,
                    "velocity": 0.48031496062992124,
                    "duration": 0.18878600000000034
                },
                {
                    "name": "E3",
                    "midi": 52,
                    "time": 22.843106000000024,
                    "velocity": 0.36220472440944884,
                    "duration": 0.09439300000000017
                },
                {
                    "name": "G#3",
                    "midi": 56,
                    "time": 22.843106000000024,
                    "velocity": 0.36220472440944884,
                    "duration": 0.09439300000000017
                },
                {
                    "name": "E4",
                    "midi": 64,
                    "time": 22.843106000000024,
                    "velocity": 0.4409448818897638,
                    "duration": 0.09439300000000017
                },
                {
                    "name": "C#4",
                    "midi": 61,
                    "time": 22.843106000000024,
                    "velocity": 0.36220472440944884,
                    "duration": 0.09439300000000017
                },
                {
                    "name": "E3",
                    "midi": 52,
                    "time": 23.031892000000024,
                    "velocity": 0.3700787401574803,
                    "duration": 0.09439300000000017
                },
                {
                    "name": "G#3",
                    "midi": 56,
                    "time": 23.031892000000024,
                    "velocity": 0.3700787401574803,
                    "duration": 0.09439300000000017
                },
                {
                    "name": "C#4",
                    "midi": 61,
                    "time": 23.031892000000024,
                    "velocity": 0.3700787401574803,
                    "duration": 0.09439300000000017
                },
                {
                    "name": "E4",
                    "midi": 64,
                    "time": 23.031892000000024,
                    "velocity": 0.44881889763779526,
                    "duration": 0.09439300000000017
                },
                {
                    "name": "E3",
                    "midi": 52,
                    "time": 23.220678000000024,
                    "velocity": 0.3779527559055118,
                    "duration": 0.3775720000000007
                },
                {
                    "name": "G#3",
                    "midi": 56,
                    "time": 23.220678000000024,
                    "velocity": 0.3779527559055118,
                    "duration": 0.3775720000000007
                },
                {
                    "name": "C#4",
                    "midi": 61,
                    "time": 23.220678000000024,
                    "velocity": 0.3779527559055118,
                    "duration": 0.3775720000000007
                },
                {
                    "name": "E4",
                    "midi": 64,
                    "time": 23.220678000000024,
                    "velocity": 0.4566929133858268,
                    "duration": 0.3775720000000007
                },
                {
                    "name": "D2",
                    "midi": 38,
                    "time": 23.787036000000025,
                    "velocity": 0.4409448818897638,
                    "duration": 0.18878600000000034
                },
                {
                    "name": "D3",
                    "midi": 50,
                    "time": 23.787036000000025,
                    "velocity": 0.5196850393700787,
                    "duration": 0.18878600000000034
                },
                {
                    "name": "E3",
                    "midi": 52,
                    "time": 23.975822000000026,
                    "velocity": 0.3228346456692913,
                    "duration": 0.09439300000000017
                },
                {
                    "name": "G#3",
                    "midi": 56,
                    "time": 23.975822000000026,
                    "velocity": 0.3228346456692913,
                    "duration": 0.09439300000000017
                },
                {
                    "name": "E4",
                    "midi": 64,
                    "time": 23.975822000000026,
                    "velocity": 0.3937007874015748,
                    "duration": 0.09439300000000017
                },
                {
                    "name": "B3",
                    "midi": 59,
                    "time": 23.975822000000026,
                    "velocity": 0.3228346456692913,
                    "duration": 0.09439300000000017
                },
                {
                    "name": "E3",
                    "midi": 52,
                    "time": 24.164608000000026,
                    "velocity": 0.3228346456692913,
                    "duration": 0.09439300000000017
                },
                {
                    "name": "G#3",
                    "midi": 56,
                    "time": 24.164608000000026,
                    "velocity": 0.3228346456692913,
                    "duration": 0.09439300000000017
                },
                {
                    "name": "B3",
                    "midi": 59,
                    "time": 24.164608000000026,
                    "velocity": 0.3228346456692913,
                    "duration": 0.09439300000000017
                },
                {
                    "name": "E4",
                    "midi": 64,
                    "time": 24.164608000000026,
                    "velocity": 0.3937007874015748,
                    "duration": 0.09439300000000017
                },
                {
                    "name": "E3",
                    "midi": 52,
                    "time": 24.353394000000026,
                    "velocity": 0.33070866141732286,
                    "duration": 0.3775720000000007
                },
                {
                    "name": "G#3",
                    "midi": 56,
                    "time": 24.353394000000026,
                    "velocity": 0.33070866141732286,
                    "duration": 0.3775720000000007
                },
                {
                    "name": "B3",
                    "midi": 59,
                    "time": 24.353394000000026,
                    "velocity": 0.33070866141732286,
                    "duration": 0.3775720000000007
                },
                {
                    "name": "E4",
                    "midi": 64,
                    "time": 24.353394000000026,
                    "velocity": 0.4015748031496063,
                    "duration": 0.3775720000000007
                },
                {
                    "name": "C#2",
                    "midi": 37,
                    "time": 24.919752000000027,
                    "velocity": 0.47244094488188976,
                    "duration": 0.18878600000000034
                },
                {
                    "name": "C#3",
                    "midi": 49,
                    "time": 24.919752000000027,
                    "velocity": 0.5590551181102362,
                    "duration": 0.18878600000000034
                },
                {
                    "name": "E3",
                    "midi": 52,
                    "time": 25.108538000000028,
                    "velocity": 0.41732283464566927,
                    "duration": 0.09439300000000017
                },
                {
                    "name": "A3",
                    "midi": 57,
                    "time": 25.108538000000028,
                    "velocity": 0.41732283464566927,
                    "duration": 0.09439300000000017
                },
                {
                    "name": "E4",
                    "midi": 64,
                    "time": 25.108538000000028,
                    "velocity": 0.5039370078740157,
                    "duration": 0.09439300000000017
                },
                {
                    "name": "C#4",
                    "midi": 61,
                    "time": 25.108538000000028,
                    "velocity": 0.41732283464566927,
                    "duration": 0.09439300000000017
                },
                {
                    "name": "E3",
                    "midi": 52,
                    "time": 25.297324000000028,
                    "velocity": 0.41732283464566927,
                    "duration": 0.09439300000000017
                },
                {
                    "name": "A3",
                    "midi": 57,
                    "time": 25.297324000000028,
                    "velocity": 0.41732283464566927,
                    "duration": 0.09439300000000017
                },
                {
                    "name": "C#4",
                    "midi": 61,
                    "time": 25.297324000000028,
                    "velocity": 0.41732283464566927,
                    "duration": 0.09439300000000017
                },
                {
                    "name": "E4",
                    "midi": 64,
                    "time": 25.297324000000028,
                    "velocity": 0.5039370078740157,
                    "duration": 0.09439300000000017
                },
                {
                    "name": "E3",
                    "midi": 52,
                    "time": 25.48611000000003,
                    "velocity": 0.41732283464566927,
                    "duration": 0.3775720000000007
                },
                {
                    "name": "A3",
                    "midi": 57,
                    "time": 25.48611000000003,
                    "velocity": 0.41732283464566927,
                    "duration": 0.3775720000000007
                },
                {
                    "name": "C#4",
                    "midi": 61,
                    "time": 25.48611000000003,
                    "velocity": 0.41732283464566927,
                    "duration": 0.3775720000000007
                },
                {
                    "name": "E4",
                    "midi": 64,
                    "time": 25.48611000000003,
                    "velocity": 0.5039370078740157,
                    "duration": 0.3775720000000007
                },
                {
                    "name": "D#2",
                    "midi": 39,
                    "time": 26.05246800000003,
                    "velocity": 0.36220472440944884,
                    "duration": 0.09439300000000017
                },
                {
                    "name": "D#3",
                    "midi": 51,
                    "time": 26.05246800000003,
                    "velocity": 0.4330708661417323,
                    "duration": 0.09439300000000017
                },
                {
                    "name": "D#3",
                    "midi": 51,
                    "time": 26.24125400000003,
                    "velocity": 0.3228346456692913,
                    "duration": 0.09439300000000017
                },
                {
                    "name": "F#3",
                    "midi": 54,
                    "time": 26.24125400000003,
                    "velocity": 0.3228346456692913,
                    "duration": 0.09439300000000017
                },
                {
                    "name": "B3",
                    "midi": 59,
                    "time": 26.24125400000003,
                    "velocity": 0.3937007874015748,
                    "duration": 0.09439300000000017
                },
                {
                    "name": "A3",
                    "midi": 57,
                    "time": 26.24125400000003,
                    "velocity": 0.3228346456692913,
                    "duration": 0.09439300000000017
                },
                {
                    "name": "D#3",
                    "midi": 51,
                    "time": 26.43004000000003,
                    "velocity": 0.3228346456692913,
                    "duration": 0.09439300000000017
                },
                {
                    "name": "F#3",
                    "midi": 54,
                    "time": 26.43004000000003,
                    "velocity": 0.3228346456692913,
                    "duration": 0.09439300000000017
                },
                {
                    "name": "A3",
                    "midi": 57,
                    "time": 26.43004000000003,
                    "velocity": 0.3228346456692913,
                    "duration": 0.09439300000000017
                },
                {
                    "name": "B3",
                    "midi": 59,
                    "time": 26.43004000000003,
                    "velocity": 0.3937007874015748,
                    "duration": 0.09439300000000017
                },
                {
                    "name": "D#3",
                    "midi": 51,
                    "time": 26.61882600000003,
                    "velocity": 0.3228346456692913,
                    "duration": 0.18878600000000034
                },
                {
                    "name": "F#3",
                    "midi": 54,
                    "time": 26.61882600000003,
                    "velocity": 0.3228346456692913,
                    "duration": 0.18878600000000034
                },
                {
                    "name": "A3",
                    "midi": 57,
                    "time": 26.61882600000003,
                    "velocity": 0.3228346456692913,
                    "duration": 0.18878600000000034
                },
                {
                    "name": "B3",
                    "midi": 59,
                    "time": 26.61882600000003,
                    "velocity": 0.3937007874015748,
                    "duration": 0.18878600000000034
                },
                {
                    "name": "E3",
                    "midi": 52,
                    "time": 27.18518400000003,
                    "velocity": 0.36220472440944884,
                    "duration": 0.09439300000000017
                },
                {
                    "name": "B2",
                    "midi": 47,
                    "time": 27.18518400000003,
                    "velocity": 0.36220472440944884,
                    "duration": 0.09439300000000017
                },
                {
                    "name": "G#2",
                    "midi": 44,
                    "time": 27.18518400000003,
                    "velocity": 0.36220472440944884,
                    "duration": 0.09439300000000017
                },
                {
                    "name": "G#3",
                    "midi": 56,
                    "time": 27.18518400000003,
                    "velocity": 0.4330708661417323,
                    "duration": 0.09439300000000017
                },
                {
                    "name": "G#2",
                    "midi": 44,
                    "time": 27.373970000000032,
                    "velocity": 0.3228346456692913,
                    "duration": 0.09439300000000017
                },
                {
                    "name": "B2",
                    "midi": 47,
                    "time": 27.373970000000032,
                    "velocity": 0.3228346456692913,
                    "duration": 0.09439300000000017
                },
                {
                    "name": "G#3",
                    "midi": 56,
                    "time": 27.373970000000032,
                    "velocity": 0.3937007874015748,
                    "duration": 0.09439300000000017
                },
                {
                    "name": "E3",
                    "midi": 52,
                    "time": 27.373970000000032,
                    "velocity": 0.3228346456692913,
                    "duration": 0.09439300000000017
                },
                {
                    "name": "G#2",
                    "midi": 44,
                    "time": 27.562756000000032,
                    "velocity": 0.3228346456692913,
                    "duration": 0.09439300000000017
                },
                {
                    "name": "B2",
                    "midi": 47,
                    "time": 27.562756000000032,
                    "velocity": 0.3228346456692913,
                    "duration": 0.09439300000000017
                },
                {
                    "name": "E3",
                    "midi": 52,
                    "time": 27.562756000000032,
                    "velocity": 0.3228346456692913,
                    "duration": 0.09439300000000017
                },
                {
                    "name": "G#3",
                    "midi": 56,
                    "time": 27.562756000000032,
                    "velocity": 0.3937007874015748,
                    "duration": 0.09439300000000017
                },
                {
                    "name": "G#2",
                    "midi": 44,
                    "time": 27.751542000000033,
                    "velocity": 0.3228346456692913,
                    "duration": 0.18878600000000034
                },
                {
                    "name": "B2",
                    "midi": 47,
                    "time": 27.751542000000033,
                    "velocity": 0.3228346456692913,
                    "duration": 0.18878600000000034
                },
                {
                    "name": "E3",
                    "midi": 52,
                    "time": 27.751542000000033,
                    "velocity": 0.3228346456692913,
                    "duration": 0.18878600000000034
                },
                {
                    "name": "G#3",
                    "midi": 56,
                    "time": 27.751542000000033,
                    "velocity": 0.3937007874015748,
                    "duration": 0.18878600000000034
                },
                {
                    "name": "E3",
                    "midi": 52,
                    "time": 28.317900000000034,
                    "velocity": 0.30708661417322836,
                    "duration": 0.09439300000000017
                },
                {
                    "name": "A#2",
                    "midi": 46,
                    "time": 28.317900000000034,
                    "velocity": 0.30708661417322836,
                    "duration": 0.09439300000000017
                },
                {
                    "name": "F#3",
                    "midi": 54,
                    "time": 28.317900000000034,
                    "velocity": 0.36220472440944884,
                    "duration": 0.09439300000000017
                },
                {
                    "name": "A#2",
                    "midi": 46,
                    "time": 28.506686000000034,
                    "velocity": 0.2677165354330709,
                    "duration": 0.09439300000000017
                },
                {
                    "name": "F#3",
                    "midi": 54,
                    "time": 28.506686000000034,
                    "velocity": 0.33070866141732286,
                    "duration": 0.09439300000000017
                },
                {
                    "name": "E3",
                    "midi": 52,
                    "time": 28.506686000000034,
                    "velocity": 0.2677165354330709,
                    "duration": 0.09439300000000017
                },
                {
                    "name": "A#2",
                    "midi": 46,
                    "time": 28.695472000000034,
                    "velocity": 0.2677165354330709,
                    "duration": 0.09439300000000017
                },
                {
                    "name": "E3",
                    "midi": 52,
                    "time": 28.695472000000034,
                    "velocity": 0.2677165354330709,
                    "duration": 0.09439300000000017
                },
                {
                    "name": "F#3",
                    "midi": 54,
                    "time": 28.695472000000034,
                    "velocity": 0.33070866141732286,
                    "duration": 0.09439300000000017
                },
                {
                    "name": "E3",
                    "midi": 52,
                    "time": 28.884258000000035,
                    "velocity": 0.30708661417322836,
                    "duration": 0.09439300000000017
                },
                {
                    "name": "A#2",
                    "midi": 46,
                    "time": 28.884258000000035,
                    "velocity": 0.30708661417322836,
                    "duration": 0.09439300000000017
                },
                {
                    "name": "F#3",
                    "midi": 54,
                    "time": 28.884258000000035,
                    "velocity": 0.36220472440944884,
                    "duration": 0.09439300000000017
                },
                {
                    "name": "A#2",
                    "midi": 46,
                    "time": 29.073044000000035,
                    "velocity": 0.2677165354330709,
                    "duration": 0.09439300000000017
                },
                {
                    "name": "F#3",
                    "midi": 54,
                    "time": 29.073044000000035,
                    "velocity": 0.33070866141732286,
                    "duration": 0.09439300000000017
                },
                {
                    "name": "E3",
                    "midi": 52,
                    "time": 29.073044000000035,
                    "velocity": 0.2677165354330709,
                    "duration": 0.09439300000000017
                },
                {
                    "name": "A#2",
                    "midi": 46,
                    "time": 29.261830000000035,
                    "velocity": 0.2677165354330709,
                    "duration": 0.09439300000000017
                },
                {
                    "name": "E3",
                    "midi": 52,
                    "time": 29.261830000000035,
                    "velocity": 0.2677165354330709,
                    "duration": 0.09439300000000017
                },
                {
                    "name": "F#3",
                    "midi": 54,
                    "time": 29.261830000000035,
                    "velocity": 0.33070866141732286,
                    "duration": 0.09439300000000017
                },
                {
                    "name": "E3",
                    "midi": 52,
                    "time": 29.450616000000036,
                    "velocity": 0.30708661417322836,
                    "duration": 0.09439300000000017
                },
                {
                    "name": "A#2",
                    "midi": 46,
                    "time": 29.450616000000036,
                    "velocity": 0.30708661417322836,
                    "duration": 0.09439300000000017
                },
                {
                    "name": "F#3",
                    "midi": 54,
                    "time": 29.450616000000036,
                    "velocity": 0.36220472440944884,
                    "duration": 0.09439300000000017
                },
                {
                    "name": "A#2",
                    "midi": 46,
                    "time": 29.639402000000036,
                    "velocity": 0.25984251968503935,
                    "duration": 0.09439300000000017
                },
                {
                    "name": "F#3",
                    "midi": 54,
                    "time": 29.639402000000036,
                    "velocity": 0.3228346456692913,
                    "duration": 0.09439300000000017
                },
                {
                    "name": "E3",
                    "midi": 52,
                    "time": 29.639402000000036,
                    "velocity": 0.25984251968503935,
                    "duration": 0.09439300000000017
                },
                {
                    "name": "A#2",
                    "midi": 46,
                    "time": 29.828188000000036,
                    "velocity": 0.25196850393700787,
                    "duration": 0.09439300000000017
                },
                {
                    "name": "E3",
                    "midi": 52,
                    "time": 29.828188000000036,
                    "velocity": 0.25196850393700787,
                    "duration": 0.09439300000000017
                },
                {
                    "name": "F#3",
                    "midi": 54,
                    "time": 29.828188000000036,
                    "velocity": 0.31496062992125984,
                    "duration": 0.09439300000000017
                },
                {
                    "name": "E3",
                    "midi": 52,
                    "time": 30.016974000000037,
                    "velocity": 0.29133858267716534,
                    "duration": 0.09439300000000017
                },
                {
                    "name": "A#2",
                    "midi": 46,
                    "time": 30.016974000000037,
                    "velocity": 0.29133858267716534,
                    "duration": 0.09439300000000017
                },
                {
                    "name": "F#3",
                    "midi": 54,
                    "time": 30.016974000000037,
                    "velocity": 0.33858267716535434,
                    "duration": 0.09439300000000017
                },
                {
                    "name": "A#2",
                    "midi": 46,
                    "time": 30.205760000000037,
                    "velocity": 0.2440944881889764,
                    "duration": 0.09439300000000017
                },
                {
                    "name": "F#3",
                    "midi": 54,
                    "time": 30.205760000000037,
                    "velocity": 0.30708661417322836,
                    "duration": 0.09439300000000017
                },
                {
                    "name": "E3",
                    "midi": 52,
                    "time": 30.205760000000037,
                    "velocity": 0.2440944881889764,
                    "duration": 0.09439300000000017
                },
                {
                    "name": "A#2",
                    "midi": 46,
                    "time": 30.394546000000037,
                    "velocity": 0.2440944881889764,
                    "duration": 0.09439300000000017
                },
                {
                    "name": "E3",
                    "midi": 52,
                    "time": 30.394546000000037,
                    "velocity": 0.2440944881889764,
                    "duration": 0.09439300000000017
                },
                {
                    "name": "F#3",
                    "midi": 54,
                    "time": 30.394546000000037,
                    "velocity": 0.2992125984251969,
                    "duration": 0.09439300000000017
                },
                {
                    "name": "B2",
                    "midi": 47,
                    "time": 30.583332000000038,
                    "velocity": 0.2755905511811024,
                    "duration": 0.09439300000000017
                },
                {
                    "name": "G#3",
                    "midi": 56,
                    "time": 30.583332000000038,
                    "velocity": 0.3228346456692913,
                    "duration": 0.09439300000000017
                },
                {
                    "name": "E3",
                    "midi": 52,
                    "time": 30.588051650000036,
                    "velocity": 0.2755905511811024,
                    "duration": 0.09439300000000017
                },
                {
                    "name": "B2",
                    "midi": 47,
                    "time": 30.772118000000038,
                    "velocity": 0.2283464566929134,
                    "duration": 0.09439300000000017
                },
                {
                    "name": "G#3",
                    "midi": 56,
                    "time": 30.772118000000038,
                    "velocity": 0.28346456692913385,
                    "duration": 0.09439300000000017
                },
                {
                    "name": "E3",
                    "midi": 52,
                    "time": 30.776837650000036,
                    "velocity": 0.2283464566929134,
                    "duration": 0.09439300000000017
                },
                {
                    "name": "B2",
                    "midi": 47,
                    "time": 30.96090400000004,
                    "velocity": 0.2283464566929134,
                    "duration": 0.09439300000000017
                },
                {
                    "name": "G#3",
                    "midi": 56,
                    "time": 30.96090400000004,
                    "velocity": 0.28346456692913385,
                    "duration": 0.09439300000000017
                },
                {
                    "name": "E3",
                    "midi": 52,
                    "time": 30.965623650000037,
                    "velocity": 0.2283464566929134,
                    "duration": 0.09439300000000017
                },
                {
                    "name": "B2",
                    "midi": 47,
                    "time": 31.14969000000004,
                    "velocity": 0.25984251968503935,
                    "duration": 0.09439300000000017
                },
                {
                    "name": "F#3",
                    "midi": 54,
                    "time": 31.14969000000004,
                    "velocity": 0.25984251968503935,
                    "duration": 0.09439300000000017
                },
                {
                    "name": "A3",
                    "midi": 57,
                    "time": 31.14969000000004,
                    "velocity": 0.30708661417322836,
                    "duration": 0.09439300000000017
                },
                {
                    "name": "B2",
                    "midi": 47,
                    "time": 31.33847600000004,
                    "velocity": 0.2204724409448819,
                    "duration": 0.09439300000000017
                },
                {
                    "name": "F#3",
                    "midi": 54,
                    "time": 31.33847600000004,
                    "velocity": 0.2204724409448819,
                    "duration": 0.09439300000000017
                },
                {
                    "name": "A3",
                    "midi": 57,
                    "time": 31.33847600000004,
                    "velocity": 0.2677165354330709,
                    "duration": 0.09439300000000017
                },
                {
                    "name": "B2",
                    "midi": 47,
                    "time": 31.52726200000004,
                    "velocity": 0.2125984251968504,
                    "duration": 0.09439300000000017
                },
                {
                    "name": "F#3",
                    "midi": 54,
                    "time": 31.52726200000004,
                    "velocity": 0.2125984251968504,
                    "duration": 0.09439300000000017
                },
                {
                    "name": "A3",
                    "midi": 57,
                    "time": 31.52726200000004,
                    "velocity": 0.2677165354330709,
                    "duration": 0.09439300000000017
                },
                {
                    "name": "E3",
                    "midi": 52,
                    "time": 31.71604800000004,
                    "velocity": 0.25984251968503935,
                    "duration": 0.18878600000000034
                },
                {
                    "name": "G#3",
                    "midi": 56,
                    "time": 31.71604800000004,
                    "velocity": 0.25984251968503935,
                    "duration": 0.18878600000000034
                },
                {
                    "name": "A2",
                    "midi": 45,
                    "time": 32.28240600000004,
                    "velocity": 0.6220472440944882,
                    "duration": 0.28317899999999696
                },
                {
                    "name": "A1",
                    "midi": 33,
                    "time": 32.28240600000004,
                    "velocity": 0.5275590551181102,
                    "duration": 0.28317899999999696
                },
                {
                    "name": "C#3",
                    "midi": 49,
                    "time": 32.565585000000034,
                    "velocity": 0.3937007874015748,
                    "duration": 0.0849536999999998
                },
                {
                    "name": "A3",
                    "midi": 57,
                    "time": 32.565585000000034,
                    "velocity": 0.4645669291338583,
                    "duration": 0.0849536999999998
                },
                {
                    "name": "A3",
                    "midi": 57,
                    "time": 32.65997800000003,
                    "velocity": 0.4251968503937008,
                    "duration": 0.14158950000000203
                },
                {
                    "name": "C#3",
                    "midi": 49,
                    "time": 32.65997800000003,
                    "velocity": 0.3543307086614173,
                    "duration": 0.14158950000000203
                },
                {
                    "name": "C#3",
                    "midi": 49,
                    "time": 32.84876400000003,
                    "velocity": 0.3937007874015748,
                    "duration": 0.18878600000000034
                },
                {
                    "name": "A3",
                    "midi": 57,
                    "time": 32.84876400000003,
                    "velocity": 0.4645669291338583,
                    "duration": 0.18878600000000034
                },
                {
                    "name": "B3",
                    "midi": 59,
                    "time": 33.03755000000003,
                    "velocity": 0.4330708661417323,
                    "duration": 0.18878600000000034
                },
                {
                    "name": "E3",
                    "midi": 52,
                    "time": 33.03755000000003,
                    "velocity": 0.36220472440944884,
                    "duration": 0.18878600000000034
                },
                {
                    "name": "A3",
                    "midi": 57,
                    "time": 33.22633600000003,
                    "velocity": 0.36220472440944884,
                    "duration": 0.09439299999999662
                },
                {
                    "name": "C#4",
                    "midi": 61,
                    "time": 33.22633600000003,
                    "velocity": 0.4330708661417323,
                    "duration": 0.09439299999999662
                },
                {
                    "name": "A3",
                    "midi": 57,
                    "time": 33.415122000000025,
                    "velocity": 0.4015748031496063,
                    "duration": 0.3775720000000007
                },
                {
                    "name": "C#4",
                    "midi": 61,
                    "time": 33.415122000000025,
                    "velocity": 0.47244094488188976,
                    "duration": 0.3775720000000007
                },
                {
                    "name": "A3",
                    "midi": 57,
                    "time": 33.792694000000026,
                    "velocity": 0.3937007874015748,
                    "duration": 0.14158950000000203
                },
                {
                    "name": "C#4",
                    "midi": 61,
                    "time": 33.792694000000026,
                    "velocity": 0.4645669291338583,
                    "duration": 0.14158950000000203
                },
                {
                    "name": "A3",
                    "midi": 57,
                    "time": 33.981480000000026,
                    "velocity": 0.41732283464566927,
                    "duration": 0.18878600000000034
                },
                {
                    "name": "C#4",
                    "midi": 61,
                    "time": 33.981480000000026,
                    "velocity": 0.49606299212598426,
                    "duration": 0.18878600000000034
                },
                {
                    "name": "D4",
                    "midi": 62,
                    "time": 34.17026600000003,
                    "velocity": 0.4645669291338583,
                    "duration": 0.18878600000000034
                },
                {
                    "name": "B3",
                    "midi": 59,
                    "time": 34.17026600000003,
                    "velocity": 0.3937007874015748,
                    "duration": 0.18878600000000034
                },
                {
                    "name": "C#4",
                    "midi": 61,
                    "time": 34.35905200000003,
                    "velocity": 0.3937007874015748,
                    "duration": 0.09439299999999662
                },
                {
                    "name": "E4",
                    "midi": 64,
                    "time": 34.35905200000003,
                    "velocity": 0.4645669291338583,
                    "duration": 0.09439299999999662
                },
                {
                    "name": "E4",
                    "midi": 64,
                    "time": 34.54783800000002,
                    "velocity": 0.5196850393700787,
                    "duration": 0.28317899999999696
                },
                {
                    "name": "C#4",
                    "midi": 61,
                    "time": 34.54783800000002,
                    "velocity": 0.4409448818897638,
                    "duration": 0.28317899999999696
                },
                {
                    "name": "D4",
                    "midi": 62,
                    "time": 34.83101700000002,
                    "velocity": 0.3937007874015748,
                    "duration": 0.0849536999999998
                },
                {
                    "name": "F#4",
                    "midi": 66,
                    "time": 34.83101700000002,
                    "velocity": 0.4645669291338583,
                    "duration": 0.0849536999999998
                },
                {
                    "name": "F#4",
                    "midi": 66,
                    "time": 34.925410000000014,
                    "velocity": 0.4881889763779528,
                    "duration": 0.14158950000000203
                },
                {
                    "name": "D4",
                    "midi": 62,
                    "time": 34.925410000000014,
                    "velocity": 0.4094488188976378,
                    "duration": 0.14158950000000203
                },
                {
                    "name": "F#4",
                    "midi": 66,
                    "time": 35.114196000000014,
                    "velocity": 0.5511811023622047,
                    "duration": 0.28317899999999696
                },
                {
                    "name": "D4",
                    "midi": 62,
                    "time": 35.114196000000014,
                    "velocity": 0.4645669291338583,
                    "duration": 0.28317899999999696
                },
                {
                    "name": "A3",
                    "midi": 57,
                    "time": 35.114196000000014,
                    "velocity": 0.4645669291338583,
                    "duration": 0.28317899999999696
                },
                {
                    "name": "D4",
                    "midi": 62,
                    "time": 35.39737500000001,
                    "velocity": 0.3937007874015748,
                    "duration": 0.0849536999999998
                },
                {
                    "name": "F#4",
                    "midi": 66,
                    "time": 35.39737500000001,
                    "velocity": 0.4645669291338583,
                    "duration": 0.0849536999999998
                },
                {
                    "name": "D4",
                    "midi": 62,
                    "time": 35.49176800000001,
                    "velocity": 0.3937007874015748,
                    "duration": 0.14158950000000203
                },
                {
                    "name": "F#4",
                    "midi": 66,
                    "time": 35.49176800000001,
                    "velocity": 0.4645669291338583,
                    "duration": 0.14158950000000203
                },
                {
                    "name": "F#4",
                    "midi": 66,
                    "time": 35.68055400000001,
                    "velocity": 0.5275590551181102,
                    "duration": 0.18878600000000034
                },
                {
                    "name": "D4",
                    "midi": 62,
                    "time": 35.68055400000001,
                    "velocity": 0.4409448818897638,
                    "duration": 0.18878600000000034
                },
                {
                    "name": "E4",
                    "midi": 64,
                    "time": 35.86934000000001,
                    "velocity": 0.3937007874015748,
                    "duration": 0.18878600000000034
                },
                {
                    "name": "G#4",
                    "midi": 68,
                    "time": 35.86934000000001,
                    "velocity": 0.4645669291338583,
                    "duration": 0.18878600000000034
                },
                {
                    "name": "D4",
                    "midi": 62,
                    "time": 36.05812600000001,
                    "velocity": 0.3937007874015748,
                    "duration": 0.09439299999999662
                },
                {
                    "name": "F#4",
                    "midi": 66,
                    "time": 36.05812600000001,
                    "velocity": 0.4645669291338583,
                    "duration": 0.09439299999999662
                },
                {
                    "name": "F#4",
                    "midi": 66,
                    "time": 36.246912,
                    "velocity": 0.5275590551181102,
                    "duration": 0.566358000000001
                },
                {
                    "name": "D4",
                    "midi": 62,
                    "time": 36.246912,
                    "velocity": 0.4409448818897638,
                    "duration": 0.566358000000001
                },
                {
                    "name": "A3",
                    "midi": 57,
                    "time": 36.246912,
                    "velocity": 0.4409448818897638,
                    "duration": 0.566358000000001
                },
                {
                    "name": "E4",
                    "midi": 64,
                    "time": 36.81327,
                    "velocity": 0.4566929133858268,
                    "duration": 0.18878600000000034
                },
                {
                    "name": "C#4",
                    "midi": 61,
                    "time": 36.81327,
                    "velocity": 0.3858267716535433,
                    "duration": 0.18878600000000034
                },
                {
                    "name": "C#3",
                    "midi": 49,
                    "time": 37.096449,
                    "velocity": 0.3937007874015748,
                    "duration": 0.0849536999999998
                },
                {
                    "name": "A3",
                    "midi": 57,
                    "time": 37.096449,
                    "velocity": 0.4645669291338583,
                    "duration": 0.0849536999999998
                },
                {
                    "name": "A3",
                    "midi": 57,
                    "time": 37.190841999999996,
                    "velocity": 0.4251968503937008,
                    "duration": 0.14158950000000203
                },
                {
                    "name": "C#3",
                    "midi": 49,
                    "time": 37.190841999999996,
                    "velocity": 0.3543307086614173,
                    "duration": 0.14158950000000203
                },
                {
                    "name": "C#3",
                    "midi": 49,
                    "time": 37.379628,
                    "velocity": 0.3937007874015748,
                    "duration": 0.18878600000000034
                },
                {
                    "name": "A3",
                    "midi": 57,
                    "time": 37.379628,
                    "velocity": 0.4645669291338583,
                    "duration": 0.18878600000000034
                },
                {
                    "name": "B3",
                    "midi": 59,
                    "time": 37.568414,
                    "velocity": 0.4330708661417323,
                    "duration": 0.18878600000000034
                },
                {
                    "name": "E3",
                    "midi": 52,
                    "time": 37.568414,
                    "velocity": 0.36220472440944884,
                    "duration": 0.18878600000000034
                },
                {
                    "name": "A3",
                    "midi": 57,
                    "time": 37.7572,
                    "velocity": 0.36220472440944884,
                    "duration": 0.09439299999999662
                },
                {
                    "name": "C#4",
                    "midi": 61,
                    "time": 37.7572,
                    "velocity": 0.4330708661417323,
                    "duration": 0.09439299999999662
                },
                {
                    "name": "A3",
                    "midi": 57,
                    "time": 37.94598599999999,
                    "velocity": 0.4015748031496063,
                    "duration": 0.3775720000000007
                },
                {
                    "name": "C#4",
                    "midi": 61,
                    "time": 37.94598599999999,
                    "velocity": 0.47244094488188976,
                    "duration": 0.3775720000000007
                },
                {
                    "name": "A3",
                    "midi": 57,
                    "time": 38.32355799999999,
                    "velocity": 0.3937007874015748,
                    "duration": 0.14158950000000203
                },
                {
                    "name": "C#4",
                    "midi": 61,
                    "time": 38.32355799999999,
                    "velocity": 0.4645669291338583,
                    "duration": 0.14158950000000203
                },
                {
                    "name": "A3",
                    "midi": 57,
                    "time": 38.51234399999999,
                    "velocity": 0.41732283464566927,
                    "duration": 0.18878600000000034
                },
                {
                    "name": "C#4",
                    "midi": 61,
                    "time": 38.51234399999999,
                    "velocity": 0.49606299212598426,
                    "duration": 0.18878600000000034
                },
                {
                    "name": "D4",
                    "midi": 62,
                    "time": 38.70112999999999,
                    "velocity": 0.4645669291338583,
                    "duration": 0.18878600000000034
                },
                {
                    "name": "B3",
                    "midi": 59,
                    "time": 38.70112999999999,
                    "velocity": 0.3937007874015748,
                    "duration": 0.18878600000000034
                },
                {
                    "name": "C#4",
                    "midi": 61,
                    "time": 38.88991599999999,
                    "velocity": 0.3937007874015748,
                    "duration": 0.09439299999999662
                },
                {
                    "name": "E4",
                    "midi": 64,
                    "time": 38.88991599999999,
                    "velocity": 0.4645669291338583,
                    "duration": 0.09439299999999662
                },
                {
                    "name": "E4",
                    "midi": 64,
                    "time": 39.078701999999986,
                    "velocity": 0.5196850393700787,
                    "duration": 0.3775720000000007
                },
                {
                    "name": "C#4",
                    "midi": 61,
                    "time": 39.078701999999986,
                    "velocity": 0.4409448818897638,
                    "duration": 0.3775720000000007
                },
                {
                    "name": "A2",
                    "midi": 45,
                    "time": 39.64505999999999,
                    "velocity": 0.4094488188976378,
                    "duration": 0.18878600000000034
                },
                {
                    "name": "A1",
                    "midi": 33,
                    "time": 39.64505999999999,
                    "velocity": 0.3464566929133858,
                    "duration": 0.18878600000000034
                },
                {
                    "name": "F#3",
                    "midi": 54,
                    "time": 39.83384599999999,
                    "velocity": 0.29133858267716534,
                    "duration": 0.1809199166666673
                },
                {
                    "name": "C#4",
                    "midi": 61,
                    "time": 39.83384599999999,
                    "velocity": 0.29133858267716534,
                    "duration": 0.1809199166666673
                },
                {
                    "name": "E4",
                    "midi": 64,
                    "time": 39.83384599999999,
                    "velocity": 0.3464566929133858,
                    "duration": 0.1809199166666673
                },
                {
                    "name": "F#3",
                    "midi": 54,
                    "time": 40.02263199999999,
                    "velocity": 0.29133858267716534,
                    "duration": 0.14158950000000203
                },
                {
                    "name": "C#4",
                    "midi": 61,
                    "time": 40.02263199999999,
                    "velocity": 0.29133858267716534,
                    "duration": 0.14158950000000203
                },
                {
                    "name": "E4",
                    "midi": 64,
                    "time": 40.02263199999999,
                    "velocity": 0.3464566929133858,
                    "duration": 0.14158950000000203
                },
                {
                    "name": "F#3",
                    "midi": 54,
                    "time": 40.21141799999999,
                    "velocity": 0.2283464566929134,
                    "duration": 0.18878600000000034
                },
                {
                    "name": "C#4",
                    "midi": 61,
                    "time": 40.21141799999999,
                    "velocity": 0.2283464566929134,
                    "duration": 0.18878600000000034
                },
                {
                    "name": "E4",
                    "midi": 64,
                    "time": 40.21141799999999,
                    "velocity": 0.2755905511811024,
                    "duration": 0.18878600000000034
                },
                {
                    "name": "F#3",
                    "midi": 54,
                    "time": 40.40020399999999,
                    "velocity": 0.2283464566929134,
                    "duration": 0.18878600000000034
                },
                {
                    "name": "C#4",
                    "midi": 61,
                    "time": 40.40020399999999,
                    "velocity": 0.2283464566929134,
                    "duration": 0.18878600000000034
                },
                {
                    "name": "E4",
                    "midi": 64,
                    "time": 40.40020399999999,
                    "velocity": 0.2755905511811024,
                    "duration": 0.18878600000000034
                },
                {
                    "name": "F#3",
                    "midi": 54,
                    "time": 40.58898999999999,
                    "velocity": 0.2283464566929134,
                    "duration": 0.18878600000000034
                },
                {
                    "name": "C#4",
                    "midi": 61,
                    "time": 40.58898999999999,
                    "velocity": 0.2283464566929134,
                    "duration": 0.18878600000000034
                },
                {
                    "name": "E4",
                    "midi": 64,
                    "time": 40.58898999999999,
                    "velocity": 0.2755905511811024,
                    "duration": 0.18878600000000034
                },
                {
                    "name": "F#3",
                    "midi": 54,
                    "time": 40.77777599999999,
                    "velocity": 0.29133858267716534,
                    "duration": 1.132716000000002
                },
                {
                    "name": "C#4",
                    "midi": 61,
                    "time": 40.77777599999999,
                    "velocity": 0.29133858267716534,
                    "duration": 1.132716000000002
                },
                {
                    "name": "E4",
                    "midi": 64,
                    "time": 40.77777599999999,
                    "velocity": 0.29133858267716534,
                    "duration": 1.132716000000002
                },
                {
                    "name": "A2",
                    "midi": 45,
                    "time": 41.91049199999999,
                    "velocity": 0.4094488188976378,
                    "duration": 0.18878600000000034
                },
                {
                    "name": "A1",
                    "midi": 33,
                    "time": 41.91049199999999,
                    "velocity": 0.3464566929133858,
                    "duration": 0.18878600000000034
                },
                {
                    "name": "F#3",
                    "midi": 54,
                    "time": 42.09927799999999,
                    "velocity": 0.29133858267716534,
                    "duration": 0.1809199166666673
                },
                {
                    "name": "C#4",
                    "midi": 61,
                    "time": 42.09927799999999,
                    "velocity": 0.29133858267716534,
                    "duration": 0.1809199166666673
                },
                {
                    "name": "E4",
                    "midi": 64,
                    "time": 42.09927799999999,
                    "velocity": 0.3464566929133858,
                    "duration": 0.1809199166666673
                },
                {
                    "name": "F#3",
                    "midi": 54,
                    "time": 42.28806399999999,
                    "velocity": 0.29133858267716534,
                    "duration": 0.14158950000000203
                },
                {
                    "name": "C#4",
                    "midi": 61,
                    "time": 42.28806399999999,
                    "velocity": 0.29133858267716534,
                    "duration": 0.14158950000000203
                },
                {
                    "name": "E4",
                    "midi": 64,
                    "time": 42.28806399999999,
                    "velocity": 0.3464566929133858,
                    "duration": 0.14158950000000203
                },
                {
                    "name": "F#3",
                    "midi": 54,
                    "time": 42.47684999999999,
                    "velocity": 0.2283464566929134,
                    "duration": 0.18878600000000034
                },
                {
                    "name": "C#4",
                    "midi": 61,
                    "time": 42.47684999999999,
                    "velocity": 0.2283464566929134,
                    "duration": 0.18878600000000034
                },
                {
                    "name": "E4",
                    "midi": 64,
                    "time": 42.47684999999999,
                    "velocity": 0.2755905511811024,
                    "duration": 0.18878600000000034
                },
                {
                    "name": "F#3",
                    "midi": 54,
                    "time": 42.66563599999999,
                    "velocity": 0.2283464566929134,
                    "duration": 0.18878600000000034
                },
                {
                    "name": "C#4",
                    "midi": 61,
                    "time": 42.66563599999999,
                    "velocity": 0.2283464566929134,
                    "duration": 0.18878600000000034
                },
                {
                    "name": "E4",
                    "midi": 64,
                    "time": 42.66563599999999,
                    "velocity": 0.2755905511811024,
                    "duration": 0.18878600000000034
                },
                {
                    "name": "F#3",
                    "midi": 54,
                    "time": 42.85442199999999,
                    "velocity": 0.2283464566929134,
                    "duration": 0.18878600000000034
                },
                {
                    "name": "C#4",
                    "midi": 61,
                    "time": 42.85442199999999,
                    "velocity": 0.2283464566929134,
                    "duration": 0.18878600000000034
                },
                {
                    "name": "E4",
                    "midi": 64,
                    "time": 42.85442199999999,
                    "velocity": 0.2755905511811024,
                    "duration": 0.18878600000000034
                },
                {
                    "name": "F#3",
                    "midi": 54,
                    "time": 43.04320799999999,
                    "velocity": 0.29133858267716534,
                    "duration": 0.7551440000000014
                },
                {
                    "name": "C#4",
                    "midi": 61,
                    "time": 43.04320799999999,
                    "velocity": 0.29133858267716534,
                    "duration": 0.7551440000000014
                },
                {
                    "name": "E4",
                    "midi": 64,
                    "time": 43.04320799999999,
                    "velocity": 0.29133858267716534,
                    "duration": 0.7551440000000014
                },
                {
                    "name": "F#4",
                    "midi": 66,
                    "time": 43.798351999999994,
                    "velocity": 0.6141732283464567,
                    "duration": 0.09439299999999662
                },
                {
                    "name": "B3",
                    "midi": 59,
                    "time": 43.798351999999994,
                    "velocity": 0.5196850393700787,
                    "duration": 0.09439299999999662
                },
                {
                    "name": "B3",
                    "midi": 59,
                    "time": 43.98713799999999,
                    "velocity": 0.4645669291338583,
                    "duration": 0.09439299999999662
                },
                {
                    "name": "F#4",
                    "midi": 66,
                    "time": 43.98713799999999,
                    "velocity": 0.5511811023622047,
                    "duration": 0.09439299999999662
                },
                {
                    "name": "F#4",
                    "midi": 66,
                    "time": 44.17592399999998,
                    "velocity": 0.6141732283464567,
                    "duration": 0.18878600000000034
                },
                {
                    "name": "B3",
                    "midi": 59,
                    "time": 44.17592399999998,
                    "velocity": 0.5196850393700787,
                    "duration": 0.18878600000000034
                },
                {
                    "name": "G#3",
                    "midi": 56,
                    "time": 44.36470999999998,
                    "velocity": 0.49606299212598426,
                    "duration": 0.18878600000000034
                },
                {
                    "name": "E4",
                    "midi": 64,
                    "time": 44.36470999999998,
                    "velocity": 0.5905511811023622,
                    "duration": 0.18878600000000034
                },
                {
                    "name": "B3",
                    "midi": 59,
                    "time": 44.55349599999998,
                    "velocity": 0.48031496062992124,
                    "duration": 0.09439299999999662
                },
                {
                    "name": "F#4",
                    "midi": 66,
                    "time": 44.55349599999998,
                    "velocity": 0.5669291338582677,
                    "duration": 0.09439299999999662
                },
                {
                    "name": "G#4",
                    "midi": 68,
                    "time": 44.742281999999975,
                    "velocity": 0.6141732283464567,
                    "duration": 0.18878600000000034
                },
                {
                    "name": "E4",
                    "midi": 64,
                    "time": 44.742281999999975,
                    "velocity": 0.5196850393700787,
                    "duration": 0.18878600000000034
                },
                {
                    "name": "B4",
                    "midi": 71,
                    "time": 44.931067999999975,
                    "velocity": 0.5826771653543307,
                    "duration": 0.18878600000000034
                },
                {
                    "name": "G#4",
                    "midi": 68,
                    "time": 44.931067999999975,
                    "velocity": 0.4881889763779528,
                    "duration": 0.18878600000000034
                },
                {
                    "name": "B3",
                    "midi": 59,
                    "time": 45.119853999999975,
                    "velocity": 0.4881889763779528,
                    "duration": 0.09439299999999662
                },
                {
                    "name": "F#4",
                    "midi": 66,
                    "time": 45.119853999999975,
                    "velocity": 0.5826771653543307,
                    "duration": 0.09439299999999662
                },
                {
                    "name": "F#4",
                    "midi": 66,
                    "time": 45.30863999999997,
                    "velocity": 0.6614173228346457,
                    "duration": 0.7551440000000014
                },
                {
                    "name": "B3",
                    "midi": 59,
                    "time": 45.30863999999997,
                    "velocity": 0.5590551181102362,
                    "duration": 0.7551440000000014
                },
                {
                    "name": "G#1",
                    "midi": 32,
                    "time": 46.44135599999997,
                    "velocity": 0.3228346456692913,
                    "duration": 0.18878600000000034
                },
                {
                    "name": "G#2",
                    "midi": 44,
                    "time": 46.44135599999997,
                    "velocity": 0.3858267716535433,
                    "duration": 0.18878600000000034
                },
                {
                    "name": "E3",
                    "midi": 52,
                    "time": 46.63014199999997,
                    "velocity": 0.23622047244094488,
                    "duration": 0.09439299999999662
                },
                {
                    "name": "G#3",
                    "midi": 56,
                    "time": 46.63014199999997,
                    "velocity": 0.23622047244094488,
                    "duration": 0.09439299999999662
                },
                {
                    "name": "E4",
                    "midi": 64,
                    "time": 46.63014199999997,
                    "velocity": 0.29133858267716534,
                    "duration": 0.09439299999999662
                },
                {
                    "name": "B3",
                    "midi": 59,
                    "time": 46.63014199999997,
                    "velocity": 0.23622047244094488,
                    "duration": 0.09439299999999662
                },
                {
                    "name": "E3",
                    "midi": 52,
                    "time": 46.818927999999964,
                    "velocity": 0.23622047244094488,
                    "duration": 0.09439299999999662
                },
                {
                    "name": "G#3",
                    "midi": 56,
                    "time": 46.818927999999964,
                    "velocity": 0.23622047244094488,
                    "duration": 0.09439299999999662
                },
                {
                    "name": "B3",
                    "midi": 59,
                    "time": 46.818927999999964,
                    "velocity": 0.23622047244094488,
                    "duration": 0.09439299999999662
                },
                {
                    "name": "E4",
                    "midi": 64,
                    "time": 46.818927999999964,
                    "velocity": 0.29133858267716534,
                    "duration": 0.09439299999999662
                },
                {
                    "name": "E3",
                    "midi": 52,
                    "time": 47.00771399999996,
                    "velocity": 0.23622047244094488,
                    "duration": 0.3775720000000007
                },
                {
                    "name": "G#3",
                    "midi": 56,
                    "time": 47.00771399999996,
                    "velocity": 0.23622047244094488,
                    "duration": 0.3775720000000007
                },
                {
                    "name": "B3",
                    "midi": 59,
                    "time": 47.00771399999996,
                    "velocity": 0.23622047244094488,
                    "duration": 0.3775720000000007
                },
                {
                    "name": "E4",
                    "midi": 64,
                    "time": 47.00771399999996,
                    "velocity": 0.29133858267716534,
                    "duration": 0.3775720000000007
                },
                {
                    "name": "A1",
                    "midi": 33,
                    "time": 47.57407199999996,
                    "velocity": 0.3228346456692913,
                    "duration": 0.18878600000000034
                },
                {
                    "name": "A2",
                    "midi": 45,
                    "time": 47.57407199999996,
                    "velocity": 0.3858267716535433,
                    "duration": 0.18878600000000034
                },
                {
                    "name": "E3",
                    "midi": 52,
                    "time": 47.76285799999996,
                    "velocity": 0.29133858267716534,
                    "duration": 0.09439299999999662
                },
                {
                    "name": "G#3",
                    "midi": 56,
                    "time": 47.76285799999996,
                    "velocity": 0.29133858267716534,
                    "duration": 0.09439299999999662
                },
                {
                    "name": "E4",
                    "midi": 64,
                    "time": 47.76285799999996,
                    "velocity": 0.3543307086614173,
                    "duration": 0.09439299999999662
                },
                {
                    "name": "C#4",
                    "midi": 61,
                    "time": 47.76285799999996,
                    "velocity": 0.29133858267716534,
                    "duration": 0.09439299999999662
                },
                {
                    "name": "E3",
                    "midi": 52,
                    "time": 47.95164399999995,
                    "velocity": 0.29133858267716534,
                    "duration": 0.09439299999999662
                },
                {
                    "name": "G#3",
                    "midi": 56,
                    "time": 47.95164399999995,
                    "velocity": 0.29133858267716534,
                    "duration": 0.09439299999999662
                },
                {
                    "name": "C#4",
                    "midi": 61,
                    "time": 47.95164399999995,
                    "velocity": 0.29133858267716534,
                    "duration": 0.09439299999999662
                },
                {
                    "name": "E4",
                    "midi": 64,
                    "time": 47.95164399999995,
                    "velocity": 0.3543307086614173,
                    "duration": 0.09439299999999662
                },
                {
                    "name": "E3",
                    "midi": 52,
                    "time": 48.140429999999945,
                    "velocity": 0.29133858267716534,
                    "duration": 0.3775720000000007
                },
                {
                    "name": "G#3",
                    "midi": 56,
                    "time": 48.140429999999945,
                    "velocity": 0.29133858267716534,
                    "duration": 0.3775720000000007
                },
                {
                    "name": "C#4",
                    "midi": 61,
                    "time": 48.140429999999945,
                    "velocity": 0.29133858267716534,
                    "duration": 0.3775720000000007
                },
                {
                    "name": "E4",
                    "midi": 64,
                    "time": 48.140429999999945,
                    "velocity": 0.3543307086614173,
                    "duration": 0.3775720000000007
                },
                {
                    "name": "B1",
                    "midi": 35,
                    "time": 48.706787999999946,
                    "velocity": 0.41732283464566927,
                    "duration": 0.18878600000000034
                },
                {
                    "name": "B2",
                    "midi": 47,
                    "time": 48.706787999999946,
                    "velocity": 0.49606299212598426,
                    "duration": 0.18878600000000034
                },
                {
                    "name": "E3",
                    "midi": 52,
                    "time": 48.89557399999995,
                    "velocity": 0.30708661417322836,
                    "duration": 0.09439299999999662
                },
                {
                    "name": "G#3",
                    "midi": 56,
                    "time": 48.89557399999995,
                    "velocity": 0.30708661417322836,
                    "duration": 0.09439299999999662
                },
                {
                    "name": "E4",
                    "midi": 64,
                    "time": 48.89557399999995,
                    "velocity": 0.3779527559055118,
                    "duration": 0.09439299999999662
                },
                {
                    "name": "B3",
                    "midi": 59,
                    "time": 48.89557399999995,
                    "velocity": 0.30708661417322836,
                    "duration": 0.09439299999999662
                },
                {
                    "name": "E3",
                    "midi": 52,
                    "time": 49.08435999999994,
                    "velocity": 0.31496062992125984,
                    "duration": 0.09439299999999662
                },
                {
                    "name": "G#3",
                    "midi": 56,
                    "time": 49.08435999999994,
                    "velocity": 0.31496062992125984,
                    "duration": 0.09439299999999662
                },
                {
                    "name": "B3",
                    "midi": 59,
                    "time": 49.08435999999994,
                    "velocity": 0.31496062992125984,
                    "duration": 0.09439299999999662
                },
                {
                    "name": "E4",
                    "midi": 64,
                    "time": 49.08435999999994,
                    "velocity": 0.3937007874015748,
                    "duration": 0.09439299999999662
                },
                {
                    "name": "E3",
                    "midi": 52,
                    "time": 49.27314599999993,
                    "velocity": 0.31496062992125984,
                    "duration": 0.3775720000000007
                },
                {
                    "name": "G#3",
                    "midi": 56,
                    "time": 49.27314599999993,
                    "velocity": 0.31496062992125984,
                    "duration": 0.3775720000000007
                },
                {
                    "name": "B3",
                    "midi": 59,
                    "time": 49.27314599999993,
                    "velocity": 0.31496062992125984,
                    "duration": 0.3775720000000007
                },
                {
                    "name": "E4",
                    "midi": 64,
                    "time": 49.27314599999993,
                    "velocity": 0.3937007874015748,
                    "duration": 0.3775720000000007
                },
                {
                    "name": "C#2",
                    "midi": 37,
                    "time": 49.839503999999934,
                    "velocity": 0.4015748031496063,
                    "duration": 0.18878600000000034
                },
                {
                    "name": "C#3",
                    "midi": 49,
                    "time": 49.839503999999934,
                    "velocity": 0.48031496062992124,
                    "duration": 0.18878600000000034
                },
                {
                    "name": "E3",
                    "midi": 52,
                    "time": 50.028289999999934,
                    "velocity": 0.36220472440944884,
                    "duration": 0.09439299999999662
                },
                {
                    "name": "G#3",
                    "midi": 56,
                    "time": 50.028289999999934,
                    "velocity": 0.36220472440944884,
                    "duration": 0.09439299999999662
                },
                {
                    "name": "E4",
                    "midi": 64,
                    "time": 50.028289999999934,
                    "velocity": 0.4409448818897638,
                    "duration": 0.09439299999999662
                },
                {
                    "name": "C#4",
                    "midi": 61,
                    "time": 50.028289999999934,
                    "velocity": 0.36220472440944884,
                    "duration": 0.09439299999999662
                },
                {
                    "name": "E3",
                    "midi": 52,
                    "time": 50.21707599999993,
                    "velocity": 0.3700787401574803,
                    "duration": 0.09439299999999662
                },
                {
                    "name": "G#3",
                    "midi": 56,
                    "time": 50.21707599999993,
                    "velocity": 0.3700787401574803,
                    "duration": 0.09439299999999662
                },
                {
                    "name": "C#4",
                    "midi": 61,
                    "time": 50.21707599999993,
                    "velocity": 0.3700787401574803,
                    "duration": 0.09439299999999662
                },
                {
                    "name": "E4",
                    "midi": 64,
                    "time": 50.21707599999993,
                    "velocity": 0.44881889763779526,
                    "duration": 0.09439299999999662
                },
                {
                    "name": "E3",
                    "midi": 52,
                    "time": 50.40586199999992,
                    "velocity": 0.3779527559055118,
                    "duration": 0.3775720000000007
                },
                {
                    "name": "G#3",
                    "midi": 56,
                    "time": 50.40586199999992,
                    "velocity": 0.3779527559055118,
                    "duration": 0.3775720000000007
                },
                {
                    "name": "C#4",
                    "midi": 61,
                    "time": 50.40586199999992,
                    "velocity": 0.3779527559055118,
                    "duration": 0.3775720000000007
                },
                {
                    "name": "E4",
                    "midi": 64,
                    "time": 50.40586199999992,
                    "velocity": 0.4566929133858268,
                    "duration": 0.3775720000000007
                },
                {
                    "name": "D2",
                    "midi": 38,
                    "time": 50.97221999999992,
                    "velocity": 0.4409448818897638,
                    "duration": 0.18878600000000034
                },
                {
                    "name": "D3",
                    "midi": 50,
                    "time": 50.97221999999992,
                    "velocity": 0.5196850393700787,
                    "duration": 0.18878600000000034
                },
                {
                    "name": "E3",
                    "midi": 52,
                    "time": 51.16100599999992,
                    "velocity": 0.3228346456692913,
                    "duration": 0.09439299999999662
                },
                {
                    "name": "G#3",
                    "midi": 56,
                    "time": 51.16100599999992,
                    "velocity": 0.3228346456692913,
                    "duration": 0.09439299999999662
                },
                {
                    "name": "E4",
                    "midi": 64,
                    "time": 51.16100599999992,
                    "velocity": 0.3937007874015748,
                    "duration": 0.09439299999999662
                },
                {
                    "name": "B3",
                    "midi": 59,
                    "time": 51.16100599999992,
                    "velocity": 0.3228346456692913,
                    "duration": 0.09439299999999662
                },
                {
                    "name": "E3",
                    "midi": 52,
                    "time": 51.349791999999916,
                    "velocity": 0.3228346456692913,
                    "duration": 0.09439299999999662
                },
                {
                    "name": "G#3",
                    "midi": 56,
                    "time": 51.349791999999916,
                    "velocity": 0.3228346456692913,
                    "duration": 0.09439299999999662
                },
                {
                    "name": "B3",
                    "midi": 59,
                    "time": 51.349791999999916,
                    "velocity": 0.3228346456692913,
                    "duration": 0.09439299999999662
                },
                {
                    "name": "E4",
                    "midi": 64,
                    "time": 51.349791999999916,
                    "velocity": 0.3937007874015748,
                    "duration": 0.09439299999999662
                },
                {
                    "name": "E3",
                    "midi": 52,
                    "time": 51.53857799999991,
                    "velocity": 0.33070866141732286,
                    "duration": 0.3775720000000007
                },
                {
                    "name": "G#3",
                    "midi": 56,
                    "time": 51.53857799999991,
                    "velocity": 0.33070866141732286,
                    "duration": 0.3775720000000007
                },
                {
                    "name": "B3",
                    "midi": 59,
                    "time": 51.53857799999991,
                    "velocity": 0.33070866141732286,
                    "duration": 0.3775720000000007
                },
                {
                    "name": "E4",
                    "midi": 64,
                    "time": 51.53857799999991,
                    "velocity": 0.4015748031496063,
                    "duration": 0.3775720000000007
                },
                {
                    "name": "C#2",
                    "midi": 37,
                    "time": 52.10493599999991,
                    "velocity": 0.47244094488188976,
                    "duration": 0.18878600000000034
                },
                {
                    "name": "C#3",
                    "midi": 49,
                    "time": 52.10493599999991,
                    "velocity": 0.5590551181102362,
                    "duration": 0.18878600000000034
                },
                {
                    "name": "E3",
                    "midi": 52,
                    "time": 52.29372199999991,
                    "velocity": 0.41732283464566927,
                    "duration": 0.09439299999999662
                },
                {
                    "name": "A3",
                    "midi": 57,
                    "time": 52.29372199999991,
                    "velocity": 0.41732283464566927,
                    "duration": 0.09439299999999662
                },
                {
                    "name": "E4",
                    "midi": 64,
                    "time": 52.29372199999991,
                    "velocity": 0.5039370078740157,
                    "duration": 0.09439299999999662
                },
                {
                    "name": "C#4",
                    "midi": 61,
                    "time": 52.29372199999991,
                    "velocity": 0.41732283464566927,
                    "duration": 0.09439299999999662
                },
                {
                    "name": "E3",
                    "midi": 52,
                    "time": 52.4825079999999,
                    "velocity": 0.41732283464566927,
                    "duration": 0.09439299999999662
                },
                {
                    "name": "A3",
                    "midi": 57,
                    "time": 52.4825079999999,
                    "velocity": 0.41732283464566927,
                    "duration": 0.09439299999999662
                },
                {
                    "name": "C#4",
                    "midi": 61,
                    "time": 52.4825079999999,
                    "velocity": 0.41732283464566927,
                    "duration": 0.09439299999999662
                },
                {
                    "name": "E4",
                    "midi": 64,
                    "time": 52.4825079999999,
                    "velocity": 0.5039370078740157,
                    "duration": 0.09439299999999662
                },
                {
                    "name": "E3",
                    "midi": 52,
                    "time": 52.6712939999999,
                    "velocity": 0.41732283464566927,
                    "duration": 0.3775720000000007
                },
                {
                    "name": "A3",
                    "midi": 57,
                    "time": 52.6712939999999,
                    "velocity": 0.41732283464566927,
                    "duration": 0.3775720000000007
                },
                {
                    "name": "C#4",
                    "midi": 61,
                    "time": 52.6712939999999,
                    "velocity": 0.41732283464566927,
                    "duration": 0.3775720000000007
                },
                {
                    "name": "E4",
                    "midi": 64,
                    "time": 52.6712939999999,
                    "velocity": 0.5039370078740157,
                    "duration": 0.3775720000000007
                },
                {
                    "name": "D#2",
                    "midi": 39,
                    "time": 53.2376519999999,
                    "velocity": 0.36220472440944884,
                    "duration": 0.09439299999999662
                },
                {
                    "name": "D#3",
                    "midi": 51,
                    "time": 53.2376519999999,
                    "velocity": 0.4330708661417323,
                    "duration": 0.09439299999999662
                },
                {
                    "name": "D#3",
                    "midi": 51,
                    "time": 53.42643799999989,
                    "velocity": 0.3228346456692913,
                    "duration": 0.09439299999999662
                },
                {
                    "name": "F#3",
                    "midi": 54,
                    "time": 53.42643799999989,
                    "velocity": 0.3228346456692913,
                    "duration": 0.09439299999999662
                },
                {
                    "name": "B3",
                    "midi": 59,
                    "time": 53.42643799999989,
                    "velocity": 0.3937007874015748,
                    "duration": 0.09439299999999662
                },
                {
                    "name": "A3",
                    "midi": 57,
                    "time": 53.42643799999989,
                    "velocity": 0.3228346456692913,
                    "duration": 0.09439299999999662
                },
                {
                    "name": "D#3",
                    "midi": 51,
                    "time": 53.615223999999884,
                    "velocity": 0.3228346456692913,
                    "duration": 0.09439299999999662
                },
                {
                    "name": "F#3",
                    "midi": 54,
                    "time": 53.615223999999884,
                    "velocity": 0.3228346456692913,
                    "duration": 0.09439299999999662
                },
                {
                    "name": "A3",
                    "midi": 57,
                    "time": 53.615223999999884,
                    "velocity": 0.3228346456692913,
                    "duration": 0.09439299999999662
                },
                {
                    "name": "B3",
                    "midi": 59,
                    "time": 53.615223999999884,
                    "velocity": 0.3937007874015748,
                    "duration": 0.09439299999999662
                },
                {
                    "name": "D#3",
                    "midi": 51,
                    "time": 53.80400999999988,
                    "velocity": 0.3228346456692913,
                    "duration": 0.18878600000000034
                },
                {
                    "name": "F#3",
                    "midi": 54,
                    "time": 53.80400999999988,
                    "velocity": 0.3228346456692913,
                    "duration": 0.18878600000000034
                },
                {
                    "name": "A3",
                    "midi": 57,
                    "time": 53.80400999999988,
                    "velocity": 0.3228346456692913,
                    "duration": 0.18878600000000034
                },
                {
                    "name": "B3",
                    "midi": 59,
                    "time": 53.80400999999988,
                    "velocity": 0.3937007874015748,
                    "duration": 0.18878600000000034
                },
                {
                    "name": "E3",
                    "midi": 52,
                    "time": 54.37036799999988,
                    "velocity": 0.36220472440944884,
                    "duration": 0.09439299999999662
                },
                {
                    "name": "B2",
                    "midi": 47,
                    "time": 54.37036799999988,
                    "velocity": 0.36220472440944884,
                    "duration": 0.09439299999999662
                },
                {
                    "name": "G#2",
                    "midi": 44,
                    "time": 54.37036799999988,
                    "velocity": 0.36220472440944884,
                    "duration": 0.09439299999999662
                },
                {
                    "name": "G#3",
                    "midi": 56,
                    "time": 54.37036799999988,
                    "velocity": 0.4330708661417323,
                    "duration": 0.09439299999999662
                },
                {
                    "name": "G#2",
                    "midi": 44,
                    "time": 54.55915399999987,
                    "velocity": 0.3228346456692913,
                    "duration": 0.09439299999999662
                },
                {
                    "name": "B2",
                    "midi": 47,
                    "time": 54.55915399999987,
                    "velocity": 0.3228346456692913,
                    "duration": 0.09439299999999662
                },
                {
                    "name": "G#3",
                    "midi": 56,
                    "time": 54.55915399999987,
                    "velocity": 0.3937007874015748,
                    "duration": 0.09439299999999662
                },
                {
                    "name": "E3",
                    "midi": 52,
                    "time": 54.55915399999987,
                    "velocity": 0.3228346456692913,
                    "duration": 0.09439299999999662
                },
                {
                    "name": "G#2",
                    "midi": 44,
                    "time": 54.747939999999865,
                    "velocity": 0.3228346456692913,
                    "duration": 0.09439299999999662
                },
                {
                    "name": "B2",
                    "midi": 47,
                    "time": 54.747939999999865,
                    "velocity": 0.3228346456692913,
                    "duration": 0.09439299999999662
                },
                {
                    "name": "E3",
                    "midi": 52,
                    "time": 54.747939999999865,
                    "velocity": 0.3228346456692913,
                    "duration": 0.09439299999999662
                },
                {
                    "name": "G#3",
                    "midi": 56,
                    "time": 54.747939999999865,
                    "velocity": 0.3937007874015748,
                    "duration": 0.09439299999999662
                },
                {
                    "name": "G#2",
                    "midi": 44,
                    "time": 54.93672599999986,
                    "velocity": 0.3228346456692913,
                    "duration": 0.18878600000000034
                },
                {
                    "name": "B2",
                    "midi": 47,
                    "time": 54.93672599999986,
                    "velocity": 0.3228346456692913,
                    "duration": 0.18878600000000034
                },
                {
                    "name": "E3",
                    "midi": 52,
                    "time": 54.93672599999986,
                    "velocity": 0.3228346456692913,
                    "duration": 0.18878600000000034
                },
                {
                    "name": "G#3",
                    "midi": 56,
                    "time": 54.93672599999986,
                    "velocity": 0.3937007874015748,
                    "duration": 0.18878600000000034
                },
                {
                    "name": "E3",
                    "midi": 52,
                    "time": 55.50308399999986,
                    "velocity": 0.30708661417322836,
                    "duration": 0.09439299999999662
                },
                {
                    "name": "A#2",
                    "midi": 46,
                    "time": 55.50308399999986,
                    "velocity": 0.30708661417322836,
                    "duration": 0.09439299999999662
                },
                {
                    "name": "F#3",
                    "midi": 54,
                    "time": 55.50308399999986,
                    "velocity": 0.36220472440944884,
                    "duration": 0.09439299999999662
                },
                {
                    "name": "A#2",
                    "midi": 46,
                    "time": 55.69186999999985,
                    "velocity": 0.2677165354330709,
                    "duration": 0.09439299999999662
                },
                {
                    "name": "F#3",
                    "midi": 54,
                    "time": 55.69186999999985,
                    "velocity": 0.33070866141732286,
                    "duration": 0.09439299999999662
                },
                {
                    "name": "E3",
                    "midi": 52,
                    "time": 55.69186999999985,
                    "velocity": 0.2677165354330709,
                    "duration": 0.09439299999999662
                },
                {
                    "name": "A#2",
                    "midi": 46,
                    "time": 55.880655999999846,
                    "velocity": 0.2677165354330709,
                    "duration": 0.09439299999999662
                },
                {
                    "name": "E3",
                    "midi": 52,
                    "time": 55.880655999999846,
                    "velocity": 0.2677165354330709,
                    "duration": 0.09439299999999662
                },
                {
                    "name": "F#3",
                    "midi": 54,
                    "time": 55.880655999999846,
                    "velocity": 0.33070866141732286,
                    "duration": 0.09439299999999662
                },
                {
                    "name": "E3",
                    "midi": 52,
                    "time": 56.06944199999984,
                    "velocity": 0.30708661417322836,
                    "duration": 0.09439299999999662
                },
                {
                    "name": "A#2",
                    "midi": 46,
                    "time": 56.06944199999984,
                    "velocity": 0.30708661417322836,
                    "duration": 0.09439299999999662
                },
                {
                    "name": "F#3",
                    "midi": 54,
                    "time": 56.06944199999984,
                    "velocity": 0.36220472440944884,
                    "duration": 0.09439299999999662
                },
                {
                    "name": "A#2",
                    "midi": 46,
                    "time": 56.25822799999983,
                    "velocity": 0.2677165354330709,
                    "duration": 0.09439299999999662
                },
                {
                    "name": "F#3",
                    "midi": 54,
                    "time": 56.25822799999983,
                    "velocity": 0.33070866141732286,
                    "duration": 0.09439299999999662
                },
                {
                    "name": "E3",
                    "midi": 52,
                    "time": 56.25822799999983,
                    "velocity": 0.2677165354330709,
                    "duration": 0.09439299999999662
                },
                {
                    "name": "A#2",
                    "midi": 46,
                    "time": 56.447013999999825,
                    "velocity": 0.2677165354330709,
                    "duration": 0.09439299999999662
                },
                {
                    "name": "E3",
                    "midi": 52,
                    "time": 56.447013999999825,
                    "velocity": 0.2677165354330709,
                    "duration": 0.09439299999999662
                },
                {
                    "name": "F#3",
                    "midi": 54,
                    "time": 56.447013999999825,
                    "velocity": 0.33070866141732286,
                    "duration": 0.09439299999999662
                },
                {
                    "name": "E3",
                    "midi": 52,
                    "time": 56.63579999999982,
                    "velocity": 0.30708661417322836,
                    "duration": 0.09439299999999662
                },
                {
                    "name": "A#2",
                    "midi": 46,
                    "time": 56.63579999999982,
                    "velocity": 0.30708661417322836,
                    "duration": 0.09439299999999662
                },
                {
                    "name": "F#3",
                    "midi": 54,
                    "time": 56.63579999999982,
                    "velocity": 0.36220472440944884,
                    "duration": 0.09439299999999662
                },
                {
                    "name": "A#2",
                    "midi": 46,
                    "time": 56.82458599999981,
                    "velocity": 0.25984251968503935,
                    "duration": 0.09439299999999662
                },
                {
                    "name": "F#3",
                    "midi": 54,
                    "time": 56.82458599999981,
                    "velocity": 0.3228346456692913,
                    "duration": 0.09439299999999662
                },
                {
                    "name": "E3",
                    "midi": 52,
                    "time": 56.82458599999981,
                    "velocity": 0.25984251968503935,
                    "duration": 0.09439299999999662
                },
                {
                    "name": "A#2",
                    "midi": 46,
                    "time": 57.013371999999805,
                    "velocity": 0.25196850393700787,
                    "duration": 0.09439299999999662
                },
                {
                    "name": "E3",
                    "midi": 52,
                    "time": 57.013371999999805,
                    "velocity": 0.25196850393700787,
                    "duration": 0.09439299999999662
                },
                {
                    "name": "F#3",
                    "midi": 54,
                    "time": 57.013371999999805,
                    "velocity": 0.31496062992125984,
                    "duration": 0.09439299999999662
                },
                {
                    "name": "E3",
                    "midi": 52,
                    "time": 57.2021579999998,
                    "velocity": 0.29133858267716534,
                    "duration": 0.09439299999999662
                },
                {
                    "name": "A#2",
                    "midi": 46,
                    "time": 57.2021579999998,
                    "velocity": 0.29133858267716534,
                    "duration": 0.09439299999999662
                },
                {
                    "name": "F#3",
                    "midi": 54,
                    "time": 57.2021579999998,
                    "velocity": 0.33858267716535434,
                    "duration": 0.09439299999999662
                },
                {
                    "name": "A#2",
                    "midi": 46,
                    "time": 57.39094399999979,
                    "velocity": 0.2440944881889764,
                    "duration": 0.09439299999999662
                },
                {
                    "name": "F#3",
                    "midi": 54,
                    "time": 57.39094399999979,
                    "velocity": 0.30708661417322836,
                    "duration": 0.09439299999999662
                },
                {
                    "name": "E3",
                    "midi": 52,
                    "time": 57.39094399999979,
                    "velocity": 0.2440944881889764,
                    "duration": 0.09439299999999662
                },
                {
                    "name": "A#2",
                    "midi": 46,
                    "time": 57.579729999999785,
                    "velocity": 0.2440944881889764,
                    "duration": 0.09439299999999662
                },
                {
                    "name": "E3",
                    "midi": 52,
                    "time": 57.579729999999785,
                    "velocity": 0.2440944881889764,
                    "duration": 0.09439299999999662
                },
                {
                    "name": "F#3",
                    "midi": 54,
                    "time": 57.579729999999785,
                    "velocity": 0.2992125984251969,
                    "duration": 0.09439299999999662
                },
                {
                    "name": "B2",
                    "midi": 47,
                    "time": 57.76851599999978,
                    "velocity": 0.2755905511811024,
                    "duration": 0.09439299999999662
                },
                {
                    "name": "G#3",
                    "midi": 56,
                    "time": 57.76851599999978,
                    "velocity": 0.3228346456692913,
                    "duration": 0.09439299999999662
                },
                {
                    "name": "E3",
                    "midi": 52,
                    "time": 57.773235649999776,
                    "velocity": 0.2755905511811024,
                    "duration": 0.09439299999999662
                },
                {
                    "name": "B2",
                    "midi": 47,
                    "time": 57.95730199999977,
                    "velocity": 0.2283464566929134,
                    "duration": 0.09439299999999662
                },
                {
                    "name": "G#3",
                    "midi": 56,
                    "time": 57.95730199999977,
                    "velocity": 0.28346456692913385,
                    "duration": 0.09439299999999662
                },
                {
                    "name": "E3",
                    "midi": 52,
                    "time": 57.96202164999977,
                    "velocity": 0.2283464566929134,
                    "duration": 0.09439299999999662
                },
                {
                    "name": "B2",
                    "midi": 47,
                    "time": 58.146087999999764,
                    "velocity": 0.2283464566929134,
                    "duration": 0.09439299999999662
                },
                {
                    "name": "G#3",
                    "midi": 56,
                    "time": 58.146087999999764,
                    "velocity": 0.28346456692913385,
                    "duration": 0.09439299999999662
                },
                {
                    "name": "E3",
                    "midi": 52,
                    "time": 58.15080764999976,
                    "velocity": 0.2283464566929134,
                    "duration": 0.09439299999999662
                },
                {
                    "name": "B2",
                    "midi": 47,
                    "time": 58.33487399999976,
                    "velocity": 0.25984251968503935,
                    "duration": 0.09439299999999662
                },
                {
                    "name": "F#3",
                    "midi": 54,
                    "time": 58.33487399999976,
                    "velocity": 0.25984251968503935,
                    "duration": 0.09439299999999662
                },
                {
                    "name": "A3",
                    "midi": 57,
                    "time": 58.33487399999976,
                    "velocity": 0.30708661417322836,
                    "duration": 0.09439299999999662
                },
                {
                    "name": "B2",
                    "midi": 47,
                    "time": 58.52365999999975,
                    "velocity": 0.2204724409448819,
                    "duration": 0.09439299999999662
                },
                {
                    "name": "F#3",
                    "midi": 54,
                    "time": 58.52365999999975,
                    "velocity": 0.2204724409448819,
                    "duration": 0.09439299999999662
                },
                {
                    "name": "A3",
                    "midi": 57,
                    "time": 58.52365999999975,
                    "velocity": 0.2677165354330709,
                    "duration": 0.09439299999999662
                },
                {
                    "name": "B2",
                    "midi": 47,
                    "time": 58.712445999999744,
                    "velocity": 0.2125984251968504,
                    "duration": 0.09439299999999662
                },
                {
                    "name": "F#3",
                    "midi": 54,
                    "time": 58.712445999999744,
                    "velocity": 0.2125984251968504,
                    "duration": 0.09439299999999662
                },
                {
                    "name": "A3",
                    "midi": 57,
                    "time": 58.712445999999744,
                    "velocity": 0.2677165354330709,
                    "duration": 0.09439299999999662
                },
                {
                    "name": "E3",
                    "midi": 52,
                    "time": 58.90123199999974,
                    "velocity": 0.25984251968503935,
                    "duration": 0.18878600000000034
                },
                {
                    "name": "G#3",
                    "midi": 56,
                    "time": 58.90123199999974,
                    "velocity": 0.25984251968503935,
                    "duration": 0.18878600000000034
                },
                {
                    "name": "D#4",
                    "midi": 63,
                    "time": 59.65637599999974,
                    "velocity": 0.6141732283464567,
                    "duration": 0.09439299999999662
                },
                {
                    "name": "G#3",
                    "midi": 56,
                    "time": 59.65637599999974,
                    "velocity": 0.5196850393700787,
                    "duration": 0.09439299999999662
                },
                {
                    "name": "G#3",
                    "midi": 56,
                    "time": 59.84516199999973,
                    "velocity": 0.4645669291338583,
                    "duration": 0.09439299999999662
                },
                {
                    "name": "D#4",
                    "midi": 63,
                    "time": 59.84516199999973,
                    "velocity": 0.5511811023622047,
                    "duration": 0.09439299999999662
                },
                {
                    "name": "D#4",
                    "midi": 63,
                    "time": 60.033947999999725,
                    "velocity": 0.6141732283464567,
                    "duration": 0.18878600000000034
                },
                {
                    "name": "G#3",
                    "midi": 56,
                    "time": 60.033947999999725,
                    "velocity": 0.5196850393700787,
                    "duration": 0.18878600000000034
                },
                {
                    "name": "E3",
                    "midi": 52,
                    "time": 60.222733999999726,
                    "velocity": 0.49606299212598426,
                    "duration": 0.18878600000000034
                },
                {
                    "name": "C#4",
                    "midi": 61,
                    "time": 60.222733999999726,
                    "velocity": 0.5905511811023622,
                    "duration": 0.18878600000000034
                },
                {
                    "name": "G#3",
                    "midi": 56,
                    "time": 60.411519999999726,
                    "velocity": 0.48031496062992124,
                    "duration": 0.09439299999999662
                },
                {
                    "name": "D#4",
                    "midi": 63,
                    "time": 60.411519999999726,
                    "velocity": 0.5669291338582677,
                    "duration": 0.09439299999999662
                },
                {
                    "name": "E4",
                    "midi": 64,
                    "time": 60.60030599999972,
                    "velocity": 0.6141732283464567,
                    "duration": 0.18878600000000034
                },
                {
                    "name": "C#4",
                    "midi": 61,
                    "time": 60.60030599999972,
                    "velocity": 0.5196850393700787,
                    "duration": 0.18878600000000034
                },
                {
                    "name": "G#4",
                    "midi": 68,
                    "time": 60.78909199999972,
                    "velocity": 0.5826771653543307,
                    "duration": 0.36970591666666053
                },
                {
                    "name": "G#3",
                    "midi": 56,
                    "time": 60.97787799999972,
                    "velocity": 0.4881889763779528,
                    "duration": 0.09439299999999662
                },
                {
                    "name": "D#4",
                    "midi": 63,
                    "time": 60.97787799999972,
                    "velocity": 0.5826771653543307,
                    "duration": 0.09439299999999662
                },
                {
                    "name": "G#3",
                    "midi": 56,
                    "time": 61.16666399999971,
                    "velocity": 0.5196850393700787,
                    "duration": 0.3775720000000007
                },
                {
                    "name": "D#4",
                    "midi": 63,
                    "time": 61.16666399999971,
                    "velocity": 0.6141732283464567,
                    "duration": 0.3775720000000007
                },
                {
                    "name": "D#4",
                    "midi": 63,
                    "time": 61.921807999999714,
                    "velocity": 0.6141732283464567,
                    "duration": 0.09439299999999662
                },
                {
                    "name": "G#3",
                    "midi": 56,
                    "time": 61.921807999999714,
                    "velocity": 0.5196850393700787,
                    "duration": 0.09439299999999662
                },
                {
                    "name": "G#3",
                    "midi": 56,
                    "time": 62.11059399999971,
                    "velocity": 0.4645669291338583,
                    "duration": 0.09439299999999662
                },
                {
                    "name": "D#4",
                    "midi": 63,
                    "time": 62.11059399999971,
                    "velocity": 0.5511811023622047,
                    "duration": 0.09439299999999662
                },
                {
                    "name": "D#4",
                    "midi": 63,
                    "time": 62.2993799999997,
                    "velocity": 0.6141732283464567,
                    "duration": 0.18878600000000034
                },
                {
                    "name": "G#3",
                    "midi": 56,
                    "time": 62.2993799999997,
                    "velocity": 0.5196850393700787,
                    "duration": 0.18878600000000034
                },
                {
                    "name": "E3",
                    "midi": 52,
                    "time": 62.4881659999997,
                    "velocity": 0.49606299212598426,
                    "duration": 0.18878600000000034
                },
                {
                    "name": "C#4",
                    "midi": 61,
                    "time": 62.4881659999997,
                    "velocity": 0.5905511811023622,
                    "duration": 0.18878600000000034
                },
                {
                    "name": "G#3",
                    "midi": 56,
                    "time": 62.6769519999997,
                    "velocity": 0.48031496062992124,
                    "duration": 0.09439299999999662
                },
                {
                    "name": "D#4",
                    "midi": 63,
                    "time": 62.6769519999997,
                    "velocity": 0.5669291338582677,
                    "duration": 0.09439299999999662
                },
                {
                    "name": "E4",
                    "midi": 64,
                    "time": 62.865737999999695,
                    "velocity": 0.6141732283464567,
                    "duration": 0.18878600000000034
                },
                {
                    "name": "C#4",
                    "midi": 61,
                    "time": 62.865737999999695,
                    "velocity": 0.5196850393700787,
                    "duration": 0.18878600000000034
                },
                {
                    "name": "G#4",
                    "midi": 68,
                    "time": 63.054523999999695,
                    "velocity": 0.5826771653543307,
                    "duration": 0.36970591666666053
                },
                {
                    "name": "G#3",
                    "midi": 56,
                    "time": 63.243309999999695,
                    "velocity": 0.4881889763779528,
                    "duration": 0.09439299999999662
                },
                {
                    "name": "D#4",
                    "midi": 63,
                    "time": 63.243309999999695,
                    "velocity": 0.5826771653543307,
                    "duration": 0.09439299999999662
                },
                {
                    "name": "D#4",
                    "midi": 63,
                    "time": 63.43209599999969,
                    "velocity": 0.6141732283464567,
                    "duration": 0.566358000000001
                },
                {
                    "name": "G#3",
                    "midi": 56,
                    "time": 63.43209599999969,
                    "velocity": 0.5196850393700787,
                    "duration": 0.566358000000001
                },
                {
                    "name": "C#3",
                    "midi": 49,
                    "time": 63.99845399999969,
                    "velocity": 0.49606299212598426,
                    "duration": 0.5608517416666601
                },
                {
                    "name": "C#4",
                    "midi": 61,
                    "time": 63.99845399999969,
                    "velocity": 0.5826771653543307,
                    "duration": 0.5608517416666601
                },
                {
                    "name": "C#3",
                    "midi": 49,
                    "time": 64.56481199999968,
                    "velocity": 0.5196850393700787,
                    "duration": 0.5608517416666672
                },
                {
                    "name": "C#4",
                    "midi": 61,
                    "time": 64.56481199999968,
                    "velocity": 0.6220472440944882,
                    "duration": 0.5608517416666672
                },
                {
                    "name": "C#3",
                    "midi": 49,
                    "time": 65.13116999999967,
                    "velocity": 0.49606299212598426,
                    "duration": 0.5608517416666672
                },
                {
                    "name": "C#4",
                    "midi": 61,
                    "time": 65.13116999999967,
                    "velocity": 0.5905511811023622,
                    "duration": 0.5608517416666672
                },
                {
                    "name": "C#4",
                    "midi": 61,
                    "time": 65.69752799999966,
                    "velocity": 0.5511811023622047,
                    "duration": 0.18878599999999324
                },
                {
                    "name": "C#3",
                    "midi": 49,
                    "time": 65.69752799999966,
                    "velocity": 0.4645669291338583,
                    "duration": 0.18878599999999324
                },
                {
                    "name": "D3",
                    "midi": 50,
                    "time": 65.88631399999966,
                    "velocity": 0.4409448818897638,
                    "duration": 0.18878599999999324
                },
                {
                    "name": "D4",
                    "midi": 62,
                    "time": 65.88631399999966,
                    "velocity": 0.5275590551181102,
                    "duration": 0.18878599999999324
                },
                {
                    "name": "C#3",
                    "midi": 49,
                    "time": 66.07509999999965,
                    "velocity": 0.4251968503937008,
                    "duration": 0.09439299999999662
                },
                {
                    "name": "C#4",
                    "midi": 61,
                    "time": 66.07509999999965,
                    "velocity": 0.5039370078740157,
                    "duration": 0.09439299999999662
                },
                {
                    "name": "C#3",
                    "midi": 49,
                    "time": 66.26388599999964,
                    "velocity": 0.4645669291338583,
                    "duration": 0.09439299999999662
                },
                {
                    "name": "C#4",
                    "midi": 61,
                    "time": 66.26388599999964,
                    "velocity": 0.5511811023622047,
                    "duration": 0.09439299999999662
                },
                {
                    "name": "C#3",
                    "midi": 49,
                    "time": 66.45267199999964,
                    "velocity": 0.41732283464566927,
                    "duration": 0.09439299999999662
                },
                {
                    "name": "C#4",
                    "midi": 61,
                    "time": 66.45267199999964,
                    "velocity": 0.49606299212598426,
                    "duration": 0.09439299999999662
                },
                {
                    "name": "C#3",
                    "midi": 49,
                    "time": 66.64145799999963,
                    "velocity": 0.41732283464566927,
                    "duration": 0.09439299999999662
                },
                {
                    "name": "C#4",
                    "midi": 61,
                    "time": 66.64145799999963,
                    "velocity": 0.49606299212598426,
                    "duration": 0.09439299999999662
                },
                {
                    "name": "C#3",
                    "midi": 49,
                    "time": 66.83024399999962,
                    "velocity": 0.5196850393700787,
                    "duration": 0.5608517416666672
                },
                {
                    "name": "C#4",
                    "midi": 61,
                    "time": 66.83024399999962,
                    "velocity": 0.6220472440944882,
                    "duration": 0.5608517416666672
                },
                {
                    "name": "C#3",
                    "midi": 49,
                    "time": 67.39660199999962,
                    "velocity": 0.49606299212598426,
                    "duration": 0.5608517416666672
                },
                {
                    "name": "C#4",
                    "midi": 61,
                    "time": 67.39660199999962,
                    "velocity": 0.5905511811023622,
                    "duration": 0.5608517416666672
                },
                {
                    "name": "C#3",
                    "midi": 49,
                    "time": 67.96295999999961,
                    "velocity": 0.5196850393700787,
                    "duration": 0.5608517416666672
                },
                {
                    "name": "C#4",
                    "midi": 61,
                    "time": 67.96295999999961,
                    "velocity": 0.6220472440944882,
                    "duration": 0.5608517416666672
                },
                {
                    "name": "F#4",
                    "midi": 66,
                    "time": 68.71810399999961,
                    "velocity": 0.5196850393700787,
                    "duration": 0.09439299999999662
                },
                {
                    "name": "F#4",
                    "midi": 66,
                    "time": 68.9068899999996,
                    "velocity": 0.5196850393700787,
                    "duration": 0.09439299999999662
                },
                {
                    "name": "F#4",
                    "midi": 66,
                    "time": 69.0956759999996,
                    "velocity": 0.5511811023622047,
                    "duration": 0.09439299999999662
                },
                {
                    "name": "E4",
                    "midi": 64,
                    "time": 69.28446199999959,
                    "velocity": 0.5196850393700787,
                    "duration": 0.09439299999999662
                },
                {
                    "name": "D#4",
                    "midi": 63,
                    "time": 69.47324799999959,
                    "velocity": 0.5196850393700787,
                    "duration": 0.09439299999999662
                },
                {
                    "name": "E4",
                    "midi": 64,
                    "time": 69.66203399999958,
                    "velocity": 0.5511811023622047,
                    "duration": 0.09439299999999662
                },
                {
                    "name": "D#4",
                    "midi": 63,
                    "time": 69.85081999999957,
                    "velocity": 0.5196850393700787,
                    "duration": 0.09439299999999662
                },
                {
                    "name": "C#4",
                    "midi": 61,
                    "time": 70.03960599999957,
                    "velocity": 0.5118110236220472,
                    "duration": 0.09439299999999662
                },
                {
                    "name": "D#4",
                    "midi": 63,
                    "time": 70.22839199999956,
                    "velocity": 0.5511811023622047,
                    "duration": 0.09439299999999662
                },
                {
                    "name": "C4",
                    "midi": 60,
                    "time": 70.41717799999955,
                    "velocity": 0.5118110236220472,
                    "duration": 0.09439299999999662
                },
                {
                    "name": "G#3",
                    "midi": 56,
                    "time": 70.60596399999955,
                    "velocity": 0.5118110236220472,
                    "duration": 0.09439299999999662
                },
                {
                    "name": "C#4",
                    "midi": 61,
                    "time": 70.79474999999954,
                    "velocity": 0.5511811023622047,
                    "duration": 0.14158949999999493
                },
                {
                    "name": "F#3",
                    "midi": 54,
                    "time": 70.98353599999953,
                    "velocity": 0.5039370078740157,
                    "duration": 0.09439299999999662
                },
                {
                    "name": "F#2",
                    "midi": 42,
                    "time": 70.98353599999953,
                    "velocity": 0.5039370078740157,
                    "duration": 0.09439299999999662
                },
                {
                    "name": "F#3",
                    "midi": 54,
                    "time": 71.17232199999953,
                    "velocity": 0.5039370078740157,
                    "duration": 0.09439299999999662
                },
                {
                    "name": "F#2",
                    "midi": 42,
                    "time": 71.17232199999953,
                    "velocity": 0.5039370078740157,
                    "duration": 0.09439299999999662
                },
                {
                    "name": "F#2",
                    "midi": 42,
                    "time": 71.36110799999952,
                    "velocity": 0.5511811023622047,
                    "duration": 0.14158949999999493
                },
                {
                    "name": "F#3",
                    "midi": 54,
                    "time": 71.36110799999952,
                    "velocity": 0.5511811023622047,
                    "duration": 0.14158949999999493
                },
                {
                    "name": "E3",
                    "midi": 52,
                    "time": 71.54989399999951,
                    "velocity": 0.5196850393700787,
                    "duration": 0.14158949999999493
                },
                {
                    "name": "E2",
                    "midi": 40,
                    "time": 71.54989399999951,
                    "velocity": 0.5196850393700787,
                    "duration": 0.14158949999999493
                },
                {
                    "name": "D#3",
                    "midi": 51,
                    "time": 71.7386799999995,
                    "velocity": 0.5196850393700787,
                    "duration": 0.14158949999999493
                },
                {
                    "name": "D#2",
                    "midi": 39,
                    "time": 71.7386799999995,
                    "velocity": 0.5196850393700787,
                    "duration": 0.14158949999999493
                },
                {
                    "name": "E2",
                    "midi": 40,
                    "time": 71.9274659999995,
                    "velocity": 0.5511811023622047,
                    "duration": 0.14158949999999493
                },
                {
                    "name": "E3",
                    "midi": 52,
                    "time": 71.9274659999995,
                    "velocity": 0.5511811023622047,
                    "duration": 0.14158949999999493
                },
                {
                    "name": "D#3",
                    "midi": 51,
                    "time": 72.11625199999949,
                    "velocity": 0.5118110236220472,
                    "duration": 0.14158949999999493
                },
                {
                    "name": "D#2",
                    "midi": 39,
                    "time": 72.11625199999949,
                    "velocity": 0.5118110236220472,
                    "duration": 0.14158949999999493
                },
                {
                    "name": "C#3",
                    "midi": 49,
                    "time": 72.30503799999948,
                    "velocity": 0.5118110236220472,
                    "duration": 0.14158949999999493
                },
                {
                    "name": "C#2",
                    "midi": 37,
                    "time": 72.30503799999948,
                    "velocity": 0.5118110236220472,
                    "duration": 0.14158949999999493
                },
                {
                    "name": "D#2",
                    "midi": 39,
                    "time": 72.49382399999948,
                    "velocity": 0.5511811023622047,
                    "duration": 0.14158949999999493
                },
                {
                    "name": "D#3",
                    "midi": 51,
                    "time": 72.49382399999948,
                    "velocity": 0.5511811023622047,
                    "duration": 0.14158949999999493
                },
                {
                    "name": "C3",
                    "midi": 48,
                    "time": 72.68260999999947,
                    "velocity": 0.5196850393700787,
                    "duration": 0.14158949999999493
                },
                {
                    "name": "C2",
                    "midi": 36,
                    "time": 72.68260999999947,
                    "velocity": 0.5196850393700787,
                    "duration": 0.14158949999999493
                },
                {
                    "name": "G#2",
                    "midi": 44,
                    "time": 72.87139599999946,
                    "velocity": 0.5196850393700787,
                    "duration": 0.14158949999999493
                },
                {
                    "name": "G#1",
                    "midi": 32,
                    "time": 72.87139599999946,
                    "velocity": 0.5196850393700787,
                    "duration": 0.14158949999999493
                },
                {
                    "name": "C#2",
                    "midi": 37,
                    "time": 73.06018199999946,
                    "velocity": 0.4566929133858268,
                    "duration": 0.18878599999999324
                },
                {
                    "name": "C#3",
                    "midi": 49,
                    "time": 73.06018199999946,
                    "velocity": 0.5984251968503937,
                    "duration": 0.18878599999999324
                },
                {
                    "name": "D#3",
                    "midi": 51,
                    "time": 73.24896799999945,
                    "velocity": 0.5354330708661418,
                    "duration": 0.09439299999999662
                },
                {
                    "name": "D#2",
                    "midi": 39,
                    "time": 73.24896799999945,
                    "velocity": 0.44881889763779526,
                    "duration": 0.09439299999999662
                },
                {
                    "name": "E3",
                    "midi": 52,
                    "time": 73.43775399999944,
                    "velocity": 0.5354330708661418,
                    "duration": 0.09439299999999662
                },
                {
                    "name": "E2",
                    "midi": 40,
                    "time": 73.43775399999944,
                    "velocity": 0.44881889763779526,
                    "duration": 0.09439299999999662
                },
                {
                    "name": "F#2",
                    "midi": 42,
                    "time": 73.62653999999944,
                    "velocity": 0.48031496062992124,
                    "duration": 0.09439299999999662
                },
                {
                    "name": "F#3",
                    "midi": 54,
                    "time": 73.62653999999944,
                    "velocity": 0.5669291338582677,
                    "duration": 0.09439299999999662
                },
                {
                    "name": "F#3",
                    "midi": 54,
                    "time": 73.81532599999943,
                    "velocity": 0.44881889763779526,
                    "duration": 0.09439299999999662
                },
                {
                    "name": "C#4",
                    "midi": 61,
                    "time": 73.81532599999943,
                    "velocity": 0.5354330708661418,
                    "duration": 0.09439299999999662
                },
                {
                    "name": "A3",
                    "midi": 57,
                    "time": 73.81532599999943,
                    "velocity": 0.44881889763779526,
                    "duration": 0.09439299999999662
                },
                {
                    "name": "F#3",
                    "midi": 54,
                    "time": 74.00411199999942,
                    "velocity": 0.44881889763779526,
                    "duration": 0.09439299999999662
                },
                {
                    "name": "C#4",
                    "midi": 61,
                    "time": 74.00411199999942,
                    "velocity": 0.5354330708661418,
                    "duration": 0.09439299999999662
                },
                {
                    "name": "A3",
                    "midi": 57,
                    "time": 74.00411199999942,
                    "velocity": 0.44881889763779526,
                    "duration": 0.09439299999999662
                },
                {
                    "name": "F#3",
                    "midi": 54,
                    "time": 74.19289799999942,
                    "velocity": 0.48031496062992124,
                    "duration": 0.09439299999999662
                },
                {
                    "name": "A3",
                    "midi": 57,
                    "time": 74.19289799999942,
                    "velocity": 0.48031496062992124,
                    "duration": 0.09439299999999662
                },
                {
                    "name": "C4",
                    "midi": 60,
                    "time": 74.19289799999942,
                    "velocity": 0.5669291338582677,
                    "duration": 0.09439299999999662
                },
                {
                    "name": "F#3",
                    "midi": 54,
                    "time": 74.38168399999941,
                    "velocity": 0.44881889763779526,
                    "duration": 0.09439299999999662
                },
                {
                    "name": "C4",
                    "midi": 60,
                    "time": 74.38168399999941,
                    "velocity": 0.5354330708661418,
                    "duration": 0.09439299999999662
                },
                {
                    "name": "A3",
                    "midi": 57,
                    "time": 74.38168399999941,
                    "velocity": 0.44881889763779526,
                    "duration": 0.09439299999999662
                },
                {
                    "name": "F#3",
                    "midi": 54,
                    "time": 74.5704699999994,
                    "velocity": 0.44881889763779526,
                    "duration": 0.09439299999999662
                },
                {
                    "name": "C4",
                    "midi": 60,
                    "time": 74.5704699999994,
                    "velocity": 0.5354330708661418,
                    "duration": 0.09439299999999662
                },
                {
                    "name": "A3",
                    "midi": 57,
                    "time": 74.5704699999994,
                    "velocity": 0.44881889763779526,
                    "duration": 0.09439299999999662
                },
                {
                    "name": "E3",
                    "midi": 52,
                    "time": 74.7592559999994,
                    "velocity": 0.48031496062992124,
                    "duration": 0.09439299999999662
                },
                {
                    "name": "C#4",
                    "midi": 61,
                    "time": 74.7592559999994,
                    "velocity": 0.5669291338582677,
                    "duration": 0.09439299999999662
                },
                {
                    "name": "C#4",
                    "midi": 61,
                    "time": 74.94804199999939,
                    "velocity": 0.5196850393700787,
                    "duration": 0.09439299999999662
                },
                {
                    "name": "F#3",
                    "midi": 54,
                    "time": 74.94804199999939,
                    "velocity": 0.4330708661417323,
                    "duration": 0.09439299999999662
                },
                {
                    "name": "C#4",
                    "midi": 61,
                    "time": 75.13682799999938,
                    "velocity": 0.5039370078740157,
                    "duration": 0.09439299999999662
                },
                {
                    "name": "G#3",
                    "midi": 56,
                    "time": 75.13682799999938,
                    "velocity": 0.4251968503937008,
                    "duration": 0.09439299999999662
                },
                {
                    "name": "F#3",
                    "midi": 54,
                    "time": 75.32561399999938,
                    "velocity": 0.4409448818897638,
                    "duration": 0.09439299999999662
                },
                {
                    "name": "C#4",
                    "midi": 61,
                    "time": 75.32561399999938,
                    "velocity": 0.5196850393700787,
                    "duration": 0.09439299999999662
                },
                {
                    "name": "C#4",
                    "midi": 61,
                    "time": 75.51439999999937,
                    "velocity": 0.48031496062992124,
                    "duration": 0.09439299999999662
                },
                {
                    "name": "G#3",
                    "midi": 56,
                    "time": 75.51439999999937,
                    "velocity": 0.4015748031496063,
                    "duration": 0.09439299999999662
                },
                {
                    "name": "C#4",
                    "midi": 61,
                    "time": 75.70318599999936,
                    "velocity": 0.4645669291338583,
                    "duration": 0.09439299999999662
                },
                {
                    "name": "A3",
                    "midi": 57,
                    "time": 75.70318599999936,
                    "velocity": 0.3937007874015748,
                    "duration": 0.09439299999999662
                },
                {
                    "name": "G#3",
                    "midi": 56,
                    "time": 75.89197199999936,
                    "velocity": 0.4566929133858268,
                    "duration": 0.5639981749999805
                },
                {
                    "name": "E4",
                    "midi": 64,
                    "time": 75.89197199999936,
                    "velocity": 0.48031496062992124,
                    "duration": 0.18878599999999324
                },
                {
                    "name": "D#4",
                    "midi": 63,
                    "time": 76.08075799999935,
                    "velocity": 0.44881889763779526,
                    "duration": 0.18878599999999324
                },
                {
                    "name": "C#4",
                    "midi": 61,
                    "time": 76.26954399999934,
                    "velocity": 0.44881889763779526,
                    "duration": 0.18878599999999324
                },
                {
                    "name": "G#3",
                    "midi": 56,
                    "time": 76.45832999999934,
                    "velocity": 0.4566929133858268,
                    "duration": 0.36970591666666053
                },
                {
                    "name": "D#4",
                    "midi": 63,
                    "time": 76.45832999999934,
                    "velocity": 0.48031496062992124,
                    "duration": 0.18878599999999324
                },
                {
                    "name": "C4",
                    "midi": 60,
                    "time": 76.64711599999933,
                    "velocity": 0.44881889763779526,
                    "duration": 0.18878600000000745
                },
                {
                    "name": "G#3",
                    "midi": 56,
                    "time": 76.83590199999934,
                    "velocity": 0.44881889763779526,
                    "duration": 0.18878599999999324
                },
                {
                    "name": "C#3",
                    "midi": 49,
                    "time": 77.02468799999933,
                    "velocity": 0.47244094488188976,
                    "duration": 0.3775720000000007
                },
                {
                    "name": "C#4",
                    "midi": 61,
                    "time": 77.02468799999933,
                    "velocity": 0.5590551181102362,
                    "duration": 0.3775720000000007
                },
                {
                    "name": "C#3",
                    "midi": 49,
                    "time": 77.77983199999933,
                    "velocity": 0.5118110236220472,
                    "duration": 0.09439299999999662
                },
                {
                    "name": "C#2",
                    "midi": 37,
                    "time": 77.77983199999933,
                    "velocity": 0.4330708661417323,
                    "duration": 0.09439299999999662
                },
                {
                    "name": "C#2",
                    "midi": 37,
                    "time": 77.96861799999932,
                    "velocity": 0.4094488188976378,
                    "duration": 0.09439299999999662
                },
                {
                    "name": "C#3",
                    "midi": 49,
                    "time": 77.96861799999932,
                    "velocity": 0.4881889763779528,
                    "duration": 0.09439299999999662
                },
                {
                    "name": "C#3",
                    "midi": 49,
                    "time": 78.15740399999932,
                    "velocity": 0.47244094488188976,
                    "duration": 0.3775720000000007
                },
                {
                    "name": "C#4",
                    "midi": 61,
                    "time": 78.15740399999932,
                    "velocity": 0.5590551181102362,
                    "duration": 0.3775720000000007
                },
                {
                    "name": "C#3",
                    "midi": 49,
                    "time": 78.91254799999932,
                    "velocity": 0.5118110236220472,
                    "duration": 0.09439299999999662
                },
                {
                    "name": "C#2",
                    "midi": 37,
                    "time": 78.91254799999932,
                    "velocity": 0.4330708661417323,
                    "duration": 0.09439299999999662
                },
                {
                    "name": "C#2",
                    "midi": 37,
                    "time": 79.10133399999931,
                    "velocity": 0.4094488188976378,
                    "duration": 0.09439299999999662
                },
                {
                    "name": "C#3",
                    "midi": 49,
                    "time": 79.10133399999931,
                    "velocity": 0.4881889763779528,
                    "duration": 0.09439299999999662
                },
                {
                    "name": "C#4",
                    "midi": 61,
                    "time": 79.2901199999993,
                    "velocity": 0.6220472440944882,
                    "duration": 0.3775720000000007
                },
                {
                    "name": "C#3",
                    "midi": 49,
                    "time": 79.2901199999993,
                    "velocity": 0.5275590551181102,
                    "duration": 0.3775720000000007
                },
                {
                    "name": "C#4",
                    "midi": 61,
                    "time": 79.6676919999993,
                    "velocity": 0.5354330708661418,
                    "duration": 0.14158949999999493
                },
                {
                    "name": "C#3",
                    "midi": 49,
                    "time": 79.6676919999993,
                    "velocity": 0.44881889763779526,
                    "duration": 0.14158949999999493
                },
                {
                    "name": "C#3",
                    "midi": 49,
                    "time": 79.8564779999993,
                    "velocity": 0.47244094488188976,
                    "duration": 0.14158949999999493
                },
                {
                    "name": "C#4",
                    "midi": 61,
                    "time": 79.8564779999993,
                    "velocity": 0.5590551181102362,
                    "duration": 0.14158949999999493
                },
                {
                    "name": "C#4",
                    "midi": 61,
                    "time": 80.04526399999929,
                    "velocity": 0.5511811023622047,
                    "duration": 0.14158949999999493
                },
                {
                    "name": "C#3",
                    "midi": 49,
                    "time": 80.04526399999929,
                    "velocity": 0.4645669291338583,
                    "duration": 0.14158949999999493
                },
                {
                    "name": "C#4",
                    "midi": 61,
                    "time": 80.23404999999929,
                    "velocity": 0.5511811023622047,
                    "duration": 0.14158949999999493
                },
                {
                    "name": "C#3",
                    "midi": 49,
                    "time": 80.23404999999929,
                    "velocity": 0.4645669291338583,
                    "duration": 0.14158949999999493
                },
                {
                    "name": "C#4",
                    "midi": 61,
                    "time": 80.42283599999928,
                    "velocity": 0.6220472440944882,
                    "duration": 0.3775720000000007
                },
                {
                    "name": "C#3",
                    "midi": 49,
                    "time": 80.42283599999928,
                    "velocity": 0.5275590551181102,
                    "duration": 0.3775720000000007
                },
                {
                    "name": "C#4",
                    "midi": 61,
                    "time": 80.80040799999928,
                    "velocity": 0.5354330708661418,
                    "duration": 0.14158949999999493
                },
                {
                    "name": "C#3",
                    "midi": 49,
                    "time": 80.80040799999928,
                    "velocity": 0.44881889763779526,
                    "duration": 0.14158949999999493
                },
                {
                    "name": "C#3",
                    "midi": 49,
                    "time": 80.98919399999927,
                    "velocity": 0.47244094488188976,
                    "duration": 0.14158949999999493
                },
                {
                    "name": "C#4",
                    "midi": 61,
                    "time": 80.98919399999927,
                    "velocity": 0.5590551181102362,
                    "duration": 0.14158949999999493
                },
                {
                    "name": "C#4",
                    "midi": 61,
                    "time": 81.17797999999927,
                    "velocity": 0.5511811023622047,
                    "duration": 0.14158949999999493
                },
                {
                    "name": "C#3",
                    "midi": 49,
                    "time": 81.17797999999927,
                    "velocity": 0.4645669291338583,
                    "duration": 0.14158949999999493
                },
                {
                    "name": "C#4",
                    "midi": 61,
                    "time": 81.36676599999926,
                    "velocity": 0.5511811023622047,
                    "duration": 0.14158949999999493
                },
                {
                    "name": "C#3",
                    "midi": 49,
                    "time": 81.36676599999926,
                    "velocity": 0.4645669291338583,
                    "duration": 0.14158949999999493
                },
                {
                    "name": "C#4",
                    "midi": 61,
                    "time": 81.55555199999925,
                    "velocity": 0.5275590551181102,
                    "duration": 0.3775720000000007
                },
                {
                    "name": "G#3",
                    "midi": 56,
                    "time": 81.55555199999925,
                    "velocity": 0.5275590551181102,
                    "duration": 0.3775720000000007
                },
                {
                    "name": "E4",
                    "midi": 64,
                    "time": 81.55555199999925,
                    "velocity": 0.6220472440944882,
                    "duration": 0.3775720000000007
                },
                {
                    "name": "E3",
                    "midi": 52,
                    "time": 81.55555199999925,
                    "velocity": 0.5275590551181102,
                    "duration": 0.3775720000000007
                },
                {
                    "name": "E4",
                    "midi": 64,
                    "time": 81.93312399999925,
                    "velocity": 0.5354330708661418,
                    "duration": 0.14158949999999493
                },
                {
                    "name": "E3",
                    "midi": 52,
                    "time": 81.93312399999925,
                    "velocity": 0.44881889763779526,
                    "duration": 0.14158949999999493
                },
                {
                    "name": "E3",
                    "midi": 52,
                    "time": 82.12190999999925,
                    "velocity": 0.47244094488188976,
                    "duration": 0.14158949999999493
                },
                {
                    "name": "E4",
                    "midi": 64,
                    "time": 82.12190999999925,
                    "velocity": 0.5590551181102362,
                    "duration": 0.14158949999999493
                },
                {
                    "name": "E4",
                    "midi": 64,
                    "time": 82.31069599999924,
                    "velocity": 0.5511811023622047,
                    "duration": 0.14158949999999493
                },
                {
                    "name": "E3",
                    "midi": 52,
                    "time": 82.31069599999924,
                    "velocity": 0.4645669291338583,
                    "duration": 0.14158949999999493
                },
                {
                    "name": "E4",
                    "midi": 64,
                    "time": 82.49948199999923,
                    "velocity": 0.5511811023622047,
                    "duration": 0.14158949999999493
                },
                {
                    "name": "E3",
                    "midi": 52,
                    "time": 82.49948199999923,
                    "velocity": 0.4645669291338583,
                    "duration": 0.14158949999999493
                },
                {
                    "name": "E4",
                    "midi": 64,
                    "time": 82.68826799999923,
                    "velocity": 0.6220472440944882,
                    "duration": 0.3775720000000007
                },
                {
                    "name": "E3",
                    "midi": 52,
                    "time": 82.68826799999923,
                    "velocity": 0.5275590551181102,
                    "duration": 0.3775720000000007
                },
                {
                    "name": "A1",
                    "midi": 33,
                    "time": 83.25462599999922,
                    "velocity": 0.47244094488188976,
                    "duration": 0.14158949999999493
                },
                {
                    "name": "A2",
                    "midi": 45,
                    "time": 83.25462599999922,
                    "velocity": 0.5590551181102362,
                    "duration": 0.14158949999999493
                },
                {
                    "name": "C#3",
                    "midi": 49,
                    "time": 83.53780499999921,
                    "velocity": 0.48031496062992124,
                    "duration": 0.07079475000000457
                },
                {
                    "name": "A3",
                    "midi": 57,
                    "time": 83.53780499999921,
                    "velocity": 0.5748031496062992,
                    "duration": 0.07079475000000457
                },
                {
                    "name": "A3",
                    "midi": 57,
                    "time": 83.63219799999922,
                    "velocity": 0.5748031496062992,
                    "duration": 0.14158949999999493
                },
                {
                    "name": "C#3",
                    "midi": 49,
                    "time": 83.63219799999922,
                    "velocity": 0.48031496062992124,
                    "duration": 0.14158949999999493
                },
                {
                    "name": "C#3",
                    "midi": 49,
                    "time": 83.82098399999921,
                    "velocity": 0.49606299212598426,
                    "duration": 0.18878599999999324
                },
                {
                    "name": "A3",
                    "midi": 57,
                    "time": 83.82098399999921,
                    "velocity": 0.5748031496062992,
                    "duration": 0.18878599999999324
                },
                {
                    "name": "B3",
                    "midi": 59,
                    "time": 84.00976999999921,
                    "velocity": 0.5433070866141733,
                    "duration": 0.18878599999999324
                },
                {
                    "name": "E3",
                    "midi": 52,
                    "time": 84.00976999999921,
                    "velocity": 0.44881889763779526,
                    "duration": 0.18878599999999324
                },
                {
                    "name": "A3",
                    "midi": 57,
                    "time": 84.1985559999992,
                    "velocity": 0.44881889763779526,
                    "duration": 0.09439299999999662
                },
                {
                    "name": "C#4",
                    "midi": 61,
                    "time": 84.1985559999992,
                    "velocity": 0.5433070866141733,
                    "duration": 0.09439299999999662
                },
                {
                    "name": "A3",
                    "midi": 57,
                    "time": 84.3873419999992,
                    "velocity": 0.5039370078740157,
                    "duration": 0.3775720000000007
                },
                {
                    "name": "C#4",
                    "midi": 61,
                    "time": 84.3873419999992,
                    "velocity": 0.5905511811023622,
                    "duration": 0.3775720000000007
                },
                {
                    "name": "A3",
                    "midi": 57,
                    "time": 84.7649139999992,
                    "velocity": 0.49606299212598426,
                    "duration": 0.14158949999999493
                },
                {
                    "name": "C#4",
                    "midi": 61,
                    "time": 84.7649139999992,
                    "velocity": 0.5748031496062992,
                    "duration": 0.14158949999999493
                },
                {
                    "name": "A3",
                    "midi": 57,
                    "time": 84.95369999999919,
                    "velocity": 0.5196850393700787,
                    "duration": 0.18878599999999324
                },
                {
                    "name": "C#4",
                    "midi": 61,
                    "time": 84.95369999999919,
                    "velocity": 0.6141732283464567,
                    "duration": 0.18878599999999324
                },
                {
                    "name": "D4",
                    "midi": 62,
                    "time": 85.14248599999918,
                    "velocity": 0.5748031496062992,
                    "duration": 0.18878599999999324
                },
                {
                    "name": "B3",
                    "midi": 59,
                    "time": 85.14248599999918,
                    "velocity": 0.49606299212598426,
                    "duration": 0.18878599999999324
                },
                {
                    "name": "C#4",
                    "midi": 61,
                    "time": 85.33127199999917,
                    "velocity": 0.49606299212598426,
                    "duration": 0.09439299999999662
                },
                {
                    "name": "E4",
                    "midi": 64,
                    "time": 85.33127199999917,
                    "velocity": 0.5748031496062992,
                    "duration": 0.09439299999999662
                },
                {
                    "name": "E4",
                    "midi": 64,
                    "time": 85.52005799999917,
                    "velocity": 0.6456692913385826,
                    "duration": 0.28317900000000407
                },
                {
                    "name": "C#4",
                    "midi": 61,
                    "time": 85.52005799999917,
                    "velocity": 0.5511811023622047,
                    "duration": 0.28317900000000407
                },
                {
                    "name": "D4",
                    "midi": 62,
                    "time": 85.80323699999917,
                    "velocity": 0.4330708661417323,
                    "duration": 0.0849536999999998
                },
                {
                    "name": "F#4",
                    "midi": 66,
                    "time": 85.80323699999917,
                    "velocity": 0.5118110236220472,
                    "duration": 0.0849536999999998
                },
                {
                    "name": "F#4",
                    "midi": 66,
                    "time": 85.89762999999917,
                    "velocity": 0.5196850393700787,
                    "duration": 0.14158949999999493
                },
                {
                    "name": "D4",
                    "midi": 62,
                    "time": 85.89762999999917,
                    "velocity": 0.4330708661417323,
                    "duration": 0.14158949999999493
                },
                {
                    "name": "A3",
                    "midi": 57,
                    "time": 86.08641599999916,
                    "velocity": 0.4645669291338583,
                    "duration": 0.28317900000000407
                },
                {
                    "name": "A4",
                    "midi": 69,
                    "time": 86.08641599999916,
                    "velocity": 0.5590551181102362,
                    "duration": 0.28317900000000407
                },
                {
                    "name": "F#4",
                    "midi": 66,
                    "time": 86.08641599999916,
                    "velocity": 0.4645669291338583,
                    "duration": 0.28317900000000407
                },
                {
                    "name": "A4",
                    "midi": 69,
                    "time": 86.36959499999917,
                    "velocity": 0.4645669291338583,
                    "duration": 0.0849536999999998
                },
                {
                    "name": "F#4",
                    "midi": 66,
                    "time": 86.36959499999917,
                    "velocity": 0.4015748031496063,
                    "duration": 0.0849536999999998
                },
                {
                    "name": "A4",
                    "midi": 69,
                    "time": 86.46398799999916,
                    "velocity": 0.4645669291338583,
                    "duration": 0.14158949999999493
                },
                {
                    "name": "F#4",
                    "midi": 66,
                    "time": 86.46398799999916,
                    "velocity": 0.4015748031496063,
                    "duration": 0.14158949999999493
                },
                {
                    "name": "A4",
                    "midi": 69,
                    "time": 86.65277399999916,
                    "velocity": 0.5275590551181102,
                    "duration": 0.18878599999999324
                },
                {
                    "name": "F#4",
                    "midi": 66,
                    "time": 86.65277399999916,
                    "velocity": 0.3700787401574803,
                    "duration": 0.18878599999999324
                },
                {
                    "name": "G#4",
                    "midi": 68,
                    "time": 86.84155999999915,
                    "velocity": 0.49606299212598426,
                    "duration": 0.18878599999999324
                },
                {
                    "name": "E4",
                    "midi": 64,
                    "time": 86.84155999999915,
                    "velocity": 0.41732283464566927,
                    "duration": 0.18878599999999324
                },
                {
                    "name": "D4",
                    "midi": 62,
                    "time": 87.03034599999914,
                    "velocity": 0.33070866141732286,
                    "duration": 0.09439299999999662
                },
                {
                    "name": "F#4",
                    "midi": 66,
                    "time": 87.03034599999914,
                    "velocity": 0.3937007874015748,
                    "duration": 0.09439299999999662
                },
                {
                    "name": "A3",
                    "midi": 57,
                    "time": 87.21913199999914,
                    "velocity": 0.36220472440944884,
                    "duration": 0.5663579999999939
                },
                {
                    "name": "D4",
                    "midi": 62,
                    "time": 87.21913199999914,
                    "velocity": 0.36220472440944884,
                    "duration": 0.5663579999999939
                },
                {
                    "name": "F#4",
                    "midi": 66,
                    "time": 87.21913199999914,
                    "velocity": 0.4330708661417323,
                    "duration": 0.5663579999999939
                },
                {
                    "name": "C#4",
                    "midi": 61,
                    "time": 87.78548999999913,
                    "velocity": 0.3543307086614173,
                    "duration": 0.18878599999999324
                },
                {
                    "name": "E4",
                    "midi": 64,
                    "time": 87.78548999999913,
                    "velocity": 0.4251968503937008,
                    "duration": 0.18878599999999324
                },
                {
                    "name": "C#3",
                    "midi": 49,
                    "time": 88.06866899999912,
                    "velocity": 0.3937007874015748,
                    "duration": 0.0849536999999998
                },
                {
                    "name": "A3",
                    "midi": 57,
                    "time": 88.06866899999912,
                    "velocity": 0.4645669291338583,
                    "duration": 0.0849536999999998
                },
                {
                    "name": "A3",
                    "midi": 57,
                    "time": 88.16306199999912,
                    "velocity": 0.4251968503937008,
                    "duration": 0.14158949999999493
                },
                {
                    "name": "C#3",
                    "midi": 49,
                    "time": 88.16306199999912,
                    "velocity": 0.3543307086614173,
                    "duration": 0.14158949999999493
                },
                {
                    "name": "C#3",
                    "midi": 49,
                    "time": 88.35184799999911,
                    "velocity": 0.3937007874015748,
                    "duration": 0.18878599999999324
                },
                {
                    "name": "A3",
                    "midi": 57,
                    "time": 88.35184799999911,
                    "velocity": 0.4645669291338583,
                    "duration": 0.18878599999999324
                },
                {
                    "name": "B3",
                    "midi": 59,
                    "time": 88.5406339999991,
                    "velocity": 0.4330708661417323,
                    "duration": 0.18878599999999324
                },
                {
                    "name": "E3",
                    "midi": 52,
                    "time": 88.5406339999991,
                    "velocity": 0.36220472440944884,
                    "duration": 0.18878599999999324
                },
                {
                    "name": "A3",
                    "midi": 57,
                    "time": 88.7294199999991,
                    "velocity": 0.36220472440944884,
                    "duration": 0.09439299999999662
                },
                {
                    "name": "C#4",
                    "midi": 61,
                    "time": 88.7294199999991,
                    "velocity": 0.4330708661417323,
                    "duration": 0.09439299999999662
                },
                {
                    "name": "A3",
                    "midi": 57,
                    "time": 88.91820599999909,
                    "velocity": 0.4015748031496063,
                    "duration": 0.3775720000000007
                },
                {
                    "name": "C#4",
                    "midi": 61,
                    "time": 88.91820599999909,
                    "velocity": 0.47244094488188976,
                    "duration": 0.3775720000000007
                },
                {
                    "name": "A3",
                    "midi": 57,
                    "time": 89.29577799999909,
                    "velocity": 0.3937007874015748,
                    "duration": 0.14158949999999493
                },
                {
                    "name": "C#4",
                    "midi": 61,
                    "time": 89.29577799999909,
                    "velocity": 0.4645669291338583,
                    "duration": 0.14158949999999493
                },
                {
                    "name": "A3",
                    "midi": 57,
                    "time": 89.48456399999908,
                    "velocity": 0.41732283464566927,
                    "duration": 0.18878599999999324
                },
                {
                    "name": "C#4",
                    "midi": 61,
                    "time": 89.48456399999908,
                    "velocity": 0.49606299212598426,
                    "duration": 0.18878599999999324
                },
                {
                    "name": "D4",
                    "midi": 62,
                    "time": 89.67334999999908,
                    "velocity": 0.4645669291338583,
                    "duration": 0.18878599999999324
                },
                {
                    "name": "B3",
                    "midi": 59,
                    "time": 89.67334999999908,
                    "velocity": 0.3937007874015748,
                    "duration": 0.18878599999999324
                },
                {
                    "name": "C#4",
                    "midi": 61,
                    "time": 89.86213599999907,
                    "velocity": 0.3937007874015748,
                    "duration": 0.09439299999999662
                },
                {
                    "name": "E4",
                    "midi": 64,
                    "time": 89.86213599999907,
                    "velocity": 0.4645669291338583,
                    "duration": 0.09439299999999662
                },
                {
                    "name": "E4",
                    "midi": 64,
                    "time": 90.05092199999906,
                    "velocity": 0.5196850393700787,
                    "duration": 0.18878599999999324
                },
                {
                    "name": "C#4",
                    "midi": 61,
                    "time": 90.05092199999906,
                    "velocity": 0.4409448818897638,
                    "duration": 0.18878599999999324
                },
                {
                    "name": "D2",
                    "midi": 38,
                    "time": 90.61727999999906,
                    "velocity": 0.3543307086614173,
                    "duration": 0.18878599999999324
                },
                {
                    "name": "D3",
                    "midi": 50,
                    "time": 90.61727999999906,
                    "velocity": 0.3543307086614173,
                    "duration": 0.18878599999999324
                },
                {
                    "name": "B3",
                    "midi": 59,
                    "time": 90.80606599999905,
                    "velocity": 0.2677165354330709,
                    "duration": 0.17934669999999642
                },
                {
                    "name": "A3",
                    "midi": 57,
                    "time": 90.80606599999905,
                    "velocity": 0.2125984251968504,
                    "duration": 0.17934669999999642
                },
                {
                    "name": "F#3",
                    "midi": 54,
                    "time": 90.80606599999905,
                    "velocity": 0.2125984251968504,
                    "duration": 0.17934669999999642
                },
                {
                    "name": "D3",
                    "midi": 50,
                    "time": 90.80606599999905,
                    "velocity": 0.2125984251968504,
                    "duration": 0.17934669999999642
                },
                {
                    "name": "B3",
                    "midi": 59,
                    "time": 90.99485199999904,
                    "velocity": 0.2677165354330709,
                    "duration": 0.17934669999999642
                },
                {
                    "name": "A3",
                    "midi": 57,
                    "time": 90.99485199999904,
                    "velocity": 0.2125984251968504,
                    "duration": 0.17934669999999642
                },
                {
                    "name": "F#3",
                    "midi": 54,
                    "time": 90.99485199999904,
                    "velocity": 0.2125984251968504,
                    "duration": 0.17934669999999642
                },
                {
                    "name": "D3",
                    "midi": 50,
                    "time": 90.99485199999904,
                    "velocity": 0.2125984251968504,
                    "duration": 0.17934669999999642
                },
                {
                    "name": "B3",
                    "midi": 59,
                    "time": 91.18363799999904,
                    "velocity": 0.31496062992125984,
                    "duration": 0.17934669999999642
                },
                {
                    "name": "A3",
                    "midi": 57,
                    "time": 91.18363799999904,
                    "velocity": 0.25196850393700787,
                    "duration": 0.17934669999999642
                },
                {
                    "name": "F#3",
                    "midi": 54,
                    "time": 91.18363799999904,
                    "velocity": 0.25196850393700787,
                    "duration": 0.17934669999999642
                },
                {
                    "name": "D3",
                    "midi": 50,
                    "time": 91.18363799999904,
                    "velocity": 0.25196850393700787,
                    "duration": 0.17934669999999642
                },
                {
                    "name": "B3",
                    "midi": 59,
                    "time": 91.37242399999903,
                    "velocity": 0.2677165354330709,
                    "duration": 0.17934669999999642
                },
                {
                    "name": "A3",
                    "midi": 57,
                    "time": 91.37242399999903,
                    "velocity": 0.2125984251968504,
                    "duration": 0.17934669999999642
                },
                {
                    "name": "F#3",
                    "midi": 54,
                    "time": 91.37242399999903,
                    "velocity": 0.2125984251968504,
                    "duration": 0.17934669999999642
                },
                {
                    "name": "D3",
                    "midi": 50,
                    "time": 91.37242399999903,
                    "velocity": 0.2125984251968504,
                    "duration": 0.17934669999999642
                },
                {
                    "name": "B3",
                    "midi": 59,
                    "time": 91.56120999999902,
                    "velocity": 0.2677165354330709,
                    "duration": 0.17934669999999642
                },
                {
                    "name": "A3",
                    "midi": 57,
                    "time": 91.56120999999902,
                    "velocity": 0.2125984251968504,
                    "duration": 0.17934669999999642
                },
                {
                    "name": "F#3",
                    "midi": 54,
                    "time": 91.56120999999902,
                    "velocity": 0.2125984251968504,
                    "duration": 0.17934669999999642
                },
                {
                    "name": "D3",
                    "midi": 50,
                    "time": 91.56120999999902,
                    "velocity": 0.2125984251968504,
                    "duration": 0.17934669999999642
                },
                {
                    "name": "B3",
                    "midi": 59,
                    "time": 91.74999599999902,
                    "velocity": 0.31496062992125984,
                    "duration": 1.132716000000002
                },
                {
                    "name": "A3",
                    "midi": 57,
                    "time": 91.74999599999902,
                    "velocity": 0.25196850393700787,
                    "duration": 1.132716000000002
                },
                {
                    "name": "F#3",
                    "midi": 54,
                    "time": 91.74999599999902,
                    "velocity": 0.25196850393700787,
                    "duration": 1.132716000000002
                },
                {
                    "name": "D3",
                    "midi": 50,
                    "time": 91.74999599999902,
                    "velocity": 0.25196850393700787,
                    "duration": 1.132716000000002
                },
                {
                    "name": "D2",
                    "midi": 38,
                    "time": 92.88271199999902,
                    "velocity": 0.3543307086614173,
                    "duration": 0.18878599999999324
                },
                {
                    "name": "D3",
                    "midi": 50,
                    "time": 92.88271199999902,
                    "velocity": 0.3543307086614173,
                    "duration": 0.18878599999999324
                },
                {
                    "name": "B3",
                    "midi": 59,
                    "time": 93.07149799999901,
                    "velocity": 0.2677165354330709,
                    "duration": 0.17934669999999642
                },
                {
                    "name": "A3",
                    "midi": 57,
                    "time": 93.07149799999901,
                    "velocity": 0.2125984251968504,
                    "duration": 0.17934669999999642
                },
                {
                    "name": "F#3",
                    "midi": 54,
                    "time": 93.07149799999901,
                    "velocity": 0.2125984251968504,
                    "duration": 0.17934669999999642
                },
                {
                    "name": "D3",
                    "midi": 50,
                    "time": 93.07149799999901,
                    "velocity": 0.2125984251968504,
                    "duration": 0.17934669999999642
                },
                {
                    "name": "B3",
                    "midi": 59,
                    "time": 93.260283999999,
                    "velocity": 0.2677165354330709,
                    "duration": 0.17934669999999642
                },
                {
                    "name": "A3",
                    "midi": 57,
                    "time": 93.260283999999,
                    "velocity": 0.2125984251968504,
                    "duration": 0.17934669999999642
                },
                {
                    "name": "F#3",
                    "midi": 54,
                    "time": 93.260283999999,
                    "velocity": 0.2125984251968504,
                    "duration": 0.17934669999999642
                },
                {
                    "name": "D3",
                    "midi": 50,
                    "time": 93.260283999999,
                    "velocity": 0.2125984251968504,
                    "duration": 0.17934669999999642
                },
                {
                    "name": "B3",
                    "midi": 59,
                    "time": 93.449069999999,
                    "velocity": 0.31496062992125984,
                    "duration": 0.17934669999999642
                },
                {
                    "name": "A3",
                    "midi": 57,
                    "time": 93.449069999999,
                    "velocity": 0.25196850393700787,
                    "duration": 0.17934669999999642
                },
                {
                    "name": "F#3",
                    "midi": 54,
                    "time": 93.449069999999,
                    "velocity": 0.25196850393700787,
                    "duration": 0.17934669999999642
                },
                {
                    "name": "D3",
                    "midi": 50,
                    "time": 93.449069999999,
                    "velocity": 0.25196850393700787,
                    "duration": 0.17934669999999642
                },
                {
                    "name": "B3",
                    "midi": 59,
                    "time": 93.63785599999899,
                    "velocity": 0.2677165354330709,
                    "duration": 0.17934669999999642
                },
                {
                    "name": "A3",
                    "midi": 57,
                    "time": 93.63785599999899,
                    "velocity": 0.2125984251968504,
                    "duration": 0.17934669999999642
                },
                {
                    "name": "F#3",
                    "midi": 54,
                    "time": 93.63785599999899,
                    "velocity": 0.2125984251968504,
                    "duration": 0.17934669999999642
                },
                {
                    "name": "D3",
                    "midi": 50,
                    "time": 93.63785599999899,
                    "velocity": 0.2125984251968504,
                    "duration": 0.17934669999999642
                },
                {
                    "name": "B3",
                    "midi": 59,
                    "time": 93.82664199999898,
                    "velocity": 0.2677165354330709,
                    "duration": 0.17934669999999642
                },
                {
                    "name": "A3",
                    "midi": 57,
                    "time": 93.82664199999898,
                    "velocity": 0.2125984251968504,
                    "duration": 0.17934669999999642
                },
                {
                    "name": "F#3",
                    "midi": 54,
                    "time": 93.82664199999898,
                    "velocity": 0.2125984251968504,
                    "duration": 0.17934669999999642
                },
                {
                    "name": "D3",
                    "midi": 50,
                    "time": 93.82664199999898,
                    "velocity": 0.2125984251968504,
                    "duration": 0.17934669999999642
                },
                {
                    "name": "B3",
                    "midi": 59,
                    "time": 94.01542799999898,
                    "velocity": 0.31496062992125984,
                    "duration": 1.132716000000002
                },
                {
                    "name": "A3",
                    "midi": 57,
                    "time": 94.01542799999898,
                    "velocity": 0.25196850393700787,
                    "duration": 1.132716000000002
                },
                {
                    "name": "F#3",
                    "midi": 54,
                    "time": 94.01542799999898,
                    "velocity": 0.25196850393700787,
                    "duration": 1.132716000000002
                },
                {
                    "name": "D3",
                    "midi": 50,
                    "time": 94.01542799999898,
                    "velocity": 0.25196850393700787,
                    "duration": 1.132716000000002
                },
                {
                    "name": "D#2",
                    "midi": 39,
                    "time": 95.14814399999898,
                    "velocity": 0.47244094488188976,
                    "duration": 0.35869340000000705
                },
                {
                    "name": "D#3",
                    "midi": 51,
                    "time": 95.14814399999898,
                    "velocity": 0.5590551181102362,
                    "duration": 0.35869340000000705
                },
                {
                    "name": "A3",
                    "midi": 57,
                    "time": 95.52571599999898,
                    "velocity": 0.36220472440944884,
                    "duration": 0.14158949999999493
                },
                {
                    "name": "B3",
                    "midi": 59,
                    "time": 95.52571599999898,
                    "velocity": 0.4330708661417323,
                    "duration": 0.14158949999999493
                },
                {
                    "name": "F#3",
                    "midi": 54,
                    "time": 95.52571599999898,
                    "velocity": 0.36220472440944884,
                    "duration": 0.14158949999999493
                },
                {
                    "name": "D#3",
                    "midi": 51,
                    "time": 95.52571599999898,
                    "velocity": 0.36220472440944884,
                    "duration": 0.14158949999999493
                },
                {
                    "name": "D#3",
                    "midi": 51,
                    "time": 95.71450199999897,
                    "velocity": 0.3543307086614173,
                    "duration": 0.35869340000000705
                },
                {
                    "name": "A3",
                    "midi": 57,
                    "time": 95.71450199999897,
                    "velocity": 0.3543307086614173,
                    "duration": 0.35869340000000705
                },
                {
                    "name": "F#3",
                    "midi": 54,
                    "time": 95.71450199999897,
                    "velocity": 0.3543307086614173,
                    "duration": 0.35869340000000705
                },
                {
                    "name": "B3",
                    "midi": 59,
                    "time": 95.71450199999897,
                    "velocity": 0.5039370078740157,
                    "duration": 0.35869340000000705
                },
                {
                    "name": "B3",
                    "midi": 59,
                    "time": 96.09207399999897,
                    "velocity": 0.4409448818897638,
                    "duration": 0.09439299999999662
                },
                {
                    "name": "A3",
                    "midi": 57,
                    "time": 96.09207399999897,
                    "velocity": 0.3700787401574803,
                    "duration": 0.09439299999999662
                },
                {
                    "name": "F#3",
                    "midi": 54,
                    "time": 96.09207399999897,
                    "velocity": 0.3700787401574803,
                    "duration": 0.09439299999999662
                },
                {
                    "name": "D#3",
                    "midi": 51,
                    "time": 96.09207399999897,
                    "velocity": 0.3700787401574803,
                    "duration": 0.09439299999999662
                },
                {
                    "name": "G#3",
                    "midi": 56,
                    "time": 96.28085999999897,
                    "velocity": 0.47244094488188976,
                    "duration": 0.3775720000000007
                },
                {
                    "name": "E3",
                    "midi": 52,
                    "time": 96.28085999999897,
                    "velocity": 0.47244094488188976,
                    "duration": 0.3775720000000007
                },
                {
                    "name": "D3",
                    "midi": 50,
                    "time": 96.28085999999897,
                    "velocity": 0.47244094488188976,
                    "duration": 0.35869340000000705
                },
                {
                    "name": "B3",
                    "midi": 59,
                    "time": 96.28085999999897,
                    "velocity": 0.5590551181102362,
                    "duration": 0.35869340000000705
                },
                {
                    "name": "G#3",
                    "midi": 56,
                    "time": 96.65843199999897,
                    "velocity": 0.36220472440944884,
                    "duration": 0.14158949999999493
                },
                {
                    "name": "B3",
                    "midi": 59,
                    "time": 96.65843199999897,
                    "velocity": 0.4330708661417323,
                    "duration": 0.14158949999999493
                },
                {
                    "name": "E3",
                    "midi": 52,
                    "time": 96.65843199999897,
                    "velocity": 0.36220472440944884,
                    "duration": 0.14158949999999493
                },
                {
                    "name": "D3",
                    "midi": 50,
                    "time": 96.65843199999897,
                    "velocity": 0.36220472440944884,
                    "duration": 0.14158949999999493
                },
                {
                    "name": "D3",
                    "midi": 50,
                    "time": 96.84721799999896,
                    "velocity": 0.3543307086614173,
                    "duration": 0.35869340000000705
                },
                {
                    "name": "G#3",
                    "midi": 56,
                    "time": 96.84721799999896,
                    "velocity": 0.3543307086614173,
                    "duration": 0.35869340000000705
                },
                {
                    "name": "E3",
                    "midi": 52,
                    "time": 96.84721799999896,
                    "velocity": 0.3543307086614173,
                    "duration": 0.35869340000000705
                },
                {
                    "name": "B3",
                    "midi": 59,
                    "time": 96.84721799999896,
                    "velocity": 0.5039370078740157,
                    "duration": 0.35869340000000705
                },
                {
                    "name": "B3",
                    "midi": 59,
                    "time": 97.22478999999896,
                    "velocity": 0.5511811023622047,
                    "duration": 0.09439299999999662
                },
                {
                    "name": "G#3",
                    "midi": 56,
                    "time": 97.22478999999896,
                    "velocity": 0.4566929133858268,
                    "duration": 0.09439299999999662
                },
                {
                    "name": "E3",
                    "midi": 52,
                    "time": 97.22478999999896,
                    "velocity": 0.4566929133858268,
                    "duration": 0.09439299999999662
                },
                {
                    "name": "D3",
                    "midi": 50,
                    "time": 97.22478999999896,
                    "velocity": 0.4566929133858268,
                    "duration": 0.09439299999999662
                },
                {
                    "name": "A3",
                    "midi": 57,
                    "time": 97.41357599999895,
                    "velocity": 0.44881889763779526,
                    "duration": 0.35869340000000705
                },
                {
                    "name": "E3",
                    "midi": 52,
                    "time": 97.41357599999895,
                    "velocity": 0.44881889763779526,
                    "duration": 0.35869340000000705
                },
                {
                    "name": "C#3",
                    "midi": 49,
                    "time": 97.41357599999895,
                    "velocity": 0.44881889763779526,
                    "duration": 0.35869340000000705
                },
                {
                    "name": "C#4",
                    "midi": 61,
                    "time": 97.41357599999895,
                    "velocity": 0.5354330708661418,
                    "duration": 0.35869340000000705
                },
                {
                    "name": "C#3",
                    "midi": 49,
                    "time": 97.79114799999896,
                    "velocity": 0.4015748031496063,
                    "duration": 0.09439299999999662
                },
                {
                    "name": "E3",
                    "midi": 52,
                    "time": 97.79114799999896,
                    "velocity": 0.4015748031496063,
                    "duration": 0.09439299999999662
                },
                {
                    "name": "A3",
                    "midi": 57,
                    "time": 97.79114799999896,
                    "velocity": 0.4015748031496063,
                    "duration": 0.09439299999999662
                },
                {
                    "name": "C#4",
                    "midi": 61,
                    "time": 97.79114799999896,
                    "velocity": 0.4881889763779528,
                    "duration": 0.09439299999999662
                },
                {
                    "name": "C#3",
                    "midi": 49,
                    "time": 97.97993399999895,
                    "velocity": 0.4015748031496063,
                    "duration": 0.3775720000000007
                },
                {
                    "name": "E3",
                    "midi": 52,
                    "time": 97.97993399999895,
                    "velocity": 0.4015748031496063,
                    "duration": 0.3775720000000007
                },
                {
                    "name": "A3",
                    "midi": 57,
                    "time": 97.97993399999895,
                    "velocity": 0.4015748031496063,
                    "duration": 0.3775720000000007
                },
                {
                    "name": "C#4",
                    "midi": 61,
                    "time": 97.97993399999895,
                    "velocity": 0.4881889763779528,
                    "duration": 0.3775720000000007
                },
                {
                    "name": "A2",
                    "midi": 45,
                    "time": 98.54629199999894,
                    "velocity": 0.36220472440944884,
                    "duration": 0.09439299999999662
                },
                {
                    "name": "D2",
                    "midi": 38,
                    "time": 98.54629199999894,
                    "velocity": 0.36220472440944884,
                    "duration": 0.09439299999999662
                },
                {
                    "name": "B2",
                    "midi": 47,
                    "time": 98.54629199999894,
                    "velocity": 0.4251968503937008,
                    "duration": 0.09439299999999662
                },
                {
                    "name": "D2",
                    "midi": 38,
                    "time": 98.73507799999894,
                    "velocity": 0.31496062992125984,
                    "duration": 0.09439299999999662
                },
                {
                    "name": "B2",
                    "midi": 47,
                    "time": 98.73507799999894,
                    "velocity": 0.3858267716535433,
                    "duration": 0.09439299999999662
                },
                {
                    "name": "A2",
                    "midi": 45,
                    "time": 98.73507799999894,
                    "velocity": 0.31496062992125984,
                    "duration": 0.09439299999999662
                },
                {
                    "name": "D2",
                    "midi": 38,
                    "time": 98.92386399999893,
                    "velocity": 0.30708661417322836,
                    "duration": 0.09439299999999662
                },
                {
                    "name": "A2",
                    "midi": 45,
                    "time": 98.92386399999893,
                    "velocity": 0.30708661417322836,
                    "duration": 0.09439299999999662
                },
                {
                    "name": "B2",
                    "midi": 47,
                    "time": 98.92386399999893,
                    "velocity": 0.3858267716535433,
                    "duration": 0.09439299999999662
                },
                {
                    "name": "A2",
                    "midi": 45,
                    "time": 99.11264999999892,
                    "velocity": 0.3543307086614173,
                    "duration": 0.09439299999999662
                },
                {
                    "name": "D2",
                    "midi": 38,
                    "time": 99.11264999999892,
                    "velocity": 0.3543307086614173,
                    "duration": 0.09439299999999662
                },
                {
                    "name": "B2",
                    "midi": 47,
                    "time": 99.11264999999892,
                    "velocity": 0.41732283464566927,
                    "duration": 0.09439299999999662
                },
                {
                    "name": "D2",
                    "midi": 38,
                    "time": 99.30143599999892,
                    "velocity": 0.30708661417322836,
                    "duration": 0.09439299999999662
                },
                {
                    "name": "B2",
                    "midi": 47,
                    "time": 99.30143599999892,
                    "velocity": 0.3779527559055118,
                    "duration": 0.09439299999999662
                },
                {
                    "name": "A2",
                    "midi": 45,
                    "time": 99.30143599999892,
                    "velocity": 0.30708661417322836,
                    "duration": 0.09439299999999662
                },
                {
                    "name": "D2",
                    "midi": 38,
                    "time": 99.49022199999891,
                    "velocity": 0.2992125984251969,
                    "duration": 0.09439299999999662
                },
                {
                    "name": "A2",
                    "midi": 45,
                    "time": 99.49022199999891,
                    "velocity": 0.2992125984251969,
                    "duration": 0.09439299999999662
                },
                {
                    "name": "B2",
                    "midi": 47,
                    "time": 99.49022199999891,
                    "velocity": 0.3700787401574803,
                    "duration": 0.09439299999999662
                },
                {
                    "name": "A2",
                    "midi": 45,
                    "time": 99.6790079999989,
                    "velocity": 0.3464566929133858,
                    "duration": 0.09439299999999662
                },
                {
                    "name": "D2",
                    "midi": 38,
                    "time": 99.6790079999989,
                    "velocity": 0.3464566929133858,
                    "duration": 0.09439299999999662
                },
                {
                    "name": "B2",
                    "midi": 47,
                    "time": 99.6790079999989,
                    "velocity": 0.4015748031496063,
                    "duration": 0.09439299999999662
                },
                {
                    "name": "D2",
                    "midi": 38,
                    "time": 99.8677939999989,
                    "velocity": 0.28346456692913385,
                    "duration": 0.09439299999999662
                },
                {
                    "name": "B2",
                    "midi": 47,
                    "time": 99.8677939999989,
                    "velocity": 0.3543307086614173,
                    "duration": 0.09439299999999662
                },
                {
                    "name": "A2",
                    "midi": 45,
                    "time": 99.8677939999989,
                    "velocity": 0.28346456692913385,
                    "duration": 0.09439299999999662
                },
                {
                    "name": "D2",
                    "midi": 38,
                    "time": 100.05657999999889,
                    "velocity": 0.2755905511811024,
                    "duration": 0.09439299999999662
                },
                {
                    "name": "A2",
                    "midi": 45,
                    "time": 100.05657999999889,
                    "velocity": 0.2755905511811024,
                    "duration": 0.09439299999999662
                },
                {
                    "name": "B2",
                    "midi": 47,
                    "time": 100.05657999999889,
                    "velocity": 0.3464566929133858,
                    "duration": 0.09439299999999662
                },
                {
                    "name": "A2",
                    "midi": 45,
                    "time": 100.24536599999888,
                    "velocity": 0.3228346456692913,
                    "duration": 0.09439299999999662
                },
                {
                    "name": "D2",
                    "midi": 38,
                    "time": 100.24536599999888,
                    "velocity": 0.3228346456692913,
                    "duration": 0.09439299999999662
                },
                {
                    "name": "B2",
                    "midi": 47,
                    "time": 100.24536599999888,
                    "velocity": 0.3700787401574803,
                    "duration": 0.09439299999999662
                },
                {
                    "name": "D2",
                    "midi": 38,
                    "time": 100.43415199999887,
                    "velocity": 0.2677165354330709,
                    "duration": 0.09439299999999662
                },
                {
                    "name": "B2",
                    "midi": 47,
                    "time": 100.43415199999887,
                    "velocity": 0.33070866141732286,
                    "duration": 0.09439299999999662
                },
                {
                    "name": "A2",
                    "midi": 45,
                    "time": 100.43415199999887,
                    "velocity": 0.2677165354330709,
                    "duration": 0.09439299999999662
                },
                {
                    "name": "D2",
                    "midi": 38,
                    "time": 100.62293799999887,
                    "velocity": 0.25984251968503935,
                    "duration": 0.09439299999999662
                },
                {
                    "name": "A2",
                    "midi": 45,
                    "time": 100.62293799999887,
                    "velocity": 0.25984251968503935,
                    "duration": 0.09439299999999662
                },
                {
                    "name": "B2",
                    "midi": 47,
                    "time": 100.62293799999887,
                    "velocity": 0.3228346456692913,
                    "duration": 0.09439299999999662
                },
                {
                    "name": "A2",
                    "midi": 45,
                    "time": 100.81172399999886,
                    "velocity": 0.29133858267716534,
                    "duration": 0.09439299999999662
                },
                {
                    "name": "E2",
                    "midi": 40,
                    "time": 100.81172399999886,
                    "velocity": 0.29133858267716534,
                    "duration": 0.09439299999999662
                },
                {
                    "name": "C#3",
                    "midi": 49,
                    "time": 100.81172399999886,
                    "velocity": 0.3464566929133858,
                    "duration": 0.09439299999999662
                },
                {
                    "name": "A2",
                    "midi": 45,
                    "time": 101.00050999999885,
                    "velocity": 0.2440944881889764,
                    "duration": 0.09439299999999662
                },
                {
                    "name": "E2",
                    "midi": 40,
                    "time": 101.00050999999885,
                    "velocity": 0.2440944881889764,
                    "duration": 0.09439299999999662
                },
                {
                    "name": "C#3",
                    "midi": 49,
                    "time": 101.00050999999885,
                    "velocity": 0.2992125984251969,
                    "duration": 0.09439299999999662
                },
                {
                    "name": "A2",
                    "midi": 45,
                    "time": 101.18929599999885,
                    "velocity": 0.23622047244094488,
                    "duration": 0.09439299999999662
                },
                {
                    "name": "E2",
                    "midi": 40,
                    "time": 101.18929599999885,
                    "velocity": 0.23622047244094488,
                    "duration": 0.09439299999999662
                },
                {
                    "name": "C#3",
                    "midi": 49,
                    "time": 101.18929599999885,
                    "velocity": 0.2992125984251969,
                    "duration": 0.09439299999999662
                },
                {
                    "name": "E2",
                    "midi": 40,
                    "time": 101.37808199999884,
                    "velocity": 0.2677165354330709,
                    "duration": 0.09439299999999662
                },
                {
                    "name": "B2",
                    "midi": 47,
                    "time": 101.37808199999884,
                    "velocity": 0.31496062992125984,
                    "duration": 0.09439299999999662
                },
                {
                    "name": "E2",
                    "midi": 40,
                    "time": 101.56686799999883,
                    "velocity": 0.2283464566929134,
                    "duration": 0.09439299999999662
                },
                {
                    "name": "B2",
                    "midi": 47,
                    "time": 101.56686799999883,
                    "velocity": 0.2755905511811024,
                    "duration": 0.09439299999999662
                },
                {
                    "name": "D2",
                    "midi": 38,
                    "time": 101.75565399999883,
                    "velocity": 0.2204724409448819,
                    "duration": 0.09439299999999662
                },
                {
                    "name": "E2",
                    "midi": 40,
                    "time": 101.75565399999883,
                    "velocity": 0.2755905511811024,
                    "duration": 0.09439299999999662
                },
                {
                    "name": "C#2",
                    "midi": 37,
                    "time": 101.94443999999882,
                    "velocity": 0.2204724409448819,
                    "duration": 0.3775720000000007
                },
                {
                    "name": "E2",
                    "midi": 40,
                    "time": 101.94443999999882,
                    "velocity": 0.2204724409448819,
                    "duration": 0.3775720000000007
                },
                {
                    "name": "A2",
                    "midi": 45,
                    "time": 101.94443999999882,
                    "velocity": 0.2204724409448819,
                    "duration": 0.3775720000000007
                },
                {
                    "name": "A2",
                    "midi": 45,
                    "time": 102.69958399999882,
                    "velocity": 0.2440944881889764,
                    "duration": 0.09439299999999662
                },
                {
                    "name": "A1",
                    "midi": 33,
                    "time": 102.69958399999882,
                    "velocity": 0.2047244094488189,
                    "duration": 0.09439299999999662
                },
                {
                    "name": "A2",
                    "midi": 45,
                    "time": 102.88836999999882,
                    "velocity": 0.2125984251968504,
                    "duration": 0.09439299999999662
                },
                {
                    "name": "A1",
                    "midi": 33,
                    "time": 102.88836999999882,
                    "velocity": 0.1732283464566929,
                    "duration": 0.09439299999999662
                },
                {
                    "name": "A2",
                    "midi": 45,
                    "time": 103.07715599999881,
                    "velocity": 0.2677165354330709,
                    "duration": 0.3775720000000007
                },
                {
                    "name": "D2",
                    "midi": 38,
                    "time": 103.07715599999881,
                    "velocity": 0.2204724409448819,
                    "duration": 0.3775720000000007
                },
                {
                    "name": "A2",
                    "midi": 45,
                    "time": 103.83229999999881,
                    "velocity": 0.2677165354330709,
                    "duration": 0.09439299999999662
                },
                {
                    "name": "A1",
                    "midi": 33,
                    "time": 103.83229999999881,
                    "velocity": 0.2204724409448819,
                    "duration": 0.09439299999999662
                },
                {
                    "name": "A2",
                    "midi": 45,
                    "time": 104.0210859999988,
                    "velocity": 0.25196850393700787,
                    "duration": 0.09439299999999662
                },
                {
                    "name": "A1",
                    "midi": 33,
                    "time": 104.0210859999988,
                    "velocity": 0.2125984251968504,
                    "duration": 0.09439299999999662
                },
                {
                    "name": "A2",
                    "midi": 45,
                    "time": 104.2098719999988,
                    "velocity": 0.3543307086614173,
                    "duration": 0.3775720000000007
                },
                {
                    "name": "D2",
                    "midi": 38,
                    "time": 104.2098719999988,
                    "velocity": 0.2992125984251969,
                    "duration": 0.3775720000000007
                },
                {
                    "name": "G#3",
                    "midi": 56,
                    "time": 104.9650159999988,
                    "velocity": 0.3543307086614173,
                    "duration": 0.09439299999999662
                },
                {
                    "name": "C#3",
                    "midi": 49,
                    "time": 104.9650159999988,
                    "velocity": 0.2992125984251969,
                    "duration": 0.09439299999999662
                },
                {
                    "name": "C#3",
                    "midi": 49,
                    "time": 105.15380199999879,
                    "velocity": 0.30708661417322836,
                    "duration": 0.09439299999999662
                },
                {
                    "name": "G#3",
                    "midi": 56,
                    "time": 105.15380199999879,
                    "velocity": 0.3700787401574803,
                    "duration": 0.09439299999999662
                },
                {
                    "name": "F#3",
                    "midi": 54,
                    "time": 105.34258799999878,
                    "velocity": 0.3858267716535433,
                    "duration": 0.3775720000000007
                },
                {
                    "name": "A3",
                    "midi": 57,
                    "time": 105.34258799999878,
                    "velocity": 0.4645669291338583,
                    "duration": 0.3775720000000007
                },
                {
                    "name": "B3",
                    "midi": 59,
                    "time": 106.09773199999879,
                    "velocity": 0.3937007874015748,
                    "duration": 0.09439299999999662
                },
                {
                    "name": "E3",
                    "midi": 52,
                    "time": 106.09773199999879,
                    "velocity": 0.33070866141732286,
                    "duration": 0.09439299999999662
                },
                {
                    "name": "E3",
                    "midi": 52,
                    "time": 106.28651799999878,
                    "velocity": 0.3464566929133858,
                    "duration": 0.09439299999999662
                },
                {
                    "name": "B3",
                    "midi": 59,
                    "time": 106.28651799999878,
                    "velocity": 0.4094488188976378,
                    "duration": 0.09439299999999662
                },
                {
                    "name": "A3",
                    "midi": 57,
                    "time": 106.47530399999877,
                    "velocity": 0.4330708661417323,
                    "duration": 0.3775720000000007
                },
                {
                    "name": "C#4",
                    "midi": 61,
                    "time": 106.47530399999877,
                    "velocity": 0.5196850393700787,
                    "duration": 0.3775720000000007
                },
                {
                    "name": "C#3",
                    "midi": 49,
                    "time": 107.23044799999877,
                    "velocity": 0.3543307086614173,
                    "duration": 0.09439299999999662
                },
                {
                    "name": "A3",
                    "midi": 57,
                    "time": 107.23044799999877,
                    "velocity": 0.4094488188976378,
                    "duration": 0.09439299999999662
                },
                {
                    "name": "E3",
                    "midi": 52,
                    "time": 107.23044799999877,
                    "velocity": 0.3543307086614173,
                    "duration": 0.09439299999999662
                },
                {
                    "name": "C#3",
                    "midi": 49,
                    "time": 107.41923399999877,
                    "velocity": 0.36220472440944884,
                    "duration": 0.09439299999999662
                },
                {
                    "name": "E3",
                    "midi": 52,
                    "time": 107.41923399999877,
                    "velocity": 0.36220472440944884,
                    "duration": 0.09439299999999662
                },
                {
                    "name": "A3",
                    "midi": 57,
                    "time": 107.41923399999877,
                    "velocity": 0.4330708661417323,
                    "duration": 0.09439299999999662
                },
                {
                    "name": "C#3",
                    "midi": 49,
                    "time": 107.60801999999876,
                    "velocity": 0.4566929133858268,
                    "duration": 0.3775720000000007
                },
                {
                    "name": "E3",
                    "midi": 52,
                    "time": 107.60801999999876,
                    "velocity": 0.4566929133858268,
                    "duration": 0.3775720000000007
                },
                {
                    "name": "A#3",
                    "midi": 58,
                    "time": 107.60801999999876,
                    "velocity": 0.5511811023622047,
                    "duration": 0.3775720000000007
                },
                {
                    "name": "C#3",
                    "midi": 49,
                    "time": 108.36316399999876,
                    "velocity": 0.3700787401574803,
                    "duration": 0.09439299999999662
                },
                {
                    "name": "A#3",
                    "midi": 58,
                    "time": 108.36316399999876,
                    "velocity": 0.4409448818897638,
                    "duration": 0.09439299999999662
                },
                {
                    "name": "E3",
                    "midi": 52,
                    "time": 108.36316399999876,
                    "velocity": 0.3700787401574803,
                    "duration": 0.09439299999999662
                },
                {
                    "name": "C#3",
                    "midi": 49,
                    "time": 108.55194999999875,
                    "velocity": 0.3858267716535433,
                    "duration": 0.09439299999999662
                },
                {
                    "name": "E3",
                    "midi": 52,
                    "time": 108.55194999999875,
                    "velocity": 0.3858267716535433,
                    "duration": 0.09439299999999662
                },
                {
                    "name": "A#3",
                    "midi": 58,
                    "time": 108.55194999999875,
                    "velocity": 0.4566929133858268,
                    "duration": 0.09439299999999662
                },
                {
                    "name": "D3",
                    "midi": 50,
                    "time": 108.74073599999875,
                    "velocity": 0.47244094488188976,
                    "duration": 0.3775720000000007
                },
                {
                    "name": "F#3",
                    "midi": 54,
                    "time": 108.74073599999875,
                    "velocity": 0.47244094488188976,
                    "duration": 0.3775720000000007
                },
                {
                    "name": "B3",
                    "midi": 59,
                    "time": 108.74073599999875,
                    "velocity": 0.5748031496062992,
                    "duration": 0.3775720000000007
                },
                {
                    "name": "A3",
                    "midi": 57,
                    "time": 109.49587999999875,
                    "velocity": 0.3937007874015748,
                    "duration": 0.09439299999999662
                },
                {
                    "name": "D3",
                    "midi": 50,
                    "time": 109.49587999999875,
                    "velocity": 0.3937007874015748,
                    "duration": 0.09439299999999662
                },
                {
                    "name": "B3",
                    "midi": 59,
                    "time": 109.49587999999875,
                    "velocity": 0.4566929133858268,
                    "duration": 0.09439299999999662
                },
                {
                    "name": "F#3",
                    "midi": 54,
                    "time": 109.49587999999875,
                    "velocity": 0.3937007874015748,
                    "duration": 0.09439299999999662
                },
                {
                    "name": "A3",
                    "midi": 57,
                    "time": 109.68466599999874,
                    "velocity": 0.4015748031496063,
                    "duration": 0.09439299999999662
                },
                {
                    "name": "D3",
                    "midi": 50,
                    "time": 109.68466599999874,
                    "velocity": 0.4015748031496063,
                    "duration": 0.09439299999999662
                },
                {
                    "name": "F#3",
                    "midi": 54,
                    "time": 109.68466599999874,
                    "velocity": 0.4015748031496063,
                    "duration": 0.09439299999999662
                },
                {
                    "name": "B3",
                    "midi": 59,
                    "time": 109.68466599999874,
                    "velocity": 0.48031496062992124,
                    "duration": 0.09439299999999662
                },
                {
                    "name": "A3",
                    "midi": 57,
                    "time": 109.87345199999874,
                    "velocity": 0.5039370078740157,
                    "duration": 0.3775720000000007
                },
                {
                    "name": "D#3",
                    "midi": 51,
                    "time": 109.87345199999874,
                    "velocity": 0.5039370078740157,
                    "duration": 0.3775720000000007
                },
                {
                    "name": "F#3",
                    "midi": 54,
                    "time": 109.87345199999874,
                    "velocity": 0.5039370078740157,
                    "duration": 0.3775720000000007
                },
                {
                    "name": "C4",
                    "midi": 60,
                    "time": 109.87345199999874,
                    "velocity": 0.6062992125984252,
                    "duration": 0.3775720000000007
                },
                {
                    "name": "A3",
                    "midi": 57,
                    "time": 110.62859599999874,
                    "velocity": 0.4094488188976378,
                    "duration": 0.09439299999999662
                },
                {
                    "name": "D#3",
                    "midi": 51,
                    "time": 110.62859599999874,
                    "velocity": 0.4094488188976378,
                    "duration": 0.09439299999999662
                },
                {
                    "name": "C4",
                    "midi": 60,
                    "time": 110.62859599999874,
                    "velocity": 0.4881889763779528,
                    "duration": 0.09439299999999662
                },
                {
                    "name": "F#3",
                    "midi": 54,
                    "time": 110.62859599999874,
                    "velocity": 0.4094488188976378,
                    "duration": 0.09439299999999662
                },
                {
                    "name": "A3",
                    "midi": 57,
                    "time": 110.81738199999873,
                    "velocity": 0.4251968503937008,
                    "duration": 0.09439299999999662
                },
                {
                    "name": "D#3",
                    "midi": 51,
                    "time": 110.81738199999873,
                    "velocity": 0.4251968503937008,
                    "duration": 0.09439299999999662
                },
                {
                    "name": "F#3",
                    "midi": 54,
                    "time": 110.81738199999873,
                    "velocity": 0.4251968503937008,
                    "duration": 0.09439299999999662
                },
                {
                    "name": "C4",
                    "midi": 60,
                    "time": 110.81738199999873,
                    "velocity": 0.5039370078740157,
                    "duration": 0.09439299999999662
                },
                {
                    "name": "A3",
                    "midi": 57,
                    "time": 111.00616799999872,
                    "velocity": 0.5275590551181102,
                    "duration": 0.3775720000000007
                },
                {
                    "name": "E3",
                    "midi": 52,
                    "time": 111.00616799999872,
                    "velocity": 0.5275590551181102,
                    "duration": 0.3775720000000007
                },
                {
                    "name": "C#4",
                    "midi": 61,
                    "time": 111.00616799999872,
                    "velocity": 0.6377952755905512,
                    "duration": 0.3775720000000007
                },
                {
                    "name": "C#3",
                    "midi": 49,
                    "time": 111.85570499999872,
                    "velocity": 0.48031496062992124,
                    "duration": 0.07079475000000457
                },
                {
                    "name": "A3",
                    "midi": 57,
                    "time": 111.85570499999872,
                    "velocity": 0.5748031496062992,
                    "duration": 0.07079475000000457
                },
                {
                    "name": "A3",
                    "midi": 57,
                    "time": 111.95009799999873,
                    "velocity": 0.5748031496062992,
                    "duration": 0.14158949999999493
                },
                {
                    "name": "C#3",
                    "midi": 49,
                    "time": 111.95009799999873,
                    "velocity": 0.48031496062992124,
                    "duration": 0.14158949999999493
                },
                {
                    "name": "C#3",
                    "midi": 49,
                    "time": 112.13888399999873,
                    "velocity": 0.49606299212598426,
                    "duration": 0.18878599999999324
                },
                {
                    "name": "A3",
                    "midi": 57,
                    "time": 112.13888399999873,
                    "velocity": 0.5748031496062992,
                    "duration": 0.18878599999999324
                },
                {
                    "name": "B3",
                    "midi": 59,
                    "time": 112.32766999999872,
                    "velocity": 0.5433070866141733,
                    "duration": 0.18878599999999324
                },
                {
                    "name": "E3",
                    "midi": 52,
                    "time": 112.32766999999872,
                    "velocity": 0.44881889763779526,
                    "duration": 0.18878599999999324
                },
                {
                    "name": "A3",
                    "midi": 57,
                    "time": 112.51645599999871,
                    "velocity": 0.44881889763779526,
                    "duration": 0.09439299999999662
                },
                {
                    "name": "C#4",
                    "midi": 61,
                    "time": 112.51645599999871,
                    "velocity": 0.5433070866141733,
                    "duration": 0.09439299999999662
                },
                {
                    "name": "A3",
                    "midi": 57,
                    "time": 112.7052419999987,
                    "velocity": 0.5039370078740157,
                    "duration": 0.3775720000000007
                },
                {
                    "name": "C#4",
                    "midi": 61,
                    "time": 112.7052419999987,
                    "velocity": 0.5905511811023622,
                    "duration": 0.3775720000000007
                },
                {
                    "name": "A3",
                    "midi": 57,
                    "time": 113.0828139999987,
                    "velocity": 0.49606299212598426,
                    "duration": 0.14158949999999493
                },
                {
                    "name": "C#4",
                    "midi": 61,
                    "time": 113.0828139999987,
                    "velocity": 0.5748031496062992,
                    "duration": 0.14158949999999493
                },
                {
                    "name": "A3",
                    "midi": 57,
                    "time": 113.2715999999987,
                    "velocity": 0.5196850393700787,
                    "duration": 0.18878599999999324
                },
                {
                    "name": "C#4",
                    "midi": 61,
                    "time": 113.2715999999987,
                    "velocity": 0.6141732283464567,
                    "duration": 0.18878599999999324
                },
                {
                    "name": "D4",
                    "midi": 62,
                    "time": 113.46038599999869,
                    "velocity": 0.5748031496062992,
                    "duration": 0.18878599999999324
                },
                {
                    "name": "B3",
                    "midi": 59,
                    "time": 113.46038599999869,
                    "velocity": 0.49606299212598426,
                    "duration": 0.18878599999999324
                },
                {
                    "name": "C#4",
                    "midi": 61,
                    "time": 113.64917199999869,
                    "velocity": 0.49606299212598426,
                    "duration": 0.09439299999999662
                },
                {
                    "name": "E4",
                    "midi": 64,
                    "time": 113.64917199999869,
                    "velocity": 0.5748031496062992,
                    "duration": 0.09439299999999662
                },
                {
                    "name": "C#4",
                    "midi": 61,
                    "time": 113.83795799999868,
                    "velocity": 0.5196850393700787,
                    "duration": 0.18878599999999324
                },
                {
                    "name": "E4",
                    "midi": 64,
                    "time": 113.83795799999868,
                    "velocity": 0.6141732283464567,
                    "duration": 0.18878599999999324
                },
                {
                    "name": "D4",
                    "midi": 62,
                    "time": 114.02674399999867,
                    "velocity": 0.5748031496062992,
                    "duration": 0.18878599999999324
                },
                {
                    "name": "B3",
                    "midi": 59,
                    "time": 114.02674399999867,
                    "velocity": 0.49606299212598426,
                    "duration": 0.18878599999999324
                },
                {
                    "name": "A3",
                    "midi": 57,
                    "time": 114.21552999999867,
                    "velocity": 0.49606299212598426,
                    "duration": 0.09439299999999662
                },
                {
                    "name": "C#4",
                    "midi": 61,
                    "time": 114.21552999999867,
                    "velocity": 0.5748031496062992,
                    "duration": 0.09439299999999662
                },
                {
                    "name": "E3",
                    "midi": 52,
                    "time": 114.40431599999866,
                    "velocity": 0.5196850393700787,
                    "duration": 0.7551440000000014
                },
                {
                    "name": "G#3",
                    "midi": 56,
                    "time": 114.40431599999866,
                    "velocity": 0.5196850393700787,
                    "duration": 0.7551440000000014
                },
                {
                    "name": "B3",
                    "midi": 59,
                    "time": 114.40431599999866,
                    "velocity": 0.6141732283464567,
                    "duration": 0.7551440000000014
                },
                {
                    "name": "E3",
                    "midi": 52,
                    "time": 115.15945999999866,
                    "velocity": 0.49606299212598426,
                    "duration": 0.09439299999999662
                },
                {
                    "name": "B3",
                    "midi": 59,
                    "time": 115.15945999999866,
                    "velocity": 0.5748031496062992,
                    "duration": 0.09439299999999662
                },
                {
                    "name": "G#3",
                    "midi": 56,
                    "time": 115.15945999999866,
                    "velocity": 0.49606299212598426,
                    "duration": 0.09439299999999662
                },
                {
                    "name": "E3",
                    "midi": 52,
                    "time": 115.34824599999865,
                    "velocity": 0.49606299212598426,
                    "duration": 0.09439299999999662
                },
                {
                    "name": "G#3",
                    "midi": 56,
                    "time": 115.34824599999865,
                    "velocity": 0.49606299212598426,
                    "duration": 0.09439299999999662
                },
                {
                    "name": "B3",
                    "midi": 59,
                    "time": 115.34824599999865,
                    "velocity": 0.5748031496062992,
                    "duration": 0.09439299999999662
                },
                {
                    "name": "E3",
                    "midi": 52,
                    "time": 115.53703199999865,
                    "velocity": 0.5196850393700787,
                    "duration": 0.3775720000000007
                },
                {
                    "name": "G#3",
                    "midi": 56,
                    "time": 115.53703199999865,
                    "velocity": 0.5196850393700787,
                    "duration": 0.3775720000000007
                },
                {
                    "name": "B3",
                    "midi": 59,
                    "time": 115.53703199999865,
                    "velocity": 0.6141732283464567,
                    "duration": 0.3775720000000007
                },
                {
                    "name": "E1",
                    "midi": 28,
                    "time": 116.10338999999864,
                    "velocity": 0.5905511811023622,
                    "duration": 0.18878599999999324
                },
                {
                    "name": "E2",
                    "midi": 40,
                    "time": 116.10338999999864,
                    "velocity": 0.6141732283464567,
                    "duration": 0.18878599999999324
                },
                {
                    "name": "C#3",
                    "midi": 49,
                    "time": 116.38656899999863,
                    "velocity": 0.48031496062992124,
                    "duration": 0.07079475000000457
                },
                {
                    "name": "A3",
                    "midi": 57,
                    "time": 116.38656899999863,
                    "velocity": 0.5748031496062992,
                    "duration": 0.07079475000000457
                },
                {
                    "name": "A3",
                    "midi": 57,
                    "time": 116.48096199999864,
                    "velocity": 0.5748031496062992,
                    "duration": 0.14158949999999493
                },
                {
                    "name": "C#3",
                    "midi": 49,
                    "time": 116.48096199999864,
                    "velocity": 0.48031496062992124,
                    "duration": 0.14158949999999493
                },
                {
                    "name": "C#3",
                    "midi": 49,
                    "time": 116.66974799999863,
                    "velocity": 0.49606299212598426,
                    "duration": 0.18878599999999324
                },
                {
                    "name": "A3",
                    "midi": 57,
                    "time": 116.66974799999863,
                    "velocity": 0.5748031496062992,
                    "duration": 0.18878599999999324
                },
                {
                    "name": "B3",
                    "midi": 59,
                    "time": 116.85853399999863,
                    "velocity": 0.5433070866141733,
                    "duration": 0.18878599999999324
                },
                {
                    "name": "E3",
                    "midi": 52,
                    "time": 116.85853399999863,
                    "velocity": 0.44881889763779526,
                    "duration": 0.18878599999999324
                },
                {
                    "name": "A3",
                    "midi": 57,
                    "time": 117.04731999999862,
                    "velocity": 0.44881889763779526,
                    "duration": 0.09439299999999662
                },
                {
                    "name": "C#4",
                    "midi": 61,
                    "time": 117.04731999999862,
                    "velocity": 0.5433070866141733,
                    "duration": 0.09439299999999662
                },
                {
                    "name": "A3",
                    "midi": 57,
                    "time": 117.23610599999861,
                    "velocity": 0.5039370078740157,
                    "duration": 0.3775720000000007
                },
                {
                    "name": "C#4",
                    "midi": 61,
                    "time": 117.23610599999861,
                    "velocity": 0.5905511811023622,
                    "duration": 0.3775720000000007
                },
                {
                    "name": "A3",
                    "midi": 57,
                    "time": 117.61367799999861,
                    "velocity": 0.49606299212598426,
                    "duration": 0.14158949999999493
                },
                {
                    "name": "C#4",
                    "midi": 61,
                    "time": 117.61367799999861,
                    "velocity": 0.5748031496062992,
                    "duration": 0.14158949999999493
                },
                {
                    "name": "A3",
                    "midi": 57,
                    "time": 117.80246399999861,
                    "velocity": 0.5196850393700787,
                    "duration": 0.18878599999999324
                },
                {
                    "name": "C#4",
                    "midi": 61,
                    "time": 117.80246399999861,
                    "velocity": 0.6141732283464567,
                    "duration": 0.18878599999999324
                },
                {
                    "name": "D4",
                    "midi": 62,
                    "time": 117.9912499999986,
                    "velocity": 0.5748031496062992,
                    "duration": 0.18878599999999324
                },
                {
                    "name": "B3",
                    "midi": 59,
                    "time": 117.9912499999986,
                    "velocity": 0.49606299212598426,
                    "duration": 0.18878599999999324
                },
                {
                    "name": "C#4",
                    "midi": 61,
                    "time": 118.1800359999986,
                    "velocity": 0.49606299212598426,
                    "duration": 0.09439299999999662
                },
                {
                    "name": "E4",
                    "midi": 64,
                    "time": 118.1800359999986,
                    "velocity": 0.5748031496062992,
                    "duration": 0.09439299999999662
                },
                {
                    "name": "C#4",
                    "midi": 61,
                    "time": 118.36882199999859,
                    "velocity": 0.5196850393700787,
                    "duration": 0.18878599999999324
                },
                {
                    "name": "E4",
                    "midi": 64,
                    "time": 118.36882199999859,
                    "velocity": 0.6141732283464567,
                    "duration": 0.18878599999999324
                },
                {
                    "name": "D4",
                    "midi": 62,
                    "time": 118.55760799999858,
                    "velocity": 0.5748031496062992,
                    "duration": 0.18878599999999324
                },
                {
                    "name": "B3",
                    "midi": 59,
                    "time": 118.55760799999858,
                    "velocity": 0.49606299212598426,
                    "duration": 0.18878599999999324
                },
                {
                    "name": "A3",
                    "midi": 57,
                    "time": 118.74639399999857,
                    "velocity": 0.49606299212598426,
                    "duration": 0.09439299999999662
                },
                {
                    "name": "C#4",
                    "midi": 61,
                    "time": 118.74639399999857,
                    "velocity": 0.5748031496062992,
                    "duration": 0.09439299999999662
                },
                {
                    "name": "E3",
                    "midi": 52,
                    "time": 118.93517999999857,
                    "velocity": 0.5196850393700787,
                    "duration": 0.7551440000000014
                },
                {
                    "name": "G#3",
                    "midi": 56,
                    "time": 118.93517999999857,
                    "velocity": 0.5196850393700787,
                    "duration": 0.7551440000000014
                },
                {
                    "name": "B3",
                    "midi": 59,
                    "time": 118.93517999999857,
                    "velocity": 0.6141732283464567,
                    "duration": 0.7551440000000014
                },
                {
                    "name": "E3",
                    "midi": 52,
                    "time": 119.69032399999857,
                    "velocity": 0.49606299212598426,
                    "duration": 0.09439299999999662
                },
                {
                    "name": "B3",
                    "midi": 59,
                    "time": 119.69032399999857,
                    "velocity": 0.5748031496062992,
                    "duration": 0.09439299999999662
                },
                {
                    "name": "G#3",
                    "midi": 56,
                    "time": 119.69032399999857,
                    "velocity": 0.49606299212598426,
                    "duration": 0.09439299999999662
                },
                {
                    "name": "E3",
                    "midi": 52,
                    "time": 119.87910999999856,
                    "velocity": 0.49606299212598426,
                    "duration": 0.09439299999999662
                },
                {
                    "name": "G#3",
                    "midi": 56,
                    "time": 119.87910999999856,
                    "velocity": 0.49606299212598426,
                    "duration": 0.09439299999999662
                },
                {
                    "name": "B3",
                    "midi": 59,
                    "time": 119.87910999999856,
                    "velocity": 0.5748031496062992,
                    "duration": 0.09439299999999662
                },
                {
                    "name": "E3",
                    "midi": 52,
                    "time": 120.06789599999856,
                    "velocity": 0.5196850393700787,
                    "duration": 0.3775720000000007
                },
                {
                    "name": "G#3",
                    "midi": 56,
                    "time": 120.06789599999856,
                    "velocity": 0.5196850393700787,
                    "duration": 0.3775720000000007
                },
                {
                    "name": "B3",
                    "midi": 59,
                    "time": 120.06789599999856,
                    "velocity": 0.6141732283464567,
                    "duration": 0.3775720000000007
                },
                {
                    "name": "A1",
                    "midi": 33,
                    "time": 120.63425399999855,
                    "velocity": 0.5905511811023622,
                    "duration": 0.18878599999999324
                },
                {
                    "name": "A2",
                    "midi": 45,
                    "time": 120.63425399999855,
                    "velocity": 0.6141732283464567,
                    "duration": 0.18878599999999324
                },
                {
                    "name": "C#3",
                    "midi": 49,
                    "time": 120.91743299999854,
                    "velocity": 0.48031496062992124,
                    "duration": 0.07079475000000457
                },
                {
                    "name": "A3",
                    "midi": 57,
                    "time": 120.91743299999854,
                    "velocity": 0.5748031496062992,
                    "duration": 0.07079475000000457
                },
                {
                    "name": "A3",
                    "midi": 57,
                    "time": 121.01182599999855,
                    "velocity": 0.5748031496062992,
                    "duration": 0.14158949999999493
                },
                {
                    "name": "C#3",
                    "midi": 49,
                    "time": 121.01182599999855,
                    "velocity": 0.48031496062992124,
                    "duration": 0.14158949999999493
                },
                {
                    "name": "C#3",
                    "midi": 49,
                    "time": 121.20061199999854,
                    "velocity": 0.49606299212598426,
                    "duration": 0.18878599999999324
                },
                {
                    "name": "A3",
                    "midi": 57,
                    "time": 121.20061199999854,
                    "velocity": 0.5748031496062992,
                    "duration": 0.18878599999999324
                },
                {
                    "name": "B3",
                    "midi": 59,
                    "time": 121.38939799999854,
                    "velocity": 0.5433070866141733,
                    "duration": 0.18878599999999324
                },
                {
                    "name": "E3",
                    "midi": 52,
                    "time": 121.38939799999854,
                    "velocity": 0.44881889763779526,
                    "duration": 0.18878599999999324
                },
                {
                    "name": "A3",
                    "midi": 57,
                    "time": 121.57818399999853,
                    "velocity": 0.44881889763779526,
                    "duration": 0.09439299999999662
                },
                {
                    "name": "C#4",
                    "midi": 61,
                    "time": 121.57818399999853,
                    "velocity": 0.5433070866141733,
                    "duration": 0.09439299999999662
                },
                {
                    "name": "A3",
                    "midi": 57,
                    "time": 121.76696999999852,
                    "velocity": 0.5039370078740157,
                    "duration": 0.3775720000000007
                },
                {
                    "name": "C#4",
                    "midi": 61,
                    "time": 121.76696999999852,
                    "velocity": 0.5905511811023622,
                    "duration": 0.3775720000000007
                },
                {
                    "name": "A3",
                    "midi": 57,
                    "time": 122.14454199999852,
                    "velocity": 0.49606299212598426,
                    "duration": 0.14158949999999493
                },
                {
                    "name": "C#4",
                    "midi": 61,
                    "time": 122.14454199999852,
                    "velocity": 0.5748031496062992,
                    "duration": 0.14158949999999493
                },
                {
                    "name": "A3",
                    "midi": 57,
                    "time": 122.33332799999852,
                    "velocity": 0.5196850393700787,
                    "duration": 0.18878599999999324
                },
                {
                    "name": "C#4",
                    "midi": 61,
                    "time": 122.33332799999852,
                    "velocity": 0.6141732283464567,
                    "duration": 0.18878599999999324
                },
                {
                    "name": "D4",
                    "midi": 62,
                    "time": 122.52211399999851,
                    "velocity": 0.5748031496062992,
                    "duration": 0.18878599999999324
                },
                {
                    "name": "B3",
                    "midi": 59,
                    "time": 122.52211399999851,
                    "velocity": 0.49606299212598426,
                    "duration": 0.18878599999999324
                },
                {
                    "name": "C#4",
                    "midi": 61,
                    "time": 122.7108999999985,
                    "velocity": 0.49606299212598426,
                    "duration": 0.09439299999999662
                },
                {
                    "name": "E4",
                    "midi": 64,
                    "time": 122.7108999999985,
                    "velocity": 0.5748031496062992,
                    "duration": 0.09439299999999662
                },
                {
                    "name": "C#4",
                    "midi": 61,
                    "time": 122.8996859999985,
                    "velocity": 0.6141732283464567,
                    "duration": 0.28317900000000407
                },
                {
                    "name": "E4",
                    "midi": 64,
                    "time": 122.8996859999985,
                    "velocity": 0.6141732283464567,
                    "duration": 0.28317900000000407
                },
                {
                    "name": "D4",
                    "midi": 62,
                    "time": 123.1828649999985,
                    "velocity": 0.5354330708661418,
                    "duration": 0.09439299999999662
                },
                {
                    "name": "F#4",
                    "midi": 66,
                    "time": 123.1828649999985,
                    "velocity": 0.5354330708661418,
                    "duration": 0.09439299999999662
                },
                {
                    "name": "D4",
                    "midi": 62,
                    "time": 123.2772579999985,
                    "velocity": 0.5039370078740157,
                    "duration": 0.18878599999999324
                },
                {
                    "name": "F#4",
                    "midi": 66,
                    "time": 123.2772579999985,
                    "velocity": 0.5039370078740157,
                    "duration": 0.18878599999999324
                },
                {
                    "name": "A4",
                    "midi": 69,
                    "time": 123.46604399999849,
                    "velocity": 0.48031496062992124,
                    "duration": 1.132716000000002
                },
                {
                    "name": "F#4",
                    "midi": 66,
                    "time": 123.46604399999849,
                    "velocity": 0.4015748031496063,
                    "duration": 1.132716000000002
                },
                {
                    "name": "A3",
                    "midi": 57,
                    "time": 123.46604399999849,
                    "velocity": 0.4015748031496063,
                    "duration": 1.132716000000002
                },
                {
                    "name": "F#4",
                    "midi": 66,
                    "time": 124.59875999999849,
                    "velocity": 0.4409448818897638,
                    "duration": 0.3775720000000007
                },
                {
                    "name": "D4",
                    "midi": 62,
                    "time": 124.59875999999849,
                    "velocity": 0.3700787401574803,
                    "duration": 0.3775720000000007
                },
                {
                    "name": "A3",
                    "midi": 57,
                    "time": 124.59875999999849,
                    "velocity": 0.3700787401574803,
                    "duration": 0.3775720000000007
                },
                {
                    "name": "F#4",
                    "midi": 66,
                    "time": 125.3539039999985,
                    "velocity": 0.3858267716535433,
                    "duration": 0.17934669999999642
                },
                {
                    "name": "D4",
                    "midi": 62,
                    "time": 125.3539039999985,
                    "velocity": 0.3228346456692913,
                    "duration": 0.17934669999999642
                },
                {
                    "name": "F#4",
                    "midi": 66,
                    "time": 125.54268999999849,
                    "velocity": 0.3858267716535433,
                    "duration": 0.17934669999999642
                },
                {
                    "name": "D4",
                    "midi": 62,
                    "time": 125.54268999999849,
                    "velocity": 0.3228346456692913,
                    "duration": 0.17934669999999642
                },
                {
                    "name": "A3",
                    "midi": 57,
                    "time": 125.73147599999848,
                    "velocity": 0.4015748031496063,
                    "duration": 0.9439299999999946
                },
                {
                    "name": "F#4",
                    "midi": 66,
                    "time": 125.73147599999848,
                    "velocity": 0.4015748031496063,
                    "duration": 0.9439299999999946
                },
                {
                    "name": "A4",
                    "midi": 69,
                    "time": 125.73147599999848,
                    "velocity": 0.48031496062992124,
                    "duration": 0.9439299999999946
                },
                {
                    "name": "F#4",
                    "midi": 66,
                    "time": 126.67540599999847,
                    "velocity": 0.36220472440944884,
                    "duration": 0.18878599999999324
                },
                {
                    "name": "D4",
                    "midi": 62,
                    "time": 126.67540599999847,
                    "velocity": 0.30708661417322836,
                    "duration": 0.18878599999999324
                },
                {
                    "name": "A3",
                    "midi": 57,
                    "time": 126.86419199999847,
                    "velocity": 0.3543307086614173,
                    "duration": 0.5663579999999939
                },
                {
                    "name": "F#4",
                    "midi": 66,
                    "time": 126.86419199999847,
                    "velocity": 0.3543307086614173,
                    "duration": 0.7551439999999872
                },
                {
                    "name": "A4",
                    "midi": 69,
                    "time": 126.86419199999847,
                    "velocity": 0.4251968503937008,
                    "duration": 0.7551439999999872
                },
                {
                    "name": "E4",
                    "midi": 64,
                    "time": 127.61933599999846,
                    "velocity": 0.30708661417322836,
                    "duration": 0.18878599999999324
                },
                {
                    "name": "G#4",
                    "midi": 68,
                    "time": 127.61933599999846,
                    "velocity": 0.33070866141732286,
                    "duration": 0.18878599999999324
                },
                {
                    "name": "F#4",
                    "midi": 66,
                    "time": 127.80812199999845,
                    "velocity": 0.3228346456692913,
                    "duration": 0.18878599999999324
                },
                {
                    "name": "D4",
                    "midi": 62,
                    "time": 127.80812199999845,
                    "velocity": 0.2755905511811024,
                    "duration": 0.18878599999999324
                },
                {
                    "name": "A3",
                    "midi": 57,
                    "time": 127.99690799999844,
                    "velocity": 0.2440944881889764,
                    "duration": 0.3775720000000007
                },
                {
                    "name": "C#4",
                    "midi": 61,
                    "time": 127.99690799999844,
                    "velocity": 0.2440944881889764,
                    "duration": 0.3775720000000007
                },
                {
                    "name": "E4",
                    "midi": 64,
                    "time": 127.99690799999844,
                    "velocity": 0.29133858267716534,
                    "duration": 0.3775720000000007
                },
                {
                    "name": "G#4",
                    "midi": 68,
                    "time": 128.56326599999844,
                    "velocity": 0.2283464566929134,
                    "duration": 0.5663580000000081
                },
                {
                    "name": "D5",
                    "midi": 74,
                    "time": 128.56326599999844,
                    "velocity": 0.31496062992125984,
                    "duration": 0.5663580000000081
                },
                {
                    "name": "A4",
                    "midi": 69,
                    "time": 129.12962399999844,
                    "velocity": 0.2440944881889764,
                    "duration": 0.3775719999999865
                },
                {
                    "name": "C#5",
                    "midi": 73,
                    "time": 129.12962399999844,
                    "velocity": 0.29133858267716534,
                    "duration": 0.3775719999999865
                },
                {
                    "name": "G#4",
                    "midi": 68,
                    "time": 129.69598199999842,
                    "velocity": 0.2440944881889764,
                    "duration": 0.5663580000000081
                },
                {
                    "name": "D4",
                    "midi": 62,
                    "time": 129.69598199999842,
                    "velocity": 0.2440944881889764,
                    "duration": 0.5663580000000081
                },
                {
                    "name": "B4",
                    "midi": 71,
                    "time": 129.69598199999842,
                    "velocity": 0.3464566929133858,
                    "duration": 0.5663580000000081
                },
                {
                    "name": "C#4",
                    "midi": 61,
                    "time": 130.26233999999843,
                    "velocity": 0.2440944881889764,
                    "duration": 0.5663580000000081
                },
                {
                    "name": "E4",
                    "midi": 64,
                    "time": 130.26233999999843,
                    "velocity": 0.2440944881889764,
                    "duration": 0.5663580000000081
                },
                {
                    "name": "A4",
                    "midi": 69,
                    "time": 130.26233999999843,
                    "velocity": 0.29133858267716534,
                    "duration": 0.5663580000000081
                },
                {
                    "name": "G#3",
                    "midi": 56,
                    "time": 130.82869799999844,
                    "velocity": 0.23622047244094488,
                    "duration": 0.5663580000000081
                },
                {
                    "name": "D4",
                    "midi": 62,
                    "time": 130.82869799999844,
                    "velocity": 0.33070866141732286,
                    "duration": 0.5663580000000081
                },
                {
                    "name": "A3",
                    "midi": 57,
                    "time": 131.39505599999845,
                    "velocity": 0.23622047244094488,
                    "duration": 0.5663580000000081
                },
                {
                    "name": "C#4",
                    "midi": 61,
                    "time": 131.39505599999845,
                    "velocity": 0.2755905511811024,
                    "duration": 0.5663580000000081
                },
                {
                    "name": "E3",
                    "midi": 52,
                    "time": 131.96141399999846,
                    "velocity": 0.2125984251968504,
                    "duration": 0.18878599999999324
                },
                {
                    "name": "D4",
                    "midi": 62,
                    "time": 131.96141399999846,
                    "velocity": 0.2992125984251969,
                    "duration": 0.18878599999999324
                },
                {
                    "name": "G#3",
                    "midi": 56,
                    "time": 131.96692025833178,
                    "velocity": 0.2125984251968504,
                    "duration": 0.18878599999999324
                },
                {
                    "name": "A2",
                    "midi": 45,
                    "time": 132.43337899999844,
                    "velocity": 0.2283464566929134,
                    "duration": 0.2831790000000183
                },
                {
                    "name": "E3",
                    "midi": 52,
                    "time": 132.48057549999845,
                    "velocity": 0.2283464566929134,
                    "duration": 0.23598250000000576
                },
                {
                    "name": "C#4",
                    "midi": 61,
                    "time": 132.52777199999846,
                    "velocity": 0.2677165354330709,
                    "duration": 0.18878599999999324
                },
                {
                    "name": "A4",
                    "midi": 69,
                    "time": 133.28291599999847,
                    "velocity": 0.2047244094488189,
                    "duration": 0.14158950000000914
                },
                {
                    "name": "C#5",
                    "midi": 73,
                    "time": 133.28291599999847,
                    "velocity": 0.28346456692913385,
                    "duration": 0.14158950000000914
                },
                {
                    "name": "A4",
                    "midi": 69,
                    "time": 133.4717019999985,
                    "velocity": 0.2047244094488189,
                    "duration": 0.14158950000000914
                },
                {
                    "name": "C#5",
                    "midi": 73,
                    "time": 133.4717019999985,
                    "velocity": 0.2047244094488189,
                    "duration": 0.14158950000000914
                },
                {
                    "name": "A4",
                    "midi": 69,
                    "time": 133.6604879999985,
                    "velocity": 0.2125984251968504,
                    "duration": 0.3775719999999865
                },
                {
                    "name": "C#5",
                    "midi": 73,
                    "time": 133.6604879999985,
                    "velocity": 0.25984251968503935,
                    "duration": 0.3775719999999865
                },
                {
                    "name": "C#4",
                    "midi": 61,
                    "time": 134.41563199999848,
                    "velocity": 0.1968503937007874,
                    "duration": 0.14158950000000914
                },
                {
                    "name": "A4",
                    "midi": 69,
                    "time": 134.41563199999848,
                    "velocity": 0.2755905511811024,
                    "duration": 0.14158950000000914
                },
                {
                    "name": "C#4",
                    "midi": 61,
                    "time": 134.6044179999985,
                    "velocity": 0.1968503937007874,
                    "duration": 0.14158950000000914
                },
                {
                    "name": "A4",
                    "midi": 69,
                    "time": 134.6044179999985,
                    "velocity": 0.1968503937007874,
                    "duration": 0.14158950000000914
                },
                {
                    "name": "C#4",
                    "midi": 61,
                    "time": 134.79320399999852,
                    "velocity": 0.2047244094488189,
                    "duration": 0.3775719999999865
                },
                {
                    "name": "A4",
                    "midi": 69,
                    "time": 134.79320399999852,
                    "velocity": 0.25196850393700787,
                    "duration": 0.3775719999999865
                },
                {
                    "name": "A3",
                    "midi": 57,
                    "time": 135.5483479999985,
                    "velocity": 0.1889763779527559,
                    "duration": 0.14158950000000914
                },
                {
                    "name": "C#4",
                    "midi": 61,
                    "time": 135.5483479999985,
                    "velocity": 0.2677165354330709,
                    "duration": 0.14158950000000914
                },
                {
                    "name": "A3",
                    "midi": 57,
                    "time": 135.73713399999852,
                    "velocity": 0.1889763779527559,
                    "duration": 0.14158950000000914
                },
                {
                    "name": "C#4",
                    "midi": 61,
                    "time": 135.73713399999852,
                    "velocity": 0.1889763779527559,
                    "duration": 0.14158950000000914
                },
                {
                    "name": "A3",
                    "midi": 57,
                    "time": 135.92591999999854,
                    "velocity": 0.2047244094488189,
                    "duration": 0.3775719999999865
                },
                {
                    "name": "C#4",
                    "midi": 61,
                    "time": 135.92591999999854,
                    "velocity": 0.2440944881889764,
                    "duration": 0.3775719999999865
                },
                {
                    "name": "E3",
                    "midi": 52,
                    "time": 136.49227799999852,
                    "velocity": 0.3228346456692913,
                    "duration": 0.3775719999999865
                },
                {
                    "name": "B3",
                    "midi": 59,
                    "time": 136.49227799999852,
                    "velocity": 0.3779527559055118,
                    "duration": 0.3775719999999865
                },
                {
                    "name": "A3",
                    "midi": 57,
                    "time": 137.0586359999985,
                    "velocity": 0.4409448818897638,
                    "duration": 0.18878599999999324
                },
                {
                    "name": "C#3",
                    "midi": 49,
                    "time": 137.0586359999985,
                    "velocity": 0.4015748031496063,
                    "duration": 0.18878599999999324
                },
                {
                    "name": "C#4",
                    "midi": 61,
                    "time": 138.0497624999985,
                    "velocity": 0.1968503937007874,
                    "duration": 0.3303755000000308
                },
                {
                    "name": "E4",
                    "midi": 64,
                    "time": 138.09695899999852,
                    "velocity": 0.1968503937007874,
                    "duration": 0.2831790000000183
                },
                {
                    "name": "A4",
                    "midi": 69,
                    "time": 138.09695899999852,
                    "velocity": 0.1968503937007874,
                    "duration": 0.23598250000000576
                },
                {
                    "name": "C#5",
                    "midi": 73,
                    "time": 138.19135199999852,
                    "velocity": 0.30708661417322836,
                    "duration": 0.18878600000002166
                },
                {
                    "name": "A2",
                    "midi": 45,
                    "time": 139.32406799999853,
                    "velocity": 0.25984251968503935,
                    "duration": 0.09439299999999662
                },
                {
                    "name": "A1",
                    "midi": 33,
                    "time": 139.32406799999853,
                    "velocity": 0.2204724409448819,
                    "duration": 0.09439299999999662
                }
            ],
            "controlChanges": {},
            "id": 2,
            "name": "Piano left",
            "instrumentNumber": 0,
            "instrument": "acoustic grand piano",
            "instrumentFamily": "piano",
            "channelNumber": 0,
            "isPercussion": false
        },
        {
            "startTime": 0,
            "duration": 0,
            "length": 0,
            "notes": [],
            "controlChanges": {
                "64": [
                    {
                        "number": 64,
                        "time": 0.022025033333333336,
                        "value": 1
                    },
                    {
                        "number": 64,
                        "time": 0.7693029500000002,
                        "value": 0
                    },
                    {
                        "number": 64,
                        "time": 1.1633937250000002,
                        "value": 1
                    },
                    {
                        "number": 64,
                        "time": 1.9161779,
                        "value": 0
                    },
                    {
                        "number": 64,
                        "time": 2.3047624166666667,
                        "value": 1
                    },
                    {
                        "number": 64,
                        "time": 3.0363081666666667,
                        "value": 0
                    },
                    {
                        "number": 64,
                        "time": 3.4288257250000003,
                        "value": 1
                    },
                    {
                        "number": 64,
                        "time": 3.597946516666667,
                        "value": 0
                    },
                    {
                        "number": 64,
                        "time": 4.006196241666667,
                        "value": 1
                    },
                    {
                        "number": 64,
                        "time": 4.165877733333334,
                        "value": 0
                    },
                    {
                        "number": 64,
                        "time": 5.136552416666667,
                        "value": 1
                    },
                    {
                        "number": 64,
                        "time": 5.857872258333334,
                        "value": 0
                    },
                    {
                        "number": 64,
                        "time": 6.266121983333334,
                        "value": 1
                    },
                    {
                        "number": 64,
                        "time": 6.987441825,
                        "value": 0
                    },
                    {
                        "number": 64,
                        "time": 7.404344241666667,
                        "value": 1
                    },
                    {
                        "number": 64,
                        "time": 7.6379669166666675,
                        "value": 0
                    },
                    {
                        "number": 64,
                        "time": 7.979354933333334,
                        "value": 1
                    },
                    {
                        "number": 64,
                        "time": 8.317596516666667,
                        "value": 0
                    },
                    {
                        "number": 64,
                        "time": 8.5425665,
                        "value": 1
                    },
                    {
                        "number": 64,
                        "time": 8.703821208333332,
                        "value": 0
                    },
                    {
                        "number": 64,
                        "time": 9.104204849999999,
                        "value": 1
                    },
                    {
                        "number": 64,
                        "time": 9.642244949999998,
                        "value": 0
                    },
                    {
                        "number": 64,
                        "time": 10.388736258333331,
                        "value": 0
                    },
                    {
                        "number": 64,
                        "time": 10.79698598333333,
                        "value": 1
                    },
                    {
                        "number": 64,
                        "time": 11.518305824999997,
                        "value": 0
                    },
                    {
                        "number": 64,
                        "time": 11.935208241666663,
                        "value": 1
                    },
                    {
                        "number": 64,
                        "time": 12.168830916666662,
                        "value": 0
                    },
                    {
                        "number": 64,
                        "time": 12.510218933333329,
                        "value": 1
                    },
                    {
                        "number": 64,
                        "time": 13.592591999999996,
                        "value": 0
                    },
                    {
                        "number": 64,
                        "time": 13.664959966666663,
                        "value": 1
                    },
                    {
                        "number": 64,
                        "time": 14.166029474999997,
                        "value": 0
                    },
                    {
                        "number": 64,
                        "time": 14.206146499999997,
                        "value": 1
                    },
                    {
                        "number": 64,
                        "time": 14.728454433333331,
                        "value": 0
                    },
                    {
                        "number": 64,
                        "time": 14.775650933333331,
                        "value": 1
                    },
                    {
                        "number": 64,
                        "time": 15.86353025833333,
                        "value": 0
                    },
                    {
                        "number": 64,
                        "time": 15.935898224999997,
                        "value": 1
                    },
                    {
                        "number": 64,
                        "time": 16.613167999999998,
                        "value": 0
                    },
                    {
                        "number": 64,
                        "time": 17.05209545,
                        "value": 1
                    },
                    {
                        "number": 64,
                        "time": 17.42966745,
                        "value": 0
                    },
                    {
                        "number": 64,
                        "time": 17.612947191666667,
                        "value": 1
                    },
                    {
                        "number": 64,
                        "time": 18.023556741666667,
                        "value": 0
                    },
                    {
                        "number": 64,
                        "time": 18.206836483333333,
                        "value": 1
                    },
                    {
                        "number": 64,
                        "time": 18.895118775,
                        "value": 0
                    },
                    {
                        "number": 64,
                        "time": 19.350565,
                        "value": 1
                    },
                    {
                        "number": 64,
                        "time": 20.237072591666667,
                        "value": 0
                    },
                    {
                        "number": 64,
                        "time": 20.483281,
                        "value": 1
                    },
                    {
                        "number": 64,
                        "time": 21.340684083333336,
                        "value": 0
                    },
                    {
                        "number": 64,
                        "time": 21.615997000000004,
                        "value": 1
                    },
                    {
                        "number": 64,
                        "time": 22.50250459166667,
                        "value": 0
                    },
                    {
                        "number": 64,
                        "time": 22.748713000000006,
                        "value": 1
                    },
                    {
                        "number": 64,
                        "time": 23.60611608333334,
                        "value": 0
                    },
                    {
                        "number": 64,
                        "time": 23.881429000000008,
                        "value": 1
                    },
                    {
                        "number": 64,
                        "time": 24.767936591666675,
                        "value": 0
                    },
                    {
                        "number": 64,
                        "time": 25.01414500000001,
                        "value": 1
                    },
                    {
                        "number": 64,
                        "time": 25.647364708333342,
                        "value": 0
                    },
                    {
                        "number": 64,
                        "time": 27.257551966666675,
                        "value": 1
                    },
                    {
                        "number": 64,
                        "time": 27.95999320833334,
                        "value": 0
                    },
                    {
                        "number": 64,
                        "time": 32.321736416666674,
                        "value": 1
                    },
                    {
                        "number": 64,
                        "time": 33.043056258333344,
                        "value": 0
                    },
                    {
                        "number": 64,
                        "time": 33.45130598333334,
                        "value": 1
                    },
                    {
                        "number": 64,
                        "time": 34.17262582500001,
                        "value": 0
                    },
                    {
                        "number": 64,
                        "time": 34.58952824166668,
                        "value": 1
                    },
                    {
                        "number": 64,
                        "time": 34.82315091666668,
                        "value": 0
                    },
                    {
                        "number": 64,
                        "time": 35.16453893333335,
                        "value": 1
                    },
                    {
                        "number": 64,
                        "time": 35.50278051666668,
                        "value": 0
                    },
                    {
                        "number": 64,
                        "time": 35.72775050000001,
                        "value": 1
                    },
                    {
                        "number": 64,
                        "time": 35.889005208333344,
                        "value": 0
                    },
                    {
                        "number": 64,
                        "time": 36.28938885000001,
                        "value": 1
                    },
                    {
                        "number": 64,
                        "time": 36.82742895000001,
                        "value": 0
                    },
                    {
                        "number": 64,
                        "time": 37.573920258333345,
                        "value": 0
                    },
                    {
                        "number": 64,
                        "time": 37.98216998333334,
                        "value": 1
                    },
                    {
                        "number": 64,
                        "time": 38.70348982500001,
                        "value": 0
                    },
                    {
                        "number": 64,
                        "time": 39.12039224166668,
                        "value": 1
                    },
                    {
                        "number": 64,
                        "time": 39.35401491666668,
                        "value": 0
                    },
                    {
                        "number": 64,
                        "time": 39.69540293333335,
                        "value": 1
                    },
                    {
                        "number": 64,
                        "time": 40.77777600000002,
                        "value": 0
                    },
                    {
                        "number": 64,
                        "time": 40.850143966666685,
                        "value": 1
                    },
                    {
                        "number": 64,
                        "time": 41.351213475000016,
                        "value": 0
                    },
                    {
                        "number": 64,
                        "time": 41.39133050000002,
                        "value": 1
                    },
                    {
                        "number": 64,
                        "time": 41.91363843333335,
                        "value": 0
                    },
                    {
                        "number": 64,
                        "time": 41.960834933333345,
                        "value": 1
                    },
                    {
                        "number": 64,
                        "time": 43.04871425833335,
                        "value": 0
                    },
                    {
                        "number": 64,
                        "time": 43.121082225000016,
                        "value": 1
                    },
                    {
                        "number": 64,
                        "time": 43.798352000000015,
                        "value": 0
                    },
                    {
                        "number": 64,
                        "time": 44.23727945000002,
                        "value": 1
                    },
                    {
                        "number": 64,
                        "time": 44.61485145000002,
                        "value": 0
                    },
                    {
                        "number": 64,
                        "time": 44.798131191666684,
                        "value": 1
                    },
                    {
                        "number": 64,
                        "time": 45.20874074166668,
                        "value": 0
                    },
                    {
                        "number": 64,
                        "time": 45.39202048333335,
                        "value": 1
                    },
                    {
                        "number": 64,
                        "time": 46.080302775000014,
                        "value": 0
                    },
                    {
                        "number": 64,
                        "time": 46.53574900000002,
                        "value": 1
                    },
                    {
                        "number": 64,
                        "time": 47.42225659166668,
                        "value": 0
                    },
                    {
                        "number": 64,
                        "time": 47.66846500000001,
                        "value": 1
                    },
                    {
                        "number": 64,
                        "time": 48.52586808333334,
                        "value": 0
                    },
                    {
                        "number": 64,
                        "time": 48.80118100000001,
                        "value": 1
                    },
                    {
                        "number": 64,
                        "time": 49.68768859166667,
                        "value": 0
                    },
                    {
                        "number": 64,
                        "time": 49.933897,
                        "value": 1
                    },
                    {
                        "number": 64,
                        "time": 50.79130008333333,
                        "value": 0
                    },
                    {
                        "number": 64,
                        "time": 51.066613,
                        "value": 1
                    },
                    {
                        "number": 64,
                        "time": 51.95312059166666,
                        "value": 0
                    },
                    {
                        "number": 64,
                        "time": 52.19932899999999,
                        "value": 1
                    },
                    {
                        "number": 64,
                        "time": 52.83254870833333,
                        "value": 0
                    },
                    {
                        "number": 64,
                        "time": 54.44273596666666,
                        "value": 1
                    },
                    {
                        "number": 64,
                        "time": 55.14517720833333,
                        "value": 0
                    },
                    {
                        "number": 64,
                        "time": 59.656375999999995,
                        "value": 0
                    },
                    {
                        "number": 64,
                        "time": 60.095303449999996,
                        "value": 1
                    },
                    {
                        "number": 64,
                        "time": 60.23846616666666,
                        "value": 0
                    },
                    {
                        "number": 64,
                        "time": 60.65615519166666,
                        "value": 1
                    },
                    {
                        "number": 64,
                        "time": 60.99361016666666,
                        "value": 0
                    },
                    {
                        "number": 64,
                        "time": 61.20048815833333,
                        "value": 1
                    },
                    {
                        "number": 64,
                        "time": 61.364889299999994,
                        "value": 0
                    },
                    {
                        "number": 64,
                        "time": 61.81640248333333,
                        "value": 1
                    },
                    {
                        "number": 64,
                        "time": 62.29937999999999,
                        "value": 0
                    },
                    {
                        "number": 64,
                        "time": 62.36073544999999,
                        "value": 1
                    },
                    {
                        "number": 64,
                        "time": 62.50389816666666,
                        "value": 0
                    },
                    {
                        "number": 64,
                        "time": 62.92158719166666,
                        "value": 1
                    },
                    {
                        "number": 64,
                        "time": 63.25904216666666,
                        "value": 0
                    },
                    {
                        "number": 64,
                        "time": 63.432095999999994,
                        "value": 0
                    },
                    {
                        "number": 64,
                        "time": 63.493451449999995,
                        "value": 1
                    },
                    {
                        "number": 64,
                        "time": 64.000813825,
                        "value": 0
                    },
                    {
                        "number": 64,
                        "time": 64.62616745,
                        "value": 1
                    },
                    {
                        "number": 64,
                        "time": 64.77011677499999,
                        "value": 0
                    },
                    {
                        "number": 64,
                        "time": 65.18701919166666,
                        "value": 1
                    },
                    {
                        "number": 64,
                        "time": 65.52526077499999,
                        "value": 0
                    },
                    {
                        "number": 64,
                        "time": 65.73135215833332,
                        "value": 1
                    },
                    {
                        "number": 64,
                        "time": 65.89653990833332,
                        "value": 0
                    },
                    {
                        "number": 64,
                        "time": 66.34805309166666,
                        "value": 1
                    },
                    {
                        "number": 64,
                        "time": 66.83103060833332,
                        "value": 0
                    },
                    {
                        "number": 64,
                        "time": 66.89159944999999,
                        "value": 1
                    },
                    {
                        "number": 64,
                        "time": 67.03554877499998,
                        "value": 0
                    },
                    {
                        "number": 64,
                        "time": 67.45245119166665,
                        "value": 1
                    },
                    {
                        "number": 64,
                        "time": 67.79069277499998,
                        "value": 0
                    },
                    {
                        "number": 64,
                        "time": 67.96374660833331,
                        "value": 0
                    },
                    {
                        "number": 64,
                        "time": 68.02431544999997,
                        "value": 1
                    },
                    {
                        "number": 64,
                        "time": 68.5324644333333,
                        "value": 0
                    },
                    {
                        "number": 64,
                        "time": 70.85059919166663,
                        "value": 1
                    },
                    {
                        "number": 64,
                        "time": 71.37684016666663,
                        "value": 0
                    },
                    {
                        "number": 64,
                        "time": 71.43898222499996,
                        "value": 1
                    },
                    {
                        "number": 64,
                        "time": 71.75283894999995,
                        "value": 0
                    },
                    {
                        "number": 64,
                        "time": 71.98016875833329,
                        "value": 1
                    },
                    {
                        "number": 64,
                        "time": 72.32627642499996,
                        "value": 0
                    },
                    {
                        "number": 64,
                        "time": 72.55517944999995,
                        "value": 1
                    },
                    {
                        "number": 64,
                        "time": 73.09636598333329,
                        "value": 0
                    },
                    {
                        "number": 64,
                        "time": 75.93680867499995,
                        "value": 1
                    },
                    {
                        "number": 64,
                        "time": 76.46540947499996,
                        "value": 0
                    },
                    {
                        "number": 64,
                        "time": 76.59362663333329,
                        "value": 1
                    },
                    {
                        "number": 64,
                        "time": 77.03019425833328,
                        "value": 0
                    },
                    {
                        "number": 64,
                        "time": 77.10098900833329,
                        "value": 1
                    },
                    {
                        "number": 64,
                        "time": 77.60677816666661,
                        "value": 0
                    },
                    {
                        "number": 64,
                        "time": 77.66341396666661,
                        "value": 1
                    },
                    {
                        "number": 64,
                        "time": 78.16291025833328,
                        "value": 0
                    },
                    {
                        "number": 64,
                        "time": 78.23370500833329,
                        "value": 1
                    },
                    {
                        "number": 64,
                        "time": 78.73949416666662,
                        "value": 0
                    },
                    {
                        "number": 64,
                        "time": 78.79612996666661,
                        "value": 1
                    },
                    {
                        "number": 64,
                        "time": 79.29011999999994,
                        "value": 0
                    },
                    {
                        "number": 64,
                        "time": 79.34282275833328,
                        "value": 1
                    },
                    {
                        "number": 64,
                        "time": 81.55555199999995,
                        "value": 0
                    },
                    {
                        "number": 64,
                        "time": 81.60825475833329,
                        "value": 1
                    },
                    {
                        "number": 64,
                        "time": 83.27193138333328,
                        "value": 0
                    },
                    {
                        "number": 64,
                        "time": 83.32148770833328,
                        "value": 1
                    },
                    {
                        "number": 64,
                        "time": 84.01527625833327,
                        "value": 0
                    },
                    {
                        "number": 64,
                        "time": 84.42352598333328,
                        "value": 1
                    },
                    {
                        "number": 64,
                        "time": 85.14720564999995,
                        "value": 0
                    },
                    {
                        "number": 64,
                        "time": 85.5617482416666,
                        "value": 1
                    },
                    {
                        "number": 64,
                        "time": 85.79537091666661,
                        "value": 0
                    },
                    {
                        "number": 64,
                        "time": 85.82840846666662,
                        "value": 1
                    },
                    {
                        "number": 64,
                        "time": 86.47500051666661,
                        "value": 0
                    },
                    {
                        "number": 64,
                        "time": 86.69997049999995,
                        "value": 1
                    },
                    {
                        "number": 64,
                        "time": 86.86122520833328,
                        "value": 0
                    },
                    {
                        "number": 64,
                        "time": 87.26160884999994,
                        "value": 1
                    },
                    {
                        "number": 64,
                        "time": 87.79964894999995,
                        "value": 0
                    },
                    {
                        "number": 64,
                        "time": 88.54614025833328,
                        "value": 0
                    },
                    {
                        "number": 64,
                        "time": 88.95438998333329,
                        "value": 1
                    },
                    {
                        "number": 64,
                        "time": 89.67570982499996,
                        "value": 0
                    },
                    {
                        "number": 64,
                        "time": 90.62435947499995,
                        "value": 0
                    },
                    {
                        "number": 64,
                        "time": 90.66447649999995,
                        "value": 1
                    },
                    {
                        "number": 64,
                        "time": 91.18127817499995,
                        "value": 0
                    },
                    {
                        "number": 64,
                        "time": 91.27803099999994,
                        "value": 1
                    },
                    {
                        "number": 64,
                        "time": 92.88979147499994,
                        "value": 0
                    },
                    {
                        "number": 64,
                        "time": 92.92990849999994,
                        "value": 1
                    },
                    {
                        "number": 64,
                        "time": 93.44671017499994,
                        "value": 0
                    },
                    {
                        "number": 64,
                        "time": 93.54346299999993,
                        "value": 1
                    },
                    {
                        "number": 64,
                        "time": 95.14814399999993,
                        "value": 0
                    },
                    {
                        "number": 64,
                        "time": 95.24253699999993,
                        "value": 1
                    },
                    {
                        "number": 64,
                        "time": 96.10229990833326,
                        "value": 0
                    },
                    {
                        "number": 64,
                        "time": 96.28085999999993,
                        "value": 0
                    },
                    {
                        "number": 64,
                        "time": 96.37525299999993,
                        "value": 1
                    },
                    {
                        "number": 64,
                        "time": 97.23501590833327,
                        "value": 0
                    },
                    {
                        "number": 64,
                        "time": 97.4859439666666,
                        "value": 1
                    },
                    {
                        "number": 64,
                        "time": 98.18838520833326,
                        "value": 0
                    },
                    {
                        "number": 64,
                        "time": 103.11098015833326,
                        "value": 1
                    },
                    {
                        "number": 64,
                        "time": 103.6875640666666,
                        "value": 0
                    },
                    {
                        "number": 64,
                        "time": 104.23189703333327,
                        "value": 1
                    },
                    {
                        "number": 64,
                        "time": 104.79117555833326,
                        "value": 0
                    },
                    {
                        "number": 64,
                        "time": 105.39293093333326,
                        "value": 1
                    },
                    {
                        "number": 64,
                        "time": 105.93647729166659,
                        "value": 0
                    },
                    {
                        "number": 64,
                        "time": 106.59172203333326,
                        "value": 1
                    },
                    {
                        "number": 64,
                        "time": 107.23595425833325,
                        "value": 0
                    },
                    {
                        "number": 64,
                        "time": 107.66701562499992,
                        "value": 1
                    },
                    {
                        "number": 64,
                        "time": 108.39069529166659,
                        "value": 0
                    },
                    {
                        "number": 64,
                        "time": 108.81546379166659,
                        "value": 1
                    },
                    {
                        "number": 64,
                        "time": 109.53049076666659,
                        "value": 0
                    },
                    {
                        "number": 64,
                        "time": 109.94581996666659,
                        "value": 1
                    },
                    {
                        "number": 64,
                        "time": 110.63331564999993,
                        "value": 0
                    },
                    {
                        "number": 64,
                        "time": 111.05651093333326,
                        "value": 1
                    },
                    {
                        "number": 64,
                        "time": 111.59376442499992,
                        "value": 0
                    },
                    {
                        "number": 64,
                        "time": 111.63938770833325,
                        "value": 1
                    },
                    {
                        "number": 64,
                        "time": 112.16956172499991,
                        "value": 0
                    },
                    {
                        "number": 64,
                        "time": 112.20810553333324,
                        "value": 1
                    },
                    {
                        "number": 64,
                        "time": 112.70996164999991,
                        "value": 0
                    },
                    {
                        "number": 64,
                        "time": 112.76345101666658,
                        "value": 1
                    },
                    {
                        "number": 64,
                        "time": 113.2739598249999,
                        "value": 0
                    },
                    {
                        "number": 64,
                        "time": 113.3659929999999,
                        "value": 1
                    },
                    {
                        "number": 64,
                        "time": 113.84346425833324,
                        "value": 0
                    },
                    {
                        "number": 64,
                        "time": 113.91032596666658,
                        "value": 1
                    },
                    {
                        "number": 64,
                        "time": 114.40667582499991,
                        "value": 0
                    },
                    {
                        "number": 64,
                        "time": 114.4987089999999,
                        "value": 1
                    },
                    {
                        "number": 64,
                        "time": 116.10889625833325,
                        "value": 0
                    },
                    {
                        "number": 64,
                        "time": 116.17575796666658,
                        "value": 1
                    },
                    {
                        "number": 64,
                        "time": 116.70042572499992,
                        "value": 0
                    },
                    {
                        "number": 64,
                        "time": 116.73896953333325,
                        "value": 1
                    },
                    {
                        "number": 64,
                        "time": 117.24082564999992,
                        "value": 0
                    },
                    {
                        "number": 64,
                        "time": 117.29431501666659,
                        "value": 1
                    },
                    {
                        "number": 64,
                        "time": 117.80482382499991,
                        "value": 0
                    },
                    {
                        "number": 64,
                        "time": 117.89685699999991,
                        "value": 1
                    },
                    {
                        "number": 64,
                        "time": 118.37432825833325,
                        "value": 0
                    },
                    {
                        "number": 64,
                        "time": 118.44118996666658,
                        "value": 1
                    },
                    {
                        "number": 64,
                        "time": 118.93753982499992,
                        "value": 0
                    },
                    {
                        "number": 64,
                        "time": 119.02957299999991,
                        "value": 1
                    },
                    {
                        "number": 64,
                        "time": 120.63976025833325,
                        "value": 0
                    },
                    {
                        "number": 64,
                        "time": 120.70662196666659,
                        "value": 1
                    },
                    {
                        "number": 64,
                        "time": 121.23128972499993,
                        "value": 0
                    },
                    {
                        "number": 64,
                        "time": 121.26983353333326,
                        "value": 1
                    },
                    {
                        "number": 64,
                        "time": 121.77168964999993,
                        "value": 0
                    },
                    {
                        "number": 64,
                        "time": 121.8251790166666,
                        "value": 1
                    },
                    {
                        "number": 64,
                        "time": 122.33568782499992,
                        "value": 0
                    },
                    {
                        "number": 64,
                        "time": 122.42772099999992,
                        "value": 1
                    },
                    {
                        "number": 64,
                        "time": 123.19938377499992,
                        "value": 0
                    },
                    {
                        "number": 64,
                        "time": 123.26073922499991,
                        "value": 1
                    },
                    {
                        "number": 64,
                        "time": 127.62405564999992,
                        "value": 0
                    },
                    {
                        "number": 64,
                        "time": 128.0527571916666,
                        "value": 1
                    },
                    {
                        "number": 64,
                        "time": 128.58607764166658,
                        "value": 0
                    },
                    {
                        "number": 64,
                        "time": 128.66316525833324,
                        "value": 1
                    },
                    {
                        "number": 64,
                        "time": 129.14378294999992,
                        "value": 0
                    },
                    {
                        "number": 64,
                        "time": 129.18547319166657,
                        "value": 1
                    },
                    {
                        "number": 64,
                        "time": 129.71879364166657,
                        "value": 0
                    },
                    {
                        "number": 64,
                        "time": 129.79588125833322,
                        "value": 1
                    },
                    {
                        "number": 64,
                        "time": 130.27020608333322,
                        "value": 0
                    },
                    {
                        "number": 64,
                        "time": 130.31818919166656,
                        "value": 1
                    },
                    {
                        "number": 64,
                        "time": 130.85150964166655,
                        "value": 0
                    },
                    {
                        "number": 64,
                        "time": 130.9285972583332,
                        "value": 1
                    },
                    {
                        "number": 64,
                        "time": 131.4092149499999,
                        "value": 0
                    },
                    {
                        "number": 64,
                        "time": 131.45090519166655,
                        "value": 1
                    },
                    {
                        "number": 64,
                        "time": 131.98422564166654,
                        "value": 0
                    },
                    {
                        "number": 64,
                        "time": 132.0613132583332,
                        "value": 1
                    },
                    {
                        "number": 64,
                        "time": 132.5356380833332,
                        "value": 0
                    },
                    {
                        "number": 64,
                        "time": 132.58362119166654,
                        "value": 1
                    },
                    {
                        "number": 64,
                        "time": 135.93378608333322,
                        "value": 0
                    },
                    {
                        "number": 64,
                        "time": 135.98176919166656,
                        "value": 1
                    },
                    {
                        "number": 64,
                        "time": 137.2474219999999,
                        "value": 0
                    },
                    {
                        "number": 64,
                        "time": 138.05526875833323,
                        "value": 1
                    },
                    {
                        "number": 64,
                        "time": 139.5340924249999,
                        "value": 0
                    }
                ]
            },
            "id": 3,
            "name": "Pedale",
            "instrumentNumber": 0,
            "instrument": "acoustic grand piano",
            "instrumentFamily": "piano",
            "channelNumber": 0,
            "isPercussion": false
        },
        {
            "startTime": 0,
            "duration": 0,
            "length": 0,
            "notes": [],
            "controlChanges": {},
            "id": 4,
            "name": "Mendelssohn: Songs without words Opus 19 No. 3"
        },
        {
            "startTime": 0,
            "duration": 0,
            "length": 0,
            "notes": [],
            "controlChanges": {},
            "id": 5,
            "name": "Copyright © 2010 by Bernd Krueger"
        },
        {
            "startTime": 0,
            "duration": 0,
            "length": 0,
            "notes": [],
            "controlChanges": {},
            "id": 6,
            "name": "http://www.piano-midi.de/"
        },
        {
            "startTime": 0,
            "duration": 0,
            "length": 0,
            "notes": [],
            "controlChanges": {},
            "id": 7,
            "name": "Edition: 2014-10-29"
        },
        {
            "startTime": 0,
            "duration": 0,
            "length": 0,
            "notes": [],
            "controlChanges": {},
            "id": 8,
            "name": "Spur 8"
        },
        {
            "startTime": 0,
            "duration": 0,
            "length": 0,
            "notes": [],
            "controlChanges": {},
            "id": 9,
            "name": "Spur 9"
        },
        {
            "startTime": 0,
            "duration": 0,
            "length": 0,
            "notes": [],
            "controlChanges": {},
            "id": 10,
            "name": "Spur 10"
        },
        {
            "startTime": 0,
            "duration": 0,
            "length": 0,
            "notes": [],
            "controlChanges": {},
            "id": 11,
            "name": "Spur 11"
        },
        {
            "startTime": 0,
            "duration": 0,
            "length": 0,
            "notes": [],
            "controlChanges": {},
            "id": 12,
            "name": "Spur 12"
        },
        {
            "startTime": 0,
            "duration": 0,
            "length": 0,
            "notes": [],
            "controlChanges": {},
            "id": 13,
            "name": "Spur 13"
        },
        {
            "startTime": 0,
            "duration": 0,
            "length": 0,
            "notes": [],
            "controlChanges": {},
            "id": 14,
            "name": "Spur 14"
        },
        {
            "startTime": 0,
            "duration": 0,
            "length": 0,
            "notes": [],
            "controlChanges": {},
            "id": 15,
            "name": "Spur 15"
        },
        {
            "startTime": 0,
            "duration": 0,
            "length": 0,
            "notes": [],
            "controlChanges": {},
            "id": 16,
            "name": "Spur 16"
        }
    ]
}