{
    "header": {
        "PPQ": 480,
        "timeSignature": [
            2,
            4
        ],
        "bpm": 61.7499948541671,
        "name": "Mendelssohn: Lieder ohne Worte Opus 30 Nr. 5"
    },
    "startTime": 0,
    "duration": 109.06883500000144,
    "tracks": [
        {
            "startTime": 0,
            "duration": 0,
            "length": 0,
            "notes": [],
            "controlChanges": {},
            "id": 0,
            "name": "Mendelssohn: Lieder ohne Worte Opus 30 Nr. 5"
        },
        {
            "startTime": 0.97166,
            "duration": 109.06883499999967,
            "length": 453,
            "notes": [
                {
                    "name": "F#4",
                    "midi": 66,
                    "time": 0.97166,
                    "velocity": 0.36220472440944884,
                    "duration": 0.48583
                },
                {
                    "name": "G3",
                    "midi": 55,
                    "time": 1.45749,
                    "velocity": 0.2755905511811024,
                    "duration": 0.48583
                },
                {
                    "name": "G4",
                    "midi": 67,
                    "time": 1.45749,
                    "velocity": 0.33070866141732286,
                    "duration": 0.48583
                },
                {
                    "name": "A4",
                    "midi": 69,
                    "time": 1.94332,
                    "velocity": 0.4015748031496063,
                    "duration": 0.48583
                },
                {
                    "name": "A3",
                    "midi": 57,
                    "time": 1.94332,
                    "velocity": 0.33858267716535434,
                    "duration": 0.48583
                },
                {
                    "name": "B3",
                    "midi": 59,
                    "time": 2.42915,
                    "velocity": 0.3543307086614173,
                    "duration": 0.48583
                },
                {
                    "name": "B4",
                    "midi": 71,
                    "time": 2.42915,
                    "velocity": 0.4251968503937008,
                    "duration": 0.48583
                },
                {
                    "name": "A4",
                    "midi": 69,
                    "time": 2.91498,
                    "velocity": 0.3779527559055118,
                    "duration": 0.48583
                },
                {
                    "name": "A3",
                    "midi": 57,
                    "time": 2.91498,
                    "velocity": 0.31496062992125984,
                    "duration": 0.48583
                },
                {
                    "name": "G3",
                    "midi": 55,
                    "time": 3.40081,
                    "velocity": 0.2755905511811024,
                    "duration": 0.48583
                },
                {
                    "name": "G4",
                    "midi": 67,
                    "time": 3.40081,
                    "velocity": 0.33070866141732286,
                    "duration": 0.48583
                },
                {
                    "name": "F#4",
                    "midi": 66,
                    "time": 3.88664,
                    "velocity": 0.3700787401574803,
                    "duration": 0.97166
                },
                {
                    "name": "F#3",
                    "midi": 54,
                    "time": 3.88664,
                    "velocity": 0.30708661417322836,
                    "duration": 0.97166
                },
                {
                    "name": "A4",
                    "midi": 69,
                    "time": 4.8583,
                    "velocity": 0.41732283464566927,
                    "duration": 0.48583
                },
                {
                    "name": "A3",
                    "midi": 57,
                    "time": 4.8583,
                    "velocity": 0.3543307086614173,
                    "duration": 0.48583
                },
                {
                    "name": "B4",
                    "midi": 71,
                    "time": 5.34413,
                    "velocity": 0.4330708661417323,
                    "duration": 0.48583
                },
                {
                    "name": "B3",
                    "midi": 59,
                    "time": 5.34413,
                    "velocity": 0.36220472440944884,
                    "duration": 0.48583
                },
                {
                    "name": "C#5",
                    "midi": 73,
                    "time": 5.82996,
                    "velocity": 0.4881889763779528,
                    "duration": 0.48583
                },
                {
                    "name": "C#4",
                    "midi": 61,
                    "time": 5.82996,
                    "velocity": 0.4094488188976378,
                    "duration": 0.48583
                },
                {
                    "name": "D4",
                    "midi": 62,
                    "time": 6.31579,
                    "velocity": 0.4330708661417323,
                    "duration": 0.48583
                },
                {
                    "name": "D5",
                    "midi": 74,
                    "time": 6.31579,
                    "velocity": 0.5118110236220472,
                    "duration": 0.48583
                },
                {
                    "name": "C#5",
                    "midi": 73,
                    "time": 6.80162,
                    "velocity": 0.4566929133858268,
                    "duration": 0.48583
                },
                {
                    "name": "C#4",
                    "midi": 61,
                    "time": 6.80162,
                    "velocity": 0.3858267716535433,
                    "duration": 0.48583
                },
                {
                    "name": "B4",
                    "midi": 71,
                    "time": 7.28745,
                    "velocity": 0.4409448818897638,
                    "duration": 0.48583
                },
                {
                    "name": "B3",
                    "midi": 59,
                    "time": 7.28745,
                    "velocity": 0.3700787401574803,
                    "duration": 0.48583
                },
                {
                    "name": "E5",
                    "midi": 76,
                    "time": 7.77328,
                    "velocity": 0.49606299212598426,
                    "duration": 0.48583
                },
                {
                    "name": "E4",
                    "midi": 64,
                    "time": 7.77328,
                    "velocity": 0.41732283464566927,
                    "duration": 0.48583
                },
                {
                    "name": "F#5",
                    "midi": 78,
                    "time": 8.25911,
                    "velocity": 0.5196850393700787,
                    "duration": 0.48583
                },
                {
                    "name": "F#4",
                    "midi": 66,
                    "time": 8.25911,
                    "velocity": 0.4409448818897638,
                    "duration": 0.48583
                },
                {
                    "name": "E4",
                    "midi": 64,
                    "time": 8.74494,
                    "velocity": 0.4330708661417323,
                    "duration": 0.242915
                },
                {
                    "name": "E5",
                    "midi": 76,
                    "time": 8.74494,
                    "velocity": 0.5118110236220472,
                    "duration": 0.242915
                },
                {
                    "name": "D#5",
                    "midi": 75,
                    "time": 8.987855,
                    "velocity": 0.41732283464566927,
                    "duration": 0.242915
                },
                {
                    "name": "D#4",
                    "midi": 63,
                    "time": 8.987855,
                    "velocity": 0.3543307086614173,
                    "duration": 0.242915
                },
                {
                    "name": "C#5",
                    "midi": 73,
                    "time": 9.23077,
                    "velocity": 0.4330708661417323,
                    "duration": 0.1214575
                },
                {
                    "name": "C#4",
                    "midi": 61,
                    "time": 9.23077,
                    "velocity": 0.36220472440944884,
                    "duration": 0.1214575
                },
                {
                    "name": "B3",
                    "midi": 59,
                    "time": 9.473685,
                    "velocity": 0.33070866141732286,
                    "duration": 0.1214575
                },
                {
                    "name": "B4",
                    "midi": 71,
                    "time": 9.473685,
                    "velocity": 0.3937007874015748,
                    "duration": 0.1214575
                },
                {
                    "name": "D5",
                    "midi": 74,
                    "time": 9.7166,
                    "velocity": 0.44881889763779526,
                    "duration": 0.48583
                },
                {
                    "name": "D4",
                    "midi": 62,
                    "time": 9.7166,
                    "velocity": 0.3779527559055118,
                    "duration": 0.48583
                },
                {
                    "name": "E5",
                    "midi": 76,
                    "time": 10.20243,
                    "velocity": 0.4566929133858268,
                    "duration": 0.48583
                },
                {
                    "name": "E4",
                    "midi": 64,
                    "time": 10.20243,
                    "velocity": 0.3858267716535433,
                    "duration": 0.48583
                },
                {
                    "name": "D4",
                    "midi": 62,
                    "time": 10.68826,
                    "velocity": 0.4094488188976378,
                    "duration": 0.242915
                },
                {
                    "name": "D5",
                    "midi": 74,
                    "time": 10.68826,
                    "velocity": 0.4881889763779528,
                    "duration": 0.242915
                },
                {
                    "name": "C#5",
                    "midi": 73,
                    "time": 10.931175,
                    "velocity": 0.44881889763779526,
                    "duration": 0.242915
                },
                {
                    "name": "C#4",
                    "midi": 61,
                    "time": 10.931175,
                    "velocity": 0.3779527559055118,
                    "duration": 0.242915
                },
                {
                    "name": "B3",
                    "midi": 59,
                    "time": 11.17409,
                    "velocity": 0.33070866141732286,
                    "duration": 0.1214575
                },
                {
                    "name": "B4",
                    "midi": 71,
                    "time": 11.17409,
                    "velocity": 0.3937007874015748,
                    "duration": 0.1214575
                },
                {
                    "name": "C#4",
                    "midi": 61,
                    "time": 11.417005,
                    "velocity": 0.33070866141732286,
                    "duration": 0.1214575
                },
                {
                    "name": "C#5",
                    "midi": 73,
                    "time": 11.417005,
                    "velocity": 0.3937007874015748,
                    "duration": 0.1214575
                },
                {
                    "name": "D4",
                    "midi": 62,
                    "time": 11.65992,
                    "velocity": 0.33070866141732286,
                    "duration": 0.48583
                },
                {
                    "name": "D5",
                    "midi": 74,
                    "time": 11.65992,
                    "velocity": 0.3937007874015748,
                    "duration": 0.48583
                },
                {
                    "name": "C#5",
                    "midi": 73,
                    "time": 12.14575,
                    "velocity": 0.3700787401574803,
                    "duration": 0.48583
                },
                {
                    "name": "C#4",
                    "midi": 61,
                    "time": 12.14575,
                    "velocity": 0.30708661417322836,
                    "duration": 0.48583
                },
                {
                    "name": "B3",
                    "midi": 59,
                    "time": 12.63158,
                    "velocity": 0.33070866141732286,
                    "duration": 0.48583
                },
                {
                    "name": "B4",
                    "midi": 71,
                    "time": 12.63158,
                    "velocity": 0.3937007874015748,
                    "duration": 0.48583
                },
                {
                    "name": "E5",
                    "midi": 76,
                    "time": 13.11741,
                    "velocity": 0.36220472440944884,
                    "duration": 0.48583
                },
                {
                    "name": "E4",
                    "midi": 64,
                    "time": 13.11741,
                    "velocity": 0.30708661417322836,
                    "duration": 0.48583
                },
                {
                    "name": "D5",
                    "midi": 74,
                    "time": 13.60324,
                    "velocity": 0.4330708661417323,
                    "duration": 0.48583
                },
                {
                    "name": "D4",
                    "midi": 62,
                    "time": 13.60324,
                    "velocity": 0.36220472440944884,
                    "duration": 0.48583
                },
                {
                    "name": "C#4",
                    "midi": 61,
                    "time": 14.08907,
                    "velocity": 0.33070866141732286,
                    "duration": 0.48583
                },
                {
                    "name": "C#5",
                    "midi": 73,
                    "time": 14.08907,
                    "velocity": 0.3937007874015748,
                    "duration": 0.48583
                },
                {
                    "name": "B4",
                    "midi": 71,
                    "time": 14.5749,
                    "velocity": 0.4251968503937008,
                    "duration": 0.728745
                },
                {
                    "name": "B3",
                    "midi": 59,
                    "time": 14.5749,
                    "velocity": 0.3543307086614173,
                    "duration": 0.728745
                },
                {
                    "name": "B4",
                    "midi": 71,
                    "time": 15.303645,
                    "velocity": 0.3937007874015748,
                    "duration": 0.242915
                },
                {
                    "name": "A#4",
                    "midi": 70,
                    "time": 15.54656,
                    "velocity": 0.4566929133858268,
                    "duration": 0.242915
                },
                {
                    "name": "G#4",
                    "midi": 68,
                    "time": 15.789475,
                    "velocity": 0.4094488188976378,
                    "duration": 0.242915
                },
                {
                    "name": "B4",
                    "midi": 71,
                    "time": 15.789475,
                    "velocity": 0.4881889763779528,
                    "duration": 0.242915
                },
                {
                    "name": "A4",
                    "midi": 69,
                    "time": 16.03239,
                    "velocity": 0.4251968503937008,
                    "duration": 0.242915
                },
                {
                    "name": "C#5",
                    "midi": 73,
                    "time": 16.03239,
                    "velocity": 0.5039370078740157,
                    "duration": 0.242915
                },
                {
                    "name": "B4",
                    "midi": 71,
                    "time": 16.275305,
                    "velocity": 0.4566929133858268,
                    "duration": 0.242915
                },
                {
                    "name": "D5",
                    "midi": 74,
                    "time": 16.275305,
                    "velocity": 0.5433070866141733,
                    "duration": 0.242915
                },
                {
                    "name": "F#5",
                    "midi": 78,
                    "time": 16.51822,
                    "velocity": 0.5590551181102362,
                    "duration": 0.242915
                },
                {
                    "name": "D5",
                    "midi": 74,
                    "time": 16.51822,
                    "velocity": 0.47244094488188976,
                    "duration": 0.242915
                },
                {
                    "name": "C#5",
                    "midi": 73,
                    "time": 16.761135,
                    "velocity": 0.47244094488188976,
                    "duration": 0.242915
                },
                {
                    "name": "E5",
                    "midi": 76,
                    "time": 16.761135,
                    "velocity": 0.5669291338582677,
                    "duration": 0.242915
                },
                {
                    "name": "D5",
                    "midi": 74,
                    "time": 17.00405,
                    "velocity": 0.5196850393700787,
                    "duration": 0.242915
                },
                {
                    "name": "B4",
                    "midi": 71,
                    "time": 17.00405,
                    "velocity": 0.4409448818897638,
                    "duration": 0.242915
                },
                {
                    "name": "C#5",
                    "midi": 73,
                    "time": 17.246965,
                    "velocity": 0.5039370078740157,
                    "duration": 0.242915
                },
                {
                    "name": "A4",
                    "midi": 69,
                    "time": 17.246965,
                    "velocity": 0.4251968503937008,
                    "duration": 0.242915
                },
                {
                    "name": "E5",
                    "midi": 76,
                    "time": 17.48988,
                    "velocity": 0.5039370078740157,
                    "duration": 0.242915
                },
                {
                    "name": "C#5",
                    "midi": 73,
                    "time": 17.48988,
                    "velocity": 0.4251968503937008,
                    "duration": 0.242915
                },
                {
                    "name": "D5",
                    "midi": 74,
                    "time": 17.732795,
                    "velocity": 0.4094488188976378,
                    "duration": 0.242915
                },
                {
                    "name": "F#4",
                    "midi": 66,
                    "time": 17.97571,
                    "velocity": 0.44881889763779526,
                    "duration": 0.242915
                },
                {
                    "name": "G#4",
                    "midi": 68,
                    "time": 18.218625,
                    "velocity": 0.47244094488188976,
                    "duration": 0.728745
                },
                {
                    "name": "B4",
                    "midi": 71,
                    "time": 18.46154,
                    "velocity": 0.5511811023622047,
                    "duration": 0.48583
                },
                {
                    "name": "A4",
                    "midi": 69,
                    "time": 18.94737,
                    "velocity": 0.4566929133858268,
                    "duration": 1.45749
                },
                {
                    "name": "F#4",
                    "midi": 66,
                    "time": 22.34818,
                    "velocity": 0.36220472440944884,
                    "duration": 0.48583
                },
                {
                    "name": "G3",
                    "midi": 55,
                    "time": 22.83401,
                    "velocity": 0.2755905511811024,
                    "duration": 0.48583
                },
                {
                    "name": "G4",
                    "midi": 67,
                    "time": 22.83401,
                    "velocity": 0.33070866141732286,
                    "duration": 0.48583
                },
                {
                    "name": "A4",
                    "midi": 69,
                    "time": 23.31984,
                    "velocity": 0.4015748031496063,
                    "duration": 0.48583
                },
                {
                    "name": "A3",
                    "midi": 57,
                    "time": 23.31984,
                    "velocity": 0.33858267716535434,
                    "duration": 0.48583
                },
                {
                    "name": "B3",
                    "midi": 59,
                    "time": 23.80567,
                    "velocity": 0.3543307086614173,
                    "duration": 0.48583
                },
                {
                    "name": "B4",
                    "midi": 71,
                    "time": 23.80567,
                    "velocity": 0.4251968503937008,
                    "duration": 0.48583
                },
                {
                    "name": "A4",
                    "midi": 69,
                    "time": 24.2915,
                    "velocity": 0.3779527559055118,
                    "duration": 0.48583
                },
                {
                    "name": "A3",
                    "midi": 57,
                    "time": 24.2915,
                    "velocity": 0.31496062992125984,
                    "duration": 0.48583
                },
                {
                    "name": "G3",
                    "midi": 55,
                    "time": 24.77733,
                    "velocity": 0.2755905511811024,
                    "duration": 0.48583
                },
                {
                    "name": "G4",
                    "midi": 67,
                    "time": 24.77733,
                    "velocity": 0.33070866141732286,
                    "duration": 0.48583
                },
                {
                    "name": "F#4",
                    "midi": 66,
                    "time": 25.26316,
                    "velocity": 0.3700787401574803,
                    "duration": 0.97166
                },
                {
                    "name": "F#3",
                    "midi": 54,
                    "time": 25.26316,
                    "velocity": 0.30708661417322836,
                    "duration": 0.97166
                },
                {
                    "name": "A4",
                    "midi": 69,
                    "time": 26.23482,
                    "velocity": 0.41732283464566927,
                    "duration": 0.48583
                },
                {
                    "name": "A3",
                    "midi": 57,
                    "time": 26.23482,
                    "velocity": 0.3543307086614173,
                    "duration": 0.48583
                },
                {
                    "name": "B4",
                    "midi": 71,
                    "time": 26.72065,
                    "velocity": 0.4330708661417323,
                    "duration": 0.48583
                },
                {
                    "name": "B3",
                    "midi": 59,
                    "time": 26.72065,
                    "velocity": 0.36220472440944884,
                    "duration": 0.48583
                },
                {
                    "name": "C#5",
                    "midi": 73,
                    "time": 27.20648,
                    "velocity": 0.4881889763779528,
                    "duration": 0.48583
                },
                {
                    "name": "C#4",
                    "midi": 61,
                    "time": 27.20648,
                    "velocity": 0.4094488188976378,
                    "duration": 0.48583
                },
                {
                    "name": "D4",
                    "midi": 62,
                    "time": 27.69231,
                    "velocity": 0.4330708661417323,
                    "duration": 0.48583
                },
                {
                    "name": "D5",
                    "midi": 74,
                    "time": 27.69231,
                    "velocity": 0.5118110236220472,
                    "duration": 0.48583
                },
                {
                    "name": "C#5",
                    "midi": 73,
                    "time": 28.17814,
                    "velocity": 0.4566929133858268,
                    "duration": 0.48583
                },
                {
                    "name": "C#4",
                    "midi": 61,
                    "time": 28.17814,
                    "velocity": 0.3858267716535433,
                    "duration": 0.48583
                },
                {
                    "name": "B4",
                    "midi": 71,
                    "time": 28.66397,
                    "velocity": 0.4409448818897638,
                    "duration": 0.48583
                },
                {
                    "name": "B3",
                    "midi": 59,
                    "time": 28.66397,
                    "velocity": 0.3700787401574803,
                    "duration": 0.48583
                },
                {
                    "name": "E5",
                    "midi": 76,
                    "time": 29.1498,
                    "velocity": 0.49606299212598426,
                    "duration": 0.48583
                },
                {
                    "name": "E4",
                    "midi": 64,
                    "time": 29.1498,
                    "velocity": 0.41732283464566927,
                    "duration": 0.48583
                },
                {
                    "name": "F#5",
                    "midi": 78,
                    "time": 29.63563,
                    "velocity": 0.5196850393700787,
                    "duration": 0.48583
                },
                {
                    "name": "F#4",
                    "midi": 66,
                    "time": 29.63563,
                    "velocity": 0.4409448818897638,
                    "duration": 0.48583
                },
                {
                    "name": "E4",
                    "midi": 64,
                    "time": 30.12146,
                    "velocity": 0.4330708661417323,
                    "duration": 0.242915
                },
                {
                    "name": "E5",
                    "midi": 76,
                    "time": 30.12146,
                    "velocity": 0.5118110236220472,
                    "duration": 0.242915
                },
                {
                    "name": "D#5",
                    "midi": 75,
                    "time": 30.364375,
                    "velocity": 0.41732283464566927,
                    "duration": 0.242915
                },
                {
                    "name": "D#4",
                    "midi": 63,
                    "time": 30.364375,
                    "velocity": 0.3543307086614173,
                    "duration": 0.242915
                },
                {
                    "name": "C#5",
                    "midi": 73,
                    "time": 30.60729,
                    "velocity": 0.4330708661417323,
                    "duration": 0.12145749999999822
                },
                {
                    "name": "C#4",
                    "midi": 61,
                    "time": 30.60729,
                    "velocity": 0.36220472440944884,
                    "duration": 0.12145749999999822
                },
                {
                    "name": "B3",
                    "midi": 59,
                    "time": 30.850204999999995,
                    "velocity": 0.33070866141732286,
                    "duration": 0.12145749999999822
                },
                {
                    "name": "B4",
                    "midi": 71,
                    "time": 30.850204999999995,
                    "velocity": 0.3937007874015748,
                    "duration": 0.12145749999999822
                },
                {
                    "name": "D5",
                    "midi": 74,
                    "time": 31.093119999999992,
                    "velocity": 0.44881889763779526,
                    "duration": 0.48583
                },
                {
                    "name": "D4",
                    "midi": 62,
                    "time": 31.093119999999992,
                    "velocity": 0.3779527559055118,
                    "duration": 0.48583
                },
                {
                    "name": "E5",
                    "midi": 76,
                    "time": 31.578949999999992,
                    "velocity": 0.4566929133858268,
                    "duration": 0.48583
                },
                {
                    "name": "E4",
                    "midi": 64,
                    "time": 31.578949999999992,
                    "velocity": 0.3858267716535433,
                    "duration": 0.48583
                },
                {
                    "name": "D4",
                    "midi": 62,
                    "time": 32.06477999999999,
                    "velocity": 0.4094488188976378,
                    "duration": 0.24291500000000354
                },
                {
                    "name": "D5",
                    "midi": 74,
                    "time": 32.06477999999999,
                    "velocity": 0.4881889763779528,
                    "duration": 0.24291500000000354
                },
                {
                    "name": "C#5",
                    "midi": 73,
                    "time": 32.307694999999995,
                    "velocity": 0.44881889763779526,
                    "duration": 0.24291499999999644
                },
                {
                    "name": "C#4",
                    "midi": 61,
                    "time": 32.307694999999995,
                    "velocity": 0.3779527559055118,
                    "duration": 0.24291499999999644
                },
                {
                    "name": "B3",
                    "midi": 59,
                    "time": 32.55060999999999,
                    "velocity": 0.33070866141732286,
                    "duration": 0.12145749999999822
                },
                {
                    "name": "B4",
                    "midi": 71,
                    "time": 32.55060999999999,
                    "velocity": 0.3937007874015748,
                    "duration": 0.12145749999999822
                },
                {
                    "name": "C#4",
                    "midi": 61,
                    "time": 32.79352499999999,
                    "velocity": 0.33070866141732286,
                    "duration": 0.12145749999999822
                },
                {
                    "name": "C#5",
                    "midi": 73,
                    "time": 32.79352499999999,
                    "velocity": 0.3937007874015748,
                    "duration": 0.12145749999999822
                },
                {
                    "name": "D4",
                    "midi": 62,
                    "time": 33.036439999999985,
                    "velocity": 0.33070866141732286,
                    "duration": 0.48583
                },
                {
                    "name": "D5",
                    "midi": 74,
                    "time": 33.036439999999985,
                    "velocity": 0.3937007874015748,
                    "duration": 0.48583
                },
                {
                    "name": "C#5",
                    "midi": 73,
                    "time": 33.522269999999985,
                    "velocity": 0.3700787401574803,
                    "duration": 0.48583
                },
                {
                    "name": "C#4",
                    "midi": 61,
                    "time": 33.522269999999985,
                    "velocity": 0.30708661417322836,
                    "duration": 0.48583
                },
                {
                    "name": "B3",
                    "midi": 59,
                    "time": 34.008099999999985,
                    "velocity": 0.33070866141732286,
                    "duration": 0.48583
                },
                {
                    "name": "B4",
                    "midi": 71,
                    "time": 34.008099999999985,
                    "velocity": 0.3937007874015748,
                    "duration": 0.48583
                },
                {
                    "name": "E5",
                    "midi": 76,
                    "time": 34.493929999999985,
                    "velocity": 0.36220472440944884,
                    "duration": 0.48583
                },
                {
                    "name": "E4",
                    "midi": 64,
                    "time": 34.493929999999985,
                    "velocity": 0.30708661417322836,
                    "duration": 0.48583
                },
                {
                    "name": "D5",
                    "midi": 74,
                    "time": 34.979759999999985,
                    "velocity": 0.4330708661417323,
                    "duration": 0.48583
                },
                {
                    "name": "D4",
                    "midi": 62,
                    "time": 34.979759999999985,
                    "velocity": 0.36220472440944884,
                    "duration": 0.48583
                },
                {
                    "name": "C#4",
                    "midi": 61,
                    "time": 35.465589999999985,
                    "velocity": 0.33070866141732286,
                    "duration": 0.48583
                },
                {
                    "name": "C#5",
                    "midi": 73,
                    "time": 35.465589999999985,
                    "velocity": 0.3937007874015748,
                    "duration": 0.48583
                },
                {
                    "name": "B4",
                    "midi": 71,
                    "time": 35.951419999999985,
                    "velocity": 0.4251968503937008,
                    "duration": 0.7287450000000035
                },
                {
                    "name": "B3",
                    "midi": 59,
                    "time": 35.951419999999985,
                    "velocity": 0.3543307086614173,
                    "duration": 0.7287450000000035
                },
                {
                    "name": "B4",
                    "midi": 71,
                    "time": 36.68016499999999,
                    "velocity": 0.3937007874015748,
                    "duration": 0.24291499999999644
                },
                {
                    "name": "A#4",
                    "midi": 70,
                    "time": 36.923079999999985,
                    "velocity": 0.4566929133858268,
                    "duration": 0.24291499999999644
                },
                {
                    "name": "G#4",
                    "midi": 68,
                    "time": 37.16599499999998,
                    "velocity": 0.4094488188976378,
                    "duration": 0.24291499999999644
                },
                {
                    "name": "B4",
                    "midi": 71,
                    "time": 37.16599499999998,
                    "velocity": 0.4881889763779528,
                    "duration": 0.24291499999999644
                },
                {
                    "name": "A4",
                    "midi": 69,
                    "time": 37.40890999999998,
                    "velocity": 0.4251968503937008,
                    "duration": 0.24291499999999644
                },
                {
                    "name": "C#5",
                    "midi": 73,
                    "time": 37.40890999999998,
                    "velocity": 0.5039370078740157,
                    "duration": 0.24291499999999644
                },
                {
                    "name": "B4",
                    "midi": 71,
                    "time": 37.651824999999974,
                    "velocity": 0.4566929133858268,
                    "duration": 0.24291499999999644
                },
                {
                    "name": "D5",
                    "midi": 74,
                    "time": 37.651824999999974,
                    "velocity": 0.5433070866141733,
                    "duration": 0.24291499999999644
                },
                {
                    "name": "F#5",
                    "midi": 78,
                    "time": 37.89473999999997,
                    "velocity": 0.5590551181102362,
                    "duration": 0.24291499999999644
                },
                {
                    "name": "D5",
                    "midi": 74,
                    "time": 37.89473999999997,
                    "velocity": 0.47244094488188976,
                    "duration": 0.24291499999999644
                },
                {
                    "name": "C#5",
                    "midi": 73,
                    "time": 38.13765499999997,
                    "velocity": 0.47244094488188976,
                    "duration": 0.24291499999999644
                },
                {
                    "name": "E5",
                    "midi": 76,
                    "time": 38.13765499999997,
                    "velocity": 0.5669291338582677,
                    "duration": 0.24291499999999644
                },
                {
                    "name": "D5",
                    "midi": 74,
                    "time": 38.38056999999996,
                    "velocity": 0.5196850393700787,
                    "duration": 0.24291499999999644
                },
                {
                    "name": "B4",
                    "midi": 71,
                    "time": 38.38056999999996,
                    "velocity": 0.4409448818897638,
                    "duration": 0.24291499999999644
                },
                {
                    "name": "C#5",
                    "midi": 73,
                    "time": 38.62348499999996,
                    "velocity": 0.5039370078740157,
                    "duration": 0.24291499999999644
                },
                {
                    "name": "A4",
                    "midi": 69,
                    "time": 38.62348499999996,
                    "velocity": 0.4251968503937008,
                    "duration": 0.24291499999999644
                },
                {
                    "name": "E5",
                    "midi": 76,
                    "time": 38.866399999999956,
                    "velocity": 0.5039370078740157,
                    "duration": 0.24291499999999644
                },
                {
                    "name": "C#5",
                    "midi": 73,
                    "time": 38.866399999999956,
                    "velocity": 0.4251968503937008,
                    "duration": 0.24291499999999644
                },
                {
                    "name": "D5",
                    "midi": 74,
                    "time": 39.10931499999995,
                    "velocity": 0.4094488188976378,
                    "duration": 0.24291499999999644
                },
                {
                    "name": "F#4",
                    "midi": 66,
                    "time": 39.35222999999995,
                    "velocity": 0.44881889763779526,
                    "duration": 0.24291499999999644
                },
                {
                    "name": "G#4",
                    "midi": 68,
                    "time": 39.595144999999945,
                    "velocity": 0.47244094488188976,
                    "duration": 0.7287449999999964
                },
                {
                    "name": "B4",
                    "midi": 71,
                    "time": 39.83805999999994,
                    "velocity": 0.5511811023622047,
                    "duration": 0.48583
                },
                {
                    "name": "A4",
                    "midi": 69,
                    "time": 40.32388999999994,
                    "velocity": 0.4566929133858268,
                    "duration": 1.45749
                },
                {
                    "name": "C5",
                    "midi": 72,
                    "time": 43.72469999999994,
                    "velocity": 0.5118110236220472,
                    "duration": 0.4615385000000032
                },
                {
                    "name": "A4",
                    "midi": 69,
                    "time": 43.72469999999994,
                    "velocity": 0.4330708661417323,
                    "duration": 0.4615385000000032
                },
                {
                    "name": "F#4",
                    "midi": 66,
                    "time": 43.72469999999994,
                    "velocity": 0.4330708661417323,
                    "duration": 0.4615385000000032
                },
                {
                    "name": "C4",
                    "midi": 60,
                    "time": 43.72469999999994,
                    "velocity": 0.4330708661417323,
                    "duration": 0.4615385000000032
                },
                {
                    "name": "C5",
                    "midi": 72,
                    "time": 44.21052999999994,
                    "velocity": 0.49606299212598426,
                    "duration": 0.48583
                },
                {
                    "name": "A4",
                    "midi": 69,
                    "time": 44.21052999999994,
                    "velocity": 0.41732283464566927,
                    "duration": 0.48583
                },
                {
                    "name": "F#4",
                    "midi": 66,
                    "time": 44.21052999999994,
                    "velocity": 0.41732283464566927,
                    "duration": 0.48583
                },
                {
                    "name": "C4",
                    "midi": 60,
                    "time": 44.21052999999994,
                    "velocity": 0.41732283464566927,
                    "duration": 0.48583
                },
                {
                    "name": "B3",
                    "midi": 59,
                    "time": 44.69635999999994,
                    "velocity": 0.4645669291338583,
                    "duration": 0.97166
                },
                {
                    "name": "F#4",
                    "midi": 66,
                    "time": 44.69635999999994,
                    "velocity": 0.4645669291338583,
                    "duration": 0.97166
                },
                {
                    "name": "A4",
                    "midi": 69,
                    "time": 44.69635999999994,
                    "velocity": 0.4645669291338583,
                    "duration": 0.97166
                },
                {
                    "name": "B4",
                    "midi": 71,
                    "time": 44.69635999999994,
                    "velocity": 0.5511811023622047,
                    "duration": 0.97166
                },
                {
                    "name": "C5",
                    "midi": 72,
                    "time": 45.66801999999994,
                    "velocity": 0.5590551181102362,
                    "duration": 0.4615385000000032
                },
                {
                    "name": "A4",
                    "midi": 69,
                    "time": 45.66801999999994,
                    "velocity": 0.47244094488188976,
                    "duration": 0.4615385000000032
                },
                {
                    "name": "F#4",
                    "midi": 66,
                    "time": 45.66801999999994,
                    "velocity": 0.47244094488188976,
                    "duration": 0.4615385000000032
                },
                {
                    "name": "C4",
                    "midi": 60,
                    "time": 45.66801999999994,
                    "velocity": 0.47244094488188976,
                    "duration": 0.4615385000000032
                },
                {
                    "name": "C5",
                    "midi": 72,
                    "time": 46.15384999999994,
                    "velocity": 0.5433070866141733,
                    "duration": 0.48583
                },
                {
                    "name": "A4",
                    "midi": 69,
                    "time": 46.15384999999994,
                    "velocity": 0.4566929133858268,
                    "duration": 0.48583
                },
                {
                    "name": "F#4",
                    "midi": 66,
                    "time": 46.15384999999994,
                    "velocity": 0.4566929133858268,
                    "duration": 0.48583
                },
                {
                    "name": "C4",
                    "midi": 60,
                    "time": 46.15384999999994,
                    "velocity": 0.4566929133858268,
                    "duration": 0.48583
                },
                {
                    "name": "B3",
                    "midi": 59,
                    "time": 46.63967999999994,
                    "velocity": 0.5039370078740157,
                    "duration": 0.97166
                },
                {
                    "name": "F#4",
                    "midi": 66,
                    "time": 46.63967999999994,
                    "velocity": 0.5039370078740157,
                    "duration": 0.97166
                },
                {
                    "name": "A4",
                    "midi": 69,
                    "time": 46.63967999999994,
                    "velocity": 0.5039370078740157,
                    "duration": 0.97166
                },
                {
                    "name": "B4",
                    "midi": 71,
                    "time": 46.63967999999994,
                    "velocity": 0.6062992125984252,
                    "duration": 0.97166
                },
                {
                    "name": "D5",
                    "midi": 74,
                    "time": 47.61133999999994,
                    "velocity": 0.6141732283464567,
                    "duration": 0.4615385000000032
                },
                {
                    "name": "B4",
                    "midi": 71,
                    "time": 47.61133999999994,
                    "velocity": 0.5196850393700787,
                    "duration": 0.4615385000000032
                },
                {
                    "name": "G#4",
                    "midi": 68,
                    "time": 47.61133999999994,
                    "velocity": 0.5196850393700787,
                    "duration": 0.4615385000000032
                },
                {
                    "name": "D4",
                    "midi": 62,
                    "time": 47.61133999999994,
                    "velocity": 0.5196850393700787,
                    "duration": 0.4615385000000032
                },
                {
                    "name": "D5",
                    "midi": 74,
                    "time": 48.09716999999994,
                    "velocity": 0.5905511811023622,
                    "duration": 0.48583
                },
                {
                    "name": "B4",
                    "midi": 71,
                    "time": 48.09716999999994,
                    "velocity": 0.49606299212598426,
                    "duration": 0.48583
                },
                {
                    "name": "G#4",
                    "midi": 68,
                    "time": 48.09716999999994,
                    "velocity": 0.49606299212598426,
                    "duration": 0.48583
                },
                {
                    "name": "D4",
                    "midi": 62,
                    "time": 48.09716999999994,
                    "velocity": 0.49606299212598426,
                    "duration": 0.48583
                },
                {
                    "name": "C#4",
                    "midi": 61,
                    "time": 48.58299999999994,
                    "velocity": 0.5511811023622047,
                    "duration": 0.97166
                },
                {
                    "name": "G#4",
                    "midi": 68,
                    "time": 48.58299999999994,
                    "velocity": 0.5511811023622047,
                    "duration": 0.97166
                },
                {
                    "name": "B4",
                    "midi": 71,
                    "time": 48.58299999999994,
                    "velocity": 0.5511811023622047,
                    "duration": 0.97166
                },
                {
                    "name": "C#5",
                    "midi": 73,
                    "time": 48.58299999999994,
                    "velocity": 0.6614173228346457,
                    "duration": 0.97166
                },
                {
                    "name": "D5",
                    "midi": 74,
                    "time": 49.55465999999994,
                    "velocity": 0.6692913385826772,
                    "duration": 0.4615385000000032
                },
                {
                    "name": "B4",
                    "midi": 71,
                    "time": 49.55465999999994,
                    "velocity": 0.5669291338582677,
                    "duration": 0.4615385000000032
                },
                {
                    "name": "G#4",
                    "midi": 68,
                    "time": 49.55465999999994,
                    "velocity": 0.5669291338582677,
                    "duration": 0.4615385000000032
                },
                {
                    "name": "D4",
                    "midi": 62,
                    "time": 49.55465999999994,
                    "velocity": 0.5669291338582677,
                    "duration": 0.4615385000000032
                },
                {
                    "name": "D5",
                    "midi": 74,
                    "time": 50.04048999999994,
                    "velocity": 0.6456692913385826,
                    "duration": 0.48583
                },
                {
                    "name": "B4",
                    "midi": 71,
                    "time": 50.04048999999994,
                    "velocity": 0.5433070866141733,
                    "duration": 0.48583
                },
                {
                    "name": "G#4",
                    "midi": 68,
                    "time": 50.04048999999994,
                    "velocity": 0.5433070866141733,
                    "duration": 0.48583
                },
                {
                    "name": "D4",
                    "midi": 62,
                    "time": 50.04048999999994,
                    "velocity": 0.5433070866141733,
                    "duration": 0.48583
                },
                {
                    "name": "C#4",
                    "midi": 61,
                    "time": 50.52631999999994,
                    "velocity": 0.6062992125984252,
                    "duration": 0.97166
                },
                {
                    "name": "G#4",
                    "midi": 68,
                    "time": 50.52631999999994,
                    "velocity": 0.6062992125984252,
                    "duration": 0.97166
                },
                {
                    "name": "B4",
                    "midi": 71,
                    "time": 50.52631999999994,
                    "velocity": 0.6062992125984252,
                    "duration": 0.97166
                },
                {
                    "name": "C#5",
                    "midi": 73,
                    "time": 50.52631999999994,
                    "velocity": 0.7244094488188977,
                    "duration": 0.97166
                },
                {
                    "name": "F#5",
                    "midi": 78,
                    "time": 51.49797999999994,
                    "velocity": 0.7007874015748031,
                    "duration": 0.4615385000000032
                },
                {
                    "name": "F#5",
                    "midi": 78,
                    "time": 51.98380999999994,
                    "velocity": 0.6377952755905512,
                    "duration": 0.48583
                },
                {
                    "name": "F#4",
                    "midi": 66,
                    "time": 51.98380999999994,
                    "velocity": 0.5354330708661418,
                    "duration": 0.48583
                },
                {
                    "name": "G4",
                    "midi": 67,
                    "time": 52.46963999999994,
                    "velocity": 0.6141732283464567,
                    "duration": 0.48583
                },
                {
                    "name": "F#5",
                    "midi": 78,
                    "time": 52.46963999999994,
                    "velocity": 0.7401574803149606,
                    "duration": 0.48583
                },
                {
                    "name": "E5",
                    "midi": 76,
                    "time": 52.95546999999994,
                    "velocity": 0.5826771653543307,
                    "duration": 0.4615385000000032
                },
                {
                    "name": "G#4",
                    "midi": 68,
                    "time": 52.95546999999994,
                    "velocity": 0.4881889763779528,
                    "duration": 0.4615385000000032
                },
                {
                    "name": "E5",
                    "midi": 76,
                    "time": 53.44129999999994,
                    "velocity": 0.6692913385826772,
                    "duration": 0.48583
                },
                {
                    "name": "A4",
                    "midi": 69,
                    "time": 53.44129999999994,
                    "velocity": 0.5669291338582677,
                    "duration": 0.48583
                },
                {
                    "name": "D5",
                    "midi": 74,
                    "time": 53.92712999999994,
                    "velocity": 0.6062992125984252,
                    "duration": 0.24291500000000354
                },
                {
                    "name": "A#4",
                    "midi": 70,
                    "time": 53.92712999999994,
                    "velocity": 0.5118110236220472,
                    "duration": 0.48583
                },
                {
                    "name": "C#5",
                    "midi": 73,
                    "time": 54.170044999999945,
                    "velocity": 0.5590551181102362,
                    "duration": 0.24291499999999644
                },
                {
                    "name": "B4",
                    "midi": 71,
                    "time": 54.41295999999994,
                    "velocity": 0.6141732283464567,
                    "duration": 0.24291499999999644
                },
                {
                    "name": "C#5",
                    "midi": 73,
                    "time": 54.65587499999994,
                    "velocity": 0.6141732283464567,
                    "duration": 0.24291499999999644
                },
                {
                    "name": "A4",
                    "midi": 69,
                    "time": 54.65587499999994,
                    "velocity": 0.5196850393700787,
                    "duration": 0.24291499999999644
                },
                {
                    "name": "G#4",
                    "midi": 68,
                    "time": 54.898789999999934,
                    "velocity": 0.5433070866141733,
                    "duration": 0.24291499999999644
                },
                {
                    "name": "D5",
                    "midi": 74,
                    "time": 54.898789999999934,
                    "velocity": 0.6456692913385826,
                    "duration": 0.4858299999999929
                },
                {
                    "name": "F#4",
                    "midi": 66,
                    "time": 55.14170499999993,
                    "velocity": 0.4881889763779528,
                    "duration": 0.24291499999999644
                },
                {
                    "name": "F4",
                    "midi": 65,
                    "time": 55.38461999999993,
                    "velocity": 0.5354330708661418,
                    "duration": 0.48583
                },
                {
                    "name": "C#5",
                    "midi": 73,
                    "time": 55.38461999999993,
                    "velocity": 0.7007874015748031,
                    "duration": 0.4615385000000032
                },
                {
                    "name": "C#5",
                    "midi": 73,
                    "time": 55.87044999999993,
                    "velocity": 0.6377952755905512,
                    "duration": 0.48583
                },
                {
                    "name": "C#4",
                    "midi": 61,
                    "time": 55.87044999999993,
                    "velocity": 0.5354330708661418,
                    "duration": 0.48583
                },
                {
                    "name": "D4",
                    "midi": 62,
                    "time": 56.35627999999993,
                    "velocity": 0.6141732283464567,
                    "duration": 0.48583
                },
                {
                    "name": "C#5",
                    "midi": 73,
                    "time": 56.35627999999993,
                    "velocity": 0.7401574803149606,
                    "duration": 0.48583
                },
                {
                    "name": "B4",
                    "midi": 71,
                    "time": 56.84210999999993,
                    "velocity": 0.5826771653543307,
                    "duration": 0.4615385000000032
                },
                {
                    "name": "D#4",
                    "midi": 63,
                    "time": 56.84210999999993,
                    "velocity": 0.4881889763779528,
                    "duration": 0.4615385000000032
                },
                {
                    "name": "B4",
                    "midi": 71,
                    "time": 57.32793999999993,
                    "velocity": 0.6692913385826772,
                    "duration": 0.48583
                },
                {
                    "name": "E4",
                    "midi": 64,
                    "time": 57.32793999999993,
                    "velocity": 0.5669291338582677,
                    "duration": 0.48583
                },
                {
                    "name": "A4",
                    "midi": 69,
                    "time": 57.81376999999993,
                    "velocity": 0.6062992125984252,
                    "duration": 0.24291500000000354
                },
                {
                    "name": "F4",
                    "midi": 65,
                    "time": 57.81376999999993,
                    "velocity": 0.5118110236220472,
                    "duration": 0.48583
                },
                {
                    "name": "G#4",
                    "midi": 68,
                    "time": 58.05668499999993,
                    "velocity": 0.5590551181102362,
                    "duration": 0.24291499999999644
                },
                {
                    "name": "F#4",
                    "midi": 66,
                    "time": 58.29959999999993,
                    "velocity": 0.6141732283464567,
                    "duration": 0.24291499999999644
                },
                {
                    "name": "G#4",
                    "midi": 68,
                    "time": 58.54251499999992,
                    "velocity": 0.6141732283464567,
                    "duration": 0.24291499999999644
                },
                {
                    "name": "E4",
                    "midi": 64,
                    "time": 58.54251499999992,
                    "velocity": 0.5196850393700787,
                    "duration": 0.24291499999999644
                },
                {
                    "name": "D4",
                    "midi": 62,
                    "time": 58.78542999999992,
                    "velocity": 0.5433070866141733,
                    "duration": 0.24291499999999644
                },
                {
                    "name": "A4",
                    "midi": 69,
                    "time": 58.78542999999992,
                    "velocity": 0.6456692913385826,
                    "duration": 0.4858299999999929
                },
                {
                    "name": "C#4",
                    "midi": 61,
                    "time": 59.028344999999916,
                    "velocity": 0.4881889763779528,
                    "duration": 0.24291499999999644
                },
                {
                    "name": "A4",
                    "midi": 69,
                    "time": 59.27125999999991,
                    "velocity": 0.6692913385826772,
                    "duration": 0.4615385000000032
                },
                {
                    "name": "F#4",
                    "midi": 66,
                    "time": 59.27125999999991,
                    "velocity": 0.5669291338582677,
                    "duration": 0.4615385000000032
                },
                {
                    "name": "D4",
                    "midi": 62,
                    "time": 59.27125999999991,
                    "velocity": 0.5669291338582677,
                    "duration": 0.4615385000000032
                },
                {
                    "name": "B4",
                    "midi": 71,
                    "time": 59.75708999999991,
                    "velocity": 0.6456692913385826,
                    "duration": 0.48583
                },
                {
                    "name": "F#4",
                    "midi": 66,
                    "time": 59.75708999999991,
                    "velocity": 0.5433070866141733,
                    "duration": 0.48583
                },
                {
                    "name": "D4",
                    "midi": 62,
                    "time": 59.75708999999991,
                    "velocity": 0.5433070866141733,
                    "duration": 0.48583
                },
                {
                    "name": "B3",
                    "midi": 59,
                    "time": 59.75708999999991,
                    "velocity": 0.5433070866141733,
                    "duration": 0.48583
                },
                {
                    "name": "C#4",
                    "midi": 61,
                    "time": 60.24291999999991,
                    "velocity": 0.6062992125984252,
                    "duration": 0.97166
                },
                {
                    "name": "F#4",
                    "midi": 66,
                    "time": 60.24291999999991,
                    "velocity": 0.6062992125984252,
                    "duration": 0.97166
                },
                {
                    "name": "A4",
                    "midi": 69,
                    "time": 60.24291999999991,
                    "velocity": 0.6062992125984252,
                    "duration": 0.97166
                },
                {
                    "name": "C#5",
                    "midi": 73,
                    "time": 60.24291999999991,
                    "velocity": 0.7244094488188977,
                    "duration": 0.97166
                },
                {
                    "name": "A4",
                    "midi": 69,
                    "time": 61.21457999999991,
                    "velocity": 0.6771653543307087,
                    "duration": 0.4615385000000032
                },
                {
                    "name": "F#4",
                    "midi": 66,
                    "time": 61.21457999999991,
                    "velocity": 0.5748031496062992,
                    "duration": 0.4615385000000032
                },
                {
                    "name": "D4",
                    "midi": 62,
                    "time": 61.21457999999991,
                    "velocity": 0.5748031496062992,
                    "duration": 0.4615385000000032
                },
                {
                    "name": "B4",
                    "midi": 71,
                    "time": 61.70040999999991,
                    "velocity": 0.6535433070866141,
                    "duration": 0.48583
                },
                {
                    "name": "F#4",
                    "midi": 66,
                    "time": 61.70040999999991,
                    "velocity": 0.5511811023622047,
                    "duration": 0.48583
                },
                {
                    "name": "D4",
                    "midi": 62,
                    "time": 61.70040999999991,
                    "velocity": 0.5511811023622047,
                    "duration": 0.48583
                },
                {
                    "name": "B3",
                    "midi": 59,
                    "time": 61.70040999999991,
                    "velocity": 0.5511811023622047,
                    "duration": 0.48583
                },
                {
                    "name": "C#4",
                    "midi": 61,
                    "time": 62.18623999999991,
                    "velocity": 0.6141732283464567,
                    "duration": 0.97166
                },
                {
                    "name": "F#4",
                    "midi": 66,
                    "time": 62.18623999999991,
                    "velocity": 0.6141732283464567,
                    "duration": 0.97166
                },
                {
                    "name": "A4",
                    "midi": 69,
                    "time": 62.18623999999991,
                    "velocity": 0.6141732283464567,
                    "duration": 0.97166
                },
                {
                    "name": "C#5",
                    "midi": 73,
                    "time": 62.18623999999991,
                    "velocity": 0.7322834645669292,
                    "duration": 0.97166
                },
                {
                    "name": "A4",
                    "midi": 69,
                    "time": 63.15789999999991,
                    "velocity": 0.6771653543307087,
                    "duration": 0.4615385000000032
                },
                {
                    "name": "F#4",
                    "midi": 66,
                    "time": 63.15789999999991,
                    "velocity": 0.5748031496062992,
                    "duration": 0.4615385000000032
                },
                {
                    "name": "D4",
                    "midi": 62,
                    "time": 63.15789999999991,
                    "velocity": 0.5748031496062992,
                    "duration": 0.4615385000000032
                },
                {
                    "name": "B4",
                    "midi": 71,
                    "time": 63.64372999999991,
                    "velocity": 0.6929133858267716,
                    "duration": 0.48583
                },
                {
                    "name": "F#4",
                    "midi": 66,
                    "time": 63.64372999999991,
                    "velocity": 0.5826771653543307,
                    "duration": 0.48583
                },
                {
                    "name": "D4",
                    "midi": 62,
                    "time": 63.64372999999991,
                    "velocity": 0.5826771653543307,
                    "duration": 0.48583
                },
                {
                    "name": "B3",
                    "midi": 59,
                    "time": 63.64372999999991,
                    "velocity": 0.5826771653543307,
                    "duration": 0.48583
                },
                {
                    "name": "C#4",
                    "midi": 61,
                    "time": 64.12955999999991,
                    "velocity": 0.7007874015748031,
                    "duration": 2.91498
                },
                {
                    "name": "F#4",
                    "midi": 66,
                    "time": 64.12955999999991,
                    "velocity": 0.7007874015748031,
                    "duration": 2.91498
                },
                {
                    "name": "A4",
                    "midi": 69,
                    "time": 64.12955999999991,
                    "velocity": 0.7007874015748031,
                    "duration": 2.91498
                },
                {
                    "name": "C#5",
                    "midi": 73,
                    "time": 64.12955999999991,
                    "velocity": 0.8346456692913385,
                    "duration": 2.91498
                },
                {
                    "name": "F#4",
                    "midi": 66,
                    "time": 67.04453999999991,
                    "velocity": 0.36220472440944884,
                    "duration": 0.4858300000000071
                },
                {
                    "name": "G3",
                    "midi": 55,
                    "time": 67.53036999999992,
                    "velocity": 0.2755905511811024,
                    "duration": 0.4858299999999929
                },
                {
                    "name": "G4",
                    "midi": 67,
                    "time": 67.53036999999992,
                    "velocity": 0.33070866141732286,
                    "duration": 0.4858299999999929
                },
                {
                    "name": "A4",
                    "midi": 69,
                    "time": 68.01619999999991,
                    "velocity": 0.4015748031496063,
                    "duration": 0.4858299999999929
                },
                {
                    "name": "A3",
                    "midi": 57,
                    "time": 68.01619999999991,
                    "velocity": 0.33858267716535434,
                    "duration": 0.4858299999999929
                },
                {
                    "name": "B3",
                    "midi": 59,
                    "time": 68.5020299999999,
                    "velocity": 0.3543307086614173,
                    "duration": 0.4858299999999929
                },
                {
                    "name": "B4",
                    "midi": 71,
                    "time": 68.5020299999999,
                    "velocity": 0.4251968503937008,
                    "duration": 0.4858299999999929
                },
                {
                    "name": "A4",
                    "midi": 69,
                    "time": 68.9878599999999,
                    "velocity": 0.3779527559055118,
                    "duration": 0.4858299999999929
                },
                {
                    "name": "A3",
                    "midi": 57,
                    "time": 68.9878599999999,
                    "velocity": 0.31496062992125984,
                    "duration": 0.4858299999999929
                },
                {
                    "name": "G3",
                    "midi": 55,
                    "time": 69.47368999999989,
                    "velocity": 0.2755905511811024,
                    "duration": 0.4858299999999929
                },
                {
                    "name": "G4",
                    "midi": 67,
                    "time": 69.47368999999989,
                    "velocity": 0.33070866141732286,
                    "duration": 0.4858299999999929
                },
                {
                    "name": "F#4",
                    "midi": 66,
                    "time": 69.95951999999988,
                    "velocity": 0.3700787401574803,
                    "duration": 0.97166
                },
                {
                    "name": "F#3",
                    "midi": 54,
                    "time": 69.95951999999988,
                    "velocity": 0.30708661417322836,
                    "duration": 0.97166
                },
                {
                    "name": "F#4",
                    "midi": 66,
                    "time": 70.93117999999988,
                    "velocity": 0.41732283464566927,
                    "duration": 0.4858300000000071
                },
                {
                    "name": "F#3",
                    "midi": 54,
                    "time": 70.93117999999988,
                    "velocity": 0.3543307086614173,
                    "duration": 0.4858300000000071
                },
                {
                    "name": "G4",
                    "midi": 67,
                    "time": 71.41700999999989,
                    "velocity": 0.4330708661417323,
                    "duration": 0.4858299999999929
                },
                {
                    "name": "G3",
                    "midi": 55,
                    "time": 71.41700999999989,
                    "velocity": 0.36220472440944884,
                    "duration": 0.4858299999999929
                },
                {
                    "name": "A4",
                    "midi": 69,
                    "time": 71.90283999999988,
                    "velocity": 0.4881889763779528,
                    "duration": 0.4858299999999929
                },
                {
                    "name": "A3",
                    "midi": 57,
                    "time": 71.90283999999988,
                    "velocity": 0.4094488188976378,
                    "duration": 0.4858299999999929
                },
                {
                    "name": "B3",
                    "midi": 59,
                    "time": 72.38866999999988,
                    "velocity": 0.4330708661417323,
                    "duration": 0.4858299999999929
                },
                {
                    "name": "B4",
                    "midi": 71,
                    "time": 72.38866999999988,
                    "velocity": 0.5118110236220472,
                    "duration": 0.4858299999999929
                },
                {
                    "name": "C5",
                    "midi": 72,
                    "time": 72.87449999999987,
                    "velocity": 0.6062992125984252,
                    "duration": 0.4858299999999929
                },
                {
                    "name": "C4",
                    "midi": 60,
                    "time": 72.87449999999987,
                    "velocity": 0.5118110236220472,
                    "duration": 0.4858299999999929
                },
                {
                    "name": "D5",
                    "midi": 74,
                    "time": 73.36032999999986,
                    "velocity": 0.5748031496062992,
                    "duration": 0.4858299999999929
                },
                {
                    "name": "D4",
                    "midi": 62,
                    "time": 73.36032999999986,
                    "velocity": 0.4881889763779528,
                    "duration": 0.4858299999999929
                },
                {
                    "name": "B4",
                    "midi": 71,
                    "time": 73.84615999999986,
                    "velocity": 0.6456692913385826,
                    "duration": 0.97166
                },
                {
                    "name": "B3",
                    "midi": 59,
                    "time": 73.84615999999986,
                    "velocity": 0.5118110236220472,
                    "duration": 2.914980000000014
                },
                {
                    "name": "A4",
                    "midi": 69,
                    "time": 74.81781999999986,
                    "velocity": 0.5669291338582677,
                    "duration": 0.4858300000000071
                },
                {
                    "name": "B4",
                    "midi": 71,
                    "time": 75.30364999999986,
                    "velocity": 0.5905511811023622,
                    "duration": 0.4858299999999929
                },
                {
                    "name": "A4",
                    "midi": 69,
                    "time": 75.78947999999986,
                    "velocity": 0.5826771653543307,
                    "duration": 0.24291499999999644
                },
                {
                    "name": "G#4",
                    "midi": 68,
                    "time": 76.03239499999985,
                    "velocity": 0.47244094488188976,
                    "duration": 0.24291499999999644
                },
                {
                    "name": "F#4",
                    "midi": 66,
                    "time": 76.27530999999985,
                    "velocity": 0.49606299212598426,
                    "duration": 0.12145750000000533
                },
                {
                    "name": "E4",
                    "midi": 64,
                    "time": 76.51822499999986,
                    "velocity": 0.44881889763779526,
                    "duration": 0.12145750000000533
                },
                {
                    "name": "A3",
                    "midi": 57,
                    "time": 76.76113999999987,
                    "velocity": 0.49606299212598426,
                    "duration": 1.94332
                },
                {
                    "name": "G4",
                    "midi": 67,
                    "time": 76.76113999999987,
                    "velocity": 0.5669291338582677,
                    "duration": 0.4858299999999929
                },
                {
                    "name": "A4",
                    "midi": 69,
                    "time": 77.24696999999986,
                    "velocity": 0.5905511811023622,
                    "duration": 0.4858299999999929
                },
                {
                    "name": "G4",
                    "midi": 67,
                    "time": 77.73279999999986,
                    "velocity": 0.5826771653543307,
                    "duration": 0.24291499999999644
                },
                {
                    "name": "F#4",
                    "midi": 66,
                    "time": 77.97571499999985,
                    "velocity": 0.47244094488188976,
                    "duration": 0.24291499999999644
                },
                {
                    "name": "E4",
                    "midi": 64,
                    "time": 78.21862999999985,
                    "velocity": 0.49606299212598426,
                    "duration": 0.12145750000000533
                },
                {
                    "name": "F#4",
                    "midi": 66,
                    "time": 78.46154499999986,
                    "velocity": 0.44881889763779526,
                    "duration": 0.12145750000000533
                },
                {
                    "name": "D4",
                    "midi": 62,
                    "time": 78.70445999999987,
                    "velocity": 0.33070866141732286,
                    "duration": 0.4858299999999929
                },
                {
                    "name": "G4",
                    "midi": 67,
                    "time": 78.70445999999987,
                    "velocity": 0.3937007874015748,
                    "duration": 0.4858299999999929
                },
                {
                    "name": "F#4",
                    "midi": 66,
                    "time": 79.19028999999986,
                    "velocity": 0.3700787401574803,
                    "duration": 0.4858299999999929
                },
                {
                    "name": "A3",
                    "midi": 57,
                    "time": 79.19028999999986,
                    "velocity": 0.30708661417322836,
                    "duration": 0.4858299999999929
                },
                {
                    "name": "B3",
                    "midi": 59,
                    "time": 79.67611999999986,
                    "velocity": 0.33070866141732286,
                    "duration": 0.24291499999999644
                },
                {
                    "name": "E4",
                    "midi": 64,
                    "time": 79.67611999999986,
                    "velocity": 0.3937007874015748,
                    "duration": 0.4858299999999929
                },
                {
                    "name": "C#4",
                    "midi": 61,
                    "time": 79.91903499999985,
                    "velocity": 0.33070866141732286,
                    "duration": 0.24291499999999644
                },
                {
                    "name": "A4",
                    "midi": 69,
                    "time": 80.16194999999985,
                    "velocity": 0.36220472440944884,
                    "duration": 0.4858299999999929
                },
                {
                    "name": "D4",
                    "midi": 62,
                    "time": 80.16194999999985,
                    "velocity": 0.30708661417322836,
                    "duration": 0.4858299999999929
                },
                {
                    "name": "G4",
                    "midi": 67,
                    "time": 80.64777999999984,
                    "velocity": 0.4330708661417323,
                    "duration": 0.4858299999999929
                },
                {
                    "name": "D4",
                    "midi": 62,
                    "time": 80.64777999999984,
                    "velocity": 0.36220472440944884,
                    "duration": 0.4858299999999929
                },
                {
                    "name": "A3",
                    "midi": 57,
                    "time": 81.13360999999983,
                    "velocity": 0.33070866141732286,
                    "duration": 0.4858299999999929
                },
                {
                    "name": "F#4",
                    "midi": 66,
                    "time": 81.13360999999983,
                    "velocity": 0.3937007874015748,
                    "duration": 0.4858299999999929
                },
                {
                    "name": "E4",
                    "midi": 64,
                    "time": 81.61943999999983,
                    "velocity": 0.4251968503937008,
                    "duration": 0.7226721250000026
                },
                {
                    "name": "B3",
                    "midi": 59,
                    "time": 81.61943999999983,
                    "velocity": 0.3543307086614173,
                    "duration": 0.7287450000000035
                },
                {
                    "name": "E4",
                    "midi": 64,
                    "time": 82.34818499999983,
                    "velocity": 0.3937007874015748,
                    "duration": 0.24291499999999644
                },
                {
                    "name": "D#4",
                    "midi": 63,
                    "time": 82.59109999999983,
                    "velocity": 0.4566929133858268,
                    "duration": 0.24291499999999644
                },
                {
                    "name": "C#4",
                    "midi": 61,
                    "time": 82.83401499999982,
                    "velocity": 0.4094488188976378,
                    "duration": 0.24291499999999644
                },
                {
                    "name": "E4",
                    "midi": 64,
                    "time": 82.83401499999982,
                    "velocity": 0.4881889763779528,
                    "duration": 0.24291499999999644
                },
                {
                    "name": "D4",
                    "midi": 62,
                    "time": 83.07692999999982,
                    "velocity": 0.4251968503937008,
                    "duration": 0.24291499999999644
                },
                {
                    "name": "F#4",
                    "midi": 66,
                    "time": 83.07692999999982,
                    "velocity": 0.5039370078740157,
                    "duration": 0.24291499999999644
                },
                {
                    "name": "E4",
                    "midi": 64,
                    "time": 83.31984499999982,
                    "velocity": 0.4566929133858268,
                    "duration": 0.24291499999999644
                },
                {
                    "name": "G4",
                    "midi": 67,
                    "time": 83.31984499999982,
                    "velocity": 0.5433070866141733,
                    "duration": 0.24291499999999644
                },
                {
                    "name": "B4",
                    "midi": 71,
                    "time": 83.56275999999981,
                    "velocity": 0.5590551181102362,
                    "duration": 0.24291499999999644
                },
                {
                    "name": "G4",
                    "midi": 67,
                    "time": 83.56275999999981,
                    "velocity": 0.47244094488188976,
                    "duration": 0.24291499999999644
                },
                {
                    "name": "F#4",
                    "midi": 66,
                    "time": 83.80567499999981,
                    "velocity": 0.47244094488188976,
                    "duration": 0.24291499999999644
                },
                {
                    "name": "A4",
                    "midi": 69,
                    "time": 83.80567499999981,
                    "velocity": 0.5669291338582677,
                    "duration": 0.24291499999999644
                },
                {
                    "name": "G4",
                    "midi": 67,
                    "time": 84.0485899999998,
                    "velocity": 0.5196850393700787,
                    "duration": 0.24291499999999644
                },
                {
                    "name": "E4",
                    "midi": 64,
                    "time": 84.0485899999998,
                    "velocity": 0.4409448818897638,
                    "duration": 0.24291499999999644
                },
                {
                    "name": "F#4",
                    "midi": 66,
                    "time": 84.2915049999998,
                    "velocity": 0.5039370078740157,
                    "duration": 0.24291499999999644
                },
                {
                    "name": "A4",
                    "midi": 69,
                    "time": 84.5344199999998,
                    "velocity": 0.5039370078740157,
                    "duration": 0.24291499999999644
                },
                {
                    "name": "F#4",
                    "midi": 66,
                    "time": 84.5344199999998,
                    "velocity": 0.4251968503937008,
                    "duration": 0.24291499999999644
                },
                {
                    "name": "G4",
                    "midi": 67,
                    "time": 84.7773349999998,
                    "velocity": 0.4094488188976378,
                    "duration": 0.24291499999999644
                },
                {
                    "name": "E4",
                    "midi": 64,
                    "time": 85.02024999999979,
                    "velocity": 0.44881889763779526,
                    "duration": 0.24291499999999644
                },
                {
                    "name": "C#4",
                    "midi": 61,
                    "time": 85.26316499999979,
                    "velocity": 0.47244094488188976,
                    "duration": 0.24291499999999644
                },
                {
                    "name": "A4",
                    "midi": 69,
                    "time": 85.50607999999978,
                    "velocity": 0.49606299212598426,
                    "duration": 0.7287450000000035
                },
                {
                    "name": "F#5",
                    "midi": 78,
                    "time": 86.23482499999979,
                    "velocity": 0.4330708661417323,
                    "duration": 0.24291499999999644
                },
                {
                    "name": "D#5",
                    "midi": 75,
                    "time": 86.47773999999978,
                    "velocity": 0.49606299212598426,
                    "duration": 0.24291499999999644
                },
                {
                    "name": "C#5",
                    "midi": 73,
                    "time": 86.72065499999978,
                    "velocity": 0.44881889763779526,
                    "duration": 0.24291499999999644
                },
                {
                    "name": "E5",
                    "midi": 76,
                    "time": 86.72065499999978,
                    "velocity": 0.5354330708661418,
                    "duration": 0.24291499999999644
                },
                {
                    "name": "D5",
                    "midi": 74,
                    "time": 86.96356999999978,
                    "velocity": 0.4645669291338583,
                    "duration": 0.24291499999999644
                },
                {
                    "name": "F#5",
                    "midi": 78,
                    "time": 86.96356999999978,
                    "velocity": 0.5511811023622047,
                    "duration": 0.24291499999999644
                },
                {
                    "name": "E5",
                    "midi": 76,
                    "time": 87.20648499999977,
                    "velocity": 0.49606299212598426,
                    "duration": 0.24291499999999644
                },
                {
                    "name": "G5",
                    "midi": 79,
                    "time": 87.20648499999977,
                    "velocity": 0.5905511811023622,
                    "duration": 0.24291499999999644
                },
                {
                    "name": "B5",
                    "midi": 83,
                    "time": 87.44939999999977,
                    "velocity": 0.6141732283464567,
                    "duration": 0.24291499999999644
                },
                {
                    "name": "G5",
                    "midi": 79,
                    "time": 87.44939999999977,
                    "velocity": 0.5196850393700787,
                    "duration": 0.24291499999999644
                },
                {
                    "name": "F#5",
                    "midi": 78,
                    "time": 87.69231499999977,
                    "velocity": 0.5196850393700787,
                    "duration": 0.24291499999999644
                },
                {
                    "name": "A5",
                    "midi": 81,
                    "time": 87.69231499999977,
                    "velocity": 0.6220472440944882,
                    "duration": 0.24291499999999644
                },
                {
                    "name": "G5",
                    "midi": 79,
                    "time": 87.93522999999976,
                    "velocity": 0.5669291338582677,
                    "duration": 0.24291499999999644
                },
                {
                    "name": "E5",
                    "midi": 76,
                    "time": 87.93522999999976,
                    "velocity": 0.48031496062992124,
                    "duration": 0.24291499999999644
                },
                {
                    "name": "D5",
                    "midi": 74,
                    "time": 88.17814499999976,
                    "velocity": 0.5275590551181102,
                    "duration": 0.24291499999999644
                },
                {
                    "name": "F#5",
                    "midi": 78,
                    "time": 88.17814499999976,
                    "velocity": 0.5511811023622047,
                    "duration": 0.24291499999999644
                },
                {
                    "name": "E5",
                    "midi": 76,
                    "time": 88.42105999999976,
                    "velocity": 0.5511811023622047,
                    "duration": 0.24291499999999644
                },
                {
                    "name": "C#5",
                    "midi": 73,
                    "time": 88.42105999999976,
                    "velocity": 0.4645669291338583,
                    "duration": 0.24291499999999644
                },
                {
                    "name": "B4",
                    "midi": 71,
                    "time": 88.66397499999975,
                    "velocity": 0.3779527559055118,
                    "duration": 0.24291499999999644
                },
                {
                    "name": "D5",
                    "midi": 74,
                    "time": 88.66397499999975,
                    "velocity": 0.44881889763779526,
                    "duration": 0.24291499999999644
                },
                {
                    "name": "A4",
                    "midi": 69,
                    "time": 88.90688999999975,
                    "velocity": 0.4094488188976378,
                    "duration": 0.24291499999999644
                },
                {
                    "name": "C#5",
                    "midi": 73,
                    "time": 88.90688999999975,
                    "velocity": 0.4881889763779528,
                    "duration": 0.24291499999999644
                },
                {
                    "name": "G4",
                    "midi": 67,
                    "time": 89.14980499999974,
                    "velocity": 0.4409448818897638,
                    "duration": 0.24291499999999644
                },
                {
                    "name": "B4",
                    "midi": 71,
                    "time": 89.14980499999974,
                    "velocity": 0.5196850393700787,
                    "duration": 0.24291499999999644
                },
                {
                    "name": "A4",
                    "midi": 69,
                    "time": 89.39271999999974,
                    "velocity": 0.4645669291338583,
                    "duration": 0.4696356666666617
                },
                {
                    "name": "D5",
                    "midi": 74,
                    "time": 89.87854999999973,
                    "velocity": 0.5433070866141733,
                    "duration": 0.4858299999999929
                },
                {
                    "name": "F#4",
                    "midi": 66,
                    "time": 89.87854999999973,
                    "velocity": 0.5433070866141733,
                    "duration": 0.4858299999999929
                },
                {
                    "name": "F#4",
                    "midi": 66,
                    "time": 90.36437999999973,
                    "velocity": 0.49606299212598426,
                    "duration": 0.4858299999999929
                },
                {
                    "name": "G4",
                    "midi": 67,
                    "time": 90.85020999999972,
                    "velocity": 0.5511811023622047,
                    "duration": 0.4858299999999929
                },
                {
                    "name": "A4",
                    "midi": 69,
                    "time": 91.33603999999971,
                    "velocity": 0.5826771653543307,
                    "duration": 0.4858299999999929
                },
                {
                    "name": "B4",
                    "midi": 71,
                    "time": 91.8218699999997,
                    "velocity": 0.5511811023622047,
                    "duration": 0.4858299999999929
                },
                {
                    "name": "E4",
                    "midi": 64,
                    "time": 92.3076999999997,
                    "velocity": 0.5196850393700787,
                    "duration": 0.7287450000000035
                },
                {
                    "name": "F#4",
                    "midi": 66,
                    "time": 93.0364449999997,
                    "velocity": 0.4251968503937008,
                    "duration": 0.24291499999999644
                },
                {
                    "name": "D4",
                    "midi": 62,
                    "time": 93.2793599999997,
                    "velocity": 0.4645669291338583,
                    "duration": 0.4858300000000071
                },
                {
                    "name": "D5",
                    "midi": 74,
                    "time": 94.2510199999997,
                    "velocity": 0.5039370078740157,
                    "duration": 0.4858299999999929
                },
                {
                    "name": "B4",
                    "midi": 71,
                    "time": 94.73684999999969,
                    "velocity": 0.4251968503937008,
                    "duration": 0.4858299999999929
                },
                {
                    "name": "A4",
                    "midi": 69,
                    "time": 95.22267999999968,
                    "velocity": 0.4645669291338583,
                    "duration": 0.4858299999999929
                },
                {
                    "name": "D5",
                    "midi": 74,
                    "time": 96.19433999999967,
                    "velocity": 0.5039370078740157,
                    "duration": 0.4858299999999929
                },
                {
                    "name": "B4",
                    "midi": 71,
                    "time": 96.68016999999966,
                    "velocity": 0.4251968503937008,
                    "duration": 0.4858299999999929
                },
                {
                    "name": "A4",
                    "midi": 69,
                    "time": 97.16599999999966,
                    "velocity": 0.4645669291338583,
                    "duration": 0.4858299999999929
                },
                {
                    "name": "D5",
                    "midi": 74,
                    "time": 98.13765999999964,
                    "velocity": 0.5039370078740157,
                    "duration": 0.4858299999999929
                },
                {
                    "name": "B4",
                    "midi": 71,
                    "time": 98.62348999999963,
                    "velocity": 0.4251968503937008,
                    "duration": 0.4858299999999929
                },
                {
                    "name": "A4",
                    "midi": 69,
                    "time": 99.10931999999963,
                    "velocity": 0.4645669291338583,
                    "duration": 0.4858299999999929
                },
                {
                    "name": "F#4",
                    "midi": 66,
                    "time": 99.59514999999962,
                    "velocity": 0.4645669291338583,
                    "duration": 0.24291499999999644
                },
                {
                    "name": "G4",
                    "midi": 67,
                    "time": 100.08097999999961,
                    "velocity": 0.4645669291338583,
                    "duration": 0.24291499999999644
                },
                {
                    "name": "E4",
                    "midi": 64,
                    "time": 100.5668099999996,
                    "velocity": 0.4645669291338583,
                    "duration": 0.24291499999999644
                },
                {
                    "name": "D4",
                    "midi": 62,
                    "time": 101.0526399999996,
                    "velocity": 0.4645669291338583,
                    "duration": 0.4858299999999929
                },
                {
                    "name": "D6",
                    "midi": 86,
                    "time": 102.02429999999958,
                    "velocity": 0.5039370078740157,
                    "duration": 0.4858299999999929
                },
                {
                    "name": "D5",
                    "midi": 74,
                    "time": 102.02429999999958,
                    "velocity": 0.4251968503937008,
                    "duration": 0.4858299999999929
                },
                {
                    "name": "B5",
                    "midi": 83,
                    "time": 102.51012999999958,
                    "velocity": 0.4251968503937008,
                    "duration": 0.4858299999999929
                },
                {
                    "name": "B4",
                    "midi": 71,
                    "time": 102.51012999999958,
                    "velocity": 0.3543307086614173,
                    "duration": 0.4858299999999929
                },
                {
                    "name": "A5",
                    "midi": 81,
                    "time": 102.99595999999957,
                    "velocity": 0.4645669291338583,
                    "duration": 0.4858299999999929
                },
                {
                    "name": "A4",
                    "midi": 69,
                    "time": 102.99595999999957,
                    "velocity": 0.3937007874015748,
                    "duration": 0.4858299999999929
                },
                {
                    "name": "F#5",
                    "midi": 78,
                    "time": 103.48178999999956,
                    "velocity": 0.4645669291338583,
                    "duration": 0.24291499999999644
                },
                {
                    "name": "F#4",
                    "midi": 66,
                    "time": 103.48178999999956,
                    "velocity": 0.3937007874015748,
                    "duration": 0.24291499999999644
                },
                {
                    "name": "G5",
                    "midi": 79,
                    "time": 103.96761999999956,
                    "velocity": 0.4645669291338583,
                    "duration": 0.24291499999999644
                },
                {
                    "name": "G4",
                    "midi": 67,
                    "time": 103.96761999999956,
                    "velocity": 0.3937007874015748,
                    "duration": 0.24291499999999644
                },
                {
                    "name": "E5",
                    "midi": 76,
                    "time": 104.45344999999955,
                    "velocity": 0.4645669291338583,
                    "duration": 0.24291499999999644
                },
                {
                    "name": "E4",
                    "midi": 64,
                    "time": 104.45344999999955,
                    "velocity": 0.3937007874015748,
                    "duration": 0.24291499999999644
                },
                {
                    "name": "D5",
                    "midi": 74,
                    "time": 104.93927999999954,
                    "velocity": 0.4645669291338583,
                    "duration": 0.36437250000000176
                },
                {
                    "name": "D4",
                    "midi": 62,
                    "time": 104.93927999999954,
                    "velocity": 0.3937007874015748,
                    "duration": 0.36437250000000176
                },
                {
                    "name": "D4",
                    "midi": 62,
                    "time": 105.91093999999954,
                    "velocity": 0.33070866141732286,
                    "duration": 0.12145750000000533
                },
                {
                    "name": "F#4",
                    "midi": 66,
                    "time": 106.03239749999955,
                    "velocity": 0.2992125984251969,
                    "duration": 0.12145750000000533
                },
                {
                    "name": "A4",
                    "midi": 69,
                    "time": 106.15385499999955,
                    "velocity": 0.29133858267716534,
                    "duration": 0.12145750000000533
                },
                {
                    "name": "G4",
                    "midi": 67,
                    "time": 106.27531249999956,
                    "velocity": 0.23622047244094488,
                    "duration": 0.12145750000000533
                },
                {
                    "name": "F#4",
                    "midi": 66,
                    "time": 106.39676999999956,
                    "velocity": 0.3543307086614173,
                    "duration": 0.12145750000000533
                },
                {
                    "name": "A4",
                    "midi": 69,
                    "time": 106.51822749999957,
                    "velocity": 0.25984251968503935,
                    "duration": 0.12145750000000533
                },
                {
                    "name": "F#4",
                    "midi": 66,
                    "time": 106.63968499999957,
                    "velocity": 0.2992125984251969,
                    "duration": 0.12145750000000533
                },
                {
                    "name": "G4",
                    "midi": 67,
                    "time": 106.76114249999958,
                    "velocity": 0.2677165354330709,
                    "duration": 0.12145750000000533
                },
                {
                    "name": "A4",
                    "midi": 69,
                    "time": 106.88259999999958,
                    "velocity": 0.33858267716535434,
                    "duration": 0.12145750000000533
                },
                {
                    "name": "D5",
                    "midi": 74,
                    "time": 107.00405749999959,
                    "velocity": 0.2677165354330709,
                    "duration": 0.12145750000000533
                },
                {
                    "name": "F#5",
                    "midi": 78,
                    "time": 107.1255149999996,
                    "velocity": 0.2992125984251969,
                    "duration": 0.12145750000000533
                },
                {
                    "name": "E5",
                    "midi": 76,
                    "time": 107.2469724999996,
                    "velocity": 0.2677165354330709,
                    "duration": 0.12145750000000533
                },
                {
                    "name": "D5",
                    "midi": 74,
                    "time": 107.3684299999996,
                    "velocity": 0.36220472440944884,
                    "duration": 0.12145750000000533
                },
                {
                    "name": "F#5",
                    "midi": 78,
                    "time": 107.48988749999961,
                    "velocity": 0.2677165354330709,
                    "duration": 0.12145750000000533
                },
                {
                    "name": "A5",
                    "midi": 81,
                    "time": 107.61134499999962,
                    "velocity": 0.2992125984251969,
                    "duration": 0.12145750000000533
                },
                {
                    "name": "G5",
                    "midi": 79,
                    "time": 107.73280249999962,
                    "velocity": 0.25984251968503935,
                    "duration": 0.12145750000000533
                },
                {
                    "name": "F#5",
                    "midi": 78,
                    "time": 107.85425999999963,
                    "velocity": 0.3543307086614173,
                    "duration": 0.12145750000000533
                },
                {
                    "name": "A5",
                    "midi": 81,
                    "time": 107.97571749999963,
                    "velocity": 0.25196850393700787,
                    "duration": 0.12145750000000533
                },
                {
                    "name": "F#5",
                    "midi": 78,
                    "time": 108.09717499999964,
                    "velocity": 0.2992125984251969,
                    "duration": 0.12145750000000533
                },
                {
                    "name": "G5",
                    "midi": 79,
                    "time": 108.21863249999964,
                    "velocity": 0.2677165354330709,
                    "duration": 0.12145750000000533
                },
                {
                    "name": "A5",
                    "midi": 81,
                    "time": 108.34008999999965,
                    "velocity": 0.3543307086614173,
                    "duration": 0.12145750000000533
                },
                {
                    "name": "D6",
                    "midi": 86,
                    "time": 108.46154749999965,
                    "velocity": 0.25984251968503935,
                    "duration": 0.12145750000000533
                },
                {
                    "name": "F#6",
                    "midi": 90,
                    "time": 108.58300499999966,
                    "velocity": 0.2992125984251969,
                    "duration": 0.12145750000000533
                },
                {
                    "name": "E6",
                    "midi": 88,
                    "time": 108.70446249999966,
                    "velocity": 0.2677165354330709,
                    "duration": 0.12145750000000533
                },
                {
                    "name": "D6",
                    "midi": 86,
                    "time": 108.82591999999967,
                    "velocity": 0.33858267716535434,
                    "duration": 0.24291499999999644
                },
                {
                    "name": "A5",
                    "midi": 81,
                    "time": 108.82591999999967,
                    "velocity": 0.33858267716535434,
                    "duration": 0.24291499999999644
                }
            ],
            "controlChanges": {},
            "id": 1,
            "name": "Piano right",
            "instrumentNumber": 0,
            "instrument": "acoustic grand piano",
            "instrumentFamily": "piano",
            "channelNumber": 0,
            "isPercussion": false
        },
        {
            "startTime": 0.1214575,
            "duration": 109.06883500000144,
            "length": 893,
            "notes": [
                {
                    "name": "D3",
                    "midi": 50,
                    "time": 0.1214575,
                    "velocity": 0.1968503937007874,
                    "duration": 0.151821875
                },
                {
                    "name": "C#3",
                    "midi": 49,
                    "time": 0.242915,
                    "velocity": 0.25196850393700787,
                    "duration": 0.151821875
                },
                {
                    "name": "D3",
                    "midi": 50,
                    "time": 0.3643725,
                    "velocity": 0.2204724409448819,
                    "duration": 0.151821875
                },
                {
                    "name": "C#3",
                    "midi": 49,
                    "time": 0.48583,
                    "velocity": 0.25196850393700787,
                    "duration": 0.151821875
                },
                {
                    "name": "D3",
                    "midi": 50,
                    "time": 0.6072875,
                    "velocity": 0.2204724409448819,
                    "duration": 0.151821875
                },
                {
                    "name": "C#3",
                    "midi": 49,
                    "time": 0.728745,
                    "velocity": 0.2755905511811024,
                    "duration": 0.151821875
                },
                {
                    "name": "D3",
                    "midi": 50,
                    "time": 0.8502025,
                    "velocity": 0.2204724409448819,
                    "duration": 0.1214575
                },
                {
                    "name": "F#3",
                    "midi": 54,
                    "time": 0.97166,
                    "velocity": 0.28346456692913385,
                    "duration": 0.1214575
                },
                {
                    "name": "D3",
                    "midi": 50,
                    "time": 1.0931175,
                    "velocity": 0.2283464566929134,
                    "duration": 0.1214575
                },
                {
                    "name": "C#3",
                    "midi": 49,
                    "time": 1.214575,
                    "velocity": 0.2755905511811024,
                    "duration": 0.151821875
                },
                {
                    "name": "D3",
                    "midi": 50,
                    "time": 1.3360325,
                    "velocity": 0.2204724409448819,
                    "duration": 0.1214575
                },
                {
                    "name": "E2",
                    "midi": 40,
                    "time": 1.45749,
                    "velocity": 0.2677165354330709,
                    "duration": 0.1214575
                },
                {
                    "name": "D3",
                    "midi": 50,
                    "time": 1.5789475,
                    "velocity": 0.2204724409448819,
                    "duration": 0.1214575
                },
                {
                    "name": "C#3",
                    "midi": 49,
                    "time": 1.700405,
                    "velocity": 0.28346456692913385,
                    "duration": 0.151821875
                },
                {
                    "name": "D3",
                    "midi": 50,
                    "time": 1.8218625,
                    "velocity": 0.25984251968503935,
                    "duration": 0.1214575
                },
                {
                    "name": "F#2",
                    "midi": 42,
                    "time": 1.94332,
                    "velocity": 0.31496062992125984,
                    "duration": 0.1214575
                },
                {
                    "name": "D3",
                    "midi": 50,
                    "time": 2.0647775,
                    "velocity": 0.2283464566929134,
                    "duration": 0.1214575
                },
                {
                    "name": "C#3",
                    "midi": 49,
                    "time": 2.186235,
                    "velocity": 0.2677165354330709,
                    "duration": 0.151821875
                },
                {
                    "name": "D3",
                    "midi": 50,
                    "time": 2.3076925,
                    "velocity": 0.33858267716535434,
                    "duration": 0.1214575
                },
                {
                    "name": "G2",
                    "midi": 43,
                    "time": 2.42915,
                    "velocity": 0.3937007874015748,
                    "duration": 0.1214575
                },
                {
                    "name": "D3",
                    "midi": 50,
                    "time": 2.5506075,
                    "velocity": 0.30708661417322836,
                    "duration": 0.1214575
                },
                {
                    "name": "C#3",
                    "midi": 49,
                    "time": 2.672065,
                    "velocity": 0.31496062992125984,
                    "duration": 0.151821875
                },
                {
                    "name": "D3",
                    "midi": 50,
                    "time": 2.7935225,
                    "velocity": 0.30708661417322836,
                    "duration": 0.1214575
                },
                {
                    "name": "F#2",
                    "midi": 42,
                    "time": 2.91498,
                    "velocity": 0.33858267716535434,
                    "duration": 0.1214575
                },
                {
                    "name": "D3",
                    "midi": 50,
                    "time": 3.0364375,
                    "velocity": 0.2677165354330709,
                    "duration": 0.1214575
                },
                {
                    "name": "C#3",
                    "midi": 49,
                    "time": 3.157895,
                    "velocity": 0.30708661417322836,
                    "duration": 0.151821875
                },
                {
                    "name": "D3",
                    "midi": 50,
                    "time": 3.2793525,
                    "velocity": 0.2677165354330709,
                    "duration": 0.1214575
                },
                {
                    "name": "E2",
                    "midi": 40,
                    "time": 3.40081,
                    "velocity": 0.3543307086614173,
                    "duration": 0.1214575
                },
                {
                    "name": "D3",
                    "midi": 50,
                    "time": 3.5222675,
                    "velocity": 0.2677165354330709,
                    "duration": 0.1214575
                },
                {
                    "name": "C#3",
                    "midi": 49,
                    "time": 3.643725,
                    "velocity": 0.2992125984251969,
                    "duration": 0.151821875
                },
                {
                    "name": "D3",
                    "midi": 50,
                    "time": 3.7651825,
                    "velocity": 0.2677165354330709,
                    "duration": 0.1214575
                },
                {
                    "name": "D2",
                    "midi": 38,
                    "time": 3.88664,
                    "velocity": 0.3700787401574803,
                    "duration": 0.1214575
                },
                {
                    "name": "D3",
                    "midi": 50,
                    "time": 4.0080975,
                    "velocity": 0.2440944881889764,
                    "duration": 0.1214575
                },
                {
                    "name": "C#3",
                    "midi": 49,
                    "time": 4.129555,
                    "velocity": 0.2677165354330709,
                    "duration": 0.15182187499999955
                },
                {
                    "name": "D3",
                    "midi": 50,
                    "time": 4.2510125,
                    "velocity": 0.23622047244094488,
                    "duration": 0.15182187499999955
                },
                {
                    "name": "C#3",
                    "midi": 49,
                    "time": 4.37247,
                    "velocity": 0.30708661417322836,
                    "duration": 0.15182187499999955
                },
                {
                    "name": "D3",
                    "midi": 50,
                    "time": 4.4939275,
                    "velocity": 0.2283464566929134,
                    "duration": 0.15182187499999955
                },
                {
                    "name": "C#3",
                    "midi": 49,
                    "time": 4.615385,
                    "velocity": 0.2677165354330709,
                    "duration": 0.15182187499999955
                },
                {
                    "name": "D3",
                    "midi": 50,
                    "time": 4.7368425,
                    "velocity": 0.2440944881889764,
                    "duration": 0.1214575
                },
                {
                    "name": "F#3",
                    "midi": 54,
                    "time": 4.8583,
                    "velocity": 0.3779527559055118,
                    "duration": 0.15182187499999955
                },
                {
                    "name": "E3",
                    "midi": 52,
                    "time": 4.9797575,
                    "velocity": 0.29133858267716534,
                    "duration": 0.15182187499999955
                },
                {
                    "name": "F#3",
                    "midi": 54,
                    "time": 5.101215,
                    "velocity": 0.31496062992125984,
                    "duration": 0.15182187499999955
                },
                {
                    "name": "E3",
                    "midi": 52,
                    "time": 5.2226725,
                    "velocity": 0.31496062992125984,
                    "duration": 0.15182187499999955
                },
                {
                    "name": "G#3",
                    "midi": 56,
                    "time": 5.34413,
                    "velocity": 0.3937007874015748,
                    "duration": 0.15182187499999955
                },
                {
                    "name": "F#3",
                    "midi": 54,
                    "time": 5.4655875,
                    "velocity": 0.28346456692913385,
                    "duration": 0.15182187499999955
                },
                {
                    "name": "G#3",
                    "midi": 56,
                    "time": 5.587045,
                    "velocity": 0.36220472440944884,
                    "duration": 0.15182187499999955
                },
                {
                    "name": "E3",
                    "midi": 52,
                    "time": 5.7085025,
                    "velocity": 0.3858267716535433,
                    "duration": 0.1214575
                },
                {
                    "name": "A3",
                    "midi": 57,
                    "time": 5.82996,
                    "velocity": 0.4330708661417323,
                    "duration": 0.15182187499999955
                },
                {
                    "name": "G#3",
                    "midi": 56,
                    "time": 5.9514175,
                    "velocity": 0.36220472440944884,
                    "duration": 0.15182187499999955
                },
                {
                    "name": "A3",
                    "midi": 57,
                    "time": 6.072875,
                    "velocity": 0.3700787401574803,
                    "duration": 0.15182187499999955
                },
                {
                    "name": "E3",
                    "midi": 52,
                    "time": 6.1943325,
                    "velocity": 0.41732283464566927,
                    "duration": 0.1214575
                },
                {
                    "name": "B3",
                    "midi": 59,
                    "time": 6.31579,
                    "velocity": 0.4881889763779528,
                    "duration": 0.15182187499999955
                },
                {
                    "name": "A3",
                    "midi": 57,
                    "time": 6.4372475,
                    "velocity": 0.31496062992125984,
                    "duration": 0.15182187499999955
                },
                {
                    "name": "B3",
                    "midi": 59,
                    "time": 6.558705,
                    "velocity": 0.3779527559055118,
                    "duration": 0.15182187499999955
                },
                {
                    "name": "E3",
                    "midi": 52,
                    "time": 6.6801625,
                    "velocity": 0.31496062992125984,
                    "duration": 0.1214575
                },
                {
                    "name": "A3",
                    "midi": 57,
                    "time": 6.80162,
                    "velocity": 0.41732283464566927,
                    "duration": 0.15182187499999955
                },
                {
                    "name": "G#3",
                    "midi": 56,
                    "time": 6.9230775,
                    "velocity": 0.31496062992125984,
                    "duration": 0.15182187499999955
                },
                {
                    "name": "A3",
                    "midi": 57,
                    "time": 7.044535,
                    "velocity": 0.36220472440944884,
                    "duration": 0.15182187499999955
                },
                {
                    "name": "E3",
                    "midi": 52,
                    "time": 7.1659925,
                    "velocity": 0.31496062992125984,
                    "duration": 0.1214575
                },
                {
                    "name": "G#3",
                    "midi": 56,
                    "time": 7.28745,
                    "velocity": 0.3700787401574803,
                    "duration": 0.15182187499999955
                },
                {
                    "name": "F#3",
                    "midi": 54,
                    "time": 7.4089075,
                    "velocity": 0.29133858267716534,
                    "duration": 0.15182187499999955
                },
                {
                    "name": "G#3",
                    "midi": 56,
                    "time": 7.530365,
                    "velocity": 0.31496062992125984,
                    "duration": 0.15182187499999955
                },
                {
                    "name": "E3",
                    "midi": 52,
                    "time": 7.6518225,
                    "velocity": 0.2992125984251969,
                    "duration": 0.1214575
                },
                {
                    "name": "C#3",
                    "midi": 49,
                    "time": 7.77328,
                    "velocity": 0.4251968503937008,
                    "duration": 0.1214575
                },
                {
                    "name": "E3",
                    "midi": 52,
                    "time": 7.8947375,
                    "velocity": 0.36220472440944884,
                    "duration": 0.1214575
                },
                {
                    "name": "A#3",
                    "midi": 58,
                    "time": 8.016195,
                    "velocity": 0.36220472440944884,
                    "duration": 0.1214575
                },
                {
                    "name": "C#4",
                    "midi": 61,
                    "time": 8.1376525,
                    "velocity": 0.3858267716535433,
                    "duration": 0.1214575
                },
                {
                    "name": "B3",
                    "midi": 59,
                    "time": 8.25911,
                    "velocity": 0.4251968503937008,
                    "duration": 0.15182187499999955
                },
                {
                    "name": "A#3",
                    "midi": 58,
                    "time": 8.3805675,
                    "velocity": 0.31496062992125984,
                    "duration": 0.15182187499999955
                },
                {
                    "name": "G#3",
                    "midi": 56,
                    "time": 8.502025,
                    "velocity": 0.3858267716535433,
                    "duration": 0.15182187499999955
                },
                {
                    "name": "F#3",
                    "midi": 54,
                    "time": 8.6234825,
                    "velocity": 0.31496062992125984,
                    "duration": 0.1214575
                },
                {
                    "name": "B3",
                    "midi": 59,
                    "time": 8.74494,
                    "velocity": 0.4409448818897638,
                    "duration": 0.1214575
                },
                {
                    "name": "C#4",
                    "midi": 61,
                    "time": 8.8663975,
                    "velocity": 0.31496062992125984,
                    "duration": 0.1214575
                },
                {
                    "name": "B3",
                    "midi": 59,
                    "time": 8.987855,
                    "velocity": 0.3779527559055118,
                    "duration": 0.15182187499999955
                },
                {
                    "name": "A#3",
                    "midi": 58,
                    "time": 9.1093125,
                    "velocity": 0.31496062992125984,
                    "duration": 0.15182187499999955
                },
                {
                    "name": "B3",
                    "midi": 59,
                    "time": 9.23077,
                    "velocity": 0.3937007874015748,
                    "duration": 0.15182187499999955
                },
                {
                    "name": "A3",
                    "midi": 57,
                    "time": 9.3522275,
                    "velocity": 0.29133858267716534,
                    "duration": 0.15182187499999955
                },
                {
                    "name": "G#3",
                    "midi": 56,
                    "time": 9.473685,
                    "velocity": 0.31496062992125984,
                    "duration": 0.15182187499999955
                },
                {
                    "name": "F#3",
                    "midi": 54,
                    "time": 9.5951425,
                    "velocity": 0.29133858267716534,
                    "duration": 0.1214575
                },
                {
                    "name": "G#3",
                    "midi": 56,
                    "time": 9.7166,
                    "velocity": 0.3858267716535433,
                    "duration": 0.15182187499999955
                },
                {
                    "name": "A3",
                    "midi": 57,
                    "time": 9.8380575,
                    "velocity": 0.31496062992125984,
                    "duration": 0.15182187499999955
                },
                {
                    "name": "B3",
                    "midi": 59,
                    "time": 9.959515,
                    "velocity": 0.33070866141732286,
                    "duration": 0.15182187499999955
                },
                {
                    "name": "A3",
                    "midi": 57,
                    "time": 10.0809725,
                    "velocity": 0.3700787401574803,
                    "duration": 0.1214575
                },
                {
                    "name": "G#3",
                    "midi": 56,
                    "time": 10.20243,
                    "velocity": 0.4015748031496063,
                    "duration": 0.1214575
                },
                {
                    "name": "E3",
                    "midi": 52,
                    "time": 10.3238875,
                    "velocity": 0.31496062992125984,
                    "duration": 0.1214575
                },
                {
                    "name": "F#3",
                    "midi": 54,
                    "time": 10.445345,
                    "velocity": 0.36220472440944884,
                    "duration": 0.15182187499999955
                },
                {
                    "name": "G#3",
                    "midi": 56,
                    "time": 10.5668025,
                    "velocity": 0.31496062992125984,
                    "duration": 0.15182187499999955
                },
                {
                    "name": "A3",
                    "midi": 57,
                    "time": 10.68826,
                    "velocity": 0.41732283464566927,
                    "duration": 0.15182187499999955
                },
                {
                    "name": "B3",
                    "midi": 59,
                    "time": 10.8097175,
                    "velocity": 0.31496062992125984,
                    "duration": 0.15182187499999955
                },
                {
                    "name": "A3",
                    "midi": 57,
                    "time": 10.931175,
                    "velocity": 0.36220472440944884,
                    "duration": 0.15182187499999955
                },
                {
                    "name": "G#3",
                    "midi": 56,
                    "time": 11.0526325,
                    "velocity": 0.31496062992125984,
                    "duration": 0.15182187499999955
                },
                {
                    "name": "A3",
                    "midi": 57,
                    "time": 11.17409,
                    "velocity": 0.3779527559055118,
                    "duration": 0.15182187499999955
                },
                {
                    "name": "G#3",
                    "midi": 56,
                    "time": 11.2955475,
                    "velocity": 0.31496062992125984,
                    "duration": 0.15182187499999955
                },
                {
                    "name": "F#3",
                    "midi": 54,
                    "time": 11.417005,
                    "velocity": 0.31496062992125984,
                    "duration": 0.15182187499999955
                },
                {
                    "name": "F3",
                    "midi": 53,
                    "time": 11.5384625,
                    "velocity": 0.2992125984251969,
                    "duration": 0.1214575
                },
                {
                    "name": "F#3",
                    "midi": 54,
                    "time": 11.65992,
                    "velocity": 0.3700787401574803,
                    "duration": 0.1214575
                },
                {
                    "name": "A3",
                    "midi": 57,
                    "time": 11.7813775,
                    "velocity": 0.2755905511811024,
                    "duration": 0.1214575
                },
                {
                    "name": "G#3",
                    "midi": 56,
                    "time": 11.902835,
                    "velocity": 0.31496062992125984,
                    "duration": 0.15182187499999955
                },
                {
                    "name": "A3",
                    "midi": 57,
                    "time": 12.0242925,
                    "velocity": 0.28346456692913385,
                    "duration": 0.1214575
                },
                {
                    "name": "E3",
                    "midi": 52,
                    "time": 12.14575,
                    "velocity": 0.3700787401574803,
                    "duration": 0.1214575
                },
                {
                    "name": "A3",
                    "midi": 57,
                    "time": 12.2672075,
                    "velocity": 0.2755905511811024,
                    "duration": 0.1214575
                },
                {
                    "name": "G#3",
                    "midi": 56,
                    "time": 12.388665,
                    "velocity": 0.31496062992125984,
                    "duration": 0.15182187499999955
                },
                {
                    "name": "A3",
                    "midi": 57,
                    "time": 12.5101225,
                    "velocity": 0.31496062992125984,
                    "duration": 0.1214575
                },
                {
                    "name": "D3",
                    "midi": 50,
                    "time": 12.63158,
                    "velocity": 0.3779527559055118,
                    "duration": 0.1214575
                },
                {
                    "name": "A3",
                    "midi": 57,
                    "time": 12.7530375,
                    "velocity": 0.29133858267716534,
                    "duration": 0.1214575
                },
                {
                    "name": "G#3",
                    "midi": 56,
                    "time": 12.874495,
                    "velocity": 0.31496062992125984,
                    "duration": 0.15182187499999955
                },
                {
                    "name": "A3",
                    "midi": 57,
                    "time": 12.9959525,
                    "velocity": 0.29133858267716534,
                    "duration": 0.1214575
                },
                {
                    "name": "C#3",
                    "midi": 49,
                    "time": 13.11741,
                    "velocity": 0.3700787401574803,
                    "duration": 0.1214575
                },
                {
                    "name": "A3",
                    "midi": 57,
                    "time": 13.2388675,
                    "velocity": 0.2992125984251969,
                    "duration": 0.1214575
                },
                {
                    "name": "G#3",
                    "midi": 56,
                    "time": 13.360325,
                    "velocity": 0.31496062992125984,
                    "duration": 0.15182187499999955
                },
                {
                    "name": "G3",
                    "midi": 55,
                    "time": 13.4817825,
                    "velocity": 0.29133858267716534,
                    "duration": 0.1214575
                },
                {
                    "name": "F#3",
                    "midi": 54,
                    "time": 13.60324,
                    "velocity": 0.36220472440944884,
                    "duration": 0.1214575
                },
                {
                    "name": "A3",
                    "midi": 57,
                    "time": 13.7246975,
                    "velocity": 0.29133858267716534,
                    "duration": 0.1214575
                },
                {
                    "name": "G#3",
                    "midi": 56,
                    "time": 13.846155,
                    "velocity": 0.31496062992125984,
                    "duration": 0.15182187499999955
                },
                {
                    "name": "A3",
                    "midi": 57,
                    "time": 13.9676125,
                    "velocity": 0.29133858267716534,
                    "duration": 0.1214575
                },
                {
                    "name": "E3",
                    "midi": 52,
                    "time": 14.08907,
                    "velocity": 0.3700787401574803,
                    "duration": 0.1214575
                },
                {
                    "name": "A3",
                    "midi": 57,
                    "time": 14.2105275,
                    "velocity": 0.30708661417322836,
                    "duration": 0.1214575
                },
                {
                    "name": "G#3",
                    "midi": 56,
                    "time": 14.331985,
                    "velocity": 0.31496062992125984,
                    "duration": 0.15182187499999955
                },
                {
                    "name": "A3",
                    "midi": 57,
                    "time": 14.4534425,
                    "velocity": 0.30708661417322836,
                    "duration": 0.1214575
                },
                {
                    "name": "D#3",
                    "midi": 51,
                    "time": 14.5749,
                    "velocity": 0.3858267716535433,
                    "duration": 0.1214575
                },
                {
                    "name": "A3",
                    "midi": 57,
                    "time": 14.6963575,
                    "velocity": 0.2992125984251969,
                    "duration": 0.1214575
                },
                {
                    "name": "G#3",
                    "midi": 56,
                    "time": 14.817815,
                    "velocity": 0.31496062992125984,
                    "duration": 0.15182187499999955
                },
                {
                    "name": "A3",
                    "midi": 57,
                    "time": 14.9392725,
                    "velocity": 0.2992125984251969,
                    "duration": 0.15182187499999955
                },
                {
                    "name": "F#3",
                    "midi": 54,
                    "time": 15.06073,
                    "velocity": 0.3700787401574803,
                    "duration": 0.1214575
                },
                {
                    "name": "D#4",
                    "midi": 63,
                    "time": 15.1821875,
                    "velocity": 0.29133858267716534,
                    "duration": 0.1214575
                },
                {
                    "name": "A3",
                    "midi": 57,
                    "time": 15.303645,
                    "velocity": 0.31496062992125984,
                    "duration": 0.1214575
                },
                {
                    "name": "F#3",
                    "midi": 54,
                    "time": 15.4251025,
                    "velocity": 0.2755905511811024,
                    "duration": 0.1214575
                },
                {
                    "name": "G#3",
                    "midi": 56,
                    "time": 15.54656,
                    "velocity": 0.3779527559055118,
                    "duration": 0.1214575
                },
                {
                    "name": "E3",
                    "midi": 52,
                    "time": 15.6680175,
                    "velocity": 0.31496062992125984,
                    "duration": 0.1214575
                },
                {
                    "name": "D3",
                    "midi": 50,
                    "time": 15.789475,
                    "velocity": 0.3228346456692913,
                    "duration": 0.1214575
                },
                {
                    "name": "E3",
                    "midi": 52,
                    "time": 15.9109325,
                    "velocity": 0.3543307086614173,
                    "duration": 0.1214575
                },
                {
                    "name": "C#3",
                    "midi": 49,
                    "time": 16.03239,
                    "velocity": 0.4251968503937008,
                    "duration": 0.12145749999999822
                },
                {
                    "name": "E3",
                    "midi": 52,
                    "time": 16.153847499999998,
                    "velocity": 0.3543307086614173,
                    "duration": 0.12145749999999822
                },
                {
                    "name": "B2",
                    "midi": 47,
                    "time": 16.275304999999996,
                    "velocity": 0.4094488188976378,
                    "duration": 0.12145749999999822
                },
                {
                    "name": "E3",
                    "midi": 52,
                    "time": 16.396762499999994,
                    "velocity": 0.4330708661417323,
                    "duration": 0.12145749999999822
                },
                {
                    "name": "G#2",
                    "midi": 44,
                    "time": 16.518219999999992,
                    "velocity": 0.4645669291338583,
                    "duration": 0.12145749999999822
                },
                {
                    "name": "E3",
                    "midi": 52,
                    "time": 16.63967749999999,
                    "velocity": 0.3543307086614173,
                    "duration": 0.12145749999999822
                },
                {
                    "name": "A2",
                    "midi": 45,
                    "time": 16.76113499999999,
                    "velocity": 0.4094488188976378,
                    "duration": 0.12145749999999822
                },
                {
                    "name": "F#3",
                    "midi": 54,
                    "time": 16.882592499999987,
                    "velocity": 0.36220472440944884,
                    "duration": 0.12145749999999822
                },
                {
                    "name": "B2",
                    "midi": 47,
                    "time": 17.004049999999985,
                    "velocity": 0.41732283464566927,
                    "duration": 0.12145749999999822
                },
                {
                    "name": "G#3",
                    "midi": 56,
                    "time": 17.125507499999983,
                    "velocity": 0.31496062992125984,
                    "duration": 0.12145749999999822
                },
                {
                    "name": "C#3",
                    "midi": 49,
                    "time": 17.24696499999998,
                    "velocity": 0.36220472440944884,
                    "duration": 0.12145749999999822
                },
                {
                    "name": "A3",
                    "midi": 57,
                    "time": 17.36842249999998,
                    "velocity": 0.31496062992125984,
                    "duration": 0.12145749999999822
                },
                {
                    "name": "D3",
                    "midi": 50,
                    "time": 17.489879999999978,
                    "velocity": 0.3700787401574803,
                    "duration": 0.12145749999999822
                },
                {
                    "name": "F#3",
                    "midi": 54,
                    "time": 17.611337499999976,
                    "velocity": 0.31496062992125984,
                    "duration": 0.12145749999999822
                },
                {
                    "name": "A#3",
                    "midi": 58,
                    "time": 17.732794999999975,
                    "velocity": 0.31496062992125984,
                    "duration": 0.15182187499999955
                },
                {
                    "name": "B3",
                    "midi": 59,
                    "time": 17.854252499999973,
                    "velocity": 0.36220472440944884,
                    "duration": 0.1518218750000031
                },
                {
                    "name": "E3",
                    "midi": 52,
                    "time": 17.975709999999975,
                    "velocity": 0.4015748031496063,
                    "duration": 0.1518218750000031
                },
                {
                    "name": "B3",
                    "midi": 59,
                    "time": 18.097167499999976,
                    "velocity": 0.31496062992125984,
                    "duration": 0.12145750000000177
                },
                {
                    "name": "D4",
                    "midi": 62,
                    "time": 18.218624999999978,
                    "velocity": 0.33858267716535434,
                    "duration": 0.12145750000000177
                },
                {
                    "name": "E4",
                    "midi": 64,
                    "time": 18.34008249999998,
                    "velocity": 0.31496062992125984,
                    "duration": 0.12145749999999822
                },
                {
                    "name": "A3",
                    "midi": 57,
                    "time": 18.461539999999978,
                    "velocity": 0.44881889763779526,
                    "duration": 0.12145749999999822
                },
                {
                    "name": "D4",
                    "midi": 62,
                    "time": 18.582997499999976,
                    "velocity": 0.31496062992125984,
                    "duration": 0.12145749999999822
                },
                {
                    "name": "E4",
                    "midi": 64,
                    "time": 18.704454999999975,
                    "velocity": 0.3543307086614173,
                    "duration": 0.12145749999999822
                },
                {
                    "name": "D4",
                    "midi": 62,
                    "time": 18.825912499999973,
                    "velocity": 0.31496062992125984,
                    "duration": 0.12145749999999822
                },
                {
                    "name": "C#4",
                    "midi": 61,
                    "time": 18.94736999999997,
                    "velocity": 0.4094488188976378,
                    "duration": 0.12145749999999822
                },
                {
                    "name": "B3",
                    "midi": 59,
                    "time": 19.06882749999997,
                    "velocity": 0.2677165354330709,
                    "duration": 0.15182187499999955
                },
                {
                    "name": "A3",
                    "midi": 57,
                    "time": 19.190284999999967,
                    "velocity": 0.31496062992125984,
                    "duration": 0.1518218750000031
                },
                {
                    "name": "B3",
                    "midi": 59,
                    "time": 19.31174249999997,
                    "velocity": 0.2677165354330709,
                    "duration": 0.1518218750000031
                },
                {
                    "name": "C#4",
                    "midi": 61,
                    "time": 19.43319999999997,
                    "velocity": 0.36220472440944884,
                    "duration": 0.1518218750000031
                },
                {
                    "name": "D4",
                    "midi": 62,
                    "time": 19.554657499999973,
                    "velocity": 0.2677165354330709,
                    "duration": 0.1518218750000031
                },
                {
                    "name": "E4",
                    "midi": 64,
                    "time": 19.676114999999974,
                    "velocity": 0.28346456692913385,
                    "duration": 0.1518218750000031
                },
                {
                    "name": "F#4",
                    "midi": 66,
                    "time": 19.797572499999976,
                    "velocity": 0.2677165354330709,
                    "duration": 0.1518218750000031
                },
                {
                    "name": "G4",
                    "midi": 67,
                    "time": 19.919029999999978,
                    "velocity": 0.31496062992125984,
                    "duration": 0.1518218750000031
                },
                {
                    "name": "F#4",
                    "midi": 66,
                    "time": 20.04048749999998,
                    "velocity": 0.23622047244094488,
                    "duration": 0.1518218750000031
                },
                {
                    "name": "G4",
                    "midi": 67,
                    "time": 20.16194499999998,
                    "velocity": 0.25984251968503935,
                    "duration": 0.1518218750000031
                },
                {
                    "name": "F4",
                    "midi": 65,
                    "time": 20.283402499999983,
                    "velocity": 0.23622047244094488,
                    "duration": 0.1518218750000031
                },
                {
                    "name": "F#4",
                    "midi": 66,
                    "time": 20.404859999999985,
                    "velocity": 0.31496062992125984,
                    "duration": 0.1518218750000031
                },
                {
                    "name": "F4",
                    "midi": 65,
                    "time": 20.526317499999987,
                    "velocity": 0.2440944881889764,
                    "duration": 0.1518218750000031
                },
                {
                    "name": "F#4",
                    "midi": 66,
                    "time": 20.64777499999999,
                    "velocity": 0.2755905511811024,
                    "duration": 0.1518218750000031
                },
                {
                    "name": "D4",
                    "midi": 62,
                    "time": 20.76923249999999,
                    "velocity": 0.23622047244094488,
                    "duration": 0.1518218750000031
                },
                {
                    "name": "F4",
                    "midi": 65,
                    "time": 20.890689999999992,
                    "velocity": 0.31496062992125984,
                    "duration": 0.1518218750000031
                },
                {
                    "name": "E4",
                    "midi": 64,
                    "time": 21.012147499999994,
                    "velocity": 0.2440944881889764,
                    "duration": 0.1518218750000031
                },
                {
                    "name": "F4",
                    "midi": 65,
                    "time": 21.133604999999996,
                    "velocity": 0.2677165354330709,
                    "duration": 0.1518218750000031
                },
                {
                    "name": "D4",
                    "midi": 62,
                    "time": 21.255062499999998,
                    "velocity": 0.2440944881889764,
                    "duration": 0.12145750000000177
                },
                {
                    "name": "C#4",
                    "midi": 61,
                    "time": 21.37652,
                    "velocity": 0.31496062992125984,
                    "duration": 0.15182187499999955
                },
                {
                    "name": "C4",
                    "midi": 60,
                    "time": 21.497977499999998,
                    "velocity": 0.25196850393700787,
                    "duration": 0.1518218750000031
                },
                {
                    "name": "C#4",
                    "midi": 61,
                    "time": 21.619435,
                    "velocity": 0.2755905511811024,
                    "duration": 0.1518218750000031
                },
                {
                    "name": "A3",
                    "midi": 57,
                    "time": 21.7408925,
                    "velocity": 0.23622047244094488,
                    "duration": 0.1518218750000031
                },
                {
                    "name": "G3",
                    "midi": 55,
                    "time": 21.862350000000003,
                    "velocity": 0.31496062992125984,
                    "duration": 0.1518218750000031
                },
                {
                    "name": "F#3",
                    "midi": 54,
                    "time": 21.983807500000005,
                    "velocity": 0.23622047244094488,
                    "duration": 0.1518218750000031
                },
                {
                    "name": "G3",
                    "midi": 55,
                    "time": 22.105265000000006,
                    "velocity": 0.2677165354330709,
                    "duration": 0.1518218750000031
                },
                {
                    "name": "E3",
                    "midi": 52,
                    "time": 22.226722500000008,
                    "velocity": 0.23622047244094488,
                    "duration": 0.12145750000000177
                },
                {
                    "name": "F#3",
                    "midi": 54,
                    "time": 22.34818000000001,
                    "velocity": 0.28346456692913385,
                    "duration": 0.12145750000000177
                },
                {
                    "name": "D3",
                    "midi": 50,
                    "time": 22.46963750000001,
                    "velocity": 0.2283464566929134,
                    "duration": 0.12145749999999822
                },
                {
                    "name": "C#3",
                    "midi": 49,
                    "time": 22.59109500000001,
                    "velocity": 0.2755905511811024,
                    "duration": 0.15182187499999955
                },
                {
                    "name": "D3",
                    "midi": 50,
                    "time": 22.712552500000008,
                    "velocity": 0.2204724409448819,
                    "duration": 0.12145750000000177
                },
                {
                    "name": "E2",
                    "midi": 40,
                    "time": 22.83401000000001,
                    "velocity": 0.2677165354330709,
                    "duration": 0.12145750000000177
                },
                {
                    "name": "D3",
                    "midi": 50,
                    "time": 22.95546750000001,
                    "velocity": 0.2204724409448819,
                    "duration": 0.12145749999999822
                },
                {
                    "name": "C#3",
                    "midi": 49,
                    "time": 23.07692500000001,
                    "velocity": 0.28346456692913385,
                    "duration": 0.15182187499999955
                },
                {
                    "name": "D3",
                    "midi": 50,
                    "time": 23.198382500000008,
                    "velocity": 0.25984251968503935,
                    "duration": 0.12145750000000177
                },
                {
                    "name": "F#2",
                    "midi": 42,
                    "time": 23.31984000000001,
                    "velocity": 0.31496062992125984,
                    "duration": 0.12145750000000177
                },
                {
                    "name": "D3",
                    "midi": 50,
                    "time": 23.44129750000001,
                    "velocity": 0.2283464566929134,
                    "duration": 0.12145749999999822
                },
                {
                    "name": "C#3",
                    "midi": 49,
                    "time": 23.56275500000001,
                    "velocity": 0.2677165354330709,
                    "duration": 0.15182187499999955
                },
                {
                    "name": "D3",
                    "midi": 50,
                    "time": 23.684212500000008,
                    "velocity": 0.33858267716535434,
                    "duration": 0.12145750000000177
                },
                {
                    "name": "G2",
                    "midi": 43,
                    "time": 23.80567000000001,
                    "velocity": 0.3937007874015748,
                    "duration": 0.12145750000000177
                },
                {
                    "name": "D3",
                    "midi": 50,
                    "time": 23.92712750000001,
                    "velocity": 0.30708661417322836,
                    "duration": 0.12145749999999822
                },
                {
                    "name": "C#3",
                    "midi": 49,
                    "time": 24.04858500000001,
                    "velocity": 0.31496062992125984,
                    "duration": 0.15182187499999955
                },
                {
                    "name": "D3",
                    "midi": 50,
                    "time": 24.170042500000008,
                    "velocity": 0.30708661417322836,
                    "duration": 0.12145750000000177
                },
                {
                    "name": "F#2",
                    "midi": 42,
                    "time": 24.29150000000001,
                    "velocity": 0.33858267716535434,
                    "duration": 0.12145750000000177
                },
                {
                    "name": "D3",
                    "midi": 50,
                    "time": 24.41295750000001,
                    "velocity": 0.2677165354330709,
                    "duration": 0.12145749999999822
                },
                {
                    "name": "C#3",
                    "midi": 49,
                    "time": 24.53441500000001,
                    "velocity": 0.30708661417322836,
                    "duration": 0.15182187499999955
                },
                {
                    "name": "D3",
                    "midi": 50,
                    "time": 24.655872500000008,
                    "velocity": 0.2677165354330709,
                    "duration": 0.12145750000000177
                },
                {
                    "name": "E2",
                    "midi": 40,
                    "time": 24.77733000000001,
                    "velocity": 0.3543307086614173,
                    "duration": 0.12145750000000177
                },
                {
                    "name": "D3",
                    "midi": 50,
                    "time": 24.89878750000001,
                    "velocity": 0.2677165354330709,
                    "duration": 0.12145749999999822
                },
                {
                    "name": "C#3",
                    "midi": 49,
                    "time": 25.02024500000001,
                    "velocity": 0.2992125984251969,
                    "duration": 0.15182187499999955
                },
                {
                    "name": "D3",
                    "midi": 50,
                    "time": 25.141702500000008,
                    "velocity": 0.2677165354330709,
                    "duration": 0.12145750000000177
                },
                {
                    "name": "D2",
                    "midi": 38,
                    "time": 25.26316000000001,
                    "velocity": 0.3700787401574803,
                    "duration": 0.12145750000000177
                },
                {
                    "name": "D3",
                    "midi": 50,
                    "time": 25.38461750000001,
                    "velocity": 0.2440944881889764,
                    "duration": 0.12145749999999822
                },
                {
                    "name": "C#3",
                    "midi": 49,
                    "time": 25.50607500000001,
                    "velocity": 0.2677165354330709,
                    "duration": 0.15182187499999955
                },
                {
                    "name": "D3",
                    "midi": 50,
                    "time": 25.627532500000008,
                    "velocity": 0.23622047244094488,
                    "duration": 0.1518218750000031
                },
                {
                    "name": "C#3",
                    "midi": 49,
                    "time": 25.74899000000001,
                    "velocity": 0.30708661417322836,
                    "duration": 0.1518218750000031
                },
                {
                    "name": "D3",
                    "midi": 50,
                    "time": 25.87044750000001,
                    "velocity": 0.2283464566929134,
                    "duration": 0.1518218750000031
                },
                {
                    "name": "C#3",
                    "midi": 49,
                    "time": 25.991905000000013,
                    "velocity": 0.2677165354330709,
                    "duration": 0.1518218750000031
                },
                {
                    "name": "D3",
                    "midi": 50,
                    "time": 26.113362500000015,
                    "velocity": 0.2440944881889764,
                    "duration": 0.12145750000000177
                },
                {
                    "name": "F#3",
                    "midi": 54,
                    "time": 26.234820000000017,
                    "velocity": 0.3779527559055118,
                    "duration": 0.1518218750000031
                },
                {
                    "name": "E3",
                    "midi": 52,
                    "time": 26.35627750000002,
                    "velocity": 0.29133858267716534,
                    "duration": 0.1518218750000031
                },
                {
                    "name": "F#3",
                    "midi": 54,
                    "time": 26.47773500000002,
                    "velocity": 0.31496062992125984,
                    "duration": 0.1518218750000031
                },
                {
                    "name": "E3",
                    "midi": 52,
                    "time": 26.599192500000022,
                    "velocity": 0.31496062992125984,
                    "duration": 0.1518218750000031
                },
                {
                    "name": "G#3",
                    "midi": 56,
                    "time": 26.720650000000024,
                    "velocity": 0.3937007874015748,
                    "duration": 0.1518218750000031
                },
                {
                    "name": "F#3",
                    "midi": 54,
                    "time": 26.842107500000026,
                    "velocity": 0.28346456692913385,
                    "duration": 0.1518218750000031
                },
                {
                    "name": "G#3",
                    "midi": 56,
                    "time": 26.963565000000028,
                    "velocity": 0.36220472440944884,
                    "duration": 0.1518218750000031
                },
                {
                    "name": "E3",
                    "midi": 52,
                    "time": 27.08502250000003,
                    "velocity": 0.3858267716535433,
                    "duration": 0.12145750000000177
                },
                {
                    "name": "A3",
                    "midi": 57,
                    "time": 27.20648000000003,
                    "velocity": 0.4330708661417323,
                    "duration": 0.1518218750000031
                },
                {
                    "name": "G#3",
                    "midi": 56,
                    "time": 27.327937500000033,
                    "velocity": 0.36220472440944884,
                    "duration": 0.1518218750000031
                },
                {
                    "name": "A3",
                    "midi": 57,
                    "time": 27.449395000000035,
                    "velocity": 0.3700787401574803,
                    "duration": 0.1518218750000031
                },
                {
                    "name": "E3",
                    "midi": 52,
                    "time": 27.570852500000036,
                    "velocity": 0.41732283464566927,
                    "duration": 0.12145750000000177
                },
                {
                    "name": "B3",
                    "midi": 59,
                    "time": 27.692310000000038,
                    "velocity": 0.4881889763779528,
                    "duration": 0.1518218750000031
                },
                {
                    "name": "A3",
                    "midi": 57,
                    "time": 27.81376750000004,
                    "velocity": 0.31496062992125984,
                    "duration": 0.1518218750000031
                },
                {
                    "name": "B3",
                    "midi": 59,
                    "time": 27.93522500000004,
                    "velocity": 0.3779527559055118,
                    "duration": 0.1518218750000031
                },
                {
                    "name": "E3",
                    "midi": 52,
                    "time": 28.056682500000043,
                    "velocity": 0.31496062992125984,
                    "duration": 0.12145750000000177
                },
                {
                    "name": "A3",
                    "midi": 57,
                    "time": 28.178140000000045,
                    "velocity": 0.41732283464566927,
                    "duration": 0.1518218750000031
                },
                {
                    "name": "G#3",
                    "midi": 56,
                    "time": 28.299597500000047,
                    "velocity": 0.31496062992125984,
                    "duration": 0.1518218750000031
                },
                {
                    "name": "A3",
                    "midi": 57,
                    "time": 28.42105500000005,
                    "velocity": 0.36220472440944884,
                    "duration": 0.1518218750000031
                },
                {
                    "name": "E3",
                    "midi": 52,
                    "time": 28.54251250000005,
                    "velocity": 0.31496062992125984,
                    "duration": 0.12145750000000177
                },
                {
                    "name": "G#3",
                    "midi": 56,
                    "time": 28.663970000000052,
                    "velocity": 0.3700787401574803,
                    "duration": 0.1518218750000031
                },
                {
                    "name": "F#3",
                    "midi": 54,
                    "time": 28.785427500000054,
                    "velocity": 0.29133858267716534,
                    "duration": 0.1518218750000031
                },
                {
                    "name": "G#3",
                    "midi": 56,
                    "time": 28.906885000000056,
                    "velocity": 0.31496062992125984,
                    "duration": 0.1518218750000031
                },
                {
                    "name": "E3",
                    "midi": 52,
                    "time": 29.028342500000058,
                    "velocity": 0.2992125984251969,
                    "duration": 0.12145750000000177
                },
                {
                    "name": "C#3",
                    "midi": 49,
                    "time": 29.14980000000006,
                    "velocity": 0.4251968503937008,
                    "duration": 0.12145750000000177
                },
                {
                    "name": "E3",
                    "midi": 52,
                    "time": 29.27125750000006,
                    "velocity": 0.36220472440944884,
                    "duration": 0.12145749999999822
                },
                {
                    "name": "A#3",
                    "midi": 58,
                    "time": 29.39271500000006,
                    "velocity": 0.36220472440944884,
                    "duration": 0.12145749999999822
                },
                {
                    "name": "C#4",
                    "midi": 61,
                    "time": 29.514172500000058,
                    "velocity": 0.3858267716535433,
                    "duration": 0.12145749999999822
                },
                {
                    "name": "B3",
                    "midi": 59,
                    "time": 29.635630000000056,
                    "velocity": 0.4251968503937008,
                    "duration": 0.15182187499999955
                },
                {
                    "name": "A#3",
                    "midi": 58,
                    "time": 29.757087500000054,
                    "velocity": 0.31496062992125984,
                    "duration": 0.1518218750000031
                },
                {
                    "name": "G#3",
                    "midi": 56,
                    "time": 29.878545000000056,
                    "velocity": 0.3858267716535433,
                    "duration": 0.1518218750000031
                },
                {
                    "name": "F#3",
                    "midi": 54,
                    "time": 30.000002500000058,
                    "velocity": 0.31496062992125984,
                    "duration": 0.12145750000000177
                },
                {
                    "name": "B3",
                    "midi": 59,
                    "time": 30.12146000000006,
                    "velocity": 0.4409448818897638,
                    "duration": 0.12145750000000177
                },
                {
                    "name": "C#4",
                    "midi": 61,
                    "time": 30.24291750000006,
                    "velocity": 0.31496062992125984,
                    "duration": 0.12145749999999822
                },
                {
                    "name": "B3",
                    "midi": 59,
                    "time": 30.36437500000006,
                    "velocity": 0.3779527559055118,
                    "duration": 0.15182187499999955
                },
                {
                    "name": "A#3",
                    "midi": 58,
                    "time": 30.485832500000058,
                    "velocity": 0.31496062992125984,
                    "duration": 0.1518218750000031
                },
                {
                    "name": "B3",
                    "midi": 59,
                    "time": 30.60729000000006,
                    "velocity": 0.3937007874015748,
                    "duration": 0.1518218750000031
                },
                {
                    "name": "A3",
                    "midi": 57,
                    "time": 30.72874750000006,
                    "velocity": 0.29133858267716534,
                    "duration": 0.1518218750000031
                },
                {
                    "name": "G#3",
                    "midi": 56,
                    "time": 30.850205000000063,
                    "velocity": 0.31496062992125984,
                    "duration": 0.1518218750000031
                },
                {
                    "name": "F#3",
                    "midi": 54,
                    "time": 30.971662500000065,
                    "velocity": 0.29133858267716534,
                    "duration": 0.12145750000000177
                },
                {
                    "name": "G#3",
                    "midi": 56,
                    "time": 31.093120000000066,
                    "velocity": 0.3858267716535433,
                    "duration": 0.1518218750000031
                },
                {
                    "name": "A3",
                    "midi": 57,
                    "time": 31.21457750000007,
                    "velocity": 0.31496062992125984,
                    "duration": 0.1518218750000031
                },
                {
                    "name": "B3",
                    "midi": 59,
                    "time": 31.33603500000007,
                    "velocity": 0.33070866141732286,
                    "duration": 0.1518218750000031
                },
                {
                    "name": "A3",
                    "midi": 57,
                    "time": 31.457492500000072,
                    "velocity": 0.3700787401574803,
                    "duration": 0.12145750000000177
                },
                {
                    "name": "G#3",
                    "midi": 56,
                    "time": 31.578950000000074,
                    "velocity": 0.4015748031496063,
                    "duration": 0.12145750000000177
                },
                {
                    "name": "E3",
                    "midi": 52,
                    "time": 31.700407500000075,
                    "velocity": 0.31496062992125984,
                    "duration": 0.12145749999999822
                },
                {
                    "name": "F#3",
                    "midi": 54,
                    "time": 31.821865000000074,
                    "velocity": 0.36220472440944884,
                    "duration": 0.15182187499999955
                },
                {
                    "name": "G#3",
                    "midi": 56,
                    "time": 31.943322500000072,
                    "velocity": 0.31496062992125984,
                    "duration": 0.151821874999996
                },
                {
                    "name": "A3",
                    "midi": 57,
                    "time": 32.06478000000007,
                    "velocity": 0.41732283464566927,
                    "duration": 0.151821874999996
                },
                {
                    "name": "B3",
                    "midi": 59,
                    "time": 32.18623750000007,
                    "velocity": 0.31496062992125984,
                    "duration": 0.151821874999996
                },
                {
                    "name": "A3",
                    "midi": 57,
                    "time": 32.307695000000066,
                    "velocity": 0.36220472440944884,
                    "duration": 0.151821874999996
                },
                {
                    "name": "G#3",
                    "midi": 56,
                    "time": 32.429152500000065,
                    "velocity": 0.31496062992125984,
                    "duration": 0.151821874999996
                },
                {
                    "name": "A3",
                    "midi": 57,
                    "time": 32.55061000000006,
                    "velocity": 0.3779527559055118,
                    "duration": 0.151821874999996
                },
                {
                    "name": "G#3",
                    "midi": 56,
                    "time": 32.67206750000006,
                    "velocity": 0.31496062992125984,
                    "duration": 0.151821874999996
                },
                {
                    "name": "F#3",
                    "midi": 54,
                    "time": 32.79352500000006,
                    "velocity": 0.31496062992125984,
                    "duration": 0.151821874999996
                },
                {
                    "name": "F3",
                    "midi": 53,
                    "time": 32.91498250000006,
                    "velocity": 0.2992125984251969,
                    "duration": 0.12145749999999822
                },
                {
                    "name": "F#3",
                    "midi": 54,
                    "time": 33.036440000000056,
                    "velocity": 0.3700787401574803,
                    "duration": 0.12145749999999822
                },
                {
                    "name": "A3",
                    "midi": 57,
                    "time": 33.157897500000054,
                    "velocity": 0.2755905511811024,
                    "duration": 0.12145749999999822
                },
                {
                    "name": "G#3",
                    "midi": 56,
                    "time": 33.27935500000005,
                    "velocity": 0.31496062992125984,
                    "duration": 0.151821874999996
                },
                {
                    "name": "A3",
                    "midi": 57,
                    "time": 33.40081250000005,
                    "velocity": 0.28346456692913385,
                    "duration": 0.12145749999999822
                },
                {
                    "name": "E3",
                    "midi": 52,
                    "time": 33.52227000000005,
                    "velocity": 0.3700787401574803,
                    "duration": 0.12145749999999822
                },
                {
                    "name": "A3",
                    "midi": 57,
                    "time": 33.64372750000005,
                    "velocity": 0.2755905511811024,
                    "duration": 0.12145749999999822
                },
                {
                    "name": "G#3",
                    "midi": 56,
                    "time": 33.765185000000045,
                    "velocity": 0.31496062992125984,
                    "duration": 0.151821874999996
                },
                {
                    "name": "A3",
                    "midi": 57,
                    "time": 33.88664250000004,
                    "velocity": 0.31496062992125984,
                    "duration": 0.12145749999999822
                },
                {
                    "name": "D3",
                    "midi": 50,
                    "time": 34.00810000000004,
                    "velocity": 0.3779527559055118,
                    "duration": 0.12145749999999822
                },
                {
                    "name": "A3",
                    "midi": 57,
                    "time": 34.12955750000004,
                    "velocity": 0.29133858267716534,
                    "duration": 0.12145749999999822
                },
                {
                    "name": "G#3",
                    "midi": 56,
                    "time": 34.25101500000004,
                    "velocity": 0.31496062992125984,
                    "duration": 0.151821874999996
                },
                {
                    "name": "A3",
                    "midi": 57,
                    "time": 34.372472500000036,
                    "velocity": 0.29133858267716534,
                    "duration": 0.12145749999999822
                },
                {
                    "name": "C#3",
                    "midi": 49,
                    "time": 34.493930000000034,
                    "velocity": 0.3700787401574803,
                    "duration": 0.12145749999999822
                },
                {
                    "name": "A3",
                    "midi": 57,
                    "time": 34.61538750000003,
                    "velocity": 0.2992125984251969,
                    "duration": 0.12145749999999822
                },
                {
                    "name": "G#3",
                    "midi": 56,
                    "time": 34.73684500000003,
                    "velocity": 0.31496062992125984,
                    "duration": 0.151821874999996
                },
                {
                    "name": "G3",
                    "midi": 55,
                    "time": 34.85830250000003,
                    "velocity": 0.29133858267716534,
                    "duration": 0.12145749999999822
                },
                {
                    "name": "F#3",
                    "midi": 54,
                    "time": 34.97976000000003,
                    "velocity": 0.36220472440944884,
                    "duration": 0.12145749999999822
                },
                {
                    "name": "A3",
                    "midi": 57,
                    "time": 35.101217500000025,
                    "velocity": 0.29133858267716534,
                    "duration": 0.12145749999999822
                },
                {
                    "name": "G#3",
                    "midi": 56,
                    "time": 35.222675000000024,
                    "velocity": 0.31496062992125984,
                    "duration": 0.151821874999996
                },
                {
                    "name": "A3",
                    "midi": 57,
                    "time": 35.34413250000002,
                    "velocity": 0.29133858267716534,
                    "duration": 0.12145749999999822
                },
                {
                    "name": "E3",
                    "midi": 52,
                    "time": 35.46559000000002,
                    "velocity": 0.3700787401574803,
                    "duration": 0.12145749999999822
                },
                {
                    "name": "A3",
                    "midi": 57,
                    "time": 35.58704750000002,
                    "velocity": 0.30708661417322836,
                    "duration": 0.12145749999999822
                },
                {
                    "name": "G#3",
                    "midi": 56,
                    "time": 35.70850500000002,
                    "velocity": 0.31496062992125984,
                    "duration": 0.151821874999996
                },
                {
                    "name": "A3",
                    "midi": 57,
                    "time": 35.829962500000015,
                    "velocity": 0.30708661417322836,
                    "duration": 0.12145749999999822
                },
                {
                    "name": "D#3",
                    "midi": 51,
                    "time": 35.95142000000001,
                    "velocity": 0.3858267716535433,
                    "duration": 0.12145749999999822
                },
                {
                    "name": "A3",
                    "midi": 57,
                    "time": 36.07287750000001,
                    "velocity": 0.2992125984251969,
                    "duration": 0.12145749999999822
                },
                {
                    "name": "G#3",
                    "midi": 56,
                    "time": 36.19433500000001,
                    "velocity": 0.31496062992125984,
                    "duration": 0.151821874999996
                },
                {
                    "name": "A3",
                    "midi": 57,
                    "time": 36.31579250000001,
                    "velocity": 0.2992125984251969,
                    "duration": 0.151821874999996
                },
                {
                    "name": "F#3",
                    "midi": 54,
                    "time": 36.437250000000006,
                    "velocity": 0.3700787401574803,
                    "duration": 0.12145749999999822
                },
                {
                    "name": "D#4",
                    "midi": 63,
                    "time": 36.558707500000004,
                    "velocity": 0.29133858267716534,
                    "duration": 0.12145749999999822
                },
                {
                    "name": "A3",
                    "midi": 57,
                    "time": 36.680165,
                    "velocity": 0.31496062992125984,
                    "duration": 0.12145749999999822
                },
                {
                    "name": "F#3",
                    "midi": 54,
                    "time": 36.8016225,
                    "velocity": 0.2755905511811024,
                    "duration": 0.12145749999999822
                },
                {
                    "name": "G#3",
                    "midi": 56,
                    "time": 36.92308,
                    "velocity": 0.3779527559055118,
                    "duration": 0.12145749999999822
                },
                {
                    "name": "E3",
                    "midi": 52,
                    "time": 37.0445375,
                    "velocity": 0.31496062992125984,
                    "duration": 0.12145749999999822
                },
                {
                    "name": "D3",
                    "midi": 50,
                    "time": 37.165994999999995,
                    "velocity": 0.3228346456692913,
                    "duration": 0.12145749999999822
                },
                {
                    "name": "E3",
                    "midi": 52,
                    "time": 37.28745249999999,
                    "velocity": 0.3543307086614173,
                    "duration": 0.12145749999999822
                },
                {
                    "name": "C#3",
                    "midi": 49,
                    "time": 37.40890999999999,
                    "velocity": 0.4251968503937008,
                    "duration": 0.12145749999999822
                },
                {
                    "name": "E3",
                    "midi": 52,
                    "time": 37.53036749999999,
                    "velocity": 0.3543307086614173,
                    "duration": 0.12145749999999822
                },
                {
                    "name": "B2",
                    "midi": 47,
                    "time": 37.65182499999999,
                    "velocity": 0.4094488188976378,
                    "duration": 0.12145749999999822
                },
                {
                    "name": "E3",
                    "midi": 52,
                    "time": 37.773282499999986,
                    "velocity": 0.4330708661417323,
                    "duration": 0.12145749999999822
                },
                {
                    "name": "G#2",
                    "midi": 44,
                    "time": 37.894739999999985,
                    "velocity": 0.4645669291338583,
                    "duration": 0.12145749999999822
                },
                {
                    "name": "E3",
                    "midi": 52,
                    "time": 38.01619749999998,
                    "velocity": 0.3543307086614173,
                    "duration": 0.12145749999999822
                },
                {
                    "name": "A2",
                    "midi": 45,
                    "time": 38.13765499999998,
                    "velocity": 0.4094488188976378,
                    "duration": 0.12145749999999822
                },
                {
                    "name": "F#3",
                    "midi": 54,
                    "time": 38.25911249999998,
                    "velocity": 0.36220472440944884,
                    "duration": 0.12145749999999822
                },
                {
                    "name": "B2",
                    "midi": 47,
                    "time": 38.38056999999998,
                    "velocity": 0.41732283464566927,
                    "duration": 0.12145749999999822
                },
                {
                    "name": "G#3",
                    "midi": 56,
                    "time": 38.502027499999976,
                    "velocity": 0.31496062992125984,
                    "duration": 0.12145749999999822
                },
                {
                    "name": "C#3",
                    "midi": 49,
                    "time": 38.623484999999974,
                    "velocity": 0.36220472440944884,
                    "duration": 0.12145749999999822
                },
                {
                    "name": "A3",
                    "midi": 57,
                    "time": 38.74494249999997,
                    "velocity": 0.31496062992125984,
                    "duration": 0.12145749999999822
                },
                {
                    "name": "D3",
                    "midi": 50,
                    "time": 38.86639999999997,
                    "velocity": 0.3700787401574803,
                    "duration": 0.12145749999999822
                },
                {
                    "name": "F#3",
                    "midi": 54,
                    "time": 38.98785749999997,
                    "velocity": 0.31496062992125984,
                    "duration": 0.12145749999999822
                },
                {
                    "name": "A#3",
                    "midi": 58,
                    "time": 39.10931499999997,
                    "velocity": 0.31496062992125984,
                    "duration": 0.151821874999996
                },
                {
                    "name": "B3",
                    "midi": 59,
                    "time": 39.230772499999965,
                    "velocity": 0.36220472440944884,
                    "duration": 0.151821874999996
                },
                {
                    "name": "E3",
                    "midi": 52,
                    "time": 39.35222999999996,
                    "velocity": 0.4015748031496063,
                    "duration": 0.151821874999996
                },
                {
                    "name": "B3",
                    "midi": 59,
                    "time": 39.47368749999996,
                    "velocity": 0.31496062992125984,
                    "duration": 0.12145749999999822
                },
                {
                    "name": "D4",
                    "midi": 62,
                    "time": 39.59514499999996,
                    "velocity": 0.33858267716535434,
                    "duration": 0.12145749999999822
                },
                {
                    "name": "E4",
                    "midi": 64,
                    "time": 39.71660249999996,
                    "velocity": 0.31496062992125984,
                    "duration": 0.12145749999999822
                },
                {
                    "name": "A3",
                    "midi": 57,
                    "time": 39.838059999999956,
                    "velocity": 0.44881889763779526,
                    "duration": 0.12145749999999822
                },
                {
                    "name": "D4",
                    "midi": 62,
                    "time": 39.959517499999954,
                    "velocity": 0.31496062992125984,
                    "duration": 0.12145749999999822
                },
                {
                    "name": "E4",
                    "midi": 64,
                    "time": 40.08097499999995,
                    "velocity": 0.3543307086614173,
                    "duration": 0.12145749999999822
                },
                {
                    "name": "D4",
                    "midi": 62,
                    "time": 40.20243249999995,
                    "velocity": 0.31496062992125984,
                    "duration": 0.12145749999999822
                },
                {
                    "name": "C#4",
                    "midi": 61,
                    "time": 40.32388999999995,
                    "velocity": 0.4094488188976378,
                    "duration": 0.12145749999999822
                },
                {
                    "name": "B3",
                    "midi": 59,
                    "time": 40.44534749999995,
                    "velocity": 0.2677165354330709,
                    "duration": 0.151821874999996
                },
                {
                    "name": "A3",
                    "midi": 57,
                    "time": 40.566804999999945,
                    "velocity": 0.31496062992125984,
                    "duration": 0.151821874999996
                },
                {
                    "name": "B3",
                    "midi": 59,
                    "time": 40.688262499999944,
                    "velocity": 0.2677165354330709,
                    "duration": 0.151821874999996
                },
                {
                    "name": "C#4",
                    "midi": 61,
                    "time": 40.80971999999994,
                    "velocity": 0.36220472440944884,
                    "duration": 0.151821874999996
                },
                {
                    "name": "D4",
                    "midi": 62,
                    "time": 40.93117749999994,
                    "velocity": 0.2677165354330709,
                    "duration": 0.151821874999996
                },
                {
                    "name": "E4",
                    "midi": 64,
                    "time": 41.05263499999994,
                    "velocity": 0.28346456692913385,
                    "duration": 0.151821874999996
                },
                {
                    "name": "F#4",
                    "midi": 66,
                    "time": 41.17409249999994,
                    "velocity": 0.2677165354330709,
                    "duration": 0.151821874999996
                },
                {
                    "name": "G4",
                    "midi": 67,
                    "time": 41.295549999999935,
                    "velocity": 0.31496062992125984,
                    "duration": 0.151821874999996
                },
                {
                    "name": "F#4",
                    "midi": 66,
                    "time": 41.41700749999993,
                    "velocity": 0.23622047244094488,
                    "duration": 0.151821874999996
                },
                {
                    "name": "G4",
                    "midi": 67,
                    "time": 41.53846499999993,
                    "velocity": 0.25984251968503935,
                    "duration": 0.151821874999996
                },
                {
                    "name": "F4",
                    "midi": 65,
                    "time": 41.65992249999993,
                    "velocity": 0.23622047244094488,
                    "duration": 0.151821874999996
                },
                {
                    "name": "F#4",
                    "midi": 66,
                    "time": 41.78137999999993,
                    "velocity": 0.31496062992125984,
                    "duration": 0.151821874999996
                },
                {
                    "name": "F4",
                    "midi": 65,
                    "time": 41.902837499999926,
                    "velocity": 0.2440944881889764,
                    "duration": 0.151821874999996
                },
                {
                    "name": "F#4",
                    "midi": 66,
                    "time": 42.024294999999924,
                    "velocity": 0.2755905511811024,
                    "duration": 0.151821874999996
                },
                {
                    "name": "D4",
                    "midi": 62,
                    "time": 42.14575249999992,
                    "velocity": 0.23622047244094488,
                    "duration": 0.151821874999996
                },
                {
                    "name": "F4",
                    "midi": 65,
                    "time": 42.26720999999992,
                    "velocity": 0.31496062992125984,
                    "duration": 0.151821874999996
                },
                {
                    "name": "E4",
                    "midi": 64,
                    "time": 42.38866749999992,
                    "velocity": 0.2440944881889764,
                    "duration": 0.151821874999996
                },
                {
                    "name": "F4",
                    "midi": 65,
                    "time": 42.51012499999992,
                    "velocity": 0.2677165354330709,
                    "duration": 0.151821874999996
                },
                {
                    "name": "D4",
                    "midi": 62,
                    "time": 42.631582499999915,
                    "velocity": 0.2440944881889764,
                    "duration": 0.12145749999999822
                },
                {
                    "name": "C#4",
                    "midi": 61,
                    "time": 42.75303999999991,
                    "velocity": 0.31496062992125984,
                    "duration": 0.151821874999996
                },
                {
                    "name": "C4",
                    "midi": 60,
                    "time": 42.87449749999991,
                    "velocity": 0.25196850393700787,
                    "duration": 0.151821874999996
                },
                {
                    "name": "C#4",
                    "midi": 61,
                    "time": 42.99595499999991,
                    "velocity": 0.2755905511811024,
                    "duration": 0.151821874999996
                },
                {
                    "name": "A3",
                    "midi": 57,
                    "time": 43.11741249999991,
                    "velocity": 0.23622047244094488,
                    "duration": 0.151821874999996
                },
                {
                    "name": "G3",
                    "midi": 55,
                    "time": 43.238869999999906,
                    "velocity": 0.31496062992125984,
                    "duration": 0.151821874999996
                },
                {
                    "name": "F#3",
                    "midi": 54,
                    "time": 43.360327499999904,
                    "velocity": 0.23622047244094488,
                    "duration": 0.151821874999996
                },
                {
                    "name": "G3",
                    "midi": 55,
                    "time": 43.4817849999999,
                    "velocity": 0.2677165354330709,
                    "duration": 0.151821874999996
                },
                {
                    "name": "E3",
                    "midi": 52,
                    "time": 43.6032424999999,
                    "velocity": 0.23622047244094488,
                    "duration": 0.12145749999999822
                },
                {
                    "name": "D3",
                    "midi": 50,
                    "time": 43.7246999999999,
                    "velocity": 0.33070866141732286,
                    "duration": 0.151821874999996
                },
                {
                    "name": "F#3",
                    "midi": 54,
                    "time": 43.8461574999999,
                    "velocity": 0.29133858267716534,
                    "duration": 0.151821874999996
                },
                {
                    "name": "A3",
                    "midi": 57,
                    "time": 43.967614999999896,
                    "velocity": 0.33858267716535434,
                    "duration": 0.151821874999996
                },
                {
                    "name": "G3",
                    "midi": 55,
                    "time": 44.089072499999894,
                    "velocity": 0.31496062992125984,
                    "duration": 0.151821874999996
                },
                {
                    "name": "F#3",
                    "midi": 54,
                    "time": 44.21052999999989,
                    "velocity": 0.36220472440944884,
                    "duration": 0.151821874999996
                },
                {
                    "name": "G3",
                    "midi": 55,
                    "time": 44.33198749999989,
                    "velocity": 0.3228346456692913,
                    "duration": 0.151821874999996
                },
                {
                    "name": "F#3",
                    "midi": 54,
                    "time": 44.45344499999989,
                    "velocity": 0.36220472440944884,
                    "duration": 0.151821874999996
                },
                {
                    "name": "E3",
                    "midi": 52,
                    "time": 44.57490249999989,
                    "velocity": 0.3228346456692913,
                    "duration": 0.12145749999999822
                },
                {
                    "name": "D#3",
                    "midi": 51,
                    "time": 44.696359999999885,
                    "velocity": 0.3937007874015748,
                    "duration": 0.151821874999996
                },
                {
                    "name": "F#3",
                    "midi": 54,
                    "time": 44.81781749999988,
                    "velocity": 0.30708661417322836,
                    "duration": 0.151821874999996
                },
                {
                    "name": "A3",
                    "midi": 57,
                    "time": 44.93927499999988,
                    "velocity": 0.36220472440944884,
                    "duration": 0.151821874999996
                },
                {
                    "name": "G3",
                    "midi": 55,
                    "time": 45.06073249999988,
                    "velocity": 0.33070866141732286,
                    "duration": 0.151821874999996
                },
                {
                    "name": "F#3",
                    "midi": 54,
                    "time": 45.18218999999988,
                    "velocity": 0.36220472440944884,
                    "duration": 0.151821874999996
                },
                {
                    "name": "G3",
                    "midi": 55,
                    "time": 45.303647499999876,
                    "velocity": 0.33070866141732286,
                    "duration": 0.151821874999996
                },
                {
                    "name": "F#3",
                    "midi": 54,
                    "time": 45.425104999999874,
                    "velocity": 0.36220472440944884,
                    "duration": 0.151821874999996
                },
                {
                    "name": "E3",
                    "midi": 52,
                    "time": 45.54656249999987,
                    "velocity": 0.33858267716535434,
                    "duration": 0.12145749999999822
                },
                {
                    "name": "D#3",
                    "midi": 51,
                    "time": 45.66801999999987,
                    "velocity": 0.36220472440944884,
                    "duration": 0.151821874999996
                },
                {
                    "name": "F#3",
                    "midi": 54,
                    "time": 45.78947749999987,
                    "velocity": 0.31496062992125984,
                    "duration": 0.151821874999996
                },
                {
                    "name": "A3",
                    "midi": 57,
                    "time": 45.91093499999987,
                    "velocity": 0.3700787401574803,
                    "duration": 0.151821874999996
                },
                {
                    "name": "G3",
                    "midi": 55,
                    "time": 46.032392499999865,
                    "velocity": 0.3464566929133858,
                    "duration": 0.151821874999996
                },
                {
                    "name": "F#3",
                    "midi": 54,
                    "time": 46.15384999999986,
                    "velocity": 0.3937007874015748,
                    "duration": 0.151821874999996
                },
                {
                    "name": "G3",
                    "midi": 55,
                    "time": 46.27530749999986,
                    "velocity": 0.3543307086614173,
                    "duration": 0.151821874999996
                },
                {
                    "name": "F#3",
                    "midi": 54,
                    "time": 46.39676499999986,
                    "velocity": 0.3937007874015748,
                    "duration": 0.151821874999996
                },
                {
                    "name": "E3",
                    "midi": 52,
                    "time": 46.51822249999986,
                    "velocity": 0.3543307086614173,
                    "duration": 0.12145749999999822
                },
                {
                    "name": "D#3",
                    "midi": 51,
                    "time": 46.639679999999856,
                    "velocity": 0.4330708661417323,
                    "duration": 0.151821874999996
                },
                {
                    "name": "F#3",
                    "midi": 54,
                    "time": 46.761137499999855,
                    "velocity": 0.33070866141732286,
                    "duration": 0.151821874999996
                },
                {
                    "name": "A3",
                    "midi": 57,
                    "time": 46.88259499999985,
                    "velocity": 0.3937007874015748,
                    "duration": 0.151821874999996
                },
                {
                    "name": "G3",
                    "midi": 55,
                    "time": 47.00405249999985,
                    "velocity": 0.36220472440944884,
                    "duration": 0.151821874999996
                },
                {
                    "name": "F#3",
                    "midi": 54,
                    "time": 47.12550999999985,
                    "velocity": 0.3937007874015748,
                    "duration": 0.151821874999996
                },
                {
                    "name": "G3",
                    "midi": 55,
                    "time": 47.24696749999985,
                    "velocity": 0.36220472440944884,
                    "duration": 0.151821874999996
                },
                {
                    "name": "F#3",
                    "midi": 54,
                    "time": 47.368424999999846,
                    "velocity": 0.3937007874015748,
                    "duration": 0.151821874999996
                },
                {
                    "name": "F3",
                    "midi": 53,
                    "time": 47.489882499999844,
                    "velocity": 0.3700787401574803,
                    "duration": 0.12145749999999822
                },
                {
                    "name": "E3",
                    "midi": 52,
                    "time": 47.61133999999984,
                    "velocity": 0.3937007874015748,
                    "duration": 0.151821874999996
                },
                {
                    "name": "G#3",
                    "midi": 56,
                    "time": 47.73279749999984,
                    "velocity": 0.3464566929133858,
                    "duration": 0.151821874999996
                },
                {
                    "name": "B3",
                    "midi": 59,
                    "time": 47.85425499999984,
                    "velocity": 0.4015748031496063,
                    "duration": 0.151821874999996
                },
                {
                    "name": "A3",
                    "midi": 57,
                    "time": 47.97571249999984,
                    "velocity": 0.3779527559055118,
                    "duration": 0.151821874999996
                },
                {
                    "name": "G#3",
                    "midi": 56,
                    "time": 48.097169999999835,
                    "velocity": 0.4330708661417323,
                    "duration": 0.151821874999996
                },
                {
                    "name": "A3",
                    "midi": 57,
                    "time": 48.21862749999983,
                    "velocity": 0.3858267716535433,
                    "duration": 0.151821874999996
                },
                {
                    "name": "G#3",
                    "midi": 56,
                    "time": 48.34008499999983,
                    "velocity": 0.4330708661417323,
                    "duration": 0.151821874999996
                },
                {
                    "name": "F#3",
                    "midi": 54,
                    "time": 48.46154249999983,
                    "velocity": 0.3858267716535433,
                    "duration": 0.12145749999999822
                },
                {
                    "name": "F3",
                    "midi": 53,
                    "time": 48.58299999999983,
                    "velocity": 0.47244094488188976,
                    "duration": 0.151821874999996
                },
                {
                    "name": "G#3",
                    "midi": 56,
                    "time": 48.704457499999826,
                    "velocity": 0.36220472440944884,
                    "duration": 0.151821874999996
                },
                {
                    "name": "B3",
                    "midi": 59,
                    "time": 48.825914999999824,
                    "velocity": 0.4330708661417323,
                    "duration": 0.151821874999996
                },
                {
                    "name": "A3",
                    "midi": 57,
                    "time": 48.94737249999982,
                    "velocity": 0.3937007874015748,
                    "duration": 0.151821874999996
                },
                {
                    "name": "G#3",
                    "midi": 56,
                    "time": 49.06882999999982,
                    "velocity": 0.4330708661417323,
                    "duration": 0.151821874999996
                },
                {
                    "name": "A3",
                    "midi": 57,
                    "time": 49.19028749999982,
                    "velocity": 0.3937007874015748,
                    "duration": 0.151821874999996
                },
                {
                    "name": "G#3",
                    "midi": 56,
                    "time": 49.31174499999982,
                    "velocity": 0.4330708661417323,
                    "duration": 0.151821874999996
                },
                {
                    "name": "F#3",
                    "midi": 54,
                    "time": 49.433202499999815,
                    "velocity": 0.4015748031496063,
                    "duration": 0.12145749999999822
                },
                {
                    "name": "F3",
                    "midi": 53,
                    "time": 49.554659999999814,
                    "velocity": 0.4330708661417323,
                    "duration": 0.151821874999996
                },
                {
                    "name": "G#3",
                    "midi": 56,
                    "time": 49.67611749999981,
                    "velocity": 0.3779527559055118,
                    "duration": 0.151821874999996
                },
                {
                    "name": "B3",
                    "midi": 59,
                    "time": 49.79757499999981,
                    "velocity": 0.4409448818897638,
                    "duration": 0.151821874999996
                },
                {
                    "name": "A3",
                    "midi": 57,
                    "time": 49.91903249999981,
                    "velocity": 0.4094488188976378,
                    "duration": 0.151821874999996
                },
                {
                    "name": "G#3",
                    "midi": 56,
                    "time": 50.04048999999981,
                    "velocity": 0.47244094488188976,
                    "duration": 0.151821874999996
                },
                {
                    "name": "A3",
                    "midi": 57,
                    "time": 50.161947499999805,
                    "velocity": 0.41732283464566927,
                    "duration": 0.151821874999996
                },
                {
                    "name": "G#3",
                    "midi": 56,
                    "time": 50.2834049999998,
                    "velocity": 0.47244094488188976,
                    "duration": 0.151821874999996
                },
                {
                    "name": "F#3",
                    "midi": 54,
                    "time": 50.4048624999998,
                    "velocity": 0.41732283464566927,
                    "duration": 0.12145749999999822
                },
                {
                    "name": "F3",
                    "midi": 53,
                    "time": 50.5263199999998,
                    "velocity": 0.5196850393700787,
                    "duration": 0.151821874999996
                },
                {
                    "name": "G#3",
                    "midi": 56,
                    "time": 50.6477774999998,
                    "velocity": 0.3937007874015748,
                    "duration": 0.151821874999996
                },
                {
                    "name": "F4",
                    "midi": 65,
                    "time": 50.769234999999796,
                    "velocity": 0.47244094488188976,
                    "duration": 0.151821874999996
                },
                {
                    "name": "D4",
                    "midi": 62,
                    "time": 50.890692499999794,
                    "velocity": 0.4330708661417323,
                    "duration": 0.151821874999996
                },
                {
                    "name": "C#4",
                    "midi": 61,
                    "time": 51.01214999999979,
                    "velocity": 0.47244094488188976,
                    "duration": 0.151821874999996
                },
                {
                    "name": "D4",
                    "midi": 62,
                    "time": 51.13360749999979,
                    "velocity": 0.4330708661417323,
                    "duration": 0.151821874999996
                },
                {
                    "name": "C#4",
                    "midi": 61,
                    "time": 51.25506499999979,
                    "velocity": 0.47244094488188976,
                    "duration": 0.151821874999996
                },
                {
                    "name": "B3",
                    "midi": 59,
                    "time": 51.37652249999979,
                    "velocity": 0.4409448818897638,
                    "duration": 0.12145749999999822
                },
                {
                    "name": "A#3",
                    "midi": 58,
                    "time": 51.497979999999785,
                    "velocity": 0.5196850393700787,
                    "duration": 0.151821874999996
                },
                {
                    "name": "C#4",
                    "midi": 61,
                    "time": 51.61943749999978,
                    "velocity": 0.3937007874015748,
                    "duration": 0.151821874999996
                },
                {
                    "name": "F#4",
                    "midi": 66,
                    "time": 51.74089499999978,
                    "velocity": 0.47244094488188976,
                    "duration": 0.151821874999996
                },
                {
                    "name": "E4",
                    "midi": 64,
                    "time": 51.86235249999978,
                    "velocity": 0.4330708661417323,
                    "duration": 0.151821874999996
                },
                {
                    "name": "D4",
                    "midi": 62,
                    "time": 51.98380999999978,
                    "velocity": 0.47244094488188976,
                    "duration": 0.151821874999996
                },
                {
                    "name": "E4",
                    "midi": 64,
                    "time": 52.105267499999776,
                    "velocity": 0.4330708661417323,
                    "duration": 0.151821874999996
                },
                {
                    "name": "D4",
                    "midi": 62,
                    "time": 52.226724999999774,
                    "velocity": 0.47244094488188976,
                    "duration": 0.151821874999996
                },
                {
                    "name": "C#4",
                    "midi": 61,
                    "time": 52.34818249999977,
                    "velocity": 0.4409448818897638,
                    "duration": 0.12145749999999822
                },
                {
                    "name": "B3",
                    "midi": 59,
                    "time": 52.46963999999977,
                    "velocity": 0.47244094488188976,
                    "duration": 0.151821874999996
                },
                {
                    "name": "C#4",
                    "midi": 61,
                    "time": 52.59109749999977,
                    "velocity": 0.4330708661417323,
                    "duration": 0.151821874999996
                },
                {
                    "name": "B3",
                    "midi": 59,
                    "time": 52.71255499999977,
                    "velocity": 0.47244094488188976,
                    "duration": 0.151821874999996
                },
                {
                    "name": "C#4",
                    "midi": 61,
                    "time": 52.834012499999766,
                    "velocity": 0.4330708661417323,
                    "duration": 0.151821874999996
                },
                {
                    "name": "D4",
                    "midi": 62,
                    "time": 52.955469999999764,
                    "velocity": 0.47244094488188976,
                    "duration": 0.151821874999996
                },
                {
                    "name": "B3",
                    "midi": 59,
                    "time": 53.07692749999976,
                    "velocity": 0.4094488188976378,
                    "duration": 0.12145749999999822
                },
                {
                    "name": "E4",
                    "midi": 64,
                    "time": 53.19838499999976,
                    "velocity": 0.49606299212598426,
                    "duration": 0.151821874999996
                },
                {
                    "name": "D4",
                    "midi": 62,
                    "time": 53.31984249999976,
                    "velocity": 0.4409448818897638,
                    "duration": 0.151821874999996
                },
                {
                    "name": "C#4",
                    "midi": 61,
                    "time": 53.44129999999976,
                    "velocity": 0.4566929133858268,
                    "duration": 0.151821874999996
                },
                {
                    "name": "B3",
                    "midi": 59,
                    "time": 53.562757499999755,
                    "velocity": 0.44881889763779526,
                    "duration": 0.151821874999996
                },
                {
                    "name": "A3",
                    "midi": 57,
                    "time": 53.68421499999975,
                    "velocity": 0.4251968503937008,
                    "duration": 0.151821874999996
                },
                {
                    "name": "G3",
                    "midi": 55,
                    "time": 53.80567249999975,
                    "velocity": 0.3858267716535433,
                    "duration": 0.151821874999996
                },
                {
                    "name": "F#3",
                    "midi": 54,
                    "time": 53.92712999999975,
                    "velocity": 0.4881889763779528,
                    "duration": 0.151821874999996
                },
                {
                    "name": "E3",
                    "midi": 52,
                    "time": 54.04858749999975,
                    "velocity": 0.4015748031496063,
                    "duration": 0.151821874999996
                },
                {
                    "name": "F#3",
                    "midi": 54,
                    "time": 54.170044999999746,
                    "velocity": 0.48031496062992124,
                    "duration": 0.151821874999996
                },
                {
                    "name": "E3",
                    "midi": 52,
                    "time": 54.291502499999744,
                    "velocity": 0.4251968503937008,
                    "duration": 0.12145749999999822
                },
                {
                    "name": "D3",
                    "midi": 50,
                    "time": 54.41295999999974,
                    "velocity": 0.47244094488188976,
                    "duration": 0.151821874999996
                },
                {
                    "name": "C#3",
                    "midi": 49,
                    "time": 54.53441749999974,
                    "velocity": 0.3937007874015748,
                    "duration": 0.151821874999996
                },
                {
                    "name": "D3",
                    "midi": 50,
                    "time": 54.65587499999974,
                    "velocity": 0.47244094488188976,
                    "duration": 0.151821874999996
                },
                {
                    "name": "C#3",
                    "midi": 49,
                    "time": 54.77733249999974,
                    "velocity": 0.4015748031496063,
                    "duration": 0.151821874999996
                },
                {
                    "name": "B2",
                    "midi": 47,
                    "time": 54.898789999999735,
                    "velocity": 0.47244094488188976,
                    "duration": 0.151821874999996
                },
                {
                    "name": "A2",
                    "midi": 45,
                    "time": 55.02024749999973,
                    "velocity": 0.4330708661417323,
                    "duration": 0.151821874999996
                },
                {
                    "name": "B2",
                    "midi": 47,
                    "time": 55.14170499999973,
                    "velocity": 0.47244094488188976,
                    "duration": 0.151821874999996
                },
                {
                    "name": "G#2",
                    "midi": 44,
                    "time": 55.26316249999973,
                    "velocity": 0.4015748031496063,
                    "duration": 0.12145749999999822
                },
                {
                    "name": "C#3",
                    "midi": 49,
                    "time": 55.38461999999973,
                    "velocity": 0.5196850393700787,
                    "duration": 0.151821874999996
                },
                {
                    "name": "G#3",
                    "midi": 56,
                    "time": 55.506077499999726,
                    "velocity": 0.3937007874015748,
                    "duration": 0.151821874999996
                },
                {
                    "name": "C#4",
                    "midi": 61,
                    "time": 55.627534999999725,
                    "velocity": 0.47244094488188976,
                    "duration": 0.19028341666666648
                },
                {
                    "name": "B3",
                    "midi": 59,
                    "time": 55.74899249999972,
                    "velocity": 0.4330708661417323,
                    "duration": 0.19028341666666648
                },
                {
                    "name": "A3",
                    "midi": 57,
                    "time": 55.87044999999972,
                    "velocity": 0.47244094488188976,
                    "duration": 0.19028341666666648
                },
                {
                    "name": "G#3",
                    "midi": 56,
                    "time": 55.99190749999972,
                    "velocity": 0.4330708661417323,
                    "duration": 0.19028341666666648
                },
                {
                    "name": "A3",
                    "midi": 57,
                    "time": 56.11336499999972,
                    "velocity": 0.47244094488188976,
                    "duration": 0.19028341666666648
                },
                {
                    "name": "G#3",
                    "midi": 56,
                    "time": 56.234822499999716,
                    "velocity": 0.4409448818897638,
                    "duration": 0.12145749999999822
                },
                {
                    "name": "F#3",
                    "midi": 54,
                    "time": 56.356279999999714,
                    "velocity": 0.47244094488188976,
                    "duration": 0.151821874999996
                },
                {
                    "name": "G#3",
                    "midi": 56,
                    "time": 56.47773749999971,
                    "velocity": 0.4330708661417323,
                    "duration": 0.151821874999996
                },
                {
                    "name": "F#3",
                    "midi": 54,
                    "time": 56.59919499999971,
                    "velocity": 0.47244094488188976,
                    "duration": 0.151821874999996
                },
                {
                    "name": "G#3",
                    "midi": 56,
                    "time": 56.72065249999971,
                    "velocity": 0.4330708661417323,
                    "duration": 0.151821874999996
                },
                {
                    "name": "A3",
                    "midi": 57,
                    "time": 56.84210999999971,
                    "velocity": 0.47244094488188976,
                    "duration": 0.151821874999996
                },
                {
                    "name": "F#3",
                    "midi": 54,
                    "time": 56.963567499999705,
                    "velocity": 0.4094488188976378,
                    "duration": 0.12145749999999822
                },
                {
                    "name": "B3",
                    "midi": 59,
                    "time": 57.0850249999997,
                    "velocity": 0.49606299212598426,
                    "duration": 0.151821874999996
                },
                {
                    "name": "A3",
                    "midi": 57,
                    "time": 57.2064824999997,
                    "velocity": 0.4409448818897638,
                    "duration": 0.151821874999996
                },
                {
                    "name": "G#3",
                    "midi": 56,
                    "time": 57.3279399999997,
                    "velocity": 0.4566929133858268,
                    "duration": 0.151821874999996
                },
                {
                    "name": "F#3",
                    "midi": 54,
                    "time": 57.4493974999997,
                    "velocity": 0.44881889763779526,
                    "duration": 0.151821874999996
                },
                {
                    "name": "E3",
                    "midi": 52,
                    "time": 57.570854999999696,
                    "velocity": 0.4251968503937008,
                    "duration": 0.151821874999996
                },
                {
                    "name": "D3",
                    "midi": 50,
                    "time": 57.692312499999694,
                    "velocity": 0.3858267716535433,
                    "duration": 0.151821874999996
                },
                {
                    "name": "C#3",
                    "midi": 49,
                    "time": 57.81376999999969,
                    "velocity": 0.4881889763779528,
                    "duration": 0.151821874999996
                },
                {
                    "name": "B2",
                    "midi": 47,
                    "time": 57.93522749999969,
                    "velocity": 0.4015748031496063,
                    "duration": 0.151821874999996
                },
                {
                    "name": "C#3",
                    "midi": 49,
                    "time": 58.05668499999969,
                    "velocity": 0.48031496062992124,
                    "duration": 0.151821874999996
                },
                {
                    "name": "B2",
                    "midi": 47,
                    "time": 58.17814249999969,
                    "velocity": 0.4251968503937008,
                    "duration": 0.12145749999999822
                },
                {
                    "name": "A2",
                    "midi": 45,
                    "time": 58.299599999999685,
                    "velocity": 0.47244094488188976,
                    "duration": 0.12145749999999822
                },
                {
                    "name": "C#3",
                    "midi": 49,
                    "time": 58.421057499999684,
                    "velocity": 0.3937007874015748,
                    "duration": 0.12145749999999822
                },
                {
                    "name": "A3",
                    "midi": 57,
                    "time": 58.54251499999968,
                    "velocity": 0.47244094488188976,
                    "duration": 0.151821874999996
                },
                {
                    "name": "G#3",
                    "midi": 56,
                    "time": 58.66397249999968,
                    "velocity": 0.4015748031496063,
                    "duration": 0.151821874999996
                },
                {
                    "name": "F#3",
                    "midi": 54,
                    "time": 58.78542999999968,
                    "velocity": 0.47244094488188976,
                    "duration": 0.151821874999996
                },
                {
                    "name": "E3",
                    "midi": 52,
                    "time": 58.90688749999968,
                    "velocity": 0.4330708661417323,
                    "duration": 0.151821874999996
                },
                {
                    "name": "F#3",
                    "midi": 54,
                    "time": 59.028344999999675,
                    "velocity": 0.47244094488188976,
                    "duration": 0.151821874999996
                },
                {
                    "name": "E3",
                    "midi": 52,
                    "time": 59.14980249999967,
                    "velocity": 0.4015748031496063,
                    "duration": 0.12145749999999822
                },
                {
                    "name": "D3",
                    "midi": 50,
                    "time": 59.27125999999967,
                    "velocity": 0.4330708661417323,
                    "duration": 0.12145749999999822
                },
                {
                    "name": "F#3",
                    "midi": 54,
                    "time": 59.39271749999967,
                    "velocity": 0.3779527559055118,
                    "duration": 0.12145749999999822
                },
                {
                    "name": "A3",
                    "midi": 57,
                    "time": 59.51417499999967,
                    "velocity": 0.4409448818897638,
                    "duration": 0.12145749999999822
                },
                {
                    "name": "G#3",
                    "midi": 56,
                    "time": 59.635632499999666,
                    "velocity": 0.4094488188976378,
                    "duration": 0.12145749999999822
                },
                {
                    "name": "F#3",
                    "midi": 54,
                    "time": 59.757089999999664,
                    "velocity": 0.47244094488188976,
                    "duration": 0.12145749999999822
                },
                {
                    "name": "F3",
                    "midi": 53,
                    "time": 59.87854749999966,
                    "velocity": 0.41732283464566927,
                    "duration": 0.12145749999999822
                },
                {
                    "name": "F#3",
                    "midi": 54,
                    "time": 60.00000499999966,
                    "velocity": 0.47244094488188976,
                    "duration": 0.12145749999999822
                },
                {
                    "name": "D3",
                    "midi": 50,
                    "time": 60.12146249999966,
                    "velocity": 0.41732283464566927,
                    "duration": 0.12145749999999822
                },
                {
                    "name": "C#3",
                    "midi": 49,
                    "time": 60.24291999999966,
                    "velocity": 0.5196850393700787,
                    "duration": 0.12145749999999822
                },
                {
                    "name": "F#3",
                    "midi": 54,
                    "time": 60.364377499999655,
                    "velocity": 0.3937007874015748,
                    "duration": 0.12145749999999822
                },
                {
                    "name": "A3",
                    "midi": 57,
                    "time": 60.48583499999965,
                    "velocity": 0.47244094488188976,
                    "duration": 0.12145749999999822
                },
                {
                    "name": "G#3",
                    "midi": 56,
                    "time": 60.60729249999965,
                    "velocity": 0.4330708661417323,
                    "duration": 0.12145749999999822
                },
                {
                    "name": "F#3",
                    "midi": 54,
                    "time": 60.72874999999965,
                    "velocity": 0.47244094488188976,
                    "duration": 0.151821874999996
                },
                {
                    "name": "F3",
                    "midi": 53,
                    "time": 60.85020749999965,
                    "velocity": 0.4330708661417323,
                    "duration": 0.151821874999996
                },
                {
                    "name": "F#3",
                    "midi": 54,
                    "time": 60.971664999999646,
                    "velocity": 0.47244094488188976,
                    "duration": 0.151821874999996
                },
                {
                    "name": "C#3",
                    "midi": 49,
                    "time": 61.093122499999645,
                    "velocity": 0.4409448818897638,
                    "duration": 0.12145749999999822
                },
                {
                    "name": "D3",
                    "midi": 50,
                    "time": 61.21457999999964,
                    "velocity": 0.4409448818897638,
                    "duration": 0.12145749999999822
                },
                {
                    "name": "F#3",
                    "midi": 54,
                    "time": 61.33603749999964,
                    "velocity": 0.3779527559055118,
                    "duration": 0.12145749999999822
                },
                {
                    "name": "A3",
                    "midi": 57,
                    "time": 61.45749499999964,
                    "velocity": 0.44881889763779526,
                    "duration": 0.12145749999999822
                },
                {
                    "name": "G#3",
                    "midi": 56,
                    "time": 61.57895249999964,
                    "velocity": 0.41732283464566927,
                    "duration": 0.12145749999999822
                },
                {
                    "name": "F#3",
                    "midi": 54,
                    "time": 61.700409999999636,
                    "velocity": 0.48031496062992124,
                    "duration": 0.12145749999999822
                },
                {
                    "name": "F3",
                    "midi": 53,
                    "time": 61.821867499999634,
                    "velocity": 0.4251968503937008,
                    "duration": 0.12145749999999822
                },
                {
                    "name": "F#3",
                    "midi": 54,
                    "time": 61.94332499999963,
                    "velocity": 0.48031496062992124,
                    "duration": 0.12145749999999822
                },
                {
                    "name": "D3",
                    "midi": 50,
                    "time": 62.06478249999963,
                    "velocity": 0.4251968503937008,
                    "duration": 0.12145749999999822
                },
                {
                    "name": "C#3",
                    "midi": 49,
                    "time": 62.18623999999963,
                    "velocity": 0.5275590551181102,
                    "duration": 0.12145749999999822
                },
                {
                    "name": "F#3",
                    "midi": 54,
                    "time": 62.30769749999963,
                    "velocity": 0.4015748031496063,
                    "duration": 0.12145749999999822
                },
                {
                    "name": "A3",
                    "midi": 57,
                    "time": 62.429154999999625,
                    "velocity": 0.48031496062992124,
                    "duration": 0.12145749999999822
                },
                {
                    "name": "G#3",
                    "midi": 56,
                    "time": 62.55061249999962,
                    "velocity": 0.4409448818897638,
                    "duration": 0.12145749999999822
                },
                {
                    "name": "F#3",
                    "midi": 54,
                    "time": 62.67206999999962,
                    "velocity": 0.48031496062992124,
                    "duration": 0.151821874999996
                },
                {
                    "name": "F3",
                    "midi": 53,
                    "time": 62.79352749999962,
                    "velocity": 0.4409448818897638,
                    "duration": 0.151821874999996
                },
                {
                    "name": "F#3",
                    "midi": 54,
                    "time": 62.91498499999962,
                    "velocity": 0.48031496062992124,
                    "duration": 0.151821874999996
                },
                {
                    "name": "C#3",
                    "midi": 49,
                    "time": 63.036442499999616,
                    "velocity": 0.44881889763779526,
                    "duration": 0.12145749999999822
                },
                {
                    "name": "D3",
                    "midi": 50,
                    "time": 63.157899999999614,
                    "velocity": 0.4409448818897638,
                    "duration": 0.12145749999999822
                },
                {
                    "name": "F#3",
                    "midi": 54,
                    "time": 63.27935749999961,
                    "velocity": 0.3779527559055118,
                    "duration": 0.12145749999999822
                },
                {
                    "name": "A3",
                    "midi": 57,
                    "time": 63.40081499999961,
                    "velocity": 0.4566929133858268,
                    "duration": 0.12145749999999822
                },
                {
                    "name": "G#3",
                    "midi": 56,
                    "time": 63.52227249999961,
                    "velocity": 0.4330708661417323,
                    "duration": 0.12145749999999822
                },
                {
                    "name": "F#3",
                    "midi": 54,
                    "time": 63.64372999999961,
                    "velocity": 0.5118110236220472,
                    "duration": 0.12145749999999822
                },
                {
                    "name": "F3",
                    "midi": 53,
                    "time": 63.765187499999605,
                    "velocity": 0.4566929133858268,
                    "duration": 0.12145749999999822
                },
                {
                    "name": "F#3",
                    "midi": 54,
                    "time": 63.886644999999604,
                    "velocity": 0.5275590551181102,
                    "duration": 0.12145750000000533
                },
                {
                    "name": "D3",
                    "midi": 50,
                    "time": 64.00810249999961,
                    "velocity": 0.48031496062992124,
                    "duration": 0.12145750000000533
                },
                {
                    "name": "C#3",
                    "midi": 49,
                    "time": 64.12955999999961,
                    "velocity": 0.6062992125984252,
                    "duration": 0.12145750000000533
                },
                {
                    "name": "F#3",
                    "midi": 54,
                    "time": 64.25101749999962,
                    "velocity": 0.4566929133858268,
                    "duration": 0.12145750000000533
                },
                {
                    "name": "A3",
                    "midi": 57,
                    "time": 64.37247499999962,
                    "velocity": 0.5354330708661418,
                    "duration": 0.12145750000000533
                },
                {
                    "name": "G#3",
                    "midi": 56,
                    "time": 64.49393249999963,
                    "velocity": 0.48031496062992124,
                    "duration": 0.12145750000000533
                },
                {
                    "name": "F#3",
                    "midi": 54,
                    "time": 64.61538999999964,
                    "velocity": 0.5118110236220472,
                    "duration": 0.1518218750000102
                },
                {
                    "name": "F3",
                    "midi": 53,
                    "time": 64.73684749999964,
                    "velocity": 0.4645669291338583,
                    "duration": 0.1518218750000102
                },
                {
                    "name": "F#3",
                    "midi": 54,
                    "time": 64.85830499999965,
                    "velocity": 0.49606299212598426,
                    "duration": 0.1518218750000102
                },
                {
                    "name": "D3",
                    "midi": 50,
                    "time": 64.97976249999965,
                    "velocity": 0.4566929133858268,
                    "duration": 0.12145750000000533
                },
                {
                    "name": "C#3",
                    "midi": 49,
                    "time": 65.10121999999966,
                    "velocity": 0.4409448818897638,
                    "duration": 0.12145750000000533
                },
                {
                    "name": "F#3",
                    "midi": 54,
                    "time": 65.22267749999966,
                    "velocity": 0.3700787401574803,
                    "duration": 0.12145750000000533
                },
                {
                    "name": "A3",
                    "midi": 57,
                    "time": 65.34413499999967,
                    "velocity": 0.4330708661417323,
                    "duration": 0.12145750000000533
                },
                {
                    "name": "G#3",
                    "midi": 56,
                    "time": 65.46559249999967,
                    "velocity": 0.3937007874015748,
                    "duration": 0.12145750000000533
                },
                {
                    "name": "F#3",
                    "midi": 54,
                    "time": 65.58704999999968,
                    "velocity": 0.4409448818897638,
                    "duration": 0.12145750000000533
                },
                {
                    "name": "F3",
                    "midi": 53,
                    "time": 65.70850749999968,
                    "velocity": 0.3858267716535433,
                    "duration": 0.12145750000000533
                },
                {
                    "name": "F#3",
                    "midi": 54,
                    "time": 65.82996499999969,
                    "velocity": 0.4251968503937008,
                    "duration": 0.12145750000000533
                },
                {
                    "name": "D3",
                    "midi": 50,
                    "time": 65.9514224999997,
                    "velocity": 0.36220472440944884,
                    "duration": 0.12145750000000533
                },
                {
                    "name": "C#3",
                    "midi": 49,
                    "time": 66.0728799999997,
                    "velocity": 0.41732283464566927,
                    "duration": 0.12145750000000533
                },
                {
                    "name": "F#3",
                    "midi": 54,
                    "time": 66.1943374999997,
                    "velocity": 0.29133858267716534,
                    "duration": 0.12145750000000533
                },
                {
                    "name": "A3",
                    "midi": 57,
                    "time": 66.31579499999971,
                    "velocity": 0.3543307086614173,
                    "duration": 0.12145750000000533
                },
                {
                    "name": "G#3",
                    "midi": 56,
                    "time": 66.43725249999972,
                    "velocity": 0.2677165354330709,
                    "duration": 0.12145750000000533
                },
                {
                    "name": "F#3",
                    "midi": 54,
                    "time": 66.55870999999972,
                    "velocity": 0.31496062992125984,
                    "duration": 0.1518218750000102
                },
                {
                    "name": "F3",
                    "midi": 53,
                    "time": 66.68016749999973,
                    "velocity": 0.2677165354330709,
                    "duration": 0.1518218750000102
                },
                {
                    "name": "F#3",
                    "midi": 54,
                    "time": 66.80162499999973,
                    "velocity": 0.29133858267716534,
                    "duration": 0.1518218750000102
                },
                {
                    "name": "D3",
                    "midi": 50,
                    "time": 66.92308249999974,
                    "velocity": 0.2755905511811024,
                    "duration": 0.12145750000000533
                },
                {
                    "name": "F#3",
                    "midi": 54,
                    "time": 67.04453999999974,
                    "velocity": 0.28346456692913385,
                    "duration": 0.12145750000000533
                },
                {
                    "name": "D3",
                    "midi": 50,
                    "time": 67.16599749999975,
                    "velocity": 0.2283464566929134,
                    "duration": 0.12145750000000533
                },
                {
                    "name": "C#3",
                    "midi": 49,
                    "time": 67.28745499999975,
                    "velocity": 0.2755905511811024,
                    "duration": 0.1518218750000102
                },
                {
                    "name": "D3",
                    "midi": 50,
                    "time": 67.40891249999976,
                    "velocity": 0.2204724409448819,
                    "duration": 0.12145750000000533
                },
                {
                    "name": "E3",
                    "midi": 52,
                    "time": 67.53036999999976,
                    "velocity": 0.2677165354330709,
                    "duration": 0.12145750000000533
                },
                {
                    "name": "D3",
                    "midi": 50,
                    "time": 67.65182749999977,
                    "velocity": 0.2204724409448819,
                    "duration": 0.12145750000000533
                },
                {
                    "name": "C#3",
                    "midi": 49,
                    "time": 67.77328499999977,
                    "velocity": 0.28346456692913385,
                    "duration": 0.1518218750000102
                },
                {
                    "name": "D3",
                    "midi": 50,
                    "time": 67.89474249999978,
                    "velocity": 0.25984251968503935,
                    "duration": 0.12145750000000533
                },
                {
                    "name": "F#3",
                    "midi": 54,
                    "time": 68.01619999999978,
                    "velocity": 0.31496062992125984,
                    "duration": 0.12145750000000533
                },
                {
                    "name": "D3",
                    "midi": 50,
                    "time": 68.13765749999979,
                    "velocity": 0.2283464566929134,
                    "duration": 0.12145750000000533
                },
                {
                    "name": "C#3",
                    "midi": 49,
                    "time": 68.2591149999998,
                    "velocity": 0.2677165354330709,
                    "duration": 0.1518218750000102
                },
                {
                    "name": "D3",
                    "midi": 50,
                    "time": 68.3805724999998,
                    "velocity": 0.33858267716535434,
                    "duration": 0.12145750000000533
                },
                {
                    "name": "G2",
                    "midi": 43,
                    "time": 68.5020299999998,
                    "velocity": 0.3937007874015748,
                    "duration": 0.12145750000000533
                },
                {
                    "name": "D3",
                    "midi": 50,
                    "time": 68.62348749999981,
                    "velocity": 0.30708661417322836,
                    "duration": 0.12145750000000533
                },
                {
                    "name": "C#3",
                    "midi": 49,
                    "time": 68.74494499999982,
                    "velocity": 0.31496062992125984,
                    "duration": 0.1518218750000102
                },
                {
                    "name": "D3",
                    "midi": 50,
                    "time": 68.86640249999982,
                    "velocity": 0.30708661417322836,
                    "duration": 0.12145750000000533
                },
                {
                    "name": "F#2",
                    "midi": 42,
                    "time": 68.98785999999983,
                    "velocity": 0.33858267716535434,
                    "duration": 0.12145750000000533
                },
                {
                    "name": "D3",
                    "midi": 50,
                    "time": 69.10931749999983,
                    "velocity": 0.2677165354330709,
                    "duration": 0.12145750000000533
                },
                {
                    "name": "C#3",
                    "midi": 49,
                    "time": 69.23077499999984,
                    "velocity": 0.30708661417322836,
                    "duration": 0.1518218750000102
                },
                {
                    "name": "D3",
                    "midi": 50,
                    "time": 69.35223249999984,
                    "velocity": 0.2677165354330709,
                    "duration": 0.12145750000000533
                },
                {
                    "name": "E2",
                    "midi": 40,
                    "time": 69.47368999999985,
                    "velocity": 0.3543307086614173,
                    "duration": 0.12145750000000533
                },
                {
                    "name": "D3",
                    "midi": 50,
                    "time": 69.59514749999985,
                    "velocity": 0.2677165354330709,
                    "duration": 0.12145750000000533
                },
                {
                    "name": "C#3",
                    "midi": 49,
                    "time": 69.71660499999986,
                    "velocity": 0.2992125984251969,
                    "duration": 0.1518218750000102
                },
                {
                    "name": "D3",
                    "midi": 50,
                    "time": 69.83806249999986,
                    "velocity": 0.2677165354330709,
                    "duration": 0.12145750000000533
                },
                {
                    "name": "D2",
                    "midi": 38,
                    "time": 69.95951999999987,
                    "velocity": 0.3700787401574803,
                    "duration": 0.12145750000000533
                },
                {
                    "name": "D3",
                    "midi": 50,
                    "time": 70.08097749999988,
                    "velocity": 0.2440944881889764,
                    "duration": 0.12145750000000533
                },
                {
                    "name": "C#3",
                    "midi": 49,
                    "time": 70.20243499999988,
                    "velocity": 0.2677165354330709,
                    "duration": 0.1518218750000102
                },
                {
                    "name": "D3",
                    "midi": 50,
                    "time": 70.32389249999989,
                    "velocity": 0.23622047244094488,
                    "duration": 0.1518218750000102
                },
                {
                    "name": "C#3",
                    "midi": 49,
                    "time": 70.44534999999989,
                    "velocity": 0.30708661417322836,
                    "duration": 0.1518218750000102
                },
                {
                    "name": "D3",
                    "midi": 50,
                    "time": 70.5668074999999,
                    "velocity": 0.2283464566929134,
                    "duration": 0.1518218750000102
                },
                {
                    "name": "C#3",
                    "midi": 49,
                    "time": 70.6882649999999,
                    "velocity": 0.2677165354330709,
                    "duration": 0.1518218750000102
                },
                {
                    "name": "D3",
                    "midi": 50,
                    "time": 70.8097224999999,
                    "velocity": 0.2440944881889764,
                    "duration": 0.12145750000000533
                },
                {
                    "name": "D2",
                    "midi": 38,
                    "time": 70.93117999999991,
                    "velocity": 0.3779527559055118,
                    "duration": 0.1518218750000102
                },
                {
                    "name": "C3",
                    "midi": 48,
                    "time": 71.05263749999992,
                    "velocity": 0.29133858267716534,
                    "duration": 0.1518218750000102
                },
                {
                    "name": "B2",
                    "midi": 47,
                    "time": 71.17409499999992,
                    "velocity": 0.31496062992125984,
                    "duration": 0.1518218750000102
                },
                {
                    "name": "C3",
                    "midi": 48,
                    "time": 71.29555249999993,
                    "velocity": 0.31496062992125984,
                    "duration": 0.1518218750000102
                },
                {
                    "name": "E2",
                    "midi": 40,
                    "time": 71.41700999999993,
                    "velocity": 0.3937007874015748,
                    "duration": 0.1518218750000102
                },
                {
                    "name": "C3",
                    "midi": 48,
                    "time": 71.53846749999994,
                    "velocity": 0.28346456692913385,
                    "duration": 0.1518218750000102
                },
                {
                    "name": "B2",
                    "midi": 47,
                    "time": 71.65992499999994,
                    "velocity": 0.36220472440944884,
                    "duration": 0.1518218750000102
                },
                {
                    "name": "C3",
                    "midi": 48,
                    "time": 71.78138249999995,
                    "velocity": 0.3858267716535433,
                    "duration": 0.12145750000000533
                },
                {
                    "name": "F#2",
                    "midi": 42,
                    "time": 71.90283999999996,
                    "velocity": 0.4330708661417323,
                    "duration": 0.1518218750000102
                },
                {
                    "name": "C3",
                    "midi": 48,
                    "time": 72.02429749999996,
                    "velocity": 0.36220472440944884,
                    "duration": 0.1518218750000102
                },
                {
                    "name": "B2",
                    "midi": 47,
                    "time": 72.14575499999997,
                    "velocity": 0.3700787401574803,
                    "duration": 0.1518218750000102
                },
                {
                    "name": "C3",
                    "midi": 48,
                    "time": 72.26721249999997,
                    "velocity": 0.41732283464566927,
                    "duration": 0.12145750000000533
                },
                {
                    "name": "G2",
                    "midi": 43,
                    "time": 72.38866999999998,
                    "velocity": 0.4881889763779528,
                    "duration": 0.1518218750000102
                },
                {
                    "name": "B2",
                    "midi": 47,
                    "time": 72.51012749999998,
                    "velocity": 0.3937007874015748,
                    "duration": 0.1518218750000102
                },
                {
                    "name": "A2",
                    "midi": 45,
                    "time": 72.63158499999999,
                    "velocity": 0.4330708661417323,
                    "duration": 0.1518218750000102
                },
                {
                    "name": "B2",
                    "midi": 47,
                    "time": 72.75304249999999,
                    "velocity": 0.3937007874015748,
                    "duration": 0.12145750000000533
                },
                {
                    "name": "G2",
                    "midi": 43,
                    "time": 72.8745,
                    "velocity": 0.47244094488188976,
                    "duration": 0.1518218750000102
                },
                {
                    "name": "A2",
                    "midi": 45,
                    "time": 72.9959575,
                    "velocity": 0.4015748031496063,
                    "duration": 0.1518218750000102
                },
                {
                    "name": "G2",
                    "midi": 43,
                    "time": 73.11741500000001,
                    "velocity": 0.44881889763779526,
                    "duration": 0.1518218750000102
                },
                {
                    "name": "A2",
                    "midi": 45,
                    "time": 73.23887250000001,
                    "velocity": 0.41732283464566927,
                    "duration": 0.12145750000000533
                },
                {
                    "name": "F#2",
                    "midi": 42,
                    "time": 73.36033000000002,
                    "velocity": 0.4881889763779528,
                    "duration": 0.1518218750000102
                },
                {
                    "name": "G2",
                    "midi": 43,
                    "time": 73.48178750000002,
                    "velocity": 0.4015748031496063,
                    "duration": 0.1518218750000102
                },
                {
                    "name": "E2",
                    "midi": 40,
                    "time": 73.60324500000003,
                    "velocity": 0.4251968503937008,
                    "duration": 0.1518218750000102
                },
                {
                    "name": "F#2",
                    "midi": 42,
                    "time": 73.72470250000003,
                    "velocity": 0.3937007874015748,
                    "duration": 0.12145750000000533
                },
                {
                    "name": "D#2",
                    "midi": 39,
                    "time": 73.84616000000004,
                    "velocity": 0.5039370078740157,
                    "duration": 0.12145750000000533
                },
                {
                    "name": "F#2",
                    "midi": 42,
                    "time": 73.96761750000005,
                    "velocity": 0.41732283464566927,
                    "duration": 0.12145750000000533
                },
                {
                    "name": "B2",
                    "midi": 47,
                    "time": 74.08907500000005,
                    "velocity": 0.4330708661417323,
                    "duration": 0.12145750000000533
                },
                {
                    "name": "C#3",
                    "midi": 49,
                    "time": 74.21053250000006,
                    "velocity": 0.4251968503937008,
                    "duration": 0.12145750000000533
                },
                {
                    "name": "D#3",
                    "midi": 51,
                    "time": 74.33199000000006,
                    "velocity": 0.48031496062992124,
                    "duration": 0.14574900000000923
                },
                {
                    "name": "E3",
                    "midi": 52,
                    "time": 74.45344750000007,
                    "velocity": 0.3700787401574803,
                    "duration": 0.14574900000000923
                },
                {
                    "name": "F#3",
                    "midi": 54,
                    "time": 74.57490500000007,
                    "velocity": 0.44881889763779526,
                    "duration": 0.14574900000000923
                },
                {
                    "name": "E3",
                    "midi": 52,
                    "time": 74.69636250000008,
                    "velocity": 0.3700787401574803,
                    "duration": 0.14574900000000923
                },
                {
                    "name": "D#3",
                    "midi": 51,
                    "time": 74.81782000000008,
                    "velocity": 0.48031496062992124,
                    "duration": 0.14574900000000923
                },
                {
                    "name": "E3",
                    "midi": 52,
                    "time": 74.93927750000009,
                    "velocity": 0.3937007874015748,
                    "duration": 0.14574900000000923
                },
                {
                    "name": "D#3",
                    "midi": 51,
                    "time": 75.0607350000001,
                    "velocity": 0.4251968503937008,
                    "duration": 0.14574900000000923
                },
                {
                    "name": "C#3",
                    "midi": 49,
                    "time": 75.1821925000001,
                    "velocity": 0.4015748031496063,
                    "duration": 0.14574900000000923
                },
                {
                    "name": "D#3",
                    "midi": 51,
                    "time": 75.3036500000001,
                    "velocity": 0.48031496062992124,
                    "duration": 0.14574900000000923
                },
                {
                    "name": "B2",
                    "midi": 47,
                    "time": 75.42510750000011,
                    "velocity": 0.4094488188976378,
                    "duration": 0.14574900000000923
                },
                {
                    "name": "C#3",
                    "midi": 49,
                    "time": 75.54656500000011,
                    "velocity": 0.4251968503937008,
                    "duration": 0.14574900000000923
                },
                {
                    "name": "D#3",
                    "midi": 51,
                    "time": 75.66802250000012,
                    "velocity": 0.41732283464566927,
                    "duration": 0.12145750000000533
                },
                {
                    "name": "E3",
                    "midi": 52,
                    "time": 75.78948000000013,
                    "velocity": 0.4881889763779528,
                    "duration": 0.14574900000000923
                },
                {
                    "name": "F#3",
                    "midi": 54,
                    "time": 75.91093750000013,
                    "velocity": 0.3779527559055118,
                    "duration": 0.14574900000000923
                },
                {
                    "name": "E3",
                    "midi": 52,
                    "time": 76.03239500000014,
                    "velocity": 0.4251968503937008,
                    "duration": 0.14574900000000923
                },
                {
                    "name": "D#3",
                    "midi": 51,
                    "time": 76.15385250000014,
                    "velocity": 0.3858267716535433,
                    "duration": 0.12145750000000533
                },
                {
                    "name": "E3",
                    "midi": 52,
                    "time": 76.27531000000015,
                    "velocity": 0.4251968503937008,
                    "duration": 0.14574900000000923
                },
                {
                    "name": "D3",
                    "midi": 50,
                    "time": 76.39676750000015,
                    "velocity": 0.3937007874015748,
                    "duration": 0.14574900000000923
                },
                {
                    "name": "C#3",
                    "midi": 49,
                    "time": 76.51822500000016,
                    "velocity": 0.4251968503937008,
                    "duration": 0.14574900000000923
                },
                {
                    "name": "B2",
                    "midi": 47,
                    "time": 76.63968250000016,
                    "velocity": 0.4094488188976378,
                    "duration": 0.12145750000000533
                },
                {
                    "name": "C#3",
                    "midi": 49,
                    "time": 76.76114000000017,
                    "velocity": 0.48031496062992124,
                    "duration": 0.14574900000000923
                },
                {
                    "name": "D3",
                    "midi": 50,
                    "time": 76.88259750000017,
                    "velocity": 0.3937007874015748,
                    "duration": 0.14574900000000923
                },
                {
                    "name": "E3",
                    "midi": 52,
                    "time": 77.00405500000018,
                    "velocity": 0.4251968503937008,
                    "duration": 0.14574900000000923
                },
                {
                    "name": "D3",
                    "midi": 50,
                    "time": 77.12551250000018,
                    "velocity": 0.4015748031496063,
                    "duration": 0.14574900000000923
                },
                {
                    "name": "C#3",
                    "midi": 49,
                    "time": 77.24697000000019,
                    "velocity": 0.48031496062992124,
                    "duration": 0.14574900000000923
                },
                {
                    "name": "A2",
                    "midi": 45,
                    "time": 77.3684275000002,
                    "velocity": 0.4094488188976378,
                    "duration": 0.14574900000000923
                },
                {
                    "name": "B2",
                    "midi": 47,
                    "time": 77.4898850000002,
                    "velocity": 0.4251968503937008,
                    "duration": 0.14574900000000923
                },
                {
                    "name": "C#3",
                    "midi": 49,
                    "time": 77.6113425000002,
                    "velocity": 0.41732283464566927,
                    "duration": 0.12145750000000533
                },
                {
                    "name": "E3",
                    "midi": 52,
                    "time": 77.73280000000021,
                    "velocity": 0.4881889763779528,
                    "duration": 0.14574900000000923
                },
                {
                    "name": "D3",
                    "midi": 50,
                    "time": 77.85425750000022,
                    "velocity": 0.3779527559055118,
                    "duration": 0.14574900000000923
                },
                {
                    "name": "C#3",
                    "midi": 49,
                    "time": 77.97571500000022,
                    "velocity": 0.4251968503937008,
                    "duration": 0.14574900000000923
                },
                {
                    "name": "D3",
                    "midi": 50,
                    "time": 78.09717250000023,
                    "velocity": 0.3858267716535433,
                    "duration": 0.12145750000000533
                },
                {
                    "name": "C#3",
                    "midi": 49,
                    "time": 78.21863000000023,
                    "velocity": 0.4251968503937008,
                    "duration": 0.14574900000000923
                },
                {
                    "name": "D3",
                    "midi": 50,
                    "time": 78.34008750000024,
                    "velocity": 0.3937007874015748,
                    "duration": 0.14574900000000923
                },
                {
                    "name": "C3",
                    "midi": 48,
                    "time": 78.46154500000024,
                    "velocity": 0.4251968503937008,
                    "duration": 0.14574900000000923
                },
                {
                    "name": "D3",
                    "midi": 50,
                    "time": 78.58300250000025,
                    "velocity": 0.4094488188976378,
                    "duration": 0.12145750000000533
                },
                {
                    "name": "B2",
                    "midi": 47,
                    "time": 78.70446000000025,
                    "velocity": 0.3700787401574803,
                    "duration": 0.12145750000000533
                },
                {
                    "name": "D3",
                    "midi": 50,
                    "time": 78.82591750000026,
                    "velocity": 0.2755905511811024,
                    "duration": 0.12145750000000533
                },
                {
                    "name": "A#2",
                    "midi": 46,
                    "time": 78.94737500000026,
                    "velocity": 0.31496062992125984,
                    "duration": 0.1518218750000102
                },
                {
                    "name": "D3",
                    "midi": 50,
                    "time": 79.06883250000027,
                    "velocity": 0.28346456692913385,
                    "duration": 0.12145750000000533
                },
                {
                    "name": "A2",
                    "midi": 45,
                    "time": 79.19029000000027,
                    "velocity": 0.3700787401574803,
                    "duration": 0.12145750000000533
                },
                {
                    "name": "D3",
                    "midi": 50,
                    "time": 79.31174750000028,
                    "velocity": 0.2755905511811024,
                    "duration": 0.12145750000000533
                },
                {
                    "name": "D2",
                    "midi": 38,
                    "time": 79.43320500000029,
                    "velocity": 0.31496062992125984,
                    "duration": 0.1518218750000102
                },
                {
                    "name": "D3",
                    "midi": 50,
                    "time": 79.55466250000029,
                    "velocity": 0.31496062992125984,
                    "duration": 0.12145750000000533
                },
                {
                    "name": "G#2",
                    "midi": 44,
                    "time": 79.6761200000003,
                    "velocity": 0.3779527559055118,
                    "duration": 0.12145750000000533
                },
                {
                    "name": "D3",
                    "midi": 50,
                    "time": 79.7975775000003,
                    "velocity": 0.29133858267716534,
                    "duration": 0.12145750000000533
                },
                {
                    "name": "G2",
                    "midi": 43,
                    "time": 79.9190350000003,
                    "velocity": 0.31496062992125984,
                    "duration": 0.1518218750000102
                },
                {
                    "name": "D3",
                    "midi": 50,
                    "time": 80.04049250000031,
                    "velocity": 0.29133858267716534,
                    "duration": 0.12145750000000533
                },
                {
                    "name": "F#2",
                    "midi": 42,
                    "time": 80.16195000000032,
                    "velocity": 0.3700787401574803,
                    "duration": 0.12145750000000533
                },
                {
                    "name": "D3",
                    "midi": 50,
                    "time": 80.28340750000032,
                    "velocity": 0.2992125984251969,
                    "duration": 0.12145750000000533
                },
                {
                    "name": "D2",
                    "midi": 38,
                    "time": 80.40486500000033,
                    "velocity": 0.31496062992125984,
                    "duration": 0.1518218750000102
                },
                {
                    "name": "D3",
                    "midi": 50,
                    "time": 80.52632250000033,
                    "velocity": 0.29133858267716534,
                    "duration": 0.12145750000000533
                },
                {
                    "name": "B2",
                    "midi": 47,
                    "time": 80.64778000000034,
                    "velocity": 0.36220472440944884,
                    "duration": 0.12145750000000533
                },
                {
                    "name": "D3",
                    "midi": 50,
                    "time": 80.76923750000034,
                    "velocity": 0.29133858267716534,
                    "duration": 0.12145750000000533
                },
                {
                    "name": "A#2",
                    "midi": 46,
                    "time": 80.89069500000035,
                    "velocity": 0.31496062992125984,
                    "duration": 0.1518218750000102
                },
                {
                    "name": "D3",
                    "midi": 50,
                    "time": 81.01215250000035,
                    "velocity": 0.29133858267716534,
                    "duration": 0.12145750000000533
                },
                {
                    "name": "A2",
                    "midi": 45,
                    "time": 81.13361000000036,
                    "velocity": 0.3700787401574803,
                    "duration": 0.12145750000000533
                },
                {
                    "name": "D3",
                    "midi": 50,
                    "time": 81.25506750000037,
                    "velocity": 0.30708661417322836,
                    "duration": 0.12145750000000533
                },
                {
                    "name": "D2",
                    "midi": 38,
                    "time": 81.37652500000037,
                    "velocity": 0.31496062992125984,
                    "duration": 0.1518218750000102
                },
                {
                    "name": "D3",
                    "midi": 50,
                    "time": 81.49798250000038,
                    "velocity": 0.30708661417322836,
                    "duration": 0.12145750000000533
                },
                {
                    "name": "G#2",
                    "midi": 44,
                    "time": 81.61944000000038,
                    "velocity": 0.3858267716535433,
                    "duration": 0.12145750000000533
                },
                {
                    "name": "B2",
                    "midi": 47,
                    "time": 81.74089750000039,
                    "velocity": 0.2992125984251969,
                    "duration": 0.12145750000000533
                },
                {
                    "name": "D3",
                    "midi": 50,
                    "time": 81.86235500000039,
                    "velocity": 0.31496062992125984,
                    "duration": 0.1518218750000102
                },
                {
                    "name": "C#3",
                    "midi": 49,
                    "time": 81.9838125000004,
                    "velocity": 0.2992125984251969,
                    "duration": 0.1518218750000102
                },
                {
                    "name": "B2",
                    "midi": 47,
                    "time": 82.1052700000004,
                    "velocity": 0.3700787401574803,
                    "duration": 0.12145750000000533
                },
                {
                    "name": "G#3",
                    "midi": 56,
                    "time": 82.22672750000041,
                    "velocity": 0.29133858267716534,
                    "duration": 0.12145750000000533
                },
                {
                    "name": "D3",
                    "midi": 50,
                    "time": 82.34818500000041,
                    "velocity": 0.31496062992125984,
                    "duration": 0.12145750000000533
                },
                {
                    "name": "B2",
                    "midi": 47,
                    "time": 82.46964250000042,
                    "velocity": 0.2755905511811024,
                    "duration": 0.12145750000000533
                },
                {
                    "name": "C#3",
                    "midi": 49,
                    "time": 82.59110000000042,
                    "velocity": 0.3779527559055118,
                    "duration": 0.12145750000000533
                },
                {
                    "name": "E3",
                    "midi": 52,
                    "time": 82.71255750000043,
                    "velocity": 0.31496062992125984,
                    "duration": 0.12145750000000533
                },
                {
                    "name": "G3",
                    "midi": 55,
                    "time": 82.83401500000043,
                    "velocity": 0.3228346456692913,
                    "duration": 0.12145750000000533
                },
                {
                    "name": "A3",
                    "midi": 57,
                    "time": 82.95547250000044,
                    "velocity": 0.3543307086614173,
                    "duration": 0.12145750000000533
                },
                {
                    "name": "F#3",
                    "midi": 54,
                    "time": 83.07693000000044,
                    "velocity": 0.4251968503937008,
                    "duration": 0.12145750000000533
                },
                {
                    "name": "A3",
                    "midi": 57,
                    "time": 83.19838750000045,
                    "velocity": 0.3543307086614173,
                    "duration": 0.12145750000000533
                },
                {
                    "name": "E3",
                    "midi": 52,
                    "time": 83.31984500000046,
                    "velocity": 0.4094488188976378,
                    "duration": 0.12145750000000533
                },
                {
                    "name": "A3",
                    "midi": 57,
                    "time": 83.44130250000046,
                    "velocity": 0.4330708661417323,
                    "duration": 0.12145750000000533
                },
                {
                    "name": "C#3",
                    "midi": 49,
                    "time": 83.56276000000047,
                    "velocity": 0.4645669291338583,
                    "duration": 0.12145750000000533
                },
                {
                    "name": "A3",
                    "midi": 57,
                    "time": 83.68421750000047,
                    "velocity": 0.3543307086614173,
                    "duration": 0.12145750000000533
                },
                {
                    "name": "D3",
                    "midi": 50,
                    "time": 83.80567500000048,
                    "velocity": 0.4094488188976378,
                    "duration": 0.12145750000000533
                },
                {
                    "name": "B3",
                    "midi": 59,
                    "time": 83.92713250000048,
                    "velocity": 0.36220472440944884,
                    "duration": 0.12145750000000533
                },
                {
                    "name": "E3",
                    "midi": 52,
                    "time": 84.04859000000049,
                    "velocity": 0.41732283464566927,
                    "duration": 0.12145750000000533
                },
                {
                    "name": "C#4",
                    "midi": 61,
                    "time": 84.17004750000049,
                    "velocity": 0.31496062992125984,
                    "duration": 0.12145750000000533
                },
                {
                    "name": "F#3",
                    "midi": 54,
                    "time": 84.2915050000005,
                    "velocity": 0.36220472440944884,
                    "duration": 0.12145750000000533
                },
                {
                    "name": "D4",
                    "midi": 62,
                    "time": 84.4129625000005,
                    "velocity": 0.31496062992125984,
                    "duration": 0.12145750000000533
                },
                {
                    "name": "G3",
                    "midi": 55,
                    "time": 84.53442000000051,
                    "velocity": 0.3700787401574803,
                    "duration": 0.12145750000000533
                },
                {
                    "name": "B3",
                    "midi": 59,
                    "time": 84.65587750000051,
                    "velocity": 0.31496062992125984,
                    "duration": 0.12145750000000533
                },
                {
                    "name": "E4",
                    "midi": 64,
                    "time": 84.77733500000052,
                    "velocity": 0.31496062992125984,
                    "duration": 0.12145750000000533
                },
                {
                    "name": "B3",
                    "midi": 59,
                    "time": 84.89879250000052,
                    "velocity": 0.36220472440944884,
                    "duration": 0.1518218750000102
                },
                {
                    "name": "G3",
                    "midi": 55,
                    "time": 85.02025000000053,
                    "velocity": 0.4015748031496063,
                    "duration": 0.12145750000000533
                },
                {
                    "name": "A3",
                    "midi": 57,
                    "time": 85.14170750000054,
                    "velocity": 0.31496062992125984,
                    "duration": 0.12145750000000533
                },
                {
                    "name": "G3",
                    "midi": 55,
                    "time": 85.26316500000054,
                    "velocity": 0.33858267716535434,
                    "duration": 0.12145750000000533
                },
                {
                    "name": "A3",
                    "midi": 57,
                    "time": 85.38462250000055,
                    "velocity": 0.31496062992125984,
                    "duration": 0.12145750000000533
                },
                {
                    "name": "F#3",
                    "midi": 54,
                    "time": 85.50608000000055,
                    "velocity": 0.41732283464566927,
                    "duration": 0.12145750000000533
                },
                {
                    "name": "A3",
                    "midi": 57,
                    "time": 85.62753750000056,
                    "velocity": 0.3228346456692913,
                    "duration": 0.12145750000000533
                },
                {
                    "name": "C#4",
                    "midi": 61,
                    "time": 85.74899500000056,
                    "velocity": 0.3464566929133858,
                    "duration": 0.1518218750000102
                },
                {
                    "name": "D4",
                    "midi": 62,
                    "time": 85.87045250000057,
                    "velocity": 0.3228346456692913,
                    "duration": 0.1518218750000102
                },
                {
                    "name": "F#4",
                    "midi": 66,
                    "time": 85.99191000000057,
                    "velocity": 0.4015748031496063,
                    "duration": 0.12145750000000533
                },
                {
                    "name": "D4",
                    "midi": 62,
                    "time": 86.11336750000058,
                    "velocity": 0.31496062992125984,
                    "duration": 0.12145750000000533
                },
                {
                    "name": "B3",
                    "midi": 59,
                    "time": 86.23482500000058,
                    "velocity": 0.3464566929133858,
                    "duration": 0.12145750000000533
                },
                {
                    "name": "A3",
                    "midi": 57,
                    "time": 86.35628250000059,
                    "velocity": 0.2992125984251969,
                    "duration": 0.12145750000000533
                },
                {
                    "name": "G3",
                    "midi": 55,
                    "time": 86.4777400000006,
                    "velocity": 0.4094488188976378,
                    "duration": 0.12145750000000533
                },
                {
                    "name": "A3",
                    "midi": 57,
                    "time": 86.5991975000006,
                    "velocity": 0.3464566929133858,
                    "duration": 0.12145750000000533
                },
                {
                    "name": "G3",
                    "midi": 55,
                    "time": 86.7206550000006,
                    "velocity": 0.3543307086614173,
                    "duration": 0.12145750000000533
                },
                {
                    "name": "A3",
                    "midi": 57,
                    "time": 86.84211250000061,
                    "velocity": 0.3858267716535433,
                    "duration": 0.12145750000000533
                },
                {
                    "name": "F#3",
                    "midi": 54,
                    "time": 86.96357000000062,
                    "velocity": 0.4645669291338583,
                    "duration": 0.12145750000000533
                },
                {
                    "name": "A3",
                    "midi": 57,
                    "time": 87.08502750000062,
                    "velocity": 0.3858267716535433,
                    "duration": 0.12145750000000533
                },
                {
                    "name": "E3",
                    "midi": 52,
                    "time": 87.20648500000063,
                    "velocity": 0.44881889763779526,
                    "duration": 0.12145750000000533
                },
                {
                    "name": "A3",
                    "midi": 57,
                    "time": 87.32794250000063,
                    "velocity": 0.47244094488188976,
                    "duration": 0.12145750000000533
                },
                {
                    "name": "C#3",
                    "midi": 49,
                    "time": 87.44940000000064,
                    "velocity": 0.5039370078740157,
                    "duration": 0.12145750000000533
                },
                {
                    "name": "A3",
                    "midi": 57,
                    "time": 87.57085750000064,
                    "velocity": 0.3858267716535433,
                    "duration": 0.12145750000000533
                },
                {
                    "name": "D3",
                    "midi": 50,
                    "time": 87.69231500000065,
                    "velocity": 0.44881889763779526,
                    "duration": 0.12145750000000533
                },
                {
                    "name": "B3",
                    "midi": 59,
                    "time": 87.81377250000065,
                    "velocity": 0.3937007874015748,
                    "duration": 0.12145750000000533
                },
                {
                    "name": "E3",
                    "midi": 52,
                    "time": 87.93523000000066,
                    "velocity": 0.4566929133858268,
                    "duration": 0.12145750000000533
                },
                {
                    "name": "C#4",
                    "midi": 61,
                    "time": 88.05668750000066,
                    "velocity": 0.3464566929133858,
                    "duration": 0.12145750000000533
                },
                {
                    "name": "F#3",
                    "midi": 54,
                    "time": 88.17814500000067,
                    "velocity": 0.3937007874015748,
                    "duration": 0.12145750000000533
                },
                {
                    "name": "D4",
                    "midi": 62,
                    "time": 88.29960250000067,
                    "velocity": 0.3464566929133858,
                    "duration": 0.12145750000000533
                },
                {
                    "name": "G3",
                    "midi": 55,
                    "time": 88.42106000000068,
                    "velocity": 0.4015748031496063,
                    "duration": 0.12145750000000533
                },
                {
                    "name": "B3",
                    "midi": 59,
                    "time": 88.54251750000068,
                    "velocity": 0.3464566929133858,
                    "duration": 0.12145750000000533
                },
                {
                    "name": "A3",
                    "midi": 57,
                    "time": 88.66397500000069,
                    "velocity": 0.3464566929133858,
                    "duration": 0.12145750000000533
                },
                {
                    "name": "C#4",
                    "midi": 61,
                    "time": 88.7854325000007,
                    "velocity": 0.3937007874015748,
                    "duration": 0.1518218750000102
                },
                {
                    "name": "B3",
                    "midi": 59,
                    "time": 88.9068900000007,
                    "velocity": 0.4409448818897638,
                    "duration": 0.12145750000000533
                },
                {
                    "name": "D4",
                    "midi": 62,
                    "time": 89.0283475000007,
                    "velocity": 0.3464566929133858,
                    "duration": 0.12145750000000533
                },
                {
                    "name": "C#4",
                    "midi": 61,
                    "time": 89.14980500000071,
                    "velocity": 0.3700787401574803,
                    "duration": 0.12145750000000533
                },
                {
                    "name": "E4",
                    "midi": 64,
                    "time": 89.27126250000072,
                    "velocity": 0.3464566929133858,
                    "duration": 0.12145750000000533
                },
                {
                    "name": "F#4",
                    "midi": 66,
                    "time": 89.39272000000072,
                    "velocity": 0.4409448818897638,
                    "duration": 0.12145750000000533
                },
                {
                    "name": "D4",
                    "midi": 62,
                    "time": 89.51417750000073,
                    "velocity": 0.33070866141732286,
                    "duration": 0.12145750000000533
                },
                {
                    "name": "C#4",
                    "midi": 61,
                    "time": 89.63563500000073,
                    "velocity": 0.3700787401574803,
                    "duration": 0.12145750000000533
                },
                {
                    "name": "D4",
                    "midi": 62,
                    "time": 89.75709250000074,
                    "velocity": 0.33070866141732286,
                    "duration": 0.12145750000000533
                },
                {
                    "name": "B3",
                    "midi": 59,
                    "time": 89.87855000000074,
                    "velocity": 0.4881889763779528,
                    "duration": 0.12145750000000533
                },
                {
                    "name": "D4",
                    "midi": 62,
                    "time": 90.00000750000075,
                    "velocity": 0.33070866141732286,
                    "duration": 0.12145750000000533
                },
                {
                    "name": "C#4",
                    "midi": 61,
                    "time": 90.12146500000075,
                    "velocity": 0.3858267716535433,
                    "duration": 0.12145750000000533
                },
                {
                    "name": "D4",
                    "midi": 62,
                    "time": 90.24292250000076,
                    "velocity": 0.33070866141732286,
                    "duration": 0.12145750000000533
                },
                {
                    "name": "C#4",
                    "midi": 61,
                    "time": 90.36438000000076,
                    "velocity": 0.4409448818897638,
                    "duration": 0.12145750000000533
                },
                {
                    "name": "A3",
                    "midi": 57,
                    "time": 90.36438000000076,
                    "velocity": 0.4409448818897638,
                    "duration": 0.12145750000000533
                },
                {
                    "name": "D4",
                    "midi": 62,
                    "time": 90.48583750000077,
                    "velocity": 0.3543307086614173,
                    "duration": 0.12145750000000533
                },
                {
                    "name": "C#4",
                    "midi": 61,
                    "time": 90.60729500000078,
                    "velocity": 0.3858267716535433,
                    "duration": 0.12145750000000533
                },
                {
                    "name": "D4",
                    "midi": 62,
                    "time": 90.72875250000078,
                    "velocity": 0.3858267716535433,
                    "duration": 0.12145750000000533
                },
                {
                    "name": "G3",
                    "midi": 55,
                    "time": 90.85021000000079,
                    "velocity": 0.4409448818897638,
                    "duration": 0.12145750000000533
                },
                {
                    "name": "B3",
                    "midi": 59,
                    "time": 90.85021000000079,
                    "velocity": 0.4409448818897638,
                    "duration": 0.12145750000000533
                },
                {
                    "name": "D4",
                    "midi": 62,
                    "time": 90.97166750000079,
                    "velocity": 0.36220472440944884,
                    "duration": 0.12145750000000533
                },
                {
                    "name": "C#4",
                    "midi": 61,
                    "time": 91.0931250000008,
                    "velocity": 0.3858267716535433,
                    "duration": 0.12145750000000533
                },
                {
                    "name": "D4",
                    "midi": 62,
                    "time": 91.2145825000008,
                    "velocity": 0.33858267716535434,
                    "duration": 0.12145750000000533
                },
                {
                    "name": "F#3",
                    "midi": 54,
                    "time": 91.3360400000008,
                    "velocity": 0.4409448818897638,
                    "duration": 0.12145750000000533
                },
                {
                    "name": "A3",
                    "midi": 57,
                    "time": 91.3360400000008,
                    "velocity": 0.4409448818897638,
                    "duration": 0.12145750000000533
                },
                {
                    "name": "D4",
                    "midi": 62,
                    "time": 91.45749750000081,
                    "velocity": 0.33858267716535434,
                    "duration": 0.12145750000000533
                },
                {
                    "name": "C#4",
                    "midi": 61,
                    "time": 91.57895500000082,
                    "velocity": 0.3700787401574803,
                    "duration": 0.12145750000000533
                },
                {
                    "name": "D4",
                    "midi": 62,
                    "time": 91.70041250000082,
                    "velocity": 0.33070866141732286,
                    "duration": 0.12145750000000533
                },
                {
                    "name": "G3",
                    "midi": 55,
                    "time": 91.82187000000083,
                    "velocity": 0.4409448818897638,
                    "duration": 0.12145750000000533
                },
                {
                    "name": "D4",
                    "midi": 62,
                    "time": 91.94332750000083,
                    "velocity": 0.3228346456692913,
                    "duration": 0.12145750000000533
                },
                {
                    "name": "C#4",
                    "midi": 61,
                    "time": 92.06478500000084,
                    "velocity": 0.3779527559055118,
                    "duration": 0.12145750000000533
                },
                {
                    "name": "D4",
                    "midi": 62,
                    "time": 92.18624250000084,
                    "velocity": 0.33858267716535434,
                    "duration": 0.12145750000000533
                },
                {
                    "name": "A3",
                    "midi": 57,
                    "time": 92.30770000000085,
                    "velocity": 0.4409448818897638,
                    "duration": 0.12145750000000533
                },
                {
                    "name": "D4",
                    "midi": 62,
                    "time": 92.42915750000085,
                    "velocity": 0.33070866141732286,
                    "duration": 0.12145750000000533
                },
                {
                    "name": "C#4",
                    "midi": 61,
                    "time": 92.55061500000086,
                    "velocity": 0.3700787401574803,
                    "duration": 0.12145750000000533
                },
                {
                    "name": "D4",
                    "midi": 62,
                    "time": 92.67207250000087,
                    "velocity": 0.33070866141732286,
                    "duration": 0.12145750000000533
                },
                {
                    "name": "A2",
                    "midi": 45,
                    "time": 92.79353000000087,
                    "velocity": 0.4409448818897638,
                    "duration": 0.24291500000001065
                },
                {
                    "name": "G3",
                    "midi": 55,
                    "time": 92.79353000000087,
                    "velocity": 0.4409448818897638,
                    "duration": 0.12145750000000533
                },
                {
                    "name": "D4",
                    "midi": 62,
                    "time": 92.91498750000088,
                    "velocity": 0.3228346456692913,
                    "duration": 0.12145750000000533
                },
                {
                    "name": "C#4",
                    "midi": 61,
                    "time": 93.03644500000088,
                    "velocity": 0.3700787401574803,
                    "duration": 0.12145750000000533
                },
                {
                    "name": "D4",
                    "midi": 62,
                    "time": 93.15790250000089,
                    "velocity": 0.3700787401574803,
                    "duration": 0.12145750000000533
                },
                {
                    "name": "D2",
                    "midi": 38,
                    "time": 93.27936000000089,
                    "velocity": 0.30708661417322836,
                    "duration": 0.24291500000001065
                },
                {
                    "name": "F#3",
                    "midi": 54,
                    "time": 93.27936000000089,
                    "velocity": 0.30708661417322836,
                    "duration": 0.12145750000000533
                },
                {
                    "name": "G3",
                    "midi": 55,
                    "time": 93.4008175000009,
                    "velocity": 0.3543307086614173,
                    "duration": 0.12145750000000533
                },
                {
                    "name": "A3",
                    "midi": 57,
                    "time": 93.5222750000009,
                    "velocity": 0.41732283464566927,
                    "duration": 0.12145750000000533
                },
                {
                    "name": "B3",
                    "midi": 59,
                    "time": 93.64373250000091,
                    "velocity": 0.36220472440944884,
                    "duration": 0.12145750000000533
                },
                {
                    "name": "C4",
                    "midi": 60,
                    "time": 93.76519000000091,
                    "velocity": 0.2992125984251969,
                    "duration": 0.12145750000000533
                },
                {
                    "name": "B3",
                    "midi": 59,
                    "time": 93.88664750000092,
                    "velocity": 0.28346456692913385,
                    "duration": 0.12145750000000533
                },
                {
                    "name": "C4",
                    "midi": 60,
                    "time": 94.00810500000092,
                    "velocity": 0.31496062992125984,
                    "duration": 0.12145750000000533
                },
                {
                    "name": "A3",
                    "midi": 57,
                    "time": 94.12956250000093,
                    "velocity": 0.29133858267716534,
                    "duration": 0.12145750000000533
                },
                {
                    "name": "B3",
                    "midi": 59,
                    "time": 94.25102000000093,
                    "velocity": 0.33858267716535434,
                    "duration": 0.12145750000000533
                },
                {
                    "name": "D4",
                    "midi": 62,
                    "time": 94.37247750000094,
                    "velocity": 0.25984251968503935,
                    "duration": 0.12145750000000533
                },
                {
                    "name": "C#4",
                    "midi": 61,
                    "time": 94.49393500000095,
                    "velocity": 0.2992125984251969,
                    "duration": 0.1518218750000102
                },
                {
                    "name": "D4",
                    "midi": 62,
                    "time": 94.61539250000095,
                    "velocity": 0.2677165354330709,
                    "duration": 0.12145750000000533
                },
                {
                    "name": "G3",
                    "midi": 55,
                    "time": 94.73685000000096,
                    "velocity": 0.36220472440944884,
                    "duration": 0.12145750000000533
                },
                {
                    "name": "D4",
                    "midi": 62,
                    "time": 94.85830750000096,
                    "velocity": 0.2755905511811024,
                    "duration": 0.12145750000000533
                },
                {
                    "name": "C#4",
                    "midi": 61,
                    "time": 94.97976500000097,
                    "velocity": 0.2992125984251969,
                    "duration": 0.1518218750000102
                },
                {
                    "name": "D4",
                    "midi": 62,
                    "time": 95.10122250000097,
                    "velocity": 0.2677165354330709,
                    "duration": 0.12145750000000533
                },
                {
                    "name": "F#3",
                    "midi": 54,
                    "time": 95.22268000000098,
                    "velocity": 0.3700787401574803,
                    "duration": 0.12145750000000533
                },
                {
                    "name": "D3",
                    "midi": 50,
                    "time": 95.22268000000098,
                    "velocity": 0.3700787401574803,
                    "duration": 0.24291500000001065
                },
                {
                    "name": "A3",
                    "midi": 57,
                    "time": 95.34413750000098,
                    "velocity": 0.2677165354330709,
                    "duration": 0.12145750000000533
                },
                {
                    "name": "D4",
                    "midi": 62,
                    "time": 95.46559500000099,
                    "velocity": 0.2992125984251969,
                    "duration": 0.12145750000000533
                },
                {
                    "name": "C#4",
                    "midi": 61,
                    "time": 95.587052500001,
                    "velocity": 0.2677165354330709,
                    "duration": 0.12145750000000533
                },
                {
                    "name": "D2",
                    "midi": 38,
                    "time": 95.708510000001,
                    "velocity": 0.4566929133858268,
                    "duration": 0.24291500000001065
                },
                {
                    "name": "C4",
                    "midi": 60,
                    "time": 95.708510000001,
                    "velocity": 0.33858267716535434,
                    "duration": 0.12145750000000533
                },
                {
                    "name": "B3",
                    "midi": 59,
                    "time": 95.829967500001,
                    "velocity": 0.2677165354330709,
                    "duration": 0.12145750000000533
                },
                {
                    "name": "C4",
                    "midi": 60,
                    "time": 95.95142500000101,
                    "velocity": 0.2992125984251969,
                    "duration": 0.12145750000000533
                },
                {
                    "name": "A3",
                    "midi": 57,
                    "time": 96.07288250000101,
                    "velocity": 0.2677165354330709,
                    "duration": 0.12145750000000533
                },
                {
                    "name": "D3",
                    "midi": 50,
                    "time": 96.19434000000102,
                    "velocity": 0.30708661417322836,
                    "duration": 0.24291500000001065
                },
                {
                    "name": "B3",
                    "midi": 59,
                    "time": 96.19434000000102,
                    "velocity": 0.33858267716535434,
                    "duration": 0.12145750000000533
                },
                {
                    "name": "D4",
                    "midi": 62,
                    "time": 96.31579750000103,
                    "velocity": 0.25984251968503935,
                    "duration": 0.12145750000000533
                },
                {
                    "name": "C#4",
                    "midi": 61,
                    "time": 96.43725500000103,
                    "velocity": 0.2992125984251969,
                    "duration": 0.1518218750000102
                },
                {
                    "name": "D4",
                    "midi": 62,
                    "time": 96.55871250000104,
                    "velocity": 0.2677165354330709,
                    "duration": 0.12145750000000533
                },
                {
                    "name": "G3",
                    "midi": 55,
                    "time": 96.68017000000104,
                    "velocity": 0.36220472440944884,
                    "duration": 0.12145750000000533
                },
                {
                    "name": "D4",
                    "midi": 62,
                    "time": 96.80162750000105,
                    "velocity": 0.2755905511811024,
                    "duration": 0.12145750000000533
                },
                {
                    "name": "C#4",
                    "midi": 61,
                    "time": 96.92308500000105,
                    "velocity": 0.2992125984251969,
                    "duration": 0.1518218750000102
                },
                {
                    "name": "D4",
                    "midi": 62,
                    "time": 97.04454250000106,
                    "velocity": 0.2677165354330709,
                    "duration": 0.12145750000000533
                },
                {
                    "name": "F#3",
                    "midi": 54,
                    "time": 97.16600000000106,
                    "velocity": 0.3700787401574803,
                    "duration": 0.12145750000000533
                },
                {
                    "name": "D3",
                    "midi": 50,
                    "time": 97.16600000000106,
                    "velocity": 0.3700787401574803,
                    "duration": 0.24291500000001065
                },
                {
                    "name": "A3",
                    "midi": 57,
                    "time": 97.28745750000107,
                    "velocity": 0.2677165354330709,
                    "duration": 0.12145750000000533
                },
                {
                    "name": "D4",
                    "midi": 62,
                    "time": 97.40891500000107,
                    "velocity": 0.2992125984251969,
                    "duration": 0.12145750000000533
                },
                {
                    "name": "C#4",
                    "midi": 61,
                    "time": 97.53037250000108,
                    "velocity": 0.2677165354330709,
                    "duration": 0.12145750000000533
                },
                {
                    "name": "D2",
                    "midi": 38,
                    "time": 97.65183000000108,
                    "velocity": 0.44881889763779526,
                    "duration": 0.24291500000001065
                },
                {
                    "name": "C4",
                    "midi": 60,
                    "time": 97.65183000000108,
                    "velocity": 0.33858267716535434,
                    "duration": 0.12145750000000533
                },
                {
                    "name": "B3",
                    "midi": 59,
                    "time": 97.77328750000109,
                    "velocity": 0.2677165354330709,
                    "duration": 0.12145750000000533
                },
                {
                    "name": "C4",
                    "midi": 60,
                    "time": 97.8947450000011,
                    "velocity": 0.2992125984251969,
                    "duration": 0.12145750000000533
                },
                {
                    "name": "A3",
                    "midi": 57,
                    "time": 98.0162025000011,
                    "velocity": 0.2677165354330709,
                    "duration": 0.12145750000000533
                },
                {
                    "name": "D3",
                    "midi": 50,
                    "time": 98.1376600000011,
                    "velocity": 0.30708661417322836,
                    "duration": 0.24291500000001065
                },
                {
                    "name": "B3",
                    "midi": 59,
                    "time": 98.1376600000011,
                    "velocity": 0.33858267716535434,
                    "duration": 0.12145750000000533
                },
                {
                    "name": "D4",
                    "midi": 62,
                    "time": 98.25911750000111,
                    "velocity": 0.25984251968503935,
                    "duration": 0.12145750000000533
                },
                {
                    "name": "C#4",
                    "midi": 61,
                    "time": 98.38057500000112,
                    "velocity": 0.2992125984251969,
                    "duration": 0.1518218750000102
                },
                {
                    "name": "D4",
                    "midi": 62,
                    "time": 98.50203250000112,
                    "velocity": 0.2677165354330709,
                    "duration": 0.12145750000000533
                },
                {
                    "name": "G3",
                    "midi": 55,
                    "time": 98.62349000000113,
                    "velocity": 0.36220472440944884,
                    "duration": 0.12145750000000533
                },
                {
                    "name": "D4",
                    "midi": 62,
                    "time": 98.74494750000113,
                    "velocity": 0.2755905511811024,
                    "duration": 0.12145750000000533
                },
                {
                    "name": "C#4",
                    "midi": 61,
                    "time": 98.86640500000114,
                    "velocity": 0.2992125984251969,
                    "duration": 0.1518218750000102
                },
                {
                    "name": "D4",
                    "midi": 62,
                    "time": 98.98786250000114,
                    "velocity": 0.2677165354330709,
                    "duration": 0.12145750000000533
                },
                {
                    "name": "F#3",
                    "midi": 54,
                    "time": 99.10932000000115,
                    "velocity": 0.3700787401574803,
                    "duration": 0.12145750000000533
                },
                {
                    "name": "A3",
                    "midi": 57,
                    "time": 99.23077750000115,
                    "velocity": 0.2677165354330709,
                    "duration": 0.12145750000000533
                },
                {
                    "name": "F#3",
                    "midi": 54,
                    "time": 99.35223500000116,
                    "velocity": 0.2992125984251969,
                    "duration": 0.12145750000000533
                },
                {
                    "name": "G3",
                    "midi": 55,
                    "time": 99.47369250000116,
                    "velocity": 0.2677165354330709,
                    "duration": 0.12145750000000533
                },
                {
                    "name": "D3",
                    "midi": 50,
                    "time": 99.59515000000117,
                    "velocity": 0.3700787401574803,
                    "duration": 0.24291500000001065
                },
                {
                    "name": "A3",
                    "midi": 57,
                    "time": 99.59515000000117,
                    "velocity": 0.33858267716535434,
                    "duration": 0.12145750000000533
                },
                {
                    "name": "C4",
                    "midi": 60,
                    "time": 99.71660750000117,
                    "velocity": 0.2677165354330709,
                    "duration": 0.12145750000000533
                },
                {
                    "name": "D4",
                    "midi": 62,
                    "time": 99.83806500000118,
                    "velocity": 0.2992125984251969,
                    "duration": 0.12145750000000533
                },
                {
                    "name": "C4",
                    "midi": 60,
                    "time": 99.95952250000119,
                    "velocity": 0.2677165354330709,
                    "duration": 0.12145750000000533
                },
                {
                    "name": "G2",
                    "midi": 43,
                    "time": 100.08098000000119,
                    "velocity": 0.3700787401574803,
                    "duration": 0.24291500000001065
                },
                {
                    "name": "A#3",
                    "midi": 58,
                    "time": 100.08098000000119,
                    "velocity": 0.33858267716535434,
                    "duration": 0.12145750000000533
                },
                {
                    "name": "D4",
                    "midi": 62,
                    "time": 100.2024375000012,
                    "velocity": 0.33858267716535434,
                    "duration": 0.12145750000000533
                },
                {
                    "name": "A#3",
                    "midi": 58,
                    "time": 100.3238950000012,
                    "velocity": 0.33858267716535434,
                    "duration": 0.12145750000000533
                },
                {
                    "name": "D4",
                    "midi": 62,
                    "time": 100.4453525000012,
                    "velocity": 0.33858267716535434,
                    "duration": 0.12145750000000533
                },
                {
                    "name": "A2",
                    "midi": 45,
                    "time": 100.56681000000121,
                    "velocity": 0.3700787401574803,
                    "duration": 0.24291500000001065
                },
                {
                    "name": "C#4",
                    "midi": 61,
                    "time": 100.56681000000121,
                    "velocity": 0.33858267716535434,
                    "duration": 0.1518218750000102
                },
                {
                    "name": "A#3",
                    "midi": 58,
                    "time": 100.68826750000122,
                    "velocity": 0.33858267716535434,
                    "duration": 0.1518218750000102
                },
                {
                    "name": "A3",
                    "midi": 57,
                    "time": 100.80972500000122,
                    "velocity": 0.33858267716535434,
                    "duration": 0.1518218750000102
                },
                {
                    "name": "G3",
                    "midi": 55,
                    "time": 100.93118250000123,
                    "velocity": 0.33858267716535434,
                    "duration": 0.12145750000000533
                },
                {
                    "name": "D2",
                    "midi": 38,
                    "time": 101.05264000000123,
                    "velocity": 0.30708661417322836,
                    "duration": 0.24291500000001065
                },
                {
                    "name": "F#3",
                    "midi": 54,
                    "time": 101.05264000000123,
                    "velocity": 0.30708661417322836,
                    "duration": 0.1518218750000102
                },
                {
                    "name": "G3",
                    "midi": 55,
                    "time": 101.17409750000124,
                    "velocity": 0.3543307086614173,
                    "duration": 0.1518218750000102
                },
                {
                    "name": "A3",
                    "midi": 57,
                    "time": 101.29555500000124,
                    "velocity": 0.41732283464566927,
                    "duration": 0.1518218750000102
                },
                {
                    "name": "B3",
                    "midi": 59,
                    "time": 101.41701250000125,
                    "velocity": 0.36220472440944884,
                    "duration": 0.12145750000000533
                },
                {
                    "name": "C4",
                    "midi": 60,
                    "time": 101.53847000000125,
                    "velocity": 0.2992125984251969,
                    "duration": 0.12145750000000533
                },
                {
                    "name": "B3",
                    "midi": 59,
                    "time": 101.65992750000126,
                    "velocity": 0.28346456692913385,
                    "duration": 0.12145750000000533
                },
                {
                    "name": "C4",
                    "midi": 60,
                    "time": 101.78138500000126,
                    "velocity": 0.31496062992125984,
                    "duration": 0.12145750000000533
                },
                {
                    "name": "A3",
                    "midi": 57,
                    "time": 101.90284250000127,
                    "velocity": 0.29133858267716534,
                    "duration": 0.12145750000000533
                },
                {
                    "name": "D3",
                    "midi": 50,
                    "time": 102.02430000000128,
                    "velocity": 0.30708661417322836,
                    "duration": 0.24291500000001065
                },
                {
                    "name": "B3",
                    "midi": 59,
                    "time": 102.02430000000128,
                    "velocity": 0.33858267716535434,
                    "duration": 0.12145750000000533
                },
                {
                    "name": "D4",
                    "midi": 62,
                    "time": 102.14575750000128,
                    "velocity": 0.25984251968503935,
                    "duration": 0.12145750000000533
                },
                {
                    "name": "C#4",
                    "midi": 61,
                    "time": 102.26721500000129,
                    "velocity": 0.2992125984251969,
                    "duration": 0.1518218750000102
                },
                {
                    "name": "D4",
                    "midi": 62,
                    "time": 102.38867250000129,
                    "velocity": 0.2677165354330709,
                    "duration": 0.12145750000000533
                },
                {
                    "name": "G3",
                    "midi": 55,
                    "time": 102.5101300000013,
                    "velocity": 0.36220472440944884,
                    "duration": 0.12145750000000533
                },
                {
                    "name": "D4",
                    "midi": 62,
                    "time": 102.6315875000013,
                    "velocity": 0.2755905511811024,
                    "duration": 0.12145750000000533
                },
                {
                    "name": "C#4",
                    "midi": 61,
                    "time": 102.75304500000131,
                    "velocity": 0.2992125984251969,
                    "duration": 0.1518218750000102
                },
                {
                    "name": "D4",
                    "midi": 62,
                    "time": 102.87450250000131,
                    "velocity": 0.2677165354330709,
                    "duration": 0.12145750000000533
                },
                {
                    "name": "F#3",
                    "midi": 54,
                    "time": 102.99596000000132,
                    "velocity": 0.3700787401574803,
                    "duration": 0.12145750000000533
                },
                {
                    "name": "A3",
                    "midi": 57,
                    "time": 103.11741750000132,
                    "velocity": 0.2677165354330709,
                    "duration": 0.12145750000000533
                },
                {
                    "name": "F#3",
                    "midi": 54,
                    "time": 103.23887500000133,
                    "velocity": 0.2992125984251969,
                    "duration": 0.12145750000000533
                },
                {
                    "name": "G3",
                    "midi": 55,
                    "time": 103.36033250000133,
                    "velocity": 0.2677165354330709,
                    "duration": 0.12145750000000533
                },
                {
                    "name": "D3",
                    "midi": 50,
                    "time": 103.48179000000134,
                    "velocity": 0.3700787401574803,
                    "duration": 0.24291500000001065
                },
                {
                    "name": "A3",
                    "midi": 57,
                    "time": 103.48179000000134,
                    "velocity": 0.33858267716535434,
                    "duration": 0.12145750000000533
                },
                {
                    "name": "C4",
                    "midi": 60,
                    "time": 103.60324750000134,
                    "velocity": 0.2677165354330709,
                    "duration": 0.12145750000000533
                },
                {
                    "name": "D4",
                    "midi": 62,
                    "time": 103.72470500000135,
                    "velocity": 0.2992125984251969,
                    "duration": 0.12145750000000533
                },
                {
                    "name": "C4",
                    "midi": 60,
                    "time": 103.84616250000136,
                    "velocity": 0.2677165354330709,
                    "duration": 0.12145750000000533
                },
                {
                    "name": "G3",
                    "midi": 55,
                    "time": 103.96762000000136,
                    "velocity": 0.3700787401574803,
                    "duration": 0.24291500000001065
                },
                {
                    "name": "A#3",
                    "midi": 58,
                    "time": 103.96762000000136,
                    "velocity": 0.33858267716535434,
                    "duration": 0.12145750000000533
                },
                {
                    "name": "D4",
                    "midi": 62,
                    "time": 104.08907750000137,
                    "velocity": 0.33858267716535434,
                    "duration": 0.12145750000000533
                },
                {
                    "name": "A#3",
                    "midi": 58,
                    "time": 104.21053500000137,
                    "velocity": 0.33858267716535434,
                    "duration": 0.12145750000000533
                },
                {
                    "name": "D4",
                    "midi": 62,
                    "time": 104.33199250000138,
                    "velocity": 0.33858267716535434,
                    "duration": 0.12145750000000533
                },
                {
                    "name": "A3",
                    "midi": 57,
                    "time": 104.45345000000138,
                    "velocity": 0.3700787401574803,
                    "duration": 0.24291500000001065
                },
                {
                    "name": "C#4",
                    "midi": 61,
                    "time": 104.45345000000138,
                    "velocity": 0.33858267716535434,
                    "duration": 0.1518218750000102
                },
                {
                    "name": "A#3",
                    "midi": 58,
                    "time": 104.57490750000139,
                    "velocity": 0.33858267716535434,
                    "duration": 0.1518218750000102
                },
                {
                    "name": "A3",
                    "midi": 57,
                    "time": 104.69636500000139,
                    "velocity": 0.33858267716535434,
                    "duration": 0.1518218750000102
                },
                {
                    "name": "G3",
                    "midi": 55,
                    "time": 104.8178225000014,
                    "velocity": 0.33858267716535434,
                    "duration": 0.12145750000000533
                },
                {
                    "name": "D3",
                    "midi": 50,
                    "time": 104.9392800000014,
                    "velocity": 0.23622047244094488,
                    "duration": 1.4574900000000497
                },
                {
                    "name": "F#3",
                    "midi": 54,
                    "time": 104.9392800000014,
                    "velocity": 0.30708661417322836,
                    "duration": 0.1518218750000102
                },
                {
                    "name": "A3",
                    "midi": 57,
                    "time": 105.06073750000141,
                    "velocity": 0.3543307086614173,
                    "duration": 0.1518218750000102
                },
                {
                    "name": "F#3",
                    "midi": 54,
                    "time": 105.18219500000141,
                    "velocity": 0.41732283464566927,
                    "duration": 0.1518218750000102
                },
                {
                    "name": "G3",
                    "midi": 55,
                    "time": 105.30365250000142,
                    "velocity": 0.36220472440944884,
                    "duration": 0.12145750000000533
                },
                {
                    "name": "A3",
                    "midi": 57,
                    "time": 105.42511000000142,
                    "velocity": 0.2992125984251969,
                    "duration": 0.12145750000000533
                },
                {
                    "name": "D4",
                    "midi": 62,
                    "time": 105.54656750000143,
                    "velocity": 0.28346456692913385,
                    "duration": 0.12145750000000533
                },
                {
                    "name": "F#4",
                    "midi": 66,
                    "time": 105.66802500000144,
                    "velocity": 0.31496062992125984,
                    "duration": 0.12145750000000533
                },
                {
                    "name": "E4",
                    "midi": 64,
                    "time": 105.78948250000144,
                    "velocity": 0.29133858267716534,
                    "duration": 0.12145750000000533
                },
                {
                    "name": "D5",
                    "midi": 74,
                    "time": 108.82592000000145,
                    "velocity": 0.2992125984251969,
                    "duration": 0.24291499999999644
                },
                {
                    "name": "F#5",
                    "midi": 78,
                    "time": 108.82592000000145,
                    "velocity": 0.2992125984251969,
                    "duration": 0.24291499999999644
                }
            ],
            "controlChanges": {},
            "id": 2,
            "name": "Piano left",
            "instrumentNumber": 0,
            "instrument": "acoustic grand piano",
            "instrumentFamily": "piano",
            "channelNumber": 0,
            "isPercussion": false
        },
        {
            "startTime": 0,
            "duration": 0,
            "length": 0,
            "notes": [],
            "controlChanges": {
                "64": [
                    {
                        "number": 64,
                        "time": 1.0283401666666667,
                        "value": 1
                    },
                    {
                        "number": 64,
                        "time": 1.25101225,
                        "value": 0
                    },
                    {
                        "number": 64,
                        "time": 1.5303645000000001,
                        "value": 1
                    },
                    {
                        "number": 64,
                        "time": 1.694332125,
                        "value": 0
                    },
                    {
                        "number": 64,
                        "time": 2.0161945,
                        "value": 1
                    },
                    {
                        "number": 64,
                        "time": 2.22267225,
                        "value": 0
                    },
                    {
                        "number": 64,
                        "time": 2.5303645833333333,
                        "value": 1
                    },
                    {
                        "number": 64,
                        "time": 2.6862350416666665,
                        "value": 0
                    },
                    {
                        "number": 64,
                        "time": 2.979757333333333,
                        "value": 1
                    },
                    {
                        "number": 64,
                        "time": 3.157895,
                        "value": 0
                    },
                    {
                        "number": 64,
                        "time": 3.4797573749999997,
                        "value": 1
                    },
                    {
                        "number": 64,
                        "time": 3.6518221666666664,
                        "value": 0
                    },
                    {
                        "number": 64,
                        "time": 3.9615387916666664,
                        "value": 1
                    },
                    {
                        "number": 64,
                        "time": 4.168016541666667,
                        "value": 0
                    },
                    {
                        "number": 64,
                        "time": 7.838057333333333,
                        "value": 1
                    },
                    {
                        "number": 64,
                        "time": 8.277328625,
                        "value": 0
                    },
                    {
                        "number": 64,
                        "time": 10.236842958333334,
                        "value": 1
                    },
                    {
                        "number": 64,
                        "time": 10.451417875,
                        "value": 0
                    },
                    {
                        "number": 64,
                        "time": 11.6842115,
                        "value": 1
                    },
                    {
                        "number": 64,
                        "time": 11.923077916666667,
                        "value": 0
                    },
                    {
                        "number": 64,
                        "time": 12.216600208333334,
                        "value": 1
                    },
                    {
                        "number": 64,
                        "time": 12.406883625,
                        "value": 0
                    },
                    {
                        "number": 64,
                        "time": 12.718624541666667,
                        "value": 1
                    },
                    {
                        "number": 64,
                        "time": 12.888665041666668,
                        "value": 0
                    },
                    {
                        "number": 64,
                        "time": 13.176114458333334,
                        "value": 1
                    },
                    {
                        "number": 64,
                        "time": 13.380567916666667,
                        "value": 0
                    },
                    {
                        "number": 64,
                        "time": 13.643725833333335,
                        "value": 1
                    },
                    {
                        "number": 64,
                        "time": 13.852227875,
                        "value": 0
                    },
                    {
                        "number": 64,
                        "time": 14.129555833333335,
                        "value": 1
                    },
                    {
                        "number": 64,
                        "time": 14.344130750000001,
                        "value": 0
                    },
                    {
                        "number": 64,
                        "time": 14.645750208333334,
                        "value": 1
                    },
                    {
                        "number": 64,
                        "time": 14.842106500000002,
                        "value": 0
                    },
                    {
                        "number": 64,
                        "time": 15.125507333333335,
                        "value": 1
                    },
                    {
                        "number": 64,
                        "time": 15.546560000000001,
                        "value": 0
                    },
                    {
                        "number": 64,
                        "time": 15.617410208333334,
                        "value": 1
                    },
                    {
                        "number": 64,
                        "time": 15.807693625,
                        "value": 0
                    },
                    {
                        "number": 64,
                        "time": 15.864373791666667,
                        "value": 1
                    },
                    {
                        "number": 64,
                        "time": 16.04453575,
                        "value": 0
                    },
                    {
                        "number": 64,
                        "time": 16.10728879166667,
                        "value": 1
                    },
                    {
                        "number": 64,
                        "time": 16.299596500000003,
                        "value": 0
                    },
                    {
                        "number": 64,
                        "time": 16.35020379166667,
                        "value": 1
                    },
                    {
                        "number": 64,
                        "time": 16.53036575,
                        "value": 0
                    },
                    {
                        "number": 64,
                        "time": 16.589070208333336,
                        "value": 1
                    },
                    {
                        "number": 64,
                        "time": 16.77530504166667,
                        "value": 0
                    },
                    {
                        "number": 64,
                        "time": 16.831985208333336,
                        "value": 1
                    },
                    {
                        "number": 64,
                        "time": 17.022268625000002,
                        "value": 0
                    },
                    {
                        "number": 64,
                        "time": 17.07894879166667,
                        "value": 1
                    },
                    {
                        "number": 64,
                        "time": 17.253037875,
                        "value": 0
                    },
                    {
                        "number": 64,
                        "time": 17.311742333333335,
                        "value": 1
                    },
                    {
                        "number": 64,
                        "time": 17.512147208333335,
                        "value": 0
                    },
                    {
                        "number": 64,
                        "time": 17.582997416666668,
                        "value": 1
                    },
                    {
                        "number": 64,
                        "time": 17.751013625000002,
                        "value": 0
                    },
                    {
                        "number": 64,
                        "time": 22.40486016666667,
                        "value": 1
                    },
                    {
                        "number": 64,
                        "time": 22.62753225,
                        "value": 0
                    },
                    {
                        "number": 64,
                        "time": 22.9068845,
                        "value": 1
                    },
                    {
                        "number": 64,
                        "time": 23.070852125000002,
                        "value": 0
                    },
                    {
                        "number": 64,
                        "time": 23.3927145,
                        "value": 1
                    },
                    {
                        "number": 64,
                        "time": 23.59919225,
                        "value": 0
                    },
                    {
                        "number": 64,
                        "time": 23.906884583333333,
                        "value": 1
                    },
                    {
                        "number": 64,
                        "time": 24.062755041666666,
                        "value": 0
                    },
                    {
                        "number": 64,
                        "time": 24.35627733333333,
                        "value": 1
                    },
                    {
                        "number": 64,
                        "time": 24.534415,
                        "value": 0
                    },
                    {
                        "number": 64,
                        "time": 24.856277374999998,
                        "value": 1
                    },
                    {
                        "number": 64,
                        "time": 25.028342166666665,
                        "value": 0
                    },
                    {
                        "number": 64,
                        "time": 25.338058791666665,
                        "value": 1
                    },
                    {
                        "number": 64,
                        "time": 25.544536541666666,
                        "value": 0
                    },
                    {
                        "number": 64,
                        "time": 29.21457733333333,
                        "value": 1
                    },
                    {
                        "number": 64,
                        "time": 29.653848625,
                        "value": 0
                    },
                    {
                        "number": 64,
                        "time": 31.613362958333333,
                        "value": 1
                    },
                    {
                        "number": 64,
                        "time": 31.827937875,
                        "value": 0
                    },
                    {
                        "number": 64,
                        "time": 33.0607315,
                        "value": 1
                    },
                    {
                        "number": 64,
                        "time": 33.29959791666667,
                        "value": 0
                    },
                    {
                        "number": 64,
                        "time": 33.59312020833334,
                        "value": 1
                    },
                    {
                        "number": 64,
                        "time": 33.783403625000005,
                        "value": 0
                    },
                    {
                        "number": 64,
                        "time": 34.09514454166667,
                        "value": 1
                    },
                    {
                        "number": 64,
                        "time": 34.26518504166667,
                        "value": 0
                    },
                    {
                        "number": 64,
                        "time": 34.55263445833334,
                        "value": 1
                    },
                    {
                        "number": 64,
                        "time": 34.75708791666667,
                        "value": 0
                    },
                    {
                        "number": 64,
                        "time": 35.020245833333334,
                        "value": 1
                    },
                    {
                        "number": 64,
                        "time": 35.228747875,
                        "value": 0
                    },
                    {
                        "number": 64,
                        "time": 35.506075833333334,
                        "value": 1
                    },
                    {
                        "number": 64,
                        "time": 35.72065075,
                        "value": 0
                    },
                    {
                        "number": 64,
                        "time": 36.02227020833333,
                        "value": 1
                    },
                    {
                        "number": 64,
                        "time": 36.2186265,
                        "value": 0
                    },
                    {
                        "number": 64,
                        "time": 36.50202733333333,
                        "value": 1
                    },
                    {
                        "number": 64,
                        "time": 36.92308,
                        "value": 0
                    },
                    {
                        "number": 64,
                        "time": 36.99393020833333,
                        "value": 1
                    },
                    {
                        "number": 64,
                        "time": 37.184213625,
                        "value": 0
                    },
                    {
                        "number": 64,
                        "time": 37.240893791666664,
                        "value": 1
                    },
                    {
                        "number": 64,
                        "time": 37.42105575,
                        "value": 0
                    },
                    {
                        "number": 64,
                        "time": 37.48380879166667,
                        "value": 1
                    },
                    {
                        "number": 64,
                        "time": 37.6761165,
                        "value": 0
                    },
                    {
                        "number": 64,
                        "time": 37.726723791666664,
                        "value": 1
                    },
                    {
                        "number": 64,
                        "time": 37.90688575,
                        "value": 0
                    },
                    {
                        "number": 64,
                        "time": 37.96559020833333,
                        "value": 1
                    },
                    {
                        "number": 64,
                        "time": 38.15182504166666,
                        "value": 0
                    },
                    {
                        "number": 64,
                        "time": 38.20850520833333,
                        "value": 1
                    },
                    {
                        "number": 64,
                        "time": 38.398788624999995,
                        "value": 0
                    },
                    {
                        "number": 64,
                        "time": 38.45546879166666,
                        "value": 1
                    },
                    {
                        "number": 64,
                        "time": 38.629557874999996,
                        "value": 0
                    },
                    {
                        "number": 64,
                        "time": 38.68826233333333,
                        "value": 1
                    },
                    {
                        "number": 64,
                        "time": 38.888667208333324,
                        "value": 0
                    },
                    {
                        "number": 64,
                        "time": 38.95951741666666,
                        "value": 1
                    },
                    {
                        "number": 64,
                        "time": 39.12753362499999,
                        "value": 0
                    },
                    {
                        "number": 64,
                        "time": 59.32996445833332,
                        "value": 1
                    },
                    {
                        "number": 64,
                        "time": 59.75708999999999,
                        "value": 0
                    },
                    {
                        "number": 64,
                        "time": 59.827940208333324,
                        "value": 1
                    },
                    {
                        "number": 64,
                        "time": 60.24291999999999,
                        "value": 0
                    },
                    {
                        "number": 64,
                        "time": 60.313770208333324,
                        "value": 1
                    },
                    {
                        "number": 64,
                        "time": 60.74089574999999,
                        "value": 0
                    },
                    {
                        "number": 64,
                        "time": 61.27328445833333,
                        "value": 1
                    },
                    {
                        "number": 64,
                        "time": 61.70041,
                        "value": 0
                    },
                    {
                        "number": 64,
                        "time": 61.77126020833333,
                        "value": 1
                    },
                    {
                        "number": 64,
                        "time": 62.18624,
                        "value": 0
                    },
                    {
                        "number": 64,
                        "time": 62.25709020833333,
                        "value": 1
                    },
                    {
                        "number": 64,
                        "time": 62.68421575,
                        "value": 0
                    },
                    {
                        "number": 64,
                        "time": 63.216604458333336,
                        "value": 1
                    },
                    {
                        "number": 64,
                        "time": 63.643730000000005,
                        "value": 0
                    },
                    {
                        "number": 64,
                        "time": 63.71458020833334,
                        "value": 1
                    },
                    {
                        "number": 64,
                        "time": 64.12956,
                        "value": 0
                    },
                    {
                        "number": 64,
                        "time": 64.20041020833334,
                        "value": 1
                    },
                    {
                        "number": 64,
                        "time": 64.62753575,
                        "value": 0
                    },
                    {
                        "number": 64,
                        "time": 64.68016733333334,
                        "value": 1
                    },
                    {
                        "number": 64,
                        "time": 65.12551150000002,
                        "value": 0
                    },
                    {
                        "number": 64,
                        "time": 65.21255604166669,
                        "value": 1
                    },
                    {
                        "number": 64,
                        "time": 65.58705000000002,
                        "value": 0
                    },
                    {
                        "number": 64,
                        "time": 65.64575445833336,
                        "value": 1
                    },
                    {
                        "number": 64,
                        "time": 66.07288000000003,
                        "value": 0
                    },
                    {
                        "number": 64,
                        "time": 66.18826462500003,
                        "value": 1
                    },
                    {
                        "number": 64,
                        "time": 66.57085575000004,
                        "value": 0
                    },
                    {
                        "number": 64,
                        "time": 66.6457545416667,
                        "value": 1
                    },
                    {
                        "number": 64,
                        "time": 67.0587100416667,
                        "value": 0
                    },
                    {
                        "number": 64,
                        "time": 67.1012201666667,
                        "value": 1
                    },
                    {
                        "number": 64,
                        "time": 67.32389225000004,
                        "value": 0
                    },
                    {
                        "number": 64,
                        "time": 67.60324450000005,
                        "value": 1
                    },
                    {
                        "number": 64,
                        "time": 67.76721212500004,
                        "value": 0
                    },
                    {
                        "number": 64,
                        "time": 68.08907450000004,
                        "value": 1
                    },
                    {
                        "number": 64,
                        "time": 68.29555225000004,
                        "value": 0
                    },
                    {
                        "number": 64,
                        "time": 68.60324458333338,
                        "value": 1
                    },
                    {
                        "number": 64,
                        "time": 68.75911504166672,
                        "value": 0
                    },
                    {
                        "number": 64,
                        "time": 69.05263733333338,
                        "value": 1
                    },
                    {
                        "number": 64,
                        "time": 69.23077500000005,
                        "value": 0
                    },
                    {
                        "number": 64,
                        "time": 69.55263737500005,
                        "value": 1
                    },
                    {
                        "number": 64,
                        "time": 69.72470216666672,
                        "value": 0
                    },
                    {
                        "number": 64,
                        "time": 70.03441879166671,
                        "value": 1
                    },
                    {
                        "number": 64,
                        "time": 70.24089654166671,
                        "value": 0
                    },
                    {
                        "number": 64,
                        "time": 73.84616000000005,
                        "value": 1
                    },
                    {
                        "number": 64,
                        "time": 74.10729362500005,
                        "value": 0
                    },
                    {
                        "number": 64,
                        "time": 78.72875150000006,
                        "value": 1
                    },
                    {
                        "number": 64,
                        "time": 78.96761791666673,
                        "value": 0
                    },
                    {
                        "number": 64,
                        "time": 79.26114020833339,
                        "value": 1
                    },
                    {
                        "number": 64,
                        "time": 79.45142362500006,
                        "value": 0
                    },
                    {
                        "number": 64,
                        "time": 79.76316454166673,
                        "value": 1
                    },
                    {
                        "number": 64,
                        "time": 79.93320504166672,
                        "value": 0
                    },
                    {
                        "number": 64,
                        "time": 80.22065445833339,
                        "value": 1
                    },
                    {
                        "number": 64,
                        "time": 80.42510791666672,
                        "value": 0
                    },
                    {
                        "number": 64,
                        "time": 80.68826583333339,
                        "value": 1
                    },
                    {
                        "number": 64,
                        "time": 80.89676787500005,
                        "value": 0
                    },
                    {
                        "number": 64,
                        "time": 81.17409583333338,
                        "value": 1
                    },
                    {
                        "number": 64,
                        "time": 81.38867075000005,
                        "value": 0
                    },
                    {
                        "number": 64,
                        "time": 81.69029020833338,
                        "value": 1
                    },
                    {
                        "number": 64,
                        "time": 81.88664650000004,
                        "value": 0
                    },
                    {
                        "number": 64,
                        "time": 82.17004733333337,
                        "value": 1
                    },
                    {
                        "number": 64,
                        "time": 82.59110000000004,
                        "value": 0
                    },
                    {
                        "number": 64,
                        "time": 82.66195020833338,
                        "value": 1
                    },
                    {
                        "number": 64,
                        "time": 82.85223362500005,
                        "value": 0
                    },
                    {
                        "number": 64,
                        "time": 82.90891379166672,
                        "value": 1
                    },
                    {
                        "number": 64,
                        "time": 83.08907575000005,
                        "value": 0
                    },
                    {
                        "number": 64,
                        "time": 83.15182879166672,
                        "value": 1
                    },
                    {
                        "number": 64,
                        "time": 83.34413650000005,
                        "value": 0
                    },
                    {
                        "number": 64,
                        "time": 83.39474379166671,
                        "value": 1
                    },
                    {
                        "number": 64,
                        "time": 83.57490575000004,
                        "value": 0
                    },
                    {
                        "number": 64,
                        "time": 83.63361020833338,
                        "value": 1
                    },
                    {
                        "number": 64,
                        "time": 83.81984504166671,
                        "value": 0
                    },
                    {
                        "number": 64,
                        "time": 83.87652520833338,
                        "value": 1
                    },
                    {
                        "number": 64,
                        "time": 84.06680862500005,
                        "value": 0
                    },
                    {
                        "number": 64,
                        "time": 84.12348879166672,
                        "value": 1
                    },
                    {
                        "number": 64,
                        "time": 84.29757787500004,
                        "value": 0
                    },
                    {
                        "number": 64,
                        "time": 84.35628233333338,
                        "value": 1
                    },
                    {
                        "number": 64,
                        "time": 84.55668720833339,
                        "value": 0
                    },
                    {
                        "number": 64,
                        "time": 84.62753741666673,
                        "value": 1
                    },
                    {
                        "number": 64,
                        "time": 84.79555362500005,
                        "value": 0
                    },
                    {
                        "number": 64,
                        "time": 84.86437954166672,
                        "value": 1
                    },
                    {
                        "number": 64,
                        "time": 85.03442004166672,
                        "value": 0
                    },
                    {
                        "number": 64,
                        "time": 85.12146458333339,
                        "value": 1
                    },
                    {
                        "number": 64,
                        "time": 85.52025004166673,
                        "value": 0
                    },
                    {
                        "number": 64,
                        "time": 85.5769302083334,
                        "value": 1
                    },
                    {
                        "number": 64,
                        "time": 85.9716670833334,
                        "value": 0
                    },
                    {
                        "number": 64,
                        "time": 86.0566873333334,
                        "value": 1
                    },
                    {
                        "number": 64,
                        "time": 86.47774000000007,
                        "value": 0
                    },
                    {
                        "number": 64,
                        "time": 86.54859020833341,
                        "value": 1
                    },
                    {
                        "number": 64,
                        "time": 86.73887362500008,
                        "value": 0
                    },
                    {
                        "number": 64,
                        "time": 86.79555379166675,
                        "value": 1
                    },
                    {
                        "number": 64,
                        "time": 86.97571575000008,
                        "value": 0
                    },
                    {
                        "number": 64,
                        "time": 87.03846879166674,
                        "value": 1
                    },
                    {
                        "number": 64,
                        "time": 87.23077650000008,
                        "value": 0
                    },
                    {
                        "number": 64,
                        "time": 87.28138379166674,
                        "value": 1
                    },
                    {
                        "number": 64,
                        "time": 87.46154575000007,
                        "value": 0
                    },
                    {
                        "number": 64,
                        "time": 87.52025020833341,
                        "value": 1
                    },
                    {
                        "number": 64,
                        "time": 87.70648504166674,
                        "value": 0
                    },
                    {
                        "number": 64,
                        "time": 87.7631652083334,
                        "value": 1
                    },
                    {
                        "number": 64,
                        "time": 87.95344862500008,
                        "value": 0
                    },
                    {
                        "number": 64,
                        "time": 88.01012879166674,
                        "value": 1
                    },
                    {
                        "number": 64,
                        "time": 88.18421787500007,
                        "value": 0
                    },
                    {
                        "number": 64,
                        "time": 88.24292233333341,
                        "value": 1
                    },
                    {
                        "number": 64,
                        "time": 88.44332720833341,
                        "value": 0
                    },
                    {
                        "number": 64,
                        "time": 88.51417741666675,
                        "value": 1
                    },
                    {
                        "number": 64,
                        "time": 88.68219362500008,
                        "value": 0
                    },
                    {
                        "number": 64,
                        "time": 88.75101954166675,
                        "value": 1
                    },
                    {
                        "number": 64,
                        "time": 88.92106004166675,
                        "value": 0
                    },
                    {
                        "number": 64,
                        "time": 89.00810458333342,
                        "value": 1
                    },
                    {
                        "number": 64,
                        "time": 89.17814508333342,
                        "value": 0
                    },
                    {
                        "number": 64,
                        "time": 89.25709245833342,
                        "value": 1
                    },
                    {
                        "number": 64,
                        "time": 89.39272000000008,
                        "value": 0
                    },
                    {
                        "number": 64,
                        "time": 89.45749733333342,
                        "value": 1
                    },
                    {
                        "number": 64,
                        "time": 89.74292245833342,
                        "value": 0
                    },
                    {
                        "number": 64,
                        "time": 89.97166741666676,
                        "value": 1
                    },
                    {
                        "number": 64,
                        "time": 90.39069579166676,
                        "value": 0
                    },
                    {
                        "number": 64,
                        "time": 90.47166745833343,
                        "value": 1
                    },
                    {
                        "number": 64,
                        "time": 90.87855008333342,
                        "value": 0
                    },
                    {
                        "number": 64,
                        "time": 90.93725454166676,
                        "value": 1
                    },
                    {
                        "number": 64,
                        "time": 91.3481857500001,
                        "value": 0
                    },
                    {
                        "number": 64,
                        "time": 91.42308454166677,
                        "value": 1
                    },
                    {
                        "number": 64,
                        "time": 91.8583072500001,
                        "value": 0
                    },
                    {
                        "number": 64,
                        "time": 91.9372546250001,
                        "value": 1
                    },
                    {
                        "number": 64,
                        "time": 92.3319915000001,
                        "value": 0
                    },
                    {
                        "number": 64,
                        "time": 92.45749758333343,
                        "value": 1
                    },
                    {
                        "number": 64,
                        "time": 92.8299672500001,
                        "value": 0
                    },
                    {
                        "number": 64,
                        "time": 92.9089146250001,
                        "value": 1
                    },
                    {
                        "number": 64,
                        "time": 93.2975786250001,
                        "value": 0
                    },
                    {
                        "number": 64,
                        "time": 93.83604020833343,
                        "value": 1
                    },
                    {
                        "number": 64,
                        "time": 94.26519004166676,
                        "value": 0
                    },
                    {
                        "number": 64,
                        "time": 94.33199166666675,
                        "value": 1
                    },
                    {
                        "number": 64,
                        "time": 94.50608075000008,
                        "value": 0
                    },
                    {
                        "number": 64,
                        "time": 94.77733583333341,
                        "value": 1
                    },
                    {
                        "number": 64,
                        "time": 94.99191075000007,
                        "value": 0
                    },
                    {
                        "number": 64,
                        "time": 95.2874573333334,
                        "value": 1
                    },
                    {
                        "number": 64,
                        "time": 95.71458287500008,
                        "value": 0
                    },
                    {
                        "number": 64,
                        "time": 96.20851004166674,
                        "value": 0
                    },
                    {
                        "number": 64,
                        "time": 96.27531166666674,
                        "value": 1
                    },
                    {
                        "number": 64,
                        "time": 96.44940075000007,
                        "value": 0
                    },
                    {
                        "number": 64,
                        "time": 96.7206558333334,
                        "value": 1
                    },
                    {
                        "number": 64,
                        "time": 96.93523075000006,
                        "value": 0
                    },
                    {
                        "number": 64,
                        "time": 97.23077733333339,
                        "value": 1
                    },
                    {
                        "number": 64,
                        "time": 97.65790287500006,
                        "value": 0
                    },
                    {
                        "number": 64,
                        "time": 98.15183004166673,
                        "value": 0
                    },
                    {
                        "number": 64,
                        "time": 98.21863166666672,
                        "value": 1
                    },
                    {
                        "number": 64,
                        "time": 98.39272075000005,
                        "value": 0
                    },
                    {
                        "number": 64,
                        "time": 98.66397583333338,
                        "value": 1
                    },
                    {
                        "number": 64,
                        "time": 98.87855075000004,
                        "value": 0
                    },
                    {
                        "number": 64,
                        "time": 99.17409733333338,
                        "value": 1
                    },
                    {
                        "number": 64,
                        "time": 99.60122287500005,
                        "value": 0
                    },
                    {
                        "number": 64,
                        "time": 99.67004879166672,
                        "value": 1
                    },
                    {
                        "number": 64,
                        "time": 99.83806500000004,
                        "value": 0
                    },
                    {
                        "number": 64,
                        "time": 100.16802454166671,
                        "value": 1
                    },
                    {
                        "number": 64,
                        "time": 100.32389500000005,
                        "value": 0
                    },
                    {
                        "number": 64,
                        "time": 101.07085862500006,
                        "value": 0
                    },
                    {
                        "number": 64,
                        "time": 101.60932020833339,
                        "value": 1
                    },
                    {
                        "number": 64,
                        "time": 102.03847004166671,
                        "value": 0
                    },
                    {
                        "number": 64,
                        "time": 102.10527166666671,
                        "value": 1
                    },
                    {
                        "number": 64,
                        "time": 102.27936075000004,
                        "value": 0
                    },
                    {
                        "number": 64,
                        "time": 102.55061583333337,
                        "value": 1
                    },
                    {
                        "number": 64,
                        "time": 102.76519075000003,
                        "value": 0
                    },
                    {
                        "number": 64,
                        "time": 103.06073733333336,
                        "value": 1
                    },
                    {
                        "number": 64,
                        "time": 103.48786287500003,
                        "value": 0
                    },
                    {
                        "number": 64,
                        "time": 103.5566887916667,
                        "value": 1
                    },
                    {
                        "number": 64,
                        "time": 103.73685075000003,
                        "value": 0
                    },
                    {
                        "number": 64,
                        "time": 104.0546645416667,
                        "value": 1
                    },
                    {
                        "number": 64,
                        "time": 104.25102083333336,
                        "value": 0
                    },
                    {
                        "number": 64,
                        "time": 104.70243787500003,
                        "value": 0
                    }
                ]
            },
            "id": 3,
            "name": "Pedale",
            "instrumentNumber": 0,
            "instrument": "acoustic grand piano",
            "instrumentFamily": "piano",
            "channelNumber": 0,
            "isPercussion": false
        },
        {
            "startTime": 0,
            "duration": 0,
            "length": 0,
            "notes": [],
            "controlChanges": {},
            "id": 4,
            "name": "Mendelssohn: Songs without words Opus 30 No. 5"
        },
        {
            "startTime": 0,
            "duration": 0,
            "length": 0,
            "notes": [],
            "controlChanges": {},
            "id": 5,
            "name": "Copyright  2010 by Bernd Krueger"
        },
        {
            "startTime": 0,
            "duration": 0,
            "length": 0,
            "notes": [],
            "controlChanges": {},
            "id": 6,
            "name": "http://www.piano-midi.de/"
        },
        {
            "startTime": 0,
            "duration": 0,
            "length": 0,
            "notes": [],
            "controlChanges": {},
            "id": 7,
            "name": "Edition: 2015-03-20"
        },
        {
            "startTime": 0,
            "duration": 0,
            "length": 0,
            "notes": [],
            "controlChanges": {},
            "id": 8,
            "name": "Spur 8"
        },
        {
            "startTime": 0,
            "duration": 0,
            "length": 0,
            "notes": [],
            "controlChanges": {},
            "id": 9,
            "name": "Spur 9"
        },
        {
            "startTime": 0,
            "duration": 0,
            "length": 0,
            "notes": [],
            "controlChanges": {},
            "id": 10,
            "name": "Spur 10"
        },
        {
            "startTime": 0,
            "duration": 0,
            "length": 0,
            "notes": [],
            "controlChanges": {},
            "id": 11,
            "name": "Spur 11"
        },
        {
            "startTime": 0,
            "duration": 0,
            "length": 0,
            "notes": [],
            "controlChanges": {},
            "id": 12,
            "name": "Spur 12"
        },
        {
            "startTime": 0,
            "duration": 0,
            "length": 0,
            "notes": [],
            "controlChanges": {},
            "id": 13,
            "name": "Spur 13"
        },
        {
            "startTime": 0,
            "duration": 0,
            "length": 0,
            "notes": [],
            "controlChanges": {},
            "id": 14,
            "name": "Spur 14"
        },
        {
            "startTime": 0,
            "duration": 0,
            "length": 0,
            "notes": [],
            "controlChanges": {},
            "id": 15,
            "name": "Spur 15"
        },
        {
            "startTime": 0,
            "duration": 0,
            "length": 0,
            "notes": [],
            "controlChanges": {},
            "id": 16,
            "name": "Spur 16"
        }
    ]
}