{
    "header": {
        "PPQ": 480,
        "timeSignature": [
            6,
            8
        ],
        "bpm": 97.47998004909742,
        "name": "Venetianisches Gondellied"
    },
    "startTime": 0,
    "duration": 109.2532025000007,
    "tracks": [
        {
            "startTime": 0,
            "duration": 0,
            "length": 0,
            "notes": [],
            "controlChanges": {},
            "id": 0,
            "name": "Venetianisches Gondellied"
        },
        {
            "startTime": 3.6930659999999995,
            "duration": 109.2532025000007,
            "length": 531,
            "notes": [
                {
                    "name": "A4",
                    "midi": 69,
                    "time": 3.6930659999999995,
                    "velocity": 0.6062992125984252,
                    "duration": 0.9232665
                },
                {
                    "name": "E4",
                    "midi": 64,
                    "time": 4.6163324999999995,
                    "velocity": 0.5354330708661418,
                    "duration": 0.6155109999999997
                },
                {
                    "name": "A3",
                    "midi": 57,
                    "time": 6.4628654999999995,
                    "velocity": 0.5984251968503937,
                    "duration": 0.9181372416666669
                },
                {
                    "name": "E3",
                    "midi": 52,
                    "time": 7.386132,
                    "velocity": 0.5511811023622047,
                    "duration": 0.6155109999999997
                },
                {
                    "name": "E5",
                    "midi": 76,
                    "time": 8.3093985,
                    "velocity": 0.3464566929133858,
                    "duration": 0.6155109999999997
                },
                {
                    "name": "C5",
                    "midi": 72,
                    "time": 8.3093985,
                    "velocity": 0.2755905511811024,
                    "duration": 0.6155109999999997
                },
                {
                    "name": "A4",
                    "midi": 69,
                    "time": 8.9249095,
                    "velocity": 0.25984251968503935,
                    "duration": 0.30775550000000074
                },
                {
                    "name": "C5",
                    "midi": 72,
                    "time": 8.9249095,
                    "velocity": 0.31496062992125984,
                    "duration": 0.30775550000000074
                },
                {
                    "name": "E4",
                    "midi": 64,
                    "time": 9.232665,
                    "velocity": 0.25984251968503935,
                    "duration": 0.6155109999999997
                },
                {
                    "name": "A4",
                    "midi": 69,
                    "time": 9.232665,
                    "velocity": 0.31496062992125984,
                    "duration": 0.6155109999999997
                },
                {
                    "name": "G#4",
                    "midi": 68,
                    "time": 9.848176,
                    "velocity": 0.2677165354330709,
                    "duration": 0.30775550000000074
                },
                {
                    "name": "B4",
                    "midi": 71,
                    "time": 9.848176,
                    "velocity": 0.33070866141732286,
                    "duration": 0.30775550000000074
                },
                {
                    "name": "A4",
                    "midi": 69,
                    "time": 10.155931500000001,
                    "velocity": 0.25196850393700787,
                    "duration": 0.30775550000000074
                },
                {
                    "name": "C5",
                    "midi": 72,
                    "time": 10.155931500000001,
                    "velocity": 0.30708661417322836,
                    "duration": 0.30775550000000074
                },
                {
                    "name": "B4",
                    "midi": 71,
                    "time": 10.463687000000002,
                    "velocity": 0.2755905511811024,
                    "duration": 0.30775550000000074
                },
                {
                    "name": "D5",
                    "midi": 74,
                    "time": 10.463687000000002,
                    "velocity": 0.3464566929133858,
                    "duration": 0.30775550000000074
                },
                {
                    "name": "C5",
                    "midi": 72,
                    "time": 10.771442500000003,
                    "velocity": 0.28346456692913385,
                    "duration": 0.30775550000000074
                },
                {
                    "name": "E5",
                    "midi": 76,
                    "time": 10.771442500000003,
                    "velocity": 0.36220472440944884,
                    "duration": 0.30775550000000074
                },
                {
                    "name": "E5",
                    "midi": 76,
                    "time": 11.079198000000003,
                    "velocity": 0.30708661417322836,
                    "duration": 0.6155109999999997
                },
                {
                    "name": "G5",
                    "midi": 79,
                    "time": 11.079198000000003,
                    "velocity": 0.3858267716535433,
                    "duration": 0.6155109999999997
                },
                {
                    "name": "D5",
                    "midi": 74,
                    "time": 11.694709000000003,
                    "velocity": 0.2992125984251969,
                    "duration": 0.6155109999999997
                },
                {
                    "name": "F5",
                    "midi": 77,
                    "time": 11.694709000000003,
                    "velocity": 0.3779527559055118,
                    "duration": 0.6155109999999997
                },
                {
                    "name": "C5",
                    "midi": 72,
                    "time": 12.310220000000003,
                    "velocity": 0.25984251968503935,
                    "duration": 0.30775550000000074
                },
                {
                    "name": "E5",
                    "midi": 76,
                    "time": 12.310220000000003,
                    "velocity": 0.31496062992125984,
                    "duration": 0.30775550000000074
                },
                {
                    "name": "B4",
                    "midi": 71,
                    "time": 12.617975500000004,
                    "velocity": 0.2755905511811024,
                    "duration": 0.30775550000000074
                },
                {
                    "name": "D5",
                    "midi": 74,
                    "time": 12.617975500000004,
                    "velocity": 0.3464566929133858,
                    "duration": 0.30775550000000074
                },
                {
                    "name": "C5",
                    "midi": 72,
                    "time": 12.925731000000004,
                    "velocity": 0.30708661417322836,
                    "duration": 0.6155109999999997
                },
                {
                    "name": "E5",
                    "midi": 76,
                    "time": 12.925731000000004,
                    "velocity": 0.3858267716535433,
                    "duration": 0.6155109999999997
                },
                {
                    "name": "A4",
                    "midi": 69,
                    "time": 13.541242000000004,
                    "velocity": 0.2992125984251969,
                    "duration": 0.15387774999999948
                },
                {
                    "name": "C5",
                    "midi": 72,
                    "time": 13.541242000000004,
                    "velocity": 0.36220472440944884,
                    "duration": 0.15387774999999948
                },
                {
                    "name": "D#4",
                    "midi": 63,
                    "time": 13.695119750000003,
                    "velocity": 0.2440944881889764,
                    "duration": 1.0771442500000017
                },
                {
                    "name": "F#4",
                    "midi": 66,
                    "time": 13.733589187500003,
                    "velocity": 0.25196850393700787,
                    "duration": 0.42316381250000035
                },
                {
                    "name": "G#4",
                    "midi": 68,
                    "time": 13.772058625000003,
                    "velocity": 0.25984251968503935,
                    "duration": 0.03846943749999987
                },
                {
                    "name": "B4",
                    "midi": 71,
                    "time": 13.810528062500003,
                    "velocity": 0.2677165354330709,
                    "duration": 0.03846943749999987
                },
                {
                    "name": "A4",
                    "midi": 69,
                    "time": 13.848997500000003,
                    "velocity": 0.3464566929133858,
                    "duration": 0.30775550000000074
                },
                {
                    "name": "E4",
                    "midi": 64,
                    "time": 14.156753000000004,
                    "velocity": 0.25984251968503935,
                    "duration": 0.30775550000000074
                },
                {
                    "name": "G#4",
                    "midi": 68,
                    "time": 14.156753000000004,
                    "velocity": 0.31496062992125984,
                    "duration": 0.30775550000000074
                },
                {
                    "name": "F#4",
                    "midi": 66,
                    "time": 14.464508500000004,
                    "velocity": 0.2755905511811024,
                    "duration": 0.30775550000000074
                },
                {
                    "name": "A4",
                    "midi": 69,
                    "time": 14.464508500000004,
                    "velocity": 0.3464566929133858,
                    "duration": 0.30775550000000074
                },
                {
                    "name": "G#4",
                    "midi": 68,
                    "time": 14.772264000000005,
                    "velocity": 0.28346456692913385,
                    "duration": 0.9232665000000004
                },
                {
                    "name": "B4",
                    "midi": 71,
                    "time": 14.772264000000005,
                    "velocity": 0.33858267716535434,
                    "duration": 0.9232665000000004
                },
                {
                    "name": "E5",
                    "midi": 76,
                    "time": 15.695530500000006,
                    "velocity": 0.3464566929133858,
                    "duration": 0.6155109999999997
                },
                {
                    "name": "G#4",
                    "midi": 68,
                    "time": 15.695530500000006,
                    "velocity": 0.2755905511811024,
                    "duration": 0.9232664999999987
                },
                {
                    "name": "C5",
                    "midi": 72,
                    "time": 16.311041500000005,
                    "velocity": 0.31496062992125984,
                    "duration": 0.30775549999999896
                },
                {
                    "name": "E4",
                    "midi": 64,
                    "time": 16.618797000000004,
                    "velocity": 0.25984251968503935,
                    "duration": 0.6155110000000015
                },
                {
                    "name": "A4",
                    "midi": 69,
                    "time": 16.618797000000004,
                    "velocity": 0.31496062992125984,
                    "duration": 0.6155110000000015
                },
                {
                    "name": "G#4",
                    "midi": 68,
                    "time": 17.234308000000006,
                    "velocity": 0.2677165354330709,
                    "duration": 0.30775549999999896
                },
                {
                    "name": "B4",
                    "midi": 71,
                    "time": 17.234308000000006,
                    "velocity": 0.33070866141732286,
                    "duration": 0.30775549999999896
                },
                {
                    "name": "A4",
                    "midi": 69,
                    "time": 17.542063500000005,
                    "velocity": 0.25196850393700787,
                    "duration": 0.30775549999999896
                },
                {
                    "name": "C5",
                    "midi": 72,
                    "time": 17.542063500000005,
                    "velocity": 0.30708661417322836,
                    "duration": 0.30775549999999896
                },
                {
                    "name": "B4",
                    "midi": 71,
                    "time": 17.849819000000004,
                    "velocity": 0.2755905511811024,
                    "duration": 0.30775549999999896
                },
                {
                    "name": "D5",
                    "midi": 74,
                    "time": 17.849819000000004,
                    "velocity": 0.3464566929133858,
                    "duration": 0.30775549999999896
                },
                {
                    "name": "C5",
                    "midi": 72,
                    "time": 18.157574500000003,
                    "velocity": 0.28346456692913385,
                    "duration": 0.30775549999999896
                },
                {
                    "name": "E5",
                    "midi": 76,
                    "time": 18.157574500000003,
                    "velocity": 0.36220472440944884,
                    "duration": 0.30775549999999896
                },
                {
                    "name": "D5",
                    "midi": 74,
                    "time": 18.46533,
                    "velocity": 0.3228346456692913,
                    "duration": 0.30775549999999896
                },
                {
                    "name": "G5",
                    "midi": 79,
                    "time": 18.46533,
                    "velocity": 0.3858267716535433,
                    "duration": 1.2310219999999958
                },
                {
                    "name": "E5",
                    "midi": 76,
                    "time": 18.7730855,
                    "velocity": 0.33858267716535434,
                    "duration": 0.30775549999999896
                },
                {
                    "name": "F5",
                    "midi": 77,
                    "time": 19.080841,
                    "velocity": 0.31496062992125984,
                    "duration": 0.30775549999999896
                },
                {
                    "name": "E5",
                    "midi": 76,
                    "time": 19.3885965,
                    "velocity": 0.33858267716535434,
                    "duration": 0.30775549999999896
                },
                {
                    "name": "D5",
                    "midi": 74,
                    "time": 19.696351999999997,
                    "velocity": 0.25984251968503935,
                    "duration": 0.46163324999999844
                },
                {
                    "name": "F5",
                    "midi": 77,
                    "time": 19.696351999999997,
                    "velocity": 0.31496062992125984,
                    "duration": 0.46163324999999844
                },
                {
                    "name": "C5",
                    "midi": 72,
                    "time": 20.157985249999996,
                    "velocity": 0.2755905511811024,
                    "duration": 0.14618386249999915
                },
                {
                    "name": "E5",
                    "midi": 76,
                    "time": 20.157985249999996,
                    "velocity": 0.3464566929133858,
                    "duration": 0.14618386249999915
                },
                {
                    "name": "C5",
                    "midi": 72,
                    "time": 20.311862999999995,
                    "velocity": 0.29133858267716534,
                    "duration": 0.30775549999999896
                },
                {
                    "name": "E5",
                    "midi": 76,
                    "time": 20.311862999999995,
                    "velocity": 0.36220472440944884,
                    "duration": 0.30775549999999896
                },
                {
                    "name": "B4",
                    "midi": 71,
                    "time": 20.619618499999994,
                    "velocity": 0.30708661417322836,
                    "duration": 0.46163324999999844
                },
                {
                    "name": "D5",
                    "midi": 74,
                    "time": 20.619618499999994,
                    "velocity": 0.3700787401574803,
                    "duration": 0.46163324999999844
                },
                {
                    "name": "A4",
                    "midi": 69,
                    "time": 21.081251749999993,
                    "velocity": 0.2992125984251969,
                    "duration": 0.14618386249999915
                },
                {
                    "name": "C5",
                    "midi": 72,
                    "time": 21.081251749999993,
                    "velocity": 0.3779527559055118,
                    "duration": 0.14618386249999915
                },
                {
                    "name": "A4",
                    "midi": 69,
                    "time": 21.235129499999992,
                    "velocity": 0.2755905511811024,
                    "duration": 0.30775549999999896
                },
                {
                    "name": "C5",
                    "midi": 72,
                    "time": 21.235129499999992,
                    "velocity": 0.30708661417322836,
                    "duration": 0.30775549999999896
                },
                {
                    "name": "G#4",
                    "midi": 68,
                    "time": 21.54288499999999,
                    "velocity": 0.25984251968503935,
                    "duration": 0.46163324999999844
                },
                {
                    "name": "B4",
                    "midi": 71,
                    "time": 21.54288499999999,
                    "velocity": 0.31496062992125984,
                    "duration": 0.46163324999999844
                },
                {
                    "name": "A4",
                    "midi": 69,
                    "time": 22.00451824999999,
                    "velocity": 0.29133858267716534,
                    "duration": 0.14618386249999915
                },
                {
                    "name": "A4",
                    "midi": 69,
                    "time": 22.15839599999999,
                    "velocity": 0.2677165354330709,
                    "duration": 0.9232665000000004
                },
                {
                    "name": "A3",
                    "midi": 57,
                    "time": 23.08166249999999,
                    "velocity": 0.5984251968503937,
                    "duration": 0.9232665000000004
                },
                {
                    "name": "E3",
                    "midi": 52,
                    "time": 24.00492899999999,
                    "velocity": 0.5511811023622047,
                    "duration": 0.6155110000000015
                },
                {
                    "name": "E5",
                    "midi": 76,
                    "time": 24.92819549999999,
                    "velocity": 0.28346456692913385,
                    "duration": 0.6155110000000015
                },
                {
                    "name": "E6",
                    "midi": 88,
                    "time": 24.92819549999999,
                    "velocity": 0.3779527559055118,
                    "duration": 0.6155110000000015
                },
                {
                    "name": "C6",
                    "midi": 84,
                    "time": 24.92819549999999,
                    "velocity": 0.28346456692913385,
                    "duration": 0.6155110000000015
                },
                {
                    "name": "C5",
                    "midi": 72,
                    "time": 25.543706499999992,
                    "velocity": 0.2677165354330709,
                    "duration": 0.30775549999999896
                },
                {
                    "name": "A5",
                    "midi": 81,
                    "time": 25.543706499999992,
                    "velocity": 0.2677165354330709,
                    "duration": 0.30775549999999896
                },
                {
                    "name": "C6",
                    "midi": 84,
                    "time": 25.543706499999992,
                    "velocity": 0.3464566929133858,
                    "duration": 0.30775549999999896
                },
                {
                    "name": "A4",
                    "midi": 69,
                    "time": 25.85146199999999,
                    "velocity": 0.2677165354330709,
                    "duration": 0.6155110000000015
                },
                {
                    "name": "E5",
                    "midi": 76,
                    "time": 25.85146199999999,
                    "velocity": 0.2677165354330709,
                    "duration": 0.6155110000000015
                },
                {
                    "name": "A5",
                    "midi": 81,
                    "time": 25.85146199999999,
                    "velocity": 0.3464566929133858,
                    "duration": 0.6155110000000015
                },
                {
                    "name": "B4",
                    "midi": 71,
                    "time": 26.466972999999992,
                    "velocity": 0.2755905511811024,
                    "duration": 0.30775549999999896
                },
                {
                    "name": "G#5",
                    "midi": 80,
                    "time": 26.466972999999992,
                    "velocity": 0.2755905511811024,
                    "duration": 0.30775549999999896
                },
                {
                    "name": "B5",
                    "midi": 83,
                    "time": 26.466972999999992,
                    "velocity": 0.36220472440944884,
                    "duration": 0.30775549999999896
                },
                {
                    "name": "C5",
                    "midi": 72,
                    "time": 26.77472849999999,
                    "velocity": 0.25984251968503935,
                    "duration": 0.30775549999999896
                },
                {
                    "name": "A5",
                    "midi": 81,
                    "time": 26.77472849999999,
                    "velocity": 0.25984251968503935,
                    "duration": 0.30775549999999896
                },
                {
                    "name": "C6",
                    "midi": 84,
                    "time": 26.77472849999999,
                    "velocity": 0.33070866141732286,
                    "duration": 0.30775549999999896
                },
                {
                    "name": "D5",
                    "midi": 74,
                    "time": 27.08248399999999,
                    "velocity": 0.28346456692913385,
                    "duration": 0.30775549999999896
                },
                {
                    "name": "B5",
                    "midi": 83,
                    "time": 27.08248399999999,
                    "velocity": 0.28346456692913385,
                    "duration": 0.30775549999999896
                },
                {
                    "name": "D6",
                    "midi": 86,
                    "time": 27.08248399999999,
                    "velocity": 0.3779527559055118,
                    "duration": 0.30775549999999896
                },
                {
                    "name": "E5",
                    "midi": 76,
                    "time": 27.39023949999999,
                    "velocity": 0.29133858267716534,
                    "duration": 0.30775549999999896
                },
                {
                    "name": "C6",
                    "midi": 84,
                    "time": 27.39023949999999,
                    "velocity": 0.29133858267716534,
                    "duration": 0.30775549999999896
                },
                {
                    "name": "E6",
                    "midi": 88,
                    "time": 27.39023949999999,
                    "velocity": 0.3937007874015748,
                    "duration": 0.30775549999999896
                },
                {
                    "name": "G5",
                    "midi": 79,
                    "time": 27.697994999999988,
                    "velocity": 0.31496062992125984,
                    "duration": 0.6155110000000015
                },
                {
                    "name": "E6",
                    "midi": 88,
                    "time": 27.697994999999988,
                    "velocity": 0.31496062992125984,
                    "duration": 0.6155110000000015
                },
                {
                    "name": "G6",
                    "midi": 91,
                    "time": 27.697994999999988,
                    "velocity": 0.41732283464566927,
                    "duration": 0.6155110000000015
                },
                {
                    "name": "F5",
                    "midi": 77,
                    "time": 28.31350599999999,
                    "velocity": 0.30708661417322836,
                    "duration": 0.6155110000000015
                },
                {
                    "name": "D6",
                    "midi": 86,
                    "time": 28.31350599999999,
                    "velocity": 0.30708661417322836,
                    "duration": 0.6155110000000015
                },
                {
                    "name": "F6",
                    "midi": 89,
                    "time": 28.31350599999999,
                    "velocity": 0.4094488188976378,
                    "duration": 0.6155110000000015
                },
                {
                    "name": "E5",
                    "midi": 76,
                    "time": 28.92901699999999,
                    "velocity": 0.2677165354330709,
                    "duration": 0.30775549999999896
                },
                {
                    "name": "C6",
                    "midi": 84,
                    "time": 28.92901699999999,
                    "velocity": 0.2677165354330709,
                    "duration": 0.30775549999999896
                },
                {
                    "name": "E6",
                    "midi": 88,
                    "time": 28.92901699999999,
                    "velocity": 0.3464566929133858,
                    "duration": 0.30775549999999896
                },
                {
                    "name": "D5",
                    "midi": 74,
                    "time": 29.23677249999999,
                    "velocity": 0.28346456692913385,
                    "duration": 0.30775549999999896
                },
                {
                    "name": "B5",
                    "midi": 83,
                    "time": 29.23677249999999,
                    "velocity": 0.28346456692913385,
                    "duration": 0.30775549999999896
                },
                {
                    "name": "D6",
                    "midi": 86,
                    "time": 29.23677249999999,
                    "velocity": 0.3779527559055118,
                    "duration": 0.30775549999999896
                },
                {
                    "name": "E5",
                    "midi": 76,
                    "time": 29.54452799999999,
                    "velocity": 0.31496062992125984,
                    "duration": 0.6155110000000015
                },
                {
                    "name": "C6",
                    "midi": 84,
                    "time": 29.54452799999999,
                    "velocity": 0.31496062992125984,
                    "duration": 0.6155110000000015
                },
                {
                    "name": "E6",
                    "midi": 88,
                    "time": 29.54452799999999,
                    "velocity": 0.41732283464566927,
                    "duration": 0.6155110000000015
                },
                {
                    "name": "C5",
                    "midi": 72,
                    "time": 30.16003899999999,
                    "velocity": 0.30708661417322836,
                    "duration": 0.15387774999999948
                },
                {
                    "name": "A5",
                    "midi": 81,
                    "time": 30.16003899999999,
                    "velocity": 0.30708661417322836,
                    "duration": 0.15387774999999948
                },
                {
                    "name": "C6",
                    "midi": 84,
                    "time": 30.16003899999999,
                    "velocity": 0.4094488188976378,
                    "duration": 0.15387774999999948
                },
                {
                    "name": "A4",
                    "midi": 69,
                    "time": 30.31391674999999,
                    "velocity": 0.25984251968503935,
                    "duration": 1.0771442500000035
                },
                {
                    "name": "D#5",
                    "midi": 75,
                    "time": 30.35238618749999,
                    "velocity": 0.2755905511811024,
                    "duration": 0.4231638125000039
                },
                {
                    "name": "F#5",
                    "midi": 78,
                    "time": 30.390855624999993,
                    "velocity": 0.28346456692913385,
                    "duration": 0.38469437500000225
                },
                {
                    "name": "B5",
                    "midi": 83,
                    "time": 30.429325062499995,
                    "velocity": 0.2992125984251969,
                    "duration": 0.038469437500001646
                },
                {
                    "name": "A5",
                    "midi": 81,
                    "time": 30.467794499999997,
                    "velocity": 0.3779527559055118,
                    "duration": 0.30775549999999896
                },
                {
                    "name": "G#4",
                    "midi": 68,
                    "time": 30.775549999999996,
                    "velocity": 0.2677165354330709,
                    "duration": 0.30775549999999896
                },
                {
                    "name": "G#5",
                    "midi": 80,
                    "time": 30.775549999999996,
                    "velocity": 0.3464566929133858,
                    "duration": 0.30775549999999896
                },
                {
                    "name": "A4",
                    "midi": 69,
                    "time": 31.083305499999994,
                    "velocity": 0.28346456692913385,
                    "duration": 0.30775549999999896
                },
                {
                    "name": "A5",
                    "midi": 81,
                    "time": 31.083305499999994,
                    "velocity": 0.3779527559055118,
                    "duration": 0.30775549999999896
                },
                {
                    "name": "B4",
                    "midi": 71,
                    "time": 31.391060999999993,
                    "velocity": 0.29133858267716534,
                    "duration": 0.9232664999999969
                },
                {
                    "name": "G#5",
                    "midi": 80,
                    "time": 31.391060999999993,
                    "velocity": 0.29133858267716534,
                    "duration": 0.9232664999999969
                },
                {
                    "name": "B5",
                    "midi": 83,
                    "time": 31.391060999999993,
                    "velocity": 0.3700787401574803,
                    "duration": 0.9232664999999969
                },
                {
                    "name": "E5",
                    "midi": 76,
                    "time": 32.31432749999999,
                    "velocity": 0.30708661417322836,
                    "duration": 0.9232664999999969
                },
                {
                    "name": "E6",
                    "midi": 88,
                    "time": 32.31432749999999,
                    "velocity": 0.4094488188976378,
                    "duration": 0.6155109999999979
                },
                {
                    "name": "G#5",
                    "midi": 80,
                    "time": 32.31432749999999,
                    "velocity": 0.30708661417322836,
                    "duration": 0.6155109999999979
                },
                {
                    "name": "C5",
                    "midi": 72,
                    "time": 32.92983849999999,
                    "velocity": 0.3464566929133858,
                    "duration": 0.30775549999999896
                },
                {
                    "name": "C6",
                    "midi": 84,
                    "time": 32.92983849999999,
                    "velocity": 0.3779527559055118,
                    "duration": 0.30775549999999896
                },
                {
                    "name": "A4",
                    "midi": 69,
                    "time": 33.23759399999999,
                    "velocity": 0.29133858267716534,
                    "duration": 0.6155109999999979
                },
                {
                    "name": "E5",
                    "midi": 76,
                    "time": 33.23759399999999,
                    "velocity": 0.29133858267716534,
                    "duration": 0.6155109999999979
                },
                {
                    "name": "A5",
                    "midi": 81,
                    "time": 33.23759399999999,
                    "velocity": 0.3779527559055118,
                    "duration": 0.6155109999999979
                },
                {
                    "name": "B4",
                    "midi": 71,
                    "time": 33.853104999999985,
                    "velocity": 0.2992125984251969,
                    "duration": 0.30775549999999896
                },
                {
                    "name": "G#5",
                    "midi": 80,
                    "time": 33.853104999999985,
                    "velocity": 0.2992125984251969,
                    "duration": 0.30775549999999896
                },
                {
                    "name": "B5",
                    "midi": 83,
                    "time": 33.853104999999985,
                    "velocity": 0.3937007874015748,
                    "duration": 0.30775549999999896
                },
                {
                    "name": "C5",
                    "midi": 72,
                    "time": 34.160860499999984,
                    "velocity": 0.28346456692913385,
                    "duration": 0.30775549999999896
                },
                {
                    "name": "A5",
                    "midi": 81,
                    "time": 34.160860499999984,
                    "velocity": 0.28346456692913385,
                    "duration": 0.30775549999999896
                },
                {
                    "name": "C6",
                    "midi": 84,
                    "time": 34.160860499999984,
                    "velocity": 0.36220472440944884,
                    "duration": 0.30775549999999896
                },
                {
                    "name": "D5",
                    "midi": 74,
                    "time": 34.46861599999998,
                    "velocity": 0.30708661417322836,
                    "duration": 0.30775549999999896
                },
                {
                    "name": "B5",
                    "midi": 83,
                    "time": 34.46861599999998,
                    "velocity": 0.30708661417322836,
                    "duration": 0.30775549999999896
                },
                {
                    "name": "D6",
                    "midi": 86,
                    "time": 34.46861599999998,
                    "velocity": 0.4094488188976378,
                    "duration": 0.30775549999999896
                },
                {
                    "name": "E5",
                    "midi": 76,
                    "time": 34.77637149999998,
                    "velocity": 0.31496062992125984,
                    "duration": 0.30775549999999896
                },
                {
                    "name": "C6",
                    "midi": 84,
                    "time": 34.77637149999998,
                    "velocity": 0.31496062992125984,
                    "duration": 0.30775549999999896
                },
                {
                    "name": "E6",
                    "midi": 88,
                    "time": 34.77637149999998,
                    "velocity": 0.4330708661417323,
                    "duration": 0.30775549999999896
                },
                {
                    "name": "G5",
                    "midi": 79,
                    "time": 35.08412699999998,
                    "velocity": 0.3700787401574803,
                    "duration": 0.30775549999999896
                },
                {
                    "name": "D6",
                    "midi": 86,
                    "time": 35.08412699999998,
                    "velocity": 0.3700787401574803,
                    "duration": 0.30775549999999896
                },
                {
                    "name": "G6",
                    "midi": 91,
                    "time": 35.08412699999998,
                    "velocity": 0.4566929133858268,
                    "duration": 1.2310219999999958
                },
                {
                    "name": "F5",
                    "midi": 77,
                    "time": 35.39188249999998,
                    "velocity": 0.4015748031496063,
                    "duration": 0.46163324999999844
                },
                {
                    "name": "E5",
                    "midi": 76,
                    "time": 35.85351574999998,
                    "velocity": 0.3779527559055118,
                    "duration": 0.15387774999999948
                },
                {
                    "name": "E5",
                    "midi": 76,
                    "time": 36.00739349999998,
                    "velocity": 0.4015748031496063,
                    "duration": 1.2310219999999958
                },
                {
                    "name": "D6",
                    "midi": 86,
                    "time": 36.31514899999998,
                    "velocity": 0.31496062992125984,
                    "duration": 0.46163324999999844
                },
                {
                    "name": "F6",
                    "midi": 89,
                    "time": 36.31514899999998,
                    "velocity": 0.4094488188976378,
                    "duration": 0.46163324999999844
                },
                {
                    "name": "C6",
                    "midi": 84,
                    "time": 36.776782249999975,
                    "velocity": 0.30708661417322836,
                    "duration": 0.1461838625000027
                },
                {
                    "name": "E6",
                    "midi": 88,
                    "time": 36.776782249999975,
                    "velocity": 0.4094488188976378,
                    "duration": 0.1461838625000027
                },
                {
                    "name": "C6",
                    "midi": 84,
                    "time": 36.930659999999975,
                    "velocity": 0.3464566929133858,
                    "duration": 0.30775549999999896
                },
                {
                    "name": "E6",
                    "midi": 88,
                    "time": 36.930659999999975,
                    "velocity": 0.4566929133858268,
                    "duration": 0.30775549999999896
                },
                {
                    "name": "D5",
                    "midi": 74,
                    "time": 37.238415499999974,
                    "velocity": 0.31496062992125984,
                    "duration": 0.46163324999999844
                },
                {
                    "name": "B5",
                    "midi": 83,
                    "time": 37.238415499999974,
                    "velocity": 0.31496062992125984,
                    "duration": 0.46163324999999844
                },
                {
                    "name": "D6",
                    "midi": 86,
                    "time": 37.238415499999974,
                    "velocity": 0.41732283464566927,
                    "duration": 0.46163324999999844
                },
                {
                    "name": "C5",
                    "midi": 72,
                    "time": 37.70004874999997,
                    "velocity": 0.30708661417322836,
                    "duration": 0.1461838625000027
                },
                {
                    "name": "A5",
                    "midi": 81,
                    "time": 37.70004874999997,
                    "velocity": 0.30708661417322836,
                    "duration": 0.1461838625000027
                },
                {
                    "name": "C6",
                    "midi": 84,
                    "time": 37.70004874999997,
                    "velocity": 0.4094488188976378,
                    "duration": 0.1461838625000027
                },
                {
                    "name": "C5",
                    "midi": 72,
                    "time": 37.85392649999997,
                    "velocity": 0.28346456692913385,
                    "duration": 0.30775549999999896
                },
                {
                    "name": "A5",
                    "midi": 81,
                    "time": 37.85392649999997,
                    "velocity": 0.28346456692913385,
                    "duration": 0.30775549999999896
                },
                {
                    "name": "C6",
                    "midi": 84,
                    "time": 37.85392649999997,
                    "velocity": 0.33070866141732286,
                    "duration": 0.30775549999999896
                },
                {
                    "name": "B4",
                    "midi": 71,
                    "time": 38.16168199999997,
                    "velocity": 0.2677165354330709,
                    "duration": 0.46163324999999844
                },
                {
                    "name": "G#5",
                    "midi": 80,
                    "time": 38.16168199999997,
                    "velocity": 0.2677165354330709,
                    "duration": 0.46163324999999844
                },
                {
                    "name": "B5",
                    "midi": 83,
                    "time": 38.16168199999997,
                    "velocity": 0.3464566929133858,
                    "duration": 0.46163324999999844
                },
                {
                    "name": "A4",
                    "midi": 69,
                    "time": 38.62331524999997,
                    "velocity": 0.2677165354330709,
                    "duration": 0.1461838625000027
                },
                {
                    "name": "A5",
                    "midi": 81,
                    "time": 38.62331524999997,
                    "velocity": 0.3228346456692913,
                    "duration": 0.1461838625000027
                },
                {
                    "name": "A4",
                    "midi": 69,
                    "time": 38.77719299999997,
                    "velocity": 0.25196850393700787,
                    "duration": 0.9232664999999969
                },
                {
                    "name": "A5",
                    "midi": 81,
                    "time": 38.77719299999997,
                    "velocity": 0.29133858267716534,
                    "duration": 0.9232664999999969
                },
                {
                    "name": "D#4",
                    "midi": 63,
                    "time": 39.700459499999965,
                    "velocity": 0.30708661417322836,
                    "duration": 0.30775549999999896
                },
                {
                    "name": "F#4",
                    "midi": 66,
                    "time": 39.700459499999965,
                    "velocity": 0.36220472440944884,
                    "duration": 0.30775549999999896
                },
                {
                    "name": "E4",
                    "midi": 64,
                    "time": 40.008214999999964,
                    "velocity": 0.31496062992125984,
                    "duration": 0.30775549999999896
                },
                {
                    "name": "G#4",
                    "midi": 68,
                    "time": 40.008214999999964,
                    "velocity": 0.3779527559055118,
                    "duration": 0.30775549999999896
                },
                {
                    "name": "F#4",
                    "midi": 66,
                    "time": 40.31597049999996,
                    "velocity": 0.33070866141732286,
                    "duration": 0.30775549999999896
                },
                {
                    "name": "A4",
                    "midi": 69,
                    "time": 40.31597049999996,
                    "velocity": 0.3937007874015748,
                    "duration": 0.30775549999999896
                },
                {
                    "name": "G#4",
                    "midi": 68,
                    "time": 40.62372599999996,
                    "velocity": 0.3464566929133858,
                    "duration": 0.30775549999999896
                },
                {
                    "name": "B4",
                    "midi": 71,
                    "time": 40.62372599999996,
                    "velocity": 0.4094488188976378,
                    "duration": 0.30775549999999896
                },
                {
                    "name": "E5",
                    "midi": 76,
                    "time": 40.93148149999996,
                    "velocity": 0.3937007874015748,
                    "duration": 0.30775549999999896
                },
                {
                    "name": "G#4",
                    "midi": 68,
                    "time": 41.23923699999996,
                    "velocity": 0.33070866141732286,
                    "duration": 0.23081662500000277
                },
                {
                    "name": "B4",
                    "midi": 71,
                    "time": 41.23923699999996,
                    "velocity": 0.3937007874015748,
                    "duration": 0.23081662500000277
                },
                {
                    "name": "G#4",
                    "midi": 68,
                    "time": 41.47005362499996,
                    "velocity": 0.2755905511811024,
                    "duration": 0.07693887500000329
                },
                {
                    "name": "B4",
                    "midi": 71,
                    "time": 41.47005362499996,
                    "velocity": 0.33070866141732286,
                    "duration": 0.07693887500000329
                },
                {
                    "name": "F#4",
                    "midi": 66,
                    "time": 41.546992499999966,
                    "velocity": 0.33858267716535434,
                    "duration": 0.30775549999999896
                },
                {
                    "name": "A4",
                    "midi": 69,
                    "time": 41.546992499999966,
                    "velocity": 0.4015748031496063,
                    "duration": 0.30775549999999896
                },
                {
                    "name": "E4",
                    "midi": 64,
                    "time": 41.854747999999965,
                    "velocity": 0.31496062992125984,
                    "duration": 0.30775549999999896
                },
                {
                    "name": "G#4",
                    "midi": 68,
                    "time": 41.854747999999965,
                    "velocity": 0.3779527559055118,
                    "duration": 0.30775549999999896
                },
                {
                    "name": "D#4",
                    "midi": 63,
                    "time": 42.162503499999964,
                    "velocity": 0.31496062992125984,
                    "duration": 0.30775549999999896
                },
                {
                    "name": "F#4",
                    "midi": 66,
                    "time": 42.162503499999964,
                    "velocity": 0.3779527559055118,
                    "duration": 0.30775549999999896
                },
                {
                    "name": "G#4",
                    "midi": 68,
                    "time": 42.47025899999996,
                    "velocity": 0.3464566929133858,
                    "duration": 0.6155109999999979
                },
                {
                    "name": "B4",
                    "midi": 71,
                    "time": 42.47025899999996,
                    "velocity": 0.4094488188976378,
                    "duration": 0.6155109999999979
                },
                {
                    "name": "E4",
                    "midi": 64,
                    "time": 43.08576999999996,
                    "velocity": 0.3228346456692913,
                    "duration": 0.30775549999999896
                },
                {
                    "name": "G#4",
                    "midi": 68,
                    "time": 43.08576999999996,
                    "velocity": 0.3858267716535433,
                    "duration": 0.30775549999999896
                },
                {
                    "name": "D#4",
                    "midi": 63,
                    "time": 43.39352549999996,
                    "velocity": 0.30708661417322836,
                    "duration": 0.30775549999999896
                },
                {
                    "name": "F#4",
                    "midi": 66,
                    "time": 43.39352549999996,
                    "velocity": 0.36220472440944884,
                    "duration": 0.30775549999999896
                },
                {
                    "name": "E4",
                    "midi": 64,
                    "time": 43.70128099999996,
                    "velocity": 0.31496062992125984,
                    "duration": 0.30775549999999896
                },
                {
                    "name": "G#4",
                    "midi": 68,
                    "time": 43.70128099999996,
                    "velocity": 0.3779527559055118,
                    "duration": 0.30775549999999896
                },
                {
                    "name": "F#4",
                    "midi": 66,
                    "time": 44.00903649999996,
                    "velocity": 0.33070866141732286,
                    "duration": 0.30775549999999896
                },
                {
                    "name": "A4",
                    "midi": 69,
                    "time": 44.00903649999996,
                    "velocity": 0.3937007874015748,
                    "duration": 0.30775549999999896
                },
                {
                    "name": "G#4",
                    "midi": 68,
                    "time": 44.31679199999996,
                    "velocity": 0.3464566929133858,
                    "duration": 0.30775549999999896
                },
                {
                    "name": "B4",
                    "midi": 71,
                    "time": 44.31679199999996,
                    "velocity": 0.4094488188976378,
                    "duration": 0.30775549999999896
                },
                {
                    "name": "E5",
                    "midi": 76,
                    "time": 44.624547499999956,
                    "velocity": 0.3937007874015748,
                    "duration": 0.30775549999999896
                },
                {
                    "name": "G#4",
                    "midi": 68,
                    "time": 44.932302999999955,
                    "velocity": 0.33070866141732286,
                    "duration": 0.23081662500000277
                },
                {
                    "name": "B4",
                    "midi": 71,
                    "time": 44.932302999999955,
                    "velocity": 0.3937007874015748,
                    "duration": 0.23081662500000277
                },
                {
                    "name": "G#4",
                    "midi": 68,
                    "time": 45.16311962499996,
                    "velocity": 0.2755905511811024,
                    "duration": 0.07693887500000329
                },
                {
                    "name": "B4",
                    "midi": 71,
                    "time": 45.16311962499996,
                    "velocity": 0.33070866141732286,
                    "duration": 0.07693887500000329
                },
                {
                    "name": "F#4",
                    "midi": 66,
                    "time": 45.24005849999996,
                    "velocity": 0.33858267716535434,
                    "duration": 0.30775549999999896
                },
                {
                    "name": "A4",
                    "midi": 69,
                    "time": 45.24005849999996,
                    "velocity": 0.4015748031496063,
                    "duration": 0.30775549999999896
                },
                {
                    "name": "E4",
                    "midi": 64,
                    "time": 45.54781399999996,
                    "velocity": 0.31496062992125984,
                    "duration": 0.30775549999999896
                },
                {
                    "name": "G#4",
                    "midi": 68,
                    "time": 45.54781399999996,
                    "velocity": 0.3779527559055118,
                    "duration": 0.30775549999999896
                },
                {
                    "name": "D#4",
                    "midi": 63,
                    "time": 45.85556949999996,
                    "velocity": 0.31496062992125984,
                    "duration": 0.30775549999999896
                },
                {
                    "name": "F#4",
                    "midi": 66,
                    "time": 45.85556949999996,
                    "velocity": 0.3779527559055118,
                    "duration": 0.30775549999999896
                },
                {
                    "name": "G#4",
                    "midi": 68,
                    "time": 46.16332499999996,
                    "velocity": 0.3464566929133858,
                    "duration": 1.8465330000000009
                },
                {
                    "name": "B4",
                    "midi": 71,
                    "time": 46.16332499999996,
                    "velocity": 0.4094488188976378,
                    "duration": 1.8465330000000009
                },
                {
                    "name": "G4",
                    "midi": 67,
                    "time": 48.00985799999996,
                    "velocity": 0.4251968503937008,
                    "duration": 0.9232664999999969
                },
                {
                    "name": "C#5",
                    "midi": 73,
                    "time": 48.00985799999996,
                    "velocity": 0.5039370078740157,
                    "duration": 0.9232664999999969
                },
                {
                    "name": "F#4",
                    "midi": 66,
                    "time": 48.933124499999956,
                    "velocity": 0.44881889763779526,
                    "duration": 0.9232664999999969
                },
                {
                    "name": "D5",
                    "midi": 74,
                    "time": 48.933124499999956,
                    "velocity": 0.5354330708661418,
                    "duration": 0.9232664999999969
                },
                {
                    "name": "A4",
                    "midi": 69,
                    "time": 49.85639099999995,
                    "velocity": 0.4881889763779528,
                    "duration": 0.9232664999999969
                },
                {
                    "name": "D#5",
                    "midi": 75,
                    "time": 49.85639099999995,
                    "velocity": 0.5748031496062992,
                    "duration": 0.9232664999999969
                },
                {
                    "name": "A4",
                    "midi": 69,
                    "time": 50.77965749999995,
                    "velocity": 0.5118110236220472,
                    "duration": 0.9232664999999969
                },
                {
                    "name": "C5",
                    "midi": 72,
                    "time": 50.77965749999995,
                    "velocity": 0.5118110236220472,
                    "duration": 0.9232664999999969
                },
                {
                    "name": "E5",
                    "midi": 76,
                    "time": 50.77965749999995,
                    "velocity": 0.6062992125984252,
                    "duration": 0.9232664999999969
                },
                {
                    "name": "A#4",
                    "midi": 70,
                    "time": 51.702923999999946,
                    "velocity": 0.5433070866141733,
                    "duration": 0.9232664999999969
                },
                {
                    "name": "E5",
                    "midi": 76,
                    "time": 51.702923999999946,
                    "velocity": 0.5433070866141733,
                    "duration": 0.9232664999999969
                },
                {
                    "name": "G5",
                    "midi": 79,
                    "time": 51.702923999999946,
                    "velocity": 0.6456692913385826,
                    "duration": 0.9232664999999969
                },
                {
                    "name": "A#4",
                    "midi": 70,
                    "time": 52.62619049999994,
                    "velocity": 0.5748031496062992,
                    "duration": 0.9232664999999969
                },
                {
                    "name": "D5",
                    "midi": 74,
                    "time": 52.62619049999994,
                    "velocity": 0.5748031496062992,
                    "duration": 0.9232664999999969
                },
                {
                    "name": "F5",
                    "midi": 77,
                    "time": 52.62619049999994,
                    "velocity": 0.6771653543307087,
                    "duration": 0.9232664999999969
                },
                {
                    "name": "A4",
                    "midi": 69,
                    "time": 53.54945699999994,
                    "velocity": 0.5590551181102362,
                    "duration": 1.8465330000000009
                },
                {
                    "name": "C5",
                    "midi": 72,
                    "time": 53.54945699999994,
                    "velocity": 0.5590551181102362,
                    "duration": 1.8465330000000009
                },
                {
                    "name": "D#5",
                    "midi": 75,
                    "time": 53.54945699999994,
                    "velocity": 0.6062992125984252,
                    "duration": 1.8465330000000009
                },
                {
                    "name": "F#5",
                    "midi": 78,
                    "time": 53.54945699999994,
                    "velocity": 0.6377952755905512,
                    "duration": 1.8465330000000009
                },
                {
                    "name": "A5",
                    "midi": 81,
                    "time": 53.54945699999994,
                    "velocity": 0.7165354330708661,
                    "duration": 1.8465330000000009
                },
                {
                    "name": "A2",
                    "midi": 45,
                    "time": 55.39598999999994,
                    "velocity": 0.6929133858267716,
                    "duration": 0.9232664999999969
                },
                {
                    "name": "D#2",
                    "midi": 39,
                    "time": 56.31925649999994,
                    "velocity": 0.6141732283464567,
                    "duration": 0.6155109999999979
                },
                {
                    "name": "E5",
                    "midi": 76,
                    "time": 58.16578949999994,
                    "velocity": 0.3464566929133858,
                    "duration": 0.6155109999999979
                },
                {
                    "name": "C5",
                    "midi": 72,
                    "time": 58.16578949999994,
                    "velocity": 0.2755905511811024,
                    "duration": 0.6155109999999979
                },
                {
                    "name": "A4",
                    "midi": 69,
                    "time": 58.78130049999994,
                    "velocity": 0.25984251968503935,
                    "duration": 0.30775549999999896
                },
                {
                    "name": "C5",
                    "midi": 72,
                    "time": 58.78130049999994,
                    "velocity": 0.31496062992125984,
                    "duration": 0.30775549999999896
                },
                {
                    "name": "E4",
                    "midi": 64,
                    "time": 59.089055999999935,
                    "velocity": 0.2440944881889764,
                    "duration": 0.6155109999999979
                },
                {
                    "name": "A4",
                    "midi": 69,
                    "time": 59.089055999999935,
                    "velocity": 0.2992125984251969,
                    "duration": 0.6155109999999979
                },
                {
                    "name": "G#4",
                    "midi": 68,
                    "time": 59.70456699999993,
                    "velocity": 0.2677165354330709,
                    "duration": 0.30775549999999896
                },
                {
                    "name": "B4",
                    "midi": 71,
                    "time": 59.70456699999993,
                    "velocity": 0.33070866141732286,
                    "duration": 0.30775549999999896
                },
                {
                    "name": "A4",
                    "midi": 69,
                    "time": 60.01232249999993,
                    "velocity": 0.25196850393700787,
                    "duration": 0.30775549999999896
                },
                {
                    "name": "C5",
                    "midi": 72,
                    "time": 60.01232249999993,
                    "velocity": 0.30708661417322836,
                    "duration": 0.30775549999999896
                },
                {
                    "name": "B4",
                    "midi": 71,
                    "time": 60.32007799999993,
                    "velocity": 0.2755905511811024,
                    "duration": 0.30775549999999896
                },
                {
                    "name": "D5",
                    "midi": 74,
                    "time": 60.32007799999993,
                    "velocity": 0.3464566929133858,
                    "duration": 0.30775549999999896
                },
                {
                    "name": "C5",
                    "midi": 72,
                    "time": 60.62783349999993,
                    "velocity": 0.28346456692913385,
                    "duration": 0.30775549999999896
                },
                {
                    "name": "E5",
                    "midi": 76,
                    "time": 60.62783349999993,
                    "velocity": 0.36220472440944884,
                    "duration": 0.30775549999999896
                },
                {
                    "name": "E4",
                    "midi": 64,
                    "time": 60.93558899999993,
                    "velocity": 0.2440944881889764,
                    "duration": 0.6155109999999979
                },
                {
                    "name": "A4",
                    "midi": 69,
                    "time": 60.93558899999993,
                    "velocity": 0.2992125984251969,
                    "duration": 0.6155109999999979
                },
                {
                    "name": "G#4",
                    "midi": 68,
                    "time": 61.55109999999993,
                    "velocity": 0.2677165354330709,
                    "duration": 0.30775549999999896
                },
                {
                    "name": "B4",
                    "midi": 71,
                    "time": 61.55109999999993,
                    "velocity": 0.33070866141732286,
                    "duration": 0.30775549999999896
                },
                {
                    "name": "A4",
                    "midi": 69,
                    "time": 61.858855499999926,
                    "velocity": 0.25196850393700787,
                    "duration": 0.30775549999999896
                },
                {
                    "name": "C5",
                    "midi": 72,
                    "time": 61.858855499999926,
                    "velocity": 0.30708661417322836,
                    "duration": 0.30775549999999896
                },
                {
                    "name": "B4",
                    "midi": 71,
                    "time": 62.166610999999925,
                    "velocity": 0.2755905511811024,
                    "duration": 0.30775549999999896
                },
                {
                    "name": "D5",
                    "midi": 74,
                    "time": 62.166610999999925,
                    "velocity": 0.3464566929133858,
                    "duration": 0.30775549999999896
                },
                {
                    "name": "C5",
                    "midi": 72,
                    "time": 62.474366499999924,
                    "velocity": 0.28346456692913385,
                    "duration": 0.6155109999999979
                },
                {
                    "name": "E5",
                    "midi": 76,
                    "time": 62.474366499999924,
                    "velocity": 0.36220472440944884,
                    "duration": 0.6155109999999979
                },
                {
                    "name": "B4",
                    "midi": 71,
                    "time": 63.08987749999992,
                    "velocity": 0.30708661417322836,
                    "duration": 0.46163324999999844
                },
                {
                    "name": "D5",
                    "midi": 74,
                    "time": 63.08987749999992,
                    "velocity": 0.3858267716535433,
                    "duration": 0.46163324999999844
                },
                {
                    "name": "A4",
                    "midi": 69,
                    "time": 63.55151074999992,
                    "velocity": 0.2992125984251969,
                    "duration": 0.15387774999999948
                },
                {
                    "name": "C5",
                    "midi": 72,
                    "time": 63.55151074999992,
                    "velocity": 0.3779527559055118,
                    "duration": 0.15387774999999948
                },
                {
                    "name": "A4",
                    "midi": 69,
                    "time": 63.70538849999992,
                    "velocity": 0.2755905511811024,
                    "duration": 0.30775550000000607
                },
                {
                    "name": "C5",
                    "midi": 72,
                    "time": 63.70538849999992,
                    "velocity": 0.30708661417322836,
                    "duration": 0.30775550000000607
                },
                {
                    "name": "G#4",
                    "midi": 68,
                    "time": 64.01314399999993,
                    "velocity": 0.25984251968503935,
                    "duration": 0.46163325000000555
                },
                {
                    "name": "B4",
                    "midi": 71,
                    "time": 64.01314399999993,
                    "velocity": 0.31496062992125984,
                    "duration": 0.46163325000000555
                },
                {
                    "name": "A4",
                    "midi": 69,
                    "time": 64.47477724999993,
                    "velocity": 0.29133858267716534,
                    "duration": 0.15387775000000659
                },
                {
                    "name": "A4",
                    "midi": 69,
                    "time": 64.62865499999994,
                    "velocity": 0.29133858267716534,
                    "duration": 0.9232664999999969
                },
                {
                    "name": "D#4",
                    "midi": 63,
                    "time": 65.55192149999993,
                    "velocity": 0.2755905511811024,
                    "duration": 0.30775550000001317
                },
                {
                    "name": "F#4",
                    "midi": 66,
                    "time": 65.55192149999993,
                    "velocity": 0.3228346456692913,
                    "duration": 0.30775550000001317
                },
                {
                    "name": "E4",
                    "midi": 64,
                    "time": 65.70579924999994,
                    "velocity": 0.2125984251968504,
                    "duration": 0.30775550000001317
                },
                {
                    "name": "G#4",
                    "midi": 68,
                    "time": 65.85967699999995,
                    "velocity": 0.33858267716535434,
                    "duration": 0.30775550000001317
                },
                {
                    "name": "E4",
                    "midi": 64,
                    "time": 66.01355474999995,
                    "velocity": 0.2125984251968504,
                    "duration": 0.30775550000001317
                },
                {
                    "name": "F#4",
                    "midi": 66,
                    "time": 66.16743249999996,
                    "velocity": 0.29133858267716534,
                    "duration": 0.30775550000001317
                },
                {
                    "name": "A4",
                    "midi": 69,
                    "time": 66.16743249999996,
                    "velocity": 0.3543307086614173,
                    "duration": 0.30775550000001317
                },
                {
                    "name": "E4",
                    "midi": 64,
                    "time": 66.32131024999997,
                    "velocity": 0.2125984251968504,
                    "duration": 0.30775550000001317
                },
                {
                    "name": "G#4",
                    "midi": 68,
                    "time": 66.47518799999997,
                    "velocity": 0.30708661417322836,
                    "duration": 0.30775550000001317
                },
                {
                    "name": "B4",
                    "midi": 71,
                    "time": 66.47518799999997,
                    "velocity": 0.36220472440944884,
                    "duration": 0.30775550000001317
                },
                {
                    "name": "E4",
                    "midi": 64,
                    "time": 66.62906574999998,
                    "velocity": 0.2440944881889764,
                    "duration": 0.30775550000001317
                },
                {
                    "name": "E5",
                    "midi": 76,
                    "time": 66.78294349999999,
                    "velocity": 0.3543307086614173,
                    "duration": 0.30775550000001317
                },
                {
                    "name": "E4",
                    "midi": 64,
                    "time": 66.93682125,
                    "velocity": 0.2440944881889764,
                    "duration": 0.30775550000001317
                },
                {
                    "name": "G#4",
                    "midi": 68,
                    "time": 67.090699,
                    "velocity": 0.29133858267716534,
                    "duration": 0.23081662500000277
                },
                {
                    "name": "B4",
                    "midi": 71,
                    "time": 67.090699,
                    "velocity": 0.3543307086614173,
                    "duration": 0.23081662500000277
                },
                {
                    "name": "E4",
                    "midi": 64,
                    "time": 67.24457675000001,
                    "velocity": 0.2440944881889764,
                    "duration": 0.30775549999999896
                },
                {
                    "name": "G#4",
                    "midi": 68,
                    "time": 67.321515625,
                    "velocity": 0.2440944881889764,
                    "duration": 0.07693887499999619
                },
                {
                    "name": "B4",
                    "midi": 71,
                    "time": 67.321515625,
                    "velocity": 0.29133858267716534,
                    "duration": 0.07693887499999619
                },
                {
                    "name": "F#4",
                    "midi": 66,
                    "time": 67.3984545,
                    "velocity": 0.2992125984251969,
                    "duration": 0.30775550000001317
                },
                {
                    "name": "A4",
                    "midi": 69,
                    "time": 67.3984545,
                    "velocity": 0.3543307086614173,
                    "duration": 0.30775550000001317
                },
                {
                    "name": "E4",
                    "midi": 64,
                    "time": 67.55233225,
                    "velocity": 0.2204724409448819,
                    "duration": 0.30775550000001317
                },
                {
                    "name": "G#4",
                    "midi": 68,
                    "time": 67.70621000000001,
                    "velocity": 0.33858267716535434,
                    "duration": 0.30775550000001317
                },
                {
                    "name": "E4",
                    "midi": 64,
                    "time": 67.86008775000002,
                    "velocity": 0.2204724409448819,
                    "duration": 0.30775550000001317
                },
                {
                    "name": "D#4",
                    "midi": 63,
                    "time": 68.01396550000003,
                    "velocity": 0.28346456692913385,
                    "duration": 0.30775550000001317
                },
                {
                    "name": "F#4",
                    "midi": 66,
                    "time": 68.01396550000003,
                    "velocity": 0.33858267716535434,
                    "duration": 0.30775550000001317
                },
                {
                    "name": "E4",
                    "midi": 64,
                    "time": 68.16784325000003,
                    "velocity": 0.2204724409448819,
                    "duration": 0.30775550000001317
                },
                {
                    "name": "G#4",
                    "midi": 68,
                    "time": 68.32172100000004,
                    "velocity": 0.30708661417322836,
                    "duration": 0.6155110000000121
                },
                {
                    "name": "B4",
                    "midi": 71,
                    "time": 68.32172100000004,
                    "velocity": 0.36220472440944884,
                    "duration": 0.6155110000000121
                },
                {
                    "name": "E4",
                    "midi": 64,
                    "time": 68.47559875000005,
                    "velocity": 0.2204724409448819,
                    "duration": 0.30775549999999896
                },
                {
                    "name": "E4",
                    "midi": 64,
                    "time": 68.78335425000004,
                    "velocity": 0.2283464566929134,
                    "duration": 0.30775550000001317
                },
                {
                    "name": "G#4",
                    "midi": 68,
                    "time": 68.93723200000005,
                    "velocity": 0.3464566929133858,
                    "duration": 0.30775550000001317
                },
                {
                    "name": "E4",
                    "midi": 64,
                    "time": 69.09110975000006,
                    "velocity": 0.2204724409448819,
                    "duration": 0.30775550000001317
                },
                {
                    "name": "D#4",
                    "midi": 63,
                    "time": 69.24498750000006,
                    "velocity": 0.2755905511811024,
                    "duration": 0.30775550000001317
                },
                {
                    "name": "F#4",
                    "midi": 66,
                    "time": 69.24498750000006,
                    "velocity": 0.3228346456692913,
                    "duration": 0.30775550000001317
                },
                {
                    "name": "E4",
                    "midi": 64,
                    "time": 69.39886525000007,
                    "velocity": 0.2204724409448819,
                    "duration": 0.30775550000001317
                },
                {
                    "name": "G#4",
                    "midi": 68,
                    "time": 69.55274300000008,
                    "velocity": 0.33858267716535434,
                    "duration": 0.30775550000001317
                },
                {
                    "name": "E4",
                    "midi": 64,
                    "time": 69.70662075000008,
                    "velocity": 0.2125984251968504,
                    "duration": 0.30775550000001317
                },
                {
                    "name": "F#4",
                    "midi": 66,
                    "time": 69.86049850000009,
                    "velocity": 0.29133858267716534,
                    "duration": 0.30775550000001317
                },
                {
                    "name": "A4",
                    "midi": 69,
                    "time": 69.86049850000009,
                    "velocity": 0.3543307086614173,
                    "duration": 0.30775550000001317
                },
                {
                    "name": "E4",
                    "midi": 64,
                    "time": 70.0143762500001,
                    "velocity": 0.2125984251968504,
                    "duration": 0.30775550000001317
                },
                {
                    "name": "G#4",
                    "midi": 68,
                    "time": 70.1682540000001,
                    "velocity": 0.30708661417322836,
                    "duration": 0.30775550000001317
                },
                {
                    "name": "B4",
                    "midi": 71,
                    "time": 70.1682540000001,
                    "velocity": 0.36220472440944884,
                    "duration": 0.30775550000001317
                },
                {
                    "name": "E4",
                    "midi": 64,
                    "time": 70.32213175000011,
                    "velocity": 0.2125984251968504,
                    "duration": 0.30775550000001317
                },
                {
                    "name": "E5",
                    "midi": 76,
                    "time": 70.47600950000012,
                    "velocity": 0.3543307086614173,
                    "duration": 0.30775550000001317
                },
                {
                    "name": "E4",
                    "midi": 64,
                    "time": 70.62988725000012,
                    "velocity": 0.2125984251968504,
                    "duration": 0.30775550000001317
                },
                {
                    "name": "G#4",
                    "midi": 68,
                    "time": 70.78376500000013,
                    "velocity": 0.29133858267716534,
                    "duration": 0.23081662500000277
                },
                {
                    "name": "B4",
                    "midi": 71,
                    "time": 70.78376500000013,
                    "velocity": 0.3543307086614173,
                    "duration": 0.23081662500000277
                },
                {
                    "name": "E4",
                    "midi": 64,
                    "time": 70.93764275000014,
                    "velocity": 0.2440944881889764,
                    "duration": 0.30775549999999896
                },
                {
                    "name": "G#4",
                    "midi": 68,
                    "time": 71.01458162500013,
                    "velocity": 0.2440944881889764,
                    "duration": 0.07693887499999619
                },
                {
                    "name": "B4",
                    "midi": 71,
                    "time": 71.01458162500013,
                    "velocity": 0.29133858267716534,
                    "duration": 0.07693887499999619
                },
                {
                    "name": "F#4",
                    "midi": 66,
                    "time": 71.09152050000013,
                    "velocity": 0.2992125984251969,
                    "duration": 0.30775550000001317
                },
                {
                    "name": "A4",
                    "midi": 69,
                    "time": 71.09152050000013,
                    "velocity": 0.3543307086614173,
                    "duration": 0.30775550000001317
                },
                {
                    "name": "E4",
                    "midi": 64,
                    "time": 71.24539825000014,
                    "velocity": 0.23622047244094488,
                    "duration": 0.30775550000001317
                },
                {
                    "name": "G#4",
                    "midi": 68,
                    "time": 71.39927600000014,
                    "velocity": 0.33858267716535434,
                    "duration": 0.30775550000001317
                },
                {
                    "name": "E4",
                    "midi": 64,
                    "time": 71.55315375000015,
                    "velocity": 0.2283464566929134,
                    "duration": 0.30775550000001317
                },
                {
                    "name": "D#4",
                    "midi": 63,
                    "time": 71.70703150000016,
                    "velocity": 0.28346456692913385,
                    "duration": 0.30775550000001317
                },
                {
                    "name": "F#4",
                    "midi": 66,
                    "time": 71.70703150000016,
                    "velocity": 0.33858267716535434,
                    "duration": 0.30775550000001317
                },
                {
                    "name": "E4",
                    "midi": 64,
                    "time": 71.86090925000016,
                    "velocity": 0.2283464566929134,
                    "duration": 0.30775550000001317
                },
                {
                    "name": "G#4",
                    "midi": 68,
                    "time": 72.01478700000017,
                    "velocity": 0.3464566929133858,
                    "duration": 1.846533000000008
                },
                {
                    "name": "B4",
                    "midi": 71,
                    "time": 72.01478700000017,
                    "velocity": 0.4094488188976378,
                    "duration": 1.846533000000008
                },
                {
                    "name": "E4",
                    "midi": 64,
                    "time": 72.16866475000018,
                    "velocity": 0.2755905511811024,
                    "duration": 0.30775549999999896
                },
                {
                    "name": "E4",
                    "midi": 64,
                    "time": 72.47642025000017,
                    "velocity": 0.28346456692913385,
                    "duration": 0.30775549999999896
                },
                {
                    "name": "E4",
                    "midi": 64,
                    "time": 72.78417575000017,
                    "velocity": 0.2992125984251969,
                    "duration": 0.30775549999999896
                },
                {
                    "name": "E4",
                    "midi": 64,
                    "time": 73.09193125000017,
                    "velocity": 0.30708661417322836,
                    "duration": 0.30775549999999896
                },
                {
                    "name": "E4",
                    "midi": 64,
                    "time": 73.39968675000017,
                    "velocity": 0.3228346456692913,
                    "duration": 0.30775549999999896
                },
                {
                    "name": "E4",
                    "midi": 64,
                    "time": 73.70744225000017,
                    "velocity": 0.33070866141732286,
                    "duration": 0.30775550000001317
                },
                {
                    "name": "G4",
                    "midi": 67,
                    "time": 73.86132000000018,
                    "velocity": 0.4251968503937008,
                    "duration": 0.9232665000000111
                },
                {
                    "name": "C#5",
                    "midi": 73,
                    "time": 73.86132000000018,
                    "velocity": 0.5039370078740157,
                    "duration": 0.9232665000000111
                },
                {
                    "name": "E4",
                    "midi": 64,
                    "time": 74.01519775000018,
                    "velocity": 0.36220472440944884,
                    "duration": 0.30775549999999896
                },
                {
                    "name": "E4",
                    "midi": 64,
                    "time": 74.32295325000018,
                    "velocity": 0.3700787401574803,
                    "duration": 0.30775549999999896
                },
                {
                    "name": "E4",
                    "midi": 64,
                    "time": 74.63070875000018,
                    "velocity": 0.3779527559055118,
                    "duration": 0.15387775000000659
                },
                {
                    "name": "A4",
                    "midi": 69,
                    "time": 74.78458650000019,
                    "velocity": 0.44881889763779526,
                    "duration": 0.9232665000000111
                },
                {
                    "name": "D5",
                    "midi": 74,
                    "time": 74.78458650000019,
                    "velocity": 0.5354330708661418,
                    "duration": 0.9232665000000111
                },
                {
                    "name": "F#4",
                    "midi": 66,
                    "time": 74.9384642500002,
                    "velocity": 0.3779527559055118,
                    "duration": 0.30775549999999896
                },
                {
                    "name": "F#4",
                    "midi": 66,
                    "time": 75.2462197500002,
                    "velocity": 0.3858267716535433,
                    "duration": 0.30775549999999896
                },
                {
                    "name": "F#4",
                    "midi": 66,
                    "time": 75.55397525000019,
                    "velocity": 0.3937007874015748,
                    "duration": 0.30775550000001317
                },
                {
                    "name": "A4",
                    "midi": 69,
                    "time": 75.7078530000002,
                    "velocity": 0.4881889763779528,
                    "duration": 0.9232665000000111
                },
                {
                    "name": "D#5",
                    "midi": 75,
                    "time": 75.7078530000002,
                    "velocity": 0.5748031496062992,
                    "duration": 0.9232665000000111
                },
                {
                    "name": "F#4",
                    "midi": 66,
                    "time": 75.8617307500002,
                    "velocity": 0.3937007874015748,
                    "duration": 0.30775549999999896
                },
                {
                    "name": "F#4",
                    "midi": 66,
                    "time": 76.1694862500002,
                    "velocity": 0.4094488188976378,
                    "duration": 0.30775549999999896
                },
                {
                    "name": "F#4",
                    "midi": 66,
                    "time": 76.4772417500002,
                    "velocity": 0.4251968503937008,
                    "duration": 0.15387775000000659
                },
                {
                    "name": "C5",
                    "midi": 72,
                    "time": 76.63111950000021,
                    "velocity": 0.5118110236220472,
                    "duration": 0.9232665000000111
                },
                {
                    "name": "E5",
                    "midi": 76,
                    "time": 76.63111950000021,
                    "velocity": 0.6062992125984252,
                    "duration": 0.9232665000000111
                },
                {
                    "name": "A4",
                    "midi": 69,
                    "time": 76.78499725000022,
                    "velocity": 0.4251968503937008,
                    "duration": 0.30775549999999896
                },
                {
                    "name": "A4",
                    "midi": 69,
                    "time": 77.09275275000022,
                    "velocity": 0.4409448818897638,
                    "duration": 0.30775549999999896
                },
                {
                    "name": "A4",
                    "midi": 69,
                    "time": 77.40050825000021,
                    "velocity": 0.44881889763779526,
                    "duration": 0.15387775000000659
                },
                {
                    "name": "E5",
                    "midi": 76,
                    "time": 77.55438600000022,
                    "velocity": 0.5433070866141733,
                    "duration": 0.9232665000000111
                },
                {
                    "name": "G5",
                    "midi": 79,
                    "time": 77.55438600000022,
                    "velocity": 0.6456692913385826,
                    "duration": 0.9232665000000111
                },
                {
                    "name": "A#4",
                    "midi": 70,
                    "time": 77.70826375000023,
                    "velocity": 0.4645669291338583,
                    "duration": 0.30775549999999896
                },
                {
                    "name": "A#4",
                    "midi": 70,
                    "time": 78.01601925000023,
                    "velocity": 0.47244094488188976,
                    "duration": 0.30775549999999896
                },
                {
                    "name": "A#4",
                    "midi": 70,
                    "time": 78.32377475000023,
                    "velocity": 0.48031496062992124,
                    "duration": 0.30775550000001317
                },
                {
                    "name": "D5",
                    "midi": 74,
                    "time": 78.47765250000023,
                    "velocity": 0.5748031496062992,
                    "duration": 0.9232665000000111
                },
                {
                    "name": "F5",
                    "midi": 77,
                    "time": 78.47765250000023,
                    "velocity": 0.6771653543307087,
                    "duration": 0.9232665000000111
                },
                {
                    "name": "A#4",
                    "midi": 70,
                    "time": 78.63153025000024,
                    "velocity": 0.48031496062992124,
                    "duration": 0.30775549999999896
                },
                {
                    "name": "A#4",
                    "midi": 70,
                    "time": 78.93928575000024,
                    "velocity": 0.49606299212598426,
                    "duration": 0.30775549999999896
                },
                {
                    "name": "A#4",
                    "midi": 70,
                    "time": 79.24704125000024,
                    "velocity": 0.5039370078740157,
                    "duration": 0.15387775000000659
                },
                {
                    "name": "A4",
                    "midi": 69,
                    "time": 79.40091900000024,
                    "velocity": 0.5590551181102362,
                    "duration": 1.8465329999999938
                },
                {
                    "name": "C5",
                    "midi": 72,
                    "time": 79.40091900000024,
                    "velocity": 0.5590551181102362,
                    "duration": 1.8465329999999938
                },
                {
                    "name": "D#5",
                    "midi": 75,
                    "time": 79.40091900000024,
                    "velocity": 0.6062992125984252,
                    "duration": 1.8465329999999938
                },
                {
                    "name": "F#5",
                    "midi": 78,
                    "time": 79.40091900000024,
                    "velocity": 0.6141732283464567,
                    "duration": 1.8465329999999938
                },
                {
                    "name": "A5",
                    "midi": 81,
                    "time": 79.40091900000024,
                    "velocity": 0.7165354330708661,
                    "duration": 1.8465329999999938
                },
                {
                    "name": "A2",
                    "midi": 45,
                    "time": 81.24745200000024,
                    "velocity": 0.6929133858267716,
                    "duration": 0.9232664999999969
                },
                {
                    "name": "D#2",
                    "midi": 39,
                    "time": 82.17071850000023,
                    "velocity": 0.5984251968503937,
                    "duration": 0.6155109999999979
                },
                {
                    "name": "E5",
                    "midi": 76,
                    "time": 84.01725150000023,
                    "velocity": 0.36220472440944884,
                    "duration": 0.6155110000000121
                },
                {
                    "name": "C5",
                    "midi": 72,
                    "time": 84.01725150000023,
                    "velocity": 0.2992125984251969,
                    "duration": 0.6155110000000121
                },
                {
                    "name": "E4",
                    "midi": 64,
                    "time": 84.17112925000023,
                    "velocity": 0.23622047244094488,
                    "duration": 0.30775549999999896
                },
                {
                    "name": "E4",
                    "midi": 64,
                    "time": 84.47888475000023,
                    "velocity": 0.23622047244094488,
                    "duration": 0.30775550000001317
                },
                {
                    "name": "A4",
                    "midi": 69,
                    "time": 84.63276250000024,
                    "velocity": 0.28346456692913385,
                    "duration": 0.30775550000001317
                },
                {
                    "name": "C5",
                    "midi": 72,
                    "time": 84.63276250000024,
                    "velocity": 0.33070866141732286,
                    "duration": 0.30775550000001317
                },
                {
                    "name": "E4",
                    "midi": 64,
                    "time": 84.78664025000025,
                    "velocity": 0.2283464566929134,
                    "duration": 0.30775550000001317
                },
                {
                    "name": "A4",
                    "midi": 69,
                    "time": 84.94051800000025,
                    "velocity": 0.33070866141732286,
                    "duration": 0.6155110000000121
                },
                {
                    "name": "E4",
                    "midi": 64,
                    "time": 85.09439575000026,
                    "velocity": 0.23622047244094488,
                    "duration": 0.30775549999999896
                },
                {
                    "name": "E4",
                    "midi": 64,
                    "time": 85.40215125000026,
                    "velocity": 0.23622047244094488,
                    "duration": 0.30775550000001317
                },
                {
                    "name": "G#4",
                    "midi": 68,
                    "time": 85.55602900000027,
                    "velocity": 0.29133858267716534,
                    "duration": 0.30775550000001317
                },
                {
                    "name": "B4",
                    "midi": 71,
                    "time": 85.55602900000027,
                    "velocity": 0.3464566929133858,
                    "duration": 0.30775550000001317
                },
                {
                    "name": "E4",
                    "midi": 64,
                    "time": 85.70990675000027,
                    "velocity": 0.2283464566929134,
                    "duration": 0.30775550000001317
                },
                {
                    "name": "A4",
                    "midi": 69,
                    "time": 85.86378450000028,
                    "velocity": 0.2755905511811024,
                    "duration": 0.30775550000001317
                },
                {
                    "name": "C5",
                    "midi": 72,
                    "time": 85.86378450000028,
                    "velocity": 0.3228346456692913,
                    "duration": 0.30775550000001317
                },
                {
                    "name": "E4",
                    "midi": 64,
                    "time": 86.01766225000028,
                    "velocity": 0.23622047244094488,
                    "duration": 0.30775550000001317
                },
                {
                    "name": "B4",
                    "midi": 71,
                    "time": 86.17154000000029,
                    "velocity": 0.2992125984251969,
                    "duration": 0.30775550000001317
                },
                {
                    "name": "D5",
                    "midi": 74,
                    "time": 86.17154000000029,
                    "velocity": 0.36220472440944884,
                    "duration": 0.30775550000001317
                },
                {
                    "name": "E4",
                    "midi": 64,
                    "time": 86.3254177500003,
                    "velocity": 0.2440944881889764,
                    "duration": 0.30775550000001317
                },
                {
                    "name": "C5",
                    "midi": 72,
                    "time": 86.4792955000003,
                    "velocity": 0.30708661417322836,
                    "duration": 0.30775550000001317
                },
                {
                    "name": "E5",
                    "midi": 76,
                    "time": 86.4792955000003,
                    "velocity": 0.3779527559055118,
                    "duration": 0.30775550000001317
                },
                {
                    "name": "E4",
                    "midi": 64,
                    "time": 86.63317325000031,
                    "velocity": 0.23622047244094488,
                    "duration": 0.30775550000001317
                },
                {
                    "name": "A4",
                    "midi": 69,
                    "time": 86.78705100000032,
                    "velocity": 0.33070866141732286,
                    "duration": 0.6155110000000121
                },
                {
                    "name": "E4",
                    "midi": 64,
                    "time": 86.94092875000032,
                    "velocity": 0.2440944881889764,
                    "duration": 0.30775549999999896
                },
                {
                    "name": "E4",
                    "midi": 64,
                    "time": 87.24868425000032,
                    "velocity": 0.2283464566929134,
                    "duration": 0.30775550000001317
                },
                {
                    "name": "G#4",
                    "midi": 68,
                    "time": 87.40256200000033,
                    "velocity": 0.29133858267716534,
                    "duration": 0.30775550000001317
                },
                {
                    "name": "B4",
                    "midi": 71,
                    "time": 87.40256200000033,
                    "velocity": 0.3464566929133858,
                    "duration": 0.30775550000001317
                },
                {
                    "name": "E4",
                    "midi": 64,
                    "time": 87.55643975000034,
                    "velocity": 0.2283464566929134,
                    "duration": 0.30775550000001317
                },
                {
                    "name": "A4",
                    "midi": 69,
                    "time": 87.71031750000034,
                    "velocity": 0.2755905511811024,
                    "duration": 0.30775550000001317
                },
                {
                    "name": "C5",
                    "midi": 72,
                    "time": 87.71031750000034,
                    "velocity": 0.3228346456692913,
                    "duration": 0.30775550000001317
                },
                {
                    "name": "E4",
                    "midi": 64,
                    "time": 87.86419525000035,
                    "velocity": 0.23622047244094488,
                    "duration": 0.30775550000001317
                },
                {
                    "name": "B4",
                    "midi": 71,
                    "time": 88.01807300000036,
                    "velocity": 0.2992125984251969,
                    "duration": 0.30775550000001317
                },
                {
                    "name": "D5",
                    "midi": 74,
                    "time": 88.01807300000036,
                    "velocity": 0.36220472440944884,
                    "duration": 0.30775550000001317
                },
                {
                    "name": "E4",
                    "midi": 64,
                    "time": 88.17195075000036,
                    "velocity": 0.2440944881889764,
                    "duration": 0.30775550000001317
                },
                {
                    "name": "C5",
                    "midi": 72,
                    "time": 88.32582850000037,
                    "velocity": 0.30708661417322836,
                    "duration": 0.6155110000000121
                },
                {
                    "name": "E5",
                    "midi": 76,
                    "time": 88.32582850000037,
                    "velocity": 0.3779527559055118,
                    "duration": 0.6155110000000121
                },
                {
                    "name": "E4",
                    "midi": 64,
                    "time": 88.47970625000038,
                    "velocity": 0.25984251968503935,
                    "duration": 0.30775549999999896
                },
                {
                    "name": "E4",
                    "midi": 64,
                    "time": 88.78746175000038,
                    "velocity": 0.2677165354330709,
                    "duration": 0.30775550000001317
                },
                {
                    "name": "B4",
                    "midi": 71,
                    "time": 88.94133950000038,
                    "velocity": 0.33070866141732286,
                    "duration": 0.46163325000000555
                },
                {
                    "name": "D5",
                    "midi": 74,
                    "time": 88.94133950000038,
                    "velocity": 0.4015748031496063,
                    "duration": 0.46163325000000555
                },
                {
                    "name": "E4",
                    "midi": 64,
                    "time": 89.09521725000039,
                    "velocity": 0.2440944881889764,
                    "duration": 0.30775549999999896
                },
                {
                    "name": "A4",
                    "midi": 69,
                    "time": 89.40297275000039,
                    "velocity": 0.3228346456692913,
                    "duration": 0.1461838624999956
                },
                {
                    "name": "C5",
                    "midi": 72,
                    "time": 89.40297275000039,
                    "velocity": 0.3937007874015748,
                    "duration": 0.1461838624999956
                },
                {
                    "name": "A4",
                    "midi": 69,
                    "time": 89.55685050000038,
                    "velocity": 0.2755905511811024,
                    "duration": 0.30775549999999896
                },
                {
                    "name": "C5",
                    "midi": 72,
                    "time": 89.55685050000038,
                    "velocity": 0.2992125984251969,
                    "duration": 0.30775549999999896
                },
                {
                    "name": "G#4",
                    "midi": 68,
                    "time": 89.86460600000038,
                    "velocity": 0.25984251968503935,
                    "duration": 0.46163325000000555
                },
                {
                    "name": "B4",
                    "midi": 71,
                    "time": 89.86460600000038,
                    "velocity": 0.30708661417322836,
                    "duration": 0.46163325000000555
                },
                {
                    "name": "A4",
                    "midi": 69,
                    "time": 90.32623925000038,
                    "velocity": 0.29133858267716534,
                    "duration": 0.1461838624999956
                },
                {
                    "name": "A4",
                    "midi": 69,
                    "time": 90.48011700000038,
                    "velocity": 0.2677165354330709,
                    "duration": 0.9232664999999969
                },
                {
                    "name": "G#4",
                    "midi": 68,
                    "time": 91.40338350000037,
                    "velocity": 0.29133858267716534,
                    "duration": 0.30775549999999896
                },
                {
                    "name": "B4",
                    "midi": 71,
                    "time": 91.40338350000037,
                    "velocity": 0.36220472440944884,
                    "duration": 0.30775549999999896
                },
                {
                    "name": "A4",
                    "midi": 69,
                    "time": 91.71113900000037,
                    "velocity": 0.2992125984251969,
                    "duration": 0.30775549999999896
                },
                {
                    "name": "C#5",
                    "midi": 73,
                    "time": 91.71113900000037,
                    "velocity": 0.3779527559055118,
                    "duration": 0.30775549999999896
                },
                {
                    "name": "B4",
                    "midi": 71,
                    "time": 92.01889450000037,
                    "velocity": 0.30708661417322836,
                    "duration": 0.30775549999999896
                },
                {
                    "name": "D5",
                    "midi": 74,
                    "time": 92.01889450000037,
                    "velocity": 0.3937007874015748,
                    "duration": 0.30775549999999896
                },
                {
                    "name": "C#5",
                    "midi": 73,
                    "time": 92.32665000000037,
                    "velocity": 0.3228346456692913,
                    "duration": 0.30775549999999896
                },
                {
                    "name": "E5",
                    "midi": 76,
                    "time": 92.32665000000037,
                    "velocity": 0.4094488188976378,
                    "duration": 0.30775549999999896
                },
                {
                    "name": "A5",
                    "midi": 81,
                    "time": 92.63440550000037,
                    "velocity": 0.3937007874015748,
                    "duration": 0.30775549999999896
                },
                {
                    "name": "C#5",
                    "midi": 73,
                    "time": 92.94216100000037,
                    "velocity": 0.30708661417322836,
                    "duration": 0.23081662500000277
                },
                {
                    "name": "E5",
                    "midi": 76,
                    "time": 92.94216100000037,
                    "velocity": 0.3937007874015748,
                    "duration": 0.23081662500000277
                },
                {
                    "name": "C#5",
                    "midi": 73,
                    "time": 93.17297762500037,
                    "velocity": 0.25984251968503935,
                    "duration": 0.07693887499999619
                },
                {
                    "name": "E5",
                    "midi": 76,
                    "time": 93.17297762500037,
                    "velocity": 0.33070866141732286,
                    "duration": 0.07693887499999619
                },
                {
                    "name": "B4",
                    "midi": 71,
                    "time": 93.24991650000037,
                    "velocity": 0.31496062992125984,
                    "duration": 0.30775549999999896
                },
                {
                    "name": "D5",
                    "midi": 74,
                    "time": 93.24991650000037,
                    "velocity": 0.4015748031496063,
                    "duration": 0.30775549999999896
                },
                {
                    "name": "A4",
                    "midi": 69,
                    "time": 93.55767200000037,
                    "velocity": 0.2992125984251969,
                    "duration": 0.30775549999999896
                },
                {
                    "name": "C#5",
                    "midi": 73,
                    "time": 93.55767200000037,
                    "velocity": 0.3779527559055118,
                    "duration": 0.30775549999999896
                },
                {
                    "name": "G#4",
                    "midi": 68,
                    "time": 93.86542750000037,
                    "velocity": 0.28346456692913385,
                    "duration": 0.30775549999999896
                },
                {
                    "name": "B4",
                    "midi": 71,
                    "time": 93.86542750000037,
                    "velocity": 0.36220472440944884,
                    "duration": 0.30775549999999896
                },
                {
                    "name": "C#5",
                    "midi": 73,
                    "time": 94.17318300000036,
                    "velocity": 0.3228346456692913,
                    "duration": 0.6155109999999979
                },
                {
                    "name": "E5",
                    "midi": 76,
                    "time": 94.17318300000036,
                    "velocity": 0.4094488188976378,
                    "duration": 0.6155109999999979
                },
                {
                    "name": "A4",
                    "midi": 69,
                    "time": 94.78869400000036,
                    "velocity": 0.2992125984251969,
                    "duration": 0.30775549999999896
                },
                {
                    "name": "C#5",
                    "midi": 73,
                    "time": 94.78869400000036,
                    "velocity": 0.3858267716535433,
                    "duration": 0.30775549999999896
                },
                {
                    "name": "G#4",
                    "midi": 68,
                    "time": 95.09644950000036,
                    "velocity": 0.29133858267716534,
                    "duration": 0.30775549999999896
                },
                {
                    "name": "B4",
                    "midi": 71,
                    "time": 95.09644950000036,
                    "velocity": 0.36220472440944884,
                    "duration": 0.30775549999999896
                },
                {
                    "name": "A4",
                    "midi": 69,
                    "time": 95.40420500000036,
                    "velocity": 0.2992125984251969,
                    "duration": 0.30775549999999896
                },
                {
                    "name": "C#5",
                    "midi": 73,
                    "time": 95.40420500000036,
                    "velocity": 0.3779527559055118,
                    "duration": 0.30775549999999896
                },
                {
                    "name": "B4",
                    "midi": 71,
                    "time": 95.71196050000036,
                    "velocity": 0.30708661417322836,
                    "duration": 0.30775549999999896
                },
                {
                    "name": "D5",
                    "midi": 74,
                    "time": 95.71196050000036,
                    "velocity": 0.3937007874015748,
                    "duration": 0.30775549999999896
                },
                {
                    "name": "C#5",
                    "midi": 73,
                    "time": 96.01971600000036,
                    "velocity": 0.3228346456692913,
                    "duration": 0.30775549999999896
                },
                {
                    "name": "E5",
                    "midi": 76,
                    "time": 96.01971600000036,
                    "velocity": 0.4094488188976378,
                    "duration": 0.30775549999999896
                },
                {
                    "name": "A5",
                    "midi": 81,
                    "time": 96.32747150000036,
                    "velocity": 0.3937007874015748,
                    "duration": 0.30775549999999896
                },
                {
                    "name": "C#5",
                    "midi": 73,
                    "time": 96.63522700000036,
                    "velocity": 0.30708661417322836,
                    "duration": 0.23081662500000277
                },
                {
                    "name": "E5",
                    "midi": 76,
                    "time": 96.63522700000036,
                    "velocity": 0.3937007874015748,
                    "duration": 0.23081662500000277
                },
                {
                    "name": "C#5",
                    "midi": 73,
                    "time": 96.86604362500036,
                    "velocity": 0.25984251968503935,
                    "duration": 0.07693887499999619
                },
                {
                    "name": "E5",
                    "midi": 76,
                    "time": 96.86604362500036,
                    "velocity": 0.33070866141732286,
                    "duration": 0.07693887499999619
                },
                {
                    "name": "B4",
                    "midi": 71,
                    "time": 96.94298250000035,
                    "velocity": 0.31496062992125984,
                    "duration": 0.30775549999999896
                },
                {
                    "name": "D5",
                    "midi": 74,
                    "time": 96.94298250000035,
                    "velocity": 0.4015748031496063,
                    "duration": 0.30775549999999896
                },
                {
                    "name": "A4",
                    "midi": 69,
                    "time": 97.25073800000035,
                    "velocity": 0.2992125984251969,
                    "duration": 0.30775549999999896
                },
                {
                    "name": "C#5",
                    "midi": 73,
                    "time": 97.25073800000035,
                    "velocity": 0.3779527559055118,
                    "duration": 0.30775549999999896
                },
                {
                    "name": "G#4",
                    "midi": 68,
                    "time": 97.55849350000035,
                    "velocity": 0.28346456692913385,
                    "duration": 0.30775549999999896
                },
                {
                    "name": "B4",
                    "midi": 71,
                    "time": 97.55849350000035,
                    "velocity": 0.36220472440944884,
                    "duration": 0.30775549999999896
                },
                {
                    "name": "C#5",
                    "midi": 73,
                    "time": 97.86624900000035,
                    "velocity": 0.3228346456692913,
                    "duration": 1.0771442500000035
                },
                {
                    "name": "E5",
                    "midi": 76,
                    "time": 97.86624900000035,
                    "velocity": 0.3700787401574803,
                    "duration": 1.0771442500000035
                },
                {
                    "name": "E4",
                    "midi": 64,
                    "time": 98.94339325000036,
                    "velocity": 0.3700787401574803,
                    "duration": 0.15387775000000659
                },
                {
                    "name": "A4",
                    "midi": 69,
                    "time": 99.09727100000036,
                    "velocity": 0.4015748031496063,
                    "duration": 0.15387775000000659
                },
                {
                    "name": "B4",
                    "midi": 71,
                    "time": 99.25114875000037,
                    "velocity": 0.33858267716535434,
                    "duration": 0.15387775000000659
                },
                {
                    "name": "A4",
                    "midi": 69,
                    "time": 99.40502650000037,
                    "velocity": 0.3937007874015748,
                    "duration": 0.15387775000000659
                },
                {
                    "name": "B4",
                    "midi": 71,
                    "time": 99.55890425000038,
                    "velocity": 0.33858267716535434,
                    "duration": 0.15387775000000659
                },
                {
                    "name": "C#5",
                    "midi": 73,
                    "time": 99.71278200000039,
                    "velocity": 0.3779527559055118,
                    "duration": 0.15387775000000659
                },
                {
                    "name": "E5",
                    "midi": 76,
                    "time": 99.8666597500004,
                    "velocity": 0.33858267716535434,
                    "duration": 0.15387775000000659
                },
                {
                    "name": "C#5",
                    "midi": 73,
                    "time": 100.0205375000004,
                    "velocity": 0.3779527559055118,
                    "duration": 0.15387775000000659
                },
                {
                    "name": "E5",
                    "midi": 76,
                    "time": 100.17441525000041,
                    "velocity": 0.33070866141732286,
                    "duration": 0.15387775000000659
                },
                {
                    "name": "C#5",
                    "midi": 73,
                    "time": 100.32829300000041,
                    "velocity": 0.3700787401574803,
                    "duration": 0.15387775000000659
                },
                {
                    "name": "D5",
                    "midi": 74,
                    "time": 100.48217075000042,
                    "velocity": 0.3228346456692913,
                    "duration": 0.15387775000000659
                },
                {
                    "name": "E5",
                    "midi": 76,
                    "time": 100.63604850000043,
                    "velocity": 0.36220472440944884,
                    "duration": 0.15387775000000659
                },
                {
                    "name": "A5",
                    "midi": 81,
                    "time": 100.78992625000043,
                    "velocity": 0.3228346456692913,
                    "duration": 0.15387775000000659
                },
                {
                    "name": "E5",
                    "midi": 76,
                    "time": 100.94380400000044,
                    "velocity": 0.3543307086614173,
                    "duration": 0.15387775000000659
                },
                {
                    "name": "G#5",
                    "midi": 80,
                    "time": 101.09768175000045,
                    "velocity": 0.30708661417322836,
                    "duration": 0.15387775000000659
                },
                {
                    "name": "E5",
                    "midi": 76,
                    "time": 101.25155950000045,
                    "velocity": 0.3543307086614173,
                    "duration": 0.15387775000000659
                },
                {
                    "name": "G#5",
                    "midi": 80,
                    "time": 101.40543725000046,
                    "velocity": 0.30708661417322836,
                    "duration": 0.15387775000000659
                },
                {
                    "name": "A5",
                    "midi": 81,
                    "time": 101.55931500000047,
                    "velocity": 0.3464566929133858,
                    "duration": 0.15387775000000659
                },
                {
                    "name": "C#6",
                    "midi": 85,
                    "time": 101.71319275000047,
                    "velocity": 0.2992125984251969,
                    "duration": 0.15387775000000659
                },
                {
                    "name": "A5",
                    "midi": 81,
                    "time": 101.86707050000048,
                    "velocity": 0.33858267716535434,
                    "duration": 0.15387775000000659
                },
                {
                    "name": "B5",
                    "midi": 83,
                    "time": 102.02094825000049,
                    "velocity": 0.2992125984251969,
                    "duration": 0.15387775000000659
                },
                {
                    "name": "A5",
                    "midi": 81,
                    "time": 102.1748260000005,
                    "velocity": 0.33070866141732286,
                    "duration": 0.15387775000000659
                },
                {
                    "name": "B5",
                    "midi": 83,
                    "time": 102.3287037500005,
                    "velocity": 0.2992125984251969,
                    "duration": 0.15387775000000659
                },
                {
                    "name": "C#6",
                    "midi": 85,
                    "time": 102.4825815000005,
                    "velocity": 0.30708661417322836,
                    "duration": 0.15387775000000659
                },
                {
                    "name": "E6",
                    "midi": 88,
                    "time": 102.63645925000051,
                    "velocity": 0.2992125984251969,
                    "duration": 0.15387775000000659
                },
                {
                    "name": "A6",
                    "midi": 93,
                    "time": 102.79033700000052,
                    "velocity": 0.2992125984251969,
                    "duration": 0.15387775000000659
                },
                {
                    "name": "C#7",
                    "midi": 97,
                    "time": 102.94421475000053,
                    "velocity": 0.2992125984251969,
                    "duration": 0.15387775000000659
                },
                {
                    "name": "E7",
                    "midi": 100,
                    "time": 103.09809250000053,
                    "velocity": 0.2992125984251969,
                    "duration": 0.15387775000000659
                },
                {
                    "name": "C#7",
                    "midi": 97,
                    "time": 103.25197025000054,
                    "velocity": 0.2992125984251969,
                    "duration": 0.15387775000000659
                },
                {
                    "name": "A6",
                    "midi": 93,
                    "time": 103.40584800000055,
                    "velocity": 0.33858267716535434,
                    "duration": 0.15387775000000659
                },
                {
                    "name": "E6",
                    "midi": 88,
                    "time": 103.55972575000055,
                    "velocity": 0.2992125984251969,
                    "duration": 0.15387775000000659
                },
                {
                    "name": "C#6",
                    "midi": 85,
                    "time": 103.71360350000056,
                    "velocity": 0.30708661417322836,
                    "duration": 0.15387775000000659
                },
                {
                    "name": "A5",
                    "midi": 81,
                    "time": 103.86748125000057,
                    "velocity": 0.30708661417322836,
                    "duration": 0.15387775000000659
                },
                {
                    "name": "E5",
                    "midi": 76,
                    "time": 104.02135900000057,
                    "velocity": 0.30708661417322836,
                    "duration": 0.15387775000000659
                },
                {
                    "name": "A5",
                    "midi": 81,
                    "time": 104.17523675000058,
                    "velocity": 0.30708661417322836,
                    "duration": 0.15387775000000659
                },
                {
                    "name": "C#6",
                    "midi": 85,
                    "time": 104.32911450000059,
                    "velocity": 0.33858267716535434,
                    "duration": 0.15387775000000659
                },
                {
                    "name": "E6",
                    "midi": 88,
                    "time": 104.48299225000059,
                    "velocity": 0.33858267716535434,
                    "duration": 0.15387775000000659
                },
                {
                    "name": "C#6",
                    "midi": 85,
                    "time": 104.6368700000006,
                    "velocity": 0.2992125984251969,
                    "duration": 0.15387775000000659
                },
                {
                    "name": "A5",
                    "midi": 81,
                    "time": 104.7907477500006,
                    "velocity": 0.2992125984251969,
                    "duration": 0.15387775000000659
                },
                {
                    "name": "E5",
                    "midi": 76,
                    "time": 104.94462550000061,
                    "velocity": 0.2992125984251969,
                    "duration": 0.15387775000000659
                },
                {
                    "name": "C#5",
                    "midi": 73,
                    "time": 105.09850325000062,
                    "velocity": 0.2992125984251969,
                    "duration": 0.15387775000000659
                },
                {
                    "name": "A4",
                    "midi": 69,
                    "time": 105.25238100000063,
                    "velocity": 0.33858267716535434,
                    "duration": 0.15387775000000659
                },
                {
                    "name": "E4",
                    "midi": 64,
                    "time": 105.40625875000063,
                    "velocity": 0.28346456692913385,
                    "duration": 0.15387775000000659
                },
                {
                    "name": "A4",
                    "midi": 69,
                    "time": 105.56013650000064,
                    "velocity": 0.28346456692913385,
                    "duration": 0.15387775000000659
                },
                {
                    "name": "C#5",
                    "midi": 73,
                    "time": 105.71401425000064,
                    "velocity": 0.28346456692913385,
                    "duration": 0.15387775000000659
                },
                {
                    "name": "E5",
                    "midi": 76,
                    "time": 105.86789200000065,
                    "velocity": 0.2755905511811024,
                    "duration": 0.15387775000000659
                },
                {
                    "name": "C#5",
                    "midi": 73,
                    "time": 106.02176975000066,
                    "velocity": 0.2677165354330709,
                    "duration": 0.15387775000000659
                },
                {
                    "name": "A4",
                    "midi": 69,
                    "time": 106.17564750000066,
                    "velocity": 0.2992125984251969,
                    "duration": 0.15387775000000659
                },
                {
                    "name": "E4",
                    "midi": 64,
                    "time": 106.32952525000067,
                    "velocity": 0.25196850393700787,
                    "duration": 0.15387775000000659
                },
                {
                    "name": "C#4",
                    "midi": 61,
                    "time": 106.48340300000068,
                    "velocity": 0.25196850393700787,
                    "duration": 0.15387775000000659
                },
                {
                    "name": "A3",
                    "midi": 57,
                    "time": 106.63728075000068,
                    "velocity": 0.2440944881889764,
                    "duration": 0.15387775000000659
                },
                {
                    "name": "E3",
                    "midi": 52,
                    "time": 106.79115850000069,
                    "velocity": 0.2440944881889764,
                    "duration": 0.15387775000000659
                },
                {
                    "name": "C#3",
                    "midi": 49,
                    "time": 106.9450362500007,
                    "velocity": 0.23622047244094488,
                    "duration": 0.15387775000000659
                },
                {
                    "name": "C#4",
                    "midi": 61,
                    "time": 108.0221805000007,
                    "velocity": 0.2047244094488189,
                    "duration": 0.30775549999999896
                },
                {
                    "name": "E4",
                    "midi": 64,
                    "time": 108.0221805000007,
                    "velocity": 0.2047244094488189,
                    "duration": 0.30775549999999896
                },
                {
                    "name": "C#5",
                    "midi": 73,
                    "time": 108.0221805000007,
                    "velocity": 0.2440944881889764,
                    "duration": 0.30775549999999896
                },
                {
                    "name": "C#4",
                    "midi": 61,
                    "time": 108.9454470000007,
                    "velocity": 0.2047244094488189,
                    "duration": 0.30775549999999896
                },
                {
                    "name": "E4",
                    "midi": 64,
                    "time": 108.9454470000007,
                    "velocity": 0.2047244094488189,
                    "duration": 0.30775549999999896
                },
                {
                    "name": "A4",
                    "midi": 69,
                    "time": 108.9454470000007,
                    "velocity": 0.2440944881889764,
                    "duration": 0.30775549999999896
                }
            ],
            "controlChanges": {
                "7": [
                    {
                        "number": 7,
                        "time": 0,
                        "value": 1
                    }
                ],
                "10": [
                    {
                        "number": 10,
                        "time": 0,
                        "value": 0.5039370078740157
                    }
                ],
                "91": [
                    {
                        "number": 91,
                        "time": 0,
                        "value": 1
                    }
                ]
            },
            "id": 1,
            "name": "Piano right",
            "instrumentNumber": 0,
            "instrument": "acoustic grand piano",
            "instrumentFamily": "piano",
            "channelNumber": 0,
            "isPercussion": false
        },
        {
            "startTime": 1.5387774999999997,
            "duration": 109.25320249999972,
            "length": 441,
            "notes": [
                {
                    "name": "E3",
                    "midi": 52,
                    "time": 1.5387774999999997,
                    "velocity": 0.23622047244094488,
                    "duration": 0.30775549999999985
                },
                {
                    "name": "C4",
                    "midi": 60,
                    "time": 1.8465329999999995,
                    "velocity": 0.25196850393700787,
                    "duration": 0.30775549999999985
                },
                {
                    "name": "A3",
                    "midi": 57,
                    "time": 1.8465329999999995,
                    "velocity": 0.2125984251968504,
                    "duration": 0.30775549999999985
                },
                {
                    "name": "A2",
                    "midi": 45,
                    "time": 2.1542884999999994,
                    "velocity": 0.2283464566929134,
                    "duration": 0.30775549999999985
                },
                {
                    "name": "E3",
                    "midi": 52,
                    "time": 2.4620439999999992,
                    "velocity": 0.23622047244094488,
                    "duration": 0.30775549999999985
                },
                {
                    "name": "C4",
                    "midi": 60,
                    "time": 2.769799499999999,
                    "velocity": 0.25196850393700787,
                    "duration": 0.30775549999999985
                },
                {
                    "name": "A3",
                    "midi": 57,
                    "time": 2.769799499999999,
                    "velocity": 0.2125984251968504,
                    "duration": 0.30775549999999985
                },
                {
                    "name": "A2",
                    "midi": 45,
                    "time": 3.077554999999999,
                    "velocity": 0.23622047244094488,
                    "duration": 0.30775549999999985
                },
                {
                    "name": "E3",
                    "midi": 52,
                    "time": 3.385310499999999,
                    "velocity": 0.2440944881889764,
                    "duration": 0.30775549999999985
                },
                {
                    "name": "C4",
                    "midi": 60,
                    "time": 3.6930659999999986,
                    "velocity": 0.25196850393700787,
                    "duration": 0.3077555000000003
                },
                {
                    "name": "A3",
                    "midi": 57,
                    "time": 3.6930659999999986,
                    "velocity": 0.2125984251968504,
                    "duration": 0.3077555000000003
                },
                {
                    "name": "A2",
                    "midi": 45,
                    "time": 4.000821499999999,
                    "velocity": 0.23622047244094488,
                    "duration": 0.30775549999999985
                },
                {
                    "name": "E3",
                    "midi": 52,
                    "time": 4.308576999999999,
                    "velocity": 0.23622047244094488,
                    "duration": 0.30775549999999985
                },
                {
                    "name": "A3",
                    "midi": 57,
                    "time": 4.616332499999999,
                    "velocity": 0.2125984251968504,
                    "duration": 0.30775549999999985
                },
                {
                    "name": "C4",
                    "midi": 60,
                    "time": 4.616332499999999,
                    "velocity": 0.25196850393700787,
                    "duration": 0.30775549999999985
                },
                {
                    "name": "A2",
                    "midi": 45,
                    "time": 4.9240879999999985,
                    "velocity": 0.2440944881889764,
                    "duration": 0.30775549999999985
                },
                {
                    "name": "E3",
                    "midi": 52,
                    "time": 5.231843499999998,
                    "velocity": 0.2440944881889764,
                    "duration": 0.30775549999999985
                },
                {
                    "name": "C4",
                    "midi": 60,
                    "time": 5.539598999999998,
                    "velocity": 0.25984251968503935,
                    "duration": 0.30775549999999985
                },
                {
                    "name": "A3",
                    "midi": 57,
                    "time": 5.539598999999998,
                    "velocity": 0.2204724409448819,
                    "duration": 0.30775549999999985
                },
                {
                    "name": "A2",
                    "midi": 45,
                    "time": 5.847354499999998,
                    "velocity": 0.23622047244094488,
                    "duration": 0.30775549999999985
                },
                {
                    "name": "E3",
                    "midi": 52,
                    "time": 6.155109999999998,
                    "velocity": 0.23622047244094488,
                    "duration": 0.30775549999999985
                },
                {
                    "name": "C4",
                    "midi": 60,
                    "time": 6.462865499999998,
                    "velocity": 0.25984251968503935,
                    "duration": 0.30775549999999985
                },
                {
                    "name": "A2",
                    "midi": 45,
                    "time": 6.770620999999998,
                    "velocity": 0.23622047244094488,
                    "duration": 0.30775549999999985
                },
                {
                    "name": "E3",
                    "midi": 52,
                    "time": 7.078376499999997,
                    "velocity": 0.23622047244094488,
                    "duration": 0.30775549999999985
                },
                {
                    "name": "C4",
                    "midi": 60,
                    "time": 7.386131999999997,
                    "velocity": 0.25984251968503935,
                    "duration": 0.30775549999999985
                },
                {
                    "name": "A3",
                    "midi": 57,
                    "time": 7.386131999999997,
                    "velocity": 0.2204724409448819,
                    "duration": 0.30775549999999985
                },
                {
                    "name": "A2",
                    "midi": 45,
                    "time": 7.693887499999997,
                    "velocity": 0.2440944881889764,
                    "duration": 0.30775550000000074
                },
                {
                    "name": "E3",
                    "midi": 52,
                    "time": 8.001642999999998,
                    "velocity": 0.2440944881889764,
                    "duration": 0.30775550000000074
                },
                {
                    "name": "C4",
                    "midi": 60,
                    "time": 8.309398499999999,
                    "velocity": 0.2283464566929134,
                    "duration": 0.30775550000000074
                },
                {
                    "name": "A3",
                    "midi": 57,
                    "time": 8.309398499999999,
                    "velocity": 0.1968503937007874,
                    "duration": 0.30775550000000074
                },
                {
                    "name": "E2",
                    "midi": 40,
                    "time": 8.617154,
                    "velocity": 0.2125984251968504,
                    "duration": 0.30775550000000074
                },
                {
                    "name": "E3",
                    "midi": 52,
                    "time": 8.9249095,
                    "velocity": 0.2125984251968504,
                    "duration": 0.30775550000000074
                },
                {
                    "name": "C4",
                    "midi": 60,
                    "time": 9.232665,
                    "velocity": 0.2283464566929134,
                    "duration": 0.30775550000000074
                },
                {
                    "name": "A3",
                    "midi": 57,
                    "time": 9.232665,
                    "velocity": 0.1968503937007874,
                    "duration": 0.30775550000000074
                },
                {
                    "name": "A1",
                    "midi": 33,
                    "time": 9.540420500000002,
                    "velocity": 0.2125984251968504,
                    "duration": 0.30775550000000074
                },
                {
                    "name": "E3",
                    "midi": 52,
                    "time": 9.848176000000002,
                    "velocity": 0.2125984251968504,
                    "duration": 0.30775550000000074
                },
                {
                    "name": "C4",
                    "midi": 60,
                    "time": 10.155931500000003,
                    "velocity": 0.2283464566929134,
                    "duration": 0.30775550000000074
                },
                {
                    "name": "A3",
                    "midi": 57,
                    "time": 10.155931500000003,
                    "velocity": 0.1968503937007874,
                    "duration": 0.30775550000000074
                },
                {
                    "name": "A2",
                    "midi": 45,
                    "time": 10.463687000000004,
                    "velocity": 0.2125984251968504,
                    "duration": 0.30775550000000074
                },
                {
                    "name": "E3",
                    "midi": 52,
                    "time": 10.771442500000004,
                    "velocity": 0.2125984251968504,
                    "duration": 0.30775550000000074
                },
                {
                    "name": "D4",
                    "midi": 62,
                    "time": 11.079198000000005,
                    "velocity": 0.2283464566929134,
                    "duration": 0.30775550000000074
                },
                {
                    "name": "A3",
                    "midi": 57,
                    "time": 11.079198000000005,
                    "velocity": 0.1968503937007874,
                    "duration": 0.30775550000000074
                },
                {
                    "name": "A2",
                    "midi": 45,
                    "time": 11.386953500000006,
                    "velocity": 0.2125984251968504,
                    "duration": 0.30775550000000074
                },
                {
                    "name": "F3",
                    "midi": 53,
                    "time": 11.694709000000007,
                    "velocity": 0.2125984251968504,
                    "duration": 0.30775550000000074
                },
                {
                    "name": "D4",
                    "midi": 62,
                    "time": 12.002464500000007,
                    "velocity": 0.2047244094488189,
                    "duration": 0.30775550000000074
                },
                {
                    "name": "A3",
                    "midi": 57,
                    "time": 12.002464500000007,
                    "velocity": 0.1732283464566929,
                    "duration": 0.30775550000000074
                },
                {
                    "name": "A2",
                    "midi": 45,
                    "time": 12.310220000000008,
                    "velocity": 0.2125984251968504,
                    "duration": 0.30775550000000074
                },
                {
                    "name": "F3",
                    "midi": 53,
                    "time": 12.617975500000009,
                    "velocity": 0.2125984251968504,
                    "duration": 0.30775550000000074
                },
                {
                    "name": "C4",
                    "midi": 60,
                    "time": 12.92573100000001,
                    "velocity": 0.2283464566929134,
                    "duration": 0.30775550000000074
                },
                {
                    "name": "A3",
                    "midi": 57,
                    "time": 12.92573100000001,
                    "velocity": 0.1968503937007874,
                    "duration": 0.30775550000000074
                },
                {
                    "name": "A2",
                    "midi": 45,
                    "time": 13.23348650000001,
                    "velocity": 0.2125984251968504,
                    "duration": 0.30775550000000074
                },
                {
                    "name": "E3",
                    "midi": 52,
                    "time": 13.541242000000011,
                    "velocity": 0.2125984251968504,
                    "duration": 0.30775549999999896
                },
                {
                    "name": "C4",
                    "midi": 60,
                    "time": 13.84899750000001,
                    "velocity": 0.2283464566929134,
                    "duration": 0.30775550000000074
                },
                {
                    "name": "A3",
                    "midi": 57,
                    "time": 13.84899750000001,
                    "velocity": 0.1968503937007874,
                    "duration": 0.30775550000000074
                },
                {
                    "name": "A2",
                    "midi": 45,
                    "time": 14.15675300000001,
                    "velocity": 0.2125984251968504,
                    "duration": 0.30775550000000074
                },
                {
                    "name": "E3",
                    "midi": 52,
                    "time": 14.464508500000012,
                    "velocity": 0.2125984251968504,
                    "duration": 0.30775550000000074
                },
                {
                    "name": "G#3",
                    "midi": 56,
                    "time": 14.772264000000012,
                    "velocity": 0.2125984251968504,
                    "duration": 0.30775550000000074
                },
                {
                    "name": "B3",
                    "midi": 59,
                    "time": 14.772264000000012,
                    "velocity": 0.25196850393700787,
                    "duration": 0.30775550000000074
                },
                {
                    "name": "E2",
                    "midi": 40,
                    "time": 15.080019500000013,
                    "velocity": 0.2125984251968504,
                    "duration": 0.30775550000000074
                },
                {
                    "name": "E3",
                    "midi": 52,
                    "time": 15.387775000000014,
                    "velocity": 0.2125984251968504,
                    "duration": 0.30775550000000074
                },
                {
                    "name": "D4",
                    "midi": 62,
                    "time": 15.695530500000014,
                    "velocity": 0.2283464566929134,
                    "duration": 0.30775549999999896
                },
                {
                    "name": "B3",
                    "midi": 59,
                    "time": 15.695530500000014,
                    "velocity": 0.1968503937007874,
                    "duration": 0.30775549999999896
                },
                {
                    "name": "E2",
                    "midi": 40,
                    "time": 16.003286000000013,
                    "velocity": 0.2125984251968504,
                    "duration": 0.30775549999999896
                },
                {
                    "name": "E3",
                    "midi": 52,
                    "time": 16.311041500000012,
                    "velocity": 0.2125984251968504,
                    "duration": 0.30775549999999896
                },
                {
                    "name": "C4",
                    "midi": 60,
                    "time": 16.61879700000001,
                    "velocity": 0.2283464566929134,
                    "duration": 0.30775549999999896
                },
                {
                    "name": "A3",
                    "midi": 57,
                    "time": 16.61879700000001,
                    "velocity": 0.1968503937007874,
                    "duration": 0.30775549999999896
                },
                {
                    "name": "A2",
                    "midi": 45,
                    "time": 16.92655250000001,
                    "velocity": 0.2125984251968504,
                    "duration": 0.30775549999999896
                },
                {
                    "name": "E3",
                    "midi": 52,
                    "time": 17.23430800000001,
                    "velocity": 0.2125984251968504,
                    "duration": 0.30775549999999896
                },
                {
                    "name": "C4",
                    "midi": 60,
                    "time": 17.54206350000001,
                    "velocity": 0.2283464566929134,
                    "duration": 0.30775549999999896
                },
                {
                    "name": "A3",
                    "midi": 57,
                    "time": 17.54206350000001,
                    "velocity": 0.1968503937007874,
                    "duration": 0.30775549999999896
                },
                {
                    "name": "A2",
                    "midi": 45,
                    "time": 17.849819000000007,
                    "velocity": 0.2125984251968504,
                    "duration": 0.30775549999999896
                },
                {
                    "name": "E3",
                    "midi": 52,
                    "time": 18.157574500000006,
                    "velocity": 0.2125984251968504,
                    "duration": 0.30775549999999896
                },
                {
                    "name": "D4",
                    "midi": 62,
                    "time": 18.465330000000005,
                    "velocity": 0.2283464566929134,
                    "duration": 0.30775549999999896
                },
                {
                    "name": "B3",
                    "midi": 59,
                    "time": 18.465330000000005,
                    "velocity": 0.1968503937007874,
                    "duration": 0.30775549999999896
                },
                {
                    "name": "B2",
                    "midi": 47,
                    "time": 18.773085500000004,
                    "velocity": 0.2125984251968504,
                    "duration": 0.30775549999999896
                },
                {
                    "name": "G3",
                    "midi": 55,
                    "time": 19.080841000000003,
                    "velocity": 0.2125984251968504,
                    "duration": 0.30775549999999896
                },
                {
                    "name": "E4",
                    "midi": 64,
                    "time": 19.388596500000002,
                    "velocity": 0.2283464566929134,
                    "duration": 0.30775549999999896
                },
                {
                    "name": "C4",
                    "midi": 60,
                    "time": 19.388596500000002,
                    "velocity": 0.1968503937007874,
                    "duration": 0.30775549999999896
                },
                {
                    "name": "C3",
                    "midi": 48,
                    "time": 19.696352,
                    "velocity": 0.2125984251968504,
                    "duration": 0.30775549999999896
                },
                {
                    "name": "G3",
                    "midi": 55,
                    "time": 20.0041075,
                    "velocity": 0.2125984251968504,
                    "duration": 0.30775549999999896
                },
                {
                    "name": "F4",
                    "midi": 65,
                    "time": 20.311863,
                    "velocity": 0.2125984251968504,
                    "duration": 0.3077554999999954
                },
                {
                    "name": "D4",
                    "midi": 62,
                    "time": 20.311863,
                    "velocity": 0.18110236220472442,
                    "duration": 0.3077554999999954
                },
                {
                    "name": "D3",
                    "midi": 50,
                    "time": 20.619618499999994,
                    "velocity": 0.2125984251968504,
                    "duration": 0.30775549999999896
                },
                {
                    "name": "A3",
                    "midi": 57,
                    "time": 20.927373999999993,
                    "velocity": 0.2125984251968504,
                    "duration": 0.30775549999999896
                },
                {
                    "name": "E4",
                    "midi": 64,
                    "time": 21.235129499999992,
                    "velocity": 0.2283464566929134,
                    "duration": 0.30775549999999896
                },
                {
                    "name": "E3",
                    "midi": 52,
                    "time": 21.54288499999999,
                    "velocity": 0.2125984251968504,
                    "duration": 0.30775549999999896
                },
                {
                    "name": "D4",
                    "midi": 62,
                    "time": 21.85064049999999,
                    "velocity": 0.2125984251968504,
                    "duration": 0.30775549999999896
                },
                {
                    "name": "A3",
                    "midi": 57,
                    "time": 22.15839599999999,
                    "velocity": 0.2125984251968504,
                    "duration": 0.30390855625000057
                },
                {
                    "name": "C4",
                    "midi": 60,
                    "time": 22.15839599999999,
                    "velocity": 0.25196850393700787,
                    "duration": 0.30775549999999896
                },
                {
                    "name": "A2",
                    "midi": 45,
                    "time": 22.466151499999988,
                    "velocity": 0.2125984251968504,
                    "duration": 0.30775549999999896
                },
                {
                    "name": "E3",
                    "midi": 52,
                    "time": 22.773906999999987,
                    "velocity": 0.2125984251968504,
                    "duration": 0.30775549999999896
                },
                {
                    "name": "C4",
                    "midi": 60,
                    "time": 23.081662499999986,
                    "velocity": 0.2283464566929134,
                    "duration": 0.30775549999999896
                },
                {
                    "name": "A2",
                    "midi": 45,
                    "time": 23.389417999999985,
                    "velocity": 0.2125984251968504,
                    "duration": 0.30775549999999896
                },
                {
                    "name": "E3",
                    "midi": 52,
                    "time": 23.697173499999984,
                    "velocity": 0.2125984251968504,
                    "duration": 0.30775549999999896
                },
                {
                    "name": "C4",
                    "midi": 60,
                    "time": 24.004928999999983,
                    "velocity": 0.2283464566929134,
                    "duration": 0.30775549999999896
                },
                {
                    "name": "A3",
                    "midi": 57,
                    "time": 24.004928999999983,
                    "velocity": 0.1968503937007874,
                    "duration": 0.30775549999999896
                },
                {
                    "name": "A2",
                    "midi": 45,
                    "time": 24.312684499999982,
                    "velocity": 0.2125984251968504,
                    "duration": 0.30775549999999896
                },
                {
                    "name": "E3",
                    "midi": 52,
                    "time": 24.62043999999998,
                    "velocity": 0.2125984251968504,
                    "duration": 0.30775549999999896
                },
                {
                    "name": "C4",
                    "midi": 60,
                    "time": 24.92819549999998,
                    "velocity": 0.2283464566929134,
                    "duration": 0.30775549999999896
                },
                {
                    "name": "A3",
                    "midi": 57,
                    "time": 24.92819549999998,
                    "velocity": 0.1968503937007874,
                    "duration": 0.30775549999999896
                },
                {
                    "name": "E2",
                    "midi": 40,
                    "time": 25.23595099999998,
                    "velocity": 0.2125984251968504,
                    "duration": 0.30775549999999896
                },
                {
                    "name": "E3",
                    "midi": 52,
                    "time": 25.543706499999978,
                    "velocity": 0.2125984251968504,
                    "duration": 0.30775549999999896
                },
                {
                    "name": "C4",
                    "midi": 60,
                    "time": 25.851461999999977,
                    "velocity": 0.2283464566929134,
                    "duration": 0.30775549999999896
                },
                {
                    "name": "A3",
                    "midi": 57,
                    "time": 25.851461999999977,
                    "velocity": 0.1968503937007874,
                    "duration": 0.30775549999999896
                },
                {
                    "name": "A1",
                    "midi": 33,
                    "time": 26.159217499999976,
                    "velocity": 0.2125984251968504,
                    "duration": 0.30775549999999896
                },
                {
                    "name": "E3",
                    "midi": 52,
                    "time": 26.466972999999975,
                    "velocity": 0.2125984251968504,
                    "duration": 0.30775549999999896
                },
                {
                    "name": "C4",
                    "midi": 60,
                    "time": 26.774728499999974,
                    "velocity": 0.2283464566929134,
                    "duration": 0.30775549999999896
                },
                {
                    "name": "A3",
                    "midi": 57,
                    "time": 26.774728499999974,
                    "velocity": 0.1968503937007874,
                    "duration": 0.30775549999999896
                },
                {
                    "name": "A2",
                    "midi": 45,
                    "time": 27.082483999999972,
                    "velocity": 0.2125984251968504,
                    "duration": 0.30775549999999896
                },
                {
                    "name": "E3",
                    "midi": 52,
                    "time": 27.39023949999997,
                    "velocity": 0.2125984251968504,
                    "duration": 0.30775549999999896
                },
                {
                    "name": "D4",
                    "midi": 62,
                    "time": 27.69799499999997,
                    "velocity": 0.2283464566929134,
                    "duration": 0.30775549999999896
                },
                {
                    "name": "A3",
                    "midi": 57,
                    "time": 27.69799499999997,
                    "velocity": 0.1968503937007874,
                    "duration": 0.30775549999999896
                },
                {
                    "name": "A2",
                    "midi": 45,
                    "time": 28.00575049999997,
                    "velocity": 0.2125984251968504,
                    "duration": 0.30775549999999896
                },
                {
                    "name": "F3",
                    "midi": 53,
                    "time": 28.31350599999997,
                    "velocity": 0.2125984251968504,
                    "duration": 0.30775549999999896
                },
                {
                    "name": "D4",
                    "midi": 62,
                    "time": 28.621261499999967,
                    "velocity": 0.2047244094488189,
                    "duration": 0.30775549999999896
                },
                {
                    "name": "A3",
                    "midi": 57,
                    "time": 28.621261499999967,
                    "velocity": 0.1732283464566929,
                    "duration": 0.30775549999999896
                },
                {
                    "name": "A2",
                    "midi": 45,
                    "time": 28.929016999999966,
                    "velocity": 0.2125984251968504,
                    "duration": 0.30775549999999896
                },
                {
                    "name": "F3",
                    "midi": 53,
                    "time": 29.236772499999965,
                    "velocity": 0.2125984251968504,
                    "duration": 0.30775549999999896
                },
                {
                    "name": "C4",
                    "midi": 60,
                    "time": 29.544527999999964,
                    "velocity": 0.2283464566929134,
                    "duration": 0.3077554999999954
                },
                {
                    "name": "A3",
                    "midi": 57,
                    "time": 29.544527999999964,
                    "velocity": 0.1968503937007874,
                    "duration": 0.3077554999999954
                },
                {
                    "name": "A2",
                    "midi": 45,
                    "time": 29.85228349999996,
                    "velocity": 0.2125984251968504,
                    "duration": 0.30775549999999896
                },
                {
                    "name": "E3",
                    "midi": 52,
                    "time": 30.16003899999996,
                    "velocity": 0.2125984251968504,
                    "duration": 0.3077555000000025
                },
                {
                    "name": "C4",
                    "midi": 60,
                    "time": 30.46779449999996,
                    "velocity": 0.2283464566929134,
                    "duration": 0.30775549999999896
                },
                {
                    "name": "A3",
                    "midi": 57,
                    "time": 30.46779449999996,
                    "velocity": 0.1968503937007874,
                    "duration": 0.30775549999999896
                },
                {
                    "name": "A2",
                    "midi": 45,
                    "time": 30.77554999999996,
                    "velocity": 0.2125984251968504,
                    "duration": 0.30775549999999896
                },
                {
                    "name": "E3",
                    "midi": 52,
                    "time": 31.08330549999996,
                    "velocity": 0.2125984251968504,
                    "duration": 0.30775549999999896
                },
                {
                    "name": "G#3",
                    "midi": 56,
                    "time": 31.391060999999958,
                    "velocity": 0.2125984251968504,
                    "duration": 0.3077554999999954
                },
                {
                    "name": "B3",
                    "midi": 59,
                    "time": 31.391060999999958,
                    "velocity": 0.25196850393700787,
                    "duration": 0.3077554999999954
                },
                {
                    "name": "E2",
                    "midi": 40,
                    "time": 31.698816499999953,
                    "velocity": 0.2125984251968504,
                    "duration": 0.3077555000000025
                },
                {
                    "name": "E3",
                    "midi": 52,
                    "time": 32.006571999999956,
                    "velocity": 0.2125984251968504,
                    "duration": 0.30775549999999896
                },
                {
                    "name": "D4",
                    "midi": 62,
                    "time": 32.314327499999955,
                    "velocity": 0.2283464566929134,
                    "duration": 0.30775549999999896
                },
                {
                    "name": "B3",
                    "midi": 59,
                    "time": 32.314327499999955,
                    "velocity": 0.1968503937007874,
                    "duration": 0.30775549999999896
                },
                {
                    "name": "E2",
                    "midi": 40,
                    "time": 32.622082999999954,
                    "velocity": 0.2125984251968504,
                    "duration": 0.30775549999999896
                },
                {
                    "name": "E3",
                    "midi": 52,
                    "time": 32.92983849999995,
                    "velocity": 0.2125984251968504,
                    "duration": 0.30775549999999896
                },
                {
                    "name": "C4",
                    "midi": 60,
                    "time": 33.23759399999995,
                    "velocity": 0.2283464566929134,
                    "duration": 0.30775550000000607
                },
                {
                    "name": "A3",
                    "midi": 57,
                    "time": 33.23759399999995,
                    "velocity": 0.1968503937007874,
                    "duration": 0.30775550000000607
                },
                {
                    "name": "A2",
                    "midi": 45,
                    "time": 33.54534949999996,
                    "velocity": 0.2125984251968504,
                    "duration": 0.30775549999999896
                },
                {
                    "name": "E3",
                    "midi": 52,
                    "time": 33.85310499999996,
                    "velocity": 0.2125984251968504,
                    "duration": 0.30775549999999896
                },
                {
                    "name": "C4",
                    "midi": 60,
                    "time": 34.160860499999956,
                    "velocity": 0.2283464566929134,
                    "duration": 0.30775549999999896
                },
                {
                    "name": "A3",
                    "midi": 57,
                    "time": 34.160860499999956,
                    "velocity": 0.1968503937007874,
                    "duration": 0.30775549999999896
                },
                {
                    "name": "A2",
                    "midi": 45,
                    "time": 34.468615999999955,
                    "velocity": 0.2125984251968504,
                    "duration": 0.30775549999999896
                },
                {
                    "name": "E3",
                    "midi": 52,
                    "time": 34.776371499999954,
                    "velocity": 0.2125984251968504,
                    "duration": 0.30775549999999896
                },
                {
                    "name": "D4",
                    "midi": 62,
                    "time": 35.08412699999995,
                    "velocity": 0.2283464566929134,
                    "duration": 0.30775549999999896
                },
                {
                    "name": "B3",
                    "midi": 59,
                    "time": 35.08412699999995,
                    "velocity": 0.1968503937007874,
                    "duration": 0.30775549999999896
                },
                {
                    "name": "B2",
                    "midi": 47,
                    "time": 35.39188249999995,
                    "velocity": 0.2125984251968504,
                    "duration": 0.30775549999999896
                },
                {
                    "name": "G3",
                    "midi": 55,
                    "time": 35.69963799999995,
                    "velocity": 0.2125984251968504,
                    "duration": 0.30775549999999896
                },
                {
                    "name": "E4",
                    "midi": 64,
                    "time": 36.00739349999995,
                    "velocity": 0.2283464566929134,
                    "duration": 0.30775550000000607
                },
                {
                    "name": "C4",
                    "midi": 60,
                    "time": 36.00739349999995,
                    "velocity": 0.1968503937007874,
                    "duration": 0.30775550000000607
                },
                {
                    "name": "C3",
                    "midi": 48,
                    "time": 36.315148999999955,
                    "velocity": 0.2125984251968504,
                    "duration": 0.30775549999999896
                },
                {
                    "name": "G3",
                    "midi": 55,
                    "time": 36.622904499999954,
                    "velocity": 0.2125984251968504,
                    "duration": 0.30775549999999896
                },
                {
                    "name": "F4",
                    "midi": 65,
                    "time": 36.93065999999995,
                    "velocity": 0.2283464566929134,
                    "duration": 0.30775549999999896
                },
                {
                    "name": "D4",
                    "midi": 62,
                    "time": 36.93065999999995,
                    "velocity": 0.1968503937007874,
                    "duration": 0.30775549999999896
                },
                {
                    "name": "D3",
                    "midi": 50,
                    "time": 37.23841549999995,
                    "velocity": 0.2125984251968504,
                    "duration": 0.30775549999999896
                },
                {
                    "name": "A3",
                    "midi": 57,
                    "time": 37.54617099999995,
                    "velocity": 0.2125984251968504,
                    "duration": 0.30775549999999896
                },
                {
                    "name": "E4",
                    "midi": 64,
                    "time": 37.85392649999995,
                    "velocity": 0.2283464566929134,
                    "duration": 0.30775549999999186
                },
                {
                    "name": "E3",
                    "midi": 52,
                    "time": 38.16168199999994,
                    "velocity": 0.2125984251968504,
                    "duration": 0.30775549999999896
                },
                {
                    "name": "D4",
                    "midi": 62,
                    "time": 38.46943749999994,
                    "velocity": 0.2125984251968504,
                    "duration": 0.30775549999999896
                },
                {
                    "name": "A3",
                    "midi": 57,
                    "time": 38.77719299999994,
                    "velocity": 0.2125984251968504,
                    "duration": 0.30775549999999896
                },
                {
                    "name": "C4",
                    "midi": 60,
                    "time": 38.77719299999994,
                    "velocity": 0.25196850393700787,
                    "duration": 0.30775549999999896
                },
                {
                    "name": "A2",
                    "midi": 45,
                    "time": 39.08494849999994,
                    "velocity": 0.2125984251968504,
                    "duration": 0.30775549999999896
                },
                {
                    "name": "E3",
                    "midi": 52,
                    "time": 39.39270399999994,
                    "velocity": 0.2125984251968504,
                    "duration": 0.30775549999999896
                },
                {
                    "name": "A3",
                    "midi": 57,
                    "time": 39.70045949999994,
                    "velocity": 0.2283464566929134,
                    "duration": 0.30775549999999896
                },
                {
                    "name": "C4",
                    "midi": 60,
                    "time": 39.70045949999994,
                    "velocity": 0.2755905511811024,
                    "duration": 0.30775549999999896
                },
                {
                    "name": "A2",
                    "midi": 45,
                    "time": 40.008214999999936,
                    "velocity": 0.25196850393700787,
                    "duration": 0.30775549999999896
                },
                {
                    "name": "E3",
                    "midi": 52,
                    "time": 40.315970499999935,
                    "velocity": 0.25196850393700787,
                    "duration": 0.30775549999999896
                },
                {
                    "name": "B3",
                    "midi": 59,
                    "time": 40.623725999999934,
                    "velocity": 0.28346456692913385,
                    "duration": 0.30775549999999896
                },
                {
                    "name": "G#3",
                    "midi": 56,
                    "time": 40.623725999999934,
                    "velocity": 0.23622047244094488,
                    "duration": 0.30775549999999896
                },
                {
                    "name": "E2",
                    "midi": 40,
                    "time": 40.93148149999993,
                    "velocity": 0.25196850393700787,
                    "duration": 0.30775549999999896
                },
                {
                    "name": "E3",
                    "midi": 52,
                    "time": 41.23923699999993,
                    "velocity": 0.25196850393700787,
                    "duration": 0.30775549999999896
                },
                {
                    "name": "C4",
                    "midi": 60,
                    "time": 41.54699249999993,
                    "velocity": 0.28346456692913385,
                    "duration": 0.30775549999999896
                },
                {
                    "name": "A3",
                    "midi": 57,
                    "time": 41.54699249999993,
                    "velocity": 0.23622047244094488,
                    "duration": 0.30775549999999896
                },
                {
                    "name": "E2",
                    "midi": 40,
                    "time": 41.85474799999993,
                    "velocity": 0.25196850393700787,
                    "duration": 0.30775549999999896
                },
                {
                    "name": "E3",
                    "midi": 52,
                    "time": 42.16250349999993,
                    "velocity": 0.25196850393700787,
                    "duration": 0.30775549999999896
                },
                {
                    "name": "B3",
                    "midi": 59,
                    "time": 42.47025899999993,
                    "velocity": 0.28346456692913385,
                    "duration": 0.30775549999999186
                },
                {
                    "name": "G#3",
                    "midi": 56,
                    "time": 42.47025899999993,
                    "velocity": 0.23622047244094488,
                    "duration": 0.30775549999999186
                },
                {
                    "name": "E2",
                    "midi": 40,
                    "time": 42.77801449999992,
                    "velocity": 0.25196850393700787,
                    "duration": 0.30775549999999896
                },
                {
                    "name": "E3",
                    "midi": 52,
                    "time": 43.08576999999992,
                    "velocity": 0.25196850393700787,
                    "duration": 0.30775549999999896
                },
                {
                    "name": "A3",
                    "midi": 57,
                    "time": 43.39352549999992,
                    "velocity": 0.2283464566929134,
                    "duration": 0.30775549999999896
                },
                {
                    "name": "C4",
                    "midi": 60,
                    "time": 43.39352549999992,
                    "velocity": 0.2755905511811024,
                    "duration": 0.30775549999999896
                },
                {
                    "name": "A2",
                    "midi": 45,
                    "time": 43.701280999999916,
                    "velocity": 0.25196850393700787,
                    "duration": 0.30775549999999896
                },
                {
                    "name": "E3",
                    "midi": 52,
                    "time": 44.009036499999915,
                    "velocity": 0.25196850393700787,
                    "duration": 0.30775549999999896
                },
                {
                    "name": "B3",
                    "midi": 59,
                    "time": 44.316791999999914,
                    "velocity": 0.28346456692913385,
                    "duration": 0.30775549999999896
                },
                {
                    "name": "G#3",
                    "midi": 56,
                    "time": 44.316791999999914,
                    "velocity": 0.23622047244094488,
                    "duration": 0.30775549999999896
                },
                {
                    "name": "E2",
                    "midi": 40,
                    "time": 44.62454749999991,
                    "velocity": 0.25196850393700787,
                    "duration": 0.30775549999999896
                },
                {
                    "name": "E3",
                    "midi": 52,
                    "time": 44.93230299999991,
                    "velocity": 0.25196850393700787,
                    "duration": 0.30775549999999896
                },
                {
                    "name": "C4",
                    "midi": 60,
                    "time": 45.24005849999991,
                    "velocity": 0.28346456692913385,
                    "duration": 0.30775549999999896
                },
                {
                    "name": "A3",
                    "midi": 57,
                    "time": 45.24005849999991,
                    "velocity": 0.23622047244094488,
                    "duration": 0.30775549999999896
                },
                {
                    "name": "E2",
                    "midi": 40,
                    "time": 45.54781399999991,
                    "velocity": 0.25196850393700787,
                    "duration": 0.30775549999999896
                },
                {
                    "name": "E3",
                    "midi": 52,
                    "time": 45.85556949999991,
                    "velocity": 0.25196850393700787,
                    "duration": 0.30775549999999896
                },
                {
                    "name": "B3",
                    "midi": 59,
                    "time": 46.16332499999991,
                    "velocity": 0.31496062992125984,
                    "duration": 0.30775549999999896
                },
                {
                    "name": "G#3",
                    "midi": 56,
                    "time": 46.16332499999991,
                    "velocity": 0.2204724409448819,
                    "duration": 0.30775549999999896
                },
                {
                    "name": "E2",
                    "midi": 40,
                    "time": 46.47108049999991,
                    "velocity": 0.28346456692913385,
                    "duration": 0.30775549999999896
                },
                {
                    "name": "E3",
                    "midi": 52,
                    "time": 46.778835999999906,
                    "velocity": 0.28346456692913385,
                    "duration": 0.30775549999999896
                },
                {
                    "name": "G#3",
                    "midi": 56,
                    "time": 47.086591499999905,
                    "velocity": 0.2204724409448819,
                    "duration": 0.30775549999999896
                },
                {
                    "name": "B3",
                    "midi": 59,
                    "time": 47.086591499999905,
                    "velocity": 0.31496062992125984,
                    "duration": 0.30775549999999896
                },
                {
                    "name": "E2",
                    "midi": 40,
                    "time": 47.394346999999904,
                    "velocity": 0.28346456692913385,
                    "duration": 0.30775549999999896
                },
                {
                    "name": "E3",
                    "midi": 52,
                    "time": 47.7021024999999,
                    "velocity": 0.28346456692913385,
                    "duration": 0.30775549999999896
                },
                {
                    "name": "A3",
                    "midi": 57,
                    "time": 48.0098579999999,
                    "velocity": 0.33070866141732286,
                    "duration": 0.30775550000000607
                },
                {
                    "name": "C#4",
                    "midi": 61,
                    "time": 48.0098579999999,
                    "velocity": 0.3937007874015748,
                    "duration": 0.30775550000000607
                },
                {
                    "name": "A2",
                    "midi": 45,
                    "time": 48.31761349999991,
                    "velocity": 0.41732283464566927,
                    "duration": 0.30775549999999896
                },
                {
                    "name": "E3",
                    "midi": 52,
                    "time": 48.62536899999991,
                    "velocity": 0.41732283464566927,
                    "duration": 0.30775549999999896
                },
                {
                    "name": "A3",
                    "midi": 57,
                    "time": 48.933124499999906,
                    "velocity": 0.3464566929133858,
                    "duration": 0.30775550000000607
                },
                {
                    "name": "D4",
                    "midi": 62,
                    "time": 48.933124499999906,
                    "velocity": 0.4094488188976378,
                    "duration": 0.30775550000000607
                },
                {
                    "name": "D3",
                    "midi": 50,
                    "time": 49.24087999999991,
                    "velocity": 0.44881889763779526,
                    "duration": 0.30775549999999896
                },
                {
                    "name": "F#3",
                    "midi": 54,
                    "time": 49.54863549999991,
                    "velocity": 0.44881889763779526,
                    "duration": 0.30775549999999896
                },
                {
                    "name": "D#4",
                    "midi": 63,
                    "time": 49.85639099999991,
                    "velocity": 0.4566929133858268,
                    "duration": 0.30775550000000607
                },
                {
                    "name": "B3",
                    "midi": 59,
                    "time": 49.85639099999991,
                    "velocity": 0.3858267716535433,
                    "duration": 0.30775550000000607
                },
                {
                    "name": "B2",
                    "midi": 47,
                    "time": 50.164146499999916,
                    "velocity": 0.49606299212598426,
                    "duration": 0.30775549999999896
                },
                {
                    "name": "F#3",
                    "midi": 54,
                    "time": 50.471901999999915,
                    "velocity": 0.4881889763779528,
                    "duration": 0.30775549999999896
                },
                {
                    "name": "E4",
                    "midi": 64,
                    "time": 50.779657499999914,
                    "velocity": 0.4645669291338583,
                    "duration": 0.30775550000000607
                },
                {
                    "name": "C4",
                    "midi": 60,
                    "time": 50.779657499999914,
                    "velocity": 0.3937007874015748,
                    "duration": 0.30775550000000607
                },
                {
                    "name": "C3",
                    "midi": 48,
                    "time": 51.08741299999992,
                    "velocity": 0.5118110236220472,
                    "duration": 0.30775549999999896
                },
                {
                    "name": "A3",
                    "midi": 57,
                    "time": 51.39516849999992,
                    "velocity": 0.5118110236220472,
                    "duration": 0.30775549999999896
                },
                {
                    "name": "E4",
                    "midi": 64,
                    "time": 51.70292399999992,
                    "velocity": 0.4881889763779528,
                    "duration": 0.30775550000000607
                },
                {
                    "name": "C#4",
                    "midi": 61,
                    "time": 51.70292399999992,
                    "velocity": 0.41732283464566927,
                    "duration": 0.30775550000000607
                },
                {
                    "name": "C#3",
                    "midi": 49,
                    "time": 52.010679499999924,
                    "velocity": 0.5275590551181102,
                    "duration": 0.30775549999999896
                },
                {
                    "name": "A#3",
                    "midi": 58,
                    "time": 52.31843499999992,
                    "velocity": 0.5354330708661418,
                    "duration": 0.30775549999999896
                },
                {
                    "name": "F4",
                    "midi": 65,
                    "time": 52.62619049999992,
                    "velocity": 0.5196850393700787,
                    "duration": 0.30775549999999896
                },
                {
                    "name": "D4",
                    "midi": 62,
                    "time": 52.62619049999992,
                    "velocity": 0.4409448818897638,
                    "duration": 0.30775549999999896
                },
                {
                    "name": "D3",
                    "midi": 50,
                    "time": 52.93394599999992,
                    "velocity": 0.5748031496062992,
                    "duration": 0.30775549999999896
                },
                {
                    "name": "A#3",
                    "midi": 58,
                    "time": 53.24170149999992,
                    "velocity": 0.5826771653543307,
                    "duration": 0.30775549999999896
                },
                {
                    "name": "D#4",
                    "midi": 63,
                    "time": 53.54945699999992,
                    "velocity": 0.4645669291338583,
                    "duration": 0.30775549999999896
                },
                {
                    "name": "F#4",
                    "midi": 66,
                    "time": 53.54945699999992,
                    "velocity": 0.5511811023622047,
                    "duration": 0.30775549999999896
                },
                {
                    "name": "D#3",
                    "midi": 51,
                    "time": 53.85721249999992,
                    "velocity": 0.5905511811023622,
                    "duration": 0.30775549999999896
                },
                {
                    "name": "C4",
                    "midi": 60,
                    "time": 54.16496799999992,
                    "velocity": 0.5984251968503937,
                    "duration": 0.30775549999999896
                },
                {
                    "name": "F#4",
                    "midi": 66,
                    "time": 54.472723499999915,
                    "velocity": 0.5669291338582677,
                    "duration": 0.30775549999999896
                },
                {
                    "name": "D#4",
                    "midi": 63,
                    "time": 54.472723499999915,
                    "velocity": 0.48031496062992124,
                    "duration": 0.30775549999999896
                },
                {
                    "name": "D#3",
                    "midi": 51,
                    "time": 54.780478999999914,
                    "velocity": 0.5669291338582677,
                    "duration": 0.30775549999999896
                },
                {
                    "name": "C4",
                    "midi": 60,
                    "time": 55.08823449999991,
                    "velocity": 0.5669291338582677,
                    "duration": 0.30775549999999896
                },
                {
                    "name": "D#4",
                    "midi": 63,
                    "time": 55.39598999999991,
                    "velocity": 0.41732283464566927,
                    "duration": 0.30775549999999896
                },
                {
                    "name": "F#4",
                    "midi": 66,
                    "time": 55.39598999999991,
                    "velocity": 0.49606299212598426,
                    "duration": 0.30775549999999896
                },
                {
                    "name": "D#3",
                    "midi": 51,
                    "time": 55.70374549999991,
                    "velocity": 0.48031496062992124,
                    "duration": 0.30775549999999896
                },
                {
                    "name": "C4",
                    "midi": 60,
                    "time": 56.01150099999991,
                    "velocity": 0.48031496062992124,
                    "duration": 0.30775549999999896
                },
                {
                    "name": "F#4",
                    "midi": 66,
                    "time": 56.31925649999991,
                    "velocity": 0.4409448818897638,
                    "duration": 0.30775549999999896
                },
                {
                    "name": "D#4",
                    "midi": 63,
                    "time": 56.31925649999991,
                    "velocity": 0.3779527559055118,
                    "duration": 0.30775549999999896
                },
                {
                    "name": "D#3",
                    "midi": 51,
                    "time": 56.62701199999991,
                    "velocity": 0.4015748031496063,
                    "duration": 0.30775549999999896
                },
                {
                    "name": "C4",
                    "midi": 60,
                    "time": 56.93476749999991,
                    "velocity": 0.3779527559055118,
                    "duration": 0.30775549999999896
                },
                {
                    "name": "D#4",
                    "midi": 63,
                    "time": 57.242522999999906,
                    "velocity": 0.31496062992125984,
                    "duration": 0.30775549999999896
                },
                {
                    "name": "F#4",
                    "midi": 66,
                    "time": 57.242522999999906,
                    "velocity": 0.3700787401574803,
                    "duration": 0.30775549999999896
                },
                {
                    "name": "D#3",
                    "midi": 51,
                    "time": 57.550278499999905,
                    "velocity": 0.31496062992125984,
                    "duration": 0.30775549999999896
                },
                {
                    "name": "C4",
                    "midi": 60,
                    "time": 57.858033999999904,
                    "velocity": 0.2992125984251969,
                    "duration": 0.30775549999999896
                },
                {
                    "name": "E3",
                    "midi": 52,
                    "time": 58.1657894999999,
                    "velocity": 0.2283464566929134,
                    "duration": 0.30775550000000607
                },
                {
                    "name": "E2",
                    "midi": 40,
                    "time": 58.47354499999991,
                    "velocity": 0.2125984251968504,
                    "duration": 0.30775549999999896
                },
                {
                    "name": "E3",
                    "midi": 52,
                    "time": 58.78130049999991,
                    "velocity": 0.2125984251968504,
                    "duration": 0.30775549999999896
                },
                {
                    "name": "C4",
                    "midi": 60,
                    "time": 59.08905599999991,
                    "velocity": 0.2283464566929134,
                    "duration": 0.30775549999999896
                },
                {
                    "name": "A3",
                    "midi": 57,
                    "time": 59.08905599999991,
                    "velocity": 0.1968503937007874,
                    "duration": 0.30775549999999896
                },
                {
                    "name": "E2",
                    "midi": 40,
                    "time": 59.396811499999906,
                    "velocity": 0.2125984251968504,
                    "duration": 0.30775549999999896
                },
                {
                    "name": "E3",
                    "midi": 52,
                    "time": 59.704566999999905,
                    "velocity": 0.2125984251968504,
                    "duration": 0.30775549999999896
                },
                {
                    "name": "E4",
                    "midi": 64,
                    "time": 60.012322499999904,
                    "velocity": 0.2283464566929134,
                    "duration": 0.30775549999999896
                },
                {
                    "name": "A3",
                    "midi": 57,
                    "time": 60.012322499999904,
                    "velocity": 0.1968503937007874,
                    "duration": 0.30775549999999896
                },
                {
                    "name": "C4",
                    "midi": 60,
                    "time": 60.02642796041657,
                    "velocity": 0.1968503937007874,
                    "duration": 0.30775549999999896
                },
                {
                    "name": "E2",
                    "midi": 40,
                    "time": 60.3200779999999,
                    "velocity": 0.2125984251968504,
                    "duration": 0.30775549999999896
                },
                {
                    "name": "E3",
                    "midi": 52,
                    "time": 60.6278334999999,
                    "velocity": 0.2125984251968504,
                    "duration": 0.30775549999999896
                },
                {
                    "name": "C4",
                    "midi": 60,
                    "time": 60.9355889999999,
                    "velocity": 0.2283464566929134,
                    "duration": 0.30775549999999896
                },
                {
                    "name": "A3",
                    "midi": 57,
                    "time": 60.9355889999999,
                    "velocity": 0.1968503937007874,
                    "duration": 0.30775549999999896
                },
                {
                    "name": "E2",
                    "midi": 40,
                    "time": 61.2433444999999,
                    "velocity": 0.2125984251968504,
                    "duration": 0.30775549999999896
                },
                {
                    "name": "E3",
                    "midi": 52,
                    "time": 61.5510999999999,
                    "velocity": 0.2125984251968504,
                    "duration": 0.30775549999999896
                },
                {
                    "name": "E4",
                    "midi": 64,
                    "time": 61.8588554999999,
                    "velocity": 0.2283464566929134,
                    "duration": 0.30775549999999896
                },
                {
                    "name": "A3",
                    "midi": 57,
                    "time": 61.8588554999999,
                    "velocity": 0.1968503937007874,
                    "duration": 0.30775549999999896
                },
                {
                    "name": "C4",
                    "midi": 60,
                    "time": 61.87296096041656,
                    "velocity": 0.1968503937007874,
                    "duration": 0.30775549999999896
                },
                {
                    "name": "E2",
                    "midi": 40,
                    "time": 62.1666109999999,
                    "velocity": 0.2125984251968504,
                    "duration": 0.30775549999999896
                },
                {
                    "name": "E3",
                    "midi": 52,
                    "time": 62.474366499999896,
                    "velocity": 0.2125984251968504,
                    "duration": 0.30775549999999896
                },
                {
                    "name": "F4",
                    "midi": 65,
                    "time": 62.782121999999895,
                    "velocity": 0.2283464566929134,
                    "duration": 0.9232664999999969
                },
                {
                    "name": "E3",
                    "midi": 52,
                    "time": 63.08987749999989,
                    "velocity": 0.2125984251968504,
                    "duration": 0.30775549999999896
                },
                {
                    "name": "A3",
                    "midi": 57,
                    "time": 63.39763299999989,
                    "velocity": 0.2125984251968504,
                    "duration": 0.30775549999999896
                },
                {
                    "name": "E4",
                    "midi": 64,
                    "time": 63.70538849999989,
                    "velocity": 0.2283464566929134,
                    "duration": 0.6155109999999908
                },
                {
                    "name": "E3",
                    "midi": 52,
                    "time": 64.01314399999988,
                    "velocity": 0.2125984251968504,
                    "duration": 0.30775549999999896
                },
                {
                    "name": "D4",
                    "midi": 62,
                    "time": 64.32089949999988,
                    "velocity": 0.2125984251968504,
                    "duration": 0.30775549999999896
                },
                {
                    "name": "A3",
                    "midi": 57,
                    "time": 64.62865499999988,
                    "velocity": 0.2125984251968504,
                    "duration": 0.30775549999999896
                },
                {
                    "name": "C4",
                    "midi": 60,
                    "time": 64.62865499999988,
                    "velocity": 0.25196850393700787,
                    "duration": 0.30775549999999896
                },
                {
                    "name": "A2",
                    "midi": 45,
                    "time": 64.93641049999988,
                    "velocity": 0.2125984251968504,
                    "duration": 0.30775549999999896
                },
                {
                    "name": "E3",
                    "midi": 52,
                    "time": 65.24416599999988,
                    "velocity": 0.2125984251968504,
                    "duration": 0.30775549999999896
                },
                {
                    "name": "A3",
                    "midi": 57,
                    "time": 65.55192149999988,
                    "velocity": 0.2047244094488189,
                    "duration": 0.30775550000001317
                },
                {
                    "name": "C4",
                    "midi": 60,
                    "time": 65.55192149999988,
                    "velocity": 0.2440944881889764,
                    "duration": 0.30775550000001317
                },
                {
                    "name": "A2",
                    "midi": 45,
                    "time": 65.85967699999989,
                    "velocity": 0.2204724409448819,
                    "duration": 0.30775549999999896
                },
                {
                    "name": "E3",
                    "midi": 52,
                    "time": 66.16743249999989,
                    "velocity": 0.2204724409448819,
                    "duration": 0.30775549999999896
                },
                {
                    "name": "B3",
                    "midi": 59,
                    "time": 66.47518799999989,
                    "velocity": 0.25196850393700787,
                    "duration": 0.30775549999999896
                },
                {
                    "name": "G#3",
                    "midi": 56,
                    "time": 66.47518799999989,
                    "velocity": 0.2125984251968504,
                    "duration": 0.30775549999999896
                },
                {
                    "name": "E2",
                    "midi": 40,
                    "time": 66.78294349999989,
                    "velocity": 0.2204724409448819,
                    "duration": 0.30775549999999896
                },
                {
                    "name": "E3",
                    "midi": 52,
                    "time": 67.09069899999989,
                    "velocity": 0.2204724409448819,
                    "duration": 0.30775549999999896
                },
                {
                    "name": "C4",
                    "midi": 60,
                    "time": 67.39845449999989,
                    "velocity": 0.25196850393700787,
                    "duration": 0.30775549999999896
                },
                {
                    "name": "A3",
                    "midi": 57,
                    "time": 67.39845449999989,
                    "velocity": 0.2125984251968504,
                    "duration": 0.30775549999999896
                },
                {
                    "name": "E2",
                    "midi": 40,
                    "time": 67.70620999999988,
                    "velocity": 0.2204724409448819,
                    "duration": 0.30775549999999896
                },
                {
                    "name": "E3",
                    "midi": 52,
                    "time": 68.01396549999988,
                    "velocity": 0.2204724409448819,
                    "duration": 0.30775549999999896
                },
                {
                    "name": "B3",
                    "midi": 59,
                    "time": 68.32172099999988,
                    "velocity": 0.25196850393700787,
                    "duration": 0.30775549999999896
                },
                {
                    "name": "G#3",
                    "midi": 56,
                    "time": 68.32172099999988,
                    "velocity": 0.2125984251968504,
                    "duration": 0.30775549999999896
                },
                {
                    "name": "E2",
                    "midi": 40,
                    "time": 68.62947649999988,
                    "velocity": 0.2204724409448819,
                    "duration": 0.30775549999999896
                },
                {
                    "name": "E3",
                    "midi": 52,
                    "time": 68.93723199999988,
                    "velocity": 0.2204724409448819,
                    "duration": 0.30775549999999896
                },
                {
                    "name": "A3",
                    "midi": 57,
                    "time": 69.24498749999988,
                    "velocity": 0.2047244094488189,
                    "duration": 0.30775550000001317
                },
                {
                    "name": "C4",
                    "midi": 60,
                    "time": 69.24498749999988,
                    "velocity": 0.2440944881889764,
                    "duration": 0.30775550000001317
                },
                {
                    "name": "A2",
                    "midi": 45,
                    "time": 69.5527429999999,
                    "velocity": 0.2204724409448819,
                    "duration": 0.30775549999999896
                },
                {
                    "name": "E3",
                    "midi": 52,
                    "time": 69.86049849999989,
                    "velocity": 0.2204724409448819,
                    "duration": 0.30775549999999896
                },
                {
                    "name": "B3",
                    "midi": 59,
                    "time": 70.16825399999989,
                    "velocity": 0.25196850393700787,
                    "duration": 0.30775549999999896
                },
                {
                    "name": "G#3",
                    "midi": 56,
                    "time": 70.16825399999989,
                    "velocity": 0.2125984251968504,
                    "duration": 0.30775549999999896
                },
                {
                    "name": "E2",
                    "midi": 40,
                    "time": 70.47600949999989,
                    "velocity": 0.2204724409448819,
                    "duration": 0.30775549999999896
                },
                {
                    "name": "E3",
                    "midi": 52,
                    "time": 70.78376499999989,
                    "velocity": 0.2204724409448819,
                    "duration": 0.30775549999999896
                },
                {
                    "name": "C4",
                    "midi": 60,
                    "time": 71.09152049999989,
                    "velocity": 0.25196850393700787,
                    "duration": 0.30775549999999896
                },
                {
                    "name": "A3",
                    "midi": 57,
                    "time": 71.09152049999989,
                    "velocity": 0.2125984251968504,
                    "duration": 0.30775549999999896
                },
                {
                    "name": "E2",
                    "midi": 40,
                    "time": 71.39927599999989,
                    "velocity": 0.2204724409448819,
                    "duration": 0.30775549999999896
                },
                {
                    "name": "E3",
                    "midi": 52,
                    "time": 71.70703149999989,
                    "velocity": 0.2204724409448819,
                    "duration": 0.30775549999999896
                },
                {
                    "name": "B3",
                    "midi": 59,
                    "time": 72.01478699999988,
                    "velocity": 0.28346456692913385,
                    "duration": 0.30775549999999896
                },
                {
                    "name": "G#3",
                    "midi": 56,
                    "time": 72.01478699999988,
                    "velocity": 0.1968503937007874,
                    "duration": 0.30775549999999896
                },
                {
                    "name": "E2",
                    "midi": 40,
                    "time": 72.32254249999988,
                    "velocity": 0.25984251968503935,
                    "duration": 0.30775549999999896
                },
                {
                    "name": "E3",
                    "midi": 52,
                    "time": 72.63029799999988,
                    "velocity": 0.2677165354330709,
                    "duration": 0.30775549999999896
                },
                {
                    "name": "G#3",
                    "midi": 56,
                    "time": 72.93805349999988,
                    "velocity": 0.2125984251968504,
                    "duration": 0.30775549999999896
                },
                {
                    "name": "B3",
                    "midi": 59,
                    "time": 72.93805349999988,
                    "velocity": 0.30708661417322836,
                    "duration": 0.30775549999999896
                },
                {
                    "name": "E2",
                    "midi": 40,
                    "time": 73.24580899999988,
                    "velocity": 0.28346456692913385,
                    "duration": 0.30775549999999896
                },
                {
                    "name": "E3",
                    "midi": 52,
                    "time": 73.55356449999988,
                    "velocity": 0.29133858267716534,
                    "duration": 0.30775549999999896
                },
                {
                    "name": "A3",
                    "midi": 57,
                    "time": 73.86131999999988,
                    "velocity": 0.33070866141732286,
                    "duration": 0.30775549999998475
                },
                {
                    "name": "C#4",
                    "midi": 61,
                    "time": 73.86131999999988,
                    "velocity": 0.3937007874015748,
                    "duration": 0.30775549999998475
                },
                {
                    "name": "A2",
                    "midi": 45,
                    "time": 74.16907549999986,
                    "velocity": 0.4251968503937008,
                    "duration": 0.30775549999999896
                },
                {
                    "name": "E3",
                    "midi": 52,
                    "time": 74.47683099999986,
                    "velocity": 0.4251968503937008,
                    "duration": 0.30775549999999896
                },
                {
                    "name": "A3",
                    "midi": 57,
                    "time": 74.78458649999986,
                    "velocity": 0.3464566929133858,
                    "duration": 0.30775549999999896
                },
                {
                    "name": "D4",
                    "midi": 62,
                    "time": 74.78458649999986,
                    "velocity": 0.4094488188976378,
                    "duration": 0.30775549999999896
                },
                {
                    "name": "D3",
                    "midi": 50,
                    "time": 75.09234199999986,
                    "velocity": 0.4566929133858268,
                    "duration": 0.30775549999999896
                },
                {
                    "name": "F#3",
                    "midi": 54,
                    "time": 75.40009749999986,
                    "velocity": 0.4566929133858268,
                    "duration": 0.30775549999999896
                },
                {
                    "name": "D#4",
                    "midi": 63,
                    "time": 75.70785299999986,
                    "velocity": 0.4566929133858268,
                    "duration": 0.30775549999999896
                },
                {
                    "name": "B3",
                    "midi": 59,
                    "time": 75.70785299999986,
                    "velocity": 0.3858267716535433,
                    "duration": 0.30775549999999896
                },
                {
                    "name": "B2",
                    "midi": 47,
                    "time": 76.01560849999986,
                    "velocity": 0.5039370078740157,
                    "duration": 0.30775549999999896
                },
                {
                    "name": "F#3",
                    "midi": 54,
                    "time": 76.32336399999986,
                    "velocity": 0.5039370078740157,
                    "duration": 0.30775549999999896
                },
                {
                    "name": "E4",
                    "midi": 64,
                    "time": 76.63111949999985,
                    "velocity": 0.4645669291338583,
                    "duration": 0.30775549999999896
                },
                {
                    "name": "C4",
                    "midi": 60,
                    "time": 76.63111949999985,
                    "velocity": 0.3937007874015748,
                    "duration": 0.30775549999999896
                },
                {
                    "name": "C3",
                    "midi": 48,
                    "time": 76.93887499999985,
                    "velocity": 0.5275590551181102,
                    "duration": 0.30775549999999896
                },
                {
                    "name": "A3",
                    "midi": 57,
                    "time": 77.24663049999985,
                    "velocity": 0.5275590551181102,
                    "duration": 0.30775549999999896
                },
                {
                    "name": "E4",
                    "midi": 64,
                    "time": 77.55438599999985,
                    "velocity": 0.4881889763779528,
                    "duration": 0.30775549999998475
                },
                {
                    "name": "C#4",
                    "midi": 61,
                    "time": 77.55438599999985,
                    "velocity": 0.41732283464566927,
                    "duration": 0.30775549999998475
                },
                {
                    "name": "C#3",
                    "midi": 49,
                    "time": 77.86214149999984,
                    "velocity": 0.5511811023622047,
                    "duration": 0.30775549999999896
                },
                {
                    "name": "A#3",
                    "midi": 58,
                    "time": 78.16989699999984,
                    "velocity": 0.5511811023622047,
                    "duration": 0.30775549999999896
                },
                {
                    "name": "F4",
                    "midi": 65,
                    "time": 78.47765249999983,
                    "velocity": 0.5196850393700787,
                    "duration": 0.30775549999999896
                },
                {
                    "name": "D4",
                    "midi": 62,
                    "time": 78.47765249999983,
                    "velocity": 0.4409448818897638,
                    "duration": 0.30775549999999896
                },
                {
                    "name": "D3",
                    "midi": 50,
                    "time": 78.78540799999983,
                    "velocity": 0.5826771653543307,
                    "duration": 0.30775549999999896
                },
                {
                    "name": "A#3",
                    "midi": 58,
                    "time": 79.09316349999983,
                    "velocity": 0.5826771653543307,
                    "duration": 0.30775549999999896
                },
                {
                    "name": "D#4",
                    "midi": 63,
                    "time": 79.40091899999983,
                    "velocity": 0.4645669291338583,
                    "duration": 0.30775549999999896
                },
                {
                    "name": "F#4",
                    "midi": 66,
                    "time": 79.40091899999983,
                    "velocity": 0.5511811023622047,
                    "duration": 0.30775549999999896
                },
                {
                    "name": "D#3",
                    "midi": 51,
                    "time": 79.70867449999983,
                    "velocity": 0.6220472440944882,
                    "duration": 0.30775549999999896
                },
                {
                    "name": "C4",
                    "midi": 60,
                    "time": 80.01642999999983,
                    "velocity": 0.6141732283464567,
                    "duration": 0.30775549999999896
                },
                {
                    "name": "F#4",
                    "midi": 66,
                    "time": 80.32418549999983,
                    "velocity": 0.5669291338582677,
                    "duration": 0.30775549999999896
                },
                {
                    "name": "D#4",
                    "midi": 63,
                    "time": 80.32418549999983,
                    "velocity": 0.48031496062992124,
                    "duration": 0.30775549999999896
                },
                {
                    "name": "D#3",
                    "midi": 51,
                    "time": 80.63194099999983,
                    "velocity": 0.5511811023622047,
                    "duration": 0.30775549999999896
                },
                {
                    "name": "C4",
                    "midi": 60,
                    "time": 80.93969649999983,
                    "velocity": 0.5590551181102362,
                    "duration": 0.30775549999999896
                },
                {
                    "name": "D#4",
                    "midi": 63,
                    "time": 81.24745199999983,
                    "velocity": 0.41732283464566927,
                    "duration": 0.30775549999999896
                },
                {
                    "name": "F#4",
                    "midi": 66,
                    "time": 81.24745199999983,
                    "velocity": 0.49606299212598426,
                    "duration": 0.30775549999999896
                },
                {
                    "name": "D#3",
                    "midi": 51,
                    "time": 81.55520749999982,
                    "velocity": 0.4330708661417323,
                    "duration": 0.30775549999999896
                },
                {
                    "name": "C4",
                    "midi": 60,
                    "time": 81.86296299999982,
                    "velocity": 0.41732283464566927,
                    "duration": 0.30775549999999896
                },
                {
                    "name": "F#4",
                    "midi": 66,
                    "time": 82.17071849999982,
                    "velocity": 0.4409448818897638,
                    "duration": 0.30775549999999896
                },
                {
                    "name": "D#4",
                    "midi": 63,
                    "time": 82.17071849999982,
                    "velocity": 0.3779527559055118,
                    "duration": 0.30775549999999896
                },
                {
                    "name": "D#3",
                    "midi": 51,
                    "time": 82.47847399999982,
                    "velocity": 0.4015748031496063,
                    "duration": 0.30775549999999896
                },
                {
                    "name": "C4",
                    "midi": 60,
                    "time": 82.78622949999982,
                    "velocity": 0.3779527559055118,
                    "duration": 0.30775549999999896
                },
                {
                    "name": "D#4",
                    "midi": 63,
                    "time": 83.09398499999982,
                    "velocity": 0.31496062992125984,
                    "duration": 0.30775549999999896
                },
                {
                    "name": "F#4",
                    "midi": 66,
                    "time": 83.09398499999982,
                    "velocity": 0.3700787401574803,
                    "duration": 0.30775549999999896
                },
                {
                    "name": "D#3",
                    "midi": 51,
                    "time": 83.40174049999982,
                    "velocity": 0.31496062992125984,
                    "duration": 0.30775549999999896
                },
                {
                    "name": "C4",
                    "midi": 60,
                    "time": 83.70949599999982,
                    "velocity": 0.2992125984251969,
                    "duration": 0.30775549999999896
                },
                {
                    "name": "E3",
                    "midi": 52,
                    "time": 84.01725149999982,
                    "velocity": 0.25196850393700787,
                    "duration": 0.30775549999999896
                },
                {
                    "name": "E2",
                    "midi": 40,
                    "time": 84.32500699999981,
                    "velocity": 0.2283464566929134,
                    "duration": 0.30775549999999896
                },
                {
                    "name": "E3",
                    "midi": 52,
                    "time": 84.63276249999981,
                    "velocity": 0.2283464566929134,
                    "duration": 0.30775549999999896
                },
                {
                    "name": "C4",
                    "midi": 60,
                    "time": 84.94051799999981,
                    "velocity": 0.25196850393700787,
                    "duration": 0.30775549999999896
                },
                {
                    "name": "A3",
                    "midi": 57,
                    "time": 84.94051799999981,
                    "velocity": 0.2125984251968504,
                    "duration": 0.30775549999999896
                },
                {
                    "name": "E2",
                    "midi": 40,
                    "time": 85.24827349999981,
                    "velocity": 0.2283464566929134,
                    "duration": 0.30775549999999896
                },
                {
                    "name": "E3",
                    "midi": 52,
                    "time": 85.55602899999981,
                    "velocity": 0.2283464566929134,
                    "duration": 0.30775549999999896
                },
                {
                    "name": "C4",
                    "midi": 60,
                    "time": 85.86378449999981,
                    "velocity": 0.25196850393700787,
                    "duration": 0.30775549999999896
                },
                {
                    "name": "A3",
                    "midi": 57,
                    "time": 85.86378449999981,
                    "velocity": 0.2125984251968504,
                    "duration": 0.30775549999999896
                },
                {
                    "name": "E2",
                    "midi": 40,
                    "time": 86.17153999999981,
                    "velocity": 0.23622047244094488,
                    "duration": 0.30775549999999896
                },
                {
                    "name": "E3",
                    "midi": 52,
                    "time": 86.47929549999981,
                    "velocity": 0.23622047244094488,
                    "duration": 0.30775549999999896
                },
                {
                    "name": "C4",
                    "midi": 60,
                    "time": 86.7870509999998,
                    "velocity": 0.25196850393700787,
                    "duration": 0.30775549999998475
                },
                {
                    "name": "A3",
                    "midi": 57,
                    "time": 86.7870509999998,
                    "velocity": 0.2125984251968504,
                    "duration": 0.30775549999998475
                },
                {
                    "name": "E2",
                    "midi": 40,
                    "time": 87.09480649999979,
                    "velocity": 0.2283464566929134,
                    "duration": 0.30775549999999896
                },
                {
                    "name": "E3",
                    "midi": 52,
                    "time": 87.40256199999979,
                    "velocity": 0.2283464566929134,
                    "duration": 0.30775549999999896
                },
                {
                    "name": "C4",
                    "midi": 60,
                    "time": 87.71031749999979,
                    "velocity": 0.25196850393700787,
                    "duration": 0.30775549999999896
                },
                {
                    "name": "A3",
                    "midi": 57,
                    "time": 87.71031749999979,
                    "velocity": 0.2125984251968504,
                    "duration": 0.30775549999999896
                },
                {
                    "name": "E2",
                    "midi": 40,
                    "time": 88.01807299999979,
                    "velocity": 0.23622047244094488,
                    "duration": 0.30775549999999896
                },
                {
                    "name": "E3",
                    "midi": 52,
                    "time": 88.32582849999979,
                    "velocity": 0.23622047244094488,
                    "duration": 0.30775549999999896
                },
                {
                    "name": "F4",
                    "midi": 65,
                    "time": 88.63358399999979,
                    "velocity": 0.25196850393700787,
                    "duration": 0.9232664999999969
                },
                {
                    "name": "E3",
                    "midi": 52,
                    "time": 88.94133949999978,
                    "velocity": 0.2283464566929134,
                    "duration": 0.30775549999999896
                },
                {
                    "name": "A3",
                    "midi": 57,
                    "time": 89.24909499999978,
                    "velocity": 0.2283464566929134,
                    "duration": 0.30775549999999896
                },
                {
                    "name": "E4",
                    "midi": 64,
                    "time": 89.55685049999978,
                    "velocity": 0.2283464566929134,
                    "duration": 0.6155109999999979
                },
                {
                    "name": "E3",
                    "midi": 52,
                    "time": 89.86460599999978,
                    "velocity": 0.2125984251968504,
                    "duration": 0.30775549999999896
                },
                {
                    "name": "D4",
                    "midi": 62,
                    "time": 90.17236149999978,
                    "velocity": 0.2125984251968504,
                    "duration": 0.30775549999999896
                },
                {
                    "name": "A3",
                    "midi": 57,
                    "time": 90.48011699999978,
                    "velocity": 0.2047244094488189,
                    "duration": 0.30775549999999896
                },
                {
                    "name": "C#4",
                    "midi": 61,
                    "time": 90.48011699999978,
                    "velocity": 0.25196850393700787,
                    "duration": 0.30775549999999896
                },
                {
                    "name": "A2",
                    "midi": 45,
                    "time": 90.78787249999978,
                    "velocity": 0.2125984251968504,
                    "duration": 0.30775549999999896
                },
                {
                    "name": "E3",
                    "midi": 52,
                    "time": 91.09562799999978,
                    "velocity": 0.2125984251968504,
                    "duration": 0.30775549999999896
                },
                {
                    "name": "D4",
                    "midi": 62,
                    "time": 91.40338349999978,
                    "velocity": 0.2283464566929134,
                    "duration": 0.30775549999999896
                },
                {
                    "name": "F4",
                    "midi": 65,
                    "time": 91.40338349999978,
                    "velocity": 0.23622047244094488,
                    "duration": 0.30775549999999896
                },
                {
                    "name": "A2",
                    "midi": 45,
                    "time": 91.71113899999978,
                    "velocity": 0.25196850393700787,
                    "duration": 0.30775549999999896
                },
                {
                    "name": "A3",
                    "midi": 57,
                    "time": 92.01889449999977,
                    "velocity": 0.25196850393700787,
                    "duration": 0.30775549999999896
                },
                {
                    "name": "E4",
                    "midi": 64,
                    "time": 92.32664999999977,
                    "velocity": 0.28346456692913385,
                    "duration": 0.30775549999999896
                },
                {
                    "name": "C#4",
                    "midi": 61,
                    "time": 92.32664999999977,
                    "velocity": 0.23622047244094488,
                    "duration": 0.30775549999999896
                },
                {
                    "name": "A2",
                    "midi": 45,
                    "time": 92.63440549999977,
                    "velocity": 0.25196850393700787,
                    "duration": 0.30775549999999896
                },
                {
                    "name": "A3",
                    "midi": 57,
                    "time": 92.94216099999977,
                    "velocity": 0.25196850393700787,
                    "duration": 0.30775549999999896
                },
                {
                    "name": "F4",
                    "midi": 65,
                    "time": 93.24991649999977,
                    "velocity": 0.28346456692913385,
                    "duration": 0.30775549999999896
                },
                {
                    "name": "D4",
                    "midi": 62,
                    "time": 93.24991649999977,
                    "velocity": 0.23622047244094488,
                    "duration": 0.30775549999999896
                },
                {
                    "name": "D2",
                    "midi": 38,
                    "time": 93.55767199999977,
                    "velocity": 0.25196850393700787,
                    "duration": 0.30775549999999896
                },
                {
                    "name": "A3",
                    "midi": 57,
                    "time": 93.86542749999977,
                    "velocity": 0.23622047244094488,
                    "duration": 0.30775549999999896
                },
                {
                    "name": "E4",
                    "midi": 64,
                    "time": 94.17318299999977,
                    "velocity": 0.28346456692913385,
                    "duration": 0.30775549999999896
                },
                {
                    "name": "C#4",
                    "midi": 61,
                    "time": 94.17318299999977,
                    "velocity": 0.23622047244094488,
                    "duration": 0.30775549999999896
                },
                {
                    "name": "A2",
                    "midi": 45,
                    "time": 94.48093849999977,
                    "velocity": 0.25196850393700787,
                    "duration": 0.30775549999999896
                },
                {
                    "name": "A3",
                    "midi": 57,
                    "time": 94.78869399999977,
                    "velocity": 0.25196850393700787,
                    "duration": 0.30775549999999896
                },
                {
                    "name": "D4",
                    "midi": 62,
                    "time": 95.09644949999976,
                    "velocity": 0.2283464566929134,
                    "duration": 0.30775549999999896
                },
                {
                    "name": "F4",
                    "midi": 65,
                    "time": 95.09644949999976,
                    "velocity": 0.23622047244094488,
                    "duration": 0.30775549999999896
                },
                {
                    "name": "A2",
                    "midi": 45,
                    "time": 95.40420499999976,
                    "velocity": 0.25196850393700787,
                    "duration": 0.30775549999999896
                },
                {
                    "name": "A3",
                    "midi": 57,
                    "time": 95.71196049999976,
                    "velocity": 0.25196850393700787,
                    "duration": 0.30775549999999896
                },
                {
                    "name": "E4",
                    "midi": 64,
                    "time": 96.01971599999976,
                    "velocity": 0.28346456692913385,
                    "duration": 0.30775549999999896
                },
                {
                    "name": "C#4",
                    "midi": 61,
                    "time": 96.01971599999976,
                    "velocity": 0.23622047244094488,
                    "duration": 0.30775549999999896
                },
                {
                    "name": "A2",
                    "midi": 45,
                    "time": 96.32747149999976,
                    "velocity": 0.25196850393700787,
                    "duration": 0.30775549999999896
                },
                {
                    "name": "A3",
                    "midi": 57,
                    "time": 96.63522699999976,
                    "velocity": 0.25196850393700787,
                    "duration": 0.30775549999999896
                },
                {
                    "name": "F4",
                    "midi": 65,
                    "time": 96.94298249999976,
                    "velocity": 0.28346456692913385,
                    "duration": 0.30775549999999896
                },
                {
                    "name": "D4",
                    "midi": 62,
                    "time": 96.94298249999976,
                    "velocity": 0.23622047244094488,
                    "duration": 0.30775549999999896
                },
                {
                    "name": "D2",
                    "midi": 38,
                    "time": 97.25073799999976,
                    "velocity": 0.25196850393700787,
                    "duration": 0.30775549999999896
                },
                {
                    "name": "A3",
                    "midi": 57,
                    "time": 97.55849349999976,
                    "velocity": 0.23622047244094488,
                    "duration": 0.30775549999999896
                },
                {
                    "name": "E4",
                    "midi": 64,
                    "time": 97.86624899999975,
                    "velocity": 0.28346456692913385,
                    "duration": 0.30775549999999896
                },
                {
                    "name": "C#4",
                    "midi": 61,
                    "time": 97.86624899999975,
                    "velocity": 0.1968503937007874,
                    "duration": 0.30775549999999896
                },
                {
                    "name": "A2",
                    "midi": 45,
                    "time": 98.17400449999975,
                    "velocity": 0.25196850393700787,
                    "duration": 0.30775549999999896
                },
                {
                    "name": "E3",
                    "midi": 52,
                    "time": 98.48175999999975,
                    "velocity": 0.25196850393700787,
                    "duration": 0.30775549999999896
                },
                {
                    "name": "A3",
                    "midi": 57,
                    "time": 98.78951549999975,
                    "velocity": 0.2204724409448819,
                    "duration": 0.30775549999999896
                },
                {
                    "name": "C#4",
                    "midi": 61,
                    "time": 98.78951549999975,
                    "velocity": 0.2677165354330709,
                    "duration": 0.30775549999999896
                },
                {
                    "name": "A2",
                    "midi": 45,
                    "time": 99.09727099999975,
                    "velocity": 0.2283464566929134,
                    "duration": 0.30775549999999896
                },
                {
                    "name": "E3",
                    "midi": 52,
                    "time": 99.40502649999975,
                    "velocity": 0.2283464566929134,
                    "duration": 0.30775549999999896
                },
                {
                    "name": "C#4",
                    "midi": 61,
                    "time": 99.71278199999975,
                    "velocity": 0.2677165354330709,
                    "duration": 0.30775549999999896
                },
                {
                    "name": "A3",
                    "midi": 57,
                    "time": 99.71278199999975,
                    "velocity": 0.2204724409448819,
                    "duration": 0.30775549999999896
                },
                {
                    "name": "A2",
                    "midi": 45,
                    "time": 100.02053749999975,
                    "velocity": 0.2283464566929134,
                    "duration": 0.30775549999999896
                },
                {
                    "name": "E3",
                    "midi": 52,
                    "time": 100.32829299999975,
                    "velocity": 0.2283464566929134,
                    "duration": 0.30775549999999896
                },
                {
                    "name": "C#4",
                    "midi": 61,
                    "time": 100.63604849999975,
                    "velocity": 0.2204724409448819,
                    "duration": 0.30775549999999896
                },
                {
                    "name": "A3",
                    "midi": 57,
                    "time": 100.63604849999975,
                    "velocity": 0.18110236220472442,
                    "duration": 0.30775549999999896
                },
                {
                    "name": "A2",
                    "midi": 45,
                    "time": 100.94380399999974,
                    "velocity": 0.2204724409448819,
                    "duration": 0.30775549999999896
                },
                {
                    "name": "E3",
                    "midi": 52,
                    "time": 101.25155949999974,
                    "velocity": 0.2204724409448819,
                    "duration": 0.30775549999999896
                },
                {
                    "name": "C#4",
                    "midi": 61,
                    "time": 101.55931499999974,
                    "velocity": 0.25196850393700787,
                    "duration": 0.30775549999999896
                },
                {
                    "name": "A3",
                    "midi": 57,
                    "time": 101.55931499999974,
                    "velocity": 0.2125984251968504,
                    "duration": 0.30775549999999896
                },
                {
                    "name": "A2",
                    "midi": 45,
                    "time": 101.86707049999974,
                    "velocity": 0.2204724409448819,
                    "duration": 0.30775549999999896
                },
                {
                    "name": "E3",
                    "midi": 52,
                    "time": 102.17482599999974,
                    "velocity": 0.2204724409448819,
                    "duration": 0.30775549999999896
                },
                {
                    "name": "C#4",
                    "midi": 61,
                    "time": 102.48258149999974,
                    "velocity": 0.25196850393700787,
                    "duration": 0.30775549999999896
                },
                {
                    "name": "A3",
                    "midi": 57,
                    "time": 102.48258149999974,
                    "velocity": 0.2125984251968504,
                    "duration": 0.30775549999999896
                },
                {
                    "name": "A4",
                    "midi": 69,
                    "time": 103.40584799999974,
                    "velocity": 0.5118110236220472,
                    "duration": 0.30775549999999896
                },
                {
                    "name": "E4",
                    "midi": 64,
                    "time": 103.71360349999973,
                    "velocity": 0.47244094488188976,
                    "duration": 1.2310219999999958
                },
                {
                    "name": "A3",
                    "midi": 57,
                    "time": 105.25238099999973,
                    "velocity": 0.3937007874015748,
                    "duration": 0.30775549999999896
                },
                {
                    "name": "E3",
                    "midi": 52,
                    "time": 105.56013649999973,
                    "velocity": 0.33858267716535434,
                    "duration": 1.2310219999999958
                },
                {
                    "name": "A1",
                    "midi": 33,
                    "time": 107.09891399999972,
                    "velocity": 0.15748031496062992,
                    "duration": 0.30775549999999896
                },
                {
                    "name": "A2",
                    "midi": 45,
                    "time": 107.09891399999972,
                    "velocity": 0.1889763779527559,
                    "duration": 0.30775549999999896
                },
                {
                    "name": "A1",
                    "midi": 33,
                    "time": 108.02218049999972,
                    "velocity": 0.15748031496062992,
                    "duration": 0.30775549999999896
                },
                {
                    "name": "A2",
                    "midi": 45,
                    "time": 108.02218049999972,
                    "velocity": 0.1889763779527559,
                    "duration": 0.30775549999999896
                },
                {
                    "name": "A1",
                    "midi": 33,
                    "time": 108.94544699999972,
                    "velocity": 0.15748031496062992,
                    "duration": 0.30775549999999896
                },
                {
                    "name": "A2",
                    "midi": 45,
                    "time": 108.94544699999972,
                    "velocity": 0.1889763779527559,
                    "duration": 0.30775549999999896
                }
            ],
            "controlChanges": {
                "7": [
                    {
                        "number": 7,
                        "time": 0,
                        "value": 1
                    }
                ],
                "10": [
                    {
                        "number": 10,
                        "time": 0,
                        "value": 0.5039370078740157
                    }
                ],
                "64": [
                    {
                        "number": 64,
                        "time": 0,
                        "value": 0
                    },
                    {
                        "number": 64,
                        "time": 1.8465329999999995,
                        "value": 1
                    },
                    {
                        "number": 64,
                        "time": 11.088174202083339,
                        "value": 0
                    },
                    {
                        "number": 64,
                        "time": 11.216405660416672,
                        "value": 1
                    },
                    {
                        "number": 64,
                        "time": 12.934707202083343,
                        "value": 0
                    },
                    {
                        "number": 64,
                        "time": 13.062938660416677,
                        "value": 1
                    },
                    {
                        "number": 64,
                        "time": 13.701531322916678,
                        "value": 0
                    },
                    {
                        "number": 64,
                        "time": 13.905419341666677,
                        "value": 1
                    },
                    {
                        "number": 64,
                        "time": 14.777393258333346,
                        "value": 0
                    },
                    {
                        "number": 64,
                        "time": 14.877413795833347,
                        "value": 1
                    },
                    {
                        "number": 64,
                        "time": 16.625208572916677,
                        "value": 0
                    },
                    {
                        "number": 64,
                        "time": 16.735487627083344,
                        "value": 1
                    },
                    {
                        "number": 64,
                        "time": 18.475588516666672,
                        "value": 0
                    },
                    {
                        "number": 64,
                        "time": 18.602537660416672,
                        "value": 1
                    },
                    {
                        "number": 64,
                        "time": 19.40013733125,
                        "value": 0
                    },
                    {
                        "number": 64,
                        "time": 19.460406116666668,
                        "value": 1
                    },
                    {
                        "number": 64,
                        "time": 20.32083920208333,
                        "value": 0
                    },
                    {
                        "number": 64,
                        "time": 20.449070660416663,
                        "value": 1
                    },
                    {
                        "number": 64,
                        "time": 21.242823387499993,
                        "value": 0
                    },
                    {
                        "number": 64,
                        "time": 21.327456149999993,
                        "value": 1
                    },
                    {
                        "number": 64,
                        "time": 22.16608988749999,
                        "value": 0
                    },
                    {
                        "number": 64,
                        "time": 22.278933570833324,
                        "value": 1
                    },
                    {
                        "number": 64,
                        "time": 27.70568888749997,
                        "value": 0
                    },
                    {
                        "number": 64,
                        "time": 27.835202660416638,
                        "value": 1
                    },
                    {
                        "number": 64,
                        "time": 29.553504202083296,
                        "value": 0
                    },
                    {
                        "number": 64,
                        "time": 29.681735660416628,
                        "value": 1
                    },
                    {
                        "number": 64,
                        "time": 30.320328322916627,
                        "value": 0
                    },
                    {
                        "number": 64,
                        "time": 30.524216341666627,
                        "value": 1
                    },
                    {
                        "number": 64,
                        "time": 31.40003720208329,
                        "value": 0
                    },
                    {
                        "number": 64,
                        "time": 31.48851690833329,
                        "value": 1
                    },
                    {
                        "number": 64,
                        "time": 33.249134831249954,
                        "value": 0
                    },
                    {
                        "number": 64,
                        "time": 33.35428462708329,
                        "value": 1
                    },
                    {
                        "number": 64,
                        "time": 35.093103202083284,
                        "value": 0
                    },
                    {
                        "number": 64,
                        "time": 35.221334660416616,
                        "value": 1
                    },
                    {
                        "number": 64,
                        "time": 36.01893433124995,
                        "value": 0
                    },
                    {
                        "number": 64,
                        "time": 36.07920311666662,
                        "value": 1
                    },
                    {
                        "number": 64,
                        "time": 36.943483145833284,
                        "value": 0
                    },
                    {
                        "number": 64,
                        "time": 37.06786766041662,
                        "value": 1
                    },
                    {
                        "number": 64,
                        "time": 37.86162038749995,
                        "value": 0
                    },
                    {
                        "number": 64,
                        "time": 37.95907629583328,
                        "value": 1
                    },
                    {
                        "number": 64,
                        "time": 38.78488688749994,
                        "value": 0
                    },
                    {
                        "number": 64,
                        "time": 38.87464890833327,
                        "value": 1
                    },
                    {
                        "number": 64,
                        "time": 39.71328264583327,
                        "value": 0
                    },
                    {
                        "number": 64,
                        "time": 39.84664336249993,
                        "value": 1
                    },
                    {
                        "number": 64,
                        "time": 40.632702202083266,
                        "value": 0
                    },
                    {
                        "number": 64,
                        "time": 40.682712470833266,
                        "value": 1
                    },
                    {
                        "number": 64,
                        "time": 41.429019558333266,
                        "value": 0
                    },
                    {
                        "number": 64,
                        "time": 41.5918735104166,
                        "value": 1
                    },
                    {
                        "number": 64,
                        "time": 42.47282362916659,
                        "value": 0
                    },
                    {
                        "number": 64,
                        "time": 42.64593609791659,
                        "value": 1
                    },
                    {
                        "number": 64,
                        "time": 43.40634864583325,
                        "value": 0
                    },
                    {
                        "number": 64,
                        "time": 43.53970936249991,
                        "value": 1
                    },
                    {
                        "number": 64,
                        "time": 44.32448588749991,
                        "value": 0
                    },
                    {
                        "number": 64,
                        "time": 44.37577847083325,
                        "value": 1
                    },
                    {
                        "number": 64,
                        "time": 45.12208555833325,
                        "value": 0
                    },
                    {
                        "number": 64,
                        "time": 45.37598384583325,
                        "value": 1
                    },
                    {
                        "number": 64,
                        "time": 46.16973657291658,
                        "value": 0
                    },
                    {
                        "number": 64,
                        "time": 46.33900209791658,
                        "value": 1
                    },
                    {
                        "number": 64,
                        "time": 48.01626957291657,
                        "value": 0
                    },
                    {
                        "number": 64,
                        "time": 48.11244316666657,
                        "value": 1
                    },
                    {
                        "number": 64,
                        "time": 48.94338301666657,
                        "value": 0
                    },
                    {
                        "number": 64,
                        "time": 49.07930836249991,
                        "value": 1
                    },
                    {
                        "number": 64,
                        "time": 49.86280257291658,
                        "value": 0
                    },
                    {
                        "number": 64,
                        "time": 50.00385717708325,
                        "value": 1
                    },
                    {
                        "number": 64,
                        "time": 50.78991601666658,
                        "value": 0
                    },
                    {
                        "number": 64,
                        "time": 50.94122913749992,
                        "value": 1
                    },
                    {
                        "number": 64,
                        "time": 51.71446483124992,
                        "value": 0
                    },
                    {
                        "number": 64,
                        "time": 51.835002402083255,
                        "value": 1
                    },
                    {
                        "number": 64,
                        "time": 52.635166702083254,
                        "value": 0
                    },
                    {
                        "number": 64,
                        "time": 52.78776213749992,
                        "value": 1
                    },
                    {
                        "number": 64,
                        "time": 53.55843320208325,
                        "value": 0
                    },
                    {
                        "number": 64,
                        "time": 53.74052187291658,
                        "value": 1
                    },
                    {
                        "number": 64,
                        "time": 58.1657894999999,
                        "value": 0
                    },
                    {
                        "number": 64,
                        "time": 58.311973362499906,
                        "value": 1
                    },
                    {
                        "number": 64,
                        "time": 60.94456520208323,
                        "value": 0
                    },
                    {
                        "number": 64,
                        "time": 61.06766740208323,
                        "value": 1
                    },
                    {
                        "number": 64,
                        "time": 62.78981588749989,
                        "value": 0
                    },
                    {
                        "number": 64,
                        "time": 62.91932966041656,
                        "value": 1
                    },
                    {
                        "number": 64,
                        "time": 63.70923544374989,
                        "value": 0
                    },
                    {
                        "number": 64,
                        "time": 63.764374970833224,
                        "value": 1
                    },
                    {
                        "number": 64,
                        "time": 64.62865499999988,
                        "value": 0
                    },
                    {
                        "number": 64,
                        "time": 64.76458034583321,
                        "value": 1
                    },
                    {
                        "number": 64,
                        "time": 65.56474464583322,
                        "value": 0
                    },
                    {
                        "number": 64,
                        "time": 65.69810536249989,
                        "value": 1
                    },
                    {
                        "number": 64,
                        "time": 66.48159957291655,
                        "value": 0
                    },
                    {
                        "number": 64,
                        "time": 66.53417447083322,
                        "value": 1
                    },
                    {
                        "number": 64,
                        "time": 67.28048155833322,
                        "value": 0
                    },
                    {
                        "number": 64,
                        "time": 67.50745123958322,
                        "value": 1
                    },
                    {
                        "number": 64,
                        "time": 68.32941488749988,
                        "value": 0
                    },
                    {
                        "number": 64,
                        "time": 68.49739809791654,
                        "value": 1
                    },
                    {
                        "number": 64,
                        "time": 69.25781064583322,
                        "value": 0
                    },
                    {
                        "number": 64,
                        "time": 69.39117136249989,
                        "value": 1
                    },
                    {
                        "number": 64,
                        "time": 70.17594788749989,
                        "value": 0
                    },
                    {
                        "number": 64,
                        "time": 70.22724047083322,
                        "value": 1
                    },
                    {
                        "number": 64,
                        "time": 70.97354755833322,
                        "value": 0
                    },
                    {
                        "number": 64,
                        "time": 71.13640151041655,
                        "value": 1
                    },
                    {
                        "number": 64,
                        "time": 72.02248088749988,
                        "value": 0
                    },
                    {
                        "number": 64,
                        "time": 72.19046409791655,
                        "value": 1
                    },
                    {
                        "number": 64,
                        "time": 73.86901388749988,
                        "value": 0
                    },
                    {
                        "number": 64,
                        "time": 73.96390516666654,
                        "value": 1
                    },
                    {
                        "number": 64,
                        "time": 74.79612733124986,
                        "value": 0
                    },
                    {
                        "number": 64,
                        "time": 74.93077036249986,
                        "value": 1
                    },
                    {
                        "number": 64,
                        "time": 75.71426457291652,
                        "value": 0
                    },
                    {
                        "number": 64,
                        "time": 75.79633270624986,
                        "value": 1
                    },
                    {
                        "number": 64,
                        "time": 76.64009570208319,
                        "value": 0
                    },
                    {
                        "number": 64,
                        "time": 76.73370466666653,
                        "value": 1
                    },
                    {
                        "number": 64,
                        "time": 77.55951525833318,
                        "value": 0
                    },
                    {
                        "number": 64,
                        "time": 77.68646440208317,
                        "value": 1
                    },
                    {
                        "number": 64,
                        "time": 78.48662870208317,
                        "value": 0
                    },
                    {
                        "number": 64,
                        "time": 78.56613220624983,
                        "value": 1
                    },
                    {
                        "number": 64,
                        "time": 79.40604825833316,
                        "value": 0
                    },
                    {
                        "number": 64,
                        "time": 79.51760962708316,
                        "value": 1
                    },
                    {
                        "number": 64,
                        "time": 84.01725149999982,
                        "value": 0
                    },
                    {
                        "number": 64,
                        "time": 84.16215304791648,
                        "value": 1
                    },
                    {
                        "number": 64,
                        "time": 86.79346257291647,
                        "value": 0
                    },
                    {
                        "number": 64,
                        "time": 86.91912940208313,
                        "value": 1
                    },
                    {
                        "number": 64,
                        "time": 88.63999557291645,
                        "value": 0
                    },
                    {
                        "number": 64,
                        "time": 88.77079166041645,
                        "value": 1
                    },
                    {
                        "number": 64,
                        "time": 89.56069744374979,
                        "value": 0
                    },
                    {
                        "number": 64,
                        "time": 89.61583697083312,
                        "value": 1
                    },
                    {
                        "number": 64,
                        "time": 90.48011699999978,
                        "value": 0
                    },
                    {
                        "number": 64,
                        "time": 90.62630086249978,
                        "value": 1
                    },
                    {
                        "number": 64,
                        "time": 91.41235970208311,
                        "value": 0
                    },
                    {
                        "number": 64,
                        "time": 91.54956736249977,
                        "value": 1
                    },
                    {
                        "number": 64,
                        "time": 92.33049694374978,
                        "value": 0
                    },
                    {
                        "number": 64,
                        "time": 92.3856364708331,
                        "value": 1
                    },
                    {
                        "number": 64,
                        "time": 93.1319435583331,
                        "value": 0
                    },
                    {
                        "number": 64,
                        "time": 93.36276018333311,
                        "value": 1
                    },
                    {
                        "number": 64,
                        "time": 94.18087688749976,
                        "value": 0
                    },
                    {
                        "number": 64,
                        "time": 94.34886009791643,
                        "value": 1
                    },
                    {
                        "number": 64,
                        "time": 95.10670801666643,
                        "value": 0
                    },
                    {
                        "number": 64,
                        "time": 95.24263336249976,
                        "value": 1
                    },
                    {
                        "number": 64,
                        "time": 96.02869220208309,
                        "value": 0
                    },
                    {
                        "number": 64,
                        "time": 96.0787024708331,
                        "value": 1
                    },
                    {
                        "number": 64,
                        "time": 96.8250095583331,
                        "value": 0
                    },
                    {
                        "number": 64,
                        "time": 96.98786351041642,
                        "value": 1
                    },
                    {
                        "number": 64,
                        "time": 97.87266057291642,
                        "value": 0
                    },
                    {
                        "number": 64,
                        "time": 98.04192609791642,
                        "value": 1
                    },
                    {
                        "number": 64,
                        "time": 98.79849170208308,
                        "value": 0
                    },
                    {
                        "number": 64,
                        "time": 98.87158363333309,
                        "value": 1
                    },
                    {
                        "number": 64,
                        "time": 111.06511300624972,
                        "value": 0
                    }
                ]
            },
            "id": 2,
            "name": "Piano left",
            "instrumentNumber": 0,
            "instrument": "acoustic grand piano",
            "instrumentFamily": "piano",
            "channelNumber": 0,
            "isPercussion": false
        },
        {
            "startTime": 0,
            "duration": 0,
            "length": 0,
            "notes": [],
            "controlChanges": {},
            "id": 3,
            "name": "Mendelssohn: Songs without Words, Op. 62 No. 5"
        },
        {
            "startTime": 0,
            "duration": 0,
            "length": 0,
            "notes": [],
            "controlChanges": {},
            "id": 4,
            "name": "Copyright  2004 by Bernd Krger"
        },
        {
            "startTime": 0,
            "duration": 0,
            "length": 0,
            "notes": [],
            "controlChanges": {},
            "id": 5,
            "name": "http://www.piano-midi.de"
        },
        {
            "startTime": 0,
            "duration": 0,
            "length": 0,
            "notes": [],
            "controlChanges": {},
            "id": 6,
            "name": "Edition: 2014-04-03"
        },
        {
            "startTime": 0,
            "duration": 0,
            "length": 0,
            "notes": [],
            "controlChanges": {},
            "id": 7,
            "name": "Spur 7"
        }
    ]
}