{
    "header": {
        "PPQ": 480,
        "timeSignature": [
            8,
            4
        ],
        "bpm": 56.92000178349339,
        "name": "Wandererfantasie D760, 2. Satz"
    },
    "startTime": 0,
    "duration": 472.2417279999929,
    "tracks": [
        {
            "startTime": 0,
            "duration": 0,
            "length": 0,
            "notes": [],
            "controlChanges": {},
            "id": 0,
            "name": "Wandererfantasie D760, 2. Satz"
        },
        {
            "startTime": 0,
            "duration": 465.917061999998,
            "length": 1779,
            "notes": [
                {
                    "name": "G#3",
                    "midi": 56,
                    "time": 0,
                    "velocity": 0.2283464566929134,
                    "duration": 2.108222
                },
                {
                    "name": "C#4",
                    "midi": 61,
                    "time": 0,
                    "velocity": 0.2283464566929134,
                    "duration": 2.108222
                },
                {
                    "name": "E4",
                    "midi": 64,
                    "time": 0,
                    "velocity": 0.2283464566929134,
                    "duration": 2.108222
                },
                {
                    "name": "G#4",
                    "midi": 68,
                    "time": 0,
                    "velocity": 0.2755905511811024,
                    "duration": 2.108222
                },
                {
                    "name": "G#3",
                    "midi": 56,
                    "time": 2.108222,
                    "velocity": 0.2204724409448819,
                    "duration": 1.0431306770833335
                },
                {
                    "name": "C#4",
                    "midi": 61,
                    "time": 2.108222,
                    "velocity": 0.2204724409448819,
                    "duration": 1.0431306770833335
                },
                {
                    "name": "E4",
                    "midi": 64,
                    "time": 2.108222,
                    "velocity": 0.2204724409448819,
                    "duration": 1.0431306770833335
                },
                {
                    "name": "G#4",
                    "midi": 68,
                    "time": 2.108222,
                    "velocity": 0.2755905511811024,
                    "duration": 1.0431306770833335
                },
                {
                    "name": "G#3",
                    "midi": 56,
                    "time": 3.1623330000000003,
                    "velocity": 0.2283464566929134,
                    "duration": 1.043130677083333
                },
                {
                    "name": "E4",
                    "midi": 64,
                    "time": 3.1623330000000003,
                    "velocity": 0.2283464566929134,
                    "duration": 1.043130677083333
                },
                {
                    "name": "C#4",
                    "midi": 61,
                    "time": 3.1623330000000003,
                    "velocity": 0.2283464566929134,
                    "duration": 1.043130677083333
                },
                {
                    "name": "G#4",
                    "midi": 68,
                    "time": 3.1623330000000003,
                    "velocity": 0.2755905511811024,
                    "duration": 1.043130677083333
                },
                {
                    "name": "D#4",
                    "midi": 63,
                    "time": 4.216444,
                    "velocity": 0.29133858267716534,
                    "duration": 4.216444
                },
                {
                    "name": "F#4",
                    "midi": 66,
                    "time": 4.216444,
                    "velocity": 0.29133858267716534,
                    "duration": 4.216444
                },
                {
                    "name": "G#3",
                    "midi": 56,
                    "time": 4.216444,
                    "velocity": 0.29133858267716534,
                    "duration": 1.5811665000000001
                },
                {
                    "name": "G#4",
                    "midi": 68,
                    "time": 4.216444,
                    "velocity": 0.3464566929133858,
                    "duration": 1.5811665000000001
                },
                {
                    "name": "A3",
                    "midi": 57,
                    "time": 5.7976105,
                    "velocity": 0.30708661417322836,
                    "duration": 0.5270555000000003
                },
                {
                    "name": "A4",
                    "midi": 69,
                    "time": 5.7976105,
                    "velocity": 0.30708661417322836,
                    "duration": 0.5270555000000003
                },
                {
                    "name": "G#4",
                    "midi": 68,
                    "time": 6.324666000000001,
                    "velocity": 0.30708661417322836,
                    "duration": 2.1082219999999996
                },
                {
                    "name": "G#3",
                    "midi": 56,
                    "time": 6.324666000000001,
                    "velocity": 0.30708661417322836,
                    "duration": 2.1082219999999996
                },
                {
                    "name": "E4",
                    "midi": 64,
                    "time": 8.432888,
                    "velocity": 0.3464566929133858,
                    "duration": 2.1082219999999996
                },
                {
                    "name": "E3",
                    "midi": 52,
                    "time": 8.432888,
                    "velocity": 0.29133858267716534,
                    "duration": 2.1082219999999996
                },
                {
                    "name": "G#3",
                    "midi": 56,
                    "time": 8.432888,
                    "velocity": 0.29133858267716534,
                    "duration": 2.1082219999999996
                },
                {
                    "name": "C#4",
                    "midi": 61,
                    "time": 8.432888,
                    "velocity": 0.29133858267716534,
                    "duration": 2.1082219999999996
                },
                {
                    "name": "F#3",
                    "midi": 54,
                    "time": 10.54111,
                    "velocity": 0.33070866141732286,
                    "duration": 2.1082219999999996
                },
                {
                    "name": "A3",
                    "midi": 57,
                    "time": 10.54111,
                    "velocity": 0.33070866141732286,
                    "duration": 2.1082219999999996
                },
                {
                    "name": "C#4",
                    "midi": 61,
                    "time": 10.54111,
                    "velocity": 0.33070866141732286,
                    "duration": 2.1082219999999996
                },
                {
                    "name": "F#4",
                    "midi": 66,
                    "time": 10.54111,
                    "velocity": 0.4015748031496063,
                    "duration": 2.1082219999999996
                },
                {
                    "name": "G#3",
                    "midi": 56,
                    "time": 12.912859749999999,
                    "velocity": 0.30708661417322836,
                    "duration": 3.9529162500000012
                },
                {
                    "name": "C4",
                    "midi": 60,
                    "time": 12.9787416875,
                    "velocity": 0.3228346456692913,
                    "duration": 3.887034312500001
                },
                {
                    "name": "D#4",
                    "midi": 63,
                    "time": 13.044623625,
                    "velocity": 0.36220472440944884,
                    "duration": 3.8211523750000005
                },
                {
                    "name": "G#4",
                    "midi": 68,
                    "time": 13.1105055625,
                    "velocity": 0.3779527559055118,
                    "duration": 3.711349145833333
                },
                {
                    "name": "G#3",
                    "midi": 56,
                    "time": 16.865776,
                    "velocity": 0.25984251968503935,
                    "duration": 2.1082220000000014
                },
                {
                    "name": "C#4",
                    "midi": 61,
                    "time": 16.865776,
                    "velocity": 0.25984251968503935,
                    "duration": 2.1082220000000014
                },
                {
                    "name": "E4",
                    "midi": 64,
                    "time": 16.865776,
                    "velocity": 0.25984251968503935,
                    "duration": 2.1082220000000014
                },
                {
                    "name": "G#4",
                    "midi": 68,
                    "time": 16.865776,
                    "velocity": 0.30708661417322836,
                    "duration": 2.1082220000000014
                },
                {
                    "name": "G#3",
                    "midi": 56,
                    "time": 18.973998,
                    "velocity": 0.25984251968503935,
                    "duration": 1.043130677083333
                },
                {
                    "name": "C#4",
                    "midi": 61,
                    "time": 18.973998,
                    "velocity": 0.25984251968503935,
                    "duration": 1.043130677083333
                },
                {
                    "name": "E4",
                    "midi": 64,
                    "time": 18.973998,
                    "velocity": 0.25984251968503935,
                    "duration": 1.043130677083333
                },
                {
                    "name": "G#4",
                    "midi": 68,
                    "time": 18.973998,
                    "velocity": 0.31496062992125984,
                    "duration": 1.043130677083333
                },
                {
                    "name": "G#3",
                    "midi": 56,
                    "time": 20.028109,
                    "velocity": 0.28346456692913385,
                    "duration": 1.043130677083333
                },
                {
                    "name": "E4",
                    "midi": 64,
                    "time": 20.028109,
                    "velocity": 0.28346456692913385,
                    "duration": 1.043130677083333
                },
                {
                    "name": "C#4",
                    "midi": 61,
                    "time": 20.028109,
                    "velocity": 0.28346456692913385,
                    "duration": 1.043130677083333
                },
                {
                    "name": "G#4",
                    "midi": 68,
                    "time": 20.028109,
                    "velocity": 0.3464566929133858,
                    "duration": 1.043130677083333
                },
                {
                    "name": "F4",
                    "midi": 65,
                    "time": 21.08222,
                    "velocity": 0.31496062992125984,
                    "duration": 2.1082220000000014
                },
                {
                    "name": "D4",
                    "midi": 62,
                    "time": 21.08222,
                    "velocity": 0.31496062992125984,
                    "duration": 2.1082220000000014
                },
                {
                    "name": "G#4",
                    "midi": 68,
                    "time": 21.08222,
                    "velocity": 0.3464566929133858,
                    "duration": 2.1082220000000014
                },
                {
                    "name": "B4",
                    "midi": 71,
                    "time": 21.08222,
                    "velocity": 0.4015748031496063,
                    "duration": 2.1082220000000014
                },
                {
                    "name": "C#4",
                    "midi": 61,
                    "time": 23.190442,
                    "velocity": 0.30708661417322836,
                    "duration": 1.054110999999999
                },
                {
                    "name": "A4",
                    "midi": 69,
                    "time": 23.190442,
                    "velocity": 0.30708661417322836,
                    "duration": 1.054110999999999
                },
                {
                    "name": "F#4",
                    "midi": 66,
                    "time": 23.190442,
                    "velocity": 0.30708661417322836,
                    "duration": 1.054110999999999
                },
                {
                    "name": "F#3",
                    "midi": 54,
                    "time": 24.244553,
                    "velocity": 0.2755905511811024,
                    "duration": 1.054110999999999
                },
                {
                    "name": "C#4",
                    "midi": 61,
                    "time": 24.244553,
                    "velocity": 0.2755905511811024,
                    "duration": 1.054110999999999
                },
                {
                    "name": "F#4",
                    "midi": 66,
                    "time": 24.244553,
                    "velocity": 0.2755905511811024,
                    "duration": 1.054110999999999
                },
                {
                    "name": "E4",
                    "midi": 64,
                    "time": 25.298664,
                    "velocity": 0.30708661417322836,
                    "duration": 2.1082220000000014
                },
                {
                    "name": "G#3",
                    "midi": 56,
                    "time": 25.298664,
                    "velocity": 0.25984251968503935,
                    "duration": 2.1082220000000014
                },
                {
                    "name": "C#4",
                    "midi": 61,
                    "time": 25.298664,
                    "velocity": 0.25984251968503935,
                    "duration": 2.1082220000000014
                },
                {
                    "name": "F#3",
                    "midi": 54,
                    "time": 27.406886,
                    "velocity": 0.2677165354330709,
                    "duration": 2.1082220000000014
                },
                {
                    "name": "C4",
                    "midi": 60,
                    "time": 27.406886,
                    "velocity": 0.2677165354330709,
                    "duration": 2.1082220000000014
                },
                {
                    "name": "D#4",
                    "midi": 63,
                    "time": 27.406886,
                    "velocity": 0.2677165354330709,
                    "duration": 2.1082220000000014
                },
                {
                    "name": "G#4",
                    "midi": 68,
                    "time": 27.406886,
                    "velocity": 0.31496062992125984,
                    "duration": 2.1082220000000014
                },
                {
                    "name": "E3",
                    "midi": 52,
                    "time": 29.515108,
                    "velocity": 0.23622047244094488,
                    "duration": 3.1623330000000003
                },
                {
                    "name": "G#3",
                    "midi": 56,
                    "time": 29.515108,
                    "velocity": 0.23622047244094488,
                    "duration": 3.1623330000000003
                },
                {
                    "name": "C#4",
                    "midi": 61,
                    "time": 29.515108,
                    "velocity": 0.29133858267716534,
                    "duration": 2.5298663999999995
                },
                {
                    "name": "D#4",
                    "midi": 63,
                    "time": 32.0449744,
                    "velocity": 0.2755905511811024,
                    "duration": 0.42164439999999814
                },
                {
                    "name": "E4",
                    "midi": 64,
                    "time": 32.4666188,
                    "velocity": 0.28346456692913385,
                    "duration": 0.42164440000000525
                },
                {
                    "name": "F#4",
                    "midi": 66,
                    "time": 32.888263200000004,
                    "velocity": 0.29133858267716534,
                    "duration": 0.42164439999999814
                },
                {
                    "name": "A4",
                    "midi": 69,
                    "time": 33.3099076,
                    "velocity": 0.29133858267716534,
                    "duration": 0.42164439999999814
                },
                {
                    "name": "G#3",
                    "midi": 56,
                    "time": 33.731552,
                    "velocity": 0.2283464566929134,
                    "duration": 2.108221999999998
                },
                {
                    "name": "C#4",
                    "midi": 61,
                    "time": 33.731552,
                    "velocity": 0.2283464566929134,
                    "duration": 2.108221999999998
                },
                {
                    "name": "E4",
                    "midi": 64,
                    "time": 33.731552,
                    "velocity": 0.2283464566929134,
                    "duration": 2.108221999999998
                },
                {
                    "name": "G#4",
                    "midi": 68,
                    "time": 33.731552,
                    "velocity": 0.2755905511811024,
                    "duration": 2.108221999999998
                },
                {
                    "name": "G#3",
                    "midi": 56,
                    "time": 35.839774,
                    "velocity": 0.2204724409448819,
                    "duration": 1.043130677083333
                },
                {
                    "name": "C#4",
                    "midi": 61,
                    "time": 35.839774,
                    "velocity": 0.2204724409448819,
                    "duration": 1.043130677083333
                },
                {
                    "name": "E4",
                    "midi": 64,
                    "time": 35.839774,
                    "velocity": 0.2204724409448819,
                    "duration": 1.043130677083333
                },
                {
                    "name": "G#4",
                    "midi": 68,
                    "time": 35.839774,
                    "velocity": 0.2755905511811024,
                    "duration": 1.043130677083333
                },
                {
                    "name": "G#3",
                    "midi": 56,
                    "time": 36.893885,
                    "velocity": 0.2283464566929134,
                    "duration": 1.043130677083333
                },
                {
                    "name": "E4",
                    "midi": 64,
                    "time": 36.893885,
                    "velocity": 0.2283464566929134,
                    "duration": 1.043130677083333
                },
                {
                    "name": "C#4",
                    "midi": 61,
                    "time": 36.893885,
                    "velocity": 0.2283464566929134,
                    "duration": 1.043130677083333
                },
                {
                    "name": "G#4",
                    "midi": 68,
                    "time": 36.893885,
                    "velocity": 0.2755905511811024,
                    "duration": 1.043130677083333
                },
                {
                    "name": "D#4",
                    "midi": 63,
                    "time": 37.947995999999996,
                    "velocity": 0.29133858267716534,
                    "duration": 4.216444000000003
                },
                {
                    "name": "F#4",
                    "midi": 66,
                    "time": 37.947995999999996,
                    "velocity": 0.29133858267716534,
                    "duration": 4.216444000000003
                },
                {
                    "name": "G#3",
                    "midi": 56,
                    "time": 37.947995999999996,
                    "velocity": 0.29133858267716534,
                    "duration": 1.581166500000002
                },
                {
                    "name": "G#4",
                    "midi": 68,
                    "time": 37.947995999999996,
                    "velocity": 0.3464566929133858,
                    "duration": 1.581166500000002
                },
                {
                    "name": "A3",
                    "midi": 57,
                    "time": 39.5291625,
                    "velocity": 0.30708661417322836,
                    "duration": 0.527055500000003
                },
                {
                    "name": "A4",
                    "midi": 69,
                    "time": 39.5291625,
                    "velocity": 0.30708661417322836,
                    "duration": 0.527055500000003
                },
                {
                    "name": "G#4",
                    "midi": 68,
                    "time": 40.056218,
                    "velocity": 0.30708661417322836,
                    "duration": 2.108221999999998
                },
                {
                    "name": "G#3",
                    "midi": 56,
                    "time": 40.056218,
                    "velocity": 0.30708661417322836,
                    "duration": 2.108221999999998
                },
                {
                    "name": "E4",
                    "midi": 64,
                    "time": 42.16444,
                    "velocity": 0.3464566929133858,
                    "duration": 2.108221999999998
                },
                {
                    "name": "E3",
                    "midi": 52,
                    "time": 42.16444,
                    "velocity": 0.29133858267716534,
                    "duration": 2.108221999999998
                },
                {
                    "name": "G#3",
                    "midi": 56,
                    "time": 42.16444,
                    "velocity": 0.29133858267716534,
                    "duration": 2.108221999999998
                },
                {
                    "name": "C#4",
                    "midi": 61,
                    "time": 42.16444,
                    "velocity": 0.29133858267716534,
                    "duration": 2.108221999999998
                },
                {
                    "name": "F#3",
                    "midi": 54,
                    "time": 44.272662,
                    "velocity": 0.33070866141732286,
                    "duration": 2.108221999999998
                },
                {
                    "name": "A3",
                    "midi": 57,
                    "time": 44.272662,
                    "velocity": 0.33070866141732286,
                    "duration": 2.108221999999998
                },
                {
                    "name": "C#4",
                    "midi": 61,
                    "time": 44.272662,
                    "velocity": 0.33070866141732286,
                    "duration": 2.108221999999998
                },
                {
                    "name": "F#4",
                    "midi": 66,
                    "time": 44.272662,
                    "velocity": 0.4015748031496063,
                    "duration": 2.108221999999998
                },
                {
                    "name": "G#3",
                    "midi": 56,
                    "time": 46.644411749999996,
                    "velocity": 0.30708661417322836,
                    "duration": 3.9529162500000012
                },
                {
                    "name": "C4",
                    "midi": 60,
                    "time": 46.7102936875,
                    "velocity": 0.3228346456692913,
                    "duration": 3.887034312499999
                },
                {
                    "name": "D#4",
                    "midi": 63,
                    "time": 46.776175625,
                    "velocity": 0.36220472440944884,
                    "duration": 3.821152374999997
                },
                {
                    "name": "G#4",
                    "midi": 68,
                    "time": 46.8420575625,
                    "velocity": 0.3779527559055118,
                    "duration": 3.7113491458333314
                },
                {
                    "name": "G#3",
                    "midi": 56,
                    "time": 50.597328,
                    "velocity": 0.25984251968503935,
                    "duration": 2.108221999999998
                },
                {
                    "name": "C#4",
                    "midi": 61,
                    "time": 50.597328,
                    "velocity": 0.25984251968503935,
                    "duration": 2.108221999999998
                },
                {
                    "name": "E4",
                    "midi": 64,
                    "time": 50.597328,
                    "velocity": 0.25984251968503935,
                    "duration": 2.108221999999998
                },
                {
                    "name": "G#4",
                    "midi": 68,
                    "time": 50.597328,
                    "velocity": 0.30708661417322836,
                    "duration": 2.108221999999998
                },
                {
                    "name": "B3",
                    "midi": 59,
                    "time": 52.705549999999995,
                    "velocity": 0.25984251968503935,
                    "duration": 1.043130677083333
                },
                {
                    "name": "C#4",
                    "midi": 61,
                    "time": 52.705549999999995,
                    "velocity": 0.25984251968503935,
                    "duration": 1.043130677083333
                },
                {
                    "name": "F4",
                    "midi": 65,
                    "time": 52.705549999999995,
                    "velocity": 0.25984251968503935,
                    "duration": 1.043130677083333
                },
                {
                    "name": "G#4",
                    "midi": 68,
                    "time": 52.705549999999995,
                    "velocity": 0.31496062992125984,
                    "duration": 1.043130677083333
                },
                {
                    "name": "B3",
                    "midi": 59,
                    "time": 53.759660999999994,
                    "velocity": 0.28346456692913385,
                    "duration": 1.043130677083333
                },
                {
                    "name": "F4",
                    "midi": 65,
                    "time": 53.759660999999994,
                    "velocity": 0.28346456692913385,
                    "duration": 1.043130677083333
                },
                {
                    "name": "C#4",
                    "midi": 61,
                    "time": 53.759660999999994,
                    "velocity": 0.28346456692913385,
                    "duration": 1.043130677083333
                },
                {
                    "name": "G#4",
                    "midi": 68,
                    "time": 53.759660999999994,
                    "velocity": 0.3464566929133858,
                    "duration": 1.043130677083333
                },
                {
                    "name": "C#4",
                    "midi": 61,
                    "time": 54.81377199999999,
                    "velocity": 0.31496062992125984,
                    "duration": 3.1623329999999967
                },
                {
                    "name": "A3",
                    "midi": 57,
                    "time": 54.81377199999999,
                    "velocity": 0.31496062992125984,
                    "duration": 3.1623329999999967
                },
                {
                    "name": "F#4",
                    "midi": 66,
                    "time": 54.81377199999999,
                    "velocity": 0.3464566929133858,
                    "duration": 2.108221999999998
                },
                {
                    "name": "C#5",
                    "midi": 73,
                    "time": 54.81377199999999,
                    "velocity": 0.4015748031496063,
                    "duration": 2.108221999999998
                },
                {
                    "name": "A4",
                    "midi": 69,
                    "time": 56.92199399999999,
                    "velocity": 0.30708661417322836,
                    "duration": 1.054110999999999
                },
                {
                    "name": "A3",
                    "midi": 57,
                    "time": 57.97610499999999,
                    "velocity": 0.2755905511811024,
                    "duration": 1.054110999999999
                },
                {
                    "name": "C4",
                    "midi": 60,
                    "time": 57.97610499999999,
                    "velocity": 0.2755905511811024,
                    "duration": 1.054110999999999
                },
                {
                    "name": "F#4",
                    "midi": 66,
                    "time": 57.97610499999999,
                    "velocity": 0.2755905511811024,
                    "duration": 1.054110999999999
                },
                {
                    "name": "B4",
                    "midi": 71,
                    "time": 59.03021599999999,
                    "velocity": 0.30708661417322836,
                    "duration": 2.108221999999998
                },
                {
                    "name": "G#3",
                    "midi": 56,
                    "time": 59.03021599999999,
                    "velocity": 0.25984251968503935,
                    "duration": 2.108221999999998
                },
                {
                    "name": "E4",
                    "midi": 64,
                    "time": 59.03021599999999,
                    "velocity": 0.25984251968503935,
                    "duration": 2.108221999999998
                },
                {
                    "name": "A3",
                    "midi": 57,
                    "time": 61.13843799999999,
                    "velocity": 0.2677165354330709,
                    "duration": 2.108221999999998
                },
                {
                    "name": "B3",
                    "midi": 59,
                    "time": 61.13843799999999,
                    "velocity": 0.2677165354330709,
                    "duration": 2.108221999999998
                },
                {
                    "name": "D#4",
                    "midi": 63,
                    "time": 61.13843799999999,
                    "velocity": 0.31496062992125984,
                    "duration": 2.108221999999998
                },
                {
                    "name": "G#3",
                    "midi": 56,
                    "time": 63.246659999999984,
                    "velocity": 0.23622047244094488,
                    "duration": 3.1623329999999967
                },
                {
                    "name": "B3",
                    "midi": 59,
                    "time": 63.246659999999984,
                    "velocity": 0.23622047244094488,
                    "duration": 3.1623329999999967
                },
                {
                    "name": "E4",
                    "midi": 64,
                    "time": 63.246659999999984,
                    "velocity": 0.29133858267716534,
                    "duration": 2.529866399999996
                },
                {
                    "name": "F#4",
                    "midi": 66,
                    "time": 65.77652639999998,
                    "velocity": 0.2755905511811024,
                    "duration": 0.42164440000000525
                },
                {
                    "name": "G#4",
                    "midi": 68,
                    "time": 66.19817079999999,
                    "velocity": 0.28346456692913385,
                    "duration": 0.42164439999999104
                },
                {
                    "name": "A4",
                    "midi": 69,
                    "time": 66.61981519999998,
                    "velocity": 0.29133858267716534,
                    "duration": 0.42164440000000525
                },
                {
                    "name": "C#5",
                    "midi": 73,
                    "time": 67.04145959999998,
                    "velocity": 0.29133858267716534,
                    "duration": 0.42164440000000525
                },
                {
                    "name": "B4",
                    "midi": 71,
                    "time": 67.46310399999999,
                    "velocity": 0.2992125984251969,
                    "duration": 2.108222000000012
                },
                {
                    "name": "E4",
                    "midi": 64,
                    "time": 67.46310399999999,
                    "velocity": 0.2440944881889764,
                    "duration": 0.5709767916666664
                },
                {
                    "name": "F#4",
                    "midi": 66,
                    "time": 67.99015949999999,
                    "velocity": 0.1968503937007874,
                    "duration": 0.5709767916666664
                },
                {
                    "name": "E4",
                    "midi": 64,
                    "time": 68.517215,
                    "velocity": 0.2440944881889764,
                    "duration": 0.5709767916666664
                },
                {
                    "name": "F#4",
                    "midi": 66,
                    "time": 69.0442705,
                    "velocity": 0.1968503937007874,
                    "duration": 0.5709767916666664
                },
                {
                    "name": "G#4",
                    "midi": 68,
                    "time": 69.571326,
                    "velocity": 0.2440944881889764,
                    "duration": 0.5709767916666664
                },
                {
                    "name": "B4",
                    "midi": 71,
                    "time": 69.571326,
                    "velocity": 0.2992125984251969,
                    "duration": 1.054111000000006
                },
                {
                    "name": "F#4",
                    "midi": 66,
                    "time": 70.0983815,
                    "velocity": 0.1889763779527559,
                    "duration": 0.5709767916666664
                },
                {
                    "name": "B4",
                    "midi": 71,
                    "time": 70.625437,
                    "velocity": 0.2992125984251969,
                    "duration": 1.054111000000006
                },
                {
                    "name": "G#4",
                    "midi": 68,
                    "time": 70.625437,
                    "velocity": 0.2440944881889764,
                    "duration": 0.5709767916666664
                },
                {
                    "name": "E4",
                    "midi": 64,
                    "time": 71.15249250000001,
                    "velocity": 0.1889763779527559,
                    "duration": 0.527055500000003
                },
                {
                    "name": "D#4",
                    "midi": 63,
                    "time": 71.67954800000001,
                    "velocity": 0.2440944881889764,
                    "duration": 0.5709767916666664
                },
                {
                    "name": "B4",
                    "midi": 71,
                    "time": 71.67954800000001,
                    "velocity": 0.3779527559055118,
                    "duration": 1.581166500000009
                },
                {
                    "name": "E4",
                    "midi": 64,
                    "time": 72.20660350000001,
                    "velocity": 0.1889763779527559,
                    "duration": 0.5709767916666664
                },
                {
                    "name": "D#4",
                    "midi": 63,
                    "time": 72.73365900000002,
                    "velocity": 0.2440944881889764,
                    "duration": 0.5709767916666664
                },
                {
                    "name": "E4",
                    "midi": 64,
                    "time": 73.26071450000002,
                    "velocity": 0.1968503937007874,
                    "duration": 0.5709767916666664
                },
                {
                    "name": "C#5",
                    "midi": 73,
                    "time": 73.26071450000002,
                    "velocity": 0.33070866141732286,
                    "duration": 0.527055500000003
                },
                {
                    "name": "B4",
                    "midi": 71,
                    "time": 73.78777000000002,
                    "velocity": 0.33070866141732286,
                    "duration": 2.108222000000012
                },
                {
                    "name": "F#4",
                    "midi": 66,
                    "time": 73.78777000000002,
                    "velocity": 0.2440944881889764,
                    "duration": 0.5709767916666664
                },
                {
                    "name": "F4",
                    "midi": 65,
                    "time": 74.31482550000003,
                    "velocity": 0.1968503937007874,
                    "duration": 0.5709767916666664
                },
                {
                    "name": "F#4",
                    "midi": 66,
                    "time": 74.84188100000003,
                    "velocity": 0.2440944881889764,
                    "duration": 0.5709767916666664
                },
                {
                    "name": "D#4",
                    "midi": 63,
                    "time": 75.36893650000003,
                    "velocity": 0.1968503937007874,
                    "duration": 0.527055500000003
                },
                {
                    "name": "E4",
                    "midi": 64,
                    "time": 75.89599200000004,
                    "velocity": 0.2440944881889764,
                    "duration": 0.5709767916666664
                },
                {
                    "name": "B4",
                    "midi": 71,
                    "time": 75.89599200000004,
                    "velocity": 0.3779527559055118,
                    "duration": 2.108222000000012
                },
                {
                    "name": "F#4",
                    "midi": 66,
                    "time": 76.42304750000004,
                    "velocity": 0.2047244094488189,
                    "duration": 0.5709767916666664
                },
                {
                    "name": "E4",
                    "midi": 64,
                    "time": 76.95010300000004,
                    "velocity": 0.2440944881889764,
                    "duration": 0.5709767916666664
                },
                {
                    "name": "F#4",
                    "midi": 66,
                    "time": 77.47715850000004,
                    "velocity": 0.1968503937007874,
                    "duration": 0.5709767916666664
                },
                {
                    "name": "C#5",
                    "midi": 73,
                    "time": 78.00421400000005,
                    "velocity": 0.3937007874015748,
                    "duration": 0.5709767916666664
                },
                {
                    "name": "G#4",
                    "midi": 68,
                    "time": 78.00421400000005,
                    "velocity": 0.2440944881889764,
                    "duration": 0.5709767916666664
                },
                {
                    "name": "E4",
                    "midi": 64,
                    "time": 78.53126950000005,
                    "velocity": 0.1968503937007874,
                    "duration": 0.5709767916666664
                },
                {
                    "name": "B4",
                    "midi": 71,
                    "time": 78.53126950000005,
                    "velocity": 0.3779527559055118,
                    "duration": 0.5709767916666664
                },
                {
                    "name": "B3",
                    "midi": 59,
                    "time": 79.05832500000005,
                    "velocity": 0.2440944881889764,
                    "duration": 0.5709767916666664
                },
                {
                    "name": "G#4",
                    "midi": 68,
                    "time": 79.05832500000005,
                    "velocity": 0.36220472440944884,
                    "duration": 0.5709767916666664
                },
                {
                    "name": "E4",
                    "midi": 64,
                    "time": 79.58538050000006,
                    "velocity": 0.3464566929133858,
                    "duration": 0.527055500000003
                },
                {
                    "name": "F#4",
                    "midi": 66,
                    "time": 80.11243600000006,
                    "velocity": 0.3858267716535433,
                    "duration": 3.162333000000018
                },
                {
                    "name": "D#4",
                    "midi": 63,
                    "time": 80.11243600000006,
                    "velocity": 0.2440944881889764,
                    "duration": 0.5709767916666664
                },
                {
                    "name": "E4",
                    "midi": 64,
                    "time": 80.63949150000006,
                    "velocity": 0.2047244094488189,
                    "duration": 0.527055500000003
                },
                {
                    "name": "D#4",
                    "midi": 63,
                    "time": 81.16654700000007,
                    "velocity": 0.2440944881889764,
                    "duration": 0.5709767916666664
                },
                {
                    "name": "C#4",
                    "midi": 61,
                    "time": 81.69360250000007,
                    "velocity": 0.1968503937007874,
                    "duration": 0.5709767916666664
                },
                {
                    "name": "B3",
                    "midi": 59,
                    "time": 82.22065800000007,
                    "velocity": 0.2440944881889764,
                    "duration": 0.5709767916666664
                },
                {
                    "name": "A#3",
                    "midi": 58,
                    "time": 82.74771350000007,
                    "velocity": 0.1968503937007874,
                    "duration": 0.5709767916666664
                },
                {
                    "name": "G4",
                    "midi": 67,
                    "time": 83.27476900000008,
                    "velocity": 0.3937007874015748,
                    "duration": 1.054111000000006
                },
                {
                    "name": "B3",
                    "midi": 59,
                    "time": 83.27476900000008,
                    "velocity": 0.2440944881889764,
                    "duration": 0.5709767916666664
                },
                {
                    "name": "D#4",
                    "midi": 63,
                    "time": 83.80182450000008,
                    "velocity": 0.2047244094488189,
                    "duration": 0.527055500000003
                },
                {
                    "name": "E4",
                    "midi": 64,
                    "time": 84.32888000000008,
                    "velocity": 0.2440944881889764,
                    "duration": 0.5709767916666664
                },
                {
                    "name": "G#4",
                    "midi": 68,
                    "time": 84.32888000000008,
                    "velocity": 0.3543307086614173,
                    "duration": 2.108222000000012
                },
                {
                    "name": "D#4",
                    "midi": 63,
                    "time": 84.85593550000009,
                    "velocity": 0.1968503937007874,
                    "duration": 0.5709767916666664
                },
                {
                    "name": "C#4",
                    "midi": 61,
                    "time": 85.38299100000009,
                    "velocity": 0.2440944881889764,
                    "duration": 0.5709767916666664
                },
                {
                    "name": "D#4",
                    "midi": 63,
                    "time": 85.91004650000009,
                    "velocity": 0.1968503937007874,
                    "duration": 0.5709767916666664
                },
                {
                    "name": "E4",
                    "midi": 64,
                    "time": 86.4371020000001,
                    "velocity": 0.2440944881889764,
                    "duration": 0.5709767916666664
                },
                {
                    "name": "G#4",
                    "midi": 68,
                    "time": 86.4371020000001,
                    "velocity": 0.30708661417322836,
                    "duration": 1.054111000000006
                },
                {
                    "name": "D#4",
                    "midi": 63,
                    "time": 86.9641575000001,
                    "velocity": 0.1889763779527559,
                    "duration": 0.5709767916666664
                },
                {
                    "name": "G#4",
                    "midi": 68,
                    "time": 87.4912130000001,
                    "velocity": 0.31496062992125984,
                    "duration": 1.054111000000006
                },
                {
                    "name": "E4",
                    "midi": 64,
                    "time": 87.4912130000001,
                    "velocity": 0.2440944881889764,
                    "duration": 0.5709767916666664
                },
                {
                    "name": "C#4",
                    "midi": 61,
                    "time": 88.0182685000001,
                    "velocity": 0.1889763779527559,
                    "duration": 0.527055500000003
                },
                {
                    "name": "D#4",
                    "midi": 63,
                    "time": 88.54532400000011,
                    "velocity": 0.2440944881889764,
                    "duration": 0.5709767916666664
                },
                {
                    "name": "G#4",
                    "midi": 68,
                    "time": 88.54532400000011,
                    "velocity": 0.3779527559055118,
                    "duration": 1.581166500000009
                },
                {
                    "name": "C#4",
                    "midi": 61,
                    "time": 89.07237950000011,
                    "velocity": 0.1889763779527559,
                    "duration": 0.5709767916666664
                },
                {
                    "name": "C4",
                    "midi": 60,
                    "time": 89.59943500000011,
                    "velocity": 0.2440944881889764,
                    "duration": 0.5709767916666664
                },
                {
                    "name": "A4",
                    "midi": 69,
                    "time": 90.12649050000012,
                    "velocity": 0.33070866141732286,
                    "duration": 0.527055500000003
                },
                {
                    "name": "C#4",
                    "midi": 61,
                    "time": 90.12649050000012,
                    "velocity": 0.1968503937007874,
                    "duration": 0.5709767916666664
                },
                {
                    "name": "D#4",
                    "midi": 63,
                    "time": 90.65354600000012,
                    "velocity": 0.2440944881889764,
                    "duration": 0.5709767916666664
                },
                {
                    "name": "G#4",
                    "midi": 68,
                    "time": 90.65354600000012,
                    "velocity": 0.33070866141732286,
                    "duration": 2.108222000000012
                },
                {
                    "name": "C#4",
                    "midi": 61,
                    "time": 91.18060150000012,
                    "velocity": 0.1968503937007874,
                    "duration": 0.5709767916666664
                },
                {
                    "name": "D#4",
                    "midi": 63,
                    "time": 91.70765700000013,
                    "velocity": 0.2440944881889764,
                    "duration": 0.5709767916666664
                },
                {
                    "name": "C4",
                    "midi": 60,
                    "time": 92.23471250000013,
                    "velocity": 0.1968503937007874,
                    "duration": 0.527055500000003
                },
                {
                    "name": "C#5",
                    "midi": 73,
                    "time": 92.76176800000013,
                    "velocity": 0.3779527559055118,
                    "duration": 2.6791987916666784
                },
                {
                    "name": "C#4",
                    "midi": 61,
                    "time": 92.76176800000013,
                    "velocity": 0.29133858267716534,
                    "duration": 0.5709767916666664
                },
                {
                    "name": "D#4",
                    "midi": 63,
                    "time": 93.28882350000013,
                    "velocity": 0.3228346456692913,
                    "duration": 0.5709767916666664
                },
                {
                    "name": "E4",
                    "midi": 64,
                    "time": 93.81587900000014,
                    "velocity": 0.33858267716535434,
                    "duration": 0.5709767916666664
                },
                {
                    "name": "F#4",
                    "midi": 66,
                    "time": 94.34293450000014,
                    "velocity": 0.3464566929133858,
                    "duration": 0.5709767916666664
                },
                {
                    "name": "G4",
                    "midi": 67,
                    "time": 94.86999000000014,
                    "velocity": 0.4015748031496063,
                    "duration": 2.108222000000012
                },
                {
                    "name": "C5",
                    "midi": 72,
                    "time": 95.39704550000015,
                    "velocity": 0.4330708661417323,
                    "duration": 0.5709767916666664
                },
                {
                    "name": "D#5",
                    "midi": 75,
                    "time": 95.92410100000015,
                    "velocity": 0.47244094488188976,
                    "duration": 0.5709767916666664
                },
                {
                    "name": "C#5",
                    "midi": 73,
                    "time": 96.45115650000015,
                    "velocity": 0.4330708661417323,
                    "duration": 0.5709767916666664
                },
                {
                    "name": "C5",
                    "midi": 72,
                    "time": 96.97821200000016,
                    "velocity": 0.4015748031496063,
                    "duration": 2.108221999999998
                },
                {
                    "name": "G#4",
                    "midi": 68,
                    "time": 96.97821200000016,
                    "velocity": 0.2283464566929134,
                    "duration": 2.108221999999998
                },
                {
                    "name": "G4",
                    "midi": 67,
                    "time": 99.08643400000015,
                    "velocity": 0.2283464566929134,
                    "duration": 2.108222000000012
                },
                {
                    "name": "C#5",
                    "midi": 73,
                    "time": 99.08643400000015,
                    "velocity": 0.41732283464566927,
                    "duration": 0.5709767916666664
                },
                {
                    "name": "C5",
                    "midi": 72,
                    "time": 99.61348950000016,
                    "velocity": 0.3543307086614173,
                    "duration": 0.5709767916666664
                },
                {
                    "name": "D#5",
                    "midi": 75,
                    "time": 100.14054500000016,
                    "velocity": 0.3858267716535433,
                    "duration": 0.5709767916666664
                },
                {
                    "name": "C#5",
                    "midi": 73,
                    "time": 100.66760050000016,
                    "velocity": 0.3543307086614173,
                    "duration": 0.5709767916666664
                },
                {
                    "name": "C5",
                    "midi": 72,
                    "time": 101.19465600000017,
                    "velocity": 0.3779527559055118,
                    "duration": 2.108221999999998
                },
                {
                    "name": "G#4",
                    "midi": 68,
                    "time": 101.19465600000017,
                    "velocity": 0.2283464566929134,
                    "duration": 2.108221999999998
                },
                {
                    "name": "G4",
                    "midi": 67,
                    "time": 103.30287800000016,
                    "velocity": 0.2283464566929134,
                    "duration": 2.108222000000012
                },
                {
                    "name": "C#5",
                    "midi": 73,
                    "time": 103.30287800000016,
                    "velocity": 0.3937007874015748,
                    "duration": 0.5709767916666664
                },
                {
                    "name": "C5",
                    "midi": 72,
                    "time": 103.82993350000017,
                    "velocity": 0.33070866141732286,
                    "duration": 0.5709767916666664
                },
                {
                    "name": "D#5",
                    "midi": 75,
                    "time": 104.35698900000017,
                    "velocity": 0.3937007874015748,
                    "duration": 0.3952916249999987
                },
                {
                    "name": "C#5",
                    "midi": 73,
                    "time": 104.7083593333335,
                    "velocity": 0.33070866141732286,
                    "duration": 0.3952916249999987
                },
                {
                    "name": "C5",
                    "midi": 72,
                    "time": 105.05972966666684,
                    "velocity": 0.33070866141732286,
                    "duration": 0.3425860749999998
                },
                {
                    "name": "G#4",
                    "midi": 68,
                    "time": 105.41110000000018,
                    "velocity": 0.2283464566929134,
                    "duration": 3.162333000000004
                },
                {
                    "name": "C5",
                    "midi": 72,
                    "time": 105.41110000000018,
                    "velocity": 0.3937007874015748,
                    "duration": 3.162333000000004
                },
                {
                    "name": "A4",
                    "midi": 69,
                    "time": 108.57343300000018,
                    "velocity": 0.2283464566929134,
                    "duration": 0.527055500000003
                },
                {
                    "name": "B4",
                    "midi": 71,
                    "time": 108.57343300000018,
                    "velocity": 0.33070866141732286,
                    "duration": 1.054111000000006
                },
                {
                    "name": "D#4",
                    "midi": 63,
                    "time": 109.10048850000018,
                    "velocity": 0.2283464566929134,
                    "duration": 0.527055500000003
                },
                {
                    "name": "B4",
                    "midi": 71,
                    "time": 109.62754400000019,
                    "velocity": 0.2992125984251969,
                    "duration": 2.108222000000012
                },
                {
                    "name": "E4",
                    "midi": 64,
                    "time": 109.62754400000019,
                    "velocity": 0.2440944881889764,
                    "duration": 0.5709767916666664
                },
                {
                    "name": "F#4",
                    "midi": 66,
                    "time": 110.15459950000019,
                    "velocity": 0.1968503937007874,
                    "duration": 0.5709767916666664
                },
                {
                    "name": "E4",
                    "midi": 64,
                    "time": 110.68165500000019,
                    "velocity": 0.2440944881889764,
                    "duration": 0.5709767916666664
                },
                {
                    "name": "F#4",
                    "midi": 66,
                    "time": 111.2087105000002,
                    "velocity": 0.1968503937007874,
                    "duration": 0.5709767916666664
                },
                {
                    "name": "B4",
                    "midi": 71,
                    "time": 111.7357660000002,
                    "velocity": 0.2992125984251969,
                    "duration": 1.054111000000006
                },
                {
                    "name": "G#4",
                    "midi": 68,
                    "time": 111.7357660000002,
                    "velocity": 0.2440944881889764,
                    "duration": 0.5709767916666664
                },
                {
                    "name": "F#4",
                    "midi": 66,
                    "time": 112.2628215000002,
                    "velocity": 0.1889763779527559,
                    "duration": 0.5709767916666664
                },
                {
                    "name": "B4",
                    "midi": 71,
                    "time": 112.7898770000002,
                    "velocity": 0.2992125984251969,
                    "duration": 1.054111000000006
                },
                {
                    "name": "G#4",
                    "midi": 68,
                    "time": 112.7898770000002,
                    "velocity": 0.2440944881889764,
                    "duration": 0.5709767916666664
                },
                {
                    "name": "E4",
                    "midi": 64,
                    "time": 113.3169325000002,
                    "velocity": 0.1889763779527559,
                    "duration": 0.527055500000003
                },
                {
                    "name": "D#4",
                    "midi": 63,
                    "time": 113.84398800000021,
                    "velocity": 0.2440944881889764,
                    "duration": 0.5709767916666664
                },
                {
                    "name": "B4",
                    "midi": 71,
                    "time": 113.84398800000021,
                    "velocity": 0.3779527559055118,
                    "duration": 1.581166500000009
                },
                {
                    "name": "E4",
                    "midi": 64,
                    "time": 114.37104350000021,
                    "velocity": 0.1889763779527559,
                    "duration": 0.5709767916666664
                },
                {
                    "name": "D#4",
                    "midi": 63,
                    "time": 114.89809900000022,
                    "velocity": 0.2440944881889764,
                    "duration": 0.5709767916666664
                },
                {
                    "name": "E4",
                    "midi": 64,
                    "time": 115.42515450000022,
                    "velocity": 0.1968503937007874,
                    "duration": 0.5709767916666664
                },
                {
                    "name": "C#5",
                    "midi": 73,
                    "time": 115.42515450000022,
                    "velocity": 0.33070866141732286,
                    "duration": 0.527055500000003
                },
                {
                    "name": "F#4",
                    "midi": 66,
                    "time": 115.95221000000022,
                    "velocity": 0.2440944881889764,
                    "duration": 0.5709767916666664
                },
                {
                    "name": "B4",
                    "midi": 71,
                    "time": 115.95221000000022,
                    "velocity": 0.33070866141732286,
                    "duration": 2.108222000000012
                },
                {
                    "name": "F4",
                    "midi": 65,
                    "time": 116.47926550000022,
                    "velocity": 0.1968503937007874,
                    "duration": 0.5709767916666664
                },
                {
                    "name": "F#4",
                    "midi": 66,
                    "time": 117.00632100000023,
                    "velocity": 0.2440944881889764,
                    "duration": 0.5709767916666664
                },
                {
                    "name": "D#4",
                    "midi": 63,
                    "time": 117.53337650000023,
                    "velocity": 0.1968503937007874,
                    "duration": 0.527055500000003
                },
                {
                    "name": "B4",
                    "midi": 71,
                    "time": 118.06043200000023,
                    "velocity": 0.3779527559055118,
                    "duration": 2.108222000000012
                },
                {
                    "name": "E4",
                    "midi": 64,
                    "time": 118.06043200000023,
                    "velocity": 0.2440944881889764,
                    "duration": 0.5709767916666664
                },
                {
                    "name": "F#4",
                    "midi": 66,
                    "time": 118.58748750000024,
                    "velocity": 0.2047244094488189,
                    "duration": 0.5709767916666664
                },
                {
                    "name": "E4",
                    "midi": 64,
                    "time": 119.11454300000024,
                    "velocity": 0.2440944881889764,
                    "duration": 0.5709767916666664
                },
                {
                    "name": "F#4",
                    "midi": 66,
                    "time": 119.64159850000024,
                    "velocity": 0.1968503937007874,
                    "duration": 0.5709767916666664
                },
                {
                    "name": "C#5",
                    "midi": 73,
                    "time": 120.16865400000025,
                    "velocity": 0.3937007874015748,
                    "duration": 0.5709767916666664
                },
                {
                    "name": "G#4",
                    "midi": 68,
                    "time": 120.16865400000025,
                    "velocity": 0.2440944881889764,
                    "duration": 0.5709767916666664
                },
                {
                    "name": "E4",
                    "midi": 64,
                    "time": 120.69570950000025,
                    "velocity": 0.1968503937007874,
                    "duration": 0.5709767916666664
                },
                {
                    "name": "B4",
                    "midi": 71,
                    "time": 120.69570950000025,
                    "velocity": 0.3779527559055118,
                    "duration": 0.5709767916666664
                },
                {
                    "name": "G#4",
                    "midi": 68,
                    "time": 121.22276500000025,
                    "velocity": 0.36220472440944884,
                    "duration": 0.5709767916666664
                },
                {
                    "name": "B3",
                    "midi": 59,
                    "time": 121.22276500000025,
                    "velocity": 0.2440944881889764,
                    "duration": 0.5709767916666664
                },
                {
                    "name": "E4",
                    "midi": 64,
                    "time": 121.74982050000025,
                    "velocity": 0.3464566929133858,
                    "duration": 0.527055500000003
                },
                {
                    "name": "D#4",
                    "midi": 63,
                    "time": 122.27687600000026,
                    "velocity": 0.2440944881889764,
                    "duration": 0.5709767916666664
                },
                {
                    "name": "F#4",
                    "midi": 66,
                    "time": 122.27687600000026,
                    "velocity": 0.3858267716535433,
                    "duration": 3.162333000000018
                },
                {
                    "name": "E4",
                    "midi": 64,
                    "time": 122.80393150000026,
                    "velocity": 0.2047244094488189,
                    "duration": 0.5709767916666664
                },
                {
                    "name": "D#4",
                    "midi": 63,
                    "time": 123.33098700000026,
                    "velocity": 0.2440944881889764,
                    "duration": 0.5709767916666664
                },
                {
                    "name": "C#4",
                    "midi": 61,
                    "time": 123.85804250000027,
                    "velocity": 0.1968503937007874,
                    "duration": 0.5709767916666664
                },
                {
                    "name": "D#4",
                    "midi": 63,
                    "time": 124.38509800000027,
                    "velocity": 0.2440944881889764,
                    "duration": 0.5709767916666664
                },
                {
                    "name": "B3",
                    "midi": 59,
                    "time": 124.91215350000027,
                    "velocity": 0.1968503937007874,
                    "duration": 0.5709767916666664
                },
                {
                    "name": "G4",
                    "midi": 67,
                    "time": 125.43920900000028,
                    "velocity": 0.3937007874015748,
                    "duration": 1.054111000000006
                },
                {
                    "name": "C#4",
                    "midi": 61,
                    "time": 125.43920900000028,
                    "velocity": 0.2440944881889764,
                    "duration": 0.5709767916666664
                },
                {
                    "name": "D#4",
                    "midi": 63,
                    "time": 125.96626450000028,
                    "velocity": 0.2047244094488189,
                    "duration": 0.527055500000003
                },
                {
                    "name": "G#4",
                    "midi": 68,
                    "time": 126.49332000000028,
                    "velocity": 0.4409448818897638,
                    "duration": 2.108221999999998
                },
                {
                    "name": "C4",
                    "midi": 60,
                    "time": 126.49332000000028,
                    "velocity": 0.2440944881889764,
                    "duration": 0.5709767916666664
                },
                {
                    "name": "D#4",
                    "midi": 63,
                    "time": 127.02037550000028,
                    "velocity": 0.1968503937007874,
                    "duration": 0.5709767916666664
                },
                {
                    "name": "D4",
                    "midi": 62,
                    "time": 127.54743100000029,
                    "velocity": 0.2440944881889764,
                    "duration": 0.5709767916666664
                },
                {
                    "name": "D#4",
                    "midi": 63,
                    "time": 128.0744865000003,
                    "velocity": 0.1968503937007874,
                    "duration": 0.5270554999999888
                },
                {
                    "name": "A4",
                    "midi": 69,
                    "time": 128.60154200000028,
                    "velocity": 0.41732283464566927,
                    "duration": 1.0541109999999776
                },
                {
                    "name": "E4",
                    "midi": 64,
                    "time": 128.60154200000028,
                    "velocity": 0.30708661417322836,
                    "duration": 0.5709767916666522
                },
                {
                    "name": "C#4",
                    "midi": 61,
                    "time": 129.12859750000027,
                    "velocity": 0.25984251968503935,
                    "duration": 0.5709767916666522
                },
                {
                    "name": "C4",
                    "midi": 60,
                    "time": 129.65565300000026,
                    "velocity": 0.29133858267716534,
                    "duration": 0.5709767916666522
                },
                {
                    "name": "A4",
                    "midi": 69,
                    "time": 129.65565300000026,
                    "velocity": 0.4015748031496063,
                    "duration": 1.0541109999999776
                },
                {
                    "name": "C#4",
                    "midi": 61,
                    "time": 130.18270850000025,
                    "velocity": 0.23622047244094488,
                    "duration": 0.5270554999999888
                },
                {
                    "name": "G#4",
                    "midi": 68,
                    "time": 130.70976400000023,
                    "velocity": 0.4409448818897638,
                    "duration": 2.108221999999955
                },
                {
                    "name": "C4",
                    "midi": 60,
                    "time": 130.70976400000023,
                    "velocity": 0.2440944881889764,
                    "duration": 0.5709767916666522
                },
                {
                    "name": "D#4",
                    "midi": 63,
                    "time": 131.23681950000022,
                    "velocity": 0.1889763779527559,
                    "duration": 0.5709767916666522
                },
                {
                    "name": "D4",
                    "midi": 62,
                    "time": 131.7638750000002,
                    "velocity": 0.2440944881889764,
                    "duration": 0.5709767916666522
                },
                {
                    "name": "D#4",
                    "midi": 63,
                    "time": 132.2909305000002,
                    "velocity": 0.1968503937007874,
                    "duration": 0.5709767916666522
                },
                {
                    "name": "E4",
                    "midi": 64,
                    "time": 132.8179860000002,
                    "velocity": 0.30708661417322836,
                    "duration": 0.5709767916666522
                },
                {
                    "name": "A4",
                    "midi": 69,
                    "time": 132.8179860000002,
                    "velocity": 0.44881889763779526,
                    "duration": 1.0541109999999776
                },
                {
                    "name": "C#4",
                    "midi": 61,
                    "time": 133.34504150000018,
                    "velocity": 0.2440944881889764,
                    "duration": 0.5709767916666522
                },
                {
                    "name": "C4",
                    "midi": 60,
                    "time": 133.87209700000017,
                    "velocity": 0.2992125984251969,
                    "duration": 0.5709767916666522
                },
                {
                    "name": "A4",
                    "midi": 69,
                    "time": 133.87209700000017,
                    "velocity": 0.4094488188976378,
                    "duration": 1.0541109999999776
                },
                {
                    "name": "C#4",
                    "midi": 61,
                    "time": 134.39915250000016,
                    "velocity": 0.23622047244094488,
                    "duration": 0.5270554999999888
                },
                {
                    "name": "G#4",
                    "midi": 68,
                    "time": 134.92620800000014,
                    "velocity": 0.41732283464566927,
                    "duration": 0.5270554999999888
                },
                {
                    "name": "C4",
                    "midi": 60,
                    "time": 134.92620800000014,
                    "velocity": 0.2992125984251969,
                    "duration": 1.0541109999999776
                },
                {
                    "name": "D#5",
                    "midi": 75,
                    "time": 135.45326350000013,
                    "velocity": 0.4566929133858268,
                    "duration": 0.5270554999999888
                },
                {
                    "name": "E4",
                    "midi": 64,
                    "time": 135.98031900000012,
                    "velocity": 0.29133858267716534,
                    "duration": 1.0541109999999776
                },
                {
                    "name": "C#5",
                    "midi": 73,
                    "time": 135.98031900000012,
                    "velocity": 0.41732283464566927,
                    "duration": 0.5270554999999888
                },
                {
                    "name": "G#4",
                    "midi": 68,
                    "time": 135.98031900000012,
                    "velocity": 0.29133858267716534,
                    "duration": 1.0541109999999776
                },
                {
                    "name": "D#5",
                    "midi": 75,
                    "time": 136.5073745000001,
                    "velocity": 0.4409448818897638,
                    "duration": 0.5270554999999888
                },
                {
                    "name": "D#4",
                    "midi": 63,
                    "time": 137.0344300000001,
                    "velocity": 0.28346456692913385,
                    "duration": 1.0541109999999776
                },
                {
                    "name": "C5",
                    "midi": 72,
                    "time": 137.0344300000001,
                    "velocity": 0.41732283464566927,
                    "duration": 0.5270554999999888
                },
                {
                    "name": "F#4",
                    "midi": 66,
                    "time": 137.0344300000001,
                    "velocity": 0.28346456692913385,
                    "duration": 1.0541109999999776
                },
                {
                    "name": "C#5",
                    "midi": 73,
                    "time": 137.5614855000001,
                    "velocity": 0.3937007874015748,
                    "duration": 0.5270554999999888
                },
                {
                    "name": "C#4",
                    "midi": 61,
                    "time": 138.08854100000008,
                    "velocity": 0.2755905511811024,
                    "duration": 1.0541109999999776
                },
                {
                    "name": "E4",
                    "midi": 64,
                    "time": 138.08854100000008,
                    "velocity": 0.2755905511811024,
                    "duration": 1.0541109999999776
                },
                {
                    "name": "A4",
                    "midi": 69,
                    "time": 138.08854100000008,
                    "velocity": 0.4015748031496063,
                    "duration": 0.5270554999999888
                },
                {
                    "name": "B4",
                    "midi": 71,
                    "time": 138.61559650000007,
                    "velocity": 0.36220472440944884,
                    "duration": 0.5270554999999888
                },
                {
                    "name": "G#4",
                    "midi": 68,
                    "time": 139.14265200000006,
                    "velocity": 0.3858267716535433,
                    "duration": 0.5270554999999888
                },
                {
                    "name": "C4",
                    "midi": 60,
                    "time": 139.14265200000006,
                    "velocity": 0.2677165354330709,
                    "duration": 1.0541109999999776
                },
                {
                    "name": "D#4",
                    "midi": 63,
                    "time": 139.14265200000006,
                    "velocity": 0.2677165354330709,
                    "duration": 1.0541109999999776
                },
                {
                    "name": "A4",
                    "midi": 69,
                    "time": 139.66970750000004,
                    "velocity": 0.3228346456692913,
                    "duration": 0.5270554999999888
                },
                {
                    "name": "F#4",
                    "midi": 66,
                    "time": 140.19676300000003,
                    "velocity": 0.3700787401574803,
                    "duration": 0.5270554999999888
                },
                {
                    "name": "A3",
                    "midi": 57,
                    "time": 140.19676300000003,
                    "velocity": 0.25984251968503935,
                    "duration": 1.0541109999999776
                },
                {
                    "name": "C#4",
                    "midi": 61,
                    "time": 140.19676300000003,
                    "velocity": 0.25984251968503935,
                    "duration": 1.0541109999999776
                },
                {
                    "name": "G#4",
                    "midi": 68,
                    "time": 140.72381850000002,
                    "velocity": 0.3228346456692913,
                    "duration": 0.5270554999999888
                },
                {
                    "name": "G#3",
                    "midi": 56,
                    "time": 141.250874,
                    "velocity": 0.2440944881889764,
                    "duration": 1.0541109999999776
                },
                {
                    "name": "E4",
                    "midi": 64,
                    "time": 141.250874,
                    "velocity": 0.3700787401574803,
                    "duration": 0.5270554999999888
                },
                {
                    "name": "C#4",
                    "midi": 61,
                    "time": 141.250874,
                    "velocity": 0.2440944881889764,
                    "duration": 1.0541109999999776
                },
                {
                    "name": "F#4",
                    "midi": 66,
                    "time": 141.7779295,
                    "velocity": 0.31496062992125984,
                    "duration": 0.5270554999999888
                },
                {
                    "name": "F#3",
                    "midi": 54,
                    "time": 142.304985,
                    "velocity": 0.23622047244094488,
                    "duration": 1.0541109999999776
                },
                {
                    "name": "D#4",
                    "midi": 63,
                    "time": 142.304985,
                    "velocity": 0.3543307086614173,
                    "duration": 0.5270554999999888
                },
                {
                    "name": "C4",
                    "midi": 60,
                    "time": 142.304985,
                    "velocity": 0.23622047244094488,
                    "duration": 1.0541109999999776
                },
                {
                    "name": "E4",
                    "midi": 64,
                    "time": 142.83204049999998,
                    "velocity": 0.31496062992125984,
                    "duration": 0.5270554999999888
                },
                {
                    "name": "E3",
                    "midi": 52,
                    "time": 143.35909599999997,
                    "velocity": 0.25984251968503935,
                    "duration": 2.108222000000012
                },
                {
                    "name": "G#3",
                    "midi": 56,
                    "time": 143.35909599999997,
                    "velocity": 0.25984251968503935,
                    "duration": 2.108222000000012
                },
                {
                    "name": "C#4",
                    "midi": 61,
                    "time": 143.35909599999997,
                    "velocity": 0.31496062992125984,
                    "duration": 2.108222000000012
                },
                {
                    "name": "E3",
                    "midi": 52,
                    "time": 145.46731799999998,
                    "velocity": 0.2755905511811024,
                    "duration": 1.043130677083326
                },
                {
                    "name": "G#3",
                    "midi": 56,
                    "time": 145.46731799999998,
                    "velocity": 0.2755905511811024,
                    "duration": 1.043130677083326
                },
                {
                    "name": "C#4",
                    "midi": 61,
                    "time": 145.46731799999998,
                    "velocity": 0.33858267716535434,
                    "duration": 1.043130677083326
                },
                {
                    "name": "E3",
                    "midi": 52,
                    "time": 146.52142899999998,
                    "velocity": 0.28346456692913385,
                    "duration": 1.043130677083326
                },
                {
                    "name": "G#3",
                    "midi": 56,
                    "time": 146.52142899999998,
                    "velocity": 0.28346456692913385,
                    "duration": 1.043130677083326
                },
                {
                    "name": "C#4",
                    "midi": 61,
                    "time": 146.52142899999998,
                    "velocity": 0.3543307086614173,
                    "duration": 1.043130677083326
                },
                {
                    "name": "E3",
                    "midi": 52,
                    "time": 147.57554,
                    "velocity": 0.2992125984251969,
                    "duration": 4.216443999999996
                },
                {
                    "name": "G#3",
                    "midi": 56,
                    "time": 147.57554,
                    "velocity": 0.2992125984251969,
                    "duration": 4.216443999999996
                },
                {
                    "name": "C#4",
                    "midi": 61,
                    "time": 147.57554,
                    "velocity": 0.2992125984251969,
                    "duration": 4.216443999999996
                },
                {
                    "name": "E4",
                    "midi": 64,
                    "time": 147.57554,
                    "velocity": 0.3779527559055118,
                    "duration": 4.216443999999996
                },
                {
                    "name": "E3",
                    "midi": 52,
                    "time": 151.79198399999999,
                    "velocity": 0.29133858267716534,
                    "duration": 2.108222000000012
                },
                {
                    "name": "A3",
                    "midi": 57,
                    "time": 151.79198399999999,
                    "velocity": 0.29133858267716534,
                    "duration": 2.108222000000012
                },
                {
                    "name": "C#4",
                    "midi": 61,
                    "time": 151.79198399999999,
                    "velocity": 0.3543307086614173,
                    "duration": 2.108222000000012
                },
                {
                    "name": "E3",
                    "midi": 52,
                    "time": 153.900206,
                    "velocity": 0.29133858267716534,
                    "duration": 1.043130677083326
                },
                {
                    "name": "A3",
                    "midi": 57,
                    "time": 153.900206,
                    "velocity": 0.29133858267716534,
                    "duration": 1.043130677083326
                },
                {
                    "name": "C#4",
                    "midi": 61,
                    "time": 153.900206,
                    "velocity": 0.3543307086614173,
                    "duration": 1.043130677083326
                },
                {
                    "name": "E3",
                    "midi": 52,
                    "time": 154.954317,
                    "velocity": 0.3464566929133858,
                    "duration": 1.043130677083326
                },
                {
                    "name": "A3",
                    "midi": 57,
                    "time": 154.954317,
                    "velocity": 0.3464566929133858,
                    "duration": 1.043130677083326
                },
                {
                    "name": "C#4",
                    "midi": 61,
                    "time": 154.954317,
                    "velocity": 0.4094488188976378,
                    "duration": 1.043130677083326
                },
                {
                    "name": "E3",
                    "midi": 52,
                    "time": 156.008428,
                    "velocity": 0.3464566929133858,
                    "duration": 4.216443999999996
                },
                {
                    "name": "A3",
                    "midi": 57,
                    "time": 156.008428,
                    "velocity": 0.3464566929133858,
                    "duration": 4.216443999999996
                },
                {
                    "name": "C#4",
                    "midi": 61,
                    "time": 156.008428,
                    "velocity": 0.3464566929133858,
                    "duration": 4.216443999999996
                },
                {
                    "name": "E4",
                    "midi": 64,
                    "time": 156.008428,
                    "velocity": 0.4094488188976378,
                    "duration": 4.216443999999996
                },
                {
                    "name": "F#3",
                    "midi": 54,
                    "time": 160.224872,
                    "velocity": 0.33070866141732286,
                    "duration": 2.108222000000012
                },
                {
                    "name": "A3",
                    "midi": 57,
                    "time": 160.224872,
                    "velocity": 0.33070866141732286,
                    "duration": 2.108222000000012
                },
                {
                    "name": "D4",
                    "midi": 62,
                    "time": 160.224872,
                    "velocity": 0.3937007874015748,
                    "duration": 2.108222000000012
                },
                {
                    "name": "F#3",
                    "midi": 54,
                    "time": 162.33309400000002,
                    "velocity": 0.3464566929133858,
                    "duration": 1.043130677083326
                },
                {
                    "name": "A3",
                    "midi": 57,
                    "time": 162.33309400000002,
                    "velocity": 0.3464566929133858,
                    "duration": 1.043130677083326
                },
                {
                    "name": "D4",
                    "midi": 62,
                    "time": 162.33309400000002,
                    "velocity": 0.4094488188976378,
                    "duration": 1.043130677083326
                },
                {
                    "name": "F#3",
                    "midi": 54,
                    "time": 163.38720500000002,
                    "velocity": 0.3464566929133858,
                    "duration": 1.043130677083326
                },
                {
                    "name": "A3",
                    "midi": 57,
                    "time": 163.38720500000002,
                    "velocity": 0.3464566929133858,
                    "duration": 1.043130677083326
                },
                {
                    "name": "D4",
                    "midi": 62,
                    "time": 163.38720500000002,
                    "velocity": 0.4094488188976378,
                    "duration": 1.043130677083326
                },
                {
                    "name": "A3",
                    "midi": 57,
                    "time": 164.44131600000003,
                    "velocity": 0.3700787401574803,
                    "duration": 4.216443999999996
                },
                {
                    "name": "D4",
                    "midi": 62,
                    "time": 164.44131600000003,
                    "velocity": 0.3700787401574803,
                    "duration": 4.216443999999996
                },
                {
                    "name": "F#4",
                    "midi": 66,
                    "time": 164.44131600000003,
                    "velocity": 0.3700787401574803,
                    "duration": 4.216443999999996
                },
                {
                    "name": "A4",
                    "midi": 69,
                    "time": 164.44131600000003,
                    "velocity": 0.4409448818897638,
                    "duration": 4.216443999999996
                },
                {
                    "name": "C4",
                    "midi": 60,
                    "time": 168.65776000000002,
                    "velocity": 0.4645669291338583,
                    "duration": 2.108222000000012
                },
                {
                    "name": "D#4",
                    "midi": 63,
                    "time": 168.65776000000002,
                    "velocity": 0.4645669291338583,
                    "duration": 2.108222000000012
                },
                {
                    "name": "F#4",
                    "midi": 66,
                    "time": 168.65776000000002,
                    "velocity": 0.4645669291338583,
                    "duration": 2.108222000000012
                },
                {
                    "name": "G#4",
                    "midi": 68,
                    "time": 168.65776000000002,
                    "velocity": 0.4645669291338583,
                    "duration": 2.108222000000012
                },
                {
                    "name": "C5",
                    "midi": 72,
                    "time": 168.65776000000002,
                    "velocity": 0.5511811023622047,
                    "duration": 2.108222000000012
                },
                {
                    "name": "C#4",
                    "midi": 61,
                    "time": 170.76598200000004,
                    "velocity": 0.5196850393700787,
                    "duration": 2.108222000000012
                },
                {
                    "name": "E4",
                    "midi": 64,
                    "time": 170.76598200000004,
                    "velocity": 0.5196850393700787,
                    "duration": 2.108222000000012
                },
                {
                    "name": "G#4",
                    "midi": 68,
                    "time": 170.76598200000004,
                    "velocity": 0.5196850393700787,
                    "duration": 2.108222000000012
                },
                {
                    "name": "C#5",
                    "midi": 73,
                    "time": 170.76598200000004,
                    "velocity": 0.6141732283464567,
                    "duration": 2.108222000000012
                },
                {
                    "name": "E4",
                    "midi": 64,
                    "time": 172.87420400000005,
                    "velocity": 0.5826771653543307,
                    "duration": 2.108222000000012
                },
                {
                    "name": "G#4",
                    "midi": 68,
                    "time": 172.87420400000005,
                    "velocity": 0.5826771653543307,
                    "duration": 2.108222000000012
                },
                {
                    "name": "C#5",
                    "midi": 73,
                    "time": 172.87420400000005,
                    "velocity": 0.5826771653543307,
                    "duration": 2.108222000000012
                },
                {
                    "name": "E5",
                    "midi": 76,
                    "time": 172.87420400000005,
                    "velocity": 0.6929133858267716,
                    "duration": 2.108222000000012
                },
                {
                    "name": "G4",
                    "midi": 67,
                    "time": 174.98242600000006,
                    "velocity": 0.6692913385826772,
                    "duration": 2.108222000000012
                },
                {
                    "name": "C#5",
                    "midi": 73,
                    "time": 174.98242600000006,
                    "velocity": 0.6692913385826772,
                    "duration": 2.108222000000012
                },
                {
                    "name": "D#5",
                    "midi": 75,
                    "time": 174.98242600000006,
                    "velocity": 0.6692913385826772,
                    "duration": 2.108222000000012
                },
                {
                    "name": "G5",
                    "midi": 79,
                    "time": 174.98242600000006,
                    "velocity": 0.7952755905511811,
                    "duration": 2.108222000000012
                },
                {
                    "name": "G#4",
                    "midi": 68,
                    "time": 177.09064800000007,
                    "velocity": 0.6929133858267716,
                    "duration": 0.5270554999999888
                },
                {
                    "name": "C5",
                    "midi": 72,
                    "time": 177.09064800000007,
                    "velocity": 0.6929133858267716,
                    "duration": 0.5270554999999888
                },
                {
                    "name": "D#5",
                    "midi": 75,
                    "time": 177.09064800000007,
                    "velocity": 0.6929133858267716,
                    "duration": 0.5270554999999888
                },
                {
                    "name": "G#5",
                    "midi": 80,
                    "time": 177.09064800000007,
                    "velocity": 0.8110236220472441,
                    "duration": 0.5270554999999888
                },
                {
                    "name": "C4",
                    "midi": 60,
                    "time": 177.61770350000006,
                    "velocity": 0.5826771653543307,
                    "duration": 0.2635277500000086
                },
                {
                    "name": "D#4",
                    "midi": 63,
                    "time": 177.61770350000006,
                    "velocity": 0.5826771653543307,
                    "duration": 0.2635277500000086
                },
                {
                    "name": "G#4",
                    "midi": 68,
                    "time": 177.61770350000006,
                    "velocity": 0.7007874015748031,
                    "duration": 0.2635277500000086
                },
                {
                    "name": "C4",
                    "midi": 60,
                    "time": 178.14475900000008,
                    "velocity": 0.6220472440944882,
                    "duration": 0.2635277500000086
                },
                {
                    "name": "D#4",
                    "midi": 63,
                    "time": 178.14475900000008,
                    "velocity": 0.6220472440944882,
                    "duration": 0.2635277500000086
                },
                {
                    "name": "A4",
                    "midi": 69,
                    "time": 178.14475900000008,
                    "velocity": 0.7322834645669292,
                    "duration": 0.2635277500000086
                },
                {
                    "name": "C#4",
                    "midi": 61,
                    "time": 179.72592550000007,
                    "velocity": 0.5826771653543307,
                    "duration": 0.5270554999999888
                },
                {
                    "name": "G#4",
                    "midi": 68,
                    "time": 179.72592550000007,
                    "velocity": 0.7007874015748031,
                    "duration": 0.5270554999999888
                },
                {
                    "name": "E4",
                    "midi": 64,
                    "time": 179.72592550000007,
                    "velocity": 0.5826771653543307,
                    "duration": 0.5270554999999888
                },
                {
                    "name": "C#4",
                    "midi": 61,
                    "time": 180.25298100000006,
                    "velocity": 0.6377952755905512,
                    "duration": 0.5270554999999888
                },
                {
                    "name": "E4",
                    "midi": 64,
                    "time": 180.25298100000006,
                    "velocity": 0.6377952755905512,
                    "duration": 0.5270554999999888
                },
                {
                    "name": "C#5",
                    "midi": 73,
                    "time": 180.25298100000006,
                    "velocity": 0.7637795275590551,
                    "duration": 0.5270554999999888
                },
                {
                    "name": "D#4",
                    "midi": 63,
                    "time": 181.83414750000006,
                    "velocity": 0.5826771653543307,
                    "duration": 0.5270554999999888
                },
                {
                    "name": "G4",
                    "midi": 67,
                    "time": 181.83414750000006,
                    "velocity": 0.5826771653543307,
                    "duration": 0.5270554999999888
                },
                {
                    "name": "C#5",
                    "midi": 73,
                    "time": 181.83414750000006,
                    "velocity": 0.7007874015748031,
                    "duration": 0.5270554999999888
                },
                {
                    "name": "D#4",
                    "midi": 63,
                    "time": 182.36120300000005,
                    "velocity": 0.6377952755905512,
                    "duration": 0.5270554999999888
                },
                {
                    "name": "G4",
                    "midi": 67,
                    "time": 182.36120300000005,
                    "velocity": 0.6377952755905512,
                    "duration": 0.5270554999999888
                },
                {
                    "name": "D#5",
                    "midi": 75,
                    "time": 182.36120300000005,
                    "velocity": 0.7637795275590551,
                    "duration": 0.5270554999999888
                },
                {
                    "name": "C#5",
                    "midi": 73,
                    "time": 182.36120300000005,
                    "velocity": 0.6377952755905512,
                    "duration": 0.5270554999999888
                },
                {
                    "name": "G#4",
                    "midi": 68,
                    "time": 183.94236950000004,
                    "velocity": 0.5826771653543307,
                    "duration": 0.5270554999999888
                },
                {
                    "name": "C5",
                    "midi": 72,
                    "time": 183.94236950000004,
                    "velocity": 0.5826771653543307,
                    "duration": 0.5270554999999888
                },
                {
                    "name": "D#5",
                    "midi": 75,
                    "time": 183.94236950000004,
                    "velocity": 0.6929133858267716,
                    "duration": 0.5270554999999888
                },
                {
                    "name": "G#4",
                    "midi": 68,
                    "time": 184.46942500000003,
                    "velocity": 0.6377952755905512,
                    "duration": 0.5270554999999888
                },
                {
                    "name": "C5",
                    "midi": 72,
                    "time": 184.46942500000003,
                    "velocity": 0.6377952755905512,
                    "duration": 0.5270554999999888
                },
                {
                    "name": "G#5",
                    "midi": 80,
                    "time": 184.46942500000003,
                    "velocity": 0.7637795275590551,
                    "duration": 0.5270554999999888
                },
                {
                    "name": "C5",
                    "midi": 72,
                    "time": 186.05059150000002,
                    "velocity": 0.5826771653543307,
                    "duration": 0.25035136249999823
                },
                {
                    "name": "D#5",
                    "midi": 75,
                    "time": 186.05059150000002,
                    "velocity": 0.5826771653543307,
                    "duration": 0.25035136249999823
                },
                {
                    "name": "G#5",
                    "midi": 80,
                    "time": 186.05059150000002,
                    "velocity": 0.7007874015748031,
                    "duration": 0.25035136249999823
                },
                {
                    "name": "C5",
                    "midi": 72,
                    "time": 186.31411925000003,
                    "velocity": 0.5826771653543307,
                    "duration": 0.25035136249999823
                },
                {
                    "name": "D#5",
                    "midi": 75,
                    "time": 186.31411925000003,
                    "velocity": 0.5826771653543307,
                    "duration": 0.25035136249999823
                },
                {
                    "name": "G#5",
                    "midi": 80,
                    "time": 186.31411925000003,
                    "velocity": 0.7007874015748031,
                    "duration": 0.25035136249999823
                },
                {
                    "name": "C5",
                    "midi": 72,
                    "time": 186.57764700000004,
                    "velocity": 0.6220472440944882,
                    "duration": 0.5270554999999888
                },
                {
                    "name": "D#5",
                    "midi": 75,
                    "time": 186.57764700000004,
                    "velocity": 0.6220472440944882,
                    "duration": 0.5270554999999888
                },
                {
                    "name": "A5",
                    "midi": 81,
                    "time": 186.57764700000004,
                    "velocity": 0.7322834645669292,
                    "duration": 0.5270554999999888
                },
                {
                    "name": "C#5",
                    "midi": 73,
                    "time": 188.15881350000004,
                    "velocity": 0.5826771653543307,
                    "duration": 0.25035136249999823
                },
                {
                    "name": "G#5",
                    "midi": 80,
                    "time": 188.15881350000004,
                    "velocity": 0.7007874015748031,
                    "duration": 0.25035136249999823
                },
                {
                    "name": "E5",
                    "midi": 76,
                    "time": 188.15881350000004,
                    "velocity": 0.5826771653543307,
                    "duration": 0.25035136249999823
                },
                {
                    "name": "C#5",
                    "midi": 73,
                    "time": 188.42234125000004,
                    "velocity": 0.5826771653543307,
                    "duration": 0.25035136249999823
                },
                {
                    "name": "E5",
                    "midi": 76,
                    "time": 188.42234125000004,
                    "velocity": 0.5826771653543307,
                    "duration": 0.25035136249999823
                },
                {
                    "name": "G#5",
                    "midi": 80,
                    "time": 188.42234125000004,
                    "velocity": 0.7007874015748031,
                    "duration": 0.25035136249999823
                },
                {
                    "name": "C#5",
                    "midi": 73,
                    "time": 188.68586900000005,
                    "velocity": 0.6377952755905512,
                    "duration": 0.5270554999999888
                },
                {
                    "name": "E5",
                    "midi": 76,
                    "time": 188.68586900000005,
                    "velocity": 0.6377952755905512,
                    "duration": 0.5270554999999888
                },
                {
                    "name": "C#6",
                    "midi": 85,
                    "time": 188.68586900000005,
                    "velocity": 0.7637795275590551,
                    "duration": 0.5270554999999888
                },
                {
                    "name": "D#5",
                    "midi": 75,
                    "time": 190.26703550000005,
                    "velocity": 0.5826771653543307,
                    "duration": 0.25035136249999823
                },
                {
                    "name": "G5",
                    "midi": 79,
                    "time": 190.26703550000005,
                    "velocity": 0.5826771653543307,
                    "duration": 0.25035136249999823
                },
                {
                    "name": "C#6",
                    "midi": 85,
                    "time": 190.26703550000005,
                    "velocity": 0.7007874015748031,
                    "duration": 0.25035136249999823
                },
                {
                    "name": "D#5",
                    "midi": 75,
                    "time": 190.53056325000006,
                    "velocity": 0.5826771653543307,
                    "duration": 0.25035136249999823
                },
                {
                    "name": "G5",
                    "midi": 79,
                    "time": 190.53056325000006,
                    "velocity": 0.5826771653543307,
                    "duration": 0.25035136249999823
                },
                {
                    "name": "C#6",
                    "midi": 85,
                    "time": 190.53056325000006,
                    "velocity": 0.7007874015748031,
                    "duration": 0.25035136249999823
                },
                {
                    "name": "D#5",
                    "midi": 75,
                    "time": 190.79409100000007,
                    "velocity": 0.6377952755905512,
                    "duration": 0.5270554999999888
                },
                {
                    "name": "G5",
                    "midi": 79,
                    "time": 190.79409100000007,
                    "velocity": 0.6377952755905512,
                    "duration": 0.5270554999999888
                },
                {
                    "name": "D#6",
                    "midi": 87,
                    "time": 190.79409100000007,
                    "velocity": 0.7637795275590551,
                    "duration": 0.5270554999999888
                },
                {
                    "name": "C#6",
                    "midi": 85,
                    "time": 190.79409100000007,
                    "velocity": 0.7637795275590551,
                    "duration": 0.5270554999999888
                },
                {
                    "name": "G#5",
                    "midi": 80,
                    "time": 192.37525750000006,
                    "velocity": 0.5826771653543307,
                    "duration": 0.25035136249999823
                },
                {
                    "name": "C6",
                    "midi": 84,
                    "time": 192.37525750000006,
                    "velocity": 0.5826771653543307,
                    "duration": 0.25035136249999823
                },
                {
                    "name": "D#6",
                    "midi": 87,
                    "time": 192.37525750000006,
                    "velocity": 0.6929133858267716,
                    "duration": 0.25035136249999823
                },
                {
                    "name": "G#5",
                    "midi": 80,
                    "time": 192.63878525000007,
                    "velocity": 0.5826771653543307,
                    "duration": 0.25035136249999823
                },
                {
                    "name": "C6",
                    "midi": 84,
                    "time": 192.63878525000007,
                    "velocity": 0.5826771653543307,
                    "duration": 0.25035136249999823
                },
                {
                    "name": "D#6",
                    "midi": 87,
                    "time": 192.63878525000007,
                    "velocity": 0.6929133858267716,
                    "duration": 0.25035136249999823
                },
                {
                    "name": "G#5",
                    "midi": 80,
                    "time": 192.90231300000008,
                    "velocity": 0.6377952755905512,
                    "duration": 0.5270554999999888
                },
                {
                    "name": "C6",
                    "midi": 84,
                    "time": 192.90231300000008,
                    "velocity": 0.6377952755905512,
                    "duration": 0.5270554999999888
                },
                {
                    "name": "G#6",
                    "midi": 92,
                    "time": 192.90231300000008,
                    "velocity": 0.7637795275590551,
                    "duration": 0.5270554999999888
                },
                {
                    "name": "A6",
                    "midi": 93,
                    "time": 194.48347950000007,
                    "velocity": 0.6377952755905512,
                    "duration": 0.25035136249999823
                },
                {
                    "name": "D#6",
                    "midi": 87,
                    "time": 194.48347950000007,
                    "velocity": 0.5354330708661418,
                    "duration": 0.25035136249999823
                },
                {
                    "name": "C6",
                    "midi": 84,
                    "time": 194.48347950000007,
                    "velocity": 0.5354330708661418,
                    "duration": 0.25035136249999823
                },
                {
                    "name": "A5",
                    "midi": 81,
                    "time": 194.48347950000007,
                    "velocity": 0.5354330708661418,
                    "duration": 0.25035136249999823
                },
                {
                    "name": "A5",
                    "midi": 81,
                    "time": 194.74700725000008,
                    "velocity": 0.5275590551181102,
                    "duration": 0.25035136249999823
                },
                {
                    "name": "C6",
                    "midi": 84,
                    "time": 194.74700725000008,
                    "velocity": 0.5275590551181102,
                    "duration": 0.25035136249999823
                },
                {
                    "name": "D#6",
                    "midi": 87,
                    "time": 194.74700725000008,
                    "velocity": 0.5275590551181102,
                    "duration": 0.25035136249999823
                },
                {
                    "name": "A6",
                    "midi": 93,
                    "time": 194.74700725000008,
                    "velocity": 0.6299212598425197,
                    "duration": 0.25035136249999823
                },
                {
                    "name": "F#6",
                    "midi": 90,
                    "time": 195.53759050000008,
                    "velocity": 0.6299212598425197,
                    "duration": 0.25035136249999823
                },
                {
                    "name": "C6",
                    "midi": 84,
                    "time": 195.53759050000008,
                    "velocity": 0.5275590551181102,
                    "duration": 0.25035136249999823
                },
                {
                    "name": "A5",
                    "midi": 81,
                    "time": 195.53759050000008,
                    "velocity": 0.5275590551181102,
                    "duration": 0.25035136249999823
                },
                {
                    "name": "F#5",
                    "midi": 78,
                    "time": 195.53759050000008,
                    "velocity": 0.5275590551181102,
                    "duration": 0.25035136249999823
                },
                {
                    "name": "F#5",
                    "midi": 78,
                    "time": 195.8011182500001,
                    "velocity": 0.5275590551181102,
                    "duration": 0.25035136249999823
                },
                {
                    "name": "A5",
                    "midi": 81,
                    "time": 195.8011182500001,
                    "velocity": 0.5275590551181102,
                    "duration": 0.25035136249999823
                },
                {
                    "name": "C6",
                    "midi": 84,
                    "time": 195.8011182500001,
                    "velocity": 0.5275590551181102,
                    "duration": 0.25035136249999823
                },
                {
                    "name": "F#6",
                    "midi": 90,
                    "time": 195.8011182500001,
                    "velocity": 0.6220472440944882,
                    "duration": 0.25035136249999823
                },
                {
                    "name": "D#6",
                    "midi": 87,
                    "time": 196.59170150000008,
                    "velocity": 0.5905511811023622,
                    "duration": 0.25035136249999823
                },
                {
                    "name": "A5",
                    "midi": 81,
                    "time": 196.59170150000008,
                    "velocity": 0.49606299212598426,
                    "duration": 0.25035136249999823
                },
                {
                    "name": "F#5",
                    "midi": 78,
                    "time": 196.59170150000008,
                    "velocity": 0.49606299212598426,
                    "duration": 0.25035136249999823
                },
                {
                    "name": "D#5",
                    "midi": 75,
                    "time": 196.59170150000008,
                    "velocity": 0.49606299212598426,
                    "duration": 0.25035136249999823
                },
                {
                    "name": "D#5",
                    "midi": 75,
                    "time": 196.8552292500001,
                    "velocity": 0.49606299212598426,
                    "duration": 0.25035136249999823
                },
                {
                    "name": "F#5",
                    "midi": 78,
                    "time": 196.8552292500001,
                    "velocity": 0.49606299212598426,
                    "duration": 0.25035136249999823
                },
                {
                    "name": "A5",
                    "midi": 81,
                    "time": 196.8552292500001,
                    "velocity": 0.49606299212598426,
                    "duration": 0.25035136249999823
                },
                {
                    "name": "D#6",
                    "midi": 87,
                    "time": 196.8552292500001,
                    "velocity": 0.5905511811023622,
                    "duration": 0.25035136249999823
                },
                {
                    "name": "C6",
                    "midi": 84,
                    "time": 197.6458125000001,
                    "velocity": 0.5669291338582677,
                    "duration": 0.25035136249999823
                },
                {
                    "name": "F#5",
                    "midi": 78,
                    "time": 197.6458125000001,
                    "velocity": 0.48031496062992124,
                    "duration": 0.25035136249999823
                },
                {
                    "name": "D#5",
                    "midi": 75,
                    "time": 197.6458125000001,
                    "velocity": 0.48031496062992124,
                    "duration": 0.25035136249999823
                },
                {
                    "name": "C5",
                    "midi": 72,
                    "time": 197.6458125000001,
                    "velocity": 0.48031496062992124,
                    "duration": 0.25035136249999823
                },
                {
                    "name": "C5",
                    "midi": 72,
                    "time": 197.9093402500001,
                    "velocity": 0.48031496062992124,
                    "duration": 0.25035136249999823
                },
                {
                    "name": "D#5",
                    "midi": 75,
                    "time": 197.9093402500001,
                    "velocity": 0.48031496062992124,
                    "duration": 0.25035136249999823
                },
                {
                    "name": "F#5",
                    "midi": 78,
                    "time": 197.9093402500001,
                    "velocity": 0.48031496062992124,
                    "duration": 0.25035136249999823
                },
                {
                    "name": "C6",
                    "midi": 84,
                    "time": 197.9093402500001,
                    "velocity": 0.5669291338582677,
                    "duration": 0.25035136249999823
                },
                {
                    "name": "C5",
                    "midi": 72,
                    "time": 198.6999235000001,
                    "velocity": 0.5039370078740157,
                    "duration": 0.25035136249999823
                },
                {
                    "name": "D#5",
                    "midi": 75,
                    "time": 198.6999235000001,
                    "velocity": 0.5039370078740157,
                    "duration": 0.25035136249999823
                },
                {
                    "name": "F#5",
                    "midi": 78,
                    "time": 198.6999235000001,
                    "velocity": 0.5039370078740157,
                    "duration": 0.25035136249999823
                },
                {
                    "name": "C6",
                    "midi": 84,
                    "time": 198.6999235000001,
                    "velocity": 0.6062992125984252,
                    "duration": 0.25035136249999823
                },
                {
                    "name": "C6",
                    "midi": 84,
                    "time": 198.9634512500001,
                    "velocity": 0.6141732283464567,
                    "duration": 0.25035136249999823
                },
                {
                    "name": "F#5",
                    "midi": 78,
                    "time": 198.9634512500001,
                    "velocity": 0.5196850393700787,
                    "duration": 0.25035136249999823
                },
                {
                    "name": "D#5",
                    "midi": 75,
                    "time": 198.9634512500001,
                    "velocity": 0.5196850393700787,
                    "duration": 0.25035136249999823
                },
                {
                    "name": "C5",
                    "midi": 72,
                    "time": 198.9634512500001,
                    "velocity": 0.5196850393700787,
                    "duration": 0.25035136249999823
                },
                {
                    "name": "C#6",
                    "midi": 85,
                    "time": 199.7540345000001,
                    "velocity": 0.6377952755905512,
                    "duration": 0.25035136249999823
                },
                {
                    "name": "G5",
                    "midi": 79,
                    "time": 199.7540345000001,
                    "velocity": 0.5354330708661418,
                    "duration": 0.25035136249999823
                },
                {
                    "name": "E5",
                    "midi": 76,
                    "time": 199.7540345000001,
                    "velocity": 0.5354330708661418,
                    "duration": 0.25035136249999823
                },
                {
                    "name": "C#5",
                    "midi": 73,
                    "time": 199.7540345000001,
                    "velocity": 0.5354330708661418,
                    "duration": 0.25035136249999823
                },
                {
                    "name": "C#5",
                    "midi": 73,
                    "time": 200.0175622500001,
                    "velocity": 0.5511811023622047,
                    "duration": 0.25035136249999823
                },
                {
                    "name": "E5",
                    "midi": 76,
                    "time": 200.0175622500001,
                    "velocity": 0.5511811023622047,
                    "duration": 0.25035136249999823
                },
                {
                    "name": "G5",
                    "midi": 79,
                    "time": 200.0175622500001,
                    "velocity": 0.5511811023622047,
                    "duration": 0.25035136249999823
                },
                {
                    "name": "C#6",
                    "midi": 85,
                    "time": 200.0175622500001,
                    "velocity": 0.6614173228346457,
                    "duration": 0.25035136249999823
                },
                {
                    "name": "D#6",
                    "midi": 87,
                    "time": 200.8081455000001,
                    "velocity": 0.7007874015748031,
                    "duration": 0.25035136249999823
                },
                {
                    "name": "C#6",
                    "midi": 85,
                    "time": 200.8081455000001,
                    "velocity": 0.7007874015748031,
                    "duration": 0.25035136249999823
                },
                {
                    "name": "G5",
                    "midi": 79,
                    "time": 200.8081455000001,
                    "velocity": 0.5826771653543307,
                    "duration": 0.25035136249999823
                },
                {
                    "name": "D#5",
                    "midi": 75,
                    "time": 200.8081455000001,
                    "velocity": 0.5826771653543307,
                    "duration": 0.25035136249999823
                },
                {
                    "name": "D#5",
                    "midi": 75,
                    "time": 201.07167325000012,
                    "velocity": 0.5905511811023622,
                    "duration": 0.25035136249999823
                },
                {
                    "name": "G5",
                    "midi": 79,
                    "time": 201.07167325000012,
                    "velocity": 0.5905511811023622,
                    "duration": 0.25035136249999823
                },
                {
                    "name": "C#6",
                    "midi": 85,
                    "time": 201.07167325000012,
                    "velocity": 0.7086614173228346,
                    "duration": 0.25035136249999823
                },
                {
                    "name": "D#6",
                    "midi": 87,
                    "time": 201.07167325000012,
                    "velocity": 0.7086614173228346,
                    "duration": 0.25035136249999823
                },
                {
                    "name": "G#6",
                    "midi": 92,
                    "time": 201.33520100000013,
                    "velocity": 0.8346456692913385,
                    "duration": 0.5270554999999888
                },
                {
                    "name": "D#6",
                    "midi": 87,
                    "time": 201.33520100000013,
                    "velocity": 0.7086614173228346,
                    "duration": 0.5270554999999888
                },
                {
                    "name": "C6",
                    "midi": 84,
                    "time": 201.33520100000013,
                    "velocity": 0.7086614173228346,
                    "duration": 0.5270554999999888
                },
                {
                    "name": "G#5",
                    "midi": 80,
                    "time": 201.33520100000013,
                    "velocity": 0.7086614173228346,
                    "duration": 0.5270554999999888
                },
                {
                    "name": "A5",
                    "midi": 81,
                    "time": 202.91636750000012,
                    "velocity": 0.41732283464566927,
                    "duration": 0.25035136249999823
                },
                {
                    "name": "D#5",
                    "midi": 75,
                    "time": 202.91636750000012,
                    "velocity": 0.3543307086614173,
                    "duration": 0.25035136249999823
                },
                {
                    "name": "C5",
                    "midi": 72,
                    "time": 202.91636750000012,
                    "velocity": 0.3543307086614173,
                    "duration": 0.25035136249999823
                },
                {
                    "name": "A4",
                    "midi": 69,
                    "time": 202.91636750000012,
                    "velocity": 0.3543307086614173,
                    "duration": 0.25035136249999823
                },
                {
                    "name": "A4",
                    "midi": 69,
                    "time": 203.17989525000013,
                    "velocity": 0.3543307086614173,
                    "duration": 0.25035136249999823
                },
                {
                    "name": "C5",
                    "midi": 72,
                    "time": 203.17989525000013,
                    "velocity": 0.3543307086614173,
                    "duration": 0.25035136249999823
                },
                {
                    "name": "D#5",
                    "midi": 75,
                    "time": 203.17989525000013,
                    "velocity": 0.3543307086614173,
                    "duration": 0.25035136249999823
                },
                {
                    "name": "A5",
                    "midi": 81,
                    "time": 203.17989525000013,
                    "velocity": 0.41732283464566927,
                    "duration": 0.25035136249999823
                },
                {
                    "name": "F#5",
                    "midi": 78,
                    "time": 203.97047850000013,
                    "velocity": 0.4094488188976378,
                    "duration": 0.25035136249999823
                },
                {
                    "name": "C5",
                    "midi": 72,
                    "time": 203.97047850000013,
                    "velocity": 0.3464566929133858,
                    "duration": 0.25035136249999823
                },
                {
                    "name": "A4",
                    "midi": 69,
                    "time": 203.97047850000013,
                    "velocity": 0.3464566929133858,
                    "duration": 0.25035136249999823
                },
                {
                    "name": "F#4",
                    "midi": 66,
                    "time": 203.97047850000013,
                    "velocity": 0.3464566929133858,
                    "duration": 0.25035136249999823
                },
                {
                    "name": "F#4",
                    "midi": 66,
                    "time": 204.23400625000014,
                    "velocity": 0.3464566929133858,
                    "duration": 0.25035136249999823
                },
                {
                    "name": "A4",
                    "midi": 69,
                    "time": 204.23400625000014,
                    "velocity": 0.3464566929133858,
                    "duration": 0.25035136249999823
                },
                {
                    "name": "C5",
                    "midi": 72,
                    "time": 204.23400625000014,
                    "velocity": 0.3464566929133858,
                    "duration": 0.25035136249999823
                },
                {
                    "name": "F#5",
                    "midi": 78,
                    "time": 204.23400625000014,
                    "velocity": 0.4094488188976378,
                    "duration": 0.25035136249999823
                },
                {
                    "name": "D#5",
                    "midi": 75,
                    "time": 205.02458950000013,
                    "velocity": 0.4015748031496063,
                    "duration": 0.25035136249999823
                },
                {
                    "name": "A4",
                    "midi": 69,
                    "time": 205.02458950000013,
                    "velocity": 0.33070866141732286,
                    "duration": 0.25035136249999823
                },
                {
                    "name": "F#4",
                    "midi": 66,
                    "time": 205.02458950000013,
                    "velocity": 0.33070866141732286,
                    "duration": 0.25035136249999823
                },
                {
                    "name": "D#4",
                    "midi": 63,
                    "time": 205.02458950000013,
                    "velocity": 0.33070866141732286,
                    "duration": 0.25035136249999823
                },
                {
                    "name": "D#4",
                    "midi": 63,
                    "time": 205.28811725000014,
                    "velocity": 0.33070866141732286,
                    "duration": 0.25035136249999823
                },
                {
                    "name": "F#4",
                    "midi": 66,
                    "time": 205.28811725000014,
                    "velocity": 0.33070866141732286,
                    "duration": 0.25035136249999823
                },
                {
                    "name": "A4",
                    "midi": 69,
                    "time": 205.28811725000014,
                    "velocity": 0.33070866141732286,
                    "duration": 0.25035136249999823
                },
                {
                    "name": "D#5",
                    "midi": 75,
                    "time": 205.28811725000014,
                    "velocity": 0.4015748031496063,
                    "duration": 0.25035136249999823
                },
                {
                    "name": "C5",
                    "midi": 72,
                    "time": 206.07870050000014,
                    "velocity": 0.3937007874015748,
                    "duration": 0.25035136249999823
                },
                {
                    "name": "F#4",
                    "midi": 66,
                    "time": 206.07870050000014,
                    "velocity": 0.33070866141732286,
                    "duration": 0.25035136249999823
                },
                {
                    "name": "D#4",
                    "midi": 63,
                    "time": 206.07870050000014,
                    "velocity": 0.33070866141732286,
                    "duration": 0.25035136249999823
                },
                {
                    "name": "C4",
                    "midi": 60,
                    "time": 206.07870050000014,
                    "velocity": 0.33070866141732286,
                    "duration": 0.25035136249999823
                },
                {
                    "name": "C4",
                    "midi": 60,
                    "time": 206.34222825000015,
                    "velocity": 0.33070866141732286,
                    "duration": 0.25035136249999823
                },
                {
                    "name": "D#4",
                    "midi": 63,
                    "time": 206.34222825000015,
                    "velocity": 0.33070866141732286,
                    "duration": 0.25035136249999823
                },
                {
                    "name": "F#4",
                    "midi": 66,
                    "time": 206.34222825000015,
                    "velocity": 0.33070866141732286,
                    "duration": 0.25035136249999823
                },
                {
                    "name": "C5",
                    "midi": 72,
                    "time": 206.34222825000015,
                    "velocity": 0.3937007874015748,
                    "duration": 0.25035136249999823
                },
                {
                    "name": "C4",
                    "midi": 60,
                    "time": 207.13281150000014,
                    "velocity": 0.3228346456692913,
                    "duration": 0.25035136249999823
                },
                {
                    "name": "D#4",
                    "midi": 63,
                    "time": 207.13281150000014,
                    "velocity": 0.3228346456692913,
                    "duration": 0.25035136249999823
                },
                {
                    "name": "F#4",
                    "midi": 66,
                    "time": 207.13281150000014,
                    "velocity": 0.3228346456692913,
                    "duration": 0.25035136249999823
                },
                {
                    "name": "C5",
                    "midi": 72,
                    "time": 207.13281150000014,
                    "velocity": 0.3858267716535433,
                    "duration": 0.25035136249999823
                },
                {
                    "name": "C5",
                    "midi": 72,
                    "time": 207.39633925000015,
                    "velocity": 0.3858267716535433,
                    "duration": 0.25035136249999823
                },
                {
                    "name": "F#4",
                    "midi": 66,
                    "time": 207.39633925000015,
                    "velocity": 0.3228346456692913,
                    "duration": 0.25035136249999823
                },
                {
                    "name": "D#4",
                    "midi": 63,
                    "time": 207.39633925000015,
                    "velocity": 0.3228346456692913,
                    "duration": 0.25035136249999823
                },
                {
                    "name": "C4",
                    "midi": 60,
                    "time": 207.39633925000015,
                    "velocity": 0.3228346456692913,
                    "duration": 0.25035136249999823
                },
                {
                    "name": "C#5",
                    "midi": 73,
                    "time": 208.18692250000015,
                    "velocity": 0.3779527559055118,
                    "duration": 0.25035136249999823
                },
                {
                    "name": "G4",
                    "midi": 67,
                    "time": 208.18692250000015,
                    "velocity": 0.31496062992125984,
                    "duration": 0.25035136249999823
                },
                {
                    "name": "E4",
                    "midi": 64,
                    "time": 208.18692250000015,
                    "velocity": 0.31496062992125984,
                    "duration": 0.25035136249999823
                },
                {
                    "name": "C#4",
                    "midi": 61,
                    "time": 208.18692250000015,
                    "velocity": 0.31496062992125984,
                    "duration": 0.25035136249999823
                },
                {
                    "name": "C#4",
                    "midi": 61,
                    "time": 208.45045025000016,
                    "velocity": 0.30708661417322836,
                    "duration": 0.25035136249999823
                },
                {
                    "name": "E4",
                    "midi": 64,
                    "time": 208.45045025000016,
                    "velocity": 0.30708661417322836,
                    "duration": 0.25035136249999823
                },
                {
                    "name": "G4",
                    "midi": 67,
                    "time": 208.45045025000016,
                    "velocity": 0.30708661417322836,
                    "duration": 0.25035136249999823
                },
                {
                    "name": "C#5",
                    "midi": 73,
                    "time": 208.45045025000016,
                    "velocity": 0.3700787401574803,
                    "duration": 0.25035136249999823
                },
                {
                    "name": "D#5",
                    "midi": 75,
                    "time": 209.24103350000016,
                    "velocity": 0.5275590551181102,
                    "duration": 0.25035136249999823
                },
                {
                    "name": "C#5",
                    "midi": 73,
                    "time": 209.24103350000016,
                    "velocity": 0.4409448818897638,
                    "duration": 0.25035136249999823
                },
                {
                    "name": "G4",
                    "midi": 67,
                    "time": 209.24103350000016,
                    "velocity": 0.4409448818897638,
                    "duration": 0.25035136249999823
                },
                {
                    "name": "D#4",
                    "midi": 63,
                    "time": 209.24103350000016,
                    "velocity": 0.4409448818897638,
                    "duration": 0.25035136249999823
                },
                {
                    "name": "D#4",
                    "midi": 63,
                    "time": 209.50456125000017,
                    "velocity": 0.4409448818897638,
                    "duration": 0.25035136249999823
                },
                {
                    "name": "G4",
                    "midi": 67,
                    "time": 209.50456125000017,
                    "velocity": 0.4409448818897638,
                    "duration": 0.25035136249999823
                },
                {
                    "name": "C#5",
                    "midi": 73,
                    "time": 209.50456125000017,
                    "velocity": 0.4409448818897638,
                    "duration": 0.25035136249999823
                },
                {
                    "name": "D#5",
                    "midi": 75,
                    "time": 209.50456125000017,
                    "velocity": 0.5275590551181102,
                    "duration": 0.25035136249999823
                },
                {
                    "name": "G#5",
                    "midi": 80,
                    "time": 209.76808900000017,
                    "velocity": 0.5748031496062992,
                    "duration": 0.5270554999999888
                },
                {
                    "name": "D#5",
                    "midi": 75,
                    "time": 209.76808900000017,
                    "velocity": 0.48031496062992124,
                    "duration": 0.5270554999999888
                },
                {
                    "name": "C5",
                    "midi": 72,
                    "time": 209.76808900000017,
                    "velocity": 0.48031496062992124,
                    "duration": 0.5270554999999888
                },
                {
                    "name": "G#4",
                    "midi": 68,
                    "time": 209.76808900000017,
                    "velocity": 0.48031496062992124,
                    "duration": 0.5270554999999888
                },
                {
                    "name": "F#4",
                    "midi": 66,
                    "time": 211.34925550000017,
                    "velocity": 0.4015748031496063,
                    "duration": 0.1317638749999901
                },
                {
                    "name": "D#4",
                    "midi": 63,
                    "time": 211.34925550000017,
                    "velocity": 0.28346456692913385,
                    "duration": 0.1317638749999901
                },
                {
                    "name": "C4",
                    "midi": 60,
                    "time": 211.34925550000017,
                    "velocity": 0.28346456692913385,
                    "duration": 0.1317638749999901
                },
                {
                    "name": "C4",
                    "midi": 60,
                    "time": 211.61278325000015,
                    "velocity": 0.28346456692913385,
                    "duration": 0.1317638749999901
                },
                {
                    "name": "D#4",
                    "midi": 63,
                    "time": 211.61278325000015,
                    "velocity": 0.28346456692913385,
                    "duration": 0.1317638749999901
                },
                {
                    "name": "F#4",
                    "midi": 66,
                    "time": 211.61278325000015,
                    "velocity": 0.4015748031496063,
                    "duration": 0.1317638749999901
                },
                {
                    "name": "F#4",
                    "midi": 66,
                    "time": 212.40336650000015,
                    "velocity": 0.3779527559055118,
                    "duration": 0.1317638749999901
                },
                {
                    "name": "D#4",
                    "midi": 63,
                    "time": 212.40336650000015,
                    "velocity": 0.25984251968503935,
                    "duration": 0.1317638749999901
                },
                {
                    "name": "A3",
                    "midi": 57,
                    "time": 212.40336650000015,
                    "velocity": 0.25984251968503935,
                    "duration": 0.1317638749999901
                },
                {
                    "name": "A3",
                    "midi": 57,
                    "time": 212.66689425000013,
                    "velocity": 0.25984251968503935,
                    "duration": 0.1317638749999901
                },
                {
                    "name": "D#4",
                    "midi": 63,
                    "time": 212.66689425000013,
                    "velocity": 0.25984251968503935,
                    "duration": 0.1317638749999901
                },
                {
                    "name": "F#4",
                    "midi": 66,
                    "time": 212.66689425000013,
                    "velocity": 0.3779527559055118,
                    "duration": 0.1317638749999901
                },
                {
                    "name": "F#4",
                    "midi": 66,
                    "time": 213.45747750000012,
                    "velocity": 0.3543307086614173,
                    "duration": 0.1317638749999901
                },
                {
                    "name": "D#4",
                    "midi": 63,
                    "time": 213.45747750000012,
                    "velocity": 0.2440944881889764,
                    "duration": 0.1317638749999901
                },
                {
                    "name": "C4",
                    "midi": 60,
                    "time": 213.45747750000012,
                    "velocity": 0.2440944881889764,
                    "duration": 0.1317638749999901
                },
                {
                    "name": "C4",
                    "midi": 60,
                    "time": 213.7210052500001,
                    "velocity": 0.2440944881889764,
                    "duration": 0.1317638749999901
                },
                {
                    "name": "D#4",
                    "midi": 63,
                    "time": 213.7210052500001,
                    "velocity": 0.2440944881889764,
                    "duration": 0.1317638749999901
                },
                {
                    "name": "F#4",
                    "midi": 66,
                    "time": 213.7210052500001,
                    "velocity": 0.3543307086614173,
                    "duration": 0.1317638749999901
                },
                {
                    "name": "F#4",
                    "midi": 66,
                    "time": 214.5115885000001,
                    "velocity": 0.33070866141732286,
                    "duration": 0.1317638749999901
                },
                {
                    "name": "D#4",
                    "midi": 63,
                    "time": 214.5115885000001,
                    "velocity": 0.2204724409448819,
                    "duration": 0.1317638749999901
                },
                {
                    "name": "A3",
                    "midi": 57,
                    "time": 214.5115885000001,
                    "velocity": 0.2204724409448819,
                    "duration": 0.1317638749999901
                },
                {
                    "name": "A3",
                    "midi": 57,
                    "time": 214.77511625000008,
                    "velocity": 0.2204724409448819,
                    "duration": 0.1317638749999901
                },
                {
                    "name": "D#4",
                    "midi": 63,
                    "time": 214.77511625000008,
                    "velocity": 0.2204724409448819,
                    "duration": 0.1317638749999901
                },
                {
                    "name": "F#4",
                    "midi": 66,
                    "time": 214.77511625000008,
                    "velocity": 0.31496062992125984,
                    "duration": 0.1317638749999901
                },
                {
                    "name": "C4",
                    "midi": 60,
                    "time": 215.56569950000008,
                    "velocity": 0.2047244094488189,
                    "duration": 0.1317638749999901
                },
                {
                    "name": "F#4",
                    "midi": 66,
                    "time": 215.56569950000008,
                    "velocity": 0.2047244094488189,
                    "duration": 0.1317638749999901
                },
                {
                    "name": "G#4",
                    "midi": 68,
                    "time": 215.56569950000008,
                    "velocity": 0.30708661417322836,
                    "duration": 0.1317638749999901
                },
                {
                    "name": "G#4",
                    "midi": 68,
                    "time": 215.82922725000006,
                    "velocity": 0.30708661417322836,
                    "duration": 0.1317638749999901
                },
                {
                    "name": "F#4",
                    "midi": 66,
                    "time": 215.82922725000006,
                    "velocity": 0.2047244094488189,
                    "duration": 0.1317638749999901
                },
                {
                    "name": "C4",
                    "midi": 60,
                    "time": 215.82922725000006,
                    "velocity": 0.2047244094488189,
                    "duration": 0.1317638749999901
                },
                {
                    "name": "G#3",
                    "midi": 56,
                    "time": 216.61981050000006,
                    "velocity": 0.2047244094488189,
                    "duration": 0.1317638749999901
                },
                {
                    "name": "G#4",
                    "midi": 68,
                    "time": 216.61981050000006,
                    "velocity": 0.2755905511811024,
                    "duration": 0.1317638749999901
                },
                {
                    "name": "F#4",
                    "midi": 66,
                    "time": 216.61981050000006,
                    "velocity": 0.23622047244094488,
                    "duration": 0.1317638749999901
                },
                {
                    "name": "C4",
                    "midi": 60,
                    "time": 216.61981050000006,
                    "velocity": 0.1968503937007874,
                    "duration": 0.1317638749999901
                },
                {
                    "name": "G#3",
                    "midi": 56,
                    "time": 216.88333825000004,
                    "velocity": 0.1889763779527559,
                    "duration": 0.1317638749999901
                },
                {
                    "name": "C4",
                    "midi": 60,
                    "time": 216.88333825000004,
                    "velocity": 0.18110236220472442,
                    "duration": 0.1317638749999901
                },
                {
                    "name": "F#4",
                    "midi": 66,
                    "time": 216.88333825000004,
                    "velocity": 0.2204724409448819,
                    "duration": 0.1317638749999901
                },
                {
                    "name": "G#4",
                    "midi": 68,
                    "time": 216.88333825000004,
                    "velocity": 0.25984251968503935,
                    "duration": 0.1317638749999901
                },
                {
                    "name": "C4",
                    "midi": 60,
                    "time": 217.67392150000003,
                    "velocity": 0.18110236220472442,
                    "duration": 0.1317638749999901
                },
                {
                    "name": "F#4",
                    "midi": 66,
                    "time": 217.67392150000003,
                    "velocity": 0.2204724409448819,
                    "duration": 0.1317638749999901
                },
                {
                    "name": "G#4",
                    "midi": 68,
                    "time": 217.67392150000003,
                    "velocity": 0.25984251968503935,
                    "duration": 0.1317638749999901
                },
                {
                    "name": "G#4",
                    "midi": 68,
                    "time": 217.93744925000001,
                    "velocity": 0.25984251968503935,
                    "duration": 0.1317638749999901
                },
                {
                    "name": "F#4",
                    "midi": 66,
                    "time": 217.93744925000001,
                    "velocity": 0.2204724409448819,
                    "duration": 0.1317638749999901
                },
                {
                    "name": "C4",
                    "midi": 60,
                    "time": 217.93744925000001,
                    "velocity": 0.18110236220472442,
                    "duration": 0.1317638749999901
                },
                {
                    "name": "G#3",
                    "midi": 56,
                    "time": 218.7280325,
                    "velocity": 0.1732283464566929,
                    "duration": 0.1317638749999901
                },
                {
                    "name": "G#4",
                    "midi": 68,
                    "time": 218.7280325,
                    "velocity": 0.2440944881889764,
                    "duration": 0.1317638749999901
                },
                {
                    "name": "F#4",
                    "midi": 66,
                    "time": 218.7280325,
                    "velocity": 0.2125984251968504,
                    "duration": 0.1317638749999901
                },
                {
                    "name": "C4",
                    "midi": 60,
                    "time": 218.7280325,
                    "velocity": 0.1732283464566929,
                    "duration": 0.1317638749999901
                },
                {
                    "name": "G#3",
                    "midi": 56,
                    "time": 218.99156025,
                    "velocity": 0.16535433070866143,
                    "duration": 0.1317638749999901
                },
                {
                    "name": "C4",
                    "midi": 60,
                    "time": 218.99156025,
                    "velocity": 0.16535433070866143,
                    "duration": 0.1317638749999901
                },
                {
                    "name": "F#4",
                    "midi": 66,
                    "time": 218.99156025,
                    "velocity": 0.1968503937007874,
                    "duration": 0.1317638749999901
                },
                {
                    "name": "G#4",
                    "midi": 68,
                    "time": 218.99156025,
                    "velocity": 0.2283464566929134,
                    "duration": 0.1317638749999901
                },
                {
                    "name": "G#4",
                    "midi": 68,
                    "time": 219.25508799999997,
                    "velocity": 0.2204724409448819,
                    "duration": 2.108222000000012
                },
                {
                    "name": "G#5",
                    "midi": 80,
                    "time": 219.25508799999997,
                    "velocity": 0.29133858267716534,
                    "duration": 2.108222000000012
                },
                {
                    "name": "G#4",
                    "midi": 68,
                    "time": 221.36330999999998,
                    "velocity": 0.2125984251968504,
                    "duration": 1.043130677083326
                },
                {
                    "name": "G#5",
                    "midi": 80,
                    "time": 221.36330999999998,
                    "velocity": 0.29133858267716534,
                    "duration": 1.043130677083326
                },
                {
                    "name": "G#4",
                    "midi": 68,
                    "time": 222.417421,
                    "velocity": 0.2204724409448819,
                    "duration": 1.043130677083326
                },
                {
                    "name": "G#5",
                    "midi": 80,
                    "time": 222.417421,
                    "velocity": 0.29133858267716534,
                    "duration": 1.043130677083326
                },
                {
                    "name": "G#4",
                    "midi": 68,
                    "time": 223.471532,
                    "velocity": 0.28346456692913385,
                    "duration": 1.5811664999999948
                },
                {
                    "name": "G#5",
                    "midi": 80,
                    "time": 223.471532,
                    "velocity": 0.3700787401574803,
                    "duration": 1.5811664999999948
                },
                {
                    "name": "A#4",
                    "midi": 70,
                    "time": 225.0526985,
                    "velocity": 0.2992125984251969,
                    "duration": 0.5270554999999888
                },
                {
                    "name": "A#5",
                    "midi": 82,
                    "time": 225.0526985,
                    "velocity": 0.31496062992125984,
                    "duration": 0.5270554999999888
                },
                {
                    "name": "G#5",
                    "midi": 80,
                    "time": 225.57975399999998,
                    "velocity": 0.31496062992125984,
                    "duration": 2.108222000000012
                },
                {
                    "name": "G#4",
                    "midi": 68,
                    "time": 225.57975399999998,
                    "velocity": 0.2992125984251969,
                    "duration": 2.108222000000012
                },
                {
                    "name": "F4",
                    "midi": 65,
                    "time": 227.687976,
                    "velocity": 0.2204724409448819,
                    "duration": 2.108222000000012
                },
                {
                    "name": "F5",
                    "midi": 77,
                    "time": 227.687976,
                    "velocity": 0.29133858267716534,
                    "duration": 2.108222000000012
                },
                {
                    "name": "G#4",
                    "midi": 68,
                    "time": 229.796198,
                    "velocity": 0.2125984251968504,
                    "duration": 0.5270554999999888
                },
                {
                    "name": "G#5",
                    "midi": 80,
                    "time": 229.796198,
                    "velocity": 0.29133858267716534,
                    "duration": 0.5270554999999888
                },
                {
                    "name": "G4",
                    "midi": 67,
                    "time": 230.3232535,
                    "velocity": 0.2125984251968504,
                    "duration": 0.5270554999999888
                },
                {
                    "name": "G5",
                    "midi": 79,
                    "time": 230.3232535,
                    "velocity": 0.29133858267716534,
                    "duration": 0.5270554999999888
                },
                {
                    "name": "F4",
                    "midi": 65,
                    "time": 230.85030899999998,
                    "velocity": 0.2204724409448819,
                    "duration": 0.5270554999999888
                },
                {
                    "name": "F5",
                    "midi": 77,
                    "time": 230.85030899999998,
                    "velocity": 0.29133858267716534,
                    "duration": 0.5270554999999888
                },
                {
                    "name": "G4",
                    "midi": 67,
                    "time": 231.37736449999997,
                    "velocity": 0.2125984251968504,
                    "duration": 0.5270554999999888
                },
                {
                    "name": "G5",
                    "midi": 79,
                    "time": 231.37736449999997,
                    "velocity": 0.29133858267716534,
                    "duration": 0.5270554999999888
                },
                {
                    "name": "G#4",
                    "midi": 68,
                    "time": 231.90441999999996,
                    "velocity": 0.28346456692913385,
                    "duration": 3.1623329999999896
                },
                {
                    "name": "G#5",
                    "midi": 80,
                    "time": 231.90441999999996,
                    "velocity": 0.3700787401574803,
                    "duration": 3.1623329999999896
                },
                {
                    "name": "A#4",
                    "midi": 70,
                    "time": 235.06675299999995,
                    "velocity": 0.30708661417322836,
                    "duration": 0.7905832499999974
                },
                {
                    "name": "A#5",
                    "midi": 82,
                    "time": 235.06675299999995,
                    "velocity": 0.3464566929133858,
                    "duration": 0.7905832499999974
                },
                {
                    "name": "G#4",
                    "midi": 68,
                    "time": 235.85733624999995,
                    "velocity": 0.2992125984251969,
                    "duration": 0.25035136249999823
                },
                {
                    "name": "G#5",
                    "midi": 80,
                    "time": 235.85733624999995,
                    "velocity": 0.31496062992125984,
                    "duration": 0.25035136249999823
                },
                {
                    "name": "G#4",
                    "midi": 68,
                    "time": 236.12086399999995,
                    "velocity": 0.2204724409448819,
                    "duration": 2.108222000000012
                },
                {
                    "name": "G#5",
                    "midi": 80,
                    "time": 236.12086399999995,
                    "velocity": 0.29133858267716534,
                    "duration": 2.108222000000012
                },
                {
                    "name": "G#4",
                    "midi": 68,
                    "time": 238.22908599999997,
                    "velocity": 0.2204724409448819,
                    "duration": 1.043130677083326
                },
                {
                    "name": "G#5",
                    "midi": 80,
                    "time": 238.22908599999997,
                    "velocity": 0.2992125984251969,
                    "duration": 1.043130677083326
                },
                {
                    "name": "G#4",
                    "midi": 68,
                    "time": 239.28319699999997,
                    "velocity": 0.2283464566929134,
                    "duration": 1.043130677083326
                },
                {
                    "name": "G#5",
                    "midi": 80,
                    "time": 239.28319699999997,
                    "velocity": 0.30708661417322836,
                    "duration": 1.043130677083326
                },
                {
                    "name": "B4",
                    "midi": 71,
                    "time": 240.33730799999998,
                    "velocity": 0.2992125984251969,
                    "duration": 2.108222000000012
                },
                {
                    "name": "B5",
                    "midi": 83,
                    "time": 240.33730799999998,
                    "velocity": 0.3858267716535433,
                    "duration": 2.108222000000012
                },
                {
                    "name": "A#5",
                    "midi": 82,
                    "time": 242.44553,
                    "velocity": 0.31496062992125984,
                    "duration": 1.054111000000006
                },
                {
                    "name": "A#4",
                    "midi": 70,
                    "time": 242.44553,
                    "velocity": 0.2992125984251969,
                    "duration": 1.054111000000006
                },
                {
                    "name": "G#4",
                    "midi": 68,
                    "time": 243.499641,
                    "velocity": 0.2992125984251969,
                    "duration": 0.5270554999999888
                },
                {
                    "name": "G#5",
                    "midi": 80,
                    "time": 243.499641,
                    "velocity": 0.31496062992125984,
                    "duration": 0.5270554999999888
                },
                {
                    "name": "F#4",
                    "midi": 66,
                    "time": 244.02669649999999,
                    "velocity": 0.28346456692913385,
                    "duration": 0.5270554999999888
                },
                {
                    "name": "F#5",
                    "midi": 78,
                    "time": 244.02669649999999,
                    "velocity": 0.30708661417322836,
                    "duration": 0.5270554999999888
                },
                {
                    "name": "F4",
                    "midi": 65,
                    "time": 244.55375199999997,
                    "velocity": 0.2204724409448819,
                    "duration": 2.108222000000012
                },
                {
                    "name": "F5",
                    "midi": 77,
                    "time": 244.55375199999997,
                    "velocity": 0.29133858267716534,
                    "duration": 2.108222000000012
                },
                {
                    "name": "D#4",
                    "midi": 63,
                    "time": 246.661974,
                    "velocity": 0.2125984251968504,
                    "duration": 0.5270554999999888
                },
                {
                    "name": "D#5",
                    "midi": 75,
                    "time": 246.661974,
                    "velocity": 0.29133858267716534,
                    "duration": 0.5270554999999888
                },
                {
                    "name": "F4",
                    "midi": 65,
                    "time": 247.18902949999998,
                    "velocity": 0.2125984251968504,
                    "duration": 0.5270554999999888
                },
                {
                    "name": "F5",
                    "midi": 77,
                    "time": 247.18902949999998,
                    "velocity": 0.29133858267716534,
                    "duration": 0.5270554999999888
                },
                {
                    "name": "F#4",
                    "midi": 66,
                    "time": 247.71608499999996,
                    "velocity": 0.2204724409448819,
                    "duration": 0.5270554999999888
                },
                {
                    "name": "F#5",
                    "midi": 78,
                    "time": 247.71608499999996,
                    "velocity": 0.29133858267716534,
                    "duration": 0.5270554999999888
                },
                {
                    "name": "G#4",
                    "midi": 68,
                    "time": 248.24314049999995,
                    "velocity": 0.1889763779527559,
                    "duration": 0.5270554999999888
                },
                {
                    "name": "G#5",
                    "midi": 80,
                    "time": 248.24314049999995,
                    "velocity": 0.29133858267716534,
                    "duration": 0.5270554999999888
                },
                {
                    "name": "C#4",
                    "midi": 61,
                    "time": 248.77019599999994,
                    "velocity": 0.28346456692913385,
                    "duration": 4.216443999999996
                },
                {
                    "name": "C#5",
                    "midi": 73,
                    "time": 248.77019599999994,
                    "velocity": 0.3700787401574803,
                    "duration": 4.216443999999996
                },
                {
                    "name": "G#4",
                    "midi": 68,
                    "time": 252.98663999999994,
                    "velocity": 0.25984251968503935,
                    "duration": 2.108222000000012
                },
                {
                    "name": "G#5",
                    "midi": 80,
                    "time": 252.98663999999994,
                    "velocity": 0.3464566929133858,
                    "duration": 2.108222000000012
                },
                {
                    "name": "G#4",
                    "midi": 68,
                    "time": 255.09486199999995,
                    "velocity": 0.2440944881889764,
                    "duration": 1.054111000000006
                },
                {
                    "name": "G#5",
                    "midi": 80,
                    "time": 255.09486199999995,
                    "velocity": 0.3464566929133858,
                    "duration": 1.054111000000006
                },
                {
                    "name": "G#4",
                    "midi": 68,
                    "time": 256.14897299999996,
                    "velocity": 0.25984251968503935,
                    "duration": 1.0541109999999776
                },
                {
                    "name": "G#5",
                    "midi": 80,
                    "time": 256.14897299999996,
                    "velocity": 0.3464566929133858,
                    "duration": 1.0541109999999776
                },
                {
                    "name": "G#4",
                    "midi": 68,
                    "time": 257.20308399999993,
                    "velocity": 0.33070866141732286,
                    "duration": 1.5811664999999948
                },
                {
                    "name": "G#5",
                    "midi": 80,
                    "time": 257.20308399999993,
                    "velocity": 0.4409448818897638,
                    "duration": 1.5811664999999948
                },
                {
                    "name": "A4",
                    "midi": 69,
                    "time": 258.7842504999999,
                    "velocity": 0.3543307086614173,
                    "duration": 0.5270555000000172
                },
                {
                    "name": "A5",
                    "midi": 81,
                    "time": 258.7842504999999,
                    "velocity": 0.3858267716535433,
                    "duration": 0.5270555000000172
                },
                {
                    "name": "G#5",
                    "midi": 80,
                    "time": 259.31130599999995,
                    "velocity": 0.3858267716535433,
                    "duration": 2.108222000000012
                },
                {
                    "name": "G#4",
                    "midi": 68,
                    "time": 259.31130599999995,
                    "velocity": 0.3543307086614173,
                    "duration": 2.108222000000012
                },
                {
                    "name": "E4",
                    "midi": 64,
                    "time": 261.41952799999996,
                    "velocity": 0.25984251968503935,
                    "duration": 2.108222000000012
                },
                {
                    "name": "E5",
                    "midi": 76,
                    "time": 261.41952799999996,
                    "velocity": 0.3464566929133858,
                    "duration": 2.108222000000012
                },
                {
                    "name": "G#4",
                    "midi": 68,
                    "time": 263.52774999999997,
                    "velocity": 0.2440944881889764,
                    "duration": 0.5270555000000172
                },
                {
                    "name": "G#5",
                    "midi": 80,
                    "time": 263.52774999999997,
                    "velocity": 0.3464566929133858,
                    "duration": 0.5270555000000172
                },
                {
                    "name": "F#4",
                    "midi": 66,
                    "time": 264.0548055,
                    "velocity": 0.2440944881889764,
                    "duration": 0.5270555000000172
                },
                {
                    "name": "F#5",
                    "midi": 78,
                    "time": 264.0548055,
                    "velocity": 0.3464566929133858,
                    "duration": 0.5270555000000172
                },
                {
                    "name": "E4",
                    "midi": 64,
                    "time": 264.581861,
                    "velocity": 0.25984251968503935,
                    "duration": 0.5270555000000172
                },
                {
                    "name": "E5",
                    "midi": 76,
                    "time": 264.581861,
                    "velocity": 0.3464566929133858,
                    "duration": 0.5270555000000172
                },
                {
                    "name": "F#4",
                    "midi": 66,
                    "time": 265.1089165,
                    "velocity": 0.2440944881889764,
                    "duration": 0.5270555000000172
                },
                {
                    "name": "F#5",
                    "midi": 78,
                    "time": 265.1089165,
                    "velocity": 0.3464566929133858,
                    "duration": 0.5270555000000172
                },
                {
                    "name": "G#4",
                    "midi": 68,
                    "time": 265.63597200000004,
                    "velocity": 0.33070866141732286,
                    "duration": 3.1623329999999896
                },
                {
                    "name": "G#5",
                    "midi": 80,
                    "time": 265.63597200000004,
                    "velocity": 0.4409448818897638,
                    "duration": 3.1623329999999896
                },
                {
                    "name": "A4",
                    "midi": 69,
                    "time": 268.798305,
                    "velocity": 0.3779527559055118,
                    "duration": 0.7905832499999974
                },
                {
                    "name": "A5",
                    "midi": 81,
                    "time": 268.798305,
                    "velocity": 0.4015748031496063,
                    "duration": 0.7905832499999974
                },
                {
                    "name": "G#4",
                    "midi": 68,
                    "time": 269.58888825,
                    "velocity": 0.3543307086614173,
                    "duration": 0.25035136249999823
                },
                {
                    "name": "G#5",
                    "midi": 80,
                    "time": 269.58888825,
                    "velocity": 0.3858267716535433,
                    "duration": 0.25035136249999823
                },
                {
                    "name": "G#4",
                    "midi": 68,
                    "time": 269.852416,
                    "velocity": 0.25984251968503935,
                    "duration": 2.108222000000012
                },
                {
                    "name": "G#5",
                    "midi": 80,
                    "time": 269.852416,
                    "velocity": 0.3464566929133858,
                    "duration": 2.108222000000012
                },
                {
                    "name": "G#4",
                    "midi": 68,
                    "time": 271.960638,
                    "velocity": 0.2755905511811024,
                    "duration": 1.0541109999999776
                },
                {
                    "name": "G#5",
                    "midi": 80,
                    "time": 271.960638,
                    "velocity": 0.3700787401574803,
                    "duration": 1.0541109999999776
                },
                {
                    "name": "G#4",
                    "midi": 68,
                    "time": 273.014749,
                    "velocity": 0.29133858267716534,
                    "duration": 1.0541109999999776
                },
                {
                    "name": "G#5",
                    "midi": 80,
                    "time": 273.014749,
                    "velocity": 0.3937007874015748,
                    "duration": 1.0541109999999776
                },
                {
                    "name": "C#5",
                    "midi": 73,
                    "time": 274.06886,
                    "velocity": 0.3937007874015748,
                    "duration": 2.108222000000012
                },
                {
                    "name": "C#6",
                    "midi": 85,
                    "time": 274.06886,
                    "velocity": 0.5275590551181102,
                    "duration": 2.108222000000012
                },
                {
                    "name": "A5",
                    "midi": 81,
                    "time": 276.177082,
                    "velocity": 0.4330708661417323,
                    "duration": 1.0541109999999776
                },
                {
                    "name": "A4",
                    "midi": 69,
                    "time": 276.177082,
                    "velocity": 0.3937007874015748,
                    "duration": 1.0541109999999776
                },
                {
                    "name": "G#4",
                    "midi": 68,
                    "time": 277.23119299999996,
                    "velocity": 0.3937007874015748,
                    "duration": 0.5270555000000172
                },
                {
                    "name": "G#5",
                    "midi": 80,
                    "time": 277.23119299999996,
                    "velocity": 0.4330708661417323,
                    "duration": 0.5270555000000172
                },
                {
                    "name": "F#4",
                    "midi": 66,
                    "time": 277.7582485,
                    "velocity": 0.3779527559055118,
                    "duration": 0.5270555000000172
                },
                {
                    "name": "F#5",
                    "midi": 78,
                    "time": 277.7582485,
                    "velocity": 0.4094488188976378,
                    "duration": 0.5270555000000172
                },
                {
                    "name": "B4",
                    "midi": 71,
                    "time": 278.285304,
                    "velocity": 0.29133858267716534,
                    "duration": 2.108222000000012
                },
                {
                    "name": "B5",
                    "midi": 83,
                    "time": 278.285304,
                    "velocity": 0.3858267716535433,
                    "duration": 2.108222000000012
                },
                {
                    "name": "D#4",
                    "midi": 63,
                    "time": 280.393526,
                    "velocity": 0.28346456692913385,
                    "duration": 0.5270555000000172
                },
                {
                    "name": "D#5",
                    "midi": 75,
                    "time": 280.393526,
                    "velocity": 0.3858267716535433,
                    "duration": 0.5270555000000172
                },
                {
                    "name": "E4",
                    "midi": 64,
                    "time": 280.9205815,
                    "velocity": 0.28346456692913385,
                    "duration": 0.5270555000000172
                },
                {
                    "name": "E5",
                    "midi": 76,
                    "time": 280.9205815,
                    "velocity": 0.3858267716535433,
                    "duration": 0.5270555000000172
                },
                {
                    "name": "F#4",
                    "midi": 66,
                    "time": 281.44763700000004,
                    "velocity": 0.29133858267716534,
                    "duration": 0.5270555000000172
                },
                {
                    "name": "F#5",
                    "midi": 78,
                    "time": 281.44763700000004,
                    "velocity": 0.3858267716535433,
                    "duration": 0.5270555000000172
                },
                {
                    "name": "G#4",
                    "midi": 68,
                    "time": 281.97469250000006,
                    "velocity": 0.28346456692913385,
                    "duration": 0.5270555000000172
                },
                {
                    "name": "G#5",
                    "midi": 80,
                    "time": 281.97469250000006,
                    "velocity": 0.3858267716535433,
                    "duration": 0.5270555000000172
                },
                {
                    "name": "E4",
                    "midi": 64,
                    "time": 282.5017480000001,
                    "velocity": 0.3543307086614173,
                    "duration": 2.108222000000012
                },
                {
                    "name": "E5",
                    "midi": 76,
                    "time": 282.5017480000001,
                    "velocity": 0.4566929133858268,
                    "duration": 2.108222000000012
                },
                {
                    "name": "D#4",
                    "midi": 63,
                    "time": 284.6099700000001,
                    "velocity": 0.31496062992125984,
                    "duration": 2.108222000000012
                },
                {
                    "name": "D#5",
                    "midi": 75,
                    "time": 284.6099700000001,
                    "velocity": 0.4015748031496063,
                    "duration": 2.108222000000012
                },
                {
                    "name": "G#4",
                    "midi": 68,
                    "time": 286.7181920000001,
                    "velocity": 0.3228346456692913,
                    "duration": 2.1082219999998415
                },
                {
                    "name": "G#3",
                    "midi": 56,
                    "time": 286.9817197500001,
                    "velocity": 0.1732283464566929,
                    "duration": 0.2635277499999802
                },
                {
                    "name": "F4",
                    "midi": 65,
                    "time": 287.24524750000006,
                    "velocity": 0.1732283464566929,
                    "duration": 0.2635277499999802
                },
                {
                    "name": "C#4",
                    "midi": 61,
                    "time": 287.24524750000006,
                    "velocity": 0.13385826771653545,
                    "duration": 0.2635277499999802
                },
                {
                    "name": "G#3",
                    "midi": 56,
                    "time": 287.50877525000004,
                    "velocity": 0.1732283464566929,
                    "duration": 0.2635277499999802
                },
                {
                    "name": "C#4",
                    "midi": 61,
                    "time": 287.772303,
                    "velocity": 0.13385826771653545,
                    "duration": 0.2635277499999802
                },
                {
                    "name": "F4",
                    "midi": 65,
                    "time": 287.772303,
                    "velocity": 0.1732283464566929,
                    "duration": 0.2635277499999802
                },
                {
                    "name": "G#3",
                    "midi": 56,
                    "time": 288.03583075,
                    "velocity": 0.1732283464566929,
                    "duration": 0.2635277499999802
                },
                {
                    "name": "C#4",
                    "midi": 61,
                    "time": 288.2993585,
                    "velocity": 0.13385826771653545,
                    "duration": 0.2635277499999802
                },
                {
                    "name": "F4",
                    "midi": 65,
                    "time": 288.2993585,
                    "velocity": 0.1732283464566929,
                    "duration": 0.2635277499999802
                },
                {
                    "name": "G#3",
                    "midi": 56,
                    "time": 288.56288624999996,
                    "velocity": 0.1732283464566929,
                    "duration": 0.2635277499999802
                },
                {
                    "name": "G#4",
                    "midi": 68,
                    "time": 288.82641399999994,
                    "velocity": 0.3228346456692913,
                    "duration": 1.0541109999999208
                },
                {
                    "name": "G#3",
                    "midi": 56,
                    "time": 289.0899417499999,
                    "velocity": 0.1889763779527559,
                    "duration": 0.2635277499999802
                },
                {
                    "name": "F4",
                    "midi": 65,
                    "time": 289.3534694999999,
                    "velocity": 0.1889763779527559,
                    "duration": 0.2635277499999802
                },
                {
                    "name": "C#4",
                    "midi": 61,
                    "time": 289.3534694999999,
                    "velocity": 0.14173228346456693,
                    "duration": 0.2635277499999802
                },
                {
                    "name": "G#3",
                    "midi": 56,
                    "time": 289.6169972499999,
                    "velocity": 0.1889763779527559,
                    "duration": 0.2635277499999802
                },
                {
                    "name": "G#4",
                    "midi": 68,
                    "time": 289.88052499999986,
                    "velocity": 0.3228346456692913,
                    "duration": 1.0541109999999208
                },
                {
                    "name": "F4",
                    "midi": 65,
                    "time": 289.88052499999986,
                    "velocity": 0.1732283464566929,
                    "duration": 0.2635277499999802
                },
                {
                    "name": "C#4",
                    "midi": 61,
                    "time": 289.88052499999986,
                    "velocity": 0.13385826771653545,
                    "duration": 0.2635277499999802
                },
                {
                    "name": "G#3",
                    "midi": 56,
                    "time": 290.14405274999984,
                    "velocity": 0.2125984251968504,
                    "duration": 0.2635277499999802
                },
                {
                    "name": "F4",
                    "midi": 65,
                    "time": 290.4075804999998,
                    "velocity": 0.2125984251968504,
                    "duration": 0.2635277499999802
                },
                {
                    "name": "C#4",
                    "midi": 61,
                    "time": 290.4075804999998,
                    "velocity": 0.16535433070866143,
                    "duration": 0.2635277499999802
                },
                {
                    "name": "G#3",
                    "midi": 56,
                    "time": 290.6711082499998,
                    "velocity": 0.2125984251968504,
                    "duration": 0.2635277499999802
                },
                {
                    "name": "G#4",
                    "midi": 68,
                    "time": 290.9346359999998,
                    "velocity": 0.4094488188976378,
                    "duration": 1.5811664999998811
                },
                {
                    "name": "G#3",
                    "midi": 56,
                    "time": 291.19816374999976,
                    "velocity": 0.2047244094488189,
                    "duration": 0.2635277499999802
                },
                {
                    "name": "F#4",
                    "midi": 66,
                    "time": 291.46169149999974,
                    "velocity": 0.2047244094488189,
                    "duration": 0.2635277499999802
                },
                {
                    "name": "C4",
                    "midi": 60,
                    "time": 291.46169149999974,
                    "velocity": 0.15748031496062992,
                    "duration": 0.2635277499999802
                },
                {
                    "name": "G#3",
                    "midi": 56,
                    "time": 291.7252192499997,
                    "velocity": 0.2047244094488189,
                    "duration": 0.2635277499999802
                },
                {
                    "name": "C4",
                    "midi": 60,
                    "time": 291.9887469999997,
                    "velocity": 0.15748031496062992,
                    "duration": 0.2635277499999802
                },
                {
                    "name": "F#4",
                    "midi": 66,
                    "time": 291.9887469999997,
                    "velocity": 0.2047244094488189,
                    "duration": 0.2635277499999802
                },
                {
                    "name": "G#3",
                    "midi": 56,
                    "time": 292.2522747499997,
                    "velocity": 0.2047244094488189,
                    "duration": 0.2635277499999802
                },
                {
                    "name": "C4",
                    "midi": 60,
                    "time": 292.51580249999967,
                    "velocity": 0.13385826771653545,
                    "duration": 0.2635277499999802
                },
                {
                    "name": "F#4",
                    "midi": 66,
                    "time": 292.51580249999967,
                    "velocity": 0.1732283464566929,
                    "duration": 0.2635277499999802
                },
                {
                    "name": "A#4",
                    "midi": 70,
                    "time": 292.51580249999967,
                    "velocity": 0.36220472440944884,
                    "duration": 0.5270554999999604
                },
                {
                    "name": "G#3",
                    "midi": 56,
                    "time": 292.77933024999965,
                    "velocity": 0.1732283464566929,
                    "duration": 0.2635277499999802
                },
                {
                    "name": "G#4",
                    "midi": 68,
                    "time": 293.0428579999996,
                    "velocity": 0.36220472440944884,
                    "duration": 2.1082219999998415
                },
                {
                    "name": "G#3",
                    "midi": 56,
                    "time": 293.3063857499996,
                    "velocity": 0.1732283464566929,
                    "duration": 0.2635277499999802
                },
                {
                    "name": "C4",
                    "midi": 60,
                    "time": 293.5699134999996,
                    "velocity": 0.13385826771653545,
                    "duration": 0.2635277499999802
                },
                {
                    "name": "F#4",
                    "midi": 66,
                    "time": 293.5699134999996,
                    "velocity": 0.1732283464566929,
                    "duration": 0.2635277499999802
                },
                {
                    "name": "G#3",
                    "midi": 56,
                    "time": 293.83344124999957,
                    "velocity": 0.1732283464566929,
                    "duration": 0.2635277499999802
                },
                {
                    "name": "C4",
                    "midi": 60,
                    "time": 294.09696899999955,
                    "velocity": 0.13385826771653545,
                    "duration": 0.2635277499999802
                },
                {
                    "name": "F#4",
                    "midi": 66,
                    "time": 294.09696899999955,
                    "velocity": 0.1732283464566929,
                    "duration": 0.2635277499999802
                },
                {
                    "name": "G#3",
                    "midi": 56,
                    "time": 294.3604967499995,
                    "velocity": 0.1732283464566929,
                    "duration": 0.2635277499999802
                },
                {
                    "name": "C4",
                    "midi": 60,
                    "time": 294.6240244999995,
                    "velocity": 0.13385826771653545,
                    "duration": 0.2635277499999802
                },
                {
                    "name": "F#4",
                    "midi": 66,
                    "time": 294.6240244999995,
                    "velocity": 0.1732283464566929,
                    "duration": 0.2635277499999802
                },
                {
                    "name": "G#3",
                    "midi": 56,
                    "time": 294.8875522499995,
                    "velocity": 0.1732283464566929,
                    "duration": 0.2635277499999802
                },
                {
                    "name": "F4",
                    "midi": 65,
                    "time": 295.15107999999947,
                    "velocity": 0.3228346456692913,
                    "duration": 2.1082219999998415
                },
                {
                    "name": "F3",
                    "midi": 53,
                    "time": 295.41460774999945,
                    "velocity": 0.1732283464566929,
                    "duration": 0.2635277499999802
                },
                {
                    "name": "C#4",
                    "midi": 61,
                    "time": 295.6781354999994,
                    "velocity": 0.1732283464566929,
                    "duration": 0.2635277499999802
                },
                {
                    "name": "G#3",
                    "midi": 56,
                    "time": 295.6781354999994,
                    "velocity": 0.13385826771653545,
                    "duration": 0.2635277499999802
                },
                {
                    "name": "F3",
                    "midi": 53,
                    "time": 295.9416632499994,
                    "velocity": 0.1732283464566929,
                    "duration": 0.2635277499999802
                },
                {
                    "name": "C#4",
                    "midi": 61,
                    "time": 296.2051909999994,
                    "velocity": 0.1732283464566929,
                    "duration": 0.2635277499999802
                },
                {
                    "name": "G#3",
                    "midi": 56,
                    "time": 296.2051909999994,
                    "velocity": 0.13385826771653545,
                    "duration": 0.2635277499999802
                },
                {
                    "name": "F3",
                    "midi": 53,
                    "time": 296.46871874999937,
                    "velocity": 0.1732283464566929,
                    "duration": 0.2635277499999802
                },
                {
                    "name": "C#4",
                    "midi": 61,
                    "time": 296.73224649999935,
                    "velocity": 0.1732283464566929,
                    "duration": 0.2635277499999802
                },
                {
                    "name": "G#3",
                    "midi": 56,
                    "time": 296.73224649999935,
                    "velocity": 0.13385826771653545,
                    "duration": 0.2635277499999802
                },
                {
                    "name": "F3",
                    "midi": 53,
                    "time": 296.99577424999933,
                    "velocity": 0.1732283464566929,
                    "duration": 0.2635277499999802
                },
                {
                    "name": "G#4",
                    "midi": 68,
                    "time": 297.2593019999993,
                    "velocity": 0.3228346456692913,
                    "duration": 0.5270554999999604
                },
                {
                    "name": "A#3",
                    "midi": 58,
                    "time": 297.5228297499993,
                    "velocity": 0.1968503937007874,
                    "duration": 0.2635277499999802
                },
                {
                    "name": "C#4",
                    "midi": 61,
                    "time": 297.78635749999927,
                    "velocity": 0.13385826771653545,
                    "duration": 0.2635277499999802
                },
                {
                    "name": "D#4",
                    "midi": 63,
                    "time": 297.78635749999927,
                    "velocity": 0.1732283464566929,
                    "duration": 0.2635277499999802
                },
                {
                    "name": "G4",
                    "midi": 67,
                    "time": 297.78635749999927,
                    "velocity": 0.3228346456692913,
                    "duration": 0.5270554999999604
                },
                {
                    "name": "A#3",
                    "midi": 58,
                    "time": 298.04988524999925,
                    "velocity": 0.2047244094488189,
                    "duration": 0.2635277499999802
                },
                {
                    "name": "C#4",
                    "midi": 61,
                    "time": 298.31341299999923,
                    "velocity": 0.13385826771653545,
                    "duration": 0.2635277499999802
                },
                {
                    "name": "D#4",
                    "midi": 63,
                    "time": 298.31341299999923,
                    "velocity": 0.1732283464566929,
                    "duration": 0.2635277499999802
                },
                {
                    "name": "F4",
                    "midi": 65,
                    "time": 298.31341299999923,
                    "velocity": 0.3228346456692913,
                    "duration": 0.5270554999999604
                },
                {
                    "name": "A#3",
                    "midi": 58,
                    "time": 298.5769407499992,
                    "velocity": 0.2204724409448819,
                    "duration": 0.2635277499999802
                },
                {
                    "name": "C#4",
                    "midi": 61,
                    "time": 298.8404684999992,
                    "velocity": 0.13385826771653545,
                    "duration": 0.2635277499999802
                },
                {
                    "name": "D#4",
                    "midi": 63,
                    "time": 298.8404684999992,
                    "velocity": 0.1732283464566929,
                    "duration": 0.2635277499999802
                },
                {
                    "name": "G4",
                    "midi": 67,
                    "time": 298.8404684999992,
                    "velocity": 0.3228346456692913,
                    "duration": 0.5270554999999604
                },
                {
                    "name": "A#3",
                    "midi": 58,
                    "time": 299.10399624999917,
                    "velocity": 0.23622047244094488,
                    "duration": 0.2635277499999802
                },
                {
                    "name": "G#4",
                    "midi": 68,
                    "time": 299.36752399999915,
                    "velocity": 0.4094488188976378,
                    "duration": 3.1623329999997623
                },
                {
                    "name": "G#3",
                    "midi": 56,
                    "time": 299.63105174999913,
                    "velocity": 0.1732283464566929,
                    "duration": 0.2635277499999802
                },
                {
                    "name": "C4",
                    "midi": 60,
                    "time": 299.8945794999991,
                    "velocity": 0.13385826771653545,
                    "duration": 0.2635277499999802
                },
                {
                    "name": "D#4",
                    "midi": 63,
                    "time": 299.8945794999991,
                    "velocity": 0.18110236220472442,
                    "duration": 0.2635277499999802
                },
                {
                    "name": "G#3",
                    "midi": 56,
                    "time": 300.1581072499991,
                    "velocity": 0.18110236220472442,
                    "duration": 0.2635277499999802
                },
                {
                    "name": "D#4",
                    "midi": 63,
                    "time": 300.42163499999907,
                    "velocity": 0.1889763779527559,
                    "duration": 0.2635277499999802
                },
                {
                    "name": "C4",
                    "midi": 60,
                    "time": 300.42163499999907,
                    "velocity": 0.14960629921259844,
                    "duration": 0.2635277499999802
                },
                {
                    "name": "G#3",
                    "midi": 56,
                    "time": 300.68516274999905,
                    "velocity": 0.1968503937007874,
                    "duration": 0.2635277499999802
                },
                {
                    "name": "D#4",
                    "midi": 63,
                    "time": 300.94869049999903,
                    "velocity": 0.2047244094488189,
                    "duration": 0.2635277499999802
                },
                {
                    "name": "C4",
                    "midi": 60,
                    "time": 300.94869049999903,
                    "velocity": 0.15748031496062992,
                    "duration": 0.2635277499999802
                },
                {
                    "name": "G#3",
                    "midi": 56,
                    "time": 301.212218249999,
                    "velocity": 0.2125984251968504,
                    "duration": 0.2635277499999802
                },
                {
                    "name": "G#3",
                    "midi": 56,
                    "time": 301.739273749999,
                    "velocity": 0.2204724409448819,
                    "duration": 0.2635277499999802
                },
                {
                    "name": "C4",
                    "midi": 60,
                    "time": 302.00280149999895,
                    "velocity": 0.1732283464566929,
                    "duration": 0.2635277499999802
                },
                {
                    "name": "F#4",
                    "midi": 66,
                    "time": 302.00280149999895,
                    "velocity": 0.2204724409448819,
                    "duration": 0.2635277499999802
                },
                {
                    "name": "G#3",
                    "midi": 56,
                    "time": 302.26632924999893,
                    "velocity": 0.2204724409448819,
                    "duration": 0.2635277499999802
                },
                {
                    "name": "A#4",
                    "midi": 70,
                    "time": 302.5298569999989,
                    "velocity": 0.3858267716535433,
                    "duration": 0.7905832499999406
                },
                {
                    "name": "C4",
                    "midi": 60,
                    "time": 302.5298569999989,
                    "velocity": 0.13385826771653545,
                    "duration": 0.2635277499999802
                },
                {
                    "name": "F#4",
                    "midi": 66,
                    "time": 302.5298569999989,
                    "velocity": 0.1732283464566929,
                    "duration": 0.2635277499999802
                },
                {
                    "name": "G#3",
                    "midi": 56,
                    "time": 302.7933847499989,
                    "velocity": 0.1732283464566929,
                    "duration": 0.2635277499999802
                },
                {
                    "name": "C4",
                    "midi": 60,
                    "time": 303.0569124999989,
                    "velocity": 0.13385826771653545,
                    "duration": 0.2635277499999802
                },
                {
                    "name": "F#4",
                    "midi": 66,
                    "time": 303.0569124999989,
                    "velocity": 0.1732283464566929,
                    "duration": 0.2635277499999802
                },
                {
                    "name": "G#4",
                    "midi": 68,
                    "time": 303.32044024999885,
                    "velocity": 0.33070866141732286,
                    "duration": 0.2635277499999802
                },
                {
                    "name": "G#3",
                    "midi": 56,
                    "time": 303.32044024999885,
                    "velocity": 0.1732283464566929,
                    "duration": 0.2635277499999802
                },
                {
                    "name": "G#4",
                    "midi": 68,
                    "time": 303.58396799999883,
                    "velocity": 0.3228346456692913,
                    "duration": 2.1082219999998415
                },
                {
                    "name": "G#3",
                    "midi": 56,
                    "time": 303.8474957499988,
                    "velocity": 0.1732283464566929,
                    "duration": 0.2635277499999802
                },
                {
                    "name": "C#4",
                    "midi": 61,
                    "time": 304.1110234999988,
                    "velocity": 0.13385826771653545,
                    "duration": 0.2635277499999802
                },
                {
                    "name": "F4",
                    "midi": 65,
                    "time": 304.1110234999988,
                    "velocity": 0.1732283464566929,
                    "duration": 0.2635277499999802
                },
                {
                    "name": "G#3",
                    "midi": 56,
                    "time": 304.3745512499988,
                    "velocity": 0.1732283464566929,
                    "duration": 0.2635277499999802
                },
                {
                    "name": "F4",
                    "midi": 65,
                    "time": 304.63807899999875,
                    "velocity": 0.1732283464566929,
                    "duration": 0.2635277499999802
                },
                {
                    "name": "C#4",
                    "midi": 61,
                    "time": 304.63807899999875,
                    "velocity": 0.13385826771653545,
                    "duration": 0.2635277499999802
                },
                {
                    "name": "G#3",
                    "midi": 56,
                    "time": 304.90160674999873,
                    "velocity": 0.1732283464566929,
                    "duration": 0.2635277499999802
                },
                {
                    "name": "F4",
                    "midi": 65,
                    "time": 305.1651344999987,
                    "velocity": 0.1732283464566929,
                    "duration": 0.2635277499999802
                },
                {
                    "name": "C#4",
                    "midi": 61,
                    "time": 305.1651344999987,
                    "velocity": 0.13385826771653545,
                    "duration": 0.2635277499999802
                },
                {
                    "name": "G#3",
                    "midi": 56,
                    "time": 305.4286622499987,
                    "velocity": 0.1732283464566929,
                    "duration": 0.2635277499999802
                },
                {
                    "name": "G#4",
                    "midi": 68,
                    "time": 305.6921899999987,
                    "velocity": 0.33070866141732286,
                    "duration": 1.0541109999999208
                },
                {
                    "name": "G#3",
                    "midi": 56,
                    "time": 305.95571774999866,
                    "velocity": 0.1732283464566929,
                    "duration": 0.2635277499999802
                },
                {
                    "name": "C#4",
                    "midi": 61,
                    "time": 306.21924549999864,
                    "velocity": 0.14173228346456693,
                    "duration": 0.2635277499999802
                },
                {
                    "name": "F4",
                    "midi": 65,
                    "time": 306.21924549999864,
                    "velocity": 0.18110236220472442,
                    "duration": 0.2635277499999802
                },
                {
                    "name": "G#3",
                    "midi": 56,
                    "time": 306.4827732499986,
                    "velocity": 0.2047244094488189,
                    "duration": 0.2635277499999802
                },
                {
                    "name": "F4",
                    "midi": 65,
                    "time": 306.7463009999986,
                    "velocity": 0.1889763779527559,
                    "duration": 0.2635277499999802
                },
                {
                    "name": "C#4",
                    "midi": 61,
                    "time": 306.7463009999986,
                    "velocity": 0.14173228346456693,
                    "duration": 0.2635277499999802
                },
                {
                    "name": "G#4",
                    "midi": 68,
                    "time": 306.7463009999986,
                    "velocity": 0.3464566929133858,
                    "duration": 1.0541109999999208
                },
                {
                    "name": "G#3",
                    "midi": 56,
                    "time": 307.0098287499986,
                    "velocity": 0.2283464566929134,
                    "duration": 0.2635277499999802
                },
                {
                    "name": "C#4",
                    "midi": 61,
                    "time": 307.27335649999856,
                    "velocity": 0.1889763779527559,
                    "duration": 0.2635277499999802
                },
                {
                    "name": "F4",
                    "midi": 65,
                    "time": 307.27335649999856,
                    "velocity": 0.25196850393700787,
                    "duration": 0.2635277499999802
                },
                {
                    "name": "G#3",
                    "midi": 56,
                    "time": 307.53688424999854,
                    "velocity": 0.2755905511811024,
                    "duration": 0.2635277499999802
                },
                {
                    "name": "B4",
                    "midi": 71,
                    "time": 307.8004119999985,
                    "velocity": 0.4409448818897638,
                    "duration": 2.1082219999998415
                },
                {
                    "name": "B3",
                    "midi": 59,
                    "time": 308.0639397499985,
                    "velocity": 0.2755905511811024,
                    "duration": 0.2635277499999802
                },
                {
                    "name": "D4",
                    "midi": 62,
                    "time": 308.3274674999985,
                    "velocity": 0.1889763779527559,
                    "duration": 0.2635277499999802
                },
                {
                    "name": "F4",
                    "midi": 65,
                    "time": 308.3274674999985,
                    "velocity": 0.1889763779527559,
                    "duration": 0.2635277499999802
                },
                {
                    "name": "G#4",
                    "midi": 68,
                    "time": 308.3274674999985,
                    "velocity": 0.25196850393700787,
                    "duration": 0.2635277499999802
                },
                {
                    "name": "B3",
                    "midi": 59,
                    "time": 308.59099524999846,
                    "velocity": 0.23622047244094488,
                    "duration": 0.2635277499999802
                },
                {
                    "name": "D4",
                    "midi": 62,
                    "time": 308.85452299999844,
                    "velocity": 0.16535433070866143,
                    "duration": 0.2635277499999802
                },
                {
                    "name": "F4",
                    "midi": 65,
                    "time": 308.85452299999844,
                    "velocity": 0.16535433070866143,
                    "duration": 0.2635277499999802
                },
                {
                    "name": "G#4",
                    "midi": 68,
                    "time": 308.85452299999844,
                    "velocity": 0.2204724409448819,
                    "duration": 0.2635277499999802
                },
                {
                    "name": "B3",
                    "midi": 59,
                    "time": 309.1180507499984,
                    "velocity": 0.2047244094488189,
                    "duration": 0.2635277499999802
                },
                {
                    "name": "D4",
                    "midi": 62,
                    "time": 309.3815784999984,
                    "velocity": 0.14173228346456693,
                    "duration": 0.2635277499999802
                },
                {
                    "name": "F4",
                    "midi": 65,
                    "time": 309.3815784999984,
                    "velocity": 0.14173228346456693,
                    "duration": 0.2635277499999802
                },
                {
                    "name": "G#4",
                    "midi": 68,
                    "time": 309.3815784999984,
                    "velocity": 0.1889763779527559,
                    "duration": 0.2635277499999802
                },
                {
                    "name": "B3",
                    "midi": 59,
                    "time": 309.6451062499984,
                    "velocity": 0.18110236220472442,
                    "duration": 0.2635277499999802
                },
                {
                    "name": "A#4",
                    "midi": 70,
                    "time": 309.90863399999836,
                    "velocity": 0.36220472440944884,
                    "duration": 1.0541109999999208
                },
                {
                    "name": "A#3",
                    "midi": 58,
                    "time": 310.17216174999834,
                    "velocity": 0.2047244094488189,
                    "duration": 0.2635277499999802
                },
                {
                    "name": "F#4",
                    "midi": 66,
                    "time": 310.4356894999983,
                    "velocity": 0.2047244094488189,
                    "duration": 0.2635277499999802
                },
                {
                    "name": "C#4",
                    "midi": 61,
                    "time": 310.4356894999983,
                    "velocity": 0.15748031496062992,
                    "duration": 0.2635277499999802
                },
                {
                    "name": "A#3",
                    "midi": 58,
                    "time": 310.6992172499983,
                    "velocity": 0.2047244094488189,
                    "duration": 0.2635277499999802
                },
                {
                    "name": "G#4",
                    "midi": 68,
                    "time": 310.9627449999983,
                    "velocity": 0.36220472440944884,
                    "duration": 0.5270554999999604
                },
                {
                    "name": "C#4",
                    "midi": 61,
                    "time": 310.9627449999983,
                    "velocity": 0.13385826771653545,
                    "duration": 0.2635277499999802
                },
                {
                    "name": "A#3",
                    "midi": 58,
                    "time": 311.22627274999826,
                    "velocity": 0.2125984251968504,
                    "duration": 0.2635277499999802
                },
                {
                    "name": "F#4",
                    "midi": 66,
                    "time": 311.48980049999824,
                    "velocity": 0.31496062992125984,
                    "duration": 0.5270554999999604
                },
                {
                    "name": "C#4",
                    "midi": 61,
                    "time": 311.48980049999824,
                    "velocity": 0.13385826771653545,
                    "duration": 0.2635277499999802
                },
                {
                    "name": "A#3",
                    "midi": 58,
                    "time": 311.7533282499982,
                    "velocity": 0.1968503937007874,
                    "duration": 0.2635277499999802
                },
                {
                    "name": "F4",
                    "midi": 65,
                    "time": 312.0168559999982,
                    "velocity": 0.3228346456692913,
                    "duration": 2.1082219999998415
                },
                {
                    "name": "F3",
                    "midi": 53,
                    "time": 312.2803837499982,
                    "velocity": 0.1732283464566929,
                    "duration": 0.2635277499999802
                },
                {
                    "name": "G#3",
                    "midi": 56,
                    "time": 312.54391149999816,
                    "velocity": 0.1732283464566929,
                    "duration": 0.2635277499999802
                },
                {
                    "name": "C#4",
                    "midi": 61,
                    "time": 312.54391149999816,
                    "velocity": 0.1732283464566929,
                    "duration": 0.2635277499999802
                },
                {
                    "name": "F3",
                    "midi": 53,
                    "time": 312.80743924999814,
                    "velocity": 0.1732283464566929,
                    "duration": 0.2635277499999802
                },
                {
                    "name": "G#3",
                    "midi": 56,
                    "time": 313.0709669999981,
                    "velocity": 0.1732283464566929,
                    "duration": 0.2635277499999802
                },
                {
                    "name": "C#4",
                    "midi": 61,
                    "time": 313.0709669999981,
                    "velocity": 0.1732283464566929,
                    "duration": 0.2635277499999802
                },
                {
                    "name": "F3",
                    "midi": 53,
                    "time": 313.3344947499981,
                    "velocity": 0.1732283464566929,
                    "duration": 0.2635277499999802
                },
                {
                    "name": "G#3",
                    "midi": 56,
                    "time": 313.5980224999981,
                    "velocity": 0.1732283464566929,
                    "duration": 0.2635277499999802
                },
                {
                    "name": "C#4",
                    "midi": 61,
                    "time": 313.5980224999981,
                    "velocity": 0.1732283464566929,
                    "duration": 0.2635277499999802
                },
                {
                    "name": "F3",
                    "midi": 53,
                    "time": 313.86155024999806,
                    "velocity": 0.1732283464566929,
                    "duration": 0.2635277499999802
                },
                {
                    "name": "C4",
                    "midi": 60,
                    "time": 314.12507799999804,
                    "velocity": 0.13385826771653545,
                    "duration": 0.2635277499999802
                },
                {
                    "name": "D#4",
                    "midi": 63,
                    "time": 314.12507799999804,
                    "velocity": 0.3228346456692913,
                    "duration": 0.5270554999999604
                },
                {
                    "name": "F#3",
                    "midi": 54,
                    "time": 314.388605749998,
                    "velocity": 0.2283464566929134,
                    "duration": 0.2635277499999802
                },
                {
                    "name": "C4",
                    "midi": 60,
                    "time": 314.652133499998,
                    "velocity": 0.13385826771653545,
                    "duration": 0.2635277499999802
                },
                {
                    "name": "F4",
                    "midi": 65,
                    "time": 314.652133499998,
                    "velocity": 0.3228346456692913,
                    "duration": 0.5270554999999604
                },
                {
                    "name": "F#3",
                    "midi": 54,
                    "time": 314.915661249998,
                    "velocity": 0.2204724409448819,
                    "duration": 0.2635277499999802
                },
                {
                    "name": "C4",
                    "midi": 60,
                    "time": 315.17918899999796,
                    "velocity": 0.13385826771653545,
                    "duration": 0.2635277499999802
                },
                {
                    "name": "F#4",
                    "midi": 66,
                    "time": 315.17918899999796,
                    "velocity": 0.3228346456692913,
                    "duration": 0.5270554999999604
                },
                {
                    "name": "F#3",
                    "midi": 54,
                    "time": 315.44271674999794,
                    "velocity": 0.2204724409448819,
                    "duration": 0.2635277499999802
                },
                {
                    "name": "C4",
                    "midi": 60,
                    "time": 315.7062444999979,
                    "velocity": 0.13385826771653545,
                    "duration": 0.2635277499999802
                },
                {
                    "name": "G#4",
                    "midi": 68,
                    "time": 315.7062444999979,
                    "velocity": 0.3228346456692913,
                    "duration": 0.5270554999999604
                },
                {
                    "name": "F#3",
                    "midi": 54,
                    "time": 315.9697722499979,
                    "velocity": 0.23622047244094488,
                    "duration": 0.2635277499999802
                },
                {
                    "name": "C#4",
                    "midi": 61,
                    "time": 316.2332999999979,
                    "velocity": 0.4094488188976378,
                    "duration": 3.1623329999997623
                },
                {
                    "name": "C#3",
                    "midi": 49,
                    "time": 316.49682774999786,
                    "velocity": 0.1732283464566929,
                    "duration": 0.2635277499999802
                },
                {
                    "name": "G#3",
                    "midi": 56,
                    "time": 316.76035549999784,
                    "velocity": 0.1732283464566929,
                    "duration": 0.2635277499999802
                },
                {
                    "name": "F3",
                    "midi": 53,
                    "time": 316.76035549999784,
                    "velocity": 0.13385826771653545,
                    "duration": 0.2635277499999802
                },
                {
                    "name": "C#3",
                    "midi": 49,
                    "time": 317.0238832499978,
                    "velocity": 0.1889763779527559,
                    "duration": 0.2635277499999802
                },
                {
                    "name": "F3",
                    "midi": 53,
                    "time": 317.2874109999978,
                    "velocity": 0.14960629921259844,
                    "duration": 0.2635277499999802
                },
                {
                    "name": "G#3",
                    "midi": 56,
                    "time": 317.2874109999978,
                    "velocity": 0.1968503937007874,
                    "duration": 0.2635277499999802
                },
                {
                    "name": "C#3",
                    "midi": 49,
                    "time": 317.5509387499978,
                    "velocity": 0.2047244094488189,
                    "duration": 0.2635277499999802
                },
                {
                    "name": "F3",
                    "midi": 53,
                    "time": 317.81446649999776,
                    "velocity": 0.16535433070866143,
                    "duration": 0.2635277499999802
                },
                {
                    "name": "G#3",
                    "midi": 56,
                    "time": 317.81446649999776,
                    "velocity": 0.2125984251968504,
                    "duration": 0.2635277499999802
                },
                {
                    "name": "C#3",
                    "midi": 49,
                    "time": 318.07799424999774,
                    "velocity": 0.2283464566929134,
                    "duration": 0.2635277499999802
                },
                {
                    "name": "F#3",
                    "midi": 54,
                    "time": 318.3415219999977,
                    "velocity": 0.1732283464566929,
                    "duration": 0.2635277499999802
                },
                {
                    "name": "A3",
                    "midi": 57,
                    "time": 318.3415219999977,
                    "velocity": 0.2283464566929134,
                    "duration": 0.2635277499999802
                },
                {
                    "name": "C#3",
                    "midi": 49,
                    "time": 318.6050497499977,
                    "velocity": 0.2204724409448819,
                    "duration": 0.2635277499999802
                },
                {
                    "name": "F#3",
                    "midi": 54,
                    "time": 318.8685774999977,
                    "velocity": 0.15748031496062992,
                    "duration": 0.2635277499999802
                },
                {
                    "name": "A3",
                    "midi": 57,
                    "time": 318.8685774999977,
                    "velocity": 0.1968503937007874,
                    "duration": 0.2635277499999802
                },
                {
                    "name": "C#3",
                    "midi": 49,
                    "time": 319.13210524999766,
                    "velocity": 0.18110236220472442,
                    "duration": 0.2635277499999802
                },
                {
                    "name": "F#3",
                    "midi": 54,
                    "time": 319.39563299999764,
                    "velocity": 0.10236220472440945,
                    "duration": 0.2635277499999802
                },
                {
                    "name": "G#3",
                    "midi": 56,
                    "time": 319.39563299999764,
                    "velocity": 0.13385826771653545,
                    "duration": 0.2635277499999802
                },
                {
                    "name": "C4",
                    "midi": 60,
                    "time": 319.39563299999764,
                    "velocity": 0.2992125984251969,
                    "duration": 1.0541109999999208
                },
                {
                    "name": "D#4",
                    "midi": 63,
                    "time": 319.39563299999764,
                    "velocity": 0.3228346456692913,
                    "duration": 1.0541109999999208
                },
                {
                    "name": "D#3",
                    "midi": 51,
                    "time": 319.6591607499976,
                    "velocity": 0.1732283464566929,
                    "duration": 0.2635277499999802
                },
                {
                    "name": "F#3",
                    "midi": 54,
                    "time": 319.9226884999976,
                    "velocity": 0.13385826771653545,
                    "duration": 0.2635277499999802
                },
                {
                    "name": "G#3",
                    "midi": 56,
                    "time": 319.9226884999976,
                    "velocity": 0.1732283464566929,
                    "duration": 0.2635277499999802
                },
                {
                    "name": "D#3",
                    "midi": 51,
                    "time": 320.1862162499976,
                    "velocity": 0.1732283464566929,
                    "duration": 0.2635277499999802
                },
                {
                    "name": "G#6",
                    "midi": 92,
                    "time": 320.9767994999976,
                    "velocity": 0.2992125984251969,
                    "duration": 0.1317638749999901
                },
                {
                    "name": "F#6",
                    "midi": 90,
                    "time": 321.1085633749976,
                    "velocity": 0.2992125984251969,
                    "duration": 0.1317638749999901
                },
                {
                    "name": "E6",
                    "midi": 88,
                    "time": 321.24032724999756,
                    "velocity": 0.2992125984251969,
                    "duration": 0.1317638749999901
                },
                {
                    "name": "D#6",
                    "midi": 87,
                    "time": 321.37209112499755,
                    "velocity": 0.29133858267716534,
                    "duration": 0.1317638749999901
                },
                {
                    "name": "C#6",
                    "midi": 85,
                    "time": 321.50385499999754,
                    "velocity": 0.29133858267716534,
                    "duration": 0.1317638749999901
                },
                {
                    "name": "B5",
                    "midi": 83,
                    "time": 321.63561887499753,
                    "velocity": 0.29133858267716534,
                    "duration": 0.1317638749999901
                },
                {
                    "name": "A5",
                    "midi": 81,
                    "time": 321.7673827499975,
                    "velocity": 0.28346456692913385,
                    "duration": 0.1317638749999901
                },
                {
                    "name": "G#5",
                    "midi": 80,
                    "time": 321.8991466249975,
                    "velocity": 0.28346456692913385,
                    "duration": 0.1317638749999901
                },
                {
                    "name": "F#5",
                    "midi": 78,
                    "time": 322.0309104999975,
                    "velocity": 0.2755905511811024,
                    "duration": 0.1317638749999901
                },
                {
                    "name": "E5",
                    "midi": 76,
                    "time": 322.1626743749975,
                    "velocity": 0.2755905511811024,
                    "duration": 0.1317638749999901
                },
                {
                    "name": "D#5",
                    "midi": 75,
                    "time": 322.2944382499975,
                    "velocity": 0.2677165354330709,
                    "duration": 0.1317638749999901
                },
                {
                    "name": "C#5",
                    "midi": 73,
                    "time": 322.4262021249975,
                    "velocity": 0.25984251968503935,
                    "duration": 0.1317638749999901
                },
                {
                    "name": "C5",
                    "midi": 72,
                    "time": 322.55796599999746,
                    "velocity": 0.2440944881889764,
                    "duration": 0.1317638749999901
                },
                {
                    "name": "C#5",
                    "midi": 73,
                    "time": 322.68972987499745,
                    "velocity": 0.2440944881889764,
                    "duration": 0.1317638749999901
                },
                {
                    "name": "D#5",
                    "midi": 75,
                    "time": 322.82149374999744,
                    "velocity": 0.25984251968503935,
                    "duration": 0.1317638749999901
                },
                {
                    "name": "C#5",
                    "midi": 73,
                    "time": 322.95325762499743,
                    "velocity": 0.25984251968503935,
                    "duration": 0.1317638749999901
                },
                {
                    "name": "E5",
                    "midi": 76,
                    "time": 323.0850214999974,
                    "velocity": 0.2677165354330709,
                    "duration": 0.1317638749999901
                },
                {
                    "name": "D#5",
                    "midi": 75,
                    "time": 323.2167853749974,
                    "velocity": 0.2677165354330709,
                    "duration": 0.1317638749999901
                },
                {
                    "name": "F#5",
                    "midi": 78,
                    "time": 323.3485492499974,
                    "velocity": 0.2755905511811024,
                    "duration": 0.1317638749999901
                },
                {
                    "name": "E5",
                    "midi": 76,
                    "time": 323.4803131249974,
                    "velocity": 0.2755905511811024,
                    "duration": 0.1317638749999901
                },
                {
                    "name": "G#5",
                    "midi": 80,
                    "time": 323.6120769999974,
                    "velocity": 0.28346456692913385,
                    "duration": 0.1317638749999901
                },
                {
                    "name": "F#5",
                    "midi": 78,
                    "time": 323.7438408749974,
                    "velocity": 0.28346456692913385,
                    "duration": 0.1317638749999901
                },
                {
                    "name": "A5",
                    "midi": 81,
                    "time": 323.87560474999736,
                    "velocity": 0.29133858267716534,
                    "duration": 0.1317638749999901
                },
                {
                    "name": "G#5",
                    "midi": 80,
                    "time": 324.00736862499735,
                    "velocity": 0.29133858267716534,
                    "duration": 0.1317638749999901
                },
                {
                    "name": "C#6",
                    "midi": 85,
                    "time": 324.13913249999734,
                    "velocity": 0.2992125984251969,
                    "duration": 0.1317638749999901
                },
                {
                    "name": "C6",
                    "midi": 84,
                    "time": 324.27089637499733,
                    "velocity": 0.2992125984251969,
                    "duration": 0.1317638749999901
                },
                {
                    "name": "D#6",
                    "midi": 87,
                    "time": 324.4026602499973,
                    "velocity": 0.30708661417322836,
                    "duration": 0.1317638749999901
                },
                {
                    "name": "C#6",
                    "midi": 85,
                    "time": 324.5344241249973,
                    "velocity": 0.30708661417322836,
                    "duration": 0.1317638749999901
                },
                {
                    "name": "A6",
                    "midi": 93,
                    "time": 325.1932434999973,
                    "velocity": 0.2992125984251969,
                    "duration": 0.1317638749999901
                },
                {
                    "name": "G#6",
                    "midi": 92,
                    "time": 325.3250073749973,
                    "velocity": 0.2992125984251969,
                    "duration": 0.1317638749999901
                },
                {
                    "name": "F#6",
                    "midi": 90,
                    "time": 325.4567712499973,
                    "velocity": 0.2992125984251969,
                    "duration": 0.1317638749999901
                },
                {
                    "name": "E6",
                    "midi": 88,
                    "time": 325.5885351249973,
                    "velocity": 0.29133858267716534,
                    "duration": 0.1317638749999901
                },
                {
                    "name": "D#6",
                    "midi": 87,
                    "time": 325.7202989999973,
                    "velocity": 0.29133858267716534,
                    "duration": 0.1317638749999901
                },
                {
                    "name": "C#6",
                    "midi": 85,
                    "time": 325.8520628749973,
                    "velocity": 0.29133858267716534,
                    "duration": 0.1317638749999901
                },
                {
                    "name": "C6",
                    "midi": 84,
                    "time": 325.98382674999726,
                    "velocity": 0.28346456692913385,
                    "duration": 0.1317638749999901
                },
                {
                    "name": "A5",
                    "midi": 81,
                    "time": 326.11559062499725,
                    "velocity": 0.28346456692913385,
                    "duration": 0.1317638749999901
                },
                {
                    "name": "G#5",
                    "midi": 80,
                    "time": 326.24735449999724,
                    "velocity": 0.2755905511811024,
                    "duration": 0.1317638749999901
                },
                {
                    "name": "F#5",
                    "midi": 78,
                    "time": 326.37911837499723,
                    "velocity": 0.2755905511811024,
                    "duration": 0.1317638749999901
                },
                {
                    "name": "E5",
                    "midi": 76,
                    "time": 326.5108822499972,
                    "velocity": 0.2677165354330709,
                    "duration": 0.1317638749999901
                },
                {
                    "name": "D#5",
                    "midi": 75,
                    "time": 326.6426461249972,
                    "velocity": 0.25984251968503935,
                    "duration": 0.1317638749999901
                },
                {
                    "name": "C#5",
                    "midi": 73,
                    "time": 326.7744099999972,
                    "velocity": 0.2440944881889764,
                    "duration": 0.1317638749999901
                },
                {
                    "name": "C5",
                    "midi": 72,
                    "time": 326.9061738749972,
                    "velocity": 0.2440944881889764,
                    "duration": 0.1317638749999901
                },
                {
                    "name": "D#5",
                    "midi": 75,
                    "time": 327.0379377499972,
                    "velocity": 0.25984251968503935,
                    "duration": 0.1317638749999901
                },
                {
                    "name": "C#5",
                    "midi": 73,
                    "time": 327.1697016249972,
                    "velocity": 0.25984251968503935,
                    "duration": 0.1317638749999901
                },
                {
                    "name": "E5",
                    "midi": 76,
                    "time": 327.30146549999716,
                    "velocity": 0.2677165354330709,
                    "duration": 0.1317638749999901
                },
                {
                    "name": "D#5",
                    "midi": 75,
                    "time": 327.43322937499715,
                    "velocity": 0.2677165354330709,
                    "duration": 0.1317638749999901
                },
                {
                    "name": "F#5",
                    "midi": 78,
                    "time": 327.56499324999714,
                    "velocity": 0.2755905511811024,
                    "duration": 0.1317638749999901
                },
                {
                    "name": "E5",
                    "midi": 76,
                    "time": 327.69675712499713,
                    "velocity": 0.2755905511811024,
                    "duration": 0.1317638749999901
                },
                {
                    "name": "G#5",
                    "midi": 80,
                    "time": 327.8285209999971,
                    "velocity": 0.28346456692913385,
                    "duration": 0.1317638749999901
                },
                {
                    "name": "F#5",
                    "midi": 78,
                    "time": 327.9602848749971,
                    "velocity": 0.28346456692913385,
                    "duration": 0.1317638749999901
                },
                {
                    "name": "A5",
                    "midi": 81,
                    "time": 328.0920487499971,
                    "velocity": 0.29133858267716534,
                    "duration": 0.1317638749999901
                },
                {
                    "name": "G#5",
                    "midi": 80,
                    "time": 328.2238126249971,
                    "velocity": 0.29133858267716534,
                    "duration": 0.1317638749999901
                },
                {
                    "name": "C#6",
                    "midi": 85,
                    "time": 328.3555764999971,
                    "velocity": 0.2992125984251969,
                    "duration": 0.1317638749999901
                },
                {
                    "name": "C6",
                    "midi": 84,
                    "time": 328.4873403749971,
                    "velocity": 0.2992125984251969,
                    "duration": 0.1317638749999901
                },
                {
                    "name": "E6",
                    "midi": 88,
                    "time": 328.61910424999706,
                    "velocity": 0.30708661417322836,
                    "duration": 0.1317638749999901
                },
                {
                    "name": "D#6",
                    "midi": 87,
                    "time": 328.75086812499706,
                    "velocity": 0.30708661417322836,
                    "duration": 0.1317638749999901
                },
                {
                    "name": "E7",
                    "midi": 100,
                    "time": 329.40968749999706,
                    "velocity": 0.2992125984251969,
                    "duration": 0.1317638749999901
                },
                {
                    "name": "D#7",
                    "midi": 99,
                    "time": 329.54145137499705,
                    "velocity": 0.2992125984251969,
                    "duration": 0.1317638749999901
                },
                {
                    "name": "C#7",
                    "midi": 97,
                    "time": 329.67321524999704,
                    "velocity": 0.2992125984251969,
                    "duration": 0.1317638749999901
                },
                {
                    "name": "B6",
                    "midi": 95,
                    "time": 329.80497912499703,
                    "velocity": 0.29133858267716534,
                    "duration": 0.1317638749999901
                },
                {
                    "name": "A6",
                    "midi": 93,
                    "time": 329.936742999997,
                    "velocity": 0.29133858267716534,
                    "duration": 0.1317638749999901
                },
                {
                    "name": "G#6",
                    "midi": 92,
                    "time": 330.068506874997,
                    "velocity": 0.29133858267716534,
                    "duration": 0.1317638749999901
                },
                {
                    "name": "F#6",
                    "midi": 90,
                    "time": 330.200270749997,
                    "velocity": 0.28346456692913385,
                    "duration": 0.1317638749999901
                },
                {
                    "name": "E6",
                    "midi": 88,
                    "time": 330.332034624997,
                    "velocity": 0.28346456692913385,
                    "duration": 0.1317638749999901
                },
                {
                    "name": "D#6",
                    "midi": 87,
                    "time": 330.463798499997,
                    "velocity": 0.2755905511811024,
                    "duration": 0.1317638749999901
                },
                {
                    "name": "C#6",
                    "midi": 85,
                    "time": 330.595562374997,
                    "velocity": 0.2755905511811024,
                    "duration": 0.1317638749999901
                },
                {
                    "name": "C6",
                    "midi": 84,
                    "time": 330.72732624999696,
                    "velocity": 0.2677165354330709,
                    "duration": 0.1317638749999901
                },
                {
                    "name": "C#6",
                    "midi": 85,
                    "time": 330.85909012499695,
                    "velocity": 0.25984251968503935,
                    "duration": 0.1317638749999901
                },
                {
                    "name": "C#7",
                    "midi": 97,
                    "time": 331.51790949999696,
                    "velocity": 0.2992125984251969,
                    "duration": 0.1317638749999901
                },
                {
                    "name": "A6",
                    "midi": 93,
                    "time": 331.64967337499695,
                    "velocity": 0.2992125984251969,
                    "duration": 0.1317638749999901
                },
                {
                    "name": "G#6",
                    "midi": 92,
                    "time": 331.78143724999694,
                    "velocity": 0.2992125984251969,
                    "duration": 0.1317638749999901
                },
                {
                    "name": "F#6",
                    "midi": 90,
                    "time": 331.91320112499693,
                    "velocity": 0.29133858267716534,
                    "duration": 0.1317638749999901
                },
                {
                    "name": "E6",
                    "midi": 88,
                    "time": 332.0449649999969,
                    "velocity": 0.28346456692913385,
                    "duration": 0.1317638749999901
                },
                {
                    "name": "C#6",
                    "midi": 85,
                    "time": 332.1767288749969,
                    "velocity": 0.29133858267716534,
                    "duration": 0.1317638749999901
                },
                {
                    "name": "B5",
                    "midi": 83,
                    "time": 332.3084927499969,
                    "velocity": 0.2992125984251969,
                    "duration": 0.1317638749999901
                },
                {
                    "name": "A5",
                    "midi": 81,
                    "time": 332.4402566249969,
                    "velocity": 0.30708661417322836,
                    "duration": 0.1317638749999901
                },
                {
                    "name": "F#5",
                    "midi": 78,
                    "time": 332.5720204999969,
                    "velocity": 0.31496062992125984,
                    "duration": 0.1317638749999901
                },
                {
                    "name": "E5",
                    "midi": 76,
                    "time": 332.70378437499687,
                    "velocity": 0.3228346456692913,
                    "duration": 0.1317638749999901
                },
                {
                    "name": "D#5",
                    "midi": 75,
                    "time": 332.83554824999686,
                    "velocity": 0.33070866141732286,
                    "duration": 0.1317638749999901
                },
                {
                    "name": "C#5",
                    "midi": 73,
                    "time": 332.96731212499685,
                    "velocity": 0.3543307086614173,
                    "duration": 0.1317638749999901
                },
                {
                    "name": "G#6",
                    "midi": 92,
                    "time": 333.62613149999686,
                    "velocity": 0.3700787401574803,
                    "duration": 0.1317638749999901
                },
                {
                    "name": "G6",
                    "midi": 91,
                    "time": 333.75789537499685,
                    "velocity": 0.3543307086614173,
                    "duration": 0.1317638749999901
                },
                {
                    "name": "G#6",
                    "midi": 92,
                    "time": 333.88965924999684,
                    "velocity": 0.3464566929133858,
                    "duration": 0.1317638749999901
                },
                {
                    "name": "D#6",
                    "midi": 87,
                    "time": 334.02142312499683,
                    "velocity": 0.3228346456692913,
                    "duration": 0.1317638749999901
                },
                {
                    "name": "C6",
                    "midi": 84,
                    "time": 334.1531869999968,
                    "velocity": 0.31496062992125984,
                    "duration": 0.1317638749999901
                },
                {
                    "name": "D#6",
                    "midi": 87,
                    "time": 334.2849508749968,
                    "velocity": 0.2992125984251969,
                    "duration": 0.1317638749999901
                },
                {
                    "name": "C6",
                    "midi": 84,
                    "time": 334.4167147499968,
                    "velocity": 0.28346456692913385,
                    "duration": 0.1317638749999901
                },
                {
                    "name": "G#5",
                    "midi": 80,
                    "time": 334.5484786249968,
                    "velocity": 0.28346456692913385,
                    "duration": 0.1317638749999901
                },
                {
                    "name": "D#5",
                    "midi": 75,
                    "time": 334.6802424999968,
                    "velocity": 0.2755905511811024,
                    "duration": 0.1317638749999901
                },
                {
                    "name": "G#5",
                    "midi": 80,
                    "time": 334.81200637499677,
                    "velocity": 0.2755905511811024,
                    "duration": 0.1317638749999901
                },
                {
                    "name": "D#5",
                    "midi": 75,
                    "time": 334.94377024999676,
                    "velocity": 0.2677165354330709,
                    "duration": 0.1317638749999901
                },
                {
                    "name": "C5",
                    "midi": 72,
                    "time": 335.07553412499675,
                    "velocity": 0.25984251968503935,
                    "duration": 0.1317638749999901
                },
                {
                    "name": "G#4",
                    "midi": 68,
                    "time": 335.20729799999674,
                    "velocity": 0.2440944881889764,
                    "duration": 0.1317638749999901
                },
                {
                    "name": "A#4",
                    "midi": 70,
                    "time": 335.33906187499673,
                    "velocity": 0.2440944881889764,
                    "duration": 0.1317638749999901
                },
                {
                    "name": "C5",
                    "midi": 72,
                    "time": 335.4708257499967,
                    "velocity": 0.25984251968503935,
                    "duration": 0.1317638749999901
                },
                {
                    "name": "C#5",
                    "midi": 73,
                    "time": 335.6025896249967,
                    "velocity": 0.25984251968503935,
                    "duration": 0.1317638749999901
                },
                {
                    "name": "D#5",
                    "midi": 75,
                    "time": 335.7343534999967,
                    "velocity": 0.2677165354330709,
                    "duration": 0.1317638749999901
                },
                {
                    "name": "E5",
                    "midi": 76,
                    "time": 335.8661173749967,
                    "velocity": 0.2677165354330709,
                    "duration": 0.1317638749999901
                },
                {
                    "name": "F#5",
                    "midi": 78,
                    "time": 335.9978812499967,
                    "velocity": 0.2755905511811024,
                    "duration": 0.1317638749999901
                },
                {
                    "name": "G#5",
                    "midi": 80,
                    "time": 336.12964512499667,
                    "velocity": 0.2755905511811024,
                    "duration": 0.1317638749999901
                },
                {
                    "name": "A5",
                    "midi": 81,
                    "time": 336.26140899999666,
                    "velocity": 0.28346456692913385,
                    "duration": 0.1317638749999901
                },
                {
                    "name": "C6",
                    "midi": 84,
                    "time": 336.39317287499665,
                    "velocity": 0.28346456692913385,
                    "duration": 0.1317638749999901
                },
                {
                    "name": "C#6",
                    "midi": 85,
                    "time": 336.52493674999664,
                    "velocity": 0.29133858267716534,
                    "duration": 0.1317638749999901
                },
                {
                    "name": "D#6",
                    "midi": 87,
                    "time": 336.65670062499663,
                    "velocity": 0.29133858267716534,
                    "duration": 0.1317638749999901
                },
                {
                    "name": "E6",
                    "midi": 88,
                    "time": 336.7884644999966,
                    "velocity": 0.2992125984251969,
                    "duration": 0.1317638749999901
                },
                {
                    "name": "F#6",
                    "midi": 90,
                    "time": 336.9202283749966,
                    "velocity": 0.2992125984251969,
                    "duration": 0.1317638749999901
                },
                {
                    "name": "G#6",
                    "midi": 92,
                    "time": 337.0519922499966,
                    "velocity": 0.30708661417322836,
                    "duration": 0.1317638749999901
                },
                {
                    "name": "A6",
                    "midi": 93,
                    "time": 337.1837561249966,
                    "velocity": 0.30708661417322836,
                    "duration": 0.1317638749999901
                },
                {
                    "name": "G#6",
                    "midi": 92,
                    "time": 337.8425754999966,
                    "velocity": 0.2992125984251969,
                    "duration": 0.1317638749999901
                },
                {
                    "name": "F#6",
                    "midi": 90,
                    "time": 337.9743393749966,
                    "velocity": 0.2992125984251969,
                    "duration": 0.1317638749999901
                },
                {
                    "name": "E6",
                    "midi": 88,
                    "time": 338.1061032499966,
                    "velocity": 0.2992125984251969,
                    "duration": 0.1317638749999901
                },
                {
                    "name": "D#6",
                    "midi": 87,
                    "time": 338.23786712499657,
                    "velocity": 0.29133858267716534,
                    "duration": 0.1317638749999901
                },
                {
                    "name": "C#6",
                    "midi": 85,
                    "time": 338.36963099999656,
                    "velocity": 0.29133858267716534,
                    "duration": 0.1317638749999901
                },
                {
                    "name": "B5",
                    "midi": 83,
                    "time": 338.50139487499655,
                    "velocity": 0.29133858267716534,
                    "duration": 0.1317638749999901
                },
                {
                    "name": "A5",
                    "midi": 81,
                    "time": 338.63315874999654,
                    "velocity": 0.28346456692913385,
                    "duration": 0.1317638749999901
                },
                {
                    "name": "G#5",
                    "midi": 80,
                    "time": 338.76492262499653,
                    "velocity": 0.28346456692913385,
                    "duration": 0.1317638749999901
                },
                {
                    "name": "F#5",
                    "midi": 78,
                    "time": 338.8966864999965,
                    "velocity": 0.2755905511811024,
                    "duration": 0.1317638749999901
                },
                {
                    "name": "E5",
                    "midi": 76,
                    "time": 339.0284503749965,
                    "velocity": 0.2755905511811024,
                    "duration": 0.1317638749999901
                },
                {
                    "name": "D#5",
                    "midi": 75,
                    "time": 339.1602142499965,
                    "velocity": 0.2677165354330709,
                    "duration": 0.1317638749999901
                },
                {
                    "name": "C#5",
                    "midi": 73,
                    "time": 339.2919781249965,
                    "velocity": 0.25984251968503935,
                    "duration": 0.1317638749999901
                },
                {
                    "name": "C5",
                    "midi": 72,
                    "time": 339.4237419999965,
                    "velocity": 0.2440944881889764,
                    "duration": 0.1317638749999901
                },
                {
                    "name": "C#5",
                    "midi": 73,
                    "time": 339.55550587499647,
                    "velocity": 0.2440944881889764,
                    "duration": 0.1317638749999901
                },
                {
                    "name": "D#5",
                    "midi": 75,
                    "time": 339.68726974999646,
                    "velocity": 0.25984251968503935,
                    "duration": 0.1317638749999901
                },
                {
                    "name": "C#5",
                    "midi": 73,
                    "time": 339.81903362499645,
                    "velocity": 0.25984251968503935,
                    "duration": 0.1317638749999901
                },
                {
                    "name": "E5",
                    "midi": 76,
                    "time": 339.95079749999644,
                    "velocity": 0.2677165354330709,
                    "duration": 0.1317638749999901
                },
                {
                    "name": "D#5",
                    "midi": 75,
                    "time": 340.08256137499643,
                    "velocity": 0.2677165354330709,
                    "duration": 0.1317638749999901
                },
                {
                    "name": "F#5",
                    "midi": 78,
                    "time": 340.2143252499964,
                    "velocity": 0.2755905511811024,
                    "duration": 0.1317638749999901
                },
                {
                    "name": "E5",
                    "midi": 76,
                    "time": 340.3460891249964,
                    "velocity": 0.2755905511811024,
                    "duration": 0.1317638749999901
                },
                {
                    "name": "G#5",
                    "midi": 80,
                    "time": 340.4778529999964,
                    "velocity": 0.2755905511811024,
                    "duration": 0.1317638749999901
                },
                {
                    "name": "F#5",
                    "midi": 78,
                    "time": 340.6096168749964,
                    "velocity": 0.28346456692913385,
                    "duration": 0.1317638749999901
                },
                {
                    "name": "A5",
                    "midi": 81,
                    "time": 340.7413807499964,
                    "velocity": 0.29133858267716534,
                    "duration": 0.1317638749999901
                },
                {
                    "name": "G#5",
                    "midi": 80,
                    "time": 340.87314462499637,
                    "velocity": 0.30708661417322836,
                    "duration": 0.1317638749999901
                },
                {
                    "name": "C#6",
                    "midi": 85,
                    "time": 341.00490849999636,
                    "velocity": 0.31496062992125984,
                    "duration": 0.1317638749999901
                },
                {
                    "name": "C6",
                    "midi": 84,
                    "time": 341.13667237499635,
                    "velocity": 0.33070866141732286,
                    "duration": 0.1317638749999901
                },
                {
                    "name": "D#6",
                    "midi": 87,
                    "time": 341.26843624999634,
                    "velocity": 0.3464566929133858,
                    "duration": 0.1317638749999901
                },
                {
                    "name": "C#6",
                    "midi": 85,
                    "time": 341.40020012499633,
                    "velocity": 0.36220472440944884,
                    "duration": 0.1317638749999901
                },
                {
                    "name": "D7",
                    "midi": 98,
                    "time": 342.05901949999634,
                    "velocity": 0.33070866141732286,
                    "duration": 0.1317638749999901
                },
                {
                    "name": "C#7",
                    "midi": 97,
                    "time": 342.19078337499633,
                    "velocity": 0.3228346456692913,
                    "duration": 0.1317638749999901
                },
                {
                    "name": "B6",
                    "midi": 95,
                    "time": 342.3225472499963,
                    "velocity": 0.31496062992125984,
                    "duration": 0.1317638749999901
                },
                {
                    "name": "A6",
                    "midi": 93,
                    "time": 342.4543111249963,
                    "velocity": 0.30708661417322836,
                    "duration": 0.1317638749999901
                },
                {
                    "name": "G#6",
                    "midi": 92,
                    "time": 342.5860749999963,
                    "velocity": 0.2992125984251969,
                    "duration": 0.1317638749999901
                },
                {
                    "name": "F#6",
                    "midi": 90,
                    "time": 342.7178388749963,
                    "velocity": 0.29133858267716534,
                    "duration": 0.1317638749999901
                },
                {
                    "name": "F6",
                    "midi": 89,
                    "time": 342.8496027499963,
                    "velocity": 0.28346456692913385,
                    "duration": 0.1317638749999901
                },
                {
                    "name": "D6",
                    "midi": 86,
                    "time": 342.98136662499627,
                    "velocity": 0.28346456692913385,
                    "duration": 0.1317638749999901
                },
                {
                    "name": "C#6",
                    "midi": 85,
                    "time": 343.11313049999626,
                    "velocity": 0.2755905511811024,
                    "duration": 0.1317638749999901
                },
                {
                    "name": "B5",
                    "midi": 83,
                    "time": 343.24489437499625,
                    "velocity": 0.2755905511811024,
                    "duration": 0.1317638749999901
                },
                {
                    "name": "A5",
                    "midi": 81,
                    "time": 343.37665824999624,
                    "velocity": 0.2677165354330709,
                    "duration": 0.1317638749999901
                },
                {
                    "name": "G#5",
                    "midi": 80,
                    "time": 343.50842212499623,
                    "velocity": 0.25984251968503935,
                    "duration": 0.1317638749999901
                },
                {
                    "name": "F#5",
                    "midi": 78,
                    "time": 343.6401859999962,
                    "velocity": 0.2440944881889764,
                    "duration": 0.1317638749999901
                },
                {
                    "name": "F5",
                    "midi": 77,
                    "time": 343.7719498749962,
                    "velocity": 0.2440944881889764,
                    "duration": 0.1317638749999901
                },
                {
                    "name": "G#5",
                    "midi": 80,
                    "time": 343.9037137499962,
                    "velocity": 0.25984251968503935,
                    "duration": 0.1317638749999901
                },
                {
                    "name": "F#5",
                    "midi": 78,
                    "time": 344.0354776249962,
                    "velocity": 0.25984251968503935,
                    "duration": 0.1317638749999901
                },
                {
                    "name": "A5",
                    "midi": 81,
                    "time": 344.1672414999962,
                    "velocity": 0.2677165354330709,
                    "duration": 0.1317638749999901
                },
                {
                    "name": "G#5",
                    "midi": 80,
                    "time": 344.29900537499617,
                    "velocity": 0.2677165354330709,
                    "duration": 0.1317638749999901
                },
                {
                    "name": "B5",
                    "midi": 83,
                    "time": 344.43076924999616,
                    "velocity": 0.2755905511811024,
                    "duration": 0.1317638749999901
                },
                {
                    "name": "A5",
                    "midi": 81,
                    "time": 344.56253312499615,
                    "velocity": 0.2755905511811024,
                    "duration": 0.1317638749999901
                },
                {
                    "name": "C#6",
                    "midi": 85,
                    "time": 344.69429699999614,
                    "velocity": 0.28346456692913385,
                    "duration": 0.1317638749999901
                },
                {
                    "name": "B5",
                    "midi": 83,
                    "time": 344.82606087499613,
                    "velocity": 0.28346456692913385,
                    "duration": 0.1317638749999901
                },
                {
                    "name": "D6",
                    "midi": 86,
                    "time": 344.9578247499961,
                    "velocity": 0.29133858267716534,
                    "duration": 0.1317638749999901
                },
                {
                    "name": "C#6",
                    "midi": 85,
                    "time": 345.0895886249961,
                    "velocity": 0.29133858267716534,
                    "duration": 0.1317638749999901
                },
                {
                    "name": "F#6",
                    "midi": 90,
                    "time": 345.2213524999961,
                    "velocity": 0.2992125984251969,
                    "duration": 0.1317638749999901
                },
                {
                    "name": "F6",
                    "midi": 89,
                    "time": 345.3531163749961,
                    "velocity": 0.2992125984251969,
                    "duration": 0.1317638749999901
                },
                {
                    "name": "G#6",
                    "midi": 92,
                    "time": 345.4848802499961,
                    "velocity": 0.30708661417322836,
                    "duration": 0.1317638749999901
                },
                {
                    "name": "F#6",
                    "midi": 90,
                    "time": 345.61664412499607,
                    "velocity": 0.30708661417322836,
                    "duration": 0.1317638749999901
                },
                {
                    "name": "B6",
                    "midi": 95,
                    "time": 346.2754634999961,
                    "velocity": 0.2992125984251969,
                    "duration": 0.1317638749999901
                },
                {
                    "name": "E7",
                    "midi": 100,
                    "time": 346.40722737499607,
                    "velocity": 0.2992125984251969,
                    "duration": 0.1317638749999901
                },
                {
                    "name": "D#7",
                    "midi": 99,
                    "time": 346.53899124999606,
                    "velocity": 0.2992125984251969,
                    "duration": 0.1317638749999901
                },
                {
                    "name": "C#7",
                    "midi": 97,
                    "time": 346.67075512499605,
                    "velocity": 0.29133858267716534,
                    "duration": 0.1317638749999901
                },
                {
                    "name": "B6",
                    "midi": 95,
                    "time": 346.80251899999604,
                    "velocity": 0.29133858267716534,
                    "duration": 0.1317638749999901
                },
                {
                    "name": "A6",
                    "midi": 93,
                    "time": 346.93428287499603,
                    "velocity": 0.29133858267716534,
                    "duration": 0.1317638749999901
                },
                {
                    "name": "G#6",
                    "midi": 92,
                    "time": 347.066046749996,
                    "velocity": 0.28346456692913385,
                    "duration": 0.1317638749999901
                },
                {
                    "name": "F#6",
                    "midi": 90,
                    "time": 347.197810624996,
                    "velocity": 0.28346456692913385,
                    "duration": 0.1317638749999901
                },
                {
                    "name": "E6",
                    "midi": 88,
                    "time": 347.329574499996,
                    "velocity": 0.2755905511811024,
                    "duration": 0.1317638749999901
                },
                {
                    "name": "D#6",
                    "midi": 87,
                    "time": 347.461338374996,
                    "velocity": 0.2755905511811024,
                    "duration": 0.1317638749999901
                },
                {
                    "name": "C#6",
                    "midi": 85,
                    "time": 347.593102249996,
                    "velocity": 0.2677165354330709,
                    "duration": 0.1317638749999901
                },
                {
                    "name": "B5",
                    "midi": 83,
                    "time": 347.72486612499597,
                    "velocity": 0.25984251968503935,
                    "duration": 0.1317638749999901
                },
                {
                    "name": "B5",
                    "midi": 83,
                    "time": 348.383685499996,
                    "velocity": 0.2992125984251969,
                    "duration": 0.1317638749999901
                },
                {
                    "name": "A6",
                    "midi": 93,
                    "time": 348.51544937499597,
                    "velocity": 0.2992125984251969,
                    "duration": 0.1317638749999901
                },
                {
                    "name": "G#6",
                    "midi": 92,
                    "time": 348.64721324999596,
                    "velocity": 0.2992125984251969,
                    "duration": 0.1317638749999901
                },
                {
                    "name": "F#6",
                    "midi": 90,
                    "time": 348.77897712499595,
                    "velocity": 0.29133858267716534,
                    "duration": 0.1317638749999901
                },
                {
                    "name": "E6",
                    "midi": 88,
                    "time": 348.91074099999594,
                    "velocity": 0.28346456692913385,
                    "duration": 0.1317638749999901
                },
                {
                    "name": "D#6",
                    "midi": 87,
                    "time": 349.0425048749959,
                    "velocity": 0.29133858267716534,
                    "duration": 0.1317638749999901
                },
                {
                    "name": "C#6",
                    "midi": 85,
                    "time": 349.1742687499959,
                    "velocity": 0.2992125984251969,
                    "duration": 0.1317638749999901
                },
                {
                    "name": "B5",
                    "midi": 83,
                    "time": 349.3060326249959,
                    "velocity": 0.30708661417322836,
                    "duration": 0.1317638749999901
                },
                {
                    "name": "A#5",
                    "midi": 82,
                    "time": 349.4377964999959,
                    "velocity": 0.31496062992125984,
                    "duration": 0.1317638749999901
                },
                {
                    "name": "B5",
                    "midi": 83,
                    "time": 349.5695603749959,
                    "velocity": 0.3228346456692913,
                    "duration": 0.1317638749999901
                },
                {
                    "name": "A5",
                    "midi": 81,
                    "time": 349.7013242499959,
                    "velocity": 0.33070866141732286,
                    "duration": 0.1317638749999901
                },
                {
                    "name": "F#5",
                    "midi": 78,
                    "time": 349.83308812499587,
                    "velocity": 0.3543307086614173,
                    "duration": 0.1317638749999901
                },
                {
                    "name": "E5",
                    "midi": 76,
                    "time": 349.96485199999586,
                    "velocity": 0.3543307086614173,
                    "duration": 0.1317638749999901
                },
                {
                    "name": "D#5",
                    "midi": 75,
                    "time": 350.09661587499585,
                    "velocity": 0.3543307086614173,
                    "duration": 0.1317638749999901
                },
                {
                    "name": "C#5",
                    "midi": 73,
                    "time": 350.22837974999584,
                    "velocity": 0.3543307086614173,
                    "duration": 0.1317638749999901
                },
                {
                    "name": "B4",
                    "midi": 71,
                    "time": 350.3601436249958,
                    "velocity": 0.3543307086614173,
                    "duration": 0.1317638749999901
                },
                {
                    "name": "A#4",
                    "midi": 70,
                    "time": 350.4919074999958,
                    "velocity": 0.3700787401574803,
                    "duration": 0.1317638749999901
                },
                {
                    "name": "B4",
                    "midi": 71,
                    "time": 350.6236713749958,
                    "velocity": 0.3543307086614173,
                    "duration": 0.1317638749999901
                },
                {
                    "name": "C#5",
                    "midi": 73,
                    "time": 350.7554352499958,
                    "velocity": 0.3464566929133858,
                    "duration": 0.1317638749999901
                },
                {
                    "name": "D#5",
                    "midi": 75,
                    "time": 350.8871991249958,
                    "velocity": 0.3228346456692913,
                    "duration": 0.1317638749999901
                },
                {
                    "name": "E5",
                    "midi": 76,
                    "time": 351.0189629999958,
                    "velocity": 0.3464566929133858,
                    "duration": 0.1317638749999901
                },
                {
                    "name": "D#5",
                    "midi": 75,
                    "time": 351.15072687499577,
                    "velocity": 0.3543307086614173,
                    "duration": 0.1317638749999901
                },
                {
                    "name": "E5",
                    "midi": 76,
                    "time": 351.28249074999576,
                    "velocity": 0.36220472440944884,
                    "duration": 0.1317638749999901
                },
                {
                    "name": "F#5",
                    "midi": 78,
                    "time": 351.41425462499575,
                    "velocity": 0.3700787401574803,
                    "duration": 0.1317638749999901
                },
                {
                    "name": "G#5",
                    "midi": 80,
                    "time": 351.54601849999574,
                    "velocity": 0.3937007874015748,
                    "duration": 0.1317638749999901
                },
                {
                    "name": "G5",
                    "midi": 79,
                    "time": 351.67778237499573,
                    "velocity": 0.4015748031496063,
                    "duration": 0.1317638749999901
                },
                {
                    "name": "G#5",
                    "midi": 80,
                    "time": 351.8095462499957,
                    "velocity": 0.41732283464566927,
                    "duration": 0.1317638749999901
                },
                {
                    "name": "A#5",
                    "midi": 82,
                    "time": 351.9413101249957,
                    "velocity": 0.4330708661417323,
                    "duration": 0.1317638749999901
                },
                {
                    "name": "B5",
                    "midi": 83,
                    "time": 352.0730739999957,
                    "velocity": 0.44881889763779526,
                    "duration": 0.1317638749999901
                },
                {
                    "name": "A#5",
                    "midi": 82,
                    "time": 352.2048378749957,
                    "velocity": 0.4566929133858268,
                    "duration": 0.1317638749999901
                },
                {
                    "name": "B5",
                    "midi": 83,
                    "time": 352.3366017499957,
                    "velocity": 0.4645669291338583,
                    "duration": 0.1317638749999901
                },
                {
                    "name": "D#6",
                    "midi": 87,
                    "time": 352.46836562499567,
                    "velocity": 0.48031496062992124,
                    "duration": 0.1317638749999901
                },
                {
                    "name": "E6",
                    "midi": 88,
                    "time": 352.60012949999566,
                    "velocity": 0.4881889763779528,
                    "duration": 0.1317638749999901
                },
                {
                    "name": "D#6",
                    "midi": 87,
                    "time": 352.73189337499565,
                    "velocity": 0.49606299212598426,
                    "duration": 0.1317638749999901
                },
                {
                    "name": "E6",
                    "midi": 88,
                    "time": 352.86365724999564,
                    "velocity": 0.5039370078740157,
                    "duration": 0.1317638749999901
                },
                {
                    "name": "F#6",
                    "midi": 90,
                    "time": 352.99542112499563,
                    "velocity": 0.5275590551181102,
                    "duration": 0.1317638749999901
                },
                {
                    "name": "G#6",
                    "midi": 92,
                    "time": 353.1271849999956,
                    "velocity": 0.5511811023622047,
                    "duration": 0.1317638749999901
                },
                {
                    "name": "G6",
                    "midi": 91,
                    "time": 353.2589488749956,
                    "velocity": 0.5433070866141733,
                    "duration": 0.1317638749999901
                },
                {
                    "name": "G#6",
                    "midi": 92,
                    "time": 353.3907127499956,
                    "velocity": 0.5590551181102362,
                    "duration": 0.1317638749999901
                },
                {
                    "name": "A6",
                    "midi": 93,
                    "time": 353.5224766249956,
                    "velocity": 0.5669291338582677,
                    "duration": 0.1317638749999901
                },
                {
                    "name": "G#6",
                    "midi": 92,
                    "time": 353.6542404999956,
                    "velocity": 0.5826771653543307,
                    "duration": 0.1317638749999901
                },
                {
                    "name": "G6",
                    "midi": 91,
                    "time": 353.78600437499557,
                    "velocity": 0.5905511811023622,
                    "duration": 0.1317638749999901
                },
                {
                    "name": "G#6",
                    "midi": 92,
                    "time": 353.91776824999556,
                    "velocity": 0.6141732283464567,
                    "duration": 0.1317638749999901
                },
                {
                    "name": "A6",
                    "midi": 93,
                    "time": 354.04953212499555,
                    "velocity": 0.6299212598425197,
                    "duration": 0.1317638749999901
                },
                {
                    "name": "F#6",
                    "midi": 90,
                    "time": 354.18129599999554,
                    "velocity": 0.6692913385826772,
                    "duration": 0.2635277499999802
                },
                {
                    "name": "A6",
                    "midi": 93,
                    "time": 354.31305987499553,
                    "velocity": 0.6062992125984252,
                    "duration": 0.1317638749999901
                },
                {
                    "name": "E6",
                    "midi": 88,
                    "time": 354.4448237499955,
                    "velocity": 0.6377952755905512,
                    "duration": 0.2635277499999802
                },
                {
                    "name": "A6",
                    "midi": 93,
                    "time": 354.5765876249955,
                    "velocity": 0.6062992125984252,
                    "duration": 0.1317638749999901
                },
                {
                    "name": "D#6",
                    "midi": 87,
                    "time": 354.7083514999955,
                    "velocity": 0.6377952755905512,
                    "duration": 0.2635277499999802
                },
                {
                    "name": "A6",
                    "midi": 93,
                    "time": 354.8401153749955,
                    "velocity": 0.6062992125984252,
                    "duration": 0.1317638749999901
                },
                {
                    "name": "C#6",
                    "midi": 85,
                    "time": 354.9718792499955,
                    "velocity": 0.6377952755905512,
                    "duration": 0.2635277499999802
                },
                {
                    "name": "A6",
                    "midi": 93,
                    "time": 355.1036431249955,
                    "velocity": 0.6062992125984252,
                    "duration": 0.1317638749999901
                },
                {
                    "name": "C6",
                    "midi": 84,
                    "time": 355.23540699999546,
                    "velocity": 0.6692913385826772,
                    "duration": 0.2635277499999802
                },
                {
                    "name": "D#6",
                    "midi": 87,
                    "time": 355.36717087499545,
                    "velocity": 0.6062992125984252,
                    "duration": 0.1317638749999901
                },
                {
                    "name": "A5",
                    "midi": 81,
                    "time": 355.49893474999544,
                    "velocity": 0.6377952755905512,
                    "duration": 0.2635277499999802
                },
                {
                    "name": "D#6",
                    "midi": 87,
                    "time": 355.63069862499543,
                    "velocity": 0.6062992125984252,
                    "duration": 0.1317638749999901
                },
                {
                    "name": "G#5",
                    "midi": 80,
                    "time": 355.7624624999954,
                    "velocity": 0.6377952755905512,
                    "duration": 0.2635277499999802
                },
                {
                    "name": "D#6",
                    "midi": 87,
                    "time": 355.8942263749954,
                    "velocity": 0.6062992125984252,
                    "duration": 0.1317638749999901
                },
                {
                    "name": "G5",
                    "midi": 79,
                    "time": 356.0259902499954,
                    "velocity": 0.6377952755905512,
                    "duration": 0.2635277499999802
                },
                {
                    "name": "D#6",
                    "midi": 87,
                    "time": 356.1577541249954,
                    "velocity": 0.6062992125984252,
                    "duration": 0.1317638749999901
                },
                {
                    "name": "F#5",
                    "midi": 78,
                    "time": 356.2895179999954,
                    "velocity": 0.6692913385826772,
                    "duration": 0.2635277499999802
                },
                {
                    "name": "A5",
                    "midi": 81,
                    "time": 356.4212818749954,
                    "velocity": 0.6062992125984252,
                    "duration": 0.1317638749999901
                },
                {
                    "name": "E5",
                    "midi": 76,
                    "time": 356.55304574999536,
                    "velocity": 0.6377952755905512,
                    "duration": 0.2635277499999802
                },
                {
                    "name": "A5",
                    "midi": 81,
                    "time": 356.68480962499535,
                    "velocity": 0.6062992125984252,
                    "duration": 0.1317638749999901
                },
                {
                    "name": "D#5",
                    "midi": 75,
                    "time": 356.81657349999534,
                    "velocity": 0.6377952755905512,
                    "duration": 0.2635277499999802
                },
                {
                    "name": "A5",
                    "midi": 81,
                    "time": 356.94833737499533,
                    "velocity": 0.6141732283464567,
                    "duration": 0.1317638749999901
                },
                {
                    "name": "C#5",
                    "midi": 73,
                    "time": 357.0801012499953,
                    "velocity": 0.6456692913385826,
                    "duration": 0.2635277499999802
                },
                {
                    "name": "A5",
                    "midi": 81,
                    "time": 357.2118651249953,
                    "velocity": 0.6220472440944882,
                    "duration": 0.1317638749999901
                },
                {
                    "name": "C5",
                    "midi": 72,
                    "time": 357.3436289999953,
                    "velocity": 0.6929133858267716,
                    "duration": 0.2635277499999802
                },
                {
                    "name": "D#5",
                    "midi": 75,
                    "time": 357.4753928749953,
                    "velocity": 0.6220472440944882,
                    "duration": 0.1317638749999901
                },
                {
                    "name": "A4",
                    "midi": 69,
                    "time": 357.6071567499953,
                    "velocity": 0.6535433070866141,
                    "duration": 0.2635277499999802
                },
                {
                    "name": "D#5",
                    "midi": 75,
                    "time": 357.7389206249953,
                    "velocity": 0.6299212598425197,
                    "duration": 0.1317638749999901
                },
                {
                    "name": "G#4",
                    "midi": 68,
                    "time": 357.87068449999526,
                    "velocity": 0.6614173228346457,
                    "duration": 0.2635277499999802
                },
                {
                    "name": "D#5",
                    "midi": 75,
                    "time": 358.00244837499525,
                    "velocity": 0.6377952755905512,
                    "duration": 0.1317638749999901
                },
                {
                    "name": "G4",
                    "midi": 67,
                    "time": 358.13421224999524,
                    "velocity": 0.6692913385826772,
                    "duration": 0.2635277499999802
                },
                {
                    "name": "D#5",
                    "midi": 75,
                    "time": 358.26597612499523,
                    "velocity": 0.6377952755905512,
                    "duration": 0.1317638749999901
                },
                {
                    "name": "F#4",
                    "midi": 66,
                    "time": 358.3977399999952,
                    "velocity": 0.7165354330708661,
                    "duration": 0.1317638749999901
                },
                {
                    "name": "A4",
                    "midi": 69,
                    "time": 358.5295038749952,
                    "velocity": 0.6377952755905512,
                    "duration": 0.1317638749999901
                },
                {
                    "name": "E4",
                    "midi": 64,
                    "time": 358.6612677499952,
                    "velocity": 0.6771653543307087,
                    "duration": 0.1317638749999901
                },
                {
                    "name": "A4",
                    "midi": 69,
                    "time": 358.7930316249952,
                    "velocity": 0.6456692913385826,
                    "duration": 0.1317638749999901
                },
                {
                    "name": "D#4",
                    "midi": 63,
                    "time": 358.9247954999952,
                    "velocity": 0.6929133858267716,
                    "duration": 0.1317638749999901
                },
                {
                    "name": "A4",
                    "midi": 69,
                    "time": 359.0565593749952,
                    "velocity": 0.6535433070866141,
                    "duration": 0.1317638749999901
                },
                {
                    "name": "C#4",
                    "midi": 61,
                    "time": 359.18832324999516,
                    "velocity": 0.7007874015748031,
                    "duration": 0.1317638749999901
                },
                {
                    "name": "A4",
                    "midi": 69,
                    "time": 359.32008712499515,
                    "velocity": 0.6614173228346457,
                    "duration": 0.1317638749999901
                },
                {
                    "name": "C4",
                    "midi": 60,
                    "time": 359.45185099999514,
                    "velocity": 0.7401574803149606,
                    "duration": 0.1317638749999901
                },
                {
                    "name": "D#4",
                    "midi": 63,
                    "time": 359.58361487499513,
                    "velocity": 0.6614173228346457,
                    "duration": 0.1317638749999901
                },
                {
                    "name": "A3",
                    "midi": 57,
                    "time": 359.7153787499951,
                    "velocity": 0.7086614173228346,
                    "duration": 0.1317638749999901
                },
                {
                    "name": "D#4",
                    "midi": 63,
                    "time": 359.8471426249951,
                    "velocity": 0.6692913385826772,
                    "duration": 0.1317638749999901
                },
                {
                    "name": "G#3",
                    "midi": 56,
                    "time": 359.9789064999951,
                    "velocity": 0.7165354330708661,
                    "duration": 0.1317638749999901
                },
                {
                    "name": "D#4",
                    "midi": 63,
                    "time": 360.1106703749951,
                    "velocity": 0.6771653543307087,
                    "duration": 0.1317638749999901
                },
                {
                    "name": "G3",
                    "midi": 55,
                    "time": 360.2424342499951,
                    "velocity": 0.7244094488188977,
                    "duration": 0.1317638749999901
                },
                {
                    "name": "D#4",
                    "midi": 63,
                    "time": 360.3741981249951,
                    "velocity": 0.6771653543307087,
                    "duration": 0.1317638749999901
                },
                {
                    "name": "F#3",
                    "midi": 54,
                    "time": 360.50596199999507,
                    "velocity": 0.6929133858267716,
                    "duration": 0.1317638749999901
                },
                {
                    "name": "A3",
                    "midi": 57,
                    "time": 360.63772587499506,
                    "velocity": 0.6220472440944882,
                    "duration": 0.1317638749999901
                },
                {
                    "name": "D#3",
                    "midi": 51,
                    "time": 360.76948974999505,
                    "velocity": 0.6692913385826772,
                    "duration": 0.1317638749999901
                },
                {
                    "name": "A3",
                    "midi": 57,
                    "time": 360.90125362499504,
                    "velocity": 0.6377952755905512,
                    "duration": 0.1317638749999901
                },
                {
                    "name": "C#3",
                    "midi": 49,
                    "time": 361.033017499995,
                    "velocity": 0.6929133858267716,
                    "duration": 0.1317638749999901
                },
                {
                    "name": "A3",
                    "midi": 57,
                    "time": 361.164781374995,
                    "velocity": 0.6535433070866141,
                    "duration": 0.1317638749999901
                },
                {
                    "name": "C3",
                    "midi": 48,
                    "time": 361.296545249995,
                    "velocity": 0.7086614173228346,
                    "duration": 0.1317638749999901
                },
                {
                    "name": "A3",
                    "midi": 57,
                    "time": 361.428309124995,
                    "velocity": 0.6692913385826772,
                    "duration": 0.1317638749999901
                },
                {
                    "name": "F#3",
                    "midi": 54,
                    "time": 361.560072999995,
                    "velocity": 0.6929133858267716,
                    "duration": 0.1317638749999901
                },
                {
                    "name": "A3",
                    "midi": 57,
                    "time": 361.691836874995,
                    "velocity": 0.6220472440944882,
                    "duration": 0.1317638749999901
                },
                {
                    "name": "D#3",
                    "midi": 51,
                    "time": 361.82360074999497,
                    "velocity": 0.6692913385826772,
                    "duration": 0.1317638749999901
                },
                {
                    "name": "A3",
                    "midi": 57,
                    "time": 361.95536462499496,
                    "velocity": 0.6377952755905512,
                    "duration": 0.1317638749999901
                },
                {
                    "name": "C#3",
                    "midi": 49,
                    "time": 362.08712849999495,
                    "velocity": 0.6929133858267716,
                    "duration": 0.1317638749999901
                },
                {
                    "name": "A3",
                    "midi": 57,
                    "time": 362.21889237499494,
                    "velocity": 0.6535433070866141,
                    "duration": 0.1317638749999901
                },
                {
                    "name": "C3",
                    "midi": 48,
                    "time": 362.3506562499949,
                    "velocity": 0.7086614173228346,
                    "duration": 0.1317638749999901
                },
                {
                    "name": "A3",
                    "midi": 57,
                    "time": 362.4824201249949,
                    "velocity": 0.6692913385826772,
                    "duration": 0.1317638749999901
                },
                {
                    "name": "F#3",
                    "midi": 54,
                    "time": 362.6141839999949,
                    "velocity": 0.6929133858267716,
                    "duration": 0.1317638749999901
                },
                {
                    "name": "A3",
                    "midi": 57,
                    "time": 362.7459478749949,
                    "velocity": 0.6220472440944882,
                    "duration": 0.1317638749999901
                },
                {
                    "name": "D3",
                    "midi": 50,
                    "time": 362.8777117499949,
                    "velocity": 0.6614173228346457,
                    "duration": 0.1317638749999901
                },
                {
                    "name": "A3",
                    "midi": 57,
                    "time": 363.0094756249949,
                    "velocity": 0.6299212598425197,
                    "duration": 0.1317638749999901
                },
                {
                    "name": "C#3",
                    "midi": 49,
                    "time": 363.14123949999487,
                    "velocity": 0.6692913385826772,
                    "duration": 0.1317638749999901
                },
                {
                    "name": "A3",
                    "midi": 57,
                    "time": 363.27300337499486,
                    "velocity": 0.6299212598425197,
                    "duration": 0.1317638749999901
                },
                {
                    "name": "C3",
                    "midi": 48,
                    "time": 363.40476724999485,
                    "velocity": 0.6771653543307087,
                    "duration": 0.1317638749999901
                },
                {
                    "name": "A3",
                    "midi": 57,
                    "time": 363.53653112499484,
                    "velocity": 0.6377952755905512,
                    "duration": 0.1317638749999901
                },
                {
                    "name": "F#3",
                    "midi": 54,
                    "time": 363.6682949999948,
                    "velocity": 0.6456692913385826,
                    "duration": 0.1317638749999901
                },
                {
                    "name": "A3",
                    "midi": 57,
                    "time": 363.8000588749948,
                    "velocity": 0.5905511811023622,
                    "duration": 0.1317638749999901
                },
                {
                    "name": "D3",
                    "midi": 50,
                    "time": 363.9318227499948,
                    "velocity": 0.6220472440944882,
                    "duration": 0.1317638749999901
                },
                {
                    "name": "A3",
                    "midi": 57,
                    "time": 364.0635866249948,
                    "velocity": 0.5905511811023622,
                    "duration": 0.1317638749999901
                },
                {
                    "name": "C#3",
                    "midi": 49,
                    "time": 364.1953504999948,
                    "velocity": 0.6456692913385826,
                    "duration": 0.1317638749999901
                },
                {
                    "name": "A3",
                    "midi": 57,
                    "time": 364.3271143749948,
                    "velocity": 0.6062992125984252,
                    "duration": 0.1317638749999901
                },
                {
                    "name": "C3",
                    "midi": 48,
                    "time": 364.45887824999477,
                    "velocity": 0.6456692913385826,
                    "duration": 0.1317638749999901
                },
                {
                    "name": "A3",
                    "midi": 57,
                    "time": 364.59064212499476,
                    "velocity": 0.6062992125984252,
                    "duration": 0.1317638749999901
                },
                {
                    "name": "C#3",
                    "midi": 49,
                    "time": 364.72240599999475,
                    "velocity": 0.6220472440944882,
                    "duration": 0.1317638749999901
                },
                {
                    "name": "A3",
                    "midi": 57,
                    "time": 364.85416987499474,
                    "velocity": 0.5590551181102362,
                    "duration": 0.1317638749999901
                },
                {
                    "name": "E3",
                    "midi": 52,
                    "time": 364.98593374999473,
                    "velocity": 0.6062992125984252,
                    "duration": 0.1317638749999901
                },
                {
                    "name": "A3",
                    "midi": 57,
                    "time": 365.1176976249947,
                    "velocity": 0.5826771653543307,
                    "duration": 0.1317638749999901
                },
                {
                    "name": "F#3",
                    "midi": 54,
                    "time": 365.2494614999947,
                    "velocity": 0.6299212598425197,
                    "duration": 0.1317638749999901
                },
                {
                    "name": "A3",
                    "midi": 57,
                    "time": 365.3812253749947,
                    "velocity": 0.6141732283464567,
                    "duration": 0.1317638749999901
                },
                {
                    "name": "G3",
                    "midi": 55,
                    "time": 365.5129892499947,
                    "velocity": 0.6535433070866141,
                    "duration": 0.1317638749999901
                },
                {
                    "name": "A3",
                    "midi": 57,
                    "time": 365.6447531249947,
                    "velocity": 0.6377952755905512,
                    "duration": 0.1317638749999901
                },
                {
                    "name": "F#3",
                    "midi": 54,
                    "time": 365.77651699999467,
                    "velocity": 0.6929133858267716,
                    "duration": 0.1317638749999901
                },
                {
                    "name": "A3",
                    "midi": 57,
                    "time": 365.90828087499466,
                    "velocity": 0.6141732283464567,
                    "duration": 0.1317638749999901
                },
                {
                    "name": "E3",
                    "midi": 52,
                    "time": 366.04004474999465,
                    "velocity": 0.6377952755905512,
                    "duration": 0.1317638749999901
                },
                {
                    "name": "A3",
                    "midi": 57,
                    "time": 366.17180862499464,
                    "velocity": 0.5905511811023622,
                    "duration": 0.1317638749999901
                },
                {
                    "name": "D3",
                    "midi": 50,
                    "time": 366.30357249999463,
                    "velocity": 0.6220472440944882,
                    "duration": 0.1317638749999901
                },
                {
                    "name": "A3",
                    "midi": 57,
                    "time": 366.4353363749946,
                    "velocity": 0.5748031496062992,
                    "duration": 0.1317638749999901
                },
                {
                    "name": "C3",
                    "midi": 48,
                    "time": 366.5671002499946,
                    "velocity": 0.6062992125984252,
                    "duration": 0.1317638749999901
                },
                {
                    "name": "A#3",
                    "midi": 58,
                    "time": 366.6988641249946,
                    "velocity": 0.5669291338582677,
                    "duration": 0.1317638749999901
                },
                {
                    "name": "B2",
                    "midi": 47,
                    "time": 366.8306279999946,
                    "velocity": 0.6220472440944882,
                    "duration": 0.1317638749999901
                },
                {
                    "name": "B3",
                    "midi": 59,
                    "time": 366.9623918749946,
                    "velocity": 0.5590551181102362,
                    "duration": 0.1317638749999901
                },
                {
                    "name": "D#3",
                    "midi": 51,
                    "time": 367.09415574999457,
                    "velocity": 0.6062992125984252,
                    "duration": 0.1317638749999901
                },
                {
                    "name": "B3",
                    "midi": 59,
                    "time": 367.22591962499456,
                    "velocity": 0.5826771653543307,
                    "duration": 0.1317638749999901
                },
                {
                    "name": "F#3",
                    "midi": 54,
                    "time": 367.35768349999455,
                    "velocity": 0.6299212598425197,
                    "duration": 0.1317638749999901
                },
                {
                    "name": "B3",
                    "midi": 59,
                    "time": 367.48944737499454,
                    "velocity": 0.6141732283464567,
                    "duration": 0.1317638749999901
                },
                {
                    "name": "A3",
                    "midi": 57,
                    "time": 367.62121124999453,
                    "velocity": 0.6535433070866141,
                    "duration": 0.1317638749999901
                },
                {
                    "name": "B3",
                    "midi": 59,
                    "time": 367.7529751249945,
                    "velocity": 0.6377952755905512,
                    "duration": 0.1317638749999901
                },
                {
                    "name": "G#3",
                    "midi": 56,
                    "time": 367.8847389999945,
                    "velocity": 0.6929133858267716,
                    "duration": 0.1317638749999901
                },
                {
                    "name": "B3",
                    "midi": 59,
                    "time": 368.0165028749945,
                    "velocity": 0.6141732283464567,
                    "duration": 0.1317638749999901
                },
                {
                    "name": "F#3",
                    "midi": 54,
                    "time": 368.1482667499945,
                    "velocity": 0.6377952755905512,
                    "duration": 0.1317638749999901
                },
                {
                    "name": "B3",
                    "midi": 59,
                    "time": 368.2800306249945,
                    "velocity": 0.5905511811023622,
                    "duration": 0.1317638749999901
                },
                {
                    "name": "E3",
                    "midi": 52,
                    "time": 368.41179449999447,
                    "velocity": 0.6220472440944882,
                    "duration": 0.1317638749999901
                },
                {
                    "name": "B3",
                    "midi": 59,
                    "time": 368.54355837499446,
                    "velocity": 0.5748031496062992,
                    "duration": 0.1317638749999901
                },
                {
                    "name": "D3",
                    "midi": 50,
                    "time": 368.67532224999445,
                    "velocity": 0.6062992125984252,
                    "duration": 0.1317638749999901
                },
                {
                    "name": "C4",
                    "midi": 60,
                    "time": 368.80708612499444,
                    "velocity": 0.5669291338582677,
                    "duration": 0.1317638749999901
                },
                {
                    "name": "C#3",
                    "midi": 49,
                    "time": 368.93884999999443,
                    "velocity": 0.6220472440944882,
                    "duration": 0.1317638749999901
                },
                {
                    "name": "C#4",
                    "midi": 61,
                    "time": 369.0706138749944,
                    "velocity": 0.5590551181102362,
                    "duration": 0.1317638749999901
                },
                {
                    "name": "F3",
                    "midi": 53,
                    "time": 369.2023777499944,
                    "velocity": 0.6062992125984252,
                    "duration": 0.1317638749999901
                },
                {
                    "name": "C#4",
                    "midi": 61,
                    "time": 369.3341416249944,
                    "velocity": 0.5826771653543307,
                    "duration": 0.1317638749999901
                },
                {
                    "name": "G#3",
                    "midi": 56,
                    "time": 369.4659054999944,
                    "velocity": 0.6299212598425197,
                    "duration": 0.1317638749999901
                },
                {
                    "name": "C#4",
                    "midi": 61,
                    "time": 369.5976693749944,
                    "velocity": 0.6141732283464567,
                    "duration": 0.1317638749999901
                },
                {
                    "name": "B3",
                    "midi": 59,
                    "time": 369.7294332499944,
                    "velocity": 0.6535433070866141,
                    "duration": 0.1317638749999901
                },
                {
                    "name": "C#4",
                    "midi": 61,
                    "time": 369.86119712499436,
                    "velocity": 0.6377952755905512,
                    "duration": 0.1317638749999901
                },
                {
                    "name": "A#3",
                    "midi": 58,
                    "time": 369.99296099999435,
                    "velocity": 0.6929133858267716,
                    "duration": 0.1317638749999901
                },
                {
                    "name": "C#4",
                    "midi": 61,
                    "time": 370.12472487499434,
                    "velocity": 0.6141732283464567,
                    "duration": 0.1317638749999901
                },
                {
                    "name": "G#3",
                    "midi": 56,
                    "time": 370.25648874999433,
                    "velocity": 0.6377952755905512,
                    "duration": 0.1317638749999901
                },
                {
                    "name": "C#4",
                    "midi": 61,
                    "time": 370.3882526249943,
                    "velocity": 0.5905511811023622,
                    "duration": 0.1317638749999901
                },
                {
                    "name": "F#3",
                    "midi": 54,
                    "time": 370.5200164999943,
                    "velocity": 0.6220472440944882,
                    "duration": 0.1317638749999901
                },
                {
                    "name": "C#4",
                    "midi": 61,
                    "time": 370.6517803749943,
                    "velocity": 0.5748031496062992,
                    "duration": 0.1317638749999901
                },
                {
                    "name": "E3",
                    "midi": 52,
                    "time": 370.7835442499943,
                    "velocity": 0.6062992125984252,
                    "duration": 0.1317638749999901
                },
                {
                    "name": "D4",
                    "midi": 62,
                    "time": 370.9153081249943,
                    "velocity": 0.5669291338582677,
                    "duration": 0.1317638749999901
                },
                {
                    "name": "D#3",
                    "midi": 51,
                    "time": 371.0470719999943,
                    "velocity": 0.6220472440944882,
                    "duration": 0.1317638749999901
                },
                {
                    "name": "D#4",
                    "midi": 63,
                    "time": 371.17883587499426,
                    "velocity": 0.5590551181102362,
                    "duration": 0.1317638749999901
                },
                {
                    "name": "G3",
                    "midi": 55,
                    "time": 371.31059974999425,
                    "velocity": 0.6062992125984252,
                    "duration": 0.1317638749999901
                },
                {
                    "name": "D#4",
                    "midi": 63,
                    "time": 371.44236362499424,
                    "velocity": 0.5826771653543307,
                    "duration": 0.1317638749999901
                },
                {
                    "name": "A#3",
                    "midi": 58,
                    "time": 371.57412749999423,
                    "velocity": 0.6299212598425197,
                    "duration": 0.1317638749999901
                },
                {
                    "name": "D#4",
                    "midi": 63,
                    "time": 371.7058913749942,
                    "velocity": 0.6141732283464567,
                    "duration": 0.1317638749999901
                },
                {
                    "name": "C#4",
                    "midi": 61,
                    "time": 371.8376552499942,
                    "velocity": 0.6535433070866141,
                    "duration": 0.1317638749999901
                },
                {
                    "name": "D#4",
                    "midi": 63,
                    "time": 371.9694191249942,
                    "velocity": 0.6377952755905512,
                    "duration": 0.1317638749999901
                },
                {
                    "name": "C4",
                    "midi": 60,
                    "time": 372.1011829999942,
                    "velocity": 0.6929133858267716,
                    "duration": 0.1317638749999901
                },
                {
                    "name": "D#4",
                    "midi": 63,
                    "time": 372.2329468749942,
                    "velocity": 0.6220472440944882,
                    "duration": 0.1317638749999901
                },
                {
                    "name": "A#3",
                    "midi": 58,
                    "time": 372.3647107499942,
                    "velocity": 0.6535433070866141,
                    "duration": 0.1317638749999901
                },
                {
                    "name": "D#4",
                    "midi": 63,
                    "time": 372.49647462499416,
                    "velocity": 0.6062992125984252,
                    "duration": 0.1317638749999901
                },
                {
                    "name": "G#3",
                    "midi": 56,
                    "time": 372.62823849999415,
                    "velocity": 0.6377952755905512,
                    "duration": 0.1317638749999901
                },
                {
                    "name": "D#4",
                    "midi": 63,
                    "time": 372.76000237499414,
                    "velocity": 0.6062992125984252,
                    "duration": 0.1317638749999901
                },
                {
                    "name": "F#3",
                    "midi": 54,
                    "time": 372.89176624999413,
                    "velocity": 0.6377952755905512,
                    "duration": 0.1317638749999901
                },
                {
                    "name": "E4",
                    "midi": 64,
                    "time": 373.0235301249941,
                    "velocity": 0.5905511811023622,
                    "duration": 0.1317638749999901
                },
                {
                    "name": "F3",
                    "midi": 53,
                    "time": 373.1552939999941,
                    "velocity": 0.6377952755905512,
                    "duration": 0.1317638749999901
                },
                {
                    "name": "F4",
                    "midi": 65,
                    "time": 373.2870578749941,
                    "velocity": 0.5826771653543307,
                    "duration": 0.1317638749999901
                },
                {
                    "name": "A3",
                    "midi": 57,
                    "time": 373.4188217499941,
                    "velocity": 0.6377952755905512,
                    "duration": 0.1317638749999901
                },
                {
                    "name": "F4",
                    "midi": 65,
                    "time": 373.5505856249941,
                    "velocity": 0.6220472440944882,
                    "duration": 0.1317638749999901
                },
                {
                    "name": "C4",
                    "midi": 60,
                    "time": 373.6823494999941,
                    "velocity": 0.6692913385826772,
                    "duration": 0.1317638749999901
                },
                {
                    "name": "F4",
                    "midi": 65,
                    "time": 373.81411337499406,
                    "velocity": 0.6535433070866141,
                    "duration": 0.1317638749999901
                },
                {
                    "name": "D#4",
                    "midi": 63,
                    "time": 373.94587724999406,
                    "velocity": 0.7086614173228346,
                    "duration": 0.1317638749999901
                },
                {
                    "name": "F4",
                    "midi": 65,
                    "time": 374.07764112499405,
                    "velocity": 0.6929133858267716,
                    "duration": 0.1317638749999901
                },
                {
                    "name": "D4",
                    "midi": 62,
                    "time": 374.20940499999404,
                    "velocity": 0.7401574803149606,
                    "duration": 0.1317638749999901
                },
                {
                    "name": "F4",
                    "midi": 65,
                    "time": 374.341168874994,
                    "velocity": 0.6692913385826772,
                    "duration": 0.1317638749999901
                },
                {
                    "name": "C4",
                    "midi": 60,
                    "time": 374.472932749994,
                    "velocity": 0.7244094488188977,
                    "duration": 0.1317638749999901
                },
                {
                    "name": "F#4",
                    "midi": 66,
                    "time": 374.604696624994,
                    "velocity": 0.6692913385826772,
                    "duration": 0.1317638749999901
                },
                {
                    "name": "B3",
                    "midi": 59,
                    "time": 374.736460499994,
                    "velocity": 0.7244094488188977,
                    "duration": 0.1317638749999901
                },
                {
                    "name": "G4",
                    "midi": 67,
                    "time": 374.868224374994,
                    "velocity": 0.6692913385826772,
                    "duration": 0.1317638749999901
                },
                {
                    "name": "F4",
                    "midi": 65,
                    "time": 374.999988249994,
                    "velocity": 0.7244094488188977,
                    "duration": 0.1317638749999901
                },
                {
                    "name": "G4",
                    "midi": 67,
                    "time": 375.13175212499397,
                    "velocity": 0.6771653543307087,
                    "duration": 0.1317638749999901
                },
                {
                    "name": "E4",
                    "midi": 64,
                    "time": 375.26351599999396,
                    "velocity": 0.7795275590551181,
                    "duration": 0.1317638749999901
                },
                {
                    "name": "G4",
                    "midi": 67,
                    "time": 375.39527987499395,
                    "velocity": 0.6929133858267716,
                    "duration": 0.1317638749999901
                },
                {
                    "name": "D4",
                    "midi": 62,
                    "time": 375.52704374999394,
                    "velocity": 0.7322834645669292,
                    "duration": 0.1317638749999901
                },
                {
                    "name": "G#4",
                    "midi": 68,
                    "time": 375.6588076249939,
                    "velocity": 0.7007874015748031,
                    "duration": 0.1317638749999901
                },
                {
                    "name": "C#4",
                    "midi": 61,
                    "time": 375.7905714999939,
                    "velocity": 0.7401574803149606,
                    "duration": 0.1317638749999901
                },
                {
                    "name": "A4",
                    "midi": 69,
                    "time": 375.9223353749939,
                    "velocity": 0.7007874015748031,
                    "duration": 0.1317638749999901
                },
                {
                    "name": "G4",
                    "midi": 67,
                    "time": 376.0540992499939,
                    "velocity": 0.7401574803149606,
                    "duration": 0.1317638749999901
                },
                {
                    "name": "A4",
                    "midi": 69,
                    "time": 376.1858631249939,
                    "velocity": 0.7165354330708661,
                    "duration": 0.1317638749999901
                },
                {
                    "name": "F#4",
                    "midi": 66,
                    "time": 376.3176269999939,
                    "velocity": 0.8031496062992126,
                    "duration": 0.1317638749999901
                },
                {
                    "name": "A4",
                    "midi": 69,
                    "time": 376.44939087499387,
                    "velocity": 0.7165354330708661,
                    "duration": 0.1317638749999901
                },
                {
                    "name": "E4",
                    "midi": 64,
                    "time": 376.58115474999386,
                    "velocity": 0.7559055118110236,
                    "duration": 0.1317638749999901
                },
                {
                    "name": "A#4",
                    "midi": 70,
                    "time": 376.71291862499385,
                    "velocity": 0.7244094488188977,
                    "duration": 0.1317638749999901
                },
                {
                    "name": "D#4",
                    "midi": 63,
                    "time": 376.84468249999384,
                    "velocity": 0.7637795275590551,
                    "duration": 0.1317638749999901
                },
                {
                    "name": "B4",
                    "midi": 71,
                    "time": 376.9764463749938,
                    "velocity": 0.7322834645669292,
                    "duration": 0.1317638749999901
                },
                {
                    "name": "A4",
                    "midi": 69,
                    "time": 377.1082102499938,
                    "velocity": 0.7795275590551181,
                    "duration": 0.1317638749999901
                },
                {
                    "name": "B4",
                    "midi": 71,
                    "time": 377.2399741249938,
                    "velocity": 0.7322834645669292,
                    "duration": 0.1317638749999901
                },
                {
                    "name": "G#4",
                    "midi": 68,
                    "time": 377.3717379999938,
                    "velocity": 0.8188976377952756,
                    "duration": 0.1317638749999901
                },
                {
                    "name": "B4",
                    "midi": 71,
                    "time": 377.5035018749938,
                    "velocity": 0.7322834645669292,
                    "duration": 0.1317638749999901
                },
                {
                    "name": "F#4",
                    "midi": 66,
                    "time": 377.6352657499938,
                    "velocity": 0.7874015748031497,
                    "duration": 0.1317638749999901
                },
                {
                    "name": "C5",
                    "midi": 72,
                    "time": 377.76702962499377,
                    "velocity": 0.7322834645669292,
                    "duration": 0.1317638749999901
                },
                {
                    "name": "F4",
                    "midi": 65,
                    "time": 377.89879349999376,
                    "velocity": 0.8031496062992126,
                    "duration": 0.1317638749999901
                },
                {
                    "name": "C#5",
                    "midi": 73,
                    "time": 378.03055737499375,
                    "velocity": 0.7480314960629921,
                    "duration": 0.1317638749999901
                },
                {
                    "name": "B4",
                    "midi": 71,
                    "time": 378.16232124999374,
                    "velocity": 0.8031496062992126,
                    "duration": 0.1317638749999901
                },
                {
                    "name": "C#5",
                    "midi": 73,
                    "time": 378.2940851249937,
                    "velocity": 0.7480314960629921,
                    "duration": 0.1317638749999901
                },
                {
                    "name": "B4",
                    "midi": 71,
                    "time": 378.4258489999937,
                    "velocity": 0.7874015748031497,
                    "duration": 0.1317638749999901
                },
                {
                    "name": "C#5",
                    "midi": 73,
                    "time": 378.5576128749937,
                    "velocity": 0.7480314960629921,
                    "duration": 0.1317638749999901
                },
                {
                    "name": "B4",
                    "midi": 71,
                    "time": 378.6893767499937,
                    "velocity": 0.7559055118110236,
                    "duration": 0.1317638749999901
                },
                {
                    "name": "C#5",
                    "midi": 73,
                    "time": 378.8211406249937,
                    "velocity": 0.7637795275590551,
                    "duration": 0.1317638749999901
                },
                {
                    "name": "B4",
                    "midi": 71,
                    "time": 378.9529044999937,
                    "velocity": 0.7637795275590551,
                    "duration": 0.1317638749999901
                },
                {
                    "name": "C#5",
                    "midi": 73,
                    "time": 379.08466837499367,
                    "velocity": 0.7480314960629921,
                    "duration": 0.1317638749999901
                },
                {
                    "name": "B4",
                    "midi": 71,
                    "time": 379.21643224999366,
                    "velocity": 0.7165354330708661,
                    "duration": 0.1317638749999901
                },
                {
                    "name": "C#5",
                    "midi": 73,
                    "time": 379.34819612499365,
                    "velocity": 0.7007874015748031,
                    "duration": 0.1317638749999901
                },
                {
                    "name": "B4",
                    "midi": 71,
                    "time": 379.47995999999364,
                    "velocity": 0.7874015748031497,
                    "duration": 0.1317638749999901
                },
                {
                    "name": "C#5",
                    "midi": 73,
                    "time": 379.61172387499363,
                    "velocity": 0.7086614173228346,
                    "duration": 0.1317638749999901
                },
                {
                    "name": "G#4",
                    "midi": 68,
                    "time": 379.7434877499936,
                    "velocity": 0.7559055118110236,
                    "duration": 0.1317638749999901
                },
                {
                    "name": "C#5",
                    "midi": 73,
                    "time": 379.8752516249936,
                    "velocity": 0.7165354330708661,
                    "duration": 0.1317638749999901
                },
                {
                    "name": "F#4",
                    "midi": 66,
                    "time": 380.0070154999936,
                    "velocity": 0.7637795275590551,
                    "duration": 0.1317638749999901
                },
                {
                    "name": "C#5",
                    "midi": 73,
                    "time": 380.1387793749936,
                    "velocity": 0.7322834645669292,
                    "duration": 0.1317638749999901
                },
                {
                    "name": "F4",
                    "midi": 65,
                    "time": 380.2705432499936,
                    "velocity": 0.7795275590551181,
                    "duration": 0.1317638749999901
                },
                {
                    "name": "C#5",
                    "midi": 73,
                    "time": 380.40230712499357,
                    "velocity": 0.7401574803149606,
                    "duration": 0.1317638749999901
                },
                {
                    "name": "B4",
                    "midi": 71,
                    "time": 380.53407099999356,
                    "velocity": 0.8267716535433071,
                    "duration": 0.1317638749999901
                },
                {
                    "name": "D5",
                    "midi": 74,
                    "time": 380.66583487499355,
                    "velocity": 0.7480314960629921,
                    "duration": 0.1317638749999901
                },
                {
                    "name": "G#4",
                    "midi": 68,
                    "time": 380.79759874999354,
                    "velocity": 0.8031496062992126,
                    "duration": 0.1317638749999901
                },
                {
                    "name": "D5",
                    "midi": 74,
                    "time": 380.92936262499353,
                    "velocity": 0.7559055118110236,
                    "duration": 0.1317638749999901
                },
                {
                    "name": "F#4",
                    "midi": 66,
                    "time": 381.0611264999935,
                    "velocity": 0.8110236220472441,
                    "duration": 0.1317638749999901
                },
                {
                    "name": "D5",
                    "midi": 74,
                    "time": 381.1928903749935,
                    "velocity": 0.7795275590551181,
                    "duration": 0.1317638749999901
                },
                {
                    "name": "F4",
                    "midi": 65,
                    "time": 381.3246542499935,
                    "velocity": 0.8188976377952756,
                    "duration": 0.1317638749999901
                },
                {
                    "name": "D5",
                    "midi": 74,
                    "time": 381.4564181249935,
                    "velocity": 0.7874015748031497,
                    "duration": 0.1317638749999901
                },
                {
                    "name": "F5",
                    "midi": 77,
                    "time": 381.5881819999935,
                    "velocity": 0.7322834645669292,
                    "duration": 0.3952916250000271
                },
                {
                    "name": "D6",
                    "midi": 86,
                    "time": 381.5881819999935,
                    "velocity": 0.8740157480314961,
                    "duration": 0.3952916250000271
                },
                {
                    "name": "B5",
                    "midi": 83,
                    "time": 381.5881819999935,
                    "velocity": 0.7322834645669292,
                    "duration": 0.3952916250000271
                },
                {
                    "name": "G#5",
                    "midi": 80,
                    "time": 381.5881819999935,
                    "velocity": 0.7322834645669292,
                    "duration": 0.3952916250000271
                },
                {
                    "name": "B5",
                    "midi": 83,
                    "time": 381.9834736249935,
                    "velocity": 0.7795275590551181,
                    "duration": 0.12517568125002754
                },
                {
                    "name": "G#5",
                    "midi": 80,
                    "time": 381.9834736249935,
                    "velocity": 0.6614173228346457,
                    "duration": 0.12517568125002754
                },
                {
                    "name": "D5",
                    "midi": 74,
                    "time": 381.9834736249935,
                    "velocity": 0.6614173228346457,
                    "duration": 0.12517568125002754
                },
                {
                    "name": "F5",
                    "midi": 77,
                    "time": 381.9834736249935,
                    "velocity": 0.6614173228346457,
                    "duration": 0.12517568125002754
                },
                {
                    "name": "D5",
                    "midi": 74,
                    "time": 382.11523749999355,
                    "velocity": 0.7165354330708661,
                    "duration": 0.3952916250000271
                },
                {
                    "name": "F5",
                    "midi": 77,
                    "time": 382.11523749999355,
                    "velocity": 0.7165354330708661,
                    "duration": 0.3952916250000271
                },
                {
                    "name": "G#5",
                    "midi": 80,
                    "time": 382.11523749999355,
                    "velocity": 0.7165354330708661,
                    "duration": 0.3952916250000271
                },
                {
                    "name": "B5",
                    "midi": 83,
                    "time": 382.11523749999355,
                    "velocity": 0.84251968503937,
                    "duration": 0.3952916250000271
                },
                {
                    "name": "B4",
                    "midi": 71,
                    "time": 382.5105291249936,
                    "velocity": 0.6614173228346457,
                    "duration": 0.12517568125002754
                },
                {
                    "name": "D5",
                    "midi": 74,
                    "time": 382.5105291249936,
                    "velocity": 0.6614173228346457,
                    "duration": 0.12517568125002754
                },
                {
                    "name": "F5",
                    "midi": 77,
                    "time": 382.5105291249936,
                    "velocity": 0.6614173228346457,
                    "duration": 0.12517568125002754
                },
                {
                    "name": "G#5",
                    "midi": 80,
                    "time": 382.5105291249936,
                    "velocity": 0.7795275590551181,
                    "duration": 0.12517568125002754
                },
                {
                    "name": "B4",
                    "midi": 71,
                    "time": 382.64229299999363,
                    "velocity": 0.7165354330708661,
                    "duration": 0.3952916250000271
                },
                {
                    "name": "D5",
                    "midi": 74,
                    "time": 382.64229299999363,
                    "velocity": 0.7165354330708661,
                    "duration": 0.3952916250000271
                },
                {
                    "name": "F5",
                    "midi": 77,
                    "time": 382.64229299999363,
                    "velocity": 0.7165354330708661,
                    "duration": 0.3952916250000271
                },
                {
                    "name": "G#5",
                    "midi": 80,
                    "time": 382.64229299999363,
                    "velocity": 0.84251968503937,
                    "duration": 0.3952916250000271
                },
                {
                    "name": "G#4",
                    "midi": 68,
                    "time": 383.03758462499366,
                    "velocity": 0.6299212598425197,
                    "duration": 0.12517568125002754
                },
                {
                    "name": "B4",
                    "midi": 71,
                    "time": 383.03758462499366,
                    "velocity": 0.6299212598425197,
                    "duration": 0.12517568125002754
                },
                {
                    "name": "D5",
                    "midi": 74,
                    "time": 383.03758462499366,
                    "velocity": 0.6299212598425197,
                    "duration": 0.12517568125002754
                },
                {
                    "name": "F5",
                    "midi": 77,
                    "time": 383.03758462499366,
                    "velocity": 0.7480314960629921,
                    "duration": 0.12517568125002754
                },
                {
                    "name": "G#4",
                    "midi": 68,
                    "time": 383.1693484999937,
                    "velocity": 0.6929133858267716,
                    "duration": 0.1317638749999901
                },
                {
                    "name": "B4",
                    "midi": 71,
                    "time": 383.1693484999937,
                    "velocity": 0.6929133858267716,
                    "duration": 0.1317638749999901
                },
                {
                    "name": "D5",
                    "midi": 74,
                    "time": 383.1693484999937,
                    "velocity": 0.6929133858267716,
                    "duration": 0.1317638749999901
                },
                {
                    "name": "F5",
                    "midi": 77,
                    "time": 383.1693484999937,
                    "velocity": 0.8188976377952756,
                    "duration": 0.1317638749999901
                },
                {
                    "name": "F4",
                    "midi": 65,
                    "time": 383.4328762499937,
                    "velocity": 0.6299212598425197,
                    "duration": 0.1317638749999901
                },
                {
                    "name": "G#4",
                    "midi": 68,
                    "time": 383.4328762499937,
                    "velocity": 0.6299212598425197,
                    "duration": 0.1317638749999901
                },
                {
                    "name": "B4",
                    "midi": 71,
                    "time": 383.4328762499937,
                    "velocity": 0.6299212598425197,
                    "duration": 0.1317638749999901
                },
                {
                    "name": "D5",
                    "midi": 74,
                    "time": 383.4328762499937,
                    "velocity": 0.7480314960629921,
                    "duration": 0.1317638749999901
                },
                {
                    "name": "B4",
                    "midi": 71,
                    "time": 383.69640399999366,
                    "velocity": 0.7874015748031497,
                    "duration": 0.1317638749999901
                },
                {
                    "name": "C#5",
                    "midi": 73,
                    "time": 383.82816787499365,
                    "velocity": 0.7086614173228346,
                    "duration": 0.1317638749999901
                },
                {
                    "name": "G#4",
                    "midi": 68,
                    "time": 383.95993174999364,
                    "velocity": 0.7559055118110236,
                    "duration": 0.1317638749999901
                },
                {
                    "name": "C#5",
                    "midi": 73,
                    "time": 384.09169562499363,
                    "velocity": 0.7165354330708661,
                    "duration": 0.1317638749999901
                },
                {
                    "name": "F#4",
                    "midi": 66,
                    "time": 384.2234594999936,
                    "velocity": 0.7637795275590551,
                    "duration": 0.1317638749999901
                },
                {
                    "name": "C#5",
                    "midi": 73,
                    "time": 384.3552233749936,
                    "velocity": 0.7322834645669292,
                    "duration": 0.1317638749999901
                },
                {
                    "name": "F4",
                    "midi": 65,
                    "time": 384.4869872499936,
                    "velocity": 0.7795275590551181,
                    "duration": 0.1317638749999901
                },
                {
                    "name": "C#5",
                    "midi": 73,
                    "time": 384.6187511249936,
                    "velocity": 0.7401574803149606,
                    "duration": 0.1317638749999901
                },
                {
                    "name": "B4",
                    "midi": 71,
                    "time": 384.7505149999936,
                    "velocity": 0.8267716535433071,
                    "duration": 0.1317638749999901
                },
                {
                    "name": "D5",
                    "midi": 74,
                    "time": 384.8822788749936,
                    "velocity": 0.7480314960629921,
                    "duration": 0.1317638749999901
                },
                {
                    "name": "G#4",
                    "midi": 68,
                    "time": 385.01404274999356,
                    "velocity": 0.8031496062992126,
                    "duration": 0.1317638749999901
                },
                {
                    "name": "D5",
                    "midi": 74,
                    "time": 385.14580662499355,
                    "velocity": 0.7559055118110236,
                    "duration": 0.1317638749999901
                },
                {
                    "name": "F#4",
                    "midi": 66,
                    "time": 385.27757049999354,
                    "velocity": 0.8110236220472441,
                    "duration": 0.1317638749999901
                },
                {
                    "name": "D5",
                    "midi": 74,
                    "time": 385.40933437499353,
                    "velocity": 0.7795275590551181,
                    "duration": 0.1317638749999901
                },
                {
                    "name": "F4",
                    "midi": 65,
                    "time": 385.5410982499935,
                    "velocity": 0.8188976377952756,
                    "duration": 0.1317638749999901
                },
                {
                    "name": "D5",
                    "midi": 74,
                    "time": 385.6728621249935,
                    "velocity": 0.7874015748031497,
                    "duration": 0.1317638749999901
                },
                {
                    "name": "F5",
                    "midi": 77,
                    "time": 385.8046259999935,
                    "velocity": 0.7322834645669292,
                    "duration": 0.3952916250000271
                },
                {
                    "name": "D6",
                    "midi": 86,
                    "time": 385.8046259999935,
                    "velocity": 0.8740157480314961,
                    "duration": 0.3952916250000271
                },
                {
                    "name": "B5",
                    "midi": 83,
                    "time": 385.8046259999935,
                    "velocity": 0.7322834645669292,
                    "duration": 0.3952916250000271
                },
                {
                    "name": "G#5",
                    "midi": 80,
                    "time": 385.8046259999935,
                    "velocity": 0.7322834645669292,
                    "duration": 0.3952916250000271
                },
                {
                    "name": "B5",
                    "midi": 83,
                    "time": 386.19991762499353,
                    "velocity": 0.7795275590551181,
                    "duration": 0.12517568125002754
                },
                {
                    "name": "G#5",
                    "midi": 80,
                    "time": 386.19991762499353,
                    "velocity": 0.6614173228346457,
                    "duration": 0.12517568125002754
                },
                {
                    "name": "D5",
                    "midi": 74,
                    "time": 386.19991762499353,
                    "velocity": 0.6614173228346457,
                    "duration": 0.12517568125002754
                },
                {
                    "name": "F5",
                    "midi": 77,
                    "time": 386.19991762499353,
                    "velocity": 0.6614173228346457,
                    "duration": 0.12517568125002754
                },
                {
                    "name": "D5",
                    "midi": 74,
                    "time": 386.3316814999936,
                    "velocity": 0.7165354330708661,
                    "duration": 0.3952916250000271
                },
                {
                    "name": "F5",
                    "midi": 77,
                    "time": 386.3316814999936,
                    "velocity": 0.7165354330708661,
                    "duration": 0.3952916250000271
                },
                {
                    "name": "G#5",
                    "midi": 80,
                    "time": 386.3316814999936,
                    "velocity": 0.7165354330708661,
                    "duration": 0.3952916250000271
                },
                {
                    "name": "B5",
                    "midi": 83,
                    "time": 386.3316814999936,
                    "velocity": 0.84251968503937,
                    "duration": 0.3952916250000271
                },
                {
                    "name": "B4",
                    "midi": 71,
                    "time": 386.7269731249936,
                    "velocity": 0.6614173228346457,
                    "duration": 0.12517568125002754
                },
                {
                    "name": "D5",
                    "midi": 74,
                    "time": 386.7269731249936,
                    "velocity": 0.6614173228346457,
                    "duration": 0.12517568125002754
                },
                {
                    "name": "F5",
                    "midi": 77,
                    "time": 386.7269731249936,
                    "velocity": 0.6614173228346457,
                    "duration": 0.12517568125002754
                },
                {
                    "name": "G#5",
                    "midi": 80,
                    "time": 386.7269731249936,
                    "velocity": 0.7795275590551181,
                    "duration": 0.12517568125002754
                },
                {
                    "name": "B4",
                    "midi": 71,
                    "time": 386.85873699999365,
                    "velocity": 0.7165354330708661,
                    "duration": 0.3952916250000271
                },
                {
                    "name": "D5",
                    "midi": 74,
                    "time": 386.85873699999365,
                    "velocity": 0.7165354330708661,
                    "duration": 0.3952916250000271
                },
                {
                    "name": "F5",
                    "midi": 77,
                    "time": 386.85873699999365,
                    "velocity": 0.7165354330708661,
                    "duration": 0.3952916250000271
                },
                {
                    "name": "G#5",
                    "midi": 80,
                    "time": 386.85873699999365,
                    "velocity": 0.84251968503937,
                    "duration": 0.3952916250000271
                },
                {
                    "name": "G#4",
                    "midi": 68,
                    "time": 387.2540286249937,
                    "velocity": 0.6299212598425197,
                    "duration": 0.12517568125002754
                },
                {
                    "name": "B4",
                    "midi": 71,
                    "time": 387.2540286249937,
                    "velocity": 0.6299212598425197,
                    "duration": 0.12517568125002754
                },
                {
                    "name": "D5",
                    "midi": 74,
                    "time": 387.2540286249937,
                    "velocity": 0.6299212598425197,
                    "duration": 0.12517568125002754
                },
                {
                    "name": "F5",
                    "midi": 77,
                    "time": 387.2540286249937,
                    "velocity": 0.7480314960629921,
                    "duration": 0.12517568125002754
                },
                {
                    "name": "G#4",
                    "midi": 68,
                    "time": 387.3857924999937,
                    "velocity": 0.6929133858267716,
                    "duration": 0.1317638749999901
                },
                {
                    "name": "B4",
                    "midi": 71,
                    "time": 387.3857924999937,
                    "velocity": 0.6929133858267716,
                    "duration": 0.1317638749999901
                },
                {
                    "name": "D5",
                    "midi": 74,
                    "time": 387.3857924999937,
                    "velocity": 0.6929133858267716,
                    "duration": 0.1317638749999901
                },
                {
                    "name": "F5",
                    "midi": 77,
                    "time": 387.3857924999937,
                    "velocity": 0.8188976377952756,
                    "duration": 0.1317638749999901
                },
                {
                    "name": "F4",
                    "midi": 65,
                    "time": 387.6493202499937,
                    "velocity": 0.6299212598425197,
                    "duration": 0.1317638749999901
                },
                {
                    "name": "G#4",
                    "midi": 68,
                    "time": 387.6493202499937,
                    "velocity": 0.6299212598425197,
                    "duration": 0.1317638749999901
                },
                {
                    "name": "B4",
                    "midi": 71,
                    "time": 387.6493202499937,
                    "velocity": 0.6299212598425197,
                    "duration": 0.1317638749999901
                },
                {
                    "name": "D5",
                    "midi": 74,
                    "time": 387.6493202499937,
                    "velocity": 0.7480314960629921,
                    "duration": 0.1317638749999901
                },
                {
                    "name": "F#5",
                    "midi": 78,
                    "time": 387.9128479999937,
                    "velocity": 0.7322834645669292,
                    "duration": 0.3952916250000271
                },
                {
                    "name": "F#6",
                    "midi": 90,
                    "time": 387.9128479999937,
                    "velocity": 0.8740157480314961,
                    "duration": 0.3952916250000271
                },
                {
                    "name": "D#6",
                    "midi": 87,
                    "time": 387.9128479999937,
                    "velocity": 0.7322834645669292,
                    "duration": 0.3952916250000271
                },
                {
                    "name": "A5",
                    "midi": 81,
                    "time": 387.9128479999937,
                    "velocity": 0.7322834645669292,
                    "duration": 0.3952916250000271
                },
                {
                    "name": "D#6",
                    "midi": 87,
                    "time": 388.3081396249937,
                    "velocity": 0.7795275590551181,
                    "duration": 0.12517568125002754
                },
                {
                    "name": "B5",
                    "midi": 83,
                    "time": 388.3081396249937,
                    "velocity": 0.6614173228346457,
                    "duration": 0.12517568125002754
                },
                {
                    "name": "D#5",
                    "midi": 75,
                    "time": 388.3081396249937,
                    "velocity": 0.6614173228346457,
                    "duration": 0.12517568125002754
                },
                {
                    "name": "F#5",
                    "midi": 78,
                    "time": 388.3081396249937,
                    "velocity": 0.6614173228346457,
                    "duration": 0.12517568125002754
                },
                {
                    "name": "D#5",
                    "midi": 75,
                    "time": 388.43990349999376,
                    "velocity": 0.7165354330708661,
                    "duration": 0.3952916250000271
                },
                {
                    "name": "F#5",
                    "midi": 78,
                    "time": 388.43990349999376,
                    "velocity": 0.7165354330708661,
                    "duration": 0.3952916250000271
                },
                {
                    "name": "B5",
                    "midi": 83,
                    "time": 388.43990349999376,
                    "velocity": 0.7165354330708661,
                    "duration": 0.3952916250000271
                },
                {
                    "name": "D#6",
                    "midi": 87,
                    "time": 388.43990349999376,
                    "velocity": 0.84251968503937,
                    "duration": 0.3952916250000271
                },
                {
                    "name": "A4",
                    "midi": 69,
                    "time": 388.8351951249938,
                    "velocity": 0.6614173228346457,
                    "duration": 0.12517568125002754
                },
                {
                    "name": "D#5",
                    "midi": 75,
                    "time": 388.8351951249938,
                    "velocity": 0.6614173228346457,
                    "duration": 0.12517568125002754
                },
                {
                    "name": "F#5",
                    "midi": 78,
                    "time": 388.8351951249938,
                    "velocity": 0.6614173228346457,
                    "duration": 0.12517568125002754
                },
                {
                    "name": "A5",
                    "midi": 81,
                    "time": 388.8351951249938,
                    "velocity": 0.7795275590551181,
                    "duration": 0.12517568125002754
                },
                {
                    "name": "A4",
                    "midi": 69,
                    "time": 388.96695899999384,
                    "velocity": 0.7165354330708661,
                    "duration": 0.3952916250000271
                },
                {
                    "name": "D#5",
                    "midi": 75,
                    "time": 388.96695899999384,
                    "velocity": 0.7165354330708661,
                    "duration": 0.3952916250000271
                },
                {
                    "name": "F#5",
                    "midi": 78,
                    "time": 388.96695899999384,
                    "velocity": 0.7165354330708661,
                    "duration": 0.3952916250000271
                },
                {
                    "name": "A5",
                    "midi": 81,
                    "time": 388.96695899999384,
                    "velocity": 0.84251968503937,
                    "duration": 0.3952916250000271
                },
                {
                    "name": "F#4",
                    "midi": 66,
                    "time": 389.36225062499386,
                    "velocity": 0.6299212598425197,
                    "duration": 0.12517568125002754
                },
                {
                    "name": "A4",
                    "midi": 69,
                    "time": 389.36225062499386,
                    "velocity": 0.6299212598425197,
                    "duration": 0.12517568125002754
                },
                {
                    "name": "D#5",
                    "midi": 75,
                    "time": 389.36225062499386,
                    "velocity": 0.6299212598425197,
                    "duration": 0.12517568125002754
                },
                {
                    "name": "F#5",
                    "midi": 78,
                    "time": 389.36225062499386,
                    "velocity": 0.7480314960629921,
                    "duration": 0.12517568125002754
                },
                {
                    "name": "F#4",
                    "midi": 66,
                    "time": 389.4940144999939,
                    "velocity": 0.6929133858267716,
                    "duration": 0.1317638749999901
                },
                {
                    "name": "A4",
                    "midi": 69,
                    "time": 389.4940144999939,
                    "velocity": 0.6929133858267716,
                    "duration": 0.1317638749999901
                },
                {
                    "name": "D#5",
                    "midi": 75,
                    "time": 389.4940144999939,
                    "velocity": 0.6929133858267716,
                    "duration": 0.1317638749999901
                },
                {
                    "name": "F#5",
                    "midi": 78,
                    "time": 389.4940144999939,
                    "velocity": 0.8188976377952756,
                    "duration": 0.1317638749999901
                },
                {
                    "name": "D#4",
                    "midi": 63,
                    "time": 389.7575422499939,
                    "velocity": 0.6299212598425197,
                    "duration": 0.1317638749999901
                },
                {
                    "name": "F#4",
                    "midi": 66,
                    "time": 389.7575422499939,
                    "velocity": 0.6299212598425197,
                    "duration": 0.1317638749999901
                },
                {
                    "name": "A4",
                    "midi": 69,
                    "time": 389.7575422499939,
                    "velocity": 0.6299212598425197,
                    "duration": 0.1317638749999901
                },
                {
                    "name": "D#5",
                    "midi": 75,
                    "time": 389.7575422499939,
                    "velocity": 0.7480314960629921,
                    "duration": 0.1317638749999901
                },
                {
                    "name": "F#5",
                    "midi": 78,
                    "time": 390.02106999999387,
                    "velocity": 0.7322834645669292,
                    "duration": 0.3952916250000271
                },
                {
                    "name": "F#6",
                    "midi": 90,
                    "time": 390.02106999999387,
                    "velocity": 0.8740157480314961,
                    "duration": 0.3952916250000271
                },
                {
                    "name": "C#6",
                    "midi": 85,
                    "time": 390.02106999999387,
                    "velocity": 0.7322834645669292,
                    "duration": 0.3952916250000271
                },
                {
                    "name": "A5",
                    "midi": 81,
                    "time": 390.02106999999387,
                    "velocity": 0.7322834645669292,
                    "duration": 0.3952916250000271
                },
                {
                    "name": "D#6",
                    "midi": 87,
                    "time": 390.4163616249939,
                    "velocity": 0.7795275590551181,
                    "duration": 0.12517568125002754
                },
                {
                    "name": "A5",
                    "midi": 81,
                    "time": 390.4163616249939,
                    "velocity": 0.6614173228346457,
                    "duration": 0.12517568125002754
                },
                {
                    "name": "D#5",
                    "midi": 75,
                    "time": 390.4163616249939,
                    "velocity": 0.6614173228346457,
                    "duration": 0.12517568125002754
                },
                {
                    "name": "F#5",
                    "midi": 78,
                    "time": 390.4163616249939,
                    "velocity": 0.6614173228346457,
                    "duration": 0.12517568125002754
                },
                {
                    "name": "D#5",
                    "midi": 75,
                    "time": 390.54812549999394,
                    "velocity": 0.7165354330708661,
                    "duration": 0.3952916250000271
                },
                {
                    "name": "F#5",
                    "midi": 78,
                    "time": 390.54812549999394,
                    "velocity": 0.7165354330708661,
                    "duration": 0.3952916250000271
                },
                {
                    "name": "A5",
                    "midi": 81,
                    "time": 390.54812549999394,
                    "velocity": 0.7165354330708661,
                    "duration": 0.3952916250000271
                },
                {
                    "name": "D#6",
                    "midi": 87,
                    "time": 390.54812549999394,
                    "velocity": 0.84251968503937,
                    "duration": 0.3952916250000271
                },
                {
                    "name": "A4",
                    "midi": 69,
                    "time": 390.94341712499397,
                    "velocity": 0.6614173228346457,
                    "duration": 0.12517568125002754
                },
                {
                    "name": "C#5",
                    "midi": 73,
                    "time": 390.94341712499397,
                    "velocity": 0.6614173228346457,
                    "duration": 0.12517568125002754
                },
                {
                    "name": "F#5",
                    "midi": 78,
                    "time": 390.94341712499397,
                    "velocity": 0.6614173228346457,
                    "duration": 0.12517568125002754
                },
                {
                    "name": "A5",
                    "midi": 81,
                    "time": 390.94341712499397,
                    "velocity": 0.7795275590551181,
                    "duration": 0.12517568125002754
                },
                {
                    "name": "A4",
                    "midi": 69,
                    "time": 391.075180999994,
                    "velocity": 0.7165354330708661,
                    "duration": 0.3952916250000271
                },
                {
                    "name": "C#5",
                    "midi": 73,
                    "time": 391.075180999994,
                    "velocity": 0.7165354330708661,
                    "duration": 0.3952916250000271
                },
                {
                    "name": "F#5",
                    "midi": 78,
                    "time": 391.075180999994,
                    "velocity": 0.7165354330708661,
                    "duration": 0.3952916250000271
                },
                {
                    "name": "A5",
                    "midi": 81,
                    "time": 391.075180999994,
                    "velocity": 0.84251968503937,
                    "duration": 0.3952916250000271
                },
                {
                    "name": "F#4",
                    "midi": 66,
                    "time": 391.47047262499404,
                    "velocity": 0.6299212598425197,
                    "duration": 0.12517568125002754
                },
                {
                    "name": "A4",
                    "midi": 69,
                    "time": 391.47047262499404,
                    "velocity": 0.6299212598425197,
                    "duration": 0.12517568125002754
                },
                {
                    "name": "C#5",
                    "midi": 73,
                    "time": 391.47047262499404,
                    "velocity": 0.6299212598425197,
                    "duration": 0.12517568125002754
                },
                {
                    "name": "F#5",
                    "midi": 78,
                    "time": 391.47047262499404,
                    "velocity": 0.7480314960629921,
                    "duration": 0.12517568125002754
                },
                {
                    "name": "F#4",
                    "midi": 66,
                    "time": 391.6022364999941,
                    "velocity": 0.6929133858267716,
                    "duration": 0.1317638749999901
                },
                {
                    "name": "A4",
                    "midi": 69,
                    "time": 391.6022364999941,
                    "velocity": 0.6929133858267716,
                    "duration": 0.1317638749999901
                },
                {
                    "name": "C#5",
                    "midi": 73,
                    "time": 391.6022364999941,
                    "velocity": 0.6929133858267716,
                    "duration": 0.1317638749999901
                },
                {
                    "name": "F#5",
                    "midi": 78,
                    "time": 391.6022364999941,
                    "velocity": 0.8188976377952756,
                    "duration": 0.1317638749999901
                },
                {
                    "name": "C#4",
                    "midi": 61,
                    "time": 391.8657642499941,
                    "velocity": 0.6299212598425197,
                    "duration": 0.1317638749999901
                },
                {
                    "name": "F#4",
                    "midi": 66,
                    "time": 391.8657642499941,
                    "velocity": 0.6299212598425197,
                    "duration": 0.1317638749999901
                },
                {
                    "name": "A4",
                    "midi": 69,
                    "time": 391.8657642499941,
                    "velocity": 0.6299212598425197,
                    "duration": 0.1317638749999901
                },
                {
                    "name": "C#5",
                    "midi": 73,
                    "time": 391.8657642499941,
                    "velocity": 0.7480314960629921,
                    "duration": 0.1317638749999901
                },
                {
                    "name": "F#5",
                    "midi": 78,
                    "time": 392.12929199999405,
                    "velocity": 0.7322834645669292,
                    "duration": 0.3952916250000271
                },
                {
                    "name": "F#6",
                    "midi": 90,
                    "time": 392.12929199999405,
                    "velocity": 0.8740157480314961,
                    "duration": 0.3952916250000271
                },
                {
                    "name": "D#6",
                    "midi": 87,
                    "time": 392.12929199999405,
                    "velocity": 0.7322834645669292,
                    "duration": 0.3952916250000271
                },
                {
                    "name": "A5",
                    "midi": 81,
                    "time": 392.12929199999405,
                    "velocity": 0.7322834645669292,
                    "duration": 0.3952916250000271
                },
                {
                    "name": "D#6",
                    "midi": 87,
                    "time": 392.5245836249941,
                    "velocity": 0.7795275590551181,
                    "duration": 0.12517568125002754
                },
                {
                    "name": "B5",
                    "midi": 83,
                    "time": 392.5245836249941,
                    "velocity": 0.6614173228346457,
                    "duration": 0.12517568125002754
                },
                {
                    "name": "D#5",
                    "midi": 75,
                    "time": 392.5245836249941,
                    "velocity": 0.6614173228346457,
                    "duration": 0.12517568125002754
                },
                {
                    "name": "F#5",
                    "midi": 78,
                    "time": 392.5245836249941,
                    "velocity": 0.6614173228346457,
                    "duration": 0.12517568125002754
                },
                {
                    "name": "D#5",
                    "midi": 75,
                    "time": 392.6563474999941,
                    "velocity": 0.7165354330708661,
                    "duration": 0.3952916250000271
                },
                {
                    "name": "F#5",
                    "midi": 78,
                    "time": 392.6563474999941,
                    "velocity": 0.7165354330708661,
                    "duration": 0.3952916250000271
                },
                {
                    "name": "B5",
                    "midi": 83,
                    "time": 392.6563474999941,
                    "velocity": 0.7165354330708661,
                    "duration": 0.3952916250000271
                },
                {
                    "name": "D#6",
                    "midi": 87,
                    "time": 392.6563474999941,
                    "velocity": 0.84251968503937,
                    "duration": 0.3952916250000271
                },
                {
                    "name": "A4",
                    "midi": 69,
                    "time": 393.05163912499415,
                    "velocity": 0.6614173228346457,
                    "duration": 0.12517568125002754
                },
                {
                    "name": "D#5",
                    "midi": 75,
                    "time": 393.05163912499415,
                    "velocity": 0.6614173228346457,
                    "duration": 0.12517568125002754
                },
                {
                    "name": "F#5",
                    "midi": 78,
                    "time": 393.05163912499415,
                    "velocity": 0.6614173228346457,
                    "duration": 0.12517568125002754
                },
                {
                    "name": "A5",
                    "midi": 81,
                    "time": 393.05163912499415,
                    "velocity": 0.7795275590551181,
                    "duration": 0.12517568125002754
                },
                {
                    "name": "A4",
                    "midi": 69,
                    "time": 393.1834029999942,
                    "velocity": 0.7165354330708661,
                    "duration": 0.3952916250000271
                },
                {
                    "name": "D#5",
                    "midi": 75,
                    "time": 393.1834029999942,
                    "velocity": 0.7165354330708661,
                    "duration": 0.3952916250000271
                },
                {
                    "name": "F#5",
                    "midi": 78,
                    "time": 393.1834029999942,
                    "velocity": 0.7165354330708661,
                    "duration": 0.3952916250000271
                },
                {
                    "name": "A5",
                    "midi": 81,
                    "time": 393.1834029999942,
                    "velocity": 0.84251968503937,
                    "duration": 0.3952916250000271
                },
                {
                    "name": "F#4",
                    "midi": 66,
                    "time": 393.5786946249942,
                    "velocity": 0.6299212598425197,
                    "duration": 0.12517568125002754
                },
                {
                    "name": "A4",
                    "midi": 69,
                    "time": 393.5786946249942,
                    "velocity": 0.6299212598425197,
                    "duration": 0.12517568125002754
                },
                {
                    "name": "D#5",
                    "midi": 75,
                    "time": 393.5786946249942,
                    "velocity": 0.6299212598425197,
                    "duration": 0.12517568125002754
                },
                {
                    "name": "F#5",
                    "midi": 78,
                    "time": 393.5786946249942,
                    "velocity": 0.7480314960629921,
                    "duration": 0.12517568125002754
                },
                {
                    "name": "F#4",
                    "midi": 66,
                    "time": 393.7104584999943,
                    "velocity": 0.6929133858267716,
                    "duration": 0.1317638749999901
                },
                {
                    "name": "A4",
                    "midi": 69,
                    "time": 393.7104584999943,
                    "velocity": 0.6929133858267716,
                    "duration": 0.1317638749999901
                },
                {
                    "name": "D#5",
                    "midi": 75,
                    "time": 393.7104584999943,
                    "velocity": 0.6929133858267716,
                    "duration": 0.1317638749999901
                },
                {
                    "name": "F#5",
                    "midi": 78,
                    "time": 393.7104584999943,
                    "velocity": 0.8188976377952756,
                    "duration": 0.1317638749999901
                },
                {
                    "name": "D#4",
                    "midi": 63,
                    "time": 393.97398624999425,
                    "velocity": 0.6299212598425197,
                    "duration": 0.1317638749999901
                },
                {
                    "name": "F#4",
                    "midi": 66,
                    "time": 393.97398624999425,
                    "velocity": 0.6299212598425197,
                    "duration": 0.1317638749999901
                },
                {
                    "name": "A4",
                    "midi": 69,
                    "time": 393.97398624999425,
                    "velocity": 0.6299212598425197,
                    "duration": 0.1317638749999901
                },
                {
                    "name": "D#5",
                    "midi": 75,
                    "time": 393.97398624999425,
                    "velocity": 0.7480314960629921,
                    "duration": 0.1317638749999901
                },
                {
                    "name": "G#5",
                    "midi": 80,
                    "time": 394.23751399999423,
                    "velocity": 0.7637795275590551,
                    "duration": 0.3952916250000271
                },
                {
                    "name": "G#6",
                    "midi": 92,
                    "time": 394.23751399999423,
                    "velocity": 0.9133858267716536,
                    "duration": 0.3952916250000271
                },
                {
                    "name": "F#6",
                    "midi": 90,
                    "time": 394.23751399999423,
                    "velocity": 0.7637795275590551,
                    "duration": 0.3952916250000271
                },
                {
                    "name": "D#6",
                    "midi": 87,
                    "time": 394.23751399999423,
                    "velocity": 0.7637795275590551,
                    "duration": 0.3952916250000271
                },
                {
                    "name": "F#6",
                    "midi": 90,
                    "time": 394.63280562499426,
                    "velocity": 0.8110236220472441,
                    "duration": 0.12517568125002754
                },
                {
                    "name": "D#6",
                    "midi": 87,
                    "time": 394.63280562499426,
                    "velocity": 0.6929133858267716,
                    "duration": 0.12517568125002754
                },
                {
                    "name": "F#5",
                    "midi": 78,
                    "time": 394.63280562499426,
                    "velocity": 0.6929133858267716,
                    "duration": 0.12517568125002754
                },
                {
                    "name": "G#5",
                    "midi": 80,
                    "time": 394.63280562499426,
                    "velocity": 0.6929133858267716,
                    "duration": 0.12517568125002754
                },
                {
                    "name": "F#5",
                    "midi": 78,
                    "time": 394.7645694999943,
                    "velocity": 0.7401574803149606,
                    "duration": 0.3952916250000271
                },
                {
                    "name": "G#5",
                    "midi": 80,
                    "time": 394.7645694999943,
                    "velocity": 0.7401574803149606,
                    "duration": 0.3952916250000271
                },
                {
                    "name": "D#6",
                    "midi": 87,
                    "time": 394.7645694999943,
                    "velocity": 0.7401574803149606,
                    "duration": 0.3952916250000271
                },
                {
                    "name": "F#6",
                    "midi": 90,
                    "time": 394.7645694999943,
                    "velocity": 0.8740157480314961,
                    "duration": 0.3952916250000271
                },
                {
                    "name": "D#5",
                    "midi": 75,
                    "time": 395.15986112499434,
                    "velocity": 0.6771653543307087,
                    "duration": 0.12517568125002754
                },
                {
                    "name": "F#5",
                    "midi": 78,
                    "time": 395.15986112499434,
                    "velocity": 0.6771653543307087,
                    "duration": 0.12517568125002754
                },
                {
                    "name": "G#5",
                    "midi": 80,
                    "time": 395.15986112499434,
                    "velocity": 0.6771653543307087,
                    "duration": 0.12517568125002754
                },
                {
                    "name": "D#6",
                    "midi": 87,
                    "time": 395.15986112499434,
                    "velocity": 0.7952755905511811,
                    "duration": 0.12517568125002754
                },
                {
                    "name": "D#5",
                    "midi": 75,
                    "time": 395.2916249999944,
                    "velocity": 0.7322834645669292,
                    "duration": 0.3952916250000271
                },
                {
                    "name": "F#5",
                    "midi": 78,
                    "time": 395.2916249999944,
                    "velocity": 0.7322834645669292,
                    "duration": 0.3952916250000271
                },
                {
                    "name": "G#5",
                    "midi": 80,
                    "time": 395.2916249999944,
                    "velocity": 0.7322834645669292,
                    "duration": 0.3952916250000271
                },
                {
                    "name": "D#6",
                    "midi": 87,
                    "time": 395.2916249999944,
                    "velocity": 0.8661417322834646,
                    "duration": 0.3952916250000271
                },
                {
                    "name": "G#4",
                    "midi": 68,
                    "time": 395.6869166249944,
                    "velocity": 0.6377952755905512,
                    "duration": 0.12517568125002754
                },
                {
                    "name": "D#5",
                    "midi": 75,
                    "time": 395.6869166249944,
                    "velocity": 0.6377952755905512,
                    "duration": 0.12517568125002754
                },
                {
                    "name": "F#5",
                    "midi": 78,
                    "time": 395.6869166249944,
                    "velocity": 0.6377952755905512,
                    "duration": 0.12517568125002754
                },
                {
                    "name": "G#5",
                    "midi": 80,
                    "time": 395.6869166249944,
                    "velocity": 0.7559055118110236,
                    "duration": 0.12517568125002754
                },
                {
                    "name": "G#4",
                    "midi": 68,
                    "time": 395.81868049999446,
                    "velocity": 0.7007874015748031,
                    "duration": 0.1317638749999901
                },
                {
                    "name": "D#5",
                    "midi": 75,
                    "time": 395.81868049999446,
                    "velocity": 0.7007874015748031,
                    "duration": 0.1317638749999901
                },
                {
                    "name": "F#5",
                    "midi": 78,
                    "time": 395.81868049999446,
                    "velocity": 0.7007874015748031,
                    "duration": 0.1317638749999901
                },
                {
                    "name": "G#5",
                    "midi": 80,
                    "time": 395.81868049999446,
                    "velocity": 0.8267716535433071,
                    "duration": 0.1317638749999901
                },
                {
                    "name": "F#4",
                    "midi": 66,
                    "time": 396.08220824999444,
                    "velocity": 0.6299212598425197,
                    "duration": 0.1317638749999901
                },
                {
                    "name": "G#4",
                    "midi": 68,
                    "time": 396.08220824999444,
                    "velocity": 0.6299212598425197,
                    "duration": 0.1317638749999901
                },
                {
                    "name": "D#5",
                    "midi": 75,
                    "time": 396.08220824999444,
                    "velocity": 0.6299212598425197,
                    "duration": 0.1317638749999901
                },
                {
                    "name": "F#5",
                    "midi": 78,
                    "time": 396.08220824999444,
                    "velocity": 0.7480314960629921,
                    "duration": 0.1317638749999901
                },
                {
                    "name": "F4",
                    "midi": 65,
                    "time": 396.3457359999944,
                    "velocity": 0.6377952755905512,
                    "duration": 0.2635277499999802
                },
                {
                    "name": "G#4",
                    "midi": 68,
                    "time": 396.3457359999944,
                    "velocity": 0.6377952755905512,
                    "duration": 0.2635277499999802
                },
                {
                    "name": "C#5",
                    "midi": 73,
                    "time": 396.3457359999944,
                    "velocity": 0.6377952755905512,
                    "duration": 0.2635277499999802
                },
                {
                    "name": "F5",
                    "midi": 77,
                    "time": 396.3457359999944,
                    "velocity": 0.8267716535433071,
                    "duration": 0.2635277499999802
                },
                {
                    "name": "B3",
                    "midi": 59,
                    "time": 400.5621799999944,
                    "velocity": 0.2283464566929134,
                    "duration": 0.06588193750002347
                },
                {
                    "name": "D4",
                    "midi": 62,
                    "time": 400.6280619374944,
                    "velocity": 0.1968503937007874,
                    "duration": 0.06588193750002347
                },
                {
                    "name": "B3",
                    "midi": 59,
                    "time": 400.69394387499443,
                    "velocity": 0.2283464566929134,
                    "duration": 0.06588193750002347
                },
                {
                    "name": "D4",
                    "midi": 62,
                    "time": 400.75982581249446,
                    "velocity": 0.1968503937007874,
                    "duration": 0.06588193750002347
                },
                {
                    "name": "B3",
                    "midi": 59,
                    "time": 400.8257077499945,
                    "velocity": 0.23622047244094488,
                    "duration": 0.06588193750002347
                },
                {
                    "name": "D4",
                    "midi": 62,
                    "time": 400.8915896874945,
                    "velocity": 0.1968503937007874,
                    "duration": 0.06588193750002347
                },
                {
                    "name": "B3",
                    "midi": 59,
                    "time": 400.9574716249945,
                    "velocity": 0.23622047244094488,
                    "duration": 0.06588193750002347
                },
                {
                    "name": "D4",
                    "midi": 62,
                    "time": 401.02335356249455,
                    "velocity": 0.1889763779527559,
                    "duration": 0.06588193750002347
                },
                {
                    "name": "B3",
                    "midi": 59,
                    "time": 401.0892354999946,
                    "velocity": 0.23622047244094488,
                    "duration": 0.06588193750002347
                },
                {
                    "name": "D4",
                    "midi": 62,
                    "time": 401.1551174374946,
                    "velocity": 0.2047244094488189,
                    "duration": 0.06588193750002347
                },
                {
                    "name": "B3",
                    "midi": 59,
                    "time": 401.2209993749946,
                    "velocity": 0.2440944881889764,
                    "duration": 0.06588193750002347
                },
                {
                    "name": "D4",
                    "midi": 62,
                    "time": 401.28688131249464,
                    "velocity": 0.2125984251968504,
                    "duration": 0.06588193750002347
                },
                {
                    "name": "B3",
                    "midi": 59,
                    "time": 401.35276324999467,
                    "velocity": 0.2440944881889764,
                    "duration": 0.06588193750002347
                },
                {
                    "name": "D4",
                    "midi": 62,
                    "time": 401.4186451874947,
                    "velocity": 0.2047244094488189,
                    "duration": 0.06588193750002347
                },
                {
                    "name": "B3",
                    "midi": 59,
                    "time": 401.4845271249947,
                    "velocity": 0.25984251968503935,
                    "duration": 0.06588193750002347
                },
                {
                    "name": "D4",
                    "midi": 62,
                    "time": 401.55040906249474,
                    "velocity": 0.2047244094488189,
                    "duration": 0.06588193750002347
                },
                {
                    "name": "B3",
                    "midi": 59,
                    "time": 401.61629099999476,
                    "velocity": 0.25984251968503935,
                    "duration": 0.06588193750002347
                },
                {
                    "name": "D4",
                    "midi": 62,
                    "time": 401.6821729374948,
                    "velocity": 0.2204724409448819,
                    "duration": 0.06588193750002347
                },
                {
                    "name": "B3",
                    "midi": 59,
                    "time": 401.7480548749948,
                    "velocity": 0.25984251968503935,
                    "duration": 0.06588193750002347
                },
                {
                    "name": "D4",
                    "midi": 62,
                    "time": 401.81393681249483,
                    "velocity": 0.2204724409448819,
                    "duration": 0.06588193750002347
                },
                {
                    "name": "B3",
                    "midi": 59,
                    "time": 401.87981874999485,
                    "velocity": 0.2677165354330709,
                    "duration": 0.06588193750002347
                },
                {
                    "name": "D4",
                    "midi": 62,
                    "time": 401.9457006874949,
                    "velocity": 0.2204724409448819,
                    "duration": 0.06588193750002347
                },
                {
                    "name": "B3",
                    "midi": 59,
                    "time": 402.0115826249949,
                    "velocity": 0.2677165354330709,
                    "duration": 0.06588193750002347
                },
                {
                    "name": "D4",
                    "midi": 62,
                    "time": 402.0774645624949,
                    "velocity": 0.2125984251968504,
                    "duration": 0.06588193750002347
                },
                {
                    "name": "B3",
                    "midi": 59,
                    "time": 402.14334649999495,
                    "velocity": 0.2755905511811024,
                    "duration": 0.06588193750002347
                },
                {
                    "name": "D4",
                    "midi": 62,
                    "time": 402.20922843749497,
                    "velocity": 0.2283464566929134,
                    "duration": 0.06588193750002347
                },
                {
                    "name": "B3",
                    "midi": 59,
                    "time": 402.275110374995,
                    "velocity": 0.2755905511811024,
                    "duration": 0.06588193750002347
                },
                {
                    "name": "D4",
                    "midi": 62,
                    "time": 402.340992312495,
                    "velocity": 0.23622047244094488,
                    "duration": 0.06588193750002347
                },
                {
                    "name": "B3",
                    "midi": 59,
                    "time": 402.40687424999504,
                    "velocity": 0.28346456692913385,
                    "duration": 0.06588193750002347
                },
                {
                    "name": "D4",
                    "midi": 62,
                    "time": 402.47275618749507,
                    "velocity": 0.2283464566929134,
                    "duration": 0.06588193750002347
                },
                {
                    "name": "B3",
                    "midi": 59,
                    "time": 402.5386381249951,
                    "velocity": 0.28346456692913385,
                    "duration": 0.06588193750002347
                },
                {
                    "name": "D4",
                    "midi": 62,
                    "time": 402.6045200624951,
                    "velocity": 0.2204724409448819,
                    "duration": 0.06588193750002347
                },
                {
                    "name": "B3",
                    "midi": 59,
                    "time": 402.67040199999514,
                    "velocity": 0.29133858267716534,
                    "duration": 0.06588193750002347
                },
                {
                    "name": "D4",
                    "midi": 62,
                    "time": 402.73628393749516,
                    "velocity": 0.23622047244094488,
                    "duration": 0.06588193750002347
                },
                {
                    "name": "B3",
                    "midi": 59,
                    "time": 402.8021658749952,
                    "velocity": 0.28346456692913385,
                    "duration": 0.06588193750002347
                },
                {
                    "name": "D4",
                    "midi": 62,
                    "time": 402.8680478124952,
                    "velocity": 0.23622047244094488,
                    "duration": 0.06588193750002347
                },
                {
                    "name": "B3",
                    "midi": 59,
                    "time": 402.93392974999523,
                    "velocity": 0.28346456692913385,
                    "duration": 0.06588193750002347
                },
                {
                    "name": "D4",
                    "midi": 62,
                    "time": 402.99981168749525,
                    "velocity": 0.2283464566929134,
                    "duration": 0.06588193750002347
                },
                {
                    "name": "B3",
                    "midi": 59,
                    "time": 403.0656936249953,
                    "velocity": 0.2755905511811024,
                    "duration": 0.06588193750002347
                },
                {
                    "name": "D4",
                    "midi": 62,
                    "time": 403.1315755624953,
                    "velocity": 0.2125984251968504,
                    "duration": 0.06588193750002347
                },
                {
                    "name": "B3",
                    "midi": 59,
                    "time": 403.1974574999953,
                    "velocity": 0.2755905511811024,
                    "duration": 0.06588193750002347
                },
                {
                    "name": "D4",
                    "midi": 62,
                    "time": 403.26333943749535,
                    "velocity": 0.2283464566929134,
                    "duration": 0.06588193750002347
                },
                {
                    "name": "B3",
                    "midi": 59,
                    "time": 403.32922137499537,
                    "velocity": 0.2677165354330709,
                    "duration": 0.06588193750002347
                },
                {
                    "name": "D4",
                    "midi": 62,
                    "time": 403.3951033124954,
                    "velocity": 0.2204724409448819,
                    "duration": 0.06588193750002347
                },
                {
                    "name": "B3",
                    "midi": 59,
                    "time": 403.4609852499954,
                    "velocity": 0.2677165354330709,
                    "duration": 0.06588193750002347
                },
                {
                    "name": "D4",
                    "midi": 62,
                    "time": 403.52686718749544,
                    "velocity": 0.2125984251968504,
                    "duration": 0.06588193750002347
                },
                {
                    "name": "B3",
                    "midi": 59,
                    "time": 403.59274912499546,
                    "velocity": 0.25984251968503935,
                    "duration": 0.06588193750002347
                },
                {
                    "name": "D4",
                    "midi": 62,
                    "time": 403.6586310624955,
                    "velocity": 0.2047244094488189,
                    "duration": 0.06588193750002347
                },
                {
                    "name": "B3",
                    "midi": 59,
                    "time": 403.7245129999955,
                    "velocity": 0.25984251968503935,
                    "duration": 0.06588193750002347
                },
                {
                    "name": "D4",
                    "midi": 62,
                    "time": 403.79039493749553,
                    "velocity": 0.2204724409448819,
                    "duration": 0.06588193750002347
                },
                {
                    "name": "B3",
                    "midi": 59,
                    "time": 403.85627687499556,
                    "velocity": 0.25984251968503935,
                    "duration": 0.06588193750002347
                },
                {
                    "name": "D4",
                    "midi": 62,
                    "time": 403.9221588124956,
                    "velocity": 0.2125984251968504,
                    "duration": 0.06588193750002347
                },
                {
                    "name": "B3",
                    "midi": 59,
                    "time": 403.9880407499956,
                    "velocity": 0.2440944881889764,
                    "duration": 0.06588193750002347
                },
                {
                    "name": "D4",
                    "midi": 62,
                    "time": 404.05392268749563,
                    "velocity": 0.2047244094488189,
                    "duration": 0.06588193750002347
                },
                {
                    "name": "B3",
                    "midi": 59,
                    "time": 404.11980462499565,
                    "velocity": 0.2440944881889764,
                    "duration": 0.06588193750002347
                },
                {
                    "name": "D4",
                    "midi": 62,
                    "time": 404.1856865624957,
                    "velocity": 0.1968503937007874,
                    "duration": 0.06588193750002347
                },
                {
                    "name": "B3",
                    "midi": 59,
                    "time": 404.2515684999957,
                    "velocity": 0.23622047244094488,
                    "duration": 0.06588193750002347
                },
                {
                    "name": "D4",
                    "midi": 62,
                    "time": 404.3174504374957,
                    "velocity": 0.2047244094488189,
                    "duration": 0.06588193750002347
                },
                {
                    "name": "B3",
                    "midi": 59,
                    "time": 404.38333237499575,
                    "velocity": 0.23622047244094488,
                    "duration": 0.06588193750002347
                },
                {
                    "name": "D4",
                    "midi": 62,
                    "time": 404.44921431249577,
                    "velocity": 0.2047244094488189,
                    "duration": 0.06588193750002347
                },
                {
                    "name": "B3",
                    "midi": 59,
                    "time": 404.5150962499958,
                    "velocity": 0.23622047244094488,
                    "duration": 0.06588193750002347
                },
                {
                    "name": "D4",
                    "midi": 62,
                    "time": 404.5809781874958,
                    "velocity": 0.1889763779527559,
                    "duration": 0.06588193750002347
                },
                {
                    "name": "B3",
                    "midi": 59,
                    "time": 404.64686012499584,
                    "velocity": 0.2283464566929134,
                    "duration": 0.06588193750002347
                },
                {
                    "name": "D4",
                    "midi": 62,
                    "time": 404.71274206249586,
                    "velocity": 0.1968503937007874,
                    "duration": 0.06588193750002347
                },
                {
                    "name": "G#4",
                    "midi": 68,
                    "time": 404.7786239999959,
                    "velocity": 0.25984251968503935,
                    "duration": 2.108222000000012
                },
                {
                    "name": "G#5",
                    "midi": 80,
                    "time": 404.7786239999959,
                    "velocity": 0.3858267716535433,
                    "duration": 2.108222000000012
                },
                {
                    "name": "G#4",
                    "midi": 68,
                    "time": 406.8868459999959,
                    "velocity": 0.2440944881889764,
                    "duration": 1.0431306770833544
                },
                {
                    "name": "G#5",
                    "midi": 80,
                    "time": 406.8868459999959,
                    "velocity": 0.3464566929133858,
                    "duration": 1.0431306770833544
                },
                {
                    "name": "G#4",
                    "midi": 68,
                    "time": 407.94095699999593,
                    "velocity": 0.25984251968503935,
                    "duration": 1.0541109999999776
                },
                {
                    "name": "G#5",
                    "midi": 80,
                    "time": 407.94095699999593,
                    "velocity": 0.3464566929133858,
                    "duration": 1.0541109999999776
                },
                {
                    "name": "G#4",
                    "midi": 68,
                    "time": 408.9950679999959,
                    "velocity": 0.30708661417322836,
                    "duration": 1.844694249999975
                },
                {
                    "name": "G#5",
                    "midi": 80,
                    "time": 408.9950679999959,
                    "velocity": 0.3937007874015748,
                    "duration": 1.844694249999975
                },
                {
                    "name": "A4",
                    "midi": 69,
                    "time": 410.8397622499959,
                    "velocity": 0.31496062992125984,
                    "duration": 0.2635277499999802
                },
                {
                    "name": "A5",
                    "midi": 81,
                    "time": 410.8397622499959,
                    "velocity": 0.3543307086614173,
                    "duration": 0.2635277499999802
                },
                {
                    "name": "G#5",
                    "midi": 80,
                    "time": 411.10328999999587,
                    "velocity": 0.3543307086614173,
                    "duration": 2.108222000000012
                },
                {
                    "name": "G#4",
                    "midi": 68,
                    "time": 411.10328999999587,
                    "velocity": 0.31496062992125984,
                    "duration": 2.108222000000012
                },
                {
                    "name": "F4",
                    "midi": 65,
                    "time": 413.2115119999959,
                    "velocity": 0.25984251968503935,
                    "duration": 2.108222000000012
                },
                {
                    "name": "F5",
                    "midi": 77,
                    "time": 413.2115119999959,
                    "velocity": 0.3464566929133858,
                    "duration": 2.108222000000012
                },
                {
                    "name": "G#4",
                    "midi": 68,
                    "time": 415.3197339999959,
                    "velocity": 0.2440944881889764,
                    "duration": 0.5270555000000172
                },
                {
                    "name": "G#5",
                    "midi": 80,
                    "time": 415.3197339999959,
                    "velocity": 0.3464566929133858,
                    "duration": 0.5270555000000172
                },
                {
                    "name": "F#4",
                    "midi": 66,
                    "time": 415.8467894999959,
                    "velocity": 0.2440944881889764,
                    "duration": 0.5270555000000172
                },
                {
                    "name": "F#5",
                    "midi": 78,
                    "time": 415.8467894999959,
                    "velocity": 0.3464566929133858,
                    "duration": 0.5270555000000172
                },
                {
                    "name": "F4",
                    "midi": 65,
                    "time": 416.3738449999959,
                    "velocity": 0.25984251968503935,
                    "duration": 0.5270555000000172
                },
                {
                    "name": "F5",
                    "midi": 77,
                    "time": 416.3738449999959,
                    "velocity": 0.3464566929133858,
                    "duration": 0.5270555000000172
                },
                {
                    "name": "F#4",
                    "midi": 66,
                    "time": 416.90090049999594,
                    "velocity": 0.2440944881889764,
                    "duration": 0.5270555000000172
                },
                {
                    "name": "F#5",
                    "midi": 78,
                    "time": 416.90090049999594,
                    "velocity": 0.3464566929133858,
                    "duration": 0.5270555000000172
                },
                {
                    "name": "G#4",
                    "midi": 68,
                    "time": 417.42795599999596,
                    "velocity": 0.30708661417322836,
                    "duration": 2.108222000000012
                },
                {
                    "name": "G#5",
                    "midi": 80,
                    "time": 417.42795599999596,
                    "velocity": 0.3937007874015748,
                    "duration": 2.108222000000012
                },
                {
                    "name": "C#6",
                    "midi": 85,
                    "time": 419.53617799999597,
                    "velocity": 0.41732283464566927,
                    "duration": 0.5270555000000172
                },
                {
                    "name": "C#5",
                    "midi": 73,
                    "time": 419.53617799999597,
                    "velocity": 0.31496062992125984,
                    "duration": 0.5270555000000172
                },
                {
                    "name": "C5",
                    "midi": 72,
                    "time": 420.063233499996,
                    "velocity": 0.2992125984251969,
                    "duration": 0.5270555000000172
                },
                {
                    "name": "C6",
                    "midi": 84,
                    "time": 420.063233499996,
                    "velocity": 0.3858267716535433,
                    "duration": 0.5270555000000172
                },
                {
                    "name": "D#5",
                    "midi": 75,
                    "time": 420.590288999996,
                    "velocity": 0.3228346456692913,
                    "duration": 0.5270555000000172
                },
                {
                    "name": "D#6",
                    "midi": 87,
                    "time": 420.590288999996,
                    "velocity": 0.4330708661417323,
                    "duration": 0.5270555000000172
                },
                {
                    "name": "F6",
                    "midi": 89,
                    "time": 421.117344499996,
                    "velocity": 0.3937007874015748,
                    "duration": 0.5270555000000172
                },
                {
                    "name": "F5",
                    "midi": 77,
                    "time": 421.117344499996,
                    "velocity": 0.30708661417322836,
                    "duration": 0.5270555000000172
                },
                {
                    "name": "C#6",
                    "midi": 85,
                    "time": 421.64439999999604,
                    "velocity": 0.3937007874015748,
                    "duration": 2.108222000000012
                },
                {
                    "name": "C#5",
                    "midi": 73,
                    "time": 421.64439999999604,
                    "velocity": 0.3700787401574803,
                    "duration": 2.108222000000012
                },
                {
                    "name": "B3",
                    "midi": 59,
                    "time": 425.86084399999606,
                    "velocity": 0.2047244094488189,
                    "duration": 0.06588193750002347
                },
                {
                    "name": "D4",
                    "midi": 62,
                    "time": 425.9267259374961,
                    "velocity": 0.1732283464566929,
                    "duration": 0.06588193750002347
                },
                {
                    "name": "B3",
                    "midi": 59,
                    "time": 425.9926078749961,
                    "velocity": 0.2047244094488189,
                    "duration": 0.06588193750002347
                },
                {
                    "name": "D4",
                    "midi": 62,
                    "time": 426.05848981249613,
                    "velocity": 0.1732283464566929,
                    "duration": 0.06588193750002347
                },
                {
                    "name": "B3",
                    "midi": 59,
                    "time": 426.12437174999616,
                    "velocity": 0.2125984251968504,
                    "duration": 0.06588193750002347
                },
                {
                    "name": "D4",
                    "midi": 62,
                    "time": 426.1902536874962,
                    "velocity": 0.1732283464566929,
                    "duration": 0.06588193750002347
                },
                {
                    "name": "B3",
                    "midi": 59,
                    "time": 426.2561356249962,
                    "velocity": 0.2125984251968504,
                    "duration": 0.06588193750002347
                },
                {
                    "name": "D4",
                    "midi": 62,
                    "time": 426.3220175624962,
                    "velocity": 0.15748031496062992,
                    "duration": 0.06588193750002347
                },
                {
                    "name": "B3",
                    "midi": 59,
                    "time": 426.38789949999625,
                    "velocity": 0.2125984251968504,
                    "duration": 0.06588193750002347
                },
                {
                    "name": "D4",
                    "midi": 62,
                    "time": 426.4537814374963,
                    "velocity": 0.18110236220472442,
                    "duration": 0.06588193750002347
                },
                {
                    "name": "B3",
                    "midi": 59,
                    "time": 426.5196633749963,
                    "velocity": 0.2204724409448819,
                    "duration": 0.06588193750002347
                },
                {
                    "name": "D4",
                    "midi": 62,
                    "time": 426.5855453124963,
                    "velocity": 0.1889763779527559,
                    "duration": 0.06588193750002347
                },
                {
                    "name": "B3",
                    "midi": 59,
                    "time": 426.65142724999635,
                    "velocity": 0.2204724409448819,
                    "duration": 0.06588193750002347
                },
                {
                    "name": "D4",
                    "midi": 62,
                    "time": 426.71730918749637,
                    "velocity": 0.18110236220472442,
                    "duration": 0.06588193750002347
                },
                {
                    "name": "B3",
                    "midi": 59,
                    "time": 426.7831911249964,
                    "velocity": 0.2283464566929134,
                    "duration": 0.06588193750002347
                },
                {
                    "name": "D4",
                    "midi": 62,
                    "time": 426.8490730624964,
                    "velocity": 0.18110236220472442,
                    "duration": 0.06588193750002347
                },
                {
                    "name": "B3",
                    "midi": 59,
                    "time": 426.91495499999644,
                    "velocity": 0.2283464566929134,
                    "duration": 0.06588193750002347
                },
                {
                    "name": "D4",
                    "midi": 62,
                    "time": 426.98083693749646,
                    "velocity": 0.1968503937007874,
                    "duration": 0.06588193750002347
                },
                {
                    "name": "B3",
                    "midi": 59,
                    "time": 427.0467188749965,
                    "velocity": 0.2283464566929134,
                    "duration": 0.06588193750002347
                },
                {
                    "name": "D4",
                    "midi": 62,
                    "time": 427.1126008124965,
                    "velocity": 0.1968503937007874,
                    "duration": 0.06588193750002347
                },
                {
                    "name": "B3",
                    "midi": 59,
                    "time": 427.17848274999653,
                    "velocity": 0.2283464566929134,
                    "duration": 0.06588193750002347
                },
                {
                    "name": "D4",
                    "midi": 62,
                    "time": 427.24436468749656,
                    "velocity": 0.1968503937007874,
                    "duration": 0.06588193750002347
                },
                {
                    "name": "B3",
                    "midi": 59,
                    "time": 427.3102466249966,
                    "velocity": 0.2283464566929134,
                    "duration": 0.06588193750002347
                },
                {
                    "name": "D4",
                    "midi": 62,
                    "time": 427.3761285624966,
                    "velocity": 0.1889763779527559,
                    "duration": 0.06588193750002347
                },
                {
                    "name": "B3",
                    "midi": 59,
                    "time": 427.4420104999966,
                    "velocity": 0.23622047244094488,
                    "duration": 0.06588193750002347
                },
                {
                    "name": "D4",
                    "midi": 62,
                    "time": 427.50789243749665,
                    "velocity": 0.2047244094488189,
                    "duration": 0.06588193750002347
                },
                {
                    "name": "B3",
                    "midi": 59,
                    "time": 427.5737743749967,
                    "velocity": 0.23622047244094488,
                    "duration": 0.06588193750002347
                },
                {
                    "name": "D4",
                    "midi": 62,
                    "time": 427.6396563124967,
                    "velocity": 0.2125984251968504,
                    "duration": 0.06588193750002347
                },
                {
                    "name": "B3",
                    "midi": 59,
                    "time": 427.7055382499967,
                    "velocity": 0.2440944881889764,
                    "duration": 0.06588193750002347
                },
                {
                    "name": "D4",
                    "midi": 62,
                    "time": 427.77142018749674,
                    "velocity": 0.2047244094488189,
                    "duration": 0.06588193750002347
                },
                {
                    "name": "B3",
                    "midi": 59,
                    "time": 427.83730212499677,
                    "velocity": 0.2440944881889764,
                    "duration": 0.06588193750002347
                },
                {
                    "name": "D4",
                    "midi": 62,
                    "time": 427.9031840624968,
                    "velocity": 0.1968503937007874,
                    "duration": 0.06588193750002347
                },
                {
                    "name": "B3",
                    "midi": 59,
                    "time": 427.9690659999968,
                    "velocity": 0.25984251968503935,
                    "duration": 0.06588193750002347
                },
                {
                    "name": "D4",
                    "midi": 62,
                    "time": 428.03494793749684,
                    "velocity": 0.2125984251968504,
                    "duration": 0.06588193750002347
                },
                {
                    "name": "B3",
                    "midi": 59,
                    "time": 428.10082987499686,
                    "velocity": 0.2440944881889764,
                    "duration": 0.06588193750002347
                },
                {
                    "name": "D4",
                    "midi": 62,
                    "time": 428.1667118124969,
                    "velocity": 0.2125984251968504,
                    "duration": 0.06588193750002347
                },
                {
                    "name": "B3",
                    "midi": 59,
                    "time": 428.2325937499969,
                    "velocity": 0.2440944881889764,
                    "duration": 0.06588193750002347
                },
                {
                    "name": "D4",
                    "midi": 62,
                    "time": 428.29847568749693,
                    "velocity": 0.2047244094488189,
                    "duration": 0.06588193750002347
                },
                {
                    "name": "B3",
                    "midi": 59,
                    "time": 428.36435762499696,
                    "velocity": 0.23622047244094488,
                    "duration": 0.06588193750002347
                },
                {
                    "name": "D4",
                    "midi": 62,
                    "time": 428.430239562497,
                    "velocity": 0.1889763779527559,
                    "duration": 0.06588193750002347
                },
                {
                    "name": "B3",
                    "midi": 59,
                    "time": 428.496121499997,
                    "velocity": 0.23622047244094488,
                    "duration": 0.06588193750002347
                },
                {
                    "name": "D4",
                    "midi": 62,
                    "time": 428.562003437497,
                    "velocity": 0.2047244094488189,
                    "duration": 0.06588193750002347
                },
                {
                    "name": "B3",
                    "midi": 59,
                    "time": 428.62788537499705,
                    "velocity": 0.2283464566929134,
                    "duration": 0.06588193750002347
                },
                {
                    "name": "D4",
                    "midi": 62,
                    "time": 428.6937673124971,
                    "velocity": 0.1968503937007874,
                    "duration": 0.06588193750002347
                },
                {
                    "name": "B3",
                    "midi": 59,
                    "time": 428.7596492499971,
                    "velocity": 0.2283464566929134,
                    "duration": 0.06588193750002347
                },
                {
                    "name": "D4",
                    "midi": 62,
                    "time": 428.8255311874971,
                    "velocity": 0.1889763779527559,
                    "duration": 0.06588193750002347
                },
                {
                    "name": "B3",
                    "midi": 59,
                    "time": 428.89141312499714,
                    "velocity": 0.2283464566929134,
                    "duration": 0.06588193750002347
                },
                {
                    "name": "D4",
                    "midi": 62,
                    "time": 428.95729506249717,
                    "velocity": 0.18110236220472442,
                    "duration": 0.06588193750002347
                },
                {
                    "name": "B3",
                    "midi": 59,
                    "time": 429.0231769999972,
                    "velocity": 0.2283464566929134,
                    "duration": 0.06588193750002347
                },
                {
                    "name": "D4",
                    "midi": 62,
                    "time": 429.0890589374972,
                    "velocity": 0.1968503937007874,
                    "duration": 0.06588193750002347
                },
                {
                    "name": "B3",
                    "midi": 59,
                    "time": 429.15494087499724,
                    "velocity": 0.2283464566929134,
                    "duration": 0.06588193750002347
                },
                {
                    "name": "D4",
                    "midi": 62,
                    "time": 429.22082281249726,
                    "velocity": 0.1889763779527559,
                    "duration": 0.06588193750002347
                },
                {
                    "name": "B3",
                    "midi": 59,
                    "time": 429.2867047499973,
                    "velocity": 0.2204724409448819,
                    "duration": 0.06588193750002347
                },
                {
                    "name": "D4",
                    "midi": 62,
                    "time": 429.3525866874973,
                    "velocity": 0.18110236220472442,
                    "duration": 0.06588193750002347
                },
                {
                    "name": "B3",
                    "midi": 59,
                    "time": 429.41846862499733,
                    "velocity": 0.2204724409448819,
                    "duration": 0.06588193750002347
                },
                {
                    "name": "D4",
                    "midi": 62,
                    "time": 429.48435056249735,
                    "velocity": 0.1732283464566929,
                    "duration": 0.06588193750002347
                },
                {
                    "name": "B3",
                    "midi": 59,
                    "time": 429.5502324999974,
                    "velocity": 0.2125984251968504,
                    "duration": 0.06588193750002347
                },
                {
                    "name": "D4",
                    "midi": 62,
                    "time": 429.6161144374974,
                    "velocity": 0.18110236220472442,
                    "duration": 0.06588193750002347
                },
                {
                    "name": "B3",
                    "midi": 59,
                    "time": 429.6819963749974,
                    "velocity": 0.2125984251968504,
                    "duration": 0.06588193750002347
                },
                {
                    "name": "D4",
                    "midi": 62,
                    "time": 429.74787831249745,
                    "velocity": 0.18110236220472442,
                    "duration": 0.06588193750002347
                },
                {
                    "name": "B3",
                    "midi": 59,
                    "time": 429.8137602499975,
                    "velocity": 0.2125984251968504,
                    "duration": 0.06588193750002347
                },
                {
                    "name": "D4",
                    "midi": 62,
                    "time": 429.8796421874975,
                    "velocity": 0.15748031496062992,
                    "duration": 0.06588193750002347
                },
                {
                    "name": "B3",
                    "midi": 59,
                    "time": 429.9455241249975,
                    "velocity": 0.2047244094488189,
                    "duration": 0.06588193750002347
                },
                {
                    "name": "D4",
                    "midi": 62,
                    "time": 430.01140606249754,
                    "velocity": 0.1732283464566929,
                    "duration": 0.06588193750002347
                },
                {
                    "name": "B4",
                    "midi": 71,
                    "time": 430.07728799999757,
                    "velocity": 0.25984251968503935,
                    "duration": 2.108222000000012
                },
                {
                    "name": "B5",
                    "midi": 83,
                    "time": 430.07728799999757,
                    "velocity": 0.3858267716535433,
                    "duration": 2.108222000000012
                },
                {
                    "name": "B4",
                    "midi": 71,
                    "time": 432.1855099999976,
                    "velocity": 0.2440944881889764,
                    "duration": 1.0431306770833544
                },
                {
                    "name": "B5",
                    "midi": 83,
                    "time": 432.1855099999976,
                    "velocity": 0.3464566929133858,
                    "duration": 1.0431306770833544
                },
                {
                    "name": "B4",
                    "midi": 71,
                    "time": 433.2396209999976,
                    "velocity": 0.25984251968503935,
                    "duration": 1.0431306770833544
                },
                {
                    "name": "B5",
                    "midi": 83,
                    "time": 433.2396209999976,
                    "velocity": 0.3464566929133858,
                    "duration": 1.0431306770833544
                },
                {
                    "name": "B4",
                    "midi": 71,
                    "time": 434.29373199999765,
                    "velocity": 0.30708661417322836,
                    "duration": 1.844694249999975
                },
                {
                    "name": "B5",
                    "midi": 83,
                    "time": 434.29373199999765,
                    "velocity": 0.3937007874015748,
                    "duration": 1.844694249999975
                },
                {
                    "name": "C5",
                    "midi": 72,
                    "time": 436.1384262499976,
                    "velocity": 0.31496062992125984,
                    "duration": 0.2635277499999802
                },
                {
                    "name": "C6",
                    "midi": 84,
                    "time": 436.1384262499976,
                    "velocity": 0.3543307086614173,
                    "duration": 0.2635277499999802
                },
                {
                    "name": "B5",
                    "midi": 83,
                    "time": 436.4019539999976,
                    "velocity": 0.3543307086614173,
                    "duration": 2.108222000000012
                },
                {
                    "name": "B4",
                    "midi": 71,
                    "time": 436.4019539999976,
                    "velocity": 0.31496062992125984,
                    "duration": 2.108222000000012
                },
                {
                    "name": "G#4",
                    "midi": 68,
                    "time": 438.5101759999976,
                    "velocity": 0.25984251968503935,
                    "duration": 2.108222000000012
                },
                {
                    "name": "G#5",
                    "midi": 80,
                    "time": 438.5101759999976,
                    "velocity": 0.3464566929133858,
                    "duration": 2.108222000000012
                },
                {
                    "name": "B4",
                    "midi": 71,
                    "time": 440.6183979999976,
                    "velocity": 0.2440944881889764,
                    "duration": 0.5270555000000172
                },
                {
                    "name": "B5",
                    "midi": 83,
                    "time": 440.6183979999976,
                    "velocity": 0.3464566929133858,
                    "duration": 0.5270555000000172
                },
                {
                    "name": "A4",
                    "midi": 69,
                    "time": 441.14545349999764,
                    "velocity": 0.2440944881889764,
                    "duration": 0.5270555000000172
                },
                {
                    "name": "A5",
                    "midi": 81,
                    "time": 441.14545349999764,
                    "velocity": 0.3464566929133858,
                    "duration": 0.5270555000000172
                },
                {
                    "name": "G#4",
                    "midi": 68,
                    "time": 441.67250899999766,
                    "velocity": 0.25984251968503935,
                    "duration": 0.5270555000000172
                },
                {
                    "name": "G#5",
                    "midi": 80,
                    "time": 441.67250899999766,
                    "velocity": 0.3464566929133858,
                    "duration": 0.5270555000000172
                },
                {
                    "name": "A4",
                    "midi": 69,
                    "time": 442.1995644999977,
                    "velocity": 0.2440944881889764,
                    "duration": 0.5270555000000172
                },
                {
                    "name": "A5",
                    "midi": 81,
                    "time": 442.1995644999977,
                    "velocity": 0.3464566929133858,
                    "duration": 0.5270555000000172
                },
                {
                    "name": "B4",
                    "midi": 71,
                    "time": 442.7266199999977,
                    "velocity": 0.30708661417322836,
                    "duration": 2.108222000000012
                },
                {
                    "name": "B5",
                    "midi": 83,
                    "time": 442.7266199999977,
                    "velocity": 0.3937007874015748,
                    "duration": 2.108222000000012
                },
                {
                    "name": "E6",
                    "midi": 88,
                    "time": 444.8348419999977,
                    "velocity": 0.41732283464566927,
                    "duration": 0.5270555000000172
                },
                {
                    "name": "E5",
                    "midi": 76,
                    "time": 444.8348419999977,
                    "velocity": 0.31496062992125984,
                    "duration": 0.5270555000000172
                },
                {
                    "name": "D#5",
                    "midi": 75,
                    "time": 445.3618974999977,
                    "velocity": 0.2992125984251969,
                    "duration": 0.5270555000000172
                },
                {
                    "name": "D#6",
                    "midi": 87,
                    "time": 445.3618974999977,
                    "velocity": 0.3858267716535433,
                    "duration": 0.5270555000000172
                },
                {
                    "name": "F#5",
                    "midi": 78,
                    "time": 445.88895299999774,
                    "velocity": 0.3228346456692913,
                    "duration": 0.5270555000000172
                },
                {
                    "name": "F#6",
                    "midi": 90,
                    "time": 445.88895299999774,
                    "velocity": 0.4330708661417323,
                    "duration": 0.5270555000000172
                },
                {
                    "name": "G#6",
                    "midi": 92,
                    "time": 446.41600849999776,
                    "velocity": 0.3937007874015748,
                    "duration": 0.5270555000000172
                },
                {
                    "name": "G#5",
                    "midi": 80,
                    "time": 446.41600849999776,
                    "velocity": 0.30708661417322836,
                    "duration": 0.5270555000000172
                },
                {
                    "name": "E6",
                    "midi": 88,
                    "time": 446.9430639999978,
                    "velocity": 0.3937007874015748,
                    "duration": 2.108222000000012
                },
                {
                    "name": "E5",
                    "midi": 76,
                    "time": 446.9430639999978,
                    "velocity": 0.3700787401574803,
                    "duration": 2.108222000000012
                },
                {
                    "name": "A4",
                    "midi": 69,
                    "time": 451.1595079999978,
                    "velocity": 0.25984251968503935,
                    "duration": 2.108222000000012
                },
                {
                    "name": "C5",
                    "midi": 72,
                    "time": 451.1595079999978,
                    "velocity": 0.25984251968503935,
                    "duration": 2.108222000000012
                },
                {
                    "name": "E5",
                    "midi": 76,
                    "time": 451.1595079999978,
                    "velocity": 0.3937007874015748,
                    "duration": 2.108222000000012
                },
                {
                    "name": "A4",
                    "midi": 69,
                    "time": 453.2677299999978,
                    "velocity": 0.2677165354330709,
                    "duration": 2.108222000000069
                },
                {
                    "name": "E5",
                    "midi": 76,
                    "time": 453.2677299999978,
                    "velocity": 0.41732283464566927,
                    "duration": 0.5270555000000172
                },
                {
                    "name": "C5",
                    "midi": 72,
                    "time": 453.2677299999978,
                    "velocity": 0.2677165354330709,
                    "duration": 2.108222000000069
                },
                {
                    "name": "D#5",
                    "midi": 75,
                    "time": 453.79478549999783,
                    "velocity": 0.3858267716535433,
                    "duration": 0.5270555000000172
                },
                {
                    "name": "E5",
                    "midi": 76,
                    "time": 454.32184099999785,
                    "velocity": 0.4330708661417323,
                    "duration": 0.5270555000000172
                },
                {
                    "name": "F#5",
                    "midi": 78,
                    "time": 454.84889649999786,
                    "velocity": 0.3937007874015748,
                    "duration": 0.5270555000000172
                },
                {
                    "name": "B4",
                    "midi": 71,
                    "time": 455.3759519999979,
                    "velocity": 0.3700787401574803,
                    "duration": 2.108222000000012
                },
                {
                    "name": "G#5",
                    "midi": 80,
                    "time": 455.3759519999979,
                    "velocity": 0.3937007874015748,
                    "duration": 2.108222000000012
                },
                {
                    "name": "G#4",
                    "midi": 68,
                    "time": 455.3759519999979,
                    "velocity": 0.3700787401574803,
                    "duration": 2.108222000000012
                },
                {
                    "name": "A3",
                    "midi": 57,
                    "time": 459.5923959999979,
                    "velocity": 0.2047244094488189,
                    "duration": 2.108222000000012
                },
                {
                    "name": "C4",
                    "midi": 60,
                    "time": 459.5923959999979,
                    "velocity": 0.2047244094488189,
                    "duration": 2.108222000000012
                },
                {
                    "name": "E4",
                    "midi": 64,
                    "time": 459.5923959999979,
                    "velocity": 0.30708661417322836,
                    "duration": 2.108222000000012
                },
                {
                    "name": "A3",
                    "midi": 57,
                    "time": 461.7006179999979,
                    "velocity": 0.2047244094488189,
                    "duration": 2.108222000000069
                },
                {
                    "name": "E4",
                    "midi": 64,
                    "time": 461.7006179999979,
                    "velocity": 0.33070866141732286,
                    "duration": 0.5270555000000172
                },
                {
                    "name": "C4",
                    "midi": 60,
                    "time": 461.7006179999979,
                    "velocity": 0.2047244094488189,
                    "duration": 2.108222000000069
                },
                {
                    "name": "D#4",
                    "midi": 63,
                    "time": 462.22767349999793,
                    "velocity": 0.30708661417322836,
                    "duration": 0.5270555000000172
                },
                {
                    "name": "E4",
                    "midi": 64,
                    "time": 462.75472899999795,
                    "velocity": 0.3464566929133858,
                    "duration": 0.5270555000000172
                },
                {
                    "name": "F#4",
                    "midi": 66,
                    "time": 463.28178449999797,
                    "velocity": 0.30708661417322836,
                    "duration": 0.5270555000000172
                },
                {
                    "name": "B3",
                    "midi": 59,
                    "time": 463.808839999998,
                    "velocity": 0.2283464566929134,
                    "duration": 2.108222000000012
                },
                {
                    "name": "G#4",
                    "midi": 68,
                    "time": 463.808839999998,
                    "velocity": 0.30708661417322836,
                    "duration": 2.108222000000012
                },
                {
                    "name": "G#3",
                    "midi": 56,
                    "time": 463.808839999998,
                    "velocity": 0.2047244094488189,
                    "duration": 2.108222000000012
                }
            ],
            "controlChanges": {
                "7": [
                    {
                        "number": 7,
                        "time": 0,
                        "value": 0.7874015748031497
                    }
                ],
                "10": [
                    {
                        "number": 10,
                        "time": 0,
                        "value": 0.5039370078740157
                    }
                ],
                "91": [
                    {
                        "number": 91,
                        "time": 0,
                        "value": 1
                    },
                    {
                        "number": 91,
                        "time": 16.865776,
                        "value": 1
                    },
                    {
                        "number": 91,
                        "time": 33.731552,
                        "value": 1
                    },
                    {
                        "number": 91,
                        "time": 50.597328,
                        "value": 1
                    },
                    {
                        "number": 91,
                        "time": 219.25508799999997,
                        "value": 1
                    },
                    {
                        "number": 91,
                        "time": 227.687976,
                        "value": 1
                    },
                    {
                        "number": 91,
                        "time": 236.12086399999995,
                        "value": 1
                    },
                    {
                        "number": 91,
                        "time": 244.55375199999997,
                        "value": 1
                    },
                    {
                        "number": 91,
                        "time": 252.98663999999994,
                        "value": 1
                    },
                    {
                        "number": 91,
                        "time": 261.41952799999996,
                        "value": 1
                    },
                    {
                        "number": 91,
                        "time": 269.852416,
                        "value": 1
                    },
                    {
                        "number": 91,
                        "time": 278.285304,
                        "value": 1
                    }
                ]
            },
            "id": 1,
            "name": "Piano right",
            "instrumentNumber": 0,
            "instrument": "acoustic grand piano",
            "instrumentFamily": "piano",
            "channelNumber": 0,
            "isPercussion": false
        },
        {
            "startTime": 0,
            "duration": 472.2417279999929,
            "length": 2002,
            "notes": [
                {
                    "name": "C#2",
                    "midi": 37,
                    "time": 0,
                    "velocity": 0.15748031496062992,
                    "duration": 2.108222
                },
                {
                    "name": "E2",
                    "midi": 40,
                    "time": 0,
                    "velocity": 0.15748031496062992,
                    "duration": 2.108222
                },
                {
                    "name": "G#2",
                    "midi": 44,
                    "time": 0,
                    "velocity": 0.15748031496062992,
                    "duration": 2.108222
                },
                {
                    "name": "C#3",
                    "midi": 49,
                    "time": 0,
                    "velocity": 0.2047244094488189,
                    "duration": 2.108222
                },
                {
                    "name": "C#2",
                    "midi": 37,
                    "time": 2.108222,
                    "velocity": 0.1732283464566929,
                    "duration": 1.0431306770833335
                },
                {
                    "name": "E2",
                    "midi": 40,
                    "time": 2.108222,
                    "velocity": 0.1732283464566929,
                    "duration": 1.0431306770833335
                },
                {
                    "name": "G#2",
                    "midi": 44,
                    "time": 2.108222,
                    "velocity": 0.1732283464566929,
                    "duration": 1.0431306770833335
                },
                {
                    "name": "C#3",
                    "midi": 49,
                    "time": 2.108222,
                    "velocity": 0.2047244094488189,
                    "duration": 1.0431306770833335
                },
                {
                    "name": "C#2",
                    "midi": 37,
                    "time": 3.1623330000000003,
                    "velocity": 0.18110236220472442,
                    "duration": 1.043130677083333
                },
                {
                    "name": "E2",
                    "midi": 40,
                    "time": 3.1623330000000003,
                    "velocity": 0.18110236220472442,
                    "duration": 1.043130677083333
                },
                {
                    "name": "G#2",
                    "midi": 44,
                    "time": 3.1623330000000003,
                    "velocity": 0.18110236220472442,
                    "duration": 1.043130677083333
                },
                {
                    "name": "C#3",
                    "midi": 49,
                    "time": 3.1623330000000003,
                    "velocity": 0.2125984251968504,
                    "duration": 1.043130677083333
                },
                {
                    "name": "G#2",
                    "midi": 44,
                    "time": 4.216444,
                    "velocity": 0.1968503937007874,
                    "duration": 4.216444
                },
                {
                    "name": "C3",
                    "midi": 48,
                    "time": 4.216444,
                    "velocity": 0.23622047244094488,
                    "duration": 4.216444
                },
                {
                    "name": "C2",
                    "midi": 36,
                    "time": 4.216444,
                    "velocity": 0.1968503937007874,
                    "duration": 4.216444
                },
                {
                    "name": "D#2",
                    "midi": 39,
                    "time": 4.216444,
                    "velocity": 0.1968503937007874,
                    "duration": 4.216444
                },
                {
                    "name": "C#2",
                    "midi": 37,
                    "time": 8.432888,
                    "velocity": 0.2125984251968504,
                    "duration": 2.1082219999999996
                },
                {
                    "name": "G#2",
                    "midi": 44,
                    "time": 8.432888,
                    "velocity": 0.2125984251968504,
                    "duration": 2.1082219999999996
                },
                {
                    "name": "C#3",
                    "midi": 49,
                    "time": 8.432888,
                    "velocity": 0.25984251968503935,
                    "duration": 2.1082219999999996
                },
                {
                    "name": "E2",
                    "midi": 40,
                    "time": 8.432888,
                    "velocity": 0.2125984251968504,
                    "duration": 2.1082219999999996
                },
                {
                    "name": "A1",
                    "midi": 33,
                    "time": 10.54111,
                    "velocity": 0.25984251968503935,
                    "duration": 2.1082220000000014
                },
                {
                    "name": "C#2",
                    "midi": 37,
                    "time": 10.54111,
                    "velocity": 0.25984251968503935,
                    "duration": 2.1082220000000014
                },
                {
                    "name": "F#2",
                    "midi": 42,
                    "time": 10.54111,
                    "velocity": 0.25984251968503935,
                    "duration": 2.1082220000000014
                },
                {
                    "name": "A2",
                    "midi": 45,
                    "time": 10.54111,
                    "velocity": 0.30708661417322836,
                    "duration": 2.1082220000000014
                },
                {
                    "name": "G#1",
                    "midi": 32,
                    "time": 12.649332000000001,
                    "velocity": 0.2283464566929134,
                    "duration": 4.216444000000003
                },
                {
                    "name": "C2",
                    "midi": 36,
                    "time": 12.715213937500002,
                    "velocity": 0.23622047244094488,
                    "duration": 4.150562062500002
                },
                {
                    "name": "D#2",
                    "midi": 39,
                    "time": 12.781095875000002,
                    "velocity": 0.2677165354330709,
                    "duration": 4.084680125000002
                },
                {
                    "name": "G#2",
                    "midi": 44,
                    "time": 12.846977812500002,
                    "velocity": 0.28346456692913385,
                    "duration": 4.018798187500002
                },
                {
                    "name": "C#2",
                    "midi": 37,
                    "time": 16.865776000000004,
                    "velocity": 0.1889763779527559,
                    "duration": 2.1082220000000014
                },
                {
                    "name": "E2",
                    "midi": 40,
                    "time": 16.865776000000004,
                    "velocity": 0.1889763779527559,
                    "duration": 2.1082220000000014
                },
                {
                    "name": "G#2",
                    "midi": 44,
                    "time": 16.865776000000004,
                    "velocity": 0.1889763779527559,
                    "duration": 2.1082220000000014
                },
                {
                    "name": "C#3",
                    "midi": 49,
                    "time": 16.865776000000004,
                    "velocity": 0.2283464566929134,
                    "duration": 2.1082220000000014
                },
                {
                    "name": "C#2",
                    "midi": 37,
                    "time": 18.973998000000005,
                    "velocity": 0.2047244094488189,
                    "duration": 1.043130677083333
                },
                {
                    "name": "E2",
                    "midi": 40,
                    "time": 18.973998000000005,
                    "velocity": 0.2047244094488189,
                    "duration": 1.043130677083333
                },
                {
                    "name": "G#2",
                    "midi": 44,
                    "time": 18.973998000000005,
                    "velocity": 0.2047244094488189,
                    "duration": 1.043130677083333
                },
                {
                    "name": "C#3",
                    "midi": 49,
                    "time": 18.973998000000005,
                    "velocity": 0.23622047244094488,
                    "duration": 1.043130677083333
                },
                {
                    "name": "C#2",
                    "midi": 37,
                    "time": 20.028109000000004,
                    "velocity": 0.2204724409448819,
                    "duration": 1.043130677083333
                },
                {
                    "name": "E2",
                    "midi": 40,
                    "time": 20.028109000000004,
                    "velocity": 0.2204724409448819,
                    "duration": 1.043130677083333
                },
                {
                    "name": "G#2",
                    "midi": 44,
                    "time": 20.028109000000004,
                    "velocity": 0.2204724409448819,
                    "duration": 1.043130677083333
                },
                {
                    "name": "C#3",
                    "midi": 49,
                    "time": 20.028109000000004,
                    "velocity": 0.2677165354330709,
                    "duration": 1.043130677083333
                },
                {
                    "name": "F#2",
                    "midi": 42,
                    "time": 21.082220000000003,
                    "velocity": 0.25984251968503935,
                    "duration": 3.1623330000000003
                },
                {
                    "name": "F#1",
                    "midi": 30,
                    "time": 21.082220000000003,
                    "velocity": 0.2125984251968504,
                    "duration": 3.1623330000000003
                },
                {
                    "name": "A1",
                    "midi": 33,
                    "time": 24.244553000000003,
                    "velocity": 0.1732283464566929,
                    "duration": 1.054110999999999
                },
                {
                    "name": "A2",
                    "midi": 45,
                    "time": 24.244553000000003,
                    "velocity": 0.2125984251968504,
                    "duration": 1.054110999999999
                },
                {
                    "name": "G#1",
                    "midi": 32,
                    "time": 25.298664000000002,
                    "velocity": 0.1889763779527559,
                    "duration": 2.108221999999998
                },
                {
                    "name": "G#2",
                    "midi": 44,
                    "time": 25.298664000000002,
                    "velocity": 0.2283464566929134,
                    "duration": 2.108221999999998
                },
                {
                    "name": "G#1",
                    "midi": 32,
                    "time": 27.406886,
                    "velocity": 0.2047244094488189,
                    "duration": 2.108221999999998
                },
                {
                    "name": "G#2",
                    "midi": 44,
                    "time": 27.406886,
                    "velocity": 0.2440944881889764,
                    "duration": 2.108221999999998
                },
                {
                    "name": "E2",
                    "midi": 40,
                    "time": 29.515107999999998,
                    "velocity": 0.1968503937007874,
                    "duration": 3.1623329999999967
                },
                {
                    "name": "G#2",
                    "midi": 44,
                    "time": 29.515107999999998,
                    "velocity": 0.1968503937007874,
                    "duration": 3.1623329999999967
                },
                {
                    "name": "C#3",
                    "midi": 49,
                    "time": 29.515107999999998,
                    "velocity": 0.23622047244094488,
                    "duration": 3.1623329999999967
                },
                {
                    "name": "C#2",
                    "midi": 37,
                    "time": 29.515107999999998,
                    "velocity": 0.1968503937007874,
                    "duration": 3.1623329999999967
                },
                {
                    "name": "C#2",
                    "midi": 37,
                    "time": 33.73155199999999,
                    "velocity": 0.15748031496062992,
                    "duration": 2.108222000000005
                },
                {
                    "name": "E2",
                    "midi": 40,
                    "time": 33.73155199999999,
                    "velocity": 0.15748031496062992,
                    "duration": 2.108222000000005
                },
                {
                    "name": "G#2",
                    "midi": 44,
                    "time": 33.73155199999999,
                    "velocity": 0.15748031496062992,
                    "duration": 2.108222000000005
                },
                {
                    "name": "C#3",
                    "midi": 49,
                    "time": 33.73155199999999,
                    "velocity": 0.2047244094488189,
                    "duration": 2.108222000000005
                },
                {
                    "name": "C#2",
                    "midi": 37,
                    "time": 35.839774,
                    "velocity": 0.1732283464566929,
                    "duration": 1.043130677083333
                },
                {
                    "name": "E2",
                    "midi": 40,
                    "time": 35.839774,
                    "velocity": 0.1732283464566929,
                    "duration": 1.043130677083333
                },
                {
                    "name": "G#2",
                    "midi": 44,
                    "time": 35.839774,
                    "velocity": 0.1732283464566929,
                    "duration": 1.043130677083333
                },
                {
                    "name": "C#3",
                    "midi": 49,
                    "time": 35.839774,
                    "velocity": 0.2047244094488189,
                    "duration": 1.043130677083333
                },
                {
                    "name": "C#2",
                    "midi": 37,
                    "time": 36.893885,
                    "velocity": 0.18110236220472442,
                    "duration": 1.043130677083333
                },
                {
                    "name": "E2",
                    "midi": 40,
                    "time": 36.893885,
                    "velocity": 0.18110236220472442,
                    "duration": 1.043130677083333
                },
                {
                    "name": "G#2",
                    "midi": 44,
                    "time": 36.893885,
                    "velocity": 0.18110236220472442,
                    "duration": 1.043130677083333
                },
                {
                    "name": "C#3",
                    "midi": 49,
                    "time": 36.893885,
                    "velocity": 0.2125984251968504,
                    "duration": 1.043130677083333
                },
                {
                    "name": "G#2",
                    "midi": 44,
                    "time": 37.947995999999996,
                    "velocity": 0.1968503937007874,
                    "duration": 4.216443999999996
                },
                {
                    "name": "C3",
                    "midi": 48,
                    "time": 37.947995999999996,
                    "velocity": 0.23622047244094488,
                    "duration": 4.216443999999996
                },
                {
                    "name": "C2",
                    "midi": 36,
                    "time": 37.947995999999996,
                    "velocity": 0.1968503937007874,
                    "duration": 4.216443999999996
                },
                {
                    "name": "D#2",
                    "midi": 39,
                    "time": 37.947995999999996,
                    "velocity": 0.1968503937007874,
                    "duration": 4.216443999999996
                },
                {
                    "name": "C#2",
                    "midi": 37,
                    "time": 42.16443999999999,
                    "velocity": 0.2125984251968504,
                    "duration": 2.108221999999998
                },
                {
                    "name": "G#2",
                    "midi": 44,
                    "time": 42.16443999999999,
                    "velocity": 0.2125984251968504,
                    "duration": 2.108221999999998
                },
                {
                    "name": "C#3",
                    "midi": 49,
                    "time": 42.16443999999999,
                    "velocity": 0.25984251968503935,
                    "duration": 2.108221999999998
                },
                {
                    "name": "E2",
                    "midi": 40,
                    "time": 42.16443999999999,
                    "velocity": 0.2125984251968504,
                    "duration": 2.108221999999998
                },
                {
                    "name": "A1",
                    "midi": 33,
                    "time": 44.27266199999999,
                    "velocity": 0.25984251968503935,
                    "duration": 2.108221999999998
                },
                {
                    "name": "C#2",
                    "midi": 37,
                    "time": 44.27266199999999,
                    "velocity": 0.25984251968503935,
                    "duration": 2.108221999999998
                },
                {
                    "name": "F#2",
                    "midi": 42,
                    "time": 44.27266199999999,
                    "velocity": 0.25984251968503935,
                    "duration": 2.108221999999998
                },
                {
                    "name": "A2",
                    "midi": 45,
                    "time": 44.27266199999999,
                    "velocity": 0.30708661417322836,
                    "duration": 2.108221999999998
                },
                {
                    "name": "G#1",
                    "midi": 32,
                    "time": 46.38088399999999,
                    "velocity": 0.2283464566929134,
                    "duration": 4.216443999999996
                },
                {
                    "name": "C2",
                    "midi": 36,
                    "time": 46.44676593749998,
                    "velocity": 0.23622047244094488,
                    "duration": 4.150562062500001
                },
                {
                    "name": "D#2",
                    "midi": 39,
                    "time": 46.512647874999985,
                    "velocity": 0.2677165354330709,
                    "duration": 4.084680124999998
                },
                {
                    "name": "G#2",
                    "midi": 44,
                    "time": 46.57852981249999,
                    "velocity": 0.28346456692913385,
                    "duration": 4.018798187499996
                },
                {
                    "name": "C#2",
                    "midi": 37,
                    "time": 50.59732799999998,
                    "velocity": 0.1889763779527559,
                    "duration": 2.108222000000005
                },
                {
                    "name": "C#3",
                    "midi": 49,
                    "time": 50.59732799999998,
                    "velocity": 0.2283464566929134,
                    "duration": 2.108222000000005
                },
                {
                    "name": "C#2",
                    "midi": 37,
                    "time": 52.70554999999999,
                    "velocity": 0.2047244094488189,
                    "duration": 1.043130677083333
                },
                {
                    "name": "C#3",
                    "midi": 49,
                    "time": 52.70554999999999,
                    "velocity": 0.23622047244094488,
                    "duration": 1.043130677083333
                },
                {
                    "name": "C#2",
                    "midi": 37,
                    "time": 53.75966099999999,
                    "velocity": 0.2204724409448819,
                    "duration": 1.043130677083333
                },
                {
                    "name": "C#3",
                    "midi": 49,
                    "time": 53.75966099999999,
                    "velocity": 0.2677165354330709,
                    "duration": 1.043130677083333
                },
                {
                    "name": "F#2",
                    "midi": 42,
                    "time": 54.813771999999986,
                    "velocity": 0.25984251968503935,
                    "duration": 3.1623329999999967
                },
                {
                    "name": "F#1",
                    "midi": 30,
                    "time": 54.813771999999986,
                    "velocity": 0.2125984251968504,
                    "duration": 3.1623329999999967
                },
                {
                    "name": "A1",
                    "midi": 33,
                    "time": 57.97610499999998,
                    "velocity": 0.1732283464566929,
                    "duration": 1.054110999999999
                },
                {
                    "name": "A2",
                    "midi": 45,
                    "time": 57.97610499999998,
                    "velocity": 0.2125984251968504,
                    "duration": 1.054110999999999
                },
                {
                    "name": "B1",
                    "midi": 35,
                    "time": 59.03021599999998,
                    "velocity": 0.1889763779527559,
                    "duration": 2.108221999999998
                },
                {
                    "name": "B2",
                    "midi": 47,
                    "time": 59.03021599999998,
                    "velocity": 0.2283464566929134,
                    "duration": 2.108221999999998
                },
                {
                    "name": "B2",
                    "midi": 47,
                    "time": 61.13843799999998,
                    "velocity": 0.2047244094488189,
                    "duration": 2.108221999999998
                },
                {
                    "name": "F#3",
                    "midi": 54,
                    "time": 61.13843799999998,
                    "velocity": 0.2440944881889764,
                    "duration": 2.108221999999998
                },
                {
                    "name": "E2",
                    "midi": 40,
                    "time": 63.24665999999998,
                    "velocity": 0.1968503937007874,
                    "duration": 3.162333000000004
                },
                {
                    "name": "B2",
                    "midi": 47,
                    "time": 63.24665999999998,
                    "velocity": 0.1968503937007874,
                    "duration": 3.162333000000004
                },
                {
                    "name": "E3",
                    "midi": 52,
                    "time": 63.24665999999998,
                    "velocity": 0.23622047244094488,
                    "duration": 3.162333000000004
                },
                {
                    "name": "E3",
                    "midi": 52,
                    "time": 67.46310399999999,
                    "velocity": 0.2047244094488189,
                    "duration": 4.216444000000024
                },
                {
                    "name": "G#3",
                    "midi": 56,
                    "time": 67.46310399999999,
                    "velocity": 0.2125984251968504,
                    "duration": 0.5709767916666664
                },
                {
                    "name": "A3",
                    "midi": 57,
                    "time": 67.99015949999999,
                    "velocity": 0.1732283464566929,
                    "duration": 0.5709767916666664
                },
                {
                    "name": "G#3",
                    "midi": 56,
                    "time": 68.517215,
                    "velocity": 0.2125984251968504,
                    "duration": 0.5709767916666664
                },
                {
                    "name": "A3",
                    "midi": 57,
                    "time": 69.0442705,
                    "velocity": 0.14960629921259844,
                    "duration": 0.5709767916666664
                },
                {
                    "name": "B3",
                    "midi": 59,
                    "time": 69.571326,
                    "velocity": 0.2125984251968504,
                    "duration": 0.5709767916666664
                },
                {
                    "name": "A3",
                    "midi": 57,
                    "time": 70.0983815,
                    "velocity": 0.14960629921259844,
                    "duration": 0.5709767916666664
                },
                {
                    "name": "B3",
                    "midi": 59,
                    "time": 70.625437,
                    "velocity": 0.2125984251968504,
                    "duration": 0.5709767916666664
                },
                {
                    "name": "G#3",
                    "midi": 56,
                    "time": 71.15249250000001,
                    "velocity": 0.15748031496062992,
                    "duration": 0.527055500000003
                },
                {
                    "name": "B2",
                    "midi": 47,
                    "time": 71.67954800000001,
                    "velocity": 0.23622047244094488,
                    "duration": 4.216444000000024
                },
                {
                    "name": "F#3",
                    "midi": 54,
                    "time": 71.67954800000001,
                    "velocity": 0.2125984251968504,
                    "duration": 0.5709767916666664
                },
                {
                    "name": "G#3",
                    "midi": 56,
                    "time": 72.20660350000001,
                    "velocity": 0.14960629921259844,
                    "duration": 0.5709767916666664
                },
                {
                    "name": "F#3",
                    "midi": 54,
                    "time": 72.73365900000002,
                    "velocity": 0.2125984251968504,
                    "duration": 0.5709767916666664
                },
                {
                    "name": "G#3",
                    "midi": 56,
                    "time": 73.26071450000002,
                    "velocity": 0.14173228346456693,
                    "duration": 0.5709767916666664
                },
                {
                    "name": "A3",
                    "midi": 57,
                    "time": 73.78777000000002,
                    "velocity": 0.2125984251968504,
                    "duration": 0.5709767916666664
                },
                {
                    "name": "G#3",
                    "midi": 56,
                    "time": 74.31482550000003,
                    "velocity": 0.14960629921259844,
                    "duration": 0.5709767916666664
                },
                {
                    "name": "A3",
                    "midi": 57,
                    "time": 74.84188100000003,
                    "velocity": 0.2125984251968504,
                    "duration": 0.5709767916666664
                },
                {
                    "name": "F#3",
                    "midi": 54,
                    "time": 75.36893650000003,
                    "velocity": 0.14960629921259844,
                    "duration": 0.527055500000003
                },
                {
                    "name": "G#3",
                    "midi": 56,
                    "time": 75.89599200000004,
                    "velocity": 0.2125984251968504,
                    "duration": 0.5709767916666664
                },
                {
                    "name": "E3",
                    "midi": 52,
                    "time": 75.89599200000004,
                    "velocity": 0.25984251968503935,
                    "duration": 3.7333097916666844
                },
                {
                    "name": "A3",
                    "midi": 57,
                    "time": 76.42304750000004,
                    "velocity": 0.14173228346456693,
                    "duration": 0.5709767916666664
                },
                {
                    "name": "G#3",
                    "midi": 56,
                    "time": 76.95010300000004,
                    "velocity": 0.2125984251968504,
                    "duration": 0.5709767916666664
                },
                {
                    "name": "A3",
                    "midi": 57,
                    "time": 77.47715850000004,
                    "velocity": 0.14960629921259844,
                    "duration": 0.5709767916666664
                },
                {
                    "name": "B3",
                    "midi": 59,
                    "time": 78.00421400000005,
                    "velocity": 0.2125984251968504,
                    "duration": 0.5709767916666664
                },
                {
                    "name": "G#3",
                    "midi": 56,
                    "time": 78.53126950000005,
                    "velocity": 0.14960629921259844,
                    "duration": 0.5709767916666664
                },
                {
                    "name": "E3",
                    "midi": 52,
                    "time": 79.05832500000005,
                    "velocity": 0.2125984251968504,
                    "duration": 1.054111000000006
                },
                {
                    "name": "G#3",
                    "midi": 56,
                    "time": 79.58538050000006,
                    "velocity": 0.14960629921259844,
                    "duration": 0.527055500000003
                },
                {
                    "name": "B3",
                    "midi": 59,
                    "time": 80.11243600000006,
                    "velocity": 0.2125984251968504,
                    "duration": 0.5709767916666664
                },
                {
                    "name": "B2",
                    "midi": 47,
                    "time": 80.11243600000006,
                    "velocity": 0.23622047244094488,
                    "duration": 4.216444000000024
                },
                {
                    "name": "C#4",
                    "midi": 61,
                    "time": 80.63949150000006,
                    "velocity": 0.1732283464566929,
                    "duration": 0.5709767916666664
                },
                {
                    "name": "B3",
                    "midi": 59,
                    "time": 81.16654700000007,
                    "velocity": 0.2125984251968504,
                    "duration": 0.5709767916666664
                },
                {
                    "name": "F#3",
                    "midi": 54,
                    "time": 81.69360250000007,
                    "velocity": 0.14960629921259844,
                    "duration": 0.5709767916666664
                },
                {
                    "name": "D#3",
                    "midi": 51,
                    "time": 82.22065800000007,
                    "velocity": 0.2125984251968504,
                    "duration": 0.5709767916666664
                },
                {
                    "name": "D3",
                    "midi": 50,
                    "time": 82.74771350000007,
                    "velocity": 0.14960629921259844,
                    "duration": 0.5709767916666664
                },
                {
                    "name": "D#3",
                    "midi": 51,
                    "time": 83.27476900000008,
                    "velocity": 0.2125984251968504,
                    "duration": 0.5709767916666664
                },
                {
                    "name": "A3",
                    "midi": 57,
                    "time": 83.80182450000008,
                    "velocity": 0.15748031496062992,
                    "duration": 0.527055500000003
                },
                {
                    "name": "G#3",
                    "midi": 56,
                    "time": 84.32888000000008,
                    "velocity": 0.2125984251968504,
                    "duration": 0.5709767916666664
                },
                {
                    "name": "E3",
                    "midi": 52,
                    "time": 84.32888000000008,
                    "velocity": 0.2047244094488189,
                    "duration": 1.6250877916666724
                },
                {
                    "name": "F#3",
                    "midi": 54,
                    "time": 84.85593550000009,
                    "velocity": 0.1732283464566929,
                    "duration": 0.5709767916666664
                },
                {
                    "name": "E3",
                    "midi": 52,
                    "time": 85.38299100000009,
                    "velocity": 0.2125984251968504,
                    "duration": 3.162333000000018
                },
                {
                    "name": "F#3",
                    "midi": 54,
                    "time": 85.91004650000009,
                    "velocity": 0.14960629921259844,
                    "duration": 0.5709767916666664
                },
                {
                    "name": "G#3",
                    "midi": 56,
                    "time": 86.4371020000001,
                    "velocity": 0.2125984251968504,
                    "duration": 0.5709767916666664
                },
                {
                    "name": "G3",
                    "midi": 55,
                    "time": 86.9641575000001,
                    "velocity": 0.14960629921259844,
                    "duration": 0.5709767916666664
                },
                {
                    "name": "G#3",
                    "midi": 56,
                    "time": 87.4912130000001,
                    "velocity": 0.2125984251968504,
                    "duration": 0.5709767916666664
                },
                {
                    "name": "E3",
                    "midi": 52,
                    "time": 88.0182685000001,
                    "velocity": 0.15748031496062992,
                    "duration": 0.527055500000003
                },
                {
                    "name": "G#2",
                    "midi": 44,
                    "time": 88.54532400000011,
                    "velocity": 0.23622047244094488,
                    "duration": 4.216444000000024
                },
                {
                    "name": "F#3",
                    "midi": 54,
                    "time": 88.54532400000011,
                    "velocity": 0.2125984251968504,
                    "duration": 0.5709767916666664
                },
                {
                    "name": "E3",
                    "midi": 52,
                    "time": 89.07237950000011,
                    "velocity": 0.14960629921259844,
                    "duration": 0.5709767916666664
                },
                {
                    "name": "D#3",
                    "midi": 51,
                    "time": 89.59943500000011,
                    "velocity": 0.2125984251968504,
                    "duration": 0.5709767916666664
                },
                {
                    "name": "E3",
                    "midi": 52,
                    "time": 90.12649050000012,
                    "velocity": 0.14173228346456693,
                    "duration": 0.5709767916666664
                },
                {
                    "name": "F#3",
                    "midi": 54,
                    "time": 90.65354600000012,
                    "velocity": 0.2125984251968504,
                    "duration": 0.5709767916666664
                },
                {
                    "name": "E3",
                    "midi": 52,
                    "time": 91.18060150000012,
                    "velocity": 0.14960629921259844,
                    "duration": 0.5709767916666664
                },
                {
                    "name": "F#3",
                    "midi": 54,
                    "time": 91.70765700000013,
                    "velocity": 0.2125984251968504,
                    "duration": 0.5709767916666664
                },
                {
                    "name": "D#3",
                    "midi": 51,
                    "time": 92.23471250000013,
                    "velocity": 0.14960629921259844,
                    "duration": 0.527055500000003
                },
                {
                    "name": "C#3",
                    "midi": 49,
                    "time": 92.76176800000013,
                    "velocity": 0.30708661417322836,
                    "duration": 1.5811664999999948
                },
                {
                    "name": "A2",
                    "midi": 45,
                    "time": 92.76176800000013,
                    "velocity": 0.25984251968503935,
                    "duration": 4.216443999999996
                },
                {
                    "name": "D#3",
                    "midi": 51,
                    "time": 94.34293450000013,
                    "velocity": 0.28346456692913385,
                    "duration": 0.527055500000003
                },
                {
                    "name": "E3",
                    "midi": 52,
                    "time": 94.86999000000013,
                    "velocity": 0.3228346456692913,
                    "duration": 2.635277500000001
                },
                {
                    "name": "G#2",
                    "midi": 44,
                    "time": 96.97821200000013,
                    "velocity": 0.25984251968503935,
                    "duration": 1.581166500000009
                },
                {
                    "name": "D#3",
                    "midi": 51,
                    "time": 97.50526750000013,
                    "velocity": 0.31496062992125984,
                    "duration": 0.527055500000003
                },
                {
                    "name": "C3",
                    "midi": 48,
                    "time": 98.03232300000013,
                    "velocity": 0.31496062992125984,
                    "duration": 0.527055500000003
                },
                {
                    "name": "G#2",
                    "midi": 44,
                    "time": 98.55937850000014,
                    "velocity": 0.31496062992125984,
                    "duration": 0.527055500000003
                },
                {
                    "name": "E3",
                    "midi": 52,
                    "time": 99.08643400000014,
                    "velocity": 0.3543307086614173,
                    "duration": 2.635277500000001
                },
                {
                    "name": "A2",
                    "midi": 45,
                    "time": 99.08643400000014,
                    "velocity": 0.25984251968503935,
                    "duration": 2.108221999999998
                },
                {
                    "name": "G#2",
                    "midi": 44,
                    "time": 101.19465600000014,
                    "velocity": 0.25984251968503935,
                    "duration": 1.5767743708333342
                },
                {
                    "name": "D#3",
                    "midi": 51,
                    "time": 101.72171150000014,
                    "velocity": 0.29133858267716534,
                    "duration": 0.527055500000003
                },
                {
                    "name": "C3",
                    "midi": 48,
                    "time": 102.24876700000014,
                    "velocity": 0.29133858267716534,
                    "duration": 0.5270554999999888
                },
                {
                    "name": "G#2",
                    "midi": 44,
                    "time": 102.77582250000013,
                    "velocity": 0.28346456692913385,
                    "duration": 3.689388500000007
                },
                {
                    "name": "E3",
                    "midi": 52,
                    "time": 103.30287800000013,
                    "velocity": 0.33070866141732286,
                    "duration": 2.635277500000001
                },
                {
                    "name": "A2",
                    "midi": 45,
                    "time": 103.30287800000013,
                    "velocity": 0.2440944881889764,
                    "duration": 2.108221999999998
                },
                {
                    "name": "D#3",
                    "midi": 51,
                    "time": 105.93815550000014,
                    "velocity": 0.2440944881889764,
                    "duration": 0.5709767916666664
                },
                {
                    "name": "C3",
                    "midi": 48,
                    "time": 106.46521100000014,
                    "velocity": 0.2755905511811024,
                    "duration": 0.5709767916666664
                },
                {
                    "name": "G#2",
                    "midi": 44,
                    "time": 106.99226650000014,
                    "velocity": 0.2992125984251969,
                    "duration": 0.527055500000003
                },
                {
                    "name": "G#3",
                    "midi": 56,
                    "time": 107.51932200000014,
                    "velocity": 0.3543307086614173,
                    "duration": 0.5709767916666664
                },
                {
                    "name": "F#3",
                    "midi": 54,
                    "time": 108.04637750000015,
                    "velocity": 0.2992125984251969,
                    "duration": 0.5709767916666664
                },
                {
                    "name": "B2",
                    "midi": 47,
                    "time": 108.57343300000015,
                    "velocity": 0.25984251968503935,
                    "duration": 1.054111000000006
                },
                {
                    "name": "D#3",
                    "midi": 51,
                    "time": 108.57343300000015,
                    "velocity": 0.23622047244094488,
                    "duration": 0.5709767916666664
                },
                {
                    "name": "A3",
                    "midi": 57,
                    "time": 109.10048850000015,
                    "velocity": 0.2440944881889764,
                    "duration": 0.527055500000003
                },
                {
                    "name": "G#3",
                    "midi": 56,
                    "time": 109.62754400000016,
                    "velocity": 0.2125984251968504,
                    "duration": 0.5709767916666664
                },
                {
                    "name": "E3",
                    "midi": 52,
                    "time": 109.62754400000016,
                    "velocity": 0.2047244094488189,
                    "duration": 4.216444000000024
                },
                {
                    "name": "A3",
                    "midi": 57,
                    "time": 110.15459950000016,
                    "velocity": 0.1732283464566929,
                    "duration": 0.5709767916666664
                },
                {
                    "name": "G#3",
                    "midi": 56,
                    "time": 110.68165500000016,
                    "velocity": 0.2125984251968504,
                    "duration": 0.5709767916666664
                },
                {
                    "name": "A3",
                    "midi": 57,
                    "time": 111.20871050000017,
                    "velocity": 0.14960629921259844,
                    "duration": 0.5709767916666664
                },
                {
                    "name": "B3",
                    "midi": 59,
                    "time": 111.73576600000017,
                    "velocity": 0.2125984251968504,
                    "duration": 0.5709767916666664
                },
                {
                    "name": "A3",
                    "midi": 57,
                    "time": 112.26282150000017,
                    "velocity": 0.14960629921259844,
                    "duration": 0.5709767916666664
                },
                {
                    "name": "B3",
                    "midi": 59,
                    "time": 112.78987700000017,
                    "velocity": 0.2125984251968504,
                    "duration": 0.5709767916666664
                },
                {
                    "name": "G#3",
                    "midi": 56,
                    "time": 113.31693250000018,
                    "velocity": 0.15748031496062992,
                    "duration": 0.527055500000003
                },
                {
                    "name": "F#3",
                    "midi": 54,
                    "time": 113.84398800000018,
                    "velocity": 0.2125984251968504,
                    "duration": 0.527055500000003
                },
                {
                    "name": "B2",
                    "midi": 47,
                    "time": 113.84398800000018,
                    "velocity": 0.23622047244094488,
                    "duration": 4.216444000000024
                },
                {
                    "name": "G#3",
                    "midi": 56,
                    "time": 114.37104350000018,
                    "velocity": 0.14960629921259844,
                    "duration": 0.5709767916666664
                },
                {
                    "name": "F#3",
                    "midi": 54,
                    "time": 114.89809900000019,
                    "velocity": 0.2125984251968504,
                    "duration": 0.527055500000003
                },
                {
                    "name": "G#3",
                    "midi": 56,
                    "time": 115.42515450000019,
                    "velocity": 0.14173228346456693,
                    "duration": 0.5709767916666664
                },
                {
                    "name": "A3",
                    "midi": 57,
                    "time": 115.95221000000019,
                    "velocity": 0.2125984251968504,
                    "duration": 0.5709767916666664
                },
                {
                    "name": "G#3",
                    "midi": 56,
                    "time": 116.4792655000002,
                    "velocity": 0.14960629921259844,
                    "duration": 0.5709767916666664
                },
                {
                    "name": "A3",
                    "midi": 57,
                    "time": 117.0063210000002,
                    "velocity": 0.2125984251968504,
                    "duration": 0.5709767916666664
                },
                {
                    "name": "F#3",
                    "midi": 54,
                    "time": 117.5333765000002,
                    "velocity": 0.14960629921259844,
                    "duration": 0.527055500000003
                },
                {
                    "name": "G#3",
                    "midi": 56,
                    "time": 118.0604320000002,
                    "velocity": 0.2125984251968504,
                    "duration": 0.5709767916666664
                },
                {
                    "name": "E3",
                    "midi": 52,
                    "time": 118.0604320000002,
                    "velocity": 0.25984251968503935,
                    "duration": 3.7333097916666844
                },
                {
                    "name": "A3",
                    "midi": 57,
                    "time": 118.58748750000021,
                    "velocity": 0.14173228346456693,
                    "duration": 0.5709767916666664
                },
                {
                    "name": "G#3",
                    "midi": 56,
                    "time": 119.11454300000021,
                    "velocity": 0.2125984251968504,
                    "duration": 0.5709767916666664
                },
                {
                    "name": "A3",
                    "midi": 57,
                    "time": 119.64159850000021,
                    "velocity": 0.14960629921259844,
                    "duration": 0.5709767916666664
                },
                {
                    "name": "B3",
                    "midi": 59,
                    "time": 120.16865400000022,
                    "velocity": 0.2125984251968504,
                    "duration": 0.5709767916666664
                },
                {
                    "name": "G#3",
                    "midi": 56,
                    "time": 120.69570950000022,
                    "velocity": 0.14960629921259844,
                    "duration": 0.5709767916666664
                },
                {
                    "name": "E3",
                    "midi": 52,
                    "time": 121.22276500000022,
                    "velocity": 0.2125984251968504,
                    "duration": 1.054111000000006
                },
                {
                    "name": "G#3",
                    "midi": 56,
                    "time": 121.74982050000023,
                    "velocity": 0.14960629921259844,
                    "duration": 0.527055500000003
                },
                {
                    "name": "B3",
                    "midi": 59,
                    "time": 122.27687600000023,
                    "velocity": 0.2125984251968504,
                    "duration": 0.5709767916666664
                },
                {
                    "name": "B2",
                    "midi": 47,
                    "time": 122.27687600000023,
                    "velocity": 0.23622047244094488,
                    "duration": 3.162333000000004
                },
                {
                    "name": "C#4",
                    "midi": 61,
                    "time": 122.80393150000023,
                    "velocity": 0.1732283464566929,
                    "duration": 0.5709767916666664
                },
                {
                    "name": "B3",
                    "midi": 59,
                    "time": 123.33098700000023,
                    "velocity": 0.2125984251968504,
                    "duration": 0.5709767916666664
                },
                {
                    "name": "F#3",
                    "midi": 54,
                    "time": 123.85804250000024,
                    "velocity": 0.14960629921259844,
                    "duration": 0.5709767916666664
                },
                {
                    "name": "B3",
                    "midi": 59,
                    "time": 124.38509800000024,
                    "velocity": 0.2125984251968504,
                    "duration": 0.5248594354166585
                },
                {
                    "name": "D#3",
                    "midi": 51,
                    "time": 124.91215350000023,
                    "velocity": 0.14960629921259844,
                    "duration": 0.527055500000003
                },
                {
                    "name": "A2",
                    "midi": 45,
                    "time": 125.43920900000023,
                    "velocity": 0.23622047244094488,
                    "duration": 1.054111000000006
                },
                {
                    "name": "E3",
                    "midi": 52,
                    "time": 125.43920900000023,
                    "velocity": 0.2125984251968504,
                    "duration": 0.5709767916666664
                },
                {
                    "name": "D#3",
                    "midi": 51,
                    "time": 125.96626450000024,
                    "velocity": 0.15748031496062992,
                    "duration": 0.527055500000003
                },
                {
                    "name": "D#3",
                    "midi": 51,
                    "time": 126.49332000000024,
                    "velocity": 0.2125984251968504,
                    "duration": 0.5709767916666664
                },
                {
                    "name": "G#2",
                    "midi": 44,
                    "time": 126.49332000000024,
                    "velocity": 0.2047244094488189,
                    "duration": 2.1082219999999836
                },
                {
                    "name": "C3",
                    "midi": 48,
                    "time": 127.02037550000024,
                    "velocity": 0.1732283464566929,
                    "duration": 0.5709767916666664
                },
                {
                    "name": "B2",
                    "midi": 47,
                    "time": 127.54743100000024,
                    "velocity": 0.2125984251968504,
                    "duration": 0.5709767916666522
                },
                {
                    "name": "C3",
                    "midi": 48,
                    "time": 128.07448650000023,
                    "velocity": 0.14960629921259844,
                    "duration": 0.5270554999999888
                },
                {
                    "name": "F#2",
                    "midi": 42,
                    "time": 128.60154200000022,
                    "velocity": 0.2047244094488189,
                    "duration": 1.0541109999999776
                },
                {
                    "name": "C#3",
                    "midi": 49,
                    "time": 128.60154200000022,
                    "velocity": 0.23622047244094488,
                    "duration": 0.5709767916666522
                },
                {
                    "name": "E3",
                    "midi": 52,
                    "time": 129.1285975000002,
                    "velocity": 0.1968503937007874,
                    "duration": 0.5709767916666522
                },
                {
                    "name": "D#3",
                    "midi": 51,
                    "time": 129.6556530000002,
                    "velocity": 0.23622047244094488,
                    "duration": 0.5709767916666522
                },
                {
                    "name": "F#2",
                    "midi": 42,
                    "time": 129.6556530000002,
                    "velocity": 0.2047244094488189,
                    "duration": 1.0541109999999776
                },
                {
                    "name": "E3",
                    "midi": 52,
                    "time": 130.1827085000002,
                    "velocity": 0.1968503937007874,
                    "duration": 0.5270554999999888
                },
                {
                    "name": "G#2",
                    "midi": 44,
                    "time": 130.70976400000018,
                    "velocity": 0.23622047244094488,
                    "duration": 2.108221999999955
                },
                {
                    "name": "D#3",
                    "midi": 51,
                    "time": 130.70976400000018,
                    "velocity": 0.2125984251968504,
                    "duration": 0.5709767916666522
                },
                {
                    "name": "C3",
                    "midi": 48,
                    "time": 131.23681950000017,
                    "velocity": 0.14960629921259844,
                    "duration": 0.5709767916666522
                },
                {
                    "name": "B2",
                    "midi": 47,
                    "time": 131.76387500000016,
                    "velocity": 0.2125984251968504,
                    "duration": 0.5709767916666522
                },
                {
                    "name": "C3",
                    "midi": 48,
                    "time": 132.29093050000014,
                    "velocity": 0.14173228346456693,
                    "duration": 0.5709767916666522
                },
                {
                    "name": "F#2",
                    "midi": 42,
                    "time": 132.81798600000013,
                    "velocity": 0.2047244094488189,
                    "duration": 1.0541109999999776
                },
                {
                    "name": "C#3",
                    "midi": 49,
                    "time": 132.81798600000013,
                    "velocity": 0.25984251968503935,
                    "duration": 0.5709767916666522
                },
                {
                    "name": "E3",
                    "midi": 52,
                    "time": 133.34504150000012,
                    "velocity": 0.1732283464566929,
                    "duration": 0.5709767916666522
                },
                {
                    "name": "F#2",
                    "midi": 42,
                    "time": 133.8720970000001,
                    "velocity": 0.2047244094488189,
                    "duration": 1.0541109999999776
                },
                {
                    "name": "D#3",
                    "midi": 51,
                    "time": 133.8720970000001,
                    "velocity": 0.2283464566929134,
                    "duration": 0.5709767916666522
                },
                {
                    "name": "E3",
                    "midi": 52,
                    "time": 134.3991525000001,
                    "velocity": 0.15748031496062992,
                    "duration": 0.5270554999999888
                },
                {
                    "name": "G#2",
                    "midi": 44,
                    "time": 134.9262080000001,
                    "velocity": 0.2047244094488189,
                    "duration": 1.054111000000006
                },
                {
                    "name": "D#3",
                    "midi": 51,
                    "time": 134.9262080000001,
                    "velocity": 0.2047244094488189,
                    "duration": 1.054111000000006
                },
                {
                    "name": "G#3",
                    "midi": 56,
                    "time": 135.9803190000001,
                    "velocity": 0.2047244094488189,
                    "duration": 4.216443999999996
                },
                {
                    "name": "G#2",
                    "midi": 44,
                    "time": 140.1967630000001,
                    "velocity": 0.2047244094488189,
                    "duration": 3.1623329999999896
                },
                {
                    "name": "C#2",
                    "midi": 37,
                    "time": 143.35909600000008,
                    "velocity": 0.2125984251968504,
                    "duration": 0.307449041666672
                },
                {
                    "name": "C2",
                    "midi": 36,
                    "time": 143.6226237500001,
                    "velocity": 0.1732283464566929,
                    "duration": 0.307449041666672
                },
                {
                    "name": "C#2",
                    "midi": 37,
                    "time": 143.8861515000001,
                    "velocity": 0.2125984251968504,
                    "duration": 0.307449041666672
                },
                {
                    "name": "C2",
                    "midi": 36,
                    "time": 144.1496792500001,
                    "velocity": 0.18110236220472442,
                    "duration": 0.307449041666672
                },
                {
                    "name": "C#2",
                    "midi": 37,
                    "time": 144.4132070000001,
                    "velocity": 0.2204724409448819,
                    "duration": 0.307449041666672
                },
                {
                    "name": "C2",
                    "midi": 36,
                    "time": 144.67673475000012,
                    "velocity": 0.1968503937007874,
                    "duration": 0.307449041666672
                },
                {
                    "name": "C#2",
                    "midi": 37,
                    "time": 144.94026250000013,
                    "velocity": 0.2204724409448819,
                    "duration": 0.307449041666672
                },
                {
                    "name": "C2",
                    "midi": 36,
                    "time": 145.20379025000014,
                    "velocity": 0.2047244094488189,
                    "duration": 0.307449041666672
                },
                {
                    "name": "C#2",
                    "midi": 37,
                    "time": 145.46731800000015,
                    "velocity": 0.2283464566929134,
                    "duration": 0.307449041666672
                },
                {
                    "name": "C2",
                    "midi": 36,
                    "time": 145.73084575000016,
                    "velocity": 0.18110236220472442,
                    "duration": 0.307449041666672
                },
                {
                    "name": "C#2",
                    "midi": 37,
                    "time": 145.99437350000017,
                    "velocity": 0.2283464566929134,
                    "duration": 0.307449041666672
                },
                {
                    "name": "C2",
                    "midi": 36,
                    "time": 146.25790125000017,
                    "velocity": 0.1968503937007874,
                    "duration": 0.307449041666672
                },
                {
                    "name": "C#2",
                    "midi": 37,
                    "time": 146.52142900000018,
                    "velocity": 0.23622047244094488,
                    "duration": 0.307449041666672
                },
                {
                    "name": "C2",
                    "midi": 36,
                    "time": 146.7849567500002,
                    "velocity": 0.2125984251968504,
                    "duration": 0.307449041666672
                },
                {
                    "name": "C#2",
                    "midi": 37,
                    "time": 147.0484845000002,
                    "velocity": 0.23622047244094488,
                    "duration": 0.307449041666672
                },
                {
                    "name": "C2",
                    "midi": 36,
                    "time": 147.3120122500002,
                    "velocity": 0.2204724409448819,
                    "duration": 0.2635277500000086
                },
                {
                    "name": "C#2",
                    "midi": 37,
                    "time": 147.57554000000022,
                    "velocity": 0.2440944881889764,
                    "duration": 0.307449041666672
                },
                {
                    "name": "C2",
                    "midi": 36,
                    "time": 147.83906775000023,
                    "velocity": 0.1968503937007874,
                    "duration": 0.307449041666672
                },
                {
                    "name": "C#2",
                    "midi": 37,
                    "time": 148.10259550000023,
                    "velocity": 0.2440944881889764,
                    "duration": 0.307449041666672
                },
                {
                    "name": "C2",
                    "midi": 36,
                    "time": 148.36612325000024,
                    "velocity": 0.2125984251968504,
                    "duration": 0.307449041666672
                },
                {
                    "name": "C#2",
                    "midi": 37,
                    "time": 148.62965100000025,
                    "velocity": 0.25196850393700787,
                    "duration": 0.307449041666672
                },
                {
                    "name": "C2",
                    "midi": 36,
                    "time": 148.89317875000026,
                    "velocity": 0.2204724409448819,
                    "duration": 0.307449041666672
                },
                {
                    "name": "C#2",
                    "midi": 37,
                    "time": 149.15670650000027,
                    "velocity": 0.2440944881889764,
                    "duration": 0.307449041666672
                },
                {
                    "name": "C2",
                    "midi": 36,
                    "time": 149.42023425000028,
                    "velocity": 0.2283464566929134,
                    "duration": 0.307449041666672
                },
                {
                    "name": "C#2",
                    "midi": 37,
                    "time": 149.68376200000029,
                    "velocity": 0.23622047244094488,
                    "duration": 0.307449041666672
                },
                {
                    "name": "C2",
                    "midi": 36,
                    "time": 149.9472897500003,
                    "velocity": 0.1889763779527559,
                    "duration": 0.307449041666672
                },
                {
                    "name": "C#2",
                    "midi": 37,
                    "time": 150.2108175000003,
                    "velocity": 0.2283464566929134,
                    "duration": 0.307449041666672
                },
                {
                    "name": "C2",
                    "midi": 36,
                    "time": 150.4743452500003,
                    "velocity": 0.1968503937007874,
                    "duration": 0.307449041666672
                },
                {
                    "name": "C#2",
                    "midi": 37,
                    "time": 150.73787300000032,
                    "velocity": 0.2204724409448819,
                    "duration": 0.307449041666672
                },
                {
                    "name": "C2",
                    "midi": 36,
                    "time": 151.00140075000033,
                    "velocity": 0.1968503937007874,
                    "duration": 0.307449041666672
                },
                {
                    "name": "C#2",
                    "midi": 37,
                    "time": 151.26492850000034,
                    "velocity": 0.2204724409448819,
                    "duration": 0.307449041666672
                },
                {
                    "name": "B1",
                    "midi": 35,
                    "time": 151.52845625000035,
                    "velocity": 0.1968503937007874,
                    "duration": 0.307449041666672
                },
                {
                    "name": "A1",
                    "midi": 33,
                    "time": 151.79198400000035,
                    "velocity": 0.2125984251968504,
                    "duration": 0.307449041666672
                },
                {
                    "name": "G#1",
                    "midi": 32,
                    "time": 152.05551175000036,
                    "velocity": 0.1732283464566929,
                    "duration": 0.307449041666672
                },
                {
                    "name": "A1",
                    "midi": 33,
                    "time": 152.31903950000037,
                    "velocity": 0.2125984251968504,
                    "duration": 0.307449041666672
                },
                {
                    "name": "G#1",
                    "midi": 32,
                    "time": 152.58256725000038,
                    "velocity": 0.18110236220472442,
                    "duration": 0.307449041666672
                },
                {
                    "name": "A1",
                    "midi": 33,
                    "time": 152.8460950000004,
                    "velocity": 0.2125984251968504,
                    "duration": 0.307449041666672
                },
                {
                    "name": "G#1",
                    "midi": 32,
                    "time": 153.1096227500004,
                    "velocity": 0.1968503937007874,
                    "duration": 0.307449041666672
                },
                {
                    "name": "A1",
                    "midi": 33,
                    "time": 153.3731505000004,
                    "velocity": 0.2283464566929134,
                    "duration": 0.307449041666672
                },
                {
                    "name": "G#1",
                    "midi": 32,
                    "time": 153.63667825000041,
                    "velocity": 0.2047244094488189,
                    "duration": 0.307449041666672
                },
                {
                    "name": "A1",
                    "midi": 33,
                    "time": 153.90020600000042,
                    "velocity": 0.23622047244094488,
                    "duration": 0.307449041666672
                },
                {
                    "name": "G#1",
                    "midi": 32,
                    "time": 154.16373375000043,
                    "velocity": 0.18110236220472442,
                    "duration": 0.307449041666672
                },
                {
                    "name": "A1",
                    "midi": 33,
                    "time": 154.42726150000044,
                    "velocity": 0.23622047244094488,
                    "duration": 0.307449041666672
                },
                {
                    "name": "G#1",
                    "midi": 32,
                    "time": 154.69078925000045,
                    "velocity": 0.1968503937007874,
                    "duration": 0.307449041666672
                },
                {
                    "name": "A1",
                    "midi": 33,
                    "time": 154.95431700000046,
                    "velocity": 0.2440944881889764,
                    "duration": 0.307449041666672
                },
                {
                    "name": "G#1",
                    "midi": 32,
                    "time": 155.21784475000047,
                    "velocity": 0.2125984251968504,
                    "duration": 0.307449041666672
                },
                {
                    "name": "A1",
                    "midi": 33,
                    "time": 155.48137250000048,
                    "velocity": 0.2440944881889764,
                    "duration": 0.307449041666672
                },
                {
                    "name": "G#1",
                    "midi": 32,
                    "time": 155.74490025000048,
                    "velocity": 0.2125984251968504,
                    "duration": 0.2635277500000086
                },
                {
                    "name": "A1",
                    "midi": 33,
                    "time": 156.0084280000005,
                    "velocity": 0.25196850393700787,
                    "duration": 0.307449041666672
                },
                {
                    "name": "G#1",
                    "midi": 32,
                    "time": 156.2719557500005,
                    "velocity": 0.1968503937007874,
                    "duration": 0.307449041666672
                },
                {
                    "name": "A1",
                    "midi": 33,
                    "time": 156.5354835000005,
                    "velocity": 0.25196850393700787,
                    "duration": 0.307449041666672
                },
                {
                    "name": "G#1",
                    "midi": 32,
                    "time": 156.79901125000052,
                    "velocity": 0.2047244094488189,
                    "duration": 0.307449041666672
                },
                {
                    "name": "A1",
                    "midi": 33,
                    "time": 157.06253900000053,
                    "velocity": 0.25196850393700787,
                    "duration": 0.307449041666672
                },
                {
                    "name": "G#1",
                    "midi": 32,
                    "time": 157.32606675000054,
                    "velocity": 0.2125984251968504,
                    "duration": 0.307449041666672
                },
                {
                    "name": "A1",
                    "midi": 33,
                    "time": 157.58959450000054,
                    "velocity": 0.25196850393700787,
                    "duration": 0.307449041666672
                },
                {
                    "name": "G#1",
                    "midi": 32,
                    "time": 157.85312225000055,
                    "velocity": 0.2125984251968504,
                    "duration": 0.307449041666672
                },
                {
                    "name": "A1",
                    "midi": 33,
                    "time": 158.11665000000056,
                    "velocity": 0.25196850393700787,
                    "duration": 0.307449041666672
                },
                {
                    "name": "G#1",
                    "midi": 32,
                    "time": 158.38017775000057,
                    "velocity": 0.1968503937007874,
                    "duration": 0.307449041666672
                },
                {
                    "name": "A1",
                    "midi": 33,
                    "time": 158.64370550000058,
                    "velocity": 0.25196850393700787,
                    "duration": 0.307449041666672
                },
                {
                    "name": "G#1",
                    "midi": 32,
                    "time": 158.9072332500006,
                    "velocity": 0.2047244094488189,
                    "duration": 0.307449041666672
                },
                {
                    "name": "A1",
                    "midi": 33,
                    "time": 159.1707610000006,
                    "velocity": 0.25196850393700787,
                    "duration": 0.307449041666672
                },
                {
                    "name": "G#1",
                    "midi": 32,
                    "time": 159.4342887500006,
                    "velocity": 0.2125984251968504,
                    "duration": 0.307449041666672
                },
                {
                    "name": "A1",
                    "midi": 33,
                    "time": 159.6978165000006,
                    "velocity": 0.25196850393700787,
                    "duration": 0.307449041666672
                },
                {
                    "name": "G#1",
                    "midi": 32,
                    "time": 159.96134425000062,
                    "velocity": 0.2125984251968504,
                    "duration": 0.307449041666672
                },
                {
                    "name": "F#1",
                    "midi": 30,
                    "time": 160.22487200000063,
                    "velocity": 0.25196850393700787,
                    "duration": 0.307449041666672
                },
                {
                    "name": "F1",
                    "midi": 29,
                    "time": 160.48839975000064,
                    "velocity": 0.1968503937007874,
                    "duration": 0.307449041666672
                },
                {
                    "name": "F#1",
                    "midi": 30,
                    "time": 160.75192750000065,
                    "velocity": 0.25196850393700787,
                    "duration": 0.307449041666672
                },
                {
                    "name": "F1",
                    "midi": 29,
                    "time": 161.01545525000066,
                    "velocity": 0.2047244094488189,
                    "duration": 0.307449041666672
                },
                {
                    "name": "F#1",
                    "midi": 30,
                    "time": 161.27898300000066,
                    "velocity": 0.25984251968503935,
                    "duration": 0.307449041666672
                },
                {
                    "name": "F1",
                    "midi": 29,
                    "time": 161.54251075000067,
                    "velocity": 0.2125984251968504,
                    "duration": 0.307449041666672
                },
                {
                    "name": "F#1",
                    "midi": 30,
                    "time": 161.80603850000068,
                    "velocity": 0.25984251968503935,
                    "duration": 0.307449041666672
                },
                {
                    "name": "F1",
                    "midi": 29,
                    "time": 162.0695662500007,
                    "velocity": 0.2283464566929134,
                    "duration": 0.307449041666672
                },
                {
                    "name": "F#1",
                    "midi": 30,
                    "time": 162.3330940000007,
                    "velocity": 0.2677165354330709,
                    "duration": 0.307449041666672
                },
                {
                    "name": "F1",
                    "midi": 29,
                    "time": 162.5966217500007,
                    "velocity": 0.2047244094488189,
                    "duration": 0.307449041666672
                },
                {
                    "name": "F#1",
                    "midi": 30,
                    "time": 162.86014950000072,
                    "velocity": 0.2677165354330709,
                    "duration": 0.307449041666672
                },
                {
                    "name": "F1",
                    "midi": 29,
                    "time": 163.12367725000072,
                    "velocity": 0.2204724409448819,
                    "duration": 0.307449041666672
                },
                {
                    "name": "F#1",
                    "midi": 30,
                    "time": 163.38720500000073,
                    "velocity": 0.2755905511811024,
                    "duration": 0.307449041666672
                },
                {
                    "name": "F1",
                    "midi": 29,
                    "time": 163.65073275000074,
                    "velocity": 0.23622047244094488,
                    "duration": 0.307449041666672
                },
                {
                    "name": "F#1",
                    "midi": 30,
                    "time": 163.91426050000075,
                    "velocity": 0.29133858267716534,
                    "duration": 0.307449041666672
                },
                {
                    "name": "F1",
                    "midi": 29,
                    "time": 164.17778825000076,
                    "velocity": 0.25984251968503935,
                    "duration": 0.2635277500000086
                },
                {
                    "name": "F#1",
                    "midi": 30,
                    "time": 164.44131600000077,
                    "velocity": 0.2992125984251969,
                    "duration": 0.2635277499999802
                },
                {
                    "name": "F1",
                    "midi": 29,
                    "time": 164.70484375000075,
                    "velocity": 0.23622047244094488,
                    "duration": 0.2635277500000086
                },
                {
                    "name": "F#1",
                    "midi": 30,
                    "time": 164.96837150000076,
                    "velocity": 0.30708661417322836,
                    "duration": 0.2635277500000086
                },
                {
                    "name": "G#1",
                    "midi": 32,
                    "time": 165.23189925000077,
                    "velocity": 0.25984251968503935,
                    "duration": 0.2635277500000086
                },
                {
                    "name": "A1",
                    "midi": 33,
                    "time": 165.49542700000077,
                    "velocity": 0.31496062992125984,
                    "duration": 0.2635277500000086
                },
                {
                    "name": "G#1",
                    "midi": 32,
                    "time": 165.75895475000078,
                    "velocity": 0.2755905511811024,
                    "duration": 0.2635277500000086
                },
                {
                    "name": "A1",
                    "midi": 33,
                    "time": 166.0224825000008,
                    "velocity": 0.3228346456692913,
                    "duration": 0.2635277500000086
                },
                {
                    "name": "C#2",
                    "midi": 37,
                    "time": 166.2860102500008,
                    "velocity": 0.29133858267716534,
                    "duration": 0.2635277500000086
                },
                {
                    "name": "D2",
                    "midi": 38,
                    "time": 166.5495380000008,
                    "velocity": 0.33070866141732286,
                    "duration": 0.2635277500000086
                },
                {
                    "name": "C#2",
                    "midi": 37,
                    "time": 166.81306575000082,
                    "velocity": 0.2677165354330709,
                    "duration": 0.2635277500000086
                },
                {
                    "name": "D2",
                    "midi": 38,
                    "time": 167.07659350000083,
                    "velocity": 0.3464566929133858,
                    "duration": 0.2635277500000086
                },
                {
                    "name": "F2",
                    "midi": 41,
                    "time": 167.34012125000083,
                    "velocity": 0.28346456692913385,
                    "duration": 0.2635277500000086
                },
                {
                    "name": "F#2",
                    "midi": 42,
                    "time": 167.60364900000084,
                    "velocity": 0.3543307086614173,
                    "duration": 0.2635277500000086
                },
                {
                    "name": "F2",
                    "midi": 41,
                    "time": 167.86717675000085,
                    "velocity": 0.2992125984251969,
                    "duration": 0.2635277500000086
                },
                {
                    "name": "F#2",
                    "midi": 42,
                    "time": 168.13070450000086,
                    "velocity": 0.3543307086614173,
                    "duration": 0.2635277500000086
                },
                {
                    "name": "A2",
                    "midi": 45,
                    "time": 168.39423225000087,
                    "velocity": 0.31496062992125984,
                    "duration": 0.2635277500000086
                },
                {
                    "name": "G#2",
                    "midi": 44,
                    "time": 168.65776000000088,
                    "velocity": 0.3937007874015748,
                    "duration": 0.2635277499999802
                },
                {
                    "name": "G2",
                    "midi": 43,
                    "time": 168.92128775000086,
                    "velocity": 0.4015748031496063,
                    "duration": 0.2635277500000086
                },
                {
                    "name": "G#2",
                    "midi": 44,
                    "time": 169.18481550000087,
                    "velocity": 0.4015748031496063,
                    "duration": 0.2635277500000086
                },
                {
                    "name": "G2",
                    "midi": 43,
                    "time": 169.44834325000087,
                    "velocity": 0.4094488188976378,
                    "duration": 0.2635277500000086
                },
                {
                    "name": "G#2",
                    "midi": 44,
                    "time": 169.71187100000088,
                    "velocity": 0.41732283464566927,
                    "duration": 0.2635277500000086
                },
                {
                    "name": "G2",
                    "midi": 43,
                    "time": 169.9753987500009,
                    "velocity": 0.4330708661417323,
                    "duration": 0.2635277500000086
                },
                {
                    "name": "G#2",
                    "midi": 44,
                    "time": 170.2389265000009,
                    "velocity": 0.4330708661417323,
                    "duration": 0.2635277500000086
                },
                {
                    "name": "F#2",
                    "midi": 42,
                    "time": 170.5024542500009,
                    "velocity": 0.44881889763779526,
                    "duration": 0.2635277500000086
                },
                {
                    "name": "E2",
                    "midi": 40,
                    "time": 170.76598200000092,
                    "velocity": 0.4566929133858268,
                    "duration": 0.2635277500000086
                },
                {
                    "name": "D#2",
                    "midi": 39,
                    "time": 171.02950975000093,
                    "velocity": 0.4645669291338583,
                    "duration": 0.2635277500000086
                },
                {
                    "name": "E2",
                    "midi": 40,
                    "time": 171.29303750000093,
                    "velocity": 0.4645669291338583,
                    "duration": 0.2635277500000086
                },
                {
                    "name": "D#2",
                    "midi": 39,
                    "time": 171.55656525000094,
                    "velocity": 0.47244094488188976,
                    "duration": 0.2635277500000086
                },
                {
                    "name": "E2",
                    "midi": 40,
                    "time": 171.82009300000095,
                    "velocity": 0.48031496062992124,
                    "duration": 0.2635277500000086
                },
                {
                    "name": "D#2",
                    "midi": 39,
                    "time": 172.08362075000096,
                    "velocity": 0.49606299212598426,
                    "duration": 0.2635277500000086
                },
                {
                    "name": "E2",
                    "midi": 40,
                    "time": 172.34714850000097,
                    "velocity": 0.5039370078740157,
                    "duration": 0.2635277500000086
                },
                {
                    "name": "D#2",
                    "midi": 39,
                    "time": 172.61067625000098,
                    "velocity": 0.5039370078740157,
                    "duration": 0.2635277500000086
                },
                {
                    "name": "C#2",
                    "midi": 37,
                    "time": 172.874204000001,
                    "velocity": 0.5196850393700787,
                    "duration": 0.2635277500000086
                },
                {
                    "name": "C2",
                    "midi": 36,
                    "time": 173.137731750001,
                    "velocity": 0.5275590551181102,
                    "duration": 0.2635277500000086
                },
                {
                    "name": "C#2",
                    "midi": 37,
                    "time": 173.401259500001,
                    "velocity": 0.5433070866141733,
                    "duration": 0.2635277500000086
                },
                {
                    "name": "C2",
                    "midi": 36,
                    "time": 173.664787250001,
                    "velocity": 0.5433070866141733,
                    "duration": 0.2635277500000086
                },
                {
                    "name": "C#2",
                    "midi": 37,
                    "time": 173.92831500000102,
                    "velocity": 0.5511811023622047,
                    "duration": 0.2635277500000086
                },
                {
                    "name": "C2",
                    "midi": 36,
                    "time": 174.19184275000103,
                    "velocity": 0.5590551181102362,
                    "duration": 0.2635277500000086
                },
                {
                    "name": "C#2",
                    "midi": 37,
                    "time": 174.45537050000104,
                    "velocity": 0.5669291338582677,
                    "duration": 0.2635277500000086
                },
                {
                    "name": "B1",
                    "midi": 35,
                    "time": 174.71889825000105,
                    "velocity": 0.5826771653543307,
                    "duration": 0.2635277500000086
                },
                {
                    "name": "A1",
                    "midi": 33,
                    "time": 174.98242600000106,
                    "velocity": 0.5826771653543307,
                    "duration": 0.2635277500000086
                },
                {
                    "name": "G#1",
                    "midi": 32,
                    "time": 175.24595375000106,
                    "velocity": 0.5905511811023622,
                    "duration": 0.2635277500000086
                },
                {
                    "name": "A1",
                    "midi": 33,
                    "time": 175.50948150000107,
                    "velocity": 0.6141732283464567,
                    "duration": 0.2635277500000086
                },
                {
                    "name": "G#1",
                    "midi": 32,
                    "time": 175.77300925000108,
                    "velocity": 0.6220472440944882,
                    "duration": 0.2635277500000086
                },
                {
                    "name": "A1",
                    "midi": 33,
                    "time": 176.0365370000011,
                    "velocity": 0.6220472440944882,
                    "duration": 0.2635277500000086
                },
                {
                    "name": "C#2",
                    "midi": 37,
                    "time": 176.3000647500011,
                    "velocity": 0.6377952755905512,
                    "duration": 0.2635277500000086
                },
                {
                    "name": "D#2",
                    "midi": 39,
                    "time": 176.5635925000011,
                    "velocity": 0.6456692913385826,
                    "duration": 0.2635277500000086
                },
                {
                    "name": "A2",
                    "midi": 45,
                    "time": 176.82712025000112,
                    "velocity": 0.6535433070866141,
                    "duration": 0.2635277500000086
                },
                {
                    "name": "G#1",
                    "midi": 32,
                    "time": 177.09064800000112,
                    "velocity": 0.6299212598425197,
                    "duration": 1.054111000000006
                },
                {
                    "name": "G#2",
                    "midi": 44,
                    "time": 177.09064800000112,
                    "velocity": 0.7401574803149606,
                    "duration": 1.054111000000006
                },
                {
                    "name": "G#1",
                    "midi": 32,
                    "time": 178.67181450000112,
                    "velocity": 0.5433070866141733,
                    "duration": 0.2635277500000086
                },
                {
                    "name": "G#2",
                    "midi": 44,
                    "time": 178.67181450000112,
                    "velocity": 0.6456692913385826,
                    "duration": 0.2635277500000086
                },
                {
                    "name": "E2",
                    "midi": 40,
                    "time": 179.19887000000114,
                    "velocity": 0.5826771653543307,
                    "duration": 0.2635277500000086
                },
                {
                    "name": "E3",
                    "midi": 52,
                    "time": 179.19887000000114,
                    "velocity": 0.6929133858267716,
                    "duration": 0.2635277500000086
                },
                {
                    "name": "G#1",
                    "midi": 32,
                    "time": 180.78003650000116,
                    "velocity": 0.5275590551181102,
                    "duration": 0.5270554999999888
                },
                {
                    "name": "G#2",
                    "midi": 44,
                    "time": 180.78003650000116,
                    "velocity": 0.6299212598425197,
                    "duration": 0.5270554999999888
                },
                {
                    "name": "A3",
                    "midi": 57,
                    "time": 181.30709200000115,
                    "velocity": 0.6929133858267716,
                    "duration": 0.5270554999999888
                },
                {
                    "name": "A2",
                    "midi": 45,
                    "time": 181.30709200000115,
                    "velocity": 0.5826771653543307,
                    "duration": 0.5270554999999888
                },
                {
                    "name": "G#1",
                    "midi": 32,
                    "time": 182.88825850000114,
                    "velocity": 0.5826771653543307,
                    "duration": 0.5270555000000172
                },
                {
                    "name": "G#2",
                    "midi": 44,
                    "time": 182.88825850000114,
                    "velocity": 0.7007874015748031,
                    "duration": 0.5270555000000172
                },
                {
                    "name": "G#2",
                    "midi": 44,
                    "time": 183.41531400000116,
                    "velocity": 0.6220472440944882,
                    "duration": 0.5270554999999888
                },
                {
                    "name": "G#3",
                    "midi": 56,
                    "time": 183.41531400000116,
                    "velocity": 0.7322834645669292,
                    "duration": 0.5270554999999888
                },
                {
                    "name": "G#2",
                    "midi": 44,
                    "time": 184.99648050000116,
                    "velocity": 0.6220472440944882,
                    "duration": 0.2635277500000086
                },
                {
                    "name": "G#3",
                    "midi": 56,
                    "time": 184.99648050000116,
                    "velocity": 0.7322834645669292,
                    "duration": 0.2635277500000086
                },
                {
                    "name": "G#2",
                    "midi": 44,
                    "time": 185.26000825000116,
                    "velocity": 0.6220472440944882,
                    "duration": 0.2635277500000086
                },
                {
                    "name": "G#3",
                    "midi": 56,
                    "time": 185.26000825000116,
                    "velocity": 0.7322834645669292,
                    "duration": 0.2635277500000086
                },
                {
                    "name": "F#3",
                    "midi": 54,
                    "time": 185.52353600000117,
                    "velocity": 0.6299212598425197,
                    "duration": 1.054111000000006
                },
                {
                    "name": "F#4",
                    "midi": 66,
                    "time": 185.52353600000117,
                    "velocity": 0.7401574803149606,
                    "duration": 1.054111000000006
                },
                {
                    "name": "G#2",
                    "midi": 44,
                    "time": 187.10470250000117,
                    "velocity": 0.5433070866141733,
                    "duration": 0.25035136249999823
                },
                {
                    "name": "G#3",
                    "midi": 56,
                    "time": 187.10470250000117,
                    "velocity": 0.6456692913385826,
                    "duration": 0.25035136249999823
                },
                {
                    "name": "G#2",
                    "midi": 44,
                    "time": 187.36823025000118,
                    "velocity": 0.5433070866141733,
                    "duration": 0.25035136249999823
                },
                {
                    "name": "G#3",
                    "midi": 56,
                    "time": 187.36823025000118,
                    "velocity": 0.6456692913385826,
                    "duration": 0.25035136249999823
                },
                {
                    "name": "E3",
                    "midi": 52,
                    "time": 187.63175800000118,
                    "velocity": 0.5826771653543307,
                    "duration": 0.5270554999999888
                },
                {
                    "name": "E4",
                    "midi": 64,
                    "time": 187.63175800000118,
                    "velocity": 0.6929133858267716,
                    "duration": 0.5270554999999888
                },
                {
                    "name": "G#2",
                    "midi": 44,
                    "time": 189.21292450000115,
                    "velocity": 0.5275590551181102,
                    "duration": 0.25035136249999823
                },
                {
                    "name": "G#3",
                    "midi": 56,
                    "time": 189.21292450000115,
                    "velocity": 0.6299212598425197,
                    "duration": 0.25035136249999823
                },
                {
                    "name": "G#2",
                    "midi": 44,
                    "time": 189.47645225000116,
                    "velocity": 0.5275590551181102,
                    "duration": 0.25035136249999823
                },
                {
                    "name": "G#3",
                    "midi": 56,
                    "time": 189.47645225000116,
                    "velocity": 0.6299212598425197,
                    "duration": 0.25035136249999823
                },
                {
                    "name": "A4",
                    "midi": 69,
                    "time": 189.73998000000117,
                    "velocity": 0.6929133858267716,
                    "duration": 0.5270554999999888
                },
                {
                    "name": "A3",
                    "midi": 57,
                    "time": 189.73998000000117,
                    "velocity": 0.5826771653543307,
                    "duration": 0.5270554999999888
                },
                {
                    "name": "G#2",
                    "midi": 44,
                    "time": 191.32114650000113,
                    "velocity": 0.5826771653543307,
                    "duration": 0.25035136249999823
                },
                {
                    "name": "G#3",
                    "midi": 56,
                    "time": 191.32114650000113,
                    "velocity": 0.7007874015748031,
                    "duration": 0.25035136249999823
                },
                {
                    "name": "G#2",
                    "midi": 44,
                    "time": 191.58467425000114,
                    "velocity": 0.5826771653543307,
                    "duration": 0.25035136249999823
                },
                {
                    "name": "G#3",
                    "midi": 56,
                    "time": 191.58467425000114,
                    "velocity": 0.7007874015748031,
                    "duration": 0.25035136249999823
                },
                {
                    "name": "G#3",
                    "midi": 56,
                    "time": 191.84820200000115,
                    "velocity": 0.6220472440944882,
                    "duration": 0.5270555000000172
                },
                {
                    "name": "G#4",
                    "midi": 68,
                    "time": 191.84820200000115,
                    "velocity": 0.7322834645669292,
                    "duration": 0.5270555000000172
                },
                {
                    "name": "G#3",
                    "midi": 56,
                    "time": 193.42936850000117,
                    "velocity": 0.5826771653543307,
                    "duration": 0.25035136249999823
                },
                {
                    "name": "G#4",
                    "midi": 68,
                    "time": 193.42936850000117,
                    "velocity": 0.7007874015748031,
                    "duration": 0.25035136249999823
                },
                {
                    "name": "G#3",
                    "midi": 56,
                    "time": 193.69289625000118,
                    "velocity": 0.5905511811023622,
                    "duration": 0.25035136249999823
                },
                {
                    "name": "G#4",
                    "midi": 68,
                    "time": 193.69289625000118,
                    "velocity": 0.7086614173228346,
                    "duration": 0.25035136249999823
                },
                {
                    "name": "F#4",
                    "midi": 66,
                    "time": 193.9564240000012,
                    "velocity": 0.7322834645669292,
                    "duration": 0.5270554999999888
                },
                {
                    "name": "F#3",
                    "midi": 54,
                    "time": 193.9564240000012,
                    "velocity": 0.6220472440944882,
                    "duration": 0.5270554999999888
                },
                {
                    "name": "F#3",
                    "midi": 54,
                    "time": 194.7470072500012,
                    "velocity": 0.5433070866141733,
                    "duration": 0.2635277500000086
                },
                {
                    "name": "F#4",
                    "midi": 66,
                    "time": 194.7470072500012,
                    "velocity": 0.6456692913385826,
                    "duration": 0.2635277500000086
                },
                {
                    "name": "D#3",
                    "midi": 51,
                    "time": 195.0105350000012,
                    "velocity": 0.5905511811023622,
                    "duration": 0.5270554999999888
                },
                {
                    "name": "D#4",
                    "midi": 63,
                    "time": 195.0105350000012,
                    "velocity": 0.7086614173228346,
                    "duration": 0.5270554999999888
                },
                {
                    "name": "D#4",
                    "midi": 63,
                    "time": 195.80111825000117,
                    "velocity": 0.6141732283464567,
                    "duration": 0.2635277500000086
                },
                {
                    "name": "D#3",
                    "midi": 51,
                    "time": 195.80111825000117,
                    "velocity": 0.5196850393700787,
                    "duration": 0.2635277500000086
                },
                {
                    "name": "C3",
                    "midi": 48,
                    "time": 196.06464600000118,
                    "velocity": 0.5748031496062992,
                    "duration": 0.5270554999999888
                },
                {
                    "name": "C4",
                    "midi": 60,
                    "time": 196.06464600000118,
                    "velocity": 0.6771653543307087,
                    "duration": 0.5270554999999888
                },
                {
                    "name": "C3",
                    "midi": 48,
                    "time": 196.85522925000117,
                    "velocity": 0.49606299212598426,
                    "duration": 0.2635277500000086
                },
                {
                    "name": "C4",
                    "midi": 60,
                    "time": 196.85522925000117,
                    "velocity": 0.5905511811023622,
                    "duration": 0.2635277500000086
                },
                {
                    "name": "G#2",
                    "midi": 44,
                    "time": 197.11875700000118,
                    "velocity": 0.5433070866141733,
                    "duration": 0.5270554999999888
                },
                {
                    "name": "G#3",
                    "midi": 56,
                    "time": 197.11875700000118,
                    "velocity": 0.6456692913385826,
                    "duration": 0.5270554999999888
                },
                {
                    "name": "G#2",
                    "midi": 44,
                    "time": 197.90934025000115,
                    "velocity": 0.48031496062992124,
                    "duration": 0.2635277500000086
                },
                {
                    "name": "G#3",
                    "midi": 56,
                    "time": 197.90934025000115,
                    "velocity": 0.5748031496062992,
                    "duration": 0.2635277500000086
                },
                {
                    "name": "A2",
                    "midi": 45,
                    "time": 198.17286800000116,
                    "velocity": 0.5511811023622047,
                    "duration": 0.5270554999999888
                },
                {
                    "name": "A3",
                    "midi": 57,
                    "time": 198.17286800000116,
                    "velocity": 0.6614173228346457,
                    "duration": 0.5270554999999888
                },
                {
                    "name": "A1",
                    "midi": 33,
                    "time": 198.96345125000116,
                    "velocity": 0.5275590551181102,
                    "duration": 0.25035136249999823
                },
                {
                    "name": "A2",
                    "midi": 45,
                    "time": 198.96345125000116,
                    "velocity": 0.6220472440944882,
                    "duration": 0.25035136249999823
                },
                {
                    "name": "A1",
                    "midi": 33,
                    "time": 199.22697900000117,
                    "velocity": 0.5826771653543307,
                    "duration": 0.5270554999999888
                },
                {
                    "name": "A2",
                    "midi": 45,
                    "time": 199.22697900000117,
                    "velocity": 0.7007874015748031,
                    "duration": 0.5270554999999888
                },
                {
                    "name": "A1",
                    "midi": 33,
                    "time": 200.01756225000113,
                    "velocity": 0.5669291338582677,
                    "duration": 0.25035136249999823
                },
                {
                    "name": "A2",
                    "midi": 45,
                    "time": 200.01756225000113,
                    "velocity": 0.6692913385826772,
                    "duration": 0.25035136249999823
                },
                {
                    "name": "A1",
                    "midi": 33,
                    "time": 200.28109000000114,
                    "velocity": 0.6220472440944882,
                    "duration": 0.5270554999999888
                },
                {
                    "name": "A2",
                    "midi": 45,
                    "time": 200.28109000000114,
                    "velocity": 0.7322834645669292,
                    "duration": 0.5270554999999888
                },
                {
                    "name": "A1",
                    "midi": 33,
                    "time": 201.07167325000114,
                    "velocity": 0.5826771653543307,
                    "duration": 0.2635277500000086
                },
                {
                    "name": "A2",
                    "midi": 45,
                    "time": 201.07167325000114,
                    "velocity": 0.6929133858267716,
                    "duration": 0.2635277500000086
                },
                {
                    "name": "G#1",
                    "midi": 32,
                    "time": 201.33520100000115,
                    "velocity": 0.6614173228346457,
                    "duration": 0.5270554999999888
                },
                {
                    "name": "G#2",
                    "midi": 44,
                    "time": 201.33520100000115,
                    "velocity": 0.7874015748031497,
                    "duration": 0.5270554999999888
                },
                {
                    "name": "G#2",
                    "midi": 44,
                    "time": 201.86225650000114,
                    "velocity": 0.3543307086614173,
                    "duration": 0.2635277500000086
                },
                {
                    "name": "G#3",
                    "midi": 56,
                    "time": 201.86225650000114,
                    "velocity": 0.41732283464566927,
                    "duration": 0.2635277500000086
                },
                {
                    "name": "G#2",
                    "midi": 44,
                    "time": 202.12578425000115,
                    "velocity": 0.3543307086614173,
                    "duration": 0.2635277500000086
                },
                {
                    "name": "G#3",
                    "midi": 56,
                    "time": 202.12578425000115,
                    "velocity": 0.41732283464566927,
                    "duration": 0.2635277500000086
                },
                {
                    "name": "F#3",
                    "midi": 54,
                    "time": 202.38931200000115,
                    "velocity": 0.4566929133858268,
                    "duration": 0.5270554999999888
                },
                {
                    "name": "F#2",
                    "midi": 42,
                    "time": 202.38931200000115,
                    "velocity": 0.3858267716535433,
                    "duration": 0.5270554999999888
                },
                {
                    "name": "F#2",
                    "midi": 42,
                    "time": 203.17989525000115,
                    "velocity": 0.3543307086614173,
                    "duration": 0.25035136249999823
                },
                {
                    "name": "F#3",
                    "midi": 54,
                    "time": 203.17989525000115,
                    "velocity": 0.41732283464566927,
                    "duration": 0.25035136249999823
                },
                {
                    "name": "D#2",
                    "midi": 39,
                    "time": 203.44342300000116,
                    "velocity": 0.3779527559055118,
                    "duration": 0.5270554999999888
                },
                {
                    "name": "D#3",
                    "midi": 51,
                    "time": 203.44342300000116,
                    "velocity": 0.44881889763779526,
                    "duration": 0.5270554999999888
                },
                {
                    "name": "D#3",
                    "midi": 51,
                    "time": 204.23400625000116,
                    "velocity": 0.4015748031496063,
                    "duration": 0.25035136249999823
                },
                {
                    "name": "D#2",
                    "midi": 39,
                    "time": 204.23400625000116,
                    "velocity": 0.33070866141732286,
                    "duration": 0.25035136249999823
                },
                {
                    "name": "C2",
                    "midi": 36,
                    "time": 204.49753400000117,
                    "velocity": 0.3700787401574803,
                    "duration": 0.5270554999999888
                },
                {
                    "name": "C3",
                    "midi": 48,
                    "time": 204.49753400000117,
                    "velocity": 0.4409448818897638,
                    "duration": 0.5270554999999888
                },
                {
                    "name": "C2",
                    "midi": 36,
                    "time": 205.28811725000116,
                    "velocity": 0.33070866141732286,
                    "duration": 0.25035136249999823
                },
                {
                    "name": "C3",
                    "midi": 48,
                    "time": 205.28811725000116,
                    "velocity": 0.3937007874015748,
                    "duration": 0.25035136249999823
                },
                {
                    "name": "G#1",
                    "midi": 32,
                    "time": 205.55164500000117,
                    "velocity": 0.36220472440944884,
                    "duration": 0.5270554999999888
                },
                {
                    "name": "G#2",
                    "midi": 44,
                    "time": 205.55164500000117,
                    "velocity": 0.4330708661417323,
                    "duration": 0.5270554999999888
                },
                {
                    "name": "G#1",
                    "midi": 32,
                    "time": 206.34222825000117,
                    "velocity": 0.3228346456692913,
                    "duration": 0.25035136249999823
                },
                {
                    "name": "G#2",
                    "midi": 44,
                    "time": 206.34222825000117,
                    "velocity": 0.3858267716535433,
                    "duration": 0.25035136249999823
                },
                {
                    "name": "A1",
                    "midi": 33,
                    "time": 206.60575600000118,
                    "velocity": 0.3543307086614173,
                    "duration": 0.5270554999999888
                },
                {
                    "name": "A2",
                    "midi": 45,
                    "time": 206.60575600000118,
                    "velocity": 0.41732283464566927,
                    "duration": 0.5270554999999888
                },
                {
                    "name": "A1",
                    "midi": 33,
                    "time": 207.39633925000118,
                    "velocity": 0.30708661417322836,
                    "duration": 0.25035136249999823
                },
                {
                    "name": "A2",
                    "midi": 45,
                    "time": 207.39633925000118,
                    "velocity": 0.3700787401574803,
                    "duration": 0.25035136249999823
                },
                {
                    "name": "A1",
                    "midi": 33,
                    "time": 207.65986700000119,
                    "velocity": 0.3464566929133858,
                    "duration": 0.5270554999999888
                },
                {
                    "name": "A2",
                    "midi": 45,
                    "time": 207.65986700000119,
                    "velocity": 0.4094488188976378,
                    "duration": 0.5270554999999888
                },
                {
                    "name": "A1",
                    "midi": 33,
                    "time": 208.45045025000118,
                    "velocity": 0.30708661417322836,
                    "duration": 0.25035136249999823
                },
                {
                    "name": "A2",
                    "midi": 45,
                    "time": 208.45045025000118,
                    "velocity": 0.3700787401574803,
                    "duration": 0.25035136249999823
                },
                {
                    "name": "A1",
                    "midi": 33,
                    "time": 208.7139780000012,
                    "velocity": 0.33070866141732286,
                    "duration": 0.5270554999999888
                },
                {
                    "name": "A2",
                    "midi": 45,
                    "time": 208.7139780000012,
                    "velocity": 0.3937007874015748,
                    "duration": 0.5270554999999888
                },
                {
                    "name": "A1",
                    "midi": 33,
                    "time": 209.5045612500012,
                    "velocity": 0.4409448818897638,
                    "duration": 0.25035136249999823
                },
                {
                    "name": "A2",
                    "midi": 45,
                    "time": 209.5045612500012,
                    "velocity": 0.5196850393700787,
                    "duration": 0.25035136249999823
                },
                {
                    "name": "G#1",
                    "midi": 32,
                    "time": 209.7680890000012,
                    "velocity": 0.4645669291338583,
                    "duration": 0.5270555000000172
                },
                {
                    "name": "G#2",
                    "midi": 44,
                    "time": 209.7680890000012,
                    "velocity": 0.5511811023622047,
                    "duration": 0.5270555000000172
                },
                {
                    "name": "G#2",
                    "midi": 44,
                    "time": 210.29514450000121,
                    "velocity": 0.4409448818897638,
                    "duration": 0.25035136249999823
                },
                {
                    "name": "G#2",
                    "midi": 44,
                    "time": 210.55867225000122,
                    "velocity": 0.4409448818897638,
                    "duration": 0.25035136249999823
                },
                {
                    "name": "A2",
                    "midi": 45,
                    "time": 210.82220000000123,
                    "velocity": 0.3858267716535433,
                    "duration": 0.2635277500000086
                },
                {
                    "name": "C3",
                    "midi": 48,
                    "time": 211.87631100000124,
                    "velocity": 0.41732283464566927,
                    "duration": 0.2635277500000086
                },
                {
                    "name": "A2",
                    "midi": 45,
                    "time": 212.93042200000124,
                    "velocity": 0.3858267716535433,
                    "duration": 0.2635277500000086
                },
                {
                    "name": "C3",
                    "midi": 48,
                    "time": 213.98453300000125,
                    "velocity": 0.36220472440944884,
                    "duration": 0.2635277500000086
                },
                {
                    "name": "G#2",
                    "midi": 44,
                    "time": 215.03864400000126,
                    "velocity": 0.30708661417322836,
                    "duration": 0.2635277500000086
                },
                {
                    "name": "D#3",
                    "midi": 51,
                    "time": 216.09275500000126,
                    "velocity": 0.28346456692913385,
                    "duration": 0.2635277500000086
                },
                {
                    "name": "G#2",
                    "midi": 44,
                    "time": 217.14686600000127,
                    "velocity": 0.25984251968503935,
                    "duration": 0.2635277500000086
                },
                {
                    "name": "D#3",
                    "midi": 51,
                    "time": 218.20097700000127,
                    "velocity": 0.2283464566929134,
                    "duration": 0.2635277500000086
                },
                {
                    "name": "C#3",
                    "midi": 49,
                    "time": 219.25508800000128,
                    "velocity": 0.2677165354330709,
                    "duration": 0.17568516666665346
                },
                {
                    "name": "G#3",
                    "midi": 56,
                    "time": 219.6064583333346,
                    "velocity": 0.2283464566929134,
                    "duration": 0.35137033333333534
                },
                {
                    "name": "C#4",
                    "midi": 61,
                    "time": 219.95782866666792,
                    "velocity": 0.2283464566929134,
                    "duration": 0.35137033333333534
                },
                {
                    "name": "F4",
                    "midi": 65,
                    "time": 220.30919900000126,
                    "velocity": 0.2283464566929134,
                    "duration": 0.35137033333333534
                },
                {
                    "name": "C#4",
                    "midi": 61,
                    "time": 220.6605693333346,
                    "velocity": 0.2283464566929134,
                    "duration": 0.35137033333333534
                },
                {
                    "name": "G#3",
                    "midi": 56,
                    "time": 221.01193966666793,
                    "velocity": 0.2283464566929134,
                    "duration": 0.35137033333333534
                },
                {
                    "name": "C#3",
                    "midi": 49,
                    "time": 221.36331000000126,
                    "velocity": 0.2677165354330709,
                    "duration": 0.17568516666665346
                },
                {
                    "name": "G#3",
                    "midi": 56,
                    "time": 221.71468033333457,
                    "velocity": 0.2283464566929134,
                    "duration": 0.35137033333333534
                },
                {
                    "name": "C#4",
                    "midi": 61,
                    "time": 222.0660506666679,
                    "velocity": 0.2283464566929134,
                    "duration": 0.35137033333333534
                },
                {
                    "name": "F4",
                    "midi": 65,
                    "time": 222.41742100000124,
                    "velocity": 0.2283464566929134,
                    "duration": 0.35137033333333534
                },
                {
                    "name": "C#4",
                    "midi": 61,
                    "time": 222.76879133333458,
                    "velocity": 0.2283464566929134,
                    "duration": 0.35137033333333534
                },
                {
                    "name": "G#3",
                    "midi": 56,
                    "time": 223.1201616666679,
                    "velocity": 0.2283464566929134,
                    "duration": 0.35137033333333534
                },
                {
                    "name": "C3",
                    "midi": 48,
                    "time": 223.47153200000125,
                    "velocity": 0.2677165354330709,
                    "duration": 0.17568516666665346
                },
                {
                    "name": "G#3",
                    "midi": 56,
                    "time": 223.82290233333458,
                    "velocity": 0.23622047244094488,
                    "duration": 0.35137033333333534
                },
                {
                    "name": "D#4",
                    "midi": 63,
                    "time": 224.17427266666792,
                    "velocity": 0.23622047244094488,
                    "duration": 0.35137033333333534
                },
                {
                    "name": "F#4",
                    "midi": 66,
                    "time": 224.52564300000125,
                    "velocity": 0.23622047244094488,
                    "duration": 0.35137033333333534
                },
                {
                    "name": "D#4",
                    "midi": 63,
                    "time": 224.8770133333346,
                    "velocity": 0.23622047244094488,
                    "duration": 0.35137033333333534
                },
                {
                    "name": "G#3",
                    "midi": 56,
                    "time": 225.22838366666792,
                    "velocity": 0.23622047244094488,
                    "duration": 0.35137033333333534
                },
                {
                    "name": "C3",
                    "midi": 48,
                    "time": 225.57975400000126,
                    "velocity": 0.2677165354330709,
                    "duration": 0.17568516666668188
                },
                {
                    "name": "G#3",
                    "midi": 56,
                    "time": 225.9311243333346,
                    "velocity": 0.23622047244094488,
                    "duration": 0.35137033333333534
                },
                {
                    "name": "D#4",
                    "midi": 63,
                    "time": 226.28249466666793,
                    "velocity": 0.23622047244094488,
                    "duration": 0.35137033333333534
                },
                {
                    "name": "F#4",
                    "midi": 66,
                    "time": 226.63386500000126,
                    "velocity": 0.2283464566929134,
                    "duration": 0.35137033333333534
                },
                {
                    "name": "D#4",
                    "midi": 63,
                    "time": 226.9852353333346,
                    "velocity": 0.2283464566929134,
                    "duration": 0.35137033333333534
                },
                {
                    "name": "G#3",
                    "midi": 56,
                    "time": 227.33660566666794,
                    "velocity": 0.2283464566929134,
                    "duration": 0.35137033333333534
                },
                {
                    "name": "C#3",
                    "midi": 49,
                    "time": 227.68797600000127,
                    "velocity": 0.2677165354330709,
                    "duration": 0.17568516666668188
                },
                {
                    "name": "G#3",
                    "midi": 56,
                    "time": 228.0393463333346,
                    "velocity": 0.2283464566929134,
                    "duration": 0.35137033333333534
                },
                {
                    "name": "C#4",
                    "midi": 61,
                    "time": 228.39071666666794,
                    "velocity": 0.2283464566929134,
                    "duration": 0.35137033333333534
                },
                {
                    "name": "F4",
                    "midi": 65,
                    "time": 228.74208700000128,
                    "velocity": 0.2283464566929134,
                    "duration": 0.35137033333333534
                },
                {
                    "name": "C#4",
                    "midi": 61,
                    "time": 229.0934573333346,
                    "velocity": 0.2283464566929134,
                    "duration": 0.35137033333333534
                },
                {
                    "name": "G#3",
                    "midi": 56,
                    "time": 229.44482766666795,
                    "velocity": 0.2283464566929134,
                    "duration": 0.35137033333333534
                },
                {
                    "name": "A#2",
                    "midi": 46,
                    "time": 229.79619800000128,
                    "velocity": 0.2677165354330709,
                    "duration": 0.17568516666665346
                },
                {
                    "name": "C#4",
                    "midi": 61,
                    "time": 230.1475683333346,
                    "velocity": 0.2283464566929134,
                    "duration": 0.35137033333333534
                },
                {
                    "name": "D#4",
                    "midi": 63,
                    "time": 230.49893866666793,
                    "velocity": 0.2283464566929134,
                    "duration": 0.35137033333333534
                },
                {
                    "name": "D#3",
                    "midi": 51,
                    "time": 230.85030900000126,
                    "velocity": 0.2283464566929134,
                    "duration": 0.35137033333333534
                },
                {
                    "name": "C#4",
                    "midi": 61,
                    "time": 231.2016793333346,
                    "velocity": 0.2283464566929134,
                    "duration": 0.35137033333333534
                },
                {
                    "name": "D#4",
                    "midi": 63,
                    "time": 231.55304966666793,
                    "velocity": 0.2283464566929134,
                    "duration": 0.35137033333333534
                },
                {
                    "name": "G#2",
                    "midi": 44,
                    "time": 231.90442000000127,
                    "velocity": 0.2677165354330709,
                    "duration": 0.17568516666665346
                },
                {
                    "name": "G#3",
                    "midi": 56,
                    "time": 232.2557903333346,
                    "velocity": 0.23622047244094488,
                    "duration": 0.35137033333333534
                },
                {
                    "name": "C4",
                    "midi": 60,
                    "time": 232.60716066666794,
                    "velocity": 0.23622047244094488,
                    "duration": 0.35137033333333534
                },
                {
                    "name": "D#4",
                    "midi": 63,
                    "time": 232.95853100000127,
                    "velocity": 0.23622047244094488,
                    "duration": 0.35137033333333534
                },
                {
                    "name": "C4",
                    "midi": 60,
                    "time": 233.3099013333346,
                    "velocity": 0.23622047244094488,
                    "duration": 0.35137033333333534
                },
                {
                    "name": "G#3",
                    "midi": 56,
                    "time": 233.66127166666794,
                    "velocity": 0.23622047244094488,
                    "duration": 0.35137033333333534
                },
                {
                    "name": "G#2",
                    "midi": 44,
                    "time": 234.01264200000128,
                    "velocity": 0.33070866141732286,
                    "duration": 0.17568516666665346
                },
                {
                    "name": "C4",
                    "midi": 60,
                    "time": 234.36401233333459,
                    "velocity": 0.23622047244094488,
                    "duration": 0.35137033333333534
                },
                {
                    "name": "D#4",
                    "midi": 63,
                    "time": 234.71538266666792,
                    "velocity": 0.23622047244094488,
                    "duration": 0.35137033333333534
                },
                {
                    "name": "F#4",
                    "midi": 66,
                    "time": 235.06675300000126,
                    "velocity": 0.28346456692913385,
                    "duration": 0.35137033333333534
                },
                {
                    "name": "D#4",
                    "midi": 63,
                    "time": 235.4181233333346,
                    "velocity": 0.25984251968503935,
                    "duration": 0.35137033333333534
                },
                {
                    "name": "C4",
                    "midi": 60,
                    "time": 235.76949366666793,
                    "velocity": 0.23622047244094488,
                    "duration": 0.35137033333333534
                },
                {
                    "name": "C#3",
                    "midi": 49,
                    "time": 236.12086400000126,
                    "velocity": 0.2677165354330709,
                    "duration": 0.17568516666665346
                },
                {
                    "name": "G#3",
                    "midi": 56,
                    "time": 236.47223433333457,
                    "velocity": 0.2283464566929134,
                    "duration": 0.35137033333333534
                },
                {
                    "name": "C#4",
                    "midi": 61,
                    "time": 236.8236046666679,
                    "velocity": 0.2283464566929134,
                    "duration": 0.35137033333333534
                },
                {
                    "name": "F4",
                    "midi": 65,
                    "time": 237.17497500000124,
                    "velocity": 0.2283464566929134,
                    "duration": 0.35137033333333534
                },
                {
                    "name": "C#4",
                    "midi": 61,
                    "time": 237.52634533333458,
                    "velocity": 0.2283464566929134,
                    "duration": 0.35137033333333534
                },
                {
                    "name": "G#3",
                    "midi": 56,
                    "time": 237.8777156666679,
                    "velocity": 0.2283464566929134,
                    "duration": 0.35137033333333534
                },
                {
                    "name": "C#3",
                    "midi": 49,
                    "time": 238.22908600000125,
                    "velocity": 0.30708661417322836,
                    "duration": 0.17568516666668188
                },
                {
                    "name": "B3",
                    "midi": 59,
                    "time": 238.58045633333458,
                    "velocity": 0.25984251968503935,
                    "duration": 0.35137033333333534
                },
                {
                    "name": "C#4",
                    "midi": 61,
                    "time": 238.93182666666792,
                    "velocity": 0.25984251968503935,
                    "duration": 0.35137033333333534
                },
                {
                    "name": "F4",
                    "midi": 65,
                    "time": 239.28319700000125,
                    "velocity": 0.3228346456692913,
                    "duration": 0.35137033333333534
                },
                {
                    "name": "C#4",
                    "midi": 61,
                    "time": 239.6345673333346,
                    "velocity": 0.2755905511811024,
                    "duration": 0.35137033333333534
                },
                {
                    "name": "B3",
                    "midi": 59,
                    "time": 239.98593766666792,
                    "velocity": 0.28346456692913385,
                    "duration": 0.35137033333333534
                },
                {
                    "name": "F#2",
                    "midi": 42,
                    "time": 240.33730800000126,
                    "velocity": 0.33070866141732286,
                    "duration": 0.17568516666665346
                },
                {
                    "name": "G#3",
                    "midi": 56,
                    "time": 240.6886783333346,
                    "velocity": 0.25984251968503935,
                    "duration": 0.35137033333333534
                },
                {
                    "name": "D4",
                    "midi": 62,
                    "time": 241.04004866666793,
                    "velocity": 0.25984251968503935,
                    "duration": 0.35137033333333534
                },
                {
                    "name": "F4",
                    "midi": 65,
                    "time": 241.39141900000126,
                    "velocity": 0.2677165354330709,
                    "duration": 0.35137033333333534
                },
                {
                    "name": "D4",
                    "midi": 62,
                    "time": 241.7427893333346,
                    "velocity": 0.2440944881889764,
                    "duration": 0.35137033333333534
                },
                {
                    "name": "G#3",
                    "midi": 56,
                    "time": 242.09415966666793,
                    "velocity": 0.23622047244094488,
                    "duration": 0.35137033333333534
                },
                {
                    "name": "F#2",
                    "midi": 42,
                    "time": 242.44553000000127,
                    "velocity": 0.31496062992125984,
                    "duration": 0.17568516666668188
                },
                {
                    "name": "A#3",
                    "midi": 58,
                    "time": 242.7969003333346,
                    "velocity": 0.2677165354330709,
                    "duration": 0.35137033333333534
                },
                {
                    "name": "C#4",
                    "midi": 61,
                    "time": 243.14827066666794,
                    "velocity": 0.23622047244094488,
                    "duration": 0.35137033333333534
                },
                {
                    "name": "F#4",
                    "midi": 66,
                    "time": 243.49964100000128,
                    "velocity": 0.2283464566929134,
                    "duration": 0.35137033333333534
                },
                {
                    "name": "C#4",
                    "midi": 61,
                    "time": 243.8510113333346,
                    "velocity": 0.2283464566929134,
                    "duration": 0.35137033333333534
                },
                {
                    "name": "A#3",
                    "midi": 58,
                    "time": 244.20238166666795,
                    "velocity": 0.2283464566929134,
                    "duration": 0.35137033333333534
                },
                {
                    "name": "C#3",
                    "midi": 49,
                    "time": 244.55375200000128,
                    "velocity": 0.2677165354330709,
                    "duration": 0.17568516666668188
                },
                {
                    "name": "F3",
                    "midi": 53,
                    "time": 244.90512233333462,
                    "velocity": 0.2283464566929134,
                    "duration": 0.35137033333333534
                },
                {
                    "name": "G#3",
                    "midi": 56,
                    "time": 245.25649266666795,
                    "velocity": 0.2283464566929134,
                    "duration": 0.35137033333333534
                },
                {
                    "name": "C#4",
                    "midi": 61,
                    "time": 245.6078630000013,
                    "velocity": 0.2283464566929134,
                    "duration": 0.35137033333333534
                },
                {
                    "name": "G#3",
                    "midi": 56,
                    "time": 245.95923333333462,
                    "velocity": 0.2283464566929134,
                    "duration": 0.35137033333333534
                },
                {
                    "name": "F3",
                    "midi": 53,
                    "time": 246.31060366666796,
                    "velocity": 0.2283464566929134,
                    "duration": 0.35137033333333534
                },
                {
                    "name": "G#2",
                    "midi": 44,
                    "time": 246.6619740000013,
                    "velocity": 0.2677165354330709,
                    "duration": 0.17568516666665346
                },
                {
                    "name": "F#3",
                    "midi": 54,
                    "time": 247.0133443333346,
                    "velocity": 0.2283464566929134,
                    "duration": 0.35137033333333534
                },
                {
                    "name": "G#3",
                    "midi": 56,
                    "time": 247.36471466666794,
                    "velocity": 0.2283464566929134,
                    "duration": 0.35137033333333534
                },
                {
                    "name": "C4",
                    "midi": 60,
                    "time": 247.71608500000127,
                    "velocity": 0.2283464566929134,
                    "duration": 0.35137033333333534
                },
                {
                    "name": "G#3",
                    "midi": 56,
                    "time": 248.0674553333346,
                    "velocity": 0.2283464566929134,
                    "duration": 0.35137033333333534
                },
                {
                    "name": "F#3",
                    "midi": 54,
                    "time": 248.41882566666794,
                    "velocity": 0.2283464566929134,
                    "duration": 0.35137033333333534
                },
                {
                    "name": "C#3",
                    "midi": 49,
                    "time": 248.77019600000128,
                    "velocity": 0.2677165354330709,
                    "duration": 0.17568516666665346
                },
                {
                    "name": "F3",
                    "midi": 53,
                    "time": 249.1215663333346,
                    "velocity": 0.23622047244094488,
                    "duration": 0.35137033333333534
                },
                {
                    "name": "G#3",
                    "midi": 56,
                    "time": 249.47293666666795,
                    "velocity": 0.23622047244094488,
                    "duration": 0.35137033333333534
                },
                {
                    "name": "C#4",
                    "midi": 61,
                    "time": 249.82430700000128,
                    "velocity": 0.23622047244094488,
                    "duration": 0.35137033333333534
                },
                {
                    "name": "G#3",
                    "midi": 56,
                    "time": 250.17567733333462,
                    "velocity": 0.23622047244094488,
                    "duration": 0.35137033333333534
                },
                {
                    "name": "F3",
                    "midi": 53,
                    "time": 250.52704766666795,
                    "velocity": 0.23622047244094488,
                    "duration": 0.35137033333333534
                },
                {
                    "name": "G#3",
                    "midi": 56,
                    "time": 250.8784180000013,
                    "velocity": 0.2677165354330709,
                    "duration": 0.35137033333333534
                },
                {
                    "name": "F3",
                    "midi": 53,
                    "time": 251.22978833333462,
                    "velocity": 0.23622047244094488,
                    "duration": 0.35137033333333534
                },
                {
                    "name": "C#3",
                    "midi": 49,
                    "time": 251.58115866666796,
                    "velocity": 0.23622047244094488,
                    "duration": 0.35137033333333534
                },
                {
                    "name": "F3",
                    "midi": 53,
                    "time": 251.9325290000013,
                    "velocity": 0.2283464566929134,
                    "duration": 0.35137033333333534
                },
                {
                    "name": "C#3",
                    "midi": 49,
                    "time": 252.28389933333463,
                    "velocity": 0.2283464566929134,
                    "duration": 0.35137033333333534
                },
                {
                    "name": "G#2",
                    "midi": 44,
                    "time": 252.63526966666797,
                    "velocity": 0.2283464566929134,
                    "duration": 0.35137033333333534
                },
                {
                    "name": "C#2",
                    "midi": 37,
                    "time": 252.9866400000013,
                    "velocity": 0.29133858267716534,
                    "duration": 0.35137033333333534
                },
                {
                    "name": "E4",
                    "midi": 64,
                    "time": 253.33801033333464,
                    "velocity": 0.2440944881889764,
                    "duration": 0.17568516666665346
                },
                {
                    "name": "C#4",
                    "midi": 61,
                    "time": 253.33801033333464,
                    "velocity": 0.1889763779527559,
                    "duration": 0.17568516666665346
                },
                {
                    "name": "G#3",
                    "midi": 56,
                    "time": 253.33801033333464,
                    "velocity": 0.1889763779527559,
                    "duration": 0.17568516666665346
                },
                {
                    "name": "E4",
                    "midi": 64,
                    "time": 253.68938066666794,
                    "velocity": 0.2440944881889764,
                    "duration": 0.17568516666665346
                },
                {
                    "name": "C#4",
                    "midi": 61,
                    "time": 253.68938066666794,
                    "velocity": 0.1889763779527559,
                    "duration": 0.17568516666665346
                },
                {
                    "name": "G#3",
                    "midi": 56,
                    "time": 253.68938066666794,
                    "velocity": 0.1889763779527559,
                    "duration": 0.17568516666665346
                },
                {
                    "name": "C#4",
                    "midi": 61,
                    "time": 254.04075100000125,
                    "velocity": 0.29133858267716534,
                    "duration": 0.7027406666666707
                },
                {
                    "name": "G#3",
                    "midi": 56,
                    "time": 254.04075100000125,
                    "velocity": 0.2283464566929134,
                    "duration": 0.7027406666666707
                },
                {
                    "name": "D#4",
                    "midi": 63,
                    "time": 254.04075100000125,
                    "velocity": 0.2440944881889764,
                    "duration": 0.35137033333333534
                },
                {
                    "name": "E4",
                    "midi": 64,
                    "time": 254.3921213333346,
                    "velocity": 0.31496062992125984,
                    "duration": 0.35137033333333534
                },
                {
                    "name": "C#4",
                    "midi": 61,
                    "time": 254.74349166666792,
                    "velocity": 0.1889763779527559,
                    "duration": 0.17568516666665346
                },
                {
                    "name": "G#3",
                    "midi": 56,
                    "time": 254.74349166666792,
                    "velocity": 0.1889763779527559,
                    "duration": 0.17568516666665346
                },
                {
                    "name": "E4",
                    "midi": 64,
                    "time": 254.74349166666792,
                    "velocity": 0.2440944881889764,
                    "duration": 0.17568516666665346
                },
                {
                    "name": "C#2",
                    "midi": 37,
                    "time": 255.09486200000123,
                    "velocity": 0.29133858267716534,
                    "duration": 0.35137033333333534
                },
                {
                    "name": "E4",
                    "midi": 64,
                    "time": 255.44623233333456,
                    "velocity": 0.2440944881889764,
                    "duration": 0.17568516666665346
                },
                {
                    "name": "C#4",
                    "midi": 61,
                    "time": 255.44623233333456,
                    "velocity": 0.1889763779527559,
                    "duration": 0.17568516666665346
                },
                {
                    "name": "G#3",
                    "midi": 56,
                    "time": 255.44623233333456,
                    "velocity": 0.1889763779527559,
                    "duration": 0.17568516666665346
                },
                {
                    "name": "E4",
                    "midi": 64,
                    "time": 255.79760266666787,
                    "velocity": 0.2440944881889764,
                    "duration": 0.17568516666665346
                },
                {
                    "name": "C#4",
                    "midi": 61,
                    "time": 255.79760266666787,
                    "velocity": 0.1889763779527559,
                    "duration": 0.17568516666665346
                },
                {
                    "name": "G#3",
                    "midi": 56,
                    "time": 255.79760266666787,
                    "velocity": 0.1889763779527559,
                    "duration": 0.17568516666665346
                },
                {
                    "name": "C#4",
                    "midi": 61,
                    "time": 256.1489730000012,
                    "velocity": 0.2283464566929134,
                    "duration": 0.7027406666666138
                },
                {
                    "name": "G#3",
                    "midi": 56,
                    "time": 256.1489730000012,
                    "velocity": 0.2283464566929134,
                    "duration": 0.7027406666666138
                },
                {
                    "name": "D#4",
                    "midi": 63,
                    "time": 256.1489730000012,
                    "velocity": 0.31496062992125984,
                    "duration": 0.3513703333333069
                },
                {
                    "name": "E4",
                    "midi": 64,
                    "time": 256.5003433333345,
                    "velocity": 0.31496062992125984,
                    "duration": 0.3513703333333069
                },
                {
                    "name": "C#4",
                    "midi": 61,
                    "time": 256.8517136666678,
                    "velocity": 0.1889763779527559,
                    "duration": 0.17568516666665346
                },
                {
                    "name": "G#3",
                    "midi": 56,
                    "time": 256.8517136666678,
                    "velocity": 0.1889763779527559,
                    "duration": 0.17568516666665346
                },
                {
                    "name": "E4",
                    "midi": 64,
                    "time": 256.8517136666678,
                    "velocity": 0.2440944881889764,
                    "duration": 0.17568516666665346
                },
                {
                    "name": "C#2",
                    "midi": 37,
                    "time": 257.2030840000011,
                    "velocity": 0.29133858267716534,
                    "duration": 0.35137033333336376
                },
                {
                    "name": "G#3",
                    "midi": 56,
                    "time": 257.5544543333345,
                    "velocity": 0.1889763779527559,
                    "duration": 0.17568516666665346
                },
                {
                    "name": "F#4",
                    "midi": 66,
                    "time": 257.5544543333345,
                    "velocity": 0.2440944881889764,
                    "duration": 0.17568516666665346
                },
                {
                    "name": "D#4",
                    "midi": 63,
                    "time": 257.5544543333345,
                    "velocity": 0.1889763779527559,
                    "duration": 0.17568516666665346
                },
                {
                    "name": "C4",
                    "midi": 60,
                    "time": 257.5544543333345,
                    "velocity": 0.1889763779527559,
                    "duration": 0.17568516666665346
                },
                {
                    "name": "G#3",
                    "midi": 56,
                    "time": 257.9058246666678,
                    "velocity": 0.1889763779527559,
                    "duration": 0.17568516666665346
                },
                {
                    "name": "F#4",
                    "midi": 66,
                    "time": 257.9058246666678,
                    "velocity": 0.2440944881889764,
                    "duration": 0.17568516666665346
                },
                {
                    "name": "D#4",
                    "midi": 63,
                    "time": 257.9058246666678,
                    "velocity": 0.1889763779527559,
                    "duration": 0.17568516666665346
                },
                {
                    "name": "C4",
                    "midi": 60,
                    "time": 257.9058246666678,
                    "velocity": 0.1889763779527559,
                    "duration": 0.17568516666665346
                },
                {
                    "name": "C4",
                    "midi": 60,
                    "time": 258.2571950000011,
                    "velocity": 0.2283464566929134,
                    "duration": 0.7027406666666138
                },
                {
                    "name": "D#4",
                    "midi": 63,
                    "time": 258.2571950000011,
                    "velocity": 0.2283464566929134,
                    "duration": 0.7027406666666138
                },
                {
                    "name": "G#3",
                    "midi": 56,
                    "time": 258.2571950000011,
                    "velocity": 0.2283464566929134,
                    "duration": 0.7027406666666138
                },
                {
                    "name": "F4",
                    "midi": 65,
                    "time": 258.2571950000011,
                    "velocity": 0.31496062992125984,
                    "duration": 0.3513703333333069
                },
                {
                    "name": "F#4",
                    "midi": 66,
                    "time": 258.6085653333344,
                    "velocity": 0.31496062992125984,
                    "duration": 0.3513703333333069
                },
                {
                    "name": "C4",
                    "midi": 60,
                    "time": 258.9599356666677,
                    "velocity": 0.2283464566929134,
                    "duration": 0.17568516666665346
                },
                {
                    "name": "D#4",
                    "midi": 63,
                    "time": 258.9599356666677,
                    "velocity": 0.1889763779527559,
                    "duration": 0.17568516666665346
                },
                {
                    "name": "G#3",
                    "midi": 56,
                    "time": 258.9599356666677,
                    "velocity": 0.1889763779527559,
                    "duration": 0.17568516666665346
                },
                {
                    "name": "F#4",
                    "midi": 66,
                    "time": 258.9599356666677,
                    "velocity": 0.2440944881889764,
                    "duration": 0.17568516666665346
                },
                {
                    "name": "C#2",
                    "midi": 37,
                    "time": 259.311306000001,
                    "velocity": 0.29133858267716534,
                    "duration": 0.3513703333333069
                },
                {
                    "name": "G#3",
                    "midi": 56,
                    "time": 259.66267633333433,
                    "velocity": 0.1889763779527559,
                    "duration": 0.17568516666665346
                },
                {
                    "name": "F#4",
                    "midi": 66,
                    "time": 259.66267633333433,
                    "velocity": 0.2440944881889764,
                    "duration": 0.17568516666665346
                },
                {
                    "name": "D#4",
                    "midi": 63,
                    "time": 259.66267633333433,
                    "velocity": 0.1889763779527559,
                    "duration": 0.17568516666665346
                },
                {
                    "name": "C4",
                    "midi": 60,
                    "time": 259.66267633333433,
                    "velocity": 0.1889763779527559,
                    "duration": 0.17568516666665346
                },
                {
                    "name": "G#3",
                    "midi": 56,
                    "time": 260.01404666666764,
                    "velocity": 0.1889763779527559,
                    "duration": 0.17568516666665346
                },
                {
                    "name": "F#4",
                    "midi": 66,
                    "time": 260.01404666666764,
                    "velocity": 0.2440944881889764,
                    "duration": 0.17568516666665346
                },
                {
                    "name": "D#4",
                    "midi": 63,
                    "time": 260.01404666666764,
                    "velocity": 0.1889763779527559,
                    "duration": 0.17568516666665346
                },
                {
                    "name": "C4",
                    "midi": 60,
                    "time": 260.01404666666764,
                    "velocity": 0.1889763779527559,
                    "duration": 0.17568516666665346
                },
                {
                    "name": "C4",
                    "midi": 60,
                    "time": 260.36541700000095,
                    "velocity": 0.2283464566929134,
                    "duration": 0.7027406666666138
                },
                {
                    "name": "D#4",
                    "midi": 63,
                    "time": 260.36541700000095,
                    "velocity": 0.2283464566929134,
                    "duration": 0.7027406666666138
                },
                {
                    "name": "G#3",
                    "midi": 56,
                    "time": 260.36541700000095,
                    "velocity": 0.2283464566929134,
                    "duration": 0.7027406666666138
                },
                {
                    "name": "F4",
                    "midi": 65,
                    "time": 260.36541700000095,
                    "velocity": 0.31496062992125984,
                    "duration": 0.3513703333333069
                },
                {
                    "name": "F#4",
                    "midi": 66,
                    "time": 260.71678733333425,
                    "velocity": 0.31496062992125984,
                    "duration": 0.3513703333333069
                },
                {
                    "name": "C4",
                    "midi": 60,
                    "time": 261.06815766666756,
                    "velocity": 0.2283464566929134,
                    "duration": 0.17568516666665346
                },
                {
                    "name": "D#4",
                    "midi": 63,
                    "time": 261.06815766666756,
                    "velocity": 0.1889763779527559,
                    "duration": 0.17568516666665346
                },
                {
                    "name": "G#3",
                    "midi": 56,
                    "time": 261.06815766666756,
                    "velocity": 0.1889763779527559,
                    "duration": 0.17568516666665346
                },
                {
                    "name": "F#4",
                    "midi": 66,
                    "time": 261.06815766666756,
                    "velocity": 0.2440944881889764,
                    "duration": 0.17568516666665346
                },
                {
                    "name": "C#2",
                    "midi": 37,
                    "time": 261.41952800000087,
                    "velocity": 0.29133858267716534,
                    "duration": 0.3513703333333069
                },
                {
                    "name": "E4",
                    "midi": 64,
                    "time": 261.7708983333342,
                    "velocity": 0.2283464566929134,
                    "duration": 0.17568516666665346
                },
                {
                    "name": "C#4",
                    "midi": 61,
                    "time": 261.7708983333342,
                    "velocity": 0.1889763779527559,
                    "duration": 0.17568516666665346
                },
                {
                    "name": "G#3",
                    "midi": 56,
                    "time": 261.7708983333342,
                    "velocity": 0.2047244094488189,
                    "duration": 0.17568516666665346
                },
                {
                    "name": "E4",
                    "midi": 64,
                    "time": 262.1222686666675,
                    "velocity": 0.2283464566929134,
                    "duration": 0.17568516666665346
                },
                {
                    "name": "C#4",
                    "midi": 61,
                    "time": 262.1222686666675,
                    "velocity": 0.1889763779527559,
                    "duration": 0.17568516666665346
                },
                {
                    "name": "G#3",
                    "midi": 56,
                    "time": 262.1222686666675,
                    "velocity": 0.2047244094488189,
                    "duration": 0.17568516666665346
                },
                {
                    "name": "C#4",
                    "midi": 61,
                    "time": 262.4736390000008,
                    "velocity": 0.2283464566929134,
                    "duration": 0.7027406666666138
                },
                {
                    "name": "G3",
                    "midi": 55,
                    "time": 262.4736390000008,
                    "velocity": 0.31496062992125984,
                    "duration": 0.3513703333333069
                },
                {
                    "name": "E4",
                    "midi": 64,
                    "time": 262.4736390000008,
                    "velocity": 0.2283464566929134,
                    "duration": 0.7027406666666138
                },
                {
                    "name": "G#3",
                    "midi": 56,
                    "time": 262.8250093333341,
                    "velocity": 0.31496062992125984,
                    "duration": 0.3513703333333069
                },
                {
                    "name": "C#4",
                    "midi": 61,
                    "time": 263.1763796666674,
                    "velocity": 0.1889763779527559,
                    "duration": 0.17568516666665346
                },
                {
                    "name": "G#3",
                    "midi": 56,
                    "time": 263.1763796666674,
                    "velocity": 0.2047244094488189,
                    "duration": 0.17568516666665346
                },
                {
                    "name": "E4",
                    "midi": 64,
                    "time": 263.1763796666674,
                    "velocity": 0.2283464566929134,
                    "duration": 0.17568516666665346
                },
                {
                    "name": "A2",
                    "midi": 45,
                    "time": 263.5277500000007,
                    "velocity": 0.29133858267716534,
                    "duration": 0.3513703333333069
                },
                {
                    "name": "C#4",
                    "midi": 61,
                    "time": 263.879120333334,
                    "velocity": 0.2440944881889764,
                    "duration": 0.17568516666665346
                },
                {
                    "name": "A3",
                    "midi": 57,
                    "time": 263.879120333334,
                    "velocity": 0.1889763779527559,
                    "duration": 0.17568516666665346
                },
                {
                    "name": "C#4",
                    "midi": 61,
                    "time": 264.2304906666673,
                    "velocity": 0.2440944881889764,
                    "duration": 0.17568516666665346
                },
                {
                    "name": "A3",
                    "midi": 57,
                    "time": 264.2304906666673,
                    "velocity": 0.1889763779527559,
                    "duration": 0.17568516666665346
                },
                {
                    "name": "A3",
                    "midi": 57,
                    "time": 264.58186100000063,
                    "velocity": 0.2283464566929134,
                    "duration": 0.7027406666666138
                },
                {
                    "name": "C4",
                    "midi": 60,
                    "time": 264.58186100000063,
                    "velocity": 0.31496062992125984,
                    "duration": 0.3513703333333069
                },
                {
                    "name": "C#4",
                    "midi": 61,
                    "time": 264.93323133333394,
                    "velocity": 0.31496062992125984,
                    "duration": 0.3513703333333069
                },
                {
                    "name": "A3",
                    "midi": 57,
                    "time": 265.28460166666724,
                    "velocity": 0.1889763779527559,
                    "duration": 0.17568516666665346
                },
                {
                    "name": "C#4",
                    "midi": 61,
                    "time": 265.28460166666724,
                    "velocity": 0.2440944881889764,
                    "duration": 0.17568516666665346
                },
                {
                    "name": "G#2",
                    "midi": 44,
                    "time": 265.63597200000055,
                    "velocity": 0.29133858267716534,
                    "duration": 0.35137033333336376
                },
                {
                    "name": "G#3",
                    "midi": 56,
                    "time": 265.9873423333339,
                    "velocity": 0.2047244094488189,
                    "duration": 0.17568516666665346
                },
                {
                    "name": "D#4",
                    "midi": 63,
                    "time": 265.9873423333339,
                    "velocity": 0.2283464566929134,
                    "duration": 0.17568516666665346
                },
                {
                    "name": "C4",
                    "midi": 60,
                    "time": 265.9873423333339,
                    "velocity": 0.1889763779527559,
                    "duration": 0.17568516666665346
                },
                {
                    "name": "G#3",
                    "midi": 56,
                    "time": 266.3387126666672,
                    "velocity": 0.2047244094488189,
                    "duration": 0.17568516666665346
                },
                {
                    "name": "D#4",
                    "midi": 63,
                    "time": 266.3387126666672,
                    "velocity": 0.2283464566929134,
                    "duration": 0.17568516666665346
                },
                {
                    "name": "C4",
                    "midi": 60,
                    "time": 266.3387126666672,
                    "velocity": 0.1889763779527559,
                    "duration": 0.17568516666665346
                },
                {
                    "name": "C4",
                    "midi": 60,
                    "time": 266.6900830000005,
                    "velocity": 0.2283464566929134,
                    "duration": 0.7027406666666138
                },
                {
                    "name": "G3",
                    "midi": 55,
                    "time": 266.6900830000005,
                    "velocity": 0.31496062992125984,
                    "duration": 0.3513703333333069
                },
                {
                    "name": "D#4",
                    "midi": 63,
                    "time": 266.6900830000005,
                    "velocity": 0.2283464566929134,
                    "duration": 0.7027406666666138
                },
                {
                    "name": "G#3",
                    "midi": 56,
                    "time": 267.04145333333383,
                    "velocity": 0.2440944881889764,
                    "duration": 0.3513703333333069
                },
                {
                    "name": "C4",
                    "midi": 60,
                    "time": 267.39282366666714,
                    "velocity": 0.1889763779527559,
                    "duration": 0.17568516666665346
                },
                {
                    "name": "G#3",
                    "midi": 56,
                    "time": 267.39282366666714,
                    "velocity": 0.2440944881889764,
                    "duration": 0.17568516666665346
                },
                {
                    "name": "D#4",
                    "midi": 63,
                    "time": 267.39282366666714,
                    "velocity": 0.1889763779527559,
                    "duration": 0.17568516666665346
                },
                {
                    "name": "C3",
                    "midi": 48,
                    "time": 267.74419400000045,
                    "velocity": 0.29133858267716534,
                    "duration": 0.3513703333333069
                },
                {
                    "name": "G#3",
                    "midi": 56,
                    "time": 268.09556433333375,
                    "velocity": 0.1889763779527559,
                    "duration": 0.17568516666665346
                },
                {
                    "name": "F#4",
                    "midi": 66,
                    "time": 268.09556433333375,
                    "velocity": 0.2440944881889764,
                    "duration": 0.17568516666665346
                },
                {
                    "name": "D#4",
                    "midi": 63,
                    "time": 268.09556433333375,
                    "velocity": 0.1889763779527559,
                    "duration": 0.17568516666665346
                },
                {
                    "name": "G#3",
                    "midi": 56,
                    "time": 268.44693466666706,
                    "velocity": 0.1889763779527559,
                    "duration": 0.17568516666665346
                },
                {
                    "name": "F#4",
                    "midi": 66,
                    "time": 268.44693466666706,
                    "velocity": 0.2440944881889764,
                    "duration": 0.17568516666665346
                },
                {
                    "name": "D#4",
                    "midi": 63,
                    "time": 268.44693466666706,
                    "velocity": 0.1889763779527559,
                    "duration": 0.17568516666665346
                },
                {
                    "name": "D#4",
                    "midi": 63,
                    "time": 268.79830500000037,
                    "velocity": 0.2283464566929134,
                    "duration": 0.3513703333333069
                },
                {
                    "name": "G#3",
                    "midi": 56,
                    "time": 268.79830500000037,
                    "velocity": 0.2283464566929134,
                    "duration": 0.3513703333333069
                },
                {
                    "name": "F4",
                    "midi": 65,
                    "time": 268.79830500000037,
                    "velocity": 0.31496062992125984,
                    "duration": 0.3513703333333069
                },
                {
                    "name": "G#3",
                    "midi": 56,
                    "time": 269.1496753333337,
                    "velocity": 0.2283464566929134,
                    "duration": 0.3513703333333069
                },
                {
                    "name": "D#4",
                    "midi": 63,
                    "time": 269.1496753333337,
                    "velocity": 0.2283464566929134,
                    "duration": 0.3513703333333069
                },
                {
                    "name": "F#4",
                    "midi": 66,
                    "time": 269.1496753333337,
                    "velocity": 0.31496062992125984,
                    "duration": 0.3513703333333069
                },
                {
                    "name": "D#4",
                    "midi": 63,
                    "time": 269.501045666667,
                    "velocity": 0.1889763779527559,
                    "duration": 0.17568516666665346
                },
                {
                    "name": "G#3",
                    "midi": 56,
                    "time": 269.501045666667,
                    "velocity": 0.1889763779527559,
                    "duration": 0.17568516666665346
                },
                {
                    "name": "F#4",
                    "midi": 66,
                    "time": 269.501045666667,
                    "velocity": 0.2440944881889764,
                    "duration": 0.17568516666665346
                },
                {
                    "name": "C#3",
                    "midi": 49,
                    "time": 269.8524160000003,
                    "velocity": 0.29133858267716534,
                    "duration": 0.3513703333333069
                },
                {
                    "name": "E4",
                    "midi": 64,
                    "time": 270.2037863333336,
                    "velocity": 0.2440944881889764,
                    "duration": 0.17568516666665346
                },
                {
                    "name": "C#4",
                    "midi": 61,
                    "time": 270.2037863333336,
                    "velocity": 0.1889763779527559,
                    "duration": 0.17568516666665346
                },
                {
                    "name": "G#3",
                    "midi": 56,
                    "time": 270.2037863333336,
                    "velocity": 0.1889763779527559,
                    "duration": 0.17568516666665346
                },
                {
                    "name": "E4",
                    "midi": 64,
                    "time": 270.5551566666669,
                    "velocity": 0.2440944881889764,
                    "duration": 0.17568516666665346
                },
                {
                    "name": "C#4",
                    "midi": 61,
                    "time": 270.5551566666669,
                    "velocity": 0.1889763779527559,
                    "duration": 0.17568516666665346
                },
                {
                    "name": "G#3",
                    "midi": 56,
                    "time": 270.5551566666669,
                    "velocity": 0.1889763779527559,
                    "duration": 0.17568516666665346
                },
                {
                    "name": "C#4",
                    "midi": 61,
                    "time": 270.9065270000002,
                    "velocity": 0.23622047244094488,
                    "duration": 0.7027406666666138
                },
                {
                    "name": "G#3",
                    "midi": 56,
                    "time": 270.9065270000002,
                    "velocity": 0.23622047244094488,
                    "duration": 0.7027406666666138
                },
                {
                    "name": "D#4",
                    "midi": 63,
                    "time": 270.9065270000002,
                    "velocity": 0.31496062992125984,
                    "duration": 0.3513703333333069
                },
                {
                    "name": "E4",
                    "midi": 64,
                    "time": 271.2578973333335,
                    "velocity": 0.3228346456692913,
                    "duration": 0.3513703333333069
                },
                {
                    "name": "C#4",
                    "midi": 61,
                    "time": 271.6092676666668,
                    "velocity": 0.1968503937007874,
                    "duration": 0.17568516666665346
                },
                {
                    "name": "G#3",
                    "midi": 56,
                    "time": 271.6092676666668,
                    "velocity": 0.1968503937007874,
                    "duration": 0.17568516666665346
                },
                {
                    "name": "E4",
                    "midi": 64,
                    "time": 271.6092676666668,
                    "velocity": 0.25984251968503935,
                    "duration": 0.17568516666665346
                },
                {
                    "name": "C#3",
                    "midi": 49,
                    "time": 271.96063800000013,
                    "velocity": 0.30708661417322836,
                    "duration": 0.3513703333333069
                },
                {
                    "name": "B3",
                    "midi": 59,
                    "time": 272.31200833333344,
                    "velocity": 0.1968503937007874,
                    "duration": 0.17568516666665346
                },
                {
                    "name": "F4",
                    "midi": 65,
                    "time": 272.31200833333344,
                    "velocity": 0.23622047244094488,
                    "duration": 0.17568516666665346
                },
                {
                    "name": "C#4",
                    "midi": 61,
                    "time": 272.31200833333344,
                    "velocity": 0.2125984251968504,
                    "duration": 0.17568516666665346
                },
                {
                    "name": "G#3",
                    "midi": 56,
                    "time": 272.31200833333344,
                    "velocity": 0.1968503937007874,
                    "duration": 0.17568516666665346
                },
                {
                    "name": "B3",
                    "midi": 59,
                    "time": 272.66337866666674,
                    "velocity": 0.2125984251968504,
                    "duration": 0.17568516666665346
                },
                {
                    "name": "F4",
                    "midi": 65,
                    "time": 272.66337866666674,
                    "velocity": 0.2440944881889764,
                    "duration": 0.17568516666665346
                },
                {
                    "name": "C#4",
                    "midi": 61,
                    "time": 272.66337866666674,
                    "velocity": 0.2283464566929134,
                    "duration": 0.17568516666665346
                },
                {
                    "name": "G#3",
                    "midi": 56,
                    "time": 272.66337866666674,
                    "velocity": 0.2125984251968504,
                    "duration": 0.17568516666665346
                },
                {
                    "name": "F4",
                    "midi": 65,
                    "time": 273.01474900000005,
                    "velocity": 0.2755905511811024,
                    "duration": 0.7027406666666138
                },
                {
                    "name": "B3",
                    "midi": 59,
                    "time": 273.01474900000005,
                    "velocity": 0.2755905511811024,
                    "duration": 0.7027406666666138
                },
                {
                    "name": "G#3",
                    "midi": 56,
                    "time": 273.01474900000005,
                    "velocity": 0.2755905511811024,
                    "duration": 0.7027406666666138
                },
                {
                    "name": "D4",
                    "midi": 62,
                    "time": 273.01474900000005,
                    "velocity": 0.3464566929133858,
                    "duration": 0.3513703333333069
                },
                {
                    "name": "C#4",
                    "midi": 61,
                    "time": 273.36611933333336,
                    "velocity": 0.3700787401574803,
                    "duration": 0.3513703333333069
                },
                {
                    "name": "B3",
                    "midi": 59,
                    "time": 273.71748966666667,
                    "velocity": 0.28346456692913385,
                    "duration": 0.17568516666665346
                },
                {
                    "name": "C#4",
                    "midi": 61,
                    "time": 273.71748966666667,
                    "velocity": 0.2992125984251969,
                    "duration": 0.17568516666665346
                },
                {
                    "name": "G#3",
                    "midi": 56,
                    "time": 273.71748966666667,
                    "velocity": 0.2283464566929134,
                    "duration": 0.17568516666665346
                },
                {
                    "name": "F4",
                    "midi": 65,
                    "time": 273.71748966666667,
                    "velocity": 0.2283464566929134,
                    "duration": 0.17568516666665346
                },
                {
                    "name": "F#2",
                    "midi": 42,
                    "time": 274.06886,
                    "velocity": 0.5039370078740157,
                    "duration": 0.35137033333336376
                },
                {
                    "name": "A3",
                    "midi": 57,
                    "time": 274.42023033333334,
                    "velocity": 0.2440944881889764,
                    "duration": 0.17568516666665346
                },
                {
                    "name": "F#4",
                    "midi": 66,
                    "time": 274.42023033333334,
                    "velocity": 0.29133858267716534,
                    "duration": 0.17568516666665346
                },
                {
                    "name": "C#4",
                    "midi": 61,
                    "time": 274.42023033333334,
                    "velocity": 0.25984251968503935,
                    "duration": 0.17568516666665346
                },
                {
                    "name": "A3",
                    "midi": 57,
                    "time": 274.77160066666664,
                    "velocity": 0.2440944881889764,
                    "duration": 0.17568516666665346
                },
                {
                    "name": "F#4",
                    "midi": 66,
                    "time": 274.77160066666664,
                    "velocity": 0.29133858267716534,
                    "duration": 0.17568516666665346
                },
                {
                    "name": "C#4",
                    "midi": 61,
                    "time": 274.77160066666664,
                    "velocity": 0.25984251968503935,
                    "duration": 0.17568516666665346
                },
                {
                    "name": "F#4",
                    "midi": 66,
                    "time": 275.12297099999995,
                    "velocity": 0.2677165354330709,
                    "duration": 0.7027406666666138
                },
                {
                    "name": "A3",
                    "midi": 57,
                    "time": 275.12297099999995,
                    "velocity": 0.2677165354330709,
                    "duration": 0.7027406666666138
                },
                {
                    "name": "C4",
                    "midi": 60,
                    "time": 275.12297099999995,
                    "velocity": 0.3543307086614173,
                    "duration": 0.3513703333333069
                },
                {
                    "name": "C#4",
                    "midi": 61,
                    "time": 275.47434133333326,
                    "velocity": 0.3543307086614173,
                    "duration": 0.3513703333333069
                },
                {
                    "name": "A3",
                    "midi": 57,
                    "time": 275.82571166666656,
                    "velocity": 0.2677165354330709,
                    "duration": 0.17568516666665346
                },
                {
                    "name": "C#4",
                    "midi": 61,
                    "time": 275.82571166666656,
                    "velocity": 0.28346456692913385,
                    "duration": 0.17568516666665346
                },
                {
                    "name": "F#4",
                    "midi": 66,
                    "time": 275.82571166666656,
                    "velocity": 0.2125984251968504,
                    "duration": 0.17568516666665346
                },
                {
                    "name": "A2",
                    "midi": 45,
                    "time": 276.17708199999987,
                    "velocity": 0.3228346456692913,
                    "duration": 0.3513703333333069
                },
                {
                    "name": "F#4",
                    "midi": 66,
                    "time": 276.5284523333332,
                    "velocity": 0.25984251968503935,
                    "duration": 0.17568516666665346
                },
                {
                    "name": "C4",
                    "midi": 60,
                    "time": 276.5284523333332,
                    "velocity": 0.2283464566929134,
                    "duration": 0.17568516666665346
                },
                {
                    "name": "A3",
                    "midi": 57,
                    "time": 276.5284523333332,
                    "velocity": 0.2125984251968504,
                    "duration": 0.17568516666665346
                },
                {
                    "name": "F#4",
                    "midi": 66,
                    "time": 276.8798226666665,
                    "velocity": 0.25984251968503935,
                    "duration": 0.17568516666665346
                },
                {
                    "name": "C4",
                    "midi": 60,
                    "time": 276.8798226666665,
                    "velocity": 0.2283464566929134,
                    "duration": 0.17568516666665346
                },
                {
                    "name": "A3",
                    "midi": 57,
                    "time": 276.8798226666665,
                    "velocity": 0.2125984251968504,
                    "duration": 0.17568516666665346
                },
                {
                    "name": "F#4",
                    "midi": 66,
                    "time": 277.2311929999998,
                    "velocity": 0.2677165354330709,
                    "duration": 0.7027406666666138
                },
                {
                    "name": "A3",
                    "midi": 57,
                    "time": 277.2311929999998,
                    "velocity": 0.2677165354330709,
                    "duration": 0.7027406666666138
                },
                {
                    "name": "B3",
                    "midi": 59,
                    "time": 277.2311929999998,
                    "velocity": 0.3543307086614173,
                    "duration": 0.3513703333333069
                },
                {
                    "name": "C4",
                    "midi": 60,
                    "time": 277.5825633333331,
                    "velocity": 0.3543307086614173,
                    "duration": 0.3513703333333069
                },
                {
                    "name": "C4",
                    "midi": 60,
                    "time": 277.9339336666664,
                    "velocity": 0.28346456692913385,
                    "duration": 0.17568516666665346
                },
                {
                    "name": "A3",
                    "midi": 57,
                    "time": 277.9339336666664,
                    "velocity": 0.2125984251968504,
                    "duration": 0.17568516666665346
                },
                {
                    "name": "F#4",
                    "midi": 66,
                    "time": 277.9339336666664,
                    "velocity": 0.2125984251968504,
                    "duration": 0.17568516666665346
                },
                {
                    "name": "B2",
                    "midi": 47,
                    "time": 278.2853039999997,
                    "velocity": 0.3228346456692913,
                    "duration": 0.3513703333333069
                },
                {
                    "name": "E4",
                    "midi": 64,
                    "time": 278.636674333333,
                    "velocity": 0.25984251968503935,
                    "duration": 0.17568516666665346
                },
                {
                    "name": "B3",
                    "midi": 59,
                    "time": 278.636674333333,
                    "velocity": 0.2125984251968504,
                    "duration": 0.17568516666665346
                },
                {
                    "name": "G#3",
                    "midi": 56,
                    "time": 278.636674333333,
                    "velocity": 0.2125984251968504,
                    "duration": 0.17568516666665346
                },
                {
                    "name": "E4",
                    "midi": 64,
                    "time": 278.9880446666663,
                    "velocity": 0.25984251968503935,
                    "duration": 0.17568516666665346
                },
                {
                    "name": "B3",
                    "midi": 59,
                    "time": 278.9880446666663,
                    "velocity": 0.2125984251968504,
                    "duration": 0.17568516666665346
                },
                {
                    "name": "G#3",
                    "midi": 56,
                    "time": 278.9880446666663,
                    "velocity": 0.2125984251968504,
                    "duration": 0.17568516666665346
                },
                {
                    "name": "B3",
                    "midi": 59,
                    "time": 279.33941499999963,
                    "velocity": 0.2677165354330709,
                    "duration": 0.7027406666666138
                },
                {
                    "name": "G#3",
                    "midi": 56,
                    "time": 279.33941499999963,
                    "velocity": 0.2677165354330709,
                    "duration": 0.7027406666666138
                },
                {
                    "name": "F#4",
                    "midi": 66,
                    "time": 279.33941499999963,
                    "velocity": 0.3228346456692913,
                    "duration": 0.3513703333333069
                },
                {
                    "name": "E4",
                    "midi": 64,
                    "time": 279.69078533333294,
                    "velocity": 0.3228346456692913,
                    "duration": 0.3513703333333069
                },
                {
                    "name": "B3",
                    "midi": 59,
                    "time": 280.04215566666625,
                    "velocity": 0.2125984251968504,
                    "duration": 0.17568516666665346
                },
                {
                    "name": "G#3",
                    "midi": 56,
                    "time": 280.04215566666625,
                    "velocity": 0.2125984251968504,
                    "duration": 0.17568516666665346
                },
                {
                    "name": "E4",
                    "midi": 64,
                    "time": 280.04215566666625,
                    "velocity": 0.25984251968503935,
                    "duration": 0.17568516666665346
                },
                {
                    "name": "B2",
                    "midi": 47,
                    "time": 280.39352599999955,
                    "velocity": 0.3228346456692913,
                    "duration": 0.3513703333333069
                },
                {
                    "name": "B3",
                    "midi": 59,
                    "time": 280.74489633333286,
                    "velocity": 0.2125984251968504,
                    "duration": 0.17568516666665346
                },
                {
                    "name": "D#4",
                    "midi": 63,
                    "time": 280.74489633333286,
                    "velocity": 0.25984251968503935,
                    "duration": 0.17568516666665346
                },
                {
                    "name": "A3",
                    "midi": 57,
                    "time": 280.74489633333286,
                    "velocity": 0.2125984251968504,
                    "duration": 0.17568516666665346
                },
                {
                    "name": "B3",
                    "midi": 59,
                    "time": 281.09626666666617,
                    "velocity": 0.2125984251968504,
                    "duration": 0.17568516666665346
                },
                {
                    "name": "D#4",
                    "midi": 63,
                    "time": 281.09626666666617,
                    "velocity": 0.25984251968503935,
                    "duration": 0.17568516666665346
                },
                {
                    "name": "A3",
                    "midi": 57,
                    "time": 281.09626666666617,
                    "velocity": 0.2125984251968504,
                    "duration": 0.17568516666665346
                },
                {
                    "name": "B3",
                    "midi": 59,
                    "time": 281.4476369999995,
                    "velocity": 0.2677165354330709,
                    "duration": 0.7027406666666138
                },
                {
                    "name": "A3",
                    "midi": 57,
                    "time": 281.4476369999995,
                    "velocity": 0.2677165354330709,
                    "duration": 0.7027406666666138
                },
                {
                    "name": "E4",
                    "midi": 64,
                    "time": 281.4476369999995,
                    "velocity": 0.3228346456692913,
                    "duration": 0.3513703333333069
                },
                {
                    "name": "D#4",
                    "midi": 63,
                    "time": 281.7990073333328,
                    "velocity": 0.3228346456692913,
                    "duration": 0.3513703333333069
                },
                {
                    "name": "B3",
                    "midi": 59,
                    "time": 282.1503776666661,
                    "velocity": 0.2677165354330709,
                    "duration": 0.17568516666665346
                },
                {
                    "name": "A3",
                    "midi": 57,
                    "time": 282.1503776666661,
                    "velocity": 0.2125984251968504,
                    "duration": 0.17568516666665346
                },
                {
                    "name": "D#4",
                    "midi": 63,
                    "time": 282.1503776666661,
                    "velocity": 0.25984251968503935,
                    "duration": 0.17568516666665346
                },
                {
                    "name": "E3",
                    "midi": 52,
                    "time": 282.5017479999994,
                    "velocity": 0.3228346456692913,
                    "duration": 0.35137033333336376
                },
                {
                    "name": "G#3",
                    "midi": 56,
                    "time": 282.85311833333276,
                    "velocity": 0.2125984251968504,
                    "duration": 0.17568516666665346
                },
                {
                    "name": "B3",
                    "midi": 59,
                    "time": 282.85311833333276,
                    "velocity": 0.25984251968503935,
                    "duration": 0.17568516666665346
                },
                {
                    "name": "G#3",
                    "midi": 56,
                    "time": 283.20448866666607,
                    "velocity": 0.2047244094488189,
                    "duration": 0.17568516666665346
                },
                {
                    "name": "B3",
                    "midi": 59,
                    "time": 283.20448866666607,
                    "velocity": 0.2440944881889764,
                    "duration": 0.17568516666665346
                },
                {
                    "name": "A#3",
                    "midi": 58,
                    "time": 283.5558589999994,
                    "velocity": 0.25984251968503935,
                    "duration": 0.3513703333333069
                },
                {
                    "name": "G#3",
                    "midi": 56,
                    "time": 283.5558589999994,
                    "velocity": 0.31496062992125984,
                    "duration": 0.7027406666666138
                },
                {
                    "name": "B3",
                    "midi": 59,
                    "time": 283.9072293333327,
                    "velocity": 0.25984251968503935,
                    "duration": 0.3513703333333069
                },
                {
                    "name": "B3",
                    "midi": 59,
                    "time": 284.258599666666,
                    "velocity": 0.2047244094488189,
                    "duration": 0.17568516666665346
                },
                {
                    "name": "G#3",
                    "midi": 56,
                    "time": 284.258599666666,
                    "velocity": 0.23622047244094488,
                    "duration": 0.17568516666665346
                },
                {
                    "name": "G#2",
                    "midi": 44,
                    "time": 284.6099699999993,
                    "velocity": 0.30708661417322836,
                    "duration": 0.3513703333333069
                },
                {
                    "name": "F#3",
                    "midi": 54,
                    "time": 284.9613403333326,
                    "velocity": 0.1889763779527559,
                    "duration": 0.17568516666665346
                },
                {
                    "name": "C4",
                    "midi": 60,
                    "time": 284.9613403333326,
                    "velocity": 0.2283464566929134,
                    "duration": 0.17568516666665346
                },
                {
                    "name": "G#3",
                    "midi": 56,
                    "time": 284.9613403333326,
                    "velocity": 0.1889763779527559,
                    "duration": 0.17568516666665346
                },
                {
                    "name": "F#3",
                    "midi": 54,
                    "time": 285.3127106666659,
                    "velocity": 0.18110236220472442,
                    "duration": 0.17568516666665346
                },
                {
                    "name": "C4",
                    "midi": 60,
                    "time": 285.3127106666659,
                    "velocity": 0.2204724409448819,
                    "duration": 0.17568516666665346
                },
                {
                    "name": "G#3",
                    "midi": 56,
                    "time": 285.3127106666659,
                    "velocity": 0.18110236220472442,
                    "duration": 0.17568516666665346
                },
                {
                    "name": "G#3",
                    "midi": 56,
                    "time": 285.6640809999992,
                    "velocity": 0.2125984251968504,
                    "duration": 0.7027406666666138
                },
                {
                    "name": "F#3",
                    "midi": 54,
                    "time": 285.6640809999992,
                    "velocity": 0.2125984251968504,
                    "duration": 0.7027406666666138
                },
                {
                    "name": "C#4",
                    "midi": 61,
                    "time": 285.6640809999992,
                    "velocity": 0.2677165354330709,
                    "duration": 0.3513703333333069
                },
                {
                    "name": "C4",
                    "midi": 60,
                    "time": 286.0154513333325,
                    "velocity": 0.25196850393700787,
                    "duration": 0.3513703333333069
                },
                {
                    "name": "G#3",
                    "midi": 56,
                    "time": 286.3668216666658,
                    "velocity": 0.15748031496062992,
                    "duration": 0.17568516666665346
                },
                {
                    "name": "F#3",
                    "midi": 54,
                    "time": 286.3668216666658,
                    "velocity": 0.15748031496062992,
                    "duration": 0.17568516666665346
                },
                {
                    "name": "C4",
                    "midi": 60,
                    "time": 286.3668216666658,
                    "velocity": 0.1889763779527559,
                    "duration": 0.17568516666665346
                },
                {
                    "name": "C#2",
                    "midi": 37,
                    "time": 286.71819199999914,
                    "velocity": 0.25984251968503935,
                    "duration": 0.26352775000003703
                },
                {
                    "name": "G#2",
                    "midi": 44,
                    "time": 287.24524749999915,
                    "velocity": 0.2125984251968504,
                    "duration": 0.2635277499999802
                },
                {
                    "name": "C#3",
                    "midi": 49,
                    "time": 287.7723029999991,
                    "velocity": 0.2125984251968504,
                    "duration": 0.2635277499999802
                },
                {
                    "name": "F3",
                    "midi": 53,
                    "time": 288.2993584999991,
                    "velocity": 0.2125984251968504,
                    "duration": 0.2635277499999802
                },
                {
                    "name": "C#2",
                    "midi": 37,
                    "time": 288.82641399999903,
                    "velocity": 0.25984251968503935,
                    "duration": 0.2635277499999802
                },
                {
                    "name": "G#2",
                    "midi": 44,
                    "time": 289.353469499999,
                    "velocity": 0.2283464566929134,
                    "duration": 0.2635277499999802
                },
                {
                    "name": "C#3",
                    "midi": 49,
                    "time": 289.88052499999895,
                    "velocity": 0.2283464566929134,
                    "duration": 0.2635277499999802
                },
                {
                    "name": "F3",
                    "midi": 53,
                    "time": 290.4075804999989,
                    "velocity": 0.2283464566929134,
                    "duration": 0.2635277499999802
                },
                {
                    "name": "G#1",
                    "midi": 32,
                    "time": 290.9346359999989,
                    "velocity": 0.25984251968503935,
                    "duration": 0.26352775000003703
                },
                {
                    "name": "G#2",
                    "midi": 44,
                    "time": 291.4616914999989,
                    "velocity": 0.25984251968503935,
                    "duration": 0.2635277499999802
                },
                {
                    "name": "D#3",
                    "midi": 51,
                    "time": 291.98874699999885,
                    "velocity": 0.2204724409448819,
                    "duration": 0.2635277499999802
                },
                {
                    "name": "F#3",
                    "midi": 54,
                    "time": 292.5158024999988,
                    "velocity": 0.2204724409448819,
                    "duration": 0.2635277499999802
                },
                {
                    "name": "G#1",
                    "midi": 32,
                    "time": 293.0428579999988,
                    "velocity": 0.25984251968503935,
                    "duration": 0.2635277499999802
                },
                {
                    "name": "G#2",
                    "midi": 44,
                    "time": 293.56991349999873,
                    "velocity": 0.2125984251968504,
                    "duration": 0.2635277499999802
                },
                {
                    "name": "D#3",
                    "midi": 51,
                    "time": 294.0969689999987,
                    "velocity": 0.2125984251968504,
                    "duration": 0.2635277499999802
                },
                {
                    "name": "F#3",
                    "midi": 54,
                    "time": 294.62402449999865,
                    "velocity": 0.2125984251968504,
                    "duration": 0.2635277499999802
                },
                {
                    "name": "C#2",
                    "midi": 37,
                    "time": 295.1510799999986,
                    "velocity": 0.25984251968503935,
                    "duration": 0.2635277499999802
                },
                {
                    "name": "G#2",
                    "midi": 44,
                    "time": 295.6781354999986,
                    "velocity": 0.2125984251968504,
                    "duration": 0.5270555000000172
                },
                {
                    "name": "C#3",
                    "midi": 49,
                    "time": 296.2051909999986,
                    "velocity": 0.2125984251968504,
                    "duration": 0.5270555000000172
                },
                {
                    "name": "F3",
                    "midi": 53,
                    "time": 296.7322464999986,
                    "velocity": 0.2125984251968504,
                    "duration": 0.5270555000000172
                },
                {
                    "name": "A#1",
                    "midi": 34,
                    "time": 297.2593019999986,
                    "velocity": 0.25984251968503935,
                    "duration": 0.5270555000000172
                },
                {
                    "name": "C#3",
                    "midi": 49,
                    "time": 297.78635749999864,
                    "velocity": 0.25984251968503935,
                    "duration": 0.5270555000000172
                },
                {
                    "name": "D#2",
                    "midi": 39,
                    "time": 298.31341299999866,
                    "velocity": 0.2204724409448819,
                    "duration": 0.5270555000000172
                },
                {
                    "name": "D#3",
                    "midi": 51,
                    "time": 298.8404684999987,
                    "velocity": 0.2204724409448819,
                    "duration": 0.5270555000000172
                },
                {
                    "name": "G#1",
                    "midi": 32,
                    "time": 299.3675239999987,
                    "velocity": 0.25984251968503935,
                    "duration": 0.5270555000000172
                },
                {
                    "name": "G#2",
                    "midi": 44,
                    "time": 299.8945794999987,
                    "velocity": 0.2125984251968504,
                    "duration": 0.5270555000000172
                },
                {
                    "name": "C3",
                    "midi": 48,
                    "time": 300.42163499999873,
                    "velocity": 0.2283464566929134,
                    "duration": 0.5270555000000172
                },
                {
                    "name": "D#3",
                    "midi": 51,
                    "time": 300.94869049999875,
                    "velocity": 0.2440944881889764,
                    "duration": 0.5270555000000172
                },
                {
                    "name": "G#1",
                    "midi": 32,
                    "time": 301.47574599999876,
                    "velocity": 0.28346456692913385,
                    "duration": 0.5270555000000172
                },
                {
                    "name": "G#2",
                    "midi": 44,
                    "time": 302.0028014999988,
                    "velocity": 0.25984251968503935,
                    "duration": 0.5270555000000172
                },
                {
                    "name": "D#3",
                    "midi": 51,
                    "time": 302.5298569999988,
                    "velocity": 0.25984251968503935,
                    "duration": 0.5270555000000172
                },
                {
                    "name": "F#3",
                    "midi": 54,
                    "time": 303.0569124999988,
                    "velocity": 0.2283464566929134,
                    "duration": 0.5270555000000172
                },
                {
                    "name": "C#2",
                    "midi": 37,
                    "time": 303.58396799999883,
                    "velocity": 0.25984251968503935,
                    "duration": 0.5270555000000172
                },
                {
                    "name": "G#2",
                    "midi": 44,
                    "time": 304.11102349999885,
                    "velocity": 0.2204724409448819,
                    "duration": 0.5270555000000172
                },
                {
                    "name": "C#3",
                    "midi": 49,
                    "time": 304.63807899999887,
                    "velocity": 0.2283464566929134,
                    "duration": 0.5270555000000172
                },
                {
                    "name": "F3",
                    "midi": 53,
                    "time": 305.1651344999989,
                    "velocity": 0.2283464566929134,
                    "duration": 0.5270555000000172
                },
                {
                    "name": "C#2",
                    "midi": 37,
                    "time": 305.6921899999989,
                    "velocity": 0.2677165354330709,
                    "duration": 0.5270555000000172
                },
                {
                    "name": "B2",
                    "midi": 47,
                    "time": 306.2192454999989,
                    "velocity": 0.23622047244094488,
                    "duration": 0.5270555000000172
                },
                {
                    "name": "C#3",
                    "midi": 49,
                    "time": 306.74630099999894,
                    "velocity": 0.23622047244094488,
                    "duration": 0.5270555000000172
                },
                {
                    "name": "F3",
                    "midi": 53,
                    "time": 307.27335649999895,
                    "velocity": 0.23622047244094488,
                    "duration": 0.5270555000000172
                },
                {
                    "name": "F#1",
                    "midi": 30,
                    "time": 307.80041199999897,
                    "velocity": 0.2755905511811024,
                    "duration": 0.5270555000000172
                },
                {
                    "name": "B2",
                    "midi": 47,
                    "time": 308.327467499999,
                    "velocity": 0.2283464566929134,
                    "duration": 0.5270555000000172
                },
                {
                    "name": "D3",
                    "midi": 50,
                    "time": 308.854522999999,
                    "velocity": 0.2283464566929134,
                    "duration": 0.5270555000000172
                },
                {
                    "name": "F3",
                    "midi": 53,
                    "time": 309.381578499999,
                    "velocity": 0.2283464566929134,
                    "duration": 0.5270555000000172
                },
                {
                    "name": "F#1",
                    "midi": 30,
                    "time": 309.90863399999904,
                    "velocity": 0.25984251968503935,
                    "duration": 0.5270555000000172
                },
                {
                    "name": "A#2",
                    "midi": 46,
                    "time": 310.43568949999906,
                    "velocity": 0.2283464566929134,
                    "duration": 0.5270555000000172
                },
                {
                    "name": "C#3",
                    "midi": 49,
                    "time": 310.9627449999991,
                    "velocity": 0.2204724409448819,
                    "duration": 0.5270555000000172
                },
                {
                    "name": "F#3",
                    "midi": 54,
                    "time": 311.4898004999991,
                    "velocity": 0.2204724409448819,
                    "duration": 0.5270555000000172
                },
                {
                    "name": "G#1",
                    "midi": 32,
                    "time": 312.0168559999991,
                    "velocity": 0.25984251968503935,
                    "duration": 0.5270555000000172
                },
                {
                    "name": "F2",
                    "midi": 41,
                    "time": 312.5439114999991,
                    "velocity": 0.2283464566929134,
                    "duration": 0.5270555000000172
                },
                {
                    "name": "G#2",
                    "midi": 44,
                    "time": 313.07096699999914,
                    "velocity": 0.2283464566929134,
                    "duration": 0.5270555000000172
                },
                {
                    "name": "C#3",
                    "midi": 49,
                    "time": 313.59802249999916,
                    "velocity": 0.2283464566929134,
                    "duration": 0.5270555000000172
                },
                {
                    "name": "G#1",
                    "midi": 32,
                    "time": 314.1250779999992,
                    "velocity": 0.25984251968503935,
                    "duration": 0.5270555000000172
                },
                {
                    "name": "F#2",
                    "midi": 42,
                    "time": 314.6521334999992,
                    "velocity": 0.2283464566929134,
                    "duration": 0.5270555000000172
                },
                {
                    "name": "G#2",
                    "midi": 44,
                    "time": 315.1791889999992,
                    "velocity": 0.2283464566929134,
                    "duration": 0.5270555000000172
                },
                {
                    "name": "C3",
                    "midi": 48,
                    "time": 315.70624449999923,
                    "velocity": 0.2283464566929134,
                    "duration": 0.5270555000000172
                },
                {
                    "name": "C#2",
                    "midi": 37,
                    "time": 316.23329999999925,
                    "velocity": 0.25984251968503935,
                    "duration": 0.5270555000000172
                },
                {
                    "name": "F2",
                    "midi": 41,
                    "time": 316.76035549999926,
                    "velocity": 0.23622047244094488,
                    "duration": 0.5270555000000172
                },
                {
                    "name": "G#2",
                    "midi": 44,
                    "time": 317.2874109999993,
                    "velocity": 0.2440944881889764,
                    "duration": 0.5270555000000172
                },
                {
                    "name": "C#3",
                    "midi": 49,
                    "time": 317.8144664999993,
                    "velocity": 0.2677165354330709,
                    "duration": 0.5270555000000172
                },
                {
                    "name": "A1",
                    "midi": 33,
                    "time": 318.3415219999993,
                    "velocity": 0.31496062992125984,
                    "duration": 0.5270555000000172
                },
                {
                    "name": "A2",
                    "midi": 45,
                    "time": 318.86857749999933,
                    "velocity": 0.2755905511811024,
                    "duration": 0.5270555000000172
                },
                {
                    "name": "G#1",
                    "midi": 32,
                    "time": 319.39563299999935,
                    "velocity": 0.2440944881889764,
                    "duration": 0.5270555000000172
                },
                {
                    "name": "G#2",
                    "midi": 44,
                    "time": 319.92268849999937,
                    "velocity": 0.2204724409448819,
                    "duration": 0.5270555000000172
                },
                {
                    "name": "C#2",
                    "midi": 37,
                    "time": 320.4497439999994,
                    "velocity": 0.25984251968503935,
                    "duration": 0.26352775000003703
                },
                {
                    "name": "G#3",
                    "midi": 56,
                    "time": 320.7132717499994,
                    "velocity": 0.1732283464566929,
                    "duration": 0.2635277499999802
                },
                {
                    "name": "E4",
                    "midi": 64,
                    "time": 320.9767994999994,
                    "velocity": 0.13385826771653545,
                    "duration": 0.2635277499999802
                },
                {
                    "name": "G#4",
                    "midi": 68,
                    "time": 320.9767994999994,
                    "velocity": 0.25984251968503935,
                    "duration": 0.2635277499999802
                },
                {
                    "name": "C#4",
                    "midi": 61,
                    "time": 320.9767994999994,
                    "velocity": 0.13385826771653545,
                    "duration": 0.2635277499999802
                },
                {
                    "name": "G#3",
                    "midi": 56,
                    "time": 321.2403272499994,
                    "velocity": 0.1732283464566929,
                    "duration": 0.2635277499999802
                },
                {
                    "name": "E4",
                    "midi": 64,
                    "time": 321.50385499999936,
                    "velocity": 0.13385826771653545,
                    "duration": 0.2635277499999802
                },
                {
                    "name": "G#4",
                    "midi": 68,
                    "time": 321.50385499999936,
                    "velocity": 0.25984251968503935,
                    "duration": 0.2635277499999802
                },
                {
                    "name": "C#4",
                    "midi": 61,
                    "time": 321.50385499999936,
                    "velocity": 0.13385826771653545,
                    "duration": 0.2635277499999802
                },
                {
                    "name": "G#3",
                    "midi": 56,
                    "time": 321.76738274999934,
                    "velocity": 0.1732283464566929,
                    "duration": 0.2635277499999802
                },
                {
                    "name": "E4",
                    "midi": 64,
                    "time": 322.0309104999993,
                    "velocity": 0.13385826771653545,
                    "duration": 0.2635277499999802
                },
                {
                    "name": "C#4",
                    "midi": 61,
                    "time": 322.0309104999993,
                    "velocity": 0.13385826771653545,
                    "duration": 0.2635277499999802
                },
                {
                    "name": "G#4",
                    "midi": 68,
                    "time": 322.0309104999993,
                    "velocity": 0.25984251968503935,
                    "duration": 0.2635277499999802
                },
                {
                    "name": "G#3",
                    "midi": 56,
                    "time": 322.2944382499993,
                    "velocity": 0.1732283464566929,
                    "duration": 0.2635277499999802
                },
                {
                    "name": "C#2",
                    "midi": 37,
                    "time": 322.5579659999993,
                    "velocity": 0.25984251968503935,
                    "duration": 0.2635277499999802
                },
                {
                    "name": "G#3",
                    "midi": 56,
                    "time": 322.82149374999926,
                    "velocity": 0.1732283464566929,
                    "duration": 0.2635277499999802
                },
                {
                    "name": "E4",
                    "midi": 64,
                    "time": 323.08502149999924,
                    "velocity": 0.13385826771653545,
                    "duration": 0.2635277499999802
                },
                {
                    "name": "G#4",
                    "midi": 68,
                    "time": 323.08502149999924,
                    "velocity": 0.25984251968503935,
                    "duration": 0.2635277499999802
                },
                {
                    "name": "C#4",
                    "midi": 61,
                    "time": 323.08502149999924,
                    "velocity": 0.13385826771653545,
                    "duration": 0.2635277499999802
                },
                {
                    "name": "G#3",
                    "midi": 56,
                    "time": 323.3485492499992,
                    "velocity": 0.1732283464566929,
                    "duration": 0.2635277499999802
                },
                {
                    "name": "E4",
                    "midi": 64,
                    "time": 323.6120769999992,
                    "velocity": 0.13385826771653545,
                    "duration": 0.2635277499999802
                },
                {
                    "name": "G#4",
                    "midi": 68,
                    "time": 323.6120769999992,
                    "velocity": 0.25984251968503935,
                    "duration": 0.2635277499999802
                },
                {
                    "name": "C#4",
                    "midi": 61,
                    "time": 323.6120769999992,
                    "velocity": 0.13385826771653545,
                    "duration": 0.2635277499999802
                },
                {
                    "name": "G#3",
                    "midi": 56,
                    "time": 323.8756047499992,
                    "velocity": 0.1732283464566929,
                    "duration": 0.2635277499999802
                },
                {
                    "name": "C#4",
                    "midi": 61,
                    "time": 324.13913249999916,
                    "velocity": 0.13385826771653545,
                    "duration": 0.2635277499999802
                },
                {
                    "name": "G#4",
                    "midi": 68,
                    "time": 324.13913249999916,
                    "velocity": 0.25984251968503935,
                    "duration": 0.2635277499999802
                },
                {
                    "name": "E4",
                    "midi": 64,
                    "time": 324.13913249999916,
                    "velocity": 0.13385826771653545,
                    "duration": 0.2635277499999802
                },
                {
                    "name": "G#3",
                    "midi": 56,
                    "time": 324.40266024999914,
                    "velocity": 0.1732283464566929,
                    "duration": 0.2635277499999802
                },
                {
                    "name": "G#2",
                    "midi": 44,
                    "time": 324.6661879999991,
                    "velocity": 0.25984251968503935,
                    "duration": 0.26352775000003703
                },
                {
                    "name": "G#1",
                    "midi": 32,
                    "time": 324.6661879999991,
                    "velocity": 0.2125984251968504,
                    "duration": 0.26352775000003703
                },
                {
                    "name": "G#3",
                    "midi": 56,
                    "time": 324.92971574999916,
                    "velocity": 0.1732283464566929,
                    "duration": 0.2635277499999802
                },
                {
                    "name": "F#4",
                    "midi": 66,
                    "time": 325.19324349999914,
                    "velocity": 0.13385826771653545,
                    "duration": 0.2635277499999802
                },
                {
                    "name": "G#4",
                    "midi": 68,
                    "time": 325.19324349999914,
                    "velocity": 0.29133858267716534,
                    "duration": 0.2635277499999802
                },
                {
                    "name": "C4",
                    "midi": 60,
                    "time": 325.19324349999914,
                    "velocity": 0.13385826771653545,
                    "duration": 0.2635277499999802
                },
                {
                    "name": "G#3",
                    "midi": 56,
                    "time": 325.4567712499991,
                    "velocity": 0.1732283464566929,
                    "duration": 0.2635277499999802
                },
                {
                    "name": "F#4",
                    "midi": 66,
                    "time": 325.7202989999991,
                    "velocity": 0.13385826771653545,
                    "duration": 0.2635277499999802
                },
                {
                    "name": "G#4",
                    "midi": 68,
                    "time": 325.7202989999991,
                    "velocity": 0.31496062992125984,
                    "duration": 0.2635277499999802
                },
                {
                    "name": "C4",
                    "midi": 60,
                    "time": 325.7202989999991,
                    "velocity": 0.13385826771653545,
                    "duration": 0.2635277499999802
                },
                {
                    "name": "G#3",
                    "midi": 56,
                    "time": 325.9838267499991,
                    "velocity": 0.1732283464566929,
                    "duration": 0.2635277499999802
                },
                {
                    "name": "F#4",
                    "midi": 66,
                    "time": 326.24735449999906,
                    "velocity": 0.13385826771653545,
                    "duration": 0.2635277499999802
                },
                {
                    "name": "C4",
                    "midi": 60,
                    "time": 326.24735449999906,
                    "velocity": 0.13385826771653545,
                    "duration": 0.2635277499999802
                },
                {
                    "name": "A4",
                    "midi": 69,
                    "time": 326.24735449999906,
                    "velocity": 0.3228346456692913,
                    "duration": 0.2635277499999802
                },
                {
                    "name": "G#3",
                    "midi": 56,
                    "time": 326.51088224999904,
                    "velocity": 0.1732283464566929,
                    "duration": 0.2635277499999802
                },
                {
                    "name": "G#2",
                    "midi": 44,
                    "time": 326.774409999999,
                    "velocity": 0.25984251968503935,
                    "duration": 0.2635277499999802
                },
                {
                    "name": "G#1",
                    "midi": 32,
                    "time": 326.774409999999,
                    "velocity": 0.2125984251968504,
                    "duration": 0.2635277499999802
                },
                {
                    "name": "G#3",
                    "midi": 56,
                    "time": 327.037937749999,
                    "velocity": 0.1732283464566929,
                    "duration": 0.2635277499999802
                },
                {
                    "name": "F#4",
                    "midi": 66,
                    "time": 327.301465499999,
                    "velocity": 0.13385826771653545,
                    "duration": 0.2635277499999802
                },
                {
                    "name": "C4",
                    "midi": 60,
                    "time": 327.301465499999,
                    "velocity": 0.13385826771653545,
                    "duration": 0.2635277499999802
                },
                {
                    "name": "G#4",
                    "midi": 68,
                    "time": 327.301465499999,
                    "velocity": 0.25984251968503935,
                    "duration": 0.2635277499999802
                },
                {
                    "name": "G#3",
                    "midi": 56,
                    "time": 327.56499324999896,
                    "velocity": 0.1732283464566929,
                    "duration": 0.2635277499999802
                },
                {
                    "name": "F#4",
                    "midi": 66,
                    "time": 327.82852099999894,
                    "velocity": 0.13385826771653545,
                    "duration": 0.2635277499999802
                },
                {
                    "name": "C4",
                    "midi": 60,
                    "time": 327.82852099999894,
                    "velocity": 0.13385826771653545,
                    "duration": 0.2635277499999802
                },
                {
                    "name": "G#4",
                    "midi": 68,
                    "time": 327.82852099999894,
                    "velocity": 0.25984251968503935,
                    "duration": 0.2635277499999802
                },
                {
                    "name": "G#3",
                    "midi": 56,
                    "time": 328.0920487499989,
                    "velocity": 0.1732283464566929,
                    "duration": 0.2635277499999802
                },
                {
                    "name": "F#4",
                    "midi": 66,
                    "time": 328.3555764999989,
                    "velocity": 0.13385826771653545,
                    "duration": 0.2635277499999802
                },
                {
                    "name": "C4",
                    "midi": 60,
                    "time": 328.3555764999989,
                    "velocity": 0.13385826771653545,
                    "duration": 0.2635277499999802
                },
                {
                    "name": "G#4",
                    "midi": 68,
                    "time": 328.3555764999989,
                    "velocity": 0.25984251968503935,
                    "duration": 0.2635277499999802
                },
                {
                    "name": "G#3",
                    "midi": 56,
                    "time": 328.6191042499989,
                    "velocity": 0.1732283464566929,
                    "duration": 0.2635277499999802
                },
                {
                    "name": "C#2",
                    "midi": 37,
                    "time": 328.88263199999886,
                    "velocity": 0.25984251968503935,
                    "duration": 0.26352775000003703
                },
                {
                    "name": "G#3",
                    "midi": 56,
                    "time": 329.1461597499989,
                    "velocity": 0.1732283464566929,
                    "duration": 0.2635277499999802
                },
                {
                    "name": "E4",
                    "midi": 64,
                    "time": 329.4096874999989,
                    "velocity": 0.25984251968503935,
                    "duration": 0.2635277499999802
                },
                {
                    "name": "C#4",
                    "midi": 61,
                    "time": 329.4096874999989,
                    "velocity": 0.13385826771653545,
                    "duration": 0.2635277499999802
                },
                {
                    "name": "G#3",
                    "midi": 56,
                    "time": 329.67321524999886,
                    "velocity": 0.1732283464566929,
                    "duration": 0.2635277499999802
                },
                {
                    "name": "E4",
                    "midi": 64,
                    "time": 329.93674299999884,
                    "velocity": 0.25984251968503935,
                    "duration": 0.2635277499999802
                },
                {
                    "name": "C#4",
                    "midi": 61,
                    "time": 329.93674299999884,
                    "velocity": 0.13385826771653545,
                    "duration": 0.2635277499999802
                },
                {
                    "name": "G#3",
                    "midi": 56,
                    "time": 330.2002707499988,
                    "velocity": 0.1732283464566929,
                    "duration": 0.2635277499999802
                },
                {
                    "name": "C#4",
                    "midi": 61,
                    "time": 330.4637984999988,
                    "velocity": 0.13385826771653545,
                    "duration": 0.2635277499999802
                },
                {
                    "name": "E4",
                    "midi": 64,
                    "time": 330.4637984999988,
                    "velocity": 0.25984251968503935,
                    "duration": 0.2635277499999802
                },
                {
                    "name": "G#3",
                    "midi": 56,
                    "time": 330.7273262499988,
                    "velocity": 0.1732283464566929,
                    "duration": 0.2635277499999802
                },
                {
                    "name": "A2",
                    "midi": 45,
                    "time": 330.99085399999876,
                    "velocity": 0.3228346456692913,
                    "duration": 0.2635277499999802
                },
                {
                    "name": "A3",
                    "midi": 57,
                    "time": 331.25438174999874,
                    "velocity": 0.1889763779527559,
                    "duration": 0.2635277499999802
                },
                {
                    "name": "F#4",
                    "midi": 66,
                    "time": 331.5179094999987,
                    "velocity": 0.3543307086614173,
                    "duration": 0.2635277499999802
                },
                {
                    "name": "C#4",
                    "midi": 61,
                    "time": 331.5179094999987,
                    "velocity": 0.14960629921259844,
                    "duration": 0.2635277499999802
                },
                {
                    "name": "A3",
                    "midi": 57,
                    "time": 331.7814372499987,
                    "velocity": 0.1968503937007874,
                    "duration": 0.2635277499999802
                },
                {
                    "name": "E4",
                    "midi": 64,
                    "time": 332.0449649999987,
                    "velocity": 0.4015748031496063,
                    "duration": 0.2635277499999802
                },
                {
                    "name": "C#4",
                    "midi": 61,
                    "time": 332.0449649999987,
                    "velocity": 0.15748031496062992,
                    "duration": 0.2635277499999802
                },
                {
                    "name": "A3",
                    "midi": 57,
                    "time": 332.30849274999866,
                    "velocity": 0.2047244094488189,
                    "duration": 0.2635277499999802
                },
                {
                    "name": "C#4",
                    "midi": 61,
                    "time": 332.57202049999864,
                    "velocity": 0.1732283464566929,
                    "duration": 0.2635277499999802
                },
                {
                    "name": "F#4",
                    "midi": 66,
                    "time": 332.57202049999864,
                    "velocity": 0.4094488188976378,
                    "duration": 0.2635277499999802
                },
                {
                    "name": "A3",
                    "midi": 57,
                    "time": 332.8355482499986,
                    "velocity": 0.2204724409448819,
                    "duration": 0.2635277499999802
                },
                {
                    "name": "G#2",
                    "midi": 44,
                    "time": 333.0990759999986,
                    "velocity": 0.3858267716535433,
                    "duration": 0.26352775000003703
                },
                {
                    "name": "G#3",
                    "midi": 56,
                    "time": 333.36260374999864,
                    "velocity": 0.2125984251968504,
                    "duration": 0.2635277499999802
                },
                {
                    "name": "D#4",
                    "midi": 63,
                    "time": 333.6261314999986,
                    "velocity": 0.1732283464566929,
                    "duration": 0.2635277499999802
                },
                {
                    "name": "G#4",
                    "midi": 68,
                    "time": 333.6261314999986,
                    "velocity": 0.3543307086614173,
                    "duration": 0.2635277499999802
                },
                {
                    "name": "C4",
                    "midi": 60,
                    "time": 333.6261314999986,
                    "velocity": 0.1732283464566929,
                    "duration": 0.2635277499999802
                },
                {
                    "name": "G#3",
                    "midi": 56,
                    "time": 333.8896592499986,
                    "velocity": 0.2047244094488189,
                    "duration": 0.2635277499999802
                },
                {
                    "name": "D#4",
                    "midi": 63,
                    "time": 334.1531869999986,
                    "velocity": 0.15748031496062992,
                    "duration": 0.2635277499999802
                },
                {
                    "name": "G#4",
                    "midi": 68,
                    "time": 334.1531869999986,
                    "velocity": 0.33858267716535434,
                    "duration": 0.2635277499999802
                },
                {
                    "name": "C4",
                    "midi": 60,
                    "time": 334.1531869999986,
                    "velocity": 0.15748031496062992,
                    "duration": 0.2635277499999802
                },
                {
                    "name": "G#3",
                    "midi": 56,
                    "time": 334.41671474999856,
                    "velocity": 0.1968503937007874,
                    "duration": 0.2635277499999802
                },
                {
                    "name": "D#4",
                    "midi": 63,
                    "time": 334.68024249999854,
                    "velocity": 0.14960629921259844,
                    "duration": 0.2635277499999802
                },
                {
                    "name": "C4",
                    "midi": 60,
                    "time": 334.68024249999854,
                    "velocity": 0.14960629921259844,
                    "duration": 0.2635277499999802
                },
                {
                    "name": "G#4",
                    "midi": 68,
                    "time": 334.68024249999854,
                    "velocity": 0.33070866141732286,
                    "duration": 0.2635277499999802
                },
                {
                    "name": "G#3",
                    "midi": 56,
                    "time": 334.9437702499985,
                    "velocity": 0.1889763779527559,
                    "duration": 0.2635277499999802
                },
                {
                    "name": "G#2",
                    "midi": 44,
                    "time": 335.2072979999985,
                    "velocity": 0.29133858267716534,
                    "duration": 0.26352775000003703
                },
                {
                    "name": "G#3",
                    "midi": 56,
                    "time": 335.47082574999854,
                    "velocity": 0.1732283464566929,
                    "duration": 0.2635277499999802
                },
                {
                    "name": "F#4",
                    "midi": 66,
                    "time": 335.7343534999985,
                    "velocity": 0.13385826771653545,
                    "duration": 0.2635277499999802
                },
                {
                    "name": "C4",
                    "midi": 60,
                    "time": 335.7343534999985,
                    "velocity": 0.13385826771653545,
                    "duration": 0.2635277499999802
                },
                {
                    "name": "G#4",
                    "midi": 68,
                    "time": 335.7343534999985,
                    "velocity": 0.31496062992125984,
                    "duration": 0.2635277499999802
                },
                {
                    "name": "G#3",
                    "midi": 56,
                    "time": 335.9978812499985,
                    "velocity": 0.1732283464566929,
                    "duration": 0.2635277499999802
                },
                {
                    "name": "F#4",
                    "midi": 66,
                    "time": 336.2614089999985,
                    "velocity": 0.13385826771653545,
                    "duration": 0.2635277499999802
                },
                {
                    "name": "C4",
                    "midi": 60,
                    "time": 336.2614089999985,
                    "velocity": 0.13385826771653545,
                    "duration": 0.2635277499999802
                },
                {
                    "name": "A4",
                    "midi": 69,
                    "time": 336.2614089999985,
                    "velocity": 0.33070866141732286,
                    "duration": 0.2635277499999802
                },
                {
                    "name": "G#3",
                    "midi": 56,
                    "time": 336.52493674999846,
                    "velocity": 0.1732283464566929,
                    "duration": 0.2635277499999802
                },
                {
                    "name": "F#4",
                    "midi": 66,
                    "time": 336.78846449999844,
                    "velocity": 0.13385826771653545,
                    "duration": 0.2635277499999802
                },
                {
                    "name": "C4",
                    "midi": 60,
                    "time": 336.78846449999844,
                    "velocity": 0.13385826771653545,
                    "duration": 0.2635277499999802
                },
                {
                    "name": "G#4",
                    "midi": 68,
                    "time": 336.78846449999844,
                    "velocity": 0.31496062992125984,
                    "duration": 0.2635277499999802
                },
                {
                    "name": "G#3",
                    "midi": 56,
                    "time": 337.0519922499984,
                    "velocity": 0.1732283464566929,
                    "duration": 0.2635277499999802
                },
                {
                    "name": "C#2",
                    "midi": 37,
                    "time": 337.3155199999984,
                    "velocity": 0.25984251968503935,
                    "duration": 0.26352775000003703
                },
                {
                    "name": "G#3",
                    "midi": 56,
                    "time": 337.57904774999844,
                    "velocity": 0.1732283464566929,
                    "duration": 0.2635277499999802
                },
                {
                    "name": "E4",
                    "midi": 64,
                    "time": 337.8425754999984,
                    "velocity": 0.13385826771653545,
                    "duration": 0.2635277499999802
                },
                {
                    "name": "G#4",
                    "midi": 68,
                    "time": 337.8425754999984,
                    "velocity": 0.25984251968503935,
                    "duration": 0.2635277499999802
                },
                {
                    "name": "C#4",
                    "midi": 61,
                    "time": 337.8425754999984,
                    "velocity": 0.13385826771653545,
                    "duration": 0.2635277499999802
                },
                {
                    "name": "G#3",
                    "midi": 56,
                    "time": 338.1061032499984,
                    "velocity": 0.1732283464566929,
                    "duration": 0.2635277499999802
                },
                {
                    "name": "E4",
                    "midi": 64,
                    "time": 338.3696309999984,
                    "velocity": 0.13385826771653545,
                    "duration": 0.2635277499999802
                },
                {
                    "name": "G#4",
                    "midi": 68,
                    "time": 338.3696309999984,
                    "velocity": 0.25984251968503935,
                    "duration": 0.2635277499999802
                },
                {
                    "name": "C#4",
                    "midi": 61,
                    "time": 338.3696309999984,
                    "velocity": 0.13385826771653545,
                    "duration": 0.2635277499999802
                },
                {
                    "name": "G#3",
                    "midi": 56,
                    "time": 338.63315874999836,
                    "velocity": 0.1732283464566929,
                    "duration": 0.2635277499999802
                },
                {
                    "name": "E4",
                    "midi": 64,
                    "time": 338.89668649999834,
                    "velocity": 0.13385826771653545,
                    "duration": 0.2635277499999802
                },
                {
                    "name": "C#4",
                    "midi": 61,
                    "time": 338.89668649999834,
                    "velocity": 0.13385826771653545,
                    "duration": 0.2635277499999802
                },
                {
                    "name": "G#4",
                    "midi": 68,
                    "time": 338.89668649999834,
                    "velocity": 0.25984251968503935,
                    "duration": 0.2635277499999802
                },
                {
                    "name": "G#3",
                    "midi": 56,
                    "time": 339.1602142499983,
                    "velocity": 0.1732283464566929,
                    "duration": 0.2635277499999802
                },
                {
                    "name": "C#2",
                    "midi": 37,
                    "time": 339.4237419999983,
                    "velocity": 0.25984251968503935,
                    "duration": 0.2635277499999802
                },
                {
                    "name": "G#3",
                    "midi": 56,
                    "time": 339.6872697499983,
                    "velocity": 0.1732283464566929,
                    "duration": 0.2635277499999802
                },
                {
                    "name": "E4",
                    "midi": 64,
                    "time": 339.95079749999826,
                    "velocity": 0.13385826771653545,
                    "duration": 0.2635277499999802
                },
                {
                    "name": "G#4",
                    "midi": 68,
                    "time": 339.95079749999826,
                    "velocity": 0.25984251968503935,
                    "duration": 0.2635277499999802
                },
                {
                    "name": "C#4",
                    "midi": 61,
                    "time": 339.95079749999826,
                    "velocity": 0.13385826771653545,
                    "duration": 0.2635277499999802
                },
                {
                    "name": "G#3",
                    "midi": 56,
                    "time": 340.21432524999824,
                    "velocity": 0.1732283464566929,
                    "duration": 0.2635277499999802
                },
                {
                    "name": "E4",
                    "midi": 64,
                    "time": 340.4778529999982,
                    "velocity": 0.13385826771653545,
                    "duration": 0.2635277499999802
                },
                {
                    "name": "G#4",
                    "midi": 68,
                    "time": 340.4778529999982,
                    "velocity": 0.25984251968503935,
                    "duration": 0.2635277499999802
                },
                {
                    "name": "C#4",
                    "midi": 61,
                    "time": 340.4778529999982,
                    "velocity": 0.13385826771653545,
                    "duration": 0.2635277499999802
                },
                {
                    "name": "G#3",
                    "midi": 56,
                    "time": 340.7413807499982,
                    "velocity": 0.1732283464566929,
                    "duration": 0.2635277499999802
                },
                {
                    "name": "C#4",
                    "midi": 61,
                    "time": 341.0049084999982,
                    "velocity": 0.13385826771653545,
                    "duration": 0.2635277499999802
                },
                {
                    "name": "G#4",
                    "midi": 68,
                    "time": 341.0049084999982,
                    "velocity": 0.25984251968503935,
                    "duration": 0.2635277499999802
                },
                {
                    "name": "E4",
                    "midi": 64,
                    "time": 341.0049084999982,
                    "velocity": 0.13385826771653545,
                    "duration": 0.2635277499999802
                },
                {
                    "name": "G#3",
                    "midi": 56,
                    "time": 341.26843624999816,
                    "velocity": 0.1732283464566929,
                    "duration": 0.2635277499999802
                },
                {
                    "name": "F#2",
                    "midi": 42,
                    "time": 341.53196399999814,
                    "velocity": 0.36220472440944884,
                    "duration": 0.26352775000003703
                },
                {
                    "name": "D4",
                    "midi": 62,
                    "time": 341.7954917499982,
                    "velocity": 0.2204724409448819,
                    "duration": 0.2635277499999802
                },
                {
                    "name": "G#4",
                    "midi": 68,
                    "time": 342.05901949999816,
                    "velocity": 0.1732283464566929,
                    "duration": 0.2635277499999802
                },
                {
                    "name": "B4",
                    "midi": 71,
                    "time": 342.05901949999816,
                    "velocity": 0.36220472440944884,
                    "duration": 0.2635277499999802
                },
                {
                    "name": "F4",
                    "midi": 65,
                    "time": 342.05901949999816,
                    "velocity": 0.1732283464566929,
                    "duration": 0.2635277499999802
                },
                {
                    "name": "D4",
                    "midi": 62,
                    "time": 342.32254724999814,
                    "velocity": 0.2047244094488189,
                    "duration": 0.2635277499999802
                },
                {
                    "name": "G#4",
                    "midi": 68,
                    "time": 342.5860749999981,
                    "velocity": 0.15748031496062992,
                    "duration": 0.2635277499999802
                },
                {
                    "name": "B4",
                    "midi": 71,
                    "time": 342.5860749999981,
                    "velocity": 0.33858267716535434,
                    "duration": 0.2635277499999802
                },
                {
                    "name": "F4",
                    "midi": 65,
                    "time": 342.5860749999981,
                    "velocity": 0.15748031496062992,
                    "duration": 0.2635277499999802
                },
                {
                    "name": "D4",
                    "midi": 62,
                    "time": 342.8496027499981,
                    "velocity": 0.1968503937007874,
                    "duration": 0.2635277499999802
                },
                {
                    "name": "G#4",
                    "midi": 68,
                    "time": 343.1131304999981,
                    "velocity": 0.14960629921259844,
                    "duration": 0.2635277499999802
                },
                {
                    "name": "F4",
                    "midi": 65,
                    "time": 343.1131304999981,
                    "velocity": 0.14960629921259844,
                    "duration": 0.2635277499999802
                },
                {
                    "name": "B4",
                    "midi": 71,
                    "time": 343.1131304999981,
                    "velocity": 0.33070866141732286,
                    "duration": 0.2635277499999802
                },
                {
                    "name": "D4",
                    "midi": 62,
                    "time": 343.37665824999806,
                    "velocity": 0.1889763779527559,
                    "duration": 0.2635277499999802
                },
                {
                    "name": "F#2",
                    "midi": 42,
                    "time": 343.64018599999804,
                    "velocity": 0.25984251968503935,
                    "duration": 0.26352775000003703
                },
                {
                    "name": "C#4",
                    "midi": 61,
                    "time": 343.9037137499981,
                    "velocity": 0.1732283464566929,
                    "duration": 0.2635277499999802
                },
                {
                    "name": "F#4",
                    "midi": 66,
                    "time": 344.16724149999806,
                    "velocity": 0.13385826771653545,
                    "duration": 0.2635277499999802
                },
                {
                    "name": "A4",
                    "midi": 69,
                    "time": 344.16724149999806,
                    "velocity": 0.25984251968503935,
                    "duration": 0.2635277499999802
                },
                {
                    "name": "C#4",
                    "midi": 61,
                    "time": 344.43076924999804,
                    "velocity": 0.1732283464566929,
                    "duration": 0.2635277499999802
                },
                {
                    "name": "A3",
                    "midi": 57,
                    "time": 344.694296999998,
                    "velocity": 0.13385826771653545,
                    "duration": 0.2635277499999802
                },
                {
                    "name": "F#4",
                    "midi": 66,
                    "time": 344.694296999998,
                    "velocity": 0.25984251968503935,
                    "duration": 0.2635277499999802
                },
                {
                    "name": "C#4",
                    "midi": 61,
                    "time": 344.957824749998,
                    "velocity": 0.1732283464566929,
                    "duration": 0.2635277499999802
                },
                {
                    "name": "A3",
                    "midi": 57,
                    "time": 345.221352499998,
                    "velocity": 0.13385826771653545,
                    "duration": 0.2635277499999802
                },
                {
                    "name": "F#4",
                    "midi": 66,
                    "time": 345.221352499998,
                    "velocity": 0.25984251968503935,
                    "duration": 0.2635277499999802
                },
                {
                    "name": "C4",
                    "midi": 60,
                    "time": 345.48488024999796,
                    "velocity": 0.1732283464566929,
                    "duration": 0.2635277499999802
                },
                {
                    "name": "B2",
                    "midi": 47,
                    "time": 345.74840799999794,
                    "velocity": 0.25984251968503935,
                    "duration": 0.26352775000003703
                },
                {
                    "name": "B3",
                    "midi": 59,
                    "time": 346.011935749998,
                    "velocity": 0.1732283464566929,
                    "duration": 0.2635277499999802
                },
                {
                    "name": "E4",
                    "midi": 64,
                    "time": 346.27546349999795,
                    "velocity": 0.25984251968503935,
                    "duration": 0.2635277499999802
                },
                {
                    "name": "G#3",
                    "midi": 56,
                    "time": 346.27546349999795,
                    "velocity": 0.13385826771653545,
                    "duration": 0.2635277499999802
                },
                {
                    "name": "B3",
                    "midi": 59,
                    "time": 346.53899124999793,
                    "velocity": 0.1732283464566929,
                    "duration": 0.2635277499999802
                },
                {
                    "name": "E4",
                    "midi": 64,
                    "time": 346.8025189999979,
                    "velocity": 0.25984251968503935,
                    "duration": 0.2635277499999802
                },
                {
                    "name": "G#3",
                    "midi": 56,
                    "time": 346.8025189999979,
                    "velocity": 0.13385826771653545,
                    "duration": 0.2635277499999802
                },
                {
                    "name": "B3",
                    "midi": 59,
                    "time": 347.0660467499979,
                    "velocity": 0.1732283464566929,
                    "duration": 0.2635277499999802
                },
                {
                    "name": "G#3",
                    "midi": 56,
                    "time": 347.3295744999979,
                    "velocity": 0.13385826771653545,
                    "duration": 0.2635277499999802
                },
                {
                    "name": "E4",
                    "midi": 64,
                    "time": 347.3295744999979,
                    "velocity": 0.25984251968503935,
                    "duration": 0.2635277499999802
                },
                {
                    "name": "B3",
                    "midi": 59,
                    "time": 347.59310224999786,
                    "velocity": 0.1732283464566929,
                    "duration": 0.2635277499999802
                },
                {
                    "name": "B2",
                    "midi": 47,
                    "time": 347.85662999999784,
                    "velocity": 0.3228346456692913,
                    "duration": 0.26352775000003703
                },
                {
                    "name": "B3",
                    "midi": 59,
                    "time": 348.1201577499979,
                    "velocity": 0.1889763779527559,
                    "duration": 0.2635277499999802
                },
                {
                    "name": "D#4",
                    "midi": 63,
                    "time": 348.38368549999785,
                    "velocity": 0.14960629921259844,
                    "duration": 0.2635277499999802
                },
                {
                    "name": "G#4",
                    "midi": 68,
                    "time": 348.38368549999785,
                    "velocity": 0.3543307086614173,
                    "duration": 0.2635277499999802
                },
                {
                    "name": "A3",
                    "midi": 57,
                    "time": 348.38368549999785,
                    "velocity": 0.14960629921259844,
                    "duration": 0.2635277499999802
                },
                {
                    "name": "B3",
                    "midi": 59,
                    "time": 348.64721324999783,
                    "velocity": 0.1968503937007874,
                    "duration": 0.2635277499999802
                },
                {
                    "name": "D#4",
                    "midi": 63,
                    "time": 348.9107409999978,
                    "velocity": 0.15748031496062992,
                    "duration": 0.2635277499999802
                },
                {
                    "name": "G#4",
                    "midi": 68,
                    "time": 348.9107409999978,
                    "velocity": 0.4015748031496063,
                    "duration": 0.2635277499999802
                },
                {
                    "name": "A3",
                    "midi": 57,
                    "time": 348.9107409999978,
                    "velocity": 0.15748031496062992,
                    "duration": 0.2635277499999802
                },
                {
                    "name": "B3",
                    "midi": 59,
                    "time": 349.1742687499978,
                    "velocity": 0.2047244094488189,
                    "duration": 0.2635277499999802
                },
                {
                    "name": "D#4",
                    "midi": 63,
                    "time": 349.4377964999978,
                    "velocity": 0.1732283464566929,
                    "duration": 0.2635277499999802
                },
                {
                    "name": "A3",
                    "midi": 57,
                    "time": 349.4377964999978,
                    "velocity": 0.1732283464566929,
                    "duration": 0.2635277499999802
                },
                {
                    "name": "F#4",
                    "midi": 66,
                    "time": 349.4377964999978,
                    "velocity": 0.4094488188976378,
                    "duration": 0.2635277499999802
                },
                {
                    "name": "B3",
                    "midi": 59,
                    "time": 349.70132424999775,
                    "velocity": 0.2204724409448819,
                    "duration": 0.2635277499999802
                },
                {
                    "name": "E2",
                    "midi": 40,
                    "time": 349.96485199999773,
                    "velocity": 0.33070866141732286,
                    "duration": 0.2635277499999802
                },
                {
                    "name": "B3",
                    "midi": 59,
                    "time": 350.2283797499977,
                    "velocity": 0.2125984251968504,
                    "duration": 0.2635277499999802
                },
                {
                    "name": "E4",
                    "midi": 64,
                    "time": 350.4919074999977,
                    "velocity": 0.3543307086614173,
                    "duration": 0.2635277499999802
                },
                {
                    "name": "G#3",
                    "midi": 56,
                    "time": 350.4919074999977,
                    "velocity": 0.1732283464566929,
                    "duration": 0.2635277499999802
                },
                {
                    "name": "B3",
                    "midi": 59,
                    "time": 350.7554352499977,
                    "velocity": 0.2047244094488189,
                    "duration": 0.2635277499999802
                },
                {
                    "name": "E4",
                    "midi": 64,
                    "time": 351.01896299999765,
                    "velocity": 0.33858267716535434,
                    "duration": 0.2635277499999802
                },
                {
                    "name": "G#3",
                    "midi": 56,
                    "time": 351.01896299999765,
                    "velocity": 0.15748031496062992,
                    "duration": 0.2635277499999802
                },
                {
                    "name": "B3",
                    "midi": 59,
                    "time": 351.28249074999763,
                    "velocity": 0.1968503937007874,
                    "duration": 0.2635277499999802
                },
                {
                    "name": "G#3",
                    "midi": 56,
                    "time": 351.5460184999976,
                    "velocity": 0.14960629921259844,
                    "duration": 0.2635277499999802
                },
                {
                    "name": "E4",
                    "midi": 64,
                    "time": 351.5460184999976,
                    "velocity": 0.33070866141732286,
                    "duration": 0.2635277499999802
                },
                {
                    "name": "B3",
                    "midi": 59,
                    "time": 351.8095462499976,
                    "velocity": 0.1889763779527559,
                    "duration": 0.2635277499999802
                },
                {
                    "name": "G#3",
                    "midi": 56,
                    "time": 352.0730739999976,
                    "velocity": 0.1732283464566929,
                    "duration": 0.26352775000003703
                },
                {
                    "name": "E4",
                    "midi": 64,
                    "time": 352.0730739999976,
                    "velocity": 0.3858267716535433,
                    "duration": 0.26352775000003703
                },
                {
                    "name": "G#5",
                    "midi": 80,
                    "time": 353.6542404999976,
                    "velocity": 0.5275590551181102,
                    "duration": 0.1317638749999901
                },
                {
                    "name": "G5",
                    "midi": 79,
                    "time": 353.7860043749976,
                    "velocity": 0.5354330708661418,
                    "duration": 0.1317638749999901
                },
                {
                    "name": "G#5",
                    "midi": 80,
                    "time": 353.9177682499976,
                    "velocity": 0.5433070866141733,
                    "duration": 0.1317638749999901
                },
                {
                    "name": "A5",
                    "midi": 81,
                    "time": 354.0495321249976,
                    "velocity": 0.5511811023622047,
                    "duration": 0.1317638749999901
                },
                {
                    "name": "F#5",
                    "midi": 78,
                    "time": 354.1812959999976,
                    "velocity": 0.5669291338582677,
                    "duration": 0.2635277499999802
                },
                {
                    "name": "A5",
                    "midi": 81,
                    "time": 354.3130598749976,
                    "velocity": 0.5039370078740157,
                    "duration": 0.1317638749999901
                },
                {
                    "name": "E5",
                    "midi": 76,
                    "time": 354.44482374999757,
                    "velocity": 0.5354330708661418,
                    "duration": 0.2635277499999802
                },
                {
                    "name": "A5",
                    "midi": 81,
                    "time": 354.57658762499756,
                    "velocity": 0.5039370078740157,
                    "duration": 0.1317638749999901
                },
                {
                    "name": "D#5",
                    "midi": 75,
                    "time": 354.70835149999755,
                    "velocity": 0.5354330708661418,
                    "duration": 0.2635277499999802
                },
                {
                    "name": "A5",
                    "midi": 81,
                    "time": 354.84011537499754,
                    "velocity": 0.5039370078740157,
                    "duration": 0.1317638749999901
                },
                {
                    "name": "C#5",
                    "midi": 73,
                    "time": 354.9718792499975,
                    "velocity": 0.5354330708661418,
                    "duration": 0.2635277499999802
                },
                {
                    "name": "A5",
                    "midi": 81,
                    "time": 355.1036431249975,
                    "velocity": 0.5039370078740157,
                    "duration": 0.1317638749999901
                },
                {
                    "name": "C5",
                    "midi": 72,
                    "time": 355.2354069999975,
                    "velocity": 0.5669291338582677,
                    "duration": 0.2635277499999802
                },
                {
                    "name": "D#5",
                    "midi": 75,
                    "time": 355.3671708749975,
                    "velocity": 0.5039370078740157,
                    "duration": 0.1317638749999901
                },
                {
                    "name": "A4",
                    "midi": 69,
                    "time": 355.4989347499975,
                    "velocity": 0.5354330708661418,
                    "duration": 0.2635277499999802
                },
                {
                    "name": "D#5",
                    "midi": 75,
                    "time": 355.6306986249975,
                    "velocity": 0.5039370078740157,
                    "duration": 0.1317638749999901
                },
                {
                    "name": "G#4",
                    "midi": 68,
                    "time": 355.76246249999747,
                    "velocity": 0.5354330708661418,
                    "duration": 0.2635277499999802
                },
                {
                    "name": "D#5",
                    "midi": 75,
                    "time": 355.89422637499746,
                    "velocity": 0.5039370078740157,
                    "duration": 0.1317638749999901
                },
                {
                    "name": "G4",
                    "midi": 67,
                    "time": 356.02599024999745,
                    "velocity": 0.5354330708661418,
                    "duration": 0.2635277499999802
                },
                {
                    "name": "D#5",
                    "midi": 75,
                    "time": 356.15775412499744,
                    "velocity": 0.5039370078740157,
                    "duration": 0.1317638749999901
                },
                {
                    "name": "F#4",
                    "midi": 66,
                    "time": 356.28951799999743,
                    "velocity": 0.5669291338582677,
                    "duration": 0.2635277499999802
                },
                {
                    "name": "A4",
                    "midi": 69,
                    "time": 356.4212818749974,
                    "velocity": 0.5039370078740157,
                    "duration": 0.1317638749999901
                },
                {
                    "name": "E4",
                    "midi": 64,
                    "time": 356.5530457499974,
                    "velocity": 0.5354330708661418,
                    "duration": 0.2635277499999802
                },
                {
                    "name": "A4",
                    "midi": 69,
                    "time": 356.6848096249974,
                    "velocity": 0.5039370078740157,
                    "duration": 0.1317638749999901
                },
                {
                    "name": "D#4",
                    "midi": 63,
                    "time": 356.8165734999974,
                    "velocity": 0.5354330708661418,
                    "duration": 0.2635277499999802
                },
                {
                    "name": "A4",
                    "midi": 69,
                    "time": 356.9483373749974,
                    "velocity": 0.5196850393700787,
                    "duration": 0.1317638749999901
                },
                {
                    "name": "C#4",
                    "midi": 61,
                    "time": 357.08010124999737,
                    "velocity": 0.5433070866141733,
                    "duration": 0.2635277499999802
                },
                {
                    "name": "A4",
                    "midi": 69,
                    "time": 357.21186512499736,
                    "velocity": 0.5196850393700787,
                    "duration": 0.1317638749999901
                },
                {
                    "name": "C4",
                    "midi": 60,
                    "time": 357.34362899999735,
                    "velocity": 0.5748031496062992,
                    "duration": 0.2635277499999802
                },
                {
                    "name": "D#4",
                    "midi": 63,
                    "time": 357.47539287499734,
                    "velocity": 0.5275590551181102,
                    "duration": 0.1317638749999901
                },
                {
                    "name": "A3",
                    "midi": 57,
                    "time": 357.60715674999733,
                    "velocity": 0.5511811023622047,
                    "duration": 0.2635277499999802
                },
                {
                    "name": "D#4",
                    "midi": 63,
                    "time": 357.7389206249973,
                    "velocity": 0.5275590551181102,
                    "duration": 0.1317638749999901
                },
                {
                    "name": "G#3",
                    "midi": 56,
                    "time": 357.8706844999973,
                    "velocity": 0.5590551181102362,
                    "duration": 0.2635277499999802
                },
                {
                    "name": "D#4",
                    "midi": 63,
                    "time": 358.0024483749973,
                    "velocity": 0.5354330708661418,
                    "duration": 0.1317638749999901
                },
                {
                    "name": "G3",
                    "midi": 55,
                    "time": 358.1342122499973,
                    "velocity": 0.5590551181102362,
                    "duration": 0.2635277499999802
                },
                {
                    "name": "D#4",
                    "midi": 63,
                    "time": 358.2659761249973,
                    "velocity": 0.5433070866141733,
                    "duration": 0.1317638749999901
                },
                {
                    "name": "F#3",
                    "midi": 54,
                    "time": 358.39773999999727,
                    "velocity": 0.6062992125984252,
                    "duration": 0.1317638749999901
                },
                {
                    "name": "A3",
                    "midi": 57,
                    "time": 358.52950387499726,
                    "velocity": 0.5433070866141733,
                    "duration": 0.1317638749999901
                },
                {
                    "name": "E3",
                    "midi": 52,
                    "time": 358.66126774999725,
                    "velocity": 0.5669291338582677,
                    "duration": 0.1317638749999901
                },
                {
                    "name": "A3",
                    "midi": 57,
                    "time": 358.79303162499724,
                    "velocity": 0.5433070866141733,
                    "duration": 0.1317638749999901
                },
                {
                    "name": "D#3",
                    "midi": 51,
                    "time": 358.92479549999723,
                    "velocity": 0.5748031496062992,
                    "duration": 0.1317638749999901
                },
                {
                    "name": "A3",
                    "midi": 57,
                    "time": 359.0565593749972,
                    "velocity": 0.5511811023622047,
                    "duration": 0.1317638749999901
                },
                {
                    "name": "C#3",
                    "midi": 49,
                    "time": 359.1883232499972,
                    "velocity": 0.5826771653543307,
                    "duration": 0.1317638749999901
                },
                {
                    "name": "A3",
                    "midi": 57,
                    "time": 359.3200871249972,
                    "velocity": 0.5511811023622047,
                    "duration": 0.1317638749999901
                },
                {
                    "name": "C3",
                    "midi": 48,
                    "time": 359.4518509999972,
                    "velocity": 0.6299212598425197,
                    "duration": 0.1317638749999901
                },
                {
                    "name": "D#3",
                    "midi": 51,
                    "time": 359.5836148749972,
                    "velocity": 0.5590551181102362,
                    "duration": 0.1317638749999901
                },
                {
                    "name": "A2",
                    "midi": 45,
                    "time": 359.71537874999717,
                    "velocity": 0.5905511811023622,
                    "duration": 0.1317638749999901
                },
                {
                    "name": "D#3",
                    "midi": 51,
                    "time": 359.84714262499716,
                    "velocity": 0.5669291338582677,
                    "duration": 0.1317638749999901
                },
                {
                    "name": "G#2",
                    "midi": 44,
                    "time": 359.97890649999715,
                    "velocity": 0.6062992125984252,
                    "duration": 0.1317638749999901
                },
                {
                    "name": "D#3",
                    "midi": 51,
                    "time": 360.11067037499714,
                    "velocity": 0.5669291338582677,
                    "duration": 0.1317638749999901
                },
                {
                    "name": "G2",
                    "midi": 43,
                    "time": 360.24243424999713,
                    "velocity": 0.6062992125984252,
                    "duration": 0.1317638749999901
                },
                {
                    "name": "D#3",
                    "midi": 51,
                    "time": 360.3741981249971,
                    "velocity": 0.5748031496062992,
                    "duration": 0.1317638749999901
                },
                {
                    "name": "F#2",
                    "midi": 42,
                    "time": 360.5059619999971,
                    "velocity": 0.5748031496062992,
                    "duration": 0.13176387500004694
                },
                {
                    "name": "A2",
                    "midi": 45,
                    "time": 360.63772587499716,
                    "velocity": 0.5196850393700787,
                    "duration": 0.1317638749999901
                },
                {
                    "name": "D#2",
                    "midi": 39,
                    "time": 360.76948974999715,
                    "velocity": 0.5590551181102362,
                    "duration": 0.1317638749999901
                },
                {
                    "name": "A2",
                    "midi": 45,
                    "time": 360.90125362499714,
                    "velocity": 0.5354330708661418,
                    "duration": 0.1317638749999901
                },
                {
                    "name": "C#2",
                    "midi": 37,
                    "time": 361.03301749999713,
                    "velocity": 0.5748031496062992,
                    "duration": 0.1317638749999901
                },
                {
                    "name": "A2",
                    "midi": 45,
                    "time": 361.1647813749971,
                    "velocity": 0.5511811023622047,
                    "duration": 0.1317638749999901
                },
                {
                    "name": "C2",
                    "midi": 36,
                    "time": 361.2965452499971,
                    "velocity": 0.5826771653543307,
                    "duration": 0.1317638749999901
                },
                {
                    "name": "A2",
                    "midi": 45,
                    "time": 361.4283091249971,
                    "velocity": 0.5590551181102362,
                    "duration": 0.1317638749999901
                },
                {
                    "name": "F#2",
                    "midi": 42,
                    "time": 361.5600729999971,
                    "velocity": 0.5748031496062992,
                    "duration": 0.13176387500004694
                },
                {
                    "name": "A2",
                    "midi": 45,
                    "time": 361.69183687499714,
                    "velocity": 0.5196850393700787,
                    "duration": 0.1317638749999901
                },
                {
                    "name": "D#2",
                    "midi": 39,
                    "time": 361.8236007499971,
                    "velocity": 0.5590551181102362,
                    "duration": 0.1317638749999901
                },
                {
                    "name": "A2",
                    "midi": 45,
                    "time": 361.9553646249971,
                    "velocity": 0.5354330708661418,
                    "duration": 0.1317638749999901
                },
                {
                    "name": "C#2",
                    "midi": 37,
                    "time": 362.0871284999971,
                    "velocity": 0.5748031496062992,
                    "duration": 0.1317638749999901
                },
                {
                    "name": "A2",
                    "midi": 45,
                    "time": 362.2188923749971,
                    "velocity": 0.5511811023622047,
                    "duration": 0.1317638749999901
                },
                {
                    "name": "C2",
                    "midi": 36,
                    "time": 362.3506562499971,
                    "velocity": 0.5826771653543307,
                    "duration": 0.1317638749999901
                },
                {
                    "name": "A2",
                    "midi": 45,
                    "time": 362.4824201249971,
                    "velocity": 0.5590551181102362,
                    "duration": 0.1317638749999901
                },
                {
                    "name": "F#2",
                    "midi": 42,
                    "time": 362.61418399999707,
                    "velocity": 0.5748031496062992,
                    "duration": 0.13176387500004694
                },
                {
                    "name": "A2",
                    "midi": 45,
                    "time": 362.7459478749971,
                    "velocity": 0.5196850393700787,
                    "duration": 0.1317638749999901
                },
                {
                    "name": "D2",
                    "midi": 38,
                    "time": 362.8777117499971,
                    "velocity": 0.5511811023622047,
                    "duration": 0.1317638749999901
                },
                {
                    "name": "A2",
                    "midi": 45,
                    "time": 363.0094756249971,
                    "velocity": 0.5275590551181102,
                    "duration": 0.1317638749999901
                },
                {
                    "name": "C#2",
                    "midi": 37,
                    "time": 363.1412394999971,
                    "velocity": 0.5590551181102362,
                    "duration": 0.1317638749999901
                },
                {
                    "name": "A2",
                    "midi": 45,
                    "time": 363.2730033749971,
                    "velocity": 0.5275590551181102,
                    "duration": 0.1317638749999901
                },
                {
                    "name": "C2",
                    "midi": 36,
                    "time": 363.40476724999706,
                    "velocity": 0.5590551181102362,
                    "duration": 0.1317638749999901
                },
                {
                    "name": "A2",
                    "midi": 45,
                    "time": 363.53653112499705,
                    "velocity": 0.5354330708661418,
                    "duration": 0.1317638749999901
                },
                {
                    "name": "F#2",
                    "midi": 42,
                    "time": 363.66829499999704,
                    "velocity": 0.5433070866141733,
                    "duration": 0.1317638749999901
                },
                {
                    "name": "A2",
                    "midi": 45,
                    "time": 363.80005887499703,
                    "velocity": 0.4881889763779528,
                    "duration": 0.1317638749999901
                },
                {
                    "name": "D2",
                    "midi": 38,
                    "time": 363.931822749997,
                    "velocity": 0.5196850393700787,
                    "duration": 0.1317638749999901
                },
                {
                    "name": "A2",
                    "midi": 45,
                    "time": 364.063586624997,
                    "velocity": 0.4881889763779528,
                    "duration": 0.1317638749999901
                },
                {
                    "name": "C#2",
                    "midi": 37,
                    "time": 364.195350499997,
                    "velocity": 0.5354330708661418,
                    "duration": 0.1317638749999901
                },
                {
                    "name": "A2",
                    "midi": 45,
                    "time": 364.327114374997,
                    "velocity": 0.49606299212598426,
                    "duration": 0.1317638749999901
                },
                {
                    "name": "C2",
                    "midi": 36,
                    "time": 364.458878249997,
                    "velocity": 0.5433070866141733,
                    "duration": 0.1317638749999901
                },
                {
                    "name": "A2",
                    "midi": 45,
                    "time": 364.590642124997,
                    "velocity": 0.49606299212598426,
                    "duration": 0.1317638749999901
                },
                {
                    "name": "C#2",
                    "midi": 37,
                    "time": 364.72240599999697,
                    "velocity": 0.5196850393700787,
                    "duration": 0.13176387500004694
                },
                {
                    "name": "A2",
                    "midi": 45,
                    "time": 364.854169874997,
                    "velocity": 0.4645669291338583,
                    "duration": 0.1317638749999901
                },
                {
                    "name": "E2",
                    "midi": 40,
                    "time": 364.985933749997,
                    "velocity": 0.49606299212598426,
                    "duration": 0.1317638749999901
                },
                {
                    "name": "A2",
                    "midi": 45,
                    "time": 365.117697624997,
                    "velocity": 0.4881889763779528,
                    "duration": 0.1317638749999901
                },
                {
                    "name": "F#2",
                    "midi": 42,
                    "time": 365.249461499997,
                    "velocity": 0.5275590551181102,
                    "duration": 0.1317638749999901
                },
                {
                    "name": "A2",
                    "midi": 45,
                    "time": 365.381225374997,
                    "velocity": 0.5039370078740157,
                    "duration": 0.1317638749999901
                },
                {
                    "name": "G2",
                    "midi": 43,
                    "time": 365.51298924999696,
                    "velocity": 0.5433070866141733,
                    "duration": 0.1317638749999901
                },
                {
                    "name": "A2",
                    "midi": 45,
                    "time": 365.64475312499695,
                    "velocity": 0.5275590551181102,
                    "duration": 0.1317638749999901
                },
                {
                    "name": "F#2",
                    "midi": 42,
                    "time": 365.77651699999694,
                    "velocity": 0.5748031496062992,
                    "duration": 0.1317638749999901
                },
                {
                    "name": "A2",
                    "midi": 45,
                    "time": 365.90828087499693,
                    "velocity": 0.5039370078740157,
                    "duration": 0.1317638749999901
                },
                {
                    "name": "E2",
                    "midi": 40,
                    "time": 366.0400447499969,
                    "velocity": 0.5275590551181102,
                    "duration": 0.1317638749999901
                },
                {
                    "name": "A2",
                    "midi": 45,
                    "time": 366.1718086249969,
                    "velocity": 0.49606299212598426,
                    "duration": 0.1317638749999901
                },
                {
                    "name": "D2",
                    "midi": 38,
                    "time": 366.3035724999969,
                    "velocity": 0.5039370078740157,
                    "duration": 0.1317638749999901
                },
                {
                    "name": "A2",
                    "midi": 45,
                    "time": 366.4353363749969,
                    "velocity": 0.48031496062992124,
                    "duration": 0.1317638749999901
                },
                {
                    "name": "C2",
                    "midi": 36,
                    "time": 366.5671002499969,
                    "velocity": 0.49606299212598426,
                    "duration": 0.1317638749999901
                },
                {
                    "name": "A#2",
                    "midi": 46,
                    "time": 366.6988641249969,
                    "velocity": 0.47244094488188976,
                    "duration": 0.1317638749999901
                },
                {
                    "name": "B1",
                    "midi": 35,
                    "time": 366.83062799999686,
                    "velocity": 0.5196850393700787,
                    "duration": 0.1317638749999901
                },
                {
                    "name": "B2",
                    "midi": 47,
                    "time": 366.96239187499685,
                    "velocity": 0.4645669291338583,
                    "duration": 0.1317638749999901
                },
                {
                    "name": "D#2",
                    "midi": 39,
                    "time": 367.09415574999684,
                    "velocity": 0.49606299212598426,
                    "duration": 0.1317638749999901
                },
                {
                    "name": "B2",
                    "midi": 47,
                    "time": 367.22591962499683,
                    "velocity": 0.4881889763779528,
                    "duration": 0.1317638749999901
                },
                {
                    "name": "F#2",
                    "midi": 42,
                    "time": 367.3576834999968,
                    "velocity": 0.5275590551181102,
                    "duration": 0.1317638749999901
                },
                {
                    "name": "B2",
                    "midi": 47,
                    "time": 367.4894473749968,
                    "velocity": 0.5039370078740157,
                    "duration": 0.1317638749999901
                },
                {
                    "name": "A2",
                    "midi": 45,
                    "time": 367.6212112499968,
                    "velocity": 0.5433070866141733,
                    "duration": 0.1317638749999901
                },
                {
                    "name": "B2",
                    "midi": 47,
                    "time": 367.7529751249968,
                    "velocity": 0.5275590551181102,
                    "duration": 0.1317638749999901
                },
                {
                    "name": "G#2",
                    "midi": 44,
                    "time": 367.8847389999968,
                    "velocity": 0.5748031496062992,
                    "duration": 0.1317638749999901
                },
                {
                    "name": "B2",
                    "midi": 47,
                    "time": 368.0165028749968,
                    "velocity": 0.5039370078740157,
                    "duration": 0.1317638749999901
                },
                {
                    "name": "F#2",
                    "midi": 42,
                    "time": 368.14826674999676,
                    "velocity": 0.5275590551181102,
                    "duration": 0.1317638749999901
                },
                {
                    "name": "B2",
                    "midi": 47,
                    "time": 368.28003062499675,
                    "velocity": 0.49606299212598426,
                    "duration": 0.1317638749999901
                },
                {
                    "name": "E2",
                    "midi": 40,
                    "time": 368.41179449999674,
                    "velocity": 0.5039370078740157,
                    "duration": 0.1317638749999901
                },
                {
                    "name": "B2",
                    "midi": 47,
                    "time": 368.54355837499673,
                    "velocity": 0.48031496062992124,
                    "duration": 0.1317638749999901
                },
                {
                    "name": "D2",
                    "midi": 38,
                    "time": 368.6753222499967,
                    "velocity": 0.49606299212598426,
                    "duration": 0.1317638749999901
                },
                {
                    "name": "C3",
                    "midi": 48,
                    "time": 368.8070861249967,
                    "velocity": 0.47244094488188976,
                    "duration": 0.1317638749999901
                },
                {
                    "name": "C#2",
                    "midi": 37,
                    "time": 368.9388499999967,
                    "velocity": 0.5196850393700787,
                    "duration": 0.13176387500004694
                },
                {
                    "name": "C#3",
                    "midi": 49,
                    "time": 369.07061387499675,
                    "velocity": 0.4645669291338583,
                    "duration": 0.1317638749999901
                },
                {
                    "name": "F2",
                    "midi": 41,
                    "time": 369.20237774999674,
                    "velocity": 0.49606299212598426,
                    "duration": 0.1317638749999901
                },
                {
                    "name": "C#3",
                    "midi": 49,
                    "time": 369.33414162499673,
                    "velocity": 0.4881889763779528,
                    "duration": 0.1317638749999901
                },
                {
                    "name": "G#2",
                    "midi": 44,
                    "time": 369.4659054999967,
                    "velocity": 0.5275590551181102,
                    "duration": 0.1317638749999901
                },
                {
                    "name": "C#3",
                    "midi": 49,
                    "time": 369.5976693749967,
                    "velocity": 0.5039370078740157,
                    "duration": 0.1317638749999901
                },
                {
                    "name": "B2",
                    "midi": 47,
                    "time": 369.7294332499967,
                    "velocity": 0.5433070866141733,
                    "duration": 0.1317638749999901
                },
                {
                    "name": "C#3",
                    "midi": 49,
                    "time": 369.8611971249967,
                    "velocity": 0.5275590551181102,
                    "duration": 0.1317638749999901
                },
                {
                    "name": "A#2",
                    "midi": 46,
                    "time": 369.9929609999967,
                    "velocity": 0.5748031496062992,
                    "duration": 0.1317638749999901
                },
                {
                    "name": "C#3",
                    "midi": 49,
                    "time": 370.1247248749967,
                    "velocity": 0.5039370078740157,
                    "duration": 0.1317638749999901
                },
                {
                    "name": "G#2",
                    "midi": 44,
                    "time": 370.25648874999666,
                    "velocity": 0.5275590551181102,
                    "duration": 0.1317638749999901
                },
                {
                    "name": "C#3",
                    "midi": 49,
                    "time": 370.38825262499665,
                    "velocity": 0.49606299212598426,
                    "duration": 0.1317638749999901
                },
                {
                    "name": "F#2",
                    "midi": 42,
                    "time": 370.52001649999664,
                    "velocity": 0.5039370078740157,
                    "duration": 0.1317638749999901
                },
                {
                    "name": "C#3",
                    "midi": 49,
                    "time": 370.65178037499663,
                    "velocity": 0.48031496062992124,
                    "duration": 0.1317638749999901
                },
                {
                    "name": "E2",
                    "midi": 40,
                    "time": 370.7835442499966,
                    "velocity": 0.49606299212598426,
                    "duration": 0.1317638749999901
                },
                {
                    "name": "D3",
                    "midi": 50,
                    "time": 370.9153081249966,
                    "velocity": 0.47244094488188976,
                    "duration": 0.1317638749999901
                },
                {
                    "name": "D#2",
                    "midi": 39,
                    "time": 371.0470719999966,
                    "velocity": 0.5196850393700787,
                    "duration": 0.13176387500004694
                },
                {
                    "name": "D#3",
                    "midi": 51,
                    "time": 371.17883587499665,
                    "velocity": 0.4645669291338583,
                    "duration": 0.1317638749999901
                },
                {
                    "name": "G2",
                    "midi": 43,
                    "time": 371.31059974999664,
                    "velocity": 0.49606299212598426,
                    "duration": 0.1317638749999901
                },
                {
                    "name": "D#3",
                    "midi": 51,
                    "time": 371.44236362499663,
                    "velocity": 0.4881889763779528,
                    "duration": 0.1317638749999901
                },
                {
                    "name": "A#2",
                    "midi": 46,
                    "time": 371.5741274999966,
                    "velocity": 0.5275590551181102,
                    "duration": 0.1317638749999901
                },
                {
                    "name": "D#3",
                    "midi": 51,
                    "time": 371.7058913749966,
                    "velocity": 0.5039370078740157,
                    "duration": 0.1317638749999901
                },
                {
                    "name": "C#3",
                    "midi": 49,
                    "time": 371.8376552499966,
                    "velocity": 0.5433070866141733,
                    "duration": 0.1317638749999901
                },
                {
                    "name": "D#3",
                    "midi": 51,
                    "time": 371.9694191249966,
                    "velocity": 0.5275590551181102,
                    "duration": 0.1317638749999901
                },
                {
                    "name": "C3",
                    "midi": 48,
                    "time": 372.1011829999966,
                    "velocity": 0.5826771653543307,
                    "duration": 0.1317638749999901
                },
                {
                    "name": "D#3",
                    "midi": 51,
                    "time": 372.23294687499657,
                    "velocity": 0.5196850393700787,
                    "duration": 0.1317638749999901
                },
                {
                    "name": "A#2",
                    "midi": 46,
                    "time": 372.36471074999656,
                    "velocity": 0.5433070866141733,
                    "duration": 0.1317638749999901
                },
                {
                    "name": "D#3",
                    "midi": 51,
                    "time": 372.49647462499655,
                    "velocity": 0.5039370078740157,
                    "duration": 0.1317638749999901
                },
                {
                    "name": "G#2",
                    "midi": 44,
                    "time": 372.62823849999654,
                    "velocity": 0.5275590551181102,
                    "duration": 0.1317638749999901
                },
                {
                    "name": "D#3",
                    "midi": 51,
                    "time": 372.76000237499653,
                    "velocity": 0.5039370078740157,
                    "duration": 0.1317638749999901
                },
                {
                    "name": "F#2",
                    "midi": 42,
                    "time": 372.8917662499965,
                    "velocity": 0.5354330708661418,
                    "duration": 0.1317638749999901
                },
                {
                    "name": "E3",
                    "midi": 52,
                    "time": 373.0235301249965,
                    "velocity": 0.4881889763779528,
                    "duration": 0.1317638749999901
                },
                {
                    "name": "F2",
                    "midi": 41,
                    "time": 373.1552939999965,
                    "velocity": 0.5433070866141733,
                    "duration": 0.13176387500004694
                },
                {
                    "name": "F3",
                    "midi": 53,
                    "time": 373.28705787499655,
                    "velocity": 0.4881889763779528,
                    "duration": 0.1317638749999901
                },
                {
                    "name": "A2",
                    "midi": 45,
                    "time": 373.41882174999654,
                    "velocity": 0.5354330708661418,
                    "duration": 0.1317638749999901
                },
                {
                    "name": "F3",
                    "midi": 53,
                    "time": 373.55058562499653,
                    "velocity": 0.5039370078740157,
                    "duration": 0.1317638749999901
                },
                {
                    "name": "C3",
                    "midi": 48,
                    "time": 373.6823494999965,
                    "velocity": 0.5511811023622047,
                    "duration": 0.1317638749999901
                },
                {
                    "name": "F3",
                    "midi": 53,
                    "time": 373.8141133749965,
                    "velocity": 0.5433070866141733,
                    "duration": 0.1317638749999901
                },
                {
                    "name": "D#3",
                    "midi": 51,
                    "time": 373.9458772499965,
                    "velocity": 0.5826771653543307,
                    "duration": 0.1317638749999901
                },
                {
                    "name": "F3",
                    "midi": 53,
                    "time": 374.0776411249965,
                    "velocity": 0.5669291338582677,
                    "duration": 0.1317638749999901
                },
                {
                    "name": "D3",
                    "midi": 50,
                    "time": 374.2094049999965,
                    "velocity": 0.6220472440944882,
                    "duration": 0.1317638749999901
                },
                {
                    "name": "F3",
                    "midi": 53,
                    "time": 374.34116887499647,
                    "velocity": 0.5590551181102362,
                    "duration": 0.1317638749999901
                },
                {
                    "name": "C3",
                    "midi": 48,
                    "time": 374.47293274999646,
                    "velocity": 0.6062992125984252,
                    "duration": 0.1317638749999901
                },
                {
                    "name": "F#3",
                    "midi": 54,
                    "time": 374.60469662499645,
                    "velocity": 0.5669291338582677,
                    "duration": 0.1317638749999901
                },
                {
                    "name": "B2",
                    "midi": 47,
                    "time": 374.73646049999644,
                    "velocity": 0.6062992125984252,
                    "duration": 0.1317638749999901
                },
                {
                    "name": "G3",
                    "midi": 55,
                    "time": 374.86822437499643,
                    "velocity": 0.5669291338582677,
                    "duration": 0.1317638749999901
                },
                {
                    "name": "F3",
                    "midi": 53,
                    "time": 374.9999882499964,
                    "velocity": 0.6062992125984252,
                    "duration": 0.1317638749999901
                },
                {
                    "name": "G3",
                    "midi": 55,
                    "time": 375.1317521249964,
                    "velocity": 0.5669291338582677,
                    "duration": 0.1317638749999901
                },
                {
                    "name": "E3",
                    "midi": 52,
                    "time": 375.2635159999964,
                    "velocity": 0.6535433070866141,
                    "duration": 0.13176387500004694
                },
                {
                    "name": "G3",
                    "midi": 55,
                    "time": 375.39527987499645,
                    "velocity": 0.5748031496062992,
                    "duration": 0.1317638749999901
                },
                {
                    "name": "D3",
                    "midi": 50,
                    "time": 375.52704374999644,
                    "velocity": 0.6141732283464567,
                    "duration": 0.1317638749999901
                },
                {
                    "name": "G#3",
                    "midi": 56,
                    "time": 375.6588076249964,
                    "velocity": 0.5826771653543307,
                    "duration": 0.1317638749999901
                },
                {
                    "name": "C#3",
                    "midi": 49,
                    "time": 375.7905714999964,
                    "velocity": 0.6220472440944882,
                    "duration": 0.1317638749999901
                },
                {
                    "name": "A3",
                    "midi": 57,
                    "time": 375.9223353749964,
                    "velocity": 0.5826771653543307,
                    "duration": 0.1317638749999901
                },
                {
                    "name": "G3",
                    "midi": 55,
                    "time": 376.0540992499964,
                    "velocity": 0.6220472440944882,
                    "duration": 0.1317638749999901
                },
                {
                    "name": "A3",
                    "midi": 57,
                    "time": 376.1858631249964,
                    "velocity": 0.6062992125984252,
                    "duration": 0.1317638749999901
                },
                {
                    "name": "F#3",
                    "midi": 54,
                    "time": 376.3176269999964,
                    "velocity": 0.6614173228346457,
                    "duration": 0.1317638749999901
                },
                {
                    "name": "A3",
                    "midi": 57,
                    "time": 376.44939087499637,
                    "velocity": 0.6062992125984252,
                    "duration": 0.1317638749999901
                },
                {
                    "name": "E3",
                    "midi": 52,
                    "time": 376.58115474999636,
                    "velocity": 0.6299212598425197,
                    "duration": 0.1317638749999901
                },
                {
                    "name": "A#3",
                    "midi": 58,
                    "time": 376.71291862499635,
                    "velocity": 0.6062992125984252,
                    "duration": 0.1317638749999901
                },
                {
                    "name": "D#3",
                    "midi": 51,
                    "time": 376.84468249999634,
                    "velocity": 0.6377952755905512,
                    "duration": 0.1317638749999901
                },
                {
                    "name": "B3",
                    "midi": 59,
                    "time": 376.9764463749963,
                    "velocity": 0.6062992125984252,
                    "duration": 0.1317638749999901
                },
                {
                    "name": "A3",
                    "midi": 57,
                    "time": 377.1082102499963,
                    "velocity": 0.6456692913385826,
                    "duration": 0.1317638749999901
                },
                {
                    "name": "B3",
                    "midi": 59,
                    "time": 377.2399741249963,
                    "velocity": 0.6141732283464567,
                    "duration": 0.1317638749999901
                },
                {
                    "name": "G#3",
                    "midi": 56,
                    "time": 377.3717379999963,
                    "velocity": 0.6929133858267716,
                    "duration": 0.1317638749999901
                },
                {
                    "name": "B3",
                    "midi": 59,
                    "time": 377.5035018749963,
                    "velocity": 0.6141732283464567,
                    "duration": 0.1317638749999901
                },
                {
                    "name": "F#3",
                    "midi": 54,
                    "time": 377.6352657499963,
                    "velocity": 0.6456692913385826,
                    "duration": 0.1317638749999901
                },
                {
                    "name": "C4",
                    "midi": 60,
                    "time": 377.76702962499627,
                    "velocity": 0.6141732283464567,
                    "duration": 0.1317638749999901
                },
                {
                    "name": "F3",
                    "midi": 53,
                    "time": 377.89879349999626,
                    "velocity": 0.6614173228346457,
                    "duration": 0.1317638749999901
                },
                {
                    "name": "C#4",
                    "midi": 61,
                    "time": 378.03055737499625,
                    "velocity": 0.6299212598425197,
                    "duration": 0.1317638749999901
                },
                {
                    "name": "B3",
                    "midi": 59,
                    "time": 378.16232124999624,
                    "velocity": 0.6614173228346457,
                    "duration": 0.1317638749999901
                },
                {
                    "name": "C#4",
                    "midi": 61,
                    "time": 378.29408512499623,
                    "velocity": 0.6299212598425197,
                    "duration": 0.1317638749999901
                },
                {
                    "name": "B3",
                    "midi": 59,
                    "time": 378.4258489999962,
                    "velocity": 0.6220472440944882,
                    "duration": 0.1317638749999901
                },
                {
                    "name": "C#4",
                    "midi": 61,
                    "time": 378.5576128749962,
                    "velocity": 0.6299212598425197,
                    "duration": 0.1317638749999901
                },
                {
                    "name": "B3",
                    "midi": 59,
                    "time": 378.6893767499962,
                    "velocity": 0.6299212598425197,
                    "duration": 0.1317638749999901
                },
                {
                    "name": "C#4",
                    "midi": 61,
                    "time": 378.8211406249962,
                    "velocity": 0.6377952755905512,
                    "duration": 0.1317638749999901
                },
                {
                    "name": "B3",
                    "midi": 59,
                    "time": 378.9529044999962,
                    "velocity": 0.6456692913385826,
                    "duration": 0.1317638749999901
                },
                {
                    "name": "C#4",
                    "midi": 61,
                    "time": 379.08466837499617,
                    "velocity": 0.6220472440944882,
                    "duration": 0.1317638749999901
                },
                {
                    "name": "B3",
                    "midi": 59,
                    "time": 379.21643224999616,
                    "velocity": 0.6062992125984252,
                    "duration": 0.1317638749999901
                },
                {
                    "name": "C#4",
                    "midi": 61,
                    "time": 379.34819612499615,
                    "velocity": 0.5905511811023622,
                    "duration": 0.1317638749999901
                },
                {
                    "name": "B3",
                    "midi": 59,
                    "time": 379.47995999999614,
                    "velocity": 0.6614173228346457,
                    "duration": 0.13176387500004694
                },
                {
                    "name": "C#4",
                    "midi": 61,
                    "time": 379.6117238749962,
                    "velocity": 0.5905511811023622,
                    "duration": 0.1317638749999901
                },
                {
                    "name": "G#3",
                    "midi": 56,
                    "time": 379.7434877499962,
                    "velocity": 0.6299212598425197,
                    "duration": 0.1317638749999901
                },
                {
                    "name": "C#4",
                    "midi": 61,
                    "time": 379.87525162499617,
                    "velocity": 0.6062992125984252,
                    "duration": 0.1317638749999901
                },
                {
                    "name": "F#3",
                    "midi": 54,
                    "time": 380.00701549999616,
                    "velocity": 0.6377952755905512,
                    "duration": 0.1317638749999901
                },
                {
                    "name": "C#4",
                    "midi": 61,
                    "time": 380.13877937499615,
                    "velocity": 0.6141732283464567,
                    "duration": 0.1317638749999901
                },
                {
                    "name": "F3",
                    "midi": 53,
                    "time": 380.27054324999614,
                    "velocity": 0.6456692913385826,
                    "duration": 0.1317638749999901
                },
                {
                    "name": "C#4",
                    "midi": 61,
                    "time": 380.4023071249961,
                    "velocity": 0.6220472440944882,
                    "duration": 0.1317638749999901
                },
                {
                    "name": "B3",
                    "midi": 59,
                    "time": 380.5340709999961,
                    "velocity": 0.7007874015748031,
                    "duration": 0.1317638749999901
                },
                {
                    "name": "D4",
                    "midi": 62,
                    "time": 380.6658348749961,
                    "velocity": 0.6299212598425197,
                    "duration": 0.1317638749999901
                },
                {
                    "name": "G#3",
                    "midi": 56,
                    "time": 380.7975987499961,
                    "velocity": 0.6614173228346457,
                    "duration": 0.1317638749999901
                },
                {
                    "name": "D4",
                    "midi": 62,
                    "time": 380.9293626249961,
                    "velocity": 0.6299212598425197,
                    "duration": 0.1317638749999901
                },
                {
                    "name": "F#3",
                    "midi": 54,
                    "time": 381.0611264999961,
                    "velocity": 0.6692913385826772,
                    "duration": 0.1317638749999901
                },
                {
                    "name": "D4",
                    "midi": 62,
                    "time": 381.19289037499607,
                    "velocity": 0.6456692913385826,
                    "duration": 0.1317638749999901
                },
                {
                    "name": "F3",
                    "midi": 53,
                    "time": 381.32465424999606,
                    "velocity": 0.6771653543307087,
                    "duration": 0.1317638749999901
                },
                {
                    "name": "D4",
                    "midi": 62,
                    "time": 381.45641812499605,
                    "velocity": 0.6535433070866141,
                    "duration": 0.1317638749999901
                },
                {
                    "name": "G#4",
                    "midi": 68,
                    "time": 381.58818199999604,
                    "velocity": 0.6141732283464567,
                    "duration": 0.3952916250000271
                },
                {
                    "name": "D5",
                    "midi": 74,
                    "time": 381.58818199999604,
                    "velocity": 0.7322834645669292,
                    "duration": 0.3952916250000271
                },
                {
                    "name": "B4",
                    "midi": 71,
                    "time": 381.58818199999604,
                    "velocity": 0.6141732283464567,
                    "duration": 0.3952916250000271
                },
                {
                    "name": "F4",
                    "midi": 65,
                    "time": 381.58818199999604,
                    "velocity": 0.6141732283464567,
                    "duration": 0.3952916250000271
                },
                {
                    "name": "G#4",
                    "midi": 68,
                    "time": 381.98347362499607,
                    "velocity": 0.5511811023622047,
                    "duration": 0.12517568125002754
                },
                {
                    "name": "B4",
                    "midi": 71,
                    "time": 381.98347362499607,
                    "velocity": 0.6614173228346457,
                    "duration": 0.12517568125002754
                },
                {
                    "name": "D4",
                    "midi": 62,
                    "time": 381.98347362499607,
                    "velocity": 0.5511811023622047,
                    "duration": 0.12517568125002754
                },
                {
                    "name": "F4",
                    "midi": 65,
                    "time": 381.98347362499607,
                    "velocity": 0.5511811023622047,
                    "duration": 0.12517568125002754
                },
                {
                    "name": "B4",
                    "midi": 71,
                    "time": 382.1152374999961,
                    "velocity": 0.7165354330708661,
                    "duration": 0.3952916250000271
                },
                {
                    "name": "D4",
                    "midi": 62,
                    "time": 382.1152374999961,
                    "velocity": 0.6141732283464567,
                    "duration": 0.3952916250000271
                },
                {
                    "name": "F4",
                    "midi": 65,
                    "time": 382.1152374999961,
                    "velocity": 0.6141732283464567,
                    "duration": 0.3952916250000271
                },
                {
                    "name": "G#4",
                    "midi": 68,
                    "time": 382.1152374999961,
                    "velocity": 0.6141732283464567,
                    "duration": 0.3952916250000271
                },
                {
                    "name": "F4",
                    "midi": 65,
                    "time": 382.51052912499614,
                    "velocity": 0.5511811023622047,
                    "duration": 0.12517568125002754
                },
                {
                    "name": "B3",
                    "midi": 59,
                    "time": 382.51052912499614,
                    "velocity": 0.5511811023622047,
                    "duration": 0.12517568125002754
                },
                {
                    "name": "D4",
                    "midi": 62,
                    "time": 382.51052912499614,
                    "velocity": 0.5511811023622047,
                    "duration": 0.12517568125002754
                },
                {
                    "name": "G#4",
                    "midi": 68,
                    "time": 382.51052912499614,
                    "velocity": 0.6614173228346457,
                    "duration": 0.12517568125002754
                },
                {
                    "name": "D4",
                    "midi": 62,
                    "time": 382.6422929999962,
                    "velocity": 0.6141732283464567,
                    "duration": 0.3952916250000271
                },
                {
                    "name": "B3",
                    "midi": 59,
                    "time": 382.6422929999962,
                    "velocity": 0.6141732283464567,
                    "duration": 0.3952916250000271
                },
                {
                    "name": "F4",
                    "midi": 65,
                    "time": 382.6422929999962,
                    "velocity": 0.6141732283464567,
                    "duration": 0.3952916250000271
                },
                {
                    "name": "G#4",
                    "midi": 68,
                    "time": 382.6422929999962,
                    "velocity": 0.7165354330708661,
                    "duration": 0.3952916250000271
                },
                {
                    "name": "F4",
                    "midi": 65,
                    "time": 383.0375846249962,
                    "velocity": 0.6299212598425197,
                    "duration": 0.12517568125002754
                },
                {
                    "name": "G#3",
                    "midi": 56,
                    "time": 383.0375846249962,
                    "velocity": 0.5354330708661418,
                    "duration": 0.12517568125002754
                },
                {
                    "name": "B3",
                    "midi": 59,
                    "time": 383.0375846249962,
                    "velocity": 0.5354330708661418,
                    "duration": 0.12517568125002754
                },
                {
                    "name": "D4",
                    "midi": 62,
                    "time": 383.0375846249962,
                    "velocity": 0.5354330708661418,
                    "duration": 0.12517568125002754
                },
                {
                    "name": "D4",
                    "midi": 62,
                    "time": 383.16934849999626,
                    "velocity": 0.5748031496062992,
                    "duration": 0.1317638749999901
                },
                {
                    "name": "G#3",
                    "midi": 56,
                    "time": 383.16934849999626,
                    "velocity": 0.5748031496062992,
                    "duration": 0.1317638749999901
                },
                {
                    "name": "B3",
                    "midi": 59,
                    "time": 383.16934849999626,
                    "velocity": 0.5748031496062992,
                    "duration": 0.1317638749999901
                },
                {
                    "name": "F4",
                    "midi": 65,
                    "time": 383.16934849999626,
                    "velocity": 0.6929133858267716,
                    "duration": 0.1317638749999901
                },
                {
                    "name": "F3",
                    "midi": 53,
                    "time": 383.43287624999624,
                    "velocity": 0.5354330708661418,
                    "duration": 0.1317638749999901
                },
                {
                    "name": "G#3",
                    "midi": 56,
                    "time": 383.43287624999624,
                    "velocity": 0.5354330708661418,
                    "duration": 0.1317638749999901
                },
                {
                    "name": "B3",
                    "midi": 59,
                    "time": 383.43287624999624,
                    "velocity": 0.5354330708661418,
                    "duration": 0.1317638749999901
                },
                {
                    "name": "D4",
                    "midi": 62,
                    "time": 383.43287624999624,
                    "velocity": 0.6299212598425197,
                    "duration": 0.1317638749999901
                },
                {
                    "name": "B3",
                    "midi": 59,
                    "time": 383.6964039999962,
                    "velocity": 0.6614173228346457,
                    "duration": 0.13176387500004694
                },
                {
                    "name": "C#4",
                    "midi": 61,
                    "time": 383.82816787499627,
                    "velocity": 0.5905511811023622,
                    "duration": 0.1317638749999901
                },
                {
                    "name": "G#3",
                    "midi": 56,
                    "time": 383.95993174999626,
                    "velocity": 0.6299212598425197,
                    "duration": 0.1317638749999901
                },
                {
                    "name": "C#4",
                    "midi": 61,
                    "time": 384.09169562499625,
                    "velocity": 0.6062992125984252,
                    "duration": 0.1317638749999901
                },
                {
                    "name": "F#3",
                    "midi": 54,
                    "time": 384.22345949999624,
                    "velocity": 0.6377952755905512,
                    "duration": 0.1317638749999901
                },
                {
                    "name": "C#4",
                    "midi": 61,
                    "time": 384.3552233749962,
                    "velocity": 0.6141732283464567,
                    "duration": 0.1317638749999901
                },
                {
                    "name": "F3",
                    "midi": 53,
                    "time": 384.4869872499962,
                    "velocity": 0.6456692913385826,
                    "duration": 0.1317638749999901
                },
                {
                    "name": "C#4",
                    "midi": 61,
                    "time": 384.6187511249962,
                    "velocity": 0.6220472440944882,
                    "duration": 0.1317638749999901
                },
                {
                    "name": "B3",
                    "midi": 59,
                    "time": 384.7505149999962,
                    "velocity": 0.7007874015748031,
                    "duration": 0.1317638749999901
                },
                {
                    "name": "D4",
                    "midi": 62,
                    "time": 384.8822788749962,
                    "velocity": 0.6299212598425197,
                    "duration": 0.1317638749999901
                },
                {
                    "name": "G#3",
                    "midi": 56,
                    "time": 385.0140427499962,
                    "velocity": 0.6614173228346457,
                    "duration": 0.1317638749999901
                },
                {
                    "name": "D4",
                    "midi": 62,
                    "time": 385.14580662499617,
                    "velocity": 0.6299212598425197,
                    "duration": 0.1317638749999901
                },
                {
                    "name": "F#3",
                    "midi": 54,
                    "time": 385.27757049999616,
                    "velocity": 0.6692913385826772,
                    "duration": 0.1317638749999901
                },
                {
                    "name": "D4",
                    "midi": 62,
                    "time": 385.40933437499615,
                    "velocity": 0.6456692913385826,
                    "duration": 0.1317638749999901
                },
                {
                    "name": "F3",
                    "midi": 53,
                    "time": 385.54109824999614,
                    "velocity": 0.6771653543307087,
                    "duration": 0.1317638749999901
                },
                {
                    "name": "D4",
                    "midi": 62,
                    "time": 385.67286212499613,
                    "velocity": 0.6535433070866141,
                    "duration": 0.1317638749999901
                },
                {
                    "name": "G#4",
                    "midi": 68,
                    "time": 385.8046259999961,
                    "velocity": 0.6141732283464567,
                    "duration": 0.3952916250000271
                },
                {
                    "name": "D5",
                    "midi": 74,
                    "time": 385.8046259999961,
                    "velocity": 0.7322834645669292,
                    "duration": 0.3952916250000271
                },
                {
                    "name": "B4",
                    "midi": 71,
                    "time": 385.8046259999961,
                    "velocity": 0.6141732283464567,
                    "duration": 0.3952916250000271
                },
                {
                    "name": "F4",
                    "midi": 65,
                    "time": 385.8046259999961,
                    "velocity": 0.6141732283464567,
                    "duration": 0.3952916250000271
                },
                {
                    "name": "G#4",
                    "midi": 68,
                    "time": 386.19991762499615,
                    "velocity": 0.5511811023622047,
                    "duration": 0.12517568125002754
                },
                {
                    "name": "B4",
                    "midi": 71,
                    "time": 386.19991762499615,
                    "velocity": 0.6614173228346457,
                    "duration": 0.12517568125002754
                },
                {
                    "name": "D4",
                    "midi": 62,
                    "time": 386.19991762499615,
                    "velocity": 0.5511811023622047,
                    "duration": 0.12517568125002754
                },
                {
                    "name": "F4",
                    "midi": 65,
                    "time": 386.19991762499615,
                    "velocity": 0.5511811023622047,
                    "duration": 0.12517568125002754
                },
                {
                    "name": "B4",
                    "midi": 71,
                    "time": 386.3316814999962,
                    "velocity": 0.7165354330708661,
                    "duration": 0.3952916250000271
                },
                {
                    "name": "D4",
                    "midi": 62,
                    "time": 386.3316814999962,
                    "velocity": 0.6141732283464567,
                    "duration": 0.3952916250000271
                },
                {
                    "name": "F4",
                    "midi": 65,
                    "time": 386.3316814999962,
                    "velocity": 0.6141732283464567,
                    "duration": 0.3952916250000271
                },
                {
                    "name": "G#4",
                    "midi": 68,
                    "time": 386.3316814999962,
                    "velocity": 0.6141732283464567,
                    "duration": 0.3952916250000271
                },
                {
                    "name": "F4",
                    "midi": 65,
                    "time": 386.7269731249962,
                    "velocity": 0.5511811023622047,
                    "duration": 0.12517568125002754
                },
                {
                    "name": "B3",
                    "midi": 59,
                    "time": 386.7269731249962,
                    "velocity": 0.5511811023622047,
                    "duration": 0.12517568125002754
                },
                {
                    "name": "D4",
                    "midi": 62,
                    "time": 386.7269731249962,
                    "velocity": 0.5511811023622047,
                    "duration": 0.12517568125002754
                },
                {
                    "name": "G#4",
                    "midi": 68,
                    "time": 386.7269731249962,
                    "velocity": 0.6614173228346457,
                    "duration": 0.12517568125002754
                },
                {
                    "name": "D4",
                    "midi": 62,
                    "time": 386.85873699999627,
                    "velocity": 0.6141732283464567,
                    "duration": 0.3952916250000271
                },
                {
                    "name": "B3",
                    "midi": 59,
                    "time": 386.85873699999627,
                    "velocity": 0.6141732283464567,
                    "duration": 0.3952916250000271
                },
                {
                    "name": "F4",
                    "midi": 65,
                    "time": 386.85873699999627,
                    "velocity": 0.6141732283464567,
                    "duration": 0.3952916250000271
                },
                {
                    "name": "G#4",
                    "midi": 68,
                    "time": 386.85873699999627,
                    "velocity": 0.7165354330708661,
                    "duration": 0.3952916250000271
                },
                {
                    "name": "F4",
                    "midi": 65,
                    "time": 387.2540286249963,
                    "velocity": 0.6299212598425197,
                    "duration": 0.12517568125002754
                },
                {
                    "name": "G#3",
                    "midi": 56,
                    "time": 387.2540286249963,
                    "velocity": 0.5354330708661418,
                    "duration": 0.12517568125002754
                },
                {
                    "name": "B3",
                    "midi": 59,
                    "time": 387.2540286249963,
                    "velocity": 0.5354330708661418,
                    "duration": 0.12517568125002754
                },
                {
                    "name": "D4",
                    "midi": 62,
                    "time": 387.2540286249963,
                    "velocity": 0.5354330708661418,
                    "duration": 0.12517568125002754
                },
                {
                    "name": "D4",
                    "midi": 62,
                    "time": 387.38579249999634,
                    "velocity": 0.5748031496062992,
                    "duration": 0.1317638749999901
                },
                {
                    "name": "G#3",
                    "midi": 56,
                    "time": 387.38579249999634,
                    "velocity": 0.5748031496062992,
                    "duration": 0.1317638749999901
                },
                {
                    "name": "B3",
                    "midi": 59,
                    "time": 387.38579249999634,
                    "velocity": 0.5748031496062992,
                    "duration": 0.1317638749999901
                },
                {
                    "name": "F4",
                    "midi": 65,
                    "time": 387.38579249999634,
                    "velocity": 0.6929133858267716,
                    "duration": 0.1317638749999901
                },
                {
                    "name": "F3",
                    "midi": 53,
                    "time": 387.6493202499963,
                    "velocity": 0.5354330708661418,
                    "duration": 0.1317638749999901
                },
                {
                    "name": "G#3",
                    "midi": 56,
                    "time": 387.6493202499963,
                    "velocity": 0.5354330708661418,
                    "duration": 0.1317638749999901
                },
                {
                    "name": "B3",
                    "midi": 59,
                    "time": 387.6493202499963,
                    "velocity": 0.5354330708661418,
                    "duration": 0.1317638749999901
                },
                {
                    "name": "D4",
                    "midi": 62,
                    "time": 387.6493202499963,
                    "velocity": 0.6299212598425197,
                    "duration": 0.1317638749999901
                },
                {
                    "name": "C3",
                    "midi": 48,
                    "time": 387.9128479999963,
                    "velocity": 0.6220472440944882,
                    "duration": 0.3952916250000271
                },
                {
                    "name": "C2",
                    "midi": 36,
                    "time": 387.9128479999963,
                    "velocity": 0.5196850393700787,
                    "duration": 0.3952916250000271
                },
                {
                    "name": "D#3",
                    "midi": 51,
                    "time": 388.30813962499633,
                    "velocity": 0.5590551181102362,
                    "duration": 0.12517568125002754
                },
                {
                    "name": "D#2",
                    "midi": 39,
                    "time": 388.30813962499633,
                    "velocity": 0.4645669291338583,
                    "duration": 0.12517568125002754
                },
                {
                    "name": "D#3",
                    "midi": 51,
                    "time": 388.4399034999964,
                    "velocity": 0.6062992125984252,
                    "duration": 0.3952916250000271
                },
                {
                    "name": "D#2",
                    "midi": 39,
                    "time": 388.4399034999964,
                    "velocity": 0.5196850393700787,
                    "duration": 0.3952916250000271
                },
                {
                    "name": "F#2",
                    "midi": 42,
                    "time": 388.8351951249964,
                    "velocity": 0.4645669291338583,
                    "duration": 0.12517568125002754
                },
                {
                    "name": "F#3",
                    "midi": 54,
                    "time": 388.8351951249964,
                    "velocity": 0.5590551181102362,
                    "duration": 0.12517568125002754
                },
                {
                    "name": "F#2",
                    "midi": 42,
                    "time": 388.96695899999645,
                    "velocity": 0.5196850393700787,
                    "duration": 0.3952916250000271
                },
                {
                    "name": "F#3",
                    "midi": 54,
                    "time": 388.96695899999645,
                    "velocity": 0.6062992125984252,
                    "duration": 0.3952916250000271
                },
                {
                    "name": "A3",
                    "midi": 57,
                    "time": 389.3622506249965,
                    "velocity": 0.5354330708661418,
                    "duration": 0.12517568125002754
                },
                {
                    "name": "A2",
                    "midi": 45,
                    "time": 389.3622506249965,
                    "velocity": 0.44881889763779526,
                    "duration": 0.12517568125002754
                },
                {
                    "name": "A2",
                    "midi": 45,
                    "time": 389.4940144999965,
                    "velocity": 0.48031496062992124,
                    "duration": 0.1317638749999901
                },
                {
                    "name": "A3",
                    "midi": 57,
                    "time": 389.4940144999965,
                    "velocity": 0.5826771653543307,
                    "duration": 0.1317638749999901
                },
                {
                    "name": "C3",
                    "midi": 48,
                    "time": 389.7575422499965,
                    "velocity": 0.44881889763779526,
                    "duration": 0.1317638749999901
                },
                {
                    "name": "C4",
                    "midi": 60,
                    "time": 389.7575422499965,
                    "velocity": 0.5354330708661418,
                    "duration": 0.1317638749999901
                },
                {
                    "name": "C#3",
                    "midi": 49,
                    "time": 390.0210699999965,
                    "velocity": 0.6220472440944882,
                    "duration": 0.3952916250000271
                },
                {
                    "name": "C#2",
                    "midi": 37,
                    "time": 390.0210699999965,
                    "velocity": 0.5196850393700787,
                    "duration": 0.3952916250000271
                },
                {
                    "name": "F#3",
                    "midi": 54,
                    "time": 390.4163616249965,
                    "velocity": 0.5590551181102362,
                    "duration": 0.12517568125002754
                },
                {
                    "name": "F#2",
                    "midi": 42,
                    "time": 390.4163616249965,
                    "velocity": 0.4645669291338583,
                    "duration": 0.12517568125002754
                },
                {
                    "name": "F#3",
                    "midi": 54,
                    "time": 390.54812549999656,
                    "velocity": 0.6062992125984252,
                    "duration": 0.3952916250000271
                },
                {
                    "name": "F#2",
                    "midi": 42,
                    "time": 390.54812549999656,
                    "velocity": 0.5196850393700787,
                    "duration": 0.3952916250000271
                },
                {
                    "name": "A2",
                    "midi": 45,
                    "time": 390.9434171249966,
                    "velocity": 0.4645669291338583,
                    "duration": 0.12517568125002754
                },
                {
                    "name": "A3",
                    "midi": 57,
                    "time": 390.9434171249966,
                    "velocity": 0.5590551181102362,
                    "duration": 0.12517568125002754
                },
                {
                    "name": "A2",
                    "midi": 45,
                    "time": 391.07518099999663,
                    "velocity": 0.5196850393700787,
                    "duration": 0.3952916250000271
                },
                {
                    "name": "A3",
                    "midi": 57,
                    "time": 391.07518099999663,
                    "velocity": 0.6062992125984252,
                    "duration": 0.3952916250000271
                },
                {
                    "name": "C#4",
                    "midi": 61,
                    "time": 391.47047262499666,
                    "velocity": 0.5354330708661418,
                    "duration": 0.12517568125002754
                },
                {
                    "name": "C#3",
                    "midi": 49,
                    "time": 391.47047262499666,
                    "velocity": 0.44881889763779526,
                    "duration": 0.12517568125002754
                },
                {
                    "name": "C#3",
                    "midi": 49,
                    "time": 391.6022364999967,
                    "velocity": 0.48031496062992124,
                    "duration": 0.1317638749999901
                },
                {
                    "name": "C#4",
                    "midi": 61,
                    "time": 391.6022364999967,
                    "velocity": 0.5826771653543307,
                    "duration": 0.1317638749999901
                },
                {
                    "name": "F#3",
                    "midi": 54,
                    "time": 391.8657642499967,
                    "velocity": 0.5354330708661418,
                    "duration": 0.1317638749999901
                },
                {
                    "name": "C3",
                    "midi": 48,
                    "time": 392.12929199999667,
                    "velocity": 0.6220472440944882,
                    "duration": 0.3952916250000271
                },
                {
                    "name": "C2",
                    "midi": 36,
                    "time": 392.12929199999667,
                    "velocity": 0.5196850393700787,
                    "duration": 0.3952916250000271
                },
                {
                    "name": "D#3",
                    "midi": 51,
                    "time": 392.5245836249967,
                    "velocity": 0.5590551181102362,
                    "duration": 0.12517568125002754
                },
                {
                    "name": "D#2",
                    "midi": 39,
                    "time": 392.5245836249967,
                    "velocity": 0.4645669291338583,
                    "duration": 0.12517568125002754
                },
                {
                    "name": "D#3",
                    "midi": 51,
                    "time": 392.65634749999674,
                    "velocity": 0.6062992125984252,
                    "duration": 0.3952916250000271
                },
                {
                    "name": "D#2",
                    "midi": 39,
                    "time": 392.65634749999674,
                    "velocity": 0.5196850393700787,
                    "duration": 0.3952916250000271
                },
                {
                    "name": "F#2",
                    "midi": 42,
                    "time": 393.05163912499677,
                    "velocity": 0.4645669291338583,
                    "duration": 0.12517568125002754
                },
                {
                    "name": "F#3",
                    "midi": 54,
                    "time": 393.05163912499677,
                    "velocity": 0.5590551181102362,
                    "duration": 0.12517568125002754
                },
                {
                    "name": "F#2",
                    "midi": 42,
                    "time": 393.1834029999968,
                    "velocity": 0.5196850393700787,
                    "duration": 0.3952916250000271
                },
                {
                    "name": "F#3",
                    "midi": 54,
                    "time": 393.1834029999968,
                    "velocity": 0.6062992125984252,
                    "duration": 0.3952916250000271
                },
                {
                    "name": "A3",
                    "midi": 57,
                    "time": 393.57869462499684,
                    "velocity": 0.5354330708661418,
                    "duration": 0.12517568125002754
                },
                {
                    "name": "A2",
                    "midi": 45,
                    "time": 393.57869462499684,
                    "velocity": 0.44881889763779526,
                    "duration": 0.12517568125002754
                },
                {
                    "name": "A2",
                    "midi": 45,
                    "time": 393.7104584999969,
                    "velocity": 0.48031496062992124,
                    "duration": 0.1317638749999901
                },
                {
                    "name": "A3",
                    "midi": 57,
                    "time": 393.7104584999969,
                    "velocity": 0.5826771653543307,
                    "duration": 0.1317638749999901
                },
                {
                    "name": "C3",
                    "midi": 48,
                    "time": 393.97398624999687,
                    "velocity": 0.44881889763779526,
                    "duration": 0.1317638749999901
                },
                {
                    "name": "C4",
                    "midi": 60,
                    "time": 393.97398624999687,
                    "velocity": 0.5354330708661418,
                    "duration": 0.1317638749999901
                },
                {
                    "name": "G#2",
                    "midi": 44,
                    "time": 394.23751399999685,
                    "velocity": 0.6456692913385826,
                    "duration": 0.3952916250000271
                },
                {
                    "name": "G#1",
                    "midi": 32,
                    "time": 394.23751399999685,
                    "velocity": 0.5433070866141733,
                    "duration": 0.3952916250000271
                },
                {
                    "name": "C3",
                    "midi": 48,
                    "time": 394.6328056249969,
                    "velocity": 0.5826771653543307,
                    "duration": 0.12517568125002754
                },
                {
                    "name": "C2",
                    "midi": 36,
                    "time": 394.6328056249969,
                    "velocity": 0.48031496062992124,
                    "duration": 0.12517568125002754
                },
                {
                    "name": "C3",
                    "midi": 48,
                    "time": 394.7645694999969,
                    "velocity": 0.6220472440944882,
                    "duration": 0.3952916250000271
                },
                {
                    "name": "C2",
                    "midi": 36,
                    "time": 394.7645694999969,
                    "velocity": 0.5354330708661418,
                    "duration": 0.3952916250000271
                },
                {
                    "name": "D#2",
                    "midi": 39,
                    "time": 395.15986112499695,
                    "velocity": 0.47244094488188976,
                    "duration": 0.13176387500004694
                },
                {
                    "name": "D#3",
                    "midi": 51,
                    "time": 395.15986112499695,
                    "velocity": 0.5669291338582677,
                    "duration": 0.12517568125002754
                },
                {
                    "name": "D#2",
                    "midi": 39,
                    "time": 395.291624999997,
                    "velocity": 0.5275590551181102,
                    "duration": 0.3952916250000271
                },
                {
                    "name": "D#3",
                    "midi": 51,
                    "time": 395.291624999997,
                    "velocity": 0.6220472440944882,
                    "duration": 0.3952916250000271
                },
                {
                    "name": "G#3",
                    "midi": 56,
                    "time": 395.686916624997,
                    "velocity": 0.5433070866141733,
                    "duration": 0.12517568125002754
                },
                {
                    "name": "G#2",
                    "midi": 44,
                    "time": 395.686916624997,
                    "velocity": 0.4566929133858268,
                    "duration": 0.12517568125002754
                },
                {
                    "name": "G#2",
                    "midi": 44,
                    "time": 395.8186804999971,
                    "velocity": 0.4881889763779528,
                    "duration": 0.1317638749999901
                },
                {
                    "name": "G#3",
                    "midi": 56,
                    "time": 395.8186804999971,
                    "velocity": 0.5905511811023622,
                    "duration": 0.1317638749999901
                },
                {
                    "name": "C3",
                    "midi": 48,
                    "time": 396.08220824999705,
                    "velocity": 0.48031496062992124,
                    "duration": 0.1317638749999901
                },
                {
                    "name": "C4",
                    "midi": 60,
                    "time": 396.08220824999705,
                    "velocity": 0.5354330708661418,
                    "duration": 0.1317638749999901
                },
                {
                    "name": "C#3",
                    "midi": 49,
                    "time": 396.34573599999703,
                    "velocity": 0.4881889763779528,
                    "duration": 0.2635277499999802
                },
                {
                    "name": "C#4",
                    "midi": 61,
                    "time": 396.34573599999703,
                    "velocity": 0.5905511811023622,
                    "duration": 0.2635277499999802
                },
                {
                    "name": "G#2",
                    "midi": 44,
                    "time": 396.609263749997,
                    "velocity": 0.5905511811023622,
                    "duration": 0.1317638749999901
                },
                {
                    "name": "C#3",
                    "midi": 49,
                    "time": 396.741027624997,
                    "velocity": 0.5196850393700787,
                    "duration": 0.1317638749999901
                },
                {
                    "name": "F2",
                    "midi": 41,
                    "time": 396.872791499997,
                    "velocity": 0.5905511811023622,
                    "duration": 0.1317638749999901
                },
                {
                    "name": "C#3",
                    "midi": 49,
                    "time": 397.004555374997,
                    "velocity": 0.5196850393700787,
                    "duration": 0.1317638749999901
                },
                {
                    "name": "C#2",
                    "midi": 37,
                    "time": 397.136319249997,
                    "velocity": 0.5826771653543307,
                    "duration": 0.1317638749999901
                },
                {
                    "name": "C#3",
                    "midi": 49,
                    "time": 397.26808312499696,
                    "velocity": 0.5275590551181102,
                    "duration": 0.1317638749999901
                },
                {
                    "name": "C3",
                    "midi": 48,
                    "time": 397.39984699999695,
                    "velocity": 0.5905511811023622,
                    "duration": 0.1317638749999901
                },
                {
                    "name": "C#3",
                    "midi": 49,
                    "time": 397.53161087499694,
                    "velocity": 0.5039370078740157,
                    "duration": 0.1317638749999901
                },
                {
                    "name": "G#2",
                    "midi": 44,
                    "time": 397.66337474999693,
                    "velocity": 0.5669291338582677,
                    "duration": 0.1317638749999901
                },
                {
                    "name": "C#3",
                    "midi": 49,
                    "time": 397.7951386249969,
                    "velocity": 0.4881889763779528,
                    "duration": 0.1317638749999901
                },
                {
                    "name": "F2",
                    "midi": 41,
                    "time": 397.9269024999969,
                    "velocity": 0.5433070866141733,
                    "duration": 0.1317638749999901
                },
                {
                    "name": "C#3",
                    "midi": 49,
                    "time": 398.0586663749969,
                    "velocity": 0.4645669291338583,
                    "duration": 0.1317638749999901
                },
                {
                    "name": "C#2",
                    "midi": 37,
                    "time": 398.1904302499969,
                    "velocity": 0.5196850393700787,
                    "duration": 0.1317638749999901
                },
                {
                    "name": "C#3",
                    "midi": 49,
                    "time": 398.3221941249969,
                    "velocity": 0.4409448818897638,
                    "duration": 0.1317638749999901
                },
                {
                    "name": "C3",
                    "midi": 48,
                    "time": 398.4539579999969,
                    "velocity": 0.4881889763779528,
                    "duration": 0.13176387500004694
                },
                {
                    "name": "C#3",
                    "midi": 49,
                    "time": 398.5857218749969,
                    "velocity": 0.4330708661417323,
                    "duration": 0.1317638749999901
                },
                {
                    "name": "G#2",
                    "midi": 44,
                    "time": 398.7174857499969,
                    "velocity": 0.47244094488188976,
                    "duration": 0.1317638749999901
                },
                {
                    "name": "C#3",
                    "midi": 49,
                    "time": 398.8492496249969,
                    "velocity": 0.4015748031496063,
                    "duration": 0.1317638749999901
                },
                {
                    "name": "F2",
                    "midi": 41,
                    "time": 398.9810134999969,
                    "velocity": 0.4409448818897638,
                    "duration": 0.1317638749999901
                },
                {
                    "name": "C#3",
                    "midi": 49,
                    "time": 399.1127773749969,
                    "velocity": 0.3700787401574803,
                    "duration": 0.1317638749999901
                },
                {
                    "name": "C#2",
                    "midi": 37,
                    "time": 399.24454124999687,
                    "velocity": 0.4094488188976378,
                    "duration": 0.1317638749999901
                },
                {
                    "name": "C#3",
                    "midi": 49,
                    "time": 399.37630512499686,
                    "velocity": 0.3543307086614173,
                    "duration": 0.1317638749999901
                },
                {
                    "name": "C3",
                    "midi": 48,
                    "time": 399.50806899999685,
                    "velocity": 0.3937007874015748,
                    "duration": 0.1317638749999901
                },
                {
                    "name": "C#3",
                    "midi": 49,
                    "time": 399.63983287499684,
                    "velocity": 0.33070866141732286,
                    "duration": 0.1317638749999901
                },
                {
                    "name": "G#2",
                    "midi": 44,
                    "time": 399.77159674999683,
                    "velocity": 0.3700787401574803,
                    "duration": 0.1317638749999901
                },
                {
                    "name": "C#3",
                    "midi": 49,
                    "time": 399.9033606249968,
                    "velocity": 0.31496062992125984,
                    "duration": 0.1317638749999901
                },
                {
                    "name": "F2",
                    "midi": 41,
                    "time": 400.0351244999968,
                    "velocity": 0.3464566929133858,
                    "duration": 0.1317638749999901
                },
                {
                    "name": "C#3",
                    "midi": 49,
                    "time": 400.1668883749968,
                    "velocity": 0.29133858267716534,
                    "duration": 0.1317638749999901
                },
                {
                    "name": "C#2",
                    "midi": 37,
                    "time": 400.2986522499968,
                    "velocity": 0.31496062992125984,
                    "duration": 0.1317638749999901
                },
                {
                    "name": "C#3",
                    "midi": 49,
                    "time": 400.4304161249968,
                    "velocity": 0.2677165354330709,
                    "duration": 0.1317638749999901
                },
                {
                    "name": "C3",
                    "midi": 48,
                    "time": 400.5621799999968,
                    "velocity": 0.25984251968503935,
                    "duration": 0.13176387500004694
                },
                {
                    "name": "C#3",
                    "midi": 49,
                    "time": 400.6939438749968,
                    "velocity": 0.2283464566929134,
                    "duration": 0.1317638749999901
                },
                {
                    "name": "G#2",
                    "midi": 44,
                    "time": 400.8257077499968,
                    "velocity": 0.25984251968503935,
                    "duration": 0.1317638749999901
                },
                {
                    "name": "C#3",
                    "midi": 49,
                    "time": 400.9574716249968,
                    "velocity": 0.2283464566929134,
                    "duration": 0.1317638749999901
                },
                {
                    "name": "F2",
                    "midi": 41,
                    "time": 401.0892354999968,
                    "velocity": 0.25984251968503935,
                    "duration": 0.1317638749999901
                },
                {
                    "name": "C#3",
                    "midi": 49,
                    "time": 401.2209993749968,
                    "velocity": 0.2283464566929134,
                    "duration": 0.1317638749999901
                },
                {
                    "name": "C#2",
                    "midi": 37,
                    "time": 401.35276324999677,
                    "velocity": 0.25984251968503935,
                    "duration": 0.1317638749999901
                },
                {
                    "name": "C#3",
                    "midi": 49,
                    "time": 401.48452712499676,
                    "velocity": 0.2283464566929134,
                    "duration": 0.1317638749999901
                },
                {
                    "name": "C3",
                    "midi": 48,
                    "time": 401.61629099999675,
                    "velocity": 0.25984251968503935,
                    "duration": 0.1317638749999901
                },
                {
                    "name": "C#3",
                    "midi": 49,
                    "time": 401.74805487499674,
                    "velocity": 0.2283464566929134,
                    "duration": 0.1317638749999901
                },
                {
                    "name": "G#2",
                    "midi": 44,
                    "time": 401.87981874999673,
                    "velocity": 0.25984251968503935,
                    "duration": 0.1317638749999901
                },
                {
                    "name": "C#3",
                    "midi": 49,
                    "time": 402.0115826249967,
                    "velocity": 0.2283464566929134,
                    "duration": 0.1317638749999901
                },
                {
                    "name": "F2",
                    "midi": 41,
                    "time": 402.1433464999967,
                    "velocity": 0.25984251968503935,
                    "duration": 0.1317638749999901
                },
                {
                    "name": "C#3",
                    "midi": 49,
                    "time": 402.2751103749967,
                    "velocity": 0.2283464566929134,
                    "duration": 0.1317638749999901
                },
                {
                    "name": "C#2",
                    "midi": 37,
                    "time": 402.4068742499967,
                    "velocity": 0.25984251968503935,
                    "duration": 0.1317638749999901
                },
                {
                    "name": "C#3",
                    "midi": 49,
                    "time": 402.5386381249967,
                    "velocity": 0.2283464566929134,
                    "duration": 0.1317638749999901
                },
                {
                    "name": "C3",
                    "midi": 48,
                    "time": 402.67040199999667,
                    "velocity": 0.25984251968503935,
                    "duration": 0.1317638749999901
                },
                {
                    "name": "C#3",
                    "midi": 49,
                    "time": 402.80216587499666,
                    "velocity": 0.2283464566929134,
                    "duration": 0.1317638749999901
                },
                {
                    "name": "G#2",
                    "midi": 44,
                    "time": 402.93392974999665,
                    "velocity": 0.25984251968503935,
                    "duration": 0.1317638749999901
                },
                {
                    "name": "C#3",
                    "midi": 49,
                    "time": 403.06569362499664,
                    "velocity": 0.2283464566929134,
                    "duration": 0.1317638749999901
                },
                {
                    "name": "F2",
                    "midi": 41,
                    "time": 403.19745749999663,
                    "velocity": 0.25984251968503935,
                    "duration": 0.1317638749999901
                },
                {
                    "name": "C#3",
                    "midi": 49,
                    "time": 403.3292213749966,
                    "velocity": 0.2283464566929134,
                    "duration": 0.1317638749999901
                },
                {
                    "name": "C#2",
                    "midi": 37,
                    "time": 403.4609852499966,
                    "velocity": 0.25984251968503935,
                    "duration": 0.1317638749999901
                },
                {
                    "name": "C#3",
                    "midi": 49,
                    "time": 403.5927491249966,
                    "velocity": 0.2283464566929134,
                    "duration": 0.1317638749999901
                },
                {
                    "name": "C3",
                    "midi": 48,
                    "time": 403.7245129999966,
                    "velocity": 0.25984251968503935,
                    "duration": 0.1317638749999901
                },
                {
                    "name": "C#3",
                    "midi": 49,
                    "time": 403.8562768749966,
                    "velocity": 0.2204724409448819,
                    "duration": 0.1317638749999901
                },
                {
                    "name": "G#2",
                    "midi": 44,
                    "time": 403.98804074999657,
                    "velocity": 0.2283464566929134,
                    "duration": 0.1317638749999901
                },
                {
                    "name": "C#3",
                    "midi": 49,
                    "time": 404.11980462499656,
                    "velocity": 0.2047244094488189,
                    "duration": 0.1317638749999901
                },
                {
                    "name": "F2",
                    "midi": 41,
                    "time": 404.25156849999655,
                    "velocity": 0.2125984251968504,
                    "duration": 0.1317638749999901
                },
                {
                    "name": "C#3",
                    "midi": 49,
                    "time": 404.38333237499654,
                    "velocity": 0.18110236220472442,
                    "duration": 0.1317638749999901
                },
                {
                    "name": "C#2",
                    "midi": 37,
                    "time": 404.51509624999653,
                    "velocity": 0.1968503937007874,
                    "duration": 0.1317638749999901
                },
                {
                    "name": "C#3",
                    "midi": 49,
                    "time": 404.6468601249965,
                    "velocity": 0.15748031496062992,
                    "duration": 0.1317638749999901
                },
                {
                    "name": "B2",
                    "midi": 47,
                    "time": 404.7786239999965,
                    "velocity": 0.30708661417322836,
                    "duration": 0.1317638749999901
                },
                {
                    "name": "D3",
                    "midi": 50,
                    "time": 404.9103878749965,
                    "velocity": 0.25196850393700787,
                    "duration": 0.1317638749999901
                },
                {
                    "name": "G#2",
                    "midi": 44,
                    "time": 405.0421517499965,
                    "velocity": 0.28346456692913385,
                    "duration": 0.1317638749999901
                },
                {
                    "name": "D3",
                    "midi": 50,
                    "time": 405.1739156249965,
                    "velocity": 0.23622047244094488,
                    "duration": 0.1317638749999901
                },
                {
                    "name": "F#2",
                    "midi": 42,
                    "time": 405.3056794999965,
                    "velocity": 0.2677165354330709,
                    "duration": 0.1317638749999901
                },
                {
                    "name": "D3",
                    "midi": 50,
                    "time": 405.43744337499646,
                    "velocity": 0.2125984251968504,
                    "duration": 0.1317638749999901
                },
                {
                    "name": "F2",
                    "midi": 41,
                    "time": 405.56920724999645,
                    "velocity": 0.25196850393700787,
                    "duration": 0.1317638749999901
                },
                {
                    "name": "D3",
                    "midi": 50,
                    "time": 405.70097112499644,
                    "velocity": 0.2047244094488189,
                    "duration": 0.1317638749999901
                },
                {
                    "name": "B2",
                    "midi": 47,
                    "time": 405.83273499999643,
                    "velocity": 0.30708661417322836,
                    "duration": 0.1317638749999901
                },
                {
                    "name": "D3",
                    "midi": 50,
                    "time": 405.9644988749964,
                    "velocity": 0.25984251968503935,
                    "duration": 0.1317638749999901
                },
                {
                    "name": "G#2",
                    "midi": 44,
                    "time": 406.0962627499964,
                    "velocity": 0.28346456692913385,
                    "duration": 0.1317638749999901
                },
                {
                    "name": "D3",
                    "midi": 50,
                    "time": 406.2280266249964,
                    "velocity": 0.23622047244094488,
                    "duration": 0.1317638749999901
                },
                {
                    "name": "F#2",
                    "midi": 42,
                    "time": 406.3597904999964,
                    "velocity": 0.2677165354330709,
                    "duration": 0.1317638749999901
                },
                {
                    "name": "D3",
                    "midi": 50,
                    "time": 406.4915543749964,
                    "velocity": 0.2204724409448819,
                    "duration": 0.1317638749999901
                },
                {
                    "name": "F2",
                    "midi": 41,
                    "time": 406.6233182499964,
                    "velocity": 0.25196850393700787,
                    "duration": 0.1317638749999901
                },
                {
                    "name": "D3",
                    "midi": 50,
                    "time": 406.75508212499636,
                    "velocity": 0.2047244094488189,
                    "duration": 0.1317638749999901
                },
                {
                    "name": "B2",
                    "midi": 47,
                    "time": 406.88684599999635,
                    "velocity": 0.25984251968503935,
                    "duration": 0.13176387500004694
                },
                {
                    "name": "D3",
                    "midi": 50,
                    "time": 407.0186098749964,
                    "velocity": 0.2204724409448819,
                    "duration": 0.1317638749999901
                },
                {
                    "name": "G#2",
                    "midi": 44,
                    "time": 407.1503737499964,
                    "velocity": 0.25196850393700787,
                    "duration": 0.1317638749999901
                },
                {
                    "name": "D3",
                    "midi": 50,
                    "time": 407.2821376249964,
                    "velocity": 0.2125984251968504,
                    "duration": 0.1317638749999901
                },
                {
                    "name": "F#2",
                    "midi": 42,
                    "time": 407.41390149999637,
                    "velocity": 0.2440944881889764,
                    "duration": 0.1317638749999901
                },
                {
                    "name": "D3",
                    "midi": 50,
                    "time": 407.54566537499636,
                    "velocity": 0.2047244094488189,
                    "duration": 0.1317638749999901
                },
                {
                    "name": "F2",
                    "midi": 41,
                    "time": 407.67742924999635,
                    "velocity": 0.2440944881889764,
                    "duration": 0.1317638749999901
                },
                {
                    "name": "D3",
                    "midi": 50,
                    "time": 407.80919312499634,
                    "velocity": 0.2047244094488189,
                    "duration": 0.1317638749999901
                },
                {
                    "name": "B2",
                    "midi": 47,
                    "time": 407.94095699999633,
                    "velocity": 0.23622047244094488,
                    "duration": 0.1317638749999901
                },
                {
                    "name": "D3",
                    "midi": 50,
                    "time": 408.0727208749963,
                    "velocity": 0.2047244094488189,
                    "duration": 0.1317638749999901
                },
                {
                    "name": "G#2",
                    "midi": 44,
                    "time": 408.2044847499963,
                    "velocity": 0.23622047244094488,
                    "duration": 0.1317638749999901
                },
                {
                    "name": "D3",
                    "midi": 50,
                    "time": 408.3362486249963,
                    "velocity": 0.2047244094488189,
                    "duration": 0.1317638749999901
                },
                {
                    "name": "F#2",
                    "midi": 42,
                    "time": 408.4680124999963,
                    "velocity": 0.23622047244094488,
                    "duration": 0.1317638749999901
                },
                {
                    "name": "D3",
                    "midi": 50,
                    "time": 408.5997763749963,
                    "velocity": 0.1968503937007874,
                    "duration": 0.1317638749999901
                },
                {
                    "name": "E2",
                    "midi": 40,
                    "time": 408.73154024999627,
                    "velocity": 0.2440944881889764,
                    "duration": 0.1317638749999901
                },
                {
                    "name": "C#3",
                    "midi": 49,
                    "time": 408.86330412499626,
                    "velocity": 0.2047244094488189,
                    "duration": 0.1317638749999901
                },
                {
                    "name": "D#2",
                    "midi": 39,
                    "time": 408.99506799999625,
                    "velocity": 0.25196850393700787,
                    "duration": 0.13176387500004694
                },
                {
                    "name": "C3",
                    "midi": 48,
                    "time": 409.1268318749963,
                    "velocity": 0.2204724409448819,
                    "duration": 0.1317638749999901
                },
                {
                    "name": "F#2",
                    "midi": 42,
                    "time": 409.2585957499963,
                    "velocity": 0.25196850393700787,
                    "duration": 0.1317638749999901
                },
                {
                    "name": "C3",
                    "midi": 48,
                    "time": 409.3903596249963,
                    "velocity": 0.2125984251968504,
                    "duration": 0.1317638749999901
                },
                {
                    "name": "G#2",
                    "midi": 44,
                    "time": 409.52212349999627,
                    "velocity": 0.25984251968503935,
                    "duration": 0.1317638749999901
                },
                {
                    "name": "C3",
                    "midi": 48,
                    "time": 409.65388737499626,
                    "velocity": 0.2047244094488189,
                    "duration": 0.1317638749999901
                },
                {
                    "name": "C2",
                    "midi": 36,
                    "time": 409.78565124999625,
                    "velocity": 0.2440944881889764,
                    "duration": 0.1317638749999901
                },
                {
                    "name": "C3",
                    "midi": 48,
                    "time": 409.91741512499624,
                    "velocity": 0.2047244094488189,
                    "duration": 0.1317638749999901
                },
                {
                    "name": "D#2",
                    "midi": 39,
                    "time": 410.04917899999623,
                    "velocity": 0.23622047244094488,
                    "duration": 0.1317638749999901
                },
                {
                    "name": "C3",
                    "midi": 48,
                    "time": 410.1809428749962,
                    "velocity": 0.2047244094488189,
                    "duration": 0.1317638749999901
                },
                {
                    "name": "F#2",
                    "midi": 42,
                    "time": 410.3127067499962,
                    "velocity": 0.23622047244094488,
                    "duration": 0.1317638749999901
                },
                {
                    "name": "C3",
                    "midi": 48,
                    "time": 410.4444706249962,
                    "velocity": 0.2047244094488189,
                    "duration": 0.1317638749999901
                },
                {
                    "name": "G#2",
                    "midi": 44,
                    "time": 410.5762344999962,
                    "velocity": 0.2755905511811024,
                    "duration": 0.1317638749999901
                },
                {
                    "name": "C3",
                    "midi": 48,
                    "time": 410.7079983749962,
                    "velocity": 0.1968503937007874,
                    "duration": 0.1317638749999901
                },
                {
                    "name": "C2",
                    "midi": 36,
                    "time": 410.83976224999617,
                    "velocity": 0.2440944881889764,
                    "duration": 0.1317638749999901
                },
                {
                    "name": "C3",
                    "midi": 48,
                    "time": 410.97152612499616,
                    "velocity": 0.2047244094488189,
                    "duration": 0.1317638749999901
                },
                {
                    "name": "D#2",
                    "midi": 39,
                    "time": 411.10328999999615,
                    "velocity": 0.23622047244094488,
                    "duration": 0.13176387500004694
                },
                {
                    "name": "C3",
                    "midi": 48,
                    "time": 411.2350538749962,
                    "velocity": 0.2047244094488189,
                    "duration": 0.1317638749999901
                },
                {
                    "name": "F#2",
                    "midi": 42,
                    "time": 411.3668177499962,
                    "velocity": 0.23622047244094488,
                    "duration": 0.1317638749999901
                },
                {
                    "name": "C3",
                    "midi": 48,
                    "time": 411.4985816249962,
                    "velocity": 0.2047244094488189,
                    "duration": 0.1317638749999901
                },
                {
                    "name": "G#2",
                    "midi": 44,
                    "time": 411.63034549999617,
                    "velocity": 0.2677165354330709,
                    "duration": 0.1317638749999901
                },
                {
                    "name": "C3",
                    "midi": 48,
                    "time": 411.76210937499616,
                    "velocity": 0.1968503937007874,
                    "duration": 0.1317638749999901
                },
                {
                    "name": "C2",
                    "midi": 36,
                    "time": 411.89387324999615,
                    "velocity": 0.2440944881889764,
                    "duration": 0.1317638749999901
                },
                {
                    "name": "C3",
                    "midi": 48,
                    "time": 412.02563712499614,
                    "velocity": 0.2047244094488189,
                    "duration": 0.1317638749999901
                },
                {
                    "name": "D#2",
                    "midi": 39,
                    "time": 412.1574009999961,
                    "velocity": 0.23622047244094488,
                    "duration": 0.1317638749999901
                },
                {
                    "name": "C3",
                    "midi": 48,
                    "time": 412.2891648749961,
                    "velocity": 0.2047244094488189,
                    "duration": 0.1317638749999901
                },
                {
                    "name": "F#2",
                    "midi": 42,
                    "time": 412.4209287499961,
                    "velocity": 0.23622047244094488,
                    "duration": 0.1317638749999901
                },
                {
                    "name": "C3",
                    "midi": 48,
                    "time": 412.5526926249961,
                    "velocity": 0.2047244094488189,
                    "duration": 0.1317638749999901
                },
                {
                    "name": "G#2",
                    "midi": 44,
                    "time": 412.6844564999961,
                    "velocity": 0.25984251968503935,
                    "duration": 0.1317638749999901
                },
                {
                    "name": "C3",
                    "midi": 48,
                    "time": 412.8162203749961,
                    "velocity": 0.1968503937007874,
                    "duration": 0.1317638749999901
                },
                {
                    "name": "C2",
                    "midi": 36,
                    "time": 412.94798424999607,
                    "velocity": 0.2440944881889764,
                    "duration": 0.1317638749999901
                },
                {
                    "name": "C3",
                    "midi": 48,
                    "time": 413.07974812499606,
                    "velocity": 0.2047244094488189,
                    "duration": 0.1317638749999901
                },
                {
                    "name": "C#2",
                    "midi": 37,
                    "time": 413.21151199999605,
                    "velocity": 0.23622047244094488,
                    "duration": 0.13176387500004694
                },
                {
                    "name": "C#3",
                    "midi": 49,
                    "time": 413.3432758749961,
                    "velocity": 0.2047244094488189,
                    "duration": 0.1317638749999901
                },
                {
                    "name": "F2",
                    "midi": 41,
                    "time": 413.4750397499961,
                    "velocity": 0.2440944881889764,
                    "duration": 0.1317638749999901
                },
                {
                    "name": "C#3",
                    "midi": 49,
                    "time": 413.6068036249961,
                    "velocity": 0.2283464566929134,
                    "duration": 0.1317638749999901
                },
                {
                    "name": "G#2",
                    "midi": 44,
                    "time": 413.73856749999607,
                    "velocity": 0.2677165354330709,
                    "duration": 0.1317638749999901
                },
                {
                    "name": "C#3",
                    "midi": 49,
                    "time": 413.87033137499606,
                    "velocity": 0.2283464566929134,
                    "duration": 0.1317638749999901
                },
                {
                    "name": "C3",
                    "midi": 48,
                    "time": 414.00209524999605,
                    "velocity": 0.29133858267716534,
                    "duration": 0.1317638749999901
                },
                {
                    "name": "C#3",
                    "midi": 49,
                    "time": 414.13385912499604,
                    "velocity": 0.25196850393700787,
                    "duration": 0.1317638749999901
                },
                {
                    "name": "C#2",
                    "midi": 37,
                    "time": 414.265622999996,
                    "velocity": 0.23622047244094488,
                    "duration": 0.1317638749999901
                },
                {
                    "name": "C#3",
                    "midi": 49,
                    "time": 414.397386874996,
                    "velocity": 0.2047244094488189,
                    "duration": 0.1317638749999901
                },
                {
                    "name": "F2",
                    "midi": 41,
                    "time": 414.529150749996,
                    "velocity": 0.2440944881889764,
                    "duration": 0.1317638749999901
                },
                {
                    "name": "C#3",
                    "midi": 49,
                    "time": 414.660914624996,
                    "velocity": 0.2204724409448819,
                    "duration": 0.1317638749999901
                },
                {
                    "name": "G#2",
                    "midi": 44,
                    "time": 414.792678499996,
                    "velocity": 0.2677165354330709,
                    "duration": 0.1317638749999901
                },
                {
                    "name": "C#3",
                    "midi": 49,
                    "time": 414.924442374996,
                    "velocity": 0.2283464566929134,
                    "duration": 0.1317638749999901
                },
                {
                    "name": "C3",
                    "midi": 48,
                    "time": 415.05620624999597,
                    "velocity": 0.29133858267716534,
                    "duration": 0.1317638749999901
                },
                {
                    "name": "C#3",
                    "midi": 49,
                    "time": 415.18797012499596,
                    "velocity": 0.25984251968503935,
                    "duration": 0.1317638749999901
                },
                {
                    "name": "A#2",
                    "midi": 46,
                    "time": 415.31973399999595,
                    "velocity": 0.23622047244094488,
                    "duration": 0.13176387500004694
                },
                {
                    "name": "A#3",
                    "midi": 58,
                    "time": 415.451497874996,
                    "velocity": 0.2047244094488189,
                    "duration": 0.1317638749999901
                },
                {
                    "name": "C#3",
                    "midi": 49,
                    "time": 415.583261749996,
                    "velocity": 0.23622047244094488,
                    "duration": 0.1317638749999901
                },
                {
                    "name": "A#3",
                    "midi": 58,
                    "time": 415.715025624996,
                    "velocity": 0.2047244094488189,
                    "duration": 0.1317638749999901
                },
                {
                    "name": "F#3",
                    "midi": 54,
                    "time": 415.84678949999596,
                    "velocity": 0.2440944881889764,
                    "duration": 0.1317638749999901
                },
                {
                    "name": "A#3",
                    "midi": 58,
                    "time": 415.97855337499595,
                    "velocity": 0.2047244094488189,
                    "duration": 0.1317638749999901
                },
                {
                    "name": "A3",
                    "midi": 57,
                    "time": 416.11031724999594,
                    "velocity": 0.25984251968503935,
                    "duration": 0.1317638749999901
                },
                {
                    "name": "A#3",
                    "midi": 58,
                    "time": 416.24208112499593,
                    "velocity": 0.2204724409448819,
                    "duration": 0.1317638749999901
                },
                {
                    "name": "A#2",
                    "midi": 46,
                    "time": 416.3738449999959,
                    "velocity": 0.25196850393700787,
                    "duration": 0.1317638749999901
                },
                {
                    "name": "A#3",
                    "midi": 58,
                    "time": 416.5056088749959,
                    "velocity": 0.2047244094488189,
                    "duration": 0.1317638749999901
                },
                {
                    "name": "C#3",
                    "midi": 49,
                    "time": 416.6373727499959,
                    "velocity": 0.23622047244094488,
                    "duration": 0.1317638749999901
                },
                {
                    "name": "A#3",
                    "midi": 58,
                    "time": 416.7691366249959,
                    "velocity": 0.2125984251968504,
                    "duration": 0.1317638749999901
                },
                {
                    "name": "F#3",
                    "midi": 54,
                    "time": 416.9009004999959,
                    "velocity": 0.2440944881889764,
                    "duration": 0.1317638749999901
                },
                {
                    "name": "A#3",
                    "midi": 58,
                    "time": 417.0326643749959,
                    "velocity": 0.2047244094488189,
                    "duration": 0.1317638749999901
                },
                {
                    "name": "A3",
                    "midi": 57,
                    "time": 417.16442824999586,
                    "velocity": 0.25984251968503935,
                    "duration": 0.1317638749999901
                },
                {
                    "name": "A#3",
                    "midi": 58,
                    "time": 417.29619212499586,
                    "velocity": 0.2204724409448819,
                    "duration": 0.1317638749999901
                },
                {
                    "name": "G#2",
                    "midi": 44,
                    "time": 417.42795599999585,
                    "velocity": 0.23622047244094488,
                    "duration": 0.13176387500004694
                },
                {
                    "name": "G#3",
                    "midi": 56,
                    "time": 417.5597198749959,
                    "velocity": 0.2047244094488189,
                    "duration": 0.1317638749999901
                },
                {
                    "name": "C#3",
                    "midi": 49,
                    "time": 417.6914837499959,
                    "velocity": 0.2440944881889764,
                    "duration": 0.1317638749999901
                },
                {
                    "name": "G#3",
                    "midi": 56,
                    "time": 417.8232476249959,
                    "velocity": 0.2125984251968504,
                    "duration": 0.1317638749999901
                },
                {
                    "name": "F3",
                    "midi": 53,
                    "time": 417.95501149999586,
                    "velocity": 0.25196850393700787,
                    "duration": 0.1317638749999901
                },
                {
                    "name": "G#3",
                    "midi": 56,
                    "time": 418.08677537499585,
                    "velocity": 0.2125984251968504,
                    "duration": 0.1317638749999901
                },
                {
                    "name": "G3",
                    "midi": 55,
                    "time": 418.21853924999584,
                    "velocity": 0.2677165354330709,
                    "duration": 0.1317638749999901
                },
                {
                    "name": "G#3",
                    "midi": 56,
                    "time": 418.35030312499583,
                    "velocity": 0.2283464566929134,
                    "duration": 0.1317638749999901
                },
                {
                    "name": "G#2",
                    "midi": 44,
                    "time": 418.4820669999958,
                    "velocity": 0.23622047244094488,
                    "duration": 0.1317638749999901
                },
                {
                    "name": "G#3",
                    "midi": 56,
                    "time": 418.6138308749958,
                    "velocity": 0.2047244094488189,
                    "duration": 0.1317638749999901
                },
                {
                    "name": "C#3",
                    "midi": 49,
                    "time": 418.7455947499958,
                    "velocity": 0.2440944881889764,
                    "duration": 0.1317638749999901
                },
                {
                    "name": "G#3",
                    "midi": 56,
                    "time": 418.8773586249958,
                    "velocity": 0.2125984251968504,
                    "duration": 0.1317638749999901
                },
                {
                    "name": "F3",
                    "midi": 53,
                    "time": 419.0091224999958,
                    "velocity": 0.25196850393700787,
                    "duration": 0.1317638749999901
                },
                {
                    "name": "G#3",
                    "midi": 56,
                    "time": 419.1408863749958,
                    "velocity": 0.2125984251968504,
                    "duration": 0.1317638749999901
                },
                {
                    "name": "G3",
                    "midi": 55,
                    "time": 419.27265024999576,
                    "velocity": 0.2677165354330709,
                    "duration": 0.1317638749999901
                },
                {
                    "name": "G#3",
                    "midi": 56,
                    "time": 419.40441412499575,
                    "velocity": 0.2283464566929134,
                    "duration": 0.1317638749999901
                },
                {
                    "name": "G#2",
                    "midi": 44,
                    "time": 419.53617799999574,
                    "velocity": 0.23622047244094488,
                    "duration": 0.13176387500004694
                },
                {
                    "name": "G#3",
                    "midi": 56,
                    "time": 419.6679418749958,
                    "velocity": 0.2047244094488189,
                    "duration": 0.1317638749999901
                },
                {
                    "name": "D#3",
                    "midi": 51,
                    "time": 419.7997057499958,
                    "velocity": 0.23622047244094488,
                    "duration": 0.1317638749999901
                },
                {
                    "name": "G#3",
                    "midi": 56,
                    "time": 419.93146962499577,
                    "velocity": 0.2125984251968504,
                    "duration": 0.1317638749999901
                },
                {
                    "name": "F#3",
                    "midi": 54,
                    "time": 420.06323349999576,
                    "velocity": 0.2440944881889764,
                    "duration": 0.1317638749999901
                },
                {
                    "name": "G#3",
                    "midi": 56,
                    "time": 420.19499737499575,
                    "velocity": 0.2047244094488189,
                    "duration": 0.1317638749999901
                },
                {
                    "name": "G3",
                    "midi": 55,
                    "time": 420.32676124999574,
                    "velocity": 0.25984251968503935,
                    "duration": 0.1317638749999901
                },
                {
                    "name": "G#3",
                    "midi": 56,
                    "time": 420.45852512499573,
                    "velocity": 0.2204724409448819,
                    "duration": 0.1317638749999901
                },
                {
                    "name": "G#2",
                    "midi": 44,
                    "time": 420.5902889999957,
                    "velocity": 0.23622047244094488,
                    "duration": 0.1317638749999901
                },
                {
                    "name": "G#3",
                    "midi": 56,
                    "time": 420.7220528749957,
                    "velocity": 0.2047244094488189,
                    "duration": 0.1317638749999901
                },
                {
                    "name": "D#3",
                    "midi": 51,
                    "time": 420.8538167499957,
                    "velocity": 0.23622047244094488,
                    "duration": 0.1317638749999901
                },
                {
                    "name": "G#3",
                    "midi": 56,
                    "time": 420.9855806249957,
                    "velocity": 0.2125984251968504,
                    "duration": 0.1317638749999901
                },
                {
                    "name": "F#3",
                    "midi": 54,
                    "time": 421.1173444999957,
                    "velocity": 0.2440944881889764,
                    "duration": 0.1317638749999901
                },
                {
                    "name": "G#3",
                    "midi": 56,
                    "time": 421.24910837499567,
                    "velocity": 0.2047244094488189,
                    "duration": 0.1317638749999901
                },
                {
                    "name": "G3",
                    "midi": 55,
                    "time": 421.38087224999566,
                    "velocity": 0.25984251968503935,
                    "duration": 0.1317638749999901
                },
                {
                    "name": "G#3",
                    "midi": 56,
                    "time": 421.51263612499565,
                    "velocity": 0.2204724409448819,
                    "duration": 0.1317638749999901
                },
                {
                    "name": "C3",
                    "midi": 48,
                    "time": 421.64439999999564,
                    "velocity": 0.29133858267716534,
                    "duration": 0.13176387500004694
                },
                {
                    "name": "C#3",
                    "midi": 49,
                    "time": 421.7761638749957,
                    "velocity": 0.25196850393700787,
                    "duration": 0.1317638749999901
                },
                {
                    "name": "G#2",
                    "midi": 44,
                    "time": 421.9079277499957,
                    "velocity": 0.2755905511811024,
                    "duration": 0.1317638749999901
                },
                {
                    "name": "C#3",
                    "midi": 49,
                    "time": 422.03969162499567,
                    "velocity": 0.23622047244094488,
                    "duration": 0.1317638749999901
                },
                {
                    "name": "F2",
                    "midi": 41,
                    "time": 422.17145549999566,
                    "velocity": 0.25984251968503935,
                    "duration": 0.1317638749999901
                },
                {
                    "name": "C#3",
                    "midi": 49,
                    "time": 422.30321937499565,
                    "velocity": 0.2283464566929134,
                    "duration": 0.1317638749999901
                },
                {
                    "name": "C#2",
                    "midi": 37,
                    "time": 422.43498324999564,
                    "velocity": 0.23622047244094488,
                    "duration": 0.1317638749999901
                },
                {
                    "name": "C#3",
                    "midi": 49,
                    "time": 422.56674712499563,
                    "velocity": 0.2047244094488189,
                    "duration": 0.1317638749999901
                },
                {
                    "name": "C3",
                    "midi": 48,
                    "time": 422.6985109999956,
                    "velocity": 0.28346456692913385,
                    "duration": 0.1317638749999901
                },
                {
                    "name": "C#3",
                    "midi": 49,
                    "time": 422.8302748749956,
                    "velocity": 0.25196850393700787,
                    "duration": 0.1317638749999901
                },
                {
                    "name": "G#2",
                    "midi": 44,
                    "time": 422.9620387499956,
                    "velocity": 0.2755905511811024,
                    "duration": 0.1317638749999901
                },
                {
                    "name": "C#3",
                    "midi": 49,
                    "time": 423.0938026249956,
                    "velocity": 0.23622047244094488,
                    "duration": 0.1317638749999901
                },
                {
                    "name": "F2",
                    "midi": 41,
                    "time": 423.2255664999956,
                    "velocity": 0.25984251968503935,
                    "duration": 0.1317638749999901
                },
                {
                    "name": "C#3",
                    "midi": 49,
                    "time": 423.35733037499557,
                    "velocity": 0.2283464566929134,
                    "duration": 0.1317638749999901
                },
                {
                    "name": "C#2",
                    "midi": 37,
                    "time": 423.48909424999556,
                    "velocity": 0.23622047244094488,
                    "duration": 0.1317638749999901
                },
                {
                    "name": "C#3",
                    "midi": 49,
                    "time": 423.62085812499555,
                    "velocity": 0.2047244094488189,
                    "duration": 0.1317638749999901
                },
                {
                    "name": "C3",
                    "midi": 48,
                    "time": 423.75262199999554,
                    "velocity": 0.2440944881889764,
                    "duration": 0.13176387500004694
                },
                {
                    "name": "C#3",
                    "midi": 49,
                    "time": 423.8843858749956,
                    "velocity": 0.2204724409448819,
                    "duration": 0.1317638749999901
                },
                {
                    "name": "G#2",
                    "midi": 44,
                    "time": 424.0161497499956,
                    "velocity": 0.2440944881889764,
                    "duration": 0.1317638749999901
                },
                {
                    "name": "C#3",
                    "midi": 49,
                    "time": 424.14791362499557,
                    "velocity": 0.2125984251968504,
                    "duration": 0.1317638749999901
                },
                {
                    "name": "F2",
                    "midi": 41,
                    "time": 424.27967749999556,
                    "velocity": 0.23622047244094488,
                    "duration": 0.1317638749999901
                },
                {
                    "name": "C#3",
                    "midi": 49,
                    "time": 424.41144137499555,
                    "velocity": 0.2125984251968504,
                    "duration": 0.1317638749999901
                },
                {
                    "name": "C#2",
                    "midi": 37,
                    "time": 424.54320524999554,
                    "velocity": 0.2283464566929134,
                    "duration": 0.1317638749999901
                },
                {
                    "name": "C#3",
                    "midi": 49,
                    "time": 424.6749691249955,
                    "velocity": 0.2047244094488189,
                    "duration": 0.1317638749999901
                },
                {
                    "name": "C3",
                    "midi": 48,
                    "time": 424.8067329999955,
                    "velocity": 0.2440944881889764,
                    "duration": 0.1317638749999901
                },
                {
                    "name": "C#3",
                    "midi": 49,
                    "time": 424.9384968749955,
                    "velocity": 0.2204724409448819,
                    "duration": 0.1317638749999901
                },
                {
                    "name": "G#2",
                    "midi": 44,
                    "time": 425.0702607499955,
                    "velocity": 0.2440944881889764,
                    "duration": 0.1317638749999901
                },
                {
                    "name": "C#3",
                    "midi": 49,
                    "time": 425.2020246249955,
                    "velocity": 0.2125984251968504,
                    "duration": 0.1317638749999901
                },
                {
                    "name": "F2",
                    "midi": 41,
                    "time": 425.3337884999955,
                    "velocity": 0.23622047244094488,
                    "duration": 0.1317638749999901
                },
                {
                    "name": "C#3",
                    "midi": 49,
                    "time": 425.46555237499547,
                    "velocity": 0.2125984251968504,
                    "duration": 0.1317638749999901
                },
                {
                    "name": "C#2",
                    "midi": 37,
                    "time": 425.59731624999546,
                    "velocity": 0.2283464566929134,
                    "duration": 0.1317638749999901
                },
                {
                    "name": "C#3",
                    "midi": 49,
                    "time": 425.72908012499545,
                    "velocity": 0.2047244094488189,
                    "duration": 0.1317638749999901
                },
                {
                    "name": "C3",
                    "midi": 48,
                    "time": 425.86084399999544,
                    "velocity": 0.2283464566929134,
                    "duration": 0.13176387500004694
                },
                {
                    "name": "C#3",
                    "midi": 49,
                    "time": 425.9926078749955,
                    "velocity": 0.2204724409448819,
                    "duration": 0.1317638749999901
                },
                {
                    "name": "G#2",
                    "midi": 44,
                    "time": 426.1243717499955,
                    "velocity": 0.2440944881889764,
                    "duration": 0.1317638749999901
                },
                {
                    "name": "C#3",
                    "midi": 49,
                    "time": 426.25613562499547,
                    "velocity": 0.2125984251968504,
                    "duration": 0.1317638749999901
                },
                {
                    "name": "F2",
                    "midi": 41,
                    "time": 426.38789949999546,
                    "velocity": 0.23622047244094488,
                    "duration": 0.1317638749999901
                },
                {
                    "name": "C#3",
                    "midi": 49,
                    "time": 426.51966337499545,
                    "velocity": 0.2125984251968504,
                    "duration": 0.1317638749999901
                },
                {
                    "name": "C#2",
                    "midi": 37,
                    "time": 426.65142724999544,
                    "velocity": 0.2283464566929134,
                    "duration": 0.1317638749999901
                },
                {
                    "name": "C#3",
                    "midi": 49,
                    "time": 426.7831911249954,
                    "velocity": 0.2047244094488189,
                    "duration": 0.1317638749999901
                },
                {
                    "name": "C3",
                    "midi": 48,
                    "time": 426.9149549999954,
                    "velocity": 0.2440944881889764,
                    "duration": 0.1317638749999901
                },
                {
                    "name": "C#3",
                    "midi": 49,
                    "time": 427.0467188749954,
                    "velocity": 0.2204724409448819,
                    "duration": 0.1317638749999901
                },
                {
                    "name": "G#2",
                    "midi": 44,
                    "time": 427.1784827499954,
                    "velocity": 0.2440944881889764,
                    "duration": 0.1317638749999901
                },
                {
                    "name": "C#3",
                    "midi": 49,
                    "time": 427.3102466249954,
                    "velocity": 0.2125984251968504,
                    "duration": 0.1317638749999901
                },
                {
                    "name": "F2",
                    "midi": 41,
                    "time": 427.4420104999954,
                    "velocity": 0.23622047244094488,
                    "duration": 0.1317638749999901
                },
                {
                    "name": "C#3",
                    "midi": 49,
                    "time": 427.57377437499537,
                    "velocity": 0.2125984251968504,
                    "duration": 0.1317638749999901
                },
                {
                    "name": "C#2",
                    "midi": 37,
                    "time": 427.70553824999536,
                    "velocity": 0.2283464566929134,
                    "duration": 0.1317638749999901
                },
                {
                    "name": "C#3",
                    "midi": 49,
                    "time": 427.83730212499535,
                    "velocity": 0.2047244094488189,
                    "duration": 0.1317638749999901
                },
                {
                    "name": "C3",
                    "midi": 48,
                    "time": 427.96906599999534,
                    "velocity": 0.2283464566929134,
                    "duration": 0.1317638749999901
                },
                {
                    "name": "C#3",
                    "midi": 49,
                    "time": 428.1008298749953,
                    "velocity": 0.2047244094488189,
                    "duration": 0.1317638749999901
                },
                {
                    "name": "G#2",
                    "midi": 44,
                    "time": 428.2325937499953,
                    "velocity": 0.2283464566929134,
                    "duration": 0.1317638749999901
                },
                {
                    "name": "C#3",
                    "midi": 49,
                    "time": 428.3643576249953,
                    "velocity": 0.2047244094488189,
                    "duration": 0.1317638749999901
                },
                {
                    "name": "F2",
                    "midi": 41,
                    "time": 428.4961214999953,
                    "velocity": 0.2283464566929134,
                    "duration": 0.1317638749999901
                },
                {
                    "name": "C#3",
                    "midi": 49,
                    "time": 428.6278853749953,
                    "velocity": 0.2047244094488189,
                    "duration": 0.1317638749999901
                },
                {
                    "name": "C#2",
                    "midi": 37,
                    "time": 428.7596492499953,
                    "velocity": 0.2283464566929134,
                    "duration": 0.1317638749999901
                },
                {
                    "name": "C#3",
                    "midi": 49,
                    "time": 428.89141312499527,
                    "velocity": 0.2047244094488189,
                    "duration": 0.1317638749999901
                },
                {
                    "name": "C3",
                    "midi": 48,
                    "time": 429.02317699999526,
                    "velocity": 0.2283464566929134,
                    "duration": 0.1317638749999901
                },
                {
                    "name": "C#3",
                    "midi": 49,
                    "time": 429.15494087499525,
                    "velocity": 0.1968503937007874,
                    "duration": 0.1317638749999901
                },
                {
                    "name": "G#2",
                    "midi": 44,
                    "time": 429.28670474999524,
                    "velocity": 0.2047244094488189,
                    "duration": 0.1317638749999901
                },
                {
                    "name": "C#3",
                    "midi": 49,
                    "time": 429.4184686249952,
                    "velocity": 0.18110236220472442,
                    "duration": 0.1317638749999901
                },
                {
                    "name": "F2",
                    "midi": 41,
                    "time": 429.5502324999952,
                    "velocity": 0.1889763779527559,
                    "duration": 0.1317638749999901
                },
                {
                    "name": "C#3",
                    "midi": 49,
                    "time": 429.6819963749952,
                    "velocity": 0.14960629921259844,
                    "duration": 0.1317638749999901
                },
                {
                    "name": "C#2",
                    "midi": 37,
                    "time": 429.8137602499952,
                    "velocity": 0.1732283464566929,
                    "duration": 0.1317638749999901
                },
                {
                    "name": "C#3",
                    "midi": 49,
                    "time": 429.9455241249952,
                    "velocity": 0.14173228346456693,
                    "duration": 0.1317638749999901
                },
                {
                    "name": "B2",
                    "midi": 47,
                    "time": 430.0772879999952,
                    "velocity": 0.30708661417322836,
                    "duration": 0.1317638749999901
                },
                {
                    "name": "D3",
                    "midi": 50,
                    "time": 430.20905187499517,
                    "velocity": 0.25196850393700787,
                    "duration": 0.1317638749999901
                },
                {
                    "name": "G#2",
                    "midi": 44,
                    "time": 430.34081574999516,
                    "velocity": 0.28346456692913385,
                    "duration": 0.1317638749999901
                },
                {
                    "name": "D3",
                    "midi": 50,
                    "time": 430.47257962499515,
                    "velocity": 0.23622047244094488,
                    "duration": 0.1317638749999901
                },
                {
                    "name": "F#2",
                    "midi": 42,
                    "time": 430.60434349999514,
                    "velocity": 0.25984251968503935,
                    "duration": 0.1317638749999901
                },
                {
                    "name": "D3",
                    "midi": 50,
                    "time": 430.73610737499513,
                    "velocity": 0.2125984251968504,
                    "duration": 0.1317638749999901
                },
                {
                    "name": "F2",
                    "midi": 41,
                    "time": 430.8678712499951,
                    "velocity": 0.25196850393700787,
                    "duration": 0.1317638749999901
                },
                {
                    "name": "D3",
                    "midi": 50,
                    "time": 430.9996351249951,
                    "velocity": 0.2047244094488189,
                    "duration": 0.1317638749999901
                },
                {
                    "name": "B2",
                    "midi": 47,
                    "time": 431.1313989999951,
                    "velocity": 0.30708661417322836,
                    "duration": 0.1317638749999901
                },
                {
                    "name": "D3",
                    "midi": 50,
                    "time": 431.2631628749951,
                    "velocity": 0.25196850393700787,
                    "duration": 0.1317638749999901
                },
                {
                    "name": "G#2",
                    "midi": 44,
                    "time": 431.3949267499951,
                    "velocity": 0.28346456692913385,
                    "duration": 0.1317638749999901
                },
                {
                    "name": "D3",
                    "midi": 50,
                    "time": 431.52669062499507,
                    "velocity": 0.23622047244094488,
                    "duration": 0.1317638749999901
                },
                {
                    "name": "F#2",
                    "midi": 42,
                    "time": 431.65845449999506,
                    "velocity": 0.2677165354330709,
                    "duration": 0.1317638749999901
                },
                {
                    "name": "D3",
                    "midi": 50,
                    "time": 431.79021837499505,
                    "velocity": 0.2204724409448819,
                    "duration": 0.1317638749999901
                },
                {
                    "name": "F2",
                    "midi": 41,
                    "time": 431.92198224999504,
                    "velocity": 0.25196850393700787,
                    "duration": 0.1317638749999901
                },
                {
                    "name": "D3",
                    "midi": 50,
                    "time": 432.05374612499503,
                    "velocity": 0.2047244094488189,
                    "duration": 0.1317638749999901
                },
                {
                    "name": "B2",
                    "midi": 47,
                    "time": 432.185509999995,
                    "velocity": 0.25984251968503935,
                    "duration": 0.13176387500004694
                },
                {
                    "name": "D3",
                    "midi": 50,
                    "time": 432.31727387499507,
                    "velocity": 0.2204724409448819,
                    "duration": 0.1317638749999901
                },
                {
                    "name": "G#2",
                    "midi": 44,
                    "time": 432.44903774999506,
                    "velocity": 0.25196850393700787,
                    "duration": 0.1317638749999901
                },
                {
                    "name": "D3",
                    "midi": 50,
                    "time": 432.58080162499505,
                    "velocity": 0.2125984251968504,
                    "duration": 0.1317638749999901
                },
                {
                    "name": "F#2",
                    "midi": 42,
                    "time": 432.71256549999504,
                    "velocity": 0.2440944881889764,
                    "duration": 0.1317638749999901
                },
                {
                    "name": "D3",
                    "midi": 50,
                    "time": 432.844329374995,
                    "velocity": 0.2047244094488189,
                    "duration": 0.1317638749999901
                },
                {
                    "name": "F2",
                    "midi": 41,
                    "time": 432.976093249995,
                    "velocity": 0.2440944881889764,
                    "duration": 0.1317638749999901
                },
                {
                    "name": "D3",
                    "midi": 50,
                    "time": 433.107857124995,
                    "velocity": 0.2047244094488189,
                    "duration": 0.1317638749999901
                },
                {
                    "name": "B2",
                    "midi": 47,
                    "time": 433.239620999995,
                    "velocity": 0.25984251968503935,
                    "duration": 0.1317638749999901
                },
                {
                    "name": "D3",
                    "midi": 50,
                    "time": 433.371384874995,
                    "velocity": 0.2204724409448819,
                    "duration": 0.1317638749999901
                },
                {
                    "name": "G#2",
                    "midi": 44,
                    "time": 433.503148749995,
                    "velocity": 0.25196850393700787,
                    "duration": 0.1317638749999901
                },
                {
                    "name": "D3",
                    "midi": 50,
                    "time": 433.63491262499497,
                    "velocity": 0.2125984251968504,
                    "duration": 0.1317638749999901
                },
                {
                    "name": "F#2",
                    "midi": 42,
                    "time": 433.76667649999496,
                    "velocity": 0.2440944881889764,
                    "duration": 0.1317638749999901
                },
                {
                    "name": "D3",
                    "midi": 50,
                    "time": 433.89844037499495,
                    "velocity": 0.2047244094488189,
                    "duration": 0.1317638749999901
                },
                {
                    "name": "F2",
                    "midi": 41,
                    "time": 434.03020424999494,
                    "velocity": 0.2440944881889764,
                    "duration": 0.1317638749999901
                },
                {
                    "name": "D3",
                    "midi": 50,
                    "time": 434.1619681249949,
                    "velocity": 0.2047244094488189,
                    "duration": 0.1317638749999901
                },
                {
                    "name": "F#2",
                    "midi": 42,
                    "time": 434.2937319999949,
                    "velocity": 0.23622047244094488,
                    "duration": 0.13176387500004694
                },
                {
                    "name": "D#3",
                    "midi": 51,
                    "time": 434.42549587499497,
                    "velocity": 0.2047244094488189,
                    "duration": 0.1317638749999901
                },
                {
                    "name": "A2",
                    "midi": 45,
                    "time": 434.55725974999496,
                    "velocity": 0.2440944881889764,
                    "duration": 0.1317638749999901
                },
                {
                    "name": "D#3",
                    "midi": 51,
                    "time": 434.68902362499495,
                    "velocity": 0.2047244094488189,
                    "duration": 0.1317638749999901
                },
                {
                    "name": "B2",
                    "midi": 47,
                    "time": 434.82078749999494,
                    "velocity": 0.2677165354330709,
                    "duration": 0.1317638749999901
                },
                {
                    "name": "D#3",
                    "midi": 51,
                    "time": 434.9525513749949,
                    "velocity": 0.1968503937007874,
                    "duration": 0.1317638749999901
                },
                {
                    "name": "D#2",
                    "midi": 39,
                    "time": 435.0843152499949,
                    "velocity": 0.2440944881889764,
                    "duration": 0.1317638749999901
                },
                {
                    "name": "D#3",
                    "midi": 51,
                    "time": 435.2160791249949,
                    "velocity": 0.2047244094488189,
                    "duration": 0.1317638749999901
                },
                {
                    "name": "F#2",
                    "midi": 42,
                    "time": 435.3478429999949,
                    "velocity": 0.23622047244094488,
                    "duration": 0.1317638749999901
                },
                {
                    "name": "D#3",
                    "midi": 51,
                    "time": 435.4796068749949,
                    "velocity": 0.2047244094488189,
                    "duration": 0.1317638749999901
                },
                {
                    "name": "A2",
                    "midi": 45,
                    "time": 435.6113707499949,
                    "velocity": 0.2440944881889764,
                    "duration": 0.1317638749999901
                },
                {
                    "name": "D#3",
                    "midi": 51,
                    "time": 435.74313462499487,
                    "velocity": 0.2047244094488189,
                    "duration": 0.1317638749999901
                },
                {
                    "name": "B2",
                    "midi": 47,
                    "time": 435.87489849999486,
                    "velocity": 0.2755905511811024,
                    "duration": 0.1317638749999901
                },
                {
                    "name": "D#3",
                    "midi": 51,
                    "time": 436.00666237499485,
                    "velocity": 0.1968503937007874,
                    "duration": 0.1317638749999901
                },
                {
                    "name": "D#2",
                    "midi": 39,
                    "time": 436.13842624999484,
                    "velocity": 0.2440944881889764,
                    "duration": 0.1317638749999901
                },
                {
                    "name": "D#3",
                    "midi": 51,
                    "time": 436.2701901249948,
                    "velocity": 0.2047244094488189,
                    "duration": 0.1317638749999901
                },
                {
                    "name": "F#2",
                    "midi": 42,
                    "time": 436.4019539999948,
                    "velocity": 0.23622047244094488,
                    "duration": 0.13176387500004694
                },
                {
                    "name": "D#3",
                    "midi": 51,
                    "time": 436.53371787499486,
                    "velocity": 0.2047244094488189,
                    "duration": 0.1317638749999901
                },
                {
                    "name": "A2",
                    "midi": 45,
                    "time": 436.66548174999485,
                    "velocity": 0.25196850393700787,
                    "duration": 0.1317638749999901
                },
                {
                    "name": "D#3",
                    "midi": 51,
                    "time": 436.79724562499484,
                    "velocity": 0.2047244094488189,
                    "duration": 0.1317638749999901
                },
                {
                    "name": "B2",
                    "midi": 47,
                    "time": 436.92900949999483,
                    "velocity": 0.2755905511811024,
                    "duration": 0.1317638749999901
                },
                {
                    "name": "D#3",
                    "midi": 51,
                    "time": 437.0607733749948,
                    "velocity": 0.1968503937007874,
                    "duration": 0.1317638749999901
                },
                {
                    "name": "D#2",
                    "midi": 39,
                    "time": 437.1925372499948,
                    "velocity": 0.2440944881889764,
                    "duration": 0.1317638749999901
                },
                {
                    "name": "D#3",
                    "midi": 51,
                    "time": 437.3243011249948,
                    "velocity": 0.2047244094488189,
                    "duration": 0.1317638749999901
                },
                {
                    "name": "F#2",
                    "midi": 42,
                    "time": 437.4560649999948,
                    "velocity": 0.23622047244094488,
                    "duration": 0.1317638749999901
                },
                {
                    "name": "D#3",
                    "midi": 51,
                    "time": 437.5878288749948,
                    "velocity": 0.2047244094488189,
                    "duration": 0.1317638749999901
                },
                {
                    "name": "A2",
                    "midi": 45,
                    "time": 437.7195927499948,
                    "velocity": 0.25984251968503935,
                    "duration": 0.1317638749999901
                },
                {
                    "name": "D#3",
                    "midi": 51,
                    "time": 437.85135662499476,
                    "velocity": 0.2047244094488189,
                    "duration": 0.1317638749999901
                },
                {
                    "name": "B2",
                    "midi": 47,
                    "time": 437.98312049999475,
                    "velocity": 0.2755905511811024,
                    "duration": 0.1317638749999901
                },
                {
                    "name": "D#3",
                    "midi": 51,
                    "time": 438.11488437499474,
                    "velocity": 0.1968503937007874,
                    "duration": 0.1317638749999901
                },
                {
                    "name": "D#2",
                    "midi": 39,
                    "time": 438.24664824999473,
                    "velocity": 0.2440944881889764,
                    "duration": 0.1317638749999901
                },
                {
                    "name": "D#3",
                    "midi": 51,
                    "time": 438.3784121249947,
                    "velocity": 0.2047244094488189,
                    "duration": 0.1317638749999901
                },
                {
                    "name": "E2",
                    "midi": 40,
                    "time": 438.5101759999947,
                    "velocity": 0.23622047244094488,
                    "duration": 0.13176387500004694
                },
                {
                    "name": "E3",
                    "midi": 52,
                    "time": 438.64193987499476,
                    "velocity": 0.2047244094488189,
                    "duration": 0.1317638749999901
                },
                {
                    "name": "G#2",
                    "midi": 44,
                    "time": 438.77370374999475,
                    "velocity": 0.25196850393700787,
                    "duration": 0.1317638749999901
                },
                {
                    "name": "E3",
                    "midi": 52,
                    "time": 438.90546762499474,
                    "velocity": 0.23622047244094488,
                    "duration": 0.1317638749999901
                },
                {
                    "name": "B2",
                    "midi": 47,
                    "time": 439.03723149999473,
                    "velocity": 0.28346456692913385,
                    "duration": 0.1317638749999901
                },
                {
                    "name": "E3",
                    "midi": 52,
                    "time": 439.1689953749947,
                    "velocity": 0.2440944881889764,
                    "duration": 0.1317638749999901
                },
                {
                    "name": "D#3",
                    "midi": 51,
                    "time": 439.3007592499947,
                    "velocity": 0.31496062992125984,
                    "duration": 0.1317638749999901
                },
                {
                    "name": "E3",
                    "midi": 52,
                    "time": 439.4325231249947,
                    "velocity": 0.2755905511811024,
                    "duration": 0.1317638749999901
                },
                {
                    "name": "E2",
                    "midi": 40,
                    "time": 439.5642869999947,
                    "velocity": 0.23622047244094488,
                    "duration": 0.1317638749999901
                },
                {
                    "name": "E3",
                    "midi": 52,
                    "time": 439.6960508749947,
                    "velocity": 0.2047244094488189,
                    "duration": 0.1317638749999901
                },
                {
                    "name": "G#2",
                    "midi": 44,
                    "time": 439.8278147499947,
                    "velocity": 0.25196850393700787,
                    "duration": 0.1317638749999901
                },
                {
                    "name": "E3",
                    "midi": 52,
                    "time": 439.95957862499466,
                    "velocity": 0.2283464566929134,
                    "duration": 0.1317638749999901
                },
                {
                    "name": "B2",
                    "midi": 47,
                    "time": 440.09134249999465,
                    "velocity": 0.28346456692913385,
                    "duration": 0.1317638749999901
                },
                {
                    "name": "E3",
                    "midi": 52,
                    "time": 440.22310637499464,
                    "velocity": 0.2440944881889764,
                    "duration": 0.1317638749999901
                },
                {
                    "name": "D#3",
                    "midi": 51,
                    "time": 440.35487024999463,
                    "velocity": 0.31496062992125984,
                    "duration": 0.1317638749999901
                },
                {
                    "name": "E3",
                    "midi": 52,
                    "time": 440.4866341249946,
                    "velocity": 0.2755905511811024,
                    "duration": 0.1317638749999901
                },
                {
                    "name": "C#3",
                    "midi": 49,
                    "time": 440.6183979999946,
                    "velocity": 0.23622047244094488,
                    "duration": 0.13176387500004694
                },
                {
                    "name": "C#4",
                    "midi": 61,
                    "time": 440.75016187499466,
                    "velocity": 0.2047244094488189,
                    "duration": 0.1317638749999901
                },
                {
                    "name": "E3",
                    "midi": 52,
                    "time": 440.88192574999465,
                    "velocity": 0.2440944881889764,
                    "duration": 0.1317638749999901
                },
                {
                    "name": "C#4",
                    "midi": 61,
                    "time": 441.01368962499464,
                    "velocity": 0.2125984251968504,
                    "duration": 0.1317638749999901
                },
                {
                    "name": "A3",
                    "midi": 57,
                    "time": 441.14545349999463,
                    "velocity": 0.25984251968503935,
                    "duration": 0.1317638749999901
                },
                {
                    "name": "C#4",
                    "midi": 61,
                    "time": 441.2772173749946,
                    "velocity": 0.2204724409448819,
                    "duration": 0.1317638749999901
                },
                {
                    "name": "C4",
                    "midi": 60,
                    "time": 441.4089812499946,
                    "velocity": 0.2755905511811024,
                    "duration": 0.1317638749999901
                },
                {
                    "name": "C#4",
                    "midi": 61,
                    "time": 441.5407451249946,
                    "velocity": 0.23622047244094488,
                    "duration": 0.1317638749999901
                },
                {
                    "name": "C#3",
                    "midi": 49,
                    "time": 441.6725089999946,
                    "velocity": 0.2755905511811024,
                    "duration": 0.1317638749999901
                },
                {
                    "name": "C#4",
                    "midi": 61,
                    "time": 441.8042728749946,
                    "velocity": 0.2047244094488189,
                    "duration": 0.1317638749999901
                },
                {
                    "name": "E3",
                    "midi": 52,
                    "time": 441.93603674999457,
                    "velocity": 0.2440944881889764,
                    "duration": 0.1317638749999901
                },
                {
                    "name": "C#4",
                    "midi": 61,
                    "time": 442.06780062499456,
                    "velocity": 0.2125984251968504,
                    "duration": 0.1317638749999901
                },
                {
                    "name": "A3",
                    "midi": 57,
                    "time": 442.19956449999455,
                    "velocity": 0.25984251968503935,
                    "duration": 0.1317638749999901
                },
                {
                    "name": "C#4",
                    "midi": 61,
                    "time": 442.33132837499454,
                    "velocity": 0.2204724409448819,
                    "duration": 0.1317638749999901
                },
                {
                    "name": "C4",
                    "midi": 60,
                    "time": 442.46309224999453,
                    "velocity": 0.2755905511811024,
                    "duration": 0.1317638749999901
                },
                {
                    "name": "C#4",
                    "midi": 61,
                    "time": 442.5948561249945,
                    "velocity": 0.23622047244094488,
                    "duration": 0.1317638749999901
                },
                {
                    "name": "B2",
                    "midi": 47,
                    "time": 442.7266199999945,
                    "velocity": 0.23622047244094488,
                    "duration": 0.13176387500004694
                },
                {
                    "name": "B3",
                    "midi": 59,
                    "time": 442.85838387499456,
                    "velocity": 0.2047244094488189,
                    "duration": 0.1317638749999901
                },
                {
                    "name": "E3",
                    "midi": 52,
                    "time": 442.99014774999455,
                    "velocity": 0.2440944881889764,
                    "duration": 0.1317638749999901
                },
                {
                    "name": "B3",
                    "midi": 59,
                    "time": 443.12191162499454,
                    "velocity": 0.2125984251968504,
                    "duration": 0.1317638749999901
                },
                {
                    "name": "G#3",
                    "midi": 56,
                    "time": 443.25367549999453,
                    "velocity": 0.25196850393700787,
                    "duration": 0.1317638749999901
                },
                {
                    "name": "B3",
                    "midi": 59,
                    "time": 443.3854393749945,
                    "velocity": 0.2204724409448819,
                    "duration": 0.1317638749999901
                },
                {
                    "name": "A#3",
                    "midi": 58,
                    "time": 443.5172032499945,
                    "velocity": 0.2755905511811024,
                    "duration": 0.1317638749999901
                },
                {
                    "name": "B3",
                    "midi": 59,
                    "time": 443.6489671249945,
                    "velocity": 0.23622047244094488,
                    "duration": 0.1317638749999901
                },
                {
                    "name": "B2",
                    "midi": 47,
                    "time": 443.7807309999945,
                    "velocity": 0.23622047244094488,
                    "duration": 0.1317638749999901
                },
                {
                    "name": "B3",
                    "midi": 59,
                    "time": 443.9124948749945,
                    "velocity": 0.2047244094488189,
                    "duration": 0.1317638749999901
                },
                {
                    "name": "E3",
                    "midi": 52,
                    "time": 444.04425874999447,
                    "velocity": 0.2440944881889764,
                    "duration": 0.1317638749999901
                },
                {
                    "name": "B3",
                    "midi": 59,
                    "time": 444.17602262499446,
                    "velocity": 0.2204724409448819,
                    "duration": 0.1317638749999901
                },
                {
                    "name": "G#3",
                    "midi": 56,
                    "time": 444.30778649999445,
                    "velocity": 0.25984251968503935,
                    "duration": 0.1317638749999901
                },
                {
                    "name": "B3",
                    "midi": 59,
                    "time": 444.43955037499444,
                    "velocity": 0.2204724409448819,
                    "duration": 0.1317638749999901
                },
                {
                    "name": "A#3",
                    "midi": 58,
                    "time": 444.57131424999443,
                    "velocity": 0.2755905511811024,
                    "duration": 0.1317638749999901
                },
                {
                    "name": "B3",
                    "midi": 59,
                    "time": 444.7030781249944,
                    "velocity": 0.23622047244094488,
                    "duration": 0.1317638749999901
                },
                {
                    "name": "B2",
                    "midi": 47,
                    "time": 444.8348419999944,
                    "velocity": 0.23622047244094488,
                    "duration": 0.1317638749999901
                },
                {
                    "name": "B3",
                    "midi": 59,
                    "time": 444.9666058749944,
                    "velocity": 0.2047244094488189,
                    "duration": 0.1317638749999901
                },
                {
                    "name": "F#3",
                    "midi": 54,
                    "time": 445.0983697499944,
                    "velocity": 0.2440944881889764,
                    "duration": 0.1317638749999901
                },
                {
                    "name": "B3",
                    "midi": 59,
                    "time": 445.2301336249944,
                    "velocity": 0.2125984251968504,
                    "duration": 0.1317638749999901
                },
                {
                    "name": "A3",
                    "midi": 57,
                    "time": 445.36189749999437,
                    "velocity": 0.25984251968503935,
                    "duration": 0.1317638749999901
                },
                {
                    "name": "B3",
                    "midi": 59,
                    "time": 445.49366137499436,
                    "velocity": 0.2204724409448819,
                    "duration": 0.1317638749999901
                },
                {
                    "name": "A#3",
                    "midi": 58,
                    "time": 445.62542524999435,
                    "velocity": 0.2755905511811024,
                    "duration": 0.1317638749999901
                },
                {
                    "name": "B3",
                    "midi": 59,
                    "time": 445.75718912499434,
                    "velocity": 0.23622047244094488,
                    "duration": 0.1317638749999901
                },
                {
                    "name": "B2",
                    "midi": 47,
                    "time": 445.88895299999433,
                    "velocity": 0.23622047244094488,
                    "duration": 0.1317638749999901
                },
                {
                    "name": "B3",
                    "midi": 59,
                    "time": 446.0207168749943,
                    "velocity": 0.2047244094488189,
                    "duration": 0.1317638749999901
                },
                {
                    "name": "F#3",
                    "midi": 54,
                    "time": 446.1524807499943,
                    "velocity": 0.2440944881889764,
                    "duration": 0.1317638749999901
                },
                {
                    "name": "B3",
                    "midi": 59,
                    "time": 446.2842446249943,
                    "velocity": 0.2204724409448819,
                    "duration": 0.1317638749999901
                },
                {
                    "name": "A3",
                    "midi": 57,
                    "time": 446.4160084999943,
                    "velocity": 0.25984251968503935,
                    "duration": 0.1317638749999901
                },
                {
                    "name": "B3",
                    "midi": 59,
                    "time": 446.5477723749943,
                    "velocity": 0.2204724409448819,
                    "duration": 0.1317638749999901
                },
                {
                    "name": "A#3",
                    "midi": 58,
                    "time": 446.67953624999427,
                    "velocity": 0.2755905511811024,
                    "duration": 0.1317638749999901
                },
                {
                    "name": "B3",
                    "midi": 59,
                    "time": 446.81130012499426,
                    "velocity": 0.23622047244094488,
                    "duration": 0.1317638749999901
                },
                {
                    "name": "D#4",
                    "midi": 63,
                    "time": 446.94306399999425,
                    "velocity": 0.33858267716535434,
                    "duration": 0.13176387500004694
                },
                {
                    "name": "E4",
                    "midi": 64,
                    "time": 447.0748278749943,
                    "velocity": 0.2755905511811024,
                    "duration": 0.1317638749999901
                },
                {
                    "name": "B3",
                    "midi": 59,
                    "time": 447.2065917499943,
                    "velocity": 0.30708661417322836,
                    "duration": 0.1317638749999901
                },
                {
                    "name": "E4",
                    "midi": 64,
                    "time": 447.3383556249943,
                    "velocity": 0.25196850393700787,
                    "duration": 0.1317638749999901
                },
                {
                    "name": "G#3",
                    "midi": 56,
                    "time": 447.47011949999427,
                    "velocity": 0.28346456692913385,
                    "duration": 0.1317638749999901
                },
                {
                    "name": "E4",
                    "midi": 64,
                    "time": 447.60188337499426,
                    "velocity": 0.2125984251968504,
                    "duration": 0.1317638749999901
                },
                {
                    "name": "E3",
                    "midi": 52,
                    "time": 447.73364724999425,
                    "velocity": 0.25984251968503935,
                    "duration": 0.1317638749999901
                },
                {
                    "name": "E4",
                    "midi": 64,
                    "time": 447.86541112499424,
                    "velocity": 0.2047244094488189,
                    "duration": 0.1317638749999901
                },
                {
                    "name": "D#4",
                    "midi": 63,
                    "time": 447.99717499999423,
                    "velocity": 0.33070866141732286,
                    "duration": 0.1317638749999901
                },
                {
                    "name": "E4",
                    "midi": 64,
                    "time": 448.1289388749942,
                    "velocity": 0.2677165354330709,
                    "duration": 0.1317638749999901
                },
                {
                    "name": "B3",
                    "midi": 59,
                    "time": 448.2607027499942,
                    "velocity": 0.2992125984251969,
                    "duration": 0.1317638749999901
                },
                {
                    "name": "E4",
                    "midi": 64,
                    "time": 448.3924666249942,
                    "velocity": 0.25196850393700787,
                    "duration": 0.1317638749999901
                },
                {
                    "name": "G#3",
                    "midi": 56,
                    "time": 448.5242304999942,
                    "velocity": 0.2755905511811024,
                    "duration": 0.1317638749999901
                },
                {
                    "name": "E4",
                    "midi": 64,
                    "time": 448.6559943749942,
                    "velocity": 0.2125984251968504,
                    "duration": 0.1317638749999901
                },
                {
                    "name": "E3",
                    "midi": 52,
                    "time": 448.78775824999417,
                    "velocity": 0.25984251968503935,
                    "duration": 0.1317638749999901
                },
                {
                    "name": "E4",
                    "midi": 64,
                    "time": 448.91952212499416,
                    "velocity": 0.2047244094488189,
                    "duration": 0.1317638749999901
                },
                {
                    "name": "D#4",
                    "midi": 63,
                    "time": 449.05128599999415,
                    "velocity": 0.28346456692913385,
                    "duration": 0.13176387500004694
                },
                {
                    "name": "E4",
                    "midi": 64,
                    "time": 449.1830498749942,
                    "velocity": 0.23622047244094488,
                    "duration": 0.1317638749999901
                },
                {
                    "name": "B3",
                    "midi": 59,
                    "time": 449.3148137499942,
                    "velocity": 0.2677165354330709,
                    "duration": 0.1317638749999901
                },
                {
                    "name": "E4",
                    "midi": 64,
                    "time": 449.4465776249942,
                    "velocity": 0.2204724409448819,
                    "duration": 0.1317638749999901
                },
                {
                    "name": "G#3",
                    "midi": 56,
                    "time": 449.57834149999417,
                    "velocity": 0.25196850393700787,
                    "duration": 0.1317638749999901
                },
                {
                    "name": "E4",
                    "midi": 64,
                    "time": 449.71010537499416,
                    "velocity": 0.2125984251968504,
                    "duration": 0.1317638749999901
                },
                {
                    "name": "E3",
                    "midi": 52,
                    "time": 449.84186924999415,
                    "velocity": 0.2440944881889764,
                    "duration": 0.1317638749999901
                },
                {
                    "name": "E4",
                    "midi": 64,
                    "time": 449.97363312499414,
                    "velocity": 0.2047244094488189,
                    "duration": 0.1317638749999901
                },
                {
                    "name": "D#4",
                    "midi": 63,
                    "time": 450.1053969999941,
                    "velocity": 0.25984251968503935,
                    "duration": 0.1317638749999901
                },
                {
                    "name": "E4",
                    "midi": 64,
                    "time": 450.2371608749941,
                    "velocity": 0.2204724409448819,
                    "duration": 0.1317638749999901
                },
                {
                    "name": "B3",
                    "midi": 59,
                    "time": 450.3689247499941,
                    "velocity": 0.25196850393700787,
                    "duration": 0.1317638749999901
                },
                {
                    "name": "E4",
                    "midi": 64,
                    "time": 450.5006886249941,
                    "velocity": 0.2125984251968504,
                    "duration": 0.1317638749999901
                },
                {
                    "name": "G#3",
                    "midi": 56,
                    "time": 450.6324524999941,
                    "velocity": 0.2440944881889764,
                    "duration": 0.1317638749999901
                },
                {
                    "name": "E4",
                    "midi": 64,
                    "time": 450.7642163749941,
                    "velocity": 0.2047244094488189,
                    "duration": 0.1317638749999901
                },
                {
                    "name": "E3",
                    "midi": 52,
                    "time": 450.89598024999407,
                    "velocity": 0.2440944881889764,
                    "duration": 0.1317638749999901
                },
                {
                    "name": "E4",
                    "midi": 64,
                    "time": 451.02774412499406,
                    "velocity": 0.2047244094488189,
                    "duration": 0.1317638749999901
                },
                {
                    "name": "D#4",
                    "midi": 63,
                    "time": 451.15950799999405,
                    "velocity": 0.25984251968503935,
                    "duration": 0.13176387500004694
                },
                {
                    "name": "E4",
                    "midi": 64,
                    "time": 451.2912718749941,
                    "velocity": 0.2204724409448819,
                    "duration": 0.1317638749999901
                },
                {
                    "name": "C4",
                    "midi": 60,
                    "time": 451.4230357499941,
                    "velocity": 0.25196850393700787,
                    "duration": 0.1317638749999901
                },
                {
                    "name": "E4",
                    "midi": 64,
                    "time": 451.5547996249941,
                    "velocity": 0.2125984251968504,
                    "duration": 0.1317638749999901
                },
                {
                    "name": "A3",
                    "midi": 57,
                    "time": 451.68656349999407,
                    "velocity": 0.2440944881889764,
                    "duration": 0.1317638749999901
                },
                {
                    "name": "E4",
                    "midi": 64,
                    "time": 451.81832737499406,
                    "velocity": 0.2047244094488189,
                    "duration": 0.1317638749999901
                },
                {
                    "name": "E3",
                    "midi": 52,
                    "time": 451.95009124999405,
                    "velocity": 0.2440944881889764,
                    "duration": 0.1317638749999901
                },
                {
                    "name": "E4",
                    "midi": 64,
                    "time": 452.08185512499404,
                    "velocity": 0.2047244094488189,
                    "duration": 0.1317638749999901
                },
                {
                    "name": "D#4",
                    "midi": 63,
                    "time": 452.213618999994,
                    "velocity": 0.25984251968503935,
                    "duration": 0.1317638749999901
                },
                {
                    "name": "E4",
                    "midi": 64,
                    "time": 452.345382874994,
                    "velocity": 0.2204724409448819,
                    "duration": 0.1317638749999901
                },
                {
                    "name": "C4",
                    "midi": 60,
                    "time": 452.477146749994,
                    "velocity": 0.25196850393700787,
                    "duration": 0.1317638749999901
                },
                {
                    "name": "E4",
                    "midi": 64,
                    "time": 452.608910624994,
                    "velocity": 0.2125984251968504,
                    "duration": 0.1317638749999901
                },
                {
                    "name": "A3",
                    "midi": 57,
                    "time": 452.740674499994,
                    "velocity": 0.2440944881889764,
                    "duration": 0.1317638749999901
                },
                {
                    "name": "E4",
                    "midi": 64,
                    "time": 452.872438374994,
                    "velocity": 0.2047244094488189,
                    "duration": 0.1317638749999901
                },
                {
                    "name": "E3",
                    "midi": 52,
                    "time": 453.00420224999397,
                    "velocity": 0.2440944881889764,
                    "duration": 0.1317638749999901
                },
                {
                    "name": "E4",
                    "midi": 64,
                    "time": 453.13596612499396,
                    "velocity": 0.2047244094488189,
                    "duration": 0.1317638749999901
                },
                {
                    "name": "D#4",
                    "midi": 63,
                    "time": 453.26772999999395,
                    "velocity": 0.25984251968503935,
                    "duration": 0.1317638749999901
                },
                {
                    "name": "E4",
                    "midi": 64,
                    "time": 453.39949387499394,
                    "velocity": 0.2204724409448819,
                    "duration": 0.1317638749999901
                },
                {
                    "name": "C4",
                    "midi": 60,
                    "time": 453.5312577499939,
                    "velocity": 0.25196850393700787,
                    "duration": 0.1317638749999901
                },
                {
                    "name": "E4",
                    "midi": 64,
                    "time": 453.6630216249939,
                    "velocity": 0.2125984251968504,
                    "duration": 0.1317638749999901
                },
                {
                    "name": "A3",
                    "midi": 57,
                    "time": 453.7947854999939,
                    "velocity": 0.2440944881889764,
                    "duration": 0.1317638749999901
                },
                {
                    "name": "E4",
                    "midi": 64,
                    "time": 453.9265493749939,
                    "velocity": 0.2047244094488189,
                    "duration": 0.1317638749999901
                },
                {
                    "name": "E3",
                    "midi": 52,
                    "time": 454.0583132499939,
                    "velocity": 0.2440944881889764,
                    "duration": 0.1317638749999901
                },
                {
                    "name": "E4",
                    "midi": 64,
                    "time": 454.1900771249939,
                    "velocity": 0.2047244094488189,
                    "duration": 0.1317638749999901
                },
                {
                    "name": "D#4",
                    "midi": 63,
                    "time": 454.32184099999387,
                    "velocity": 0.25984251968503935,
                    "duration": 0.1317638749999901
                },
                {
                    "name": "E4",
                    "midi": 64,
                    "time": 454.45360487499386,
                    "velocity": 0.2204724409448819,
                    "duration": 0.1317638749999901
                },
                {
                    "name": "C4",
                    "midi": 60,
                    "time": 454.58536874999385,
                    "velocity": 0.25196850393700787,
                    "duration": 0.1317638749999901
                },
                {
                    "name": "E4",
                    "midi": 64,
                    "time": 454.71713262499384,
                    "velocity": 0.2125984251968504,
                    "duration": 0.1317638749999901
                },
                {
                    "name": "A3",
                    "midi": 57,
                    "time": 454.8488964999938,
                    "velocity": 0.2440944881889764,
                    "duration": 0.1317638749999901
                },
                {
                    "name": "E4",
                    "midi": 64,
                    "time": 454.9806603749938,
                    "velocity": 0.2047244094488189,
                    "duration": 0.1317638749999901
                },
                {
                    "name": "E3",
                    "midi": 52,
                    "time": 455.1124242499938,
                    "velocity": 0.2440944881889764,
                    "duration": 0.1317638749999901
                },
                {
                    "name": "E4",
                    "midi": 64,
                    "time": 455.2441881249938,
                    "velocity": 0.2047244094488189,
                    "duration": 0.1317638749999901
                },
                {
                    "name": "D#3",
                    "midi": 51,
                    "time": 455.3759519999938,
                    "velocity": 0.2677165354330709,
                    "duration": 0.13176387500004694
                },
                {
                    "name": "E3",
                    "midi": 52,
                    "time": 455.50771587499383,
                    "velocity": 0.2283464566929134,
                    "duration": 0.1317638749999901
                },
                {
                    "name": "B2",
                    "midi": 47,
                    "time": 455.6394797499938,
                    "velocity": 0.25984251968503935,
                    "duration": 0.1317638749999901
                },
                {
                    "name": "E3",
                    "midi": 52,
                    "time": 455.7712436249938,
                    "velocity": 0.2047244094488189,
                    "duration": 0.1317638749999901
                },
                {
                    "name": "G#2",
                    "midi": 44,
                    "time": 455.9030074999938,
                    "velocity": 0.23622047244094488,
                    "duration": 0.1317638749999901
                },
                {
                    "name": "E3",
                    "midi": 52,
                    "time": 456.0347713749938,
                    "velocity": 0.18110236220472442,
                    "duration": 0.1317638749999901
                },
                {
                    "name": "E2",
                    "midi": 40,
                    "time": 456.1665352499938,
                    "velocity": 0.2283464566929134,
                    "duration": 0.1317638749999901
                },
                {
                    "name": "E3",
                    "midi": 52,
                    "time": 456.2982991249938,
                    "velocity": 0.18110236220472442,
                    "duration": 0.1317638749999901
                },
                {
                    "name": "D#3",
                    "midi": 51,
                    "time": 456.43006299999377,
                    "velocity": 0.2677165354330709,
                    "duration": 0.1317638749999901
                },
                {
                    "name": "E3",
                    "midi": 52,
                    "time": 456.56182687499376,
                    "velocity": 0.2283464566929134,
                    "duration": 0.1317638749999901
                },
                {
                    "name": "B2",
                    "midi": 47,
                    "time": 456.69359074999375,
                    "velocity": 0.25984251968503935,
                    "duration": 0.1317638749999901
                },
                {
                    "name": "E3",
                    "midi": 52,
                    "time": 456.82535462499374,
                    "velocity": 0.2047244094488189,
                    "duration": 0.1317638749999901
                },
                {
                    "name": "G#2",
                    "midi": 44,
                    "time": 456.9571184999937,
                    "velocity": 0.23622047244094488,
                    "duration": 0.1317638749999901
                },
                {
                    "name": "E3",
                    "midi": 52,
                    "time": 457.0888823749937,
                    "velocity": 0.18110236220472442,
                    "duration": 0.1317638749999901
                },
                {
                    "name": "E2",
                    "midi": 40,
                    "time": 457.2206462499937,
                    "velocity": 0.2283464566929134,
                    "duration": 0.1317638749999901
                },
                {
                    "name": "E3",
                    "midi": 52,
                    "time": 457.3524101249937,
                    "velocity": 0.18110236220472442,
                    "duration": 0.1317638749999901
                },
                {
                    "name": "D#3",
                    "midi": 51,
                    "time": 457.4841739999937,
                    "velocity": 0.2440944881889764,
                    "duration": 0.13176387500004694
                },
                {
                    "name": "E3",
                    "midi": 52,
                    "time": 457.61593787499373,
                    "velocity": 0.2125984251968504,
                    "duration": 0.1317638749999901
                },
                {
                    "name": "B2",
                    "midi": 47,
                    "time": 457.7477017499937,
                    "velocity": 0.2440944881889764,
                    "duration": 0.1317638749999901
                },
                {
                    "name": "E3",
                    "midi": 52,
                    "time": 457.8794656249937,
                    "velocity": 0.1968503937007874,
                    "duration": 0.1317638749999901
                },
                {
                    "name": "G#2",
                    "midi": 44,
                    "time": 458.0112294999937,
                    "velocity": 0.2283464566929134,
                    "duration": 0.1317638749999901
                },
                {
                    "name": "E3",
                    "midi": 52,
                    "time": 458.1429933749937,
                    "velocity": 0.1732283464566929,
                    "duration": 0.1317638749999901
                },
                {
                    "name": "E2",
                    "midi": 40,
                    "time": 458.2747572499937,
                    "velocity": 0.2204724409448819,
                    "duration": 0.1317638749999901
                },
                {
                    "name": "E3",
                    "midi": 52,
                    "time": 458.4065211249937,
                    "velocity": 0.18110236220472442,
                    "duration": 0.1317638749999901
                },
                {
                    "name": "D#3",
                    "midi": 51,
                    "time": 458.53828499999366,
                    "velocity": 0.2283464566929134,
                    "duration": 0.1317638749999901
                },
                {
                    "name": "E3",
                    "midi": 52,
                    "time": 458.67004887499365,
                    "velocity": 0.1968503937007874,
                    "duration": 0.1317638749999901
                },
                {
                    "name": "B2",
                    "midi": 47,
                    "time": 458.80181274999364,
                    "velocity": 0.2283464566929134,
                    "duration": 0.1317638749999901
                },
                {
                    "name": "E3",
                    "midi": 52,
                    "time": 458.93357662499363,
                    "velocity": 0.1889763779527559,
                    "duration": 0.1317638749999901
                },
                {
                    "name": "G#2",
                    "midi": 44,
                    "time": 459.0653404999936,
                    "velocity": 0.2204724409448819,
                    "duration": 0.1317638749999901
                },
                {
                    "name": "E3",
                    "midi": 52,
                    "time": 459.1971043749936,
                    "velocity": 0.1732283464566929,
                    "duration": 0.1317638749999901
                },
                {
                    "name": "E2",
                    "midi": 40,
                    "time": 459.3288682499936,
                    "velocity": 0.2204724409448819,
                    "duration": 0.1317638749999901
                },
                {
                    "name": "E3",
                    "midi": 52,
                    "time": 459.4606321249936,
                    "velocity": 0.18110236220472442,
                    "duration": 0.1317638749999901
                },
                {
                    "name": "D#3",
                    "midi": 51,
                    "time": 459.5923959999936,
                    "velocity": 0.2283464566929134,
                    "duration": 0.13176387500004694
                },
                {
                    "name": "E3",
                    "midi": 52,
                    "time": 459.72415987499363,
                    "velocity": 0.1968503937007874,
                    "duration": 0.1317638749999901
                },
                {
                    "name": "C3",
                    "midi": 48,
                    "time": 459.8559237499936,
                    "velocity": 0.2283464566929134,
                    "duration": 0.1317638749999901
                },
                {
                    "name": "E3",
                    "midi": 52,
                    "time": 459.9876876249936,
                    "velocity": 0.1889763779527559,
                    "duration": 0.1317638749999901
                },
                {
                    "name": "A2",
                    "midi": 45,
                    "time": 460.1194514999936,
                    "velocity": 0.2204724409448819,
                    "duration": 0.1317638749999901
                },
                {
                    "name": "E3",
                    "midi": 52,
                    "time": 460.2512153749936,
                    "velocity": 0.1732283464566929,
                    "duration": 0.1317638749999901
                },
                {
                    "name": "E2",
                    "midi": 40,
                    "time": 460.3829792499936,
                    "velocity": 0.2204724409448819,
                    "duration": 0.1317638749999901
                },
                {
                    "name": "E3",
                    "midi": 52,
                    "time": 460.5147431249936,
                    "velocity": 0.18110236220472442,
                    "duration": 0.1317638749999901
                },
                {
                    "name": "D#3",
                    "midi": 51,
                    "time": 460.64650699999356,
                    "velocity": 0.2283464566929134,
                    "duration": 0.1317638749999901
                },
                {
                    "name": "E3",
                    "midi": 52,
                    "time": 460.77827087499355,
                    "velocity": 0.1968503937007874,
                    "duration": 0.1317638749999901
                },
                {
                    "name": "C3",
                    "midi": 48,
                    "time": 460.91003474999354,
                    "velocity": 0.2283464566929134,
                    "duration": 0.1317638749999901
                },
                {
                    "name": "E3",
                    "midi": 52,
                    "time": 461.04179862499353,
                    "velocity": 0.1889763779527559,
                    "duration": 0.1317638749999901
                },
                {
                    "name": "A2",
                    "midi": 45,
                    "time": 461.1735624999935,
                    "velocity": 0.2204724409448819,
                    "duration": 0.1317638749999901
                },
                {
                    "name": "E3",
                    "midi": 52,
                    "time": 461.3053263749935,
                    "velocity": 0.1732283464566929,
                    "duration": 0.1317638749999901
                },
                {
                    "name": "E2",
                    "midi": 40,
                    "time": 461.4370902499935,
                    "velocity": 0.2204724409448819,
                    "duration": 0.1317638749999901
                },
                {
                    "name": "E3",
                    "midi": 52,
                    "time": 461.5688541249935,
                    "velocity": 0.18110236220472442,
                    "duration": 0.1317638749999901
                },
                {
                    "name": "D#3",
                    "midi": 51,
                    "time": 461.7006179999935,
                    "velocity": 0.2283464566929134,
                    "duration": 0.13176387500004694
                },
                {
                    "name": "E3",
                    "midi": 52,
                    "time": 461.83238187499353,
                    "velocity": 0.1968503937007874,
                    "duration": 0.1317638749999901
                },
                {
                    "name": "C3",
                    "midi": 48,
                    "time": 461.9641457499935,
                    "velocity": 0.2283464566929134,
                    "duration": 0.1317638749999901
                },
                {
                    "name": "E3",
                    "midi": 52,
                    "time": 462.0959096249935,
                    "velocity": 0.1889763779527559,
                    "duration": 0.1317638749999901
                },
                {
                    "name": "A2",
                    "midi": 45,
                    "time": 462.2276734999935,
                    "velocity": 0.2204724409448819,
                    "duration": 0.1317638749999901
                },
                {
                    "name": "E3",
                    "midi": 52,
                    "time": 462.3594373749935,
                    "velocity": 0.1732283464566929,
                    "duration": 0.1317638749999901
                },
                {
                    "name": "E2",
                    "midi": 40,
                    "time": 462.4912012499935,
                    "velocity": 0.2204724409448819,
                    "duration": 0.1317638749999901
                },
                {
                    "name": "E3",
                    "midi": 52,
                    "time": 462.62296512499347,
                    "velocity": 0.18110236220472442,
                    "duration": 0.1317638749999901
                },
                {
                    "name": "D#3",
                    "midi": 51,
                    "time": 462.75472899999346,
                    "velocity": 0.2283464566929134,
                    "duration": 0.1317638749999901
                },
                {
                    "name": "E3",
                    "midi": 52,
                    "time": 462.88649287499345,
                    "velocity": 0.1968503937007874,
                    "duration": 0.1317638749999901
                },
                {
                    "name": "C3",
                    "midi": 48,
                    "time": 463.01825674999344,
                    "velocity": 0.2283464566929134,
                    "duration": 0.1317638749999901
                },
                {
                    "name": "E3",
                    "midi": 52,
                    "time": 463.15002062499343,
                    "velocity": 0.1889763779527559,
                    "duration": 0.1317638749999901
                },
                {
                    "name": "A2",
                    "midi": 45,
                    "time": 463.2817844999934,
                    "velocity": 0.2204724409448819,
                    "duration": 0.1317638749999901
                },
                {
                    "name": "E3",
                    "midi": 52,
                    "time": 463.4135483749934,
                    "velocity": 0.1732283464566929,
                    "duration": 0.1317638749999901
                },
                {
                    "name": "E2",
                    "midi": 40,
                    "time": 463.5453122499934,
                    "velocity": 0.2204724409448819,
                    "duration": 0.1317638749999901
                },
                {
                    "name": "E3",
                    "midi": 52,
                    "time": 463.6770761249934,
                    "velocity": 0.18110236220472442,
                    "duration": 0.1317638749999901
                },
                {
                    "name": "D#3",
                    "midi": 51,
                    "time": 463.8088399999934,
                    "velocity": 0.2677165354330709,
                    "duration": 0.13176387500004694
                },
                {
                    "name": "E3",
                    "midi": 52,
                    "time": 463.9406038749934,
                    "velocity": 0.2283464566929134,
                    "duration": 0.1317638749999901
                },
                {
                    "name": "B2",
                    "midi": 47,
                    "time": 464.0723677499934,
                    "velocity": 0.25984251968503935,
                    "duration": 0.1317638749999901
                },
                {
                    "name": "E3",
                    "midi": 52,
                    "time": 464.2041316249934,
                    "velocity": 0.2047244094488189,
                    "duration": 0.1317638749999901
                },
                {
                    "name": "G#2",
                    "midi": 44,
                    "time": 464.3358954999934,
                    "velocity": 0.23622047244094488,
                    "duration": 0.1317638749999901
                },
                {
                    "name": "E3",
                    "midi": 52,
                    "time": 464.4676593749934,
                    "velocity": 0.18110236220472442,
                    "duration": 0.1317638749999901
                },
                {
                    "name": "E2",
                    "midi": 40,
                    "time": 464.5994232499934,
                    "velocity": 0.2283464566929134,
                    "duration": 0.1317638749999901
                },
                {
                    "name": "E3",
                    "midi": 52,
                    "time": 464.73118712499337,
                    "velocity": 0.18110236220472442,
                    "duration": 0.1317638749999901
                },
                {
                    "name": "D#3",
                    "midi": 51,
                    "time": 464.86295099999336,
                    "velocity": 0.2677165354330709,
                    "duration": 0.1317638749999901
                },
                {
                    "name": "E3",
                    "midi": 52,
                    "time": 464.99471487499335,
                    "velocity": 0.2283464566929134,
                    "duration": 0.1317638749999901
                },
                {
                    "name": "B2",
                    "midi": 47,
                    "time": 465.12647874999334,
                    "velocity": 0.25984251968503935,
                    "duration": 0.1317638749999901
                },
                {
                    "name": "E3",
                    "midi": 52,
                    "time": 465.25824262499333,
                    "velocity": 0.2047244094488189,
                    "duration": 0.1317638749999901
                },
                {
                    "name": "G#2",
                    "midi": 44,
                    "time": 465.3900064999933,
                    "velocity": 0.23622047244094488,
                    "duration": 0.1317638749999901
                },
                {
                    "name": "E3",
                    "midi": 52,
                    "time": 465.5217703749933,
                    "velocity": 0.18110236220472442,
                    "duration": 0.1317638749999901
                },
                {
                    "name": "E2",
                    "midi": 40,
                    "time": 465.6535342499933,
                    "velocity": 0.2283464566929134,
                    "duration": 0.1317638749999901
                },
                {
                    "name": "E3",
                    "midi": 52,
                    "time": 465.7852981249933,
                    "velocity": 0.18110236220472442,
                    "duration": 0.1317638749999901
                },
                {
                    "name": "D#3",
                    "midi": 51,
                    "time": 465.9170619999933,
                    "velocity": 0.2283464566929134,
                    "duration": 0.13176387500004694
                },
                {
                    "name": "E3",
                    "midi": 52,
                    "time": 466.0488258749933,
                    "velocity": 0.1968503937007874,
                    "duration": 0.1317638749999901
                },
                {
                    "name": "B2",
                    "midi": 47,
                    "time": 466.1805897499933,
                    "velocity": 0.2283464566929134,
                    "duration": 0.1317638749999901
                },
                {
                    "name": "E3",
                    "midi": 52,
                    "time": 466.3123536249933,
                    "velocity": 0.1889763779527559,
                    "duration": 0.1317638749999901
                },
                {
                    "name": "G#2",
                    "midi": 44,
                    "time": 466.4441174999933,
                    "velocity": 0.2204724409448819,
                    "duration": 0.1317638749999901
                },
                {
                    "name": "E3",
                    "midi": 52,
                    "time": 466.5758813749933,
                    "velocity": 0.1732283464566929,
                    "duration": 0.1317638749999901
                },
                {
                    "name": "E2",
                    "midi": 40,
                    "time": 466.7076452499933,
                    "velocity": 0.2204724409448819,
                    "duration": 0.1317638749999901
                },
                {
                    "name": "E3",
                    "midi": 52,
                    "time": 466.83940912499327,
                    "velocity": 0.18110236220472442,
                    "duration": 0.1317638749999901
                },
                {
                    "name": "D#3",
                    "midi": 51,
                    "time": 466.97117299999326,
                    "velocity": 0.2283464566929134,
                    "duration": 0.1317638749999901
                },
                {
                    "name": "E3",
                    "midi": 52,
                    "time": 467.10293687499325,
                    "velocity": 0.1968503937007874,
                    "duration": 0.1317638749999901
                },
                {
                    "name": "B2",
                    "midi": 47,
                    "time": 467.23470074999324,
                    "velocity": 0.2283464566929134,
                    "duration": 0.1317638749999901
                },
                {
                    "name": "E3",
                    "midi": 52,
                    "time": 467.3664646249932,
                    "velocity": 0.1889763779527559,
                    "duration": 0.1317638749999901
                },
                {
                    "name": "G#2",
                    "midi": 44,
                    "time": 467.4982284999932,
                    "velocity": 0.2204724409448819,
                    "duration": 0.1317638749999901
                },
                {
                    "name": "E3",
                    "midi": 52,
                    "time": 467.6299923749932,
                    "velocity": 0.1732283464566929,
                    "duration": 0.1317638749999901
                },
                {
                    "name": "E2",
                    "midi": 40,
                    "time": 467.7617562499932,
                    "velocity": 0.2204724409448819,
                    "duration": 0.1317638749999901
                },
                {
                    "name": "E3",
                    "midi": 52,
                    "time": 467.8935201249932,
                    "velocity": 0.18110236220472442,
                    "duration": 0.1317638749999901
                },
                {
                    "name": "D3",
                    "midi": 50,
                    "time": 468.0252839999932,
                    "velocity": 0.2125984251968504,
                    "duration": 0.13176387500004694
                },
                {
                    "name": "E3",
                    "midi": 52,
                    "time": 468.1570478749932,
                    "velocity": 0.16535433070866143,
                    "duration": 0.1317638749999901
                },
                {
                    "name": "B2",
                    "midi": 47,
                    "time": 468.2888117499932,
                    "velocity": 0.2047244094488189,
                    "duration": 0.1317638749999901
                },
                {
                    "name": "E3",
                    "midi": 52,
                    "time": 468.4205756249932,
                    "velocity": 0.16535433070866143,
                    "duration": 0.1317638749999901
                },
                {
                    "name": "G#2",
                    "midi": 44,
                    "time": 468.5523394999932,
                    "velocity": 0.2047244094488189,
                    "duration": 0.1317638749999901
                },
                {
                    "name": "E3",
                    "midi": 52,
                    "time": 468.6841033749932,
                    "velocity": 0.14960629921259844,
                    "duration": 0.1317638749999901
                },
                {
                    "name": "E2",
                    "midi": 40,
                    "time": 468.8158672499932,
                    "velocity": 0.1968503937007874,
                    "duration": 0.1317638749999901
                },
                {
                    "name": "E3",
                    "midi": 52,
                    "time": 468.94763112499317,
                    "velocity": 0.15748031496062992,
                    "duration": 0.1317638749999901
                },
                {
                    "name": "D3",
                    "midi": 50,
                    "time": 469.07939499999316,
                    "velocity": 0.2047244094488189,
                    "duration": 0.1317638749999901
                },
                {
                    "name": "E3",
                    "midi": 52,
                    "time": 469.21115887499315,
                    "velocity": 0.15748031496062992,
                    "duration": 0.1317638749999901
                },
                {
                    "name": "B2",
                    "midi": 47,
                    "time": 469.34292274999314,
                    "velocity": 0.1968503937007874,
                    "duration": 0.1317638749999901
                },
                {
                    "name": "E3",
                    "midi": 52,
                    "time": 469.4746866249931,
                    "velocity": 0.15748031496062992,
                    "duration": 0.1317638749999901
                },
                {
                    "name": "G#2",
                    "midi": 44,
                    "time": 469.6064504999931,
                    "velocity": 0.1968503937007874,
                    "duration": 0.1317638749999901
                },
                {
                    "name": "E3",
                    "midi": 52,
                    "time": 469.7382143749931,
                    "velocity": 0.14960629921259844,
                    "duration": 0.1317638749999901
                },
                {
                    "name": "E2",
                    "midi": 40,
                    "time": 469.8699782499931,
                    "velocity": 0.1889763779527559,
                    "duration": 0.1317638749999901
                },
                {
                    "name": "E3",
                    "midi": 52,
                    "time": 470.0017421249931,
                    "velocity": 0.14960629921259844,
                    "duration": 0.1317638749999901
                },
                {
                    "name": "D3",
                    "midi": 50,
                    "time": 470.1335059999931,
                    "velocity": 0.1968503937007874,
                    "duration": 0.1317638749999901
                },
                {
                    "name": "E3",
                    "midi": 52,
                    "time": 470.26526987499307,
                    "velocity": 0.15748031496062992,
                    "duration": 0.1317638749999901
                },
                {
                    "name": "B2",
                    "midi": 47,
                    "time": 470.39703374999306,
                    "velocity": 0.1889763779527559,
                    "duration": 0.1317638749999901
                },
                {
                    "name": "E3",
                    "midi": 52,
                    "time": 470.52879762499305,
                    "velocity": 0.15748031496062992,
                    "duration": 0.1317638749999901
                },
                {
                    "name": "G#2",
                    "midi": 44,
                    "time": 470.66056149999304,
                    "velocity": 0.1889763779527559,
                    "duration": 0.1317638749999901
                },
                {
                    "name": "E3",
                    "midi": 52,
                    "time": 470.792325374993,
                    "velocity": 0.14173228346456693,
                    "duration": 0.1317638749999901
                },
                {
                    "name": "E2",
                    "midi": 40,
                    "time": 470.924089249993,
                    "velocity": 0.18110236220472442,
                    "duration": 0.1317638749999901
                },
                {
                    "name": "E3",
                    "midi": 52,
                    "time": 471.055853124993,
                    "velocity": 0.14960629921259844,
                    "duration": 0.1317638749999901
                },
                {
                    "name": "D3",
                    "midi": 50,
                    "time": 471.187616999993,
                    "velocity": 0.1889763779527559,
                    "duration": 0.1317638749999901
                },
                {
                    "name": "E3",
                    "midi": 52,
                    "time": 471.319380874993,
                    "velocity": 0.15748031496062992,
                    "duration": 0.1317638749999901
                },
                {
                    "name": "B2",
                    "midi": 47,
                    "time": 471.451144749993,
                    "velocity": 0.18110236220472442,
                    "duration": 0.1317638749999901
                },
                {
                    "name": "E3",
                    "midi": 52,
                    "time": 471.58290862499297,
                    "velocity": 0.14960629921259844,
                    "duration": 0.1317638749999901
                },
                {
                    "name": "G#2",
                    "midi": 44,
                    "time": 471.71467249999296,
                    "velocity": 0.18110236220472442,
                    "duration": 0.1317638749999901
                },
                {
                    "name": "E3",
                    "midi": 52,
                    "time": 471.84643637499295,
                    "velocity": 0.13385826771653545,
                    "duration": 0.1317638749999901
                },
                {
                    "name": "E2",
                    "midi": 40,
                    "time": 471.97820024999294,
                    "velocity": 0.1732283464566929,
                    "duration": 0.1317638749999901
                },
                {
                    "name": "E3",
                    "midi": 52,
                    "time": 472.1099641249929,
                    "velocity": 0.11023622047244094,
                    "duration": 0.1317638749999901
                }
            ],
            "controlChanges": {
                "7": [
                    {
                        "number": 7,
                        "time": 0,
                        "value": 0.7874015748031497
                    }
                ],
                "10": [
                    {
                        "number": 10,
                        "time": 0,
                        "value": 0.5039370078740157
                    }
                ],
                "64": [
                    {
                        "number": 64,
                        "time": 0.0922347125,
                        "value": 1
                    },
                    {
                        "number": 64,
                        "time": 4.2384046458333335,
                        "value": 0
                    },
                    {
                        "number": 64,
                        "time": 4.52608910625,
                        "value": 1
                    },
                    {
                        "number": 64,
                        "time": 6.346626645833333,
                        "value": 0
                    },
                    {
                        "number": 64,
                        "time": 6.695800914583333,
                        "value": 1
                    },
                    {
                        "number": 64,
                        "time": 8.454848645833334,
                        "value": 0
                    },
                    {
                        "number": 64,
                        "time": 9.135628666666667,
                        "value": 1
                    },
                    {
                        "number": 64,
                        "time": 10.549894258333333,
                        "value": 0
                    },
                    {
                        "number": 64,
                        "time": 11.00887175625,
                        "value": 1
                    },
                    {
                        "number": 64,
                        "time": 12.671292645833335,
                        "value": 0
                    },
                    {
                        "number": 64,
                        "time": 12.781095875000002,
                        "value": 1
                    },
                    {
                        "number": 64,
                        "time": 15.401000922916669,
                        "value": 0
                    },
                    {
                        "number": 64,
                        "time": 16.958010712500005,
                        "value": 1
                    },
                    {
                        "number": 64,
                        "time": 21.104180645833335,
                        "value": 0
                    },
                    {
                        "number": 64,
                        "time": 21.391865106250002,
                        "value": 1
                    },
                    {
                        "number": 64,
                        "time": 23.212402645833336,
                        "value": 0
                    },
                    {
                        "number": 64,
                        "time": 23.561576914583338,
                        "value": 1
                    },
                    {
                        "number": 64,
                        "time": 25.320624645833334,
                        "value": 0
                    },
                    {
                        "number": 64,
                        "time": 26.001404666666666,
                        "value": 1
                    },
                    {
                        "number": 64,
                        "time": 27.415670258333332,
                        "value": 0
                    },
                    {
                        "number": 64,
                        "time": 27.87464775625,
                        "value": 1
                    },
                    {
                        "number": 64,
                        "time": 29.53706864583333,
                        "value": 0
                    },
                    {
                        "number": 64,
                        "time": 29.646871874999995,
                        "value": 1
                    },
                    {
                        "number": 64,
                        "time": 32.26677692291666,
                        "value": 0
                    },
                    {
                        "number": 64,
                        "time": 33.823786712499995,
                        "value": 1
                    },
                    {
                        "number": 64,
                        "time": 37.96995664583333,
                        "value": 0
                    },
                    {
                        "number": 64,
                        "time": 38.25764110624999,
                        "value": 1
                    },
                    {
                        "number": 64,
                        "time": 40.078178645833326,
                        "value": 0
                    },
                    {
                        "number": 64,
                        "time": 40.427352914583324,
                        "value": 1
                    },
                    {
                        "number": 64,
                        "time": 42.186400645833324,
                        "value": 0
                    },
                    {
                        "number": 64,
                        "time": 42.867180666666655,
                        "value": 1
                    },
                    {
                        "number": 64,
                        "time": 44.281446258333325,
                        "value": 0
                    },
                    {
                        "number": 64,
                        "time": 44.74042375624999,
                        "value": 1
                    },
                    {
                        "number": 64,
                        "time": 46.40284464583332,
                        "value": 0
                    },
                    {
                        "number": 64,
                        "time": 46.512647874999985,
                        "value": 1
                    },
                    {
                        "number": 64,
                        "time": 49.13255292291665,
                        "value": 0
                    },
                    {
                        "number": 64,
                        "time": 50.689562712499985,
                        "value": 1
                    },
                    {
                        "number": 64,
                        "time": 54.83573264583332,
                        "value": 0
                    },
                    {
                        "number": 64,
                        "time": 55.12341710624998,
                        "value": 1
                    },
                    {
                        "number": 64,
                        "time": 56.943954645833315,
                        "value": 0
                    },
                    {
                        "number": 64,
                        "time": 57.29312891458331,
                        "value": 1
                    },
                    {
                        "number": 64,
                        "time": 59.03021599999998,
                        "value": 0
                    },
                    {
                        "number": 64,
                        "time": 59.732956666666645,
                        "value": 1
                    },
                    {
                        "number": 64,
                        "time": 61.147222258333315,
                        "value": 0
                    },
                    {
                        "number": 64,
                        "time": 61.60619975624998,
                        "value": 1
                    },
                    {
                        "number": 64,
                        "time": 63.26862064583331,
                        "value": 0
                    },
                    {
                        "number": 64,
                        "time": 63.378423874999974,
                        "value": 1
                    },
                    {
                        "number": 64,
                        "time": 65.99832892291664,
                        "value": 0
                    },
                    {
                        "number": 64,
                        "time": 164.49182548541742,
                        "value": 1
                    },
                    {
                        "number": 64,
                        "time": 165.51958371041744,
                        "value": 0
                    },
                    {
                        "number": 64,
                        "time": 165.63377906875078,
                        "value": 1
                    },
                    {
                        "number": 64,
                        "time": 166.56271438750082,
                        "value": 0
                    },
                    {
                        "number": 64,
                        "time": 166.6000474854175,
                        "value": 1
                    },
                    {
                        "number": 64,
                        "time": 167.61682538750085,
                        "value": 0
                    },
                    {
                        "number": 64,
                        "time": 167.74200106875085,
                        "value": 1
                    },
                    {
                        "number": 64,
                        "time": 168.65776000000088,
                        "value": 0
                    },
                    {
                        "number": 64,
                        "time": 168.7456025833342,
                        "value": 1
                    },
                    {
                        "number": 64,
                        "time": 170.78794264583425,
                        "value": 0
                    },
                    {
                        "number": 64,
                        "time": 170.9284907791676,
                        "value": 1
                    },
                    {
                        "number": 64,
                        "time": 172.89616464583432,
                        "value": 0
                    },
                    {
                        "number": 64,
                        "time": 173.03671277916766,
                        "value": 1
                    },
                    {
                        "number": 64,
                        "time": 175.0043866458344,
                        "value": 0
                    },
                    {
                        "number": 64,
                        "time": 175.14493477916773,
                        "value": 1
                    },
                    {
                        "number": 64,
                        "time": 177.2531567791678,
                        "value": 0
                    },
                    {
                        "number": 64,
                        "time": 179.73910188750114,
                        "value": 1
                    },
                    {
                        "number": 64,
                        "time": 180.5406654604178,
                        "value": 0
                    },
                    {
                        "number": 64,
                        "time": 181.92199008333446,
                        "value": 1
                    },
                    {
                        "number": 64,
                        "time": 182.9519443729178,
                        "value": 0
                    },
                    {
                        "number": 64,
                        "time": 183.02661056875115,
                        "value": 1
                    },
                    {
                        "number": 64,
                        "time": 185.59820219583452,
                        "value": 0
                    },
                    {
                        "number": 64,
                        "time": 186.11427737291785,
                        "value": 1
                    },
                    {
                        "number": 64,
                        "time": 187.1200749520845,
                        "value": 0
                    },
                    {
                        "number": 64,
                        "time": 188.31034195625116,
                        "value": 1
                    },
                    {
                        "number": 64,
                        "time": 189.21292450000115,
                        "value": 0
                    },
                    {
                        "number": 64,
                        "time": 190.37903479375115,
                        "value": 1
                    },
                    {
                        "number": 64,
                        "time": 191.33432288750114,
                        "value": 0
                    },
                    {
                        "number": 64,
                        "time": 192.3379244020845,
                        "value": 1
                    },
                    {
                        "number": 64,
                        "time": 193.44693701666785,
                        "value": 0
                    },
                    {
                        "number": 64,
                        "time": 194.47469524166786,
                        "value": 1
                    },
                    {
                        "number": 64,
                        "time": 195.01931925833452,
                        "value": 0
                    },
                    {
                        "number": 64,
                        "time": 195.58370785625118,
                        "value": 1
                    },
                    {
                        "number": 64,
                        "time": 196.07123419375117,
                        "value": 0
                    },
                    {
                        "number": 64,
                        "time": 196.6466031145845,
                        "value": 1
                    },
                    {
                        "number": 64,
                        "time": 197.1473058395845,
                        "value": 0
                    },
                    {
                        "number": 64,
                        "time": 197.71828263125116,
                        "value": 1
                    },
                    {
                        "number": 64,
                        "time": 198.19263258125116,
                        "value": 0
                    },
                    {
                        "number": 64,
                        "time": 198.7636093729178,
                        "value": 1
                    },
                    {
                        "number": 64,
                        "time": 199.2555278395845,
                        "value": 0
                    },
                    {
                        "number": 64,
                        "time": 199.76281875833448,
                        "value": 1
                    },
                    {
                        "number": 64,
                        "time": 200.32720735625114,
                        "value": 0
                    },
                    {
                        "number": 64,
                        "time": 200.8257140166678,
                        "value": 1
                    },
                    {
                        "number": 64,
                        "time": 201.3857104854178,
                        "value": 0
                    },
                    {
                        "number": 64,
                        "time": 209.34205247083452,
                        "value": 1
                    },
                    {
                        "number": 64,
                        "time": 209.78565751666787,
                        "value": 0
                    },
                    {
                        "number": 64,
                        "time": 219.34732271250127,
                        "value": 1
                    },
                    {
                        "number": 64,
                        "time": 223.49349264583458,
                        "value": 0
                    },
                    {
                        "number": 64,
                        "time": 223.6603935541679,
                        "value": 1
                    },
                    {
                        "number": 64,
                        "time": 225.6017146458346,
                        "value": 0
                    },
                    {
                        "number": 64,
                        "time": 225.71810606875127,
                        "value": 1
                    },
                    {
                        "number": 64,
                        "time": 227.68797600000127,
                        "value": 0
                    },
                    {
                        "number": 64,
                        "time": 227.85048477916794,
                        "value": 1
                    },
                    {
                        "number": 64,
                        "time": 231.9263806458346,
                        "value": 0
                    },
                    {
                        "number": 64,
                        "time": 232.09328155416793,
                        "value": 1
                    },
                    {
                        "number": 64,
                        "time": 236.12086400000126,
                        "value": 0
                    },
                    {
                        "number": 64,
                        "time": 236.29654916666792,
                        "value": 1
                    },
                    {
                        "number": 64,
                        "time": 238.25104664583458,
                        "value": 0
                    },
                    {
                        "number": 64,
                        "time": 238.36743806875126,
                        "value": 1
                    },
                    {
                        "number": 64,
                        "time": 240.3592686458346,
                        "value": 0
                    },
                    {
                        "number": 64,
                        "time": 240.52616955416792,
                        "value": 1
                    },
                    {
                        "number": 64,
                        "time": 242.4674906458346,
                        "value": 0
                    },
                    {
                        "number": 64,
                        "time": 242.58388206875128,
                        "value": 1
                    },
                    {
                        "number": 64,
                        "time": 244.55375200000128,
                        "value": 0
                    },
                    {
                        "number": 64,
                        "time": 244.71626077916795,
                        "value": 1
                    },
                    {
                        "number": 64,
                        "time": 248.7921566458346,
                        "value": 0
                    },
                    {
                        "number": 64,
                        "time": 248.95905755416794,
                        "value": 1
                    },
                    {
                        "number": 64,
                        "time": 252.9866400000013,
                        "value": 0
                    },
                    {
                        "number": 64,
                        "time": 253.15354090833463,
                        "value": 1
                    },
                    {
                        "number": 64,
                        "time": 257.2250446458345,
                        "value": 0
                    },
                    {
                        "number": 64,
                        "time": 257.33924000416783,
                        "value": 1
                    },
                    {
                        "number": 64,
                        "time": 261.41952800000087,
                        "value": 0
                    },
                    {
                        "number": 64,
                        "time": 261.41952800000087,
                        "value": 0
                    },
                    {
                        "number": 64,
                        "time": 261.5864289083342,
                        "value": 1
                    },
                    {
                        "number": 64,
                        "time": 265.66232477500057,
                        "value": 0
                    },
                    {
                        "number": 64,
                        "time": 265.77212800416726,
                        "value": 1
                    },
                    {
                        "number": 64,
                        "time": 269.8524160000003,
                        "value": 0
                    },
                    {
                        "number": 64,
                        "time": 270.0193169083336,
                        "value": 1
                    },
                    {
                        "number": 64,
                        "time": 274.095212775,
                        "value": 0
                    },
                    {
                        "number": 64,
                        "time": 274.2050160041667,
                        "value": 1
                    },
                    {
                        "number": 64,
                        "time": 278.2853039999997,
                        "value": 0
                    },
                    {
                        "number": 64,
                        "time": 278.2853039999997,
                        "value": 0
                    },
                    {
                        "number": 64,
                        "time": 278.45220490833304,
                        "value": 1
                    },
                    {
                        "number": 64,
                        "time": 282.5281007749994,
                        "value": 0
                    },
                    {
                        "number": 64,
                        "time": 282.6379040041661,
                        "value": 1
                    },
                    {
                        "number": 64,
                        "time": 286.71819199999914,
                        "value": 0
                    },
                    {
                        "number": 64,
                        "time": 286.84336768124916,
                        "value": 1
                    },
                    {
                        "number": 64,
                        "time": 290.95659664583224,
                        "value": 0
                    },
                    {
                        "number": 64,
                        "time": 291.18498736249893,
                        "value": 1
                    },
                    {
                        "number": 64,
                        "time": 295.15986425833194,
                        "value": 0
                    },
                    {
                        "number": 64,
                        "time": 295.2740596166653,
                        "value": 1
                    },
                    {
                        "number": 64,
                        "time": 299.38948464583206,
                        "value": 0
                    },
                    {
                        "number": 64,
                        "time": 299.63105174999873,
                        "value": 1
                    },
                    {
                        "number": 64,
                        "time": 303.58396799999883,
                        "value": 0
                    },
                    {
                        "number": 64,
                        "time": 303.81016265208217,
                        "value": 1
                    },
                    {
                        "number": 64,
                        "time": 307.82237264583233,
                        "value": 0
                    },
                    {
                        "number": 64,
                        "time": 308.02880271666567,
                        "value": 1
                    },
                    {
                        "number": 64,
                        "time": 309.93718283958236,
                        "value": 0
                    },
                    {
                        "number": 64,
                        "time": 310.01624116458237,
                        "value": 1
                    },
                    {
                        "number": 64,
                        "time": 312.03881664583247,
                        "value": 0
                    },
                    {
                        "number": 64,
                        "time": 312.1925411666658,
                        "value": 1
                    },
                    {
                        "number": 64,
                        "time": 316.2552606458326,
                        "value": 0
                    },
                    {
                        "number": 64,
                        "time": 316.4968277499993,
                        "value": 1
                    },
                    {
                        "number": 64,
                        "time": 318.35689445208266,
                        "value": 0
                    },
                    {
                        "number": 64,
                        "time": 318.46669768124934,
                        "value": 1
                    },
                    {
                        "number": 64,
                        "time": 319.419789710416,
                        "value": 0
                    },
                    {
                        "number": 64,
                        "time": 319.4615149374994,
                        "value": 1
                    },
                    {
                        "number": 64,
                        "time": 320.4497439999994,
                        "value": 0
                    },
                    {
                        "number": 64,
                        "time": 320.5880960687494,
                        "value": 1
                    },
                    {
                        "number": 64,
                        "time": 324.6881486458325,
                        "value": 0
                    },
                    {
                        "number": 64,
                        "time": 324.80454006874913,
                        "value": 1
                    },
                    {
                        "number": 64,
                        "time": 328.8914162583322,
                        "value": 0
                    },
                    {
                        "number": 64,
                        "time": 329.0209840687489,
                        "value": 1
                    },
                    {
                        "number": 64,
                        "time": 331.0150107104154,
                        "value": 0
                    },
                    {
                        "number": 64,
                        "time": 331.09187297083207,
                        "value": 1
                    },
                    {
                        "number": 64,
                        "time": 333.12103664583196,
                        "value": 0
                    },
                    {
                        "number": 64,
                        "time": 333.22425168124863,
                        "value": 1
                    },
                    {
                        "number": 64,
                        "time": 335.22267045208184,
                        "value": 0
                    },
                    {
                        "number": 64,
                        "time": 335.28196419583185,
                        "value": 1
                    },
                    {
                        "number": 64,
                        "time": 337.33748064583176,
                        "value": 0
                    },
                    {
                        "number": 64,
                        "time": 337.40995077708175,
                        "value": 1
                    },
                    {
                        "number": 64,
                        "time": 341.5539246458315,
                        "value": 0
                    },
                    {
                        "number": 64,
                        "time": 341.6439632937482,
                        "value": 1
                    },
                    {
                        "number": 64,
                        "time": 343.6621466458314,
                        "value": 0
                    },
                    {
                        "number": 64,
                        "time": 343.7280285833314,
                        "value": 1
                    },
                    {
                        "number": 64,
                        "time": 345.7637804520813,
                        "value": 0
                    },
                    {
                        "number": 64,
                        "time": 345.88676006874795,
                        "value": 1
                    },
                    {
                        "number": 64,
                        "time": 347.8785906458312,
                        "value": 0
                    },
                    {
                        "number": 64,
                        "time": 347.9576489708312,
                        "value": 1
                    },
                    {
                        "number": 64,
                        "time": 349.9890087104144,
                        "value": 0
                    },
                    {
                        "number": 64,
                        "time": 350.05269458333106,
                        "value": 1
                    },
                    {
                        "number": 64,
                        "time": 352.0884464520809,
                        "value": 0
                    },
                    {
                        "number": 64,
                        "time": 352.1477401958309,
                        "value": 1
                    },
                    {
                        "number": 64,
                        "time": 354.1505510958309,
                        "value": 0
                    },
                    {
                        "number": 64,
                        "time": 358.44824948541395,
                        "value": 1
                    },
                    {
                        "number": 64,
                        "time": 359.4716155812472,
                        "value": 0
                    },
                    {
                        "number": 64,
                        "time": 359.52651719583054,
                        "value": 1
                    },
                    {
                        "number": 64,
                        "time": 360.5279226458305,
                        "value": 0
                    },
                    {
                        "number": 64,
                        "time": 360.5740400020805,
                        "value": 1
                    },
                    {
                        "number": 64,
                        "time": 361.58203364583045,
                        "value": 0
                    },
                    {
                        "number": 64,
                        "time": 361.6237588729138,
                        "value": 1
                    },
                    {
                        "number": 64,
                        "time": 362.6361446458304,
                        "value": 0
                    },
                    {
                        "number": 64,
                        "time": 362.68226200208045,
                        "value": 1
                    },
                    {
                        "number": 64,
                        "time": 363.68805958124705,
                        "value": 0
                    },
                    {
                        "number": 64,
                        "time": 363.7319808729137,
                        "value": 1
                    },
                    {
                        "number": 64,
                        "time": 364.7443666458303,
                        "value": 0
                    },
                    {
                        "number": 64,
                        "time": 364.79048400208035,
                        "value": 1
                    },
                    {
                        "number": 64,
                        "time": 365.79628158124694,
                        "value": 0
                    },
                    {
                        "number": 64,
                        "time": 365.8402028729136,
                        "value": 1
                    },
                    {
                        "number": 64,
                        "time": 366.85039258124687,
                        "value": 0
                    },
                    {
                        "number": 64,
                        "time": 366.8987060020802,
                        "value": 1
                    },
                    {
                        "number": 64,
                        "time": 367.9045035812468,
                        "value": 0
                    },
                    {
                        "number": 64,
                        "time": 367.94842487291345,
                        "value": 1
                    },
                    {
                        "number": 64,
                        "time": 368.96081064583007,
                        "value": 0
                    },
                    {
                        "number": 64,
                        "time": 369.0069280020801,
                        "value": 1
                    },
                    {
                        "number": 64,
                        "time": 370.0127255812467,
                        "value": 0
                    },
                    {
                        "number": 64,
                        "time": 370.05664687291335,
                        "value": 1
                    },
                    {
                        "number": 64,
                        "time": 371.06903264582996,
                        "value": 0
                    },
                    {
                        "number": 64,
                        "time": 371.11515000208,
                        "value": 1
                    },
                    {
                        "number": 64,
                        "time": 372.1209475812466,
                        "value": 0
                    },
                    {
                        "number": 64,
                        "time": 372.16486887291325,
                        "value": 1
                    },
                    {
                        "number": 64,
                        "time": 373.17725464582986,
                        "value": 0
                    },
                    {
                        "number": 64,
                        "time": 373.2233720020799,
                        "value": 1
                    },
                    {
                        "number": 64,
                        "time": 374.2291695812465,
                        "value": 0
                    },
                    {
                        "number": 64,
                        "time": 374.27309087291314,
                        "value": 1
                    },
                    {
                        "number": 64,
                        "time": 375.28547664582976,
                        "value": 0
                    },
                    {
                        "number": 64,
                        "time": 375.3315940020798,
                        "value": 1
                    },
                    {
                        "number": 64,
                        "time": 376.3373915812464,
                        "value": 0
                    },
                    {
                        "number": 64,
                        "time": 376.38131287291304,
                        "value": 1
                    },
                    {
                        "number": 64,
                        "time": 377.3915025812463,
                        "value": 0
                    },
                    {
                        "number": 64,
                        "time": 377.43542387291296,
                        "value": 1
                    },
                    {
                        "number": 64,
                        "time": 378.4456135812462,
                        "value": 0
                    },
                    {
                        "number": 64,
                        "time": 378.4895348729129,
                        "value": 1
                    },
                    {
                        "number": 64,
                        "time": 379.49972458124614,
                        "value": 0
                    },
                    {
                        "number": 64,
                        "time": 379.54584193749616,
                        "value": 1
                    },
                    {
                        "number": 64,
                        "time": 380.5538355812461,
                        "value": 0
                    },
                    {
                        "number": 64,
                        "time": 380.5977568729128,
                        "value": 1
                    },
                    {
                        "number": 64,
                        "time": 381.6101426458294,
                        "value": 0
                    },
                    {
                        "number": 64,
                        "time": 381.6562600020794,
                        "value": 1
                    },
                    {
                        "number": 64,
                        "time": 383.2066815979129,
                        "value": 0
                    },
                    {
                        "number": 64,
                        "time": 383.7161685812462,
                        "value": 0
                    },
                    {
                        "number": 64,
                        "time": 383.76228593749624,
                        "value": 1
                    },
                    {
                        "number": 64,
                        "time": 384.7702795812462,
                        "value": 0
                    },
                    {
                        "number": 64,
                        "time": 384.81420087291286,
                        "value": 1
                    },
                    {
                        "number": 64,
                        "time": 385.8265866458295,
                        "value": 0
                    },
                    {
                        "number": 64,
                        "time": 385.8727040020795,
                        "value": 1
                    },
                    {
                        "number": 64,
                        "time": 387.423125597913,
                        "value": 0
                    },
                    {
                        "number": 64,
                        "time": 387.93480864582966,
                        "value": 0
                    },
                    {
                        "number": 64,
                        "time": 387.9809260020797,
                        "value": 1
                    },
                    {
                        "number": 64,
                        "time": 389.53134759791317,
                        "value": 0
                    },
                    {
                        "number": 64,
                        "time": 390.04303064582984,
                        "value": 0
                    },
                    {
                        "number": 64,
                        "time": 390.08914800207987,
                        "value": 1
                    },
                    {
                        "number": 64,
                        "time": 391.63956959791335,
                        "value": 0
                    },
                    {
                        "number": 64,
                        "time": 392.15125264583,
                        "value": 0
                    },
                    {
                        "number": 64,
                        "time": 392.19737000208005,
                        "value": 1
                    },
                    {
                        "number": 64,
                        "time": 393.74779159791353,
                        "value": 0
                    },
                    {
                        "number": 64,
                        "time": 394.2594746458302,
                        "value": 0
                    },
                    {
                        "number": 64,
                        "time": 394.30559200208023,
                        "value": 1
                    },
                    {
                        "number": 64,
                        "time": 395.8560135979137,
                        "value": 0
                    },
                    {
                        "number": 64,
                        "time": 396.3611084520804,
                        "value": 1
                    },
                    {
                        "number": 64,
                        "time": 398.4605461937469,
                        "value": 0
                    },
                    {
                        "number": 64,
                        "time": 398.47591864583023,
                        "value": 1
                    },
                    {
                        "number": 64,
                        "time": 400.58414064583013,
                        "value": 0
                    },
                    {
                        "number": 64,
                        "time": 400.6280619374968,
                        "value": 1
                    },
                    {
                        "number": 64,
                        "time": 402.69236264583003,
                        "value": 0
                    },
                    {
                        "number": 64,
                        "time": 402.74506819583,
                        "value": 1
                    },
                    {
                        "number": 64,
                        "time": 404.8027807104132,
                        "value": 0
                    },
                    {
                        "number": 64,
                        "time": 404.84670200207984,
                        "value": 1
                    },
                    {
                        "number": 64,
                        "time": 405.8481074520798,
                        "value": 0
                    },
                    {
                        "number": 64,
                        "time": 405.90081300207976,
                        "value": 1
                    },
                    {
                        "number": 64,
                        "time": 406.8934341937464,
                        "value": 0
                    },
                    {
                        "number": 64,
                        "time": 406.9681003895797,
                        "value": 1
                    },
                    {
                        "number": 64,
                        "time": 409.0170286458296,
                        "value": 0
                    },
                    {
                        "number": 64,
                        "time": 409.0609499374963,
                        "value": 1
                    },
                    {
                        "number": 64,
                        "time": 411.15379948541283,
                        "value": 0
                    },
                    {
                        "number": 64,
                        "time": 411.2043089708295,
                        "value": 1
                    },
                    {
                        "number": 64,
                        "time": 413.2334726458294,
                        "value": 0
                    },
                    {
                        "number": 64,
                        "time": 413.27959000207943,
                        "value": 1
                    },
                    {
                        "number": 64,
                        "time": 415.33949858124595,
                        "value": 0
                    },
                    {
                        "number": 64,
                        "time": 415.38561593749597,
                        "value": 1
                    },
                    {
                        "number": 64,
                        "time": 417.4499166458292,
                        "value": 0
                    },
                    {
                        "number": 64,
                        "time": 417.51579858332923,
                        "value": 1
                    },
                    {
                        "number": 64,
                        "time": 419.5581386458291,
                        "value": 0
                    },
                    {
                        "number": 64,
                        "time": 419.59986387291247,
                        "value": 1
                    },
                    {
                        "number": 64,
                        "time": 421.666360645829,
                        "value": 0
                    },
                    {
                        "number": 64,
                        "time": 421.71028193749567,
                        "value": 1
                    },
                    {
                        "number": 64,
                        "time": 423.7679944520789,
                        "value": 0
                    },
                    {
                        "number": 64,
                        "time": 423.7745826458289,
                        "value": 1
                    },
                    {
                        "number": 64,
                        "time": 425.8828046458288,
                        "value": 0
                    },
                    {
                        "number": 64,
                        "time": 425.92672593749546,
                        "value": 1
                    },
                    {
                        "number": 64,
                        "time": 427.9910266458287,
                        "value": 0
                    },
                    {
                        "number": 64,
                        "time": 428.0437321958287,
                        "value": 1
                    },
                    {
                        "number": 64,
                        "time": 430.10144471041184,
                        "value": 0
                    },
                    {
                        "number": 64,
                        "time": 430.1453660020785,
                        "value": 1
                    },
                    {
                        "number": 64,
                        "time": 431.14677145207844,
                        "value": 0
                    },
                    {
                        "number": 64,
                        "time": 431.1994770020784,
                        "value": 1
                    },
                    {
                        "number": 64,
                        "time": 432.1964903229117,
                        "value": 0
                    },
                    {
                        "number": 64,
                        "time": 432.2667643895784,
                        "value": 1
                    },
                    {
                        "number": 64,
                        "time": 434.3178887104116,
                        "value": 0
                    },
                    {
                        "number": 64,
                        "time": 434.35961393749494,
                        "value": 1
                    },
                    {
                        "number": 64,
                        "time": 436.4239146458282,
                        "value": 0
                    },
                    {
                        "number": 64,
                        "time": 436.46783593749484,
                        "value": 1
                    },
                    {
                        "number": 64,
                        "time": 438.5321366458281,
                        "value": 0
                    },
                    {
                        "number": 64,
                        "time": 438.5782540020781,
                        "value": 1
                    },
                    {
                        "number": 64,
                        "time": 440.6381625812446,
                        "value": 0
                    },
                    {
                        "number": 64,
                        "time": 440.68427993749464,
                        "value": 1
                    },
                    {
                        "number": 64,
                        "time": 442.7485806458279,
                        "value": 0
                    },
                    {
                        "number": 64,
                        "time": 442.8144625833279,
                        "value": 1
                    },
                    {
                        "number": 64,
                        "time": 444.83703806457777,
                        "value": 0
                    },
                    {
                        "number": 64,
                        "time": 444.8985278729111,
                        "value": 1
                    },
                    {
                        "number": 64,
                        "time": 446.9650246458276,
                        "value": 0
                    },
                    {
                        "number": 64,
                        "time": 447.01114200207763,
                        "value": 1
                    },
                    {
                        "number": 64,
                        "time": 449.07105058124415,
                        "value": 0
                    },
                    {
                        "number": 64,
                        "time": 449.1171679374942,
                        "value": 1
                    },
                    {
                        "number": 64,
                        "time": 451.1814686458274,
                        "value": 0
                    },
                    {
                        "number": 64,
                        "time": 451.24735058332743,
                        "value": 1
                    },
                    {
                        "number": 64,
                        "time": 453.2852985166606,
                        "value": 0
                    },
                    {
                        "number": 64,
                        "time": 453.3314158729106,
                        "value": 1
                    },
                    {
                        "number": 64,
                        "time": 455.39791264582715,
                        "value": 0
                    },
                    {
                        "number": 64,
                        "time": 455.44403000207717,
                        "value": 1
                    },
                    {
                        "number": 64,
                        "time": 457.5039385812437,
                        "value": 0
                    },
                    {
                        "number": 64,
                        "time": 457.5500559374937,
                        "value": 1
                    },
                    {
                        "number": 64,
                        "time": 459.61435664582694,
                        "value": 0
                    },
                    {
                        "number": 64,
                        "time": 459.68023858332697,
                        "value": 1
                    },
                    {
                        "number": 64,
                        "time": 461.72257864582684,
                        "value": 0
                    },
                    {
                        "number": 64,
                        "time": 461.7643038729102,
                        "value": 1
                    },
                    {
                        "number": 64,
                        "time": 463.83080064582674,
                        "value": 0
                    },
                    {
                        "number": 64,
                        "time": 463.87691800207676,
                        "value": 1
                    },
                    {
                        "number": 64,
                        "time": 465.9368265812433,
                        "value": 0
                    },
                    {
                        "number": 64,
                        "time": 465.9829439374933,
                        "value": 1
                    },
                    {
                        "number": 64,
                        "time": 468.04724464582654,
                        "value": 0
                    },
                    {
                        "number": 64,
                        "time": 468.11312658332656,
                        "value": 1
                    },
                    {
                        "number": 64,
                        "time": 470.1510745166597,
                        "value": 0
                    },
                    {
                        "number": 64,
                        "time": 470.19719187290974,
                        "value": 1
                    },
                    {
                        "number": 64,
                        "time": 472.2417279999929,
                        "value": 0
                    }
                ]
            },
            "id": 2,
            "name": "Piano left",
            "instrumentNumber": 0,
            "instrument": "acoustic grand piano",
            "instrumentFamily": "piano",
            "channelNumber": 0,
            "isPercussion": false
        },
        {
            "startTime": 0,
            "duration": 0,
            "length": 0,
            "notes": [],
            "controlChanges": {},
            "id": 3,
            "name": "Schubert Wandererfantasie D760  2. Satz"
        },
        {
            "startTime": 0,
            "duration": 0,
            "length": 0,
            "notes": [],
            "controlChanges": {},
            "id": 4,
            "name": "Copyright  2004 by Bernd Krger"
        },
        {
            "startTime": 0,
            "duration": 0,
            "length": 0,
            "notes": [],
            "controlChanges": {},
            "id": 5,
            "name": "http://www.piano-midi.de"
        },
        {
            "startTime": 0,
            "duration": 0,
            "length": 0,
            "notes": [],
            "controlChanges": {},
            "id": 6,
            "name": "Edition:  2014-03-15"
        },
        {
            "startTime": 0,
            "duration": 0,
            "length": 0,
            "notes": [],
            "controlChanges": {},
            "id": 7,
            "name": "Spur 7"
        }
    ]
}