{
    "header": {
        "PPQ": 480,
        "timeSignature": [
            3,
            4
        ],
        "bpm": 200,
        "name": "Impromptu Nr. 2 Es-Dur"
    },
    "startTime": 0,
    "duration": 255.00000000000003,
    "tracks": [
        {
            "startTime": 0,
            "duration": 0,
            "length": 0,
            "notes": [],
            "controlChanges": {},
            "id": 0,
            "name": "Impromptu Nr. 2 Es-Dur"
        },
        {
            "startTime": 0.6,
            "duration": 254.99999999999554,
            "length": 2150,
            "notes": [
                {
                    "name": "A#5",
                    "midi": 82,
                    "time": 0.6,
                    "velocity": 0.3779527559055118,
                    "duration": 0.29999999999999993
                },
                {
                    "name": "G5",
                    "midi": 79,
                    "time": 0.8999999999999999,
                    "velocity": 0.3779527559055118,
                    "duration": 0.09999999999999998
                },
                {
                    "name": "A#5",
                    "midi": 82,
                    "time": 0.9999999999999999,
                    "velocity": 0.3464566929133858,
                    "duration": 0.09999999999999998
                },
                {
                    "name": "G#5",
                    "midi": 80,
                    "time": 1.0999999999999999,
                    "velocity": 0.31496062992125984,
                    "duration": 0.10000000000000009
                },
                {
                    "name": "G5",
                    "midi": 79,
                    "time": 1.2,
                    "velocity": 0.3779527559055118,
                    "duration": 0.10000000000000009
                },
                {
                    "name": "F5",
                    "midi": 77,
                    "time": 1.3,
                    "velocity": 0.3543307086614173,
                    "duration": 0.10000000000000009
                },
                {
                    "name": "D#5",
                    "midi": 75,
                    "time": 1.4000000000000001,
                    "velocity": 0.31496062992125984,
                    "duration": 0.10000000000000009
                },
                {
                    "name": "D5",
                    "midi": 74,
                    "time": 1.5000000000000002,
                    "velocity": 0.3779527559055118,
                    "duration": 0.10000000000000009
                },
                {
                    "name": "C5",
                    "midi": 72,
                    "time": 1.6000000000000003,
                    "velocity": 0.3543307086614173,
                    "duration": 0.10000000000000009
                },
                {
                    "name": "A#4",
                    "midi": 70,
                    "time": 1.7000000000000004,
                    "velocity": 0.33070866141732286,
                    "duration": 0.10000000000000009
                },
                {
                    "name": "G#4",
                    "midi": 68,
                    "time": 1.8000000000000005,
                    "velocity": 0.3779527559055118,
                    "duration": 0.10000000000000009
                },
                {
                    "name": "G4",
                    "midi": 67,
                    "time": 1.9000000000000006,
                    "velocity": 0.3543307086614173,
                    "duration": 0.09999999999999987
                },
                {
                    "name": "F4",
                    "midi": 65,
                    "time": 2.0000000000000004,
                    "velocity": 0.3543307086614173,
                    "duration": 0.10000000000000009
                },
                {
                    "name": "D#4",
                    "midi": 63,
                    "time": 2.1000000000000005,
                    "velocity": 0.3779527559055118,
                    "duration": 0.10000000000000009
                },
                {
                    "name": "D4",
                    "midi": 62,
                    "time": 2.2000000000000006,
                    "velocity": 0.33858267716535434,
                    "duration": 0.10000000000000009
                },
                {
                    "name": "C4",
                    "midi": 60,
                    "time": 2.3000000000000007,
                    "velocity": 0.33858267716535434,
                    "duration": 0.10000000000000009
                },
                {
                    "name": "A#3",
                    "midi": 58,
                    "time": 2.400000000000001,
                    "velocity": 0.3779527559055118,
                    "duration": 0.30000000000000027
                },
                {
                    "name": "C4",
                    "midi": 60,
                    "time": 2.500000000000001,
                    "velocity": 0.3464566929133858,
                    "duration": 0.10000000000000009
                },
                {
                    "name": "D4",
                    "midi": 62,
                    "time": 2.600000000000001,
                    "velocity": 0.3228346456692913,
                    "duration": 0.10000000000000009
                },
                {
                    "name": "D#4",
                    "midi": 63,
                    "time": 2.700000000000001,
                    "velocity": 0.3779527559055118,
                    "duration": 0.10000000000000009
                },
                {
                    "name": "D4",
                    "midi": 62,
                    "time": 2.800000000000001,
                    "velocity": 0.3464566929133858,
                    "duration": 0.10000000000000009
                },
                {
                    "name": "D#4",
                    "midi": 63,
                    "time": 2.9000000000000012,
                    "velocity": 0.3464566929133858,
                    "duration": 0.10000000000000009
                },
                {
                    "name": "E4",
                    "midi": 64,
                    "time": 3.0000000000000013,
                    "velocity": 0.41732283464566927,
                    "duration": 0.10000000000000009
                },
                {
                    "name": "D#4",
                    "midi": 63,
                    "time": 3.1000000000000014,
                    "velocity": 0.3937007874015748,
                    "duration": 0.10000000000000009
                },
                {
                    "name": "E4",
                    "midi": 64,
                    "time": 3.2000000000000015,
                    "velocity": 0.3858267716535433,
                    "duration": 0.10000000000000009
                },
                {
                    "name": "F4",
                    "midi": 65,
                    "time": 3.3000000000000016,
                    "velocity": 0.4330708661417323,
                    "duration": 0.10000000000000009
                },
                {
                    "name": "E4",
                    "midi": 64,
                    "time": 3.4000000000000017,
                    "velocity": 0.3858267716535433,
                    "duration": 0.10000000000000009
                },
                {
                    "name": "F4",
                    "midi": 65,
                    "time": 3.5000000000000018,
                    "velocity": 0.3937007874015748,
                    "duration": 0.10000000000000009
                },
                {
                    "name": "F#4",
                    "midi": 66,
                    "time": 3.600000000000002,
                    "velocity": 0.47244094488188976,
                    "duration": 0.10000000000000009
                },
                {
                    "name": "F4",
                    "midi": 65,
                    "time": 3.700000000000002,
                    "velocity": 0.41732283464566927,
                    "duration": 0.10000000000000009
                },
                {
                    "name": "F#4",
                    "midi": 66,
                    "time": 3.800000000000002,
                    "velocity": 0.41732283464566927,
                    "duration": 0.10000000000000009
                },
                {
                    "name": "G4",
                    "midi": 67,
                    "time": 3.900000000000002,
                    "velocity": 0.4251968503937008,
                    "duration": 0.09999999999999964
                },
                {
                    "name": "F#4",
                    "midi": 66,
                    "time": 4.000000000000002,
                    "velocity": 0.4015748031496063,
                    "duration": 0.09999999999999964
                },
                {
                    "name": "G4",
                    "midi": 67,
                    "time": 4.100000000000001,
                    "velocity": 0.3937007874015748,
                    "duration": 0.09999999999999964
                },
                {
                    "name": "G#4",
                    "midi": 68,
                    "time": 4.200000000000001,
                    "velocity": 0.3779527559055118,
                    "duration": 0.09999999999999964
                },
                {
                    "name": "G4",
                    "midi": 67,
                    "time": 4.300000000000001,
                    "velocity": 0.3543307086614173,
                    "duration": 0.09999999999999964
                },
                {
                    "name": "G#4",
                    "midi": 68,
                    "time": 4.4,
                    "velocity": 0.3779527559055118,
                    "duration": 0.09999999999999964
                },
                {
                    "name": "G4",
                    "midi": 67,
                    "time": 4.5,
                    "velocity": 0.3779527559055118,
                    "duration": 0.09999999999999964
                },
                {
                    "name": "A#4",
                    "midi": 70,
                    "time": 4.6,
                    "velocity": 0.4015748031496063,
                    "duration": 0.09999999999999964
                },
                {
                    "name": "G#4",
                    "midi": 68,
                    "time": 4.699999999999999,
                    "velocity": 0.4015748031496063,
                    "duration": 0.09999999999999964
                },
                {
                    "name": "G4",
                    "midi": 67,
                    "time": 4.799999999999999,
                    "velocity": 0.3937007874015748,
                    "duration": 0.09999999999999964
                },
                {
                    "name": "G#4",
                    "midi": 68,
                    "time": 4.899999999999999,
                    "velocity": 0.3700787401574803,
                    "duration": 0.09999999999999964
                },
                {
                    "name": "A#4",
                    "midi": 70,
                    "time": 4.999999999999998,
                    "velocity": 0.3700787401574803,
                    "duration": 0.09999999999999964
                },
                {
                    "name": "C5",
                    "midi": 72,
                    "time": 5.099999999999998,
                    "velocity": 0.3858267716535433,
                    "duration": 0.09999999999999964
                },
                {
                    "name": "D5",
                    "midi": 74,
                    "time": 5.1999999999999975,
                    "velocity": 0.36220472440944884,
                    "duration": 0.09999999999999964
                },
                {
                    "name": "D#5",
                    "midi": 75,
                    "time": 5.299999999999997,
                    "velocity": 0.36220472440944884,
                    "duration": 0.09999999999999964
                },
                {
                    "name": "F5",
                    "midi": 77,
                    "time": 5.399999999999997,
                    "velocity": 0.3779527559055118,
                    "duration": 0.09999999999999964
                },
                {
                    "name": "C6",
                    "midi": 84,
                    "time": 5.4999999999999964,
                    "velocity": 0.3858267716535433,
                    "duration": 0.09999999999999964
                },
                {
                    "name": "A#5",
                    "midi": 82,
                    "time": 5.599999999999996,
                    "velocity": 0.3858267716535433,
                    "duration": 0.09999999999999964
                },
                {
                    "name": "G#5",
                    "midi": 80,
                    "time": 5.699999999999996,
                    "velocity": 0.3779527559055118,
                    "duration": 0.09999999999999964
                },
                {
                    "name": "G5",
                    "midi": 79,
                    "time": 5.799999999999995,
                    "velocity": 0.3543307086614173,
                    "duration": 0.09999999999999964
                },
                {
                    "name": "F5",
                    "midi": 77,
                    "time": 5.899999999999995,
                    "velocity": 0.33858267716535434,
                    "duration": 0.09999999999999964
                },
                {
                    "name": "D#5",
                    "midi": 75,
                    "time": 5.999999999999995,
                    "velocity": 0.3779527559055118,
                    "duration": 0.09999999999999964
                },
                {
                    "name": "D5",
                    "midi": 74,
                    "time": 6.099999999999994,
                    "velocity": 0.3543307086614173,
                    "duration": 0.09999999999999964
                },
                {
                    "name": "C5",
                    "midi": 72,
                    "time": 6.199999999999994,
                    "velocity": 0.33858267716535434,
                    "duration": 0.09999999999999964
                },
                {
                    "name": "A#4",
                    "midi": 70,
                    "time": 6.299999999999994,
                    "velocity": 0.3700787401574803,
                    "duration": 0.09999999999999964
                },
                {
                    "name": "F5",
                    "midi": 77,
                    "time": 6.399999999999993,
                    "velocity": 0.3779527559055118,
                    "duration": 0.09999999999999964
                },
                {
                    "name": "D#5",
                    "midi": 75,
                    "time": 6.499999999999993,
                    "velocity": 0.3543307086614173,
                    "duration": 0.09999999999999964
                },
                {
                    "name": "D5",
                    "midi": 74,
                    "time": 6.5999999999999925,
                    "velocity": 0.3779527559055118,
                    "duration": 0.09999999999999964
                },
                {
                    "name": "C5",
                    "midi": 72,
                    "time": 6.699999999999992,
                    "velocity": 0.3543307086614173,
                    "duration": 0.09999999999999964
                },
                {
                    "name": "A#4",
                    "midi": 70,
                    "time": 6.799999999999992,
                    "velocity": 0.33858267716535434,
                    "duration": 0.09999999999999964
                },
                {
                    "name": "G#4",
                    "midi": 68,
                    "time": 6.8999999999999915,
                    "velocity": 0.3779527559055118,
                    "duration": 0.09999999999999964
                },
                {
                    "name": "G4",
                    "midi": 67,
                    "time": 6.999999999999991,
                    "velocity": 0.33858267716535434,
                    "duration": 0.09999999999999964
                },
                {
                    "name": "F4",
                    "midi": 65,
                    "time": 7.099999999999991,
                    "velocity": 0.3543307086614173,
                    "duration": 0.09999999999999964
                },
                {
                    "name": "D#4",
                    "midi": 63,
                    "time": 7.19999999999999,
                    "velocity": 0.3779527559055118,
                    "duration": 0.09999999999999964
                },
                {
                    "name": "F4",
                    "midi": 65,
                    "time": 7.29999999999999,
                    "velocity": 0.3543307086614173,
                    "duration": 0.09999999999999964
                },
                {
                    "name": "G4",
                    "midi": 67,
                    "time": 7.39999999999999,
                    "velocity": 0.33858267716535434,
                    "duration": 0.09999999999999964
                },
                {
                    "name": "G#4",
                    "midi": 68,
                    "time": 7.499999999999989,
                    "velocity": 0.4094488188976378,
                    "duration": 0.09999999999999964
                },
                {
                    "name": "A#4",
                    "midi": 70,
                    "time": 7.599999999999989,
                    "velocity": 0.4015748031496063,
                    "duration": 0.09999999999999964
                },
                {
                    "name": "C5",
                    "midi": 72,
                    "time": 7.699999999999989,
                    "velocity": 0.4330708661417323,
                    "duration": 0.09999999999999964
                },
                {
                    "name": "D5",
                    "midi": 74,
                    "time": 7.799999999999988,
                    "velocity": 0.4645669291338583,
                    "duration": 0.09999999999999964
                },
                {
                    "name": "D#5",
                    "midi": 75,
                    "time": 7.899999999999988,
                    "velocity": 0.4330708661417323,
                    "duration": 0.09999999999999964
                },
                {
                    "name": "F5",
                    "midi": 77,
                    "time": 7.999999999999988,
                    "velocity": 0.4566929133858268,
                    "duration": 0.09999999999999964
                },
                {
                    "name": "G5",
                    "midi": 79,
                    "time": 8.099999999999987,
                    "velocity": 0.5118110236220472,
                    "duration": 0.09999999999999964
                },
                {
                    "name": "A#5",
                    "midi": 82,
                    "time": 8.199999999999987,
                    "velocity": 0.48031496062992124,
                    "duration": 0.09999999999999964
                },
                {
                    "name": "G#5",
                    "midi": 80,
                    "time": 8.299999999999986,
                    "velocity": 0.4566929133858268,
                    "duration": 0.09999999999999964
                },
                {
                    "name": "G5",
                    "midi": 79,
                    "time": 8.399999999999986,
                    "velocity": 0.49606299212598426,
                    "duration": 0.09999999999999964
                },
                {
                    "name": "F5",
                    "midi": 77,
                    "time": 8.499999999999986,
                    "velocity": 0.44881889763779526,
                    "duration": 0.09999999999999964
                },
                {
                    "name": "D#5",
                    "midi": 75,
                    "time": 8.599999999999985,
                    "velocity": 0.4251968503937008,
                    "duration": 0.09999999999999964
                },
                {
                    "name": "D5",
                    "midi": 74,
                    "time": 8.699999999999985,
                    "velocity": 0.5039370078740157,
                    "duration": 0.09999999999999964
                },
                {
                    "name": "C5",
                    "midi": 72,
                    "time": 8.799999999999985,
                    "velocity": 0.4645669291338583,
                    "duration": 0.09999999999999964
                },
                {
                    "name": "A#4",
                    "midi": 70,
                    "time": 8.899999999999984,
                    "velocity": 0.4566929133858268,
                    "duration": 0.09999999999999964
                },
                {
                    "name": "G#4",
                    "midi": 68,
                    "time": 8.999999999999984,
                    "velocity": 0.49606299212598426,
                    "duration": 0.09999999999999964
                },
                {
                    "name": "G4",
                    "midi": 67,
                    "time": 9.099999999999984,
                    "velocity": 0.4645669291338583,
                    "duration": 0.09999999999999964
                },
                {
                    "name": "F4",
                    "midi": 65,
                    "time": 9.199999999999983,
                    "velocity": 0.4251968503937008,
                    "duration": 0.09999999999999964
                },
                {
                    "name": "D#4",
                    "midi": 63,
                    "time": 9.299999999999983,
                    "velocity": 0.49606299212598426,
                    "duration": 0.09999999999999964
                },
                {
                    "name": "D4",
                    "midi": 62,
                    "time": 9.399999999999983,
                    "velocity": 0.41732283464566927,
                    "duration": 0.09999999999999964
                },
                {
                    "name": "C4",
                    "midi": 60,
                    "time": 9.499999999999982,
                    "velocity": 0.4015748031496063,
                    "duration": 0.09999999999999964
                },
                {
                    "name": "A#3",
                    "midi": 58,
                    "time": 9.599999999999982,
                    "velocity": 0.49606299212598426,
                    "duration": 0.29999999999999893
                },
                {
                    "name": "C4",
                    "midi": 60,
                    "time": 9.699999999999982,
                    "velocity": 0.4251968503937008,
                    "duration": 0.09999999999999964
                },
                {
                    "name": "D4",
                    "midi": 62,
                    "time": 9.799999999999981,
                    "velocity": 0.4015748031496063,
                    "duration": 0.09999999999999964
                },
                {
                    "name": "D#4",
                    "midi": 63,
                    "time": 9.89999999999998,
                    "velocity": 0.49606299212598426,
                    "duration": 0.09999999999999964
                },
                {
                    "name": "D4",
                    "midi": 62,
                    "time": 9.99999999999998,
                    "velocity": 0.4330708661417323,
                    "duration": 0.09999999999999964
                },
                {
                    "name": "D#4",
                    "midi": 63,
                    "time": 10.09999999999998,
                    "velocity": 0.4015748031496063,
                    "duration": 0.09999999999999964
                },
                {
                    "name": "E4",
                    "midi": 64,
                    "time": 10.19999999999998,
                    "velocity": 0.49606299212598426,
                    "duration": 0.09999999999999964
                },
                {
                    "name": "D#4",
                    "midi": 63,
                    "time": 10.29999999999998,
                    "velocity": 0.4409448818897638,
                    "duration": 0.09999999999999964
                },
                {
                    "name": "E4",
                    "midi": 64,
                    "time": 10.399999999999979,
                    "velocity": 0.4251968503937008,
                    "duration": 0.09999999999999964
                },
                {
                    "name": "F4",
                    "midi": 65,
                    "time": 10.499999999999979,
                    "velocity": 0.49606299212598426,
                    "duration": 0.09999999999999964
                },
                {
                    "name": "E4",
                    "midi": 64,
                    "time": 10.599999999999978,
                    "velocity": 0.4645669291338583,
                    "duration": 0.09999999999999964
                },
                {
                    "name": "F4",
                    "midi": 65,
                    "time": 10.699999999999978,
                    "velocity": 0.4330708661417323,
                    "duration": 0.09999999999999964
                },
                {
                    "name": "F#4",
                    "midi": 66,
                    "time": 10.799999999999978,
                    "velocity": 0.5354330708661418,
                    "duration": 0.09999999999999964
                },
                {
                    "name": "F4",
                    "midi": 65,
                    "time": 10.899999999999977,
                    "velocity": 0.48031496062992124,
                    "duration": 0.09999999999999964
                },
                {
                    "name": "F#4",
                    "midi": 66,
                    "time": 10.999999999999977,
                    "velocity": 0.4645669291338583,
                    "duration": 0.09999999999999964
                },
                {
                    "name": "G4",
                    "midi": 67,
                    "time": 11.099999999999977,
                    "velocity": 0.5039370078740157,
                    "duration": 0.09999999999999964
                },
                {
                    "name": "F#4",
                    "midi": 66,
                    "time": 11.199999999999976,
                    "velocity": 0.48031496062992124,
                    "duration": 0.09999999999999964
                },
                {
                    "name": "G4",
                    "midi": 67,
                    "time": 11.299999999999976,
                    "velocity": 0.4645669291338583,
                    "duration": 0.09999999999999964
                },
                {
                    "name": "G#4",
                    "midi": 68,
                    "time": 11.399999999999975,
                    "velocity": 0.49606299212598426,
                    "duration": 0.09999999999999964
                },
                {
                    "name": "G4",
                    "midi": 67,
                    "time": 11.499999999999975,
                    "velocity": 0.47244094488188976,
                    "duration": 0.09999999999999964
                },
                {
                    "name": "G#4",
                    "midi": 68,
                    "time": 11.599999999999975,
                    "velocity": 0.44881889763779526,
                    "duration": 0.09999999999999964
                },
                {
                    "name": "G4",
                    "midi": 67,
                    "time": 11.699999999999974,
                    "velocity": 0.49606299212598426,
                    "duration": 0.09999999999999964
                },
                {
                    "name": "A#4",
                    "midi": 70,
                    "time": 11.799999999999974,
                    "velocity": 0.47244094488188976,
                    "duration": 0.09999999999999964
                },
                {
                    "name": "G#4",
                    "midi": 68,
                    "time": 11.899999999999974,
                    "velocity": 0.4566929133858268,
                    "duration": 0.09999999999999964
                },
                {
                    "name": "G4",
                    "midi": 67,
                    "time": 11.999999999999973,
                    "velocity": 0.49606299212598426,
                    "duration": 0.09999999999999964
                },
                {
                    "name": "G#4",
                    "midi": 68,
                    "time": 12.099999999999973,
                    "velocity": 0.47244094488188976,
                    "duration": 0.09999999999999964
                },
                {
                    "name": "A#4",
                    "midi": 70,
                    "time": 12.199999999999973,
                    "velocity": 0.47244094488188976,
                    "duration": 0.09999999999999964
                },
                {
                    "name": "C5",
                    "midi": 72,
                    "time": 12.299999999999972,
                    "velocity": 0.49606299212598426,
                    "duration": 0.09999999999999964
                },
                {
                    "name": "D5",
                    "midi": 74,
                    "time": 12.399999999999972,
                    "velocity": 0.4566929133858268,
                    "duration": 0.09999999999999964
                },
                {
                    "name": "D#5",
                    "midi": 75,
                    "time": 12.499999999999972,
                    "velocity": 0.4566929133858268,
                    "duration": 0.09999999999999964
                },
                {
                    "name": "F5",
                    "midi": 77,
                    "time": 12.599999999999971,
                    "velocity": 0.49606299212598426,
                    "duration": 0.09999999999999964
                },
                {
                    "name": "C6",
                    "midi": 84,
                    "time": 12.69999999999997,
                    "velocity": 0.5039370078740157,
                    "duration": 0.09999999999999964
                },
                {
                    "name": "A#5",
                    "midi": 82,
                    "time": 12.79999999999997,
                    "velocity": 0.4566929133858268,
                    "duration": 0.09999999999999964
                },
                {
                    "name": "G#5",
                    "midi": 80,
                    "time": 12.89999999999997,
                    "velocity": 0.5039370078740157,
                    "duration": 0.09999999999999964
                },
                {
                    "name": "G5",
                    "midi": 79,
                    "time": 12.99999999999997,
                    "velocity": 0.48031496062992124,
                    "duration": 0.09999999999999964
                },
                {
                    "name": "F5",
                    "midi": 77,
                    "time": 13.09999999999997,
                    "velocity": 0.44881889763779526,
                    "duration": 0.09999999999999964
                },
                {
                    "name": "D#5",
                    "midi": 75,
                    "time": 13.199999999999969,
                    "velocity": 0.49606299212598426,
                    "duration": 0.09999999999999964
                },
                {
                    "name": "D5",
                    "midi": 74,
                    "time": 13.299999999999969,
                    "velocity": 0.47244094488188976,
                    "duration": 0.09999999999999964
                },
                {
                    "name": "C5",
                    "midi": 72,
                    "time": 13.399999999999968,
                    "velocity": 0.44881889763779526,
                    "duration": 0.09999999999999964
                },
                {
                    "name": "A#4",
                    "midi": 70,
                    "time": 13.499999999999968,
                    "velocity": 0.4881889763779528,
                    "duration": 0.09999999999999964
                },
                {
                    "name": "F5",
                    "midi": 77,
                    "time": 13.599999999999968,
                    "velocity": 0.49606299212598426,
                    "duration": 0.09999999999999964
                },
                {
                    "name": "D#5",
                    "midi": 75,
                    "time": 13.699999999999967,
                    "velocity": 0.4566929133858268,
                    "duration": 0.09999999999999964
                },
                {
                    "name": "D5",
                    "midi": 74,
                    "time": 13.799999999999967,
                    "velocity": 0.49606299212598426,
                    "duration": 0.09999999999999964
                },
                {
                    "name": "D#5",
                    "midi": 75,
                    "time": 13.899999999999967,
                    "velocity": 0.4645669291338583,
                    "duration": 0.09999999999999964
                },
                {
                    "name": "F5",
                    "midi": 77,
                    "time": 13.999999999999966,
                    "velocity": 0.4645669291338583,
                    "duration": 0.09999999999999964
                },
                {
                    "name": "G5",
                    "midi": 79,
                    "time": 14.099999999999966,
                    "velocity": 0.49606299212598426,
                    "duration": 0.09999999999999964
                },
                {
                    "name": "G#5",
                    "midi": 80,
                    "time": 14.199999999999966,
                    "velocity": 0.4645669291338583,
                    "duration": 0.09999999999999964
                },
                {
                    "name": "A#5",
                    "midi": 82,
                    "time": 14.299999999999965,
                    "velocity": 0.4645669291338583,
                    "duration": 0.09999999999999964
                },
                {
                    "name": "D#5",
                    "midi": 75,
                    "time": 14.399999999999965,
                    "velocity": 0.49606299212598426,
                    "duration": 0.09999999999999964
                },
                {
                    "name": "F5",
                    "midi": 77,
                    "time": 14.499999999999964,
                    "velocity": 0.4645669291338583,
                    "duration": 0.09999999999999964
                },
                {
                    "name": "G5",
                    "midi": 79,
                    "time": 14.599999999999964,
                    "velocity": 0.4645669291338583,
                    "duration": 0.09999999999999964
                },
                {
                    "name": "G#5",
                    "midi": 80,
                    "time": 14.699999999999964,
                    "velocity": 0.49606299212598426,
                    "duration": 0.09999999999999964
                },
                {
                    "name": "A#5",
                    "midi": 82,
                    "time": 14.799999999999963,
                    "velocity": 0.4566929133858268,
                    "duration": 0.09999999999999964
                },
                {
                    "name": "C6",
                    "midi": 84,
                    "time": 14.899999999999963,
                    "velocity": 0.4566929133858268,
                    "duration": 0.09999999999999964
                },
                {
                    "name": "D6",
                    "midi": 86,
                    "time": 14.999999999999963,
                    "velocity": 0.49606299212598426,
                    "duration": 0.09999999999999964
                },
                {
                    "name": "D#6",
                    "midi": 87,
                    "time": 15.099999999999962,
                    "velocity": 0.4566929133858268,
                    "duration": 0.09999999999999964
                },
                {
                    "name": "F6",
                    "midi": 89,
                    "time": 15.199999999999962,
                    "velocity": 0.4566929133858268,
                    "duration": 0.09999999999999964
                },
                {
                    "name": "G6",
                    "midi": 91,
                    "time": 15.299999999999962,
                    "velocity": 0.5275590551181102,
                    "duration": 0.09999999999999964
                },
                {
                    "name": "A#6",
                    "midi": 94,
                    "time": 15.399999999999961,
                    "velocity": 0.49606299212598426,
                    "duration": 0.09999999999999964
                },
                {
                    "name": "G#6",
                    "midi": 92,
                    "time": 15.499999999999961,
                    "velocity": 0.48031496062992124,
                    "duration": 0.09999999999999964
                },
                {
                    "name": "G6",
                    "midi": 91,
                    "time": 15.59999999999996,
                    "velocity": 0.5275590551181102,
                    "duration": 0.09999999999999964
                },
                {
                    "name": "F6",
                    "midi": 89,
                    "time": 15.69999999999996,
                    "velocity": 0.49606299212598426,
                    "duration": 0.09999999999999964
                },
                {
                    "name": "D#6",
                    "midi": 87,
                    "time": 15.79999999999996,
                    "velocity": 0.4645669291338583,
                    "duration": 0.09999999999999964
                },
                {
                    "name": "D6",
                    "midi": 86,
                    "time": 15.89999999999996,
                    "velocity": 0.5039370078740157,
                    "duration": 0.09999999999999964
                },
                {
                    "name": "C6",
                    "midi": 84,
                    "time": 15.99999999999996,
                    "velocity": 0.4645669291338583,
                    "duration": 0.09999999999999964
                },
                {
                    "name": "A#5",
                    "midi": 82,
                    "time": 16.09999999999996,
                    "velocity": 0.4409448818897638,
                    "duration": 0.10000000000000142
                },
                {
                    "name": "G#5",
                    "midi": 80,
                    "time": 16.19999999999996,
                    "velocity": 0.49606299212598426,
                    "duration": 0.10000000000000142
                },
                {
                    "name": "G5",
                    "midi": 79,
                    "time": 16.29999999999996,
                    "velocity": 0.4645669291338583,
                    "duration": 0.10000000000000142
                },
                {
                    "name": "F5",
                    "midi": 77,
                    "time": 16.399999999999963,
                    "velocity": 0.44881889763779526,
                    "duration": 0.10000000000000142
                },
                {
                    "name": "D#5",
                    "midi": 75,
                    "time": 16.499999999999964,
                    "velocity": 0.49606299212598426,
                    "duration": 0.10000000000000142
                },
                {
                    "name": "D5",
                    "midi": 74,
                    "time": 16.599999999999966,
                    "velocity": 0.4645669291338583,
                    "duration": 0.10000000000000142
                },
                {
                    "name": "C5",
                    "midi": 72,
                    "time": 16.699999999999967,
                    "velocity": 0.4409448818897638,
                    "duration": 0.10000000000000142
                },
                {
                    "name": "A#4",
                    "midi": 70,
                    "time": 16.79999999999997,
                    "velocity": 0.49606299212598426,
                    "duration": 0.10000000000000142
                },
                {
                    "name": "C5",
                    "midi": 72,
                    "time": 16.89999999999997,
                    "velocity": 0.4645669291338583,
                    "duration": 0.10000000000000142
                },
                {
                    "name": "D5",
                    "midi": 74,
                    "time": 16.99999999999997,
                    "velocity": 0.4645669291338583,
                    "duration": 0.10000000000000142
                },
                {
                    "name": "D#5",
                    "midi": 75,
                    "time": 17.099999999999973,
                    "velocity": 0.5196850393700787,
                    "duration": 0.10000000000000142
                },
                {
                    "name": "D5",
                    "midi": 74,
                    "time": 17.199999999999974,
                    "velocity": 0.48031496062992124,
                    "duration": 0.10000000000000142
                },
                {
                    "name": "D#5",
                    "midi": 75,
                    "time": 17.299999999999976,
                    "velocity": 0.48031496062992124,
                    "duration": 0.10000000000000142
                },
                {
                    "name": "E5",
                    "midi": 76,
                    "time": 17.399999999999977,
                    "velocity": 0.5196850393700787,
                    "duration": 0.10000000000000142
                },
                {
                    "name": "D#5",
                    "midi": 75,
                    "time": 17.49999999999998,
                    "velocity": 0.49606299212598426,
                    "duration": 0.10000000000000142
                },
                {
                    "name": "E5",
                    "midi": 76,
                    "time": 17.59999999999998,
                    "velocity": 0.48031496062992124,
                    "duration": 0.10000000000000142
                },
                {
                    "name": "F5",
                    "midi": 77,
                    "time": 17.69999999999998,
                    "velocity": 0.5511811023622047,
                    "duration": 0.10000000000000142
                },
                {
                    "name": "E5",
                    "midi": 76,
                    "time": 17.799999999999983,
                    "velocity": 0.5196850393700787,
                    "duration": 0.10000000000000142
                },
                {
                    "name": "F5",
                    "midi": 77,
                    "time": 17.899999999999984,
                    "velocity": 0.49606299212598426,
                    "duration": 0.10000000000000142
                },
                {
                    "name": "F#5",
                    "midi": 78,
                    "time": 17.999999999999986,
                    "velocity": 0.5669291338582677,
                    "duration": 0.10000000000000142
                },
                {
                    "name": "F5",
                    "midi": 77,
                    "time": 18.099999999999987,
                    "velocity": 0.5275590551181102,
                    "duration": 0.10000000000000142
                },
                {
                    "name": "F#5",
                    "midi": 78,
                    "time": 18.19999999999999,
                    "velocity": 0.5118110236220472,
                    "duration": 0.10000000000000142
                },
                {
                    "name": "G5",
                    "midi": 79,
                    "time": 18.29999999999999,
                    "velocity": 0.5511811023622047,
                    "duration": 0.10000000000000142
                },
                {
                    "name": "F#5",
                    "midi": 78,
                    "time": 18.39999999999999,
                    "velocity": 0.5118110236220472,
                    "duration": 0.10000000000000142
                },
                {
                    "name": "G5",
                    "midi": 79,
                    "time": 18.499999999999993,
                    "velocity": 0.49606299212598426,
                    "duration": 0.10000000000000142
                },
                {
                    "name": "G#5",
                    "midi": 80,
                    "time": 18.599999999999994,
                    "velocity": 0.5039370078740157,
                    "duration": 0.10000000000000142
                },
                {
                    "name": "G5",
                    "midi": 79,
                    "time": 18.699999999999996,
                    "velocity": 0.48031496062992124,
                    "duration": 0.10000000000000142
                },
                {
                    "name": "G#5",
                    "midi": 80,
                    "time": 18.799999999999997,
                    "velocity": 0.48031496062992124,
                    "duration": 0.10000000000000142
                },
                {
                    "name": "G5",
                    "midi": 79,
                    "time": 18.9,
                    "velocity": 0.49606299212598426,
                    "duration": 0.10000000000000142
                },
                {
                    "name": "A#5",
                    "midi": 82,
                    "time": 19,
                    "velocity": 0.4645669291338583,
                    "duration": 0.10000000000000142
                },
                {
                    "name": "G#5",
                    "midi": 80,
                    "time": 19.1,
                    "velocity": 0.4645669291338583,
                    "duration": 0.10000000000000142
                },
                {
                    "name": "G5",
                    "midi": 79,
                    "time": 19.200000000000003,
                    "velocity": 0.49606299212598426,
                    "duration": 0.10000000000000142
                },
                {
                    "name": "G#5",
                    "midi": 80,
                    "time": 19.300000000000004,
                    "velocity": 0.4645669291338583,
                    "duration": 0.10000000000000142
                },
                {
                    "name": "A#5",
                    "midi": 82,
                    "time": 19.400000000000006,
                    "velocity": 0.4645669291338583,
                    "duration": 0.10000000000000142
                },
                {
                    "name": "C6",
                    "midi": 84,
                    "time": 19.500000000000007,
                    "velocity": 0.49606299212598426,
                    "duration": 0.10000000000000142
                },
                {
                    "name": "D6",
                    "midi": 86,
                    "time": 19.60000000000001,
                    "velocity": 0.47244094488188976,
                    "duration": 0.10000000000000142
                },
                {
                    "name": "D#6",
                    "midi": 87,
                    "time": 19.70000000000001,
                    "velocity": 0.47244094488188976,
                    "duration": 0.10000000000000142
                },
                {
                    "name": "F6",
                    "midi": 89,
                    "time": 19.80000000000001,
                    "velocity": 0.5039370078740157,
                    "duration": 0.10000000000000142
                },
                {
                    "name": "C7",
                    "midi": 96,
                    "time": 19.900000000000013,
                    "velocity": 0.4881889763779528,
                    "duration": 0.10000000000000142
                },
                {
                    "name": "A#6",
                    "midi": 94,
                    "time": 20.000000000000014,
                    "velocity": 0.4645669291338583,
                    "duration": 0.10000000000000142
                },
                {
                    "name": "G#6",
                    "midi": 92,
                    "time": 20.100000000000016,
                    "velocity": 0.4881889763779528,
                    "duration": 0.10000000000000142
                },
                {
                    "name": "G6",
                    "midi": 91,
                    "time": 20.200000000000017,
                    "velocity": 0.4409448818897638,
                    "duration": 0.10000000000000142
                },
                {
                    "name": "F6",
                    "midi": 89,
                    "time": 20.30000000000002,
                    "velocity": 0.4409448818897638,
                    "duration": 0.10000000000000142
                },
                {
                    "name": "D#6",
                    "midi": 87,
                    "time": 20.40000000000002,
                    "velocity": 0.4645669291338583,
                    "duration": 0.10000000000000142
                },
                {
                    "name": "D6",
                    "midi": 86,
                    "time": 20.50000000000002,
                    "velocity": 0.4566929133858268,
                    "duration": 0.10000000000000142
                },
                {
                    "name": "C6",
                    "midi": 84,
                    "time": 20.600000000000023,
                    "velocity": 0.41732283464566927,
                    "duration": 0.10000000000000142
                },
                {
                    "name": "A#5",
                    "midi": 82,
                    "time": 20.700000000000024,
                    "velocity": 0.41732283464566927,
                    "duration": 0.10000000000000142
                },
                {
                    "name": "F6",
                    "midi": 89,
                    "time": 20.800000000000026,
                    "velocity": 0.4330708661417323,
                    "duration": 0.10000000000000142
                },
                {
                    "name": "D#6",
                    "midi": 87,
                    "time": 20.900000000000027,
                    "velocity": 0.4015748031496063,
                    "duration": 0.10000000000000142
                },
                {
                    "name": "D6",
                    "midi": 86,
                    "time": 21.00000000000003,
                    "velocity": 0.4251968503937008,
                    "duration": 0.10000000000000142
                },
                {
                    "name": "C6",
                    "midi": 84,
                    "time": 21.10000000000003,
                    "velocity": 0.41732283464566927,
                    "duration": 0.10000000000000142
                },
                {
                    "name": "A#5",
                    "midi": 82,
                    "time": 21.20000000000003,
                    "velocity": 0.3779527559055118,
                    "duration": 0.10000000000000142
                },
                {
                    "name": "G#5",
                    "midi": 80,
                    "time": 21.300000000000033,
                    "velocity": 0.4015748031496063,
                    "duration": 0.10000000000000142
                },
                {
                    "name": "G5",
                    "midi": 79,
                    "time": 21.400000000000034,
                    "velocity": 0.3937007874015748,
                    "duration": 0.10000000000000142
                },
                {
                    "name": "F5",
                    "midi": 77,
                    "time": 21.500000000000036,
                    "velocity": 0.3858267716535433,
                    "duration": 0.10000000000000142
                },
                {
                    "name": "D#5",
                    "midi": 75,
                    "time": 21.600000000000037,
                    "velocity": 0.3779527559055118,
                    "duration": 0.10000000000000142
                },
                {
                    "name": "G5",
                    "midi": 79,
                    "time": 21.70000000000004,
                    "velocity": 0.3700787401574803,
                    "duration": 0.10000000000000142
                },
                {
                    "name": "F5",
                    "midi": 77,
                    "time": 21.80000000000004,
                    "velocity": 0.36220472440944884,
                    "duration": 0.10000000000000142
                },
                {
                    "name": "D#5",
                    "midi": 75,
                    "time": 21.90000000000004,
                    "velocity": 0.3543307086614173,
                    "duration": 0.10000000000000142
                },
                {
                    "name": "D5",
                    "midi": 74,
                    "time": 22.000000000000043,
                    "velocity": 0.3543307086614173,
                    "duration": 0.10000000000000142
                },
                {
                    "name": "C5",
                    "midi": 72,
                    "time": 22.100000000000044,
                    "velocity": 0.3464566929133858,
                    "duration": 0.10000000000000142
                },
                {
                    "name": "A#4",
                    "midi": 70,
                    "time": 22.200000000000045,
                    "velocity": 0.33858267716535434,
                    "duration": 0.10000000000000142
                },
                {
                    "name": "G#4",
                    "midi": 68,
                    "time": 22.300000000000047,
                    "velocity": 0.33070866141732286,
                    "duration": 0.10000000000000142
                },
                {
                    "name": "F4",
                    "midi": 65,
                    "time": 22.40000000000005,
                    "velocity": 0.3228346456692913,
                    "duration": 0.10000000000000142
                },
                {
                    "name": "F#4",
                    "midi": 66,
                    "time": 22.50000000000005,
                    "velocity": 0.31496062992125984,
                    "duration": 0.10000000000000142
                },
                {
                    "name": "A#4",
                    "midi": 70,
                    "time": 22.60000000000005,
                    "velocity": 0.2992125984251969,
                    "duration": 0.10000000000000142
                },
                {
                    "name": "G#4",
                    "midi": 68,
                    "time": 22.700000000000053,
                    "velocity": 0.30708661417322836,
                    "duration": 0.10000000000000142
                },
                {
                    "name": "F#4",
                    "midi": 66,
                    "time": 22.800000000000054,
                    "velocity": 0.3228346456692913,
                    "duration": 0.10000000000000142
                },
                {
                    "name": "F4",
                    "midi": 65,
                    "time": 22.900000000000055,
                    "velocity": 0.29133858267716534,
                    "duration": 0.10000000000000142
                },
                {
                    "name": "D#4",
                    "midi": 63,
                    "time": 23.000000000000057,
                    "velocity": 0.25196850393700787,
                    "duration": 0.10000000000000142
                },
                {
                    "name": "C#4",
                    "midi": 61,
                    "time": 23.10000000000006,
                    "velocity": 0.3228346456692913,
                    "duration": 0.10000000000000142
                },
                {
                    "name": "B3",
                    "midi": 59,
                    "time": 23.20000000000006,
                    "velocity": 0.29133858267716534,
                    "duration": 0.10000000000000142
                },
                {
                    "name": "A#3",
                    "midi": 58,
                    "time": 23.30000000000006,
                    "velocity": 0.25196850393700787,
                    "duration": 0.10000000000000142
                },
                {
                    "name": "B3",
                    "midi": 59,
                    "time": 23.400000000000063,
                    "velocity": 0.3228346456692913,
                    "duration": 0.10000000000000142
                },
                {
                    "name": "D#4",
                    "midi": 63,
                    "time": 23.500000000000064,
                    "velocity": 0.30708661417322836,
                    "duration": 0.10000000000000142
                },
                {
                    "name": "G#4",
                    "midi": 68,
                    "time": 23.600000000000065,
                    "velocity": 0.30708661417322836,
                    "duration": 0.10000000000000142
                },
                {
                    "name": "B4",
                    "midi": 71,
                    "time": 23.700000000000067,
                    "velocity": 0.3464566929133858,
                    "duration": 0.6000000000000085
                },
                {
                    "name": "D#4",
                    "midi": 63,
                    "time": 23.800000000000068,
                    "velocity": 0.29133858267716534,
                    "duration": 0.10000000000000142
                },
                {
                    "name": "G#4",
                    "midi": 68,
                    "time": 23.90000000000007,
                    "velocity": 0.23622047244094488,
                    "duration": 0.10000000000000142
                },
                {
                    "name": "F#4",
                    "midi": 66,
                    "time": 24.00000000000007,
                    "velocity": 0.29133858267716534,
                    "duration": 0.10000000000000142
                },
                {
                    "name": "D#4",
                    "midi": 63,
                    "time": 24.100000000000072,
                    "velocity": 0.2755905511811024,
                    "duration": 0.10000000000000142
                },
                {
                    "name": "F#4",
                    "midi": 66,
                    "time": 24.200000000000074,
                    "velocity": 0.25196850393700787,
                    "duration": 0.10000000000000142
                },
                {
                    "name": "F4",
                    "midi": 65,
                    "time": 24.300000000000075,
                    "velocity": 0.3228346456692913,
                    "duration": 0.10000000000000142
                },
                {
                    "name": "B4",
                    "midi": 71,
                    "time": 24.400000000000077,
                    "velocity": 0.29133858267716534,
                    "duration": 0.10000000000000142
                },
                {
                    "name": "A#4",
                    "midi": 70,
                    "time": 24.500000000000078,
                    "velocity": 0.25196850393700787,
                    "duration": 0.10000000000000142
                },
                {
                    "name": "G#4",
                    "midi": 68,
                    "time": 24.60000000000008,
                    "velocity": 0.3228346456692913,
                    "duration": 0.10000000000000142
                },
                {
                    "name": "F#4",
                    "midi": 66,
                    "time": 24.70000000000008,
                    "velocity": 0.29133858267716534,
                    "duration": 0.10000000000000142
                },
                {
                    "name": "F4",
                    "midi": 65,
                    "time": 24.800000000000082,
                    "velocity": 0.2440944881889764,
                    "duration": 0.10000000000000142
                },
                {
                    "name": "D#4",
                    "midi": 63,
                    "time": 24.900000000000084,
                    "velocity": 0.28346456692913385,
                    "duration": 0.10000000000000142
                },
                {
                    "name": "C#4",
                    "midi": 61,
                    "time": 25.000000000000085,
                    "velocity": 0.28346456692913385,
                    "duration": 0.10000000000000142
                },
                {
                    "name": "B3",
                    "midi": 59,
                    "time": 25.100000000000087,
                    "velocity": 0.2440944881889764,
                    "duration": 0.10000000000000142
                },
                {
                    "name": "A#3",
                    "midi": 58,
                    "time": 25.200000000000088,
                    "velocity": 0.3228346456692913,
                    "duration": 0.10000000000000142
                },
                {
                    "name": "C#4",
                    "midi": 61,
                    "time": 25.30000000000009,
                    "velocity": 0.2992125984251969,
                    "duration": 0.10000000000000142
                },
                {
                    "name": "F#4",
                    "midi": 66,
                    "time": 25.40000000000009,
                    "velocity": 0.23622047244094488,
                    "duration": 0.10000000000000142
                },
                {
                    "name": "A#4",
                    "midi": 70,
                    "time": 25.500000000000092,
                    "velocity": 0.3464566929133858,
                    "duration": 0.6000000000000085
                },
                {
                    "name": "C#4",
                    "midi": 61,
                    "time": 25.600000000000094,
                    "velocity": 0.2992125984251969,
                    "duration": 0.10000000000000142
                },
                {
                    "name": "F#4",
                    "midi": 66,
                    "time": 25.700000000000095,
                    "velocity": 0.25196850393700787,
                    "duration": 0.10000000000000142
                },
                {
                    "name": "F4",
                    "midi": 65,
                    "time": 25.800000000000097,
                    "velocity": 0.28346456692913385,
                    "duration": 0.10000000000000142
                },
                {
                    "name": "C#4",
                    "midi": 61,
                    "time": 25.900000000000098,
                    "velocity": 0.2677165354330709,
                    "duration": 0.10000000000000142
                },
                {
                    "name": "F4",
                    "midi": 65,
                    "time": 26.0000000000001,
                    "velocity": 0.2440944881889764,
                    "duration": 0.10000000000000142
                },
                {
                    "name": "D#4",
                    "midi": 63,
                    "time": 26.1000000000001,
                    "velocity": 0.31496062992125984,
                    "duration": 0.10000000000000142
                },
                {
                    "name": "A#4",
                    "midi": 70,
                    "time": 26.200000000000102,
                    "velocity": 0.3228346456692913,
                    "duration": 0.10000000000000142
                },
                {
                    "name": "G#4",
                    "midi": 68,
                    "time": 26.300000000000104,
                    "velocity": 0.29133858267716534,
                    "duration": 0.10000000000000142
                },
                {
                    "name": "F#4",
                    "midi": 66,
                    "time": 26.400000000000105,
                    "velocity": 0.3228346456692913,
                    "duration": 0.10000000000000142
                },
                {
                    "name": "F4",
                    "midi": 65,
                    "time": 26.500000000000107,
                    "velocity": 0.29133858267716534,
                    "duration": 0.10000000000000142
                },
                {
                    "name": "D#4",
                    "midi": 63,
                    "time": 26.600000000000108,
                    "velocity": 0.2440944881889764,
                    "duration": 0.10000000000000142
                },
                {
                    "name": "C#4",
                    "midi": 61,
                    "time": 26.70000000000011,
                    "velocity": 0.29133858267716534,
                    "duration": 0.10000000000000142
                },
                {
                    "name": "B3",
                    "midi": 59,
                    "time": 26.80000000000011,
                    "velocity": 0.2677165354330709,
                    "duration": 0.10000000000000142
                },
                {
                    "name": "A#3",
                    "midi": 58,
                    "time": 26.900000000000112,
                    "velocity": 0.2440944881889764,
                    "duration": 0.10000000000000142
                },
                {
                    "name": "G#3",
                    "midi": 56,
                    "time": 27.000000000000114,
                    "velocity": 0.3228346456692913,
                    "duration": 0.10000000000000142
                },
                {
                    "name": "B3",
                    "midi": 59,
                    "time": 27.100000000000115,
                    "velocity": 0.29133858267716534,
                    "duration": 0.10000000000000142
                },
                {
                    "name": "F4",
                    "midi": 65,
                    "time": 27.200000000000117,
                    "velocity": 0.29133858267716534,
                    "duration": 0.10000000000000142
                },
                {
                    "name": "G#4",
                    "midi": 68,
                    "time": 27.300000000000118,
                    "velocity": 0.3464566929133858,
                    "duration": 0.6000000000000085
                },
                {
                    "name": "B3",
                    "midi": 59,
                    "time": 27.40000000000012,
                    "velocity": 0.30708661417322836,
                    "duration": 0.10000000000000142
                },
                {
                    "name": "F4",
                    "midi": 65,
                    "time": 27.50000000000012,
                    "velocity": 0.25984251968503935,
                    "duration": 0.10000000000000142
                },
                {
                    "name": "D#4",
                    "midi": 63,
                    "time": 27.600000000000122,
                    "velocity": 0.29133858267716534,
                    "duration": 0.10000000000000142
                },
                {
                    "name": "B3",
                    "midi": 59,
                    "time": 27.700000000000124,
                    "velocity": 0.25984251968503935,
                    "duration": 0.10000000000000142
                },
                {
                    "name": "D#4",
                    "midi": 63,
                    "time": 27.800000000000125,
                    "velocity": 0.2677165354330709,
                    "duration": 0.10000000000000142
                },
                {
                    "name": "D4",
                    "midi": 62,
                    "time": 27.900000000000126,
                    "velocity": 0.3228346456692913,
                    "duration": 0.10000000000000142
                },
                {
                    "name": "G#4",
                    "midi": 68,
                    "time": 28.000000000000128,
                    "velocity": 0.29133858267716534,
                    "duration": 0.10000000000000142
                },
                {
                    "name": "F#4",
                    "midi": 66,
                    "time": 28.10000000000013,
                    "velocity": 0.29133858267716534,
                    "duration": 0.10000000000000142
                },
                {
                    "name": "F4",
                    "midi": 65,
                    "time": 28.20000000000013,
                    "velocity": 0.3228346456692913,
                    "duration": 0.10000000000000142
                },
                {
                    "name": "D#4",
                    "midi": 63,
                    "time": 28.300000000000132,
                    "velocity": 0.2992125984251969,
                    "duration": 0.10000000000000142
                },
                {
                    "name": "D4",
                    "midi": 62,
                    "time": 28.400000000000134,
                    "velocity": 0.25984251968503935,
                    "duration": 0.10000000000000142
                },
                {
                    "name": "B3",
                    "midi": 59,
                    "time": 28.500000000000135,
                    "velocity": 0.29133858267716534,
                    "duration": 0.10000000000000142
                },
                {
                    "name": "A#3",
                    "midi": 58,
                    "time": 28.600000000000136,
                    "velocity": 0.2755905511811024,
                    "duration": 0.10000000000000142
                },
                {
                    "name": "G#3",
                    "midi": 56,
                    "time": 28.700000000000138,
                    "velocity": 0.2755905511811024,
                    "duration": 0.10000000000000142
                },
                {
                    "name": "F#3",
                    "midi": 54,
                    "time": 28.80000000000014,
                    "velocity": 0.3228346456692913,
                    "duration": 0.10000000000000142
                },
                {
                    "name": "A#3",
                    "midi": 58,
                    "time": 28.90000000000014,
                    "velocity": 0.29133858267716534,
                    "duration": 0.10000000000000142
                },
                {
                    "name": "D#4",
                    "midi": 63,
                    "time": 29.000000000000142,
                    "velocity": 0.30708661417322836,
                    "duration": 0.10000000000000142
                },
                {
                    "name": "F#4",
                    "midi": 66,
                    "time": 29.100000000000144,
                    "velocity": 0.3464566929133858,
                    "duration": 0.6000000000000085
                },
                {
                    "name": "A#3",
                    "midi": 58,
                    "time": 29.200000000000145,
                    "velocity": 0.2755905511811024,
                    "duration": 0.10000000000000142
                },
                {
                    "name": "D#4",
                    "midi": 63,
                    "time": 29.300000000000146,
                    "velocity": 0.2755905511811024,
                    "duration": 0.10000000000000142
                },
                {
                    "name": "C#4",
                    "midi": 61,
                    "time": 29.400000000000148,
                    "velocity": 0.31496062992125984,
                    "duration": 0.10000000000000142
                },
                {
                    "name": "A#3",
                    "midi": 58,
                    "time": 29.50000000000015,
                    "velocity": 0.2755905511811024,
                    "duration": 0.10000000000000142
                },
                {
                    "name": "C#4",
                    "midi": 61,
                    "time": 29.60000000000015,
                    "velocity": 0.2755905511811024,
                    "duration": 0.10000000000000142
                },
                {
                    "name": "B3",
                    "midi": 59,
                    "time": 29.700000000000152,
                    "velocity": 0.3228346456692913,
                    "duration": 0.10000000000000142
                },
                {
                    "name": "D#4",
                    "midi": 63,
                    "time": 29.800000000000153,
                    "velocity": 0.2992125984251969,
                    "duration": 0.10000000000000142
                },
                {
                    "name": "G#4",
                    "midi": 68,
                    "time": 29.900000000000155,
                    "velocity": 0.2992125984251969,
                    "duration": 0.10000000000000142
                },
                {
                    "name": "B4",
                    "midi": 71,
                    "time": 30.000000000000156,
                    "velocity": 0.3464566929133858,
                    "duration": 0.6000000000000085
                },
                {
                    "name": "D#4",
                    "midi": 63,
                    "time": 30.100000000000158,
                    "velocity": 0.29133858267716534,
                    "duration": 0.10000000000000142
                },
                {
                    "name": "G#4",
                    "midi": 68,
                    "time": 30.20000000000016,
                    "velocity": 0.29133858267716534,
                    "duration": 0.10000000000000142
                },
                {
                    "name": "F#4",
                    "midi": 66,
                    "time": 30.30000000000016,
                    "velocity": 0.30708661417322836,
                    "duration": 0.10000000000000142
                },
                {
                    "name": "D#4",
                    "midi": 63,
                    "time": 30.400000000000162,
                    "velocity": 0.28346456692913385,
                    "duration": 0.10000000000000142
                },
                {
                    "name": "F#4",
                    "midi": 66,
                    "time": 30.500000000000163,
                    "velocity": 0.28346456692913385,
                    "duration": 0.10000000000000142
                },
                {
                    "name": "B4",
                    "midi": 71,
                    "time": 30.600000000000165,
                    "velocity": 0.3779527559055118,
                    "duration": 0.30000000000000426
                },
                {
                    "name": "F4",
                    "midi": 65,
                    "time": 30.700000000000166,
                    "velocity": 0.3228346456692913,
                    "duration": 0.10000000000000142
                },
                {
                    "name": "D4",
                    "midi": 62,
                    "time": 30.800000000000168,
                    "velocity": 0.3228346456692913,
                    "duration": 0.10000000000000142
                },
                {
                    "name": "A#4",
                    "midi": 70,
                    "time": 30.90000000000017,
                    "velocity": 0.3700787401574803,
                    "duration": 0.30000000000000426
                },
                {
                    "name": "F4",
                    "midi": 65,
                    "time": 31.00000000000017,
                    "velocity": 0.3228346456692913,
                    "duration": 0.10000000000000142
                },
                {
                    "name": "D4",
                    "midi": 62,
                    "time": 31.100000000000172,
                    "velocity": 0.3228346456692913,
                    "duration": 0.10000000000000142
                },
                {
                    "name": "D5",
                    "midi": 74,
                    "time": 31.200000000000173,
                    "velocity": 0.3700787401574803,
                    "duration": 0.30000000000000426
                },
                {
                    "name": "G#4",
                    "midi": 68,
                    "time": 31.300000000000175,
                    "velocity": 0.3228346456692913,
                    "duration": 0.10000000000000142
                },
                {
                    "name": "F4",
                    "midi": 65,
                    "time": 31.400000000000176,
                    "velocity": 0.3228346456692913,
                    "duration": 0.10000000000000142
                },
                {
                    "name": "D#5",
                    "midi": 75,
                    "time": 31.500000000000178,
                    "velocity": 0.3700787401574803,
                    "duration": 0.10000000000000142
                },
                {
                    "name": "F#5",
                    "midi": 78,
                    "time": 31.60000000000018,
                    "velocity": 0.30708661417322836,
                    "duration": 0.10000000000000142
                },
                {
                    "name": "F5",
                    "midi": 77,
                    "time": 31.70000000000018,
                    "velocity": 0.30708661417322836,
                    "duration": 0.10000000000000142
                },
                {
                    "name": "D#5",
                    "midi": 75,
                    "time": 31.800000000000182,
                    "velocity": 0.33070866141732286,
                    "duration": 0.10000000000000142
                },
                {
                    "name": "C#5",
                    "midi": 73,
                    "time": 31.900000000000183,
                    "velocity": 0.28346456692913385,
                    "duration": 0.10000000000000142
                },
                {
                    "name": "B4",
                    "midi": 71,
                    "time": 32.000000000000185,
                    "velocity": 0.28346456692913385,
                    "duration": 0.10000000000000142
                },
                {
                    "name": "A#4",
                    "midi": 70,
                    "time": 32.100000000000186,
                    "velocity": 0.33858267716535434,
                    "duration": 0.10000000000000142
                },
                {
                    "name": "G#4",
                    "midi": 68,
                    "time": 32.20000000000019,
                    "velocity": 0.29133858267716534,
                    "duration": 0.10000000000000142
                },
                {
                    "name": "F4",
                    "midi": 65,
                    "time": 32.30000000000019,
                    "velocity": 0.28346456692913385,
                    "duration": 0.10000000000000142
                },
                {
                    "name": "F#4",
                    "midi": 66,
                    "time": 32.40000000000019,
                    "velocity": 0.30708661417322836,
                    "duration": 0.10000000000000142
                },
                {
                    "name": "A#4",
                    "midi": 70,
                    "time": 32.50000000000019,
                    "velocity": 0.30708661417322836,
                    "duration": 0.10000000000000142
                },
                {
                    "name": "G#4",
                    "midi": 68,
                    "time": 32.60000000000019,
                    "velocity": 0.28346456692913385,
                    "duration": 0.10000000000000142
                },
                {
                    "name": "F#4",
                    "midi": 66,
                    "time": 32.700000000000195,
                    "velocity": 0.30708661417322836,
                    "duration": 0.10000000000000142
                },
                {
                    "name": "F4",
                    "midi": 65,
                    "time": 32.800000000000196,
                    "velocity": 0.28346456692913385,
                    "duration": 0.10000000000000142
                },
                {
                    "name": "D#4",
                    "midi": 63,
                    "time": 32.9000000000002,
                    "velocity": 0.28346456692913385,
                    "duration": 0.10000000000000142
                },
                {
                    "name": "C#4",
                    "midi": 61,
                    "time": 33.0000000000002,
                    "velocity": 0.30708661417322836,
                    "duration": 0.10000000000000142
                },
                {
                    "name": "B3",
                    "midi": 59,
                    "time": 33.1000000000002,
                    "velocity": 0.28346456692913385,
                    "duration": 0.10000000000000142
                },
                {
                    "name": "A#3",
                    "midi": 58,
                    "time": 33.2000000000002,
                    "velocity": 0.28346456692913385,
                    "duration": 0.10000000000000142
                },
                {
                    "name": "B3",
                    "midi": 59,
                    "time": 33.3000000000002,
                    "velocity": 0.31496062992125984,
                    "duration": 0.10000000000000142
                },
                {
                    "name": "D4",
                    "midi": 62,
                    "time": 33.400000000000205,
                    "velocity": 0.31496062992125984,
                    "duration": 0.10000000000000142
                },
                {
                    "name": "F4",
                    "midi": 65,
                    "time": 33.500000000000206,
                    "velocity": 0.29133858267716534,
                    "duration": 0.10000000000000142
                },
                {
                    "name": "B4",
                    "midi": 71,
                    "time": 33.60000000000021,
                    "velocity": 0.3464566929133858,
                    "duration": 0.6000000000000085
                },
                {
                    "name": "F4",
                    "midi": 65,
                    "time": 33.70000000000021,
                    "velocity": 0.31496062992125984,
                    "duration": 0.10000000000000142
                },
                {
                    "name": "D4",
                    "midi": 62,
                    "time": 33.80000000000021,
                    "velocity": 0.29133858267716534,
                    "duration": 0.10000000000000142
                },
                {
                    "name": "F4",
                    "midi": 65,
                    "time": 33.90000000000021,
                    "velocity": 0.31496062992125984,
                    "duration": 0.10000000000000142
                },
                {
                    "name": "C#4",
                    "midi": 61,
                    "time": 34.00000000000021,
                    "velocity": 0.29133858267716534,
                    "duration": 0.10000000000000142
                },
                {
                    "name": "B3",
                    "midi": 59,
                    "time": 34.100000000000215,
                    "velocity": 0.29133858267716534,
                    "duration": 0.10000000000000142
                },
                {
                    "name": "A#3",
                    "midi": 58,
                    "time": 34.200000000000216,
                    "velocity": 0.31496062992125984,
                    "duration": 0.10000000000000142
                },
                {
                    "name": "A#4",
                    "midi": 70,
                    "time": 34.30000000000022,
                    "velocity": 0.31496062992125984,
                    "duration": 0.10000000000000142
                },
                {
                    "name": "G#4",
                    "midi": 68,
                    "time": 34.40000000000022,
                    "velocity": 0.28346456692913385,
                    "duration": 0.10000000000000142
                },
                {
                    "name": "F#4",
                    "midi": 66,
                    "time": 34.50000000000022,
                    "velocity": 0.31496062992125984,
                    "duration": 0.10000000000000142
                },
                {
                    "name": "F4",
                    "midi": 65,
                    "time": 34.60000000000022,
                    "velocity": 0.31496062992125984,
                    "duration": 0.10000000000000142
                },
                {
                    "name": "D#4",
                    "midi": 63,
                    "time": 34.70000000000022,
                    "velocity": 0.2992125984251969,
                    "duration": 0.10000000000000142
                },
                {
                    "name": "C#4",
                    "midi": 61,
                    "time": 34.800000000000225,
                    "velocity": 0.31496062992125984,
                    "duration": 0.10000000000000142
                },
                {
                    "name": "B3",
                    "midi": 59,
                    "time": 34.900000000000226,
                    "velocity": 0.29133858267716534,
                    "duration": 0.10000000000000142
                },
                {
                    "name": "A#3",
                    "midi": 58,
                    "time": 35.00000000000023,
                    "velocity": 0.2755905511811024,
                    "duration": 0.10000000000000142
                },
                {
                    "name": "B3",
                    "midi": 59,
                    "time": 35.10000000000023,
                    "velocity": 0.30708661417322836,
                    "duration": 0.10000000000000142
                },
                {
                    "name": "D4",
                    "midi": 62,
                    "time": 35.20000000000023,
                    "velocity": 0.2755905511811024,
                    "duration": 0.10000000000000142
                },
                {
                    "name": "F4",
                    "midi": 65,
                    "time": 35.30000000000023,
                    "velocity": 0.28346456692913385,
                    "duration": 0.10000000000000142
                },
                {
                    "name": "B4",
                    "midi": 71,
                    "time": 35.40000000000023,
                    "velocity": 0.3543307086614173,
                    "duration": 0.6000000000000085
                },
                {
                    "name": "F4",
                    "midi": 65,
                    "time": 35.500000000000234,
                    "velocity": 0.29133858267716534,
                    "duration": 0.10000000000000142
                },
                {
                    "name": "D4",
                    "midi": 62,
                    "time": 35.600000000000236,
                    "velocity": 0.29133858267716534,
                    "duration": 0.10000000000000142
                },
                {
                    "name": "F4",
                    "midi": 65,
                    "time": 35.70000000000024,
                    "velocity": 0.31496062992125984,
                    "duration": 0.10000000000000142
                },
                {
                    "name": "C#4",
                    "midi": 61,
                    "time": 35.80000000000024,
                    "velocity": 0.31496062992125984,
                    "duration": 0.10000000000000142
                },
                {
                    "name": "B3",
                    "midi": 59,
                    "time": 35.90000000000024,
                    "velocity": 0.28346456692913385,
                    "duration": 0.10000000000000142
                },
                {
                    "name": "C#4",
                    "midi": 61,
                    "time": 36.00000000000024,
                    "velocity": 0.31496062992125984,
                    "duration": 0.10000000000000142
                },
                {
                    "name": "F#4",
                    "midi": 66,
                    "time": 36.10000000000024,
                    "velocity": 0.29133858267716534,
                    "duration": 0.10000000000000142
                },
                {
                    "name": "A#4",
                    "midi": 70,
                    "time": 36.200000000000244,
                    "velocity": 0.29133858267716534,
                    "duration": 0.10000000000000142
                },
                {
                    "name": "C#5",
                    "midi": 73,
                    "time": 36.300000000000246,
                    "velocity": 0.3543307086614173,
                    "duration": 0.6000000000000085
                },
                {
                    "name": "A#4",
                    "midi": 70,
                    "time": 36.40000000000025,
                    "velocity": 0.31496062992125984,
                    "duration": 0.10000000000000142
                },
                {
                    "name": "F#4",
                    "midi": 66,
                    "time": 36.50000000000025,
                    "velocity": 0.28346456692913385,
                    "duration": 0.10000000000000142
                },
                {
                    "name": "F4",
                    "midi": 65,
                    "time": 36.60000000000025,
                    "velocity": 0.30708661417322836,
                    "duration": 0.10000000000000142
                },
                {
                    "name": "F#4",
                    "midi": 66,
                    "time": 36.70000000000025,
                    "velocity": 0.29133858267716534,
                    "duration": 0.10000000000000142
                },
                {
                    "name": "E4",
                    "midi": 64,
                    "time": 36.80000000000025,
                    "velocity": 0.2992125984251969,
                    "duration": 0.10000000000000142
                },
                {
                    "name": "D#4",
                    "midi": 63,
                    "time": 36.900000000000254,
                    "velocity": 0.30708661417322836,
                    "duration": 0.10000000000000142
                },
                {
                    "name": "G#4",
                    "midi": 68,
                    "time": 37.000000000000256,
                    "velocity": 0.30708661417322836,
                    "duration": 0.10000000000000142
                },
                {
                    "name": "B4",
                    "midi": 71,
                    "time": 37.10000000000026,
                    "velocity": 0.30708661417322836,
                    "duration": 0.10000000000000142
                },
                {
                    "name": "D#5",
                    "midi": 75,
                    "time": 37.20000000000026,
                    "velocity": 0.36220472440944884,
                    "duration": 0.6000000000000085
                },
                {
                    "name": "B4",
                    "midi": 71,
                    "time": 37.30000000000026,
                    "velocity": 0.2992125984251969,
                    "duration": 0.10000000000000142
                },
                {
                    "name": "G#4",
                    "midi": 68,
                    "time": 37.40000000000026,
                    "velocity": 0.2992125984251969,
                    "duration": 0.10000000000000142
                },
                {
                    "name": "G4",
                    "midi": 67,
                    "time": 37.50000000000026,
                    "velocity": 0.31496062992125984,
                    "duration": 0.10000000000000142
                },
                {
                    "name": "G#4",
                    "midi": 68,
                    "time": 37.600000000000264,
                    "velocity": 0.30708661417322836,
                    "duration": 0.10000000000000142
                },
                {
                    "name": "F#4",
                    "midi": 66,
                    "time": 37.700000000000266,
                    "velocity": 0.30708661417322836,
                    "duration": 0.10000000000000142
                },
                {
                    "name": "F4",
                    "midi": 65,
                    "time": 37.80000000000027,
                    "velocity": 0.31496062992125984,
                    "duration": 0.10000000000000142
                },
                {
                    "name": "F#4",
                    "midi": 66,
                    "time": 37.90000000000027,
                    "velocity": 0.31496062992125984,
                    "duration": 0.10000000000000142
                },
                {
                    "name": "G4",
                    "midi": 67,
                    "time": 38.00000000000027,
                    "velocity": 0.2992125984251969,
                    "duration": 0.10000000000000142
                },
                {
                    "name": "G#4",
                    "midi": 68,
                    "time": 38.10000000000027,
                    "velocity": 0.31496062992125984,
                    "duration": 0.10000000000000142
                },
                {
                    "name": "A#4",
                    "midi": 70,
                    "time": 38.20000000000027,
                    "velocity": 0.31496062992125984,
                    "duration": 0.10000000000000142
                },
                {
                    "name": "B4",
                    "midi": 71,
                    "time": 38.300000000000274,
                    "velocity": 0.30708661417322836,
                    "duration": 0.10000000000000142
                },
                {
                    "name": "C#5",
                    "midi": 73,
                    "time": 38.400000000000276,
                    "velocity": 0.31496062992125984,
                    "duration": 0.10000000000000142
                },
                {
                    "name": "D#5",
                    "midi": 75,
                    "time": 38.50000000000028,
                    "velocity": 0.31496062992125984,
                    "duration": 0.10000000000000142
                },
                {
                    "name": "F5",
                    "midi": 77,
                    "time": 38.60000000000028,
                    "velocity": 0.30708661417322836,
                    "duration": 0.10000000000000142
                },
                {
                    "name": "F#5",
                    "midi": 78,
                    "time": 38.70000000000028,
                    "velocity": 0.30708661417322836,
                    "duration": 0.10000000000000142
                },
                {
                    "name": "A#5",
                    "midi": 82,
                    "time": 38.80000000000028,
                    "velocity": 0.3543307086614173,
                    "duration": 0.10000000000000142
                },
                {
                    "name": "G#5",
                    "midi": 80,
                    "time": 38.90000000000028,
                    "velocity": 0.33070866141732286,
                    "duration": 0.10000000000000142
                },
                {
                    "name": "F#5",
                    "midi": 78,
                    "time": 39.000000000000284,
                    "velocity": 0.3228346456692913,
                    "duration": 0.10000000000000142
                },
                {
                    "name": "F5",
                    "midi": 77,
                    "time": 39.100000000000286,
                    "velocity": 0.3228346456692913,
                    "duration": 0.10000000000000142
                },
                {
                    "name": "D#5",
                    "midi": 75,
                    "time": 39.20000000000029,
                    "velocity": 0.31496062992125984,
                    "duration": 0.10000000000000142
                },
                {
                    "name": "C#5",
                    "midi": 73,
                    "time": 39.30000000000029,
                    "velocity": 0.31496062992125984,
                    "duration": 0.10000000000000142
                },
                {
                    "name": "B4",
                    "midi": 71,
                    "time": 39.40000000000029,
                    "velocity": 0.31496062992125984,
                    "duration": 0.10000000000000142
                },
                {
                    "name": "A#4",
                    "midi": 70,
                    "time": 39.50000000000029,
                    "velocity": 0.30708661417322836,
                    "duration": 0.10000000000000142
                },
                {
                    "name": "G#4",
                    "midi": 68,
                    "time": 39.60000000000029,
                    "velocity": 0.31496062992125984,
                    "duration": 0.10000000000000142
                },
                {
                    "name": "B4",
                    "midi": 71,
                    "time": 39.700000000000294,
                    "velocity": 0.2992125984251969,
                    "duration": 0.10000000000000142
                },
                {
                    "name": "A#4",
                    "midi": 70,
                    "time": 39.800000000000296,
                    "velocity": 0.2992125984251969,
                    "duration": 0.10000000000000142
                },
                {
                    "name": "G#4",
                    "midi": 68,
                    "time": 39.9000000000003,
                    "velocity": 0.2992125984251969,
                    "duration": 0.10000000000000142
                },
                {
                    "name": "F#4",
                    "midi": 66,
                    "time": 40.0000000000003,
                    "velocity": 0.29133858267716534,
                    "duration": 0.10000000000000142
                },
                {
                    "name": "F4",
                    "midi": 65,
                    "time": 40.1000000000003,
                    "velocity": 0.2755905511811024,
                    "duration": 0.10000000000000142
                },
                {
                    "name": "D#4",
                    "midi": 63,
                    "time": 40.2000000000003,
                    "velocity": 0.31496062992125984,
                    "duration": 0.10000000000000142
                },
                {
                    "name": "D4",
                    "midi": 62,
                    "time": 40.3000000000003,
                    "velocity": 0.25984251968503935,
                    "duration": 0.10000000000000142
                },
                {
                    "name": "F4",
                    "midi": 65,
                    "time": 40.400000000000304,
                    "velocity": 0.25984251968503935,
                    "duration": 0.10000000000000142
                },
                {
                    "name": "G#4",
                    "midi": 68,
                    "time": 40.500000000000306,
                    "velocity": 0.25984251968503935,
                    "duration": 0.10000000000000142
                },
                {
                    "name": "B4",
                    "midi": 71,
                    "time": 40.60000000000031,
                    "velocity": 0.25984251968503935,
                    "duration": 0.10000000000000142
                },
                {
                    "name": "A#4",
                    "midi": 70,
                    "time": 40.70000000000031,
                    "velocity": 0.25984251968503935,
                    "duration": 0.10000000000000142
                },
                {
                    "name": "G#4",
                    "midi": 68,
                    "time": 40.80000000000031,
                    "velocity": 0.25984251968503935,
                    "duration": 0.10000000000000142
                },
                {
                    "name": "F#4",
                    "midi": 66,
                    "time": 40.90000000000031,
                    "velocity": 0.25984251968503935,
                    "duration": 0.10000000000000142
                },
                {
                    "name": "F4",
                    "midi": 65,
                    "time": 41.00000000000031,
                    "velocity": 0.25984251968503935,
                    "duration": 0.10000000000000142
                },
                {
                    "name": "D#4",
                    "midi": 63,
                    "time": 41.100000000000314,
                    "velocity": 0.31496062992125984,
                    "duration": 0.10000000000000142
                },
                {
                    "name": "D4",
                    "midi": 62,
                    "time": 41.200000000000315,
                    "velocity": 0.25984251968503935,
                    "duration": 0.10000000000000142
                },
                {
                    "name": "F4",
                    "midi": 65,
                    "time": 41.30000000000032,
                    "velocity": 0.25984251968503935,
                    "duration": 0.10000000000000142
                },
                {
                    "name": "G#4",
                    "midi": 68,
                    "time": 41.40000000000032,
                    "velocity": 0.25196850393700787,
                    "duration": 0.10000000000000142
                },
                {
                    "name": "B4",
                    "midi": 71,
                    "time": 41.50000000000032,
                    "velocity": 0.25196850393700787,
                    "duration": 0.10000000000000142
                },
                {
                    "name": "A#4",
                    "midi": 70,
                    "time": 41.60000000000032,
                    "velocity": 0.25196850393700787,
                    "duration": 0.10000000000000142
                },
                {
                    "name": "G#4",
                    "midi": 68,
                    "time": 41.70000000000032,
                    "velocity": 0.25196850393700787,
                    "duration": 0.10000000000000142
                },
                {
                    "name": "F#4",
                    "midi": 66,
                    "time": 41.800000000000324,
                    "velocity": 0.25196850393700787,
                    "duration": 0.10000000000000142
                },
                {
                    "name": "F4",
                    "midi": 65,
                    "time": 41.900000000000325,
                    "velocity": 0.25196850393700787,
                    "duration": 0.10000000000000142
                },
                {
                    "name": "D#4",
                    "midi": 63,
                    "time": 42.00000000000033,
                    "velocity": 0.30708661417322836,
                    "duration": 0.10000000000000142
                },
                {
                    "name": "D4",
                    "midi": 62,
                    "time": 42.10000000000033,
                    "velocity": 0.25196850393700787,
                    "duration": 0.10000000000000142
                },
                {
                    "name": "F4",
                    "midi": 65,
                    "time": 42.20000000000033,
                    "velocity": 0.25196850393700787,
                    "duration": 0.10000000000000142
                },
                {
                    "name": "G#4",
                    "midi": 68,
                    "time": 42.30000000000033,
                    "velocity": 0.25196850393700787,
                    "duration": 0.10000000000000142
                },
                {
                    "name": "B4",
                    "midi": 71,
                    "time": 42.40000000000033,
                    "velocity": 0.2677165354330709,
                    "duration": 0.10000000000000142
                },
                {
                    "name": "D5",
                    "midi": 74,
                    "time": 42.500000000000334,
                    "velocity": 0.28346456692913385,
                    "duration": 0.10000000000000142
                },
                {
                    "name": "B4",
                    "midi": 71,
                    "time": 42.600000000000335,
                    "velocity": 0.30708661417322836,
                    "duration": 0.10000000000000142
                },
                {
                    "name": "D5",
                    "midi": 74,
                    "time": 42.70000000000034,
                    "velocity": 0.31496062992125984,
                    "duration": 0.10000000000000142
                },
                {
                    "name": "F5",
                    "midi": 77,
                    "time": 42.80000000000034,
                    "velocity": 0.3228346456692913,
                    "duration": 0.10000000000000142
                },
                {
                    "name": "D5",
                    "midi": 74,
                    "time": 42.90000000000034,
                    "velocity": 0.33858267716535434,
                    "duration": 0.10000000000000142
                },
                {
                    "name": "F5",
                    "midi": 77,
                    "time": 43.00000000000034,
                    "velocity": 0.3543307086614173,
                    "duration": 0.10000000000000142
                },
                {
                    "name": "F#5",
                    "midi": 78,
                    "time": 43.10000000000034,
                    "velocity": 0.36220472440944884,
                    "duration": 0.10000000000000142
                },
                {
                    "name": "G#5",
                    "midi": 80,
                    "time": 43.200000000000344,
                    "velocity": 0.3937007874015748,
                    "duration": 0.10000000000000142
                },
                {
                    "name": "B5",
                    "midi": 83,
                    "time": 43.300000000000345,
                    "velocity": 0.3779527559055118,
                    "duration": 0.10000000000000142
                },
                {
                    "name": "A#5",
                    "midi": 82,
                    "time": 43.40000000000035,
                    "velocity": 0.3779527559055118,
                    "duration": 0.10000000000000142
                },
                {
                    "name": "G#5",
                    "midi": 80,
                    "time": 43.50000000000035,
                    "velocity": 0.3937007874015748,
                    "duration": 0.10000000000000142
                },
                {
                    "name": "F#5",
                    "midi": 78,
                    "time": 43.60000000000035,
                    "velocity": 0.3779527559055118,
                    "duration": 0.10000000000000142
                },
                {
                    "name": "F5",
                    "midi": 77,
                    "time": 43.70000000000035,
                    "velocity": 0.3779527559055118,
                    "duration": 0.10000000000000142
                },
                {
                    "name": "D#5",
                    "midi": 75,
                    "time": 43.80000000000035,
                    "velocity": 0.41732283464566927,
                    "duration": 0.10000000000000142
                },
                {
                    "name": "D5",
                    "midi": 74,
                    "time": 43.900000000000354,
                    "velocity": 0.3700787401574803,
                    "duration": 0.10000000000000142
                },
                {
                    "name": "F5",
                    "midi": 77,
                    "time": 44.000000000000355,
                    "velocity": 0.3700787401574803,
                    "duration": 0.10000000000000142
                },
                {
                    "name": "G#5",
                    "midi": 80,
                    "time": 44.10000000000036,
                    "velocity": 0.3700787401574803,
                    "duration": 0.10000000000000142
                },
                {
                    "name": "B5",
                    "midi": 83,
                    "time": 44.20000000000036,
                    "velocity": 0.3700787401574803,
                    "duration": 0.10000000000000142
                },
                {
                    "name": "A#5",
                    "midi": 82,
                    "time": 44.30000000000036,
                    "velocity": 0.36220472440944884,
                    "duration": 0.10000000000000142
                },
                {
                    "name": "G#5",
                    "midi": 80,
                    "time": 44.40000000000036,
                    "velocity": 0.3700787401574803,
                    "duration": 0.10000000000000142
                },
                {
                    "name": "F#5",
                    "midi": 78,
                    "time": 44.50000000000036,
                    "velocity": 0.3543307086614173,
                    "duration": 0.10000000000000142
                },
                {
                    "name": "F5",
                    "midi": 77,
                    "time": 44.600000000000364,
                    "velocity": 0.3543307086614173,
                    "duration": 0.10000000000000142
                },
                {
                    "name": "D#5",
                    "midi": 75,
                    "time": 44.700000000000365,
                    "velocity": 0.4094488188976378,
                    "duration": 0.10000000000000142
                },
                {
                    "name": "D5",
                    "midi": 74,
                    "time": 44.80000000000037,
                    "velocity": 0.3779527559055118,
                    "duration": 0.10000000000000142
                },
                {
                    "name": "F5",
                    "midi": 77,
                    "time": 44.90000000000037,
                    "velocity": 0.3779527559055118,
                    "duration": 0.10000000000000142
                },
                {
                    "name": "G#5",
                    "midi": 80,
                    "time": 45.00000000000037,
                    "velocity": 0.3779527559055118,
                    "duration": 0.10000000000000142
                },
                {
                    "name": "B5",
                    "midi": 83,
                    "time": 45.10000000000037,
                    "velocity": 0.3779527559055118,
                    "duration": 0.10000000000000142
                },
                {
                    "name": "G#5",
                    "midi": 80,
                    "time": 45.20000000000037,
                    "velocity": 0.4015748031496063,
                    "duration": 0.10000000000000142
                },
                {
                    "name": "B5",
                    "midi": 83,
                    "time": 45.300000000000374,
                    "velocity": 0.41732283464566927,
                    "duration": 0.10000000000000142
                },
                {
                    "name": "G#5",
                    "midi": 80,
                    "time": 45.400000000000375,
                    "velocity": 0.4251968503937008,
                    "duration": 0.10000000000000142
                },
                {
                    "name": "B5",
                    "midi": 83,
                    "time": 45.50000000000038,
                    "velocity": 0.4409448818897638,
                    "duration": 0.10000000000000142
                },
                {
                    "name": "G#5",
                    "midi": 80,
                    "time": 45.60000000000038,
                    "velocity": 0.44881889763779526,
                    "duration": 0.10000000000000142
                },
                {
                    "name": "B5",
                    "midi": 83,
                    "time": 45.70000000000038,
                    "velocity": 0.47244094488188976,
                    "duration": 0.10000000000000142
                },
                {
                    "name": "G#5",
                    "midi": 80,
                    "time": 45.80000000000038,
                    "velocity": 0.48031496062992124,
                    "duration": 0.10000000000000142
                },
                {
                    "name": "A#5",
                    "midi": 82,
                    "time": 45.90000000000038,
                    "velocity": 0.48031496062992124,
                    "duration": 0.10000000000000142
                },
                {
                    "name": "G#5",
                    "midi": 80,
                    "time": 46.000000000000384,
                    "velocity": 0.4409448818897638,
                    "duration": 0.10000000000000142
                },
                {
                    "name": "A#5",
                    "midi": 82,
                    "time": 46.100000000000385,
                    "velocity": 0.41732283464566927,
                    "duration": 0.10000000000000142
                },
                {
                    "name": "G#5",
                    "midi": 80,
                    "time": 46.20000000000039,
                    "velocity": 0.3779527559055118,
                    "duration": 0.10000000000000142
                },
                {
                    "name": "A#5",
                    "midi": 82,
                    "time": 46.30000000000039,
                    "velocity": 0.3464566929133858,
                    "duration": 0.10000000000000142
                },
                {
                    "name": "G#5",
                    "midi": 80,
                    "time": 46.40000000000039,
                    "velocity": 0.31496062992125984,
                    "duration": 0.10000000000000142
                },
                {
                    "name": "A#5",
                    "midi": 82,
                    "time": 46.50000000000039,
                    "velocity": 0.28346456692913385,
                    "duration": 0.10000000000000142
                },
                {
                    "name": "G#5",
                    "midi": 80,
                    "time": 46.60000000000039,
                    "velocity": 0.25196850393700787,
                    "duration": 0.10000000000000142
                },
                {
                    "name": "A#5",
                    "midi": 82,
                    "time": 46.700000000000394,
                    "velocity": 0.2125984251968504,
                    "duration": 0.10000000000000142
                },
                {
                    "name": "G5",
                    "midi": 79,
                    "time": 46.800000000000395,
                    "velocity": 0.3779527559055118,
                    "duration": 0.10000000000000142
                },
                {
                    "name": "A#5",
                    "midi": 82,
                    "time": 46.9000000000004,
                    "velocity": 0.3543307086614173,
                    "duration": 0.10000000000000142
                },
                {
                    "name": "G#5",
                    "midi": 80,
                    "time": 47.0000000000004,
                    "velocity": 0.33858267716535434,
                    "duration": 0.10000000000000142
                },
                {
                    "name": "G5",
                    "midi": 79,
                    "time": 47.1000000000004,
                    "velocity": 0.3779527559055118,
                    "duration": 0.10000000000000142
                },
                {
                    "name": "F5",
                    "midi": 77,
                    "time": 47.2000000000004,
                    "velocity": 0.3543307086614173,
                    "duration": 0.10000000000000142
                },
                {
                    "name": "D#5",
                    "midi": 75,
                    "time": 47.3000000000004,
                    "velocity": 0.33858267716535434,
                    "duration": 0.10000000000000142
                },
                {
                    "name": "D5",
                    "midi": 74,
                    "time": 47.400000000000404,
                    "velocity": 0.3779527559055118,
                    "duration": 0.10000000000000142
                },
                {
                    "name": "C5",
                    "midi": 72,
                    "time": 47.500000000000405,
                    "velocity": 0.36220472440944884,
                    "duration": 0.10000000000000142
                },
                {
                    "name": "A#4",
                    "midi": 70,
                    "time": 47.600000000000406,
                    "velocity": 0.3543307086614173,
                    "duration": 0.10000000000000142
                },
                {
                    "name": "G#4",
                    "midi": 68,
                    "time": 47.70000000000041,
                    "velocity": 0.3779527559055118,
                    "duration": 0.10000000000000142
                },
                {
                    "name": "G4",
                    "midi": 67,
                    "time": 47.80000000000041,
                    "velocity": 0.36220472440944884,
                    "duration": 0.10000000000000142
                },
                {
                    "name": "F4",
                    "midi": 65,
                    "time": 47.90000000000041,
                    "velocity": 0.3464566929133858,
                    "duration": 0.10000000000000142
                },
                {
                    "name": "D#4",
                    "midi": 63,
                    "time": 48.00000000000041,
                    "velocity": 0.3779527559055118,
                    "duration": 0.10000000000000142
                },
                {
                    "name": "D4",
                    "midi": 62,
                    "time": 48.10000000000041,
                    "velocity": 0.3543307086614173,
                    "duration": 0.10000000000000142
                },
                {
                    "name": "C4",
                    "midi": 60,
                    "time": 48.200000000000415,
                    "velocity": 0.3543307086614173,
                    "duration": 0.10000000000000142
                },
                {
                    "name": "A#3",
                    "midi": 58,
                    "time": 48.300000000000416,
                    "velocity": 0.3779527559055118,
                    "duration": 0.30000000000000426
                },
                {
                    "name": "C4",
                    "midi": 60,
                    "time": 48.40000000000042,
                    "velocity": 0.36220472440944884,
                    "duration": 0.10000000000000142
                },
                {
                    "name": "D4",
                    "midi": 62,
                    "time": 48.50000000000042,
                    "velocity": 0.3543307086614173,
                    "duration": 0.10000000000000142
                },
                {
                    "name": "D#4",
                    "midi": 63,
                    "time": 48.60000000000042,
                    "velocity": 0.3779527559055118,
                    "duration": 0.10000000000000142
                },
                {
                    "name": "D4",
                    "midi": 62,
                    "time": 48.70000000000042,
                    "velocity": 0.36220472440944884,
                    "duration": 0.10000000000000142
                },
                {
                    "name": "D#4",
                    "midi": 63,
                    "time": 48.80000000000042,
                    "velocity": 0.3464566929133858,
                    "duration": 0.10000000000000142
                },
                {
                    "name": "E4",
                    "midi": 64,
                    "time": 48.900000000000425,
                    "velocity": 0.3937007874015748,
                    "duration": 0.10000000000000142
                },
                {
                    "name": "D#4",
                    "midi": 63,
                    "time": 49.000000000000426,
                    "velocity": 0.3858267716535433,
                    "duration": 0.10000000000000142
                },
                {
                    "name": "E4",
                    "midi": 64,
                    "time": 49.10000000000043,
                    "velocity": 0.3543307086614173,
                    "duration": 0.10000000000000142
                },
                {
                    "name": "F4",
                    "midi": 65,
                    "time": 49.20000000000043,
                    "velocity": 0.4251968503937008,
                    "duration": 0.10000000000000142
                },
                {
                    "name": "E4",
                    "midi": 64,
                    "time": 49.30000000000043,
                    "velocity": 0.4015748031496063,
                    "duration": 0.10000000000000142
                },
                {
                    "name": "F4",
                    "midi": 65,
                    "time": 49.40000000000043,
                    "velocity": 0.36220472440944884,
                    "duration": 0.10000000000000142
                },
                {
                    "name": "F#4",
                    "midi": 66,
                    "time": 49.50000000000043,
                    "velocity": 0.44881889763779526,
                    "duration": 0.10000000000000142
                },
                {
                    "name": "F4",
                    "midi": 65,
                    "time": 49.600000000000435,
                    "velocity": 0.4094488188976378,
                    "duration": 0.10000000000000142
                },
                {
                    "name": "F#4",
                    "midi": 66,
                    "time": 49.700000000000436,
                    "velocity": 0.3779527559055118,
                    "duration": 0.10000000000000142
                },
                {
                    "name": "G4",
                    "midi": 67,
                    "time": 49.80000000000044,
                    "velocity": 0.4409448818897638,
                    "duration": 0.10000000000000142
                },
                {
                    "name": "F#4",
                    "midi": 66,
                    "time": 49.90000000000044,
                    "velocity": 0.4094488188976378,
                    "duration": 0.10000000000000142
                },
                {
                    "name": "G4",
                    "midi": 67,
                    "time": 50.00000000000044,
                    "velocity": 0.3779527559055118,
                    "duration": 0.10000000000000142
                },
                {
                    "name": "G#4",
                    "midi": 68,
                    "time": 50.10000000000044,
                    "velocity": 0.3779527559055118,
                    "duration": 0.10000000000000142
                },
                {
                    "name": "G4",
                    "midi": 67,
                    "time": 50.20000000000044,
                    "velocity": 0.3543307086614173,
                    "duration": 0.10000000000000142
                },
                {
                    "name": "G#4",
                    "midi": 68,
                    "time": 50.300000000000445,
                    "velocity": 0.3543307086614173,
                    "duration": 0.10000000000000142
                },
                {
                    "name": "G4",
                    "midi": 67,
                    "time": 50.400000000000446,
                    "velocity": 0.3779527559055118,
                    "duration": 0.10000000000000142
                },
                {
                    "name": "A#4",
                    "midi": 70,
                    "time": 50.50000000000045,
                    "velocity": 0.3779527559055118,
                    "duration": 0.10000000000000142
                },
                {
                    "name": "G#4",
                    "midi": 68,
                    "time": 50.60000000000045,
                    "velocity": 0.3543307086614173,
                    "duration": 0.10000000000000142
                },
                {
                    "name": "G4",
                    "midi": 67,
                    "time": 50.70000000000045,
                    "velocity": 0.3779527559055118,
                    "duration": 0.10000000000000142
                },
                {
                    "name": "G#4",
                    "midi": 68,
                    "time": 50.80000000000045,
                    "velocity": 0.3543307086614173,
                    "duration": 0.10000000000000142
                },
                {
                    "name": "A#4",
                    "midi": 70,
                    "time": 50.90000000000045,
                    "velocity": 0.33858267716535434,
                    "duration": 0.10000000000000142
                },
                {
                    "name": "C5",
                    "midi": 72,
                    "time": 51.000000000000455,
                    "velocity": 0.3779527559055118,
                    "duration": 0.10000000000000142
                },
                {
                    "name": "D5",
                    "midi": 74,
                    "time": 51.100000000000456,
                    "velocity": 0.3543307086614173,
                    "duration": 0.10000000000000142
                },
                {
                    "name": "D#5",
                    "midi": 75,
                    "time": 51.20000000000046,
                    "velocity": 0.3464566929133858,
                    "duration": 0.10000000000000142
                },
                {
                    "name": "F5",
                    "midi": 77,
                    "time": 51.30000000000046,
                    "velocity": 0.3937007874015748,
                    "duration": 0.10000000000000142
                },
                {
                    "name": "C6",
                    "midi": 84,
                    "time": 51.40000000000046,
                    "velocity": 0.3937007874015748,
                    "duration": 0.10000000000000142
                },
                {
                    "name": "A#5",
                    "midi": 82,
                    "time": 51.50000000000046,
                    "velocity": 0.36220472440944884,
                    "duration": 0.10000000000000142
                },
                {
                    "name": "G#5",
                    "midi": 80,
                    "time": 51.60000000000046,
                    "velocity": 0.4015748031496063,
                    "duration": 0.10000000000000142
                },
                {
                    "name": "G5",
                    "midi": 79,
                    "time": 51.700000000000465,
                    "velocity": 0.3779527559055118,
                    "duration": 0.10000000000000142
                },
                {
                    "name": "F5",
                    "midi": 77,
                    "time": 51.800000000000466,
                    "velocity": 0.3543307086614173,
                    "duration": 0.10000000000000142
                },
                {
                    "name": "D#5",
                    "midi": 75,
                    "time": 51.90000000000047,
                    "velocity": 0.3779527559055118,
                    "duration": 0.10000000000000142
                },
                {
                    "name": "D5",
                    "midi": 74,
                    "time": 52.00000000000047,
                    "velocity": 0.3543307086614173,
                    "duration": 0.10000000000000142
                },
                {
                    "name": "C5",
                    "midi": 72,
                    "time": 52.10000000000047,
                    "velocity": 0.3543307086614173,
                    "duration": 0.10000000000000142
                },
                {
                    "name": "D5",
                    "midi": 74,
                    "time": 52.20000000000047,
                    "velocity": 0.36220472440944884,
                    "duration": 0.10000000000000142
                },
                {
                    "name": "F5",
                    "midi": 77,
                    "time": 52.30000000000047,
                    "velocity": 0.36220472440944884,
                    "duration": 0.10000000000000142
                },
                {
                    "name": "D#5",
                    "midi": 75,
                    "time": 52.400000000000475,
                    "velocity": 0.36220472440944884,
                    "duration": 0.10000000000000142
                },
                {
                    "name": "D5",
                    "midi": 74,
                    "time": 52.500000000000476,
                    "velocity": 0.3858267716535433,
                    "duration": 0.10000000000000142
                },
                {
                    "name": "D#5",
                    "midi": 75,
                    "time": 52.60000000000048,
                    "velocity": 0.3937007874015748,
                    "duration": 0.10000000000000142
                },
                {
                    "name": "F5",
                    "midi": 77,
                    "time": 52.70000000000048,
                    "velocity": 0.3779527559055118,
                    "duration": 0.10000000000000142
                },
                {
                    "name": "G5",
                    "midi": 79,
                    "time": 52.80000000000048,
                    "velocity": 0.41732283464566927,
                    "duration": 0.10000000000000142
                },
                {
                    "name": "G#5",
                    "midi": 80,
                    "time": 52.90000000000048,
                    "velocity": 0.4015748031496063,
                    "duration": 0.10000000000000142
                },
                {
                    "name": "A#5",
                    "midi": 82,
                    "time": 53.00000000000048,
                    "velocity": 0.4015748031496063,
                    "duration": 0.10000000000000142
                },
                {
                    "name": "D#5",
                    "midi": 75,
                    "time": 53.100000000000485,
                    "velocity": 0.4330708661417323,
                    "duration": 0.10000000000000142
                },
                {
                    "name": "F5",
                    "midi": 77,
                    "time": 53.200000000000486,
                    "velocity": 0.4409448818897638,
                    "duration": 0.10000000000000142
                },
                {
                    "name": "G5",
                    "midi": 79,
                    "time": 53.30000000000049,
                    "velocity": 0.4409448818897638,
                    "duration": 0.10000000000000142
                },
                {
                    "name": "G#5",
                    "midi": 80,
                    "time": 53.40000000000049,
                    "velocity": 0.4566929133858268,
                    "duration": 0.10000000000000142
                },
                {
                    "name": "A#5",
                    "midi": 82,
                    "time": 53.50000000000049,
                    "velocity": 0.4645669291338583,
                    "duration": 0.10000000000000142
                },
                {
                    "name": "C6",
                    "midi": 84,
                    "time": 53.60000000000049,
                    "velocity": 0.44881889763779526,
                    "duration": 0.10000000000000142
                },
                {
                    "name": "D6",
                    "midi": 86,
                    "time": 53.70000000000049,
                    "velocity": 0.48031496062992124,
                    "duration": 0.10000000000000142
                },
                {
                    "name": "D#6",
                    "midi": 87,
                    "time": 53.800000000000495,
                    "velocity": 0.4881889763779528,
                    "duration": 0.10000000000000142
                },
                {
                    "name": "F6",
                    "midi": 89,
                    "time": 53.900000000000496,
                    "velocity": 0.4645669291338583,
                    "duration": 0.10000000000000142
                },
                {
                    "name": "G6",
                    "midi": 91,
                    "time": 54.0000000000005,
                    "velocity": 0.5039370078740157,
                    "duration": 0.10000000000000142
                },
                {
                    "name": "A#6",
                    "midi": 94,
                    "time": 54.1000000000005,
                    "velocity": 0.4881889763779528,
                    "duration": 0.10000000000000142
                },
                {
                    "name": "G#6",
                    "midi": 92,
                    "time": 54.2000000000005,
                    "velocity": 0.4566929133858268,
                    "duration": 0.10000000000000142
                },
                {
                    "name": "G6",
                    "midi": 91,
                    "time": 54.3000000000005,
                    "velocity": 0.5039370078740157,
                    "duration": 0.10000000000000142
                },
                {
                    "name": "F6",
                    "midi": 89,
                    "time": 54.4000000000005,
                    "velocity": 0.48031496062992124,
                    "duration": 0.10000000000000142
                },
                {
                    "name": "D#6",
                    "midi": 87,
                    "time": 54.500000000000504,
                    "velocity": 0.47244094488188976,
                    "duration": 0.10000000000000142
                },
                {
                    "name": "D6",
                    "midi": 86,
                    "time": 54.600000000000506,
                    "velocity": 0.5039370078740157,
                    "duration": 0.10000000000000142
                },
                {
                    "name": "C6",
                    "midi": 84,
                    "time": 54.70000000000051,
                    "velocity": 0.4566929133858268,
                    "duration": 0.10000000000000142
                },
                {
                    "name": "A#5",
                    "midi": 82,
                    "time": 54.80000000000051,
                    "velocity": 0.4330708661417323,
                    "duration": 0.10000000000000142
                },
                {
                    "name": "G#5",
                    "midi": 80,
                    "time": 54.90000000000051,
                    "velocity": 0.5039370078740157,
                    "duration": 0.10000000000000142
                },
                {
                    "name": "G5",
                    "midi": 79,
                    "time": 55.00000000000051,
                    "velocity": 0.4881889763779528,
                    "duration": 0.10000000000000142
                },
                {
                    "name": "F5",
                    "midi": 77,
                    "time": 55.10000000000051,
                    "velocity": 0.48031496062992124,
                    "duration": 0.10000000000000142
                },
                {
                    "name": "D#5",
                    "midi": 75,
                    "time": 55.200000000000514,
                    "velocity": 0.4645669291338583,
                    "duration": 0.10000000000000142
                },
                {
                    "name": "D5",
                    "midi": 74,
                    "time": 55.300000000000516,
                    "velocity": 0.44881889763779526,
                    "duration": 0.10000000000000142
                },
                {
                    "name": "C5",
                    "midi": 72,
                    "time": 55.40000000000052,
                    "velocity": 0.4330708661417323,
                    "duration": 0.10000000000000142
                },
                {
                    "name": "A#4",
                    "midi": 70,
                    "time": 55.50000000000052,
                    "velocity": 0.4251968503937008,
                    "duration": 0.10000000000000142
                },
                {
                    "name": "C5",
                    "midi": 72,
                    "time": 55.60000000000052,
                    "velocity": 0.4094488188976378,
                    "duration": 0.10000000000000142
                },
                {
                    "name": "D5",
                    "midi": 74,
                    "time": 55.70000000000052,
                    "velocity": 0.3937007874015748,
                    "duration": 0.10000000000000142
                },
                {
                    "name": "D#5",
                    "midi": 75,
                    "time": 55.80000000000052,
                    "velocity": 0.3779527559055118,
                    "duration": 0.10000000000000142
                },
                {
                    "name": "D5",
                    "midi": 74,
                    "time": 55.900000000000524,
                    "velocity": 0.3779527559055118,
                    "duration": 0.10000000000000142
                },
                {
                    "name": "D#5",
                    "midi": 75,
                    "time": 56.000000000000526,
                    "velocity": 0.3779527559055118,
                    "duration": 0.10000000000000142
                },
                {
                    "name": "E5",
                    "midi": 76,
                    "time": 56.10000000000053,
                    "velocity": 0.4094488188976378,
                    "duration": 0.10000000000000142
                },
                {
                    "name": "D#5",
                    "midi": 75,
                    "time": 56.20000000000053,
                    "velocity": 0.3858267716535433,
                    "duration": 0.10000000000000142
                },
                {
                    "name": "E5",
                    "midi": 76,
                    "time": 56.30000000000053,
                    "velocity": 0.3858267716535433,
                    "duration": 0.10000000000000142
                },
                {
                    "name": "F5",
                    "midi": 77,
                    "time": 56.40000000000053,
                    "velocity": 0.4251968503937008,
                    "duration": 0.10000000000000142
                },
                {
                    "name": "E5",
                    "midi": 76,
                    "time": 56.50000000000053,
                    "velocity": 0.3937007874015748,
                    "duration": 0.10000000000000142
                },
                {
                    "name": "F5",
                    "midi": 77,
                    "time": 56.600000000000534,
                    "velocity": 0.3858267716535433,
                    "duration": 0.10000000000000142
                },
                {
                    "name": "F#5",
                    "midi": 78,
                    "time": 56.700000000000536,
                    "velocity": 0.4409448818897638,
                    "duration": 0.10000000000000142
                },
                {
                    "name": "F5",
                    "midi": 77,
                    "time": 56.80000000000054,
                    "velocity": 0.4094488188976378,
                    "duration": 0.10000000000000142
                },
                {
                    "name": "F#5",
                    "midi": 78,
                    "time": 56.90000000000054,
                    "velocity": 0.4094488188976378,
                    "duration": 0.10000000000000142
                },
                {
                    "name": "G5",
                    "midi": 79,
                    "time": 57.00000000000054,
                    "velocity": 0.4409448818897638,
                    "duration": 0.10000000000000142
                },
                {
                    "name": "F#5",
                    "midi": 78,
                    "time": 57.10000000000054,
                    "velocity": 0.4015748031496063,
                    "duration": 0.10000000000000142
                },
                {
                    "name": "G5",
                    "midi": 79,
                    "time": 57.20000000000054,
                    "velocity": 0.4015748031496063,
                    "duration": 0.10000000000000142
                },
                {
                    "name": "G#5",
                    "midi": 80,
                    "time": 57.300000000000544,
                    "velocity": 0.4015748031496063,
                    "duration": 0.10000000000000142
                },
                {
                    "name": "G5",
                    "midi": 79,
                    "time": 57.400000000000546,
                    "velocity": 0.3779527559055118,
                    "duration": 0.10000000000000142
                },
                {
                    "name": "G#5",
                    "midi": 80,
                    "time": 57.50000000000055,
                    "velocity": 0.3779527559055118,
                    "duration": 0.10000000000000142
                },
                {
                    "name": "G5",
                    "midi": 79,
                    "time": 57.60000000000055,
                    "velocity": 0.3779527559055118,
                    "duration": 0.10000000000000142
                },
                {
                    "name": "F#5",
                    "midi": 78,
                    "time": 57.70000000000055,
                    "velocity": 0.3779527559055118,
                    "duration": 0.10000000000000142
                },
                {
                    "name": "G5",
                    "midi": 79,
                    "time": 57.80000000000055,
                    "velocity": 0.3779527559055118,
                    "duration": 0.10000000000000142
                },
                {
                    "name": "G#5",
                    "midi": 80,
                    "time": 57.90000000000055,
                    "velocity": 0.3937007874015748,
                    "duration": 0.10000000000000142
                },
                {
                    "name": "G5",
                    "midi": 79,
                    "time": 58.000000000000554,
                    "velocity": 0.4015748031496063,
                    "duration": 0.10000000000000142
                },
                {
                    "name": "G#5",
                    "midi": 80,
                    "time": 58.100000000000556,
                    "velocity": 0.3779527559055118,
                    "duration": 0.10000000000000142
                },
                {
                    "name": "A#5",
                    "midi": 82,
                    "time": 58.20000000000056,
                    "velocity": 0.41732283464566927,
                    "duration": 0.10000000000000142
                },
                {
                    "name": "G#5",
                    "midi": 80,
                    "time": 58.30000000000056,
                    "velocity": 0.4251968503937008,
                    "duration": 0.10000000000000142
                },
                {
                    "name": "A#5",
                    "midi": 82,
                    "time": 58.40000000000056,
                    "velocity": 0.4094488188976378,
                    "duration": 0.10000000000000142
                },
                {
                    "name": "G#5",
                    "midi": 80,
                    "time": 58.50000000000056,
                    "velocity": 0.4409448818897638,
                    "duration": 0.10000000000000142
                },
                {
                    "name": "G5",
                    "midi": 79,
                    "time": 58.60000000000056,
                    "velocity": 0.4409448818897638,
                    "duration": 0.10000000000000142
                },
                {
                    "name": "G#5",
                    "midi": 80,
                    "time": 58.700000000000564,
                    "velocity": 0.41732283464566927,
                    "duration": 0.10000000000000142
                },
                {
                    "name": "A#5",
                    "midi": 82,
                    "time": 58.800000000000566,
                    "velocity": 0.4566929133858268,
                    "duration": 0.10000000000000142
                },
                {
                    "name": "G#5",
                    "midi": 80,
                    "time": 58.90000000000057,
                    "velocity": 0.4645669291338583,
                    "duration": 0.10000000000000142
                },
                {
                    "name": "A#5",
                    "midi": 82,
                    "time": 59.00000000000057,
                    "velocity": 0.4251968503937008,
                    "duration": 0.10000000000000142
                },
                {
                    "name": "C6",
                    "midi": 84,
                    "time": 59.10000000000057,
                    "velocity": 0.48031496062992124,
                    "duration": 0.10000000000000142
                },
                {
                    "name": "B5",
                    "midi": 83,
                    "time": 59.20000000000057,
                    "velocity": 0.47244094488188976,
                    "duration": 0.10000000000000142
                },
                {
                    "name": "C6",
                    "midi": 84,
                    "time": 59.30000000000057,
                    "velocity": 0.47244094488188976,
                    "duration": 0.10000000000000142
                },
                {
                    "name": "D6",
                    "midi": 86,
                    "time": 59.400000000000574,
                    "velocity": 0.5039370078740157,
                    "duration": 0.10000000000000142
                },
                {
                    "name": "C#6",
                    "midi": 85,
                    "time": 59.500000000000576,
                    "velocity": 0.49606299212598426,
                    "duration": 0.10000000000000142
                },
                {
                    "name": "D6",
                    "midi": 86,
                    "time": 59.60000000000058,
                    "velocity": 0.49606299212598426,
                    "duration": 0.10000000000000142
                },
                {
                    "name": "E6",
                    "midi": 88,
                    "time": 59.70000000000058,
                    "velocity": 0.5196850393700787,
                    "duration": 0.10000000000000142
                },
                {
                    "name": "D6",
                    "midi": 86,
                    "time": 59.80000000000058,
                    "velocity": 0.5118110236220472,
                    "duration": 0.10000000000000142
                },
                {
                    "name": "E6",
                    "midi": 88,
                    "time": 59.90000000000058,
                    "velocity": 0.4881889763779528,
                    "duration": 0.10000000000000142
                },
                {
                    "name": "F#6",
                    "midi": 90,
                    "time": 60.00000000000058,
                    "velocity": 0.5433070866141733,
                    "duration": 0.10000000000000142
                },
                {
                    "name": "E6",
                    "midi": 88,
                    "time": 60.100000000000584,
                    "velocity": 0.5354330708661418,
                    "duration": 0.10000000000000142
                },
                {
                    "name": "F#6",
                    "midi": 90,
                    "time": 60.200000000000585,
                    "velocity": 0.5118110236220472,
                    "duration": 0.10000000000000142
                },
                {
                    "name": "G6",
                    "midi": 91,
                    "time": 60.30000000000059,
                    "velocity": 0.5669291338582677,
                    "duration": 0.10000000000000142
                },
                {
                    "name": "F#6",
                    "midi": 90,
                    "time": 60.40000000000059,
                    "velocity": 0.5669291338582677,
                    "duration": 0.10000000000000142
                },
                {
                    "name": "G6",
                    "midi": 91,
                    "time": 60.50000000000059,
                    "velocity": 0.5354330708661418,
                    "duration": 0.10000000000000142
                },
                {
                    "name": "A6",
                    "midi": 93,
                    "time": 60.60000000000059,
                    "velocity": 0.5826771653543307,
                    "duration": 0.10000000000000142
                },
                {
                    "name": "G6",
                    "midi": 91,
                    "time": 60.70000000000059,
                    "velocity": 0.5748031496062992,
                    "duration": 0.10000000000000142
                },
                {
                    "name": "A6",
                    "midi": 93,
                    "time": 60.800000000000594,
                    "velocity": 0.5511811023622047,
                    "duration": 0.10000000000000142
                },
                {
                    "name": "B6",
                    "midi": 95,
                    "time": 60.900000000000595,
                    "velocity": 0.6062992125984252,
                    "duration": 0.10000000000000142
                },
                {
                    "name": "A6",
                    "midi": 93,
                    "time": 61.0000000000006,
                    "velocity": 0.5984251968503937,
                    "duration": 0.10000000000000142
                },
                {
                    "name": "B6",
                    "midi": 95,
                    "time": 61.1000000000006,
                    "velocity": 0.5669291338582677,
                    "duration": 0.10000000000000142
                },
                {
                    "name": "C7",
                    "midi": 96,
                    "time": 61.2000000000006,
                    "velocity": 0.6377952755905512,
                    "duration": 0.10000000000000142
                },
                {
                    "name": "B6",
                    "midi": 95,
                    "time": 61.3000000000006,
                    "velocity": 0.6062992125984252,
                    "duration": 0.10000000000000142
                },
                {
                    "name": "C7",
                    "midi": 96,
                    "time": 61.4000000000006,
                    "velocity": 0.5748031496062992,
                    "duration": 0.10000000000000142
                },
                {
                    "name": "D7",
                    "midi": 98,
                    "time": 61.500000000000604,
                    "velocity": 0.6377952755905512,
                    "duration": 0.10000000000000142
                },
                {
                    "name": "C7",
                    "midi": 96,
                    "time": 61.600000000000605,
                    "velocity": 0.6062992125984252,
                    "duration": 0.10000000000000142
                },
                {
                    "name": "D7",
                    "midi": 98,
                    "time": 61.70000000000061,
                    "velocity": 0.5748031496062992,
                    "duration": 0.10000000000000142
                },
                {
                    "name": "E7",
                    "midi": 100,
                    "time": 61.80000000000061,
                    "velocity": 0.6377952755905512,
                    "duration": 0.10000000000000142
                },
                {
                    "name": "D7",
                    "midi": 98,
                    "time": 61.90000000000061,
                    "velocity": 0.6141732283464567,
                    "duration": 0.10000000000000142
                },
                {
                    "name": "E7",
                    "midi": 100,
                    "time": 62.00000000000061,
                    "velocity": 0.5748031496062992,
                    "duration": 0.10000000000000142
                },
                {
                    "name": "F7",
                    "midi": 101,
                    "time": 62.10000000000061,
                    "velocity": 0.6377952755905512,
                    "duration": 0.10000000000000142
                },
                {
                    "name": "D#7",
                    "midi": 99,
                    "time": 62.200000000000614,
                    "velocity": 0.5748031496062992,
                    "duration": 0.10000000000000142
                },
                {
                    "name": "C#7",
                    "midi": 97,
                    "time": 62.300000000000615,
                    "velocity": 0.5511811023622047,
                    "duration": 0.10000000000000142
                },
                {
                    "name": "C7",
                    "midi": 96,
                    "time": 62.40000000000062,
                    "velocity": 0.6377952755905512,
                    "duration": 0.10000000000000142
                },
                {
                    "name": "A#6",
                    "midi": 94,
                    "time": 62.50000000000062,
                    "velocity": 0.5826771653543307,
                    "duration": 0.10000000000000142
                },
                {
                    "name": "G#6",
                    "midi": 92,
                    "time": 62.60000000000062,
                    "velocity": 0.5669291338582677,
                    "duration": 0.10000000000000142
                },
                {
                    "name": "G6",
                    "midi": 91,
                    "time": 62.70000000000062,
                    "velocity": 0.6377952755905512,
                    "duration": 0.10000000000000142
                },
                {
                    "name": "F6",
                    "midi": 89,
                    "time": 62.80000000000062,
                    "velocity": 0.5826771653543307,
                    "duration": 0.10000000000000142
                },
                {
                    "name": "D#6",
                    "midi": 87,
                    "time": 62.900000000000624,
                    "velocity": 0.5590551181102362,
                    "duration": 0.10000000000000142
                },
                {
                    "name": "D6",
                    "midi": 86,
                    "time": 63.000000000000625,
                    "velocity": 0.6377952755905512,
                    "duration": 0.10000000000000142
                },
                {
                    "name": "C6",
                    "midi": 84,
                    "time": 63.10000000000063,
                    "velocity": 0.5826771653543307,
                    "duration": 0.10000000000000142
                },
                {
                    "name": "A#5",
                    "midi": 82,
                    "time": 63.20000000000063,
                    "velocity": 0.5275590551181102,
                    "duration": 0.10000000000000142
                },
                {
                    "name": "A5",
                    "midi": 81,
                    "time": 63.30000000000063,
                    "velocity": 0.6377952755905512,
                    "duration": 0.10000000000000142
                },
                {
                    "name": "A#5",
                    "midi": 82,
                    "time": 63.40000000000063,
                    "velocity": 0.5826771653543307,
                    "duration": 0.10000000000000142
                },
                {
                    "name": "C6",
                    "midi": 84,
                    "time": 63.50000000000063,
                    "velocity": 0.5511811023622047,
                    "duration": 0.10000000000000142
                },
                {
                    "name": "D6",
                    "midi": 86,
                    "time": 63.600000000000634,
                    "velocity": 0.6377952755905512,
                    "duration": 0.10000000000000142
                },
                {
                    "name": "D#6",
                    "midi": 87,
                    "time": 63.700000000000635,
                    "velocity": 0.5905511811023622,
                    "duration": 0.10000000000000142
                },
                {
                    "name": "F6",
                    "midi": 89,
                    "time": 63.80000000000064,
                    "velocity": 0.5511811023622047,
                    "duration": 0.10000000000000142
                },
                {
                    "name": "F#6",
                    "midi": 90,
                    "time": 63.90000000000064,
                    "velocity": 0.6850393700787402,
                    "duration": 0.10000000000000142
                },
                {
                    "name": "A#6",
                    "midi": 94,
                    "time": 64.00000000000064,
                    "velocity": 0.6220472440944882,
                    "duration": 0.09999999999999432
                },
                {
                    "name": "G#6",
                    "midi": 92,
                    "time": 64.10000000000063,
                    "velocity": 0.6062992125984252,
                    "duration": 0.09999999999999432
                },
                {
                    "name": "F#6",
                    "midi": 90,
                    "time": 64.20000000000063,
                    "velocity": 0.6377952755905512,
                    "duration": 0.09999999999999432
                },
                {
                    "name": "F6",
                    "midi": 89,
                    "time": 64.30000000000062,
                    "velocity": 0.5669291338582677,
                    "duration": 0.09999999999999432
                },
                {
                    "name": "D#6",
                    "midi": 87,
                    "time": 64.40000000000062,
                    "velocity": 0.5433070866141733,
                    "duration": 0.09999999999999432
                },
                {
                    "name": "C#6",
                    "midi": 85,
                    "time": 64.50000000000061,
                    "velocity": 0.6220472440944882,
                    "duration": 0.09999999999999432
                },
                {
                    "name": "B5",
                    "midi": 83,
                    "time": 64.6000000000006,
                    "velocity": 0.5669291338582677,
                    "duration": 0.09999999999999432
                },
                {
                    "name": "A#5",
                    "midi": 82,
                    "time": 64.7000000000006,
                    "velocity": 0.5433070866141733,
                    "duration": 0.09999999999999432
                },
                {
                    "name": "B5",
                    "midi": 83,
                    "time": 64.8000000000006,
                    "velocity": 0.6850393700787402,
                    "duration": 0.09999999999999432
                },
                {
                    "name": "D#6",
                    "midi": 87,
                    "time": 64.90000000000059,
                    "velocity": 0.6141732283464567,
                    "duration": 0.09999999999999432
                },
                {
                    "name": "C#6",
                    "midi": 85,
                    "time": 65.00000000000058,
                    "velocity": 0.5669291338582677,
                    "duration": 0.09999999999999432
                },
                {
                    "name": "B5",
                    "midi": 83,
                    "time": 65.10000000000058,
                    "velocity": 0.6377952755905512,
                    "duration": 0.09999999999999432
                },
                {
                    "name": "A#5",
                    "midi": 82,
                    "time": 65.20000000000057,
                    "velocity": 0.5905511811023622,
                    "duration": 0.09999999999999432
                },
                {
                    "name": "G#5",
                    "midi": 80,
                    "time": 65.30000000000057,
                    "velocity": 0.5905511811023622,
                    "duration": 0.09999999999999432
                },
                {
                    "name": "F#5",
                    "midi": 78,
                    "time": 65.40000000000056,
                    "velocity": 0.6377952755905512,
                    "duration": 0.09999999999999432
                },
                {
                    "name": "F5",
                    "midi": 77,
                    "time": 65.50000000000055,
                    "velocity": 0.5669291338582677,
                    "duration": 0.09999999999999432
                },
                {
                    "name": "D#5",
                    "midi": 75,
                    "time": 65.60000000000055,
                    "velocity": 0.5354330708661418,
                    "duration": 0.09999999999999432
                },
                {
                    "name": "D5",
                    "midi": 74,
                    "time": 65.70000000000054,
                    "velocity": 0.6850393700787402,
                    "duration": 0.09999999999999432
                },
                {
                    "name": "F5",
                    "midi": 77,
                    "time": 65.80000000000054,
                    "velocity": 0.6062992125984252,
                    "duration": 0.09999999999999432
                },
                {
                    "name": "D#5",
                    "midi": 75,
                    "time": 65.90000000000053,
                    "velocity": 0.5826771653543307,
                    "duration": 0.09999999999999432
                },
                {
                    "name": "D5",
                    "midi": 74,
                    "time": 66.00000000000053,
                    "velocity": 0.6377952755905512,
                    "duration": 0.09999999999999432
                },
                {
                    "name": "B4",
                    "midi": 71,
                    "time": 66.10000000000052,
                    "velocity": 0.5669291338582677,
                    "duration": 0.09999999999999432
                },
                {
                    "name": "A#4",
                    "midi": 70,
                    "time": 66.20000000000051,
                    "velocity": 0.5433070866141733,
                    "duration": 0.09999999999999432
                },
                {
                    "name": "G#4",
                    "midi": 68,
                    "time": 66.30000000000051,
                    "velocity": 0.6220472440944882,
                    "duration": 0.09999999999999432
                },
                {
                    "name": "F#4",
                    "midi": 66,
                    "time": 66.4000000000005,
                    "velocity": 0.5354330708661418,
                    "duration": 0.09999999999999432
                },
                {
                    "name": "F4",
                    "midi": 65,
                    "time": 66.5000000000005,
                    "velocity": 0.49606299212598426,
                    "duration": 0.09999999999999432
                },
                {
                    "name": "F#5",
                    "midi": 78,
                    "time": 66.60000000000049,
                    "velocity": 0.7007874015748031,
                    "duration": 0.09999999999999432
                },
                {
                    "name": "A#5",
                    "midi": 82,
                    "time": 66.70000000000049,
                    "velocity": 0.5905511811023622,
                    "duration": 0.09999999999999432
                },
                {
                    "name": "G#5",
                    "midi": 80,
                    "time": 66.80000000000048,
                    "velocity": 0.5511811023622047,
                    "duration": 0.09999999999999432
                },
                {
                    "name": "F#5",
                    "midi": 78,
                    "time": 66.90000000000047,
                    "velocity": 0.6299212598425197,
                    "duration": 0.09999999999999432
                },
                {
                    "name": "F5",
                    "midi": 77,
                    "time": 67.00000000000047,
                    "velocity": 0.5748031496062992,
                    "duration": 0.09999999999999432
                },
                {
                    "name": "D#5",
                    "midi": 75,
                    "time": 67.10000000000046,
                    "velocity": 0.5511811023622047,
                    "duration": 0.09999999999999432
                },
                {
                    "name": "C#5",
                    "midi": 73,
                    "time": 67.20000000000046,
                    "velocity": 0.6220472440944882,
                    "duration": 0.09999999999999432
                },
                {
                    "name": "B4",
                    "midi": 71,
                    "time": 67.30000000000045,
                    "velocity": 0.5511811023622047,
                    "duration": 0.09999999999999432
                },
                {
                    "name": "A#4",
                    "midi": 70,
                    "time": 67.40000000000045,
                    "velocity": 0.5039370078740157,
                    "duration": 0.09999999999999432
                },
                {
                    "name": "B4",
                    "midi": 71,
                    "time": 67.50000000000044,
                    "velocity": 0.6692913385826772,
                    "duration": 0.09999999999999432
                },
                {
                    "name": "D#5",
                    "midi": 75,
                    "time": 67.60000000000043,
                    "velocity": 0.6062992125984252,
                    "duration": 0.09999999999999432
                },
                {
                    "name": "C#5",
                    "midi": 73,
                    "time": 67.70000000000043,
                    "velocity": 0.5826771653543307,
                    "duration": 0.09999999999999432
                },
                {
                    "name": "B4",
                    "midi": 71,
                    "time": 67.80000000000042,
                    "velocity": 0.6299212598425197,
                    "duration": 0.09999999999999432
                },
                {
                    "name": "A#4",
                    "midi": 70,
                    "time": 67.90000000000042,
                    "velocity": 0.5826771653543307,
                    "duration": 0.09999999999999432
                },
                {
                    "name": "G#4",
                    "midi": 68,
                    "time": 68.00000000000041,
                    "velocity": 0.5590551181102362,
                    "duration": 0.09999999999999432
                },
                {
                    "name": "F#4",
                    "midi": 66,
                    "time": 68.1000000000004,
                    "velocity": 0.6141732283464567,
                    "duration": 0.09999999999999432
                },
                {
                    "name": "F4",
                    "midi": 65,
                    "time": 68.2000000000004,
                    "velocity": 0.5511811023622047,
                    "duration": 0.09999999999999432
                },
                {
                    "name": "D#4",
                    "midi": 63,
                    "time": 68.3000000000004,
                    "velocity": 0.5275590551181102,
                    "duration": 0.09999999999999432
                },
                {
                    "name": "D4",
                    "midi": 62,
                    "time": 68.40000000000039,
                    "velocity": 0.7007874015748031,
                    "duration": 0.09999999999999432
                },
                {
                    "name": "F4",
                    "midi": 65,
                    "time": 68.50000000000038,
                    "velocity": 0.6062992125984252,
                    "duration": 0.09999999999999432
                },
                {
                    "name": "D#4",
                    "midi": 63,
                    "time": 68.60000000000038,
                    "velocity": 0.6062992125984252,
                    "duration": 0.09999999999999432
                },
                {
                    "name": "D4",
                    "midi": 62,
                    "time": 68.70000000000037,
                    "velocity": 0.6377952755905512,
                    "duration": 0.09999999999999432
                },
                {
                    "name": "B3",
                    "midi": 59,
                    "time": 68.80000000000037,
                    "velocity": 0.6062992125984252,
                    "duration": 0.09999999999999432
                },
                {
                    "name": "A#3",
                    "midi": 58,
                    "time": 68.90000000000036,
                    "velocity": 0.5748031496062992,
                    "duration": 0.09999999999999432
                },
                {
                    "name": "G#3",
                    "midi": 56,
                    "time": 69.00000000000036,
                    "velocity": 0.6377952755905512,
                    "duration": 0.09999999999999432
                },
                {
                    "name": "F#3",
                    "midi": 54,
                    "time": 69.10000000000035,
                    "velocity": 0.5984251968503937,
                    "duration": 0.09999999999999432
                },
                {
                    "name": "F3",
                    "midi": 53,
                    "time": 69.20000000000034,
                    "velocity": 0.5669291338582677,
                    "duration": 0.09999999999999432
                },
                {
                    "name": "D#3",
                    "midi": 51,
                    "time": 69.30000000000034,
                    "velocity": 0.6377952755905512,
                    "duration": 0.09999999999999432
                },
                {
                    "name": "F3",
                    "midi": 53,
                    "time": 69.40000000000033,
                    "velocity": 0.6220472440944882,
                    "duration": 0.09999999999999432
                },
                {
                    "name": "F#3",
                    "midi": 54,
                    "time": 69.50000000000033,
                    "velocity": 0.6220472440944882,
                    "duration": 0.09999999999999432
                },
                {
                    "name": "G#3",
                    "midi": 56,
                    "time": 69.60000000000032,
                    "velocity": 0.7007874015748031,
                    "duration": 0.09999999999999432
                },
                {
                    "name": "B3",
                    "midi": 59,
                    "time": 69.70000000000032,
                    "velocity": 0.6377952755905512,
                    "duration": 0.09999999999999432
                },
                {
                    "name": "A#3",
                    "midi": 58,
                    "time": 69.80000000000031,
                    "velocity": 0.6377952755905512,
                    "duration": 0.09999999999999432
                },
                {
                    "name": "G#3",
                    "midi": 56,
                    "time": 69.9000000000003,
                    "velocity": 0.6377952755905512,
                    "duration": 0.09999999999999432
                },
                {
                    "name": "F#3",
                    "midi": 54,
                    "time": 70.0000000000003,
                    "velocity": 0.6062992125984252,
                    "duration": 0.09999999999999432
                },
                {
                    "name": "F3",
                    "midi": 53,
                    "time": 70.10000000000029,
                    "velocity": 0.6062992125984252,
                    "duration": 0.09999999999999432
                },
                {
                    "name": "D#3",
                    "midi": 51,
                    "time": 70.20000000000029,
                    "velocity": 0.6377952755905512,
                    "duration": 0.09999999999999432
                },
                {
                    "name": "F3",
                    "midi": 53,
                    "time": 70.30000000000028,
                    "velocity": 0.5984251968503937,
                    "duration": 0.09999999999999432
                },
                {
                    "name": "F#3",
                    "midi": 54,
                    "time": 70.40000000000028,
                    "velocity": 0.5984251968503937,
                    "duration": 0.09999999999999432
                },
                {
                    "name": "G#3",
                    "midi": 56,
                    "time": 70.50000000000027,
                    "velocity": 0.7007874015748031,
                    "duration": 0.09999999999999432
                },
                {
                    "name": "B3",
                    "midi": 59,
                    "time": 70.60000000000026,
                    "velocity": 0.6062992125984252,
                    "duration": 0.09999999999999432
                },
                {
                    "name": "A#3",
                    "midi": 58,
                    "time": 70.70000000000026,
                    "velocity": 0.6141732283464567,
                    "duration": 0.09999999999999432
                },
                {
                    "name": "G#3",
                    "midi": 56,
                    "time": 70.80000000000025,
                    "velocity": 0.6377952755905512,
                    "duration": 0.09999999999999432
                },
                {
                    "name": "F#3",
                    "midi": 54,
                    "time": 70.90000000000025,
                    "velocity": 0.6062992125984252,
                    "duration": 0.09999999999999432
                },
                {
                    "name": "F3",
                    "midi": 53,
                    "time": 71.00000000000024,
                    "velocity": 0.6062992125984252,
                    "duration": 0.09999999999999432
                },
                {
                    "name": "D#3",
                    "midi": 51,
                    "time": 71.10000000000024,
                    "velocity": 0.6377952755905512,
                    "duration": 0.09999999999999432
                },
                {
                    "name": "F3",
                    "midi": 53,
                    "time": 71.20000000000023,
                    "velocity": 0.6141732283464567,
                    "duration": 0.09999999999999432
                },
                {
                    "name": "F#3",
                    "midi": 54,
                    "time": 71.30000000000022,
                    "velocity": 0.6141732283464567,
                    "duration": 0.09999999999999432
                },
                {
                    "name": "G#3",
                    "midi": 56,
                    "time": 71.40000000000022,
                    "velocity": 0.7007874015748031,
                    "duration": 0.09999999999999432
                },
                {
                    "name": "B3",
                    "midi": 59,
                    "time": 71.50000000000021,
                    "velocity": 0.6141732283464567,
                    "duration": 0.09999999999999432
                },
                {
                    "name": "A#3",
                    "midi": 58,
                    "time": 71.60000000000021,
                    "velocity": 0.6141732283464567,
                    "duration": 0.09999999999999432
                },
                {
                    "name": "G#3",
                    "midi": 56,
                    "time": 71.7000000000002,
                    "velocity": 0.6377952755905512,
                    "duration": 0.09999999999999432
                },
                {
                    "name": "F#3",
                    "midi": 54,
                    "time": 71.8000000000002,
                    "velocity": 0.6141732283464567,
                    "duration": 0.09999999999999432
                },
                {
                    "name": "F3",
                    "midi": 53,
                    "time": 71.90000000000019,
                    "velocity": 0.6141732283464567,
                    "duration": 0.09999999999999432
                },
                {
                    "name": "D#3",
                    "midi": 51,
                    "time": 72.00000000000018,
                    "velocity": 0.6377952755905512,
                    "duration": 0.09999999999999432
                },
                {
                    "name": "F3",
                    "midi": 53,
                    "time": 72.10000000000018,
                    "velocity": 0.6377952755905512,
                    "duration": 0.09999999999999432
                },
                {
                    "name": "F#3",
                    "midi": 54,
                    "time": 72.20000000000017,
                    "velocity": 0.6141732283464567,
                    "duration": 0.09999999999999432
                },
                {
                    "name": "G#3",
                    "midi": 56,
                    "time": 72.30000000000017,
                    "velocity": 0.6692913385826772,
                    "duration": 0.09999999999999432
                },
                {
                    "name": "A#3",
                    "midi": 58,
                    "time": 72.40000000000016,
                    "velocity": 0.6850393700787402,
                    "duration": 0.09999999999999432
                },
                {
                    "name": "C4",
                    "midi": 60,
                    "time": 72.50000000000016,
                    "velocity": 0.6692913385826772,
                    "duration": 0.09999999999999432
                },
                {
                    "name": "D4",
                    "midi": 62,
                    "time": 72.60000000000015,
                    "velocity": 0.7086614173228346,
                    "duration": 0.09999999999999432
                },
                {
                    "name": "D#4",
                    "midi": 63,
                    "time": 72.70000000000014,
                    "velocity": 0.7244094488188977,
                    "duration": 0.09999999999999432
                },
                {
                    "name": "F4",
                    "midi": 65,
                    "time": 72.80000000000014,
                    "velocity": 0.7007874015748031,
                    "duration": 0.09999999999999432
                },
                {
                    "name": "F#4",
                    "midi": 66,
                    "time": 72.90000000000013,
                    "velocity": 0.7559055118110236,
                    "duration": 0.5999999999999943
                },
                {
                    "name": "A#3",
                    "midi": 58,
                    "time": 73.80000000000013,
                    "velocity": 0.6377952755905512,
                    "duration": 0.5999999999999943
                },
                {
                    "name": "C#4",
                    "midi": 61,
                    "time": 73.80000000000013,
                    "velocity": 0.6377952755905512,
                    "duration": 0.5999999999999943
                },
                {
                    "name": "F#4",
                    "midi": 66,
                    "time": 73.80000000000013,
                    "velocity": 0.6377952755905512,
                    "duration": 0.5999999999999943
                },
                {
                    "name": "A#4",
                    "midi": 70,
                    "time": 73.80000000000013,
                    "velocity": 0.7637795275590551,
                    "duration": 0.5999999999999943
                },
                {
                    "name": "B4",
                    "midi": 71,
                    "time": 74.70000000000012,
                    "velocity": 0.7244094488188977,
                    "duration": 0.8999999999999773
                },
                {
                    "name": "B3",
                    "midi": 59,
                    "time": 75.00000000000011,
                    "velocity": 0.5669291338582677,
                    "duration": 0.09999999999999432
                },
                {
                    "name": "D4",
                    "midi": 62,
                    "time": 75.10000000000011,
                    "velocity": 0.5275590551181102,
                    "duration": 0.09999999999999432
                },
                {
                    "name": "F#4",
                    "midi": 66,
                    "time": 75.2000000000001,
                    "velocity": 0.5275590551181102,
                    "duration": 0.09999999999999432
                },
                {
                    "name": "B3",
                    "midi": 59,
                    "time": 75.3000000000001,
                    "velocity": 0.5669291338582677,
                    "duration": 0.29999999999999716
                },
                {
                    "name": "B4",
                    "midi": 71,
                    "time": 75.6000000000001,
                    "velocity": 0.7165354330708661,
                    "duration": 0.8999999999999773
                },
                {
                    "name": "B3",
                    "midi": 59,
                    "time": 75.90000000000009,
                    "velocity": 0.5669291338582677,
                    "duration": 0.09999999999999432
                },
                {
                    "name": "C#4",
                    "midi": 61,
                    "time": 76.00000000000009,
                    "velocity": 0.5354330708661418,
                    "duration": 0.09999999999999432
                },
                {
                    "name": "G4",
                    "midi": 67,
                    "time": 76.10000000000008,
                    "velocity": 0.5354330708661418,
                    "duration": 0.09999999999999432
                },
                {
                    "name": "B3",
                    "midi": 59,
                    "time": 76.20000000000007,
                    "velocity": 0.5669291338582677,
                    "duration": 0.29999999999999716
                },
                {
                    "name": "B4",
                    "midi": 71,
                    "time": 76.50000000000007,
                    "velocity": 0.6692913385826772,
                    "duration": 0.30000000000001137
                },
                {
                    "name": "D4",
                    "midi": 62,
                    "time": 76.65000000000008,
                    "velocity": 0.5039370078740157,
                    "duration": 0.15000000000000568
                },
                {
                    "name": "F#4",
                    "midi": 66,
                    "time": 76.65000000000008,
                    "velocity": 0.5669291338582677,
                    "duration": 0.15000000000000568
                },
                {
                    "name": "C#5",
                    "midi": 73,
                    "time": 76.80000000000008,
                    "velocity": 0.7244094488188977,
                    "duration": 0.30000000000001137
                },
                {
                    "name": "E4",
                    "midi": 64,
                    "time": 76.95000000000009,
                    "velocity": 0.5590551181102362,
                    "duration": 0.15000000000000568
                },
                {
                    "name": "F#4",
                    "midi": 66,
                    "time": 76.95000000000009,
                    "velocity": 0.6220472440944882,
                    "duration": 0.15000000000000568
                },
                {
                    "name": "D5",
                    "midi": 74,
                    "time": 77.1000000000001,
                    "velocity": 0.6692913385826772,
                    "duration": 0.30000000000001137
                },
                {
                    "name": "D4",
                    "midi": 62,
                    "time": 77.2500000000001,
                    "velocity": 0.5039370078740157,
                    "duration": 0.15000000000000568
                },
                {
                    "name": "F#4",
                    "midi": 66,
                    "time": 77.2500000000001,
                    "velocity": 0.5669291338582677,
                    "duration": 0.15000000000000568
                },
                {
                    "name": "C#5",
                    "midi": 73,
                    "time": 77.4000000000001,
                    "velocity": 0.6929133858267716,
                    "duration": 0.8999999999999773
                },
                {
                    "name": "C#4",
                    "midi": 61,
                    "time": 77.7000000000001,
                    "velocity": 0.5669291338582677,
                    "duration": 0.09999999999999432
                },
                {
                    "name": "F#4",
                    "midi": 66,
                    "time": 77.8000000000001,
                    "velocity": 0.5354330708661418,
                    "duration": 0.09999999999999432
                },
                {
                    "name": "A#4",
                    "midi": 70,
                    "time": 77.90000000000009,
                    "velocity": 0.5354330708661418,
                    "duration": 0.09999999999999432
                },
                {
                    "name": "C#4",
                    "midi": 61,
                    "time": 78.00000000000009,
                    "velocity": 0.5669291338582677,
                    "duration": 0.29999999999999716
                },
                {
                    "name": "F#5",
                    "midi": 78,
                    "time": 78.30000000000008,
                    "velocity": 0.7480314960629921,
                    "duration": 0.8999999999999773
                },
                {
                    "name": "F#4",
                    "midi": 66,
                    "time": 78.60000000000008,
                    "velocity": 0.6377952755905512,
                    "duration": 0.09999999999999432
                },
                {
                    "name": "A#4",
                    "midi": 70,
                    "time": 78.70000000000007,
                    "velocity": 0.5905511811023622,
                    "duration": 0.09999999999999432
                },
                {
                    "name": "C#5",
                    "midi": 73,
                    "time": 78.80000000000007,
                    "velocity": 0.5905511811023622,
                    "duration": 0.09999999999999432
                },
                {
                    "name": "F#4",
                    "midi": 66,
                    "time": 78.90000000000006,
                    "velocity": 0.6377952755905512,
                    "duration": 0.29999999999999716
                },
                {
                    "name": "D5",
                    "midi": 74,
                    "time": 79.20000000000006,
                    "velocity": 0.7165354330708661,
                    "duration": 0.8999999999999773
                },
                {
                    "name": "D4",
                    "midi": 62,
                    "time": 79.50000000000006,
                    "velocity": 0.5669291338582677,
                    "duration": 0.09999999999999432
                },
                {
                    "name": "F#4",
                    "midi": 66,
                    "time": 79.60000000000005,
                    "velocity": 0.5354330708661418,
                    "duration": 0.09999999999999432
                },
                {
                    "name": "B4",
                    "midi": 71,
                    "time": 79.70000000000005,
                    "velocity": 0.5354330708661418,
                    "duration": 0.09999999999999432
                },
                {
                    "name": "D4",
                    "midi": 62,
                    "time": 79.80000000000004,
                    "velocity": 0.5669291338582677,
                    "duration": 0.29999999999999716
                },
                {
                    "name": "B4",
                    "midi": 71,
                    "time": 80.10000000000004,
                    "velocity": 0.5669291338582677,
                    "duration": 0.15000000000000568
                },
                {
                    "name": "C#5",
                    "midi": 73,
                    "time": 80.10000000000004,
                    "velocity": 0.6692913385826772,
                    "duration": 0.30000000000001137
                },
                {
                    "name": "E4",
                    "midi": 64,
                    "time": 80.25000000000004,
                    "velocity": 0.5669291338582677,
                    "duration": 0.15000000000000568
                },
                {
                    "name": "B4",
                    "midi": 71,
                    "time": 80.40000000000005,
                    "velocity": 0.5826771653543307,
                    "duration": 0.15000000000000568
                },
                {
                    "name": "E5",
                    "midi": 76,
                    "time": 80.40000000000005,
                    "velocity": 0.6929133858267716,
                    "duration": 0.30000000000001137
                },
                {
                    "name": "E4",
                    "midi": 64,
                    "time": 80.55000000000005,
                    "velocity": 0.5669291338582677,
                    "duration": 0.15000000000000568
                },
                {
                    "name": "B4",
                    "midi": 71,
                    "time": 80.70000000000006,
                    "velocity": 0.5354330708661418,
                    "duration": 0.15000000000000568
                },
                {
                    "name": "C#5",
                    "midi": 73,
                    "time": 80.70000000000006,
                    "velocity": 0.7007874015748031,
                    "duration": 0.30000000000001137
                },
                {
                    "name": "E4",
                    "midi": 64,
                    "time": 80.85000000000007,
                    "velocity": 0.5669291338582677,
                    "duration": 0.15000000000000568
                },
                {
                    "name": "D5",
                    "midi": 74,
                    "time": 81.00000000000007,
                    "velocity": 0.7322834645669292,
                    "duration": 0.8999999999999915
                },
                {
                    "name": "D4",
                    "midi": 62,
                    "time": 81.30000000000007,
                    "velocity": 0.5669291338582677,
                    "duration": 0.09999999999999432
                },
                {
                    "name": "F#4",
                    "midi": 66,
                    "time": 81.40000000000006,
                    "velocity": 0.5275590551181102,
                    "duration": 0.09999999999999432
                },
                {
                    "name": "B4",
                    "midi": 71,
                    "time": 81.50000000000006,
                    "velocity": 0.5275590551181102,
                    "duration": 0.09999999999999432
                },
                {
                    "name": "D4",
                    "midi": 62,
                    "time": 81.60000000000005,
                    "velocity": 0.5669291338582677,
                    "duration": 0.15000000000000568
                },
                {
                    "name": "B4",
                    "midi": 71,
                    "time": 81.90000000000006,
                    "velocity": 0.4251968503937008,
                    "duration": 0.8999999999999773
                },
                {
                    "name": "B3",
                    "midi": 59,
                    "time": 82.20000000000006,
                    "velocity": 0.25196850393700787,
                    "duration": 0.09999999999999432
                },
                {
                    "name": "D4",
                    "midi": 62,
                    "time": 82.30000000000005,
                    "velocity": 0.25984251968503935,
                    "duration": 0.09999999999999432
                },
                {
                    "name": "F#4",
                    "midi": 66,
                    "time": 82.40000000000005,
                    "velocity": 0.25984251968503935,
                    "duration": 0.09999999999999432
                },
                {
                    "name": "B3",
                    "midi": 59,
                    "time": 82.50000000000004,
                    "velocity": 0.25984251968503935,
                    "duration": 0.29999999999999716
                },
                {
                    "name": "B4",
                    "midi": 71,
                    "time": 82.80000000000004,
                    "velocity": 0.4251968503937008,
                    "duration": 0.8999999999999773
                },
                {
                    "name": "B3",
                    "midi": 59,
                    "time": 83.10000000000004,
                    "velocity": 0.2677165354330709,
                    "duration": 0.09999999999999432
                },
                {
                    "name": "C#4",
                    "midi": 61,
                    "time": 83.20000000000003,
                    "velocity": 0.25984251968503935,
                    "duration": 0.09999999999999432
                },
                {
                    "name": "G4",
                    "midi": 67,
                    "time": 83.30000000000003,
                    "velocity": 0.25196850393700787,
                    "duration": 0.09999999999999432
                },
                {
                    "name": "B3",
                    "midi": 59,
                    "time": 83.40000000000002,
                    "velocity": 0.25196850393700787,
                    "duration": 0.29999999999999716
                },
                {
                    "name": "B4",
                    "midi": 71,
                    "time": 83.70000000000002,
                    "velocity": 0.3779527559055118,
                    "duration": 0.30000000000001137
                },
                {
                    "name": "D4",
                    "midi": 62,
                    "time": 83.85000000000002,
                    "velocity": 0.25984251968503935,
                    "duration": 0.15000000000000568
                },
                {
                    "name": "F#4",
                    "midi": 66,
                    "time": 83.85000000000002,
                    "velocity": 0.29133858267716534,
                    "duration": 0.15000000000000568
                },
                {
                    "name": "C#5",
                    "midi": 73,
                    "time": 84.00000000000003,
                    "velocity": 0.41732283464566927,
                    "duration": 0.30000000000001137
                },
                {
                    "name": "E4",
                    "midi": 64,
                    "time": 84.15000000000003,
                    "velocity": 0.29133858267716534,
                    "duration": 0.15000000000000568
                },
                {
                    "name": "F#4",
                    "midi": 66,
                    "time": 84.15000000000003,
                    "velocity": 0.33070866141732286,
                    "duration": 0.15000000000000568
                },
                {
                    "name": "D5",
                    "midi": 74,
                    "time": 84.30000000000004,
                    "velocity": 0.3779527559055118,
                    "duration": 0.30000000000001137
                },
                {
                    "name": "D4",
                    "midi": 62,
                    "time": 84.45000000000005,
                    "velocity": 0.25196850393700787,
                    "duration": 0.15000000000000568
                },
                {
                    "name": "F#4",
                    "midi": 66,
                    "time": 84.45000000000005,
                    "velocity": 0.28346456692913385,
                    "duration": 0.15000000000000568
                },
                {
                    "name": "C#5",
                    "midi": 73,
                    "time": 84.60000000000005,
                    "velocity": 0.3779527559055118,
                    "duration": 0.8999999999999773
                },
                {
                    "name": "C#4",
                    "midi": 61,
                    "time": 84.90000000000005,
                    "velocity": 0.25984251968503935,
                    "duration": 0.09999999999999432
                },
                {
                    "name": "F#4",
                    "midi": 66,
                    "time": 85.00000000000004,
                    "velocity": 0.2677165354330709,
                    "duration": 0.09999999999999432
                },
                {
                    "name": "A#4",
                    "midi": 70,
                    "time": 85.10000000000004,
                    "velocity": 0.2755905511811024,
                    "duration": 0.09999999999999432
                },
                {
                    "name": "C#4",
                    "midi": 61,
                    "time": 85.20000000000003,
                    "velocity": 0.2755905511811024,
                    "duration": 0.29999999999999716
                },
                {
                    "name": "F#5",
                    "midi": 78,
                    "time": 85.50000000000003,
                    "velocity": 0.6377952755905512,
                    "duration": 0.8999999999999773
                },
                {
                    "name": "F#4",
                    "midi": 66,
                    "time": 85.80000000000003,
                    "velocity": 0.5039370078740157,
                    "duration": 0.09999999999999432
                },
                {
                    "name": "A#4",
                    "midi": 70,
                    "time": 85.90000000000002,
                    "velocity": 0.4566929133858268,
                    "duration": 0.09999999999999432
                },
                {
                    "name": "C#5",
                    "midi": 73,
                    "time": 86.00000000000001,
                    "velocity": 0.4566929133858268,
                    "duration": 0.09999999999999432
                },
                {
                    "name": "F#4",
                    "midi": 66,
                    "time": 86.10000000000001,
                    "velocity": 0.5039370078740157,
                    "duration": 0.29999999999999716
                },
                {
                    "name": "D5",
                    "midi": 74,
                    "time": 86.4,
                    "velocity": 0.6377952755905512,
                    "duration": 0.8999999999999773
                },
                {
                    "name": "D4",
                    "midi": 62,
                    "time": 86.7,
                    "velocity": 0.5039370078740157,
                    "duration": 0.09999999999999432
                },
                {
                    "name": "F#4",
                    "midi": 66,
                    "time": 86.8,
                    "velocity": 0.4645669291338583,
                    "duration": 0.09999999999999432
                },
                {
                    "name": "B4",
                    "midi": 71,
                    "time": 86.89999999999999,
                    "velocity": 0.5039370078740157,
                    "duration": 0.09999999999999432
                },
                {
                    "name": "D4",
                    "midi": 62,
                    "time": 86.99999999999999,
                    "velocity": 0.5039370078740157,
                    "duration": 0.29999999999999716
                },
                {
                    "name": "B4",
                    "midi": 71,
                    "time": 87.29999999999998,
                    "velocity": 0.6299212598425197,
                    "duration": 0.30000000000001137
                },
                {
                    "name": "G#4",
                    "midi": 68,
                    "time": 87.44999999999999,
                    "velocity": 0.5039370078740157,
                    "duration": 0.15000000000000568
                },
                {
                    "name": "F#4",
                    "midi": 66,
                    "time": 87.44999999999999,
                    "velocity": 0.44881889763779526,
                    "duration": 0.15000000000000568
                },
                {
                    "name": "D5",
                    "midi": 74,
                    "time": 87.6,
                    "velocity": 0.7007874015748031,
                    "duration": 0.30000000000001137
                },
                {
                    "name": "G#4",
                    "midi": 68,
                    "time": 87.75,
                    "velocity": 0.5039370078740157,
                    "duration": 0.15000000000000568
                },
                {
                    "name": "F#4",
                    "midi": 66,
                    "time": 87.75,
                    "velocity": 0.44881889763779526,
                    "duration": 0.15000000000000568
                },
                {
                    "name": "B4",
                    "midi": 71,
                    "time": 87.9,
                    "velocity": 0.6377952755905512,
                    "duration": 0.30000000000001137
                },
                {
                    "name": "G#4",
                    "midi": 68,
                    "time": 88.05000000000001,
                    "velocity": 0.5039370078740157,
                    "duration": 0.15000000000000568
                },
                {
                    "name": "F#4",
                    "midi": 66,
                    "time": 88.05000000000001,
                    "velocity": 0.44881889763779526,
                    "duration": 0.15000000000000568
                },
                {
                    "name": "C#5",
                    "midi": 73,
                    "time": 88.20000000000002,
                    "velocity": 0.6377952755905512,
                    "duration": 0.8999999999999773
                },
                {
                    "name": "C#4",
                    "midi": 61,
                    "time": 88.50000000000001,
                    "velocity": 0.3779527559055118,
                    "duration": 0.09999999999999432
                },
                {
                    "name": "F4",
                    "midi": 65,
                    "time": 88.60000000000001,
                    "velocity": 0.3779527559055118,
                    "duration": 0.09999999999999432
                },
                {
                    "name": "G#4",
                    "midi": 68,
                    "time": 88.7,
                    "velocity": 0.3779527559055118,
                    "duration": 0.09999999999999432
                },
                {
                    "name": "C#4",
                    "midi": 61,
                    "time": 88.8,
                    "velocity": 0.3858267716535433,
                    "duration": 0.29999999999999716
                },
                {
                    "name": "A4",
                    "midi": 69,
                    "time": 89.1,
                    "velocity": 0.3779527559055118,
                    "duration": 0.8999999999999773
                },
                {
                    "name": "A3",
                    "midi": 57,
                    "time": 89.39999999999999,
                    "velocity": 0.25196850393700787,
                    "duration": 0.09999999999999432
                },
                {
                    "name": "C#4",
                    "midi": 61,
                    "time": 89.49999999999999,
                    "velocity": 0.25196850393700787,
                    "duration": 0.09999999999999432
                },
                {
                    "name": "F#4",
                    "midi": 66,
                    "time": 89.59999999999998,
                    "velocity": 0.25984251968503935,
                    "duration": 0.09999999999999432
                },
                {
                    "name": "A3",
                    "midi": 57,
                    "time": 89.69999999999997,
                    "velocity": 0.25984251968503935,
                    "duration": 0.29999999999999716
                },
                {
                    "name": "G4",
                    "midi": 67,
                    "time": 89.99999999999997,
                    "velocity": 0.3779527559055118,
                    "duration": 0.8999999999999773
                },
                {
                    "name": "G3",
                    "midi": 55,
                    "time": 90.29999999999997,
                    "velocity": 0.25196850393700787,
                    "duration": 0.09999999999999432
                },
                {
                    "name": "B3",
                    "midi": 59,
                    "time": 90.39999999999996,
                    "velocity": 0.25196850393700787,
                    "duration": 0.09999999999999432
                },
                {
                    "name": "D4",
                    "midi": 62,
                    "time": 90.49999999999996,
                    "velocity": 0.25196850393700787,
                    "duration": 0.09999999999999432
                },
                {
                    "name": "G3",
                    "midi": 55,
                    "time": 90.59999999999995,
                    "velocity": 0.25984251968503935,
                    "duration": 0.29999999999999716
                },
                {
                    "name": "C#4",
                    "midi": 61,
                    "time": 90.89999999999995,
                    "velocity": 0.31496062992125984,
                    "duration": 0.15000000000000568
                },
                {
                    "name": "F4",
                    "midi": 65,
                    "time": 90.89999999999995,
                    "velocity": 0.3858267716535433,
                    "duration": 0.30000000000001137
                },
                {
                    "name": "G#3",
                    "midi": 56,
                    "time": 91.04999999999995,
                    "velocity": 0.31496062992125984,
                    "duration": 0.15000000000000568
                },
                {
                    "name": "C#4",
                    "midi": 61,
                    "time": 91.19999999999996,
                    "velocity": 0.31496062992125984,
                    "duration": 0.15000000000000568
                },
                {
                    "name": "G#4",
                    "midi": 68,
                    "time": 91.19999999999996,
                    "velocity": 0.3858267716535433,
                    "duration": 0.30000000000001137
                },
                {
                    "name": "G#3",
                    "midi": 56,
                    "time": 91.34999999999997,
                    "velocity": 0.31496062992125984,
                    "duration": 0.15000000000000568
                },
                {
                    "name": "C#4",
                    "midi": 61,
                    "time": 91.49999999999997,
                    "velocity": 0.31496062992125984,
                    "duration": 0.15000000000000568
                },
                {
                    "name": "F4",
                    "midi": 65,
                    "time": 91.49999999999997,
                    "velocity": 0.3779527559055118,
                    "duration": 0.30000000000001137
                },
                {
                    "name": "G#3",
                    "midi": 56,
                    "time": 91.64999999999998,
                    "velocity": 0.31496062992125984,
                    "duration": 0.15000000000000568
                },
                {
                    "name": "F#4",
                    "midi": 66,
                    "time": 91.79999999999998,
                    "velocity": 0.3779527559055118,
                    "duration": 0.8999999999999773
                },
                {
                    "name": "F#3",
                    "midi": 54,
                    "time": 92.09999999999998,
                    "velocity": 0.25196850393700787,
                    "duration": 0.09999999999999432
                },
                {
                    "name": "A3",
                    "midi": 57,
                    "time": 92.19999999999997,
                    "velocity": 0.25196850393700787,
                    "duration": 0.09999999999999432
                },
                {
                    "name": "C#4",
                    "midi": 61,
                    "time": 92.29999999999997,
                    "velocity": 0.25196850393700787,
                    "duration": 0.09999999999999432
                },
                {
                    "name": "F#3",
                    "midi": 54,
                    "time": 92.39999999999996,
                    "velocity": 0.25196850393700787,
                    "duration": 0.29999999999999716
                },
                {
                    "name": "F#4",
                    "midi": 66,
                    "time": 92.69999999999996,
                    "velocity": 0.6692913385826772,
                    "duration": 0.8999999999999773
                },
                {
                    "name": "F#3",
                    "midi": 54,
                    "time": 92.99999999999996,
                    "velocity": 0.5669291338582677,
                    "duration": 0.09999999999999432
                },
                {
                    "name": "B3",
                    "midi": 59,
                    "time": 93.09999999999995,
                    "velocity": 0.5039370078740157,
                    "duration": 0.09999999999999432
                },
                {
                    "name": "D4",
                    "midi": 62,
                    "time": 93.19999999999995,
                    "velocity": 0.5039370078740157,
                    "duration": 0.09999999999999432
                },
                {
                    "name": "F#3",
                    "midi": 54,
                    "time": 93.29999999999994,
                    "velocity": 0.5669291338582677,
                    "duration": 0.29999999999999716
                },
                {
                    "name": "F#4",
                    "midi": 66,
                    "time": 93.59999999999994,
                    "velocity": 0.3779527559055118,
                    "duration": 0.8999999999999773
                },
                {
                    "name": "F#3",
                    "midi": 54,
                    "time": 93.89999999999993,
                    "velocity": 0.25196850393700787,
                    "duration": 0.09999999999999432
                },
                {
                    "name": "A3",
                    "midi": 57,
                    "time": 93.99999999999993,
                    "velocity": 0.25196850393700787,
                    "duration": 0.09999999999999432
                },
                {
                    "name": "C#4",
                    "midi": 61,
                    "time": 94.09999999999992,
                    "velocity": 0.25196850393700787,
                    "duration": 0.09999999999999432
                },
                {
                    "name": "F#3",
                    "midi": 54,
                    "time": 94.19999999999992,
                    "velocity": 0.25196850393700787,
                    "duration": 0.29999999999999716
                },
                {
                    "name": "G#3",
                    "midi": 56,
                    "time": 94.49999999999991,
                    "velocity": 0.3779527559055118,
                    "duration": 0.09999999999999432
                },
                {
                    "name": "F4",
                    "midi": 65,
                    "time": 94.49999999999991,
                    "velocity": 0.5039370078740157,
                    "duration": 0.8999999999999488
                },
                {
                    "name": "A3",
                    "midi": 57,
                    "time": 94.59999999999991,
                    "velocity": 0.3937007874015748,
                    "duration": 0.09999999999999432
                },
                {
                    "name": "B3",
                    "midi": 59,
                    "time": 94.6999999999999,
                    "velocity": 0.41732283464566927,
                    "duration": 0.09999999999999432
                },
                {
                    "name": "C#4",
                    "midi": 61,
                    "time": 94.7999999999999,
                    "velocity": 0.4330708661417323,
                    "duration": 0.09999999999999432
                },
                {
                    "name": "D4",
                    "midi": 62,
                    "time": 94.89999999999989,
                    "velocity": 0.44881889763779526,
                    "duration": 0.09999999999999432
                },
                {
                    "name": "C#4",
                    "midi": 61,
                    "time": 94.99999999999989,
                    "velocity": 0.4330708661417323,
                    "duration": 0.09999999999999432
                },
                {
                    "name": "B3",
                    "midi": 59,
                    "time": 95.09999999999988,
                    "velocity": 0.41732283464566927,
                    "duration": 0.09999999999999432
                },
                {
                    "name": "A3",
                    "midi": 57,
                    "time": 95.19999999999987,
                    "velocity": 0.3937007874015748,
                    "duration": 0.09999999999999432
                },
                {
                    "name": "G#3",
                    "midi": 56,
                    "time": 95.29999999999987,
                    "velocity": 0.3779527559055118,
                    "duration": 0.09999999999999432
                },
                {
                    "name": "F#4",
                    "midi": 66,
                    "time": 95.39999999999986,
                    "velocity": 0.3779527559055118,
                    "duration": 0.8999999999999773
                },
                {
                    "name": "F#3",
                    "midi": 54,
                    "time": 95.69999999999986,
                    "velocity": 0.25196850393700787,
                    "duration": 0.09999999999999432
                },
                {
                    "name": "A3",
                    "midi": 57,
                    "time": 95.79999999999986,
                    "velocity": 0.25196850393700787,
                    "duration": 0.09999999999999432
                },
                {
                    "name": "C#4",
                    "midi": 61,
                    "time": 95.89999999999985,
                    "velocity": 0.25196850393700787,
                    "duration": 0.09999999999999432
                },
                {
                    "name": "F#3",
                    "midi": 54,
                    "time": 95.99999999999984,
                    "velocity": 0.25196850393700787,
                    "duration": 0.29999999999999716
                },
                {
                    "name": "F#4",
                    "midi": 66,
                    "time": 96.29999999999984,
                    "velocity": 0.6614173228346457,
                    "duration": 0.8999999999999773
                },
                {
                    "name": "F#3",
                    "midi": 54,
                    "time": 96.59999999999984,
                    "velocity": 0.5669291338582677,
                    "duration": 0.09999999999999432
                },
                {
                    "name": "B3",
                    "midi": 59,
                    "time": 96.69999999999983,
                    "velocity": 0.5196850393700787,
                    "duration": 0.09999999999999432
                },
                {
                    "name": "D4",
                    "midi": 62,
                    "time": 96.79999999999983,
                    "velocity": 0.5196850393700787,
                    "duration": 0.09999999999999432
                },
                {
                    "name": "F#3",
                    "midi": 54,
                    "time": 96.89999999999982,
                    "velocity": 0.5669291338582677,
                    "duration": 0.29999999999999716
                },
                {
                    "name": "F#4",
                    "midi": 66,
                    "time": 97.19999999999982,
                    "velocity": 0.3779527559055118,
                    "duration": 0.8999999999999773
                },
                {
                    "name": "F#3",
                    "midi": 54,
                    "time": 97.49999999999982,
                    "velocity": 0.25196850393700787,
                    "duration": 0.09999999999999432
                },
                {
                    "name": "A3",
                    "midi": 57,
                    "time": 97.59999999999981,
                    "velocity": 0.25196850393700787,
                    "duration": 0.09999999999999432
                },
                {
                    "name": "C#4",
                    "midi": 61,
                    "time": 97.6999999999998,
                    "velocity": 0.25196850393700787,
                    "duration": 0.09999999999999432
                },
                {
                    "name": "F#3",
                    "midi": 54,
                    "time": 97.7999999999998,
                    "velocity": 0.25196850393700787,
                    "duration": 0.29999999999999716
                },
                {
                    "name": "G#3",
                    "midi": 56,
                    "time": 98.0999999999998,
                    "velocity": 0.3779527559055118,
                    "duration": 0.09999999999999432
                },
                {
                    "name": "F4",
                    "midi": 65,
                    "time": 98.0999999999998,
                    "velocity": 0.5039370078740157,
                    "duration": 0.8999999999999488
                },
                {
                    "name": "A3",
                    "midi": 57,
                    "time": 98.19999999999979,
                    "velocity": 0.3937007874015748,
                    "duration": 0.09999999999999432
                },
                {
                    "name": "B3",
                    "midi": 59,
                    "time": 98.29999999999978,
                    "velocity": 0.41732283464566927,
                    "duration": 0.09999999999999432
                },
                {
                    "name": "C#4",
                    "midi": 61,
                    "time": 98.39999999999978,
                    "velocity": 0.4330708661417323,
                    "duration": 0.09999999999999432
                },
                {
                    "name": "D4",
                    "midi": 62,
                    "time": 98.49999999999977,
                    "velocity": 0.44881889763779526,
                    "duration": 0.09999999999999432
                },
                {
                    "name": "C#4",
                    "midi": 61,
                    "time": 98.59999999999977,
                    "velocity": 0.4330708661417323,
                    "duration": 0.09999999999999432
                },
                {
                    "name": "B3",
                    "midi": 59,
                    "time": 98.69999999999976,
                    "velocity": 0.41732283464566927,
                    "duration": 0.09999999999999432
                },
                {
                    "name": "A3",
                    "midi": 57,
                    "time": 98.79999999999976,
                    "velocity": 0.3937007874015748,
                    "duration": 0.09999999999999432
                },
                {
                    "name": "G#3",
                    "midi": 56,
                    "time": 98.89999999999975,
                    "velocity": 0.3779527559055118,
                    "duration": 0.09999999999999432
                },
                {
                    "name": "F#4",
                    "midi": 66,
                    "time": 98.99999999999974,
                    "velocity": 0.3779527559055118,
                    "duration": 0.8999999999999773
                },
                {
                    "name": "F#3",
                    "midi": 54,
                    "time": 99.29999999999974,
                    "velocity": 0.25196850393700787,
                    "duration": 0.09999999999999432
                },
                {
                    "name": "A3",
                    "midi": 57,
                    "time": 99.39999999999974,
                    "velocity": 0.25196850393700787,
                    "duration": 0.09999999999999432
                },
                {
                    "name": "C#4",
                    "midi": 61,
                    "time": 99.49999999999973,
                    "velocity": 0.25196850393700787,
                    "duration": 0.09999999999999432
                },
                {
                    "name": "F#3",
                    "midi": 54,
                    "time": 99.59999999999972,
                    "velocity": 0.25196850393700787,
                    "duration": 0.29999999999999716
                },
                {
                    "name": "C#5",
                    "midi": 73,
                    "time": 99.89999999999972,
                    "velocity": 0.6377952755905512,
                    "duration": 0.8999999999999773
                },
                {
                    "name": "C#4",
                    "midi": 61,
                    "time": 100.19999999999972,
                    "velocity": 0.5039370078740157,
                    "duration": 0.09999999999999432
                },
                {
                    "name": "F4",
                    "midi": 65,
                    "time": 100.29999999999971,
                    "velocity": 0.48031496062992124,
                    "duration": 0.09999999999999432
                },
                {
                    "name": "G#4",
                    "midi": 68,
                    "time": 100.39999999999971,
                    "velocity": 0.48031496062992124,
                    "duration": 0.09999999999999432
                },
                {
                    "name": "C#4",
                    "midi": 61,
                    "time": 100.4999999999997,
                    "velocity": 0.5039370078740157,
                    "duration": 0.29999999999999716
                },
                {
                    "name": "A#4",
                    "midi": 70,
                    "time": 100.7999999999997,
                    "velocity": 0.7007874015748031,
                    "duration": 0.8999999999999773
                },
                {
                    "name": "A#3",
                    "midi": 58,
                    "time": 101.0999999999997,
                    "velocity": 0.5984251968503937,
                    "duration": 0.09999999999999432
                },
                {
                    "name": "C#4",
                    "midi": 61,
                    "time": 101.19999999999969,
                    "velocity": 0.5590551181102362,
                    "duration": 0.09999999999999432
                },
                {
                    "name": "G4",
                    "midi": 67,
                    "time": 101.29999999999968,
                    "velocity": 0.5590551181102362,
                    "duration": 0.09999999999999432
                },
                {
                    "name": "A#3",
                    "midi": 58,
                    "time": 101.39999999999968,
                    "velocity": 0.5984251968503937,
                    "duration": 0.29999999999999716
                },
                {
                    "name": "B4",
                    "midi": 71,
                    "time": 101.69999999999968,
                    "velocity": 0.6377952755905512,
                    "duration": 0.30000000000001137
                },
                {
                    "name": "D4",
                    "midi": 62,
                    "time": 101.84999999999968,
                    "velocity": 0.44881889763779526,
                    "duration": 0.15000000000000568
                },
                {
                    "name": "F#4",
                    "midi": 66,
                    "time": 101.84999999999968,
                    "velocity": 0.5039370078740157,
                    "duration": 0.15000000000000568
                },
                {
                    "name": "C#5",
                    "midi": 73,
                    "time": 101.99999999999969,
                    "velocity": 0.6377952755905512,
                    "duration": 0.30000000000001137
                },
                {
                    "name": "E4",
                    "midi": 64,
                    "time": 102.1499999999997,
                    "velocity": 0.44881889763779526,
                    "duration": 0.15000000000000568
                },
                {
                    "name": "F#4",
                    "midi": 66,
                    "time": 102.1499999999997,
                    "velocity": 0.5039370078740157,
                    "duration": 0.15000000000000568
                },
                {
                    "name": "D5",
                    "midi": 74,
                    "time": 102.2999999999997,
                    "velocity": 0.6377952755905512,
                    "duration": 0.30000000000001137
                },
                {
                    "name": "D4",
                    "midi": 62,
                    "time": 102.4499999999997,
                    "velocity": 0.44881889763779526,
                    "duration": 0.15000000000000568
                },
                {
                    "name": "F#4",
                    "midi": 66,
                    "time": 102.4499999999997,
                    "velocity": 0.5039370078740157,
                    "duration": 0.15000000000000568
                },
                {
                    "name": "C#5",
                    "midi": 73,
                    "time": 102.59999999999971,
                    "velocity": 0.6377952755905512,
                    "duration": 0.8999999999999773
                },
                {
                    "name": "C#4",
                    "midi": 61,
                    "time": 102.89999999999971,
                    "velocity": 0.5039370078740157,
                    "duration": 0.09999999999999432
                },
                {
                    "name": "F#4",
                    "midi": 66,
                    "time": 102.9999999999997,
                    "velocity": 0.5039370078740157,
                    "duration": 0.09999999999999432
                },
                {
                    "name": "A#4",
                    "midi": 70,
                    "time": 103.0999999999997,
                    "velocity": 0.5039370078740157,
                    "duration": 0.09999999999999432
                },
                {
                    "name": "C#4",
                    "midi": 61,
                    "time": 103.19999999999969,
                    "velocity": 0.5039370078740157,
                    "duration": 0.29999999999999716
                },
                {
                    "name": "F#5",
                    "midi": 78,
                    "time": 103.49999999999969,
                    "velocity": 0.6377952755905512,
                    "duration": 0.8999999999999773
                },
                {
                    "name": "F#4",
                    "midi": 66,
                    "time": 103.79999999999968,
                    "velocity": 0.5039370078740157,
                    "duration": 0.09999999999999432
                },
                {
                    "name": "A#4",
                    "midi": 70,
                    "time": 103.89999999999968,
                    "velocity": 0.4645669291338583,
                    "duration": 0.09999999999999432
                },
                {
                    "name": "C#5",
                    "midi": 73,
                    "time": 103.99999999999967,
                    "velocity": 0.4645669291338583,
                    "duration": 0.09999999999999432
                },
                {
                    "name": "F#4",
                    "midi": 66,
                    "time": 104.09999999999967,
                    "velocity": 0.5039370078740157,
                    "duration": 0.29999999999999716
                },
                {
                    "name": "D#5",
                    "midi": 75,
                    "time": 104.39999999999966,
                    "velocity": 0.7086614173228346,
                    "duration": 0.8999999999999773
                },
                {
                    "name": "D#4",
                    "midi": 63,
                    "time": 104.69999999999966,
                    "velocity": 0.5984251968503937,
                    "duration": 0.09999999999999432
                },
                {
                    "name": "F#4",
                    "midi": 66,
                    "time": 104.79999999999966,
                    "velocity": 0.5118110236220472,
                    "duration": 0.09999999999999432
                },
                {
                    "name": "C5",
                    "midi": 72,
                    "time": 104.89999999999965,
                    "velocity": 0.48031496062992124,
                    "duration": 0.09999999999999432
                },
                {
                    "name": "D#4",
                    "midi": 63,
                    "time": 104.99999999999964,
                    "velocity": 0.5984251968503937,
                    "duration": 0.29999999999999716
                },
                {
                    "name": "E5",
                    "midi": 76,
                    "time": 105.29999999999964,
                    "velocity": 0.6771653543307087,
                    "duration": 0.30000000000001137
                },
                {
                    "name": "G4",
                    "midi": 67,
                    "time": 105.44999999999965,
                    "velocity": 0.5039370078740157,
                    "duration": 0.15000000000000568
                },
                {
                    "name": "B4",
                    "midi": 71,
                    "time": 105.44999999999965,
                    "velocity": 0.5669291338582677,
                    "duration": 0.15000000000000568
                },
                {
                    "name": "F#5",
                    "midi": 78,
                    "time": 105.59999999999965,
                    "velocity": 0.6771653543307087,
                    "duration": 0.30000000000001137
                },
                {
                    "name": "A4",
                    "midi": 69,
                    "time": 105.74999999999966,
                    "velocity": 0.5039370078740157,
                    "duration": 0.15000000000000568
                },
                {
                    "name": "B4",
                    "midi": 71,
                    "time": 105.74999999999966,
                    "velocity": 0.5669291338582677,
                    "duration": 0.15000000000000568
                },
                {
                    "name": "G5",
                    "midi": 79,
                    "time": 105.89999999999966,
                    "velocity": 0.6771653543307087,
                    "duration": 0.30000000000001137
                },
                {
                    "name": "G4",
                    "midi": 67,
                    "time": 106.04999999999967,
                    "velocity": 0.5039370078740157,
                    "duration": 0.15000000000000568
                },
                {
                    "name": "B4",
                    "midi": 71,
                    "time": 106.04999999999967,
                    "velocity": 0.5669291338582677,
                    "duration": 0.15000000000000568
                },
                {
                    "name": "F#5",
                    "midi": 78,
                    "time": 106.19999999999968,
                    "velocity": 0.6614173228346457,
                    "duration": 0.8999999999999773
                },
                {
                    "name": "F#4",
                    "midi": 66,
                    "time": 106.49999999999967,
                    "velocity": 0.5354330708661418,
                    "duration": 0.09999999999999432
                },
                {
                    "name": "B4",
                    "midi": 71,
                    "time": 106.59999999999967,
                    "velocity": 0.5354330708661418,
                    "duration": 0.09999999999999432
                },
                {
                    "name": "D5",
                    "midi": 74,
                    "time": 106.69999999999966,
                    "velocity": 0.5354330708661418,
                    "duration": 0.09999999999999432
                },
                {
                    "name": "F#4",
                    "midi": 66,
                    "time": 106.79999999999966,
                    "velocity": 0.5354330708661418,
                    "duration": 0.29999999999999716
                },
                {
                    "name": "D5",
                    "midi": 74,
                    "time": 107.09999999999965,
                    "velocity": 0.6377952755905512,
                    "duration": 0.30000000000001137
                },
                {
                    "name": "G#4",
                    "midi": 68,
                    "time": 107.24999999999966,
                    "velocity": 0.5039370078740157,
                    "duration": 0.15000000000000568
                },
                {
                    "name": "F#4",
                    "midi": 66,
                    "time": 107.24999999999966,
                    "velocity": 0.44881889763779526,
                    "duration": 0.15000000000000568
                },
                {
                    "name": "C#5",
                    "midi": 73,
                    "time": 107.39999999999966,
                    "velocity": 0.6377952755905512,
                    "duration": 0.30000000000001137
                },
                {
                    "name": "G#4",
                    "midi": 68,
                    "time": 107.54999999999967,
                    "velocity": 0.5039370078740157,
                    "duration": 0.15000000000000568
                },
                {
                    "name": "F#4",
                    "midi": 66,
                    "time": 107.54999999999967,
                    "velocity": 0.44881889763779526,
                    "duration": 0.15000000000000568
                },
                {
                    "name": "B4",
                    "midi": 71,
                    "time": 107.69999999999968,
                    "velocity": 0.6377952755905512,
                    "duration": 0.30000000000001137
                },
                {
                    "name": "G#4",
                    "midi": 68,
                    "time": 107.84999999999968,
                    "velocity": 0.5039370078740157,
                    "duration": 0.15000000000000568
                },
                {
                    "name": "F#4",
                    "midi": 66,
                    "time": 107.84999999999968,
                    "velocity": 0.44881889763779526,
                    "duration": 0.15000000000000568
                },
                {
                    "name": "C#5",
                    "midi": 73,
                    "time": 107.99999999999969,
                    "velocity": 0.6771653543307087,
                    "duration": 0.8999999999999773
                },
                {
                    "name": "C#4",
                    "midi": 61,
                    "time": 108.29999999999968,
                    "velocity": 0.48031496062992124,
                    "duration": 0.09999999999999432
                },
                {
                    "name": "F4",
                    "midi": 65,
                    "time": 108.39999999999968,
                    "velocity": 0.48031496062992124,
                    "duration": 0.09999999999999432
                },
                {
                    "name": "G#4",
                    "midi": 68,
                    "time": 108.49999999999967,
                    "velocity": 0.48031496062992124,
                    "duration": 0.09999999999999432
                },
                {
                    "name": "C#4",
                    "midi": 61,
                    "time": 108.59999999999967,
                    "velocity": 0.48031496062992124,
                    "duration": 0.29999999999999716
                },
                {
                    "name": "A4",
                    "midi": 69,
                    "time": 108.89999999999966,
                    "velocity": 0.6377952755905512,
                    "duration": 0.30000000000001137
                },
                {
                    "name": "C#4",
                    "midi": 61,
                    "time": 109.04999999999967,
                    "velocity": 0.44881889763779526,
                    "duration": 0.15000000000000568
                },
                {
                    "name": "D#4",
                    "midi": 63,
                    "time": 109.04999999999967,
                    "velocity": 0.5039370078740157,
                    "duration": 0.15000000000000568
                },
                {
                    "name": "G#4",
                    "midi": 68,
                    "time": 109.19999999999968,
                    "velocity": 0.6377952755905512,
                    "duration": 0.30000000000001137
                },
                {
                    "name": "C#4",
                    "midi": 61,
                    "time": 109.34999999999968,
                    "velocity": 0.44881889763779526,
                    "duration": 0.15000000000000568
                },
                {
                    "name": "D#4",
                    "midi": 63,
                    "time": 109.34999999999968,
                    "velocity": 0.5039370078740157,
                    "duration": 0.15000000000000568
                },
                {
                    "name": "F#4",
                    "midi": 66,
                    "time": 109.49999999999969,
                    "velocity": 0.6377952755905512,
                    "duration": 0.30000000000001137
                },
                {
                    "name": "C#4",
                    "midi": 61,
                    "time": 109.6499999999997,
                    "velocity": 0.44881889763779526,
                    "duration": 0.15000000000000568
                },
                {
                    "name": "D#4",
                    "midi": 63,
                    "time": 109.6499999999997,
                    "velocity": 0.5039370078740157,
                    "duration": 0.15000000000000568
                },
                {
                    "name": "G#4",
                    "midi": 68,
                    "time": 109.7999999999997,
                    "velocity": 0.6771653543307087,
                    "duration": 0.8999999999999773
                },
                {
                    "name": "G#3",
                    "midi": 56,
                    "time": 110.0999999999997,
                    "velocity": 0.5039370078740157,
                    "duration": 0.09999999999999432
                },
                {
                    "name": "C4",
                    "midi": 60,
                    "time": 110.19999999999969,
                    "velocity": 0.5039370078740157,
                    "duration": 0.09999999999999432
                },
                {
                    "name": "D#4",
                    "midi": 63,
                    "time": 110.29999999999968,
                    "velocity": 0.5039370078740157,
                    "duration": 0.09999999999999432
                },
                {
                    "name": "G#3",
                    "midi": 56,
                    "time": 110.39999999999968,
                    "velocity": 0.5039370078740157,
                    "duration": 0.29999999999999716
                },
                {
                    "name": "F4",
                    "midi": 65,
                    "time": 110.69999999999968,
                    "velocity": 0.5039370078740157,
                    "duration": 0.9000000000000057
                },
                {
                    "name": "F#4",
                    "midi": 66,
                    "time": 111.59999999999968,
                    "velocity": 0.5118110236220472,
                    "duration": 0.9000000000000057
                },
                {
                    "name": "B4",
                    "midi": 71,
                    "time": 114.29999999999968,
                    "velocity": 0.3779527559055118,
                    "duration": 0.8999999999999773
                },
                {
                    "name": "B3",
                    "midi": 59,
                    "time": 114.59999999999968,
                    "velocity": 0.3779527559055118,
                    "duration": 0.09999999999999432
                },
                {
                    "name": "D4",
                    "midi": 62,
                    "time": 114.69999999999968,
                    "velocity": 0.25196850393700787,
                    "duration": 0.09999999999999432
                },
                {
                    "name": "F#4",
                    "midi": 66,
                    "time": 114.79999999999967,
                    "velocity": 0.25196850393700787,
                    "duration": 0.09999999999999432
                },
                {
                    "name": "B3",
                    "midi": 59,
                    "time": 114.89999999999966,
                    "velocity": 0.25196850393700787,
                    "duration": 0.29999999999999716
                },
                {
                    "name": "B4",
                    "midi": 71,
                    "time": 115.19999999999966,
                    "velocity": 0.3779527559055118,
                    "duration": 0.8999999999999773
                },
                {
                    "name": "B3",
                    "midi": 59,
                    "time": 115.49999999999966,
                    "velocity": 0.25196850393700787,
                    "duration": 0.09999999999999432
                },
                {
                    "name": "C#4",
                    "midi": 61,
                    "time": 115.59999999999965,
                    "velocity": 0.25196850393700787,
                    "duration": 0.09999999999999432
                },
                {
                    "name": "G4",
                    "midi": 67,
                    "time": 115.69999999999965,
                    "velocity": 0.25196850393700787,
                    "duration": 0.09999999999999432
                },
                {
                    "name": "B3",
                    "midi": 59,
                    "time": 115.79999999999964,
                    "velocity": 0.25196850393700787,
                    "duration": 0.29999999999999716
                },
                {
                    "name": "B4",
                    "midi": 71,
                    "time": 116.09999999999964,
                    "velocity": 0.3779527559055118,
                    "duration": 0.30000000000001137
                },
                {
                    "name": "D4",
                    "midi": 62,
                    "time": 116.24999999999964,
                    "velocity": 0.2204724409448819,
                    "duration": 0.15000000000000568
                },
                {
                    "name": "F#4",
                    "midi": 66,
                    "time": 116.24999999999964,
                    "velocity": 0.25196850393700787,
                    "duration": 0.15000000000000568
                },
                {
                    "name": "C#5",
                    "midi": 73,
                    "time": 116.39999999999965,
                    "velocity": 0.3779527559055118,
                    "duration": 0.30000000000001137
                },
                {
                    "name": "E4",
                    "midi": 64,
                    "time": 116.54999999999966,
                    "velocity": 0.2204724409448819,
                    "duration": 0.15000000000000568
                },
                {
                    "name": "F#4",
                    "midi": 66,
                    "time": 116.54999999999966,
                    "velocity": 0.25196850393700787,
                    "duration": 0.15000000000000568
                },
                {
                    "name": "D5",
                    "midi": 74,
                    "time": 116.69999999999966,
                    "velocity": 0.3779527559055118,
                    "duration": 0.30000000000001137
                },
                {
                    "name": "D4",
                    "midi": 62,
                    "time": 116.84999999999967,
                    "velocity": 0.2204724409448819,
                    "duration": 0.15000000000000568
                },
                {
                    "name": "F#4",
                    "midi": 66,
                    "time": 116.84999999999967,
                    "velocity": 0.25196850393700787,
                    "duration": 0.15000000000000568
                },
                {
                    "name": "C#5",
                    "midi": 73,
                    "time": 116.99999999999967,
                    "velocity": 0.3779527559055118,
                    "duration": 0.8999999999999773
                },
                {
                    "name": "C#4",
                    "midi": 61,
                    "time": 117.29999999999967,
                    "velocity": 0.25196850393700787,
                    "duration": 0.09999999999999432
                },
                {
                    "name": "F#4",
                    "midi": 66,
                    "time": 117.39999999999966,
                    "velocity": 0.25196850393700787,
                    "duration": 0.09999999999999432
                },
                {
                    "name": "A#4",
                    "midi": 70,
                    "time": 117.49999999999966,
                    "velocity": 0.25196850393700787,
                    "duration": 0.09999999999999432
                },
                {
                    "name": "C#4",
                    "midi": 61,
                    "time": 117.59999999999965,
                    "velocity": 0.25196850393700787,
                    "duration": 0.29999999999999716
                },
                {
                    "name": "F#5",
                    "midi": 78,
                    "time": 117.89999999999965,
                    "velocity": 0.4330708661417323,
                    "duration": 0.8999999999999773
                },
                {
                    "name": "F#4",
                    "midi": 66,
                    "time": 118.19999999999965,
                    "velocity": 0.25196850393700787,
                    "duration": 0.09999999999999432
                },
                {
                    "name": "A#4",
                    "midi": 70,
                    "time": 118.29999999999964,
                    "velocity": 0.25196850393700787,
                    "duration": 0.09999999999999432
                },
                {
                    "name": "C#5",
                    "midi": 73,
                    "time": 118.39999999999964,
                    "velocity": 0.25196850393700787,
                    "duration": 0.09999999999999432
                },
                {
                    "name": "F#4",
                    "midi": 66,
                    "time": 118.49999999999963,
                    "velocity": 0.25196850393700787,
                    "duration": 0.29999999999999716
                },
                {
                    "name": "D5",
                    "midi": 74,
                    "time": 118.79999999999963,
                    "velocity": 0.4015748031496063,
                    "duration": 0.8999999999999773
                },
                {
                    "name": "D4",
                    "midi": 62,
                    "time": 119.09999999999962,
                    "velocity": 0.25196850393700787,
                    "duration": 0.09999999999999432
                },
                {
                    "name": "F#4",
                    "midi": 66,
                    "time": 119.19999999999962,
                    "velocity": 0.25196850393700787,
                    "duration": 0.09999999999999432
                },
                {
                    "name": "B4",
                    "midi": 71,
                    "time": 119.29999999999961,
                    "velocity": 0.25196850393700787,
                    "duration": 0.09999999999999432
                },
                {
                    "name": "D4",
                    "midi": 62,
                    "time": 119.39999999999961,
                    "velocity": 0.25196850393700787,
                    "duration": 0.29999999999999716
                },
                {
                    "name": "B4",
                    "midi": 71,
                    "time": 119.6999999999996,
                    "velocity": 0.25196850393700787,
                    "duration": 0.15000000000000568
                },
                {
                    "name": "C#5",
                    "midi": 73,
                    "time": 119.6999999999996,
                    "velocity": 0.3779527559055118,
                    "duration": 0.30000000000001137
                },
                {
                    "name": "E4",
                    "midi": 64,
                    "time": 119.84999999999961,
                    "velocity": 0.25196850393700787,
                    "duration": 0.15000000000000568
                },
                {
                    "name": "B4",
                    "midi": 71,
                    "time": 119.99999999999962,
                    "velocity": 0.25196850393700787,
                    "duration": 0.15000000000000568
                },
                {
                    "name": "E5",
                    "midi": 76,
                    "time": 119.99999999999962,
                    "velocity": 0.3779527559055118,
                    "duration": 0.30000000000001137
                },
                {
                    "name": "E4",
                    "midi": 64,
                    "time": 120.14999999999962,
                    "velocity": 0.25196850393700787,
                    "duration": 0.15000000000000568
                },
                {
                    "name": "B4",
                    "midi": 71,
                    "time": 120.29999999999963,
                    "velocity": 0.25196850393700787,
                    "duration": 0.15000000000000568
                },
                {
                    "name": "C#5",
                    "midi": 73,
                    "time": 120.29999999999963,
                    "velocity": 0.3779527559055118,
                    "duration": 0.30000000000001137
                },
                {
                    "name": "E4",
                    "midi": 64,
                    "time": 120.44999999999963,
                    "velocity": 0.25196850393700787,
                    "duration": 0.15000000000000568
                },
                {
                    "name": "D5",
                    "midi": 74,
                    "time": 120.59999999999964,
                    "velocity": 0.3779527559055118,
                    "duration": 0.8999999999999773
                },
                {
                    "name": "D4",
                    "midi": 62,
                    "time": 120.89999999999964,
                    "velocity": 0.25196850393700787,
                    "duration": 0.09999999999999432
                },
                {
                    "name": "F#4",
                    "midi": 66,
                    "time": 120.99999999999963,
                    "velocity": 0.25196850393700787,
                    "duration": 0.09999999999999432
                },
                {
                    "name": "B4",
                    "midi": 71,
                    "time": 121.09999999999962,
                    "velocity": 0.25196850393700787,
                    "duration": 0.09999999999999432
                },
                {
                    "name": "D4",
                    "midi": 62,
                    "time": 121.19999999999962,
                    "velocity": 0.25196850393700787,
                    "duration": 0.29999999999999716
                },
                {
                    "name": "E5",
                    "midi": 76,
                    "time": 121.49999999999962,
                    "velocity": 0.6220472440944882,
                    "duration": 0.8999999999999773
                },
                {
                    "name": "E4",
                    "midi": 64,
                    "time": 121.79999999999961,
                    "velocity": 0.5039370078740157,
                    "duration": 0.09999999999999432
                },
                {
                    "name": "G4",
                    "midi": 67,
                    "time": 121.89999999999961,
                    "velocity": 0.4566929133858268,
                    "duration": 0.09999999999999432
                },
                {
                    "name": "B4",
                    "midi": 71,
                    "time": 121.9999999999996,
                    "velocity": 0.4566929133858268,
                    "duration": 0.09999999999999432
                },
                {
                    "name": "E4",
                    "midi": 64,
                    "time": 122.0999999999996,
                    "velocity": 0.5039370078740157,
                    "duration": 0.29999999999999716
                },
                {
                    "name": "E5",
                    "midi": 76,
                    "time": 122.3999999999996,
                    "velocity": 0.6141732283464567,
                    "duration": 0.8999999999999773
                },
                {
                    "name": "E4",
                    "midi": 64,
                    "time": 122.69999999999959,
                    "velocity": 0.5039370078740157,
                    "duration": 0.09999999999999432
                },
                {
                    "name": "F#4",
                    "midi": 66,
                    "time": 122.79999999999959,
                    "velocity": 0.4645669291338583,
                    "duration": 0.09999999999999432
                },
                {
                    "name": "C5",
                    "midi": 72,
                    "time": 122.89999999999958,
                    "velocity": 0.4645669291338583,
                    "duration": 0.09999999999999432
                },
                {
                    "name": "E4",
                    "midi": 64,
                    "time": 122.99999999999957,
                    "velocity": 0.5039370078740157,
                    "duration": 0.29999999999999716
                },
                {
                    "name": "E5",
                    "midi": 76,
                    "time": 123.29999999999957,
                    "velocity": 0.5669291338582677,
                    "duration": 0.30000000000001137
                },
                {
                    "name": "G4",
                    "midi": 67,
                    "time": 123.44999999999958,
                    "velocity": 0.44881889763779526,
                    "duration": 0.15000000000000568
                },
                {
                    "name": "B4",
                    "midi": 71,
                    "time": 123.44999999999958,
                    "velocity": 0.5039370078740157,
                    "duration": 0.15000000000000568
                },
                {
                    "name": "F#5",
                    "midi": 78,
                    "time": 123.59999999999958,
                    "velocity": 0.5669291338582677,
                    "duration": 0.30000000000001137
                },
                {
                    "name": "A4",
                    "midi": 69,
                    "time": 123.74999999999959,
                    "velocity": 0.44881889763779526,
                    "duration": 0.15000000000000568
                },
                {
                    "name": "B4",
                    "midi": 71,
                    "time": 123.74999999999959,
                    "velocity": 0.5039370078740157,
                    "duration": 0.15000000000000568
                },
                {
                    "name": "G5",
                    "midi": 79,
                    "time": 123.8999999999996,
                    "velocity": 0.5669291338582677,
                    "duration": 0.30000000000001137
                },
                {
                    "name": "G4",
                    "midi": 67,
                    "time": 124.0499999999996,
                    "velocity": 0.44881889763779526,
                    "duration": 0.15000000000000568
                },
                {
                    "name": "B4",
                    "midi": 71,
                    "time": 124.0499999999996,
                    "velocity": 0.5039370078740157,
                    "duration": 0.15000000000000568
                },
                {
                    "name": "F#5",
                    "midi": 78,
                    "time": 124.1999999999996,
                    "velocity": 0.5669291338582677,
                    "duration": 0.8999999999999773
                },
                {
                    "name": "F#4",
                    "midi": 66,
                    "time": 124.4999999999996,
                    "velocity": 0.4409448818897638,
                    "duration": 0.09999999999999432
                },
                {
                    "name": "B4",
                    "midi": 71,
                    "time": 124.5999999999996,
                    "velocity": 0.4409448818897638,
                    "duration": 0.09999999999999432
                },
                {
                    "name": "D#5",
                    "midi": 75,
                    "time": 124.69999999999959,
                    "velocity": 0.4409448818897638,
                    "duration": 0.09999999999999432
                },
                {
                    "name": "F#4",
                    "midi": 66,
                    "time": 124.79999999999959,
                    "velocity": 0.4409448818897638,
                    "duration": 0.29999999999999716
                },
                {
                    "name": "B5",
                    "midi": 83,
                    "time": 125.09999999999958,
                    "velocity": 0.6141732283464567,
                    "duration": 0.8999999999999773
                },
                {
                    "name": "B4",
                    "midi": 71,
                    "time": 125.39999999999958,
                    "velocity": 0.5039370078740157,
                    "duration": 0.09999999999999432
                },
                {
                    "name": "D#5",
                    "midi": 75,
                    "time": 125.49999999999957,
                    "velocity": 0.47244094488188976,
                    "duration": 0.09999999999999432
                },
                {
                    "name": "F#5",
                    "midi": 78,
                    "time": 125.59999999999957,
                    "velocity": 0.47244094488188976,
                    "duration": 0.09999999999999432
                },
                {
                    "name": "B4",
                    "midi": 71,
                    "time": 125.69999999999956,
                    "velocity": 0.5039370078740157,
                    "duration": 0.29999999999999716
                },
                {
                    "name": "G5",
                    "midi": 79,
                    "time": 125.99999999999956,
                    "velocity": 0.6141732283464567,
                    "duration": 0.8999999999999773
                },
                {
                    "name": "G4",
                    "midi": 67,
                    "time": 126.29999999999956,
                    "velocity": 0.5039370078740157,
                    "duration": 0.09999999999999432
                },
                {
                    "name": "B4",
                    "midi": 71,
                    "time": 126.39999999999955,
                    "velocity": 0.4566929133858268,
                    "duration": 0.09999999999999432
                },
                {
                    "name": "E5",
                    "midi": 76,
                    "time": 126.49999999999955,
                    "velocity": 0.4566929133858268,
                    "duration": 0.09999999999999432
                },
                {
                    "name": "G4",
                    "midi": 67,
                    "time": 126.59999999999954,
                    "velocity": 0.5039370078740157,
                    "duration": 0.29999999999999716
                },
                {
                    "name": "E5",
                    "midi": 76,
                    "time": 126.89999999999954,
                    "velocity": 0.5039370078740157,
                    "duration": 0.30000000000001137
                },
                {
                    "name": "A4",
                    "midi": 69,
                    "time": 127.04999999999954,
                    "velocity": 0.3543307086614173,
                    "duration": 0.15000000000000568
                },
                {
                    "name": "B4",
                    "midi": 71,
                    "time": 127.04999999999954,
                    "velocity": 0.3937007874015748,
                    "duration": 0.15000000000000568
                },
                {
                    "name": "G5",
                    "midi": 79,
                    "time": 127.19999999999955,
                    "velocity": 0.5669291338582677,
                    "duration": 0.30000000000001137
                },
                {
                    "name": "B4",
                    "midi": 71,
                    "time": 127.34999999999955,
                    "velocity": 0.4251968503937008,
                    "duration": 0.15000000000000568
                },
                {
                    "name": "C#5",
                    "midi": 73,
                    "time": 127.34999999999955,
                    "velocity": 0.48031496062992124,
                    "duration": 0.15000000000000568
                },
                {
                    "name": "E5",
                    "midi": 76,
                    "time": 127.49999999999956,
                    "velocity": 0.5039370078740157,
                    "duration": 0.30000000000001137
                },
                {
                    "name": "C#5",
                    "midi": 73,
                    "time": 127.64999999999957,
                    "velocity": 0.3937007874015748,
                    "duration": 0.15000000000000568
                },
                {
                    "name": "B4",
                    "midi": 71,
                    "time": 127.64999999999957,
                    "velocity": 0.4015748031496063,
                    "duration": 0.15000000000000568
                },
                {
                    "name": "F#5",
                    "midi": 78,
                    "time": 127.79999999999957,
                    "velocity": 0.5669291338582677,
                    "duration": 0.8999999999999915
                },
                {
                    "name": "F#4",
                    "midi": 66,
                    "time": 128.09999999999957,
                    "velocity": 0.5039370078740157,
                    "duration": 0.09999999999999432
                },
                {
                    "name": "A#4",
                    "midi": 70,
                    "time": 128.19999999999956,
                    "velocity": 0.47244094488188976,
                    "duration": 0.09999999999999432
                },
                {
                    "name": "C#5",
                    "midi": 73,
                    "time": 128.29999999999956,
                    "velocity": 0.47244094488188976,
                    "duration": 0.09999999999999432
                },
                {
                    "name": "F#4",
                    "midi": 66,
                    "time": 128.39999999999955,
                    "velocity": 0.5039370078740157,
                    "duration": 0.30000000000001137
                },
                {
                    "name": "D5",
                    "midi": 74,
                    "time": 128.69999999999956,
                    "velocity": 0.4094488188976378,
                    "duration": 0.9000000000000057
                },
                {
                    "name": "D4",
                    "midi": 62,
                    "time": 128.99999999999957,
                    "velocity": 0.25196850393700787,
                    "duration": 0.09999999999999432
                },
                {
                    "name": "F#4",
                    "midi": 66,
                    "time": 129.09999999999957,
                    "velocity": 0.25196850393700787,
                    "duration": 0.09999999999999432
                },
                {
                    "name": "B4",
                    "midi": 71,
                    "time": 129.19999999999956,
                    "velocity": 0.25196850393700787,
                    "duration": 0.09999999999999432
                },
                {
                    "name": "D4",
                    "midi": 62,
                    "time": 129.29999999999956,
                    "velocity": 0.25196850393700787,
                    "duration": 0.30000000000001137
                },
                {
                    "name": "C5",
                    "midi": 72,
                    "time": 129.59999999999957,
                    "velocity": 0.3779527559055118,
                    "duration": 0.9000000000000057
                },
                {
                    "name": "C4",
                    "midi": 60,
                    "time": 129.89999999999958,
                    "velocity": 0.25196850393700787,
                    "duration": 0.09999999999999432
                },
                {
                    "name": "E4",
                    "midi": 64,
                    "time": 129.99999999999957,
                    "velocity": 0.25196850393700787,
                    "duration": 0.09999999999999432
                },
                {
                    "name": "G4",
                    "midi": 67,
                    "time": 130.09999999999957,
                    "velocity": 0.25196850393700787,
                    "duration": 0.09999999999999432
                },
                {
                    "name": "C4",
                    "midi": 60,
                    "time": 130.19999999999956,
                    "velocity": 0.25196850393700787,
                    "duration": 0.30000000000001137
                },
                {
                    "name": "F#4",
                    "midi": 66,
                    "time": 130.49999999999957,
                    "velocity": 0.3700787401574803,
                    "duration": 0.15000000000000568
                },
                {
                    "name": "A#4",
                    "midi": 70,
                    "time": 130.49999999999957,
                    "velocity": 0.3700787401574803,
                    "duration": 0.30000000000001137
                },
                {
                    "name": "C#4",
                    "midi": 61,
                    "time": 130.64999999999958,
                    "velocity": 0.31496062992125984,
                    "duration": 0.15000000000000568
                },
                {
                    "name": "F#4",
                    "midi": 66,
                    "time": 130.79999999999959,
                    "velocity": 0.3700787401574803,
                    "duration": 0.15000000000000568
                },
                {
                    "name": "C#5",
                    "midi": 73,
                    "time": 130.79999999999959,
                    "velocity": 0.3700787401574803,
                    "duration": 0.30000000000001137
                },
                {
                    "name": "C#4",
                    "midi": 61,
                    "time": 130.9499999999996,
                    "velocity": 0.30708661417322836,
                    "duration": 0.15000000000000568
                },
                {
                    "name": "F#4",
                    "midi": 66,
                    "time": 131.0999999999996,
                    "velocity": 0.3700787401574803,
                    "duration": 0.15000000000000568
                },
                {
                    "name": "A#4",
                    "midi": 70,
                    "time": 131.0999999999996,
                    "velocity": 0.3700787401574803,
                    "duration": 0.30000000000001137
                },
                {
                    "name": "C#4",
                    "midi": 61,
                    "time": 131.2499999999996,
                    "velocity": 0.2992125984251969,
                    "duration": 0.15000000000000568
                },
                {
                    "name": "B4",
                    "midi": 71,
                    "time": 131.3999999999996,
                    "velocity": 0.3700787401574803,
                    "duration": 0.9000000000000057
                },
                {
                    "name": "B3",
                    "midi": 59,
                    "time": 131.69999999999962,
                    "velocity": 0.25196850393700787,
                    "duration": 0.09999999999999432
                },
                {
                    "name": "D4",
                    "midi": 62,
                    "time": 131.7999999999996,
                    "velocity": 0.25196850393700787,
                    "duration": 0.09999999999999432
                },
                {
                    "name": "F#4",
                    "midi": 66,
                    "time": 131.8999999999996,
                    "velocity": 0.25196850393700787,
                    "duration": 0.09999999999999432
                },
                {
                    "name": "B3",
                    "midi": 59,
                    "time": 131.9999999999996,
                    "velocity": 0.25196850393700787,
                    "duration": 0.30000000000001137
                },
                {
                    "name": "B4",
                    "midi": 71,
                    "time": 132.2999999999996,
                    "velocity": 0.6692913385826772,
                    "duration": 0.9000000000000057
                },
                {
                    "name": "B3",
                    "midi": 59,
                    "time": 132.59999999999962,
                    "velocity": 0.5275590551181102,
                    "duration": 0.09999999999999432
                },
                {
                    "name": "E4",
                    "midi": 64,
                    "time": 132.69999999999962,
                    "velocity": 0.48031496062992124,
                    "duration": 0.09999999999999432
                },
                {
                    "name": "G4",
                    "midi": 67,
                    "time": 132.7999999999996,
                    "velocity": 0.48031496062992124,
                    "duration": 0.09999999999999432
                },
                {
                    "name": "B3",
                    "midi": 59,
                    "time": 132.8999999999996,
                    "velocity": 0.5275590551181102,
                    "duration": 0.30000000000001137
                },
                {
                    "name": "B4",
                    "midi": 71,
                    "time": 133.19999999999962,
                    "velocity": 0.3779527559055118,
                    "duration": 0.9000000000000057
                },
                {
                    "name": "B3",
                    "midi": 59,
                    "time": 133.49999999999963,
                    "velocity": 0.25196850393700787,
                    "duration": 0.09999999999999432
                },
                {
                    "name": "D4",
                    "midi": 62,
                    "time": 133.59999999999962,
                    "velocity": 0.25196850393700787,
                    "duration": 0.09999999999999432
                },
                {
                    "name": "F#4",
                    "midi": 66,
                    "time": 133.69999999999962,
                    "velocity": 0.25196850393700787,
                    "duration": 0.09999999999999432
                },
                {
                    "name": "B3",
                    "midi": 59,
                    "time": 133.7999999999996,
                    "velocity": 0.25196850393700787,
                    "duration": 0.30000000000001137
                },
                {
                    "name": "C#4",
                    "midi": 61,
                    "time": 134.09999999999962,
                    "velocity": 0.25196850393700787,
                    "duration": 0.09999999999999432
                },
                {
                    "name": "A#4",
                    "midi": 70,
                    "time": 134.09999999999962,
                    "velocity": 0.3779527559055118,
                    "duration": 0.8999999999999488
                },
                {
                    "name": "D4",
                    "midi": 62,
                    "time": 134.19999999999962,
                    "velocity": 0.2677165354330709,
                    "duration": 0.09999999999999432
                },
                {
                    "name": "E4",
                    "midi": 64,
                    "time": 134.2999999999996,
                    "velocity": 0.28346456692913385,
                    "duration": 0.09999999999999432
                },
                {
                    "name": "F#4",
                    "midi": 66,
                    "time": 134.3999999999996,
                    "velocity": 0.30708661417322836,
                    "duration": 0.09999999999999432
                },
                {
                    "name": "G4",
                    "midi": 67,
                    "time": 134.4999999999996,
                    "velocity": 0.3228346456692913,
                    "duration": 0.09999999999999432
                },
                {
                    "name": "F#4",
                    "midi": 66,
                    "time": 134.5999999999996,
                    "velocity": 0.30708661417322836,
                    "duration": 0.09999999999999432
                },
                {
                    "name": "E4",
                    "midi": 64,
                    "time": 134.6999999999996,
                    "velocity": 0.28346456692913385,
                    "duration": 0.09999999999999432
                },
                {
                    "name": "D4",
                    "midi": 62,
                    "time": 134.79999999999959,
                    "velocity": 0.2677165354330709,
                    "duration": 0.09999999999999432
                },
                {
                    "name": "C#4",
                    "midi": 61,
                    "time": 134.89999999999958,
                    "velocity": 0.25196850393700787,
                    "duration": 0.09999999999999432
                },
                {
                    "name": "B4",
                    "midi": 71,
                    "time": 134.99999999999957,
                    "velocity": 0.3779527559055118,
                    "duration": 0.9000000000000057
                },
                {
                    "name": "B3",
                    "midi": 59,
                    "time": 135.29999999999959,
                    "velocity": 0.25196850393700787,
                    "duration": 0.09999999999999432
                },
                {
                    "name": "D4",
                    "midi": 62,
                    "time": 135.39999999999958,
                    "velocity": 0.25196850393700787,
                    "duration": 0.09999999999999432
                },
                {
                    "name": "F#4",
                    "midi": 66,
                    "time": 135.49999999999957,
                    "velocity": 0.25196850393700787,
                    "duration": 0.09999999999999432
                },
                {
                    "name": "B3",
                    "midi": 59,
                    "time": 135.59999999999957,
                    "velocity": 0.25196850393700787,
                    "duration": 0.30000000000001137
                },
                {
                    "name": "B4",
                    "midi": 71,
                    "time": 135.89999999999958,
                    "velocity": 0.6220472440944882,
                    "duration": 0.9000000000000057
                },
                {
                    "name": "B3",
                    "midi": 59,
                    "time": 136.1999999999996,
                    "velocity": 0.5039370078740157,
                    "duration": 0.09999999999999432
                },
                {
                    "name": "E4",
                    "midi": 64,
                    "time": 136.29999999999959,
                    "velocity": 0.4566929133858268,
                    "duration": 0.09999999999999432
                },
                {
                    "name": "G4",
                    "midi": 67,
                    "time": 136.39999999999958,
                    "velocity": 0.47244094488188976,
                    "duration": 0.09999999999999432
                },
                {
                    "name": "B3",
                    "midi": 59,
                    "time": 136.49999999999957,
                    "velocity": 0.5039370078740157,
                    "duration": 0.30000000000001137
                },
                {
                    "name": "B4",
                    "midi": 71,
                    "time": 136.79999999999959,
                    "velocity": 0.3779527559055118,
                    "duration": 0.9000000000000057
                },
                {
                    "name": "B3",
                    "midi": 59,
                    "time": 137.0999999999996,
                    "velocity": 0.25196850393700787,
                    "duration": 0.09999999999999432
                },
                {
                    "name": "D4",
                    "midi": 62,
                    "time": 137.1999999999996,
                    "velocity": 0.25196850393700787,
                    "duration": 0.09999999999999432
                },
                {
                    "name": "F#4",
                    "midi": 66,
                    "time": 137.29999999999959,
                    "velocity": 0.25196850393700787,
                    "duration": 0.09999999999999432
                },
                {
                    "name": "B3",
                    "midi": 59,
                    "time": 137.39999999999958,
                    "velocity": 0.25196850393700787,
                    "duration": 0.30000000000001137
                },
                {
                    "name": "C#4",
                    "midi": 61,
                    "time": 137.6999999999996,
                    "velocity": 0.25196850393700787,
                    "duration": 0.09999999999999432
                },
                {
                    "name": "A#4",
                    "midi": 70,
                    "time": 137.6999999999996,
                    "velocity": 0.3779527559055118,
                    "duration": 0.8999999999999488
                },
                {
                    "name": "D4",
                    "midi": 62,
                    "time": 137.79999999999959,
                    "velocity": 0.2677165354330709,
                    "duration": 0.09999999999999432
                },
                {
                    "name": "E4",
                    "midi": 64,
                    "time": 137.89999999999958,
                    "velocity": 0.28346456692913385,
                    "duration": 0.09999999999999432
                },
                {
                    "name": "F#4",
                    "midi": 66,
                    "time": 137.99999999999957,
                    "velocity": 0.30708661417322836,
                    "duration": 0.09999999999999432
                },
                {
                    "name": "G4",
                    "midi": 67,
                    "time": 138.09999999999957,
                    "velocity": 0.3228346456692913,
                    "duration": 0.09999999999999432
                },
                {
                    "name": "F#4",
                    "midi": 66,
                    "time": 138.19999999999956,
                    "velocity": 0.30708661417322836,
                    "duration": 0.09999999999999432
                },
                {
                    "name": "E4",
                    "midi": 64,
                    "time": 138.29999999999956,
                    "velocity": 0.28346456692913385,
                    "duration": 0.09999999999999432
                },
                {
                    "name": "D4",
                    "midi": 62,
                    "time": 138.39999999999955,
                    "velocity": 0.2677165354330709,
                    "duration": 0.09999999999999432
                },
                {
                    "name": "C#4",
                    "midi": 61,
                    "time": 138.49999999999955,
                    "velocity": 0.25196850393700787,
                    "duration": 0.09999999999999432
                },
                {
                    "name": "B4",
                    "midi": 71,
                    "time": 138.59999999999954,
                    "velocity": 0.3779527559055118,
                    "duration": 0.9000000000000057
                },
                {
                    "name": "B3",
                    "midi": 59,
                    "time": 138.89999999999955,
                    "velocity": 0.25196850393700787,
                    "duration": 0.09999999999999432
                },
                {
                    "name": "D4",
                    "midi": 62,
                    "time": 138.99999999999955,
                    "velocity": 0.25196850393700787,
                    "duration": 0.09999999999999432
                },
                {
                    "name": "F#4",
                    "midi": 66,
                    "time": 139.09999999999954,
                    "velocity": 0.25196850393700787,
                    "duration": 0.09999999999999432
                },
                {
                    "name": "B3",
                    "midi": 59,
                    "time": 139.19999999999953,
                    "velocity": 0.25196850393700787,
                    "duration": 0.30000000000001137
                },
                {
                    "name": "B4",
                    "midi": 71,
                    "time": 139.49999999999955,
                    "velocity": 0.6377952755905512,
                    "duration": 0.9000000000000057
                },
                {
                    "name": "B3",
                    "midi": 59,
                    "time": 139.79999999999956,
                    "velocity": 0.47244094488188976,
                    "duration": 0.09999999999999432
                },
                {
                    "name": "D4",
                    "midi": 62,
                    "time": 139.89999999999955,
                    "velocity": 0.4251968503937008,
                    "duration": 0.09999999999999432
                },
                {
                    "name": "F#4",
                    "midi": 66,
                    "time": 139.99999999999955,
                    "velocity": 0.4251968503937008,
                    "duration": 0.09999999999999432
                },
                {
                    "name": "B3",
                    "midi": 59,
                    "time": 140.09999999999954,
                    "velocity": 0.47244094488188976,
                    "duration": 0.30000000000001137
                },
                {
                    "name": "B4",
                    "midi": 71,
                    "time": 140.39999999999955,
                    "velocity": 0.6377952755905512,
                    "duration": 0.9000000000000057
                },
                {
                    "name": "B3",
                    "midi": 59,
                    "time": 140.69999999999956,
                    "velocity": 0.47244094488188976,
                    "duration": 0.09999999999999432
                },
                {
                    "name": "D4",
                    "midi": 62,
                    "time": 140.79999999999956,
                    "velocity": 0.4251968503937008,
                    "duration": 0.09999999999999432
                },
                {
                    "name": "F#4",
                    "midi": 66,
                    "time": 140.89999999999955,
                    "velocity": 0.4251968503937008,
                    "duration": 0.09999999999999432
                },
                {
                    "name": "B3",
                    "midi": 59,
                    "time": 140.99999999999955,
                    "velocity": 0.47244094488188976,
                    "duration": 0.30000000000001137
                },
                {
                    "name": "D4",
                    "midi": 62,
                    "time": 141.29999999999956,
                    "velocity": 0.6377952755905512,
                    "duration": 0.09999999999999432
                },
                {
                    "name": "F#4",
                    "midi": 66,
                    "time": 141.39999999999955,
                    "velocity": 0.5039370078740157,
                    "duration": 0.09999999999999432
                },
                {
                    "name": "B4",
                    "midi": 71,
                    "time": 141.49999999999955,
                    "velocity": 0.5039370078740157,
                    "duration": 0.09999999999999432
                },
                {
                    "name": "B3",
                    "midi": 59,
                    "time": 141.59999999999954,
                    "velocity": 0.5826771653543307,
                    "duration": 0.30000000000001137
                },
                {
                    "name": "D4",
                    "midi": 62,
                    "time": 141.89999999999955,
                    "velocity": 0.6377952755905512,
                    "duration": 0.09999999999999432
                },
                {
                    "name": "F#4",
                    "midi": 66,
                    "time": 141.99999999999955,
                    "velocity": 0.5039370078740157,
                    "duration": 0.09999999999999432
                },
                {
                    "name": "B4",
                    "midi": 71,
                    "time": 142.09999999999954,
                    "velocity": 0.5039370078740157,
                    "duration": 0.09999999999999432
                },
                {
                    "name": "B3",
                    "midi": 59,
                    "time": 142.19999999999953,
                    "velocity": 0.5590551181102362,
                    "duration": 0.30000000000001137
                },
                {
                    "name": "D4",
                    "midi": 62,
                    "time": 142.49999999999955,
                    "velocity": 0.6377952755905512,
                    "duration": 0.09999999999999432
                },
                {
                    "name": "F#4",
                    "midi": 66,
                    "time": 142.59999999999954,
                    "velocity": 0.5039370078740157,
                    "duration": 0.09999999999999432
                },
                {
                    "name": "B4",
                    "midi": 71,
                    "time": 142.69999999999953,
                    "velocity": 0.5039370078740157,
                    "duration": 0.09999999999999432
                },
                {
                    "name": "D4",
                    "midi": 62,
                    "time": 142.79999999999953,
                    "velocity": 0.5669291338582677,
                    "duration": 0.30000000000001137
                },
                {
                    "name": "A#4",
                    "midi": 70,
                    "time": 143.09999999999954,
                    "velocity": 0.6377952755905512,
                    "duration": 0.9000000000000057
                },
                {
                    "name": "A#3",
                    "midi": 58,
                    "time": 143.39999999999955,
                    "velocity": 0.47244094488188976,
                    "duration": 0.09999999999999432
                },
                {
                    "name": "D#4",
                    "midi": 63,
                    "time": 143.49999999999955,
                    "velocity": 0.4330708661417323,
                    "duration": 0.09999999999999432
                },
                {
                    "name": "F#4",
                    "midi": 66,
                    "time": 143.59999999999954,
                    "velocity": 0.4330708661417323,
                    "duration": 0.09999999999999432
                },
                {
                    "name": "A#3",
                    "midi": 58,
                    "time": 143.69999999999953,
                    "velocity": 0.47244094488188976,
                    "duration": 0.30000000000001137
                },
                {
                    "name": "A#4",
                    "midi": 70,
                    "time": 143.99999999999955,
                    "velocity": 0.6377952755905512,
                    "duration": 0.9000000000000057
                },
                {
                    "name": "A#3",
                    "midi": 58,
                    "time": 144.29999999999956,
                    "velocity": 0.47244094488188976,
                    "duration": 0.09999999999999432
                },
                {
                    "name": "D#4",
                    "midi": 63,
                    "time": 144.39999999999955,
                    "velocity": 0.4330708661417323,
                    "duration": 0.09999999999999432
                },
                {
                    "name": "F#4",
                    "midi": 66,
                    "time": 144.49999999999955,
                    "velocity": 0.4330708661417323,
                    "duration": 0.09999999999999432
                },
                {
                    "name": "A#3",
                    "midi": 58,
                    "time": 144.59999999999954,
                    "velocity": 0.47244094488188976,
                    "duration": 0.30000000000001137
                },
                {
                    "name": "D#4",
                    "midi": 63,
                    "time": 144.89999999999955,
                    "velocity": 0.6535433070866141,
                    "duration": 0.09999999999999432
                },
                {
                    "name": "F#4",
                    "midi": 66,
                    "time": 144.99999999999955,
                    "velocity": 0.4881889763779528,
                    "duration": 0.09999999999999432
                },
                {
                    "name": "A#4",
                    "midi": 70,
                    "time": 145.09999999999954,
                    "velocity": 0.4881889763779528,
                    "duration": 0.09999999999999432
                },
                {
                    "name": "A#3",
                    "midi": 58,
                    "time": 145.19999999999953,
                    "velocity": 0.5826771653543307,
                    "duration": 0.30000000000001137
                },
                {
                    "name": "D#4",
                    "midi": 63,
                    "time": 145.49999999999955,
                    "velocity": 0.7007874015748031,
                    "duration": 0.09999999999999432
                },
                {
                    "name": "F#4",
                    "midi": 66,
                    "time": 145.59999999999954,
                    "velocity": 0.5196850393700787,
                    "duration": 0.09999999999999432
                },
                {
                    "name": "A#4",
                    "midi": 70,
                    "time": 145.69999999999953,
                    "velocity": 0.5196850393700787,
                    "duration": 0.09999999999999432
                },
                {
                    "name": "A#3",
                    "midi": 58,
                    "time": 145.79999999999953,
                    "velocity": 0.6062992125984252,
                    "duration": 0.30000000000001137
                },
                {
                    "name": "D#4",
                    "midi": 63,
                    "time": 146.09999999999954,
                    "velocity": 0.7086614173228346,
                    "duration": 0.09999999999999432
                },
                {
                    "name": "F#4",
                    "midi": 66,
                    "time": 146.19999999999953,
                    "velocity": 0.5590551181102362,
                    "duration": 0.09999999999999432
                },
                {
                    "name": "A#4",
                    "midi": 70,
                    "time": 146.29999999999953,
                    "velocity": 0.5590551181102362,
                    "duration": 0.09999999999999432
                },
                {
                    "name": "A#3",
                    "midi": 58,
                    "time": 146.39999999999952,
                    "velocity": 0.6141732283464567,
                    "duration": 0.30000000000001137
                },
                {
                    "name": "D#4",
                    "midi": 63,
                    "time": 146.69999999999953,
                    "velocity": 0.6456692913385826,
                    "duration": 0.5999999999999943
                },
                {
                    "name": "D#5",
                    "midi": 75,
                    "time": 146.69999999999953,
                    "velocity": 0.7637795275590551,
                    "duration": 0.5999999999999943
                },
                {
                    "name": "D#6",
                    "midi": 87,
                    "time": 147.29999999999953,
                    "velocity": 0.8267716535433071,
                    "duration": 0.5999999999999943
                },
                {
                    "name": "D#5",
                    "midi": 75,
                    "time": 147.29999999999953,
                    "velocity": 0.7559055118110236,
                    "duration": 0.5999999999999943
                },
                {
                    "name": "B4",
                    "midi": 71,
                    "time": 147.89999999999952,
                    "velocity": 0.6062992125984252,
                    "duration": 0.5999999999999943
                },
                {
                    "name": "B5",
                    "midi": 83,
                    "time": 147.89999999999952,
                    "velocity": 0.7165354330708661,
                    "duration": 0.5999999999999943
                },
                {
                    "name": "G#5",
                    "midi": 80,
                    "time": 148.49999999999952,
                    "velocity": 0.6377952755905512,
                    "duration": 0.09999999999999432
                },
                {
                    "name": "B5",
                    "midi": 83,
                    "time": 148.5999999999995,
                    "velocity": 0.5905511811023622,
                    "duration": 0.09999999999999432
                },
                {
                    "name": "G#5",
                    "midi": 80,
                    "time": 148.6999999999995,
                    "velocity": 0.6299212598425197,
                    "duration": 0.09999999999999432
                },
                {
                    "name": "B5",
                    "midi": 83,
                    "time": 148.7999999999995,
                    "velocity": 0.5826771653543307,
                    "duration": 0.09999999999999432
                },
                {
                    "name": "G#5",
                    "midi": 80,
                    "time": 148.8999999999995,
                    "velocity": 0.6141732283464567,
                    "duration": 0.09999999999999432
                },
                {
                    "name": "B5",
                    "midi": 83,
                    "time": 148.9999999999995,
                    "velocity": 0.5669291338582677,
                    "duration": 0.09999999999999432
                },
                {
                    "name": "G#5",
                    "midi": 80,
                    "time": 149.09999999999948,
                    "velocity": 0.6062992125984252,
                    "duration": 0.09999999999999432
                },
                {
                    "name": "B5",
                    "midi": 83,
                    "time": 149.19999999999948,
                    "velocity": 0.5433070866141733,
                    "duration": 0.09999999999999432
                },
                {
                    "name": "G#5",
                    "midi": 80,
                    "time": 149.29999999999947,
                    "velocity": 0.5905511811023622,
                    "duration": 0.09999999999999432
                },
                {
                    "name": "B5",
                    "midi": 83,
                    "time": 149.39999999999947,
                    "velocity": 0.5433070866141733,
                    "duration": 0.09999999999999432
                },
                {
                    "name": "G#5",
                    "midi": 80,
                    "time": 149.49999999999946,
                    "velocity": 0.5826771653543307,
                    "duration": 0.09999999999999432
                },
                {
                    "name": "B5",
                    "midi": 83,
                    "time": 149.59999999999945,
                    "velocity": 0.5275590551181102,
                    "duration": 0.09999999999999432
                },
                {
                    "name": "G#5",
                    "midi": 80,
                    "time": 149.69999999999945,
                    "velocity": 0.5669291338582677,
                    "duration": 0.09999999999999432
                },
                {
                    "name": "B5",
                    "midi": 83,
                    "time": 149.79999999999944,
                    "velocity": 0.5275590551181102,
                    "duration": 0.09999999999999432
                },
                {
                    "name": "G#5",
                    "midi": 80,
                    "time": 149.89999999999944,
                    "velocity": 0.5669291338582677,
                    "duration": 0.09999999999999432
                },
                {
                    "name": "B5",
                    "midi": 83,
                    "time": 149.99999999999943,
                    "velocity": 0.5118110236220472,
                    "duration": 0.09999999999999432
                },
                {
                    "name": "G#5",
                    "midi": 80,
                    "time": 150.09999999999943,
                    "velocity": 0.5511811023622047,
                    "duration": 0.09999999999999432
                },
                {
                    "name": "B5",
                    "midi": 83,
                    "time": 150.19999999999942,
                    "velocity": 0.5039370078740157,
                    "duration": 0.09999999999999432
                },
                {
                    "name": "G#5",
                    "midi": 80,
                    "time": 150.29999999999941,
                    "velocity": 0.5511811023622047,
                    "duration": 0.09999999999999432
                },
                {
                    "name": "A#5",
                    "midi": 82,
                    "time": 150.3999999999994,
                    "velocity": 0.4881889763779528,
                    "duration": 0.09999999999999432
                },
                {
                    "name": "G#5",
                    "midi": 80,
                    "time": 150.4999999999994,
                    "velocity": 0.5039370078740157,
                    "duration": 0.09999999999999432
                },
                {
                    "name": "A#5",
                    "midi": 82,
                    "time": 150.5999999999994,
                    "velocity": 0.4409448818897638,
                    "duration": 0.09999999999999432
                },
                {
                    "name": "G#5",
                    "midi": 80,
                    "time": 150.6999999999994,
                    "velocity": 0.4566929133858268,
                    "duration": 0.09999999999999432
                },
                {
                    "name": "A#5",
                    "midi": 82,
                    "time": 150.7999999999994,
                    "velocity": 0.4015748031496063,
                    "duration": 0.09999999999999432
                },
                {
                    "name": "G#5",
                    "midi": 80,
                    "time": 150.89999999999938,
                    "velocity": 0.41732283464566927,
                    "duration": 0.09999999999999432
                },
                {
                    "name": "A#5",
                    "midi": 82,
                    "time": 150.99999999999937,
                    "velocity": 0.3543307086614173,
                    "duration": 0.09999999999999432
                },
                {
                    "name": "G#5",
                    "midi": 80,
                    "time": 151.09999999999937,
                    "velocity": 0.3700787401574803,
                    "duration": 0.09999999999999432
                },
                {
                    "name": "A#5",
                    "midi": 82,
                    "time": 151.19999999999936,
                    "velocity": 0.31496062992125984,
                    "duration": 0.09999999999999432
                },
                {
                    "name": "G#5",
                    "midi": 80,
                    "time": 151.29999999999936,
                    "velocity": 0.3228346456692913,
                    "duration": 0.09999999999999432
                },
                {
                    "name": "A#5",
                    "midi": 82,
                    "time": 151.39999999999935,
                    "velocity": 0.2755905511811024,
                    "duration": 0.09999999999999432
                },
                {
                    "name": "G#5",
                    "midi": 80,
                    "time": 151.49999999999935,
                    "velocity": 0.28346456692913385,
                    "duration": 0.09999999999999432
                },
                {
                    "name": "A#5",
                    "midi": 82,
                    "time": 151.59999999999934,
                    "velocity": 0.2204724409448819,
                    "duration": 0.09999999999999432
                },
                {
                    "name": "G#5",
                    "midi": 80,
                    "time": 151.69999999999933,
                    "velocity": 0.23622047244094488,
                    "duration": 0.09999999999999432
                },
                {
                    "name": "A#5",
                    "midi": 82,
                    "time": 151.79999999999933,
                    "velocity": 0.18110236220472442,
                    "duration": 0.09999999999999432
                },
                {
                    "name": "G#5",
                    "midi": 80,
                    "time": 151.89999999999932,
                    "velocity": 0.1889763779527559,
                    "duration": 0.09999999999999432
                },
                {
                    "name": "A#5",
                    "midi": 82,
                    "time": 151.99999999999932,
                    "velocity": 0.16535433070866143,
                    "duration": 0.09999999999999432
                },
                {
                    "name": "G5",
                    "midi": 79,
                    "time": 152.0999999999993,
                    "velocity": 0.1889763779527559,
                    "duration": 0.09999999999999432
                },
                {
                    "name": "A#5",
                    "midi": 82,
                    "time": 152.1999999999993,
                    "velocity": 0.3464566929133858,
                    "duration": 0.09999999999999432
                },
                {
                    "name": "G#5",
                    "midi": 80,
                    "time": 152.2999999999993,
                    "velocity": 0.33858267716535434,
                    "duration": 0.09999999999999432
                },
                {
                    "name": "G5",
                    "midi": 79,
                    "time": 152.3999999999993,
                    "velocity": 0.33858267716535434,
                    "duration": 0.09999999999999432
                },
                {
                    "name": "F5",
                    "midi": 77,
                    "time": 152.4999999999993,
                    "velocity": 0.33070866141732286,
                    "duration": 0.09999999999999432
                },
                {
                    "name": "D#5",
                    "midi": 75,
                    "time": 152.59999999999928,
                    "velocity": 0.3228346456692913,
                    "duration": 0.09999999999999432
                },
                {
                    "name": "D5",
                    "midi": 74,
                    "time": 152.69999999999928,
                    "velocity": 0.31496062992125984,
                    "duration": 0.09999999999999432
                },
                {
                    "name": "C5",
                    "midi": 72,
                    "time": 152.79999999999927,
                    "velocity": 0.31496062992125984,
                    "duration": 0.09999999999999432
                },
                {
                    "name": "A#4",
                    "midi": 70,
                    "time": 152.89999999999927,
                    "velocity": 0.31496062992125984,
                    "duration": 0.09999999999999432
                },
                {
                    "name": "G#4",
                    "midi": 68,
                    "time": 152.99999999999926,
                    "velocity": 0.30708661417322836,
                    "duration": 0.09999999999999432
                },
                {
                    "name": "G4",
                    "midi": 67,
                    "time": 153.09999999999926,
                    "velocity": 0.30708661417322836,
                    "duration": 0.09999999999999432
                },
                {
                    "name": "F4",
                    "midi": 65,
                    "time": 153.19999999999925,
                    "velocity": 0.2992125984251969,
                    "duration": 0.09999999999999432
                },
                {
                    "name": "D#4",
                    "midi": 63,
                    "time": 153.29999999999924,
                    "velocity": 0.29133858267716534,
                    "duration": 0.09999999999999432
                },
                {
                    "name": "D4",
                    "midi": 62,
                    "time": 153.39999999999924,
                    "velocity": 0.30708661417322836,
                    "duration": 0.09999999999999432
                },
                {
                    "name": "C4",
                    "midi": 60,
                    "time": 153.49999999999923,
                    "velocity": 0.2992125984251969,
                    "duration": 0.09999999999999432
                },
                {
                    "name": "A#3",
                    "midi": 58,
                    "time": 153.59999999999923,
                    "velocity": 0.31496062992125984,
                    "duration": 0.29999999999998295
                },
                {
                    "name": "C4",
                    "midi": 60,
                    "time": 153.69999999999922,
                    "velocity": 0.3228346456692913,
                    "duration": 0.09999999999999432
                },
                {
                    "name": "D4",
                    "midi": 62,
                    "time": 153.79999999999922,
                    "velocity": 0.31496062992125984,
                    "duration": 0.09999999999999432
                },
                {
                    "name": "D#4",
                    "midi": 63,
                    "time": 153.8999999999992,
                    "velocity": 0.3464566929133858,
                    "duration": 0.09999999999999432
                },
                {
                    "name": "D4",
                    "midi": 62,
                    "time": 153.9999999999992,
                    "velocity": 0.3543307086614173,
                    "duration": 0.09999999999999432
                },
                {
                    "name": "D#4",
                    "midi": 63,
                    "time": 154.0999999999992,
                    "velocity": 0.3543307086614173,
                    "duration": 0.09999999999999432
                },
                {
                    "name": "E4",
                    "midi": 64,
                    "time": 154.1999999999992,
                    "velocity": 0.3779527559055118,
                    "duration": 0.09999999999999432
                },
                {
                    "name": "D#4",
                    "midi": 63,
                    "time": 154.2999999999992,
                    "velocity": 0.3700787401574803,
                    "duration": 0.09999999999999432
                },
                {
                    "name": "E4",
                    "midi": 64,
                    "time": 154.39999999999918,
                    "velocity": 0.3543307086614173,
                    "duration": 0.09999999999999432
                },
                {
                    "name": "F4",
                    "midi": 65,
                    "time": 154.49999999999918,
                    "velocity": 0.41732283464566927,
                    "duration": 0.09999999999999432
                },
                {
                    "name": "E4",
                    "midi": 64,
                    "time": 154.59999999999917,
                    "velocity": 0.4015748031496063,
                    "duration": 0.09999999999999432
                },
                {
                    "name": "F4",
                    "midi": 65,
                    "time": 154.69999999999916,
                    "velocity": 0.3779527559055118,
                    "duration": 0.09999999999999432
                },
                {
                    "name": "F#4",
                    "midi": 66,
                    "time": 154.79999999999916,
                    "velocity": 0.4409448818897638,
                    "duration": 0.09999999999999432
                },
                {
                    "name": "F4",
                    "midi": 65,
                    "time": 154.89999999999915,
                    "velocity": 0.4094488188976378,
                    "duration": 0.09999999999999432
                },
                {
                    "name": "F#4",
                    "midi": 66,
                    "time": 154.99999999999915,
                    "velocity": 0.3779527559055118,
                    "duration": 0.09999999999999432
                },
                {
                    "name": "G4",
                    "midi": 67,
                    "time": 155.09999999999914,
                    "velocity": 0.4409448818897638,
                    "duration": 0.09999999999999432
                },
                {
                    "name": "F#4",
                    "midi": 66,
                    "time": 155.19999999999914,
                    "velocity": 0.4251968503937008,
                    "duration": 0.09999999999999432
                },
                {
                    "name": "G4",
                    "midi": 67,
                    "time": 155.29999999999913,
                    "velocity": 0.3858267716535433,
                    "duration": 0.09999999999999432
                },
                {
                    "name": "G#4",
                    "midi": 68,
                    "time": 155.39999999999912,
                    "velocity": 0.3779527559055118,
                    "duration": 0.09999999999999432
                },
                {
                    "name": "G4",
                    "midi": 67,
                    "time": 155.49999999999912,
                    "velocity": 0.3543307086614173,
                    "duration": 0.09999999999999432
                },
                {
                    "name": "G#4",
                    "midi": 68,
                    "time": 155.5999999999991,
                    "velocity": 0.33070866141732286,
                    "duration": 0.09999999999999432
                },
                {
                    "name": "G4",
                    "midi": 67,
                    "time": 155.6999999999991,
                    "velocity": 0.3779527559055118,
                    "duration": 0.09999999999999432
                },
                {
                    "name": "A#4",
                    "midi": 70,
                    "time": 155.7999999999991,
                    "velocity": 0.3543307086614173,
                    "duration": 0.09999999999999432
                },
                {
                    "name": "G#4",
                    "midi": 68,
                    "time": 155.8999999999991,
                    "velocity": 0.3464566929133858,
                    "duration": 0.09999999999999432
                },
                {
                    "name": "G4",
                    "midi": 67,
                    "time": 155.9999999999991,
                    "velocity": 0.3779527559055118,
                    "duration": 0.09999999999999432
                },
                {
                    "name": "G#4",
                    "midi": 68,
                    "time": 156.09999999999908,
                    "velocity": 0.3543307086614173,
                    "duration": 0.09999999999999432
                },
                {
                    "name": "A#4",
                    "midi": 70,
                    "time": 156.19999999999908,
                    "velocity": 0.3543307086614173,
                    "duration": 0.09999999999999432
                },
                {
                    "name": "C5",
                    "midi": 72,
                    "time": 156.29999999999907,
                    "velocity": 0.3779527559055118,
                    "duration": 0.09999999999999432
                },
                {
                    "name": "D5",
                    "midi": 74,
                    "time": 156.39999999999907,
                    "velocity": 0.3464566929133858,
                    "duration": 0.09999999999999432
                },
                {
                    "name": "D#5",
                    "midi": 75,
                    "time": 156.49999999999906,
                    "velocity": 0.3464566929133858,
                    "duration": 0.09999999999999432
                },
                {
                    "name": "F5",
                    "midi": 77,
                    "time": 156.59999999999906,
                    "velocity": 0.3779527559055118,
                    "duration": 0.09999999999999432
                },
                {
                    "name": "C6",
                    "midi": 84,
                    "time": 156.69999999999905,
                    "velocity": 0.4094488188976378,
                    "duration": 0.09999999999999432
                },
                {
                    "name": "A#5",
                    "midi": 82,
                    "time": 156.79999999999905,
                    "velocity": 0.36220472440944884,
                    "duration": 0.09999999999999432
                },
                {
                    "name": "G#5",
                    "midi": 80,
                    "time": 156.89999999999904,
                    "velocity": 0.4015748031496063,
                    "duration": 0.09999999999999432
                },
                {
                    "name": "G5",
                    "midi": 79,
                    "time": 156.99999999999903,
                    "velocity": 0.3700787401574803,
                    "duration": 0.09999999999999432
                },
                {
                    "name": "F5",
                    "midi": 77,
                    "time": 157.09999999999903,
                    "velocity": 0.3543307086614173,
                    "duration": 0.09999999999999432
                },
                {
                    "name": "D#5",
                    "midi": 75,
                    "time": 157.19999999999902,
                    "velocity": 0.3779527559055118,
                    "duration": 0.09999999999999432
                },
                {
                    "name": "D5",
                    "midi": 74,
                    "time": 157.29999999999902,
                    "velocity": 0.3543307086614173,
                    "duration": 0.09999999999999432
                },
                {
                    "name": "C5",
                    "midi": 72,
                    "time": 157.399999999999,
                    "velocity": 0.3543307086614173,
                    "duration": 0.09999999999999432
                },
                {
                    "name": "A#4",
                    "midi": 70,
                    "time": 157.499999999999,
                    "velocity": 0.3700787401574803,
                    "duration": 0.09999999999999432
                },
                {
                    "name": "F5",
                    "midi": 77,
                    "time": 157.599999999999,
                    "velocity": 0.3543307086614173,
                    "duration": 0.09999999999999432
                },
                {
                    "name": "D#5",
                    "midi": 75,
                    "time": 157.699999999999,
                    "velocity": 0.3543307086614173,
                    "duration": 0.09999999999999432
                },
                {
                    "name": "D5",
                    "midi": 74,
                    "time": 157.799999999999,
                    "velocity": 0.3779527559055118,
                    "duration": 0.09999999999999432
                },
                {
                    "name": "C5",
                    "midi": 72,
                    "time": 157.89999999999898,
                    "velocity": 0.3543307086614173,
                    "duration": 0.09999999999999432
                },
                {
                    "name": "A#4",
                    "midi": 70,
                    "time": 157.99999999999898,
                    "velocity": 0.3543307086614173,
                    "duration": 0.09999999999999432
                },
                {
                    "name": "G#4",
                    "midi": 68,
                    "time": 158.09999999999897,
                    "velocity": 0.3779527559055118,
                    "duration": 0.09999999999999432
                },
                {
                    "name": "G4",
                    "midi": 67,
                    "time": 158.19999999999897,
                    "velocity": 0.3464566929133858,
                    "duration": 0.09999999999999432
                },
                {
                    "name": "F4",
                    "midi": 65,
                    "time": 158.29999999999896,
                    "velocity": 0.3464566929133858,
                    "duration": 0.09999999999999432
                },
                {
                    "name": "D#4",
                    "midi": 63,
                    "time": 158.39999999999895,
                    "velocity": 0.3779527559055118,
                    "duration": 0.09999999999999432
                },
                {
                    "name": "F4",
                    "midi": 65,
                    "time": 158.49999999999895,
                    "velocity": 0.3779527559055118,
                    "duration": 0.09999999999999432
                },
                {
                    "name": "G4",
                    "midi": 67,
                    "time": 158.59999999999894,
                    "velocity": 0.3779527559055118,
                    "duration": 0.09999999999999432
                },
                {
                    "name": "G#4",
                    "midi": 68,
                    "time": 158.69999999999894,
                    "velocity": 0.3779527559055118,
                    "duration": 0.09999999999999432
                },
                {
                    "name": "A#4",
                    "midi": 70,
                    "time": 158.79999999999893,
                    "velocity": 0.4015748031496063,
                    "duration": 0.09999999999999432
                },
                {
                    "name": "C5",
                    "midi": 72,
                    "time": 158.89999999999893,
                    "velocity": 0.4330708661417323,
                    "duration": 0.09999999999999432
                },
                {
                    "name": "D5",
                    "midi": 74,
                    "time": 158.99999999999892,
                    "velocity": 0.4409448818897638,
                    "duration": 0.09999999999999432
                },
                {
                    "name": "D#5",
                    "midi": 75,
                    "time": 159.09999999999891,
                    "velocity": 0.47244094488188976,
                    "duration": 0.09999999999999432
                },
                {
                    "name": "F5",
                    "midi": 77,
                    "time": 159.1999999999989,
                    "velocity": 0.49606299212598426,
                    "duration": 0.09999999999999432
                },
                {
                    "name": "G5",
                    "midi": 79,
                    "time": 159.2999999999989,
                    "velocity": 0.49606299212598426,
                    "duration": 0.09999999999999432
                },
                {
                    "name": "A#5",
                    "midi": 82,
                    "time": 159.3999999999989,
                    "velocity": 0.4566929133858268,
                    "duration": 0.09999999999999432
                },
                {
                    "name": "G#5",
                    "midi": 80,
                    "time": 159.4999999999989,
                    "velocity": 0.41732283464566927,
                    "duration": 0.09999999999999432
                },
                {
                    "name": "G5",
                    "midi": 79,
                    "time": 159.5999999999989,
                    "velocity": 0.4881889763779528,
                    "duration": 0.09999999999999432
                },
                {
                    "name": "F5",
                    "midi": 77,
                    "time": 159.69999999999888,
                    "velocity": 0.4409448818897638,
                    "duration": 0.09999999999999432
                },
                {
                    "name": "D#5",
                    "midi": 75,
                    "time": 159.79999999999887,
                    "velocity": 0.4251968503937008,
                    "duration": 0.09999999999999432
                },
                {
                    "name": "D5",
                    "midi": 74,
                    "time": 159.89999999999887,
                    "velocity": 0.49606299212598426,
                    "duration": 0.09999999999999432
                },
                {
                    "name": "C5",
                    "midi": 72,
                    "time": 159.99999999999886,
                    "velocity": 0.4566929133858268,
                    "duration": 0.09999999999999432
                },
                {
                    "name": "A#4",
                    "midi": 70,
                    "time": 160.09999999999886,
                    "velocity": 0.4251968503937008,
                    "duration": 0.09999999999999432
                },
                {
                    "name": "G#4",
                    "midi": 68,
                    "time": 160.19999999999885,
                    "velocity": 0.49606299212598426,
                    "duration": 0.09999999999999432
                },
                {
                    "name": "G4",
                    "midi": 67,
                    "time": 160.29999999999885,
                    "velocity": 0.4645669291338583,
                    "duration": 0.09999999999999432
                },
                {
                    "name": "F4",
                    "midi": 65,
                    "time": 160.39999999999884,
                    "velocity": 0.47244094488188976,
                    "duration": 0.09999999999999432
                },
                {
                    "name": "D#4",
                    "midi": 63,
                    "time": 160.49999999999883,
                    "velocity": 0.49606299212598426,
                    "duration": 0.09999999999999432
                },
                {
                    "name": "D4",
                    "midi": 62,
                    "time": 160.59999999999883,
                    "velocity": 0.4645669291338583,
                    "duration": 0.09999999999999432
                },
                {
                    "name": "C4",
                    "midi": 60,
                    "time": 160.69999999999882,
                    "velocity": 0.4645669291338583,
                    "duration": 0.09999999999999432
                },
                {
                    "name": "A#3",
                    "midi": 58,
                    "time": 160.79999999999882,
                    "velocity": 0.49606299212598426,
                    "duration": 0.29999999999998295
                },
                {
                    "name": "C4",
                    "midi": 60,
                    "time": 160.8999999999988,
                    "velocity": 0.4566929133858268,
                    "duration": 0.09999999999999432
                },
                {
                    "name": "D4",
                    "midi": 62,
                    "time": 160.9999999999988,
                    "velocity": 0.4566929133858268,
                    "duration": 0.09999999999999432
                },
                {
                    "name": "D#4",
                    "midi": 63,
                    "time": 161.0999999999988,
                    "velocity": 0.49606299212598426,
                    "duration": 0.09999999999999432
                },
                {
                    "name": "D4",
                    "midi": 62,
                    "time": 161.1999999999988,
                    "velocity": 0.47244094488188976,
                    "duration": 0.09999999999999432
                },
                {
                    "name": "D#4",
                    "midi": 63,
                    "time": 161.2999999999988,
                    "velocity": 0.47244094488188976,
                    "duration": 0.09999999999999432
                },
                {
                    "name": "E4",
                    "midi": 64,
                    "time": 161.39999999999878,
                    "velocity": 0.5275590551181102,
                    "duration": 0.09999999999999432
                },
                {
                    "name": "D#4",
                    "midi": 63,
                    "time": 161.49999999999878,
                    "velocity": 0.49606299212598426,
                    "duration": 0.09999999999999432
                },
                {
                    "name": "E4",
                    "midi": 64,
                    "time": 161.59999999999877,
                    "velocity": 0.49606299212598426,
                    "duration": 0.09999999999999432
                },
                {
                    "name": "F4",
                    "midi": 65,
                    "time": 161.69999999999877,
                    "velocity": 0.5590551181102362,
                    "duration": 0.09999999999999432
                },
                {
                    "name": "E4",
                    "midi": 64,
                    "time": 161.79999999999876,
                    "velocity": 0.5354330708661418,
                    "duration": 0.09999999999999432
                },
                {
                    "name": "F4",
                    "midi": 65,
                    "time": 161.89999999999876,
                    "velocity": 0.5039370078740157,
                    "duration": 0.09999999999999432
                },
                {
                    "name": "F#4",
                    "midi": 66,
                    "time": 161.99999999999875,
                    "velocity": 0.5748031496062992,
                    "duration": 0.09999999999999432
                },
                {
                    "name": "F4",
                    "midi": 65,
                    "time": 162.09999999999874,
                    "velocity": 0.5511811023622047,
                    "duration": 0.09999999999999432
                },
                {
                    "name": "F#4",
                    "midi": 66,
                    "time": 162.19999999999874,
                    "velocity": 0.5275590551181102,
                    "duration": 0.09999999999999432
                },
                {
                    "name": "G4",
                    "midi": 67,
                    "time": 162.29999999999873,
                    "velocity": 0.5669291338582677,
                    "duration": 0.09999999999999432
                },
                {
                    "name": "F#4",
                    "midi": 66,
                    "time": 162.39999999999873,
                    "velocity": 0.5511811023622047,
                    "duration": 0.09999999999999432
                },
                {
                    "name": "G4",
                    "midi": 67,
                    "time": 162.49999999999872,
                    "velocity": 0.5039370078740157,
                    "duration": 0.09999999999999432
                },
                {
                    "name": "G#4",
                    "midi": 68,
                    "time": 162.59999999999872,
                    "velocity": 0.49606299212598426,
                    "duration": 0.09999999999999432
                },
                {
                    "name": "G4",
                    "midi": 67,
                    "time": 162.6999999999987,
                    "velocity": 0.4566929133858268,
                    "duration": 0.09999999999999432
                },
                {
                    "name": "G#4",
                    "midi": 68,
                    "time": 162.7999999999987,
                    "velocity": 0.4566929133858268,
                    "duration": 0.09999999999999432
                },
                {
                    "name": "G4",
                    "midi": 67,
                    "time": 162.8999999999987,
                    "velocity": 0.49606299212598426,
                    "duration": 0.09999999999999432
                },
                {
                    "name": "A#4",
                    "midi": 70,
                    "time": 162.9999999999987,
                    "velocity": 0.47244094488188976,
                    "duration": 0.09999999999999432
                },
                {
                    "name": "G#4",
                    "midi": 68,
                    "time": 163.0999999999987,
                    "velocity": 0.47244094488188976,
                    "duration": 0.09999999999999432
                },
                {
                    "name": "G4",
                    "midi": 67,
                    "time": 163.19999999999868,
                    "velocity": 0.49606299212598426,
                    "duration": 0.09999999999999432
                },
                {
                    "name": "G#4",
                    "midi": 68,
                    "time": 163.29999999999868,
                    "velocity": 0.4566929133858268,
                    "duration": 0.09999999999999432
                },
                {
                    "name": "A#4",
                    "midi": 70,
                    "time": 163.39999999999867,
                    "velocity": 0.4566929133858268,
                    "duration": 0.09999999999999432
                },
                {
                    "name": "C5",
                    "midi": 72,
                    "time": 163.49999999999866,
                    "velocity": 0.49606299212598426,
                    "duration": 0.09999999999999432
                },
                {
                    "name": "D5",
                    "midi": 74,
                    "time": 163.59999999999866,
                    "velocity": 0.4566929133858268,
                    "duration": 0.09999999999999432
                },
                {
                    "name": "D#5",
                    "midi": 75,
                    "time": 163.69999999999865,
                    "velocity": 0.4566929133858268,
                    "duration": 0.09999999999999432
                },
                {
                    "name": "F5",
                    "midi": 77,
                    "time": 163.79999999999865,
                    "velocity": 0.49606299212598426,
                    "duration": 0.09999999999999432
                },
                {
                    "name": "C6",
                    "midi": 84,
                    "time": 163.89999999999864,
                    "velocity": 0.5196850393700787,
                    "duration": 0.09999999999999432
                },
                {
                    "name": "A#5",
                    "midi": 82,
                    "time": 163.99999999999864,
                    "velocity": 0.5118110236220472,
                    "duration": 0.09999999999999432
                },
                {
                    "name": "G#5",
                    "midi": 80,
                    "time": 164.09999999999863,
                    "velocity": 0.5039370078740157,
                    "duration": 0.09999999999999432
                },
                {
                    "name": "G5",
                    "midi": 79,
                    "time": 164.19999999999862,
                    "velocity": 0.47244094488188976,
                    "duration": 0.09999999999999432
                },
                {
                    "name": "F5",
                    "midi": 77,
                    "time": 164.29999999999862,
                    "velocity": 0.47244094488188976,
                    "duration": 0.09999999999999432
                },
                {
                    "name": "D#5",
                    "midi": 75,
                    "time": 164.3999999999986,
                    "velocity": 0.49606299212598426,
                    "duration": 0.09999999999999432
                },
                {
                    "name": "D5",
                    "midi": 74,
                    "time": 164.4999999999986,
                    "velocity": 0.4566929133858268,
                    "duration": 0.09999999999999432
                },
                {
                    "name": "C5",
                    "midi": 72,
                    "time": 164.5999999999986,
                    "velocity": 0.48031496062992124,
                    "duration": 0.09999999999999432
                },
                {
                    "name": "A#4",
                    "midi": 70,
                    "time": 164.6999999999986,
                    "velocity": 0.4645669291338583,
                    "duration": 0.09999999999999432
                },
                {
                    "name": "F5",
                    "midi": 77,
                    "time": 164.7999999999986,
                    "velocity": 0.4881889763779528,
                    "duration": 0.09999999999999432
                },
                {
                    "name": "D#5",
                    "midi": 75,
                    "time": 164.89999999999858,
                    "velocity": 0.4566929133858268,
                    "duration": 0.09999999999999432
                },
                {
                    "name": "D5",
                    "midi": 74,
                    "time": 164.99999999999858,
                    "velocity": 0.49606299212598426,
                    "duration": 0.09999999999999432
                },
                {
                    "name": "D#5",
                    "midi": 75,
                    "time": 165.09999999999857,
                    "velocity": 0.4645669291338583,
                    "duration": 0.09999999999999432
                },
                {
                    "name": "F5",
                    "midi": 77,
                    "time": 165.19999999999857,
                    "velocity": 0.4645669291338583,
                    "duration": 0.09999999999999432
                },
                {
                    "name": "G5",
                    "midi": 79,
                    "time": 165.29999999999856,
                    "velocity": 0.49606299212598426,
                    "duration": 0.09999999999999432
                },
                {
                    "name": "G#5",
                    "midi": 80,
                    "time": 165.39999999999856,
                    "velocity": 0.44881889763779526,
                    "duration": 0.09999999999999432
                },
                {
                    "name": "A#5",
                    "midi": 82,
                    "time": 165.49999999999855,
                    "velocity": 0.44881889763779526,
                    "duration": 0.09999999999999432
                },
                {
                    "name": "D#5",
                    "midi": 75,
                    "time": 165.59999999999854,
                    "velocity": 0.49606299212598426,
                    "duration": 0.09999999999999432
                },
                {
                    "name": "F5",
                    "midi": 77,
                    "time": 165.69999999999854,
                    "velocity": 0.4566929133858268,
                    "duration": 0.09999999999999432
                },
                {
                    "name": "G5",
                    "midi": 79,
                    "time": 165.79999999999853,
                    "velocity": 0.4566929133858268,
                    "duration": 0.09999999999999432
                },
                {
                    "name": "G#5",
                    "midi": 80,
                    "time": 165.89999999999853,
                    "velocity": 0.49606299212598426,
                    "duration": 0.09999999999999432
                },
                {
                    "name": "A#5",
                    "midi": 82,
                    "time": 165.99999999999852,
                    "velocity": 0.4566929133858268,
                    "duration": 0.09999999999999432
                },
                {
                    "name": "C6",
                    "midi": 84,
                    "time": 166.09999999999852,
                    "velocity": 0.4566929133858268,
                    "duration": 0.09999999999999432
                },
                {
                    "name": "D6",
                    "midi": 86,
                    "time": 166.1999999999985,
                    "velocity": 0.49606299212598426,
                    "duration": 0.09999999999999432
                },
                {
                    "name": "D#6",
                    "midi": 87,
                    "time": 166.2999999999985,
                    "velocity": 0.4566929133858268,
                    "duration": 0.09999999999999432
                },
                {
                    "name": "F6",
                    "midi": 89,
                    "time": 166.3999999999985,
                    "velocity": 0.4566929133858268,
                    "duration": 0.09999999999999432
                },
                {
                    "name": "G6",
                    "midi": 91,
                    "time": 166.4999999999985,
                    "velocity": 0.49606299212598426,
                    "duration": 0.09999999999999432
                },
                {
                    "name": "A#6",
                    "midi": 94,
                    "time": 166.5999999999985,
                    "velocity": 0.49606299212598426,
                    "duration": 0.09999999999999432
                },
                {
                    "name": "G#6",
                    "midi": 92,
                    "time": 166.69999999999848,
                    "velocity": 0.4566929133858268,
                    "duration": 0.09999999999999432
                },
                {
                    "name": "G6",
                    "midi": 91,
                    "time": 166.79999999999848,
                    "velocity": 0.5039370078740157,
                    "duration": 0.09999999999999432
                },
                {
                    "name": "F6",
                    "midi": 89,
                    "time": 166.89999999999847,
                    "velocity": 0.4881889763779528,
                    "duration": 0.09999999999999432
                },
                {
                    "name": "D#6",
                    "midi": 87,
                    "time": 166.99999999999847,
                    "velocity": 0.4881889763779528,
                    "duration": 0.09999999999999432
                },
                {
                    "name": "D6",
                    "midi": 86,
                    "time": 167.09999999999846,
                    "velocity": 0.49606299212598426,
                    "duration": 0.09999999999999432
                },
                {
                    "name": "C6",
                    "midi": 84,
                    "time": 167.19999999999845,
                    "velocity": 0.44881889763779526,
                    "duration": 0.09999999999999432
                },
                {
                    "name": "A#5",
                    "midi": 82,
                    "time": 167.29999999999845,
                    "velocity": 0.4566929133858268,
                    "duration": 0.09999999999999432
                },
                {
                    "name": "G#5",
                    "midi": 80,
                    "time": 167.39999999999844,
                    "velocity": 0.47244094488188976,
                    "duration": 0.09999999999999432
                },
                {
                    "name": "G5",
                    "midi": 79,
                    "time": 167.49999999999844,
                    "velocity": 0.4566929133858268,
                    "duration": 0.09999999999999432
                },
                {
                    "name": "F5",
                    "midi": 77,
                    "time": 167.59999999999843,
                    "velocity": 0.4566929133858268,
                    "duration": 0.09999999999999432
                },
                {
                    "name": "D#5",
                    "midi": 75,
                    "time": 167.69999999999843,
                    "velocity": 0.49606299212598426,
                    "duration": 0.09999999999999432
                },
                {
                    "name": "D5",
                    "midi": 74,
                    "time": 167.79999999999842,
                    "velocity": 0.4566929133858268,
                    "duration": 0.09999999999999432
                },
                {
                    "name": "C5",
                    "midi": 72,
                    "time": 167.8999999999984,
                    "velocity": 0.4566929133858268,
                    "duration": 0.09999999999999432
                },
                {
                    "name": "A#4",
                    "midi": 70,
                    "time": 167.9999999999984,
                    "velocity": 0.49606299212598426,
                    "duration": 0.09999999999999432
                },
                {
                    "name": "C5",
                    "midi": 72,
                    "time": 168.0999999999984,
                    "velocity": 0.4566929133858268,
                    "duration": 0.09999999999999432
                },
                {
                    "name": "D5",
                    "midi": 74,
                    "time": 168.1999999999984,
                    "velocity": 0.4566929133858268,
                    "duration": 0.09999999999999432
                },
                {
                    "name": "D#5",
                    "midi": 75,
                    "time": 168.2999999999984,
                    "velocity": 0.49606299212598426,
                    "duration": 0.09999999999999432
                },
                {
                    "name": "D5",
                    "midi": 74,
                    "time": 168.39999999999839,
                    "velocity": 0.4645669291338583,
                    "duration": 0.09999999999999432
                },
                {
                    "name": "D#5",
                    "midi": 75,
                    "time": 168.49999999999838,
                    "velocity": 0.4645669291338583,
                    "duration": 0.09999999999999432
                },
                {
                    "name": "E5",
                    "midi": 76,
                    "time": 168.59999999999837,
                    "velocity": 0.5039370078740157,
                    "duration": 0.09999999999999432
                },
                {
                    "name": "D#5",
                    "midi": 75,
                    "time": 168.69999999999837,
                    "velocity": 0.48031496062992124,
                    "duration": 0.09999999999999432
                },
                {
                    "name": "E5",
                    "midi": 76,
                    "time": 168.79999999999836,
                    "velocity": 0.4881889763779528,
                    "duration": 0.09999999999999432
                },
                {
                    "name": "F5",
                    "midi": 77,
                    "time": 168.89999999999836,
                    "velocity": 0.5196850393700787,
                    "duration": 0.09999999999999432
                },
                {
                    "name": "E5",
                    "midi": 76,
                    "time": 168.99999999999835,
                    "velocity": 0.49606299212598426,
                    "duration": 0.09999999999999432
                },
                {
                    "name": "F5",
                    "midi": 77,
                    "time": 169.09999999999835,
                    "velocity": 0.49606299212598426,
                    "duration": 0.09999999999999432
                },
                {
                    "name": "F#5",
                    "midi": 78,
                    "time": 169.19999999999834,
                    "velocity": 0.5511811023622047,
                    "duration": 0.09999999999999432
                },
                {
                    "name": "F5",
                    "midi": 77,
                    "time": 169.29999999999833,
                    "velocity": 0.5118110236220472,
                    "duration": 0.09999999999999432
                },
                {
                    "name": "F#5",
                    "midi": 78,
                    "time": 169.39999999999833,
                    "velocity": 0.5118110236220472,
                    "duration": 0.09999999999999432
                },
                {
                    "name": "G5",
                    "midi": 79,
                    "time": 169.49999999999832,
                    "velocity": 0.5748031496062992,
                    "duration": 0.09999999999999432
                },
                {
                    "name": "F#5",
                    "midi": 78,
                    "time": 169.59999999999832,
                    "velocity": 0.5354330708661418,
                    "duration": 0.09999999999999432
                },
                {
                    "name": "G5",
                    "midi": 79,
                    "time": 169.6999999999983,
                    "velocity": 0.49606299212598426,
                    "duration": 0.09999999999999432
                },
                {
                    "name": "G#5",
                    "midi": 80,
                    "time": 169.7999999999983,
                    "velocity": 0.5039370078740157,
                    "duration": 0.09999999999999432
                },
                {
                    "name": "G5",
                    "midi": 79,
                    "time": 169.8999999999983,
                    "velocity": 0.48031496062992124,
                    "duration": 0.09999999999999432
                },
                {
                    "name": "G#5",
                    "midi": 80,
                    "time": 169.9999999999983,
                    "velocity": 0.48031496062992124,
                    "duration": 0.09999999999999432
                },
                {
                    "name": "G5",
                    "midi": 79,
                    "time": 170.0999999999983,
                    "velocity": 0.49606299212598426,
                    "duration": 0.09999999999999432
                },
                {
                    "name": "A#5",
                    "midi": 82,
                    "time": 170.19999999999828,
                    "velocity": 0.4645669291338583,
                    "duration": 0.09999999999999432
                },
                {
                    "name": "G#5",
                    "midi": 80,
                    "time": 170.29999999999828,
                    "velocity": 0.47244094488188976,
                    "duration": 0.09999999999999432
                },
                {
                    "name": "G5",
                    "midi": 79,
                    "time": 170.39999999999827,
                    "velocity": 0.49606299212598426,
                    "duration": 0.09999999999999432
                },
                {
                    "name": "G#5",
                    "midi": 80,
                    "time": 170.49999999999827,
                    "velocity": 0.47244094488188976,
                    "duration": 0.09999999999999432
                },
                {
                    "name": "A#5",
                    "midi": 82,
                    "time": 170.59999999999826,
                    "velocity": 0.47244094488188976,
                    "duration": 0.09999999999999432
                },
                {
                    "name": "C6",
                    "midi": 84,
                    "time": 170.69999999999825,
                    "velocity": 0.49606299212598426,
                    "duration": 0.09999999999999432
                },
                {
                    "name": "D6",
                    "midi": 86,
                    "time": 170.79999999999825,
                    "velocity": 0.4645669291338583,
                    "duration": 0.09999999999999432
                },
                {
                    "name": "D#6",
                    "midi": 87,
                    "time": 170.89999999999824,
                    "velocity": 0.4645669291338583,
                    "duration": 0.09999999999999432
                },
                {
                    "name": "F6",
                    "midi": 89,
                    "time": 170.99999999999824,
                    "velocity": 0.5039370078740157,
                    "duration": 0.09999999999999432
                },
                {
                    "name": "C7",
                    "midi": 96,
                    "time": 171.09999999999823,
                    "velocity": 0.4645669291338583,
                    "duration": 0.09999999999999432
                },
                {
                    "name": "A#6",
                    "midi": 94,
                    "time": 171.19999999999823,
                    "velocity": 0.4645669291338583,
                    "duration": 0.09999999999999432
                },
                {
                    "name": "G#6",
                    "midi": 92,
                    "time": 171.29999999999822,
                    "velocity": 0.4881889763779528,
                    "duration": 0.09999999999999432
                },
                {
                    "name": "G6",
                    "midi": 91,
                    "time": 171.39999999999822,
                    "velocity": 0.48031496062992124,
                    "duration": 0.09999999999999432
                },
                {
                    "name": "F6",
                    "midi": 89,
                    "time": 171.4999999999982,
                    "velocity": 0.47244094488188976,
                    "duration": 0.09999999999999432
                },
                {
                    "name": "D#6",
                    "midi": 87,
                    "time": 171.5999999999982,
                    "velocity": 0.4645669291338583,
                    "duration": 0.09999999999999432
                },
                {
                    "name": "D6",
                    "midi": 86,
                    "time": 171.6999999999982,
                    "velocity": 0.4566929133858268,
                    "duration": 0.09999999999999432
                },
                {
                    "name": "C6",
                    "midi": 84,
                    "time": 171.7999999999982,
                    "velocity": 0.44881889763779526,
                    "duration": 0.09999999999999432
                },
                {
                    "name": "A#5",
                    "midi": 82,
                    "time": 171.8999999999982,
                    "velocity": 0.4409448818897638,
                    "duration": 0.09999999999999432
                },
                {
                    "name": "F6",
                    "midi": 89,
                    "time": 171.99999999999818,
                    "velocity": 0.4330708661417323,
                    "duration": 0.09999999999999432
                },
                {
                    "name": "D#6",
                    "midi": 87,
                    "time": 172.09999999999818,
                    "velocity": 0.4251968503937008,
                    "duration": 0.09999999999999432
                },
                {
                    "name": "D6",
                    "midi": 86,
                    "time": 172.19999999999817,
                    "velocity": 0.4251968503937008,
                    "duration": 0.09999999999999432
                },
                {
                    "name": "C6",
                    "midi": 84,
                    "time": 172.29999999999816,
                    "velocity": 0.41732283464566927,
                    "duration": 0.09999999999999432
                },
                {
                    "name": "A#5",
                    "midi": 82,
                    "time": 172.39999999999816,
                    "velocity": 0.4094488188976378,
                    "duration": 0.09999999999999432
                },
                {
                    "name": "G#5",
                    "midi": 80,
                    "time": 172.49999999999815,
                    "velocity": 0.4015748031496063,
                    "duration": 0.09999999999999432
                },
                {
                    "name": "G5",
                    "midi": 79,
                    "time": 172.59999999999815,
                    "velocity": 0.3937007874015748,
                    "duration": 0.09999999999999432
                },
                {
                    "name": "F5",
                    "midi": 77,
                    "time": 172.69999999999814,
                    "velocity": 0.3858267716535433,
                    "duration": 0.09999999999999432
                },
                {
                    "name": "D#5",
                    "midi": 75,
                    "time": 172.79999999999814,
                    "velocity": 0.3779527559055118,
                    "duration": 0.09999999999999432
                },
                {
                    "name": "G5",
                    "midi": 79,
                    "time": 172.89999999999813,
                    "velocity": 0.3700787401574803,
                    "duration": 0.09999999999999432
                },
                {
                    "name": "F5",
                    "midi": 77,
                    "time": 172.99999999999812,
                    "velocity": 0.36220472440944884,
                    "duration": 0.09999999999999432
                },
                {
                    "name": "D#5",
                    "midi": 75,
                    "time": 173.09999999999812,
                    "velocity": 0.3543307086614173,
                    "duration": 0.09999999999999432
                },
                {
                    "name": "D5",
                    "midi": 74,
                    "time": 173.1999999999981,
                    "velocity": 0.3543307086614173,
                    "duration": 0.09999999999999432
                },
                {
                    "name": "C5",
                    "midi": 72,
                    "time": 173.2999999999981,
                    "velocity": 0.3464566929133858,
                    "duration": 0.09999999999999432
                },
                {
                    "name": "A#4",
                    "midi": 70,
                    "time": 173.3999999999981,
                    "velocity": 0.33858267716535434,
                    "duration": 0.09999999999999432
                },
                {
                    "name": "G#4",
                    "midi": 68,
                    "time": 173.4999999999981,
                    "velocity": 0.33070866141732286,
                    "duration": 0.09999999999999432
                },
                {
                    "name": "F4",
                    "midi": 65,
                    "time": 173.5999999999981,
                    "velocity": 0.3228346456692913,
                    "duration": 0.09999999999999432
                },
                {
                    "name": "F#4",
                    "midi": 66,
                    "time": 173.69999999999808,
                    "velocity": 0.31496062992125984,
                    "duration": 0.09999999999999432
                },
                {
                    "name": "A#4",
                    "midi": 70,
                    "time": 173.79999999999808,
                    "velocity": 0.3228346456692913,
                    "duration": 0.09999999999999432
                },
                {
                    "name": "G#4",
                    "midi": 68,
                    "time": 173.89999999999807,
                    "velocity": 0.3228346456692913,
                    "duration": 0.09999999999999432
                },
                {
                    "name": "F#4",
                    "midi": 66,
                    "time": 173.99999999999807,
                    "velocity": 0.3228346456692913,
                    "duration": 0.09999999999999432
                },
                {
                    "name": "F4",
                    "midi": 65,
                    "time": 174.09999999999806,
                    "velocity": 0.3228346456692913,
                    "duration": 0.09999999999999432
                },
                {
                    "name": "D#4",
                    "midi": 63,
                    "time": 174.19999999999806,
                    "velocity": 0.3228346456692913,
                    "duration": 0.09999999999999432
                },
                {
                    "name": "C#4",
                    "midi": 61,
                    "time": 174.29999999999805,
                    "velocity": 0.3228346456692913,
                    "duration": 0.09999999999999432
                },
                {
                    "name": "B3",
                    "midi": 59,
                    "time": 174.39999999999804,
                    "velocity": 0.3228346456692913,
                    "duration": 0.09999999999999432
                },
                {
                    "name": "A#3",
                    "midi": 58,
                    "time": 174.49999999999804,
                    "velocity": 0.3228346456692913,
                    "duration": 0.09999999999999432
                },
                {
                    "name": "B3",
                    "midi": 59,
                    "time": 174.59999999999803,
                    "velocity": 0.3228346456692913,
                    "duration": 0.09999999999999432
                },
                {
                    "name": "D#4",
                    "midi": 63,
                    "time": 174.69999999999803,
                    "velocity": 0.3228346456692913,
                    "duration": 0.09999999999999432
                },
                {
                    "name": "G#4",
                    "midi": 68,
                    "time": 174.79999999999802,
                    "velocity": 0.3228346456692913,
                    "duration": 0.09999999999999432
                },
                {
                    "name": "B4",
                    "midi": 71,
                    "time": 174.89999999999802,
                    "velocity": 0.3464566929133858,
                    "duration": 0.5999999999999659
                },
                {
                    "name": "D#4",
                    "midi": 63,
                    "time": 174.999999999998,
                    "velocity": 0.3228346456692913,
                    "duration": 0.09999999999999432
                },
                {
                    "name": "G#4",
                    "midi": 68,
                    "time": 175.099999999998,
                    "velocity": 0.3228346456692913,
                    "duration": 0.09999999999999432
                },
                {
                    "name": "F#4",
                    "midi": 66,
                    "time": 175.199999999998,
                    "velocity": 0.3228346456692913,
                    "duration": 0.09999999999999432
                },
                {
                    "name": "D#4",
                    "midi": 63,
                    "time": 175.299999999998,
                    "velocity": 0.3228346456692913,
                    "duration": 0.09999999999999432
                },
                {
                    "name": "F#4",
                    "midi": 66,
                    "time": 175.399999999998,
                    "velocity": 0.3228346456692913,
                    "duration": 0.09999999999999432
                },
                {
                    "name": "F4",
                    "midi": 65,
                    "time": 175.49999999999798,
                    "velocity": 0.3228346456692913,
                    "duration": 0.09999999999999432
                },
                {
                    "name": "B4",
                    "midi": 71,
                    "time": 175.59999999999798,
                    "velocity": 0.3228346456692913,
                    "duration": 0.09999999999999432
                },
                {
                    "name": "A#4",
                    "midi": 70,
                    "time": 175.69999999999797,
                    "velocity": 0.3228346456692913,
                    "duration": 0.09999999999999432
                },
                {
                    "name": "G#4",
                    "midi": 68,
                    "time": 175.79999999999797,
                    "velocity": 0.3228346456692913,
                    "duration": 0.09999999999999432
                },
                {
                    "name": "F#4",
                    "midi": 66,
                    "time": 175.89999999999796,
                    "velocity": 0.3228346456692913,
                    "duration": 0.09999999999999432
                },
                {
                    "name": "F4",
                    "midi": 65,
                    "time": 175.99999999999795,
                    "velocity": 0.3228346456692913,
                    "duration": 0.09999999999999432
                },
                {
                    "name": "D#4",
                    "midi": 63,
                    "time": 176.09999999999795,
                    "velocity": 0.3228346456692913,
                    "duration": 0.09999999999999432
                },
                {
                    "name": "C#4",
                    "midi": 61,
                    "time": 176.19999999999794,
                    "velocity": 0.3228346456692913,
                    "duration": 0.09999999999999432
                },
                {
                    "name": "B3",
                    "midi": 59,
                    "time": 176.29999999999794,
                    "velocity": 0.3228346456692913,
                    "duration": 0.09999999999999432
                },
                {
                    "name": "A#3",
                    "midi": 58,
                    "time": 176.39999999999793,
                    "velocity": 0.3228346456692913,
                    "duration": 0.09999999999999432
                },
                {
                    "name": "C#4",
                    "midi": 61,
                    "time": 176.49999999999793,
                    "velocity": 0.3228346456692913,
                    "duration": 0.09999999999999432
                },
                {
                    "name": "F#4",
                    "midi": 66,
                    "time": 176.59999999999792,
                    "velocity": 0.3228346456692913,
                    "duration": 0.09999999999999432
                },
                {
                    "name": "A#4",
                    "midi": 70,
                    "time": 176.6999999999979,
                    "velocity": 0.3464566929133858,
                    "duration": 0.5999999999999659
                },
                {
                    "name": "C#4",
                    "midi": 61,
                    "time": 176.7999999999979,
                    "velocity": 0.3228346456692913,
                    "duration": 0.09999999999999432
                },
                {
                    "name": "F#4",
                    "midi": 66,
                    "time": 176.8999999999979,
                    "velocity": 0.3228346456692913,
                    "duration": 0.09999999999999432
                },
                {
                    "name": "F4",
                    "midi": 65,
                    "time": 176.9999999999979,
                    "velocity": 0.3228346456692913,
                    "duration": 0.09999999999999432
                },
                {
                    "name": "C#4",
                    "midi": 61,
                    "time": 177.0999999999979,
                    "velocity": 0.3228346456692913,
                    "duration": 0.09999999999999432
                },
                {
                    "name": "F4",
                    "midi": 65,
                    "time": 177.19999999999789,
                    "velocity": 0.3228346456692913,
                    "duration": 0.09999999999999432
                },
                {
                    "name": "D#4",
                    "midi": 63,
                    "time": 177.29999999999788,
                    "velocity": 0.31496062992125984,
                    "duration": 0.09999999999999432
                },
                {
                    "name": "A#4",
                    "midi": 70,
                    "time": 177.39999999999787,
                    "velocity": 0.3228346456692913,
                    "duration": 0.09999999999999432
                },
                {
                    "name": "G#4",
                    "midi": 68,
                    "time": 177.49999999999787,
                    "velocity": 0.3228346456692913,
                    "duration": 0.09999999999999432
                },
                {
                    "name": "F#4",
                    "midi": 66,
                    "time": 177.59999999999786,
                    "velocity": 0.3228346456692913,
                    "duration": 0.09999999999999432
                },
                {
                    "name": "F4",
                    "midi": 65,
                    "time": 177.69999999999786,
                    "velocity": 0.3228346456692913,
                    "duration": 0.09999999999999432
                },
                {
                    "name": "D#4",
                    "midi": 63,
                    "time": 177.79999999999785,
                    "velocity": 0.3228346456692913,
                    "duration": 0.09999999999999432
                },
                {
                    "name": "C#4",
                    "midi": 61,
                    "time": 177.89999999999785,
                    "velocity": 0.3228346456692913,
                    "duration": 0.09999999999999432
                },
                {
                    "name": "B3",
                    "midi": 59,
                    "time": 177.99999999999784,
                    "velocity": 0.3228346456692913,
                    "duration": 0.09999999999999432
                },
                {
                    "name": "A#3",
                    "midi": 58,
                    "time": 178.09999999999783,
                    "velocity": 0.3228346456692913,
                    "duration": 0.09999999999999432
                },
                {
                    "name": "G#3",
                    "midi": 56,
                    "time": 178.19999999999783,
                    "velocity": 0.3228346456692913,
                    "duration": 0.09999999999999432
                },
                {
                    "name": "B3",
                    "midi": 59,
                    "time": 178.29999999999782,
                    "velocity": 0.3228346456692913,
                    "duration": 0.09999999999999432
                },
                {
                    "name": "F4",
                    "midi": 65,
                    "time": 178.39999999999782,
                    "velocity": 0.3228346456692913,
                    "duration": 0.09999999999999432
                },
                {
                    "name": "G#4",
                    "midi": 68,
                    "time": 178.4999999999978,
                    "velocity": 0.3464566929133858,
                    "duration": 0.5999999999999659
                },
                {
                    "name": "B3",
                    "midi": 59,
                    "time": 178.5999999999978,
                    "velocity": 0.2992125984251969,
                    "duration": 0.09999999999999432
                },
                {
                    "name": "F4",
                    "midi": 65,
                    "time": 178.6999999999978,
                    "velocity": 0.2992125984251969,
                    "duration": 0.09999999999999432
                },
                {
                    "name": "D#4",
                    "midi": 63,
                    "time": 178.7999999999978,
                    "velocity": 0.3228346456692913,
                    "duration": 0.09999999999999432
                },
                {
                    "name": "B3",
                    "midi": 59,
                    "time": 178.8999999999978,
                    "velocity": 0.2992125984251969,
                    "duration": 0.09999999999999432
                },
                {
                    "name": "D#4",
                    "midi": 63,
                    "time": 178.99999999999778,
                    "velocity": 0.2992125984251969,
                    "duration": 0.09999999999999432
                },
                {
                    "name": "D4",
                    "midi": 62,
                    "time": 179.09999999999778,
                    "velocity": 0.3228346456692913,
                    "duration": 0.09999999999999432
                },
                {
                    "name": "G#4",
                    "midi": 68,
                    "time": 179.19999999999777,
                    "velocity": 0.3228346456692913,
                    "duration": 0.09999999999999432
                },
                {
                    "name": "F#4",
                    "midi": 66,
                    "time": 179.29999999999777,
                    "velocity": 0.3228346456692913,
                    "duration": 0.09999999999999432
                },
                {
                    "name": "F4",
                    "midi": 65,
                    "time": 179.39999999999776,
                    "velocity": 0.3228346456692913,
                    "duration": 0.09999999999999432
                },
                {
                    "name": "D#4",
                    "midi": 63,
                    "time": 179.49999999999775,
                    "velocity": 0.29133858267716534,
                    "duration": 0.09999999999999432
                },
                {
                    "name": "D4",
                    "midi": 62,
                    "time": 179.59999999999775,
                    "velocity": 0.29133858267716534,
                    "duration": 0.09999999999999432
                },
                {
                    "name": "B3",
                    "midi": 59,
                    "time": 179.69999999999774,
                    "velocity": 0.3228346456692913,
                    "duration": 0.09999999999999432
                },
                {
                    "name": "A#3",
                    "midi": 58,
                    "time": 179.79999999999774,
                    "velocity": 0.29133858267716534,
                    "duration": 0.09999999999999432
                },
                {
                    "name": "G#3",
                    "midi": 56,
                    "time": 179.89999999999773,
                    "velocity": 0.29133858267716534,
                    "duration": 0.09999999999999432
                },
                {
                    "name": "F#3",
                    "midi": 54,
                    "time": 179.99999999999773,
                    "velocity": 0.3228346456692913,
                    "duration": 0.09999999999999432
                },
                {
                    "name": "A#3",
                    "midi": 58,
                    "time": 180.09999999999772,
                    "velocity": 0.3228346456692913,
                    "duration": 0.09999999999999432
                },
                {
                    "name": "D#4",
                    "midi": 63,
                    "time": 180.19999999999771,
                    "velocity": 0.3228346456692913,
                    "duration": 0.09999999999999432
                },
                {
                    "name": "F#4",
                    "midi": 66,
                    "time": 180.2999999999977,
                    "velocity": 0.3464566929133858,
                    "duration": 0.5999999999999659
                },
                {
                    "name": "A#3",
                    "midi": 58,
                    "time": 180.3999999999977,
                    "velocity": 0.3228346456692913,
                    "duration": 0.09999999999999432
                },
                {
                    "name": "D#4",
                    "midi": 63,
                    "time": 180.4999999999977,
                    "velocity": 0.3228346456692913,
                    "duration": 0.09999999999999432
                },
                {
                    "name": "C#4",
                    "midi": 61,
                    "time": 180.5999999999977,
                    "velocity": 0.3464566929133858,
                    "duration": 0.09999999999999432
                },
                {
                    "name": "A#3",
                    "midi": 58,
                    "time": 180.6999999999977,
                    "velocity": 0.3228346456692913,
                    "duration": 0.09999999999999432
                },
                {
                    "name": "C#4",
                    "midi": 61,
                    "time": 180.79999999999768,
                    "velocity": 0.3228346456692913,
                    "duration": 0.09999999999999432
                },
                {
                    "name": "B3",
                    "midi": 59,
                    "time": 180.89999999999768,
                    "velocity": 0.3228346456692913,
                    "duration": 0.09999999999999432
                },
                {
                    "name": "D#4",
                    "midi": 63,
                    "time": 180.99999999999767,
                    "velocity": 0.3228346456692913,
                    "duration": 0.09999999999999432
                },
                {
                    "name": "G#4",
                    "midi": 68,
                    "time": 181.09999999999766,
                    "velocity": 0.3228346456692913,
                    "duration": 0.09999999999999432
                },
                {
                    "name": "B4",
                    "midi": 71,
                    "time": 181.19999999999766,
                    "velocity": 0.3464566929133858,
                    "duration": 0.5999999999999659
                },
                {
                    "name": "D#4",
                    "midi": 63,
                    "time": 181.29999999999765,
                    "velocity": 0.3228346456692913,
                    "duration": 0.09999999999999432
                },
                {
                    "name": "G#4",
                    "midi": 68,
                    "time": 181.39999999999765,
                    "velocity": 0.3228346456692913,
                    "duration": 0.09999999999999432
                },
                {
                    "name": "F#4",
                    "midi": 66,
                    "time": 181.49999999999764,
                    "velocity": 0.3464566929133858,
                    "duration": 0.09999999999999432
                },
                {
                    "name": "D#4",
                    "midi": 63,
                    "time": 181.59999999999764,
                    "velocity": 0.3228346456692913,
                    "duration": 0.09999999999999432
                },
                {
                    "name": "F#4",
                    "midi": 66,
                    "time": 181.69999999999763,
                    "velocity": 0.3228346456692913,
                    "duration": 0.09999999999999432
                },
                {
                    "name": "B4",
                    "midi": 71,
                    "time": 181.79999999999762,
                    "velocity": 0.3779527559055118,
                    "duration": 0.29999999999998295
                },
                {
                    "name": "F4",
                    "midi": 65,
                    "time": 181.89999999999762,
                    "velocity": 0.3228346456692913,
                    "duration": 0.09999999999999432
                },
                {
                    "name": "D4",
                    "midi": 62,
                    "time": 181.9999999999976,
                    "velocity": 0.3228346456692913,
                    "duration": 0.09999999999999432
                },
                {
                    "name": "A#4",
                    "midi": 70,
                    "time": 182.0999999999976,
                    "velocity": 0.3700787401574803,
                    "duration": 0.29999999999998295
                },
                {
                    "name": "F4",
                    "midi": 65,
                    "time": 182.1999999999976,
                    "velocity": 0.3228346456692913,
                    "duration": 0.09999999999999432
                },
                {
                    "name": "D4",
                    "midi": 62,
                    "time": 182.2999999999976,
                    "velocity": 0.3228346456692913,
                    "duration": 0.09999999999999432
                },
                {
                    "name": "D5",
                    "midi": 74,
                    "time": 182.3999999999976,
                    "velocity": 0.3700787401574803,
                    "duration": 0.29999999999998295
                },
                {
                    "name": "G#4",
                    "midi": 68,
                    "time": 182.49999999999758,
                    "velocity": 0.3228346456692913,
                    "duration": 0.09999999999999432
                },
                {
                    "name": "F4",
                    "midi": 65,
                    "time": 182.59999999999758,
                    "velocity": 0.3228346456692913,
                    "duration": 0.09999999999999432
                },
                {
                    "name": "D#5",
                    "midi": 75,
                    "time": 182.69999999999757,
                    "velocity": 0.3700787401574803,
                    "duration": 0.09999999999999432
                },
                {
                    "name": "F#5",
                    "midi": 78,
                    "time": 182.79999999999757,
                    "velocity": 0.30708661417322836,
                    "duration": 0.09999999999999432
                },
                {
                    "name": "F5",
                    "midi": 77,
                    "time": 182.89999999999756,
                    "velocity": 0.30708661417322836,
                    "duration": 0.09999999999999432
                },
                {
                    "name": "D#5",
                    "midi": 75,
                    "time": 182.99999999999756,
                    "velocity": 0.30708661417322836,
                    "duration": 0.09999999999999432
                },
                {
                    "name": "C#5",
                    "midi": 73,
                    "time": 183.09999999999755,
                    "velocity": 0.30708661417322836,
                    "duration": 0.09999999999999432
                },
                {
                    "name": "B4",
                    "midi": 71,
                    "time": 183.19999999999754,
                    "velocity": 0.30708661417322836,
                    "duration": 0.09999999999999432
                },
                {
                    "name": "A#4",
                    "midi": 70,
                    "time": 183.29999999999754,
                    "velocity": 0.30708661417322836,
                    "duration": 0.09999999999999432
                },
                {
                    "name": "G#4",
                    "midi": 68,
                    "time": 183.39999999999753,
                    "velocity": 0.30708661417322836,
                    "duration": 0.09999999999999432
                },
                {
                    "name": "F4",
                    "midi": 65,
                    "time": 183.49999999999753,
                    "velocity": 0.30708661417322836,
                    "duration": 0.09999999999999432
                },
                {
                    "name": "F#4",
                    "midi": 66,
                    "time": 183.59999999999752,
                    "velocity": 0.30708661417322836,
                    "duration": 0.09999999999999432
                },
                {
                    "name": "A#4",
                    "midi": 70,
                    "time": 183.69999999999752,
                    "velocity": 0.30708661417322836,
                    "duration": 0.09999999999999432
                },
                {
                    "name": "G#4",
                    "midi": 68,
                    "time": 183.7999999999975,
                    "velocity": 0.30708661417322836,
                    "duration": 0.09999999999999432
                },
                {
                    "name": "F#4",
                    "midi": 66,
                    "time": 183.8999999999975,
                    "velocity": 0.30708661417322836,
                    "duration": 0.09999999999999432
                },
                {
                    "name": "F4",
                    "midi": 65,
                    "time": 183.9999999999975,
                    "velocity": 0.30708661417322836,
                    "duration": 0.09999999999999432
                },
                {
                    "name": "D#4",
                    "midi": 63,
                    "time": 184.0999999999975,
                    "velocity": 0.30708661417322836,
                    "duration": 0.09999999999999432
                },
                {
                    "name": "C#4",
                    "midi": 61,
                    "time": 184.1999999999975,
                    "velocity": 0.30708661417322836,
                    "duration": 0.09999999999999432
                },
                {
                    "name": "B3",
                    "midi": 59,
                    "time": 184.29999999999748,
                    "velocity": 0.30708661417322836,
                    "duration": 0.09999999999999432
                },
                {
                    "name": "A#3",
                    "midi": 58,
                    "time": 184.39999999999748,
                    "velocity": 0.31496062992125984,
                    "duration": 0.09999999999999432
                },
                {
                    "name": "B3",
                    "midi": 59,
                    "time": 184.49999999999747,
                    "velocity": 0.31496062992125984,
                    "duration": 0.09999999999999432
                },
                {
                    "name": "D4",
                    "midi": 62,
                    "time": 184.59999999999746,
                    "velocity": 0.31496062992125984,
                    "duration": 0.09999999999999432
                },
                {
                    "name": "F4",
                    "midi": 65,
                    "time": 184.69999999999746,
                    "velocity": 0.31496062992125984,
                    "duration": 0.09999999999999432
                },
                {
                    "name": "B4",
                    "midi": 71,
                    "time": 184.79999999999745,
                    "velocity": 0.3464566929133858,
                    "duration": 0.5999999999999659
                },
                {
                    "name": "F4",
                    "midi": 65,
                    "time": 184.89999999999745,
                    "velocity": 0.2992125984251969,
                    "duration": 0.09999999999999432
                },
                {
                    "name": "D4",
                    "midi": 62,
                    "time": 184.99999999999744,
                    "velocity": 0.2992125984251969,
                    "duration": 0.09999999999999432
                },
                {
                    "name": "F4",
                    "midi": 65,
                    "time": 185.09999999999744,
                    "velocity": 0.31496062992125984,
                    "duration": 0.09999999999999432
                },
                {
                    "name": "C#4",
                    "midi": 61,
                    "time": 185.19999999999743,
                    "velocity": 0.2992125984251969,
                    "duration": 0.09999999999999432
                },
                {
                    "name": "B3",
                    "midi": 59,
                    "time": 185.29999999999742,
                    "velocity": 0.2992125984251969,
                    "duration": 0.09999999999999432
                },
                {
                    "name": "A#3",
                    "midi": 58,
                    "time": 185.39999999999742,
                    "velocity": 0.31496062992125984,
                    "duration": 0.09999999999999432
                },
                {
                    "name": "A#4",
                    "midi": 70,
                    "time": 185.4999999999974,
                    "velocity": 0.31496062992125984,
                    "duration": 0.09999999999999432
                },
                {
                    "name": "G#4",
                    "midi": 68,
                    "time": 185.5999999999974,
                    "velocity": 0.31496062992125984,
                    "duration": 0.09999999999999432
                },
                {
                    "name": "F#4",
                    "midi": 66,
                    "time": 185.6999999999974,
                    "velocity": 0.31496062992125984,
                    "duration": 0.09999999999999432
                },
                {
                    "name": "F4",
                    "midi": 65,
                    "time": 185.7999999999974,
                    "velocity": 0.28346456692913385,
                    "duration": 0.09999999999999432
                },
                {
                    "name": "D#4",
                    "midi": 63,
                    "time": 185.8999999999974,
                    "velocity": 0.28346456692913385,
                    "duration": 0.09999999999999432
                },
                {
                    "name": "C#4",
                    "midi": 61,
                    "time": 185.99999999999739,
                    "velocity": 0.31496062992125984,
                    "duration": 0.09999999999999432
                },
                {
                    "name": "B3",
                    "midi": 59,
                    "time": 186.09999999999738,
                    "velocity": 0.29133858267716534,
                    "duration": 0.09999999999999432
                },
                {
                    "name": "A#3",
                    "midi": 58,
                    "time": 186.19999999999737,
                    "velocity": 0.29133858267716534,
                    "duration": 0.09999999999999432
                },
                {
                    "name": "B3",
                    "midi": 59,
                    "time": 186.29999999999737,
                    "velocity": 0.30708661417322836,
                    "duration": 0.09999999999999432
                },
                {
                    "name": "D4",
                    "midi": 62,
                    "time": 186.39999999999736,
                    "velocity": 0.30708661417322836,
                    "duration": 0.09999999999999432
                },
                {
                    "name": "F4",
                    "midi": 65,
                    "time": 186.49999999999736,
                    "velocity": 0.30708661417322836,
                    "duration": 0.09999999999999432
                },
                {
                    "name": "B4",
                    "midi": 71,
                    "time": 186.59999999999735,
                    "velocity": 0.3543307086614173,
                    "duration": 0.5999999999999659
                },
                {
                    "name": "F4",
                    "midi": 65,
                    "time": 186.69999999999735,
                    "velocity": 0.28346456692913385,
                    "duration": 0.09999999999999432
                },
                {
                    "name": "D4",
                    "midi": 62,
                    "time": 186.79999999999734,
                    "velocity": 0.28346456692913385,
                    "duration": 0.09999999999999432
                },
                {
                    "name": "F4",
                    "midi": 65,
                    "time": 186.89999999999733,
                    "velocity": 0.31496062992125984,
                    "duration": 0.09999999999999432
                },
                {
                    "name": "C#4",
                    "midi": 61,
                    "time": 186.99999999999733,
                    "velocity": 0.2992125984251969,
                    "duration": 0.09999999999999432
                },
                {
                    "name": "B3",
                    "midi": 59,
                    "time": 187.09999999999732,
                    "velocity": 0.2992125984251969,
                    "duration": 0.09999999999999432
                },
                {
                    "name": "C#4",
                    "midi": 61,
                    "time": 187.19999999999732,
                    "velocity": 0.31496062992125984,
                    "duration": 0.09999999999999432
                },
                {
                    "name": "F#4",
                    "midi": 66,
                    "time": 187.2999999999973,
                    "velocity": 0.31496062992125984,
                    "duration": 0.09999999999999432
                },
                {
                    "name": "A#4",
                    "midi": 70,
                    "time": 187.3999999999973,
                    "velocity": 0.31496062992125984,
                    "duration": 0.09999999999999432
                },
                {
                    "name": "C#5",
                    "midi": 73,
                    "time": 187.4999999999973,
                    "velocity": 0.3543307086614173,
                    "duration": 0.5999999999999659
                },
                {
                    "name": "A#4",
                    "midi": 70,
                    "time": 187.5999999999973,
                    "velocity": 0.29133858267716534,
                    "duration": 0.09999999999999432
                },
                {
                    "name": "F#4",
                    "midi": 66,
                    "time": 187.6999999999973,
                    "velocity": 0.29133858267716534,
                    "duration": 0.09999999999999432
                },
                {
                    "name": "F4",
                    "midi": 65,
                    "time": 187.79999999999728,
                    "velocity": 0.31496062992125984,
                    "duration": 0.09999999999999432
                },
                {
                    "name": "F#4",
                    "midi": 66,
                    "time": 187.89999999999728,
                    "velocity": 0.2992125984251969,
                    "duration": 0.09999999999999432
                },
                {
                    "name": "E4",
                    "midi": 64,
                    "time": 187.99999999999727,
                    "velocity": 0.2992125984251969,
                    "duration": 0.09999999999999432
                },
                {
                    "name": "D#4",
                    "midi": 63,
                    "time": 188.09999999999727,
                    "velocity": 0.30708661417322836,
                    "duration": 0.09999999999999432
                },
                {
                    "name": "G#4",
                    "midi": 68,
                    "time": 188.19999999999726,
                    "velocity": 0.30708661417322836,
                    "duration": 0.09999999999999432
                },
                {
                    "name": "B4",
                    "midi": 71,
                    "time": 188.29999999999725,
                    "velocity": 0.30708661417322836,
                    "duration": 0.09999999999999432
                },
                {
                    "name": "D#5",
                    "midi": 75,
                    "time": 188.39999999999725,
                    "velocity": 0.36220472440944884,
                    "duration": 0.5999999999999659
                },
                {
                    "name": "B4",
                    "midi": 71,
                    "time": 188.49999999999724,
                    "velocity": 0.29133858267716534,
                    "duration": 0.09999999999999432
                },
                {
                    "name": "G#4",
                    "midi": 68,
                    "time": 188.59999999999724,
                    "velocity": 0.29133858267716534,
                    "duration": 0.09999999999999432
                },
                {
                    "name": "G4",
                    "midi": 67,
                    "time": 188.69999999999723,
                    "velocity": 0.31496062992125984,
                    "duration": 0.09999999999999432
                },
                {
                    "name": "G#4",
                    "midi": 68,
                    "time": 188.79999999999723,
                    "velocity": 0.29133858267716534,
                    "duration": 0.09999999999999432
                },
                {
                    "name": "F#4",
                    "midi": 66,
                    "time": 188.89999999999722,
                    "velocity": 0.29133858267716534,
                    "duration": 0.09999999999999432
                },
                {
                    "name": "F4",
                    "midi": 65,
                    "time": 188.99999999999721,
                    "velocity": 0.31496062992125984,
                    "duration": 0.09999999999999432
                },
                {
                    "name": "F#4",
                    "midi": 66,
                    "time": 189.0999999999972,
                    "velocity": 0.31496062992125984,
                    "duration": 0.09999999999999432
                },
                {
                    "name": "G4",
                    "midi": 67,
                    "time": 189.1999999999972,
                    "velocity": 0.31496062992125984,
                    "duration": 0.09999999999999432
                },
                {
                    "name": "G#4",
                    "midi": 68,
                    "time": 189.2999999999972,
                    "velocity": 0.31496062992125984,
                    "duration": 0.09999999999999432
                },
                {
                    "name": "A#4",
                    "midi": 70,
                    "time": 189.3999999999972,
                    "velocity": 0.31496062992125984,
                    "duration": 0.09999999999999432
                },
                {
                    "name": "B4",
                    "midi": 71,
                    "time": 189.4999999999972,
                    "velocity": 0.31496062992125984,
                    "duration": 0.09999999999999432
                },
                {
                    "name": "C#5",
                    "midi": 73,
                    "time": 189.59999999999718,
                    "velocity": 0.31496062992125984,
                    "duration": 0.09999999999999432
                },
                {
                    "name": "D#5",
                    "midi": 75,
                    "time": 189.69999999999717,
                    "velocity": 0.31496062992125984,
                    "duration": 0.09999999999999432
                },
                {
                    "name": "F5",
                    "midi": 77,
                    "time": 189.79999999999717,
                    "velocity": 0.31496062992125984,
                    "duration": 0.09999999999999432
                },
                {
                    "name": "F#5",
                    "midi": 78,
                    "time": 189.89999999999716,
                    "velocity": 0.30708661417322836,
                    "duration": 0.09999999999999432
                },
                {
                    "name": "A#5",
                    "midi": 82,
                    "time": 189.99999999999716,
                    "velocity": 0.30708661417322836,
                    "duration": 0.09999999999999432
                },
                {
                    "name": "G#5",
                    "midi": 80,
                    "time": 190.09999999999715,
                    "velocity": 0.31496062992125984,
                    "duration": 0.09999999999999432
                },
                {
                    "name": "F#5",
                    "midi": 78,
                    "time": 190.19999999999715,
                    "velocity": 0.31496062992125984,
                    "duration": 0.09999999999999432
                },
                {
                    "name": "F5",
                    "midi": 77,
                    "time": 190.29999999999714,
                    "velocity": 0.31496062992125984,
                    "duration": 0.09999999999999432
                },
                {
                    "name": "D#5",
                    "midi": 75,
                    "time": 190.39999999999714,
                    "velocity": 0.31496062992125984,
                    "duration": 0.09999999999999432
                },
                {
                    "name": "C#5",
                    "midi": 73,
                    "time": 190.49999999999713,
                    "velocity": 0.31496062992125984,
                    "duration": 0.09999999999999432
                },
                {
                    "name": "B4",
                    "midi": 71,
                    "time": 190.59999999999712,
                    "velocity": 0.31496062992125984,
                    "duration": 0.09999999999999432
                },
                {
                    "name": "A#4",
                    "midi": 70,
                    "time": 190.69999999999712,
                    "velocity": 0.31496062992125984,
                    "duration": 0.09999999999999432
                },
                {
                    "name": "G#4",
                    "midi": 68,
                    "time": 190.7999999999971,
                    "velocity": 0.31496062992125984,
                    "duration": 0.09999999999999432
                },
                {
                    "name": "B4",
                    "midi": 71,
                    "time": 190.8999999999971,
                    "velocity": 0.31496062992125984,
                    "duration": 0.09999999999999432
                },
                {
                    "name": "A#4",
                    "midi": 70,
                    "time": 190.9999999999971,
                    "velocity": 0.31496062992125984,
                    "duration": 0.09999999999999432
                },
                {
                    "name": "G#4",
                    "midi": 68,
                    "time": 191.0999999999971,
                    "velocity": 0.2992125984251969,
                    "duration": 0.09999999999999432
                },
                {
                    "name": "F#4",
                    "midi": 66,
                    "time": 191.1999999999971,
                    "velocity": 0.29133858267716534,
                    "duration": 0.09999999999999432
                },
                {
                    "name": "F4",
                    "midi": 65,
                    "time": 191.29999999999708,
                    "velocity": 0.2755905511811024,
                    "duration": 0.09999999999999432
                },
                {
                    "name": "D#4",
                    "midi": 63,
                    "time": 191.39999999999708,
                    "velocity": 0.31496062992125984,
                    "duration": 0.09999999999999432
                },
                {
                    "name": "D4",
                    "midi": 62,
                    "time": 191.49999999999707,
                    "velocity": 0.25984251968503935,
                    "duration": 0.09999999999999432
                },
                {
                    "name": "F4",
                    "midi": 65,
                    "time": 191.59999999999707,
                    "velocity": 0.25984251968503935,
                    "duration": 0.09999999999999432
                },
                {
                    "name": "G#4",
                    "midi": 68,
                    "time": 191.69999999999706,
                    "velocity": 0.25984251968503935,
                    "duration": 0.09999999999999432
                },
                {
                    "name": "B4",
                    "midi": 71,
                    "time": 191.79999999999706,
                    "velocity": 0.25984251968503935,
                    "duration": 0.09999999999999432
                },
                {
                    "name": "A#4",
                    "midi": 70,
                    "time": 191.89999999999705,
                    "velocity": 0.25984251968503935,
                    "duration": 0.09999999999999432
                },
                {
                    "name": "G#4",
                    "midi": 68,
                    "time": 191.99999999999704,
                    "velocity": 0.25984251968503935,
                    "duration": 0.09999999999999432
                },
                {
                    "name": "F#4",
                    "midi": 66,
                    "time": 192.09999999999704,
                    "velocity": 0.25984251968503935,
                    "duration": 0.09999999999999432
                },
                {
                    "name": "F4",
                    "midi": 65,
                    "time": 192.19999999999703,
                    "velocity": 0.25984251968503935,
                    "duration": 0.09999999999999432
                },
                {
                    "name": "D#4",
                    "midi": 63,
                    "time": 192.29999999999703,
                    "velocity": 0.31496062992125984,
                    "duration": 0.09999999999999432
                },
                {
                    "name": "D4",
                    "midi": 62,
                    "time": 192.39999999999702,
                    "velocity": 0.25984251968503935,
                    "duration": 0.09999999999999432
                },
                {
                    "name": "F4",
                    "midi": 65,
                    "time": 192.49999999999702,
                    "velocity": 0.25984251968503935,
                    "duration": 0.09999999999999432
                },
                {
                    "name": "G#4",
                    "midi": 68,
                    "time": 192.599999999997,
                    "velocity": 0.25196850393700787,
                    "duration": 0.09999999999999432
                },
                {
                    "name": "B4",
                    "midi": 71,
                    "time": 192.699999999997,
                    "velocity": 0.25196850393700787,
                    "duration": 0.09999999999999432
                },
                {
                    "name": "A#4",
                    "midi": 70,
                    "time": 192.799999999997,
                    "velocity": 0.25196850393700787,
                    "duration": 0.09999999999999432
                },
                {
                    "name": "G#4",
                    "midi": 68,
                    "time": 192.899999999997,
                    "velocity": 0.25196850393700787,
                    "duration": 0.09999999999999432
                },
                {
                    "name": "F#4",
                    "midi": 66,
                    "time": 192.999999999997,
                    "velocity": 0.25196850393700787,
                    "duration": 0.09999999999999432
                },
                {
                    "name": "F4",
                    "midi": 65,
                    "time": 193.09999999999698,
                    "velocity": 0.25196850393700787,
                    "duration": 0.09999999999999432
                },
                {
                    "name": "D#4",
                    "midi": 63,
                    "time": 193.19999999999698,
                    "velocity": 0.30708661417322836,
                    "duration": 0.09999999999999432
                },
                {
                    "name": "D4",
                    "midi": 62,
                    "time": 193.29999999999697,
                    "velocity": 0.25196850393700787,
                    "duration": 0.09999999999999432
                },
                {
                    "name": "F4",
                    "midi": 65,
                    "time": 193.39999999999696,
                    "velocity": 0.25196850393700787,
                    "duration": 0.09999999999999432
                },
                {
                    "name": "G#4",
                    "midi": 68,
                    "time": 193.49999999999696,
                    "velocity": 0.25196850393700787,
                    "duration": 0.09999999999999432
                },
                {
                    "name": "B4",
                    "midi": 71,
                    "time": 193.59999999999695,
                    "velocity": 0.2677165354330709,
                    "duration": 0.09999999999999432
                },
                {
                    "name": "D5",
                    "midi": 74,
                    "time": 193.69999999999695,
                    "velocity": 0.28346456692913385,
                    "duration": 0.09999999999999432
                },
                {
                    "name": "B4",
                    "midi": 71,
                    "time": 193.79999999999694,
                    "velocity": 0.30708661417322836,
                    "duration": 0.09999999999999432
                },
                {
                    "name": "D5",
                    "midi": 74,
                    "time": 193.89999999999694,
                    "velocity": 0.31496062992125984,
                    "duration": 0.09999999999999432
                },
                {
                    "name": "F5",
                    "midi": 77,
                    "time": 193.99999999999693,
                    "velocity": 0.3228346456692913,
                    "duration": 0.09999999999999432
                },
                {
                    "name": "D5",
                    "midi": 74,
                    "time": 194.09999999999692,
                    "velocity": 0.33858267716535434,
                    "duration": 0.09999999999999432
                },
                {
                    "name": "F5",
                    "midi": 77,
                    "time": 194.19999999999692,
                    "velocity": 0.3543307086614173,
                    "duration": 0.09999999999999432
                },
                {
                    "name": "F#5",
                    "midi": 78,
                    "time": 194.2999999999969,
                    "velocity": 0.36220472440944884,
                    "duration": 0.09999999999999432
                },
                {
                    "name": "G#5",
                    "midi": 80,
                    "time": 194.3999999999969,
                    "velocity": 0.36220472440944884,
                    "duration": 0.09999999999999432
                },
                {
                    "name": "B5",
                    "midi": 83,
                    "time": 194.4999999999969,
                    "velocity": 0.3779527559055118,
                    "duration": 0.09999999999999432
                },
                {
                    "name": "A#5",
                    "midi": 82,
                    "time": 194.5999999999969,
                    "velocity": 0.3543307086614173,
                    "duration": 0.09999999999999432
                },
                {
                    "name": "G#5",
                    "midi": 80,
                    "time": 194.6999999999969,
                    "velocity": 0.3779527559055118,
                    "duration": 0.09999999999999432
                },
                {
                    "name": "F#5",
                    "midi": 78,
                    "time": 194.79999999999688,
                    "velocity": 0.36220472440944884,
                    "duration": 0.09999999999999432
                },
                {
                    "name": "F5",
                    "midi": 77,
                    "time": 194.89999999999688,
                    "velocity": 0.36220472440944884,
                    "duration": 0.09999999999999432
                },
                {
                    "name": "D#5",
                    "midi": 75,
                    "time": 194.99999999999687,
                    "velocity": 0.41732283464566927,
                    "duration": 0.09999999999999432
                },
                {
                    "name": "D5",
                    "midi": 74,
                    "time": 195.09999999999687,
                    "velocity": 0.3700787401574803,
                    "duration": 0.09999999999999432
                },
                {
                    "name": "F5",
                    "midi": 77,
                    "time": 195.19999999999686,
                    "velocity": 0.3700787401574803,
                    "duration": 0.09999999999999432
                },
                {
                    "name": "G#5",
                    "midi": 80,
                    "time": 195.29999999999686,
                    "velocity": 0.3700787401574803,
                    "duration": 0.09999999999999432
                },
                {
                    "name": "B5",
                    "midi": 83,
                    "time": 195.39999999999685,
                    "velocity": 0.3464566929133858,
                    "duration": 0.09999999999999432
                },
                {
                    "name": "A#5",
                    "midi": 82,
                    "time": 195.49999999999685,
                    "velocity": 0.3464566929133858,
                    "duration": 0.09999999999999432
                },
                {
                    "name": "G#5",
                    "midi": 80,
                    "time": 195.59999999999684,
                    "velocity": 0.3700787401574803,
                    "duration": 0.09999999999999432
                },
                {
                    "name": "F#5",
                    "midi": 78,
                    "time": 195.69999999999683,
                    "velocity": 0.3464566929133858,
                    "duration": 0.09999999999999432
                },
                {
                    "name": "F5",
                    "midi": 77,
                    "time": 195.79999999999683,
                    "velocity": 0.3464566929133858,
                    "duration": 0.09999999999999432
                },
                {
                    "name": "D#5",
                    "midi": 75,
                    "time": 195.89999999999682,
                    "velocity": 0.4094488188976378,
                    "duration": 0.09999999999999432
                },
                {
                    "name": "D5",
                    "midi": 74,
                    "time": 195.99999999999682,
                    "velocity": 0.3779527559055118,
                    "duration": 0.09999999999999432
                },
                {
                    "name": "F5",
                    "midi": 77,
                    "time": 196.0999999999968,
                    "velocity": 0.3779527559055118,
                    "duration": 0.09999999999999432
                },
                {
                    "name": "G#5",
                    "midi": 80,
                    "time": 196.1999999999968,
                    "velocity": 0.3779527559055118,
                    "duration": 0.09999999999999432
                },
                {
                    "name": "B5",
                    "midi": 83,
                    "time": 196.2999999999968,
                    "velocity": 0.3779527559055118,
                    "duration": 0.09999999999999432
                },
                {
                    "name": "G#5",
                    "midi": 80,
                    "time": 196.3999999999968,
                    "velocity": 0.4015748031496063,
                    "duration": 0.09999999999999432
                },
                {
                    "name": "B5",
                    "midi": 83,
                    "time": 196.4999999999968,
                    "velocity": 0.41732283464566927,
                    "duration": 0.09999999999999432
                },
                {
                    "name": "G#5",
                    "midi": 80,
                    "time": 196.59999999999678,
                    "velocity": 0.4251968503937008,
                    "duration": 0.09999999999999432
                },
                {
                    "name": "B5",
                    "midi": 83,
                    "time": 196.69999999999678,
                    "velocity": 0.4409448818897638,
                    "duration": 0.09999999999999432
                },
                {
                    "name": "G#5",
                    "midi": 80,
                    "time": 196.79999999999677,
                    "velocity": 0.44881889763779526,
                    "duration": 0.09999999999999432
                },
                {
                    "name": "B5",
                    "midi": 83,
                    "time": 196.89999999999677,
                    "velocity": 0.47244094488188976,
                    "duration": 0.09999999999999432
                },
                {
                    "name": "G#5",
                    "midi": 80,
                    "time": 196.99999999999676,
                    "velocity": 0.48031496062992124,
                    "duration": 0.09999999999999432
                },
                {
                    "name": "A#5",
                    "midi": 82,
                    "time": 197.09999999999675,
                    "velocity": 0.4881889763779528,
                    "duration": 0.09999999999999432
                },
                {
                    "name": "G#5",
                    "midi": 80,
                    "time": 197.19999999999675,
                    "velocity": 0.4566929133858268,
                    "duration": 0.09999999999999432
                },
                {
                    "name": "A#5",
                    "midi": 82,
                    "time": 197.29999999999674,
                    "velocity": 0.4251968503937008,
                    "duration": 0.09999999999999432
                },
                {
                    "name": "G#5",
                    "midi": 80,
                    "time": 197.39999999999674,
                    "velocity": 0.3937007874015748,
                    "duration": 0.09999999999999432
                },
                {
                    "name": "A#5",
                    "midi": 82,
                    "time": 197.49999999999673,
                    "velocity": 0.36220472440944884,
                    "duration": 0.09999999999999432
                },
                {
                    "name": "G#5",
                    "midi": 80,
                    "time": 197.59999999999673,
                    "velocity": 0.33070866141732286,
                    "duration": 0.09999999999999432
                },
                {
                    "name": "A#5",
                    "midi": 82,
                    "time": 197.69999999999672,
                    "velocity": 0.2992125984251969,
                    "duration": 0.09999999999999432
                },
                {
                    "name": "G#5",
                    "midi": 80,
                    "time": 197.79999999999671,
                    "velocity": 0.2677165354330709,
                    "duration": 0.09999999999999432
                },
                {
                    "name": "A#5",
                    "midi": 82,
                    "time": 197.8999999999967,
                    "velocity": 0.23622047244094488,
                    "duration": 0.09999999999999432
                },
                {
                    "name": "G5",
                    "midi": 79,
                    "time": 197.9999999999967,
                    "velocity": 0.3779527559055118,
                    "duration": 0.09999999999999432
                },
                {
                    "name": "A#5",
                    "midi": 82,
                    "time": 198.0999999999967,
                    "velocity": 0.3464566929133858,
                    "duration": 0.09999999999999432
                },
                {
                    "name": "G#5",
                    "midi": 80,
                    "time": 198.1999999999967,
                    "velocity": 0.31496062992125984,
                    "duration": 0.09999999999999432
                },
                {
                    "name": "G5",
                    "midi": 79,
                    "time": 198.2999999999967,
                    "velocity": 0.3779527559055118,
                    "duration": 0.09999999999999432
                },
                {
                    "name": "F5",
                    "midi": 77,
                    "time": 198.39999999999668,
                    "velocity": 0.3543307086614173,
                    "duration": 0.09999999999999432
                },
                {
                    "name": "D#5",
                    "midi": 75,
                    "time": 198.49999999999667,
                    "velocity": 0.3228346456692913,
                    "duration": 0.09999999999999432
                },
                {
                    "name": "D5",
                    "midi": 74,
                    "time": 198.59999999999667,
                    "velocity": 0.3779527559055118,
                    "duration": 0.09999999999999432
                },
                {
                    "name": "C5",
                    "midi": 72,
                    "time": 198.69999999999666,
                    "velocity": 0.3543307086614173,
                    "duration": 0.09999999999999432
                },
                {
                    "name": "A#4",
                    "midi": 70,
                    "time": 198.79999999999666,
                    "velocity": 0.3228346456692913,
                    "duration": 0.09999999999999432
                },
                {
                    "name": "G#4",
                    "midi": 68,
                    "time": 198.89999999999665,
                    "velocity": 0.3779527559055118,
                    "duration": 0.09999999999999432
                },
                {
                    "name": "G4",
                    "midi": 67,
                    "time": 198.99999999999665,
                    "velocity": 0.3464566929133858,
                    "duration": 0.09999999999999432
                },
                {
                    "name": "F4",
                    "midi": 65,
                    "time": 199.09999999999664,
                    "velocity": 0.3228346456692913,
                    "duration": 0.09999999999999432
                },
                {
                    "name": "D#4",
                    "midi": 63,
                    "time": 199.19999999999663,
                    "velocity": 0.3779527559055118,
                    "duration": 0.09999999999999432
                },
                {
                    "name": "D4",
                    "midi": 62,
                    "time": 199.29999999999663,
                    "velocity": 0.3543307086614173,
                    "duration": 0.09999999999999432
                },
                {
                    "name": "C4",
                    "midi": 60,
                    "time": 199.39999999999662,
                    "velocity": 0.33070866141732286,
                    "duration": 0.09999999999999432
                },
                {
                    "name": "A#3",
                    "midi": 58,
                    "time": 199.49999999999662,
                    "velocity": 0.3779527559055118,
                    "duration": 0.29999999999998295
                },
                {
                    "name": "C4",
                    "midi": 60,
                    "time": 199.5999999999966,
                    "velocity": 0.3464566929133858,
                    "duration": 0.09999999999999432
                },
                {
                    "name": "D4",
                    "midi": 62,
                    "time": 199.6999999999966,
                    "velocity": 0.33070866141732286,
                    "duration": 0.09999999999999432
                },
                {
                    "name": "D#4",
                    "midi": 63,
                    "time": 199.7999999999966,
                    "velocity": 0.3779527559055118,
                    "duration": 0.09999999999999432
                },
                {
                    "name": "D4",
                    "midi": 62,
                    "time": 199.8999999999966,
                    "velocity": 0.3464566929133858,
                    "duration": 0.09999999999999432
                },
                {
                    "name": "D#4",
                    "midi": 63,
                    "time": 199.9999999999966,
                    "velocity": 0.3464566929133858,
                    "duration": 0.09999999999999432
                },
                {
                    "name": "E4",
                    "midi": 64,
                    "time": 200.09999999999658,
                    "velocity": 0.4015748031496063,
                    "duration": 0.09999999999999432
                },
                {
                    "name": "D#4",
                    "midi": 63,
                    "time": 200.19999999999658,
                    "velocity": 0.3779527559055118,
                    "duration": 0.09999999999999432
                },
                {
                    "name": "E4",
                    "midi": 64,
                    "time": 200.29999999999657,
                    "velocity": 0.3779527559055118,
                    "duration": 0.09999999999999432
                },
                {
                    "name": "F4",
                    "midi": 65,
                    "time": 200.39999999999657,
                    "velocity": 0.4330708661417323,
                    "duration": 0.09999999999999432
                },
                {
                    "name": "E4",
                    "midi": 64,
                    "time": 200.49999999999656,
                    "velocity": 0.4094488188976378,
                    "duration": 0.09999999999999432
                },
                {
                    "name": "F4",
                    "midi": 65,
                    "time": 200.59999999999656,
                    "velocity": 0.4094488188976378,
                    "duration": 0.09999999999999432
                },
                {
                    "name": "F#4",
                    "midi": 66,
                    "time": 200.69999999999655,
                    "velocity": 0.4566929133858268,
                    "duration": 0.09999999999999432
                },
                {
                    "name": "F4",
                    "midi": 65,
                    "time": 200.79999999999654,
                    "velocity": 0.4094488188976378,
                    "duration": 0.09999999999999432
                },
                {
                    "name": "F#4",
                    "midi": 66,
                    "time": 200.89999999999654,
                    "velocity": 0.3779527559055118,
                    "duration": 0.09999999999999432
                },
                {
                    "name": "G4",
                    "midi": 67,
                    "time": 200.99999999999653,
                    "velocity": 0.4409448818897638,
                    "duration": 0.09999999999999432
                },
                {
                    "name": "F#4",
                    "midi": 66,
                    "time": 201.09999999999653,
                    "velocity": 0.41732283464566927,
                    "duration": 0.09999999999999432
                },
                {
                    "name": "G4",
                    "midi": 67,
                    "time": 201.19999999999652,
                    "velocity": 0.3779527559055118,
                    "duration": 0.09999999999999432
                },
                {
                    "name": "G#4",
                    "midi": 68,
                    "time": 201.29999999999652,
                    "velocity": 0.3779527559055118,
                    "duration": 0.09999999999999432
                },
                {
                    "name": "G4",
                    "midi": 67,
                    "time": 201.3999999999965,
                    "velocity": 0.36220472440944884,
                    "duration": 0.09999999999999432
                },
                {
                    "name": "G#4",
                    "midi": 68,
                    "time": 201.4999999999965,
                    "velocity": 0.36220472440944884,
                    "duration": 0.09999999999999432
                },
                {
                    "name": "G4",
                    "midi": 67,
                    "time": 201.5999999999965,
                    "velocity": 0.3779527559055118,
                    "duration": 0.09999999999999432
                },
                {
                    "name": "A#4",
                    "midi": 70,
                    "time": 201.6999999999965,
                    "velocity": 0.3543307086614173,
                    "duration": 0.09999999999999432
                },
                {
                    "name": "G#4",
                    "midi": 68,
                    "time": 201.7999999999965,
                    "velocity": 0.3543307086614173,
                    "duration": 0.09999999999999432
                },
                {
                    "name": "G4",
                    "midi": 67,
                    "time": 201.89999999999648,
                    "velocity": 0.3779527559055118,
                    "duration": 0.09999999999999432
                },
                {
                    "name": "G#4",
                    "midi": 68,
                    "time": 201.99999999999648,
                    "velocity": 0.3543307086614173,
                    "duration": 0.09999999999999432
                },
                {
                    "name": "A#4",
                    "midi": 70,
                    "time": 202.09999999999647,
                    "velocity": 0.3543307086614173,
                    "duration": 0.09999999999999432
                },
                {
                    "name": "C5",
                    "midi": 72,
                    "time": 202.19999999999646,
                    "velocity": 0.3779527559055118,
                    "duration": 0.09999999999999432
                },
                {
                    "name": "D5",
                    "midi": 74,
                    "time": 202.29999999999646,
                    "velocity": 0.3543307086614173,
                    "duration": 0.09999999999999432
                },
                {
                    "name": "D#5",
                    "midi": 75,
                    "time": 202.39999999999645,
                    "velocity": 0.3543307086614173,
                    "duration": 0.09999999999999432
                },
                {
                    "name": "F5",
                    "midi": 77,
                    "time": 202.49999999999645,
                    "velocity": 0.3779527559055118,
                    "duration": 0.09999999999999432
                },
                {
                    "name": "C6",
                    "midi": 84,
                    "time": 202.59999999999644,
                    "velocity": 0.3937007874015748,
                    "duration": 0.09999999999999432
                },
                {
                    "name": "A#5",
                    "midi": 82,
                    "time": 202.69999999999644,
                    "velocity": 0.3543307086614173,
                    "duration": 0.09999999999999432
                },
                {
                    "name": "G#5",
                    "midi": 80,
                    "time": 202.79999999999643,
                    "velocity": 0.3858267716535433,
                    "duration": 0.09999999999999432
                },
                {
                    "name": "G5",
                    "midi": 79,
                    "time": 202.89999999999642,
                    "velocity": 0.36220472440944884,
                    "duration": 0.09999999999999432
                },
                {
                    "name": "F5",
                    "midi": 77,
                    "time": 202.99999999999642,
                    "velocity": 0.36220472440944884,
                    "duration": 0.09999999999999432
                },
                {
                    "name": "D#5",
                    "midi": 75,
                    "time": 203.0999999999964,
                    "velocity": 0.3779527559055118,
                    "duration": 0.09999999999999432
                },
                {
                    "name": "D5",
                    "midi": 74,
                    "time": 203.1999999999964,
                    "velocity": 0.3543307086614173,
                    "duration": 0.09999999999999432
                },
                {
                    "name": "C5",
                    "midi": 72,
                    "time": 203.2999999999964,
                    "velocity": 0.3543307086614173,
                    "duration": 0.09999999999999432
                },
                {
                    "name": "D5",
                    "midi": 74,
                    "time": 203.3999999999964,
                    "velocity": 0.3779527559055118,
                    "duration": 0.09999999999999432
                },
                {
                    "name": "F5",
                    "midi": 77,
                    "time": 203.4999999999964,
                    "velocity": 0.3543307086614173,
                    "duration": 0.09999999999999432
                },
                {
                    "name": "D#5",
                    "midi": 75,
                    "time": 203.59999999999638,
                    "velocity": 0.3543307086614173,
                    "duration": 0.09999999999999432
                },
                {
                    "name": "D5",
                    "midi": 74,
                    "time": 203.69999999999638,
                    "velocity": 0.3858267716535433,
                    "duration": 0.09999999999999432
                },
                {
                    "name": "D#5",
                    "midi": 75,
                    "time": 203.79999999999637,
                    "velocity": 0.3700787401574803,
                    "duration": 0.09999999999999432
                },
                {
                    "name": "F5",
                    "midi": 77,
                    "time": 203.89999999999637,
                    "velocity": 0.3700787401574803,
                    "duration": 0.09999999999999432
                },
                {
                    "name": "G5",
                    "midi": 79,
                    "time": 203.99999999999636,
                    "velocity": 0.41732283464566927,
                    "duration": 0.09999999999999432
                },
                {
                    "name": "G#5",
                    "midi": 80,
                    "time": 204.09999999999636,
                    "velocity": 0.3937007874015748,
                    "duration": 0.09999999999999432
                },
                {
                    "name": "A#5",
                    "midi": 82,
                    "time": 204.19999999999635,
                    "velocity": 0.3937007874015748,
                    "duration": 0.09999999999999432
                },
                {
                    "name": "D#5",
                    "midi": 75,
                    "time": 204.29999999999634,
                    "velocity": 0.4330708661417323,
                    "duration": 0.09999999999999432
                },
                {
                    "name": "F5",
                    "midi": 77,
                    "time": 204.39999999999634,
                    "velocity": 0.4094488188976378,
                    "duration": 0.09999999999999432
                },
                {
                    "name": "G5",
                    "midi": 79,
                    "time": 204.49999999999633,
                    "velocity": 0.4094488188976378,
                    "duration": 0.09999999999999432
                },
                {
                    "name": "G#5",
                    "midi": 80,
                    "time": 204.59999999999633,
                    "velocity": 0.4566929133858268,
                    "duration": 0.09999999999999432
                },
                {
                    "name": "A#5",
                    "midi": 82,
                    "time": 204.69999999999632,
                    "velocity": 0.4251968503937008,
                    "duration": 0.09999999999999432
                },
                {
                    "name": "C6",
                    "midi": 84,
                    "time": 204.79999999999632,
                    "velocity": 0.4251968503937008,
                    "duration": 0.09999999999999432
                },
                {
                    "name": "D6",
                    "midi": 86,
                    "time": 204.8999999999963,
                    "velocity": 0.48031496062992124,
                    "duration": 0.09999999999999432
                },
                {
                    "name": "D#6",
                    "midi": 87,
                    "time": 204.9999999999963,
                    "velocity": 0.4645669291338583,
                    "duration": 0.09999999999999432
                },
                {
                    "name": "F6",
                    "midi": 89,
                    "time": 205.0999999999963,
                    "velocity": 0.4645669291338583,
                    "duration": 0.09999999999999432
                },
                {
                    "name": "G6",
                    "midi": 91,
                    "time": 205.1999999999963,
                    "velocity": 0.5039370078740157,
                    "duration": 0.09999999999999432
                },
                {
                    "name": "A#6",
                    "midi": 94,
                    "time": 205.2999999999963,
                    "velocity": 0.4881889763779528,
                    "duration": 0.09999999999999432
                },
                {
                    "name": "G#6",
                    "midi": 92,
                    "time": 205.39999999999628,
                    "velocity": 0.4566929133858268,
                    "duration": 0.09999999999999432
                },
                {
                    "name": "G6",
                    "midi": 91,
                    "time": 205.49999999999628,
                    "velocity": 0.5039370078740157,
                    "duration": 0.09999999999999432
                },
                {
                    "name": "F6",
                    "midi": 89,
                    "time": 205.59999999999627,
                    "velocity": 0.4881889763779528,
                    "duration": 0.09999999999999432
                },
                {
                    "name": "D#6",
                    "midi": 87,
                    "time": 205.69999999999627,
                    "velocity": 0.4566929133858268,
                    "duration": 0.09999999999999432
                },
                {
                    "name": "D6",
                    "midi": 86,
                    "time": 205.79999999999626,
                    "velocity": 0.4881889763779528,
                    "duration": 0.09999999999999432
                },
                {
                    "name": "C6",
                    "midi": 84,
                    "time": 205.89999999999625,
                    "velocity": 0.4409448818897638,
                    "duration": 0.09999999999999432
                },
                {
                    "name": "A#5",
                    "midi": 82,
                    "time": 205.99999999999625,
                    "velocity": 0.4409448818897638,
                    "duration": 0.09999999999999432
                },
                {
                    "name": "G#5",
                    "midi": 80,
                    "time": 206.09999999999624,
                    "velocity": 0.5039370078740157,
                    "duration": 0.09999999999999432
                },
                {
                    "name": "G5",
                    "midi": 79,
                    "time": 206.19999999999624,
                    "velocity": 0.49606299212598426,
                    "duration": 0.09999999999999432
                },
                {
                    "name": "F5",
                    "midi": 77,
                    "time": 206.29999999999623,
                    "velocity": 0.48031496062992124,
                    "duration": 0.09999999999999432
                },
                {
                    "name": "D#5",
                    "midi": 75,
                    "time": 206.39999999999623,
                    "velocity": 0.4645669291338583,
                    "duration": 0.09999999999999432
                },
                {
                    "name": "D5",
                    "midi": 74,
                    "time": 206.49999999999622,
                    "velocity": 0.44881889763779526,
                    "duration": 0.09999999999999432
                },
                {
                    "name": "C5",
                    "midi": 72,
                    "time": 206.59999999999621,
                    "velocity": 0.4330708661417323,
                    "duration": 0.09999999999999432
                },
                {
                    "name": "A#4",
                    "midi": 70,
                    "time": 206.6999999999962,
                    "velocity": 0.4251968503937008,
                    "duration": 0.09999999999999432
                },
                {
                    "name": "C5",
                    "midi": 72,
                    "time": 206.7999999999962,
                    "velocity": 0.4094488188976378,
                    "duration": 0.09999999999999432
                },
                {
                    "name": "D5",
                    "midi": 74,
                    "time": 206.8999999999962,
                    "velocity": 0.3937007874015748,
                    "duration": 0.09999999999999432
                },
                {
                    "name": "D#5",
                    "midi": 75,
                    "time": 206.9999999999962,
                    "velocity": 0.3779527559055118,
                    "duration": 0.09999999999999432
                },
                {
                    "name": "D5",
                    "midi": 74,
                    "time": 207.0999999999962,
                    "velocity": 0.3779527559055118,
                    "duration": 0.09999999999999432
                },
                {
                    "name": "D#5",
                    "midi": 75,
                    "time": 207.19999999999618,
                    "velocity": 0.3779527559055118,
                    "duration": 0.09999999999999432
                },
                {
                    "name": "E5",
                    "midi": 76,
                    "time": 207.29999999999617,
                    "velocity": 0.3779527559055118,
                    "duration": 0.09999999999999432
                },
                {
                    "name": "D#5",
                    "midi": 75,
                    "time": 207.39999999999617,
                    "velocity": 0.3858267716535433,
                    "duration": 0.09999999999999432
                },
                {
                    "name": "E5",
                    "midi": 76,
                    "time": 207.49999999999616,
                    "velocity": 0.4015748031496063,
                    "duration": 0.09999999999999432
                },
                {
                    "name": "F5",
                    "midi": 77,
                    "time": 207.59999999999616,
                    "velocity": 0.41732283464566927,
                    "duration": 0.09999999999999432
                },
                {
                    "name": "E5",
                    "midi": 76,
                    "time": 207.69999999999615,
                    "velocity": 0.4409448818897638,
                    "duration": 0.09999999999999432
                },
                {
                    "name": "F5",
                    "midi": 77,
                    "time": 207.79999999999615,
                    "velocity": 0.4566929133858268,
                    "duration": 0.09999999999999432
                },
                {
                    "name": "F#5",
                    "midi": 78,
                    "time": 207.89999999999614,
                    "velocity": 0.4881889763779528,
                    "duration": 0.09999999999999432
                },
                {
                    "name": "F5",
                    "midi": 77,
                    "time": 207.99999999999613,
                    "velocity": 0.48031496062992124,
                    "duration": 0.09999999999999432
                },
                {
                    "name": "F#5",
                    "midi": 78,
                    "time": 208.09999999999613,
                    "velocity": 0.4566929133858268,
                    "duration": 0.09999999999999432
                },
                {
                    "name": "G5",
                    "midi": 79,
                    "time": 208.19999999999612,
                    "velocity": 0.4409448818897638,
                    "duration": 0.09999999999999432
                },
                {
                    "name": "F#5",
                    "midi": 78,
                    "time": 208.29999999999612,
                    "velocity": 0.4251968503937008,
                    "duration": 0.09999999999999432
                },
                {
                    "name": "G5",
                    "midi": 79,
                    "time": 208.3999999999961,
                    "velocity": 0.4015748031496063,
                    "duration": 0.09999999999999432
                },
                {
                    "name": "G#5",
                    "midi": 80,
                    "time": 208.4999999999961,
                    "velocity": 0.3779527559055118,
                    "duration": 0.09999999999999432
                },
                {
                    "name": "G5",
                    "midi": 79,
                    "time": 208.5999999999961,
                    "velocity": 0.3779527559055118,
                    "duration": 0.09999999999999432
                },
                {
                    "name": "G#5",
                    "midi": 80,
                    "time": 208.6999999999961,
                    "velocity": 0.3779527559055118,
                    "duration": 0.09999999999999432
                },
                {
                    "name": "G5",
                    "midi": 79,
                    "time": 208.7999999999961,
                    "velocity": 0.3779527559055118,
                    "duration": 0.09999999999999432
                },
                {
                    "name": "F#5",
                    "midi": 78,
                    "time": 208.89999999999608,
                    "velocity": 0.3779527559055118,
                    "duration": 0.09999999999999432
                },
                {
                    "name": "G5",
                    "midi": 79,
                    "time": 208.99999999999608,
                    "velocity": 0.3858267716535433,
                    "duration": 0.09999999999999432
                },
                {
                    "name": "G#5",
                    "midi": 80,
                    "time": 209.09999999999607,
                    "velocity": 0.3937007874015748,
                    "duration": 0.09999999999999432
                },
                {
                    "name": "G5",
                    "midi": 79,
                    "time": 209.19999999999607,
                    "velocity": 0.3858267716535433,
                    "duration": 0.09999999999999432
                },
                {
                    "name": "G#5",
                    "midi": 80,
                    "time": 209.29999999999606,
                    "velocity": 0.3858267716535433,
                    "duration": 0.09999999999999432
                },
                {
                    "name": "A#5",
                    "midi": 82,
                    "time": 209.39999999999606,
                    "velocity": 0.41732283464566927,
                    "duration": 0.09999999999999432
                },
                {
                    "name": "G#5",
                    "midi": 80,
                    "time": 209.49999999999605,
                    "velocity": 0.4015748031496063,
                    "duration": 0.09999999999999432
                },
                {
                    "name": "A#5",
                    "midi": 82,
                    "time": 209.59999999999604,
                    "velocity": 0.4015748031496063,
                    "duration": 0.09999999999999432
                },
                {
                    "name": "G#5",
                    "midi": 80,
                    "time": 209.69999999999604,
                    "velocity": 0.4409448818897638,
                    "duration": 0.09999999999999432
                },
                {
                    "name": "G5",
                    "midi": 79,
                    "time": 209.79999999999603,
                    "velocity": 0.4094488188976378,
                    "duration": 0.09999999999999432
                },
                {
                    "name": "G#5",
                    "midi": 80,
                    "time": 209.89999999999603,
                    "velocity": 0.4094488188976378,
                    "duration": 0.09999999999999432
                },
                {
                    "name": "A#5",
                    "midi": 82,
                    "time": 209.99999999999602,
                    "velocity": 0.4566929133858268,
                    "duration": 0.09999999999999432
                },
                {
                    "name": "G#5",
                    "midi": 80,
                    "time": 210.09999999999602,
                    "velocity": 0.4251968503937008,
                    "duration": 0.09999999999999432
                },
                {
                    "name": "A#5",
                    "midi": 82,
                    "time": 210.199999999996,
                    "velocity": 0.4015748031496063,
                    "duration": 0.09999999999999432
                },
                {
                    "name": "C6",
                    "midi": 84,
                    "time": 210.299999999996,
                    "velocity": 0.48031496062992124,
                    "duration": 0.09999999999999432
                },
                {
                    "name": "B5",
                    "midi": 83,
                    "time": 210.399999999996,
                    "velocity": 0.44881889763779526,
                    "duration": 0.09999999999999432
                },
                {
                    "name": "C6",
                    "midi": 84,
                    "time": 210.499999999996,
                    "velocity": 0.41732283464566927,
                    "duration": 0.09999999999999432
                },
                {
                    "name": "D6",
                    "midi": 86,
                    "time": 210.599999999996,
                    "velocity": 0.5039370078740157,
                    "duration": 0.09999999999999432
                },
                {
                    "name": "C#6",
                    "midi": 85,
                    "time": 210.69999999999598,
                    "velocity": 0.47244094488188976,
                    "duration": 0.09999999999999432
                },
                {
                    "name": "D6",
                    "midi": 86,
                    "time": 210.79999999999598,
                    "velocity": 0.44881889763779526,
                    "duration": 0.09999999999999432
                },
                {
                    "name": "E6",
                    "midi": 88,
                    "time": 210.89999999999597,
                    "velocity": 0.5196850393700787,
                    "duration": 0.09999999999999432
                },
                {
                    "name": "D6",
                    "midi": 86,
                    "time": 210.99999999999596,
                    "velocity": 0.49606299212598426,
                    "duration": 0.09999999999999432
                },
                {
                    "name": "E6",
                    "midi": 88,
                    "time": 211.09999999999596,
                    "velocity": 0.47244094488188976,
                    "duration": 0.09999999999999432
                },
                {
                    "name": "F#6",
                    "midi": 90,
                    "time": 211.19999999999595,
                    "velocity": 0.5433070866141733,
                    "duration": 0.09999999999999432
                },
                {
                    "name": "E6",
                    "midi": 88,
                    "time": 211.29999999999595,
                    "velocity": 0.5118110236220472,
                    "duration": 0.09999999999999432
                },
                {
                    "name": "F#6",
                    "midi": 90,
                    "time": 211.39999999999594,
                    "velocity": 0.49606299212598426,
                    "duration": 0.09999999999999432
                },
                {
                    "name": "G6",
                    "midi": 91,
                    "time": 211.49999999999594,
                    "velocity": 0.5669291338582677,
                    "duration": 0.09999999999999432
                },
                {
                    "name": "F#6",
                    "midi": 90,
                    "time": 211.59999999999593,
                    "velocity": 0.5433070866141733,
                    "duration": 0.09999999999999432
                },
                {
                    "name": "G6",
                    "midi": 91,
                    "time": 211.69999999999592,
                    "velocity": 0.49606299212598426,
                    "duration": 0.09999999999999432
                },
                {
                    "name": "A6",
                    "midi": 93,
                    "time": 211.79999999999592,
                    "velocity": 0.5826771653543307,
                    "duration": 0.09999999999999432
                },
                {
                    "name": "G6",
                    "midi": 91,
                    "time": 211.8999999999959,
                    "velocity": 0.5590551181102362,
                    "duration": 0.09999999999999432
                },
                {
                    "name": "A6",
                    "midi": 93,
                    "time": 211.9999999999959,
                    "velocity": 0.5196850393700787,
                    "duration": 0.09999999999999432
                },
                {
                    "name": "B6",
                    "midi": 95,
                    "time": 212.0999999999959,
                    "velocity": 0.6062992125984252,
                    "duration": 0.09999999999999432
                },
                {
                    "name": "A6",
                    "midi": 93,
                    "time": 212.1999999999959,
                    "velocity": 0.5590551181102362,
                    "duration": 0.09999999999999432
                },
                {
                    "name": "B6",
                    "midi": 95,
                    "time": 212.2999999999959,
                    "velocity": 0.5118110236220472,
                    "duration": 0.09999999999999432
                },
                {
                    "name": "C7",
                    "midi": 96,
                    "time": 212.39999999999588,
                    "velocity": 0.6377952755905512,
                    "duration": 0.09999999999999432
                },
                {
                    "name": "B6",
                    "midi": 95,
                    "time": 212.49999999999588,
                    "velocity": 0.5905511811023622,
                    "duration": 0.09999999999999432
                },
                {
                    "name": "C7",
                    "midi": 96,
                    "time": 212.59999999999587,
                    "velocity": 0.5433070866141733,
                    "duration": 0.09999999999999432
                },
                {
                    "name": "D7",
                    "midi": 98,
                    "time": 212.69999999999587,
                    "velocity": 0.6377952755905512,
                    "duration": 0.09999999999999432
                },
                {
                    "name": "C7",
                    "midi": 96,
                    "time": 212.79999999999586,
                    "velocity": 0.5984251968503937,
                    "duration": 0.09999999999999432
                },
                {
                    "name": "D7",
                    "midi": 98,
                    "time": 212.89999999999586,
                    "velocity": 0.5590551181102362,
                    "duration": 0.09999999999999432
                },
                {
                    "name": "E7",
                    "midi": 100,
                    "time": 212.99999999999585,
                    "velocity": 0.6377952755905512,
                    "duration": 0.09999999999999432
                },
                {
                    "name": "D7",
                    "midi": 98,
                    "time": 213.09999999999584,
                    "velocity": 0.5984251968503937,
                    "duration": 0.09999999999999432
                },
                {
                    "name": "E7",
                    "midi": 100,
                    "time": 213.19999999999584,
                    "velocity": 0.5511811023622047,
                    "duration": 0.09999999999999432
                },
                {
                    "name": "F7",
                    "midi": 101,
                    "time": 213.29999999999583,
                    "velocity": 0.6377952755905512,
                    "duration": 0.09999999999999432
                },
                {
                    "name": "D#7",
                    "midi": 99,
                    "time": 213.39999999999583,
                    "velocity": 0.5905511811023622,
                    "duration": 0.09999999999999432
                },
                {
                    "name": "C#7",
                    "midi": 97,
                    "time": 213.49999999999582,
                    "velocity": 0.5511811023622047,
                    "duration": 0.09999999999999432
                },
                {
                    "name": "C7",
                    "midi": 96,
                    "time": 213.59999999999582,
                    "velocity": 0.6377952755905512,
                    "duration": 0.09999999999999432
                },
                {
                    "name": "A#6",
                    "midi": 94,
                    "time": 213.6999999999958,
                    "velocity": 0.5984251968503937,
                    "duration": 0.09999999999999432
                },
                {
                    "name": "G#6",
                    "midi": 92,
                    "time": 213.7999999999958,
                    "velocity": 0.5511811023622047,
                    "duration": 0.09999999999999432
                },
                {
                    "name": "G6",
                    "midi": 91,
                    "time": 213.8999999999958,
                    "velocity": 0.6377952755905512,
                    "duration": 0.09999999999999432
                },
                {
                    "name": "F6",
                    "midi": 89,
                    "time": 213.9999999999958,
                    "velocity": 0.5984251968503937,
                    "duration": 0.09999999999999432
                },
                {
                    "name": "D#6",
                    "midi": 87,
                    "time": 214.0999999999958,
                    "velocity": 0.5669291338582677,
                    "duration": 0.09999999999999432
                },
                {
                    "name": "D6",
                    "midi": 86,
                    "time": 214.19999999999578,
                    "velocity": 0.6377952755905512,
                    "duration": 0.09999999999999432
                },
                {
                    "name": "C6",
                    "midi": 84,
                    "time": 214.29999999999578,
                    "velocity": 0.5984251968503937,
                    "duration": 0.09999999999999432
                },
                {
                    "name": "A#5",
                    "midi": 82,
                    "time": 214.39999999999577,
                    "velocity": 0.5511811023622047,
                    "duration": 0.09999999999999432
                },
                {
                    "name": "A5",
                    "midi": 81,
                    "time": 214.49999999999577,
                    "velocity": 0.6377952755905512,
                    "duration": 0.09999999999999432
                },
                {
                    "name": "A#5",
                    "midi": 82,
                    "time": 214.59999999999576,
                    "velocity": 0.5984251968503937,
                    "duration": 0.09999999999999432
                },
                {
                    "name": "C6",
                    "midi": 84,
                    "time": 214.69999999999575,
                    "velocity": 0.5669291338582677,
                    "duration": 0.09999999999999432
                },
                {
                    "name": "D6",
                    "midi": 86,
                    "time": 214.79999999999575,
                    "velocity": 0.6377952755905512,
                    "duration": 0.09999999999999432
                },
                {
                    "name": "D#6",
                    "midi": 87,
                    "time": 214.89999999999574,
                    "velocity": 0.5984251968503937,
                    "duration": 0.09999999999999432
                },
                {
                    "name": "F6",
                    "midi": 89,
                    "time": 214.99999999999574,
                    "velocity": 0.5669291338582677,
                    "duration": 0.09999999999999432
                },
                {
                    "name": "F#6",
                    "midi": 90,
                    "time": 215.09999999999573,
                    "velocity": 0.7007874015748031,
                    "duration": 0.09999999999999432
                },
                {
                    "name": "A#6",
                    "midi": 94,
                    "time": 215.19999999999573,
                    "velocity": 0.6062992125984252,
                    "duration": 0.09999999999999432
                },
                {
                    "name": "G#6",
                    "midi": 92,
                    "time": 215.29999999999572,
                    "velocity": 0.5669291338582677,
                    "duration": 0.09999999999999432
                },
                {
                    "name": "F#6",
                    "midi": 90,
                    "time": 215.3999999999957,
                    "velocity": 0.6377952755905512,
                    "duration": 0.09999999999999432
                },
                {
                    "name": "F6",
                    "midi": 89,
                    "time": 215.4999999999957,
                    "velocity": 0.6141732283464567,
                    "duration": 0.09999999999999432
                },
                {
                    "name": "D#6",
                    "midi": 87,
                    "time": 215.5999999999957,
                    "velocity": 0.5748031496062992,
                    "duration": 0.09999999999999432
                },
                {
                    "name": "C#6",
                    "midi": 85,
                    "time": 215.6999999999957,
                    "velocity": 0.6377952755905512,
                    "duration": 0.09999999999999432
                },
                {
                    "name": "B5",
                    "midi": 83,
                    "time": 215.7999999999957,
                    "velocity": 0.6062992125984252,
                    "duration": 0.09999999999999432
                },
                {
                    "name": "A#5",
                    "midi": 82,
                    "time": 215.89999999999569,
                    "velocity": 0.5748031496062992,
                    "duration": 0.09999999999999432
                },
                {
                    "name": "B5",
                    "midi": 83,
                    "time": 215.99999999999568,
                    "velocity": 0.7007874015748031,
                    "duration": 0.09999999999999432
                },
                {
                    "name": "D#6",
                    "midi": 87,
                    "time": 216.09999999999567,
                    "velocity": 0.6062992125984252,
                    "duration": 0.09999999999999432
                },
                {
                    "name": "C#6",
                    "midi": 85,
                    "time": 216.19999999999567,
                    "velocity": 0.5905511811023622,
                    "duration": 0.09999999999999432
                },
                {
                    "name": "B5",
                    "midi": 83,
                    "time": 216.29999999999566,
                    "velocity": 0.6377952755905512,
                    "duration": 0.09999999999999432
                },
                {
                    "name": "A#5",
                    "midi": 82,
                    "time": 216.39999999999566,
                    "velocity": 0.6062992125984252,
                    "duration": 0.09999999999999432
                },
                {
                    "name": "G#5",
                    "midi": 80,
                    "time": 216.49999999999565,
                    "velocity": 0.5826771653543307,
                    "duration": 0.09999999999999432
                },
                {
                    "name": "F#5",
                    "midi": 78,
                    "time": 216.59999999999565,
                    "velocity": 0.6377952755905512,
                    "duration": 0.09999999999999432
                },
                {
                    "name": "F5",
                    "midi": 77,
                    "time": 216.69999999999564,
                    "velocity": 0.6062992125984252,
                    "duration": 0.09999999999999432
                },
                {
                    "name": "D#5",
                    "midi": 75,
                    "time": 216.79999999999563,
                    "velocity": 0.5748031496062992,
                    "duration": 0.09999999999999432
                },
                {
                    "name": "D5",
                    "midi": 74,
                    "time": 216.89999999999563,
                    "velocity": 0.7007874015748031,
                    "duration": 0.09999999999999432
                },
                {
                    "name": "F5",
                    "midi": 77,
                    "time": 216.99999999999562,
                    "velocity": 0.5984251968503937,
                    "duration": 0.09999999999999432
                },
                {
                    "name": "D#5",
                    "midi": 75,
                    "time": 217.09999999999562,
                    "velocity": 0.5669291338582677,
                    "duration": 0.09999999999999432
                },
                {
                    "name": "D5",
                    "midi": 74,
                    "time": 217.1999999999956,
                    "velocity": 0.6377952755905512,
                    "duration": 0.09999999999999432
                },
                {
                    "name": "B4",
                    "midi": 71,
                    "time": 217.2999999999956,
                    "velocity": 0.6062992125984252,
                    "duration": 0.09999999999999432
                },
                {
                    "name": "A#4",
                    "midi": 70,
                    "time": 217.3999999999956,
                    "velocity": 0.5826771653543307,
                    "duration": 0.09999999999999432
                },
                {
                    "name": "G#4",
                    "midi": 68,
                    "time": 217.4999999999956,
                    "velocity": 0.6377952755905512,
                    "duration": 0.09999999999999432
                },
                {
                    "name": "F#4",
                    "midi": 66,
                    "time": 217.5999999999956,
                    "velocity": 0.5984251968503937,
                    "duration": 0.09999999999999432
                },
                {
                    "name": "F4",
                    "midi": 65,
                    "time": 217.69999999999558,
                    "velocity": 0.5748031496062992,
                    "duration": 0.09999999999999432
                },
                {
                    "name": "F#5",
                    "midi": 78,
                    "time": 217.79999999999558,
                    "velocity": 0.7007874015748031,
                    "duration": 0.09999999999999432
                },
                {
                    "name": "A#5",
                    "midi": 82,
                    "time": 217.89999999999557,
                    "velocity": 0.5984251968503937,
                    "duration": 0.09999999999999432
                },
                {
                    "name": "G#5",
                    "midi": 80,
                    "time": 217.99999999999557,
                    "velocity": 0.5748031496062992,
                    "duration": 0.09999999999999432
                },
                {
                    "name": "F#5",
                    "midi": 78,
                    "time": 218.09999999999556,
                    "velocity": 0.6377952755905512,
                    "duration": 0.09999999999999432
                },
                {
                    "name": "F5",
                    "midi": 77,
                    "time": 218.19999999999555,
                    "velocity": 0.5905511811023622,
                    "duration": 0.09999999999999432
                },
                {
                    "name": "D#5",
                    "midi": 75,
                    "time": 218.29999999999555,
                    "velocity": 0.5748031496062992,
                    "duration": 0.09999999999999432
                },
                {
                    "name": "C#5",
                    "midi": 73,
                    "time": 218.39999999999554,
                    "velocity": 0.6377952755905512,
                    "duration": 0.09999999999999432
                },
                {
                    "name": "B4",
                    "midi": 71,
                    "time": 218.49999999999554,
                    "velocity": 0.6062992125984252,
                    "duration": 0.09999999999999432
                },
                {
                    "name": "A#4",
                    "midi": 70,
                    "time": 218.59999999999553,
                    "velocity": 0.5669291338582677,
                    "duration": 0.09999999999999432
                },
                {
                    "name": "B4",
                    "midi": 71,
                    "time": 218.69999999999553,
                    "velocity": 0.7007874015748031,
                    "duration": 0.09999999999999432
                },
                {
                    "name": "D#5",
                    "midi": 75,
                    "time": 218.79999999999552,
                    "velocity": 0.6062992125984252,
                    "duration": 0.09999999999999432
                },
                {
                    "name": "C#5",
                    "midi": 73,
                    "time": 218.89999999999552,
                    "velocity": 0.5748031496062992,
                    "duration": 0.09999999999999432
                },
                {
                    "name": "B4",
                    "midi": 71,
                    "time": 218.9999999999955,
                    "velocity": 0.6377952755905512,
                    "duration": 0.09999999999999432
                },
                {
                    "name": "A#4",
                    "midi": 70,
                    "time": 219.0999999999955,
                    "velocity": 0.6062992125984252,
                    "duration": 0.09999999999999432
                },
                {
                    "name": "G#4",
                    "midi": 68,
                    "time": 219.1999999999955,
                    "velocity": 0.5748031496062992,
                    "duration": 0.09999999999999432
                },
                {
                    "name": "F#4",
                    "midi": 66,
                    "time": 219.2999999999955,
                    "velocity": 0.6377952755905512,
                    "duration": 0.09999999999999432
                },
                {
                    "name": "F4",
                    "midi": 65,
                    "time": 219.3999999999955,
                    "velocity": 0.6062992125984252,
                    "duration": 0.09999999999999432
                },
                {
                    "name": "D#4",
                    "midi": 63,
                    "time": 219.49999999999548,
                    "velocity": 0.5748031496062992,
                    "duration": 0.09999999999999432
                },
                {
                    "name": "D4",
                    "midi": 62,
                    "time": 219.59999999999548,
                    "velocity": 0.7007874015748031,
                    "duration": 0.09999999999999432
                },
                {
                    "name": "F4",
                    "midi": 65,
                    "time": 219.69999999999547,
                    "velocity": 0.6062992125984252,
                    "duration": 0.09999999999999432
                },
                {
                    "name": "D#4",
                    "midi": 63,
                    "time": 219.79999999999546,
                    "velocity": 0.5669291338582677,
                    "duration": 0.09999999999999432
                },
                {
                    "name": "D4",
                    "midi": 62,
                    "time": 219.89999999999546,
                    "velocity": 0.6377952755905512,
                    "duration": 0.09999999999999432
                },
                {
                    "name": "B3",
                    "midi": 59,
                    "time": 219.99999999999545,
                    "velocity": 0.6062992125984252,
                    "duration": 0.09999999999999432
                },
                {
                    "name": "A#3",
                    "midi": 58,
                    "time": 220.09999999999545,
                    "velocity": 0.5669291338582677,
                    "duration": 0.09999999999999432
                },
                {
                    "name": "G#3",
                    "midi": 56,
                    "time": 220.19999999999544,
                    "velocity": 0.6377952755905512,
                    "duration": 0.09999999999999432
                },
                {
                    "name": "F#3",
                    "midi": 54,
                    "time": 220.29999999999544,
                    "velocity": 0.6062992125984252,
                    "duration": 0.09999999999999432
                },
                {
                    "name": "F3",
                    "midi": 53,
                    "time": 220.39999999999543,
                    "velocity": 0.5748031496062992,
                    "duration": 0.09999999999999432
                },
                {
                    "name": "D#3",
                    "midi": 51,
                    "time": 220.49999999999542,
                    "velocity": 0.6377952755905512,
                    "duration": 0.09999999999999432
                },
                {
                    "name": "F3",
                    "midi": 53,
                    "time": 220.59999999999542,
                    "velocity": 0.6062992125984252,
                    "duration": 0.09999999999999432
                },
                {
                    "name": "F#3",
                    "midi": 54,
                    "time": 220.6999999999954,
                    "velocity": 0.5669291338582677,
                    "duration": 0.09999999999999432
                },
                {
                    "name": "G#3",
                    "midi": 56,
                    "time": 220.7999999999954,
                    "velocity": 0.7007874015748031,
                    "duration": 0.09999999999999432
                },
                {
                    "name": "B3",
                    "midi": 59,
                    "time": 220.8999999999954,
                    "velocity": 0.6141732283464567,
                    "duration": 0.09999999999999432
                },
                {
                    "name": "A#3",
                    "midi": 58,
                    "time": 220.9999999999954,
                    "velocity": 0.5826771653543307,
                    "duration": 0.09999999999999432
                },
                {
                    "name": "G#3",
                    "midi": 56,
                    "time": 221.0999999999954,
                    "velocity": 0.6377952755905512,
                    "duration": 0.09999999999999432
                },
                {
                    "name": "F#3",
                    "midi": 54,
                    "time": 221.19999999999538,
                    "velocity": 0.5984251968503937,
                    "duration": 0.09999999999999432
                },
                {
                    "name": "F3",
                    "midi": 53,
                    "time": 221.29999999999538,
                    "velocity": 0.5669291338582677,
                    "duration": 0.09999999999999432
                },
                {
                    "name": "D#3",
                    "midi": 51,
                    "time": 221.39999999999537,
                    "velocity": 0.6377952755905512,
                    "duration": 0.09999999999999432
                },
                {
                    "name": "F3",
                    "midi": 53,
                    "time": 221.49999999999537,
                    "velocity": 0.5984251968503937,
                    "duration": 0.09999999999999432
                },
                {
                    "name": "F#3",
                    "midi": 54,
                    "time": 221.59999999999536,
                    "velocity": 0.5669291338582677,
                    "duration": 0.09999999999999432
                },
                {
                    "name": "G#3",
                    "midi": 56,
                    "time": 221.69999999999536,
                    "velocity": 0.7007874015748031,
                    "duration": 0.09999999999999432
                },
                {
                    "name": "B3",
                    "midi": 59,
                    "time": 221.79999999999535,
                    "velocity": 0.6062992125984252,
                    "duration": 0.09999999999999432
                },
                {
                    "name": "A#3",
                    "midi": 58,
                    "time": 221.89999999999534,
                    "velocity": 0.5669291338582677,
                    "duration": 0.09999999999999432
                },
                {
                    "name": "G#3",
                    "midi": 56,
                    "time": 221.99999999999534,
                    "velocity": 0.6377952755905512,
                    "duration": 0.09999999999999432
                },
                {
                    "name": "F#3",
                    "midi": 54,
                    "time": 222.09999999999533,
                    "velocity": 0.6062992125984252,
                    "duration": 0.09999999999999432
                },
                {
                    "name": "F3",
                    "midi": 53,
                    "time": 222.19999999999533,
                    "velocity": 0.5669291338582677,
                    "duration": 0.09999999999999432
                },
                {
                    "name": "D#3",
                    "midi": 51,
                    "time": 222.29999999999532,
                    "velocity": 0.6377952755905512,
                    "duration": 0.09999999999999432
                },
                {
                    "name": "F3",
                    "midi": 53,
                    "time": 222.39999999999532,
                    "velocity": 0.6062992125984252,
                    "duration": 0.09999999999999432
                },
                {
                    "name": "F#3",
                    "midi": 54,
                    "time": 222.4999999999953,
                    "velocity": 0.5669291338582677,
                    "duration": 0.09999999999999432
                },
                {
                    "name": "G#3",
                    "midi": 56,
                    "time": 222.5999999999953,
                    "velocity": 0.7007874015748031,
                    "duration": 0.09999999999999432
                },
                {
                    "name": "B3",
                    "midi": 59,
                    "time": 222.6999999999953,
                    "velocity": 0.6062992125984252,
                    "duration": 0.09999999999999432
                },
                {
                    "name": "A#3",
                    "midi": 58,
                    "time": 222.7999999999953,
                    "velocity": 0.5590551181102362,
                    "duration": 0.09999999999999432
                },
                {
                    "name": "G#3",
                    "midi": 56,
                    "time": 222.8999999999953,
                    "velocity": 0.6377952755905512,
                    "duration": 0.09999999999999432
                },
                {
                    "name": "F#3",
                    "midi": 54,
                    "time": 222.99999999999528,
                    "velocity": 0.6062992125984252,
                    "duration": 0.09999999999999432
                },
                {
                    "name": "F3",
                    "midi": 53,
                    "time": 223.09999999999528,
                    "velocity": 0.6062992125984252,
                    "duration": 0.09999999999999432
                },
                {
                    "name": "D#3",
                    "midi": 51,
                    "time": 223.19999999999527,
                    "velocity": 0.6141732283464567,
                    "duration": 0.09999999999999432
                },
                {
                    "name": "F3",
                    "midi": 53,
                    "time": 223.29999999999526,
                    "velocity": 0.6299212598425197,
                    "duration": 0.09999999999999432
                },
                {
                    "name": "F#3",
                    "midi": 54,
                    "time": 223.39999999999526,
                    "velocity": 0.6456692913385826,
                    "duration": 0.09999999999999432
                },
                {
                    "name": "G#3",
                    "midi": 56,
                    "time": 223.49999999999525,
                    "velocity": 0.6614173228346457,
                    "duration": 0.09999999999999432
                },
                {
                    "name": "A#3",
                    "midi": 58,
                    "time": 223.59999999999525,
                    "velocity": 0.6850393700787402,
                    "duration": 0.09999999999999432
                },
                {
                    "name": "C4",
                    "midi": 60,
                    "time": 223.69999999999524,
                    "velocity": 0.7007874015748031,
                    "duration": 0.09999999999999432
                },
                {
                    "name": "D4",
                    "midi": 62,
                    "time": 223.79999999999524,
                    "velocity": 0.7086614173228346,
                    "duration": 0.09999999999999432
                },
                {
                    "name": "D#4",
                    "midi": 63,
                    "time": 223.89999999999523,
                    "velocity": 0.7244094488188977,
                    "duration": 0.09999999999999432
                },
                {
                    "name": "F4",
                    "midi": 65,
                    "time": 223.99999999999523,
                    "velocity": 0.7401574803149606,
                    "duration": 0.09999999999999432
                },
                {
                    "name": "F#4",
                    "midi": 66,
                    "time": 224.09999999999522,
                    "velocity": 0.7559055118110236,
                    "duration": 0.5999999999999943
                },
                {
                    "name": "A#3",
                    "midi": 58,
                    "time": 224.99999999999523,
                    "velocity": 0.6850393700787402,
                    "duration": 0.5999999999999943
                },
                {
                    "name": "C#4",
                    "midi": 61,
                    "time": 224.99999999999523,
                    "velocity": 0.6850393700787402,
                    "duration": 0.5999999999999943
                },
                {
                    "name": "F#4",
                    "midi": 66,
                    "time": 224.99999999999523,
                    "velocity": 0.6850393700787402,
                    "duration": 0.5999999999999943
                },
                {
                    "name": "A#4",
                    "midi": 70,
                    "time": 224.99999999999523,
                    "velocity": 0.7637795275590551,
                    "duration": 0.5999999999999943
                },
                {
                    "name": "B4",
                    "midi": 71,
                    "time": 225.89999999999523,
                    "velocity": 0.7637795275590551,
                    "duration": 0.9000000000000057
                },
                {
                    "name": "B3",
                    "midi": 59,
                    "time": 226.19999999999524,
                    "velocity": 0.6377952755905512,
                    "duration": 0.09999999999999432
                },
                {
                    "name": "D4",
                    "midi": 62,
                    "time": 226.29999999999524,
                    "velocity": 0.5984251968503937,
                    "duration": 0.09999999999999432
                },
                {
                    "name": "F#4",
                    "midi": 66,
                    "time": 226.39999999999523,
                    "velocity": 0.5984251968503937,
                    "duration": 0.09999999999999432
                },
                {
                    "name": "B3",
                    "midi": 59,
                    "time": 226.49999999999523,
                    "velocity": 0.6377952755905512,
                    "duration": 0.30000000000001137
                },
                {
                    "name": "B4",
                    "midi": 71,
                    "time": 226.79999999999524,
                    "velocity": 0.7559055118110236,
                    "duration": 0.9000000000000057
                },
                {
                    "name": "B3",
                    "midi": 59,
                    "time": 227.09999999999525,
                    "velocity": 0.6377952755905512,
                    "duration": 0.09999999999999432
                },
                {
                    "name": "C#4",
                    "midi": 61,
                    "time": 227.19999999999524,
                    "velocity": 0.6062992125984252,
                    "duration": 0.09999999999999432
                },
                {
                    "name": "G4",
                    "midi": 67,
                    "time": 227.29999999999524,
                    "velocity": 0.6062992125984252,
                    "duration": 0.09999999999999432
                },
                {
                    "name": "B3",
                    "midi": 59,
                    "time": 227.39999999999523,
                    "velocity": 0.6377952755905512,
                    "duration": 0.30000000000001137
                },
                {
                    "name": "B4",
                    "midi": 71,
                    "time": 227.69999999999524,
                    "velocity": 0.6929133858267716,
                    "duration": 0.30000000000001137
                },
                {
                    "name": "D4",
                    "midi": 62,
                    "time": 227.84999999999525,
                    "velocity": 0.5669291338582677,
                    "duration": 0.15000000000000568
                },
                {
                    "name": "F#4",
                    "midi": 66,
                    "time": 227.84999999999525,
                    "velocity": 0.6377952755905512,
                    "duration": 0.15000000000000568
                },
                {
                    "name": "C#5",
                    "midi": 73,
                    "time": 227.99999999999525,
                    "velocity": 0.7480314960629921,
                    "duration": 0.30000000000001137
                },
                {
                    "name": "E4",
                    "midi": 64,
                    "time": 228.14999999999526,
                    "velocity": 0.6220472440944882,
                    "duration": 0.15000000000000568
                },
                {
                    "name": "F#4",
                    "midi": 66,
                    "time": 228.14999999999526,
                    "velocity": 0.6929133858267716,
                    "duration": 0.15000000000000568
                },
                {
                    "name": "D5",
                    "midi": 74,
                    "time": 228.29999999999526,
                    "velocity": 0.7007874015748031,
                    "duration": 0.30000000000001137
                },
                {
                    "name": "D4",
                    "midi": 62,
                    "time": 228.44999999999527,
                    "velocity": 0.5669291338582677,
                    "duration": 0.15000000000000568
                },
                {
                    "name": "F#4",
                    "midi": 66,
                    "time": 228.44999999999527,
                    "velocity": 0.6377952755905512,
                    "duration": 0.15000000000000568
                },
                {
                    "name": "C#5",
                    "midi": 73,
                    "time": 228.59999999999528,
                    "velocity": 0.6929133858267716,
                    "duration": 0.9000000000000057
                },
                {
                    "name": "C#4",
                    "midi": 61,
                    "time": 228.8999999999953,
                    "velocity": 0.6377952755905512,
                    "duration": 0.09999999999999432
                },
                {
                    "name": "F#4",
                    "midi": 66,
                    "time": 228.99999999999528,
                    "velocity": 0.5984251968503937,
                    "duration": 0.09999999999999432
                },
                {
                    "name": "A#4",
                    "midi": 70,
                    "time": 229.09999999999528,
                    "velocity": 0.5984251968503937,
                    "duration": 0.09999999999999432
                },
                {
                    "name": "C#4",
                    "midi": 61,
                    "time": 229.19999999999527,
                    "velocity": 0.6377952755905512,
                    "duration": 0.30000000000001137
                },
                {
                    "name": "D5",
                    "midi": 74,
                    "time": 229.49999999999528,
                    "velocity": 0.6929133858267716,
                    "duration": 0.9000000000000057
                },
                {
                    "name": "D4",
                    "midi": 62,
                    "time": 229.7999999999953,
                    "velocity": 0.6377952755905512,
                    "duration": 0.09999999999999432
                },
                {
                    "name": "F4",
                    "midi": 65,
                    "time": 229.8999999999953,
                    "velocity": 0.5984251968503937,
                    "duration": 0.09999999999999432
                },
                {
                    "name": "A#4",
                    "midi": 70,
                    "time": 229.99999999999528,
                    "velocity": 0.5984251968503937,
                    "duration": 0.09999999999999432
                },
                {
                    "name": "D4",
                    "midi": 62,
                    "time": 230.09999999999528,
                    "velocity": 0.6377952755905512,
                    "duration": 0.30000000000001137
                },
                {
                    "name": "D#5",
                    "midi": 75,
                    "time": 230.3999999999953,
                    "velocity": 0.6929133858267716,
                    "duration": 0.9000000000000057
                },
                {
                    "name": "D#4",
                    "midi": 63,
                    "time": 230.6999999999953,
                    "velocity": 0.6377952755905512,
                    "duration": 0.09999999999999432
                },
                {
                    "name": "F#4",
                    "midi": 66,
                    "time": 230.7999999999953,
                    "velocity": 0.5984251968503937,
                    "duration": 0.09999999999999432
                },
                {
                    "name": "A#4",
                    "midi": 70,
                    "time": 230.8999999999953,
                    "velocity": 0.5984251968503937,
                    "duration": 0.09999999999999432
                },
                {
                    "name": "D#4",
                    "midi": 63,
                    "time": 230.99999999999528,
                    "velocity": 0.6377952755905512,
                    "duration": 0.30000000000001137
                },
                {
                    "name": "F4",
                    "midi": 65,
                    "time": 231.2999999999953,
                    "velocity": 0.6377952755905512,
                    "duration": 0.15000000000000568
                },
                {
                    "name": "F5",
                    "midi": 77,
                    "time": 231.4499999999953,
                    "velocity": 0.6062992125984252,
                    "duration": 0.15000000000000568
                },
                {
                    "name": "F#4",
                    "midi": 66,
                    "time": 231.5999999999953,
                    "velocity": 0.6377952755905512,
                    "duration": 0.15000000000000568
                },
                {
                    "name": "F#5",
                    "midi": 78,
                    "time": 231.7499999999953,
                    "velocity": 0.6062992125984252,
                    "duration": 0.15000000000000568
                },
                {
                    "name": "F4",
                    "midi": 65,
                    "time": 231.89999999999532,
                    "velocity": 0.6377952755905512,
                    "duration": 0.15000000000000568
                },
                {
                    "name": "F5",
                    "midi": 77,
                    "time": 232.04999999999532,
                    "velocity": 0.6062992125984252,
                    "duration": 0.15000000000000568
                },
                {
                    "name": "D#5",
                    "midi": 75,
                    "time": 232.19999999999533,
                    "velocity": 0.6377952755905512,
                    "duration": 0.9000000000000057
                },
                {
                    "name": "D#4",
                    "midi": 63,
                    "time": 232.49999999999534,
                    "velocity": 0.5039370078740157,
                    "duration": 0.09999999999999432
                },
                {
                    "name": "F#4",
                    "midi": 66,
                    "time": 232.59999999999533,
                    "velocity": 0.48031496062992124,
                    "duration": 0.09999999999999432
                },
                {
                    "name": "A#4",
                    "midi": 70,
                    "time": 232.69999999999533,
                    "velocity": 0.4881889763779528,
                    "duration": 0.09999999999999432
                },
                {
                    "name": "D#4",
                    "midi": 63,
                    "time": 232.79999999999532,
                    "velocity": 0.5039370078740157,
                    "duration": 0.30000000000001137
                },
                {
                    "name": "B5",
                    "midi": 83,
                    "time": 233.09999999999533,
                    "velocity": 0.7559055118110236,
                    "duration": 0.9000000000000057
                },
                {
                    "name": "B4",
                    "midi": 71,
                    "time": 233.39999999999534,
                    "velocity": 0.6299212598425197,
                    "duration": 0.09999999999999432
                },
                {
                    "name": "D5",
                    "midi": 74,
                    "time": 233.49999999999534,
                    "velocity": 0.5905511811023622,
                    "duration": 0.09999999999999432
                },
                {
                    "name": "F#5",
                    "midi": 78,
                    "time": 233.59999999999533,
                    "velocity": 0.5905511811023622,
                    "duration": 0.09999999999999432
                },
                {
                    "name": "B4",
                    "midi": 71,
                    "time": 233.69999999999533,
                    "velocity": 0.6299212598425197,
                    "duration": 0.30000000000001137
                },
                {
                    "name": "B5",
                    "midi": 83,
                    "time": 233.99999999999534,
                    "velocity": 0.7322834645669292,
                    "duration": 0.9000000000000057
                },
                {
                    "name": "B4",
                    "midi": 71,
                    "time": 234.29999999999535,
                    "velocity": 0.6377952755905512,
                    "duration": 0.09999999999999432
                },
                {
                    "name": "C#5",
                    "midi": 73,
                    "time": 234.39999999999534,
                    "velocity": 0.5984251968503937,
                    "duration": 0.09999999999999432
                },
                {
                    "name": "G5",
                    "midi": 79,
                    "time": 234.49999999999534,
                    "velocity": 0.5984251968503937,
                    "duration": 0.09999999999999432
                },
                {
                    "name": "B4",
                    "midi": 71,
                    "time": 234.59999999999533,
                    "velocity": 0.6377952755905512,
                    "duration": 0.30000000000001137
                },
                {
                    "name": "B5",
                    "midi": 83,
                    "time": 234.89999999999534,
                    "velocity": 0.7007874015748031,
                    "duration": 0.30000000000001137
                },
                {
                    "name": "F#5",
                    "midi": 78,
                    "time": 235.04999999999535,
                    "velocity": 0.5669291338582677,
                    "duration": 0.15000000000000568
                },
                {
                    "name": "D5",
                    "midi": 74,
                    "time": 235.04999999999535,
                    "velocity": 0.5039370078740157,
                    "duration": 0.15000000000000568
                },
                {
                    "name": "C#6",
                    "midi": 85,
                    "time": 235.19999999999536,
                    "velocity": 0.7007874015748031,
                    "duration": 0.30000000000001137
                },
                {
                    "name": "F#5",
                    "midi": 78,
                    "time": 235.34999999999536,
                    "velocity": 0.5669291338582677,
                    "duration": 0.15000000000000568
                },
                {
                    "name": "E5",
                    "midi": 76,
                    "time": 235.34999999999536,
                    "velocity": 0.5039370078740157,
                    "duration": 0.15000000000000568
                },
                {
                    "name": "D6",
                    "midi": 86,
                    "time": 235.49999999999537,
                    "velocity": 0.7007874015748031,
                    "duration": 0.30000000000001137
                },
                {
                    "name": "D5",
                    "midi": 74,
                    "time": 235.64999999999537,
                    "velocity": 0.5039370078740157,
                    "duration": 0.15000000000000568
                },
                {
                    "name": "F#5",
                    "midi": 78,
                    "time": 235.64999999999537,
                    "velocity": 0.5669291338582677,
                    "duration": 0.15000000000000568
                },
                {
                    "name": "C#6",
                    "midi": 85,
                    "time": 235.79999999999538,
                    "velocity": 0.7007874015748031,
                    "duration": 0.9000000000000057
                },
                {
                    "name": "C#5",
                    "midi": 73,
                    "time": 236.0999999999954,
                    "velocity": 0.6377952755905512,
                    "duration": 0.09999999999999432
                },
                {
                    "name": "F#5",
                    "midi": 78,
                    "time": 236.19999999999538,
                    "velocity": 0.5984251968503937,
                    "duration": 0.09999999999999432
                },
                {
                    "name": "A#5",
                    "midi": 82,
                    "time": 236.29999999999538,
                    "velocity": 0.5984251968503937,
                    "duration": 0.09999999999999432
                },
                {
                    "name": "C#5",
                    "midi": 73,
                    "time": 236.39999999999537,
                    "velocity": 0.6377952755905512,
                    "duration": 0.30000000000001137
                },
                {
                    "name": "D6",
                    "midi": 86,
                    "time": 236.69999999999538,
                    "velocity": 0.7637795275590551,
                    "duration": 0.9000000000000057
                },
                {
                    "name": "D5",
                    "midi": 74,
                    "time": 236.9999999999954,
                    "velocity": 0.6377952755905512,
                    "duration": 0.09999999999999432
                },
                {
                    "name": "F5",
                    "midi": 77,
                    "time": 237.0999999999954,
                    "velocity": 0.6062992125984252,
                    "duration": 0.09999999999999432
                },
                {
                    "name": "A#5",
                    "midi": 82,
                    "time": 237.19999999999538,
                    "velocity": 0.6062992125984252,
                    "duration": 0.09999999999999432
                },
                {
                    "name": "D5",
                    "midi": 74,
                    "time": 237.29999999999538,
                    "velocity": 0.6377952755905512,
                    "duration": 0.30000000000001137
                },
                {
                    "name": "D#6",
                    "midi": 87,
                    "time": 237.5999999999954,
                    "velocity": 0.7637795275590551,
                    "duration": 0.9000000000000057
                },
                {
                    "name": "D#5",
                    "midi": 75,
                    "time": 237.8999999999954,
                    "velocity": 0.6377952755905512,
                    "duration": 0.09999999999999432
                },
                {
                    "name": "F#5",
                    "midi": 78,
                    "time": 237.9999999999954,
                    "velocity": 0.6062992125984252,
                    "duration": 0.09999999999999432
                },
                {
                    "name": "A#5",
                    "midi": 82,
                    "time": 238.0999999999954,
                    "velocity": 0.6062992125984252,
                    "duration": 0.09999999999999432
                },
                {
                    "name": "D#5",
                    "midi": 75,
                    "time": 238.19999999999538,
                    "velocity": 0.6377952755905512,
                    "duration": 0.30000000000001137
                },
                {
                    "name": "D6",
                    "midi": 86,
                    "time": 238.4999999999954,
                    "velocity": 0.6377952755905512,
                    "duration": 0.15000000000000568
                },
                {
                    "name": "A#5",
                    "midi": 82,
                    "time": 238.4999999999954,
                    "velocity": 0.5669291338582677,
                    "duration": 0.15000000000000568
                },
                {
                    "name": "F5",
                    "midi": 77,
                    "time": 238.4999999999954,
                    "velocity": 0.5669291338582677,
                    "duration": 0.15000000000000568
                },
                {
                    "name": "F6",
                    "midi": 89,
                    "time": 238.6499999999954,
                    "velocity": 0.5669291338582677,
                    "duration": 0.15000000000000568
                },
                {
                    "name": "D6",
                    "midi": 86,
                    "time": 238.7999999999954,
                    "velocity": 0.7007874015748031,
                    "duration": 0.15000000000000568
                },
                {
                    "name": "A#5",
                    "midi": 82,
                    "time": 238.7999999999954,
                    "velocity": 0.6299212598425197,
                    "duration": 0.15000000000000568
                },
                {
                    "name": "F#5",
                    "midi": 78,
                    "time": 238.7999999999954,
                    "velocity": 0.6299212598425197,
                    "duration": 0.15000000000000568
                },
                {
                    "name": "F#6",
                    "midi": 90,
                    "time": 238.9499999999954,
                    "velocity": 0.6220472440944882,
                    "duration": 0.15000000000000568
                },
                {
                    "name": "D6",
                    "midi": 86,
                    "time": 239.09999999999542,
                    "velocity": 0.6377952755905512,
                    "duration": 0.15000000000000568
                },
                {
                    "name": "A#5",
                    "midi": 82,
                    "time": 239.09999999999542,
                    "velocity": 0.5669291338582677,
                    "duration": 0.15000000000000568
                },
                {
                    "name": "F5",
                    "midi": 77,
                    "time": 239.09999999999542,
                    "velocity": 0.5669291338582677,
                    "duration": 0.15000000000000568
                },
                {
                    "name": "F6",
                    "midi": 89,
                    "time": 239.24999999999542,
                    "velocity": 0.5669291338582677,
                    "duration": 0.15000000000000568
                },
                {
                    "name": "D#6",
                    "midi": 87,
                    "time": 239.39999999999543,
                    "velocity": 0.7086614173228346,
                    "duration": 0.9000000000000057
                },
                {
                    "name": "D#5",
                    "midi": 75,
                    "time": 239.69999999999544,
                    "velocity": 0.5669291338582677,
                    "duration": 0.09999999999999432
                },
                {
                    "name": "F#5",
                    "midi": 78,
                    "time": 239.79999999999544,
                    "velocity": 0.5354330708661418,
                    "duration": 0.09999999999999432
                },
                {
                    "name": "A#5",
                    "midi": 82,
                    "time": 239.89999999999543,
                    "velocity": 0.5354330708661418,
                    "duration": 0.09999999999999432
                },
                {
                    "name": "D#5",
                    "midi": 75,
                    "time": 239.99999999999542,
                    "velocity": 0.5669291338582677,
                    "duration": 0.30000000000001137
                },
                {
                    "name": "A#6",
                    "midi": 94,
                    "time": 240.29999999999544,
                    "velocity": 0.7637795275590551,
                    "duration": 0.9000000000000057
                },
                {
                    "name": "A#5",
                    "midi": 82,
                    "time": 240.59999999999545,
                    "velocity": 0.5905511811023622,
                    "duration": 0.09999999999999432
                },
                {
                    "name": "F6",
                    "midi": 89,
                    "time": 240.69999999999544,
                    "velocity": 0.5590551181102362,
                    "duration": 0.09999999999999432
                },
                {
                    "name": "G#6",
                    "midi": 92,
                    "time": 240.79999999999544,
                    "velocity": 0.5590551181102362,
                    "duration": 0.09999999999999432
                },
                {
                    "name": "A#5",
                    "midi": 82,
                    "time": 240.89999999999543,
                    "velocity": 0.5905511811023622,
                    "duration": 0.30000000000001137
                },
                {
                    "name": "A#6",
                    "midi": 94,
                    "time": 241.19999999999544,
                    "velocity": 0.7637795275590551,
                    "duration": 0.9000000000000057
                },
                {
                    "name": "A#5",
                    "midi": 82,
                    "time": 241.49999999999545,
                    "velocity": 0.5826771653543307,
                    "duration": 0.09999999999999432
                },
                {
                    "name": "D#6",
                    "midi": 87,
                    "time": 241.59999999999545,
                    "velocity": 0.5511811023622047,
                    "duration": 0.09999999999999432
                },
                {
                    "name": "F#6",
                    "midi": 90,
                    "time": 241.69999999999544,
                    "velocity": 0.5511811023622047,
                    "duration": 0.09999999999999432
                },
                {
                    "name": "A#5",
                    "midi": 82,
                    "time": 241.79999999999544,
                    "velocity": 0.5826771653543307,
                    "duration": 0.30000000000001137
                },
                {
                    "name": "G#5",
                    "midi": 80,
                    "time": 242.09999999999545,
                    "velocity": 0.5669291338582677,
                    "duration": 0.15000000000000568
                },
                {
                    "name": "F6",
                    "midi": 89,
                    "time": 242.09999999999545,
                    "velocity": 0.6377952755905512,
                    "duration": 0.15000000000000568
                },
                {
                    "name": "G#6",
                    "midi": 92,
                    "time": 242.24999999999545,
                    "velocity": 0.5984251968503937,
                    "duration": 0.15000000000000568
                },
                {
                    "name": "F#5",
                    "midi": 78,
                    "time": 242.39999999999546,
                    "velocity": 0.5669291338582677,
                    "duration": 0.15000000000000568
                },
                {
                    "name": "D#6",
                    "midi": 87,
                    "time": 242.39999999999546,
                    "velocity": 0.6377952755905512,
                    "duration": 0.15000000000000568
                },
                {
                    "name": "F#6",
                    "midi": 90,
                    "time": 242.54999999999546,
                    "velocity": 0.6062992125984252,
                    "duration": 0.15000000000000568
                },
                {
                    "name": "F5",
                    "midi": 77,
                    "time": 242.69999999999547,
                    "velocity": 0.5669291338582677,
                    "duration": 0.15000000000000568
                },
                {
                    "name": "D6",
                    "midi": 86,
                    "time": 242.69999999999547,
                    "velocity": 0.6377952755905512,
                    "duration": 0.15000000000000568
                },
                {
                    "name": "F6",
                    "midi": 89,
                    "time": 242.84999999999548,
                    "velocity": 0.6141732283464567,
                    "duration": 0.15000000000000568
                },
                {
                    "name": "D#6",
                    "midi": 87,
                    "time": 242.99999999999548,
                    "velocity": 0.7086614173228346,
                    "duration": 0.9000000000000057
                },
                {
                    "name": "D#5",
                    "midi": 75,
                    "time": 243.2999999999955,
                    "velocity": 0.6377952755905512,
                    "duration": 0.09999999999999432
                },
                {
                    "name": "F#5",
                    "midi": 78,
                    "time": 243.3999999999955,
                    "velocity": 0.5118110236220472,
                    "duration": 0.09999999999999432
                },
                {
                    "name": "A#5",
                    "midi": 82,
                    "time": 243.49999999999548,
                    "velocity": 0.5196850393700787,
                    "duration": 0.09999999999999432
                },
                {
                    "name": "D#5",
                    "midi": 75,
                    "time": 243.59999999999548,
                    "velocity": 0.5196850393700787,
                    "duration": 0.30000000000001137
                },
                {
                    "name": "A#6",
                    "midi": 94,
                    "time": 243.8999999999955,
                    "velocity": 0.7637795275590551,
                    "duration": 0.9000000000000057
                },
                {
                    "name": "A#5",
                    "midi": 82,
                    "time": 244.1999999999955,
                    "velocity": 0.5669291338582677,
                    "duration": 0.09999999999999432
                },
                {
                    "name": "F6",
                    "midi": 89,
                    "time": 244.2999999999955,
                    "velocity": 0.5354330708661418,
                    "duration": 0.09999999999999432
                },
                {
                    "name": "G#6",
                    "midi": 92,
                    "time": 244.3999999999955,
                    "velocity": 0.5354330708661418,
                    "duration": 0.09999999999999432
                },
                {
                    "name": "A#5",
                    "midi": 82,
                    "time": 244.49999999999548,
                    "velocity": 0.5669291338582677,
                    "duration": 0.30000000000001137
                },
                {
                    "name": "A#6",
                    "midi": 94,
                    "time": 244.7999999999955,
                    "velocity": 0.7637795275590551,
                    "duration": 0.9000000000000057
                },
                {
                    "name": "A#5",
                    "midi": 82,
                    "time": 245.0999999999955,
                    "velocity": 0.5669291338582677,
                    "duration": 0.09999999999999432
                },
                {
                    "name": "D#6",
                    "midi": 87,
                    "time": 245.1999999999955,
                    "velocity": 0.5354330708661418,
                    "duration": 0.09999999999999432
                },
                {
                    "name": "F#6",
                    "midi": 90,
                    "time": 245.2999999999955,
                    "velocity": 0.5354330708661418,
                    "duration": 0.09999999999999432
                },
                {
                    "name": "A#5",
                    "midi": 82,
                    "time": 245.3999999999955,
                    "velocity": 0.5669291338582677,
                    "duration": 0.30000000000001137
                },
                {
                    "name": "G#5",
                    "midi": 80,
                    "time": 245.6999999999955,
                    "velocity": 0.5669291338582677,
                    "duration": 0.15000000000000568
                },
                {
                    "name": "F6",
                    "midi": 89,
                    "time": 245.6999999999955,
                    "velocity": 0.6377952755905512,
                    "duration": 0.15000000000000568
                },
                {
                    "name": "G#6",
                    "midi": 92,
                    "time": 245.8499999999955,
                    "velocity": 0.6377952755905512,
                    "duration": 0.15000000000000568
                },
                {
                    "name": "F#5",
                    "midi": 78,
                    "time": 245.9999999999955,
                    "velocity": 0.5669291338582677,
                    "duration": 0.15000000000000568
                },
                {
                    "name": "D#6",
                    "midi": 87,
                    "time": 245.9999999999955,
                    "velocity": 0.6377952755905512,
                    "duration": 0.15000000000000568
                },
                {
                    "name": "F#6",
                    "midi": 90,
                    "time": 246.14999999999552,
                    "velocity": 0.6377952755905512,
                    "duration": 0.15000000000000568
                },
                {
                    "name": "F5",
                    "midi": 77,
                    "time": 246.29999999999552,
                    "velocity": 0.5669291338582677,
                    "duration": 0.15000000000000568
                },
                {
                    "name": "D6",
                    "midi": 86,
                    "time": 246.29999999999552,
                    "velocity": 0.6377952755905512,
                    "duration": 0.15000000000000568
                },
                {
                    "name": "F6",
                    "midi": 89,
                    "time": 246.44999999999553,
                    "velocity": 0.6299212598425197,
                    "duration": 0.15000000000000568
                },
                {
                    "name": "D#6",
                    "midi": 87,
                    "time": 246.59999999999553,
                    "velocity": 0.7086614173228346,
                    "duration": 0.9000000000000057
                },
                {
                    "name": "D#5",
                    "midi": 75,
                    "time": 246.89999999999554,
                    "velocity": 0.5039370078740157,
                    "duration": 0.09999999999999432
                },
                {
                    "name": "F#5",
                    "midi": 78,
                    "time": 246.99999999999554,
                    "velocity": 0.48031496062992124,
                    "duration": 0.09999999999999432
                },
                {
                    "name": "A#5",
                    "midi": 82,
                    "time": 247.09999999999553,
                    "velocity": 0.48031496062992124,
                    "duration": 0.09999999999999432
                },
                {
                    "name": "D#5",
                    "midi": 75,
                    "time": 247.19999999999553,
                    "velocity": 0.49606299212598426,
                    "duration": 0.30000000000001137
                },
                {
                    "name": "B5",
                    "midi": 83,
                    "time": 247.49999999999554,
                    "velocity": 0.5669291338582677,
                    "duration": 0.15000000000000568
                },
                {
                    "name": "G#6",
                    "midi": 92,
                    "time": 247.49999999999554,
                    "velocity": 0.6377952755905512,
                    "duration": 0.15000000000000568
                },
                {
                    "name": "B6",
                    "midi": 95,
                    "time": 247.64999999999554,
                    "velocity": 0.5905511811023622,
                    "duration": 0.15000000000000568
                },
                {
                    "name": "A#5",
                    "midi": 82,
                    "time": 247.79999999999555,
                    "velocity": 0.5669291338582677,
                    "duration": 0.15000000000000568
                },
                {
                    "name": "F#6",
                    "midi": 90,
                    "time": 247.79999999999555,
                    "velocity": 0.6377952755905512,
                    "duration": 0.15000000000000568
                },
                {
                    "name": "A#6",
                    "midi": 94,
                    "time": 247.94999999999555,
                    "velocity": 0.5984251968503937,
                    "duration": 0.15000000000000568
                },
                {
                    "name": "D6",
                    "midi": 86,
                    "time": 248.09999999999556,
                    "velocity": 0.5669291338582677,
                    "duration": 0.15000000000000568
                },
                {
                    "name": "F6",
                    "midi": 89,
                    "time": 248.09999999999556,
                    "velocity": 0.6377952755905512,
                    "duration": 0.15000000000000568
                },
                {
                    "name": "D7",
                    "midi": 98,
                    "time": 248.24999999999557,
                    "velocity": 0.5984251968503937,
                    "duration": 0.15000000000000568
                },
                {
                    "name": "D#7",
                    "midi": 99,
                    "time": 248.39999999999557,
                    "velocity": 0.6377952755905512,
                    "duration": 0.09999999999999432
                },
                {
                    "name": "B6",
                    "midi": 95,
                    "time": 248.49999999999557,
                    "velocity": 0.5984251968503937,
                    "duration": 0.09999999999999432
                },
                {
                    "name": "A#6",
                    "midi": 94,
                    "time": 248.59999999999556,
                    "velocity": 0.6141732283464567,
                    "duration": 0.09999999999999432
                },
                {
                    "name": "G#6",
                    "midi": 92,
                    "time": 248.69999999999555,
                    "velocity": 0.6377952755905512,
                    "duration": 0.09999999999999432
                },
                {
                    "name": "F#6",
                    "midi": 90,
                    "time": 248.79999999999555,
                    "velocity": 0.5984251968503937,
                    "duration": 0.09999999999999432
                },
                {
                    "name": "F6",
                    "midi": 89,
                    "time": 248.89999999999554,
                    "velocity": 0.5984251968503937,
                    "duration": 0.09999999999999432
                },
                {
                    "name": "D#6",
                    "midi": 87,
                    "time": 248.99999999999554,
                    "velocity": 0.7322834645669292,
                    "duration": 0.15000000000000568
                },
                {
                    "name": "D#6",
                    "midi": 87,
                    "time": 249.29999999999555,
                    "velocity": 0.6377952755905512,
                    "duration": 0.09999999999999432
                },
                {
                    "name": "B5",
                    "midi": 83,
                    "time": 249.39999999999554,
                    "velocity": 0.5905511811023622,
                    "duration": 0.09999999999999432
                },
                {
                    "name": "A#5",
                    "midi": 82,
                    "time": 249.49999999999554,
                    "velocity": 0.5905511811023622,
                    "duration": 0.09999999999999432
                },
                {
                    "name": "G#5",
                    "midi": 80,
                    "time": 249.59999999999553,
                    "velocity": 0.6377952755905512,
                    "duration": 0.09999999999999432
                },
                {
                    "name": "F#5",
                    "midi": 78,
                    "time": 249.69999999999553,
                    "velocity": 0.6062992125984252,
                    "duration": 0.09999999999999432
                },
                {
                    "name": "F5",
                    "midi": 77,
                    "time": 249.79999999999552,
                    "velocity": 0.6062992125984252,
                    "duration": 0.09999999999999432
                },
                {
                    "name": "D#5",
                    "midi": 75,
                    "time": 249.89999999999552,
                    "velocity": 0.7244094488188977,
                    "duration": 0.15000000000000568
                },
                {
                    "name": "D#5",
                    "midi": 75,
                    "time": 250.19999999999553,
                    "velocity": 0.6377952755905512,
                    "duration": 0.09999999999999432
                },
                {
                    "name": "B4",
                    "midi": 71,
                    "time": 250.29999999999552,
                    "velocity": 0.5984251968503937,
                    "duration": 0.09999999999999432
                },
                {
                    "name": "A#4",
                    "midi": 70,
                    "time": 250.39999999999552,
                    "velocity": 0.5984251968503937,
                    "duration": 0.09999999999999432
                },
                {
                    "name": "G#4",
                    "midi": 68,
                    "time": 250.4999999999955,
                    "velocity": 0.6377952755905512,
                    "duration": 0.09999999999999432
                },
                {
                    "name": "F#4",
                    "midi": 66,
                    "time": 250.5999999999955,
                    "velocity": 0.5984251968503937,
                    "duration": 0.09999999999999432
                },
                {
                    "name": "F4",
                    "midi": 65,
                    "time": 250.6999999999955,
                    "velocity": 0.5984251968503937,
                    "duration": 0.09999999999999432
                },
                {
                    "name": "D#4",
                    "midi": 63,
                    "time": 250.7999999999955,
                    "velocity": 0.7165354330708661,
                    "duration": 0.15000000000000568
                },
                {
                    "name": "D#4",
                    "midi": 63,
                    "time": 251.0999999999955,
                    "velocity": 0.6377952755905512,
                    "duration": 0.09999999999999432
                },
                {
                    "name": "B3",
                    "midi": 59,
                    "time": 251.1999999999955,
                    "velocity": 0.5984251968503937,
                    "duration": 0.09999999999999432
                },
                {
                    "name": "A#3",
                    "midi": 58,
                    "time": 251.2999999999955,
                    "velocity": 0.5984251968503937,
                    "duration": 0.09999999999999432
                },
                {
                    "name": "G#3",
                    "midi": 56,
                    "time": 251.3999999999955,
                    "velocity": 0.6377952755905512,
                    "duration": 0.09999999999999432
                },
                {
                    "name": "F#3",
                    "midi": 54,
                    "time": 251.49999999999548,
                    "velocity": 0.5984251968503937,
                    "duration": 0.09999999999999432
                },
                {
                    "name": "F3",
                    "midi": 53,
                    "time": 251.59999999999548,
                    "velocity": 0.6141732283464567,
                    "duration": 0.09999999999999432
                },
                {
                    "name": "D#3",
                    "midi": 51,
                    "time": 251.69999999999547,
                    "velocity": 0.7165354330708661,
                    "duration": 0.07499999999998863
                },
                {
                    "name": "D#4",
                    "midi": 63,
                    "time": 251.99999999999545,
                    "velocity": 0.7007874015748031,
                    "duration": 0.15000000000000568
                },
                {
                    "name": "D#4",
                    "midi": 63,
                    "time": 252.29999999999546,
                    "velocity": 0.7007874015748031,
                    "duration": 0.15000000000000568
                },
                {
                    "name": "D#4",
                    "midi": 63,
                    "time": 252.59999999999548,
                    "velocity": 0.7007874015748031,
                    "duration": 0.15000000000000568
                },
                {
                    "name": "D#4",
                    "midi": 63,
                    "time": 252.8999999999955,
                    "velocity": 0.7007874015748031,
                    "duration": 0.15000000000000568
                },
                {
                    "name": "D#4",
                    "midi": 63,
                    "time": 253.1999999999955,
                    "velocity": 0.7007874015748031,
                    "duration": 0.15000000000000568
                },
                {
                    "name": "D#4",
                    "midi": 63,
                    "time": 253.4999999999955,
                    "velocity": 0.7007874015748031,
                    "duration": 0.15000000000000568
                },
                {
                    "name": "D5",
                    "midi": 74,
                    "time": 253.79999999999552,
                    "velocity": 0.7637795275590551,
                    "duration": 0.30000000000001137
                },
                {
                    "name": "A#4",
                    "midi": 70,
                    "time": 253.79999999999552,
                    "velocity": 0.6850393700787402,
                    "duration": 0.30000000000001137
                },
                {
                    "name": "F4",
                    "midi": 65,
                    "time": 253.79999999999552,
                    "velocity": 0.6850393700787402,
                    "duration": 0.30000000000001137
                },
                {
                    "name": "D4",
                    "midi": 62,
                    "time": 253.79999999999552,
                    "velocity": 0.6850393700787402,
                    "duration": 0.30000000000001137
                },
                {
                    "name": "D#4",
                    "midi": 63,
                    "time": 254.69999999999553,
                    "velocity": 0.6850393700787402,
                    "duration": 0.30000000000001137
                },
                {
                    "name": "F#4",
                    "midi": 66,
                    "time": 254.69999999999553,
                    "velocity": 0.6850393700787402,
                    "duration": 0.30000000000001137
                },
                {
                    "name": "A#4",
                    "midi": 70,
                    "time": 254.69999999999553,
                    "velocity": 0.6850393700787402,
                    "duration": 0.30000000000001137
                },
                {
                    "name": "D#5",
                    "midi": 75,
                    "time": 254.69999999999553,
                    "velocity": 0.7637795275590551,
                    "duration": 0.30000000000001137
                }
            ],
            "controlChanges": {
                "7": [
                    {
                        "number": 7,
                        "time": 0,
                        "value": 0.7874015748031497
                    }
                ],
                "10": [
                    {
                        "number": 10,
                        "time": 0,
                        "value": 0.5039370078740157
                    }
                ],
                "91": [
                    {
                        "number": 91,
                        "time": 0,
                        "value": 1
                    },
                    {
                        "number": 91,
                        "time": 46.800000000000395,
                        "value": 0.9921259842519685
                    }
                ]
            },
            "id": 1,
            "name": "Piano right",
            "instrumentNumber": 0,
            "instrument": "acoustic grand piano",
            "instrumentFamily": "piano",
            "channelNumber": 0,
            "isPercussion": false
        },
        {
            "startTime": 0.8999999999999999,
            "duration": 255.00000000000003,
            "length": 993,
            "notes": [
                {
                    "name": "D#3",
                    "midi": 51,
                    "time": 0.8999999999999999,
                    "velocity": 0.30708661417322836,
                    "duration": 0.8999999999999999
                },
                {
                    "name": "A#3",
                    "midi": 58,
                    "time": 1.2,
                    "velocity": 0.25196850393700787,
                    "duration": 0.5999999999999999
                },
                {
                    "name": "F3",
                    "midi": 53,
                    "time": 1.7999999999999998,
                    "velocity": 0.28346456692913385,
                    "duration": 0.8999999999999999
                },
                {
                    "name": "A#3",
                    "midi": 58,
                    "time": 2.0999999999999996,
                    "velocity": 0.2440944881889764,
                    "duration": 0.296875
                },
                {
                    "name": "G3",
                    "midi": 55,
                    "time": 2.6999999999999997,
                    "velocity": 0.30708661417322836,
                    "duration": 0.8999999999999999
                },
                {
                    "name": "A#3",
                    "midi": 58,
                    "time": 2.9999999999999996,
                    "velocity": 0.2440944881889764,
                    "duration": 0.6000000000000001
                },
                {
                    "name": "D3",
                    "midi": 50,
                    "time": 3.5999999999999996,
                    "velocity": 0.30708661417322836,
                    "duration": 0.8999999999999995
                },
                {
                    "name": "A#3",
                    "midi": 58,
                    "time": 3.8999999999999995,
                    "velocity": 0.23622047244094488,
                    "duration": 0.5999999999999996
                },
                {
                    "name": "D#3",
                    "midi": 51,
                    "time": 4.499999999999999,
                    "velocity": 0.31496062992125984,
                    "duration": 0.8999999999999995
                },
                {
                    "name": "A#3",
                    "midi": 58,
                    "time": 4.799999999999999,
                    "velocity": 0.2440944881889764,
                    "duration": 0.5999999999999996
                },
                {
                    "name": "G#2",
                    "midi": 44,
                    "time": 5.399999999999999,
                    "velocity": 0.31496062992125984,
                    "duration": 0.2999999999999998
                },
                {
                    "name": "C4",
                    "midi": 60,
                    "time": 5.699999999999998,
                    "velocity": 0.25196850393700787,
                    "duration": 0.5999999999999996
                },
                {
                    "name": "G#3",
                    "midi": 56,
                    "time": 5.699999999999998,
                    "velocity": 0.2204724409448819,
                    "duration": 0.5999999999999996
                },
                {
                    "name": "A#2",
                    "midi": 46,
                    "time": 6.299999999999998,
                    "velocity": 0.3779527559055118,
                    "duration": 0.2999999999999998
                },
                {
                    "name": "D4",
                    "midi": 62,
                    "time": 6.599999999999998,
                    "velocity": 0.29133858267716534,
                    "duration": 0.5999999999999996
                },
                {
                    "name": "A#3",
                    "midi": 58,
                    "time": 6.599999999999998,
                    "velocity": 0.25984251968503935,
                    "duration": 0.5999999999999996
                },
                {
                    "name": "G#3",
                    "midi": 56,
                    "time": 6.599999999999998,
                    "velocity": 0.25984251968503935,
                    "duration": 0.5999999999999996
                },
                {
                    "name": "D#3",
                    "midi": 51,
                    "time": 7.1999999999999975,
                    "velocity": 0.3779527559055118,
                    "duration": 0.2999999999999998
                },
                {
                    "name": "A#3",
                    "midi": 58,
                    "time": 7.499999999999997,
                    "velocity": 0.2125984251968504,
                    "duration": 0.6000000000000005
                },
                {
                    "name": "G3",
                    "midi": 55,
                    "time": 7.499999999999997,
                    "velocity": 0.2125984251968504,
                    "duration": 0.6000000000000005
                },
                {
                    "name": "D#4",
                    "midi": 63,
                    "time": 7.499999999999997,
                    "velocity": 0.29133858267716534,
                    "duration": 0.6000000000000005
                },
                {
                    "name": "D#3",
                    "midi": 51,
                    "time": 8.099999999999998,
                    "velocity": 0.4330708661417323,
                    "duration": 0.9000000000000004
                },
                {
                    "name": "A#3",
                    "midi": 58,
                    "time": 8.399999999999999,
                    "velocity": 0.36220472440944884,
                    "duration": 0.5999999999999996
                },
                {
                    "name": "F3",
                    "midi": 53,
                    "time": 8.999999999999998,
                    "velocity": 0.4409448818897638,
                    "duration": 0.9000000000000021
                },
                {
                    "name": "A#3",
                    "midi": 58,
                    "time": 9.299999999999999,
                    "velocity": 0.3543307086614173,
                    "duration": 0.29812500000000064
                },
                {
                    "name": "G3",
                    "midi": 55,
                    "time": 9.9,
                    "velocity": 0.4409448818897638,
                    "duration": 0.9000000000000004
                },
                {
                    "name": "A#3",
                    "midi": 58,
                    "time": 10.200000000000001,
                    "velocity": 0.3543307086614173,
                    "duration": 0.5999999999999996
                },
                {
                    "name": "D3",
                    "midi": 50,
                    "time": 10.8,
                    "velocity": 0.44881889763779526,
                    "duration": 0.9000000000000004
                },
                {
                    "name": "A#3",
                    "midi": 58,
                    "time": 11.100000000000001,
                    "velocity": 0.36220472440944884,
                    "duration": 0.5999999999999996
                },
                {
                    "name": "D#3",
                    "midi": 51,
                    "time": 11.700000000000001,
                    "velocity": 0.4409448818897638,
                    "duration": 0.9000000000000004
                },
                {
                    "name": "A#3",
                    "midi": 58,
                    "time": 12.000000000000002,
                    "velocity": 0.3543307086614173,
                    "duration": 0.5999999999999996
                },
                {
                    "name": "G#2",
                    "midi": 44,
                    "time": 12.600000000000001,
                    "velocity": 0.4251968503937008,
                    "duration": 0.3000000000000007
                },
                {
                    "name": "C4",
                    "midi": 60,
                    "time": 12.900000000000002,
                    "velocity": 0.3543307086614173,
                    "duration": 0.5999999999999996
                },
                {
                    "name": "G#3",
                    "midi": 56,
                    "time": 12.900000000000002,
                    "velocity": 0.2677165354330709,
                    "duration": 0.5999999999999996
                },
                {
                    "name": "A#2",
                    "midi": 46,
                    "time": 13.500000000000002,
                    "velocity": 0.4330708661417323,
                    "duration": 0.3000000000000007
                },
                {
                    "name": "G#3",
                    "midi": 56,
                    "time": 13.800000000000002,
                    "velocity": 0.2440944881889764,
                    "duration": 0.5999999999999996
                },
                {
                    "name": "D4",
                    "midi": 62,
                    "time": 13.800000000000002,
                    "velocity": 0.33070866141732286,
                    "duration": 0.5999999999999996
                },
                {
                    "name": "A#3",
                    "midi": 58,
                    "time": 13.800000000000002,
                    "velocity": 0.2440944881889764,
                    "duration": 0.5999999999999996
                },
                {
                    "name": "D#3",
                    "midi": 51,
                    "time": 14.400000000000002,
                    "velocity": 0.4566929133858268,
                    "duration": 0.3000000000000007
                },
                {
                    "name": "D#4",
                    "midi": 63,
                    "time": 14.700000000000003,
                    "velocity": 0.3700787401574803,
                    "duration": 0.5999999999999996
                },
                {
                    "name": "A#3",
                    "midi": 58,
                    "time": 14.700000000000003,
                    "velocity": 0.2755905511811024,
                    "duration": 0.5999999999999996
                },
                {
                    "name": "G3",
                    "midi": 55,
                    "time": 14.700000000000003,
                    "velocity": 0.2755905511811024,
                    "duration": 0.5999999999999996
                },
                {
                    "name": "D#3",
                    "midi": 51,
                    "time": 15.300000000000002,
                    "velocity": 0.4409448818897638,
                    "duration": 0.9000000000000004
                },
                {
                    "name": "A#3",
                    "midi": 58,
                    "time": 15.600000000000003,
                    "velocity": 0.3543307086614173,
                    "duration": 0.5999999999999996
                },
                {
                    "name": "F3",
                    "midi": 53,
                    "time": 16.200000000000003,
                    "velocity": 0.4409448818897638,
                    "duration": 0.9000000000000021
                },
                {
                    "name": "A#3",
                    "midi": 58,
                    "time": 16.500000000000004,
                    "velocity": 0.3464566929133858,
                    "duration": 0.6000000000000014
                },
                {
                    "name": "G3",
                    "midi": 55,
                    "time": 17.100000000000005,
                    "velocity": 0.4409448818897638,
                    "duration": 0.9000000000000021
                },
                {
                    "name": "A#3",
                    "midi": 58,
                    "time": 17.400000000000006,
                    "velocity": 0.3543307086614173,
                    "duration": 0.6000000000000014
                },
                {
                    "name": "D3",
                    "midi": 50,
                    "time": 18.000000000000007,
                    "velocity": 0.5118110236220472,
                    "duration": 0.9000000000000021
                },
                {
                    "name": "A#3",
                    "midi": 58,
                    "time": 18.300000000000008,
                    "velocity": 0.36220472440944884,
                    "duration": 0.6000000000000014
                },
                {
                    "name": "D#3",
                    "midi": 51,
                    "time": 18.90000000000001,
                    "velocity": 0.4566929133858268,
                    "duration": 0.9000000000000021
                },
                {
                    "name": "A#3",
                    "midi": 58,
                    "time": 19.20000000000001,
                    "velocity": 0.3858267716535433,
                    "duration": 0.6000000000000014
                },
                {
                    "name": "G#2",
                    "midi": 44,
                    "time": 19.80000000000001,
                    "velocity": 0.3700787401574803,
                    "duration": 0.3000000000000007
                },
                {
                    "name": "G#3",
                    "midi": 56,
                    "time": 20.100000000000012,
                    "velocity": 0.23622047244094488,
                    "duration": 0.6000000000000014
                },
                {
                    "name": "C4",
                    "midi": 60,
                    "time": 20.100000000000012,
                    "velocity": 0.3228346456692913,
                    "duration": 0.6000000000000014
                },
                {
                    "name": "A#2",
                    "midi": 46,
                    "time": 20.700000000000014,
                    "velocity": 0.3700787401574803,
                    "duration": 0.3000000000000007
                },
                {
                    "name": "D4",
                    "midi": 62,
                    "time": 21.000000000000014,
                    "velocity": 0.31496062992125984,
                    "duration": 0.6000000000000014
                },
                {
                    "name": "A#3",
                    "midi": 58,
                    "time": 21.000000000000014,
                    "velocity": 0.23622047244094488,
                    "duration": 0.6000000000000014
                },
                {
                    "name": "G#3",
                    "midi": 56,
                    "time": 21.000000000000014,
                    "velocity": 0.23622047244094488,
                    "duration": 0.6000000000000014
                },
                {
                    "name": "D#3",
                    "midi": 51,
                    "time": 21.600000000000016,
                    "velocity": 0.31496062992125984,
                    "duration": 0.3000000000000007
                },
                {
                    "name": "A#3",
                    "midi": 58,
                    "time": 21.900000000000016,
                    "velocity": 0.2047244094488189,
                    "duration": 0.6000000000000014
                },
                {
                    "name": "G3",
                    "midi": 55,
                    "time": 21.900000000000016,
                    "velocity": 0.2047244094488189,
                    "duration": 0.6000000000000014
                },
                {
                    "name": "D#4",
                    "midi": 63,
                    "time": 21.900000000000016,
                    "velocity": 0.2755905511811024,
                    "duration": 0.6000000000000014
                },
                {
                    "name": "D#2",
                    "midi": 39,
                    "time": 22.500000000000018,
                    "velocity": 0.3464566929133858,
                    "duration": 0.9000000000000021
                },
                {
                    "name": "D#3",
                    "midi": 51,
                    "time": 22.80000000000002,
                    "velocity": 0.25196850393700787,
                    "duration": 0.6000000000000014
                },
                {
                    "name": "G#2",
                    "midi": 44,
                    "time": 23.40000000000002,
                    "velocity": 0.33070866141732286,
                    "duration": 0.9000000000000021
                },
                {
                    "name": "G#3",
                    "midi": 56,
                    "time": 23.70000000000002,
                    "velocity": 0.25196850393700787,
                    "duration": 0.6000000000000014
                },
                {
                    "name": "C#2",
                    "midi": 37,
                    "time": 24.300000000000022,
                    "velocity": 0.3464566929133858,
                    "duration": 0.9000000000000021
                },
                {
                    "name": "C#3",
                    "midi": 49,
                    "time": 24.600000000000023,
                    "velocity": 0.25196850393700787,
                    "duration": 0.6000000000000014
                },
                {
                    "name": "F#2",
                    "midi": 42,
                    "time": 25.200000000000024,
                    "velocity": 0.33858267716535434,
                    "duration": 0.9000000000000021
                },
                {
                    "name": "F#3",
                    "midi": 54,
                    "time": 25.500000000000025,
                    "velocity": 0.25196850393700787,
                    "duration": 0.6000000000000014
                },
                {
                    "name": "B1",
                    "midi": 35,
                    "time": 26.100000000000026,
                    "velocity": 0.3464566929133858,
                    "duration": 0.9000000000000021
                },
                {
                    "name": "B2",
                    "midi": 47,
                    "time": 26.400000000000027,
                    "velocity": 0.25196850393700787,
                    "duration": 0.6000000000000014
                },
                {
                    "name": "F2",
                    "midi": 41,
                    "time": 27.00000000000003,
                    "velocity": 0.33070866141732286,
                    "duration": 0.8999999999999986
                },
                {
                    "name": "F3",
                    "midi": 53,
                    "time": 27.30000000000003,
                    "velocity": 0.25196850393700787,
                    "duration": 0.5999999999999979
                },
                {
                    "name": "A#1",
                    "midi": 34,
                    "time": 27.900000000000027,
                    "velocity": 0.3464566929133858,
                    "duration": 0.9000000000000021
                },
                {
                    "name": "A#2",
                    "midi": 46,
                    "time": 28.200000000000028,
                    "velocity": 0.25196850393700787,
                    "duration": 0.6000000000000014
                },
                {
                    "name": "D#2",
                    "midi": 39,
                    "time": 28.80000000000003,
                    "velocity": 0.33858267716535434,
                    "duration": 0.8999999999999986
                },
                {
                    "name": "D#3",
                    "midi": 51,
                    "time": 29.100000000000026,
                    "velocity": 0.25196850393700787,
                    "duration": 0.6000000000000014
                },
                {
                    "name": "G#2",
                    "midi": 44,
                    "time": 29.700000000000028,
                    "velocity": 0.33858267716535434,
                    "duration": 0.9000000000000021
                },
                {
                    "name": "G#3",
                    "midi": 56,
                    "time": 30.00000000000003,
                    "velocity": 0.25196850393700787,
                    "duration": 0.6000000000000014
                },
                {
                    "name": "A#2",
                    "midi": 46,
                    "time": 30.60000000000003,
                    "velocity": 0.3228346456692913,
                    "duration": 0.899999999999995
                },
                {
                    "name": "A#3",
                    "midi": 58,
                    "time": 30.900000000000027,
                    "velocity": 0.3228346456692913,
                    "duration": 1.499999999999993
                },
                {
                    "name": "D#3",
                    "midi": 51,
                    "time": 31.500000000000025,
                    "velocity": 0.31496062992125984,
                    "duration": 0.899999999999995
                },
                {
                    "name": "F#2",
                    "midi": 42,
                    "time": 32.40000000000002,
                    "velocity": 0.3228346456692913,
                    "duration": 0.8999999999999986
                },
                {
                    "name": "C#3",
                    "midi": 49,
                    "time": 32.70000000000002,
                    "velocity": 0.25984251968503935,
                    "duration": 0.6000000000000014
                },
                {
                    "name": "G#2",
                    "midi": 44,
                    "time": 33.30000000000002,
                    "velocity": 0.30708661417322836,
                    "duration": 0.9000000000000057
                },
                {
                    "name": "D3",
                    "midi": 50,
                    "time": 33.60000000000002,
                    "velocity": 0.41732283464566927,
                    "duration": 0.30000000000000426
                },
                {
                    "name": "C#3",
                    "midi": 49,
                    "time": 33.90000000000003,
                    "velocity": 0.25984251968503935,
                    "duration": 0.29999999999999716
                },
                {
                    "name": "F#2",
                    "midi": 42,
                    "time": 34.200000000000024,
                    "velocity": 0.30708661417322836,
                    "duration": 0.8999999999999986
                },
                {
                    "name": "C#3",
                    "midi": 49,
                    "time": 34.50000000000002,
                    "velocity": 0.25984251968503935,
                    "duration": 0.6000000000000014
                },
                {
                    "name": "G#2",
                    "midi": 44,
                    "time": 35.10000000000002,
                    "velocity": 0.31496062992125984,
                    "duration": 0.8999999999999915
                },
                {
                    "name": "D3",
                    "midi": 50,
                    "time": 35.40000000000002,
                    "velocity": 0.4330708661417323,
                    "duration": 0.29999999999999716
                },
                {
                    "name": "C#3",
                    "midi": 49,
                    "time": 35.70000000000002,
                    "velocity": 0.25984251968503935,
                    "duration": 0.29999999999999716
                },
                {
                    "name": "F#2",
                    "midi": 42,
                    "time": 36.000000000000014,
                    "velocity": 0.30708661417322836,
                    "duration": 0.8999999999999986
                },
                {
                    "name": "F#3",
                    "midi": 54,
                    "time": 36.30000000000001,
                    "velocity": 0.33858267716535434,
                    "duration": 0.9000000000000057
                },
                {
                    "name": "B2",
                    "midi": 47,
                    "time": 36.90000000000001,
                    "velocity": 0.31496062992125984,
                    "duration": 0.9000000000000057
                },
                {
                    "name": "G#3",
                    "midi": 56,
                    "time": 37.20000000000002,
                    "velocity": 0.33858267716535434,
                    "duration": 0.8999999999999986
                },
                {
                    "name": "C#3",
                    "midi": 49,
                    "time": 37.80000000000002,
                    "velocity": 0.33858267716535434,
                    "duration": 0.8999999999999986
                },
                {
                    "name": "B3",
                    "midi": 59,
                    "time": 38.100000000000016,
                    "velocity": 0.29133858267716534,
                    "duration": 0.6000000000000014
                },
                {
                    "name": "A#3",
                    "midi": 58,
                    "time": 38.70000000000002,
                    "velocity": 0.33858267716535434,
                    "duration": 0.6000000000000014
                },
                {
                    "name": "F#3",
                    "midi": 54,
                    "time": 38.70000000000002,
                    "velocity": 0.25196850393700787,
                    "duration": 0.6000000000000014
                },
                {
                    "name": "A#2",
                    "midi": 46,
                    "time": 39.600000000000016,
                    "velocity": 0.33858267716535434,
                    "duration": 0.8999999999999986
                },
                {
                    "name": "B3",
                    "midi": 59,
                    "time": 39.90000000000001,
                    "velocity": 0.25984251968503935,
                    "duration": 0.6000000000000014
                },
                {
                    "name": "G#3",
                    "midi": 56,
                    "time": 39.90000000000001,
                    "velocity": 0.1968503937007874,
                    "duration": 0.6000000000000014
                },
                {
                    "name": "F3",
                    "midi": 53,
                    "time": 39.90000000000001,
                    "velocity": 0.1968503937007874,
                    "duration": 0.6000000000000014
                },
                {
                    "name": "A#2",
                    "midi": 46,
                    "time": 40.500000000000014,
                    "velocity": 0.33858267716535434,
                    "duration": 0.8999999999999986
                },
                {
                    "name": "B3",
                    "midi": 59,
                    "time": 40.80000000000001,
                    "velocity": 0.25196850393700787,
                    "duration": 0.6000000000000014
                },
                {
                    "name": "G#3",
                    "midi": 56,
                    "time": 40.80000000000001,
                    "velocity": 0.1889763779527559,
                    "duration": 0.6000000000000014
                },
                {
                    "name": "F3",
                    "midi": 53,
                    "time": 40.80000000000001,
                    "velocity": 0.1889763779527559,
                    "duration": 0.6000000000000014
                },
                {
                    "name": "A#2",
                    "midi": 46,
                    "time": 41.40000000000001,
                    "velocity": 0.33858267716535434,
                    "duration": 1.7999999999999972
                },
                {
                    "name": "F3",
                    "midi": 53,
                    "time": 41.70000000000001,
                    "velocity": 0.1889763779527559,
                    "duration": 1.5
                },
                {
                    "name": "B3",
                    "midi": 59,
                    "time": 41.70000000000001,
                    "velocity": 0.25196850393700787,
                    "duration": 1.5
                },
                {
                    "name": "G#3",
                    "midi": 56,
                    "time": 41.70000000000001,
                    "velocity": 0.1889763779527559,
                    "duration": 1.5
                },
                {
                    "name": "A#3",
                    "midi": 58,
                    "time": 43.20000000000001,
                    "velocity": 0.33858267716535434,
                    "duration": 0.8999999999999986
                },
                {
                    "name": "G#4",
                    "midi": 68,
                    "time": 43.50000000000001,
                    "velocity": 0.1889763779527559,
                    "duration": 0.6000000000000014
                },
                {
                    "name": "F4",
                    "midi": 65,
                    "time": 43.50000000000001,
                    "velocity": 0.1889763779527559,
                    "duration": 0.6000000000000014
                },
                {
                    "name": "B4",
                    "midi": 71,
                    "time": 43.50000000000001,
                    "velocity": 0.25196850393700787,
                    "duration": 0.6000000000000014
                },
                {
                    "name": "A#3",
                    "midi": 58,
                    "time": 44.10000000000001,
                    "velocity": 0.33858267716535434,
                    "duration": 2.700000000000003
                },
                {
                    "name": "B4",
                    "midi": 71,
                    "time": 44.400000000000006,
                    "velocity": 0.25196850393700787,
                    "duration": 1.5
                },
                {
                    "name": "G#4",
                    "midi": 68,
                    "time": 44.400000000000006,
                    "velocity": 0.1889763779527559,
                    "duration": 2.4000000000000057
                },
                {
                    "name": "F4",
                    "midi": 65,
                    "time": 44.400000000000006,
                    "velocity": 0.1889763779527559,
                    "duration": 2.4000000000000057
                },
                {
                    "name": "A#4",
                    "midi": 70,
                    "time": 45.900000000000006,
                    "velocity": 0.31496062992125984,
                    "duration": 0.9000000000000057
                },
                {
                    "name": "D#3",
                    "midi": 51,
                    "time": 46.80000000000001,
                    "velocity": 0.31496062992125984,
                    "duration": 0.8999999999999986
                },
                {
                    "name": "A#3",
                    "midi": 58,
                    "time": 47.10000000000001,
                    "velocity": 0.25196850393700787,
                    "duration": 0.6000000000000014
                },
                {
                    "name": "F3",
                    "midi": 53,
                    "time": 47.70000000000001,
                    "velocity": 0.3228346456692913,
                    "duration": 0.8999999999999986
                },
                {
                    "name": "A#3",
                    "midi": 58,
                    "time": 48.00000000000001,
                    "velocity": 0.2440944881889764,
                    "duration": 0.296875
                },
                {
                    "name": "G3",
                    "midi": 55,
                    "time": 48.60000000000001,
                    "velocity": 0.31496062992125984,
                    "duration": 0.8999999999999986
                },
                {
                    "name": "A#3",
                    "midi": 58,
                    "time": 48.900000000000006,
                    "velocity": 0.23622047244094488,
                    "duration": 0.6000000000000014
                },
                {
                    "name": "D3",
                    "midi": 50,
                    "time": 49.50000000000001,
                    "velocity": 0.33858267716535434,
                    "duration": 0.8999999999999986
                },
                {
                    "name": "A#3",
                    "midi": 58,
                    "time": 49.800000000000004,
                    "velocity": 0.25196850393700787,
                    "duration": 0.6000000000000014
                },
                {
                    "name": "D#3",
                    "midi": 51,
                    "time": 50.400000000000006,
                    "velocity": 0.31496062992125984,
                    "duration": 0.8999999999999986
                },
                {
                    "name": "A#3",
                    "midi": 58,
                    "time": 50.7,
                    "velocity": 0.28346456692913385,
                    "duration": 0.6000000000000014
                },
                {
                    "name": "G#2",
                    "midi": 44,
                    "time": 51.300000000000004,
                    "velocity": 0.3228346456692913,
                    "duration": 0.29999999999999716
                },
                {
                    "name": "C4",
                    "midi": 60,
                    "time": 51.6,
                    "velocity": 0.25196850393700787,
                    "duration": 0.6000000000000014
                },
                {
                    "name": "G#3",
                    "midi": 56,
                    "time": 51.6,
                    "velocity": 0.1889763779527559,
                    "duration": 0.6000000000000014
                },
                {
                    "name": "A#2",
                    "midi": 46,
                    "time": 52.2,
                    "velocity": 0.31496062992125984,
                    "duration": 0.29999999999999716
                },
                {
                    "name": "G#3",
                    "midi": 56,
                    "time": 52.5,
                    "velocity": 0.18110236220472442,
                    "duration": 0.6000000000000014
                },
                {
                    "name": "F4",
                    "midi": 65,
                    "time": 52.5,
                    "velocity": 0.2440944881889764,
                    "duration": 0.6000000000000014
                },
                {
                    "name": "A#3",
                    "midi": 58,
                    "time": 52.5,
                    "velocity": 0.18110236220472442,
                    "duration": 0.6000000000000014
                },
                {
                    "name": "D#3",
                    "midi": 51,
                    "time": 53.1,
                    "velocity": 0.3700787401574803,
                    "duration": 0.29999999999999716
                },
                {
                    "name": "D#4",
                    "midi": 63,
                    "time": 53.4,
                    "velocity": 0.31496062992125984,
                    "duration": 0.6000000000000014
                },
                {
                    "name": "G3",
                    "midi": 55,
                    "time": 53.4,
                    "velocity": 0.23622047244094488,
                    "duration": 0.6000000000000014
                },
                {
                    "name": "A#3",
                    "midi": 58,
                    "time": 53.4,
                    "velocity": 0.23622047244094488,
                    "duration": 0.6000000000000014
                },
                {
                    "name": "D#3",
                    "midi": 51,
                    "time": 54,
                    "velocity": 0.36220472440944884,
                    "duration": 0.8999999999999986
                },
                {
                    "name": "A#3",
                    "midi": 58,
                    "time": 54.3,
                    "velocity": 0.31496062992125984,
                    "duration": 0.6000000000000014
                },
                {
                    "name": "F3",
                    "midi": 53,
                    "time": 54.9,
                    "velocity": 0.33858267716535434,
                    "duration": 0.8999999999999986
                },
                {
                    "name": "A#3",
                    "midi": 58,
                    "time": 55.199999999999996,
                    "velocity": 0.25196850393700787,
                    "duration": 0.6000000000000014
                },
                {
                    "name": "G3",
                    "midi": 55,
                    "time": 55.8,
                    "velocity": 0.33858267716535434,
                    "duration": 0.8999999999999986
                },
                {
                    "name": "A#3",
                    "midi": 58,
                    "time": 56.099999999999994,
                    "velocity": 0.25196850393700787,
                    "duration": 0.6000000000000014
                },
                {
                    "name": "D3",
                    "midi": 50,
                    "time": 56.699999999999996,
                    "velocity": 0.3543307086614173,
                    "duration": 0.8999999999999986
                },
                {
                    "name": "A#3",
                    "midi": 58,
                    "time": 56.99999999999999,
                    "velocity": 0.2755905511811024,
                    "duration": 0.6000000000000014
                },
                {
                    "name": "C#3",
                    "midi": 49,
                    "time": 57.599999999999994,
                    "velocity": 0.3543307086614173,
                    "duration": 0.8999999999999986
                },
                {
                    "name": "D#3",
                    "midi": 51,
                    "time": 57.89999999999999,
                    "velocity": 0.2204724409448819,
                    "duration": 0.6000000000000014
                },
                {
                    "name": "A#3",
                    "midi": 58,
                    "time": 57.89999999999999,
                    "velocity": 0.2992125984251969,
                    "duration": 0.6000000000000014
                },
                {
                    "name": "C3",
                    "midi": 48,
                    "time": 58.49999999999999,
                    "velocity": 0.4881889763779528,
                    "duration": 0.8999999999999986
                },
                {
                    "name": "D#3",
                    "midi": 51,
                    "time": 58.79999999999999,
                    "velocity": 0.23622047244094488,
                    "duration": 0.6000000000000014
                },
                {
                    "name": "G#3",
                    "midi": 56,
                    "time": 58.79999999999999,
                    "velocity": 0.3228346456692913,
                    "duration": 0.6000000000000014
                },
                {
                    "name": "C3",
                    "midi": 48,
                    "time": 59.39999999999999,
                    "velocity": 0.5590551181102362,
                    "duration": 0.8999999999999986
                },
                {
                    "name": "A3",
                    "midi": 57,
                    "time": 59.69999999999999,
                    "velocity": 0.3464566929133858,
                    "duration": 0.6000000000000014
                },
                {
                    "name": "D3",
                    "midi": 50,
                    "time": 59.69999999999999,
                    "velocity": 0.25984251968503935,
                    "duration": 0.6000000000000014
                },
                {
                    "name": "B2",
                    "midi": 47,
                    "time": 60.29999999999999,
                    "velocity": 0.5669291338582677,
                    "duration": 0.8999999999999986
                },
                {
                    "name": "D3",
                    "midi": 50,
                    "time": 60.59999999999999,
                    "velocity": 0.2440944881889764,
                    "duration": 0.6000000000000014
                },
                {
                    "name": "G3",
                    "midi": 55,
                    "time": 60.59999999999999,
                    "velocity": 0.33070866141732286,
                    "duration": 0.6000000000000014
                },
                {
                    "name": "A#2",
                    "midi": 46,
                    "time": 61.19999999999999,
                    "velocity": 0.5669291338582677,
                    "duration": 0.8999999999999986
                },
                {
                    "name": "C3",
                    "midi": 48,
                    "time": 61.499999999999986,
                    "velocity": 0.2677165354330709,
                    "duration": 0.6000000000000014
                },
                {
                    "name": "G3",
                    "midi": 55,
                    "time": 61.499999999999986,
                    "velocity": 0.3543307086614173,
                    "duration": 0.6000000000000014
                },
                {
                    "name": "G#2",
                    "midi": 44,
                    "time": 62.09999999999999,
                    "velocity": 0.5669291338582677,
                    "duration": 0.8999999999999986
                },
                {
                    "name": "C3",
                    "midi": 48,
                    "time": 62.399999999999984,
                    "velocity": 0.2677165354330709,
                    "duration": 0.6000000000000014
                },
                {
                    "name": "F3",
                    "midi": 53,
                    "time": 62.399999999999984,
                    "velocity": 0.3543307086614173,
                    "duration": 0.6000000000000014
                },
                {
                    "name": "A#2",
                    "midi": 46,
                    "time": 62.999999999999986,
                    "velocity": 0.5590551181102362,
                    "duration": 0.8999999999999986
                },
                {
                    "name": "G#3",
                    "midi": 56,
                    "time": 63.29999999999998,
                    "velocity": 0.3700787401574803,
                    "duration": 0.6000000000000014
                },
                {
                    "name": "F3",
                    "midi": 53,
                    "time": 63.29999999999998,
                    "velocity": 0.2755905511811024,
                    "duration": 0.6000000000000014
                },
                {
                    "name": "D#3",
                    "midi": 51,
                    "time": 63.899999999999984,
                    "velocity": 0.5669291338582677,
                    "duration": 0.8999999999999986
                },
                {
                    "name": "D#4",
                    "midi": 63,
                    "time": 64.19999999999999,
                    "velocity": 0.44881889763779526,
                    "duration": 0.5999999999999943
                },
                {
                    "name": "G#2",
                    "midi": 44,
                    "time": 64.79999999999998,
                    "velocity": 0.5748031496062992,
                    "duration": 0.8999999999999915
                },
                {
                    "name": "G#3",
                    "midi": 56,
                    "time": 65.09999999999998,
                    "velocity": 0.44881889763779526,
                    "duration": 0.5999999999999943
                },
                {
                    "name": "A#2",
                    "midi": 46,
                    "time": 65.69999999999997,
                    "velocity": 0.5669291338582677,
                    "duration": 0.8999999999999915
                },
                {
                    "name": "A#3",
                    "midi": 58,
                    "time": 65.99999999999997,
                    "velocity": 0.4409448818897638,
                    "duration": 0.5999999999999943
                },
                {
                    "name": "D#2",
                    "midi": 39,
                    "time": 66.59999999999997,
                    "velocity": 0.5748031496062992,
                    "duration": 0.8999999999999915
                },
                {
                    "name": "D#3",
                    "midi": 51,
                    "time": 66.89999999999996,
                    "velocity": 0.4251968503937008,
                    "duration": 0.5999999999999943
                },
                {
                    "name": "G#1",
                    "midi": 32,
                    "time": 67.49999999999996,
                    "velocity": 0.5905511811023622,
                    "duration": 0.8999999999999915
                },
                {
                    "name": "G#2",
                    "midi": 44,
                    "time": 67.79999999999995,
                    "velocity": 0.5039370078740157,
                    "duration": 0.5999999999999943
                },
                {
                    "name": "A#1",
                    "midi": 34,
                    "time": 68.39999999999995,
                    "velocity": 0.5984251968503937,
                    "duration": 0.8999999999999915
                },
                {
                    "name": "A#2",
                    "midi": 46,
                    "time": 68.69999999999995,
                    "velocity": 0.44881889763779526,
                    "duration": 0.5999999999999943
                },
                {
                    "name": "D#2",
                    "midi": 39,
                    "time": 69.29999999999994,
                    "velocity": 0.4566929133858268,
                    "duration": 0.29999999999999716
                },
                {
                    "name": "D3",
                    "midi": 50,
                    "time": 69.59999999999994,
                    "velocity": 0.5669291338582677,
                    "duration": 0.5999999999999943
                },
                {
                    "name": "A#2",
                    "midi": 46,
                    "time": 69.59999999999994,
                    "velocity": 0.4251968503937008,
                    "duration": 0.5999999999999943
                },
                {
                    "name": "D#2",
                    "midi": 39,
                    "time": 70.19999999999993,
                    "velocity": 0.4409448818897638,
                    "duration": 0.15000000000000568
                },
                {
                    "name": "D3",
                    "midi": 50,
                    "time": 70.49999999999994,
                    "velocity": 0.6377952755905512,
                    "duration": 0.5999999999999943
                },
                {
                    "name": "A#2",
                    "midi": 46,
                    "time": 70.49999999999994,
                    "velocity": 0.48031496062992124,
                    "duration": 0.5999999999999943
                },
                {
                    "name": "D#2",
                    "midi": 39,
                    "time": 71.09999999999994,
                    "velocity": 0.5039370078740157,
                    "duration": 0.15000000000000568
                },
                {
                    "name": "A#2",
                    "midi": 46,
                    "time": 71.39999999999995,
                    "velocity": 0.48031496062992124,
                    "duration": 0.5999999999999943
                },
                {
                    "name": "D3",
                    "midi": 50,
                    "time": 71.39999999999995,
                    "velocity": 0.6377952755905512,
                    "duration": 0.5999999999999943
                },
                {
                    "name": "D#2",
                    "midi": 39,
                    "time": 71.99999999999994,
                    "velocity": 0.5669291338582677,
                    "duration": 0.09999999999999432
                },
                {
                    "name": "F2",
                    "midi": 41,
                    "time": 72.09999999999994,
                    "velocity": 0.5669291338582677,
                    "duration": 0.09999999999999432
                },
                {
                    "name": "F#2",
                    "midi": 42,
                    "time": 72.19999999999993,
                    "velocity": 0.5669291338582677,
                    "duration": 0.09999999999999432
                },
                {
                    "name": "G#2",
                    "midi": 44,
                    "time": 72.29999999999993,
                    "velocity": 0.5984251968503937,
                    "duration": 0.09999999999999432
                },
                {
                    "name": "A#2",
                    "midi": 46,
                    "time": 72.39999999999992,
                    "velocity": 0.6141732283464567,
                    "duration": 0.09999999999999432
                },
                {
                    "name": "C3",
                    "midi": 48,
                    "time": 72.49999999999991,
                    "velocity": 0.5826771653543307,
                    "duration": 0.09999999999999432
                },
                {
                    "name": "D3",
                    "midi": 50,
                    "time": 72.59999999999991,
                    "velocity": 0.6377952755905512,
                    "duration": 0.09999999999999432
                },
                {
                    "name": "D#3",
                    "midi": 51,
                    "time": 72.6999999999999,
                    "velocity": 0.6456692913385826,
                    "duration": 0.09999999999999432
                },
                {
                    "name": "F3",
                    "midi": 53,
                    "time": 72.7999999999999,
                    "velocity": 0.6220472440944882,
                    "duration": 0.09999999999999432
                },
                {
                    "name": "F#3",
                    "midi": 54,
                    "time": 72.89999999999989,
                    "velocity": 0.6771653543307087,
                    "duration": 0.5999999999999943
                },
                {
                    "name": "F#2",
                    "midi": 42,
                    "time": 73.79999999999988,
                    "velocity": 0.5354330708661418,
                    "duration": 0.5999999999999943
                },
                {
                    "name": "F#3",
                    "midi": 54,
                    "time": 73.79999999999988,
                    "velocity": 0.5354330708661418,
                    "duration": 0.5999999999999943
                },
                {
                    "name": "B1",
                    "midi": 35,
                    "time": 74.69999999999987,
                    "velocity": 0.5118110236220472,
                    "duration": 0.15000000000000568
                },
                {
                    "name": "B2",
                    "midi": 47,
                    "time": 74.99999999999989,
                    "velocity": 0.41732283464566927,
                    "duration": 0.5999999999999943
                },
                {
                    "name": "D3",
                    "midi": 50,
                    "time": 74.99999999999989,
                    "velocity": 0.41732283464566927,
                    "duration": 0.5999999999999943
                },
                {
                    "name": "F#3",
                    "midi": 54,
                    "time": 74.99999999999989,
                    "velocity": 0.4645669291338583,
                    "duration": 0.5999999999999943
                },
                {
                    "name": "B1",
                    "midi": 35,
                    "time": 75.59999999999988,
                    "velocity": 0.5275590551181102,
                    "duration": 0.15000000000000568
                },
                {
                    "name": "B2",
                    "midi": 47,
                    "time": 75.89999999999989,
                    "velocity": 0.4015748031496063,
                    "duration": 0.5999999999999943
                },
                {
                    "name": "C#3",
                    "midi": 49,
                    "time": 75.89999999999989,
                    "velocity": 0.4015748031496063,
                    "duration": 0.5999999999999943
                },
                {
                    "name": "E3",
                    "midi": 52,
                    "time": 75.89999999999989,
                    "velocity": 0.4015748031496063,
                    "duration": 0.5999999999999943
                },
                {
                    "name": "G3",
                    "midi": 55,
                    "time": 75.89999999999989,
                    "velocity": 0.44881889763779526,
                    "duration": 0.5999999999999943
                },
                {
                    "name": "D3",
                    "midi": 50,
                    "time": 76.49999999999989,
                    "velocity": 0.5669291338582677,
                    "duration": 0.30000000000001137
                },
                {
                    "name": "F#3",
                    "midi": 54,
                    "time": 76.64999999999989,
                    "velocity": 0.4094488188976378,
                    "duration": 0.15000000000000568
                },
                {
                    "name": "B3",
                    "midi": 59,
                    "time": 76.64999999999989,
                    "velocity": 0.4566929133858268,
                    "duration": 0.15000000000000568
                },
                {
                    "name": "C#3",
                    "midi": 49,
                    "time": 76.7999999999999,
                    "velocity": 0.6299212598425197,
                    "duration": 0.30000000000001137
                },
                {
                    "name": "F#3",
                    "midi": 54,
                    "time": 76.9499999999999,
                    "velocity": 0.4330708661417323,
                    "duration": 0.15000000000000568
                },
                {
                    "name": "A#3",
                    "midi": 58,
                    "time": 76.9499999999999,
                    "velocity": 0.4881889763779528,
                    "duration": 0.15000000000000568
                },
                {
                    "name": "B2",
                    "midi": 47,
                    "time": 77.09999999999991,
                    "velocity": 0.5669291338582677,
                    "duration": 0.29999999999999716
                },
                {
                    "name": "F#3",
                    "midi": 54,
                    "time": 77.2499999999999,
                    "velocity": 0.4015748031496063,
                    "duration": 0.15000000000000568
                },
                {
                    "name": "B3",
                    "midi": 59,
                    "time": 77.2499999999999,
                    "velocity": 0.44881889763779526,
                    "duration": 0.15000000000000568
                },
                {
                    "name": "F#2",
                    "midi": 42,
                    "time": 77.3999999999999,
                    "velocity": 0.6299212598425197,
                    "duration": 0.29999999999999716
                },
                {
                    "name": "F#3",
                    "midi": 54,
                    "time": 77.6999999999999,
                    "velocity": 0.4015748031496063,
                    "duration": 0.5999999999999943
                },
                {
                    "name": "A#3",
                    "midi": 58,
                    "time": 77.6999999999999,
                    "velocity": 0.44881889763779526,
                    "duration": 0.5999999999999943
                },
                {
                    "name": "F#2",
                    "midi": 42,
                    "time": 78.2999999999999,
                    "velocity": 0.6377952755905512,
                    "duration": 0.29999999999999716
                },
                {
                    "name": "F#3",
                    "midi": 54,
                    "time": 78.5999999999999,
                    "velocity": 0.44881889763779526,
                    "duration": 0.5999999999999943
                },
                {
                    "name": "A#3",
                    "midi": 58,
                    "time": 78.5999999999999,
                    "velocity": 0.44881889763779526,
                    "duration": 0.5999999999999943
                },
                {
                    "name": "C#4",
                    "midi": 61,
                    "time": 78.5999999999999,
                    "velocity": 0.5039370078740157,
                    "duration": 0.5999999999999943
                },
                {
                    "name": "B2",
                    "midi": 47,
                    "time": 79.19999999999989,
                    "velocity": 0.6299212598425197,
                    "duration": 0.29999999999999716
                },
                {
                    "name": "F#3",
                    "midi": 54,
                    "time": 79.49999999999989,
                    "velocity": 0.3937007874015748,
                    "duration": 0.5999999999999943
                },
                {
                    "name": "B3",
                    "midi": 59,
                    "time": 79.49999999999989,
                    "velocity": 0.4409448818897638,
                    "duration": 0.5999999999999943
                },
                {
                    "name": "G2",
                    "midi": 43,
                    "time": 80.09999999999988,
                    "velocity": 0.5669291338582677,
                    "duration": 0.15000000000000568
                },
                {
                    "name": "G3",
                    "midi": 55,
                    "time": 80.24999999999989,
                    "velocity": 0.4409448818897638,
                    "duration": 0.15000000000000568
                },
                {
                    "name": "E2",
                    "midi": 40,
                    "time": 80.39999999999989,
                    "velocity": 0.6220472440944882,
                    "duration": 0.15000000000000568
                },
                {
                    "name": "E3",
                    "midi": 52,
                    "time": 80.5499999999999,
                    "velocity": 0.4645669291338583,
                    "duration": 0.15000000000000568
                },
                {
                    "name": "G2",
                    "midi": 43,
                    "time": 80.6999999999999,
                    "velocity": 0.5669291338582677,
                    "duration": 0.14999999999999147
                },
                {
                    "name": "G3",
                    "midi": 55,
                    "time": 80.8499999999999,
                    "velocity": 0.44881889763779526,
                    "duration": 0.15000000000000568
                },
                {
                    "name": "B2",
                    "midi": 47,
                    "time": 80.9999999999999,
                    "velocity": 0.6220472440944882,
                    "duration": 0.29999999999999716
                },
                {
                    "name": "F#3",
                    "midi": 54,
                    "time": 81.2999999999999,
                    "velocity": 0.44881889763779526,
                    "duration": 0.5999999999999943
                },
                {
                    "name": "B3",
                    "midi": 59,
                    "time": 81.2999999999999,
                    "velocity": 0.5039370078740157,
                    "duration": 0.5999999999999943
                },
                {
                    "name": "B1",
                    "midi": 35,
                    "time": 81.89999999999989,
                    "velocity": 0.3543307086614173,
                    "duration": 0.15000000000000568
                },
                {
                    "name": "B2",
                    "midi": 47,
                    "time": 82.1999999999999,
                    "velocity": 0.2204724409448819,
                    "duration": 0.5999999999999943
                },
                {
                    "name": "D3",
                    "midi": 50,
                    "time": 82.1999999999999,
                    "velocity": 0.2204724409448819,
                    "duration": 0.5999999999999943
                },
                {
                    "name": "F#3",
                    "midi": 54,
                    "time": 82.1999999999999,
                    "velocity": 0.25196850393700787,
                    "duration": 0.5999999999999943
                },
                {
                    "name": "B1",
                    "midi": 35,
                    "time": 82.7999999999999,
                    "velocity": 0.33858267716535434,
                    "duration": 0.14999999999999147
                },
                {
                    "name": "B2",
                    "midi": 47,
                    "time": 83.0999999999999,
                    "velocity": 0.2204724409448819,
                    "duration": 0.5999999999999943
                },
                {
                    "name": "C#3",
                    "midi": 49,
                    "time": 83.0999999999999,
                    "velocity": 0.2204724409448819,
                    "duration": 0.5999999999999943
                },
                {
                    "name": "E3",
                    "midi": 52,
                    "time": 83.0999999999999,
                    "velocity": 0.2204724409448819,
                    "duration": 0.5999999999999943
                },
                {
                    "name": "G3",
                    "midi": 55,
                    "time": 83.0999999999999,
                    "velocity": 0.25196850393700787,
                    "duration": 0.5999999999999943
                },
                {
                    "name": "D3",
                    "midi": 50,
                    "time": 83.69999999999989,
                    "velocity": 0.3543307086614173,
                    "duration": 0.30000000000001137
                },
                {
                    "name": "F#3",
                    "midi": 54,
                    "time": 83.8499999999999,
                    "velocity": 0.28346456692913385,
                    "duration": 0.15000000000000568
                },
                {
                    "name": "B3",
                    "midi": 59,
                    "time": 83.8499999999999,
                    "velocity": 0.31496062992125984,
                    "duration": 0.15000000000000568
                },
                {
                    "name": "C#3",
                    "midi": 49,
                    "time": 83.9999999999999,
                    "velocity": 0.3779527559055118,
                    "duration": 0.29999999999999716
                },
                {
                    "name": "F#3",
                    "midi": 54,
                    "time": 84.14999999999989,
                    "velocity": 0.29133858267716534,
                    "duration": 0.15000000000000568
                },
                {
                    "name": "A#3",
                    "midi": 58,
                    "time": 84.14999999999989,
                    "velocity": 0.33070866141732286,
                    "duration": 0.15000000000000568
                },
                {
                    "name": "B2",
                    "midi": 47,
                    "time": 84.2999999999999,
                    "velocity": 0.3543307086614173,
                    "duration": 0.29999999999999716
                },
                {
                    "name": "F#3",
                    "midi": 54,
                    "time": 84.44999999999989,
                    "velocity": 0.28346456692913385,
                    "duration": 0.15000000000000568
                },
                {
                    "name": "B3",
                    "midi": 59,
                    "time": 84.44999999999989,
                    "velocity": 0.31496062992125984,
                    "duration": 0.15000000000000568
                },
                {
                    "name": "F#2",
                    "midi": 42,
                    "time": 84.5999999999999,
                    "velocity": 0.3464566929133858,
                    "duration": 0.29999999999999716
                },
                {
                    "name": "F#3",
                    "midi": 54,
                    "time": 84.89999999999989,
                    "velocity": 0.2440944881889764,
                    "duration": 0.5999999999999943
                },
                {
                    "name": "A#3",
                    "midi": 58,
                    "time": 84.89999999999989,
                    "velocity": 0.2755905511811024,
                    "duration": 0.5999999999999943
                },
                {
                    "name": "F#2",
                    "midi": 42,
                    "time": 85.49999999999989,
                    "velocity": 0.5826771653543307,
                    "duration": 0.29999999999999716
                },
                {
                    "name": "F#3",
                    "midi": 54,
                    "time": 85.79999999999988,
                    "velocity": 0.44881889763779526,
                    "duration": 0.5999999999999943
                },
                {
                    "name": "A#3",
                    "midi": 58,
                    "time": 85.79999999999988,
                    "velocity": 0.44881889763779526,
                    "duration": 0.5999999999999943
                },
                {
                    "name": "C#4",
                    "midi": 61,
                    "time": 85.79999999999988,
                    "velocity": 0.5039370078740157,
                    "duration": 0.5999999999999943
                },
                {
                    "name": "B2",
                    "midi": 47,
                    "time": 86.39999999999988,
                    "velocity": 0.5748031496062992,
                    "duration": 0.29999999999999716
                },
                {
                    "name": "F#3",
                    "midi": 54,
                    "time": 86.69999999999987,
                    "velocity": 0.4409448818897638,
                    "duration": 0.5999999999999943
                },
                {
                    "name": "B3",
                    "midi": 59,
                    "time": 86.69999999999987,
                    "velocity": 0.49606299212598426,
                    "duration": 0.5999999999999943
                },
                {
                    "name": "D2",
                    "midi": 38,
                    "time": 87.29999999999987,
                    "velocity": 0.5039370078740157,
                    "duration": 0.15000000000000568
                },
                {
                    "name": "D3",
                    "midi": 50,
                    "time": 87.44999999999987,
                    "velocity": 0.44881889763779526,
                    "duration": 0.15000000000000568
                },
                {
                    "name": "B1",
                    "midi": 35,
                    "time": 87.59999999999988,
                    "velocity": 0.5669291338582677,
                    "duration": 0.14999999999999147
                },
                {
                    "name": "B2",
                    "midi": 47,
                    "time": 87.74999999999987,
                    "velocity": 0.47244094488188976,
                    "duration": 0.15000000000000568
                },
                {
                    "name": "D2",
                    "midi": 38,
                    "time": 87.89999999999988,
                    "velocity": 0.5039370078740157,
                    "duration": 0.14999999999999147
                },
                {
                    "name": "D3",
                    "midi": 50,
                    "time": 88.04999999999987,
                    "velocity": 0.44881889763779526,
                    "duration": 0.15000000000000568
                },
                {
                    "name": "C#2",
                    "midi": 37,
                    "time": 88.19999999999987,
                    "velocity": 0.6377952755905512,
                    "duration": 0.29999999999999716
                },
                {
                    "name": "C#3",
                    "midi": 49,
                    "time": 88.49999999999987,
                    "velocity": 0.33858267716535434,
                    "duration": 0.5999999999999943
                },
                {
                    "name": "F3",
                    "midi": 53,
                    "time": 88.49999999999987,
                    "velocity": 0.33858267716535434,
                    "duration": 0.5999999999999943
                },
                {
                    "name": "G#3",
                    "midi": 56,
                    "time": 88.49999999999987,
                    "velocity": 0.3779527559055118,
                    "duration": 0.5999999999999943
                },
                {
                    "name": "F#2",
                    "midi": 42,
                    "time": 89.09999999999987,
                    "velocity": 0.3779527559055118,
                    "duration": 0.14999999999999147
                },
                {
                    "name": "F#3",
                    "midi": 54,
                    "time": 89.39999999999986,
                    "velocity": 0.31496062992125984,
                    "duration": 0.5999999999999943
                },
                {
                    "name": "B1",
                    "midi": 35,
                    "time": 89.99999999999986,
                    "velocity": 0.3779527559055118,
                    "duration": 0.14999999999999147
                },
                {
                    "name": "B2",
                    "midi": 47,
                    "time": 90.29999999999986,
                    "velocity": 0.28346456692913385,
                    "duration": 0.5999999999999943
                },
                {
                    "name": "D3",
                    "midi": 50,
                    "time": 90.29999999999986,
                    "velocity": 0.31496062992125984,
                    "duration": 0.5999999999999943
                },
                {
                    "name": "C#2",
                    "midi": 37,
                    "time": 90.89999999999985,
                    "velocity": 0.3779527559055118,
                    "duration": 0.29999999999999716
                },
                {
                    "name": "F3",
                    "midi": 53,
                    "time": 91.19999999999985,
                    "velocity": 0.31496062992125984,
                    "duration": 0.29999999999999716
                },
                {
                    "name": "C#3",
                    "midi": 49,
                    "time": 91.19999999999985,
                    "velocity": 0.28346456692913385,
                    "duration": 0.29999999999999716
                },
                {
                    "name": "C#2",
                    "midi": 37,
                    "time": 91.49999999999984,
                    "velocity": 0.31496062992125984,
                    "duration": 0.29999999999999716
                },
                {
                    "name": "F#2",
                    "midi": 42,
                    "time": 91.79999999999984,
                    "velocity": 0.31496062992125984,
                    "duration": 0.29999999999999716
                },
                {
                    "name": "A2",
                    "midi": 45,
                    "time": 92.09999999999984,
                    "velocity": 0.2204724409448819,
                    "duration": 0.5999999999999943
                },
                {
                    "name": "C#3",
                    "midi": 49,
                    "time": 92.09999999999984,
                    "velocity": 0.25196850393700787,
                    "duration": 0.5999999999999943
                },
                {
                    "name": "B1",
                    "midi": 35,
                    "time": 92.69999999999983,
                    "velocity": 0.6062992125984252,
                    "duration": 0.29999999999999716
                },
                {
                    "name": "F3",
                    "midi": 53,
                    "time": 92.99999999999983,
                    "velocity": 0.5039370078740157,
                    "duration": 0.5999999999999943
                },
                {
                    "name": "D3",
                    "midi": 50,
                    "time": 92.99999999999983,
                    "velocity": 0.44881889763779526,
                    "duration": 0.5999999999999943
                },
                {
                    "name": "B2",
                    "midi": 47,
                    "time": 92.99999999999983,
                    "velocity": 0.44881889763779526,
                    "duration": 0.5999999999999943
                },
                {
                    "name": "F#1",
                    "midi": 30,
                    "time": 93.59999999999982,
                    "velocity": 0.5039370078740157,
                    "duration": 0.29999999999999716
                },
                {
                    "name": "C#3",
                    "midi": 49,
                    "time": 93.89999999999982,
                    "velocity": 0.33070866141732286,
                    "duration": 0.5999999999999943
                },
                {
                    "name": "A2",
                    "midi": 45,
                    "time": 93.89999999999982,
                    "velocity": 0.29133858267716534,
                    "duration": 0.5999999999999943
                },
                {
                    "name": "C#2",
                    "midi": 37,
                    "time": 94.49999999999982,
                    "velocity": 0.49606299212598426,
                    "duration": 0.29999999999999716
                },
                {
                    "name": "C#3",
                    "midi": 49,
                    "time": 94.79999999999981,
                    "velocity": 0.49606299212598426,
                    "duration": 0.5999999999999943
                },
                {
                    "name": "F#1",
                    "midi": 30,
                    "time": 95.3999999999998,
                    "velocity": 0.5039370078740157,
                    "duration": 0.30000000000001137
                },
                {
                    "name": "C#3",
                    "midi": 49,
                    "time": 95.69999999999982,
                    "velocity": 0.3779527559055118,
                    "duration": 0.5999999999999943
                },
                {
                    "name": "A2",
                    "midi": 45,
                    "time": 95.69999999999982,
                    "velocity": 0.33858267716535434,
                    "duration": 0.5999999999999943
                },
                {
                    "name": "F#2",
                    "midi": 42,
                    "time": 95.69999999999982,
                    "velocity": 0.33858267716535434,
                    "duration": 0.5999999999999943
                },
                {
                    "name": "B1",
                    "midi": 35,
                    "time": 96.29999999999981,
                    "velocity": 0.6614173228346457,
                    "duration": 0.29999999999999716
                },
                {
                    "name": "F3",
                    "midi": 53,
                    "time": 96.59999999999981,
                    "velocity": 0.5669291338582677,
                    "duration": 0.5999999999999943
                },
                {
                    "name": "D3",
                    "midi": 50,
                    "time": 96.59999999999981,
                    "velocity": 0.5039370078740157,
                    "duration": 0.5999999999999943
                },
                {
                    "name": "B2",
                    "midi": 47,
                    "time": 96.59999999999981,
                    "velocity": 0.5039370078740157,
                    "duration": 0.5999999999999943
                },
                {
                    "name": "F#1",
                    "midi": 30,
                    "time": 97.1999999999998,
                    "velocity": 0.5039370078740157,
                    "duration": 0.29999999999999716
                },
                {
                    "name": "C#3",
                    "midi": 49,
                    "time": 97.4999999999998,
                    "velocity": 0.3464566929133858,
                    "duration": 0.5999999999999943
                },
                {
                    "name": "A2",
                    "midi": 45,
                    "time": 97.4999999999998,
                    "velocity": 0.30708661417322836,
                    "duration": 0.5999999999999943
                },
                {
                    "name": "C#2",
                    "midi": 37,
                    "time": 98.0999999999998,
                    "velocity": 0.5039370078740157,
                    "duration": 0.29999999999999716
                },
                {
                    "name": "C#3",
                    "midi": 49,
                    "time": 98.39999999999979,
                    "velocity": 0.5039370078740157,
                    "duration": 0.5999999999999943
                },
                {
                    "name": "F#1",
                    "midi": 30,
                    "time": 98.99999999999979,
                    "velocity": 0.5039370078740157,
                    "duration": 0.29999999999999716
                },
                {
                    "name": "C#3",
                    "midi": 49,
                    "time": 99.29999999999978,
                    "velocity": 0.31496062992125984,
                    "duration": 0.5999999999999943
                },
                {
                    "name": "A2",
                    "midi": 45,
                    "time": 99.29999999999978,
                    "velocity": 0.28346456692913385,
                    "duration": 0.5999999999999943
                },
                {
                    "name": "F#2",
                    "midi": 42,
                    "time": 99.29999999999978,
                    "velocity": 0.28346456692913385,
                    "duration": 0.5999999999999943
                },
                {
                    "name": "F2",
                    "midi": 41,
                    "time": 99.89999999999978,
                    "velocity": 0.6377952755905512,
                    "duration": 0.29999999999999716
                },
                {
                    "name": "F3",
                    "midi": 53,
                    "time": 100.19999999999978,
                    "velocity": 0.44881889763779526,
                    "duration": 0.5999999999999943
                },
                {
                    "name": "G#3",
                    "midi": 56,
                    "time": 100.19999999999978,
                    "velocity": 0.5039370078740157,
                    "duration": 0.5999999999999943
                },
                {
                    "name": "E2",
                    "midi": 40,
                    "time": 100.79999999999977,
                    "velocity": 0.6377952755905512,
                    "duration": 0.29999999999999716
                },
                {
                    "name": "E3",
                    "midi": 52,
                    "time": 101.09999999999977,
                    "velocity": 0.4251968503937008,
                    "duration": 0.5999999999999943
                },
                {
                    "name": "G3",
                    "midi": 55,
                    "time": 101.09999999999977,
                    "velocity": 0.48031496062992124,
                    "duration": 0.5999999999999943
                },
                {
                    "name": "D3",
                    "midi": 50,
                    "time": 101.69999999999976,
                    "velocity": 0.5669291338582677,
                    "duration": 0.30000000000001137
                },
                {
                    "name": "F#3",
                    "midi": 54,
                    "time": 101.84999999999977,
                    "velocity": 0.4015748031496063,
                    "duration": 0.15000000000000568
                },
                {
                    "name": "B3",
                    "midi": 59,
                    "time": 101.84999999999977,
                    "velocity": 0.44881889763779526,
                    "duration": 0.15000000000000568
                },
                {
                    "name": "C#3",
                    "midi": 49,
                    "time": 101.99999999999977,
                    "velocity": 0.5669291338582677,
                    "duration": 0.29999999999999716
                },
                {
                    "name": "F#3",
                    "midi": 54,
                    "time": 102.14999999999976,
                    "velocity": 0.4015748031496063,
                    "duration": 0.15000000000000568
                },
                {
                    "name": "A#3",
                    "midi": 58,
                    "time": 102.14999999999976,
                    "velocity": 0.44881889763779526,
                    "duration": 0.15000000000000568
                },
                {
                    "name": "B2",
                    "midi": 47,
                    "time": 102.29999999999977,
                    "velocity": 0.5669291338582677,
                    "duration": 0.29999999999999716
                },
                {
                    "name": "F#3",
                    "midi": 54,
                    "time": 102.44999999999976,
                    "velocity": 0.4015748031496063,
                    "duration": 0.15000000000000568
                },
                {
                    "name": "B3",
                    "midi": 59,
                    "time": 102.44999999999976,
                    "velocity": 0.44881889763779526,
                    "duration": 0.15000000000000568
                },
                {
                    "name": "F#2",
                    "midi": 42,
                    "time": 102.59999999999977,
                    "velocity": 0.5669291338582677,
                    "duration": 0.29999999999999716
                },
                {
                    "name": "F#3",
                    "midi": 54,
                    "time": 102.89999999999976,
                    "velocity": 0.44881889763779526,
                    "duration": 0.5999999999999943
                },
                {
                    "name": "A#3",
                    "midi": 58,
                    "time": 102.89999999999976,
                    "velocity": 0.5039370078740157,
                    "duration": 0.5999999999999943
                },
                {
                    "name": "A#2",
                    "midi": 46,
                    "time": 103.49999999999976,
                    "velocity": 0.5669291338582677,
                    "duration": 0.29999999999999716
                },
                {
                    "name": "C#4",
                    "midi": 61,
                    "time": 103.79999999999976,
                    "velocity": 0.5039370078740157,
                    "duration": 0.5999999999999943
                },
                {
                    "name": "A#3",
                    "midi": 58,
                    "time": 103.79999999999976,
                    "velocity": 0.44881889763779526,
                    "duration": 0.5999999999999943
                },
                {
                    "name": "A2",
                    "midi": 45,
                    "time": 104.39999999999975,
                    "velocity": 0.6299212598425197,
                    "duration": 0.29999999999999716
                },
                {
                    "name": "C4",
                    "midi": 60,
                    "time": 104.69999999999975,
                    "velocity": 0.4881889763779528,
                    "duration": 0.5999999999999943
                },
                {
                    "name": "A3",
                    "midi": 57,
                    "time": 104.69999999999975,
                    "velocity": 0.4251968503937008,
                    "duration": 0.5999999999999943
                },
                {
                    "name": "G3",
                    "midi": 55,
                    "time": 105.29999999999974,
                    "velocity": 0.6377952755905512,
                    "duration": 0.29999999999999716
                },
                {
                    "name": "E4",
                    "midi": 64,
                    "time": 105.44999999999973,
                    "velocity": 0.5669291338582677,
                    "duration": 0.15000000000000568
                },
                {
                    "name": "B3",
                    "midi": 59,
                    "time": 105.44999999999973,
                    "velocity": 0.5039370078740157,
                    "duration": 0.15000000000000568
                },
                {
                    "name": "F#3",
                    "midi": 54,
                    "time": 105.59999999999974,
                    "velocity": 0.6377952755905512,
                    "duration": 0.29999999999999716
                },
                {
                    "name": "D#4",
                    "midi": 63,
                    "time": 105.74999999999973,
                    "velocity": 0.5669291338582677,
                    "duration": 0.15000000000000568
                },
                {
                    "name": "B3",
                    "midi": 59,
                    "time": 105.74999999999973,
                    "velocity": 0.5039370078740157,
                    "duration": 0.15000000000000568
                },
                {
                    "name": "E3",
                    "midi": 52,
                    "time": 105.89999999999974,
                    "velocity": 0.6377952755905512,
                    "duration": 0.29999999999999716
                },
                {
                    "name": "B3",
                    "midi": 59,
                    "time": 106.04999999999973,
                    "velocity": 0.5039370078740157,
                    "duration": 0.15000000000000568
                },
                {
                    "name": "E4",
                    "midi": 64,
                    "time": 106.04999999999973,
                    "velocity": 0.5669291338582677,
                    "duration": 0.15000000000000568
                },
                {
                    "name": "B2",
                    "midi": 47,
                    "time": 106.19999999999973,
                    "velocity": 0.6377952755905512,
                    "duration": 0.30000000000001137
                },
                {
                    "name": "B3",
                    "midi": 59,
                    "time": 106.49999999999974,
                    "velocity": 0.48031496062992124,
                    "duration": 0.5999999999999943
                },
                {
                    "name": "D4",
                    "midi": 62,
                    "time": 106.49999999999974,
                    "velocity": 0.5354330708661418,
                    "duration": 0.5999999999999943
                },
                {
                    "name": "B1",
                    "midi": 35,
                    "time": 107.09999999999974,
                    "velocity": 0.5669291338582677,
                    "duration": 0.15000000000000568
                },
                {
                    "name": "B2",
                    "midi": 47,
                    "time": 107.24999999999974,
                    "velocity": 0.4566929133858268,
                    "duration": 0.15000000000000568
                },
                {
                    "name": "C#2",
                    "midi": 37,
                    "time": 107.39999999999975,
                    "velocity": 0.5669291338582677,
                    "duration": 0.15000000000000568
                },
                {
                    "name": "C#3",
                    "midi": 49,
                    "time": 107.54999999999976,
                    "velocity": 0.44881889763779526,
                    "duration": 0.15000000000000568
                },
                {
                    "name": "D2",
                    "midi": 38,
                    "time": 107.69999999999976,
                    "velocity": 0.5669291338582677,
                    "duration": 0.14999999999999147
                },
                {
                    "name": "D3",
                    "midi": 50,
                    "time": 107.84999999999975,
                    "velocity": 0.44881889763779526,
                    "duration": 0.15000000000000568
                },
                {
                    "name": "C#2",
                    "midi": 37,
                    "time": 107.99999999999976,
                    "velocity": 0.5669291338582677,
                    "duration": 0.30000000000001137
                },
                {
                    "name": "C#3",
                    "midi": 49,
                    "time": 108.29999999999977,
                    "velocity": 0.41732283464566927,
                    "duration": 0.5999999999999943
                },
                {
                    "name": "F3",
                    "midi": 53,
                    "time": 108.29999999999977,
                    "velocity": 0.41732283464566927,
                    "duration": 0.5999999999999943
                },
                {
                    "name": "G#3",
                    "midi": 56,
                    "time": 108.29999999999977,
                    "velocity": 0.47244094488188976,
                    "duration": 0.5999999999999943
                },
                {
                    "name": "F#1",
                    "midi": 30,
                    "time": 108.89999999999976,
                    "velocity": 0.5669291338582677,
                    "duration": 0.15000000000000568
                },
                {
                    "name": "F#2",
                    "midi": 42,
                    "time": 109.04999999999977,
                    "velocity": 0.44881889763779526,
                    "duration": 0.15000000000000568
                },
                {
                    "name": "G#1",
                    "midi": 32,
                    "time": 109.19999999999978,
                    "velocity": 0.5669291338582677,
                    "duration": 0.14999999999999147
                },
                {
                    "name": "G#2",
                    "midi": 44,
                    "time": 109.34999999999977,
                    "velocity": 0.4409448818897638,
                    "duration": 0.15000000000000568
                },
                {
                    "name": "A1",
                    "midi": 33,
                    "time": 109.49999999999977,
                    "velocity": 0.5669291338582677,
                    "duration": 0.15000000000000568
                },
                {
                    "name": "A2",
                    "midi": 45,
                    "time": 109.64999999999978,
                    "velocity": 0.4409448818897638,
                    "duration": 0.15000000000000568
                },
                {
                    "name": "G#1",
                    "midi": 32,
                    "time": 109.79999999999978,
                    "velocity": 0.5669291338582677,
                    "duration": 0.29999999999999716
                },
                {
                    "name": "D#3",
                    "midi": 51,
                    "time": 110.09999999999978,
                    "velocity": 0.5118110236220472,
                    "duration": 0.5999999999999943
                },
                {
                    "name": "C3",
                    "midi": 48,
                    "time": 110.09999999999978,
                    "velocity": 0.4566929133858268,
                    "duration": 0.5999999999999943
                },
                {
                    "name": "G#2",
                    "midi": 44,
                    "time": 110.09999999999978,
                    "velocity": 0.4566929133858268,
                    "duration": 0.5999999999999943
                },
                {
                    "name": "C#2",
                    "midi": 37,
                    "time": 110.69999999999978,
                    "velocity": 0.3779527559055118,
                    "duration": 0.29999999999999716
                },
                {
                    "name": "F3",
                    "midi": 53,
                    "time": 110.99999999999977,
                    "velocity": 0.3937007874015748,
                    "duration": 0.09999999999999432
                },
                {
                    "name": "C#3",
                    "midi": 49,
                    "time": 110.99999999999977,
                    "velocity": 0.3543307086614173,
                    "duration": 0.5999999999999801
                },
                {
                    "name": "G#3",
                    "midi": 56,
                    "time": 111.09999999999977,
                    "velocity": 0.25196850393700787,
                    "duration": 0.09999999999999432
                },
                {
                    "name": "C#4",
                    "midi": 61,
                    "time": 111.19999999999976,
                    "velocity": 0.25196850393700787,
                    "duration": 0.09999999999999432
                },
                {
                    "name": "F3",
                    "midi": 53,
                    "time": 111.29999999999976,
                    "velocity": 0.25196850393700787,
                    "duration": 0.29999999999999716
                },
                {
                    "name": "A1",
                    "midi": 33,
                    "time": 111.59999999999975,
                    "velocity": 0.3779527559055118,
                    "duration": 0.30000000000001137
                },
                {
                    "name": "F#3",
                    "midi": 54,
                    "time": 111.89999999999976,
                    "velocity": 0.36220472440944884,
                    "duration": 0.09999999999999432
                },
                {
                    "name": "A2",
                    "midi": 45,
                    "time": 111.89999999999976,
                    "velocity": 0.29133858267716534,
                    "duration": 0.5999999999999801
                },
                {
                    "name": "A3",
                    "midi": 57,
                    "time": 111.99999999999976,
                    "velocity": 0.25196850393700787,
                    "duration": 0.09999999999999432
                },
                {
                    "name": "C#4",
                    "midi": 61,
                    "time": 112.09999999999975,
                    "velocity": 0.25196850393700787,
                    "duration": 0.09999999999999432
                },
                {
                    "name": "F#3",
                    "midi": 54,
                    "time": 112.19999999999975,
                    "velocity": 0.25196850393700787,
                    "duration": 0.29999999999999716
                },
                {
                    "name": "G3",
                    "midi": 55,
                    "time": 112.49999999999974,
                    "velocity": 0.5354330708661418,
                    "duration": 0.15000000000000568
                },
                {
                    "name": "B1",
                    "midi": 35,
                    "time": 112.49999999999974,
                    "velocity": 0.5984251968503937,
                    "duration": 0.15000000000000568
                },
                {
                    "name": "B3",
                    "midi": 59,
                    "time": 112.49999999999974,
                    "velocity": 0.5984251968503937,
                    "duration": 0.15000000000000568
                },
                {
                    "name": "B2",
                    "midi": 47,
                    "time": 112.64999999999975,
                    "velocity": 0.47244094488188976,
                    "duration": 0.15000000000000568
                },
                {
                    "name": "D4",
                    "midi": 62,
                    "time": 112.64999999999975,
                    "velocity": 0.47244094488188976,
                    "duration": 0.15000000000000568
                },
                {
                    "name": "F#3",
                    "midi": 54,
                    "time": 112.79999999999976,
                    "velocity": 0.5354330708661418,
                    "duration": 0.15000000000000568
                },
                {
                    "name": "A3",
                    "midi": 57,
                    "time": 112.79999999999976,
                    "velocity": 0.5984251968503937,
                    "duration": 0.15000000000000568
                },
                {
                    "name": "C#2",
                    "midi": 37,
                    "time": 112.79999999999976,
                    "velocity": 0.5984251968503937,
                    "duration": 0.15000000000000568
                },
                {
                    "name": "C#4",
                    "midi": 61,
                    "time": 112.94999999999976,
                    "velocity": 0.47244094488188976,
                    "duration": 0.15000000000000568
                },
                {
                    "name": "C#3",
                    "midi": 49,
                    "time": 112.94999999999976,
                    "velocity": 0.47244094488188976,
                    "duration": 0.15000000000000568
                },
                {
                    "name": "F3",
                    "midi": 53,
                    "time": 113.09999999999977,
                    "velocity": 0.5354330708661418,
                    "duration": 0.15000000000000568
                },
                {
                    "name": "G#3",
                    "midi": 56,
                    "time": 113.09999999999977,
                    "velocity": 0.5984251968503937,
                    "duration": 0.15000000000000568
                },
                {
                    "name": "C#2",
                    "midi": 37,
                    "time": 113.09999999999977,
                    "velocity": 0.5984251968503937,
                    "duration": 0.15000000000000568
                },
                {
                    "name": "C#4",
                    "midi": 61,
                    "time": 113.24999999999977,
                    "velocity": 0.47244094488188976,
                    "duration": 0.15000000000000568
                },
                {
                    "name": "C#3",
                    "midi": 49,
                    "time": 113.24999999999977,
                    "velocity": 0.47244094488188976,
                    "duration": 0.15000000000000568
                },
                {
                    "name": "F#3",
                    "midi": 54,
                    "time": 113.39999999999978,
                    "velocity": 0.5905511811023622,
                    "duration": 0.09999999999999432
                },
                {
                    "name": "F#2",
                    "midi": 42,
                    "time": 113.39999999999978,
                    "velocity": 0.5275590551181102,
                    "duration": 0.29999999999998295
                },
                {
                    "name": "D3",
                    "midi": 50,
                    "time": 113.49999999999977,
                    "velocity": 0.5433070866141733,
                    "duration": 0.09999999999999432
                },
                {
                    "name": "C#3",
                    "midi": 49,
                    "time": 113.59999999999977,
                    "velocity": 0.5826771653543307,
                    "duration": 0.09999999999999432
                },
                {
                    "name": "B2",
                    "midi": 47,
                    "time": 113.69999999999976,
                    "velocity": 0.5905511811023622,
                    "duration": 0.09999999999999432
                },
                {
                    "name": "A2",
                    "midi": 45,
                    "time": 113.79999999999976,
                    "velocity": 0.5433070866141733,
                    "duration": 0.09999999999999432
                },
                {
                    "name": "G#2",
                    "midi": 44,
                    "time": 113.89999999999975,
                    "velocity": 0.5433070866141733,
                    "duration": 0.09999999999999432
                },
                {
                    "name": "F#2",
                    "midi": 42,
                    "time": 113.99999999999974,
                    "velocity": 0.6220472440944882,
                    "duration": 0.15000000000000568
                },
                {
                    "name": "B1",
                    "midi": 35,
                    "time": 114.29999999999976,
                    "velocity": 0.3779527559055118,
                    "duration": 0.29999999999999716
                },
                {
                    "name": "B2",
                    "midi": 47,
                    "time": 114.59999999999975,
                    "velocity": 0.2204724409448819,
                    "duration": 0.5999999999999943
                },
                {
                    "name": "D3",
                    "midi": 50,
                    "time": 114.59999999999975,
                    "velocity": 0.2204724409448819,
                    "duration": 0.5999999999999943
                },
                {
                    "name": "F#3",
                    "midi": 54,
                    "time": 114.59999999999975,
                    "velocity": 0.25196850393700787,
                    "duration": 0.5999999999999943
                },
                {
                    "name": "B1",
                    "midi": 35,
                    "time": 115.19999999999975,
                    "velocity": 0.3779527559055118,
                    "duration": 0.29999999999999716
                },
                {
                    "name": "B2",
                    "midi": 47,
                    "time": 115.49999999999974,
                    "velocity": 0.2204724409448819,
                    "duration": 0.5999999999999943
                },
                {
                    "name": "C#3",
                    "midi": 49,
                    "time": 115.49999999999974,
                    "velocity": 0.2204724409448819,
                    "duration": 0.5999999999999943
                },
                {
                    "name": "E3",
                    "midi": 52,
                    "time": 115.49999999999974,
                    "velocity": 0.2204724409448819,
                    "duration": 0.5999999999999943
                },
                {
                    "name": "G3",
                    "midi": 55,
                    "time": 115.49999999999974,
                    "velocity": 0.25196850393700787,
                    "duration": 0.5999999999999943
                },
                {
                    "name": "D3",
                    "midi": 50,
                    "time": 116.09999999999974,
                    "velocity": 0.3779527559055118,
                    "duration": 0.30000000000001137
                },
                {
                    "name": "F#3",
                    "midi": 54,
                    "time": 116.24999999999974,
                    "velocity": 0.2204724409448819,
                    "duration": 0.15000000000000568
                },
                {
                    "name": "B3",
                    "midi": 59,
                    "time": 116.24999999999974,
                    "velocity": 0.25196850393700787,
                    "duration": 0.15000000000000568
                },
                {
                    "name": "C#3",
                    "midi": 49,
                    "time": 116.39999999999975,
                    "velocity": 0.3779527559055118,
                    "duration": 0.29999999999999716
                },
                {
                    "name": "F#3",
                    "midi": 54,
                    "time": 116.54999999999974,
                    "velocity": 0.2204724409448819,
                    "duration": 0.15000000000000568
                },
                {
                    "name": "A#3",
                    "midi": 58,
                    "time": 116.54999999999974,
                    "velocity": 0.25196850393700787,
                    "duration": 0.15000000000000568
                },
                {
                    "name": "B2",
                    "midi": 47,
                    "time": 116.69999999999975,
                    "velocity": 0.3779527559055118,
                    "duration": 0.29999999999999716
                },
                {
                    "name": "F#3",
                    "midi": 54,
                    "time": 116.84999999999974,
                    "velocity": 0.2204724409448819,
                    "duration": 0.15000000000000568
                },
                {
                    "name": "B3",
                    "midi": 59,
                    "time": 116.84999999999974,
                    "velocity": 0.25196850393700787,
                    "duration": 0.15000000000000568
                },
                {
                    "name": "F#2",
                    "midi": 42,
                    "time": 116.99999999999974,
                    "velocity": 0.3779527559055118,
                    "duration": 0.29999999999999716
                },
                {
                    "name": "F#3",
                    "midi": 54,
                    "time": 117.29999999999974,
                    "velocity": 0.2204724409448819,
                    "duration": 0.5999999999999943
                },
                {
                    "name": "A#3",
                    "midi": 58,
                    "time": 117.29999999999974,
                    "velocity": 0.25196850393700787,
                    "duration": 0.5999999999999943
                },
                {
                    "name": "F#2",
                    "midi": 42,
                    "time": 117.89999999999974,
                    "velocity": 0.3779527559055118,
                    "duration": 0.29999999999999716
                },
                {
                    "name": "F#3",
                    "midi": 54,
                    "time": 118.19999999999973,
                    "velocity": 0.28346456692913385,
                    "duration": 0.5999999999999943
                },
                {
                    "name": "A#3",
                    "midi": 58,
                    "time": 118.19999999999973,
                    "velocity": 0.28346456692913385,
                    "duration": 0.5999999999999943
                },
                {
                    "name": "C#4",
                    "midi": 61,
                    "time": 118.19999999999973,
                    "velocity": 0.31496062992125984,
                    "duration": 0.5999999999999943
                },
                {
                    "name": "B2",
                    "midi": 47,
                    "time": 118.79999999999973,
                    "velocity": 0.3779527559055118,
                    "duration": 0.30000000000001137
                },
                {
                    "name": "F#3",
                    "midi": 54,
                    "time": 119.09999999999974,
                    "velocity": 0.2204724409448819,
                    "duration": 0.5999999999999943
                },
                {
                    "name": "B3",
                    "midi": 59,
                    "time": 119.09999999999974,
                    "velocity": 0.25196850393700787,
                    "duration": 0.5999999999999943
                },
                {
                    "name": "G2",
                    "midi": 43,
                    "time": 119.69999999999973,
                    "velocity": 0.3779527559055118,
                    "duration": 0.15000000000000568
                },
                {
                    "name": "G3",
                    "midi": 55,
                    "time": 119.84999999999974,
                    "velocity": 0.25196850393700787,
                    "duration": 0.15000000000000568
                },
                {
                    "name": "E2",
                    "midi": 40,
                    "time": 119.99999999999974,
                    "velocity": 0.3779527559055118,
                    "duration": 0.14999999999999147
                },
                {
                    "name": "E3",
                    "midi": 52,
                    "time": 120.14999999999974,
                    "velocity": 0.25196850393700787,
                    "duration": 0.15000000000000568
                },
                {
                    "name": "G2",
                    "midi": 43,
                    "time": 120.29999999999974,
                    "velocity": 0.3779527559055118,
                    "duration": 0.15000000000000568
                },
                {
                    "name": "G3",
                    "midi": 55,
                    "time": 120.44999999999975,
                    "velocity": 0.25196850393700787,
                    "duration": 0.15000000000000568
                },
                {
                    "name": "B2",
                    "midi": 47,
                    "time": 120.59999999999975,
                    "velocity": 0.3779527559055118,
                    "duration": 0.29999999999999716
                },
                {
                    "name": "F#3",
                    "midi": 54,
                    "time": 120.89999999999975,
                    "velocity": 0.2204724409448819,
                    "duration": 0.5999999999999943
                },
                {
                    "name": "B3",
                    "midi": 59,
                    "time": 120.89999999999975,
                    "velocity": 0.25196850393700787,
                    "duration": 0.5999999999999943
                },
                {
                    "name": "E2",
                    "midi": 40,
                    "time": 121.49999999999974,
                    "velocity": 0.6377952755905512,
                    "duration": 0.15000000000000568
                },
                {
                    "name": "E3",
                    "midi": 52,
                    "time": 121.79999999999976,
                    "velocity": 0.44881889763779526,
                    "duration": 0.5999999999999943
                },
                {
                    "name": "G3",
                    "midi": 55,
                    "time": 121.79999999999976,
                    "velocity": 0.44881889763779526,
                    "duration": 0.5999999999999943
                },
                {
                    "name": "B3",
                    "midi": 59,
                    "time": 121.79999999999976,
                    "velocity": 0.5039370078740157,
                    "duration": 0.5999999999999943
                },
                {
                    "name": "E2",
                    "midi": 40,
                    "time": 122.39999999999975,
                    "velocity": 0.6377952755905512,
                    "duration": 0.29999999999999716
                },
                {
                    "name": "E3",
                    "midi": 52,
                    "time": 122.69999999999975,
                    "velocity": 0.44881889763779526,
                    "duration": 0.5999999999999943
                },
                {
                    "name": "F#3",
                    "midi": 54,
                    "time": 122.69999999999975,
                    "velocity": 0.44881889763779526,
                    "duration": 0.5999999999999943
                },
                {
                    "name": "A3",
                    "midi": 57,
                    "time": 122.69999999999975,
                    "velocity": 0.44881889763779526,
                    "duration": 0.5999999999999943
                },
                {
                    "name": "C4",
                    "midi": 60,
                    "time": 122.69999999999975,
                    "velocity": 0.5039370078740157,
                    "duration": 0.5999999999999943
                },
                {
                    "name": "G3",
                    "midi": 55,
                    "time": 123.29999999999974,
                    "velocity": 0.5039370078740157,
                    "duration": 0.29999999999999716
                },
                {
                    "name": "B3",
                    "midi": 59,
                    "time": 123.44999999999973,
                    "velocity": 0.4015748031496063,
                    "duration": 0.15000000000000568
                },
                {
                    "name": "E4",
                    "midi": 64,
                    "time": 123.44999999999973,
                    "velocity": 0.44881889763779526,
                    "duration": 0.15000000000000568
                },
                {
                    "name": "F#3",
                    "midi": 54,
                    "time": 123.59999999999974,
                    "velocity": 0.5039370078740157,
                    "duration": 0.29999999999999716
                },
                {
                    "name": "B3",
                    "midi": 59,
                    "time": 123.74999999999973,
                    "velocity": 0.4015748031496063,
                    "duration": 0.15000000000000568
                },
                {
                    "name": "D#4",
                    "midi": 63,
                    "time": 123.74999999999973,
                    "velocity": 0.44881889763779526,
                    "duration": 0.15000000000000568
                },
                {
                    "name": "E3",
                    "midi": 52,
                    "time": 123.89999999999974,
                    "velocity": 0.5039370078740157,
                    "duration": 0.30000000000001137
                },
                {
                    "name": "B3",
                    "midi": 59,
                    "time": 124.04999999999974,
                    "velocity": 0.4015748031496063,
                    "duration": 0.15000000000000568
                },
                {
                    "name": "E4",
                    "midi": 64,
                    "time": 124.04999999999974,
                    "velocity": 0.44881889763779526,
                    "duration": 0.15000000000000568
                },
                {
                    "name": "B2",
                    "midi": 47,
                    "time": 124.19999999999975,
                    "velocity": 0.5039370078740157,
                    "duration": 0.30000000000001137
                },
                {
                    "name": "D#4",
                    "midi": 63,
                    "time": 124.49999999999976,
                    "velocity": 0.4409448818897638,
                    "duration": 0.5999999999999943
                },
                {
                    "name": "B3",
                    "midi": 59,
                    "time": 124.49999999999976,
                    "velocity": 0.3937007874015748,
                    "duration": 0.5999999999999943
                },
                {
                    "name": "B2",
                    "midi": 47,
                    "time": 125.09999999999975,
                    "velocity": 0.6377952755905512,
                    "duration": 0.29999999999999716
                },
                {
                    "name": "B3",
                    "midi": 59,
                    "time": 125.39999999999975,
                    "velocity": 0.44881889763779526,
                    "duration": 0.5999999999999943
                },
                {
                    "name": "D#4",
                    "midi": 63,
                    "time": 125.39999999999975,
                    "velocity": 0.44881889763779526,
                    "duration": 0.5999999999999943
                },
                {
                    "name": "F#4",
                    "midi": 66,
                    "time": 125.39999999999975,
                    "velocity": 0.5039370078740157,
                    "duration": 0.5999999999999943
                },
                {
                    "name": "E3",
                    "midi": 52,
                    "time": 125.99999999999974,
                    "velocity": 0.6377952755905512,
                    "duration": 0.29999999999999716
                },
                {
                    "name": "E4",
                    "midi": 64,
                    "time": 126.29999999999974,
                    "velocity": 0.5039370078740157,
                    "duration": 0.5999999999999943
                },
                {
                    "name": "B3",
                    "midi": 59,
                    "time": 126.29999999999974,
                    "velocity": 0.44881889763779526,
                    "duration": 0.5999999999999943
                },
                {
                    "name": "G2",
                    "midi": 43,
                    "time": 126.89999999999974,
                    "velocity": 0.44881889763779526,
                    "duration": 0.15000000000000568
                },
                {
                    "name": "G3",
                    "midi": 55,
                    "time": 127.04999999999974,
                    "velocity": 0.3543307086614173,
                    "duration": 0.15000000000000568
                },
                {
                    "name": "E2",
                    "midi": 40,
                    "time": 127.19999999999975,
                    "velocity": 0.5039370078740157,
                    "duration": 0.14999999999999147
                },
                {
                    "name": "E3",
                    "midi": 52,
                    "time": 127.34999999999974,
                    "velocity": 0.4251968503937008,
                    "duration": 0.15000000000000568
                },
                {
                    "name": "G2",
                    "midi": 43,
                    "time": 127.49999999999974,
                    "velocity": 0.44881889763779526,
                    "duration": 0.14999999999999147
                },
                {
                    "name": "G3",
                    "midi": 55,
                    "time": 127.64999999999974,
                    "velocity": 0.3543307086614173,
                    "duration": 0.15000000000000568
                },
                {
                    "name": "F#2",
                    "midi": 42,
                    "time": 127.79999999999974,
                    "velocity": 0.5039370078740157,
                    "duration": 0.29999999999999716
                },
                {
                    "name": "F#3",
                    "midi": 54,
                    "time": 128.09999999999974,
                    "velocity": 0.3937007874015748,
                    "duration": 0.5999999999999943
                },
                {
                    "name": "A#3",
                    "midi": 58,
                    "time": 128.09999999999974,
                    "velocity": 0.3937007874015748,
                    "duration": 0.5999999999999943
                },
                {
                    "name": "C#4",
                    "midi": 61,
                    "time": 128.09999999999974,
                    "velocity": 0.4409448818897638,
                    "duration": 0.5999999999999943
                },
                {
                    "name": "B2",
                    "midi": 47,
                    "time": 128.69999999999973,
                    "velocity": 0.3779527559055118,
                    "duration": 0.29999999999998295
                },
                {
                    "name": "F#3",
                    "midi": 54,
                    "time": 128.99999999999972,
                    "velocity": 0.2204724409448819,
                    "duration": 0.5999999999999943
                },
                {
                    "name": "B3",
                    "midi": 59,
                    "time": 128.99999999999972,
                    "velocity": 0.25196850393700787,
                    "duration": 0.5999999999999943
                },
                {
                    "name": "E2",
                    "midi": 40,
                    "time": 129.5999999999997,
                    "velocity": 0.3779527559055118,
                    "duration": 0.29999999999998295
                },
                {
                    "name": "E3",
                    "midi": 52,
                    "time": 129.8999999999997,
                    "velocity": 0.2204724409448819,
                    "duration": 0.5999999999999943
                },
                {
                    "name": "G3",
                    "midi": 55,
                    "time": 129.8999999999997,
                    "velocity": 0.25196850393700787,
                    "duration": 0.5999999999999943
                },
                {
                    "name": "F#2",
                    "midi": 42,
                    "time": 130.4999999999997,
                    "velocity": 0.3779527559055118,
                    "duration": 0.30000000000001137
                },
                {
                    "name": "F#3",
                    "midi": 54,
                    "time": 130.7999999999997,
                    "velocity": 0.2204724409448819,
                    "duration": 0.30000000000001137
                },
                {
                    "name": "A#3",
                    "midi": 58,
                    "time": 130.7999999999997,
                    "velocity": 0.25196850393700787,
                    "duration": 0.30000000000001137
                },
                {
                    "name": "F#2",
                    "midi": 42,
                    "time": 131.0999999999997,
                    "velocity": 0.3779527559055118,
                    "duration": 0.30000000000001137
                },
                {
                    "name": "B1",
                    "midi": 35,
                    "time": 131.39999999999972,
                    "velocity": 0.3779527559055118,
                    "duration": 0.30000000000001137
                },
                {
                    "name": "B2",
                    "midi": 47,
                    "time": 131.69999999999973,
                    "velocity": 0.2204724409448819,
                    "duration": 0.5999999999999943
                },
                {
                    "name": "D3",
                    "midi": 50,
                    "time": 131.69999999999973,
                    "velocity": 0.2204724409448819,
                    "duration": 0.5999999999999943
                },
                {
                    "name": "F#3",
                    "midi": 54,
                    "time": 131.69999999999973,
                    "velocity": 0.25196850393700787,
                    "duration": 0.5999999999999943
                },
                {
                    "name": "E2",
                    "midi": 40,
                    "time": 132.29999999999973,
                    "velocity": 0.5748031496062992,
                    "duration": 0.15000000000000568
                },
                {
                    "name": "E3",
                    "midi": 52,
                    "time": 132.59999999999974,
                    "velocity": 0.47244094488188976,
                    "duration": 0.5999999999999943
                },
                {
                    "name": "G3",
                    "midi": 55,
                    "time": 132.59999999999974,
                    "velocity": 0.47244094488188976,
                    "duration": 0.5999999999999943
                },
                {
                    "name": "A#3",
                    "midi": 58,
                    "time": 132.59999999999974,
                    "velocity": 0.5275590551181102,
                    "duration": 0.5999999999999943
                },
                {
                    "name": "B1",
                    "midi": 35,
                    "time": 133.19999999999973,
                    "velocity": 0.3779527559055118,
                    "duration": 0.30000000000001137
                },
                {
                    "name": "D3",
                    "midi": 50,
                    "time": 133.49999999999974,
                    "velocity": 0.2204724409448819,
                    "duration": 0.5999999999999943
                },
                {
                    "name": "F#3",
                    "midi": 54,
                    "time": 133.49999999999974,
                    "velocity": 0.25196850393700787,
                    "duration": 0.5999999999999943
                },
                {
                    "name": "F#2",
                    "midi": 42,
                    "time": 134.09999999999974,
                    "velocity": 0.3779527559055118,
                    "duration": 0.30000000000001137
                },
                {
                    "name": "F#3",
                    "midi": 54,
                    "time": 134.39999999999975,
                    "velocity": 0.3779527559055118,
                    "duration": 0.5999999999999943
                },
                {
                    "name": "B1",
                    "midi": 35,
                    "time": 134.99999999999974,
                    "velocity": 0.3779527559055118,
                    "duration": 0.29999999999998295
                },
                {
                    "name": "B2",
                    "midi": 47,
                    "time": 135.29999999999973,
                    "velocity": 0.2204724409448819,
                    "duration": 0.5999999999999943
                },
                {
                    "name": "D3",
                    "midi": 50,
                    "time": 135.29999999999973,
                    "velocity": 0.2204724409448819,
                    "duration": 0.5999999999999943
                },
                {
                    "name": "F#3",
                    "midi": 54,
                    "time": 135.29999999999973,
                    "velocity": 0.25196850393700787,
                    "duration": 0.5999999999999943
                },
                {
                    "name": "E2",
                    "midi": 40,
                    "time": 135.89999999999972,
                    "velocity": 0.5590551181102362,
                    "duration": 0.14999999999997726
                },
                {
                    "name": "A#3",
                    "midi": 58,
                    "time": 136.1999999999997,
                    "velocity": 0.5039370078740157,
                    "duration": 0.5999999999999943
                },
                {
                    "name": "G3",
                    "midi": 55,
                    "time": 136.1999999999997,
                    "velocity": 0.44881889763779526,
                    "duration": 0.5999999999999943
                },
                {
                    "name": "E3",
                    "midi": 52,
                    "time": 136.1999999999997,
                    "velocity": 0.44881889763779526,
                    "duration": 0.5999999999999943
                },
                {
                    "name": "B1",
                    "midi": 35,
                    "time": 136.7999999999997,
                    "velocity": 0.3779527559055118,
                    "duration": 0.30000000000001137
                },
                {
                    "name": "D3",
                    "midi": 50,
                    "time": 137.0999999999997,
                    "velocity": 0.2204724409448819,
                    "duration": 0.5999999999999943
                },
                {
                    "name": "F#3",
                    "midi": 54,
                    "time": 137.0999999999997,
                    "velocity": 0.25196850393700787,
                    "duration": 0.5999999999999943
                },
                {
                    "name": "F#2",
                    "midi": 42,
                    "time": 137.6999999999997,
                    "velocity": 0.3779527559055118,
                    "duration": 0.29999999999998295
                },
                {
                    "name": "F#3",
                    "midi": 54,
                    "time": 137.9999999999997,
                    "velocity": 0.3700787401574803,
                    "duration": 0.5999999999999943
                },
                {
                    "name": "B1",
                    "midi": 35,
                    "time": 138.59999999999968,
                    "velocity": 0.3779527559055118,
                    "duration": 0.30000000000001137
                },
                {
                    "name": "B2",
                    "midi": 47,
                    "time": 138.8999999999997,
                    "velocity": 0.2204724409448819,
                    "duration": 0.5999999999999943
                },
                {
                    "name": "D3",
                    "midi": 50,
                    "time": 138.8999999999997,
                    "velocity": 0.2204724409448819,
                    "duration": 0.5999999999999943
                },
                {
                    "name": "F#3",
                    "midi": 54,
                    "time": 138.8999999999997,
                    "velocity": 0.25196850393700787,
                    "duration": 0.5999999999999943
                },
                {
                    "name": "B1",
                    "midi": 35,
                    "time": 139.4999999999997,
                    "velocity": 0.6377952755905512,
                    "duration": 0.30000000000001137
                },
                {
                    "name": "B2",
                    "midi": 47,
                    "time": 139.7999999999997,
                    "velocity": 0.4251968503937008,
                    "duration": 0.5999999999999943
                },
                {
                    "name": "D3",
                    "midi": 50,
                    "time": 139.7999999999997,
                    "velocity": 0.4251968503937008,
                    "duration": 0.5999999999999943
                },
                {
                    "name": "F#3",
                    "midi": 54,
                    "time": 139.7999999999997,
                    "velocity": 0.47244094488188976,
                    "duration": 0.5999999999999943
                },
                {
                    "name": "B1",
                    "midi": 35,
                    "time": 140.3999999999997,
                    "velocity": 0.6377952755905512,
                    "duration": 0.30000000000001137
                },
                {
                    "name": "B2",
                    "midi": 47,
                    "time": 140.6999999999997,
                    "velocity": 0.4251968503937008,
                    "duration": 0.5999999999999943
                },
                {
                    "name": "D3",
                    "midi": 50,
                    "time": 140.6999999999997,
                    "velocity": 0.4251968503937008,
                    "duration": 0.5999999999999943
                },
                {
                    "name": "F#3",
                    "midi": 54,
                    "time": 140.6999999999997,
                    "velocity": 0.47244094488188976,
                    "duration": 0.5999999999999943
                },
                {
                    "name": "B1",
                    "midi": 35,
                    "time": 141.2999999999997,
                    "velocity": 0.5748031496062992,
                    "duration": 0.30000000000001137
                },
                {
                    "name": "B2",
                    "midi": 47,
                    "time": 141.5999999999997,
                    "velocity": 0.4251968503937008,
                    "duration": 0.30000000000001137
                },
                {
                    "name": "D3",
                    "midi": 50,
                    "time": 141.5999999999997,
                    "velocity": 0.4251968503937008,
                    "duration": 0.30000000000001137
                },
                {
                    "name": "F#3",
                    "midi": 54,
                    "time": 141.5999999999997,
                    "velocity": 0.47244094488188976,
                    "duration": 0.30000000000001137
                },
                {
                    "name": "B1",
                    "midi": 35,
                    "time": 141.89999999999972,
                    "velocity": 0.5748031496062992,
                    "duration": 0.29999999999998295
                },
                {
                    "name": "B2",
                    "midi": 47,
                    "time": 142.1999999999997,
                    "velocity": 0.4251968503937008,
                    "duration": 0.30000000000001137
                },
                {
                    "name": "D3",
                    "midi": 50,
                    "time": 142.1999999999997,
                    "velocity": 0.4251968503937008,
                    "duration": 0.30000000000001137
                },
                {
                    "name": "F#3",
                    "midi": 54,
                    "time": 142.1999999999997,
                    "velocity": 0.47244094488188976,
                    "duration": 0.30000000000001137
                },
                {
                    "name": "B1",
                    "midi": 35,
                    "time": 142.49999999999972,
                    "velocity": 0.5826771653543307,
                    "duration": 0.29999999999998295
                },
                {
                    "name": "B2",
                    "midi": 47,
                    "time": 142.7999999999997,
                    "velocity": 0.4251968503937008,
                    "duration": 0.30000000000001137
                },
                {
                    "name": "D3",
                    "midi": 50,
                    "time": 142.7999999999997,
                    "velocity": 0.4251968503937008,
                    "duration": 0.30000000000001137
                },
                {
                    "name": "F#3",
                    "midi": 54,
                    "time": 142.7999999999997,
                    "velocity": 0.47244094488188976,
                    "duration": 0.30000000000001137
                },
                {
                    "name": "A#1",
                    "midi": 34,
                    "time": 143.0999999999997,
                    "velocity": 0.5669291338582677,
                    "duration": 0.29999999999998295
                },
                {
                    "name": "A#2",
                    "midi": 46,
                    "time": 143.3999999999997,
                    "velocity": 0.4251968503937008,
                    "duration": 0.5999999999999943
                },
                {
                    "name": "D#3",
                    "midi": 51,
                    "time": 143.3999999999997,
                    "velocity": 0.4251968503937008,
                    "duration": 0.5999999999999943
                },
                {
                    "name": "F#3",
                    "midi": 54,
                    "time": 143.3999999999997,
                    "velocity": 0.47244094488188976,
                    "duration": 0.5999999999999943
                },
                {
                    "name": "A#1",
                    "midi": 34,
                    "time": 143.9999999999997,
                    "velocity": 0.6377952755905512,
                    "duration": 0.29999999999998295
                },
                {
                    "name": "A#2",
                    "midi": 46,
                    "time": 144.29999999999967,
                    "velocity": 0.4251968503937008,
                    "duration": 0.5999999999999943
                },
                {
                    "name": "D#3",
                    "midi": 51,
                    "time": 144.29999999999967,
                    "velocity": 0.4251968503937008,
                    "duration": 0.5999999999999943
                },
                {
                    "name": "F#3",
                    "midi": 54,
                    "time": 144.29999999999967,
                    "velocity": 0.47244094488188976,
                    "duration": 0.5999999999999943
                },
                {
                    "name": "A#1",
                    "midi": 34,
                    "time": 144.89999999999966,
                    "velocity": 0.6535433070866141,
                    "duration": 0.29999999999998295
                },
                {
                    "name": "A#2",
                    "midi": 46,
                    "time": 145.19999999999965,
                    "velocity": 0.4566929133858268,
                    "duration": 0.30000000000001137
                },
                {
                    "name": "D#3",
                    "midi": 51,
                    "time": 145.19999999999965,
                    "velocity": 0.4566929133858268,
                    "duration": 0.30000000000001137
                },
                {
                    "name": "F#3",
                    "midi": 54,
                    "time": 145.19999999999965,
                    "velocity": 0.5118110236220472,
                    "duration": 0.30000000000001137
                },
                {
                    "name": "A#1",
                    "midi": 34,
                    "time": 145.49999999999966,
                    "velocity": 0.6771653543307087,
                    "duration": 0.29999999999998295
                },
                {
                    "name": "A#2",
                    "midi": 46,
                    "time": 145.79999999999964,
                    "velocity": 0.47244094488188976,
                    "duration": 0.30000000000001137
                },
                {
                    "name": "D#3",
                    "midi": 51,
                    "time": 145.79999999999964,
                    "velocity": 0.47244094488188976,
                    "duration": 0.30000000000001137
                },
                {
                    "name": "F#3",
                    "midi": 54,
                    "time": 145.79999999999964,
                    "velocity": 0.5275590551181102,
                    "duration": 0.30000000000001137
                },
                {
                    "name": "A#1",
                    "midi": 34,
                    "time": 146.09999999999965,
                    "velocity": 0.6850393700787402,
                    "duration": 0.30000000000001137
                },
                {
                    "name": "A#2",
                    "midi": 46,
                    "time": 146.39999999999966,
                    "velocity": 0.48031496062992124,
                    "duration": 0.30000000000001137
                },
                {
                    "name": "D#3",
                    "midi": 51,
                    "time": 146.39999999999966,
                    "velocity": 0.48031496062992124,
                    "duration": 0.30000000000001137
                },
                {
                    "name": "F#3",
                    "midi": 54,
                    "time": 146.39999999999966,
                    "velocity": 0.5354330708661418,
                    "duration": 0.30000000000001137
                },
                {
                    "name": "G#1",
                    "midi": 32,
                    "time": 146.69999999999968,
                    "velocity": 0.5905511811023622,
                    "duration": 0.30000000000001137
                },
                {
                    "name": "G#2",
                    "midi": 44,
                    "time": 146.69999999999968,
                    "velocity": 0.7007874015748031,
                    "duration": 0.30000000000001137
                },
                {
                    "name": "F3",
                    "midi": 53,
                    "time": 146.9999999999997,
                    "velocity": 0.6299212598425197,
                    "duration": 0.5999999999999943
                },
                {
                    "name": "D#3",
                    "midi": 51,
                    "time": 146.9999999999997,
                    "velocity": 0.5669291338582677,
                    "duration": 0.5999999999999943
                },
                {
                    "name": "B2",
                    "midi": 47,
                    "time": 146.9999999999997,
                    "velocity": 0.5669291338582677,
                    "duration": 0.5999999999999943
                },
                {
                    "name": "G#2",
                    "midi": 44,
                    "time": 146.9999999999997,
                    "velocity": 0.5669291338582677,
                    "duration": 0.5999999999999943
                },
                {
                    "name": "B2",
                    "midi": 47,
                    "time": 147.59999999999968,
                    "velocity": 0.49606299212598426,
                    "duration": 0.5999999999999943
                },
                {
                    "name": "F#3",
                    "midi": 54,
                    "time": 147.59999999999968,
                    "velocity": 0.5590551181102362,
                    "duration": 0.5999999999999943
                },
                {
                    "name": "D#3",
                    "midi": 51,
                    "time": 147.59999999999968,
                    "velocity": 0.49606299212598426,
                    "duration": 0.5999999999999943
                },
                {
                    "name": "G#2",
                    "midi": 44,
                    "time": 147.59999999999968,
                    "velocity": 0.49606299212598426,
                    "duration": 0.5999999999999943
                },
                {
                    "name": "F#3",
                    "midi": 54,
                    "time": 148.19999999999968,
                    "velocity": 0.5984251968503937,
                    "duration": 0.30000000000001137
                },
                {
                    "name": "D#3",
                    "midi": 51,
                    "time": 148.19999999999968,
                    "velocity": 0.5354330708661418,
                    "duration": 0.30000000000001137
                },
                {
                    "name": "B2",
                    "midi": 47,
                    "time": 148.19999999999968,
                    "velocity": 0.5354330708661418,
                    "duration": 0.30000000000001137
                },
                {
                    "name": "G#2",
                    "midi": 44,
                    "time": 148.19999999999968,
                    "velocity": 0.5354330708661418,
                    "duration": 0.30000000000001137
                },
                {
                    "name": "B3",
                    "midi": 59,
                    "time": 148.4999999999997,
                    "velocity": 0.5984251968503937,
                    "duration": 1.8000000000000114
                },
                {
                    "name": "G#3",
                    "midi": 56,
                    "time": 148.4999999999997,
                    "velocity": 0.5354330708661418,
                    "duration": 1.8000000000000114
                },
                {
                    "name": "F3",
                    "midi": 53,
                    "time": 148.4999999999997,
                    "velocity": 0.5354330708661418,
                    "duration": 1.8000000000000114
                },
                {
                    "name": "A#2",
                    "midi": 46,
                    "time": 148.4999999999997,
                    "velocity": 0.5354330708661418,
                    "duration": 1.8000000000000114
                },
                {
                    "name": "A#3",
                    "midi": 58,
                    "time": 150.2999999999997,
                    "velocity": 0.3937007874015748,
                    "duration": 1.8000000000000114
                },
                {
                    "name": "G#3",
                    "midi": 56,
                    "time": 150.2999999999997,
                    "velocity": 0.3543307086614173,
                    "duration": 1.8000000000000114
                },
                {
                    "name": "F3",
                    "midi": 53,
                    "time": 150.2999999999997,
                    "velocity": 0.3543307086614173,
                    "duration": 1.8000000000000114
                },
                {
                    "name": "A#2",
                    "midi": 46,
                    "time": 150.2999999999997,
                    "velocity": 0.3543307086614173,
                    "duration": 1.8000000000000114
                },
                {
                    "name": "D#3",
                    "midi": 51,
                    "time": 152.0999999999997,
                    "velocity": 0.25196850393700787,
                    "duration": 0.9000000000000057
                },
                {
                    "name": "A#3",
                    "midi": 58,
                    "time": 152.39999999999972,
                    "velocity": 0.18110236220472442,
                    "duration": 0.5999999999999943
                },
                {
                    "name": "F3",
                    "midi": 53,
                    "time": 152.99999999999972,
                    "velocity": 0.28346456692913385,
                    "duration": 0.9000000000000057
                },
                {
                    "name": "A#3",
                    "midi": 58,
                    "time": 153.29999999999973,
                    "velocity": 0.2125984251968504,
                    "duration": 0.296875
                },
                {
                    "name": "G3",
                    "midi": 55,
                    "time": 153.89999999999972,
                    "velocity": 0.3228346456692913,
                    "duration": 0.9000000000000057
                },
                {
                    "name": "A#3",
                    "midi": 58,
                    "time": 154.19999999999973,
                    "velocity": 0.2283464566929134,
                    "duration": 0.5999999999999943
                },
                {
                    "name": "D3",
                    "midi": 50,
                    "time": 154.79999999999973,
                    "velocity": 0.3543307086614173,
                    "duration": 0.9000000000000057
                },
                {
                    "name": "A#3",
                    "midi": 58,
                    "time": 155.09999999999974,
                    "velocity": 0.2440944881889764,
                    "duration": 0.5999999999999943
                },
                {
                    "name": "D#3",
                    "midi": 51,
                    "time": 155.69999999999973,
                    "velocity": 0.33070866141732286,
                    "duration": 0.9000000000000057
                },
                {
                    "name": "A#3",
                    "midi": 58,
                    "time": 155.99999999999974,
                    "velocity": 0.2440944881889764,
                    "duration": 0.5999999999999943
                },
                {
                    "name": "G#2",
                    "midi": 44,
                    "time": 156.59999999999974,
                    "velocity": 0.3228346456692913,
                    "duration": 0.30000000000001137
                },
                {
                    "name": "C4",
                    "midi": 60,
                    "time": 156.89999999999975,
                    "velocity": 0.2283464566929134,
                    "duration": 0.5999999999999943
                },
                {
                    "name": "G#3",
                    "midi": 56,
                    "time": 156.89999999999975,
                    "velocity": 0.2047244094488189,
                    "duration": 0.5999999999999943
                },
                {
                    "name": "A#2",
                    "midi": 46,
                    "time": 157.49999999999974,
                    "velocity": 0.31496062992125984,
                    "duration": 0.30000000000001137
                },
                {
                    "name": "G#3",
                    "midi": 56,
                    "time": 157.79999999999976,
                    "velocity": 0.2125984251968504,
                    "duration": 0.5999999999999943
                },
                {
                    "name": "D4",
                    "midi": 62,
                    "time": 157.79999999999976,
                    "velocity": 0.23622047244094488,
                    "duration": 0.5999999999999943
                },
                {
                    "name": "A#3",
                    "midi": 58,
                    "time": 157.79999999999976,
                    "velocity": 0.2125984251968504,
                    "duration": 0.5999999999999943
                },
                {
                    "name": "D#3",
                    "midi": 51,
                    "time": 158.39999999999975,
                    "velocity": 0.3543307086614173,
                    "duration": 0.30000000000001137
                },
                {
                    "name": "D#4",
                    "midi": 63,
                    "time": 158.69999999999976,
                    "velocity": 0.23622047244094488,
                    "duration": 0.5999999999999943
                },
                {
                    "name": "A#3",
                    "midi": 58,
                    "time": 158.69999999999976,
                    "velocity": 0.2125984251968504,
                    "duration": 0.5999999999999943
                },
                {
                    "name": "G3",
                    "midi": 55,
                    "time": 158.69999999999976,
                    "velocity": 0.2125984251968504,
                    "duration": 0.5999999999999943
                },
                {
                    "name": "D#3",
                    "midi": 51,
                    "time": 159.29999999999976,
                    "velocity": 0.3779527559055118,
                    "duration": 0.9000000000000057
                },
                {
                    "name": "A#3",
                    "midi": 58,
                    "time": 159.59999999999977,
                    "velocity": 0.3228346456692913,
                    "duration": 0.5999999999999943
                },
                {
                    "name": "F3",
                    "midi": 53,
                    "time": 160.19999999999976,
                    "velocity": 0.4094488188976378,
                    "duration": 0.9000000000000057
                },
                {
                    "name": "A#3",
                    "midi": 58,
                    "time": 160.49999999999977,
                    "velocity": 0.31496062992125984,
                    "duration": 0.296875
                },
                {
                    "name": "G3",
                    "midi": 55,
                    "time": 161.09999999999977,
                    "velocity": 0.4409448818897638,
                    "duration": 0.9000000000000057
                },
                {
                    "name": "A#3",
                    "midi": 58,
                    "time": 161.39999999999978,
                    "velocity": 0.3543307086614173,
                    "duration": 0.5999999999999943
                },
                {
                    "name": "D3",
                    "midi": 50,
                    "time": 161.99999999999977,
                    "velocity": 0.4409448818897638,
                    "duration": 0.9000000000000057
                },
                {
                    "name": "A#3",
                    "midi": 58,
                    "time": 162.29999999999978,
                    "velocity": 0.33070866141732286,
                    "duration": 0.5999999999999943
                },
                {
                    "name": "D#3",
                    "midi": 51,
                    "time": 162.89999999999978,
                    "velocity": 0.4015748031496063,
                    "duration": 0.9000000000000057
                },
                {
                    "name": "A#3",
                    "midi": 58,
                    "time": 163.1999999999998,
                    "velocity": 0.31496062992125984,
                    "duration": 0.5999999999999943
                },
                {
                    "name": "G#2",
                    "midi": 44,
                    "time": 163.79999999999978,
                    "velocity": 0.47244094488188976,
                    "duration": 0.30000000000001137
                },
                {
                    "name": "C4",
                    "midi": 60,
                    "time": 164.0999999999998,
                    "velocity": 0.3700787401574803,
                    "duration": 0.5999999999999943
                },
                {
                    "name": "G#3",
                    "midi": 56,
                    "time": 164.0999999999998,
                    "velocity": 0.33070866141732286,
                    "duration": 0.5999999999999943
                },
                {
                    "name": "A#2",
                    "midi": 46,
                    "time": 164.6999999999998,
                    "velocity": 0.4645669291338583,
                    "duration": 0.30000000000001137
                },
                {
                    "name": "G#3",
                    "midi": 56,
                    "time": 164.9999999999998,
                    "velocity": 0.31496062992125984,
                    "duration": 0.5999999999999943
                },
                {
                    "name": "D4",
                    "midi": 62,
                    "time": 164.9999999999998,
                    "velocity": 0.3543307086614173,
                    "duration": 0.5999999999999943
                },
                {
                    "name": "A#3",
                    "midi": 58,
                    "time": 164.9999999999998,
                    "velocity": 0.31496062992125984,
                    "duration": 0.5999999999999943
                },
                {
                    "name": "D#3",
                    "midi": 51,
                    "time": 165.5999999999998,
                    "velocity": 0.47244094488188976,
                    "duration": 0.30000000000001137
                },
                {
                    "name": "D#4",
                    "midi": 63,
                    "time": 165.8999999999998,
                    "velocity": 0.36220472440944884,
                    "duration": 0.5999999999999943
                },
                {
                    "name": "A#3",
                    "midi": 58,
                    "time": 165.8999999999998,
                    "velocity": 0.3228346456692913,
                    "duration": 0.5999999999999943
                },
                {
                    "name": "G3",
                    "midi": 55,
                    "time": 165.8999999999998,
                    "velocity": 0.3228346456692913,
                    "duration": 0.5999999999999943
                },
                {
                    "name": "D#3",
                    "midi": 51,
                    "time": 166.4999999999998,
                    "velocity": 0.4566929133858268,
                    "duration": 0.9000000000000057
                },
                {
                    "name": "A#3",
                    "midi": 58,
                    "time": 166.7999999999998,
                    "velocity": 0.36220472440944884,
                    "duration": 0.5999999999999943
                },
                {
                    "name": "F3",
                    "midi": 53,
                    "time": 167.3999999999998,
                    "velocity": 0.4409448818897638,
                    "duration": 0.9000000000000057
                },
                {
                    "name": "A#3",
                    "midi": 58,
                    "time": 167.69999999999982,
                    "velocity": 0.3543307086614173,
                    "duration": 0.5999999999999943
                },
                {
                    "name": "G3",
                    "midi": 55,
                    "time": 168.2999999999998,
                    "velocity": 0.4409448818897638,
                    "duration": 0.9000000000000057
                },
                {
                    "name": "A#3",
                    "midi": 58,
                    "time": 168.59999999999982,
                    "velocity": 0.3543307086614173,
                    "duration": 0.5999999999999943
                },
                {
                    "name": "D3",
                    "midi": 50,
                    "time": 169.19999999999982,
                    "velocity": 0.5511811023622047,
                    "duration": 0.9000000000000057
                },
                {
                    "name": "A#3",
                    "midi": 58,
                    "time": 169.49999999999983,
                    "velocity": 0.4251968503937008,
                    "duration": 0.5999999999999943
                },
                {
                    "name": "D#3",
                    "midi": 51,
                    "time": 170.09999999999982,
                    "velocity": 0.4251968503937008,
                    "duration": 0.9000000000000057
                },
                {
                    "name": "A#3",
                    "midi": 58,
                    "time": 170.39999999999984,
                    "velocity": 0.36220472440944884,
                    "duration": 0.5999999999999943
                },
                {
                    "name": "G#2",
                    "midi": 44,
                    "time": 170.99999999999983,
                    "velocity": 0.3700787401574803,
                    "duration": 0.30000000000001137
                },
                {
                    "name": "C4",
                    "midi": 60,
                    "time": 171.29999999999984,
                    "velocity": 0.3228346456692913,
                    "duration": 0.5999999999999943
                },
                {
                    "name": "G#3",
                    "midi": 56,
                    "time": 171.29999999999984,
                    "velocity": 0.28346456692913385,
                    "duration": 0.5999999999999943
                },
                {
                    "name": "A#2",
                    "midi": 46,
                    "time": 171.89999999999984,
                    "velocity": 0.3700787401574803,
                    "duration": 0.30000000000001137
                },
                {
                    "name": "G#3",
                    "midi": 56,
                    "time": 172.19999999999985,
                    "velocity": 0.28346456692913385,
                    "duration": 0.5999999999999943
                },
                {
                    "name": "D4",
                    "midi": 62,
                    "time": 172.19999999999985,
                    "velocity": 0.31496062992125984,
                    "duration": 0.5999999999999943
                },
                {
                    "name": "A#3",
                    "midi": 58,
                    "time": 172.19999999999985,
                    "velocity": 0.28346456692913385,
                    "duration": 0.5999999999999943
                },
                {
                    "name": "D#3",
                    "midi": 51,
                    "time": 172.79999999999984,
                    "velocity": 0.31496062992125984,
                    "duration": 0.30000000000001137
                },
                {
                    "name": "D#4",
                    "midi": 63,
                    "time": 173.09999999999985,
                    "velocity": 0.2755905511811024,
                    "duration": 0.5999999999999943
                },
                {
                    "name": "A#3",
                    "midi": 58,
                    "time": 173.09999999999985,
                    "velocity": 0.2440944881889764,
                    "duration": 0.5999999999999943
                },
                {
                    "name": "G3",
                    "midi": 55,
                    "time": 173.09999999999985,
                    "velocity": 0.2440944881889764,
                    "duration": 0.5999999999999943
                },
                {
                    "name": "D#2",
                    "midi": 39,
                    "time": 173.69999999999985,
                    "velocity": 0.3464566929133858,
                    "duration": 0.9000000000000057
                },
                {
                    "name": "D#3",
                    "midi": 51,
                    "time": 173.99999999999986,
                    "velocity": 0.25196850393700787,
                    "duration": 0.5999999999999943
                },
                {
                    "name": "G#2",
                    "midi": 44,
                    "time": 174.59999999999985,
                    "velocity": 0.33070866141732286,
                    "duration": 0.8999999999999773
                },
                {
                    "name": "G#3",
                    "midi": 56,
                    "time": 174.89999999999984,
                    "velocity": 0.25196850393700787,
                    "duration": 0.5999999999999943
                },
                {
                    "name": "C#2",
                    "midi": 37,
                    "time": 175.49999999999983,
                    "velocity": 0.3464566929133858,
                    "duration": 0.9000000000000057
                },
                {
                    "name": "C#3",
                    "midi": 49,
                    "time": 175.79999999999984,
                    "velocity": 0.25196850393700787,
                    "duration": 0.5999999999999943
                },
                {
                    "name": "F#2",
                    "midi": 42,
                    "time": 176.39999999999984,
                    "velocity": 0.33858267716535434,
                    "duration": 0.8999999999999773
                },
                {
                    "name": "F#3",
                    "midi": 54,
                    "time": 176.69999999999985,
                    "velocity": 0.25196850393700787,
                    "duration": 0.5999999999999659
                },
                {
                    "name": "B1",
                    "midi": 35,
                    "time": 177.2999999999998,
                    "velocity": 0.3464566929133858,
                    "duration": 0.8999999999999773
                },
                {
                    "name": "B2",
                    "midi": 47,
                    "time": 177.5999999999998,
                    "velocity": 0.25196850393700787,
                    "duration": 0.5999999999999943
                },
                {
                    "name": "F2",
                    "midi": 41,
                    "time": 178.1999999999998,
                    "velocity": 0.33070866141732286,
                    "duration": 0.9000000000000057
                },
                {
                    "name": "F3",
                    "midi": 53,
                    "time": 178.4999999999998,
                    "velocity": 0.25196850393700787,
                    "duration": 0.5999999999999943
                },
                {
                    "name": "A#1",
                    "midi": 34,
                    "time": 179.0999999999998,
                    "velocity": 0.3464566929133858,
                    "duration": 0.8999999999999773
                },
                {
                    "name": "A#2",
                    "midi": 46,
                    "time": 179.39999999999978,
                    "velocity": 0.25196850393700787,
                    "duration": 0.5999999999999943
                },
                {
                    "name": "D#2",
                    "midi": 39,
                    "time": 179.99999999999977,
                    "velocity": 0.33858267716535434,
                    "duration": 0.8999999999999488
                },
                {
                    "name": "D#3",
                    "midi": 51,
                    "time": 180.29999999999976,
                    "velocity": 0.25196850393700787,
                    "duration": 0.5999999999999659
                },
                {
                    "name": "G#2",
                    "midi": 44,
                    "time": 180.89999999999972,
                    "velocity": 0.33858267716535434,
                    "duration": 0.8999999999999773
                },
                {
                    "name": "G#3",
                    "midi": 56,
                    "time": 181.1999999999997,
                    "velocity": 0.25196850393700787,
                    "duration": 0.5999999999999943
                },
                {
                    "name": "A#2",
                    "midi": 46,
                    "time": 181.7999999999997,
                    "velocity": 0.3228346456692913,
                    "duration": 0.9000000000000057
                },
                {
                    "name": "A#3",
                    "midi": 58,
                    "time": 182.0999999999997,
                    "velocity": 0.3228346456692913,
                    "duration": 1.4999999999999716
                },
                {
                    "name": "D#3",
                    "midi": 51,
                    "time": 182.6999999999997,
                    "velocity": 0.31496062992125984,
                    "duration": 0.8999999999999773
                },
                {
                    "name": "F#2",
                    "midi": 42,
                    "time": 183.59999999999968,
                    "velocity": 0.3228346456692913,
                    "duration": 0.9000000000000057
                },
                {
                    "name": "C#3",
                    "midi": 49,
                    "time": 183.8999999999997,
                    "velocity": 0.25984251968503935,
                    "duration": 0.5999999999999943
                },
                {
                    "name": "G#2",
                    "midi": 44,
                    "time": 184.4999999999997,
                    "velocity": 0.30708661417322836,
                    "duration": 0.9000000000000341
                },
                {
                    "name": "D3",
                    "midi": 50,
                    "time": 184.7999999999997,
                    "velocity": 0.41732283464566927,
                    "duration": 0.30000000000001137
                },
                {
                    "name": "C#3",
                    "midi": 49,
                    "time": 185.0999999999997,
                    "velocity": 0.25984251968503935,
                    "duration": 0.30000000000001137
                },
                {
                    "name": "F#2",
                    "midi": 42,
                    "time": 185.39999999999972,
                    "velocity": 0.30708661417322836,
                    "duration": 0.9000000000000057
                },
                {
                    "name": "C#3",
                    "midi": 49,
                    "time": 185.69999999999973,
                    "velocity": 0.25984251968503935,
                    "duration": 0.5999999999999943
                },
                {
                    "name": "G#2",
                    "midi": 44,
                    "time": 186.29999999999973,
                    "velocity": 0.31496062992125984,
                    "duration": 0.8999999999999773
                },
                {
                    "name": "D3",
                    "midi": 50,
                    "time": 186.5999999999997,
                    "velocity": 0.4330708661417323,
                    "duration": 0.29999999999998295
                },
                {
                    "name": "C#3",
                    "midi": 49,
                    "time": 186.8999999999997,
                    "velocity": 0.25984251968503935,
                    "duration": 0.30000000000001137
                },
                {
                    "name": "A#2",
                    "midi": 46,
                    "time": 187.1999999999997,
                    "velocity": 0.30708661417322836,
                    "duration": 0.9000000000000057
                },
                {
                    "name": "F#3",
                    "midi": 54,
                    "time": 187.49999999999972,
                    "velocity": 0.33858267716535434,
                    "duration": 0.8999999999999773
                },
                {
                    "name": "B2",
                    "midi": 47,
                    "time": 188.0999999999997,
                    "velocity": 0.31496062992125984,
                    "duration": 0.9000000000000057
                },
                {
                    "name": "G#3",
                    "midi": 56,
                    "time": 188.3999999999997,
                    "velocity": 0.33858267716535434,
                    "duration": 0.9000000000000057
                },
                {
                    "name": "C#3",
                    "midi": 49,
                    "time": 188.99999999999972,
                    "velocity": 0.33858267716535434,
                    "duration": 0.8999999999999773
                },
                {
                    "name": "B3",
                    "midi": 59,
                    "time": 189.2999999999997,
                    "velocity": 0.29133858267716534,
                    "duration": 0.5999999999999943
                },
                {
                    "name": "A#3",
                    "midi": 58,
                    "time": 189.8999999999997,
                    "velocity": 0.33858267716535434,
                    "duration": 0.5999999999999943
                },
                {
                    "name": "F#3",
                    "midi": 54,
                    "time": 189.8999999999997,
                    "velocity": 0.2992125984251969,
                    "duration": 0.5999999999999943
                },
                {
                    "name": "A#2",
                    "midi": 46,
                    "time": 190.7999999999997,
                    "velocity": 0.33858267716535434,
                    "duration": 0.9000000000000057
                },
                {
                    "name": "B3",
                    "midi": 59,
                    "time": 191.0999999999997,
                    "velocity": 0.25984251968503935,
                    "duration": 0.5999999999999943
                },
                {
                    "name": "G#3",
                    "midi": 56,
                    "time": 191.0999999999997,
                    "velocity": 0.2283464566929134,
                    "duration": 0.5999999999999943
                },
                {
                    "name": "F3",
                    "midi": 53,
                    "time": 191.0999999999997,
                    "velocity": 0.2283464566929134,
                    "duration": 0.5999999999999943
                },
                {
                    "name": "A#2",
                    "midi": 46,
                    "time": 191.6999999999997,
                    "velocity": 0.33858267716535434,
                    "duration": 0.9000000000000057
                },
                {
                    "name": "B3",
                    "midi": 59,
                    "time": 191.99999999999972,
                    "velocity": 0.25196850393700787,
                    "duration": 0.5999999999999943
                },
                {
                    "name": "G#3",
                    "midi": 56,
                    "time": 191.99999999999972,
                    "velocity": 0.2204724409448819,
                    "duration": 0.5999999999999943
                },
                {
                    "name": "F3",
                    "midi": 53,
                    "time": 191.99999999999972,
                    "velocity": 0.2204724409448819,
                    "duration": 0.5999999999999943
                },
                {
                    "name": "A#2",
                    "midi": 46,
                    "time": 192.5999999999997,
                    "velocity": 0.33858267716535434,
                    "duration": 1.8000000000000114
                },
                {
                    "name": "F3",
                    "midi": 53,
                    "time": 192.89999999999972,
                    "velocity": 0.2204724409448819,
                    "duration": 1.5
                },
                {
                    "name": "G#3",
                    "midi": 56,
                    "time": 192.89999999999972,
                    "velocity": 0.2204724409448819,
                    "duration": 1.5
                },
                {
                    "name": "B3",
                    "midi": 59,
                    "time": 192.89999999999972,
                    "velocity": 0.25196850393700787,
                    "duration": 1.5
                },
                {
                    "name": "A#3",
                    "midi": 58,
                    "time": 194.39999999999972,
                    "velocity": 0.33858267716535434,
                    "duration": 0.9000000000000057
                },
                {
                    "name": "B4",
                    "midi": 71,
                    "time": 194.69999999999973,
                    "velocity": 0.25196850393700787,
                    "duration": 0.5999999999999943
                },
                {
                    "name": "G#4",
                    "midi": 68,
                    "time": 194.69999999999973,
                    "velocity": 0.2204724409448819,
                    "duration": 0.5999999999999943
                },
                {
                    "name": "F4",
                    "midi": 65,
                    "time": 194.69999999999973,
                    "velocity": 0.2204724409448819,
                    "duration": 0.5999999999999943
                },
                {
                    "name": "A#3",
                    "midi": 58,
                    "time": 195.29999999999973,
                    "velocity": 0.33858267716535434,
                    "duration": 2.6999999999999886
                },
                {
                    "name": "B4",
                    "midi": 71,
                    "time": 195.59999999999974,
                    "velocity": 0.25196850393700787,
                    "duration": 1.5
                },
                {
                    "name": "G#4",
                    "midi": 68,
                    "time": 195.59999999999974,
                    "velocity": 0.2204724409448819,
                    "duration": 2.3999999999999773
                },
                {
                    "name": "F4",
                    "midi": 65,
                    "time": 195.59999999999974,
                    "velocity": 0.2204724409448819,
                    "duration": 2.3999999999999773
                },
                {
                    "name": "A#4",
                    "midi": 70,
                    "time": 197.09999999999974,
                    "velocity": 0.33858267716535434,
                    "duration": 0.8999999999999773
                },
                {
                    "name": "D#3",
                    "midi": 51,
                    "time": 197.99999999999972,
                    "velocity": 0.3228346456692913,
                    "duration": 0.8999999999999773
                },
                {
                    "name": "A#3",
                    "midi": 58,
                    "time": 198.2999999999997,
                    "velocity": 0.23622047244094488,
                    "duration": 0.5999999999999943
                },
                {
                    "name": "F3",
                    "midi": 53,
                    "time": 198.8999999999997,
                    "velocity": 0.3228346456692913,
                    "duration": 0.9000000000000057
                },
                {
                    "name": "A#3",
                    "midi": 58,
                    "time": 199.1999999999997,
                    "velocity": 0.25196850393700787,
                    "duration": 0.296875
                },
                {
                    "name": "G3",
                    "midi": 55,
                    "time": 199.7999999999997,
                    "velocity": 0.3228346456692913,
                    "duration": 0.9000000000000057
                },
                {
                    "name": "A#3",
                    "midi": 58,
                    "time": 200.0999999999997,
                    "velocity": 0.25196850393700787,
                    "duration": 0.5999999999999943
                },
                {
                    "name": "D3",
                    "midi": 50,
                    "time": 200.6999999999997,
                    "velocity": 0.3228346456692913,
                    "duration": 0.9000000000000057
                },
                {
                    "name": "A#3",
                    "midi": 58,
                    "time": 200.99999999999972,
                    "velocity": 0.25196850393700787,
                    "duration": 0.5999999999999943
                },
                {
                    "name": "D#3",
                    "midi": 51,
                    "time": 201.5999999999997,
                    "velocity": 0.31496062992125984,
                    "duration": 0.9000000000000057
                },
                {
                    "name": "A#3",
                    "midi": 58,
                    "time": 201.89999999999972,
                    "velocity": 0.2440944881889764,
                    "duration": 0.5999999999999943
                },
                {
                    "name": "G#2",
                    "midi": 44,
                    "time": 202.49999999999972,
                    "velocity": 0.3228346456692913,
                    "duration": 0.30000000000001137
                },
                {
                    "name": "C4",
                    "midi": 60,
                    "time": 202.79999999999973,
                    "velocity": 0.25196850393700787,
                    "duration": 0.5999999999999943
                },
                {
                    "name": "G#3",
                    "midi": 56,
                    "time": 202.79999999999973,
                    "velocity": 0.2204724409448819,
                    "duration": 0.5999999999999943
                },
                {
                    "name": "A#2",
                    "midi": 46,
                    "time": 203.39999999999972,
                    "velocity": 0.3228346456692913,
                    "duration": 0.30000000000001137
                },
                {
                    "name": "G#3",
                    "midi": 56,
                    "time": 203.69999999999973,
                    "velocity": 0.2204724409448819,
                    "duration": 0.5999999999999943
                },
                {
                    "name": "F4",
                    "midi": 65,
                    "time": 203.69999999999973,
                    "velocity": 0.25196850393700787,
                    "duration": 0.5999999999999943
                },
                {
                    "name": "A#3",
                    "midi": 58,
                    "time": 203.69999999999973,
                    "velocity": 0.2204724409448819,
                    "duration": 0.5999999999999943
                },
                {
                    "name": "D#3",
                    "midi": 51,
                    "time": 204.29999999999973,
                    "velocity": 0.3543307086614173,
                    "duration": 0.30000000000001137
                },
                {
                    "name": "D#4",
                    "midi": 63,
                    "time": 204.59999999999974,
                    "velocity": 0.28346456692913385,
                    "duration": 0.5999999999999943
                },
                {
                    "name": "A#3",
                    "midi": 58,
                    "time": 204.59999999999974,
                    "velocity": 0.25196850393700787,
                    "duration": 0.5999999999999943
                },
                {
                    "name": "G3",
                    "midi": 55,
                    "time": 204.59999999999974,
                    "velocity": 0.25196850393700787,
                    "duration": 0.5999999999999943
                },
                {
                    "name": "D#3",
                    "midi": 51,
                    "time": 205.19999999999973,
                    "velocity": 0.3464566929133858,
                    "duration": 0.9000000000000057
                },
                {
                    "name": "A#3",
                    "midi": 58,
                    "time": 205.49999999999974,
                    "velocity": 0.2755905511811024,
                    "duration": 0.5999999999999943
                },
                {
                    "name": "F3",
                    "midi": 53,
                    "time": 206.09999999999974,
                    "velocity": 0.33070866141732286,
                    "duration": 0.9000000000000057
                },
                {
                    "name": "A#3",
                    "midi": 58,
                    "time": 206.39999999999975,
                    "velocity": 0.2677165354330709,
                    "duration": 0.5999999999999943
                },
                {
                    "name": "G3",
                    "midi": 55,
                    "time": 206.99999999999974,
                    "velocity": 0.31496062992125984,
                    "duration": 0.9000000000000057
                },
                {
                    "name": "A#3",
                    "midi": 58,
                    "time": 207.29999999999976,
                    "velocity": 0.25196850393700787,
                    "duration": 0.5999999999999943
                },
                {
                    "name": "D3",
                    "midi": 50,
                    "time": 207.89999999999975,
                    "velocity": 0.3779527559055118,
                    "duration": 0.9000000000000057
                },
                {
                    "name": "A#3",
                    "midi": 58,
                    "time": 208.19999999999976,
                    "velocity": 0.31496062992125984,
                    "duration": 0.5999999999999943
                },
                {
                    "name": "C#3",
                    "midi": 49,
                    "time": 208.79999999999976,
                    "velocity": 0.3700787401574803,
                    "duration": 0.9000000000000057
                },
                {
                    "name": "D#3",
                    "midi": 51,
                    "time": 209.09999999999977,
                    "velocity": 0.2677165354330709,
                    "duration": 0.5999999999999943
                },
                {
                    "name": "A#3",
                    "midi": 58,
                    "time": 209.09999999999977,
                    "velocity": 0.2992125984251969,
                    "duration": 0.5999999999999943
                },
                {
                    "name": "C3",
                    "midi": 48,
                    "time": 209.69999999999976,
                    "velocity": 0.4409448818897638,
                    "duration": 0.9000000000000057
                },
                {
                    "name": "D#3",
                    "midi": 51,
                    "time": 209.99999999999977,
                    "velocity": 0.25196850393700787,
                    "duration": 0.5999999999999943
                },
                {
                    "name": "G#3",
                    "midi": 56,
                    "time": 209.99999999999977,
                    "velocity": 0.28346456692913385,
                    "duration": 0.5999999999999943
                },
                {
                    "name": "C3",
                    "midi": 48,
                    "time": 210.59999999999977,
                    "velocity": 0.47244094488188976,
                    "duration": 0.9000000000000057
                },
                {
                    "name": "D3",
                    "midi": 50,
                    "time": 210.89999999999978,
                    "velocity": 0.25984251968503935,
                    "duration": 0.5999999999999943
                },
                {
                    "name": "A3",
                    "midi": 57,
                    "time": 210.89999999999978,
                    "velocity": 0.29133858267716534,
                    "duration": 0.5999999999999943
                },
                {
                    "name": "B2",
                    "midi": 47,
                    "time": 211.49999999999977,
                    "velocity": 0.49606299212598426,
                    "duration": 0.9000000000000057
                },
                {
                    "name": "D3",
                    "midi": 50,
                    "time": 211.79999999999978,
                    "velocity": 0.28346456692913385,
                    "duration": 0.5999999999999943
                },
                {
                    "name": "G3",
                    "midi": 55,
                    "time": 211.79999999999978,
                    "velocity": 0.3228346456692913,
                    "duration": 0.5999999999999943
                },
                {
                    "name": "A#2",
                    "midi": 46,
                    "time": 212.39999999999978,
                    "velocity": 0.5039370078740157,
                    "duration": 0.9000000000000057
                },
                {
                    "name": "C3",
                    "midi": 48,
                    "time": 212.6999999999998,
                    "velocity": 0.2992125984251969,
                    "duration": 0.5999999999999943
                },
                {
                    "name": "G3",
                    "midi": 55,
                    "time": 212.6999999999998,
                    "velocity": 0.33858267716535434,
                    "duration": 0.5999999999999943
                },
                {
                    "name": "G#2",
                    "midi": 44,
                    "time": 213.29999999999978,
                    "velocity": 0.5354330708661418,
                    "duration": 0.9000000000000057
                },
                {
                    "name": "C3",
                    "midi": 48,
                    "time": 213.5999999999998,
                    "velocity": 0.29133858267716534,
                    "duration": 0.5999999999999943
                },
                {
                    "name": "F3",
                    "midi": 53,
                    "time": 213.5999999999998,
                    "velocity": 0.33070866141732286,
                    "duration": 0.5999999999999943
                },
                {
                    "name": "A#2",
                    "midi": 46,
                    "time": 214.1999999999998,
                    "velocity": 0.5354330708661418,
                    "duration": 0.9000000000000057
                },
                {
                    "name": "G#3",
                    "midi": 56,
                    "time": 214.4999999999998,
                    "velocity": 0.31496062992125984,
                    "duration": 0.5999999999999943
                },
                {
                    "name": "F3",
                    "midi": 53,
                    "time": 214.4999999999998,
                    "velocity": 0.28346456692913385,
                    "duration": 0.5999999999999943
                },
                {
                    "name": "D#3",
                    "midi": 51,
                    "time": 215.0999999999998,
                    "velocity": 0.5669291338582677,
                    "duration": 0.9000000000000057
                },
                {
                    "name": "D#4",
                    "midi": 63,
                    "time": 215.3999999999998,
                    "velocity": 0.4409448818897638,
                    "duration": 0.5999999999999943
                },
                {
                    "name": "G#2",
                    "midi": 44,
                    "time": 215.9999999999998,
                    "velocity": 0.5669291338582677,
                    "duration": 0.9000000000000057
                },
                {
                    "name": "G#3",
                    "midi": 56,
                    "time": 216.2999999999998,
                    "velocity": 0.4409448818897638,
                    "duration": 0.5999999999999943
                },
                {
                    "name": "A#2",
                    "midi": 46,
                    "time": 216.8999999999998,
                    "velocity": 0.5669291338582677,
                    "duration": 0.9000000000000057
                },
                {
                    "name": "A#3",
                    "midi": 58,
                    "time": 217.19999999999982,
                    "velocity": 0.4409448818897638,
                    "duration": 0.5999999999999943
                },
                {
                    "name": "D#2",
                    "midi": 39,
                    "time": 217.7999999999998,
                    "velocity": 0.5669291338582677,
                    "duration": 0.9000000000000057
                },
                {
                    "name": "D#3",
                    "midi": 51,
                    "time": 218.09999999999982,
                    "velocity": 0.41732283464566927,
                    "duration": 0.5999999999999943
                },
                {
                    "name": "G#1",
                    "midi": 32,
                    "time": 218.69999999999982,
                    "velocity": 0.6220472440944882,
                    "duration": 0.9000000000000057
                },
                {
                    "name": "G#2",
                    "midi": 44,
                    "time": 218.99999999999983,
                    "velocity": 0.44881889763779526,
                    "duration": 0.5999999999999943
                },
                {
                    "name": "A#1",
                    "midi": 34,
                    "time": 219.59999999999982,
                    "velocity": 0.5984251968503937,
                    "duration": 0.9000000000000057
                },
                {
                    "name": "A#2",
                    "midi": 46,
                    "time": 219.89999999999984,
                    "velocity": 0.44881889763779526,
                    "duration": 0.5999999999999943
                },
                {
                    "name": "D#2",
                    "midi": 39,
                    "time": 220.49999999999983,
                    "velocity": 0.5039370078740157,
                    "duration": 0.30000000000001137
                },
                {
                    "name": "A#2",
                    "midi": 46,
                    "time": 220.79999999999984,
                    "velocity": 0.5669291338582677,
                    "duration": 0.5999999999999943
                },
                {
                    "name": "D3",
                    "midi": 50,
                    "time": 220.79999999999984,
                    "velocity": 0.6377952755905512,
                    "duration": 0.5999999999999943
                },
                {
                    "name": "D#2",
                    "midi": 39,
                    "time": 221.39999999999984,
                    "velocity": 0.5039370078740157,
                    "duration": 0.15000000000000568
                },
                {
                    "name": "A#2",
                    "midi": 46,
                    "time": 221.69999999999985,
                    "velocity": 0.5669291338582677,
                    "duration": 0.5999999999999943
                },
                {
                    "name": "D3",
                    "midi": 50,
                    "time": 221.69999999999985,
                    "velocity": 0.6377952755905512,
                    "duration": 0.5999999999999943
                },
                {
                    "name": "D#2",
                    "midi": 39,
                    "time": 222.29999999999984,
                    "velocity": 0.5039370078740157,
                    "duration": 0.15000000000000568
                },
                {
                    "name": "A#2",
                    "midi": 46,
                    "time": 222.59999999999985,
                    "velocity": 0.5669291338582677,
                    "duration": 0.5999999999999943
                },
                {
                    "name": "D3",
                    "midi": 50,
                    "time": 222.59999999999985,
                    "velocity": 0.6377952755905512,
                    "duration": 0.5999999999999943
                },
                {
                    "name": "D#2",
                    "midi": 39,
                    "time": 223.19999999999985,
                    "velocity": 0.5669291338582677,
                    "duration": 0.09999999999999432
                },
                {
                    "name": "F2",
                    "midi": 41,
                    "time": 223.29999999999984,
                    "velocity": 0.5669291338582677,
                    "duration": 0.09999999999999432
                },
                {
                    "name": "F#2",
                    "midi": 42,
                    "time": 223.39999999999984,
                    "velocity": 0.5826771653543307,
                    "duration": 0.09999999999999432
                },
                {
                    "name": "G#2",
                    "midi": 44,
                    "time": 223.49999999999983,
                    "velocity": 0.5984251968503937,
                    "duration": 0.09999999999999432
                },
                {
                    "name": "A#2",
                    "midi": 46,
                    "time": 223.59999999999982,
                    "velocity": 0.6141732283464567,
                    "duration": 0.09999999999999432
                },
                {
                    "name": "C3",
                    "midi": 48,
                    "time": 223.69999999999982,
                    "velocity": 0.6299212598425197,
                    "duration": 0.09999999999999432
                },
                {
                    "name": "D3",
                    "midi": 50,
                    "time": 223.7999999999998,
                    "velocity": 0.6377952755905512,
                    "duration": 0.09999999999999432
                },
                {
                    "name": "D#3",
                    "midi": 51,
                    "time": 223.8999999999998,
                    "velocity": 0.6456692913385826,
                    "duration": 0.09999999999999432
                },
                {
                    "name": "F3",
                    "midi": 53,
                    "time": 223.9999999999998,
                    "velocity": 0.6614173228346457,
                    "duration": 0.09999999999999432
                },
                {
                    "name": "F#3",
                    "midi": 54,
                    "time": 224.0999999999998,
                    "velocity": 0.6771653543307087,
                    "duration": 0.5999999999999943
                },
                {
                    "name": "F#2",
                    "midi": 42,
                    "time": 224.9999999999998,
                    "velocity": 0.5748031496062992,
                    "duration": 0.5999999999999943
                },
                {
                    "name": "F#3",
                    "midi": 54,
                    "time": 224.9999999999998,
                    "velocity": 0.6456692913385826,
                    "duration": 0.5999999999999943
                },
                {
                    "name": "B1",
                    "midi": 35,
                    "time": 225.8999999999998,
                    "velocity": 0.5118110236220472,
                    "duration": 0.15000000000000568
                },
                {
                    "name": "B2",
                    "midi": 47,
                    "time": 226.19999999999982,
                    "velocity": 0.4645669291338583,
                    "duration": 0.5999999999999943
                },
                {
                    "name": "D3",
                    "midi": 50,
                    "time": 226.19999999999982,
                    "velocity": 0.4645669291338583,
                    "duration": 0.5999999999999943
                },
                {
                    "name": "F#3",
                    "midi": 54,
                    "time": 226.19999999999982,
                    "velocity": 0.5196850393700787,
                    "duration": 0.5999999999999943
                },
                {
                    "name": "B1",
                    "midi": 35,
                    "time": 226.7999999999998,
                    "velocity": 0.5275590551181102,
                    "duration": 0.1500000000000341
                },
                {
                    "name": "B2",
                    "midi": 47,
                    "time": 227.09999999999985,
                    "velocity": 0.44881889763779526,
                    "duration": 0.5999999999999943
                },
                {
                    "name": "C#3",
                    "midi": 49,
                    "time": 227.09999999999985,
                    "velocity": 0.44881889763779526,
                    "duration": 0.5999999999999943
                },
                {
                    "name": "E3",
                    "midi": 52,
                    "time": 227.09999999999985,
                    "velocity": 0.44881889763779526,
                    "duration": 0.5999999999999943
                },
                {
                    "name": "G3",
                    "midi": 55,
                    "time": 227.09999999999985,
                    "velocity": 0.5039370078740157,
                    "duration": 0.5999999999999943
                },
                {
                    "name": "D3",
                    "midi": 50,
                    "time": 227.69999999999985,
                    "velocity": 0.5669291338582677,
                    "duration": 0.30000000000001137
                },
                {
                    "name": "F#3",
                    "midi": 54,
                    "time": 227.84999999999985,
                    "velocity": 0.4566929133858268,
                    "duration": 0.15000000000000568
                },
                {
                    "name": "B3",
                    "midi": 59,
                    "time": 227.84999999999985,
                    "velocity": 0.5118110236220472,
                    "duration": 0.15000000000000568
                },
                {
                    "name": "C#3",
                    "midi": 49,
                    "time": 227.99999999999986,
                    "velocity": 0.6299212598425197,
                    "duration": 0.30000000000001137
                },
                {
                    "name": "F#3",
                    "midi": 54,
                    "time": 228.14999999999986,
                    "velocity": 0.4881889763779528,
                    "duration": 0.15000000000000568
                },
                {
                    "name": "A#3",
                    "midi": 58,
                    "time": 228.14999999999986,
                    "velocity": 0.5433070866141733,
                    "duration": 0.15000000000000568
                },
                {
                    "name": "B2",
                    "midi": 47,
                    "time": 228.29999999999987,
                    "velocity": 0.5669291338582677,
                    "duration": 0.30000000000001137
                },
                {
                    "name": "F#3",
                    "midi": 54,
                    "time": 228.44999999999987,
                    "velocity": 0.44881889763779526,
                    "duration": 0.15000000000000568
                },
                {
                    "name": "B3",
                    "midi": 59,
                    "time": 228.44999999999987,
                    "velocity": 0.5039370078740157,
                    "duration": 0.15000000000000568
                },
                {
                    "name": "F#2",
                    "midi": 42,
                    "time": 228.59999999999988,
                    "velocity": 0.5669291338582677,
                    "duration": 0.30000000000001137
                },
                {
                    "name": "F#3",
                    "midi": 54,
                    "time": 228.8999999999999,
                    "velocity": 0.44881889763779526,
                    "duration": 0.5999999999999943
                },
                {
                    "name": "A#3",
                    "midi": 58,
                    "time": 228.8999999999999,
                    "velocity": 0.5039370078740157,
                    "duration": 0.5999999999999943
                },
                {
                    "name": "A#2",
                    "midi": 46,
                    "time": 229.4999999999999,
                    "velocity": 0.6299212598425197,
                    "duration": 0.29999999999998295
                },
                {
                    "name": "G#3",
                    "midi": 56,
                    "time": 229.79999999999987,
                    "velocity": 0.44881889763779526,
                    "duration": 0.5999999999999943
                },
                {
                    "name": "F3",
                    "midi": 53,
                    "time": 229.79999999999987,
                    "velocity": 0.44881889763779526,
                    "duration": 0.5999999999999943
                },
                {
                    "name": "A#3",
                    "midi": 58,
                    "time": 229.79999999999987,
                    "velocity": 0.5039370078740157,
                    "duration": 0.5999999999999943
                },
                {
                    "name": "D#2",
                    "midi": 39,
                    "time": 230.39999999999986,
                    "velocity": 0.6299212598425197,
                    "duration": 0.30000000000001137
                },
                {
                    "name": "D#3",
                    "midi": 51,
                    "time": 230.69999999999987,
                    "velocity": 0.44881889763779526,
                    "duration": 0.5999999999999943
                },
                {
                    "name": "F#3",
                    "midi": 54,
                    "time": 230.69999999999987,
                    "velocity": 0.44881889763779526,
                    "duration": 0.5999999999999943
                },
                {
                    "name": "A#3",
                    "midi": 58,
                    "time": 230.69999999999987,
                    "velocity": 0.5039370078740157,
                    "duration": 0.5999999999999943
                },
                {
                    "name": "A#2",
                    "midi": 46,
                    "time": 231.29999999999987,
                    "velocity": 0.5039370078740157,
                    "duration": 0.29999999999998295
                },
                {
                    "name": "G#3",
                    "midi": 56,
                    "time": 231.59999999999985,
                    "velocity": 0.44881889763779526,
                    "duration": 0.30000000000001137
                },
                {
                    "name": "D4",
                    "midi": 62,
                    "time": 231.59999999999985,
                    "velocity": 0.5039370078740157,
                    "duration": 0.30000000000001137
                },
                {
                    "name": "A#3",
                    "midi": 58,
                    "time": 231.59999999999985,
                    "velocity": 0.44881889763779526,
                    "duration": 0.30000000000001137
                },
                {
                    "name": "A#2",
                    "midi": 46,
                    "time": 231.89999999999986,
                    "velocity": 0.5039370078740157,
                    "duration": 0.30000000000001137
                },
                {
                    "name": "D#3",
                    "midi": 51,
                    "time": 232.19999999999987,
                    "velocity": 0.6377952755905512,
                    "duration": 0.30000000000001137
                },
                {
                    "name": "A#3",
                    "midi": 58,
                    "time": 232.4999999999999,
                    "velocity": 0.5039370078740157,
                    "duration": 0.5999999999999943
                },
                {
                    "name": "F#3",
                    "midi": 54,
                    "time": 232.4999999999999,
                    "velocity": 0.44881889763779526,
                    "duration": 0.5999999999999943
                },
                {
                    "name": "B1",
                    "midi": 35,
                    "time": 233.09999999999988,
                    "velocity": 0.6456692913385826,
                    "duration": 0.30000000000001137
                },
                {
                    "name": "F#3",
                    "midi": 54,
                    "time": 233.3999999999999,
                    "velocity": 0.6220472440944882,
                    "duration": 0.5999999999999943
                },
                {
                    "name": "D3",
                    "midi": 50,
                    "time": 233.3999999999999,
                    "velocity": 0.5590551181102362,
                    "duration": 0.5999999999999943
                },
                {
                    "name": "B2",
                    "midi": 47,
                    "time": 233.3999999999999,
                    "velocity": 0.5590551181102362,
                    "duration": 0.5999999999999943
                },
                {
                    "name": "B1",
                    "midi": 35,
                    "time": 233.9999999999999,
                    "velocity": 0.6692913385826772,
                    "duration": 0.30000000000001137
                },
                {
                    "name": "C#3",
                    "midi": 49,
                    "time": 234.2999999999999,
                    "velocity": 0.5433070866141733,
                    "duration": 0.5999999999999943
                },
                {
                    "name": "E3",
                    "midi": 52,
                    "time": 234.2999999999999,
                    "velocity": 0.5433070866141733,
                    "duration": 0.5999999999999943
                },
                {
                    "name": "G3",
                    "midi": 55,
                    "time": 234.2999999999999,
                    "velocity": 0.6062992125984252,
                    "duration": 0.5999999999999943
                },
                {
                    "name": "B2",
                    "midi": 47,
                    "time": 234.2999999999999,
                    "velocity": 0.5433070866141733,
                    "duration": 0.5999999999999943
                },
                {
                    "name": "D3",
                    "midi": 50,
                    "time": 234.8999999999999,
                    "velocity": 0.5039370078740157,
                    "duration": 0.30000000000001137
                },
                {
                    "name": "F#3",
                    "midi": 54,
                    "time": 235.0499999999999,
                    "velocity": 0.5039370078740157,
                    "duration": 0.15000000000000568
                },
                {
                    "name": "B3",
                    "midi": 59,
                    "time": 235.0499999999999,
                    "velocity": 0.5669291338582677,
                    "duration": 0.15000000000000568
                },
                {
                    "name": "C#3",
                    "midi": 49,
                    "time": 235.1999999999999,
                    "velocity": 0.5039370078740157,
                    "duration": 0.30000000000001137
                },
                {
                    "name": "F#3",
                    "midi": 54,
                    "time": 235.3499999999999,
                    "velocity": 0.5039370078740157,
                    "duration": 0.15000000000000568
                },
                {
                    "name": "A#3",
                    "midi": 58,
                    "time": 235.3499999999999,
                    "velocity": 0.5669291338582677,
                    "duration": 0.15000000000000568
                },
                {
                    "name": "B2",
                    "midi": 47,
                    "time": 235.49999999999991,
                    "velocity": 0.5039370078740157,
                    "duration": 0.30000000000001137
                },
                {
                    "name": "F#3",
                    "midi": 54,
                    "time": 235.64999999999992,
                    "velocity": 0.5039370078740157,
                    "duration": 0.15000000000000568
                },
                {
                    "name": "B3",
                    "midi": 59,
                    "time": 235.64999999999992,
                    "velocity": 0.5669291338582677,
                    "duration": 0.15000000000000568
                },
                {
                    "name": "F#2",
                    "midi": 42,
                    "time": 235.79999999999993,
                    "velocity": 0.7637795275590551,
                    "duration": 0.30000000000001137
                },
                {
                    "name": "A#3",
                    "midi": 58,
                    "time": 236.09999999999994,
                    "velocity": 0.6377952755905512,
                    "duration": 0.5999999999999943
                },
                {
                    "name": "F#3",
                    "midi": 54,
                    "time": 236.09999999999994,
                    "velocity": 0.5669291338582677,
                    "duration": 0.5999999999999943
                },
                {
                    "name": "A#2",
                    "midi": 46,
                    "time": 236.69999999999993,
                    "velocity": 0.7637795275590551,
                    "duration": 0.29999999999998295
                },
                {
                    "name": "F3",
                    "midi": 53,
                    "time": 236.99999999999991,
                    "velocity": 0.5669291338582677,
                    "duration": 0.5999999999999943
                },
                {
                    "name": "G#3",
                    "midi": 56,
                    "time": 236.99999999999991,
                    "velocity": 0.5669291338582677,
                    "duration": 0.5999999999999943
                },
                {
                    "name": "A#3",
                    "midi": 58,
                    "time": 236.99999999999991,
                    "velocity": 0.6377952755905512,
                    "duration": 0.5999999999999943
                },
                {
                    "name": "D#2",
                    "midi": 39,
                    "time": 237.5999999999999,
                    "velocity": 0.7637795275590551,
                    "duration": 0.30000000000001137
                },
                {
                    "name": "D#3",
                    "midi": 51,
                    "time": 237.89999999999992,
                    "velocity": 0.5669291338582677,
                    "duration": 0.5999999999999943
                },
                {
                    "name": "F#3",
                    "midi": 54,
                    "time": 237.89999999999992,
                    "velocity": 0.5669291338582677,
                    "duration": 0.5999999999999943
                },
                {
                    "name": "A#3",
                    "midi": 58,
                    "time": 237.89999999999992,
                    "velocity": 0.6377952755905512,
                    "duration": 0.5999999999999943
                },
                {
                    "name": "A#2",
                    "midi": 46,
                    "time": 238.49999999999991,
                    "velocity": 0.5669291338582677,
                    "duration": 0.29999999999998295
                },
                {
                    "name": "G#3",
                    "midi": 56,
                    "time": 238.7999999999999,
                    "velocity": 0.5669291338582677,
                    "duration": 0.30000000000001137
                },
                {
                    "name": "D4",
                    "midi": 62,
                    "time": 238.7999999999999,
                    "velocity": 0.6377952755905512,
                    "duration": 0.30000000000001137
                },
                {
                    "name": "A#3",
                    "midi": 58,
                    "time": 238.7999999999999,
                    "velocity": 0.5669291338582677,
                    "duration": 0.30000000000001137
                },
                {
                    "name": "A#2",
                    "midi": 46,
                    "time": 239.0999999999999,
                    "velocity": 0.5669291338582677,
                    "duration": 0.30000000000001137
                },
                {
                    "name": "D#3",
                    "midi": 51,
                    "time": 239.39999999999992,
                    "velocity": 0.6692913385826772,
                    "duration": 0.30000000000001137
                },
                {
                    "name": "D#4",
                    "midi": 63,
                    "time": 239.69999999999993,
                    "velocity": 0.5826771653543307,
                    "duration": 0.5999999999999943
                },
                {
                    "name": "A#3",
                    "midi": 58,
                    "time": 239.69999999999993,
                    "velocity": 0.5196850393700787,
                    "duration": 0.5999999999999943
                },
                {
                    "name": "F#3",
                    "midi": 54,
                    "time": 239.69999999999993,
                    "velocity": 0.5196850393700787,
                    "duration": 0.5999999999999943
                },
                {
                    "name": "A#2",
                    "midi": 46,
                    "time": 240.29999999999993,
                    "velocity": 0.7086614173228346,
                    "duration": 0.30000000000001137
                },
                {
                    "name": "G#4",
                    "midi": 68,
                    "time": 240.59999999999994,
                    "velocity": 0.5826771653543307,
                    "duration": 0.5999999999999943
                },
                {
                    "name": "F4",
                    "midi": 65,
                    "time": 240.59999999999994,
                    "velocity": 0.5196850393700787,
                    "duration": 0.5999999999999943
                },
                {
                    "name": "D4",
                    "midi": 62,
                    "time": 240.59999999999994,
                    "velocity": 0.5196850393700787,
                    "duration": 0.5999999999999943
                },
                {
                    "name": "A#3",
                    "midi": 58,
                    "time": 240.59999999999994,
                    "velocity": 0.5196850393700787,
                    "duration": 0.5999999999999943
                },
                {
                    "name": "D#3",
                    "midi": 51,
                    "time": 241.19999999999993,
                    "velocity": 0.6929133858267716,
                    "duration": 0.29999999999998295
                },
                {
                    "name": "F#4",
                    "midi": 66,
                    "time": 241.49999999999991,
                    "velocity": 0.5826771653543307,
                    "duration": 0.5999999999999943
                },
                {
                    "name": "D#4",
                    "midi": 63,
                    "time": 241.49999999999991,
                    "velocity": 0.5196850393700787,
                    "duration": 0.5999999999999943
                },
                {
                    "name": "A#3",
                    "midi": 58,
                    "time": 241.49999999999991,
                    "velocity": 0.5196850393700787,
                    "duration": 0.5999999999999943
                },
                {
                    "name": "G#3",
                    "midi": 56,
                    "time": 242.0999999999999,
                    "velocity": 0.5039370078740157,
                    "duration": 0.30000000000001137
                },
                {
                    "name": "B3",
                    "midi": 59,
                    "time": 242.0999999999999,
                    "velocity": 0.5039370078740157,
                    "duration": 0.30000000000001137
                },
                {
                    "name": "F4",
                    "midi": 65,
                    "time": 242.0999999999999,
                    "velocity": 0.5669291338582677,
                    "duration": 0.30000000000001137
                },
                {
                    "name": "F#4",
                    "midi": 66,
                    "time": 242.39999999999992,
                    "velocity": 0.5748031496062992,
                    "duration": 0.30000000000001137
                },
                {
                    "name": "D#4",
                    "midi": 63,
                    "time": 242.39999999999992,
                    "velocity": 0.5118110236220472,
                    "duration": 0.30000000000001137
                },
                {
                    "name": "A#3",
                    "midi": 58,
                    "time": 242.39999999999992,
                    "velocity": 0.5118110236220472,
                    "duration": 0.30000000000001137
                },
                {
                    "name": "A#3",
                    "midi": 58,
                    "time": 242.69999999999993,
                    "velocity": 0.5118110236220472,
                    "duration": 0.30000000000001137
                },
                {
                    "name": "F4",
                    "midi": 65,
                    "time": 242.69999999999993,
                    "velocity": 0.5118110236220472,
                    "duration": 0.30000000000001137
                },
                {
                    "name": "G#4",
                    "midi": 68,
                    "time": 242.69999999999993,
                    "velocity": 0.5748031496062992,
                    "duration": 0.30000000000001137
                },
                {
                    "name": "D#3",
                    "midi": 51,
                    "time": 242.99999999999994,
                    "velocity": 0.6692913385826772,
                    "duration": 0.29999999999998295
                },
                {
                    "name": "F#4",
                    "midi": 66,
                    "time": 243.29999999999993,
                    "velocity": 0.5826771653543307,
                    "duration": 0.5999999999999943
                },
                {
                    "name": "D#4",
                    "midi": 63,
                    "time": 243.29999999999993,
                    "velocity": 0.5196850393700787,
                    "duration": 0.5999999999999943
                },
                {
                    "name": "A#3",
                    "midi": 58,
                    "time": 243.29999999999993,
                    "velocity": 0.5196850393700787,
                    "duration": 0.5999999999999943
                },
                {
                    "name": "A#2",
                    "midi": 46,
                    "time": 243.89999999999992,
                    "velocity": 0.6929133858267716,
                    "duration": 0.30000000000001137
                },
                {
                    "name": "G#4",
                    "midi": 68,
                    "time": 244.19999999999993,
                    "velocity": 0.5826771653543307,
                    "duration": 0.5999999999999943
                },
                {
                    "name": "F4",
                    "midi": 65,
                    "time": 244.19999999999993,
                    "velocity": 0.5196850393700787,
                    "duration": 0.5999999999999943
                },
                {
                    "name": "D4",
                    "midi": 62,
                    "time": 244.19999999999993,
                    "velocity": 0.5196850393700787,
                    "duration": 0.5999999999999943
                },
                {
                    "name": "A#3",
                    "midi": 58,
                    "time": 244.19999999999993,
                    "velocity": 0.5196850393700787,
                    "duration": 0.5999999999999943
                },
                {
                    "name": "D#3",
                    "midi": 51,
                    "time": 244.79999999999993,
                    "velocity": 0.6929133858267716,
                    "duration": 0.30000000000001137
                },
                {
                    "name": "F#4",
                    "midi": 66,
                    "time": 245.09999999999994,
                    "velocity": 0.5826771653543307,
                    "duration": 0.5999999999999943
                },
                {
                    "name": "D#4",
                    "midi": 63,
                    "time": 245.09999999999994,
                    "velocity": 0.5196850393700787,
                    "duration": 0.5999999999999943
                },
                {
                    "name": "A#3",
                    "midi": 58,
                    "time": 245.09999999999994,
                    "velocity": 0.5196850393700787,
                    "duration": 0.5999999999999943
                },
                {
                    "name": "G#3",
                    "midi": 56,
                    "time": 245.69999999999993,
                    "velocity": 0.5118110236220472,
                    "duration": 0.30000000000001137
                },
                {
                    "name": "B3",
                    "midi": 59,
                    "time": 245.69999999999993,
                    "velocity": 0.5118110236220472,
                    "duration": 0.30000000000001137
                },
                {
                    "name": "F4",
                    "midi": 65,
                    "time": 245.69999999999993,
                    "velocity": 0.5748031496062992,
                    "duration": 0.30000000000001137
                },
                {
                    "name": "F#4",
                    "midi": 66,
                    "time": 245.99999999999994,
                    "velocity": 0.5748031496062992,
                    "duration": 0.29999999999998295
                },
                {
                    "name": "D#4",
                    "midi": 63,
                    "time": 245.99999999999994,
                    "velocity": 0.5118110236220472,
                    "duration": 0.29999999999998295
                },
                {
                    "name": "A#3",
                    "midi": 58,
                    "time": 245.99999999999994,
                    "velocity": 0.5118110236220472,
                    "duration": 0.29999999999998295
                },
                {
                    "name": "A#3",
                    "midi": 58,
                    "time": 246.29999999999993,
                    "velocity": 0.5118110236220472,
                    "duration": 0.30000000000001137
                },
                {
                    "name": "F4",
                    "midi": 65,
                    "time": 246.29999999999993,
                    "velocity": 0.5118110236220472,
                    "duration": 0.30000000000001137
                },
                {
                    "name": "G#4",
                    "midi": 68,
                    "time": 246.29999999999993,
                    "velocity": 0.5748031496062992,
                    "duration": 0.30000000000001137
                },
                {
                    "name": "D#3",
                    "midi": 51,
                    "time": 246.59999999999994,
                    "velocity": 0.6692913385826772,
                    "duration": 0.30000000000001137
                },
                {
                    "name": "F#4",
                    "midi": 66,
                    "time": 246.89999999999995,
                    "velocity": 0.5826771653543307,
                    "duration": 0.5999999999999943
                },
                {
                    "name": "D#4",
                    "midi": 63,
                    "time": 246.89999999999995,
                    "velocity": 0.5196850393700787,
                    "duration": 0.5999999999999943
                },
                {
                    "name": "A#3",
                    "midi": 58,
                    "time": 246.89999999999995,
                    "velocity": 0.5196850393700787,
                    "duration": 0.5999999999999943
                },
                {
                    "name": "G#3",
                    "midi": 56,
                    "time": 247.49999999999994,
                    "velocity": 0.5039370078740157,
                    "duration": 0.30000000000001137
                },
                {
                    "name": "B3",
                    "midi": 59,
                    "time": 247.49999999999994,
                    "velocity": 0.5039370078740157,
                    "duration": 0.30000000000001137
                },
                {
                    "name": "F4",
                    "midi": 65,
                    "time": 247.49999999999994,
                    "velocity": 0.5669291338582677,
                    "duration": 0.30000000000001137
                },
                {
                    "name": "F#4",
                    "midi": 66,
                    "time": 247.79999999999995,
                    "velocity": 0.5748031496062992,
                    "duration": 0.29999999999998295
                },
                {
                    "name": "D#4",
                    "midi": 63,
                    "time": 247.79999999999995,
                    "velocity": 0.5118110236220472,
                    "duration": 0.29999999999998295
                },
                {
                    "name": "A#3",
                    "midi": 58,
                    "time": 247.79999999999995,
                    "velocity": 0.5118110236220472,
                    "duration": 0.29999999999998295
                },
                {
                    "name": "A#3",
                    "midi": 58,
                    "time": 248.09999999999994,
                    "velocity": 0.5118110236220472,
                    "duration": 0.30000000000001137
                },
                {
                    "name": "F4",
                    "midi": 65,
                    "time": 248.09999999999994,
                    "velocity": 0.5118110236220472,
                    "duration": 0.30000000000001137
                },
                {
                    "name": "G#4",
                    "midi": 68,
                    "time": 248.09999999999994,
                    "velocity": 0.5748031496062992,
                    "duration": 0.30000000000001137
                },
                {
                    "name": "D#4",
                    "midi": 63,
                    "time": 248.39999999999995,
                    "velocity": 0.6377952755905512,
                    "duration": 0.5999999999999943
                },
                {
                    "name": "A#3",
                    "midi": 58,
                    "time": 248.39999999999995,
                    "velocity": 0.5669291338582677,
                    "duration": 0.5999999999999943
                },
                {
                    "name": "F#3",
                    "midi": 54,
                    "time": 248.39999999999995,
                    "velocity": 0.5669291338582677,
                    "duration": 0.5999999999999943
                },
                {
                    "name": "D#3",
                    "midi": 51,
                    "time": 248.39999999999995,
                    "velocity": 0.5669291338582677,
                    "duration": 0.5999999999999943
                },
                {
                    "name": "G#3",
                    "midi": 56,
                    "time": 248.99999999999994,
                    "velocity": 0.44881889763779526,
                    "duration": 0.15000000000000568
                },
                {
                    "name": "B3",
                    "midi": 59,
                    "time": 248.99999999999994,
                    "velocity": 0.44881889763779526,
                    "duration": 0.15000000000000568
                },
                {
                    "name": "D#4",
                    "midi": 63,
                    "time": 248.99999999999994,
                    "velocity": 0.49606299212598426,
                    "duration": 0.15000000000000568
                },
                {
                    "name": "D#3",
                    "midi": 51,
                    "time": 248.99999999999994,
                    "velocity": 0.44881889763779526,
                    "duration": 0.15000000000000568
                },
                {
                    "name": "F#3",
                    "midi": 54,
                    "time": 249.29999999999995,
                    "velocity": 0.5748031496062992,
                    "duration": 0.5999999999999943
                },
                {
                    "name": "D#4",
                    "midi": 63,
                    "time": 249.29999999999995,
                    "velocity": 0.6456692913385826,
                    "duration": 0.5999999999999943
                },
                {
                    "name": "A#3",
                    "midi": 58,
                    "time": 249.29999999999995,
                    "velocity": 0.5748031496062992,
                    "duration": 0.5999999999999943
                },
                {
                    "name": "D#3",
                    "midi": 51,
                    "time": 249.29999999999995,
                    "velocity": 0.5748031496062992,
                    "duration": 0.5999999999999943
                },
                {
                    "name": "G#3",
                    "midi": 56,
                    "time": 249.89999999999995,
                    "velocity": 0.44881889763779526,
                    "duration": 0.15000000000000568
                },
                {
                    "name": "D#4",
                    "midi": 63,
                    "time": 249.89999999999995,
                    "velocity": 0.5039370078740157,
                    "duration": 0.15000000000000568
                },
                {
                    "name": "B3",
                    "midi": 59,
                    "time": 249.89999999999995,
                    "velocity": 0.44881889763779526,
                    "duration": 0.15000000000000568
                },
                {
                    "name": "D#3",
                    "midi": 51,
                    "time": 249.89999999999995,
                    "velocity": 0.44881889763779526,
                    "duration": 0.15000000000000568
                },
                {
                    "name": "D#3",
                    "midi": 51,
                    "time": 250.19999999999996,
                    "velocity": 0.6771653543307087,
                    "duration": 0.5999999999999943
                },
                {
                    "name": "A#2",
                    "midi": 46,
                    "time": 250.19999999999996,
                    "velocity": 0.6062992125984252,
                    "duration": 0.5999999999999943
                },
                {
                    "name": "F#2",
                    "midi": 42,
                    "time": 250.19999999999996,
                    "velocity": 0.6062992125984252,
                    "duration": 0.5999999999999943
                },
                {
                    "name": "D#2",
                    "midi": 39,
                    "time": 250.19999999999996,
                    "velocity": 0.6062992125984252,
                    "duration": 0.5999999999999943
                },
                {
                    "name": "G#2",
                    "midi": 44,
                    "time": 250.79999999999995,
                    "velocity": 0.48031496062992124,
                    "duration": 0.15000000000000568
                },
                {
                    "name": "D#3",
                    "midi": 51,
                    "time": 250.79999999999995,
                    "velocity": 0.5354330708661418,
                    "duration": 0.15000000000000568
                },
                {
                    "name": "B2",
                    "midi": 47,
                    "time": 250.79999999999995,
                    "velocity": 0.48031496062992124,
                    "duration": 0.15000000000000568
                },
                {
                    "name": "D#2",
                    "midi": 39,
                    "time": 250.79999999999995,
                    "velocity": 0.48031496062992124,
                    "duration": 0.15000000000000568
                },
                {
                    "name": "D#3",
                    "midi": 51,
                    "time": 251.09999999999997,
                    "velocity": 0.6377952755905512,
                    "duration": 0.5999999999999943
                },
                {
                    "name": "A#2",
                    "midi": 46,
                    "time": 251.09999999999997,
                    "velocity": 0.5669291338582677,
                    "duration": 0.5999999999999943
                },
                {
                    "name": "F#2",
                    "midi": 42,
                    "time": 251.09999999999997,
                    "velocity": 0.5669291338582677,
                    "duration": 0.5999999999999943
                },
                {
                    "name": "D#2",
                    "midi": 39,
                    "time": 251.09999999999997,
                    "velocity": 0.5669291338582677,
                    "duration": 0.5999999999999943
                },
                {
                    "name": "B2",
                    "midi": 47,
                    "time": 251.69999999999996,
                    "velocity": 0.5039370078740157,
                    "duration": 0.15000000000000568
                },
                {
                    "name": "G#2",
                    "midi": 44,
                    "time": 251.69999999999996,
                    "velocity": 0.44881889763779526,
                    "duration": 0.15000000000000568
                },
                {
                    "name": "D#2",
                    "midi": 39,
                    "time": 251.69999999999996,
                    "velocity": 0.44881889763779526,
                    "duration": 0.15000000000000568
                },
                {
                    "name": "D#2",
                    "midi": 39,
                    "time": 251.99999999999997,
                    "velocity": 0.5669291338582677,
                    "duration": 0.15000000000000568
                },
                {
                    "name": "F#2",
                    "midi": 42,
                    "time": 251.99999999999997,
                    "velocity": 0.5669291338582677,
                    "duration": 0.15000000000000568
                },
                {
                    "name": "A#2",
                    "midi": 46,
                    "time": 251.99999999999997,
                    "velocity": 0.5669291338582677,
                    "duration": 0.15000000000000568
                },
                {
                    "name": "D#3",
                    "midi": 51,
                    "time": 251.99999999999997,
                    "velocity": 0.5669291338582677,
                    "duration": 0.15000000000000568
                },
                {
                    "name": "F#3",
                    "midi": 54,
                    "time": 251.99999999999997,
                    "velocity": 0.5669291338582677,
                    "duration": 0.15000000000000568
                },
                {
                    "name": "A#3",
                    "midi": 58,
                    "time": 251.99999999999997,
                    "velocity": 0.6299212598425197,
                    "duration": 0.15000000000000568
                },
                {
                    "name": "B3",
                    "midi": 59,
                    "time": 252.29999999999998,
                    "velocity": 0.6299212598425197,
                    "duration": 0.15000000000000568
                },
                {
                    "name": "G#3",
                    "midi": 56,
                    "time": 252.29999999999998,
                    "velocity": 0.5669291338582677,
                    "duration": 0.15000000000000568
                },
                {
                    "name": "D#3",
                    "midi": 51,
                    "time": 252.29999999999998,
                    "velocity": 0.5669291338582677,
                    "duration": 0.15000000000000568
                },
                {
                    "name": "B2",
                    "midi": 47,
                    "time": 252.29999999999998,
                    "velocity": 0.5669291338582677,
                    "duration": 0.15000000000000568
                },
                {
                    "name": "G#2",
                    "midi": 44,
                    "time": 252.29999999999998,
                    "velocity": 0.5669291338582677,
                    "duration": 0.15000000000000568
                },
                {
                    "name": "D#2",
                    "midi": 39,
                    "time": 252.29999999999998,
                    "velocity": 0.5669291338582677,
                    "duration": 0.15000000000000568
                },
                {
                    "name": "D#3",
                    "midi": 51,
                    "time": 252.6,
                    "velocity": 0.5669291338582677,
                    "duration": 0.15000000000000568
                },
                {
                    "name": "D#2",
                    "midi": 39,
                    "time": 252.6,
                    "velocity": 0.5669291338582677,
                    "duration": 0.15000000000000568
                },
                {
                    "name": "F#2",
                    "midi": 42,
                    "time": 252.6,
                    "velocity": 0.5669291338582677,
                    "duration": 0.15000000000000568
                },
                {
                    "name": "A#2",
                    "midi": 46,
                    "time": 252.6,
                    "velocity": 0.5669291338582677,
                    "duration": 0.15000000000000568
                },
                {
                    "name": "F#3",
                    "midi": 54,
                    "time": 252.6,
                    "velocity": 0.5669291338582677,
                    "duration": 0.15000000000000568
                },
                {
                    "name": "A#3",
                    "midi": 58,
                    "time": 252.6,
                    "velocity": 0.6299212598425197,
                    "duration": 0.15000000000000568
                },
                {
                    "name": "B3",
                    "midi": 59,
                    "time": 252.9,
                    "velocity": 0.6299212598425197,
                    "duration": 0.15000000000000568
                },
                {
                    "name": "G#3",
                    "midi": 56,
                    "time": 252.9,
                    "velocity": 0.5669291338582677,
                    "duration": 0.15000000000000568
                },
                {
                    "name": "D#3",
                    "midi": 51,
                    "time": 252.9,
                    "velocity": 0.5669291338582677,
                    "duration": 0.15000000000000568
                },
                {
                    "name": "B2",
                    "midi": 47,
                    "time": 252.9,
                    "velocity": 0.5669291338582677,
                    "duration": 0.15000000000000568
                },
                {
                    "name": "G#2",
                    "midi": 44,
                    "time": 252.9,
                    "velocity": 0.5669291338582677,
                    "duration": 0.15000000000000568
                },
                {
                    "name": "D#2",
                    "midi": 39,
                    "time": 252.9,
                    "velocity": 0.5669291338582677,
                    "duration": 0.15000000000000568
                },
                {
                    "name": "D#3",
                    "midi": 51,
                    "time": 253.20000000000002,
                    "velocity": 0.5669291338582677,
                    "duration": 0.15000000000000568
                },
                {
                    "name": "D#2",
                    "midi": 39,
                    "time": 253.20000000000002,
                    "velocity": 0.5669291338582677,
                    "duration": 0.15000000000000568
                },
                {
                    "name": "F#2",
                    "midi": 42,
                    "time": 253.20000000000002,
                    "velocity": 0.5669291338582677,
                    "duration": 0.15000000000000568
                },
                {
                    "name": "A#2",
                    "midi": 46,
                    "time": 253.20000000000002,
                    "velocity": 0.5669291338582677,
                    "duration": 0.15000000000000568
                },
                {
                    "name": "F#3",
                    "midi": 54,
                    "time": 253.20000000000002,
                    "velocity": 0.5669291338582677,
                    "duration": 0.15000000000000568
                },
                {
                    "name": "A#3",
                    "midi": 58,
                    "time": 253.20000000000002,
                    "velocity": 0.6299212598425197,
                    "duration": 0.15000000000000568
                },
                {
                    "name": "D#3",
                    "midi": 51,
                    "time": 253.50000000000003,
                    "velocity": 0.5669291338582677,
                    "duration": 0.15000000000000568
                },
                {
                    "name": "B3",
                    "midi": 59,
                    "time": 253.50000000000003,
                    "velocity": 0.6299212598425197,
                    "duration": 0.15000000000000568
                },
                {
                    "name": "G#3",
                    "midi": 56,
                    "time": 253.50000000000003,
                    "velocity": 0.5669291338582677,
                    "duration": 0.15000000000000568
                },
                {
                    "name": "B2",
                    "midi": 47,
                    "time": 253.50000000000003,
                    "velocity": 0.5669291338582677,
                    "duration": 0.15000000000000568
                },
                {
                    "name": "G#2",
                    "midi": 44,
                    "time": 253.50000000000003,
                    "velocity": 0.5669291338582677,
                    "duration": 0.15000000000000568
                },
                {
                    "name": "D#2",
                    "midi": 39,
                    "time": 253.50000000000003,
                    "velocity": 0.5669291338582677,
                    "duration": 0.15000000000000568
                },
                {
                    "name": "A#1",
                    "midi": 34,
                    "time": 253.80000000000004,
                    "velocity": 0.6141732283464567,
                    "duration": 0.30000000000001137
                },
                {
                    "name": "A#2",
                    "midi": 46,
                    "time": 253.80000000000004,
                    "velocity": 0.6850393700787402,
                    "duration": 0.30000000000001137
                },
                {
                    "name": "A#2",
                    "midi": 46,
                    "time": 254.70000000000005,
                    "velocity": 0.6141732283464567,
                    "duration": 0.29999999999998295
                },
                {
                    "name": "D#2",
                    "midi": 39,
                    "time": 254.70000000000005,
                    "velocity": 0.6141732283464567,
                    "duration": 0.29999999999998295
                },
                {
                    "name": "D#3",
                    "midi": 51,
                    "time": 254.70000000000005,
                    "velocity": 0.6850393700787402,
                    "duration": 0.29999999999998295
                }
            ],
            "controlChanges": {
                "7": [
                    {
                        "number": 7,
                        "time": 0,
                        "value": 0.7874015748031497
                    }
                ],
                "10": [
                    {
                        "number": 10,
                        "time": 0,
                        "value": 0.5039370078740157
                    }
                ],
                "64": [
                    {
                        "number": 64,
                        "time": 0,
                        "value": 0
                    },
                    {
                        "number": 64,
                        "time": 0.5625,
                        "value": 0
                    },
                    {
                        "number": 64,
                        "time": 23.44312500000002,
                        "value": 1
                    },
                    {
                        "number": 64,
                        "time": 23.710000000000022,
                        "value": 0
                    },
                    {
                        "number": 64,
                        "time": 23.748750000000022,
                        "value": 1
                    },
                    {
                        "number": 64,
                        "time": 24.300000000000022,
                        "value": 0
                    },
                    {
                        "number": 64,
                        "time": 25.246875000000024,
                        "value": 1
                    },
                    {
                        "number": 64,
                        "time": 25.513750000000027,
                        "value": 0
                    },
                    {
                        "number": 64,
                        "time": 25.571875000000027,
                        "value": 1
                    },
                    {
                        "number": 64,
                        "time": 26.100000000000026,
                        "value": 0
                    },
                    {
                        "number": 64,
                        "time": 27.04687500000003,
                        "value": 1
                    },
                    {
                        "number": 64,
                        "time": 27.31187500000003,
                        "value": 0
                    },
                    {
                        "number": 64,
                        "time": 27.38250000000003,
                        "value": 1
                    },
                    {
                        "number": 64,
                        "time": 27.900000000000027,
                        "value": 0
                    },
                    {
                        "number": 64,
                        "time": 28.868125000000028,
                        "value": 1
                    },
                    {
                        "number": 64,
                        "time": 29.110625000000027,
                        "value": 0
                    },
                    {
                        "number": 64,
                        "time": 29.200000000000028,
                        "value": 1
                    },
                    {
                        "number": 64,
                        "time": 29.700000000000028,
                        "value": 0
                    },
                    {
                        "number": 64,
                        "time": 29.76062500000003,
                        "value": 1
                    },
                    {
                        "number": 64,
                        "time": 30.00625000000003,
                        "value": 0
                    },
                    {
                        "number": 64,
                        "time": 30.07875000000003,
                        "value": 1
                    },
                    {
                        "number": 64,
                        "time": 30.601875000000028,
                        "value": 0
                    },
                    {
                        "number": 64,
                        "time": 30.653125000000028,
                        "value": 1
                    },
                    {
                        "number": 64,
                        "time": 30.903750000000027,
                        "value": 0
                    },
                    {
                        "number": 64,
                        "time": 30.979375000000026,
                        "value": 1
                    },
                    {
                        "number": 64,
                        "time": 31.207500000000024,
                        "value": 0
                    },
                    {
                        "number": 64,
                        "time": 31.297500000000024,
                        "value": 1
                    },
                    {
                        "number": 64,
                        "time": 31.501875000000023,
                        "value": 0
                    },
                    {
                        "number": 64,
                        "time": 33.33000000000002,
                        "value": 1
                    },
                    {
                        "number": 64,
                        "time": 33.613125000000025,
                        "value": 0
                    },
                    {
                        "number": 64,
                        "time": 33.675000000000026,
                        "value": 1
                    },
                    {
                        "number": 64,
                        "time": 34.200000000000024,
                        "value": 0
                    },
                    {
                        "number": 64,
                        "time": 35.13937500000002,
                        "value": 1
                    },
                    {
                        "number": 64,
                        "time": 35.41062500000002,
                        "value": 0
                    },
                    {
                        "number": 64,
                        "time": 35.49625000000002,
                        "value": 1
                    },
                    {
                        "number": 64,
                        "time": 36.00312500000001,
                        "value": 0
                    },
                    {
                        "number": 64,
                        "time": 36.05375000000001,
                        "value": 1
                    },
                    {
                        "number": 64,
                        "time": 36.31000000000001,
                        "value": 0
                    },
                    {
                        "number": 64,
                        "time": 36.943125000000016,
                        "value": 1
                    },
                    {
                        "number": 64,
                        "time": 37.20812500000002,
                        "value": 0
                    },
                    {
                        "number": 64,
                        "time": 37.30750000000002,
                        "value": 1
                    },
                    {
                        "number": 64,
                        "time": 37.80125000000002,
                        "value": 0
                    },
                    {
                        "number": 64,
                        "time": 45.043125,
                        "value": 1
                    },
                    {
                        "number": 64,
                        "time": 45.91250000000001,
                        "value": 0
                    },
                    {
                        "number": 64,
                        "time": 46.00625000000001,
                        "value": 1
                    },
                    {
                        "number": 64,
                        "time": 46.80875000000001,
                        "value": 0
                    },
                    {
                        "number": 64,
                        "time": 73.89999999999988,
                        "value": 1
                    },
                    {
                        "number": 64,
                        "time": 74.33374999999988,
                        "value": 0
                    },
                    {
                        "number": 64,
                        "time": 74.77062499999988,
                        "value": 1
                    },
                    {
                        "number": 64,
                        "time": 75.59999999999988,
                        "value": 0
                    },
                    {
                        "number": 64,
                        "time": 75.70187499999989,
                        "value": 1
                    },
                    {
                        "number": 64,
                        "time": 76.50187499999988,
                        "value": 0
                    },
                    {
                        "number": 64,
                        "time": 76.55749999999989,
                        "value": 1
                    },
                    {
                        "number": 64,
                        "time": 76.8037499999999,
                        "value": 0
                    },
                    {
                        "number": 64,
                        "time": 76.8931249999999,
                        "value": 1
                    },
                    {
                        "number": 64,
                        "time": 77.1043749999999,
                        "value": 0
                    },
                    {
                        "number": 64,
                        "time": 77.1574999999999,
                        "value": 1
                    },
                    {
                        "number": 64,
                        "time": 77.3999999999999,
                        "value": 0
                    },
                    {
                        "number": 64,
                        "time": 77.46062499999991,
                        "value": 0.9921259842519685
                    },
                    {
                        "number": 64,
                        "time": 78.30624999999989,
                        "value": 0
                    },
                    {
                        "number": 64,
                        "time": 78.4106249999999,
                        "value": 1
                    },
                    {
                        "number": 64,
                        "time": 79.20437499999989,
                        "value": 0
                    },
                    {
                        "number": 64,
                        "time": 79.28812499999988,
                        "value": 1
                    },
                    {
                        "number": 64,
                        "time": 80.10187499999988,
                        "value": 0
                    },
                    {
                        "number": 64,
                        "time": 80.18812499999989,
                        "value": 1
                    },
                    {
                        "number": 64,
                        "time": 80.4081249999999,
                        "value": 0
                    },
                    {
                        "number": 64,
                        "time": 80.4974999999999,
                        "value": 1
                    },
                    {
                        "number": 64,
                        "time": 80.7074999999999,
                        "value": 0
                    },
                    {
                        "number": 64,
                        "time": 80.7974999999999,
                        "value": 1
                    },
                    {
                        "number": 64,
                        "time": 80.9999999999999,
                        "value": 0
                    },
                    {
                        "number": 64,
                        "time": 81.0793749999999,
                        "value": 0.984251968503937
                    },
                    {
                        "number": 64,
                        "time": 81.89999999999989,
                        "value": 0
                    },
                    {
                        "number": 64,
                        "time": 81.9749999999999,
                        "value": 1
                    },
                    {
                        "number": 64,
                        "time": 82.7999999999999,
                        "value": 0
                    },
                    {
                        "number": 64,
                        "time": 82.91499999999989,
                        "value": 1
                    },
                    {
                        "number": 64,
                        "time": 83.69999999999989,
                        "value": 0
                    },
                    {
                        "number": 64,
                        "time": 83.7574999999999,
                        "value": 1
                    },
                    {
                        "number": 64,
                        "time": 84.0024999999999,
                        "value": 0
                    },
                    {
                        "number": 64,
                        "time": 84.0643749999999,
                        "value": 1
                    },
                    {
                        "number": 64,
                        "time": 84.3049999999999,
                        "value": 0
                    },
                    {
                        "number": 64,
                        "time": 84.37187499999989,
                        "value": 1
                    },
                    {
                        "number": 64,
                        "time": 84.60249999999989,
                        "value": 0
                    },
                    {
                        "number": 64,
                        "time": 84.71812499999989,
                        "value": 0.9921259842519685
                    },
                    {
                        "number": 64,
                        "time": 85.50187499999988,
                        "value": 0
                    },
                    {
                        "number": 64,
                        "time": 85.56062499999989,
                        "value": 1
                    },
                    {
                        "number": 64,
                        "time": 86.39999999999988,
                        "value": 0
                    },
                    {
                        "number": 64,
                        "time": 86.48374999999987,
                        "value": 1
                    },
                    {
                        "number": 64,
                        "time": 87.29999999999987,
                        "value": 0
                    },
                    {
                        "number": 64,
                        "time": 87.34687499999987,
                        "value": 1
                    },
                    {
                        "number": 64,
                        "time": 87.60312499999988,
                        "value": 0
                    },
                    {
                        "number": 64,
                        "time": 87.65687499999987,
                        "value": 1
                    },
                    {
                        "number": 64,
                        "time": 87.90749999999987,
                        "value": 0
                    },
                    {
                        "number": 64,
                        "time": 87.98812499999987,
                        "value": 1
                    },
                    {
                        "number": 64,
                        "time": 88.19999999999987,
                        "value": 0
                    },
                    {
                        "number": 64,
                        "time": 88.29687499999987,
                        "value": 1
                    },
                    {
                        "number": 64,
                        "time": 89.10187499999986,
                        "value": 0
                    },
                    {
                        "number": 64,
                        "time": 89.22812499999986,
                        "value": 0.9921259842519685
                    },
                    {
                        "number": 64,
                        "time": 90.00187499999986,
                        "value": 0
                    },
                    {
                        "number": 64,
                        "time": 90.13249999999985,
                        "value": 0.9921259842519685
                    },
                    {
                        "number": 64,
                        "time": 90.89999999999985,
                        "value": 0
                    },
                    {
                        "number": 64,
                        "time": 91.00749999999985,
                        "value": 0.984251968503937
                    },
                    {
                        "number": 64,
                        "time": 91.80812499999985,
                        "value": 0
                    },
                    {
                        "number": 64,
                        "time": 91.92374999999984,
                        "value": 1
                    },
                    {
                        "number": 64,
                        "time": 92.70562499999983,
                        "value": 0
                    },
                    {
                        "number": 64,
                        "time": 92.80187499999982,
                        "value": 1
                    },
                    {
                        "number": 64,
                        "time": 93.60874999999983,
                        "value": 0
                    },
                    {
                        "number": 64,
                        "time": 93.73687499999983,
                        "value": 1
                    },
                    {
                        "number": 64,
                        "time": 94.50187499999981,
                        "value": 0
                    },
                    {
                        "number": 64,
                        "time": 95.42687499999981,
                        "value": 0
                    },
                    {
                        "number": 64,
                        "time": 95.49749999999982,
                        "value": 1
                    },
                    {
                        "number": 64,
                        "time": 96.30187499999981,
                        "value": 0
                    },
                    {
                        "number": 64,
                        "time": 96.42374999999981,
                        "value": 1
                    },
                    {
                        "number": 64,
                        "time": 97.2224999999998,
                        "value": 0
                    },
                    {
                        "number": 64,
                        "time": 97.3106249999998,
                        "value": 1
                    },
                    {
                        "number": 64,
                        "time": 98.0999999999998,
                        "value": 0
                    },
                    {
                        "number": 64,
                        "time": 99.0087499999998,
                        "value": 0
                    },
                    {
                        "number": 64,
                        "time": 99.10624999999979,
                        "value": 1
                    },
                    {
                        "number": 64,
                        "time": 99.90374999999977,
                        "value": 0
                    },
                    {
                        "number": 64,
                        "time": 99.97499999999978,
                        "value": 1
                    },
                    {
                        "number": 64,
                        "time": 100.80124999999977,
                        "value": 0
                    },
                    {
                        "number": 64,
                        "time": 100.84687499999977,
                        "value": 1
                    },
                    {
                        "number": 64,
                        "time": 101.69999999999976,
                        "value": 0
                    },
                    {
                        "number": 64,
                        "time": 101.77187499999977,
                        "value": 1
                    },
                    {
                        "number": 64,
                        "time": 102.00749999999977,
                        "value": 0
                    },
                    {
                        "number": 64,
                        "time": 102.11437499999977,
                        "value": 1
                    },
                    {
                        "number": 64,
                        "time": 102.30749999999976,
                        "value": 0
                    },
                    {
                        "number": 64,
                        "time": 102.39312499999976,
                        "value": 1
                    },
                    {
                        "number": 64,
                        "time": 102.59999999999977,
                        "value": 0
                    },
                    {
                        "number": 64,
                        "time": 102.66437499999977,
                        "value": 1
                    },
                    {
                        "number": 64,
                        "time": 103.50249999999976,
                        "value": 0
                    },
                    {
                        "number": 64,
                        "time": 103.57499999999976,
                        "value": 1
                    },
                    {
                        "number": 64,
                        "time": 104.39999999999975,
                        "value": 0
                    },
                    {
                        "number": 64,
                        "time": 104.49999999999974,
                        "value": 1
                    },
                    {
                        "number": 64,
                        "time": 105.30187499999974,
                        "value": 0
                    },
                    {
                        "number": 64,
                        "time": 105.36437499999974,
                        "value": 1
                    },
                    {
                        "number": 64,
                        "time": 105.60499999999973,
                        "value": 0
                    },
                    {
                        "number": 64,
                        "time": 105.68562499999973,
                        "value": 1
                    },
                    {
                        "number": 64,
                        "time": 105.90437499999973,
                        "value": 0
                    },
                    {
                        "number": 64,
                        "time": 105.97187499999973,
                        "value": 0.9921259842519685
                    },
                    {
                        "number": 64,
                        "time": 106.19999999999973,
                        "value": 0
                    },
                    {
                        "number": 64,
                        "time": 106.28812499999974,
                        "value": 0.9921259842519685
                    },
                    {
                        "number": 64,
                        "time": 107.10124999999974,
                        "value": 0
                    },
                    {
                        "number": 64,
                        "time": 107.16249999999974,
                        "value": 0.9921259842519685
                    },
                    {
                        "number": 64,
                        "time": 107.40812499999976,
                        "value": 0
                    },
                    {
                        "number": 64,
                        "time": 107.49312499999975,
                        "value": 0.9921259842519685
                    },
                    {
                        "number": 64,
                        "time": 107.70749999999975,
                        "value": 0
                    },
                    {
                        "number": 64,
                        "time": 107.77249999999975,
                        "value": 0.9921259842519685
                    },
                    {
                        "number": 64,
                        "time": 107.99999999999976,
                        "value": 0
                    },
                    {
                        "number": 64,
                        "time": 108.05749999999976,
                        "value": 0.9921259842519685
                    },
                    {
                        "number": 64,
                        "time": 108.89999999999976,
                        "value": 0
                    },
                    {
                        "number": 64,
                        "time": 108.97249999999977,
                        "value": 0.9921259842519685
                    },
                    {
                        "number": 64,
                        "time": 109.20749999999977,
                        "value": 0
                    },
                    {
                        "number": 64,
                        "time": 109.27749999999976,
                        "value": 0.9921259842519685
                    },
                    {
                        "number": 64,
                        "time": 109.50874999999978,
                        "value": 0
                    },
                    {
                        "number": 64,
                        "time": 109.57749999999977,
                        "value": 0.9921259842519685
                    },
                    {
                        "number": 64,
                        "time": 109.79999999999978,
                        "value": 0
                    },
                    {
                        "number": 64,
                        "time": 109.86437499999978,
                        "value": 0.9921259842519685
                    },
                    {
                        "number": 64,
                        "time": 110.69999999999978,
                        "value": 0
                    },
                    {
                        "number": 64,
                        "time": 110.82874999999977,
                        "value": 1
                    },
                    {
                        "number": 64,
                        "time": 111.59999999999975,
                        "value": 0
                    },
                    {
                        "number": 64,
                        "time": 111.68812499999976,
                        "value": 1
                    },
                    {
                        "number": 64,
                        "time": 112.49999999999974,
                        "value": 0
                    },
                    {
                        "number": 64,
                        "time": 114.39249999999976,
                        "value": 0.9921259842519685
                    },
                    {
                        "number": 64,
                        "time": 115.19999999999975,
                        "value": 0
                    },
                    {
                        "number": 64,
                        "time": 115.28374999999974,
                        "value": 1
                    },
                    {
                        "number": 64,
                        "time": 116.09999999999974,
                        "value": 0
                    },
                    {
                        "number": 64,
                        "time": 116.17187499999974,
                        "value": 0.9921259842519685
                    },
                    {
                        "number": 64,
                        "time": 116.40562499999974,
                        "value": 0
                    },
                    {
                        "number": 64,
                        "time": 116.47187499999974,
                        "value": 0.9921259842519685
                    },
                    {
                        "number": 64,
                        "time": 116.70374999999974,
                        "value": 0
                    },
                    {
                        "number": 64,
                        "time": 116.78562499999974,
                        "value": 0.9921259842519685
                    },
                    {
                        "number": 64,
                        "time": 117.00062499999974,
                        "value": 0
                    },
                    {
                        "number": 64,
                        "time": 117.09999999999974,
                        "value": 0.984251968503937
                    },
                    {
                        "number": 64,
                        "time": 117.92874999999974,
                        "value": 0
                    },
                    {
                        "number": 64,
                        "time": 118.01437499999973,
                        "value": 0.9921259842519685
                    },
                    {
                        "number": 64,
                        "time": 118.80187499999973,
                        "value": 0
                    },
                    {
                        "number": 64,
                        "time": 118.91937499999973,
                        "value": 1
                    },
                    {
                        "number": 64,
                        "time": 119.69999999999973,
                        "value": 0
                    },
                    {
                        "number": 64,
                        "time": 119.77937499999973,
                        "value": 0.9921259842519685
                    },
                    {
                        "number": 64,
                        "time": 120.00749999999974,
                        "value": 0
                    },
                    {
                        "number": 64,
                        "time": 120.08812499999974,
                        "value": 0.9921259842519685
                    },
                    {
                        "number": 64,
                        "time": 120.30437499999974,
                        "value": 0
                    },
                    {
                        "number": 64,
                        "time": 120.37937499999974,
                        "value": 0.9921259842519685
                    },
                    {
                        "number": 64,
                        "time": 120.60499999999975,
                        "value": 0
                    },
                    {
                        "number": 64,
                        "time": 120.67937499999975,
                        "value": 1
                    },
                    {
                        "number": 64,
                        "time": 121.49999999999974,
                        "value": 0
                    },
                    {
                        "number": 64,
                        "time": 121.59249999999975,
                        "value": 0.984251968503937
                    },
                    {
                        "number": 64,
                        "time": 122.39999999999975,
                        "value": 0
                    },
                    {
                        "number": 64,
                        "time": 122.47874999999975,
                        "value": 0.9921259842519685
                    },
                    {
                        "number": 64,
                        "time": 123.30312499999974,
                        "value": 0
                    },
                    {
                        "number": 64,
                        "time": 123.37187499999973,
                        "value": 0.9921259842519685
                    },
                    {
                        "number": 64,
                        "time": 123.60687499999973,
                        "value": 0
                    },
                    {
                        "number": 64,
                        "time": 123.68562499999973,
                        "value": 0.9921259842519685
                    },
                    {
                        "number": 64,
                        "time": 123.90874999999974,
                        "value": 0
                    },
                    {
                        "number": 64,
                        "time": 123.98562499999974,
                        "value": 0.984251968503937
                    },
                    {
                        "number": 64,
                        "time": 124.19999999999975,
                        "value": 0
                    },
                    {
                        "number": 64,
                        "time": 124.27187499999975,
                        "value": 0.984251968503937
                    },
                    {
                        "number": 64,
                        "time": 125.10124999999975,
                        "value": 0
                    },
                    {
                        "number": 64,
                        "time": 125.19687499999975,
                        "value": 1
                    },
                    {
                        "number": 64,
                        "time": 126.00374999999974,
                        "value": 0
                    },
                    {
                        "number": 64,
                        "time": 126.13687499999975,
                        "value": 1
                    },
                    {
                        "number": 64,
                        "time": 126.89999999999974,
                        "value": 0
                    },
                    {
                        "number": 64,
                        "time": 127.00249999999974,
                        "value": 0.984251968503937
                    },
                    {
                        "number": 64,
                        "time": 127.20749999999974,
                        "value": 0
                    },
                    {
                        "number": 64,
                        "time": 127.28687499999974,
                        "value": 0.984251968503937
                    },
                    {
                        "number": 64,
                        "time": 127.50749999999974,
                        "value": 0
                    },
                    {
                        "number": 64,
                        "time": 127.58687499999974,
                        "value": 0.984251968503937
                    },
                    {
                        "number": 64,
                        "time": 127.79999999999974,
                        "value": 0
                    },
                    {
                        "number": 64,
                        "time": 127.87499999999974,
                        "value": 0.984251968503937
                    },
                    {
                        "number": 64,
                        "time": 128.69999999999973,
                        "value": 0
                    },
                    {
                        "number": 64,
                        "time": 128.78812499999972,
                        "value": 0.9921259842519685
                    },
                    {
                        "number": 64,
                        "time": 129.5999999999997,
                        "value": 0
                    },
                    {
                        "number": 64,
                        "time": 129.7287499999997,
                        "value": 0.9921259842519685
                    },
                    {
                        "number": 64,
                        "time": 130.5031249999997,
                        "value": 0.007874015748031496
                    },
                    {
                        "number": 64,
                        "time": 130.6149999999997,
                        "value": 1
                    },
                    {
                        "number": 64,
                        "time": 131.39999999999972,
                        "value": 0
                    },
                    {
                        "number": 64,
                        "time": 131.50187499999973,
                        "value": 0.9921259842519685
                    },
                    {
                        "number": 64,
                        "time": 132.29999999999973,
                        "value": 0
                    },
                    {
                        "number": 64,
                        "time": 132.43687499999973,
                        "value": 0.984251968503937
                    },
                    {
                        "number": 64,
                        "time": 133.20437499999974,
                        "value": 0
                    },
                    {
                        "number": 64,
                        "time": 133.34999999999974,
                        "value": 1
                    },
                    {
                        "number": 64,
                        "time": 134.10437499999975,
                        "value": 0
                    },
                    {
                        "number": 64,
                        "time": 134.99999999999974,
                        "value": 0
                    },
                    {
                        "number": 64,
                        "time": 135.11937499999974,
                        "value": 0.984251968503937
                    },
                    {
                        "number": 64,
                        "time": 135.89999999999972,
                        "value": 0
                    },
                    {
                        "number": 64,
                        "time": 136.0062499999997,
                        "value": 1
                    },
                    {
                        "number": 64,
                        "time": 136.7999999999997,
                        "value": 0
                    },
                    {
                        "number": 64,
                        "time": 136.9106249999997,
                        "value": 0.9921259842519685
                    },
                    {
                        "number": 64,
                        "time": 137.7037499999997,
                        "value": 0
                    },
                    {
                        "number": 64,
                        "time": 138.6031249999997,
                        "value": 0
                    },
                    {
                        "number": 64,
                        "time": 138.7193749999997,
                        "value": 1
                    },
                    {
                        "number": 64,
                        "time": 139.4999999999997,
                        "value": 0
                    },
                    {
                        "number": 64,
                        "time": 139.6106249999997,
                        "value": 0.9921259842519685
                    },
                    {
                        "number": 64,
                        "time": 140.4031249999997,
                        "value": 0
                    },
                    {
                        "number": 64,
                        "time": 140.5062499999997,
                        "value": 0.984251968503937
                    },
                    {
                        "number": 64,
                        "time": 141.2999999999997,
                        "value": 0
                    },
                    {
                        "number": 64,
                        "time": 141.3837499999997,
                        "value": 0.984251968503937
                    },
                    {
                        "number": 64,
                        "time": 141.90749999999971,
                        "value": 0
                    },
                    {
                        "number": 64,
                        "time": 141.9749999999997,
                        "value": 0.9921259842519685
                    },
                    {
                        "number": 64,
                        "time": 142.5049999999997,
                        "value": 0
                    },
                    {
                        "number": 64,
                        "time": 142.5662499999997,
                        "value": 0.968503937007874
                    },
                    {
                        "number": 64,
                        "time": 143.0999999999997,
                        "value": 0
                    },
                    {
                        "number": 64,
                        "time": 143.2074999999997,
                        "value": 0.984251968503937
                    },
                    {
                        "number": 64,
                        "time": 143.9999999999997,
                        "value": 0
                    },
                    {
                        "number": 64,
                        "time": 144.08562499999968,
                        "value": 0.9921259842519685
                    },
                    {
                        "number": 64,
                        "time": 144.89999999999966,
                        "value": 0
                    },
                    {
                        "number": 64,
                        "time": 144.97499999999965,
                        "value": 1
                    },
                    {
                        "number": 64,
                        "time": 145.51187499999966,
                        "value": 0
                    },
                    {
                        "number": 64,
                        "time": 145.58562499999965,
                        "value": 0.9921259842519685
                    },
                    {
                        "number": 64,
                        "time": 146.10312499999966,
                        "value": 0
                    },
                    {
                        "number": 64,
                        "time": 146.14999999999966,
                        "value": 0.9921259842519685
                    },
                    {
                        "number": 64,
                        "time": 146.69999999999968,
                        "value": 0
                    },
                    {
                        "number": 64,
                        "time": 148.5681249999997,
                        "value": 0.9921259842519685
                    },
                    {
                        "number": 64,
                        "time": 150.3093749999997,
                        "value": 0
                    },
                    {
                        "number": 64,
                        "time": 150.3931249999997,
                        "value": 0.9921259842519685
                    },
                    {
                        "number": 64,
                        "time": 152.0999999999997,
                        "value": 0
                    },
                    {
                        "number": 64,
                        "time": 174.67499999999984,
                        "value": 1
                    },
                    {
                        "number": 64,
                        "time": 174.91187499999984,
                        "value": 0
                    },
                    {
                        "number": 64,
                        "time": 175.03562499999984,
                        "value": 1
                    },
                    {
                        "number": 64,
                        "time": 175.51062499999983,
                        "value": 0
                    },
                    {
                        "number": 64,
                        "time": 176.43937499999984,
                        "value": 1
                    },
                    {
                        "number": 64,
                        "time": 176.71249999999984,
                        "value": 0
                    },
                    {
                        "number": 64,
                        "time": 176.77062499999982,
                        "value": 1
                    },
                    {
                        "number": 64,
                        "time": 177.3124999999998,
                        "value": 0
                    },
                    {
                        "number": 64,
                        "time": 178.2499999999998,
                        "value": 1
                    },
                    {
                        "number": 64,
                        "time": 178.5124999999998,
                        "value": 0
                    },
                    {
                        "number": 64,
                        "time": 178.5999999999998,
                        "value": 1
                    },
                    {
                        "number": 64,
                        "time": 179.11124999999979,
                        "value": 0
                    },
                    {
                        "number": 64,
                        "time": 180.06062499999976,
                        "value": 1
                    },
                    {
                        "number": 64,
                        "time": 180.30749999999975,
                        "value": 0
                    },
                    {
                        "number": 64,
                        "time": 180.35374999999974,
                        "value": 1
                    },
                    {
                        "number": 64,
                        "time": 180.91437499999972,
                        "value": 0
                    },
                    {
                        "number": 64,
                        "time": 181.0074999999997,
                        "value": 1
                    },
                    {
                        "number": 64,
                        "time": 181.2074999999997,
                        "value": 0
                    },
                    {
                        "number": 64,
                        "time": 181.2968749999997,
                        "value": 1
                    },
                    {
                        "number": 64,
                        "time": 181.8024999999997,
                        "value": 0
                    },
                    {
                        "number": 64,
                        "time": 181.8837499999997,
                        "value": 1
                    },
                    {
                        "number": 64,
                        "time": 182.1074999999997,
                        "value": 0
                    },
                    {
                        "number": 64,
                        "time": 182.1881249999997,
                        "value": 1
                    },
                    {
                        "number": 64,
                        "time": 182.40749999999971,
                        "value": 0
                    },
                    {
                        "number": 64,
                        "time": 182.5149999999997,
                        "value": 1
                    },
                    {
                        "number": 64,
                        "time": 182.7099999999997,
                        "value": 0
                    },
                    {
                        "number": 64,
                        "time": 184.5393749999997,
                        "value": 1
                    },
                    {
                        "number": 64,
                        "time": 184.8056249999997,
                        "value": 0
                    },
                    {
                        "number": 64,
                        "time": 184.8774999999997,
                        "value": 1
                    },
                    {
                        "number": 64,
                        "time": 185.41062499999973,
                        "value": 0
                    },
                    {
                        "number": 64,
                        "time": 186.34499999999971,
                        "value": 1
                    },
                    {
                        "number": 64,
                        "time": 186.6087499999997,
                        "value": 0
                    },
                    {
                        "number": 64,
                        "time": 186.6862499999997,
                        "value": 1
                    },
                    {
                        "number": 64,
                        "time": 187.20312499999972,
                        "value": 0
                    },
                    {
                        "number": 64,
                        "time": 187.27499999999972,
                        "value": 1
                    },
                    {
                        "number": 64,
                        "time": 187.5074999999997,
                        "value": 0
                    },
                    {
                        "number": 64,
                        "time": 187.5824999999997,
                        "value": 1
                    },
                    {
                        "number": 64,
                        "time": 188.1024999999997,
                        "value": 0
                    },
                    {
                        "number": 64,
                        "time": 188.1606249999997,
                        "value": 1
                    },
                    {
                        "number": 64,
                        "time": 188.4106249999997,
                        "value": 0
                    },
                    {
                        "number": 64,
                        "time": 188.4749999999997,
                        "value": 1
                    },
                    {
                        "number": 64,
                        "time": 189.0124999999997,
                        "value": 0
                    },
                    {
                        "number": 64,
                        "time": 196.24999999999974,
                        "value": 1
                    },
                    {
                        "number": 64,
                        "time": 197.11249999999973,
                        "value": 0
                    },
                    {
                        "number": 64,
                        "time": 197.18374999999972,
                        "value": 1
                    },
                    {
                        "number": 64,
                        "time": 198.0099999999997,
                        "value": 0
                    },
                    {
                        "number": 64,
                        "time": 225.93562499999982,
                        "value": 1
                    },
                    {
                        "number": 64,
                        "time": 226.80437499999982,
                        "value": 0
                    },
                    {
                        "number": 64,
                        "time": 226.88562499999983,
                        "value": 1
                    },
                    {
                        "number": 64,
                        "time": 227.70312499999986,
                        "value": 0
                    },
                    {
                        "number": 64,
                        "time": 227.77312499999985,
                        "value": 0.984251968503937
                    },
                    {
                        "number": 64,
                        "time": 228.00374999999985,
                        "value": 0
                    },
                    {
                        "number": 64,
                        "time": 228.08499999999987,
                        "value": 0.984251968503937
                    },
                    {
                        "number": 64,
                        "time": 228.30499999999986,
                        "value": 0
                    },
                    {
                        "number": 64,
                        "time": 228.35312499999986,
                        "value": 0.984251968503937
                    },
                    {
                        "number": 64,
                        "time": 228.59999999999988,
                        "value": 0
                    },
                    {
                        "number": 64,
                        "time": 228.6718749999999,
                        "value": 0.9921259842519685
                    },
                    {
                        "number": 64,
                        "time": 229.50374999999988,
                        "value": 0
                    },
                    {
                        "number": 64,
                        "time": 229.59749999999988,
                        "value": 0.9921259842519685
                    },
                    {
                        "number": 64,
                        "time": 230.40374999999986,
                        "value": 0
                    },
                    {
                        "number": 64,
                        "time": 230.51062499999986,
                        "value": 0.984251968503937
                    },
                    {
                        "number": 64,
                        "time": 231.29999999999987,
                        "value": 0
                    },
                    {
                        "number": 64,
                        "time": 231.41437499999986,
                        "value": 0.9921259842519685
                    },
                    {
                        "number": 64,
                        "time": 232.21187499999988,
                        "value": 0
                    },
                    {
                        "number": 64,
                        "time": 232.28249999999989,
                        "value": 1
                    },
                    {
                        "number": 64,
                        "time": 233.09999999999988,
                        "value": 0
                    },
                    {
                        "number": 64,
                        "time": 233.1787499999999,
                        "value": 1
                    },
                    {
                        "number": 64,
                        "time": 233.9999999999999,
                        "value": 0
                    },
                    {
                        "number": 64,
                        "time": 234.0787499999999,
                        "value": 0.9921259842519685
                    },
                    {
                        "number": 64,
                        "time": 234.8999999999999,
                        "value": 0
                    },
                    {
                        "number": 64,
                        "time": 234.9649999999999,
                        "value": 0.984251968503937
                    },
                    {
                        "number": 64,
                        "time": 235.2043749999999,
                        "value": 0
                    },
                    {
                        "number": 64,
                        "time": 235.2649999999999,
                        "value": 0.984251968503937
                    },
                    {
                        "number": 64,
                        "time": 235.5037499999999,
                        "value": 0
                    },
                    {
                        "number": 64,
                        "time": 235.56937499999992,
                        "value": 0.984251968503937
                    },
                    {
                        "number": 64,
                        "time": 235.80374999999992,
                        "value": 0
                    },
                    {
                        "number": 64,
                        "time": 235.88249999999994,
                        "value": 1
                    },
                    {
                        "number": 64,
                        "time": 236.70249999999993,
                        "value": 0
                    },
                    {
                        "number": 64,
                        "time": 236.79749999999993,
                        "value": 1
                    },
                    {
                        "number": 64,
                        "time": 237.60312499999992,
                        "value": 0
                    },
                    {
                        "number": 64,
                        "time": 237.69999999999993,
                        "value": 1
                    },
                    {
                        "number": 64,
                        "time": 238.5037499999999,
                        "value": 0
                    },
                    {
                        "number": 64,
                        "time": 238.6218749999999,
                        "value": 1
                    },
                    {
                        "number": 64,
                        "time": 239.40312499999993,
                        "value": 0
                    },
                    {
                        "number": 64,
                        "time": 239.49999999999994,
                        "value": 1
                    },
                    {
                        "number": 64,
                        "time": 240.29999999999993,
                        "value": 0
                    },
                    {
                        "number": 64,
                        "time": 240.41062499999992,
                        "value": 0.9921259842519685
                    },
                    {
                        "number": 64,
                        "time": 241.19999999999993,
                        "value": 0
                    },
                    {
                        "number": 64,
                        "time": 241.28937499999992,
                        "value": 0.9921259842519685
                    },
                    {
                        "number": 64,
                        "time": 242.10437499999992,
                        "value": 0
                    },
                    {
                        "number": 64,
                        "time": 242.19312499999992,
                        "value": 0.984251968503937
                    },
                    {
                        "number": 64,
                        "time": 242.40312499999993,
                        "value": 0
                    },
                    {
                        "number": 64,
                        "time": 242.47187499999993,
                        "value": 0.984251968503937
                    },
                    {
                        "number": 64,
                        "time": 242.70312499999994,
                        "value": 0
                    },
                    {
                        "number": 64,
                        "time": 242.78562499999995,
                        "value": 0.984251968503937
                    },
                    {
                        "number": 64,
                        "time": 243.00749999999994,
                        "value": 0
                    },
                    {
                        "number": 64,
                        "time": 243.08249999999992,
                        "value": 0.984251968503937
                    },
                    {
                        "number": 64,
                        "time": 243.90312499999993,
                        "value": 0
                    },
                    {
                        "number": 64,
                        "time": 244.00187499999993,
                        "value": 0.9763779527559056
                    },
                    {
                        "number": 64,
                        "time": 244.80374999999992,
                        "value": 0
                    },
                    {
                        "number": 64,
                        "time": 244.88249999999994,
                        "value": 0.9921259842519685
                    },
                    {
                        "number": 64,
                        "time": 245.70312499999994,
                        "value": 0
                    },
                    {
                        "number": 64,
                        "time": 245.79312499999995,
                        "value": 0.984251968503937
                    },
                    {
                        "number": 64,
                        "time": 246.00249999999994,
                        "value": 0
                    },
                    {
                        "number": 64,
                        "time": 246.07874999999993,
                        "value": 0.984251968503937
                    },
                    {
                        "number": 64,
                        "time": 246.30687499999993,
                        "value": 0
                    },
                    {
                        "number": 64,
                        "time": 246.39312499999994,
                        "value": 0.984251968503937
                    },
                    {
                        "number": 64,
                        "time": 246.60687499999995,
                        "value": 0
                    },
                    {
                        "number": 64,
                        "time": 246.70374999999996,
                        "value": 1
                    },
                    {
                        "number": 64,
                        "time": 247.50437499999995,
                        "value": 0
                    },
                    {
                        "number": 64,
                        "time": 247.58562499999996,
                        "value": 0.984251968503937
                    },
                    {
                        "number": 64,
                        "time": 247.80374999999995,
                        "value": 0
                    },
                    {
                        "number": 64,
                        "time": 247.87874999999994,
                        "value": 0.984251968503937
                    },
                    {
                        "number": 64,
                        "time": 248.10312499999995,
                        "value": 0
                    },
                    {
                        "number": 64,
                        "time": 248.18562499999996,
                        "value": 0.984251968503937
                    },
                    {
                        "number": 64,
                        "time": 248.40687499999996,
                        "value": 0
                    },
                    {
                        "number": 64,
                        "time": 248.47187499999995,
                        "value": 0.984251968503937
                    },
                    {
                        "number": 64,
                        "time": 249.00374999999994,
                        "value": 0
                    },
                    {
                        "number": 64,
                        "time": 249.35374999999996,
                        "value": 0.984251968503937
                    },
                    {
                        "number": 64,
                        "time": 249.90437499999996,
                        "value": 0
                    },
                    {
                        "number": 64,
                        "time": 250.25374999999997,
                        "value": 0.984251968503937
                    },
                    {
                        "number": 64,
                        "time": 250.80562499999996,
                        "value": 0
                    },
                    {
                        "number": 64,
                        "time": 251.14687499999997,
                        "value": 0.984251968503937
                    },
                    {
                        "number": 64,
                        "time": 251.70749999999995,
                        "value": 0
                    },
                    {
                        "number": 64,
                        "time": 253.83312500000005,
                        "value": 0.984251968503937
                    },
                    {
                        "number": 64,
                        "time": 254.05000000000004,
                        "value": 0
                    },
                    {
                        "number": 64,
                        "time": 254.71437500000005,
                        "value": 0.984251968503937
                    },
                    {
                        "number": 64,
                        "time": 254.94312500000004,
                        "value": 0
                    }
                ],
                "91": [
                    {
                        "number": 91,
                        "time": 0,
                        "value": 1
                    },
                    {
                        "number": 91,
                        "time": 46.805000000000014,
                        "value": 0.9921259842519685
                    }
                ]
            },
            "id": 2,
            "name": "Piano left",
            "instrumentNumber": 0,
            "instrument": "acoustic grand piano",
            "instrumentFamily": "piano",
            "channelNumber": 0,
            "isPercussion": false
        },
        {
            "startTime": 0,
            "duration": 0,
            "length": 0,
            "notes": [],
            "controlChanges": {},
            "id": 3,
            "name": "Schubert: Impromptus No.2 in Eb, Op. 90 - D 899"
        },
        {
            "startTime": 0,
            "duration": 0,
            "length": 0,
            "notes": [],
            "controlChanges": {},
            "id": 4,
            "name": "Copyright  1997 by Bernd Krueger"
        },
        {
            "startTime": 0,
            "duration": 0,
            "length": 0,
            "notes": [],
            "controlChanges": {},
            "id": 5,
            "name": "http://www.piano-midi.de"
        },
        {
            "startTime": 0,
            "duration": 0,
            "length": 0,
            "notes": [],
            "controlChanges": {},
            "id": 6,
            "name": "Edition: 2014-03-18"
        }
    ]
}