{
    "header": {
        "PPQ": 480,
        "timeSignature": [
            4,
            4
        ],
        "bpm": 210.88000224938668,
        "name": "Sonate D960, 1. Satz"
    },
    "startTime": 0,
    "duration": 548.8429379999836,
    "tracks": [
        {
            "startTime": 0,
            "duration": 0,
            "length": 0,
            "notes": [],
            "controlChanges": {},
            "id": 0,
            "name": "Sonate D960, 1. Satz"
        },
        {
            "startTime": 0.853566,
            "duration": 545.4286739999819,
            "length": 5268,
            "notes": [
                {
                    "name": "F4",
                    "midi": 65,
                    "time": 0.853566,
                    "velocity": 0.31496062992125984,
                    "duration": 0.28452199999999994
                },
                {
                    "name": "A#4",
                    "midi": 70,
                    "time": 0.853566,
                    "velocity": 0.3779527559055118,
                    "duration": 0.28452199999999994
                },
                {
                    "name": "A#3",
                    "midi": 58,
                    "time": 0.853566,
                    "velocity": 0.28346456692913385,
                    "duration": 0.28452199999999994
                },
                {
                    "name": "A#4",
                    "midi": 70,
                    "time": 1.138088,
                    "velocity": 0.3937007874015748,
                    "duration": 0.28452199999999994
                },
                {
                    "name": "A#3",
                    "midi": 58,
                    "time": 1.138088,
                    "velocity": 0.29133858267716534,
                    "duration": 0.28452199999999994
                },
                {
                    "name": "F4",
                    "midi": 65,
                    "time": 1.138088,
                    "velocity": 0.33070866141732286,
                    "duration": 0.28452199999999994
                },
                {
                    "name": "A4",
                    "midi": 69,
                    "time": 1.42261,
                    "velocity": 0.3779527559055118,
                    "duration": 0.28452199999999994
                },
                {
                    "name": "A3",
                    "midi": 57,
                    "time": 1.42261,
                    "velocity": 0.2440944881889764,
                    "duration": 0.28452199999999994
                },
                {
                    "name": "F4",
                    "midi": 65,
                    "time": 1.42261,
                    "velocity": 0.31496062992125984,
                    "duration": 0.28452199999999994
                },
                {
                    "name": "A#4",
                    "midi": 70,
                    "time": 1.7071319999999999,
                    "velocity": 0.3937007874015748,
                    "duration": 0.28452199999999994
                },
                {
                    "name": "A#3",
                    "midi": 58,
                    "time": 1.7071319999999999,
                    "velocity": 0.29133858267716534,
                    "duration": 0.28452199999999994
                },
                {
                    "name": "F4",
                    "midi": 65,
                    "time": 1.7071319999999999,
                    "velocity": 0.33070866141732286,
                    "duration": 0.28452199999999994
                },
                {
                    "name": "C5",
                    "midi": 72,
                    "time": 1.9916539999999998,
                    "velocity": 0.3779527559055118,
                    "duration": 0.28452200000000016
                },
                {
                    "name": "C4",
                    "midi": 60,
                    "time": 1.9916539999999998,
                    "velocity": 0.28346456692913385,
                    "duration": 0.28452200000000016
                },
                {
                    "name": "F4",
                    "midi": 65,
                    "time": 1.9916539999999998,
                    "velocity": 0.31496062992125984,
                    "duration": 0.28452200000000016
                },
                {
                    "name": "D4",
                    "midi": 62,
                    "time": 2.276176,
                    "velocity": 0.31496062992125984,
                    "duration": 0.8535660000000003
                },
                {
                    "name": "F4",
                    "midi": 65,
                    "time": 2.276176,
                    "velocity": 0.3543307086614173,
                    "duration": 0.8535660000000003
                },
                {
                    "name": "D5",
                    "midi": 74,
                    "time": 2.276176,
                    "velocity": 0.41732283464566927,
                    "duration": 0.8535660000000003
                },
                {
                    "name": "C4",
                    "midi": 60,
                    "time": 3.1297420000000002,
                    "velocity": 0.29133858267716534,
                    "duration": 0.14226099999999997
                },
                {
                    "name": "F4",
                    "midi": 65,
                    "time": 3.1297420000000002,
                    "velocity": 0.33070866141732286,
                    "duration": 0.14226099999999997
                },
                {
                    "name": "C5",
                    "midi": 72,
                    "time": 3.1297420000000002,
                    "velocity": 0.3937007874015748,
                    "duration": 0.14226099999999997
                },
                {
                    "name": "A#3",
                    "midi": 58,
                    "time": 3.272003,
                    "velocity": 0.2755905511811024,
                    "duration": 0.14226099999999997
                },
                {
                    "name": "F4",
                    "midi": 65,
                    "time": 3.272003,
                    "velocity": 0.30708661417322836,
                    "duration": 0.14226099999999997
                },
                {
                    "name": "A#4",
                    "midi": 70,
                    "time": 3.272003,
                    "velocity": 0.36220472440944884,
                    "duration": 0.14226099999999997
                },
                {
                    "name": "C4",
                    "midi": 60,
                    "time": 3.414264,
                    "velocity": 0.2755905511811024,
                    "duration": 0.2679248833333334
                },
                {
                    "name": "C5",
                    "midi": 72,
                    "time": 3.414264,
                    "velocity": 0.3700787401574803,
                    "duration": 0.2679248833333334
                },
                {
                    "name": "F4",
                    "midi": 65,
                    "time": 3.414264,
                    "velocity": 0.30708661417322836,
                    "duration": 0.2679248833333334
                },
                {
                    "name": "F4",
                    "midi": 65,
                    "time": 3.698786,
                    "velocity": 0.2992125984251969,
                    "duration": 0.2679248833333334
                },
                {
                    "name": "C4",
                    "midi": 60,
                    "time": 3.698786,
                    "velocity": 0.2677165354330709,
                    "duration": 0.2679248833333334
                },
                {
                    "name": "C5",
                    "midi": 72,
                    "time": 3.698786,
                    "velocity": 0.36220472440944884,
                    "duration": 0.2679248833333334
                },
                {
                    "name": "F4",
                    "midi": 65,
                    "time": 3.983308,
                    "velocity": 0.2992125984251969,
                    "duration": 0.2679248833333334
                },
                {
                    "name": "C4",
                    "midi": 60,
                    "time": 3.983308,
                    "velocity": 0.2677165354330709,
                    "duration": 0.2679248833333334
                },
                {
                    "name": "C5",
                    "midi": 72,
                    "time": 3.983308,
                    "velocity": 0.36220472440944884,
                    "duration": 0.2679248833333334
                },
                {
                    "name": "F4",
                    "midi": 65,
                    "time": 4.26783,
                    "velocity": 0.33070866141732286,
                    "duration": 0.14226100000000041
                },
                {
                    "name": "A#3",
                    "midi": 58,
                    "time": 4.26783,
                    "velocity": 0.29133858267716534,
                    "duration": 0.14226100000000041
                },
                {
                    "name": "A#4",
                    "midi": 70,
                    "time": 4.26783,
                    "velocity": 0.3937007874015748,
                    "duration": 0.14226100000000041
                },
                {
                    "name": "F4",
                    "midi": 65,
                    "time": 4.410091,
                    "velocity": 0.2992125984251969,
                    "duration": 0.14226100000000041
                },
                {
                    "name": "A3",
                    "midi": 57,
                    "time": 4.410091,
                    "velocity": 0.23622047244094488,
                    "duration": 0.14226100000000041
                },
                {
                    "name": "A4",
                    "midi": 69,
                    "time": 4.410091,
                    "velocity": 0.3543307086614173,
                    "duration": 0.14226100000000041
                },
                {
                    "name": "A#3",
                    "midi": 58,
                    "time": 4.552352000000001,
                    "velocity": 0.29133858267716534,
                    "duration": 0.8535659999999998
                },
                {
                    "name": "A#4",
                    "midi": 70,
                    "time": 4.552352000000001,
                    "velocity": 0.4094488188976378,
                    "duration": 0.8535659999999998
                },
                {
                    "name": "F4",
                    "midi": 65,
                    "time": 4.552352000000001,
                    "velocity": 0.4094488188976378,
                    "duration": 0.28452199999999994
                },
                {
                    "name": "D#4",
                    "midi": 63,
                    "time": 4.836874000000001,
                    "velocity": 0.33070866141732286,
                    "duration": 0.28452199999999994
                },
                {
                    "name": "G4",
                    "midi": 67,
                    "time": 4.836874000000001,
                    "velocity": 0.3937007874015748,
                    "duration": 0.28452199999999994
                },
                {
                    "name": "D4",
                    "midi": 62,
                    "time": 5.121396000000001,
                    "velocity": 0.28346456692913385,
                    "duration": 0.28452199999999994
                },
                {
                    "name": "F4",
                    "midi": 65,
                    "time": 5.121396000000001,
                    "velocity": 0.3464566929133858,
                    "duration": 0.28452199999999994
                },
                {
                    "name": "A#4",
                    "midi": 70,
                    "time": 5.405918000000001,
                    "velocity": 0.48031496062992124,
                    "duration": 0.28452199999999994
                },
                {
                    "name": "D#4",
                    "midi": 63,
                    "time": 5.690440000000001,
                    "velocity": 0.3543307086614173,
                    "duration": 0.8535659999999998
                },
                {
                    "name": "A#4",
                    "midi": 70,
                    "time": 5.690440000000001,
                    "velocity": 0.4015748031496063,
                    "duration": 0.8535659999999998
                },
                {
                    "name": "D#5",
                    "midi": 75,
                    "time": 5.690440000000001,
                    "velocity": 0.47244094488188976,
                    "duration": 0.8535659999999998
                },
                {
                    "name": "D4",
                    "midi": 62,
                    "time": 6.544006,
                    "velocity": 0.3228346456692913,
                    "duration": 0.14226100000000041
                },
                {
                    "name": "D5",
                    "midi": 74,
                    "time": 6.544006,
                    "velocity": 0.4330708661417323,
                    "duration": 0.14226100000000041
                },
                {
                    "name": "A#4",
                    "midi": 70,
                    "time": 6.544006,
                    "velocity": 0.36220472440944884,
                    "duration": 0.14226100000000041
                },
                {
                    "name": "A#4",
                    "midi": 70,
                    "time": 6.686267000000001,
                    "velocity": 0.33070866141732286,
                    "duration": 0.14226100000000041
                },
                {
                    "name": "C4",
                    "midi": 60,
                    "time": 6.686267000000001,
                    "velocity": 0.29133858267716534,
                    "duration": 0.14226100000000041
                },
                {
                    "name": "C5",
                    "midi": 72,
                    "time": 6.686267000000001,
                    "velocity": 0.3937007874015748,
                    "duration": 0.14226100000000041
                },
                {
                    "name": "A#4",
                    "midi": 70,
                    "time": 6.828528000000001,
                    "velocity": 0.3543307086614173,
                    "duration": 0.28452199999999994
                },
                {
                    "name": "D4",
                    "midi": 62,
                    "time": 6.828528000000001,
                    "velocity": 0.3543307086614173,
                    "duration": 0.28452199999999994
                },
                {
                    "name": "D5",
                    "midi": 74,
                    "time": 6.828528000000001,
                    "velocity": 0.41732283464566927,
                    "duration": 0.28452199999999994
                },
                {
                    "name": "F4",
                    "midi": 65,
                    "time": 7.113050000000001,
                    "velocity": 0.33070866141732286,
                    "duration": 0.28452199999999994
                },
                {
                    "name": "A3",
                    "midi": 57,
                    "time": 7.113050000000001,
                    "velocity": 0.29133858267716534,
                    "duration": 0.28452199999999994
                },
                {
                    "name": "A4",
                    "midi": 69,
                    "time": 7.113050000000001,
                    "velocity": 0.3937007874015748,
                    "duration": 0.28452199999999994
                },
                {
                    "name": "F4",
                    "midi": 65,
                    "time": 7.397572000000001,
                    "velocity": 0.3464566929133858,
                    "duration": 0.28452199999999994
                },
                {
                    "name": "A#3",
                    "midi": 58,
                    "time": 7.397572000000001,
                    "velocity": 0.30708661417322836,
                    "duration": 0.28452199999999994
                },
                {
                    "name": "A#4",
                    "midi": 70,
                    "time": 7.397572000000001,
                    "velocity": 0.4094488188976378,
                    "duration": 0.28452199999999994
                },
                {
                    "name": "F4",
                    "midi": 65,
                    "time": 7.682094000000001,
                    "velocity": 0.33070866141732286,
                    "duration": 0.28452199999999994
                },
                {
                    "name": "C5",
                    "midi": 72,
                    "time": 7.682094000000001,
                    "velocity": 0.3937007874015748,
                    "duration": 0.28452199999999994
                },
                {
                    "name": "C4",
                    "midi": 60,
                    "time": 7.682094000000001,
                    "velocity": 0.29133858267716534,
                    "duration": 0.28452199999999994
                },
                {
                    "name": "A#4",
                    "midi": 70,
                    "time": 7.966616000000001,
                    "velocity": 0.4094488188976378,
                    "duration": 0.28452199999999994
                },
                {
                    "name": "A#3",
                    "midi": 58,
                    "time": 7.966616000000001,
                    "velocity": 0.30708661417322836,
                    "duration": 0.28452199999999994
                },
                {
                    "name": "F4",
                    "midi": 65,
                    "time": 7.966616000000001,
                    "velocity": 0.3464566929133858,
                    "duration": 0.28452199999999994
                },
                {
                    "name": "A#4",
                    "midi": 70,
                    "time": 8.251138000000001,
                    "velocity": 0.3464566929133858,
                    "duration": 0.28452200000000083
                },
                {
                    "name": "D5",
                    "midi": 74,
                    "time": 8.251138000000001,
                    "velocity": 0.4094488188976378,
                    "duration": 0.28452200000000083
                },
                {
                    "name": "D4",
                    "midi": 62,
                    "time": 8.251138000000001,
                    "velocity": 0.30708661417322836,
                    "duration": 0.28452200000000083
                },
                {
                    "name": "F4",
                    "midi": 65,
                    "time": 8.251138000000001,
                    "velocity": 0.3464566929133858,
                    "duration": 0.28452200000000083
                },
                {
                    "name": "F4",
                    "midi": 65,
                    "time": 8.535660000000002,
                    "velocity": 0.33070866141732286,
                    "duration": 1.849393000000001
                },
                {
                    "name": "C4",
                    "midi": 60,
                    "time": 8.535660000000002,
                    "velocity": 0.29133858267716534,
                    "duration": 1.849393000000001
                },
                {
                    "name": "C5",
                    "midi": 72,
                    "time": 8.535660000000002,
                    "velocity": 0.3937007874015748,
                    "duration": 1.849393000000001
                },
                {
                    "name": "A4",
                    "midi": 69,
                    "time": 8.535660000000002,
                    "velocity": 0.33070866141732286,
                    "duration": 1.849393000000001
                },
                {
                    "name": "F4",
                    "midi": 65,
                    "time": 11.096358000000002,
                    "velocity": 0.31496062992125984,
                    "duration": 0.28452200000000083
                },
                {
                    "name": "A#3",
                    "midi": 58,
                    "time": 11.096358000000002,
                    "velocity": 0.28346456692913385,
                    "duration": 0.28452200000000083
                },
                {
                    "name": "A#4",
                    "midi": 70,
                    "time": 11.096358000000002,
                    "velocity": 0.3779527559055118,
                    "duration": 0.28452200000000083
                },
                {
                    "name": "F4",
                    "midi": 65,
                    "time": 11.380880000000003,
                    "velocity": 0.33070866141732286,
                    "duration": 0.28452200000000083
                },
                {
                    "name": "A#3",
                    "midi": 58,
                    "time": 11.380880000000003,
                    "velocity": 0.29133858267716534,
                    "duration": 0.28452200000000083
                },
                {
                    "name": "A#4",
                    "midi": 70,
                    "time": 11.380880000000003,
                    "velocity": 0.3937007874015748,
                    "duration": 0.28452200000000083
                },
                {
                    "name": "F4",
                    "midi": 65,
                    "time": 11.665402000000004,
                    "velocity": 0.31496062992125984,
                    "duration": 0.28452200000000083
                },
                {
                    "name": "A3",
                    "midi": 57,
                    "time": 11.665402000000004,
                    "velocity": 0.2440944881889764,
                    "duration": 0.28452200000000083
                },
                {
                    "name": "A4",
                    "midi": 69,
                    "time": 11.665402000000004,
                    "velocity": 0.3779527559055118,
                    "duration": 0.28452200000000083
                },
                {
                    "name": "F4",
                    "midi": 65,
                    "time": 11.949924000000005,
                    "velocity": 0.33070866141732286,
                    "duration": 0.28452200000000083
                },
                {
                    "name": "A#3",
                    "midi": 58,
                    "time": 11.949924000000005,
                    "velocity": 0.29133858267716534,
                    "duration": 0.28452200000000083
                },
                {
                    "name": "A#4",
                    "midi": 70,
                    "time": 11.949924000000005,
                    "velocity": 0.3937007874015748,
                    "duration": 0.28452200000000083
                },
                {
                    "name": "F4",
                    "midi": 65,
                    "time": 12.234446000000005,
                    "velocity": 0.31496062992125984,
                    "duration": 0.28452200000000083
                },
                {
                    "name": "C5",
                    "midi": 72,
                    "time": 12.234446000000005,
                    "velocity": 0.3779527559055118,
                    "duration": 0.28452200000000083
                },
                {
                    "name": "C4",
                    "midi": 60,
                    "time": 12.234446000000005,
                    "velocity": 0.28346456692913385,
                    "duration": 0.28452200000000083
                },
                {
                    "name": "D5",
                    "midi": 74,
                    "time": 12.518968000000006,
                    "velocity": 0.41732283464566927,
                    "duration": 0.8535660000000007
                },
                {
                    "name": "D4",
                    "midi": 62,
                    "time": 12.518968000000006,
                    "velocity": 0.31496062992125984,
                    "duration": 0.8535660000000007
                },
                {
                    "name": "F4",
                    "midi": 65,
                    "time": 12.518968000000006,
                    "velocity": 0.3543307086614173,
                    "duration": 0.8535660000000007
                },
                {
                    "name": "C5",
                    "midi": 72,
                    "time": 13.372534000000007,
                    "velocity": 0.3937007874015748,
                    "duration": 0.14226099999999953
                },
                {
                    "name": "C4",
                    "midi": 60,
                    "time": 13.372534000000007,
                    "velocity": 0.29133858267716534,
                    "duration": 0.14226099999999953
                },
                {
                    "name": "F4",
                    "midi": 65,
                    "time": 13.372534000000007,
                    "velocity": 0.33070866141732286,
                    "duration": 0.14226099999999953
                },
                {
                    "name": "A#4",
                    "midi": 70,
                    "time": 13.514795000000007,
                    "velocity": 0.36220472440944884,
                    "duration": 0.14226099999999953
                },
                {
                    "name": "A#3",
                    "midi": 58,
                    "time": 13.514795000000007,
                    "velocity": 0.2755905511811024,
                    "duration": 0.14226099999999953
                },
                {
                    "name": "F4",
                    "midi": 65,
                    "time": 13.514795000000007,
                    "velocity": 0.30708661417322836,
                    "duration": 0.14226099999999953
                },
                {
                    "name": "C5",
                    "midi": 72,
                    "time": 13.657056000000006,
                    "velocity": 0.3700787401574803,
                    "duration": 0.2815582291666665
                },
                {
                    "name": "F4",
                    "midi": 65,
                    "time": 13.657056000000006,
                    "velocity": 0.30708661417322836,
                    "duration": 0.2815582291666665
                },
                {
                    "name": "C4",
                    "midi": 60,
                    "time": 13.657056000000006,
                    "velocity": 0.2755905511811024,
                    "duration": 0.2815582291666665
                },
                {
                    "name": "F4",
                    "midi": 65,
                    "time": 13.941578000000005,
                    "velocity": 0.2992125984251969,
                    "duration": 0.2815582291666665
                },
                {
                    "name": "C4",
                    "midi": 60,
                    "time": 13.941578000000005,
                    "velocity": 0.2677165354330709,
                    "duration": 0.2815582291666665
                },
                {
                    "name": "C5",
                    "midi": 72,
                    "time": 13.941578000000005,
                    "velocity": 0.36220472440944884,
                    "duration": 0.2815582291666665
                },
                {
                    "name": "F4",
                    "midi": 65,
                    "time": 14.226100000000004,
                    "velocity": 0.2992125984251969,
                    "duration": 0.2815582291666665
                },
                {
                    "name": "C4",
                    "midi": 60,
                    "time": 14.226100000000004,
                    "velocity": 0.2677165354330709,
                    "duration": 0.2815582291666665
                },
                {
                    "name": "C5",
                    "midi": 72,
                    "time": 14.226100000000004,
                    "velocity": 0.36220472440944884,
                    "duration": 0.2815582291666665
                },
                {
                    "name": "F4",
                    "midi": 65,
                    "time": 14.510622000000003,
                    "velocity": 0.33070866141732286,
                    "duration": 0.14226099999999953
                },
                {
                    "name": "A#3",
                    "midi": 58,
                    "time": 14.510622000000003,
                    "velocity": 0.29133858267716534,
                    "duration": 0.14226099999999953
                },
                {
                    "name": "A#4",
                    "midi": 70,
                    "time": 14.510622000000003,
                    "velocity": 0.3937007874015748,
                    "duration": 0.14226099999999953
                },
                {
                    "name": "F4",
                    "midi": 65,
                    "time": 14.652883000000003,
                    "velocity": 0.2992125984251969,
                    "duration": 0.14226099999999953
                },
                {
                    "name": "A3",
                    "midi": 57,
                    "time": 14.652883000000003,
                    "velocity": 0.23622047244094488,
                    "duration": 0.14226099999999953
                },
                {
                    "name": "A4",
                    "midi": 69,
                    "time": 14.652883000000003,
                    "velocity": 0.3543307086614173,
                    "duration": 0.14226099999999953
                },
                {
                    "name": "A#3",
                    "midi": 58,
                    "time": 14.795144000000002,
                    "velocity": 0.29133858267716534,
                    "duration": 0.8535660000000025
                },
                {
                    "name": "A#4",
                    "midi": 70,
                    "time": 14.795144000000002,
                    "velocity": 0.4094488188976378,
                    "duration": 0.8535660000000025
                },
                {
                    "name": "F4",
                    "midi": 65,
                    "time": 14.795144000000002,
                    "velocity": 0.4094488188976378,
                    "duration": 0.28452200000000083
                },
                {
                    "name": "D#4",
                    "midi": 63,
                    "time": 15.079666000000003,
                    "velocity": 0.33070866141732286,
                    "duration": 0.28452200000000083
                },
                {
                    "name": "G4",
                    "midi": 67,
                    "time": 15.079666000000003,
                    "velocity": 0.3937007874015748,
                    "duration": 0.28452200000000083
                },
                {
                    "name": "D4",
                    "midi": 62,
                    "time": 15.364188000000004,
                    "velocity": 0.28346456692913385,
                    "duration": 0.28452200000000083
                },
                {
                    "name": "F4",
                    "midi": 65,
                    "time": 15.364188000000004,
                    "velocity": 0.3464566929133858,
                    "duration": 0.28452200000000083
                },
                {
                    "name": "F4",
                    "midi": 65,
                    "time": 15.648710000000005,
                    "velocity": 0.4015748031496063,
                    "duration": 0.28452200000000083
                },
                {
                    "name": "D4",
                    "midi": 62,
                    "time": 15.648710000000005,
                    "velocity": 0.3543307086614173,
                    "duration": 0.28452200000000083
                },
                {
                    "name": "D5",
                    "midi": 74,
                    "time": 15.648710000000005,
                    "velocity": 0.48031496062992124,
                    "duration": 0.28452200000000083
                },
                {
                    "name": "G4",
                    "midi": 67,
                    "time": 15.933232000000006,
                    "velocity": 0.4015748031496063,
                    "duration": 0.8535659999999989
                },
                {
                    "name": "D4",
                    "midi": 62,
                    "time": 15.933232000000006,
                    "velocity": 0.3543307086614173,
                    "duration": 0.8535659999999989
                },
                {
                    "name": "D5",
                    "midi": 74,
                    "time": 15.933232000000006,
                    "velocity": 0.47244094488188976,
                    "duration": 0.8535659999999989
                },
                {
                    "name": "G4",
                    "midi": 67,
                    "time": 16.786798000000005,
                    "velocity": 0.36220472440944884,
                    "duration": 0.1422610000000013
                },
                {
                    "name": "C5",
                    "midi": 72,
                    "time": 16.786798000000005,
                    "velocity": 0.4330708661417323,
                    "duration": 0.1422610000000013
                },
                {
                    "name": "C4",
                    "midi": 60,
                    "time": 16.786798000000005,
                    "velocity": 0.3228346456692913,
                    "duration": 0.1422610000000013
                },
                {
                    "name": "B4",
                    "midi": 71,
                    "time": 16.929059000000006,
                    "velocity": 0.3937007874015748,
                    "duration": 0.1422610000000013
                },
                {
                    "name": "B3",
                    "midi": 59,
                    "time": 16.929059000000006,
                    "velocity": 0.29133858267716534,
                    "duration": 0.1422610000000013
                },
                {
                    "name": "G4",
                    "midi": 67,
                    "time": 16.929059000000006,
                    "velocity": 0.33070866141732286,
                    "duration": 0.1422610000000013
                },
                {
                    "name": "D#5",
                    "midi": 75,
                    "time": 17.071320000000007,
                    "velocity": 0.5118110236220472,
                    "duration": 0.28452199999999905
                },
                {
                    "name": "D#4",
                    "midi": 63,
                    "time": 17.071320000000007,
                    "velocity": 0.41732283464566927,
                    "duration": 0.28452199999999905
                },
                {
                    "name": "G4",
                    "midi": 67,
                    "time": 17.071320000000007,
                    "velocity": 0.4251968503937008,
                    "duration": 0.28452199999999905
                },
                {
                    "name": "D5",
                    "midi": 74,
                    "time": 17.355842000000006,
                    "velocity": 0.4645669291338583,
                    "duration": 0.28452199999999905
                },
                {
                    "name": "D4",
                    "midi": 62,
                    "time": 17.355842000000006,
                    "velocity": 0.3937007874015748,
                    "duration": 0.28452199999999905
                },
                {
                    "name": "G4",
                    "midi": 67,
                    "time": 17.355842000000006,
                    "velocity": 0.3937007874015748,
                    "duration": 0.28452199999999905
                },
                {
                    "name": "C5",
                    "midi": 72,
                    "time": 17.640364000000005,
                    "velocity": 0.44881889763779526,
                    "duration": 0.28452199999999905
                },
                {
                    "name": "C4",
                    "midi": 60,
                    "time": 17.640364000000005,
                    "velocity": 0.3779527559055118,
                    "duration": 0.28452199999999905
                },
                {
                    "name": "G4",
                    "midi": 67,
                    "time": 17.640364000000005,
                    "velocity": 0.3779527559055118,
                    "duration": 0.28452199999999905
                },
                {
                    "name": "C4",
                    "midi": 60,
                    "time": 17.924886000000004,
                    "velocity": 0.3543307086614173,
                    "duration": 0.28452199999999905
                },
                {
                    "name": "A4",
                    "midi": 69,
                    "time": 17.924886000000004,
                    "velocity": 0.4015748031496063,
                    "duration": 0.28452199999999905
                },
                {
                    "name": "C5",
                    "midi": 72,
                    "time": 17.924886000000004,
                    "velocity": 0.48031496062992124,
                    "duration": 0.28452199999999905
                },
                {
                    "name": "F4",
                    "midi": 65,
                    "time": 18.209408000000003,
                    "velocity": 0.3543307086614173,
                    "duration": 0.8535660000000007
                },
                {
                    "name": "C5",
                    "midi": 72,
                    "time": 18.209408000000003,
                    "velocity": 0.47244094488188976,
                    "duration": 0.8535660000000007
                },
                {
                    "name": "C4",
                    "midi": 60,
                    "time": 18.209408000000003,
                    "velocity": 0.3543307086614173,
                    "duration": 0.8535660000000007
                },
                {
                    "name": "A4",
                    "midi": 69,
                    "time": 18.209408000000003,
                    "velocity": 0.4015748031496063,
                    "duration": 0.8535660000000007
                },
                {
                    "name": "A#4",
                    "midi": 70,
                    "time": 19.062974000000004,
                    "velocity": 0.4330708661417323,
                    "duration": 0.1422610000000013
                },
                {
                    "name": "A#3",
                    "midi": 58,
                    "time": 19.062974000000004,
                    "velocity": 0.3228346456692913,
                    "duration": 0.1422610000000013
                },
                {
                    "name": "F4",
                    "midi": 65,
                    "time": 19.062974000000004,
                    "velocity": 0.36220472440944884,
                    "duration": 0.1422610000000013
                },
                {
                    "name": "A4",
                    "midi": 69,
                    "time": 19.205235000000005,
                    "velocity": 0.3937007874015748,
                    "duration": 0.1422610000000013
                },
                {
                    "name": "A3",
                    "midi": 57,
                    "time": 19.205235000000005,
                    "velocity": 0.29133858267716534,
                    "duration": 0.1422610000000013
                },
                {
                    "name": "F4",
                    "midi": 65,
                    "time": 19.205235000000005,
                    "velocity": 0.33070866141732286,
                    "duration": 0.1422610000000013
                },
                {
                    "name": "D4",
                    "midi": 62,
                    "time": 19.347496000000007,
                    "velocity": 0.4015748031496063,
                    "duration": 0.28452199999999905
                },
                {
                    "name": "F4",
                    "midi": 65,
                    "time": 19.347496000000007,
                    "velocity": 0.4330708661417323,
                    "duration": 0.28452199999999905
                },
                {
                    "name": "D5",
                    "midi": 74,
                    "time": 19.347496000000007,
                    "velocity": 0.5118110236220472,
                    "duration": 0.28452199999999905
                },
                {
                    "name": "A3",
                    "midi": 57,
                    "time": 19.632018000000006,
                    "velocity": 0.3700787401574803,
                    "duration": 0.28452199999999905
                },
                {
                    "name": "F4",
                    "midi": 65,
                    "time": 19.632018000000006,
                    "velocity": 0.3700787401574803,
                    "duration": 0.28452199999999905
                },
                {
                    "name": "A4",
                    "midi": 69,
                    "time": 19.632018000000006,
                    "velocity": 0.4409448818897638,
                    "duration": 0.28452199999999905
                },
                {
                    "name": "A#3",
                    "midi": 58,
                    "time": 19.916540000000005,
                    "velocity": 0.3937007874015748,
                    "duration": 0.28452199999999905
                },
                {
                    "name": "F4",
                    "midi": 65,
                    "time": 19.916540000000005,
                    "velocity": 0.3937007874015748,
                    "duration": 0.28452199999999905
                },
                {
                    "name": "A#4",
                    "midi": 70,
                    "time": 19.916540000000005,
                    "velocity": 0.4645669291338583,
                    "duration": 0.28452199999999905
                },
                {
                    "name": "F4",
                    "midi": 65,
                    "time": 20.201062000000004,
                    "velocity": 0.3543307086614173,
                    "duration": 0.28452199999999905
                },
                {
                    "name": "C5",
                    "midi": 72,
                    "time": 20.201062000000004,
                    "velocity": 0.4251968503937008,
                    "duration": 0.28452199999999905
                },
                {
                    "name": "C4",
                    "midi": 60,
                    "time": 20.201062000000004,
                    "velocity": 0.31496062992125984,
                    "duration": 0.28452199999999905
                },
                {
                    "name": "A4",
                    "midi": 69,
                    "time": 20.201062000000004,
                    "velocity": 0.3543307086614173,
                    "duration": 0.28452199999999905
                },
                {
                    "name": "F4",
                    "midi": 65,
                    "time": 20.485584000000003,
                    "velocity": 0.31496062992125984,
                    "duration": 0.711305000000003
                },
                {
                    "name": "C5",
                    "midi": 72,
                    "time": 20.485584000000003,
                    "velocity": 0.4251968503937008,
                    "duration": 0.5690440000000017
                },
                {
                    "name": "C4",
                    "midi": 60,
                    "time": 20.485584000000003,
                    "velocity": 0.31496062992125984,
                    "duration": 0.5690440000000017
                },
                {
                    "name": "A4",
                    "midi": 69,
                    "time": 20.485584000000003,
                    "velocity": 0.3543307086614173,
                    "duration": 0.5690440000000017
                },
                {
                    "name": "A#3",
                    "midi": 58,
                    "time": 21.054628000000005,
                    "velocity": 0.3779527559055118,
                    "duration": 0.1422610000000013
                },
                {
                    "name": "A#4",
                    "midi": 70,
                    "time": 21.054628000000005,
                    "velocity": 0.3779527559055118,
                    "duration": 0.1422610000000013
                },
                {
                    "name": "A#4",
                    "midi": 70,
                    "time": 22.477238000000007,
                    "velocity": 0.4015748031496063,
                    "duration": 0.28452199999999905
                },
                {
                    "name": "A#4",
                    "midi": 70,
                    "time": 22.761760000000006,
                    "velocity": 0.4094488188976378,
                    "duration": 0.28452199999999905
                },
                {
                    "name": "G#4",
                    "midi": 68,
                    "time": 23.046282000000005,
                    "velocity": 0.4015748031496063,
                    "duration": 0.28452199999999905
                },
                {
                    "name": "A#4",
                    "midi": 70,
                    "time": 23.330804000000004,
                    "velocity": 0.4094488188976378,
                    "duration": 0.28452199999999905
                },
                {
                    "name": "B4",
                    "midi": 71,
                    "time": 23.615326000000003,
                    "velocity": 0.3937007874015748,
                    "duration": 0.28452199999999905
                },
                {
                    "name": "C#5",
                    "midi": 73,
                    "time": 23.899848000000002,
                    "velocity": 0.4094488188976378,
                    "duration": 0.8535660000000007
                },
                {
                    "name": "B4",
                    "midi": 71,
                    "time": 24.753414000000003,
                    "velocity": 0.4409448818897638,
                    "duration": 0.1422610000000013
                },
                {
                    "name": "A#4",
                    "midi": 70,
                    "time": 24.895675000000004,
                    "velocity": 0.41732283464566927,
                    "duration": 0.1422610000000013
                },
                {
                    "name": "D#5",
                    "midi": 75,
                    "time": 25.037936000000006,
                    "velocity": 0.4566929133858268,
                    "duration": 0.1422610000000013
                },
                {
                    "name": "D#5",
                    "midi": 75,
                    "time": 25.322458000000008,
                    "velocity": 0.4251968503937008,
                    "duration": 0.1422610000000013
                },
                {
                    "name": "D#5",
                    "midi": 75,
                    "time": 25.60698000000001,
                    "velocity": 0.4251968503937008,
                    "duration": 0.1422610000000013
                },
                {
                    "name": "F5",
                    "midi": 77,
                    "time": 25.891502000000013,
                    "velocity": 0.4409448818897638,
                    "duration": 0.1422610000000013
                },
                {
                    "name": "F#5",
                    "midi": 78,
                    "time": 26.033763000000015,
                    "velocity": 0.4015748031496063,
                    "duration": 0.1422610000000013
                },
                {
                    "name": "C#5",
                    "midi": 73,
                    "time": 26.176024000000016,
                    "velocity": 0.4251968503937008,
                    "duration": 0.8535660000000007
                },
                {
                    "name": "B4",
                    "midi": 71,
                    "time": 27.029590000000017,
                    "velocity": 0.4094488188976378,
                    "duration": 0.1422610000000013
                },
                {
                    "name": "A#4",
                    "midi": 70,
                    "time": 27.171851000000018,
                    "velocity": 0.4015748031496063,
                    "duration": 0.1422610000000013
                },
                {
                    "name": "B4",
                    "midi": 71,
                    "time": 27.31411200000002,
                    "velocity": 0.4094488188976378,
                    "duration": 0.28452199999999905
                },
                {
                    "name": "D#5",
                    "midi": 75,
                    "time": 27.59863400000002,
                    "velocity": 0.4094488188976378,
                    "duration": 0.28452199999999905
                },
                {
                    "name": "G#4",
                    "midi": 68,
                    "time": 27.883156000000017,
                    "velocity": 0.4094488188976378,
                    "duration": 0.28452199999999905
                },
                {
                    "name": "B4",
                    "midi": 71,
                    "time": 28.167678000000016,
                    "velocity": 0.4094488188976378,
                    "duration": 0.28452199999999905
                },
                {
                    "name": "A#4",
                    "midi": 70,
                    "time": 28.452200000000015,
                    "velocity": 0.4251968503937008,
                    "duration": 0.28452199999999905
                },
                {
                    "name": "F#4",
                    "midi": 66,
                    "time": 28.736722000000015,
                    "velocity": 0.4015748031496063,
                    "duration": 0.42678300000000036
                },
                {
                    "name": "F#5",
                    "midi": 78,
                    "time": 28.736722000000015,
                    "velocity": 0.48031496062992124,
                    "duration": 0.42678300000000036
                },
                {
                    "name": "F4",
                    "midi": 65,
                    "time": 29.163505000000015,
                    "velocity": 0.3543307086614173,
                    "duration": 0.1422610000000013
                },
                {
                    "name": "F5",
                    "midi": 77,
                    "time": 29.163505000000015,
                    "velocity": 0.41732283464566927,
                    "duration": 0.1422610000000013
                },
                {
                    "name": "D#5",
                    "midi": 75,
                    "time": 29.305766000000016,
                    "velocity": 0.4409448818897638,
                    "duration": 0.1422610000000013
                },
                {
                    "name": "D#4",
                    "midi": 63,
                    "time": 29.305766000000016,
                    "velocity": 0.3700787401574803,
                    "duration": 0.1422610000000013
                },
                {
                    "name": "C#4",
                    "midi": 61,
                    "time": 29.448027000000017,
                    "velocity": 0.33858267716535434,
                    "duration": 0.1422610000000013
                },
                {
                    "name": "C#5",
                    "midi": 73,
                    "time": 29.448027000000017,
                    "velocity": 0.4015748031496063,
                    "duration": 0.1422610000000013
                },
                {
                    "name": "B3",
                    "midi": 59,
                    "time": 29.59028800000002,
                    "velocity": 0.36220472440944884,
                    "duration": 0.28452199999999905
                },
                {
                    "name": "B4",
                    "midi": 71,
                    "time": 29.59028800000002,
                    "velocity": 0.4251968503937008,
                    "duration": 0.28452199999999905
                },
                {
                    "name": "D#5",
                    "midi": 75,
                    "time": 29.874810000000018,
                    "velocity": 0.4409448818897638,
                    "duration": 0.28452199999999905
                },
                {
                    "name": "G#4",
                    "midi": 68,
                    "time": 30.159332000000017,
                    "velocity": 0.4251968503937008,
                    "duration": 0.28452199999999905
                },
                {
                    "name": "A#4",
                    "midi": 70,
                    "time": 30.443854000000016,
                    "velocity": 0.4094488188976378,
                    "duration": 0.1422610000000013
                },
                {
                    "name": "B4",
                    "midi": 71,
                    "time": 30.586115000000017,
                    "velocity": 0.4094488188976378,
                    "duration": 0.1422610000000013
                },
                {
                    "name": "A#4",
                    "midi": 70,
                    "time": 30.72837600000002,
                    "velocity": 0.4330708661417323,
                    "duration": 0.1422610000000013
                },
                {
                    "name": "C#5",
                    "midi": 73,
                    "time": 30.87063700000002,
                    "velocity": 0.4094488188976378,
                    "duration": 0.1422610000000013
                },
                {
                    "name": "A#5",
                    "midi": 82,
                    "time": 31.01289800000002,
                    "velocity": 0.4409448818897638,
                    "duration": 0.1422610000000013
                },
                {
                    "name": "F#5",
                    "midi": 78,
                    "time": 31.155159000000022,
                    "velocity": 0.4094488188976378,
                    "duration": 0.1422610000000013
                },
                {
                    "name": "C#5",
                    "midi": 73,
                    "time": 31.297420000000024,
                    "velocity": 0.4409448818897638,
                    "duration": 0.1422610000000013
                },
                {
                    "name": "A#4",
                    "midi": 70,
                    "time": 31.439681000000025,
                    "velocity": 0.4094488188976378,
                    "duration": 0.1422610000000013
                },
                {
                    "name": "F#5",
                    "midi": 78,
                    "time": 31.581942000000026,
                    "velocity": 0.4330708661417323,
                    "duration": 0.1422610000000013
                },
                {
                    "name": "D5",
                    "midi": 74,
                    "time": 31.724203000000028,
                    "velocity": 0.4094488188976378,
                    "duration": 0.1422610000000013
                },
                {
                    "name": "D#5",
                    "midi": 75,
                    "time": 31.86646400000003,
                    "velocity": 0.4330708661417323,
                    "duration": 0.14226099999999775
                },
                {
                    "name": "B4",
                    "midi": 71,
                    "time": 32.00872500000003,
                    "velocity": 0.4094488188976378,
                    "duration": 0.14226099999999775
                },
                {
                    "name": "B5",
                    "midi": 83,
                    "time": 32.150986000000024,
                    "velocity": 0.4409448818897638,
                    "duration": 0.14226099999999775
                },
                {
                    "name": "G#5",
                    "midi": 80,
                    "time": 32.29324700000002,
                    "velocity": 0.4251968503937008,
                    "duration": 0.14226099999999775
                },
                {
                    "name": "F5",
                    "midi": 77,
                    "time": 32.43550800000002,
                    "velocity": 0.4566929133858268,
                    "duration": 0.14226099999999775
                },
                {
                    "name": "G#5",
                    "midi": 80,
                    "time": 32.57776900000002,
                    "velocity": 0.4409448818897638,
                    "duration": 0.14226099999999775
                },
                {
                    "name": "C#6",
                    "midi": 85,
                    "time": 32.720030000000015,
                    "velocity": 0.4566929133858268,
                    "duration": 0.14226099999999775
                },
                {
                    "name": "A5",
                    "midi": 81,
                    "time": 32.86229100000001,
                    "velocity": 0.4251968503937008,
                    "duration": 0.14226099999999775
                },
                {
                    "name": "A#5",
                    "midi": 82,
                    "time": 33.00455200000001,
                    "velocity": 0.44881889763779526,
                    "duration": 0.14226099999999775
                },
                {
                    "name": "F#5",
                    "midi": 78,
                    "time": 33.14681300000001,
                    "velocity": 0.4251968503937008,
                    "duration": 0.14226099999999775
                },
                {
                    "name": "A#5",
                    "midi": 82,
                    "time": 33.28907400000001,
                    "velocity": 0.44881889763779526,
                    "duration": 0.07113050000000243
                },
                {
                    "name": "F#5",
                    "midi": 78,
                    "time": 33.36020450000001,
                    "velocity": 0.4015748031496063,
                    "duration": 0.07113050000000243
                },
                {
                    "name": "A#5",
                    "midi": 82,
                    "time": 33.43133500000001,
                    "velocity": 0.4409448818897638,
                    "duration": 0.07113050000000243
                },
                {
                    "name": "F#5",
                    "midi": 78,
                    "time": 33.502465500000014,
                    "velocity": 0.3937007874015748,
                    "duration": 0.07113050000000243
                },
                {
                    "name": "C#5",
                    "midi": 73,
                    "time": 33.573596000000016,
                    "velocity": 0.4409448818897638,
                    "duration": 0.07113050000000243
                },
                {
                    "name": "A#4",
                    "midi": 70,
                    "time": 33.64472650000002,
                    "velocity": 0.4094488188976378,
                    "duration": 0.07113050000000243
                },
                {
                    "name": "C#5",
                    "midi": 73,
                    "time": 33.71585700000002,
                    "velocity": 0.4409448818897638,
                    "duration": 0.07113050000000243
                },
                {
                    "name": "A#4",
                    "midi": 70,
                    "time": 33.78698750000002,
                    "velocity": 0.41732283464566927,
                    "duration": 0.07113050000000243
                },
                {
                    "name": "F#5",
                    "midi": 78,
                    "time": 33.858118000000026,
                    "velocity": 0.4566929133858268,
                    "duration": 0.07113050000000243
                },
                {
                    "name": "D5",
                    "midi": 74,
                    "time": 33.92924850000003,
                    "velocity": 0.41732283464566927,
                    "duration": 0.07113050000000243
                },
                {
                    "name": "F#5",
                    "midi": 78,
                    "time": 34.00037900000003,
                    "velocity": 0.44881889763779526,
                    "duration": 0.07113050000000243
                },
                {
                    "name": "D5",
                    "midi": 74,
                    "time": 34.07150950000003,
                    "velocity": 0.4094488188976378,
                    "duration": 0.07113050000000243
                },
                {
                    "name": "D#5",
                    "midi": 75,
                    "time": 34.142640000000036,
                    "velocity": 0.44881889763779526,
                    "duration": 0.07113050000000243
                },
                {
                    "name": "B4",
                    "midi": 71,
                    "time": 34.21377050000004,
                    "velocity": 0.4094488188976378,
                    "duration": 0.07113050000000243
                },
                {
                    "name": "D#5",
                    "midi": 75,
                    "time": 34.28490100000004,
                    "velocity": 0.4251968503937008,
                    "duration": 0.07113050000000243
                },
                {
                    "name": "B4",
                    "midi": 71,
                    "time": 34.35603150000004,
                    "velocity": 0.4094488188976378,
                    "duration": 0.07113050000000243
                },
                {
                    "name": "B5",
                    "midi": 83,
                    "time": 34.427162000000045,
                    "velocity": 0.44881889763779526,
                    "duration": 0.07113050000000243
                },
                {
                    "name": "G#5",
                    "midi": 80,
                    "time": 34.49829250000005,
                    "velocity": 0.4015748031496063,
                    "duration": 0.07113050000000243
                },
                {
                    "name": "B5",
                    "midi": 83,
                    "time": 34.56942300000005,
                    "velocity": 0.4409448818897638,
                    "duration": 0.07113050000000243
                },
                {
                    "name": "G#5",
                    "midi": 80,
                    "time": 34.64055350000005,
                    "velocity": 0.3937007874015748,
                    "duration": 0.07113050000000243
                },
                {
                    "name": "F5",
                    "midi": 77,
                    "time": 34.711684000000055,
                    "velocity": 0.4409448818897638,
                    "duration": 0.07113050000000243
                },
                {
                    "name": "G#5",
                    "midi": 80,
                    "time": 34.78281450000006,
                    "velocity": 0.4094488188976378,
                    "duration": 0.07113050000000243
                },
                {
                    "name": "F5",
                    "midi": 77,
                    "time": 34.85394500000006,
                    "velocity": 0.4409448818897638,
                    "duration": 0.07113050000000243
                },
                {
                    "name": "G#5",
                    "midi": 80,
                    "time": 34.92507550000006,
                    "velocity": 0.41732283464566927,
                    "duration": 0.07113050000000243
                },
                {
                    "name": "C#6",
                    "midi": 85,
                    "time": 34.996206000000065,
                    "velocity": 0.4566929133858268,
                    "duration": 0.07113050000000243
                },
                {
                    "name": "A5",
                    "midi": 81,
                    "time": 35.06733650000007,
                    "velocity": 0.41732283464566927,
                    "duration": 0.07113050000000243
                },
                {
                    "name": "C#6",
                    "midi": 85,
                    "time": 35.13846700000007,
                    "velocity": 0.44881889763779526,
                    "duration": 0.07113050000000243
                },
                {
                    "name": "A5",
                    "midi": 81,
                    "time": 35.20959750000007,
                    "velocity": 0.4094488188976378,
                    "duration": 0.07113050000000243
                },
                {
                    "name": "A#5",
                    "midi": 82,
                    "time": 35.280728000000074,
                    "velocity": 0.44881889763779526,
                    "duration": 0.07113050000000243
                },
                {
                    "name": "A5",
                    "midi": 81,
                    "time": 35.35185850000008,
                    "velocity": 0.41732283464566927,
                    "duration": 0.07113050000000243
                },
                {
                    "name": "A#5",
                    "midi": 82,
                    "time": 35.42298900000008,
                    "velocity": 0.4094488188976378,
                    "duration": 0.07113050000000243
                },
                {
                    "name": "F5",
                    "midi": 77,
                    "time": 35.49411950000008,
                    "velocity": 0.4094488188976378,
                    "duration": 0.07113050000000243
                },
                {
                    "name": "F#5",
                    "midi": 78,
                    "time": 35.565250000000084,
                    "velocity": 0.44881889763779526,
                    "duration": 0.07113050000000243
                },
                {
                    "name": "F5",
                    "midi": 77,
                    "time": 35.63638050000009,
                    "velocity": 0.4015748031496063,
                    "duration": 0.07113050000000243
                },
                {
                    "name": "F#5",
                    "midi": 78,
                    "time": 35.70751100000009,
                    "velocity": 0.4015748031496063,
                    "duration": 0.07113050000000243
                },
                {
                    "name": "C5",
                    "midi": 72,
                    "time": 35.77864150000009,
                    "velocity": 0.3937007874015748,
                    "duration": 0.07113050000000243
                },
                {
                    "name": "C#5",
                    "midi": 73,
                    "time": 35.849772000000094,
                    "velocity": 0.4330708661417323,
                    "duration": 0.07113050000000243
                },
                {
                    "name": "C5",
                    "midi": 72,
                    "time": 35.920902500000096,
                    "velocity": 0.4015748031496063,
                    "duration": 0.07113050000000243
                },
                {
                    "name": "C#5",
                    "midi": 73,
                    "time": 35.9920330000001,
                    "velocity": 0.4015748031496063,
                    "duration": 0.07113050000000243
                },
                {
                    "name": "A4",
                    "midi": 69,
                    "time": 36.0631635000001,
                    "velocity": 0.4015748031496063,
                    "duration": 0.07113050000000243
                },
                {
                    "name": "A#4",
                    "midi": 70,
                    "time": 36.134294000000104,
                    "velocity": 0.4251968503937008,
                    "duration": 0.07113050000000243
                },
                {
                    "name": "A4",
                    "midi": 69,
                    "time": 36.205424500000106,
                    "velocity": 0.3700787401574803,
                    "duration": 0.07113050000000243
                },
                {
                    "name": "A#4",
                    "midi": 70,
                    "time": 36.27655500000011,
                    "velocity": 0.3858267716535433,
                    "duration": 0.07113050000000243
                },
                {
                    "name": "F4",
                    "midi": 65,
                    "time": 36.34768550000011,
                    "velocity": 0.3700787401574803,
                    "duration": 0.07113050000000243
                },
                {
                    "name": "F#4",
                    "midi": 66,
                    "time": 36.41881600000011,
                    "velocity": 0.44881889763779526,
                    "duration": 0.07113050000000243
                },
                {
                    "name": "A5",
                    "midi": 81,
                    "time": 36.489946500000116,
                    "velocity": 0.41732283464566927,
                    "duration": 0.07113050000000243
                },
                {
                    "name": "A#5",
                    "midi": 82,
                    "time": 36.56107700000012,
                    "velocity": 0.4094488188976378,
                    "duration": 0.07113050000000243
                },
                {
                    "name": "F5",
                    "midi": 77,
                    "time": 36.63220750000012,
                    "velocity": 0.4094488188976378,
                    "duration": 0.07113050000000243
                },
                {
                    "name": "F#5",
                    "midi": 78,
                    "time": 36.70333800000012,
                    "velocity": 0.44881889763779526,
                    "duration": 0.07113050000000243
                },
                {
                    "name": "F5",
                    "midi": 77,
                    "time": 36.774468500000125,
                    "velocity": 0.4015748031496063,
                    "duration": 0.07113050000000243
                },
                {
                    "name": "F#5",
                    "midi": 78,
                    "time": 36.84559900000013,
                    "velocity": 0.4015748031496063,
                    "duration": 0.07113050000000243
                },
                {
                    "name": "C5",
                    "midi": 72,
                    "time": 36.91672950000013,
                    "velocity": 0.3937007874015748,
                    "duration": 0.07113050000000243
                },
                {
                    "name": "C#5",
                    "midi": 73,
                    "time": 36.98786000000013,
                    "velocity": 0.4330708661417323,
                    "duration": 0.07113050000000243
                },
                {
                    "name": "C5",
                    "midi": 72,
                    "time": 37.058990500000135,
                    "velocity": 0.4015748031496063,
                    "duration": 0.07113050000000243
                },
                {
                    "name": "C#5",
                    "midi": 73,
                    "time": 37.13012100000014,
                    "velocity": 0.4015748031496063,
                    "duration": 0.07113050000000243
                },
                {
                    "name": "A4",
                    "midi": 69,
                    "time": 37.20125150000014,
                    "velocity": 0.4015748031496063,
                    "duration": 0.07113050000000243
                },
                {
                    "name": "A#4",
                    "midi": 70,
                    "time": 37.27238200000014,
                    "velocity": 0.4251968503937008,
                    "duration": 0.07113050000000243
                },
                {
                    "name": "A4",
                    "midi": 69,
                    "time": 37.343512500000145,
                    "velocity": 0.3700787401574803,
                    "duration": 0.07113050000000243
                },
                {
                    "name": "A#4",
                    "midi": 70,
                    "time": 37.41464300000015,
                    "velocity": 0.3858267716535433,
                    "duration": 0.07113050000000243
                },
                {
                    "name": "F4",
                    "midi": 65,
                    "time": 37.48577350000015,
                    "velocity": 0.3700787401574803,
                    "duration": 0.07113050000000243
                },
                {
                    "name": "F#4",
                    "midi": 66,
                    "time": 37.55690400000015,
                    "velocity": 0.41732283464566927,
                    "duration": 0.07113050000000243
                },
                {
                    "name": "F4",
                    "midi": 65,
                    "time": 37.628034500000155,
                    "velocity": 0.3858267716535433,
                    "duration": 0.07113050000000243
                },
                {
                    "name": "F#4",
                    "midi": 66,
                    "time": 37.69916500000016,
                    "velocity": 0.3858267716535433,
                    "duration": 0.07113050000000243
                },
                {
                    "name": "G#4",
                    "midi": 68,
                    "time": 37.77029550000016,
                    "velocity": 0.3858267716535433,
                    "duration": 0.07113050000000243
                },
                {
                    "name": "A#4",
                    "midi": 70,
                    "time": 37.84142600000016,
                    "velocity": 0.4330708661417323,
                    "duration": 0.07113050000000243
                },
                {
                    "name": "B4",
                    "midi": 71,
                    "time": 37.912556500000164,
                    "velocity": 0.3858267716535433,
                    "duration": 0.07113050000000243
                },
                {
                    "name": "A#4",
                    "midi": 70,
                    "time": 37.98368700000017,
                    "velocity": 0.3858267716535433,
                    "duration": 0.07113050000000243
                },
                {
                    "name": "G#4",
                    "midi": 68,
                    "time": 38.05481750000017,
                    "velocity": 0.3858267716535433,
                    "duration": 0.07113050000000243
                },
                {
                    "name": "F#4",
                    "midi": 66,
                    "time": 38.12594800000017,
                    "velocity": 0.4330708661417323,
                    "duration": 0.07113050000000243
                },
                {
                    "name": "G#4",
                    "midi": 68,
                    "time": 38.197078500000174,
                    "velocity": 0.3937007874015748,
                    "duration": 0.07113050000000243
                },
                {
                    "name": "A#4",
                    "midi": 70,
                    "time": 38.268209000000176,
                    "velocity": 0.3937007874015748,
                    "duration": 0.07113050000000243
                },
                {
                    "name": "G#4",
                    "midi": 68,
                    "time": 38.33933950000018,
                    "velocity": 0.3937007874015748,
                    "duration": 0.07113050000000243
                },
                {
                    "name": "F#4",
                    "midi": 66,
                    "time": 38.41047000000018,
                    "velocity": 0.4330708661417323,
                    "duration": 0.07113050000000243
                },
                {
                    "name": "G#4",
                    "midi": 68,
                    "time": 38.481600500000184,
                    "velocity": 0.3937007874015748,
                    "duration": 0.07113050000000243
                },
                {
                    "name": "F#4",
                    "midi": 66,
                    "time": 38.552731000000186,
                    "velocity": 0.4094488188976378,
                    "duration": 0.07113050000000243
                },
                {
                    "name": "F4",
                    "midi": 65,
                    "time": 38.62386150000019,
                    "velocity": 0.4015748031496063,
                    "duration": 0.07113050000000243
                },
                {
                    "name": "E4",
                    "midi": 64,
                    "time": 38.69499200000019,
                    "velocity": 0.44881889763779526,
                    "duration": 0.0948406666666699
                },
                {
                    "name": "A#4",
                    "midi": 70,
                    "time": 38.78983266666686,
                    "velocity": 0.4094488188976378,
                    "duration": 0.09009863333333357
                },
                {
                    "name": "A#3",
                    "midi": 58,
                    "time": 38.88467333333353,
                    "velocity": 0.3543307086614173,
                    "duration": 0.09009863333333357
                },
                {
                    "name": "E4",
                    "midi": 64,
                    "time": 38.88467333333353,
                    "velocity": 0.3543307086614173,
                    "duration": 0.09009863333333357
                },
                {
                    "name": "A#4",
                    "midi": 70,
                    "time": 38.88467333333353,
                    "velocity": 0.4251968503937008,
                    "duration": 0.09009863333333357
                },
                {
                    "name": "A#3",
                    "midi": 58,
                    "time": 38.9795140000002,
                    "velocity": 0.3937007874015748,
                    "duration": 0.09009863333333357
                },
                {
                    "name": "A#4",
                    "midi": 70,
                    "time": 38.9795140000002,
                    "velocity": 0.4645669291338583,
                    "duration": 0.09009863333333357
                },
                {
                    "name": "E4",
                    "midi": 64,
                    "time": 38.9795140000002,
                    "velocity": 0.3937007874015748,
                    "duration": 0.09009863333333357
                },
                {
                    "name": "E4",
                    "midi": 64,
                    "time": 39.07435466666687,
                    "velocity": 0.3700787401574803,
                    "duration": 0.09009863333333357
                },
                {
                    "name": "A#4",
                    "midi": 70,
                    "time": 39.07435466666687,
                    "velocity": 0.4409448818897638,
                    "duration": 0.09009863333333357
                },
                {
                    "name": "A#3",
                    "midi": 58,
                    "time": 39.07435466666687,
                    "velocity": 0.3700787401574803,
                    "duration": 0.09009863333333357
                },
                {
                    "name": "A#4",
                    "midi": 70,
                    "time": 39.16919533333354,
                    "velocity": 0.44881889763779526,
                    "duration": 0.09009863333333357
                },
                {
                    "name": "A#3",
                    "midi": 58,
                    "time": 39.16919533333354,
                    "velocity": 0.3779527559055118,
                    "duration": 0.09009863333333357
                },
                {
                    "name": "E4",
                    "midi": 64,
                    "time": 39.16919533333354,
                    "velocity": 0.3779527559055118,
                    "duration": 0.09009863333333357
                },
                {
                    "name": "A#4",
                    "midi": 70,
                    "time": 39.26403600000021,
                    "velocity": 0.4881889763779528,
                    "duration": 0.09009863333333357
                },
                {
                    "name": "A#3",
                    "midi": 58,
                    "time": 39.26403600000021,
                    "velocity": 0.4094488188976378,
                    "duration": 0.09009863333333357
                },
                {
                    "name": "E4",
                    "midi": 64,
                    "time": 39.26403600000021,
                    "velocity": 0.4094488188976378,
                    "duration": 0.09009863333333357
                },
                {
                    "name": "A#4",
                    "midi": 70,
                    "time": 39.35887666666688,
                    "velocity": 0.4409448818897638,
                    "duration": 0.09009863333333357
                },
                {
                    "name": "A#3",
                    "midi": 58,
                    "time": 39.35887666666688,
                    "velocity": 0.3700787401574803,
                    "duration": 0.09009863333333357
                },
                {
                    "name": "E4",
                    "midi": 64,
                    "time": 39.35887666666688,
                    "velocity": 0.3700787401574803,
                    "duration": 0.09009863333333357
                },
                {
                    "name": "A#4",
                    "midi": 70,
                    "time": 39.45371733333355,
                    "velocity": 0.44881889763779526,
                    "duration": 0.09009863333333357
                },
                {
                    "name": "A#3",
                    "midi": 58,
                    "time": 39.45371733333355,
                    "velocity": 0.3700787401574803,
                    "duration": 0.09009863333333357
                },
                {
                    "name": "E4",
                    "midi": 64,
                    "time": 39.45371733333355,
                    "velocity": 0.3700787401574803,
                    "duration": 0.09009863333333357
                },
                {
                    "name": "A#3",
                    "midi": 58,
                    "time": 39.54855800000022,
                    "velocity": 0.4330708661417323,
                    "duration": 0.09009863333333357
                },
                {
                    "name": "E4",
                    "midi": 64,
                    "time": 39.54855800000022,
                    "velocity": 0.4330708661417323,
                    "duration": 0.09009863333333357
                },
                {
                    "name": "A#4",
                    "midi": 70,
                    "time": 39.54855800000022,
                    "velocity": 0.5118110236220472,
                    "duration": 0.09009863333333357
                },
                {
                    "name": "A#3",
                    "midi": 58,
                    "time": 39.64339866666689,
                    "velocity": 0.4015748031496063,
                    "duration": 0.09009863333333357
                },
                {
                    "name": "E4",
                    "midi": 64,
                    "time": 39.64339866666689,
                    "velocity": 0.4015748031496063,
                    "duration": 0.09009863333333357
                },
                {
                    "name": "A#4",
                    "midi": 70,
                    "time": 39.64339866666689,
                    "velocity": 0.48031496062992124,
                    "duration": 0.09009863333333357
                },
                {
                    "name": "A#3",
                    "midi": 58,
                    "time": 39.73823933333356,
                    "velocity": 0.4094488188976378,
                    "duration": 0.09009863333333357
                },
                {
                    "name": "E4",
                    "midi": 64,
                    "time": 39.73823933333356,
                    "velocity": 0.4094488188976378,
                    "duration": 0.09009863333333357
                },
                {
                    "name": "A#4",
                    "midi": 70,
                    "time": 39.73823933333356,
                    "velocity": 0.4881889763779528,
                    "duration": 0.09009863333333357
                },
                {
                    "name": "A#3",
                    "midi": 58,
                    "time": 39.83308000000023,
                    "velocity": 0.44881889763779526,
                    "duration": 0.09009863333333357
                },
                {
                    "name": "A#4",
                    "midi": 70,
                    "time": 39.83308000000023,
                    "velocity": 0.5275590551181102,
                    "duration": 0.09009863333333357
                },
                {
                    "name": "E4",
                    "midi": 64,
                    "time": 39.83308000000023,
                    "velocity": 0.44881889763779526,
                    "duration": 0.09009863333333357
                },
                {
                    "name": "E4",
                    "midi": 64,
                    "time": 39.9279206666669,
                    "velocity": 0.41732283464566927,
                    "duration": 0.09009863333333357
                },
                {
                    "name": "A#3",
                    "midi": 58,
                    "time": 39.9279206666669,
                    "velocity": 0.41732283464566927,
                    "duration": 0.09009863333333357
                },
                {
                    "name": "A#4",
                    "midi": 70,
                    "time": 39.9279206666669,
                    "velocity": 0.5039370078740157,
                    "duration": 0.09009863333333357
                },
                {
                    "name": "E4",
                    "midi": 64,
                    "time": 40.02276133333357,
                    "velocity": 0.4330708661417323,
                    "duration": 0.09009863333333357
                },
                {
                    "name": "A#3",
                    "midi": 58,
                    "time": 40.02276133333357,
                    "velocity": 0.4330708661417323,
                    "duration": 0.09009863333333357
                },
                {
                    "name": "A#4",
                    "midi": 70,
                    "time": 40.02276133333357,
                    "velocity": 0.5118110236220472,
                    "duration": 0.09009863333333357
                },
                {
                    "name": "E4",
                    "midi": 64,
                    "time": 40.11760200000024,
                    "velocity": 0.4645669291338583,
                    "duration": 0.09009863333333357
                },
                {
                    "name": "A#3",
                    "midi": 58,
                    "time": 40.11760200000024,
                    "velocity": 0.4645669291338583,
                    "duration": 0.09009863333333357
                },
                {
                    "name": "A#4",
                    "midi": 70,
                    "time": 40.11760200000024,
                    "velocity": 0.5590551181102362,
                    "duration": 0.09009863333333357
                },
                {
                    "name": "E4",
                    "midi": 64,
                    "time": 40.21244266666691,
                    "velocity": 0.4409448818897638,
                    "duration": 0.09009863333333357
                },
                {
                    "name": "A#3",
                    "midi": 58,
                    "time": 40.21244266666691,
                    "velocity": 0.4409448818897638,
                    "duration": 0.09009863333333357
                },
                {
                    "name": "A#4",
                    "midi": 70,
                    "time": 40.21244266666691,
                    "velocity": 0.5275590551181102,
                    "duration": 0.09009863333333357
                },
                {
                    "name": "E4",
                    "midi": 64,
                    "time": 40.30728333333358,
                    "velocity": 0.44881889763779526,
                    "duration": 0.09009863333333357
                },
                {
                    "name": "A#4",
                    "midi": 70,
                    "time": 40.30728333333358,
                    "velocity": 0.5433070866141733,
                    "duration": 0.09009863333333357
                },
                {
                    "name": "A#3",
                    "midi": 58,
                    "time": 40.30728333333358,
                    "velocity": 0.44881889763779526,
                    "duration": 0.09009863333333357
                },
                {
                    "name": "A#4",
                    "midi": 70,
                    "time": 40.40212400000025,
                    "velocity": 0.5826771653543307,
                    "duration": 0.09009863333333357
                },
                {
                    "name": "A#3",
                    "midi": 58,
                    "time": 40.40212400000025,
                    "velocity": 0.4881889763779528,
                    "duration": 0.09009863333333357
                },
                {
                    "name": "E4",
                    "midi": 64,
                    "time": 40.40212400000025,
                    "velocity": 0.4881889763779528,
                    "duration": 0.09009863333333357
                },
                {
                    "name": "A#4",
                    "midi": 70,
                    "time": 40.49696466666692,
                    "velocity": 0.5590551181102362,
                    "duration": 0.09009863333333357
                },
                {
                    "name": "A#3",
                    "midi": 58,
                    "time": 40.49696466666692,
                    "velocity": 0.4645669291338583,
                    "duration": 0.09009863333333357
                },
                {
                    "name": "E4",
                    "midi": 64,
                    "time": 40.49696466666692,
                    "velocity": 0.4645669291338583,
                    "duration": 0.09009863333333357
                },
                {
                    "name": "A#4",
                    "midi": 70,
                    "time": 40.59180533333359,
                    "velocity": 0.5669291338582677,
                    "duration": 0.09009863333333357
                },
                {
                    "name": "A#3",
                    "midi": 58,
                    "time": 40.59180533333359,
                    "velocity": 0.47244094488188976,
                    "duration": 0.09009863333333357
                },
                {
                    "name": "E4",
                    "midi": 64,
                    "time": 40.59180533333359,
                    "velocity": 0.47244094488188976,
                    "duration": 0.09009863333333357
                },
                {
                    "name": "A#4",
                    "midi": 70,
                    "time": 40.68664600000026,
                    "velocity": 0.6692913385826772,
                    "duration": 0.09009863333333357
                },
                {
                    "name": "F4",
                    "midi": 65,
                    "time": 40.68664600000026,
                    "velocity": 0.5669291338582677,
                    "duration": 0.09009863333333357
                },
                {
                    "name": "A#3",
                    "midi": 58,
                    "time": 40.68664600000026,
                    "velocity": 0.5669291338582677,
                    "duration": 0.09009863333333357
                },
                {
                    "name": "F4",
                    "midi": 65,
                    "time": 40.78148666666693,
                    "velocity": 0.5275590551181102,
                    "duration": 0.09009863333333357
                },
                {
                    "name": "A#3",
                    "midi": 58,
                    "time": 40.78148666666693,
                    "velocity": 0.5275590551181102,
                    "duration": 0.09009863333333357
                },
                {
                    "name": "A#4",
                    "midi": 70,
                    "time": 40.78148666666693,
                    "velocity": 0.6299212598425197,
                    "duration": 0.09009863333333357
                },
                {
                    "name": "F4",
                    "midi": 65,
                    "time": 40.8763273333336,
                    "velocity": 0.5275590551181102,
                    "duration": 0.09009863333333357
                },
                {
                    "name": "A#3",
                    "midi": 58,
                    "time": 40.8763273333336,
                    "velocity": 0.5275590551181102,
                    "duration": 0.09009863333333357
                },
                {
                    "name": "A#4",
                    "midi": 70,
                    "time": 40.8763273333336,
                    "velocity": 0.6299212598425197,
                    "duration": 0.09009863333333357
                },
                {
                    "name": "A#3",
                    "midi": 58,
                    "time": 40.97116800000027,
                    "velocity": 0.49606299212598426,
                    "duration": 0.2845220000000026
                },
                {
                    "name": "F4",
                    "midi": 65,
                    "time": 40.97116800000027,
                    "velocity": 0.6062992125984252,
                    "duration": 0.2845220000000026
                },
                {
                    "name": "A#4",
                    "midi": 70,
                    "time": 40.97116800000027,
                    "velocity": 0.7086614173228346,
                    "duration": 0.2845220000000026
                },
                {
                    "name": "A3",
                    "midi": 57,
                    "time": 41.25569000000027,
                    "velocity": 0.47244094488188976,
                    "duration": 0.2845220000000026
                },
                {
                    "name": "A4",
                    "midi": 69,
                    "time": 41.25569000000027,
                    "velocity": 0.6692913385826772,
                    "duration": 0.2845220000000026
                },
                {
                    "name": "F4",
                    "midi": 65,
                    "time": 41.25569000000027,
                    "velocity": 0.5669291338582677,
                    "duration": 0.2845220000000026
                },
                {
                    "name": "F4",
                    "midi": 65,
                    "time": 41.540212000000274,
                    "velocity": 0.5669291338582677,
                    "duration": 0.2845220000000026
                },
                {
                    "name": "A#3",
                    "midi": 58,
                    "time": 41.540212000000274,
                    "velocity": 0.47244094488188976,
                    "duration": 0.2845220000000026
                },
                {
                    "name": "A#4",
                    "midi": 70,
                    "time": 41.540212000000274,
                    "velocity": 0.6692913385826772,
                    "duration": 0.2845220000000026
                },
                {
                    "name": "F4",
                    "midi": 65,
                    "time": 41.82473400000028,
                    "velocity": 0.5669291338582677,
                    "duration": 0.2845220000000026
                },
                {
                    "name": "C4",
                    "midi": 60,
                    "time": 41.82473400000028,
                    "velocity": 0.47244094488188976,
                    "duration": 0.2845220000000026
                },
                {
                    "name": "C5",
                    "midi": 72,
                    "time": 41.82473400000028,
                    "velocity": 0.6692913385826772,
                    "duration": 0.2845220000000026
                },
                {
                    "name": "F4",
                    "midi": 65,
                    "time": 42.10925600000028,
                    "velocity": 0.6141732283464567,
                    "duration": 0.8535660000000007
                },
                {
                    "name": "D4",
                    "midi": 62,
                    "time": 42.10925600000028,
                    "velocity": 0.5039370078740157,
                    "duration": 0.8535660000000007
                },
                {
                    "name": "D5",
                    "midi": 74,
                    "time": 42.10925600000028,
                    "velocity": 0.7244094488188977,
                    "duration": 0.8535660000000007
                },
                {
                    "name": "F4",
                    "midi": 65,
                    "time": 42.96282200000028,
                    "velocity": 0.5826771653543307,
                    "duration": 0.14226099999999775
                },
                {
                    "name": "C4",
                    "midi": 60,
                    "time": 42.96282200000028,
                    "velocity": 0.4881889763779528,
                    "duration": 0.14226099999999775
                },
                {
                    "name": "C5",
                    "midi": 72,
                    "time": 42.96282200000028,
                    "velocity": 0.7007874015748031,
                    "duration": 0.14226099999999775
                },
                {
                    "name": "F4",
                    "midi": 65,
                    "time": 43.10508300000028,
                    "velocity": 0.5433070866141733,
                    "duration": 0.14226099999999775
                },
                {
                    "name": "A#4",
                    "midi": 70,
                    "time": 43.10508300000028,
                    "velocity": 0.6456692913385826,
                    "duration": 0.14226099999999775
                },
                {
                    "name": "A#3",
                    "midi": 58,
                    "time": 43.10508300000028,
                    "velocity": 0.4566929133858268,
                    "duration": 0.14226099999999775
                },
                {
                    "name": "C5",
                    "midi": 72,
                    "time": 43.247344000000275,
                    "velocity": 0.6929133858267716,
                    "duration": 0.28155822916667006
                },
                {
                    "name": "C4",
                    "midi": 60,
                    "time": 43.247344000000275,
                    "velocity": 0.48031496062992124,
                    "duration": 0.28155822916667006
                },
                {
                    "name": "F4",
                    "midi": 65,
                    "time": 43.247344000000275,
                    "velocity": 0.5748031496062992,
                    "duration": 0.28155822916667006
                },
                {
                    "name": "C5",
                    "midi": 72,
                    "time": 43.53186600000028,
                    "velocity": 0.6614173228346457,
                    "duration": 0.28155822916667006
                },
                {
                    "name": "C4",
                    "midi": 60,
                    "time": 43.53186600000028,
                    "velocity": 0.4645669291338583,
                    "duration": 0.28155822916667006
                },
                {
                    "name": "F4",
                    "midi": 65,
                    "time": 43.53186600000028,
                    "velocity": 0.5590551181102362,
                    "duration": 0.28155822916667006
                },
                {
                    "name": "C5",
                    "midi": 72,
                    "time": 43.81638800000028,
                    "velocity": 0.6535433070866141,
                    "duration": 0.28155822916667006
                },
                {
                    "name": "C4",
                    "midi": 60,
                    "time": 43.81638800000028,
                    "velocity": 0.4645669291338583,
                    "duration": 0.28155822916667006
                },
                {
                    "name": "F4",
                    "midi": 65,
                    "time": 43.81638800000028,
                    "velocity": 0.5511811023622047,
                    "duration": 0.28155822916667006
                },
                {
                    "name": "A#4",
                    "midi": 70,
                    "time": 44.10091000000028,
                    "velocity": 0.6929133858267716,
                    "duration": 0.14226099999999775
                },
                {
                    "name": "A#3",
                    "midi": 58,
                    "time": 44.10091000000028,
                    "velocity": 0.48031496062992124,
                    "duration": 0.14226099999999775
                },
                {
                    "name": "F4",
                    "midi": 65,
                    "time": 44.10091000000028,
                    "velocity": 0.5748031496062992,
                    "duration": 0.14226099999999775
                },
                {
                    "name": "A3",
                    "midi": 57,
                    "time": 44.24317100000028,
                    "velocity": 0.4566929133858268,
                    "duration": 0.14226099999999775
                },
                {
                    "name": "F4",
                    "midi": 65,
                    "time": 44.24317100000028,
                    "velocity": 0.5433070866141733,
                    "duration": 0.14226099999999775
                },
                {
                    "name": "A4",
                    "midi": 69,
                    "time": 44.24317100000028,
                    "velocity": 0.6456692913385826,
                    "duration": 0.14226099999999775
                },
                {
                    "name": "F4",
                    "midi": 65,
                    "time": 44.38543200000028,
                    "velocity": 0.6456692913385826,
                    "duration": 0.2845220000000026
                },
                {
                    "name": "A#3",
                    "midi": 58,
                    "time": 44.38543200000028,
                    "velocity": 0.5905511811023622,
                    "duration": 0.8535660000000078
                },
                {
                    "name": "A#4",
                    "midi": 70,
                    "time": 44.38543200000028,
                    "velocity": 0.7086614173228346,
                    "duration": 0.8535660000000078
                },
                {
                    "name": "D#4",
                    "midi": 63,
                    "time": 44.66995400000028,
                    "velocity": 0.5748031496062992,
                    "duration": 0.2845220000000026
                },
                {
                    "name": "G4",
                    "midi": 67,
                    "time": 44.66995400000028,
                    "velocity": 0.6929133858267716,
                    "duration": 0.2845220000000026
                },
                {
                    "name": "F4",
                    "midi": 65,
                    "time": 44.954476000000284,
                    "velocity": 0.6535433070866141,
                    "duration": 0.2845220000000026
                },
                {
                    "name": "D4",
                    "midi": 62,
                    "time": 44.954476000000284,
                    "velocity": 0.5511811023622047,
                    "duration": 0.2845220000000026
                },
                {
                    "name": "D5",
                    "midi": 74,
                    "time": 45.23899800000029,
                    "velocity": 0.7007874015748031,
                    "duration": 0.2845220000000026
                },
                {
                    "name": "F4",
                    "midi": 65,
                    "time": 45.23899800000029,
                    "velocity": 0.5905511811023622,
                    "duration": 0.2845220000000026
                },
                {
                    "name": "D4",
                    "midi": 62,
                    "time": 45.23899800000029,
                    "velocity": 0.5039370078740157,
                    "duration": 0.2845220000000026
                },
                {
                    "name": "G4",
                    "midi": 67,
                    "time": 45.52352000000029,
                    "velocity": 0.5905511811023622,
                    "duration": 0.8535660000000007
                },
                {
                    "name": "D5",
                    "midi": 74,
                    "time": 45.52352000000029,
                    "velocity": 0.7007874015748031,
                    "duration": 0.8535660000000007
                },
                {
                    "name": "D4",
                    "midi": 62,
                    "time": 45.52352000000029,
                    "velocity": 0.5039370078740157,
                    "duration": 0.8535660000000007
                },
                {
                    "name": "C5",
                    "midi": 72,
                    "time": 46.37708600000029,
                    "velocity": 0.6614173228346457,
                    "duration": 0.14226099999999775
                },
                {
                    "name": "C4",
                    "midi": 60,
                    "time": 46.37708600000029,
                    "velocity": 0.4645669291338583,
                    "duration": 0.14226099999999775
                },
                {
                    "name": "G4",
                    "midi": 67,
                    "time": 46.37708600000029,
                    "velocity": 0.5590551181102362,
                    "duration": 0.14226099999999775
                },
                {
                    "name": "B4",
                    "midi": 71,
                    "time": 46.51934700000029,
                    "velocity": 0.6220472440944882,
                    "duration": 0.14226099999999775
                },
                {
                    "name": "B3",
                    "midi": 59,
                    "time": 46.51934700000029,
                    "velocity": 0.4409448818897638,
                    "duration": 0.14226099999999775
                },
                {
                    "name": "G4",
                    "midi": 67,
                    "time": 46.51934700000029,
                    "velocity": 0.5275590551181102,
                    "duration": 0.14226099999999775
                },
                {
                    "name": "D#5",
                    "midi": 75,
                    "time": 46.661608000000285,
                    "velocity": 0.7401574803149606,
                    "duration": 0.2845220000000026
                },
                {
                    "name": "D#4",
                    "midi": 63,
                    "time": 46.661608000000285,
                    "velocity": 0.5275590551181102,
                    "duration": 0.2845220000000026
                },
                {
                    "name": "G4",
                    "midi": 67,
                    "time": 46.661608000000285,
                    "velocity": 0.6220472440944882,
                    "duration": 0.2845220000000026
                },
                {
                    "name": "D5",
                    "midi": 74,
                    "time": 46.94613000000029,
                    "velocity": 0.7165354330708661,
                    "duration": 0.2845220000000026
                },
                {
                    "name": "D4",
                    "midi": 62,
                    "time": 46.94613000000029,
                    "velocity": 0.5118110236220472,
                    "duration": 0.2845220000000026
                },
                {
                    "name": "G4",
                    "midi": 67,
                    "time": 46.94613000000029,
                    "velocity": 0.5984251968503937,
                    "duration": 0.2845220000000026
                },
                {
                    "name": "C4",
                    "midi": 60,
                    "time": 47.23065200000029,
                    "velocity": 0.49606299212598426,
                    "duration": 0.2845220000000026
                },
                {
                    "name": "G4",
                    "midi": 67,
                    "time": 47.23065200000029,
                    "velocity": 0.5826771653543307,
                    "duration": 0.2845220000000026
                },
                {
                    "name": "C5",
                    "midi": 72,
                    "time": 47.23065200000029,
                    "velocity": 0.6929133858267716,
                    "duration": 0.2845220000000026
                },
                {
                    "name": "C4",
                    "midi": 60,
                    "time": 47.51517400000029,
                    "velocity": 0.47244094488188976,
                    "duration": 0.2845220000000026
                },
                {
                    "name": "A4",
                    "midi": 69,
                    "time": 47.51517400000029,
                    "velocity": 0.5669291338582677,
                    "duration": 0.2845220000000026
                },
                {
                    "name": "C5",
                    "midi": 72,
                    "time": 47.51517400000029,
                    "velocity": 0.6771653543307087,
                    "duration": 0.2845220000000026
                },
                {
                    "name": "F4",
                    "midi": 65,
                    "time": 47.799696000000296,
                    "velocity": 0.5984251968503937,
                    "duration": 0.8535660000000007
                },
                {
                    "name": "C5",
                    "midi": 72,
                    "time": 47.799696000000296,
                    "velocity": 0.7007874015748031,
                    "duration": 0.8535660000000007
                },
                {
                    "name": "C4",
                    "midi": 60,
                    "time": 47.799696000000296,
                    "velocity": 0.5118110236220472,
                    "duration": 0.8535660000000007
                },
                {
                    "name": "A4",
                    "midi": 69,
                    "time": 47.799696000000296,
                    "velocity": 0.6141732283464567,
                    "duration": 0.8535660000000007
                },
                {
                    "name": "A#4",
                    "midi": 70,
                    "time": 48.653262000000296,
                    "velocity": 0.6929133858267716,
                    "duration": 0.14226099999999775
                },
                {
                    "name": "A#3",
                    "midi": 58,
                    "time": 48.653262000000296,
                    "velocity": 0.49606299212598426,
                    "duration": 0.14226099999999775
                },
                {
                    "name": "F4",
                    "midi": 65,
                    "time": 48.653262000000296,
                    "velocity": 0.5826771653543307,
                    "duration": 0.14226099999999775
                },
                {
                    "name": "A3",
                    "midi": 57,
                    "time": 48.795523000000294,
                    "velocity": 0.44881889763779526,
                    "duration": 0.14226099999999775
                },
                {
                    "name": "F4",
                    "midi": 65,
                    "time": 48.795523000000294,
                    "velocity": 0.5354330708661418,
                    "duration": 0.14226099999999775
                },
                {
                    "name": "A4",
                    "midi": 69,
                    "time": 48.795523000000294,
                    "velocity": 0.6299212598425197,
                    "duration": 0.14226099999999775
                },
                {
                    "name": "D4",
                    "midi": 62,
                    "time": 48.93778400000029,
                    "velocity": 0.5118110236220472,
                    "duration": 0.2845220000000026
                },
                {
                    "name": "F4",
                    "midi": 65,
                    "time": 48.93778400000029,
                    "velocity": 0.6062992125984252,
                    "duration": 0.2845220000000026
                },
                {
                    "name": "D5",
                    "midi": 74,
                    "time": 48.93778400000029,
                    "velocity": 0.7244094488188977,
                    "duration": 0.2845220000000026
                },
                {
                    "name": "A3",
                    "midi": 57,
                    "time": 49.222306000000295,
                    "velocity": 0.48031496062992124,
                    "duration": 0.2845220000000026
                },
                {
                    "name": "F4",
                    "midi": 65,
                    "time": 49.222306000000295,
                    "velocity": 0.5748031496062992,
                    "duration": 0.2845220000000026
                },
                {
                    "name": "A4",
                    "midi": 69,
                    "time": 49.222306000000295,
                    "velocity": 0.6850393700787402,
                    "duration": 0.2845220000000026
                },
                {
                    "name": "A#3",
                    "midi": 58,
                    "time": 49.5068280000003,
                    "velocity": 0.5118110236220472,
                    "duration": 0.2845220000000026
                },
                {
                    "name": "A#4",
                    "midi": 70,
                    "time": 49.5068280000003,
                    "velocity": 0.7244094488188977,
                    "duration": 0.2845220000000026
                },
                {
                    "name": "F4",
                    "midi": 65,
                    "time": 49.5068280000003,
                    "velocity": 0.6062992125984252,
                    "duration": 0.2845220000000026
                },
                {
                    "name": "C4",
                    "midi": 60,
                    "time": 49.7913500000003,
                    "velocity": 0.4645669291338583,
                    "duration": 0.2845220000000026
                },
                {
                    "name": "C5",
                    "midi": 72,
                    "time": 49.7913500000003,
                    "velocity": 0.6456692913385826,
                    "duration": 0.2845220000000026
                },
                {
                    "name": "A4",
                    "midi": 69,
                    "time": 49.7913500000003,
                    "velocity": 0.5511811023622047,
                    "duration": 0.2845220000000026
                },
                {
                    "name": "F4",
                    "midi": 65,
                    "time": 49.7913500000003,
                    "velocity": 0.5511811023622047,
                    "duration": 0.2845220000000026
                },
                {
                    "name": "F4",
                    "midi": 65,
                    "time": 50.0758720000003,
                    "velocity": 0.5905511811023622,
                    "duration": 1.7071320000000014
                },
                {
                    "name": "C5",
                    "midi": 72,
                    "time": 50.0758720000003,
                    "velocity": 0.7007874015748031,
                    "duration": 1.1380880000000033
                },
                {
                    "name": "C4",
                    "midi": 60,
                    "time": 50.0758720000003,
                    "velocity": 0.5039370078740157,
                    "duration": 1.1380880000000033
                },
                {
                    "name": "A4",
                    "midi": 69,
                    "time": 50.0758720000003,
                    "velocity": 0.5905511811023622,
                    "duration": 1.1380880000000033
                },
                {
                    "name": "B4",
                    "midi": 71,
                    "time": 51.213960000000306,
                    "velocity": 0.5748031496062992,
                    "duration": 0.8535660000000007
                },
                {
                    "name": "B3",
                    "midi": 59,
                    "time": 51.213960000000306,
                    "velocity": 0.48031496062992124,
                    "duration": 0.8535660000000007
                },
                {
                    "name": "G#4",
                    "midi": 68,
                    "time": 51.213960000000306,
                    "velocity": 0.48031496062992124,
                    "duration": 0.8535660000000007
                },
                {
                    "name": "G#4",
                    "midi": 68,
                    "time": 52.067526000000306,
                    "velocity": 0.4330708661417323,
                    "duration": 0.2845220000000026
                },
                {
                    "name": "B4",
                    "midi": 71,
                    "time": 52.067526000000306,
                    "velocity": 0.5196850393700787,
                    "duration": 0.2845220000000026
                },
                {
                    "name": "D4",
                    "midi": 62,
                    "time": 52.067526000000306,
                    "velocity": 0.4330708661417323,
                    "duration": 0.2845220000000026
                },
                {
                    "name": "F4",
                    "midi": 65,
                    "time": 52.067526000000306,
                    "velocity": 0.4330708661417323,
                    "duration": 0.2845220000000026
                },
                {
                    "name": "G#4",
                    "midi": 68,
                    "time": 52.35204800000031,
                    "velocity": 0.4330708661417323,
                    "duration": 0.8535660000000007
                },
                {
                    "name": "D4",
                    "midi": 62,
                    "time": 52.35204800000031,
                    "velocity": 0.4330708661417323,
                    "duration": 0.8535660000000007
                },
                {
                    "name": "F4",
                    "midi": 65,
                    "time": 52.35204800000031,
                    "velocity": 0.4330708661417323,
                    "duration": 0.8535660000000007
                },
                {
                    "name": "B4",
                    "midi": 71,
                    "time": 52.35204800000031,
                    "velocity": 0.5196850393700787,
                    "duration": 0.8535660000000007
                },
                {
                    "name": "G#4",
                    "midi": 68,
                    "time": 53.20561400000031,
                    "velocity": 0.5196850393700787,
                    "duration": 0.2845220000000026
                },
                {
                    "name": "D5",
                    "midi": 74,
                    "time": 53.20561400000031,
                    "velocity": 0.6141732283464567,
                    "duration": 0.2845220000000026
                },
                {
                    "name": "B4",
                    "midi": 71,
                    "time": 53.20561400000031,
                    "velocity": 0.5196850393700787,
                    "duration": 0.2845220000000026
                },
                {
                    "name": "F4",
                    "midi": 65,
                    "time": 53.20561400000031,
                    "velocity": 0.5196850393700787,
                    "duration": 0.2845220000000026
                },
                {
                    "name": "F4",
                    "midi": 65,
                    "time": 53.49013600000031,
                    "velocity": 0.5669291338582677,
                    "duration": 0.7113049999999959
                },
                {
                    "name": "D5",
                    "midi": 74,
                    "time": 53.49013600000031,
                    "velocity": 0.6771653543307087,
                    "duration": 0.5690439999999981
                },
                {
                    "name": "G#4",
                    "midi": 68,
                    "time": 53.49013600000031,
                    "velocity": 0.5669291338582677,
                    "duration": 0.7113049999999959
                },
                {
                    "name": "B4",
                    "midi": 71,
                    "time": 53.49013600000031,
                    "velocity": 0.5669291338582677,
                    "duration": 0.7113049999999959
                },
                {
                    "name": "C#5",
                    "midi": 73,
                    "time": 54.05918000000031,
                    "velocity": 0.6771653543307087,
                    "duration": 0.14226099999999775
                },
                {
                    "name": "C#5",
                    "midi": 73,
                    "time": 54.343702000000306,
                    "velocity": 0.6299212598425197,
                    "duration": 0.14226099999999775
                },
                {
                    "name": "G#4",
                    "midi": 68,
                    "time": 54.343702000000306,
                    "velocity": 0.6299212598425197,
                    "duration": 0.14226099999999775
                },
                {
                    "name": "B4",
                    "midi": 71,
                    "time": 54.343702000000306,
                    "velocity": 0.6299212598425197,
                    "duration": 0.14226099999999775
                },
                {
                    "name": "F5",
                    "midi": 77,
                    "time": 54.343702000000306,
                    "velocity": 0.7559055118110236,
                    "duration": 0.14226099999999775
                },
                {
                    "name": "C#5",
                    "midi": 73,
                    "time": 54.6282240000003,
                    "velocity": 0.6062992125984252,
                    "duration": 0.0948406666666699
                },
                {
                    "name": "A4",
                    "midi": 69,
                    "time": 54.6282240000003,
                    "velocity": 0.6062992125984252,
                    "duration": 0.0948406666666699
                },
                {
                    "name": "F#5",
                    "midi": 78,
                    "time": 54.6282240000003,
                    "velocity": 0.7244094488188977,
                    "duration": 0.0948406666666699
                },
                {
                    "name": "C#5",
                    "midi": 73,
                    "time": 54.72306466666697,
                    "velocity": 0.2677165354330709,
                    "duration": 0.09009863333333357
                },
                {
                    "name": "A4",
                    "midi": 69,
                    "time": 54.72306466666697,
                    "velocity": 0.2204724409448819,
                    "duration": 0.09009863333333357
                },
                {
                    "name": "C#5",
                    "midi": 73,
                    "time": 54.81790533333364,
                    "velocity": 0.28346456692913385,
                    "duration": 0.09009863333333357
                },
                {
                    "name": "A4",
                    "midi": 69,
                    "time": 54.81790533333364,
                    "velocity": 0.23622047244094488,
                    "duration": 0.09009863333333357
                },
                {
                    "name": "C#5",
                    "midi": 73,
                    "time": 54.91274600000031,
                    "velocity": 0.2992125984251969,
                    "duration": 0.09009863333333357
                },
                {
                    "name": "A4",
                    "midi": 69,
                    "time": 54.91274600000031,
                    "velocity": 0.25196850393700787,
                    "duration": 0.09009863333333357
                },
                {
                    "name": "A4",
                    "midi": 69,
                    "time": 55.00758666666698,
                    "velocity": 0.2283464566929134,
                    "duration": 0.09009863333333357
                },
                {
                    "name": "C#5",
                    "midi": 73,
                    "time": 55.00758666666698,
                    "velocity": 0.2755905511811024,
                    "duration": 0.09009863333333357
                },
                {
                    "name": "A4",
                    "midi": 69,
                    "time": 55.10242733333365,
                    "velocity": 0.2283464566929134,
                    "duration": 0.09009863333333357
                },
                {
                    "name": "C#5",
                    "midi": 73,
                    "time": 55.10242733333365,
                    "velocity": 0.2755905511811024,
                    "duration": 0.09009863333333357
                },
                {
                    "name": "C#5",
                    "midi": 73,
                    "time": 55.19726800000032,
                    "velocity": 0.2992125984251969,
                    "duration": 0.09009863333333357
                },
                {
                    "name": "A4",
                    "midi": 69,
                    "time": 55.19726800000032,
                    "velocity": 0.25196850393700787,
                    "duration": 0.09009863333333357
                },
                {
                    "name": "A4",
                    "midi": 69,
                    "time": 55.29210866666699,
                    "velocity": 0.2283464566929134,
                    "duration": 0.09009863333333357
                },
                {
                    "name": "C#5",
                    "midi": 73,
                    "time": 55.29210866666699,
                    "velocity": 0.2755905511811024,
                    "duration": 0.09009863333333357
                },
                {
                    "name": "A4",
                    "midi": 69,
                    "time": 55.38694933333366,
                    "velocity": 0.2283464566929134,
                    "duration": 0.09009863333333357
                },
                {
                    "name": "C#5",
                    "midi": 73,
                    "time": 55.38694933333366,
                    "velocity": 0.2755905511811024,
                    "duration": 0.09009863333333357
                },
                {
                    "name": "F#5",
                    "midi": 78,
                    "time": 55.48179000000033,
                    "velocity": 0.4251968503937008,
                    "duration": 0.2845220000000097
                },
                {
                    "name": "C#5",
                    "midi": 73,
                    "time": 55.576630666667,
                    "velocity": 0.25196850393700787,
                    "duration": 0.09009863333333357
                },
                {
                    "name": "A4",
                    "midi": 69,
                    "time": 55.576630666667,
                    "velocity": 0.2125984251968504,
                    "duration": 0.09009863333333357
                },
                {
                    "name": "A4",
                    "midi": 69,
                    "time": 55.67147133333367,
                    "velocity": 0.2125984251968504,
                    "duration": 0.09009863333333357
                },
                {
                    "name": "C#5",
                    "midi": 73,
                    "time": 55.67147133333367,
                    "velocity": 0.25196850393700787,
                    "duration": 0.09009863333333357
                },
                {
                    "name": "F#5",
                    "midi": 78,
                    "time": 55.76631200000034,
                    "velocity": 0.41732283464566927,
                    "duration": 0.2845220000000097
                },
                {
                    "name": "A4",
                    "midi": 69,
                    "time": 55.86115266666701,
                    "velocity": 0.2125984251968504,
                    "duration": 0.09009863333333357
                },
                {
                    "name": "C#5",
                    "midi": 73,
                    "time": 55.86115266666701,
                    "velocity": 0.25196850393700787,
                    "duration": 0.09009863333333357
                },
                {
                    "name": "A4",
                    "midi": 69,
                    "time": 55.95599333333368,
                    "velocity": 0.2125984251968504,
                    "duration": 0.09009863333333357
                },
                {
                    "name": "C#5",
                    "midi": 73,
                    "time": 55.95599333333368,
                    "velocity": 0.25196850393700787,
                    "duration": 0.09009863333333357
                },
                {
                    "name": "A5",
                    "midi": 81,
                    "time": 56.05083400000035,
                    "velocity": 0.41732283464566927,
                    "duration": 0.2845220000000097
                },
                {
                    "name": "A4",
                    "midi": 69,
                    "time": 56.14567466666702,
                    "velocity": 0.2047244094488189,
                    "duration": 0.09009863333333357
                },
                {
                    "name": "C#5",
                    "midi": 73,
                    "time": 56.14567466666702,
                    "velocity": 0.2440944881889764,
                    "duration": 0.09009863333333357
                },
                {
                    "name": "A4",
                    "midi": 69,
                    "time": 56.24051533333369,
                    "velocity": 0.2047244094488189,
                    "duration": 0.09009863333333357
                },
                {
                    "name": "C#5",
                    "midi": 73,
                    "time": 56.24051533333369,
                    "velocity": 0.2440944881889764,
                    "duration": 0.09009863333333357
                },
                {
                    "name": "F#5",
                    "midi": 78,
                    "time": 56.33535600000036,
                    "velocity": 0.41732283464566927,
                    "duration": 0.2845220000000097
                },
                {
                    "name": "A4",
                    "midi": 69,
                    "time": 56.43019666666703,
                    "velocity": 0.2125984251968504,
                    "duration": 0.09009863333333357
                },
                {
                    "name": "C#5",
                    "midi": 73,
                    "time": 56.43019666666703,
                    "velocity": 0.25196850393700787,
                    "duration": 0.09009863333333357
                },
                {
                    "name": "C#5",
                    "midi": 73,
                    "time": 56.5250373333337,
                    "velocity": 0.25196850393700787,
                    "duration": 0.09009863333333357
                },
                {
                    "name": "A4",
                    "midi": 69,
                    "time": 56.5250373333337,
                    "velocity": 0.2125984251968504,
                    "duration": 0.09009863333333357
                },
                {
                    "name": "A5",
                    "midi": 81,
                    "time": 56.61987800000037,
                    "velocity": 0.41732283464566927,
                    "duration": 0.2845220000000097
                },
                {
                    "name": "C#5",
                    "midi": 73,
                    "time": 56.71471866666704,
                    "velocity": 0.2440944881889764,
                    "duration": 0.09009863333333357
                },
                {
                    "name": "A4",
                    "midi": 69,
                    "time": 56.71471866666704,
                    "velocity": 0.2047244094488189,
                    "duration": 0.09009863333333357
                },
                {
                    "name": "A4",
                    "midi": 69,
                    "time": 56.80955933333371,
                    "velocity": 0.2047244094488189,
                    "duration": 0.09009863333333357
                },
                {
                    "name": "C#5",
                    "midi": 73,
                    "time": 56.80955933333371,
                    "velocity": 0.2440944881889764,
                    "duration": 0.09009863333333357
                },
                {
                    "name": "A5",
                    "midi": 81,
                    "time": 56.90440000000038,
                    "velocity": 0.4409448818897638,
                    "duration": 0.2845220000000097
                },
                {
                    "name": "F#5",
                    "midi": 78,
                    "time": 56.99924066666705,
                    "velocity": 0.25196850393700787,
                    "duration": 0.09009863333333357
                },
                {
                    "name": "C#5",
                    "midi": 73,
                    "time": 56.99924066666705,
                    "velocity": 0.2125984251968504,
                    "duration": 0.09009863333333357
                },
                {
                    "name": "F#5",
                    "midi": 78,
                    "time": 57.09408133333372,
                    "velocity": 0.25196850393700787,
                    "duration": 0.09009863333333357
                },
                {
                    "name": "C#5",
                    "midi": 73,
                    "time": 57.09408133333372,
                    "velocity": 0.2125984251968504,
                    "duration": 0.09009863333333357
                },
                {
                    "name": "C#6",
                    "midi": 85,
                    "time": 57.18892200000039,
                    "velocity": 0.4330708661417323,
                    "duration": 0.2845220000000097
                },
                {
                    "name": "F#5",
                    "midi": 78,
                    "time": 57.28376266666706,
                    "velocity": 0.25196850393700787,
                    "duration": 0.09009863333333357
                },
                {
                    "name": "C#5",
                    "midi": 73,
                    "time": 57.28376266666706,
                    "velocity": 0.2125984251968504,
                    "duration": 0.09009863333333357
                },
                {
                    "name": "C#5",
                    "midi": 73,
                    "time": 57.37860333333373,
                    "velocity": 0.2125984251968504,
                    "duration": 0.09009863333333357
                },
                {
                    "name": "F#5",
                    "midi": 78,
                    "time": 57.37860333333373,
                    "velocity": 0.25196850393700787,
                    "duration": 0.09009863333333357
                },
                {
                    "name": "A5",
                    "midi": 81,
                    "time": 57.4734440000004,
                    "velocity": 0.4330708661417323,
                    "duration": 0.2845220000000097
                },
                {
                    "name": "C#5",
                    "midi": 73,
                    "time": 57.56828466666707,
                    "velocity": 0.2125984251968504,
                    "duration": 0.09009863333333357
                },
                {
                    "name": "F#5",
                    "midi": 78,
                    "time": 57.56828466666707,
                    "velocity": 0.25196850393700787,
                    "duration": 0.09009863333333357
                },
                {
                    "name": "C#5",
                    "midi": 73,
                    "time": 57.66312533333374,
                    "velocity": 0.2125984251968504,
                    "duration": 0.09009863333333357
                },
                {
                    "name": "F#5",
                    "midi": 78,
                    "time": 57.66312533333374,
                    "velocity": 0.25196850393700787,
                    "duration": 0.09009863333333357
                },
                {
                    "name": "C#6",
                    "midi": 85,
                    "time": 57.75796600000041,
                    "velocity": 0.4409448818897638,
                    "duration": 0.2845220000000097
                },
                {
                    "name": "F#5",
                    "midi": 78,
                    "time": 57.85280666666708,
                    "velocity": 0.25196850393700787,
                    "duration": 0.09009863333333357
                },
                {
                    "name": "C#5",
                    "midi": 73,
                    "time": 57.85280666666708,
                    "velocity": 0.2125984251968504,
                    "duration": 0.09009863333333357
                },
                {
                    "name": "C#5",
                    "midi": 73,
                    "time": 57.94764733333375,
                    "velocity": 0.2125984251968504,
                    "duration": 0.09009863333333357
                },
                {
                    "name": "F#5",
                    "midi": 78,
                    "time": 57.94764733333375,
                    "velocity": 0.25196850393700787,
                    "duration": 0.09009863333333357
                },
                {
                    "name": "C#5",
                    "midi": 73,
                    "time": 58.04248800000042,
                    "velocity": 0.4409448818897638,
                    "duration": 0.2845220000000097
                },
                {
                    "name": "F#4",
                    "midi": 66,
                    "time": 58.13732866666709,
                    "velocity": 0.2125984251968504,
                    "duration": 0.09009863333333357
                },
                {
                    "name": "A4",
                    "midi": 69,
                    "time": 58.13732866666709,
                    "velocity": 0.25196850393700787,
                    "duration": 0.09009863333333357
                },
                {
                    "name": "F#4",
                    "midi": 66,
                    "time": 58.23216933333376,
                    "velocity": 0.2125984251968504,
                    "duration": 0.09009863333333357
                },
                {
                    "name": "A4",
                    "midi": 69,
                    "time": 58.23216933333376,
                    "velocity": 0.25196850393700787,
                    "duration": 0.09009863333333357
                },
                {
                    "name": "F5",
                    "midi": 77,
                    "time": 58.32701000000043,
                    "velocity": 0.4409448818897638,
                    "duration": 0.2845220000000097
                },
                {
                    "name": "C#5",
                    "midi": 73,
                    "time": 58.4218506666671,
                    "velocity": 0.25984251968503935,
                    "duration": 0.09009863333333357
                },
                {
                    "name": "B4",
                    "midi": 71,
                    "time": 58.4218506666671,
                    "velocity": 0.25984251968503935,
                    "duration": 0.09009863333333357
                },
                {
                    "name": "F4",
                    "midi": 65,
                    "time": 58.4218506666671,
                    "velocity": 0.2125984251968504,
                    "duration": 0.09009863333333357
                },
                {
                    "name": "F4",
                    "midi": 65,
                    "time": 58.51669133333377,
                    "velocity": 0.2125984251968504,
                    "duration": 0.09009863333333357
                },
                {
                    "name": "C#5",
                    "midi": 73,
                    "time": 58.51669133333377,
                    "velocity": 0.2677165354330709,
                    "duration": 0.09009863333333357
                },
                {
                    "name": "B4",
                    "midi": 71,
                    "time": 58.51669133333377,
                    "velocity": 0.2677165354330709,
                    "duration": 0.09009863333333357
                },
                {
                    "name": "F#5",
                    "midi": 78,
                    "time": 58.61153200000044,
                    "velocity": 0.4566929133858268,
                    "duration": 0.2845220000000097
                },
                {
                    "name": "C#5",
                    "midi": 73,
                    "time": 58.70637266666711,
                    "velocity": 0.2677165354330709,
                    "duration": 0.09009863333333357
                },
                {
                    "name": "F#4",
                    "midi": 66,
                    "time": 58.70637266666711,
                    "velocity": 0.2204724409448819,
                    "duration": 0.09009863333333357
                },
                {
                    "name": "A4",
                    "midi": 69,
                    "time": 58.70637266666711,
                    "velocity": 0.2677165354330709,
                    "duration": 0.09009863333333357
                },
                {
                    "name": "C#5",
                    "midi": 73,
                    "time": 58.80121333333378,
                    "velocity": 0.2755905511811024,
                    "duration": 0.09009863333333357
                },
                {
                    "name": "F#4",
                    "midi": 66,
                    "time": 58.80121333333378,
                    "velocity": 0.2283464566929134,
                    "duration": 0.09009863333333357
                },
                {
                    "name": "A4",
                    "midi": 69,
                    "time": 58.80121333333378,
                    "velocity": 0.2755905511811024,
                    "duration": 0.09009863333333357
                },
                {
                    "name": "G#5",
                    "midi": 80,
                    "time": 58.89605400000045,
                    "velocity": 0.4881889763779528,
                    "duration": 0.2845220000000097
                },
                {
                    "name": "D5",
                    "midi": 74,
                    "time": 58.99089466666712,
                    "velocity": 0.28346456692913385,
                    "duration": 0.09009863333333357
                },
                {
                    "name": "E5",
                    "midi": 76,
                    "time": 58.99089466666712,
                    "velocity": 0.28346456692913385,
                    "duration": 0.09009863333333357
                },
                {
                    "name": "G#4",
                    "midi": 68,
                    "time": 58.99089466666712,
                    "velocity": 0.2283464566929134,
                    "duration": 0.09009863333333357
                },
                {
                    "name": "E5",
                    "midi": 76,
                    "time": 59.08573533333379,
                    "velocity": 0.28346456692913385,
                    "duration": 0.09009863333333357
                },
                {
                    "name": "G#4",
                    "midi": 68,
                    "time": 59.08573533333379,
                    "velocity": 0.2283464566929134,
                    "duration": 0.09009863333333357
                },
                {
                    "name": "D5",
                    "midi": 74,
                    "time": 59.08573533333379,
                    "velocity": 0.28346456692913385,
                    "duration": 0.09009863333333357
                },
                {
                    "name": "A5",
                    "midi": 81,
                    "time": 59.18057600000046,
                    "velocity": 0.48031496062992124,
                    "duration": 0.2845220000000097
                },
                {
                    "name": "E5",
                    "midi": 76,
                    "time": 59.27541666666713,
                    "velocity": 0.28346456692913385,
                    "duration": 0.09009863333333357
                },
                {
                    "name": "A4",
                    "midi": 69,
                    "time": 59.27541666666713,
                    "velocity": 0.23622047244094488,
                    "duration": 0.09009863333333357
                },
                {
                    "name": "C#5",
                    "midi": 73,
                    "time": 59.27541666666713,
                    "velocity": 0.23622047244094488,
                    "duration": 0.09009863333333357
                },
                {
                    "name": "E5",
                    "midi": 76,
                    "time": 59.3702573333338,
                    "velocity": 0.28346456692913385,
                    "duration": 0.09009863333333357
                },
                {
                    "name": "A4",
                    "midi": 69,
                    "time": 59.3702573333338,
                    "velocity": 0.2283464566929134,
                    "duration": 0.09009863333333357
                },
                {
                    "name": "C#5",
                    "midi": 73,
                    "time": 59.3702573333338,
                    "velocity": 0.2283464566929134,
                    "duration": 0.09009863333333357
                },
                {
                    "name": "B5",
                    "midi": 83,
                    "time": 59.46509800000047,
                    "velocity": 0.47244094488188976,
                    "duration": 0.2845220000000097
                },
                {
                    "name": "B4",
                    "midi": 71,
                    "time": 59.559938666667136,
                    "velocity": 0.2204724409448819,
                    "duration": 0.09009863333333357
                },
                {
                    "name": "C#5",
                    "midi": 73,
                    "time": 59.559938666667136,
                    "velocity": 0.2755905511811024,
                    "duration": 0.09009863333333357
                },
                {
                    "name": "F5",
                    "midi": 77,
                    "time": 59.559938666667136,
                    "velocity": 0.2755905511811024,
                    "duration": 0.09009863333333357
                },
                {
                    "name": "C#5",
                    "midi": 73,
                    "time": 59.654779333333806,
                    "velocity": 0.2677165354330709,
                    "duration": 0.09009863333333357
                },
                {
                    "name": "F5",
                    "midi": 77,
                    "time": 59.654779333333806,
                    "velocity": 0.2677165354330709,
                    "duration": 0.09009863333333357
                },
                {
                    "name": "B4",
                    "midi": 71,
                    "time": 59.654779333333806,
                    "velocity": 0.2204724409448819,
                    "duration": 0.09009863333333357
                },
                {
                    "name": "A5",
                    "midi": 81,
                    "time": 59.749620000000476,
                    "velocity": 0.44881889763779526,
                    "duration": 0.2845220000000097
                },
                {
                    "name": "A4",
                    "midi": 69,
                    "time": 59.844460666667146,
                    "velocity": 0.2125984251968504,
                    "duration": 0.09009863333333357
                },
                {
                    "name": "F#5",
                    "midi": 78,
                    "time": 59.844460666667146,
                    "velocity": 0.25984251968503935,
                    "duration": 0.09009863333333357
                },
                {
                    "name": "C#5",
                    "midi": 73,
                    "time": 59.844460666667146,
                    "velocity": 0.25984251968503935,
                    "duration": 0.09009863333333357
                },
                {
                    "name": "A4",
                    "midi": 69,
                    "time": 59.939301333333816,
                    "velocity": 0.2125984251968504,
                    "duration": 0.09009863333333357
                },
                {
                    "name": "F#5",
                    "midi": 78,
                    "time": 59.939301333333816,
                    "velocity": 0.25196850393700787,
                    "duration": 0.09009863333333357
                },
                {
                    "name": "C#5",
                    "midi": 73,
                    "time": 59.939301333333816,
                    "velocity": 0.25196850393700787,
                    "duration": 0.09009863333333357
                },
                {
                    "name": "G#5",
                    "midi": 80,
                    "time": 60.034142000000486,
                    "velocity": 0.4409448818897638,
                    "duration": 0.2845220000000097
                },
                {
                    "name": "G#4",
                    "midi": 68,
                    "time": 60.128982666667156,
                    "velocity": 0.2125984251968504,
                    "duration": 0.09009863333333357
                },
                {
                    "name": "E5",
                    "midi": 76,
                    "time": 60.128982666667156,
                    "velocity": 0.25196850393700787,
                    "duration": 0.09009863333333357
                },
                {
                    "name": "B4",
                    "midi": 71,
                    "time": 60.128982666667156,
                    "velocity": 0.25196850393700787,
                    "duration": 0.09009863333333357
                },
                {
                    "name": "G#4",
                    "midi": 68,
                    "time": 60.223823333333826,
                    "velocity": 0.2125984251968504,
                    "duration": 0.09009863333333357
                },
                {
                    "name": "E5",
                    "midi": 76,
                    "time": 60.223823333333826,
                    "velocity": 0.25196850393700787,
                    "duration": 0.09009863333333357
                },
                {
                    "name": "B4",
                    "midi": 71,
                    "time": 60.223823333333826,
                    "velocity": 0.25196850393700787,
                    "duration": 0.09009863333333357
                },
                {
                    "name": "G#5",
                    "midi": 80,
                    "time": 60.318664000000496,
                    "velocity": 0.4251968503937008,
                    "duration": 0.5690440000000194
                },
                {
                    "name": "G#4",
                    "midi": 68,
                    "time": 60.413504666667166,
                    "velocity": 0.2047244094488189,
                    "duration": 0.09009863333333357
                },
                {
                    "name": "B4",
                    "midi": 71,
                    "time": 60.413504666667166,
                    "velocity": 0.2047244094488189,
                    "duration": 0.09009863333333357
                },
                {
                    "name": "E5",
                    "midi": 76,
                    "time": 60.413504666667166,
                    "velocity": 0.2440944881889764,
                    "duration": 0.09009863333333357
                },
                {
                    "name": "G#4",
                    "midi": 68,
                    "time": 60.508345333333835,
                    "velocity": 0.2047244094488189,
                    "duration": 0.09009863333333357
                },
                {
                    "name": "E5",
                    "midi": 76,
                    "time": 60.508345333333835,
                    "velocity": 0.2440944881889764,
                    "duration": 0.09009863333333357
                },
                {
                    "name": "B4",
                    "midi": 71,
                    "time": 60.508345333333835,
                    "velocity": 0.2047244094488189,
                    "duration": 0.09009863333333357
                },
                {
                    "name": "B4",
                    "midi": 71,
                    "time": 60.603186000000505,
                    "velocity": 0.2047244094488189,
                    "duration": 0.09009863333333357
                },
                {
                    "name": "G#4",
                    "midi": 68,
                    "time": 60.603186000000505,
                    "velocity": 0.2047244094488189,
                    "duration": 0.09009863333333357
                },
                {
                    "name": "E5",
                    "midi": 76,
                    "time": 60.603186000000505,
                    "velocity": 0.2440944881889764,
                    "duration": 0.09009863333333357
                },
                {
                    "name": "B4",
                    "midi": 71,
                    "time": 60.698026666667175,
                    "velocity": 0.2047244094488189,
                    "duration": 0.09009863333333357
                },
                {
                    "name": "G#4",
                    "midi": 68,
                    "time": 60.698026666667175,
                    "velocity": 0.2047244094488189,
                    "duration": 0.09009863333333357
                },
                {
                    "name": "E5",
                    "midi": 76,
                    "time": 60.698026666667175,
                    "velocity": 0.2440944881889764,
                    "duration": 0.09009863333333357
                },
                {
                    "name": "B4",
                    "midi": 71,
                    "time": 60.792867333333845,
                    "velocity": 0.2125984251968504,
                    "duration": 0.09009863333333357
                },
                {
                    "name": "G#4",
                    "midi": 68,
                    "time": 60.792867333333845,
                    "velocity": 0.2125984251968504,
                    "duration": 0.09009863333333357
                },
                {
                    "name": "E5",
                    "midi": 76,
                    "time": 60.792867333333845,
                    "velocity": 0.25196850393700787,
                    "duration": 0.09009863333333357
                },
                {
                    "name": "G#5",
                    "midi": 80,
                    "time": 60.887708000000515,
                    "velocity": 0.4330708661417323,
                    "duration": 0.2845220000000097
                },
                {
                    "name": "G#4",
                    "midi": 68,
                    "time": 60.982548666667185,
                    "velocity": 0.1968503937007874,
                    "duration": 0.09009863333333357
                },
                {
                    "name": "C#5",
                    "midi": 73,
                    "time": 60.982548666667185,
                    "velocity": 0.2283464566929134,
                    "duration": 0.09009863333333357
                },
                {
                    "name": "B4",
                    "midi": 71,
                    "time": 60.982548666667185,
                    "velocity": 0.1968503937007874,
                    "duration": 0.09009863333333357
                },
                {
                    "name": "B4",
                    "midi": 71,
                    "time": 61.077389333333855,
                    "velocity": 0.1968503937007874,
                    "duration": 0.09009863333333357
                },
                {
                    "name": "C#5",
                    "midi": 73,
                    "time": 61.077389333333855,
                    "velocity": 0.23622047244094488,
                    "duration": 0.09009863333333357
                },
                {
                    "name": "G#4",
                    "midi": 68,
                    "time": 61.077389333333855,
                    "velocity": 0.1968503937007874,
                    "duration": 0.09009863333333357
                },
                {
                    "name": "A5",
                    "midi": 81,
                    "time": 61.172230000000525,
                    "velocity": 0.4251968503937008,
                    "duration": 0.2845220000000097
                },
                {
                    "name": "C#5",
                    "midi": 73,
                    "time": 61.267070666667195,
                    "velocity": 0.2283464566929134,
                    "duration": 0.09009863333333357
                },
                {
                    "name": "A4",
                    "midi": 69,
                    "time": 61.267070666667195,
                    "velocity": 0.1968503937007874,
                    "duration": 0.09009863333333357
                },
                {
                    "name": "A4",
                    "midi": 69,
                    "time": 61.361911333333865,
                    "velocity": 0.1968503937007874,
                    "duration": 0.0948406666666699
                },
                {
                    "name": "C#5",
                    "midi": 73,
                    "time": 61.361911333333865,
                    "velocity": 0.2283464566929134,
                    "duration": 0.0948406666666699
                },
                {
                    "name": "F#5",
                    "midi": 78,
                    "time": 61.456752000000535,
                    "velocity": 0.41732283464566927,
                    "duration": 0.2845220000000097
                },
                {
                    "name": "A4",
                    "midi": 69,
                    "time": 61.551592666667204,
                    "velocity": 0.2125984251968504,
                    "duration": 0.09009863333333357
                },
                {
                    "name": "C#5",
                    "midi": 73,
                    "time": 61.551592666667204,
                    "velocity": 0.25196850393700787,
                    "duration": 0.09009863333333357
                },
                {
                    "name": "A4",
                    "midi": 69,
                    "time": 61.646433333333874,
                    "velocity": 0.2125984251968504,
                    "duration": 0.09009863333333357
                },
                {
                    "name": "C#5",
                    "midi": 73,
                    "time": 61.646433333333874,
                    "velocity": 0.25196850393700787,
                    "duration": 0.09009863333333357
                },
                {
                    "name": "A5",
                    "midi": 81,
                    "time": 61.741274000000544,
                    "velocity": 0.41732283464566927,
                    "duration": 0.2845220000000097
                },
                {
                    "name": "C#5",
                    "midi": 73,
                    "time": 61.836114666667214,
                    "velocity": 0.2440944881889764,
                    "duration": 0.09009863333333357
                },
                {
                    "name": "A4",
                    "midi": 69,
                    "time": 61.836114666667214,
                    "velocity": 0.2047244094488189,
                    "duration": 0.09009863333333357
                },
                {
                    "name": "A4",
                    "midi": 69,
                    "time": 61.930955333333884,
                    "velocity": 0.2047244094488189,
                    "duration": 0.09009863333333357
                },
                {
                    "name": "C#5",
                    "midi": 73,
                    "time": 61.930955333333884,
                    "velocity": 0.2440944881889764,
                    "duration": 0.09009863333333357
                },
                {
                    "name": "F#5",
                    "midi": 78,
                    "time": 62.025796000000554,
                    "velocity": 0.41732283464566927,
                    "duration": 0.2845220000000097
                },
                {
                    "name": "A4",
                    "midi": 69,
                    "time": 62.120636666667224,
                    "velocity": 0.2125984251968504,
                    "duration": 0.09009863333333357
                },
                {
                    "name": "C#5",
                    "midi": 73,
                    "time": 62.120636666667224,
                    "velocity": 0.25196850393700787,
                    "duration": 0.09009863333333357
                },
                {
                    "name": "A4",
                    "midi": 69,
                    "time": 62.215477333333894,
                    "velocity": 0.2125984251968504,
                    "duration": 0.09009863333333357
                },
                {
                    "name": "C#5",
                    "midi": 73,
                    "time": 62.215477333333894,
                    "velocity": 0.25196850393700787,
                    "duration": 0.09009863333333357
                },
                {
                    "name": "A5",
                    "midi": 81,
                    "time": 62.310318000000564,
                    "velocity": 0.41732283464566927,
                    "duration": 0.2845220000000097
                },
                {
                    "name": "A4",
                    "midi": 69,
                    "time": 62.40515866666723,
                    "velocity": 0.2047244094488189,
                    "duration": 0.09009863333333357
                },
                {
                    "name": "C#5",
                    "midi": 73,
                    "time": 62.40515866666723,
                    "velocity": 0.2440944881889764,
                    "duration": 0.09009863333333357
                },
                {
                    "name": "C#5",
                    "midi": 73,
                    "time": 62.4999993333339,
                    "velocity": 0.2440944881889764,
                    "duration": 0.09009863333333357
                },
                {
                    "name": "A4",
                    "midi": 69,
                    "time": 62.4999993333339,
                    "velocity": 0.2047244094488189,
                    "duration": 0.09009863333333357
                },
                {
                    "name": "A5",
                    "midi": 81,
                    "time": 62.59484000000057,
                    "velocity": 0.4409448818897638,
                    "duration": 0.2845220000000097
                },
                {
                    "name": "C#5",
                    "midi": 73,
                    "time": 62.68968066666724,
                    "velocity": 0.2125984251968504,
                    "duration": 0.09009863333333357
                },
                {
                    "name": "F#5",
                    "midi": 78,
                    "time": 62.68968066666724,
                    "velocity": 0.25196850393700787,
                    "duration": 0.09009863333333357
                },
                {
                    "name": "C#5",
                    "midi": 73,
                    "time": 62.78452133333391,
                    "velocity": 0.2125984251968504,
                    "duration": 0.09009863333333357
                },
                {
                    "name": "F#5",
                    "midi": 78,
                    "time": 62.78452133333391,
                    "velocity": 0.25196850393700787,
                    "duration": 0.09009863333333357
                },
                {
                    "name": "C#6",
                    "midi": 85,
                    "time": 62.87936200000058,
                    "velocity": 0.4330708661417323,
                    "duration": 0.2845220000000097
                },
                {
                    "name": "C#5",
                    "midi": 73,
                    "time": 62.97420266666725,
                    "velocity": 0.2125984251968504,
                    "duration": 0.09009863333333357
                },
                {
                    "name": "F#5",
                    "midi": 78,
                    "time": 62.97420266666725,
                    "velocity": 0.25196850393700787,
                    "duration": 0.09009863333333357
                },
                {
                    "name": "F#5",
                    "midi": 78,
                    "time": 63.06904333333392,
                    "velocity": 0.25196850393700787,
                    "duration": 0.09009863333333357
                },
                {
                    "name": "C#5",
                    "midi": 73,
                    "time": 63.06904333333392,
                    "velocity": 0.2125984251968504,
                    "duration": 0.09009863333333357
                },
                {
                    "name": "A5",
                    "midi": 81,
                    "time": 63.16388400000059,
                    "velocity": 0.4330708661417323,
                    "duration": 0.2845220000000097
                },
                {
                    "name": "F#5",
                    "midi": 78,
                    "time": 63.25872466666726,
                    "velocity": 0.25196850393700787,
                    "duration": 0.09009863333333357
                },
                {
                    "name": "C#5",
                    "midi": 73,
                    "time": 63.25872466666726,
                    "velocity": 0.2125984251968504,
                    "duration": 0.09009863333333357
                },
                {
                    "name": "C#5",
                    "midi": 73,
                    "time": 63.35356533333393,
                    "velocity": 0.2125984251968504,
                    "duration": 0.09009863333333357
                },
                {
                    "name": "F#5",
                    "midi": 78,
                    "time": 63.35356533333393,
                    "velocity": 0.25196850393700787,
                    "duration": 0.09009863333333357
                },
                {
                    "name": "C#6",
                    "midi": 85,
                    "time": 63.4484060000006,
                    "velocity": 0.4409448818897638,
                    "duration": 0.2845220000000097
                },
                {
                    "name": "C#5",
                    "midi": 73,
                    "time": 63.54324666666727,
                    "velocity": 0.2125984251968504,
                    "duration": 0.09009863333333357
                },
                {
                    "name": "F#5",
                    "midi": 78,
                    "time": 63.54324666666727,
                    "velocity": 0.25196850393700787,
                    "duration": 0.09009863333333357
                },
                {
                    "name": "F#5",
                    "midi": 78,
                    "time": 63.63808733333394,
                    "velocity": 0.25196850393700787,
                    "duration": 0.09009863333333357
                },
                {
                    "name": "C#5",
                    "midi": 73,
                    "time": 63.63808733333394,
                    "velocity": 0.2125984251968504,
                    "duration": 0.09009863333333357
                },
                {
                    "name": "C#5",
                    "midi": 73,
                    "time": 63.73292800000061,
                    "velocity": 0.4409448818897638,
                    "duration": 0.2845219999999955
                },
                {
                    "name": "A4",
                    "midi": 69,
                    "time": 63.82776866666728,
                    "velocity": 0.25196850393700787,
                    "duration": 0.09009863333333357
                },
                {
                    "name": "F#4",
                    "midi": 66,
                    "time": 63.82776866666728,
                    "velocity": 0.2125984251968504,
                    "duration": 0.09009863333333357
                },
                {
                    "name": "A4",
                    "midi": 69,
                    "time": 63.92260933333395,
                    "velocity": 0.25196850393700787,
                    "duration": 0.09009863333332646
                },
                {
                    "name": "F#4",
                    "midi": 66,
                    "time": 63.92260933333395,
                    "velocity": 0.2125984251968504,
                    "duration": 0.09009863333332646
                },
                {
                    "name": "F5",
                    "midi": 77,
                    "time": 64.01745000000061,
                    "velocity": 0.4409448818897638,
                    "duration": 0.2845219999999813
                },
                {
                    "name": "C#5",
                    "midi": 73,
                    "time": 64.11229066666728,
                    "velocity": 0.25984251968503935,
                    "duration": 0.09009863333332646
                },
                {
                    "name": "F4",
                    "midi": 65,
                    "time": 64.11229066666728,
                    "velocity": 0.2125984251968504,
                    "duration": 0.09009863333332646
                },
                {
                    "name": "B4",
                    "midi": 71,
                    "time": 64.11229066666728,
                    "velocity": 0.25984251968503935,
                    "duration": 0.09009863333332646
                },
                {
                    "name": "C#5",
                    "midi": 73,
                    "time": 64.20713133333393,
                    "velocity": 0.2677165354330709,
                    "duration": 0.09009863333332646
                },
                {
                    "name": "F4",
                    "midi": 65,
                    "time": 64.20713133333393,
                    "velocity": 0.2125984251968504,
                    "duration": 0.09009863333332646
                },
                {
                    "name": "B4",
                    "midi": 71,
                    "time": 64.20713133333393,
                    "velocity": 0.2677165354330709,
                    "duration": 0.09009863333332646
                },
                {
                    "name": "F#5",
                    "midi": 78,
                    "time": 64.30197200000059,
                    "velocity": 0.4566929133858268,
                    "duration": 0.2845219999999813
                },
                {
                    "name": "A4",
                    "midi": 69,
                    "time": 64.39681266666726,
                    "velocity": 0.2677165354330709,
                    "duration": 0.09009863333332646
                },
                {
                    "name": "C#5",
                    "midi": 73,
                    "time": 64.39681266666726,
                    "velocity": 0.2677165354330709,
                    "duration": 0.09009863333332646
                },
                {
                    "name": "F#4",
                    "midi": 66,
                    "time": 64.39681266666726,
                    "velocity": 0.2204724409448819,
                    "duration": 0.09009863333332646
                },
                {
                    "name": "A4",
                    "midi": 69,
                    "time": 64.49165333333391,
                    "velocity": 0.2755905511811024,
                    "duration": 0.09009863333332646
                },
                {
                    "name": "C#5",
                    "midi": 73,
                    "time": 64.49165333333391,
                    "velocity": 0.2755905511811024,
                    "duration": 0.09009863333332646
                },
                {
                    "name": "F#4",
                    "midi": 66,
                    "time": 64.49165333333391,
                    "velocity": 0.2283464566929134,
                    "duration": 0.09009863333332646
                },
                {
                    "name": "G#5",
                    "midi": 80,
                    "time": 64.58649400000057,
                    "velocity": 0.4881889763779528,
                    "duration": 0.2845219999999813
                },
                {
                    "name": "D5",
                    "midi": 74,
                    "time": 64.68133466666724,
                    "velocity": 0.28346456692913385,
                    "duration": 0.09009863333332646
                },
                {
                    "name": "E5",
                    "midi": 76,
                    "time": 64.68133466666724,
                    "velocity": 0.28346456692913385,
                    "duration": 0.09009863333332646
                },
                {
                    "name": "G#4",
                    "midi": 68,
                    "time": 64.68133466666724,
                    "velocity": 0.2283464566929134,
                    "duration": 0.09009863333332646
                },
                {
                    "name": "D5",
                    "midi": 74,
                    "time": 64.7761753333339,
                    "velocity": 0.28346456692913385,
                    "duration": 0.09009863333332646
                },
                {
                    "name": "E5",
                    "midi": 76,
                    "time": 64.7761753333339,
                    "velocity": 0.28346456692913385,
                    "duration": 0.09009863333332646
                },
                {
                    "name": "G#4",
                    "midi": 68,
                    "time": 64.7761753333339,
                    "velocity": 0.2283464566929134,
                    "duration": 0.09009863333332646
                },
                {
                    "name": "A5",
                    "midi": 81,
                    "time": 64.87101600000055,
                    "velocity": 0.48031496062992124,
                    "duration": 0.2845219999999813
                },
                {
                    "name": "C#5",
                    "midi": 73,
                    "time": 64.96585666666722,
                    "velocity": 0.23622047244094488,
                    "duration": 0.09009863333332646
                },
                {
                    "name": "A4",
                    "midi": 69,
                    "time": 64.96585666666722,
                    "velocity": 0.23622047244094488,
                    "duration": 0.09009863333332646
                },
                {
                    "name": "E5",
                    "midi": 76,
                    "time": 64.96585666666722,
                    "velocity": 0.28346456692913385,
                    "duration": 0.09009863333332646
                },
                {
                    "name": "C#5",
                    "midi": 73,
                    "time": 65.06069733333388,
                    "velocity": 0.2283464566929134,
                    "duration": 0.09009863333332646
                },
                {
                    "name": "E5",
                    "midi": 76,
                    "time": 65.06069733333388,
                    "velocity": 0.28346456692913385,
                    "duration": 0.09009863333332646
                },
                {
                    "name": "A4",
                    "midi": 69,
                    "time": 65.06069733333388,
                    "velocity": 0.2283464566929134,
                    "duration": 0.09009863333332646
                },
                {
                    "name": "B5",
                    "midi": 83,
                    "time": 65.15553800000053,
                    "velocity": 0.47244094488188976,
                    "duration": 0.2845219999999813
                },
                {
                    "name": "B4",
                    "midi": 71,
                    "time": 65.2503786666672,
                    "velocity": 0.2204724409448819,
                    "duration": 0.09009863333332646
                },
                {
                    "name": "F5",
                    "midi": 77,
                    "time": 65.2503786666672,
                    "velocity": 0.2755905511811024,
                    "duration": 0.09009863333332646
                },
                {
                    "name": "C#5",
                    "midi": 73,
                    "time": 65.2503786666672,
                    "velocity": 0.2755905511811024,
                    "duration": 0.09009863333332646
                },
                {
                    "name": "B4",
                    "midi": 71,
                    "time": 65.34521933333386,
                    "velocity": 0.2204724409448819,
                    "duration": 0.09009863333332646
                },
                {
                    "name": "F5",
                    "midi": 77,
                    "time": 65.34521933333386,
                    "velocity": 0.2677165354330709,
                    "duration": 0.09009863333332646
                },
                {
                    "name": "C#5",
                    "midi": 73,
                    "time": 65.34521933333386,
                    "velocity": 0.2677165354330709,
                    "duration": 0.09009863333332646
                },
                {
                    "name": "A5",
                    "midi": 81,
                    "time": 65.44006000000051,
                    "velocity": 0.44881889763779526,
                    "duration": 0.2845219999999813
                },
                {
                    "name": "F#5",
                    "midi": 78,
                    "time": 65.53490066666718,
                    "velocity": 0.25984251968503935,
                    "duration": 0.09009863333332646
                },
                {
                    "name": "C#5",
                    "midi": 73,
                    "time": 65.53490066666718,
                    "velocity": 0.25984251968503935,
                    "duration": 0.09009863333332646
                },
                {
                    "name": "A4",
                    "midi": 69,
                    "time": 65.53490066666718,
                    "velocity": 0.2125984251968504,
                    "duration": 0.09009863333332646
                },
                {
                    "name": "A4",
                    "midi": 69,
                    "time": 65.62974133333384,
                    "velocity": 0.2125984251968504,
                    "duration": 0.09009863333332646
                },
                {
                    "name": "F#5",
                    "midi": 78,
                    "time": 65.62974133333384,
                    "velocity": 0.25196850393700787,
                    "duration": 0.09009863333332646
                },
                {
                    "name": "C#5",
                    "midi": 73,
                    "time": 65.62974133333384,
                    "velocity": 0.25196850393700787,
                    "duration": 0.09009863333332646
                },
                {
                    "name": "G#5",
                    "midi": 80,
                    "time": 65.7245820000005,
                    "velocity": 0.4409448818897638,
                    "duration": 0.2845219999999813
                },
                {
                    "name": "E5",
                    "midi": 76,
                    "time": 65.81942266666717,
                    "velocity": 0.25196850393700787,
                    "duration": 0.09009863333332646
                },
                {
                    "name": "G#4",
                    "midi": 68,
                    "time": 65.81942266666717,
                    "velocity": 0.2125984251968504,
                    "duration": 0.09009863333332646
                },
                {
                    "name": "B4",
                    "midi": 71,
                    "time": 65.81942266666717,
                    "velocity": 0.25196850393700787,
                    "duration": 0.09009863333332646
                },
                {
                    "name": "E5",
                    "midi": 76,
                    "time": 65.91426333333382,
                    "velocity": 0.25196850393700787,
                    "duration": 0.09009863333332646
                },
                {
                    "name": "G#4",
                    "midi": 68,
                    "time": 65.91426333333382,
                    "velocity": 0.2125984251968504,
                    "duration": 0.09009863333332646
                },
                {
                    "name": "B4",
                    "midi": 71,
                    "time": 65.91426333333382,
                    "velocity": 0.25196850393700787,
                    "duration": 0.09009863333332646
                },
                {
                    "name": "G#5",
                    "midi": 80,
                    "time": 66.00910400000048,
                    "velocity": 0.4251968503937008,
                    "duration": 0.5690439999999484
                },
                {
                    "name": "E5",
                    "midi": 76,
                    "time": 66.10394466666715,
                    "velocity": 0.2440944881889764,
                    "duration": 0.09009863333332646
                },
                {
                    "name": "B4",
                    "midi": 71,
                    "time": 66.10394466666715,
                    "velocity": 0.2047244094488189,
                    "duration": 0.09009863333332646
                },
                {
                    "name": "G#4",
                    "midi": 68,
                    "time": 66.10394466666715,
                    "velocity": 0.2047244094488189,
                    "duration": 0.09009863333332646
                },
                {
                    "name": "B4",
                    "midi": 71,
                    "time": 66.1987853333338,
                    "velocity": 0.2047244094488189,
                    "duration": 0.09009863333332646
                },
                {
                    "name": "G#4",
                    "midi": 68,
                    "time": 66.1987853333338,
                    "velocity": 0.2047244094488189,
                    "duration": 0.09009863333332646
                },
                {
                    "name": "E5",
                    "midi": 76,
                    "time": 66.1987853333338,
                    "velocity": 0.2440944881889764,
                    "duration": 0.09009863333332646
                },
                {
                    "name": "B4",
                    "midi": 71,
                    "time": 66.29362600000046,
                    "velocity": 0.2047244094488189,
                    "duration": 0.09009863333332646
                },
                {
                    "name": "G#4",
                    "midi": 68,
                    "time": 66.29362600000046,
                    "velocity": 0.2047244094488189,
                    "duration": 0.09009863333332646
                },
                {
                    "name": "E5",
                    "midi": 76,
                    "time": 66.29362600000046,
                    "velocity": 0.2440944881889764,
                    "duration": 0.09009863333332646
                },
                {
                    "name": "B4",
                    "midi": 71,
                    "time": 66.38846666666711,
                    "velocity": 0.2047244094488189,
                    "duration": 0.09009863333332646
                },
                {
                    "name": "G#4",
                    "midi": 68,
                    "time": 66.38846666666711,
                    "velocity": 0.2047244094488189,
                    "duration": 0.09009863333332646
                },
                {
                    "name": "E5",
                    "midi": 76,
                    "time": 66.38846666666711,
                    "velocity": 0.2440944881889764,
                    "duration": 0.09009863333332646
                },
                {
                    "name": "B4",
                    "midi": 71,
                    "time": 66.48330733333377,
                    "velocity": 0.2125984251968504,
                    "duration": 0.09009863333332646
                },
                {
                    "name": "G#4",
                    "midi": 68,
                    "time": 66.48330733333377,
                    "velocity": 0.2125984251968504,
                    "duration": 0.09009863333332646
                },
                {
                    "name": "E5",
                    "midi": 76,
                    "time": 66.48330733333377,
                    "velocity": 0.25196850393700787,
                    "duration": 0.09009863333332646
                },
                {
                    "name": "C#5",
                    "midi": 73,
                    "time": 66.57814800000043,
                    "velocity": 0.3228346456692913,
                    "duration": 0.14226100000000486
                },
                {
                    "name": "E5",
                    "midi": 76,
                    "time": 66.57814800000043,
                    "velocity": 0.3228346456692913,
                    "duration": 0.14226100000000486
                },
                {
                    "name": "A4",
                    "midi": 69,
                    "time": 66.57814800000043,
                    "velocity": 0.3228346456692913,
                    "duration": 0.14226100000000486
                },
                {
                    "name": "A5",
                    "midi": 81,
                    "time": 66.57814800000043,
                    "velocity": 0.3858267716535433,
                    "duration": 0.14226100000000486
                },
                {
                    "name": "E5",
                    "midi": 76,
                    "time": 66.86267000000043,
                    "velocity": 0.4094488188976378,
                    "duration": 0.2845219999999955
                },
                {
                    "name": "E5",
                    "midi": 76,
                    "time": 67.14719200000043,
                    "velocity": 0.4251968503937008,
                    "duration": 0.42678300000000036
                },
                {
                    "name": "D5",
                    "midi": 74,
                    "time": 67.57397500000043,
                    "velocity": 0.4015748031496063,
                    "duration": 0.14226100000000486
                },
                {
                    "name": "C#5",
                    "midi": 73,
                    "time": 67.71623600000044,
                    "velocity": 0.4015748031496063,
                    "duration": 0.14226100000000486
                },
                {
                    "name": "C#5",
                    "midi": 73,
                    "time": 68.00075800000045,
                    "velocity": 0.4094488188976378,
                    "duration": 0.2845219999999955
                },
                {
                    "name": "C#5",
                    "midi": 73,
                    "time": 68.28528000000044,
                    "velocity": 0.4251968503937008,
                    "duration": 0.42678300000000036
                },
                {
                    "name": "B4",
                    "midi": 71,
                    "time": 68.71206300000044,
                    "velocity": 0.4015748031496063,
                    "duration": 0.14226100000000486
                },
                {
                    "name": "A#4",
                    "midi": 70,
                    "time": 68.85432400000045,
                    "velocity": 0.4015748031496063,
                    "duration": 0.14226100000000486
                },
                {
                    "name": "A#4",
                    "midi": 70,
                    "time": 69.13884600000046,
                    "velocity": 0.4094488188976378,
                    "duration": 0.2845219999999955
                },
                {
                    "name": "F#4",
                    "midi": 66,
                    "time": 69.13884600000046,
                    "velocity": 0.4094488188976378,
                    "duration": 0.2845219999999955
                },
                {
                    "name": "A#4",
                    "midi": 70,
                    "time": 69.42336800000045,
                    "velocity": 0.4094488188976378,
                    "duration": 0.2845219999999955
                },
                {
                    "name": "F#4",
                    "midi": 66,
                    "time": 69.42336800000045,
                    "velocity": 0.3464566929133858,
                    "duration": 0.2845219999999955
                },
                {
                    "name": "F#4",
                    "midi": 66,
                    "time": 69.70789000000045,
                    "velocity": 0.3700787401574803,
                    "duration": 0.2845219999999955
                },
                {
                    "name": "B4",
                    "midi": 71,
                    "time": 69.70789000000045,
                    "velocity": 0.4330708661417323,
                    "duration": 0.2845219999999955
                },
                {
                    "name": "F#4",
                    "midi": 66,
                    "time": 69.99241200000044,
                    "velocity": 0.3700787401574803,
                    "duration": 0.2845219999999955
                },
                {
                    "name": "A#4",
                    "midi": 70,
                    "time": 69.99241200000044,
                    "velocity": 0.3700787401574803,
                    "duration": 0.2845219999999955
                },
                {
                    "name": "C#5",
                    "midi": 73,
                    "time": 69.99241200000044,
                    "velocity": 0.4409448818897638,
                    "duration": 0.2845219999999955
                },
                {
                    "name": "F#4",
                    "midi": 66,
                    "time": 70.27693400000044,
                    "velocity": 0.3779527559055118,
                    "duration": 0.2845219999999955
                },
                {
                    "name": "B4",
                    "midi": 71,
                    "time": 70.27693400000044,
                    "velocity": 0.3779527559055118,
                    "duration": 0.2845219999999955
                },
                {
                    "name": "D5",
                    "midi": 74,
                    "time": 70.27693400000044,
                    "velocity": 0.44881889763779526,
                    "duration": 0.2845219999999955
                },
                {
                    "name": "F#4",
                    "midi": 66,
                    "time": 70.56145600000043,
                    "velocity": 0.3937007874015748,
                    "duration": 0.2845219999999955
                },
                {
                    "name": "E5",
                    "midi": 76,
                    "time": 70.56145600000043,
                    "velocity": 0.4645669291338583,
                    "duration": 0.2845219999999955
                },
                {
                    "name": "C#5",
                    "midi": 73,
                    "time": 70.56145600000043,
                    "velocity": 0.3937007874015748,
                    "duration": 0.2845219999999955
                },
                {
                    "name": "C#5",
                    "midi": 73,
                    "time": 70.84597800000043,
                    "velocity": 0.4015748031496063,
                    "duration": 0.2845219999999955
                },
                {
                    "name": "G4",
                    "midi": 67,
                    "time": 70.84597800000043,
                    "velocity": 0.4015748031496063,
                    "duration": 0.2845219999999955
                },
                {
                    "name": "E5",
                    "midi": 76,
                    "time": 70.84597800000043,
                    "velocity": 0.47244094488188976,
                    "duration": 0.2845219999999955
                },
                {
                    "name": "C#5",
                    "midi": 73,
                    "time": 71.13050000000042,
                    "velocity": 0.4094488188976378,
                    "duration": 0.2845219999999955
                },
                {
                    "name": "G#4",
                    "midi": 68,
                    "time": 71.13050000000042,
                    "velocity": 0.4094488188976378,
                    "duration": 0.2845219999999955
                },
                {
                    "name": "E5",
                    "midi": 76,
                    "time": 71.13050000000042,
                    "velocity": 0.48031496062992124,
                    "duration": 0.2845219999999955
                },
                {
                    "name": "C#5",
                    "midi": 73,
                    "time": 71.41502200000042,
                    "velocity": 0.41732283464566927,
                    "duration": 0.2845219999999955
                },
                {
                    "name": "A4",
                    "midi": 69,
                    "time": 71.41502200000042,
                    "velocity": 0.41732283464566927,
                    "duration": 0.2845219999999955
                },
                {
                    "name": "E5",
                    "midi": 76,
                    "time": 71.41502200000042,
                    "velocity": 0.49606299212598426,
                    "duration": 0.2845219999999955
                },
                {
                    "name": "E5",
                    "midi": 76,
                    "time": 71.69954400000042,
                    "velocity": 0.4645669291338583,
                    "duration": 0.35565250000000503
                },
                {
                    "name": "F5",
                    "midi": 77,
                    "time": 72.05519650000042,
                    "velocity": 0.4015748031496063,
                    "duration": 0.07113049999999532
                },
                {
                    "name": "E5",
                    "midi": 76,
                    "time": 72.12632700000042,
                    "velocity": 0.41732283464566927,
                    "duration": 0.07113049999999532
                },
                {
                    "name": "D5",
                    "midi": 74,
                    "time": 72.19745750000041,
                    "velocity": 0.4015748031496063,
                    "duration": 0.07113049999999532
                },
                {
                    "name": "C#5",
                    "midi": 73,
                    "time": 72.2685880000004,
                    "velocity": 0.4409448818897638,
                    "duration": 0.14226100000000486
                },
                {
                    "name": "C#5",
                    "midi": 73,
                    "time": 72.55311000000042,
                    "velocity": 0.44881889763779526,
                    "duration": 0.2845219999999955
                },
                {
                    "name": "C#5",
                    "midi": 73,
                    "time": 72.83763200000041,
                    "velocity": 0.4645669291338583,
                    "duration": 0.35565250000000503
                },
                {
                    "name": "D5",
                    "midi": 74,
                    "time": 73.19328450000042,
                    "velocity": 0.41732283464566927,
                    "duration": 0.07113049999999532
                },
                {
                    "name": "C#5",
                    "midi": 73,
                    "time": 73.26441500000041,
                    "velocity": 0.41732283464566927,
                    "duration": 0.07113049999999532
                },
                {
                    "name": "B4",
                    "midi": 71,
                    "time": 73.3355455000004,
                    "velocity": 0.41732283464566927,
                    "duration": 0.07113049999999532
                },
                {
                    "name": "A#4",
                    "midi": 70,
                    "time": 73.4066760000004,
                    "velocity": 0.4409448818897638,
                    "duration": 0.14226100000000486
                },
                {
                    "name": "F#4",
                    "midi": 66,
                    "time": 73.69119800000041,
                    "velocity": 0.44881889763779526,
                    "duration": 0.2845219999999955
                },
                {
                    "name": "A#4",
                    "midi": 70,
                    "time": 73.69119800000041,
                    "velocity": 0.44881889763779526,
                    "duration": 0.2845219999999955
                },
                {
                    "name": "A#4",
                    "midi": 70,
                    "time": 73.97572000000041,
                    "velocity": 0.44881889763779526,
                    "duration": 0.21339150000000018
                },
                {
                    "name": "F#4",
                    "midi": 66,
                    "time": 73.97572000000041,
                    "velocity": 0.3779527559055118,
                    "duration": 0.21339150000000018
                },
                {
                    "name": "A#4",
                    "midi": 70,
                    "time": 74.18911150000041,
                    "velocity": 0.44881889763779526,
                    "duration": 0.07113049999999532
                },
                {
                    "name": "F#4",
                    "midi": 66,
                    "time": 74.18911150000041,
                    "velocity": 0.3779527559055118,
                    "duration": 0.07113049999999532
                },
                {
                    "name": "B4",
                    "midi": 71,
                    "time": 74.2602420000004,
                    "velocity": 0.47244094488188976,
                    "duration": 0.21339150000000018
                },
                {
                    "name": "F#4",
                    "midi": 66,
                    "time": 74.2602420000004,
                    "velocity": 0.4015748031496063,
                    "duration": 0.21339150000000018
                },
                {
                    "name": "F#4",
                    "midi": 66,
                    "time": 74.4736335000004,
                    "velocity": 0.4015748031496063,
                    "duration": 0.07113049999999532
                },
                {
                    "name": "B4",
                    "midi": 71,
                    "time": 74.4736335000004,
                    "velocity": 0.47244094488188976,
                    "duration": 0.07113049999999532
                },
                {
                    "name": "F#4",
                    "midi": 66,
                    "time": 74.5447640000004,
                    "velocity": 0.4015748031496063,
                    "duration": 0.21339150000000018
                },
                {
                    "name": "A#4",
                    "midi": 70,
                    "time": 74.5447640000004,
                    "velocity": 0.4015748031496063,
                    "duration": 0.21339150000000018
                },
                {
                    "name": "C#5",
                    "midi": 73,
                    "time": 74.5447640000004,
                    "velocity": 0.48031496062992124,
                    "duration": 0.21339150000000018
                },
                {
                    "name": "F#4",
                    "midi": 66,
                    "time": 74.7581555000004,
                    "velocity": 0.4015748031496063,
                    "duration": 0.07113049999999532
                },
                {
                    "name": "A#4",
                    "midi": 70,
                    "time": 74.7581555000004,
                    "velocity": 0.4015748031496063,
                    "duration": 0.07113049999999532
                },
                {
                    "name": "C#5",
                    "midi": 73,
                    "time": 74.7581555000004,
                    "velocity": 0.48031496062992124,
                    "duration": 0.07113049999999532
                },
                {
                    "name": "F#4",
                    "midi": 66,
                    "time": 74.8292860000004,
                    "velocity": 0.4094488188976378,
                    "duration": 0.21339150000000018
                },
                {
                    "name": "D5",
                    "midi": 74,
                    "time": 74.8292860000004,
                    "velocity": 0.4881889763779528,
                    "duration": 0.21339150000000018
                },
                {
                    "name": "B4",
                    "midi": 71,
                    "time": 74.8292860000004,
                    "velocity": 0.4094488188976378,
                    "duration": 0.21339150000000018
                },
                {
                    "name": "B4",
                    "midi": 71,
                    "time": 75.0426775000004,
                    "velocity": 0.4094488188976378,
                    "duration": 0.07113049999999532
                },
                {
                    "name": "F#4",
                    "midi": 66,
                    "time": 75.0426775000004,
                    "velocity": 0.4094488188976378,
                    "duration": 0.07113049999999532
                },
                {
                    "name": "D5",
                    "midi": 74,
                    "time": 75.0426775000004,
                    "velocity": 0.4881889763779528,
                    "duration": 0.07113049999999532
                },
                {
                    "name": "C#5",
                    "midi": 73,
                    "time": 75.11380800000039,
                    "velocity": 0.4330708661417323,
                    "duration": 0.21339150000000018
                },
                {
                    "name": "F#4",
                    "midi": 66,
                    "time": 75.11380800000039,
                    "velocity": 0.4330708661417323,
                    "duration": 0.21339150000000018
                },
                {
                    "name": "E5",
                    "midi": 76,
                    "time": 75.11380800000039,
                    "velocity": 0.5039370078740157,
                    "duration": 0.21339150000000018
                },
                {
                    "name": "C#5",
                    "midi": 73,
                    "time": 75.32719950000039,
                    "velocity": 0.4330708661417323,
                    "duration": 0.07113049999999532
                },
                {
                    "name": "F#4",
                    "midi": 66,
                    "time": 75.32719950000039,
                    "velocity": 0.4330708661417323,
                    "duration": 0.07113049999999532
                },
                {
                    "name": "E5",
                    "midi": 76,
                    "time": 75.32719950000039,
                    "velocity": 0.5039370078740157,
                    "duration": 0.07113049999999532
                },
                {
                    "name": "C#5",
                    "midi": 73,
                    "time": 75.39833000000039,
                    "velocity": 0.4409448818897638,
                    "duration": 0.21339150000000018
                },
                {
                    "name": "G4",
                    "midi": 67,
                    "time": 75.39833000000039,
                    "velocity": 0.4409448818897638,
                    "duration": 0.21339150000000018
                },
                {
                    "name": "E5",
                    "midi": 76,
                    "time": 75.39833000000039,
                    "velocity": 0.5196850393700787,
                    "duration": 0.21339150000000018
                },
                {
                    "name": "C#5",
                    "midi": 73,
                    "time": 75.61172150000039,
                    "velocity": 0.4409448818897638,
                    "duration": 0.07113049999999532
                },
                {
                    "name": "E5",
                    "midi": 76,
                    "time": 75.61172150000039,
                    "velocity": 0.5196850393700787,
                    "duration": 0.07113049999999532
                },
                {
                    "name": "G4",
                    "midi": 67,
                    "time": 75.61172150000039,
                    "velocity": 0.4409448818897638,
                    "duration": 0.07113049999999532
                },
                {
                    "name": "E5",
                    "midi": 76,
                    "time": 75.68285200000038,
                    "velocity": 0.5275590551181102,
                    "duration": 0.21339150000000018
                },
                {
                    "name": "G#4",
                    "midi": 68,
                    "time": 75.68285200000038,
                    "velocity": 0.44881889763779526,
                    "duration": 0.21339150000000018
                },
                {
                    "name": "C#5",
                    "midi": 73,
                    "time": 75.68285200000038,
                    "velocity": 0.44881889763779526,
                    "duration": 0.21339150000000018
                },
                {
                    "name": "E5",
                    "midi": 76,
                    "time": 75.89624350000038,
                    "velocity": 0.5275590551181102,
                    "duration": 0.07113049999999532
                },
                {
                    "name": "G#4",
                    "midi": 68,
                    "time": 75.89624350000038,
                    "velocity": 0.44881889763779526,
                    "duration": 0.07113049999999532
                },
                {
                    "name": "C#5",
                    "midi": 73,
                    "time": 75.89624350000038,
                    "velocity": 0.44881889763779526,
                    "duration": 0.07113049999999532
                },
                {
                    "name": "E5",
                    "midi": 76,
                    "time": 75.96737400000038,
                    "velocity": 0.5433070866141733,
                    "duration": 0.2845219999999955
                },
                {
                    "name": "A4",
                    "midi": 69,
                    "time": 75.96737400000038,
                    "velocity": 0.4566929133858268,
                    "duration": 0.2845219999999955
                },
                {
                    "name": "C#5",
                    "midi": 73,
                    "time": 75.96737400000038,
                    "velocity": 0.4566929133858268,
                    "duration": 0.2845219999999955
                },
                {
                    "name": "E5",
                    "midi": 76,
                    "time": 76.25189600000037,
                    "velocity": 0.4645669291338583,
                    "duration": 0.4979134999999957
                },
                {
                    "name": "D5",
                    "midi": 74,
                    "time": 76.74980950000037,
                    "velocity": 0.4409448818897638,
                    "duration": 0.07113049999999532
                },
                {
                    "name": "C#5",
                    "midi": 73,
                    "time": 76.82094000000036,
                    "velocity": 0.4409448818897638,
                    "duration": 0.14226100000000486
                },
                {
                    "name": "C#5",
                    "midi": 73,
                    "time": 77.10546200000037,
                    "velocity": 0.44881889763779526,
                    "duration": 0.2845220000000097
                },
                {
                    "name": "E5",
                    "midi": 76,
                    "time": 77.35441875000038,
                    "velocity": 0.3858267716535433,
                    "duration": 0.03556525000000477
                },
                {
                    "name": "D5",
                    "midi": 74,
                    "time": 77.38998400000038,
                    "velocity": 0.47244094488188976,
                    "duration": 0.07113049999999532
                },
                {
                    "name": "C#5",
                    "midi": 73,
                    "time": 77.46111450000038,
                    "velocity": 0.44881889763779526,
                    "duration": 0.07113049999999532
                },
                {
                    "name": "D5",
                    "midi": 74,
                    "time": 77.53224500000037,
                    "velocity": 0.44881889763779526,
                    "duration": 0.07113049999999532
                },
                {
                    "name": "E5",
                    "midi": 76,
                    "time": 77.60337550000037,
                    "velocity": 0.44881889763779526,
                    "duration": 0.07113050000000953
                },
                {
                    "name": "G5",
                    "midi": 79,
                    "time": 77.63894075000037,
                    "velocity": 0.3858267716535433,
                    "duration": 0.03556525000000477
                },
                {
                    "name": "F5",
                    "midi": 77,
                    "time": 77.67450600000038,
                    "velocity": 0.47244094488188976,
                    "duration": 0.07113049999999532
                },
                {
                    "name": "E5",
                    "midi": 76,
                    "time": 77.74563650000037,
                    "velocity": 0.44881889763779526,
                    "duration": 0.07113049999999532
                },
                {
                    "name": "F5",
                    "midi": 77,
                    "time": 77.81676700000037,
                    "velocity": 0.44881889763779526,
                    "duration": 0.07113049999999532
                },
                {
                    "name": "G5",
                    "midi": 79,
                    "time": 77.88789750000036,
                    "velocity": 0.44881889763779526,
                    "duration": 0.07113049999999532
                },
                {
                    "name": "A5",
                    "midi": 81,
                    "time": 77.95902800000036,
                    "velocity": 0.4645669291338583,
                    "duration": 0.14226100000000486
                },
                {
                    "name": "A5",
                    "midi": 81,
                    "time": 78.24355000000037,
                    "velocity": 0.4645669291338583,
                    "duration": 0.14226100000000486
                },
                {
                    "name": "F5",
                    "midi": 77,
                    "time": 78.38581100000037,
                    "velocity": 0.44881889763779526,
                    "duration": 0.14226100000000486
                },
                {
                    "name": "E5",
                    "midi": 76,
                    "time": 78.52807200000038,
                    "velocity": 0.4645669291338583,
                    "duration": 0.4979134999999957
                },
                {
                    "name": "D5",
                    "midi": 74,
                    "time": 79.02598550000037,
                    "velocity": 0.4409448818897638,
                    "duration": 0.07113049999999532
                },
                {
                    "name": "C#5",
                    "midi": 73,
                    "time": 79.09711600000037,
                    "velocity": 0.4409448818897638,
                    "duration": 0.14226100000000486
                },
                {
                    "name": "C#6",
                    "midi": 85,
                    "time": 79.38163800000038,
                    "velocity": 0.49606299212598426,
                    "duration": 0.2845219999999955
                },
                {
                    "name": "C#5",
                    "midi": 73,
                    "time": 79.38163800000038,
                    "velocity": 0.49606299212598426,
                    "duration": 0.2845219999999955
                },
                {
                    "name": "D5",
                    "midi": 74,
                    "time": 79.66616000000037,
                    "velocity": 0.49606299212598426,
                    "duration": 0.14226100000000486
                },
                {
                    "name": "D6",
                    "midi": 86,
                    "time": 79.66616000000037,
                    "velocity": 0.49606299212598426,
                    "duration": 0.14226100000000486
                },
                {
                    "name": "F5",
                    "midi": 77,
                    "time": 79.80842100000038,
                    "velocity": 0.5039370078740157,
                    "duration": 0.14226100000000486
                },
                {
                    "name": "F6",
                    "midi": 89,
                    "time": 79.80842100000038,
                    "velocity": 0.5039370078740157,
                    "duration": 0.14226100000000486
                },
                {
                    "name": "G5",
                    "midi": 79,
                    "time": 79.95068200000038,
                    "velocity": 0.5039370078740157,
                    "duration": 0.14226100000000486
                },
                {
                    "name": "G6",
                    "midi": 91,
                    "time": 79.95068200000038,
                    "velocity": 0.5039370078740157,
                    "duration": 0.14226100000000486
                },
                {
                    "name": "A5",
                    "midi": 81,
                    "time": 80.09294300000039,
                    "velocity": 0.5118110236220472,
                    "duration": 0.14226100000000486
                },
                {
                    "name": "A6",
                    "midi": 93,
                    "time": 80.09294300000039,
                    "velocity": 0.5118110236220472,
                    "duration": 0.14226100000000486
                },
                {
                    "name": "A#5",
                    "midi": 82,
                    "time": 80.2352040000004,
                    "velocity": 0.5196850393700787,
                    "duration": 0.2845219999999955
                },
                {
                    "name": "A#6",
                    "midi": 94,
                    "time": 80.2352040000004,
                    "velocity": 0.5196850393700787,
                    "duration": 0.2845219999999955
                },
                {
                    "name": "G6",
                    "midi": 91,
                    "time": 80.51972600000039,
                    "velocity": 0.5433070866141733,
                    "duration": 0.2845219999999955
                },
                {
                    "name": "G5",
                    "midi": 79,
                    "time": 80.51972600000039,
                    "velocity": 0.5433070866141733,
                    "duration": 0.2845219999999955
                },
                {
                    "name": "F6",
                    "midi": 89,
                    "time": 80.80424800000038,
                    "velocity": 0.5511811023622047,
                    "duration": 0.2845219999999955
                },
                {
                    "name": "F5",
                    "midi": 77,
                    "time": 80.80424800000038,
                    "velocity": 0.5511811023622047,
                    "duration": 0.2845219999999955
                },
                {
                    "name": "D#6",
                    "midi": 87,
                    "time": 81.08877000000038,
                    "velocity": 0.5433070866141733,
                    "duration": 0.2845219999999955
                },
                {
                    "name": "D#5",
                    "midi": 75,
                    "time": 81.08877000000038,
                    "velocity": 0.5433070866141733,
                    "duration": 0.2845219999999955
                },
                {
                    "name": "D6",
                    "midi": 86,
                    "time": 81.37329200000038,
                    "velocity": 0.5196850393700787,
                    "duration": 0.2845219999999955
                },
                {
                    "name": "D5",
                    "midi": 74,
                    "time": 81.37329200000038,
                    "velocity": 0.5196850393700787,
                    "duration": 0.2845219999999955
                },
                {
                    "name": "C6",
                    "midi": 84,
                    "time": 81.65781400000037,
                    "velocity": 0.5118110236220472,
                    "duration": 0.2845219999999955
                },
                {
                    "name": "C5",
                    "midi": 72,
                    "time": 81.65781400000037,
                    "velocity": 0.5118110236220472,
                    "duration": 0.2845219999999955
                },
                {
                    "name": "B4",
                    "midi": 71,
                    "time": 81.94233600000037,
                    "velocity": 0.48031496062992124,
                    "duration": 1.280349000000001
                },
                {
                    "name": "B5",
                    "midi": 83,
                    "time": 81.94233600000037,
                    "velocity": 0.48031496062992124,
                    "duration": 1.280349000000001
                },
                {
                    "name": "B4",
                    "midi": 71,
                    "time": 83.22268500000037,
                    "velocity": 0.4015748031496063,
                    "duration": 0.1351479500000039
                },
                {
                    "name": "B4",
                    "midi": 71,
                    "time": 83.36494600000037,
                    "velocity": 0.4015748031496063,
                    "duration": 0.1351479500000039
                },
                {
                    "name": "B4",
                    "midi": 71,
                    "time": 83.50720700000038,
                    "velocity": 0.4015748031496063,
                    "duration": 0.1351479500000039
                },
                {
                    "name": "B4",
                    "midi": 71,
                    "time": 83.64946800000038,
                    "velocity": 0.3937007874015748,
                    "duration": 0.1351479500000039
                },
                {
                    "name": "B4",
                    "midi": 71,
                    "time": 83.79172900000039,
                    "velocity": 0.3937007874015748,
                    "duration": 0.1351479500000039
                },
                {
                    "name": "B4",
                    "midi": 71,
                    "time": 83.93399000000039,
                    "velocity": 0.3937007874015748,
                    "duration": 0.1351479500000039
                },
                {
                    "name": "B4",
                    "midi": 71,
                    "time": 84.0762510000004,
                    "velocity": 0.3937007874015748,
                    "duration": 0.1351479500000039
                },
                {
                    "name": "C5",
                    "midi": 72,
                    "time": 84.2185120000004,
                    "velocity": 0.41732283464566927,
                    "duration": 0.4979134999999957
                },
                {
                    "name": "D5",
                    "midi": 74,
                    "time": 84.7164255000004,
                    "velocity": 0.3700787401574803,
                    "duration": 0.07113049999999532
                },
                {
                    "name": "C5",
                    "midi": 72,
                    "time": 84.7875560000004,
                    "velocity": 0.4094488188976378,
                    "duration": 0.14226100000000486
                },
                {
                    "name": "F5",
                    "midi": 77,
                    "time": 85.0720780000004,
                    "velocity": 0.3858267716535433,
                    "duration": 0.03556525000000477
                },
                {
                    "name": "G5",
                    "midi": 79,
                    "time": 85.10764325000041,
                    "velocity": 0.33858267716535434,
                    "duration": 0.03556525000000477
                },
                {
                    "name": "F5",
                    "midi": 77,
                    "time": 85.14320850000041,
                    "velocity": 0.3464566929133858,
                    "duration": 0.03556525000000477
                },
                {
                    "name": "G5",
                    "midi": 79,
                    "time": 85.17877375000042,
                    "velocity": 0.3464566929133858,
                    "duration": 0.03556525000000477
                },
                {
                    "name": "F5",
                    "midi": 77,
                    "time": 85.21433900000042,
                    "velocity": 0.3464566929133858,
                    "duration": 0.03556525000000477
                },
                {
                    "name": "G5",
                    "midi": 79,
                    "time": 85.24990425000043,
                    "velocity": 0.36220472440944884,
                    "duration": 0.03556525000000477
                },
                {
                    "name": "E5",
                    "midi": 76,
                    "time": 85.28546950000043,
                    "velocity": 0.4015748031496063,
                    "duration": 0.03556525000000477
                },
                {
                    "name": "F5",
                    "midi": 77,
                    "time": 85.32103475000044,
                    "velocity": 0.3464566929133858,
                    "duration": 0.03556525000000477
                },
                {
                    "name": "A5",
                    "midi": 81,
                    "time": 85.35660000000044,
                    "velocity": 0.4566929133858268,
                    "duration": 0.4979134999999957
                },
                {
                    "name": "A4",
                    "midi": 69,
                    "time": 85.35660000000044,
                    "velocity": 0.36220472440944884,
                    "duration": 0.4979134999999957
                },
                {
                    "name": "G4",
                    "midi": 67,
                    "time": 85.85451350000044,
                    "velocity": 0.31496062992125984,
                    "duration": 0.07113049999999532
                },
                {
                    "name": "G5",
                    "midi": 79,
                    "time": 85.85451350000044,
                    "velocity": 0.4015748031496063,
                    "duration": 0.07113049999999532
                },
                {
                    "name": "F4",
                    "midi": 65,
                    "time": 85.92564400000043,
                    "velocity": 0.33858267716535434,
                    "duration": 0.14226100000000486
                },
                {
                    "name": "F5",
                    "midi": 77,
                    "time": 85.92564400000043,
                    "velocity": 0.41732283464566927,
                    "duration": 0.14226100000000486
                },
                {
                    "name": "D5",
                    "midi": 74,
                    "time": 86.21016600000044,
                    "velocity": 0.4251968503937008,
                    "duration": 0.2845219999999955
                },
                {
                    "name": "C5",
                    "midi": 72,
                    "time": 86.49468800000044,
                    "velocity": 0.4566929133858268,
                    "duration": 0.4979134999999957
                },
                {
                    "name": "D5",
                    "midi": 74,
                    "time": 86.99260150000043,
                    "velocity": 0.41732283464566927,
                    "duration": 0.07113049999999532
                },
                {
                    "name": "C5",
                    "midi": 72,
                    "time": 87.06373200000043,
                    "velocity": 0.47244094488188976,
                    "duration": 0.14226100000000486
                },
                {
                    "name": "F6",
                    "midi": 89,
                    "time": 87.34825400000044,
                    "velocity": 0.41732283464566927,
                    "duration": 0.03556525000000477
                },
                {
                    "name": "G6",
                    "midi": 91,
                    "time": 87.38381925000044,
                    "velocity": 0.3700787401574803,
                    "duration": 0.03556525000000477
                },
                {
                    "name": "F6",
                    "midi": 89,
                    "time": 87.41938450000045,
                    "velocity": 0.3779527559055118,
                    "duration": 0.03556525000000477
                },
                {
                    "name": "G6",
                    "midi": 91,
                    "time": 87.45494975000045,
                    "velocity": 0.3779527559055118,
                    "duration": 0.03556525000000477
                },
                {
                    "name": "F6",
                    "midi": 89,
                    "time": 87.49051500000046,
                    "velocity": 0.3779527559055118,
                    "duration": 0.03556525000000477
                },
                {
                    "name": "G6",
                    "midi": 91,
                    "time": 87.52608025000046,
                    "velocity": 0.3937007874015748,
                    "duration": 0.03556525000000477
                },
                {
                    "name": "E6",
                    "midi": 88,
                    "time": 87.56164550000047,
                    "velocity": 0.4330708661417323,
                    "duration": 0.03556525000000477
                },
                {
                    "name": "F6",
                    "midi": 89,
                    "time": 87.59721075000047,
                    "velocity": 0.3779527559055118,
                    "duration": 0.03556525000000477
                },
                {
                    "name": "A6",
                    "midi": 93,
                    "time": 87.63277600000048,
                    "velocity": 0.5433070866141733,
                    "duration": 0.4979134999999957
                },
                {
                    "name": "A5",
                    "midi": 81,
                    "time": 87.63277600000048,
                    "velocity": 0.49606299212598426,
                    "duration": 0.4979134999999957
                },
                {
                    "name": "G5",
                    "midi": 79,
                    "time": 88.13068950000047,
                    "velocity": 0.4881889763779528,
                    "duration": 0.07113049999999532
                },
                {
                    "name": "G6",
                    "midi": 91,
                    "time": 88.13068950000047,
                    "velocity": 0.4881889763779528,
                    "duration": 0.07113049999999532
                },
                {
                    "name": "F5",
                    "midi": 77,
                    "time": 88.20182000000047,
                    "velocity": 0.5275590551181102,
                    "duration": 0.14226100000000486
                },
                {
                    "name": "F6",
                    "midi": 89,
                    "time": 88.20182000000047,
                    "velocity": 0.5275590551181102,
                    "duration": 0.14226100000000486
                },
                {
                    "name": "D5",
                    "midi": 74,
                    "time": 88.48634200000048,
                    "velocity": 0.3779527559055118,
                    "duration": 0.2845219999999955
                },
                {
                    "name": "F5",
                    "midi": 77,
                    "time": 88.48634200000048,
                    "velocity": 0.3779527559055118,
                    "duration": 0.2845219999999955
                },
                {
                    "name": "A#5",
                    "midi": 82,
                    "time": 88.48634200000048,
                    "velocity": 0.5433070866141733,
                    "duration": 0.2845219999999955
                },
                {
                    "name": "D6",
                    "midi": 86,
                    "time": 88.48634200000048,
                    "velocity": 0.5433070866141733,
                    "duration": 0.2845219999999955
                },
                {
                    "name": "C5",
                    "midi": 72,
                    "time": 88.77086400000047,
                    "velocity": 0.4566929133858268,
                    "duration": 0.2845219999999955
                },
                {
                    "name": "F5",
                    "midi": 77,
                    "time": 88.77086400000047,
                    "velocity": 0.4566929133858268,
                    "duration": 0.2845219999999955
                },
                {
                    "name": "A5",
                    "midi": 81,
                    "time": 88.77086400000047,
                    "velocity": 0.5433070866141733,
                    "duration": 0.2845219999999955
                },
                {
                    "name": "C6",
                    "midi": 84,
                    "time": 88.77086400000047,
                    "velocity": 0.5433070866141733,
                    "duration": 0.2845219999999955
                },
                {
                    "name": "D5",
                    "midi": 74,
                    "time": 89.05538600000047,
                    "velocity": 0.48031496062992124,
                    "duration": 0.2845219999999955
                },
                {
                    "name": "F5",
                    "midi": 77,
                    "time": 89.05538600000047,
                    "velocity": 0.48031496062992124,
                    "duration": 0.2845219999999955
                },
                {
                    "name": "A#5",
                    "midi": 82,
                    "time": 89.05538600000047,
                    "velocity": 0.5669291338582677,
                    "duration": 0.2845219999999955
                },
                {
                    "name": "D6",
                    "midi": 86,
                    "time": 89.05538600000047,
                    "velocity": 0.5669291338582677,
                    "duration": 0.2845219999999955
                },
                {
                    "name": "F5",
                    "midi": 77,
                    "time": 89.33990800000046,
                    "velocity": 0.4881889763779528,
                    "duration": 0.2845219999999955
                },
                {
                    "name": "A5",
                    "midi": 81,
                    "time": 89.33990800000046,
                    "velocity": 0.4881889763779528,
                    "duration": 0.2845219999999955
                },
                {
                    "name": "C6",
                    "midi": 84,
                    "time": 89.33990800000046,
                    "velocity": 0.5826771653543307,
                    "duration": 0.2845219999999955
                },
                {
                    "name": "F6",
                    "midi": 89,
                    "time": 89.33990800000046,
                    "velocity": 0.5826771653543307,
                    "duration": 0.2845219999999955
                },
                {
                    "name": "G5",
                    "midi": 79,
                    "time": 89.62443000000046,
                    "velocity": 0.5196850393700787,
                    "duration": 0.2845219999999955
                },
                {
                    "name": "C6",
                    "midi": 84,
                    "time": 89.62443000000046,
                    "velocity": 0.5196850393700787,
                    "duration": 0.2845219999999955
                },
                {
                    "name": "E6",
                    "midi": 88,
                    "time": 89.62443000000046,
                    "velocity": 0.6141732283464567,
                    "duration": 0.2845219999999955
                },
                {
                    "name": "G6",
                    "midi": 91,
                    "time": 89.62443000000046,
                    "velocity": 0.6141732283464567,
                    "duration": 0.2845219999999955
                },
                {
                    "name": "G5",
                    "midi": 79,
                    "time": 89.90895200000045,
                    "velocity": 0.49606299212598426,
                    "duration": 0.5690440000000052
                },
                {
                    "name": "C6",
                    "midi": 84,
                    "time": 89.90895200000045,
                    "velocity": 0.49606299212598426,
                    "duration": 0.5690440000000052
                },
                {
                    "name": "E6",
                    "midi": 88,
                    "time": 89.90895200000045,
                    "velocity": 0.5905511811023622,
                    "duration": 0.5690440000000052
                },
                {
                    "name": "G6",
                    "midi": 91,
                    "time": 89.90895200000045,
                    "velocity": 0.5905511811023622,
                    "duration": 0.5690440000000052
                },
                {
                    "name": "E6",
                    "midi": 88,
                    "time": 90.47799600000046,
                    "velocity": 0.49606299212598426,
                    "duration": 0.0948406666666699
                },
                {
                    "name": "C6",
                    "midi": 84,
                    "time": 90.57283666666713,
                    "velocity": 0.4251968503937008,
                    "duration": 0.0948406666666699
                },
                {
                    "name": "G5",
                    "midi": 79,
                    "time": 90.6676773333338,
                    "velocity": 0.4251968503937008,
                    "duration": 0.0948406666666699
                },
                {
                    "name": "E5",
                    "midi": 76,
                    "time": 90.76251800000047,
                    "velocity": 0.4251968503937008,
                    "duration": 0.0948406666666699
                },
                {
                    "name": "G5",
                    "midi": 79,
                    "time": 90.85735866666714,
                    "velocity": 0.4094488188976378,
                    "duration": 0.0948406666666699
                },
                {
                    "name": "C6",
                    "midi": 84,
                    "time": 90.95219933333381,
                    "velocity": 0.4015748031496063,
                    "duration": 0.0948406666666699
                },
                {
                    "name": "F5",
                    "midi": 77,
                    "time": 91.04704000000048,
                    "velocity": 0.41732283464566927,
                    "duration": 0.0948406666666699
                },
                {
                    "name": "C6",
                    "midi": 84,
                    "time": 91.14188066666715,
                    "velocity": 0.3858267716535433,
                    "duration": 0.0948406666666699
                },
                {
                    "name": "A5",
                    "midi": 81,
                    "time": 91.23672133333382,
                    "velocity": 0.3858267716535433,
                    "duration": 0.04742033333333495
                },
                {
                    "name": "F5",
                    "midi": 77,
                    "time": 91.33156200000049,
                    "velocity": 0.41732283464566927,
                    "duration": 0.04742033333333495
                },
                {
                    "name": "C5",
                    "midi": 72,
                    "time": 91.42640266666716,
                    "velocity": 0.3779527559055118,
                    "duration": 0.04742033333333495
                },
                {
                    "name": "A4",
                    "midi": 69,
                    "time": 91.52124333333383,
                    "velocity": 0.36220472440944884,
                    "duration": 0.04742033333333495
                },
                {
                    "name": "F4",
                    "midi": 65,
                    "time": 91.6160840000005,
                    "velocity": 0.4015748031496063,
                    "duration": 0.04742033333333495
                },
                {
                    "name": "A4",
                    "midi": 69,
                    "time": 91.71092466666717,
                    "velocity": 0.36220472440944884,
                    "duration": 0.04742033333333495
                },
                {
                    "name": "C5",
                    "midi": 72,
                    "time": 91.80576533333384,
                    "velocity": 0.36220472440944884,
                    "duration": 0.04742033333333495
                },
                {
                    "name": "A4",
                    "midi": 69,
                    "time": 91.90060600000051,
                    "velocity": 0.41732283464566927,
                    "duration": 0.04742033333333495
                },
                {
                    "name": "C5",
                    "midi": 72,
                    "time": 91.99544666666718,
                    "velocity": 0.3937007874015748,
                    "duration": 0.04742033333333495
                },
                {
                    "name": "F5",
                    "midi": 77,
                    "time": 92.09028733333385,
                    "velocity": 0.3937007874015748,
                    "duration": 0.04742033333333495
                },
                {
                    "name": "F5",
                    "midi": 77,
                    "time": 92.18512800000052,
                    "velocity": 0.41732283464566927,
                    "duration": 0.0948406666666699
                },
                {
                    "name": "D6",
                    "midi": 86,
                    "time": 92.27996866666719,
                    "velocity": 0.3858267716535433,
                    "duration": 0.0948406666666699
                },
                {
                    "name": "A#5",
                    "midi": 82,
                    "time": 92.37480933333386,
                    "velocity": 0.3858267716535433,
                    "duration": 0.04742033333333495
                },
                {
                    "name": "F5",
                    "midi": 77,
                    "time": 92.46965000000053,
                    "velocity": 0.41732283464566927,
                    "duration": 0.04742033333333495
                },
                {
                    "name": "D5",
                    "midi": 74,
                    "time": 92.5644906666672,
                    "velocity": 0.3779527559055118,
                    "duration": 0.04742033333333495
                },
                {
                    "name": "A#4",
                    "midi": 70,
                    "time": 92.65933133333387,
                    "velocity": 0.36220472440944884,
                    "duration": 0.04742033333333495
                },
                {
                    "name": "F4",
                    "midi": 65,
                    "time": 92.75417200000054,
                    "velocity": 0.4015748031496063,
                    "duration": 0.04742033333333495
                },
                {
                    "name": "A#4",
                    "midi": 70,
                    "time": 92.8490126666672,
                    "velocity": 0.36220472440944884,
                    "duration": 0.04742033333333495
                },
                {
                    "name": "D5",
                    "midi": 74,
                    "time": 92.94385333333388,
                    "velocity": 0.36220472440944884,
                    "duration": 0.04742033333333495
                },
                {
                    "name": "A#4",
                    "midi": 70,
                    "time": 93.03869400000055,
                    "velocity": 0.41732283464566927,
                    "duration": 0.04742033333333495
                },
                {
                    "name": "D5",
                    "midi": 74,
                    "time": 93.13353466666722,
                    "velocity": 0.3937007874015748,
                    "duration": 0.04742033333333495
                },
                {
                    "name": "F5",
                    "midi": 77,
                    "time": 93.22837533333389,
                    "velocity": 0.3937007874015748,
                    "duration": 0.04742033333333495
                },
                {
                    "name": "F5",
                    "midi": 77,
                    "time": 93.32321600000056,
                    "velocity": 0.41732283464566927,
                    "duration": 0.0948406666666699
                },
                {
                    "name": "F6",
                    "midi": 89,
                    "time": 93.41805666666723,
                    "velocity": 0.3858267716535433,
                    "duration": 0.0948406666666699
                },
                {
                    "name": "C6",
                    "midi": 84,
                    "time": 93.5128973333339,
                    "velocity": 0.3858267716535433,
                    "duration": 0.04742033333333495
                },
                {
                    "name": "A5",
                    "midi": 81,
                    "time": 93.60773800000057,
                    "velocity": 0.41732283464566927,
                    "duration": 0.04742033333333495
                },
                {
                    "name": "F5",
                    "midi": 77,
                    "time": 93.70257866666724,
                    "velocity": 0.3779527559055118,
                    "duration": 0.04742033333333495
                },
                {
                    "name": "C5",
                    "midi": 72,
                    "time": 93.7974193333339,
                    "velocity": 0.36220472440944884,
                    "duration": 0.04742033333333495
                },
                {
                    "name": "A4",
                    "midi": 69,
                    "time": 93.89226000000058,
                    "velocity": 0.4015748031496063,
                    "duration": 0.04742033333333495
                },
                {
                    "name": "F4",
                    "midi": 65,
                    "time": 93.98710066666725,
                    "velocity": 0.36220472440944884,
                    "duration": 0.04742033333333495
                },
                {
                    "name": "C4",
                    "midi": 60,
                    "time": 94.08194133333392,
                    "velocity": 0.36220472440944884,
                    "duration": 0.04742033333333495
                },
                {
                    "name": "F4",
                    "midi": 65,
                    "time": 94.17678200000059,
                    "velocity": 0.41732283464566927,
                    "duration": 0.04742033333333495
                },
                {
                    "name": "A4",
                    "midi": 69,
                    "time": 94.27162266666726,
                    "velocity": 0.3937007874015748,
                    "duration": 0.04742033333333495
                },
                {
                    "name": "C5",
                    "midi": 72,
                    "time": 94.36646333333393,
                    "velocity": 0.3937007874015748,
                    "duration": 0.04742033333333495
                },
                {
                    "name": "C5",
                    "midi": 72,
                    "time": 94.4613040000006,
                    "velocity": 0.4015748031496063,
                    "duration": 0.0948406666666699
                },
                {
                    "name": "F5",
                    "midi": 77,
                    "time": 94.55614466666727,
                    "velocity": 0.3700787401574803,
                    "duration": 0.0948406666666699
                },
                {
                    "name": "F5",
                    "midi": 77,
                    "time": 94.65098533333394,
                    "velocity": 0.3700787401574803,
                    "duration": 0.04742033333333495
                },
                {
                    "name": "D5",
                    "midi": 74,
                    "time": 94.7458260000006,
                    "velocity": 0.4015748031496063,
                    "duration": 0.0948406666666699
                },
                {
                    "name": "G5",
                    "midi": 79,
                    "time": 94.84066666666727,
                    "velocity": 0.3779527559055118,
                    "duration": 0.0948406666666699
                },
                {
                    "name": "G5",
                    "midi": 79,
                    "time": 94.93550733333394,
                    "velocity": 0.3779527559055118,
                    "duration": 0.04742033333333495
                },
                {
                    "name": "C5",
                    "midi": 72,
                    "time": 95.03034800000061,
                    "velocity": 0.4015748031496063,
                    "duration": 0.0948406666666699
                },
                {
                    "name": "F5",
                    "midi": 77,
                    "time": 95.12518866666728,
                    "velocity": 0.3700787401574803,
                    "duration": 0.0948406666666699
                },
                {
                    "name": "F5",
                    "midi": 77,
                    "time": 95.22002933333395,
                    "velocity": 0.3700787401574803,
                    "duration": 0.04742033333333495
                },
                {
                    "name": "C5",
                    "midi": 72,
                    "time": 95.31487000000062,
                    "velocity": 0.4015748031496063,
                    "duration": 0.0948406666666699
                },
                {
                    "name": "E5",
                    "midi": 76,
                    "time": 95.4097106666673,
                    "velocity": 0.3700787401574803,
                    "duration": 0.0948406666666699
                },
                {
                    "name": "E5",
                    "midi": 76,
                    "time": 95.50455133333396,
                    "velocity": 0.3700787401574803,
                    "duration": 0.04742033333333495
                },
                {
                    "name": "C5",
                    "midi": 72,
                    "time": 95.59939200000063,
                    "velocity": 0.4015748031496063,
                    "duration": 0.0948406666666699
                },
                {
                    "name": "D#5",
                    "midi": 75,
                    "time": 95.6942326666673,
                    "velocity": 0.3700787401574803,
                    "duration": 0.0948406666666699
                },
                {
                    "name": "D#5",
                    "midi": 75,
                    "time": 95.78907333333397,
                    "velocity": 0.3700787401574803,
                    "duration": 0.04742033333333495
                },
                {
                    "name": "C5",
                    "midi": 72,
                    "time": 95.88391400000064,
                    "velocity": 0.4094488188976378,
                    "duration": 0.0948406666666699
                },
                {
                    "name": "D5",
                    "midi": 74,
                    "time": 95.97875466666731,
                    "velocity": 0.3937007874015748,
                    "duration": 0.0948406666666699
                },
                {
                    "name": "D5",
                    "midi": 74,
                    "time": 96.07359533333398,
                    "velocity": 0.3937007874015748,
                    "duration": 0.04742033333333495
                },
                {
                    "name": "F#4",
                    "midi": 66,
                    "time": 96.16843600000065,
                    "velocity": 0.36220472440944884,
                    "duration": 0.0948406666666699
                },
                {
                    "name": "A4",
                    "midi": 69,
                    "time": 96.16843600000065,
                    "velocity": 0.4251968503937008,
                    "duration": 0.0948406666666699
                },
                {
                    "name": "D#5",
                    "midi": 75,
                    "time": 96.26327666666732,
                    "velocity": 0.3937007874015748,
                    "duration": 0.0948406666666699
                },
                {
                    "name": "D#5",
                    "midi": 75,
                    "time": 96.358117333334,
                    "velocity": 0.4015748031496063,
                    "duration": 0.04742033333333495
                },
                {
                    "name": "F#4",
                    "midi": 66,
                    "time": 96.45295800000066,
                    "velocity": 0.3700787401574803,
                    "duration": 0.0948406666666699
                },
                {
                    "name": "A4",
                    "midi": 69,
                    "time": 96.45295800000066,
                    "velocity": 0.4409448818897638,
                    "duration": 0.0948406666666699
                },
                {
                    "name": "D5",
                    "midi": 74,
                    "time": 96.54779866666733,
                    "velocity": 0.4094488188976378,
                    "duration": 0.0948406666666699
                },
                {
                    "name": "D5",
                    "midi": 74,
                    "time": 96.642639333334,
                    "velocity": 0.41732283464566927,
                    "duration": 0.04742033333333495
                },
                {
                    "name": "F4",
                    "midi": 65,
                    "time": 96.73748000000067,
                    "velocity": 0.3858267716535433,
                    "duration": 0.0948406666666699
                },
                {
                    "name": "A#4",
                    "midi": 70,
                    "time": 96.73748000000067,
                    "velocity": 0.4566929133858268,
                    "duration": 0.0948406666666699
                },
                {
                    "name": "D#5",
                    "midi": 75,
                    "time": 96.83232066666734,
                    "velocity": 0.4251968503937008,
                    "duration": 0.0948406666666699
                },
                {
                    "name": "D#5",
                    "midi": 75,
                    "time": 96.92716133333401,
                    "velocity": 0.4251968503937008,
                    "duration": 0.04742033333333495
                },
                {
                    "name": "F4",
                    "midi": 65,
                    "time": 97.02200200000068,
                    "velocity": 0.3858267716535433,
                    "duration": 0.0948406666666699
                },
                {
                    "name": "A#4",
                    "midi": 70,
                    "time": 97.02200200000068,
                    "velocity": 0.4566929133858268,
                    "duration": 0.0948406666666699
                },
                {
                    "name": "D5",
                    "midi": 74,
                    "time": 97.11684266666735,
                    "velocity": 0.4251968503937008,
                    "duration": 0.0948406666666699
                },
                {
                    "name": "D5",
                    "midi": 74,
                    "time": 97.21168333333402,
                    "velocity": 0.4251968503937008,
                    "duration": 0.04742033333333495
                },
                {
                    "name": "F4",
                    "midi": 65,
                    "time": 97.30652400000069,
                    "velocity": 0.3779527559055118,
                    "duration": 0.0948406666666699
                },
                {
                    "name": "A4",
                    "midi": 69,
                    "time": 97.30652400000069,
                    "velocity": 0.44881889763779526,
                    "duration": 0.0948406666666699
                },
                {
                    "name": "C5",
                    "midi": 72,
                    "time": 97.40136466666736,
                    "velocity": 0.41732283464566927,
                    "duration": 0.0948406666666699
                },
                {
                    "name": "C5",
                    "midi": 72,
                    "time": 97.49620533333403,
                    "velocity": 0.4094488188976378,
                    "duration": 0.04742033333333495
                },
                {
                    "name": "E4",
                    "midi": 64,
                    "time": 97.5910460000007,
                    "velocity": 0.3779527559055118,
                    "duration": 0.0948406666666699
                },
                {
                    "name": "G4",
                    "midi": 67,
                    "time": 97.5910460000007,
                    "velocity": 0.44881889763779526,
                    "duration": 0.0948406666666699
                },
                {
                    "name": "C5",
                    "midi": 72,
                    "time": 97.68588666666737,
                    "velocity": 0.4094488188976378,
                    "duration": 0.0948406666666699
                },
                {
                    "name": "C5",
                    "midi": 72,
                    "time": 97.78072733333404,
                    "velocity": 0.4094488188976378,
                    "duration": 0.04742033333333495
                },
                {
                    "name": "F4",
                    "midi": 65,
                    "time": 97.87556800000071,
                    "velocity": 0.3228346456692913,
                    "duration": 0.2845219999999955
                },
                {
                    "name": "A4",
                    "midi": 69,
                    "time": 97.87556800000071,
                    "velocity": 0.3228346456692913,
                    "duration": 0.2845219999999955
                },
                {
                    "name": "C5",
                    "midi": 72,
                    "time": 97.87556800000071,
                    "velocity": 0.3858267716535433,
                    "duration": 0.2845219999999955
                },
                {
                    "name": "F5",
                    "midi": 77,
                    "time": 98.4446120000007,
                    "velocity": 0.3858267716535433,
                    "duration": 0.14226100000000486
                },
                {
                    "name": "A4",
                    "midi": 69,
                    "time": 98.4446120000007,
                    "velocity": 0.31496062992125984,
                    "duration": 0.14226100000000486
                },
                {
                    "name": "C5",
                    "midi": 72,
                    "time": 98.4446120000007,
                    "velocity": 0.31496062992125984,
                    "duration": 0.14226100000000486
                },
                {
                    "name": "C5",
                    "midi": 72,
                    "time": 98.72913400000071,
                    "velocity": 0.31496062992125984,
                    "duration": 0.14226100000000486
                },
                {
                    "name": "D#5",
                    "midi": 75,
                    "time": 98.72913400000071,
                    "velocity": 0.31496062992125984,
                    "duration": 0.14226100000000486
                },
                {
                    "name": "F5",
                    "midi": 77,
                    "time": 98.72913400000071,
                    "velocity": 0.3858267716535433,
                    "duration": 0.14226100000000486
                },
                {
                    "name": "A#4",
                    "midi": 70,
                    "time": 99.01365600000072,
                    "velocity": 0.3543307086614173,
                    "duration": 0.2845219999999955
                },
                {
                    "name": "D5",
                    "midi": 74,
                    "time": 99.01365600000072,
                    "velocity": 0.3543307086614173,
                    "duration": 0.2845219999999955
                },
                {
                    "name": "F5",
                    "midi": 77,
                    "time": 99.01365600000072,
                    "velocity": 0.41732283464566927,
                    "duration": 0.2845219999999955
                },
                {
                    "name": "A#4",
                    "midi": 70,
                    "time": 99.58270000000071,
                    "velocity": 0.31496062992125984,
                    "duration": 0.14226100000000486
                },
                {
                    "name": "D5",
                    "midi": 74,
                    "time": 99.58270000000071,
                    "velocity": 0.31496062992125984,
                    "duration": 0.14226100000000486
                },
                {
                    "name": "F5",
                    "midi": 77,
                    "time": 99.58270000000071,
                    "velocity": 0.3858267716535433,
                    "duration": 0.14226100000000486
                },
                {
                    "name": "D5",
                    "midi": 74,
                    "time": 99.86722200000072,
                    "velocity": 0.31496062992125984,
                    "duration": 0.14226100000000486
                },
                {
                    "name": "F5",
                    "midi": 77,
                    "time": 99.86722200000072,
                    "velocity": 0.3858267716535433,
                    "duration": 0.14226100000000486
                },
                {
                    "name": "A4",
                    "midi": 69,
                    "time": 100.15174400000073,
                    "velocity": 0.3543307086614173,
                    "duration": 0.2845219999999955
                },
                {
                    "name": "C5",
                    "midi": 72,
                    "time": 100.15174400000073,
                    "velocity": 0.3543307086614173,
                    "duration": 0.2845219999999955
                },
                {
                    "name": "F5",
                    "midi": 77,
                    "time": 100.15174400000073,
                    "velocity": 0.41732283464566927,
                    "duration": 0.2845219999999955
                },
                {
                    "name": "C5",
                    "midi": 72,
                    "time": 100.72078800000072,
                    "velocity": 0.3464566929133858,
                    "duration": 0.14226100000000486
                },
                {
                    "name": "F5",
                    "midi": 77,
                    "time": 100.72078800000072,
                    "velocity": 0.3464566929133858,
                    "duration": 0.14226100000000486
                },
                {
                    "name": "A5",
                    "midi": 81,
                    "time": 100.72078800000072,
                    "velocity": 0.41732283464566927,
                    "duration": 0.14226100000000486
                },
                {
                    "name": "C5",
                    "midi": 72,
                    "time": 101.00531000000073,
                    "velocity": 0.3464566929133858,
                    "duration": 0.14226100000000486
                },
                {
                    "name": "A5",
                    "midi": 81,
                    "time": 101.00531000000073,
                    "velocity": 0.3464566929133858,
                    "duration": 0.14226100000000486
                },
                {
                    "name": "C6",
                    "midi": 84,
                    "time": 101.00531000000073,
                    "velocity": 0.41732283464566927,
                    "duration": 0.14226100000000486
                },
                {
                    "name": "C6",
                    "midi": 84,
                    "time": 101.28983200000074,
                    "velocity": 0.4409448818897638,
                    "duration": 0.0948406666666699
                },
                {
                    "name": "F6",
                    "midi": 89,
                    "time": 101.38467266666741,
                    "velocity": 0.4015748031496063,
                    "duration": 0.0948406666666699
                },
                {
                    "name": "F6",
                    "midi": 89,
                    "time": 101.47951333333408,
                    "velocity": 0.4015748031496063,
                    "duration": 0.04742033333333495
                },
                {
                    "name": "D6",
                    "midi": 86,
                    "time": 101.57435400000075,
                    "velocity": 0.4409448818897638,
                    "duration": 0.0948406666666699
                },
                {
                    "name": "G6",
                    "midi": 91,
                    "time": 101.66919466666742,
                    "velocity": 0.4094488188976378,
                    "duration": 0.0948406666666699
                },
                {
                    "name": "G6",
                    "midi": 91,
                    "time": 101.76403533333409,
                    "velocity": 0.4094488188976378,
                    "duration": 0.04742033333333495
                },
                {
                    "name": "C6",
                    "midi": 84,
                    "time": 101.85887600000076,
                    "velocity": 0.4409448818897638,
                    "duration": 0.0948406666666699
                },
                {
                    "name": "F6",
                    "midi": 89,
                    "time": 101.95371666666743,
                    "velocity": 0.4015748031496063,
                    "duration": 0.0948406666666699
                },
                {
                    "name": "F6",
                    "midi": 89,
                    "time": 102.0485573333341,
                    "velocity": 0.4015748031496063,
                    "duration": 0.04742033333333495
                },
                {
                    "name": "C6",
                    "midi": 84,
                    "time": 102.14339800000077,
                    "velocity": 0.4409448818897638,
                    "duration": 0.0948406666666699
                },
                {
                    "name": "E6",
                    "midi": 88,
                    "time": 102.23823866666744,
                    "velocity": 0.4015748031496063,
                    "duration": 0.0948406666666699
                },
                {
                    "name": "E6",
                    "midi": 88,
                    "time": 102.33307933333411,
                    "velocity": 0.4015748031496063,
                    "duration": 0.04742033333333495
                },
                {
                    "name": "C6",
                    "midi": 84,
                    "time": 102.42792000000078,
                    "velocity": 0.4409448818897638,
                    "duration": 0.0948406666666699
                },
                {
                    "name": "D#6",
                    "midi": 87,
                    "time": 102.52276066666745,
                    "velocity": 0.4015748031496063,
                    "duration": 0.0948406666666699
                },
                {
                    "name": "D#6",
                    "midi": 87,
                    "time": 102.61760133333412,
                    "velocity": 0.4015748031496063,
                    "duration": 0.04742033333333495
                },
                {
                    "name": "C6",
                    "midi": 84,
                    "time": 102.71244200000079,
                    "velocity": 0.44881889763779526,
                    "duration": 0.0948406666666699
                },
                {
                    "name": "D6",
                    "midi": 86,
                    "time": 102.80728266666746,
                    "velocity": 0.4330708661417323,
                    "duration": 0.0948406666666699
                },
                {
                    "name": "D6",
                    "midi": 86,
                    "time": 102.90212333333413,
                    "velocity": 0.4330708661417323,
                    "duration": 0.04742033333333495
                },
                {
                    "name": "F#5",
                    "midi": 78,
                    "time": 102.9969640000008,
                    "velocity": 0.4566929133858268,
                    "duration": 0.0948406666666699
                },
                {
                    "name": "A5",
                    "midi": 81,
                    "time": 102.9969640000008,
                    "velocity": 0.4566929133858268,
                    "duration": 0.0948406666666699
                },
                {
                    "name": "D#6",
                    "midi": 87,
                    "time": 103.09180466666747,
                    "velocity": 0.41732283464566927,
                    "duration": 0.0948406666666699
                },
                {
                    "name": "D#6",
                    "midi": 87,
                    "time": 103.18664533333414,
                    "velocity": 0.41732283464566927,
                    "duration": 0.04742033333333495
                },
                {
                    "name": "F#5",
                    "midi": 78,
                    "time": 103.28148600000081,
                    "velocity": 0.3779527559055118,
                    "duration": 0.0948406666666699
                },
                {
                    "name": "A5",
                    "midi": 81,
                    "time": 103.28148600000081,
                    "velocity": 0.44881889763779526,
                    "duration": 0.0948406666666699
                },
                {
                    "name": "D6",
                    "midi": 86,
                    "time": 103.37632666666748,
                    "velocity": 0.4251968503937008,
                    "duration": 0.0948406666666699
                },
                {
                    "name": "D6",
                    "midi": 86,
                    "time": 103.47116733333415,
                    "velocity": 0.4251968503937008,
                    "duration": 0.04742033333333495
                },
                {
                    "name": "F5",
                    "midi": 77,
                    "time": 103.56600800000082,
                    "velocity": 0.3779527559055118,
                    "duration": 0.0948406666666699
                },
                {
                    "name": "A#5",
                    "midi": 82,
                    "time": 103.56600800000082,
                    "velocity": 0.44881889763779526,
                    "duration": 0.0948406666666699
                },
                {
                    "name": "D#6",
                    "midi": 87,
                    "time": 103.66084866666749,
                    "velocity": 0.4094488188976378,
                    "duration": 0.0948406666666699
                },
                {
                    "name": "D#6",
                    "midi": 87,
                    "time": 103.75568933333416,
                    "velocity": 0.4094488188976378,
                    "duration": 0.04742033333333495
                },
                {
                    "name": "F5",
                    "midi": 77,
                    "time": 103.85053000000083,
                    "velocity": 0.3779527559055118,
                    "duration": 0.0948406666666699
                },
                {
                    "name": "A#5",
                    "midi": 82,
                    "time": 103.85053000000083,
                    "velocity": 0.44881889763779526,
                    "duration": 0.0948406666666699
                },
                {
                    "name": "D6",
                    "midi": 86,
                    "time": 103.9453706666675,
                    "velocity": 0.41732283464566927,
                    "duration": 0.0948406666666699
                },
                {
                    "name": "D6",
                    "midi": 86,
                    "time": 104.04021133333417,
                    "velocity": 0.4094488188976378,
                    "duration": 0.04742033333333495
                },
                {
                    "name": "F5",
                    "midi": 77,
                    "time": 104.13505200000084,
                    "velocity": 0.3779527559055118,
                    "duration": 0.0948406666666699
                },
                {
                    "name": "A5",
                    "midi": 81,
                    "time": 104.13505200000084,
                    "velocity": 0.44881889763779526,
                    "duration": 0.0948406666666699
                },
                {
                    "name": "C6",
                    "midi": 84,
                    "time": 104.22989266666751,
                    "velocity": 0.41732283464566927,
                    "duration": 0.0948406666666699
                },
                {
                    "name": "C6",
                    "midi": 84,
                    "time": 104.32473333333418,
                    "velocity": 0.3858267716535433,
                    "duration": 0.04742033333333495
                },
                {
                    "name": "E5",
                    "midi": 76,
                    "time": 104.41957400000085,
                    "velocity": 0.3543307086614173,
                    "duration": 0.0948406666666699
                },
                {
                    "name": "G5",
                    "midi": 79,
                    "time": 104.41957400000085,
                    "velocity": 0.4251968503937008,
                    "duration": 0.0948406666666699
                },
                {
                    "name": "C6",
                    "midi": 84,
                    "time": 104.51441466666752,
                    "velocity": 0.3779527559055118,
                    "duration": 0.0948406666666699
                },
                {
                    "name": "C6",
                    "midi": 84,
                    "time": 104.60925533333419,
                    "velocity": 0.3779527559055118,
                    "duration": 0.04742033333333495
                },
                {
                    "name": "A#4",
                    "midi": 70,
                    "time": 104.70409600000086,
                    "velocity": 0.3543307086614173,
                    "duration": 0.0948406666666699
                },
                {
                    "name": "C#5",
                    "midi": 73,
                    "time": 104.79893666666753,
                    "velocity": 0.33070866141732286,
                    "duration": 0.0948406666666699
                },
                {
                    "name": "C#5",
                    "midi": 73,
                    "time": 104.8937773333342,
                    "velocity": 0.33070866141732286,
                    "duration": 0.04742033333333495
                },
                {
                    "name": "A#4",
                    "midi": 70,
                    "time": 104.98861800000087,
                    "velocity": 0.36220472440944884,
                    "duration": 0.0948406666666699
                },
                {
                    "name": "C5",
                    "midi": 72,
                    "time": 105.08345866666754,
                    "velocity": 0.3543307086614173,
                    "duration": 0.0948406666666699
                },
                {
                    "name": "C5",
                    "midi": 72,
                    "time": 105.17829933333421,
                    "velocity": 0.3543307086614173,
                    "duration": 0.04742033333333495
                },
                {
                    "name": "E4",
                    "midi": 64,
                    "time": 105.27314000000088,
                    "velocity": 0.3228346456692913,
                    "duration": 0.0948406666666699
                },
                {
                    "name": "G4",
                    "midi": 67,
                    "time": 105.27314000000088,
                    "velocity": 0.3779527559055118,
                    "duration": 0.0948406666666699
                },
                {
                    "name": "C#5",
                    "midi": 73,
                    "time": 105.36798066666755,
                    "velocity": 0.3543307086614173,
                    "duration": 0.0948406666666699
                },
                {
                    "name": "C#5",
                    "midi": 73,
                    "time": 105.46282133333422,
                    "velocity": 0.3543307086614173,
                    "duration": 0.04742033333333495
                },
                {
                    "name": "E4",
                    "midi": 64,
                    "time": 105.55766200000089,
                    "velocity": 0.33070866141732286,
                    "duration": 0.0948406666666699
                },
                {
                    "name": "G4",
                    "midi": 67,
                    "time": 105.55766200000089,
                    "velocity": 0.3937007874015748,
                    "duration": 0.0948406666666699
                },
                {
                    "name": "C5",
                    "midi": 72,
                    "time": 105.65250266666756,
                    "velocity": 0.36220472440944884,
                    "duration": 0.0948406666666699
                },
                {
                    "name": "C5",
                    "midi": 72,
                    "time": 105.74734333333423,
                    "velocity": 0.3700787401574803,
                    "duration": 0.04742033333333495
                },
                {
                    "name": "D#4",
                    "midi": 63,
                    "time": 105.8421840000009,
                    "velocity": 0.3464566929133858,
                    "duration": 0.0948406666666699
                },
                {
                    "name": "G#4",
                    "midi": 68,
                    "time": 105.8421840000009,
                    "velocity": 0.4094488188976378,
                    "duration": 0.0948406666666699
                },
                {
                    "name": "C#5",
                    "midi": 73,
                    "time": 105.93702466666757,
                    "velocity": 0.3779527559055118,
                    "duration": 0.0948406666666699
                },
                {
                    "name": "C#5",
                    "midi": 73,
                    "time": 106.03186533333424,
                    "velocity": 0.3779527559055118,
                    "duration": 0.04742033333333495
                },
                {
                    "name": "D#4",
                    "midi": 63,
                    "time": 106.12670600000091,
                    "velocity": 0.3464566929133858,
                    "duration": 0.0948406666666699
                },
                {
                    "name": "G#4",
                    "midi": 68,
                    "time": 106.12670600000091,
                    "velocity": 0.4094488188976378,
                    "duration": 0.0948406666666699
                },
                {
                    "name": "C5",
                    "midi": 72,
                    "time": 106.22154666666758,
                    "velocity": 0.3779527559055118,
                    "duration": 0.0948406666666699
                },
                {
                    "name": "C5",
                    "midi": 72,
                    "time": 106.31638733333425,
                    "velocity": 0.3779527559055118,
                    "duration": 0.04742033333333495
                },
                {
                    "name": "D#4",
                    "midi": 63,
                    "time": 106.41122800000092,
                    "velocity": 0.33858267716535434,
                    "duration": 0.0948406666666699
                },
                {
                    "name": "G4",
                    "midi": 67,
                    "time": 106.41122800000092,
                    "velocity": 0.4015748031496063,
                    "duration": 0.0948406666666699
                },
                {
                    "name": "A#4",
                    "midi": 70,
                    "time": 106.50606866666759,
                    "velocity": 0.3700787401574803,
                    "duration": 0.0948406666666699
                },
                {
                    "name": "A#4",
                    "midi": 70,
                    "time": 106.60090933333426,
                    "velocity": 0.36220472440944884,
                    "duration": 0.04742033333333495
                },
                {
                    "name": "D4",
                    "midi": 62,
                    "time": 106.69575000000093,
                    "velocity": 0.33858267716535434,
                    "duration": 0.0948406666666699
                },
                {
                    "name": "F4",
                    "midi": 65,
                    "time": 106.69575000000093,
                    "velocity": 0.4015748031496063,
                    "duration": 0.0948406666666699
                },
                {
                    "name": "A#4",
                    "midi": 70,
                    "time": 106.7905906666676,
                    "velocity": 0.36220472440944884,
                    "duration": 0.0948406666666699
                },
                {
                    "name": "A#4",
                    "midi": 70,
                    "time": 106.88543133333427,
                    "velocity": 0.36220472440944884,
                    "duration": 0.04742033333333495
                },
                {
                    "name": "C#5",
                    "midi": 73,
                    "time": 107.54931600000094,
                    "velocity": 0.3228346456692913,
                    "duration": 0.0948406666666699
                },
                {
                    "name": "F#5",
                    "midi": 78,
                    "time": 107.54931600000094,
                    "velocity": 0.3779527559055118,
                    "duration": 0.0948406666666699
                },
                {
                    "name": "A#5",
                    "midi": 82,
                    "time": 107.64415666666761,
                    "velocity": 0.3543307086614173,
                    "duration": 0.0948406666666699
                },
                {
                    "name": "A#5",
                    "midi": 82,
                    "time": 107.73899733333428,
                    "velocity": 0.3543307086614173,
                    "duration": 0.04742033333333495
                },
                {
                    "name": "C#5",
                    "midi": 73,
                    "time": 107.83383800000095,
                    "velocity": 0.3228346456692913,
                    "duration": 0.0948406666666699
                },
                {
                    "name": "F#5",
                    "midi": 78,
                    "time": 107.83383800000095,
                    "velocity": 0.3858267716535433,
                    "duration": 0.0948406666666699
                },
                {
                    "name": "A5",
                    "midi": 81,
                    "time": 107.92867866666762,
                    "velocity": 0.3464566929133858,
                    "duration": 0.0948406666666699
                },
                {
                    "name": "A5",
                    "midi": 81,
                    "time": 108.02351933333429,
                    "velocity": 0.3464566929133858,
                    "duration": 0.04742033333333495
                },
                {
                    "name": "C#5",
                    "midi": 73,
                    "time": 108.11836000000096,
                    "velocity": 0.33070866141732286,
                    "duration": 0.0948406666666699
                },
                {
                    "name": "F5",
                    "midi": 77,
                    "time": 108.11836000000096,
                    "velocity": 0.3937007874015748,
                    "duration": 0.0948406666666699
                },
                {
                    "name": "G#5",
                    "midi": 80,
                    "time": 108.21320066666763,
                    "velocity": 0.36220472440944884,
                    "duration": 0.0948406666666699
                },
                {
                    "name": "G#5",
                    "midi": 80,
                    "time": 108.3080413333343,
                    "velocity": 0.36220472440944884,
                    "duration": 0.04742033333333495
                },
                {
                    "name": "C5",
                    "midi": 72,
                    "time": 108.40288200000097,
                    "velocity": 0.31496062992125984,
                    "duration": 0.0948406666666699
                },
                {
                    "name": "D#5",
                    "midi": 75,
                    "time": 108.40288200000097,
                    "velocity": 0.3779527559055118,
                    "duration": 0.0948406666666699
                },
                {
                    "name": "G#5",
                    "midi": 80,
                    "time": 108.49772266666764,
                    "velocity": 0.3464566929133858,
                    "duration": 0.0948406666666699
                },
                {
                    "name": "G#5",
                    "midi": 80,
                    "time": 108.59256333333431,
                    "velocity": 0.3464566929133858,
                    "duration": 0.04742033333333495
                },
                {
                    "name": "C#4",
                    "midi": 61,
                    "time": 108.97192600000098,
                    "velocity": 0.29133858267716534,
                    "duration": 0.0948406666666699
                },
                {
                    "name": "E4",
                    "midi": 64,
                    "time": 108.97192600000098,
                    "velocity": 0.3464566929133858,
                    "duration": 0.0948406666666699
                },
                {
                    "name": "G#4",
                    "midi": 68,
                    "time": 109.06676666666765,
                    "velocity": 0.30708661417322836,
                    "duration": 0.0948406666666699
                },
                {
                    "name": "G#4",
                    "midi": 68,
                    "time": 109.16160733333432,
                    "velocity": 0.30708661417322836,
                    "duration": 0.04742033333333495
                },
                {
                    "name": "C4",
                    "midi": 60,
                    "time": 109.25644800000099,
                    "velocity": 0.2992125984251969,
                    "duration": 0.0948406666666699
                },
                {
                    "name": "D#4",
                    "midi": 63,
                    "time": 109.25644800000099,
                    "velocity": 0.3543307086614173,
                    "duration": 0.0948406666666699
                },
                {
                    "name": "G#4",
                    "midi": 68,
                    "time": 109.35128866666766,
                    "velocity": 0.3228346456692913,
                    "duration": 0.0948406666666699
                },
                {
                    "name": "G#4",
                    "midi": 68,
                    "time": 109.44612933333433,
                    "velocity": 0.3228346456692913,
                    "duration": 0.04742033333333495
                },
                {
                    "name": "C4",
                    "midi": 60,
                    "time": 109.82549200000099,
                    "velocity": 0.25984251968503935,
                    "duration": 0.0948406666666699
                },
                {
                    "name": "D#4",
                    "midi": 63,
                    "time": 109.82549200000099,
                    "velocity": 0.30708661417322836,
                    "duration": 0.0948406666666699
                },
                {
                    "name": "F#4",
                    "midi": 66,
                    "time": 109.92033266666766,
                    "velocity": 0.2755905511811024,
                    "duration": 0.0948406666666699
                },
                {
                    "name": "F#4",
                    "midi": 66,
                    "time": 110.01517333333433,
                    "velocity": 0.2755905511811024,
                    "duration": 0.04742033333333495
                },
                {
                    "name": "C4",
                    "midi": 60,
                    "time": 110.110014000001,
                    "velocity": 0.2677165354330709,
                    "duration": 0.0948406666666699
                },
                {
                    "name": "D#4",
                    "midi": 63,
                    "time": 110.110014000001,
                    "velocity": 0.31496062992125984,
                    "duration": 0.0948406666666699
                },
                {
                    "name": "F4",
                    "midi": 65,
                    "time": 110.20485466666767,
                    "velocity": 0.28346456692913385,
                    "duration": 0.0948406666666699
                },
                {
                    "name": "F4",
                    "midi": 65,
                    "time": 110.29969533333434,
                    "velocity": 0.28346456692913385,
                    "duration": 0.04742033333333495
                },
                {
                    "name": "C5",
                    "midi": 72,
                    "time": 110.679058000001,
                    "velocity": 0.31496062992125984,
                    "duration": 0.0948406666666699
                },
                {
                    "name": "D#5",
                    "midi": 75,
                    "time": 110.679058000001,
                    "velocity": 0.31496062992125984,
                    "duration": 0.0948406666666699
                },
                {
                    "name": "F5",
                    "midi": 77,
                    "time": 110.77389866666768,
                    "velocity": 0.28346456692913385,
                    "duration": 0.0948406666666699
                },
                {
                    "name": "F5",
                    "midi": 77,
                    "time": 110.86873933333435,
                    "velocity": 0.28346456692913385,
                    "duration": 0.04742033333333495
                },
                {
                    "name": "A#4",
                    "midi": 70,
                    "time": 110.96358000000102,
                    "velocity": 0.3543307086614173,
                    "duration": 0.0948406666666699
                },
                {
                    "name": "D#5",
                    "midi": 75,
                    "time": 110.96358000000102,
                    "velocity": 0.3543307086614173,
                    "duration": 0.0948406666666699
                },
                {
                    "name": "G5",
                    "midi": 79,
                    "time": 111.05842066666769,
                    "velocity": 0.29133858267716534,
                    "duration": 0.0948406666666699
                },
                {
                    "name": "G5",
                    "midi": 79,
                    "time": 111.15326133333436,
                    "velocity": 0.29133858267716534,
                    "duration": 0.04742033333333495
                },
                {
                    "name": "A#4",
                    "midi": 70,
                    "time": 111.24810200000103,
                    "velocity": 0.3543307086614173,
                    "duration": 0.0948406666666699
                },
                {
                    "name": "D5",
                    "midi": 74,
                    "time": 111.24810200000103,
                    "velocity": 0.3543307086614173,
                    "duration": 0.0948406666666699
                },
                {
                    "name": "F5",
                    "midi": 77,
                    "time": 111.3429426666677,
                    "velocity": 0.30708661417322836,
                    "duration": 0.0948406666666699
                },
                {
                    "name": "F5",
                    "midi": 77,
                    "time": 111.43778333333437,
                    "velocity": 0.30708661417322836,
                    "duration": 0.04742033333333495
                },
                {
                    "name": "A#3",
                    "midi": 58,
                    "time": 111.53262400000104,
                    "velocity": 0.30708661417322836,
                    "duration": 0.0948406666666699
                },
                {
                    "name": "D4",
                    "midi": 62,
                    "time": 111.53262400000104,
                    "velocity": 0.3700787401574803,
                    "duration": 0.0948406666666699
                },
                {
                    "name": "F4",
                    "midi": 65,
                    "time": 111.6274646666677,
                    "velocity": 0.31496062992125984,
                    "duration": 0.0948406666666699
                },
                {
                    "name": "F4",
                    "midi": 65,
                    "time": 111.72230533333438,
                    "velocity": 0.31496062992125984,
                    "duration": 0.04742033333333495
                },
                {
                    "name": "A3",
                    "midi": 57,
                    "time": 111.81714600000105,
                    "velocity": 0.33858267716535434,
                    "duration": 0.0948406666666699
                },
                {
                    "name": "C4",
                    "midi": 60,
                    "time": 111.81714600000105,
                    "velocity": 0.4015748031496063,
                    "duration": 0.0948406666666699
                },
                {
                    "name": "F4",
                    "midi": 65,
                    "time": 111.91198666666772,
                    "velocity": 0.36220472440944884,
                    "duration": 0.0948406666666699
                },
                {
                    "name": "F4",
                    "midi": 65,
                    "time": 112.00682733333439,
                    "velocity": 0.36220472440944884,
                    "duration": 0.04742033333333495
                },
                {
                    "name": "C4",
                    "midi": 60,
                    "time": 112.10166800000106,
                    "velocity": 0.3858267716535433,
                    "duration": 0.0948406666666699
                },
                {
                    "name": "F4",
                    "midi": 65,
                    "time": 112.10166800000106,
                    "velocity": 0.4566929133858268,
                    "duration": 0.0948406666666699
                },
                {
                    "name": "C5",
                    "midi": 72,
                    "time": 112.19650866666773,
                    "velocity": 0.3937007874015748,
                    "duration": 0.0948406666666699
                },
                {
                    "name": "C5",
                    "midi": 72,
                    "time": 112.2913493333344,
                    "velocity": 0.3937007874015748,
                    "duration": 0.04742033333333495
                },
                {
                    "name": "C4",
                    "midi": 60,
                    "time": 112.38619000000106,
                    "velocity": 0.3937007874015748,
                    "duration": 0.0948406666666699
                },
                {
                    "name": "E4",
                    "midi": 64,
                    "time": 112.38619000000106,
                    "velocity": 0.47244094488188976,
                    "duration": 0.0948406666666699
                },
                {
                    "name": "C5",
                    "midi": 72,
                    "time": 112.48103066666773,
                    "velocity": 0.41732283464566927,
                    "duration": 0.0948406666666699
                },
                {
                    "name": "C5",
                    "midi": 72,
                    "time": 112.5758713333344,
                    "velocity": 0.41732283464566927,
                    "duration": 0.04742033333333495
                },
                {
                    "name": "A3",
                    "midi": 57,
                    "time": 112.67071200000107,
                    "velocity": 0.4566929133858268,
                    "duration": 0.07113049999999532
                },
                {
                    "name": "C4",
                    "midi": 60,
                    "time": 112.67071200000107,
                    "velocity": 0.4566929133858268,
                    "duration": 0.07113049999999532
                },
                {
                    "name": "F4",
                    "midi": 65,
                    "time": 112.67071200000107,
                    "velocity": 0.4566929133858268,
                    "duration": 0.07113049999999532
                },
                {
                    "name": "C4",
                    "midi": 60,
                    "time": 112.76555266666773,
                    "velocity": 0.3700787401574803,
                    "duration": 0.0948406666666699
                },
                {
                    "name": "A3",
                    "midi": 57,
                    "time": 112.8603933333344,
                    "velocity": 0.3700787401574803,
                    "duration": 0.0948406666666699
                },
                {
                    "name": "C4",
                    "midi": 60,
                    "time": 112.95523400000107,
                    "velocity": 0.3700787401574803,
                    "duration": 0.0948406666666699
                },
                {
                    "name": "F4",
                    "midi": 65,
                    "time": 113.05007466666774,
                    "velocity": 0.4015748031496063,
                    "duration": 0.0948406666666699
                },
                {
                    "name": "A4",
                    "midi": 69,
                    "time": 113.14491533333441,
                    "velocity": 0.4330708661417323,
                    "duration": 0.0948406666666699
                },
                {
                    "name": "C5",
                    "midi": 72,
                    "time": 113.23975600000108,
                    "velocity": 0.5354330708661418,
                    "duration": 0.42678300000000036
                },
                {
                    "name": "D4",
                    "midi": 62,
                    "time": 113.52427800000108,
                    "velocity": 0.3779527559055118,
                    "duration": 0.14226100000000486
                },
                {
                    "name": "E4",
                    "midi": 64,
                    "time": 113.66653900000108,
                    "velocity": 0.3543307086614173,
                    "duration": 0.14226100000000486
                },
                {
                    "name": "A#4",
                    "midi": 70,
                    "time": 113.66653900000108,
                    "velocity": 0.4251968503937008,
                    "duration": 0.14226100000000486
                },
                {
                    "name": "C4",
                    "midi": 60,
                    "time": 113.80880000000109,
                    "velocity": 0.3700787401574803,
                    "duration": 0.2845219999999955
                },
                {
                    "name": "F4",
                    "midi": 65,
                    "time": 113.80880000000109,
                    "velocity": 0.3700787401574803,
                    "duration": 0.2845219999999955
                },
                {
                    "name": "A4",
                    "midi": 69,
                    "time": 113.80880000000109,
                    "velocity": 0.4409448818897638,
                    "duration": 0.2845219999999955
                },
                {
                    "name": "C#4",
                    "midi": 61,
                    "time": 114.09332200000108,
                    "velocity": 0.4094488188976378,
                    "duration": 0.2845219999999955
                },
                {
                    "name": "G4",
                    "midi": 67,
                    "time": 114.09332200000108,
                    "velocity": 0.4094488188976378,
                    "duration": 0.2845219999999955
                },
                {
                    "name": "A4",
                    "midi": 69,
                    "time": 114.09332200000108,
                    "velocity": 0.4881889763779528,
                    "duration": 0.2845219999999955
                },
                {
                    "name": "D4",
                    "midi": 62,
                    "time": 114.37784400000108,
                    "velocity": 0.4251968503937008,
                    "duration": 0.2845219999999955
                },
                {
                    "name": "C4",
                    "midi": 60,
                    "time": 114.37784400000108,
                    "velocity": 0.4251968503937008,
                    "duration": 0.2845219999999955
                },
                {
                    "name": "F#4",
                    "midi": 66,
                    "time": 114.37784400000108,
                    "velocity": 0.4251968503937008,
                    "duration": 0.2845219999999955
                },
                {
                    "name": "A4",
                    "midi": 69,
                    "time": 114.37784400000108,
                    "velocity": 0.5039370078740157,
                    "duration": 0.2845219999999955
                },
                {
                    "name": "A#4",
                    "midi": 70,
                    "time": 114.66236600000107,
                    "velocity": 0.5118110236220472,
                    "duration": 0.21339150000000018
                },
                {
                    "name": "A#3",
                    "midi": 58,
                    "time": 114.66236600000107,
                    "velocity": 0.4330708661417323,
                    "duration": 0.2845219999999955
                },
                {
                    "name": "D4",
                    "midi": 62,
                    "time": 114.66236600000107,
                    "velocity": 0.4330708661417323,
                    "duration": 0.2845219999999955
                },
                {
                    "name": "G4",
                    "midi": 67,
                    "time": 114.66236600000107,
                    "velocity": 0.4330708661417323,
                    "duration": 0.2845219999999955
                },
                {
                    "name": "A4",
                    "midi": 69,
                    "time": 114.87575750000107,
                    "velocity": 0.4330708661417323,
                    "duration": 0.07113049999999532
                },
                {
                    "name": "C4",
                    "midi": 60,
                    "time": 114.94688800000107,
                    "velocity": 0.3464566929133858,
                    "duration": 0.6401745000000005
                },
                {
                    "name": "E4",
                    "midi": 64,
                    "time": 114.94688800000107,
                    "velocity": 0.3464566929133858,
                    "duration": 0.5690440000000052
                },
                {
                    "name": "G4",
                    "midi": 67,
                    "time": 114.94688800000107,
                    "velocity": 0.4094488188976378,
                    "duration": 0.42678300000000036
                },
                {
                    "name": "G#4",
                    "midi": 68,
                    "time": 115.37367100000107,
                    "velocity": 0.3700787401574803,
                    "duration": 0.14226100000000486
                },
                {
                    "name": "F4",
                    "midi": 65,
                    "time": 115.51593200000107,
                    "velocity": 0.33858267716535434,
                    "duration": 0.07113049999999532
                },
                {
                    "name": "A4",
                    "midi": 69,
                    "time": 115.51593200000107,
                    "velocity": 0.4015748031496063,
                    "duration": 0.07113049999999532
                },
                {
                    "name": "C4",
                    "midi": 60,
                    "time": 115.80045400000107,
                    "velocity": 0.30708661417322836,
                    "duration": 0.07113049999999532
                },
                {
                    "name": "F4",
                    "midi": 65,
                    "time": 115.80045400000107,
                    "velocity": 0.30708661417322836,
                    "duration": 0.07113049999999532
                },
                {
                    "name": "A4",
                    "midi": 69,
                    "time": 115.80045400000107,
                    "velocity": 0.36220472440944884,
                    "duration": 0.07113049999999532
                },
                {
                    "name": "C3",
                    "midi": 48,
                    "time": 116.17981666666773,
                    "velocity": 0.3700787401574803,
                    "duration": 0.0948406666666699
                },
                {
                    "name": "A2",
                    "midi": 45,
                    "time": 116.2746573333344,
                    "velocity": 0.3700787401574803,
                    "duration": 0.0948406666666699
                },
                {
                    "name": "C3",
                    "midi": 48,
                    "time": 116.36949800000107,
                    "velocity": 0.3700787401574803,
                    "duration": 0.0948406666666699
                },
                {
                    "name": "F3",
                    "midi": 53,
                    "time": 116.46433866666774,
                    "velocity": 0.4015748031496063,
                    "duration": 0.0948406666666699
                },
                {
                    "name": "A3",
                    "midi": 57,
                    "time": 116.55917933333441,
                    "velocity": 0.4330708661417323,
                    "duration": 0.0948406666666699
                },
                {
                    "name": "C4",
                    "midi": 60,
                    "time": 116.65402000000108,
                    "velocity": 0.5118110236220472,
                    "duration": 0.42678300000001457
                },
                {
                    "name": "C3",
                    "midi": 48,
                    "time": 116.79628100000109,
                    "velocity": 0.36220472440944884,
                    "duration": 0.2845220000000097
                },
                {
                    "name": "D3",
                    "midi": 50,
                    "time": 116.93854200000109,
                    "velocity": 0.3779527559055118,
                    "duration": 0.14226100000000486
                },
                {
                    "name": "C3",
                    "midi": 48,
                    "time": 117.0808030000011,
                    "velocity": 0.3543307086614173,
                    "duration": 0.14226100000000486
                },
                {
                    "name": "E3",
                    "midi": 52,
                    "time": 117.0808030000011,
                    "velocity": 0.3543307086614173,
                    "duration": 0.14226100000000486
                },
                {
                    "name": "A#3",
                    "midi": 58,
                    "time": 117.0808030000011,
                    "velocity": 0.4251968503937008,
                    "duration": 0.14226100000000486
                },
                {
                    "name": "C3",
                    "midi": 48,
                    "time": 117.2230640000011,
                    "velocity": 0.3700787401574803,
                    "duration": 0.2845219999999955
                },
                {
                    "name": "F3",
                    "midi": 53,
                    "time": 117.2230640000011,
                    "velocity": 0.3700787401574803,
                    "duration": 0.2845219999999955
                },
                {
                    "name": "A3",
                    "midi": 57,
                    "time": 117.2230640000011,
                    "velocity": 0.4409448818897638,
                    "duration": 0.2845219999999955
                },
                {
                    "name": "C#3",
                    "midi": 49,
                    "time": 117.5075860000011,
                    "velocity": 0.4094488188976378,
                    "duration": 0.2845219999999955
                },
                {
                    "name": "G3",
                    "midi": 55,
                    "time": 117.5075860000011,
                    "velocity": 0.4094488188976378,
                    "duration": 0.2845219999999955
                },
                {
                    "name": "A3",
                    "midi": 57,
                    "time": 117.5075860000011,
                    "velocity": 0.4881889763779528,
                    "duration": 0.2845219999999955
                },
                {
                    "name": "D3",
                    "midi": 50,
                    "time": 117.7921080000011,
                    "velocity": 0.4251968503937008,
                    "duration": 0.2845219999999955
                },
                {
                    "name": "C3",
                    "midi": 48,
                    "time": 117.7921080000011,
                    "velocity": 0.4251968503937008,
                    "duration": 0.2845219999999955
                },
                {
                    "name": "F#3",
                    "midi": 54,
                    "time": 117.7921080000011,
                    "velocity": 0.4251968503937008,
                    "duration": 0.2845219999999955
                },
                {
                    "name": "A3",
                    "midi": 57,
                    "time": 117.7921080000011,
                    "velocity": 0.5039370078740157,
                    "duration": 0.2845219999999955
                },
                {
                    "name": "A#3",
                    "midi": 58,
                    "time": 118.07663000000109,
                    "velocity": 0.5590551181102362,
                    "duration": 0.14226100000000486
                },
                {
                    "name": "A#2",
                    "midi": 46,
                    "time": 118.07663000000109,
                    "velocity": 0.47244094488188976,
                    "duration": 0.14226100000000486
                },
                {
                    "name": "D3",
                    "midi": 50,
                    "time": 118.07663000000109,
                    "velocity": 0.47244094488188976,
                    "duration": 0.14226100000000486
                },
                {
                    "name": "G3",
                    "midi": 55,
                    "time": 118.07663000000109,
                    "velocity": 0.47244094488188976,
                    "duration": 0.14226100000000486
                },
                {
                    "name": "D4",
                    "midi": 62,
                    "time": 118.6456740000011,
                    "velocity": 0.4881889763779528,
                    "duration": 0.2845219999999955
                },
                {
                    "name": "G#4",
                    "midi": 68,
                    "time": 118.6456740000011,
                    "velocity": 0.4881889763779528,
                    "duration": 0.2845219999999955
                },
                {
                    "name": "A#4",
                    "midi": 70,
                    "time": 118.6456740000011,
                    "velocity": 0.5826771653543307,
                    "duration": 0.2845219999999955
                },
                {
                    "name": "D#4",
                    "midi": 63,
                    "time": 118.93019600000109,
                    "velocity": 0.5039370078740157,
                    "duration": 0.2845219999999955
                },
                {
                    "name": "C#4",
                    "midi": 61,
                    "time": 118.93019600000109,
                    "velocity": 0.5039370078740157,
                    "duration": 0.2845219999999955
                },
                {
                    "name": "G4",
                    "midi": 67,
                    "time": 118.93019600000109,
                    "velocity": 0.5039370078740157,
                    "duration": 0.2845219999999955
                },
                {
                    "name": "A#4",
                    "midi": 70,
                    "time": 118.93019600000109,
                    "velocity": 0.6062992125984252,
                    "duration": 0.2845219999999955
                },
                {
                    "name": "B4",
                    "midi": 71,
                    "time": 119.21471800000108,
                    "velocity": 0.6692913385826772,
                    "duration": 0.14226100000000486
                },
                {
                    "name": "B3",
                    "midi": 59,
                    "time": 119.21471800000108,
                    "velocity": 0.5669291338582677,
                    "duration": 0.14226100000000486
                },
                {
                    "name": "D#4",
                    "midi": 63,
                    "time": 119.21471800000108,
                    "velocity": 0.5669291338582677,
                    "duration": 0.14226100000000486
                },
                {
                    "name": "G#4",
                    "midi": 68,
                    "time": 119.21471800000108,
                    "velocity": 0.5669291338582677,
                    "duration": 0.14226100000000486
                },
                {
                    "name": "D5",
                    "midi": 74,
                    "time": 119.78376200000109,
                    "velocity": 0.6456692913385826,
                    "duration": 0.2845219999999955
                },
                {
                    "name": "E5",
                    "midi": 76,
                    "time": 119.78376200000109,
                    "velocity": 0.6456692913385826,
                    "duration": 0.2845219999999955
                },
                {
                    "name": "B5",
                    "midi": 83,
                    "time": 119.78376200000109,
                    "velocity": 0.7795275590551181,
                    "duration": 0.2845219999999955
                },
                {
                    "name": "G#5",
                    "midi": 80,
                    "time": 119.78376200000109,
                    "velocity": 0.7795275590551181,
                    "duration": 0.2845219999999955
                },
                {
                    "name": "C5",
                    "midi": 72,
                    "time": 120.06828400000109,
                    "velocity": 0.6929133858267716,
                    "duration": 0.14226100000000486
                },
                {
                    "name": "E5",
                    "midi": 76,
                    "time": 120.06828400000109,
                    "velocity": 0.6929133858267716,
                    "duration": 0.14226100000000486
                },
                {
                    "name": "A5",
                    "midi": 81,
                    "time": 120.06828400000109,
                    "velocity": 0.8110236220472441,
                    "duration": 0.14226100000000486
                },
                {
                    "name": "C6",
                    "midi": 84,
                    "time": 120.06828400000109,
                    "velocity": 0.8110236220472441,
                    "duration": 0.14226100000000486
                },
                {
                    "name": "F5",
                    "midi": 77,
                    "time": 120.63732800000109,
                    "velocity": 0.4094488188976378,
                    "duration": 0.6401745000000005
                },
                {
                    "name": "A5",
                    "midi": 81,
                    "time": 120.63732800000109,
                    "velocity": 0.4094488188976378,
                    "duration": 0.5690440000000052
                },
                {
                    "name": "C6",
                    "midi": 84,
                    "time": 120.63732800000109,
                    "velocity": 0.4881889763779528,
                    "duration": 0.42678300000000036
                },
                {
                    "name": "C#6",
                    "midi": 85,
                    "time": 121.06411100000109,
                    "velocity": 0.4409448818897638,
                    "duration": 0.14226100000000486
                },
                {
                    "name": "A#5",
                    "midi": 82,
                    "time": 121.2063720000011,
                    "velocity": 0.4015748031496063,
                    "duration": 0.07113049999999532
                },
                {
                    "name": "D6",
                    "midi": 86,
                    "time": 121.2063720000011,
                    "velocity": 0.48031496062992124,
                    "duration": 0.07113049999999532
                },
                {
                    "name": "F5",
                    "midi": 77,
                    "time": 121.49089400000109,
                    "velocity": 0.36220472440944884,
                    "duration": 0.07113049999999532
                },
                {
                    "name": "A#5",
                    "midi": 82,
                    "time": 121.49089400000109,
                    "velocity": 0.36220472440944884,
                    "duration": 0.07113049999999532
                },
                {
                    "name": "D6",
                    "midi": 86,
                    "time": 121.49089400000109,
                    "velocity": 0.4330708661417323,
                    "duration": 0.07113049999999532
                },
                {
                    "name": "F5",
                    "midi": 77,
                    "time": 121.77541600000109,
                    "velocity": 0.4015748031496063,
                    "duration": 0.8535660000000007
                },
                {
                    "name": "D6",
                    "midi": 86,
                    "time": 121.77541600000109,
                    "velocity": 0.48031496062992124,
                    "duration": 0.8535660000000007
                },
                {
                    "name": "F6",
                    "midi": 89,
                    "time": 121.77541600000109,
                    "velocity": 0.48031496062992124,
                    "duration": 0.8535660000000007
                },
                {
                    "name": "F5",
                    "midi": 77,
                    "time": 122.91350400000108,
                    "velocity": 0.4251968503937008,
                    "duration": 0.7113049999999959
                },
                {
                    "name": "D5",
                    "midi": 74,
                    "time": 123.62480900000108,
                    "velocity": 0.3543307086614173,
                    "duration": 0.14226100000000486
                },
                {
                    "name": "A#4",
                    "midi": 70,
                    "time": 123.76707000000108,
                    "velocity": 0.3937007874015748,
                    "duration": 0.14226100000000486
                },
                {
                    "name": "A4",
                    "midi": 69,
                    "time": 123.90933100000109,
                    "velocity": 0.3543307086614173,
                    "duration": 0.14226100000000486
                },
                {
                    "name": "C4",
                    "midi": 60,
                    "time": 124.0515920000011,
                    "velocity": 0.2677165354330709,
                    "duration": 0.6401744999999863
                },
                {
                    "name": "E4",
                    "midi": 64,
                    "time": 124.0515920000011,
                    "velocity": 0.2677165354330709,
                    "duration": 0.569043999999991
                },
                {
                    "name": "A4",
                    "midi": 69,
                    "time": 124.0515920000011,
                    "velocity": 0.3858267716535433,
                    "duration": 0.2845219999999955
                },
                {
                    "name": "G4",
                    "midi": 67,
                    "time": 124.33611400000109,
                    "velocity": 0.3464566929133858,
                    "duration": 0.21339150000000018
                },
                {
                    "name": "G#4",
                    "midi": 68,
                    "time": 124.54950550000109,
                    "velocity": 0.3464566929133858,
                    "duration": 0.07113049999999532
                },
                {
                    "name": "F4",
                    "midi": 65,
                    "time": 124.62063600000108,
                    "velocity": 0.31496062992125984,
                    "duration": 0.07113049999999532
                },
                {
                    "name": "A4",
                    "midi": 69,
                    "time": 124.62063600000108,
                    "velocity": 0.3779527559055118,
                    "duration": 0.07113049999999532
                },
                {
                    "name": "C4",
                    "midi": 60,
                    "time": 124.90515800000108,
                    "velocity": 0.23622047244094488,
                    "duration": 0.07113049999999532
                },
                {
                    "name": "F4",
                    "midi": 65,
                    "time": 124.90515800000108,
                    "velocity": 0.28346456692913385,
                    "duration": 0.07113049999999532
                },
                {
                    "name": "A4",
                    "midi": 69,
                    "time": 124.90515800000108,
                    "velocity": 0.3464566929133858,
                    "duration": 0.07113049999999532
                },
                {
                    "name": "A4",
                    "midi": 69,
                    "time": 125.18968000000108,
                    "velocity": 0.3779527559055118,
                    "duration": 0.8535660000000007
                },
                {
                    "name": "C5",
                    "midi": 72,
                    "time": 125.18968000000108,
                    "velocity": 0.3779527559055118,
                    "duration": 0.8535660000000007
                },
                {
                    "name": "F5",
                    "midi": 77,
                    "time": 126.32776800000107,
                    "velocity": 0.4094488188976378,
                    "duration": 0.6401745000000005
                },
                {
                    "name": "A5",
                    "midi": 81,
                    "time": 126.32776800000107,
                    "velocity": 0.4094488188976378,
                    "duration": 0.5690440000000052
                },
                {
                    "name": "C6",
                    "midi": 84,
                    "time": 126.32776800000107,
                    "velocity": 0.4881889763779528,
                    "duration": 0.42678300000000036
                },
                {
                    "name": "C#6",
                    "midi": 85,
                    "time": 126.75455100000107,
                    "velocity": 0.4409448818897638,
                    "duration": 0.14226100000000486
                },
                {
                    "name": "A#5",
                    "midi": 82,
                    "time": 126.89681200000108,
                    "velocity": 0.4015748031496063,
                    "duration": 0.07113049999999532
                },
                {
                    "name": "D6",
                    "midi": 86,
                    "time": 126.89681200000108,
                    "velocity": 0.48031496062992124,
                    "duration": 0.07113049999999532
                },
                {
                    "name": "F5",
                    "midi": 77,
                    "time": 127.18133400000107,
                    "velocity": 0.4330708661417323,
                    "duration": 0.07113049999999532
                },
                {
                    "name": "A#5",
                    "midi": 82,
                    "time": 127.18133400000107,
                    "velocity": 0.4330708661417323,
                    "duration": 0.07113049999999532
                },
                {
                    "name": "D6",
                    "midi": 86,
                    "time": 127.18133400000107,
                    "velocity": 0.5196850393700787,
                    "duration": 0.07113049999999532
                },
                {
                    "name": "A#4",
                    "midi": 70,
                    "time": 127.46585600000107,
                    "velocity": 0.6299212598425197,
                    "duration": 0.03556525000000477
                },
                {
                    "name": "D5",
                    "midi": 74,
                    "time": 127.50142125000107,
                    "velocity": 0.6220472440944882,
                    "duration": 0.03556525000000477
                },
                {
                    "name": "F5",
                    "midi": 77,
                    "time": 127.53698650000108,
                    "velocity": 0.6062992125984252,
                    "duration": 0.03556525000000477
                },
                {
                    "name": "A#5",
                    "midi": 82,
                    "time": 127.57255175000108,
                    "velocity": 0.5826771653543307,
                    "duration": 0.03556525000000477
                },
                {
                    "name": "D6",
                    "midi": 86,
                    "time": 127.60811700000109,
                    "velocity": 0.5590551181102362,
                    "duration": 0.03556525000000477
                },
                {
                    "name": "F6",
                    "midi": 89,
                    "time": 127.64368225000109,
                    "velocity": 0.5354330708661418,
                    "duration": 0.03556525000000477
                },
                {
                    "name": "A#6",
                    "midi": 94,
                    "time": 127.6792475000011,
                    "velocity": 0.5118110236220472,
                    "duration": 0.03556525000000477
                },
                {
                    "name": "D7",
                    "midi": 98,
                    "time": 127.7148127500011,
                    "velocity": 0.48031496062992124,
                    "duration": 0.03556525000000477
                },
                {
                    "name": "F7",
                    "midi": 101,
                    "time": 127.7503780000011,
                    "velocity": 0.4566929133858268,
                    "duration": 0.03556525000000477
                },
                {
                    "name": "F5",
                    "midi": 77,
                    "time": 128.60394400000112,
                    "velocity": 0.4881889763779528,
                    "duration": 0.9958269999999914
                },
                {
                    "name": "E5",
                    "midi": 76,
                    "time": 129.5997710000011,
                    "velocity": 0.3937007874015748,
                    "duration": 0.14226099999999064
                },
                {
                    "name": "E5",
                    "midi": 76,
                    "time": 129.7420320000011,
                    "velocity": 0.41732283464566927,
                    "duration": 0.2845220000000097
                },
                {
                    "name": "D5",
                    "midi": 74,
                    "time": 130.0265540000011,
                    "velocity": 0.4015748031496063,
                    "duration": 0.21339150000000018
                },
                {
                    "name": "C5",
                    "midi": 72,
                    "time": 130.2399455000011,
                    "velocity": 0.3700787401574803,
                    "duration": 0.07113050000000953
                },
                {
                    "name": "C5",
                    "midi": 72,
                    "time": 130.31107600000112,
                    "velocity": 0.4015748031496063,
                    "duration": 0.2845220000000097
                },
                {
                    "name": "A#4",
                    "midi": 70,
                    "time": 130.59559800000113,
                    "velocity": 0.3779527559055118,
                    "duration": 0.21339150000000018
                },
                {
                    "name": "A4",
                    "midi": 69,
                    "time": 130.80898950000113,
                    "velocity": 0.3228346456692913,
                    "duration": 0.07113050000000953
                },
                {
                    "name": "C4",
                    "midi": 60,
                    "time": 130.88012000000114,
                    "velocity": 0.23622047244094488,
                    "duration": 0.640174500000029
                },
                {
                    "name": "E4",
                    "midi": 64,
                    "time": 130.88012000000114,
                    "velocity": 0.23622047244094488,
                    "duration": 0.5690440000000194
                },
                {
                    "name": "A4",
                    "midi": 69,
                    "time": 130.88012000000114,
                    "velocity": 0.3464566929133858,
                    "duration": 0.2845220000000097
                },
                {
                    "name": "G4",
                    "midi": 67,
                    "time": 131.16464200000115,
                    "velocity": 0.30708661417322836,
                    "duration": 0.21339150000000018
                },
                {
                    "name": "G#4",
                    "midi": 68,
                    "time": 131.37803350000115,
                    "velocity": 0.30708661417322836,
                    "duration": 0.07113050000000953
                },
                {
                    "name": "F4",
                    "midi": 65,
                    "time": 131.44916400000116,
                    "velocity": 0.28346456692913385,
                    "duration": 0.07113050000000953
                },
                {
                    "name": "A4",
                    "midi": 69,
                    "time": 131.44916400000116,
                    "velocity": 0.33858267716535434,
                    "duration": 0.07113050000000953
                },
                {
                    "name": "C4",
                    "midi": 60,
                    "time": 131.73368600000117,
                    "velocity": 0.2125984251968504,
                    "duration": 0.07113050000000953
                },
                {
                    "name": "F4",
                    "midi": 65,
                    "time": 131.73368600000117,
                    "velocity": 0.25196850393700787,
                    "duration": 0.07113050000000953
                },
                {
                    "name": "A4",
                    "midi": 69,
                    "time": 131.73368600000117,
                    "velocity": 0.30708661417322836,
                    "duration": 0.07113050000000953
                },
                {
                    "name": "A4",
                    "midi": 69,
                    "time": 132.01820800000118,
                    "velocity": 0.33858267716535434,
                    "duration": 0.8535660000000007
                },
                {
                    "name": "C5",
                    "midi": 72,
                    "time": 132.01820800000118,
                    "velocity": 0.33858267716535434,
                    "duration": 0.8535660000000007
                },
                {
                    "name": "F4",
                    "midi": 65,
                    "time": 133.72534000000118,
                    "velocity": 0.3779527559055118,
                    "duration": 0.07113050000000953
                },
                {
                    "name": "F#4",
                    "midi": 66,
                    "time": 133.7964705000012,
                    "velocity": 0.41732283464566927,
                    "duration": 0.07113050000000953
                },
                {
                    "name": "D#4",
                    "midi": 63,
                    "time": 134.0098620000012,
                    "velocity": 0.3779527559055118,
                    "duration": 0.07113050000000953
                },
                {
                    "name": "F#4",
                    "midi": 66,
                    "time": 134.0809925000012,
                    "velocity": 0.4094488188976378,
                    "duration": 0.07113050000000953
                },
                {
                    "name": "C5",
                    "midi": 72,
                    "time": 134.2943840000012,
                    "velocity": 0.28346456692913385,
                    "duration": 0.07113050000000953
                },
                {
                    "name": "A5",
                    "midi": 81,
                    "time": 134.2943840000012,
                    "velocity": 0.33858267716535434,
                    "duration": 0.07113050000000953
                },
                {
                    "name": "C5",
                    "midi": 72,
                    "time": 134.5789060000012,
                    "velocity": 0.25196850393700787,
                    "duration": 0.07113050000000953
                },
                {
                    "name": "A5",
                    "midi": 81,
                    "time": 134.5789060000012,
                    "velocity": 0.30708661417322836,
                    "duration": 0.07113050000000953
                },
                {
                    "name": "A5",
                    "midi": 81,
                    "time": 134.86342800000122,
                    "velocity": 0.33858267716535434,
                    "duration": 0.569043999999991
                },
                {
                    "name": "C6",
                    "midi": 84,
                    "time": 134.86342800000122,
                    "velocity": 0.33858267716535434,
                    "duration": 0.569043999999991
                },
                {
                    "name": "F3",
                    "midi": 53,
                    "time": 136.0015160000012,
                    "velocity": 0.33070866141732286,
                    "duration": 0.07113050000000953
                },
                {
                    "name": "F#3",
                    "midi": 54,
                    "time": 136.0726465000012,
                    "velocity": 0.3779527559055118,
                    "duration": 0.07113050000000953
                },
                {
                    "name": "D#3",
                    "midi": 51,
                    "time": 136.2860380000012,
                    "velocity": 0.3228346456692913,
                    "duration": 0.07113050000000953
                },
                {
                    "name": "F#3",
                    "midi": 54,
                    "time": 136.35716850000122,
                    "velocity": 0.3779527559055118,
                    "duration": 0.07113050000000953
                },
                {
                    "name": "C4",
                    "midi": 60,
                    "time": 136.57056000000122,
                    "velocity": 0.25196850393700787,
                    "duration": 0.07113050000000953
                },
                {
                    "name": "A4",
                    "midi": 69,
                    "time": 136.57056000000122,
                    "velocity": 0.2992125984251969,
                    "duration": 0.07113050000000953
                },
                {
                    "name": "C4",
                    "midi": 60,
                    "time": 136.85508200000123,
                    "velocity": 0.2204724409448819,
                    "duration": 0.07113050000000953
                },
                {
                    "name": "A4",
                    "midi": 69,
                    "time": 136.85508200000123,
                    "velocity": 0.2755905511811024,
                    "duration": 0.07113050000000953
                },
                {
                    "name": "A4",
                    "midi": 69,
                    "time": 137.13960400000124,
                    "velocity": 0.2992125984251969,
                    "duration": 0.569043999999991
                },
                {
                    "name": "C5",
                    "midi": 72,
                    "time": 137.13960400000124,
                    "velocity": 0.2992125984251969,
                    "duration": 0.569043999999991
                },
                {
                    "name": "D#4",
                    "midi": 63,
                    "time": 137.99317000000124,
                    "velocity": 0.4251968503937008,
                    "duration": 0.07113050000000953
                },
                {
                    "name": "F#4",
                    "midi": 66,
                    "time": 138.06430050000125,
                    "velocity": 0.48031496062992124,
                    "duration": 0.07113050000000953
                },
                {
                    "name": "D#4",
                    "midi": 63,
                    "time": 138.56221400000126,
                    "velocity": 0.4330708661417323,
                    "duration": 0.07113050000000953
                },
                {
                    "name": "F#4",
                    "midi": 66,
                    "time": 138.63334450000127,
                    "velocity": 0.4881889763779528,
                    "duration": 0.07113050000000953
                },
                {
                    "name": "D#4",
                    "midi": 63,
                    "time": 139.13125800000128,
                    "velocity": 0.6062992125984252,
                    "duration": 0.07113050000000953
                },
                {
                    "name": "F#4",
                    "midi": 66,
                    "time": 139.2023885000013,
                    "velocity": 0.6535433070866141,
                    "duration": 0.07113050000000953
                },
                {
                    "name": "B3",
                    "midi": 59,
                    "time": 139.4157800000013,
                    "velocity": 0.6377952755905512,
                    "duration": 0.07113050000000953
                },
                {
                    "name": "F#4",
                    "midi": 66,
                    "time": 139.4869105000013,
                    "velocity": 0.6929133858267716,
                    "duration": 0.07113050000000953
                },
                {
                    "name": "A#3",
                    "midi": 58,
                    "time": 139.7003020000013,
                    "velocity": 0.6929133858267716,
                    "duration": 0.07113050000000953
                },
                {
                    "name": "F#4",
                    "midi": 66,
                    "time": 139.7714325000013,
                    "velocity": 0.7401574803149606,
                    "duration": 0.07113050000000953
                },
                {
                    "name": "A3",
                    "midi": 57,
                    "time": 139.9848240000013,
                    "velocity": 0.7480314960629921,
                    "duration": 0.07113050000000953
                },
                {
                    "name": "F4",
                    "midi": 65,
                    "time": 140.05595450000132,
                    "velocity": 0.8110236220472441,
                    "duration": 0.07113050000000953
                },
                {
                    "name": "F4",
                    "midi": 65,
                    "time": 140.26934600000132,
                    "velocity": 0.6692913385826772,
                    "duration": 0.04742033333332074
                },
                {
                    "name": "C5",
                    "midi": 72,
                    "time": 140.26934600000132,
                    "velocity": 0.6692913385826772,
                    "duration": 0.04742033333332074
                },
                {
                    "name": "D#5",
                    "midi": 75,
                    "time": 140.26934600000132,
                    "velocity": 0.7952755905511811,
                    "duration": 0.04742033333332074
                },
                {
                    "name": "F5",
                    "midi": 77,
                    "time": 140.26934600000132,
                    "velocity": 0.7952755905511811,
                    "duration": 0.04742033333332074
                },
                {
                    "name": "F4",
                    "midi": 65,
                    "time": 140.36418666666796,
                    "velocity": 0.6692913385826772,
                    "duration": 0.04742033333332074
                },
                {
                    "name": "C5",
                    "midi": 72,
                    "time": 140.36418666666796,
                    "velocity": 0.6692913385826772,
                    "duration": 0.04742033333332074
                },
                {
                    "name": "D#5",
                    "midi": 75,
                    "time": 140.36418666666796,
                    "velocity": 0.7952755905511811,
                    "duration": 0.04742033333332074
                },
                {
                    "name": "F5",
                    "midi": 77,
                    "time": 140.36418666666796,
                    "velocity": 0.7952755905511811,
                    "duration": 0.04742033333332074
                },
                {
                    "name": "F4",
                    "midi": 65,
                    "time": 140.4590273333346,
                    "velocity": 0.6692913385826772,
                    "duration": 0.04742033333332074
                },
                {
                    "name": "C5",
                    "midi": 72,
                    "time": 140.4590273333346,
                    "velocity": 0.6692913385826772,
                    "duration": 0.04742033333332074
                },
                {
                    "name": "D#5",
                    "midi": 75,
                    "time": 140.4590273333346,
                    "velocity": 0.7952755905511811,
                    "duration": 0.04742033333332074
                },
                {
                    "name": "F5",
                    "midi": 77,
                    "time": 140.4590273333346,
                    "velocity": 0.7952755905511811,
                    "duration": 0.04742033333332074
                },
                {
                    "name": "F5",
                    "midi": 77,
                    "time": 140.55386800000124,
                    "velocity": 0.7401574803149606,
                    "duration": 0.07113050000000953
                },
                {
                    "name": "C6",
                    "midi": 84,
                    "time": 140.55386800000124,
                    "velocity": 0.7401574803149606,
                    "duration": 0.07113050000000953
                },
                {
                    "name": "D#6",
                    "midi": 87,
                    "time": 140.55386800000124,
                    "velocity": 0.8818897637795275,
                    "duration": 0.07113050000000953
                },
                {
                    "name": "F6",
                    "midi": 89,
                    "time": 140.55386800000124,
                    "velocity": 0.8818897637795275,
                    "duration": 0.07113050000000953
                },
                {
                    "name": "A#3",
                    "midi": 58,
                    "time": 143.11456600000125,
                    "velocity": 0.28346456692913385,
                    "duration": 0.2845220000000097
                },
                {
                    "name": "F4",
                    "midi": 65,
                    "time": 143.11456600000125,
                    "velocity": 0.31496062992125984,
                    "duration": 0.2845220000000097
                },
                {
                    "name": "A#4",
                    "midi": 70,
                    "time": 143.11456600000125,
                    "velocity": 0.3779527559055118,
                    "duration": 0.2845220000000097
                },
                {
                    "name": "A#3",
                    "midi": 58,
                    "time": 143.39908800000126,
                    "velocity": 0.29133858267716534,
                    "duration": 0.2845220000000097
                },
                {
                    "name": "F4",
                    "midi": 65,
                    "time": 143.39908800000126,
                    "velocity": 0.33070866141732286,
                    "duration": 0.2845220000000097
                },
                {
                    "name": "A#4",
                    "midi": 70,
                    "time": 143.39908800000126,
                    "velocity": 0.3937007874015748,
                    "duration": 0.2845220000000097
                },
                {
                    "name": "A3",
                    "midi": 57,
                    "time": 143.68361000000127,
                    "velocity": 0.2440944881889764,
                    "duration": 0.2845220000000097
                },
                {
                    "name": "F4",
                    "midi": 65,
                    "time": 143.68361000000127,
                    "velocity": 0.31496062992125984,
                    "duration": 0.2845220000000097
                },
                {
                    "name": "A4",
                    "midi": 69,
                    "time": 143.68361000000127,
                    "velocity": 0.3779527559055118,
                    "duration": 0.2845220000000097
                },
                {
                    "name": "A#3",
                    "midi": 58,
                    "time": 143.96813200000128,
                    "velocity": 0.29133858267716534,
                    "duration": 0.2845220000000097
                },
                {
                    "name": "F4",
                    "midi": 65,
                    "time": 143.96813200000128,
                    "velocity": 0.33070866141732286,
                    "duration": 0.2845220000000097
                },
                {
                    "name": "A#4",
                    "midi": 70,
                    "time": 143.96813200000128,
                    "velocity": 0.3937007874015748,
                    "duration": 0.2845220000000097
                },
                {
                    "name": "C4",
                    "midi": 60,
                    "time": 144.2526540000013,
                    "velocity": 0.28346456692913385,
                    "duration": 0.2845220000000097
                },
                {
                    "name": "F4",
                    "midi": 65,
                    "time": 144.2526540000013,
                    "velocity": 0.31496062992125984,
                    "duration": 0.2845220000000097
                },
                {
                    "name": "C5",
                    "midi": 72,
                    "time": 144.2526540000013,
                    "velocity": 0.3779527559055118,
                    "duration": 0.2845220000000097
                },
                {
                    "name": "D4",
                    "midi": 62,
                    "time": 144.5371760000013,
                    "velocity": 0.31496062992125984,
                    "duration": 0.8535660000000007
                },
                {
                    "name": "F4",
                    "midi": 65,
                    "time": 144.5371760000013,
                    "velocity": 0.3543307086614173,
                    "duration": 0.8535660000000007
                },
                {
                    "name": "D5",
                    "midi": 74,
                    "time": 144.5371760000013,
                    "velocity": 0.41732283464566927,
                    "duration": 0.8535660000000007
                },
                {
                    "name": "C4",
                    "midi": 60,
                    "time": 145.3907420000013,
                    "velocity": 0.29133858267716534,
                    "duration": 0.14226099999999064
                },
                {
                    "name": "F4",
                    "midi": 65,
                    "time": 145.3907420000013,
                    "velocity": 0.33070866141732286,
                    "duration": 0.14226099999999064
                },
                {
                    "name": "C5",
                    "midi": 72,
                    "time": 145.3907420000013,
                    "velocity": 0.3937007874015748,
                    "duration": 0.14226099999999064
                },
                {
                    "name": "A#3",
                    "midi": 58,
                    "time": 145.5330030000013,
                    "velocity": 0.2755905511811024,
                    "duration": 0.14226099999999064
                },
                {
                    "name": "F4",
                    "midi": 65,
                    "time": 145.5330030000013,
                    "velocity": 0.30708661417322836,
                    "duration": 0.14226099999999064
                },
                {
                    "name": "A#4",
                    "midi": 70,
                    "time": 145.5330030000013,
                    "velocity": 0.36220472440944884,
                    "duration": 0.14226099999999064
                },
                {
                    "name": "C4",
                    "midi": 60,
                    "time": 145.67526400000128,
                    "velocity": 0.2755905511811024,
                    "duration": 0.28155822916667717
                },
                {
                    "name": "F4",
                    "midi": 65,
                    "time": 145.67526400000128,
                    "velocity": 0.30708661417322836,
                    "duration": 0.28155822916667717
                },
                {
                    "name": "C5",
                    "midi": 72,
                    "time": 145.67526400000128,
                    "velocity": 0.3700787401574803,
                    "duration": 0.28155822916667717
                },
                {
                    "name": "C4",
                    "midi": 60,
                    "time": 145.9597860000013,
                    "velocity": 0.2677165354330709,
                    "duration": 0.28155822916667717
                },
                {
                    "name": "F4",
                    "midi": 65,
                    "time": 145.9597860000013,
                    "velocity": 0.2992125984251969,
                    "duration": 0.28155822916667717
                },
                {
                    "name": "C5",
                    "midi": 72,
                    "time": 145.9597860000013,
                    "velocity": 0.36220472440944884,
                    "duration": 0.28155822916667717
                },
                {
                    "name": "C4",
                    "midi": 60,
                    "time": 146.2443080000013,
                    "velocity": 0.2677165354330709,
                    "duration": 0.28155822916667717
                },
                {
                    "name": "F4",
                    "midi": 65,
                    "time": 146.2443080000013,
                    "velocity": 0.2992125984251969,
                    "duration": 0.28155822916667717
                },
                {
                    "name": "C5",
                    "midi": 72,
                    "time": 146.2443080000013,
                    "velocity": 0.36220472440944884,
                    "duration": 0.28155822916667717
                },
                {
                    "name": "A#3",
                    "midi": 58,
                    "time": 146.5288300000013,
                    "velocity": 0.29133858267716534,
                    "duration": 0.14226099999999064
                },
                {
                    "name": "F4",
                    "midi": 65,
                    "time": 146.5288300000013,
                    "velocity": 0.33070866141732286,
                    "duration": 0.14226099999999064
                },
                {
                    "name": "A#4",
                    "midi": 70,
                    "time": 146.5288300000013,
                    "velocity": 0.3937007874015748,
                    "duration": 0.14226099999999064
                },
                {
                    "name": "A3",
                    "midi": 57,
                    "time": 146.6710910000013,
                    "velocity": 0.23622047244094488,
                    "duration": 0.14226099999999064
                },
                {
                    "name": "F4",
                    "midi": 65,
                    "time": 146.6710910000013,
                    "velocity": 0.2992125984251969,
                    "duration": 0.14226099999999064
                },
                {
                    "name": "A4",
                    "midi": 69,
                    "time": 146.6710910000013,
                    "velocity": 0.3543307086614173,
                    "duration": 0.14226099999999064
                },
                {
                    "name": "F4",
                    "midi": 65,
                    "time": 146.8133520000013,
                    "velocity": 0.4094488188976378,
                    "duration": 0.2845220000000097
                },
                {
                    "name": "A#3",
                    "midi": 58,
                    "time": 146.8133520000013,
                    "velocity": 0.29133858267716534,
                    "duration": 0.8535660000000291
                },
                {
                    "name": "A#4",
                    "midi": 70,
                    "time": 146.8133520000013,
                    "velocity": 0.4094488188976378,
                    "duration": 0.8535660000000291
                },
                {
                    "name": "D#4",
                    "midi": 63,
                    "time": 147.0978740000013,
                    "velocity": 0.33070866141732286,
                    "duration": 0.2845220000000097
                },
                {
                    "name": "G4",
                    "midi": 67,
                    "time": 147.0978740000013,
                    "velocity": 0.3937007874015748,
                    "duration": 0.2845220000000097
                },
                {
                    "name": "D4",
                    "midi": 62,
                    "time": 147.3823960000013,
                    "velocity": 0.28346456692913385,
                    "duration": 0.2845220000000097
                },
                {
                    "name": "F4",
                    "midi": 65,
                    "time": 147.3823960000013,
                    "velocity": 0.3464566929133858,
                    "duration": 0.2845220000000097
                },
                {
                    "name": "A#4",
                    "midi": 70,
                    "time": 147.66691800000132,
                    "velocity": 0.48031496062992124,
                    "duration": 0.2845220000000097
                },
                {
                    "name": "D#4",
                    "midi": 63,
                    "time": 147.95144000000133,
                    "velocity": 0.3543307086614173,
                    "duration": 0.8535660000000007
                },
                {
                    "name": "A#4",
                    "midi": 70,
                    "time": 147.95144000000133,
                    "velocity": 0.4015748031496063,
                    "duration": 0.8535660000000007
                },
                {
                    "name": "D#5",
                    "midi": 75,
                    "time": 147.95144000000133,
                    "velocity": 0.47244094488188976,
                    "duration": 0.8535660000000007
                },
                {
                    "name": "D4",
                    "midi": 62,
                    "time": 148.80500600000133,
                    "velocity": 0.3228346456692913,
                    "duration": 0.14226099999999064
                },
                {
                    "name": "A#4",
                    "midi": 70,
                    "time": 148.80500600000133,
                    "velocity": 0.36220472440944884,
                    "duration": 0.14226099999999064
                },
                {
                    "name": "D5",
                    "midi": 74,
                    "time": 148.80500600000133,
                    "velocity": 0.4330708661417323,
                    "duration": 0.14226099999999064
                },
                {
                    "name": "C4",
                    "midi": 60,
                    "time": 148.94726700000132,
                    "velocity": 0.29133858267716534,
                    "duration": 0.14226099999999064
                },
                {
                    "name": "A#4",
                    "midi": 70,
                    "time": 148.94726700000132,
                    "velocity": 0.33070866141732286,
                    "duration": 0.14226099999999064
                },
                {
                    "name": "C5",
                    "midi": 72,
                    "time": 148.94726700000132,
                    "velocity": 0.3937007874015748,
                    "duration": 0.14226099999999064
                },
                {
                    "name": "D4",
                    "midi": 62,
                    "time": 149.0895280000013,
                    "velocity": 0.3543307086614173,
                    "duration": 0.2845220000000097
                },
                {
                    "name": "A#4",
                    "midi": 70,
                    "time": 149.0895280000013,
                    "velocity": 0.3543307086614173,
                    "duration": 0.2845220000000097
                },
                {
                    "name": "D5",
                    "midi": 74,
                    "time": 149.0895280000013,
                    "velocity": 0.41732283464566927,
                    "duration": 0.2845220000000097
                },
                {
                    "name": "A3",
                    "midi": 57,
                    "time": 149.37405000000132,
                    "velocity": 0.29133858267716534,
                    "duration": 0.2845220000000097
                },
                {
                    "name": "F4",
                    "midi": 65,
                    "time": 149.37405000000132,
                    "velocity": 0.33070866141732286,
                    "duration": 0.2845220000000097
                },
                {
                    "name": "A4",
                    "midi": 69,
                    "time": 149.37405000000132,
                    "velocity": 0.3937007874015748,
                    "duration": 0.2845220000000097
                },
                {
                    "name": "A#3",
                    "midi": 58,
                    "time": 149.65857200000133,
                    "velocity": 0.30708661417322836,
                    "duration": 0.2845220000000097
                },
                {
                    "name": "F4",
                    "midi": 65,
                    "time": 149.65857200000133,
                    "velocity": 0.3464566929133858,
                    "duration": 0.2845220000000097
                },
                {
                    "name": "A#4",
                    "midi": 70,
                    "time": 149.65857200000133,
                    "velocity": 0.4094488188976378,
                    "duration": 0.2845220000000097
                },
                {
                    "name": "C4",
                    "midi": 60,
                    "time": 149.94309400000134,
                    "velocity": 0.29133858267716534,
                    "duration": 0.2845220000000097
                },
                {
                    "name": "F4",
                    "midi": 65,
                    "time": 149.94309400000134,
                    "velocity": 0.33070866141732286,
                    "duration": 0.2845220000000097
                },
                {
                    "name": "C5",
                    "midi": 72,
                    "time": 149.94309400000134,
                    "velocity": 0.3937007874015748,
                    "duration": 0.2845220000000097
                },
                {
                    "name": "A#3",
                    "midi": 58,
                    "time": 150.22761600000135,
                    "velocity": 0.30708661417322836,
                    "duration": 0.2845220000000097
                },
                {
                    "name": "F4",
                    "midi": 65,
                    "time": 150.22761600000135,
                    "velocity": 0.3464566929133858,
                    "duration": 0.2845220000000097
                },
                {
                    "name": "A#4",
                    "midi": 70,
                    "time": 150.22761600000135,
                    "velocity": 0.4094488188976378,
                    "duration": 0.2845220000000097
                },
                {
                    "name": "F4",
                    "midi": 65,
                    "time": 150.51213800000136,
                    "velocity": 0.3464566929133858,
                    "duration": 0.2845220000000097
                },
                {
                    "name": "D4",
                    "midi": 62,
                    "time": 150.51213800000136,
                    "velocity": 0.30708661417322836,
                    "duration": 0.2845220000000097
                },
                {
                    "name": "A#4",
                    "midi": 70,
                    "time": 150.51213800000136,
                    "velocity": 0.3464566929133858,
                    "duration": 0.2845220000000097
                },
                {
                    "name": "D5",
                    "midi": 74,
                    "time": 150.51213800000136,
                    "velocity": 0.4094488188976378,
                    "duration": 0.2845220000000097
                },
                {
                    "name": "C4",
                    "midi": 60,
                    "time": 150.79666000000137,
                    "velocity": 0.29133858267716534,
                    "duration": 1.849392999999992
                },
                {
                    "name": "F4",
                    "midi": 65,
                    "time": 150.79666000000137,
                    "velocity": 0.33070866141732286,
                    "duration": 1.849392999999992
                },
                {
                    "name": "A4",
                    "midi": 69,
                    "time": 150.79666000000137,
                    "velocity": 0.33070866141732286,
                    "duration": 1.849392999999992
                },
                {
                    "name": "C5",
                    "midi": 72,
                    "time": 150.79666000000137,
                    "velocity": 0.3937007874015748,
                    "duration": 1.849392999999992
                },
                {
                    "name": "A#3",
                    "midi": 58,
                    "time": 153.35735800000137,
                    "velocity": 0.28346456692913385,
                    "duration": 0.2845220000000097
                },
                {
                    "name": "F4",
                    "midi": 65,
                    "time": 153.35735800000137,
                    "velocity": 0.31496062992125984,
                    "duration": 0.2845220000000097
                },
                {
                    "name": "A#4",
                    "midi": 70,
                    "time": 153.35735800000137,
                    "velocity": 0.3779527559055118,
                    "duration": 0.2845220000000097
                },
                {
                    "name": "A#3",
                    "midi": 58,
                    "time": 153.64188000000138,
                    "velocity": 0.29133858267716534,
                    "duration": 0.2845220000000097
                },
                {
                    "name": "F4",
                    "midi": 65,
                    "time": 153.64188000000138,
                    "velocity": 0.33070866141732286,
                    "duration": 0.2845220000000097
                },
                {
                    "name": "A#4",
                    "midi": 70,
                    "time": 153.64188000000138,
                    "velocity": 0.3937007874015748,
                    "duration": 0.2845220000000097
                },
                {
                    "name": "A3",
                    "midi": 57,
                    "time": 153.9264020000014,
                    "velocity": 0.2440944881889764,
                    "duration": 0.2845220000000097
                },
                {
                    "name": "F4",
                    "midi": 65,
                    "time": 153.9264020000014,
                    "velocity": 0.31496062992125984,
                    "duration": 0.2845220000000097
                },
                {
                    "name": "A4",
                    "midi": 69,
                    "time": 153.9264020000014,
                    "velocity": 0.3779527559055118,
                    "duration": 0.2845220000000097
                },
                {
                    "name": "A#3",
                    "midi": 58,
                    "time": 154.2109240000014,
                    "velocity": 0.29133858267716534,
                    "duration": 0.2845220000000097
                },
                {
                    "name": "F4",
                    "midi": 65,
                    "time": 154.2109240000014,
                    "velocity": 0.33070866141732286,
                    "duration": 0.2845220000000097
                },
                {
                    "name": "A#4",
                    "midi": 70,
                    "time": 154.2109240000014,
                    "velocity": 0.3937007874015748,
                    "duration": 0.2845220000000097
                },
                {
                    "name": "C4",
                    "midi": 60,
                    "time": 154.4954460000014,
                    "velocity": 0.28346456692913385,
                    "duration": 0.2845220000000097
                },
                {
                    "name": "F4",
                    "midi": 65,
                    "time": 154.4954460000014,
                    "velocity": 0.31496062992125984,
                    "duration": 0.2845220000000097
                },
                {
                    "name": "C5",
                    "midi": 72,
                    "time": 154.4954460000014,
                    "velocity": 0.3779527559055118,
                    "duration": 0.2845220000000097
                },
                {
                    "name": "D4",
                    "midi": 62,
                    "time": 154.77996800000142,
                    "velocity": 0.31496062992125984,
                    "duration": 0.8535660000000007
                },
                {
                    "name": "F4",
                    "midi": 65,
                    "time": 154.77996800000142,
                    "velocity": 0.3543307086614173,
                    "duration": 0.8535660000000007
                },
                {
                    "name": "D5",
                    "midi": 74,
                    "time": 154.77996800000142,
                    "velocity": 0.41732283464566927,
                    "duration": 0.8535660000000007
                },
                {
                    "name": "C4",
                    "midi": 60,
                    "time": 155.63353400000142,
                    "velocity": 0.29133858267716534,
                    "duration": 0.14226099999999064
                },
                {
                    "name": "F4",
                    "midi": 65,
                    "time": 155.63353400000142,
                    "velocity": 0.33070866141732286,
                    "duration": 0.14226099999999064
                },
                {
                    "name": "C5",
                    "midi": 72,
                    "time": 155.63353400000142,
                    "velocity": 0.3937007874015748,
                    "duration": 0.14226099999999064
                },
                {
                    "name": "A#3",
                    "midi": 58,
                    "time": 155.7757950000014,
                    "velocity": 0.2755905511811024,
                    "duration": 0.14226099999999064
                },
                {
                    "name": "F4",
                    "midi": 65,
                    "time": 155.7757950000014,
                    "velocity": 0.30708661417322836,
                    "duration": 0.14226099999999064
                },
                {
                    "name": "A#4",
                    "midi": 70,
                    "time": 155.7757950000014,
                    "velocity": 0.36220472440944884,
                    "duration": 0.14226099999999064
                },
                {
                    "name": "C4",
                    "midi": 60,
                    "time": 155.9180560000014,
                    "velocity": 0.2755905511811024,
                    "duration": 0.28155822916667717
                },
                {
                    "name": "F4",
                    "midi": 65,
                    "time": 155.9180560000014,
                    "velocity": 0.30708661417322836,
                    "duration": 0.28155822916667717
                },
                {
                    "name": "C5",
                    "midi": 72,
                    "time": 155.9180560000014,
                    "velocity": 0.3700787401574803,
                    "duration": 0.28155822916667717
                },
                {
                    "name": "C4",
                    "midi": 60,
                    "time": 156.2025780000014,
                    "velocity": 0.2677165354330709,
                    "duration": 0.28155822916667717
                },
                {
                    "name": "F4",
                    "midi": 65,
                    "time": 156.2025780000014,
                    "velocity": 0.2992125984251969,
                    "duration": 0.28155822916667717
                },
                {
                    "name": "C5",
                    "midi": 72,
                    "time": 156.2025780000014,
                    "velocity": 0.36220472440944884,
                    "duration": 0.28155822916667717
                },
                {
                    "name": "C4",
                    "midi": 60,
                    "time": 156.48710000000142,
                    "velocity": 0.2677165354330709,
                    "duration": 0.28155822916667717
                },
                {
                    "name": "F4",
                    "midi": 65,
                    "time": 156.48710000000142,
                    "velocity": 0.2992125984251969,
                    "duration": 0.28155822916667717
                },
                {
                    "name": "C5",
                    "midi": 72,
                    "time": 156.48710000000142,
                    "velocity": 0.36220472440944884,
                    "duration": 0.28155822916667717
                },
                {
                    "name": "A#3",
                    "midi": 58,
                    "time": 156.77162200000143,
                    "velocity": 0.29133858267716534,
                    "duration": 0.14226099999999064
                },
                {
                    "name": "F4",
                    "midi": 65,
                    "time": 156.77162200000143,
                    "velocity": 0.33070866141732286,
                    "duration": 0.14226099999999064
                },
                {
                    "name": "A#4",
                    "midi": 70,
                    "time": 156.77162200000143,
                    "velocity": 0.3937007874015748,
                    "duration": 0.14226099999999064
                },
                {
                    "name": "A3",
                    "midi": 57,
                    "time": 156.91388300000142,
                    "velocity": 0.23622047244094488,
                    "duration": 0.14226099999999064
                },
                {
                    "name": "F4",
                    "midi": 65,
                    "time": 156.91388300000142,
                    "velocity": 0.2992125984251969,
                    "duration": 0.14226099999999064
                },
                {
                    "name": "A4",
                    "midi": 69,
                    "time": 156.91388300000142,
                    "velocity": 0.3543307086614173,
                    "duration": 0.14226099999999064
                },
                {
                    "name": "F4",
                    "midi": 65,
                    "time": 157.0561440000014,
                    "velocity": 0.4094488188976378,
                    "duration": 0.2845220000000097
                },
                {
                    "name": "A#3",
                    "midi": 58,
                    "time": 157.0561440000014,
                    "velocity": 0.29133858267716534,
                    "duration": 0.8535660000000291
                },
                {
                    "name": "A#4",
                    "midi": 70,
                    "time": 157.0561440000014,
                    "velocity": 0.4094488188976378,
                    "duration": 0.8535660000000291
                },
                {
                    "name": "D#4",
                    "midi": 63,
                    "time": 157.34066600000142,
                    "velocity": 0.33070866141732286,
                    "duration": 0.2845220000000097
                },
                {
                    "name": "G4",
                    "midi": 67,
                    "time": 157.34066600000142,
                    "velocity": 0.3937007874015748,
                    "duration": 0.2845220000000097
                },
                {
                    "name": "D4",
                    "midi": 62,
                    "time": 157.62518800000143,
                    "velocity": 0.28346456692913385,
                    "duration": 0.2845220000000097
                },
                {
                    "name": "F4",
                    "midi": 65,
                    "time": 157.62518800000143,
                    "velocity": 0.3464566929133858,
                    "duration": 0.2845220000000097
                },
                {
                    "name": "D4",
                    "midi": 62,
                    "time": 157.90971000000144,
                    "velocity": 0.3543307086614173,
                    "duration": 0.2845220000000097
                },
                {
                    "name": "F4",
                    "midi": 65,
                    "time": 157.90971000000144,
                    "velocity": 0.4015748031496063,
                    "duration": 0.2845220000000097
                },
                {
                    "name": "D5",
                    "midi": 74,
                    "time": 157.90971000000144,
                    "velocity": 0.48031496062992124,
                    "duration": 0.2845220000000097
                },
                {
                    "name": "D4",
                    "midi": 62,
                    "time": 158.19423200000145,
                    "velocity": 0.3543307086614173,
                    "duration": 0.8535660000000007
                },
                {
                    "name": "G4",
                    "midi": 67,
                    "time": 158.19423200000145,
                    "velocity": 0.4015748031496063,
                    "duration": 0.8535660000000007
                },
                {
                    "name": "D5",
                    "midi": 74,
                    "time": 158.19423200000145,
                    "velocity": 0.47244094488188976,
                    "duration": 0.8535660000000007
                },
                {
                    "name": "C4",
                    "midi": 60,
                    "time": 159.04779800000145,
                    "velocity": 0.3228346456692913,
                    "duration": 0.14226099999999064
                },
                {
                    "name": "G4",
                    "midi": 67,
                    "time": 159.04779800000145,
                    "velocity": 0.36220472440944884,
                    "duration": 0.14226099999999064
                },
                {
                    "name": "C5",
                    "midi": 72,
                    "time": 159.04779800000145,
                    "velocity": 0.4330708661417323,
                    "duration": 0.14226099999999064
                },
                {
                    "name": "B3",
                    "midi": 59,
                    "time": 159.19005900000144,
                    "velocity": 0.29133858267716534,
                    "duration": 0.14226099999999064
                },
                {
                    "name": "G4",
                    "midi": 67,
                    "time": 159.19005900000144,
                    "velocity": 0.33070866141732286,
                    "duration": 0.14226099999999064
                },
                {
                    "name": "B4",
                    "midi": 71,
                    "time": 159.19005900000144,
                    "velocity": 0.3937007874015748,
                    "duration": 0.14226099999999064
                },
                {
                    "name": "D#4",
                    "midi": 63,
                    "time": 159.33232000000143,
                    "velocity": 0.41732283464566927,
                    "duration": 0.2845220000000097
                },
                {
                    "name": "G4",
                    "midi": 67,
                    "time": 159.33232000000143,
                    "velocity": 0.4251968503937008,
                    "duration": 0.2845220000000097
                },
                {
                    "name": "D#5",
                    "midi": 75,
                    "time": 159.33232000000143,
                    "velocity": 0.5118110236220472,
                    "duration": 0.2845220000000097
                },
                {
                    "name": "D4",
                    "midi": 62,
                    "time": 159.61684200000144,
                    "velocity": 0.3937007874015748,
                    "duration": 0.2845220000000097
                },
                {
                    "name": "G4",
                    "midi": 67,
                    "time": 159.61684200000144,
                    "velocity": 0.3937007874015748,
                    "duration": 0.2845220000000097
                },
                {
                    "name": "D5",
                    "midi": 74,
                    "time": 159.61684200000144,
                    "velocity": 0.4645669291338583,
                    "duration": 0.2845220000000097
                },
                {
                    "name": "C4",
                    "midi": 60,
                    "time": 159.90136400000145,
                    "velocity": 0.3779527559055118,
                    "duration": 0.2845220000000097
                },
                {
                    "name": "G4",
                    "midi": 67,
                    "time": 159.90136400000145,
                    "velocity": 0.3779527559055118,
                    "duration": 0.2845220000000097
                },
                {
                    "name": "C5",
                    "midi": 72,
                    "time": 159.90136400000145,
                    "velocity": 0.44881889763779526,
                    "duration": 0.2845220000000097
                },
                {
                    "name": "C4",
                    "midi": 60,
                    "time": 160.18588600000146,
                    "velocity": 0.3543307086614173,
                    "duration": 0.2845220000000097
                },
                {
                    "name": "A4",
                    "midi": 69,
                    "time": 160.18588600000146,
                    "velocity": 0.4015748031496063,
                    "duration": 0.2845220000000097
                },
                {
                    "name": "C5",
                    "midi": 72,
                    "time": 160.18588600000146,
                    "velocity": 0.48031496062992124,
                    "duration": 0.2845220000000097
                },
                {
                    "name": "F4",
                    "midi": 65,
                    "time": 160.47040800000147,
                    "velocity": 0.3543307086614173,
                    "duration": 0.8535660000000007
                },
                {
                    "name": "C4",
                    "midi": 60,
                    "time": 160.47040800000147,
                    "velocity": 0.3543307086614173,
                    "duration": 0.8535660000000007
                },
                {
                    "name": "A4",
                    "midi": 69,
                    "time": 160.47040800000147,
                    "velocity": 0.4015748031496063,
                    "duration": 0.8535660000000007
                },
                {
                    "name": "C5",
                    "midi": 72,
                    "time": 160.47040800000147,
                    "velocity": 0.47244094488188976,
                    "duration": 0.8535660000000007
                },
                {
                    "name": "A#3",
                    "midi": 58,
                    "time": 161.32397400000147,
                    "velocity": 0.3228346456692913,
                    "duration": 0.14226099999999064
                },
                {
                    "name": "F4",
                    "midi": 65,
                    "time": 161.32397400000147,
                    "velocity": 0.36220472440944884,
                    "duration": 0.14226099999999064
                },
                {
                    "name": "A#4",
                    "midi": 70,
                    "time": 161.32397400000147,
                    "velocity": 0.4330708661417323,
                    "duration": 0.14226099999999064
                },
                {
                    "name": "A3",
                    "midi": 57,
                    "time": 161.46623500000146,
                    "velocity": 0.29133858267716534,
                    "duration": 0.14226099999999064
                },
                {
                    "name": "F4",
                    "midi": 65,
                    "time": 161.46623500000146,
                    "velocity": 0.33070866141732286,
                    "duration": 0.14226099999999064
                },
                {
                    "name": "A4",
                    "midi": 69,
                    "time": 161.46623500000146,
                    "velocity": 0.3937007874015748,
                    "duration": 0.14226099999999064
                },
                {
                    "name": "D4",
                    "midi": 62,
                    "time": 161.60849600000145,
                    "velocity": 0.4015748031496063,
                    "duration": 0.2845220000000097
                },
                {
                    "name": "F4",
                    "midi": 65,
                    "time": 161.60849600000145,
                    "velocity": 0.4330708661417323,
                    "duration": 0.2845220000000097
                },
                {
                    "name": "D5",
                    "midi": 74,
                    "time": 161.60849600000145,
                    "velocity": 0.5118110236220472,
                    "duration": 0.2845220000000097
                },
                {
                    "name": "A3",
                    "midi": 57,
                    "time": 161.89301800000146,
                    "velocity": 0.3700787401574803,
                    "duration": 0.2845220000000097
                },
                {
                    "name": "F4",
                    "midi": 65,
                    "time": 161.89301800000146,
                    "velocity": 0.3700787401574803,
                    "duration": 0.2845220000000097
                },
                {
                    "name": "A4",
                    "midi": 69,
                    "time": 161.89301800000146,
                    "velocity": 0.4409448818897638,
                    "duration": 0.2845220000000097
                },
                {
                    "name": "A#3",
                    "midi": 58,
                    "time": 162.17754000000147,
                    "velocity": 0.3937007874015748,
                    "duration": 0.2845220000000097
                },
                {
                    "name": "F4",
                    "midi": 65,
                    "time": 162.17754000000147,
                    "velocity": 0.3937007874015748,
                    "duration": 0.2845220000000097
                },
                {
                    "name": "A#4",
                    "midi": 70,
                    "time": 162.17754000000147,
                    "velocity": 0.4645669291338583,
                    "duration": 0.2845220000000097
                },
                {
                    "name": "F4",
                    "midi": 65,
                    "time": 162.46206200000148,
                    "velocity": 0.3543307086614173,
                    "duration": 0.2845220000000097
                },
                {
                    "name": "C4",
                    "midi": 60,
                    "time": 162.46206200000148,
                    "velocity": 0.31496062992125984,
                    "duration": 0.2845220000000097
                },
                {
                    "name": "A4",
                    "midi": 69,
                    "time": 162.46206200000148,
                    "velocity": 0.3543307086614173,
                    "duration": 0.2845220000000097
                },
                {
                    "name": "C5",
                    "midi": 72,
                    "time": 162.46206200000148,
                    "velocity": 0.4251968503937008,
                    "duration": 0.2845220000000097
                },
                {
                    "name": "F4",
                    "midi": 65,
                    "time": 162.7465840000015,
                    "velocity": 0.31496062992125984,
                    "duration": 0.7113049999999816
                },
                {
                    "name": "C4",
                    "midi": 60,
                    "time": 162.7465840000015,
                    "velocity": 0.31496062992125984,
                    "duration": 0.569043999999991
                },
                {
                    "name": "A4",
                    "midi": 69,
                    "time": 162.7465840000015,
                    "velocity": 0.3543307086614173,
                    "duration": 0.569043999999991
                },
                {
                    "name": "C5",
                    "midi": 72,
                    "time": 162.7465840000015,
                    "velocity": 0.4251968503937008,
                    "duration": 0.569043999999991
                },
                {
                    "name": "A#3",
                    "midi": 58,
                    "time": 163.31562800000148,
                    "velocity": 0.3779527559055118,
                    "duration": 0.14226099999999064
                },
                {
                    "name": "A#4",
                    "midi": 70,
                    "time": 163.31562800000148,
                    "velocity": 0.3779527559055118,
                    "duration": 0.14226099999999064
                },
                {
                    "name": "A#4",
                    "midi": 70,
                    "time": 164.73823800000147,
                    "velocity": 0.4015748031496063,
                    "duration": 0.2845220000000097
                },
                {
                    "name": "A#4",
                    "midi": 70,
                    "time": 165.02276000000148,
                    "velocity": 0.4094488188976378,
                    "duration": 0.2845220000000097
                },
                {
                    "name": "G#4",
                    "midi": 68,
                    "time": 165.3072820000015,
                    "velocity": 0.4015748031496063,
                    "duration": 0.2845220000000097
                },
                {
                    "name": "A#4",
                    "midi": 70,
                    "time": 165.5918040000015,
                    "velocity": 0.4094488188976378,
                    "duration": 0.2845220000000097
                },
                {
                    "name": "B4",
                    "midi": 71,
                    "time": 165.8763260000015,
                    "velocity": 0.3937007874015748,
                    "duration": 0.2845220000000097
                },
                {
                    "name": "C#5",
                    "midi": 73,
                    "time": 166.16084800000152,
                    "velocity": 0.4094488188976378,
                    "duration": 0.8535660000000007
                },
                {
                    "name": "B4",
                    "midi": 71,
                    "time": 167.01441400000152,
                    "velocity": 0.4330708661417323,
                    "duration": 0.14226099999999064
                },
                {
                    "name": "A#4",
                    "midi": 70,
                    "time": 167.1566750000015,
                    "velocity": 0.4094488188976378,
                    "duration": 0.14226099999999064
                },
                {
                    "name": "D#5",
                    "midi": 75,
                    "time": 167.2989360000015,
                    "velocity": 0.4566929133858268,
                    "duration": 0.14226099999999064
                },
                {
                    "name": "D#5",
                    "midi": 75,
                    "time": 167.58345800000149,
                    "velocity": 0.4251968503937008,
                    "duration": 0.14226099999999064
                },
                {
                    "name": "D#5",
                    "midi": 75,
                    "time": 167.86798000000147,
                    "velocity": 0.4251968503937008,
                    "duration": 0.14226099999999064
                },
                {
                    "name": "F5",
                    "midi": 77,
                    "time": 168.15250200000145,
                    "velocity": 0.4409448818897638,
                    "duration": 0.14226099999999064
                },
                {
                    "name": "F#5",
                    "midi": 78,
                    "time": 168.29476300000144,
                    "velocity": 0.4015748031496063,
                    "duration": 0.14226099999999064
                },
                {
                    "name": "C#5",
                    "midi": 73,
                    "time": 168.43702400000143,
                    "velocity": 0.4251968503937008,
                    "duration": 0.8535660000000007
                },
                {
                    "name": "B4",
                    "midi": 71,
                    "time": 169.29059000000143,
                    "velocity": 0.4094488188976378,
                    "duration": 0.14226099999999064
                },
                {
                    "name": "A#4",
                    "midi": 70,
                    "time": 169.43285100000142,
                    "velocity": 0.4015748031496063,
                    "duration": 0.14226099999999064
                },
                {
                    "name": "B4",
                    "midi": 71,
                    "time": 169.5751120000014,
                    "velocity": 0.4094488188976378,
                    "duration": 0.2845220000000097
                },
                {
                    "name": "D#5",
                    "midi": 75,
                    "time": 169.85963400000142,
                    "velocity": 0.4094488188976378,
                    "duration": 0.2845220000000097
                },
                {
                    "name": "G#4",
                    "midi": 68,
                    "time": 170.14415600000143,
                    "velocity": 0.4094488188976378,
                    "duration": 0.2845220000000097
                },
                {
                    "name": "B4",
                    "midi": 71,
                    "time": 170.42867800000144,
                    "velocity": 0.4094488188976378,
                    "duration": 0.2845220000000097
                },
                {
                    "name": "A#4",
                    "midi": 70,
                    "time": 170.71320000000145,
                    "velocity": 0.4251968503937008,
                    "duration": 0.2845220000000097
                },
                {
                    "name": "F#4",
                    "midi": 66,
                    "time": 170.99772200000146,
                    "velocity": 0.4015748031496063,
                    "duration": 0.42678300000000036
                },
                {
                    "name": "F#5",
                    "midi": 78,
                    "time": 170.99772200000146,
                    "velocity": 0.48031496062992124,
                    "duration": 0.42678300000000036
                },
                {
                    "name": "F4",
                    "midi": 65,
                    "time": 171.42450500000146,
                    "velocity": 0.3543307086614173,
                    "duration": 0.14226099999999064
                },
                {
                    "name": "F5",
                    "midi": 77,
                    "time": 171.42450500000146,
                    "velocity": 0.41732283464566927,
                    "duration": 0.14226099999999064
                },
                {
                    "name": "D#4",
                    "midi": 63,
                    "time": 171.56676600000145,
                    "velocity": 0.3700787401574803,
                    "duration": 0.14226099999999064
                },
                {
                    "name": "D#5",
                    "midi": 75,
                    "time": 171.56676600000145,
                    "velocity": 0.4409448818897638,
                    "duration": 0.14226099999999064
                },
                {
                    "name": "C#4",
                    "midi": 61,
                    "time": 171.70902700000144,
                    "velocity": 0.33858267716535434,
                    "duration": 0.14226099999999064
                },
                {
                    "name": "C#5",
                    "midi": 73,
                    "time": 171.70902700000144,
                    "velocity": 0.4015748031496063,
                    "duration": 0.14226099999999064
                },
                {
                    "name": "B3",
                    "midi": 59,
                    "time": 171.85128800000143,
                    "velocity": 0.36220472440944884,
                    "duration": 0.2845220000000097
                },
                {
                    "name": "B4",
                    "midi": 71,
                    "time": 171.85128800000143,
                    "velocity": 0.4251968503937008,
                    "duration": 0.2845220000000097
                },
                {
                    "name": "D#5",
                    "midi": 75,
                    "time": 172.13581000000144,
                    "velocity": 0.4409448818897638,
                    "duration": 0.2845220000000097
                },
                {
                    "name": "G#4",
                    "midi": 68,
                    "time": 172.42033200000145,
                    "velocity": 0.4251968503937008,
                    "duration": 0.2845220000000097
                },
                {
                    "name": "A#4",
                    "midi": 70,
                    "time": 172.70485400000146,
                    "velocity": 0.4094488188976378,
                    "duration": 0.14226099999999064
                },
                {
                    "name": "B4",
                    "midi": 71,
                    "time": 172.84711500000145,
                    "velocity": 0.4094488188976378,
                    "duration": 0.14226099999999064
                },
                {
                    "name": "A#4",
                    "midi": 70,
                    "time": 172.98937600000144,
                    "velocity": 0.4330708661417323,
                    "duration": 0.14226099999999064
                },
                {
                    "name": "C#5",
                    "midi": 73,
                    "time": 173.13163700000143,
                    "velocity": 0.4094488188976378,
                    "duration": 0.14226099999999064
                },
                {
                    "name": "A#5",
                    "midi": 82,
                    "time": 173.27389800000142,
                    "velocity": 0.4409448818897638,
                    "duration": 0.14226099999999064
                },
                {
                    "name": "F#5",
                    "midi": 78,
                    "time": 173.41615900000141,
                    "velocity": 0.4094488188976378,
                    "duration": 0.14226099999999064
                },
                {
                    "name": "C#5",
                    "midi": 73,
                    "time": 173.5584200000014,
                    "velocity": 0.4409448818897638,
                    "duration": 0.14226099999999064
                },
                {
                    "name": "A#4",
                    "midi": 70,
                    "time": 173.7006810000014,
                    "velocity": 0.4094488188976378,
                    "duration": 0.14226099999999064
                },
                {
                    "name": "F#5",
                    "midi": 78,
                    "time": 173.8429420000014,
                    "velocity": 0.4330708661417323,
                    "duration": 0.14226099999999064
                },
                {
                    "name": "D5",
                    "midi": 74,
                    "time": 173.98520300000138,
                    "velocity": 0.4094488188976378,
                    "duration": 0.14226099999999064
                },
                {
                    "name": "D#5",
                    "midi": 75,
                    "time": 174.12746400000137,
                    "velocity": 0.4330708661417323,
                    "duration": 0.14226099999999064
                },
                {
                    "name": "B4",
                    "midi": 71,
                    "time": 174.26972500000136,
                    "velocity": 0.4094488188976378,
                    "duration": 0.14226099999999064
                },
                {
                    "name": "B5",
                    "midi": 83,
                    "time": 174.41198600000135,
                    "velocity": 0.4409448818897638,
                    "duration": 0.14226099999999064
                },
                {
                    "name": "G#5",
                    "midi": 80,
                    "time": 174.55424700000134,
                    "velocity": 0.4251968503937008,
                    "duration": 0.14226099999999064
                },
                {
                    "name": "F5",
                    "midi": 77,
                    "time": 174.69650800000133,
                    "velocity": 0.4566929133858268,
                    "duration": 0.14226099999999064
                },
                {
                    "name": "G#5",
                    "midi": 80,
                    "time": 174.83876900000132,
                    "velocity": 0.4409448818897638,
                    "duration": 0.14226099999999064
                },
                {
                    "name": "C#6",
                    "midi": 85,
                    "time": 174.9810300000013,
                    "velocity": 0.4566929133858268,
                    "duration": 0.14226099999999064
                },
                {
                    "name": "A5",
                    "midi": 81,
                    "time": 175.1232910000013,
                    "velocity": 0.4251968503937008,
                    "duration": 0.14226099999999064
                },
                {
                    "name": "A#5",
                    "midi": 82,
                    "time": 175.2655520000013,
                    "velocity": 0.44881889763779526,
                    "duration": 0.14226099999999064
                },
                {
                    "name": "F#5",
                    "midi": 78,
                    "time": 175.40781300000128,
                    "velocity": 0.4251968503937008,
                    "duration": 0.14226099999999064
                },
                {
                    "name": "A#5",
                    "midi": 82,
                    "time": 175.55007400000127,
                    "velocity": 0.44881889763779526,
                    "duration": 0.07113050000000953
                },
                {
                    "name": "F#5",
                    "midi": 78,
                    "time": 175.62120450000128,
                    "velocity": 0.4015748031496063,
                    "duration": 0.07113050000000953
                },
                {
                    "name": "A#5",
                    "midi": 82,
                    "time": 175.6923350000013,
                    "velocity": 0.4409448818897638,
                    "duration": 0.07113050000000953
                },
                {
                    "name": "F#5",
                    "midi": 78,
                    "time": 175.7634655000013,
                    "velocity": 0.3937007874015748,
                    "duration": 0.07113050000000953
                },
                {
                    "name": "C#5",
                    "midi": 73,
                    "time": 175.8345960000013,
                    "velocity": 0.4409448818897638,
                    "duration": 0.07113050000000953
                },
                {
                    "name": "A#4",
                    "midi": 70,
                    "time": 175.90572650000132,
                    "velocity": 0.4094488188976378,
                    "duration": 0.07113050000000953
                },
                {
                    "name": "C#5",
                    "midi": 73,
                    "time": 175.97685700000133,
                    "velocity": 0.4409448818897638,
                    "duration": 0.07113050000000953
                },
                {
                    "name": "A#4",
                    "midi": 70,
                    "time": 176.04798750000134,
                    "velocity": 0.41732283464566927,
                    "duration": 0.07113050000000953
                },
                {
                    "name": "F#5",
                    "midi": 78,
                    "time": 176.11911800000135,
                    "velocity": 0.4566929133858268,
                    "duration": 0.07113050000000953
                },
                {
                    "name": "D5",
                    "midi": 74,
                    "time": 176.19024850000136,
                    "velocity": 0.41732283464566927,
                    "duration": 0.07113050000000953
                },
                {
                    "name": "F#5",
                    "midi": 78,
                    "time": 176.26137900000137,
                    "velocity": 0.44881889763779526,
                    "duration": 0.07113050000000953
                },
                {
                    "name": "D5",
                    "midi": 74,
                    "time": 176.33250950000138,
                    "velocity": 0.4094488188976378,
                    "duration": 0.07113050000000953
                },
                {
                    "name": "D#5",
                    "midi": 75,
                    "time": 176.4036400000014,
                    "velocity": 0.44881889763779526,
                    "duration": 0.07113050000000953
                },
                {
                    "name": "B4",
                    "midi": 71,
                    "time": 176.4747705000014,
                    "velocity": 0.4094488188976378,
                    "duration": 0.07113050000000953
                },
                {
                    "name": "D#5",
                    "midi": 75,
                    "time": 176.5459010000014,
                    "velocity": 0.4251968503937008,
                    "duration": 0.07113050000000953
                },
                {
                    "name": "B4",
                    "midi": 71,
                    "time": 176.61703150000142,
                    "velocity": 0.4094488188976378,
                    "duration": 0.07113050000000953
                },
                {
                    "name": "B5",
                    "midi": 83,
                    "time": 176.68816200000143,
                    "velocity": 0.44881889763779526,
                    "duration": 0.07113050000000953
                },
                {
                    "name": "G#5",
                    "midi": 80,
                    "time": 176.75929250000144,
                    "velocity": 0.4015748031496063,
                    "duration": 0.07113050000000953
                },
                {
                    "name": "B5",
                    "midi": 83,
                    "time": 176.83042300000145,
                    "velocity": 0.4409448818897638,
                    "duration": 0.07113050000000953
                },
                {
                    "name": "G#5",
                    "midi": 80,
                    "time": 176.90155350000146,
                    "velocity": 0.3937007874015748,
                    "duration": 0.07113050000000953
                },
                {
                    "name": "F5",
                    "midi": 77,
                    "time": 176.97268400000146,
                    "velocity": 0.4409448818897638,
                    "duration": 0.07113050000000953
                },
                {
                    "name": "G#5",
                    "midi": 80,
                    "time": 177.04381450000147,
                    "velocity": 0.4094488188976378,
                    "duration": 0.07113050000000953
                },
                {
                    "name": "F5",
                    "midi": 77,
                    "time": 177.11494500000148,
                    "velocity": 0.4409448818897638,
                    "duration": 0.07113050000000953
                },
                {
                    "name": "G#5",
                    "midi": 80,
                    "time": 177.1860755000015,
                    "velocity": 0.41732283464566927,
                    "duration": 0.07113050000000953
                },
                {
                    "name": "C#6",
                    "midi": 85,
                    "time": 177.2572060000015,
                    "velocity": 0.4566929133858268,
                    "duration": 0.07113050000000953
                },
                {
                    "name": "A5",
                    "midi": 81,
                    "time": 177.3283365000015,
                    "velocity": 0.41732283464566927,
                    "duration": 0.07113050000000953
                },
                {
                    "name": "C#6",
                    "midi": 85,
                    "time": 177.39946700000152,
                    "velocity": 0.44881889763779526,
                    "duration": 0.07113050000000953
                },
                {
                    "name": "A5",
                    "midi": 81,
                    "time": 177.47059750000153,
                    "velocity": 0.4094488188976378,
                    "duration": 0.07113050000000953
                },
                {
                    "name": "A#5",
                    "midi": 82,
                    "time": 177.54172800000154,
                    "velocity": 0.44881889763779526,
                    "duration": 0.07113050000000953
                },
                {
                    "name": "A5",
                    "midi": 81,
                    "time": 177.61285850000155,
                    "velocity": 0.41732283464566927,
                    "duration": 0.07113050000000953
                },
                {
                    "name": "A#5",
                    "midi": 82,
                    "time": 177.68398900000156,
                    "velocity": 0.4094488188976378,
                    "duration": 0.07113050000000953
                },
                {
                    "name": "F5",
                    "midi": 77,
                    "time": 177.75511950000157,
                    "velocity": 0.4094488188976378,
                    "duration": 0.07113050000000953
                },
                {
                    "name": "F#5",
                    "midi": 78,
                    "time": 177.82625000000158,
                    "velocity": 0.44881889763779526,
                    "duration": 0.07113050000000953
                },
                {
                    "name": "F5",
                    "midi": 77,
                    "time": 177.8973805000016,
                    "velocity": 0.4015748031496063,
                    "duration": 0.07113050000000953
                },
                {
                    "name": "F#5",
                    "midi": 78,
                    "time": 177.9685110000016,
                    "velocity": 0.4015748031496063,
                    "duration": 0.07113050000000953
                },
                {
                    "name": "C5",
                    "midi": 72,
                    "time": 178.0396415000016,
                    "velocity": 0.3937007874015748,
                    "duration": 0.07113050000000953
                },
                {
                    "name": "C#5",
                    "midi": 73,
                    "time": 178.11077200000162,
                    "velocity": 0.4330708661417323,
                    "duration": 0.07113050000000953
                },
                {
                    "name": "C5",
                    "midi": 72,
                    "time": 178.18190250000163,
                    "velocity": 0.4015748031496063,
                    "duration": 0.07113050000000953
                },
                {
                    "name": "C#5",
                    "midi": 73,
                    "time": 178.25303300000164,
                    "velocity": 0.4015748031496063,
                    "duration": 0.07113050000000953
                },
                {
                    "name": "A4",
                    "midi": 69,
                    "time": 178.32416350000165,
                    "velocity": 0.4015748031496063,
                    "duration": 0.07113050000000953
                },
                {
                    "name": "A#4",
                    "midi": 70,
                    "time": 178.39529400000166,
                    "velocity": 0.4251968503937008,
                    "duration": 0.07113050000000953
                },
                {
                    "name": "A4",
                    "midi": 69,
                    "time": 178.46642450000166,
                    "velocity": 0.3700787401574803,
                    "duration": 0.07113050000000953
                },
                {
                    "name": "A#4",
                    "midi": 70,
                    "time": 178.53755500000167,
                    "velocity": 0.3858267716535433,
                    "duration": 0.07113050000000953
                },
                {
                    "name": "F4",
                    "midi": 65,
                    "time": 178.60868550000168,
                    "velocity": 0.3700787401574803,
                    "duration": 0.07113050000000953
                },
                {
                    "name": "F#4",
                    "midi": 66,
                    "time": 178.6798160000017,
                    "velocity": 0.44881889763779526,
                    "duration": 0.07113050000000953
                },
                {
                    "name": "A5",
                    "midi": 81,
                    "time": 178.7509465000017,
                    "velocity": 0.41732283464566927,
                    "duration": 0.07113050000000953
                },
                {
                    "name": "A#5",
                    "midi": 82,
                    "time": 178.8220770000017,
                    "velocity": 0.4094488188976378,
                    "duration": 0.07113050000000953
                },
                {
                    "name": "F5",
                    "midi": 77,
                    "time": 178.89320750000172,
                    "velocity": 0.4094488188976378,
                    "duration": 0.07113050000000953
                },
                {
                    "name": "F#5",
                    "midi": 78,
                    "time": 178.96433800000173,
                    "velocity": 0.44881889763779526,
                    "duration": 0.07113050000000953
                },
                {
                    "name": "F5",
                    "midi": 77,
                    "time": 179.03546850000174,
                    "velocity": 0.4015748031496063,
                    "duration": 0.07113050000000953
                },
                {
                    "name": "F#5",
                    "midi": 78,
                    "time": 179.10659900000175,
                    "velocity": 0.4015748031496063,
                    "duration": 0.07113050000000953
                },
                {
                    "name": "C5",
                    "midi": 72,
                    "time": 179.17772950000176,
                    "velocity": 0.3937007874015748,
                    "duration": 0.07113050000000953
                },
                {
                    "name": "C#5",
                    "midi": 73,
                    "time": 179.24886000000177,
                    "velocity": 0.4330708661417323,
                    "duration": 0.07113050000000953
                },
                {
                    "name": "C5",
                    "midi": 72,
                    "time": 179.31999050000178,
                    "velocity": 0.4015748031496063,
                    "duration": 0.07113050000000953
                },
                {
                    "name": "C#5",
                    "midi": 73,
                    "time": 179.3911210000018,
                    "velocity": 0.4015748031496063,
                    "duration": 0.07113050000000953
                },
                {
                    "name": "A4",
                    "midi": 69,
                    "time": 179.4622515000018,
                    "velocity": 0.4015748031496063,
                    "duration": 0.07113050000000953
                },
                {
                    "name": "A#4",
                    "midi": 70,
                    "time": 179.5333820000018,
                    "velocity": 0.4251968503937008,
                    "duration": 0.07113050000000953
                },
                {
                    "name": "A4",
                    "midi": 69,
                    "time": 179.60451250000182,
                    "velocity": 0.3700787401574803,
                    "duration": 0.07113050000000953
                },
                {
                    "name": "A#4",
                    "midi": 70,
                    "time": 179.67564300000183,
                    "velocity": 0.3858267716535433,
                    "duration": 0.07113050000000953
                },
                {
                    "name": "F4",
                    "midi": 65,
                    "time": 179.74677350000184,
                    "velocity": 0.3700787401574803,
                    "duration": 0.07113050000000953
                },
                {
                    "name": "F#4",
                    "midi": 66,
                    "time": 179.81790400000185,
                    "velocity": 0.41732283464566927,
                    "duration": 0.07113050000000953
                },
                {
                    "name": "F4",
                    "midi": 65,
                    "time": 179.88903450000186,
                    "velocity": 0.3858267716535433,
                    "duration": 0.07113050000000953
                },
                {
                    "name": "F#4",
                    "midi": 66,
                    "time": 179.96016500000187,
                    "velocity": 0.3858267716535433,
                    "duration": 0.07113050000000953
                },
                {
                    "name": "G#4",
                    "midi": 68,
                    "time": 180.03129550000187,
                    "velocity": 0.3858267716535433,
                    "duration": 0.07113050000000953
                },
                {
                    "name": "A#4",
                    "midi": 70,
                    "time": 180.10242600000188,
                    "velocity": 0.4330708661417323,
                    "duration": 0.07113050000000953
                },
                {
                    "name": "B4",
                    "midi": 71,
                    "time": 180.1735565000019,
                    "velocity": 0.3858267716535433,
                    "duration": 0.07113050000000953
                },
                {
                    "name": "A#4",
                    "midi": 70,
                    "time": 180.2446870000019,
                    "velocity": 0.3858267716535433,
                    "duration": 0.07113050000000953
                },
                {
                    "name": "G#4",
                    "midi": 68,
                    "time": 180.3158175000019,
                    "velocity": 0.3858267716535433,
                    "duration": 0.07113050000000953
                },
                {
                    "name": "F#4",
                    "midi": 66,
                    "time": 180.38694800000192,
                    "velocity": 0.4330708661417323,
                    "duration": 0.07113050000000953
                },
                {
                    "name": "G#4",
                    "midi": 68,
                    "time": 180.45807850000193,
                    "velocity": 0.3937007874015748,
                    "duration": 0.07113050000000953
                },
                {
                    "name": "A#4",
                    "midi": 70,
                    "time": 180.52920900000194,
                    "velocity": 0.3937007874015748,
                    "duration": 0.07113050000000953
                },
                {
                    "name": "G#4",
                    "midi": 68,
                    "time": 180.60033950000195,
                    "velocity": 0.3937007874015748,
                    "duration": 0.07113050000000953
                },
                {
                    "name": "F#4",
                    "midi": 66,
                    "time": 180.67147000000196,
                    "velocity": 0.4330708661417323,
                    "duration": 0.07113050000000953
                },
                {
                    "name": "G#4",
                    "midi": 68,
                    "time": 180.74260050000197,
                    "velocity": 0.3937007874015748,
                    "duration": 0.07113050000000953
                },
                {
                    "name": "F#4",
                    "midi": 66,
                    "time": 180.81373100000198,
                    "velocity": 0.4094488188976378,
                    "duration": 0.07113050000000953
                },
                {
                    "name": "F4",
                    "midi": 65,
                    "time": 180.884861500002,
                    "velocity": 0.4015748031496063,
                    "duration": 0.07113050000000953
                },
                {
                    "name": "E4",
                    "midi": 64,
                    "time": 180.955992000002,
                    "velocity": 0.44881889763779526,
                    "duration": 0.0948406666666699
                },
                {
                    "name": "A#4",
                    "midi": 70,
                    "time": 181.05083266666867,
                    "velocity": 0.4094488188976378,
                    "duration": 0.09009863333332646
                },
                {
                    "name": "A#3",
                    "midi": 58,
                    "time": 181.14567333333534,
                    "velocity": 0.3543307086614173,
                    "duration": 0.09009863333332646
                },
                {
                    "name": "E4",
                    "midi": 64,
                    "time": 181.14567333333534,
                    "velocity": 0.3543307086614173,
                    "duration": 0.09009863333332646
                },
                {
                    "name": "A#4",
                    "midi": 70,
                    "time": 181.14567333333534,
                    "velocity": 0.4251968503937008,
                    "duration": 0.09009863333332646
                },
                {
                    "name": "A#3",
                    "midi": 58,
                    "time": 181.240514000002,
                    "velocity": 0.3937007874015748,
                    "duration": 0.09009863333332646
                },
                {
                    "name": "E4",
                    "midi": 64,
                    "time": 181.240514000002,
                    "velocity": 0.3937007874015748,
                    "duration": 0.09009863333332646
                },
                {
                    "name": "A#4",
                    "midi": 70,
                    "time": 181.240514000002,
                    "velocity": 0.4645669291338583,
                    "duration": 0.09009863333332646
                },
                {
                    "name": "A#3",
                    "midi": 58,
                    "time": 181.33535466666868,
                    "velocity": 0.3700787401574803,
                    "duration": 0.09009863333332646
                },
                {
                    "name": "E4",
                    "midi": 64,
                    "time": 181.33535466666868,
                    "velocity": 0.3700787401574803,
                    "duration": 0.09009863333332646
                },
                {
                    "name": "A#4",
                    "midi": 70,
                    "time": 181.33535466666868,
                    "velocity": 0.4409448818897638,
                    "duration": 0.09009863333332646
                },
                {
                    "name": "A#3",
                    "midi": 58,
                    "time": 181.43019533333535,
                    "velocity": 0.3779527559055118,
                    "duration": 0.09009863333332646
                },
                {
                    "name": "E4",
                    "midi": 64,
                    "time": 181.43019533333535,
                    "velocity": 0.3779527559055118,
                    "duration": 0.09009863333332646
                },
                {
                    "name": "A#4",
                    "midi": 70,
                    "time": 181.43019533333535,
                    "velocity": 0.44881889763779526,
                    "duration": 0.09009863333332646
                },
                {
                    "name": "A#3",
                    "midi": 58,
                    "time": 181.52503600000202,
                    "velocity": 0.4094488188976378,
                    "duration": 0.09009863333332646
                },
                {
                    "name": "E4",
                    "midi": 64,
                    "time": 181.52503600000202,
                    "velocity": 0.4094488188976378,
                    "duration": 0.09009863333332646
                },
                {
                    "name": "A#4",
                    "midi": 70,
                    "time": 181.52503600000202,
                    "velocity": 0.4881889763779528,
                    "duration": 0.09009863333332646
                },
                {
                    "name": "A#3",
                    "midi": 58,
                    "time": 181.6198766666687,
                    "velocity": 0.3700787401574803,
                    "duration": 0.09009863333332646
                },
                {
                    "name": "E4",
                    "midi": 64,
                    "time": 181.6198766666687,
                    "velocity": 0.3700787401574803,
                    "duration": 0.09009863333332646
                },
                {
                    "name": "A#4",
                    "midi": 70,
                    "time": 181.6198766666687,
                    "velocity": 0.4409448818897638,
                    "duration": 0.09009863333332646
                },
                {
                    "name": "A#3",
                    "midi": 58,
                    "time": 181.71471733333536,
                    "velocity": 0.3700787401574803,
                    "duration": 0.09009863333332646
                },
                {
                    "name": "E4",
                    "midi": 64,
                    "time": 181.71471733333536,
                    "velocity": 0.3700787401574803,
                    "duration": 0.09009863333332646
                },
                {
                    "name": "A#4",
                    "midi": 70,
                    "time": 181.71471733333536,
                    "velocity": 0.44881889763779526,
                    "duration": 0.09009863333332646
                },
                {
                    "name": "A#3",
                    "midi": 58,
                    "time": 181.80955800000203,
                    "velocity": 0.4330708661417323,
                    "duration": 0.09009863333332646
                },
                {
                    "name": "E4",
                    "midi": 64,
                    "time": 181.80955800000203,
                    "velocity": 0.4330708661417323,
                    "duration": 0.09009863333332646
                },
                {
                    "name": "A#4",
                    "midi": 70,
                    "time": 181.80955800000203,
                    "velocity": 0.5118110236220472,
                    "duration": 0.09009863333332646
                },
                {
                    "name": "A#3",
                    "midi": 58,
                    "time": 181.9043986666687,
                    "velocity": 0.4015748031496063,
                    "duration": 0.09009863333332646
                },
                {
                    "name": "E4",
                    "midi": 64,
                    "time": 181.9043986666687,
                    "velocity": 0.4015748031496063,
                    "duration": 0.09009863333332646
                },
                {
                    "name": "A#4",
                    "midi": 70,
                    "time": 181.9043986666687,
                    "velocity": 0.48031496062992124,
                    "duration": 0.09009863333332646
                },
                {
                    "name": "A#3",
                    "midi": 58,
                    "time": 181.99923933333537,
                    "velocity": 0.4094488188976378,
                    "duration": 0.09009863333332646
                },
                {
                    "name": "E4",
                    "midi": 64,
                    "time": 181.99923933333537,
                    "velocity": 0.4094488188976378,
                    "duration": 0.09009863333332646
                },
                {
                    "name": "A#4",
                    "midi": 70,
                    "time": 181.99923933333537,
                    "velocity": 0.4881889763779528,
                    "duration": 0.09009863333332646
                },
                {
                    "name": "A#3",
                    "midi": 58,
                    "time": 182.09408000000204,
                    "velocity": 0.44881889763779526,
                    "duration": 0.09009863333332646
                },
                {
                    "name": "E4",
                    "midi": 64,
                    "time": 182.09408000000204,
                    "velocity": 0.44881889763779526,
                    "duration": 0.09009863333332646
                },
                {
                    "name": "A#4",
                    "midi": 70,
                    "time": 182.09408000000204,
                    "velocity": 0.5275590551181102,
                    "duration": 0.09009863333332646
                },
                {
                    "name": "A#3",
                    "midi": 58,
                    "time": 182.1889206666687,
                    "velocity": 0.41732283464566927,
                    "duration": 0.09009863333332646
                },
                {
                    "name": "E4",
                    "midi": 64,
                    "time": 182.1889206666687,
                    "velocity": 0.41732283464566927,
                    "duration": 0.09009863333332646
                },
                {
                    "name": "A#4",
                    "midi": 70,
                    "time": 182.1889206666687,
                    "velocity": 0.5039370078740157,
                    "duration": 0.09009863333332646
                },
                {
                    "name": "A#3",
                    "midi": 58,
                    "time": 182.28376133333538,
                    "velocity": 0.4330708661417323,
                    "duration": 0.09009863333332646
                },
                {
                    "name": "E4",
                    "midi": 64,
                    "time": 182.28376133333538,
                    "velocity": 0.4330708661417323,
                    "duration": 0.09009863333332646
                },
                {
                    "name": "A#4",
                    "midi": 70,
                    "time": 182.28376133333538,
                    "velocity": 0.5118110236220472,
                    "duration": 0.09009863333332646
                },
                {
                    "name": "A#3",
                    "midi": 58,
                    "time": 182.37860200000205,
                    "velocity": 0.4645669291338583,
                    "duration": 0.09009863333332646
                },
                {
                    "name": "E4",
                    "midi": 64,
                    "time": 182.37860200000205,
                    "velocity": 0.4645669291338583,
                    "duration": 0.09009863333332646
                },
                {
                    "name": "A#4",
                    "midi": 70,
                    "time": 182.37860200000205,
                    "velocity": 0.5590551181102362,
                    "duration": 0.09009863333332646
                },
                {
                    "name": "A#3",
                    "midi": 58,
                    "time": 182.47344266666872,
                    "velocity": 0.4409448818897638,
                    "duration": 0.09009863333332646
                },
                {
                    "name": "E4",
                    "midi": 64,
                    "time": 182.47344266666872,
                    "velocity": 0.4409448818897638,
                    "duration": 0.09009863333332646
                },
                {
                    "name": "A#4",
                    "midi": 70,
                    "time": 182.47344266666872,
                    "velocity": 0.5275590551181102,
                    "duration": 0.09009863333332646
                },
                {
                    "name": "A#3",
                    "midi": 58,
                    "time": 182.5682833333354,
                    "velocity": 0.44881889763779526,
                    "duration": 0.09009863333332646
                },
                {
                    "name": "E4",
                    "midi": 64,
                    "time": 182.5682833333354,
                    "velocity": 0.44881889763779526,
                    "duration": 0.09009863333332646
                },
                {
                    "name": "A#4",
                    "midi": 70,
                    "time": 182.5682833333354,
                    "velocity": 0.5433070866141733,
                    "duration": 0.09009863333332646
                },
                {
                    "name": "A#3",
                    "midi": 58,
                    "time": 182.66312400000206,
                    "velocity": 0.4881889763779528,
                    "duration": 0.09009863333332646
                },
                {
                    "name": "E4",
                    "midi": 64,
                    "time": 182.66312400000206,
                    "velocity": 0.4881889763779528,
                    "duration": 0.09009863333332646
                },
                {
                    "name": "A#4",
                    "midi": 70,
                    "time": 182.66312400000206,
                    "velocity": 0.5826771653543307,
                    "duration": 0.09009863333332646
                },
                {
                    "name": "A#3",
                    "midi": 58,
                    "time": 182.75796466666873,
                    "velocity": 0.4645669291338583,
                    "duration": 0.09009863333332646
                },
                {
                    "name": "E4",
                    "midi": 64,
                    "time": 182.75796466666873,
                    "velocity": 0.4645669291338583,
                    "duration": 0.09009863333332646
                },
                {
                    "name": "A#4",
                    "midi": 70,
                    "time": 182.75796466666873,
                    "velocity": 0.5590551181102362,
                    "duration": 0.09009863333332646
                },
                {
                    "name": "A#3",
                    "midi": 58,
                    "time": 182.8528053333354,
                    "velocity": 0.47244094488188976,
                    "duration": 0.09009863333332646
                },
                {
                    "name": "E4",
                    "midi": 64,
                    "time": 182.8528053333354,
                    "velocity": 0.47244094488188976,
                    "duration": 0.09009863333332646
                },
                {
                    "name": "A#4",
                    "midi": 70,
                    "time": 182.8528053333354,
                    "velocity": 0.5669291338582677,
                    "duration": 0.09009863333332646
                },
                {
                    "name": "F4",
                    "midi": 65,
                    "time": 182.94764600000207,
                    "velocity": 0.5669291338582677,
                    "duration": 0.09009863333332646
                },
                {
                    "name": "A#3",
                    "midi": 58,
                    "time": 182.94764600000207,
                    "velocity": 0.5669291338582677,
                    "duration": 0.09009863333332646
                },
                {
                    "name": "A#4",
                    "midi": 70,
                    "time": 182.94764600000207,
                    "velocity": 0.6692913385826772,
                    "duration": 0.09009863333332646
                },
                {
                    "name": "F4",
                    "midi": 65,
                    "time": 183.04248666666874,
                    "velocity": 0.5275590551181102,
                    "duration": 0.09009863333332646
                },
                {
                    "name": "A#3",
                    "midi": 58,
                    "time": 183.04248666666874,
                    "velocity": 0.5275590551181102,
                    "duration": 0.09009863333332646
                },
                {
                    "name": "A#4",
                    "midi": 70,
                    "time": 183.04248666666874,
                    "velocity": 0.6299212598425197,
                    "duration": 0.09009863333332646
                },
                {
                    "name": "F4",
                    "midi": 65,
                    "time": 183.1373273333354,
                    "velocity": 0.5275590551181102,
                    "duration": 0.09009863333332646
                },
                {
                    "name": "A#3",
                    "midi": 58,
                    "time": 183.1373273333354,
                    "velocity": 0.5275590551181102,
                    "duration": 0.09009863333332646
                },
                {
                    "name": "A#4",
                    "midi": 70,
                    "time": 183.1373273333354,
                    "velocity": 0.6299212598425197,
                    "duration": 0.09009863333332646
                },
                {
                    "name": "A#3",
                    "midi": 58,
                    "time": 183.23216800000208,
                    "velocity": 0.49606299212598426,
                    "duration": 0.2845220000000097
                },
                {
                    "name": "F4",
                    "midi": 65,
                    "time": 183.23216800000208,
                    "velocity": 0.6062992125984252,
                    "duration": 0.2845220000000097
                },
                {
                    "name": "A#4",
                    "midi": 70,
                    "time": 183.23216800000208,
                    "velocity": 0.7086614173228346,
                    "duration": 0.2845220000000097
                },
                {
                    "name": "A3",
                    "midi": 57,
                    "time": 183.5166900000021,
                    "velocity": 0.47244094488188976,
                    "duration": 0.2845220000000097
                },
                {
                    "name": "F4",
                    "midi": 65,
                    "time": 183.5166900000021,
                    "velocity": 0.5669291338582677,
                    "duration": 0.2845220000000097
                },
                {
                    "name": "A4",
                    "midi": 69,
                    "time": 183.5166900000021,
                    "velocity": 0.6692913385826772,
                    "duration": 0.2845220000000097
                },
                {
                    "name": "A#3",
                    "midi": 58,
                    "time": 183.8012120000021,
                    "velocity": 0.47244094488188976,
                    "duration": 0.2845220000000097
                },
                {
                    "name": "F4",
                    "midi": 65,
                    "time": 183.8012120000021,
                    "velocity": 0.5669291338582677,
                    "duration": 0.2845220000000097
                },
                {
                    "name": "A#4",
                    "midi": 70,
                    "time": 183.8012120000021,
                    "velocity": 0.6692913385826772,
                    "duration": 0.2845220000000097
                },
                {
                    "name": "C4",
                    "midi": 60,
                    "time": 184.0857340000021,
                    "velocity": 0.47244094488188976,
                    "duration": 0.2845220000000097
                },
                {
                    "name": "F4",
                    "midi": 65,
                    "time": 184.0857340000021,
                    "velocity": 0.5669291338582677,
                    "duration": 0.2845220000000097
                },
                {
                    "name": "C5",
                    "midi": 72,
                    "time": 184.0857340000021,
                    "velocity": 0.6692913385826772,
                    "duration": 0.2845220000000097
                },
                {
                    "name": "D4",
                    "midi": 62,
                    "time": 184.37025600000212,
                    "velocity": 0.5039370078740157,
                    "duration": 0.8535660000000007
                },
                {
                    "name": "F4",
                    "midi": 65,
                    "time": 184.37025600000212,
                    "velocity": 0.6141732283464567,
                    "duration": 0.8535660000000007
                },
                {
                    "name": "D5",
                    "midi": 74,
                    "time": 184.37025600000212,
                    "velocity": 0.7244094488188977,
                    "duration": 0.8535660000000007
                },
                {
                    "name": "C4",
                    "midi": 60,
                    "time": 185.22382200000212,
                    "velocity": 0.4881889763779528,
                    "duration": 0.14226099999999064
                },
                {
                    "name": "F4",
                    "midi": 65,
                    "time": 185.22382200000212,
                    "velocity": 0.5826771653543307,
                    "duration": 0.14226099999999064
                },
                {
                    "name": "C5",
                    "midi": 72,
                    "time": 185.22382200000212,
                    "velocity": 0.7007874015748031,
                    "duration": 0.14226099999999064
                },
                {
                    "name": "A#3",
                    "midi": 58,
                    "time": 185.3660830000021,
                    "velocity": 0.4566929133858268,
                    "duration": 0.14226099999999064
                },
                {
                    "name": "F4",
                    "midi": 65,
                    "time": 185.3660830000021,
                    "velocity": 0.5433070866141733,
                    "duration": 0.14226099999999064
                },
                {
                    "name": "A#4",
                    "midi": 70,
                    "time": 185.3660830000021,
                    "velocity": 0.6456692913385826,
                    "duration": 0.14226099999999064
                },
                {
                    "name": "C4",
                    "midi": 60,
                    "time": 185.5083440000021,
                    "velocity": 0.48031496062992124,
                    "duration": 0.28155822916667717
                },
                {
                    "name": "F4",
                    "midi": 65,
                    "time": 185.5083440000021,
                    "velocity": 0.5748031496062992,
                    "duration": 0.28155822916667717
                },
                {
                    "name": "C5",
                    "midi": 72,
                    "time": 185.5083440000021,
                    "velocity": 0.6929133858267716,
                    "duration": 0.28155822916667717
                },
                {
                    "name": "C4",
                    "midi": 60,
                    "time": 185.7928660000021,
                    "velocity": 0.4645669291338583,
                    "duration": 0.28155822916667717
                },
                {
                    "name": "F4",
                    "midi": 65,
                    "time": 185.7928660000021,
                    "velocity": 0.5590551181102362,
                    "duration": 0.28155822916667717
                },
                {
                    "name": "C5",
                    "midi": 72,
                    "time": 185.7928660000021,
                    "velocity": 0.6614173228346457,
                    "duration": 0.28155822916667717
                },
                {
                    "name": "C4",
                    "midi": 60,
                    "time": 186.07738800000212,
                    "velocity": 0.4645669291338583,
                    "duration": 0.28155822916667717
                },
                {
                    "name": "F4",
                    "midi": 65,
                    "time": 186.07738800000212,
                    "velocity": 0.5511811023622047,
                    "duration": 0.28155822916667717
                },
                {
                    "name": "C5",
                    "midi": 72,
                    "time": 186.07738800000212,
                    "velocity": 0.6535433070866141,
                    "duration": 0.28155822916667717
                },
                {
                    "name": "A#3",
                    "midi": 58,
                    "time": 186.36191000000213,
                    "velocity": 0.48031496062992124,
                    "duration": 0.14226099999999064
                },
                {
                    "name": "F4",
                    "midi": 65,
                    "time": 186.36191000000213,
                    "velocity": 0.5748031496062992,
                    "duration": 0.14226099999999064
                },
                {
                    "name": "A#4",
                    "midi": 70,
                    "time": 186.36191000000213,
                    "velocity": 0.6929133858267716,
                    "duration": 0.14226099999999064
                },
                {
                    "name": "A3",
                    "midi": 57,
                    "time": 186.50417100000212,
                    "velocity": 0.4566929133858268,
                    "duration": 0.14226099999999064
                },
                {
                    "name": "F4",
                    "midi": 65,
                    "time": 186.50417100000212,
                    "velocity": 0.5433070866141733,
                    "duration": 0.14226099999999064
                },
                {
                    "name": "A4",
                    "midi": 69,
                    "time": 186.50417100000212,
                    "velocity": 0.6456692913385826,
                    "duration": 0.14226099999999064
                },
                {
                    "name": "F4",
                    "midi": 65,
                    "time": 186.6464320000021,
                    "velocity": 0.6062992125984252,
                    "duration": 0.2845220000000097
                },
                {
                    "name": "A#3",
                    "midi": 58,
                    "time": 186.6464320000021,
                    "velocity": 0.5905511811023622,
                    "duration": 0.8535660000000291
                },
                {
                    "name": "A#4",
                    "midi": 70,
                    "time": 186.6464320000021,
                    "velocity": 0.7086614173228346,
                    "duration": 0.8535660000000291
                },
                {
                    "name": "D#4",
                    "midi": 63,
                    "time": 186.93095400000212,
                    "velocity": 0.5748031496062992,
                    "duration": 0.2845220000000097
                },
                {
                    "name": "G4",
                    "midi": 67,
                    "time": 186.93095400000212,
                    "velocity": 0.6929133858267716,
                    "duration": 0.2845220000000097
                },
                {
                    "name": "D4",
                    "midi": 62,
                    "time": 187.21547600000213,
                    "velocity": 0.5511811023622047,
                    "duration": 0.2845220000000097
                },
                {
                    "name": "F4",
                    "midi": 65,
                    "time": 187.21547600000213,
                    "velocity": 0.6535433070866141,
                    "duration": 0.2845220000000097
                },
                {
                    "name": "D4",
                    "midi": 62,
                    "time": 187.49999800000214,
                    "velocity": 0.5039370078740157,
                    "duration": 0.2845220000000097
                },
                {
                    "name": "F4",
                    "midi": 65,
                    "time": 187.49999800000214,
                    "velocity": 0.5905511811023622,
                    "duration": 0.2845220000000097
                },
                {
                    "name": "D5",
                    "midi": 74,
                    "time": 187.49999800000214,
                    "velocity": 0.7007874015748031,
                    "duration": 0.2845220000000097
                },
                {
                    "name": "D4",
                    "midi": 62,
                    "time": 187.78452000000215,
                    "velocity": 0.5039370078740157,
                    "duration": 0.8535660000000007
                },
                {
                    "name": "G4",
                    "midi": 67,
                    "time": 187.78452000000215,
                    "velocity": 0.5905511811023622,
                    "duration": 0.8535660000000007
                },
                {
                    "name": "D5",
                    "midi": 74,
                    "time": 187.78452000000215,
                    "velocity": 0.7007874015748031,
                    "duration": 0.8535660000000007
                },
                {
                    "name": "C4",
                    "midi": 60,
                    "time": 188.63808600000215,
                    "velocity": 0.4645669291338583,
                    "duration": 0.14226099999999064
                },
                {
                    "name": "G4",
                    "midi": 67,
                    "time": 188.63808600000215,
                    "velocity": 0.5590551181102362,
                    "duration": 0.14226099999999064
                },
                {
                    "name": "C5",
                    "midi": 72,
                    "time": 188.63808600000215,
                    "velocity": 0.6614173228346457,
                    "duration": 0.14226099999999064
                },
                {
                    "name": "B3",
                    "midi": 59,
                    "time": 188.78034700000214,
                    "velocity": 0.4409448818897638,
                    "duration": 0.14226099999999064
                },
                {
                    "name": "G4",
                    "midi": 67,
                    "time": 188.78034700000214,
                    "velocity": 0.5275590551181102,
                    "duration": 0.14226099999999064
                },
                {
                    "name": "B4",
                    "midi": 71,
                    "time": 188.78034700000214,
                    "velocity": 0.6220472440944882,
                    "duration": 0.14226099999999064
                },
                {
                    "name": "D#4",
                    "midi": 63,
                    "time": 188.92260800000213,
                    "velocity": 0.5275590551181102,
                    "duration": 0.2845220000000097
                },
                {
                    "name": "G4",
                    "midi": 67,
                    "time": 188.92260800000213,
                    "velocity": 0.6220472440944882,
                    "duration": 0.2845220000000097
                },
                {
                    "name": "D#5",
                    "midi": 75,
                    "time": 188.92260800000213,
                    "velocity": 0.7401574803149606,
                    "duration": 0.2845220000000097
                },
                {
                    "name": "D4",
                    "midi": 62,
                    "time": 189.20713000000214,
                    "velocity": 0.5118110236220472,
                    "duration": 0.2845220000000097
                },
                {
                    "name": "G4",
                    "midi": 67,
                    "time": 189.20713000000214,
                    "velocity": 0.5984251968503937,
                    "duration": 0.2845220000000097
                },
                {
                    "name": "D5",
                    "midi": 74,
                    "time": 189.20713000000214,
                    "velocity": 0.7165354330708661,
                    "duration": 0.2845220000000097
                },
                {
                    "name": "C4",
                    "midi": 60,
                    "time": 189.49165200000215,
                    "velocity": 0.49606299212598426,
                    "duration": 0.2845220000000097
                },
                {
                    "name": "G4",
                    "midi": 67,
                    "time": 189.49165200000215,
                    "velocity": 0.5826771653543307,
                    "duration": 0.2845220000000097
                },
                {
                    "name": "C5",
                    "midi": 72,
                    "time": 189.49165200000215,
                    "velocity": 0.6929133858267716,
                    "duration": 0.2845220000000097
                },
                {
                    "name": "C4",
                    "midi": 60,
                    "time": 189.77617400000216,
                    "velocity": 0.47244094488188976,
                    "duration": 0.2845220000000097
                },
                {
                    "name": "A4",
                    "midi": 69,
                    "time": 189.77617400000216,
                    "velocity": 0.5669291338582677,
                    "duration": 0.2845220000000097
                },
                {
                    "name": "C5",
                    "midi": 72,
                    "time": 189.77617400000216,
                    "velocity": 0.6771653543307087,
                    "duration": 0.2845220000000097
                },
                {
                    "name": "F4",
                    "midi": 65,
                    "time": 190.06069600000217,
                    "velocity": 0.5984251968503937,
                    "duration": 0.8535660000000007
                },
                {
                    "name": "C4",
                    "midi": 60,
                    "time": 190.06069600000217,
                    "velocity": 0.5118110236220472,
                    "duration": 0.8535660000000007
                },
                {
                    "name": "A4",
                    "midi": 69,
                    "time": 190.06069600000217,
                    "velocity": 0.6141732283464567,
                    "duration": 0.8535660000000007
                },
                {
                    "name": "C5",
                    "midi": 72,
                    "time": 190.06069600000217,
                    "velocity": 0.7007874015748031,
                    "duration": 0.8535660000000007
                },
                {
                    "name": "A#3",
                    "midi": 58,
                    "time": 190.91426200000217,
                    "velocity": 0.49606299212598426,
                    "duration": 0.14226099999999064
                },
                {
                    "name": "F4",
                    "midi": 65,
                    "time": 190.91426200000217,
                    "velocity": 0.5826771653543307,
                    "duration": 0.14226099999999064
                },
                {
                    "name": "A#4",
                    "midi": 70,
                    "time": 190.91426200000217,
                    "velocity": 0.6929133858267716,
                    "duration": 0.14226099999999064
                },
                {
                    "name": "A3",
                    "midi": 57,
                    "time": 191.05652300000216,
                    "velocity": 0.44881889763779526,
                    "duration": 0.14226099999999064
                },
                {
                    "name": "F4",
                    "midi": 65,
                    "time": 191.05652300000216,
                    "velocity": 0.5354330708661418,
                    "duration": 0.14226099999999064
                },
                {
                    "name": "A4",
                    "midi": 69,
                    "time": 191.05652300000216,
                    "velocity": 0.6299212598425197,
                    "duration": 0.14226099999999064
                },
                {
                    "name": "D4",
                    "midi": 62,
                    "time": 191.19878400000215,
                    "velocity": 0.5118110236220472,
                    "duration": 0.2845220000000097
                },
                {
                    "name": "F4",
                    "midi": 65,
                    "time": 191.19878400000215,
                    "velocity": 0.6062992125984252,
                    "duration": 0.2845220000000097
                },
                {
                    "name": "D5",
                    "midi": 74,
                    "time": 191.19878400000215,
                    "velocity": 0.7244094488188977,
                    "duration": 0.2845220000000097
                },
                {
                    "name": "A3",
                    "midi": 57,
                    "time": 191.48330600000216,
                    "velocity": 0.48031496062992124,
                    "duration": 0.2845220000000097
                },
                {
                    "name": "F4",
                    "midi": 65,
                    "time": 191.48330600000216,
                    "velocity": 0.5748031496062992,
                    "duration": 0.2845220000000097
                },
                {
                    "name": "A4",
                    "midi": 69,
                    "time": 191.48330600000216,
                    "velocity": 0.6850393700787402,
                    "duration": 0.2845220000000097
                },
                {
                    "name": "A#3",
                    "midi": 58,
                    "time": 191.76782800000217,
                    "velocity": 0.5118110236220472,
                    "duration": 0.2845220000000097
                },
                {
                    "name": "F4",
                    "midi": 65,
                    "time": 191.76782800000217,
                    "velocity": 0.6062992125984252,
                    "duration": 0.2845220000000097
                },
                {
                    "name": "A#4",
                    "midi": 70,
                    "time": 191.76782800000217,
                    "velocity": 0.7244094488188977,
                    "duration": 0.2845220000000097
                },
                {
                    "name": "F4",
                    "midi": 65,
                    "time": 192.05235000000218,
                    "velocity": 0.5511811023622047,
                    "duration": 0.2845220000000097
                },
                {
                    "name": "C4",
                    "midi": 60,
                    "time": 192.05235000000218,
                    "velocity": 0.4645669291338583,
                    "duration": 0.2845220000000097
                },
                {
                    "name": "A4",
                    "midi": 69,
                    "time": 192.05235000000218,
                    "velocity": 0.5511811023622047,
                    "duration": 0.2845220000000097
                },
                {
                    "name": "C5",
                    "midi": 72,
                    "time": 192.05235000000218,
                    "velocity": 0.6456692913385826,
                    "duration": 0.2845220000000097
                },
                {
                    "name": "F4",
                    "midi": 65,
                    "time": 192.3368720000022,
                    "velocity": 0.5905511811023622,
                    "duration": 1.7071320000000014
                },
                {
                    "name": "C4",
                    "midi": 60,
                    "time": 192.3368720000022,
                    "velocity": 0.5039370078740157,
                    "duration": 1.1380880000000104
                },
                {
                    "name": "A4",
                    "midi": 69,
                    "time": 192.3368720000022,
                    "velocity": 0.5905511811023622,
                    "duration": 1.1380880000000104
                },
                {
                    "name": "C5",
                    "midi": 72,
                    "time": 192.3368720000022,
                    "velocity": 0.7007874015748031,
                    "duration": 1.1380880000000104
                },
                {
                    "name": "B3",
                    "midi": 59,
                    "time": 193.4749600000022,
                    "velocity": 0.48031496062992124,
                    "duration": 0.8535660000000007
                },
                {
                    "name": "G#4",
                    "midi": 68,
                    "time": 193.4749600000022,
                    "velocity": 0.48031496062992124,
                    "duration": 0.8535660000000007
                },
                {
                    "name": "B4",
                    "midi": 71,
                    "time": 193.4749600000022,
                    "velocity": 0.5748031496062992,
                    "duration": 0.8535660000000007
                },
                {
                    "name": "D4",
                    "midi": 62,
                    "time": 194.3285260000022,
                    "velocity": 0.4330708661417323,
                    "duration": 0.2845220000000097
                },
                {
                    "name": "F4",
                    "midi": 65,
                    "time": 194.3285260000022,
                    "velocity": 0.4330708661417323,
                    "duration": 0.2845220000000097
                },
                {
                    "name": "G#4",
                    "midi": 68,
                    "time": 194.3285260000022,
                    "velocity": 0.4330708661417323,
                    "duration": 0.2845220000000097
                },
                {
                    "name": "B4",
                    "midi": 71,
                    "time": 194.3285260000022,
                    "velocity": 0.5196850393700787,
                    "duration": 0.2845220000000097
                },
                {
                    "name": "D4",
                    "midi": 62,
                    "time": 194.6130480000022,
                    "velocity": 0.4330708661417323,
                    "duration": 0.8535660000000007
                },
                {
                    "name": "F4",
                    "midi": 65,
                    "time": 194.6130480000022,
                    "velocity": 0.4330708661417323,
                    "duration": 0.8535660000000007
                },
                {
                    "name": "G#4",
                    "midi": 68,
                    "time": 194.6130480000022,
                    "velocity": 0.4330708661417323,
                    "duration": 0.8535660000000007
                },
                {
                    "name": "B4",
                    "midi": 71,
                    "time": 194.6130480000022,
                    "velocity": 0.5196850393700787,
                    "duration": 0.8535660000000007
                },
                {
                    "name": "F4",
                    "midi": 65,
                    "time": 195.4666140000022,
                    "velocity": 0.5196850393700787,
                    "duration": 0.2845220000000097
                },
                {
                    "name": "G#4",
                    "midi": 68,
                    "time": 195.4666140000022,
                    "velocity": 0.5196850393700787,
                    "duration": 0.2845220000000097
                },
                {
                    "name": "B4",
                    "midi": 71,
                    "time": 195.4666140000022,
                    "velocity": 0.5196850393700787,
                    "duration": 0.2845220000000097
                },
                {
                    "name": "D5",
                    "midi": 74,
                    "time": 195.4666140000022,
                    "velocity": 0.6141732283464567,
                    "duration": 0.2845220000000097
                },
                {
                    "name": "F4",
                    "midi": 65,
                    "time": 195.75113600000222,
                    "velocity": 0.5669291338582677,
                    "duration": 0.7113049999999816
                },
                {
                    "name": "G#4",
                    "midi": 68,
                    "time": 195.75113600000222,
                    "velocity": 0.5669291338582677,
                    "duration": 0.7113049999999816
                },
                {
                    "name": "B4",
                    "midi": 71,
                    "time": 195.75113600000222,
                    "velocity": 0.5669291338582677,
                    "duration": 0.7113049999999816
                },
                {
                    "name": "D5",
                    "midi": 74,
                    "time": 195.75113600000222,
                    "velocity": 0.6771653543307087,
                    "duration": 0.569043999999991
                },
                {
                    "name": "C#5",
                    "midi": 73,
                    "time": 196.3201800000022,
                    "velocity": 0.6771653543307087,
                    "duration": 0.14226099999999064
                },
                {
                    "name": "G#4",
                    "midi": 68,
                    "time": 196.6047020000022,
                    "velocity": 0.6299212598425197,
                    "duration": 0.14226099999999064
                },
                {
                    "name": "B4",
                    "midi": 71,
                    "time": 196.6047020000022,
                    "velocity": 0.6299212598425197,
                    "duration": 0.14226099999999064
                },
                {
                    "name": "C#5",
                    "midi": 73,
                    "time": 196.6047020000022,
                    "velocity": 0.6299212598425197,
                    "duration": 0.14226099999999064
                },
                {
                    "name": "F5",
                    "midi": 77,
                    "time": 196.6047020000022,
                    "velocity": 0.7559055118110236,
                    "duration": 0.14226099999999064
                },
                {
                    "name": "A4",
                    "midi": 69,
                    "time": 196.88922400000217,
                    "velocity": 0.6062992125984252,
                    "duration": 0.09009863333332646
                },
                {
                    "name": "C#5",
                    "midi": 73,
                    "time": 196.88922400000217,
                    "velocity": 0.6062992125984252,
                    "duration": 0.09009863333332646
                },
                {
                    "name": "F#5",
                    "midi": 78,
                    "time": 196.88922400000217,
                    "velocity": 0.7244094488188977,
                    "duration": 0.09009863333332646
                },
                {
                    "name": "A4",
                    "midi": 69,
                    "time": 196.98406466666884,
                    "velocity": 0.2204724409448819,
                    "duration": 0.09009863333332646
                },
                {
                    "name": "C#5",
                    "midi": 73,
                    "time": 196.98406466666884,
                    "velocity": 0.2677165354330709,
                    "duration": 0.09009863333332646
                },
                {
                    "name": "A4",
                    "midi": 69,
                    "time": 197.0789053333355,
                    "velocity": 0.23622047244094488,
                    "duration": 0.09009863333332646
                },
                {
                    "name": "C#5",
                    "midi": 73,
                    "time": 197.0789053333355,
                    "velocity": 0.28346456692913385,
                    "duration": 0.09009863333332646
                },
                {
                    "name": "A4",
                    "midi": 69,
                    "time": 197.17374600000218,
                    "velocity": 0.25196850393700787,
                    "duration": 0.09009863333332646
                },
                {
                    "name": "C#5",
                    "midi": 73,
                    "time": 197.17374600000218,
                    "velocity": 0.2992125984251969,
                    "duration": 0.09009863333332646
                },
                {
                    "name": "A4",
                    "midi": 69,
                    "time": 197.26858666666885,
                    "velocity": 0.2283464566929134,
                    "duration": 0.09009863333332646
                },
                {
                    "name": "C#5",
                    "midi": 73,
                    "time": 197.26858666666885,
                    "velocity": 0.2755905511811024,
                    "duration": 0.09009863333332646
                },
                {
                    "name": "A4",
                    "midi": 69,
                    "time": 197.36342733333552,
                    "velocity": 0.2283464566929134,
                    "duration": 0.09009863333332646
                },
                {
                    "name": "C#5",
                    "midi": 73,
                    "time": 197.36342733333552,
                    "velocity": 0.2755905511811024,
                    "duration": 0.09009863333332646
                },
                {
                    "name": "A4",
                    "midi": 69,
                    "time": 197.4582680000022,
                    "velocity": 0.25196850393700787,
                    "duration": 0.09009863333332646
                },
                {
                    "name": "C#5",
                    "midi": 73,
                    "time": 197.4582680000022,
                    "velocity": 0.2992125984251969,
                    "duration": 0.09009863333332646
                },
                {
                    "name": "A4",
                    "midi": 69,
                    "time": 197.55310866666886,
                    "velocity": 0.2283464566929134,
                    "duration": 0.09009863333332646
                },
                {
                    "name": "C#5",
                    "midi": 73,
                    "time": 197.55310866666886,
                    "velocity": 0.2755905511811024,
                    "duration": 0.09009863333332646
                },
                {
                    "name": "A4",
                    "midi": 69,
                    "time": 197.64794933333553,
                    "velocity": 0.2283464566929134,
                    "duration": 0.0948406666666699
                },
                {
                    "name": "C#5",
                    "midi": 73,
                    "time": 197.64794933333553,
                    "velocity": 0.2755905511811024,
                    "duration": 0.0948406666666699
                },
                {
                    "name": "F#5",
                    "midi": 78,
                    "time": 197.7427900000022,
                    "velocity": 0.4251968503937008,
                    "duration": 0.2845220000000097
                },
                {
                    "name": "A4",
                    "midi": 69,
                    "time": 197.83763066666887,
                    "velocity": 0.2125984251968504,
                    "duration": 0.09009863333332646
                },
                {
                    "name": "C#5",
                    "midi": 73,
                    "time": 197.83763066666887,
                    "velocity": 0.25196850393700787,
                    "duration": 0.09009863333332646
                },
                {
                    "name": "A4",
                    "midi": 69,
                    "time": 197.93247133333554,
                    "velocity": 0.2125984251968504,
                    "duration": 0.09009863333332646
                },
                {
                    "name": "C#5",
                    "midi": 73,
                    "time": 197.93247133333554,
                    "velocity": 0.25196850393700787,
                    "duration": 0.09009863333332646
                },
                {
                    "name": "F#5",
                    "midi": 78,
                    "time": 198.0273120000022,
                    "velocity": 0.41732283464566927,
                    "duration": 0.2845220000000097
                },
                {
                    "name": "A4",
                    "midi": 69,
                    "time": 198.12215266666888,
                    "velocity": 0.2125984251968504,
                    "duration": 0.09009863333332646
                },
                {
                    "name": "C#5",
                    "midi": 73,
                    "time": 198.12215266666888,
                    "velocity": 0.25196850393700787,
                    "duration": 0.09009863333332646
                },
                {
                    "name": "A4",
                    "midi": 69,
                    "time": 198.21699333333555,
                    "velocity": 0.2125984251968504,
                    "duration": 0.09009863333332646
                },
                {
                    "name": "C#5",
                    "midi": 73,
                    "time": 198.21699333333555,
                    "velocity": 0.25196850393700787,
                    "duration": 0.09009863333332646
                },
                {
                    "name": "A5",
                    "midi": 81,
                    "time": 198.31183400000222,
                    "velocity": 0.41732283464566927,
                    "duration": 0.2845220000000097
                },
                {
                    "name": "A4",
                    "midi": 69,
                    "time": 198.4066746666689,
                    "velocity": 0.2047244094488189,
                    "duration": 0.09009863333332646
                },
                {
                    "name": "C#5",
                    "midi": 73,
                    "time": 198.4066746666689,
                    "velocity": 0.2440944881889764,
                    "duration": 0.09009863333332646
                },
                {
                    "name": "A4",
                    "midi": 69,
                    "time": 198.50151533333556,
                    "velocity": 0.2047244094488189,
                    "duration": 0.09009863333332646
                },
                {
                    "name": "C#5",
                    "midi": 73,
                    "time": 198.50151533333556,
                    "velocity": 0.2440944881889764,
                    "duration": 0.09009863333332646
                },
                {
                    "name": "F#5",
                    "midi": 78,
                    "time": 198.59635600000223,
                    "velocity": 0.41732283464566927,
                    "duration": 0.2845220000000097
                },
                {
                    "name": "A4",
                    "midi": 69,
                    "time": 198.6911966666689,
                    "velocity": 0.2125984251968504,
                    "duration": 0.09009863333332646
                },
                {
                    "name": "C#5",
                    "midi": 73,
                    "time": 198.6911966666689,
                    "velocity": 0.25196850393700787,
                    "duration": 0.09009863333332646
                },
                {
                    "name": "A4",
                    "midi": 69,
                    "time": 198.78603733333557,
                    "velocity": 0.2125984251968504,
                    "duration": 0.09009863333332646
                },
                {
                    "name": "C#5",
                    "midi": 73,
                    "time": 198.78603733333557,
                    "velocity": 0.25196850393700787,
                    "duration": 0.09009863333332646
                },
                {
                    "name": "A5",
                    "midi": 81,
                    "time": 198.88087800000224,
                    "velocity": 0.41732283464566927,
                    "duration": 0.2845220000000097
                },
                {
                    "name": "A4",
                    "midi": 69,
                    "time": 198.9757186666689,
                    "velocity": 0.2047244094488189,
                    "duration": 0.09009863333332646
                },
                {
                    "name": "C#5",
                    "midi": 73,
                    "time": 198.9757186666689,
                    "velocity": 0.2440944881889764,
                    "duration": 0.09009863333332646
                },
                {
                    "name": "A4",
                    "midi": 69,
                    "time": 199.07055933333558,
                    "velocity": 0.2047244094488189,
                    "duration": 0.09009863333332646
                },
                {
                    "name": "C#5",
                    "midi": 73,
                    "time": 199.07055933333558,
                    "velocity": 0.2440944881889764,
                    "duration": 0.09009863333332646
                },
                {
                    "name": "A5",
                    "midi": 81,
                    "time": 199.16540000000225,
                    "velocity": 0.4409448818897638,
                    "duration": 0.2845220000000097
                },
                {
                    "name": "C#5",
                    "midi": 73,
                    "time": 199.26024066666892,
                    "velocity": 0.2125984251968504,
                    "duration": 0.09009863333332646
                },
                {
                    "name": "F#5",
                    "midi": 78,
                    "time": 199.26024066666892,
                    "velocity": 0.25196850393700787,
                    "duration": 0.09009863333332646
                },
                {
                    "name": "C#5",
                    "midi": 73,
                    "time": 199.3550813333356,
                    "velocity": 0.2125984251968504,
                    "duration": 0.09009863333332646
                },
                {
                    "name": "F#5",
                    "midi": 78,
                    "time": 199.3550813333356,
                    "velocity": 0.25196850393700787,
                    "duration": 0.09009863333332646
                },
                {
                    "name": "C#6",
                    "midi": 85,
                    "time": 199.44992200000226,
                    "velocity": 0.4330708661417323,
                    "duration": 0.2845220000000097
                },
                {
                    "name": "C#5",
                    "midi": 73,
                    "time": 199.54476266666893,
                    "velocity": 0.2125984251968504,
                    "duration": 0.09009863333332646
                },
                {
                    "name": "F#5",
                    "midi": 78,
                    "time": 199.54476266666893,
                    "velocity": 0.25196850393700787,
                    "duration": 0.09009863333332646
                },
                {
                    "name": "C#5",
                    "midi": 73,
                    "time": 199.6396033333356,
                    "velocity": 0.2125984251968504,
                    "duration": 0.09009863333332646
                },
                {
                    "name": "F#5",
                    "midi": 78,
                    "time": 199.6396033333356,
                    "velocity": 0.25196850393700787,
                    "duration": 0.09009863333332646
                },
                {
                    "name": "A5",
                    "midi": 81,
                    "time": 199.73444400000227,
                    "velocity": 0.4330708661417323,
                    "duration": 0.2845220000000097
                },
                {
                    "name": "C#5",
                    "midi": 73,
                    "time": 199.82928466666894,
                    "velocity": 0.2125984251968504,
                    "duration": 0.09009863333332646
                },
                {
                    "name": "F#5",
                    "midi": 78,
                    "time": 199.82928466666894,
                    "velocity": 0.25196850393700787,
                    "duration": 0.09009863333332646
                },
                {
                    "name": "C#5",
                    "midi": 73,
                    "time": 199.9241253333356,
                    "velocity": 0.2125984251968504,
                    "duration": 0.09009863333332646
                },
                {
                    "name": "F#5",
                    "midi": 78,
                    "time": 199.9241253333356,
                    "velocity": 0.25196850393700787,
                    "duration": 0.09009863333332646
                },
                {
                    "name": "C#6",
                    "midi": 85,
                    "time": 200.01896600000228,
                    "velocity": 0.4409448818897638,
                    "duration": 0.2845220000000097
                },
                {
                    "name": "C#5",
                    "midi": 73,
                    "time": 200.11380666666895,
                    "velocity": 0.2125984251968504,
                    "duration": 0.09009863333332646
                },
                {
                    "name": "F#5",
                    "midi": 78,
                    "time": 200.11380666666895,
                    "velocity": 0.25196850393700787,
                    "duration": 0.09009863333332646
                },
                {
                    "name": "C#5",
                    "midi": 73,
                    "time": 200.20864733333562,
                    "velocity": 0.2125984251968504,
                    "duration": 0.09009863333332646
                },
                {
                    "name": "F#5",
                    "midi": 78,
                    "time": 200.20864733333562,
                    "velocity": 0.25196850393700787,
                    "duration": 0.09009863333332646
                },
                {
                    "name": "C#5",
                    "midi": 73,
                    "time": 200.3034880000023,
                    "velocity": 0.4409448818897638,
                    "duration": 0.2845220000000097
                },
                {
                    "name": "F#4",
                    "midi": 66,
                    "time": 200.39832866666896,
                    "velocity": 0.2125984251968504,
                    "duration": 0.09009863333332646
                },
                {
                    "name": "A4",
                    "midi": 69,
                    "time": 200.39832866666896,
                    "velocity": 0.25196850393700787,
                    "duration": 0.09009863333332646
                },
                {
                    "name": "F#4",
                    "midi": 66,
                    "time": 200.49316933333563,
                    "velocity": 0.2125984251968504,
                    "duration": 0.09009863333332646
                },
                {
                    "name": "A4",
                    "midi": 69,
                    "time": 200.49316933333563,
                    "velocity": 0.25196850393700787,
                    "duration": 0.09009863333332646
                },
                {
                    "name": "F5",
                    "midi": 77,
                    "time": 200.5880100000023,
                    "velocity": 0.4409448818897638,
                    "duration": 0.2845220000000097
                },
                {
                    "name": "C#5",
                    "midi": 73,
                    "time": 200.68285066666897,
                    "velocity": 0.25984251968503935,
                    "duration": 0.09009863333332646
                },
                {
                    "name": "F4",
                    "midi": 65,
                    "time": 200.68285066666897,
                    "velocity": 0.2125984251968504,
                    "duration": 0.09009863333332646
                },
                {
                    "name": "B4",
                    "midi": 71,
                    "time": 200.68285066666897,
                    "velocity": 0.25984251968503935,
                    "duration": 0.09009863333332646
                },
                {
                    "name": "C#5",
                    "midi": 73,
                    "time": 200.77769133333564,
                    "velocity": 0.2677165354330709,
                    "duration": 0.09009863333332646
                },
                {
                    "name": "F4",
                    "midi": 65,
                    "time": 200.77769133333564,
                    "velocity": 0.2125984251968504,
                    "duration": 0.09009863333332646
                },
                {
                    "name": "B4",
                    "midi": 71,
                    "time": 200.77769133333564,
                    "velocity": 0.2677165354330709,
                    "duration": 0.09009863333332646
                },
                {
                    "name": "F#5",
                    "midi": 78,
                    "time": 200.8725320000023,
                    "velocity": 0.4566929133858268,
                    "duration": 0.2845220000000097
                },
                {
                    "name": "C#5",
                    "midi": 73,
                    "time": 200.96737266666898,
                    "velocity": 0.2677165354330709,
                    "duration": 0.09009863333332646
                },
                {
                    "name": "F#4",
                    "midi": 66,
                    "time": 200.96737266666898,
                    "velocity": 0.2204724409448819,
                    "duration": 0.09009863333332646
                },
                {
                    "name": "A4",
                    "midi": 69,
                    "time": 200.96737266666898,
                    "velocity": 0.2677165354330709,
                    "duration": 0.09009863333332646
                },
                {
                    "name": "C#5",
                    "midi": 73,
                    "time": 201.06221333333565,
                    "velocity": 0.2755905511811024,
                    "duration": 0.09009863333332646
                },
                {
                    "name": "F#4",
                    "midi": 66,
                    "time": 201.06221333333565,
                    "velocity": 0.2283464566929134,
                    "duration": 0.09009863333332646
                },
                {
                    "name": "A4",
                    "midi": 69,
                    "time": 201.06221333333565,
                    "velocity": 0.2755905511811024,
                    "duration": 0.09009863333332646
                },
                {
                    "name": "G#5",
                    "midi": 80,
                    "time": 201.15705400000232,
                    "velocity": 0.4881889763779528,
                    "duration": 0.2845220000000097
                },
                {
                    "name": "E5",
                    "midi": 76,
                    "time": 201.251894666669,
                    "velocity": 0.28346456692913385,
                    "duration": 0.09009863333332646
                },
                {
                    "name": "G#4",
                    "midi": 68,
                    "time": 201.251894666669,
                    "velocity": 0.2283464566929134,
                    "duration": 0.09009863333332646
                },
                {
                    "name": "D5",
                    "midi": 74,
                    "time": 201.251894666669,
                    "velocity": 0.28346456692913385,
                    "duration": 0.09009863333332646
                },
                {
                    "name": "E5",
                    "midi": 76,
                    "time": 201.34673533333566,
                    "velocity": 0.28346456692913385,
                    "duration": 0.09009863333332646
                },
                {
                    "name": "G#4",
                    "midi": 68,
                    "time": 201.34673533333566,
                    "velocity": 0.2283464566929134,
                    "duration": 0.09009863333332646
                },
                {
                    "name": "D5",
                    "midi": 74,
                    "time": 201.34673533333566,
                    "velocity": 0.28346456692913385,
                    "duration": 0.09009863333332646
                },
                {
                    "name": "A5",
                    "midi": 81,
                    "time": 201.44157600000233,
                    "velocity": 0.48031496062992124,
                    "duration": 0.2845220000000097
                },
                {
                    "name": "A4",
                    "midi": 69,
                    "time": 201.536416666669,
                    "velocity": 0.23622047244094488,
                    "duration": 0.09009863333332646
                },
                {
                    "name": "C#5",
                    "midi": 73,
                    "time": 201.536416666669,
                    "velocity": 0.23622047244094488,
                    "duration": 0.09009863333332646
                },
                {
                    "name": "E5",
                    "midi": 76,
                    "time": 201.536416666669,
                    "velocity": 0.28346456692913385,
                    "duration": 0.09009863333332646
                },
                {
                    "name": "A4",
                    "midi": 69,
                    "time": 201.63125733333567,
                    "velocity": 0.2283464566929134,
                    "duration": 0.09009863333332646
                },
                {
                    "name": "C#5",
                    "midi": 73,
                    "time": 201.63125733333567,
                    "velocity": 0.2283464566929134,
                    "duration": 0.09009863333332646
                },
                {
                    "name": "E5",
                    "midi": 76,
                    "time": 201.63125733333567,
                    "velocity": 0.28346456692913385,
                    "duration": 0.09009863333332646
                },
                {
                    "name": "B5",
                    "midi": 83,
                    "time": 201.72609800000234,
                    "velocity": 0.47244094488188976,
                    "duration": 0.2845220000000097
                },
                {
                    "name": "F5",
                    "midi": 77,
                    "time": 201.820938666669,
                    "velocity": 0.2755905511811024,
                    "duration": 0.09009863333332646
                },
                {
                    "name": "B4",
                    "midi": 71,
                    "time": 201.820938666669,
                    "velocity": 0.2204724409448819,
                    "duration": 0.09009863333332646
                },
                {
                    "name": "C#5",
                    "midi": 73,
                    "time": 201.820938666669,
                    "velocity": 0.2755905511811024,
                    "duration": 0.09009863333332646
                },
                {
                    "name": "F5",
                    "midi": 77,
                    "time": 201.91577933333568,
                    "velocity": 0.2677165354330709,
                    "duration": 0.09009863333332646
                },
                {
                    "name": "B4",
                    "midi": 71,
                    "time": 201.91577933333568,
                    "velocity": 0.2204724409448819,
                    "duration": 0.09009863333332646
                },
                {
                    "name": "C#5",
                    "midi": 73,
                    "time": 201.91577933333568,
                    "velocity": 0.2677165354330709,
                    "duration": 0.09009863333332646
                },
                {
                    "name": "A5",
                    "midi": 81,
                    "time": 202.01062000000235,
                    "velocity": 0.44881889763779526,
                    "duration": 0.2845220000000097
                },
                {
                    "name": "F#5",
                    "midi": 78,
                    "time": 202.10546066666902,
                    "velocity": 0.25984251968503935,
                    "duration": 0.09009863333332646
                },
                {
                    "name": "A4",
                    "midi": 69,
                    "time": 202.10546066666902,
                    "velocity": 0.2125984251968504,
                    "duration": 0.09009863333332646
                },
                {
                    "name": "C#5",
                    "midi": 73,
                    "time": 202.10546066666902,
                    "velocity": 0.25984251968503935,
                    "duration": 0.09009863333332646
                },
                {
                    "name": "F#5",
                    "midi": 78,
                    "time": 202.2003013333357,
                    "velocity": 0.25196850393700787,
                    "duration": 0.09009863333332646
                },
                {
                    "name": "A4",
                    "midi": 69,
                    "time": 202.2003013333357,
                    "velocity": 0.2125984251968504,
                    "duration": 0.09009863333332646
                },
                {
                    "name": "C#5",
                    "midi": 73,
                    "time": 202.2003013333357,
                    "velocity": 0.25196850393700787,
                    "duration": 0.09009863333332646
                },
                {
                    "name": "G#5",
                    "midi": 80,
                    "time": 202.29514200000236,
                    "velocity": 0.4409448818897638,
                    "duration": 0.2845220000000097
                },
                {
                    "name": "E5",
                    "midi": 76,
                    "time": 202.38998266666903,
                    "velocity": 0.25196850393700787,
                    "duration": 0.09009863333332646
                },
                {
                    "name": "G#4",
                    "midi": 68,
                    "time": 202.38998266666903,
                    "velocity": 0.2125984251968504,
                    "duration": 0.09009863333332646
                },
                {
                    "name": "B4",
                    "midi": 71,
                    "time": 202.38998266666903,
                    "velocity": 0.25196850393700787,
                    "duration": 0.09009863333332646
                },
                {
                    "name": "E5",
                    "midi": 76,
                    "time": 202.4848233333357,
                    "velocity": 0.25196850393700787,
                    "duration": 0.09009863333332646
                },
                {
                    "name": "G#4",
                    "midi": 68,
                    "time": 202.4848233333357,
                    "velocity": 0.2125984251968504,
                    "duration": 0.09009863333332646
                },
                {
                    "name": "B4",
                    "midi": 71,
                    "time": 202.4848233333357,
                    "velocity": 0.25196850393700787,
                    "duration": 0.09009863333332646
                },
                {
                    "name": "G#5",
                    "midi": 80,
                    "time": 202.57966400000237,
                    "velocity": 0.4251968503937008,
                    "duration": 0.5690440000000194
                },
                {
                    "name": "G#4",
                    "midi": 68,
                    "time": 202.67450466666904,
                    "velocity": 0.2047244094488189,
                    "duration": 0.09009863333332646
                },
                {
                    "name": "B4",
                    "midi": 71,
                    "time": 202.67450466666904,
                    "velocity": 0.2047244094488189,
                    "duration": 0.09009863333332646
                },
                {
                    "name": "E5",
                    "midi": 76,
                    "time": 202.67450466666904,
                    "velocity": 0.2440944881889764,
                    "duration": 0.09009863333332646
                },
                {
                    "name": "G#4",
                    "midi": 68,
                    "time": 202.7693453333357,
                    "velocity": 0.2047244094488189,
                    "duration": 0.09009863333332646
                },
                {
                    "name": "B4",
                    "midi": 71,
                    "time": 202.7693453333357,
                    "velocity": 0.2047244094488189,
                    "duration": 0.09009863333332646
                },
                {
                    "name": "E5",
                    "midi": 76,
                    "time": 202.7693453333357,
                    "velocity": 0.2440944881889764,
                    "duration": 0.09009863333332646
                },
                {
                    "name": "G#4",
                    "midi": 68,
                    "time": 202.86418600000238,
                    "velocity": 0.2047244094488189,
                    "duration": 0.09009863333332646
                },
                {
                    "name": "B4",
                    "midi": 71,
                    "time": 202.86418600000238,
                    "velocity": 0.2047244094488189,
                    "duration": 0.09009863333332646
                },
                {
                    "name": "E5",
                    "midi": 76,
                    "time": 202.86418600000238,
                    "velocity": 0.2440944881889764,
                    "duration": 0.09009863333332646
                },
                {
                    "name": "G#4",
                    "midi": 68,
                    "time": 202.95902666666905,
                    "velocity": 0.2047244094488189,
                    "duration": 0.09009863333332646
                },
                {
                    "name": "B4",
                    "midi": 71,
                    "time": 202.95902666666905,
                    "velocity": 0.2047244094488189,
                    "duration": 0.09009863333332646
                },
                {
                    "name": "E5",
                    "midi": 76,
                    "time": 202.95902666666905,
                    "velocity": 0.2440944881889764,
                    "duration": 0.09009863333332646
                },
                {
                    "name": "G#4",
                    "midi": 68,
                    "time": 203.05386733333572,
                    "velocity": 0.2125984251968504,
                    "duration": 0.09009863333332646
                },
                {
                    "name": "B4",
                    "midi": 71,
                    "time": 203.05386733333572,
                    "velocity": 0.2125984251968504,
                    "duration": 0.09009863333332646
                },
                {
                    "name": "E5",
                    "midi": 76,
                    "time": 203.05386733333572,
                    "velocity": 0.25196850393700787,
                    "duration": 0.09009863333332646
                },
                {
                    "name": "G#5",
                    "midi": 80,
                    "time": 203.1487080000024,
                    "velocity": 0.4330708661417323,
                    "duration": 0.2845220000000097
                },
                {
                    "name": "G#4",
                    "midi": 68,
                    "time": 203.24354866666906,
                    "velocity": 0.1968503937007874,
                    "duration": 0.09009863333332646
                },
                {
                    "name": "B4",
                    "midi": 71,
                    "time": 203.24354866666906,
                    "velocity": 0.1968503937007874,
                    "duration": 0.09009863333332646
                },
                {
                    "name": "C#5",
                    "midi": 73,
                    "time": 203.24354866666906,
                    "velocity": 0.2283464566929134,
                    "duration": 0.09009863333332646
                },
                {
                    "name": "G#4",
                    "midi": 68,
                    "time": 203.33838933333573,
                    "velocity": 0.1968503937007874,
                    "duration": 0.09009863333332646
                },
                {
                    "name": "B4",
                    "midi": 71,
                    "time": 203.33838933333573,
                    "velocity": 0.1968503937007874,
                    "duration": 0.09009863333332646
                },
                {
                    "name": "C#5",
                    "midi": 73,
                    "time": 203.33838933333573,
                    "velocity": 0.23622047244094488,
                    "duration": 0.09009863333332646
                },
                {
                    "name": "A5",
                    "midi": 81,
                    "time": 203.4332300000024,
                    "velocity": 0.4251968503937008,
                    "duration": 0.2845220000000097
                },
                {
                    "name": "A4",
                    "midi": 69,
                    "time": 203.52807066666907,
                    "velocity": 0.1968503937007874,
                    "duration": 0.09009863333332646
                },
                {
                    "name": "C#5",
                    "midi": 73,
                    "time": 203.52807066666907,
                    "velocity": 0.2283464566929134,
                    "duration": 0.09009863333332646
                },
                {
                    "name": "A4",
                    "midi": 69,
                    "time": 203.62291133333574,
                    "velocity": 0.1968503937007874,
                    "duration": 0.09009863333332646
                },
                {
                    "name": "C#5",
                    "midi": 73,
                    "time": 203.62291133333574,
                    "velocity": 0.2283464566929134,
                    "duration": 0.09009863333332646
                },
                {
                    "name": "F#5",
                    "midi": 78,
                    "time": 203.7177520000024,
                    "velocity": 0.41732283464566927,
                    "duration": 0.2845220000000097
                },
                {
                    "name": "A4",
                    "midi": 69,
                    "time": 203.81259266666908,
                    "velocity": 0.2125984251968504,
                    "duration": 0.09009863333332646
                },
                {
                    "name": "C#5",
                    "midi": 73,
                    "time": 203.81259266666908,
                    "velocity": 0.25196850393700787,
                    "duration": 0.09009863333332646
                },
                {
                    "name": "A4",
                    "midi": 69,
                    "time": 203.90743333333575,
                    "velocity": 0.2125984251968504,
                    "duration": 0.09009863333332646
                },
                {
                    "name": "C#5",
                    "midi": 73,
                    "time": 203.90743333333575,
                    "velocity": 0.25196850393700787,
                    "duration": 0.09009863333332646
                },
                {
                    "name": "A5",
                    "midi": 81,
                    "time": 204.00227400000242,
                    "velocity": 0.41732283464566927,
                    "duration": 0.2845220000000097
                },
                {
                    "name": "A4",
                    "midi": 69,
                    "time": 204.09711466666909,
                    "velocity": 0.2047244094488189,
                    "duration": 0.09009863333332646
                },
                {
                    "name": "C#5",
                    "midi": 73,
                    "time": 204.09711466666909,
                    "velocity": 0.2440944881889764,
                    "duration": 0.09009863333332646
                },
                {
                    "name": "A4",
                    "midi": 69,
                    "time": 204.19195533333576,
                    "velocity": 0.2047244094488189,
                    "duration": 0.09009863333332646
                },
                {
                    "name": "C#5",
                    "midi": 73,
                    "time": 204.19195533333576,
                    "velocity": 0.2440944881889764,
                    "duration": 0.09009863333332646
                },
                {
                    "name": "F#5",
                    "midi": 78,
                    "time": 204.28679600000243,
                    "velocity": 0.41732283464566927,
                    "duration": 0.2845220000000097
                },
                {
                    "name": "A4",
                    "midi": 69,
                    "time": 204.3816366666691,
                    "velocity": 0.2125984251968504,
                    "duration": 0.09009863333332646
                },
                {
                    "name": "C#5",
                    "midi": 73,
                    "time": 204.3816366666691,
                    "velocity": 0.25196850393700787,
                    "duration": 0.09009863333332646
                },
                {
                    "name": "A4",
                    "midi": 69,
                    "time": 204.47647733333577,
                    "velocity": 0.2125984251968504,
                    "duration": 0.09009863333332646
                },
                {
                    "name": "C#5",
                    "midi": 73,
                    "time": 204.47647733333577,
                    "velocity": 0.25196850393700787,
                    "duration": 0.09009863333332646
                },
                {
                    "name": "A5",
                    "midi": 81,
                    "time": 204.57131800000244,
                    "velocity": 0.41732283464566927,
                    "duration": 0.2845220000000097
                },
                {
                    "name": "A4",
                    "midi": 69,
                    "time": 204.6661586666691,
                    "velocity": 0.2047244094488189,
                    "duration": 0.09009863333332646
                },
                {
                    "name": "C#5",
                    "midi": 73,
                    "time": 204.6661586666691,
                    "velocity": 0.2440944881889764,
                    "duration": 0.09009863333332646
                },
                {
                    "name": "A4",
                    "midi": 69,
                    "time": 204.76099933333577,
                    "velocity": 0.2047244094488189,
                    "duration": 0.09009863333332646
                },
                {
                    "name": "C#5",
                    "midi": 73,
                    "time": 204.76099933333577,
                    "velocity": 0.2440944881889764,
                    "duration": 0.09009863333332646
                },
                {
                    "name": "A5",
                    "midi": 81,
                    "time": 204.85584000000244,
                    "velocity": 0.4409448818897638,
                    "duration": 0.2845220000000097
                },
                {
                    "name": "C#5",
                    "midi": 73,
                    "time": 204.95068066666911,
                    "velocity": 0.2125984251968504,
                    "duration": 0.09009863333332646
                },
                {
                    "name": "F#5",
                    "midi": 78,
                    "time": 204.95068066666911,
                    "velocity": 0.25196850393700787,
                    "duration": 0.09009863333332646
                },
                {
                    "name": "C#5",
                    "midi": 73,
                    "time": 205.04552133333578,
                    "velocity": 0.2125984251968504,
                    "duration": 0.09009863333332646
                },
                {
                    "name": "F#5",
                    "midi": 78,
                    "time": 205.04552133333578,
                    "velocity": 0.25196850393700787,
                    "duration": 0.09009863333332646
                },
                {
                    "name": "C#6",
                    "midi": 85,
                    "time": 205.14036200000245,
                    "velocity": 0.4330708661417323,
                    "duration": 0.2845220000000097
                },
                {
                    "name": "C#5",
                    "midi": 73,
                    "time": 205.23520266666912,
                    "velocity": 0.2125984251968504,
                    "duration": 0.09009863333332646
                },
                {
                    "name": "F#5",
                    "midi": 78,
                    "time": 205.23520266666912,
                    "velocity": 0.25196850393700787,
                    "duration": 0.09009863333332646
                },
                {
                    "name": "C#5",
                    "midi": 73,
                    "time": 205.3300433333358,
                    "velocity": 0.2125984251968504,
                    "duration": 0.09009863333332646
                },
                {
                    "name": "F#5",
                    "midi": 78,
                    "time": 205.3300433333358,
                    "velocity": 0.25196850393700787,
                    "duration": 0.09009863333332646
                },
                {
                    "name": "A5",
                    "midi": 81,
                    "time": 205.42488400000246,
                    "velocity": 0.4330708661417323,
                    "duration": 0.2845220000000097
                },
                {
                    "name": "C#5",
                    "midi": 73,
                    "time": 205.51972466666913,
                    "velocity": 0.2125984251968504,
                    "duration": 0.09009863333332646
                },
                {
                    "name": "F#5",
                    "midi": 78,
                    "time": 205.51972466666913,
                    "velocity": 0.25196850393700787,
                    "duration": 0.09009863333332646
                },
                {
                    "name": "C#5",
                    "midi": 73,
                    "time": 205.6145653333358,
                    "velocity": 0.2125984251968504,
                    "duration": 0.09009863333332646
                },
                {
                    "name": "F#5",
                    "midi": 78,
                    "time": 205.6145653333358,
                    "velocity": 0.25196850393700787,
                    "duration": 0.09009863333332646
                },
                {
                    "name": "C#6",
                    "midi": 85,
                    "time": 205.70940600000247,
                    "velocity": 0.4409448818897638,
                    "duration": 0.2845220000000097
                },
                {
                    "name": "C#5",
                    "midi": 73,
                    "time": 205.80424666666914,
                    "velocity": 0.2125984251968504,
                    "duration": 0.09009863333332646
                },
                {
                    "name": "F#5",
                    "midi": 78,
                    "time": 205.80424666666914,
                    "velocity": 0.25196850393700787,
                    "duration": 0.09009863333332646
                },
                {
                    "name": "C#5",
                    "midi": 73,
                    "time": 205.8990873333358,
                    "velocity": 0.2125984251968504,
                    "duration": 0.09009863333332646
                },
                {
                    "name": "F#5",
                    "midi": 78,
                    "time": 205.8990873333358,
                    "velocity": 0.25196850393700787,
                    "duration": 0.09009863333332646
                },
                {
                    "name": "C#5",
                    "midi": 73,
                    "time": 205.99392800000248,
                    "velocity": 0.4409448818897638,
                    "duration": 0.2845220000000097
                },
                {
                    "name": "F#4",
                    "midi": 66,
                    "time": 206.08876866666915,
                    "velocity": 0.2125984251968504,
                    "duration": 0.09009863333332646
                },
                {
                    "name": "A4",
                    "midi": 69,
                    "time": 206.08876866666915,
                    "velocity": 0.25196850393700787,
                    "duration": 0.09009863333332646
                },
                {
                    "name": "F#4",
                    "midi": 66,
                    "time": 206.18360933333582,
                    "velocity": 0.2125984251968504,
                    "duration": 0.0948406666666699
                },
                {
                    "name": "A4",
                    "midi": 69,
                    "time": 206.18360933333582,
                    "velocity": 0.25196850393700787,
                    "duration": 0.0948406666666699
                },
                {
                    "name": "F5",
                    "midi": 77,
                    "time": 206.2784500000025,
                    "velocity": 0.4409448818897638,
                    "duration": 0.2845220000000097
                },
                {
                    "name": "C#5",
                    "midi": 73,
                    "time": 206.37329066666916,
                    "velocity": 0.25984251968503935,
                    "duration": 0.09009863333332646
                },
                {
                    "name": "F4",
                    "midi": 65,
                    "time": 206.37329066666916,
                    "velocity": 0.2125984251968504,
                    "duration": 0.09009863333332646
                },
                {
                    "name": "B4",
                    "midi": 71,
                    "time": 206.37329066666916,
                    "velocity": 0.25984251968503935,
                    "duration": 0.09009863333332646
                },
                {
                    "name": "C#5",
                    "midi": 73,
                    "time": 206.46813133333583,
                    "velocity": 0.2677165354330709,
                    "duration": 0.09009863333332646
                },
                {
                    "name": "F4",
                    "midi": 65,
                    "time": 206.46813133333583,
                    "velocity": 0.2125984251968504,
                    "duration": 0.09009863333332646
                },
                {
                    "name": "B4",
                    "midi": 71,
                    "time": 206.46813133333583,
                    "velocity": 0.2677165354330709,
                    "duration": 0.09009863333332646
                },
                {
                    "name": "F#5",
                    "midi": 78,
                    "time": 206.5629720000025,
                    "velocity": 0.4566929133858268,
                    "duration": 0.2845220000000097
                },
                {
                    "name": "C#5",
                    "midi": 73,
                    "time": 206.65781266666917,
                    "velocity": 0.2677165354330709,
                    "duration": 0.09009863333332646
                },
                {
                    "name": "F#4",
                    "midi": 66,
                    "time": 206.65781266666917,
                    "velocity": 0.2204724409448819,
                    "duration": 0.09009863333332646
                },
                {
                    "name": "A4",
                    "midi": 69,
                    "time": 206.65781266666917,
                    "velocity": 0.2677165354330709,
                    "duration": 0.09009863333332646
                },
                {
                    "name": "C#5",
                    "midi": 73,
                    "time": 206.75265333333584,
                    "velocity": 0.2755905511811024,
                    "duration": 0.09009863333332646
                },
                {
                    "name": "F#4",
                    "midi": 66,
                    "time": 206.75265333333584,
                    "velocity": 0.2283464566929134,
                    "duration": 0.09009863333332646
                },
                {
                    "name": "A4",
                    "midi": 69,
                    "time": 206.75265333333584,
                    "velocity": 0.2755905511811024,
                    "duration": 0.09009863333332646
                },
                {
                    "name": "G#5",
                    "midi": 80,
                    "time": 206.8474940000025,
                    "velocity": 0.4881889763779528,
                    "duration": 0.2845220000000097
                },
                {
                    "name": "E5",
                    "midi": 76,
                    "time": 206.94233466666918,
                    "velocity": 0.28346456692913385,
                    "duration": 0.09009863333332646
                },
                {
                    "name": "G#4",
                    "midi": 68,
                    "time": 206.94233466666918,
                    "velocity": 0.2283464566929134,
                    "duration": 0.09009863333332646
                },
                {
                    "name": "D5",
                    "midi": 74,
                    "time": 206.94233466666918,
                    "velocity": 0.28346456692913385,
                    "duration": 0.09009863333332646
                },
                {
                    "name": "E5",
                    "midi": 76,
                    "time": 207.03717533333585,
                    "velocity": 0.28346456692913385,
                    "duration": 0.09009863333332646
                },
                {
                    "name": "G#4",
                    "midi": 68,
                    "time": 207.03717533333585,
                    "velocity": 0.2283464566929134,
                    "duration": 0.09009863333332646
                },
                {
                    "name": "D5",
                    "midi": 74,
                    "time": 207.03717533333585,
                    "velocity": 0.28346456692913385,
                    "duration": 0.09009863333332646
                },
                {
                    "name": "A5",
                    "midi": 81,
                    "time": 207.13201600000252,
                    "velocity": 0.48031496062992124,
                    "duration": 0.2845220000000097
                },
                {
                    "name": "A4",
                    "midi": 69,
                    "time": 207.2268566666692,
                    "velocity": 0.23622047244094488,
                    "duration": 0.09009863333332646
                },
                {
                    "name": "C#5",
                    "midi": 73,
                    "time": 207.2268566666692,
                    "velocity": 0.23622047244094488,
                    "duration": 0.09009863333332646
                },
                {
                    "name": "E5",
                    "midi": 76,
                    "time": 207.2268566666692,
                    "velocity": 0.28346456692913385,
                    "duration": 0.09009863333332646
                },
                {
                    "name": "A4",
                    "midi": 69,
                    "time": 207.32169733333586,
                    "velocity": 0.2283464566929134,
                    "duration": 0.09009863333332646
                },
                {
                    "name": "C#5",
                    "midi": 73,
                    "time": 207.32169733333586,
                    "velocity": 0.2283464566929134,
                    "duration": 0.09009863333332646
                },
                {
                    "name": "E5",
                    "midi": 76,
                    "time": 207.32169733333586,
                    "velocity": 0.28346456692913385,
                    "duration": 0.09009863333332646
                },
                {
                    "name": "B5",
                    "midi": 83,
                    "time": 207.41653800000253,
                    "velocity": 0.47244094488188976,
                    "duration": 0.2845220000000097
                },
                {
                    "name": "F5",
                    "midi": 77,
                    "time": 207.5113786666692,
                    "velocity": 0.2755905511811024,
                    "duration": 0.09009863333332646
                },
                {
                    "name": "B4",
                    "midi": 71,
                    "time": 207.5113786666692,
                    "velocity": 0.2204724409448819,
                    "duration": 0.09009863333332646
                },
                {
                    "name": "C#5",
                    "midi": 73,
                    "time": 207.5113786666692,
                    "velocity": 0.2755905511811024,
                    "duration": 0.09009863333332646
                },
                {
                    "name": "F5",
                    "midi": 77,
                    "time": 207.60621933333587,
                    "velocity": 0.2677165354330709,
                    "duration": 0.09009863333332646
                },
                {
                    "name": "B4",
                    "midi": 71,
                    "time": 207.60621933333587,
                    "velocity": 0.2204724409448819,
                    "duration": 0.09009863333332646
                },
                {
                    "name": "C#5",
                    "midi": 73,
                    "time": 207.60621933333587,
                    "velocity": 0.2677165354330709,
                    "duration": 0.09009863333332646
                },
                {
                    "name": "A5",
                    "midi": 81,
                    "time": 207.70106000000254,
                    "velocity": 0.44881889763779526,
                    "duration": 0.2845220000000097
                },
                {
                    "name": "F#5",
                    "midi": 78,
                    "time": 207.7959006666692,
                    "velocity": 0.25984251968503935,
                    "duration": 0.09009863333332646
                },
                {
                    "name": "A4",
                    "midi": 69,
                    "time": 207.7959006666692,
                    "velocity": 0.2125984251968504,
                    "duration": 0.09009863333332646
                },
                {
                    "name": "C#5",
                    "midi": 73,
                    "time": 207.7959006666692,
                    "velocity": 0.25984251968503935,
                    "duration": 0.09009863333332646
                },
                {
                    "name": "F#5",
                    "midi": 78,
                    "time": 207.89074133333588,
                    "velocity": 0.25196850393700787,
                    "duration": 0.09009863333332646
                },
                {
                    "name": "A4",
                    "midi": 69,
                    "time": 207.89074133333588,
                    "velocity": 0.2125984251968504,
                    "duration": 0.09009863333332646
                },
                {
                    "name": "C#5",
                    "midi": 73,
                    "time": 207.89074133333588,
                    "velocity": 0.25196850393700787,
                    "duration": 0.09009863333332646
                },
                {
                    "name": "G#5",
                    "midi": 80,
                    "time": 207.98558200000255,
                    "velocity": 0.4409448818897638,
                    "duration": 0.2845220000000097
                },
                {
                    "name": "E5",
                    "midi": 76,
                    "time": 208.08042266666922,
                    "velocity": 0.25196850393700787,
                    "duration": 0.09009863333332646
                },
                {
                    "name": "G#4",
                    "midi": 68,
                    "time": 208.08042266666922,
                    "velocity": 0.2125984251968504,
                    "duration": 0.09009863333332646
                },
                {
                    "name": "B4",
                    "midi": 71,
                    "time": 208.08042266666922,
                    "velocity": 0.25196850393700787,
                    "duration": 0.09009863333332646
                },
                {
                    "name": "E5",
                    "midi": 76,
                    "time": 208.1752633333359,
                    "velocity": 0.25196850393700787,
                    "duration": 0.09009863333332646
                },
                {
                    "name": "G#4",
                    "midi": 68,
                    "time": 208.1752633333359,
                    "velocity": 0.2125984251968504,
                    "duration": 0.09009863333332646
                },
                {
                    "name": "B4",
                    "midi": 71,
                    "time": 208.1752633333359,
                    "velocity": 0.25196850393700787,
                    "duration": 0.09009863333332646
                },
                {
                    "name": "G#5",
                    "midi": 80,
                    "time": 208.27010400000256,
                    "velocity": 0.4251968503937008,
                    "duration": 0.5690440000000194
                },
                {
                    "name": "G#4",
                    "midi": 68,
                    "time": 208.36494466666923,
                    "velocity": 0.2047244094488189,
                    "duration": 0.09009863333332646
                },
                {
                    "name": "B4",
                    "midi": 71,
                    "time": 208.36494466666923,
                    "velocity": 0.2047244094488189,
                    "duration": 0.09009863333332646
                },
                {
                    "name": "E5",
                    "midi": 76,
                    "time": 208.36494466666923,
                    "velocity": 0.2440944881889764,
                    "duration": 0.09009863333332646
                },
                {
                    "name": "G#4",
                    "midi": 68,
                    "time": 208.4597853333359,
                    "velocity": 0.2047244094488189,
                    "duration": 0.09009863333332646
                },
                {
                    "name": "B4",
                    "midi": 71,
                    "time": 208.4597853333359,
                    "velocity": 0.2047244094488189,
                    "duration": 0.09009863333332646
                },
                {
                    "name": "E5",
                    "midi": 76,
                    "time": 208.4597853333359,
                    "velocity": 0.2440944881889764,
                    "duration": 0.09009863333332646
                },
                {
                    "name": "G#4",
                    "midi": 68,
                    "time": 208.55462600000257,
                    "velocity": 0.2047244094488189,
                    "duration": 0.09009863333332646
                },
                {
                    "name": "B4",
                    "midi": 71,
                    "time": 208.55462600000257,
                    "velocity": 0.2047244094488189,
                    "duration": 0.09009863333332646
                },
                {
                    "name": "E5",
                    "midi": 76,
                    "time": 208.55462600000257,
                    "velocity": 0.2440944881889764,
                    "duration": 0.09009863333332646
                },
                {
                    "name": "G#4",
                    "midi": 68,
                    "time": 208.64946666666924,
                    "velocity": 0.2047244094488189,
                    "duration": 0.09009863333332646
                },
                {
                    "name": "B4",
                    "midi": 71,
                    "time": 208.64946666666924,
                    "velocity": 0.2047244094488189,
                    "duration": 0.09009863333332646
                },
                {
                    "name": "E5",
                    "midi": 76,
                    "time": 208.64946666666924,
                    "velocity": 0.2440944881889764,
                    "duration": 0.09009863333332646
                },
                {
                    "name": "G#4",
                    "midi": 68,
                    "time": 208.7443073333359,
                    "velocity": 0.2125984251968504,
                    "duration": 0.09009863333332646
                },
                {
                    "name": "B4",
                    "midi": 71,
                    "time": 208.7443073333359,
                    "velocity": 0.2125984251968504,
                    "duration": 0.09009863333332646
                },
                {
                    "name": "E5",
                    "midi": 76,
                    "time": 208.7443073333359,
                    "velocity": 0.25196850393700787,
                    "duration": 0.09009863333332646
                },
                {
                    "name": "A4",
                    "midi": 69,
                    "time": 208.83914800000258,
                    "velocity": 0.3228346456692913,
                    "duration": 0.14226099999999064
                },
                {
                    "name": "C#5",
                    "midi": 73,
                    "time": 208.83914800000258,
                    "velocity": 0.3228346456692913,
                    "duration": 0.14226099999999064
                },
                {
                    "name": "E5",
                    "midi": 76,
                    "time": 208.83914800000258,
                    "velocity": 0.3228346456692913,
                    "duration": 0.14226099999999064
                },
                {
                    "name": "A5",
                    "midi": 81,
                    "time": 208.83914800000258,
                    "velocity": 0.3858267716535433,
                    "duration": 0.14226099999999064
                },
                {
                    "name": "E5",
                    "midi": 76,
                    "time": 209.12367000000256,
                    "velocity": 0.4094488188976378,
                    "duration": 0.2845220000000097
                },
                {
                    "name": "E5",
                    "midi": 76,
                    "time": 209.40819200000257,
                    "velocity": 0.4251968503937008,
                    "duration": 0.42678300000000036
                },
                {
                    "name": "D5",
                    "midi": 74,
                    "time": 209.83497500000257,
                    "velocity": 0.4015748031496063,
                    "duration": 0.14226099999999064
                },
                {
                    "name": "C#5",
                    "midi": 73,
                    "time": 209.97723600000256,
                    "velocity": 0.4015748031496063,
                    "duration": 0.14226099999999064
                },
                {
                    "name": "C#5",
                    "midi": 73,
                    "time": 210.26175800000254,
                    "velocity": 0.4094488188976378,
                    "duration": 0.2845220000000097
                },
                {
                    "name": "C#5",
                    "midi": 73,
                    "time": 210.54628000000255,
                    "velocity": 0.4251968503937008,
                    "duration": 0.42678300000000036
                },
                {
                    "name": "B4",
                    "midi": 71,
                    "time": 210.97306300000255,
                    "velocity": 0.4015748031496063,
                    "duration": 0.14226099999999064
                },
                {
                    "name": "A#4",
                    "midi": 70,
                    "time": 211.11532400000254,
                    "velocity": 0.4015748031496063,
                    "duration": 0.14226099999999064
                },
                {
                    "name": "F#4",
                    "midi": 66,
                    "time": 211.39984600000253,
                    "velocity": 0.4094488188976378,
                    "duration": 0.2845220000000097
                },
                {
                    "name": "A#4",
                    "midi": 70,
                    "time": 211.39984600000253,
                    "velocity": 0.4094488188976378,
                    "duration": 0.2845220000000097
                },
                {
                    "name": "F#4",
                    "midi": 66,
                    "time": 211.68436800000254,
                    "velocity": 0.3464566929133858,
                    "duration": 0.2845220000000097
                },
                {
                    "name": "A#4",
                    "midi": 70,
                    "time": 211.68436800000254,
                    "velocity": 0.4094488188976378,
                    "duration": 0.2845220000000097
                },
                {
                    "name": "F#4",
                    "midi": 66,
                    "time": 211.96889000000255,
                    "velocity": 0.3700787401574803,
                    "duration": 0.2845220000000097
                },
                {
                    "name": "B4",
                    "midi": 71,
                    "time": 211.96889000000255,
                    "velocity": 0.4330708661417323,
                    "duration": 0.2845220000000097
                },
                {
                    "name": "F#4",
                    "midi": 66,
                    "time": 212.25341200000256,
                    "velocity": 0.3700787401574803,
                    "duration": 0.2845220000000097
                },
                {
                    "name": "A#4",
                    "midi": 70,
                    "time": 212.25341200000256,
                    "velocity": 0.3700787401574803,
                    "duration": 0.2845220000000097
                },
                {
                    "name": "C#5",
                    "midi": 73,
                    "time": 212.25341200000256,
                    "velocity": 0.4409448818897638,
                    "duration": 0.2845220000000097
                },
                {
                    "name": "F#4",
                    "midi": 66,
                    "time": 212.53793400000256,
                    "velocity": 0.3779527559055118,
                    "duration": 0.2845220000000097
                },
                {
                    "name": "B4",
                    "midi": 71,
                    "time": 212.53793400000256,
                    "velocity": 0.3779527559055118,
                    "duration": 0.2845220000000097
                },
                {
                    "name": "D5",
                    "midi": 74,
                    "time": 212.53793400000256,
                    "velocity": 0.44881889763779526,
                    "duration": 0.2845220000000097
                },
                {
                    "name": "F#4",
                    "midi": 66,
                    "time": 212.82245600000257,
                    "velocity": 0.3937007874015748,
                    "duration": 0.2845220000000097
                },
                {
                    "name": "C#5",
                    "midi": 73,
                    "time": 212.82245600000257,
                    "velocity": 0.3937007874015748,
                    "duration": 0.2845220000000097
                },
                {
                    "name": "E5",
                    "midi": 76,
                    "time": 212.82245600000257,
                    "velocity": 0.4645669291338583,
                    "duration": 0.2845220000000097
                },
                {
                    "name": "G4",
                    "midi": 67,
                    "time": 213.10697800000258,
                    "velocity": 0.4015748031496063,
                    "duration": 0.2845220000000097
                },
                {
                    "name": "C#5",
                    "midi": 73,
                    "time": 213.10697800000258,
                    "velocity": 0.4015748031496063,
                    "duration": 0.2845220000000097
                },
                {
                    "name": "E5",
                    "midi": 76,
                    "time": 213.10697800000258,
                    "velocity": 0.47244094488188976,
                    "duration": 0.2845220000000097
                },
                {
                    "name": "G#4",
                    "midi": 68,
                    "time": 213.3915000000026,
                    "velocity": 0.4094488188976378,
                    "duration": 0.2845220000000097
                },
                {
                    "name": "C#5",
                    "midi": 73,
                    "time": 213.3915000000026,
                    "velocity": 0.4094488188976378,
                    "duration": 0.2845220000000097
                },
                {
                    "name": "E5",
                    "midi": 76,
                    "time": 213.3915000000026,
                    "velocity": 0.48031496062992124,
                    "duration": 0.2845220000000097
                },
                {
                    "name": "A4",
                    "midi": 69,
                    "time": 213.6760220000026,
                    "velocity": 0.41732283464566927,
                    "duration": 0.2845220000000097
                },
                {
                    "name": "C#5",
                    "midi": 73,
                    "time": 213.6760220000026,
                    "velocity": 0.41732283464566927,
                    "duration": 0.2845220000000097
                },
                {
                    "name": "E5",
                    "midi": 76,
                    "time": 213.6760220000026,
                    "velocity": 0.49606299212598426,
                    "duration": 0.2845220000000097
                },
                {
                    "name": "E5",
                    "midi": 76,
                    "time": 213.9605440000026,
                    "velocity": 0.4645669291338583,
                    "duration": 0.3556524999999908
                },
                {
                    "name": "F5",
                    "midi": 77,
                    "time": 214.3161965000026,
                    "velocity": 0.4015748031496063,
                    "duration": 0.07113050000000953
                },
                {
                    "name": "E5",
                    "midi": 76,
                    "time": 214.3873270000026,
                    "velocity": 0.41732283464566927,
                    "duration": 0.07113050000000953
                },
                {
                    "name": "D5",
                    "midi": 74,
                    "time": 214.45845750000262,
                    "velocity": 0.4015748031496063,
                    "duration": 0.07113050000000953
                },
                {
                    "name": "C#5",
                    "midi": 73,
                    "time": 214.52958800000263,
                    "velocity": 0.4409448818897638,
                    "duration": 0.14226099999999064
                },
                {
                    "name": "C#5",
                    "midi": 73,
                    "time": 214.81411000000261,
                    "velocity": 0.44881889763779526,
                    "duration": 0.2845220000000097
                },
                {
                    "name": "C#5",
                    "midi": 73,
                    "time": 215.09863200000262,
                    "velocity": 0.4645669291338583,
                    "duration": 0.3556524999999908
                },
                {
                    "name": "D5",
                    "midi": 74,
                    "time": 215.45428450000261,
                    "velocity": 0.41732283464566927,
                    "duration": 0.07113050000000953
                },
                {
                    "name": "C#5",
                    "midi": 73,
                    "time": 215.52541500000262,
                    "velocity": 0.41732283464566927,
                    "duration": 0.07113050000000953
                },
                {
                    "name": "B4",
                    "midi": 71,
                    "time": 215.59654550000263,
                    "velocity": 0.41732283464566927,
                    "duration": 0.07113050000000953
                },
                {
                    "name": "A#4",
                    "midi": 70,
                    "time": 215.66767600000264,
                    "velocity": 0.4409448818897638,
                    "duration": 0.14226099999999064
                },
                {
                    "name": "F#4",
                    "midi": 66,
                    "time": 215.95219800000262,
                    "velocity": 0.44881889763779526,
                    "duration": 0.2845220000000097
                },
                {
                    "name": "A#4",
                    "midi": 70,
                    "time": 215.95219800000262,
                    "velocity": 0.44881889763779526,
                    "duration": 0.2845220000000097
                },
                {
                    "name": "F#4",
                    "midi": 66,
                    "time": 216.23672000000263,
                    "velocity": 0.3779527559055118,
                    "duration": 0.21339150000000018
                },
                {
                    "name": "A#4",
                    "midi": 70,
                    "time": 216.23672000000263,
                    "velocity": 0.44881889763779526,
                    "duration": 0.21339150000000018
                },
                {
                    "name": "F#4",
                    "midi": 66,
                    "time": 216.45011150000263,
                    "velocity": 0.3779527559055118,
                    "duration": 0.07113050000000953
                },
                {
                    "name": "A#4",
                    "midi": 70,
                    "time": 216.45011150000263,
                    "velocity": 0.44881889763779526,
                    "duration": 0.07113050000000953
                },
                {
                    "name": "F#4",
                    "midi": 66,
                    "time": 216.52124200000264,
                    "velocity": 0.4015748031496063,
                    "duration": 0.21339150000000018
                },
                {
                    "name": "B4",
                    "midi": 71,
                    "time": 216.52124200000264,
                    "velocity": 0.47244094488188976,
                    "duration": 0.21339150000000018
                },
                {
                    "name": "F#4",
                    "midi": 66,
                    "time": 216.73463350000264,
                    "velocity": 0.4015748031496063,
                    "duration": 0.07113050000000953
                },
                {
                    "name": "B4",
                    "midi": 71,
                    "time": 216.73463350000264,
                    "velocity": 0.47244094488188976,
                    "duration": 0.07113050000000953
                },
                {
                    "name": "F#4",
                    "midi": 66,
                    "time": 216.80576400000265,
                    "velocity": 0.4015748031496063,
                    "duration": 0.21339150000000018
                },
                {
                    "name": "A#4",
                    "midi": 70,
                    "time": 216.80576400000265,
                    "velocity": 0.4015748031496063,
                    "duration": 0.21339150000000018
                },
                {
                    "name": "C#5",
                    "midi": 73,
                    "time": 216.80576400000265,
                    "velocity": 0.48031496062992124,
                    "duration": 0.21339150000000018
                },
                {
                    "name": "F#4",
                    "midi": 66,
                    "time": 217.01915550000265,
                    "velocity": 0.4015748031496063,
                    "duration": 0.07113050000000953
                },
                {
                    "name": "A#4",
                    "midi": 70,
                    "time": 217.01915550000265,
                    "velocity": 0.4015748031496063,
                    "duration": 0.07113050000000953
                },
                {
                    "name": "C#5",
                    "midi": 73,
                    "time": 217.01915550000265,
                    "velocity": 0.48031496062992124,
                    "duration": 0.07113050000000953
                },
                {
                    "name": "F#4",
                    "midi": 66,
                    "time": 217.09028600000266,
                    "velocity": 0.4094488188976378,
                    "duration": 0.21339150000000018
                },
                {
                    "name": "B4",
                    "midi": 71,
                    "time": 217.09028600000266,
                    "velocity": 0.4094488188976378,
                    "duration": 0.21339150000000018
                },
                {
                    "name": "D5",
                    "midi": 74,
                    "time": 217.09028600000266,
                    "velocity": 0.4881889763779528,
                    "duration": 0.21339150000000018
                },
                {
                    "name": "F#4",
                    "midi": 66,
                    "time": 217.30367750000266,
                    "velocity": 0.4094488188976378,
                    "duration": 0.07113050000000953
                },
                {
                    "name": "B4",
                    "midi": 71,
                    "time": 217.30367750000266,
                    "velocity": 0.4094488188976378,
                    "duration": 0.07113050000000953
                },
                {
                    "name": "D5",
                    "midi": 74,
                    "time": 217.30367750000266,
                    "velocity": 0.4881889763779528,
                    "duration": 0.07113050000000953
                },
                {
                    "name": "F#4",
                    "midi": 66,
                    "time": 217.37480800000267,
                    "velocity": 0.4330708661417323,
                    "duration": 0.21339150000000018
                },
                {
                    "name": "C#5",
                    "midi": 73,
                    "time": 217.37480800000267,
                    "velocity": 0.4330708661417323,
                    "duration": 0.21339150000000018
                },
                {
                    "name": "E5",
                    "midi": 76,
                    "time": 217.37480800000267,
                    "velocity": 0.5039370078740157,
                    "duration": 0.21339150000000018
                },
                {
                    "name": "F#4",
                    "midi": 66,
                    "time": 217.58819950000267,
                    "velocity": 0.4330708661417323,
                    "duration": 0.07113050000000953
                },
                {
                    "name": "C#5",
                    "midi": 73,
                    "time": 217.58819950000267,
                    "velocity": 0.4330708661417323,
                    "duration": 0.07113050000000953
                },
                {
                    "name": "E5",
                    "midi": 76,
                    "time": 217.58819950000267,
                    "velocity": 0.5039370078740157,
                    "duration": 0.07113050000000953
                },
                {
                    "name": "G4",
                    "midi": 67,
                    "time": 217.65933000000268,
                    "velocity": 0.4409448818897638,
                    "duration": 0.21339150000000018
                },
                {
                    "name": "C#5",
                    "midi": 73,
                    "time": 217.65933000000268,
                    "velocity": 0.4409448818897638,
                    "duration": 0.21339150000000018
                },
                {
                    "name": "E5",
                    "midi": 76,
                    "time": 217.65933000000268,
                    "velocity": 0.5196850393700787,
                    "duration": 0.21339150000000018
                },
                {
                    "name": "G4",
                    "midi": 67,
                    "time": 217.87272150000268,
                    "velocity": 0.4409448818897638,
                    "duration": 0.07113050000000953
                },
                {
                    "name": "C#5",
                    "midi": 73,
                    "time": 217.87272150000268,
                    "velocity": 0.4409448818897638,
                    "duration": 0.07113050000000953
                },
                {
                    "name": "E5",
                    "midi": 76,
                    "time": 217.87272150000268,
                    "velocity": 0.5196850393700787,
                    "duration": 0.07113050000000953
                },
                {
                    "name": "G#4",
                    "midi": 68,
                    "time": 217.9438520000027,
                    "velocity": 0.44881889763779526,
                    "duration": 0.21339150000000018
                },
                {
                    "name": "C#5",
                    "midi": 73,
                    "time": 217.9438520000027,
                    "velocity": 0.44881889763779526,
                    "duration": 0.21339150000000018
                },
                {
                    "name": "E5",
                    "midi": 76,
                    "time": 217.9438520000027,
                    "velocity": 0.5275590551181102,
                    "duration": 0.21339150000000018
                },
                {
                    "name": "G#4",
                    "midi": 68,
                    "time": 218.1572435000027,
                    "velocity": 0.44881889763779526,
                    "duration": 0.07113050000000953
                },
                {
                    "name": "C#5",
                    "midi": 73,
                    "time": 218.1572435000027,
                    "velocity": 0.44881889763779526,
                    "duration": 0.07113050000000953
                },
                {
                    "name": "E5",
                    "midi": 76,
                    "time": 218.1572435000027,
                    "velocity": 0.5275590551181102,
                    "duration": 0.07113050000000953
                },
                {
                    "name": "A4",
                    "midi": 69,
                    "time": 218.2283740000027,
                    "velocity": 0.4566929133858268,
                    "duration": 0.2845220000000097
                },
                {
                    "name": "C#5",
                    "midi": 73,
                    "time": 218.2283740000027,
                    "velocity": 0.4566929133858268,
                    "duration": 0.2845220000000097
                },
                {
                    "name": "E5",
                    "midi": 76,
                    "time": 218.2283740000027,
                    "velocity": 0.5433070866141733,
                    "duration": 0.2845220000000097
                },
                {
                    "name": "E5",
                    "midi": 76,
                    "time": 218.5128960000027,
                    "velocity": 0.4645669291338583,
                    "duration": 0.4979135000000099
                },
                {
                    "name": "D5",
                    "midi": 74,
                    "time": 219.01080950000272,
                    "velocity": 0.4409448818897638,
                    "duration": 0.07113050000000953
                },
                {
                    "name": "C#5",
                    "midi": 73,
                    "time": 219.08194000000273,
                    "velocity": 0.4409448818897638,
                    "duration": 0.14226099999999064
                },
                {
                    "name": "C#5",
                    "midi": 73,
                    "time": 219.3664620000027,
                    "velocity": 0.44881889763779526,
                    "duration": 0.2845219999999813
                },
                {
                    "name": "E5",
                    "midi": 76,
                    "time": 219.6154187500027,
                    "velocity": 0.3858267716535433,
                    "duration": 0.035565249999990556
                },
                {
                    "name": "D5",
                    "midi": 74,
                    "time": 219.6509840000027,
                    "velocity": 0.47244094488188976,
                    "duration": 0.07113050000000953
                },
                {
                    "name": "C#5",
                    "midi": 73,
                    "time": 219.7221145000027,
                    "velocity": 0.44881889763779526,
                    "duration": 0.07113050000000953
                },
                {
                    "name": "D5",
                    "midi": 74,
                    "time": 219.7932450000027,
                    "velocity": 0.44881889763779526,
                    "duration": 0.07113050000000953
                },
                {
                    "name": "E5",
                    "midi": 76,
                    "time": 219.86437550000272,
                    "velocity": 0.44881889763779526,
                    "duration": 0.07113049999998111
                },
                {
                    "name": "G5",
                    "midi": 79,
                    "time": 219.8999407500027,
                    "velocity": 0.3858267716535433,
                    "duration": 0.035565249999990556
                },
                {
                    "name": "F5",
                    "midi": 77,
                    "time": 219.9355060000027,
                    "velocity": 0.47244094488188976,
                    "duration": 0.07113050000000953
                },
                {
                    "name": "E5",
                    "midi": 76,
                    "time": 220.0066365000027,
                    "velocity": 0.44881889763779526,
                    "duration": 0.07113050000000953
                },
                {
                    "name": "F5",
                    "midi": 77,
                    "time": 220.07776700000272,
                    "velocity": 0.44881889763779526,
                    "duration": 0.07113050000000953
                },
                {
                    "name": "G5",
                    "midi": 79,
                    "time": 220.14889750000273,
                    "velocity": 0.44881889763779526,
                    "duration": 0.07113050000000953
                },
                {
                    "name": "A5",
                    "midi": 81,
                    "time": 220.22002800000274,
                    "velocity": 0.4645669291338583,
                    "duration": 0.14226099999999064
                },
                {
                    "name": "A5",
                    "midi": 81,
                    "time": 220.50455000000272,
                    "velocity": 0.4645669291338583,
                    "duration": 0.14226099999999064
                },
                {
                    "name": "F5",
                    "midi": 77,
                    "time": 220.6468110000027,
                    "velocity": 0.44881889763779526,
                    "duration": 0.14226099999999064
                },
                {
                    "name": "E5",
                    "midi": 76,
                    "time": 220.7890720000027,
                    "velocity": 0.4645669291338583,
                    "duration": 0.4979135000000099
                },
                {
                    "name": "D5",
                    "midi": 74,
                    "time": 221.28698550000271,
                    "velocity": 0.4409448818897638,
                    "duration": 0.07113050000000953
                },
                {
                    "name": "C#5",
                    "midi": 73,
                    "time": 221.35811600000272,
                    "velocity": 0.4409448818897638,
                    "duration": 0.14226099999999064
                },
                {
                    "name": "C#6",
                    "midi": 85,
                    "time": 221.6426380000027,
                    "velocity": 0.49606299212598426,
                    "duration": 0.2845220000000097
                },
                {
                    "name": "C#5",
                    "midi": 73,
                    "time": 221.6426380000027,
                    "velocity": 0.49606299212598426,
                    "duration": 0.2845220000000097
                },
                {
                    "name": "D5",
                    "midi": 74,
                    "time": 221.92716000000271,
                    "velocity": 0.49606299212598426,
                    "duration": 0.14226099999999064
                },
                {
                    "name": "D6",
                    "midi": 86,
                    "time": 221.92716000000271,
                    "velocity": 0.49606299212598426,
                    "duration": 0.14226099999999064
                },
                {
                    "name": "F5",
                    "midi": 77,
                    "time": 222.0694210000027,
                    "velocity": 0.5039370078740157,
                    "duration": 0.14226099999999064
                },
                {
                    "name": "F6",
                    "midi": 89,
                    "time": 222.0694210000027,
                    "velocity": 0.5039370078740157,
                    "duration": 0.14226099999999064
                },
                {
                    "name": "G5",
                    "midi": 79,
                    "time": 222.2116820000027,
                    "velocity": 0.5039370078740157,
                    "duration": 0.14226099999999064
                },
                {
                    "name": "G6",
                    "midi": 91,
                    "time": 222.2116820000027,
                    "velocity": 0.5039370078740157,
                    "duration": 0.14226099999999064
                },
                {
                    "name": "A5",
                    "midi": 81,
                    "time": 222.3539430000027,
                    "velocity": 0.5118110236220472,
                    "duration": 0.14226099999999064
                },
                {
                    "name": "A6",
                    "midi": 93,
                    "time": 222.3539430000027,
                    "velocity": 0.5118110236220472,
                    "duration": 0.14226099999999064
                },
                {
                    "name": "A#5",
                    "midi": 82,
                    "time": 222.49620400000268,
                    "velocity": 0.5196850393700787,
                    "duration": 0.2845220000000097
                },
                {
                    "name": "A#6",
                    "midi": 94,
                    "time": 222.49620400000268,
                    "velocity": 0.5196850393700787,
                    "duration": 0.2845220000000097
                },
                {
                    "name": "G6",
                    "midi": 91,
                    "time": 222.7807260000027,
                    "velocity": 0.5433070866141733,
                    "duration": 0.2845220000000097
                },
                {
                    "name": "G5",
                    "midi": 79,
                    "time": 222.7807260000027,
                    "velocity": 0.5433070866141733,
                    "duration": 0.2845220000000097
                },
                {
                    "name": "F6",
                    "midi": 89,
                    "time": 223.0652480000027,
                    "velocity": 0.5511811023622047,
                    "duration": 0.2845220000000097
                },
                {
                    "name": "F5",
                    "midi": 77,
                    "time": 223.0652480000027,
                    "velocity": 0.5511811023622047,
                    "duration": 0.2845220000000097
                },
                {
                    "name": "D#6",
                    "midi": 87,
                    "time": 223.3497700000027,
                    "velocity": 0.5433070866141733,
                    "duration": 0.2845220000000097
                },
                {
                    "name": "D#5",
                    "midi": 75,
                    "time": 223.3497700000027,
                    "velocity": 0.5433070866141733,
                    "duration": 0.2845220000000097
                },
                {
                    "name": "D6",
                    "midi": 86,
                    "time": 223.63429200000272,
                    "velocity": 0.5196850393700787,
                    "duration": 0.2845220000000097
                },
                {
                    "name": "D5",
                    "midi": 74,
                    "time": 223.63429200000272,
                    "velocity": 0.5196850393700787,
                    "duration": 0.2845220000000097
                },
                {
                    "name": "C6",
                    "midi": 84,
                    "time": 223.91881400000273,
                    "velocity": 0.5118110236220472,
                    "duration": 0.2845220000000097
                },
                {
                    "name": "C5",
                    "midi": 72,
                    "time": 223.91881400000273,
                    "velocity": 0.5118110236220472,
                    "duration": 0.2845220000000097
                },
                {
                    "name": "B4",
                    "midi": 71,
                    "time": 224.20333600000274,
                    "velocity": 0.48031496062992124,
                    "duration": 1.280349000000001
                },
                {
                    "name": "B5",
                    "midi": 83,
                    "time": 224.20333600000274,
                    "velocity": 0.48031496062992124,
                    "duration": 1.280349000000001
                },
                {
                    "name": "B4",
                    "midi": 71,
                    "time": 225.48368500000274,
                    "velocity": 0.4015748031496063,
                    "duration": 0.1351479500000039
                },
                {
                    "name": "B4",
                    "midi": 71,
                    "time": 225.62594600000273,
                    "velocity": 0.4015748031496063,
                    "duration": 0.1351479500000039
                },
                {
                    "name": "B4",
                    "midi": 71,
                    "time": 225.76820700000272,
                    "velocity": 0.4015748031496063,
                    "duration": 0.1351479500000039
                },
                {
                    "name": "B4",
                    "midi": 71,
                    "time": 225.9104680000027,
                    "velocity": 0.3937007874015748,
                    "duration": 0.1351479500000039
                },
                {
                    "name": "B4",
                    "midi": 71,
                    "time": 226.0527290000027,
                    "velocity": 0.3937007874015748,
                    "duration": 0.1351479500000039
                },
                {
                    "name": "B4",
                    "midi": 71,
                    "time": 226.1949900000027,
                    "velocity": 0.3937007874015748,
                    "duration": 0.1351479500000039
                },
                {
                    "name": "B4",
                    "midi": 71,
                    "time": 226.33725100000268,
                    "velocity": 0.3937007874015748,
                    "duration": 0.1351479500000039
                },
                {
                    "name": "C5",
                    "midi": 72,
                    "time": 226.47951200000267,
                    "velocity": 0.41732283464566927,
                    "duration": 0.4979135000000099
                },
                {
                    "name": "D5",
                    "midi": 74,
                    "time": 226.97742550000268,
                    "velocity": 0.3700787401574803,
                    "duration": 0.07113050000000953
                },
                {
                    "name": "C5",
                    "midi": 72,
                    "time": 227.0485560000027,
                    "velocity": 0.4094488188976378,
                    "duration": 0.14226099999999064
                },
                {
                    "name": "F5",
                    "midi": 77,
                    "time": 227.33307800000267,
                    "velocity": 0.3858267716535433,
                    "duration": 0.035565249999990556
                },
                {
                    "name": "G5",
                    "midi": 79,
                    "time": 227.36864325000266,
                    "velocity": 0.33858267716535434,
                    "duration": 0.035565249999990556
                },
                {
                    "name": "F5",
                    "midi": 77,
                    "time": 227.40420850000265,
                    "velocity": 0.3464566929133858,
                    "duration": 0.035565249999990556
                },
                {
                    "name": "G5",
                    "midi": 79,
                    "time": 227.43977375000264,
                    "velocity": 0.3464566929133858,
                    "duration": 0.035565249999990556
                },
                {
                    "name": "F5",
                    "midi": 77,
                    "time": 227.47533900000263,
                    "velocity": 0.3464566929133858,
                    "duration": 0.035565249999990556
                },
                {
                    "name": "G5",
                    "midi": 79,
                    "time": 227.51090425000262,
                    "velocity": 0.36220472440944884,
                    "duration": 0.035565249999990556
                },
                {
                    "name": "E5",
                    "midi": 76,
                    "time": 227.54646950000262,
                    "velocity": 0.4015748031496063,
                    "duration": 0.035565249999990556
                },
                {
                    "name": "F5",
                    "midi": 77,
                    "time": 227.5820347500026,
                    "velocity": 0.3464566929133858,
                    "duration": 0.035565249999990556
                },
                {
                    "name": "A5",
                    "midi": 81,
                    "time": 227.6176000000026,
                    "velocity": 0.4566929133858268,
                    "duration": 0.4979135000000099
                },
                {
                    "name": "A4",
                    "midi": 69,
                    "time": 227.6176000000026,
                    "velocity": 0.36220472440944884,
                    "duration": 0.4979135000000099
                },
                {
                    "name": "G4",
                    "midi": 67,
                    "time": 228.1155135000026,
                    "velocity": 0.31496062992125984,
                    "duration": 0.07113050000000953
                },
                {
                    "name": "G5",
                    "midi": 79,
                    "time": 228.1155135000026,
                    "velocity": 0.4015748031496063,
                    "duration": 0.07113050000000953
                },
                {
                    "name": "F4",
                    "midi": 65,
                    "time": 228.18664400000262,
                    "velocity": 0.33858267716535434,
                    "duration": 0.14226099999999064
                },
                {
                    "name": "F5",
                    "midi": 77,
                    "time": 228.18664400000262,
                    "velocity": 0.41732283464566927,
                    "duration": 0.14226099999999064
                },
                {
                    "name": "D5",
                    "midi": 74,
                    "time": 228.4711660000026,
                    "velocity": 0.4251968503937008,
                    "duration": 0.2845220000000097
                },
                {
                    "name": "C5",
                    "midi": 72,
                    "time": 228.7556880000026,
                    "velocity": 0.4566929133858268,
                    "duration": 0.4979135000000099
                },
                {
                    "name": "D5",
                    "midi": 74,
                    "time": 229.25360150000262,
                    "velocity": 0.41732283464566927,
                    "duration": 0.07113050000000953
                },
                {
                    "name": "C5",
                    "midi": 72,
                    "time": 229.32473200000263,
                    "velocity": 0.47244094488188976,
                    "duration": 0.14226099999999064
                },
                {
                    "name": "F6",
                    "midi": 89,
                    "time": 229.6092540000026,
                    "velocity": 0.41732283464566927,
                    "duration": 0.035565249999990556
                },
                {
                    "name": "G6",
                    "midi": 91,
                    "time": 229.6448192500026,
                    "velocity": 0.3700787401574803,
                    "duration": 0.035565249999990556
                },
                {
                    "name": "F6",
                    "midi": 89,
                    "time": 229.6803845000026,
                    "velocity": 0.3779527559055118,
                    "duration": 0.035565249999990556
                },
                {
                    "name": "G6",
                    "midi": 91,
                    "time": 229.71594975000258,
                    "velocity": 0.3779527559055118,
                    "duration": 0.035565249999990556
                },
                {
                    "name": "F6",
                    "midi": 89,
                    "time": 229.75151500000257,
                    "velocity": 0.3779527559055118,
                    "duration": 0.035565249999990556
                },
                {
                    "name": "G6",
                    "midi": 91,
                    "time": 229.78708025000256,
                    "velocity": 0.3937007874015748,
                    "duration": 0.035565249999990556
                },
                {
                    "name": "E6",
                    "midi": 88,
                    "time": 229.82264550000255,
                    "velocity": 0.4330708661417323,
                    "duration": 0.035565249999990556
                },
                {
                    "name": "F6",
                    "midi": 89,
                    "time": 229.85821075000254,
                    "velocity": 0.3779527559055118,
                    "duration": 0.035565249999990556
                },
                {
                    "name": "A6",
                    "midi": 93,
                    "time": 229.89377600000253,
                    "velocity": 0.5433070866141733,
                    "duration": 0.4979135000000099
                },
                {
                    "name": "A5",
                    "midi": 81,
                    "time": 229.89377600000253,
                    "velocity": 0.49606299212598426,
                    "duration": 0.4979135000000099
                },
                {
                    "name": "G5",
                    "midi": 79,
                    "time": 230.39168950000254,
                    "velocity": 0.4881889763779528,
                    "duration": 0.07113050000000953
                },
                {
                    "name": "G6",
                    "midi": 91,
                    "time": 230.39168950000254,
                    "velocity": 0.4881889763779528,
                    "duration": 0.07113050000000953
                },
                {
                    "name": "F5",
                    "midi": 77,
                    "time": 230.46282000000255,
                    "velocity": 0.5275590551181102,
                    "duration": 0.14226099999999064
                },
                {
                    "name": "F6",
                    "midi": 89,
                    "time": 230.46282000000255,
                    "velocity": 0.5275590551181102,
                    "duration": 0.14226099999999064
                },
                {
                    "name": "D5",
                    "midi": 74,
                    "time": 230.74734200000253,
                    "velocity": 0.3779527559055118,
                    "duration": 0.2845220000000097
                },
                {
                    "name": "F5",
                    "midi": 77,
                    "time": 230.74734200000253,
                    "velocity": 0.3779527559055118,
                    "duration": 0.2845220000000097
                },
                {
                    "name": "A#5",
                    "midi": 82,
                    "time": 230.74734200000253,
                    "velocity": 0.5433070866141733,
                    "duration": 0.2845220000000097
                },
                {
                    "name": "D6",
                    "midi": 86,
                    "time": 230.74734200000253,
                    "velocity": 0.5433070866141733,
                    "duration": 0.2845220000000097
                },
                {
                    "name": "C5",
                    "midi": 72,
                    "time": 231.03186400000254,
                    "velocity": 0.4566929133858268,
                    "duration": 0.2845220000000097
                },
                {
                    "name": "F5",
                    "midi": 77,
                    "time": 231.03186400000254,
                    "velocity": 0.4566929133858268,
                    "duration": 0.2845220000000097
                },
                {
                    "name": "A5",
                    "midi": 81,
                    "time": 231.03186400000254,
                    "velocity": 0.5433070866141733,
                    "duration": 0.2845220000000097
                },
                {
                    "name": "C6",
                    "midi": 84,
                    "time": 231.03186400000254,
                    "velocity": 0.5433070866141733,
                    "duration": 0.2845220000000097
                },
                {
                    "name": "D5",
                    "midi": 74,
                    "time": 231.31638600000255,
                    "velocity": 0.48031496062992124,
                    "duration": 0.2845220000000097
                },
                {
                    "name": "F5",
                    "midi": 77,
                    "time": 231.31638600000255,
                    "velocity": 0.48031496062992124,
                    "duration": 0.2845220000000097
                },
                {
                    "name": "A#5",
                    "midi": 82,
                    "time": 231.31638600000255,
                    "velocity": 0.5669291338582677,
                    "duration": 0.2845220000000097
                },
                {
                    "name": "D6",
                    "midi": 86,
                    "time": 231.31638600000255,
                    "velocity": 0.5669291338582677,
                    "duration": 0.2845220000000097
                },
                {
                    "name": "F5",
                    "midi": 77,
                    "time": 231.60090800000256,
                    "velocity": 0.4881889763779528,
                    "duration": 0.2845220000000097
                },
                {
                    "name": "A5",
                    "midi": 81,
                    "time": 231.60090800000256,
                    "velocity": 0.4881889763779528,
                    "duration": 0.2845220000000097
                },
                {
                    "name": "C6",
                    "midi": 84,
                    "time": 231.60090800000256,
                    "velocity": 0.5826771653543307,
                    "duration": 0.2845220000000097
                },
                {
                    "name": "F6",
                    "midi": 89,
                    "time": 231.60090800000256,
                    "velocity": 0.5826771653543307,
                    "duration": 0.2845220000000097
                },
                {
                    "name": "G5",
                    "midi": 79,
                    "time": 231.88543000000257,
                    "velocity": 0.5196850393700787,
                    "duration": 0.2845220000000097
                },
                {
                    "name": "C6",
                    "midi": 84,
                    "time": 231.88543000000257,
                    "velocity": 0.5196850393700787,
                    "duration": 0.2845220000000097
                },
                {
                    "name": "E6",
                    "midi": 88,
                    "time": 231.88543000000257,
                    "velocity": 0.6141732283464567,
                    "duration": 0.2845220000000097
                },
                {
                    "name": "G6",
                    "midi": 91,
                    "time": 231.88543000000257,
                    "velocity": 0.6141732283464567,
                    "duration": 0.2845220000000097
                },
                {
                    "name": "G5",
                    "midi": 79,
                    "time": 232.16995200000258,
                    "velocity": 0.49606299212598426,
                    "duration": 0.569043999999991
                },
                {
                    "name": "C6",
                    "midi": 84,
                    "time": 232.16995200000258,
                    "velocity": 0.49606299212598426,
                    "duration": 0.569043999999991
                },
                {
                    "name": "E6",
                    "midi": 88,
                    "time": 232.16995200000258,
                    "velocity": 0.5905511811023622,
                    "duration": 0.569043999999991
                },
                {
                    "name": "G6",
                    "midi": 91,
                    "time": 232.16995200000258,
                    "velocity": 0.5905511811023622,
                    "duration": 0.569043999999991
                },
                {
                    "name": "E6",
                    "midi": 88,
                    "time": 232.73899600000257,
                    "velocity": 0.49606299212598426,
                    "duration": 0.0948406666666699
                },
                {
                    "name": "C6",
                    "midi": 84,
                    "time": 232.83383666666924,
                    "velocity": 0.4251968503937008,
                    "duration": 0.0948406666666699
                },
                {
                    "name": "G5",
                    "midi": 79,
                    "time": 232.9286773333359,
                    "velocity": 0.4251968503937008,
                    "duration": 0.0948406666666699
                },
                {
                    "name": "E5",
                    "midi": 76,
                    "time": 233.02351800000258,
                    "velocity": 0.4251968503937008,
                    "duration": 0.0948406666666699
                },
                {
                    "name": "G5",
                    "midi": 79,
                    "time": 233.11835866666925,
                    "velocity": 0.4094488188976378,
                    "duration": 0.0948406666666699
                },
                {
                    "name": "C6",
                    "midi": 84,
                    "time": 233.21319933333592,
                    "velocity": 0.4015748031496063,
                    "duration": 0.0948406666666699
                },
                {
                    "name": "F5",
                    "midi": 77,
                    "time": 233.3080400000026,
                    "velocity": 0.41732283464566927,
                    "duration": 0.0948406666666699
                },
                {
                    "name": "C6",
                    "midi": 84,
                    "time": 233.40288066666926,
                    "velocity": 0.3858267716535433,
                    "duration": 0.0948406666666699
                },
                {
                    "name": "A5",
                    "midi": 81,
                    "time": 233.49772133333593,
                    "velocity": 0.3858267716535433,
                    "duration": 0.04742033333332074
                },
                {
                    "name": "F5",
                    "midi": 77,
                    "time": 233.59256200000257,
                    "velocity": 0.41732283464566927,
                    "duration": 0.04742033333332074
                },
                {
                    "name": "C5",
                    "midi": 72,
                    "time": 233.68740266666921,
                    "velocity": 0.3779527559055118,
                    "duration": 0.04742033333332074
                },
                {
                    "name": "A4",
                    "midi": 69,
                    "time": 233.78224333333586,
                    "velocity": 0.36220472440944884,
                    "duration": 0.04742033333332074
                },
                {
                    "name": "F4",
                    "midi": 65,
                    "time": 233.8770840000025,
                    "velocity": 0.4015748031496063,
                    "duration": 0.04742033333332074
                },
                {
                    "name": "A4",
                    "midi": 69,
                    "time": 233.97192466666914,
                    "velocity": 0.36220472440944884,
                    "duration": 0.04742033333332074
                },
                {
                    "name": "C5",
                    "midi": 72,
                    "time": 234.06676533333578,
                    "velocity": 0.36220472440944884,
                    "duration": 0.04742033333332074
                },
                {
                    "name": "A4",
                    "midi": 69,
                    "time": 234.16160600000242,
                    "velocity": 0.41732283464566927,
                    "duration": 0.04742033333332074
                },
                {
                    "name": "C5",
                    "midi": 72,
                    "time": 234.25644666666906,
                    "velocity": 0.3937007874015748,
                    "duration": 0.04742033333332074
                },
                {
                    "name": "F5",
                    "midi": 77,
                    "time": 234.3512873333357,
                    "velocity": 0.3937007874015748,
                    "duration": 0.04742033333332074
                },
                {
                    "name": "F5",
                    "midi": 77,
                    "time": 234.44612800000235,
                    "velocity": 0.41732283464566927,
                    "duration": 0.0948406666666699
                },
                {
                    "name": "D6",
                    "midi": 86,
                    "time": 234.54096866666902,
                    "velocity": 0.3858267716535433,
                    "duration": 0.0948406666666699
                },
                {
                    "name": "A#5",
                    "midi": 82,
                    "time": 234.6358093333357,
                    "velocity": 0.3858267716535433,
                    "duration": 0.04742033333332074
                },
                {
                    "name": "F5",
                    "midi": 77,
                    "time": 234.73065000000233,
                    "velocity": 0.41732283464566927,
                    "duration": 0.04742033333332074
                },
                {
                    "name": "D5",
                    "midi": 74,
                    "time": 234.82549066666897,
                    "velocity": 0.3779527559055118,
                    "duration": 0.04742033333332074
                },
                {
                    "name": "A#4",
                    "midi": 70,
                    "time": 234.9203313333356,
                    "velocity": 0.36220472440944884,
                    "duration": 0.04742033333332074
                },
                {
                    "name": "F4",
                    "midi": 65,
                    "time": 235.01517200000225,
                    "velocity": 0.4015748031496063,
                    "duration": 0.04742033333332074
                },
                {
                    "name": "A#4",
                    "midi": 70,
                    "time": 235.1100126666689,
                    "velocity": 0.36220472440944884,
                    "duration": 0.04742033333332074
                },
                {
                    "name": "D5",
                    "midi": 74,
                    "time": 235.20485333333554,
                    "velocity": 0.36220472440944884,
                    "duration": 0.04742033333332074
                },
                {
                    "name": "A#4",
                    "midi": 70,
                    "time": 235.29969400000218,
                    "velocity": 0.41732283464566927,
                    "duration": 0.04742033333332074
                },
                {
                    "name": "D5",
                    "midi": 74,
                    "time": 235.39453466666882,
                    "velocity": 0.3937007874015748,
                    "duration": 0.04742033333332074
                },
                {
                    "name": "F5",
                    "midi": 77,
                    "time": 235.48937533333546,
                    "velocity": 0.3937007874015748,
                    "duration": 0.04742033333332074
                },
                {
                    "name": "F5",
                    "midi": 77,
                    "time": 235.5842160000021,
                    "velocity": 0.41732283464566927,
                    "duration": 0.0948406666666699
                },
                {
                    "name": "F6",
                    "midi": 89,
                    "time": 235.67905666666877,
                    "velocity": 0.3858267716535433,
                    "duration": 0.0948406666666699
                },
                {
                    "name": "C6",
                    "midi": 84,
                    "time": 235.77389733333544,
                    "velocity": 0.3858267716535433,
                    "duration": 0.04742033333332074
                },
                {
                    "name": "A5",
                    "midi": 81,
                    "time": 235.86873800000208,
                    "velocity": 0.41732283464566927,
                    "duration": 0.04742033333332074
                },
                {
                    "name": "F5",
                    "midi": 77,
                    "time": 235.96357866666872,
                    "velocity": 0.3779527559055118,
                    "duration": 0.04742033333332074
                },
                {
                    "name": "C5",
                    "midi": 72,
                    "time": 236.05841933333537,
                    "velocity": 0.36220472440944884,
                    "duration": 0.04742033333332074
                },
                {
                    "name": "A4",
                    "midi": 69,
                    "time": 236.153260000002,
                    "velocity": 0.4015748031496063,
                    "duration": 0.04742033333332074
                },
                {
                    "name": "F4",
                    "midi": 65,
                    "time": 236.24810066666865,
                    "velocity": 0.36220472440944884,
                    "duration": 0.04742033333332074
                },
                {
                    "name": "C4",
                    "midi": 60,
                    "time": 236.3429413333353,
                    "velocity": 0.36220472440944884,
                    "duration": 0.04742033333332074
                },
                {
                    "name": "F4",
                    "midi": 65,
                    "time": 236.43778200000193,
                    "velocity": 0.41732283464566927,
                    "duration": 0.04742033333332074
                },
                {
                    "name": "A4",
                    "midi": 69,
                    "time": 236.53262266666857,
                    "velocity": 0.3937007874015748,
                    "duration": 0.04742033333332074
                },
                {
                    "name": "C5",
                    "midi": 72,
                    "time": 236.6274633333352,
                    "velocity": 0.3937007874015748,
                    "duration": 0.04742033333332074
                },
                {
                    "name": "C5",
                    "midi": 72,
                    "time": 236.72230400000186,
                    "velocity": 0.4015748031496063,
                    "duration": 0.0948406666666699
                },
                {
                    "name": "F5",
                    "midi": 77,
                    "time": 236.81714466666853,
                    "velocity": 0.3700787401574803,
                    "duration": 0.0948406666666699
                },
                {
                    "name": "F5",
                    "midi": 77,
                    "time": 236.9119853333352,
                    "velocity": 0.3700787401574803,
                    "duration": 0.04742033333332074
                },
                {
                    "name": "D5",
                    "midi": 74,
                    "time": 237.00682600000184,
                    "velocity": 0.4015748031496063,
                    "duration": 0.0948406666666699
                },
                {
                    "name": "G5",
                    "midi": 79,
                    "time": 237.1016666666685,
                    "velocity": 0.3779527559055118,
                    "duration": 0.0948406666666699
                },
                {
                    "name": "G5",
                    "midi": 79,
                    "time": 237.19650733333518,
                    "velocity": 0.3779527559055118,
                    "duration": 0.04742033333332074
                },
                {
                    "name": "C5",
                    "midi": 72,
                    "time": 237.29134800000182,
                    "velocity": 0.4015748031496063,
                    "duration": 0.0948406666666699
                },
                {
                    "name": "F5",
                    "midi": 77,
                    "time": 237.3861886666685,
                    "velocity": 0.3700787401574803,
                    "duration": 0.0948406666666699
                },
                {
                    "name": "F5",
                    "midi": 77,
                    "time": 237.48102933333516,
                    "velocity": 0.3700787401574803,
                    "duration": 0.04742033333332074
                },
                {
                    "name": "C5",
                    "midi": 72,
                    "time": 237.5758700000018,
                    "velocity": 0.4015748031496063,
                    "duration": 0.0948406666666699
                },
                {
                    "name": "E5",
                    "midi": 76,
                    "time": 237.67071066666847,
                    "velocity": 0.3700787401574803,
                    "duration": 0.0948406666666699
                },
                {
                    "name": "E5",
                    "midi": 76,
                    "time": 237.76555133333514,
                    "velocity": 0.3700787401574803,
                    "duration": 0.04742033333332074
                },
                {
                    "name": "C5",
                    "midi": 72,
                    "time": 237.86039200000178,
                    "velocity": 0.4015748031496063,
                    "duration": 0.0948406666666699
                },
                {
                    "name": "D#5",
                    "midi": 75,
                    "time": 237.95523266666845,
                    "velocity": 0.3700787401574803,
                    "duration": 0.0948406666666699
                },
                {
                    "name": "D#5",
                    "midi": 75,
                    "time": 238.05007333333512,
                    "velocity": 0.3700787401574803,
                    "duration": 0.04742033333332074
                },
                {
                    "name": "C5",
                    "midi": 72,
                    "time": 238.14491400000176,
                    "velocity": 0.4094488188976378,
                    "duration": 0.0948406666666699
                },
                {
                    "name": "D5",
                    "midi": 74,
                    "time": 238.23975466666843,
                    "velocity": 0.3937007874015748,
                    "duration": 0.0948406666666699
                },
                {
                    "name": "D5",
                    "midi": 74,
                    "time": 238.3345953333351,
                    "velocity": 0.3937007874015748,
                    "duration": 0.04742033333332074
                },
                {
                    "name": "F#4",
                    "midi": 66,
                    "time": 238.42943600000174,
                    "velocity": 0.36220472440944884,
                    "duration": 0.0948406666666699
                },
                {
                    "name": "A4",
                    "midi": 69,
                    "time": 238.42943600000174,
                    "velocity": 0.4251968503937008,
                    "duration": 0.0948406666666699
                },
                {
                    "name": "D#5",
                    "midi": 75,
                    "time": 238.5242766666684,
                    "velocity": 0.3937007874015748,
                    "duration": 0.0948406666666699
                },
                {
                    "name": "D#5",
                    "midi": 75,
                    "time": 238.61911733333508,
                    "velocity": 0.4015748031496063,
                    "duration": 0.04742033333332074
                },
                {
                    "name": "F#4",
                    "midi": 66,
                    "time": 238.71395800000172,
                    "velocity": 0.3700787401574803,
                    "duration": 0.0948406666666699
                },
                {
                    "name": "A4",
                    "midi": 69,
                    "time": 238.71395800000172,
                    "velocity": 0.4409448818897638,
                    "duration": 0.0948406666666699
                },
                {
                    "name": "D5",
                    "midi": 74,
                    "time": 238.8087986666684,
                    "velocity": 0.4094488188976378,
                    "duration": 0.0948406666666699
                },
                {
                    "name": "D5",
                    "midi": 74,
                    "time": 238.90363933333506,
                    "velocity": 0.41732283464566927,
                    "duration": 0.04742033333332074
                },
                {
                    "name": "F4",
                    "midi": 65,
                    "time": 238.9984800000017,
                    "velocity": 0.3858267716535433,
                    "duration": 0.0948406666666699
                },
                {
                    "name": "A#4",
                    "midi": 70,
                    "time": 238.9984800000017,
                    "velocity": 0.4566929133858268,
                    "duration": 0.0948406666666699
                },
                {
                    "name": "D#5",
                    "midi": 75,
                    "time": 239.09332066666838,
                    "velocity": 0.4251968503937008,
                    "duration": 0.0948406666666699
                },
                {
                    "name": "D#5",
                    "midi": 75,
                    "time": 239.18816133333505,
                    "velocity": 0.4251968503937008,
                    "duration": 0.04742033333332074
                },
                {
                    "name": "F4",
                    "midi": 65,
                    "time": 239.2830020000017,
                    "velocity": 0.3858267716535433,
                    "duration": 0.0948406666666699
                },
                {
                    "name": "A#4",
                    "midi": 70,
                    "time": 239.2830020000017,
                    "velocity": 0.4566929133858268,
                    "duration": 0.0948406666666699
                },
                {
                    "name": "D5",
                    "midi": 74,
                    "time": 239.37784266666836,
                    "velocity": 0.4251968503937008,
                    "duration": 0.0948406666666699
                },
                {
                    "name": "D5",
                    "midi": 74,
                    "time": 239.47268333333503,
                    "velocity": 0.4251968503937008,
                    "duration": 0.04742033333332074
                },
                {
                    "name": "F4",
                    "midi": 65,
                    "time": 239.56752400000167,
                    "velocity": 0.3779527559055118,
                    "duration": 0.0948406666666699
                },
                {
                    "name": "A4",
                    "midi": 69,
                    "time": 239.56752400000167,
                    "velocity": 0.44881889763779526,
                    "duration": 0.0948406666666699
                },
                {
                    "name": "C5",
                    "midi": 72,
                    "time": 239.66236466666834,
                    "velocity": 0.41732283464566927,
                    "duration": 0.0948406666666699
                },
                {
                    "name": "C5",
                    "midi": 72,
                    "time": 239.757205333335,
                    "velocity": 0.4094488188976378,
                    "duration": 0.04742033333332074
                },
                {
                    "name": "E4",
                    "midi": 64,
                    "time": 239.85204600000165,
                    "velocity": 0.3779527559055118,
                    "duration": 0.0948406666666699
                },
                {
                    "name": "G4",
                    "midi": 67,
                    "time": 239.85204600000165,
                    "velocity": 0.44881889763779526,
                    "duration": 0.0948406666666699
                },
                {
                    "name": "C5",
                    "midi": 72,
                    "time": 239.94688666666832,
                    "velocity": 0.4094488188976378,
                    "duration": 0.0948406666666699
                },
                {
                    "name": "C5",
                    "midi": 72,
                    "time": 240.041727333335,
                    "velocity": 0.4094488188976378,
                    "duration": 0.04742033333332074
                },
                {
                    "name": "F4",
                    "midi": 65,
                    "time": 240.13656800000163,
                    "velocity": 0.3228346456692913,
                    "duration": 0.2845220000000097
                },
                {
                    "name": "A4",
                    "midi": 69,
                    "time": 240.13656800000163,
                    "velocity": 0.3228346456692913,
                    "duration": 0.2845220000000097
                },
                {
                    "name": "C5",
                    "midi": 72,
                    "time": 240.13656800000163,
                    "velocity": 0.3858267716535433,
                    "duration": 0.2845220000000097
                },
                {
                    "name": "F5",
                    "midi": 77,
                    "time": 240.70561200000165,
                    "velocity": 0.3858267716535433,
                    "duration": 0.14226099999999064
                },
                {
                    "name": "A4",
                    "midi": 69,
                    "time": 240.70561200000165,
                    "velocity": 0.31496062992125984,
                    "duration": 0.14226099999999064
                },
                {
                    "name": "C5",
                    "midi": 72,
                    "time": 240.70561200000165,
                    "velocity": 0.31496062992125984,
                    "duration": 0.14226099999999064
                },
                {
                    "name": "C5",
                    "midi": 72,
                    "time": 240.99013400000163,
                    "velocity": 0.31496062992125984,
                    "duration": 0.14226099999999064
                },
                {
                    "name": "D#5",
                    "midi": 75,
                    "time": 240.99013400000163,
                    "velocity": 0.31496062992125984,
                    "duration": 0.14226099999999064
                },
                {
                    "name": "F5",
                    "midi": 77,
                    "time": 240.99013400000163,
                    "velocity": 0.3858267716535433,
                    "duration": 0.14226099999999064
                },
                {
                    "name": "A#4",
                    "midi": 70,
                    "time": 241.2746560000016,
                    "velocity": 0.3543307086614173,
                    "duration": 0.2845220000000097
                },
                {
                    "name": "D5",
                    "midi": 74,
                    "time": 241.2746560000016,
                    "velocity": 0.3543307086614173,
                    "duration": 0.2845220000000097
                },
                {
                    "name": "F5",
                    "midi": 77,
                    "time": 241.2746560000016,
                    "velocity": 0.41732283464566927,
                    "duration": 0.2845220000000097
                },
                {
                    "name": "A#4",
                    "midi": 70,
                    "time": 241.84370000000163,
                    "velocity": 0.31496062992125984,
                    "duration": 0.14226099999999064
                },
                {
                    "name": "D5",
                    "midi": 74,
                    "time": 241.84370000000163,
                    "velocity": 0.31496062992125984,
                    "duration": 0.14226099999999064
                },
                {
                    "name": "F5",
                    "midi": 77,
                    "time": 241.84370000000163,
                    "velocity": 0.3858267716535433,
                    "duration": 0.14226099999999064
                },
                {
                    "name": "D5",
                    "midi": 74,
                    "time": 242.1282220000016,
                    "velocity": 0.31496062992125984,
                    "duration": 0.14226099999999064
                },
                {
                    "name": "F5",
                    "midi": 77,
                    "time": 242.1282220000016,
                    "velocity": 0.3858267716535433,
                    "duration": 0.14226099999999064
                },
                {
                    "name": "A4",
                    "midi": 69,
                    "time": 242.4127440000016,
                    "velocity": 0.3543307086614173,
                    "duration": 0.2845220000000097
                },
                {
                    "name": "C5",
                    "midi": 72,
                    "time": 242.4127440000016,
                    "velocity": 0.3543307086614173,
                    "duration": 0.2845220000000097
                },
                {
                    "name": "F5",
                    "midi": 77,
                    "time": 242.4127440000016,
                    "velocity": 0.41732283464566927,
                    "duration": 0.2845220000000097
                },
                {
                    "name": "C5",
                    "midi": 72,
                    "time": 242.98178800000161,
                    "velocity": 0.3464566929133858,
                    "duration": 0.14226099999999064
                },
                {
                    "name": "F5",
                    "midi": 77,
                    "time": 242.98178800000161,
                    "velocity": 0.3464566929133858,
                    "duration": 0.14226099999999064
                },
                {
                    "name": "A5",
                    "midi": 81,
                    "time": 242.98178800000161,
                    "velocity": 0.41732283464566927,
                    "duration": 0.14226099999999064
                },
                {
                    "name": "C5",
                    "midi": 72,
                    "time": 243.2663100000016,
                    "velocity": 0.3464566929133858,
                    "duration": 0.14226099999999064
                },
                {
                    "name": "A5",
                    "midi": 81,
                    "time": 243.2663100000016,
                    "velocity": 0.3464566929133858,
                    "duration": 0.14226099999999064
                },
                {
                    "name": "C6",
                    "midi": 84,
                    "time": 243.2663100000016,
                    "velocity": 0.41732283464566927,
                    "duration": 0.14226099999999064
                },
                {
                    "name": "C6",
                    "midi": 84,
                    "time": 243.55083200000158,
                    "velocity": 0.4409448818897638,
                    "duration": 0.0948406666666699
                },
                {
                    "name": "F6",
                    "midi": 89,
                    "time": 243.64567266666825,
                    "velocity": 0.4015748031496063,
                    "duration": 0.0948406666666699
                },
                {
                    "name": "F6",
                    "midi": 89,
                    "time": 243.74051333333492,
                    "velocity": 0.4015748031496063,
                    "duration": 0.04742033333332074
                },
                {
                    "name": "D6",
                    "midi": 86,
                    "time": 243.83535400000156,
                    "velocity": 0.4409448818897638,
                    "duration": 0.0948406666666699
                },
                {
                    "name": "G6",
                    "midi": 91,
                    "time": 243.93019466666823,
                    "velocity": 0.4094488188976378,
                    "duration": 0.0948406666666699
                },
                {
                    "name": "G6",
                    "midi": 91,
                    "time": 244.0250353333349,
                    "velocity": 0.4094488188976378,
                    "duration": 0.04742033333332074
                },
                {
                    "name": "C6",
                    "midi": 84,
                    "time": 244.11987600000154,
                    "velocity": 0.4409448818897638,
                    "duration": 0.0948406666666699
                },
                {
                    "name": "F6",
                    "midi": 89,
                    "time": 244.2147166666682,
                    "velocity": 0.4015748031496063,
                    "duration": 0.0948406666666699
                },
                {
                    "name": "F6",
                    "midi": 89,
                    "time": 244.30955733333488,
                    "velocity": 0.4015748031496063,
                    "duration": 0.04742033333332074
                },
                {
                    "name": "C6",
                    "midi": 84,
                    "time": 244.40439800000152,
                    "velocity": 0.4409448818897638,
                    "duration": 0.0948406666666699
                },
                {
                    "name": "E6",
                    "midi": 88,
                    "time": 244.4992386666682,
                    "velocity": 0.4015748031496063,
                    "duration": 0.0948406666666699
                },
                {
                    "name": "E6",
                    "midi": 88,
                    "time": 244.59407933333486,
                    "velocity": 0.4015748031496063,
                    "duration": 0.04742033333332074
                },
                {
                    "name": "C6",
                    "midi": 84,
                    "time": 244.6889200000015,
                    "velocity": 0.4409448818897638,
                    "duration": 0.0948406666666699
                },
                {
                    "name": "D#6",
                    "midi": 87,
                    "time": 244.78376066666817,
                    "velocity": 0.4015748031496063,
                    "duration": 0.0948406666666699
                },
                {
                    "name": "D#6",
                    "midi": 87,
                    "time": 244.87860133333484,
                    "velocity": 0.4015748031496063,
                    "duration": 0.04742033333332074
                },
                {
                    "name": "C6",
                    "midi": 84,
                    "time": 244.97344200000148,
                    "velocity": 0.44881889763779526,
                    "duration": 0.0948406666666699
                },
                {
                    "name": "D6",
                    "midi": 86,
                    "time": 245.06828266666815,
                    "velocity": 0.4330708661417323,
                    "duration": 0.0948406666666699
                },
                {
                    "name": "D6",
                    "midi": 86,
                    "time": 245.16312333333482,
                    "velocity": 0.4330708661417323,
                    "duration": 0.04742033333332074
                },
                {
                    "name": "F#5",
                    "midi": 78,
                    "time": 245.25796400000146,
                    "velocity": 0.4566929133858268,
                    "duration": 0.0948406666666699
                },
                {
                    "name": "A5",
                    "midi": 81,
                    "time": 245.25796400000146,
                    "velocity": 0.4566929133858268,
                    "duration": 0.0948406666666699
                },
                {
                    "name": "D#6",
                    "midi": 87,
                    "time": 245.35280466666813,
                    "velocity": 0.41732283464566927,
                    "duration": 0.0948406666666699
                },
                {
                    "name": "D#6",
                    "midi": 87,
                    "time": 245.4476453333348,
                    "velocity": 0.41732283464566927,
                    "duration": 0.04742033333332074
                },
                {
                    "name": "F#5",
                    "midi": 78,
                    "time": 245.54248600000145,
                    "velocity": 0.3779527559055118,
                    "duration": 0.0948406666666699
                },
                {
                    "name": "A5",
                    "midi": 81,
                    "time": 245.54248600000145,
                    "velocity": 0.44881889763779526,
                    "duration": 0.0948406666666699
                },
                {
                    "name": "D6",
                    "midi": 86,
                    "time": 245.63732666666812,
                    "velocity": 0.4251968503937008,
                    "duration": 0.0948406666666699
                },
                {
                    "name": "D6",
                    "midi": 86,
                    "time": 245.7321673333348,
                    "velocity": 0.4251968503937008,
                    "duration": 0.04742033333332074
                },
                {
                    "name": "F5",
                    "midi": 77,
                    "time": 245.82700800000143,
                    "velocity": 0.3779527559055118,
                    "duration": 0.0948406666666699
                },
                {
                    "name": "A#5",
                    "midi": 82,
                    "time": 245.82700800000143,
                    "velocity": 0.44881889763779526,
                    "duration": 0.0948406666666699
                },
                {
                    "name": "D#6",
                    "midi": 87,
                    "time": 245.9218486666681,
                    "velocity": 0.4094488188976378,
                    "duration": 0.0948406666666699
                },
                {
                    "name": "D#6",
                    "midi": 87,
                    "time": 246.01668933333477,
                    "velocity": 0.4094488188976378,
                    "duration": 0.04742033333332074
                },
                {
                    "name": "F5",
                    "midi": 77,
                    "time": 246.1115300000014,
                    "velocity": 0.3779527559055118,
                    "duration": 0.0948406666666699
                },
                {
                    "name": "A#5",
                    "midi": 82,
                    "time": 246.1115300000014,
                    "velocity": 0.44881889763779526,
                    "duration": 0.0948406666666699
                },
                {
                    "name": "D6",
                    "midi": 86,
                    "time": 246.20637066666808,
                    "velocity": 0.41732283464566927,
                    "duration": 0.0948406666666699
                },
                {
                    "name": "D6",
                    "midi": 86,
                    "time": 246.30121133333475,
                    "velocity": 0.4094488188976378,
                    "duration": 0.04742033333332074
                },
                {
                    "name": "F5",
                    "midi": 77,
                    "time": 246.3960520000014,
                    "velocity": 0.3779527559055118,
                    "duration": 0.0948406666666699
                },
                {
                    "name": "A5",
                    "midi": 81,
                    "time": 246.3960520000014,
                    "velocity": 0.44881889763779526,
                    "duration": 0.0948406666666699
                },
                {
                    "name": "C6",
                    "midi": 84,
                    "time": 246.49089266666806,
                    "velocity": 0.41732283464566927,
                    "duration": 0.0948406666666699
                },
                {
                    "name": "C6",
                    "midi": 84,
                    "time": 246.58573333333473,
                    "velocity": 0.3858267716535433,
                    "duration": 0.04742033333332074
                },
                {
                    "name": "E5",
                    "midi": 76,
                    "time": 246.68057400000137,
                    "velocity": 0.3543307086614173,
                    "duration": 0.0948406666666699
                },
                {
                    "name": "G5",
                    "midi": 79,
                    "time": 246.68057400000137,
                    "velocity": 0.4251968503937008,
                    "duration": 0.0948406666666699
                },
                {
                    "name": "C6",
                    "midi": 84,
                    "time": 246.77541466666804,
                    "velocity": 0.3779527559055118,
                    "duration": 0.0948406666666699
                },
                {
                    "name": "C6",
                    "midi": 84,
                    "time": 246.8702553333347,
                    "velocity": 0.3779527559055118,
                    "duration": 0.04742033333332074
                },
                {
                    "name": "A#4",
                    "midi": 70,
                    "time": 246.96509600000135,
                    "velocity": 0.3543307086614173,
                    "duration": 0.0948406666666699
                },
                {
                    "name": "C#5",
                    "midi": 73,
                    "time": 247.05993666666802,
                    "velocity": 0.33070866141732286,
                    "duration": 0.0948406666666699
                },
                {
                    "name": "C#5",
                    "midi": 73,
                    "time": 247.1547773333347,
                    "velocity": 0.33070866141732286,
                    "duration": 0.04742033333332074
                },
                {
                    "name": "A#4",
                    "midi": 70,
                    "time": 247.24961800000133,
                    "velocity": 0.36220472440944884,
                    "duration": 0.0948406666666699
                },
                {
                    "name": "C5",
                    "midi": 72,
                    "time": 247.344458666668,
                    "velocity": 0.3543307086614173,
                    "duration": 0.0948406666666699
                },
                {
                    "name": "C5",
                    "midi": 72,
                    "time": 247.43929933333467,
                    "velocity": 0.3543307086614173,
                    "duration": 0.04742033333332074
                },
                {
                    "name": "E4",
                    "midi": 64,
                    "time": 247.53414000000132,
                    "velocity": 0.3228346456692913,
                    "duration": 0.0948406666666699
                },
                {
                    "name": "G4",
                    "midi": 67,
                    "time": 247.53414000000132,
                    "velocity": 0.3779527559055118,
                    "duration": 0.0948406666666699
                },
                {
                    "name": "C#5",
                    "midi": 73,
                    "time": 247.62898066666799,
                    "velocity": 0.3543307086614173,
                    "duration": 0.0948406666666699
                },
                {
                    "name": "C#5",
                    "midi": 73,
                    "time": 247.72382133333466,
                    "velocity": 0.3543307086614173,
                    "duration": 0.04742033333332074
                },
                {
                    "name": "E4",
                    "midi": 64,
                    "time": 247.8186620000013,
                    "velocity": 0.33070866141732286,
                    "duration": 0.0948406666666699
                },
                {
                    "name": "G4",
                    "midi": 67,
                    "time": 247.8186620000013,
                    "velocity": 0.3937007874015748,
                    "duration": 0.0948406666666699
                },
                {
                    "name": "C5",
                    "midi": 72,
                    "time": 247.91350266666797,
                    "velocity": 0.36220472440944884,
                    "duration": 0.0948406666666699
                },
                {
                    "name": "C5",
                    "midi": 72,
                    "time": 248.00834333333464,
                    "velocity": 0.3700787401574803,
                    "duration": 0.04742033333332074
                },
                {
                    "name": "D#4",
                    "midi": 63,
                    "time": 248.10318400000128,
                    "velocity": 0.3464566929133858,
                    "duration": 0.0948406666666699
                },
                {
                    "name": "G#4",
                    "midi": 68,
                    "time": 248.10318400000128,
                    "velocity": 0.4094488188976378,
                    "duration": 0.0948406666666699
                },
                {
                    "name": "C#5",
                    "midi": 73,
                    "time": 248.19802466666795,
                    "velocity": 0.3779527559055118,
                    "duration": 0.0948406666666699
                },
                {
                    "name": "C#5",
                    "midi": 73,
                    "time": 248.29286533333462,
                    "velocity": 0.3779527559055118,
                    "duration": 0.04742033333332074
                },
                {
                    "name": "D#4",
                    "midi": 63,
                    "time": 248.38770600000126,
                    "velocity": 0.3464566929133858,
                    "duration": 0.0948406666666699
                },
                {
                    "name": "G#4",
                    "midi": 68,
                    "time": 248.38770600000126,
                    "velocity": 0.4094488188976378,
                    "duration": 0.0948406666666699
                },
                {
                    "name": "C5",
                    "midi": 72,
                    "time": 248.48254666666793,
                    "velocity": 0.3779527559055118,
                    "duration": 0.0948406666666699
                },
                {
                    "name": "C5",
                    "midi": 72,
                    "time": 248.5773873333346,
                    "velocity": 0.3779527559055118,
                    "duration": 0.04742033333332074
                },
                {
                    "name": "D#4",
                    "midi": 63,
                    "time": 248.67222800000124,
                    "velocity": 0.33858267716535434,
                    "duration": 0.0948406666666699
                },
                {
                    "name": "G4",
                    "midi": 67,
                    "time": 248.67222800000124,
                    "velocity": 0.4015748031496063,
                    "duration": 0.0948406666666699
                },
                {
                    "name": "A#4",
                    "midi": 70,
                    "time": 248.7670686666679,
                    "velocity": 0.3700787401574803,
                    "duration": 0.0948406666666699
                },
                {
                    "name": "A#4",
                    "midi": 70,
                    "time": 248.86190933333458,
                    "velocity": 0.36220472440944884,
                    "duration": 0.04742033333332074
                },
                {
                    "name": "D4",
                    "midi": 62,
                    "time": 248.95675000000122,
                    "velocity": 0.33858267716535434,
                    "duration": 0.0948406666666699
                },
                {
                    "name": "F4",
                    "midi": 65,
                    "time": 248.95675000000122,
                    "velocity": 0.4015748031496063,
                    "duration": 0.0948406666666699
                },
                {
                    "name": "A#4",
                    "midi": 70,
                    "time": 249.0515906666679,
                    "velocity": 0.36220472440944884,
                    "duration": 0.0948406666666699
                },
                {
                    "name": "A#4",
                    "midi": 70,
                    "time": 249.14643133333456,
                    "velocity": 0.36220472440944884,
                    "duration": 0.04742033333332074
                },
                {
                    "name": "C#5",
                    "midi": 73,
                    "time": 249.81031600000122,
                    "velocity": 0.3228346456692913,
                    "duration": 0.0948406666666699
                },
                {
                    "name": "F#5",
                    "midi": 78,
                    "time": 249.81031600000122,
                    "velocity": 0.3779527559055118,
                    "duration": 0.0948406666666699
                },
                {
                    "name": "A#5",
                    "midi": 82,
                    "time": 249.9051566666679,
                    "velocity": 0.3543307086614173,
                    "duration": 0.0948406666666699
                },
                {
                    "name": "A#5",
                    "midi": 82,
                    "time": 249.99999733333456,
                    "velocity": 0.3543307086614173,
                    "duration": 0.04742033333332074
                },
                {
                    "name": "C#5",
                    "midi": 73,
                    "time": 250.0948380000012,
                    "velocity": 0.3228346456692913,
                    "duration": 0.0948406666666699
                },
                {
                    "name": "F#5",
                    "midi": 78,
                    "time": 250.0948380000012,
                    "velocity": 0.3858267716535433,
                    "duration": 0.0948406666666699
                },
                {
                    "name": "A5",
                    "midi": 81,
                    "time": 250.18967866666787,
                    "velocity": 0.3464566929133858,
                    "duration": 0.0948406666666699
                },
                {
                    "name": "A5",
                    "midi": 81,
                    "time": 250.28451933333454,
                    "velocity": 0.3464566929133858,
                    "duration": 0.04742033333332074
                },
                {
                    "name": "C#5",
                    "midi": 73,
                    "time": 250.37936000000118,
                    "velocity": 0.33070866141732286,
                    "duration": 0.0948406666666699
                },
                {
                    "name": "F5",
                    "midi": 77,
                    "time": 250.37936000000118,
                    "velocity": 0.3937007874015748,
                    "duration": 0.0948406666666699
                },
                {
                    "name": "G#5",
                    "midi": 80,
                    "time": 250.47420066666785,
                    "velocity": 0.36220472440944884,
                    "duration": 0.0948406666666699
                },
                {
                    "name": "G#5",
                    "midi": 80,
                    "time": 250.56904133333452,
                    "velocity": 0.36220472440944884,
                    "duration": 0.04742033333332074
                },
                {
                    "name": "C5",
                    "midi": 72,
                    "time": 250.66388200000117,
                    "velocity": 0.31496062992125984,
                    "duration": 0.0948406666666699
                },
                {
                    "name": "D#5",
                    "midi": 75,
                    "time": 250.66388200000117,
                    "velocity": 0.3779527559055118,
                    "duration": 0.0948406666666699
                },
                {
                    "name": "G#5",
                    "midi": 80,
                    "time": 250.75872266666784,
                    "velocity": 0.3464566929133858,
                    "duration": 0.0948406666666699
                },
                {
                    "name": "G#5",
                    "midi": 80,
                    "time": 250.8535633333345,
                    "velocity": 0.3464566929133858,
                    "duration": 0.04742033333332074
                },
                {
                    "name": "C#4",
                    "midi": 61,
                    "time": 251.23292600000116,
                    "velocity": 0.29133858267716534,
                    "duration": 0.0948406666666699
                },
                {
                    "name": "E4",
                    "midi": 64,
                    "time": 251.23292600000116,
                    "velocity": 0.3464566929133858,
                    "duration": 0.0948406666666699
                },
                {
                    "name": "G#4",
                    "midi": 68,
                    "time": 251.32776666666783,
                    "velocity": 0.30708661417322836,
                    "duration": 0.0948406666666699
                },
                {
                    "name": "G#4",
                    "midi": 68,
                    "time": 251.4226073333345,
                    "velocity": 0.30708661417322836,
                    "duration": 0.04742033333332074
                },
                {
                    "name": "C4",
                    "midi": 60,
                    "time": 251.51744800000114,
                    "velocity": 0.2992125984251969,
                    "duration": 0.0948406666666699
                },
                {
                    "name": "D#4",
                    "midi": 63,
                    "time": 251.51744800000114,
                    "velocity": 0.3543307086614173,
                    "duration": 0.0948406666666699
                },
                {
                    "name": "G#4",
                    "midi": 68,
                    "time": 251.6122886666678,
                    "velocity": 0.3228346456692913,
                    "duration": 0.0948406666666699
                },
                {
                    "name": "G#4",
                    "midi": 68,
                    "time": 251.70712933333448,
                    "velocity": 0.3228346456692913,
                    "duration": 0.04742033333332074
                },
                {
                    "name": "C4",
                    "midi": 60,
                    "time": 252.08649200000113,
                    "velocity": 0.25984251968503935,
                    "duration": 0.0948406666666699
                },
                {
                    "name": "D#4",
                    "midi": 63,
                    "time": 252.08649200000113,
                    "velocity": 0.30708661417322836,
                    "duration": 0.0948406666666699
                },
                {
                    "name": "F#4",
                    "midi": 66,
                    "time": 252.1813326666678,
                    "velocity": 0.2755905511811024,
                    "duration": 0.0948406666666699
                },
                {
                    "name": "F#4",
                    "midi": 66,
                    "time": 252.27617333333447,
                    "velocity": 0.2755905511811024,
                    "duration": 0.04742033333332074
                },
                {
                    "name": "C4",
                    "midi": 60,
                    "time": 252.3710140000011,
                    "velocity": 0.2677165354330709,
                    "duration": 0.0948406666666699
                },
                {
                    "name": "D#4",
                    "midi": 63,
                    "time": 252.3710140000011,
                    "velocity": 0.31496062992125984,
                    "duration": 0.0948406666666699
                },
                {
                    "name": "F4",
                    "midi": 65,
                    "time": 252.46585466666778,
                    "velocity": 0.28346456692913385,
                    "duration": 0.0948406666666699
                },
                {
                    "name": "F4",
                    "midi": 65,
                    "time": 252.56069533333445,
                    "velocity": 0.28346456692913385,
                    "duration": 0.04742033333332074
                },
                {
                    "name": "C5",
                    "midi": 72,
                    "time": 252.9400580000011,
                    "velocity": 0.31496062992125984,
                    "duration": 0.0948406666666699
                },
                {
                    "name": "D#5",
                    "midi": 75,
                    "time": 252.9400580000011,
                    "velocity": 0.31496062992125984,
                    "duration": 0.0948406666666699
                },
                {
                    "name": "F5",
                    "midi": 77,
                    "time": 253.03489866666777,
                    "velocity": 0.28346456692913385,
                    "duration": 0.0948406666666699
                },
                {
                    "name": "F5",
                    "midi": 77,
                    "time": 253.12973933333444,
                    "velocity": 0.28346456692913385,
                    "duration": 0.04742033333332074
                },
                {
                    "name": "A#4",
                    "midi": 70,
                    "time": 253.22458000000108,
                    "velocity": 0.3543307086614173,
                    "duration": 0.0948406666666699
                },
                {
                    "name": "D#5",
                    "midi": 75,
                    "time": 253.22458000000108,
                    "velocity": 0.3543307086614173,
                    "duration": 0.0948406666666699
                },
                {
                    "name": "G5",
                    "midi": 79,
                    "time": 253.31942066666775,
                    "velocity": 0.29133858267716534,
                    "duration": 0.0948406666666699
                },
                {
                    "name": "G5",
                    "midi": 79,
                    "time": 253.41426133333442,
                    "velocity": 0.29133858267716534,
                    "duration": 0.04742033333332074
                },
                {
                    "name": "A#4",
                    "midi": 70,
                    "time": 253.50910200000106,
                    "velocity": 0.3543307086614173,
                    "duration": 0.0948406666666699
                },
                {
                    "name": "D5",
                    "midi": 74,
                    "time": 253.50910200000106,
                    "velocity": 0.3543307086614173,
                    "duration": 0.0948406666666699
                },
                {
                    "name": "F5",
                    "midi": 77,
                    "time": 253.60394266666773,
                    "velocity": 0.30708661417322836,
                    "duration": 0.0948406666666699
                },
                {
                    "name": "F5",
                    "midi": 77,
                    "time": 253.6987833333344,
                    "velocity": 0.30708661417322836,
                    "duration": 0.04742033333332074
                },
                {
                    "name": "A#3",
                    "midi": 58,
                    "time": 253.79362400000105,
                    "velocity": 0.30708661417322836,
                    "duration": 0.0948406666666699
                },
                {
                    "name": "D4",
                    "midi": 62,
                    "time": 253.79362400000105,
                    "velocity": 0.3700787401574803,
                    "duration": 0.0948406666666699
                },
                {
                    "name": "F4",
                    "midi": 65,
                    "time": 253.88846466666772,
                    "velocity": 0.31496062992125984,
                    "duration": 0.0948406666666699
                },
                {
                    "name": "F4",
                    "midi": 65,
                    "time": 253.98330533333439,
                    "velocity": 0.31496062992125984,
                    "duration": 0.04742033333332074
                },
                {
                    "name": "A3",
                    "midi": 57,
                    "time": 254.07814600000103,
                    "velocity": 0.33858267716535434,
                    "duration": 0.0948406666666699
                },
                {
                    "name": "C4",
                    "midi": 60,
                    "time": 254.07814600000103,
                    "velocity": 0.4015748031496063,
                    "duration": 0.0948406666666699
                },
                {
                    "name": "F4",
                    "midi": 65,
                    "time": 254.1729866666677,
                    "velocity": 0.36220472440944884,
                    "duration": 0.0948406666666699
                },
                {
                    "name": "F4",
                    "midi": 65,
                    "time": 254.26782733333437,
                    "velocity": 0.36220472440944884,
                    "duration": 0.04742033333332074
                },
                {
                    "name": "C4",
                    "midi": 60,
                    "time": 254.362668000001,
                    "velocity": 0.3858267716535433,
                    "duration": 0.0948406666666699
                },
                {
                    "name": "F4",
                    "midi": 65,
                    "time": 254.362668000001,
                    "velocity": 0.4566929133858268,
                    "duration": 0.0948406666666699
                },
                {
                    "name": "C5",
                    "midi": 72,
                    "time": 254.45750866666768,
                    "velocity": 0.3937007874015748,
                    "duration": 0.0948406666666699
                },
                {
                    "name": "C5",
                    "midi": 72,
                    "time": 254.55234933333435,
                    "velocity": 0.3937007874015748,
                    "duration": 0.04742033333332074
                },
                {
                    "name": "C4",
                    "midi": 60,
                    "time": 254.647190000001,
                    "velocity": 0.3937007874015748,
                    "duration": 0.0948406666666699
                },
                {
                    "name": "E4",
                    "midi": 64,
                    "time": 254.647190000001,
                    "velocity": 0.47244094488188976,
                    "duration": 0.0948406666666699
                },
                {
                    "name": "C5",
                    "midi": 72,
                    "time": 254.74203066666766,
                    "velocity": 0.41732283464566927,
                    "duration": 0.0948406666666699
                },
                {
                    "name": "C5",
                    "midi": 72,
                    "time": 254.83687133333433,
                    "velocity": 0.41732283464566927,
                    "duration": 0.04742033333332074
                },
                {
                    "name": "A3",
                    "midi": 57,
                    "time": 254.93171200000097,
                    "velocity": 0.4566929133858268,
                    "duration": 0.07113050000000953
                },
                {
                    "name": "C4",
                    "midi": 60,
                    "time": 254.93171200000097,
                    "velocity": 0.4566929133858268,
                    "duration": 0.07113050000000953
                },
                {
                    "name": "F4",
                    "midi": 65,
                    "time": 254.93171200000097,
                    "velocity": 0.4566929133858268,
                    "duration": 0.07113050000000953
                },
                {
                    "name": "C4",
                    "midi": 60,
                    "time": 255.02655266666764,
                    "velocity": 0.3700787401574803,
                    "duration": 0.0948406666666699
                },
                {
                    "name": "A3",
                    "midi": 57,
                    "time": 255.1213933333343,
                    "velocity": 0.3700787401574803,
                    "duration": 0.0948406666666699
                },
                {
                    "name": "C4",
                    "midi": 60,
                    "time": 255.21623400000098,
                    "velocity": 0.3700787401574803,
                    "duration": 0.0948406666666699
                },
                {
                    "name": "F4",
                    "midi": 65,
                    "time": 255.31107466666765,
                    "velocity": 0.4015748031496063,
                    "duration": 0.0948406666666699
                },
                {
                    "name": "A4",
                    "midi": 69,
                    "time": 255.40591533333432,
                    "velocity": 0.4330708661417323,
                    "duration": 0.0948406666666699
                },
                {
                    "name": "C5",
                    "midi": 72,
                    "time": 255.500756000001,
                    "velocity": 0.5354330708661418,
                    "duration": 0.42678300000000036
                },
                {
                    "name": "D4",
                    "midi": 62,
                    "time": 255.785278000001,
                    "velocity": 0.3779527559055118,
                    "duration": 0.14226099999999064
                },
                {
                    "name": "E4",
                    "midi": 64,
                    "time": 255.927539000001,
                    "velocity": 0.3543307086614173,
                    "duration": 0.14226100000001907
                },
                {
                    "name": "A#4",
                    "midi": 70,
                    "time": 255.927539000001,
                    "velocity": 0.4251968503937008,
                    "duration": 0.14226100000001907
                },
                {
                    "name": "C4",
                    "midi": 60,
                    "time": 256.069800000001,
                    "velocity": 0.3700787401574803,
                    "duration": 0.2845219999999813
                },
                {
                    "name": "F4",
                    "midi": 65,
                    "time": 256.069800000001,
                    "velocity": 0.3700787401574803,
                    "duration": 0.2845219999999813
                },
                {
                    "name": "A4",
                    "midi": 69,
                    "time": 256.069800000001,
                    "velocity": 0.4409448818897638,
                    "duration": 0.2845219999999813
                },
                {
                    "name": "C#4",
                    "midi": 61,
                    "time": 256.354322000001,
                    "velocity": 0.4094488188976378,
                    "duration": 0.2845219999999813
                },
                {
                    "name": "G4",
                    "midi": 67,
                    "time": 256.354322000001,
                    "velocity": 0.4094488188976378,
                    "duration": 0.2845219999999813
                },
                {
                    "name": "A4",
                    "midi": 69,
                    "time": 256.354322000001,
                    "velocity": 0.4881889763779528,
                    "duration": 0.2845219999999813
                },
                {
                    "name": "D4",
                    "midi": 62,
                    "time": 256.638844000001,
                    "velocity": 0.4251968503937008,
                    "duration": 0.2845219999999813
                },
                {
                    "name": "C4",
                    "midi": 60,
                    "time": 256.638844000001,
                    "velocity": 0.4251968503937008,
                    "duration": 0.2845219999999813
                },
                {
                    "name": "F#4",
                    "midi": 66,
                    "time": 256.638844000001,
                    "velocity": 0.4251968503937008,
                    "duration": 0.2845219999999813
                },
                {
                    "name": "A4",
                    "midi": 69,
                    "time": 256.638844000001,
                    "velocity": 0.5039370078740157,
                    "duration": 0.2845219999999813
                },
                {
                    "name": "A#4",
                    "midi": 70,
                    "time": 256.92336600000095,
                    "velocity": 0.5118110236220472,
                    "duration": 0.21339150000000018
                },
                {
                    "name": "A#3",
                    "midi": 58,
                    "time": 256.92336600000095,
                    "velocity": 0.4330708661417323,
                    "duration": 0.2845219999999813
                },
                {
                    "name": "D4",
                    "midi": 62,
                    "time": 256.92336600000095,
                    "velocity": 0.4330708661417323,
                    "duration": 0.2845219999999813
                },
                {
                    "name": "G4",
                    "midi": 67,
                    "time": 256.92336600000095,
                    "velocity": 0.4330708661417323,
                    "duration": 0.2845219999999813
                },
                {
                    "name": "A4",
                    "midi": 69,
                    "time": 257.13675750000095,
                    "velocity": 0.4330708661417323,
                    "duration": 0.07113049999998111
                },
                {
                    "name": "C4",
                    "midi": 60,
                    "time": 257.20788800000093,
                    "velocity": 0.3464566929133858,
                    "duration": 0.6401745000000005
                },
                {
                    "name": "E4",
                    "midi": 64,
                    "time": 257.20788800000093,
                    "velocity": 0.3464566929133858,
                    "duration": 0.5690440000000194
                },
                {
                    "name": "G4",
                    "midi": 67,
                    "time": 257.20788800000093,
                    "velocity": 0.4094488188976378,
                    "duration": 0.42678300000000036
                },
                {
                    "name": "G#4",
                    "midi": 68,
                    "time": 257.63467100000094,
                    "velocity": 0.3700787401574803,
                    "duration": 0.14226100000001907
                },
                {
                    "name": "F4",
                    "midi": 65,
                    "time": 257.77693200000095,
                    "velocity": 0.33858267716535434,
                    "duration": 0.07113049999998111
                },
                {
                    "name": "A4",
                    "midi": 69,
                    "time": 257.77693200000095,
                    "velocity": 0.4015748031496063,
                    "duration": 0.07113049999998111
                },
                {
                    "name": "C4",
                    "midi": 60,
                    "time": 258.06145400000094,
                    "velocity": 0.30708661417322836,
                    "duration": 0.07113049999998111
                },
                {
                    "name": "F4",
                    "midi": 65,
                    "time": 258.06145400000094,
                    "velocity": 0.30708661417322836,
                    "duration": 0.07113049999998111
                },
                {
                    "name": "A4",
                    "midi": 69,
                    "time": 258.06145400000094,
                    "velocity": 0.36220472440944884,
                    "duration": 0.07113049999998111
                },
                {
                    "name": "C3",
                    "midi": 48,
                    "time": 258.44081666666756,
                    "velocity": 0.3700787401574803,
                    "duration": 0.09484066666664148
                },
                {
                    "name": "A2",
                    "midi": 45,
                    "time": 258.5356573333342,
                    "velocity": 0.3700787401574803,
                    "duration": 0.09484066666664148
                },
                {
                    "name": "C3",
                    "midi": 48,
                    "time": 258.63049800000084,
                    "velocity": 0.3700787401574803,
                    "duration": 0.09484066666664148
                },
                {
                    "name": "F3",
                    "midi": 53,
                    "time": 258.7253386666675,
                    "velocity": 0.4015748031496063,
                    "duration": 0.09484066666664148
                },
                {
                    "name": "A3",
                    "midi": 57,
                    "time": 258.8201793333341,
                    "velocity": 0.4330708661417323,
                    "duration": 0.09484066666664148
                },
                {
                    "name": "C4",
                    "midi": 60,
                    "time": 258.91502000000077,
                    "velocity": 0.5118110236220472,
                    "duration": 0.4267830000000572
                },
                {
                    "name": "C3",
                    "midi": 48,
                    "time": 259.0572810000008,
                    "velocity": 0.36220472440944884,
                    "duration": 0.28452200000003813
                },
                {
                    "name": "D3",
                    "midi": 50,
                    "time": 259.1995420000008,
                    "velocity": 0.3779527559055118,
                    "duration": 0.14226100000001907
                },
                {
                    "name": "C3",
                    "midi": 48,
                    "time": 259.3418030000008,
                    "velocity": 0.3543307086614173,
                    "duration": 0.14226100000001907
                },
                {
                    "name": "E3",
                    "midi": 52,
                    "time": 259.3418030000008,
                    "velocity": 0.3543307086614173,
                    "duration": 0.14226100000001907
                },
                {
                    "name": "A#3",
                    "midi": 58,
                    "time": 259.3418030000008,
                    "velocity": 0.4251968503937008,
                    "duration": 0.14226100000001907
                },
                {
                    "name": "C3",
                    "midi": 48,
                    "time": 259.48406400000084,
                    "velocity": 0.3700787401574803,
                    "duration": 0.2845219999999813
                },
                {
                    "name": "F3",
                    "midi": 53,
                    "time": 259.48406400000084,
                    "velocity": 0.3700787401574803,
                    "duration": 0.2845219999999813
                },
                {
                    "name": "A3",
                    "midi": 57,
                    "time": 259.48406400000084,
                    "velocity": 0.4409448818897638,
                    "duration": 0.2845219999999813
                },
                {
                    "name": "C#3",
                    "midi": 49,
                    "time": 259.7685860000008,
                    "velocity": 0.4094488188976378,
                    "duration": 0.2845219999999813
                },
                {
                    "name": "G3",
                    "midi": 55,
                    "time": 259.7685860000008,
                    "velocity": 0.4094488188976378,
                    "duration": 0.2845219999999813
                },
                {
                    "name": "A3",
                    "midi": 57,
                    "time": 259.7685860000008,
                    "velocity": 0.4881889763779528,
                    "duration": 0.2845219999999813
                },
                {
                    "name": "D3",
                    "midi": 50,
                    "time": 260.0531080000008,
                    "velocity": 0.4251968503937008,
                    "duration": 0.2845219999999813
                },
                {
                    "name": "C3",
                    "midi": 48,
                    "time": 260.0531080000008,
                    "velocity": 0.4251968503937008,
                    "duration": 0.2845219999999813
                },
                {
                    "name": "F#3",
                    "midi": 54,
                    "time": 260.0531080000008,
                    "velocity": 0.4251968503937008,
                    "duration": 0.2845219999999813
                },
                {
                    "name": "A3",
                    "midi": 57,
                    "time": 260.0531080000008,
                    "velocity": 0.5039370078740157,
                    "duration": 0.2845219999999813
                },
                {
                    "name": "A#3",
                    "midi": 58,
                    "time": 260.3376300000008,
                    "velocity": 0.5590551181102362,
                    "duration": 0.14226100000001907
                },
                {
                    "name": "A#2",
                    "midi": 46,
                    "time": 260.3376300000008,
                    "velocity": 0.47244094488188976,
                    "duration": 0.14226100000001907
                },
                {
                    "name": "D3",
                    "midi": 50,
                    "time": 260.3376300000008,
                    "velocity": 0.47244094488188976,
                    "duration": 0.14226100000001907
                },
                {
                    "name": "G3",
                    "midi": 55,
                    "time": 260.3376300000008,
                    "velocity": 0.47244094488188976,
                    "duration": 0.14226100000001907
                },
                {
                    "name": "D4",
                    "midi": 62,
                    "time": 260.9066740000008,
                    "velocity": 0.4881889763779528,
                    "duration": 0.2845219999999813
                },
                {
                    "name": "G#4",
                    "midi": 68,
                    "time": 260.9066740000008,
                    "velocity": 0.4881889763779528,
                    "duration": 0.2845219999999813
                },
                {
                    "name": "A#4",
                    "midi": 70,
                    "time": 260.9066740000008,
                    "velocity": 0.5826771653543307,
                    "duration": 0.2845219999999813
                },
                {
                    "name": "D#4",
                    "midi": 63,
                    "time": 261.1911960000008,
                    "velocity": 0.5039370078740157,
                    "duration": 0.2845219999999813
                },
                {
                    "name": "C#4",
                    "midi": 61,
                    "time": 261.1911960000008,
                    "velocity": 0.5039370078740157,
                    "duration": 0.2845219999999813
                },
                {
                    "name": "G4",
                    "midi": 67,
                    "time": 261.1911960000008,
                    "velocity": 0.5039370078740157,
                    "duration": 0.2845219999999813
                },
                {
                    "name": "A#4",
                    "midi": 70,
                    "time": 261.1911960000008,
                    "velocity": 0.6062992125984252,
                    "duration": 0.2845219999999813
                },
                {
                    "name": "B4",
                    "midi": 71,
                    "time": 261.47571800000077,
                    "velocity": 0.6692913385826772,
                    "duration": 0.14226100000001907
                },
                {
                    "name": "B3",
                    "midi": 59,
                    "time": 261.47571800000077,
                    "velocity": 0.5669291338582677,
                    "duration": 0.14226100000001907
                },
                {
                    "name": "D#4",
                    "midi": 63,
                    "time": 261.47571800000077,
                    "velocity": 0.5669291338582677,
                    "duration": 0.14226100000001907
                },
                {
                    "name": "G#4",
                    "midi": 68,
                    "time": 261.47571800000077,
                    "velocity": 0.5669291338582677,
                    "duration": 0.14226100000001907
                },
                {
                    "name": "D5",
                    "midi": 74,
                    "time": 262.0447620000008,
                    "velocity": 0.6456692913385826,
                    "duration": 0.2845219999999813
                },
                {
                    "name": "E5",
                    "midi": 76,
                    "time": 262.0447620000008,
                    "velocity": 0.6456692913385826,
                    "duration": 0.2845219999999813
                },
                {
                    "name": "B5",
                    "midi": 83,
                    "time": 262.0447620000008,
                    "velocity": 0.7795275590551181,
                    "duration": 0.2845219999999813
                },
                {
                    "name": "G#5",
                    "midi": 80,
                    "time": 262.0447620000008,
                    "velocity": 0.7795275590551181,
                    "duration": 0.2845219999999813
                },
                {
                    "name": "C5",
                    "midi": 72,
                    "time": 262.32928400000077,
                    "velocity": 0.6929133858267716,
                    "duration": 0.14226100000001907
                },
                {
                    "name": "E5",
                    "midi": 76,
                    "time": 262.32928400000077,
                    "velocity": 0.6929133858267716,
                    "duration": 0.14226100000001907
                },
                {
                    "name": "A5",
                    "midi": 81,
                    "time": 262.32928400000077,
                    "velocity": 0.8110236220472441,
                    "duration": 0.14226100000001907
                },
                {
                    "name": "C6",
                    "midi": 84,
                    "time": 262.32928400000077,
                    "velocity": 0.8110236220472441,
                    "duration": 0.14226100000001907
                },
                {
                    "name": "F5",
                    "midi": 77,
                    "time": 262.8983280000008,
                    "velocity": 0.4094488188976378,
                    "duration": 0.6401745000000005
                },
                {
                    "name": "A5",
                    "midi": 81,
                    "time": 262.8983280000008,
                    "velocity": 0.4094488188976378,
                    "duration": 0.5690440000000194
                },
                {
                    "name": "C6",
                    "midi": 84,
                    "time": 262.8983280000008,
                    "velocity": 0.4881889763779528,
                    "duration": 0.42678300000000036
                },
                {
                    "name": "C#6",
                    "midi": 85,
                    "time": 263.3251110000008,
                    "velocity": 0.4409448818897638,
                    "duration": 0.14226100000001907
                },
                {
                    "name": "A#5",
                    "midi": 82,
                    "time": 263.4673720000008,
                    "velocity": 0.4015748031496063,
                    "duration": 0.07113049999998111
                },
                {
                    "name": "D6",
                    "midi": 86,
                    "time": 263.4673720000008,
                    "velocity": 0.48031496062992124,
                    "duration": 0.07113049999998111
                },
                {
                    "name": "F5",
                    "midi": 77,
                    "time": 263.7518940000008,
                    "velocity": 0.36220472440944884,
                    "duration": 0.07113049999998111
                },
                {
                    "name": "A#5",
                    "midi": 82,
                    "time": 263.7518940000008,
                    "velocity": 0.36220472440944884,
                    "duration": 0.07113049999998111
                },
                {
                    "name": "D6",
                    "midi": 86,
                    "time": 263.7518940000008,
                    "velocity": 0.4330708661417323,
                    "duration": 0.07113049999998111
                },
                {
                    "name": "F5",
                    "midi": 77,
                    "time": 264.03641600000077,
                    "velocity": 0.4015748031496063,
                    "duration": 0.8535660000000007
                },
                {
                    "name": "D6",
                    "midi": 86,
                    "time": 264.03641600000077,
                    "velocity": 0.48031496062992124,
                    "duration": 0.8535660000000007
                },
                {
                    "name": "F6",
                    "midi": 89,
                    "time": 264.03641600000077,
                    "velocity": 0.48031496062992124,
                    "duration": 0.8535660000000007
                },
                {
                    "name": "F5",
                    "midi": 77,
                    "time": 265.17450400000075,
                    "velocity": 0.4251968503937008,
                    "duration": 0.7113049999999816
                },
                {
                    "name": "D5",
                    "midi": 74,
                    "time": 265.88580900000073,
                    "velocity": 0.3543307086614173,
                    "duration": 0.14226100000001907
                },
                {
                    "name": "A#4",
                    "midi": 70,
                    "time": 266.02807000000075,
                    "velocity": 0.3937007874015748,
                    "duration": 0.14226100000001907
                },
                {
                    "name": "A4",
                    "midi": 69,
                    "time": 266.1703310000008,
                    "velocity": 0.3543307086614173,
                    "duration": 0.14226100000001907
                },
                {
                    "name": "C4",
                    "midi": 60,
                    "time": 266.3125920000008,
                    "velocity": 0.2677165354330709,
                    "duration": 0.6401744999999437
                },
                {
                    "name": "E4",
                    "midi": 64,
                    "time": 266.3125920000008,
                    "velocity": 0.2677165354330709,
                    "duration": 0.5690439999999626
                },
                {
                    "name": "A4",
                    "midi": 69,
                    "time": 266.3125920000008,
                    "velocity": 0.3858267716535433,
                    "duration": 0.2845219999999813
                },
                {
                    "name": "G4",
                    "midi": 67,
                    "time": 266.5971140000008,
                    "velocity": 0.3464566929133858,
                    "duration": 0.21339150000000018
                },
                {
                    "name": "G#4",
                    "midi": 68,
                    "time": 266.8105055000008,
                    "velocity": 0.3464566929133858,
                    "duration": 0.07113049999998111
                },
                {
                    "name": "F4",
                    "midi": 65,
                    "time": 266.88163600000075,
                    "velocity": 0.31496062992125984,
                    "duration": 0.07113049999998111
                },
                {
                    "name": "A4",
                    "midi": 69,
                    "time": 266.88163600000075,
                    "velocity": 0.3779527559055118,
                    "duration": 0.07113049999998111
                },
                {
                    "name": "C4",
                    "midi": 60,
                    "time": 267.16615800000073,
                    "velocity": 0.23622047244094488,
                    "duration": 0.07113049999998111
                },
                {
                    "name": "F4",
                    "midi": 65,
                    "time": 267.16615800000073,
                    "velocity": 0.28346456692913385,
                    "duration": 0.07113049999998111
                },
                {
                    "name": "A4",
                    "midi": 69,
                    "time": 267.16615800000073,
                    "velocity": 0.3464566929133858,
                    "duration": 0.07113049999998111
                },
                {
                    "name": "A4",
                    "midi": 69,
                    "time": 267.4506800000007,
                    "velocity": 0.3779527559055118,
                    "duration": 0.8535660000000007
                },
                {
                    "name": "C5",
                    "midi": 72,
                    "time": 267.4506800000007,
                    "velocity": 0.3779527559055118,
                    "duration": 0.8535660000000007
                },
                {
                    "name": "F5",
                    "midi": 77,
                    "time": 268.5887680000007,
                    "velocity": 0.4094488188976378,
                    "duration": 0.6401745000000005
                },
                {
                    "name": "A5",
                    "midi": 81,
                    "time": 268.5887680000007,
                    "velocity": 0.4094488188976378,
                    "duration": 0.5690440000000194
                },
                {
                    "name": "C6",
                    "midi": 84,
                    "time": 268.5887680000007,
                    "velocity": 0.4881889763779528,
                    "duration": 0.42678300000000036
                },
                {
                    "name": "C#6",
                    "midi": 85,
                    "time": 269.0155510000007,
                    "velocity": 0.4409448818897638,
                    "duration": 0.14226100000001907
                },
                {
                    "name": "A#5",
                    "midi": 82,
                    "time": 269.1578120000007,
                    "velocity": 0.4015748031496063,
                    "duration": 0.07113049999998111
                },
                {
                    "name": "D6",
                    "midi": 86,
                    "time": 269.1578120000007,
                    "velocity": 0.48031496062992124,
                    "duration": 0.07113049999998111
                },
                {
                    "name": "F5",
                    "midi": 77,
                    "time": 269.4423340000007,
                    "velocity": 0.4330708661417323,
                    "duration": 0.07113049999998111
                },
                {
                    "name": "A#5",
                    "midi": 82,
                    "time": 269.4423340000007,
                    "velocity": 0.4330708661417323,
                    "duration": 0.07113049999998111
                },
                {
                    "name": "D6",
                    "midi": 86,
                    "time": 269.4423340000007,
                    "velocity": 0.5196850393700787,
                    "duration": 0.07113049999998111
                },
                {
                    "name": "A#4",
                    "midi": 70,
                    "time": 269.7268560000007,
                    "velocity": 0.6220472440944882,
                    "duration": 0.035565249999990556
                },
                {
                    "name": "D5",
                    "midi": 74,
                    "time": 269.76242125000067,
                    "velocity": 0.6062992125984252,
                    "duration": 0.035565249999990556
                },
                {
                    "name": "F5",
                    "midi": 77,
                    "time": 269.79798650000066,
                    "velocity": 0.5984251968503937,
                    "duration": 0.035565249999990556
                },
                {
                    "name": "A#5",
                    "midi": 82,
                    "time": 269.83355175000065,
                    "velocity": 0.5826771653543307,
                    "duration": 0.035565249999990556
                },
                {
                    "name": "D6",
                    "midi": 86,
                    "time": 269.86911700000064,
                    "velocity": 0.5590551181102362,
                    "duration": 0.035565249999990556
                },
                {
                    "name": "F6",
                    "midi": 89,
                    "time": 269.90468225000063,
                    "velocity": 0.5118110236220472,
                    "duration": 0.035565249999990556
                },
                {
                    "name": "A#6",
                    "midi": 94,
                    "time": 269.9402475000006,
                    "velocity": 0.48031496062992124,
                    "duration": 0.035565249999990556
                },
                {
                    "name": "D7",
                    "midi": 98,
                    "time": 269.9758127500006,
                    "velocity": 0.48031496062992124,
                    "duration": 0.035565249999990556
                },
                {
                    "name": "F7",
                    "midi": 101,
                    "time": 270.0113780000006,
                    "velocity": 0.44881889763779526,
                    "duration": 0.035565249999990556
                },
                {
                    "name": "F5",
                    "midi": 77,
                    "time": 270.8649440000006,
                    "velocity": 0.4881889763779528,
                    "duration": 0.9958270000000198
                },
                {
                    "name": "E5",
                    "midi": 76,
                    "time": 271.8607710000006,
                    "velocity": 0.3937007874015748,
                    "duration": 0.14226100000001907
                },
                {
                    "name": "E5",
                    "midi": 76,
                    "time": 272.00303200000064,
                    "velocity": 0.41732283464566927,
                    "duration": 0.2845219999999813
                },
                {
                    "name": "D5",
                    "midi": 74,
                    "time": 272.2875540000006,
                    "velocity": 0.4015748031496063,
                    "duration": 0.21339150000000018
                },
                {
                    "name": "C5",
                    "midi": 72,
                    "time": 272.5009455000006,
                    "velocity": 0.3700787401574803,
                    "duration": 0.07113049999998111
                },
                {
                    "name": "C5",
                    "midi": 72,
                    "time": 272.5720760000006,
                    "velocity": 0.4015748031496063,
                    "duration": 0.2845219999999813
                },
                {
                    "name": "A#4",
                    "midi": 70,
                    "time": 272.8565980000006,
                    "velocity": 0.3779527559055118,
                    "duration": 0.21339150000000018
                },
                {
                    "name": "A4",
                    "midi": 69,
                    "time": 273.0699895000006,
                    "velocity": 0.3228346456692913,
                    "duration": 0.07113049999998111
                },
                {
                    "name": "C4",
                    "midi": 60,
                    "time": 273.14112000000057,
                    "velocity": 0.23622047244094488,
                    "duration": 0.6401744999999437
                },
                {
                    "name": "E4",
                    "midi": 64,
                    "time": 273.14112000000057,
                    "velocity": 0.23622047244094488,
                    "duration": 0.5690439999999626
                },
                {
                    "name": "A4",
                    "midi": 69,
                    "time": 273.14112000000057,
                    "velocity": 0.3464566929133858,
                    "duration": 0.2845219999999813
                },
                {
                    "name": "G4",
                    "midi": 67,
                    "time": 273.42564200000055,
                    "velocity": 0.30708661417322836,
                    "duration": 0.21339150000000018
                },
                {
                    "name": "G#4",
                    "midi": 68,
                    "time": 273.63903350000055,
                    "velocity": 0.30708661417322836,
                    "duration": 0.07113049999998111
                },
                {
                    "name": "F4",
                    "midi": 65,
                    "time": 273.71016400000053,
                    "velocity": 0.28346456692913385,
                    "duration": 0.07113049999998111
                },
                {
                    "name": "A4",
                    "midi": 69,
                    "time": 273.71016400000053,
                    "velocity": 0.33858267716535434,
                    "duration": 0.07113049999998111
                },
                {
                    "name": "C4",
                    "midi": 60,
                    "time": 273.9946860000005,
                    "velocity": 0.2125984251968504,
                    "duration": 0.07113049999998111
                },
                {
                    "name": "F4",
                    "midi": 65,
                    "time": 273.9946860000005,
                    "velocity": 0.25196850393700787,
                    "duration": 0.07113049999998111
                },
                {
                    "name": "A4",
                    "midi": 69,
                    "time": 273.9946860000005,
                    "velocity": 0.30708661417322836,
                    "duration": 0.07113049999998111
                },
                {
                    "name": "A4",
                    "midi": 69,
                    "time": 274.2792080000005,
                    "velocity": 0.33858267716535434,
                    "duration": 0.8535660000000007
                },
                {
                    "name": "C5",
                    "midi": 72,
                    "time": 274.2792080000005,
                    "velocity": 0.33858267716535434,
                    "duration": 0.8535660000000007
                },
                {
                    "name": "E4",
                    "midi": 64,
                    "time": 275.4172960000005,
                    "velocity": 0.25196850393700787,
                    "duration": 0.07113049999998111
                },
                {
                    "name": "G#4",
                    "midi": 68,
                    "time": 275.4172960000005,
                    "velocity": 0.25196850393700787,
                    "duration": 0.07113049999998111
                },
                {
                    "name": "C#5",
                    "midi": 73,
                    "time": 275.4172960000005,
                    "velocity": 0.2992125984251969,
                    "duration": 0.07113049999998111
                },
                {
                    "name": "E4",
                    "midi": 64,
                    "time": 275.70181800000046,
                    "velocity": 0.1889763779527559,
                    "duration": 0.07113049999998111
                },
                {
                    "name": "G#4",
                    "midi": 68,
                    "time": 275.70181800000046,
                    "velocity": 0.2204724409448819,
                    "duration": 0.07113049999998111
                },
                {
                    "name": "C#5",
                    "midi": 73,
                    "time": 275.70181800000046,
                    "velocity": 0.2755905511811024,
                    "duration": 0.07113049999998111
                },
                {
                    "name": "E4",
                    "midi": 64,
                    "time": 275.98634000000044,
                    "velocity": 0.2992125984251969,
                    "duration": 0.2845219999999813
                },
                {
                    "name": "G#4",
                    "midi": 68,
                    "time": 275.98634000000044,
                    "velocity": 0.2992125984251969,
                    "duration": 0.2845219999999813
                },
                {
                    "name": "E5",
                    "midi": 76,
                    "time": 275.98634000000044,
                    "velocity": 0.2992125984251969,
                    "duration": 0.2845219999999813
                },
                {
                    "name": "E4",
                    "midi": 64,
                    "time": 276.2708620000004,
                    "velocity": 0.3937007874015748,
                    "duration": 0.2845219999999813
                },
                {
                    "name": "E4",
                    "midi": 64,
                    "time": 276.5553840000004,
                    "velocity": 0.4251968503937008,
                    "duration": 0.2845219999999813
                },
                {
                    "name": "D#4",
                    "midi": 63,
                    "time": 276.8399060000004,
                    "velocity": 0.4094488188976378,
                    "duration": 0.2845219999999813
                },
                {
                    "name": "E4",
                    "midi": 64,
                    "time": 277.12442800000036,
                    "velocity": 0.4251968503937008,
                    "duration": 0.2845219999999813
                },
                {
                    "name": "F#4",
                    "midi": 66,
                    "time": 277.40895000000035,
                    "velocity": 0.4015748031496063,
                    "duration": 0.2845219999999813
                },
                {
                    "name": "G#4",
                    "midi": 68,
                    "time": 277.6934720000003,
                    "velocity": 0.4251968503937008,
                    "duration": 0.8535660000000007
                },
                {
                    "name": "G#4",
                    "midi": 68,
                    "time": 278.5470380000003,
                    "velocity": 0.4094488188976378,
                    "duration": 0.2845219999999813
                },
                {
                    "name": "G#4",
                    "midi": 68,
                    "time": 278.8315600000003,
                    "velocity": 0.4330708661417323,
                    "duration": 0.14226100000001907
                },
                {
                    "name": "F#4",
                    "midi": 66,
                    "time": 278.9738210000003,
                    "velocity": 0.4094488188976378,
                    "duration": 0.14226100000001907
                },
                {
                    "name": "G#4",
                    "midi": 68,
                    "time": 279.11608200000035,
                    "velocity": 0.4330708661417323,
                    "duration": 0.14226100000001907
                },
                {
                    "name": "A4",
                    "midi": 69,
                    "time": 279.25834300000037,
                    "velocity": 0.4015748031496063,
                    "duration": 0.14226100000001907
                },
                {
                    "name": "B4",
                    "midi": 71,
                    "time": 279.4006040000004,
                    "velocity": 0.4330708661417323,
                    "duration": 0.14226100000001907
                },
                {
                    "name": "D5",
                    "midi": 74,
                    "time": 279.5428650000004,
                    "velocity": 0.44881889763779526,
                    "duration": 0.14226100000001907
                },
                {
                    "name": "C#5",
                    "midi": 73,
                    "time": 279.6851260000004,
                    "velocity": 0.4330708661417323,
                    "duration": 0.14226100000001907
                },
                {
                    "name": "G#4",
                    "midi": 68,
                    "time": 279.82738700000044,
                    "velocity": 0.41732283464566927,
                    "duration": 0.14226100000001907
                },
                {
                    "name": "A4",
                    "midi": 69,
                    "time": 279.96964800000046,
                    "velocity": 0.4251968503937008,
                    "duration": 0.8535660000000007
                },
                {
                    "name": "A4",
                    "midi": 69,
                    "time": 280.82321400000046,
                    "velocity": 0.33070866141732286,
                    "duration": 0.2845219999999813
                },
                {
                    "name": "A5",
                    "midi": 81,
                    "time": 280.82321400000046,
                    "velocity": 0.3937007874015748,
                    "duration": 0.2845219999999813
                },
                {
                    "name": "A4",
                    "midi": 69,
                    "time": 281.10773600000044,
                    "velocity": 0.3543307086614173,
                    "duration": 0.2845219999999813
                },
                {
                    "name": "A5",
                    "midi": 81,
                    "time": 281.10773600000044,
                    "velocity": 0.4251968503937008,
                    "duration": 0.2845219999999813
                },
                {
                    "name": "G#4",
                    "midi": 68,
                    "time": 281.3922580000004,
                    "velocity": 0.3464566929133858,
                    "duration": 0.2845219999999813
                },
                {
                    "name": "G#5",
                    "midi": 80,
                    "time": 281.3922580000004,
                    "velocity": 0.4094488188976378,
                    "duration": 0.2845219999999813
                },
                {
                    "name": "A4",
                    "midi": 69,
                    "time": 281.6767800000004,
                    "velocity": 0.3543307086614173,
                    "duration": 0.2845219999999813
                },
                {
                    "name": "A5",
                    "midi": 81,
                    "time": 281.6767800000004,
                    "velocity": 0.4251968503937008,
                    "duration": 0.2845219999999813
                },
                {
                    "name": "B4",
                    "midi": 71,
                    "time": 281.9613020000004,
                    "velocity": 0.33858267716535434,
                    "duration": 0.2845219999999813
                },
                {
                    "name": "B5",
                    "midi": 83,
                    "time": 281.9613020000004,
                    "velocity": 0.4015748031496063,
                    "duration": 0.2845219999999813
                },
                {
                    "name": "C#5",
                    "midi": 73,
                    "time": 282.24582400000037,
                    "velocity": 0.3543307086614173,
                    "duration": 0.8535660000000007
                },
                {
                    "name": "C#6",
                    "midi": 85,
                    "time": 282.24582400000037,
                    "velocity": 0.4251968503937008,
                    "duration": 0.8535660000000007
                },
                {
                    "name": "C#5",
                    "midi": 73,
                    "time": 283.09939000000037,
                    "velocity": 0.3464566929133858,
                    "duration": 0.2845219999999813
                },
                {
                    "name": "C#6",
                    "midi": 85,
                    "time": 283.09939000000037,
                    "velocity": 0.4094488188976378,
                    "duration": 0.2845219999999813
                },
                {
                    "name": "C#5",
                    "midi": 73,
                    "time": 283.38391200000035,
                    "velocity": 0.36220472440944884,
                    "duration": 0.14226100000001907
                },
                {
                    "name": "C#6",
                    "midi": 85,
                    "time": 283.38391200000035,
                    "velocity": 0.4330708661417323,
                    "duration": 0.14226100000001907
                },
                {
                    "name": "B4",
                    "midi": 71,
                    "time": 283.52617300000037,
                    "velocity": 0.3464566929133858,
                    "duration": 0.14226100000001907
                },
                {
                    "name": "B5",
                    "midi": 83,
                    "time": 283.52617300000037,
                    "velocity": 0.4094488188976378,
                    "duration": 0.14226100000001907
                },
                {
                    "name": "C#5",
                    "midi": 73,
                    "time": 283.6684340000004,
                    "velocity": 0.36220472440944884,
                    "duration": 0.14226100000001907
                },
                {
                    "name": "C#6",
                    "midi": 85,
                    "time": 283.6684340000004,
                    "velocity": 0.4330708661417323,
                    "duration": 0.14226100000001907
                },
                {
                    "name": "D5",
                    "midi": 74,
                    "time": 283.8106950000004,
                    "velocity": 0.33858267716535434,
                    "duration": 0.14226100000001907
                },
                {
                    "name": "D6",
                    "midi": 86,
                    "time": 283.8106950000004,
                    "velocity": 0.4015748031496063,
                    "duration": 0.14226100000001907
                },
                {
                    "name": "E5",
                    "midi": 76,
                    "time": 283.9529560000004,
                    "velocity": 0.36220472440944884,
                    "duration": 0.14226100000001907
                },
                {
                    "name": "E6",
                    "midi": 88,
                    "time": 283.9529560000004,
                    "velocity": 0.4330708661417323,
                    "duration": 0.14226100000001907
                },
                {
                    "name": "G5",
                    "midi": 79,
                    "time": 284.09521700000045,
                    "velocity": 0.3779527559055118,
                    "duration": 0.14226100000001907
                },
                {
                    "name": "G6",
                    "midi": 91,
                    "time": 284.09521700000045,
                    "velocity": 0.44881889763779526,
                    "duration": 0.14226100000001907
                },
                {
                    "name": "F#5",
                    "midi": 78,
                    "time": 284.23747800000046,
                    "velocity": 0.36220472440944884,
                    "duration": 0.14226100000001907
                },
                {
                    "name": "F#6",
                    "midi": 90,
                    "time": 284.23747800000046,
                    "velocity": 0.4330708661417323,
                    "duration": 0.14226100000001907
                },
                {
                    "name": "C#5",
                    "midi": 73,
                    "time": 284.3797390000005,
                    "velocity": 0.3543307086614173,
                    "duration": 0.14226100000001907
                },
                {
                    "name": "C#6",
                    "midi": 85,
                    "time": 284.3797390000005,
                    "velocity": 0.41732283464566927,
                    "duration": 0.14226100000001907
                },
                {
                    "name": "D5",
                    "midi": 74,
                    "time": 284.5220000000005,
                    "velocity": 0.3543307086614173,
                    "duration": 0.8535660000000007
                },
                {
                    "name": "D6",
                    "midi": 86,
                    "time": 284.5220000000005,
                    "velocity": 0.4251968503937008,
                    "duration": 0.8535660000000007
                },
                {
                    "name": "D5",
                    "midi": 74,
                    "time": 285.3755660000005,
                    "velocity": 0.4251968503937008,
                    "duration": 0.2845219999999813
                },
                {
                    "name": "D6",
                    "midi": 86,
                    "time": 285.3755660000005,
                    "velocity": 0.4251968503937008,
                    "duration": 0.2845219999999813
                },
                {
                    "name": "C#5",
                    "midi": 73,
                    "time": 285.6600880000005,
                    "velocity": 0.4566929133858268,
                    "duration": 0.42678300000000036
                },
                {
                    "name": "C#6",
                    "midi": 85,
                    "time": 285.6600880000005,
                    "velocity": 0.4566929133858268,
                    "duration": 0.42678300000000036
                },
                {
                    "name": "B4",
                    "midi": 71,
                    "time": 286.0868710000005,
                    "velocity": 0.4251968503937008,
                    "duration": 0.14226100000001907
                },
                {
                    "name": "B5",
                    "midi": 83,
                    "time": 286.0868710000005,
                    "velocity": 0.4251968503937008,
                    "duration": 0.14226100000001907
                },
                {
                    "name": "A4",
                    "midi": 69,
                    "time": 286.2291320000005,
                    "velocity": 0.4251968503937008,
                    "duration": 0.14226100000001907
                },
                {
                    "name": "A5",
                    "midi": 81,
                    "time": 286.2291320000005,
                    "velocity": 0.4251968503937008,
                    "duration": 0.14226100000001907
                },
                {
                    "name": "A4",
                    "midi": 69,
                    "time": 286.51365400000054,
                    "velocity": 0.4251968503937008,
                    "duration": 0.2845219999999813
                },
                {
                    "name": "A5",
                    "midi": 81,
                    "time": 286.51365400000054,
                    "velocity": 0.4251968503937008,
                    "duration": 0.2845219999999813
                },
                {
                    "name": "G#4",
                    "midi": 68,
                    "time": 286.7981760000005,
                    "velocity": 0.44881889763779526,
                    "duration": 0.42678300000000036
                },
                {
                    "name": "G#5",
                    "midi": 80,
                    "time": 286.7981760000005,
                    "velocity": 0.44881889763779526,
                    "duration": 0.42678300000000036
                },
                {
                    "name": "F#4",
                    "midi": 66,
                    "time": 287.2249590000005,
                    "velocity": 0.4094488188976378,
                    "duration": 0.14226100000001907
                },
                {
                    "name": "F#5",
                    "midi": 78,
                    "time": 287.2249590000005,
                    "velocity": 0.4094488188976378,
                    "duration": 0.14226100000001907
                },
                {
                    "name": "E4",
                    "midi": 64,
                    "time": 287.36722000000054,
                    "velocity": 0.4251968503937008,
                    "duration": 0.14226100000001907
                },
                {
                    "name": "E5",
                    "midi": 76,
                    "time": 287.36722000000054,
                    "velocity": 0.4251968503937008,
                    "duration": 0.14226100000001907
                },
                {
                    "name": "E4",
                    "midi": 64,
                    "time": 287.6517420000006,
                    "velocity": 0.4015748031496063,
                    "duration": 0.2845219999999813
                },
                {
                    "name": "E5",
                    "midi": 76,
                    "time": 287.6517420000006,
                    "velocity": 0.4015748031496063,
                    "duration": 0.2845219999999813
                },
                {
                    "name": "D4",
                    "midi": 62,
                    "time": 287.93626400000056,
                    "velocity": 0.4251968503937008,
                    "duration": 0.2845219999999813
                },
                {
                    "name": "D5",
                    "midi": 74,
                    "time": 287.93626400000056,
                    "velocity": 0.4251968503937008,
                    "duration": 0.2845219999999813
                },
                {
                    "name": "F#4",
                    "midi": 66,
                    "time": 288.22078600000054,
                    "velocity": 0.3937007874015748,
                    "duration": 0.2845219999999813
                },
                {
                    "name": "F#5",
                    "midi": 78,
                    "time": 288.22078600000054,
                    "velocity": 0.3937007874015748,
                    "duration": 0.2845219999999813
                },
                {
                    "name": "C#4",
                    "midi": 61,
                    "time": 288.5053080000005,
                    "velocity": 0.4251968503937008,
                    "duration": 0.2845219999999813
                },
                {
                    "name": "C#5",
                    "midi": 73,
                    "time": 288.5053080000005,
                    "velocity": 0.4251968503937008,
                    "duration": 0.2845219999999813
                },
                {
                    "name": "C4",
                    "midi": 60,
                    "time": 288.7898300000005,
                    "velocity": 0.4094488188976378,
                    "duration": 0.2845219999999813
                },
                {
                    "name": "C5",
                    "midi": 72,
                    "time": 288.7898300000005,
                    "velocity": 0.4094488188976378,
                    "duration": 0.2845219999999813
                },
                {
                    "name": "D4",
                    "midi": 62,
                    "time": 289.0743520000005,
                    "velocity": 0.4881889763779528,
                    "duration": 0.8535660000000007
                },
                {
                    "name": "D5",
                    "midi": 74,
                    "time": 289.0743520000005,
                    "velocity": 0.4881889763779528,
                    "duration": 0.8535660000000007
                },
                {
                    "name": "E4",
                    "midi": 64,
                    "time": 289.9279180000005,
                    "velocity": 0.4251968503937008,
                    "duration": 0.14226100000001907
                },
                {
                    "name": "E5",
                    "midi": 76,
                    "time": 289.9279180000005,
                    "velocity": 0.4251968503937008,
                    "duration": 0.14226100000001907
                },
                {
                    "name": "F#4",
                    "midi": 66,
                    "time": 290.0701790000005,
                    "velocity": 0.3858267716535433,
                    "duration": 0.14226100000001907
                },
                {
                    "name": "F#5",
                    "midi": 78,
                    "time": 290.0701790000005,
                    "velocity": 0.3858267716535433,
                    "duration": 0.14226100000001907
                },
                {
                    "name": "G#4",
                    "midi": 68,
                    "time": 290.2124400000005,
                    "velocity": 0.44881889763779526,
                    "duration": 0.2845219999999813
                },
                {
                    "name": "G#5",
                    "midi": 80,
                    "time": 290.2124400000005,
                    "velocity": 0.44881889763779526,
                    "duration": 0.2845219999999813
                },
                {
                    "name": "A4",
                    "midi": 69,
                    "time": 290.4969620000005,
                    "velocity": 0.4330708661417323,
                    "duration": 0.2845219999999813
                },
                {
                    "name": "A5",
                    "midi": 81,
                    "time": 290.4969620000005,
                    "velocity": 0.4330708661417323,
                    "duration": 0.2845219999999813
                },
                {
                    "name": "C#4",
                    "midi": 61,
                    "time": 290.7814840000005,
                    "velocity": 0.4251968503937008,
                    "duration": 0.2845219999999813
                },
                {
                    "name": "C#5",
                    "midi": 73,
                    "time": 290.7814840000005,
                    "velocity": 0.4251968503937008,
                    "duration": 0.2845219999999813
                },
                {
                    "name": "C4",
                    "midi": 60,
                    "time": 291.06600600000047,
                    "velocity": 0.4094488188976378,
                    "duration": 0.2845219999999813
                },
                {
                    "name": "C5",
                    "midi": 72,
                    "time": 291.06600600000047,
                    "velocity": 0.4094488188976378,
                    "duration": 0.2845219999999813
                },
                {
                    "name": "C#5",
                    "midi": 73,
                    "time": 291.35052800000045,
                    "velocity": 0.47244094488188976,
                    "duration": 0.09484066666664148
                },
                {
                    "name": "C#6",
                    "midi": 85,
                    "time": 291.4453686666671,
                    "velocity": 0.3858267716535433,
                    "duration": 0.09484066666664148
                },
                {
                    "name": "A5",
                    "midi": 81,
                    "time": 291.54020933333373,
                    "velocity": 0.3858267716535433,
                    "duration": 0.04742033333332074
                },
                {
                    "name": "E5",
                    "midi": 76,
                    "time": 291.6350500000004,
                    "velocity": 0.41732283464566927,
                    "duration": 0.04742033333332074
                },
                {
                    "name": "C#5",
                    "midi": 73,
                    "time": 291.729890666667,
                    "velocity": 0.3779527559055118,
                    "duration": 0.04742033333332074
                },
                {
                    "name": "A4",
                    "midi": 69,
                    "time": 291.82473133333366,
                    "velocity": 0.36220472440944884,
                    "duration": 0.04742033333332074
                },
                {
                    "name": "E4",
                    "midi": 64,
                    "time": 291.9195720000003,
                    "velocity": 0.4015748031496063,
                    "duration": 0.09484066666664148
                },
                {
                    "name": "C#4",
                    "midi": 61,
                    "time": 292.01441266666694,
                    "velocity": 0.36220472440944884,
                    "duration": 0.09484066666664148
                },
                {
                    "name": "A3",
                    "midi": 57,
                    "time": 292.1092533333336,
                    "velocity": 0.36220472440944884,
                    "duration": 0.09484066666664148
                },
                {
                    "name": "C#4",
                    "midi": 61,
                    "time": 292.2040940000002,
                    "velocity": 0.41732283464566927,
                    "duration": 0.09484066666664148
                },
                {
                    "name": "E4",
                    "midi": 64,
                    "time": 292.29893466666687,
                    "velocity": 0.3937007874015748,
                    "duration": 0.09484066666664148
                },
                {
                    "name": "A4",
                    "midi": 69,
                    "time": 292.3937753333335,
                    "velocity": 0.3937007874015748,
                    "duration": 0.09484066666664148
                },
                {
                    "name": "C#5",
                    "midi": 73,
                    "time": 292.48861600000015,
                    "velocity": 0.44881889763779526,
                    "duration": 0.09484066666664148
                },
                {
                    "name": "C#6",
                    "midi": 85,
                    "time": 292.5834566666668,
                    "velocity": 0.3858267716535433,
                    "duration": 0.09484066666664148
                },
                {
                    "name": "A5",
                    "midi": 81,
                    "time": 292.67829733333343,
                    "velocity": 0.3858267716535433,
                    "duration": 0.04742033333332074
                },
                {
                    "name": "E5",
                    "midi": 76,
                    "time": 292.7731380000001,
                    "velocity": 0.41732283464566927,
                    "duration": 0.04742033333332074
                },
                {
                    "name": "C#5",
                    "midi": 73,
                    "time": 292.8679786666667,
                    "velocity": 0.3779527559055118,
                    "duration": 0.04742033333332074
                },
                {
                    "name": "A4",
                    "midi": 69,
                    "time": 292.96281933333336,
                    "velocity": 0.36220472440944884,
                    "duration": 0.04742033333332074
                },
                {
                    "name": "E4",
                    "midi": 64,
                    "time": 293.05766,
                    "velocity": 0.4015748031496063,
                    "duration": 0.09484066666664148
                },
                {
                    "name": "C#4",
                    "midi": 61,
                    "time": 293.15250066666664,
                    "velocity": 0.36220472440944884,
                    "duration": 0.09484066666664148
                },
                {
                    "name": "A3",
                    "midi": 57,
                    "time": 293.2473413333333,
                    "velocity": 0.36220472440944884,
                    "duration": 0.09484066666664148
                },
                {
                    "name": "C#4",
                    "midi": 61,
                    "time": 293.3421819999999,
                    "velocity": 0.41732283464566927,
                    "duration": 0.09484066666664148
                },
                {
                    "name": "E4",
                    "midi": 64,
                    "time": 293.43702266666656,
                    "velocity": 0.3937007874015748,
                    "duration": 0.09484066666664148
                },
                {
                    "name": "A4",
                    "midi": 69,
                    "time": 293.5318633333332,
                    "velocity": 0.3937007874015748,
                    "duration": 0.09484066666664148
                },
                {
                    "name": "C#5",
                    "midi": 73,
                    "time": 293.62670399999985,
                    "velocity": 0.41732283464566927,
                    "duration": 0.09484066666664148
                },
                {
                    "name": "A4",
                    "midi": 69,
                    "time": 293.7215446666665,
                    "velocity": 0.3779527559055118,
                    "duration": 0.09484066666664148
                },
                {
                    "name": "E4",
                    "midi": 64,
                    "time": 293.81638533333313,
                    "velocity": 0.3779527559055118,
                    "duration": 0.09484066666664148
                },
                {
                    "name": "E5",
                    "midi": 76,
                    "time": 293.9112259999998,
                    "velocity": 0.41732283464566927,
                    "duration": 0.28452199999992445
                },
                {
                    "name": "A4",
                    "midi": 69,
                    "time": 294.0060666666664,
                    "velocity": 0.3700787401574803,
                    "duration": 0.09484066666664148
                },
                {
                    "name": "E4",
                    "midi": 64,
                    "time": 294.10090733333305,
                    "velocity": 0.3543307086614173,
                    "duration": 0.09484066666664148
                },
                {
                    "name": "F5",
                    "midi": 77,
                    "time": 294.1957479999997,
                    "velocity": 0.4330708661417323,
                    "duration": 0.28452199999992445
                },
                {
                    "name": "D5",
                    "midi": 74,
                    "time": 294.1957479999997,
                    "velocity": 0.36220472440944884,
                    "duration": 0.09484066666664148
                },
                {
                    "name": "G#4",
                    "midi": 68,
                    "time": 294.29058866666634,
                    "velocity": 0.33070866141732286,
                    "duration": 0.09484066666664148
                },
                {
                    "name": "F4",
                    "midi": 65,
                    "time": 294.385429333333,
                    "velocity": 0.3228346456692913,
                    "duration": 0.09484066666664148
                },
                {
                    "name": "E5",
                    "midi": 76,
                    "time": 294.4802699999996,
                    "velocity": 0.4330708661417323,
                    "duration": 0.28452199999992445
                },
                {
                    "name": "B4",
                    "midi": 71,
                    "time": 294.4802699999996,
                    "velocity": 0.36220472440944884,
                    "duration": 0.09484066666664148
                },
                {
                    "name": "G#4",
                    "midi": 68,
                    "time": 294.57511066666626,
                    "velocity": 0.33070866141732286,
                    "duration": 0.09484066666664148
                },
                {
                    "name": "E4",
                    "midi": 64,
                    "time": 294.6699513333329,
                    "velocity": 0.33070866141732286,
                    "duration": 0.09484066666664148
                },
                {
                    "name": "C#5",
                    "midi": 73,
                    "time": 294.76479199999955,
                    "velocity": 0.41732283464566927,
                    "duration": 0.28452199999992445
                },
                {
                    "name": "A4",
                    "midi": 69,
                    "time": 294.8596326666662,
                    "velocity": 0.3779527559055118,
                    "duration": 0.09484066666664148
                },
                {
                    "name": "E4",
                    "midi": 64,
                    "time": 294.9544733333328,
                    "velocity": 0.3779527559055118,
                    "duration": 0.09484066666664148
                },
                {
                    "name": "E5",
                    "midi": 76,
                    "time": 295.04931399999947,
                    "velocity": 0.41732283464566927,
                    "duration": 0.28452199999992445
                },
                {
                    "name": "A4",
                    "midi": 69,
                    "time": 295.1441546666661,
                    "velocity": 0.3700787401574803,
                    "duration": 0.09484066666664148
                },
                {
                    "name": "E4",
                    "midi": 64,
                    "time": 295.23899533333275,
                    "velocity": 0.3543307086614173,
                    "duration": 0.09484066666664148
                },
                {
                    "name": "F5",
                    "midi": 77,
                    "time": 295.3338359999994,
                    "velocity": 0.4330708661417323,
                    "duration": 0.28452199999992445
                },
                {
                    "name": "D5",
                    "midi": 74,
                    "time": 295.3338359999994,
                    "velocity": 0.36220472440944884,
                    "duration": 0.09484066666664148
                },
                {
                    "name": "G#4",
                    "midi": 68,
                    "time": 295.42867666666604,
                    "velocity": 0.33070866141732286,
                    "duration": 0.09484066666664148
                },
                {
                    "name": "F4",
                    "midi": 65,
                    "time": 295.5235173333327,
                    "velocity": 0.3228346456692913,
                    "duration": 0.09484066666664148
                },
                {
                    "name": "E5",
                    "midi": 76,
                    "time": 295.6183579999993,
                    "velocity": 0.4330708661417323,
                    "duration": 0.28452199999992445
                },
                {
                    "name": "B4",
                    "midi": 71,
                    "time": 295.6183579999993,
                    "velocity": 0.36220472440944884,
                    "duration": 0.09484066666664148
                },
                {
                    "name": "G#4",
                    "midi": 68,
                    "time": 295.71319866666596,
                    "velocity": 0.33070866141732286,
                    "duration": 0.09484066666664148
                },
                {
                    "name": "E4",
                    "midi": 64,
                    "time": 295.8080393333326,
                    "velocity": 0.33070866141732286,
                    "duration": 0.09484066666664148
                },
                {
                    "name": "C#5",
                    "midi": 73,
                    "time": 295.90287999999924,
                    "velocity": 0.6062992125984252,
                    "duration": 0.09484066666664148
                },
                {
                    "name": "C#6",
                    "midi": 85,
                    "time": 295.9977206666659,
                    "velocity": 0.5354330708661418,
                    "duration": 0.09484066666664148
                },
                {
                    "name": "A5",
                    "midi": 81,
                    "time": 296.0925613333325,
                    "velocity": 0.4566929133858268,
                    "duration": 0.04742033333332074
                },
                {
                    "name": "E5",
                    "midi": 76,
                    "time": 296.18740199999917,
                    "velocity": 0.49606299212598426,
                    "duration": 0.04742033333332074
                },
                {
                    "name": "C#5",
                    "midi": 73,
                    "time": 296.2822426666658,
                    "velocity": 0.44881889763779526,
                    "duration": 0.04742033333332074
                },
                {
                    "name": "A4",
                    "midi": 69,
                    "time": 296.37708333333245,
                    "velocity": 0.4330708661417323,
                    "duration": 0.04742033333332074
                },
                {
                    "name": "E4",
                    "midi": 64,
                    "time": 296.4719239999991,
                    "velocity": 0.48031496062992124,
                    "duration": 0.09484066666664148
                },
                {
                    "name": "C#4",
                    "midi": 61,
                    "time": 296.56676466666573,
                    "velocity": 0.4330708661417323,
                    "duration": 0.09484066666664148
                },
                {
                    "name": "A3",
                    "midi": 57,
                    "time": 296.6616053333324,
                    "velocity": 0.4330708661417323,
                    "duration": 0.09484066666664148
                },
                {
                    "name": "C#4",
                    "midi": 61,
                    "time": 296.756445999999,
                    "velocity": 0.49606299212598426,
                    "duration": 0.09484066666664148
                },
                {
                    "name": "E4",
                    "midi": 64,
                    "time": 296.85128666666566,
                    "velocity": 0.4409448818897638,
                    "duration": 0.09484066666664148
                },
                {
                    "name": "A4",
                    "midi": 69,
                    "time": 296.9461273333323,
                    "velocity": 0.44881889763779526,
                    "duration": 0.09484066666664148
                },
                {
                    "name": "C#5",
                    "midi": 73,
                    "time": 297.04096799999894,
                    "velocity": 0.4645669291338583,
                    "duration": 0.09484066666664148
                },
                {
                    "name": "G4",
                    "midi": 67,
                    "time": 297.1358086666656,
                    "velocity": 0.4409448818897638,
                    "duration": 0.09484066666664148
                },
                {
                    "name": "E4",
                    "midi": 64,
                    "time": 297.2306493333322,
                    "velocity": 0.4409448818897638,
                    "duration": 0.09484066666664148
                },
                {
                    "name": "E5",
                    "midi": 76,
                    "time": 297.32548999999887,
                    "velocity": 0.49606299212598426,
                    "duration": 0.09484066666664148
                },
                {
                    "name": "A#4",
                    "midi": 70,
                    "time": 297.4203306666655,
                    "velocity": 0.4566929133858268,
                    "duration": 0.09484066666664148
                },
                {
                    "name": "G4",
                    "midi": 67,
                    "time": 297.51517133333215,
                    "velocity": 0.4566929133858268,
                    "duration": 0.09484066666664148
                },
                {
                    "name": "A#5",
                    "midi": 82,
                    "time": 297.6100119999988,
                    "velocity": 0.5196850393700787,
                    "duration": 0.09484066666664148
                },
                {
                    "name": "E5",
                    "midi": 76,
                    "time": 297.70485266666543,
                    "velocity": 0.4566929133858268,
                    "duration": 0.09484066666664148
                },
                {
                    "name": "C#5",
                    "midi": 73,
                    "time": 297.7996933333321,
                    "velocity": 0.47244094488188976,
                    "duration": 0.09484066666664148
                },
                {
                    "name": "G5",
                    "midi": 79,
                    "time": 297.8945339999987,
                    "velocity": 0.49606299212598426,
                    "duration": 0.09484066666664148
                },
                {
                    "name": "D#5",
                    "midi": 75,
                    "time": 297.98937466666536,
                    "velocity": 0.4566929133858268,
                    "duration": 0.09484066666664148
                },
                {
                    "name": "C#5",
                    "midi": 73,
                    "time": 298.084215333332,
                    "velocity": 0.4566929133858268,
                    "duration": 0.09484066666664148
                },
                {
                    "name": "B4",
                    "midi": 71,
                    "time": 298.17905599999864,
                    "velocity": 0.5433070866141733,
                    "duration": 0.09484066666664148
                },
                {
                    "name": "B5",
                    "midi": 83,
                    "time": 298.2738966666653,
                    "velocity": 0.3858267716535433,
                    "duration": 0.09484066666664148
                },
                {
                    "name": "G#5",
                    "midi": 80,
                    "time": 298.3687373333319,
                    "velocity": 0.3858267716535433,
                    "duration": 0.04742033333332074
                },
                {
                    "name": "D#5",
                    "midi": 75,
                    "time": 298.46357799999856,
                    "velocity": 0.41732283464566927,
                    "duration": 0.04742033333332074
                },
                {
                    "name": "B4",
                    "midi": 71,
                    "time": 298.5584186666652,
                    "velocity": 0.3779527559055118,
                    "duration": 0.04742033333332074
                },
                {
                    "name": "G#4",
                    "midi": 68,
                    "time": 298.65325933333185,
                    "velocity": 0.36220472440944884,
                    "duration": 0.04742033333332074
                },
                {
                    "name": "D#4",
                    "midi": 63,
                    "time": 298.7480999999985,
                    "velocity": 0.4015748031496063,
                    "duration": 0.09484066666664148
                },
                {
                    "name": "B3",
                    "midi": 59,
                    "time": 298.84294066666513,
                    "velocity": 0.36220472440944884,
                    "duration": 0.09484066666664148
                },
                {
                    "name": "G#3",
                    "midi": 56,
                    "time": 298.93778133333177,
                    "velocity": 0.36220472440944884,
                    "duration": 0.09484066666664148
                },
                {
                    "name": "B3",
                    "midi": 59,
                    "time": 299.0326219999984,
                    "velocity": 0.41732283464566927,
                    "duration": 0.09484066666664148
                },
                {
                    "name": "D#4",
                    "midi": 63,
                    "time": 299.12746266666505,
                    "velocity": 0.3937007874015748,
                    "duration": 0.09484066666664148
                },
                {
                    "name": "G#4",
                    "midi": 68,
                    "time": 299.2223033333317,
                    "velocity": 0.3937007874015748,
                    "duration": 0.09484066666664148
                },
                {
                    "name": "B4",
                    "midi": 71,
                    "time": 299.31714399999834,
                    "velocity": 0.5275590551181102,
                    "duration": 0.09484066666664148
                },
                {
                    "name": "B5",
                    "midi": 83,
                    "time": 299.411984666665,
                    "velocity": 0.3858267716535433,
                    "duration": 0.09484066666664148
                },
                {
                    "name": "G#5",
                    "midi": 80,
                    "time": 299.5068253333316,
                    "velocity": 0.3858267716535433,
                    "duration": 0.04742033333332074
                },
                {
                    "name": "D#5",
                    "midi": 75,
                    "time": 299.60166599999826,
                    "velocity": 0.41732283464566927,
                    "duration": 0.04742033333332074
                },
                {
                    "name": "B4",
                    "midi": 71,
                    "time": 299.6965066666649,
                    "velocity": 0.3779527559055118,
                    "duration": 0.04742033333332074
                },
                {
                    "name": "G#4",
                    "midi": 68,
                    "time": 299.79134733333154,
                    "velocity": 0.36220472440944884,
                    "duration": 0.04742033333332074
                },
                {
                    "name": "D#4",
                    "midi": 63,
                    "time": 299.8861879999982,
                    "velocity": 0.4015748031496063,
                    "duration": 0.09484066666664148
                },
                {
                    "name": "B3",
                    "midi": 59,
                    "time": 299.9810286666648,
                    "velocity": 0.36220472440944884,
                    "duration": 0.09484066666664148
                },
                {
                    "name": "G#3",
                    "midi": 56,
                    "time": 300.07586933333147,
                    "velocity": 0.36220472440944884,
                    "duration": 0.09484066666664148
                },
                {
                    "name": "B3",
                    "midi": 59,
                    "time": 300.1707099999981,
                    "velocity": 0.41732283464566927,
                    "duration": 0.09484066666664148
                },
                {
                    "name": "D#4",
                    "midi": 63,
                    "time": 300.26555066666475,
                    "velocity": 0.3937007874015748,
                    "duration": 0.09484066666664148
                },
                {
                    "name": "G#4",
                    "midi": 68,
                    "time": 300.3603913333314,
                    "velocity": 0.3937007874015748,
                    "duration": 0.09484066666664148
                },
                {
                    "name": "B4",
                    "midi": 71,
                    "time": 300.45523199999803,
                    "velocity": 0.4330708661417323,
                    "duration": 0.09484066666664148
                },
                {
                    "name": "G#4",
                    "midi": 68,
                    "time": 300.5500726666647,
                    "velocity": 0.4094488188976378,
                    "duration": 0.09484066666664148
                },
                {
                    "name": "D#4",
                    "midi": 63,
                    "time": 300.6449133333313,
                    "velocity": 0.4094488188976378,
                    "duration": 0.09484066666664148
                },
                {
                    "name": "D#5",
                    "midi": 75,
                    "time": 300.73975399999796,
                    "velocity": 0.47244094488188976,
                    "duration": 0.09484066666664148
                },
                {
                    "name": "B4",
                    "midi": 71,
                    "time": 300.8345946666646,
                    "velocity": 0.4409448818897638,
                    "duration": 0.09484066666664148
                },
                {
                    "name": "G#4",
                    "midi": 68,
                    "time": 300.92943533333124,
                    "velocity": 0.4409448818897638,
                    "duration": 0.09484066666664148
                },
                {
                    "name": "G#5",
                    "midi": 80,
                    "time": 301.0242759999979,
                    "velocity": 0.5118110236220472,
                    "duration": 0.09484066666664148
                },
                {
                    "name": "D5",
                    "midi": 74,
                    "time": 301.1191166666645,
                    "velocity": 0.4645669291338583,
                    "duration": 0.09484066666664148
                },
                {
                    "name": "B4",
                    "midi": 71,
                    "time": 301.21395733333117,
                    "velocity": 0.4645669291338583,
                    "duration": 0.09484066666664148
                },
                {
                    "name": "A#5",
                    "midi": 82,
                    "time": 301.3087979999978,
                    "velocity": 0.5511811023622047,
                    "duration": 0.09484066666664148
                },
                {
                    "name": "F#5",
                    "midi": 78,
                    "time": 301.3087979999978,
                    "velocity": 0.5511811023622047,
                    "duration": 0.09484066666664148
                },
                {
                    "name": "E5",
                    "midi": 76,
                    "time": 301.40363866666445,
                    "velocity": 0.49606299212598426,
                    "duration": 0.09484066666664148
                },
                {
                    "name": "C#5",
                    "midi": 73,
                    "time": 301.4984793333311,
                    "velocity": 0.49606299212598426,
                    "duration": 0.09484066666664148
                },
                {
                    "name": "D#5",
                    "midi": 75,
                    "time": 301.59331999999773,
                    "velocity": 0.6771653543307087,
                    "duration": 0.09484066666664148
                },
                {
                    "name": "D#6",
                    "midi": 87,
                    "time": 301.6881606666644,
                    "velocity": 0.6141732283464567,
                    "duration": 0.09484066666664148
                },
                {
                    "name": "B5",
                    "midi": 83,
                    "time": 301.783001333331,
                    "velocity": 0.44881889763779526,
                    "duration": 0.09484066666664148
                },
                {
                    "name": "F#5",
                    "midi": 78,
                    "time": 301.87784199999766,
                    "velocity": 0.5118110236220472,
                    "duration": 0.09484066666664148
                },
                {
                    "name": "D#5",
                    "midi": 75,
                    "time": 301.9726826666643,
                    "velocity": 0.4409448818897638,
                    "duration": 0.09484066666664148
                },
                {
                    "name": "B4",
                    "midi": 71,
                    "time": 302.06752333333094,
                    "velocity": 0.3937007874015748,
                    "duration": 0.09484066666664148
                },
                {
                    "name": "F#4",
                    "midi": 66,
                    "time": 302.1623639999976,
                    "velocity": 0.4015748031496063,
                    "duration": 0.09484066666664148
                },
                {
                    "name": "D#4",
                    "midi": 63,
                    "time": 302.2572046666642,
                    "velocity": 0.36220472440944884,
                    "duration": 0.09484066666664148
                },
                {
                    "name": "B3",
                    "midi": 59,
                    "time": 302.35204533333086,
                    "velocity": 0.36220472440944884,
                    "duration": 0.09484066666664148
                },
                {
                    "name": "D#4",
                    "midi": 63,
                    "time": 302.4468859999975,
                    "velocity": 0.41732283464566927,
                    "duration": 0.09484066666664148
                },
                {
                    "name": "F#4",
                    "midi": 66,
                    "time": 302.54172666666415,
                    "velocity": 0.3937007874015748,
                    "duration": 0.09484066666664148
                },
                {
                    "name": "B4",
                    "midi": 71,
                    "time": 302.6365673333308,
                    "velocity": 0.3937007874015748,
                    "duration": 0.09484066666664148
                },
                {
                    "name": "D#5",
                    "midi": 75,
                    "time": 302.73140799999743,
                    "velocity": 0.6220472440944882,
                    "duration": 0.09484066666664148
                },
                {
                    "name": "D#6",
                    "midi": 87,
                    "time": 302.82624866666407,
                    "velocity": 0.5196850393700787,
                    "duration": 0.09484066666664148
                },
                {
                    "name": "B5",
                    "midi": 83,
                    "time": 302.9210893333307,
                    "velocity": 0.44881889763779526,
                    "duration": 0.09484066666664148
                },
                {
                    "name": "F#5",
                    "midi": 78,
                    "time": 303.01592999999735,
                    "velocity": 0.5118110236220472,
                    "duration": 0.09484066666664148
                },
                {
                    "name": "D#5",
                    "midi": 75,
                    "time": 303.110770666664,
                    "velocity": 0.4409448818897638,
                    "duration": 0.09484066666664148
                },
                {
                    "name": "B4",
                    "midi": 71,
                    "time": 303.20561133333064,
                    "velocity": 0.3937007874015748,
                    "duration": 0.09484066666664148
                },
                {
                    "name": "F#4",
                    "midi": 66,
                    "time": 303.3004519999973,
                    "velocity": 0.4015748031496063,
                    "duration": 0.09484066666664148
                },
                {
                    "name": "D#4",
                    "midi": 63,
                    "time": 303.3952926666639,
                    "velocity": 0.36220472440944884,
                    "duration": 0.09484066666664148
                },
                {
                    "name": "B3",
                    "midi": 59,
                    "time": 303.49013333333056,
                    "velocity": 0.36220472440944884,
                    "duration": 0.09484066666664148
                },
                {
                    "name": "D#4",
                    "midi": 63,
                    "time": 303.5849739999972,
                    "velocity": 0.41732283464566927,
                    "duration": 0.09484066666664148
                },
                {
                    "name": "F#4",
                    "midi": 66,
                    "time": 303.67981466666384,
                    "velocity": 0.3937007874015748,
                    "duration": 0.09484066666664148
                },
                {
                    "name": "B4",
                    "midi": 71,
                    "time": 303.7746553333305,
                    "velocity": 0.3937007874015748,
                    "duration": 0.09484066666664148
                },
                {
                    "name": "D#5",
                    "midi": 75,
                    "time": 303.8694959999971,
                    "velocity": 0.41732283464566927,
                    "duration": 0.09484066666664148
                },
                {
                    "name": "B4",
                    "midi": 71,
                    "time": 303.96433666666377,
                    "velocity": 0.3779527559055118,
                    "duration": 0.09484066666664148
                },
                {
                    "name": "F#4",
                    "midi": 66,
                    "time": 304.0591773333304,
                    "velocity": 0.3779527559055118,
                    "duration": 0.09484066666664148
                },
                {
                    "name": "F#5",
                    "midi": 78,
                    "time": 304.15401799999705,
                    "velocity": 0.41732283464566927,
                    "duration": 0.28452199999992445
                },
                {
                    "name": "B4",
                    "midi": 71,
                    "time": 304.2488586666637,
                    "velocity": 0.3700787401574803,
                    "duration": 0.09484066666664148
                },
                {
                    "name": "F#4",
                    "midi": 66,
                    "time": 304.34369933333033,
                    "velocity": 0.3543307086614173,
                    "duration": 0.09484066666664148
                },
                {
                    "name": "G5",
                    "midi": 79,
                    "time": 304.438539999997,
                    "velocity": 0.4330708661417323,
                    "duration": 0.28452199999992445
                },
                {
                    "name": "E5",
                    "midi": 76,
                    "time": 304.438539999997,
                    "velocity": 0.36220472440944884,
                    "duration": 0.09484066666664148
                },
                {
                    "name": "A#4",
                    "midi": 70,
                    "time": 304.5333806666636,
                    "velocity": 0.33070866141732286,
                    "duration": 0.09484066666664148
                },
                {
                    "name": "G4",
                    "midi": 67,
                    "time": 304.62822133333026,
                    "velocity": 0.3228346456692913,
                    "duration": 0.09484066666664148
                },
                {
                    "name": "F#5",
                    "midi": 78,
                    "time": 304.7230619999969,
                    "velocity": 0.4330708661417323,
                    "duration": 0.28452199999992445
                },
                {
                    "name": "C#5",
                    "midi": 73,
                    "time": 304.7230619999969,
                    "velocity": 0.36220472440944884,
                    "duration": 0.09484066666664148
                },
                {
                    "name": "A#4",
                    "midi": 70,
                    "time": 304.81790266666354,
                    "velocity": 0.33070866141732286,
                    "duration": 0.09484066666664148
                },
                {
                    "name": "F#4",
                    "midi": 66,
                    "time": 304.9127433333302,
                    "velocity": 0.33070866141732286,
                    "duration": 0.09484066666664148
                },
                {
                    "name": "D#5",
                    "midi": 75,
                    "time": 305.0075839999968,
                    "velocity": 0.41732283464566927,
                    "duration": 0.28452199999992445
                },
                {
                    "name": "B4",
                    "midi": 71,
                    "time": 305.10242466666347,
                    "velocity": 0.3779527559055118,
                    "duration": 0.09484066666664148
                },
                {
                    "name": "F#4",
                    "midi": 66,
                    "time": 305.1972653333301,
                    "velocity": 0.3779527559055118,
                    "duration": 0.09484066666664148
                },
                {
                    "name": "F#5",
                    "midi": 78,
                    "time": 305.29210599999675,
                    "velocity": 0.41732283464566927,
                    "duration": 0.28452199999992445
                },
                {
                    "name": "D#5",
                    "midi": 75,
                    "time": 305.29210599999675,
                    "velocity": 0.36220472440944884,
                    "duration": 0.09484066666664148
                },
                {
                    "name": "B4",
                    "midi": 71,
                    "time": 305.3869466666634,
                    "velocity": 0.3700787401574803,
                    "duration": 0.09484066666664148
                },
                {
                    "name": "F#4",
                    "midi": 66,
                    "time": 305.48178733333003,
                    "velocity": 0.3543307086614173,
                    "duration": 0.09484066666664148
                },
                {
                    "name": "G5",
                    "midi": 79,
                    "time": 305.5766279999967,
                    "velocity": 0.4330708661417323,
                    "duration": 0.28452199999992445
                },
                {
                    "name": "E5",
                    "midi": 76,
                    "time": 305.5766279999967,
                    "velocity": 0.36220472440944884,
                    "duration": 0.09484066666664148
                },
                {
                    "name": "A#4",
                    "midi": 70,
                    "time": 305.6714686666633,
                    "velocity": 0.33070866141732286,
                    "duration": 0.09484066666664148
                },
                {
                    "name": "G4",
                    "midi": 67,
                    "time": 305.76630933332996,
                    "velocity": 0.3228346456692913,
                    "duration": 0.09484066666664148
                },
                {
                    "name": "F#5",
                    "midi": 78,
                    "time": 305.8611499999966,
                    "velocity": 0.4330708661417323,
                    "duration": 0.28452199999992445
                },
                {
                    "name": "C#5",
                    "midi": 73,
                    "time": 305.8611499999966,
                    "velocity": 0.36220472440944884,
                    "duration": 0.09484066666664148
                },
                {
                    "name": "A#4",
                    "midi": 70,
                    "time": 305.95599066666324,
                    "velocity": 0.33070866141732286,
                    "duration": 0.09484066666664148
                },
                {
                    "name": "F#4",
                    "midi": 66,
                    "time": 306.0508313333299,
                    "velocity": 0.33070866141732286,
                    "duration": 0.09484066666664148
                },
                {
                    "name": "D#5",
                    "midi": 75,
                    "time": 306.1456719999965,
                    "velocity": 0.6220472440944882,
                    "duration": 0.09484066666664148
                },
                {
                    "name": "D#6",
                    "midi": 87,
                    "time": 306.24051266666316,
                    "velocity": 0.5511811023622047,
                    "duration": 0.09484066666664148
                },
                {
                    "name": "B5",
                    "midi": 83,
                    "time": 306.3353533333298,
                    "velocity": 0.4881889763779528,
                    "duration": 0.09484066666664148
                },
                {
                    "name": "F#5",
                    "midi": 78,
                    "time": 306.43019399999645,
                    "velocity": 0.5433070866141733,
                    "duration": 0.09484066666664148
                },
                {
                    "name": "D#5",
                    "midi": 75,
                    "time": 306.5250346666631,
                    "velocity": 0.5039370078740157,
                    "duration": 0.09484066666664148
                },
                {
                    "name": "B4",
                    "midi": 71,
                    "time": 306.61987533332973,
                    "velocity": 0.49606299212598426,
                    "duration": 0.09484066666664148
                },
                {
                    "name": "F#4",
                    "midi": 66,
                    "time": 306.7147159999964,
                    "velocity": 0.5748031496062992,
                    "duration": 0.09484066666664148
                },
                {
                    "name": "D#4",
                    "midi": 63,
                    "time": 306.809556666663,
                    "velocity": 0.5196850393700787,
                    "duration": 0.09484066666664148
                },
                {
                    "name": "B3",
                    "midi": 59,
                    "time": 306.90439733332965,
                    "velocity": 0.5196850393700787,
                    "duration": 0.09484066666664148
                },
                {
                    "name": "D#4",
                    "midi": 63,
                    "time": 306.9992379999963,
                    "velocity": 0.5511811023622047,
                    "duration": 0.09484066666664148
                },
                {
                    "name": "F#4",
                    "midi": 66,
                    "time": 307.09407866666294,
                    "velocity": 0.5275590551181102,
                    "duration": 0.09484066666664148
                },
                {
                    "name": "B4",
                    "midi": 71,
                    "time": 307.1889193333296,
                    "velocity": 0.5354330708661418,
                    "duration": 0.09484066666664148
                },
                {
                    "name": "D#5",
                    "midi": 75,
                    "time": 307.2837599999962,
                    "velocity": 0.5511811023622047,
                    "duration": 0.09484066666664148
                },
                {
                    "name": "A4",
                    "midi": 69,
                    "time": 307.37860066666286,
                    "velocity": 0.5275590551181102,
                    "duration": 0.09484066666664148
                },
                {
                    "name": "F#4",
                    "midi": 66,
                    "time": 307.4734413333295,
                    "velocity": 0.5275590551181102,
                    "duration": 0.09484066666664148
                },
                {
                    "name": "F#5",
                    "midi": 78,
                    "time": 307.56828199999615,
                    "velocity": 0.5905511811023622,
                    "duration": 0.09484066666664148
                },
                {
                    "name": "C5",
                    "midi": 72,
                    "time": 307.6631226666628,
                    "velocity": 0.5433070866141733,
                    "duration": 0.09484066666664148
                },
                {
                    "name": "A4",
                    "midi": 69,
                    "time": 307.7579633333294,
                    "velocity": 0.5433070866141733,
                    "duration": 0.09484066666664148
                },
                {
                    "name": "C6",
                    "midi": 84,
                    "time": 307.85280399999607,
                    "velocity": 0.5984251968503937,
                    "duration": 0.09484066666664148
                },
                {
                    "name": "F#5",
                    "midi": 78,
                    "time": 307.9476446666627,
                    "velocity": 0.5433070866141733,
                    "duration": 0.09484066666664148
                },
                {
                    "name": "D#5",
                    "midi": 75,
                    "time": 308.04248533332935,
                    "velocity": 0.5669291338582677,
                    "duration": 0.09484066666664148
                },
                {
                    "name": "A5",
                    "midi": 81,
                    "time": 308.137325999996,
                    "velocity": 0.5905511811023622,
                    "duration": 0.09484066666664148
                },
                {
                    "name": "F5",
                    "midi": 77,
                    "time": 308.23216666666264,
                    "velocity": 0.5275590551181102,
                    "duration": 0.09484066666664148
                },
                {
                    "name": "D#5",
                    "midi": 75,
                    "time": 308.3270073333293,
                    "velocity": 0.48031496062992124,
                    "duration": 0.09484066666664148
                },
                {
                    "name": "C#5",
                    "midi": 73,
                    "time": 308.4218479999959,
                    "velocity": 0.5196850393700787,
                    "duration": 0.09484066666664148
                },
                {
                    "name": "C#6",
                    "midi": 85,
                    "time": 308.51668866666256,
                    "velocity": 0.3858267716535433,
                    "duration": 0.09484066666664148
                },
                {
                    "name": "A#5",
                    "midi": 82,
                    "time": 308.6115293333292,
                    "velocity": 0.3858267716535433,
                    "duration": 0.09484066666664148
                },
                {
                    "name": "F5",
                    "midi": 77,
                    "time": 308.70636999999584,
                    "velocity": 0.41732283464566927,
                    "duration": 0.09484066666664148
                },
                {
                    "name": "C#5",
                    "midi": 73,
                    "time": 308.8012106666625,
                    "velocity": 0.3779527559055118,
                    "duration": 0.09484066666664148
                },
                {
                    "name": "A#4",
                    "midi": 70,
                    "time": 308.8960513333291,
                    "velocity": 0.36220472440944884,
                    "duration": 0.09484066666664148
                },
                {
                    "name": "F4",
                    "midi": 65,
                    "time": 308.99089199999577,
                    "velocity": 0.4015748031496063,
                    "duration": 0.09484066666664148
                },
                {
                    "name": "C#4",
                    "midi": 61,
                    "time": 309.0857326666624,
                    "velocity": 0.36220472440944884,
                    "duration": 0.09484066666664148
                },
                {
                    "name": "A#3",
                    "midi": 58,
                    "time": 309.18057333332905,
                    "velocity": 0.36220472440944884,
                    "duration": 0.09484066666664148
                },
                {
                    "name": "C#4",
                    "midi": 61,
                    "time": 309.2754139999957,
                    "velocity": 0.44881889763779526,
                    "duration": 0.09484066666664148
                },
                {
                    "name": "F4",
                    "midi": 65,
                    "time": 309.37025466666233,
                    "velocity": 0.3937007874015748,
                    "duration": 0.09484066666664148
                },
                {
                    "name": "A#4",
                    "midi": 70,
                    "time": 309.465095333329,
                    "velocity": 0.3937007874015748,
                    "duration": 0.09484066666664148
                },
                {
                    "name": "C#5",
                    "midi": 73,
                    "time": 309.5599359999956,
                    "velocity": 0.41732283464566927,
                    "duration": 0.09484066666664148
                },
                {
                    "name": "C#6",
                    "midi": 85,
                    "time": 309.65477666666226,
                    "velocity": 0.3858267716535433,
                    "duration": 0.09484066666664148
                },
                {
                    "name": "A#5",
                    "midi": 82,
                    "time": 309.7496173333289,
                    "velocity": 0.3858267716535433,
                    "duration": 0.09484066666664148
                },
                {
                    "name": "F5",
                    "midi": 77,
                    "time": 309.84445799999554,
                    "velocity": 0.41732283464566927,
                    "duration": 0.09484066666664148
                },
                {
                    "name": "C#5",
                    "midi": 73,
                    "time": 309.9392986666622,
                    "velocity": 0.3779527559055118,
                    "duration": 0.09484066666664148
                },
                {
                    "name": "A#4",
                    "midi": 70,
                    "time": 310.0341393333288,
                    "velocity": 0.36220472440944884,
                    "duration": 0.09484066666664148
                },
                {
                    "name": "F4",
                    "midi": 65,
                    "time": 310.12897999999547,
                    "velocity": 0.4015748031496063,
                    "duration": 0.09484066666664148
                },
                {
                    "name": "C#4",
                    "midi": 61,
                    "time": 310.2238206666621,
                    "velocity": 0.36220472440944884,
                    "duration": 0.09484066666664148
                },
                {
                    "name": "A#3",
                    "midi": 58,
                    "time": 310.31866133332875,
                    "velocity": 0.36220472440944884,
                    "duration": 0.09484066666664148
                },
                {
                    "name": "C#4",
                    "midi": 61,
                    "time": 310.4135019999954,
                    "velocity": 0.41732283464566927,
                    "duration": 0.09484066666664148
                },
                {
                    "name": "F4",
                    "midi": 65,
                    "time": 310.50834266666203,
                    "velocity": 0.3937007874015748,
                    "duration": 0.09484066666664148
                },
                {
                    "name": "A#4",
                    "midi": 70,
                    "time": 310.6031833333287,
                    "velocity": 0.3937007874015748,
                    "duration": 0.09484066666664148
                },
                {
                    "name": "C#5",
                    "midi": 73,
                    "time": 310.6980239999953,
                    "velocity": 0.47244094488188976,
                    "duration": 0.09484066666664148
                },
                {
                    "name": "A#4",
                    "midi": 70,
                    "time": 310.79286466666196,
                    "velocity": 0.44881889763779526,
                    "duration": 0.09484066666664148
                },
                {
                    "name": "F4",
                    "midi": 65,
                    "time": 310.8877053333286,
                    "velocity": 0.44881889763779526,
                    "duration": 0.09484066666664148
                },
                {
                    "name": "F5",
                    "midi": 77,
                    "time": 310.98254599999524,
                    "velocity": 0.5196850393700787,
                    "duration": 0.09484066666664148
                },
                {
                    "name": "C#5",
                    "midi": 73,
                    "time": 311.0773866666619,
                    "velocity": 0.48031496062992124,
                    "duration": 0.09484066666664148
                },
                {
                    "name": "A#4",
                    "midi": 70,
                    "time": 311.1722273333285,
                    "velocity": 0.48031496062992124,
                    "duration": 0.09484066666664148
                },
                {
                    "name": "A#5",
                    "midi": 82,
                    "time": 311.26706799999516,
                    "velocity": 0.5590551181102362,
                    "duration": 0.09484066666664148
                },
                {
                    "name": "E5",
                    "midi": 76,
                    "time": 311.3619086666618,
                    "velocity": 0.5039370078740157,
                    "duration": 0.09484066666664148
                },
                {
                    "name": "C#5",
                    "midi": 73,
                    "time": 311.45674933332845,
                    "velocity": 0.5039370078740157,
                    "duration": 0.09484066666664148
                },
                {
                    "name": "C6",
                    "midi": 84,
                    "time": 311.5515899999951,
                    "velocity": 0.6062992125984252,
                    "duration": 0.09484066666664148
                },
                {
                    "name": "G#5",
                    "midi": 80,
                    "time": 311.5515899999951,
                    "velocity": 0.6062992125984252,
                    "duration": 0.09484066666664148
                },
                {
                    "name": "F#5",
                    "midi": 78,
                    "time": 311.64643066666173,
                    "velocity": 0.5433070866141733,
                    "duration": 0.09484066666664148
                },
                {
                    "name": "D#5",
                    "midi": 75,
                    "time": 311.74127133332837,
                    "velocity": 0.5433070866141733,
                    "duration": 0.09484066666664148
                },
                {
                    "name": "F5",
                    "midi": 77,
                    "time": 311.836111999995,
                    "velocity": 0.6771653543307087,
                    "duration": 0.09484066666664148
                },
                {
                    "name": "F6",
                    "midi": 89,
                    "time": 311.93095266666165,
                    "velocity": 0.6062992125984252,
                    "duration": 0.09484066666664148
                },
                {
                    "name": "C#6",
                    "midi": 85,
                    "time": 312.0257933333283,
                    "velocity": 0.5669291338582677,
                    "duration": 0.09484066666664148
                },
                {
                    "name": "G#5",
                    "midi": 80,
                    "time": 312.12063399999494,
                    "velocity": 0.5905511811023622,
                    "duration": 0.09484066666664148
                },
                {
                    "name": "F5",
                    "midi": 77,
                    "time": 312.2154746666616,
                    "velocity": 0.5354330708661418,
                    "duration": 0.09484066666664148
                },
                {
                    "name": "C#5",
                    "midi": 73,
                    "time": 312.3103153333282,
                    "velocity": 0.47244094488188976,
                    "duration": 0.09484066666664148
                },
                {
                    "name": "G#4",
                    "midi": 68,
                    "time": 312.40515599999486,
                    "velocity": 0.44881889763779526,
                    "duration": 0.09484066666664148
                },
                {
                    "name": "F4",
                    "midi": 65,
                    "time": 312.4999966666615,
                    "velocity": 0.3858267716535433,
                    "duration": 0.09484066666664148
                },
                {
                    "name": "C#4",
                    "midi": 61,
                    "time": 312.59483733332814,
                    "velocity": 0.3700787401574803,
                    "duration": 0.09484066666664148
                },
                {
                    "name": "F3",
                    "midi": 53,
                    "time": 314.1122879999948,
                    "velocity": 0.31496062992125984,
                    "duration": 0.5690440000000194
                },
                {
                    "name": "G#3",
                    "midi": 56,
                    "time": 314.1122879999948,
                    "velocity": 0.31496062992125984,
                    "duration": 0.5690440000000194
                },
                {
                    "name": "C#4",
                    "midi": 61,
                    "time": 314.1122879999948,
                    "velocity": 0.3700787401574803,
                    "duration": 0.5690440000000194
                },
                {
                    "name": "F4",
                    "midi": 65,
                    "time": 314.6813319999948,
                    "velocity": 0.36220472440944884,
                    "duration": 0.14226100000001907
                },
                {
                    "name": "G#4",
                    "midi": 68,
                    "time": 314.96585399999486,
                    "velocity": 0.36220472440944884,
                    "duration": 0.14226100000001907
                },
                {
                    "name": "F#3",
                    "midi": 54,
                    "time": 315.2503759999949,
                    "velocity": 0.31496062992125984,
                    "duration": 0.5690440000000194
                },
                {
                    "name": "A#3",
                    "midi": 58,
                    "time": 315.2503759999949,
                    "velocity": 0.31496062992125984,
                    "duration": 0.5690440000000194
                },
                {
                    "name": "D#4",
                    "midi": 63,
                    "time": 315.2503759999949,
                    "velocity": 0.3700787401574803,
                    "duration": 0.5690440000000194
                },
                {
                    "name": "F#4",
                    "midi": 66,
                    "time": 315.8194199999949,
                    "velocity": 0.3543307086614173,
                    "duration": 0.14226100000001907
                },
                {
                    "name": "A#4",
                    "midi": 70,
                    "time": 316.10394199999496,
                    "velocity": 0.3543307086614173,
                    "duration": 0.14226100000001907
                },
                {
                    "name": "A#4",
                    "midi": 70,
                    "time": 316.388463999995,
                    "velocity": 0.3779527559055118,
                    "duration": 0.14226100000001907
                },
                {
                    "name": "G#4",
                    "midi": 68,
                    "time": 316.530724999995,
                    "velocity": 0.3543307086614173,
                    "duration": 0.14226100000001907
                },
                {
                    "name": "C4",
                    "midi": 60,
                    "time": 316.67298599999503,
                    "velocity": 0.31496062992125984,
                    "duration": 0.2815582291667056
                },
                {
                    "name": "G#4",
                    "midi": 68,
                    "time": 316.67298599999503,
                    "velocity": 0.3779527559055118,
                    "duration": 0.14226100000001907
                },
                {
                    "name": "F#4",
                    "midi": 66,
                    "time": 316.81524699999505,
                    "velocity": 0.3543307086614173,
                    "duration": 0.14226100000001907
                },
                {
                    "name": "C4",
                    "midi": 60,
                    "time": 316.9575079999951,
                    "velocity": 0.33070866141732286,
                    "duration": 0.2815582291667056
                },
                {
                    "name": "F#4",
                    "midi": 66,
                    "time": 316.9575079999951,
                    "velocity": 0.3937007874015748,
                    "duration": 0.14226100000001907
                },
                {
                    "name": "F4",
                    "midi": 65,
                    "time": 317.0997689999951,
                    "velocity": 0.3543307086614173,
                    "duration": 0.14226100000001907
                },
                {
                    "name": "C4",
                    "midi": 60,
                    "time": 317.2420299999951,
                    "velocity": 0.3228346456692913,
                    "duration": 0.2815582291667056
                },
                {
                    "name": "F4",
                    "midi": 65,
                    "time": 317.2420299999951,
                    "velocity": 0.3858267716535433,
                    "duration": 0.14226100000001907
                },
                {
                    "name": "E4",
                    "midi": 64,
                    "time": 317.38429099999513,
                    "velocity": 0.3543307086614173,
                    "duration": 0.14226100000001907
                },
                {
                    "name": "C#4",
                    "midi": 61,
                    "time": 317.52655199999515,
                    "velocity": 0.3543307086614173,
                    "duration": 1.138087999999982
                },
                {
                    "name": "F4",
                    "midi": 65,
                    "time": 317.52655199999515,
                    "velocity": 0.3543307086614173,
                    "duration": 1.138087999999982
                },
                {
                    "name": "F3",
                    "midi": 53,
                    "time": 318.66463999999513,
                    "velocity": 0.31496062992125984,
                    "duration": 0.5690440000000194
                },
                {
                    "name": "G#3",
                    "midi": 56,
                    "time": 318.66463999999513,
                    "velocity": 0.31496062992125984,
                    "duration": 0.5690440000000194
                },
                {
                    "name": "C#4",
                    "midi": 61,
                    "time": 318.66463999999513,
                    "velocity": 0.3700787401574803,
                    "duration": 0.5690440000000194
                },
                {
                    "name": "F4",
                    "midi": 65,
                    "time": 319.23368399999515,
                    "velocity": 0.36220472440944884,
                    "duration": 0.14226100000001907
                },
                {
                    "name": "G#4",
                    "midi": 68,
                    "time": 319.5182059999952,
                    "velocity": 0.36220472440944884,
                    "duration": 0.14226100000001907
                },
                {
                    "name": "F#3",
                    "midi": 54,
                    "time": 319.8027279999952,
                    "velocity": 0.31496062992125984,
                    "duration": 0.5690440000000194
                },
                {
                    "name": "A3",
                    "midi": 57,
                    "time": 319.8027279999952,
                    "velocity": 0.31496062992125984,
                    "duration": 0.5690440000000194
                },
                {
                    "name": "D#4",
                    "midi": 63,
                    "time": 319.8027279999952,
                    "velocity": 0.3700787401574803,
                    "duration": 0.5690440000000194
                },
                {
                    "name": "F#4",
                    "midi": 66,
                    "time": 320.37177199999525,
                    "velocity": 0.3543307086614173,
                    "duration": 0.14226100000001907
                },
                {
                    "name": "A4",
                    "midi": 69,
                    "time": 320.6562939999953,
                    "velocity": 0.3543307086614173,
                    "duration": 0.14226100000001907
                },
                {
                    "name": "A4",
                    "midi": 69,
                    "time": 320.9408159999953,
                    "velocity": 0.3779527559055118,
                    "duration": 0.14226100000001907
                },
                {
                    "name": "G#4",
                    "midi": 68,
                    "time": 321.08307699999534,
                    "velocity": 0.3543307086614173,
                    "duration": 0.14226100000001907
                },
                {
                    "name": "D#4",
                    "midi": 63,
                    "time": 321.22533799999536,
                    "velocity": 0.31496062992125984,
                    "duration": 0.28452200000003813
                },
                {
                    "name": "B4",
                    "midi": 71,
                    "time": 321.22533799999536,
                    "velocity": 0.3779527559055118,
                    "duration": 0.14226100000001907
                },
                {
                    "name": "A4",
                    "midi": 69,
                    "time": 321.3675989999954,
                    "velocity": 0.3543307086614173,
                    "duration": 0.14226100000001907
                },
                {
                    "name": "D#4",
                    "midi": 63,
                    "time": 321.5098599999954,
                    "velocity": 0.33070866141732286,
                    "duration": 0.28452200000003813
                },
                {
                    "name": "A4",
                    "midi": 69,
                    "time": 321.5098599999954,
                    "velocity": 0.3937007874015748,
                    "duration": 0.14226100000001907
                },
                {
                    "name": "G#4",
                    "midi": 68,
                    "time": 321.6521209999954,
                    "velocity": 0.3543307086614173,
                    "duration": 0.14226100000001907
                },
                {
                    "name": "D#4",
                    "midi": 63,
                    "time": 321.79438199999544,
                    "velocity": 0.3228346456692913,
                    "duration": 0.28452200000003813
                },
                {
                    "name": "G#4",
                    "midi": 68,
                    "time": 321.79438199999544,
                    "velocity": 0.3858267716535433,
                    "duration": 0.14226100000001907
                },
                {
                    "name": "G4",
                    "midi": 67,
                    "time": 321.93664299999546,
                    "velocity": 0.3543307086614173,
                    "duration": 0.14226100000001907
                },
                {
                    "name": "E4",
                    "midi": 64,
                    "time": 322.0789039999955,
                    "velocity": 0.3543307086614173,
                    "duration": 1.138087999999982
                },
                {
                    "name": "G#4",
                    "midi": 68,
                    "time": 322.0789039999955,
                    "velocity": 0.3543307086614173,
                    "duration": 1.138087999999982
                },
                {
                    "name": "E4",
                    "midi": 64,
                    "time": 323.21699199999546,
                    "velocity": 0.2755905511811024,
                    "duration": 0.13514794999997548
                },
                {
                    "name": "E4",
                    "midi": 64,
                    "time": 323.3592529999954,
                    "velocity": 0.2755905511811024,
                    "duration": 0.13514794999997548
                },
                {
                    "name": "E4",
                    "midi": 64,
                    "time": 323.5015139999954,
                    "velocity": 0.2755905511811024,
                    "duration": 0.13514794999997548
                },
                {
                    "name": "E4",
                    "midi": 64,
                    "time": 323.64377499999534,
                    "velocity": 0.2755905511811024,
                    "duration": 0.13514794999997548
                },
                {
                    "name": "E4",
                    "midi": 64,
                    "time": 323.7860359999953,
                    "velocity": 0.2755905511811024,
                    "duration": 0.13514794999997548
                },
                {
                    "name": "E4",
                    "midi": 64,
                    "time": 323.92829699999527,
                    "velocity": 0.2755905511811024,
                    "duration": 0.13514794999997548
                },
                {
                    "name": "E4",
                    "midi": 64,
                    "time": 324.07055799999523,
                    "velocity": 0.2755905511811024,
                    "duration": 0.13514794999997548
                },
                {
                    "name": "E4",
                    "midi": 64,
                    "time": 324.2128189999952,
                    "velocity": 0.2755905511811024,
                    "duration": 0.13514794999997548
                },
                {
                    "name": "F4",
                    "midi": 65,
                    "time": 324.35507999999516,
                    "velocity": 0.2755905511811024,
                    "duration": 0.13514794999997548
                },
                {
                    "name": "E4",
                    "midi": 64,
                    "time": 324.35507999999516,
                    "velocity": 0.2755905511811024,
                    "duration": 0.13514794999997548
                },
                {
                    "name": "F4",
                    "midi": 65,
                    "time": 324.4973409999951,
                    "velocity": 0.2755905511811024,
                    "duration": 0.13514794999997548
                },
                {
                    "name": "E4",
                    "midi": 64,
                    "time": 324.4973409999951,
                    "velocity": 0.2755905511811024,
                    "duration": 0.13514794999997548
                },
                {
                    "name": "F4",
                    "midi": 65,
                    "time": 324.6396019999951,
                    "velocity": 0.2755905511811024,
                    "duration": 0.13514794999997548
                },
                {
                    "name": "E4",
                    "midi": 64,
                    "time": 324.6396019999951,
                    "velocity": 0.2755905511811024,
                    "duration": 0.13514794999997548
                },
                {
                    "name": "F4",
                    "midi": 65,
                    "time": 324.78186299999504,
                    "velocity": 0.2755905511811024,
                    "duration": 0.13514794999997548
                },
                {
                    "name": "E4",
                    "midi": 64,
                    "time": 324.78186299999504,
                    "velocity": 0.2755905511811024,
                    "duration": 0.13514794999997548
                },
                {
                    "name": "F4",
                    "midi": 65,
                    "time": 324.924123999995,
                    "velocity": 0.2755905511811024,
                    "duration": 0.13514794999997548
                },
                {
                    "name": "E4",
                    "midi": 64,
                    "time": 324.924123999995,
                    "velocity": 0.2755905511811024,
                    "duration": 0.13514794999997548
                },
                {
                    "name": "F4",
                    "midi": 65,
                    "time": 325.06638499999497,
                    "velocity": 0.2755905511811024,
                    "duration": 0.13514794999997548
                },
                {
                    "name": "E4",
                    "midi": 64,
                    "time": 325.06638499999497,
                    "velocity": 0.2755905511811024,
                    "duration": 0.13514794999997548
                },
                {
                    "name": "F4",
                    "midi": 65,
                    "time": 325.2086459999949,
                    "velocity": 0.2755905511811024,
                    "duration": 0.13514794999997548
                },
                {
                    "name": "E4",
                    "midi": 64,
                    "time": 325.2086459999949,
                    "velocity": 0.2755905511811024,
                    "duration": 0.13514794999997548
                },
                {
                    "name": "F4",
                    "midi": 65,
                    "time": 325.3509069999949,
                    "velocity": 0.2755905511811024,
                    "duration": 0.13514794999997548
                },
                {
                    "name": "E4",
                    "midi": 64,
                    "time": 325.3509069999949,
                    "velocity": 0.2755905511811024,
                    "duration": 0.13514794999997548
                },
                {
                    "name": "E4",
                    "midi": 64,
                    "time": 325.49316799999485,
                    "velocity": 0.28346456692913385,
                    "duration": 0.13514794999997548
                },
                {
                    "name": "F4",
                    "midi": 65,
                    "time": 325.49316799999485,
                    "velocity": 0.28346456692913385,
                    "duration": 0.13514794999997548
                },
                {
                    "name": "E4",
                    "midi": 64,
                    "time": 325.6354289999948,
                    "velocity": 0.2992125984251969,
                    "duration": 0.13514794999997548
                },
                {
                    "name": "F4",
                    "midi": 65,
                    "time": 325.6354289999948,
                    "velocity": 0.2992125984251969,
                    "duration": 0.13514794999997548
                },
                {
                    "name": "E4",
                    "midi": 64,
                    "time": 325.7776899999948,
                    "velocity": 0.30708661417322836,
                    "duration": 0.13514794999997548
                },
                {
                    "name": "F4",
                    "midi": 65,
                    "time": 325.7776899999948,
                    "velocity": 0.30708661417322836,
                    "duration": 0.13514794999997548
                },
                {
                    "name": "E4",
                    "midi": 64,
                    "time": 325.91995099999474,
                    "velocity": 0.3228346456692913,
                    "duration": 0.13514794999997548
                },
                {
                    "name": "F4",
                    "midi": 65,
                    "time": 325.91995099999474,
                    "velocity": 0.3228346456692913,
                    "duration": 0.13514794999997548
                },
                {
                    "name": "D4",
                    "midi": 62,
                    "time": 326.0622119999947,
                    "velocity": 0.33858267716535434,
                    "duration": 0.13514794999997548
                },
                {
                    "name": "F4",
                    "midi": 65,
                    "time": 326.0622119999947,
                    "velocity": 0.33858267716535434,
                    "duration": 0.13514794999997548
                },
                {
                    "name": "D4",
                    "midi": 62,
                    "time": 326.20447299999466,
                    "velocity": 0.3543307086614173,
                    "duration": 0.13514794999997548
                },
                {
                    "name": "F4",
                    "midi": 65,
                    "time": 326.20447299999466,
                    "velocity": 0.3543307086614173,
                    "duration": 0.13514794999997548
                },
                {
                    "name": "C4",
                    "midi": 60,
                    "time": 326.3467339999946,
                    "velocity": 0.3700787401574803,
                    "duration": 0.13514794999997548
                },
                {
                    "name": "D4",
                    "midi": 62,
                    "time": 326.3467339999946,
                    "velocity": 0.3700787401574803,
                    "duration": 0.13514794999997548
                },
                {
                    "name": "F#4",
                    "midi": 66,
                    "time": 326.3467339999946,
                    "velocity": 0.3700787401574803,
                    "duration": 0.13514794999997548
                },
                {
                    "name": "C4",
                    "midi": 60,
                    "time": 326.4889949999946,
                    "velocity": 0.3779527559055118,
                    "duration": 0.13514794999997548
                },
                {
                    "name": "D4",
                    "midi": 62,
                    "time": 326.4889949999946,
                    "velocity": 0.3779527559055118,
                    "duration": 0.13514794999997548
                },
                {
                    "name": "F#4",
                    "midi": 66,
                    "time": 326.4889949999946,
                    "velocity": 0.3779527559055118,
                    "duration": 0.13514794999997548
                },
                {
                    "name": "B3",
                    "midi": 59,
                    "time": 326.63125599999455,
                    "velocity": 0.3858267716535433,
                    "duration": 0.13514794999997548
                },
                {
                    "name": "D4",
                    "midi": 62,
                    "time": 326.63125599999455,
                    "velocity": 0.3858267716535433,
                    "duration": 0.13514794999997548
                },
                {
                    "name": "G4",
                    "midi": 67,
                    "time": 326.63125599999455,
                    "velocity": 0.3858267716535433,
                    "duration": 0.13514794999997548
                },
                {
                    "name": "B3",
                    "midi": 59,
                    "time": 326.7735169999945,
                    "velocity": 0.3779527559055118,
                    "duration": 0.13514794999997548
                },
                {
                    "name": "D4",
                    "midi": 62,
                    "time": 326.7735169999945,
                    "velocity": 0.3779527559055118,
                    "duration": 0.13514794999997548
                },
                {
                    "name": "G4",
                    "midi": 67,
                    "time": 326.7735169999945,
                    "velocity": 0.3779527559055118,
                    "duration": 0.13514794999997548
                },
                {
                    "name": "B3",
                    "midi": 59,
                    "time": 326.9157779999945,
                    "velocity": 0.36220472440944884,
                    "duration": 0.13514794999997548
                },
                {
                    "name": "D4",
                    "midi": 62,
                    "time": 326.9157779999945,
                    "velocity": 0.36220472440944884,
                    "duration": 0.13514794999997548
                },
                {
                    "name": "G4",
                    "midi": 67,
                    "time": 326.9157779999945,
                    "velocity": 0.36220472440944884,
                    "duration": 0.13514794999997548
                },
                {
                    "name": "B3",
                    "midi": 59,
                    "time": 327.05803899999444,
                    "velocity": 0.3464566929133858,
                    "duration": 0.13514794999997548
                },
                {
                    "name": "D4",
                    "midi": 62,
                    "time": 327.05803899999444,
                    "velocity": 0.3464566929133858,
                    "duration": 0.13514794999997548
                },
                {
                    "name": "G4",
                    "midi": 67,
                    "time": 327.05803899999444,
                    "velocity": 0.3464566929133858,
                    "duration": 0.13514794999997548
                },
                {
                    "name": "C4",
                    "midi": 60,
                    "time": 327.2002999999944,
                    "velocity": 0.33070866141732286,
                    "duration": 0.13514794999997548
                },
                {
                    "name": "E4",
                    "midi": 64,
                    "time": 327.2002999999944,
                    "velocity": 0.33070866141732286,
                    "duration": 0.13514794999997548
                },
                {
                    "name": "G4",
                    "midi": 67,
                    "time": 327.2002999999944,
                    "velocity": 0.33070866141732286,
                    "duration": 0.13514794999997548
                },
                {
                    "name": "C4",
                    "midi": 60,
                    "time": 327.34256099999436,
                    "velocity": 0.31496062992125984,
                    "duration": 0.13514794999997548
                },
                {
                    "name": "E4",
                    "midi": 64,
                    "time": 327.34256099999436,
                    "velocity": 0.31496062992125984,
                    "duration": 0.13514794999997548
                },
                {
                    "name": "G4",
                    "midi": 67,
                    "time": 327.34256099999436,
                    "velocity": 0.31496062992125984,
                    "duration": 0.13514794999997548
                },
                {
                    "name": "B3",
                    "midi": 59,
                    "time": 327.4848219999943,
                    "velocity": 0.2992125984251969,
                    "duration": 0.13514794999997548
                },
                {
                    "name": "F4",
                    "midi": 65,
                    "time": 327.4848219999943,
                    "velocity": 0.2992125984251969,
                    "duration": 0.13514794999997548
                },
                {
                    "name": "G4",
                    "midi": 67,
                    "time": 327.4848219999943,
                    "velocity": 0.2992125984251969,
                    "duration": 0.13514794999997548
                },
                {
                    "name": "B3",
                    "midi": 59,
                    "time": 327.6270829999943,
                    "velocity": 0.28346456692913385,
                    "duration": 0.13514794999997548
                },
                {
                    "name": "F4",
                    "midi": 65,
                    "time": 327.6270829999943,
                    "velocity": 0.28346456692913385,
                    "duration": 0.13514794999997548
                },
                {
                    "name": "G4",
                    "midi": 67,
                    "time": 327.6270829999943,
                    "velocity": 0.28346456692913385,
                    "duration": 0.13514794999997548
                },
                {
                    "name": "C5",
                    "midi": 72,
                    "time": 327.76934399999425,
                    "velocity": 0.3228346456692913,
                    "duration": 0.13514794999997548
                },
                {
                    "name": "C5",
                    "midi": 72,
                    "time": 327.9116049999942,
                    "velocity": 0.3228346456692913,
                    "duration": 0.13514794999997548
                },
                {
                    "name": "C5",
                    "midi": 72,
                    "time": 328.0538659999942,
                    "velocity": 0.33070866141732286,
                    "duration": 0.13514794999997548
                },
                {
                    "name": "C5",
                    "midi": 72,
                    "time": 328.19612699999414,
                    "velocity": 0.33070866141732286,
                    "duration": 0.13514794999997548
                },
                {
                    "name": "C5",
                    "midi": 72,
                    "time": 328.3383879999941,
                    "velocity": 0.33070866141732286,
                    "duration": 0.13514794999997548
                },
                {
                    "name": "C5",
                    "midi": 72,
                    "time": 328.48064899999406,
                    "velocity": 0.33858267716535434,
                    "duration": 0.13514794999997548
                },
                {
                    "name": "C5",
                    "midi": 72,
                    "time": 328.622909999994,
                    "velocity": 0.33858267716535434,
                    "duration": 0.13514794999997548
                },
                {
                    "name": "C5",
                    "midi": 72,
                    "time": 328.765170999994,
                    "velocity": 0.3464566929133858,
                    "duration": 0.13514794999997548
                },
                {
                    "name": "C#5",
                    "midi": 73,
                    "time": 328.90743199999395,
                    "velocity": 0.3543307086614173,
                    "duration": 0.13514794999997548
                },
                {
                    "name": "C5",
                    "midi": 72,
                    "time": 328.90743199999395,
                    "velocity": 0.3543307086614173,
                    "duration": 0.13514794999997548
                },
                {
                    "name": "C#5",
                    "midi": 73,
                    "time": 329.0496929999939,
                    "velocity": 0.3543307086614173,
                    "duration": 0.13514794999997548
                },
                {
                    "name": "C5",
                    "midi": 72,
                    "time": 329.0496929999939,
                    "velocity": 0.3543307086614173,
                    "duration": 0.13514794999997548
                },
                {
                    "name": "C#5",
                    "midi": 73,
                    "time": 329.19195399999387,
                    "velocity": 0.3543307086614173,
                    "duration": 0.13514794999997548
                },
                {
                    "name": "C5",
                    "midi": 72,
                    "time": 329.19195399999387,
                    "velocity": 0.3543307086614173,
                    "duration": 0.13514794999997548
                },
                {
                    "name": "C#5",
                    "midi": 73,
                    "time": 329.33421499999383,
                    "velocity": 0.3543307086614173,
                    "duration": 0.13514794999997548
                },
                {
                    "name": "C5",
                    "midi": 72,
                    "time": 329.33421499999383,
                    "velocity": 0.3543307086614173,
                    "duration": 0.13514794999997548
                },
                {
                    "name": "C#5",
                    "midi": 73,
                    "time": 329.4764759999938,
                    "velocity": 0.3700787401574803,
                    "duration": 0.13514794999997548
                },
                {
                    "name": "C5",
                    "midi": 72,
                    "time": 329.4764759999938,
                    "velocity": 0.3700787401574803,
                    "duration": 0.13514794999997548
                },
                {
                    "name": "C#5",
                    "midi": 73,
                    "time": 329.61873699999376,
                    "velocity": 0.3700787401574803,
                    "duration": 0.13514794999997548
                },
                {
                    "name": "C5",
                    "midi": 72,
                    "time": 329.61873699999376,
                    "velocity": 0.3700787401574803,
                    "duration": 0.13514794999997548
                },
                {
                    "name": "C#5",
                    "midi": 73,
                    "time": 329.7609979999937,
                    "velocity": 0.3700787401574803,
                    "duration": 0.13514794999997548
                },
                {
                    "name": "C5",
                    "midi": 72,
                    "time": 329.7609979999937,
                    "velocity": 0.3700787401574803,
                    "duration": 0.13514794999997548
                },
                {
                    "name": "C#5",
                    "midi": 73,
                    "time": 329.9032589999937,
                    "velocity": 0.3700787401574803,
                    "duration": 0.13514794999997548
                },
                {
                    "name": "C5",
                    "midi": 72,
                    "time": 329.9032589999937,
                    "velocity": 0.3700787401574803,
                    "duration": 0.13514794999997548
                },
                {
                    "name": "C5",
                    "midi": 72,
                    "time": 330.04551999999364,
                    "velocity": 0.4015748031496063,
                    "duration": 0.13514794999997548
                },
                {
                    "name": "C#5",
                    "midi": 73,
                    "time": 330.04551999999364,
                    "velocity": 0.4015748031496063,
                    "duration": 0.13514794999997548
                },
                {
                    "name": "C5",
                    "midi": 72,
                    "time": 330.1877809999936,
                    "velocity": 0.41732283464566927,
                    "duration": 0.13514794999997548
                },
                {
                    "name": "C#5",
                    "midi": 73,
                    "time": 330.1877809999936,
                    "velocity": 0.41732283464566927,
                    "duration": 0.13514794999997548
                },
                {
                    "name": "C5",
                    "midi": 72,
                    "time": 330.33004199999357,
                    "velocity": 0.4330708661417323,
                    "duration": 0.13514794999997548
                },
                {
                    "name": "C#5",
                    "midi": 73,
                    "time": 330.33004199999357,
                    "velocity": 0.4330708661417323,
                    "duration": 0.13514794999997548
                },
                {
                    "name": "C5",
                    "midi": 72,
                    "time": 330.47230299999353,
                    "velocity": 0.4645669291338583,
                    "duration": 0.13514794999997548
                },
                {
                    "name": "C#5",
                    "midi": 73,
                    "time": 330.47230299999353,
                    "velocity": 0.4645669291338583,
                    "duration": 0.13514794999997548
                },
                {
                    "name": "A#4",
                    "midi": 70,
                    "time": 330.6145639999935,
                    "velocity": 0.48031496062992124,
                    "duration": 0.13514794999997548
                },
                {
                    "name": "C#5",
                    "midi": 73,
                    "time": 330.6145639999935,
                    "velocity": 0.48031496062992124,
                    "duration": 0.13514794999997548
                },
                {
                    "name": "A#4",
                    "midi": 70,
                    "time": 330.75682499999346,
                    "velocity": 0.49606299212598426,
                    "duration": 0.13514794999997548
                },
                {
                    "name": "C#5",
                    "midi": 73,
                    "time": 330.75682499999346,
                    "velocity": 0.49606299212598426,
                    "duration": 0.13514794999997548
                },
                {
                    "name": "G#4",
                    "midi": 68,
                    "time": 330.8990859999934,
                    "velocity": 0.5354330708661418,
                    "duration": 0.13514794999997548
                },
                {
                    "name": "A#4",
                    "midi": 70,
                    "time": 330.8990859999934,
                    "velocity": 0.5354330708661418,
                    "duration": 0.13514794999997548
                },
                {
                    "name": "D5",
                    "midi": 74,
                    "time": 330.8990859999934,
                    "velocity": 0.5354330708661418,
                    "duration": 0.13514794999997548
                },
                {
                    "name": "G#4",
                    "midi": 68,
                    "time": 331.0413469999934,
                    "velocity": 0.5433070866141733,
                    "duration": 0.13514794999997548
                },
                {
                    "name": "A#4",
                    "midi": 70,
                    "time": 331.0413469999934,
                    "velocity": 0.5433070866141733,
                    "duration": 0.13514794999997548
                },
                {
                    "name": "D5",
                    "midi": 74,
                    "time": 331.0413469999934,
                    "velocity": 0.5433070866141733,
                    "duration": 0.13514794999997548
                },
                {
                    "name": "G4",
                    "midi": 67,
                    "time": 331.18360799999334,
                    "velocity": 0.4645669291338583,
                    "duration": 0.13514794999997548
                },
                {
                    "name": "A#4",
                    "midi": 70,
                    "time": 331.18360799999334,
                    "velocity": 0.4645669291338583,
                    "duration": 0.13514794999997548
                },
                {
                    "name": "D#5",
                    "midi": 75,
                    "time": 331.18360799999334,
                    "velocity": 0.5511811023622047,
                    "duration": 0.13514794999997548
                },
                {
                    "name": "G4",
                    "midi": 67,
                    "time": 331.3258689999933,
                    "velocity": 0.5275590551181102,
                    "duration": 0.13514794999997548
                },
                {
                    "name": "A#4",
                    "midi": 70,
                    "time": 331.3258689999933,
                    "velocity": 0.5275590551181102,
                    "duration": 0.13514794999997548
                },
                {
                    "name": "D#5",
                    "midi": 75,
                    "time": 331.3258689999933,
                    "velocity": 0.5275590551181102,
                    "duration": 0.13514794999997548
                },
                {
                    "name": "G#4",
                    "midi": 68,
                    "time": 331.46812999999327,
                    "velocity": 0.4409448818897638,
                    "duration": 0.13514794999997548
                },
                {
                    "name": "B4",
                    "midi": 71,
                    "time": 331.46812999999327,
                    "velocity": 0.4409448818897638,
                    "duration": 0.13514794999997548
                },
                {
                    "name": "D#5",
                    "midi": 75,
                    "time": 331.46812999999327,
                    "velocity": 0.5196850393700787,
                    "duration": 0.13514794999997548
                },
                {
                    "name": "G#4",
                    "midi": 68,
                    "time": 331.61039099999323,
                    "velocity": 0.4330708661417323,
                    "duration": 0.13514794999997548
                },
                {
                    "name": "B4",
                    "midi": 71,
                    "time": 331.61039099999323,
                    "velocity": 0.4330708661417323,
                    "duration": 0.13514794999997548
                },
                {
                    "name": "D#5",
                    "midi": 75,
                    "time": 331.61039099999323,
                    "velocity": 0.5039370078740157,
                    "duration": 0.13514794999997548
                },
                {
                    "name": "G4",
                    "midi": 67,
                    "time": 331.7526519999932,
                    "velocity": 0.41732283464566927,
                    "duration": 0.13514794999997548
                },
                {
                    "name": "C#5",
                    "midi": 73,
                    "time": 331.7526519999932,
                    "velocity": 0.41732283464566927,
                    "duration": 0.13514794999997548
                },
                {
                    "name": "D#5",
                    "midi": 75,
                    "time": 331.7526519999932,
                    "velocity": 0.49606299212598426,
                    "duration": 0.13514794999997548
                },
                {
                    "name": "G4",
                    "midi": 67,
                    "time": 331.89491299999315,
                    "velocity": 0.4094488188976378,
                    "duration": 0.13514794999997548
                },
                {
                    "name": "C#5",
                    "midi": 73,
                    "time": 331.89491299999315,
                    "velocity": 0.4094488188976378,
                    "duration": 0.13514794999997548
                },
                {
                    "name": "D#5",
                    "midi": 75,
                    "time": 331.89491299999315,
                    "velocity": 0.4881889763779528,
                    "duration": 0.13514794999997548
                },
                {
                    "name": "G#4",
                    "midi": 68,
                    "time": 332.0371739999931,
                    "velocity": 0.4015748031496063,
                    "duration": 0.13514794999997548
                },
                {
                    "name": "B4",
                    "midi": 71,
                    "time": 332.0371739999931,
                    "velocity": 0.4015748031496063,
                    "duration": 0.13514794999997548
                },
                {
                    "name": "D#5",
                    "midi": 75,
                    "time": 332.0371739999931,
                    "velocity": 0.48031496062992124,
                    "duration": 0.13514794999997548
                },
                {
                    "name": "D#5",
                    "midi": 75,
                    "time": 332.1794349999931,
                    "velocity": 0.47244094488188976,
                    "duration": 0.13514794999997548
                },
                {
                    "name": "D#5",
                    "midi": 75,
                    "time": 332.32169599999304,
                    "velocity": 0.5275590551181102,
                    "duration": 0.09484066666664148
                },
                {
                    "name": "E5",
                    "midi": 76,
                    "time": 332.32169599999304,
                    "velocity": 0.6299212598425197,
                    "duration": 0.09484066666664148
                },
                {
                    "name": "E4",
                    "midi": 64,
                    "time": 332.4165366666597,
                    "velocity": 0.5511811023622047,
                    "duration": 0.09484066666664148
                },
                {
                    "name": "D#5",
                    "midi": 75,
                    "time": 332.5113773333263,
                    "velocity": 0.47244094488188976,
                    "duration": 0.07113049999998111
                },
                {
                    "name": "E5",
                    "midi": 76,
                    "time": 332.5113773333263,
                    "velocity": 0.5511811023622047,
                    "duration": 0.07113049999998111
                },
                {
                    "name": "D#5",
                    "midi": 75,
                    "time": 332.60621799999296,
                    "velocity": 0.5275590551181102,
                    "duration": 0.09484066666664148
                },
                {
                    "name": "E5",
                    "midi": 76,
                    "time": 332.60621799999296,
                    "velocity": 0.6220472440944882,
                    "duration": 0.09484066666664148
                },
                {
                    "name": "E4",
                    "midi": 64,
                    "time": 332.7010586666596,
                    "velocity": 0.5669291338582677,
                    "duration": 0.09484066666664148
                },
                {
                    "name": "D#5",
                    "midi": 75,
                    "time": 332.79589933332625,
                    "velocity": 0.48031496062992124,
                    "duration": 0.07113049999998111
                },
                {
                    "name": "E5",
                    "midi": 76,
                    "time": 332.79589933332625,
                    "velocity": 0.5669291338582677,
                    "duration": 0.07113049999998111
                },
                {
                    "name": "C#5",
                    "midi": 73,
                    "time": 332.8907399999929,
                    "velocity": 0.5275590551181102,
                    "duration": 0.09484066666664148
                },
                {
                    "name": "E5",
                    "midi": 76,
                    "time": 332.8907399999929,
                    "velocity": 0.6220472440944882,
                    "duration": 0.09484066666664148
                },
                {
                    "name": "E4",
                    "midi": 64,
                    "time": 332.98558066665953,
                    "velocity": 0.5511811023622047,
                    "duration": 0.09484066666664148
                },
                {
                    "name": "C#5",
                    "midi": 73,
                    "time": 333.08042133332617,
                    "velocity": 0.47244094488188976,
                    "duration": 0.07113049999998111
                },
                {
                    "name": "E5",
                    "midi": 76,
                    "time": 333.08042133332617,
                    "velocity": 0.5511811023622047,
                    "duration": 0.07113049999998111
                },
                {
                    "name": "B4",
                    "midi": 71,
                    "time": 333.1752619999928,
                    "velocity": 0.5275590551181102,
                    "duration": 0.09484066666664148
                },
                {
                    "name": "C#5",
                    "midi": 73,
                    "time": 333.1752619999928,
                    "velocity": 0.5275590551181102,
                    "duration": 0.09484066666664148
                },
                {
                    "name": "F5",
                    "midi": 77,
                    "time": 333.1752619999928,
                    "velocity": 0.6220472440944882,
                    "duration": 0.09484066666664148
                },
                {
                    "name": "F4",
                    "midi": 65,
                    "time": 333.27010266665945,
                    "velocity": 0.5433070866141733,
                    "duration": 0.09484066666664148
                },
                {
                    "name": "B4",
                    "midi": 71,
                    "time": 333.3649433333261,
                    "velocity": 0.47244094488188976,
                    "duration": 0.07113049999998111
                },
                {
                    "name": "C#5",
                    "midi": 73,
                    "time": 333.3649433333261,
                    "velocity": 0.47244094488188976,
                    "duration": 0.07113049999998111
                },
                {
                    "name": "F5",
                    "midi": 77,
                    "time": 333.3649433333261,
                    "velocity": 0.5511811023622047,
                    "duration": 0.07113049999998111
                },
                {
                    "name": "A#4",
                    "midi": 70,
                    "time": 333.45978399999274,
                    "velocity": 0.5275590551181102,
                    "duration": 0.09484066666664148
                },
                {
                    "name": "C#5",
                    "midi": 73,
                    "time": 333.45978399999274,
                    "velocity": 0.5275590551181102,
                    "duration": 0.09484066666664148
                },
                {
                    "name": "F#5",
                    "midi": 78,
                    "time": 333.45978399999274,
                    "velocity": 0.6299212598425197,
                    "duration": 0.09484066666664148
                },
                {
                    "name": "F#4",
                    "midi": 66,
                    "time": 333.5546246666594,
                    "velocity": 0.5511811023622047,
                    "duration": 0.09484066666664148
                },
                {
                    "name": "A#4",
                    "midi": 70,
                    "time": 333.649465333326,
                    "velocity": 0.5433070866141733,
                    "duration": 0.09484066666664148
                },
                {
                    "name": "C#5",
                    "midi": 73,
                    "time": 333.649465333326,
                    "velocity": 0.48031496062992124,
                    "duration": 0.09484066666664148
                },
                {
                    "name": "F#5",
                    "midi": 78,
                    "time": 333.649465333326,
                    "velocity": 0.5669291338582677,
                    "duration": 0.09484066666664148
                },
                {
                    "name": "B4",
                    "midi": 71,
                    "time": 333.74430599999266,
                    "velocity": 0.49606299212598426,
                    "duration": 0.09484066666664148
                },
                {
                    "name": "D5",
                    "midi": 74,
                    "time": 333.74430599999266,
                    "velocity": 0.5433070866141733,
                    "duration": 0.09484066666664148
                },
                {
                    "name": "F#5",
                    "midi": 78,
                    "time": 333.74430599999266,
                    "velocity": 0.6456692913385826,
                    "duration": 0.09484066666664148
                },
                {
                    "name": "F#4",
                    "midi": 66,
                    "time": 333.8391466666593,
                    "velocity": 0.5905511811023622,
                    "duration": 0.09484066666664148
                },
                {
                    "name": "B4",
                    "midi": 71,
                    "time": 333.93398733332594,
                    "velocity": 0.5039370078740157,
                    "duration": 0.09484066666664148
                },
                {
                    "name": "D5",
                    "midi": 74,
                    "time": 333.93398733332594,
                    "velocity": 0.5039370078740157,
                    "duration": 0.09484066666664148
                },
                {
                    "name": "F#5",
                    "midi": 78,
                    "time": 333.93398733332594,
                    "velocity": 0.6062992125984252,
                    "duration": 0.09484066666664148
                },
                {
                    "name": "A#4",
                    "midi": 70,
                    "time": 334.0288279999926,
                    "velocity": 0.5433070866141733,
                    "duration": 0.09484066666664148
                },
                {
                    "name": "E5",
                    "midi": 76,
                    "time": 334.0288279999926,
                    "velocity": 0.5433070866141733,
                    "duration": 0.09484066666664148
                },
                {
                    "name": "F#5",
                    "midi": 78,
                    "time": 334.0288279999926,
                    "velocity": 0.6456692913385826,
                    "duration": 0.09484066666664148
                },
                {
                    "name": "F#4",
                    "midi": 66,
                    "time": 334.1236686666592,
                    "velocity": 0.5748031496062992,
                    "duration": 0.09484066666664148
                },
                {
                    "name": "A#4",
                    "midi": 70,
                    "time": 334.21850933332587,
                    "velocity": 0.5354330708661418,
                    "duration": 0.09484066666664148
                },
                {
                    "name": "E5",
                    "midi": 76,
                    "time": 334.21850933332587,
                    "velocity": 0.48031496062992124,
                    "duration": 0.09484066666664148
                },
                {
                    "name": "F#5",
                    "midi": 78,
                    "time": 334.21850933332587,
                    "velocity": 0.5748031496062992,
                    "duration": 0.09484066666664148
                },
                {
                    "name": "B4",
                    "midi": 71,
                    "time": 334.3133499999925,
                    "velocity": 0.5275590551181102,
                    "duration": 0.09484066666664148
                },
                {
                    "name": "D5",
                    "midi": 74,
                    "time": 334.3133499999925,
                    "velocity": 0.5275590551181102,
                    "duration": 0.09484066666664148
                },
                {
                    "name": "F#5",
                    "midi": 78,
                    "time": 334.3133499999925,
                    "velocity": 0.6299212598425197,
                    "duration": 0.09484066666664148
                },
                {
                    "name": "F#4",
                    "midi": 66,
                    "time": 334.40819066665915,
                    "velocity": 0.5511811023622047,
                    "duration": 0.09484066666664148
                },
                {
                    "name": "B4",
                    "midi": 71,
                    "time": 334.5030313333258,
                    "velocity": 0.47244094488188976,
                    "duration": 0.09484066666664148
                },
                {
                    "name": "D5",
                    "midi": 74,
                    "time": 334.5030313333258,
                    "velocity": 0.47244094488188976,
                    "duration": 0.09484066666664148
                },
                {
                    "name": "F#5",
                    "midi": 78,
                    "time": 334.5030313333258,
                    "velocity": 0.5511811023622047,
                    "duration": 0.09484066666664148
                },
                {
                    "name": "F#5",
                    "midi": 78,
                    "time": 334.59787199999244,
                    "velocity": 0.5275590551181102,
                    "duration": 0.09484066666664148
                },
                {
                    "name": "G5",
                    "midi": 79,
                    "time": 334.59787199999244,
                    "velocity": 0.6299212598425197,
                    "duration": 0.09484066666664148
                },
                {
                    "name": "G4",
                    "midi": 67,
                    "time": 334.6927126666591,
                    "velocity": 0.5511811023622047,
                    "duration": 0.09484066666664148
                },
                {
                    "name": "F#5",
                    "midi": 78,
                    "time": 334.7875533333257,
                    "velocity": 0.47244094488188976,
                    "duration": 0.07113049999998111
                },
                {
                    "name": "G5",
                    "midi": 79,
                    "time": 334.7875533333257,
                    "velocity": 0.5511811023622047,
                    "duration": 0.07113049999998111
                },
                {
                    "name": "F#5",
                    "midi": 78,
                    "time": 334.88239399999236,
                    "velocity": 0.5275590551181102,
                    "duration": 0.09484066666664148
                },
                {
                    "name": "G5",
                    "midi": 79,
                    "time": 334.88239399999236,
                    "velocity": 0.6299212598425197,
                    "duration": 0.09484066666664148
                },
                {
                    "name": "G4",
                    "midi": 67,
                    "time": 334.977234666659,
                    "velocity": 0.5748031496062992,
                    "duration": 0.09484066666664148
                },
                {
                    "name": "F#5",
                    "midi": 78,
                    "time": 335.07207533332564,
                    "velocity": 0.4881889763779528,
                    "duration": 0.07113049999998111
                },
                {
                    "name": "G5",
                    "midi": 79,
                    "time": 335.07207533332564,
                    "velocity": 0.5826771653543307,
                    "duration": 0.07113049999998111
                },
                {
                    "name": "E5",
                    "midi": 76,
                    "time": 335.1669159999923,
                    "velocity": 0.5433070866141733,
                    "duration": 0.09484066666664148
                },
                {
                    "name": "G5",
                    "midi": 79,
                    "time": 335.1669159999923,
                    "velocity": 0.6456692913385826,
                    "duration": 0.09484066666664148
                },
                {
                    "name": "G4",
                    "midi": 67,
                    "time": 335.2617566666589,
                    "velocity": 0.5748031496062992,
                    "duration": 0.09484066666664148
                },
                {
                    "name": "E5",
                    "midi": 76,
                    "time": 335.35659733332557,
                    "velocity": 0.4881889763779528,
                    "duration": 0.07113049999998111
                },
                {
                    "name": "G5",
                    "midi": 79,
                    "time": 335.35659733332557,
                    "velocity": 0.5826771653543307,
                    "duration": 0.07113049999998111
                },
                {
                    "name": "D5",
                    "midi": 74,
                    "time": 335.4514379999922,
                    "velocity": 0.5511811023622047,
                    "duration": 0.09484066666664148
                },
                {
                    "name": "E5",
                    "midi": 76,
                    "time": 335.4514379999922,
                    "velocity": 0.5511811023622047,
                    "duration": 0.09484066666664148
                },
                {
                    "name": "G#5",
                    "midi": 80,
                    "time": 335.4514379999922,
                    "velocity": 0.6614173228346457,
                    "duration": 0.09484066666664148
                },
                {
                    "name": "G#4",
                    "midi": 68,
                    "time": 335.54627866665885,
                    "velocity": 0.5826771653543307,
                    "duration": 0.09484066666664148
                },
                {
                    "name": "D5",
                    "midi": 74,
                    "time": 335.6411193333255,
                    "velocity": 0.5039370078740157,
                    "duration": 0.07113049999998111
                },
                {
                    "name": "E5",
                    "midi": 76,
                    "time": 335.6411193333255,
                    "velocity": 0.5039370078740157,
                    "duration": 0.07113049999998111
                },
                {
                    "name": "G#5",
                    "midi": 80,
                    "time": 335.6411193333255,
                    "velocity": 0.6062992125984252,
                    "duration": 0.07113049999998111
                },
                {
                    "name": "C#5",
                    "midi": 73,
                    "time": 335.73595999999213,
                    "velocity": 0.5826771653543307,
                    "duration": 0.09484066666664148
                },
                {
                    "name": "E5",
                    "midi": 76,
                    "time": 335.73595999999213,
                    "velocity": 0.5826771653543307,
                    "duration": 0.09484066666664148
                },
                {
                    "name": "A5",
                    "midi": 81,
                    "time": 335.73595999999213,
                    "velocity": 0.6929133858267716,
                    "duration": 0.09484066666664148
                },
                {
                    "name": "A4",
                    "midi": 69,
                    "time": 335.8308006666588,
                    "velocity": 0.6062992125984252,
                    "duration": 0.09484066666664148
                },
                {
                    "name": "C#5",
                    "midi": 73,
                    "time": 335.9256413333254,
                    "velocity": 0.5826771653543307,
                    "duration": 0.07113049999998111
                },
                {
                    "name": "E5",
                    "midi": 76,
                    "time": 335.9256413333254,
                    "velocity": 0.5196850393700787,
                    "duration": 0.07113049999998111
                },
                {
                    "name": "A5",
                    "midi": 81,
                    "time": 335.9256413333254,
                    "velocity": 0.6141732283464567,
                    "duration": 0.07113049999998111
                },
                {
                    "name": "C#5",
                    "midi": 73,
                    "time": 336.02048199999206,
                    "velocity": 0.5275590551181102,
                    "duration": 0.09484066666664148
                },
                {
                    "name": "E5",
                    "midi": 76,
                    "time": 336.02048199999206,
                    "velocity": 0.5826771653543307,
                    "duration": 0.09484066666664148
                },
                {
                    "name": "A5",
                    "midi": 81,
                    "time": 336.02048199999206,
                    "velocity": 0.6929133858267716,
                    "duration": 0.09484066666664148
                },
                {
                    "name": "A4",
                    "midi": 69,
                    "time": 336.1153226666587,
                    "velocity": 0.6299212598425197,
                    "duration": 0.09484066666664148
                },
                {
                    "name": "C#5",
                    "midi": 73,
                    "time": 336.21016333332534,
                    "velocity": 0.5354330708661418,
                    "duration": 0.07113049999998111
                },
                {
                    "name": "E5",
                    "midi": 76,
                    "time": 336.21016333332534,
                    "velocity": 0.5354330708661418,
                    "duration": 0.07113049999998111
                },
                {
                    "name": "A5",
                    "midi": 81,
                    "time": 336.21016333332534,
                    "velocity": 0.6377952755905512,
                    "duration": 0.07113049999998111
                },
                {
                    "name": "D5",
                    "midi": 74,
                    "time": 336.305003999992,
                    "velocity": 0.5275590551181102,
                    "duration": 0.09484066666664148
                },
                {
                    "name": "F5",
                    "midi": 77,
                    "time": 336.305003999992,
                    "velocity": 0.5905511811023622,
                    "duration": 0.09484066666664148
                },
                {
                    "name": "A5",
                    "midi": 81,
                    "time": 336.305003999992,
                    "velocity": 0.7086614173228346,
                    "duration": 0.09484066666664148
                },
                {
                    "name": "A4",
                    "midi": 69,
                    "time": 336.3998446666586,
                    "velocity": 0.6299212598425197,
                    "duration": 0.09484066666664148
                },
                {
                    "name": "D5",
                    "midi": 74,
                    "time": 336.49468533332526,
                    "velocity": 0.5354330708661418,
                    "duration": 0.07113049999998111
                },
                {
                    "name": "F5",
                    "midi": 77,
                    "time": 336.49468533332526,
                    "velocity": 0.5354330708661418,
                    "duration": 0.07113049999998111
                },
                {
                    "name": "A5",
                    "midi": 81,
                    "time": 336.49468533332526,
                    "velocity": 0.6377952755905512,
                    "duration": 0.07113049999998111
                },
                {
                    "name": "C#5",
                    "midi": 73,
                    "time": 336.5895259999919,
                    "velocity": 0.6141732283464567,
                    "duration": 0.09484066666664148
                },
                {
                    "name": "G5",
                    "midi": 79,
                    "time": 336.5895259999919,
                    "velocity": 0.6141732283464567,
                    "duration": 0.09484066666664148
                },
                {
                    "name": "A5",
                    "midi": 81,
                    "time": 336.5895259999919,
                    "velocity": 0.7244094488188977,
                    "duration": 0.09484066666664148
                },
                {
                    "name": "A4",
                    "midi": 69,
                    "time": 336.68436666665855,
                    "velocity": 0.6377952755905512,
                    "duration": 0.09484066666664148
                },
                {
                    "name": "C#5",
                    "midi": 73,
                    "time": 336.7792073333252,
                    "velocity": 0.5511811023622047,
                    "duration": 0.07113049999998111
                },
                {
                    "name": "G5",
                    "midi": 79,
                    "time": 336.7792073333252,
                    "velocity": 0.5511811023622047,
                    "duration": 0.07113049999998111
                },
                {
                    "name": "A5",
                    "midi": 81,
                    "time": 336.7792073333252,
                    "velocity": 0.6614173228346457,
                    "duration": 0.07113049999998111
                },
                {
                    "name": "D5",
                    "midi": 74,
                    "time": 336.87404799999183,
                    "velocity": 0.6377952755905512,
                    "duration": 0.09484066666664148
                },
                {
                    "name": "F5",
                    "midi": 77,
                    "time": 336.87404799999183,
                    "velocity": 0.6377952755905512,
                    "duration": 0.09484066666664148
                },
                {
                    "name": "A5",
                    "midi": 81,
                    "time": 336.87404799999183,
                    "velocity": 0.7559055118110236,
                    "duration": 0.09484066666664148
                },
                {
                    "name": "A4",
                    "midi": 69,
                    "time": 336.9688886666585,
                    "velocity": 0.6614173228346457,
                    "duration": 0.09484066666664148
                },
                {
                    "name": "D5",
                    "midi": 74,
                    "time": 337.0637293333251,
                    "velocity": 0.6377952755905512,
                    "duration": 0.07113049999998111
                },
                {
                    "name": "F5",
                    "midi": 77,
                    "time": 337.0637293333251,
                    "velocity": 0.5511811023622047,
                    "duration": 0.07113049999998111
                },
                {
                    "name": "A5",
                    "midi": 81,
                    "time": 337.0637293333251,
                    "velocity": 0.6614173228346457,
                    "duration": 0.07113049999998111
                },
                {
                    "name": "C#5",
                    "midi": 73,
                    "time": 337.15856999999176,
                    "velocity": 0.5748031496062992,
                    "duration": 0.09484066666664148
                },
                {
                    "name": "G5",
                    "midi": 79,
                    "time": 337.15856999999176,
                    "velocity": 0.6299212598425197,
                    "duration": 0.09484066666664148
                },
                {
                    "name": "A5",
                    "midi": 81,
                    "time": 337.15856999999176,
                    "velocity": 0.7401574803149606,
                    "duration": 0.09484066666664148
                },
                {
                    "name": "A4",
                    "midi": 69,
                    "time": 337.2534106666584,
                    "velocity": 0.6771653543307087,
                    "duration": 0.09484066666664148
                },
                {
                    "name": "C#5",
                    "midi": 73,
                    "time": 337.34825133332504,
                    "velocity": 0.5748031496062992,
                    "duration": 0.07113049999998111
                },
                {
                    "name": "G5",
                    "midi": 79,
                    "time": 337.34825133332504,
                    "velocity": 0.5748031496062992,
                    "duration": 0.07113049999998111
                },
                {
                    "name": "A5",
                    "midi": 81,
                    "time": 337.34825133332504,
                    "velocity": 0.6771653543307087,
                    "duration": 0.07113049999998111
                },
                {
                    "name": "D5",
                    "midi": 74,
                    "time": 337.4430919999917,
                    "velocity": 0.5511811023622047,
                    "duration": 0.09484066666664148
                },
                {
                    "name": "F5",
                    "midi": 77,
                    "time": 337.4430919999917,
                    "velocity": 0.6299212598425197,
                    "duration": 0.09484066666664148
                },
                {
                    "name": "A5",
                    "midi": 81,
                    "time": 337.4430919999917,
                    "velocity": 0.7401574803149606,
                    "duration": 0.09484066666664148
                },
                {
                    "name": "A4",
                    "midi": 69,
                    "time": 337.5379326666583,
                    "velocity": 0.6614173228346457,
                    "duration": 0.09484066666664148
                },
                {
                    "name": "D5",
                    "midi": 74,
                    "time": 337.63277333332496,
                    "velocity": 0.5511811023622047,
                    "duration": 0.07113049999998111
                },
                {
                    "name": "F5",
                    "midi": 77,
                    "time": 337.63277333332496,
                    "velocity": 0.5511811023622047,
                    "duration": 0.07113049999998111
                },
                {
                    "name": "A5",
                    "midi": 81,
                    "time": 337.63277333332496,
                    "velocity": 0.6614173228346457,
                    "duration": 0.07113049999998111
                },
                {
                    "name": "C#5",
                    "midi": 73,
                    "time": 337.7276139999916,
                    "velocity": 0.6299212598425197,
                    "duration": 0.09484066666664148
                },
                {
                    "name": "G5",
                    "midi": 79,
                    "time": 337.7276139999916,
                    "velocity": 0.6299212598425197,
                    "duration": 0.09484066666664148
                },
                {
                    "name": "A5",
                    "midi": 81,
                    "time": 337.7276139999916,
                    "velocity": 0.7401574803149606,
                    "duration": 0.09484066666664148
                },
                {
                    "name": "A4",
                    "midi": 69,
                    "time": 337.82245466665825,
                    "velocity": 0.6456692913385826,
                    "duration": 0.09484066666664148
                },
                {
                    "name": "C#5",
                    "midi": 73,
                    "time": 337.9172953333249,
                    "velocity": 0.5511811023622047,
                    "duration": 0.07113049999998111
                },
                {
                    "name": "G5",
                    "midi": 79,
                    "time": 337.9172953333249,
                    "velocity": 0.5511811023622047,
                    "duration": 0.07113049999998111
                },
                {
                    "name": "A5",
                    "midi": 81,
                    "time": 337.9172953333249,
                    "velocity": 0.6614173228346457,
                    "duration": 0.07113049999998111
                },
                {
                    "name": "D6",
                    "midi": 86,
                    "time": 338.01213599999153,
                    "velocity": 0.7559055118110236,
                    "duration": 0.09484066666664148
                },
                {
                    "name": "F5",
                    "midi": 77,
                    "time": 338.01213599999153,
                    "velocity": 0.6377952755905512,
                    "duration": 0.09484066666664148
                },
                {
                    "name": "A5",
                    "midi": 81,
                    "time": 338.01213599999153,
                    "velocity": 0.6377952755905512,
                    "duration": 0.09484066666664148
                },
                {
                    "name": "D5",
                    "midi": 74,
                    "time": 338.10697666665817,
                    "velocity": 0.6614173228346457,
                    "duration": 0.09484066666664148
                },
                {
                    "name": "D6",
                    "midi": 86,
                    "time": 338.2018173333248,
                    "velocity": 0.7637795275590551,
                    "duration": 0.07113049999998111
                },
                {
                    "name": "F5",
                    "midi": 77,
                    "time": 338.2018173333248,
                    "velocity": 0.5669291338582677,
                    "duration": 0.07113049999998111
                },
                {
                    "name": "A5",
                    "midi": 81,
                    "time": 338.2018173333248,
                    "velocity": 0.5669291338582677,
                    "duration": 0.07113049999998111
                },
                {
                    "name": "C#6",
                    "midi": 85,
                    "time": 338.29665799999145,
                    "velocity": 0.6929133858267716,
                    "duration": 0.09484066666664148
                },
                {
                    "name": "G5",
                    "midi": 79,
                    "time": 338.29665799999145,
                    "velocity": 0.6377952755905512,
                    "duration": 0.09484066666664148
                },
                {
                    "name": "A5",
                    "midi": 81,
                    "time": 338.29665799999145,
                    "velocity": 0.6377952755905512,
                    "duration": 0.09484066666664148
                },
                {
                    "name": "C#5",
                    "midi": 73,
                    "time": 338.3914986666581,
                    "velocity": 0.6929133858267716,
                    "duration": 0.09484066666664148
                },
                {
                    "name": "C#6",
                    "midi": 85,
                    "time": 338.48633933332474,
                    "velocity": 0.7007874015748031,
                    "duration": 0.07113049999998111
                },
                {
                    "name": "G5",
                    "midi": 79,
                    "time": 338.48633933332474,
                    "velocity": 0.5826771653543307,
                    "duration": 0.07113049999998111
                },
                {
                    "name": "A5",
                    "midi": 81,
                    "time": 338.48633933332474,
                    "velocity": 0.5826771653543307,
                    "duration": 0.07113049999998111
                },
                {
                    "name": "D6",
                    "midi": 86,
                    "time": 338.5811799999914,
                    "velocity": 0.6929133858267716,
                    "duration": 0.09484066666664148
                },
                {
                    "name": "F5",
                    "midi": 77,
                    "time": 338.5811799999914,
                    "velocity": 0.6377952755905512,
                    "duration": 0.09484066666664148
                },
                {
                    "name": "A5",
                    "midi": 81,
                    "time": 338.5811799999914,
                    "velocity": 0.6377952755905512,
                    "duration": 0.09484066666664148
                },
                {
                    "name": "D5",
                    "midi": 74,
                    "time": 338.676020666658,
                    "velocity": 0.6929133858267716,
                    "duration": 0.09484066666664148
                },
                {
                    "name": "D6",
                    "midi": 86,
                    "time": 338.77086133332466,
                    "velocity": 0.7007874015748031,
                    "duration": 0.07113049999998111
                },
                {
                    "name": "F5",
                    "midi": 77,
                    "time": 338.77086133332466,
                    "velocity": 0.5826771653543307,
                    "duration": 0.07113049999998111
                },
                {
                    "name": "A5",
                    "midi": 81,
                    "time": 338.77086133332466,
                    "velocity": 0.5826771653543307,
                    "duration": 0.07113049999998111
                },
                {
                    "name": "C#6",
                    "midi": 85,
                    "time": 338.8657019999913,
                    "velocity": 0.7874015748031497,
                    "duration": 0.09484066666664148
                },
                {
                    "name": "G5",
                    "midi": 79,
                    "time": 338.8657019999913,
                    "velocity": 0.6614173228346457,
                    "duration": 0.09484066666664148
                },
                {
                    "name": "A5",
                    "midi": 81,
                    "time": 338.8657019999913,
                    "velocity": 0.6614173228346457,
                    "duration": 0.09484066666664148
                },
                {
                    "name": "C#5",
                    "midi": 73,
                    "time": 338.96054266665794,
                    "velocity": 0.7007874015748031,
                    "duration": 0.09484066666664148
                },
                {
                    "name": "C#6",
                    "midi": 85,
                    "time": 339.0553833333246,
                    "velocity": 0.7165354330708661,
                    "duration": 0.07113049999998111
                },
                {
                    "name": "G5",
                    "midi": 79,
                    "time": 339.0553833333246,
                    "velocity": 0.6062992125984252,
                    "duration": 0.07113049999998111
                },
                {
                    "name": "A5",
                    "midi": 81,
                    "time": 339.0553833333246,
                    "velocity": 0.6062992125984252,
                    "duration": 0.07113049999998111
                },
                {
                    "name": "D5",
                    "midi": 74,
                    "time": 339.1502239999912,
                    "velocity": 0.6929133858267716,
                    "duration": 0.14226100000001907
                },
                {
                    "name": "F5",
                    "midi": 77,
                    "time": 339.1502239999912,
                    "velocity": 0.6929133858267716,
                    "duration": 0.14226100000001907
                },
                {
                    "name": "A5",
                    "midi": 81,
                    "time": 339.1502239999912,
                    "velocity": 0.6929133858267716,
                    "duration": 0.14226100000001907
                },
                {
                    "name": "D6",
                    "midi": 86,
                    "time": 339.1502239999912,
                    "velocity": 0.8110236220472441,
                    "duration": 0.14226100000001907
                },
                {
                    "name": "D5",
                    "midi": 74,
                    "time": 340.28831199999127,
                    "velocity": 0.5590551181102362,
                    "duration": 0.5690440000000194
                },
                {
                    "name": "F5",
                    "midi": 77,
                    "time": 340.8573559999913,
                    "velocity": 0.48031496062992124,
                    "duration": 0.14226100000001907
                },
                {
                    "name": "A5",
                    "midi": 81,
                    "time": 341.1418779999913,
                    "velocity": 0.48031496062992124,
                    "duration": 0.14226100000001907
                },
                {
                    "name": "A4",
                    "midi": 69,
                    "time": 341.42639999999136,
                    "velocity": 0.5590551181102362,
                    "duration": 0.5666729833333193
                },
                {
                    "name": "F5",
                    "midi": 77,
                    "time": 341.9954439999913,
                    "velocity": 0.4645669291338583,
                    "duration": 0.14226100000001907
                },
                {
                    "name": "A5",
                    "midi": 81,
                    "time": 342.27996599999136,
                    "velocity": 0.4645669291338583,
                    "duration": 0.14226100000001907
                },
                {
                    "name": "D5",
                    "midi": 74,
                    "time": 342.5644879999914,
                    "velocity": 0.5590551181102362,
                    "duration": 0.5690440000000194
                },
                {
                    "name": "F5",
                    "midi": 77,
                    "time": 343.1335319999914,
                    "velocity": 0.47244094488188976,
                    "duration": 0.14226100000001907
                },
                {
                    "name": "A5",
                    "midi": 81,
                    "time": 343.41805399999146,
                    "velocity": 0.47244094488188976,
                    "duration": 0.14226100000001907
                },
                {
                    "name": "C6",
                    "midi": 84,
                    "time": 343.7025759999915,
                    "velocity": 0.5196850393700787,
                    "duration": 0.14226100000001907
                },
                {
                    "name": "A5",
                    "midi": 81,
                    "time": 343.8448369999915,
                    "velocity": 0.44881889763779526,
                    "duration": 0.13514794999997548
                },
                {
                    "name": "A5",
                    "midi": 81,
                    "time": 343.9870979999915,
                    "velocity": 0.47244094488188976,
                    "duration": 0.14226100000001907
                },
                {
                    "name": "G5",
                    "midi": 79,
                    "time": 344.1293589999915,
                    "velocity": 0.4330708661417323,
                    "duration": 0.13514794999997548
                },
                {
                    "name": "G5",
                    "midi": 79,
                    "time": 344.27161999999146,
                    "velocity": 0.4566929133858268,
                    "duration": 0.14226100000001907
                },
                {
                    "name": "F5",
                    "midi": 77,
                    "time": 344.4138809999915,
                    "velocity": 0.4251968503937008,
                    "duration": 0.13514794999997548
                },
                {
                    "name": "F5",
                    "midi": 77,
                    "time": 344.55614199999144,
                    "velocity": 0.4409448818897638,
                    "duration": 0.14226100000001907
                },
                {
                    "name": "E5",
                    "midi": 76,
                    "time": 344.69840299999146,
                    "velocity": 0.4094488188976378,
                    "duration": 0.13514794999997548
                },
                {
                    "name": "E5",
                    "midi": 76,
                    "time": 344.8406639999914,
                    "velocity": 0.4330708661417323,
                    "duration": 0.14226100000001907
                },
                {
                    "name": "F5",
                    "midi": 77,
                    "time": 344.98292499999144,
                    "velocity": 0.4015748031496063,
                    "duration": 0.13514794999997548
                },
                {
                    "name": "F5",
                    "midi": 77,
                    "time": 345.1251859999914,
                    "velocity": 0.4409448818897638,
                    "duration": 0.14226100000001907
                },
                {
                    "name": "D5",
                    "midi": 74,
                    "time": 345.2674469999914,
                    "velocity": 0.4094488188976378,
                    "duration": 0.13514794999997548
                },
                {
                    "name": "D5",
                    "midi": 74,
                    "time": 345.4097079999914,
                    "velocity": 0.4330708661417323,
                    "duration": 0.14226100000001907
                },
                {
                    "name": "C5",
                    "midi": 72,
                    "time": 345.5519689999914,
                    "velocity": 0.3937007874015748,
                    "duration": 0.13514794999997548
                },
                {
                    "name": "D5",
                    "midi": 74,
                    "time": 345.69422999999136,
                    "velocity": 0.4330708661417323,
                    "duration": 0.14226100000001907
                },
                {
                    "name": "C5",
                    "midi": 72,
                    "time": 345.8364909999914,
                    "velocity": 0.4015748031496063,
                    "duration": 0.13514794999997548
                },
                {
                    "name": "A4",
                    "midi": 69,
                    "time": 345.97875199999135,
                    "velocity": 0.4094488188976378,
                    "duration": 0.13514794999997548
                },
                {
                    "name": "A4",
                    "midi": 69,
                    "time": 346.1210129999913,
                    "velocity": 0.2440944881889764,
                    "duration": 0.13514794999997548
                },
                {
                    "name": "F4",
                    "midi": 65,
                    "time": 346.1210129999913,
                    "velocity": 0.1968503937007874,
                    "duration": 0.13514794999997548
                },
                {
                    "name": "D4",
                    "midi": 62,
                    "time": 346.1210129999913,
                    "velocity": 0.16535433070866143,
                    "duration": 0.13514794999997548
                },
                {
                    "name": "A4",
                    "midi": 69,
                    "time": 346.26327399999127,
                    "velocity": 0.25196850393700787,
                    "duration": 0.13514794999997548
                },
                {
                    "name": "F4",
                    "midi": 65,
                    "time": 346.26327399999127,
                    "velocity": 0.2047244094488189,
                    "duration": 0.13514794999997548
                },
                {
                    "name": "D4",
                    "midi": 62,
                    "time": 346.26327399999127,
                    "velocity": 0.1732283464566929,
                    "duration": 0.13514794999997548
                },
                {
                    "name": "A4",
                    "midi": 69,
                    "time": 346.40553499999123,
                    "velocity": 0.25196850393700787,
                    "duration": 0.13514794999997548
                },
                {
                    "name": "F4",
                    "midi": 65,
                    "time": 346.40553499999123,
                    "velocity": 0.2047244094488189,
                    "duration": 0.13514794999997548
                },
                {
                    "name": "D4",
                    "midi": 62,
                    "time": 346.40553499999123,
                    "velocity": 0.1732283464566929,
                    "duration": 0.13514794999997548
                },
                {
                    "name": "A4",
                    "midi": 69,
                    "time": 346.5477959999912,
                    "velocity": 0.2440944881889764,
                    "duration": 0.13514794999997548
                },
                {
                    "name": "F4",
                    "midi": 65,
                    "time": 346.5477959999912,
                    "velocity": 0.1968503937007874,
                    "duration": 0.13514794999997548
                },
                {
                    "name": "D4",
                    "midi": 62,
                    "time": 346.5477959999912,
                    "velocity": 0.16535433070866143,
                    "duration": 0.13514794999997548
                },
                {
                    "name": "A4",
                    "midi": 69,
                    "time": 346.69005699999116,
                    "velocity": 0.2440944881889764,
                    "duration": 0.13514794999997548
                },
                {
                    "name": "F4",
                    "midi": 65,
                    "time": 346.69005699999116,
                    "velocity": 0.1968503937007874,
                    "duration": 0.13514794999997548
                },
                {
                    "name": "D4",
                    "midi": 62,
                    "time": 346.69005699999116,
                    "velocity": 0.16535433070866143,
                    "duration": 0.13514794999997548
                },
                {
                    "name": "A4",
                    "midi": 69,
                    "time": 346.8323179999911,
                    "velocity": 0.2283464566929134,
                    "duration": 0.13514794999997548
                },
                {
                    "name": "F4",
                    "midi": 65,
                    "time": 346.8323179999911,
                    "velocity": 0.1889763779527559,
                    "duration": 0.13514794999997548
                },
                {
                    "name": "D4",
                    "midi": 62,
                    "time": 346.8323179999911,
                    "velocity": 0.15748031496062992,
                    "duration": 0.13514794999997548
                },
                {
                    "name": "A4",
                    "midi": 69,
                    "time": 346.9745789999911,
                    "velocity": 0.2283464566929134,
                    "duration": 0.13514794999997548
                },
                {
                    "name": "F4",
                    "midi": 65,
                    "time": 346.9745789999911,
                    "velocity": 0.1889763779527559,
                    "duration": 0.13514794999997548
                },
                {
                    "name": "D4",
                    "midi": 62,
                    "time": 346.9745789999911,
                    "velocity": 0.15748031496062992,
                    "duration": 0.13514794999997548
                },
                {
                    "name": "D5",
                    "midi": 74,
                    "time": 347.11683999999104,
                    "velocity": 0.25196850393700787,
                    "duration": 0.13514794999997548
                },
                {
                    "name": "A4",
                    "midi": 69,
                    "time": 347.11683999999104,
                    "velocity": 0.2125984251968504,
                    "duration": 0.13514794999997548
                },
                {
                    "name": "F4",
                    "midi": 65,
                    "time": 347.11683999999104,
                    "velocity": 0.1732283464566929,
                    "duration": 0.13514794999997548
                },
                {
                    "name": "D5",
                    "midi": 74,
                    "time": 347.259100999991,
                    "velocity": 0.25196850393700787,
                    "duration": 0.13514794999997548
                },
                {
                    "name": "A4",
                    "midi": 69,
                    "time": 347.259100999991,
                    "velocity": 0.2125984251968504,
                    "duration": 0.13514794999997548
                },
                {
                    "name": "F4",
                    "midi": 65,
                    "time": 347.259100999991,
                    "velocity": 0.1732283464566929,
                    "duration": 0.13514794999997548
                },
                {
                    "name": "D5",
                    "midi": 74,
                    "time": 347.40136199999097,
                    "velocity": 0.25196850393700787,
                    "duration": 0.13514794999997548
                },
                {
                    "name": "A4",
                    "midi": 69,
                    "time": 347.40136199999097,
                    "velocity": 0.2125984251968504,
                    "duration": 0.13514794999997548
                },
                {
                    "name": "F4",
                    "midi": 65,
                    "time": 347.40136199999097,
                    "velocity": 0.1732283464566929,
                    "duration": 0.13514794999997548
                },
                {
                    "name": "D5",
                    "midi": 74,
                    "time": 347.54362299999093,
                    "velocity": 0.25196850393700787,
                    "duration": 0.13514794999997548
                },
                {
                    "name": "A4",
                    "midi": 69,
                    "time": 347.54362299999093,
                    "velocity": 0.2125984251968504,
                    "duration": 0.13514794999997548
                },
                {
                    "name": "F4",
                    "midi": 65,
                    "time": 347.54362299999093,
                    "velocity": 0.1732283464566929,
                    "duration": 0.13514794999997548
                },
                {
                    "name": "D5",
                    "midi": 74,
                    "time": 347.6858839999909,
                    "velocity": 0.25196850393700787,
                    "duration": 0.13514794999997548
                },
                {
                    "name": "A4",
                    "midi": 69,
                    "time": 347.6858839999909,
                    "velocity": 0.2125984251968504,
                    "duration": 0.13514794999997548
                },
                {
                    "name": "F4",
                    "midi": 65,
                    "time": 347.6858839999909,
                    "velocity": 0.1732283464566929,
                    "duration": 0.13514794999997548
                },
                {
                    "name": "D5",
                    "midi": 74,
                    "time": 347.82814499999085,
                    "velocity": 0.25196850393700787,
                    "duration": 0.13514794999997548
                },
                {
                    "name": "A4",
                    "midi": 69,
                    "time": 347.82814499999085,
                    "velocity": 0.2125984251968504,
                    "duration": 0.13514794999997548
                },
                {
                    "name": "F4",
                    "midi": 65,
                    "time": 347.82814499999085,
                    "velocity": 0.1732283464566929,
                    "duration": 0.13514794999997548
                },
                {
                    "name": "D5",
                    "midi": 74,
                    "time": 347.9704059999908,
                    "velocity": 0.25196850393700787,
                    "duration": 0.13514794999997548
                },
                {
                    "name": "A4",
                    "midi": 69,
                    "time": 347.9704059999908,
                    "velocity": 0.2125984251968504,
                    "duration": 0.13514794999997548
                },
                {
                    "name": "F4",
                    "midi": 65,
                    "time": 347.9704059999908,
                    "velocity": 0.1732283464566929,
                    "duration": 0.13514794999997548
                },
                {
                    "name": "D5",
                    "midi": 74,
                    "time": 348.1126669999908,
                    "velocity": 0.25196850393700787,
                    "duration": 0.13277693333333218
                },
                {
                    "name": "A4",
                    "midi": 69,
                    "time": 348.1126669999908,
                    "velocity": 0.2125984251968504,
                    "duration": 0.13514794999997548
                },
                {
                    "name": "F4",
                    "midi": 65,
                    "time": 348.1126669999908,
                    "velocity": 0.1732283464566929,
                    "duration": 0.13514794999997548
                },
                {
                    "name": "F4",
                    "midi": 65,
                    "time": 348.25492799999074,
                    "velocity": 0.1732283464566929,
                    "duration": 0.13514794999997548
                },
                {
                    "name": "A4",
                    "midi": 69,
                    "time": 348.25492799999074,
                    "velocity": 0.2125984251968504,
                    "duration": 0.13514794999997548
                },
                {
                    "name": "C#5",
                    "midi": 73,
                    "time": 348.25492799999074,
                    "velocity": 0.25196850393700787,
                    "duration": 0.13514794999997548
                },
                {
                    "name": "F4",
                    "midi": 65,
                    "time": 348.3971889999907,
                    "velocity": 0.1732283464566929,
                    "duration": 0.13514794999997548
                },
                {
                    "name": "A4",
                    "midi": 69,
                    "time": 348.3971889999907,
                    "velocity": 0.2125984251968504,
                    "duration": 0.13514794999997548
                },
                {
                    "name": "C#5",
                    "midi": 73,
                    "time": 348.3971889999907,
                    "velocity": 0.25196850393700787,
                    "duration": 0.13514794999997548
                },
                {
                    "name": "F4",
                    "midi": 65,
                    "time": 348.53944999999067,
                    "velocity": 0.1732283464566929,
                    "duration": 0.13514794999997548
                },
                {
                    "name": "A4",
                    "midi": 69,
                    "time": 348.53944999999067,
                    "velocity": 0.2125984251968504,
                    "duration": 0.13514794999997548
                },
                {
                    "name": "C#5",
                    "midi": 73,
                    "time": 348.53944999999067,
                    "velocity": 0.25196850393700787,
                    "duration": 0.13514794999997548
                },
                {
                    "name": "F4",
                    "midi": 65,
                    "time": 348.6817109999906,
                    "velocity": 0.1732283464566929,
                    "duration": 0.13514794999997548
                },
                {
                    "name": "A4",
                    "midi": 69,
                    "time": 348.6817109999906,
                    "velocity": 0.2125984251968504,
                    "duration": 0.13514794999997548
                },
                {
                    "name": "C#5",
                    "midi": 73,
                    "time": 348.6817109999906,
                    "velocity": 0.25196850393700787,
                    "duration": 0.13514794999997548
                },
                {
                    "name": "F4",
                    "midi": 65,
                    "time": 348.8239719999906,
                    "velocity": 0.1732283464566929,
                    "duration": 0.13514794999997548
                },
                {
                    "name": "A4",
                    "midi": 69,
                    "time": 348.8239719999906,
                    "velocity": 0.2125984251968504,
                    "duration": 0.13514794999997548
                },
                {
                    "name": "C#5",
                    "midi": 73,
                    "time": 348.8239719999906,
                    "velocity": 0.25196850393700787,
                    "duration": 0.13514794999997548
                },
                {
                    "name": "F4",
                    "midi": 65,
                    "time": 348.96623299999055,
                    "velocity": 0.1732283464566929,
                    "duration": 0.13514794999997548
                },
                {
                    "name": "A4",
                    "midi": 69,
                    "time": 348.96623299999055,
                    "velocity": 0.2125984251968504,
                    "duration": 0.13514794999997548
                },
                {
                    "name": "C#5",
                    "midi": 73,
                    "time": 348.96623299999055,
                    "velocity": 0.25196850393700787,
                    "duration": 0.13514794999997548
                },
                {
                    "name": "F4",
                    "midi": 65,
                    "time": 349.1084939999905,
                    "velocity": 0.1732283464566929,
                    "duration": 0.13514794999997548
                },
                {
                    "name": "A4",
                    "midi": 69,
                    "time": 349.1084939999905,
                    "velocity": 0.2125984251968504,
                    "duration": 0.13514794999997548
                },
                {
                    "name": "C#5",
                    "midi": 73,
                    "time": 349.1084939999905,
                    "velocity": 0.25196850393700787,
                    "duration": 0.13514794999997548
                },
                {
                    "name": "F4",
                    "midi": 65,
                    "time": 349.2507549999905,
                    "velocity": 0.1732283464566929,
                    "duration": 0.13514794999997548
                },
                {
                    "name": "A4",
                    "midi": 69,
                    "time": 349.2507549999905,
                    "velocity": 0.2125984251968504,
                    "duration": 0.13514794999997548
                },
                {
                    "name": "C#5",
                    "midi": 73,
                    "time": 349.2507549999905,
                    "velocity": 0.25196850393700787,
                    "duration": 0.13514794999997548
                },
                {
                    "name": "A4",
                    "midi": 69,
                    "time": 349.39301599999044,
                    "velocity": 0.2125984251968504,
                    "duration": 0.13514794999997548
                },
                {
                    "name": "F4",
                    "midi": 65,
                    "time": 349.39301599999044,
                    "velocity": 0.1732283464566929,
                    "duration": 0.13514794999997548
                },
                {
                    "name": "D5",
                    "midi": 74,
                    "time": 349.39301599999044,
                    "velocity": 0.25196850393700787,
                    "duration": 0.13514794999997548
                },
                {
                    "name": "A4",
                    "midi": 69,
                    "time": 349.5352769999904,
                    "velocity": 0.2125984251968504,
                    "duration": 0.13514794999997548
                },
                {
                    "name": "F4",
                    "midi": 65,
                    "time": 349.5352769999904,
                    "velocity": 0.1732283464566929,
                    "duration": 0.13514794999997548
                },
                {
                    "name": "D5",
                    "midi": 74,
                    "time": 349.5352769999904,
                    "velocity": 0.25196850393700787,
                    "duration": 0.13514794999997548
                },
                {
                    "name": "A4",
                    "midi": 69,
                    "time": 349.67753799999036,
                    "velocity": 0.2125984251968504,
                    "duration": 0.13514794999997548
                },
                {
                    "name": "F4",
                    "midi": 65,
                    "time": 349.67753799999036,
                    "velocity": 0.1732283464566929,
                    "duration": 0.13514794999997548
                },
                {
                    "name": "D5",
                    "midi": 74,
                    "time": 349.67753799999036,
                    "velocity": 0.25196850393700787,
                    "duration": 0.13514794999997548
                },
                {
                    "name": "F4",
                    "midi": 65,
                    "time": 349.8197989999903,
                    "velocity": 0.1732283464566929,
                    "duration": 0.13514794999997548
                },
                {
                    "name": "D5",
                    "midi": 74,
                    "time": 349.8197989999903,
                    "velocity": 0.25196850393700787,
                    "duration": 0.13514794999997548
                },
                {
                    "name": "A4",
                    "midi": 69,
                    "time": 349.8197989999903,
                    "velocity": 0.2125984251968504,
                    "duration": 0.13514794999997548
                },
                {
                    "name": "D5",
                    "midi": 74,
                    "time": 349.9620599999903,
                    "velocity": 0.25196850393700787,
                    "duration": 0.13514794999997548
                },
                {
                    "name": "A4",
                    "midi": 69,
                    "time": 349.9620599999903,
                    "velocity": 0.2125984251968504,
                    "duration": 0.13514794999997548
                },
                {
                    "name": "F4",
                    "midi": 65,
                    "time": 349.9620599999903,
                    "velocity": 0.1732283464566929,
                    "duration": 0.13514794999997548
                },
                {
                    "name": "D5",
                    "midi": 74,
                    "time": 350.10432099999025,
                    "velocity": 0.25196850393700787,
                    "duration": 0.13514794999997548
                },
                {
                    "name": "A4",
                    "midi": 69,
                    "time": 350.10432099999025,
                    "velocity": 0.2125984251968504,
                    "duration": 0.13514794999997548
                },
                {
                    "name": "F4",
                    "midi": 65,
                    "time": 350.10432099999025,
                    "velocity": 0.1732283464566929,
                    "duration": 0.13514794999997548
                },
                {
                    "name": "C#5",
                    "midi": 73,
                    "time": 350.2465819999902,
                    "velocity": 0.25984251968503935,
                    "duration": 0.13514794999997548
                },
                {
                    "name": "A4",
                    "midi": 69,
                    "time": 350.2465819999902,
                    "velocity": 0.2125984251968504,
                    "duration": 0.13514794999997548
                },
                {
                    "name": "F4",
                    "midi": 65,
                    "time": 350.2465819999902,
                    "velocity": 0.1732283464566929,
                    "duration": 0.13514794999997548
                },
                {
                    "name": "C#5",
                    "midi": 73,
                    "time": 350.3888429999902,
                    "velocity": 0.2677165354330709,
                    "duration": 0.13514794999997548
                },
                {
                    "name": "A4",
                    "midi": 69,
                    "time": 350.3888429999902,
                    "velocity": 0.2204724409448819,
                    "duration": 0.13514794999997548
                },
                {
                    "name": "F4",
                    "midi": 65,
                    "time": 350.3888429999902,
                    "velocity": 0.18110236220472442,
                    "duration": 0.13514794999997548
                },
                {
                    "name": "F4",
                    "midi": 65,
                    "time": 350.53110399999014,
                    "velocity": 0.2125984251968504,
                    "duration": 0.13514794999997548
                },
                {
                    "name": "A4",
                    "midi": 69,
                    "time": 350.53110399999014,
                    "velocity": 0.25196850393700787,
                    "duration": 0.13514794999997548
                },
                {
                    "name": "C5",
                    "midi": 72,
                    "time": 350.53110399999014,
                    "velocity": 0.30708661417322836,
                    "duration": 0.13514794999997548
                },
                {
                    "name": "F4",
                    "midi": 65,
                    "time": 350.6733649999901,
                    "velocity": 0.2125984251968504,
                    "duration": 0.13514794999997548
                },
                {
                    "name": "A4",
                    "midi": 69,
                    "time": 350.6733649999901,
                    "velocity": 0.25196850393700787,
                    "duration": 0.13514794999997548
                },
                {
                    "name": "C5",
                    "midi": 72,
                    "time": 350.6733649999901,
                    "velocity": 0.30708661417322836,
                    "duration": 0.13514794999997548
                },
                {
                    "name": "F4",
                    "midi": 65,
                    "time": 350.81562599999006,
                    "velocity": 0.2047244094488189,
                    "duration": 0.13514794999997548
                },
                {
                    "name": "A4",
                    "midi": 69,
                    "time": 350.81562599999006,
                    "velocity": 0.2440944881889764,
                    "duration": 0.13514794999997548
                },
                {
                    "name": "C5",
                    "midi": 72,
                    "time": 350.81562599999006,
                    "velocity": 0.29133858267716534,
                    "duration": 0.13514794999997548
                },
                {
                    "name": "F4",
                    "midi": 65,
                    "time": 350.95788699999,
                    "velocity": 0.2047244094488189,
                    "duration": 0.13514794999997548
                },
                {
                    "name": "A4",
                    "midi": 69,
                    "time": 350.95788699999,
                    "velocity": 0.2440944881889764,
                    "duration": 0.13514794999997548
                },
                {
                    "name": "C5",
                    "midi": 72,
                    "time": 350.95788699999,
                    "velocity": 0.29133858267716534,
                    "duration": 0.13514794999997548
                },
                {
                    "name": "F4",
                    "midi": 65,
                    "time": 351.10014799999,
                    "velocity": 0.1889763779527559,
                    "duration": 0.13514794999997548
                },
                {
                    "name": "A4",
                    "midi": 69,
                    "time": 351.10014799999,
                    "velocity": 0.2283464566929134,
                    "duration": 0.13514794999997548
                },
                {
                    "name": "C5",
                    "midi": 72,
                    "time": 351.10014799999,
                    "velocity": 0.2755905511811024,
                    "duration": 0.13514794999997548
                },
                {
                    "name": "F4",
                    "midi": 65,
                    "time": 351.24240899998995,
                    "velocity": 0.1889763779527559,
                    "duration": 0.13514794999997548
                },
                {
                    "name": "A4",
                    "midi": 69,
                    "time": 351.24240899998995,
                    "velocity": 0.2283464566929134,
                    "duration": 0.13514794999997548
                },
                {
                    "name": "C5",
                    "midi": 72,
                    "time": 351.24240899998995,
                    "velocity": 0.2755905511811024,
                    "duration": 0.13514794999997548
                },
                {
                    "name": "F4",
                    "midi": 65,
                    "time": 351.3846699999899,
                    "velocity": 0.18110236220472442,
                    "duration": 0.13514794999997548
                },
                {
                    "name": "A4",
                    "midi": 69,
                    "time": 351.3846699999899,
                    "velocity": 0.2204724409448819,
                    "duration": 0.13514794999997548
                },
                {
                    "name": "C#5",
                    "midi": 73,
                    "time": 351.3846699999899,
                    "velocity": 0.2677165354330709,
                    "duration": 0.13514794999997548
                },
                {
                    "name": "F4",
                    "midi": 65,
                    "time": 351.5269309999899,
                    "velocity": 0.18110236220472442,
                    "duration": 0.13514794999997548
                },
                {
                    "name": "A4",
                    "midi": 69,
                    "time": 351.5269309999899,
                    "velocity": 0.2204724409448819,
                    "duration": 0.13514794999997548
                },
                {
                    "name": "C#5",
                    "midi": 73,
                    "time": 351.5269309999899,
                    "velocity": 0.2677165354330709,
                    "duration": 0.13514794999997548
                },
                {
                    "name": "F4",
                    "midi": 65,
                    "time": 351.66919199998983,
                    "velocity": 0.25196850393700787,
                    "duration": 0.13514794999997548
                },
                {
                    "name": "A4",
                    "midi": 69,
                    "time": 351.66919199998983,
                    "velocity": 0.2992125984251969,
                    "duration": 0.13514794999997548
                },
                {
                    "name": "D5",
                    "midi": 74,
                    "time": 351.66919199998983,
                    "velocity": 0.2992125984251969,
                    "duration": 0.13514794999997548
                },
                {
                    "name": "F4",
                    "midi": 65,
                    "time": 351.8114529999898,
                    "velocity": 0.25196850393700787,
                    "duration": 0.13514794999997548
                },
                {
                    "name": "A4",
                    "midi": 69,
                    "time": 351.8114529999898,
                    "velocity": 0.2992125984251969,
                    "duration": 0.13514794999997548
                },
                {
                    "name": "D5",
                    "midi": 74,
                    "time": 351.8114529999898,
                    "velocity": 0.2992125984251969,
                    "duration": 0.13514794999997548
                },
                {
                    "name": "F5",
                    "midi": 77,
                    "time": 351.95371399998976,
                    "velocity": 0.2992125984251969,
                    "duration": 0.13514794999997548
                },
                {
                    "name": "F4",
                    "midi": 65,
                    "time": 351.95371399998976,
                    "velocity": 0.25196850393700787,
                    "duration": 0.13514794999997548
                },
                {
                    "name": "A4",
                    "midi": 69,
                    "time": 351.95371399998976,
                    "velocity": 0.2992125984251969,
                    "duration": 0.13514794999997548
                },
                {
                    "name": "F5",
                    "midi": 77,
                    "time": 352.0959749999897,
                    "velocity": 0.2992125984251969,
                    "duration": 0.13514794999997548
                },
                {
                    "name": "F4",
                    "midi": 65,
                    "time": 352.0959749999897,
                    "velocity": 0.25196850393700787,
                    "duration": 0.13514794999997548
                },
                {
                    "name": "A4",
                    "midi": 69,
                    "time": 352.0959749999897,
                    "velocity": 0.2992125984251969,
                    "duration": 0.13514794999997548
                },
                {
                    "name": "A5",
                    "midi": 81,
                    "time": 352.2382359999897,
                    "velocity": 0.2992125984251969,
                    "duration": 0.13514794999997548
                },
                {
                    "name": "A4",
                    "midi": 69,
                    "time": 352.2382359999897,
                    "velocity": 0.25196850393700787,
                    "duration": 0.13514794999997548
                },
                {
                    "name": "A5",
                    "midi": 81,
                    "time": 352.38049699998965,
                    "velocity": 0.2992125984251969,
                    "duration": 0.13514794999997548
                },
                {
                    "name": "A4",
                    "midi": 69,
                    "time": 352.38049699998965,
                    "velocity": 0.25196850393700787,
                    "duration": 0.13514794999997548
                },
                {
                    "name": "A#4",
                    "midi": 70,
                    "time": 352.5227579999896,
                    "velocity": 0.25196850393700787,
                    "duration": 0.13514794999997548
                },
                {
                    "name": "E5",
                    "midi": 76,
                    "time": 352.5227579999896,
                    "velocity": 0.2992125984251969,
                    "duration": 0.13514794999997548
                },
                {
                    "name": "A#5",
                    "midi": 82,
                    "time": 352.5227579999896,
                    "velocity": 0.2992125984251969,
                    "duration": 0.13514794999997548
                },
                {
                    "name": "A#4",
                    "midi": 70,
                    "time": 352.66501899998957,
                    "velocity": 0.25196850393700787,
                    "duration": 0.13514794999997548
                },
                {
                    "name": "E5",
                    "midi": 76,
                    "time": 352.66501899998957,
                    "velocity": 0.2992125984251969,
                    "duration": 0.13514794999997548
                },
                {
                    "name": "A#5",
                    "midi": 82,
                    "time": 352.66501899998957,
                    "velocity": 0.2992125984251969,
                    "duration": 0.13514794999997548
                },
                {
                    "name": "A4",
                    "midi": 69,
                    "time": 352.80727999998953,
                    "velocity": 0.25196850393700787,
                    "duration": 0.14226100000001907
                },
                {
                    "name": "F5",
                    "midi": 77,
                    "time": 352.80727999998953,
                    "velocity": 0.25196850393700787,
                    "duration": 0.14226100000001907
                },
                {
                    "name": "A5",
                    "midi": 81,
                    "time": 352.80727999998953,
                    "velocity": 0.2992125984251969,
                    "duration": 0.14226100000001907
                },
                {
                    "name": "A4",
                    "midi": 69,
                    "time": 352.94954099998955,
                    "velocity": 0.2125984251968504,
                    "duration": 0.13514794999997548
                },
                {
                    "name": "F4",
                    "midi": 65,
                    "time": 352.94954099998955,
                    "velocity": 0.18110236220472442,
                    "duration": 0.13514794999997548
                },
                {
                    "name": "D4",
                    "midi": 62,
                    "time": 352.94954099998955,
                    "velocity": 0.14960629921259844,
                    "duration": 0.13514794999997548
                },
                {
                    "name": "A4",
                    "midi": 69,
                    "time": 353.0918019999895,
                    "velocity": 0.2125984251968504,
                    "duration": 0.13514794999997548
                },
                {
                    "name": "F4",
                    "midi": 65,
                    "time": 353.0918019999895,
                    "velocity": 0.18110236220472442,
                    "duration": 0.13514794999997548
                },
                {
                    "name": "D4",
                    "midi": 62,
                    "time": 353.0918019999895,
                    "velocity": 0.14960629921259844,
                    "duration": 0.13514794999997548
                },
                {
                    "name": "A4",
                    "midi": 69,
                    "time": 353.2340629999895,
                    "velocity": 0.2125984251968504,
                    "duration": 0.13514794999997548
                },
                {
                    "name": "F4",
                    "midi": 65,
                    "time": 353.2340629999895,
                    "velocity": 0.18110236220472442,
                    "duration": 0.13514794999997548
                },
                {
                    "name": "D4",
                    "midi": 62,
                    "time": 353.2340629999895,
                    "velocity": 0.14960629921259844,
                    "duration": 0.13514794999997548
                },
                {
                    "name": "A4",
                    "midi": 69,
                    "time": 353.37632399998944,
                    "velocity": 0.2125984251968504,
                    "duration": 0.13514794999997548
                },
                {
                    "name": "F4",
                    "midi": 65,
                    "time": 353.37632399998944,
                    "velocity": 0.18110236220472442,
                    "duration": 0.13514794999997548
                },
                {
                    "name": "D4",
                    "midi": 62,
                    "time": 353.37632399998944,
                    "velocity": 0.14960629921259844,
                    "duration": 0.13514794999997548
                },
                {
                    "name": "A4",
                    "midi": 69,
                    "time": 353.5185849999894,
                    "velocity": 0.2125984251968504,
                    "duration": 0.13514794999997548
                },
                {
                    "name": "F4",
                    "midi": 65,
                    "time": 353.5185849999894,
                    "velocity": 0.18110236220472442,
                    "duration": 0.13514794999997548
                },
                {
                    "name": "D4",
                    "midi": 62,
                    "time": 353.5185849999894,
                    "velocity": 0.14960629921259844,
                    "duration": 0.13514794999997548
                },
                {
                    "name": "A4",
                    "midi": 69,
                    "time": 353.66084599998936,
                    "velocity": 0.2125984251968504,
                    "duration": 0.13514794999997548
                },
                {
                    "name": "F4",
                    "midi": 65,
                    "time": 353.66084599998936,
                    "velocity": 0.18110236220472442,
                    "duration": 0.13514794999997548
                },
                {
                    "name": "D4",
                    "midi": 62,
                    "time": 353.66084599998936,
                    "velocity": 0.14960629921259844,
                    "duration": 0.13514794999997548
                },
                {
                    "name": "A4",
                    "midi": 69,
                    "time": 353.8031069999893,
                    "velocity": 0.2125984251968504,
                    "duration": 0.13514794999997548
                },
                {
                    "name": "F4",
                    "midi": 65,
                    "time": 353.8031069999893,
                    "velocity": 0.18110236220472442,
                    "duration": 0.13514794999997548
                },
                {
                    "name": "D4",
                    "midi": 62,
                    "time": 353.8031069999893,
                    "velocity": 0.14960629921259844,
                    "duration": 0.13514794999997548
                },
                {
                    "name": "D4",
                    "midi": 62,
                    "time": 353.9453679999893,
                    "velocity": 0.14960629921259844,
                    "duration": 0.13514794999997548
                },
                {
                    "name": "F4",
                    "midi": 65,
                    "time": 353.9453679999893,
                    "velocity": 0.18110236220472442,
                    "duration": 0.13514794999997548
                },
                {
                    "name": "A4",
                    "midi": 69,
                    "time": 353.9453679999893,
                    "velocity": 0.2125984251968504,
                    "duration": 0.13514794999997548
                },
                {
                    "name": "A4",
                    "midi": 69,
                    "time": 354.08762899998925,
                    "velocity": 0.2125984251968504,
                    "duration": 0.13514794999997548
                },
                {
                    "name": "F4",
                    "midi": 65,
                    "time": 354.08762899998925,
                    "velocity": 0.18110236220472442,
                    "duration": 0.13514794999997548
                },
                {
                    "name": "D4",
                    "midi": 62,
                    "time": 354.08762899998925,
                    "velocity": 0.14960629921259844,
                    "duration": 0.13514794999997548
                },
                {
                    "name": "A4",
                    "midi": 69,
                    "time": 354.2298899999892,
                    "velocity": 0.2125984251968504,
                    "duration": 0.13514794999997548
                },
                {
                    "name": "F4",
                    "midi": 65,
                    "time": 354.2298899999892,
                    "velocity": 0.18110236220472442,
                    "duration": 0.13514794999997548
                },
                {
                    "name": "D4",
                    "midi": 62,
                    "time": 354.2298899999892,
                    "velocity": 0.14960629921259844,
                    "duration": 0.13514794999997548
                },
                {
                    "name": "A4",
                    "midi": 69,
                    "time": 354.3721509999892,
                    "velocity": 0.2125984251968504,
                    "duration": 0.13514794999997548
                },
                {
                    "name": "F4",
                    "midi": 65,
                    "time": 354.3721509999892,
                    "velocity": 0.18110236220472442,
                    "duration": 0.13514794999997548
                },
                {
                    "name": "D4",
                    "midi": 62,
                    "time": 354.3721509999892,
                    "velocity": 0.14960629921259844,
                    "duration": 0.13514794999997548
                },
                {
                    "name": "A4",
                    "midi": 69,
                    "time": 354.51441199998914,
                    "velocity": 0.2125984251968504,
                    "duration": 0.13514794999997548
                },
                {
                    "name": "F4",
                    "midi": 65,
                    "time": 354.51441199998914,
                    "velocity": 0.18110236220472442,
                    "duration": 0.13514794999997548
                },
                {
                    "name": "D4",
                    "midi": 62,
                    "time": 354.51441199998914,
                    "velocity": 0.14960629921259844,
                    "duration": 0.13514794999997548
                },
                {
                    "name": "A4",
                    "midi": 69,
                    "time": 354.6566729999891,
                    "velocity": 0.2125984251968504,
                    "duration": 0.13514794999997548
                },
                {
                    "name": "F4",
                    "midi": 65,
                    "time": 354.6566729999891,
                    "velocity": 0.18110236220472442,
                    "duration": 0.13514794999997548
                },
                {
                    "name": "D4",
                    "midi": 62,
                    "time": 354.6566729999891,
                    "velocity": 0.14960629921259844,
                    "duration": 0.13514794999997548
                },
                {
                    "name": "A4",
                    "midi": 69,
                    "time": 354.79893399998906,
                    "velocity": 0.2125984251968504,
                    "duration": 0.13514794999997548
                },
                {
                    "name": "F4",
                    "midi": 65,
                    "time": 354.79893399998906,
                    "velocity": 0.18110236220472442,
                    "duration": 0.13514794999997548
                },
                {
                    "name": "D4",
                    "midi": 62,
                    "time": 354.79893399998906,
                    "velocity": 0.14960629921259844,
                    "duration": 0.13514794999997548
                },
                {
                    "name": "A4",
                    "midi": 69,
                    "time": 354.941194999989,
                    "velocity": 0.2125984251968504,
                    "duration": 0.13514794999997548
                },
                {
                    "name": "F4",
                    "midi": 65,
                    "time": 354.941194999989,
                    "velocity": 0.18110236220472442,
                    "duration": 0.13514794999997548
                },
                {
                    "name": "D4",
                    "midi": 62,
                    "time": 354.941194999989,
                    "velocity": 0.14960629921259844,
                    "duration": 0.13514794999997548
                },
                {
                    "name": "A4",
                    "midi": 69,
                    "time": 355.083455999989,
                    "velocity": 0.2125984251968504,
                    "duration": 0.13514794999997548
                },
                {
                    "name": "F4",
                    "midi": 65,
                    "time": 355.083455999989,
                    "velocity": 0.18110236220472442,
                    "duration": 0.13514794999997548
                },
                {
                    "name": "D4",
                    "midi": 62,
                    "time": 355.083455999989,
                    "velocity": 0.14960629921259844,
                    "duration": 0.13514794999997548
                },
                {
                    "name": "A4",
                    "midi": 69,
                    "time": 355.22571699998895,
                    "velocity": 0.2125984251968504,
                    "duration": 0.13514794999997548
                },
                {
                    "name": "F4",
                    "midi": 65,
                    "time": 355.22571699998895,
                    "velocity": 0.18110236220472442,
                    "duration": 0.13514794999997548
                },
                {
                    "name": "D4",
                    "midi": 62,
                    "time": 355.22571699998895,
                    "velocity": 0.14960629921259844,
                    "duration": 0.13514794999997548
                },
                {
                    "name": "A4",
                    "midi": 69,
                    "time": 355.3679779999889,
                    "velocity": 0.2125984251968504,
                    "duration": 0.13514794999997548
                },
                {
                    "name": "F4",
                    "midi": 65,
                    "time": 355.3679779999889,
                    "velocity": 0.18110236220472442,
                    "duration": 0.13514794999997548
                },
                {
                    "name": "D4",
                    "midi": 62,
                    "time": 355.3679779999889,
                    "velocity": 0.14960629921259844,
                    "duration": 0.13514794999997548
                },
                {
                    "name": "A4",
                    "midi": 69,
                    "time": 355.51023899998887,
                    "velocity": 0.2125984251968504,
                    "duration": 0.13514794999997548
                },
                {
                    "name": "F4",
                    "midi": 65,
                    "time": 355.51023899998887,
                    "velocity": 0.18110236220472442,
                    "duration": 0.13514794999997548
                },
                {
                    "name": "D4",
                    "midi": 62,
                    "time": 355.51023899998887,
                    "velocity": 0.14960629921259844,
                    "duration": 0.13514794999997548
                },
                {
                    "name": "F5",
                    "midi": 77,
                    "time": 355.9370219999889,
                    "velocity": 0.3937007874015748,
                    "duration": 0.2845219999999813
                },
                {
                    "name": "F5",
                    "midi": 77,
                    "time": 356.22154399998885,
                    "velocity": 0.4251968503937008,
                    "duration": 0.2845219999999813
                },
                {
                    "name": "E5",
                    "midi": 76,
                    "time": 356.50606599998883,
                    "velocity": 0.4094488188976378,
                    "duration": 0.2845219999999813
                },
                {
                    "name": "F5",
                    "midi": 77,
                    "time": 356.7905879999888,
                    "velocity": 0.4251968503937008,
                    "duration": 0.2845219999999813
                },
                {
                    "name": "G5",
                    "midi": 79,
                    "time": 357.0751099999888,
                    "velocity": 0.4015748031496063,
                    "duration": 0.2845219999999813
                },
                {
                    "name": "A5",
                    "midi": 81,
                    "time": 357.3596319999888,
                    "velocity": 0.4251968503937008,
                    "duration": 0.8535660000000007
                },
                {
                    "name": "G5",
                    "midi": 79,
                    "time": 358.2131979999888,
                    "velocity": 0.4251968503937008,
                    "duration": 0.14226100000001907
                },
                {
                    "name": "F5",
                    "midi": 77,
                    "time": 358.3554589999888,
                    "velocity": 0.4251968503937008,
                    "duration": 0.14226100000001907
                },
                {
                    "name": "G5",
                    "midi": 79,
                    "time": 358.4977199999888,
                    "velocity": 0.4251968503937008,
                    "duration": 0.2845219999999813
                },
                {
                    "name": "G5",
                    "midi": 79,
                    "time": 358.7822419999888,
                    "velocity": 0.4251968503937008,
                    "duration": 0.2845219999999813
                },
                {
                    "name": "G5",
                    "midi": 79,
                    "time": 359.0667639999888,
                    "velocity": 0.4251968503937008,
                    "duration": 0.2845219999999813
                },
                {
                    "name": "F5",
                    "midi": 77,
                    "time": 359.35128599998876,
                    "velocity": 0.4251968503937008,
                    "duration": 0.14226100000001907
                },
                {
                    "name": "E5",
                    "midi": 76,
                    "time": 359.4935469999888,
                    "velocity": 0.4251968503937008,
                    "duration": 0.14226100000001907
                },
                {
                    "name": "F5",
                    "midi": 77,
                    "time": 359.6358079999888,
                    "velocity": 0.4251968503937008,
                    "duration": 0.2845219999999813
                },
                {
                    "name": "A4",
                    "midi": 69,
                    "time": 360.20485199998876,
                    "velocity": 0.2125984251968504,
                    "duration": 0.13514794999997548
                },
                {
                    "name": "F4",
                    "midi": 65,
                    "time": 360.20485199998876,
                    "velocity": 0.18110236220472442,
                    "duration": 0.13514794999997548
                },
                {
                    "name": "D4",
                    "midi": 62,
                    "time": 360.20485199998876,
                    "velocity": 0.14960629921259844,
                    "duration": 0.13514794999997548
                },
                {
                    "name": "A4",
                    "midi": 69,
                    "time": 360.3471129999887,
                    "velocity": 0.2125984251968504,
                    "duration": 0.13514794999997548
                },
                {
                    "name": "F4",
                    "midi": 65,
                    "time": 360.3471129999887,
                    "velocity": 0.18110236220472442,
                    "duration": 0.13514794999997548
                },
                {
                    "name": "D4",
                    "midi": 62,
                    "time": 360.3471129999887,
                    "velocity": 0.14960629921259844,
                    "duration": 0.13514794999997548
                },
                {
                    "name": "A4",
                    "midi": 69,
                    "time": 360.4893739999887,
                    "velocity": 0.2125984251968504,
                    "duration": 0.13514794999997548
                },
                {
                    "name": "F4",
                    "midi": 65,
                    "time": 360.4893739999887,
                    "velocity": 0.18110236220472442,
                    "duration": 0.13514794999997548
                },
                {
                    "name": "D4",
                    "midi": 62,
                    "time": 360.4893739999887,
                    "velocity": 0.14960629921259844,
                    "duration": 0.13514794999997548
                },
                {
                    "name": "A4",
                    "midi": 69,
                    "time": 360.63163499998865,
                    "velocity": 0.2125984251968504,
                    "duration": 0.13514794999997548
                },
                {
                    "name": "F4",
                    "midi": 65,
                    "time": 360.63163499998865,
                    "velocity": 0.18110236220472442,
                    "duration": 0.13514794999997548
                },
                {
                    "name": "D4",
                    "midi": 62,
                    "time": 360.63163499998865,
                    "velocity": 0.14960629921259844,
                    "duration": 0.13514794999997548
                },
                {
                    "name": "D4",
                    "midi": 62,
                    "time": 360.7738959999886,
                    "velocity": 0.14960629921259844,
                    "duration": 0.13514794999997548
                },
                {
                    "name": "F4",
                    "midi": 65,
                    "time": 360.7738959999886,
                    "velocity": 0.18110236220472442,
                    "duration": 0.13514794999997548
                },
                {
                    "name": "A4",
                    "midi": 69,
                    "time": 360.7738959999886,
                    "velocity": 0.2125984251968504,
                    "duration": 0.13514794999997548
                },
                {
                    "name": "A4",
                    "midi": 69,
                    "time": 360.9161569999886,
                    "velocity": 0.2125984251968504,
                    "duration": 0.13514794999997548
                },
                {
                    "name": "F4",
                    "midi": 65,
                    "time": 360.9161569999886,
                    "velocity": 0.18110236220472442,
                    "duration": 0.13514794999997548
                },
                {
                    "name": "D4",
                    "midi": 62,
                    "time": 360.9161569999886,
                    "velocity": 0.14960629921259844,
                    "duration": 0.13514794999997548
                },
                {
                    "name": "A4",
                    "midi": 69,
                    "time": 361.05841799998854,
                    "velocity": 0.2125984251968504,
                    "duration": 0.13514794999997548
                },
                {
                    "name": "F4",
                    "midi": 65,
                    "time": 361.05841799998854,
                    "velocity": 0.18110236220472442,
                    "duration": 0.13514794999997548
                },
                {
                    "name": "D4",
                    "midi": 62,
                    "time": 361.05841799998854,
                    "velocity": 0.14960629921259844,
                    "duration": 0.13514794999997548
                },
                {
                    "name": "A4",
                    "midi": 69,
                    "time": 361.2006789999885,
                    "velocity": 0.2125984251968504,
                    "duration": 0.13514794999997548
                },
                {
                    "name": "F4",
                    "midi": 65,
                    "time": 361.2006789999885,
                    "velocity": 0.18110236220472442,
                    "duration": 0.13514794999997548
                },
                {
                    "name": "D4",
                    "midi": 62,
                    "time": 361.2006789999885,
                    "velocity": 0.14960629921259844,
                    "duration": 0.13514794999997548
                },
                {
                    "name": "A4",
                    "midi": 69,
                    "time": 361.34293999998846,
                    "velocity": 0.2125984251968504,
                    "duration": 0.13514794999997548
                },
                {
                    "name": "F4",
                    "midi": 65,
                    "time": 361.34293999998846,
                    "velocity": 0.18110236220472442,
                    "duration": 0.13514794999997548
                },
                {
                    "name": "D4",
                    "midi": 62,
                    "time": 361.34293999998846,
                    "velocity": 0.14960629921259844,
                    "duration": 0.13514794999997548
                },
                {
                    "name": "A4",
                    "midi": 69,
                    "time": 361.4852009999884,
                    "velocity": 0.2125984251968504,
                    "duration": 0.13514794999997548
                },
                {
                    "name": "F4",
                    "midi": 65,
                    "time": 361.4852009999884,
                    "velocity": 0.18110236220472442,
                    "duration": 0.13514794999997548
                },
                {
                    "name": "D4",
                    "midi": 62,
                    "time": 361.4852009999884,
                    "velocity": 0.14960629921259844,
                    "duration": 0.13514794999997548
                },
                {
                    "name": "A4",
                    "midi": 69,
                    "time": 361.6274619999884,
                    "velocity": 0.2125984251968504,
                    "duration": 0.13514794999997548
                },
                {
                    "name": "F4",
                    "midi": 65,
                    "time": 361.6274619999884,
                    "velocity": 0.18110236220472442,
                    "duration": 0.13514794999997548
                },
                {
                    "name": "D4",
                    "midi": 62,
                    "time": 361.6274619999884,
                    "velocity": 0.14960629921259844,
                    "duration": 0.13514794999997548
                },
                {
                    "name": "A4",
                    "midi": 69,
                    "time": 361.76972299998835,
                    "velocity": 0.2125984251968504,
                    "duration": 0.13514794999997548
                },
                {
                    "name": "F4",
                    "midi": 65,
                    "time": 361.76972299998835,
                    "velocity": 0.18110236220472442,
                    "duration": 0.13514794999997548
                },
                {
                    "name": "D4",
                    "midi": 62,
                    "time": 361.76972299998835,
                    "velocity": 0.14960629921259844,
                    "duration": 0.13514794999997548
                },
                {
                    "name": "A#4",
                    "midi": 70,
                    "time": 361.9119839999883,
                    "velocity": 0.2125984251968504,
                    "duration": 0.13514794999997548
                },
                {
                    "name": "F4",
                    "midi": 65,
                    "time": 361.9119839999883,
                    "velocity": 0.18110236220472442,
                    "duration": 0.13514794999997548
                },
                {
                    "name": "D4",
                    "midi": 62,
                    "time": 361.9119839999883,
                    "velocity": 0.14960629921259844,
                    "duration": 0.13514794999997548
                },
                {
                    "name": "A#4",
                    "midi": 70,
                    "time": 362.05424499998827,
                    "velocity": 0.2125984251968504,
                    "duration": 0.13514794999997548
                },
                {
                    "name": "F4",
                    "midi": 65,
                    "time": 362.05424499998827,
                    "velocity": 0.18110236220472442,
                    "duration": 0.13514794999997548
                },
                {
                    "name": "D4",
                    "midi": 62,
                    "time": 362.05424499998827,
                    "velocity": 0.14960629921259844,
                    "duration": 0.13514794999997548
                },
                {
                    "name": "A#4",
                    "midi": 70,
                    "time": 362.19650599998823,
                    "velocity": 0.2125984251968504,
                    "duration": 0.13514794999997548
                },
                {
                    "name": "F4",
                    "midi": 65,
                    "time": 362.19650599998823,
                    "velocity": 0.18110236220472442,
                    "duration": 0.13514794999997548
                },
                {
                    "name": "D4",
                    "midi": 62,
                    "time": 362.19650599998823,
                    "velocity": 0.14960629921259844,
                    "duration": 0.13514794999997548
                },
                {
                    "name": "A#4",
                    "midi": 70,
                    "time": 362.3387669999882,
                    "velocity": 0.2125984251968504,
                    "duration": 0.13514794999997548
                },
                {
                    "name": "F4",
                    "midi": 65,
                    "time": 362.3387669999882,
                    "velocity": 0.18110236220472442,
                    "duration": 0.13514794999997548
                },
                {
                    "name": "D4",
                    "midi": 62,
                    "time": 362.3387669999882,
                    "velocity": 0.14960629921259844,
                    "duration": 0.13514794999997548
                },
                {
                    "name": "A#5",
                    "midi": 82,
                    "time": 362.7655499999882,
                    "velocity": 0.4094488188976378,
                    "duration": 0.2845219999999813
                },
                {
                    "name": "A#5",
                    "midi": 82,
                    "time": 363.0500719999882,
                    "velocity": 0.4409448818897638,
                    "duration": 0.2845219999999813
                },
                {
                    "name": "A5",
                    "midi": 81,
                    "time": 363.33459399998816,
                    "velocity": 0.4251968503937008,
                    "duration": 0.2845219999999813
                },
                {
                    "name": "A#5",
                    "midi": 82,
                    "time": 363.61911599998814,
                    "velocity": 0.4409448818897638,
                    "duration": 0.2845219999999813
                },
                {
                    "name": "C6",
                    "midi": 84,
                    "time": 363.9036379999881,
                    "velocity": 0.41732283464566927,
                    "duration": 0.2845219999999813
                },
                {
                    "name": "D6",
                    "midi": 86,
                    "time": 364.1881599999881,
                    "velocity": 0.47244094488188976,
                    "duration": 0.8535660000000007
                },
                {
                    "name": "C6",
                    "midi": 84,
                    "time": 365.0417259999881,
                    "velocity": 0.4409448818897638,
                    "duration": 0.14226100000001907
                },
                {
                    "name": "A#5",
                    "midi": 82,
                    "time": 365.1839869999881,
                    "velocity": 0.4409448818897638,
                    "duration": 0.14226100000001907
                },
                {
                    "name": "C6",
                    "midi": 84,
                    "time": 365.32624799998814,
                    "velocity": 0.4409448818897638,
                    "duration": 0.2845219999999813
                },
                {
                    "name": "C6",
                    "midi": 84,
                    "time": 365.6107699999881,
                    "velocity": 0.4409448818897638,
                    "duration": 0.2845219999999813
                },
                {
                    "name": "C6",
                    "midi": 84,
                    "time": 365.8952919999881,
                    "velocity": 0.4409448818897638,
                    "duration": 0.2845219999999813
                },
                {
                    "name": "A#5",
                    "midi": 82,
                    "time": 366.1798139999881,
                    "velocity": 0.4409448818897638,
                    "duration": 0.14226100000001907
                },
                {
                    "name": "A5",
                    "midi": 81,
                    "time": 366.3220749999881,
                    "velocity": 0.4409448818897638,
                    "duration": 0.14226100000001907
                },
                {
                    "name": "A#5",
                    "midi": 82,
                    "time": 366.4643359999881,
                    "velocity": 0.4409448818897638,
                    "duration": 0.2845219999999813
                },
                {
                    "name": "A#4",
                    "midi": 70,
                    "time": 367.0333799999881,
                    "velocity": 0.1889763779527559,
                    "duration": 0.13514794999997548
                },
                {
                    "name": "F4",
                    "midi": 65,
                    "time": 367.0333799999881,
                    "velocity": 0.15748031496062992,
                    "duration": 0.13514794999997548
                },
                {
                    "name": "D4",
                    "midi": 62,
                    "time": 367.0333799999881,
                    "velocity": 0.13385826771653545,
                    "duration": 0.13514794999997548
                },
                {
                    "name": "A#4",
                    "midi": 70,
                    "time": 367.17564099998805,
                    "velocity": 0.1889763779527559,
                    "duration": 0.13514794999997548
                },
                {
                    "name": "F4",
                    "midi": 65,
                    "time": 367.17564099998805,
                    "velocity": 0.15748031496062992,
                    "duration": 0.13514794999997548
                },
                {
                    "name": "D4",
                    "midi": 62,
                    "time": 367.17564099998805,
                    "velocity": 0.13385826771653545,
                    "duration": 0.13514794999997548
                },
                {
                    "name": "A#4",
                    "midi": 70,
                    "time": 367.317901999988,
                    "velocity": 0.1889763779527559,
                    "duration": 0.13514794999997548
                },
                {
                    "name": "F4",
                    "midi": 65,
                    "time": 367.317901999988,
                    "velocity": 0.15748031496062992,
                    "duration": 0.13514794999997548
                },
                {
                    "name": "D4",
                    "midi": 62,
                    "time": 367.317901999988,
                    "velocity": 0.13385826771653545,
                    "duration": 0.13514794999997548
                },
                {
                    "name": "A#4",
                    "midi": 70,
                    "time": 367.460162999988,
                    "velocity": 0.1889763779527559,
                    "duration": 0.13514794999997548
                },
                {
                    "name": "F4",
                    "midi": 65,
                    "time": 367.460162999988,
                    "velocity": 0.15748031496062992,
                    "duration": 0.13514794999997548
                },
                {
                    "name": "D4",
                    "midi": 62,
                    "time": 367.460162999988,
                    "velocity": 0.13385826771653545,
                    "duration": 0.13514794999997548
                },
                {
                    "name": "D4",
                    "midi": 62,
                    "time": 367.60242399998793,
                    "velocity": 0.14960629921259844,
                    "duration": 0.13514794999997548
                },
                {
                    "name": "F4",
                    "midi": 65,
                    "time": 367.60242399998793,
                    "velocity": 0.18110236220472442,
                    "duration": 0.13514794999997548
                },
                {
                    "name": "A#4",
                    "midi": 70,
                    "time": 367.60242399998793,
                    "velocity": 0.2125984251968504,
                    "duration": 0.13514794999997548
                },
                {
                    "name": "A#4",
                    "midi": 70,
                    "time": 367.7446849999879,
                    "velocity": 0.2125984251968504,
                    "duration": 0.13514794999997548
                },
                {
                    "name": "F4",
                    "midi": 65,
                    "time": 367.7446849999879,
                    "velocity": 0.18110236220472442,
                    "duration": 0.13514794999997548
                },
                {
                    "name": "D4",
                    "midi": 62,
                    "time": 367.7446849999879,
                    "velocity": 0.14960629921259844,
                    "duration": 0.13514794999997548
                },
                {
                    "name": "A#4",
                    "midi": 70,
                    "time": 367.88694599998786,
                    "velocity": 0.2204724409448819,
                    "duration": 0.13514794999997548
                },
                {
                    "name": "F4",
                    "midi": 65,
                    "time": 367.88694599998786,
                    "velocity": 0.1889763779527559,
                    "duration": 0.13514794999997548
                },
                {
                    "name": "D4",
                    "midi": 62,
                    "time": 367.88694599998786,
                    "velocity": 0.15748031496062992,
                    "duration": 0.13514794999997548
                },
                {
                    "name": "A#4",
                    "midi": 70,
                    "time": 368.0292069999878,
                    "velocity": 0.2283464566929134,
                    "duration": 0.13514794999997548
                },
                {
                    "name": "F4",
                    "midi": 65,
                    "time": 368.0292069999878,
                    "velocity": 0.1968503937007874,
                    "duration": 0.13514794999997548
                },
                {
                    "name": "D4",
                    "midi": 62,
                    "time": 368.0292069999878,
                    "velocity": 0.16535433070866143,
                    "duration": 0.13514794999997548
                },
                {
                    "name": "A#4",
                    "midi": 70,
                    "time": 368.1714679999878,
                    "velocity": 0.23622047244094488,
                    "duration": 0.13514794999997548
                },
                {
                    "name": "F4",
                    "midi": 65,
                    "time": 368.1714679999878,
                    "velocity": 0.1968503937007874,
                    "duration": 0.13514794999997548
                },
                {
                    "name": "D4",
                    "midi": 62,
                    "time": 368.1714679999878,
                    "velocity": 0.16535433070866143,
                    "duration": 0.13514794999997548
                },
                {
                    "name": "A#4",
                    "midi": 70,
                    "time": 368.31372899998775,
                    "velocity": 0.2440944881889764,
                    "duration": 0.13514794999997548
                },
                {
                    "name": "F4",
                    "midi": 65,
                    "time": 368.31372899998775,
                    "velocity": 0.2047244094488189,
                    "duration": 0.13514794999997548
                },
                {
                    "name": "D4",
                    "midi": 62,
                    "time": 368.31372899998775,
                    "velocity": 0.1732283464566929,
                    "duration": 0.13514794999997548
                },
                {
                    "name": "A#4",
                    "midi": 70,
                    "time": 368.4559899999877,
                    "velocity": 0.25196850393700787,
                    "duration": 0.13514794999997548
                },
                {
                    "name": "F4",
                    "midi": 65,
                    "time": 368.4559899999877,
                    "velocity": 0.2125984251968504,
                    "duration": 0.13514794999997548
                },
                {
                    "name": "D4",
                    "midi": 62,
                    "time": 368.4559899999877,
                    "velocity": 0.1732283464566929,
                    "duration": 0.13514794999997548
                },
                {
                    "name": "A#4",
                    "midi": 70,
                    "time": 368.59825099998767,
                    "velocity": 0.25984251968503935,
                    "duration": 0.13514794999997548
                },
                {
                    "name": "F4",
                    "midi": 65,
                    "time": 368.59825099998767,
                    "velocity": 0.2204724409448819,
                    "duration": 0.13514794999997548
                },
                {
                    "name": "D4",
                    "midi": 62,
                    "time": 368.59825099998767,
                    "velocity": 0.18110236220472442,
                    "duration": 0.13514794999997548
                },
                {
                    "name": "A4",
                    "midi": 69,
                    "time": 368.74051199998763,
                    "velocity": 0.2677165354330709,
                    "duration": 0.13514794999997548
                },
                {
                    "name": "F4",
                    "midi": 65,
                    "time": 368.74051199998763,
                    "velocity": 0.2204724409448819,
                    "duration": 0.13514794999997548
                },
                {
                    "name": "D4",
                    "midi": 62,
                    "time": 368.74051199998763,
                    "velocity": 0.18110236220472442,
                    "duration": 0.13514794999997548
                },
                {
                    "name": "A4",
                    "midi": 69,
                    "time": 368.8827729999876,
                    "velocity": 0.2125984251968504,
                    "duration": 0.13514794999997548
                },
                {
                    "name": "F4",
                    "midi": 65,
                    "time": 368.8827729999876,
                    "velocity": 0.18110236220472442,
                    "duration": 0.13514794999997548
                },
                {
                    "name": "D4",
                    "midi": 62,
                    "time": 368.8827729999876,
                    "velocity": 0.14960629921259844,
                    "duration": 0.13514794999997548
                },
                {
                    "name": "A4",
                    "midi": 69,
                    "time": 369.02503399998756,
                    "velocity": 0.2125984251968504,
                    "duration": 0.13514794999997548
                },
                {
                    "name": "F4",
                    "midi": 65,
                    "time": 369.02503399998756,
                    "velocity": 0.18110236220472442,
                    "duration": 0.13514794999997548
                },
                {
                    "name": "D4",
                    "midi": 62,
                    "time": 369.02503399998756,
                    "velocity": 0.14960629921259844,
                    "duration": 0.13514794999997548
                },
                {
                    "name": "A4",
                    "midi": 69,
                    "time": 369.1672949999875,
                    "velocity": 0.2125984251968504,
                    "duration": 0.13514794999997548
                },
                {
                    "name": "F4",
                    "midi": 65,
                    "time": 369.1672949999875,
                    "velocity": 0.18110236220472442,
                    "duration": 0.13514794999997548
                },
                {
                    "name": "D4",
                    "midi": 62,
                    "time": 369.1672949999875,
                    "velocity": 0.14960629921259844,
                    "duration": 0.13514794999997548
                },
                {
                    "name": "F5",
                    "midi": 77,
                    "time": 369.5940779999875,
                    "velocity": 0.3937007874015748,
                    "duration": 0.2845219999999813
                },
                {
                    "name": "F5",
                    "midi": 77,
                    "time": 369.8785999999875,
                    "velocity": 0.4251968503937008,
                    "duration": 0.2845219999999813
                },
                {
                    "name": "E5",
                    "midi": 76,
                    "time": 370.1631219999875,
                    "velocity": 0.4094488188976378,
                    "duration": 0.2845219999999813
                },
                {
                    "name": "F5",
                    "midi": 77,
                    "time": 370.44764399998746,
                    "velocity": 0.4251968503937008,
                    "duration": 0.2845219999999813
                },
                {
                    "name": "G5",
                    "midi": 79,
                    "time": 370.73216599998744,
                    "velocity": 0.4015748031496063,
                    "duration": 0.2845219999999813
                },
                {
                    "name": "A5",
                    "midi": 81,
                    "time": 371.0166879999874,
                    "velocity": 0.4251968503937008,
                    "duration": 0.8535660000000007
                },
                {
                    "name": "G5",
                    "midi": 79,
                    "time": 371.8702539999874,
                    "velocity": 0.4251968503937008,
                    "duration": 0.14226100000001907
                },
                {
                    "name": "F5",
                    "midi": 77,
                    "time": 372.01251499998745,
                    "velocity": 0.41732283464566927,
                    "duration": 0.14226100000001907
                },
                {
                    "name": "G5",
                    "midi": 79,
                    "time": 372.15477599998746,
                    "velocity": 0.4251968503937008,
                    "duration": 0.2845219999999813
                },
                {
                    "name": "G5",
                    "midi": 79,
                    "time": 372.43929799998745,
                    "velocity": 0.4251968503937008,
                    "duration": 0.2845219999999813
                },
                {
                    "name": "G5",
                    "midi": 79,
                    "time": 372.7238199999874,
                    "velocity": 0.4251968503937008,
                    "duration": 0.2845219999999813
                },
                {
                    "name": "F5",
                    "midi": 77,
                    "time": 373.0083419999874,
                    "velocity": 0.4251968503937008,
                    "duration": 0.14226100000001907
                },
                {
                    "name": "E5",
                    "midi": 76,
                    "time": 373.1506029999874,
                    "velocity": 0.3937007874015748,
                    "duration": 0.14226100000001907
                },
                {
                    "name": "F5",
                    "midi": 77,
                    "time": 373.29286399998745,
                    "velocity": 0.5196850393700787,
                    "duration": 1.280349000000001
                },
                {
                    "name": "A5",
                    "midi": 81,
                    "time": 374.57321299998745,
                    "velocity": 0.3937007874015748,
                    "duration": 0.14226100000001907
                },
                {
                    "name": "G5",
                    "midi": 79,
                    "time": 374.71547399998747,
                    "velocity": 0.3937007874015748,
                    "duration": 0.14226100000001907
                },
                {
                    "name": "F5",
                    "midi": 77,
                    "time": 374.8577349999875,
                    "velocity": 0.3779527559055118,
                    "duration": 0.14226100000001907
                },
                {
                    "name": "C6",
                    "midi": 84,
                    "time": 374.9999959999875,
                    "velocity": 0.4251968503937008,
                    "duration": 0.14226100000001907
                },
                {
                    "name": "A#5",
                    "midi": 82,
                    "time": 375.1422569999875,
                    "velocity": 0.3937007874015748,
                    "duration": 0.14226100000001907
                },
                {
                    "name": "A5",
                    "midi": 81,
                    "time": 375.28451799998754,
                    "velocity": 0.3937007874015748,
                    "duration": 0.14226100000001907
                },
                {
                    "name": "D#6",
                    "midi": 87,
                    "time": 375.42677899998756,
                    "velocity": 0.4251968503937008,
                    "duration": 0.14226100000001907
                },
                {
                    "name": "D6",
                    "midi": 86,
                    "time": 375.5690399999876,
                    "velocity": 0.4251968503937008,
                    "duration": 0.14226100000001907
                },
                {
                    "name": "C6",
                    "midi": 84,
                    "time": 375.7113009999876,
                    "velocity": 0.3937007874015748,
                    "duration": 0.14226100000001907
                },
                {
                    "name": "G6",
                    "midi": 91,
                    "time": 375.8535619999876,
                    "velocity": 0.4251968503937008,
                    "duration": 0.14226100000001907
                },
                {
                    "name": "F6",
                    "midi": 89,
                    "time": 375.99582299998764,
                    "velocity": 0.4094488188976378,
                    "duration": 0.14226100000001907
                },
                {
                    "name": "D#6",
                    "midi": 87,
                    "time": 376.13808399998766,
                    "velocity": 0.4094488188976378,
                    "duration": 0.14226100000001907
                },
                {
                    "name": "D6",
                    "midi": 86,
                    "time": 376.2803449999877,
                    "velocity": 0.4015748031496063,
                    "duration": 0.14226100000001907
                },
                {
                    "name": "C6",
                    "midi": 84,
                    "time": 376.4226059999877,
                    "velocity": 0.4251968503937008,
                    "duration": 0.14226100000001907
                },
                {
                    "name": "D6",
                    "midi": 86,
                    "time": 376.5648669999877,
                    "velocity": 0.44881889763779526,
                    "duration": 0.14226100000001907
                },
                {
                    "name": "D#6",
                    "midi": 87,
                    "time": 376.70712799998773,
                    "velocity": 0.5196850393700787,
                    "duration": 1.280349000000001
                },
                {
                    "name": "C6",
                    "midi": 84,
                    "time": 377.98747699998773,
                    "velocity": 0.41732283464566927,
                    "duration": 0.14226100000001907
                },
                {
                    "name": "F#6",
                    "midi": 90,
                    "time": 378.12973799998775,
                    "velocity": 0.4566929133858268,
                    "duration": 0.14226100000001907
                },
                {
                    "name": "F6",
                    "midi": 89,
                    "time": 378.2719989999878,
                    "velocity": 0.4251968503937008,
                    "duration": 0.14226100000001907
                },
                {
                    "name": "D#6",
                    "midi": 87,
                    "time": 378.4142599999878,
                    "velocity": 0.4409448818897638,
                    "duration": 0.14226100000001907
                },
                {
                    "name": "D6",
                    "midi": 86,
                    "time": 378.5565209999878,
                    "velocity": 0.4015748031496063,
                    "duration": 0.14226100000001907
                },
                {
                    "name": "C6",
                    "midi": 84,
                    "time": 378.69878199998783,
                    "velocity": 0.4015748031496063,
                    "duration": 0.14226100000001907
                },
                {
                    "name": "D6",
                    "midi": 86,
                    "time": 378.84104299998785,
                    "velocity": 0.4015748031496063,
                    "duration": 0.14226100000001907
                },
                {
                    "name": "D#6",
                    "midi": 87,
                    "time": 378.98330399998787,
                    "velocity": 0.41732283464566927,
                    "duration": 1.280349000000001
                },
                {
                    "name": "C6",
                    "midi": 84,
                    "time": 380.26365299998787,
                    "velocity": 0.41732283464566927,
                    "duration": 0.14226100000001907
                },
                {
                    "name": "G6",
                    "midi": 91,
                    "time": 380.4059139999879,
                    "velocity": 0.4409448818897638,
                    "duration": 0.07113049999998111
                },
                {
                    "name": "F6",
                    "midi": 89,
                    "time": 380.54817499998785,
                    "velocity": 0.41732283464566927,
                    "duration": 0.07113049999998111
                },
                {
                    "name": "D#6",
                    "midi": 87,
                    "time": 380.6904359999878,
                    "velocity": 0.41732283464566927,
                    "duration": 0.07113049999998111
                },
                {
                    "name": "D6",
                    "midi": 86,
                    "time": 380.8326969999878,
                    "velocity": 0.4015748031496063,
                    "duration": 0.07113049999998111
                },
                {
                    "name": "C6",
                    "midi": 84,
                    "time": 380.97495799998774,
                    "velocity": 0.41732283464566927,
                    "duration": 0.07113049999998111
                },
                {
                    "name": "A#5",
                    "midi": 82,
                    "time": 381.1172189999877,
                    "velocity": 0.4094488188976378,
                    "duration": 0.07113049999998111
                },
                {
                    "name": "A5",
                    "midi": 81,
                    "time": 381.25947999998766,
                    "velocity": 0.41732283464566927,
                    "duration": 0.07113049999998111
                },
                {
                    "name": "G5",
                    "midi": 79,
                    "time": 381.4017409999876,
                    "velocity": 0.3858267716535433,
                    "duration": 0.07113049999998111
                },
                {
                    "name": "F5",
                    "midi": 77,
                    "time": 381.5440019999876,
                    "velocity": 0.41732283464566927,
                    "duration": 0.07113049999998111
                },
                {
                    "name": "E5",
                    "midi": 76,
                    "time": 381.68626299998755,
                    "velocity": 0.3858267716535433,
                    "duration": 0.07113049999998111
                },
                {
                    "name": "D#5",
                    "midi": 75,
                    "time": 381.8285239999875,
                    "velocity": 0.3464566929133858,
                    "duration": 0.09484066666664148
                },
                {
                    "name": "D5",
                    "midi": 74,
                    "time": 381.92336466665415,
                    "velocity": 0.3464566929133858,
                    "duration": 0.09484066666664148
                },
                {
                    "name": "C5",
                    "midi": 72,
                    "time": 382.0182053333208,
                    "velocity": 0.33858267716535434,
                    "duration": 0.09484066666664148
                },
                {
                    "name": "A#4",
                    "midi": 70,
                    "time": 382.11304599998743,
                    "velocity": 0.33070866141732286,
                    "duration": 0.09484066666664148
                },
                {
                    "name": "A4",
                    "midi": 69,
                    "time": 382.2078866666541,
                    "velocity": 0.33070866141732286,
                    "duration": 0.09484066666664148
                },
                {
                    "name": "G4",
                    "midi": 67,
                    "time": 382.3027273333207,
                    "velocity": 0.3228346456692913,
                    "duration": 0.09484066666664148
                },
                {
                    "name": "F4",
                    "midi": 65,
                    "time": 382.39756799998736,
                    "velocity": 0.31496062992125984,
                    "duration": 0.09484066666664148
                },
                {
                    "name": "E4",
                    "midi": 64,
                    "time": 382.492408666654,
                    "velocity": 0.31496062992125984,
                    "duration": 0.09484066666664148
                },
                {
                    "name": "D#4",
                    "midi": 63,
                    "time": 382.58724933332064,
                    "velocity": 0.30708661417322836,
                    "duration": 0.09484066666664148
                },
                {
                    "name": "D4",
                    "midi": 62,
                    "time": 382.6820899999873,
                    "velocity": 0.2992125984251969,
                    "duration": 0.09484066666664148
                },
                {
                    "name": "C#4",
                    "midi": 61,
                    "time": 382.7769306666539,
                    "velocity": 0.2992125984251969,
                    "duration": 0.09484066666664148
                },
                {
                    "name": "C4",
                    "midi": 60,
                    "time": 382.87177133332057,
                    "velocity": 0.29133858267716534,
                    "duration": 0.09484066666664148
                },
                {
                    "name": "A#3",
                    "midi": 58,
                    "time": 387.80348599998723,
                    "velocity": 0.25196850393700787,
                    "duration": 0.2845219999999813
                },
                {
                    "name": "F4",
                    "midi": 65,
                    "time": 387.80348599998723,
                    "velocity": 0.28346456692913385,
                    "duration": 0.2845219999999813
                },
                {
                    "name": "A#4",
                    "midi": 70,
                    "time": 387.80348599998723,
                    "velocity": 0.33858267716535434,
                    "duration": 0.2845219999999813
                },
                {
                    "name": "A#3",
                    "midi": 58,
                    "time": 388.0880079999872,
                    "velocity": 0.25984251968503935,
                    "duration": 0.2845219999999813
                },
                {
                    "name": "F4",
                    "midi": 65,
                    "time": 388.0880079999872,
                    "velocity": 0.29133858267716534,
                    "duration": 0.2845219999999813
                },
                {
                    "name": "A#4",
                    "midi": 70,
                    "time": 388.0880079999872,
                    "velocity": 0.3543307086614173,
                    "duration": 0.2845219999999813
                },
                {
                    "name": "A3",
                    "midi": 57,
                    "time": 388.3725299999872,
                    "velocity": 0.2125984251968504,
                    "duration": 0.2845219999999813
                },
                {
                    "name": "F4",
                    "midi": 65,
                    "time": 388.3725299999872,
                    "velocity": 0.28346456692913385,
                    "duration": 0.2845219999999813
                },
                {
                    "name": "A4",
                    "midi": 69,
                    "time": 388.3725299999872,
                    "velocity": 0.33858267716535434,
                    "duration": 0.2845219999999813
                },
                {
                    "name": "A#3",
                    "midi": 58,
                    "time": 388.6570519999872,
                    "velocity": 0.25984251968503935,
                    "duration": 0.2845219999999813
                },
                {
                    "name": "F4",
                    "midi": 65,
                    "time": 388.6570519999872,
                    "velocity": 0.29133858267716534,
                    "duration": 0.2845219999999813
                },
                {
                    "name": "A#4",
                    "midi": 70,
                    "time": 388.6570519999872,
                    "velocity": 0.3543307086614173,
                    "duration": 0.2845219999999813
                },
                {
                    "name": "C4",
                    "midi": 60,
                    "time": 388.94157399998716,
                    "velocity": 0.25196850393700787,
                    "duration": 0.2845219999999813
                },
                {
                    "name": "F4",
                    "midi": 65,
                    "time": 388.94157399998716,
                    "velocity": 0.28346456692913385,
                    "duration": 0.2845219999999813
                },
                {
                    "name": "C5",
                    "midi": 72,
                    "time": 388.94157399998716,
                    "velocity": 0.33858267716535434,
                    "duration": 0.2845219999999813
                },
                {
                    "name": "D4",
                    "midi": 62,
                    "time": 389.22609599998714,
                    "velocity": 0.28346456692913385,
                    "duration": 0.8535660000000007
                },
                {
                    "name": "F4",
                    "midi": 65,
                    "time": 389.22609599998714,
                    "velocity": 0.31496062992125984,
                    "duration": 0.8535660000000007
                },
                {
                    "name": "D5",
                    "midi": 74,
                    "time": 389.22609599998714,
                    "velocity": 0.3700787401574803,
                    "duration": 0.8535660000000007
                },
                {
                    "name": "C4",
                    "midi": 60,
                    "time": 390.07966199998714,
                    "velocity": 0.25984251968503935,
                    "duration": 0.14226100000001907
                },
                {
                    "name": "F4",
                    "midi": 65,
                    "time": 390.07966199998714,
                    "velocity": 0.29133858267716534,
                    "duration": 0.28452200000003813
                },
                {
                    "name": "C5",
                    "midi": 72,
                    "time": 390.07966199998714,
                    "velocity": 0.3543307086614173,
                    "duration": 0.14226100000001907
                },
                {
                    "name": "A#3",
                    "midi": 58,
                    "time": 390.22192299998716,
                    "velocity": 0.2440944881889764,
                    "duration": 0.14226100000001907
                },
                {
                    "name": "A#4",
                    "midi": 70,
                    "time": 390.22192299998716,
                    "velocity": 0.3228346456692913,
                    "duration": 0.14226100000001907
                },
                {
                    "name": "C4",
                    "midi": 60,
                    "time": 390.3641839999872,
                    "velocity": 0.2440944881889764,
                    "duration": 0.28155822916664874
                },
                {
                    "name": "F4",
                    "midi": 65,
                    "time": 390.3641839999872,
                    "velocity": 0.2755905511811024,
                    "duration": 0.28155822916664874
                },
                {
                    "name": "C5",
                    "midi": 72,
                    "time": 390.3641839999872,
                    "velocity": 0.33070866141732286,
                    "duration": 0.28155822916664874
                },
                {
                    "name": "C4",
                    "midi": 60,
                    "time": 390.64870599998716,
                    "velocity": 0.23622047244094488,
                    "duration": 0.28155822916664874
                },
                {
                    "name": "F4",
                    "midi": 65,
                    "time": 390.64870599998716,
                    "velocity": 0.2677165354330709,
                    "duration": 0.28155822916664874
                },
                {
                    "name": "C5",
                    "midi": 72,
                    "time": 390.64870599998716,
                    "velocity": 0.3228346456692913,
                    "duration": 0.28155822916664874
                },
                {
                    "name": "C4",
                    "midi": 60,
                    "time": 390.93322799998714,
                    "velocity": 0.23622047244094488,
                    "duration": 0.28155822916664874
                },
                {
                    "name": "F4",
                    "midi": 65,
                    "time": 390.93322799998714,
                    "velocity": 0.2677165354330709,
                    "duration": 0.28155822916664874
                },
                {
                    "name": "C5",
                    "midi": 72,
                    "time": 390.93322799998714,
                    "velocity": 0.3228346456692913,
                    "duration": 0.28155822916664874
                },
                {
                    "name": "A#3",
                    "midi": 58,
                    "time": 391.2177499999871,
                    "velocity": 0.25984251968503935,
                    "duration": 0.14226100000001907
                },
                {
                    "name": "F4",
                    "midi": 65,
                    "time": 391.2177499999871,
                    "velocity": 0.29133858267716534,
                    "duration": 0.28452200000003813
                },
                {
                    "name": "A#4",
                    "midi": 70,
                    "time": 391.2177499999871,
                    "velocity": 0.3543307086614173,
                    "duration": 0.14226100000001907
                },
                {
                    "name": "A3",
                    "midi": 57,
                    "time": 391.36001099998714,
                    "velocity": 0.2125984251968504,
                    "duration": 0.14226100000001907
                },
                {
                    "name": "A4",
                    "midi": 69,
                    "time": 391.36001099998714,
                    "velocity": 0.31496062992125984,
                    "duration": 0.14226100000001907
                },
                {
                    "name": "F4",
                    "midi": 65,
                    "time": 391.50227199998716,
                    "velocity": 0.36220472440944884,
                    "duration": 0.2845219999999813
                },
                {
                    "name": "A#3",
                    "midi": 58,
                    "time": 391.50227199998716,
                    "velocity": 0.25984251968503935,
                    "duration": 0.8535659999999439
                },
                {
                    "name": "A#4",
                    "midi": 70,
                    "time": 391.50227199998716,
                    "velocity": 0.36220472440944884,
                    "duration": 0.8535659999999439
                },
                {
                    "name": "D#4",
                    "midi": 63,
                    "time": 391.78679399998714,
                    "velocity": 0.29133858267716534,
                    "duration": 0.2845219999999813
                },
                {
                    "name": "G4",
                    "midi": 67,
                    "time": 391.78679399998714,
                    "velocity": 0.3543307086614173,
                    "duration": 0.2845219999999813
                },
                {
                    "name": "D4",
                    "midi": 62,
                    "time": 392.0713159999871,
                    "velocity": 0.25196850393700787,
                    "duration": 0.2845219999999813
                },
                {
                    "name": "F4",
                    "midi": 65,
                    "time": 392.0713159999871,
                    "velocity": 0.30708661417322836,
                    "duration": 0.2845219999999813
                },
                {
                    "name": "A#4",
                    "midi": 70,
                    "time": 392.3558379999871,
                    "velocity": 0.4251968503937008,
                    "duration": 0.2845219999999813
                },
                {
                    "name": "D#4",
                    "midi": 63,
                    "time": 392.6403599999871,
                    "velocity": 0.31496062992125984,
                    "duration": 0.8535660000000007
                },
                {
                    "name": "A#4",
                    "midi": 70,
                    "time": 392.6403599999871,
                    "velocity": 0.3543307086614173,
                    "duration": 0.8535660000000007
                },
                {
                    "name": "D#5",
                    "midi": 75,
                    "time": 392.6403599999871,
                    "velocity": 0.4251968503937008,
                    "duration": 0.8535660000000007
                },
                {
                    "name": "D4",
                    "midi": 62,
                    "time": 393.4939259999871,
                    "velocity": 0.28346456692913385,
                    "duration": 0.14226100000001907
                },
                {
                    "name": "A#4",
                    "midi": 70,
                    "time": 393.4939259999871,
                    "velocity": 0.3228346456692913,
                    "duration": 0.14226100000001907
                },
                {
                    "name": "D5",
                    "midi": 74,
                    "time": 393.4939259999871,
                    "velocity": 0.3858267716535433,
                    "duration": 0.14226100000001907
                },
                {
                    "name": "C4",
                    "midi": 60,
                    "time": 393.6361869999871,
                    "velocity": 0.25984251968503935,
                    "duration": 0.14226100000001907
                },
                {
                    "name": "A#4",
                    "midi": 70,
                    "time": 393.6361869999871,
                    "velocity": 0.29133858267716534,
                    "duration": 0.14226100000001907
                },
                {
                    "name": "C5",
                    "midi": 72,
                    "time": 393.6361869999871,
                    "velocity": 0.3543307086614173,
                    "duration": 0.14226100000001907
                },
                {
                    "name": "D4",
                    "midi": 62,
                    "time": 393.7784479999871,
                    "velocity": 0.31496062992125984,
                    "duration": 0.2845219999999813
                },
                {
                    "name": "A#4",
                    "midi": 70,
                    "time": 393.7784479999871,
                    "velocity": 0.31496062992125984,
                    "duration": 0.2845219999999813
                },
                {
                    "name": "D5",
                    "midi": 74,
                    "time": 393.7784479999871,
                    "velocity": 0.3700787401574803,
                    "duration": 0.2845219999999813
                },
                {
                    "name": "A3",
                    "midi": 57,
                    "time": 394.0629699999871,
                    "velocity": 0.25984251968503935,
                    "duration": 0.2845219999999813
                },
                {
                    "name": "F4",
                    "midi": 65,
                    "time": 394.0629699999871,
                    "velocity": 0.29133858267716534,
                    "duration": 0.2845219999999813
                },
                {
                    "name": "A4",
                    "midi": 69,
                    "time": 394.0629699999871,
                    "velocity": 0.3543307086614173,
                    "duration": 0.2845219999999813
                },
                {
                    "name": "A#3",
                    "midi": 58,
                    "time": 394.3474919999871,
                    "velocity": 0.2755905511811024,
                    "duration": 0.2845219999999813
                },
                {
                    "name": "F4",
                    "midi": 65,
                    "time": 394.3474919999871,
                    "velocity": 0.30708661417322836,
                    "duration": 0.2845219999999813
                },
                {
                    "name": "A#4",
                    "midi": 70,
                    "time": 394.3474919999871,
                    "velocity": 0.36220472440944884,
                    "duration": 0.2845219999999813
                },
                {
                    "name": "C4",
                    "midi": 60,
                    "time": 394.63201399998707,
                    "velocity": 0.25984251968503935,
                    "duration": 0.2845219999999813
                },
                {
                    "name": "F4",
                    "midi": 65,
                    "time": 394.63201399998707,
                    "velocity": 0.29133858267716534,
                    "duration": 0.2845219999999813
                },
                {
                    "name": "C5",
                    "midi": 72,
                    "time": 394.63201399998707,
                    "velocity": 0.3543307086614173,
                    "duration": 0.2845219999999813
                },
                {
                    "name": "A#3",
                    "midi": 58,
                    "time": 394.91653599998705,
                    "velocity": 0.2755905511811024,
                    "duration": 0.2845219999999813
                },
                {
                    "name": "F4",
                    "midi": 65,
                    "time": 394.91653599998705,
                    "velocity": 0.30708661417322836,
                    "duration": 0.2845219999999813
                },
                {
                    "name": "A#4",
                    "midi": 70,
                    "time": 394.91653599998705,
                    "velocity": 0.36220472440944884,
                    "duration": 0.2845219999999813
                },
                {
                    "name": "F4",
                    "midi": 65,
                    "time": 395.20105799998703,
                    "velocity": 0.30708661417322836,
                    "duration": 0.2845219999999813
                },
                {
                    "name": "D4",
                    "midi": 62,
                    "time": 395.20105799998703,
                    "velocity": 0.2755905511811024,
                    "duration": 0.2845219999999813
                },
                {
                    "name": "A#4",
                    "midi": 70,
                    "time": 395.20105799998703,
                    "velocity": 0.30708661417322836,
                    "duration": 0.2845219999999813
                },
                {
                    "name": "D5",
                    "midi": 74,
                    "time": 395.20105799998703,
                    "velocity": 0.36220472440944884,
                    "duration": 0.2845219999999813
                },
                {
                    "name": "C4",
                    "midi": 60,
                    "time": 395.485579999987,
                    "velocity": 0.25984251968503935,
                    "duration": 1.8493930000000205
                },
                {
                    "name": "F4",
                    "midi": 65,
                    "time": 395.485579999987,
                    "velocity": 0.29133858267716534,
                    "duration": 1.8493930000000205
                },
                {
                    "name": "A4",
                    "midi": 69,
                    "time": 395.485579999987,
                    "velocity": 0.29133858267716534,
                    "duration": 1.8493930000000205
                },
                {
                    "name": "C5",
                    "midi": 72,
                    "time": 395.485579999987,
                    "velocity": 0.3543307086614173,
                    "duration": 1.8493930000000205
                },
                {
                    "name": "A#3",
                    "midi": 58,
                    "time": 398.046277999987,
                    "velocity": 0.25196850393700787,
                    "duration": 0.2845219999999813
                },
                {
                    "name": "F4",
                    "midi": 65,
                    "time": 398.046277999987,
                    "velocity": 0.28346456692913385,
                    "duration": 0.2845219999999813
                },
                {
                    "name": "A#4",
                    "midi": 70,
                    "time": 398.046277999987,
                    "velocity": 0.33858267716535434,
                    "duration": 0.2845219999999813
                },
                {
                    "name": "A#3",
                    "midi": 58,
                    "time": 398.330799999987,
                    "velocity": 0.25984251968503935,
                    "duration": 0.2845219999999813
                },
                {
                    "name": "F4",
                    "midi": 65,
                    "time": 398.330799999987,
                    "velocity": 0.29133858267716534,
                    "duration": 0.2845219999999813
                },
                {
                    "name": "A#4",
                    "midi": 70,
                    "time": 398.330799999987,
                    "velocity": 0.3543307086614173,
                    "duration": 0.2845219999999813
                },
                {
                    "name": "A3",
                    "midi": 57,
                    "time": 398.615321999987,
                    "velocity": 0.2125984251968504,
                    "duration": 0.2845219999999813
                },
                {
                    "name": "F4",
                    "midi": 65,
                    "time": 398.615321999987,
                    "velocity": 0.28346456692913385,
                    "duration": 0.2845219999999813
                },
                {
                    "name": "A4",
                    "midi": 69,
                    "time": 398.615321999987,
                    "velocity": 0.33858267716535434,
                    "duration": 0.2845219999999813
                },
                {
                    "name": "A#3",
                    "midi": 58,
                    "time": 398.89984399998696,
                    "velocity": 0.25984251968503935,
                    "duration": 0.2845219999999813
                },
                {
                    "name": "F4",
                    "midi": 65,
                    "time": 398.89984399998696,
                    "velocity": 0.29133858267716534,
                    "duration": 0.2845219999999813
                },
                {
                    "name": "A#4",
                    "midi": 70,
                    "time": 398.89984399998696,
                    "velocity": 0.3543307086614173,
                    "duration": 0.2845219999999813
                },
                {
                    "name": "C4",
                    "midi": 60,
                    "time": 399.18436599998694,
                    "velocity": 0.25196850393700787,
                    "duration": 0.2845219999999813
                },
                {
                    "name": "F4",
                    "midi": 65,
                    "time": 399.18436599998694,
                    "velocity": 0.28346456692913385,
                    "duration": 0.2845219999999813
                },
                {
                    "name": "C5",
                    "midi": 72,
                    "time": 399.18436599998694,
                    "velocity": 0.33858267716535434,
                    "duration": 0.2845219999999813
                },
                {
                    "name": "D4",
                    "midi": 62,
                    "time": 399.4688879999869,
                    "velocity": 0.28346456692913385,
                    "duration": 0.8535660000000007
                },
                {
                    "name": "F4",
                    "midi": 65,
                    "time": 399.4688879999869,
                    "velocity": 0.31496062992125984,
                    "duration": 0.8535660000000007
                },
                {
                    "name": "D5",
                    "midi": 74,
                    "time": 399.4688879999869,
                    "velocity": 0.3700787401574803,
                    "duration": 0.8535660000000007
                },
                {
                    "name": "C4",
                    "midi": 60,
                    "time": 400.3224539999869,
                    "velocity": 0.25984251968503935,
                    "duration": 0.14226100000001907
                },
                {
                    "name": "F4",
                    "midi": 65,
                    "time": 400.3224539999869,
                    "velocity": 0.29133858267716534,
                    "duration": 0.28452200000003813
                },
                {
                    "name": "C5",
                    "midi": 72,
                    "time": 400.3224539999869,
                    "velocity": 0.3543307086614173,
                    "duration": 0.14226100000001907
                },
                {
                    "name": "A#3",
                    "midi": 58,
                    "time": 400.46471499998694,
                    "velocity": 0.2440944881889764,
                    "duration": 0.14226100000001907
                },
                {
                    "name": "A#4",
                    "midi": 70,
                    "time": 400.46471499998694,
                    "velocity": 0.3228346456692913,
                    "duration": 0.14226100000001907
                },
                {
                    "name": "C4",
                    "midi": 60,
                    "time": 400.60697599998696,
                    "velocity": 0.2440944881889764,
                    "duration": 0.28155822916664874
                },
                {
                    "name": "F4",
                    "midi": 65,
                    "time": 400.60697599998696,
                    "velocity": 0.2755905511811024,
                    "duration": 0.28155822916664874
                },
                {
                    "name": "C5",
                    "midi": 72,
                    "time": 400.60697599998696,
                    "velocity": 0.33070866141732286,
                    "duration": 0.28155822916664874
                },
                {
                    "name": "C4",
                    "midi": 60,
                    "time": 400.89149799998694,
                    "velocity": 0.23622047244094488,
                    "duration": 0.28155822916664874
                },
                {
                    "name": "F4",
                    "midi": 65,
                    "time": 400.89149799998694,
                    "velocity": 0.2677165354330709,
                    "duration": 0.28155822916664874
                },
                {
                    "name": "C5",
                    "midi": 72,
                    "time": 400.89149799998694,
                    "velocity": 0.3228346456692913,
                    "duration": 0.28155822916664874
                },
                {
                    "name": "C4",
                    "midi": 60,
                    "time": 401.1760199999869,
                    "velocity": 0.23622047244094488,
                    "duration": 0.28155822916664874
                },
                {
                    "name": "F4",
                    "midi": 65,
                    "time": 401.1760199999869,
                    "velocity": 0.2677165354330709,
                    "duration": 0.28155822916664874
                },
                {
                    "name": "C5",
                    "midi": 72,
                    "time": 401.1760199999869,
                    "velocity": 0.3228346456692913,
                    "duration": 0.28155822916664874
                },
                {
                    "name": "A#3",
                    "midi": 58,
                    "time": 401.4605419999869,
                    "velocity": 0.25984251968503935,
                    "duration": 0.14226100000001907
                },
                {
                    "name": "F4",
                    "midi": 65,
                    "time": 401.4605419999869,
                    "velocity": 0.29133858267716534,
                    "duration": 0.28452200000003813
                },
                {
                    "name": "A#4",
                    "midi": 70,
                    "time": 401.4605419999869,
                    "velocity": 0.3543307086614173,
                    "duration": 0.14226100000001907
                },
                {
                    "name": "A3",
                    "midi": 57,
                    "time": 401.6028029999869,
                    "velocity": 0.2125984251968504,
                    "duration": 0.14226100000001907
                },
                {
                    "name": "A4",
                    "midi": 69,
                    "time": 401.6028029999869,
                    "velocity": 0.31496062992125984,
                    "duration": 0.14226100000001907
                },
                {
                    "name": "F4",
                    "midi": 65,
                    "time": 401.74506399998694,
                    "velocity": 0.36220472440944884,
                    "duration": 0.2845219999999813
                },
                {
                    "name": "A#3",
                    "midi": 58,
                    "time": 401.74506399998694,
                    "velocity": 0.25984251968503935,
                    "duration": 0.8535659999999439
                },
                {
                    "name": "A#4",
                    "midi": 70,
                    "time": 401.74506399998694,
                    "velocity": 0.36220472440944884,
                    "duration": 0.8535659999999439
                },
                {
                    "name": "D#4",
                    "midi": 63,
                    "time": 402.0295859999869,
                    "velocity": 0.29133858267716534,
                    "duration": 0.2845219999999813
                },
                {
                    "name": "G4",
                    "midi": 67,
                    "time": 402.0295859999869,
                    "velocity": 0.3543307086614173,
                    "duration": 0.2845219999999813
                },
                {
                    "name": "D4",
                    "midi": 62,
                    "time": 402.3141079999869,
                    "velocity": 0.25196850393700787,
                    "duration": 0.2845219999999813
                },
                {
                    "name": "F4",
                    "midi": 65,
                    "time": 402.3141079999869,
                    "velocity": 0.30708661417322836,
                    "duration": 0.2845219999999813
                },
                {
                    "name": "D4",
                    "midi": 62,
                    "time": 402.5986299999869,
                    "velocity": 0.31496062992125984,
                    "duration": 0.2845219999999813
                },
                {
                    "name": "F4",
                    "midi": 65,
                    "time": 402.5986299999869,
                    "velocity": 0.3543307086614173,
                    "duration": 0.2845219999999813
                },
                {
                    "name": "D5",
                    "midi": 74,
                    "time": 402.5986299999869,
                    "velocity": 0.4251968503937008,
                    "duration": 0.2845219999999813
                },
                {
                    "name": "D4",
                    "midi": 62,
                    "time": 402.88315199998686,
                    "velocity": 0.31496062992125984,
                    "duration": 0.8535660000000007
                },
                {
                    "name": "G4",
                    "midi": 67,
                    "time": 402.88315199998686,
                    "velocity": 0.3543307086614173,
                    "duration": 0.8535660000000007
                },
                {
                    "name": "D5",
                    "midi": 74,
                    "time": 402.88315199998686,
                    "velocity": 0.4251968503937008,
                    "duration": 0.8535660000000007
                },
                {
                    "name": "C4",
                    "midi": 60,
                    "time": 403.73671799998687,
                    "velocity": 0.28346456692913385,
                    "duration": 0.14226100000001907
                },
                {
                    "name": "G4",
                    "midi": 67,
                    "time": 403.73671799998687,
                    "velocity": 0.3228346456692913,
                    "duration": 0.14226100000001907
                },
                {
                    "name": "C5",
                    "midi": 72,
                    "time": 403.73671799998687,
                    "velocity": 0.3858267716535433,
                    "duration": 0.14226100000001907
                },
                {
                    "name": "B3",
                    "midi": 59,
                    "time": 403.8789789999869,
                    "velocity": 0.25984251968503935,
                    "duration": 0.14226100000001907
                },
                {
                    "name": "G4",
                    "midi": 67,
                    "time": 403.8789789999869,
                    "velocity": 0.29133858267716534,
                    "duration": 0.14226100000001907
                },
                {
                    "name": "B4",
                    "midi": 71,
                    "time": 403.8789789999869,
                    "velocity": 0.3543307086614173,
                    "duration": 0.14226100000001907
                },
                {
                    "name": "D#4",
                    "midi": 63,
                    "time": 404.0212399999869,
                    "velocity": 0.3700787401574803,
                    "duration": 0.2845219999999813
                },
                {
                    "name": "G4",
                    "midi": 67,
                    "time": 404.0212399999869,
                    "velocity": 0.3779527559055118,
                    "duration": 0.2845219999999813
                },
                {
                    "name": "D#5",
                    "midi": 75,
                    "time": 404.0212399999869,
                    "velocity": 0.4566929133858268,
                    "duration": 0.2845219999999813
                },
                {
                    "name": "D4",
                    "midi": 62,
                    "time": 404.3057619999869,
                    "velocity": 0.3543307086614173,
                    "duration": 0.2845219999999813
                },
                {
                    "name": "G4",
                    "midi": 67,
                    "time": 404.3057619999869,
                    "velocity": 0.3543307086614173,
                    "duration": 0.2845219999999813
                },
                {
                    "name": "D5",
                    "midi": 74,
                    "time": 404.3057619999869,
                    "velocity": 0.41732283464566927,
                    "duration": 0.2845219999999813
                },
                {
                    "name": "C4",
                    "midi": 60,
                    "time": 404.59028399998687,
                    "velocity": 0.33858267716535434,
                    "duration": 0.2845219999999813
                },
                {
                    "name": "G4",
                    "midi": 67,
                    "time": 404.59028399998687,
                    "velocity": 0.33858267716535434,
                    "duration": 0.2845219999999813
                },
                {
                    "name": "C5",
                    "midi": 72,
                    "time": 404.59028399998687,
                    "velocity": 0.4015748031496063,
                    "duration": 0.2845219999999813
                },
                {
                    "name": "C4",
                    "midi": 60,
                    "time": 404.87480599998685,
                    "velocity": 0.31496062992125984,
                    "duration": 0.2845219999999813
                },
                {
                    "name": "A4",
                    "midi": 69,
                    "time": 404.87480599998685,
                    "velocity": 0.3543307086614173,
                    "duration": 0.2845219999999813
                },
                {
                    "name": "C5",
                    "midi": 72,
                    "time": 404.87480599998685,
                    "velocity": 0.4251968503937008,
                    "duration": 0.2845219999999813
                },
                {
                    "name": "F4",
                    "midi": 65,
                    "time": 405.15932799998683,
                    "velocity": 0.31496062992125984,
                    "duration": 0.8535660000000007
                },
                {
                    "name": "C4",
                    "midi": 60,
                    "time": 405.15932799998683,
                    "velocity": 0.31496062992125984,
                    "duration": 0.8535660000000007
                },
                {
                    "name": "A4",
                    "midi": 69,
                    "time": 405.15932799998683,
                    "velocity": 0.3543307086614173,
                    "duration": 0.8535660000000007
                },
                {
                    "name": "C5",
                    "midi": 72,
                    "time": 405.15932799998683,
                    "velocity": 0.4251968503937008,
                    "duration": 0.8535660000000007
                },
                {
                    "name": "A#3",
                    "midi": 58,
                    "time": 406.01289399998683,
                    "velocity": 0.28346456692913385,
                    "duration": 0.14226100000001907
                },
                {
                    "name": "F4",
                    "midi": 65,
                    "time": 406.01289399998683,
                    "velocity": 0.3228346456692913,
                    "duration": 0.14226100000001907
                },
                {
                    "name": "A#4",
                    "midi": 70,
                    "time": 406.01289399998683,
                    "velocity": 0.3858267716535433,
                    "duration": 0.14226100000001907
                },
                {
                    "name": "A3",
                    "midi": 57,
                    "time": 406.15515499998685,
                    "velocity": 0.25984251968503935,
                    "duration": 0.14226100000001907
                },
                {
                    "name": "F4",
                    "midi": 65,
                    "time": 406.15515499998685,
                    "velocity": 0.29133858267716534,
                    "duration": 0.14226100000001907
                },
                {
                    "name": "A4",
                    "midi": 69,
                    "time": 406.15515499998685,
                    "velocity": 0.3543307086614173,
                    "duration": 0.14226100000001907
                },
                {
                    "name": "D4",
                    "midi": 62,
                    "time": 406.29741599998687,
                    "velocity": 0.3543307086614173,
                    "duration": 0.2845219999999813
                },
                {
                    "name": "F4",
                    "midi": 65,
                    "time": 406.29741599998687,
                    "velocity": 0.3858267716535433,
                    "duration": 0.2845219999999813
                },
                {
                    "name": "D5",
                    "midi": 74,
                    "time": 406.29741599998687,
                    "velocity": 0.4566929133858268,
                    "duration": 0.2845219999999813
                },
                {
                    "name": "A3",
                    "midi": 57,
                    "time": 406.58193799998685,
                    "velocity": 0.33070866141732286,
                    "duration": 0.2845219999999813
                },
                {
                    "name": "F4",
                    "midi": 65,
                    "time": 406.58193799998685,
                    "velocity": 0.33070866141732286,
                    "duration": 0.2845219999999813
                },
                {
                    "name": "A4",
                    "midi": 69,
                    "time": 406.58193799998685,
                    "velocity": 0.3937007874015748,
                    "duration": 0.2845219999999813
                },
                {
                    "name": "A#3",
                    "midi": 58,
                    "time": 406.86645999998683,
                    "velocity": 0.3543307086614173,
                    "duration": 0.2845219999999813
                },
                {
                    "name": "F4",
                    "midi": 65,
                    "time": 406.86645999998683,
                    "velocity": 0.3543307086614173,
                    "duration": 0.2845219999999813
                },
                {
                    "name": "A#4",
                    "midi": 70,
                    "time": 406.86645999998683,
                    "velocity": 0.41732283464566927,
                    "duration": 0.2845219999999813
                },
                {
                    "name": "F4",
                    "midi": 65,
                    "time": 407.1509819999868,
                    "velocity": 0.31496062992125984,
                    "duration": 0.2845219999999813
                },
                {
                    "name": "C4",
                    "midi": 60,
                    "time": 407.1509819999868,
                    "velocity": 0.28346456692913385,
                    "duration": 0.2845219999999813
                },
                {
                    "name": "A4",
                    "midi": 69,
                    "time": 407.1509819999868,
                    "velocity": 0.31496062992125984,
                    "duration": 0.2845219999999813
                },
                {
                    "name": "C5",
                    "midi": 72,
                    "time": 407.1509819999868,
                    "velocity": 0.3779527559055118,
                    "duration": 0.2845219999999813
                },
                {
                    "name": "F4",
                    "midi": 65,
                    "time": 407.4355039999868,
                    "velocity": 0.28346456692913385,
                    "duration": 0.7113050000000385
                },
                {
                    "name": "C4",
                    "midi": 60,
                    "time": 407.4355039999868,
                    "velocity": 0.28346456692913385,
                    "duration": 0.5690440000000194
                },
                {
                    "name": "A4",
                    "midi": 69,
                    "time": 407.4355039999868,
                    "velocity": 0.31496062992125984,
                    "duration": 0.5690440000000194
                },
                {
                    "name": "C5",
                    "midi": 72,
                    "time": 407.4355039999868,
                    "velocity": 0.3779527559055118,
                    "duration": 0.5690440000000194
                },
                {
                    "name": "A#3",
                    "midi": 58,
                    "time": 408.0045479999868,
                    "velocity": 0.33858267716535434,
                    "duration": 0.14226100000001907
                },
                {
                    "name": "A#4",
                    "midi": 70,
                    "time": 408.0045479999868,
                    "velocity": 0.33858267716535434,
                    "duration": 0.14226100000001907
                },
                {
                    "name": "A#4",
                    "midi": 70,
                    "time": 409.42715799998683,
                    "velocity": 0.4015748031496063,
                    "duration": 0.2845219999999813
                },
                {
                    "name": "A#4",
                    "midi": 70,
                    "time": 409.7116799999868,
                    "velocity": 0.4094488188976378,
                    "duration": 0.2845219999999813
                },
                {
                    "name": "G#4",
                    "midi": 68,
                    "time": 409.9962019999868,
                    "velocity": 0.4015748031496063,
                    "duration": 0.2845219999999813
                },
                {
                    "name": "A#4",
                    "midi": 70,
                    "time": 410.2807239999868,
                    "velocity": 0.4094488188976378,
                    "duration": 0.2845219999999813
                },
                {
                    "name": "B4",
                    "midi": 71,
                    "time": 410.56524599998676,
                    "velocity": 0.3937007874015748,
                    "duration": 0.2845219999999813
                },
                {
                    "name": "C#5",
                    "midi": 73,
                    "time": 410.84976799998674,
                    "velocity": 0.4094488188976378,
                    "duration": 0.8535660000000007
                },
                {
                    "name": "B4",
                    "midi": 71,
                    "time": 411.70333399998674,
                    "velocity": 0.4409448818897638,
                    "duration": 0.14226100000001907
                },
                {
                    "name": "A#4",
                    "midi": 70,
                    "time": 411.84559499998676,
                    "velocity": 0.41732283464566927,
                    "duration": 0.14226100000001907
                },
                {
                    "name": "D#5",
                    "midi": 75,
                    "time": 411.9878559999868,
                    "velocity": 0.4566929133858268,
                    "duration": 0.14226100000001907
                },
                {
                    "name": "D#5",
                    "midi": 75,
                    "time": 412.2723779999868,
                    "velocity": 0.4251968503937008,
                    "duration": 0.14226100000001907
                },
                {
                    "name": "D#5",
                    "midi": 75,
                    "time": 412.55689999998685,
                    "velocity": 0.4251968503937008,
                    "duration": 0.14226100000001907
                },
                {
                    "name": "F5",
                    "midi": 77,
                    "time": 412.8414219999869,
                    "velocity": 0.4409448818897638,
                    "duration": 0.14226100000001907
                },
                {
                    "name": "F#5",
                    "midi": 78,
                    "time": 412.9836829999869,
                    "velocity": 0.4015748031496063,
                    "duration": 0.14226100000001907
                },
                {
                    "name": "C#5",
                    "midi": 73,
                    "time": 413.12594399998693,
                    "velocity": 0.4251968503937008,
                    "duration": 0.8535660000000007
                },
                {
                    "name": "A4",
                    "midi": 69,
                    "time": 413.97950999998693,
                    "velocity": 0.4015748031496063,
                    "duration": 0.2845219999999813
                },
                {
                    "name": "A4",
                    "midi": 69,
                    "time": 414.2640319999869,
                    "velocity": 0.4094488188976378,
                    "duration": 0.2845219999999813
                },
                {
                    "name": "G#4",
                    "midi": 68,
                    "time": 414.5485539999869,
                    "velocity": 0.4015748031496063,
                    "duration": 0.2845219999999813
                },
                {
                    "name": "A4",
                    "midi": 69,
                    "time": 414.8330759999869,
                    "velocity": 0.4094488188976378,
                    "duration": 0.2845219999999813
                },
                {
                    "name": "B4",
                    "midi": 71,
                    "time": 415.11759799998686,
                    "velocity": 0.3937007874015748,
                    "duration": 0.2845219999999813
                },
                {
                    "name": "C#5",
                    "midi": 73,
                    "time": 415.40211999998684,
                    "velocity": 0.4094488188976378,
                    "duration": 0.8535660000000007
                },
                {
                    "name": "D5",
                    "midi": 74,
                    "time": 416.25568599998684,
                    "velocity": 0.4409448818897638,
                    "duration": 0.14226100000001907
                },
                {
                    "name": "E5",
                    "midi": 76,
                    "time": 416.39794699998686,
                    "velocity": 0.41732283464566927,
                    "duration": 0.14226100000001907
                },
                {
                    "name": "F#5",
                    "midi": 78,
                    "time": 416.5402079999869,
                    "velocity": 0.4566929133858268,
                    "duration": 0.14226100000001907
                },
                {
                    "name": "F#5",
                    "midi": 78,
                    "time": 416.8247299999869,
                    "velocity": 0.4251968503937008,
                    "duration": 0.14226100000001907
                },
                {
                    "name": "F#5",
                    "midi": 78,
                    "time": 417.10925199998695,
                    "velocity": 0.4251968503937008,
                    "duration": 0.14226100000001907
                },
                {
                    "name": "G#5",
                    "midi": 80,
                    "time": 417.393773999987,
                    "velocity": 0.4409448818897638,
                    "duration": 0.14226100000001907
                },
                {
                    "name": "A5",
                    "midi": 81,
                    "time": 417.536034999987,
                    "velocity": 0.4015748031496063,
                    "duration": 0.14226100000001907
                },
                {
                    "name": "E5",
                    "midi": 76,
                    "time": 417.67829599998703,
                    "velocity": 0.4251968503937008,
                    "duration": 0.8535660000000007
                },
                {
                    "name": "D5",
                    "midi": 74,
                    "time": 418.53186199998703,
                    "velocity": 0.41732283464566927,
                    "duration": 0.14226100000001907
                },
                {
                    "name": "C#5",
                    "midi": 73,
                    "time": 418.67412299998705,
                    "velocity": 0.4015748031496063,
                    "duration": 0.14226100000001907
                },
                {
                    "name": "D5",
                    "midi": 74,
                    "time": 418.81638399998707,
                    "velocity": 0.4251968503937008,
                    "duration": 0.2845219999999813
                },
                {
                    "name": "F#5",
                    "midi": 78,
                    "time": 419.10090599998705,
                    "velocity": 0.4094488188976378,
                    "duration": 0.2845219999999813
                },
                {
                    "name": "B4",
                    "midi": 71,
                    "time": 419.38542799998703,
                    "velocity": 0.4094488188976378,
                    "duration": 0.2845219999999813
                },
                {
                    "name": "D5",
                    "midi": 74,
                    "time": 419.669949999987,
                    "velocity": 0.4094488188976378,
                    "duration": 0.2845219999999813
                },
                {
                    "name": "C#5",
                    "midi": 73,
                    "time": 419.954471999987,
                    "velocity": 0.4251968503937008,
                    "duration": 0.2845219999999813
                },
                {
                    "name": "A4",
                    "midi": 69,
                    "time": 420.238993999987,
                    "velocity": 0.4015748031496063,
                    "duration": 0.42678300000000036
                },
                {
                    "name": "A5",
                    "midi": 81,
                    "time": 420.238993999987,
                    "velocity": 0.48031496062992124,
                    "duration": 0.42678300000000036
                },
                {
                    "name": "G#4",
                    "midi": 68,
                    "time": 420.665776999987,
                    "velocity": 0.3543307086614173,
                    "duration": 0.14226100000001907
                },
                {
                    "name": "G#5",
                    "midi": 80,
                    "time": 420.665776999987,
                    "velocity": 0.41732283464566927,
                    "duration": 0.14226100000001907
                },
                {
                    "name": "F#4",
                    "midi": 66,
                    "time": 420.808037999987,
                    "velocity": 0.3700787401574803,
                    "duration": 0.14226100000001907
                },
                {
                    "name": "F#5",
                    "midi": 78,
                    "time": 420.808037999987,
                    "velocity": 0.4409448818897638,
                    "duration": 0.14226100000001907
                },
                {
                    "name": "E4",
                    "midi": 64,
                    "time": 420.950298999987,
                    "velocity": 0.33858267716535434,
                    "duration": 0.14226100000001907
                },
                {
                    "name": "E5",
                    "midi": 76,
                    "time": 420.950298999987,
                    "velocity": 0.4015748031496063,
                    "duration": 0.14226100000001907
                },
                {
                    "name": "D4",
                    "midi": 62,
                    "time": 421.09255999998703,
                    "velocity": 0.36220472440944884,
                    "duration": 0.2845219999999813
                },
                {
                    "name": "D5",
                    "midi": 74,
                    "time": 421.09255999998703,
                    "velocity": 0.4251968503937008,
                    "duration": 0.2845219999999813
                },
                {
                    "name": "F#5",
                    "midi": 78,
                    "time": 421.377081999987,
                    "velocity": 0.4409448818897638,
                    "duration": 0.2845219999999813
                },
                {
                    "name": "B4",
                    "midi": 71,
                    "time": 421.661603999987,
                    "velocity": 0.4251968503937008,
                    "duration": 0.2845219999999813
                },
                {
                    "name": "C#5",
                    "midi": 73,
                    "time": 421.946125999987,
                    "velocity": 0.4094488188976378,
                    "duration": 0.14226100000001907
                },
                {
                    "name": "D5",
                    "midi": 74,
                    "time": 422.088386999987,
                    "velocity": 0.4094488188976378,
                    "duration": 0.14226100000001907
                },
                {
                    "name": "C#5",
                    "midi": 73,
                    "time": 422.230647999987,
                    "velocity": 0.4330708661417323,
                    "duration": 0.14226100000001907
                },
                {
                    "name": "E5",
                    "midi": 76,
                    "time": 422.37290899998703,
                    "velocity": 0.4094488188976378,
                    "duration": 0.14226100000001907
                },
                {
                    "name": "C#6",
                    "midi": 85,
                    "time": 422.51516999998705,
                    "velocity": 0.4409448818897638,
                    "duration": 0.14226100000001907
                },
                {
                    "name": "A5",
                    "midi": 81,
                    "time": 422.65743099998707,
                    "velocity": 0.4094488188976378,
                    "duration": 0.14226100000001907
                },
                {
                    "name": "E5",
                    "midi": 76,
                    "time": 422.7996919999871,
                    "velocity": 0.4409448818897638,
                    "duration": 0.14226100000001907
                },
                {
                    "name": "C#5",
                    "midi": 73,
                    "time": 422.9419529999871,
                    "velocity": 0.4094488188976378,
                    "duration": 0.14226100000001907
                },
                {
                    "name": "A5",
                    "midi": 81,
                    "time": 423.0842139999871,
                    "velocity": 0.4330708661417323,
                    "duration": 0.14226100000001907
                },
                {
                    "name": "F5",
                    "midi": 77,
                    "time": 423.22647499998715,
                    "velocity": 0.4094488188976378,
                    "duration": 0.14226100000001907
                },
                {
                    "name": "F#5",
                    "midi": 78,
                    "time": 423.36873599998717,
                    "velocity": 0.4330708661417323,
                    "duration": 0.14226100000001907
                },
                {
                    "name": "D5",
                    "midi": 74,
                    "time": 423.5109969999872,
                    "velocity": 0.4094488188976378,
                    "duration": 0.14226100000001907
                },
                {
                    "name": "D6",
                    "midi": 86,
                    "time": 423.6532579999872,
                    "velocity": 0.4409448818897638,
                    "duration": 0.14226100000001907
                },
                {
                    "name": "B5",
                    "midi": 83,
                    "time": 423.7955189999872,
                    "velocity": 0.4251968503937008,
                    "duration": 0.14226100000001907
                },
                {
                    "name": "G#5",
                    "midi": 80,
                    "time": 423.93777999998724,
                    "velocity": 0.4566929133858268,
                    "duration": 0.14226100000001907
                },
                {
                    "name": "B5",
                    "midi": 83,
                    "time": 424.08004099998726,
                    "velocity": 0.4409448818897638,
                    "duration": 0.14226100000001907
                },
                {
                    "name": "E6",
                    "midi": 88,
                    "time": 424.2223019999873,
                    "velocity": 0.4566929133858268,
                    "duration": 0.14226100000001907
                },
                {
                    "name": "C6",
                    "midi": 84,
                    "time": 424.3645629999873,
                    "velocity": 0.4251968503937008,
                    "duration": 0.14226100000001907
                },
                {
                    "name": "C#6",
                    "midi": 85,
                    "time": 424.5068239999873,
                    "velocity": 0.44881889763779526,
                    "duration": 0.14226100000001907
                },
                {
                    "name": "A5",
                    "midi": 81,
                    "time": 424.64908499998734,
                    "velocity": 0.4251968503937008,
                    "duration": 0.14226100000001907
                },
                {
                    "name": "C#6",
                    "midi": 85,
                    "time": 424.79134599998736,
                    "velocity": 0.44881889763779526,
                    "duration": 0.07113049999998111
                },
                {
                    "name": "A5",
                    "midi": 81,
                    "time": 424.86247649998734,
                    "velocity": 0.4015748031496063,
                    "duration": 0.07113049999998111
                },
                {
                    "name": "C#6",
                    "midi": 85,
                    "time": 424.9336069999873,
                    "velocity": 0.4409448818897638,
                    "duration": 0.07113049999998111
                },
                {
                    "name": "A5",
                    "midi": 81,
                    "time": 425.0047374999873,
                    "velocity": 0.3937007874015748,
                    "duration": 0.07113049999998111
                },
                {
                    "name": "E5",
                    "midi": 76,
                    "time": 425.0758679999873,
                    "velocity": 0.4409448818897638,
                    "duration": 0.07113049999998111
                },
                {
                    "name": "C#5",
                    "midi": 73,
                    "time": 425.14699849998726,
                    "velocity": 0.4094488188976378,
                    "duration": 0.07113049999998111
                },
                {
                    "name": "E5",
                    "midi": 76,
                    "time": 425.21812899998724,
                    "velocity": 0.4409448818897638,
                    "duration": 0.07113049999998111
                },
                {
                    "name": "C#5",
                    "midi": 73,
                    "time": 425.2892594999872,
                    "velocity": 0.41732283464566927,
                    "duration": 0.07113049999998111
                },
                {
                    "name": "A5",
                    "midi": 81,
                    "time": 425.3603899999872,
                    "velocity": 0.4566929133858268,
                    "duration": 0.07113049999998111
                },
                {
                    "name": "F5",
                    "midi": 77,
                    "time": 425.4315204999872,
                    "velocity": 0.41732283464566927,
                    "duration": 0.07113049999998111
                },
                {
                    "name": "A5",
                    "midi": 81,
                    "time": 425.50265099998717,
                    "velocity": 0.44881889763779526,
                    "duration": 0.07113049999998111
                },
                {
                    "name": "F5",
                    "midi": 77,
                    "time": 425.57378149998715,
                    "velocity": 0.4094488188976378,
                    "duration": 0.07113049999998111
                },
                {
                    "name": "F#5",
                    "midi": 78,
                    "time": 425.64491199998713,
                    "velocity": 0.44881889763779526,
                    "duration": 0.07113049999998111
                },
                {
                    "name": "D5",
                    "midi": 74,
                    "time": 425.7160424999871,
                    "velocity": 0.4094488188976378,
                    "duration": 0.07113049999998111
                },
                {
                    "name": "F#5",
                    "midi": 78,
                    "time": 425.7871729999871,
                    "velocity": 0.4251968503937008,
                    "duration": 0.07113049999998111
                },
                {
                    "name": "D5",
                    "midi": 74,
                    "time": 425.8583034999871,
                    "velocity": 0.4094488188976378,
                    "duration": 0.07113049999998111
                },
                {
                    "name": "D6",
                    "midi": 86,
                    "time": 425.92943399998705,
                    "velocity": 0.44881889763779526,
                    "duration": 0.07113049999998111
                },
                {
                    "name": "B5",
                    "midi": 83,
                    "time": 426.00056449998704,
                    "velocity": 0.4015748031496063,
                    "duration": 0.07113049999998111
                },
                {
                    "name": "D6",
                    "midi": 86,
                    "time": 426.071694999987,
                    "velocity": 0.4409448818897638,
                    "duration": 0.07113049999998111
                },
                {
                    "name": "B5",
                    "midi": 83,
                    "time": 426.142825499987,
                    "velocity": 0.3937007874015748,
                    "duration": 0.07113049999998111
                },
                {
                    "name": "G#5",
                    "midi": 80,
                    "time": 426.213955999987,
                    "velocity": 0.4409448818897638,
                    "duration": 0.07113049999998111
                },
                {
                    "name": "B5",
                    "midi": 83,
                    "time": 426.28508649998696,
                    "velocity": 0.4094488188976378,
                    "duration": 0.07113049999998111
                },
                {
                    "name": "G#5",
                    "midi": 80,
                    "time": 426.35621699998694,
                    "velocity": 0.4409448818897638,
                    "duration": 0.07113049999998111
                },
                {
                    "name": "B5",
                    "midi": 83,
                    "time": 426.4273474999869,
                    "velocity": 0.41732283464566927,
                    "duration": 0.07113049999998111
                },
                {
                    "name": "E6",
                    "midi": 88,
                    "time": 426.4984779999869,
                    "velocity": 0.4566929133858268,
                    "duration": 0.07113049999998111
                },
                {
                    "name": "C6",
                    "midi": 84,
                    "time": 426.5696084999869,
                    "velocity": 0.41732283464566927,
                    "duration": 0.07113049999998111
                },
                {
                    "name": "E6",
                    "midi": 88,
                    "time": 426.64073899998687,
                    "velocity": 0.44881889763779526,
                    "duration": 0.07113049999998111
                },
                {
                    "name": "C6",
                    "midi": 84,
                    "time": 426.71186949998685,
                    "velocity": 0.4094488188976378,
                    "duration": 0.07113049999998111
                },
                {
                    "name": "C#6",
                    "midi": 85,
                    "time": 426.7829999999868,
                    "velocity": 0.44881889763779526,
                    "duration": 0.07113049999998111
                },
                {
                    "name": "C6",
                    "midi": 84,
                    "time": 426.8541304999868,
                    "velocity": 0.41732283464566927,
                    "duration": 0.07113049999998111
                },
                {
                    "name": "C#6",
                    "midi": 85,
                    "time": 426.9252609999868,
                    "velocity": 0.4094488188976378,
                    "duration": 0.07113049999998111
                },
                {
                    "name": "G#5",
                    "midi": 80,
                    "time": 426.99639149998677,
                    "velocity": 0.4094488188976378,
                    "duration": 0.07113049999998111
                },
                {
                    "name": "A5",
                    "midi": 81,
                    "time": 427.06752199998675,
                    "velocity": 0.44881889763779526,
                    "duration": 0.07113049999998111
                },
                {
                    "name": "G#5",
                    "midi": 80,
                    "time": 427.13865249998673,
                    "velocity": 0.4015748031496063,
                    "duration": 0.07113049999998111
                },
                {
                    "name": "A5",
                    "midi": 81,
                    "time": 427.2097829999867,
                    "velocity": 0.4015748031496063,
                    "duration": 0.07113049999998111
                },
                {
                    "name": "D#5",
                    "midi": 75,
                    "time": 427.2809134999867,
                    "velocity": 0.3937007874015748,
                    "duration": 0.07113049999998111
                },
                {
                    "name": "E5",
                    "midi": 76,
                    "time": 427.3520439999867,
                    "velocity": 0.4330708661417323,
                    "duration": 0.07113049999998111
                },
                {
                    "name": "D#5",
                    "midi": 75,
                    "time": 427.42317449998666,
                    "velocity": 0.4015748031496063,
                    "duration": 0.07113049999998111
                },
                {
                    "name": "E5",
                    "midi": 76,
                    "time": 427.49430499998664,
                    "velocity": 0.4015748031496063,
                    "duration": 0.07113049999998111
                },
                {
                    "name": "C5",
                    "midi": 72,
                    "time": 427.5654354999866,
                    "velocity": 0.4015748031496063,
                    "duration": 0.07113049999998111
                },
                {
                    "name": "C#5",
                    "midi": 73,
                    "time": 427.6365659999866,
                    "velocity": 0.4251968503937008,
                    "duration": 0.07113049999998111
                },
                {
                    "name": "C5",
                    "midi": 72,
                    "time": 427.7076964999866,
                    "velocity": 0.3700787401574803,
                    "duration": 0.07113049999998111
                },
                {
                    "name": "C#5",
                    "midi": 73,
                    "time": 427.77882699998656,
                    "velocity": 0.3858267716535433,
                    "duration": 0.07113049999998111
                },
                {
                    "name": "G#4",
                    "midi": 68,
                    "time": 427.84995749998654,
                    "velocity": 0.3700787401574803,
                    "duration": 0.07113049999998111
                },
                {
                    "name": "A4",
                    "midi": 69,
                    "time": 427.9210879999865,
                    "velocity": 0.44881889763779526,
                    "duration": 0.07113049999998111
                },
                {
                    "name": "C6",
                    "midi": 84,
                    "time": 427.9922184999865,
                    "velocity": 0.41732283464566927,
                    "duration": 0.07113049999998111
                },
                {
                    "name": "C#6",
                    "midi": 85,
                    "time": 428.0633489999865,
                    "velocity": 0.4094488188976378,
                    "duration": 0.07113049999998111
                },
                {
                    "name": "G#5",
                    "midi": 80,
                    "time": 428.13447949998647,
                    "velocity": 0.4094488188976378,
                    "duration": 0.07113049999998111
                },
                {
                    "name": "A5",
                    "midi": 81,
                    "time": 428.20560999998645,
                    "velocity": 0.44881889763779526,
                    "duration": 0.07113049999998111
                },
                {
                    "name": "G#5",
                    "midi": 80,
                    "time": 428.27674049998643,
                    "velocity": 0.4015748031496063,
                    "duration": 0.07113049999998111
                },
                {
                    "name": "A5",
                    "midi": 81,
                    "time": 428.3478709999864,
                    "velocity": 0.4015748031496063,
                    "duration": 0.07113049999998111
                },
                {
                    "name": "D#5",
                    "midi": 75,
                    "time": 428.4190014999864,
                    "velocity": 0.3937007874015748,
                    "duration": 0.07113049999998111
                },
                {
                    "name": "E5",
                    "midi": 76,
                    "time": 428.4901319999864,
                    "velocity": 0.4330708661417323,
                    "duration": 0.07113049999998111
                },
                {
                    "name": "D#5",
                    "midi": 75,
                    "time": 428.56126249998636,
                    "velocity": 0.4015748031496063,
                    "duration": 0.07113049999998111
                },
                {
                    "name": "E5",
                    "midi": 76,
                    "time": 428.63239299998634,
                    "velocity": 0.4015748031496063,
                    "duration": 0.07113049999998111
                },
                {
                    "name": "C5",
                    "midi": 72,
                    "time": 428.7035234999863,
                    "velocity": 0.4015748031496063,
                    "duration": 0.07113049999998111
                },
                {
                    "name": "C#5",
                    "midi": 73,
                    "time": 428.7746539999863,
                    "velocity": 0.4251968503937008,
                    "duration": 0.07113049999998111
                },
                {
                    "name": "C5",
                    "midi": 72,
                    "time": 428.8457844999863,
                    "velocity": 0.3700787401574803,
                    "duration": 0.07113049999998111
                },
                {
                    "name": "C#5",
                    "midi": 73,
                    "time": 428.91691499998626,
                    "velocity": 0.3858267716535433,
                    "duration": 0.07113049999998111
                },
                {
                    "name": "G#4",
                    "midi": 68,
                    "time": 428.98804549998624,
                    "velocity": 0.3700787401574803,
                    "duration": 0.07113049999998111
                },
                {
                    "name": "A4",
                    "midi": 69,
                    "time": 429.0591759999862,
                    "velocity": 0.41732283464566927,
                    "duration": 0.07113049999998111
                },
                {
                    "name": "G#4",
                    "midi": 68,
                    "time": 429.1303064999862,
                    "velocity": 0.3858267716535433,
                    "duration": 0.07113049999998111
                },
                {
                    "name": "A4",
                    "midi": 69,
                    "time": 429.2014369999862,
                    "velocity": 0.3858267716535433,
                    "duration": 0.07113049999998111
                },
                {
                    "name": "B4",
                    "midi": 71,
                    "time": 429.27256749998617,
                    "velocity": 0.3858267716535433,
                    "duration": 0.07113049999998111
                },
                {
                    "name": "C#5",
                    "midi": 73,
                    "time": 429.34369799998615,
                    "velocity": 0.4330708661417323,
                    "duration": 0.07113049999998111
                },
                {
                    "name": "D5",
                    "midi": 74,
                    "time": 429.41482849998613,
                    "velocity": 0.3858267716535433,
                    "duration": 0.07113049999998111
                },
                {
                    "name": "C#5",
                    "midi": 73,
                    "time": 429.4859589999861,
                    "velocity": 0.3858267716535433,
                    "duration": 0.07113049999998111
                },
                {
                    "name": "B4",
                    "midi": 71,
                    "time": 429.5570894999861,
                    "velocity": 0.3858267716535433,
                    "duration": 0.07113049999998111
                },
                {
                    "name": "A4",
                    "midi": 69,
                    "time": 429.6282199999861,
                    "velocity": 0.4330708661417323,
                    "duration": 0.07113049999998111
                },
                {
                    "name": "B4",
                    "midi": 71,
                    "time": 429.69935049998605,
                    "velocity": 0.3937007874015748,
                    "duration": 0.07113049999998111
                },
                {
                    "name": "C#5",
                    "midi": 73,
                    "time": 429.77048099998603,
                    "velocity": 0.3937007874015748,
                    "duration": 0.07113049999998111
                },
                {
                    "name": "B4",
                    "midi": 71,
                    "time": 429.841611499986,
                    "velocity": 0.3937007874015748,
                    "duration": 0.07113049999998111
                },
                {
                    "name": "A4",
                    "midi": 69,
                    "time": 429.912741999986,
                    "velocity": 0.4330708661417323,
                    "duration": 0.07113049999998111
                },
                {
                    "name": "B4",
                    "midi": 71,
                    "time": 429.983872499986,
                    "velocity": 0.3937007874015748,
                    "duration": 0.07113049999998111
                },
                {
                    "name": "A4",
                    "midi": 69,
                    "time": 430.05500299998596,
                    "velocity": 0.4094488188976378,
                    "duration": 0.07113049999998111
                },
                {
                    "name": "G#4",
                    "midi": 68,
                    "time": 430.12613349998594,
                    "velocity": 0.4015748031496063,
                    "duration": 0.07113049999998111
                },
                {
                    "name": "G4",
                    "midi": 67,
                    "time": 430.1972639999859,
                    "velocity": 0.44881889763779526,
                    "duration": 0.09484066666664148
                },
                {
                    "name": "C#5",
                    "midi": 73,
                    "time": 430.29210466665256,
                    "velocity": 0.4094488188976378,
                    "duration": 0.09009863333335488
                },
                {
                    "name": "C#4",
                    "midi": 61,
                    "time": 430.38694533331926,
                    "velocity": 0.3543307086614173,
                    "duration": 0.09009863333335488
                },
                {
                    "name": "G4",
                    "midi": 67,
                    "time": 430.38694533331926,
                    "velocity": 0.3543307086614173,
                    "duration": 0.09009863333335488
                },
                {
                    "name": "C#5",
                    "midi": 73,
                    "time": 430.38694533331926,
                    "velocity": 0.4251968503937008,
                    "duration": 0.09009863333335488
                },
                {
                    "name": "C#4",
                    "midi": 61,
                    "time": 430.48178599998596,
                    "velocity": 0.3937007874015748,
                    "duration": 0.09009863333335488
                },
                {
                    "name": "G4",
                    "midi": 67,
                    "time": 430.48178599998596,
                    "velocity": 0.3937007874015748,
                    "duration": 0.09009863333335488
                },
                {
                    "name": "C#5",
                    "midi": 73,
                    "time": 430.48178599998596,
                    "velocity": 0.4645669291338583,
                    "duration": 0.09009863333335488
                },
                {
                    "name": "C#4",
                    "midi": 61,
                    "time": 430.57662666665266,
                    "velocity": 0.3700787401574803,
                    "duration": 0.09009863333335488
                },
                {
                    "name": "G4",
                    "midi": 67,
                    "time": 430.57662666665266,
                    "velocity": 0.3700787401574803,
                    "duration": 0.09009863333335488
                },
                {
                    "name": "C#5",
                    "midi": 73,
                    "time": 430.57662666665266,
                    "velocity": 0.4409448818897638,
                    "duration": 0.09009863333335488
                },
                {
                    "name": "C#4",
                    "midi": 61,
                    "time": 430.67146733331936,
                    "velocity": 0.3779527559055118,
                    "duration": 0.09009863333335488
                },
                {
                    "name": "G4",
                    "midi": 67,
                    "time": 430.67146733331936,
                    "velocity": 0.3779527559055118,
                    "duration": 0.09009863333335488
                },
                {
                    "name": "C#5",
                    "midi": 73,
                    "time": 430.67146733331936,
                    "velocity": 0.44881889763779526,
                    "duration": 0.09009863333335488
                },
                {
                    "name": "C#4",
                    "midi": 61,
                    "time": 430.76630799998605,
                    "velocity": 0.4094488188976378,
                    "duration": 0.09009863333335488
                },
                {
                    "name": "G4",
                    "midi": 67,
                    "time": 430.76630799998605,
                    "velocity": 0.4094488188976378,
                    "duration": 0.09009863333335488
                },
                {
                    "name": "C#5",
                    "midi": 73,
                    "time": 430.76630799998605,
                    "velocity": 0.4881889763779528,
                    "duration": 0.09009863333335488
                },
                {
                    "name": "C#4",
                    "midi": 61,
                    "time": 430.86114866665275,
                    "velocity": 0.3700787401574803,
                    "duration": 0.09009863333335488
                },
                {
                    "name": "G4",
                    "midi": 67,
                    "time": 430.86114866665275,
                    "velocity": 0.3700787401574803,
                    "duration": 0.09009863333335488
                },
                {
                    "name": "C#5",
                    "midi": 73,
                    "time": 430.86114866665275,
                    "velocity": 0.4409448818897638,
                    "duration": 0.09009863333335488
                },
                {
                    "name": "C#4",
                    "midi": 61,
                    "time": 430.95598933331945,
                    "velocity": 0.3700787401574803,
                    "duration": 0.09009863333335488
                },
                {
                    "name": "G4",
                    "midi": 67,
                    "time": 430.95598933331945,
                    "velocity": 0.3700787401574803,
                    "duration": 0.09009863333335488
                },
                {
                    "name": "C#5",
                    "midi": 73,
                    "time": 430.95598933331945,
                    "velocity": 0.44881889763779526,
                    "duration": 0.09009863333335488
                },
                {
                    "name": "C#4",
                    "midi": 61,
                    "time": 431.05082999998615,
                    "velocity": 0.4330708661417323,
                    "duration": 0.09009863333335488
                },
                {
                    "name": "G4",
                    "midi": 67,
                    "time": 431.05082999998615,
                    "velocity": 0.4330708661417323,
                    "duration": 0.09009863333335488
                },
                {
                    "name": "C#5",
                    "midi": 73,
                    "time": 431.05082999998615,
                    "velocity": 0.5118110236220472,
                    "duration": 0.09009863333335488
                },
                {
                    "name": "C#4",
                    "midi": 61,
                    "time": 431.14567066665285,
                    "velocity": 0.4015748031496063,
                    "duration": 0.09009863333335488
                },
                {
                    "name": "G4",
                    "midi": 67,
                    "time": 431.14567066665285,
                    "velocity": 0.4015748031496063,
                    "duration": 0.09009863333335488
                },
                {
                    "name": "C#5",
                    "midi": 73,
                    "time": 431.14567066665285,
                    "velocity": 0.48031496062992124,
                    "duration": 0.09009863333335488
                },
                {
                    "name": "C#4",
                    "midi": 61,
                    "time": 431.24051133331955,
                    "velocity": 0.4094488188976378,
                    "duration": 0.09009863333335488
                },
                {
                    "name": "G4",
                    "midi": 67,
                    "time": 431.24051133331955,
                    "velocity": 0.4094488188976378,
                    "duration": 0.09009863333335488
                },
                {
                    "name": "C#5",
                    "midi": 73,
                    "time": 431.24051133331955,
                    "velocity": 0.4881889763779528,
                    "duration": 0.09009863333335488
                },
                {
                    "name": "C#4",
                    "midi": 61,
                    "time": 431.33535199998624,
                    "velocity": 0.44881889763779526,
                    "duration": 0.09009863333335488
                },
                {
                    "name": "G4",
                    "midi": 67,
                    "time": 431.33535199998624,
                    "velocity": 0.44881889763779526,
                    "duration": 0.09009863333335488
                },
                {
                    "name": "C#5",
                    "midi": 73,
                    "time": 431.33535199998624,
                    "velocity": 0.5275590551181102,
                    "duration": 0.09009863333335488
                },
                {
                    "name": "C#4",
                    "midi": 61,
                    "time": 431.43019266665294,
                    "velocity": 0.41732283464566927,
                    "duration": 0.09009863333335488
                },
                {
                    "name": "G4",
                    "midi": 67,
                    "time": 431.43019266665294,
                    "velocity": 0.41732283464566927,
                    "duration": 0.09009863333335488
                },
                {
                    "name": "C#5",
                    "midi": 73,
                    "time": 431.43019266665294,
                    "velocity": 0.5039370078740157,
                    "duration": 0.09009863333335488
                },
                {
                    "name": "C#4",
                    "midi": 61,
                    "time": 431.52503333331964,
                    "velocity": 0.4330708661417323,
                    "duration": 0.09009863333335488
                },
                {
                    "name": "G4",
                    "midi": 67,
                    "time": 431.52503333331964,
                    "velocity": 0.4330708661417323,
                    "duration": 0.09009863333335488
                },
                {
                    "name": "C#5",
                    "midi": 73,
                    "time": 431.52503333331964,
                    "velocity": 0.5118110236220472,
                    "duration": 0.09009863333335488
                },
                {
                    "name": "C#4",
                    "midi": 61,
                    "time": 431.61987399998634,
                    "velocity": 0.4645669291338583,
                    "duration": 0.09009863333335488
                },
                {
                    "name": "G4",
                    "midi": 67,
                    "time": 431.61987399998634,
                    "velocity": 0.4645669291338583,
                    "duration": 0.09009863333335488
                },
                {
                    "name": "C#5",
                    "midi": 73,
                    "time": 431.61987399998634,
                    "velocity": 0.5590551181102362,
                    "duration": 0.09009863333335488
                },
                {
                    "name": "C#4",
                    "midi": 61,
                    "time": 431.71471466665304,
                    "velocity": 0.4409448818897638,
                    "duration": 0.09009863333335488
                },
                {
                    "name": "G4",
                    "midi": 67,
                    "time": 431.71471466665304,
                    "velocity": 0.4409448818897638,
                    "duration": 0.09009863333335488
                },
                {
                    "name": "C#5",
                    "midi": 73,
                    "time": 431.71471466665304,
                    "velocity": 0.5275590551181102,
                    "duration": 0.09009863333335488
                },
                {
                    "name": "C#4",
                    "midi": 61,
                    "time": 431.80955533331974,
                    "velocity": 0.44881889763779526,
                    "duration": 0.09009863333335488
                },
                {
                    "name": "G4",
                    "midi": 67,
                    "time": 431.80955533331974,
                    "velocity": 0.44881889763779526,
                    "duration": 0.09009863333335488
                },
                {
                    "name": "C#5",
                    "midi": 73,
                    "time": 431.80955533331974,
                    "velocity": 0.5433070866141733,
                    "duration": 0.09009863333335488
                },
                {
                    "name": "C#4",
                    "midi": 61,
                    "time": 431.90439599998643,
                    "velocity": 0.4881889763779528,
                    "duration": 0.09009863333335488
                },
                {
                    "name": "G4",
                    "midi": 67,
                    "time": 431.90439599998643,
                    "velocity": 0.4881889763779528,
                    "duration": 0.09009863333335488
                },
                {
                    "name": "C#5",
                    "midi": 73,
                    "time": 431.90439599998643,
                    "velocity": 0.5826771653543307,
                    "duration": 0.09009863333335488
                },
                {
                    "name": "C#4",
                    "midi": 61,
                    "time": 431.99923666665313,
                    "velocity": 0.4645669291338583,
                    "duration": 0.09009863333335488
                },
                {
                    "name": "G4",
                    "midi": 67,
                    "time": 431.99923666665313,
                    "velocity": 0.4645669291338583,
                    "duration": 0.09009863333335488
                },
                {
                    "name": "C#5",
                    "midi": 73,
                    "time": 431.99923666665313,
                    "velocity": 0.5590551181102362,
                    "duration": 0.09009863333335488
                },
                {
                    "name": "C#4",
                    "midi": 61,
                    "time": 432.09407733331983,
                    "velocity": 0.47244094488188976,
                    "duration": 0.09009863333335488
                },
                {
                    "name": "G4",
                    "midi": 67,
                    "time": 432.09407733331983,
                    "velocity": 0.47244094488188976,
                    "duration": 0.09009863333335488
                },
                {
                    "name": "C#5",
                    "midi": 73,
                    "time": 432.09407733331983,
                    "velocity": 0.5669291338582677,
                    "duration": 0.09009863333335488
                },
                {
                    "name": "F4",
                    "midi": 65,
                    "time": 432.18891799998653,
                    "velocity": 0.5669291338582677,
                    "duration": 0.09009863333335488
                },
                {
                    "name": "D4",
                    "midi": 62,
                    "time": 432.18891799998653,
                    "velocity": 0.5669291338582677,
                    "duration": 0.09009863333335488
                },
                {
                    "name": "D5",
                    "midi": 74,
                    "time": 432.18891799998653,
                    "velocity": 0.6692913385826772,
                    "duration": 0.09009863333335488
                },
                {
                    "name": "F4",
                    "midi": 65,
                    "time": 432.2837586666532,
                    "velocity": 0.5275590551181102,
                    "duration": 0.09009863333335488
                },
                {
                    "name": "D4",
                    "midi": 62,
                    "time": 432.2837586666532,
                    "velocity": 0.5275590551181102,
                    "duration": 0.09009863333335488
                },
                {
                    "name": "D5",
                    "midi": 74,
                    "time": 432.2837586666532,
                    "velocity": 0.6299212598425197,
                    "duration": 0.09009863333335488
                },
                {
                    "name": "F4",
                    "midi": 65,
                    "time": 432.3785993333199,
                    "velocity": 0.5275590551181102,
                    "duration": 0.09009863333335488
                },
                {
                    "name": "D4",
                    "midi": 62,
                    "time": 432.3785993333199,
                    "velocity": 0.5275590551181102,
                    "duration": 0.09009863333335488
                },
                {
                    "name": "D5",
                    "midi": 74,
                    "time": 432.3785993333199,
                    "velocity": 0.6299212598425197,
                    "duration": 0.09009863333335488
                },
                {
                    "name": "D4",
                    "midi": 62,
                    "time": 432.4734399999866,
                    "velocity": 0.49606299212598426,
                    "duration": 0.2845219999999813
                },
                {
                    "name": "F4",
                    "midi": 65,
                    "time": 432.4734399999866,
                    "velocity": 0.6062992125984252,
                    "duration": 0.2845219999999813
                },
                {
                    "name": "D5",
                    "midi": 74,
                    "time": 432.4734399999866,
                    "velocity": 0.7086614173228346,
                    "duration": 0.2845219999999813
                },
                {
                    "name": "C4",
                    "midi": 60,
                    "time": 432.7579619999866,
                    "velocity": 0.47244094488188976,
                    "duration": 0.2845219999999813
                },
                {
                    "name": "A4",
                    "midi": 69,
                    "time": 432.7579619999866,
                    "velocity": 0.5669291338582677,
                    "duration": 0.2845219999999813
                },
                {
                    "name": "C5",
                    "midi": 72,
                    "time": 432.7579619999866,
                    "velocity": 0.6692913385826772,
                    "duration": 0.2845219999999813
                },
                {
                    "name": "A#3",
                    "midi": 58,
                    "time": 433.0424839999866,
                    "velocity": 0.47244094488188976,
                    "duration": 0.2845219999999813
                },
                {
                    "name": "F4",
                    "midi": 65,
                    "time": 433.0424839999866,
                    "velocity": 0.5669291338582677,
                    "duration": 0.2845219999999813
                },
                {
                    "name": "A#4",
                    "midi": 70,
                    "time": 433.0424839999866,
                    "velocity": 0.6692913385826772,
                    "duration": 0.2845219999999813
                },
                {
                    "name": "C4",
                    "midi": 60,
                    "time": 433.32700599998657,
                    "velocity": 0.47244094488188976,
                    "duration": 0.2845219999999813
                },
                {
                    "name": "F4",
                    "midi": 65,
                    "time": 433.32700599998657,
                    "velocity": 0.5669291338582677,
                    "duration": 0.2845219999999813
                },
                {
                    "name": "C5",
                    "midi": 72,
                    "time": 433.32700599998657,
                    "velocity": 0.6692913385826772,
                    "duration": 0.2845219999999813
                },
                {
                    "name": "D4",
                    "midi": 62,
                    "time": 433.61152799998655,
                    "velocity": 0.5039370078740157,
                    "duration": 0.8535660000000007
                },
                {
                    "name": "F4",
                    "midi": 65,
                    "time": 433.61152799998655,
                    "velocity": 0.6141732283464567,
                    "duration": 0.8535660000000007
                },
                {
                    "name": "D5",
                    "midi": 74,
                    "time": 433.61152799998655,
                    "velocity": 0.7244094488188977,
                    "duration": 0.8535660000000007
                },
                {
                    "name": "C4",
                    "midi": 60,
                    "time": 434.46509399998655,
                    "velocity": 0.4881889763779528,
                    "duration": 0.14226100000001907
                },
                {
                    "name": "F4",
                    "midi": 65,
                    "time": 434.46509399998655,
                    "velocity": 0.5826771653543307,
                    "duration": 0.14226100000001907
                },
                {
                    "name": "C5",
                    "midi": 72,
                    "time": 434.46509399998655,
                    "velocity": 0.7007874015748031,
                    "duration": 0.14226100000001907
                },
                {
                    "name": "A#3",
                    "midi": 58,
                    "time": 434.60735499998657,
                    "velocity": 0.4566929133858268,
                    "duration": 0.14226100000001907
                },
                {
                    "name": "F4",
                    "midi": 65,
                    "time": 434.60735499998657,
                    "velocity": 0.5433070866141733,
                    "duration": 0.14226100000001907
                },
                {
                    "name": "A#4",
                    "midi": 70,
                    "time": 434.60735499998657,
                    "velocity": 0.6456692913385826,
                    "duration": 0.14226100000001907
                },
                {
                    "name": "C4",
                    "midi": 60,
                    "time": 434.7496159999866,
                    "velocity": 0.48031496062992124,
                    "duration": 0.28155822916664874
                },
                {
                    "name": "F4",
                    "midi": 65,
                    "time": 434.7496159999866,
                    "velocity": 0.5748031496062992,
                    "duration": 0.28155822916664874
                },
                {
                    "name": "C5",
                    "midi": 72,
                    "time": 434.7496159999866,
                    "velocity": 0.6929133858267716,
                    "duration": 0.28155822916664874
                },
                {
                    "name": "C4",
                    "midi": 60,
                    "time": 435.03413799998657,
                    "velocity": 0.4645669291338583,
                    "duration": 0.28155822916664874
                },
                {
                    "name": "F4",
                    "midi": 65,
                    "time": 435.03413799998657,
                    "velocity": 0.5590551181102362,
                    "duration": 0.28155822916664874
                },
                {
                    "name": "C5",
                    "midi": 72,
                    "time": 435.03413799998657,
                    "velocity": 0.6614173228346457,
                    "duration": 0.28155822916664874
                },
                {
                    "name": "C4",
                    "midi": 60,
                    "time": 435.31865999998655,
                    "velocity": 0.4645669291338583,
                    "duration": 0.28155822916664874
                },
                {
                    "name": "F4",
                    "midi": 65,
                    "time": 435.31865999998655,
                    "velocity": 0.5511811023622047,
                    "duration": 0.28155822916664874
                },
                {
                    "name": "C5",
                    "midi": 72,
                    "time": 435.31865999998655,
                    "velocity": 0.6535433070866141,
                    "duration": 0.28155822916664874
                },
                {
                    "name": "A#3",
                    "midi": 58,
                    "time": 435.60318199998653,
                    "velocity": 0.48031496062992124,
                    "duration": 0.14226100000001907
                },
                {
                    "name": "F4",
                    "midi": 65,
                    "time": 435.60318199998653,
                    "velocity": 0.5748031496062992,
                    "duration": 0.14226100000001907
                },
                {
                    "name": "A#4",
                    "midi": 70,
                    "time": 435.60318199998653,
                    "velocity": 0.6929133858267716,
                    "duration": 0.14226100000001907
                },
                {
                    "name": "A3",
                    "midi": 57,
                    "time": 435.74544299998655,
                    "velocity": 0.4566929133858268,
                    "duration": 0.14226100000001907
                },
                {
                    "name": "F4",
                    "midi": 65,
                    "time": 435.74544299998655,
                    "velocity": 0.5433070866141733,
                    "duration": 0.14226100000001907
                },
                {
                    "name": "A4",
                    "midi": 69,
                    "time": 435.74544299998655,
                    "velocity": 0.6456692913385826,
                    "duration": 0.14226100000001907
                },
                {
                    "name": "F4",
                    "midi": 65,
                    "time": 435.88770399998657,
                    "velocity": 0.5905511811023622,
                    "duration": 0.2845219999999813
                },
                {
                    "name": "A#3",
                    "midi": 58,
                    "time": 435.88770399998657,
                    "velocity": 0.5905511811023622,
                    "duration": 0.8535659999999439
                },
                {
                    "name": "A#4",
                    "midi": 70,
                    "time": 435.88770399998657,
                    "velocity": 0.7086614173228346,
                    "duration": 0.8535659999999439
                },
                {
                    "name": "D#4",
                    "midi": 63,
                    "time": 436.17222599998655,
                    "velocity": 0.5748031496062992,
                    "duration": 0.2845219999999813
                },
                {
                    "name": "G4",
                    "midi": 67,
                    "time": 436.17222599998655,
                    "velocity": 0.6929133858267716,
                    "duration": 0.2845219999999813
                },
                {
                    "name": "D4",
                    "midi": 62,
                    "time": 436.45674799998653,
                    "velocity": 0.5511811023622047,
                    "duration": 0.2845219999999813
                },
                {
                    "name": "F4",
                    "midi": 65,
                    "time": 436.45674799998653,
                    "velocity": 0.6535433070866141,
                    "duration": 0.2845219999999813
                },
                {
                    "name": "D4",
                    "midi": 62,
                    "time": 436.7412699999865,
                    "velocity": 0.5039370078740157,
                    "duration": 0.2845219999999813
                },
                {
                    "name": "F4",
                    "midi": 65,
                    "time": 436.7412699999865,
                    "velocity": 0.5905511811023622,
                    "duration": 0.2845219999999813
                },
                {
                    "name": "D5",
                    "midi": 74,
                    "time": 436.7412699999865,
                    "velocity": 0.7007874015748031,
                    "duration": 0.2845219999999813
                },
                {
                    "name": "D4",
                    "midi": 62,
                    "time": 437.0257919999865,
                    "velocity": 0.5039370078740157,
                    "duration": 0.8535660000000007
                },
                {
                    "name": "G4",
                    "midi": 67,
                    "time": 437.0257919999865,
                    "velocity": 0.5905511811023622,
                    "duration": 0.8535660000000007
                },
                {
                    "name": "D5",
                    "midi": 74,
                    "time": 437.0257919999865,
                    "velocity": 0.7007874015748031,
                    "duration": 0.8535660000000007
                },
                {
                    "name": "C4",
                    "midi": 60,
                    "time": 437.8793579999865,
                    "velocity": 0.4645669291338583,
                    "duration": 0.14226100000001907
                },
                {
                    "name": "G4",
                    "midi": 67,
                    "time": 437.8793579999865,
                    "velocity": 0.5590551181102362,
                    "duration": 0.14226100000001907
                },
                {
                    "name": "C5",
                    "midi": 72,
                    "time": 437.8793579999865,
                    "velocity": 0.6614173228346457,
                    "duration": 0.14226100000001907
                },
                {
                    "name": "B3",
                    "midi": 59,
                    "time": 438.0216189999865,
                    "velocity": 0.4409448818897638,
                    "duration": 0.14226100000001907
                },
                {
                    "name": "G4",
                    "midi": 67,
                    "time": 438.0216189999865,
                    "velocity": 0.5275590551181102,
                    "duration": 0.14226100000001907
                },
                {
                    "name": "B4",
                    "midi": 71,
                    "time": 438.0216189999865,
                    "velocity": 0.6220472440944882,
                    "duration": 0.14226100000001907
                },
                {
                    "name": "D#4",
                    "midi": 63,
                    "time": 438.16387999998653,
                    "velocity": 0.5275590551181102,
                    "duration": 0.2845219999999813
                },
                {
                    "name": "G4",
                    "midi": 67,
                    "time": 438.16387999998653,
                    "velocity": 0.6220472440944882,
                    "duration": 0.2845219999999813
                },
                {
                    "name": "D#5",
                    "midi": 75,
                    "time": 438.16387999998653,
                    "velocity": 0.7401574803149606,
                    "duration": 0.2845219999999813
                },
                {
                    "name": "D4",
                    "midi": 62,
                    "time": 438.4484019999865,
                    "velocity": 0.5118110236220472,
                    "duration": 0.2845219999999813
                },
                {
                    "name": "G4",
                    "midi": 67,
                    "time": 438.4484019999865,
                    "velocity": 0.5984251968503937,
                    "duration": 0.2845219999999813
                },
                {
                    "name": "D5",
                    "midi": 74,
                    "time": 438.4484019999865,
                    "velocity": 0.7165354330708661,
                    "duration": 0.2845219999999813
                },
                {
                    "name": "C4",
                    "midi": 60,
                    "time": 438.7329239999865,
                    "velocity": 0.49606299212598426,
                    "duration": 0.2845219999999813
                },
                {
                    "name": "G4",
                    "midi": 67,
                    "time": 438.7329239999865,
                    "velocity": 0.5826771653543307,
                    "duration": 0.2845219999999813
                },
                {
                    "name": "C5",
                    "midi": 72,
                    "time": 438.7329239999865,
                    "velocity": 0.6929133858267716,
                    "duration": 0.2845219999999813
                },
                {
                    "name": "C4",
                    "midi": 60,
                    "time": 439.0174459999865,
                    "velocity": 0.47244094488188976,
                    "duration": 0.2845219999999813
                },
                {
                    "name": "A4",
                    "midi": 69,
                    "time": 439.0174459999865,
                    "velocity": 0.5669291338582677,
                    "duration": 0.2845219999999813
                },
                {
                    "name": "C5",
                    "midi": 72,
                    "time": 439.0174459999865,
                    "velocity": 0.6771653543307087,
                    "duration": 0.2845219999999813
                },
                {
                    "name": "F4",
                    "midi": 65,
                    "time": 439.30196799998646,
                    "velocity": 0.5984251968503937,
                    "duration": 0.8535660000000007
                },
                {
                    "name": "C4",
                    "midi": 60,
                    "time": 439.30196799998646,
                    "velocity": 0.5118110236220472,
                    "duration": 0.8535660000000007
                },
                {
                    "name": "A4",
                    "midi": 69,
                    "time": 439.30196799998646,
                    "velocity": 0.6141732283464567,
                    "duration": 0.8535660000000007
                },
                {
                    "name": "C5",
                    "midi": 72,
                    "time": 439.30196799998646,
                    "velocity": 0.7007874015748031,
                    "duration": 0.8535660000000007
                },
                {
                    "name": "A#3",
                    "midi": 58,
                    "time": 440.15553399998646,
                    "velocity": 0.49606299212598426,
                    "duration": 0.14226100000001907
                },
                {
                    "name": "F4",
                    "midi": 65,
                    "time": 440.15553399998646,
                    "velocity": 0.5826771653543307,
                    "duration": 0.14226100000001907
                },
                {
                    "name": "A#4",
                    "midi": 70,
                    "time": 440.15553399998646,
                    "velocity": 0.6929133858267716,
                    "duration": 0.14226100000001907
                },
                {
                    "name": "A3",
                    "midi": 57,
                    "time": 440.2977949999865,
                    "velocity": 0.44881889763779526,
                    "duration": 0.14226100000001907
                },
                {
                    "name": "F4",
                    "midi": 65,
                    "time": 440.2977949999865,
                    "velocity": 0.5354330708661418,
                    "duration": 0.14226100000001907
                },
                {
                    "name": "A4",
                    "midi": 69,
                    "time": 440.2977949999865,
                    "velocity": 0.6299212598425197,
                    "duration": 0.14226100000001907
                },
                {
                    "name": "D4",
                    "midi": 62,
                    "time": 440.4400559999865,
                    "velocity": 0.5118110236220472,
                    "duration": 0.2845219999999813
                },
                {
                    "name": "F4",
                    "midi": 65,
                    "time": 440.4400559999865,
                    "velocity": 0.6062992125984252,
                    "duration": 0.2845219999999813
                },
                {
                    "name": "D5",
                    "midi": 74,
                    "time": 440.4400559999865,
                    "velocity": 0.7244094488188977,
                    "duration": 0.2845219999999813
                },
                {
                    "name": "A3",
                    "midi": 57,
                    "time": 440.7245779999865,
                    "velocity": 0.48031496062992124,
                    "duration": 0.2845219999999813
                },
                {
                    "name": "F4",
                    "midi": 65,
                    "time": 440.7245779999865,
                    "velocity": 0.5748031496062992,
                    "duration": 0.2845219999999813
                },
                {
                    "name": "A4",
                    "midi": 69,
                    "time": 440.7245779999865,
                    "velocity": 0.6850393700787402,
                    "duration": 0.2845219999999813
                },
                {
                    "name": "A#3",
                    "midi": 58,
                    "time": 441.00909999998646,
                    "velocity": 0.5118110236220472,
                    "duration": 0.2845219999999813
                },
                {
                    "name": "F4",
                    "midi": 65,
                    "time": 441.00909999998646,
                    "velocity": 0.6062992125984252,
                    "duration": 0.2845219999999813
                },
                {
                    "name": "A#4",
                    "midi": 70,
                    "time": 441.00909999998646,
                    "velocity": 0.7244094488188977,
                    "duration": 0.2845219999999813
                },
                {
                    "name": "F4",
                    "midi": 65,
                    "time": 441.29362199998644,
                    "velocity": 0.5511811023622047,
                    "duration": 0.2845219999999813
                },
                {
                    "name": "C4",
                    "midi": 60,
                    "time": 441.29362199998644,
                    "velocity": 0.4645669291338583,
                    "duration": 0.2845219999999813
                },
                {
                    "name": "A4",
                    "midi": 69,
                    "time": 441.29362199998644,
                    "velocity": 0.5511811023622047,
                    "duration": 0.2845219999999813
                },
                {
                    "name": "C5",
                    "midi": 72,
                    "time": 441.29362199998644,
                    "velocity": 0.6456692913385826,
                    "duration": 0.2845219999999813
                },
                {
                    "name": "F4",
                    "midi": 65,
                    "time": 441.5781439999864,
                    "velocity": 0.5905511811023622,
                    "duration": 1.7071320000000014
                },
                {
                    "name": "C4",
                    "midi": 60,
                    "time": 441.5781439999864,
                    "velocity": 0.5039370078740157,
                    "duration": 1.138087999999982
                },
                {
                    "name": "A4",
                    "midi": 69,
                    "time": 441.5781439999864,
                    "velocity": 0.5905511811023622,
                    "duration": 1.138087999999982
                },
                {
                    "name": "C5",
                    "midi": 72,
                    "time": 441.5781439999864,
                    "velocity": 0.7007874015748031,
                    "duration": 1.138087999999982
                },
                {
                    "name": "B3",
                    "midi": 59,
                    "time": 442.7162319999864,
                    "velocity": 0.48031496062992124,
                    "duration": 0.8535660000000007
                },
                {
                    "name": "G#4",
                    "midi": 68,
                    "time": 442.7162319999864,
                    "velocity": 0.48031496062992124,
                    "duration": 0.8535660000000007
                },
                {
                    "name": "B4",
                    "midi": 71,
                    "time": 442.7162319999864,
                    "velocity": 0.5748031496062992,
                    "duration": 0.8535660000000007
                },
                {
                    "name": "D4",
                    "midi": 62,
                    "time": 443.5697979999864,
                    "velocity": 0.4330708661417323,
                    "duration": 0.2845219999999813
                },
                {
                    "name": "F4",
                    "midi": 65,
                    "time": 443.5697979999864,
                    "velocity": 0.4330708661417323,
                    "duration": 0.2845219999999813
                },
                {
                    "name": "G#4",
                    "midi": 68,
                    "time": 443.5697979999864,
                    "velocity": 0.4330708661417323,
                    "duration": 0.2845219999999813
                },
                {
                    "name": "B4",
                    "midi": 71,
                    "time": 443.5697979999864,
                    "velocity": 0.5196850393700787,
                    "duration": 0.2845219999999813
                },
                {
                    "name": "D4",
                    "midi": 62,
                    "time": 443.8543199999864,
                    "velocity": 0.4330708661417323,
                    "duration": 0.8535660000000007
                },
                {
                    "name": "F4",
                    "midi": 65,
                    "time": 443.8543199999864,
                    "velocity": 0.4330708661417323,
                    "duration": 0.8535660000000007
                },
                {
                    "name": "G#4",
                    "midi": 68,
                    "time": 443.8543199999864,
                    "velocity": 0.4330708661417323,
                    "duration": 0.8535660000000007
                },
                {
                    "name": "B4",
                    "midi": 71,
                    "time": 443.8543199999864,
                    "velocity": 0.5196850393700787,
                    "duration": 0.8535660000000007
                },
                {
                    "name": "F4",
                    "midi": 65,
                    "time": 444.7078859999864,
                    "velocity": 0.5196850393700787,
                    "duration": 0.2845219999999813
                },
                {
                    "name": "B4",
                    "midi": 71,
                    "time": 444.7078859999864,
                    "velocity": 0.5196850393700787,
                    "duration": 0.2845219999999813
                },
                {
                    "name": "D5",
                    "midi": 74,
                    "time": 444.7078859999864,
                    "velocity": 0.6141732283464567,
                    "duration": 0.2845219999999813
                },
                {
                    "name": "F#4",
                    "midi": 66,
                    "time": 444.99240799998637,
                    "velocity": 0.5669291338582677,
                    "duration": 0.7113050000000385
                },
                {
                    "name": "B4",
                    "midi": 71,
                    "time": 444.99240799998637,
                    "velocity": 0.5669291338582677,
                    "duration": 0.5690440000000194
                },
                {
                    "name": "D5",
                    "midi": 74,
                    "time": 444.99240799998637,
                    "velocity": 0.6771653543307087,
                    "duration": 0.5690440000000194
                },
                {
                    "name": "A#4",
                    "midi": 70,
                    "time": 445.5614519999864,
                    "velocity": 0.5748031496062992,
                    "duration": 0.14226100000001907
                },
                {
                    "name": "C#5",
                    "midi": 73,
                    "time": 445.5614519999864,
                    "velocity": 0.6771653543307087,
                    "duration": 0.14226100000001907
                },
                {
                    "name": "C#5",
                    "midi": 73,
                    "time": 445.8459739999864,
                    "velocity": 0.6299212598425197,
                    "duration": 0.14226100000001907
                },
                {
                    "name": "E5",
                    "midi": 76,
                    "time": 445.8459739999864,
                    "velocity": 0.6299212598425197,
                    "duration": 0.14226100000001907
                },
                {
                    "name": "F#5",
                    "midi": 78,
                    "time": 445.8459739999864,
                    "velocity": 0.6299212598425197,
                    "duration": 0.14226100000001907
                },
                {
                    "name": "A#5",
                    "midi": 82,
                    "time": 445.8459739999864,
                    "velocity": 0.7559055118110236,
                    "duration": 0.14226100000001907
                },
                {
                    "name": "F#5",
                    "midi": 78,
                    "time": 446.13049599998646,
                    "velocity": 0.6062992125984252,
                    "duration": 0.09009863333335488
                },
                {
                    "name": "D5",
                    "midi": 74,
                    "time": 446.13049599998646,
                    "velocity": 0.6062992125984252,
                    "duration": 0.09009863333335488
                },
                {
                    "name": "B5",
                    "midi": 83,
                    "time": 446.13049599998646,
                    "velocity": 0.7244094488188977,
                    "duration": 0.09009863333335488
                },
                {
                    "name": "D5",
                    "midi": 74,
                    "time": 446.22533666665316,
                    "velocity": 0.2204724409448819,
                    "duration": 0.09009863333335488
                },
                {
                    "name": "F#5",
                    "midi": 78,
                    "time": 446.22533666665316,
                    "velocity": 0.2677165354330709,
                    "duration": 0.09009863333335488
                },
                {
                    "name": "D5",
                    "midi": 74,
                    "time": 446.32017733331986,
                    "velocity": 0.23622047244094488,
                    "duration": 0.09009863333335488
                },
                {
                    "name": "F#5",
                    "midi": 78,
                    "time": 446.32017733331986,
                    "velocity": 0.28346456692913385,
                    "duration": 0.09009863333335488
                },
                {
                    "name": "D5",
                    "midi": 74,
                    "time": 446.41501799998656,
                    "velocity": 0.25196850393700787,
                    "duration": 0.09009863333335488
                },
                {
                    "name": "F#5",
                    "midi": 78,
                    "time": 446.41501799998656,
                    "velocity": 0.2992125984251969,
                    "duration": 0.09009863333335488
                },
                {
                    "name": "D5",
                    "midi": 74,
                    "time": 446.50985866665326,
                    "velocity": 0.2283464566929134,
                    "duration": 0.09009863333335488
                },
                {
                    "name": "F#5",
                    "midi": 78,
                    "time": 446.50985866665326,
                    "velocity": 0.2755905511811024,
                    "duration": 0.09009863333335488
                },
                {
                    "name": "D5",
                    "midi": 74,
                    "time": 446.60469933331996,
                    "velocity": 0.2283464566929134,
                    "duration": 0.09009863333335488
                },
                {
                    "name": "F#5",
                    "midi": 78,
                    "time": 446.60469933331996,
                    "velocity": 0.2755905511811024,
                    "duration": 0.09009863333335488
                },
                {
                    "name": "D5",
                    "midi": 74,
                    "time": 446.69953999998665,
                    "velocity": 0.25196850393700787,
                    "duration": 0.09009863333335488
                },
                {
                    "name": "F#5",
                    "midi": 78,
                    "time": 446.69953999998665,
                    "velocity": 0.2992125984251969,
                    "duration": 0.09009863333335488
                },
                {
                    "name": "D5",
                    "midi": 74,
                    "time": 446.79438066665335,
                    "velocity": 0.2283464566929134,
                    "duration": 0.09009863333335488
                },
                {
                    "name": "F#5",
                    "midi": 78,
                    "time": 446.79438066665335,
                    "velocity": 0.2755905511811024,
                    "duration": 0.09009863333335488
                },
                {
                    "name": "D5",
                    "midi": 74,
                    "time": 446.88922133332005,
                    "velocity": 0.2283464566929134,
                    "duration": 0.09484066666664148
                },
                {
                    "name": "F#5",
                    "midi": 78,
                    "time": 446.88922133332005,
                    "velocity": 0.2755905511811024,
                    "duration": 0.09484066666664148
                },
                {
                    "name": "B5",
                    "midi": 83,
                    "time": 446.9840619999867,
                    "velocity": 0.4251968503937008,
                    "duration": 0.28452200000003813
                },
                {
                    "name": "D5",
                    "midi": 74,
                    "time": 447.07890266665333,
                    "velocity": 0.2125984251968504,
                    "duration": 0.09009863333335488
                },
                {
                    "name": "F#5",
                    "midi": 78,
                    "time": 447.07890266665333,
                    "velocity": 0.25196850393700787,
                    "duration": 0.09009863333335488
                },
                {
                    "name": "D5",
                    "midi": 74,
                    "time": 447.17374333332003,
                    "velocity": 0.2125984251968504,
                    "duration": 0.09009863333335488
                },
                {
                    "name": "F#5",
                    "midi": 78,
                    "time": 447.17374333332003,
                    "velocity": 0.25196850393700787,
                    "duration": 0.09009863333335488
                },
                {
                    "name": "B5",
                    "midi": 83,
                    "time": 447.26858399998673,
                    "velocity": 0.41732283464566927,
                    "duration": 0.28452200000003813
                },
                {
                    "name": "D5",
                    "midi": 74,
                    "time": 447.3634246666534,
                    "velocity": 0.2125984251968504,
                    "duration": 0.09009863333335488
                },
                {
                    "name": "F#5",
                    "midi": 78,
                    "time": 447.3634246666534,
                    "velocity": 0.25196850393700787,
                    "duration": 0.09009863333335488
                },
                {
                    "name": "D5",
                    "midi": 74,
                    "time": 447.45826533332007,
                    "velocity": 0.2125984251968504,
                    "duration": 0.09009863333335488
                },
                {
                    "name": "F#5",
                    "midi": 78,
                    "time": 447.45826533332007,
                    "velocity": 0.25196850393700787,
                    "duration": 0.09009863333335488
                },
                {
                    "name": "D6",
                    "midi": 86,
                    "time": 447.55310599998677,
                    "velocity": 0.41732283464566927,
                    "duration": 0.28452200000003813
                },
                {
                    "name": "D5",
                    "midi": 74,
                    "time": 447.6479466666534,
                    "velocity": 0.2047244094488189,
                    "duration": 0.09009863333335488
                },
                {
                    "name": "F#5",
                    "midi": 78,
                    "time": 447.6479466666534,
                    "velocity": 0.2440944881889764,
                    "duration": 0.09009863333335488
                },
                {
                    "name": "D5",
                    "midi": 74,
                    "time": 447.7427873333201,
                    "velocity": 0.2047244094488189,
                    "duration": 0.09009863333335488
                },
                {
                    "name": "F#5",
                    "midi": 78,
                    "time": 447.7427873333201,
                    "velocity": 0.2440944881889764,
                    "duration": 0.09009863333335488
                },
                {
                    "name": "B5",
                    "midi": 83,
                    "time": 447.8376279999868,
                    "velocity": 0.41732283464566927,
                    "duration": 0.28452200000003813
                },
                {
                    "name": "D5",
                    "midi": 74,
                    "time": 447.93246866665345,
                    "velocity": 0.2125984251968504,
                    "duration": 0.09009863333335488
                },
                {
                    "name": "F#5",
                    "midi": 78,
                    "time": 447.93246866665345,
                    "velocity": 0.25196850393700787,
                    "duration": 0.09009863333335488
                },
                {
                    "name": "D5",
                    "midi": 74,
                    "time": 448.02730933332015,
                    "velocity": 0.2125984251968504,
                    "duration": 0.09009863333335488
                },
                {
                    "name": "F#5",
                    "midi": 78,
                    "time": 448.02730933332015,
                    "velocity": 0.25196850393700787,
                    "duration": 0.09009863333335488
                },
                {
                    "name": "D6",
                    "midi": 86,
                    "time": 448.12214999998685,
                    "velocity": 0.41732283464566927,
                    "duration": 0.28452200000003813
                },
                {
                    "name": "D5",
                    "midi": 74,
                    "time": 448.2169906666535,
                    "velocity": 0.2047244094488189,
                    "duration": 0.09009863333335488
                },
                {
                    "name": "F#5",
                    "midi": 78,
                    "time": 448.2169906666535,
                    "velocity": 0.2440944881889764,
                    "duration": 0.09009863333335488
                },
                {
                    "name": "D5",
                    "midi": 74,
                    "time": 448.3118313333202,
                    "velocity": 0.2047244094488189,
                    "duration": 0.09009863333335488
                },
                {
                    "name": "F#5",
                    "midi": 78,
                    "time": 448.3118313333202,
                    "velocity": 0.2440944881889764,
                    "duration": 0.09009863333335488
                },
                {
                    "name": "D6",
                    "midi": 86,
                    "time": 448.4066719999869,
                    "velocity": 0.4409448818897638,
                    "duration": 0.2845219999999813
                },
                {
                    "name": "F#5",
                    "midi": 78,
                    "time": 448.5015126666535,
                    "velocity": 0.2125984251968504,
                    "duration": 0.09484066666664148
                },
                {
                    "name": "B5",
                    "midi": 83,
                    "time": 448.5015126666535,
                    "velocity": 0.25196850393700787,
                    "duration": 0.09484066666664148
                },
                {
                    "name": "F#5",
                    "midi": 78,
                    "time": 448.59635333332017,
                    "velocity": 0.2125984251968504,
                    "duration": 0.09009863333335488
                },
                {
                    "name": "B5",
                    "midi": 83,
                    "time": 448.59635333332017,
                    "velocity": 0.25196850393700787,
                    "duration": 0.09009863333335488
                },
                {
                    "name": "F#6",
                    "midi": 90,
                    "time": 448.69119399998687,
                    "velocity": 0.4330708661417323,
                    "duration": 0.28452200000003813
                },
                {
                    "name": "F#5",
                    "midi": 78,
                    "time": 448.7860346666535,
                    "velocity": 0.2125984251968504,
                    "duration": 0.09009863333335488
                },
                {
                    "name": "B5",
                    "midi": 83,
                    "time": 448.7860346666535,
                    "velocity": 0.25196850393700787,
                    "duration": 0.09009863333335488
                },
                {
                    "name": "F#5",
                    "midi": 78,
                    "time": 448.8808753333202,
                    "velocity": 0.2125984251968504,
                    "duration": 0.09009863333335488
                },
                {
                    "name": "B5",
                    "midi": 83,
                    "time": 448.8808753333202,
                    "velocity": 0.25196850393700787,
                    "duration": 0.09009863333335488
                },
                {
                    "name": "D6",
                    "midi": 86,
                    "time": 448.9757159999869,
                    "velocity": 0.4330708661417323,
                    "duration": 0.28452200000003813
                },
                {
                    "name": "F#5",
                    "midi": 78,
                    "time": 449.07055666665354,
                    "velocity": 0.2125984251968504,
                    "duration": 0.09009863333335488
                },
                {
                    "name": "B5",
                    "midi": 83,
                    "time": 449.07055666665354,
                    "velocity": 0.25196850393700787,
                    "duration": 0.09009863333335488
                },
                {
                    "name": "F#5",
                    "midi": 78,
                    "time": 449.16539733332024,
                    "velocity": 0.2125984251968504,
                    "duration": 0.09009863333335488
                },
                {
                    "name": "B5",
                    "midi": 83,
                    "time": 449.16539733332024,
                    "velocity": 0.25196850393700787,
                    "duration": 0.09009863333335488
                },
                {
                    "name": "F#6",
                    "midi": 90,
                    "time": 449.26023799998694,
                    "velocity": 0.4409448818897638,
                    "duration": 0.28452200000003813
                },
                {
                    "name": "F#5",
                    "midi": 78,
                    "time": 449.3550786666536,
                    "velocity": 0.2125984251968504,
                    "duration": 0.09009863333335488
                },
                {
                    "name": "B5",
                    "midi": 83,
                    "time": 449.3550786666536,
                    "velocity": 0.25196850393700787,
                    "duration": 0.09009863333335488
                },
                {
                    "name": "F#5",
                    "midi": 78,
                    "time": 449.4499193333203,
                    "velocity": 0.2125984251968504,
                    "duration": 0.09009863333335488
                },
                {
                    "name": "B5",
                    "midi": 83,
                    "time": 449.4499193333203,
                    "velocity": 0.25196850393700787,
                    "duration": 0.09009863333335488
                },
                {
                    "name": "F#5",
                    "midi": 78,
                    "time": 449.544759999987,
                    "velocity": 0.4409448818897638,
                    "duration": 0.28452200000003813
                },
                {
                    "name": "B4",
                    "midi": 71,
                    "time": 449.6396006666536,
                    "velocity": 0.2125984251968504,
                    "duration": 0.09009863333335488
                },
                {
                    "name": "D5",
                    "midi": 74,
                    "time": 449.6396006666536,
                    "velocity": 0.25196850393700787,
                    "duration": 0.09009863333335488
                },
                {
                    "name": "B4",
                    "midi": 71,
                    "time": 449.7344413333203,
                    "velocity": 0.2125984251968504,
                    "duration": 0.09009863333335488
                },
                {
                    "name": "D5",
                    "midi": 74,
                    "time": 449.7344413333203,
                    "velocity": 0.25196850393700787,
                    "duration": 0.09009863333335488
                },
                {
                    "name": "A#5",
                    "midi": 82,
                    "time": 449.829281999987,
                    "velocity": 0.4409448818897638,
                    "duration": 0.2845219999999813
                },
                {
                    "name": "F#5",
                    "midi": 78,
                    "time": 449.92412266665366,
                    "velocity": 0.25984251968503935,
                    "duration": 0.09009863333335488
                },
                {
                    "name": "A#4",
                    "midi": 70,
                    "time": 449.92412266665366,
                    "velocity": 0.2125984251968504,
                    "duration": 0.09009863333335488
                },
                {
                    "name": "E5",
                    "midi": 76,
                    "time": 449.92412266665366,
                    "velocity": 0.25984251968503935,
                    "duration": 0.09009863333335488
                },
                {
                    "name": "F#5",
                    "midi": 78,
                    "time": 450.01896333332036,
                    "velocity": 0.2677165354330709,
                    "duration": 0.09484066666664148
                },
                {
                    "name": "A#4",
                    "midi": 70,
                    "time": 450.01896333332036,
                    "velocity": 0.2125984251968504,
                    "duration": 0.09484066666664148
                },
                {
                    "name": "E5",
                    "midi": 76,
                    "time": 450.01896333332036,
                    "velocity": 0.2677165354330709,
                    "duration": 0.09484066666664148
                },
                {
                    "name": "B5",
                    "midi": 83,
                    "time": 450.113803999987,
                    "velocity": 0.4566929133858268,
                    "duration": 0.2845219999999813
                },
                {
                    "name": "F#5",
                    "midi": 78,
                    "time": 450.20864466665364,
                    "velocity": 0.2677165354330709,
                    "duration": 0.09009863333335488
                },
                {
                    "name": "B4",
                    "midi": 71,
                    "time": 450.20864466665364,
                    "velocity": 0.2204724409448819,
                    "duration": 0.09009863333335488
                },
                {
                    "name": "D5",
                    "midi": 74,
                    "time": 450.20864466665364,
                    "velocity": 0.2677165354330709,
                    "duration": 0.09009863333335488
                },
                {
                    "name": "F#5",
                    "midi": 78,
                    "time": 450.30348533332034,
                    "velocity": 0.2755905511811024,
                    "duration": 0.09484066666664148
                },
                {
                    "name": "B4",
                    "midi": 71,
                    "time": 450.30348533332034,
                    "velocity": 0.2283464566929134,
                    "duration": 0.09484066666664148
                },
                {
                    "name": "D5",
                    "midi": 74,
                    "time": 450.30348533332034,
                    "velocity": 0.2755905511811024,
                    "duration": 0.09484066666664148
                },
                {
                    "name": "C#6",
                    "midi": 85,
                    "time": 450.398325999987,
                    "velocity": 0.4881889763779528,
                    "duration": 0.28452200000003813
                },
                {
                    "name": "A5",
                    "midi": 81,
                    "time": 450.4931666666536,
                    "velocity": 0.28346456692913385,
                    "duration": 0.09009863333335488
                },
                {
                    "name": "C#5",
                    "midi": 73,
                    "time": 450.4931666666536,
                    "velocity": 0.2283464566929134,
                    "duration": 0.09009863333335488
                },
                {
                    "name": "G5",
                    "midi": 79,
                    "time": 450.4931666666536,
                    "velocity": 0.28346456692913385,
                    "duration": 0.09009863333335488
                },
                {
                    "name": "A5",
                    "midi": 81,
                    "time": 450.5880073333203,
                    "velocity": 0.28346456692913385,
                    "duration": 0.09009863333335488
                },
                {
                    "name": "C#5",
                    "midi": 73,
                    "time": 450.5880073333203,
                    "velocity": 0.2283464566929134,
                    "duration": 0.09009863333335488
                },
                {
                    "name": "G5",
                    "midi": 79,
                    "time": 450.5880073333203,
                    "velocity": 0.28346456692913385,
                    "duration": 0.09009863333335488
                },
                {
                    "name": "D6",
                    "midi": 86,
                    "time": 450.682847999987,
                    "velocity": 0.48031496062992124,
                    "duration": 0.28452200000003813
                },
                {
                    "name": "D5",
                    "midi": 74,
                    "time": 450.77768866665366,
                    "velocity": 0.23622047244094488,
                    "duration": 0.09009863333335488
                },
                {
                    "name": "F#5",
                    "midi": 78,
                    "time": 450.77768866665366,
                    "velocity": 0.23622047244094488,
                    "duration": 0.09009863333335488
                },
                {
                    "name": "A5",
                    "midi": 81,
                    "time": 450.77768866665366,
                    "velocity": 0.28346456692913385,
                    "duration": 0.09009863333335488
                },
                {
                    "name": "D5",
                    "midi": 74,
                    "time": 450.87252933332036,
                    "velocity": 0.2283464566929134,
                    "duration": 0.09009863333335488
                },
                {
                    "name": "F#5",
                    "midi": 78,
                    "time": 450.87252933332036,
                    "velocity": 0.2283464566929134,
                    "duration": 0.09009863333335488
                },
                {
                    "name": "A5",
                    "midi": 81,
                    "time": 450.87252933332036,
                    "velocity": 0.28346456692913385,
                    "duration": 0.09009863333335488
                },
                {
                    "name": "E6",
                    "midi": 88,
                    "time": 450.96736999998706,
                    "velocity": 0.47244094488188976,
                    "duration": 0.28452200000003813
                },
                {
                    "name": "A#5",
                    "midi": 82,
                    "time": 451.0622106666537,
                    "velocity": 0.2755905511811024,
                    "duration": 0.09009863333335488
                },
                {
                    "name": "E5",
                    "midi": 76,
                    "time": 451.0622106666537,
                    "velocity": 0.2204724409448819,
                    "duration": 0.09009863333335488
                },
                {
                    "name": "F#5",
                    "midi": 78,
                    "time": 451.0622106666537,
                    "velocity": 0.2755905511811024,
                    "duration": 0.09009863333335488
                },
                {
                    "name": "A#5",
                    "midi": 82,
                    "time": 451.1570513333204,
                    "velocity": 0.2677165354330709,
                    "duration": 0.09009863333335488
                },
                {
                    "name": "E5",
                    "midi": 76,
                    "time": 451.1570513333204,
                    "velocity": 0.2204724409448819,
                    "duration": 0.09009863333335488
                },
                {
                    "name": "F#5",
                    "midi": 78,
                    "time": 451.1570513333204,
                    "velocity": 0.2677165354330709,
                    "duration": 0.09009863333335488
                },
                {
                    "name": "D6",
                    "midi": 86,
                    "time": 451.2518919999871,
                    "velocity": 0.44881889763779526,
                    "duration": 0.28452200000003813
                },
                {
                    "name": "D5",
                    "midi": 74,
                    "time": 451.34673266665374,
                    "velocity": 0.2125984251968504,
                    "duration": 0.09009863333335488
                },
                {
                    "name": "B5",
                    "midi": 83,
                    "time": 451.34673266665374,
                    "velocity": 0.25984251968503935,
                    "duration": 0.09009863333335488
                },
                {
                    "name": "F#5",
                    "midi": 78,
                    "time": 451.34673266665374,
                    "velocity": 0.25984251968503935,
                    "duration": 0.09009863333335488
                },
                {
                    "name": "D5",
                    "midi": 74,
                    "time": 451.44157333332043,
                    "velocity": 0.2125984251968504,
                    "duration": 0.09009863333335488
                },
                {
                    "name": "B5",
                    "midi": 83,
                    "time": 451.44157333332043,
                    "velocity": 0.25196850393700787,
                    "duration": 0.09009863333335488
                },
                {
                    "name": "F#5",
                    "midi": 78,
                    "time": 451.44157333332043,
                    "velocity": 0.25196850393700787,
                    "duration": 0.09009863333335488
                },
                {
                    "name": "C#6",
                    "midi": 85,
                    "time": 451.53641399998713,
                    "velocity": 0.4409448818897638,
                    "duration": 0.28452200000003813
                },
                {
                    "name": "A5",
                    "midi": 81,
                    "time": 451.6312546666538,
                    "velocity": 0.25196850393700787,
                    "duration": 0.09009863333335488
                },
                {
                    "name": "C#5",
                    "midi": 73,
                    "time": 451.6312546666538,
                    "velocity": 0.2125984251968504,
                    "duration": 0.09009863333335488
                },
                {
                    "name": "E5",
                    "midi": 76,
                    "time": 451.6312546666538,
                    "velocity": 0.25196850393700787,
                    "duration": 0.09009863333335488
                },
                {
                    "name": "A5",
                    "midi": 81,
                    "time": 451.7260953333205,
                    "velocity": 0.25196850393700787,
                    "duration": 0.09009863333335488
                },
                {
                    "name": "C#5",
                    "midi": 73,
                    "time": 451.7260953333205,
                    "velocity": 0.2125984251968504,
                    "duration": 0.09009863333335488
                },
                {
                    "name": "E5",
                    "midi": 76,
                    "time": 451.7260953333205,
                    "velocity": 0.25196850393700787,
                    "duration": 0.09009863333335488
                },
                {
                    "name": "C#6",
                    "midi": 85,
                    "time": 451.82093599998717,
                    "velocity": 0.4251968503937008,
                    "duration": 0.5690440000000763
                },
                {
                    "name": "C#5",
                    "midi": 73,
                    "time": 451.9157766666538,
                    "velocity": 0.2047244094488189,
                    "duration": 0.09009863333335488
                },
                {
                    "name": "E5",
                    "midi": 76,
                    "time": 451.9157766666538,
                    "velocity": 0.2047244094488189,
                    "duration": 0.09009863333335488
                },
                {
                    "name": "A5",
                    "midi": 81,
                    "time": 451.9157766666538,
                    "velocity": 0.2440944881889764,
                    "duration": 0.09009863333335488
                },
                {
                    "name": "C#5",
                    "midi": 73,
                    "time": 452.0106173333205,
                    "velocity": 0.2047244094488189,
                    "duration": 0.09009863333335488
                },
                {
                    "name": "E5",
                    "midi": 76,
                    "time": 452.0106173333205,
                    "velocity": 0.2047244094488189,
                    "duration": 0.09009863333335488
                },
                {
                    "name": "A5",
                    "midi": 81,
                    "time": 452.0106173333205,
                    "velocity": 0.2440944881889764,
                    "duration": 0.09009863333335488
                },
                {
                    "name": "C#5",
                    "midi": 73,
                    "time": 452.1054579999872,
                    "velocity": 0.2047244094488189,
                    "duration": 0.09009863333335488
                },
                {
                    "name": "E5",
                    "midi": 76,
                    "time": 452.1054579999872,
                    "velocity": 0.2047244094488189,
                    "duration": 0.09009863333335488
                },
                {
                    "name": "A5",
                    "midi": 81,
                    "time": 452.1054579999872,
                    "velocity": 0.2440944881889764,
                    "duration": 0.09009863333335488
                },
                {
                    "name": "C#5",
                    "midi": 73,
                    "time": 452.2002986666539,
                    "velocity": 0.2047244094488189,
                    "duration": 0.09009863333335488
                },
                {
                    "name": "E5",
                    "midi": 76,
                    "time": 452.2002986666539,
                    "velocity": 0.2047244094488189,
                    "duration": 0.09009863333335488
                },
                {
                    "name": "A5",
                    "midi": 81,
                    "time": 452.2002986666539,
                    "velocity": 0.2440944881889764,
                    "duration": 0.09009863333335488
                },
                {
                    "name": "C#5",
                    "midi": 73,
                    "time": 452.2951393333206,
                    "velocity": 0.2125984251968504,
                    "duration": 0.09484066666664148
                },
                {
                    "name": "E5",
                    "midi": 76,
                    "time": 452.2951393333206,
                    "velocity": 0.2125984251968504,
                    "duration": 0.09484066666664148
                },
                {
                    "name": "A5",
                    "midi": 81,
                    "time": 452.2951393333206,
                    "velocity": 0.25196850393700787,
                    "duration": 0.09484066666664148
                },
                {
                    "name": "C#6",
                    "midi": 85,
                    "time": 452.38997999998725,
                    "velocity": 0.4330708661417323,
                    "duration": 0.28452200000003813
                },
                {
                    "name": "C#5",
                    "midi": 73,
                    "time": 452.4848206666539,
                    "velocity": 0.1968503937007874,
                    "duration": 0.09009863333335488
                },
                {
                    "name": "E5",
                    "midi": 76,
                    "time": 452.4848206666539,
                    "velocity": 0.1968503937007874,
                    "duration": 0.09009863333335488
                },
                {
                    "name": "F#5",
                    "midi": 78,
                    "time": 452.4848206666539,
                    "velocity": 0.2283464566929134,
                    "duration": 0.09009863333335488
                },
                {
                    "name": "C#5",
                    "midi": 73,
                    "time": 452.5796613333206,
                    "velocity": 0.1968503937007874,
                    "duration": 0.09009863333335488
                },
                {
                    "name": "E5",
                    "midi": 76,
                    "time": 452.5796613333206,
                    "velocity": 0.1968503937007874,
                    "duration": 0.09009863333335488
                },
                {
                    "name": "F#5",
                    "midi": 78,
                    "time": 452.5796613333206,
                    "velocity": 0.23622047244094488,
                    "duration": 0.09009863333335488
                },
                {
                    "name": "D6",
                    "midi": 86,
                    "time": 452.6745019999873,
                    "velocity": 0.4251968503937008,
                    "duration": 0.28452200000003813
                },
                {
                    "name": "D5",
                    "midi": 74,
                    "time": 452.7693426666539,
                    "velocity": 0.1968503937007874,
                    "duration": 0.09009863333335488
                },
                {
                    "name": "F#5",
                    "midi": 78,
                    "time": 452.7693426666539,
                    "velocity": 0.2283464566929134,
                    "duration": 0.09009863333335488
                },
                {
                    "name": "D5",
                    "midi": 74,
                    "time": 452.8641833333206,
                    "velocity": 0.1968503937007874,
                    "duration": 0.09009863333335488
                },
                {
                    "name": "F#5",
                    "midi": 78,
                    "time": 452.8641833333206,
                    "velocity": 0.2283464566929134,
                    "duration": 0.09009863333335488
                },
                {
                    "name": "B5",
                    "midi": 83,
                    "time": 452.9590239999873,
                    "velocity": 0.41732283464566927,
                    "duration": 0.28452200000003813
                },
                {
                    "name": "D5",
                    "midi": 74,
                    "time": 453.05386466665396,
                    "velocity": 0.2125984251968504,
                    "duration": 0.09009863333335488
                },
                {
                    "name": "F#5",
                    "midi": 78,
                    "time": 453.05386466665396,
                    "velocity": 0.25196850393700787,
                    "duration": 0.09009863333335488
                },
                {
                    "name": "D5",
                    "midi": 74,
                    "time": 453.14870533332066,
                    "velocity": 0.2125984251968504,
                    "duration": 0.09009863333335488
                },
                {
                    "name": "F#5",
                    "midi": 78,
                    "time": 453.14870533332066,
                    "velocity": 0.25196850393700787,
                    "duration": 0.09009863333335488
                },
                {
                    "name": "D6",
                    "midi": 86,
                    "time": 453.24354599998736,
                    "velocity": 0.41732283464566927,
                    "duration": 0.28452200000003813
                },
                {
                    "name": "D5",
                    "midi": 74,
                    "time": 453.338386666654,
                    "velocity": 0.2047244094488189,
                    "duration": 0.09009863333335488
                },
                {
                    "name": "F#5",
                    "midi": 78,
                    "time": 453.338386666654,
                    "velocity": 0.2440944881889764,
                    "duration": 0.09009863333335488
                },
                {
                    "name": "D5",
                    "midi": 74,
                    "time": 453.4332273333207,
                    "velocity": 0.2047244094488189,
                    "duration": 0.09009863333335488
                },
                {
                    "name": "F#5",
                    "midi": 78,
                    "time": 453.4332273333207,
                    "velocity": 0.2440944881889764,
                    "duration": 0.09009863333335488
                },
                {
                    "name": "B5",
                    "midi": 83,
                    "time": 453.5280679999874,
                    "velocity": 0.41732283464566927,
                    "duration": 0.28452200000003813
                },
                {
                    "name": "D5",
                    "midi": 74,
                    "time": 453.62290866665404,
                    "velocity": 0.2125984251968504,
                    "duration": 0.09009863333335488
                },
                {
                    "name": "F#5",
                    "midi": 78,
                    "time": 453.62290866665404,
                    "velocity": 0.25196850393700787,
                    "duration": 0.09009863333335488
                },
                {
                    "name": "D5",
                    "midi": 74,
                    "time": 453.71774933332074,
                    "velocity": 0.2125984251968504,
                    "duration": 0.09009863333335488
                },
                {
                    "name": "F#5",
                    "midi": 78,
                    "time": 453.71774933332074,
                    "velocity": 0.25196850393700787,
                    "duration": 0.09009863333335488
                },
                {
                    "name": "D6",
                    "midi": 86,
                    "time": 453.81258999998744,
                    "velocity": 0.41732283464566927,
                    "duration": 0.28452200000003813
                },
                {
                    "name": "D5",
                    "midi": 74,
                    "time": 453.9074306666541,
                    "velocity": 0.2047244094488189,
                    "duration": 0.09009863333335488
                },
                {
                    "name": "F#5",
                    "midi": 78,
                    "time": 453.9074306666541,
                    "velocity": 0.2440944881889764,
                    "duration": 0.09009863333335488
                },
                {
                    "name": "D5",
                    "midi": 74,
                    "time": 454.0022713333208,
                    "velocity": 0.2047244094488189,
                    "duration": 0.09009863333335488
                },
                {
                    "name": "F#5",
                    "midi": 78,
                    "time": 454.0022713333208,
                    "velocity": 0.2440944881889764,
                    "duration": 0.09009863333335488
                },
                {
                    "name": "D6",
                    "midi": 86,
                    "time": 454.0971119999875,
                    "velocity": 0.4409448818897638,
                    "duration": 0.28452200000003813
                },
                {
                    "name": "F#5",
                    "midi": 78,
                    "time": 454.1919526666541,
                    "velocity": 0.2125984251968504,
                    "duration": 0.09009863333335488
                },
                {
                    "name": "B5",
                    "midi": 83,
                    "time": 454.1919526666541,
                    "velocity": 0.25196850393700787,
                    "duration": 0.09009863333335488
                },
                {
                    "name": "F#5",
                    "midi": 78,
                    "time": 454.2867933333208,
                    "velocity": 0.2125984251968504,
                    "duration": 0.09009863333335488
                },
                {
                    "name": "B5",
                    "midi": 83,
                    "time": 454.2867933333208,
                    "velocity": 0.25196850393700787,
                    "duration": 0.09009863333335488
                },
                {
                    "name": "F#6",
                    "midi": 90,
                    "time": 454.3816339999875,
                    "velocity": 0.4330708661417323,
                    "duration": 0.28452200000003813
                },
                {
                    "name": "F#5",
                    "midi": 78,
                    "time": 454.47647466665416,
                    "velocity": 0.2125984251968504,
                    "duration": 0.09009863333335488
                },
                {
                    "name": "B5",
                    "midi": 83,
                    "time": 454.47647466665416,
                    "velocity": 0.25196850393700787,
                    "duration": 0.09009863333335488
                },
                {
                    "name": "F#5",
                    "midi": 78,
                    "time": 454.57131533332085,
                    "velocity": 0.2125984251968504,
                    "duration": 0.09009863333335488
                },
                {
                    "name": "B5",
                    "midi": 83,
                    "time": 454.57131533332085,
                    "velocity": 0.25196850393700787,
                    "duration": 0.09009863333335488
                },
                {
                    "name": "D6",
                    "midi": 86,
                    "time": 454.66615599998755,
                    "velocity": 0.4330708661417323,
                    "duration": 0.28452200000003813
                },
                {
                    "name": "F#5",
                    "midi": 78,
                    "time": 454.7609966666542,
                    "velocity": 0.2125984251968504,
                    "duration": 0.09009863333335488
                },
                {
                    "name": "B5",
                    "midi": 83,
                    "time": 454.7609966666542,
                    "velocity": 0.25196850393700787,
                    "duration": 0.09009863333335488
                },
                {
                    "name": "F#5",
                    "midi": 78,
                    "time": 454.8558373333209,
                    "velocity": 0.2125984251968504,
                    "duration": 0.09009863333335488
                },
                {
                    "name": "B5",
                    "midi": 83,
                    "time": 454.8558373333209,
                    "velocity": 0.25196850393700787,
                    "duration": 0.09009863333335488
                },
                {
                    "name": "F#6",
                    "midi": 90,
                    "time": 454.9506779999876,
                    "velocity": 0.4409448818897638,
                    "duration": 0.28452200000003813
                },
                {
                    "name": "F#5",
                    "midi": 78,
                    "time": 455.04551866665423,
                    "velocity": 0.2125984251968504,
                    "duration": 0.09009863333335488
                },
                {
                    "name": "B5",
                    "midi": 83,
                    "time": 455.04551866665423,
                    "velocity": 0.25196850393700787,
                    "duration": 0.09009863333335488
                },
                {
                    "name": "F#5",
                    "midi": 78,
                    "time": 455.14035933332093,
                    "velocity": 0.2125984251968504,
                    "duration": 0.09009863333335488
                },
                {
                    "name": "B5",
                    "midi": 83,
                    "time": 455.14035933332093,
                    "velocity": 0.25196850393700787,
                    "duration": 0.09009863333335488
                },
                {
                    "name": "F#5",
                    "midi": 78,
                    "time": 455.2351999999876,
                    "velocity": 0.4409448818897638,
                    "duration": 0.2845219999999813
                },
                {
                    "name": "B4",
                    "midi": 71,
                    "time": 455.33004066665427,
                    "velocity": 0.2125984251968504,
                    "duration": 0.09009863333335488
                },
                {
                    "name": "D5",
                    "midi": 74,
                    "time": 455.33004066665427,
                    "velocity": 0.25196850393700787,
                    "duration": 0.09009863333335488
                },
                {
                    "name": "B4",
                    "midi": 71,
                    "time": 455.42488133332097,
                    "velocity": 0.2125984251968504,
                    "duration": 0.09484066666664148
                },
                {
                    "name": "D5",
                    "midi": 74,
                    "time": 455.42488133332097,
                    "velocity": 0.25196850393700787,
                    "duration": 0.09484066666664148
                },
                {
                    "name": "A#5",
                    "midi": 82,
                    "time": 455.5197219999876,
                    "velocity": 0.4409448818897638,
                    "duration": 0.28452200000003813
                },
                {
                    "name": "F#5",
                    "midi": 78,
                    "time": 455.61456266665425,
                    "velocity": 0.25984251968503935,
                    "duration": 0.09009863333335488
                },
                {
                    "name": "A#4",
                    "midi": 70,
                    "time": 455.61456266665425,
                    "velocity": 0.2125984251968504,
                    "duration": 0.09009863333335488
                },
                {
                    "name": "E5",
                    "midi": 76,
                    "time": 455.61456266665425,
                    "velocity": 0.25984251968503935,
                    "duration": 0.09009863333335488
                },
                {
                    "name": "F#5",
                    "midi": 78,
                    "time": 455.70940333332095,
                    "velocity": 0.2677165354330709,
                    "duration": 0.09009863333335488
                },
                {
                    "name": "A#4",
                    "midi": 70,
                    "time": 455.70940333332095,
                    "velocity": 0.2125984251968504,
                    "duration": 0.09009863333335488
                },
                {
                    "name": "E5",
                    "midi": 76,
                    "time": 455.70940333332095,
                    "velocity": 0.2677165354330709,
                    "duration": 0.09009863333335488
                },
                {
                    "name": "B5",
                    "midi": 83,
                    "time": 455.80424399998765,
                    "velocity": 0.4566929133858268,
                    "duration": 0.28452200000003813
                },
                {
                    "name": "F#5",
                    "midi": 78,
                    "time": 455.8990846666543,
                    "velocity": 0.2677165354330709,
                    "duration": 0.09009863333335488
                },
                {
                    "name": "B4",
                    "midi": 71,
                    "time": 455.8990846666543,
                    "velocity": 0.2204724409448819,
                    "duration": 0.09009863333335488
                },
                {
                    "name": "D5",
                    "midi": 74,
                    "time": 455.8990846666543,
                    "velocity": 0.2677165354330709,
                    "duration": 0.09009863333335488
                },
                {
                    "name": "F#5",
                    "midi": 78,
                    "time": 455.993925333321,
                    "velocity": 0.2755905511811024,
                    "duration": 0.09009863333335488
                },
                {
                    "name": "B4",
                    "midi": 71,
                    "time": 455.993925333321,
                    "velocity": 0.2283464566929134,
                    "duration": 0.09009863333335488
                },
                {
                    "name": "D5",
                    "midi": 74,
                    "time": 455.993925333321,
                    "velocity": 0.2755905511811024,
                    "duration": 0.09009863333335488
                },
                {
                    "name": "C#6",
                    "midi": 85,
                    "time": 456.0887659999877,
                    "velocity": 0.4881889763779528,
                    "duration": 0.28452200000003813
                },
                {
                    "name": "A5",
                    "midi": 81,
                    "time": 456.1836066666543,
                    "velocity": 0.28346456692913385,
                    "duration": 0.09009863333335488
                },
                {
                    "name": "C#5",
                    "midi": 73,
                    "time": 456.1836066666543,
                    "velocity": 0.2283464566929134,
                    "duration": 0.09009863333335488
                },
                {
                    "name": "G5",
                    "midi": 79,
                    "time": 456.1836066666543,
                    "velocity": 0.28346456692913385,
                    "duration": 0.09009863333335488
                },
                {
                    "name": "A5",
                    "midi": 81,
                    "time": 456.278447333321,
                    "velocity": 0.28346456692913385,
                    "duration": 0.09009863333335488
                },
                {
                    "name": "C#5",
                    "midi": 73,
                    "time": 456.278447333321,
                    "velocity": 0.2283464566929134,
                    "duration": 0.09009863333335488
                },
                {
                    "name": "G5",
                    "midi": 79,
                    "time": 456.278447333321,
                    "velocity": 0.28346456692913385,
                    "duration": 0.09009863333335488
                },
                {
                    "name": "D6",
                    "midi": 86,
                    "time": 456.3732879999877,
                    "velocity": 0.48031496062992124,
                    "duration": 0.28452200000003813
                },
                {
                    "name": "D5",
                    "midi": 74,
                    "time": 456.46812866665437,
                    "velocity": 0.23622047244094488,
                    "duration": 0.09009863333335488
                },
                {
                    "name": "F#5",
                    "midi": 78,
                    "time": 456.46812866665437,
                    "velocity": 0.23622047244094488,
                    "duration": 0.09009863333335488
                },
                {
                    "name": "A5",
                    "midi": 81,
                    "time": 456.46812866665437,
                    "velocity": 0.28346456692913385,
                    "duration": 0.09009863333335488
                },
                {
                    "name": "D5",
                    "midi": 74,
                    "time": 456.56296933332106,
                    "velocity": 0.2283464566929134,
                    "duration": 0.09009863333335488
                },
                {
                    "name": "F#5",
                    "midi": 78,
                    "time": 456.56296933332106,
                    "velocity": 0.2283464566929134,
                    "duration": 0.09009863333335488
                },
                {
                    "name": "A5",
                    "midi": 81,
                    "time": 456.56296933332106,
                    "velocity": 0.28346456692913385,
                    "duration": 0.09009863333335488
                },
                {
                    "name": "E6",
                    "midi": 88,
                    "time": 456.65780999998776,
                    "velocity": 0.47244094488188976,
                    "duration": 0.28452200000003813
                },
                {
                    "name": "A#5",
                    "midi": 82,
                    "time": 456.7526506666544,
                    "velocity": 0.2755905511811024,
                    "duration": 0.09009863333335488
                },
                {
                    "name": "E5",
                    "midi": 76,
                    "time": 456.7526506666544,
                    "velocity": 0.2204724409448819,
                    "duration": 0.09009863333335488
                },
                {
                    "name": "F#5",
                    "midi": 78,
                    "time": 456.7526506666544,
                    "velocity": 0.2755905511811024,
                    "duration": 0.09009863333335488
                },
                {
                    "name": "A#5",
                    "midi": 82,
                    "time": 456.8474913333211,
                    "velocity": 0.2677165354330709,
                    "duration": 0.09009863333335488
                },
                {
                    "name": "E5",
                    "midi": 76,
                    "time": 456.8474913333211,
                    "velocity": 0.2204724409448819,
                    "duration": 0.09009863333335488
                },
                {
                    "name": "F#5",
                    "midi": 78,
                    "time": 456.8474913333211,
                    "velocity": 0.2677165354330709,
                    "duration": 0.09009863333335488
                },
                {
                    "name": "D6",
                    "midi": 86,
                    "time": 456.9423319999878,
                    "velocity": 0.44881889763779526,
                    "duration": 0.28452200000003813
                },
                {
                    "name": "B5",
                    "midi": 83,
                    "time": 457.03717266665444,
                    "velocity": 0.25984251968503935,
                    "duration": 0.09009863333335488
                },
                {
                    "name": "D5",
                    "midi": 74,
                    "time": 457.03717266665444,
                    "velocity": 0.2125984251968504,
                    "duration": 0.09009863333335488
                },
                {
                    "name": "F#5",
                    "midi": 78,
                    "time": 457.03717266665444,
                    "velocity": 0.25984251968503935,
                    "duration": 0.09009863333335488
                },
                {
                    "name": "B5",
                    "midi": 83,
                    "time": 457.13201333332114,
                    "velocity": 0.25196850393700787,
                    "duration": 0.09009863333335488
                },
                {
                    "name": "D5",
                    "midi": 74,
                    "time": 457.13201333332114,
                    "velocity": 0.2125984251968504,
                    "duration": 0.09009863333335488
                },
                {
                    "name": "F#5",
                    "midi": 78,
                    "time": 457.13201333332114,
                    "velocity": 0.25196850393700787,
                    "duration": 0.09009863333335488
                },
                {
                    "name": "C#6",
                    "midi": 85,
                    "time": 457.22685399998784,
                    "velocity": 0.4409448818897638,
                    "duration": 0.28452200000003813
                },
                {
                    "name": "A5",
                    "midi": 81,
                    "time": 457.3216946666545,
                    "velocity": 0.25196850393700787,
                    "duration": 0.09009863333335488
                },
                {
                    "name": "C#5",
                    "midi": 73,
                    "time": 457.3216946666545,
                    "velocity": 0.2125984251968504,
                    "duration": 0.09009863333335488
                },
                {
                    "name": "E5",
                    "midi": 76,
                    "time": 457.3216946666545,
                    "velocity": 0.25196850393700787,
                    "duration": 0.09009863333335488
                },
                {
                    "name": "A5",
                    "midi": 81,
                    "time": 457.4165353333212,
                    "velocity": 0.25196850393700787,
                    "duration": 0.09009863333335488
                },
                {
                    "name": "C#5",
                    "midi": 73,
                    "time": 457.4165353333212,
                    "velocity": 0.2125984251968504,
                    "duration": 0.09009863333335488
                },
                {
                    "name": "E5",
                    "midi": 76,
                    "time": 457.4165353333212,
                    "velocity": 0.25196850393700787,
                    "duration": 0.09009863333335488
                },
                {
                    "name": "C#6",
                    "midi": 85,
                    "time": 457.5113759999879,
                    "velocity": 0.4251968503937008,
                    "duration": 0.5690440000001331
                },
                {
                    "name": "C#5",
                    "midi": 73,
                    "time": 457.6062166666545,
                    "velocity": 0.2047244094488189,
                    "duration": 0.09009863333335488
                },
                {
                    "name": "E5",
                    "midi": 76,
                    "time": 457.6062166666545,
                    "velocity": 0.2047244094488189,
                    "duration": 0.09009863333335488
                },
                {
                    "name": "A5",
                    "midi": 81,
                    "time": 457.6062166666545,
                    "velocity": 0.2440944881889764,
                    "duration": 0.09009863333335488
                },
                {
                    "name": "C#5",
                    "midi": 73,
                    "time": 457.7010573333212,
                    "velocity": 0.2047244094488189,
                    "duration": 0.09009863333335488
                },
                {
                    "name": "E5",
                    "midi": 76,
                    "time": 457.7010573333212,
                    "velocity": 0.2047244094488189,
                    "duration": 0.09009863333335488
                },
                {
                    "name": "A5",
                    "midi": 81,
                    "time": 457.7010573333212,
                    "velocity": 0.2440944881889764,
                    "duration": 0.09009863333335488
                },
                {
                    "name": "C#5",
                    "midi": 73,
                    "time": 457.7958979999879,
                    "velocity": 0.2047244094488189,
                    "duration": 0.09009863333335488
                },
                {
                    "name": "E5",
                    "midi": 76,
                    "time": 457.7958979999879,
                    "velocity": 0.2047244094488189,
                    "duration": 0.09009863333335488
                },
                {
                    "name": "A5",
                    "midi": 81,
                    "time": 457.7958979999879,
                    "velocity": 0.2440944881889764,
                    "duration": 0.09009863333335488
                },
                {
                    "name": "C#5",
                    "midi": 73,
                    "time": 457.8907386666546,
                    "velocity": 0.2047244094488189,
                    "duration": 0.09009863333335488
                },
                {
                    "name": "E5",
                    "midi": 76,
                    "time": 457.8907386666546,
                    "velocity": 0.2047244094488189,
                    "duration": 0.09009863333335488
                },
                {
                    "name": "A5",
                    "midi": 81,
                    "time": 457.8907386666546,
                    "velocity": 0.2440944881889764,
                    "duration": 0.09009863333335488
                },
                {
                    "name": "C#5",
                    "midi": 73,
                    "time": 457.9855793333213,
                    "velocity": 0.2125984251968504,
                    "duration": 0.09009863333335488
                },
                {
                    "name": "E5",
                    "midi": 76,
                    "time": 457.9855793333213,
                    "velocity": 0.2125984251968504,
                    "duration": 0.09009863333335488
                },
                {
                    "name": "A5",
                    "midi": 81,
                    "time": 457.9855793333213,
                    "velocity": 0.25196850393700787,
                    "duration": 0.09009863333335488
                },
                {
                    "name": "D5",
                    "midi": 74,
                    "time": 458.080419999988,
                    "velocity": 0.3228346456692913,
                    "duration": 0.14226100000001907
                },
                {
                    "name": "F#5",
                    "midi": 78,
                    "time": 458.080419999988,
                    "velocity": 0.3228346456692913,
                    "duration": 0.14226100000001907
                },
                {
                    "name": "A5",
                    "midi": 81,
                    "time": 458.080419999988,
                    "velocity": 0.3228346456692913,
                    "duration": 0.14226100000001907
                },
                {
                    "name": "D6",
                    "midi": 86,
                    "time": 458.080419999988,
                    "velocity": 0.3858267716535433,
                    "duration": 0.14226100000001907
                },
                {
                    "name": "A5",
                    "midi": 81,
                    "time": 458.36494199998805,
                    "velocity": 0.4094488188976378,
                    "duration": 0.2845219999999813
                },
                {
                    "name": "A5",
                    "midi": 81,
                    "time": 458.64946399998803,
                    "velocity": 0.4251968503937008,
                    "duration": 0.42678300000000036
                },
                {
                    "name": "G5",
                    "midi": 79,
                    "time": 459.07624699998803,
                    "velocity": 0.4015748031496063,
                    "duration": 0.14226100000001907
                },
                {
                    "name": "F#5",
                    "midi": 78,
                    "time": 459.21850799998805,
                    "velocity": 0.4015748031496063,
                    "duration": 0.14226100000001907
                },
                {
                    "name": "F#5",
                    "midi": 78,
                    "time": 459.5030299999881,
                    "velocity": 0.4094488188976378,
                    "duration": 0.2845219999999813
                },
                {
                    "name": "F#5",
                    "midi": 78,
                    "time": 459.78755199998807,
                    "velocity": 0.4251968503937008,
                    "duration": 0.42678300000000036
                },
                {
                    "name": "E5",
                    "midi": 76,
                    "time": 460.21433499998807,
                    "velocity": 0.4015748031496063,
                    "duration": 0.14226100000001907
                },
                {
                    "name": "D#5",
                    "midi": 75,
                    "time": 460.3565959999881,
                    "velocity": 0.4015748031496063,
                    "duration": 0.14226100000001907
                },
                {
                    "name": "B4",
                    "midi": 71,
                    "time": 460.6411179999881,
                    "velocity": 0.4094488188976378,
                    "duration": 0.2845219999999813
                },
                {
                    "name": "D#5",
                    "midi": 75,
                    "time": 460.6411179999881,
                    "velocity": 0.4094488188976378,
                    "duration": 0.2845219999999813
                },
                {
                    "name": "B4",
                    "midi": 71,
                    "time": 460.9256399999881,
                    "velocity": 0.3464566929133858,
                    "duration": 0.2845219999999813
                },
                {
                    "name": "D#5",
                    "midi": 75,
                    "time": 460.9256399999881,
                    "velocity": 0.4094488188976378,
                    "duration": 0.2845219999999813
                },
                {
                    "name": "B4",
                    "midi": 71,
                    "time": 461.2101619999881,
                    "velocity": 0.3700787401574803,
                    "duration": 0.2845219999999813
                },
                {
                    "name": "E5",
                    "midi": 76,
                    "time": 461.2101619999881,
                    "velocity": 0.4330708661417323,
                    "duration": 0.2845219999999813
                },
                {
                    "name": "B4",
                    "midi": 71,
                    "time": 461.49468399998807,
                    "velocity": 0.3700787401574803,
                    "duration": 0.2845219999999813
                },
                {
                    "name": "D#5",
                    "midi": 75,
                    "time": 461.49468399998807,
                    "velocity": 0.3700787401574803,
                    "duration": 0.2845219999999813
                },
                {
                    "name": "F#5",
                    "midi": 78,
                    "time": 461.49468399998807,
                    "velocity": 0.4409448818897638,
                    "duration": 0.2845219999999813
                },
                {
                    "name": "B4",
                    "midi": 71,
                    "time": 461.77920599998805,
                    "velocity": 0.3779527559055118,
                    "duration": 0.2845219999999813
                },
                {
                    "name": "E5",
                    "midi": 76,
                    "time": 461.77920599998805,
                    "velocity": 0.3779527559055118,
                    "duration": 0.2845219999999813
                },
                {
                    "name": "G5",
                    "midi": 79,
                    "time": 461.77920599998805,
                    "velocity": 0.44881889763779526,
                    "duration": 0.2845219999999813
                },
                {
                    "name": "B4",
                    "midi": 71,
                    "time": 462.06372799998803,
                    "velocity": 0.3937007874015748,
                    "duration": 0.2845219999999813
                },
                {
                    "name": "F#5",
                    "midi": 78,
                    "time": 462.06372799998803,
                    "velocity": 0.3937007874015748,
                    "duration": 0.2845219999999813
                },
                {
                    "name": "A5",
                    "midi": 81,
                    "time": 462.06372799998803,
                    "velocity": 0.4645669291338583,
                    "duration": 0.2845219999999813
                },
                {
                    "name": "C5",
                    "midi": 72,
                    "time": 462.348249999988,
                    "velocity": 0.4015748031496063,
                    "duration": 0.2845219999999813
                },
                {
                    "name": "F#5",
                    "midi": 78,
                    "time": 462.348249999988,
                    "velocity": 0.4015748031496063,
                    "duration": 0.2845219999999813
                },
                {
                    "name": "A5",
                    "midi": 81,
                    "time": 462.348249999988,
                    "velocity": 0.47244094488188976,
                    "duration": 0.2845219999999813
                },
                {
                    "name": "C#5",
                    "midi": 73,
                    "time": 462.632771999988,
                    "velocity": 0.4094488188976378,
                    "duration": 0.2845219999999813
                },
                {
                    "name": "F#5",
                    "midi": 78,
                    "time": 462.632771999988,
                    "velocity": 0.4094488188976378,
                    "duration": 0.2845219999999813
                },
                {
                    "name": "A5",
                    "midi": 81,
                    "time": 462.632771999988,
                    "velocity": 0.48031496062992124,
                    "duration": 0.2845219999999813
                },
                {
                    "name": "D5",
                    "midi": 74,
                    "time": 462.917293999988,
                    "velocity": 0.41732283464566927,
                    "duration": 0.2845219999999813
                },
                {
                    "name": "F#5",
                    "midi": 78,
                    "time": 462.917293999988,
                    "velocity": 0.41732283464566927,
                    "duration": 0.2845219999999813
                },
                {
                    "name": "A5",
                    "midi": 81,
                    "time": 462.917293999988,
                    "velocity": 0.49606299212598426,
                    "duration": 0.2845219999999813
                },
                {
                    "name": "A5",
                    "midi": 81,
                    "time": 463.20181599998796,
                    "velocity": 0.4645669291338583,
                    "duration": 0.35565250000001924
                },
                {
                    "name": "A#5",
                    "midi": 82,
                    "time": 463.557468499988,
                    "velocity": 0.4015748031496063,
                    "duration": 0.07113049999998111
                },
                {
                    "name": "A5",
                    "midi": 81,
                    "time": 463.62859899998796,
                    "velocity": 0.41732283464566927,
                    "duration": 0.07113049999998111
                },
                {
                    "name": "G5",
                    "midi": 79,
                    "time": 463.69972949998794,
                    "velocity": 0.4015748031496063,
                    "duration": 0.07113049999998111
                },
                {
                    "name": "F#5",
                    "midi": 78,
                    "time": 463.7708599999879,
                    "velocity": 0.4409448818897638,
                    "duration": 0.14226100000001907
                },
                {
                    "name": "F#5",
                    "midi": 78,
                    "time": 464.05538199998796,
                    "velocity": 0.44881889763779526,
                    "duration": 0.2845219999999813
                },
                {
                    "name": "F#5",
                    "midi": 78,
                    "time": 464.33990399998794,
                    "velocity": 0.4645669291338583,
                    "duration": 0.35565250000001924
                },
                {
                    "name": "G5",
                    "midi": 79,
                    "time": 464.69555649998796,
                    "velocity": 0.41732283464566927,
                    "duration": 0.07113049999998111
                },
                {
                    "name": "F#5",
                    "midi": 78,
                    "time": 464.76668699998794,
                    "velocity": 0.41732283464566927,
                    "duration": 0.07113049999998111
                },
                {
                    "name": "E5",
                    "midi": 76,
                    "time": 464.8378174999879,
                    "velocity": 0.41732283464566927,
                    "duration": 0.07113049999998111
                },
                {
                    "name": "D#5",
                    "midi": 75,
                    "time": 464.9089479999879,
                    "velocity": 0.4409448818897638,
                    "duration": 0.14226100000001907
                },
                {
                    "name": "B4",
                    "midi": 71,
                    "time": 465.19346999998794,
                    "velocity": 0.44881889763779526,
                    "duration": 0.2845219999999813
                },
                {
                    "name": "D#5",
                    "midi": 75,
                    "time": 465.19346999998794,
                    "velocity": 0.44881889763779526,
                    "duration": 0.2845219999999813
                },
                {
                    "name": "B4",
                    "midi": 71,
                    "time": 465.4779919999879,
                    "velocity": 0.3779527559055118,
                    "duration": 0.21339150000000018
                },
                {
                    "name": "D#5",
                    "midi": 75,
                    "time": 465.4779919999879,
                    "velocity": 0.44881889763779526,
                    "duration": 0.21339150000000018
                },
                {
                    "name": "B4",
                    "midi": 71,
                    "time": 465.6913834999879,
                    "velocity": 0.3779527559055118,
                    "duration": 0.07113049999998111
                },
                {
                    "name": "D#5",
                    "midi": 75,
                    "time": 465.6913834999879,
                    "velocity": 0.44881889763779526,
                    "duration": 0.07113049999998111
                },
                {
                    "name": "B4",
                    "midi": 71,
                    "time": 465.7625139999879,
                    "velocity": 0.4015748031496063,
                    "duration": 0.21339150000000018
                },
                {
                    "name": "E5",
                    "midi": 76,
                    "time": 465.7625139999879,
                    "velocity": 0.47244094488188976,
                    "duration": 0.21339150000000018
                },
                {
                    "name": "B4",
                    "midi": 71,
                    "time": 465.9759054999879,
                    "velocity": 0.4015748031496063,
                    "duration": 0.07113049999998111
                },
                {
                    "name": "E5",
                    "midi": 76,
                    "time": 465.9759054999879,
                    "velocity": 0.47244094488188976,
                    "duration": 0.07113049999998111
                },
                {
                    "name": "B4",
                    "midi": 71,
                    "time": 466.0470359999879,
                    "velocity": 0.4015748031496063,
                    "duration": 0.21339150000000018
                },
                {
                    "name": "D#5",
                    "midi": 75,
                    "time": 466.0470359999879,
                    "velocity": 0.4015748031496063,
                    "duration": 0.21339150000000018
                },
                {
                    "name": "F#5",
                    "midi": 78,
                    "time": 466.0470359999879,
                    "velocity": 0.48031496062992124,
                    "duration": 0.21339150000000018
                },
                {
                    "name": "B4",
                    "midi": 71,
                    "time": 466.2604274999879,
                    "velocity": 0.4015748031496063,
                    "duration": 0.07113049999998111
                },
                {
                    "name": "D#5",
                    "midi": 75,
                    "time": 466.2604274999879,
                    "velocity": 0.4015748031496063,
                    "duration": 0.07113049999998111
                },
                {
                    "name": "F#5",
                    "midi": 78,
                    "time": 466.2604274999879,
                    "velocity": 0.48031496062992124,
                    "duration": 0.07113049999998111
                },
                {
                    "name": "B4",
                    "midi": 71,
                    "time": 466.33155799998787,
                    "velocity": 0.4094488188976378,
                    "duration": 0.21339150000000018
                },
                {
                    "name": "E5",
                    "midi": 76,
                    "time": 466.33155799998787,
                    "velocity": 0.4094488188976378,
                    "duration": 0.21339150000000018
                },
                {
                    "name": "G5",
                    "midi": 79,
                    "time": 466.33155799998787,
                    "velocity": 0.4881889763779528,
                    "duration": 0.21339150000000018
                },
                {
                    "name": "B4",
                    "midi": 71,
                    "time": 466.54494949998787,
                    "velocity": 0.4094488188976378,
                    "duration": 0.07113049999998111
                },
                {
                    "name": "E5",
                    "midi": 76,
                    "time": 466.54494949998787,
                    "velocity": 0.4094488188976378,
                    "duration": 0.07113049999998111
                },
                {
                    "name": "G5",
                    "midi": 79,
                    "time": 466.54494949998787,
                    "velocity": 0.4881889763779528,
                    "duration": 0.07113049999998111
                },
                {
                    "name": "B4",
                    "midi": 71,
                    "time": 466.61607999998785,
                    "velocity": 0.4330708661417323,
                    "duration": 0.21339150000000018
                },
                {
                    "name": "F#5",
                    "midi": 78,
                    "time": 466.61607999998785,
                    "velocity": 0.4330708661417323,
                    "duration": 0.21339150000000018
                },
                {
                    "name": "A5",
                    "midi": 81,
                    "time": 466.61607999998785,
                    "velocity": 0.5039370078740157,
                    "duration": 0.21339150000000018
                },
                {
                    "name": "B4",
                    "midi": 71,
                    "time": 466.82947149998785,
                    "velocity": 0.4330708661417323,
                    "duration": 0.07113049999998111
                },
                {
                    "name": "F#5",
                    "midi": 78,
                    "time": 466.82947149998785,
                    "velocity": 0.4330708661417323,
                    "duration": 0.07113049999998111
                },
                {
                    "name": "A5",
                    "midi": 81,
                    "time": 466.82947149998785,
                    "velocity": 0.5039370078740157,
                    "duration": 0.07113049999998111
                },
                {
                    "name": "C5",
                    "midi": 72,
                    "time": 466.9006019999878,
                    "velocity": 0.4409448818897638,
                    "duration": 0.21339150000000018
                },
                {
                    "name": "F#5",
                    "midi": 78,
                    "time": 466.9006019999878,
                    "velocity": 0.4409448818897638,
                    "duration": 0.21339150000000018
                },
                {
                    "name": "A5",
                    "midi": 81,
                    "time": 466.9006019999878,
                    "velocity": 0.5196850393700787,
                    "duration": 0.21339150000000018
                },
                {
                    "name": "C5",
                    "midi": 72,
                    "time": 467.1139934999878,
                    "velocity": 0.4409448818897638,
                    "duration": 0.07113049999998111
                },
                {
                    "name": "F#5",
                    "midi": 78,
                    "time": 467.1139934999878,
                    "velocity": 0.4409448818897638,
                    "duration": 0.07113049999998111
                },
                {
                    "name": "A5",
                    "midi": 81,
                    "time": 467.1139934999878,
                    "velocity": 0.5196850393700787,
                    "duration": 0.07113049999998111
                },
                {
                    "name": "C#5",
                    "midi": 73,
                    "time": 467.1851239999878,
                    "velocity": 0.44881889763779526,
                    "duration": 0.21339150000000018
                },
                {
                    "name": "F#5",
                    "midi": 78,
                    "time": 467.1851239999878,
                    "velocity": 0.44881889763779526,
                    "duration": 0.21339150000000018
                },
                {
                    "name": "A5",
                    "midi": 81,
                    "time": 467.1851239999878,
                    "velocity": 0.5275590551181102,
                    "duration": 0.21339150000000018
                },
                {
                    "name": "C#5",
                    "midi": 73,
                    "time": 467.3985154999878,
                    "velocity": 0.44881889763779526,
                    "duration": 0.07113049999998111
                },
                {
                    "name": "F#5",
                    "midi": 78,
                    "time": 467.3985154999878,
                    "velocity": 0.44881889763779526,
                    "duration": 0.07113049999998111
                },
                {
                    "name": "A5",
                    "midi": 81,
                    "time": 467.3985154999878,
                    "velocity": 0.5275590551181102,
                    "duration": 0.07113049999998111
                },
                {
                    "name": "D5",
                    "midi": 74,
                    "time": 467.4696459999878,
                    "velocity": 0.4566929133858268,
                    "duration": 0.2845219999999813
                },
                {
                    "name": "F#5",
                    "midi": 78,
                    "time": 467.4696459999878,
                    "velocity": 0.4566929133858268,
                    "duration": 0.2845219999999813
                },
                {
                    "name": "A5",
                    "midi": 81,
                    "time": 467.4696459999878,
                    "velocity": 0.5433070866141733,
                    "duration": 0.2845219999999813
                },
                {
                    "name": "A5",
                    "midi": 81,
                    "time": 467.75416799998777,
                    "velocity": 0.4645669291338583,
                    "duration": 0.49791349999998147
                },
                {
                    "name": "G5",
                    "midi": 79,
                    "time": 468.25208149998775,
                    "velocity": 0.4409448818897638,
                    "duration": 0.07113049999998111
                },
                {
                    "name": "F#5",
                    "midi": 78,
                    "time": 468.32321199998773,
                    "velocity": 0.4409448818897638,
                    "duration": 0.14226100000001907
                },
                {
                    "name": "F#5",
                    "midi": 78,
                    "time": 468.6077339999878,
                    "velocity": 0.44881889763779526,
                    "duration": 0.2845219999999813
                },
                {
                    "name": "A5",
                    "midi": 81,
                    "time": 468.85669074998776,
                    "velocity": 0.3858267716535433,
                    "duration": 0.035565249999990556
                },
                {
                    "name": "G5",
                    "midi": 79,
                    "time": 468.89225599998775,
                    "velocity": 0.47244094488188976,
                    "duration": 0.07113049999998111
                },
                {
                    "name": "F#5",
                    "midi": 78,
                    "time": 468.96338649998773,
                    "velocity": 0.44881889763779526,
                    "duration": 0.07113049999998111
                },
                {
                    "name": "G5",
                    "midi": 79,
                    "time": 469.0345169999877,
                    "velocity": 0.44881889763779526,
                    "duration": 0.07113049999998111
                },
                {
                    "name": "A5",
                    "midi": 81,
                    "time": 469.1056474999877,
                    "velocity": 0.44881889763779526,
                    "duration": 0.07113049999998111
                },
                {
                    "name": "C6",
                    "midi": 84,
                    "time": 469.1412127499877,
                    "velocity": 0.3858267716535433,
                    "duration": 0.035565249999990556
                },
                {
                    "name": "A#5",
                    "midi": 82,
                    "time": 469.1767779999877,
                    "velocity": 0.47244094488188976,
                    "duration": 0.07113049999998111
                },
                {
                    "name": "A5",
                    "midi": 81,
                    "time": 469.24790849998766,
                    "velocity": 0.44881889763779526,
                    "duration": 0.07113049999998111
                },
                {
                    "name": "A#5",
                    "midi": 82,
                    "time": 469.31903899998764,
                    "velocity": 0.44881889763779526,
                    "duration": 0.07113049999998111
                },
                {
                    "name": "C6",
                    "midi": 84,
                    "time": 469.3901694999876,
                    "velocity": 0.44881889763779526,
                    "duration": 0.07113049999998111
                },
                {
                    "name": "D6",
                    "midi": 86,
                    "time": 469.4612999999876,
                    "velocity": 0.4645669291338583,
                    "duration": 0.14226100000001907
                },
                {
                    "name": "D6",
                    "midi": 86,
                    "time": 469.74582199998764,
                    "velocity": 0.4645669291338583,
                    "duration": 0.14226100000001907
                },
                {
                    "name": "A#5",
                    "midi": 82,
                    "time": 469.88808299998766,
                    "velocity": 0.44881889763779526,
                    "duration": 0.14226100000001907
                },
                {
                    "name": "A5",
                    "midi": 81,
                    "time": 470.0303439999877,
                    "velocity": 0.4645669291338583,
                    "duration": 0.49791349999998147
                },
                {
                    "name": "G5",
                    "midi": 79,
                    "time": 470.52825749998766,
                    "velocity": 0.4409448818897638,
                    "duration": 0.07113049999998111
                },
                {
                    "name": "F#5",
                    "midi": 78,
                    "time": 470.59938799998764,
                    "velocity": 0.4409448818897638,
                    "duration": 0.14226100000001907
                },
                {
                    "name": "F#6",
                    "midi": 90,
                    "time": 470.8839099999877,
                    "velocity": 0.49606299212598426,
                    "duration": 0.2845219999999813
                },
                {
                    "name": "F#5",
                    "midi": 78,
                    "time": 470.8839099999877,
                    "velocity": 0.49606299212598426,
                    "duration": 0.2845219999999813
                },
                {
                    "name": "G5",
                    "midi": 79,
                    "time": 471.16843199998766,
                    "velocity": 0.49606299212598426,
                    "duration": 0.14226100000001907
                },
                {
                    "name": "G6",
                    "midi": 91,
                    "time": 471.16843199998766,
                    "velocity": 0.49606299212598426,
                    "duration": 0.14226100000001907
                },
                {
                    "name": "A#5",
                    "midi": 82,
                    "time": 471.3106929999877,
                    "velocity": 0.5039370078740157,
                    "duration": 0.14226100000001907
                },
                {
                    "name": "A#6",
                    "midi": 94,
                    "time": 471.3106929999877,
                    "velocity": 0.5039370078740157,
                    "duration": 0.14226100000001907
                },
                {
                    "name": "C6",
                    "midi": 84,
                    "time": 471.4529539999877,
                    "velocity": 0.5039370078740157,
                    "duration": 0.14226100000001907
                },
                {
                    "name": "C7",
                    "midi": 96,
                    "time": 471.4529539999877,
                    "velocity": 0.5039370078740157,
                    "duration": 0.14226100000001907
                },
                {
                    "name": "D6",
                    "midi": 86,
                    "time": 471.5952149999877,
                    "velocity": 0.5118110236220472,
                    "duration": 0.14226100000001907
                },
                {
                    "name": "D7",
                    "midi": 98,
                    "time": 471.5952149999877,
                    "velocity": 0.5118110236220472,
                    "duration": 0.14226100000001907
                },
                {
                    "name": "D#6",
                    "midi": 87,
                    "time": 471.73747599998774,
                    "velocity": 0.5196850393700787,
                    "duration": 0.2845219999999813
                },
                {
                    "name": "D#7",
                    "midi": 99,
                    "time": 471.73747599998774,
                    "velocity": 0.5196850393700787,
                    "duration": 0.2845219999999813
                },
                {
                    "name": "C7",
                    "midi": 96,
                    "time": 472.0219979999877,
                    "velocity": 0.5433070866141733,
                    "duration": 0.2845219999999813
                },
                {
                    "name": "C6",
                    "midi": 84,
                    "time": 472.0219979999877,
                    "velocity": 0.5433070866141733,
                    "duration": 0.2845219999999813
                },
                {
                    "name": "A#6",
                    "midi": 94,
                    "time": 472.3065199999877,
                    "velocity": 0.5511811023622047,
                    "duration": 0.2845219999999813
                },
                {
                    "name": "A#5",
                    "midi": 82,
                    "time": 472.3065199999877,
                    "velocity": 0.5511811023622047,
                    "duration": 0.2845219999999813
                },
                {
                    "name": "G#6",
                    "midi": 92,
                    "time": 472.5910419999877,
                    "velocity": 0.5433070866141733,
                    "duration": 0.2845219999999813
                },
                {
                    "name": "G#5",
                    "midi": 80,
                    "time": 472.5910419999877,
                    "velocity": 0.5433070866141733,
                    "duration": 0.2845219999999813
                },
                {
                    "name": "G6",
                    "midi": 91,
                    "time": 472.87556399998766,
                    "velocity": 0.5196850393700787,
                    "duration": 0.2845219999999813
                },
                {
                    "name": "G5",
                    "midi": 79,
                    "time": 472.87556399998766,
                    "velocity": 0.5196850393700787,
                    "duration": 0.2845219999999813
                },
                {
                    "name": "F6",
                    "midi": 89,
                    "time": 473.16008599998764,
                    "velocity": 0.5118110236220472,
                    "duration": 0.2845219999999813
                },
                {
                    "name": "F5",
                    "midi": 77,
                    "time": 473.16008599998764,
                    "velocity": 0.5118110236220472,
                    "duration": 0.2845219999999813
                },
                {
                    "name": "E5",
                    "midi": 76,
                    "time": 473.4446079999876,
                    "velocity": 0.48031496062992124,
                    "duration": 1.280349000000001
                },
                {
                    "name": "E6",
                    "midi": 88,
                    "time": 473.4446079999876,
                    "velocity": 0.48031496062992124,
                    "duration": 1.280349000000001
                },
                {
                    "name": "E5",
                    "midi": 76,
                    "time": 474.7249569999876,
                    "velocity": 0.4015748031496063,
                    "duration": 0.13514794999997548
                },
                {
                    "name": "E5",
                    "midi": 76,
                    "time": 474.8672179999876,
                    "velocity": 0.4015748031496063,
                    "duration": 0.13514794999997548
                },
                {
                    "name": "E5",
                    "midi": 76,
                    "time": 475.00947899998755,
                    "velocity": 0.4015748031496063,
                    "duration": 0.13514794999997548
                },
                {
                    "name": "E5",
                    "midi": 76,
                    "time": 475.1517399999875,
                    "velocity": 0.3937007874015748,
                    "duration": 0.13514794999997548
                },
                {
                    "name": "E5",
                    "midi": 76,
                    "time": 475.2940009999875,
                    "velocity": 0.3937007874015748,
                    "duration": 0.13514794999997548
                },
                {
                    "name": "E5",
                    "midi": 76,
                    "time": 475.43626199998744,
                    "velocity": 0.3937007874015748,
                    "duration": 0.13514794999997548
                },
                {
                    "name": "E5",
                    "midi": 76,
                    "time": 475.5785229999874,
                    "velocity": 0.3937007874015748,
                    "duration": 0.13514794999997548
                },
                {
                    "name": "F5",
                    "midi": 77,
                    "time": 475.72078399998736,
                    "velocity": 0.41732283464566927,
                    "duration": 0.49791349999998147
                },
                {
                    "name": "G5",
                    "midi": 79,
                    "time": 476.21869749998734,
                    "velocity": 0.3700787401574803,
                    "duration": 0.07113049999998111
                },
                {
                    "name": "F5",
                    "midi": 77,
                    "time": 476.2898279999873,
                    "velocity": 0.4094488188976378,
                    "duration": 0.14226100000001907
                },
                {
                    "name": "A#5",
                    "midi": 82,
                    "time": 476.57434999998736,
                    "velocity": 0.3858267716535433,
                    "duration": 0.035565249999990556
                },
                {
                    "name": "C6",
                    "midi": 84,
                    "time": 476.60991524998735,
                    "velocity": 0.33858267716535434,
                    "duration": 0.035565249999990556
                },
                {
                    "name": "A#5",
                    "midi": 82,
                    "time": 476.64548049998734,
                    "velocity": 0.3464566929133858,
                    "duration": 0.035565249999990556
                },
                {
                    "name": "C6",
                    "midi": 84,
                    "time": 476.68104574998733,
                    "velocity": 0.3464566929133858,
                    "duration": 0.035565249999990556
                },
                {
                    "name": "A#5",
                    "midi": 82,
                    "time": 476.7166109999873,
                    "velocity": 0.3464566929133858,
                    "duration": 0.035565249999990556
                },
                {
                    "name": "C6",
                    "midi": 84,
                    "time": 476.7521762499873,
                    "velocity": 0.36220472440944884,
                    "duration": 0.035565249999990556
                },
                {
                    "name": "A5",
                    "midi": 81,
                    "time": 476.7877414999873,
                    "velocity": 0.4015748031496063,
                    "duration": 0.035565249999990556
                },
                {
                    "name": "A#5",
                    "midi": 82,
                    "time": 476.8233067499873,
                    "velocity": 0.3464566929133858,
                    "duration": 0.035565249999990556
                },
                {
                    "name": "D6",
                    "midi": 86,
                    "time": 476.8588719999873,
                    "velocity": 0.5275590551181102,
                    "duration": 0.49791349999998147
                },
                {
                    "name": "D5",
                    "midi": 74,
                    "time": 476.8588719999873,
                    "velocity": 0.4094488188976378,
                    "duration": 0.49791349999998147
                },
                {
                    "name": "C5",
                    "midi": 72,
                    "time": 477.35678549998727,
                    "velocity": 0.36220472440944884,
                    "duration": 0.07113049999998111
                },
                {
                    "name": "C6",
                    "midi": 84,
                    "time": 477.35678549998727,
                    "velocity": 0.44881889763779526,
                    "duration": 0.07113049999998111
                },
                {
                    "name": "A#4",
                    "midi": 70,
                    "time": 477.42791599998725,
                    "velocity": 0.3858267716535433,
                    "duration": 0.14226100000001907
                },
                {
                    "name": "A#5",
                    "midi": 82,
                    "time": 477.42791599998725,
                    "velocity": 0.47244094488188976,
                    "duration": 0.14226100000001907
                },
                {
                    "name": "G5",
                    "midi": 79,
                    "time": 477.7124379999873,
                    "velocity": 0.4251968503937008,
                    "duration": 0.2845219999999813
                },
                {
                    "name": "F5",
                    "midi": 77,
                    "time": 477.99695999998727,
                    "velocity": 0.4566929133858268,
                    "duration": 0.49791349999998147
                },
                {
                    "name": "G5",
                    "midi": 79,
                    "time": 478.49487349998725,
                    "velocity": 0.41732283464566927,
                    "duration": 0.07113049999998111
                },
                {
                    "name": "F5",
                    "midi": 77,
                    "time": 478.56600399998723,
                    "velocity": 0.47244094488188976,
                    "duration": 0.14226100000001907
                },
                {
                    "name": "A#5",
                    "midi": 82,
                    "time": 478.85052599998727,
                    "velocity": 0.41732283464566927,
                    "duration": 0.035565249999990556
                },
                {
                    "name": "C6",
                    "midi": 84,
                    "time": 478.88609124998726,
                    "velocity": 0.3700787401574803,
                    "duration": 0.035565249999990556
                },
                {
                    "name": "A#5",
                    "midi": 82,
                    "time": 478.92165649998725,
                    "velocity": 0.3779527559055118,
                    "duration": 0.035565249999990556
                },
                {
                    "name": "C6",
                    "midi": 84,
                    "time": 478.95722174998724,
                    "velocity": 0.3779527559055118,
                    "duration": 0.035565249999990556
                },
                {
                    "name": "A#5",
                    "midi": 82,
                    "time": 478.99278699998723,
                    "velocity": 0.3779527559055118,
                    "duration": 0.035565249999990556
                },
                {
                    "name": "C6",
                    "midi": 84,
                    "time": 479.0283522499872,
                    "velocity": 0.3937007874015748,
                    "duration": 0.035565249999990556
                },
                {
                    "name": "A5",
                    "midi": 81,
                    "time": 479.0639174999872,
                    "velocity": 0.4330708661417323,
                    "duration": 0.035565249999990556
                },
                {
                    "name": "A#5",
                    "midi": 82,
                    "time": 479.0994827499872,
                    "velocity": 0.3779527559055118,
                    "duration": 0.035565249999990556
                },
                {
                    "name": "D6",
                    "midi": 86,
                    "time": 479.1350479999872,
                    "velocity": 0.5433070866141733,
                    "duration": 0.49791349999998147
                },
                {
                    "name": "D5",
                    "midi": 74,
                    "time": 479.1350479999872,
                    "velocity": 0.49606299212598426,
                    "duration": 0.49791349999998147
                },
                {
                    "name": "C5",
                    "midi": 72,
                    "time": 479.6329614999872,
                    "velocity": 0.4881889763779528,
                    "duration": 0.07113049999998111
                },
                {
                    "name": "C6",
                    "midi": 84,
                    "time": 479.6329614999872,
                    "velocity": 0.4881889763779528,
                    "duration": 0.07113049999998111
                },
                {
                    "name": "A#4",
                    "midi": 70,
                    "time": 479.70409199998716,
                    "velocity": 0.5275590551181102,
                    "duration": 0.14226100000001907
                },
                {
                    "name": "A#5",
                    "midi": 82,
                    "time": 479.70409199998716,
                    "velocity": 0.5275590551181102,
                    "duration": 0.14226100000001907
                },
                {
                    "name": "A#4",
                    "midi": 70,
                    "time": 479.9886139999872,
                    "velocity": 0.3779527559055118,
                    "duration": 0.2845219999999813
                },
                {
                    "name": "D#5",
                    "midi": 75,
                    "time": 479.9886139999872,
                    "velocity": 0.5433070866141733,
                    "duration": 0.2845219999999813
                },
                {
                    "name": "G5",
                    "midi": 79,
                    "time": 479.9886139999872,
                    "velocity": 0.5433070866141733,
                    "duration": 0.2845219999999813
                },
                {
                    "name": "A#4",
                    "midi": 70,
                    "time": 480.2731359999872,
                    "velocity": 0.4566929133858268,
                    "duration": 0.2845219999999813
                },
                {
                    "name": "D5",
                    "midi": 74,
                    "time": 480.2731359999872,
                    "velocity": 0.5433070866141733,
                    "duration": 0.2845219999999813
                },
                {
                    "name": "F5",
                    "midi": 77,
                    "time": 480.2731359999872,
                    "velocity": 0.5433070866141733,
                    "duration": 0.2845219999999813
                },
                {
                    "name": "A#4",
                    "midi": 70,
                    "time": 480.55765799998716,
                    "velocity": 0.48031496062992124,
                    "duration": 0.2845219999999813
                },
                {
                    "name": "D#5",
                    "midi": 75,
                    "time": 480.55765799998716,
                    "velocity": 0.5669291338582677,
                    "duration": 0.2845219999999813
                },
                {
                    "name": "G5",
                    "midi": 79,
                    "time": 480.55765799998716,
                    "velocity": 0.5669291338582677,
                    "duration": 0.2845219999999813
                },
                {
                    "name": "A#4",
                    "midi": 70,
                    "time": 480.84217999998714,
                    "velocity": 0.4881889763779528,
                    "duration": 0.2845219999999813
                },
                {
                    "name": "D5",
                    "midi": 74,
                    "time": 480.84217999998714,
                    "velocity": 0.4881889763779528,
                    "duration": 0.2845219999999813
                },
                {
                    "name": "F5",
                    "midi": 77,
                    "time": 480.84217999998714,
                    "velocity": 0.5826771653543307,
                    "duration": 0.2845219999999813
                },
                {
                    "name": "A#5",
                    "midi": 82,
                    "time": 480.84217999998714,
                    "velocity": 0.5826771653543307,
                    "duration": 0.2845219999999813
                },
                {
                    "name": "C5",
                    "midi": 72,
                    "time": 481.1267019999871,
                    "velocity": 0.5196850393700787,
                    "duration": 0.2845219999999813
                },
                {
                    "name": "F5",
                    "midi": 77,
                    "time": 481.1267019999871,
                    "velocity": 0.5196850393700787,
                    "duration": 0.2845219999999813
                },
                {
                    "name": "A5",
                    "midi": 81,
                    "time": 481.1267019999871,
                    "velocity": 0.6141732283464567,
                    "duration": 0.2845219999999813
                },
                {
                    "name": "C6",
                    "midi": 84,
                    "time": 481.1267019999871,
                    "velocity": 0.6141732283464567,
                    "duration": 0.2845219999999813
                },
                {
                    "name": "C5",
                    "midi": 72,
                    "time": 481.4112239999871,
                    "velocity": 0.49606299212598426,
                    "duration": 0.5690440000000194
                },
                {
                    "name": "F5",
                    "midi": 77,
                    "time": 481.4112239999871,
                    "velocity": 0.49606299212598426,
                    "duration": 0.5690440000000194
                },
                {
                    "name": "A5",
                    "midi": 81,
                    "time": 481.4112239999871,
                    "velocity": 0.5905511811023622,
                    "duration": 0.5690440000000194
                },
                {
                    "name": "C6",
                    "midi": 84,
                    "time": 481.4112239999871,
                    "velocity": 0.5905511811023622,
                    "duration": 0.5690440000000194
                },
                {
                    "name": "A5",
                    "midi": 81,
                    "time": 481.9802679999871,
                    "velocity": 0.49606299212598426,
                    "duration": 0.09484066666664148
                },
                {
                    "name": "F5",
                    "midi": 77,
                    "time": 482.07510866665376,
                    "velocity": 0.4251968503937008,
                    "duration": 0.09484066666664148
                },
                {
                    "name": "C5",
                    "midi": 72,
                    "time": 482.1699493333204,
                    "velocity": 0.4251968503937008,
                    "duration": 0.09484066666664148
                },
                {
                    "name": "F5",
                    "midi": 77,
                    "time": 482.26478999998704,
                    "velocity": 0.4251968503937008,
                    "duration": 0.09484066666664148
                },
                {
                    "name": "A5",
                    "midi": 81,
                    "time": 482.3596306666537,
                    "velocity": 0.4094488188976378,
                    "duration": 0.09484066666664148
                },
                {
                    "name": "C6",
                    "midi": 84,
                    "time": 482.4544713333203,
                    "velocity": 0.4015748031496063,
                    "duration": 0.09484066666664148
                },
                {
                    "name": "A#5",
                    "midi": 82,
                    "time": 482.54931199998697,
                    "velocity": 0.41732283464566927,
                    "duration": 0.09484066666664148
                },
                {
                    "name": "F6",
                    "midi": 89,
                    "time": 482.6441526666536,
                    "velocity": 0.3858267716535433,
                    "duration": 0.09484066666664148
                },
                {
                    "name": "D6",
                    "midi": 86,
                    "time": 482.73899333332025,
                    "velocity": 0.3858267716535433,
                    "duration": 0.04742033333332074
                },
                {
                    "name": "A#5",
                    "midi": 82,
                    "time": 482.8338339999869,
                    "velocity": 0.41732283464566927,
                    "duration": 0.04742033333332074
                },
                {
                    "name": "F5",
                    "midi": 77,
                    "time": 482.92867466665354,
                    "velocity": 0.3779527559055118,
                    "duration": 0.04742033333332074
                },
                {
                    "name": "D5",
                    "midi": 74,
                    "time": 483.0235153333202,
                    "velocity": 0.36220472440944884,
                    "duration": 0.04742033333332074
                },
                {
                    "name": "A#4",
                    "midi": 70,
                    "time": 483.1183559999868,
                    "velocity": 0.4015748031496063,
                    "duration": 0.04742033333332074
                },
                {
                    "name": "D5",
                    "midi": 74,
                    "time": 483.21319666665346,
                    "velocity": 0.36220472440944884,
                    "duration": 0.04742033333332074
                },
                {
                    "name": "F5",
                    "midi": 77,
                    "time": 483.3080373333201,
                    "velocity": 0.36220472440944884,
                    "duration": 0.04742033333332074
                },
                {
                    "name": "D5",
                    "midi": 74,
                    "time": 483.40287799998674,
                    "velocity": 0.41732283464566927,
                    "duration": 0.04742033333332074
                },
                {
                    "name": "F5",
                    "midi": 77,
                    "time": 483.4977186666534,
                    "velocity": 0.3937007874015748,
                    "duration": 0.04742033333332074
                },
                {
                    "name": "A#5",
                    "midi": 82,
                    "time": 483.59255933332,
                    "velocity": 0.3937007874015748,
                    "duration": 0.04742033333332074
                },
                {
                    "name": "A#5",
                    "midi": 82,
                    "time": 483.68739999998667,
                    "velocity": 0.41732283464566927,
                    "duration": 0.09484066666664148
                },
                {
                    "name": "G6",
                    "midi": 91,
                    "time": 483.7822406666533,
                    "velocity": 0.3858267716535433,
                    "duration": 0.09484066666664148
                },
                {
                    "name": "D#6",
                    "midi": 87,
                    "time": 483.87708133331995,
                    "velocity": 0.3858267716535433,
                    "duration": 0.04742033333332074
                },
                {
                    "name": "A#5",
                    "midi": 82,
                    "time": 483.9719219999866,
                    "velocity": 0.41732283464566927,
                    "duration": 0.04742033333332074
                },
                {
                    "name": "G5",
                    "midi": 79,
                    "time": 484.06676266665323,
                    "velocity": 0.3779527559055118,
                    "duration": 0.04742033333332074
                },
                {
                    "name": "D#5",
                    "midi": 75,
                    "time": 484.1616033333199,
                    "velocity": 0.36220472440944884,
                    "duration": 0.04742033333332074
                },
                {
                    "name": "A#4",
                    "midi": 70,
                    "time": 484.2564439999865,
                    "velocity": 0.4015748031496063,
                    "duration": 0.04742033333332074
                },
                {
                    "name": "D#5",
                    "midi": 75,
                    "time": 484.35128466665316,
                    "velocity": 0.36220472440944884,
                    "duration": 0.04742033333332074
                },
                {
                    "name": "G5",
                    "midi": 79,
                    "time": 484.4461253333198,
                    "velocity": 0.36220472440944884,
                    "duration": 0.04742033333332074
                },
                {
                    "name": "D#5",
                    "midi": 75,
                    "time": 484.54096599998644,
                    "velocity": 0.41732283464566927,
                    "duration": 0.04742033333332074
                },
                {
                    "name": "G5",
                    "midi": 79,
                    "time": 484.6358066666531,
                    "velocity": 0.3937007874015748,
                    "duration": 0.04742033333332074
                },
                {
                    "name": "A#5",
                    "midi": 82,
                    "time": 484.7306473333197,
                    "velocity": 0.3937007874015748,
                    "duration": 0.04742033333332074
                },
                {
                    "name": "A#5",
                    "midi": 82,
                    "time": 484.82548799998636,
                    "velocity": 0.41732283464566927,
                    "duration": 0.09484066666664148
                },
                {
                    "name": "A#6",
                    "midi": 94,
                    "time": 484.920328666653,
                    "velocity": 0.3858267716535433,
                    "duration": 0.09484066666664148
                },
                {
                    "name": "F6",
                    "midi": 89,
                    "time": 485.01516933331965,
                    "velocity": 0.3858267716535433,
                    "duration": 0.04742033333332074
                },
                {
                    "name": "D6",
                    "midi": 86,
                    "time": 485.1100099999863,
                    "velocity": 0.41732283464566927,
                    "duration": 0.04742033333332074
                },
                {
                    "name": "A#5",
                    "midi": 82,
                    "time": 485.20485066665293,
                    "velocity": 0.3779527559055118,
                    "duration": 0.04742033333332074
                },
                {
                    "name": "F5",
                    "midi": 77,
                    "time": 485.2996913333196,
                    "velocity": 0.36220472440944884,
                    "duration": 0.04742033333332074
                },
                {
                    "name": "D5",
                    "midi": 74,
                    "time": 485.3945319999862,
                    "velocity": 0.4015748031496063,
                    "duration": 0.04742033333332074
                },
                {
                    "name": "A#4",
                    "midi": 70,
                    "time": 485.48937266665286,
                    "velocity": 0.36220472440944884,
                    "duration": 0.04742033333332074
                },
                {
                    "name": "F4",
                    "midi": 65,
                    "time": 485.5842133333195,
                    "velocity": 0.36220472440944884,
                    "duration": 0.04742033333332074
                },
                {
                    "name": "A#4",
                    "midi": 70,
                    "time": 485.67905399998614,
                    "velocity": 0.41732283464566927,
                    "duration": 0.04742033333332074
                },
                {
                    "name": "D5",
                    "midi": 74,
                    "time": 485.7738946666528,
                    "velocity": 0.3937007874015748,
                    "duration": 0.04742033333332074
                },
                {
                    "name": "F5",
                    "midi": 77,
                    "time": 485.8687353333194,
                    "velocity": 0.3937007874015748,
                    "duration": 0.04742033333332074
                },
                {
                    "name": "F5",
                    "midi": 77,
                    "time": 485.96357599998606,
                    "velocity": 0.4015748031496063,
                    "duration": 0.09484066666664148
                },
                {
                    "name": "A#5",
                    "midi": 82,
                    "time": 486.0584166666527,
                    "velocity": 0.3700787401574803,
                    "duration": 0.09484066666664148
                },
                {
                    "name": "A#5",
                    "midi": 82,
                    "time": 486.15325733331935,
                    "velocity": 0.3700787401574803,
                    "duration": 0.04742033333332074
                },
                {
                    "name": "G5",
                    "midi": 79,
                    "time": 486.248097999986,
                    "velocity": 0.4015748031496063,
                    "duration": 0.09484066666664148
                },
                {
                    "name": "C6",
                    "midi": 84,
                    "time": 486.3429386666526,
                    "velocity": 0.3779527559055118,
                    "duration": 0.09484066666664148
                },
                {
                    "name": "C6",
                    "midi": 84,
                    "time": 486.43777933331927,
                    "velocity": 0.3779527559055118,
                    "duration": 0.04742033333332074
                },
                {
                    "name": "F5",
                    "midi": 77,
                    "time": 486.5326199999859,
                    "velocity": 0.4015748031496063,
                    "duration": 0.09484066666664148
                },
                {
                    "name": "A#5",
                    "midi": 82,
                    "time": 486.62746066665255,
                    "velocity": 0.3700787401574803,
                    "duration": 0.09484066666664148
                },
                {
                    "name": "A#5",
                    "midi": 82,
                    "time": 486.7223013333192,
                    "velocity": 0.3700787401574803,
                    "duration": 0.04742033333332074
                },
                {
                    "name": "F5",
                    "midi": 77,
                    "time": 486.81714199998584,
                    "velocity": 0.4015748031496063,
                    "duration": 0.09484066666664148
                },
                {
                    "name": "A5",
                    "midi": 81,
                    "time": 486.9119826666525,
                    "velocity": 0.3700787401574803,
                    "duration": 0.09484066666664148
                },
                {
                    "name": "A5",
                    "midi": 81,
                    "time": 487.0068233333191,
                    "velocity": 0.3700787401574803,
                    "duration": 0.04742033333332074
                },
                {
                    "name": "F5",
                    "midi": 77,
                    "time": 487.10166399998576,
                    "velocity": 0.4015748031496063,
                    "duration": 0.09484066666664148
                },
                {
                    "name": "G#5",
                    "midi": 80,
                    "time": 487.1965046666524,
                    "velocity": 0.3700787401574803,
                    "duration": 0.09484066666664148
                },
                {
                    "name": "G#5",
                    "midi": 80,
                    "time": 487.29134533331904,
                    "velocity": 0.3700787401574803,
                    "duration": 0.04742033333332074
                },
                {
                    "name": "F5",
                    "midi": 77,
                    "time": 487.3861859999857,
                    "velocity": 0.4094488188976378,
                    "duration": 0.09484066666664148
                },
                {
                    "name": "G5",
                    "midi": 79,
                    "time": 487.4810266666523,
                    "velocity": 0.3937007874015748,
                    "duration": 0.09484066666664148
                },
                {
                    "name": "G5",
                    "midi": 79,
                    "time": 487.57586733331897,
                    "velocity": 0.3937007874015748,
                    "duration": 0.04742033333332074
                },
                {
                    "name": "B4",
                    "midi": 71,
                    "time": 487.6707079999856,
                    "velocity": 0.36220472440944884,
                    "duration": 0.09484066666664148
                },
                {
                    "name": "D5",
                    "midi": 74,
                    "time": 487.6707079999856,
                    "velocity": 0.4251968503937008,
                    "duration": 0.09484066666664148
                },
                {
                    "name": "G#5",
                    "midi": 80,
                    "time": 487.76554866665225,
                    "velocity": 0.3937007874015748,
                    "duration": 0.09484066666664148
                },
                {
                    "name": "G#5",
                    "midi": 80,
                    "time": 487.8603893333189,
                    "velocity": 0.4015748031496063,
                    "duration": 0.04742033333332074
                },
                {
                    "name": "B4",
                    "midi": 71,
                    "time": 487.95522999998553,
                    "velocity": 0.3700787401574803,
                    "duration": 0.09484066666664148
                },
                {
                    "name": "D5",
                    "midi": 74,
                    "time": 487.95522999998553,
                    "velocity": 0.4409448818897638,
                    "duration": 0.09484066666664148
                },
                {
                    "name": "G5",
                    "midi": 79,
                    "time": 488.0500706666522,
                    "velocity": 0.4094488188976378,
                    "duration": 0.09484066666664148
                },
                {
                    "name": "G5",
                    "midi": 79,
                    "time": 488.1449113333188,
                    "velocity": 0.41732283464566927,
                    "duration": 0.04742033333332074
                },
                {
                    "name": "A#4",
                    "midi": 70,
                    "time": 488.23975199998546,
                    "velocity": 0.3858267716535433,
                    "duration": 0.09484066666664148
                },
                {
                    "name": "D#5",
                    "midi": 75,
                    "time": 488.23975199998546,
                    "velocity": 0.4566929133858268,
                    "duration": 0.09484066666664148
                },
                {
                    "name": "G#5",
                    "midi": 80,
                    "time": 488.3345926666521,
                    "velocity": 0.4251968503937008,
                    "duration": 0.09484066666664148
                },
                {
                    "name": "G#5",
                    "midi": 80,
                    "time": 488.42943333331874,
                    "velocity": 0.4251968503937008,
                    "duration": 0.04742033333332074
                },
                {
                    "name": "A#4",
                    "midi": 70,
                    "time": 488.5242739999854,
                    "velocity": 0.3858267716535433,
                    "duration": 0.09484066666664148
                },
                {
                    "name": "D#5",
                    "midi": 75,
                    "time": 488.5242739999854,
                    "velocity": 0.4566929133858268,
                    "duration": 0.09484066666664148
                },
                {
                    "name": "G5",
                    "midi": 79,
                    "time": 488.619114666652,
                    "velocity": 0.4251968503937008,
                    "duration": 0.09484066666664148
                },
                {
                    "name": "G5",
                    "midi": 79,
                    "time": 488.71395533331867,
                    "velocity": 0.4251968503937008,
                    "duration": 0.04742033333332074
                },
                {
                    "name": "A#4",
                    "midi": 70,
                    "time": 488.8087959999853,
                    "velocity": 0.3779527559055118,
                    "duration": 0.09484066666664148
                },
                {
                    "name": "D5",
                    "midi": 74,
                    "time": 488.8087959999853,
                    "velocity": 0.44881889763779526,
                    "duration": 0.09484066666664148
                },
                {
                    "name": "F5",
                    "midi": 77,
                    "time": 488.90363666665195,
                    "velocity": 0.41732283464566927,
                    "duration": 0.09484066666664148
                },
                {
                    "name": "F5",
                    "midi": 77,
                    "time": 488.9984773333186,
                    "velocity": 0.4094488188976378,
                    "duration": 0.04742033333332074
                },
                {
                    "name": "A4",
                    "midi": 69,
                    "time": 489.09331799998523,
                    "velocity": 0.3779527559055118,
                    "duration": 0.09484066666664148
                },
                {
                    "name": "C5",
                    "midi": 72,
                    "time": 489.09331799998523,
                    "velocity": 0.44881889763779526,
                    "duration": 0.09484066666664148
                },
                {
                    "name": "F5",
                    "midi": 77,
                    "time": 489.1881586666519,
                    "velocity": 0.4094488188976378,
                    "duration": 0.09484066666664148
                },
                {
                    "name": "F5",
                    "midi": 77,
                    "time": 489.2829993333185,
                    "velocity": 0.4094488188976378,
                    "duration": 0.04742033333332074
                },
                {
                    "name": "A#4",
                    "midi": 70,
                    "time": 489.37783999998516,
                    "velocity": 0.3228346456692913,
                    "duration": 0.2845219999999813
                },
                {
                    "name": "D5",
                    "midi": 74,
                    "time": 489.37783999998516,
                    "velocity": 0.3228346456692913,
                    "duration": 0.2845219999999813
                },
                {
                    "name": "F5",
                    "midi": 77,
                    "time": 489.37783999998516,
                    "velocity": 0.3858267716535433,
                    "duration": 0.2845219999999813
                },
                {
                    "name": "A#5",
                    "midi": 82,
                    "time": 489.9468839999851,
                    "velocity": 0.3858267716535433,
                    "duration": 0.14226100000001907
                },
                {
                    "name": "D5",
                    "midi": 74,
                    "time": 489.9468839999851,
                    "velocity": 0.31496062992125984,
                    "duration": 0.14226100000001907
                },
                {
                    "name": "F5",
                    "midi": 77,
                    "time": 489.9468839999851,
                    "velocity": 0.31496062992125984,
                    "duration": 0.14226100000001907
                },
                {
                    "name": "F5",
                    "midi": 77,
                    "time": 490.23140599998516,
                    "velocity": 0.31496062992125984,
                    "duration": 0.14226100000001907
                },
                {
                    "name": "G#5",
                    "midi": 80,
                    "time": 490.23140599998516,
                    "velocity": 0.31496062992125984,
                    "duration": 0.14226100000001907
                },
                {
                    "name": "A#5",
                    "midi": 82,
                    "time": 490.23140599998516,
                    "velocity": 0.3858267716535433,
                    "duration": 0.14226100000001907
                },
                {
                    "name": "D#5",
                    "midi": 75,
                    "time": 490.5159279999852,
                    "velocity": 0.3543307086614173,
                    "duration": 0.2845219999999813
                },
                {
                    "name": "G5",
                    "midi": 79,
                    "time": 490.5159279999852,
                    "velocity": 0.3543307086614173,
                    "duration": 0.2845219999999813
                },
                {
                    "name": "A#5",
                    "midi": 82,
                    "time": 490.5159279999852,
                    "velocity": 0.41732283464566927,
                    "duration": 0.2845219999999813
                },
                {
                    "name": "D#5",
                    "midi": 75,
                    "time": 491.08497199998516,
                    "velocity": 0.31496062992125984,
                    "duration": 0.14226100000001907
                },
                {
                    "name": "G5",
                    "midi": 79,
                    "time": 491.08497199998516,
                    "velocity": 0.31496062992125984,
                    "duration": 0.14226100000001907
                },
                {
                    "name": "A#5",
                    "midi": 82,
                    "time": 491.08497199998516,
                    "velocity": 0.3858267716535433,
                    "duration": 0.14226100000001907
                },
                {
                    "name": "G5",
                    "midi": 79,
                    "time": 491.3694939999852,
                    "velocity": 0.31496062992125984,
                    "duration": 0.14226100000001907
                },
                {
                    "name": "A#5",
                    "midi": 82,
                    "time": 491.3694939999852,
                    "velocity": 0.3858267716535433,
                    "duration": 0.14226100000001907
                },
                {
                    "name": "D5",
                    "midi": 74,
                    "time": 491.65401599998523,
                    "velocity": 0.3543307086614173,
                    "duration": 0.2845219999999813
                },
                {
                    "name": "F5",
                    "midi": 77,
                    "time": 491.65401599998523,
                    "velocity": 0.3543307086614173,
                    "duration": 0.2845219999999813
                },
                {
                    "name": "A#5",
                    "midi": 82,
                    "time": 491.65401599998523,
                    "velocity": 0.41732283464566927,
                    "duration": 0.2845219999999813
                },
                {
                    "name": "F5",
                    "midi": 77,
                    "time": 492.2230599999852,
                    "velocity": 0.3464566929133858,
                    "duration": 0.14226100000001907
                },
                {
                    "name": "A#5",
                    "midi": 82,
                    "time": 492.2230599999852,
                    "velocity": 0.3464566929133858,
                    "duration": 0.14226100000001907
                },
                {
                    "name": "D6",
                    "midi": 86,
                    "time": 492.2230599999852,
                    "velocity": 0.41732283464566927,
                    "duration": 0.14226100000001907
                },
                {
                    "name": "F5",
                    "midi": 77,
                    "time": 492.50758199998523,
                    "velocity": 0.3464566929133858,
                    "duration": 0.14226100000001907
                },
                {
                    "name": "D6",
                    "midi": 86,
                    "time": 492.50758199998523,
                    "velocity": 0.3464566929133858,
                    "duration": 0.14226100000001907
                },
                {
                    "name": "F6",
                    "midi": 89,
                    "time": 492.50758199998523,
                    "velocity": 0.41732283464566927,
                    "duration": 0.14226100000001907
                },
                {
                    "name": "F6",
                    "midi": 89,
                    "time": 492.7921039999853,
                    "velocity": 0.4409448818897638,
                    "duration": 0.09484066666664148
                },
                {
                    "name": "A#6",
                    "midi": 94,
                    "time": 492.8869446666519,
                    "velocity": 0.4015748031496063,
                    "duration": 0.09484066666664148
                },
                {
                    "name": "A#6",
                    "midi": 94,
                    "time": 492.98178533331856,
                    "velocity": 0.4015748031496063,
                    "duration": 0.04742033333332074
                },
                {
                    "name": "G6",
                    "midi": 91,
                    "time": 493.0766259999852,
                    "velocity": 0.4409448818897638,
                    "duration": 0.09484066666664148
                },
                {
                    "name": "C7",
                    "midi": 96,
                    "time": 493.17146666665184,
                    "velocity": 0.4094488188976378,
                    "duration": 0.09484066666664148
                },
                {
                    "name": "C7",
                    "midi": 96,
                    "time": 493.2663073333185,
                    "velocity": 0.4094488188976378,
                    "duration": 0.04742033333332074
                },
                {
                    "name": "F6",
                    "midi": 89,
                    "time": 493.3611479999851,
                    "velocity": 0.4409448818897638,
                    "duration": 0.09484066666664148
                },
                {
                    "name": "A#6",
                    "midi": 94,
                    "time": 493.45598866665176,
                    "velocity": 0.4015748031496063,
                    "duration": 0.09484066666664148
                },
                {
                    "name": "A#6",
                    "midi": 94,
                    "time": 493.5508293333184,
                    "velocity": 0.4015748031496063,
                    "duration": 0.04742033333332074
                },
                {
                    "name": "F6",
                    "midi": 89,
                    "time": 493.64566999998505,
                    "velocity": 0.4409448818897638,
                    "duration": 0.09484066666664148
                },
                {
                    "name": "A6",
                    "midi": 93,
                    "time": 493.7405106666517,
                    "velocity": 0.4015748031496063,
                    "duration": 0.09484066666664148
                },
                {
                    "name": "A6",
                    "midi": 93,
                    "time": 493.83535133331833,
                    "velocity": 0.4015748031496063,
                    "duration": 0.04742033333332074
                },
                {
                    "name": "F6",
                    "midi": 89,
                    "time": 493.93019199998497,
                    "velocity": 0.4409448818897638,
                    "duration": 0.09484066666664148
                },
                {
                    "name": "G#6",
                    "midi": 92,
                    "time": 494.0250326666516,
                    "velocity": 0.4015748031496063,
                    "duration": 0.09484066666664148
                },
                {
                    "name": "G#6",
                    "midi": 92,
                    "time": 494.11987333331825,
                    "velocity": 0.4015748031496063,
                    "duration": 0.04742033333332074
                },
                {
                    "name": "F6",
                    "midi": 89,
                    "time": 494.2147139999849,
                    "velocity": 0.44881889763779526,
                    "duration": 0.09484066666664148
                },
                {
                    "name": "G6",
                    "midi": 91,
                    "time": 494.30955466665154,
                    "velocity": 0.4330708661417323,
                    "duration": 0.09484066666664148
                },
                {
                    "name": "G6",
                    "midi": 91,
                    "time": 494.4043953333182,
                    "velocity": 0.4330708661417323,
                    "duration": 0.04742033333332074
                },
                {
                    "name": "B5",
                    "midi": 83,
                    "time": 494.4992359999848,
                    "velocity": 0.4566929133858268,
                    "duration": 0.09484066666664148
                },
                {
                    "name": "D6",
                    "midi": 86,
                    "time": 494.4992359999848,
                    "velocity": 0.4566929133858268,
                    "duration": 0.09484066666664148
                },
                {
                    "name": "G#6",
                    "midi": 92,
                    "time": 494.59407666665146,
                    "velocity": 0.41732283464566927,
                    "duration": 0.09484066666664148
                },
                {
                    "name": "G#6",
                    "midi": 92,
                    "time": 494.6889173333181,
                    "velocity": 0.41732283464566927,
                    "duration": 0.04742033333332074
                },
                {
                    "name": "B5",
                    "midi": 83,
                    "time": 494.78375799998474,
                    "velocity": 0.3779527559055118,
                    "duration": 0.09484066666664148
                },
                {
                    "name": "D6",
                    "midi": 86,
                    "time": 494.78375799998474,
                    "velocity": 0.44881889763779526,
                    "duration": 0.09484066666664148
                },
                {
                    "name": "G6",
                    "midi": 91,
                    "time": 494.8785986666514,
                    "velocity": 0.4251968503937008,
                    "duration": 0.09484066666664148
                },
                {
                    "name": "G6",
                    "midi": 91,
                    "time": 494.973439333318,
                    "velocity": 0.4251968503937008,
                    "duration": 0.04742033333332074
                },
                {
                    "name": "A#5",
                    "midi": 82,
                    "time": 495.06827999998467,
                    "velocity": 0.3779527559055118,
                    "duration": 0.09484066666664148
                },
                {
                    "name": "D#6",
                    "midi": 87,
                    "time": 495.06827999998467,
                    "velocity": 0.44881889763779526,
                    "duration": 0.09484066666664148
                },
                {
                    "name": "G#6",
                    "midi": 92,
                    "time": 495.1631206666513,
                    "velocity": 0.4094488188976378,
                    "duration": 0.09484066666664148
                },
                {
                    "name": "G#6",
                    "midi": 92,
                    "time": 495.25796133331795,
                    "velocity": 0.4094488188976378,
                    "duration": 0.04742033333332074
                },
                {
                    "name": "A#5",
                    "midi": 82,
                    "time": 495.3528019999846,
                    "velocity": 0.3779527559055118,
                    "duration": 0.09484066666664148
                },
                {
                    "name": "D#6",
                    "midi": 87,
                    "time": 495.3528019999846,
                    "velocity": 0.44881889763779526,
                    "duration": 0.09484066666664148
                },
                {
                    "name": "G6",
                    "midi": 91,
                    "time": 495.44764266665123,
                    "velocity": 0.41732283464566927,
                    "duration": 0.09484066666664148
                },
                {
                    "name": "G6",
                    "midi": 91,
                    "time": 495.5424833333179,
                    "velocity": 0.4094488188976378,
                    "duration": 0.04742033333332074
                },
                {
                    "name": "A#5",
                    "midi": 82,
                    "time": 495.6373239999845,
                    "velocity": 0.3779527559055118,
                    "duration": 0.09484066666664148
                },
                {
                    "name": "D6",
                    "midi": 86,
                    "time": 495.6373239999845,
                    "velocity": 0.44881889763779526,
                    "duration": 0.09484066666664148
                },
                {
                    "name": "F6",
                    "midi": 89,
                    "time": 495.73216466665116,
                    "velocity": 0.41732283464566927,
                    "duration": 0.09484066666664148
                },
                {
                    "name": "F6",
                    "midi": 89,
                    "time": 495.8270053333178,
                    "velocity": 0.3858267716535433,
                    "duration": 0.04742033333332074
                },
                {
                    "name": "A5",
                    "midi": 81,
                    "time": 495.92184599998444,
                    "velocity": 0.3543307086614173,
                    "duration": 0.09484066666664148
                },
                {
                    "name": "C6",
                    "midi": 84,
                    "time": 495.92184599998444,
                    "velocity": 0.4251968503937008,
                    "duration": 0.09484066666664148
                },
                {
                    "name": "F6",
                    "midi": 89,
                    "time": 496.0166866666511,
                    "velocity": 0.3779527559055118,
                    "duration": 0.09484066666664148
                },
                {
                    "name": "F6",
                    "midi": 89,
                    "time": 496.1115273333177,
                    "velocity": 0.3779527559055118,
                    "duration": 0.04742033333332074
                },
                {
                    "name": "D#5",
                    "midi": 75,
                    "time": 496.20636799998437,
                    "velocity": 0.3543307086614173,
                    "duration": 0.09484066666664148
                },
                {
                    "name": "F#5",
                    "midi": 78,
                    "time": 496.301208666651,
                    "velocity": 0.33070866141732286,
                    "duration": 0.09484066666664148
                },
                {
                    "name": "F#5",
                    "midi": 78,
                    "time": 496.39604933331765,
                    "velocity": 0.33070866141732286,
                    "duration": 0.04742033333332074
                },
                {
                    "name": "D#5",
                    "midi": 75,
                    "time": 496.4908899999843,
                    "velocity": 0.36220472440944884,
                    "duration": 0.09484066666664148
                },
                {
                    "name": "F5",
                    "midi": 77,
                    "time": 496.58573066665093,
                    "velocity": 0.3543307086614173,
                    "duration": 0.09484066666664148
                },
                {
                    "name": "F5",
                    "midi": 77,
                    "time": 496.6805713333176,
                    "velocity": 0.3543307086614173,
                    "duration": 0.04742033333332074
                },
                {
                    "name": "A4",
                    "midi": 69,
                    "time": 496.7754119999842,
                    "velocity": 0.3228346456692913,
                    "duration": 0.09484066666664148
                },
                {
                    "name": "C5",
                    "midi": 72,
                    "time": 496.7754119999842,
                    "velocity": 0.3779527559055118,
                    "duration": 0.09484066666664148
                },
                {
                    "name": "F#5",
                    "midi": 78,
                    "time": 496.87025266665086,
                    "velocity": 0.3543307086614173,
                    "duration": 0.09484066666664148
                },
                {
                    "name": "F#5",
                    "midi": 78,
                    "time": 496.9650933333175,
                    "velocity": 0.3543307086614173,
                    "duration": 0.04742033333332074
                },
                {
                    "name": "A4",
                    "midi": 69,
                    "time": 497.05993399998414,
                    "velocity": 0.33070866141732286,
                    "duration": 0.09484066666664148
                },
                {
                    "name": "C5",
                    "midi": 72,
                    "time": 497.05993399998414,
                    "velocity": 0.3937007874015748,
                    "duration": 0.09484066666664148
                },
                {
                    "name": "F5",
                    "midi": 77,
                    "time": 497.1547746666508,
                    "velocity": 0.36220472440944884,
                    "duration": 0.09484066666664148
                },
                {
                    "name": "F5",
                    "midi": 77,
                    "time": 497.2496153333174,
                    "velocity": 0.3700787401574803,
                    "duration": 0.04742033333332074
                },
                {
                    "name": "G#4",
                    "midi": 68,
                    "time": 497.34445599998406,
                    "velocity": 0.3464566929133858,
                    "duration": 0.09484066666664148
                },
                {
                    "name": "C#5",
                    "midi": 73,
                    "time": 497.34445599998406,
                    "velocity": 0.4094488188976378,
                    "duration": 0.09484066666664148
                },
                {
                    "name": "F#5",
                    "midi": 78,
                    "time": 497.4392966666507,
                    "velocity": 0.3779527559055118,
                    "duration": 0.09484066666664148
                },
                {
                    "name": "F#5",
                    "midi": 78,
                    "time": 497.53413733331735,
                    "velocity": 0.3779527559055118,
                    "duration": 0.04742033333332074
                },
                {
                    "name": "G#4",
                    "midi": 68,
                    "time": 497.628977999984,
                    "velocity": 0.3464566929133858,
                    "duration": 0.09484066666664148
                },
                {
                    "name": "C#5",
                    "midi": 73,
                    "time": 497.628977999984,
                    "velocity": 0.4094488188976378,
                    "duration": 0.09484066666664148
                },
                {
                    "name": "F5",
                    "midi": 77,
                    "time": 497.72381866665063,
                    "velocity": 0.3779527559055118,
                    "duration": 0.09484066666664148
                },
                {
                    "name": "F5",
                    "midi": 77,
                    "time": 497.81865933331727,
                    "velocity": 0.3779527559055118,
                    "duration": 0.04742033333332074
                },
                {
                    "name": "G#4",
                    "midi": 68,
                    "time": 497.9134999999839,
                    "velocity": 0.33858267716535434,
                    "duration": 0.09484066666664148
                },
                {
                    "name": "C5",
                    "midi": 72,
                    "time": 497.9134999999839,
                    "velocity": 0.4015748031496063,
                    "duration": 0.09484066666664148
                },
                {
                    "name": "D#5",
                    "midi": 75,
                    "time": 498.00834066665055,
                    "velocity": 0.3700787401574803,
                    "duration": 0.09484066666664148
                },
                {
                    "name": "D#5",
                    "midi": 75,
                    "time": 498.1031813333172,
                    "velocity": 0.36220472440944884,
                    "duration": 0.04742033333332074
                },
                {
                    "name": "G4",
                    "midi": 67,
                    "time": 498.19802199998384,
                    "velocity": 0.33858267716535434,
                    "duration": 0.09484066666664148
                },
                {
                    "name": "A#4",
                    "midi": 70,
                    "time": 498.19802199998384,
                    "velocity": 0.4015748031496063,
                    "duration": 0.09484066666664148
                },
                {
                    "name": "D#5",
                    "midi": 75,
                    "time": 498.2928626666505,
                    "velocity": 0.36220472440944884,
                    "duration": 0.09484066666664148
                },
                {
                    "name": "D#5",
                    "midi": 75,
                    "time": 498.3877033333171,
                    "velocity": 0.36220472440944884,
                    "duration": 0.04742033333332074
                },
                {
                    "name": "F#5",
                    "midi": 78,
                    "time": 499.0515879999838,
                    "velocity": 0.3228346456692913,
                    "duration": 0.09484066666664148
                },
                {
                    "name": "B5",
                    "midi": 83,
                    "time": 499.0515879999838,
                    "velocity": 0.3779527559055118,
                    "duration": 0.09484066666664148
                },
                {
                    "name": "D#6",
                    "midi": 87,
                    "time": 499.1464286666504,
                    "velocity": 0.3543307086614173,
                    "duration": 0.09484066666664148
                },
                {
                    "name": "D#6",
                    "midi": 87,
                    "time": 499.24126933331706,
                    "velocity": 0.3543307086614173,
                    "duration": 0.04742033333332074
                },
                {
                    "name": "F#5",
                    "midi": 78,
                    "time": 499.3361099999837,
                    "velocity": 0.3228346456692913,
                    "duration": 0.09484066666664148
                },
                {
                    "name": "B5",
                    "midi": 83,
                    "time": 499.3361099999837,
                    "velocity": 0.3858267716535433,
                    "duration": 0.09484066666664148
                },
                {
                    "name": "D6",
                    "midi": 86,
                    "time": 499.43095066665035,
                    "velocity": 0.3464566929133858,
                    "duration": 0.09484066666664148
                },
                {
                    "name": "D6",
                    "midi": 86,
                    "time": 499.525791333317,
                    "velocity": 0.3464566929133858,
                    "duration": 0.04742033333332074
                },
                {
                    "name": "F#5",
                    "midi": 78,
                    "time": 499.62063199998363,
                    "velocity": 0.33070866141732286,
                    "duration": 0.09484066666664148
                },
                {
                    "name": "A#5",
                    "midi": 82,
                    "time": 499.62063199998363,
                    "velocity": 0.3937007874015748,
                    "duration": 0.09484066666664148
                },
                {
                    "name": "C#6",
                    "midi": 85,
                    "time": 499.71547266665027,
                    "velocity": 0.36220472440944884,
                    "duration": 0.09484066666664148
                },
                {
                    "name": "C#6",
                    "midi": 85,
                    "time": 499.8103133333169,
                    "velocity": 0.36220472440944884,
                    "duration": 0.04742033333332074
                },
                {
                    "name": "F5",
                    "midi": 77,
                    "time": 499.90515399998355,
                    "velocity": 0.31496062992125984,
                    "duration": 0.09484066666664148
                },
                {
                    "name": "G#5",
                    "midi": 80,
                    "time": 499.90515399998355,
                    "velocity": 0.3779527559055118,
                    "duration": 0.09484066666664148
                },
                {
                    "name": "C#6",
                    "midi": 85,
                    "time": 499.9999946666502,
                    "velocity": 0.3464566929133858,
                    "duration": 0.09484066666664148
                },
                {
                    "name": "C#6",
                    "midi": 85,
                    "time": 500.09483533331684,
                    "velocity": 0.3464566929133858,
                    "duration": 0.04742033333332074
                },
                {
                    "name": "F#4",
                    "midi": 66,
                    "time": 500.4741979999835,
                    "velocity": 0.29133858267716534,
                    "duration": 0.09484066666664148
                },
                {
                    "name": "A4",
                    "midi": 69,
                    "time": 500.4741979999835,
                    "velocity": 0.3464566929133858,
                    "duration": 0.09484066666664148
                },
                {
                    "name": "C#5",
                    "midi": 73,
                    "time": 500.56903866665016,
                    "velocity": 0.30708661417322836,
                    "duration": 0.09484066666664148
                },
                {
                    "name": "C#5",
                    "midi": 73,
                    "time": 500.6638793333168,
                    "velocity": 0.30708661417322836,
                    "duration": 0.04742033333332074
                },
                {
                    "name": "F4",
                    "midi": 65,
                    "time": 500.75871999998344,
                    "velocity": 0.2992125984251969,
                    "duration": 0.09484066666664148
                },
                {
                    "name": "G#4",
                    "midi": 68,
                    "time": 500.75871999998344,
                    "velocity": 0.3543307086614173,
                    "duration": 0.09484066666664148
                },
                {
                    "name": "C#5",
                    "midi": 73,
                    "time": 500.8535606666501,
                    "velocity": 0.3228346456692913,
                    "duration": 0.09484066666664148
                },
                {
                    "name": "C#5",
                    "midi": 73,
                    "time": 500.9484013333167,
                    "velocity": 0.3228346456692913,
                    "duration": 0.04742033333332074
                },
                {
                    "name": "F4",
                    "midi": 65,
                    "time": 501.3277639999834,
                    "velocity": 0.25984251968503935,
                    "duration": 0.09484066666664148
                },
                {
                    "name": "G#4",
                    "midi": 68,
                    "time": 501.3277639999834,
                    "velocity": 0.30708661417322836,
                    "duration": 0.09484066666664148
                },
                {
                    "name": "B4",
                    "midi": 71,
                    "time": 501.42260466665005,
                    "velocity": 0.2755905511811024,
                    "duration": 0.09484066666664148
                },
                {
                    "name": "B4",
                    "midi": 71,
                    "time": 501.5174453333167,
                    "velocity": 0.2755905511811024,
                    "duration": 0.04742033333332074
                },
                {
                    "name": "F4",
                    "midi": 65,
                    "time": 501.6122859999833,
                    "velocity": 0.2677165354330709,
                    "duration": 0.09484066666664148
                },
                {
                    "name": "G#4",
                    "midi": 68,
                    "time": 501.6122859999833,
                    "velocity": 0.31496062992125984,
                    "duration": 0.09484066666664148
                },
                {
                    "name": "A#4",
                    "midi": 70,
                    "time": 501.70712666664997,
                    "velocity": 0.28346456692913385,
                    "duration": 0.09484066666664148
                },
                {
                    "name": "A#4",
                    "midi": 70,
                    "time": 501.8019673333166,
                    "velocity": 0.28346456692913385,
                    "duration": 0.04742033333332074
                },
                {
                    "name": "F5",
                    "midi": 77,
                    "time": 502.1813299999833,
                    "velocity": 0.31496062992125984,
                    "duration": 0.09484066666664148
                },
                {
                    "name": "G#5",
                    "midi": 80,
                    "time": 502.1813299999833,
                    "velocity": 0.31496062992125984,
                    "duration": 0.09484066666664148
                },
                {
                    "name": "A#5",
                    "midi": 82,
                    "time": 502.27617066664993,
                    "velocity": 0.28346456692913385,
                    "duration": 0.09484066666664148
                },
                {
                    "name": "A#5",
                    "midi": 82,
                    "time": 502.3710113333166,
                    "velocity": 0.28346456692913385,
                    "duration": 0.04742033333332074
                },
                {
                    "name": "D#5",
                    "midi": 75,
                    "time": 502.4658519999832,
                    "velocity": 0.3543307086614173,
                    "duration": 0.09484066666664148
                },
                {
                    "name": "G#5",
                    "midi": 80,
                    "time": 502.4658519999832,
                    "velocity": 0.3543307086614173,
                    "duration": 0.09484066666664148
                },
                {
                    "name": "C6",
                    "midi": 84,
                    "time": 502.56069266664986,
                    "velocity": 0.29133858267716534,
                    "duration": 0.09484066666664148
                },
                {
                    "name": "C6",
                    "midi": 84,
                    "time": 502.6555333333165,
                    "velocity": 0.29133858267716534,
                    "duration": 0.04742033333332074
                },
                {
                    "name": "D#5",
                    "midi": 75,
                    "time": 502.75037399998314,
                    "velocity": 0.3543307086614173,
                    "duration": 0.09484066666664148
                },
                {
                    "name": "G5",
                    "midi": 79,
                    "time": 502.75037399998314,
                    "velocity": 0.3543307086614173,
                    "duration": 0.09484066666664148
                },
                {
                    "name": "A#5",
                    "midi": 82,
                    "time": 502.8452146666498,
                    "velocity": 0.30708661417322836,
                    "duration": 0.09484066666664148
                },
                {
                    "name": "A#5",
                    "midi": 82,
                    "time": 502.9400553333164,
                    "velocity": 0.30708661417322836,
                    "duration": 0.04742033333332074
                },
                {
                    "name": "D#4",
                    "midi": 63,
                    "time": 503.03489599998306,
                    "velocity": 0.30708661417322836,
                    "duration": 0.09484066666664148
                },
                {
                    "name": "G4",
                    "midi": 67,
                    "time": 503.03489599998306,
                    "velocity": 0.3700787401574803,
                    "duration": 0.09484066666664148
                },
                {
                    "name": "A#4",
                    "midi": 70,
                    "time": 503.1297366666497,
                    "velocity": 0.31496062992125984,
                    "duration": 0.09484066666664148
                },
                {
                    "name": "A#4",
                    "midi": 70,
                    "time": 503.22457733331635,
                    "velocity": 0.31496062992125984,
                    "duration": 0.04742033333332074
                },
                {
                    "name": "D4",
                    "midi": 62,
                    "time": 503.319417999983,
                    "velocity": 0.33858267716535434,
                    "duration": 0.09484066666664148
                },
                {
                    "name": "F4",
                    "midi": 65,
                    "time": 503.319417999983,
                    "velocity": 0.4015748031496063,
                    "duration": 0.09484066666664148
                },
                {
                    "name": "A#4",
                    "midi": 70,
                    "time": 503.41425866664963,
                    "velocity": 0.36220472440944884,
                    "duration": 0.09484066666664148
                },
                {
                    "name": "A#4",
                    "midi": 70,
                    "time": 503.50909933331627,
                    "velocity": 0.36220472440944884,
                    "duration": 0.04742033333332074
                },
                {
                    "name": "F4",
                    "midi": 65,
                    "time": 503.6039399999829,
                    "velocity": 0.3858267716535433,
                    "duration": 0.09484066666664148
                },
                {
                    "name": "A#4",
                    "midi": 70,
                    "time": 503.6039399999829,
                    "velocity": 0.4566929133858268,
                    "duration": 0.09484066666664148
                },
                {
                    "name": "F5",
                    "midi": 77,
                    "time": 503.69878066664955,
                    "velocity": 0.3937007874015748,
                    "duration": 0.09484066666664148
                },
                {
                    "name": "F5",
                    "midi": 77,
                    "time": 503.7936213333162,
                    "velocity": 0.3937007874015748,
                    "duration": 0.04742033333332074
                },
                {
                    "name": "F4",
                    "midi": 65,
                    "time": 503.88846199998284,
                    "velocity": 0.3937007874015748,
                    "duration": 0.09484066666664148
                },
                {
                    "name": "A4",
                    "midi": 69,
                    "time": 503.88846199998284,
                    "velocity": 0.47244094488188976,
                    "duration": 0.09484066666664148
                },
                {
                    "name": "F5",
                    "midi": 77,
                    "time": 503.9833026666495,
                    "velocity": 0.41732283464566927,
                    "duration": 0.09484066666664148
                },
                {
                    "name": "F5",
                    "midi": 77,
                    "time": 504.0781433333161,
                    "velocity": 0.41732283464566927,
                    "duration": 0.04742033333332074
                },
                {
                    "name": "D4",
                    "midi": 62,
                    "time": 504.17298399998276,
                    "velocity": 0.4566929133858268,
                    "duration": 0.07113049999998111
                },
                {
                    "name": "F4",
                    "midi": 65,
                    "time": 504.17298399998276,
                    "velocity": 0.4566929133858268,
                    "duration": 0.07113049999998111
                },
                {
                    "name": "A#4",
                    "midi": 70,
                    "time": 504.17298399998276,
                    "velocity": 0.4566929133858268,
                    "duration": 0.07113049999998111
                },
                {
                    "name": "F4",
                    "midi": 65,
                    "time": 504.2678246666494,
                    "velocity": 0.3700787401574803,
                    "duration": 0.09484066666664148
                },
                {
                    "name": "D4",
                    "midi": 62,
                    "time": 504.36266533331604,
                    "velocity": 0.3700787401574803,
                    "duration": 0.09484066666664148
                },
                {
                    "name": "F4",
                    "midi": 65,
                    "time": 504.4575059999827,
                    "velocity": 0.3700787401574803,
                    "duration": 0.09484066666664148
                },
                {
                    "name": "A#4",
                    "midi": 70,
                    "time": 504.5523466666493,
                    "velocity": 0.4015748031496063,
                    "duration": 0.09484066666664148
                },
                {
                    "name": "D5",
                    "midi": 74,
                    "time": 504.64718733331597,
                    "velocity": 0.4330708661417323,
                    "duration": 0.09484066666664148
                },
                {
                    "name": "F5",
                    "midi": 77,
                    "time": 504.7420279999826,
                    "velocity": 0.5354330708661418,
                    "duration": 0.42678300000000036
                },
                {
                    "name": "G4",
                    "midi": 67,
                    "time": 505.0265499999826,
                    "velocity": 0.3779527559055118,
                    "duration": 0.14226100000001907
                },
                {
                    "name": "A4",
                    "midi": 69,
                    "time": 505.1688109999826,
                    "velocity": 0.3543307086614173,
                    "duration": 0.14226100000001907
                },
                {
                    "name": "D#5",
                    "midi": 75,
                    "time": 505.1688109999826,
                    "velocity": 0.4251968503937008,
                    "duration": 0.14226100000001907
                },
                {
                    "name": "F4",
                    "midi": 65,
                    "time": 505.31107199998263,
                    "velocity": 0.3700787401574803,
                    "duration": 0.2845219999999813
                },
                {
                    "name": "A#4",
                    "midi": 70,
                    "time": 505.31107199998263,
                    "velocity": 0.3700787401574803,
                    "duration": 0.2845219999999813
                },
                {
                    "name": "D5",
                    "midi": 74,
                    "time": 505.31107199998263,
                    "velocity": 0.4409448818897638,
                    "duration": 0.2845219999999813
                },
                {
                    "name": "F#4",
                    "midi": 66,
                    "time": 505.5955939999826,
                    "velocity": 0.4094488188976378,
                    "duration": 0.2845219999999813
                },
                {
                    "name": "C5",
                    "midi": 72,
                    "time": 505.5955939999826,
                    "velocity": 0.4094488188976378,
                    "duration": 0.2845219999999813
                },
                {
                    "name": "D5",
                    "midi": 74,
                    "time": 505.5955939999826,
                    "velocity": 0.4881889763779528,
                    "duration": 0.2845219999999813
                },
                {
                    "name": "G4",
                    "midi": 67,
                    "time": 505.8801159999826,
                    "velocity": 0.4251968503937008,
                    "duration": 0.2845219999999813
                },
                {
                    "name": "F4",
                    "midi": 65,
                    "time": 505.8801159999826,
                    "velocity": 0.4251968503937008,
                    "duration": 0.2845219999999813
                },
                {
                    "name": "B4",
                    "midi": 71,
                    "time": 505.8801159999826,
                    "velocity": 0.4251968503937008,
                    "duration": 0.2845219999999813
                },
                {
                    "name": "D5",
                    "midi": 74,
                    "time": 505.8801159999826,
                    "velocity": 0.5039370078740157,
                    "duration": 0.2845219999999813
                },
                {
                    "name": "D#5",
                    "midi": 75,
                    "time": 506.1646379999826,
                    "velocity": 0.5118110236220472,
                    "duration": 0.21339150000000018
                },
                {
                    "name": "D#4",
                    "midi": 63,
                    "time": 506.1646379999826,
                    "velocity": 0.4330708661417323,
                    "duration": 0.2845219999999813
                },
                {
                    "name": "G4",
                    "midi": 67,
                    "time": 506.1646379999826,
                    "velocity": 0.4330708661417323,
                    "duration": 0.2845219999999813
                },
                {
                    "name": "C5",
                    "midi": 72,
                    "time": 506.1646379999826,
                    "velocity": 0.4330708661417323,
                    "duration": 0.2845219999999813
                },
                {
                    "name": "D5",
                    "midi": 74,
                    "time": 506.3780294999826,
                    "velocity": 0.4330708661417323,
                    "duration": 0.07113049999998111
                },
                {
                    "name": "F4",
                    "midi": 65,
                    "time": 506.44915999998256,
                    "velocity": 0.3464566929133858,
                    "duration": 0.6401745000000005
                },
                {
                    "name": "A4",
                    "midi": 69,
                    "time": 506.44915999998256,
                    "velocity": 0.3464566929133858,
                    "duration": 0.5690440000000194
                },
                {
                    "name": "C5",
                    "midi": 72,
                    "time": 506.44915999998256,
                    "velocity": 0.4094488188976378,
                    "duration": 0.42678300000000036
                },
                {
                    "name": "C#5",
                    "midi": 73,
                    "time": 506.87594299998256,
                    "velocity": 0.3700787401574803,
                    "duration": 0.14226100000001907
                },
                {
                    "name": "A#4",
                    "midi": 70,
                    "time": 507.0182039999826,
                    "velocity": 0.33858267716535434,
                    "duration": 0.07113049999998111
                },
                {
                    "name": "D5",
                    "midi": 74,
                    "time": 507.0182039999826,
                    "velocity": 0.4015748031496063,
                    "duration": 0.07113049999998111
                },
                {
                    "name": "F4",
                    "midi": 65,
                    "time": 507.30272599998256,
                    "velocity": 0.30708661417322836,
                    "duration": 0.07113049999998111
                },
                {
                    "name": "A#4",
                    "midi": 70,
                    "time": 507.30272599998256,
                    "velocity": 0.30708661417322836,
                    "duration": 0.07113049999998111
                },
                {
                    "name": "D5",
                    "midi": 74,
                    "time": 507.30272599998256,
                    "velocity": 0.36220472440944884,
                    "duration": 0.07113049999998111
                },
                {
                    "name": "F3",
                    "midi": 53,
                    "time": 507.6820886666492,
                    "velocity": 0.3700787401574803,
                    "duration": 0.09484066666664148
                },
                {
                    "name": "D3",
                    "midi": 50,
                    "time": 507.7769293333158,
                    "velocity": 0.3700787401574803,
                    "duration": 0.09484066666664148
                },
                {
                    "name": "F3",
                    "midi": 53,
                    "time": 507.87176999998246,
                    "velocity": 0.3700787401574803,
                    "duration": 0.09484066666664148
                },
                {
                    "name": "A#3",
                    "midi": 58,
                    "time": 507.9666106666491,
                    "velocity": 0.4015748031496063,
                    "duration": 0.09484066666664148
                },
                {
                    "name": "D4",
                    "midi": 62,
                    "time": 508.06145133331574,
                    "velocity": 0.4330708661417323,
                    "duration": 0.09484066666664148
                },
                {
                    "name": "F4",
                    "midi": 65,
                    "time": 508.1562919999824,
                    "velocity": 0.5118110236220472,
                    "duration": 0.4267830000000572
                },
                {
                    "name": "F3",
                    "midi": 53,
                    "time": 508.2985529999824,
                    "velocity": 0.36220472440944884,
                    "duration": 0.28452200000003813
                },
                {
                    "name": "G3",
                    "midi": 55,
                    "time": 508.4408139999824,
                    "velocity": 0.3779527559055118,
                    "duration": 0.14226100000001907
                },
                {
                    "name": "F3",
                    "midi": 53,
                    "time": 508.58307499998244,
                    "velocity": 0.3543307086614173,
                    "duration": 0.14226100000001907
                },
                {
                    "name": "A3",
                    "midi": 57,
                    "time": 508.58307499998244,
                    "velocity": 0.3543307086614173,
                    "duration": 0.14226100000001907
                },
                {
                    "name": "D#4",
                    "midi": 63,
                    "time": 508.58307499998244,
                    "velocity": 0.4251968503937008,
                    "duration": 0.14226100000001907
                },
                {
                    "name": "F3",
                    "midi": 53,
                    "time": 508.72533599998246,
                    "velocity": 0.3700787401574803,
                    "duration": 0.2845219999999813
                },
                {
                    "name": "A#3",
                    "midi": 58,
                    "time": 508.72533599998246,
                    "velocity": 0.3700787401574803,
                    "duration": 0.2845219999999813
                },
                {
                    "name": "D4",
                    "midi": 62,
                    "time": 508.72533599998246,
                    "velocity": 0.4409448818897638,
                    "duration": 0.2845219999999813
                },
                {
                    "name": "F#3",
                    "midi": 54,
                    "time": 509.00985799998244,
                    "velocity": 0.4094488188976378,
                    "duration": 0.2845219999999813
                },
                {
                    "name": "C4",
                    "midi": 60,
                    "time": 509.00985799998244,
                    "velocity": 0.4094488188976378,
                    "duration": 0.2845219999999813
                },
                {
                    "name": "D4",
                    "midi": 62,
                    "time": 509.00985799998244,
                    "velocity": 0.4881889763779528,
                    "duration": 0.2845219999999813
                },
                {
                    "name": "G3",
                    "midi": 55,
                    "time": 509.2943799999824,
                    "velocity": 0.4251968503937008,
                    "duration": 0.23117412499999546
                },
                {
                    "name": "F3",
                    "midi": 53,
                    "time": 509.2943799999824,
                    "velocity": 0.4251968503937008,
                    "duration": 0.2845219999999813
                },
                {
                    "name": "B3",
                    "midi": 59,
                    "time": 509.2943799999824,
                    "velocity": 0.4251968503937008,
                    "duration": 0.23117412499999546
                },
                {
                    "name": "D4",
                    "midi": 62,
                    "time": 509.2943799999824,
                    "velocity": 0.5039370078740157,
                    "duration": 0.23117412499999546
                },
                {
                    "name": "D#3",
                    "midi": 51,
                    "time": 509.5522280624824,
                    "velocity": 0.3937007874015748,
                    "duration": 0.16893493750001198
                },
                {
                    "name": "G3",
                    "midi": 55,
                    "time": 509.5611193749824,
                    "velocity": 0.4409448818897638,
                    "duration": 0.16004362500001434
                },
                {
                    "name": "C4",
                    "midi": 60,
                    "time": 509.5700106874824,
                    "velocity": 0.49606299212598426,
                    "duration": 0.1511523125000167
                },
                {
                    "name": "D#4",
                    "midi": 63,
                    "time": 509.5789019999824,
                    "velocity": 0.5590551181102362,
                    "duration": 0.14226100000001907
                },
                {
                    "name": "G4",
                    "midi": 67,
                    "time": 510.1479459999824,
                    "velocity": 0.4881889763779528,
                    "duration": 0.2845219999999813
                },
                {
                    "name": "C#5",
                    "midi": 73,
                    "time": 510.1479459999824,
                    "velocity": 0.4881889763779528,
                    "duration": 0.2845219999999813
                },
                {
                    "name": "D#5",
                    "midi": 75,
                    "time": 510.1479459999824,
                    "velocity": 0.5826771653543307,
                    "duration": 0.2845219999999813
                },
                {
                    "name": "G#4",
                    "midi": 68,
                    "time": 510.4324679999824,
                    "velocity": 0.5039370078740157,
                    "duration": 0.23117412499999546
                },
                {
                    "name": "F#4",
                    "midi": 66,
                    "time": 510.4324679999824,
                    "velocity": 0.5039370078740157,
                    "duration": 0.23117412499999546
                },
                {
                    "name": "C5",
                    "midi": 72,
                    "time": 510.4324679999824,
                    "velocity": 0.5039370078740157,
                    "duration": 0.23117412499999546
                },
                {
                    "name": "D#5",
                    "midi": 75,
                    "time": 510.4324679999824,
                    "velocity": 0.6062992125984252,
                    "duration": 0.23117412499999546
                },
                {
                    "name": "E4",
                    "midi": 64,
                    "time": 510.6903160624824,
                    "velocity": 0.5118110236220472,
                    "duration": 0.16893493750001198
                },
                {
                    "name": "G#4",
                    "midi": 68,
                    "time": 510.6992073749824,
                    "velocity": 0.5511811023622047,
                    "duration": 0.16004362500001434
                },
                {
                    "name": "C#5",
                    "midi": 73,
                    "time": 510.7080986874824,
                    "velocity": 0.5669291338582677,
                    "duration": 0.1511523125000167
                },
                {
                    "name": "E5",
                    "midi": 76,
                    "time": 510.7169899999824,
                    "velocity": 0.6692913385826772,
                    "duration": 0.14226100000001907
                },
                {
                    "name": "G5",
                    "midi": 79,
                    "time": 511.2860339999824,
                    "velocity": 0.6456692913385826,
                    "duration": 0.23117412499999546
                },
                {
                    "name": "A5",
                    "midi": 81,
                    "time": 511.2860339999824,
                    "velocity": 0.6456692913385826,
                    "duration": 0.23117412499999546
                },
                {
                    "name": "E6",
                    "midi": 88,
                    "time": 511.2860339999824,
                    "velocity": 0.7795275590551181,
                    "duration": 0.23117412499999546
                },
                {
                    "name": "C#6",
                    "midi": 85,
                    "time": 511.2860339999824,
                    "velocity": 0.7795275590551181,
                    "duration": 0.23117412499999546
                },
                {
                    "name": "F5",
                    "midi": 77,
                    "time": 511.5438820624824,
                    "velocity": 0.6771653543307087,
                    "duration": 0.16893493750001198
                },
                {
                    "name": "A5",
                    "midi": 81,
                    "time": 511.5527733749824,
                    "velocity": 0.7007874015748031,
                    "duration": 0.16004362500001434
                },
                {
                    "name": "D6",
                    "midi": 86,
                    "time": 511.5616646874824,
                    "velocity": 0.7401574803149606,
                    "duration": 0.1511523125000167
                },
                {
                    "name": "F6",
                    "midi": 89,
                    "time": 511.5705559999824,
                    "velocity": 0.8110236220472441,
                    "duration": 0.14226100000001907
                },
                {
                    "name": "A#4",
                    "midi": 70,
                    "time": 512.1395999999824,
                    "velocity": 0.4094488188976378,
                    "duration": 0.6401744999999437
                },
                {
                    "name": "D5",
                    "midi": 74,
                    "time": 512.1395999999824,
                    "velocity": 0.4094488188976378,
                    "duration": 0.5690439999999626
                },
                {
                    "name": "F5",
                    "midi": 77,
                    "time": 512.1395999999824,
                    "velocity": 0.4881889763779528,
                    "duration": 0.42678300000000036
                },
                {
                    "name": "F#5",
                    "midi": 78,
                    "time": 512.5663829999824,
                    "velocity": 0.4409448818897638,
                    "duration": 0.14226099999996222
                },
                {
                    "name": "D#5",
                    "midi": 75,
                    "time": 512.7086439999823,
                    "velocity": 0.4015748031496063,
                    "duration": 0.07113049999998111
                },
                {
                    "name": "G5",
                    "midi": 79,
                    "time": 512.7086439999823,
                    "velocity": 0.48031496062992124,
                    "duration": 0.07113049999998111
                },
                {
                    "name": "A#4",
                    "midi": 70,
                    "time": 512.9931659999822,
                    "velocity": 0.36220472440944884,
                    "duration": 0.07113049999998111
                },
                {
                    "name": "D#5",
                    "midi": 75,
                    "time": 512.9931659999822,
                    "velocity": 0.36220472440944884,
                    "duration": 0.07113049999998111
                },
                {
                    "name": "G5",
                    "midi": 79,
                    "time": 512.9931659999822,
                    "velocity": 0.4330708661417323,
                    "duration": 0.07113049999998111
                },
                {
                    "name": "G5",
                    "midi": 79,
                    "time": 513.2776879999822,
                    "velocity": 0.48031496062992124,
                    "duration": 0.8535660000000007
                },
                {
                    "name": "A#5",
                    "midi": 82,
                    "time": 513.2776879999822,
                    "velocity": 0.48031496062992124,
                    "duration": 0.8535660000000007
                },
                {
                    "name": "A#4",
                    "midi": 70,
                    "time": 514.4157759999822,
                    "velocity": 0.4251968503937008,
                    "duration": 0.7113050000000385
                },
                {
                    "name": "G4",
                    "midi": 67,
                    "time": 515.1270809999822,
                    "velocity": 0.3543307086614173,
                    "duration": 0.14226099999996222
                },
                {
                    "name": "D#4",
                    "midi": 63,
                    "time": 515.2693419999822,
                    "velocity": 0.3937007874015748,
                    "duration": 0.14226099999996222
                },
                {
                    "name": "D4",
                    "midi": 62,
                    "time": 515.4116029999822,
                    "velocity": 0.3543307086614173,
                    "duration": 0.14226099999996222
                },
                {
                    "name": "F3",
                    "midi": 53,
                    "time": 515.5538639999821,
                    "velocity": 0.2677165354330709,
                    "duration": 0.6401744999999437
                },
                {
                    "name": "A3",
                    "midi": 57,
                    "time": 515.5538639999821,
                    "velocity": 0.2677165354330709,
                    "duration": 0.5690439999999626
                },
                {
                    "name": "D4",
                    "midi": 62,
                    "time": 515.5538639999821,
                    "velocity": 0.3858267716535433,
                    "duration": 0.28452200000003813
                },
                {
                    "name": "C4",
                    "midi": 60,
                    "time": 515.8383859999822,
                    "velocity": 0.3464566929133858,
                    "duration": 0.21339149999994333
                },
                {
                    "name": "C#4",
                    "midi": 61,
                    "time": 516.0517774999821,
                    "velocity": 0.3464566929133858,
                    "duration": 0.07113049999998111
                },
                {
                    "name": "A#3",
                    "midi": 58,
                    "time": 516.1229079999821,
                    "velocity": 0.31496062992125984,
                    "duration": 0.07113049999998111
                },
                {
                    "name": "D4",
                    "midi": 62,
                    "time": 516.1229079999821,
                    "velocity": 0.3779527559055118,
                    "duration": 0.07113049999998111
                },
                {
                    "name": "F3",
                    "midi": 53,
                    "time": 516.407429999982,
                    "velocity": 0.23622047244094488,
                    "duration": 0.07113049999998111
                },
                {
                    "name": "A#3",
                    "midi": 58,
                    "time": 516.407429999982,
                    "velocity": 0.28346456692913385,
                    "duration": 0.07113049999998111
                },
                {
                    "name": "D4",
                    "midi": 62,
                    "time": 516.407429999982,
                    "velocity": 0.3464566929133858,
                    "duration": 0.07113049999998111
                },
                {
                    "name": "D4",
                    "midi": 62,
                    "time": 516.6919519999819,
                    "velocity": 0.3779527559055118,
                    "duration": 0.8535660000000007
                },
                {
                    "name": "F4",
                    "midi": 65,
                    "time": 516.6919519999819,
                    "velocity": 0.3779527559055118,
                    "duration": 0.8535660000000007
                },
                {
                    "name": "A#4",
                    "midi": 70,
                    "time": 517.830039999982,
                    "velocity": 0.4094488188976378,
                    "duration": 0.6401744999999437
                },
                {
                    "name": "D5",
                    "midi": 74,
                    "time": 517.830039999982,
                    "velocity": 0.4094488188976378,
                    "duration": 0.5690439999999626
                },
                {
                    "name": "F5",
                    "midi": 77,
                    "time": 517.830039999982,
                    "velocity": 0.4881889763779528,
                    "duration": 0.42678300000000036
                },
                {
                    "name": "F#5",
                    "midi": 78,
                    "time": 518.256822999982,
                    "velocity": 0.4409448818897638,
                    "duration": 0.14226099999996222
                },
                {
                    "name": "D#5",
                    "midi": 75,
                    "time": 518.3990839999819,
                    "velocity": 0.4015748031496063,
                    "duration": 0.07113049999998111
                },
                {
                    "name": "G5",
                    "midi": 79,
                    "time": 518.3990839999819,
                    "velocity": 0.48031496062992124,
                    "duration": 0.07113049999998111
                },
                {
                    "name": "A#4",
                    "midi": 70,
                    "time": 518.6836059999819,
                    "velocity": 0.4330708661417323,
                    "duration": 0.07113049999998111
                },
                {
                    "name": "D#5",
                    "midi": 75,
                    "time": 518.6836059999819,
                    "velocity": 0.4330708661417323,
                    "duration": 0.07113049999998111
                },
                {
                    "name": "G5",
                    "midi": 79,
                    "time": 518.6836059999819,
                    "velocity": 0.5196850393700787,
                    "duration": 0.07113049999998111
                },
                {
                    "name": "D#4",
                    "midi": 63,
                    "time": 518.9681279999818,
                    "velocity": 0.6220472440944882,
                    "duration": 0.035565249999990556
                },
                {
                    "name": "G4",
                    "midi": 67,
                    "time": 519.0036932499818,
                    "velocity": 0.6141732283464567,
                    "duration": 0.035565249999990556
                },
                {
                    "name": "A#4",
                    "midi": 70,
                    "time": 519.0392584999818,
                    "velocity": 0.5669291338582677,
                    "duration": 0.035565249999990556
                },
                {
                    "name": "D#5",
                    "midi": 75,
                    "time": 519.0748237499818,
                    "velocity": 0.5354330708661418,
                    "duration": 0.035565249999990556
                },
                {
                    "name": "G5",
                    "midi": 79,
                    "time": 519.1103889999818,
                    "velocity": 0.5196850393700787,
                    "duration": 0.035565249999990556
                },
                {
                    "name": "A#5",
                    "midi": 82,
                    "time": 519.1459542499817,
                    "velocity": 0.5039370078740157,
                    "duration": 0.035565249999990556
                },
                {
                    "name": "D#6",
                    "midi": 87,
                    "time": 519.1815194999817,
                    "velocity": 0.48031496062992124,
                    "duration": 0.035565249999990556
                },
                {
                    "name": "G6",
                    "midi": 91,
                    "time": 519.2170847499817,
                    "velocity": 0.4645669291338583,
                    "duration": 0.035565249999990556
                },
                {
                    "name": "A#6",
                    "midi": 94,
                    "time": 519.2526499999817,
                    "velocity": 0.4566929133858268,
                    "duration": 0.035565249999990556
                },
                {
                    "name": "A#5",
                    "midi": 82,
                    "time": 520.1062159999817,
                    "velocity": 0.4881889763779528,
                    "duration": 0.9958269999999629
                },
                {
                    "name": "A5",
                    "midi": 81,
                    "time": 521.1020429999817,
                    "velocity": 0.3937007874015748,
                    "duration": 0.14226099999996222
                },
                {
                    "name": "A5",
                    "midi": 81,
                    "time": 521.2443039999816,
                    "velocity": 0.41732283464566927,
                    "duration": 0.28452200000003813
                },
                {
                    "name": "G5",
                    "midi": 79,
                    "time": 521.5288259999817,
                    "velocity": 0.4015748031496063,
                    "duration": 0.21339149999994333
                },
                {
                    "name": "F5",
                    "midi": 77,
                    "time": 521.7422174999816,
                    "velocity": 0.3700787401574803,
                    "duration": 0.07113049999998111
                },
                {
                    "name": "F5",
                    "midi": 77,
                    "time": 521.8133479999816,
                    "velocity": 0.4015748031496063,
                    "duration": 0.28452200000003813
                },
                {
                    "name": "D#5",
                    "midi": 75,
                    "time": 522.0978699999816,
                    "velocity": 0.3779527559055118,
                    "duration": 0.21339149999994333
                },
                {
                    "name": "D5",
                    "midi": 74,
                    "time": 522.3112614999816,
                    "velocity": 0.3228346456692913,
                    "duration": 0.07113049999998111
                },
                {
                    "name": "F4",
                    "midi": 65,
                    "time": 522.3823919999816,
                    "velocity": 0.23622047244094488,
                    "duration": 0.6401744999999437
                },
                {
                    "name": "A4",
                    "midi": 69,
                    "time": 522.3823919999816,
                    "velocity": 0.23622047244094488,
                    "duration": 0.5690439999999626
                },
                {
                    "name": "D5",
                    "midi": 74,
                    "time": 522.3823919999816,
                    "velocity": 0.3464566929133858,
                    "duration": 0.28452200000003813
                },
                {
                    "name": "C5",
                    "midi": 72,
                    "time": 522.6669139999816,
                    "velocity": 0.30708661417322836,
                    "duration": 0.21339149999994333
                },
                {
                    "name": "C#5",
                    "midi": 73,
                    "time": 522.8803054999815,
                    "velocity": 0.30708661417322836,
                    "duration": 0.07113049999998111
                },
                {
                    "name": "A#4",
                    "midi": 70,
                    "time": 522.9514359999815,
                    "velocity": 0.28346456692913385,
                    "duration": 0.07113049999998111
                },
                {
                    "name": "D5",
                    "midi": 74,
                    "time": 522.9514359999815,
                    "velocity": 0.33858267716535434,
                    "duration": 0.07113049999998111
                },
                {
                    "name": "F4",
                    "midi": 65,
                    "time": 523.2359579999815,
                    "velocity": 0.2125984251968504,
                    "duration": 0.07113049999998111
                },
                {
                    "name": "A#4",
                    "midi": 70,
                    "time": 523.2359579999815,
                    "velocity": 0.25196850393700787,
                    "duration": 0.07113049999998111
                },
                {
                    "name": "D5",
                    "midi": 74,
                    "time": 523.2359579999815,
                    "velocity": 0.30708661417322836,
                    "duration": 0.07113049999998111
                },
                {
                    "name": "D5",
                    "midi": 74,
                    "time": 523.5204799999814,
                    "velocity": 0.33858267716535434,
                    "duration": 0.8535660000000007
                },
                {
                    "name": "F5",
                    "midi": 77,
                    "time": 523.5204799999814,
                    "velocity": 0.33858267716535434,
                    "duration": 0.8535660000000007
                },
                {
                    "name": "D5",
                    "midi": 74,
                    "time": 524.6585679999814,
                    "velocity": 0.4330708661417323,
                    "duration": 0.8535660000000007
                },
                {
                    "name": "C5",
                    "midi": 72,
                    "time": 524.6585679999814,
                    "velocity": 0.4330708661417323,
                    "duration": 0.8535660000000007
                },
                {
                    "name": "F5",
                    "midi": 77,
                    "time": 524.6585679999814,
                    "velocity": 0.4330708661417323,
                    "duration": 0.8535660000000007
                },
                {
                    "name": "B4",
                    "midi": 71,
                    "time": 525.7966559999815,
                    "velocity": 0.41732283464566927,
                    "duration": 1.1380880000000388
                },
                {
                    "name": "D5",
                    "midi": 74,
                    "time": 525.7966559999815,
                    "velocity": 0.4409448818897638,
                    "duration": 1.1380880000000388
                },
                {
                    "name": "G#4",
                    "midi": 68,
                    "time": 525.7966559999815,
                    "velocity": 0.4015748031496063,
                    "duration": 0.8535660000000007
                },
                {
                    "name": "G#5",
                    "midi": 80,
                    "time": 525.7966559999815,
                    "velocity": 0.5275590551181102,
                    "duration": 0.8535660000000007
                },
                {
                    "name": "G4",
                    "midi": 67,
                    "time": 526.6502219999815,
                    "velocity": 0.3464566929133858,
                    "duration": 0.28452200000003813
                },
                {
                    "name": "G5",
                    "midi": 79,
                    "time": 526.6502219999815,
                    "velocity": 0.4094488188976378,
                    "duration": 0.28452200000003813
                },
                {
                    "name": "G4",
                    "midi": 67,
                    "time": 526.9347439999815,
                    "velocity": 0.3543307086614173,
                    "duration": 0.28452200000003813
                },
                {
                    "name": "C5",
                    "midi": 72,
                    "time": 526.9347439999815,
                    "velocity": 0.41732283464566927,
                    "duration": 0.28452200000003813
                },
                {
                    "name": "F5",
                    "midi": 77,
                    "time": 526.9347439999815,
                    "velocity": 0.41732283464566927,
                    "duration": 0.28452200000003813
                },
                {
                    "name": "D#5",
                    "midi": 75,
                    "time": 527.2192659999815,
                    "velocity": 0.4094488188976378,
                    "duration": 0.14226099999996222
                },
                {
                    "name": "F#4",
                    "midi": 66,
                    "time": 527.3615269999815,
                    "velocity": 0.31496062992125984,
                    "duration": 0.14226099999996222
                },
                {
                    "name": "D5",
                    "midi": 74,
                    "time": 527.3615269999815,
                    "velocity": 0.3779527559055118,
                    "duration": 0.14226099999996222
                },
                {
                    "name": "G4",
                    "midi": 67,
                    "time": 527.5037879999815,
                    "velocity": 0.36220472440944884,
                    "duration": 0.42678300000000036
                },
                {
                    "name": "F5",
                    "midi": 77,
                    "time": 527.5037879999815,
                    "velocity": 0.4330708661417323,
                    "duration": 0.28452200000003813
                },
                {
                    "name": "D#5",
                    "midi": 75,
                    "time": 527.7883099999815,
                    "velocity": 0.4094488188976378,
                    "duration": 0.14226099999996222
                },
                {
                    "name": "D#4",
                    "midi": 63,
                    "time": 527.9305709999815,
                    "velocity": 0.30708661417322836,
                    "duration": 0.14226099999996222
                },
                {
                    "name": "C5",
                    "midi": 72,
                    "time": 527.9305709999815,
                    "velocity": 0.3700787401574803,
                    "duration": 0.14226099999996222
                },
                {
                    "name": "A#4",
                    "midi": 70,
                    "time": 528.0728319999814,
                    "velocity": 0.41732283464566927,
                    "duration": 0.21339149999994333
                },
                {
                    "name": "A4",
                    "midi": 69,
                    "time": 528.2862234999814,
                    "velocity": 0.3937007874015748,
                    "duration": 0.07113049999998111
                },
                {
                    "name": "F4",
                    "midi": 65,
                    "time": 528.3573539999813,
                    "velocity": 0.31496062992125984,
                    "duration": 0.28452200000003813
                },
                {
                    "name": "A4",
                    "midi": 69,
                    "time": 528.3573539999813,
                    "velocity": 0.3779527559055118,
                    "duration": 0.28452200000003813
                },
                {
                    "name": "F#4",
                    "midi": 66,
                    "time": 528.6418759999814,
                    "velocity": 0.29133858267716534,
                    "duration": 0.28452200000003813
                },
                {
                    "name": "A4",
                    "midi": 69,
                    "time": 528.6418759999814,
                    "velocity": 0.4330708661417323,
                    "duration": 0.28452200000003813
                },
                {
                    "name": "F4",
                    "midi": 65,
                    "time": 528.9263979999814,
                    "velocity": 0.3464566929133858,
                    "duration": 0.14226099999996222
                },
                {
                    "name": "A4",
                    "midi": 69,
                    "time": 528.9263979999814,
                    "velocity": 0.4094488188976378,
                    "duration": 0.28452199999992445
                },
                {
                    "name": "D#4",
                    "midi": 63,
                    "time": 529.0686589999814,
                    "velocity": 0.3779527559055118,
                    "duration": 0.14226099999996222
                },
                {
                    "name": "D4",
                    "midi": 62,
                    "time": 529.2109199999813,
                    "velocity": 0.3543307086614173,
                    "duration": 0.14226099999996222
                },
                {
                    "name": "A#4",
                    "midi": 70,
                    "time": 529.2109199999813,
                    "velocity": 0.4251968503937008,
                    "duration": 0.14226099999996222
                },
                {
                    "name": "D4",
                    "midi": 62,
                    "time": 529.4954419999813,
                    "velocity": 0.33858267716535434,
                    "duration": 0.8535660000000007
                },
                {
                    "name": "F4",
                    "midi": 65,
                    "time": 529.4954419999813,
                    "velocity": 0.33858267716535434,
                    "duration": 0.8535660000000007
                },
                {
                    "name": "D4",
                    "midi": 62,
                    "time": 530.6335299999813,
                    "velocity": 0.4330708661417323,
                    "duration": 0.8535660000000007
                },
                {
                    "name": "C4",
                    "midi": 60,
                    "time": 530.6335299999813,
                    "velocity": 0.4330708661417323,
                    "duration": 0.8535660000000007
                },
                {
                    "name": "F4",
                    "midi": 65,
                    "time": 530.6335299999813,
                    "velocity": 0.4330708661417323,
                    "duration": 0.8535660000000007
                },
                {
                    "name": "B3",
                    "midi": 59,
                    "time": 531.4870959999813,
                    "velocity": 0.4409448818897638,
                    "duration": 1.1380880000000388
                },
                {
                    "name": "D4",
                    "midi": 62,
                    "time": 531.4870959999813,
                    "velocity": 0.4409448818897638,
                    "duration": 1.1380880000000388
                },
                {
                    "name": "G#3",
                    "midi": 56,
                    "time": 531.4870959999813,
                    "velocity": 0.4409448818897638,
                    "duration": 0.8535660000000007
                },
                {
                    "name": "G#4",
                    "midi": 68,
                    "time": 531.4870959999813,
                    "velocity": 0.5275590551181102,
                    "duration": 0.8535660000000007
                },
                {
                    "name": "G3",
                    "midi": 55,
                    "time": 532.3406619999813,
                    "velocity": 0.30708661417322836,
                    "duration": 0.28452200000003813
                },
                {
                    "name": "G4",
                    "midi": 67,
                    "time": 532.3406619999813,
                    "velocity": 0.36220472440944884,
                    "duration": 0.28452200000003813
                },
                {
                    "name": "G3",
                    "midi": 55,
                    "time": 532.6251839999813,
                    "velocity": 0.31496062992125984,
                    "duration": 0.28452200000003813
                },
                {
                    "name": "C4",
                    "midi": 60,
                    "time": 532.6251839999813,
                    "velocity": 0.3700787401574803,
                    "duration": 0.28452200000003813
                },
                {
                    "name": "F4",
                    "midi": 65,
                    "time": 532.6251839999813,
                    "velocity": 0.3700787401574803,
                    "duration": 0.28452200000003813
                },
                {
                    "name": "D#4",
                    "midi": 63,
                    "time": 532.9097059999814,
                    "velocity": 0.36220472440944884,
                    "duration": 0.14226099999996222
                },
                {
                    "name": "F#3",
                    "midi": 54,
                    "time": 533.0519669999813,
                    "velocity": 0.28346456692913385,
                    "duration": 0.14226099999996222
                },
                {
                    "name": "D4",
                    "midi": 62,
                    "time": 533.0519669999813,
                    "velocity": 0.33858267716535434,
                    "duration": 0.14226099999996222
                },
                {
                    "name": "G3",
                    "midi": 55,
                    "time": 533.1942279999813,
                    "velocity": 0.3228346456692913,
                    "duration": 0.42678300000000036
                },
                {
                    "name": "F4",
                    "midi": 65,
                    "time": 533.1942279999813,
                    "velocity": 0.3858267716535433,
                    "duration": 0.28452200000003813
                },
                {
                    "name": "D#4",
                    "midi": 63,
                    "time": 533.4787499999813,
                    "velocity": 0.36220472440944884,
                    "duration": 0.14226099999996222
                },
                {
                    "name": "D#3",
                    "midi": 51,
                    "time": 533.6210109999813,
                    "velocity": 0.2755905511811024,
                    "duration": 0.14226099999996222
                },
                {
                    "name": "C4",
                    "midi": 60,
                    "time": 533.6210109999813,
                    "velocity": 0.33070866141732286,
                    "duration": 0.14226099999996222
                },
                {
                    "name": "A#3",
                    "midi": 58,
                    "time": 533.7632719999813,
                    "velocity": 0.3700787401574803,
                    "duration": 0.21339149999994333
                },
                {
                    "name": "A3",
                    "midi": 57,
                    "time": 533.9766634999812,
                    "velocity": 0.3543307086614173,
                    "duration": 0.07113049999998111
                },
                {
                    "name": "F3",
                    "midi": 53,
                    "time": 534.0477939999812,
                    "velocity": 0.28346456692913385,
                    "duration": 0.28452200000003813
                },
                {
                    "name": "A3",
                    "midi": 57,
                    "time": 534.0477939999812,
                    "velocity": 0.33858267716535434,
                    "duration": 0.28452200000003813
                },
                {
                    "name": "F#3",
                    "midi": 54,
                    "time": 534.3323159999812,
                    "velocity": 0.25984251968503935,
                    "duration": 0.28452200000003813
                },
                {
                    "name": "A3",
                    "midi": 57,
                    "time": 534.3323159999812,
                    "velocity": 0.3858267716535433,
                    "duration": 0.28452200000003813
                },
                {
                    "name": "F3",
                    "midi": 53,
                    "time": 534.6168379999813,
                    "velocity": 0.30708661417322836,
                    "duration": 0.14226099999996222
                },
                {
                    "name": "A3",
                    "midi": 57,
                    "time": 534.6168379999813,
                    "velocity": 0.36220472440944884,
                    "duration": 0.28452199999992445
                },
                {
                    "name": "D#3",
                    "midi": 51,
                    "time": 534.7590989999812,
                    "velocity": 0.33858267716535434,
                    "duration": 0.14226099999996222
                },
                {
                    "name": "A#3",
                    "midi": 58,
                    "time": 534.9013599999812,
                    "velocity": 0.3779527559055118,
                    "duration": 0.14226099999996222
                },
                {
                    "name": "A#3",
                    "midi": 58,
                    "time": 535.7549259999812,
                    "velocity": 0.2204724409448819,
                    "duration": 0.28452200000003813
                },
                {
                    "name": "F4",
                    "midi": 65,
                    "time": 535.7549259999812,
                    "velocity": 0.25196850393700787,
                    "duration": 0.28452200000003813
                },
                {
                    "name": "A#4",
                    "midi": 70,
                    "time": 535.7549259999812,
                    "velocity": 0.2992125984251969,
                    "duration": 0.28452200000003813
                },
                {
                    "name": "A#3",
                    "midi": 58,
                    "time": 536.0394479999812,
                    "velocity": 0.2283464566929134,
                    "duration": 0.28452200000003813
                },
                {
                    "name": "F4",
                    "midi": 65,
                    "time": 536.0394479999812,
                    "velocity": 0.25984251968503935,
                    "duration": 0.28452200000003813
                },
                {
                    "name": "A#4",
                    "midi": 70,
                    "time": 536.0394479999812,
                    "velocity": 0.31496062992125984,
                    "duration": 0.28452200000003813
                },
                {
                    "name": "A3",
                    "midi": 57,
                    "time": 536.3239699999813,
                    "velocity": 0.1889763779527559,
                    "duration": 0.28452200000003813
                },
                {
                    "name": "F4",
                    "midi": 65,
                    "time": 536.3239699999813,
                    "velocity": 0.25196850393700787,
                    "duration": 0.28452200000003813
                },
                {
                    "name": "A4",
                    "midi": 69,
                    "time": 536.3239699999813,
                    "velocity": 0.2992125984251969,
                    "duration": 0.28452200000003813
                },
                {
                    "name": "A#3",
                    "midi": 58,
                    "time": 536.6084919999813,
                    "velocity": 0.2283464566929134,
                    "duration": 0.28452200000003813
                },
                {
                    "name": "F4",
                    "midi": 65,
                    "time": 536.6084919999813,
                    "velocity": 0.25984251968503935,
                    "duration": 0.28452200000003813
                },
                {
                    "name": "A#4",
                    "midi": 70,
                    "time": 536.6084919999813,
                    "velocity": 0.31496062992125984,
                    "duration": 0.28452200000003813
                },
                {
                    "name": "F4",
                    "midi": 65,
                    "time": 536.8930139999813,
                    "velocity": 0.25196850393700787,
                    "duration": 0.28452200000003813
                },
                {
                    "name": "C4",
                    "midi": 60,
                    "time": 536.8930139999813,
                    "velocity": 0.2204724409448819,
                    "duration": 0.28452200000003813
                },
                {
                    "name": "A4",
                    "midi": 69,
                    "time": 536.8930139999813,
                    "velocity": 0.25196850393700787,
                    "duration": 0.28452200000003813
                },
                {
                    "name": "C5",
                    "midi": 72,
                    "time": 536.8930139999813,
                    "velocity": 0.2992125984251969,
                    "duration": 0.28452200000003813
                },
                {
                    "name": "A#3",
                    "midi": 58,
                    "time": 537.1775359999814,
                    "velocity": 0.25196850393700787,
                    "duration": 0.5690439999999626
                },
                {
                    "name": "F4",
                    "midi": 65,
                    "time": 537.1775359999814,
                    "velocity": 0.28346456692913385,
                    "duration": 0.5690439999999626
                },
                {
                    "name": "A#4",
                    "midi": 70,
                    "time": 537.1775359999814,
                    "velocity": 0.33070866141732286,
                    "duration": 0.5690439999999626
                },
                {
                    "name": "D5",
                    "midi": 74,
                    "time": 538.0311019999814,
                    "velocity": 0.2992125984251969,
                    "duration": 0.28452200000003813
                },
                {
                    "name": "D4",
                    "midi": 62,
                    "time": 538.0311019999814,
                    "velocity": 0.2204724409448819,
                    "duration": 0.28452200000003813
                },
                {
                    "name": "F4",
                    "midi": 65,
                    "time": 538.0311019999814,
                    "velocity": 0.25196850393700787,
                    "duration": 0.28452200000003813
                },
                {
                    "name": "D4",
                    "midi": 62,
                    "time": 538.3156239999814,
                    "velocity": 0.2283464566929134,
                    "duration": 0.28452200000003813
                },
                {
                    "name": "F4",
                    "midi": 65,
                    "time": 538.3156239999814,
                    "velocity": 0.2677165354330709,
                    "duration": 0.28452200000003813
                },
                {
                    "name": "D5",
                    "midi": 74,
                    "time": 538.3156239999814,
                    "velocity": 0.3228346456692913,
                    "duration": 0.28452200000003813
                },
                {
                    "name": "C4",
                    "midi": 60,
                    "time": 538.6001459999815,
                    "velocity": 0.1968503937007874,
                    "duration": 0.28452200000003813
                },
                {
                    "name": "C5",
                    "midi": 72,
                    "time": 538.6001459999815,
                    "velocity": 0.31496062992125984,
                    "duration": 0.28452200000003813
                },
                {
                    "name": "F4",
                    "midi": 65,
                    "time": 538.6001459999815,
                    "velocity": 0.2677165354330709,
                    "duration": 0.28452200000003813
                },
                {
                    "name": "D5",
                    "midi": 74,
                    "time": 538.8846679999815,
                    "velocity": 0.3464566929133858,
                    "duration": 0.28452200000003813
                },
                {
                    "name": "D4",
                    "midi": 62,
                    "time": 538.8846679999815,
                    "velocity": 0.2440944881889764,
                    "duration": 0.28452200000003813
                },
                {
                    "name": "F4",
                    "midi": 65,
                    "time": 538.8846679999815,
                    "velocity": 0.28346456692913385,
                    "duration": 0.28452200000003813
                },
                {
                    "name": "D#5",
                    "midi": 75,
                    "time": 539.1691899999815,
                    "velocity": 0.33858267716535434,
                    "duration": 0.28452200000003813
                },
                {
                    "name": "D#4",
                    "midi": 63,
                    "time": 539.1691899999815,
                    "velocity": 0.28346456692913385,
                    "duration": 0.28452200000003813
                },
                {
                    "name": "A4",
                    "midi": 69,
                    "time": 539.1691899999815,
                    "velocity": 0.28346456692913385,
                    "duration": 0.28452200000003813
                },
                {
                    "name": "D4",
                    "midi": 62,
                    "time": 539.4537119999816,
                    "velocity": 0.25196850393700787,
                    "duration": 0.5690439999999626
                },
                {
                    "name": "A#4",
                    "midi": 70,
                    "time": 539.4537119999816,
                    "velocity": 0.28346456692913385,
                    "duration": 0.5690439999999626
                },
                {
                    "name": "D5",
                    "midi": 74,
                    "time": 539.4537119999816,
                    "velocity": 0.33070866141732286,
                    "duration": 0.5690439999999626
                },
                {
                    "name": "A#3",
                    "midi": 58,
                    "time": 540.3072779999816,
                    "velocity": 0.2204724409448819,
                    "duration": 0.28452200000003813
                },
                {
                    "name": "F4",
                    "midi": 65,
                    "time": 540.3072779999816,
                    "velocity": 0.25196850393700787,
                    "duration": 0.28452200000003813
                },
                {
                    "name": "A#4",
                    "midi": 70,
                    "time": 540.3072779999816,
                    "velocity": 0.2992125984251969,
                    "duration": 0.28452200000003813
                },
                {
                    "name": "A#3",
                    "midi": 58,
                    "time": 540.5917999999816,
                    "velocity": 0.2283464566929134,
                    "duration": 0.28452200000003813
                },
                {
                    "name": "F4",
                    "midi": 65,
                    "time": 540.5917999999816,
                    "velocity": 0.25984251968503935,
                    "duration": 0.28452200000003813
                },
                {
                    "name": "A#4",
                    "midi": 70,
                    "time": 540.5917999999816,
                    "velocity": 0.31496062992125984,
                    "duration": 0.28452200000003813
                },
                {
                    "name": "A3",
                    "midi": 57,
                    "time": 540.8763219999817,
                    "velocity": 0.1889763779527559,
                    "duration": 0.28452200000003813
                },
                {
                    "name": "F4",
                    "midi": 65,
                    "time": 540.8763219999817,
                    "velocity": 0.25196850393700787,
                    "duration": 0.28452200000003813
                },
                {
                    "name": "A4",
                    "midi": 69,
                    "time": 540.8763219999817,
                    "velocity": 0.2992125984251969,
                    "duration": 0.28452200000003813
                },
                {
                    "name": "A#3",
                    "midi": 58,
                    "time": 541.1608439999817,
                    "velocity": 0.2283464566929134,
                    "duration": 0.28452200000003813
                },
                {
                    "name": "F4",
                    "midi": 65,
                    "time": 541.1608439999817,
                    "velocity": 0.25984251968503935,
                    "duration": 0.28452200000003813
                },
                {
                    "name": "A#4",
                    "midi": 70,
                    "time": 541.1608439999817,
                    "velocity": 0.31496062992125984,
                    "duration": 0.28452200000003813
                },
                {
                    "name": "F4",
                    "midi": 65,
                    "time": 541.4453659999817,
                    "velocity": 0.25196850393700787,
                    "duration": 0.28452200000003813
                },
                {
                    "name": "C4",
                    "midi": 60,
                    "time": 541.4453659999817,
                    "velocity": 0.2204724409448819,
                    "duration": 0.28452200000003813
                },
                {
                    "name": "A4",
                    "midi": 69,
                    "time": 541.4453659999817,
                    "velocity": 0.25196850393700787,
                    "duration": 0.28452200000003813
                },
                {
                    "name": "C5",
                    "midi": 72,
                    "time": 541.4453659999817,
                    "velocity": 0.2992125984251969,
                    "duration": 0.28452200000003813
                },
                {
                    "name": "A4",
                    "midi": 69,
                    "time": 541.7298879999818,
                    "velocity": 0.28346456692913385,
                    "duration": 2.560698000000002
                },
                {
                    "name": "C4",
                    "midi": 60,
                    "time": 541.7298879999818,
                    "velocity": 0.25196850393700787,
                    "duration": 2.560698000000002
                },
                {
                    "name": "F4",
                    "midi": 65,
                    "time": 541.7298879999818,
                    "velocity": 0.28346456692913385,
                    "duration": 2.560698000000002
                },
                {
                    "name": "C5",
                    "midi": 72,
                    "time": 541.7298879999818,
                    "velocity": 0.33070866141732286,
                    "duration": 2.560698000000002
                },
                {
                    "name": "D#4",
                    "midi": 63,
                    "time": 544.5751079999818,
                    "velocity": 0.23622047244094488,
                    "duration": 0.28452200000003813
                },
                {
                    "name": "A4",
                    "midi": 69,
                    "time": 544.5751079999818,
                    "velocity": 0.23622047244094488,
                    "duration": 0.28452200000003813
                },
                {
                    "name": "F5",
                    "midi": 77,
                    "time": 544.5751079999818,
                    "velocity": 0.28346456692913385,
                    "duration": 0.28452200000003813
                },
                {
                    "name": "D4",
                    "midi": 62,
                    "time": 545.1441519999819,
                    "velocity": 0.23622047244094488,
                    "duration": 0.28452200000003813
                },
                {
                    "name": "A#4",
                    "midi": 70,
                    "time": 545.1441519999819,
                    "velocity": 0.28346456692913385,
                    "duration": 0.28452200000003813
                }
            ],
            "controlChanges": {
                "7": [
                    {
                        "number": 7,
                        "time": 0,
                        "value": 0.7874015748031497
                    }
                ],
                "10": [
                    {
                        "number": 10,
                        "time": 0,
                        "value": 0.5039370078740157
                    }
                ],
                "91": [
                    {
                        "number": 91,
                        "time": 0,
                        "value": 1
                    }
                ]
            },
            "id": 1,
            "name": "Piano right",
            "instrumentNumber": 1,
            "instrument": "bright acoustic piano",
            "instrumentFamily": "piano",
            "channelNumber": 0,
            "isPercussion": false
        },
        {
            "startTime": 0.853566,
            "duration": 548.8429379999836,
            "length": 5465,
            "notes": [
                {
                    "name": "D3",
                    "midi": 50,
                    "time": 0.853566,
                    "velocity": 0.25984251968503935,
                    "duration": 0.14226099999999997
                },
                {
                    "name": "A#2",
                    "midi": 46,
                    "time": 0.853566,
                    "velocity": 0.2125984251968504,
                    "duration": 0.28452199999999994
                },
                {
                    "name": "F3",
                    "midi": 53,
                    "time": 0.995827,
                    "velocity": 0.2204724409448819,
                    "duration": 0.14226099999999997
                },
                {
                    "name": "A#2",
                    "midi": 46,
                    "time": 1.138088,
                    "velocity": 0.2204724409448819,
                    "duration": 0.28452199999999994
                },
                {
                    "name": "D3",
                    "midi": 50,
                    "time": 1.138088,
                    "velocity": 0.2677165354330709,
                    "duration": 0.14226099999999997
                },
                {
                    "name": "F3",
                    "midi": 53,
                    "time": 1.280349,
                    "velocity": 0.2204724409448819,
                    "duration": 0.14226099999999997
                },
                {
                    "name": "C3",
                    "midi": 48,
                    "time": 1.42261,
                    "velocity": 0.2440944881889764,
                    "duration": 0.14226099999999997
                },
                {
                    "name": "A#2",
                    "midi": 46,
                    "time": 1.42261,
                    "velocity": 0.1889763779527559,
                    "duration": 0.28452199999999994
                },
                {
                    "name": "F3",
                    "midi": 53,
                    "time": 1.564871,
                    "velocity": 0.2125984251968504,
                    "duration": 0.14226099999999997
                },
                {
                    "name": "A#2",
                    "midi": 46,
                    "time": 1.7071319999999999,
                    "velocity": 0.2204724409448819,
                    "duration": 0.28452199999999994
                },
                {
                    "name": "D3",
                    "midi": 50,
                    "time": 1.7071319999999999,
                    "velocity": 0.2677165354330709,
                    "duration": 0.14226099999999997
                },
                {
                    "name": "F3",
                    "midi": 53,
                    "time": 1.8493929999999998,
                    "velocity": 0.2125984251968504,
                    "duration": 0.14226099999999997
                },
                {
                    "name": "D#3",
                    "midi": 51,
                    "time": 1.9916539999999998,
                    "velocity": 0.25984251968503935,
                    "duration": 0.1422610000000002
                },
                {
                    "name": "A#2",
                    "midi": 46,
                    "time": 1.9916539999999998,
                    "velocity": 0.2125984251968504,
                    "duration": 0.28452200000000016
                },
                {
                    "name": "F3",
                    "midi": 53,
                    "time": 2.133915,
                    "velocity": 0.2047244094488189,
                    "duration": 0.14226099999999997
                },
                {
                    "name": "A#2",
                    "midi": 46,
                    "time": 2.276176,
                    "velocity": 0.2204724409448819,
                    "duration": 0.853566000000002
                },
                {
                    "name": "E3",
                    "midi": 52,
                    "time": 2.276176,
                    "velocity": 0.2677165354330709,
                    "duration": 0.14226099999999997
                },
                {
                    "name": "F3",
                    "midi": 53,
                    "time": 2.418437,
                    "velocity": 0.2047244094488189,
                    "duration": 0.07113050000000021
                },
                {
                    "name": "F3",
                    "midi": 53,
                    "time": 2.5606980000000004,
                    "velocity": 0.2047244094488189,
                    "duration": 0.07113050000000021
                },
                {
                    "name": "F3",
                    "midi": 53,
                    "time": 2.7029590000000008,
                    "velocity": 0.2047244094488189,
                    "duration": 0.07113050000000021
                },
                {
                    "name": "F3",
                    "midi": 53,
                    "time": 2.845220000000001,
                    "velocity": 0.2047244094488189,
                    "duration": 0.07113050000000021
                },
                {
                    "name": "F3",
                    "midi": 53,
                    "time": 2.9874810000000016,
                    "velocity": 0.2047244094488189,
                    "duration": 0.07113050000000021
                },
                {
                    "name": "A#2",
                    "midi": 46,
                    "time": 3.129742000000002,
                    "velocity": 0.2125984251968504,
                    "duration": 0.28452199999999994
                },
                {
                    "name": "D#3",
                    "midi": 51,
                    "time": 3.129742000000002,
                    "velocity": 0.25984251968503935,
                    "duration": 0.14226099999999997
                },
                {
                    "name": "D3",
                    "midi": 50,
                    "time": 3.272003000000002,
                    "velocity": 0.2125984251968504,
                    "duration": 0.14226099999999997
                },
                {
                    "name": "F2",
                    "midi": 41,
                    "time": 3.414264000000002,
                    "velocity": 0.2047244094488189,
                    "duration": 0.28452199999999994
                },
                {
                    "name": "D#3",
                    "midi": 51,
                    "time": 3.414264000000002,
                    "velocity": 0.2440944881889764,
                    "duration": 0.14226099999999997
                },
                {
                    "name": "F3",
                    "midi": 53,
                    "time": 3.556525000000002,
                    "velocity": 0.1968503937007874,
                    "duration": 0.14226099999999997
                },
                {
                    "name": "D#3",
                    "midi": 51,
                    "time": 3.698786000000002,
                    "velocity": 0.2283464566929134,
                    "duration": 0.14226099999999997
                },
                {
                    "name": "F2",
                    "midi": 41,
                    "time": 3.698786000000002,
                    "velocity": 0.2047244094488189,
                    "duration": 0.28452199999999994
                },
                {
                    "name": "F3",
                    "midi": 53,
                    "time": 3.841047000000002,
                    "velocity": 0.1968503937007874,
                    "duration": 0.14226099999999997
                },
                {
                    "name": "F2",
                    "midi": 41,
                    "time": 3.983308000000002,
                    "velocity": 0.2047244094488189,
                    "duration": 0.28452200000000083
                },
                {
                    "name": "D#3",
                    "midi": 51,
                    "time": 3.983308000000002,
                    "velocity": 0.2283464566929134,
                    "duration": 0.14226100000000041
                },
                {
                    "name": "F3",
                    "midi": 53,
                    "time": 4.125569000000002,
                    "velocity": 0.2047244094488189,
                    "duration": 0.14226100000000041
                },
                {
                    "name": "D3",
                    "midi": 50,
                    "time": 4.267830000000003,
                    "velocity": 0.25984251968503935,
                    "duration": 0.14226100000000041
                },
                {
                    "name": "F2",
                    "midi": 41,
                    "time": 4.267830000000003,
                    "velocity": 0.2125984251968504,
                    "duration": 0.28452200000000083
                },
                {
                    "name": "C3",
                    "midi": 48,
                    "time": 4.410091000000003,
                    "velocity": 0.1968503937007874,
                    "duration": 0.14226100000000041
                },
                {
                    "name": "A#2",
                    "midi": 46,
                    "time": 4.5523520000000035,
                    "velocity": 0.2204724409448819,
                    "duration": 0.8535660000000025
                },
                {
                    "name": "D3",
                    "midi": 50,
                    "time": 4.5523520000000035,
                    "velocity": 0.2677165354330709,
                    "duration": 0.14226100000000041
                },
                {
                    "name": "F3",
                    "midi": 53,
                    "time": 4.694613000000004,
                    "velocity": 0.23622047244094488,
                    "duration": 0.14226100000000041
                },
                {
                    "name": "D#3",
                    "midi": 51,
                    "time": 4.836874000000004,
                    "velocity": 0.25984251968503935,
                    "duration": 0.14226100000000041
                },
                {
                    "name": "G3",
                    "midi": 55,
                    "time": 4.979135000000005,
                    "velocity": 0.2204724409448819,
                    "duration": 0.14226100000000041
                },
                {
                    "name": "D3",
                    "midi": 50,
                    "time": 5.121396000000005,
                    "velocity": 0.2283464566929134,
                    "duration": 0.14226100000000041
                },
                {
                    "name": "F3",
                    "midi": 53,
                    "time": 5.263657000000006,
                    "velocity": 0.23622047244094488,
                    "duration": 0.14226100000000041
                },
                {
                    "name": "A#2",
                    "midi": 46,
                    "time": 5.405918000000006,
                    "velocity": 0.2204724409448819,
                    "duration": 0.28452200000000083
                },
                {
                    "name": "D3",
                    "midi": 50,
                    "time": 5.405918000000006,
                    "velocity": 0.30708661417322836,
                    "duration": 0.14226100000000041
                },
                {
                    "name": "A#3",
                    "midi": 58,
                    "time": 5.548179000000006,
                    "velocity": 0.2677165354330709,
                    "duration": 0.14226100000000041
                },
                {
                    "name": "G3",
                    "midi": 55,
                    "time": 5.690440000000007,
                    "velocity": 0.28346456692913385,
                    "duration": 0.853565999999998
                },
                {
                    "name": "A#2",
                    "midi": 46,
                    "time": 5.690440000000007,
                    "velocity": 0.23622047244094488,
                    "duration": 0.853565999999998
                },
                {
                    "name": "A#3",
                    "midi": 58,
                    "time": 5.832701000000007,
                    "velocity": 0.25196850393700787,
                    "duration": 0.07113049999999976
                },
                {
                    "name": "A#3",
                    "midi": 58,
                    "time": 5.974962000000007,
                    "velocity": 0.25984251968503935,
                    "duration": 0.07113049999999976
                },
                {
                    "name": "A#3",
                    "midi": 58,
                    "time": 6.117223000000006,
                    "velocity": 0.23622047244094488,
                    "duration": 0.07113049999999976
                },
                {
                    "name": "A#3",
                    "midi": 58,
                    "time": 6.259484000000006,
                    "velocity": 0.2677165354330709,
                    "duration": 0.07113049999999976
                },
                {
                    "name": "A#3",
                    "midi": 58,
                    "time": 6.401745000000005,
                    "velocity": 0.2440944881889764,
                    "duration": 0.07113049999999976
                },
                {
                    "name": "A#2",
                    "midi": 46,
                    "time": 6.544006000000005,
                    "velocity": 0.2125984251968504,
                    "duration": 0.28452200000000083
                },
                {
                    "name": "F3",
                    "midi": 53,
                    "time": 6.544006000000005,
                    "velocity": 0.25984251968503935,
                    "duration": 0.14226100000000041
                },
                {
                    "name": "D#3",
                    "midi": 51,
                    "time": 6.686267000000005,
                    "velocity": 0.2440944881889764,
                    "duration": 0.14226100000000041
                },
                {
                    "name": "F3",
                    "midi": 53,
                    "time": 6.828528000000006,
                    "velocity": 0.25984251968503935,
                    "duration": 0.14226100000000041
                },
                {
                    "name": "A#2",
                    "midi": 46,
                    "time": 6.828528000000006,
                    "velocity": 0.2125984251968504,
                    "duration": 0.28452200000000083
                },
                {
                    "name": "D3",
                    "midi": 50,
                    "time": 6.970789000000006,
                    "velocity": 0.2204724409448819,
                    "duration": 0.14226100000000041
                },
                {
                    "name": "F2",
                    "midi": 41,
                    "time": 7.1130500000000065,
                    "velocity": 0.2125984251968504,
                    "duration": 0.28452200000000083
                },
                {
                    "name": "C3",
                    "midi": 48,
                    "time": 7.1130500000000065,
                    "velocity": 0.25984251968503935,
                    "duration": 0.14226100000000041
                },
                {
                    "name": "F3",
                    "midi": 53,
                    "time": 7.255311000000007,
                    "velocity": 0.2204724409448819,
                    "duration": 0.14226100000000041
                },
                {
                    "name": "D3",
                    "midi": 50,
                    "time": 7.397572000000007,
                    "velocity": 0.25984251968503935,
                    "duration": 0.14226100000000041
                },
                {
                    "name": "F2",
                    "midi": 41,
                    "time": 7.397572000000007,
                    "velocity": 0.2125984251968504,
                    "duration": 0.28452200000000083
                },
                {
                    "name": "F3",
                    "midi": 53,
                    "time": 7.539833000000008,
                    "velocity": 0.23622047244094488,
                    "duration": 0.14226100000000041
                },
                {
                    "name": "D#3",
                    "midi": 51,
                    "time": 7.682094000000008,
                    "velocity": 0.25196850393700787,
                    "duration": 0.14226100000000041
                },
                {
                    "name": "F2",
                    "midi": 41,
                    "time": 7.682094000000008,
                    "velocity": 0.2125984251968504,
                    "duration": 0.28452200000000083
                },
                {
                    "name": "F3",
                    "midi": 53,
                    "time": 7.824355000000009,
                    "velocity": 0.2283464566929134,
                    "duration": 0.14226100000000041
                },
                {
                    "name": "D3",
                    "midi": 50,
                    "time": 7.966616000000009,
                    "velocity": 0.25196850393700787,
                    "duration": 0.14226099999999953
                },
                {
                    "name": "F2",
                    "midi": 41,
                    "time": 7.966616000000009,
                    "velocity": 0.2125984251968504,
                    "duration": 0.5690439999999981
                },
                {
                    "name": "F3",
                    "midi": 53,
                    "time": 8.108877000000009,
                    "velocity": 0.2283464566929134,
                    "duration": 0.14226099999999953
                },
                {
                    "name": "D3",
                    "midi": 50,
                    "time": 8.251138000000008,
                    "velocity": 0.25196850393700787,
                    "duration": 0.14226099999999953
                },
                {
                    "name": "A#2",
                    "midi": 46,
                    "time": 8.393399000000008,
                    "velocity": 0.2283464566929134,
                    "duration": 0.14226099999999953
                },
                {
                    "name": "F2",
                    "midi": 41,
                    "time": 8.535660000000007,
                    "velocity": 0.25196850393700787,
                    "duration": 0.28452200000000083
                },
                {
                    "name": "F1",
                    "midi": 29,
                    "time": 8.962443000000007,
                    "velocity": 0.2125984251968504,
                    "duration": 0.059275416666666914
                },
                {
                    "name": "F#1",
                    "midi": 30,
                    "time": 9.00986333333334,
                    "velocity": 0.1732283464566929,
                    "duration": 0.059275416666666914
                },
                {
                    "name": "G#1",
                    "midi": 32,
                    "time": 9.057283666666674,
                    "velocity": 0.1732283464566929,
                    "duration": 0.059275416666666914
                },
                {
                    "name": "F#1",
                    "midi": 30,
                    "time": 9.104704000000007,
                    "velocity": 0.2125984251968504,
                    "duration": 0.05927541666666869
                },
                {
                    "name": "G#1",
                    "midi": 32,
                    "time": 9.140269250000008,
                    "velocity": 0.18110236220472442,
                    "duration": 0.05927541666666869
                },
                {
                    "name": "F#1",
                    "midi": 30,
                    "time": 9.17583450000001,
                    "velocity": 0.1889763779527559,
                    "duration": 0.05927541666666869
                },
                {
                    "name": "G#1",
                    "midi": 32,
                    "time": 9.21139975000001,
                    "velocity": 0.1732283464566929,
                    "duration": 0.05927541666666869
                },
                {
                    "name": "F#1",
                    "midi": 30,
                    "time": 9.246965000000012,
                    "velocity": 0.1889763779527559,
                    "duration": 0.05927541666666869
                },
                {
                    "name": "G#1",
                    "midi": 32,
                    "time": 9.282530250000013,
                    "velocity": 0.1732283464566929,
                    "duration": 0.05927541666666869
                },
                {
                    "name": "F#1",
                    "midi": 30,
                    "time": 9.318095500000014,
                    "velocity": 0.1968503937007874,
                    "duration": 0.05927541666666869
                },
                {
                    "name": "G#1",
                    "midi": 32,
                    "time": 9.353660750000016,
                    "velocity": 0.1889763779527559,
                    "duration": 0.05927541666666869
                },
                {
                    "name": "F#1",
                    "midi": 30,
                    "time": 9.389226000000017,
                    "velocity": 0.2047244094488189,
                    "duration": 0.05927541666666869
                },
                {
                    "name": "G#1",
                    "midi": 32,
                    "time": 9.424791250000018,
                    "velocity": 0.18110236220472442,
                    "duration": 0.05927541666666869
                },
                {
                    "name": "F#1",
                    "midi": 30,
                    "time": 9.46035650000002,
                    "velocity": 0.2047244094488189,
                    "duration": 0.05927541666666869
                },
                {
                    "name": "G#1",
                    "midi": 32,
                    "time": 9.49592175000002,
                    "velocity": 0.1732283464566929,
                    "duration": 0.05927541666666869
                },
                {
                    "name": "F#1",
                    "midi": 30,
                    "time": 9.531487000000022,
                    "velocity": 0.1968503937007874,
                    "duration": 0.05927541666666869
                },
                {
                    "name": "G#1",
                    "midi": 32,
                    "time": 9.567052250000023,
                    "velocity": 0.18110236220472442,
                    "duration": 0.05927541666666869
                },
                {
                    "name": "F#1",
                    "midi": 30,
                    "time": 9.602617500000024,
                    "velocity": 0.1889763779527559,
                    "duration": 0.05927541666666869
                },
                {
                    "name": "G#1",
                    "midi": 32,
                    "time": 9.638182750000025,
                    "velocity": 0.1732283464566929,
                    "duration": 0.05927541666666869
                },
                {
                    "name": "F#1",
                    "midi": 30,
                    "time": 9.673748000000026,
                    "velocity": 0.2047244094488189,
                    "duration": 0.05927541666666869
                },
                {
                    "name": "G#1",
                    "midi": 32,
                    "time": 9.709313250000028,
                    "velocity": 0.18110236220472442,
                    "duration": 0.05927541666666869
                },
                {
                    "name": "F#1",
                    "midi": 30,
                    "time": 9.744878500000029,
                    "velocity": 0.1968503937007874,
                    "duration": 0.05927541666666869
                },
                {
                    "name": "G#1",
                    "midi": 32,
                    "time": 9.78044375000003,
                    "velocity": 0.18110236220472442,
                    "duration": 0.05927541666666869
                },
                {
                    "name": "F#1",
                    "midi": 30,
                    "time": 9.816009000000031,
                    "velocity": 0.1968503937007874,
                    "duration": 0.05927541666666869
                },
                {
                    "name": "G#1",
                    "midi": 32,
                    "time": 9.851574250000033,
                    "velocity": 0.1732283464566929,
                    "duration": 0.05927541666666869
                },
                {
                    "name": "F#1",
                    "midi": 30,
                    "time": 9.887139500000034,
                    "velocity": 0.1968503937007874,
                    "duration": 0.05927541666666869
                },
                {
                    "name": "G#1",
                    "midi": 32,
                    "time": 9.922704750000035,
                    "velocity": 0.1732283464566929,
                    "duration": 0.05927541666666869
                },
                {
                    "name": "F#1",
                    "midi": 30,
                    "time": 9.958270000000036,
                    "velocity": 0.2125984251968504,
                    "duration": 0.05927541666666869
                },
                {
                    "name": "G#1",
                    "midi": 32,
                    "time": 9.993835250000037,
                    "velocity": 0.18110236220472442,
                    "duration": 0.05927541666666869
                },
                {
                    "name": "F#1",
                    "midi": 30,
                    "time": 10.029400500000039,
                    "velocity": 0.2047244094488189,
                    "duration": 0.05927541666666869
                },
                {
                    "name": "G#1",
                    "midi": 32,
                    "time": 10.06496575000004,
                    "velocity": 0.1732283464566929,
                    "duration": 0.05927541666666869
                },
                {
                    "name": "F1",
                    "midi": 29,
                    "time": 10.100531000000041,
                    "velocity": 0.1732283464566929,
                    "duration": 0.08298558333333439
                },
                {
                    "name": "F#1",
                    "midi": 30,
                    "time": 10.171661500000042,
                    "velocity": 0.14173228346456693,
                    "duration": 0.08298558333333439
                },
                {
                    "name": "F1",
                    "midi": 29,
                    "time": 10.242792000000042,
                    "velocity": 0.18110236220472442,
                    "duration": 0.07113050000000065
                },
                {
                    "name": "A#2",
                    "midi": 46,
                    "time": 11.096358000000043,
                    "velocity": 0.2125984251968504,
                    "duration": 0.28452199999999905
                },
                {
                    "name": "D3",
                    "midi": 50,
                    "time": 11.096358000000043,
                    "velocity": 0.25984251968503935,
                    "duration": 0.14226099999999953
                },
                {
                    "name": "F3",
                    "midi": 53,
                    "time": 11.238619000000043,
                    "velocity": 0.2204724409448819,
                    "duration": 0.14226099999999953
                },
                {
                    "name": "D3",
                    "midi": 50,
                    "time": 11.380880000000042,
                    "velocity": 0.2677165354330709,
                    "duration": 0.14226099999999953
                },
                {
                    "name": "A#2",
                    "midi": 46,
                    "time": 11.380880000000042,
                    "velocity": 0.2204724409448819,
                    "duration": 0.28452199999999905
                },
                {
                    "name": "F3",
                    "midi": 53,
                    "time": 11.523141000000042,
                    "velocity": 0.2204724409448819,
                    "duration": 0.14226099999999953
                },
                {
                    "name": "A#2",
                    "midi": 46,
                    "time": 11.665402000000041,
                    "velocity": 0.1889763779527559,
                    "duration": 0.28452199999999905
                },
                {
                    "name": "C3",
                    "midi": 48,
                    "time": 11.665402000000041,
                    "velocity": 0.2440944881889764,
                    "duration": 0.14226099999999953
                },
                {
                    "name": "F3",
                    "midi": 53,
                    "time": 11.80766300000004,
                    "velocity": 0.2125984251968504,
                    "duration": 0.14226099999999953
                },
                {
                    "name": "A#2",
                    "midi": 46,
                    "time": 11.94992400000004,
                    "velocity": 0.2204724409448819,
                    "duration": 0.28452199999999905
                },
                {
                    "name": "D3",
                    "midi": 50,
                    "time": 11.94992400000004,
                    "velocity": 0.2677165354330709,
                    "duration": 0.14226099999999953
                },
                {
                    "name": "F3",
                    "midi": 53,
                    "time": 12.09218500000004,
                    "velocity": 0.2125984251968504,
                    "duration": 0.14226099999999953
                },
                {
                    "name": "D#3",
                    "midi": 51,
                    "time": 12.23444600000004,
                    "velocity": 0.25984251968503935,
                    "duration": 0.14226099999999953
                },
                {
                    "name": "A#2",
                    "midi": 46,
                    "time": 12.23444600000004,
                    "velocity": 0.2125984251968504,
                    "duration": 0.28452199999999905
                },
                {
                    "name": "F3",
                    "midi": 53,
                    "time": 12.376707000000039,
                    "velocity": 0.2047244094488189,
                    "duration": 0.14226099999999953
                },
                {
                    "name": "E3",
                    "midi": 52,
                    "time": 12.518968000000038,
                    "velocity": 0.2677165354330709,
                    "duration": 0.14226099999999953
                },
                {
                    "name": "A#2",
                    "midi": 46,
                    "time": 12.518968000000038,
                    "velocity": 0.2204724409448819,
                    "duration": 0.853566000000006
                },
                {
                    "name": "F3",
                    "midi": 53,
                    "time": 12.661229000000038,
                    "velocity": 0.2047244094488189,
                    "duration": 0.07113050000000065
                },
                {
                    "name": "F3",
                    "midi": 53,
                    "time": 12.80349000000004,
                    "velocity": 0.2047244094488189,
                    "duration": 0.07113050000000065
                },
                {
                    "name": "F3",
                    "midi": 53,
                    "time": 12.94575100000004,
                    "velocity": 0.2047244094488189,
                    "duration": 0.07113050000000065
                },
                {
                    "name": "F3",
                    "midi": 53,
                    "time": 13.088012000000042,
                    "velocity": 0.2047244094488189,
                    "duration": 0.07113050000000065
                },
                {
                    "name": "F3",
                    "midi": 53,
                    "time": 13.230273000000043,
                    "velocity": 0.2047244094488189,
                    "duration": 0.07113050000000065
                },
                {
                    "name": "A#2",
                    "midi": 46,
                    "time": 13.372534000000044,
                    "velocity": 0.2125984251968504,
                    "duration": 0.28452199999999905
                },
                {
                    "name": "D#3",
                    "midi": 51,
                    "time": 13.372534000000044,
                    "velocity": 0.25984251968503935,
                    "duration": 0.14226099999999953
                },
                {
                    "name": "D3",
                    "midi": 50,
                    "time": 13.514795000000044,
                    "velocity": 0.2125984251968504,
                    "duration": 0.14226099999999953
                },
                {
                    "name": "D#3",
                    "midi": 51,
                    "time": 13.657056000000043,
                    "velocity": 0.2440944881889764,
                    "duration": 0.14226099999999953
                },
                {
                    "name": "F2",
                    "midi": 41,
                    "time": 13.657056000000043,
                    "velocity": 0.2047244094488189,
                    "duration": 0.28452199999999905
                },
                {
                    "name": "F3",
                    "midi": 53,
                    "time": 13.799317000000043,
                    "velocity": 0.1968503937007874,
                    "duration": 0.14226099999999953
                },
                {
                    "name": "D#3",
                    "midi": 51,
                    "time": 13.941578000000042,
                    "velocity": 0.2283464566929134,
                    "duration": 0.14226099999999953
                },
                {
                    "name": "F2",
                    "midi": 41,
                    "time": 13.941578000000042,
                    "velocity": 0.2047244094488189,
                    "duration": 0.28452199999999905
                },
                {
                    "name": "F3",
                    "midi": 53,
                    "time": 14.083839000000042,
                    "velocity": 0.1968503937007874,
                    "duration": 0.14226099999999953
                },
                {
                    "name": "D#3",
                    "midi": 51,
                    "time": 14.226100000000041,
                    "velocity": 0.2283464566929134,
                    "duration": 0.14226099999999953
                },
                {
                    "name": "F2",
                    "midi": 41,
                    "time": 14.226100000000041,
                    "velocity": 0.2047244094488189,
                    "duration": 0.28452199999999905
                },
                {
                    "name": "F3",
                    "midi": 53,
                    "time": 14.368361000000041,
                    "velocity": 0.2204724409448819,
                    "duration": 0.14226099999999953
                },
                {
                    "name": "F2",
                    "midi": 41,
                    "time": 14.51062200000004,
                    "velocity": 0.2125984251968504,
                    "duration": 0.28452199999999905
                },
                {
                    "name": "D3",
                    "midi": 50,
                    "time": 14.51062200000004,
                    "velocity": 0.25984251968503935,
                    "duration": 0.14226099999999953
                },
                {
                    "name": "C3",
                    "midi": 48,
                    "time": 14.65288300000004,
                    "velocity": 0.1968503937007874,
                    "duration": 0.14226099999999953
                },
                {
                    "name": "A#2",
                    "midi": 46,
                    "time": 14.79514400000004,
                    "velocity": 0.2204724409448819,
                    "duration": 0.8535659999999972
                },
                {
                    "name": "D3",
                    "midi": 50,
                    "time": 14.79514400000004,
                    "velocity": 0.2677165354330709,
                    "duration": 0.14226099999999953
                },
                {
                    "name": "F3",
                    "midi": 53,
                    "time": 14.93740500000004,
                    "velocity": 0.23622047244094488,
                    "duration": 0.14226099999999953
                },
                {
                    "name": "D#3",
                    "midi": 51,
                    "time": 15.079666000000039,
                    "velocity": 0.25984251968503935,
                    "duration": 0.14226099999999953
                },
                {
                    "name": "G3",
                    "midi": 55,
                    "time": 15.221927000000038,
                    "velocity": 0.2204724409448819,
                    "duration": 0.14226099999999953
                },
                {
                    "name": "D3",
                    "midi": 50,
                    "time": 15.364188000000038,
                    "velocity": 0.2283464566929134,
                    "duration": 0.14226099999999953
                },
                {
                    "name": "F3",
                    "midi": 53,
                    "time": 15.506449000000037,
                    "velocity": 0.23622047244094488,
                    "duration": 0.14226099999999953
                },
                {
                    "name": "D3",
                    "midi": 50,
                    "time": 15.648710000000037,
                    "velocity": 0.30708661417322836,
                    "duration": 0.14226099999999953
                },
                {
                    "name": "G#2",
                    "midi": 44,
                    "time": 15.648710000000037,
                    "velocity": 0.2204724409448819,
                    "duration": 0.28452199999999905
                },
                {
                    "name": "F3",
                    "midi": 53,
                    "time": 15.790971000000036,
                    "velocity": 0.2677165354330709,
                    "duration": 0.14226099999999953
                },
                {
                    "name": "F3",
                    "midi": 53,
                    "time": 15.933232000000036,
                    "velocity": 0.28346456692913385,
                    "duration": 0.85356599999999
                },
                {
                    "name": "G2",
                    "midi": 43,
                    "time": 15.933232000000036,
                    "velocity": 0.23622047244094488,
                    "duration": 0.85356599999999
                },
                {
                    "name": "G3",
                    "midi": 55,
                    "time": 16.075493000000037,
                    "velocity": 0.25196850393700787,
                    "duration": 0.07113049999999888
                },
                {
                    "name": "G3",
                    "midi": 55,
                    "time": 16.217754000000035,
                    "velocity": 0.25984251968503935,
                    "duration": 0.07113049999999888
                },
                {
                    "name": "G3",
                    "midi": 55,
                    "time": 16.360015000000033,
                    "velocity": 0.23622047244094488,
                    "duration": 0.07113049999999888
                },
                {
                    "name": "G3",
                    "midi": 55,
                    "time": 16.50227600000003,
                    "velocity": 0.2677165354330709,
                    "duration": 0.07113049999999888
                },
                {
                    "name": "G3",
                    "midi": 55,
                    "time": 16.644537000000028,
                    "velocity": 0.2440944881889764,
                    "duration": 0.07113049999999888
                },
                {
                    "name": "G2",
                    "midi": 43,
                    "time": 16.786798000000026,
                    "velocity": 0.1889763779527559,
                    "duration": 0.1422610000000013
                },
                {
                    "name": "D#3",
                    "midi": 51,
                    "time": 16.786798000000026,
                    "velocity": 0.2125984251968504,
                    "duration": 0.1422610000000013
                },
                {
                    "name": "G3",
                    "midi": 55,
                    "time": 16.786798000000026,
                    "velocity": 0.25984251968503935,
                    "duration": 0.1422610000000013
                },
                {
                    "name": "D3",
                    "midi": 50,
                    "time": 16.929059000000027,
                    "velocity": 0.2125984251968504,
                    "duration": 0.1422610000000013
                },
                {
                    "name": "G3",
                    "midi": 55,
                    "time": 16.929059000000027,
                    "velocity": 0.2440944881889764,
                    "duration": 0.1422610000000013
                },
                {
                    "name": "G2",
                    "midi": 43,
                    "time": 16.929059000000027,
                    "velocity": 0.1889763779527559,
                    "duration": 0.1422610000000013
                },
                {
                    "name": "C3",
                    "midi": 48,
                    "time": 17.07132000000003,
                    "velocity": 0.2677165354330709,
                    "duration": 0.1422610000000013
                },
                {
                    "name": "G2",
                    "midi": 43,
                    "time": 17.07132000000003,
                    "velocity": 0.2204724409448819,
                    "duration": 0.2845220000000026
                },
                {
                    "name": "G3",
                    "midi": 55,
                    "time": 17.21358100000003,
                    "velocity": 0.23622047244094488,
                    "duration": 0.1422610000000013
                },
                {
                    "name": "F3",
                    "midi": 53,
                    "time": 17.35584200000003,
                    "velocity": 0.25984251968503935,
                    "duration": 0.1422610000000013
                },
                {
                    "name": "G2",
                    "midi": 43,
                    "time": 17.35584200000003,
                    "velocity": 0.2204724409448819,
                    "duration": 0.2845220000000026
                },
                {
                    "name": "G3",
                    "midi": 55,
                    "time": 17.498103000000032,
                    "velocity": 0.2204724409448819,
                    "duration": 0.1422610000000013
                },
                {
                    "name": "D#3",
                    "midi": 51,
                    "time": 17.640364000000034,
                    "velocity": 0.2204724409448819,
                    "duration": 0.1422610000000013
                },
                {
                    "name": "G2",
                    "midi": 43,
                    "time": 17.640364000000034,
                    "velocity": 0.2125984251968504,
                    "duration": 0.2845220000000026
                },
                {
                    "name": "G3",
                    "midi": 55,
                    "time": 17.782625000000035,
                    "velocity": 0.2283464566929134,
                    "duration": 0.1422610000000013
                },
                {
                    "name": "F#2",
                    "midi": 42,
                    "time": 17.924886000000036,
                    "velocity": 0.2204724409448819,
                    "duration": 0.2845220000000026
                },
                {
                    "name": "D#3",
                    "midi": 51,
                    "time": 17.924886000000036,
                    "velocity": 0.30708661417322836,
                    "duration": 0.1422610000000013
                },
                {
                    "name": "F#3",
                    "midi": 54,
                    "time": 18.067147000000038,
                    "velocity": 0.2677165354330709,
                    "duration": 0.1422610000000013
                },
                {
                    "name": "F2",
                    "midi": 41,
                    "time": 18.20940800000004,
                    "velocity": 0.23622047244094488,
                    "duration": 0.85356599999999
                },
                {
                    "name": "D#3",
                    "midi": 51,
                    "time": 18.20940800000004,
                    "velocity": 0.28346456692913385,
                    "duration": 0.85356599999999
                },
                {
                    "name": "F3",
                    "midi": 53,
                    "time": 18.35166900000004,
                    "velocity": 0.25196850393700787,
                    "duration": 0.07113049999999888
                },
                {
                    "name": "F3",
                    "midi": 53,
                    "time": 18.493930000000038,
                    "velocity": 0.25984251968503935,
                    "duration": 0.07113049999999888
                },
                {
                    "name": "F3",
                    "midi": 53,
                    "time": 18.636191000000036,
                    "velocity": 0.23622047244094488,
                    "duration": 0.07113049999999888
                },
                {
                    "name": "F3",
                    "midi": 53,
                    "time": 18.778452000000033,
                    "velocity": 0.2677165354330709,
                    "duration": 0.07113049999999888
                },
                {
                    "name": "F3",
                    "midi": 53,
                    "time": 18.92071300000003,
                    "velocity": 0.2440944881889764,
                    "duration": 0.07113049999999888
                },
                {
                    "name": "F2",
                    "midi": 41,
                    "time": 19.06297400000003,
                    "velocity": 0.1889763779527559,
                    "duration": 0.1422610000000013
                },
                {
                    "name": "F3",
                    "midi": 53,
                    "time": 19.06297400000003,
                    "velocity": 0.25984251968503935,
                    "duration": 0.1422610000000013
                },
                {
                    "name": "D3",
                    "midi": 50,
                    "time": 19.06297400000003,
                    "velocity": 0.2125984251968504,
                    "duration": 0.1422610000000013
                },
                {
                    "name": "F2",
                    "midi": 41,
                    "time": 19.20523500000003,
                    "velocity": 0.1889763779527559,
                    "duration": 0.1422610000000013
                },
                {
                    "name": "F3",
                    "midi": 53,
                    "time": 19.20523500000003,
                    "velocity": 0.2440944881889764,
                    "duration": 0.1422610000000013
                },
                {
                    "name": "C3",
                    "midi": 48,
                    "time": 19.20523500000003,
                    "velocity": 0.2125984251968504,
                    "duration": 0.1422610000000013
                },
                {
                    "name": "F2",
                    "midi": 41,
                    "time": 19.34749600000003,
                    "velocity": 0.2204724409448819,
                    "duration": 0.2845220000000026
                },
                {
                    "name": "A#2",
                    "midi": 46,
                    "time": 19.34749600000003,
                    "velocity": 0.2677165354330709,
                    "duration": 0.1422610000000013
                },
                {
                    "name": "F3",
                    "midi": 53,
                    "time": 19.489757000000033,
                    "velocity": 0.23622047244094488,
                    "duration": 0.1422610000000013
                },
                {
                    "name": "C3",
                    "midi": 48,
                    "time": 19.632018000000034,
                    "velocity": 0.2440944881889764,
                    "duration": 0.1422610000000013
                },
                {
                    "name": "F2",
                    "midi": 41,
                    "time": 19.632018000000034,
                    "velocity": 0.2047244094488189,
                    "duration": 0.2845220000000026
                },
                {
                    "name": "F3",
                    "midi": 53,
                    "time": 19.774279000000035,
                    "velocity": 0.2047244094488189,
                    "duration": 0.1422610000000013
                },
                {
                    "name": "D3",
                    "midi": 50,
                    "time": 19.916540000000037,
                    "velocity": 0.2283464566929134,
                    "duration": 0.1422610000000013
                },
                {
                    "name": "F2",
                    "midi": 41,
                    "time": 19.916540000000037,
                    "velocity": 0.2204724409448819,
                    "duration": 0.2845220000000026
                },
                {
                    "name": "F3",
                    "midi": 53,
                    "time": 20.058801000000038,
                    "velocity": 0.2125984251968504,
                    "duration": 0.1422610000000013
                },
                {
                    "name": "F2",
                    "midi": 41,
                    "time": 20.20106200000004,
                    "velocity": 0.1968503937007874,
                    "duration": 0.2845220000000026
                },
                {
                    "name": "D#3",
                    "midi": 51,
                    "time": 20.20106200000004,
                    "velocity": 0.2755905511811024,
                    "duration": 0.1422610000000013
                },
                {
                    "name": "F3",
                    "midi": 53,
                    "time": 20.34332300000004,
                    "velocity": 0.23622047244094488,
                    "duration": 0.1422610000000013
                },
                {
                    "name": "F2",
                    "midi": 41,
                    "time": 20.485584000000042,
                    "velocity": 0.2125984251968504,
                    "duration": 0.5690440000000017
                },
                {
                    "name": "D#3",
                    "midi": 51,
                    "time": 20.485584000000042,
                    "velocity": 0.25196850393700787,
                    "duration": 0.5690440000000017
                },
                {
                    "name": "F3",
                    "midi": 53,
                    "time": 20.485584000000042,
                    "velocity": 0.25196850393700787,
                    "duration": 0.711305000000003
                },
                {
                    "name": "D3",
                    "midi": 50,
                    "time": 21.054628000000044,
                    "velocity": 0.2204724409448819,
                    "duration": 0.1422610000000013
                },
                {
                    "name": "A#2",
                    "midi": 46,
                    "time": 21.054628000000044,
                    "velocity": 0.2204724409448819,
                    "duration": 0.1422610000000013
                },
                {
                    "name": "A#1",
                    "midi": 34,
                    "time": 21.339150000000046,
                    "velocity": 0.23622047244094488,
                    "duration": 0.1422610000000013
                },
                {
                    "name": "A#1",
                    "midi": 34,
                    "time": 21.62367200000005,
                    "velocity": 0.23622047244094488,
                    "duration": 0.053347875000000045
                },
                {
                    "name": "B1",
                    "midi": 35,
                    "time": 21.65923725000005,
                    "velocity": 0.2047244094488189,
                    "duration": 0.05334787499999649
                },
                {
                    "name": "A#1",
                    "midi": 34,
                    "time": 21.694802500000048,
                    "velocity": 0.2125984251968504,
                    "duration": 0.05334787499999649
                },
                {
                    "name": "B1",
                    "midi": 35,
                    "time": 21.730367750000045,
                    "velocity": 0.1968503937007874,
                    "duration": 0.05334787499999649
                },
                {
                    "name": "A#1",
                    "midi": 34,
                    "time": 21.765933000000043,
                    "velocity": 0.2125984251968504,
                    "duration": 0.05334787499999649
                },
                {
                    "name": "B1",
                    "midi": 35,
                    "time": 21.80149825000004,
                    "velocity": 0.1968503937007874,
                    "duration": 0.05334787499999649
                },
                {
                    "name": "A#1",
                    "midi": 34,
                    "time": 21.83706350000004,
                    "velocity": 0.2204724409448819,
                    "duration": 0.05334787499999649
                },
                {
                    "name": "B1",
                    "midi": 35,
                    "time": 21.872628750000036,
                    "velocity": 0.2125984251968504,
                    "duration": 0.05334787499999649
                },
                {
                    "name": "A#1",
                    "midi": 34,
                    "time": 21.908194000000034,
                    "velocity": 0.2283464566929134,
                    "duration": 0.05334787499999649
                },
                {
                    "name": "B1",
                    "midi": 35,
                    "time": 21.94375925000003,
                    "velocity": 0.2047244094488189,
                    "duration": 0.05334787499999649
                },
                {
                    "name": "A#1",
                    "midi": 34,
                    "time": 21.97932450000003,
                    "velocity": 0.2283464566929134,
                    "duration": 0.05334787499999649
                },
                {
                    "name": "B1",
                    "midi": 35,
                    "time": 22.014889750000027,
                    "velocity": 0.1968503937007874,
                    "duration": 0.05334787499999649
                },
                {
                    "name": "A#1",
                    "midi": 34,
                    "time": 22.050455000000024,
                    "velocity": 0.2204724409448819,
                    "duration": 0.05334787499999649
                },
                {
                    "name": "B1",
                    "midi": 35,
                    "time": 22.086020250000022,
                    "velocity": 0.2047244094488189,
                    "duration": 0.05334787499999649
                },
                {
                    "name": "A#1",
                    "midi": 34,
                    "time": 22.12158550000002,
                    "velocity": 0.2125984251968504,
                    "duration": 0.05334787499999649
                },
                {
                    "name": "B1",
                    "midi": 35,
                    "time": 22.157150750000017,
                    "velocity": 0.1968503937007874,
                    "duration": 0.05334787499999649
                },
                {
                    "name": "A#1",
                    "midi": 34,
                    "time": 22.192716000000015,
                    "velocity": 0.2283464566929134,
                    "duration": 0.05334787499999649
                },
                {
                    "name": "B1",
                    "midi": 35,
                    "time": 22.228281250000013,
                    "velocity": 0.2047244094488189,
                    "duration": 0.05334787499999649
                },
                {
                    "name": "A#1",
                    "midi": 34,
                    "time": 22.26384650000001,
                    "velocity": 0.2204724409448819,
                    "duration": 0.05334787499999649
                },
                {
                    "name": "B1",
                    "midi": 35,
                    "time": 22.299411750000008,
                    "velocity": 0.2047244094488189,
                    "duration": 0.05334787499999649
                },
                {
                    "name": "A#1",
                    "midi": 34,
                    "time": 22.334977000000006,
                    "velocity": 0.2204724409448819,
                    "duration": 0.05334787499999649
                },
                {
                    "name": "B1",
                    "midi": 35,
                    "time": 22.370542250000003,
                    "velocity": 0.1968503937007874,
                    "duration": 0.05334787499999649
                },
                {
                    "name": "A#1",
                    "midi": 34,
                    "time": 22.4061075,
                    "velocity": 0.2204724409448819,
                    "duration": 0.05334787499999649
                },
                {
                    "name": "B1",
                    "midi": 35,
                    "time": 22.44167275,
                    "velocity": 0.1968503937007874,
                    "duration": 0.05334787499999649
                },
                {
                    "name": "A#1",
                    "midi": 34,
                    "time": 22.477237999999996,
                    "velocity": 0.23622047244094488,
                    "duration": 0.08298558333333261
                },
                {
                    "name": "A1",
                    "midi": 33,
                    "time": 22.548368499999995,
                    "velocity": 0.2047244094488189,
                    "duration": 0.08298558333333261
                },
                {
                    "name": "G#1",
                    "midi": 32,
                    "time": 22.619498999999994,
                    "velocity": 0.23622047244094488,
                    "duration": 0.08298558333333261
                },
                {
                    "name": "G1",
                    "midi": 31,
                    "time": 22.690629499999993,
                    "velocity": 0.2047244094488189,
                    "duration": 0.08298558333333261
                },
                {
                    "name": "F#1",
                    "midi": 30,
                    "time": 22.761759999999992,
                    "velocity": 0.23622047244094488,
                    "duration": 0.07113049999999888
                },
                {
                    "name": "C#3",
                    "midi": 49,
                    "time": 22.83289049999999,
                    "velocity": 0.2047244094488189,
                    "duration": 0.07113049999999888
                },
                {
                    "name": "F#3",
                    "midi": 54,
                    "time": 22.90402099999999,
                    "velocity": 0.2047244094488189,
                    "duration": 0.07113049999999888
                },
                {
                    "name": "C#3",
                    "midi": 49,
                    "time": 22.97515149999999,
                    "velocity": 0.2047244094488189,
                    "duration": 0.07113049999999888
                },
                {
                    "name": "F#2",
                    "midi": 42,
                    "time": 23.046281999999987,
                    "velocity": 0.2440944881889764,
                    "duration": 0.07113049999999888
                },
                {
                    "name": "C#3",
                    "midi": 49,
                    "time": 23.117412499999986,
                    "velocity": 0.2047244094488189,
                    "duration": 0.07113049999999888
                },
                {
                    "name": "F3",
                    "midi": 53,
                    "time": 23.188542999999985,
                    "velocity": 0.2047244094488189,
                    "duration": 0.07113049999999888
                },
                {
                    "name": "C#3",
                    "midi": 49,
                    "time": 23.259673499999984,
                    "velocity": 0.1968503937007874,
                    "duration": 0.07113049999999888
                },
                {
                    "name": "F#2",
                    "midi": 42,
                    "time": 23.330803999999983,
                    "velocity": 0.23622047244094488,
                    "duration": 0.07113049999999888
                },
                {
                    "name": "C#3",
                    "midi": 49,
                    "time": 23.40193449999998,
                    "velocity": 0.2125984251968504,
                    "duration": 0.07113049999999888
                },
                {
                    "name": "F#3",
                    "midi": 54,
                    "time": 23.47306499999998,
                    "velocity": 0.2125984251968504,
                    "duration": 0.07113049999999888
                },
                {
                    "name": "C#3",
                    "midi": 49,
                    "time": 23.54419549999998,
                    "velocity": 0.2125984251968504,
                    "duration": 0.07113049999999888
                },
                {
                    "name": "F#2",
                    "midi": 42,
                    "time": 23.61532599999998,
                    "velocity": 0.23622047244094488,
                    "duration": 0.07113049999999888
                },
                {
                    "name": "C#3",
                    "midi": 49,
                    "time": 23.686456499999977,
                    "velocity": 0.2125984251968504,
                    "duration": 0.07113049999999888
                },
                {
                    "name": "G#3",
                    "midi": 56,
                    "time": 23.757586999999976,
                    "velocity": 0.2125984251968504,
                    "duration": 0.07113049999999888
                },
                {
                    "name": "C#3",
                    "midi": 49,
                    "time": 23.828717499999975,
                    "velocity": 0.2125984251968504,
                    "duration": 0.07113049999999888
                },
                {
                    "name": "F#2",
                    "midi": 42,
                    "time": 23.899847999999974,
                    "velocity": 0.25984251968503935,
                    "duration": 0.07113049999999888
                },
                {
                    "name": "C#3",
                    "midi": 49,
                    "time": 23.970978499999973,
                    "velocity": 0.2125984251968504,
                    "duration": 0.07113049999999888
                },
                {
                    "name": "A#3",
                    "midi": 58,
                    "time": 24.04210899999997,
                    "velocity": 0.2125984251968504,
                    "duration": 0.07113049999999888
                },
                {
                    "name": "C#3",
                    "midi": 49,
                    "time": 24.11323949999997,
                    "velocity": 0.2125984251968504,
                    "duration": 0.07113049999999888
                },
                {
                    "name": "F#2",
                    "midi": 42,
                    "time": 24.18436999999997,
                    "velocity": 0.2440944881889764,
                    "duration": 0.07113049999999888
                },
                {
                    "name": "C#3",
                    "midi": 49,
                    "time": 24.255500499999968,
                    "velocity": 0.2125984251968504,
                    "duration": 0.07113049999999888
                },
                {
                    "name": "A#3",
                    "midi": 58,
                    "time": 24.326630999999967,
                    "velocity": 0.2125984251968504,
                    "duration": 0.07113049999999888
                },
                {
                    "name": "C#3",
                    "midi": 49,
                    "time": 24.397761499999966,
                    "velocity": 0.2125984251968504,
                    "duration": 0.07113049999999888
                },
                {
                    "name": "F#2",
                    "midi": 42,
                    "time": 24.468891999999965,
                    "velocity": 0.23622047244094488,
                    "duration": 0.07113049999999888
                },
                {
                    "name": "C#3",
                    "midi": 49,
                    "time": 24.540022499999964,
                    "velocity": 0.2125984251968504,
                    "duration": 0.07113049999999888
                },
                {
                    "name": "A#3",
                    "midi": 58,
                    "time": 24.611152999999963,
                    "velocity": 0.2125984251968504,
                    "duration": 0.07113049999999888
                },
                {
                    "name": "C#3",
                    "midi": 49,
                    "time": 24.68228349999996,
                    "velocity": 0.2125984251968504,
                    "duration": 0.07113049999999888
                },
                {
                    "name": "F#2",
                    "midi": 42,
                    "time": 24.75341399999996,
                    "velocity": 0.2440944881889764,
                    "duration": 0.07113049999999888
                },
                {
                    "name": "C#3",
                    "midi": 49,
                    "time": 24.82454449999996,
                    "velocity": 0.1968503937007874,
                    "duration": 0.07113049999999888
                },
                {
                    "name": "F#3",
                    "midi": 54,
                    "time": 24.895674999999958,
                    "velocity": 0.2204724409448819,
                    "duration": 0.07113049999999888
                },
                {
                    "name": "C#3",
                    "midi": 49,
                    "time": 24.966805499999957,
                    "velocity": 0.2125984251968504,
                    "duration": 0.07113049999999888
                },
                {
                    "name": "F#2",
                    "midi": 42,
                    "time": 25.037935999999956,
                    "velocity": 0.25984251968503935,
                    "duration": 0.07113049999999888
                },
                {
                    "name": "D#3",
                    "midi": 51,
                    "time": 25.109066499999955,
                    "velocity": 0.2125984251968504,
                    "duration": 0.07113049999999888
                },
                {
                    "name": "B3",
                    "midi": 59,
                    "time": 25.180196999999954,
                    "velocity": 0.2125984251968504,
                    "duration": 0.07113049999999888
                },
                {
                    "name": "D#3",
                    "midi": 51,
                    "time": 25.251327499999952,
                    "velocity": 0.2125984251968504,
                    "duration": 0.07113049999999888
                },
                {
                    "name": "F#2",
                    "midi": 42,
                    "time": 25.32245799999995,
                    "velocity": 0.25196850393700787,
                    "duration": 0.07113049999999888
                },
                {
                    "name": "D#3",
                    "midi": 51,
                    "time": 25.39358849999995,
                    "velocity": 0.2125984251968504,
                    "duration": 0.07113049999999888
                },
                {
                    "name": "B3",
                    "midi": 59,
                    "time": 25.46471899999995,
                    "velocity": 0.2125984251968504,
                    "duration": 0.07113049999999888
                },
                {
                    "name": "D#3",
                    "midi": 51,
                    "time": 25.535849499999948,
                    "velocity": 0.2125984251968504,
                    "duration": 0.07113049999999888
                },
                {
                    "name": "F#2",
                    "midi": 42,
                    "time": 25.606979999999947,
                    "velocity": 0.25196850393700787,
                    "duration": 0.07113049999999888
                },
                {
                    "name": "D#3",
                    "midi": 51,
                    "time": 25.678110499999946,
                    "velocity": 0.2125984251968504,
                    "duration": 0.07113049999999888
                },
                {
                    "name": "B3",
                    "midi": 59,
                    "time": 25.749240999999945,
                    "velocity": 0.2125984251968504,
                    "duration": 0.07113049999999888
                },
                {
                    "name": "D#3",
                    "midi": 51,
                    "time": 25.820371499999943,
                    "velocity": 0.2125984251968504,
                    "duration": 0.07113049999999888
                },
                {
                    "name": "F#2",
                    "midi": 42,
                    "time": 25.891501999999942,
                    "velocity": 0.25984251968503935,
                    "duration": 0.07113049999999888
                },
                {
                    "name": "D#3",
                    "midi": 51,
                    "time": 25.96263249999994,
                    "velocity": 0.2125984251968504,
                    "duration": 0.07113049999999888
                },
                {
                    "name": "B3",
                    "midi": 59,
                    "time": 26.03376299999994,
                    "velocity": 0.2440944881889764,
                    "duration": 0.07113049999999888
                },
                {
                    "name": "D#3",
                    "midi": 51,
                    "time": 26.10489349999994,
                    "velocity": 0.2125984251968504,
                    "duration": 0.07113049999999888
                },
                {
                    "name": "F#2",
                    "midi": 42,
                    "time": 26.176023999999938,
                    "velocity": 0.25984251968503935,
                    "duration": 0.07113049999999888
                },
                {
                    "name": "C#3",
                    "midi": 49,
                    "time": 26.247154499999937,
                    "velocity": 0.2204724409448819,
                    "duration": 0.07113049999999888
                },
                {
                    "name": "A#3",
                    "midi": 58,
                    "time": 26.318284999999936,
                    "velocity": 0.2204724409448819,
                    "duration": 0.07113049999999888
                },
                {
                    "name": "C#3",
                    "midi": 49,
                    "time": 26.389415499999934,
                    "velocity": 0.2204724409448819,
                    "duration": 0.07113049999999888
                },
                {
                    "name": "F#2",
                    "midi": 42,
                    "time": 26.460545999999933,
                    "velocity": 0.25984251968503935,
                    "duration": 0.07113049999999888
                },
                {
                    "name": "C#3",
                    "midi": 49,
                    "time": 26.531676499999932,
                    "velocity": 0.2125984251968504,
                    "duration": 0.07113049999999888
                },
                {
                    "name": "A#3",
                    "midi": 58,
                    "time": 26.60280699999993,
                    "velocity": 0.2204724409448819,
                    "duration": 0.07113049999999888
                },
                {
                    "name": "C#3",
                    "midi": 49,
                    "time": 26.67393749999993,
                    "velocity": 0.2125984251968504,
                    "duration": 0.07113049999999888
                },
                {
                    "name": "F#2",
                    "midi": 42,
                    "time": 26.74506799999993,
                    "velocity": 0.25984251968503935,
                    "duration": 0.07113049999999888
                },
                {
                    "name": "C#3",
                    "midi": 49,
                    "time": 26.816198499999928,
                    "velocity": 0.2204724409448819,
                    "duration": 0.07113049999999888
                },
                {
                    "name": "A#3",
                    "midi": 58,
                    "time": 26.887328999999927,
                    "velocity": 0.2283464566929134,
                    "duration": 0.07113049999999888
                },
                {
                    "name": "C#3",
                    "midi": 49,
                    "time": 26.958459499999925,
                    "velocity": 0.2283464566929134,
                    "duration": 0.07113049999999888
                },
                {
                    "name": "F#2",
                    "midi": 42,
                    "time": 27.029589999999924,
                    "velocity": 0.25984251968503935,
                    "duration": 0.07113049999999888
                },
                {
                    "name": "C#3",
                    "midi": 49,
                    "time": 27.100720499999923,
                    "velocity": 0.2125984251968504,
                    "duration": 0.07113049999999888
                },
                {
                    "name": "F#3",
                    "midi": 54,
                    "time": 27.171850999999922,
                    "velocity": 0.2440944881889764,
                    "duration": 0.07113049999999888
                },
                {
                    "name": "C#3",
                    "midi": 49,
                    "time": 27.24298149999992,
                    "velocity": 0.2125984251968504,
                    "duration": 0.07113049999999888
                },
                {
                    "name": "F#2",
                    "midi": 42,
                    "time": 27.31411199999992,
                    "velocity": 0.25984251968503935,
                    "duration": 0.07113049999999888
                },
                {
                    "name": "D#3",
                    "midi": 51,
                    "time": 27.38524249999992,
                    "velocity": 0.2204724409448819,
                    "duration": 0.07113049999999888
                },
                {
                    "name": "B3",
                    "midi": 59,
                    "time": 27.456372999999918,
                    "velocity": 0.2204724409448819,
                    "duration": 0.07113049999999888
                },
                {
                    "name": "D#3",
                    "midi": 51,
                    "time": 27.527503499999916,
                    "velocity": 0.2204724409448819,
                    "duration": 0.07113049999999888
                },
                {
                    "name": "F#2",
                    "midi": 42,
                    "time": 27.598633999999915,
                    "velocity": 0.25984251968503935,
                    "duration": 0.07113049999999888
                },
                {
                    "name": "D#3",
                    "midi": 51,
                    "time": 27.669764499999914,
                    "velocity": 0.2283464566929134,
                    "duration": 0.07113049999999888
                },
                {
                    "name": "B3",
                    "midi": 59,
                    "time": 27.740894999999913,
                    "velocity": 0.2283464566929134,
                    "duration": 0.07113049999999888
                },
                {
                    "name": "D#3",
                    "midi": 51,
                    "time": 27.812025499999912,
                    "velocity": 0.2283464566929134,
                    "duration": 0.07113049999999888
                },
                {
                    "name": "F#2",
                    "midi": 42,
                    "time": 27.88315599999991,
                    "velocity": 0.25984251968503935,
                    "duration": 0.07113049999999888
                },
                {
                    "name": "C#3",
                    "midi": 49,
                    "time": 27.95428649999991,
                    "velocity": 0.2204724409448819,
                    "duration": 0.07113049999999888
                },
                {
                    "name": "F3",
                    "midi": 53,
                    "time": 28.02541699999991,
                    "velocity": 0.2204724409448819,
                    "duration": 0.07113049999999888
                },
                {
                    "name": "C#3",
                    "midi": 49,
                    "time": 28.096547499999907,
                    "velocity": 0.2125984251968504,
                    "duration": 0.07113049999999888
                },
                {
                    "name": "F#2",
                    "midi": 42,
                    "time": 28.167677999999906,
                    "velocity": 0.2440944881889764,
                    "duration": 0.07113049999999888
                },
                {
                    "name": "C#3",
                    "midi": 49,
                    "time": 28.238808499999905,
                    "velocity": 0.2125984251968504,
                    "duration": 0.07113049999999888
                },
                {
                    "name": "G#3",
                    "midi": 56,
                    "time": 28.309938999999904,
                    "velocity": 0.2204724409448819,
                    "duration": 0.07113049999999888
                },
                {
                    "name": "C#3",
                    "midi": 49,
                    "time": 28.381069499999903,
                    "velocity": 0.2204724409448819,
                    "duration": 0.07113049999999888
                },
                {
                    "name": "F#2",
                    "midi": 42,
                    "time": 28.452199999999902,
                    "velocity": 0.25984251968503935,
                    "duration": 0.07113049999999888
                },
                {
                    "name": "C#3",
                    "midi": 49,
                    "time": 28.5233304999999,
                    "velocity": 0.2204724409448819,
                    "duration": 0.07113049999999888
                },
                {
                    "name": "A#3",
                    "midi": 58,
                    "time": 28.5944609999999,
                    "velocity": 0.2204724409448819,
                    "duration": 0.07113049999999888
                },
                {
                    "name": "C#3",
                    "midi": 49,
                    "time": 28.6655914999999,
                    "velocity": 0.2204724409448819,
                    "duration": 0.07113049999999888
                },
                {
                    "name": "F#2",
                    "midi": 42,
                    "time": 28.736721999999897,
                    "velocity": 0.25984251968503935,
                    "duration": 0.07113049999999888
                },
                {
                    "name": "C#3",
                    "midi": 49,
                    "time": 28.807852499999896,
                    "velocity": 0.2125984251968504,
                    "duration": 0.07113049999999888
                },
                {
                    "name": "A#3",
                    "midi": 58,
                    "time": 28.878982999999895,
                    "velocity": 0.2204724409448819,
                    "duration": 0.07113049999999888
                },
                {
                    "name": "C#3",
                    "midi": 49,
                    "time": 28.950113499999894,
                    "velocity": 0.2125984251968504,
                    "duration": 0.07113049999999888
                },
                {
                    "name": "F#2",
                    "midi": 42,
                    "time": 29.021243999999893,
                    "velocity": 0.25984251968503935,
                    "duration": 0.07113049999999888
                },
                {
                    "name": "C#3",
                    "midi": 49,
                    "time": 29.09237449999989,
                    "velocity": 0.2204724409448819,
                    "duration": 0.07113049999999888
                },
                {
                    "name": "A#3",
                    "midi": 58,
                    "time": 29.16350499999989,
                    "velocity": 0.2283464566929134,
                    "duration": 0.07113049999999888
                },
                {
                    "name": "C#3",
                    "midi": 49,
                    "time": 29.23463549999989,
                    "velocity": 0.2283464566929134,
                    "duration": 0.07113049999999888
                },
                {
                    "name": "F#2",
                    "midi": 42,
                    "time": 29.30576599999989,
                    "velocity": 0.25984251968503935,
                    "duration": 0.07113049999999888
                },
                {
                    "name": "C#3",
                    "midi": 49,
                    "time": 29.376896499999887,
                    "velocity": 0.2125984251968504,
                    "duration": 0.07113049999999888
                },
                {
                    "name": "A#3",
                    "midi": 58,
                    "time": 29.448026999999886,
                    "velocity": 0.2440944881889764,
                    "duration": 0.07113049999999888
                },
                {
                    "name": "C#3",
                    "midi": 49,
                    "time": 29.519157499999885,
                    "velocity": 0.2125984251968504,
                    "duration": 0.07113049999999888
                },
                {
                    "name": "F#2",
                    "midi": 42,
                    "time": 29.590287999999884,
                    "velocity": 0.25984251968503935,
                    "duration": 0.07113049999999888
                },
                {
                    "name": "D#3",
                    "midi": 51,
                    "time": 29.661418499999883,
                    "velocity": 0.2204724409448819,
                    "duration": 0.07113049999999888
                },
                {
                    "name": "F#3",
                    "midi": 54,
                    "time": 29.73254899999988,
                    "velocity": 0.2204724409448819,
                    "duration": 0.07113049999999888
                },
                {
                    "name": "D#3",
                    "midi": 51,
                    "time": 29.80367949999988,
                    "velocity": 0.2204724409448819,
                    "duration": 0.07113049999999888
                },
                {
                    "name": "F#2",
                    "midi": 42,
                    "time": 29.87480999999988,
                    "velocity": 0.25984251968503935,
                    "duration": 0.07113049999999888
                },
                {
                    "name": "D#3",
                    "midi": 51,
                    "time": 29.945940499999878,
                    "velocity": 0.2283464566929134,
                    "duration": 0.07113049999999888
                },
                {
                    "name": "B3",
                    "midi": 59,
                    "time": 30.017070999999877,
                    "velocity": 0.2283464566929134,
                    "duration": 0.07113049999999888
                },
                {
                    "name": "D#3",
                    "midi": 51,
                    "time": 30.088201499999876,
                    "velocity": 0.2283464566929134,
                    "duration": 0.07113049999999888
                },
                {
                    "name": "F#2",
                    "midi": 42,
                    "time": 30.159331999999875,
                    "velocity": 0.25984251968503935,
                    "duration": 0.07113049999999888
                },
                {
                    "name": "C#3",
                    "midi": 49,
                    "time": 30.230462499999874,
                    "velocity": 0.2204724409448819,
                    "duration": 0.07113049999999888
                },
                {
                    "name": "F3",
                    "midi": 53,
                    "time": 30.301592999999873,
                    "velocity": 0.2204724409448819,
                    "duration": 0.07113049999999888
                },
                {
                    "name": "C#3",
                    "midi": 49,
                    "time": 30.37272349999987,
                    "velocity": 0.2125984251968504,
                    "duration": 0.07113049999999888
                },
                {
                    "name": "F#2",
                    "midi": 42,
                    "time": 30.44385399999987,
                    "velocity": 0.2440944881889764,
                    "duration": 0.07113049999999888
                },
                {
                    "name": "C#3",
                    "midi": 49,
                    "time": 30.51498449999987,
                    "velocity": 0.2125984251968504,
                    "duration": 0.07113049999999888
                },
                {
                    "name": "G#3",
                    "midi": 56,
                    "time": 30.586114999999868,
                    "velocity": 0.2204724409448819,
                    "duration": 0.07113049999999888
                },
                {
                    "name": "C#3",
                    "midi": 49,
                    "time": 30.657245499999867,
                    "velocity": 0.2204724409448819,
                    "duration": 0.07113049999999888
                },
                {
                    "name": "F#2",
                    "midi": 42,
                    "time": 30.728375999999866,
                    "velocity": 0.25984251968503935,
                    "duration": 0.07113049999999888
                },
                {
                    "name": "A#3",
                    "midi": 58,
                    "time": 30.799506499999865,
                    "velocity": 0.2204724409448819,
                    "duration": 0.07113049999999888
                },
                {
                    "name": "F#3",
                    "midi": 54,
                    "time": 30.870636999999864,
                    "velocity": 0.2204724409448819,
                    "duration": 0.07113049999999888
                },
                {
                    "name": "A#3",
                    "midi": 58,
                    "time": 30.941767499999862,
                    "velocity": 0.2204724409448819,
                    "duration": 0.07113049999999888
                },
                {
                    "name": "F#3",
                    "midi": 54,
                    "time": 31.01289799999986,
                    "velocity": 0.25984251968503935,
                    "duration": 0.07113049999999888
                },
                {
                    "name": "A#3",
                    "midi": 58,
                    "time": 31.08402849999986,
                    "velocity": 0.2283464566929134,
                    "duration": 0.07113049999999888
                },
                {
                    "name": "F#3",
                    "midi": 54,
                    "time": 31.15515899999986,
                    "velocity": 0.2283464566929134,
                    "duration": 0.07113049999999888
                },
                {
                    "name": "A#3",
                    "midi": 58,
                    "time": 31.226289499999858,
                    "velocity": 0.2283464566929134,
                    "duration": 0.07113049999999888
                },
                {
                    "name": "F#2",
                    "midi": 42,
                    "time": 31.297419999999857,
                    "velocity": 0.25984251968503935,
                    "duration": 0.07113049999999888
                },
                {
                    "name": "A#3",
                    "midi": 58,
                    "time": 31.368550499999856,
                    "velocity": 0.2204724409448819,
                    "duration": 0.07113049999999888
                },
                {
                    "name": "F#3",
                    "midi": 54,
                    "time": 31.439680999999855,
                    "velocity": 0.2204724409448819,
                    "duration": 0.07113049999999888
                },
                {
                    "name": "A#3",
                    "midi": 58,
                    "time": 31.510811499999853,
                    "velocity": 0.2125984251968504,
                    "duration": 0.07113049999999888
                },
                {
                    "name": "F#3",
                    "midi": 54,
                    "time": 31.581941999999852,
                    "velocity": 0.2440944881889764,
                    "duration": 0.07113049999999888
                },
                {
                    "name": "A#3",
                    "midi": 58,
                    "time": 31.65307249999985,
                    "velocity": 0.2125984251968504,
                    "duration": 0.07113049999999888
                },
                {
                    "name": "F#3",
                    "midi": 54,
                    "time": 31.72420299999985,
                    "velocity": 0.2204724409448819,
                    "duration": 0.07113049999999888
                },
                {
                    "name": "A#3",
                    "midi": 58,
                    "time": 31.79533349999985,
                    "velocity": 0.2204724409448819,
                    "duration": 0.07113049999999888
                },
                {
                    "name": "F#2",
                    "midi": 42,
                    "time": 31.866463999999848,
                    "velocity": 0.25984251968503935,
                    "duration": 0.07113049999999888
                },
                {
                    "name": "B3",
                    "midi": 59,
                    "time": 31.937594499999847,
                    "velocity": 0.2204724409448819,
                    "duration": 0.07113050000000243
                },
                {
                    "name": "F#3",
                    "midi": 54,
                    "time": 32.00872499999985,
                    "velocity": 0.2204724409448819,
                    "duration": 0.07113050000000243
                },
                {
                    "name": "B3",
                    "midi": 59,
                    "time": 32.07985549999985,
                    "velocity": 0.2204724409448819,
                    "duration": 0.07113050000000243
                },
                {
                    "name": "F#3",
                    "midi": 54,
                    "time": 32.150985999999854,
                    "velocity": 0.25984251968503935,
                    "duration": 0.07113050000000243
                },
                {
                    "name": "B3",
                    "midi": 59,
                    "time": 32.222116499999856,
                    "velocity": 0.2283464566929134,
                    "duration": 0.07113050000000243
                },
                {
                    "name": "F#3",
                    "midi": 54,
                    "time": 32.29324699999986,
                    "velocity": 0.2283464566929134,
                    "duration": 0.07113050000000243
                },
                {
                    "name": "B3",
                    "midi": 59,
                    "time": 32.36437749999986,
                    "velocity": 0.2283464566929134,
                    "duration": 0.07113050000000243
                },
                {
                    "name": "F#2",
                    "midi": 42,
                    "time": 32.435507999999864,
                    "velocity": 0.25984251968503935,
                    "duration": 0.07113050000000243
                },
                {
                    "name": "B3",
                    "midi": 59,
                    "time": 32.506638499999866,
                    "velocity": 0.2204724409448819,
                    "duration": 0.07113050000000243
                },
                {
                    "name": "F#3",
                    "midi": 54,
                    "time": 32.57776899999987,
                    "velocity": 0.2204724409448819,
                    "duration": 0.07113050000000243
                },
                {
                    "name": "B3",
                    "midi": 59,
                    "time": 32.64889949999987,
                    "velocity": 0.2125984251968504,
                    "duration": 0.07113050000000243
                },
                {
                    "name": "F#3",
                    "midi": 54,
                    "time": 32.72002999999987,
                    "velocity": 0.2440944881889764,
                    "duration": 0.07113050000000243
                },
                {
                    "name": "B3",
                    "midi": 59,
                    "time": 32.791160499999876,
                    "velocity": 0.2125984251968504,
                    "duration": 0.07113050000000243
                },
                {
                    "name": "F#3",
                    "midi": 54,
                    "time": 32.86229099999988,
                    "velocity": 0.2204724409448819,
                    "duration": 0.07113050000000243
                },
                {
                    "name": "B3",
                    "midi": 59,
                    "time": 32.93342149999988,
                    "velocity": 0.2204724409448819,
                    "duration": 0.07113050000000243
                },
                {
                    "name": "F#2",
                    "midi": 42,
                    "time": 33.00455199999988,
                    "velocity": 0.25984251968503935,
                    "duration": 0.03556524999999766
                },
                {
                    "name": "A#3",
                    "midi": 58,
                    "time": 33.07568249999988,
                    "velocity": 0.2204724409448819,
                    "duration": 0.07113050000000243
                },
                {
                    "name": "F#3",
                    "midi": 54,
                    "time": 33.14681299999988,
                    "velocity": 0.2204724409448819,
                    "duration": 0.07113050000000243
                },
                {
                    "name": "A#3",
                    "midi": 58,
                    "time": 33.21794349999988,
                    "velocity": 0.2204724409448819,
                    "duration": 0.07113050000000243
                },
                {
                    "name": "F#3",
                    "midi": 54,
                    "time": 33.289073999999886,
                    "velocity": 0.25984251968503935,
                    "duration": 0.07113050000000243
                },
                {
                    "name": "A#3",
                    "midi": 58,
                    "time": 33.36020449999989,
                    "velocity": 0.2283464566929134,
                    "duration": 0.07113050000000243
                },
                {
                    "name": "F#3",
                    "midi": 54,
                    "time": 33.43133499999989,
                    "velocity": 0.2283464566929134,
                    "duration": 0.07113050000000243
                },
                {
                    "name": "A#3",
                    "midi": 58,
                    "time": 33.50246549999989,
                    "velocity": 0.2283464566929134,
                    "duration": 0.07113050000000243
                },
                {
                    "name": "F#2",
                    "midi": 42,
                    "time": 33.573595999999895,
                    "velocity": 0.25984251968503935,
                    "duration": 0.03556524999999766
                },
                {
                    "name": "A#3",
                    "midi": 58,
                    "time": 33.64472649999989,
                    "velocity": 0.2204724409448819,
                    "duration": 0.07113050000000243
                },
                {
                    "name": "F#3",
                    "midi": 54,
                    "time": 33.71585699999989,
                    "velocity": 0.2204724409448819,
                    "duration": 0.07113050000000243
                },
                {
                    "name": "A#3",
                    "midi": 58,
                    "time": 33.786987499999896,
                    "velocity": 0.2125984251968504,
                    "duration": 0.07113050000000243
                },
                {
                    "name": "F#3",
                    "midi": 54,
                    "time": 33.8581179999999,
                    "velocity": 0.2440944881889764,
                    "duration": 0.07113050000000243
                },
                {
                    "name": "A#3",
                    "midi": 58,
                    "time": 33.9292484999999,
                    "velocity": 0.2125984251968504,
                    "duration": 0.07113050000000243
                },
                {
                    "name": "F#3",
                    "midi": 54,
                    "time": 34.0003789999999,
                    "velocity": 0.2204724409448819,
                    "duration": 0.07113050000000243
                },
                {
                    "name": "A#3",
                    "midi": 58,
                    "time": 34.071509499999905,
                    "velocity": 0.2204724409448819,
                    "duration": 0.07113050000000243
                },
                {
                    "name": "F#2",
                    "midi": 42,
                    "time": 34.14263999999991,
                    "velocity": 0.25984251968503935,
                    "duration": 0.03556524999999766
                },
                {
                    "name": "B3",
                    "midi": 59,
                    "time": 34.2137704999999,
                    "velocity": 0.2204724409448819,
                    "duration": 0.07113050000000243
                },
                {
                    "name": "F#3",
                    "midi": 54,
                    "time": 34.284900999999905,
                    "velocity": 0.2204724409448819,
                    "duration": 0.07113050000000243
                },
                {
                    "name": "B3",
                    "midi": 59,
                    "time": 34.35603149999991,
                    "velocity": 0.2204724409448819,
                    "duration": 0.07113050000000243
                },
                {
                    "name": "F#3",
                    "midi": 54,
                    "time": 34.42716199999991,
                    "velocity": 0.25984251968503935,
                    "duration": 0.07113050000000243
                },
                {
                    "name": "B3",
                    "midi": 59,
                    "time": 34.49829249999991,
                    "velocity": 0.2283464566929134,
                    "duration": 0.07113050000000243
                },
                {
                    "name": "F#3",
                    "midi": 54,
                    "time": 34.569422999999915,
                    "velocity": 0.2283464566929134,
                    "duration": 0.07113050000000243
                },
                {
                    "name": "B3",
                    "midi": 59,
                    "time": 34.64055349999992,
                    "velocity": 0.2283464566929134,
                    "duration": 0.07113050000000243
                },
                {
                    "name": "F#2",
                    "midi": 42,
                    "time": 34.71168399999992,
                    "velocity": 0.25984251968503935,
                    "duration": 0.03556524999999766
                },
                {
                    "name": "B3",
                    "midi": 59,
                    "time": 34.782814499999915,
                    "velocity": 0.2204724409448819,
                    "duration": 0.07113050000000243
                },
                {
                    "name": "F#3",
                    "midi": 54,
                    "time": 34.85394499999992,
                    "velocity": 0.2204724409448819,
                    "duration": 0.07113050000000243
                },
                {
                    "name": "B3",
                    "midi": 59,
                    "time": 34.92507549999992,
                    "velocity": 0.2125984251968504,
                    "duration": 0.07113050000000243
                },
                {
                    "name": "F#3",
                    "midi": 54,
                    "time": 34.99620599999992,
                    "velocity": 0.2440944881889764,
                    "duration": 0.07113050000000243
                },
                {
                    "name": "B3",
                    "midi": 59,
                    "time": 35.067336499999925,
                    "velocity": 0.2125984251968504,
                    "duration": 0.07113050000000243
                },
                {
                    "name": "F#3",
                    "midi": 54,
                    "time": 35.13846699999993,
                    "velocity": 0.2204724409448819,
                    "duration": 0.07113050000000243
                },
                {
                    "name": "B3",
                    "midi": 59,
                    "time": 35.20959749999993,
                    "velocity": 0.2204724409448819,
                    "duration": 0.07113050000000243
                },
                {
                    "name": "F#2",
                    "midi": 42,
                    "time": 35.28072799999993,
                    "velocity": 0.25984251968503935,
                    "duration": 0.03556524999999766
                },
                {
                    "name": "A#3",
                    "midi": 58,
                    "time": 35.35185849999993,
                    "velocity": 0.2204724409448819,
                    "duration": 0.07113050000000243
                },
                {
                    "name": "F#3",
                    "midi": 54,
                    "time": 35.42298899999993,
                    "velocity": 0.2204724409448819,
                    "duration": 0.07113050000000243
                },
                {
                    "name": "A#3",
                    "midi": 58,
                    "time": 35.49411949999993,
                    "velocity": 0.2204724409448819,
                    "duration": 0.07113050000000243
                },
                {
                    "name": "F#3",
                    "midi": 54,
                    "time": 35.565249999999935,
                    "velocity": 0.25984251968503935,
                    "duration": 0.07113050000000243
                },
                {
                    "name": "A#3",
                    "midi": 58,
                    "time": 35.63638049999994,
                    "velocity": 0.2283464566929134,
                    "duration": 0.07113050000000243
                },
                {
                    "name": "F#3",
                    "midi": 54,
                    "time": 35.70751099999994,
                    "velocity": 0.2283464566929134,
                    "duration": 0.07113050000000243
                },
                {
                    "name": "A#3",
                    "midi": 58,
                    "time": 35.77864149999994,
                    "velocity": 0.2283464566929134,
                    "duration": 0.07113050000000243
                },
                {
                    "name": "F#3",
                    "midi": 54,
                    "time": 35.849771999999945,
                    "velocity": 0.25984251968503935,
                    "duration": 0.07113050000000243
                },
                {
                    "name": "A#3",
                    "midi": 58,
                    "time": 35.92090249999995,
                    "velocity": 0.2204724409448819,
                    "duration": 0.07113050000000243
                },
                {
                    "name": "F#3",
                    "midi": 54,
                    "time": 35.99203299999995,
                    "velocity": 0.2204724409448819,
                    "duration": 0.07113050000000243
                },
                {
                    "name": "A#3",
                    "midi": 58,
                    "time": 36.06316349999995,
                    "velocity": 0.2125984251968504,
                    "duration": 0.07113050000000243
                },
                {
                    "name": "F#3",
                    "midi": 54,
                    "time": 36.134293999999954,
                    "velocity": 0.2440944881889764,
                    "duration": 0.07113050000000243
                },
                {
                    "name": "A#3",
                    "midi": 58,
                    "time": 36.20542449999996,
                    "velocity": 0.2125984251968504,
                    "duration": 0.07113050000000243
                },
                {
                    "name": "F#3",
                    "midi": 54,
                    "time": 36.27655499999996,
                    "velocity": 0.2204724409448819,
                    "duration": 0.07113050000000243
                },
                {
                    "name": "A#3",
                    "midi": 58,
                    "time": 36.34768549999996,
                    "velocity": 0.2204724409448819,
                    "duration": 0.07113050000000243
                },
                {
                    "name": "F#2",
                    "midi": 42,
                    "time": 36.418815999999964,
                    "velocity": 0.25984251968503935,
                    "duration": 0.03556524999999766
                },
                {
                    "name": "A#3",
                    "midi": 58,
                    "time": 36.48994649999996,
                    "velocity": 0.2204724409448819,
                    "duration": 0.07113050000000243
                },
                {
                    "name": "F#3",
                    "midi": 54,
                    "time": 36.56107699999996,
                    "velocity": 0.2204724409448819,
                    "duration": 0.07113050000000243
                },
                {
                    "name": "A#3",
                    "midi": 58,
                    "time": 36.632207499999964,
                    "velocity": 0.2204724409448819,
                    "duration": 0.07113050000000243
                },
                {
                    "name": "F#3",
                    "midi": 54,
                    "time": 36.70333799999997,
                    "velocity": 0.25984251968503935,
                    "duration": 0.07113050000000243
                },
                {
                    "name": "A#3",
                    "midi": 58,
                    "time": 36.77446849999997,
                    "velocity": 0.2283464566929134,
                    "duration": 0.07113050000000243
                },
                {
                    "name": "F#3",
                    "midi": 54,
                    "time": 36.84559899999997,
                    "velocity": 0.2283464566929134,
                    "duration": 0.07113050000000243
                },
                {
                    "name": "A#3",
                    "midi": 58,
                    "time": 36.916729499999974,
                    "velocity": 0.2283464566929134,
                    "duration": 0.07113050000000243
                },
                {
                    "name": "F#3",
                    "midi": 54,
                    "time": 36.987859999999976,
                    "velocity": 0.25984251968503935,
                    "duration": 0.07113050000000243
                },
                {
                    "name": "A#3",
                    "midi": 58,
                    "time": 37.05899049999998,
                    "velocity": 0.2204724409448819,
                    "duration": 0.07113050000000243
                },
                {
                    "name": "F#3",
                    "midi": 54,
                    "time": 37.13012099999998,
                    "velocity": 0.2204724409448819,
                    "duration": 0.07113050000000243
                },
                {
                    "name": "A#3",
                    "midi": 58,
                    "time": 37.201251499999984,
                    "velocity": 0.2125984251968504,
                    "duration": 0.07113050000000243
                },
                {
                    "name": "F#3",
                    "midi": 54,
                    "time": 37.272381999999986,
                    "velocity": 0.2440944881889764,
                    "duration": 0.07113050000000243
                },
                {
                    "name": "A#3",
                    "midi": 58,
                    "time": 37.34351249999999,
                    "velocity": 0.2125984251968504,
                    "duration": 0.07113050000000243
                },
                {
                    "name": "F#3",
                    "midi": 54,
                    "time": 37.41464299999999,
                    "velocity": 0.2204724409448819,
                    "duration": 0.07113050000000243
                },
                {
                    "name": "A#3",
                    "midi": 58,
                    "time": 37.48577349999999,
                    "velocity": 0.2204724409448819,
                    "duration": 0.07113050000000243
                },
                {
                    "name": "F#3",
                    "midi": 54,
                    "time": 37.556903999999996,
                    "velocity": 0.25984251968503935,
                    "duration": 0.07113050000000243
                },
                {
                    "name": "A#3",
                    "midi": 58,
                    "time": 37.6280345,
                    "velocity": 0.2204724409448819,
                    "duration": 0.07113050000000243
                },
                {
                    "name": "F#3",
                    "midi": 54,
                    "time": 37.699165,
                    "velocity": 0.2204724409448819,
                    "duration": 0.07113050000000243
                },
                {
                    "name": "A#3",
                    "midi": 58,
                    "time": 37.7702955,
                    "velocity": 0.2204724409448819,
                    "duration": 0.07113050000000243
                },
                {
                    "name": "F#3",
                    "midi": 54,
                    "time": 37.841426000000006,
                    "velocity": 0.25984251968503935,
                    "duration": 0.07113050000000243
                },
                {
                    "name": "A#3",
                    "midi": 58,
                    "time": 37.91255650000001,
                    "velocity": 0.2283464566929134,
                    "duration": 0.07113050000000243
                },
                {
                    "name": "F#3",
                    "midi": 54,
                    "time": 37.98368700000001,
                    "velocity": 0.2283464566929134,
                    "duration": 0.07113050000000243
                },
                {
                    "name": "A#3",
                    "midi": 58,
                    "time": 38.05481750000001,
                    "velocity": 0.23622047244094488,
                    "duration": 0.07113050000000243
                },
                {
                    "name": "F#3",
                    "midi": 54,
                    "time": 38.125948000000015,
                    "velocity": 0.2677165354330709,
                    "duration": 0.07113050000000243
                },
                {
                    "name": "A#3",
                    "midi": 58,
                    "time": 38.19707850000002,
                    "velocity": 0.2283464566929134,
                    "duration": 0.07113050000000243
                },
                {
                    "name": "F#3",
                    "midi": 54,
                    "time": 38.26820900000002,
                    "velocity": 0.2283464566929134,
                    "duration": 0.07113050000000243
                },
                {
                    "name": "A#3",
                    "midi": 58,
                    "time": 38.33933950000002,
                    "velocity": 0.2204724409448819,
                    "duration": 0.07113050000000243
                },
                {
                    "name": "F#3",
                    "midi": 54,
                    "time": 38.410470000000025,
                    "velocity": 0.25984251968503935,
                    "duration": 0.07113050000000243
                },
                {
                    "name": "A#3",
                    "midi": 58,
                    "time": 38.48160050000003,
                    "velocity": 0.2283464566929134,
                    "duration": 0.07113050000000243
                },
                {
                    "name": "F#3",
                    "midi": 54,
                    "time": 38.55273100000003,
                    "velocity": 0.23622047244094488,
                    "duration": 0.07113050000000243
                },
                {
                    "name": "A#3",
                    "midi": 58,
                    "time": 38.62386150000003,
                    "velocity": 0.23622047244094488,
                    "duration": 0.07113050000000243
                },
                {
                    "name": "F#2",
                    "midi": 42,
                    "time": 38.694992000000035,
                    "velocity": 0.2677165354330709,
                    "duration": 0.0948406666666699
                },
                {
                    "name": "F#3",
                    "midi": 54,
                    "time": 38.789832666666705,
                    "velocity": 0.2440944881889764,
                    "duration": 0.09009863333333357
                },
                {
                    "name": "F#3",
                    "midi": 54,
                    "time": 38.884673333333375,
                    "velocity": 0.2440944881889764,
                    "duration": 0.09009863333333357
                },
                {
                    "name": "F#2",
                    "midi": 42,
                    "time": 38.884673333333375,
                    "velocity": 0.1968503937007874,
                    "duration": 0.09009863333333357
                },
                {
                    "name": "F#2",
                    "midi": 42,
                    "time": 38.979514000000044,
                    "velocity": 0.2283464566929134,
                    "duration": 0.09009863333333357
                },
                {
                    "name": "F#3",
                    "midi": 54,
                    "time": 38.979514000000044,
                    "velocity": 0.2755905511811024,
                    "duration": 0.09009863333333357
                },
                {
                    "name": "F#2",
                    "midi": 42,
                    "time": 39.074354666666714,
                    "velocity": 0.1968503937007874,
                    "duration": 0.09009863333333357
                },
                {
                    "name": "F#3",
                    "midi": 54,
                    "time": 39.074354666666714,
                    "velocity": 0.2440944881889764,
                    "duration": 0.09009863333333357
                },
                {
                    "name": "F#2",
                    "midi": 42,
                    "time": 39.169195333333384,
                    "velocity": 0.2125984251968504,
                    "duration": 0.09009863333333357
                },
                {
                    "name": "F#3",
                    "midi": 54,
                    "time": 39.169195333333384,
                    "velocity": 0.25984251968503935,
                    "duration": 0.09009863333333357
                },
                {
                    "name": "F#3",
                    "midi": 54,
                    "time": 39.264036000000054,
                    "velocity": 0.29133858267716534,
                    "duration": 0.09009863333333357
                },
                {
                    "name": "F#2",
                    "midi": 42,
                    "time": 39.264036000000054,
                    "velocity": 0.2440944881889764,
                    "duration": 0.09009863333333357
                },
                {
                    "name": "F#2",
                    "midi": 42,
                    "time": 39.358876666666724,
                    "velocity": 0.2283464566929134,
                    "duration": 0.09009863333333357
                },
                {
                    "name": "F#3",
                    "midi": 54,
                    "time": 39.358876666666724,
                    "velocity": 0.2755905511811024,
                    "duration": 0.09009863333333357
                },
                {
                    "name": "F#2",
                    "midi": 42,
                    "time": 39.453717333333394,
                    "velocity": 0.2283464566929134,
                    "duration": 0.09009863333333357
                },
                {
                    "name": "F#3",
                    "midi": 54,
                    "time": 39.453717333333394,
                    "velocity": 0.2755905511811024,
                    "duration": 0.09009863333333357
                },
                {
                    "name": "C#3",
                    "midi": 49,
                    "time": 39.548558000000064,
                    "velocity": 0.25196850393700787,
                    "duration": 0.09009863333333357
                },
                {
                    "name": "F#3",
                    "midi": 54,
                    "time": 39.548558000000064,
                    "velocity": 0.2992125984251969,
                    "duration": 0.09009863333333357
                },
                {
                    "name": "F#2",
                    "midi": 42,
                    "time": 39.548558000000064,
                    "velocity": 0.25196850393700787,
                    "duration": 0.09009863333333357
                },
                {
                    "name": "F#2",
                    "midi": 42,
                    "time": 39.643398666666734,
                    "velocity": 0.2204724409448819,
                    "duration": 0.09009863333333357
                },
                {
                    "name": "F#3",
                    "midi": 54,
                    "time": 39.643398666666734,
                    "velocity": 0.2755905511811024,
                    "duration": 0.09009863333333357
                },
                {
                    "name": "C#3",
                    "midi": 49,
                    "time": 39.643398666666734,
                    "velocity": 0.25196850393700787,
                    "duration": 0.09009863333333357
                },
                {
                    "name": "F#2",
                    "midi": 42,
                    "time": 39.738239333333404,
                    "velocity": 0.2283464566929134,
                    "duration": 0.09009863333333357
                },
                {
                    "name": "C#3",
                    "midi": 49,
                    "time": 39.738239333333404,
                    "velocity": 0.25984251968503935,
                    "duration": 0.09009863333333357
                },
                {
                    "name": "F#3",
                    "midi": 54,
                    "time": 39.738239333333404,
                    "velocity": 0.2755905511811024,
                    "duration": 0.09009863333333357
                },
                {
                    "name": "F#2",
                    "midi": 42,
                    "time": 39.83308000000007,
                    "velocity": 0.25984251968503935,
                    "duration": 0.09009863333333357
                },
                {
                    "name": "C#3",
                    "midi": 49,
                    "time": 39.83308000000007,
                    "velocity": 0.25984251968503935,
                    "duration": 0.09009863333333357
                },
                {
                    "name": "F#3",
                    "midi": 54,
                    "time": 39.83308000000007,
                    "velocity": 0.31496062992125984,
                    "duration": 0.09009863333333357
                },
                {
                    "name": "F#2",
                    "midi": 42,
                    "time": 39.92792066666674,
                    "velocity": 0.23622047244094488,
                    "duration": 0.09009863333333357
                },
                {
                    "name": "F#3",
                    "midi": 54,
                    "time": 39.92792066666674,
                    "velocity": 0.28346456692913385,
                    "duration": 0.09009863333333357
                },
                {
                    "name": "C#3",
                    "midi": 49,
                    "time": 39.92792066666674,
                    "velocity": 0.2677165354330709,
                    "duration": 0.09009863333333357
                },
                {
                    "name": "C#3",
                    "midi": 49,
                    "time": 40.02276133333341,
                    "velocity": 0.2755905511811024,
                    "duration": 0.09009863333333357
                },
                {
                    "name": "F#3",
                    "midi": 54,
                    "time": 40.02276133333341,
                    "velocity": 0.29133858267716534,
                    "duration": 0.09009863333333357
                },
                {
                    "name": "F#2",
                    "midi": 42,
                    "time": 40.02276133333341,
                    "velocity": 0.23622047244094488,
                    "duration": 0.09009863333333357
                },
                {
                    "name": "F#2",
                    "midi": 42,
                    "time": 40.11760200000008,
                    "velocity": 0.28346456692913385,
                    "duration": 0.09009863333333357
                },
                {
                    "name": "C#3",
                    "midi": 49,
                    "time": 40.11760200000008,
                    "velocity": 0.28346456692913385,
                    "duration": 0.09009863333333357
                },
                {
                    "name": "F#3",
                    "midi": 54,
                    "time": 40.11760200000008,
                    "velocity": 0.3464566929133858,
                    "duration": 0.09009863333333357
                },
                {
                    "name": "F#2",
                    "midi": 42,
                    "time": 40.21244266666675,
                    "velocity": 0.25984251968503935,
                    "duration": 0.09009863333333357
                },
                {
                    "name": "F#3",
                    "midi": 54,
                    "time": 40.21244266666675,
                    "velocity": 0.31496062992125984,
                    "duration": 0.09009863333333357
                },
                {
                    "name": "C#3",
                    "midi": 49,
                    "time": 40.21244266666675,
                    "velocity": 0.29133858267716534,
                    "duration": 0.09009863333333357
                },
                {
                    "name": "C#3",
                    "midi": 49,
                    "time": 40.30728333333342,
                    "velocity": 0.30708661417322836,
                    "duration": 0.09009863333333357
                },
                {
                    "name": "F#3",
                    "midi": 54,
                    "time": 40.30728333333342,
                    "velocity": 0.33070866141732286,
                    "duration": 0.09009863333333357
                },
                {
                    "name": "F#2",
                    "midi": 42,
                    "time": 40.30728333333342,
                    "velocity": 0.2677165354330709,
                    "duration": 0.09009863333333357
                },
                {
                    "name": "F#2",
                    "midi": 42,
                    "time": 40.40212400000009,
                    "velocity": 0.31496062992125984,
                    "duration": 0.09009863333333357
                },
                {
                    "name": "C#3",
                    "midi": 49,
                    "time": 40.40212400000009,
                    "velocity": 0.31496062992125984,
                    "duration": 0.09009863333333357
                },
                {
                    "name": "F#3",
                    "midi": 54,
                    "time": 40.40212400000009,
                    "velocity": 0.3779527559055118,
                    "duration": 0.09009863333333357
                },
                {
                    "name": "F#2",
                    "midi": 42,
                    "time": 40.49696466666676,
                    "velocity": 0.29133858267716534,
                    "duration": 0.09009863333333357
                },
                {
                    "name": "F#3",
                    "midi": 54,
                    "time": 40.49696466666676,
                    "velocity": 0.3464566929133858,
                    "duration": 0.09009863333333357
                },
                {
                    "name": "C#3",
                    "midi": 49,
                    "time": 40.49696466666676,
                    "velocity": 0.3228346456692913,
                    "duration": 0.09009863333333357
                },
                {
                    "name": "C#3",
                    "midi": 49,
                    "time": 40.59180533333343,
                    "velocity": 0.33858267716535434,
                    "duration": 0.09009863333333357
                },
                {
                    "name": "F#3",
                    "midi": 54,
                    "time": 40.59180533333343,
                    "velocity": 0.36220472440944884,
                    "duration": 0.09009863333333357
                },
                {
                    "name": "F#2",
                    "midi": 42,
                    "time": 40.59180533333343,
                    "velocity": 0.29133858267716534,
                    "duration": 0.09009863333333357
                },
                {
                    "name": "F2",
                    "midi": 41,
                    "time": 40.6866460000001,
                    "velocity": 0.3779527559055118,
                    "duration": 0.09009863333333357
                },
                {
                    "name": "D3",
                    "midi": 50,
                    "time": 40.6866460000001,
                    "velocity": 0.3779527559055118,
                    "duration": 0.09009863333333357
                },
                {
                    "name": "F3",
                    "midi": 53,
                    "time": 40.6866460000001,
                    "velocity": 0.44881889763779526,
                    "duration": 0.09009863333333357
                },
                {
                    "name": "F2",
                    "midi": 41,
                    "time": 40.78148666666677,
                    "velocity": 0.33070866141732286,
                    "duration": 0.09009863333333357
                },
                {
                    "name": "D3",
                    "midi": 50,
                    "time": 40.78148666666677,
                    "velocity": 0.3779527559055118,
                    "duration": 0.09009863333333357
                },
                {
                    "name": "F3",
                    "midi": 53,
                    "time": 40.78148666666677,
                    "velocity": 0.4094488188976378,
                    "duration": 0.09009863333333357
                },
                {
                    "name": "F3",
                    "midi": 53,
                    "time": 40.87632733333344,
                    "velocity": 0.4094488188976378,
                    "duration": 0.09009863333333357
                },
                {
                    "name": "D3",
                    "midi": 50,
                    "time": 40.87632733333344,
                    "velocity": 0.3779527559055118,
                    "duration": 0.09009863333333357
                },
                {
                    "name": "F2",
                    "midi": 41,
                    "time": 40.87632733333344,
                    "velocity": 0.33070866141732286,
                    "duration": 0.09009863333333357
                },
                {
                    "name": "D3",
                    "midi": 50,
                    "time": 40.97116800000011,
                    "velocity": 0.49606299212598426,
                    "duration": 0.0948406666666699
                },
                {
                    "name": "F2",
                    "midi": 41,
                    "time": 40.97116800000011,
                    "velocity": 0.49606299212598426,
                    "duration": 0.2845220000000097
                },
                {
                    "name": "F3",
                    "midi": 53,
                    "time": 41.06600866666678,
                    "velocity": 0.4566929133858268,
                    "duration": 0.0948406666666699
                },
                {
                    "name": "F3",
                    "midi": 53,
                    "time": 41.16084933333345,
                    "velocity": 0.4566929133858268,
                    "duration": 0.04742033333333495
                },
                {
                    "name": "C3",
                    "midi": 48,
                    "time": 41.25569000000012,
                    "velocity": 0.4881889763779528,
                    "duration": 0.0948406666666699
                },
                {
                    "name": "F2",
                    "midi": 41,
                    "time": 41.25569000000012,
                    "velocity": 0.4881889763779528,
                    "duration": 0.2845220000000097
                },
                {
                    "name": "F3",
                    "midi": 53,
                    "time": 41.35053066666679,
                    "velocity": 0.4566929133858268,
                    "duration": 0.0948406666666699
                },
                {
                    "name": "F3",
                    "midi": 53,
                    "time": 41.44537133333346,
                    "velocity": 0.4566929133858268,
                    "duration": 0.04742033333333495
                },
                {
                    "name": "F2",
                    "midi": 41,
                    "time": 41.54021200000013,
                    "velocity": 0.47244094488188976,
                    "duration": 0.2845220000000097
                },
                {
                    "name": "D3",
                    "midi": 50,
                    "time": 41.54021200000013,
                    "velocity": 0.47244094488188976,
                    "duration": 0.0948406666666699
                },
                {
                    "name": "F3",
                    "midi": 53,
                    "time": 41.6350526666668,
                    "velocity": 0.4566929133858268,
                    "duration": 0.0948406666666699
                },
                {
                    "name": "F3",
                    "midi": 53,
                    "time": 41.72989333333347,
                    "velocity": 0.4566929133858268,
                    "duration": 0.04742033333333495
                },
                {
                    "name": "F2",
                    "midi": 41,
                    "time": 41.82473400000014,
                    "velocity": 0.48031496062992124,
                    "duration": 0.2845220000000097
                },
                {
                    "name": "D#3",
                    "midi": 51,
                    "time": 41.82473400000014,
                    "velocity": 0.48031496062992124,
                    "duration": 0.0948406666666699
                },
                {
                    "name": "F3",
                    "midi": 53,
                    "time": 41.91957466666681,
                    "velocity": 0.4566929133858268,
                    "duration": 0.0948406666666699
                },
                {
                    "name": "F3",
                    "midi": 53,
                    "time": 42.01441533333348,
                    "velocity": 0.4566929133858268,
                    "duration": 0.04742033333333495
                },
                {
                    "name": "F2",
                    "midi": 41,
                    "time": 42.10925600000015,
                    "velocity": 0.47244094488188976,
                    "duration": 0.8535660000000291
                },
                {
                    "name": "E3",
                    "midi": 52,
                    "time": 42.10925600000015,
                    "velocity": 0.47244094488188976,
                    "duration": 0.0948406666666699
                },
                {
                    "name": "F3",
                    "midi": 53,
                    "time": 42.20409666666682,
                    "velocity": 0.4566929133858268,
                    "duration": 0.0948406666666699
                },
                {
                    "name": "F3",
                    "midi": 53,
                    "time": 42.29893733333349,
                    "velocity": 0.4566929133858268,
                    "duration": 0.04742033333333495
                },
                {
                    "name": "F3",
                    "midi": 53,
                    "time": 42.39377800000016,
                    "velocity": 0.47244094488188976,
                    "duration": 0.0948406666666699
                },
                {
                    "name": "F3",
                    "midi": 53,
                    "time": 42.48861866666683,
                    "velocity": 0.4566929133858268,
                    "duration": 0.0948406666666699
                },
                {
                    "name": "F3",
                    "midi": 53,
                    "time": 42.5834593333335,
                    "velocity": 0.4566929133858268,
                    "duration": 0.04742033333333495
                },
                {
                    "name": "F3",
                    "midi": 53,
                    "time": 42.67830000000017,
                    "velocity": 0.4881889763779528,
                    "duration": 0.09009863333333357
                },
                {
                    "name": "F3",
                    "midi": 53,
                    "time": 42.77314066666684,
                    "velocity": 0.4566929133858268,
                    "duration": 0.09009863333333357
                },
                {
                    "name": "F3",
                    "midi": 53,
                    "time": 42.86798133333351,
                    "velocity": 0.4566929133858268,
                    "duration": 0.09009863333333357
                },
                {
                    "name": "D#3",
                    "midi": 51,
                    "time": 42.96282200000018,
                    "velocity": 0.48031496062992124,
                    "duration": 0.0948406666666699
                },
                {
                    "name": "F2",
                    "midi": 41,
                    "time": 42.96282200000018,
                    "velocity": 0.4330708661417323,
                    "duration": 0.2845220000000097
                },
                {
                    "name": "F3",
                    "midi": 53,
                    "time": 43.05766266666685,
                    "velocity": 0.41732283464566927,
                    "duration": 0.0948406666666699
                },
                {
                    "name": "D3",
                    "midi": 50,
                    "time": 43.15250333333352,
                    "velocity": 0.41732283464566927,
                    "duration": 0.0948406666666699
                },
                {
                    "name": "D#3",
                    "midi": 51,
                    "time": 43.24734400000019,
                    "velocity": 0.47244094488188976,
                    "duration": 0.0948406666666699
                },
                {
                    "name": "F2",
                    "midi": 41,
                    "time": 43.24734400000019,
                    "velocity": 0.47244094488188976,
                    "duration": 0.2845220000000097
                },
                {
                    "name": "F3",
                    "midi": 53,
                    "time": 43.34218466666686,
                    "velocity": 0.4330708661417323,
                    "duration": 0.09009863333333357
                },
                {
                    "name": "F3",
                    "midi": 53,
                    "time": 43.43702533333353,
                    "velocity": 0.4330708661417323,
                    "duration": 0.09009863333333357
                },
                {
                    "name": "F2",
                    "midi": 41,
                    "time": 43.5318660000002,
                    "velocity": 0.47244094488188976,
                    "duration": 0.2845220000000097
                },
                {
                    "name": "D#3",
                    "midi": 51,
                    "time": 43.5318660000002,
                    "velocity": 0.47244094488188976,
                    "duration": 0.0948406666666699
                },
                {
                    "name": "F3",
                    "midi": 53,
                    "time": 43.62670666666687,
                    "velocity": 0.4409448818897638,
                    "duration": 0.09009863333333357
                },
                {
                    "name": "F3",
                    "midi": 53,
                    "time": 43.72154733333354,
                    "velocity": 0.4409448818897638,
                    "duration": 0.09009863333333357
                },
                {
                    "name": "F2",
                    "midi": 41,
                    "time": 43.81638800000021,
                    "velocity": 0.4881889763779528,
                    "duration": 0.2845220000000097
                },
                {
                    "name": "D#3",
                    "midi": 51,
                    "time": 43.81638800000021,
                    "velocity": 0.4881889763779528,
                    "duration": 0.0948406666666699
                },
                {
                    "name": "F3",
                    "midi": 53,
                    "time": 43.91122866666688,
                    "velocity": 0.4566929133858268,
                    "duration": 0.09009863333333357
                },
                {
                    "name": "F3",
                    "midi": 53,
                    "time": 44.00606933333355,
                    "velocity": 0.4566929133858268,
                    "duration": 0.09009863333333357
                },
                {
                    "name": "F2",
                    "midi": 41,
                    "time": 44.10091000000022,
                    "velocity": 0.4881889763779528,
                    "duration": 0.2845220000000097
                },
                {
                    "name": "D3",
                    "midi": 50,
                    "time": 44.10091000000022,
                    "velocity": 0.4881889763779528,
                    "duration": 0.0948406666666699
                },
                {
                    "name": "F3",
                    "midi": 53,
                    "time": 44.19575066666689,
                    "velocity": 0.4645669291338583,
                    "duration": 0.0948406666666699
                },
                {
                    "name": "C3",
                    "midi": 48,
                    "time": 44.29059133333356,
                    "velocity": 0.4645669291338583,
                    "duration": 0.0948406666666699
                },
                {
                    "name": "D3",
                    "midi": 50,
                    "time": 44.38543200000023,
                    "velocity": 0.4881889763779528,
                    "duration": 0.0948406666666699
                },
                {
                    "name": "A#2",
                    "midi": 46,
                    "time": 44.38543200000023,
                    "velocity": 0.4881889763779528,
                    "duration": 0.8535660000000291
                },
                {
                    "name": "F3",
                    "midi": 53,
                    "time": 44.4802726666669,
                    "velocity": 0.4409448818897638,
                    "duration": 0.09009863333333357
                },
                {
                    "name": "F3",
                    "midi": 53,
                    "time": 44.57511333333357,
                    "velocity": 0.4409448818897638,
                    "duration": 0.09009863333333357
                },
                {
                    "name": "D#3",
                    "midi": 51,
                    "time": 44.66995400000024,
                    "velocity": 0.47244094488188976,
                    "duration": 0.0948406666666699
                },
                {
                    "name": "G3",
                    "midi": 55,
                    "time": 44.76479466666691,
                    "velocity": 0.4409448818897638,
                    "duration": 0.09009863333333357
                },
                {
                    "name": "G3",
                    "midi": 55,
                    "time": 44.85963533333358,
                    "velocity": 0.4409448818897638,
                    "duration": 0.09009863333333357
                },
                {
                    "name": "D3",
                    "midi": 50,
                    "time": 44.95447600000025,
                    "velocity": 0.47244094488188976,
                    "duration": 0.0948406666666699
                },
                {
                    "name": "F3",
                    "midi": 53,
                    "time": 45.04931666666692,
                    "velocity": 0.4409448818897638,
                    "duration": 0.09009863333333357
                },
                {
                    "name": "F3",
                    "midi": 53,
                    "time": 45.14415733333359,
                    "velocity": 0.44881889763779526,
                    "duration": 0.09009863333333357
                },
                {
                    "name": "G#2",
                    "midi": 44,
                    "time": 45.23899800000026,
                    "velocity": 0.4645669291338583,
                    "duration": 0.2845220000000097
                },
                {
                    "name": "D3",
                    "midi": 50,
                    "time": 45.23899800000026,
                    "velocity": 0.4645669291338583,
                    "duration": 0.0948406666666699
                },
                {
                    "name": "F3",
                    "midi": 53,
                    "time": 45.33383866666693,
                    "velocity": 0.4251968503937008,
                    "duration": 0.09009863333333357
                },
                {
                    "name": "F3",
                    "midi": 53,
                    "time": 45.4286793333336,
                    "velocity": 0.4251968503937008,
                    "duration": 0.09009863333333357
                },
                {
                    "name": "G2",
                    "midi": 43,
                    "time": 45.52352000000027,
                    "velocity": 0.4645669291338583,
                    "duration": 0.8535660000000291
                },
                {
                    "name": "F3",
                    "midi": 53,
                    "time": 45.52352000000027,
                    "velocity": 0.4645669291338583,
                    "duration": 0.0948406666666699
                },
                {
                    "name": "G3",
                    "midi": 55,
                    "time": 45.61836066666694,
                    "velocity": 0.41732283464566927,
                    "duration": 0.09009863333333357
                },
                {
                    "name": "G3",
                    "midi": 55,
                    "time": 45.71320133333361,
                    "velocity": 0.41732283464566927,
                    "duration": 0.09009863333333357
                },
                {
                    "name": "F3",
                    "midi": 53,
                    "time": 45.80804200000028,
                    "velocity": 0.4409448818897638,
                    "duration": 0.0948406666666699
                },
                {
                    "name": "G3",
                    "midi": 55,
                    "time": 45.90288266666695,
                    "velocity": 0.41732283464566927,
                    "duration": 0.09009863333333357
                },
                {
                    "name": "G3",
                    "midi": 55,
                    "time": 45.99772333333362,
                    "velocity": 0.41732283464566927,
                    "duration": 0.09009863333333357
                },
                {
                    "name": "F3",
                    "midi": 53,
                    "time": 46.09256400000029,
                    "velocity": 0.44881889763779526,
                    "duration": 0.0948406666666699
                },
                {
                    "name": "G3",
                    "midi": 55,
                    "time": 46.18740466666696,
                    "velocity": 0.4015748031496063,
                    "duration": 0.09009863333333357
                },
                {
                    "name": "G3",
                    "midi": 55,
                    "time": 46.28224533333363,
                    "velocity": 0.4015748031496063,
                    "duration": 0.09009863333333357
                },
                {
                    "name": "D#3",
                    "midi": 51,
                    "time": 46.3770860000003,
                    "velocity": 0.4409448818897638,
                    "duration": 0.0948406666666699
                },
                {
                    "name": "G2",
                    "midi": 43,
                    "time": 46.3770860000003,
                    "velocity": 0.4409448818897638,
                    "duration": 0.2845220000000097
                },
                {
                    "name": "G3",
                    "midi": 55,
                    "time": 46.47192666666697,
                    "velocity": 0.4015748031496063,
                    "duration": 0.0948406666666699
                },
                {
                    "name": "D3",
                    "midi": 50,
                    "time": 46.56676733333364,
                    "velocity": 0.4015748031496063,
                    "duration": 0.0948406666666699
                },
                {
                    "name": "G2",
                    "midi": 43,
                    "time": 46.66160800000031,
                    "velocity": 0.4251968503937008,
                    "duration": 0.2845220000000097
                },
                {
                    "name": "C3",
                    "midi": 48,
                    "time": 46.66160800000031,
                    "velocity": 0.4251968503937008,
                    "duration": 0.0948406666666699
                },
                {
                    "name": "G3",
                    "midi": 55,
                    "time": 46.75644866666698,
                    "velocity": 0.3937007874015748,
                    "duration": 0.09009863333333357
                },
                {
                    "name": "G3",
                    "midi": 55,
                    "time": 46.851289333333646,
                    "velocity": 0.3937007874015748,
                    "duration": 0.09009863333333357
                },
                {
                    "name": "G2",
                    "midi": 43,
                    "time": 46.946130000000316,
                    "velocity": 0.4251968503937008,
                    "duration": 0.2845220000000097
                },
                {
                    "name": "F3",
                    "midi": 53,
                    "time": 46.946130000000316,
                    "velocity": 0.4251968503937008,
                    "duration": 0.0948406666666699
                },
                {
                    "name": "G3",
                    "midi": 55,
                    "time": 47.040970666666986,
                    "velocity": 0.3937007874015748,
                    "duration": 0.09009863333333357
                },
                {
                    "name": "G3",
                    "midi": 55,
                    "time": 47.135811333333656,
                    "velocity": 0.3937007874015748,
                    "duration": 0.09009863333333357
                },
                {
                    "name": "G2",
                    "midi": 43,
                    "time": 47.230652000000326,
                    "velocity": 0.4330708661417323,
                    "duration": 0.2845220000000097
                },
                {
                    "name": "D#3",
                    "midi": 51,
                    "time": 47.230652000000326,
                    "velocity": 0.4330708661417323,
                    "duration": 0.0948406666666699
                },
                {
                    "name": "G3",
                    "midi": 55,
                    "time": 47.325492666666996,
                    "velocity": 0.3937007874015748,
                    "duration": 0.09009863333333357
                },
                {
                    "name": "G3",
                    "midi": 55,
                    "time": 47.420333333333666,
                    "velocity": 0.3937007874015748,
                    "duration": 0.09009863333333357
                },
                {
                    "name": "F#2",
                    "midi": 42,
                    "time": 47.515174000000336,
                    "velocity": 0.44881889763779526,
                    "duration": 0.2845220000000097
                },
                {
                    "name": "D#3",
                    "midi": 51,
                    "time": 47.515174000000336,
                    "velocity": 0.44881889763779526,
                    "duration": 0.0948406666666699
                },
                {
                    "name": "F#3",
                    "midi": 54,
                    "time": 47.610014666667006,
                    "velocity": 0.4094488188976378,
                    "duration": 0.09009863333333357
                },
                {
                    "name": "F#3",
                    "midi": 54,
                    "time": 47.704855333333676,
                    "velocity": 0.4094488188976378,
                    "duration": 0.09009863333333357
                },
                {
                    "name": "D#3",
                    "midi": 51,
                    "time": 47.799696000000345,
                    "velocity": 0.4566929133858268,
                    "duration": 0.0948406666666699
                },
                {
                    "name": "F2",
                    "midi": 41,
                    "time": 47.799696000000345,
                    "velocity": 0.4566929133858268,
                    "duration": 0.8535660000000291
                },
                {
                    "name": "F3",
                    "midi": 53,
                    "time": 47.894536666667015,
                    "velocity": 0.4094488188976378,
                    "duration": 0.09009863333333357
                },
                {
                    "name": "F3",
                    "midi": 53,
                    "time": 47.989377333333685,
                    "velocity": 0.4094488188976378,
                    "duration": 0.09009863333333357
                },
                {
                    "name": "D#3",
                    "midi": 51,
                    "time": 48.084218000000355,
                    "velocity": 0.4409448818897638,
                    "duration": 0.0948406666666699
                },
                {
                    "name": "F3",
                    "midi": 53,
                    "time": 48.179058666667025,
                    "velocity": 0.4094488188976378,
                    "duration": 0.09009863333333357
                },
                {
                    "name": "F3",
                    "midi": 53,
                    "time": 48.273899333333695,
                    "velocity": 0.41732283464566927,
                    "duration": 0.09009863333333357
                },
                {
                    "name": "D#3",
                    "midi": 51,
                    "time": 48.368740000000365,
                    "velocity": 0.44881889763779526,
                    "duration": 0.0948406666666699
                },
                {
                    "name": "F3",
                    "midi": 53,
                    "time": 48.463580666667035,
                    "velocity": 0.4094488188976378,
                    "duration": 0.09009863333333357
                },
                {
                    "name": "F3",
                    "midi": 53,
                    "time": 48.558421333333705,
                    "velocity": 0.4094488188976378,
                    "duration": 0.09009863333333357
                },
                {
                    "name": "D3",
                    "midi": 50,
                    "time": 48.653262000000375,
                    "velocity": 0.44881889763779526,
                    "duration": 0.0948406666666699
                },
                {
                    "name": "F2",
                    "midi": 41,
                    "time": 48.653262000000375,
                    "velocity": 0.44881889763779526,
                    "duration": 0.2845220000000097
                },
                {
                    "name": "F3",
                    "midi": 53,
                    "time": 48.748102666667045,
                    "velocity": 0.4251968503937008,
                    "duration": 0.0948406666666699
                },
                {
                    "name": "C3",
                    "midi": 48,
                    "time": 48.842943333333714,
                    "velocity": 0.4015748031496063,
                    "duration": 0.0948406666666699
                },
                {
                    "name": "A#2",
                    "midi": 46,
                    "time": 48.937784000000384,
                    "velocity": 0.4566929133858268,
                    "duration": 0.0948406666666699
                },
                {
                    "name": "F2",
                    "midi": 41,
                    "time": 48.937784000000384,
                    "velocity": 0.4566929133858268,
                    "duration": 0.2845220000000097
                },
                {
                    "name": "F3",
                    "midi": 53,
                    "time": 49.032624666667054,
                    "velocity": 0.41732283464566927,
                    "duration": 0.09009863333333357
                },
                {
                    "name": "F3",
                    "midi": 53,
                    "time": 49.127465333333724,
                    "velocity": 0.41732283464566927,
                    "duration": 0.09009863333333357
                },
                {
                    "name": "C3",
                    "midi": 48,
                    "time": 49.222306000000394,
                    "velocity": 0.4566929133858268,
                    "duration": 0.0948406666666699
                },
                {
                    "name": "F2",
                    "midi": 41,
                    "time": 49.222306000000394,
                    "velocity": 0.4566929133858268,
                    "duration": 0.2845220000000097
                },
                {
                    "name": "F3",
                    "midi": 53,
                    "time": 49.317146666667064,
                    "velocity": 0.4094488188976378,
                    "duration": 0.09009863333333357
                },
                {
                    "name": "F3",
                    "midi": 53,
                    "time": 49.411987333333734,
                    "velocity": 0.4094488188976378,
                    "duration": 0.09009863333333357
                },
                {
                    "name": "F2",
                    "midi": 41,
                    "time": 49.506828000000404,
                    "velocity": 0.4409448818897638,
                    "duration": 0.2845220000000097
                },
                {
                    "name": "D3",
                    "midi": 50,
                    "time": 49.506828000000404,
                    "velocity": 0.4409448818897638,
                    "duration": 0.0948406666666699
                },
                {
                    "name": "F3",
                    "midi": 53,
                    "time": 49.601668666667074,
                    "velocity": 0.4094488188976378,
                    "duration": 0.09009863333333357
                },
                {
                    "name": "F3",
                    "midi": 53,
                    "time": 49.69650933333374,
                    "velocity": 0.4094488188976378,
                    "duration": 0.09009863333333357
                },
                {
                    "name": "F2",
                    "midi": 41,
                    "time": 49.79135000000041,
                    "velocity": 0.4409448818897638,
                    "duration": 0.2845220000000097
                },
                {
                    "name": "D#3",
                    "midi": 51,
                    "time": 49.79135000000041,
                    "velocity": 0.4409448818897638,
                    "duration": 0.0948406666666699
                },
                {
                    "name": "F3",
                    "midi": 53,
                    "time": 49.88619066666708,
                    "velocity": 0.4094488188976378,
                    "duration": 0.09009863333333357
                },
                {
                    "name": "F3",
                    "midi": 53,
                    "time": 49.98103133333375,
                    "velocity": 0.4094488188976378,
                    "duration": 0.09009863333333357
                },
                {
                    "name": "F2",
                    "midi": 41,
                    "time": 50.07587200000042,
                    "velocity": 0.4015748031496063,
                    "duration": 0.5690440000000194
                },
                {
                    "name": "D#3",
                    "midi": 51,
                    "time": 50.07587200000042,
                    "velocity": 0.4015748031496063,
                    "duration": 0.5690440000000194
                },
                {
                    "name": "F3",
                    "midi": 53,
                    "time": 50.17071266666709,
                    "velocity": 0.3937007874015748,
                    "duration": 0.09009863333333357
                },
                {
                    "name": "F3",
                    "midi": 53,
                    "time": 50.26555333333376,
                    "velocity": 0.3937007874015748,
                    "duration": 0.09009863333333357
                },
                {
                    "name": "F3",
                    "midi": 53,
                    "time": 50.36039400000043,
                    "velocity": 0.3937007874015748,
                    "duration": 0.09009863333333357
                },
                {
                    "name": "F3",
                    "midi": 53,
                    "time": 50.4552346666671,
                    "velocity": 0.3937007874015748,
                    "duration": 0.09009863333333357
                },
                {
                    "name": "F3",
                    "midi": 53,
                    "time": 50.55007533333377,
                    "velocity": 0.3858267716535433,
                    "duration": 0.09009863333333357
                },
                {
                    "name": "F3",
                    "midi": 53,
                    "time": 50.64491600000044,
                    "velocity": 0.3858267716535433,
                    "duration": 0.09009863333333357
                },
                {
                    "name": "F3",
                    "midi": 53,
                    "time": 50.73975666666711,
                    "velocity": 0.3858267716535433,
                    "duration": 0.09009863333333357
                },
                {
                    "name": "F3",
                    "midi": 53,
                    "time": 50.83459733333378,
                    "velocity": 0.3858267716535433,
                    "duration": 0.09009863333333357
                },
                {
                    "name": "F3",
                    "midi": 53,
                    "time": 50.92943800000045,
                    "velocity": 0.3779527559055118,
                    "duration": 0.09009863333333357
                },
                {
                    "name": "F3",
                    "midi": 53,
                    "time": 51.02427866666712,
                    "velocity": 0.3779527559055118,
                    "duration": 0.09009863333333357
                },
                {
                    "name": "F3",
                    "midi": 53,
                    "time": 51.11911933333379,
                    "velocity": 0.3779527559055118,
                    "duration": 0.09009863333333357
                },
                {
                    "name": "D3",
                    "midi": 50,
                    "time": 51.21396000000046,
                    "velocity": 0.3779527559055118,
                    "duration": 1.1380880000000388
                },
                {
                    "name": "F2",
                    "midi": 41,
                    "time": 51.21396000000046,
                    "velocity": 0.3543307086614173,
                    "duration": 1.1380880000000388
                },
                {
                    "name": "F3",
                    "midi": 53,
                    "time": 51.30880066666713,
                    "velocity": 0.33070866141732286,
                    "duration": 0.09009863333333357
                },
                {
                    "name": "F3",
                    "midi": 53,
                    "time": 51.4036413333338,
                    "velocity": 0.30708661417322836,
                    "duration": 0.09009863333333357
                },
                {
                    "name": "F3",
                    "midi": 53,
                    "time": 51.49848200000047,
                    "velocity": 0.2992125984251969,
                    "duration": 0.09009863333333357
                },
                {
                    "name": "F3",
                    "midi": 53,
                    "time": 51.59332266666714,
                    "velocity": 0.2992125984251969,
                    "duration": 0.09009863333333357
                },
                {
                    "name": "F3",
                    "midi": 53,
                    "time": 51.68816333333381,
                    "velocity": 0.29133858267716534,
                    "duration": 0.09009863333333357
                },
                {
                    "name": "F3",
                    "midi": 53,
                    "time": 51.78300400000048,
                    "velocity": 0.29133858267716534,
                    "duration": 0.09009863333333357
                },
                {
                    "name": "F3",
                    "midi": 53,
                    "time": 51.87784466666715,
                    "velocity": 0.28346456692913385,
                    "duration": 0.09009863333333357
                },
                {
                    "name": "F3",
                    "midi": 53,
                    "time": 51.97268533333382,
                    "velocity": 0.2755905511811024,
                    "duration": 0.09009863333333357
                },
                {
                    "name": "F3",
                    "midi": 53,
                    "time": 52.06752600000049,
                    "velocity": 0.28346456692913385,
                    "duration": 0.09009863333333357
                },
                {
                    "name": "F3",
                    "midi": 53,
                    "time": 52.16236666666716,
                    "velocity": 0.31496062992125984,
                    "duration": 0.09009863333333357
                },
                {
                    "name": "F3",
                    "midi": 53,
                    "time": 52.25720733333383,
                    "velocity": 0.3464566929133858,
                    "duration": 0.09009863333333357
                },
                {
                    "name": "F3",
                    "midi": 53,
                    "time": 52.3520480000005,
                    "velocity": 0.3937007874015748,
                    "duration": 0.0948406666666699
                },
                {
                    "name": "G#2",
                    "midi": 44,
                    "time": 52.44688866666717,
                    "velocity": 0.33070866141732286,
                    "duration": 0.09009863333333357
                },
                {
                    "name": "G#2",
                    "midi": 44,
                    "time": 52.54172933333384,
                    "velocity": 0.33070866141732286,
                    "duration": 0.09009863333333357
                },
                {
                    "name": "G#2",
                    "midi": 44,
                    "time": 52.63657000000051,
                    "velocity": 0.33070866141732286,
                    "duration": 0.09009863333333357
                },
                {
                    "name": "G#2",
                    "midi": 44,
                    "time": 52.73141066666718,
                    "velocity": 0.33070866141732286,
                    "duration": 0.09009863333333357
                },
                {
                    "name": "G#2",
                    "midi": 44,
                    "time": 52.82625133333385,
                    "velocity": 0.33070866141732286,
                    "duration": 0.09009863333333357
                },
                {
                    "name": "G#2",
                    "midi": 44,
                    "time": 52.92109200000052,
                    "velocity": 0.33070866141732286,
                    "duration": 0.09009863333333357
                },
                {
                    "name": "G#2",
                    "midi": 44,
                    "time": 53.01593266666719,
                    "velocity": 0.33070866141732286,
                    "duration": 0.09009863333333357
                },
                {
                    "name": "G#2",
                    "midi": 44,
                    "time": 53.11077333333386,
                    "velocity": 0.33070866141732286,
                    "duration": 0.09009863333333357
                },
                {
                    "name": "G#2",
                    "midi": 44,
                    "time": 53.20561400000053,
                    "velocity": 0.33070866141732286,
                    "duration": 0.09009863333333357
                },
                {
                    "name": "G#2",
                    "midi": 44,
                    "time": 53.3004546666672,
                    "velocity": 0.33070866141732286,
                    "duration": 0.09009863333333357
                },
                {
                    "name": "G#2",
                    "midi": 44,
                    "time": 53.39529533333387,
                    "velocity": 0.33070866141732286,
                    "duration": 0.09009863333333357
                },
                {
                    "name": "G#2",
                    "midi": 44,
                    "time": 53.49013600000054,
                    "velocity": 0.36220472440944884,
                    "duration": 0.0948406666666699
                },
                {
                    "name": "C#2",
                    "midi": 37,
                    "time": 53.58497666666721,
                    "velocity": 0.36220472440944884,
                    "duration": 0.09009863333333357
                },
                {
                    "name": "C#2",
                    "midi": 37,
                    "time": 53.67981733333388,
                    "velocity": 0.36220472440944884,
                    "duration": 0.09009863333333357
                },
                {
                    "name": "C#2",
                    "midi": 37,
                    "time": 53.77465800000055,
                    "velocity": 0.41732283464566927,
                    "duration": 0.09009863333333357
                },
                {
                    "name": "C#2",
                    "midi": 37,
                    "time": 53.86949866666722,
                    "velocity": 0.41732283464566927,
                    "duration": 0.09009863333333357
                },
                {
                    "name": "C#2",
                    "midi": 37,
                    "time": 53.96433933333389,
                    "velocity": 0.41732283464566927,
                    "duration": 0.09009863333333357
                },
                {
                    "name": "C#2",
                    "midi": 37,
                    "time": 54.05918000000056,
                    "velocity": 0.41732283464566927,
                    "duration": 0.09009863333333357
                },
                {
                    "name": "C#2",
                    "midi": 37,
                    "time": 54.15402066666723,
                    "velocity": 0.4094488188976378,
                    "duration": 0.09009863333333357
                },
                {
                    "name": "C#2",
                    "midi": 37,
                    "time": 54.2488613333339,
                    "velocity": 0.4094488188976378,
                    "duration": 0.09009863333333357
                },
                {
                    "name": "C#2",
                    "midi": 37,
                    "time": 54.34370200000057,
                    "velocity": 0.5118110236220472,
                    "duration": 0.07113050000000243
                },
                {
                    "name": "B1",
                    "midi": 35,
                    "time": 54.41483250000057,
                    "velocity": 0.4645669291338583,
                    "duration": 0.07113050000000243
                },
                {
                    "name": "A1",
                    "midi": 33,
                    "time": 54.485963000000574,
                    "velocity": 0.48031496062992124,
                    "duration": 0.07113050000000243
                },
                {
                    "name": "G#1",
                    "midi": 32,
                    "time": 54.557093500000576,
                    "velocity": 0.4645669291338583,
                    "duration": 0.07113050000000243
                },
                {
                    "name": "F#1",
                    "midi": 30,
                    "time": 54.62822400000058,
                    "velocity": 0.5118110236220472,
                    "duration": 0.07113050000000243
                },
                {
                    "name": "C#4",
                    "midi": 61,
                    "time": 55.48179000000058,
                    "velocity": 0.33070866141732286,
                    "duration": 0.2845220000000026
                },
                {
                    "name": "F#3",
                    "midi": 54,
                    "time": 55.48179000000058,
                    "velocity": 0.33070866141732286,
                    "duration": 0.2845220000000026
                },
                {
                    "name": "F#3",
                    "midi": 54,
                    "time": 55.76631200000058,
                    "velocity": 0.33070866141732286,
                    "duration": 0.7113049999999959
                },
                {
                    "name": "C#4",
                    "midi": 61,
                    "time": 55.76631200000058,
                    "velocity": 0.33070866141732286,
                    "duration": 0.42678300000000036
                },
                {
                    "name": "B3",
                    "midi": 59,
                    "time": 56.19309500000058,
                    "velocity": 0.2992125984251969,
                    "duration": 0.14226099999999775
                },
                {
                    "name": "A3",
                    "midi": 57,
                    "time": 56.33535600000058,
                    "velocity": 0.3228346456692913,
                    "duration": 0.14226099999999775
                },
                {
                    "name": "A3",
                    "midi": 57,
                    "time": 56.619878000000575,
                    "velocity": 0.2992125984251969,
                    "duration": 0.2845220000000026
                },
                {
                    "name": "F#3",
                    "midi": 54,
                    "time": 56.619878000000575,
                    "velocity": 0.2992125984251969,
                    "duration": 0.2845220000000026
                },
                {
                    "name": "A3",
                    "midi": 57,
                    "time": 56.90440000000058,
                    "velocity": 0.3228346456692913,
                    "duration": 0.42678300000000036
                },
                {
                    "name": "F#3",
                    "midi": 54,
                    "time": 56.90440000000058,
                    "velocity": 0.3228346456692913,
                    "duration": 0.5690439999999981
                },
                {
                    "name": "G#3",
                    "midi": 56,
                    "time": 57.33118300000058,
                    "velocity": 0.3228346456692913,
                    "duration": 0.14226099999999775
                },
                {
                    "name": "F#3",
                    "midi": 54,
                    "time": 57.473444000000576,
                    "velocity": 0.3464566929133858,
                    "duration": 0.14226099999999775
                },
                {
                    "name": "F#3",
                    "midi": 54,
                    "time": 57.75796600000057,
                    "velocity": 0.2677165354330709,
                    "duration": 0.2845220000000026
                },
                {
                    "name": "F#3",
                    "midi": 54,
                    "time": 58.042488000000574,
                    "velocity": 0.3228346456692913,
                    "duration": 0.2845220000000026
                },
                {
                    "name": "G#3",
                    "midi": 56,
                    "time": 58.32701000000058,
                    "velocity": 0.33070866141732286,
                    "duration": 0.2845220000000026
                },
                {
                    "name": "A3",
                    "midi": 57,
                    "time": 58.61153200000058,
                    "velocity": 0.3700787401574803,
                    "duration": 0.2845220000000026
                },
                {
                    "name": "E3",
                    "midi": 52,
                    "time": 58.89605400000058,
                    "velocity": 0.2440944881889764,
                    "duration": 0.2845220000000026
                },
                {
                    "name": "B3",
                    "midi": 59,
                    "time": 58.89605400000058,
                    "velocity": 0.29133858267716534,
                    "duration": 0.2845220000000026
                },
                {
                    "name": "C#4",
                    "midi": 61,
                    "time": 59.180576000000585,
                    "velocity": 0.3700787401574803,
                    "duration": 0.2845220000000026
                },
                {
                    "name": "A3",
                    "midi": 57,
                    "time": 59.180576000000585,
                    "velocity": 0.30708661417322836,
                    "duration": 0.2845220000000026
                },
                {
                    "name": "G#3",
                    "midi": 56,
                    "time": 59.46509800000059,
                    "velocity": 0.2992125984251969,
                    "duration": 0.2845220000000026
                },
                {
                    "name": "C#4",
                    "midi": 61,
                    "time": 59.46509800000059,
                    "velocity": 0.3543307086614173,
                    "duration": 0.2845220000000026
                },
                {
                    "name": "C#4",
                    "midi": 61,
                    "time": 59.74962000000059,
                    "velocity": 0.36220472440944884,
                    "duration": 0.2845220000000026
                },
                {
                    "name": "F#3",
                    "midi": 54,
                    "time": 59.74962000000059,
                    "velocity": 0.2992125984251969,
                    "duration": 0.2845220000000026
                },
                {
                    "name": "D4",
                    "midi": 62,
                    "time": 60.03414200000059,
                    "velocity": 0.30708661417322836,
                    "duration": 0.2845220000000026
                },
                {
                    "name": "E3",
                    "midi": 52,
                    "time": 60.03414200000059,
                    "velocity": 0.25984251968503935,
                    "duration": 0.2845220000000026
                },
                {
                    "name": "D4",
                    "midi": 62,
                    "time": 60.318664000000595,
                    "velocity": 0.30708661417322836,
                    "duration": 0.5690439999999981
                },
                {
                    "name": "E3",
                    "midi": 52,
                    "time": 60.318664000000595,
                    "velocity": 0.25984251968503935,
                    "duration": 0.5690439999999981
                },
                {
                    "name": "F3",
                    "midi": 53,
                    "time": 60.88770800000059,
                    "velocity": 0.23622047244094488,
                    "duration": 0.2845220000000026
                },
                {
                    "name": "C#4",
                    "midi": 61,
                    "time": 60.88770800000059,
                    "velocity": 0.29133858267716534,
                    "duration": 0.2845220000000026
                },
                {
                    "name": "F#3",
                    "midi": 54,
                    "time": 61.172230000000596,
                    "velocity": 0.23622047244094488,
                    "duration": 0.2845220000000026
                },
                {
                    "name": "C#4",
                    "midi": 61,
                    "time": 61.172230000000596,
                    "velocity": 0.28346456692913385,
                    "duration": 0.2845220000000026
                },
                {
                    "name": "F#3",
                    "midi": 54,
                    "time": 61.4567520000006,
                    "velocity": 0.25196850393700787,
                    "duration": 0.7113049999999959
                },
                {
                    "name": "C#4",
                    "midi": 61,
                    "time": 61.4567520000006,
                    "velocity": 0.33070866141732286,
                    "duration": 0.42678300000000036
                },
                {
                    "name": "B3",
                    "midi": 59,
                    "time": 61.8835350000006,
                    "velocity": 0.2992125984251969,
                    "duration": 0.14226099999999775
                },
                {
                    "name": "A3",
                    "midi": 57,
                    "time": 62.0257960000006,
                    "velocity": 0.3228346456692913,
                    "duration": 0.14226099999999775
                },
                {
                    "name": "A3",
                    "midi": 57,
                    "time": 62.31031800000059,
                    "velocity": 0.2992125984251969,
                    "duration": 0.2845220000000026
                },
                {
                    "name": "F#3",
                    "midi": 54,
                    "time": 62.31031800000059,
                    "velocity": 0.25196850393700787,
                    "duration": 0.2845220000000026
                },
                {
                    "name": "A3",
                    "midi": 57,
                    "time": 62.594840000000595,
                    "velocity": 0.3228346456692913,
                    "duration": 0.42678300000000036
                },
                {
                    "name": "F#3",
                    "midi": 54,
                    "time": 62.594840000000595,
                    "velocity": 0.2677165354330709,
                    "duration": 0.5690439999999981
                },
                {
                    "name": "G#3",
                    "midi": 56,
                    "time": 63.021623000000595,
                    "velocity": 0.3228346456692913,
                    "duration": 0.14226099999999775
                },
                {
                    "name": "F#3",
                    "midi": 54,
                    "time": 63.16388400000059,
                    "velocity": 0.3464566929133858,
                    "duration": 0.14226099999999775
                },
                {
                    "name": "F#3",
                    "midi": 54,
                    "time": 63.44840600000059,
                    "velocity": 0.2677165354330709,
                    "duration": 0.2845220000000026
                },
                {
                    "name": "F#3",
                    "midi": 54,
                    "time": 63.73292800000059,
                    "velocity": 0.3228346456692913,
                    "duration": 0.2845220000000026
                },
                {
                    "name": "G#3",
                    "midi": 56,
                    "time": 64.0174500000006,
                    "velocity": 0.33070866141732286,
                    "duration": 0.2845219999999955
                },
                {
                    "name": "A3",
                    "midi": 57,
                    "time": 64.30197200000059,
                    "velocity": 0.3700787401574803,
                    "duration": 0.2845219999999955
                },
                {
                    "name": "E3",
                    "midi": 52,
                    "time": 64.58649400000058,
                    "velocity": 0.2440944881889764,
                    "duration": 0.2845219999999955
                },
                {
                    "name": "B3",
                    "midi": 59,
                    "time": 64.58649400000058,
                    "velocity": 0.29133858267716534,
                    "duration": 0.2845219999999955
                },
                {
                    "name": "A3",
                    "midi": 57,
                    "time": 64.87101600000058,
                    "velocity": 0.30708661417322836,
                    "duration": 0.2845219999999955
                },
                {
                    "name": "C#4",
                    "midi": 61,
                    "time": 64.87101600000058,
                    "velocity": 0.3700787401574803,
                    "duration": 0.2845219999999955
                },
                {
                    "name": "C#4",
                    "midi": 61,
                    "time": 65.15553800000058,
                    "velocity": 0.3543307086614173,
                    "duration": 0.2845219999999955
                },
                {
                    "name": "G#3",
                    "midi": 56,
                    "time": 65.15553800000058,
                    "velocity": 0.2992125984251969,
                    "duration": 0.2845219999999955
                },
                {
                    "name": "F#3",
                    "midi": 54,
                    "time": 65.44006000000057,
                    "velocity": 0.2992125984251969,
                    "duration": 0.2845219999999955
                },
                {
                    "name": "C#4",
                    "midi": 61,
                    "time": 65.44006000000057,
                    "velocity": 0.36220472440944884,
                    "duration": 0.2845219999999955
                },
                {
                    "name": "E3",
                    "midi": 52,
                    "time": 65.72458200000057,
                    "velocity": 0.25984251968503935,
                    "duration": 0.2845219999999955
                },
                {
                    "name": "D4",
                    "midi": 62,
                    "time": 65.72458200000057,
                    "velocity": 0.30708661417322836,
                    "duration": 0.2845219999999955
                },
                {
                    "name": "E3",
                    "midi": 52,
                    "time": 66.00910400000056,
                    "velocity": 0.25984251968503935,
                    "duration": 0.5690440000000052
                },
                {
                    "name": "D4",
                    "midi": 62,
                    "time": 66.00910400000056,
                    "velocity": 0.30708661417322836,
                    "duration": 0.5690440000000052
                },
                {
                    "name": "C#4",
                    "midi": 61,
                    "time": 66.57814800000057,
                    "velocity": 0.29133858267716534,
                    "duration": 0.0948406666666699
                },
                {
                    "name": "A3",
                    "midi": 57,
                    "time": 66.57814800000057,
                    "velocity": 0.29133858267716534,
                    "duration": 0.0948406666666699
                },
                {
                    "name": "E4",
                    "midi": 64,
                    "time": 66.67298866666724,
                    "velocity": 0.2283464566929134,
                    "duration": 0.09009863333332646
                },
                {
                    "name": "E4",
                    "midi": 64,
                    "time": 66.76782933333389,
                    "velocity": 0.2283464566929134,
                    "duration": 0.09009863333332646
                },
                {
                    "name": "E4",
                    "midi": 64,
                    "time": 66.86267000000055,
                    "velocity": 0.25984251968503935,
                    "duration": 0.09009863333332646
                },
                {
                    "name": "E4",
                    "midi": 64,
                    "time": 66.9575106666672,
                    "velocity": 0.2283464566929134,
                    "duration": 0.09009863333332646
                },
                {
                    "name": "E4",
                    "midi": 64,
                    "time": 67.05235133333386,
                    "velocity": 0.2283464566929134,
                    "duration": 0.09009863333332646
                },
                {
                    "name": "A#3",
                    "midi": 58,
                    "time": 67.14719200000052,
                    "velocity": 0.25984251968503935,
                    "duration": 0.07113049999999532
                },
                {
                    "name": "E4",
                    "midi": 64,
                    "time": 67.21832250000051,
                    "velocity": 0.2125984251968504,
                    "duration": 0.07113049999999532
                },
                {
                    "name": "C#4",
                    "midi": 61,
                    "time": 67.2894530000005,
                    "velocity": 0.2125984251968504,
                    "duration": 0.07113049999999532
                },
                {
                    "name": "E4",
                    "midi": 64,
                    "time": 67.3605835000005,
                    "velocity": 0.2125984251968504,
                    "duration": 0.07113049999999532
                },
                {
                    "name": "A#3",
                    "midi": 58,
                    "time": 67.4317140000005,
                    "velocity": 0.25984251968503935,
                    "duration": 0.07113049999999532
                },
                {
                    "name": "E4",
                    "midi": 64,
                    "time": 67.50284450000049,
                    "velocity": 0.2204724409448819,
                    "duration": 0.07113049999999532
                },
                {
                    "name": "C#4",
                    "midi": 61,
                    "time": 67.57397500000049,
                    "velocity": 0.2204724409448819,
                    "duration": 0.07113049999999532
                },
                {
                    "name": "E4",
                    "midi": 64,
                    "time": 67.64510550000048,
                    "velocity": 0.2283464566929134,
                    "duration": 0.07113049999999532
                },
                {
                    "name": "A#3",
                    "midi": 58,
                    "time": 67.71623600000048,
                    "velocity": 0.25984251968503935,
                    "duration": 0.07113049999999532
                },
                {
                    "name": "E4",
                    "midi": 64,
                    "time": 67.78736650000047,
                    "velocity": 0.2283464566929134,
                    "duration": 0.07113049999999532
                },
                {
                    "name": "C#4",
                    "midi": 61,
                    "time": 67.85849700000047,
                    "velocity": 0.2283464566929134,
                    "duration": 0.07113049999999532
                },
                {
                    "name": "E4",
                    "midi": 64,
                    "time": 67.92962750000046,
                    "velocity": 0.2283464566929134,
                    "duration": 0.07113049999999532
                },
                {
                    "name": "A3",
                    "midi": 57,
                    "time": 68.00075800000046,
                    "velocity": 0.25984251968503935,
                    "duration": 0.07113049999999532
                },
                {
                    "name": "E4",
                    "midi": 64,
                    "time": 68.07188850000045,
                    "velocity": 0.2283464566929134,
                    "duration": 0.07113049999999532
                },
                {
                    "name": "C#4",
                    "midi": 61,
                    "time": 68.14301900000045,
                    "velocity": 0.2283464566929134,
                    "duration": 0.07113049999999532
                },
                {
                    "name": "E4",
                    "midi": 64,
                    "time": 68.21414950000045,
                    "velocity": 0.2283464566929134,
                    "duration": 0.07113049999999532
                },
                {
                    "name": "G3",
                    "midi": 55,
                    "time": 68.28528000000044,
                    "velocity": 0.25984251968503935,
                    "duration": 0.07113049999999532
                },
                {
                    "name": "E4",
                    "midi": 64,
                    "time": 68.35641050000044,
                    "velocity": 0.2125984251968504,
                    "duration": 0.07113049999999532
                },
                {
                    "name": "C#4",
                    "midi": 61,
                    "time": 68.42754100000043,
                    "velocity": 0.2125984251968504,
                    "duration": 0.07113049999999532
                },
                {
                    "name": "E4",
                    "midi": 64,
                    "time": 68.49867150000043,
                    "velocity": 0.2125984251968504,
                    "duration": 0.07113049999999532
                },
                {
                    "name": "G3",
                    "midi": 55,
                    "time": 68.56980200000042,
                    "velocity": 0.25984251968503935,
                    "duration": 0.07113049999999532
                },
                {
                    "name": "E4",
                    "midi": 64,
                    "time": 68.64093250000042,
                    "velocity": 0.2204724409448819,
                    "duration": 0.07113049999999532
                },
                {
                    "name": "C#4",
                    "midi": 61,
                    "time": 68.71206300000041,
                    "velocity": 0.2204724409448819,
                    "duration": 0.07113049999999532
                },
                {
                    "name": "E4",
                    "midi": 64,
                    "time": 68.78319350000041,
                    "velocity": 0.2283464566929134,
                    "duration": 0.07113049999999532
                },
                {
                    "name": "G3",
                    "midi": 55,
                    "time": 68.8543240000004,
                    "velocity": 0.25984251968503935,
                    "duration": 0.07113049999999532
                },
                {
                    "name": "E4",
                    "midi": 64,
                    "time": 68.9254545000004,
                    "velocity": 0.2283464566929134,
                    "duration": 0.07113049999999532
                },
                {
                    "name": "C#4",
                    "midi": 61,
                    "time": 68.9965850000004,
                    "velocity": 0.2283464566929134,
                    "duration": 0.07113049999999532
                },
                {
                    "name": "E4",
                    "midi": 64,
                    "time": 69.06771550000039,
                    "velocity": 0.2283464566929134,
                    "duration": 0.07113049999999532
                },
                {
                    "name": "F#3",
                    "midi": 54,
                    "time": 69.13884600000038,
                    "velocity": 0.25984251968503935,
                    "duration": 0.07113049999999532
                },
                {
                    "name": "E4",
                    "midi": 64,
                    "time": 69.20997650000038,
                    "velocity": 0.2283464566929134,
                    "duration": 0.07113049999999532
                },
                {
                    "name": "C#4",
                    "midi": 61,
                    "time": 69.28110700000038,
                    "velocity": 0.2283464566929134,
                    "duration": 0.07113049999999532
                },
                {
                    "name": "E4",
                    "midi": 64,
                    "time": 69.35223750000037,
                    "velocity": 0.2283464566929134,
                    "duration": 0.07113049999999532
                },
                {
                    "name": "F#3",
                    "midi": 54,
                    "time": 69.42336800000037,
                    "velocity": 0.25984251968503935,
                    "duration": 0.07113049999999532
                },
                {
                    "name": "E4",
                    "midi": 64,
                    "time": 69.49449850000036,
                    "velocity": 0.2204724409448819,
                    "duration": 0.07113049999999532
                },
                {
                    "name": "C#4",
                    "midi": 61,
                    "time": 69.56562900000036,
                    "velocity": 0.2204724409448819,
                    "duration": 0.07113049999999532
                },
                {
                    "name": "E4",
                    "midi": 64,
                    "time": 69.63675950000035,
                    "velocity": 0.2204724409448819,
                    "duration": 0.07113049999999532
                },
                {
                    "name": "F#3",
                    "midi": 54,
                    "time": 69.70789000000035,
                    "velocity": 0.2677165354330709,
                    "duration": 0.07113049999999532
                },
                {
                    "name": "D4",
                    "midi": 62,
                    "time": 69.77902050000034,
                    "velocity": 0.2204724409448819,
                    "duration": 0.07113049999999532
                },
                {
                    "name": "B3",
                    "midi": 59,
                    "time": 69.85015100000034,
                    "velocity": 0.2204724409448819,
                    "duration": 0.07113049999999532
                },
                {
                    "name": "D4",
                    "midi": 62,
                    "time": 69.92128150000033,
                    "velocity": 0.2283464566929134,
                    "duration": 0.07113049999999532
                },
                {
                    "name": "F#3",
                    "midi": 54,
                    "time": 69.99241200000033,
                    "velocity": 0.2755905511811024,
                    "duration": 0.07113049999999532
                },
                {
                    "name": "C#4",
                    "midi": 61,
                    "time": 70.06354250000032,
                    "velocity": 0.2283464566929134,
                    "duration": 0.07113049999999532
                },
                {
                    "name": "A#3",
                    "midi": 58,
                    "time": 70.13467300000032,
                    "velocity": 0.2283464566929134,
                    "duration": 0.07113049999999532
                },
                {
                    "name": "C#4",
                    "midi": 61,
                    "time": 70.20580350000031,
                    "velocity": 0.2283464566929134,
                    "duration": 0.07113049999999532
                },
                {
                    "name": "F#3",
                    "midi": 54,
                    "time": 70.27693400000031,
                    "velocity": 0.28346456692913385,
                    "duration": 0.07113049999999532
                },
                {
                    "name": "D4",
                    "midi": 62,
                    "time": 70.3480645000003,
                    "velocity": 0.2440944881889764,
                    "duration": 0.07113049999999532
                },
                {
                    "name": "B3",
                    "midi": 59,
                    "time": 70.4191950000003,
                    "velocity": 0.2440944881889764,
                    "duration": 0.07113049999999532
                },
                {
                    "name": "D4",
                    "midi": 62,
                    "time": 70.4903255000003,
                    "velocity": 0.2440944881889764,
                    "duration": 0.07113049999999532
                },
                {
                    "name": "F#3",
                    "midi": 54,
                    "time": 70.56145600000029,
                    "velocity": 0.29133858267716534,
                    "duration": 0.07113049999999532
                },
                {
                    "name": "E4",
                    "midi": 64,
                    "time": 70.63258650000029,
                    "velocity": 0.2440944881889764,
                    "duration": 0.07113049999999532
                },
                {
                    "name": "C#4",
                    "midi": 61,
                    "time": 70.70371700000028,
                    "velocity": 0.25196850393700787,
                    "duration": 0.07113049999999532
                },
                {
                    "name": "E4",
                    "midi": 64,
                    "time": 70.77484750000028,
                    "velocity": 0.25196850393700787,
                    "duration": 0.07113049999999532
                },
                {
                    "name": "G3",
                    "midi": 55,
                    "time": 70.84597800000027,
                    "velocity": 0.29133858267716534,
                    "duration": 0.07113049999999532
                },
                {
                    "name": "E4",
                    "midi": 64,
                    "time": 70.91710850000027,
                    "velocity": 0.2440944881889764,
                    "duration": 0.07113049999999532
                },
                {
                    "name": "C#4",
                    "midi": 61,
                    "time": 70.98823900000026,
                    "velocity": 0.2440944881889764,
                    "duration": 0.07113049999999532
                },
                {
                    "name": "E4",
                    "midi": 64,
                    "time": 71.05936950000026,
                    "velocity": 0.2440944881889764,
                    "duration": 0.07113049999999532
                },
                {
                    "name": "G#3",
                    "midi": 56,
                    "time": 71.13050000000025,
                    "velocity": 0.2992125984251969,
                    "duration": 0.07113049999999532
                },
                {
                    "name": "E4",
                    "midi": 64,
                    "time": 71.20163050000025,
                    "velocity": 0.25196850393700787,
                    "duration": 0.07113049999999532
                },
                {
                    "name": "C#4",
                    "midi": 61,
                    "time": 71.27276100000024,
                    "velocity": 0.25196850393700787,
                    "duration": 0.07113049999999532
                },
                {
                    "name": "E4",
                    "midi": 64,
                    "time": 71.34389150000024,
                    "velocity": 0.25984251968503935,
                    "duration": 0.07113049999999532
                },
                {
                    "name": "A3",
                    "midi": 57,
                    "time": 71.41502200000023,
                    "velocity": 0.30708661417322836,
                    "duration": 0.07113049999999532
                },
                {
                    "name": "E4",
                    "midi": 64,
                    "time": 71.48615250000023,
                    "velocity": 0.25196850393700787,
                    "duration": 0.07113049999999532
                },
                {
                    "name": "C#4",
                    "midi": 61,
                    "time": 71.55728300000023,
                    "velocity": 0.2677165354330709,
                    "duration": 0.07113049999999532
                },
                {
                    "name": "E4",
                    "midi": 64,
                    "time": 71.62841350000022,
                    "velocity": 0.2677165354330709,
                    "duration": 0.07113049999999532
                },
                {
                    "name": "A3",
                    "midi": 57,
                    "time": 71.69954400000022,
                    "velocity": 0.25984251968503935,
                    "duration": 0.07113049999999532
                },
                {
                    "name": "E4",
                    "midi": 64,
                    "time": 71.77067450000021,
                    "velocity": 0.2125984251968504,
                    "duration": 0.07113049999999532
                },
                {
                    "name": "C#4",
                    "midi": 61,
                    "time": 71.8418050000002,
                    "velocity": 0.2125984251968504,
                    "duration": 0.07113049999999532
                },
                {
                    "name": "E4",
                    "midi": 64,
                    "time": 71.9129355000002,
                    "velocity": 0.2125984251968504,
                    "duration": 0.07113049999999532
                },
                {
                    "name": "A#3",
                    "midi": 58,
                    "time": 71.9840660000002,
                    "velocity": 0.25984251968503935,
                    "duration": 0.07113049999999532
                },
                {
                    "name": "E4",
                    "midi": 64,
                    "time": 72.05519650000019,
                    "velocity": 0.2204724409448819,
                    "duration": 0.07113049999999532
                },
                {
                    "name": "C#4",
                    "midi": 61,
                    "time": 72.12632700000019,
                    "velocity": 0.2204724409448819,
                    "duration": 0.07113049999999532
                },
                {
                    "name": "E4",
                    "midi": 64,
                    "time": 72.19745750000018,
                    "velocity": 0.2283464566929134,
                    "duration": 0.07113049999999532
                },
                {
                    "name": "A#3",
                    "midi": 58,
                    "time": 72.26858800000018,
                    "velocity": 0.25984251968503935,
                    "duration": 0.07113049999999532
                },
                {
                    "name": "E4",
                    "midi": 64,
                    "time": 72.33971850000017,
                    "velocity": 0.2283464566929134,
                    "duration": 0.07113049999999532
                },
                {
                    "name": "C#4",
                    "midi": 61,
                    "time": 72.41084900000017,
                    "velocity": 0.2283464566929134,
                    "duration": 0.07113049999999532
                },
                {
                    "name": "E4",
                    "midi": 64,
                    "time": 72.48197950000016,
                    "velocity": 0.2283464566929134,
                    "duration": 0.07113049999999532
                },
                {
                    "name": "A3",
                    "midi": 57,
                    "time": 72.55311000000016,
                    "velocity": 0.25984251968503935,
                    "duration": 0.07113049999999532
                },
                {
                    "name": "E4",
                    "midi": 64,
                    "time": 72.62424050000016,
                    "velocity": 0.2283464566929134,
                    "duration": 0.07113049999999532
                },
                {
                    "name": "C#4",
                    "midi": 61,
                    "time": 72.69537100000015,
                    "velocity": 0.2283464566929134,
                    "duration": 0.07113049999999532
                },
                {
                    "name": "E4",
                    "midi": 64,
                    "time": 72.76650150000015,
                    "velocity": 0.2283464566929134,
                    "duration": 0.07113049999999532
                },
                {
                    "name": "G3",
                    "midi": 55,
                    "time": 72.83763200000014,
                    "velocity": 0.25984251968503935,
                    "duration": 0.07113049999999532
                },
                {
                    "name": "E4",
                    "midi": 64,
                    "time": 72.90876250000014,
                    "velocity": 0.2125984251968504,
                    "duration": 0.07113049999999532
                },
                {
                    "name": "C#4",
                    "midi": 61,
                    "time": 72.97989300000013,
                    "velocity": 0.2125984251968504,
                    "duration": 0.07113049999999532
                },
                {
                    "name": "E4",
                    "midi": 64,
                    "time": 73.05102350000013,
                    "velocity": 0.2125984251968504,
                    "duration": 0.07113049999999532
                },
                {
                    "name": "G3",
                    "midi": 55,
                    "time": 73.12215400000012,
                    "velocity": 0.25984251968503935,
                    "duration": 0.07113049999999532
                },
                {
                    "name": "E4",
                    "midi": 64,
                    "time": 73.19328450000012,
                    "velocity": 0.2204724409448819,
                    "duration": 0.07113049999999532
                },
                {
                    "name": "C#4",
                    "midi": 61,
                    "time": 73.26441500000011,
                    "velocity": 0.2204724409448819,
                    "duration": 0.07113049999999532
                },
                {
                    "name": "E4",
                    "midi": 64,
                    "time": 73.33554550000011,
                    "velocity": 0.2283464566929134,
                    "duration": 0.07113049999999532
                },
                {
                    "name": "G3",
                    "midi": 55,
                    "time": 73.4066760000001,
                    "velocity": 0.25984251968503935,
                    "duration": 0.07113049999999532
                },
                {
                    "name": "E4",
                    "midi": 64,
                    "time": 73.4778065000001,
                    "velocity": 0.2283464566929134,
                    "duration": 0.07113049999999532
                },
                {
                    "name": "C#4",
                    "midi": 61,
                    "time": 73.5489370000001,
                    "velocity": 0.2283464566929134,
                    "duration": 0.07113049999999532
                },
                {
                    "name": "E4",
                    "midi": 64,
                    "time": 73.62006750000009,
                    "velocity": 0.2440944881889764,
                    "duration": 0.07113049999999532
                },
                {
                    "name": "F#3",
                    "midi": 54,
                    "time": 73.69119800000009,
                    "velocity": 0.28346456692913385,
                    "duration": 0.07113049999999532
                },
                {
                    "name": "E4",
                    "midi": 64,
                    "time": 73.76232850000008,
                    "velocity": 0.2440944881889764,
                    "duration": 0.07113049999999532
                },
                {
                    "name": "C#4",
                    "midi": 61,
                    "time": 73.83345900000008,
                    "velocity": 0.2440944881889764,
                    "duration": 0.07113049999999532
                },
                {
                    "name": "E4",
                    "midi": 64,
                    "time": 73.90458950000007,
                    "velocity": 0.2440944881889764,
                    "duration": 0.07113049999999532
                },
                {
                    "name": "F#3",
                    "midi": 54,
                    "time": 73.97572000000007,
                    "velocity": 0.28346456692913385,
                    "duration": 0.07113049999999532
                },
                {
                    "name": "E4",
                    "midi": 64,
                    "time": 74.04685050000006,
                    "velocity": 0.23622047244094488,
                    "duration": 0.07113049999999532
                },
                {
                    "name": "C#4",
                    "midi": 61,
                    "time": 74.11798100000006,
                    "velocity": 0.23622047244094488,
                    "duration": 0.07113049999999532
                },
                {
                    "name": "E4",
                    "midi": 64,
                    "time": 74.18911150000005,
                    "velocity": 0.23622047244094488,
                    "duration": 0.07113049999999532
                },
                {
                    "name": "F#3",
                    "midi": 54,
                    "time": 74.26024200000005,
                    "velocity": 0.29133858267716534,
                    "duration": 0.07113049999999532
                },
                {
                    "name": "D4",
                    "midi": 62,
                    "time": 74.33137250000004,
                    "velocity": 0.23622047244094488,
                    "duration": 0.07113049999999532
                },
                {
                    "name": "B3",
                    "midi": 59,
                    "time": 74.40250300000004,
                    "velocity": 0.23622047244094488,
                    "duration": 0.07113049999999532
                },
                {
                    "name": "D4",
                    "midi": 62,
                    "time": 74.47363350000003,
                    "velocity": 0.2440944881889764,
                    "duration": 0.07113049999999532
                },
                {
                    "name": "F#3",
                    "midi": 54,
                    "time": 74.54476400000003,
                    "velocity": 0.2992125984251969,
                    "duration": 0.07113049999999532
                },
                {
                    "name": "C#4",
                    "midi": 61,
                    "time": 74.61589450000002,
                    "velocity": 0.2440944881889764,
                    "duration": 0.07113049999999532
                },
                {
                    "name": "A#3",
                    "midi": 58,
                    "time": 74.68702500000002,
                    "velocity": 0.2440944881889764,
                    "duration": 0.07113049999999532
                },
                {
                    "name": "C#4",
                    "midi": 61,
                    "time": 74.75815550000002,
                    "velocity": 0.2440944881889764,
                    "duration": 0.07113049999999532
                },
                {
                    "name": "F#3",
                    "midi": 54,
                    "time": 74.82928600000001,
                    "velocity": 0.30708661417322836,
                    "duration": 0.07113049999999532
                },
                {
                    "name": "D4",
                    "midi": 62,
                    "time": 74.9004165,
                    "velocity": 0.2677165354330709,
                    "duration": 0.07113049999999532
                },
                {
                    "name": "B3",
                    "midi": 59,
                    "time": 74.971547,
                    "velocity": 0.2677165354330709,
                    "duration": 0.07113049999999532
                },
                {
                    "name": "D4",
                    "midi": 62,
                    "time": 75.0426775,
                    "velocity": 0.2677165354330709,
                    "duration": 0.07113049999999532
                },
                {
                    "name": "F#3",
                    "midi": 54,
                    "time": 75.11380799999999,
                    "velocity": 0.31496062992125984,
                    "duration": 0.07113049999999532
                },
                {
                    "name": "E4",
                    "midi": 64,
                    "time": 75.18493849999999,
                    "velocity": 0.2677165354330709,
                    "duration": 0.07113049999999532
                },
                {
                    "name": "C#4",
                    "midi": 61,
                    "time": 75.25606899999998,
                    "velocity": 0.2755905511811024,
                    "duration": 0.07113049999999532
                },
                {
                    "name": "E4",
                    "midi": 64,
                    "time": 75.32719949999998,
                    "velocity": 0.2755905511811024,
                    "duration": 0.07113049999999532
                },
                {
                    "name": "G3",
                    "midi": 55,
                    "time": 75.39832999999997,
                    "velocity": 0.31496062992125984,
                    "duration": 0.07113049999999532
                },
                {
                    "name": "E4",
                    "midi": 64,
                    "time": 75.46946049999997,
                    "velocity": 0.2677165354330709,
                    "duration": 0.07113049999999532
                },
                {
                    "name": "C#4",
                    "midi": 61,
                    "time": 75.54059099999996,
                    "velocity": 0.2677165354330709,
                    "duration": 0.07113049999999532
                },
                {
                    "name": "E4",
                    "midi": 64,
                    "time": 75.61172149999996,
                    "velocity": 0.2677165354330709,
                    "duration": 0.07113049999999532
                },
                {
                    "name": "G#3",
                    "midi": 56,
                    "time": 75.68285199999995,
                    "velocity": 0.3228346456692913,
                    "duration": 0.07113049999999532
                },
                {
                    "name": "E4",
                    "midi": 64,
                    "time": 75.75398249999995,
                    "velocity": 0.2755905511811024,
                    "duration": 0.07113049999999532
                },
                {
                    "name": "C#4",
                    "midi": 61,
                    "time": 75.82511299999994,
                    "velocity": 0.2755905511811024,
                    "duration": 0.07113049999999532
                },
                {
                    "name": "E4",
                    "midi": 64,
                    "time": 75.89624349999994,
                    "velocity": 0.28346456692913385,
                    "duration": 0.07113049999999532
                },
                {
                    "name": "A3",
                    "midi": 57,
                    "time": 75.96737399999994,
                    "velocity": 0.33070866141732286,
                    "duration": 0.07113049999999532
                },
                {
                    "name": "E4",
                    "midi": 64,
                    "time": 76.03850449999993,
                    "velocity": 0.2755905511811024,
                    "duration": 0.07113049999999532
                },
                {
                    "name": "C#4",
                    "midi": 61,
                    "time": 76.10963499999993,
                    "velocity": 0.29133858267716534,
                    "duration": 0.07113049999999532
                },
                {
                    "name": "E4",
                    "midi": 64,
                    "time": 76.18076549999992,
                    "velocity": 0.29133858267716534,
                    "duration": 0.07113049999999532
                },
                {
                    "name": "A3",
                    "midi": 57,
                    "time": 76.25189599999992,
                    "velocity": 0.28346456692913385,
                    "duration": 0.07113049999999532
                },
                {
                    "name": "E4",
                    "midi": 64,
                    "time": 76.32302649999991,
                    "velocity": 0.2283464566929134,
                    "duration": 0.07113049999999532
                },
                {
                    "name": "C#4",
                    "midi": 61,
                    "time": 76.39415699999991,
                    "velocity": 0.2283464566929134,
                    "duration": 0.07113049999999532
                },
                {
                    "name": "E4",
                    "midi": 64,
                    "time": 76.4652874999999,
                    "velocity": 0.2283464566929134,
                    "duration": 0.07113049999999532
                },
                {
                    "name": "A#3",
                    "midi": 58,
                    "time": 76.5364179999999,
                    "velocity": 0.28346456692913385,
                    "duration": 0.07113049999999532
                },
                {
                    "name": "E4",
                    "midi": 64,
                    "time": 76.6075484999999,
                    "velocity": 0.23622047244094488,
                    "duration": 0.07113049999999532
                },
                {
                    "name": "C#4",
                    "midi": 61,
                    "time": 76.67867899999989,
                    "velocity": 0.23622047244094488,
                    "duration": 0.07113049999999532
                },
                {
                    "name": "E4",
                    "midi": 64,
                    "time": 76.74980949999988,
                    "velocity": 0.2440944881889764,
                    "duration": 0.07113049999999532
                },
                {
                    "name": "A3",
                    "midi": 57,
                    "time": 76.82093999999988,
                    "velocity": 0.28346456692913385,
                    "duration": 0.07113049999999532
                },
                {
                    "name": "E4",
                    "midi": 64,
                    "time": 76.89207049999987,
                    "velocity": 0.2440944881889764,
                    "duration": 0.07113049999999532
                },
                {
                    "name": "C#4",
                    "midi": 61,
                    "time": 76.96320099999987,
                    "velocity": 0.2440944881889764,
                    "duration": 0.07113049999999532
                },
                {
                    "name": "E4",
                    "midi": 64,
                    "time": 77.03433149999987,
                    "velocity": 0.2440944881889764,
                    "duration": 0.07113049999999532
                },
                {
                    "name": "G3",
                    "midi": 55,
                    "time": 77.10546199999986,
                    "velocity": 0.28346456692913385,
                    "duration": 0.07113049999999532
                },
                {
                    "name": "E4",
                    "midi": 64,
                    "time": 77.17659249999986,
                    "velocity": 0.2440944881889764,
                    "duration": 0.07113049999999532
                },
                {
                    "name": "C#4",
                    "midi": 61,
                    "time": 77.24772299999985,
                    "velocity": 0.2440944881889764,
                    "duration": 0.07113049999999532
                },
                {
                    "name": "E4",
                    "midi": 64,
                    "time": 77.31885349999985,
                    "velocity": 0.2440944881889764,
                    "duration": 0.07113049999999532
                },
                {
                    "name": "F3",
                    "midi": 53,
                    "time": 77.38998399999984,
                    "velocity": 0.28346456692913385,
                    "duration": 0.07113049999999532
                },
                {
                    "name": "D4",
                    "midi": 62,
                    "time": 77.46111449999984,
                    "velocity": 0.2283464566929134,
                    "duration": 0.07113049999999532
                },
                {
                    "name": "A3",
                    "midi": 57,
                    "time": 77.53224499999983,
                    "velocity": 0.2283464566929134,
                    "duration": 0.07113049999999532
                },
                {
                    "name": "D4",
                    "midi": 62,
                    "time": 77.60337549999983,
                    "velocity": 0.2283464566929134,
                    "duration": 0.07113049999999532
                },
                {
                    "name": "E3",
                    "midi": 52,
                    "time": 77.67450599999982,
                    "velocity": 0.28346456692913385,
                    "duration": 0.07113049999999532
                },
                {
                    "name": "D4",
                    "midi": 62,
                    "time": 77.74563649999982,
                    "velocity": 0.23622047244094488,
                    "duration": 0.07113049999999532
                },
                {
                    "name": "G3",
                    "midi": 55,
                    "time": 77.81676699999981,
                    "velocity": 0.23622047244094488,
                    "duration": 0.07113049999999532
                },
                {
                    "name": "D4",
                    "midi": 62,
                    "time": 77.88789749999981,
                    "velocity": 0.2440944881889764,
                    "duration": 0.07113049999999532
                },
                {
                    "name": "D3",
                    "midi": 50,
                    "time": 77.9590279999998,
                    "velocity": 0.28346456692913385,
                    "duration": 0.07113049999999532
                },
                {
                    "name": "D4",
                    "midi": 62,
                    "time": 78.0301584999998,
                    "velocity": 0.2440944881889764,
                    "duration": 0.07113049999999532
                },
                {
                    "name": "F3",
                    "midi": 53,
                    "time": 78.1012889999998,
                    "velocity": 0.2440944881889764,
                    "duration": 0.07113049999999532
                },
                {
                    "name": "D4",
                    "midi": 62,
                    "time": 78.17241949999979,
                    "velocity": 0.2440944881889764,
                    "duration": 0.07113049999999532
                },
                {
                    "name": "F3",
                    "midi": 53,
                    "time": 78.24354999999979,
                    "velocity": 0.28346456692913385,
                    "duration": 0.07113049999999532
                },
                {
                    "name": "D4",
                    "midi": 62,
                    "time": 78.31468049999978,
                    "velocity": 0.2440944881889764,
                    "duration": 0.07113049999999532
                },
                {
                    "name": "A3",
                    "midi": 57,
                    "time": 78.38581099999978,
                    "velocity": 0.2440944881889764,
                    "duration": 0.07113049999999532
                },
                {
                    "name": "D4",
                    "midi": 62,
                    "time": 78.45694149999977,
                    "velocity": 0.2440944881889764,
                    "duration": 0.07113049999999532
                },
                {
                    "name": "A3",
                    "midi": 57,
                    "time": 78.52807199999977,
                    "velocity": 0.28346456692913385,
                    "duration": 0.07113049999999532
                },
                {
                    "name": "E4",
                    "midi": 64,
                    "time": 78.59920249999976,
                    "velocity": 0.2283464566929134,
                    "duration": 0.07113049999999532
                },
                {
                    "name": "C#4",
                    "midi": 61,
                    "time": 78.67033299999976,
                    "velocity": 0.2283464566929134,
                    "duration": 0.07113049999999532
                },
                {
                    "name": "E4",
                    "midi": 64,
                    "time": 78.74146349999975,
                    "velocity": 0.2283464566929134,
                    "duration": 0.07113049999999532
                },
                {
                    "name": "A#3",
                    "midi": 58,
                    "time": 78.81259399999975,
                    "velocity": 0.28346456692913385,
                    "duration": 0.07113049999999532
                },
                {
                    "name": "E4",
                    "midi": 64,
                    "time": 78.88372449999974,
                    "velocity": 0.23622047244094488,
                    "duration": 0.07113049999999532
                },
                {
                    "name": "C#4",
                    "midi": 61,
                    "time": 78.95485499999974,
                    "velocity": 0.23622047244094488,
                    "duration": 0.07113049999999532
                },
                {
                    "name": "E4",
                    "midi": 64,
                    "time": 79.02598549999973,
                    "velocity": 0.2440944881889764,
                    "duration": 0.07113049999999532
                },
                {
                    "name": "A3",
                    "midi": 57,
                    "time": 79.09711599999973,
                    "velocity": 0.28346456692913385,
                    "duration": 0.07113049999999532
                },
                {
                    "name": "E4",
                    "midi": 64,
                    "time": 79.16824649999973,
                    "velocity": 0.2440944881889764,
                    "duration": 0.07113049999999532
                },
                {
                    "name": "C#4",
                    "midi": 61,
                    "time": 79.23937699999972,
                    "velocity": 0.2440944881889764,
                    "duration": 0.07113049999999532
                },
                {
                    "name": "E4",
                    "midi": 64,
                    "time": 79.31050749999972,
                    "velocity": 0.2440944881889764,
                    "duration": 0.07113049999999532
                },
                {
                    "name": "G3",
                    "midi": 55,
                    "time": 79.38163799999971,
                    "velocity": 0.29133858267716534,
                    "duration": 0.07113049999999532
                },
                {
                    "name": "E4",
                    "midi": 64,
                    "time": 79.4527684999997,
                    "velocity": 0.25196850393700787,
                    "duration": 0.07113049999999532
                },
                {
                    "name": "C#4",
                    "midi": 61,
                    "time": 79.5238989999997,
                    "velocity": 0.25196850393700787,
                    "duration": 0.07113049999999532
                },
                {
                    "name": "E4",
                    "midi": 64,
                    "time": 79.5950294999997,
                    "velocity": 0.25196850393700787,
                    "duration": 0.07113049999999532
                },
                {
                    "name": "F3",
                    "midi": 53,
                    "time": 79.66615999999969,
                    "velocity": 0.29133858267716534,
                    "duration": 0.07113049999999532
                },
                {
                    "name": "F4",
                    "midi": 65,
                    "time": 79.73729049999969,
                    "velocity": 0.2440944881889764,
                    "duration": 0.07113049999999532
                },
                {
                    "name": "D4",
                    "midi": 62,
                    "time": 79.80842099999968,
                    "velocity": 0.25196850393700787,
                    "duration": 0.07113049999999532
                },
                {
                    "name": "F4",
                    "midi": 65,
                    "time": 79.87955149999968,
                    "velocity": 0.25196850393700787,
                    "duration": 0.07113049999999532
                },
                {
                    "name": "F3",
                    "midi": 53,
                    "time": 79.95068199999967,
                    "velocity": 0.30708661417322836,
                    "duration": 0.07113049999999532
                },
                {
                    "name": "F4",
                    "midi": 65,
                    "time": 80.02181249999967,
                    "velocity": 0.2677165354330709,
                    "duration": 0.07113049999999532
                },
                {
                    "name": "D4",
                    "midi": 62,
                    "time": 80.09294299999966,
                    "velocity": 0.2677165354330709,
                    "duration": 0.07113049999999532
                },
                {
                    "name": "F4",
                    "midi": 65,
                    "time": 80.16407349999966,
                    "velocity": 0.2755905511811024,
                    "duration": 0.07113049999999532
                },
                {
                    "name": "F3",
                    "midi": 53,
                    "time": 80.23520399999965,
                    "velocity": 0.33070866141732286,
                    "duration": 0.07113049999999532
                },
                {
                    "name": "F4",
                    "midi": 65,
                    "time": 80.30633449999965,
                    "velocity": 0.29133858267716534,
                    "duration": 0.07113049999999532
                },
                {
                    "name": "D4",
                    "midi": 62,
                    "time": 80.37746499999965,
                    "velocity": 0.29133858267716534,
                    "duration": 0.07113049999999532
                },
                {
                    "name": "F4",
                    "midi": 65,
                    "time": 80.44859549999964,
                    "velocity": 0.29133858267716534,
                    "duration": 0.07113049999999532
                },
                {
                    "name": "F3",
                    "midi": 53,
                    "time": 80.51972599999964,
                    "velocity": 0.3464566929133858,
                    "duration": 0.07113049999999532
                },
                {
                    "name": "G4",
                    "midi": 67,
                    "time": 80.59085649999963,
                    "velocity": 0.30708661417322836,
                    "duration": 0.07113049999999532
                },
                {
                    "name": "D#4",
                    "midi": 63,
                    "time": 80.66198699999963,
                    "velocity": 0.31496062992125984,
                    "duration": 0.07113049999999532
                },
                {
                    "name": "G4",
                    "midi": 67,
                    "time": 80.73311749999962,
                    "velocity": 0.31496062992125984,
                    "duration": 0.07113049999999532
                },
                {
                    "name": "F3",
                    "midi": 53,
                    "time": 80.80424799999962,
                    "velocity": 0.3779527559055118,
                    "duration": 0.07113049999999532
                },
                {
                    "name": "F4",
                    "midi": 65,
                    "time": 80.87537849999961,
                    "velocity": 0.2992125984251969,
                    "duration": 0.07113049999999532
                },
                {
                    "name": "D4",
                    "midi": 62,
                    "time": 80.94650899999961,
                    "velocity": 0.2992125984251969,
                    "duration": 0.07113049999999532
                },
                {
                    "name": "F4",
                    "midi": 65,
                    "time": 81.0176394999996,
                    "velocity": 0.2992125984251969,
                    "duration": 0.07113049999999532
                },
                {
                    "name": "F3",
                    "midi": 53,
                    "time": 81.0887699999996,
                    "velocity": 0.3700787401574803,
                    "duration": 0.07113049999999532
                },
                {
                    "name": "D#4",
                    "midi": 63,
                    "time": 81.1599004999996,
                    "velocity": 0.30708661417322836,
                    "duration": 0.07113049999999532
                },
                {
                    "name": "C4",
                    "midi": 60,
                    "time": 81.23103099999959,
                    "velocity": 0.30708661417322836,
                    "duration": 0.07113049999999532
                },
                {
                    "name": "D#4",
                    "midi": 63,
                    "time": 81.30216149999958,
                    "velocity": 0.30708661417322836,
                    "duration": 0.07113049999999532
                },
                {
                    "name": "F3",
                    "midi": 53,
                    "time": 81.37329199999958,
                    "velocity": 0.33070866141732286,
                    "duration": 0.07113049999999532
                },
                {
                    "name": "D4",
                    "midi": 62,
                    "time": 81.44442249999958,
                    "velocity": 0.28346456692913385,
                    "duration": 0.07113049999999532
                },
                {
                    "name": "A#3",
                    "midi": 58,
                    "time": 81.51555299999957,
                    "velocity": 0.28346456692913385,
                    "duration": 0.07113049999999532
                },
                {
                    "name": "D4",
                    "midi": 62,
                    "time": 81.58668349999957,
                    "velocity": 0.29133858267716534,
                    "duration": 0.07113049999999532
                },
                {
                    "name": "F3",
                    "midi": 53,
                    "time": 81.65781399999956,
                    "velocity": 0.33070866141732286,
                    "duration": 0.07113049999999532
                },
                {
                    "name": "C4",
                    "midi": 60,
                    "time": 81.72894449999956,
                    "velocity": 0.2755905511811024,
                    "duration": 0.07113049999999532
                },
                {
                    "name": "G#3",
                    "midi": 56,
                    "time": 81.80007499999955,
                    "velocity": 0.2755905511811024,
                    "duration": 0.07113049999999532
                },
                {
                    "name": "C4",
                    "midi": 60,
                    "time": 81.87120549999955,
                    "velocity": 0.2755905511811024,
                    "duration": 0.07113049999999532
                },
                {
                    "name": "F3",
                    "midi": 53,
                    "time": 81.94233599999954,
                    "velocity": 0.2755905511811024,
                    "duration": 0.07113049999999532
                },
                {
                    "name": "B3",
                    "midi": 59,
                    "time": 82.01346649999954,
                    "velocity": 0.2283464566929134,
                    "duration": 0.07113049999999532
                },
                {
                    "name": "G#3",
                    "midi": 56,
                    "time": 82.08459699999953,
                    "velocity": 0.2283464566929134,
                    "duration": 0.07113049999999532
                },
                {
                    "name": "B3",
                    "midi": 59,
                    "time": 82.15572749999953,
                    "velocity": 0.2283464566929134,
                    "duration": 0.07113049999999532
                },
                {
                    "name": "F3",
                    "midi": 53,
                    "time": 82.22685799999952,
                    "velocity": 0.2677165354330709,
                    "duration": 0.07113049999999532
                },
                {
                    "name": "B3",
                    "midi": 59,
                    "time": 82.29798849999952,
                    "velocity": 0.2283464566929134,
                    "duration": 0.07113049999999532
                },
                {
                    "name": "G#3",
                    "midi": 56,
                    "time": 82.36911899999951,
                    "velocity": 0.2283464566929134,
                    "duration": 0.07113049999999532
                },
                {
                    "name": "B3",
                    "midi": 59,
                    "time": 82.44024949999951,
                    "velocity": 0.2283464566929134,
                    "duration": 0.07113049999999532
                },
                {
                    "name": "F3",
                    "midi": 53,
                    "time": 82.5113799999995,
                    "velocity": 0.25984251968503935,
                    "duration": 0.07113049999999532
                },
                {
                    "name": "B3",
                    "midi": 59,
                    "time": 82.5825104999995,
                    "velocity": 0.2283464566929134,
                    "duration": 0.07113049999999532
                },
                {
                    "name": "G#3",
                    "midi": 56,
                    "time": 82.6536409999995,
                    "velocity": 0.2283464566929134,
                    "duration": 0.07113049999999532
                },
                {
                    "name": "B3",
                    "midi": 59,
                    "time": 82.72477149999949,
                    "velocity": 0.2283464566929134,
                    "duration": 0.07113049999999532
                },
                {
                    "name": "F3",
                    "midi": 53,
                    "time": 82.79590199999949,
                    "velocity": 0.25984251968503935,
                    "duration": 0.07113049999999532
                },
                {
                    "name": "B3",
                    "midi": 59,
                    "time": 82.86703249999948,
                    "velocity": 0.2283464566929134,
                    "duration": 0.07113049999999532
                },
                {
                    "name": "G#3",
                    "midi": 56,
                    "time": 82.93816299999948,
                    "velocity": 0.2283464566929134,
                    "duration": 0.07113049999999532
                },
                {
                    "name": "B3",
                    "midi": 59,
                    "time": 83.00929349999947,
                    "velocity": 0.2283464566929134,
                    "duration": 0.07113049999999532
                },
                {
                    "name": "F3",
                    "midi": 53,
                    "time": 83.08042399999947,
                    "velocity": 0.2440944881889764,
                    "duration": 0.07113049999999532
                },
                {
                    "name": "B3",
                    "midi": 59,
                    "time": 83.15155449999946,
                    "velocity": 0.2125984251968504,
                    "duration": 0.07113049999999532
                },
                {
                    "name": "G#3",
                    "midi": 56,
                    "time": 83.22268499999946,
                    "velocity": 0.2125984251968504,
                    "duration": 0.07113049999999532
                },
                {
                    "name": "B3",
                    "midi": 59,
                    "time": 83.29381549999945,
                    "velocity": 0.2125984251968504,
                    "duration": 0.07113049999999532
                },
                {
                    "name": "F3",
                    "midi": 53,
                    "time": 83.36494599999945,
                    "velocity": 0.25196850393700787,
                    "duration": 0.07113049999999532
                },
                {
                    "name": "B3",
                    "midi": 59,
                    "time": 83.43607649999944,
                    "velocity": 0.2125984251968504,
                    "duration": 0.07113049999999532
                },
                {
                    "name": "G#3",
                    "midi": 56,
                    "time": 83.50720699999944,
                    "velocity": 0.2125984251968504,
                    "duration": 0.07113049999999532
                },
                {
                    "name": "B3",
                    "midi": 59,
                    "time": 83.57833749999944,
                    "velocity": 0.2125984251968504,
                    "duration": 0.07113049999999532
                },
                {
                    "name": "E3",
                    "midi": 52,
                    "time": 83.64946799999943,
                    "velocity": 0.25196850393700787,
                    "duration": 0.07113049999999532
                },
                {
                    "name": "B3",
                    "midi": 59,
                    "time": 83.72059849999943,
                    "velocity": 0.2047244094488189,
                    "duration": 0.07113049999999532
                },
                {
                    "name": "G#3",
                    "midi": 56,
                    "time": 83.79172899999942,
                    "velocity": 0.2047244094488189,
                    "duration": 0.07113049999999532
                },
                {
                    "name": "B3",
                    "midi": 59,
                    "time": 83.86285949999942,
                    "velocity": 0.2047244094488189,
                    "duration": 0.07113049999999532
                },
                {
                    "name": "D3",
                    "midi": 50,
                    "time": 83.93398999999941,
                    "velocity": 0.2440944881889764,
                    "duration": 0.07113049999999532
                },
                {
                    "name": "B3",
                    "midi": 59,
                    "time": 84.0051204999994,
                    "velocity": 0.2047244094488189,
                    "duration": 0.07113049999999532
                },
                {
                    "name": "G#3",
                    "midi": 56,
                    "time": 84.0762509999994,
                    "velocity": 0.2047244094488189,
                    "duration": 0.07113049999999532
                },
                {
                    "name": "B3",
                    "midi": 59,
                    "time": 84.1473814999994,
                    "velocity": 0.2047244094488189,
                    "duration": 0.07113049999999532
                },
                {
                    "name": "C3",
                    "midi": 48,
                    "time": 84.2185119999994,
                    "velocity": 0.2440944881889764,
                    "duration": 0.07113049999999532
                },
                {
                    "name": "C4",
                    "midi": 60,
                    "time": 84.28964249999939,
                    "velocity": 0.1889763779527559,
                    "duration": 0.07113049999999532
                },
                {
                    "name": "A3",
                    "midi": 57,
                    "time": 84.36077299999938,
                    "velocity": 0.1889763779527559,
                    "duration": 0.07113049999999532
                },
                {
                    "name": "C4",
                    "midi": 60,
                    "time": 84.43190349999938,
                    "velocity": 0.1889763779527559,
                    "duration": 0.07113049999999532
                },
                {
                    "name": "C3",
                    "midi": 48,
                    "time": 84.50303399999937,
                    "velocity": 0.23622047244094488,
                    "duration": 0.07113049999999532
                },
                {
                    "name": "D4",
                    "midi": 62,
                    "time": 84.57416449999937,
                    "velocity": 0.1968503937007874,
                    "duration": 0.07113049999999532
                },
                {
                    "name": "A#3",
                    "midi": 58,
                    "time": 84.64529499999936,
                    "velocity": 0.1968503937007874,
                    "duration": 0.07113049999999532
                },
                {
                    "name": "D4",
                    "midi": 62,
                    "time": 84.71642549999936,
                    "velocity": 0.2047244094488189,
                    "duration": 0.07113049999999532
                },
                {
                    "name": "C3",
                    "midi": 48,
                    "time": 84.78755599999936,
                    "velocity": 0.2283464566929134,
                    "duration": 0.07113049999999532
                },
                {
                    "name": "C4",
                    "midi": 60,
                    "time": 84.85868649999935,
                    "velocity": 0.2047244094488189,
                    "duration": 0.07113049999999532
                },
                {
                    "name": "A3",
                    "midi": 57,
                    "time": 84.92981699999935,
                    "velocity": 0.2047244094488189,
                    "duration": 0.07113049999999532
                },
                {
                    "name": "C4",
                    "midi": 60,
                    "time": 85.00094749999934,
                    "velocity": 0.2047244094488189,
                    "duration": 0.07113049999999532
                },
                {
                    "name": "C3",
                    "midi": 48,
                    "time": 85.07207799999934,
                    "velocity": 0.23622047244094488,
                    "duration": 0.07113049999999532
                },
                {
                    "name": "D4",
                    "midi": 62,
                    "time": 85.14320849999933,
                    "velocity": 0.2047244094488189,
                    "duration": 0.07113049999999532
                },
                {
                    "name": "A#3",
                    "midi": 58,
                    "time": 85.21433899999933,
                    "velocity": 0.2047244094488189,
                    "duration": 0.07113049999999532
                },
                {
                    "name": "D4",
                    "midi": 62,
                    "time": 85.28546949999932,
                    "velocity": 0.2047244094488189,
                    "duration": 0.07113049999999532
                },
                {
                    "name": "C3",
                    "midi": 48,
                    "time": 85.35659999999932,
                    "velocity": 0.2440944881889764,
                    "duration": 0.07113049999999532
                },
                {
                    "name": "C4",
                    "midi": 60,
                    "time": 85.42773049999931,
                    "velocity": 0.1889763779527559,
                    "duration": 0.07113049999999532
                },
                {
                    "name": "A3",
                    "midi": 57,
                    "time": 85.49886099999931,
                    "velocity": 0.1889763779527559,
                    "duration": 0.07113049999999532
                },
                {
                    "name": "C4",
                    "midi": 60,
                    "time": 85.5699914999993,
                    "velocity": 0.1889763779527559,
                    "duration": 0.07113049999999532
                },
                {
                    "name": "C3",
                    "midi": 48,
                    "time": 85.6411219999993,
                    "velocity": 0.23622047244094488,
                    "duration": 0.07113049999999532
                },
                {
                    "name": "D4",
                    "midi": 62,
                    "time": 85.7122524999993,
                    "velocity": 0.1968503937007874,
                    "duration": 0.07113049999999532
                },
                {
                    "name": "A#3",
                    "midi": 58,
                    "time": 85.78338299999929,
                    "velocity": 0.1968503937007874,
                    "duration": 0.07113049999999532
                },
                {
                    "name": "D4",
                    "midi": 62,
                    "time": 85.85451349999929,
                    "velocity": 0.2047244094488189,
                    "duration": 0.07113049999999532
                },
                {
                    "name": "C3",
                    "midi": 48,
                    "time": 85.92564399999928,
                    "velocity": 0.2283464566929134,
                    "duration": 0.07113049999999532
                },
                {
                    "name": "C4",
                    "midi": 60,
                    "time": 85.99677449999928,
                    "velocity": 0.2047244094488189,
                    "duration": 0.07113049999999532
                },
                {
                    "name": "A3",
                    "midi": 57,
                    "time": 86.06790499999927,
                    "velocity": 0.2047244094488189,
                    "duration": 0.07113049999999532
                },
                {
                    "name": "C4",
                    "midi": 60,
                    "time": 86.13903549999927,
                    "velocity": 0.2047244094488189,
                    "duration": 0.07113049999999532
                },
                {
                    "name": "C3",
                    "midi": 48,
                    "time": 86.21016599999926,
                    "velocity": 0.23622047244094488,
                    "duration": 0.07113049999999532
                },
                {
                    "name": "D4",
                    "midi": 62,
                    "time": 86.28129649999926,
                    "velocity": 0.2047244094488189,
                    "duration": 0.07113049999999532
                },
                {
                    "name": "A#3",
                    "midi": 58,
                    "time": 86.35242699999925,
                    "velocity": 0.2047244094488189,
                    "duration": 0.07113049999999532
                },
                {
                    "name": "D4",
                    "midi": 62,
                    "time": 86.42355749999925,
                    "velocity": 0.2047244094488189,
                    "duration": 0.07113049999999532
                },
                {
                    "name": "C3",
                    "midi": 48,
                    "time": 86.49468799999924,
                    "velocity": 0.2440944881889764,
                    "duration": 0.07113049999999532
                },
                {
                    "name": "C4",
                    "midi": 60,
                    "time": 86.56581849999924,
                    "velocity": 0.1889763779527559,
                    "duration": 0.07113049999999532
                },
                {
                    "name": "A3",
                    "midi": 57,
                    "time": 86.63694899999923,
                    "velocity": 0.1889763779527559,
                    "duration": 0.07113049999999532
                },
                {
                    "name": "C4",
                    "midi": 60,
                    "time": 86.70807949999923,
                    "velocity": 0.1889763779527559,
                    "duration": 0.07113049999999532
                },
                {
                    "name": "C3",
                    "midi": 48,
                    "time": 86.77920999999922,
                    "velocity": 0.23622047244094488,
                    "duration": 0.07113049999999532
                },
                {
                    "name": "D4",
                    "midi": 62,
                    "time": 86.85034049999922,
                    "velocity": 0.2047244094488189,
                    "duration": 0.07113049999999532
                },
                {
                    "name": "A#3",
                    "midi": 58,
                    "time": 86.92147099999922,
                    "velocity": 0.2047244094488189,
                    "duration": 0.07113049999999532
                },
                {
                    "name": "D4",
                    "midi": 62,
                    "time": 86.99260149999921,
                    "velocity": 0.2125984251968504,
                    "duration": 0.07113049999999532
                },
                {
                    "name": "C3",
                    "midi": 48,
                    "time": 87.0637319999992,
                    "velocity": 0.23622047244094488,
                    "duration": 0.07113049999999532
                },
                {
                    "name": "C4",
                    "midi": 60,
                    "time": 87.1348624999992,
                    "velocity": 0.2125984251968504,
                    "duration": 0.07113049999999532
                },
                {
                    "name": "A3",
                    "midi": 57,
                    "time": 87.2059929999992,
                    "velocity": 0.2204724409448819,
                    "duration": 0.07113049999999532
                },
                {
                    "name": "C4",
                    "midi": 60,
                    "time": 87.27712349999919,
                    "velocity": 0.2204724409448819,
                    "duration": 0.07113049999999532
                },
                {
                    "name": "C3",
                    "midi": 48,
                    "time": 87.34825399999919,
                    "velocity": 0.25984251968503935,
                    "duration": 0.07113049999999532
                },
                {
                    "name": "D4",
                    "midi": 62,
                    "time": 87.41938449999918,
                    "velocity": 0.2204724409448819,
                    "duration": 0.07113049999999532
                },
                {
                    "name": "A#3",
                    "midi": 58,
                    "time": 87.49051499999918,
                    "velocity": 0.2204724409448819,
                    "duration": 0.07113049999999532
                },
                {
                    "name": "D4",
                    "midi": 62,
                    "time": 87.56164549999917,
                    "velocity": 0.2204724409448819,
                    "duration": 0.07113049999999532
                },
                {
                    "name": "C3",
                    "midi": 48,
                    "time": 87.63277599999917,
                    "velocity": 0.2677165354330709,
                    "duration": 0.07113049999999532
                },
                {
                    "name": "C4",
                    "midi": 60,
                    "time": 87.70390649999916,
                    "velocity": 0.2047244094488189,
                    "duration": 0.07113049999999532
                },
                {
                    "name": "A3",
                    "midi": 57,
                    "time": 87.77503699999916,
                    "velocity": 0.2047244094488189,
                    "duration": 0.07113049999999532
                },
                {
                    "name": "C4",
                    "midi": 60,
                    "time": 87.84616749999915,
                    "velocity": 0.2047244094488189,
                    "duration": 0.07113049999999532
                },
                {
                    "name": "C3",
                    "midi": 48,
                    "time": 87.91729799999915,
                    "velocity": 0.25984251968503935,
                    "duration": 0.07113049999999532
                },
                {
                    "name": "D4",
                    "midi": 62,
                    "time": 87.98842849999915,
                    "velocity": 0.2125984251968504,
                    "duration": 0.07113049999999532
                },
                {
                    "name": "A#3",
                    "midi": 58,
                    "time": 88.05955899999914,
                    "velocity": 0.2125984251968504,
                    "duration": 0.07113049999999532
                },
                {
                    "name": "D4",
                    "midi": 62,
                    "time": 88.13068949999914,
                    "velocity": 0.2204724409448819,
                    "duration": 0.07113049999999532
                },
                {
                    "name": "C3",
                    "midi": 48,
                    "time": 88.20181999999913,
                    "velocity": 0.2440944881889764,
                    "duration": 0.07113049999999532
                },
                {
                    "name": "C4",
                    "midi": 60,
                    "time": 88.27295049999913,
                    "velocity": 0.2204724409448819,
                    "duration": 0.07113049999999532
                },
                {
                    "name": "A3",
                    "midi": 57,
                    "time": 88.34408099999912,
                    "velocity": 0.2204724409448819,
                    "duration": 0.07113049999999532
                },
                {
                    "name": "C4",
                    "midi": 60,
                    "time": 88.41521149999912,
                    "velocity": 0.2204724409448819,
                    "duration": 0.07113049999999532
                },
                {
                    "name": "C3",
                    "midi": 48,
                    "time": 88.48634199999911,
                    "velocity": 0.28346456692913385,
                    "duration": 0.07113049999999532
                },
                {
                    "name": "D4",
                    "midi": 62,
                    "time": 88.55747249999911,
                    "velocity": 0.23622047244094488,
                    "duration": 0.07113049999999532
                },
                {
                    "name": "A#3",
                    "midi": 58,
                    "time": 88.6286029999991,
                    "velocity": 0.23622047244094488,
                    "duration": 0.07113049999999532
                },
                {
                    "name": "D4",
                    "midi": 62,
                    "time": 88.6997334999991,
                    "velocity": 0.23622047244094488,
                    "duration": 0.07113049999999532
                },
                {
                    "name": "C3",
                    "midi": 48,
                    "time": 88.7708639999991,
                    "velocity": 0.33070866141732286,
                    "duration": 0.07113049999999532
                },
                {
                    "name": "C4",
                    "midi": 60,
                    "time": 88.84199449999909,
                    "velocity": 0.2755905511811024,
                    "duration": 0.07113049999999532
                },
                {
                    "name": "A3",
                    "midi": 57,
                    "time": 88.91312499999908,
                    "velocity": 0.2755905511811024,
                    "duration": 0.07113049999999532
                },
                {
                    "name": "C4",
                    "midi": 60,
                    "time": 88.98425549999908,
                    "velocity": 0.2755905511811024,
                    "duration": 0.07113049999999532
                },
                {
                    "name": "C3",
                    "midi": 48,
                    "time": 89.05538599999907,
                    "velocity": 0.3464566929133858,
                    "duration": 0.07113049999999532
                },
                {
                    "name": "D4",
                    "midi": 62,
                    "time": 89.12651649999907,
                    "velocity": 0.29133858267716534,
                    "duration": 0.07113049999999532
                },
                {
                    "name": "A#3",
                    "midi": 58,
                    "time": 89.19764699999907,
                    "velocity": 0.2992125984251969,
                    "duration": 0.07113049999999532
                },
                {
                    "name": "D4",
                    "midi": 62,
                    "time": 89.26877749999906,
                    "velocity": 0.29133858267716534,
                    "duration": 0.07113049999999532
                },
                {
                    "name": "C3",
                    "midi": 48,
                    "time": 89.33990799999906,
                    "velocity": 0.3700787401574803,
                    "duration": 0.07113049999999532
                },
                {
                    "name": "C4",
                    "midi": 60,
                    "time": 89.41103849999905,
                    "velocity": 0.29133858267716534,
                    "duration": 0.07113049999999532
                },
                {
                    "name": "A3",
                    "midi": 57,
                    "time": 89.48216899999905,
                    "velocity": 0.2992125984251969,
                    "duration": 0.07113049999999532
                },
                {
                    "name": "C4",
                    "midi": 60,
                    "time": 89.55329949999904,
                    "velocity": 0.2992125984251969,
                    "duration": 0.07113049999999532
                },
                {
                    "name": "C3",
                    "midi": 48,
                    "time": 89.62442999999904,
                    "velocity": 0.3858267716535433,
                    "duration": 0.07113049999999532
                },
                {
                    "name": "C4",
                    "midi": 60,
                    "time": 89.69556049999903,
                    "velocity": 0.31496062992125984,
                    "duration": 0.07113049999999532
                },
                {
                    "name": "A#3",
                    "midi": 58,
                    "time": 89.76669099999903,
                    "velocity": 0.31496062992125984,
                    "duration": 0.07113049999999532
                },
                {
                    "name": "C4",
                    "midi": 60,
                    "time": 89.83782149999902,
                    "velocity": 0.31496062992125984,
                    "duration": 0.07113049999999532
                },
                {
                    "name": "C3",
                    "midi": 48,
                    "time": 89.90895199999902,
                    "velocity": 0.3228346456692913,
                    "duration": 1.1380879999999962
                },
                {
                    "name": "C4",
                    "midi": 60,
                    "time": 89.90895199999902,
                    "velocity": 0.3858267716535433,
                    "duration": 1.1380879999999962
                },
                {
                    "name": "A#3",
                    "midi": 58,
                    "time": 89.90895199999902,
                    "velocity": 0.3228346456692913,
                    "duration": 1.1380879999999962
                },
                {
                    "name": "F3",
                    "midi": 53,
                    "time": 91.04703999999901,
                    "velocity": 0.25196850393700787,
                    "duration": 0.2845219999999955
                },
                {
                    "name": "A3",
                    "midi": 57,
                    "time": 91.04703999999901,
                    "velocity": 0.25196850393700787,
                    "duration": 0.2845219999999955
                },
                {
                    "name": "C4",
                    "midi": 60,
                    "time": 91.04703999999901,
                    "velocity": 0.2992125984251969,
                    "duration": 0.2845219999999955
                },
                {
                    "name": "F3",
                    "midi": 53,
                    "time": 91.616083999999,
                    "velocity": 0.2283464566929134,
                    "duration": 0.14226100000000486
                },
                {
                    "name": "A3",
                    "midi": 57,
                    "time": 91.616083999999,
                    "velocity": 0.2283464566929134,
                    "duration": 0.14226100000000486
                },
                {
                    "name": "C4",
                    "midi": 60,
                    "time": 91.616083999999,
                    "velocity": 0.2755905511811024,
                    "duration": 0.14226100000000486
                },
                {
                    "name": "F3",
                    "midi": 53,
                    "time": 91.90060599999902,
                    "velocity": 0.2283464566929134,
                    "duration": 0.14226100000000486
                },
                {
                    "name": "C4",
                    "midi": 60,
                    "time": 91.90060599999902,
                    "velocity": 0.2283464566929134,
                    "duration": 0.14226100000000486
                },
                {
                    "name": "D#4",
                    "midi": 63,
                    "time": 91.90060599999902,
                    "velocity": 0.2755905511811024,
                    "duration": 0.14226100000000486
                },
                {
                    "name": "F3",
                    "midi": 53,
                    "time": 92.18512799999903,
                    "velocity": 0.25196850393700787,
                    "duration": 0.2845219999999955
                },
                {
                    "name": "A#3",
                    "midi": 58,
                    "time": 92.18512799999903,
                    "velocity": 0.25196850393700787,
                    "duration": 0.2845219999999955
                },
                {
                    "name": "D4",
                    "midi": 62,
                    "time": 92.18512799999903,
                    "velocity": 0.2992125984251969,
                    "duration": 0.2845219999999955
                },
                {
                    "name": "F3",
                    "midi": 53,
                    "time": 92.75417199999902,
                    "velocity": 0.2283464566929134,
                    "duration": 0.14226100000000486
                },
                {
                    "name": "A#3",
                    "midi": 58,
                    "time": 92.75417199999902,
                    "velocity": 0.2283464566929134,
                    "duration": 0.14226100000000486
                },
                {
                    "name": "D4",
                    "midi": 62,
                    "time": 92.75417199999902,
                    "velocity": 0.2755905511811024,
                    "duration": 0.14226100000000486
                },
                {
                    "name": "F3",
                    "midi": 53,
                    "time": 93.03869399999903,
                    "velocity": 0.2283464566929134,
                    "duration": 0.14226100000000486
                },
                {
                    "name": "D4",
                    "midi": 62,
                    "time": 93.03869399999903,
                    "velocity": 0.2283464566929134,
                    "duration": 0.14226100000000486
                },
                {
                    "name": "F4",
                    "midi": 65,
                    "time": 93.03869399999903,
                    "velocity": 0.2755905511811024,
                    "duration": 0.14226100000000486
                },
                {
                    "name": "F3",
                    "midi": 53,
                    "time": 93.32321599999904,
                    "velocity": 0.25196850393700787,
                    "duration": 0.2845219999999955
                },
                {
                    "name": "A3",
                    "midi": 57,
                    "time": 93.32321599999904,
                    "velocity": 0.25196850393700787,
                    "duration": 0.2845219999999955
                },
                {
                    "name": "C4",
                    "midi": 60,
                    "time": 93.32321599999904,
                    "velocity": 0.2992125984251969,
                    "duration": 0.2845219999999955
                },
                {
                    "name": "F3",
                    "midi": 53,
                    "time": 93.89225999999903,
                    "velocity": 0.2283464566929134,
                    "duration": 0.14226100000000486
                },
                {
                    "name": "A3",
                    "midi": 57,
                    "time": 93.89225999999903,
                    "velocity": 0.2755905511811024,
                    "duration": 0.14226100000000486
                },
                {
                    "name": "A3",
                    "midi": 57,
                    "time": 94.17678199999904,
                    "velocity": 0.2283464566929134,
                    "duration": 0.14226100000000486
                },
                {
                    "name": "C4",
                    "midi": 60,
                    "time": 94.17678199999904,
                    "velocity": 0.2755905511811024,
                    "duration": 0.14226100000000486
                },
                {
                    "name": "C3",
                    "midi": 48,
                    "time": 94.46130399999905,
                    "velocity": 0.2283464566929134,
                    "duration": 0.14226100000000486
                },
                {
                    "name": "A3",
                    "midi": 57,
                    "time": 94.46130399999905,
                    "velocity": 0.2283464566929134,
                    "duration": 0.14226100000000486
                },
                {
                    "name": "C4",
                    "midi": 60,
                    "time": 94.46130399999905,
                    "velocity": 0.2755905511811024,
                    "duration": 0.14226100000000486
                },
                {
                    "name": "C3",
                    "midi": 48,
                    "time": 94.74582599999906,
                    "velocity": 0.2204724409448819,
                    "duration": 0.14226100000000486
                },
                {
                    "name": "D4",
                    "midi": 62,
                    "time": 94.74582599999906,
                    "velocity": 0.2677165354330709,
                    "duration": 0.14226100000000486
                },
                {
                    "name": "A#3",
                    "midi": 58,
                    "time": 94.74582599999906,
                    "velocity": 0.2204724409448819,
                    "duration": 0.14226100000000486
                },
                {
                    "name": "C3",
                    "midi": 48,
                    "time": 95.03034799999907,
                    "velocity": 0.2204724409448819,
                    "duration": 0.14226100000000486
                },
                {
                    "name": "A3",
                    "midi": 57,
                    "time": 95.03034799999907,
                    "velocity": 0.2204724409448819,
                    "duration": 0.14226100000000486
                },
                {
                    "name": "C4",
                    "midi": 60,
                    "time": 95.03034799999907,
                    "velocity": 0.25984251968503935,
                    "duration": 0.14226100000000486
                },
                {
                    "name": "C3",
                    "midi": 48,
                    "time": 95.31486999999908,
                    "velocity": 0.2204724409448819,
                    "duration": 0.14226100000000486
                },
                {
                    "name": "G3",
                    "midi": 55,
                    "time": 95.31486999999908,
                    "velocity": 0.2204724409448819,
                    "duration": 0.14226100000000486
                },
                {
                    "name": "A#3",
                    "midi": 58,
                    "time": 95.31486999999908,
                    "velocity": 0.2677165354330709,
                    "duration": 0.14226100000000486
                },
                {
                    "name": "C3",
                    "midi": 48,
                    "time": 95.59939199999909,
                    "velocity": 0.2283464566929134,
                    "duration": 0.14226100000000486
                },
                {
                    "name": "F#3",
                    "midi": 54,
                    "time": 95.59939199999909,
                    "velocity": 0.2283464566929134,
                    "duration": 0.14226100000000486
                },
                {
                    "name": "A3",
                    "midi": 57,
                    "time": 95.59939199999909,
                    "velocity": 0.2755905511811024,
                    "duration": 0.14226100000000486
                },
                {
                    "name": "C3",
                    "midi": 48,
                    "time": 95.8839139999991,
                    "velocity": 0.2204724409448819,
                    "duration": 0.14226100000000486
                },
                {
                    "name": "A3",
                    "midi": 57,
                    "time": 95.8839139999991,
                    "velocity": 0.2755905511811024,
                    "duration": 0.14226100000000486
                },
                {
                    "name": "F#3",
                    "midi": 54,
                    "time": 95.8839139999991,
                    "velocity": 0.2204724409448819,
                    "duration": 0.14226100000000486
                },
                {
                    "name": "C3",
                    "midi": 48,
                    "time": 96.1684359999991,
                    "velocity": 0.2283464566929134,
                    "duration": 0.14226100000000486
                },
                {
                    "name": "F#3",
                    "midi": 54,
                    "time": 96.1684359999991,
                    "velocity": 0.2283464566929134,
                    "duration": 0.14226100000000486
                },
                {
                    "name": "A3",
                    "midi": 57,
                    "time": 96.1684359999991,
                    "velocity": 0.2755905511811024,
                    "duration": 0.14226100000000486
                },
                {
                    "name": "C3",
                    "midi": 48,
                    "time": 96.45295799999911,
                    "velocity": 0.2440944881889764,
                    "duration": 0.14226100000000486
                },
                {
                    "name": "F#3",
                    "midi": 54,
                    "time": 96.45295799999911,
                    "velocity": 0.2440944881889764,
                    "duration": 0.14226100000000486
                },
                {
                    "name": "A3",
                    "midi": 57,
                    "time": 96.45295799999911,
                    "velocity": 0.29133858267716534,
                    "duration": 0.14226100000000486
                },
                {
                    "name": "A#2",
                    "midi": 46,
                    "time": 96.73747999999912,
                    "velocity": 0.25984251968503935,
                    "duration": 0.14226100000000486
                },
                {
                    "name": "F3",
                    "midi": 53,
                    "time": 96.73747999999912,
                    "velocity": 0.25984251968503935,
                    "duration": 0.14226100000000486
                },
                {
                    "name": "A#3",
                    "midi": 58,
                    "time": 96.73747999999912,
                    "velocity": 0.31496062992125984,
                    "duration": 0.14226100000000486
                },
                {
                    "name": "A#2",
                    "midi": 46,
                    "time": 97.02200199999913,
                    "velocity": 0.2440944881889764,
                    "duration": 0.14226100000000486
                },
                {
                    "name": "A#3",
                    "midi": 58,
                    "time": 97.02200199999913,
                    "velocity": 0.2992125984251969,
                    "duration": 0.14226100000000486
                },
                {
                    "name": "F3",
                    "midi": 53,
                    "time": 97.02200199999913,
                    "velocity": 0.2440944881889764,
                    "duration": 0.14226100000000486
                },
                {
                    "name": "C3",
                    "midi": 48,
                    "time": 97.30652399999914,
                    "velocity": 0.2440944881889764,
                    "duration": 0.14226100000000486
                },
                {
                    "name": "F3",
                    "midi": 53,
                    "time": 97.30652399999914,
                    "velocity": 0.2440944881889764,
                    "duration": 0.14226100000000486
                },
                {
                    "name": "A3",
                    "midi": 57,
                    "time": 97.30652399999914,
                    "velocity": 0.29133858267716534,
                    "duration": 0.14226100000000486
                },
                {
                    "name": "C3",
                    "midi": 48,
                    "time": 97.59104599999915,
                    "velocity": 0.2440944881889764,
                    "duration": 0.14226100000000486
                },
                {
                    "name": "G3",
                    "midi": 55,
                    "time": 97.59104599999915,
                    "velocity": 0.2440944881889764,
                    "duration": 0.14226100000000486
                },
                {
                    "name": "A#3",
                    "midi": 58,
                    "time": 97.59104599999915,
                    "velocity": 0.2992125984251969,
                    "duration": 0.14226100000000486
                },
                {
                    "name": "F3",
                    "midi": 53,
                    "time": 97.87556799999916,
                    "velocity": 0.3700787401574803,
                    "duration": 0.0948406666666699
                },
                {
                    "name": "C4",
                    "midi": 60,
                    "time": 97.97040866666583,
                    "velocity": 0.3464566929133858,
                    "duration": 0.0948406666666699
                },
                {
                    "name": "A3",
                    "midi": 57,
                    "time": 98.0652493333325,
                    "velocity": 0.3464566929133858,
                    "duration": 0.04742033333333495
                },
                {
                    "name": "F3",
                    "midi": 53,
                    "time": 98.16008999999917,
                    "velocity": 0.3700787401574803,
                    "duration": 0.04742033333333495
                },
                {
                    "name": "C3",
                    "midi": 48,
                    "time": 98.25493066666584,
                    "velocity": 0.33858267716535434,
                    "duration": 0.04742033333333495
                },
                {
                    "name": "A2",
                    "midi": 45,
                    "time": 98.34977133333251,
                    "velocity": 0.3228346456692913,
                    "duration": 0.04742033333333495
                },
                {
                    "name": "F2",
                    "midi": 41,
                    "time": 98.44461199999918,
                    "velocity": 0.3543307086614173,
                    "duration": 0.04742033333333495
                },
                {
                    "name": "A2",
                    "midi": 45,
                    "time": 98.53945266666585,
                    "velocity": 0.3228346456692913,
                    "duration": 0.04742033333333495
                },
                {
                    "name": "C3",
                    "midi": 48,
                    "time": 98.63429333333252,
                    "velocity": 0.3228346456692913,
                    "duration": 0.04742033333333495
                },
                {
                    "name": "A2",
                    "midi": 45,
                    "time": 98.72913399999919,
                    "velocity": 0.3700787401574803,
                    "duration": 0.04742033333333495
                },
                {
                    "name": "C3",
                    "midi": 48,
                    "time": 98.82397466666586,
                    "velocity": 0.3543307086614173,
                    "duration": 0.04742033333333495
                },
                {
                    "name": "F3",
                    "midi": 53,
                    "time": 98.91881533333253,
                    "velocity": 0.3543307086614173,
                    "duration": 0.04742033333333495
                },
                {
                    "name": "F3",
                    "midi": 53,
                    "time": 99.0136559999992,
                    "velocity": 0.3700787401574803,
                    "duration": 0.0948406666666699
                },
                {
                    "name": "D4",
                    "midi": 62,
                    "time": 99.10849666666587,
                    "velocity": 0.3464566929133858,
                    "duration": 0.0948406666666699
                },
                {
                    "name": "A#3",
                    "midi": 58,
                    "time": 99.20333733333254,
                    "velocity": 0.3464566929133858,
                    "duration": 0.04742033333333495
                },
                {
                    "name": "F3",
                    "midi": 53,
                    "time": 99.29817799999921,
                    "velocity": 0.3700787401574803,
                    "duration": 0.04742033333333495
                },
                {
                    "name": "D3",
                    "midi": 50,
                    "time": 99.39301866666588,
                    "velocity": 0.33858267716535434,
                    "duration": 0.04742033333333495
                },
                {
                    "name": "A#2",
                    "midi": 46,
                    "time": 99.48785933333255,
                    "velocity": 0.3228346456692913,
                    "duration": 0.04742033333333495
                },
                {
                    "name": "F2",
                    "midi": 41,
                    "time": 99.58269999999922,
                    "velocity": 0.3543307086614173,
                    "duration": 0.04742033333333495
                },
                {
                    "name": "A#2",
                    "midi": 46,
                    "time": 99.67754066666589,
                    "velocity": 0.3228346456692913,
                    "duration": 0.04742033333333495
                },
                {
                    "name": "D3",
                    "midi": 50,
                    "time": 99.77238133333256,
                    "velocity": 0.3228346456692913,
                    "duration": 0.04742033333333495
                },
                {
                    "name": "A#2",
                    "midi": 46,
                    "time": 99.86722199999923,
                    "velocity": 0.3700787401574803,
                    "duration": 0.04742033333333495
                },
                {
                    "name": "D3",
                    "midi": 50,
                    "time": 99.9620626666659,
                    "velocity": 0.3543307086614173,
                    "duration": 0.04742033333333495
                },
                {
                    "name": "F3",
                    "midi": 53,
                    "time": 100.05690333333257,
                    "velocity": 0.3543307086614173,
                    "duration": 0.04742033333333495
                },
                {
                    "name": "F3",
                    "midi": 53,
                    "time": 100.15174399999924,
                    "velocity": 0.3700787401574803,
                    "duration": 0.0948406666666699
                },
                {
                    "name": "F4",
                    "midi": 65,
                    "time": 100.24658466666591,
                    "velocity": 0.3464566929133858,
                    "duration": 0.0948406666666699
                },
                {
                    "name": "C4",
                    "midi": 60,
                    "time": 100.34142533333258,
                    "velocity": 0.3464566929133858,
                    "duration": 0.04742033333333495
                },
                {
                    "name": "A3",
                    "midi": 57,
                    "time": 100.43626599999925,
                    "velocity": 0.3700787401574803,
                    "duration": 0.04742033333333495
                },
                {
                    "name": "F3",
                    "midi": 53,
                    "time": 100.53110666666592,
                    "velocity": 0.33858267716535434,
                    "duration": 0.04742033333333495
                },
                {
                    "name": "C3",
                    "midi": 48,
                    "time": 100.62594733333259,
                    "velocity": 0.3228346456692913,
                    "duration": 0.04742033333333495
                },
                {
                    "name": "A2",
                    "midi": 45,
                    "time": 100.72078799999926,
                    "velocity": 0.3543307086614173,
                    "duration": 0.04742033333333495
                },
                {
                    "name": "F2",
                    "midi": 41,
                    "time": 100.81562866666593,
                    "velocity": 0.3228346456692913,
                    "duration": 0.04742033333333495
                },
                {
                    "name": "C2",
                    "midi": 36,
                    "time": 100.9104693333326,
                    "velocity": 0.3228346456692913,
                    "duration": 0.04742033333333495
                },
                {
                    "name": "F2",
                    "midi": 41,
                    "time": 101.00530999999927,
                    "velocity": 0.3700787401574803,
                    "duration": 0.04742033333333495
                },
                {
                    "name": "A2",
                    "midi": 45,
                    "time": 101.10015066666594,
                    "velocity": 0.3543307086614173,
                    "duration": 0.04742033333333495
                },
                {
                    "name": "C3",
                    "midi": 48,
                    "time": 101.19499133333261,
                    "velocity": 0.3543307086614173,
                    "duration": 0.04742033333333495
                },
                {
                    "name": "C3",
                    "midi": 48,
                    "time": 101.28983199999928,
                    "velocity": 0.2283464566929134,
                    "duration": 0.14226100000000486
                },
                {
                    "name": "A3",
                    "midi": 57,
                    "time": 101.28983199999928,
                    "velocity": 0.2283464566929134,
                    "duration": 0.14226100000000486
                },
                {
                    "name": "C4",
                    "midi": 60,
                    "time": 101.28983199999928,
                    "velocity": 0.2755905511811024,
                    "duration": 0.14226100000000486
                },
                {
                    "name": "C4",
                    "midi": 60,
                    "time": 101.57435399999929,
                    "velocity": 0.2204724409448819,
                    "duration": 0.14226100000000486
                },
                {
                    "name": "D5",
                    "midi": 74,
                    "time": 101.57435399999929,
                    "velocity": 0.2677165354330709,
                    "duration": 0.14226100000000486
                },
                {
                    "name": "A#4",
                    "midi": 70,
                    "time": 101.57435399999929,
                    "velocity": 0.2204724409448819,
                    "duration": 0.14226100000000486
                },
                {
                    "name": "C4",
                    "midi": 60,
                    "time": 101.8588759999993,
                    "velocity": 0.2204724409448819,
                    "duration": 0.14226100000000486
                },
                {
                    "name": "A4",
                    "midi": 69,
                    "time": 101.8588759999993,
                    "velocity": 0.2204724409448819,
                    "duration": 0.14226100000000486
                },
                {
                    "name": "C5",
                    "midi": 72,
                    "time": 101.8588759999993,
                    "velocity": 0.25984251968503935,
                    "duration": 0.14226100000000486
                },
                {
                    "name": "C4",
                    "midi": 60,
                    "time": 102.14339799999931,
                    "velocity": 0.2204724409448819,
                    "duration": 0.14226100000000486
                },
                {
                    "name": "G4",
                    "midi": 67,
                    "time": 102.14339799999931,
                    "velocity": 0.2204724409448819,
                    "duration": 0.14226100000000486
                },
                {
                    "name": "A#4",
                    "midi": 70,
                    "time": 102.14339799999931,
                    "velocity": 0.2677165354330709,
                    "duration": 0.14226100000000486
                },
                {
                    "name": "C4",
                    "midi": 60,
                    "time": 102.42791999999932,
                    "velocity": 0.2283464566929134,
                    "duration": 0.14226100000000486
                },
                {
                    "name": "F#4",
                    "midi": 66,
                    "time": 102.42791999999932,
                    "velocity": 0.2283464566929134,
                    "duration": 0.14226100000000486
                },
                {
                    "name": "A4",
                    "midi": 69,
                    "time": 102.42791999999932,
                    "velocity": 0.2755905511811024,
                    "duration": 0.14226100000000486
                },
                {
                    "name": "C4",
                    "midi": 60,
                    "time": 102.71244199999933,
                    "velocity": 0.2204724409448819,
                    "duration": 0.14226100000000486
                },
                {
                    "name": "A4",
                    "midi": 69,
                    "time": 102.71244199999933,
                    "velocity": 0.2755905511811024,
                    "duration": 0.14226100000000486
                },
                {
                    "name": "F#4",
                    "midi": 66,
                    "time": 102.71244199999933,
                    "velocity": 0.2204724409448819,
                    "duration": 0.14226100000000486
                },
                {
                    "name": "C4",
                    "midi": 60,
                    "time": 102.99696399999934,
                    "velocity": 0.2283464566929134,
                    "duration": 0.14226100000000486
                },
                {
                    "name": "F#4",
                    "midi": 66,
                    "time": 102.99696399999934,
                    "velocity": 0.2283464566929134,
                    "duration": 0.14226100000000486
                },
                {
                    "name": "A4",
                    "midi": 69,
                    "time": 102.99696399999934,
                    "velocity": 0.2755905511811024,
                    "duration": 0.14226100000000486
                },
                {
                    "name": "C4",
                    "midi": 60,
                    "time": 103.28148599999935,
                    "velocity": 0.2440944881889764,
                    "duration": 0.14226100000000486
                },
                {
                    "name": "F#4",
                    "midi": 66,
                    "time": 103.28148599999935,
                    "velocity": 0.2440944881889764,
                    "duration": 0.14226100000000486
                },
                {
                    "name": "A4",
                    "midi": 69,
                    "time": 103.28148599999935,
                    "velocity": 0.29133858267716534,
                    "duration": 0.14226100000000486
                },
                {
                    "name": "A#3",
                    "midi": 58,
                    "time": 103.56600799999936,
                    "velocity": 0.25984251968503935,
                    "duration": 0.14226100000000486
                },
                {
                    "name": "F4",
                    "midi": 65,
                    "time": 103.56600799999936,
                    "velocity": 0.25984251968503935,
                    "duration": 0.14226100000000486
                },
                {
                    "name": "A#4",
                    "midi": 70,
                    "time": 103.56600799999936,
                    "velocity": 0.31496062992125984,
                    "duration": 0.14226100000000486
                },
                {
                    "name": "A#3",
                    "midi": 58,
                    "time": 103.85052999999937,
                    "velocity": 0.2440944881889764,
                    "duration": 0.14226100000000486
                },
                {
                    "name": "A#4",
                    "midi": 70,
                    "time": 103.85052999999937,
                    "velocity": 0.2992125984251969,
                    "duration": 0.14226100000000486
                },
                {
                    "name": "F4",
                    "midi": 65,
                    "time": 103.85052999999937,
                    "velocity": 0.2440944881889764,
                    "duration": 0.14226100000000486
                },
                {
                    "name": "C4",
                    "midi": 60,
                    "time": 104.13505199999938,
                    "velocity": 0.2440944881889764,
                    "duration": 0.14226100000000486
                },
                {
                    "name": "F4",
                    "midi": 65,
                    "time": 104.13505199999938,
                    "velocity": 0.2440944881889764,
                    "duration": 0.14226100000000486
                },
                {
                    "name": "A4",
                    "midi": 69,
                    "time": 104.13505199999938,
                    "velocity": 0.29133858267716534,
                    "duration": 0.14226100000000486
                },
                {
                    "name": "C4",
                    "midi": 60,
                    "time": 104.41957399999939,
                    "velocity": 0.2440944881889764,
                    "duration": 0.14226100000000486
                },
                {
                    "name": "G4",
                    "midi": 67,
                    "time": 104.41957399999939,
                    "velocity": 0.2440944881889764,
                    "duration": 0.14226100000000486
                },
                {
                    "name": "A#4",
                    "midi": 70,
                    "time": 104.41957399999939,
                    "velocity": 0.2992125984251969,
                    "duration": 0.14226100000000486
                },
                {
                    "name": "A#2",
                    "midi": 46,
                    "time": 104.7040959999994,
                    "velocity": 0.2047244094488189,
                    "duration": 0.14226100000000486
                },
                {
                    "name": "E3",
                    "midi": 52,
                    "time": 104.7040959999994,
                    "velocity": 0.2047244094488189,
                    "duration": 0.14226100000000486
                },
                {
                    "name": "G3",
                    "midi": 55,
                    "time": 104.7040959999994,
                    "velocity": 0.2440944881889764,
                    "duration": 0.14226100000000486
                },
                {
                    "name": "A#2",
                    "midi": 46,
                    "time": 104.9886179999994,
                    "velocity": 0.1968503937007874,
                    "duration": 0.14226100000000486
                },
                {
                    "name": "G3",
                    "midi": 55,
                    "time": 104.9886179999994,
                    "velocity": 0.2440944881889764,
                    "duration": 0.14226100000000486
                },
                {
                    "name": "E3",
                    "midi": 52,
                    "time": 104.9886179999994,
                    "velocity": 0.1968503937007874,
                    "duration": 0.14226100000000486
                },
                {
                    "name": "A#2",
                    "midi": 46,
                    "time": 105.27313999999942,
                    "velocity": 0.2047244094488189,
                    "duration": 0.14226100000000486
                },
                {
                    "name": "E3",
                    "midi": 52,
                    "time": 105.27313999999942,
                    "velocity": 0.2047244094488189,
                    "duration": 0.14226100000000486
                },
                {
                    "name": "G3",
                    "midi": 55,
                    "time": 105.27313999999942,
                    "velocity": 0.2440944881889764,
                    "duration": 0.14226100000000486
                },
                {
                    "name": "A#2",
                    "midi": 46,
                    "time": 105.55766199999943,
                    "velocity": 0.2125984251968504,
                    "duration": 0.14226100000000486
                },
                {
                    "name": "E3",
                    "midi": 52,
                    "time": 105.55766199999943,
                    "velocity": 0.2125984251968504,
                    "duration": 0.14226100000000486
                },
                {
                    "name": "G3",
                    "midi": 55,
                    "time": 105.55766199999943,
                    "velocity": 0.25984251968503935,
                    "duration": 0.14226100000000486
                },
                {
                    "name": "G#2",
                    "midi": 44,
                    "time": 105.84218399999943,
                    "velocity": 0.2283464566929134,
                    "duration": 0.14226100000000486
                },
                {
                    "name": "D#3",
                    "midi": 51,
                    "time": 105.84218399999943,
                    "velocity": 0.2283464566929134,
                    "duration": 0.14226100000000486
                },
                {
                    "name": "G#3",
                    "midi": 56,
                    "time": 105.84218399999943,
                    "velocity": 0.28346456692913385,
                    "duration": 0.14226100000000486
                },
                {
                    "name": "G#2",
                    "midi": 44,
                    "time": 106.12670599999944,
                    "velocity": 0.2125984251968504,
                    "duration": 0.14226100000000486
                },
                {
                    "name": "G#3",
                    "midi": 56,
                    "time": 106.12670599999944,
                    "velocity": 0.2677165354330709,
                    "duration": 0.14226100000000486
                },
                {
                    "name": "D#3",
                    "midi": 51,
                    "time": 106.12670599999944,
                    "velocity": 0.2125984251968504,
                    "duration": 0.14226100000000486
                },
                {
                    "name": "A#2",
                    "midi": 46,
                    "time": 106.41122799999945,
                    "velocity": 0.2125984251968504,
                    "duration": 0.14226100000000486
                },
                {
                    "name": "D#3",
                    "midi": 51,
                    "time": 106.41122799999945,
                    "velocity": 0.2125984251968504,
                    "duration": 0.14226100000000486
                },
                {
                    "name": "G3",
                    "midi": 55,
                    "time": 106.41122799999945,
                    "velocity": 0.25984251968503935,
                    "duration": 0.14226100000000486
                },
                {
                    "name": "A#2",
                    "midi": 46,
                    "time": 106.69574999999946,
                    "velocity": 0.2125984251968504,
                    "duration": 0.14226100000000486
                },
                {
                    "name": "F3",
                    "midi": 53,
                    "time": 106.69574999999946,
                    "velocity": 0.2125984251968504,
                    "duration": 0.14226100000000486
                },
                {
                    "name": "G#3",
                    "midi": 56,
                    "time": 106.69574999999946,
                    "velocity": 0.2677165354330709,
                    "duration": 0.14226100000000486
                },
                {
                    "name": "F#4",
                    "midi": 66,
                    "time": 107.54931599999946,
                    "velocity": 0.2440944881889764,
                    "duration": 0.14226100000000486
                },
                {
                    "name": "D#4",
                    "midi": 63,
                    "time": 107.83383799999947,
                    "velocity": 0.25984251968503935,
                    "duration": 0.14226100000000486
                },
                {
                    "name": "G#4",
                    "midi": 68,
                    "time": 108.11835999999948,
                    "velocity": 0.25984251968503935,
                    "duration": 0.14226100000000486
                },
                {
                    "name": "G#4",
                    "midi": 68,
                    "time": 108.4028819999995,
                    "velocity": 0.2440944881889764,
                    "duration": 0.14226100000000486
                },
                {
                    "name": "G#2",
                    "midi": 44,
                    "time": 108.9719259999995,
                    "velocity": 0.2283464566929134,
                    "duration": 0.14226100000000486
                },
                {
                    "name": "G#2",
                    "midi": 44,
                    "time": 109.25644799999951,
                    "velocity": 0.2283464566929134,
                    "duration": 0.14226100000000486
                },
                {
                    "name": "A2",
                    "midi": 45,
                    "time": 109.82549199999951,
                    "velocity": 0.2047244094488189,
                    "duration": 0.14226100000000486
                },
                {
                    "name": "A2",
                    "midi": 45,
                    "time": 110.11001399999952,
                    "velocity": 0.2047244094488189,
                    "duration": 0.14226100000000486
                },
                {
                    "name": "A3",
                    "midi": 57,
                    "time": 110.67905799999953,
                    "velocity": 0.2047244094488189,
                    "duration": 0.14226100000000486
                },
                {
                    "name": "A#3",
                    "midi": 58,
                    "time": 110.96357999999954,
                    "velocity": 0.2125984251968504,
                    "duration": 0.14226100000000486
                },
                {
                    "name": "A#2",
                    "midi": 46,
                    "time": 111.24810199999955,
                    "velocity": 0.23622047244094488,
                    "duration": 0.14226100000000486
                },
                {
                    "name": "C3",
                    "midi": 48,
                    "time": 111.53262399999956,
                    "velocity": 0.25984251968503935,
                    "duration": 0.14226100000000486
                },
                {
                    "name": "C3",
                    "midi": 48,
                    "time": 111.81714599999957,
                    "velocity": 0.2755905511811024,
                    "duration": 0.14226100000000486
                },
                {
                    "name": "A#3",
                    "midi": 58,
                    "time": 112.10166799999958,
                    "velocity": 0.3228346456692913,
                    "duration": 0.14226100000000486
                },
                {
                    "name": "G3",
                    "midi": 55,
                    "time": 112.10166799999958,
                    "velocity": 0.2755905511811024,
                    "duration": 0.14226100000000486
                },
                {
                    "name": "C3",
                    "midi": 48,
                    "time": 112.10166799999958,
                    "velocity": 0.2755905511811024,
                    "duration": 0.14226100000000486
                },
                {
                    "name": "C3",
                    "midi": 48,
                    "time": 112.38618999999959,
                    "velocity": 0.28346456692913385,
                    "duration": 0.14226100000000486
                },
                {
                    "name": "G3",
                    "midi": 55,
                    "time": 112.38618999999959,
                    "velocity": 0.28346456692913385,
                    "duration": 0.14226100000000486
                },
                {
                    "name": "A#3",
                    "midi": 58,
                    "time": 112.38618999999959,
                    "velocity": 0.33070866141732286,
                    "duration": 0.14226100000000486
                },
                {
                    "name": "F2",
                    "midi": 41,
                    "time": 112.6707119999996,
                    "velocity": 0.28346456692913385,
                    "duration": 0.07113049999999532
                },
                {
                    "name": "F3",
                    "midi": 53,
                    "time": 112.6707119999996,
                    "velocity": 0.33070866141732286,
                    "duration": 0.07113049999999532
                },
                {
                    "name": "A3",
                    "midi": 57,
                    "time": 113.23975599999959,
                    "velocity": 0.28346456692913385,
                    "duration": 0.42678300000000036
                },
                {
                    "name": "C4",
                    "midi": 60,
                    "time": 113.23975599999959,
                    "velocity": 0.3464566929133858,
                    "duration": 0.5690440000000052
                },
                {
                    "name": "G3",
                    "midi": 55,
                    "time": 113.66653899999959,
                    "velocity": 0.23622047244094488,
                    "duration": 0.14226100000000486
                },
                {
                    "name": "A#3",
                    "midi": 58,
                    "time": 113.66653899999959,
                    "velocity": 0.28346456692913385,
                    "duration": 0.14226100000000486
                },
                {
                    "name": "F3",
                    "midi": 53,
                    "time": 113.8087999999996,
                    "velocity": 0.28346456692913385,
                    "duration": 0.2845219999999955
                },
                {
                    "name": "A3",
                    "midi": 57,
                    "time": 113.8087999999996,
                    "velocity": 0.3464566929133858,
                    "duration": 0.2845219999999955
                },
                {
                    "name": "D#3",
                    "midi": 51,
                    "time": 114.09332199999959,
                    "velocity": 0.2992125984251969,
                    "duration": 0.2845219999999955
                },
                {
                    "name": "A3",
                    "midi": 57,
                    "time": 114.09332199999959,
                    "velocity": 0.3543307086614173,
                    "duration": 0.2845219999999955
                },
                {
                    "name": "D3",
                    "midi": 50,
                    "time": 114.37784399999958,
                    "velocity": 0.31496062992125984,
                    "duration": 0.2845219999999955
                },
                {
                    "name": "A3",
                    "midi": 57,
                    "time": 114.37784399999958,
                    "velocity": 0.3779527559055118,
                    "duration": 0.2845219999999955
                },
                {
                    "name": "G2",
                    "midi": 43,
                    "time": 114.66236599999958,
                    "velocity": 0.29133858267716534,
                    "duration": 0.2845219999999955
                },
                {
                    "name": "D3",
                    "midi": 50,
                    "time": 114.66236599999958,
                    "velocity": 0.29133858267716534,
                    "duration": 0.2845219999999955
                },
                {
                    "name": "G3",
                    "midi": 55,
                    "time": 114.66236599999958,
                    "velocity": 0.3464566929133858,
                    "duration": 0.2845219999999955
                },
                {
                    "name": "C3",
                    "midi": 48,
                    "time": 114.94688799999957,
                    "velocity": 0.3228346456692913,
                    "duration": 0.5690440000000052
                },
                {
                    "name": "A#3",
                    "midi": 58,
                    "time": 114.94688799999957,
                    "velocity": 0.3858267716535433,
                    "duration": 0.5690440000000052
                },
                {
                    "name": "F3",
                    "midi": 53,
                    "time": 115.51593199999958,
                    "velocity": 0.25196850393700787,
                    "duration": 0.07113049999999532
                },
                {
                    "name": "A3",
                    "midi": 57,
                    "time": 115.51593199999958,
                    "velocity": 0.2992125984251969,
                    "duration": 0.07113049999999532
                },
                {
                    "name": "F3",
                    "midi": 53,
                    "time": 115.80045399999958,
                    "velocity": 0.2204724409448819,
                    "duration": 0.07113049999999532
                },
                {
                    "name": "A3",
                    "midi": 57,
                    "time": 115.80045399999958,
                    "velocity": 0.2677165354330709,
                    "duration": 0.07113049999999532
                },
                {
                    "name": "A2",
                    "midi": 45,
                    "time": 116.65401999999958,
                    "velocity": 0.2755905511811024,
                    "duration": 0.42678300000000036
                },
                {
                    "name": "C3",
                    "midi": 48,
                    "time": 116.65401999999958,
                    "velocity": 0.33070866141732286,
                    "duration": 0.14048273749999396
                },
                {
                    "name": "G2",
                    "midi": 43,
                    "time": 117.08080299999958,
                    "velocity": 0.23622047244094488,
                    "duration": 0.14226100000000486
                },
                {
                    "name": "A#2",
                    "midi": 46,
                    "time": 117.08080299999958,
                    "velocity": 0.28346456692913385,
                    "duration": 0.14226100000000486
                },
                {
                    "name": "F2",
                    "midi": 41,
                    "time": 117.22306399999958,
                    "velocity": 0.28346456692913385,
                    "duration": 0.2845219999999955
                },
                {
                    "name": "A2",
                    "midi": 45,
                    "time": 117.22306399999958,
                    "velocity": 0.3464566929133858,
                    "duration": 0.2845219999999955
                },
                {
                    "name": "D#2",
                    "midi": 39,
                    "time": 117.50758599999958,
                    "velocity": 0.2992125984251969,
                    "duration": 0.2845219999999955
                },
                {
                    "name": "A2",
                    "midi": 45,
                    "time": 117.50758599999958,
                    "velocity": 0.3543307086614173,
                    "duration": 0.2845219999999955
                },
                {
                    "name": "D2",
                    "midi": 38,
                    "time": 117.79210799999957,
                    "velocity": 0.31496062992125984,
                    "duration": 0.2845219999999955
                },
                {
                    "name": "A2",
                    "midi": 45,
                    "time": 117.79210799999957,
                    "velocity": 0.3779527559055118,
                    "duration": 0.2845219999999955
                },
                {
                    "name": "G1",
                    "midi": 31,
                    "time": 118.07662999999957,
                    "velocity": 0.31496062992125984,
                    "duration": 0.14226100000000486
                },
                {
                    "name": "D2",
                    "midi": 38,
                    "time": 118.07662999999957,
                    "velocity": 0.31496062992125984,
                    "duration": 0.14226100000000486
                },
                {
                    "name": "G2",
                    "midi": 43,
                    "time": 118.07662999999957,
                    "velocity": 0.3779527559055118,
                    "duration": 0.14226100000000486
                },
                {
                    "name": "F3",
                    "midi": 53,
                    "time": 118.64567399999957,
                    "velocity": 0.3543307086614173,
                    "duration": 0.2845219999999955
                },
                {
                    "name": "A#3",
                    "midi": 58,
                    "time": 118.64567399999957,
                    "velocity": 0.41732283464566927,
                    "duration": 0.2845219999999955
                },
                {
                    "name": "D#3",
                    "midi": 51,
                    "time": 118.93019599999957,
                    "velocity": 0.3858267716535433,
                    "duration": 0.2845219999999955
                },
                {
                    "name": "A#3",
                    "midi": 58,
                    "time": 118.93019599999957,
                    "velocity": 0.4645669291338583,
                    "duration": 0.2845219999999955
                },
                {
                    "name": "G#2",
                    "midi": 44,
                    "time": 119.21471799999956,
                    "velocity": 0.3937007874015748,
                    "duration": 0.14226100000000486
                },
                {
                    "name": "D#3",
                    "midi": 51,
                    "time": 119.21471799999956,
                    "velocity": 0.3937007874015748,
                    "duration": 0.14226100000000486
                },
                {
                    "name": "G#3",
                    "midi": 56,
                    "time": 119.21471799999956,
                    "velocity": 0.47244094488188976,
                    "duration": 0.14226100000000486
                },
                {
                    "name": "E2",
                    "midi": 40,
                    "time": 119.78376199999957,
                    "velocity": 0.5511811023622047,
                    "duration": 0.2845219999999955
                },
                {
                    "name": "B2",
                    "midi": 47,
                    "time": 119.78376199999957,
                    "velocity": 0.5511811023622047,
                    "duration": 0.2845219999999955
                },
                {
                    "name": "E3",
                    "midi": 52,
                    "time": 119.78376199999957,
                    "velocity": 0.6614173228346457,
                    "duration": 0.2845219999999955
                },
                {
                    "name": "A1",
                    "midi": 33,
                    "time": 120.06828399999957,
                    "velocity": 0.5511811023622047,
                    "duration": 0.14226100000000486
                },
                {
                    "name": "E2",
                    "midi": 40,
                    "time": 120.06828399999957,
                    "velocity": 0.5511811023622047,
                    "duration": 0.14226100000000486
                },
                {
                    "name": "A2",
                    "midi": 45,
                    "time": 120.06828399999957,
                    "velocity": 0.6614173228346457,
                    "duration": 0.14226100000000486
                },
                {
                    "name": "F4",
                    "midi": 65,
                    "time": 120.63732799999957,
                    "velocity": 0.3858267716535433,
                    "duration": 0.5690440000000052
                },
                {
                    "name": "D#5",
                    "midi": 75,
                    "time": 120.63732799999957,
                    "velocity": 0.4566929133858268,
                    "duration": 0.5690440000000052
                },
                {
                    "name": "A#4",
                    "midi": 70,
                    "time": 121.20637199999958,
                    "velocity": 0.2992125984251969,
                    "duration": 0.07113049999999532
                },
                {
                    "name": "D5",
                    "midi": 74,
                    "time": 121.20637199999958,
                    "velocity": 0.3543307086614173,
                    "duration": 0.07113049999999532
                },
                {
                    "name": "A#4",
                    "midi": 70,
                    "time": 121.49089399999957,
                    "velocity": 0.25984251968503935,
                    "duration": 0.07113049999999532
                },
                {
                    "name": "D5",
                    "midi": 74,
                    "time": 121.49089399999957,
                    "velocity": 0.31496062992125984,
                    "duration": 0.07113049999999532
                },
                {
                    "name": "A#4",
                    "midi": 70,
                    "time": 121.77541599999957,
                    "velocity": 0.2992125984251969,
                    "duration": 0.8535660000000007
                },
                {
                    "name": "D5",
                    "midi": 74,
                    "time": 121.77541599999957,
                    "velocity": 0.3543307086614173,
                    "duration": 0.8535660000000007
                },
                {
                    "name": "C3",
                    "midi": 48,
                    "time": 124.05159199999957,
                    "velocity": 0.25984251968503935,
                    "duration": 0.5690440000000052
                },
                {
                    "name": "A#3",
                    "midi": 58,
                    "time": 124.05159199999957,
                    "velocity": 0.30708661417322836,
                    "duration": 0.5690440000000052
                },
                {
                    "name": "F3",
                    "midi": 53,
                    "time": 124.62063599999958,
                    "velocity": 0.23622047244094488,
                    "duration": 0.07113049999999532
                },
                {
                    "name": "A3",
                    "midi": 57,
                    "time": 124.62063599999958,
                    "velocity": 0.28346456692913385,
                    "duration": 0.07113049999999532
                },
                {
                    "name": "F3",
                    "midi": 53,
                    "time": 124.90515799999957,
                    "velocity": 0.1889763779527559,
                    "duration": 0.07113049999999532
                },
                {
                    "name": "A3",
                    "midi": 57,
                    "time": 124.90515799999957,
                    "velocity": 0.25196850393700787,
                    "duration": 0.07113049999999532
                },
                {
                    "name": "F3",
                    "midi": 53,
                    "time": 125.18967999999957,
                    "velocity": 0.23622047244094488,
                    "duration": 0.8535660000000007
                },
                {
                    "name": "C4",
                    "midi": 60,
                    "time": 125.18967999999957,
                    "velocity": 0.28346456692913385,
                    "duration": 0.8535660000000007
                },
                {
                    "name": "F4",
                    "midi": 65,
                    "time": 126.32776799999957,
                    "velocity": 0.3858267716535433,
                    "duration": 0.5690440000000052
                },
                {
                    "name": "D#5",
                    "midi": 75,
                    "time": 126.32776799999957,
                    "velocity": 0.4566929133858268,
                    "duration": 0.5690440000000052
                },
                {
                    "name": "A#4",
                    "midi": 70,
                    "time": 126.89681199999957,
                    "velocity": 0.2992125984251969,
                    "duration": 0.07113049999999532
                },
                {
                    "name": "D5",
                    "midi": 74,
                    "time": 126.89681199999957,
                    "velocity": 0.3543307086614173,
                    "duration": 0.07113049999999532
                },
                {
                    "name": "A#4",
                    "midi": 70,
                    "time": 127.18133399999957,
                    "velocity": 0.30708661417322836,
                    "duration": 0.07113049999999532
                },
                {
                    "name": "D5",
                    "midi": 74,
                    "time": 127.18133399999957,
                    "velocity": 0.3779527559055118,
                    "duration": 0.07113049999999532
                },
                {
                    "name": "C3",
                    "midi": 48,
                    "time": 130.88011999999955,
                    "velocity": 0.2283464566929134,
                    "duration": 0.569043999999991
                },
                {
                    "name": "A#3",
                    "midi": 58,
                    "time": 130.88011999999955,
                    "velocity": 0.2755905511811024,
                    "duration": 0.569043999999991
                },
                {
                    "name": "F3",
                    "midi": 53,
                    "time": 131.44916399999954,
                    "velocity": 0.2125984251968504,
                    "duration": 0.07113050000000953
                },
                {
                    "name": "A3",
                    "midi": 57,
                    "time": 131.44916399999954,
                    "velocity": 0.25196850393700787,
                    "duration": 0.07113050000000953
                },
                {
                    "name": "F3",
                    "midi": 53,
                    "time": 131.73368599999955,
                    "velocity": 0.16535433070866143,
                    "duration": 0.07113050000000953
                },
                {
                    "name": "A3",
                    "midi": 57,
                    "time": 131.73368599999955,
                    "velocity": 0.2204724409448819,
                    "duration": 0.07113050000000953
                },
                {
                    "name": "F3",
                    "midi": 53,
                    "time": 132.01820799999956,
                    "velocity": 0.2125984251968504,
                    "duration": 0.8535660000000007
                },
                {
                    "name": "C4",
                    "midi": 60,
                    "time": 132.01820799999956,
                    "velocity": 0.25196850393700787,
                    "duration": 0.8535660000000007
                },
                {
                    "name": "F3",
                    "midi": 53,
                    "time": 133.15629599999957,
                    "velocity": 0.33070866141732286,
                    "duration": 0.07113050000000953
                },
                {
                    "name": "F#3",
                    "midi": 54,
                    "time": 133.22742649999958,
                    "velocity": 0.3700787401574803,
                    "duration": 0.07113050000000953
                },
                {
                    "name": "D#3",
                    "midi": 51,
                    "time": 133.44081799999958,
                    "velocity": 0.33858267716535434,
                    "duration": 0.07113050000000953
                },
                {
                    "name": "F#3",
                    "midi": 54,
                    "time": 133.5119484999996,
                    "velocity": 0.3858267716535433,
                    "duration": 0.07113050000000953
                },
                {
                    "name": "F3",
                    "midi": 53,
                    "time": 133.7253399999996,
                    "velocity": 0.25984251968503935,
                    "duration": 0.07113050000000953
                },
                {
                    "name": "F#3",
                    "midi": 54,
                    "time": 133.7964704999996,
                    "velocity": 0.29133858267716534,
                    "duration": 0.07113050000000953
                },
                {
                    "name": "D#3",
                    "midi": 51,
                    "time": 134.0098619999996,
                    "velocity": 0.25984251968503935,
                    "duration": 0.07113050000000953
                },
                {
                    "name": "F#3",
                    "midi": 54,
                    "time": 134.0809924999996,
                    "velocity": 0.30708661417322836,
                    "duration": 0.07113050000000953
                },
                {
                    "name": "C4",
                    "midi": 60,
                    "time": 134.2943839999996,
                    "velocity": 0.2125984251968504,
                    "duration": 0.07113050000000953
                },
                {
                    "name": "A4",
                    "midi": 69,
                    "time": 134.2943839999996,
                    "velocity": 0.25196850393700787,
                    "duration": 0.07113050000000953
                },
                {
                    "name": "C4",
                    "midi": 60,
                    "time": 134.57890599999962,
                    "velocity": 0.16535433070866143,
                    "duration": 0.07113050000000953
                },
                {
                    "name": "A4",
                    "midi": 69,
                    "time": 134.57890599999962,
                    "velocity": 0.2204724409448819,
                    "duration": 0.07113050000000953
                },
                {
                    "name": "A4",
                    "midi": 69,
                    "time": 134.86342799999963,
                    "velocity": 0.2125984251968504,
                    "duration": 0.569043999999991
                },
                {
                    "name": "C5",
                    "midi": 72,
                    "time": 134.86342799999963,
                    "velocity": 0.25196850393700787,
                    "duration": 0.569043999999991
                },
                {
                    "name": "F2",
                    "midi": 41,
                    "time": 135.43247199999962,
                    "velocity": 0.2755905511811024,
                    "duration": 0.07113050000000953
                },
                {
                    "name": "F#2",
                    "midi": 42,
                    "time": 135.50360249999963,
                    "velocity": 0.31496062992125984,
                    "duration": 0.07113050000000953
                },
                {
                    "name": "D#2",
                    "midi": 39,
                    "time": 135.71699399999963,
                    "velocity": 0.28346456692913385,
                    "duration": 0.07113050000000953
                },
                {
                    "name": "F#2",
                    "midi": 42,
                    "time": 135.78812449999964,
                    "velocity": 0.31496062992125984,
                    "duration": 0.07113050000000953
                },
                {
                    "name": "F2",
                    "midi": 41,
                    "time": 136.00151599999964,
                    "velocity": 0.2440944881889764,
                    "duration": 0.07113050000000953
                },
                {
                    "name": "F#2",
                    "midi": 42,
                    "time": 136.07264649999965,
                    "velocity": 0.2755905511811024,
                    "duration": 0.07113050000000953
                },
                {
                    "name": "D#2",
                    "midi": 39,
                    "time": 136.28603799999965,
                    "velocity": 0.23622047244094488,
                    "duration": 0.07113050000000953
                },
                {
                    "name": "F#2",
                    "midi": 42,
                    "time": 136.35716849999966,
                    "velocity": 0.2755905511811024,
                    "duration": 0.07113050000000953
                },
                {
                    "name": "C3",
                    "midi": 48,
                    "time": 136.57055999999966,
                    "velocity": 0.1889763779527559,
                    "duration": 0.07113050000000953
                },
                {
                    "name": "A3",
                    "midi": 57,
                    "time": 136.57055999999966,
                    "velocity": 0.2204724409448819,
                    "duration": 0.07113050000000953
                },
                {
                    "name": "C3",
                    "midi": 48,
                    "time": 136.85508199999967,
                    "velocity": 0.14173228346456693,
                    "duration": 0.07113050000000953
                },
                {
                    "name": "A3",
                    "midi": 57,
                    "time": 136.85508199999967,
                    "velocity": 0.1968503937007874,
                    "duration": 0.07113050000000953
                },
                {
                    "name": "A3",
                    "midi": 57,
                    "time": 137.13960399999968,
                    "velocity": 0.1889763779527559,
                    "duration": 0.569043999999991
                },
                {
                    "name": "C4",
                    "midi": 60,
                    "time": 137.13960399999968,
                    "velocity": 0.2204724409448819,
                    "duration": 0.569043999999991
                },
                {
                    "name": "F3",
                    "midi": 53,
                    "time": 137.70864799999967,
                    "velocity": 0.3700787401574803,
                    "duration": 0.07113050000000953
                },
                {
                    "name": "F#3",
                    "midi": 54,
                    "time": 137.77977849999968,
                    "velocity": 0.4094488188976378,
                    "duration": 0.07113050000000953
                },
                {
                    "name": "D#3",
                    "midi": 51,
                    "time": 137.99316999999968,
                    "velocity": 0.33070866141732286,
                    "duration": 0.07113050000000953
                },
                {
                    "name": "F#3",
                    "midi": 54,
                    "time": 138.0643004999997,
                    "velocity": 0.3700787401574803,
                    "duration": 0.07113050000000953
                },
                {
                    "name": "F2",
                    "midi": 41,
                    "time": 138.2776919999997,
                    "velocity": 0.3779527559055118,
                    "duration": 0.07113050000000953
                },
                {
                    "name": "F#2",
                    "midi": 42,
                    "time": 138.3488224999997,
                    "velocity": 0.4094488188976378,
                    "duration": 0.07113050000000953
                },
                {
                    "name": "D#2",
                    "midi": 39,
                    "time": 138.5622139999997,
                    "velocity": 0.33858267716535434,
                    "duration": 0.07113050000000953
                },
                {
                    "name": "F#2",
                    "midi": 42,
                    "time": 138.6333444999997,
                    "velocity": 0.3700787401574803,
                    "duration": 0.07113050000000953
                },
                {
                    "name": "D2",
                    "midi": 38,
                    "time": 138.8467359999997,
                    "velocity": 0.5354330708661418,
                    "duration": 0.07113050000000953
                },
                {
                    "name": "F#2",
                    "midi": 42,
                    "time": 138.91786649999972,
                    "velocity": 0.5905511811023622,
                    "duration": 0.07113050000000953
                },
                {
                    "name": "D#2",
                    "midi": 39,
                    "time": 139.13125799999972,
                    "velocity": 0.48031496062992124,
                    "duration": 0.07113050000000953
                },
                {
                    "name": "F#2",
                    "midi": 42,
                    "time": 139.20238849999973,
                    "velocity": 0.5433070866141733,
                    "duration": 0.07113050000000953
                },
                {
                    "name": "B1",
                    "midi": 35,
                    "time": 139.41577999999973,
                    "velocity": 0.5196850393700787,
                    "duration": 0.07113050000000953
                },
                {
                    "name": "F#2",
                    "midi": 42,
                    "time": 139.48691049999974,
                    "velocity": 0.5669291338582677,
                    "duration": 0.07113050000000953
                },
                {
                    "name": "A#1",
                    "midi": 34,
                    "time": 139.70030199999974,
                    "velocity": 0.5511811023622047,
                    "duration": 0.07113050000000953
                },
                {
                    "name": "F#2",
                    "midi": 42,
                    "time": 139.77143249999975,
                    "velocity": 0.5905511811023622,
                    "duration": 0.07113050000000953
                },
                {
                    "name": "A1",
                    "midi": 33,
                    "time": 139.98482399999975,
                    "velocity": 0.5669291338582677,
                    "duration": 0.07113050000000953
                },
                {
                    "name": "F2",
                    "midi": 41,
                    "time": 140.05595449999976,
                    "velocity": 0.6141732283464567,
                    "duration": 0.07113050000000953
                },
                {
                    "name": "A1",
                    "midi": 33,
                    "time": 140.26934599999976,
                    "velocity": 0.4881889763779528,
                    "duration": 0.04742033333332074
                },
                {
                    "name": "F2",
                    "midi": 41,
                    "time": 140.26934599999976,
                    "velocity": 0.4881889763779528,
                    "duration": 0.04742033333332074
                },
                {
                    "name": "A2",
                    "midi": 45,
                    "time": 140.26934599999976,
                    "velocity": 0.5826771653543307,
                    "duration": 0.04742033333332074
                },
                {
                    "name": "A1",
                    "midi": 33,
                    "time": 140.3641866666664,
                    "velocity": 0.4881889763779528,
                    "duration": 0.04742033333332074
                },
                {
                    "name": "F2",
                    "midi": 41,
                    "time": 140.3641866666664,
                    "velocity": 0.4881889763779528,
                    "duration": 0.04742033333332074
                },
                {
                    "name": "A2",
                    "midi": 45,
                    "time": 140.3641866666664,
                    "velocity": 0.5826771653543307,
                    "duration": 0.04742033333332074
                },
                {
                    "name": "A1",
                    "midi": 33,
                    "time": 140.45902733333304,
                    "velocity": 0.4881889763779528,
                    "duration": 0.04742033333332074
                },
                {
                    "name": "F2",
                    "midi": 41,
                    "time": 140.45902733333304,
                    "velocity": 0.4881889763779528,
                    "duration": 0.04742033333332074
                },
                {
                    "name": "A2",
                    "midi": 45,
                    "time": 140.45902733333304,
                    "velocity": 0.5826771653543307,
                    "duration": 0.04742033333332074
                },
                {
                    "name": "A1",
                    "midi": 33,
                    "time": 140.55386799999968,
                    "velocity": 0.5511811023622047,
                    "duration": 0.07113050000000953
                },
                {
                    "name": "F2",
                    "midi": 41,
                    "time": 140.55386799999968,
                    "velocity": 0.5511811023622047,
                    "duration": 0.07113050000000953
                },
                {
                    "name": "A2",
                    "midi": 45,
                    "time": 140.55386799999968,
                    "velocity": 0.6535433070866141,
                    "duration": 0.07113050000000953
                },
                {
                    "name": "F1",
                    "midi": 29,
                    "time": 140.98065099999968,
                    "velocity": 0.6771653543307087,
                    "duration": 0.059275416666650926
                },
                {
                    "name": "F#1",
                    "midi": 30,
                    "time": 141.028071333333,
                    "velocity": 0.5511811023622047,
                    "duration": 0.059275416666650926
                },
                {
                    "name": "G#1",
                    "midi": 32,
                    "time": 141.07549166666632,
                    "velocity": 0.5511811023622047,
                    "duration": 0.059275416666650926
                },
                {
                    "name": "F#1",
                    "midi": 30,
                    "time": 141.12291199999964,
                    "velocity": 0.6771653543307087,
                    "duration": 0.053347874999985834
                },
                {
                    "name": "G#1",
                    "midi": 32,
                    "time": 141.15847724999963,
                    "velocity": 0.5748031496062992,
                    "duration": 0.053347874999985834
                },
                {
                    "name": "F#1",
                    "midi": 30,
                    "time": 141.19404249999963,
                    "velocity": 0.5984251968503937,
                    "duration": 0.053347874999985834
                },
                {
                    "name": "G#1",
                    "midi": 32,
                    "time": 141.22960774999962,
                    "velocity": 0.5511811023622047,
                    "duration": 0.053347874999985834
                },
                {
                    "name": "F#1",
                    "midi": 30,
                    "time": 141.2651729999996,
                    "velocity": 0.5984251968503937,
                    "duration": 0.053347874999985834
                },
                {
                    "name": "G#1",
                    "midi": 32,
                    "time": 141.3007382499996,
                    "velocity": 0.5511811023622047,
                    "duration": 0.053347874999985834
                },
                {
                    "name": "F#1",
                    "midi": 30,
                    "time": 141.3363034999996,
                    "velocity": 0.6299212598425197,
                    "duration": 0.053347874999985834
                },
                {
                    "name": "G#1",
                    "midi": 32,
                    "time": 141.37186874999958,
                    "velocity": 0.5984251968503937,
                    "duration": 0.053347874999985834
                },
                {
                    "name": "F#1",
                    "midi": 30,
                    "time": 141.40743399999957,
                    "velocity": 0.6535433070866141,
                    "duration": 0.053347874999985834
                },
                {
                    "name": "G#1",
                    "midi": 32,
                    "time": 141.44299924999956,
                    "velocity": 0.5748031496062992,
                    "duration": 0.053347874999985834
                },
                {
                    "name": "F#1",
                    "midi": 30,
                    "time": 141.47856449999955,
                    "velocity": 0.6535433070866141,
                    "duration": 0.053347874999985834
                },
                {
                    "name": "G#1",
                    "midi": 32,
                    "time": 141.51412974999954,
                    "velocity": 0.5511811023622047,
                    "duration": 0.053347874999985834
                },
                {
                    "name": "F#1",
                    "midi": 30,
                    "time": 141.54969499999953,
                    "velocity": 0.6299212598425197,
                    "duration": 0.053347874999985834
                },
                {
                    "name": "G#1",
                    "midi": 32,
                    "time": 141.58526024999952,
                    "velocity": 0.5748031496062992,
                    "duration": 0.053347874999985834
                },
                {
                    "name": "F#1",
                    "midi": 30,
                    "time": 141.6208254999995,
                    "velocity": 0.5984251968503937,
                    "duration": 0.053347874999985834
                },
                {
                    "name": "G#1",
                    "midi": 32,
                    "time": 141.6563907499995,
                    "velocity": 0.5511811023622047,
                    "duration": 0.053347874999985834
                },
                {
                    "name": "F#1",
                    "midi": 30,
                    "time": 141.6919559999995,
                    "velocity": 0.6535433070866141,
                    "duration": 0.053347874999985834
                },
                {
                    "name": "G#1",
                    "midi": 32,
                    "time": 141.72752124999948,
                    "velocity": 0.5669291338582677,
                    "duration": 0.053347874999985834
                },
                {
                    "name": "F#1",
                    "midi": 30,
                    "time": 141.76308649999947,
                    "velocity": 0.6062992125984252,
                    "duration": 0.053347874999985834
                },
                {
                    "name": "G#1",
                    "midi": 32,
                    "time": 141.79865174999946,
                    "velocity": 0.5433070866141733,
                    "duration": 0.053347874999985834
                },
                {
                    "name": "F#1",
                    "midi": 30,
                    "time": 141.83421699999946,
                    "velocity": 0.5826771653543307,
                    "duration": 0.053347874999985834
                },
                {
                    "name": "G#1",
                    "midi": 32,
                    "time": 141.86978224999945,
                    "velocity": 0.49606299212598426,
                    "duration": 0.053347874999985834
                },
                {
                    "name": "F#1",
                    "midi": 30,
                    "time": 141.90534749999944,
                    "velocity": 0.5669291338582677,
                    "duration": 0.053347874999985834
                },
                {
                    "name": "G#1",
                    "midi": 32,
                    "time": 141.94091274999943,
                    "velocity": 0.48031496062992124,
                    "duration": 0.053347874999985834
                },
                {
                    "name": "F#1",
                    "midi": 30,
                    "time": 141.97647799999942,
                    "velocity": 0.5748031496062992,
                    "duration": 0.053347874999985834
                },
                {
                    "name": "G#1",
                    "midi": 32,
                    "time": 142.0120432499994,
                    "velocity": 0.48031496062992124,
                    "duration": 0.053347874999985834
                },
                {
                    "name": "F#1",
                    "midi": 30,
                    "time": 142.0476084999994,
                    "velocity": 0.5354330708661418,
                    "duration": 0.053347874999985834
                },
                {
                    "name": "G#1",
                    "midi": 32,
                    "time": 142.0831737499994,
                    "velocity": 0.4409448818897638,
                    "duration": 0.053347874999985834
                },
                {
                    "name": "F1",
                    "midi": 29,
                    "time": 142.11873899999938,
                    "velocity": 0.5275590551181102,
                    "duration": 0.0829855833333113
                },
                {
                    "name": "F#1",
                    "midi": 30,
                    "time": 142.18986949999936,
                    "velocity": 0.48031496062992124,
                    "duration": 0.08298558333333972
                },
                {
                    "name": "F1",
                    "midi": 29,
                    "time": 142.26099999999937,
                    "velocity": 0.5905511811023622,
                    "duration": 0.07113050000000953
                },
                {
                    "name": "A#2",
                    "midi": 46,
                    "time": 143.11456599999937,
                    "velocity": 0.2125984251968504,
                    "duration": 0.2845219999999813
                },
                {
                    "name": "D3",
                    "midi": 50,
                    "time": 143.11456599999937,
                    "velocity": 0.25984251968503935,
                    "duration": 0.14226099999999064
                },
                {
                    "name": "F3",
                    "midi": 53,
                    "time": 143.25682699999936,
                    "velocity": 0.2204724409448819,
                    "duration": 0.14226099999999064
                },
                {
                    "name": "A#2",
                    "midi": 46,
                    "time": 143.39908799999935,
                    "velocity": 0.2204724409448819,
                    "duration": 0.2845219999999813
                },
                {
                    "name": "D3",
                    "midi": 50,
                    "time": 143.39908799999935,
                    "velocity": 0.2677165354330709,
                    "duration": 0.14226099999999064
                },
                {
                    "name": "F3",
                    "midi": 53,
                    "time": 143.54134899999934,
                    "velocity": 0.2204724409448819,
                    "duration": 0.14226099999999064
                },
                {
                    "name": "A#2",
                    "midi": 46,
                    "time": 143.68360999999933,
                    "velocity": 0.1889763779527559,
                    "duration": 0.2845219999999813
                },
                {
                    "name": "C3",
                    "midi": 48,
                    "time": 143.68360999999933,
                    "velocity": 0.2440944881889764,
                    "duration": 0.14226099999999064
                },
                {
                    "name": "F3",
                    "midi": 53,
                    "time": 143.82587099999932,
                    "velocity": 0.2125984251968504,
                    "duration": 0.14226099999999064
                },
                {
                    "name": "A#2",
                    "midi": 46,
                    "time": 143.96813199999931,
                    "velocity": 0.2204724409448819,
                    "duration": 0.2845219999999813
                },
                {
                    "name": "D3",
                    "midi": 50,
                    "time": 143.96813199999931,
                    "velocity": 0.2677165354330709,
                    "duration": 0.14226099999999064
                },
                {
                    "name": "F3",
                    "midi": 53,
                    "time": 144.1103929999993,
                    "velocity": 0.2125984251968504,
                    "duration": 0.14226099999999064
                },
                {
                    "name": "A#2",
                    "midi": 46,
                    "time": 144.2526539999993,
                    "velocity": 0.2125984251968504,
                    "duration": 0.2845219999999813
                },
                {
                    "name": "D#3",
                    "midi": 51,
                    "time": 144.2526539999993,
                    "velocity": 0.25984251968503935,
                    "duration": 0.14226099999999064
                },
                {
                    "name": "F3",
                    "midi": 53,
                    "time": 144.3949149999993,
                    "velocity": 0.2047244094488189,
                    "duration": 0.14226099999999064
                },
                {
                    "name": "E3",
                    "midi": 52,
                    "time": 144.53717599999928,
                    "velocity": 0.2677165354330709,
                    "duration": 0.14226099999999064
                },
                {
                    "name": "A#2",
                    "midi": 46,
                    "time": 144.53717599999928,
                    "velocity": 0.2204724409448819,
                    "duration": 0.853566000000086
                },
                {
                    "name": "F3",
                    "midi": 53,
                    "time": 144.67943699999927,
                    "velocity": 0.2047244094488189,
                    "duration": 0.07113050000000953
                },
                {
                    "name": "F3",
                    "midi": 53,
                    "time": 144.8216979999993,
                    "velocity": 0.2047244094488189,
                    "duration": 0.07113050000000953
                },
                {
                    "name": "F3",
                    "midi": 53,
                    "time": 144.9639589999993,
                    "velocity": 0.2047244094488189,
                    "duration": 0.07113050000000953
                },
                {
                    "name": "F3",
                    "midi": 53,
                    "time": 145.10621999999933,
                    "velocity": 0.2047244094488189,
                    "duration": 0.07113050000000953
                },
                {
                    "name": "F3",
                    "midi": 53,
                    "time": 145.24848099999934,
                    "velocity": 0.2047244094488189,
                    "duration": 0.07113050000000953
                },
                {
                    "name": "A#2",
                    "midi": 46,
                    "time": 145.39074199999936,
                    "velocity": 0.2125984251968504,
                    "duration": 0.2845219999999813
                },
                {
                    "name": "D#3",
                    "midi": 51,
                    "time": 145.39074199999936,
                    "velocity": 0.25984251968503935,
                    "duration": 0.14226099999999064
                },
                {
                    "name": "D3",
                    "midi": 50,
                    "time": 145.53300299999935,
                    "velocity": 0.2125984251968504,
                    "duration": 0.14226099999999064
                },
                {
                    "name": "F2",
                    "midi": 41,
                    "time": 145.67526399999934,
                    "velocity": 0.2047244094488189,
                    "duration": 0.2845219999999813
                },
                {
                    "name": "D#3",
                    "midi": 51,
                    "time": 145.67526399999934,
                    "velocity": 0.2440944881889764,
                    "duration": 0.14226099999999064
                },
                {
                    "name": "F3",
                    "midi": 53,
                    "time": 145.81752499999934,
                    "velocity": 0.1968503937007874,
                    "duration": 0.14226099999999064
                },
                {
                    "name": "F2",
                    "midi": 41,
                    "time": 145.95978599999933,
                    "velocity": 0.2047244094488189,
                    "duration": 0.2845219999999813
                },
                {
                    "name": "D#3",
                    "midi": 51,
                    "time": 145.95978599999933,
                    "velocity": 0.2283464566929134,
                    "duration": 0.14226099999999064
                },
                {
                    "name": "F3",
                    "midi": 53,
                    "time": 146.10204699999932,
                    "velocity": 0.1968503937007874,
                    "duration": 0.14226099999999064
                },
                {
                    "name": "F2",
                    "midi": 41,
                    "time": 146.2443079999993,
                    "velocity": 0.2047244094488189,
                    "duration": 0.2845219999999813
                },
                {
                    "name": "D#3",
                    "midi": 51,
                    "time": 146.2443079999993,
                    "velocity": 0.2283464566929134,
                    "duration": 0.14226099999999064
                },
                {
                    "name": "F3",
                    "midi": 53,
                    "time": 146.3865689999993,
                    "velocity": 0.2047244094488189,
                    "duration": 0.14226099999999064
                },
                {
                    "name": "F2",
                    "midi": 41,
                    "time": 146.5288299999993,
                    "velocity": 0.2125984251968504,
                    "duration": 0.2845219999999813
                },
                {
                    "name": "D3",
                    "midi": 50,
                    "time": 146.5288299999993,
                    "velocity": 0.25984251968503935,
                    "duration": 0.14226099999999064
                },
                {
                    "name": "C3",
                    "midi": 48,
                    "time": 146.67109099999928,
                    "velocity": 0.1968503937007874,
                    "duration": 0.14226099999999064
                },
                {
                    "name": "A#2",
                    "midi": 46,
                    "time": 146.81335199999927,
                    "velocity": 0.2204724409448819,
                    "duration": 0.8535659999999439
                },
                {
                    "name": "D3",
                    "midi": 50,
                    "time": 146.81335199999927,
                    "velocity": 0.2677165354330709,
                    "duration": 0.14226099999999064
                },
                {
                    "name": "F3",
                    "midi": 53,
                    "time": 146.95561299999926,
                    "velocity": 0.23622047244094488,
                    "duration": 0.14226099999999064
                },
                {
                    "name": "D#3",
                    "midi": 51,
                    "time": 147.09787399999925,
                    "velocity": 0.25984251968503935,
                    "duration": 0.14226099999999064
                },
                {
                    "name": "G3",
                    "midi": 55,
                    "time": 147.24013499999924,
                    "velocity": 0.2204724409448819,
                    "duration": 0.14226099999999064
                },
                {
                    "name": "D3",
                    "midi": 50,
                    "time": 147.38239599999923,
                    "velocity": 0.2283464566929134,
                    "duration": 0.14226099999999064
                },
                {
                    "name": "F3",
                    "midi": 53,
                    "time": 147.52465699999922,
                    "velocity": 0.23622047244094488,
                    "duration": 0.14226099999999064
                },
                {
                    "name": "A#2",
                    "midi": 46,
                    "time": 147.6669179999992,
                    "velocity": 0.2204724409448819,
                    "duration": 0.2845219999999813
                },
                {
                    "name": "D3",
                    "midi": 50,
                    "time": 147.6669179999992,
                    "velocity": 0.30708661417322836,
                    "duration": 0.14226099999999064
                },
                {
                    "name": "A#3",
                    "midi": 58,
                    "time": 147.8091789999992,
                    "velocity": 0.2677165354330709,
                    "duration": 0.14226099999999064
                },
                {
                    "name": "A#2",
                    "midi": 46,
                    "time": 147.9514399999992,
                    "velocity": 0.23622047244094488,
                    "duration": 0.853566000000086
                },
                {
                    "name": "G3",
                    "midi": 55,
                    "time": 147.9514399999992,
                    "velocity": 0.28346456692913385,
                    "duration": 0.853566000000086
                },
                {
                    "name": "A#3",
                    "midi": 58,
                    "time": 148.0937009999992,
                    "velocity": 0.25196850393700787,
                    "duration": 0.07113050000000953
                },
                {
                    "name": "A#3",
                    "midi": 58,
                    "time": 148.2359619999992,
                    "velocity": 0.25984251968503935,
                    "duration": 0.07113050000000953
                },
                {
                    "name": "A#3",
                    "midi": 58,
                    "time": 148.37822299999922,
                    "velocity": 0.23622047244094488,
                    "duration": 0.07113050000000953
                },
                {
                    "name": "A#3",
                    "midi": 58,
                    "time": 148.52048399999924,
                    "velocity": 0.2677165354330709,
                    "duration": 0.07113050000000953
                },
                {
                    "name": "A#3",
                    "midi": 58,
                    "time": 148.66274499999926,
                    "velocity": 0.2440944881889764,
                    "duration": 0.07113050000000953
                },
                {
                    "name": "A#2",
                    "midi": 46,
                    "time": 148.80500599999928,
                    "velocity": 0.2125984251968504,
                    "duration": 0.2845219999999813
                },
                {
                    "name": "F3",
                    "midi": 53,
                    "time": 148.80500599999928,
                    "velocity": 0.25984251968503935,
                    "duration": 0.14226099999999064
                },
                {
                    "name": "D#3",
                    "midi": 51,
                    "time": 148.94726699999927,
                    "velocity": 0.2440944881889764,
                    "duration": 0.14226099999999064
                },
                {
                    "name": "A#2",
                    "midi": 46,
                    "time": 149.08952799999926,
                    "velocity": 0.2125984251968504,
                    "duration": 0.2845219999999813
                },
                {
                    "name": "F3",
                    "midi": 53,
                    "time": 149.08952799999926,
                    "velocity": 0.25984251968503935,
                    "duration": 0.14226099999999064
                },
                {
                    "name": "D3",
                    "midi": 50,
                    "time": 149.23178899999925,
                    "velocity": 0.2204724409448819,
                    "duration": 0.14226099999999064
                },
                {
                    "name": "F2",
                    "midi": 41,
                    "time": 149.37404999999924,
                    "velocity": 0.2125984251968504,
                    "duration": 0.2845219999999813
                },
                {
                    "name": "C3",
                    "midi": 48,
                    "time": 149.37404999999924,
                    "velocity": 0.25984251968503935,
                    "duration": 0.14226099999999064
                },
                {
                    "name": "F3",
                    "midi": 53,
                    "time": 149.51631099999923,
                    "velocity": 0.2204724409448819,
                    "duration": 0.14226099999999064
                },
                {
                    "name": "F2",
                    "midi": 41,
                    "time": 149.65857199999922,
                    "velocity": 0.2125984251968504,
                    "duration": 0.2845219999999813
                },
                {
                    "name": "D3",
                    "midi": 50,
                    "time": 149.65857199999922,
                    "velocity": 0.25984251968503935,
                    "duration": 0.14226099999999064
                },
                {
                    "name": "F3",
                    "midi": 53,
                    "time": 149.80083299999922,
                    "velocity": 0.23622047244094488,
                    "duration": 0.14226099999999064
                },
                {
                    "name": "F2",
                    "midi": 41,
                    "time": 149.9430939999992,
                    "velocity": 0.2125984251968504,
                    "duration": 0.2845219999999813
                },
                {
                    "name": "D#3",
                    "midi": 51,
                    "time": 149.9430939999992,
                    "velocity": 0.25196850393700787,
                    "duration": 0.14226099999999064
                },
                {
                    "name": "F3",
                    "midi": 53,
                    "time": 150.0853549999992,
                    "velocity": 0.2283464566929134,
                    "duration": 0.14226099999999064
                },
                {
                    "name": "F2",
                    "midi": 41,
                    "time": 150.2276159999992,
                    "velocity": 0.2125984251968504,
                    "duration": 0.5690439999999626
                },
                {
                    "name": "D3",
                    "midi": 50,
                    "time": 150.2276159999992,
                    "velocity": 0.25196850393700787,
                    "duration": 0.14226099999999064
                },
                {
                    "name": "F3",
                    "midi": 53,
                    "time": 150.36987699999918,
                    "velocity": 0.2283464566929134,
                    "duration": 0.14226099999999064
                },
                {
                    "name": "D3",
                    "midi": 50,
                    "time": 150.51213799999917,
                    "velocity": 0.25196850393700787,
                    "duration": 0.14226099999999064
                },
                {
                    "name": "A#2",
                    "midi": 46,
                    "time": 150.65439899999916,
                    "velocity": 0.2283464566929134,
                    "duration": 0.14226099999999064
                },
                {
                    "name": "F2",
                    "midi": 41,
                    "time": 150.79665999999915,
                    "velocity": 0.25196850393700787,
                    "duration": 0.2845220000000097
                },
                {
                    "name": "F1",
                    "midi": 29,
                    "time": 151.22344299999915,
                    "velocity": 0.2125984251968504,
                    "duration": 0.059275416666650926
                },
                {
                    "name": "F#1",
                    "midi": 30,
                    "time": 151.27086333333247,
                    "velocity": 0.1732283464566929,
                    "duration": 0.059275416666650926
                },
                {
                    "name": "G#1",
                    "midi": 32,
                    "time": 151.3182836666658,
                    "velocity": 0.1732283464566929,
                    "duration": 0.059275416666650926
                },
                {
                    "name": "F#1",
                    "midi": 30,
                    "time": 151.3657039999991,
                    "velocity": 0.2125984251968504,
                    "duration": 0.059275416666650926
                },
                {
                    "name": "G#1",
                    "midi": 32,
                    "time": 151.4012692499991,
                    "velocity": 0.18110236220472442,
                    "duration": 0.059275416666650926
                },
                {
                    "name": "F#1",
                    "midi": 30,
                    "time": 151.4368344999991,
                    "velocity": 0.1889763779527559,
                    "duration": 0.059275416666650926
                },
                {
                    "name": "G#1",
                    "midi": 32,
                    "time": 151.47239974999908,
                    "velocity": 0.1732283464566929,
                    "duration": 0.059275416666650926
                },
                {
                    "name": "F#1",
                    "midi": 30,
                    "time": 151.50796499999907,
                    "velocity": 0.1889763779527559,
                    "duration": 0.059275416666650926
                },
                {
                    "name": "G#1",
                    "midi": 32,
                    "time": 151.54353024999907,
                    "velocity": 0.1732283464566929,
                    "duration": 0.059275416666650926
                },
                {
                    "name": "F#1",
                    "midi": 30,
                    "time": 151.57909549999906,
                    "velocity": 0.1968503937007874,
                    "duration": 0.059275416666650926
                },
                {
                    "name": "G#1",
                    "midi": 32,
                    "time": 151.61466074999905,
                    "velocity": 0.1889763779527559,
                    "duration": 0.059275416666650926
                },
                {
                    "name": "F#1",
                    "midi": 30,
                    "time": 151.65022599999904,
                    "velocity": 0.2047244094488189,
                    "duration": 0.059275416666650926
                },
                {
                    "name": "G#1",
                    "midi": 32,
                    "time": 151.68579124999903,
                    "velocity": 0.18110236220472442,
                    "duration": 0.059275416666650926
                },
                {
                    "name": "F#1",
                    "midi": 30,
                    "time": 151.72135649999902,
                    "velocity": 0.2047244094488189,
                    "duration": 0.059275416666650926
                },
                {
                    "name": "G#1",
                    "midi": 32,
                    "time": 151.756921749999,
                    "velocity": 0.1732283464566929,
                    "duration": 0.059275416666650926
                },
                {
                    "name": "F#1",
                    "midi": 30,
                    "time": 151.792486999999,
                    "velocity": 0.1968503937007874,
                    "duration": 0.059275416666650926
                },
                {
                    "name": "G#1",
                    "midi": 32,
                    "time": 151.828052249999,
                    "velocity": 0.18110236220472442,
                    "duration": 0.059275416666650926
                },
                {
                    "name": "F#1",
                    "midi": 30,
                    "time": 151.86361749999898,
                    "velocity": 0.1889763779527559,
                    "duration": 0.059275416666650926
                },
                {
                    "name": "G#1",
                    "midi": 32,
                    "time": 151.89918274999897,
                    "velocity": 0.1732283464566929,
                    "duration": 0.059275416666650926
                },
                {
                    "name": "F#1",
                    "midi": 30,
                    "time": 151.93474799999896,
                    "velocity": 0.2047244094488189,
                    "duration": 0.059275416666650926
                },
                {
                    "name": "G#1",
                    "midi": 32,
                    "time": 151.97031324999895,
                    "velocity": 0.18110236220472442,
                    "duration": 0.059275416666650926
                },
                {
                    "name": "F#1",
                    "midi": 30,
                    "time": 152.00587849999894,
                    "velocity": 0.1968503937007874,
                    "duration": 0.059275416666650926
                },
                {
                    "name": "G#1",
                    "midi": 32,
                    "time": 152.04144374999893,
                    "velocity": 0.18110236220472442,
                    "duration": 0.059275416666650926
                },
                {
                    "name": "F#1",
                    "midi": 30,
                    "time": 152.07700899999892,
                    "velocity": 0.1968503937007874,
                    "duration": 0.059275416666650926
                },
                {
                    "name": "G#1",
                    "midi": 32,
                    "time": 152.11257424999891,
                    "velocity": 0.1732283464566929,
                    "duration": 0.059275416666650926
                },
                {
                    "name": "F#1",
                    "midi": 30,
                    "time": 152.1481394999989,
                    "velocity": 0.1968503937007874,
                    "duration": 0.059275416666650926
                },
                {
                    "name": "G#1",
                    "midi": 32,
                    "time": 152.1837047499989,
                    "velocity": 0.1732283464566929,
                    "duration": 0.059275416666650926
                },
                {
                    "name": "F#1",
                    "midi": 30,
                    "time": 152.2192699999989,
                    "velocity": 0.2125984251968504,
                    "duration": 0.059275416666650926
                },
                {
                    "name": "G#1",
                    "midi": 32,
                    "time": 152.25483524999888,
                    "velocity": 0.18110236220472442,
                    "duration": 0.059275416666650926
                },
                {
                    "name": "F#1",
                    "midi": 30,
                    "time": 152.29040049999887,
                    "velocity": 0.2047244094488189,
                    "duration": 0.059275416666650926
                },
                {
                    "name": "G#1",
                    "midi": 32,
                    "time": 152.32596574999886,
                    "velocity": 0.1732283464566929,
                    "duration": 0.059275416666650926
                },
                {
                    "name": "F1",
                    "midi": 29,
                    "time": 152.36153099999885,
                    "velocity": 0.1732283464566929,
                    "duration": 0.0829855833333113
                },
                {
                    "name": "F#1",
                    "midi": 30,
                    "time": 152.43266149999883,
                    "velocity": 0.14173228346456693,
                    "duration": 0.08298558333333972
                },
                {
                    "name": "F1",
                    "midi": 29,
                    "time": 152.50379199999884,
                    "velocity": 0.18110236220472442,
                    "duration": 0.07113050000000953
                },
                {
                    "name": "A#2",
                    "midi": 46,
                    "time": 153.35735799999884,
                    "velocity": 0.2125984251968504,
                    "duration": 0.2845219999999813
                },
                {
                    "name": "D3",
                    "midi": 50,
                    "time": 153.35735799999884,
                    "velocity": 0.25984251968503935,
                    "duration": 0.14226099999999064
                },
                {
                    "name": "F3",
                    "midi": 53,
                    "time": 153.49961899999883,
                    "velocity": 0.2204724409448819,
                    "duration": 0.14226099999999064
                },
                {
                    "name": "A#2",
                    "midi": 46,
                    "time": 153.64187999999882,
                    "velocity": 0.2204724409448819,
                    "duration": 0.2845219999999813
                },
                {
                    "name": "D3",
                    "midi": 50,
                    "time": 153.64187999999882,
                    "velocity": 0.2677165354330709,
                    "duration": 0.14226099999999064
                },
                {
                    "name": "F3",
                    "midi": 53,
                    "time": 153.7841409999988,
                    "velocity": 0.2204724409448819,
                    "duration": 0.14226099999999064
                },
                {
                    "name": "A#2",
                    "midi": 46,
                    "time": 153.9264019999988,
                    "velocity": 0.1889763779527559,
                    "duration": 0.2845219999999813
                },
                {
                    "name": "C3",
                    "midi": 48,
                    "time": 153.9264019999988,
                    "velocity": 0.2440944881889764,
                    "duration": 0.14226099999999064
                },
                {
                    "name": "F3",
                    "midi": 53,
                    "time": 154.0686629999988,
                    "velocity": 0.2125984251968504,
                    "duration": 0.14226099999999064
                },
                {
                    "name": "A#2",
                    "midi": 46,
                    "time": 154.21092399999878,
                    "velocity": 0.2204724409448819,
                    "duration": 0.2845219999999813
                },
                {
                    "name": "D3",
                    "midi": 50,
                    "time": 154.21092399999878,
                    "velocity": 0.2677165354330709,
                    "duration": 0.14226099999999064
                },
                {
                    "name": "F3",
                    "midi": 53,
                    "time": 154.35318499999877,
                    "velocity": 0.2125984251968504,
                    "duration": 0.14226099999999064
                },
                {
                    "name": "A#2",
                    "midi": 46,
                    "time": 154.49544599999876,
                    "velocity": 0.2125984251968504,
                    "duration": 0.2845219999999813
                },
                {
                    "name": "D#3",
                    "midi": 51,
                    "time": 154.49544599999876,
                    "velocity": 0.25984251968503935,
                    "duration": 0.14226099999999064
                },
                {
                    "name": "F3",
                    "midi": 53,
                    "time": 154.63770699999876,
                    "velocity": 0.2047244094488189,
                    "duration": 0.14226099999999064
                },
                {
                    "name": "E3",
                    "midi": 52,
                    "time": 154.77996799999875,
                    "velocity": 0.2677165354330709,
                    "duration": 0.14226099999999064
                },
                {
                    "name": "A#2",
                    "midi": 46,
                    "time": 154.77996799999875,
                    "velocity": 0.2204724409448819,
                    "duration": 0.853566000000086
                },
                {
                    "name": "F3",
                    "midi": 53,
                    "time": 154.92222899999874,
                    "velocity": 0.2047244094488189,
                    "duration": 0.07113050000000953
                },
                {
                    "name": "F3",
                    "midi": 53,
                    "time": 155.06448999999876,
                    "velocity": 0.2047244094488189,
                    "duration": 0.07113050000000953
                },
                {
                    "name": "F3",
                    "midi": 53,
                    "time": 155.20675099999877,
                    "velocity": 0.2047244094488189,
                    "duration": 0.07113050000000953
                },
                {
                    "name": "F3",
                    "midi": 53,
                    "time": 155.3490119999988,
                    "velocity": 0.2047244094488189,
                    "duration": 0.07113050000000953
                },
                {
                    "name": "F3",
                    "midi": 53,
                    "time": 155.4912729999988,
                    "velocity": 0.2047244094488189,
                    "duration": 0.07113050000000953
                },
                {
                    "name": "A#2",
                    "midi": 46,
                    "time": 155.63353399999883,
                    "velocity": 0.2125984251968504,
                    "duration": 0.2845219999999813
                },
                {
                    "name": "D#3",
                    "midi": 51,
                    "time": 155.63353399999883,
                    "velocity": 0.25984251968503935,
                    "duration": 0.14226099999999064
                },
                {
                    "name": "D3",
                    "midi": 50,
                    "time": 155.77579499999882,
                    "velocity": 0.2125984251968504,
                    "duration": 0.14226099999999064
                },
                {
                    "name": "F2",
                    "midi": 41,
                    "time": 155.9180559999988,
                    "velocity": 0.2047244094488189,
                    "duration": 0.2845219999999813
                },
                {
                    "name": "D#3",
                    "midi": 51,
                    "time": 155.9180559999988,
                    "velocity": 0.2440944881889764,
                    "duration": 0.14226099999999064
                },
                {
                    "name": "F3",
                    "midi": 53,
                    "time": 156.0603169999988,
                    "velocity": 0.1968503937007874,
                    "duration": 0.14226099999999064
                },
                {
                    "name": "F2",
                    "midi": 41,
                    "time": 156.2025779999988,
                    "velocity": 0.2047244094488189,
                    "duration": 0.2845219999999813
                },
                {
                    "name": "D#3",
                    "midi": 51,
                    "time": 156.2025779999988,
                    "velocity": 0.2283464566929134,
                    "duration": 0.14226099999999064
                },
                {
                    "name": "F3",
                    "midi": 53,
                    "time": 156.34483899999879,
                    "velocity": 0.1968503937007874,
                    "duration": 0.14226099999999064
                },
                {
                    "name": "F2",
                    "midi": 41,
                    "time": 156.48709999999878,
                    "velocity": 0.2047244094488189,
                    "duration": 0.2845219999999813
                },
                {
                    "name": "D#3",
                    "midi": 51,
                    "time": 156.48709999999878,
                    "velocity": 0.2283464566929134,
                    "duration": 0.14226099999999064
                },
                {
                    "name": "F3",
                    "midi": 53,
                    "time": 156.62936099999877,
                    "velocity": 0.2204724409448819,
                    "duration": 0.14226099999999064
                },
                {
                    "name": "F2",
                    "midi": 41,
                    "time": 156.77162199999876,
                    "velocity": 0.2125984251968504,
                    "duration": 0.2845219999999813
                },
                {
                    "name": "D3",
                    "midi": 50,
                    "time": 156.77162199999876,
                    "velocity": 0.25984251968503935,
                    "duration": 0.14226099999999064
                },
                {
                    "name": "C3",
                    "midi": 48,
                    "time": 156.91388299999875,
                    "velocity": 0.1968503937007874,
                    "duration": 0.14226099999999064
                },
                {
                    "name": "A#2",
                    "midi": 46,
                    "time": 157.05614399999874,
                    "velocity": 0.2204724409448819,
                    "duration": 0.8535659999999439
                },
                {
                    "name": "D3",
                    "midi": 50,
                    "time": 157.05614399999874,
                    "velocity": 0.2677165354330709,
                    "duration": 0.14226099999999064
                },
                {
                    "name": "F3",
                    "midi": 53,
                    "time": 157.19840499999873,
                    "velocity": 0.23622047244094488,
                    "duration": 0.14226099999999064
                },
                {
                    "name": "D#3",
                    "midi": 51,
                    "time": 157.34066599999872,
                    "velocity": 0.25984251968503935,
                    "duration": 0.14226099999999064
                },
                {
                    "name": "G3",
                    "midi": 55,
                    "time": 157.4829269999987,
                    "velocity": 0.2204724409448819,
                    "duration": 0.14226099999999064
                },
                {
                    "name": "D3",
                    "midi": 50,
                    "time": 157.6251879999987,
                    "velocity": 0.2283464566929134,
                    "duration": 0.14226099999999064
                },
                {
                    "name": "F3",
                    "midi": 53,
                    "time": 157.7674489999987,
                    "velocity": 0.23622047244094488,
                    "duration": 0.14226099999999064
                },
                {
                    "name": "G#2",
                    "midi": 44,
                    "time": 157.90970999999868,
                    "velocity": 0.2204724409448819,
                    "duration": 0.2845219999999813
                },
                {
                    "name": "D3",
                    "midi": 50,
                    "time": 157.90970999999868,
                    "velocity": 0.30708661417322836,
                    "duration": 0.14226099999999064
                },
                {
                    "name": "F3",
                    "midi": 53,
                    "time": 158.05197099999867,
                    "velocity": 0.2677165354330709,
                    "duration": 0.14226099999999064
                },
                {
                    "name": "G2",
                    "midi": 43,
                    "time": 158.19423199999866,
                    "velocity": 0.23622047244094488,
                    "duration": 0.853566000000086
                },
                {
                    "name": "F3",
                    "midi": 53,
                    "time": 158.19423199999866,
                    "velocity": 0.28346456692913385,
                    "duration": 0.853566000000086
                },
                {
                    "name": "G3",
                    "midi": 55,
                    "time": 158.33649299999865,
                    "velocity": 0.25196850393700787,
                    "duration": 0.07113050000000953
                },
                {
                    "name": "G3",
                    "midi": 55,
                    "time": 158.47875399999867,
                    "velocity": 0.25984251968503935,
                    "duration": 0.07113050000000953
                },
                {
                    "name": "G3",
                    "midi": 55,
                    "time": 158.6210149999987,
                    "velocity": 0.23622047244094488,
                    "duration": 0.07113050000000953
                },
                {
                    "name": "G3",
                    "midi": 55,
                    "time": 158.7632759999987,
                    "velocity": 0.2677165354330709,
                    "duration": 0.07113050000000953
                },
                {
                    "name": "G3",
                    "midi": 55,
                    "time": 158.90553699999873,
                    "velocity": 0.2440944881889764,
                    "duration": 0.07113050000000953
                },
                {
                    "name": "G2",
                    "midi": 43,
                    "time": 159.04779799999875,
                    "velocity": 0.1889763779527559,
                    "duration": 0.14226099999999064
                },
                {
                    "name": "D#3",
                    "midi": 51,
                    "time": 159.04779799999875,
                    "velocity": 0.2125984251968504,
                    "duration": 0.14226099999999064
                },
                {
                    "name": "G3",
                    "midi": 55,
                    "time": 159.04779799999875,
                    "velocity": 0.25984251968503935,
                    "duration": 0.14226099999999064
                },
                {
                    "name": "G2",
                    "midi": 43,
                    "time": 159.19005899999874,
                    "velocity": 0.1889763779527559,
                    "duration": 0.14226099999999064
                },
                {
                    "name": "D3",
                    "midi": 50,
                    "time": 159.19005899999874,
                    "velocity": 0.2125984251968504,
                    "duration": 0.14226099999999064
                },
                {
                    "name": "G3",
                    "midi": 55,
                    "time": 159.19005899999874,
                    "velocity": 0.2440944881889764,
                    "duration": 0.14226099999999064
                },
                {
                    "name": "G2",
                    "midi": 43,
                    "time": 159.33231999999873,
                    "velocity": 0.2204724409448819,
                    "duration": 0.2845219999999813
                },
                {
                    "name": "C3",
                    "midi": 48,
                    "time": 159.33231999999873,
                    "velocity": 0.2677165354330709,
                    "duration": 0.14226099999999064
                },
                {
                    "name": "G3",
                    "midi": 55,
                    "time": 159.47458099999872,
                    "velocity": 0.23622047244094488,
                    "duration": 0.14226099999999064
                },
                {
                    "name": "G2",
                    "midi": 43,
                    "time": 159.6168419999987,
                    "velocity": 0.2204724409448819,
                    "duration": 0.2845219999999813
                },
                {
                    "name": "F3",
                    "midi": 53,
                    "time": 159.6168419999987,
                    "velocity": 0.25984251968503935,
                    "duration": 0.14226099999999064
                },
                {
                    "name": "G3",
                    "midi": 55,
                    "time": 159.7591029999987,
                    "velocity": 0.2204724409448819,
                    "duration": 0.14226099999999064
                },
                {
                    "name": "G2",
                    "midi": 43,
                    "time": 159.9013639999987,
                    "velocity": 0.2125984251968504,
                    "duration": 0.2845219999999813
                },
                {
                    "name": "D#3",
                    "midi": 51,
                    "time": 159.9013639999987,
                    "velocity": 0.2204724409448819,
                    "duration": 0.14226099999999064
                },
                {
                    "name": "G3",
                    "midi": 55,
                    "time": 160.04362499999868,
                    "velocity": 0.2283464566929134,
                    "duration": 0.14226099999999064
                },
                {
                    "name": "F#2",
                    "midi": 42,
                    "time": 160.18588599999867,
                    "velocity": 0.2204724409448819,
                    "duration": 0.2845219999999813
                },
                {
                    "name": "D#3",
                    "midi": 51,
                    "time": 160.18588599999867,
                    "velocity": 0.30708661417322836,
                    "duration": 0.14226099999999064
                },
                {
                    "name": "F#3",
                    "midi": 54,
                    "time": 160.32814699999867,
                    "velocity": 0.2677165354330709,
                    "duration": 0.14226099999999064
                },
                {
                    "name": "F2",
                    "midi": 41,
                    "time": 160.47040799999866,
                    "velocity": 0.23622047244094488,
                    "duration": 0.853566000000086
                },
                {
                    "name": "D#3",
                    "midi": 51,
                    "time": 160.47040799999866,
                    "velocity": 0.28346456692913385,
                    "duration": 0.853566000000086
                },
                {
                    "name": "F3",
                    "midi": 53,
                    "time": 160.61266899999865,
                    "velocity": 0.25196850393700787,
                    "duration": 0.07113050000000953
                },
                {
                    "name": "F3",
                    "midi": 53,
                    "time": 160.75492999999867,
                    "velocity": 0.25984251968503935,
                    "duration": 0.07113050000000953
                },
                {
                    "name": "F3",
                    "midi": 53,
                    "time": 160.89719099999868,
                    "velocity": 0.23622047244094488,
                    "duration": 0.07113050000000953
                },
                {
                    "name": "F3",
                    "midi": 53,
                    "time": 161.0394519999987,
                    "velocity": 0.2677165354330709,
                    "duration": 0.07113050000000953
                },
                {
                    "name": "F3",
                    "midi": 53,
                    "time": 161.18171299999872,
                    "velocity": 0.2440944881889764,
                    "duration": 0.07113050000000953
                },
                {
                    "name": "F2",
                    "midi": 41,
                    "time": 161.32397399999874,
                    "velocity": 0.1889763779527559,
                    "duration": 0.14226099999999064
                },
                {
                    "name": "D3",
                    "midi": 50,
                    "time": 161.32397399999874,
                    "velocity": 0.2125984251968504,
                    "duration": 0.14226099999999064
                },
                {
                    "name": "F3",
                    "midi": 53,
                    "time": 161.32397399999874,
                    "velocity": 0.25984251968503935,
                    "duration": 0.14226099999999064
                },
                {
                    "name": "F2",
                    "midi": 41,
                    "time": 161.46623499999873,
                    "velocity": 0.1889763779527559,
                    "duration": 0.14226099999999064
                },
                {
                    "name": "C3",
                    "midi": 48,
                    "time": 161.46623499999873,
                    "velocity": 0.2125984251968504,
                    "duration": 0.14226099999999064
                },
                {
                    "name": "F3",
                    "midi": 53,
                    "time": 161.46623499999873,
                    "velocity": 0.2440944881889764,
                    "duration": 0.14226099999999064
                },
                {
                    "name": "F2",
                    "midi": 41,
                    "time": 161.60849599999872,
                    "velocity": 0.2204724409448819,
                    "duration": 0.2845219999999813
                },
                {
                    "name": "A#2",
                    "midi": 46,
                    "time": 161.60849599999872,
                    "velocity": 0.2677165354330709,
                    "duration": 0.14226099999999064
                },
                {
                    "name": "F3",
                    "midi": 53,
                    "time": 161.7507569999987,
                    "velocity": 0.23622047244094488,
                    "duration": 0.14226099999999064
                },
                {
                    "name": "F2",
                    "midi": 41,
                    "time": 161.8930179999987,
                    "velocity": 0.2047244094488189,
                    "duration": 0.2845219999999813
                },
                {
                    "name": "C3",
                    "midi": 48,
                    "time": 161.8930179999987,
                    "velocity": 0.2440944881889764,
                    "duration": 0.14226099999999064
                },
                {
                    "name": "F3",
                    "midi": 53,
                    "time": 162.0352789999987,
                    "velocity": 0.2047244094488189,
                    "duration": 0.14226099999999064
                },
                {
                    "name": "F2",
                    "midi": 41,
                    "time": 162.1775399999987,
                    "velocity": 0.2204724409448819,
                    "duration": 0.2845219999999813
                },
                {
                    "name": "D3",
                    "midi": 50,
                    "time": 162.1775399999987,
                    "velocity": 0.2283464566929134,
                    "duration": 0.14226099999999064
                },
                {
                    "name": "F3",
                    "midi": 53,
                    "time": 162.31980099999868,
                    "velocity": 0.2125984251968504,
                    "duration": 0.14226099999999064
                },
                {
                    "name": "F2",
                    "midi": 41,
                    "time": 162.46206199999867,
                    "velocity": 0.1968503937007874,
                    "duration": 0.2845219999999813
                },
                {
                    "name": "D#3",
                    "midi": 51,
                    "time": 162.46206199999867,
                    "velocity": 0.2755905511811024,
                    "duration": 0.14226099999999064
                },
                {
                    "name": "F3",
                    "midi": 53,
                    "time": 162.60432299999866,
                    "velocity": 0.23622047244094488,
                    "duration": 0.14226099999999064
                },
                {
                    "name": "F3",
                    "midi": 53,
                    "time": 162.74658399999865,
                    "velocity": 0.25196850393700787,
                    "duration": 0.7113049999999816
                },
                {
                    "name": "F2",
                    "midi": 41,
                    "time": 162.74658399999865,
                    "velocity": 0.2125984251968504,
                    "duration": 0.569043999999991
                },
                {
                    "name": "D#3",
                    "midi": 51,
                    "time": 162.74658399999865,
                    "velocity": 0.25196850393700787,
                    "duration": 0.569043999999991
                },
                {
                    "name": "A#2",
                    "midi": 46,
                    "time": 163.31562799999864,
                    "velocity": 0.2204724409448819,
                    "duration": 0.14226099999999064
                },
                {
                    "name": "D3",
                    "midi": 50,
                    "time": 163.31562799999864,
                    "velocity": 0.2204724409448819,
                    "duration": 0.14226099999999064
                },
                {
                    "name": "A#1",
                    "midi": 34,
                    "time": 163.60014999999862,
                    "velocity": 0.23622047244094488,
                    "duration": 0.14226099999999064
                },
                {
                    "name": "A#1",
                    "midi": 34,
                    "time": 163.8846719999986,
                    "velocity": 0.23622047244094488,
                    "duration": 0.053347874999985834
                },
                {
                    "name": "B1",
                    "midi": 35,
                    "time": 163.9202372499986,
                    "velocity": 0.2047244094488189,
                    "duration": 0.053347874999985834
                },
                {
                    "name": "A#1",
                    "midi": 34,
                    "time": 163.95580249999858,
                    "velocity": 0.2125984251968504,
                    "duration": 0.053347874999985834
                },
                {
                    "name": "B1",
                    "midi": 35,
                    "time": 163.99136774999857,
                    "velocity": 0.1968503937007874,
                    "duration": 0.053347874999985834
                },
                {
                    "name": "A#1",
                    "midi": 34,
                    "time": 164.02693299999856,
                    "velocity": 0.2125984251968504,
                    "duration": 0.053347874999985834
                },
                {
                    "name": "B1",
                    "midi": 35,
                    "time": 164.06249824999855,
                    "velocity": 0.1968503937007874,
                    "duration": 0.053347874999985834
                },
                {
                    "name": "A#1",
                    "midi": 34,
                    "time": 164.09806349999855,
                    "velocity": 0.2204724409448819,
                    "duration": 0.053347874999985834
                },
                {
                    "name": "B1",
                    "midi": 35,
                    "time": 164.13362874999854,
                    "velocity": 0.2125984251968504,
                    "duration": 0.053347874999985834
                },
                {
                    "name": "A#1",
                    "midi": 34,
                    "time": 164.16919399999853,
                    "velocity": 0.2283464566929134,
                    "duration": 0.053347874999985834
                },
                {
                    "name": "B1",
                    "midi": 35,
                    "time": 164.20475924999852,
                    "velocity": 0.2047244094488189,
                    "duration": 0.053347874999985834
                },
                {
                    "name": "A#1",
                    "midi": 34,
                    "time": 164.2403244999985,
                    "velocity": 0.2283464566929134,
                    "duration": 0.053347874999985834
                },
                {
                    "name": "B1",
                    "midi": 35,
                    "time": 164.2758897499985,
                    "velocity": 0.1968503937007874,
                    "duration": 0.053347874999985834
                },
                {
                    "name": "A#1",
                    "midi": 34,
                    "time": 164.3114549999985,
                    "velocity": 0.2204724409448819,
                    "duration": 0.053347874999985834
                },
                {
                    "name": "B1",
                    "midi": 35,
                    "time": 164.34702024999848,
                    "velocity": 0.2047244094488189,
                    "duration": 0.053347874999985834
                },
                {
                    "name": "A#1",
                    "midi": 34,
                    "time": 164.38258549999847,
                    "velocity": 0.2125984251968504,
                    "duration": 0.053347874999985834
                },
                {
                    "name": "B1",
                    "midi": 35,
                    "time": 164.41815074999846,
                    "velocity": 0.1968503937007874,
                    "duration": 0.053347874999985834
                },
                {
                    "name": "A#1",
                    "midi": 34,
                    "time": 164.45371599999845,
                    "velocity": 0.2283464566929134,
                    "duration": 0.053347874999985834
                },
                {
                    "name": "B1",
                    "midi": 35,
                    "time": 164.48928124999844,
                    "velocity": 0.2047244094488189,
                    "duration": 0.053347874999985834
                },
                {
                    "name": "A#1",
                    "midi": 34,
                    "time": 164.52484649999843,
                    "velocity": 0.2204724409448819,
                    "duration": 0.053347874999985834
                },
                {
                    "name": "B1",
                    "midi": 35,
                    "time": 164.56041174999842,
                    "velocity": 0.2047244094488189,
                    "duration": 0.053347874999985834
                },
                {
                    "name": "A#1",
                    "midi": 34,
                    "time": 164.5959769999984,
                    "velocity": 0.2204724409448819,
                    "duration": 0.053347874999985834
                },
                {
                    "name": "B1",
                    "midi": 35,
                    "time": 164.6315422499984,
                    "velocity": 0.1968503937007874,
                    "duration": 0.053347874999985834
                },
                {
                    "name": "A#1",
                    "midi": 34,
                    "time": 164.6671074999984,
                    "velocity": 0.2204724409448819,
                    "duration": 0.053347874999985834
                },
                {
                    "name": "B1",
                    "midi": 35,
                    "time": 164.70267274999838,
                    "velocity": 0.1968503937007874,
                    "duration": 0.053347874999985834
                },
                {
                    "name": "A#1",
                    "midi": 34,
                    "time": 164.73823799999838,
                    "velocity": 0.23622047244094488,
                    "duration": 0.0829855833333113
                },
                {
                    "name": "A1",
                    "midi": 33,
                    "time": 164.80936849999836,
                    "velocity": 0.2047244094488189,
                    "duration": 0.08298558333333972
                },
                {
                    "name": "G#1",
                    "midi": 32,
                    "time": 164.88049899999837,
                    "velocity": 0.23622047244094488,
                    "duration": 0.08298558333333972
                },
                {
                    "name": "G1",
                    "midi": 31,
                    "time": 164.95162949999838,
                    "velocity": 0.2047244094488189,
                    "duration": 0.08298558333333972
                },
                {
                    "name": "F#1",
                    "midi": 30,
                    "time": 165.02275999999839,
                    "velocity": 0.23622047244094488,
                    "duration": 0.07113050000000953
                },
                {
                    "name": "C#3",
                    "midi": 49,
                    "time": 165.0938904999984,
                    "velocity": 0.2047244094488189,
                    "duration": 0.07113050000000953
                },
                {
                    "name": "F#3",
                    "midi": 54,
                    "time": 165.1650209999984,
                    "velocity": 0.2047244094488189,
                    "duration": 0.07113050000000953
                },
                {
                    "name": "C#3",
                    "midi": 49,
                    "time": 165.2361514999984,
                    "velocity": 0.2047244094488189,
                    "duration": 0.07113050000000953
                },
                {
                    "name": "F#2",
                    "midi": 42,
                    "time": 165.30728199999842,
                    "velocity": 0.2440944881889764,
                    "duration": 0.07113050000000953
                },
                {
                    "name": "C#3",
                    "midi": 49,
                    "time": 165.37841249999843,
                    "velocity": 0.2047244094488189,
                    "duration": 0.07113050000000953
                },
                {
                    "name": "F3",
                    "midi": 53,
                    "time": 165.44954299999844,
                    "velocity": 0.2047244094488189,
                    "duration": 0.07113050000000953
                },
                {
                    "name": "C#3",
                    "midi": 49,
                    "time": 165.52067349999845,
                    "velocity": 0.1968503937007874,
                    "duration": 0.07113050000000953
                },
                {
                    "name": "F#2",
                    "midi": 42,
                    "time": 165.59180399999846,
                    "velocity": 0.23622047244094488,
                    "duration": 0.07113050000000953
                },
                {
                    "name": "C#3",
                    "midi": 49,
                    "time": 165.66293449999847,
                    "velocity": 0.2125984251968504,
                    "duration": 0.07113050000000953
                },
                {
                    "name": "F#3",
                    "midi": 54,
                    "time": 165.73406499999848,
                    "velocity": 0.2125984251968504,
                    "duration": 0.07113050000000953
                },
                {
                    "name": "C#3",
                    "midi": 49,
                    "time": 165.8051954999985,
                    "velocity": 0.2125984251968504,
                    "duration": 0.07113050000000953
                },
                {
                    "name": "F#2",
                    "midi": 42,
                    "time": 165.8763259999985,
                    "velocity": 0.23622047244094488,
                    "duration": 0.07113050000000953
                },
                {
                    "name": "C#3",
                    "midi": 49,
                    "time": 165.9474564999985,
                    "velocity": 0.2125984251968504,
                    "duration": 0.07113050000000953
                },
                {
                    "name": "G#3",
                    "midi": 56,
                    "time": 166.01858699999852,
                    "velocity": 0.2125984251968504,
                    "duration": 0.07113050000000953
                },
                {
                    "name": "C#3",
                    "midi": 49,
                    "time": 166.08971749999853,
                    "velocity": 0.2125984251968504,
                    "duration": 0.07113050000000953
                },
                {
                    "name": "F#2",
                    "midi": 42,
                    "time": 166.16084799999854,
                    "velocity": 0.25984251968503935,
                    "duration": 0.07113050000000953
                },
                {
                    "name": "C#3",
                    "midi": 49,
                    "time": 166.23197849999855,
                    "velocity": 0.2125984251968504,
                    "duration": 0.07113050000000953
                },
                {
                    "name": "A#3",
                    "midi": 58,
                    "time": 166.30310899999856,
                    "velocity": 0.2125984251968504,
                    "duration": 0.07113050000000953
                },
                {
                    "name": "C#3",
                    "midi": 49,
                    "time": 166.37423949999857,
                    "velocity": 0.2125984251968504,
                    "duration": 0.07113050000000953
                },
                {
                    "name": "F#2",
                    "midi": 42,
                    "time": 166.44536999999858,
                    "velocity": 0.2440944881889764,
                    "duration": 0.07113050000000953
                },
                {
                    "name": "C#3",
                    "midi": 49,
                    "time": 166.51650049999859,
                    "velocity": 0.2125984251968504,
                    "duration": 0.07113050000000953
                },
                {
                    "name": "A#3",
                    "midi": 58,
                    "time": 166.5876309999986,
                    "velocity": 0.2125984251968504,
                    "duration": 0.07113050000000953
                },
                {
                    "name": "C#3",
                    "midi": 49,
                    "time": 166.6587614999986,
                    "velocity": 0.2125984251968504,
                    "duration": 0.07113050000000953
                },
                {
                    "name": "F#2",
                    "midi": 42,
                    "time": 166.7298919999986,
                    "velocity": 0.23622047244094488,
                    "duration": 0.07113050000000953
                },
                {
                    "name": "C#3",
                    "midi": 49,
                    "time": 166.80102249999862,
                    "velocity": 0.2125984251968504,
                    "duration": 0.07113050000000953
                },
                {
                    "name": "A#3",
                    "midi": 58,
                    "time": 166.87215299999863,
                    "velocity": 0.2125984251968504,
                    "duration": 0.07113050000000953
                },
                {
                    "name": "C#3",
                    "midi": 49,
                    "time": 166.94328349999864,
                    "velocity": 0.2125984251968504,
                    "duration": 0.07113050000000953
                },
                {
                    "name": "F#2",
                    "midi": 42,
                    "time": 167.01441399999865,
                    "velocity": 0.2440944881889764,
                    "duration": 0.07113050000000953
                },
                {
                    "name": "C#3",
                    "midi": 49,
                    "time": 167.08554449999866,
                    "velocity": 0.1968503937007874,
                    "duration": 0.07113050000000953
                },
                {
                    "name": "F#3",
                    "midi": 54,
                    "time": 167.15667499999867,
                    "velocity": 0.2204724409448819,
                    "duration": 0.07113050000000953
                },
                {
                    "name": "C#3",
                    "midi": 49,
                    "time": 167.22780549999868,
                    "velocity": 0.2125984251968504,
                    "duration": 0.07113050000000953
                },
                {
                    "name": "F#2",
                    "midi": 42,
                    "time": 167.2989359999987,
                    "velocity": 0.25984251968503935,
                    "duration": 0.07113050000000953
                },
                {
                    "name": "D#3",
                    "midi": 51,
                    "time": 167.3700664999987,
                    "velocity": 0.2125984251968504,
                    "duration": 0.07113050000000953
                },
                {
                    "name": "B3",
                    "midi": 59,
                    "time": 167.4411969999987,
                    "velocity": 0.2125984251968504,
                    "duration": 0.07113050000000953
                },
                {
                    "name": "D#3",
                    "midi": 51,
                    "time": 167.51232749999872,
                    "velocity": 0.2125984251968504,
                    "duration": 0.07113050000000953
                },
                {
                    "name": "F#2",
                    "midi": 42,
                    "time": 167.58345799999873,
                    "velocity": 0.25196850393700787,
                    "duration": 0.07113050000000953
                },
                {
                    "name": "D#3",
                    "midi": 51,
                    "time": 167.65458849999874,
                    "velocity": 0.2125984251968504,
                    "duration": 0.07113050000000953
                },
                {
                    "name": "B3",
                    "midi": 59,
                    "time": 167.72571899999875,
                    "velocity": 0.2125984251968504,
                    "duration": 0.07113050000000953
                },
                {
                    "name": "D#3",
                    "midi": 51,
                    "time": 167.79684949999876,
                    "velocity": 0.2125984251968504,
                    "duration": 0.07113050000000953
                },
                {
                    "name": "F#2",
                    "midi": 42,
                    "time": 167.86797999999877,
                    "velocity": 0.25196850393700787,
                    "duration": 0.07113050000000953
                },
                {
                    "name": "D#3",
                    "midi": 51,
                    "time": 167.93911049999878,
                    "velocity": 0.2125984251968504,
                    "duration": 0.07113050000000953
                },
                {
                    "name": "B3",
                    "midi": 59,
                    "time": 168.01024099999879,
                    "velocity": 0.2125984251968504,
                    "duration": 0.07113050000000953
                },
                {
                    "name": "D#3",
                    "midi": 51,
                    "time": 168.0813714999988,
                    "velocity": 0.2125984251968504,
                    "duration": 0.07113050000000953
                },
                {
                    "name": "F#2",
                    "midi": 42,
                    "time": 168.1525019999988,
                    "velocity": 0.25984251968503935,
                    "duration": 0.07113050000000953
                },
                {
                    "name": "D#3",
                    "midi": 51,
                    "time": 168.2236324999988,
                    "velocity": 0.2125984251968504,
                    "duration": 0.07113050000000953
                },
                {
                    "name": "B3",
                    "midi": 59,
                    "time": 168.29476299999882,
                    "velocity": 0.2440944881889764,
                    "duration": 0.07113050000000953
                },
                {
                    "name": "D#3",
                    "midi": 51,
                    "time": 168.36589349999883,
                    "velocity": 0.2125984251968504,
                    "duration": 0.07113050000000953
                },
                {
                    "name": "F#2",
                    "midi": 42,
                    "time": 168.43702399999884,
                    "velocity": 0.25984251968503935,
                    "duration": 0.07113050000000953
                },
                {
                    "name": "C#3",
                    "midi": 49,
                    "time": 168.50815449999885,
                    "velocity": 0.2204724409448819,
                    "duration": 0.07113050000000953
                },
                {
                    "name": "A#3",
                    "midi": 58,
                    "time": 168.57928499999886,
                    "velocity": 0.2204724409448819,
                    "duration": 0.07113050000000953
                },
                {
                    "name": "C#3",
                    "midi": 49,
                    "time": 168.65041549999887,
                    "velocity": 0.2204724409448819,
                    "duration": 0.07113050000000953
                },
                {
                    "name": "F#2",
                    "midi": 42,
                    "time": 168.72154599999888,
                    "velocity": 0.25984251968503935,
                    "duration": 0.07113050000000953
                },
                {
                    "name": "C#3",
                    "midi": 49,
                    "time": 168.7926764999989,
                    "velocity": 0.2125984251968504,
                    "duration": 0.07113050000000953
                },
                {
                    "name": "A#3",
                    "midi": 58,
                    "time": 168.8638069999989,
                    "velocity": 0.2204724409448819,
                    "duration": 0.07113050000000953
                },
                {
                    "name": "C#3",
                    "midi": 49,
                    "time": 168.9349374999989,
                    "velocity": 0.2125984251968504,
                    "duration": 0.07113050000000953
                },
                {
                    "name": "F#2",
                    "midi": 42,
                    "time": 169.00606799999892,
                    "velocity": 0.25984251968503935,
                    "duration": 0.07113050000000953
                },
                {
                    "name": "C#3",
                    "midi": 49,
                    "time": 169.07719849999893,
                    "velocity": 0.2204724409448819,
                    "duration": 0.07113050000000953
                },
                {
                    "name": "A#3",
                    "midi": 58,
                    "time": 169.14832899999894,
                    "velocity": 0.2283464566929134,
                    "duration": 0.07113050000000953
                },
                {
                    "name": "C#3",
                    "midi": 49,
                    "time": 169.21945949999895,
                    "velocity": 0.2283464566929134,
                    "duration": 0.07113050000000953
                },
                {
                    "name": "F#2",
                    "midi": 42,
                    "time": 169.29058999999896,
                    "velocity": 0.25984251968503935,
                    "duration": 0.07113050000000953
                },
                {
                    "name": "C#3",
                    "midi": 49,
                    "time": 169.36172049999897,
                    "velocity": 0.2125984251968504,
                    "duration": 0.07113050000000953
                },
                {
                    "name": "F#3",
                    "midi": 54,
                    "time": 169.43285099999898,
                    "velocity": 0.2440944881889764,
                    "duration": 0.07113050000000953
                },
                {
                    "name": "C#3",
                    "midi": 49,
                    "time": 169.50398149999899,
                    "velocity": 0.2125984251968504,
                    "duration": 0.07113050000000953
                },
                {
                    "name": "F#2",
                    "midi": 42,
                    "time": 169.575111999999,
                    "velocity": 0.25984251968503935,
                    "duration": 0.07113050000000953
                },
                {
                    "name": "D#3",
                    "midi": 51,
                    "time": 169.646242499999,
                    "velocity": 0.2204724409448819,
                    "duration": 0.07113050000000953
                },
                {
                    "name": "B3",
                    "midi": 59,
                    "time": 169.71737299999901,
                    "velocity": 0.2204724409448819,
                    "duration": 0.07113050000000953
                },
                {
                    "name": "D#3",
                    "midi": 51,
                    "time": 169.78850349999902,
                    "velocity": 0.2204724409448819,
                    "duration": 0.07113050000000953
                },
                {
                    "name": "F#2",
                    "midi": 42,
                    "time": 169.85963399999903,
                    "velocity": 0.25984251968503935,
                    "duration": 0.07113050000000953
                },
                {
                    "name": "D#3",
                    "midi": 51,
                    "time": 169.93076449999904,
                    "velocity": 0.2283464566929134,
                    "duration": 0.07113050000000953
                },
                {
                    "name": "B3",
                    "midi": 59,
                    "time": 170.00189499999905,
                    "velocity": 0.2283464566929134,
                    "duration": 0.07113050000000953
                },
                {
                    "name": "D#3",
                    "midi": 51,
                    "time": 170.07302549999906,
                    "velocity": 0.2283464566929134,
                    "duration": 0.07113050000000953
                },
                {
                    "name": "F#2",
                    "midi": 42,
                    "time": 170.14415599999907,
                    "velocity": 0.25984251968503935,
                    "duration": 0.07113050000000953
                },
                {
                    "name": "C#3",
                    "midi": 49,
                    "time": 170.21528649999908,
                    "velocity": 0.2204724409448819,
                    "duration": 0.07113050000000953
                },
                {
                    "name": "F3",
                    "midi": 53,
                    "time": 170.2864169999991,
                    "velocity": 0.2204724409448819,
                    "duration": 0.07113050000000953
                },
                {
                    "name": "C#3",
                    "midi": 49,
                    "time": 170.3575474999991,
                    "velocity": 0.2125984251968504,
                    "duration": 0.07113050000000953
                },
                {
                    "name": "F#2",
                    "midi": 42,
                    "time": 170.4286779999991,
                    "velocity": 0.2440944881889764,
                    "duration": 0.07113050000000953
                },
                {
                    "name": "C#3",
                    "midi": 49,
                    "time": 170.49980849999912,
                    "velocity": 0.2125984251968504,
                    "duration": 0.07113050000000953
                },
                {
                    "name": "G#3",
                    "midi": 56,
                    "time": 170.57093899999913,
                    "velocity": 0.2204724409448819,
                    "duration": 0.07113050000000953
                },
                {
                    "name": "C#3",
                    "midi": 49,
                    "time": 170.64206949999914,
                    "velocity": 0.2204724409448819,
                    "duration": 0.07113050000000953
                },
                {
                    "name": "F#2",
                    "midi": 42,
                    "time": 170.71319999999915,
                    "velocity": 0.25984251968503935,
                    "duration": 0.07113050000000953
                },
                {
                    "name": "C#3",
                    "midi": 49,
                    "time": 170.78433049999916,
                    "velocity": 0.2204724409448819,
                    "duration": 0.07113050000000953
                },
                {
                    "name": "A#3",
                    "midi": 58,
                    "time": 170.85546099999917,
                    "velocity": 0.2204724409448819,
                    "duration": 0.07113050000000953
                },
                {
                    "name": "C#3",
                    "midi": 49,
                    "time": 170.92659149999918,
                    "velocity": 0.2204724409448819,
                    "duration": 0.07113050000000953
                },
                {
                    "name": "F#2",
                    "midi": 42,
                    "time": 170.9977219999992,
                    "velocity": 0.25984251968503935,
                    "duration": 0.07113050000000953
                },
                {
                    "name": "C#3",
                    "midi": 49,
                    "time": 171.0688524999992,
                    "velocity": 0.2125984251968504,
                    "duration": 0.07113050000000953
                },
                {
                    "name": "A#3",
                    "midi": 58,
                    "time": 171.1399829999992,
                    "velocity": 0.2204724409448819,
                    "duration": 0.07113050000000953
                },
                {
                    "name": "C#3",
                    "midi": 49,
                    "time": 171.21111349999921,
                    "velocity": 0.2125984251968504,
                    "duration": 0.07113050000000953
                },
                {
                    "name": "F#2",
                    "midi": 42,
                    "time": 171.28224399999922,
                    "velocity": 0.25984251968503935,
                    "duration": 0.07113050000000953
                },
                {
                    "name": "C#3",
                    "midi": 49,
                    "time": 171.35337449999923,
                    "velocity": 0.2204724409448819,
                    "duration": 0.07113050000000953
                },
                {
                    "name": "A#3",
                    "midi": 58,
                    "time": 171.42450499999924,
                    "velocity": 0.2283464566929134,
                    "duration": 0.07113050000000953
                },
                {
                    "name": "C#3",
                    "midi": 49,
                    "time": 171.49563549999925,
                    "velocity": 0.2283464566929134,
                    "duration": 0.07113050000000953
                },
                {
                    "name": "F#2",
                    "midi": 42,
                    "time": 171.56676599999926,
                    "velocity": 0.25984251968503935,
                    "duration": 0.07113050000000953
                },
                {
                    "name": "C#3",
                    "midi": 49,
                    "time": 171.63789649999927,
                    "velocity": 0.2125984251968504,
                    "duration": 0.07113050000000953
                },
                {
                    "name": "A#3",
                    "midi": 58,
                    "time": 171.70902699999928,
                    "velocity": 0.2440944881889764,
                    "duration": 0.07113050000000953
                },
                {
                    "name": "C#3",
                    "midi": 49,
                    "time": 171.7801574999993,
                    "velocity": 0.2125984251968504,
                    "duration": 0.07113050000000953
                },
                {
                    "name": "F#2",
                    "midi": 42,
                    "time": 171.8512879999993,
                    "velocity": 0.25984251968503935,
                    "duration": 0.07113050000000953
                },
                {
                    "name": "D#3",
                    "midi": 51,
                    "time": 171.9224184999993,
                    "velocity": 0.2204724409448819,
                    "duration": 0.07113050000000953
                },
                {
                    "name": "F#3",
                    "midi": 54,
                    "time": 171.99354899999932,
                    "velocity": 0.2204724409448819,
                    "duration": 0.07113050000000953
                },
                {
                    "name": "D#3",
                    "midi": 51,
                    "time": 172.06467949999933,
                    "velocity": 0.2204724409448819,
                    "duration": 0.07113050000000953
                },
                {
                    "name": "F#2",
                    "midi": 42,
                    "time": 172.13580999999934,
                    "velocity": 0.25984251968503935,
                    "duration": 0.07113050000000953
                },
                {
                    "name": "D#3",
                    "midi": 51,
                    "time": 172.20694049999935,
                    "velocity": 0.2283464566929134,
                    "duration": 0.07113050000000953
                },
                {
                    "name": "B3",
                    "midi": 59,
                    "time": 172.27807099999936,
                    "velocity": 0.2283464566929134,
                    "duration": 0.07113050000000953
                },
                {
                    "name": "D#3",
                    "midi": 51,
                    "time": 172.34920149999937,
                    "velocity": 0.2283464566929134,
                    "duration": 0.07113050000000953
                },
                {
                    "name": "F#2",
                    "midi": 42,
                    "time": 172.42033199999938,
                    "velocity": 0.25984251968503935,
                    "duration": 0.07113050000000953
                },
                {
                    "name": "C#3",
                    "midi": 49,
                    "time": 172.4914624999994,
                    "velocity": 0.2204724409448819,
                    "duration": 0.07113050000000953
                },
                {
                    "name": "F3",
                    "midi": 53,
                    "time": 172.5625929999994,
                    "velocity": 0.2204724409448819,
                    "duration": 0.07113050000000953
                },
                {
                    "name": "C#3",
                    "midi": 49,
                    "time": 172.6337234999994,
                    "velocity": 0.2125984251968504,
                    "duration": 0.07113050000000953
                },
                {
                    "name": "F#2",
                    "midi": 42,
                    "time": 172.70485399999941,
                    "velocity": 0.2440944881889764,
                    "duration": 0.07113050000000953
                },
                {
                    "name": "C#3",
                    "midi": 49,
                    "time": 172.77598449999942,
                    "velocity": 0.2125984251968504,
                    "duration": 0.07113050000000953
                },
                {
                    "name": "G#3",
                    "midi": 56,
                    "time": 172.84711499999943,
                    "velocity": 0.2204724409448819,
                    "duration": 0.07113050000000953
                },
                {
                    "name": "C#3",
                    "midi": 49,
                    "time": 172.91824549999944,
                    "velocity": 0.2204724409448819,
                    "duration": 0.07113050000000953
                },
                {
                    "name": "F#2",
                    "midi": 42,
                    "time": 172.98937599999945,
                    "velocity": 0.25984251968503935,
                    "duration": 0.035565249999990556
                },
                {
                    "name": "A#3",
                    "midi": 58,
                    "time": 173.06050649999943,
                    "velocity": 0.2204724409448819,
                    "duration": 0.07113050000000953
                },
                {
                    "name": "F#3",
                    "midi": 54,
                    "time": 173.13163699999944,
                    "velocity": 0.2204724409448819,
                    "duration": 0.07113050000000953
                },
                {
                    "name": "A#3",
                    "midi": 58,
                    "time": 173.20276749999945,
                    "velocity": 0.2204724409448819,
                    "duration": 0.07113050000000953
                },
                {
                    "name": "F#3",
                    "midi": 54,
                    "time": 173.27389799999946,
                    "velocity": 0.25984251968503935,
                    "duration": 0.07113050000000953
                },
                {
                    "name": "A#3",
                    "midi": 58,
                    "time": 173.34502849999947,
                    "velocity": 0.2283464566929134,
                    "duration": 0.07113050000000953
                },
                {
                    "name": "F#3",
                    "midi": 54,
                    "time": 173.41615899999948,
                    "velocity": 0.2283464566929134,
                    "duration": 0.07113050000000953
                },
                {
                    "name": "A#3",
                    "midi": 58,
                    "time": 173.4872894999995,
                    "velocity": 0.2283464566929134,
                    "duration": 0.07113050000000953
                },
                {
                    "name": "F#2",
                    "midi": 42,
                    "time": 173.5584199999995,
                    "velocity": 0.25984251968503935,
                    "duration": 0.035565249999990556
                },
                {
                    "name": "A#3",
                    "midi": 58,
                    "time": 173.62955049999948,
                    "velocity": 0.2204724409448819,
                    "duration": 0.07113050000000953
                },
                {
                    "name": "F#3",
                    "midi": 54,
                    "time": 173.7006809999995,
                    "velocity": 0.2204724409448819,
                    "duration": 0.07113050000000953
                },
                {
                    "name": "A#3",
                    "midi": 58,
                    "time": 173.7718114999995,
                    "velocity": 0.2125984251968504,
                    "duration": 0.07113050000000953
                },
                {
                    "name": "F#3",
                    "midi": 54,
                    "time": 173.8429419999995,
                    "velocity": 0.2440944881889764,
                    "duration": 0.07113050000000953
                },
                {
                    "name": "A#3",
                    "midi": 58,
                    "time": 173.91407249999952,
                    "velocity": 0.2125984251968504,
                    "duration": 0.07113050000000953
                },
                {
                    "name": "F#3",
                    "midi": 54,
                    "time": 173.98520299999953,
                    "velocity": 0.2204724409448819,
                    "duration": 0.07113050000000953
                },
                {
                    "name": "A#3",
                    "midi": 58,
                    "time": 174.05633349999954,
                    "velocity": 0.2204724409448819,
                    "duration": 0.07113050000000953
                },
                {
                    "name": "F#2",
                    "midi": 42,
                    "time": 174.12746399999955,
                    "velocity": 0.25984251968503935,
                    "duration": 0.035565249999990556
                },
                {
                    "name": "B3",
                    "midi": 59,
                    "time": 174.19859449999953,
                    "velocity": 0.2204724409448819,
                    "duration": 0.07113050000000953
                },
                {
                    "name": "F#3",
                    "midi": 54,
                    "time": 174.26972499999954,
                    "velocity": 0.2204724409448819,
                    "duration": 0.07113050000000953
                },
                {
                    "name": "B3",
                    "midi": 59,
                    "time": 174.34085549999955,
                    "velocity": 0.2204724409448819,
                    "duration": 0.07113050000000953
                },
                {
                    "name": "F#3",
                    "midi": 54,
                    "time": 174.41198599999956,
                    "velocity": 0.25984251968503935,
                    "duration": 0.07113050000000953
                },
                {
                    "name": "B3",
                    "midi": 59,
                    "time": 174.48311649999957,
                    "velocity": 0.2283464566929134,
                    "duration": 0.07113050000000953
                },
                {
                    "name": "F#3",
                    "midi": 54,
                    "time": 174.55424699999958,
                    "velocity": 0.2283464566929134,
                    "duration": 0.07113050000000953
                },
                {
                    "name": "B3",
                    "midi": 59,
                    "time": 174.6253774999996,
                    "velocity": 0.2283464566929134,
                    "duration": 0.07113050000000953
                },
                {
                    "name": "F#2",
                    "midi": 42,
                    "time": 174.6965079999996,
                    "velocity": 0.25984251968503935,
                    "duration": 0.035565249999990556
                },
                {
                    "name": "B3",
                    "midi": 59,
                    "time": 174.76763849999958,
                    "velocity": 0.2204724409448819,
                    "duration": 0.07113050000000953
                },
                {
                    "name": "F#3",
                    "midi": 54,
                    "time": 174.8387689999996,
                    "velocity": 0.2204724409448819,
                    "duration": 0.07113050000000953
                },
                {
                    "name": "B3",
                    "midi": 59,
                    "time": 174.9098994999996,
                    "velocity": 0.2125984251968504,
                    "duration": 0.07113050000000953
                },
                {
                    "name": "F#3",
                    "midi": 54,
                    "time": 174.9810299999996,
                    "velocity": 0.2440944881889764,
                    "duration": 0.07113050000000953
                },
                {
                    "name": "B3",
                    "midi": 59,
                    "time": 175.05216049999962,
                    "velocity": 0.2125984251968504,
                    "duration": 0.07113050000000953
                },
                {
                    "name": "F#3",
                    "midi": 54,
                    "time": 175.12329099999963,
                    "velocity": 0.2204724409448819,
                    "duration": 0.07113050000000953
                },
                {
                    "name": "B3",
                    "midi": 59,
                    "time": 175.19442149999963,
                    "velocity": 0.2204724409448819,
                    "duration": 0.07113050000000953
                },
                {
                    "name": "F#2",
                    "midi": 42,
                    "time": 175.26555199999964,
                    "velocity": 0.25984251968503935,
                    "duration": 0.035565249999990556
                },
                {
                    "name": "A#3",
                    "midi": 58,
                    "time": 175.33668249999963,
                    "velocity": 0.2204724409448819,
                    "duration": 0.07113050000000953
                },
                {
                    "name": "F#3",
                    "midi": 54,
                    "time": 175.40781299999963,
                    "velocity": 0.2204724409448819,
                    "duration": 0.07113050000000953
                },
                {
                    "name": "A#3",
                    "midi": 58,
                    "time": 175.47894349999964,
                    "velocity": 0.2204724409448819,
                    "duration": 0.07113050000000953
                },
                {
                    "name": "F#3",
                    "midi": 54,
                    "time": 175.55007399999965,
                    "velocity": 0.25984251968503935,
                    "duration": 0.07113050000000953
                },
                {
                    "name": "A#3",
                    "midi": 58,
                    "time": 175.62120449999966,
                    "velocity": 0.2283464566929134,
                    "duration": 0.07113050000000953
                },
                {
                    "name": "F#3",
                    "midi": 54,
                    "time": 175.69233499999967,
                    "velocity": 0.2283464566929134,
                    "duration": 0.07113050000000953
                },
                {
                    "name": "A#3",
                    "midi": 58,
                    "time": 175.76346549999968,
                    "velocity": 0.2283464566929134,
                    "duration": 0.07113050000000953
                },
                {
                    "name": "F#2",
                    "midi": 42,
                    "time": 175.8345959999997,
                    "velocity": 0.25984251968503935,
                    "duration": 0.035565249999990556
                },
                {
                    "name": "A#3",
                    "midi": 58,
                    "time": 175.90572649999967,
                    "velocity": 0.2204724409448819,
                    "duration": 0.07113050000000953
                },
                {
                    "name": "F#3",
                    "midi": 54,
                    "time": 175.97685699999968,
                    "velocity": 0.2204724409448819,
                    "duration": 0.07113050000000953
                },
                {
                    "name": "A#3",
                    "midi": 58,
                    "time": 176.0479874999997,
                    "velocity": 0.2125984251968504,
                    "duration": 0.07113050000000953
                },
                {
                    "name": "F#3",
                    "midi": 54,
                    "time": 176.1191179999997,
                    "velocity": 0.2440944881889764,
                    "duration": 0.07113050000000953
                },
                {
                    "name": "A#3",
                    "midi": 58,
                    "time": 176.1902484999997,
                    "velocity": 0.2125984251968504,
                    "duration": 0.07113050000000953
                },
                {
                    "name": "F#3",
                    "midi": 54,
                    "time": 176.26137899999972,
                    "velocity": 0.2204724409448819,
                    "duration": 0.07113050000000953
                },
                {
                    "name": "A#3",
                    "midi": 58,
                    "time": 176.33250949999973,
                    "velocity": 0.2204724409448819,
                    "duration": 0.07113050000000953
                },
                {
                    "name": "F#2",
                    "midi": 42,
                    "time": 176.40363999999974,
                    "velocity": 0.25984251968503935,
                    "duration": 0.035565249999990556
                },
                {
                    "name": "B3",
                    "midi": 59,
                    "time": 176.47477049999972,
                    "velocity": 0.2204724409448819,
                    "duration": 0.07113050000000953
                },
                {
                    "name": "F#3",
                    "midi": 54,
                    "time": 176.54590099999973,
                    "velocity": 0.2204724409448819,
                    "duration": 0.07113050000000953
                },
                {
                    "name": "B3",
                    "midi": 59,
                    "time": 176.61703149999974,
                    "velocity": 0.2204724409448819,
                    "duration": 0.07113050000000953
                },
                {
                    "name": "F#3",
                    "midi": 54,
                    "time": 176.68816199999975,
                    "velocity": 0.25984251968503935,
                    "duration": 0.07113050000000953
                },
                {
                    "name": "B3",
                    "midi": 59,
                    "time": 176.75929249999976,
                    "velocity": 0.2283464566929134,
                    "duration": 0.07113050000000953
                },
                {
                    "name": "F#3",
                    "midi": 54,
                    "time": 176.83042299999977,
                    "velocity": 0.2283464566929134,
                    "duration": 0.07113050000000953
                },
                {
                    "name": "B3",
                    "midi": 59,
                    "time": 176.90155349999978,
                    "velocity": 0.2283464566929134,
                    "duration": 0.07113050000000953
                },
                {
                    "name": "F#2",
                    "midi": 42,
                    "time": 176.9726839999998,
                    "velocity": 0.25984251968503935,
                    "duration": 0.035565249999990556
                },
                {
                    "name": "B3",
                    "midi": 59,
                    "time": 177.04381449999977,
                    "velocity": 0.2204724409448819,
                    "duration": 0.07113050000000953
                },
                {
                    "name": "F#3",
                    "midi": 54,
                    "time": 177.11494499999978,
                    "velocity": 0.2204724409448819,
                    "duration": 0.07113050000000953
                },
                {
                    "name": "B3",
                    "midi": 59,
                    "time": 177.1860754999998,
                    "velocity": 0.2125984251968504,
                    "duration": 0.07113050000000953
                },
                {
                    "name": "F#3",
                    "midi": 54,
                    "time": 177.2572059999998,
                    "velocity": 0.2440944881889764,
                    "duration": 0.07113050000000953
                },
                {
                    "name": "B3",
                    "midi": 59,
                    "time": 177.3283364999998,
                    "velocity": 0.2125984251968504,
                    "duration": 0.07113050000000953
                },
                {
                    "name": "F#3",
                    "midi": 54,
                    "time": 177.39946699999982,
                    "velocity": 0.2204724409448819,
                    "duration": 0.07113050000000953
                },
                {
                    "name": "B3",
                    "midi": 59,
                    "time": 177.47059749999983,
                    "velocity": 0.2204724409448819,
                    "duration": 0.07113050000000953
                },
                {
                    "name": "F#2",
                    "midi": 42,
                    "time": 177.54172799999984,
                    "velocity": 0.25984251968503935,
                    "duration": 0.035565249999990556
                },
                {
                    "name": "A#3",
                    "midi": 58,
                    "time": 177.61285849999982,
                    "velocity": 0.2204724409448819,
                    "duration": 0.07113050000000953
                },
                {
                    "name": "F#3",
                    "midi": 54,
                    "time": 177.68398899999983,
                    "velocity": 0.2204724409448819,
                    "duration": 0.07113050000000953
                },
                {
                    "name": "A#3",
                    "midi": 58,
                    "time": 177.75511949999984,
                    "velocity": 0.2204724409448819,
                    "duration": 0.07113050000000953
                },
                {
                    "name": "F#3",
                    "midi": 54,
                    "time": 177.82624999999985,
                    "velocity": 0.25984251968503935,
                    "duration": 0.07113050000000953
                },
                {
                    "name": "A#3",
                    "midi": 58,
                    "time": 177.89738049999985,
                    "velocity": 0.2283464566929134,
                    "duration": 0.07113050000000953
                },
                {
                    "name": "F#3",
                    "midi": 54,
                    "time": 177.96851099999986,
                    "velocity": 0.2283464566929134,
                    "duration": 0.07113050000000953
                },
                {
                    "name": "A#3",
                    "midi": 58,
                    "time": 178.03964149999987,
                    "velocity": 0.2283464566929134,
                    "duration": 0.07113050000000953
                },
                {
                    "name": "F#3",
                    "midi": 54,
                    "time": 178.11077199999988,
                    "velocity": 0.25984251968503935,
                    "duration": 0.07113050000000953
                },
                {
                    "name": "A#3",
                    "midi": 58,
                    "time": 178.1819024999999,
                    "velocity": 0.2204724409448819,
                    "duration": 0.07113050000000953
                },
                {
                    "name": "F#3",
                    "midi": 54,
                    "time": 178.2530329999999,
                    "velocity": 0.2204724409448819,
                    "duration": 0.07113050000000953
                },
                {
                    "name": "A#3",
                    "midi": 58,
                    "time": 178.3241634999999,
                    "velocity": 0.2125984251968504,
                    "duration": 0.07113050000000953
                },
                {
                    "name": "F#3",
                    "midi": 54,
                    "time": 178.39529399999992,
                    "velocity": 0.2440944881889764,
                    "duration": 0.07113050000000953
                },
                {
                    "name": "A#3",
                    "midi": 58,
                    "time": 178.46642449999993,
                    "velocity": 0.2125984251968504,
                    "duration": 0.07113050000000953
                },
                {
                    "name": "F#3",
                    "midi": 54,
                    "time": 178.53755499999994,
                    "velocity": 0.2204724409448819,
                    "duration": 0.07113050000000953
                },
                {
                    "name": "A#3",
                    "midi": 58,
                    "time": 178.60868549999995,
                    "velocity": 0.2204724409448819,
                    "duration": 0.07113050000000953
                },
                {
                    "name": "F#2",
                    "midi": 42,
                    "time": 178.67981599999996,
                    "velocity": 0.25984251968503935,
                    "duration": 0.035565249999990556
                },
                {
                    "name": "A#3",
                    "midi": 58,
                    "time": 178.75094649999994,
                    "velocity": 0.2204724409448819,
                    "duration": 0.07113050000000953
                },
                {
                    "name": "F#3",
                    "midi": 54,
                    "time": 178.82207699999995,
                    "velocity": 0.2204724409448819,
                    "duration": 0.07113050000000953
                },
                {
                    "name": "A#3",
                    "midi": 58,
                    "time": 178.89320749999996,
                    "velocity": 0.2204724409448819,
                    "duration": 0.07113050000000953
                },
                {
                    "name": "F#3",
                    "midi": 54,
                    "time": 178.96433799999997,
                    "velocity": 0.25984251968503935,
                    "duration": 0.07113050000000953
                },
                {
                    "name": "A#3",
                    "midi": 58,
                    "time": 179.03546849999998,
                    "velocity": 0.2283464566929134,
                    "duration": 0.07113050000000953
                },
                {
                    "name": "F#3",
                    "midi": 54,
                    "time": 179.106599,
                    "velocity": 0.2283464566929134,
                    "duration": 0.07113050000000953
                },
                {
                    "name": "A#3",
                    "midi": 58,
                    "time": 179.1777295,
                    "velocity": 0.2283464566929134,
                    "duration": 0.07113050000000953
                },
                {
                    "name": "F#3",
                    "midi": 54,
                    "time": 179.24886,
                    "velocity": 0.25984251968503935,
                    "duration": 0.07113050000000953
                },
                {
                    "name": "A#3",
                    "midi": 58,
                    "time": 179.31999050000002,
                    "velocity": 0.2204724409448819,
                    "duration": 0.07113050000000953
                },
                {
                    "name": "F#3",
                    "midi": 54,
                    "time": 179.39112100000003,
                    "velocity": 0.2204724409448819,
                    "duration": 0.07113050000000953
                },
                {
                    "name": "A#3",
                    "midi": 58,
                    "time": 179.46225150000004,
                    "velocity": 0.2125984251968504,
                    "duration": 0.07113050000000953
                },
                {
                    "name": "F#3",
                    "midi": 54,
                    "time": 179.53338200000005,
                    "velocity": 0.2440944881889764,
                    "duration": 0.07113050000000953
                },
                {
                    "name": "A#3",
                    "midi": 58,
                    "time": 179.60451250000006,
                    "velocity": 0.2125984251968504,
                    "duration": 0.07113050000000953
                },
                {
                    "name": "F#3",
                    "midi": 54,
                    "time": 179.67564300000006,
                    "velocity": 0.2204724409448819,
                    "duration": 0.07113050000000953
                },
                {
                    "name": "A#3",
                    "midi": 58,
                    "time": 179.74677350000007,
                    "velocity": 0.2204724409448819,
                    "duration": 0.07113050000000953
                },
                {
                    "name": "F#3",
                    "midi": 54,
                    "time": 179.81790400000008,
                    "velocity": 0.25984251968503935,
                    "duration": 0.07113050000000953
                },
                {
                    "name": "A#3",
                    "midi": 58,
                    "time": 179.8890345000001,
                    "velocity": 0.2204724409448819,
                    "duration": 0.07113050000000953
                },
                {
                    "name": "F#3",
                    "midi": 54,
                    "time": 179.9601650000001,
                    "velocity": 0.2204724409448819,
                    "duration": 0.07113050000000953
                },
                {
                    "name": "A#3",
                    "midi": 58,
                    "time": 180.0312955000001,
                    "velocity": 0.2204724409448819,
                    "duration": 0.07113050000000953
                },
                {
                    "name": "F#3",
                    "midi": 54,
                    "time": 180.10242600000012,
                    "velocity": 0.25984251968503935,
                    "duration": 0.07113050000000953
                },
                {
                    "name": "A#3",
                    "midi": 58,
                    "time": 180.17355650000013,
                    "velocity": 0.2283464566929134,
                    "duration": 0.07113050000000953
                },
                {
                    "name": "F#3",
                    "midi": 54,
                    "time": 180.24468700000014,
                    "velocity": 0.2283464566929134,
                    "duration": 0.07113050000000953
                },
                {
                    "name": "A#3",
                    "midi": 58,
                    "time": 180.31581750000015,
                    "velocity": 0.23622047244094488,
                    "duration": 0.07113050000000953
                },
                {
                    "name": "F#3",
                    "midi": 54,
                    "time": 180.38694800000016,
                    "velocity": 0.2677165354330709,
                    "duration": 0.07113050000000953
                },
                {
                    "name": "A#3",
                    "midi": 58,
                    "time": 180.45807850000017,
                    "velocity": 0.2283464566929134,
                    "duration": 0.07113050000000953
                },
                {
                    "name": "F#3",
                    "midi": 54,
                    "time": 180.52920900000018,
                    "velocity": 0.2283464566929134,
                    "duration": 0.07113050000000953
                },
                {
                    "name": "A#3",
                    "midi": 58,
                    "time": 180.6003395000002,
                    "velocity": 0.2204724409448819,
                    "duration": 0.07113050000000953
                },
                {
                    "name": "F#3",
                    "midi": 54,
                    "time": 180.6714700000002,
                    "velocity": 0.25984251968503935,
                    "duration": 0.07113050000000953
                },
                {
                    "name": "A#3",
                    "midi": 58,
                    "time": 180.7426005000002,
                    "velocity": 0.2283464566929134,
                    "duration": 0.07113050000000953
                },
                {
                    "name": "F#3",
                    "midi": 54,
                    "time": 180.81373100000022,
                    "velocity": 0.23622047244094488,
                    "duration": 0.07113050000000953
                },
                {
                    "name": "A#3",
                    "midi": 58,
                    "time": 180.88486150000023,
                    "velocity": 0.23622047244094488,
                    "duration": 0.07113050000000953
                },
                {
                    "name": "F#2",
                    "midi": 42,
                    "time": 180.95599200000024,
                    "velocity": 0.2677165354330709,
                    "duration": 0.0948406666666699
                },
                {
                    "name": "F#3",
                    "midi": 54,
                    "time": 181.0508326666669,
                    "velocity": 0.2440944881889764,
                    "duration": 0.09009863333332646
                },
                {
                    "name": "F#3",
                    "midi": 54,
                    "time": 181.14567333333358,
                    "velocity": 0.2440944881889764,
                    "duration": 0.09009863333332646
                },
                {
                    "name": "F#2",
                    "midi": 42,
                    "time": 181.14567333333358,
                    "velocity": 0.1968503937007874,
                    "duration": 0.09009863333332646
                },
                {
                    "name": "F#2",
                    "midi": 42,
                    "time": 181.24051400000025,
                    "velocity": 0.2283464566929134,
                    "duration": 0.09009863333332646
                },
                {
                    "name": "F#3",
                    "midi": 54,
                    "time": 181.24051400000025,
                    "velocity": 0.2755905511811024,
                    "duration": 0.09009863333332646
                },
                {
                    "name": "F#2",
                    "midi": 42,
                    "time": 181.33535466666692,
                    "velocity": 0.1968503937007874,
                    "duration": 0.09009863333332646
                },
                {
                    "name": "F#3",
                    "midi": 54,
                    "time": 181.33535466666692,
                    "velocity": 0.2440944881889764,
                    "duration": 0.09009863333332646
                },
                {
                    "name": "F#2",
                    "midi": 42,
                    "time": 181.4301953333336,
                    "velocity": 0.2125984251968504,
                    "duration": 0.09009863333332646
                },
                {
                    "name": "F#3",
                    "midi": 54,
                    "time": 181.4301953333336,
                    "velocity": 0.25984251968503935,
                    "duration": 0.09009863333332646
                },
                {
                    "name": "F#2",
                    "midi": 42,
                    "time": 181.52503600000026,
                    "velocity": 0.2440944881889764,
                    "duration": 0.09009863333332646
                },
                {
                    "name": "F#3",
                    "midi": 54,
                    "time": 181.52503600000026,
                    "velocity": 0.29133858267716534,
                    "duration": 0.09009863333332646
                },
                {
                    "name": "F#2",
                    "midi": 42,
                    "time": 181.61987666666693,
                    "velocity": 0.2283464566929134,
                    "duration": 0.09009863333332646
                },
                {
                    "name": "F#3",
                    "midi": 54,
                    "time": 181.61987666666693,
                    "velocity": 0.2755905511811024,
                    "duration": 0.09009863333332646
                },
                {
                    "name": "F#2",
                    "midi": 42,
                    "time": 181.7147173333336,
                    "velocity": 0.2283464566929134,
                    "duration": 0.09009863333332646
                },
                {
                    "name": "F#3",
                    "midi": 54,
                    "time": 181.7147173333336,
                    "velocity": 0.2755905511811024,
                    "duration": 0.09009863333332646
                },
                {
                    "name": "C#3",
                    "midi": 49,
                    "time": 181.80955800000027,
                    "velocity": 0.25196850393700787,
                    "duration": 0.09009863333332646
                },
                {
                    "name": "F#2",
                    "midi": 42,
                    "time": 181.80955800000027,
                    "velocity": 0.25196850393700787,
                    "duration": 0.09009863333332646
                },
                {
                    "name": "F#3",
                    "midi": 54,
                    "time": 181.80955800000027,
                    "velocity": 0.2992125984251969,
                    "duration": 0.09009863333332646
                },
                {
                    "name": "C#3",
                    "midi": 49,
                    "time": 181.90439866666694,
                    "velocity": 0.25196850393700787,
                    "duration": 0.09009863333332646
                },
                {
                    "name": "F#2",
                    "midi": 42,
                    "time": 181.90439866666694,
                    "velocity": 0.2204724409448819,
                    "duration": 0.09009863333332646
                },
                {
                    "name": "F#3",
                    "midi": 54,
                    "time": 181.90439866666694,
                    "velocity": 0.2755905511811024,
                    "duration": 0.09009863333332646
                },
                {
                    "name": "C#3",
                    "midi": 49,
                    "time": 181.9992393333336,
                    "velocity": 0.25984251968503935,
                    "duration": 0.09009863333332646
                },
                {
                    "name": "F#2",
                    "midi": 42,
                    "time": 181.9992393333336,
                    "velocity": 0.2283464566929134,
                    "duration": 0.09009863333332646
                },
                {
                    "name": "F#3",
                    "midi": 54,
                    "time": 181.9992393333336,
                    "velocity": 0.2755905511811024,
                    "duration": 0.09009863333332646
                },
                {
                    "name": "C#3",
                    "midi": 49,
                    "time": 182.09408000000028,
                    "velocity": 0.25984251968503935,
                    "duration": 0.09009863333332646
                },
                {
                    "name": "F#2",
                    "midi": 42,
                    "time": 182.09408000000028,
                    "velocity": 0.25984251968503935,
                    "duration": 0.09009863333332646
                },
                {
                    "name": "F#3",
                    "midi": 54,
                    "time": 182.09408000000028,
                    "velocity": 0.31496062992125984,
                    "duration": 0.09009863333332646
                },
                {
                    "name": "C#3",
                    "midi": 49,
                    "time": 182.18892066666695,
                    "velocity": 0.2677165354330709,
                    "duration": 0.09009863333332646
                },
                {
                    "name": "F#2",
                    "midi": 42,
                    "time": 182.18892066666695,
                    "velocity": 0.23622047244094488,
                    "duration": 0.09009863333332646
                },
                {
                    "name": "F#3",
                    "midi": 54,
                    "time": 182.18892066666695,
                    "velocity": 0.28346456692913385,
                    "duration": 0.09009863333332646
                },
                {
                    "name": "C#3",
                    "midi": 49,
                    "time": 182.28376133333362,
                    "velocity": 0.2755905511811024,
                    "duration": 0.09009863333332646
                },
                {
                    "name": "F#2",
                    "midi": 42,
                    "time": 182.28376133333362,
                    "velocity": 0.23622047244094488,
                    "duration": 0.09009863333332646
                },
                {
                    "name": "F#3",
                    "midi": 54,
                    "time": 182.28376133333362,
                    "velocity": 0.29133858267716534,
                    "duration": 0.09009863333332646
                },
                {
                    "name": "C#3",
                    "midi": 49,
                    "time": 182.37860200000028,
                    "velocity": 0.28346456692913385,
                    "duration": 0.09009863333332646
                },
                {
                    "name": "F#2",
                    "midi": 42,
                    "time": 182.37860200000028,
                    "velocity": 0.28346456692913385,
                    "duration": 0.09009863333332646
                },
                {
                    "name": "F#3",
                    "midi": 54,
                    "time": 182.37860200000028,
                    "velocity": 0.3464566929133858,
                    "duration": 0.09009863333332646
                },
                {
                    "name": "C#3",
                    "midi": 49,
                    "time": 182.47344266666695,
                    "velocity": 0.29133858267716534,
                    "duration": 0.09009863333332646
                },
                {
                    "name": "F#2",
                    "midi": 42,
                    "time": 182.47344266666695,
                    "velocity": 0.25984251968503935,
                    "duration": 0.09009863333332646
                },
                {
                    "name": "F#3",
                    "midi": 54,
                    "time": 182.47344266666695,
                    "velocity": 0.31496062992125984,
                    "duration": 0.09009863333332646
                },
                {
                    "name": "C#3",
                    "midi": 49,
                    "time": 182.56828333333362,
                    "velocity": 0.30708661417322836,
                    "duration": 0.09009863333332646
                },
                {
                    "name": "F#2",
                    "midi": 42,
                    "time": 182.56828333333362,
                    "velocity": 0.2677165354330709,
                    "duration": 0.09009863333332646
                },
                {
                    "name": "F#3",
                    "midi": 54,
                    "time": 182.56828333333362,
                    "velocity": 0.33070866141732286,
                    "duration": 0.09009863333332646
                },
                {
                    "name": "C#3",
                    "midi": 49,
                    "time": 182.6631240000003,
                    "velocity": 0.31496062992125984,
                    "duration": 0.09009863333332646
                },
                {
                    "name": "F#2",
                    "midi": 42,
                    "time": 182.6631240000003,
                    "velocity": 0.31496062992125984,
                    "duration": 0.09009863333332646
                },
                {
                    "name": "F#3",
                    "midi": 54,
                    "time": 182.6631240000003,
                    "velocity": 0.3779527559055118,
                    "duration": 0.09009863333332646
                },
                {
                    "name": "C#3",
                    "midi": 49,
                    "time": 182.75796466666696,
                    "velocity": 0.3228346456692913,
                    "duration": 0.09009863333332646
                },
                {
                    "name": "F#2",
                    "midi": 42,
                    "time": 182.75796466666696,
                    "velocity": 0.29133858267716534,
                    "duration": 0.09009863333332646
                },
                {
                    "name": "F#3",
                    "midi": 54,
                    "time": 182.75796466666696,
                    "velocity": 0.3464566929133858,
                    "duration": 0.09009863333332646
                },
                {
                    "name": "C#3",
                    "midi": 49,
                    "time": 182.85280533333363,
                    "velocity": 0.33858267716535434,
                    "duration": 0.09009863333332646
                },
                {
                    "name": "F#2",
                    "midi": 42,
                    "time": 182.85280533333363,
                    "velocity": 0.29133858267716534,
                    "duration": 0.09009863333332646
                },
                {
                    "name": "F#3",
                    "midi": 54,
                    "time": 182.85280533333363,
                    "velocity": 0.36220472440944884,
                    "duration": 0.09009863333332646
                },
                {
                    "name": "F3",
                    "midi": 53,
                    "time": 182.9476460000003,
                    "velocity": 0.44881889763779526,
                    "duration": 0.09009863333332646
                },
                {
                    "name": "F2",
                    "midi": 41,
                    "time": 182.9476460000003,
                    "velocity": 0.3779527559055118,
                    "duration": 0.09009863333332646
                },
                {
                    "name": "D3",
                    "midi": 50,
                    "time": 182.9476460000003,
                    "velocity": 0.3779527559055118,
                    "duration": 0.09009863333332646
                },
                {
                    "name": "F3",
                    "midi": 53,
                    "time": 183.04248666666697,
                    "velocity": 0.4094488188976378,
                    "duration": 0.09009863333332646
                },
                {
                    "name": "F2",
                    "midi": 41,
                    "time": 183.04248666666697,
                    "velocity": 0.33070866141732286,
                    "duration": 0.09009863333332646
                },
                {
                    "name": "D3",
                    "midi": 50,
                    "time": 183.04248666666697,
                    "velocity": 0.3779527559055118,
                    "duration": 0.09009863333332646
                },
                {
                    "name": "F3",
                    "midi": 53,
                    "time": 183.13732733333364,
                    "velocity": 0.4094488188976378,
                    "duration": 0.09009863333332646
                },
                {
                    "name": "F2",
                    "midi": 41,
                    "time": 183.13732733333364,
                    "velocity": 0.33070866141732286,
                    "duration": 0.09009863333332646
                },
                {
                    "name": "D3",
                    "midi": 50,
                    "time": 183.13732733333364,
                    "velocity": 0.3779527559055118,
                    "duration": 0.09009863333332646
                },
                {
                    "name": "D3",
                    "midi": 50,
                    "time": 183.2321680000003,
                    "velocity": 0.49606299212598426,
                    "duration": 0.0948406666666699
                },
                {
                    "name": "F2",
                    "midi": 41,
                    "time": 183.2321680000003,
                    "velocity": 0.49606299212598426,
                    "duration": 0.2845219999999813
                },
                {
                    "name": "F3",
                    "midi": 53,
                    "time": 183.32700866666698,
                    "velocity": 0.4566929133858268,
                    "duration": 0.0948406666666699
                },
                {
                    "name": "F3",
                    "midi": 53,
                    "time": 183.42184933333365,
                    "velocity": 0.4566929133858268,
                    "duration": 0.04742033333332074
                },
                {
                    "name": "C3",
                    "midi": 48,
                    "time": 183.5166900000003,
                    "velocity": 0.4881889763779528,
                    "duration": 0.0948406666666699
                },
                {
                    "name": "F2",
                    "midi": 41,
                    "time": 183.5166900000003,
                    "velocity": 0.4881889763779528,
                    "duration": 0.2845219999999813
                },
                {
                    "name": "F3",
                    "midi": 53,
                    "time": 183.61153066666697,
                    "velocity": 0.4566929133858268,
                    "duration": 0.0948406666666699
                },
                {
                    "name": "F3",
                    "midi": 53,
                    "time": 183.70637133333364,
                    "velocity": 0.4566929133858268,
                    "duration": 0.04742033333332074
                },
                {
                    "name": "D3",
                    "midi": 50,
                    "time": 183.80121200000028,
                    "velocity": 0.47244094488188976,
                    "duration": 0.0948406666666699
                },
                {
                    "name": "F2",
                    "midi": 41,
                    "time": 183.80121200000028,
                    "velocity": 0.47244094488188976,
                    "duration": 0.2845219999999813
                },
                {
                    "name": "F3",
                    "midi": 53,
                    "time": 183.89605266666695,
                    "velocity": 0.4566929133858268,
                    "duration": 0.0948406666666699
                },
                {
                    "name": "F3",
                    "midi": 53,
                    "time": 183.99089333333362,
                    "velocity": 0.4566929133858268,
                    "duration": 0.04742033333332074
                },
                {
                    "name": "D#3",
                    "midi": 51,
                    "time": 184.08573400000026,
                    "velocity": 0.48031496062992124,
                    "duration": 0.0948406666666699
                },
                {
                    "name": "F2",
                    "midi": 41,
                    "time": 184.08573400000026,
                    "velocity": 0.48031496062992124,
                    "duration": 0.2845219999999813
                },
                {
                    "name": "F3",
                    "midi": 53,
                    "time": 184.18057466666693,
                    "velocity": 0.4566929133858268,
                    "duration": 0.0948406666666699
                },
                {
                    "name": "F3",
                    "midi": 53,
                    "time": 184.2754153333336,
                    "velocity": 0.4566929133858268,
                    "duration": 0.04742033333332074
                },
                {
                    "name": "E3",
                    "midi": 52,
                    "time": 184.37025600000024,
                    "velocity": 0.47244094488188976,
                    "duration": 0.0948406666666699
                },
                {
                    "name": "F2",
                    "midi": 41,
                    "time": 184.37025600000024,
                    "velocity": 0.47244094488188976,
                    "duration": 0.8535659999999723
                },
                {
                    "name": "F3",
                    "midi": 53,
                    "time": 184.4650966666669,
                    "velocity": 0.4566929133858268,
                    "duration": 0.0948406666666699
                },
                {
                    "name": "F3",
                    "midi": 53,
                    "time": 184.55993733333358,
                    "velocity": 0.4566929133858268,
                    "duration": 0.04742033333332074
                },
                {
                    "name": "F3",
                    "midi": 53,
                    "time": 184.65477800000022,
                    "velocity": 0.47244094488188976,
                    "duration": 0.0948406666666699
                },
                {
                    "name": "F3",
                    "midi": 53,
                    "time": 184.7496186666669,
                    "velocity": 0.4566929133858268,
                    "duration": 0.0948406666666699
                },
                {
                    "name": "F3",
                    "midi": 53,
                    "time": 184.84445933333356,
                    "velocity": 0.4566929133858268,
                    "duration": 0.04742033333332074
                },
                {
                    "name": "F3",
                    "midi": 53,
                    "time": 184.9393000000002,
                    "velocity": 0.4881889763779528,
                    "duration": 0.09009863333332646
                },
                {
                    "name": "F3",
                    "midi": 53,
                    "time": 185.03414066666687,
                    "velocity": 0.4566929133858268,
                    "duration": 0.09009863333332646
                },
                {
                    "name": "F3",
                    "midi": 53,
                    "time": 185.12898133333354,
                    "velocity": 0.4566929133858268,
                    "duration": 0.09009863333332646
                },
                {
                    "name": "D#3",
                    "midi": 51,
                    "time": 185.2238220000002,
                    "velocity": 0.48031496062992124,
                    "duration": 0.0948406666666699
                },
                {
                    "name": "F2",
                    "midi": 41,
                    "time": 185.2238220000002,
                    "velocity": 0.41732283464566927,
                    "duration": 0.2845220000000097
                },
                {
                    "name": "F3",
                    "midi": 53,
                    "time": 185.31866266666688,
                    "velocity": 0.41732283464566927,
                    "duration": 0.0948406666666699
                },
                {
                    "name": "D3",
                    "midi": 50,
                    "time": 185.41350333333355,
                    "velocity": 0.41732283464566927,
                    "duration": 0.0948406666666699
                },
                {
                    "name": "D#3",
                    "midi": 51,
                    "time": 185.50834400000022,
                    "velocity": 0.47244094488188976,
                    "duration": 0.0948406666666699
                },
                {
                    "name": "F2",
                    "midi": 41,
                    "time": 185.50834400000022,
                    "velocity": 0.47244094488188976,
                    "duration": 0.2845220000000097
                },
                {
                    "name": "F3",
                    "midi": 53,
                    "time": 185.6031846666669,
                    "velocity": 0.4330708661417323,
                    "duration": 0.09009863333332646
                },
                {
                    "name": "F3",
                    "midi": 53,
                    "time": 185.69802533333356,
                    "velocity": 0.4330708661417323,
                    "duration": 0.09009863333332646
                },
                {
                    "name": "D#3",
                    "midi": 51,
                    "time": 185.79286600000023,
                    "velocity": 0.47244094488188976,
                    "duration": 0.0948406666666699
                },
                {
                    "name": "F2",
                    "midi": 41,
                    "time": 185.79286600000023,
                    "velocity": 0.47244094488188976,
                    "duration": 0.2845220000000097
                },
                {
                    "name": "F3",
                    "midi": 53,
                    "time": 185.8877066666669,
                    "velocity": 0.4409448818897638,
                    "duration": 0.09009863333332646
                },
                {
                    "name": "F3",
                    "midi": 53,
                    "time": 185.98254733333357,
                    "velocity": 0.4409448818897638,
                    "duration": 0.09009863333332646
                },
                {
                    "name": "D#3",
                    "midi": 51,
                    "time": 186.07738800000024,
                    "velocity": 0.4881889763779528,
                    "duration": 0.0948406666666699
                },
                {
                    "name": "F2",
                    "midi": 41,
                    "time": 186.07738800000024,
                    "velocity": 0.4881889763779528,
                    "duration": 0.2845220000000097
                },
                {
                    "name": "F3",
                    "midi": 53,
                    "time": 186.1722286666669,
                    "velocity": 0.4566929133858268,
                    "duration": 0.09009863333332646
                },
                {
                    "name": "F3",
                    "midi": 53,
                    "time": 186.26706933333358,
                    "velocity": 0.4566929133858268,
                    "duration": 0.09009863333332646
                },
                {
                    "name": "D3",
                    "midi": 50,
                    "time": 186.36191000000025,
                    "velocity": 0.4881889763779528,
                    "duration": 0.0948406666666699
                },
                {
                    "name": "F2",
                    "midi": 41,
                    "time": 186.36191000000025,
                    "velocity": 0.4881889763779528,
                    "duration": 0.2845220000000097
                },
                {
                    "name": "F3",
                    "midi": 53,
                    "time": 186.45675066666692,
                    "velocity": 0.4645669291338583,
                    "duration": 0.0948406666666699
                },
                {
                    "name": "C3",
                    "midi": 48,
                    "time": 186.5515913333336,
                    "velocity": 0.4645669291338583,
                    "duration": 0.0948406666666699
                },
                {
                    "name": "D3",
                    "midi": 50,
                    "time": 186.64643200000026,
                    "velocity": 0.4881889763779528,
                    "duration": 0.0948406666666699
                },
                {
                    "name": "A#2",
                    "midi": 46,
                    "time": 186.64643200000026,
                    "velocity": 0.4881889763779528,
                    "duration": 0.8535660000000291
                },
                {
                    "name": "F3",
                    "midi": 53,
                    "time": 186.74127266666693,
                    "velocity": 0.4409448818897638,
                    "duration": 0.09424791250000908
                },
                {
                    "name": "F3",
                    "midi": 53,
                    "time": 186.8361133333336,
                    "velocity": 0.4409448818897638,
                    "duration": 0.09424791250000908
                },
                {
                    "name": "D#3",
                    "midi": 51,
                    "time": 186.93095400000027,
                    "velocity": 0.47244094488188976,
                    "duration": 0.0948406666666699
                },
                {
                    "name": "G3",
                    "midi": 55,
                    "time": 187.02579466666694,
                    "velocity": 0.4409448818897638,
                    "duration": 0.09424791250000908
                },
                {
                    "name": "G3",
                    "midi": 55,
                    "time": 187.1206353333336,
                    "velocity": 0.4409448818897638,
                    "duration": 0.09424791250000908
                },
                {
                    "name": "D3",
                    "midi": 50,
                    "time": 187.21547600000028,
                    "velocity": 0.47244094488188976,
                    "duration": 0.0948406666666699
                },
                {
                    "name": "F3",
                    "midi": 53,
                    "time": 187.31031666666695,
                    "velocity": 0.4409448818897638,
                    "duration": 0.09424791250000908
                },
                {
                    "name": "F3",
                    "midi": 53,
                    "time": 187.40515733333362,
                    "velocity": 0.44881889763779526,
                    "duration": 0.09424791250000908
                },
                {
                    "name": "D3",
                    "midi": 50,
                    "time": 187.4999980000003,
                    "velocity": 0.4645669291338583,
                    "duration": 0.0948406666666699
                },
                {
                    "name": "G#2",
                    "midi": 44,
                    "time": 187.4999980000003,
                    "velocity": 0.4645669291338583,
                    "duration": 0.2845220000000097
                },
                {
                    "name": "F3",
                    "midi": 53,
                    "time": 187.59483866666696,
                    "velocity": 0.4251968503937008,
                    "duration": 0.09424791250000908
                },
                {
                    "name": "F3",
                    "midi": 53,
                    "time": 187.68967933333363,
                    "velocity": 0.4251968503937008,
                    "duration": 0.09424791250000908
                },
                {
                    "name": "F3",
                    "midi": 53,
                    "time": 187.7845200000003,
                    "velocity": 0.4645669291338583,
                    "duration": 0.0948406666666699
                },
                {
                    "name": "G2",
                    "midi": 43,
                    "time": 187.7845200000003,
                    "velocity": 0.4645669291338583,
                    "duration": 0.8535660000000291
                },
                {
                    "name": "G3",
                    "midi": 55,
                    "time": 187.87936066666697,
                    "velocity": 0.41732283464566927,
                    "duration": 0.09424791250000908
                },
                {
                    "name": "G3",
                    "midi": 55,
                    "time": 187.97420133333364,
                    "velocity": 0.41732283464566927,
                    "duration": 0.09424791250000908
                },
                {
                    "name": "F3",
                    "midi": 53,
                    "time": 188.0690420000003,
                    "velocity": 0.4409448818897638,
                    "duration": 0.0948406666666699
                },
                {
                    "name": "G3",
                    "midi": 55,
                    "time": 188.16388266666698,
                    "velocity": 0.41732283464566927,
                    "duration": 0.09424791250000908
                },
                {
                    "name": "G3",
                    "midi": 55,
                    "time": 188.25872333333365,
                    "velocity": 0.41732283464566927,
                    "duration": 0.09424791250000908
                },
                {
                    "name": "F3",
                    "midi": 53,
                    "time": 188.35356400000032,
                    "velocity": 0.44881889763779526,
                    "duration": 0.0948406666666699
                },
                {
                    "name": "G3",
                    "midi": 55,
                    "time": 188.448404666667,
                    "velocity": 0.4015748031496063,
                    "duration": 0.09424791250000908
                },
                {
                    "name": "G3",
                    "midi": 55,
                    "time": 188.54324533333366,
                    "velocity": 0.4015748031496063,
                    "duration": 0.0948406666666699
                },
                {
                    "name": "D#3",
                    "midi": 51,
                    "time": 188.63808600000033,
                    "velocity": 0.4409448818897638,
                    "duration": 0.0948406666666699
                },
                {
                    "name": "G2",
                    "midi": 43,
                    "time": 188.63808600000033,
                    "velocity": 0.4409448818897638,
                    "duration": 0.2845220000000097
                },
                {
                    "name": "G3",
                    "midi": 55,
                    "time": 188.732926666667,
                    "velocity": 0.4015748031496063,
                    "duration": 0.0948406666666699
                },
                {
                    "name": "D3",
                    "midi": 50,
                    "time": 188.82776733333367,
                    "velocity": 0.4015748031496063,
                    "duration": 0.0948406666666699
                },
                {
                    "name": "C3",
                    "midi": 48,
                    "time": 188.92260800000034,
                    "velocity": 0.4251968503937008,
                    "duration": 0.0948406666666699
                },
                {
                    "name": "G2",
                    "midi": 43,
                    "time": 188.92260800000034,
                    "velocity": 0.4251968503937008,
                    "duration": 0.2845220000000097
                },
                {
                    "name": "G3",
                    "midi": 55,
                    "time": 189.017448666667,
                    "velocity": 0.3937007874015748,
                    "duration": 0.09424791250000908
                },
                {
                    "name": "G3",
                    "midi": 55,
                    "time": 189.11228933333368,
                    "velocity": 0.3937007874015748,
                    "duration": 0.09424791250000908
                },
                {
                    "name": "F3",
                    "midi": 53,
                    "time": 189.20713000000035,
                    "velocity": 0.4251968503937008,
                    "duration": 0.0948406666666699
                },
                {
                    "name": "G2",
                    "midi": 43,
                    "time": 189.20713000000035,
                    "velocity": 0.4251968503937008,
                    "duration": 0.2845220000000097
                },
                {
                    "name": "G3",
                    "midi": 55,
                    "time": 189.30197066666702,
                    "velocity": 0.3937007874015748,
                    "duration": 0.09424791250000908
                },
                {
                    "name": "G3",
                    "midi": 55,
                    "time": 189.3968113333337,
                    "velocity": 0.3937007874015748,
                    "duration": 0.09424791250000908
                },
                {
                    "name": "D#3",
                    "midi": 51,
                    "time": 189.49165200000036,
                    "velocity": 0.4330708661417323,
                    "duration": 0.0948406666666699
                },
                {
                    "name": "G2",
                    "midi": 43,
                    "time": 189.49165200000036,
                    "velocity": 0.4330708661417323,
                    "duration": 0.2845220000000097
                },
                {
                    "name": "G3",
                    "midi": 55,
                    "time": 189.58649266666703,
                    "velocity": 0.3937007874015748,
                    "duration": 0.09424791250000908
                },
                {
                    "name": "G3",
                    "midi": 55,
                    "time": 189.6813333333337,
                    "velocity": 0.3937007874015748,
                    "duration": 0.09424791250000908
                },
                {
                    "name": "D#3",
                    "midi": 51,
                    "time": 189.77617400000037,
                    "velocity": 0.44881889763779526,
                    "duration": 0.0948406666666699
                },
                {
                    "name": "F#2",
                    "midi": 42,
                    "time": 189.77617400000037,
                    "velocity": 0.44881889763779526,
                    "duration": 0.2845220000000097
                },
                {
                    "name": "F#3",
                    "midi": 54,
                    "time": 189.87101466666704,
                    "velocity": 0.4094488188976378,
                    "duration": 0.09424791250000908
                },
                {
                    "name": "F#3",
                    "midi": 54,
                    "time": 189.9658553333337,
                    "velocity": 0.4094488188976378,
                    "duration": 0.09424791250000908
                },
                {
                    "name": "D#3",
                    "midi": 51,
                    "time": 190.06069600000038,
                    "velocity": 0.4566929133858268,
                    "duration": 0.0948406666666699
                },
                {
                    "name": "F2",
                    "midi": 41,
                    "time": 190.06069600000038,
                    "velocity": 0.4566929133858268,
                    "duration": 0.8535660000000291
                },
                {
                    "name": "F3",
                    "midi": 53,
                    "time": 190.15553666666705,
                    "velocity": 0.4094488188976378,
                    "duration": 0.09009863333332646
                },
                {
                    "name": "F3",
                    "midi": 53,
                    "time": 190.25037733333372,
                    "velocity": 0.4094488188976378,
                    "duration": 0.09009863333332646
                },
                {
                    "name": "D#3",
                    "midi": 51,
                    "time": 190.3452180000004,
                    "velocity": 0.4409448818897638,
                    "duration": 0.0948406666666699
                },
                {
                    "name": "F3",
                    "midi": 53,
                    "time": 190.44005866666706,
                    "velocity": 0.4094488188976378,
                    "duration": 0.09009863333332646
                },
                {
                    "name": "F3",
                    "midi": 53,
                    "time": 190.53489933333373,
                    "velocity": 0.41732283464566927,
                    "duration": 0.09009863333332646
                },
                {
                    "name": "D#3",
                    "midi": 51,
                    "time": 190.6297400000004,
                    "velocity": 0.44881889763779526,
                    "duration": 0.0948406666666699
                },
                {
                    "name": "F3",
                    "midi": 53,
                    "time": 190.72458066666707,
                    "velocity": 0.4094488188976378,
                    "duration": 0.09009863333332646
                },
                {
                    "name": "F3",
                    "midi": 53,
                    "time": 190.81942133333374,
                    "velocity": 0.4094488188976378,
                    "duration": 0.09009863333332646
                },
                {
                    "name": "D3",
                    "midi": 50,
                    "time": 190.9142620000004,
                    "velocity": 0.44881889763779526,
                    "duration": 0.0948406666666699
                },
                {
                    "name": "F2",
                    "midi": 41,
                    "time": 190.9142620000004,
                    "velocity": 0.44881889763779526,
                    "duration": 0.2845220000000097
                },
                {
                    "name": "F3",
                    "midi": 53,
                    "time": 191.00910266666708,
                    "velocity": 0.4251968503937008,
                    "duration": 0.0948406666666699
                },
                {
                    "name": "C3",
                    "midi": 48,
                    "time": 191.10394333333375,
                    "velocity": 0.4015748031496063,
                    "duration": 0.0948406666666699
                },
                {
                    "name": "A#2",
                    "midi": 46,
                    "time": 191.19878400000042,
                    "velocity": 0.4566929133858268,
                    "duration": 0.0948406666666699
                },
                {
                    "name": "F2",
                    "midi": 41,
                    "time": 191.19878400000042,
                    "velocity": 0.4566929133858268,
                    "duration": 0.2845220000000097
                },
                {
                    "name": "F3",
                    "midi": 53,
                    "time": 191.29362466666709,
                    "velocity": 0.41732283464566927,
                    "duration": 0.09009863333332646
                },
                {
                    "name": "F3",
                    "midi": 53,
                    "time": 191.38846533333376,
                    "velocity": 0.41732283464566927,
                    "duration": 0.09009863333332646
                },
                {
                    "name": "C3",
                    "midi": 48,
                    "time": 191.48330600000043,
                    "velocity": 0.4566929133858268,
                    "duration": 0.0948406666666699
                },
                {
                    "name": "F2",
                    "midi": 41,
                    "time": 191.48330600000043,
                    "velocity": 0.4566929133858268,
                    "duration": 0.2845220000000097
                },
                {
                    "name": "F3",
                    "midi": 53,
                    "time": 191.5781466666671,
                    "velocity": 0.4094488188976378,
                    "duration": 0.09009863333332646
                },
                {
                    "name": "F3",
                    "midi": 53,
                    "time": 191.67298733333377,
                    "velocity": 0.4094488188976378,
                    "duration": 0.09009863333332646
                },
                {
                    "name": "D3",
                    "midi": 50,
                    "time": 191.76782800000043,
                    "velocity": 0.4409448818897638,
                    "duration": 0.0948406666666699
                },
                {
                    "name": "F2",
                    "midi": 41,
                    "time": 191.76782800000043,
                    "velocity": 0.4409448818897638,
                    "duration": 0.2845220000000097
                },
                {
                    "name": "F3",
                    "midi": 53,
                    "time": 191.8626686666671,
                    "velocity": 0.4094488188976378,
                    "duration": 0.09009863333332646
                },
                {
                    "name": "F3",
                    "midi": 53,
                    "time": 191.95750933333377,
                    "velocity": 0.4094488188976378,
                    "duration": 0.09009863333332646
                },
                {
                    "name": "D#3",
                    "midi": 51,
                    "time": 192.05235000000044,
                    "velocity": 0.4409448818897638,
                    "duration": 0.0948406666666699
                },
                {
                    "name": "F2",
                    "midi": 41,
                    "time": 192.05235000000044,
                    "velocity": 0.4409448818897638,
                    "duration": 0.2845220000000097
                },
                {
                    "name": "F3",
                    "midi": 53,
                    "time": 192.14719066666711,
                    "velocity": 0.4094488188976378,
                    "duration": 0.09009863333332646
                },
                {
                    "name": "F3",
                    "midi": 53,
                    "time": 192.24203133333378,
                    "velocity": 0.4094488188976378,
                    "duration": 0.09009863333332646
                },
                {
                    "name": "F2",
                    "midi": 41,
                    "time": 192.33687200000045,
                    "velocity": 0.4015748031496063,
                    "duration": 0.5690440000000194
                },
                {
                    "name": "D#3",
                    "midi": 51,
                    "time": 192.33687200000045,
                    "velocity": 0.4015748031496063,
                    "duration": 0.5690440000000194
                },
                {
                    "name": "F3",
                    "midi": 53,
                    "time": 192.43171266666712,
                    "velocity": 0.3937007874015748,
                    "duration": 0.09009863333332646
                },
                {
                    "name": "F3",
                    "midi": 53,
                    "time": 192.5265533333338,
                    "velocity": 0.3937007874015748,
                    "duration": 0.09009863333332646
                },
                {
                    "name": "F3",
                    "midi": 53,
                    "time": 192.62139400000046,
                    "velocity": 0.3937007874015748,
                    "duration": 0.09009863333332646
                },
                {
                    "name": "F3",
                    "midi": 53,
                    "time": 192.71623466666713,
                    "velocity": 0.3937007874015748,
                    "duration": 0.09009863333332646
                },
                {
                    "name": "F3",
                    "midi": 53,
                    "time": 192.8110753333338,
                    "velocity": 0.3858267716535433,
                    "duration": 0.09009863333332646
                },
                {
                    "name": "F3",
                    "midi": 53,
                    "time": 192.90591600000047,
                    "velocity": 0.3858267716535433,
                    "duration": 0.09009863333332646
                },
                {
                    "name": "F3",
                    "midi": 53,
                    "time": 193.00075666666714,
                    "velocity": 0.3858267716535433,
                    "duration": 0.09009863333332646
                },
                {
                    "name": "F3",
                    "midi": 53,
                    "time": 193.0955973333338,
                    "velocity": 0.3858267716535433,
                    "duration": 0.09009863333332646
                },
                {
                    "name": "F3",
                    "midi": 53,
                    "time": 193.19043800000048,
                    "velocity": 0.3779527559055118,
                    "duration": 0.09009863333332646
                },
                {
                    "name": "F3",
                    "midi": 53,
                    "time": 193.28527866666715,
                    "velocity": 0.3779527559055118,
                    "duration": 0.09009863333332646
                },
                {
                    "name": "F3",
                    "midi": 53,
                    "time": 193.38011933333382,
                    "velocity": 0.3779527559055118,
                    "duration": 0.09009863333332646
                },
                {
                    "name": "F2",
                    "midi": 41,
                    "time": 193.4749600000005,
                    "velocity": 0.3543307086614173,
                    "duration": 1.1380880000000388
                },
                {
                    "name": "D3",
                    "midi": 50,
                    "time": 193.4749600000005,
                    "velocity": 0.3779527559055118,
                    "duration": 1.1380880000000388
                },
                {
                    "name": "F3",
                    "midi": 53,
                    "time": 193.56980066666716,
                    "velocity": 0.33070866141732286,
                    "duration": 0.0948406666666699
                },
                {
                    "name": "F3",
                    "midi": 53,
                    "time": 193.66464133333383,
                    "velocity": 0.30708661417322836,
                    "duration": 0.09009863333332646
                },
                {
                    "name": "F3",
                    "midi": 53,
                    "time": 193.7594820000005,
                    "velocity": 0.2992125984251969,
                    "duration": 0.09009863333332646
                },
                {
                    "name": "F3",
                    "midi": 53,
                    "time": 193.85432266666717,
                    "velocity": 0.2992125984251969,
                    "duration": 0.09009863333332646
                },
                {
                    "name": "F3",
                    "midi": 53,
                    "time": 193.94916333333384,
                    "velocity": 0.29133858267716534,
                    "duration": 0.09009863333332646
                },
                {
                    "name": "F3",
                    "midi": 53,
                    "time": 194.0440040000005,
                    "velocity": 0.29133858267716534,
                    "duration": 0.09009863333332646
                },
                {
                    "name": "F3",
                    "midi": 53,
                    "time": 194.13884466666718,
                    "velocity": 0.28346456692913385,
                    "duration": 0.09009863333332646
                },
                {
                    "name": "F3",
                    "midi": 53,
                    "time": 194.23368533333385,
                    "velocity": 0.2755905511811024,
                    "duration": 0.09009863333332646
                },
                {
                    "name": "F3",
                    "midi": 53,
                    "time": 194.32852600000052,
                    "velocity": 0.28346456692913385,
                    "duration": 0.09009863333332646
                },
                {
                    "name": "F3",
                    "midi": 53,
                    "time": 194.4233666666672,
                    "velocity": 0.31496062992125984,
                    "duration": 0.09009863333332646
                },
                {
                    "name": "F3",
                    "midi": 53,
                    "time": 194.51820733333386,
                    "velocity": 0.3464566929133858,
                    "duration": 0.09009863333332646
                },
                {
                    "name": "F3",
                    "midi": 53,
                    "time": 194.61304800000053,
                    "velocity": 0.3937007874015748,
                    "duration": 0.0948406666666699
                },
                {
                    "name": "G#2",
                    "midi": 44,
                    "time": 194.7078886666672,
                    "velocity": 0.33070866141732286,
                    "duration": 0.09009863333332646
                },
                {
                    "name": "G#2",
                    "midi": 44,
                    "time": 194.80272933333387,
                    "velocity": 0.33070866141732286,
                    "duration": 0.09009863333332646
                },
                {
                    "name": "G#2",
                    "midi": 44,
                    "time": 194.89757000000054,
                    "velocity": 0.33070866141732286,
                    "duration": 0.09009863333332646
                },
                {
                    "name": "G#2",
                    "midi": 44,
                    "time": 194.9924106666672,
                    "velocity": 0.33070866141732286,
                    "duration": 0.09009863333332646
                },
                {
                    "name": "G#2",
                    "midi": 44,
                    "time": 195.08725133333388,
                    "velocity": 0.33070866141732286,
                    "duration": 0.09009863333332646
                },
                {
                    "name": "G#2",
                    "midi": 44,
                    "time": 195.18209200000055,
                    "velocity": 0.33070866141732286,
                    "duration": 0.09009863333332646
                },
                {
                    "name": "G#2",
                    "midi": 44,
                    "time": 195.27693266666722,
                    "velocity": 0.33070866141732286,
                    "duration": 0.09009863333332646
                },
                {
                    "name": "G#2",
                    "midi": 44,
                    "time": 195.3717733333339,
                    "velocity": 0.33070866141732286,
                    "duration": 0.09009863333332646
                },
                {
                    "name": "G#2",
                    "midi": 44,
                    "time": 195.46661400000056,
                    "velocity": 0.33070866141732286,
                    "duration": 0.09009863333332646
                },
                {
                    "name": "G#2",
                    "midi": 44,
                    "time": 195.56145466666723,
                    "velocity": 0.33070866141732286,
                    "duration": 0.09009863333332646
                },
                {
                    "name": "G#2",
                    "midi": 44,
                    "time": 195.6562953333339,
                    "velocity": 0.33070866141732286,
                    "duration": 0.09009863333332646
                },
                {
                    "name": "G#2",
                    "midi": 44,
                    "time": 195.75113600000057,
                    "velocity": 0.36220472440944884,
                    "duration": 0.0948406666666699
                },
                {
                    "name": "C#2",
                    "midi": 37,
                    "time": 195.84597666666724,
                    "velocity": 0.36220472440944884,
                    "duration": 0.09009863333332646
                },
                {
                    "name": "C#2",
                    "midi": 37,
                    "time": 195.9408173333339,
                    "velocity": 0.36220472440944884,
                    "duration": 0.09009863333332646
                },
                {
                    "name": "C#2",
                    "midi": 37,
                    "time": 196.03565800000058,
                    "velocity": 0.41732283464566927,
                    "duration": 0.09009863333332646
                },
                {
                    "name": "C#2",
                    "midi": 37,
                    "time": 196.13049866666725,
                    "velocity": 0.41732283464566927,
                    "duration": 0.09009863333332646
                },
                {
                    "name": "C#2",
                    "midi": 37,
                    "time": 196.22533933333392,
                    "velocity": 0.41732283464566927,
                    "duration": 0.09009863333332646
                },
                {
                    "name": "C#2",
                    "midi": 37,
                    "time": 196.3201800000006,
                    "velocity": 0.41732283464566927,
                    "duration": 0.09009863333332646
                },
                {
                    "name": "C#2",
                    "midi": 37,
                    "time": 196.41502066666726,
                    "velocity": 0.4094488188976378,
                    "duration": 0.09009863333332646
                },
                {
                    "name": "C#2",
                    "midi": 37,
                    "time": 196.50986133333393,
                    "velocity": 0.4094488188976378,
                    "duration": 0.09009863333332646
                },
                {
                    "name": "C#2",
                    "midi": 37,
                    "time": 196.6047020000006,
                    "velocity": 0.5118110236220472,
                    "duration": 0.07113050000000953
                },
                {
                    "name": "B1",
                    "midi": 35,
                    "time": 196.6758325000006,
                    "velocity": 0.4645669291338583,
                    "duration": 0.07113050000000953
                },
                {
                    "name": "A1",
                    "midi": 33,
                    "time": 196.74696300000062,
                    "velocity": 0.48031496062992124,
                    "duration": 0.07113050000000953
                },
                {
                    "name": "G#1",
                    "midi": 32,
                    "time": 196.81809350000063,
                    "velocity": 0.4645669291338583,
                    "duration": 0.07113050000000953
                },
                {
                    "name": "F#1",
                    "midi": 30,
                    "time": 196.88922400000064,
                    "velocity": 0.5118110236220472,
                    "duration": 0.07113050000000953
                },
                {
                    "name": "F#3",
                    "midi": 54,
                    "time": 197.74279000000064,
                    "velocity": 0.33070866141732286,
                    "duration": 0.2845220000000097
                },
                {
                    "name": "C#4",
                    "midi": 61,
                    "time": 197.74279000000064,
                    "velocity": 0.33070866141732286,
                    "duration": 0.2845220000000097
                },
                {
                    "name": "F#3",
                    "midi": 54,
                    "time": 198.02731200000065,
                    "velocity": 0.33070866141732286,
                    "duration": 0.7113049999999816
                },
                {
                    "name": "C#4",
                    "midi": 61,
                    "time": 198.02731200000065,
                    "velocity": 0.33070866141732286,
                    "duration": 0.42678300000000036
                },
                {
                    "name": "B3",
                    "midi": 59,
                    "time": 198.45409500000065,
                    "velocity": 0.2992125984251969,
                    "duration": 0.14226099999999064
                },
                {
                    "name": "A3",
                    "midi": 57,
                    "time": 198.59635600000064,
                    "velocity": 0.3228346456692913,
                    "duration": 0.14226099999999064
                },
                {
                    "name": "F#3",
                    "midi": 54,
                    "time": 198.88087800000062,
                    "velocity": 0.2992125984251969,
                    "duration": 0.2845220000000097
                },
                {
                    "name": "A3",
                    "midi": 57,
                    "time": 198.88087800000062,
                    "velocity": 0.2992125984251969,
                    "duration": 0.2845220000000097
                },
                {
                    "name": "F#3",
                    "midi": 54,
                    "time": 199.16540000000063,
                    "velocity": 0.3228346456692913,
                    "duration": 0.569043999999991
                },
                {
                    "name": "A3",
                    "midi": 57,
                    "time": 199.16540000000063,
                    "velocity": 0.3228346456692913,
                    "duration": 0.42678300000000036
                },
                {
                    "name": "G#3",
                    "midi": 56,
                    "time": 199.59218300000063,
                    "velocity": 0.3228346456692913,
                    "duration": 0.14226099999999064
                },
                {
                    "name": "F#3",
                    "midi": 54,
                    "time": 199.73444400000062,
                    "velocity": 0.3464566929133858,
                    "duration": 0.14226099999999064
                },
                {
                    "name": "F#3",
                    "midi": 54,
                    "time": 200.0189660000006,
                    "velocity": 0.2677165354330709,
                    "duration": 0.2845220000000097
                },
                {
                    "name": "F#3",
                    "midi": 54,
                    "time": 200.3034880000006,
                    "velocity": 0.3228346456692913,
                    "duration": 0.2845220000000097
                },
                {
                    "name": "G#3",
                    "midi": 56,
                    "time": 200.58801000000062,
                    "velocity": 0.33070866141732286,
                    "duration": 0.2845220000000097
                },
                {
                    "name": "A3",
                    "midi": 57,
                    "time": 200.87253200000063,
                    "velocity": 0.3700787401574803,
                    "duration": 0.2845220000000097
                },
                {
                    "name": "E3",
                    "midi": 52,
                    "time": 201.15705400000064,
                    "velocity": 0.2440944881889764,
                    "duration": 0.2845220000000097
                },
                {
                    "name": "B3",
                    "midi": 59,
                    "time": 201.15705400000064,
                    "velocity": 0.29133858267716534,
                    "duration": 0.2845220000000097
                },
                {
                    "name": "A3",
                    "midi": 57,
                    "time": 201.44157600000065,
                    "velocity": 0.30708661417322836,
                    "duration": 0.2845220000000097
                },
                {
                    "name": "C#4",
                    "midi": 61,
                    "time": 201.44157600000065,
                    "velocity": 0.3700787401574803,
                    "duration": 0.2845220000000097
                },
                {
                    "name": "G#3",
                    "midi": 56,
                    "time": 201.72609800000066,
                    "velocity": 0.2992125984251969,
                    "duration": 0.2845220000000097
                },
                {
                    "name": "C#4",
                    "midi": 61,
                    "time": 201.72609800000066,
                    "velocity": 0.3543307086614173,
                    "duration": 0.2845220000000097
                },
                {
                    "name": "F#3",
                    "midi": 54,
                    "time": 202.01062000000067,
                    "velocity": 0.2992125984251969,
                    "duration": 0.2845220000000097
                },
                {
                    "name": "C#4",
                    "midi": 61,
                    "time": 202.01062000000067,
                    "velocity": 0.36220472440944884,
                    "duration": 0.2845220000000097
                },
                {
                    "name": "E3",
                    "midi": 52,
                    "time": 202.29514200000068,
                    "velocity": 0.25984251968503935,
                    "duration": 0.2845220000000097
                },
                {
                    "name": "D4",
                    "midi": 62,
                    "time": 202.29514200000068,
                    "velocity": 0.30708661417322836,
                    "duration": 0.2845220000000097
                },
                {
                    "name": "E3",
                    "midi": 52,
                    "time": 202.5796640000007,
                    "velocity": 0.25984251968503935,
                    "duration": 0.569043999999991
                },
                {
                    "name": "D4",
                    "midi": 62,
                    "time": 202.5796640000007,
                    "velocity": 0.30708661417322836,
                    "duration": 0.569043999999991
                },
                {
                    "name": "F3",
                    "midi": 53,
                    "time": 203.14870800000068,
                    "velocity": 0.23622047244094488,
                    "duration": 0.2845220000000097
                },
                {
                    "name": "C#4",
                    "midi": 61,
                    "time": 203.14870800000068,
                    "velocity": 0.29133858267716534,
                    "duration": 0.2845220000000097
                },
                {
                    "name": "F#3",
                    "midi": 54,
                    "time": 203.4332300000007,
                    "velocity": 0.23622047244094488,
                    "duration": 0.2845220000000097
                },
                {
                    "name": "C#4",
                    "midi": 61,
                    "time": 203.4332300000007,
                    "velocity": 0.28346456692913385,
                    "duration": 0.2845220000000097
                },
                {
                    "name": "F#3",
                    "midi": 54,
                    "time": 203.7177520000007,
                    "velocity": 0.25196850393700787,
                    "duration": 0.7113049999999816
                },
                {
                    "name": "C#4",
                    "midi": 61,
                    "time": 203.7177520000007,
                    "velocity": 0.33070866141732286,
                    "duration": 0.42678300000000036
                },
                {
                    "name": "B3",
                    "midi": 59,
                    "time": 204.1445350000007,
                    "velocity": 0.2992125984251969,
                    "duration": 0.14226099999999064
                },
                {
                    "name": "A3",
                    "midi": 57,
                    "time": 204.2867960000007,
                    "velocity": 0.3228346456692913,
                    "duration": 0.14226099999999064
                },
                {
                    "name": "F#3",
                    "midi": 54,
                    "time": 204.57131800000067,
                    "velocity": 0.25196850393700787,
                    "duration": 0.2845220000000097
                },
                {
                    "name": "A3",
                    "midi": 57,
                    "time": 204.57131800000067,
                    "velocity": 0.2992125984251969,
                    "duration": 0.2845220000000097
                },
                {
                    "name": "F#3",
                    "midi": 54,
                    "time": 204.85584000000068,
                    "velocity": 0.2677165354330709,
                    "duration": 0.569043999999991
                },
                {
                    "name": "A3",
                    "midi": 57,
                    "time": 204.85584000000068,
                    "velocity": 0.3228346456692913,
                    "duration": 0.42678300000000036
                },
                {
                    "name": "G#3",
                    "midi": 56,
                    "time": 205.28262300000068,
                    "velocity": 0.3228346456692913,
                    "duration": 0.14226099999999064
                },
                {
                    "name": "F#3",
                    "midi": 54,
                    "time": 205.42488400000067,
                    "velocity": 0.3464566929133858,
                    "duration": 0.14226099999999064
                },
                {
                    "name": "F#3",
                    "midi": 54,
                    "time": 205.70940600000066,
                    "velocity": 0.2677165354330709,
                    "duration": 0.2845220000000097
                },
                {
                    "name": "F#3",
                    "midi": 54,
                    "time": 205.99392800000066,
                    "velocity": 0.3228346456692913,
                    "duration": 0.2845220000000097
                },
                {
                    "name": "G#3",
                    "midi": 56,
                    "time": 206.27845000000067,
                    "velocity": 0.33070866141732286,
                    "duration": 0.2845220000000097
                },
                {
                    "name": "A3",
                    "midi": 57,
                    "time": 206.56297200000068,
                    "velocity": 0.3700787401574803,
                    "duration": 0.2845220000000097
                },
                {
                    "name": "E3",
                    "midi": 52,
                    "time": 206.8474940000007,
                    "velocity": 0.2440944881889764,
                    "duration": 0.2845220000000097
                },
                {
                    "name": "B3",
                    "midi": 59,
                    "time": 206.8474940000007,
                    "velocity": 0.29133858267716534,
                    "duration": 0.2845220000000097
                },
                {
                    "name": "A3",
                    "midi": 57,
                    "time": 207.1320160000007,
                    "velocity": 0.30708661417322836,
                    "duration": 0.2845220000000097
                },
                {
                    "name": "C#4",
                    "midi": 61,
                    "time": 207.1320160000007,
                    "velocity": 0.3700787401574803,
                    "duration": 0.2845220000000097
                },
                {
                    "name": "G#3",
                    "midi": 56,
                    "time": 207.4165380000007,
                    "velocity": 0.2992125984251969,
                    "duration": 0.2845220000000097
                },
                {
                    "name": "C#4",
                    "midi": 61,
                    "time": 207.4165380000007,
                    "velocity": 0.3543307086614173,
                    "duration": 0.2845220000000097
                },
                {
                    "name": "F#3",
                    "midi": 54,
                    "time": 207.70106000000072,
                    "velocity": 0.2992125984251969,
                    "duration": 0.2845220000000097
                },
                {
                    "name": "C#4",
                    "midi": 61,
                    "time": 207.70106000000072,
                    "velocity": 0.36220472440944884,
                    "duration": 0.2845220000000097
                },
                {
                    "name": "E3",
                    "midi": 52,
                    "time": 207.98558200000073,
                    "velocity": 0.25984251968503935,
                    "duration": 0.2845220000000097
                },
                {
                    "name": "D4",
                    "midi": 62,
                    "time": 207.98558200000073,
                    "velocity": 0.30708661417322836,
                    "duration": 0.2845220000000097
                },
                {
                    "name": "E3",
                    "midi": 52,
                    "time": 208.27010400000074,
                    "velocity": 0.25984251968503935,
                    "duration": 0.569043999999991
                },
                {
                    "name": "D4",
                    "midi": 62,
                    "time": 208.27010400000074,
                    "velocity": 0.30708661417322836,
                    "duration": 0.569043999999991
                },
                {
                    "name": "A3",
                    "midi": 57,
                    "time": 208.83914800000073,
                    "velocity": 0.29133858267716534,
                    "duration": 0.0948406666666699
                },
                {
                    "name": "C#4",
                    "midi": 61,
                    "time": 208.83914800000073,
                    "velocity": 0.29133858267716534,
                    "duration": 0.0948406666666699
                },
                {
                    "name": "E4",
                    "midi": 64,
                    "time": 208.9339886666674,
                    "velocity": 0.2283464566929134,
                    "duration": 0.09009863333332646
                },
                {
                    "name": "E4",
                    "midi": 64,
                    "time": 209.02882933333407,
                    "velocity": 0.2283464566929134,
                    "duration": 0.09009863333332646
                },
                {
                    "name": "E4",
                    "midi": 64,
                    "time": 209.12367000000074,
                    "velocity": 0.25984251968503935,
                    "duration": 0.09009863333332646
                },
                {
                    "name": "E4",
                    "midi": 64,
                    "time": 209.2185106666674,
                    "velocity": 0.2283464566929134,
                    "duration": 0.09009863333332646
                },
                {
                    "name": "E4",
                    "midi": 64,
                    "time": 209.31335133333408,
                    "velocity": 0.2283464566929134,
                    "duration": 0.09009863333332646
                },
                {
                    "name": "A#3",
                    "midi": 58,
                    "time": 209.40819200000075,
                    "velocity": 0.25984251968503935,
                    "duration": 0.07113050000000953
                },
                {
                    "name": "E4",
                    "midi": 64,
                    "time": 209.47932250000076,
                    "velocity": 0.2125984251968504,
                    "duration": 0.07113050000000953
                },
                {
                    "name": "C#4",
                    "midi": 61,
                    "time": 209.55045300000077,
                    "velocity": 0.2125984251968504,
                    "duration": 0.07113050000000953
                },
                {
                    "name": "E4",
                    "midi": 64,
                    "time": 209.62158350000078,
                    "velocity": 0.2125984251968504,
                    "duration": 0.07113050000000953
                },
                {
                    "name": "A#3",
                    "midi": 58,
                    "time": 209.6927140000008,
                    "velocity": 0.25984251968503935,
                    "duration": 0.07113050000000953
                },
                {
                    "name": "E4",
                    "midi": 64,
                    "time": 209.7638445000008,
                    "velocity": 0.2204724409448819,
                    "duration": 0.07113050000000953
                },
                {
                    "name": "C#4",
                    "midi": 61,
                    "time": 209.8349750000008,
                    "velocity": 0.2204724409448819,
                    "duration": 0.07113050000000953
                },
                {
                    "name": "E4",
                    "midi": 64,
                    "time": 209.90610550000082,
                    "velocity": 0.2283464566929134,
                    "duration": 0.07113050000000953
                },
                {
                    "name": "A#3",
                    "midi": 58,
                    "time": 209.97723600000083,
                    "velocity": 0.25984251968503935,
                    "duration": 0.07113050000000953
                },
                {
                    "name": "E4",
                    "midi": 64,
                    "time": 210.04836650000084,
                    "velocity": 0.2283464566929134,
                    "duration": 0.07113050000000953
                },
                {
                    "name": "C#4",
                    "midi": 61,
                    "time": 210.11949700000085,
                    "velocity": 0.2283464566929134,
                    "duration": 0.07113050000000953
                },
                {
                    "name": "E4",
                    "midi": 64,
                    "time": 210.19062750000086,
                    "velocity": 0.2283464566929134,
                    "duration": 0.07113050000000953
                },
                {
                    "name": "A3",
                    "midi": 57,
                    "time": 210.26175800000087,
                    "velocity": 0.25984251968503935,
                    "duration": 0.07113050000000953
                },
                {
                    "name": "E4",
                    "midi": 64,
                    "time": 210.33288850000088,
                    "velocity": 0.2283464566929134,
                    "duration": 0.07113050000000953
                },
                {
                    "name": "C#4",
                    "midi": 61,
                    "time": 210.4040190000009,
                    "velocity": 0.2283464566929134,
                    "duration": 0.07113050000000953
                },
                {
                    "name": "E4",
                    "midi": 64,
                    "time": 210.4751495000009,
                    "velocity": 0.2283464566929134,
                    "duration": 0.07113050000000953
                },
                {
                    "name": "G3",
                    "midi": 55,
                    "time": 210.5462800000009,
                    "velocity": 0.25984251968503935,
                    "duration": 0.07113050000000953
                },
                {
                    "name": "E4",
                    "midi": 64,
                    "time": 210.61741050000091,
                    "velocity": 0.2125984251968504,
                    "duration": 0.07113050000000953
                },
                {
                    "name": "C#4",
                    "midi": 61,
                    "time": 210.68854100000092,
                    "velocity": 0.2125984251968504,
                    "duration": 0.07113050000000953
                },
                {
                    "name": "E4",
                    "midi": 64,
                    "time": 210.75967150000093,
                    "velocity": 0.2125984251968504,
                    "duration": 0.07113050000000953
                },
                {
                    "name": "G3",
                    "midi": 55,
                    "time": 210.83080200000094,
                    "velocity": 0.25984251968503935,
                    "duration": 0.07113050000000953
                },
                {
                    "name": "E4",
                    "midi": 64,
                    "time": 210.90193250000095,
                    "velocity": 0.2204724409448819,
                    "duration": 0.07113050000000953
                },
                {
                    "name": "C#4",
                    "midi": 61,
                    "time": 210.97306300000096,
                    "velocity": 0.2204724409448819,
                    "duration": 0.07113050000000953
                },
                {
                    "name": "E4",
                    "midi": 64,
                    "time": 211.04419350000097,
                    "velocity": 0.2283464566929134,
                    "duration": 0.07113050000000953
                },
                {
                    "name": "G3",
                    "midi": 55,
                    "time": 211.11532400000098,
                    "velocity": 0.25984251968503935,
                    "duration": 0.07113050000000953
                },
                {
                    "name": "E4",
                    "midi": 64,
                    "time": 211.186454500001,
                    "velocity": 0.2283464566929134,
                    "duration": 0.07113050000000953
                },
                {
                    "name": "C#4",
                    "midi": 61,
                    "time": 211.257585000001,
                    "velocity": 0.2283464566929134,
                    "duration": 0.07113050000000953
                },
                {
                    "name": "E4",
                    "midi": 64,
                    "time": 211.328715500001,
                    "velocity": 0.2283464566929134,
                    "duration": 0.07113050000000953
                },
                {
                    "name": "F#3",
                    "midi": 54,
                    "time": 211.39984600000102,
                    "velocity": 0.25984251968503935,
                    "duration": 0.07113050000000953
                },
                {
                    "name": "E4",
                    "midi": 64,
                    "time": 211.47097650000103,
                    "velocity": 0.2283464566929134,
                    "duration": 0.07113050000000953
                },
                {
                    "name": "C#4",
                    "midi": 61,
                    "time": 211.54210700000104,
                    "velocity": 0.2283464566929134,
                    "duration": 0.07113050000000953
                },
                {
                    "name": "E4",
                    "midi": 64,
                    "time": 211.61323750000105,
                    "velocity": 0.2283464566929134,
                    "duration": 0.07113050000000953
                },
                {
                    "name": "F#3",
                    "midi": 54,
                    "time": 211.68436800000106,
                    "velocity": 0.25984251968503935,
                    "duration": 0.07113050000000953
                },
                {
                    "name": "E4",
                    "midi": 64,
                    "time": 211.75549850000107,
                    "velocity": 0.2204724409448819,
                    "duration": 0.07113050000000953
                },
                {
                    "name": "C#4",
                    "midi": 61,
                    "time": 211.82662900000108,
                    "velocity": 0.2204724409448819,
                    "duration": 0.07113050000000953
                },
                {
                    "name": "E4",
                    "midi": 64,
                    "time": 211.8977595000011,
                    "velocity": 0.2204724409448819,
                    "duration": 0.07113050000000953
                },
                {
                    "name": "F#3",
                    "midi": 54,
                    "time": 211.9688900000011,
                    "velocity": 0.2677165354330709,
                    "duration": 0.07113050000000953
                },
                {
                    "name": "D4",
                    "midi": 62,
                    "time": 212.0400205000011,
                    "velocity": 0.2204724409448819,
                    "duration": 0.07113050000000953
                },
                {
                    "name": "B3",
                    "midi": 59,
                    "time": 212.11115100000112,
                    "velocity": 0.2204724409448819,
                    "duration": 0.07113050000000953
                },
                {
                    "name": "D4",
                    "midi": 62,
                    "time": 212.18228150000112,
                    "velocity": 0.2283464566929134,
                    "duration": 0.07113050000000953
                },
                {
                    "name": "F#3",
                    "midi": 54,
                    "time": 212.25341200000113,
                    "velocity": 0.2755905511811024,
                    "duration": 0.07113050000000953
                },
                {
                    "name": "C#4",
                    "midi": 61,
                    "time": 212.32454250000114,
                    "velocity": 0.2283464566929134,
                    "duration": 0.07113050000000953
                },
                {
                    "name": "A#3",
                    "midi": 58,
                    "time": 212.39567300000115,
                    "velocity": 0.2283464566929134,
                    "duration": 0.07113050000000953
                },
                {
                    "name": "C#4",
                    "midi": 61,
                    "time": 212.46680350000116,
                    "velocity": 0.2283464566929134,
                    "duration": 0.07113050000000953
                },
                {
                    "name": "F#3",
                    "midi": 54,
                    "time": 212.53793400000117,
                    "velocity": 0.28346456692913385,
                    "duration": 0.07113050000000953
                },
                {
                    "name": "D4",
                    "midi": 62,
                    "time": 212.60906450000118,
                    "velocity": 0.2440944881889764,
                    "duration": 0.07113050000000953
                },
                {
                    "name": "B3",
                    "midi": 59,
                    "time": 212.6801950000012,
                    "velocity": 0.2440944881889764,
                    "duration": 0.07113050000000953
                },
                {
                    "name": "D4",
                    "midi": 62,
                    "time": 212.7513255000012,
                    "velocity": 0.2440944881889764,
                    "duration": 0.07113050000000953
                },
                {
                    "name": "F#3",
                    "midi": 54,
                    "time": 212.8224560000012,
                    "velocity": 0.29133858267716534,
                    "duration": 0.07113050000000953
                },
                {
                    "name": "E4",
                    "midi": 64,
                    "time": 212.89358650000122,
                    "velocity": 0.2440944881889764,
                    "duration": 0.07113050000000953
                },
                {
                    "name": "C#4",
                    "midi": 61,
                    "time": 212.96471700000123,
                    "velocity": 0.25196850393700787,
                    "duration": 0.07113050000000953
                },
                {
                    "name": "E4",
                    "midi": 64,
                    "time": 213.03584750000124,
                    "velocity": 0.25196850393700787,
                    "duration": 0.07113050000000953
                },
                {
                    "name": "G3",
                    "midi": 55,
                    "time": 213.10697800000125,
                    "velocity": 0.29133858267716534,
                    "duration": 0.07113050000000953
                },
                {
                    "name": "E4",
                    "midi": 64,
                    "time": 213.17810850000126,
                    "velocity": 0.2440944881889764,
                    "duration": 0.07113050000000953
                },
                {
                    "name": "C#4",
                    "midi": 61,
                    "time": 213.24923900000127,
                    "velocity": 0.2440944881889764,
                    "duration": 0.07113050000000953
                },
                {
                    "name": "E4",
                    "midi": 64,
                    "time": 213.32036950000128,
                    "velocity": 0.2440944881889764,
                    "duration": 0.07113050000000953
                },
                {
                    "name": "G#3",
                    "midi": 56,
                    "time": 213.3915000000013,
                    "velocity": 0.2992125984251969,
                    "duration": 0.07113050000000953
                },
                {
                    "name": "E4",
                    "midi": 64,
                    "time": 213.4626305000013,
                    "velocity": 0.25196850393700787,
                    "duration": 0.07113050000000953
                },
                {
                    "name": "C#4",
                    "midi": 61,
                    "time": 213.5337610000013,
                    "velocity": 0.25196850393700787,
                    "duration": 0.07113050000000953
                },
                {
                    "name": "E4",
                    "midi": 64,
                    "time": 213.60489150000132,
                    "velocity": 0.25984251968503935,
                    "duration": 0.07113050000000953
                },
                {
                    "name": "A3",
                    "midi": 57,
                    "time": 213.67602200000132,
                    "velocity": 0.30708661417322836,
                    "duration": 0.07113050000000953
                },
                {
                    "name": "E4",
                    "midi": 64,
                    "time": 213.74715250000133,
                    "velocity": 0.25196850393700787,
                    "duration": 0.07113050000000953
                },
                {
                    "name": "C#4",
                    "midi": 61,
                    "time": 213.81828300000134,
                    "velocity": 0.2677165354330709,
                    "duration": 0.07113050000000953
                },
                {
                    "name": "E4",
                    "midi": 64,
                    "time": 213.88941350000135,
                    "velocity": 0.2677165354330709,
                    "duration": 0.07113050000000953
                },
                {
                    "name": "A3",
                    "midi": 57,
                    "time": 213.96054400000136,
                    "velocity": 0.25984251968503935,
                    "duration": 0.07113050000000953
                },
                {
                    "name": "E4",
                    "midi": 64,
                    "time": 214.03167450000137,
                    "velocity": 0.2125984251968504,
                    "duration": 0.07113050000000953
                },
                {
                    "name": "C#4",
                    "midi": 61,
                    "time": 214.10280500000138,
                    "velocity": 0.2125984251968504,
                    "duration": 0.07113050000000953
                },
                {
                    "name": "E4",
                    "midi": 64,
                    "time": 214.1739355000014,
                    "velocity": 0.2125984251968504,
                    "duration": 0.07113050000000953
                },
                {
                    "name": "A#3",
                    "midi": 58,
                    "time": 214.2450660000014,
                    "velocity": 0.25984251968503935,
                    "duration": 0.07113050000000953
                },
                {
                    "name": "E4",
                    "midi": 64,
                    "time": 214.3161965000014,
                    "velocity": 0.2204724409448819,
                    "duration": 0.07113050000000953
                },
                {
                    "name": "C#4",
                    "midi": 61,
                    "time": 214.38732700000142,
                    "velocity": 0.2204724409448819,
                    "duration": 0.07113050000000953
                },
                {
                    "name": "E4",
                    "midi": 64,
                    "time": 214.45845750000143,
                    "velocity": 0.2283464566929134,
                    "duration": 0.07113050000000953
                },
                {
                    "name": "A#3",
                    "midi": 58,
                    "time": 214.52958800000144,
                    "velocity": 0.25984251968503935,
                    "duration": 0.07113050000000953
                },
                {
                    "name": "E4",
                    "midi": 64,
                    "time": 214.60071850000145,
                    "velocity": 0.2283464566929134,
                    "duration": 0.07113050000000953
                },
                {
                    "name": "C#4",
                    "midi": 61,
                    "time": 214.67184900000146,
                    "velocity": 0.2283464566929134,
                    "duration": 0.07113050000000953
                },
                {
                    "name": "E4",
                    "midi": 64,
                    "time": 214.74297950000147,
                    "velocity": 0.2283464566929134,
                    "duration": 0.07113050000000953
                },
                {
                    "name": "A3",
                    "midi": 57,
                    "time": 214.81411000000148,
                    "velocity": 0.25984251968503935,
                    "duration": 0.07113050000000953
                },
                {
                    "name": "E4",
                    "midi": 64,
                    "time": 214.8852405000015,
                    "velocity": 0.2283464566929134,
                    "duration": 0.07113050000000953
                },
                {
                    "name": "C#4",
                    "midi": 61,
                    "time": 214.9563710000015,
                    "velocity": 0.2283464566929134,
                    "duration": 0.07113050000000953
                },
                {
                    "name": "E4",
                    "midi": 64,
                    "time": 215.0275015000015,
                    "velocity": 0.2283464566929134,
                    "duration": 0.07113050000000953
                },
                {
                    "name": "G3",
                    "midi": 55,
                    "time": 215.09863200000152,
                    "velocity": 0.25984251968503935,
                    "duration": 0.07113050000000953
                },
                {
                    "name": "E4",
                    "midi": 64,
                    "time": 215.16976250000153,
                    "velocity": 0.2125984251968504,
                    "duration": 0.07113050000000953
                },
                {
                    "name": "C#4",
                    "midi": 61,
                    "time": 215.24089300000153,
                    "velocity": 0.2125984251968504,
                    "duration": 0.07113050000000953
                },
                {
                    "name": "E4",
                    "midi": 64,
                    "time": 215.31202350000154,
                    "velocity": 0.2125984251968504,
                    "duration": 0.07113050000000953
                },
                {
                    "name": "G3",
                    "midi": 55,
                    "time": 215.38315400000155,
                    "velocity": 0.25984251968503935,
                    "duration": 0.07113050000000953
                },
                {
                    "name": "E4",
                    "midi": 64,
                    "time": 215.45428450000156,
                    "velocity": 0.2204724409448819,
                    "duration": 0.07113050000000953
                },
                {
                    "name": "C#4",
                    "midi": 61,
                    "time": 215.52541500000157,
                    "velocity": 0.2204724409448819,
                    "duration": 0.07113050000000953
                },
                {
                    "name": "E4",
                    "midi": 64,
                    "time": 215.59654550000158,
                    "velocity": 0.2283464566929134,
                    "duration": 0.07113050000000953
                },
                {
                    "name": "G3",
                    "midi": 55,
                    "time": 215.6676760000016,
                    "velocity": 0.25984251968503935,
                    "duration": 0.07113050000000953
                },
                {
                    "name": "E4",
                    "midi": 64,
                    "time": 215.7388065000016,
                    "velocity": 0.2283464566929134,
                    "duration": 0.07113050000000953
                },
                {
                    "name": "C#4",
                    "midi": 61,
                    "time": 215.8099370000016,
                    "velocity": 0.2283464566929134,
                    "duration": 0.07113050000000953
                },
                {
                    "name": "E4",
                    "midi": 64,
                    "time": 215.88106750000162,
                    "velocity": 0.2440944881889764,
                    "duration": 0.07113050000000953
                },
                {
                    "name": "F#3",
                    "midi": 54,
                    "time": 215.95219800000163,
                    "velocity": 0.28346456692913385,
                    "duration": 0.07113050000000953
                },
                {
                    "name": "E4",
                    "midi": 64,
                    "time": 216.02332850000164,
                    "velocity": 0.2440944881889764,
                    "duration": 0.07113050000000953
                },
                {
                    "name": "C#4",
                    "midi": 61,
                    "time": 216.09445900000165,
                    "velocity": 0.2440944881889764,
                    "duration": 0.07113050000000953
                },
                {
                    "name": "E4",
                    "midi": 64,
                    "time": 216.16558950000166,
                    "velocity": 0.2440944881889764,
                    "duration": 0.07113050000000953
                },
                {
                    "name": "F#3",
                    "midi": 54,
                    "time": 216.23672000000167,
                    "velocity": 0.28346456692913385,
                    "duration": 0.07113050000000953
                },
                {
                    "name": "E4",
                    "midi": 64,
                    "time": 216.30785050000168,
                    "velocity": 0.23622047244094488,
                    "duration": 0.07113050000000953
                },
                {
                    "name": "C#4",
                    "midi": 61,
                    "time": 216.3789810000017,
                    "velocity": 0.23622047244094488,
                    "duration": 0.07113050000000953
                },
                {
                    "name": "E4",
                    "midi": 64,
                    "time": 216.4501115000017,
                    "velocity": 0.23622047244094488,
                    "duration": 0.07113050000000953
                },
                {
                    "name": "F#3",
                    "midi": 54,
                    "time": 216.5212420000017,
                    "velocity": 0.29133858267716534,
                    "duration": 0.07113050000000953
                },
                {
                    "name": "D4",
                    "midi": 62,
                    "time": 216.59237250000172,
                    "velocity": 0.23622047244094488,
                    "duration": 0.07113050000000953
                },
                {
                    "name": "B3",
                    "midi": 59,
                    "time": 216.66350300000173,
                    "velocity": 0.23622047244094488,
                    "duration": 0.07113050000000953
                },
                {
                    "name": "D4",
                    "midi": 62,
                    "time": 216.73463350000173,
                    "velocity": 0.2440944881889764,
                    "duration": 0.07113050000000953
                },
                {
                    "name": "F#3",
                    "midi": 54,
                    "time": 216.80576400000174,
                    "velocity": 0.2992125984251969,
                    "duration": 0.07113050000000953
                },
                {
                    "name": "C#4",
                    "midi": 61,
                    "time": 216.87689450000175,
                    "velocity": 0.2440944881889764,
                    "duration": 0.07113050000000953
                },
                {
                    "name": "A#3",
                    "midi": 58,
                    "time": 216.94802500000176,
                    "velocity": 0.2440944881889764,
                    "duration": 0.07113050000000953
                },
                {
                    "name": "C#4",
                    "midi": 61,
                    "time": 217.01915550000177,
                    "velocity": 0.2440944881889764,
                    "duration": 0.07113050000000953
                },
                {
                    "name": "F#3",
                    "midi": 54,
                    "time": 217.09028600000178,
                    "velocity": 0.30708661417322836,
                    "duration": 0.07113050000000953
                },
                {
                    "name": "D4",
                    "midi": 62,
                    "time": 217.1614165000018,
                    "velocity": 0.2677165354330709,
                    "duration": 0.07113050000000953
                },
                {
                    "name": "B3",
                    "midi": 59,
                    "time": 217.2325470000018,
                    "velocity": 0.2677165354330709,
                    "duration": 0.07113050000000953
                },
                {
                    "name": "D4",
                    "midi": 62,
                    "time": 217.3036775000018,
                    "velocity": 0.2677165354330709,
                    "duration": 0.07113050000000953
                },
                {
                    "name": "F#3",
                    "midi": 54,
                    "time": 217.37480800000182,
                    "velocity": 0.31496062992125984,
                    "duration": 0.07113050000000953
                },
                {
                    "name": "E4",
                    "midi": 64,
                    "time": 217.44593850000183,
                    "velocity": 0.2677165354330709,
                    "duration": 0.07113050000000953
                },
                {
                    "name": "C#4",
                    "midi": 61,
                    "time": 217.51706900000184,
                    "velocity": 0.2755905511811024,
                    "duration": 0.07113050000000953
                },
                {
                    "name": "E4",
                    "midi": 64,
                    "time": 217.58819950000185,
                    "velocity": 0.2755905511811024,
                    "duration": 0.07113050000000953
                },
                {
                    "name": "G3",
                    "midi": 55,
                    "time": 217.65933000000186,
                    "velocity": 0.31496062992125984,
                    "duration": 0.07113050000000953
                },
                {
                    "name": "E4",
                    "midi": 64,
                    "time": 217.73046050000187,
                    "velocity": 0.2677165354330709,
                    "duration": 0.07113050000000953
                },
                {
                    "name": "C#4",
                    "midi": 61,
                    "time": 217.80159100000188,
                    "velocity": 0.2677165354330709,
                    "duration": 0.07113050000000953
                },
                {
                    "name": "E4",
                    "midi": 64,
                    "time": 217.8727215000019,
                    "velocity": 0.2677165354330709,
                    "duration": 0.07113050000000953
                },
                {
                    "name": "G#3",
                    "midi": 56,
                    "time": 217.9438520000019,
                    "velocity": 0.3228346456692913,
                    "duration": 0.07113050000000953
                },
                {
                    "name": "E4",
                    "midi": 64,
                    "time": 218.0149825000019,
                    "velocity": 0.2755905511811024,
                    "duration": 0.07113050000000953
                },
                {
                    "name": "C#4",
                    "midi": 61,
                    "time": 218.08611300000192,
                    "velocity": 0.2755905511811024,
                    "duration": 0.07113050000000953
                },
                {
                    "name": "E4",
                    "midi": 64,
                    "time": 218.15724350000193,
                    "velocity": 0.28346456692913385,
                    "duration": 0.07113050000000953
                },
                {
                    "name": "A3",
                    "midi": 57,
                    "time": 218.22837400000193,
                    "velocity": 0.33070866141732286,
                    "duration": 0.07113050000000953
                },
                {
                    "name": "E4",
                    "midi": 64,
                    "time": 218.29950450000194,
                    "velocity": 0.2755905511811024,
                    "duration": 0.07113050000000953
                },
                {
                    "name": "C#4",
                    "midi": 61,
                    "time": 218.37063500000195,
                    "velocity": 0.29133858267716534,
                    "duration": 0.07113050000000953
                },
                {
                    "name": "E4",
                    "midi": 64,
                    "time": 218.44176550000196,
                    "velocity": 0.29133858267716534,
                    "duration": 0.07113050000000953
                },
                {
                    "name": "A3",
                    "midi": 57,
                    "time": 218.51289600000197,
                    "velocity": 0.28346456692913385,
                    "duration": 0.07113050000000953
                },
                {
                    "name": "E4",
                    "midi": 64,
                    "time": 218.58402650000198,
                    "velocity": 0.2283464566929134,
                    "duration": 0.07113050000000953
                },
                {
                    "name": "C#4",
                    "midi": 61,
                    "time": 218.655157000002,
                    "velocity": 0.2283464566929134,
                    "duration": 0.07113050000000953
                },
                {
                    "name": "E4",
                    "midi": 64,
                    "time": 218.726287500002,
                    "velocity": 0.2283464566929134,
                    "duration": 0.07113050000000953
                },
                {
                    "name": "A#3",
                    "midi": 58,
                    "time": 218.797418000002,
                    "velocity": 0.28346456692913385,
                    "duration": 0.07113050000000953
                },
                {
                    "name": "E4",
                    "midi": 64,
                    "time": 218.86854850000202,
                    "velocity": 0.23622047244094488,
                    "duration": 0.07113050000000953
                },
                {
                    "name": "C#4",
                    "midi": 61,
                    "time": 218.93967900000203,
                    "velocity": 0.23622047244094488,
                    "duration": 0.07113050000000953
                },
                {
                    "name": "E4",
                    "midi": 64,
                    "time": 219.01080950000204,
                    "velocity": 0.2440944881889764,
                    "duration": 0.07113050000000953
                },
                {
                    "name": "A3",
                    "midi": 57,
                    "time": 219.08194000000205,
                    "velocity": 0.28346456692913385,
                    "duration": 0.07113050000000953
                },
                {
                    "name": "E4",
                    "midi": 64,
                    "time": 219.15307050000206,
                    "velocity": 0.2440944881889764,
                    "duration": 0.07113050000000953
                },
                {
                    "name": "C#4",
                    "midi": 61,
                    "time": 219.22420100000207,
                    "velocity": 0.2440944881889764,
                    "duration": 0.07113050000000953
                },
                {
                    "name": "E4",
                    "midi": 64,
                    "time": 219.29533150000208,
                    "velocity": 0.2440944881889764,
                    "duration": 0.07113050000000953
                },
                {
                    "name": "G3",
                    "midi": 55,
                    "time": 219.3664620000021,
                    "velocity": 0.28346456692913385,
                    "duration": 0.07113050000000953
                },
                {
                    "name": "E4",
                    "midi": 64,
                    "time": 219.4375925000021,
                    "velocity": 0.2440944881889764,
                    "duration": 0.07113050000000953
                },
                {
                    "name": "C#4",
                    "midi": 61,
                    "time": 219.5087230000021,
                    "velocity": 0.2440944881889764,
                    "duration": 0.07113050000000953
                },
                {
                    "name": "E4",
                    "midi": 64,
                    "time": 219.57985350000212,
                    "velocity": 0.2440944881889764,
                    "duration": 0.07113050000000953
                },
                {
                    "name": "F3",
                    "midi": 53,
                    "time": 219.65098400000213,
                    "velocity": 0.28346456692913385,
                    "duration": 0.07113050000000953
                },
                {
                    "name": "D4",
                    "midi": 62,
                    "time": 219.72211450000214,
                    "velocity": 0.2283464566929134,
                    "duration": 0.07113050000000953
                },
                {
                    "name": "A3",
                    "midi": 57,
                    "time": 219.79324500000214,
                    "velocity": 0.2283464566929134,
                    "duration": 0.07113050000000953
                },
                {
                    "name": "D4",
                    "midi": 62,
                    "time": 219.86437550000215,
                    "velocity": 0.2283464566929134,
                    "duration": 0.07113050000000953
                },
                {
                    "name": "E3",
                    "midi": 52,
                    "time": 219.93550600000216,
                    "velocity": 0.28346456692913385,
                    "duration": 0.07113050000000953
                },
                {
                    "name": "D4",
                    "midi": 62,
                    "time": 220.00663650000217,
                    "velocity": 0.23622047244094488,
                    "duration": 0.07113050000000953
                },
                {
                    "name": "G3",
                    "midi": 55,
                    "time": 220.07776700000218,
                    "velocity": 0.23622047244094488,
                    "duration": 0.07113050000000953
                },
                {
                    "name": "D4",
                    "midi": 62,
                    "time": 220.1488975000022,
                    "velocity": 0.2440944881889764,
                    "duration": 0.07113050000000953
                },
                {
                    "name": "D3",
                    "midi": 50,
                    "time": 220.2200280000022,
                    "velocity": 0.28346456692913385,
                    "duration": 0.07113050000000953
                },
                {
                    "name": "D4",
                    "midi": 62,
                    "time": 220.2911585000022,
                    "velocity": 0.2440944881889764,
                    "duration": 0.07113050000000953
                },
                {
                    "name": "F3",
                    "midi": 53,
                    "time": 220.36228900000222,
                    "velocity": 0.2440944881889764,
                    "duration": 0.07113050000000953
                },
                {
                    "name": "D4",
                    "midi": 62,
                    "time": 220.43341950000223,
                    "velocity": 0.2440944881889764,
                    "duration": 0.07113050000000953
                },
                {
                    "name": "F3",
                    "midi": 53,
                    "time": 220.50455000000224,
                    "velocity": 0.28346456692913385,
                    "duration": 0.07113050000000953
                },
                {
                    "name": "D4",
                    "midi": 62,
                    "time": 220.57568050000225,
                    "velocity": 0.2440944881889764,
                    "duration": 0.07113050000000953
                },
                {
                    "name": "A3",
                    "midi": 57,
                    "time": 220.64681100000226,
                    "velocity": 0.2440944881889764,
                    "duration": 0.07113050000000953
                },
                {
                    "name": "D4",
                    "midi": 62,
                    "time": 220.71794150000227,
                    "velocity": 0.2440944881889764,
                    "duration": 0.07113050000000953
                },
                {
                    "name": "A3",
                    "midi": 57,
                    "time": 220.78907200000228,
                    "velocity": 0.28346456692913385,
                    "duration": 0.07113050000000953
                },
                {
                    "name": "E4",
                    "midi": 64,
                    "time": 220.8602025000023,
                    "velocity": 0.2283464566929134,
                    "duration": 0.07113050000000953
                },
                {
                    "name": "C#4",
                    "midi": 61,
                    "time": 220.9313330000023,
                    "velocity": 0.2283464566929134,
                    "duration": 0.07113050000000953
                },
                {
                    "name": "E4",
                    "midi": 64,
                    "time": 221.0024635000023,
                    "velocity": 0.2283464566929134,
                    "duration": 0.07113050000000953
                },
                {
                    "name": "A#3",
                    "midi": 58,
                    "time": 221.07359400000232,
                    "velocity": 0.28346456692913385,
                    "duration": 0.07113050000000953
                },
                {
                    "name": "E4",
                    "midi": 64,
                    "time": 221.14472450000233,
                    "velocity": 0.23622047244094488,
                    "duration": 0.07113050000000953
                },
                {
                    "name": "C#4",
                    "midi": 61,
                    "time": 221.21585500000234,
                    "velocity": 0.23622047244094488,
                    "duration": 0.07113050000000953
                },
                {
                    "name": "E4",
                    "midi": 64,
                    "time": 221.28698550000234,
                    "velocity": 0.2440944881889764,
                    "duration": 0.07113050000000953
                },
                {
                    "name": "A3",
                    "midi": 57,
                    "time": 221.35811600000235,
                    "velocity": 0.28346456692913385,
                    "duration": 0.07113050000000953
                },
                {
                    "name": "E4",
                    "midi": 64,
                    "time": 221.42924650000236,
                    "velocity": 0.2440944881889764,
                    "duration": 0.07113050000000953
                },
                {
                    "name": "C#4",
                    "midi": 61,
                    "time": 221.50037700000237,
                    "velocity": 0.2440944881889764,
                    "duration": 0.07113050000000953
                },
                {
                    "name": "E4",
                    "midi": 64,
                    "time": 221.57150750000238,
                    "velocity": 0.2440944881889764,
                    "duration": 0.07113050000000953
                },
                {
                    "name": "G3",
                    "midi": 55,
                    "time": 221.6426380000024,
                    "velocity": 0.29133858267716534,
                    "duration": 0.07113050000000953
                },
                {
                    "name": "E4",
                    "midi": 64,
                    "time": 221.7137685000024,
                    "velocity": 0.25196850393700787,
                    "duration": 0.07113050000000953
                },
                {
                    "name": "C#4",
                    "midi": 61,
                    "time": 221.7848990000024,
                    "velocity": 0.25196850393700787,
                    "duration": 0.07113050000000953
                },
                {
                    "name": "E4",
                    "midi": 64,
                    "time": 221.85602950000242,
                    "velocity": 0.25196850393700787,
                    "duration": 0.07113050000000953
                },
                {
                    "name": "F3",
                    "midi": 53,
                    "time": 221.92716000000243,
                    "velocity": 0.29133858267716534,
                    "duration": 0.07113050000000953
                },
                {
                    "name": "F4",
                    "midi": 65,
                    "time": 221.99829050000244,
                    "velocity": 0.2440944881889764,
                    "duration": 0.07113050000000953
                },
                {
                    "name": "D4",
                    "midi": 62,
                    "time": 222.06942100000245,
                    "velocity": 0.25196850393700787,
                    "duration": 0.07113050000000953
                },
                {
                    "name": "F4",
                    "midi": 65,
                    "time": 222.14055150000246,
                    "velocity": 0.25196850393700787,
                    "duration": 0.07113050000000953
                },
                {
                    "name": "F3",
                    "midi": 53,
                    "time": 222.21168200000247,
                    "velocity": 0.30708661417322836,
                    "duration": 0.07113050000000953
                },
                {
                    "name": "F4",
                    "midi": 65,
                    "time": 222.28281250000248,
                    "velocity": 0.2677165354330709,
                    "duration": 0.07113050000000953
                },
                {
                    "name": "D4",
                    "midi": 62,
                    "time": 222.3539430000025,
                    "velocity": 0.2677165354330709,
                    "duration": 0.07113050000000953
                },
                {
                    "name": "F4",
                    "midi": 65,
                    "time": 222.4250735000025,
                    "velocity": 0.2755905511811024,
                    "duration": 0.07113050000000953
                },
                {
                    "name": "F3",
                    "midi": 53,
                    "time": 222.4962040000025,
                    "velocity": 0.33070866141732286,
                    "duration": 0.07113050000000953
                },
                {
                    "name": "F4",
                    "midi": 65,
                    "time": 222.56733450000252,
                    "velocity": 0.29133858267716534,
                    "duration": 0.07113050000000953
                },
                {
                    "name": "D4",
                    "midi": 62,
                    "time": 222.63846500000253,
                    "velocity": 0.29133858267716534,
                    "duration": 0.07113050000000953
                },
                {
                    "name": "F4",
                    "midi": 65,
                    "time": 222.70959550000254,
                    "velocity": 0.29133858267716534,
                    "duration": 0.07113050000000953
                },
                {
                    "name": "F3",
                    "midi": 53,
                    "time": 222.78072600000255,
                    "velocity": 0.3464566929133858,
                    "duration": 0.07113050000000953
                },
                {
                    "name": "G4",
                    "midi": 67,
                    "time": 222.85185650000255,
                    "velocity": 0.30708661417322836,
                    "duration": 0.07113050000000953
                },
                {
                    "name": "D#4",
                    "midi": 63,
                    "time": 222.92298700000256,
                    "velocity": 0.31496062992125984,
                    "duration": 0.07113050000000953
                },
                {
                    "name": "G4",
                    "midi": 67,
                    "time": 222.99411750000257,
                    "velocity": 0.31496062992125984,
                    "duration": 0.07113050000000953
                },
                {
                    "name": "F3",
                    "midi": 53,
                    "time": 223.06524800000258,
                    "velocity": 0.3779527559055118,
                    "duration": 0.07113050000000953
                },
                {
                    "name": "F4",
                    "midi": 65,
                    "time": 223.1363785000026,
                    "velocity": 0.2992125984251969,
                    "duration": 0.07113050000000953
                },
                {
                    "name": "D4",
                    "midi": 62,
                    "time": 223.2075090000026,
                    "velocity": 0.2992125984251969,
                    "duration": 0.07113050000000953
                },
                {
                    "name": "F4",
                    "midi": 65,
                    "time": 223.2786395000026,
                    "velocity": 0.2992125984251969,
                    "duration": 0.07113050000000953
                },
                {
                    "name": "F3",
                    "midi": 53,
                    "time": 223.34977000000262,
                    "velocity": 0.3700787401574803,
                    "duration": 0.07113050000000953
                },
                {
                    "name": "D#4",
                    "midi": 63,
                    "time": 223.42090050000263,
                    "velocity": 0.30708661417322836,
                    "duration": 0.07113050000000953
                },
                {
                    "name": "C4",
                    "midi": 60,
                    "time": 223.49203100000264,
                    "velocity": 0.30708661417322836,
                    "duration": 0.07113050000000953
                },
                {
                    "name": "D#4",
                    "midi": 63,
                    "time": 223.56316150000265,
                    "velocity": 0.30708661417322836,
                    "duration": 0.07113050000000953
                },
                {
                    "name": "F3",
                    "midi": 53,
                    "time": 223.63429200000266,
                    "velocity": 0.33070866141732286,
                    "duration": 0.07113050000000953
                },
                {
                    "name": "D4",
                    "midi": 62,
                    "time": 223.70542250000267,
                    "velocity": 0.28346456692913385,
                    "duration": 0.07113050000000953
                },
                {
                    "name": "A#3",
                    "midi": 58,
                    "time": 223.77655300000268,
                    "velocity": 0.28346456692913385,
                    "duration": 0.07113050000000953
                },
                {
                    "name": "D4",
                    "midi": 62,
                    "time": 223.8476835000027,
                    "velocity": 0.29133858267716534,
                    "duration": 0.07113050000000953
                },
                {
                    "name": "F3",
                    "midi": 53,
                    "time": 223.9188140000027,
                    "velocity": 0.33070866141732286,
                    "duration": 0.07113050000000953
                },
                {
                    "name": "C4",
                    "midi": 60,
                    "time": 223.9899445000027,
                    "velocity": 0.2755905511811024,
                    "duration": 0.07113050000000953
                },
                {
                    "name": "G#3",
                    "midi": 56,
                    "time": 224.06107500000272,
                    "velocity": 0.2755905511811024,
                    "duration": 0.07113050000000953
                },
                {
                    "name": "C4",
                    "midi": 60,
                    "time": 224.13220550000273,
                    "velocity": 0.2755905511811024,
                    "duration": 0.07113050000000953
                },
                {
                    "name": "F3",
                    "midi": 53,
                    "time": 224.20333600000274,
                    "velocity": 0.2755905511811024,
                    "duration": 0.07113050000000953
                },
                {
                    "name": "B3",
                    "midi": 59,
                    "time": 224.27446650000275,
                    "velocity": 0.2283464566929134,
                    "duration": 0.07113050000000953
                },
                {
                    "name": "G#3",
                    "midi": 56,
                    "time": 224.34559700000275,
                    "velocity": 0.2283464566929134,
                    "duration": 0.07113050000000953
                },
                {
                    "name": "B3",
                    "midi": 59,
                    "time": 224.41672750000276,
                    "velocity": 0.2283464566929134,
                    "duration": 0.07113050000000953
                },
                {
                    "name": "F3",
                    "midi": 53,
                    "time": 224.48785800000277,
                    "velocity": 0.2677165354330709,
                    "duration": 0.07113050000000953
                },
                {
                    "name": "B3",
                    "midi": 59,
                    "time": 224.55898850000278,
                    "velocity": 0.2283464566929134,
                    "duration": 0.07113050000000953
                },
                {
                    "name": "G#3",
                    "midi": 56,
                    "time": 224.6301190000028,
                    "velocity": 0.2283464566929134,
                    "duration": 0.07113050000000953
                },
                {
                    "name": "B3",
                    "midi": 59,
                    "time": 224.7012495000028,
                    "velocity": 0.2283464566929134,
                    "duration": 0.07113050000000953
                },
                {
                    "name": "F3",
                    "midi": 53,
                    "time": 224.7723800000028,
                    "velocity": 0.25984251968503935,
                    "duration": 0.07113050000000953
                },
                {
                    "name": "B3",
                    "midi": 59,
                    "time": 224.84351050000282,
                    "velocity": 0.2283464566929134,
                    "duration": 0.07113050000000953
                },
                {
                    "name": "G#3",
                    "midi": 56,
                    "time": 224.91464100000283,
                    "velocity": 0.2283464566929134,
                    "duration": 0.07113050000000953
                },
                {
                    "name": "B3",
                    "midi": 59,
                    "time": 224.98577150000284,
                    "velocity": 0.2283464566929134,
                    "duration": 0.07113050000000953
                },
                {
                    "name": "F3",
                    "midi": 53,
                    "time": 225.05690200000285,
                    "velocity": 0.25984251968503935,
                    "duration": 0.07113050000000953
                },
                {
                    "name": "B3",
                    "midi": 59,
                    "time": 225.12803250000286,
                    "velocity": 0.2283464566929134,
                    "duration": 0.07113050000000953
                },
                {
                    "name": "G#3",
                    "midi": 56,
                    "time": 225.19916300000287,
                    "velocity": 0.2283464566929134,
                    "duration": 0.07113050000000953
                },
                {
                    "name": "B3",
                    "midi": 59,
                    "time": 225.27029350000288,
                    "velocity": 0.2283464566929134,
                    "duration": 0.07113050000000953
                },
                {
                    "name": "F3",
                    "midi": 53,
                    "time": 225.3414240000029,
                    "velocity": 0.2440944881889764,
                    "duration": 0.07113050000000953
                },
                {
                    "name": "B3",
                    "midi": 59,
                    "time": 225.4125545000029,
                    "velocity": 0.2125984251968504,
                    "duration": 0.07113050000000953
                },
                {
                    "name": "G#3",
                    "midi": 56,
                    "time": 225.4836850000029,
                    "velocity": 0.2125984251968504,
                    "duration": 0.07113050000000953
                },
                {
                    "name": "B3",
                    "midi": 59,
                    "time": 225.55481550000292,
                    "velocity": 0.2125984251968504,
                    "duration": 0.07113050000000953
                },
                {
                    "name": "F3",
                    "midi": 53,
                    "time": 225.62594600000293,
                    "velocity": 0.25196850393700787,
                    "duration": 0.07113050000000953
                },
                {
                    "name": "B3",
                    "midi": 59,
                    "time": 225.69707650000294,
                    "velocity": 0.2125984251968504,
                    "duration": 0.07113050000000953
                },
                {
                    "name": "G#3",
                    "midi": 56,
                    "time": 225.76820700000295,
                    "velocity": 0.2125984251968504,
                    "duration": 0.07113050000000953
                },
                {
                    "name": "B3",
                    "midi": 59,
                    "time": 225.83933750000296,
                    "velocity": 0.2125984251968504,
                    "duration": 0.07113050000000953
                },
                {
                    "name": "E3",
                    "midi": 52,
                    "time": 225.91046800000296,
                    "velocity": 0.25196850393700787,
                    "duration": 0.07113050000000953
                },
                {
                    "name": "B3",
                    "midi": 59,
                    "time": 225.98159850000297,
                    "velocity": 0.2047244094488189,
                    "duration": 0.07113050000000953
                },
                {
                    "name": "G#3",
                    "midi": 56,
                    "time": 226.05272900000298,
                    "velocity": 0.2047244094488189,
                    "duration": 0.07113050000000953
                },
                {
                    "name": "B3",
                    "midi": 59,
                    "time": 226.123859500003,
                    "velocity": 0.2047244094488189,
                    "duration": 0.07113050000000953
                },
                {
                    "name": "D3",
                    "midi": 50,
                    "time": 226.194990000003,
                    "velocity": 0.2440944881889764,
                    "duration": 0.07113050000000953
                },
                {
                    "name": "B3",
                    "midi": 59,
                    "time": 226.266120500003,
                    "velocity": 0.2047244094488189,
                    "duration": 0.07113050000000953
                },
                {
                    "name": "G#3",
                    "midi": 56,
                    "time": 226.33725100000302,
                    "velocity": 0.2047244094488189,
                    "duration": 0.07113050000000953
                },
                {
                    "name": "B3",
                    "midi": 59,
                    "time": 226.40838150000303,
                    "velocity": 0.2047244094488189,
                    "duration": 0.07113050000000953
                },
                {
                    "name": "C3",
                    "midi": 48,
                    "time": 226.47951200000304,
                    "velocity": 0.2440944881889764,
                    "duration": 0.07113050000000953
                },
                {
                    "name": "C4",
                    "midi": 60,
                    "time": 226.55064250000305,
                    "velocity": 0.1889763779527559,
                    "duration": 0.07113050000000953
                },
                {
                    "name": "A3",
                    "midi": 57,
                    "time": 226.62177300000306,
                    "velocity": 0.1889763779527559,
                    "duration": 0.07113050000000953
                },
                {
                    "name": "C4",
                    "midi": 60,
                    "time": 226.69290350000307,
                    "velocity": 0.1889763779527559,
                    "duration": 0.07113050000000953
                },
                {
                    "name": "C3",
                    "midi": 48,
                    "time": 226.76403400000308,
                    "velocity": 0.23622047244094488,
                    "duration": 0.07113050000000953
                },
                {
                    "name": "D4",
                    "midi": 62,
                    "time": 226.8351645000031,
                    "velocity": 0.1968503937007874,
                    "duration": 0.07113050000000953
                },
                {
                    "name": "A#3",
                    "midi": 58,
                    "time": 226.9062950000031,
                    "velocity": 0.1968503937007874,
                    "duration": 0.07113050000000953
                },
                {
                    "name": "D4",
                    "midi": 62,
                    "time": 226.9774255000031,
                    "velocity": 0.2047244094488189,
                    "duration": 0.07113050000000953
                },
                {
                    "name": "C3",
                    "midi": 48,
                    "time": 227.04855600000312,
                    "velocity": 0.2283464566929134,
                    "duration": 0.07113050000000953
                },
                {
                    "name": "C4",
                    "midi": 60,
                    "time": 227.11968650000313,
                    "velocity": 0.2047244094488189,
                    "duration": 0.07113050000000953
                },
                {
                    "name": "A3",
                    "midi": 57,
                    "time": 227.19081700000314,
                    "velocity": 0.2047244094488189,
                    "duration": 0.07113050000000953
                },
                {
                    "name": "C4",
                    "midi": 60,
                    "time": 227.26194750000315,
                    "velocity": 0.2047244094488189,
                    "duration": 0.07113050000000953
                },
                {
                    "name": "C3",
                    "midi": 48,
                    "time": 227.33307800000316,
                    "velocity": 0.23622047244094488,
                    "duration": 0.07113050000000953
                },
                {
                    "name": "D4",
                    "midi": 62,
                    "time": 227.40420850000316,
                    "velocity": 0.2047244094488189,
                    "duration": 0.07113050000000953
                },
                {
                    "name": "A#3",
                    "midi": 58,
                    "time": 227.47533900000317,
                    "velocity": 0.2047244094488189,
                    "duration": 0.07113050000000953
                },
                {
                    "name": "D4",
                    "midi": 62,
                    "time": 227.54646950000318,
                    "velocity": 0.2047244094488189,
                    "duration": 0.07113050000000953
                },
                {
                    "name": "C3",
                    "midi": 48,
                    "time": 227.6176000000032,
                    "velocity": 0.2440944881889764,
                    "duration": 0.07113050000000953
                },
                {
                    "name": "C4",
                    "midi": 60,
                    "time": 227.6887305000032,
                    "velocity": 0.1889763779527559,
                    "duration": 0.07113050000000953
                },
                {
                    "name": "A3",
                    "midi": 57,
                    "time": 227.7598610000032,
                    "velocity": 0.1889763779527559,
                    "duration": 0.07113050000000953
                },
                {
                    "name": "C4",
                    "midi": 60,
                    "time": 227.83099150000322,
                    "velocity": 0.1889763779527559,
                    "duration": 0.07113050000000953
                },
                {
                    "name": "C3",
                    "midi": 48,
                    "time": 227.90212200000323,
                    "velocity": 0.23622047244094488,
                    "duration": 0.07113050000000953
                },
                {
                    "name": "D4",
                    "midi": 62,
                    "time": 227.97325250000324,
                    "velocity": 0.1968503937007874,
                    "duration": 0.07113050000000953
                },
                {
                    "name": "A#3",
                    "midi": 58,
                    "time": 228.04438300000325,
                    "velocity": 0.1968503937007874,
                    "duration": 0.07113050000000953
                },
                {
                    "name": "D4",
                    "midi": 62,
                    "time": 228.11551350000326,
                    "velocity": 0.2047244094488189,
                    "duration": 0.07113050000000953
                },
                {
                    "name": "C3",
                    "midi": 48,
                    "time": 228.18664400000327,
                    "velocity": 0.2283464566929134,
                    "duration": 0.07113050000000953
                },
                {
                    "name": "C4",
                    "midi": 60,
                    "time": 228.25777450000328,
                    "velocity": 0.2047244094488189,
                    "duration": 0.07113050000000953
                },
                {
                    "name": "A3",
                    "midi": 57,
                    "time": 228.3289050000033,
                    "velocity": 0.2047244094488189,
                    "duration": 0.07113050000000953
                },
                {
                    "name": "C4",
                    "midi": 60,
                    "time": 228.4000355000033,
                    "velocity": 0.2047244094488189,
                    "duration": 0.07113050000000953
                },
                {
                    "name": "C3",
                    "midi": 48,
                    "time": 228.4711660000033,
                    "velocity": 0.23622047244094488,
                    "duration": 0.07113050000000953
                },
                {
                    "name": "D4",
                    "midi": 62,
                    "time": 228.54229650000332,
                    "velocity": 0.2047244094488189,
                    "duration": 0.07113050000000953
                },
                {
                    "name": "A#3",
                    "midi": 58,
                    "time": 228.61342700000333,
                    "velocity": 0.2047244094488189,
                    "duration": 0.07113050000000953
                },
                {
                    "name": "D4",
                    "midi": 62,
                    "time": 228.68455750000334,
                    "velocity": 0.2047244094488189,
                    "duration": 0.07113050000000953
                },
                {
                    "name": "C3",
                    "midi": 48,
                    "time": 228.75568800000335,
                    "velocity": 0.2440944881889764,
                    "duration": 0.07113050000000953
                },
                {
                    "name": "C4",
                    "midi": 60,
                    "time": 228.82681850000336,
                    "velocity": 0.1889763779527559,
                    "duration": 0.07113050000000953
                },
                {
                    "name": "A3",
                    "midi": 57,
                    "time": 228.89794900000336,
                    "velocity": 0.1889763779527559,
                    "duration": 0.07113050000000953
                },
                {
                    "name": "C4",
                    "midi": 60,
                    "time": 228.96907950000337,
                    "velocity": 0.1889763779527559,
                    "duration": 0.07113050000000953
                },
                {
                    "name": "C3",
                    "midi": 48,
                    "time": 229.04021000000338,
                    "velocity": 0.23622047244094488,
                    "duration": 0.07113050000000953
                },
                {
                    "name": "D4",
                    "midi": 62,
                    "time": 229.1113405000034,
                    "velocity": 0.2047244094488189,
                    "duration": 0.07113050000000953
                },
                {
                    "name": "A#3",
                    "midi": 58,
                    "time": 229.1824710000034,
                    "velocity": 0.2047244094488189,
                    "duration": 0.07113050000000953
                },
                {
                    "name": "D4",
                    "midi": 62,
                    "time": 229.2536015000034,
                    "velocity": 0.2125984251968504,
                    "duration": 0.07113050000000953
                },
                {
                    "name": "C3",
                    "midi": 48,
                    "time": 229.32473200000342,
                    "velocity": 0.23622047244094488,
                    "duration": 0.07113050000000953
                },
                {
                    "name": "C4",
                    "midi": 60,
                    "time": 229.39586250000343,
                    "velocity": 0.2125984251968504,
                    "duration": 0.07113050000000953
                },
                {
                    "name": "A3",
                    "midi": 57,
                    "time": 229.46699300000344,
                    "velocity": 0.2204724409448819,
                    "duration": 0.07113050000000953
                },
                {
                    "name": "C4",
                    "midi": 60,
                    "time": 229.53812350000345,
                    "velocity": 0.2204724409448819,
                    "duration": 0.07113050000000953
                },
                {
                    "name": "C3",
                    "midi": 48,
                    "time": 229.60925400000346,
                    "velocity": 0.25984251968503935,
                    "duration": 0.07113050000000953
                },
                {
                    "name": "D4",
                    "midi": 62,
                    "time": 229.68038450000347,
                    "velocity": 0.2204724409448819,
                    "duration": 0.07113050000000953
                },
                {
                    "name": "A#3",
                    "midi": 58,
                    "time": 229.75151500000348,
                    "velocity": 0.2204724409448819,
                    "duration": 0.07113050000000953
                },
                {
                    "name": "D4",
                    "midi": 62,
                    "time": 229.8226455000035,
                    "velocity": 0.2204724409448819,
                    "duration": 0.07113050000000953
                },
                {
                    "name": "C3",
                    "midi": 48,
                    "time": 229.8937760000035,
                    "velocity": 0.2677165354330709,
                    "duration": 0.07113050000000953
                },
                {
                    "name": "C4",
                    "midi": 60,
                    "time": 229.9649065000035,
                    "velocity": 0.2047244094488189,
                    "duration": 0.07113050000000953
                },
                {
                    "name": "A3",
                    "midi": 57,
                    "time": 230.03603700000352,
                    "velocity": 0.2047244094488189,
                    "duration": 0.07113050000000953
                },
                {
                    "name": "C4",
                    "midi": 60,
                    "time": 230.10716750000353,
                    "velocity": 0.2047244094488189,
                    "duration": 0.07113050000000953
                },
                {
                    "name": "C3",
                    "midi": 48,
                    "time": 230.17829800000354,
                    "velocity": 0.25984251968503935,
                    "duration": 0.07113050000000953
                },
                {
                    "name": "D4",
                    "midi": 62,
                    "time": 230.24942850000355,
                    "velocity": 0.2125984251968504,
                    "duration": 0.07113050000000953
                },
                {
                    "name": "A#3",
                    "midi": 58,
                    "time": 230.32055900000356,
                    "velocity": 0.2125984251968504,
                    "duration": 0.07113050000000953
                },
                {
                    "name": "D4",
                    "midi": 62,
                    "time": 230.39168950000357,
                    "velocity": 0.2204724409448819,
                    "duration": 0.07113050000000953
                },
                {
                    "name": "C3",
                    "midi": 48,
                    "time": 230.46282000000357,
                    "velocity": 0.2440944881889764,
                    "duration": 0.07113050000000953
                },
                {
                    "name": "C4",
                    "midi": 60,
                    "time": 230.53395050000358,
                    "velocity": 0.2204724409448819,
                    "duration": 0.07113050000000953
                },
                {
                    "name": "A3",
                    "midi": 57,
                    "time": 230.6050810000036,
                    "velocity": 0.2204724409448819,
                    "duration": 0.07113050000000953
                },
                {
                    "name": "C4",
                    "midi": 60,
                    "time": 230.6762115000036,
                    "velocity": 0.2204724409448819,
                    "duration": 0.07113050000000953
                },
                {
                    "name": "C3",
                    "midi": 48,
                    "time": 230.7473420000036,
                    "velocity": 0.28346456692913385,
                    "duration": 0.07113050000000953
                },
                {
                    "name": "D4",
                    "midi": 62,
                    "time": 230.81847250000362,
                    "velocity": 0.23622047244094488,
                    "duration": 0.07113050000000953
                },
                {
                    "name": "A#3",
                    "midi": 58,
                    "time": 230.88960300000363,
                    "velocity": 0.23622047244094488,
                    "duration": 0.07113050000000953
                },
                {
                    "name": "D4",
                    "midi": 62,
                    "time": 230.96073350000364,
                    "velocity": 0.23622047244094488,
                    "duration": 0.07113050000000953
                },
                {
                    "name": "C3",
                    "midi": 48,
                    "time": 231.03186400000365,
                    "velocity": 0.33070866141732286,
                    "duration": 0.07113050000000953
                },
                {
                    "name": "C4",
                    "midi": 60,
                    "time": 231.10299450000366,
                    "velocity": 0.2755905511811024,
                    "duration": 0.07113050000000953
                },
                {
                    "name": "A3",
                    "midi": 57,
                    "time": 231.17412500000367,
                    "velocity": 0.2755905511811024,
                    "duration": 0.07113050000000953
                },
                {
                    "name": "C4",
                    "midi": 60,
                    "time": 231.24525550000368,
                    "velocity": 0.2755905511811024,
                    "duration": 0.07113050000000953
                },
                {
                    "name": "C3",
                    "midi": 48,
                    "time": 231.3163860000037,
                    "velocity": 0.3464566929133858,
                    "duration": 0.07113050000000953
                },
                {
                    "name": "D4",
                    "midi": 62,
                    "time": 231.3875165000037,
                    "velocity": 0.29133858267716534,
                    "duration": 0.07113050000000953
                },
                {
                    "name": "A#3",
                    "midi": 58,
                    "time": 231.4586470000037,
                    "velocity": 0.2992125984251969,
                    "duration": 0.07113050000000953
                },
                {
                    "name": "D4",
                    "midi": 62,
                    "time": 231.52977750000372,
                    "velocity": 0.29133858267716534,
                    "duration": 0.07113050000000953
                },
                {
                    "name": "C3",
                    "midi": 48,
                    "time": 231.60090800000373,
                    "velocity": 0.3700787401574803,
                    "duration": 0.07113050000000953
                },
                {
                    "name": "C4",
                    "midi": 60,
                    "time": 231.67203850000374,
                    "velocity": 0.29133858267716534,
                    "duration": 0.07113050000000953
                },
                {
                    "name": "A3",
                    "midi": 57,
                    "time": 231.74316900000375,
                    "velocity": 0.2992125984251969,
                    "duration": 0.07113050000000953
                },
                {
                    "name": "C4",
                    "midi": 60,
                    "time": 231.81429950000376,
                    "velocity": 0.2992125984251969,
                    "duration": 0.07113050000000953
                },
                {
                    "name": "C3",
                    "midi": 48,
                    "time": 231.88543000000377,
                    "velocity": 0.3858267716535433,
                    "duration": 0.07113050000000953
                },
                {
                    "name": "C4",
                    "midi": 60,
                    "time": 231.95656050000377,
                    "velocity": 0.31496062992125984,
                    "duration": 0.07113050000000953
                },
                {
                    "name": "A#3",
                    "midi": 58,
                    "time": 232.02769100000378,
                    "velocity": 0.31496062992125984,
                    "duration": 0.07113050000000953
                },
                {
                    "name": "C4",
                    "midi": 60,
                    "time": 232.0988215000038,
                    "velocity": 0.31496062992125984,
                    "duration": 0.07113050000000953
                },
                {
                    "name": "C3",
                    "midi": 48,
                    "time": 232.1699520000038,
                    "velocity": 0.3228346456692913,
                    "duration": 1.1380880000000104
                },
                {
                    "name": "C4",
                    "midi": 60,
                    "time": 232.1699520000038,
                    "velocity": 0.3858267716535433,
                    "duration": 1.1380880000000104
                },
                {
                    "name": "A#3",
                    "midi": 58,
                    "time": 232.1699520000038,
                    "velocity": 0.3228346456692913,
                    "duration": 1.1380880000000104
                },
                {
                    "name": "F3",
                    "midi": 53,
                    "time": 233.3080400000038,
                    "velocity": 0.25196850393700787,
                    "duration": 0.2845220000000097
                },
                {
                    "name": "A3",
                    "midi": 57,
                    "time": 233.3080400000038,
                    "velocity": 0.25196850393700787,
                    "duration": 0.2845220000000097
                },
                {
                    "name": "C4",
                    "midi": 60,
                    "time": 233.3080400000038,
                    "velocity": 0.2992125984251969,
                    "duration": 0.2845220000000097
                },
                {
                    "name": "F3",
                    "midi": 53,
                    "time": 233.87708400000383,
                    "velocity": 0.2283464566929134,
                    "duration": 0.14226099999999064
                },
                {
                    "name": "A3",
                    "midi": 57,
                    "time": 233.87708400000383,
                    "velocity": 0.2283464566929134,
                    "duration": 0.14226099999999064
                },
                {
                    "name": "C4",
                    "midi": 60,
                    "time": 233.87708400000383,
                    "velocity": 0.2755905511811024,
                    "duration": 0.14226099999999064
                },
                {
                    "name": "F3",
                    "midi": 53,
                    "time": 234.16160600000381,
                    "velocity": 0.2283464566929134,
                    "duration": 0.14226099999999064
                },
                {
                    "name": "C4",
                    "midi": 60,
                    "time": 234.16160600000381,
                    "velocity": 0.2283464566929134,
                    "duration": 0.14226099999999064
                },
                {
                    "name": "D#4",
                    "midi": 63,
                    "time": 234.16160600000381,
                    "velocity": 0.2755905511811024,
                    "duration": 0.14226099999999064
                },
                {
                    "name": "F3",
                    "midi": 53,
                    "time": 234.4461280000038,
                    "velocity": 0.25196850393700787,
                    "duration": 0.2845220000000097
                },
                {
                    "name": "A#3",
                    "midi": 58,
                    "time": 234.4461280000038,
                    "velocity": 0.25196850393700787,
                    "duration": 0.2845220000000097
                },
                {
                    "name": "D4",
                    "midi": 62,
                    "time": 234.4461280000038,
                    "velocity": 0.2992125984251969,
                    "duration": 0.2845220000000097
                },
                {
                    "name": "F3",
                    "midi": 53,
                    "time": 235.01517200000382,
                    "velocity": 0.2283464566929134,
                    "duration": 0.14226099999999064
                },
                {
                    "name": "A#3",
                    "midi": 58,
                    "time": 235.01517200000382,
                    "velocity": 0.2283464566929134,
                    "duration": 0.14226099999999064
                },
                {
                    "name": "D4",
                    "midi": 62,
                    "time": 235.01517200000382,
                    "velocity": 0.2755905511811024,
                    "duration": 0.14226099999999064
                },
                {
                    "name": "F3",
                    "midi": 53,
                    "time": 235.2996940000038,
                    "velocity": 0.2283464566929134,
                    "duration": 0.14226099999999064
                },
                {
                    "name": "D4",
                    "midi": 62,
                    "time": 235.2996940000038,
                    "velocity": 0.2283464566929134,
                    "duration": 0.14226099999999064
                },
                {
                    "name": "F4",
                    "midi": 65,
                    "time": 235.2996940000038,
                    "velocity": 0.2755905511811024,
                    "duration": 0.14226099999999064
                },
                {
                    "name": "F3",
                    "midi": 53,
                    "time": 235.58421600000378,
                    "velocity": 0.25196850393700787,
                    "duration": 0.2845220000000097
                },
                {
                    "name": "A3",
                    "midi": 57,
                    "time": 235.58421600000378,
                    "velocity": 0.25196850393700787,
                    "duration": 0.2845220000000097
                },
                {
                    "name": "C4",
                    "midi": 60,
                    "time": 235.58421600000378,
                    "velocity": 0.2992125984251969,
                    "duration": 0.2845220000000097
                },
                {
                    "name": "F3",
                    "midi": 53,
                    "time": 236.1532600000038,
                    "velocity": 0.2283464566929134,
                    "duration": 0.14226099999999064
                },
                {
                    "name": "A3",
                    "midi": 57,
                    "time": 236.1532600000038,
                    "velocity": 0.2755905511811024,
                    "duration": 0.14226099999999064
                },
                {
                    "name": "A3",
                    "midi": 57,
                    "time": 236.43778200000378,
                    "velocity": 0.2283464566929134,
                    "duration": 0.14226099999999064
                },
                {
                    "name": "C4",
                    "midi": 60,
                    "time": 236.43778200000378,
                    "velocity": 0.2755905511811024,
                    "duration": 0.14226099999999064
                },
                {
                    "name": "C3",
                    "midi": 48,
                    "time": 236.72230400000376,
                    "velocity": 0.2283464566929134,
                    "duration": 0.14226099999999064
                },
                {
                    "name": "A3",
                    "midi": 57,
                    "time": 236.72230400000376,
                    "velocity": 0.2283464566929134,
                    "duration": 0.14226099999999064
                },
                {
                    "name": "C4",
                    "midi": 60,
                    "time": 236.72230400000376,
                    "velocity": 0.2755905511811024,
                    "duration": 0.14226099999999064
                },
                {
                    "name": "C3",
                    "midi": 48,
                    "time": 237.00682600000374,
                    "velocity": 0.2204724409448819,
                    "duration": 0.14226099999999064
                },
                {
                    "name": "D4",
                    "midi": 62,
                    "time": 237.00682600000374,
                    "velocity": 0.2677165354330709,
                    "duration": 0.14226099999999064
                },
                {
                    "name": "A#3",
                    "midi": 58,
                    "time": 237.00682600000374,
                    "velocity": 0.2204724409448819,
                    "duration": 0.14226099999999064
                },
                {
                    "name": "C3",
                    "midi": 48,
                    "time": 237.29134800000375,
                    "velocity": 0.2204724409448819,
                    "duration": 0.14226099999999064
                },
                {
                    "name": "A3",
                    "midi": 57,
                    "time": 237.29134800000375,
                    "velocity": 0.2204724409448819,
                    "duration": 0.14226099999999064
                },
                {
                    "name": "C4",
                    "midi": 60,
                    "time": 237.29134800000375,
                    "velocity": 0.25984251968503935,
                    "duration": 0.14226099999999064
                },
                {
                    "name": "C3",
                    "midi": 48,
                    "time": 237.57587000000373,
                    "velocity": 0.2204724409448819,
                    "duration": 0.14226099999999064
                },
                {
                    "name": "G3",
                    "midi": 55,
                    "time": 237.57587000000373,
                    "velocity": 0.2204724409448819,
                    "duration": 0.14226099999999064
                },
                {
                    "name": "A#3",
                    "midi": 58,
                    "time": 237.57587000000373,
                    "velocity": 0.2677165354330709,
                    "duration": 0.14226099999999064
                },
                {
                    "name": "C3",
                    "midi": 48,
                    "time": 237.8603920000037,
                    "velocity": 0.2283464566929134,
                    "duration": 0.14226099999999064
                },
                {
                    "name": "F#3",
                    "midi": 54,
                    "time": 237.8603920000037,
                    "velocity": 0.2283464566929134,
                    "duration": 0.14226099999999064
                },
                {
                    "name": "A3",
                    "midi": 57,
                    "time": 237.8603920000037,
                    "velocity": 0.2755905511811024,
                    "duration": 0.14226099999999064
                },
                {
                    "name": "C3",
                    "midi": 48,
                    "time": 238.1449140000037,
                    "velocity": 0.2204724409448819,
                    "duration": 0.14226099999999064
                },
                {
                    "name": "A3",
                    "midi": 57,
                    "time": 238.1449140000037,
                    "velocity": 0.2755905511811024,
                    "duration": 0.14226099999999064
                },
                {
                    "name": "F#3",
                    "midi": 54,
                    "time": 238.1449140000037,
                    "velocity": 0.2204724409448819,
                    "duration": 0.14226099999999064
                },
                {
                    "name": "C3",
                    "midi": 48,
                    "time": 238.42943600000368,
                    "velocity": 0.2283464566929134,
                    "duration": 0.14226099999999064
                },
                {
                    "name": "F#3",
                    "midi": 54,
                    "time": 238.42943600000368,
                    "velocity": 0.2283464566929134,
                    "duration": 0.14226099999999064
                },
                {
                    "name": "A3",
                    "midi": 57,
                    "time": 238.42943600000368,
                    "velocity": 0.2755905511811024,
                    "duration": 0.14226099999999064
                },
                {
                    "name": "C3",
                    "midi": 48,
                    "time": 238.71395800000366,
                    "velocity": 0.2440944881889764,
                    "duration": 0.14226099999999064
                },
                {
                    "name": "F#3",
                    "midi": 54,
                    "time": 238.71395800000366,
                    "velocity": 0.2440944881889764,
                    "duration": 0.14226099999999064
                },
                {
                    "name": "A3",
                    "midi": 57,
                    "time": 238.71395800000366,
                    "velocity": 0.29133858267716534,
                    "duration": 0.14226099999999064
                },
                {
                    "name": "A#2",
                    "midi": 46,
                    "time": 238.99848000000364,
                    "velocity": 0.25984251968503935,
                    "duration": 0.14226099999999064
                },
                {
                    "name": "F3",
                    "midi": 53,
                    "time": 238.99848000000364,
                    "velocity": 0.25984251968503935,
                    "duration": 0.14226099999999064
                },
                {
                    "name": "A#3",
                    "midi": 58,
                    "time": 238.99848000000364,
                    "velocity": 0.31496062992125984,
                    "duration": 0.14226099999999064
                },
                {
                    "name": "A#2",
                    "midi": 46,
                    "time": 239.28300200000362,
                    "velocity": 0.2440944881889764,
                    "duration": 0.14226099999999064
                },
                {
                    "name": "A#3",
                    "midi": 58,
                    "time": 239.28300200000362,
                    "velocity": 0.2992125984251969,
                    "duration": 0.14226099999999064
                },
                {
                    "name": "F3",
                    "midi": 53,
                    "time": 239.28300200000362,
                    "velocity": 0.2440944881889764,
                    "duration": 0.14226099999999064
                },
                {
                    "name": "C3",
                    "midi": 48,
                    "time": 239.5675240000036,
                    "velocity": 0.2440944881889764,
                    "duration": 0.14226099999999064
                },
                {
                    "name": "F3",
                    "midi": 53,
                    "time": 239.5675240000036,
                    "velocity": 0.2440944881889764,
                    "duration": 0.14226099999999064
                },
                {
                    "name": "A3",
                    "midi": 57,
                    "time": 239.5675240000036,
                    "velocity": 0.29133858267716534,
                    "duration": 0.14226099999999064
                },
                {
                    "name": "C3",
                    "midi": 48,
                    "time": 239.85204600000358,
                    "velocity": 0.2440944881889764,
                    "duration": 0.14226099999999064
                },
                {
                    "name": "G3",
                    "midi": 55,
                    "time": 239.85204600000358,
                    "velocity": 0.2440944881889764,
                    "duration": 0.14226099999999064
                },
                {
                    "name": "A#3",
                    "midi": 58,
                    "time": 239.85204600000358,
                    "velocity": 0.2992125984251969,
                    "duration": 0.14226099999999064
                },
                {
                    "name": "F3",
                    "midi": 53,
                    "time": 240.13656800000356,
                    "velocity": 0.3700787401574803,
                    "duration": 0.0948406666666699
                },
                {
                    "name": "C4",
                    "midi": 60,
                    "time": 240.23140866667023,
                    "velocity": 0.3464566929133858,
                    "duration": 0.0948406666666699
                },
                {
                    "name": "A3",
                    "midi": 57,
                    "time": 240.3262493333369,
                    "velocity": 0.3464566929133858,
                    "duration": 0.04742033333332074
                },
                {
                    "name": "F3",
                    "midi": 53,
                    "time": 240.42109000000355,
                    "velocity": 0.3700787401574803,
                    "duration": 0.04742033333332074
                },
                {
                    "name": "C3",
                    "midi": 48,
                    "time": 240.5159306666702,
                    "velocity": 0.33858267716535434,
                    "duration": 0.04742033333332074
                },
                {
                    "name": "A2",
                    "midi": 45,
                    "time": 240.61077133333683,
                    "velocity": 0.3228346456692913,
                    "duration": 0.04742033333332074
                },
                {
                    "name": "F2",
                    "midi": 41,
                    "time": 240.70561200000347,
                    "velocity": 0.3543307086614173,
                    "duration": 0.04742033333332074
                },
                {
                    "name": "A2",
                    "midi": 45,
                    "time": 240.8004526666701,
                    "velocity": 0.3228346456692913,
                    "duration": 0.04742033333332074
                },
                {
                    "name": "C3",
                    "midi": 48,
                    "time": 240.89529333333675,
                    "velocity": 0.3228346456692913,
                    "duration": 0.04742033333332074
                },
                {
                    "name": "A2",
                    "midi": 45,
                    "time": 240.9901340000034,
                    "velocity": 0.3700787401574803,
                    "duration": 0.04742033333332074
                },
                {
                    "name": "C3",
                    "midi": 48,
                    "time": 241.08497466667004,
                    "velocity": 0.3543307086614173,
                    "duration": 0.04742033333332074
                },
                {
                    "name": "F3",
                    "midi": 53,
                    "time": 241.17981533333668,
                    "velocity": 0.3543307086614173,
                    "duration": 0.04742033333332074
                },
                {
                    "name": "F3",
                    "midi": 53,
                    "time": 241.27465600000332,
                    "velocity": 0.3700787401574803,
                    "duration": 0.0948406666666699
                },
                {
                    "name": "D4",
                    "midi": 62,
                    "time": 241.36949666667,
                    "velocity": 0.3464566929133858,
                    "duration": 0.0948406666666699
                },
                {
                    "name": "A#3",
                    "midi": 58,
                    "time": 241.46433733333666,
                    "velocity": 0.3464566929133858,
                    "duration": 0.04742033333332074
                },
                {
                    "name": "F3",
                    "midi": 53,
                    "time": 241.5591780000033,
                    "velocity": 0.3700787401574803,
                    "duration": 0.04742033333332074
                },
                {
                    "name": "D3",
                    "midi": 50,
                    "time": 241.65401866666994,
                    "velocity": 0.33858267716535434,
                    "duration": 0.04742033333332074
                },
                {
                    "name": "A#2",
                    "midi": 46,
                    "time": 241.74885933333658,
                    "velocity": 0.3228346456692913,
                    "duration": 0.04742033333332074
                },
                {
                    "name": "F2",
                    "midi": 41,
                    "time": 241.84370000000322,
                    "velocity": 0.3543307086614173,
                    "duration": 0.04742033333332074
                },
                {
                    "name": "A#2",
                    "midi": 46,
                    "time": 241.93854066666987,
                    "velocity": 0.3228346456692913,
                    "duration": 0.04742033333332074
                },
                {
                    "name": "D3",
                    "midi": 50,
                    "time": 242.0333813333365,
                    "velocity": 0.3228346456692913,
                    "duration": 0.04742033333332074
                },
                {
                    "name": "A#2",
                    "midi": 46,
                    "time": 242.12822200000315,
                    "velocity": 0.3700787401574803,
                    "duration": 0.04742033333332074
                },
                {
                    "name": "D3",
                    "midi": 50,
                    "time": 242.2230626666698,
                    "velocity": 0.3543307086614173,
                    "duration": 0.04742033333332074
                },
                {
                    "name": "F3",
                    "midi": 53,
                    "time": 242.31790333333643,
                    "velocity": 0.3543307086614173,
                    "duration": 0.04742033333332074
                },
                {
                    "name": "F3",
                    "midi": 53,
                    "time": 242.41274400000307,
                    "velocity": 0.3700787401574803,
                    "duration": 0.0948406666666699
                },
                {
                    "name": "F4",
                    "midi": 65,
                    "time": 242.50758466666974,
                    "velocity": 0.3464566929133858,
                    "duration": 0.0948406666666699
                },
                {
                    "name": "C4",
                    "midi": 60,
                    "time": 242.6024253333364,
                    "velocity": 0.3464566929133858,
                    "duration": 0.04742033333332074
                },
                {
                    "name": "A3",
                    "midi": 57,
                    "time": 242.69726600000305,
                    "velocity": 0.3700787401574803,
                    "duration": 0.04742033333332074
                },
                {
                    "name": "F3",
                    "midi": 53,
                    "time": 242.7921066666697,
                    "velocity": 0.33858267716535434,
                    "duration": 0.04742033333332074
                },
                {
                    "name": "C3",
                    "midi": 48,
                    "time": 242.88694733333634,
                    "velocity": 0.3228346456692913,
                    "duration": 0.04742033333332074
                },
                {
                    "name": "A2",
                    "midi": 45,
                    "time": 242.98178800000298,
                    "velocity": 0.3543307086614173,
                    "duration": 0.04742033333332074
                },
                {
                    "name": "F2",
                    "midi": 41,
                    "time": 243.07662866666962,
                    "velocity": 0.3228346456692913,
                    "duration": 0.04742033333332074
                },
                {
                    "name": "C2",
                    "midi": 36,
                    "time": 243.17146933333626,
                    "velocity": 0.3228346456692913,
                    "duration": 0.04742033333332074
                },
                {
                    "name": "F2",
                    "midi": 41,
                    "time": 243.2663100000029,
                    "velocity": 0.3700787401574803,
                    "duration": 0.04742033333332074
                },
                {
                    "name": "A2",
                    "midi": 45,
                    "time": 243.36115066666954,
                    "velocity": 0.3543307086614173,
                    "duration": 0.04742033333332074
                },
                {
                    "name": "C3",
                    "midi": 48,
                    "time": 243.4559913333362,
                    "velocity": 0.3543307086614173,
                    "duration": 0.04742033333332074
                },
                {
                    "name": "C3",
                    "midi": 48,
                    "time": 243.55083200000283,
                    "velocity": 0.2283464566929134,
                    "duration": 0.14226099999999064
                },
                {
                    "name": "A3",
                    "midi": 57,
                    "time": 243.55083200000283,
                    "velocity": 0.2283464566929134,
                    "duration": 0.14226099999999064
                },
                {
                    "name": "C4",
                    "midi": 60,
                    "time": 243.55083200000283,
                    "velocity": 0.2755905511811024,
                    "duration": 0.14226099999999064
                },
                {
                    "name": "C4",
                    "midi": 60,
                    "time": 243.8353540000028,
                    "velocity": 0.2204724409448819,
                    "duration": 0.14226099999999064
                },
                {
                    "name": "D5",
                    "midi": 74,
                    "time": 243.8353540000028,
                    "velocity": 0.2677165354330709,
                    "duration": 0.14226099999999064
                },
                {
                    "name": "A#4",
                    "midi": 70,
                    "time": 243.8353540000028,
                    "velocity": 0.2204724409448819,
                    "duration": 0.14226099999999064
                },
                {
                    "name": "C4",
                    "midi": 60,
                    "time": 244.1198760000028,
                    "velocity": 0.2204724409448819,
                    "duration": 0.14226099999999064
                },
                {
                    "name": "A4",
                    "midi": 69,
                    "time": 244.1198760000028,
                    "velocity": 0.2204724409448819,
                    "duration": 0.14226099999999064
                },
                {
                    "name": "C5",
                    "midi": 72,
                    "time": 244.1198760000028,
                    "velocity": 0.25984251968503935,
                    "duration": 0.14226099999999064
                },
                {
                    "name": "C4",
                    "midi": 60,
                    "time": 244.40439800000277,
                    "velocity": 0.2204724409448819,
                    "duration": 0.14226099999999064
                },
                {
                    "name": "G4",
                    "midi": 67,
                    "time": 244.40439800000277,
                    "velocity": 0.2204724409448819,
                    "duration": 0.14226099999999064
                },
                {
                    "name": "A#4",
                    "midi": 70,
                    "time": 244.40439800000277,
                    "velocity": 0.2677165354330709,
                    "duration": 0.14226099999999064
                },
                {
                    "name": "C4",
                    "midi": 60,
                    "time": 244.68892000000275,
                    "velocity": 0.2283464566929134,
                    "duration": 0.14226099999999064
                },
                {
                    "name": "F#4",
                    "midi": 66,
                    "time": 244.68892000000275,
                    "velocity": 0.2283464566929134,
                    "duration": 0.14226099999999064
                },
                {
                    "name": "A4",
                    "midi": 69,
                    "time": 244.68892000000275,
                    "velocity": 0.2755905511811024,
                    "duration": 0.14226099999999064
                },
                {
                    "name": "C4",
                    "midi": 60,
                    "time": 244.97344200000273,
                    "velocity": 0.2204724409448819,
                    "duration": 0.14226099999999064
                },
                {
                    "name": "A4",
                    "midi": 69,
                    "time": 244.97344200000273,
                    "velocity": 0.2755905511811024,
                    "duration": 0.14226099999999064
                },
                {
                    "name": "F#4",
                    "midi": 66,
                    "time": 244.97344200000273,
                    "velocity": 0.2204724409448819,
                    "duration": 0.14226099999999064
                },
                {
                    "name": "C4",
                    "midi": 60,
                    "time": 245.25796400000272,
                    "velocity": 0.2283464566929134,
                    "duration": 0.14226099999999064
                },
                {
                    "name": "F#4",
                    "midi": 66,
                    "time": 245.25796400000272,
                    "velocity": 0.2283464566929134,
                    "duration": 0.14226099999999064
                },
                {
                    "name": "A4",
                    "midi": 69,
                    "time": 245.25796400000272,
                    "velocity": 0.2755905511811024,
                    "duration": 0.14226099999999064
                },
                {
                    "name": "C4",
                    "midi": 60,
                    "time": 245.5424860000027,
                    "velocity": 0.2440944881889764,
                    "duration": 0.14226099999999064
                },
                {
                    "name": "F#4",
                    "midi": 66,
                    "time": 245.5424860000027,
                    "velocity": 0.2440944881889764,
                    "duration": 0.14226099999999064
                },
                {
                    "name": "A4",
                    "midi": 69,
                    "time": 245.5424860000027,
                    "velocity": 0.29133858267716534,
                    "duration": 0.14226099999999064
                },
                {
                    "name": "A#3",
                    "midi": 58,
                    "time": 245.82700800000268,
                    "velocity": 0.25984251968503935,
                    "duration": 0.14226099999999064
                },
                {
                    "name": "F4",
                    "midi": 65,
                    "time": 245.82700800000268,
                    "velocity": 0.25984251968503935,
                    "duration": 0.14226099999999064
                },
                {
                    "name": "A#4",
                    "midi": 70,
                    "time": 245.82700800000268,
                    "velocity": 0.31496062992125984,
                    "duration": 0.14226099999999064
                },
                {
                    "name": "A#3",
                    "midi": 58,
                    "time": 246.11153000000266,
                    "velocity": 0.2440944881889764,
                    "duration": 0.14226099999999064
                },
                {
                    "name": "A#4",
                    "midi": 70,
                    "time": 246.11153000000266,
                    "velocity": 0.2992125984251969,
                    "duration": 0.14226099999999064
                },
                {
                    "name": "F4",
                    "midi": 65,
                    "time": 246.11153000000266,
                    "velocity": 0.2440944881889764,
                    "duration": 0.14226099999999064
                },
                {
                    "name": "C4",
                    "midi": 60,
                    "time": 246.39605200000264,
                    "velocity": 0.2440944881889764,
                    "duration": 0.14226099999999064
                },
                {
                    "name": "F4",
                    "midi": 65,
                    "time": 246.39605200000264,
                    "velocity": 0.2440944881889764,
                    "duration": 0.14226099999999064
                },
                {
                    "name": "A4",
                    "midi": 69,
                    "time": 246.39605200000264,
                    "velocity": 0.29133858267716534,
                    "duration": 0.14226099999999064
                },
                {
                    "name": "C4",
                    "midi": 60,
                    "time": 246.68057400000262,
                    "velocity": 0.2440944881889764,
                    "duration": 0.14226099999999064
                },
                {
                    "name": "G4",
                    "midi": 67,
                    "time": 246.68057400000262,
                    "velocity": 0.2440944881889764,
                    "duration": 0.14226099999999064
                },
                {
                    "name": "A#4",
                    "midi": 70,
                    "time": 246.68057400000262,
                    "velocity": 0.2992125984251969,
                    "duration": 0.14226099999999064
                },
                {
                    "name": "A#2",
                    "midi": 46,
                    "time": 246.9650960000026,
                    "velocity": 0.2047244094488189,
                    "duration": 0.14226099999999064
                },
                {
                    "name": "D#3",
                    "midi": 51,
                    "time": 246.9650960000026,
                    "velocity": 0.2047244094488189,
                    "duration": 0.14226099999999064
                },
                {
                    "name": "G3",
                    "midi": 55,
                    "time": 246.9650960000026,
                    "velocity": 0.2440944881889764,
                    "duration": 0.14226099999999064
                },
                {
                    "name": "A#2",
                    "midi": 46,
                    "time": 247.24961800000258,
                    "velocity": 0.1968503937007874,
                    "duration": 0.14226099999999064
                },
                {
                    "name": "G3",
                    "midi": 55,
                    "time": 247.24961800000258,
                    "velocity": 0.2440944881889764,
                    "duration": 0.14226099999999064
                },
                {
                    "name": "D#3",
                    "midi": 51,
                    "time": 247.24961800000258,
                    "velocity": 0.1968503937007874,
                    "duration": 0.14226099999999064
                },
                {
                    "name": "A#2",
                    "midi": 46,
                    "time": 247.53414000000257,
                    "velocity": 0.2047244094488189,
                    "duration": 0.14226099999999064
                },
                {
                    "name": "D#3",
                    "midi": 51,
                    "time": 247.53414000000257,
                    "velocity": 0.2047244094488189,
                    "duration": 0.14226099999999064
                },
                {
                    "name": "G3",
                    "midi": 55,
                    "time": 247.53414000000257,
                    "velocity": 0.2440944881889764,
                    "duration": 0.14226099999999064
                },
                {
                    "name": "A#2",
                    "midi": 46,
                    "time": 247.81866200000255,
                    "velocity": 0.2125984251968504,
                    "duration": 0.14226099999999064
                },
                {
                    "name": "D#3",
                    "midi": 51,
                    "time": 247.81866200000255,
                    "velocity": 0.2125984251968504,
                    "duration": 0.14226099999999064
                },
                {
                    "name": "G3",
                    "midi": 55,
                    "time": 247.81866200000255,
                    "velocity": 0.25984251968503935,
                    "duration": 0.14226099999999064
                },
                {
                    "name": "G#2",
                    "midi": 44,
                    "time": 248.10318400000253,
                    "velocity": 0.2283464566929134,
                    "duration": 0.14226099999999064
                },
                {
                    "name": "D#3",
                    "midi": 51,
                    "time": 248.10318400000253,
                    "velocity": 0.2283464566929134,
                    "duration": 0.14226099999999064
                },
                {
                    "name": "G#3",
                    "midi": 56,
                    "time": 248.10318400000253,
                    "velocity": 0.28346456692913385,
                    "duration": 0.14226099999999064
                },
                {
                    "name": "G#2",
                    "midi": 44,
                    "time": 248.3877060000025,
                    "velocity": 0.2125984251968504,
                    "duration": 0.14226099999999064
                },
                {
                    "name": "G#3",
                    "midi": 56,
                    "time": 248.3877060000025,
                    "velocity": 0.2677165354330709,
                    "duration": 0.14226099999999064
                },
                {
                    "name": "D#3",
                    "midi": 51,
                    "time": 248.3877060000025,
                    "velocity": 0.2125984251968504,
                    "duration": 0.14226099999999064
                },
                {
                    "name": "A#2",
                    "midi": 46,
                    "time": 248.6722280000025,
                    "velocity": 0.2125984251968504,
                    "duration": 0.14226099999999064
                },
                {
                    "name": "D#3",
                    "midi": 51,
                    "time": 248.6722280000025,
                    "velocity": 0.2125984251968504,
                    "duration": 0.14226099999999064
                },
                {
                    "name": "G3",
                    "midi": 55,
                    "time": 248.6722280000025,
                    "velocity": 0.25984251968503935,
                    "duration": 0.14226099999999064
                },
                {
                    "name": "A#2",
                    "midi": 46,
                    "time": 248.95675000000247,
                    "velocity": 0.2125984251968504,
                    "duration": 0.14226099999999064
                },
                {
                    "name": "F3",
                    "midi": 53,
                    "time": 248.95675000000247,
                    "velocity": 0.2125984251968504,
                    "duration": 0.14226099999999064
                },
                {
                    "name": "G#3",
                    "midi": 56,
                    "time": 248.95675000000247,
                    "velocity": 0.2677165354330709,
                    "duration": 0.14226099999999064
                },
                {
                    "name": "F#4",
                    "midi": 66,
                    "time": 249.81031600000247,
                    "velocity": 0.2440944881889764,
                    "duration": 0.14226099999999064
                },
                {
                    "name": "D#4",
                    "midi": 63,
                    "time": 250.09483800000245,
                    "velocity": 0.25984251968503935,
                    "duration": 0.14226099999999064
                },
                {
                    "name": "G#4",
                    "midi": 68,
                    "time": 250.37936000000244,
                    "velocity": 0.25984251968503935,
                    "duration": 0.14226099999999064
                },
                {
                    "name": "G#4",
                    "midi": 68,
                    "time": 250.66388200000242,
                    "velocity": 0.2440944881889764,
                    "duration": 0.14226099999999064
                },
                {
                    "name": "G#2",
                    "midi": 44,
                    "time": 251.2329260000024,
                    "velocity": 0.2283464566929134,
                    "duration": 0.14226099999999064
                },
                {
                    "name": "G#2",
                    "midi": 44,
                    "time": 251.5174480000024,
                    "velocity": 0.2283464566929134,
                    "duration": 0.14226099999999064
                },
                {
                    "name": "A2",
                    "midi": 45,
                    "time": 252.08649200000238,
                    "velocity": 0.2047244094488189,
                    "duration": 0.14226099999999064
                },
                {
                    "name": "A2",
                    "midi": 45,
                    "time": 252.37101400000236,
                    "velocity": 0.2047244094488189,
                    "duration": 0.14226099999999064
                },
                {
                    "name": "A3",
                    "midi": 57,
                    "time": 252.94005800000235,
                    "velocity": 0.2047244094488189,
                    "duration": 0.14226099999999064
                },
                {
                    "name": "A#3",
                    "midi": 58,
                    "time": 253.22458000000233,
                    "velocity": 0.2125984251968504,
                    "duration": 0.14226099999999064
                },
                {
                    "name": "A#2",
                    "midi": 46,
                    "time": 253.50910200000231,
                    "velocity": 0.23622047244094488,
                    "duration": 0.14226099999999064
                },
                {
                    "name": "C3",
                    "midi": 48,
                    "time": 253.7936240000023,
                    "velocity": 0.25984251968503935,
                    "duration": 0.14226099999999064
                },
                {
                    "name": "C3",
                    "midi": 48,
                    "time": 254.07814600000228,
                    "velocity": 0.2755905511811024,
                    "duration": 0.14226099999999064
                },
                {
                    "name": "A#3",
                    "midi": 58,
                    "time": 254.36266800000226,
                    "velocity": 0.3228346456692913,
                    "duration": 0.14226099999999064
                },
                {
                    "name": "G3",
                    "midi": 55,
                    "time": 254.36266800000226,
                    "velocity": 0.2755905511811024,
                    "duration": 0.14226099999999064
                },
                {
                    "name": "C3",
                    "midi": 48,
                    "time": 254.36266800000226,
                    "velocity": 0.2755905511811024,
                    "duration": 0.14226099999999064
                },
                {
                    "name": "C3",
                    "midi": 48,
                    "time": 254.64719000000224,
                    "velocity": 0.28346456692913385,
                    "duration": 0.14226099999999064
                },
                {
                    "name": "G3",
                    "midi": 55,
                    "time": 254.64719000000224,
                    "velocity": 0.28346456692913385,
                    "duration": 0.14226099999999064
                },
                {
                    "name": "A#3",
                    "midi": 58,
                    "time": 254.64719000000224,
                    "velocity": 0.33070866141732286,
                    "duration": 0.14226099999999064
                },
                {
                    "name": "F2",
                    "midi": 41,
                    "time": 254.93171200000222,
                    "velocity": 0.28346456692913385,
                    "duration": 0.07113050000000953
                },
                {
                    "name": "F3",
                    "midi": 53,
                    "time": 254.93171200000222,
                    "velocity": 0.33070866141732286,
                    "duration": 0.07113050000000953
                },
                {
                    "name": "A3",
                    "midi": 57,
                    "time": 255.50075600000224,
                    "velocity": 0.28346456692913385,
                    "duration": 0.42678300000000036
                },
                {
                    "name": "C4",
                    "midi": 60,
                    "time": 255.50075600000224,
                    "velocity": 0.3464566929133858,
                    "duration": 0.5690440000000194
                },
                {
                    "name": "G3",
                    "midi": 55,
                    "time": 255.92753900000224,
                    "velocity": 0.23622047244094488,
                    "duration": 0.14226100000001907
                },
                {
                    "name": "A#3",
                    "midi": 58,
                    "time": 255.92753900000224,
                    "velocity": 0.28346456692913385,
                    "duration": 0.14226100000001907
                },
                {
                    "name": "F3",
                    "midi": 53,
                    "time": 256.06980000000226,
                    "velocity": 0.28346456692913385,
                    "duration": 0.2845219999999813
                },
                {
                    "name": "A3",
                    "midi": 57,
                    "time": 256.06980000000226,
                    "velocity": 0.3464566929133858,
                    "duration": 0.2845219999999813
                },
                {
                    "name": "D#3",
                    "midi": 51,
                    "time": 256.35432200000224,
                    "velocity": 0.2992125984251969,
                    "duration": 0.2845219999999813
                },
                {
                    "name": "A3",
                    "midi": 57,
                    "time": 256.35432200000224,
                    "velocity": 0.3543307086614173,
                    "duration": 0.2845219999999813
                },
                {
                    "name": "D3",
                    "midi": 50,
                    "time": 256.6388440000022,
                    "velocity": 0.31496062992125984,
                    "duration": 0.2845219999999813
                },
                {
                    "name": "A3",
                    "midi": 57,
                    "time": 256.6388440000022,
                    "velocity": 0.3779527559055118,
                    "duration": 0.2845219999999813
                },
                {
                    "name": "G2",
                    "midi": 43,
                    "time": 256.9233660000022,
                    "velocity": 0.29133858267716534,
                    "duration": 0.2845219999999813
                },
                {
                    "name": "D3",
                    "midi": 50,
                    "time": 256.9233660000022,
                    "velocity": 0.29133858267716534,
                    "duration": 0.2845219999999813
                },
                {
                    "name": "G3",
                    "midi": 55,
                    "time": 256.9233660000022,
                    "velocity": 0.3464566929133858,
                    "duration": 0.2845219999999813
                },
                {
                    "name": "C3",
                    "midi": 48,
                    "time": 257.2078880000022,
                    "velocity": 0.3228346456692913,
                    "duration": 0.5690440000000194
                },
                {
                    "name": "A#3",
                    "midi": 58,
                    "time": 257.2078880000022,
                    "velocity": 0.3858267716535433,
                    "duration": 0.5690440000000194
                },
                {
                    "name": "F3",
                    "midi": 53,
                    "time": 257.7769320000022,
                    "velocity": 0.25196850393700787,
                    "duration": 0.07113049999998111
                },
                {
                    "name": "A3",
                    "midi": 57,
                    "time": 257.7769320000022,
                    "velocity": 0.2992125984251969,
                    "duration": 0.07113049999998111
                },
                {
                    "name": "F3",
                    "midi": 53,
                    "time": 258.0614540000022,
                    "velocity": 0.2204724409448819,
                    "duration": 0.07113049999998111
                },
                {
                    "name": "A3",
                    "midi": 57,
                    "time": 258.0614540000022,
                    "velocity": 0.2677165354330709,
                    "duration": 0.07113049999998111
                },
                {
                    "name": "A2",
                    "midi": 45,
                    "time": 258.9150200000022,
                    "velocity": 0.2755905511811024,
                    "duration": 0.42678300000000036
                },
                {
                    "name": "C3",
                    "midi": 48,
                    "time": 258.9150200000022,
                    "velocity": 0.33070866141732286,
                    "duration": 0.14048273750000817
                },
                {
                    "name": "G2",
                    "midi": 43,
                    "time": 259.3418030000022,
                    "velocity": 0.23622047244094488,
                    "duration": 0.14226100000001907
                },
                {
                    "name": "A#2",
                    "midi": 46,
                    "time": 259.3418030000022,
                    "velocity": 0.28346456692913385,
                    "duration": 0.14226100000001907
                },
                {
                    "name": "F2",
                    "midi": 41,
                    "time": 259.4840640000022,
                    "velocity": 0.28346456692913385,
                    "duration": 0.2845219999999813
                },
                {
                    "name": "A2",
                    "midi": 45,
                    "time": 259.4840640000022,
                    "velocity": 0.3464566929133858,
                    "duration": 0.2845219999999813
                },
                {
                    "name": "D#2",
                    "midi": 39,
                    "time": 259.7685860000022,
                    "velocity": 0.2992125984251969,
                    "duration": 0.2845219999999813
                },
                {
                    "name": "A2",
                    "midi": 45,
                    "time": 259.7685860000022,
                    "velocity": 0.3543307086614173,
                    "duration": 0.2845219999999813
                },
                {
                    "name": "D2",
                    "midi": 38,
                    "time": 260.05310800000217,
                    "velocity": 0.31496062992125984,
                    "duration": 0.2845219999999813
                },
                {
                    "name": "A2",
                    "midi": 45,
                    "time": 260.05310800000217,
                    "velocity": 0.3779527559055118,
                    "duration": 0.2845219999999813
                },
                {
                    "name": "G1",
                    "midi": 31,
                    "time": 260.33763000000215,
                    "velocity": 0.31496062992125984,
                    "duration": 0.14226100000001907
                },
                {
                    "name": "D2",
                    "midi": 38,
                    "time": 260.33763000000215,
                    "velocity": 0.31496062992125984,
                    "duration": 0.14226100000001907
                },
                {
                    "name": "G2",
                    "midi": 43,
                    "time": 260.33763000000215,
                    "velocity": 0.3779527559055118,
                    "duration": 0.14226100000001907
                },
                {
                    "name": "F3",
                    "midi": 53,
                    "time": 260.90667400000217,
                    "velocity": 0.3543307086614173,
                    "duration": 0.2845219999999813
                },
                {
                    "name": "A#3",
                    "midi": 58,
                    "time": 260.90667400000217,
                    "velocity": 0.41732283464566927,
                    "duration": 0.2845219999999813
                },
                {
                    "name": "D#3",
                    "midi": 51,
                    "time": 261.19119600000215,
                    "velocity": 0.3858267716535433,
                    "duration": 0.2845219999999813
                },
                {
                    "name": "A#3",
                    "midi": 58,
                    "time": 261.19119600000215,
                    "velocity": 0.4645669291338583,
                    "duration": 0.2845219999999813
                },
                {
                    "name": "G#2",
                    "midi": 44,
                    "time": 261.47571800000213,
                    "velocity": 0.3937007874015748,
                    "duration": 0.14226100000001907
                },
                {
                    "name": "D#3",
                    "midi": 51,
                    "time": 261.47571800000213,
                    "velocity": 0.3937007874015748,
                    "duration": 0.14226100000001907
                },
                {
                    "name": "G#3",
                    "midi": 56,
                    "time": 261.47571800000213,
                    "velocity": 0.47244094488188976,
                    "duration": 0.14226100000001907
                },
                {
                    "name": "E2",
                    "midi": 40,
                    "time": 262.04476200000215,
                    "velocity": 0.5511811023622047,
                    "duration": 0.2845219999999813
                },
                {
                    "name": "B2",
                    "midi": 47,
                    "time": 262.04476200000215,
                    "velocity": 0.5511811023622047,
                    "duration": 0.2845219999999813
                },
                {
                    "name": "E3",
                    "midi": 52,
                    "time": 262.04476200000215,
                    "velocity": 0.6614173228346457,
                    "duration": 0.2845219999999813
                },
                {
                    "name": "A1",
                    "midi": 33,
                    "time": 262.32928400000213,
                    "velocity": 0.5511811023622047,
                    "duration": 0.14226100000001907
                },
                {
                    "name": "E2",
                    "midi": 40,
                    "time": 262.32928400000213,
                    "velocity": 0.5511811023622047,
                    "duration": 0.14226100000001907
                },
                {
                    "name": "A2",
                    "midi": 45,
                    "time": 262.32928400000213,
                    "velocity": 0.6614173228346457,
                    "duration": 0.14226100000001907
                },
                {
                    "name": "F4",
                    "midi": 65,
                    "time": 262.89832800000215,
                    "velocity": 0.3858267716535433,
                    "duration": 0.5690440000000194
                },
                {
                    "name": "D#5",
                    "midi": 75,
                    "time": 262.89832800000215,
                    "velocity": 0.4566929133858268,
                    "duration": 0.5690440000000194
                },
                {
                    "name": "A#4",
                    "midi": 70,
                    "time": 263.4673720000022,
                    "velocity": 0.2992125984251969,
                    "duration": 0.07113049999998111
                },
                {
                    "name": "D5",
                    "midi": 74,
                    "time": 263.4673720000022,
                    "velocity": 0.3543307086614173,
                    "duration": 0.07113049999998111
                },
                {
                    "name": "A#4",
                    "midi": 70,
                    "time": 263.75189400000215,
                    "velocity": 0.25984251968503935,
                    "duration": 0.07113049999998111
                },
                {
                    "name": "D5",
                    "midi": 74,
                    "time": 263.75189400000215,
                    "velocity": 0.31496062992125984,
                    "duration": 0.07113049999998111
                },
                {
                    "name": "A#4",
                    "midi": 70,
                    "time": 264.03641600000213,
                    "velocity": 0.2992125984251969,
                    "duration": 0.8535660000000007
                },
                {
                    "name": "D5",
                    "midi": 74,
                    "time": 264.03641600000213,
                    "velocity": 0.3543307086614173,
                    "duration": 0.8535660000000007
                },
                {
                    "name": "C3",
                    "midi": 48,
                    "time": 266.31259200000216,
                    "velocity": 0.25984251968503935,
                    "duration": 0.5690440000000194
                },
                {
                    "name": "A#3",
                    "midi": 58,
                    "time": 266.31259200000216,
                    "velocity": 0.30708661417322836,
                    "duration": 0.5690440000000194
                },
                {
                    "name": "F3",
                    "midi": 53,
                    "time": 266.8816360000022,
                    "velocity": 0.23622047244094488,
                    "duration": 0.07113049999998111
                },
                {
                    "name": "A3",
                    "midi": 57,
                    "time": 266.8816360000022,
                    "velocity": 0.28346456692913385,
                    "duration": 0.07113049999998111
                },
                {
                    "name": "F3",
                    "midi": 53,
                    "time": 267.16615800000216,
                    "velocity": 0.1889763779527559,
                    "duration": 0.07113049999998111
                },
                {
                    "name": "A3",
                    "midi": 57,
                    "time": 267.16615800000216,
                    "velocity": 0.25196850393700787,
                    "duration": 0.07113049999998111
                },
                {
                    "name": "F3",
                    "midi": 53,
                    "time": 267.45068000000214,
                    "velocity": 0.23622047244094488,
                    "duration": 0.8535660000000007
                },
                {
                    "name": "C4",
                    "midi": 60,
                    "time": 267.45068000000214,
                    "velocity": 0.28346456692913385,
                    "duration": 0.8535660000000007
                },
                {
                    "name": "F4",
                    "midi": 65,
                    "time": 268.5887680000021,
                    "velocity": 0.3858267716535433,
                    "duration": 0.5690440000000194
                },
                {
                    "name": "D#5",
                    "midi": 75,
                    "time": 268.5887680000021,
                    "velocity": 0.4566929133858268,
                    "duration": 0.5690440000000194
                },
                {
                    "name": "A#4",
                    "midi": 70,
                    "time": 269.15781200000214,
                    "velocity": 0.2992125984251969,
                    "duration": 0.07113049999998111
                },
                {
                    "name": "D5",
                    "midi": 74,
                    "time": 269.15781200000214,
                    "velocity": 0.3543307086614173,
                    "duration": 0.07113049999998111
                },
                {
                    "name": "A#4",
                    "midi": 70,
                    "time": 269.4423340000021,
                    "velocity": 0.30708661417322836,
                    "duration": 0.07113049999998111
                },
                {
                    "name": "D5",
                    "midi": 74,
                    "time": 269.4423340000021,
                    "velocity": 0.3779527559055118,
                    "duration": 0.07113049999998111
                },
                {
                    "name": "C3",
                    "midi": 48,
                    "time": 273.1411200000021,
                    "velocity": 0.2283464566929134,
                    "duration": 0.5690440000000194
                },
                {
                    "name": "A#3",
                    "midi": 58,
                    "time": 273.1411200000021,
                    "velocity": 0.2755905511811024,
                    "duration": 0.5690440000000194
                },
                {
                    "name": "F3",
                    "midi": 53,
                    "time": 273.7101640000021,
                    "velocity": 0.2125984251968504,
                    "duration": 0.07113049999998111
                },
                {
                    "name": "A3",
                    "midi": 57,
                    "time": 273.7101640000021,
                    "velocity": 0.25196850393700787,
                    "duration": 0.07113049999998111
                },
                {
                    "name": "F3",
                    "midi": 53,
                    "time": 273.9946860000021,
                    "velocity": 0.16535433070866143,
                    "duration": 0.07113049999998111
                },
                {
                    "name": "A3",
                    "midi": 57,
                    "time": 273.9946860000021,
                    "velocity": 0.2204724409448819,
                    "duration": 0.07113049999998111
                },
                {
                    "name": "F3",
                    "midi": 53,
                    "time": 274.2792080000021,
                    "velocity": 0.2125984251968504,
                    "duration": 0.8535660000000007
                },
                {
                    "name": "C4",
                    "midi": 60,
                    "time": 274.2792080000021,
                    "velocity": 0.25196850393700787,
                    "duration": 0.8535660000000007
                },
                {
                    "name": "E3",
                    "midi": 52,
                    "time": 275.41729600000207,
                    "velocity": 0.1889763779527559,
                    "duration": 0.07113049999998111
                },
                {
                    "name": "G#3",
                    "midi": 56,
                    "time": 275.41729600000207,
                    "velocity": 0.1889763779527559,
                    "duration": 0.07113049999998111
                },
                {
                    "name": "C#4",
                    "midi": 61,
                    "time": 275.41729600000207,
                    "velocity": 0.2204724409448819,
                    "duration": 0.07113049999998111
                },
                {
                    "name": "E3",
                    "midi": 52,
                    "time": 275.70181800000205,
                    "velocity": 0.14173228346456693,
                    "duration": 0.07113049999998111
                },
                {
                    "name": "G#3",
                    "midi": 56,
                    "time": 275.70181800000205,
                    "velocity": 0.14173228346456693,
                    "duration": 0.07113049999998111
                },
                {
                    "name": "C#4",
                    "midi": 61,
                    "time": 275.70181800000205,
                    "velocity": 0.1968503937007874,
                    "duration": 0.07113049999998111
                },
                {
                    "name": "C#3",
                    "midi": 49,
                    "time": 275.98634000000203,
                    "velocity": 0.1889763779527559,
                    "duration": 0.2845219999999813
                },
                {
                    "name": "G#3",
                    "midi": 56,
                    "time": 275.98634000000203,
                    "velocity": 0.1889763779527559,
                    "duration": 0.2845219999999813
                },
                {
                    "name": "C#4",
                    "midi": 61,
                    "time": 275.98634000000203,
                    "velocity": 0.2204724409448819,
                    "duration": 0.2845219999999813
                },
                {
                    "name": "C#3",
                    "midi": 49,
                    "time": 276.270862000002,
                    "velocity": 0.2677165354330709,
                    "duration": 0.14226100000001907
                },
                {
                    "name": "G#3",
                    "midi": 56,
                    "time": 276.41312300000203,
                    "velocity": 0.2283464566929134,
                    "duration": 0.14226100000001907
                },
                {
                    "name": "C#3",
                    "midi": 49,
                    "time": 276.55538400000205,
                    "velocity": 0.25984251968503935,
                    "duration": 0.14226100000001907
                },
                {
                    "name": "G#3",
                    "midi": 56,
                    "time": 276.69764500000207,
                    "velocity": 0.2204724409448819,
                    "duration": 0.14226100000001907
                },
                {
                    "name": "C3",
                    "midi": 48,
                    "time": 276.8399060000021,
                    "velocity": 0.25984251968503935,
                    "duration": 0.14226100000001907
                },
                {
                    "name": "G#3",
                    "midi": 56,
                    "time": 276.9821670000021,
                    "velocity": 0.2204724409448819,
                    "duration": 0.14226100000001907
                },
                {
                    "name": "C#3",
                    "midi": 49,
                    "time": 277.1244280000021,
                    "velocity": 0.25984251968503935,
                    "duration": 0.14226100000001907
                },
                {
                    "name": "G#3",
                    "midi": 56,
                    "time": 277.26668900000215,
                    "velocity": 0.2204724409448819,
                    "duration": 0.14226100000001907
                },
                {
                    "name": "D#3",
                    "midi": 51,
                    "time": 277.40895000000216,
                    "velocity": 0.2677165354330709,
                    "duration": 0.14226100000001907
                },
                {
                    "name": "G#3",
                    "midi": 56,
                    "time": 277.5512110000022,
                    "velocity": 0.2204724409448819,
                    "duration": 0.14226100000001907
                },
                {
                    "name": "E3",
                    "midi": 52,
                    "time": 277.6934720000022,
                    "velocity": 0.25984251968503935,
                    "duration": 0.14226100000001907
                },
                {
                    "name": "G#3",
                    "midi": 56,
                    "time": 277.8357330000022,
                    "velocity": 0.2125984251968504,
                    "duration": 0.14226100000001907
                },
                {
                    "name": "C#4",
                    "midi": 61,
                    "time": 277.97799400000224,
                    "velocity": 0.23622047244094488,
                    "duration": 0.14226100000001907
                },
                {
                    "name": "G#3",
                    "midi": 56,
                    "time": 278.12025500000226,
                    "velocity": 0.2125984251968504,
                    "duration": 0.14226100000001907
                },
                {
                    "name": "E3",
                    "midi": 52,
                    "time": 278.2625160000023,
                    "velocity": 0.25984251968503935,
                    "duration": 0.14226100000001907
                },
                {
                    "name": "G#3",
                    "midi": 56,
                    "time": 278.4047770000023,
                    "velocity": 0.2204724409448819,
                    "duration": 0.14226100000001907
                },
                {
                    "name": "D#3",
                    "midi": 51,
                    "time": 278.5470380000023,
                    "velocity": 0.2677165354330709,
                    "duration": 0.14226100000001907
                },
                {
                    "name": "G#3",
                    "midi": 56,
                    "time": 278.68929900000234,
                    "velocity": 0.2283464566929134,
                    "duration": 0.14226100000001907
                },
                {
                    "name": "E3",
                    "midi": 52,
                    "time": 278.83156000000236,
                    "velocity": 0.25984251968503935,
                    "duration": 0.14226100000001907
                },
                {
                    "name": "G#3",
                    "midi": 56,
                    "time": 278.9738210000024,
                    "velocity": 0.2204724409448819,
                    "duration": 0.14226100000001907
                },
                {
                    "name": "C#4",
                    "midi": 61,
                    "time": 279.1160820000024,
                    "velocity": 0.2440944881889764,
                    "duration": 0.14226100000001907
                },
                {
                    "name": "G#3",
                    "midi": 56,
                    "time": 279.2583430000024,
                    "velocity": 0.2204724409448819,
                    "duration": 0.14226100000001907
                },
                {
                    "name": "F3",
                    "midi": 53,
                    "time": 279.40060400000243,
                    "velocity": 0.2440944881889764,
                    "duration": 0.14226100000001907
                },
                {
                    "name": "G#3",
                    "midi": 56,
                    "time": 279.54286500000245,
                    "velocity": 0.1968503937007874,
                    "duration": 0.14226100000001907
                },
                {
                    "name": "F3",
                    "midi": 53,
                    "time": 279.68512600000247,
                    "velocity": 0.2677165354330709,
                    "duration": 0.14226100000001907
                },
                {
                    "name": "C#4",
                    "midi": 61,
                    "time": 279.8273870000025,
                    "velocity": 0.2204724409448819,
                    "duration": 0.14226100000001907
                },
                {
                    "name": "F#3",
                    "midi": 54,
                    "time": 279.9696480000025,
                    "velocity": 0.29133858267716534,
                    "duration": 0.14226100000001907
                },
                {
                    "name": "C#4",
                    "midi": 61,
                    "time": 280.1119090000025,
                    "velocity": 0.2125984251968504,
                    "duration": 0.14226100000001907
                },
                {
                    "name": "F#3",
                    "midi": 54,
                    "time": 280.25417000000255,
                    "velocity": 0.2440944881889764,
                    "duration": 0.14226100000001907
                },
                {
                    "name": "D4",
                    "midi": 62,
                    "time": 280.39643100000256,
                    "velocity": 0.2125984251968504,
                    "duration": 0.14226100000001907
                },
                {
                    "name": "F#3",
                    "midi": 54,
                    "time": 280.5386920000026,
                    "velocity": 0.2440944881889764,
                    "duration": 0.14226100000001907
                },
                {
                    "name": "C#4",
                    "midi": 61,
                    "time": 280.6809530000026,
                    "velocity": 0.1968503937007874,
                    "duration": 0.14226100000001907
                },
                {
                    "name": "F#3",
                    "midi": 54,
                    "time": 280.8232140000026,
                    "velocity": 0.2677165354330709,
                    "duration": 0.14226100000001907
                },
                {
                    "name": "C4",
                    "midi": 60,
                    "time": 280.96547500000264,
                    "velocity": 0.2283464566929134,
                    "duration": 0.14226100000001907
                },
                {
                    "name": "F#3",
                    "midi": 54,
                    "time": 281.10773600000266,
                    "velocity": 0.25984251968503935,
                    "duration": 0.14226100000001907
                },
                {
                    "name": "C#4",
                    "midi": 61,
                    "time": 281.2499970000027,
                    "velocity": 0.2204724409448819,
                    "duration": 0.14226100000001907
                },
                {
                    "name": "F3",
                    "midi": 53,
                    "time": 281.3922580000027,
                    "velocity": 0.25984251968503935,
                    "duration": 0.14226100000001907
                },
                {
                    "name": "C#4",
                    "midi": 61,
                    "time": 281.5345190000027,
                    "velocity": 0.2204724409448819,
                    "duration": 0.14226100000001907
                },
                {
                    "name": "F#3",
                    "midi": 54,
                    "time": 281.67678000000274,
                    "velocity": 0.25984251968503935,
                    "duration": 0.14226100000001907
                },
                {
                    "name": "C#4",
                    "midi": 61,
                    "time": 281.81904100000276,
                    "velocity": 0.2204724409448819,
                    "duration": 0.14226100000001907
                },
                {
                    "name": "G#3",
                    "midi": 56,
                    "time": 281.9613020000028,
                    "velocity": 0.2677165354330709,
                    "duration": 0.14226100000001907
                },
                {
                    "name": "C#4",
                    "midi": 61,
                    "time": 282.1035630000028,
                    "velocity": 0.2204724409448819,
                    "duration": 0.14226100000001907
                },
                {
                    "name": "A3",
                    "midi": 57,
                    "time": 282.2458240000028,
                    "velocity": 0.25984251968503935,
                    "duration": 0.14226100000001907
                },
                {
                    "name": "C#4",
                    "midi": 61,
                    "time": 282.38808500000283,
                    "velocity": 0.2125984251968504,
                    "duration": 0.14226100000001907
                },
                {
                    "name": "F#4",
                    "midi": 66,
                    "time": 282.53034600000285,
                    "velocity": 0.2440944881889764,
                    "duration": 0.14226100000001907
                },
                {
                    "name": "C#4",
                    "midi": 61,
                    "time": 282.67260700000287,
                    "velocity": 0.2125984251968504,
                    "duration": 0.14226100000001907
                },
                {
                    "name": "A3",
                    "midi": 57,
                    "time": 282.8148680000029,
                    "velocity": 0.25984251968503935,
                    "duration": 0.14226100000001907
                },
                {
                    "name": "C#4",
                    "midi": 61,
                    "time": 282.9571290000029,
                    "velocity": 0.2204724409448819,
                    "duration": 0.14226100000001907
                },
                {
                    "name": "G#3",
                    "midi": 56,
                    "time": 283.0993900000029,
                    "velocity": 0.2677165354330709,
                    "duration": 0.14226100000001907
                },
                {
                    "name": "C#4",
                    "midi": 61,
                    "time": 283.24165100000295,
                    "velocity": 0.2283464566929134,
                    "duration": 0.14226100000001907
                },
                {
                    "name": "A3",
                    "midi": 57,
                    "time": 283.38391200000297,
                    "velocity": 0.25984251968503935,
                    "duration": 0.14226100000001907
                },
                {
                    "name": "C#4",
                    "midi": 61,
                    "time": 283.526173000003,
                    "velocity": 0.2204724409448819,
                    "duration": 0.14226100000001907
                },
                {
                    "name": "F#4",
                    "midi": 66,
                    "time": 283.668434000003,
                    "velocity": 0.25984251968503935,
                    "duration": 0.14226100000001907
                },
                {
                    "name": "C#4",
                    "midi": 61,
                    "time": 283.810695000003,
                    "velocity": 0.2204724409448819,
                    "duration": 0.14226100000001907
                },
                {
                    "name": "A#3",
                    "midi": 58,
                    "time": 283.95295600000304,
                    "velocity": 0.2755905511811024,
                    "duration": 0.14226100000001907
                },
                {
                    "name": "C#4",
                    "midi": 61,
                    "time": 284.09521700000306,
                    "velocity": 0.2283464566929134,
                    "duration": 0.14226100000001907
                },
                {
                    "name": "A#3",
                    "midi": 58,
                    "time": 284.2374780000031,
                    "velocity": 0.2755905511811024,
                    "duration": 0.14226100000001907
                },
                {
                    "name": "F#4",
                    "midi": 66,
                    "time": 284.3797390000031,
                    "velocity": 0.2204724409448819,
                    "duration": 0.14226100000001907
                },
                {
                    "name": "B3",
                    "midi": 59,
                    "time": 284.5220000000031,
                    "velocity": 0.29133858267716534,
                    "duration": 0.14226100000001907
                },
                {
                    "name": "F#4",
                    "midi": 66,
                    "time": 284.66426100000314,
                    "velocity": 0.31496062992125984,
                    "duration": 0.14226100000001907
                },
                {
                    "name": "B3",
                    "midi": 59,
                    "time": 284.80652200000316,
                    "velocity": 0.25984251968503935,
                    "duration": 0.14226100000001907
                },
                {
                    "name": "G4",
                    "midi": 67,
                    "time": 284.9487830000032,
                    "velocity": 0.30708661417322836,
                    "duration": 0.14226100000001907
                },
                {
                    "name": "B3",
                    "midi": 59,
                    "time": 285.0910440000032,
                    "velocity": 0.25984251968503935,
                    "duration": 0.14226100000001907
                },
                {
                    "name": "F#4",
                    "midi": 66,
                    "time": 285.2333050000032,
                    "velocity": 0.28346456692913385,
                    "duration": 0.14226100000001907
                },
                {
                    "name": "B3",
                    "midi": 59,
                    "time": 285.37556600000323,
                    "velocity": 0.25984251968503935,
                    "duration": 0.14226100000001907
                },
                {
                    "name": "F4",
                    "midi": 65,
                    "time": 285.51782700000325,
                    "velocity": 0.2283464566929134,
                    "duration": 0.14226100000001907
                },
                {
                    "name": "A3",
                    "midi": 57,
                    "time": 285.66008800000327,
                    "velocity": 0.2755905511811024,
                    "duration": 0.14226100000001907
                },
                {
                    "name": "F#4",
                    "midi": 66,
                    "time": 285.8023490000033,
                    "velocity": 0.2440944881889764,
                    "duration": 0.14226100000001907
                },
                {
                    "name": "G#3",
                    "midi": 56,
                    "time": 285.9446100000033,
                    "velocity": 0.25984251968503935,
                    "duration": 0.14226100000001907
                },
                {
                    "name": "F4",
                    "midi": 65,
                    "time": 286.0868710000033,
                    "velocity": 0.23622047244094488,
                    "duration": 0.14226100000001907
                },
                {
                    "name": "F#3",
                    "midi": 54,
                    "time": 286.22913200000335,
                    "velocity": 0.25984251968503935,
                    "duration": 0.14226100000001907
                },
                {
                    "name": "F#4",
                    "midi": 66,
                    "time": 286.37139300000337,
                    "velocity": 0.23622047244094488,
                    "duration": 0.14226100000001907
                },
                {
                    "name": "D#3",
                    "midi": 51,
                    "time": 286.5136540000034,
                    "velocity": 0.25984251968503935,
                    "duration": 0.14226100000001907
                },
                {
                    "name": "C4",
                    "midi": 60,
                    "time": 286.6559150000034,
                    "velocity": 0.2283464566929134,
                    "duration": 0.14226100000001907
                },
                {
                    "name": "E3",
                    "midi": 52,
                    "time": 286.7981760000034,
                    "velocity": 0.28346456692913385,
                    "duration": 0.14226100000001907
                },
                {
                    "name": "C#4",
                    "midi": 61,
                    "time": 286.94043700000344,
                    "velocity": 0.23622047244094488,
                    "duration": 0.14226100000001907
                },
                {
                    "name": "C3",
                    "midi": 48,
                    "time": 287.08269800000346,
                    "velocity": 0.25984251968503935,
                    "duration": 0.14226100000001907
                },
                {
                    "name": "A3",
                    "midi": 57,
                    "time": 287.2249590000035,
                    "velocity": 0.2283464566929134,
                    "duration": 0.14226100000001907
                },
                {
                    "name": "C#3",
                    "midi": 49,
                    "time": 287.3672200000035,
                    "velocity": 0.25984251968503935,
                    "duration": 0.14226100000001907
                },
                {
                    "name": "G#3",
                    "midi": 56,
                    "time": 287.5094810000035,
                    "velocity": 0.2283464566929134,
                    "duration": 0.14226100000001907
                },
                {
                    "name": "E3",
                    "midi": 52,
                    "time": 287.65174200000354,
                    "velocity": 0.25984251968503935,
                    "duration": 0.14226100000001907
                },
                {
                    "name": "G#3",
                    "midi": 56,
                    "time": 287.79400300000356,
                    "velocity": 0.23622047244094488,
                    "duration": 0.14226100000001907
                },
                {
                    "name": "F#3",
                    "midi": 54,
                    "time": 287.9362640000036,
                    "velocity": 0.25984251968503935,
                    "duration": 0.14226100000001907
                },
                {
                    "name": "A3",
                    "midi": 57,
                    "time": 288.0785250000036,
                    "velocity": 0.23622047244094488,
                    "duration": 0.14226100000001907
                },
                {
                    "name": "F#3",
                    "midi": 54,
                    "time": 288.2207860000036,
                    "velocity": 0.2677165354330709,
                    "duration": 0.14226100000001907
                },
                {
                    "name": "A3",
                    "midi": 57,
                    "time": 288.36304700000363,
                    "velocity": 0.23622047244094488,
                    "duration": 0.14226100000001907
                },
                {
                    "name": "G#2",
                    "midi": 44,
                    "time": 288.50530800000365,
                    "velocity": 0.2755905511811024,
                    "duration": 0.14226100000001907
                },
                {
                    "name": "E3",
                    "midi": 52,
                    "time": 288.50530800000365,
                    "velocity": 0.2755905511811024,
                    "duration": 0.14226100000001907
                },
                {
                    "name": "G#3",
                    "midi": 56,
                    "time": 288.64756900000367,
                    "velocity": 0.2440944881889764,
                    "duration": 0.14226100000001907
                },
                {
                    "name": "G#2",
                    "midi": 44,
                    "time": 288.7898300000037,
                    "velocity": 0.2755905511811024,
                    "duration": 0.14226100000001907
                },
                {
                    "name": "D#3",
                    "midi": 51,
                    "time": 288.7898300000037,
                    "velocity": 0.2755905511811024,
                    "duration": 0.14226100000001907
                },
                {
                    "name": "G#3",
                    "midi": 56,
                    "time": 288.9320910000037,
                    "velocity": 0.25984251968503935,
                    "duration": 0.14226100000001907
                },
                {
                    "name": "F#2",
                    "midi": 42,
                    "time": 289.0743520000037,
                    "velocity": 0.30708661417322836,
                    "duration": 0.14226100000001907
                },
                {
                    "name": "D3",
                    "midi": 50,
                    "time": 289.0743520000037,
                    "velocity": 0.30708661417322836,
                    "duration": 0.14226100000001907
                },
                {
                    "name": "A3",
                    "midi": 57,
                    "time": 289.21661300000375,
                    "velocity": 0.2283464566929134,
                    "duration": 0.14226100000001907
                },
                {
                    "name": "F#3",
                    "midi": 54,
                    "time": 289.35887400000377,
                    "velocity": 0.2755905511811024,
                    "duration": 0.14226100000001907
                },
                {
                    "name": "A3",
                    "midi": 57,
                    "time": 289.5011350000038,
                    "velocity": 0.2440944881889764,
                    "duration": 0.14226100000001907
                },
                {
                    "name": "F#3",
                    "midi": 54,
                    "time": 289.6433960000038,
                    "velocity": 0.28346456692913385,
                    "duration": 0.14226100000001907
                },
                {
                    "name": "A3",
                    "midi": 57,
                    "time": 289.7856570000038,
                    "velocity": 0.25984251968503935,
                    "duration": 0.14226100000001907
                },
                {
                    "name": "D3",
                    "midi": 50,
                    "time": 289.92791800000384,
                    "velocity": 0.2440944881889764,
                    "duration": 0.14226100000001907
                },
                {
                    "name": "A3",
                    "midi": 57,
                    "time": 290.07017900000386,
                    "velocity": 0.2125984251968504,
                    "duration": 0.14226100000001907
                },
                {
                    "name": "E3",
                    "midi": 52,
                    "time": 290.2124400000039,
                    "velocity": 0.25984251968503935,
                    "duration": 0.14226100000001907
                },
                {
                    "name": "G#3",
                    "midi": 56,
                    "time": 290.3547010000039,
                    "velocity": 0.2204724409448819,
                    "duration": 0.14226100000001907
                },
                {
                    "name": "F#3",
                    "midi": 54,
                    "time": 290.4969620000039,
                    "velocity": 0.25984251968503935,
                    "duration": 0.14226100000001907
                },
                {
                    "name": "G#3",
                    "midi": 56,
                    "time": 290.63922300000394,
                    "velocity": 0.2204724409448819,
                    "duration": 0.14226100000001907
                },
                {
                    "name": "G#2",
                    "midi": 44,
                    "time": 290.78148400000396,
                    "velocity": 0.25984251968503935,
                    "duration": 0.14226100000001907
                },
                {
                    "name": "E3",
                    "midi": 52,
                    "time": 290.78148400000396,
                    "velocity": 0.25984251968503935,
                    "duration": 0.14226100000001907
                },
                {
                    "name": "G#3",
                    "midi": 56,
                    "time": 290.923745000004,
                    "velocity": 0.2204724409448819,
                    "duration": 0.14226100000001907
                },
                {
                    "name": "G#2",
                    "midi": 44,
                    "time": 291.066006000004,
                    "velocity": 0.25984251968503935,
                    "duration": 0.14226100000001907
                },
                {
                    "name": "F#3",
                    "midi": 54,
                    "time": 291.066006000004,
                    "velocity": 0.25984251968503935,
                    "duration": 0.14226100000001907
                },
                {
                    "name": "G#3",
                    "midi": 56,
                    "time": 291.208267000004,
                    "velocity": 0.2283464566929134,
                    "duration": 0.14226100000001907
                },
                {
                    "name": "A2",
                    "midi": 45,
                    "time": 291.35052800000403,
                    "velocity": 0.25196850393700787,
                    "duration": 0.5690440000000194
                },
                {
                    "name": "E3",
                    "midi": 52,
                    "time": 291.35052800000403,
                    "velocity": 0.25196850393700787,
                    "duration": 0.5690440000000194
                },
                {
                    "name": "A3",
                    "midi": 57,
                    "time": 291.35052800000403,
                    "velocity": 0.2992125984251969,
                    "duration": 0.5690440000000194
                },
                {
                    "name": "C#3",
                    "midi": 49,
                    "time": 291.91957200000405,
                    "velocity": 0.2755905511811024,
                    "duration": 0.14226100000001907
                },
                {
                    "name": "E3",
                    "midi": 52,
                    "time": 292.2040940000041,
                    "velocity": 0.2755905511811024,
                    "duration": 0.14226100000001907
                },
                {
                    "name": "A2",
                    "midi": 45,
                    "time": 292.48861600000413,
                    "velocity": 0.25196850393700787,
                    "duration": 0.5690440000000194
                },
                {
                    "name": "E3",
                    "midi": 52,
                    "time": 292.48861600000413,
                    "velocity": 0.25196850393700787,
                    "duration": 0.5690440000000194
                },
                {
                    "name": "A3",
                    "midi": 57,
                    "time": 292.48861600000413,
                    "velocity": 0.2992125984251969,
                    "duration": 0.5690440000000194
                },
                {
                    "name": "C#3",
                    "midi": 49,
                    "time": 293.05766000000415,
                    "velocity": 0.2755905511811024,
                    "duration": 0.14226100000001907
                },
                {
                    "name": "E3",
                    "midi": 52,
                    "time": 293.3421820000042,
                    "velocity": 0.2755905511811024,
                    "duration": 0.14226100000001907
                },
                {
                    "name": "A2",
                    "midi": 45,
                    "time": 293.6267040000042,
                    "velocity": 0.2755905511811024,
                    "duration": 0.14226100000001907
                },
                {
                    "name": "E3",
                    "midi": 52,
                    "time": 293.91122600000426,
                    "velocity": 0.2204724409448819,
                    "duration": 0.8535659999999439
                },
                {
                    "name": "C#4",
                    "midi": 61,
                    "time": 293.91122600000426,
                    "velocity": 0.25984251968503935,
                    "duration": 0.2845219999999813
                },
                {
                    "name": "B3",
                    "midi": 59,
                    "time": 294.19574800000424,
                    "velocity": 0.2755905511811024,
                    "duration": 0.2845219999999813
                },
                {
                    "name": "D4",
                    "midi": 62,
                    "time": 294.4802700000042,
                    "velocity": 0.25196850393700787,
                    "duration": 0.2845219999999813
                },
                {
                    "name": "A2",
                    "midi": 45,
                    "time": 294.7647920000042,
                    "velocity": 0.2755905511811024,
                    "duration": 0.14226100000001907
                },
                {
                    "name": "E3",
                    "midi": 52,
                    "time": 295.04931400000424,
                    "velocity": 0.2204724409448819,
                    "duration": 0.8535659999999439
                },
                {
                    "name": "C#4",
                    "midi": 61,
                    "time": 295.04931400000424,
                    "velocity": 0.25984251968503935,
                    "duration": 0.2845219999999813
                },
                {
                    "name": "B3",
                    "midi": 59,
                    "time": 295.3338360000042,
                    "velocity": 0.2755905511811024,
                    "duration": 0.2845219999999813
                },
                {
                    "name": "D4",
                    "midi": 62,
                    "time": 295.6183580000042,
                    "velocity": 0.25196850393700787,
                    "duration": 0.2845219999999813
                },
                {
                    "name": "A2",
                    "midi": 45,
                    "time": 295.9028800000042,
                    "velocity": 0.2992125984251969,
                    "duration": 0.5690440000000194
                },
                {
                    "name": "E3",
                    "midi": 52,
                    "time": 295.9028800000042,
                    "velocity": 0.2992125984251969,
                    "duration": 0.5690440000000194
                },
                {
                    "name": "A3",
                    "midi": 57,
                    "time": 295.9028800000042,
                    "velocity": 0.3543307086614173,
                    "duration": 0.5690440000000194
                },
                {
                    "name": "C#3",
                    "midi": 49,
                    "time": 296.4719240000042,
                    "velocity": 0.29133858267716534,
                    "duration": 0.14226100000001907
                },
                {
                    "name": "E3",
                    "midi": 52,
                    "time": 296.75644600000425,
                    "velocity": 0.29133858267716534,
                    "duration": 0.14226100000001907
                },
                {
                    "name": "A#2",
                    "midi": 46,
                    "time": 297.0409680000043,
                    "velocity": 0.29133858267716534,
                    "duration": 0.14226100000001907
                },
                {
                    "name": "C#3",
                    "midi": 49,
                    "time": 297.3254900000043,
                    "velocity": 0.29133858267716534,
                    "duration": 0.14226100000001907
                },
                {
                    "name": "G2",
                    "midi": 43,
                    "time": 297.61001200000436,
                    "velocity": 0.33070866141732286,
                    "duration": 0.14226100000001907
                },
                {
                    "name": "D#3",
                    "midi": 51,
                    "time": 297.8945340000044,
                    "velocity": 0.29133858267716534,
                    "duration": 0.14226100000001907
                },
                {
                    "name": "G#2",
                    "midi": 44,
                    "time": 298.17905600000444,
                    "velocity": 0.25196850393700787,
                    "duration": 0.5690440000000194
                },
                {
                    "name": "D#3",
                    "midi": 51,
                    "time": 298.17905600000444,
                    "velocity": 0.25196850393700787,
                    "duration": 0.5690440000000194
                },
                {
                    "name": "G#3",
                    "midi": 56,
                    "time": 298.17905600000444,
                    "velocity": 0.2992125984251969,
                    "duration": 0.5690440000000194
                },
                {
                    "name": "B2",
                    "midi": 47,
                    "time": 298.74810000000446,
                    "velocity": 0.2755905511811024,
                    "duration": 0.14226100000001907
                },
                {
                    "name": "D#3",
                    "midi": 51,
                    "time": 299.0326220000045,
                    "velocity": 0.2755905511811024,
                    "duration": 0.14226100000001907
                },
                {
                    "name": "G#2",
                    "midi": 44,
                    "time": 299.31714400000453,
                    "velocity": 0.25196850393700787,
                    "duration": 0.5690440000000194
                },
                {
                    "name": "D#3",
                    "midi": 51,
                    "time": 299.31714400000453,
                    "velocity": 0.25196850393700787,
                    "duration": 0.5690440000000194
                },
                {
                    "name": "G#3",
                    "midi": 56,
                    "time": 299.31714400000453,
                    "velocity": 0.2992125984251969,
                    "duration": 0.5690440000000194
                },
                {
                    "name": "B2",
                    "midi": 47,
                    "time": 299.88618800000455,
                    "velocity": 0.2755905511811024,
                    "duration": 0.14226100000001907
                },
                {
                    "name": "D#3",
                    "midi": 51,
                    "time": 300.1707100000046,
                    "velocity": 0.2755905511811024,
                    "duration": 0.14226100000001907
                },
                {
                    "name": "G#2",
                    "midi": 44,
                    "time": 300.4552320000046,
                    "velocity": 0.28346456692913385,
                    "duration": 0.14226100000001907
                },
                {
                    "name": "B2",
                    "midi": 47,
                    "time": 300.73975400000467,
                    "velocity": 0.31496062992125984,
                    "duration": 0.14226100000001907
                },
                {
                    "name": "F2",
                    "midi": 41,
                    "time": 301.0242760000047,
                    "velocity": 0.3464566929133858,
                    "duration": 0.14226100000001907
                },
                {
                    "name": "F#2",
                    "midi": 42,
                    "time": 301.30879800000474,
                    "velocity": 0.3779527559055118,
                    "duration": 0.14226100000001907
                },
                {
                    "name": "B1",
                    "midi": 35,
                    "time": 301.5933200000048,
                    "velocity": 0.3700787401574803,
                    "duration": 0.5690440000000194
                },
                {
                    "name": "F#2",
                    "midi": 42,
                    "time": 301.5933200000048,
                    "velocity": 0.3700787401574803,
                    "duration": 0.5690440000000194
                },
                {
                    "name": "B2",
                    "midi": 47,
                    "time": 301.5933200000048,
                    "velocity": 0.4409448818897638,
                    "duration": 0.5690440000000194
                },
                {
                    "name": "D#2",
                    "midi": 39,
                    "time": 302.1623640000048,
                    "velocity": 0.2755905511811024,
                    "duration": 0.14226100000001907
                },
                {
                    "name": "F#2",
                    "midi": 42,
                    "time": 302.44688600000484,
                    "velocity": 0.2755905511811024,
                    "duration": 0.14226100000001907
                },
                {
                    "name": "B1",
                    "midi": 35,
                    "time": 302.7314080000049,
                    "velocity": 0.3700787401574803,
                    "duration": 0.5690440000000194
                },
                {
                    "name": "F#2",
                    "midi": 42,
                    "time": 302.7314080000049,
                    "velocity": 0.3700787401574803,
                    "duration": 0.5690440000000194
                },
                {
                    "name": "B2",
                    "midi": 47,
                    "time": 302.7314080000049,
                    "velocity": 0.4409448818897638,
                    "duration": 0.5690440000000194
                },
                {
                    "name": "D#2",
                    "midi": 39,
                    "time": 303.3004520000049,
                    "velocity": 0.2755905511811024,
                    "duration": 0.14226100000001907
                },
                {
                    "name": "F#2",
                    "midi": 42,
                    "time": 303.58497400000493,
                    "velocity": 0.2755905511811024,
                    "duration": 0.14226100000001907
                },
                {
                    "name": "B1",
                    "midi": 35,
                    "time": 303.869496000005,
                    "velocity": 0.2755905511811024,
                    "duration": 0.14226100000001907
                },
                {
                    "name": "F#3",
                    "midi": 54,
                    "time": 304.154018000005,
                    "velocity": 0.2204724409448819,
                    "duration": 0.8535659999999439
                },
                {
                    "name": "D#4",
                    "midi": 63,
                    "time": 304.154018000005,
                    "velocity": 0.25984251968503935,
                    "duration": 0.2845219999999813
                },
                {
                    "name": "C#4",
                    "midi": 61,
                    "time": 304.438540000005,
                    "velocity": 0.2755905511811024,
                    "duration": 0.2845219999999813
                },
                {
                    "name": "E4",
                    "midi": 64,
                    "time": 304.723062000005,
                    "velocity": 0.25196850393700787,
                    "duration": 0.2845219999999813
                },
                {
                    "name": "B2",
                    "midi": 47,
                    "time": 305.00758400000495,
                    "velocity": 0.2755905511811024,
                    "duration": 0.14226100000001907
                },
                {
                    "name": "F#3",
                    "midi": 54,
                    "time": 305.292106000005,
                    "velocity": 0.2204724409448819,
                    "duration": 0.8535659999999439
                },
                {
                    "name": "D#4",
                    "midi": 63,
                    "time": 305.292106000005,
                    "velocity": 0.25984251968503935,
                    "duration": 0.2845219999999813
                },
                {
                    "name": "C#4",
                    "midi": 61,
                    "time": 305.576628000005,
                    "velocity": 0.2755905511811024,
                    "duration": 0.2845219999999813
                },
                {
                    "name": "E4",
                    "midi": 64,
                    "time": 305.86115000000495,
                    "velocity": 0.25196850393700787,
                    "duration": 0.2845219999999813
                },
                {
                    "name": "B2",
                    "midi": 47,
                    "time": 306.14567200000494,
                    "velocity": 0.3543307086614173,
                    "duration": 0.5690440000000194
                },
                {
                    "name": "F#3",
                    "midi": 54,
                    "time": 306.14567200000494,
                    "velocity": 0.3543307086614173,
                    "duration": 0.5690440000000194
                },
                {
                    "name": "B3",
                    "midi": 59,
                    "time": 306.14567200000494,
                    "velocity": 0.41732283464566927,
                    "duration": 0.5690440000000194
                },
                {
                    "name": "D#3",
                    "midi": 51,
                    "time": 306.71471600000496,
                    "velocity": 0.33070866141732286,
                    "duration": 0.14226100000001907
                },
                {
                    "name": "F#3",
                    "midi": 54,
                    "time": 306.999238000005,
                    "velocity": 0.33070866141732286,
                    "duration": 0.14226100000001907
                },
                {
                    "name": "C3",
                    "midi": 48,
                    "time": 307.28376000000503,
                    "velocity": 0.3937007874015748,
                    "duration": 0.14226100000001907
                },
                {
                    "name": "D#3",
                    "midi": 51,
                    "time": 307.56828200000507,
                    "velocity": 0.3228346456692913,
                    "duration": 0.14226100000001907
                },
                {
                    "name": "A2",
                    "midi": 45,
                    "time": 307.8528040000051,
                    "velocity": 0.3937007874015748,
                    "duration": 0.14226100000001907
                },
                {
                    "name": "F3",
                    "midi": 53,
                    "time": 308.13732600000515,
                    "velocity": 0.31496062992125984,
                    "duration": 0.14226100000001907
                },
                {
                    "name": "A#2",
                    "midi": 46,
                    "time": 308.4218480000052,
                    "velocity": 0.25196850393700787,
                    "duration": 0.5690440000000194
                },
                {
                    "name": "F3",
                    "midi": 53,
                    "time": 308.4218480000052,
                    "velocity": 0.25196850393700787,
                    "duration": 0.5690440000000194
                },
                {
                    "name": "A#3",
                    "midi": 58,
                    "time": 308.4218480000052,
                    "velocity": 0.2992125984251969,
                    "duration": 0.5690440000000194
                },
                {
                    "name": "C#3",
                    "midi": 49,
                    "time": 308.9908920000052,
                    "velocity": 0.2755905511811024,
                    "duration": 0.14226100000001907
                },
                {
                    "name": "F3",
                    "midi": 53,
                    "time": 309.27541400000524,
                    "velocity": 0.2755905511811024,
                    "duration": 0.14226100000001907
                },
                {
                    "name": "A#2",
                    "midi": 46,
                    "time": 309.5599360000053,
                    "velocity": 0.25196850393700787,
                    "duration": 0.5690440000000194
                },
                {
                    "name": "F3",
                    "midi": 53,
                    "time": 309.5599360000053,
                    "velocity": 0.25196850393700787,
                    "duration": 0.5690440000000194
                },
                {
                    "name": "A#3",
                    "midi": 58,
                    "time": 309.5599360000053,
                    "velocity": 0.2992125984251969,
                    "duration": 0.5690440000000194
                },
                {
                    "name": "C#3",
                    "midi": 49,
                    "time": 310.1289800000053,
                    "velocity": 0.2755905511811024,
                    "duration": 0.14226100000001907
                },
                {
                    "name": "F3",
                    "midi": 53,
                    "time": 310.41350200000534,
                    "velocity": 0.2755905511811024,
                    "duration": 0.14226100000001907
                },
                {
                    "name": "A#2",
                    "midi": 46,
                    "time": 310.6980240000054,
                    "velocity": 0.30708661417322836,
                    "duration": 0.14226100000001907
                },
                {
                    "name": "C#3",
                    "midi": 49,
                    "time": 310.9825460000054,
                    "velocity": 0.3700787401574803,
                    "duration": 0.14226100000001907
                },
                {
                    "name": "G2",
                    "midi": 43,
                    "time": 311.26706800000545,
                    "velocity": 0.41732283464566927,
                    "duration": 0.14226100000001907
                },
                {
                    "name": "G#2",
                    "midi": 44,
                    "time": 311.5515900000055,
                    "velocity": 0.4566929133858268,
                    "duration": 0.14226100000001907
                },
                {
                    "name": "C#2",
                    "midi": 37,
                    "time": 311.8361120000055,
                    "velocity": 0.4566929133858268,
                    "duration": 0.8535660000000007
                },
                {
                    "name": "G#2",
                    "midi": 44,
                    "time": 311.8361120000055,
                    "velocity": 0.4566929133858268,
                    "duration": 0.8535660000000007
                },
                {
                    "name": "C#3",
                    "midi": 49,
                    "time": 311.8361120000055,
                    "velocity": 0.5511811023622047,
                    "duration": 0.8535660000000007
                },
                {
                    "name": "G#3",
                    "midi": 56,
                    "time": 312.68967800000553,
                    "velocity": 0.3937007874015748,
                    "duration": 0.09484066666664148
                },
                {
                    "name": "F3",
                    "midi": 53,
                    "time": 312.78451866667217,
                    "velocity": 0.3464566929133858,
                    "duration": 0.09484066666664148
                },
                {
                    "name": "C#3",
                    "midi": 49,
                    "time": 312.8793593333388,
                    "velocity": 0.29133858267716534,
                    "duration": 0.09484066666664148
                },
                {
                    "name": "C#2",
                    "midi": 37,
                    "time": 312.97420000000545,
                    "velocity": 0.28346456692913385,
                    "duration": 0.13514794999997548
                },
                {
                    "name": "C#2",
                    "midi": 37,
                    "time": 313.1164610000054,
                    "velocity": 0.23622047244094488,
                    "duration": 0.13514794999997548
                },
                {
                    "name": "C#2",
                    "midi": 37,
                    "time": 313.2587220000054,
                    "velocity": 0.2440944881889764,
                    "duration": 0.13514794999997548
                },
                {
                    "name": "C#2",
                    "midi": 37,
                    "time": 313.40098300000534,
                    "velocity": 0.2440944881889764,
                    "duration": 0.13514794999997548
                },
                {
                    "name": "C#2",
                    "midi": 37,
                    "time": 313.5432440000053,
                    "velocity": 0.23622047244094488,
                    "duration": 0.13514794999997548
                },
                {
                    "name": "C#2",
                    "midi": 37,
                    "time": 313.68550500000526,
                    "velocity": 0.23622047244094488,
                    "duration": 0.13514794999997548
                },
                {
                    "name": "C#2",
                    "midi": 37,
                    "time": 313.8277660000052,
                    "velocity": 0.2283464566929134,
                    "duration": 0.13514794999997548
                },
                {
                    "name": "C#2",
                    "midi": 37,
                    "time": 313.9700270000052,
                    "velocity": 0.2283464566929134,
                    "duration": 0.13514794999997548
                },
                {
                    "name": "C#2",
                    "midi": 37,
                    "time": 314.11228800000515,
                    "velocity": 0.2047244094488189,
                    "duration": 0.13514794999997548
                },
                {
                    "name": "C#2",
                    "midi": 37,
                    "time": 314.2545490000051,
                    "velocity": 0.2047244094488189,
                    "duration": 0.13514794999997548
                },
                {
                    "name": "C#2",
                    "midi": 37,
                    "time": 314.3968100000051,
                    "velocity": 0.2047244094488189,
                    "duration": 0.13514794999997548
                },
                {
                    "name": "C#2",
                    "midi": 37,
                    "time": 314.53907100000504,
                    "velocity": 0.2047244094488189,
                    "duration": 0.13514794999997548
                },
                {
                    "name": "C#2",
                    "midi": 37,
                    "time": 314.681332000005,
                    "velocity": 0.2047244094488189,
                    "duration": 0.13514794999997548
                },
                {
                    "name": "C#2",
                    "midi": 37,
                    "time": 314.82359300000496,
                    "velocity": 0.2047244094488189,
                    "duration": 0.13514794999997548
                },
                {
                    "name": "C#2",
                    "midi": 37,
                    "time": 314.9658540000049,
                    "velocity": 0.2047244094488189,
                    "duration": 0.13514794999997548
                },
                {
                    "name": "C#2",
                    "midi": 37,
                    "time": 315.1081150000049,
                    "velocity": 0.2047244094488189,
                    "duration": 0.13514794999997548
                },
                {
                    "name": "C#2",
                    "midi": 37,
                    "time": 315.25037600000485,
                    "velocity": 0.2047244094488189,
                    "duration": 0.13514794999997548
                },
                {
                    "name": "C#2",
                    "midi": 37,
                    "time": 315.3926370000048,
                    "velocity": 0.2047244094488189,
                    "duration": 0.13514794999997548
                },
                {
                    "name": "C#2",
                    "midi": 37,
                    "time": 315.5348980000048,
                    "velocity": 0.2047244094488189,
                    "duration": 0.13514794999997548
                },
                {
                    "name": "C#2",
                    "midi": 37,
                    "time": 315.67715900000474,
                    "velocity": 0.2047244094488189,
                    "duration": 0.13514794999997548
                },
                {
                    "name": "C#2",
                    "midi": 37,
                    "time": 315.8194200000047,
                    "velocity": 0.2047244094488189,
                    "duration": 0.13514794999997548
                },
                {
                    "name": "C#2",
                    "midi": 37,
                    "time": 315.96168100000466,
                    "velocity": 0.2047244094488189,
                    "duration": 0.13514794999997548
                },
                {
                    "name": "C#2",
                    "midi": 37,
                    "time": 316.1039420000046,
                    "velocity": 0.2047244094488189,
                    "duration": 0.13514794999997548
                },
                {
                    "name": "C#2",
                    "midi": 37,
                    "time": 316.2462030000046,
                    "velocity": 0.2047244094488189,
                    "duration": 0.13514794999997548
                },
                {
                    "name": "C#2",
                    "midi": 37,
                    "time": 316.38846400000455,
                    "velocity": 0.2047244094488189,
                    "duration": 0.13514794999997548
                },
                {
                    "name": "C#2",
                    "midi": 37,
                    "time": 316.5307250000045,
                    "velocity": 0.2047244094488189,
                    "duration": 0.13514794999997548
                },
                {
                    "name": "D#2",
                    "midi": 39,
                    "time": 316.67298600000447,
                    "velocity": 0.2047244094488189,
                    "duration": 0.28452199999992445
                },
                {
                    "name": "C#2",
                    "midi": 37,
                    "time": 316.67298600000447,
                    "velocity": 0.2047244094488189,
                    "duration": 0.13514794999997548
                },
                {
                    "name": "C#2",
                    "midi": 37,
                    "time": 316.81524700000443,
                    "velocity": 0.2047244094488189,
                    "duration": 0.13514794999997548
                },
                {
                    "name": "G#2",
                    "midi": 44,
                    "time": 316.9575080000044,
                    "velocity": 0.2047244094488189,
                    "duration": 0.28452199999992445
                },
                {
                    "name": "C#2",
                    "midi": 37,
                    "time": 316.9575080000044,
                    "velocity": 0.2047244094488189,
                    "duration": 0.13514794999997548
                },
                {
                    "name": "C#2",
                    "midi": 37,
                    "time": 317.09976900000436,
                    "velocity": 0.2047244094488189,
                    "duration": 0.13514794999997548
                },
                {
                    "name": "A2",
                    "midi": 45,
                    "time": 317.2420300000043,
                    "velocity": 0.2047244094488189,
                    "duration": 0.28452199999992445
                },
                {
                    "name": "C#2",
                    "midi": 37,
                    "time": 317.2420300000043,
                    "velocity": 0.2047244094488189,
                    "duration": 0.13514794999997548
                },
                {
                    "name": "C#2",
                    "midi": 37,
                    "time": 317.3842910000043,
                    "velocity": 0.2047244094488189,
                    "duration": 0.13514794999997548
                },
                {
                    "name": "G#2",
                    "midi": 44,
                    "time": 317.52655200000424,
                    "velocity": 0.2440944881889764,
                    "duration": 0.09484066666664148
                },
                {
                    "name": "C#2",
                    "midi": 37,
                    "time": 317.52655200000424,
                    "velocity": 0.2047244094488189,
                    "duration": 0.8535659999997733
                },
                {
                    "name": "G2",
                    "midi": 43,
                    "time": 317.6213926666709,
                    "velocity": 0.2204724409448819,
                    "duration": 0.09484066666664148
                },
                {
                    "name": "G#2",
                    "midi": 44,
                    "time": 317.7162333333375,
                    "velocity": 0.2204724409448819,
                    "duration": 0.09484066666664148
                },
                {
                    "name": "A2",
                    "midi": 45,
                    "time": 317.81107400000417,
                    "velocity": 0.2440944881889764,
                    "duration": 0.09484066666664148
                },
                {
                    "name": "G#2",
                    "midi": 44,
                    "time": 317.9059146666708,
                    "velocity": 0.2125984251968504,
                    "duration": 0.09484066666664148
                },
                {
                    "name": "G2",
                    "midi": 43,
                    "time": 318.00075533333745,
                    "velocity": 0.2125984251968504,
                    "duration": 0.09484066666664148
                },
                {
                    "name": "G#2",
                    "midi": 44,
                    "time": 318.0955960000041,
                    "velocity": 0.25196850393700787,
                    "duration": 0.09484066666664148
                },
                {
                    "name": "F2",
                    "midi": 41,
                    "time": 318.19043666667073,
                    "velocity": 0.2204724409448819,
                    "duration": 0.09484066666664148
                },
                {
                    "name": "E2",
                    "midi": 40,
                    "time": 318.2852773333374,
                    "velocity": 0.2204724409448819,
                    "duration": 0.09484066666664148
                },
                {
                    "name": "F2",
                    "midi": 41,
                    "time": 318.380118000004,
                    "velocity": 0.25196850393700787,
                    "duration": 0.09484066666664148
                },
                {
                    "name": "C#2",
                    "midi": 37,
                    "time": 318.47495866667066,
                    "velocity": 0.2125984251968504,
                    "duration": 0.09484066666664148
                },
                {
                    "name": "D2",
                    "midi": 38,
                    "time": 318.5697993333373,
                    "velocity": 0.2204724409448819,
                    "duration": 0.09484066666664148
                },
                {
                    "name": "C#2",
                    "midi": 37,
                    "time": 318.66464000000394,
                    "velocity": 0.2047244094488189,
                    "duration": 0.13514794999997548
                },
                {
                    "name": "C#2",
                    "midi": 37,
                    "time": 318.8069010000039,
                    "velocity": 0.2047244094488189,
                    "duration": 0.13514794999997548
                },
                {
                    "name": "C#2",
                    "midi": 37,
                    "time": 318.94916200000387,
                    "velocity": 0.2047244094488189,
                    "duration": 0.13514794999997548
                },
                {
                    "name": "C#2",
                    "midi": 37,
                    "time": 319.09142300000383,
                    "velocity": 0.2047244094488189,
                    "duration": 0.13514794999997548
                },
                {
                    "name": "C#2",
                    "midi": 37,
                    "time": 319.2336840000038,
                    "velocity": 0.2047244094488189,
                    "duration": 0.13514794999997548
                },
                {
                    "name": "C#2",
                    "midi": 37,
                    "time": 319.37594500000375,
                    "velocity": 0.2047244094488189,
                    "duration": 0.13514794999997548
                },
                {
                    "name": "C#2",
                    "midi": 37,
                    "time": 319.5182060000037,
                    "velocity": 0.2047244094488189,
                    "duration": 0.13514794999997548
                },
                {
                    "name": "C#2",
                    "midi": 37,
                    "time": 319.6604670000037,
                    "velocity": 0.2047244094488189,
                    "duration": 0.13514794999997548
                },
                {
                    "name": "C2",
                    "midi": 36,
                    "time": 319.80272800000364,
                    "velocity": 0.2047244094488189,
                    "duration": 0.13514794999997548
                },
                {
                    "name": "C2",
                    "midi": 36,
                    "time": 319.9449890000036,
                    "velocity": 0.2047244094488189,
                    "duration": 0.13514794999997548
                },
                {
                    "name": "C2",
                    "midi": 36,
                    "time": 320.08725000000356,
                    "velocity": 0.2047244094488189,
                    "duration": 0.13514794999997548
                },
                {
                    "name": "C2",
                    "midi": 36,
                    "time": 320.2295110000035,
                    "velocity": 0.2047244094488189,
                    "duration": 0.13514794999997548
                },
                {
                    "name": "C2",
                    "midi": 36,
                    "time": 320.3717720000035,
                    "velocity": 0.2047244094488189,
                    "duration": 0.13514794999997548
                },
                {
                    "name": "C2",
                    "midi": 36,
                    "time": 320.51403300000345,
                    "velocity": 0.2047244094488189,
                    "duration": 0.13514794999997548
                },
                {
                    "name": "C2",
                    "midi": 36,
                    "time": 320.6562940000034,
                    "velocity": 0.2047244094488189,
                    "duration": 0.13514794999997548
                },
                {
                    "name": "C2",
                    "midi": 36,
                    "time": 320.7985550000034,
                    "velocity": 0.2047244094488189,
                    "duration": 0.13514794999997548
                },
                {
                    "name": "B1",
                    "midi": 35,
                    "time": 320.94081600000334,
                    "velocity": 0.2047244094488189,
                    "duration": 0.13514794999997548
                },
                {
                    "name": "B1",
                    "midi": 35,
                    "time": 321.0830770000033,
                    "velocity": 0.2047244094488189,
                    "duration": 0.13514794999997548
                },
                {
                    "name": "F#2",
                    "midi": 42,
                    "time": 321.22533800000326,
                    "velocity": 0.2047244094488189,
                    "duration": 0.28452199999992445
                },
                {
                    "name": "B1",
                    "midi": 35,
                    "time": 321.22533800000326,
                    "velocity": 0.2047244094488189,
                    "duration": 0.13514794999997548
                },
                {
                    "name": "B1",
                    "midi": 35,
                    "time": 321.3675990000032,
                    "velocity": 0.2047244094488189,
                    "duration": 0.13514794999997548
                },
                {
                    "name": "B2",
                    "midi": 47,
                    "time": 321.5098600000032,
                    "velocity": 0.2047244094488189,
                    "duration": 0.28452199999992445
                },
                {
                    "name": "B1",
                    "midi": 35,
                    "time": 321.5098600000032,
                    "velocity": 0.2047244094488189,
                    "duration": 0.13514794999997548
                },
                {
                    "name": "B1",
                    "midi": 35,
                    "time": 321.65212100000315,
                    "velocity": 0.2047244094488189,
                    "duration": 0.13514794999997548
                },
                {
                    "name": "C3",
                    "midi": 48,
                    "time": 321.7943820000031,
                    "velocity": 0.2047244094488189,
                    "duration": 0.28452199999992445
                },
                {
                    "name": "B1",
                    "midi": 35,
                    "time": 321.7943820000031,
                    "velocity": 0.2047244094488189,
                    "duration": 0.13514794999997548
                },
                {
                    "name": "B1",
                    "midi": 35,
                    "time": 321.9366430000031,
                    "velocity": 0.2047244094488189,
                    "duration": 0.13514794999997548
                },
                {
                    "name": "B2",
                    "midi": 47,
                    "time": 322.07890400000304,
                    "velocity": 0.2440944881889764,
                    "duration": 0.09484066666664148
                },
                {
                    "name": "E2",
                    "midi": 40,
                    "time": 322.07890400000304,
                    "velocity": 0.2047244094488189,
                    "duration": 0.8535659999997733
                },
                {
                    "name": "A#2",
                    "midi": 46,
                    "time": 322.1737446666697,
                    "velocity": 0.2204724409448819,
                    "duration": 0.09484066666664148
                },
                {
                    "name": "B2",
                    "midi": 47,
                    "time": 322.2685853333363,
                    "velocity": 0.2204724409448819,
                    "duration": 0.09484066666664148
                },
                {
                    "name": "C3",
                    "midi": 48,
                    "time": 322.36342600000296,
                    "velocity": 0.2440944881889764,
                    "duration": 0.09484066666664148
                },
                {
                    "name": "B2",
                    "midi": 47,
                    "time": 322.4582666666696,
                    "velocity": 0.2125984251968504,
                    "duration": 0.09484066666664148
                },
                {
                    "name": "A#2",
                    "midi": 46,
                    "time": 322.55310733333624,
                    "velocity": 0.2125984251968504,
                    "duration": 0.09484066666664148
                },
                {
                    "name": "B2",
                    "midi": 47,
                    "time": 322.6479480000029,
                    "velocity": 0.25196850393700787,
                    "duration": 0.09484066666664148
                },
                {
                    "name": "G#2",
                    "midi": 44,
                    "time": 322.7427886666695,
                    "velocity": 0.2204724409448819,
                    "duration": 0.09484066666664148
                },
                {
                    "name": "G2",
                    "midi": 43,
                    "time": 322.83762933333617,
                    "velocity": 0.2204724409448819,
                    "duration": 0.09484066666664148
                },
                {
                    "name": "G#2",
                    "midi": 44,
                    "time": 322.9324700000028,
                    "velocity": 0.25196850393700787,
                    "duration": 0.09484066666664148
                },
                {
                    "name": "E2",
                    "midi": 40,
                    "time": 323.02731066666945,
                    "velocity": 0.2125984251968504,
                    "duration": 0.09484066666664148
                },
                {
                    "name": "F2",
                    "midi": 41,
                    "time": 323.1221513333361,
                    "velocity": 0.2204724409448819,
                    "duration": 0.09484066666664148
                },
                {
                    "name": "E2",
                    "midi": 40,
                    "time": 323.21699200000273,
                    "velocity": 0.2992125984251969,
                    "duration": 0.5690440000000194
                },
                {
                    "name": "G#2",
                    "midi": 44,
                    "time": 323.78603600000275,
                    "velocity": 0.29133858267716534,
                    "duration": 0.14226100000001907
                },
                {
                    "name": "B2",
                    "midi": 47,
                    "time": 324.0705580000028,
                    "velocity": 0.29133858267716534,
                    "duration": 0.14226100000001907
                },
                {
                    "name": "E2",
                    "midi": 40,
                    "time": 324.35508000000283,
                    "velocity": 0.2992125984251969,
                    "duration": 0.5690440000000194
                },
                {
                    "name": "A2",
                    "midi": 45,
                    "time": 324.92412400000285,
                    "velocity": 0.29133858267716534,
                    "duration": 0.14226100000001907
                },
                {
                    "name": "C3",
                    "midi": 48,
                    "time": 325.2086460000029,
                    "velocity": 0.29133858267716534,
                    "duration": 0.14226100000001907
                },
                {
                    "name": "D3",
                    "midi": 50,
                    "time": 325.4931680000029,
                    "velocity": 0.3228346456692913,
                    "duration": 0.14226100000001907
                },
                {
                    "name": "C3",
                    "midi": 48,
                    "time": 325.63542900000294,
                    "velocity": 0.33070866141732286,
                    "duration": 0.13514794999997548
                },
                {
                    "name": "C3",
                    "midi": 48,
                    "time": 325.7776900000029,
                    "velocity": 0.3464566929133858,
                    "duration": 0.14226100000001907
                },
                {
                    "name": "B2",
                    "midi": 47,
                    "time": 325.9199510000029,
                    "velocity": 0.36220472440944884,
                    "duration": 0.13514794999997548
                },
                {
                    "name": "B2",
                    "midi": 47,
                    "time": 326.0622120000029,
                    "velocity": 0.3700787401574803,
                    "duration": 0.14226100000001907
                },
                {
                    "name": "A2",
                    "midi": 45,
                    "time": 326.2044730000029,
                    "velocity": 0.3858267716535433,
                    "duration": 0.13514794999997548
                },
                {
                    "name": "A2",
                    "midi": 45,
                    "time": 326.34673400000287,
                    "velocity": 0.4015748031496063,
                    "duration": 0.14226100000001907
                },
                {
                    "name": "G2",
                    "midi": 43,
                    "time": 326.4889950000029,
                    "velocity": 0.41732283464566927,
                    "duration": 0.13514794999997548
                },
                {
                    "name": "G2",
                    "midi": 43,
                    "time": 326.63125600000285,
                    "velocity": 0.41732283464566927,
                    "duration": 0.14226100000001907
                },
                {
                    "name": "F2",
                    "midi": 41,
                    "time": 326.77351700000287,
                    "velocity": 0.4094488188976378,
                    "duration": 0.13514794999997548
                },
                {
                    "name": "F2",
                    "midi": 41,
                    "time": 326.91577800000283,
                    "velocity": 0.3937007874015748,
                    "duration": 0.14226100000001907
                },
                {
                    "name": "E2",
                    "midi": 40,
                    "time": 327.05803900000285,
                    "velocity": 0.3779527559055118,
                    "duration": 0.13514794999997548
                },
                {
                    "name": "E2",
                    "midi": 40,
                    "time": 327.2003000000028,
                    "velocity": 0.3700787401574803,
                    "duration": 0.14226100000001907
                },
                {
                    "name": "D2",
                    "midi": 38,
                    "time": 327.34256100000283,
                    "velocity": 0.3543307086614173,
                    "duration": 0.13514794999997548
                },
                {
                    "name": "D2",
                    "midi": 38,
                    "time": 327.4848220000028,
                    "velocity": 0.3464566929133858,
                    "duration": 0.14226100000001907
                },
                {
                    "name": "C2",
                    "midi": 36,
                    "time": 327.6270830000028,
                    "velocity": 0.33070866141732286,
                    "duration": 0.13514794999997548
                },
                {
                    "name": "C2",
                    "midi": 36,
                    "time": 327.7693440000028,
                    "velocity": 0.3464566929133858,
                    "duration": 0.5690440000000194
                },
                {
                    "name": "C3",
                    "midi": 48,
                    "time": 327.7693440000028,
                    "velocity": 0.3464566929133858,
                    "duration": 0.5690440000000194
                },
                {
                    "name": "E3",
                    "midi": 52,
                    "time": 328.3383880000028,
                    "velocity": 0.3464566929133858,
                    "duration": 0.14226100000001907
                },
                {
                    "name": "G3",
                    "midi": 55,
                    "time": 328.62291000000283,
                    "velocity": 0.3543307086614173,
                    "duration": 0.14226100000001907
                },
                {
                    "name": "C3",
                    "midi": 48,
                    "time": 328.90743200000287,
                    "velocity": 0.3858267716535433,
                    "duration": 0.5690440000000194
                },
                {
                    "name": "F3",
                    "midi": 53,
                    "time": 329.4764760000029,
                    "velocity": 0.3937007874015748,
                    "duration": 0.14226100000001907
                },
                {
                    "name": "G#3",
                    "midi": 56,
                    "time": 329.7609980000029,
                    "velocity": 0.3937007874015748,
                    "duration": 0.14226100000001907
                },
                {
                    "name": "A#3",
                    "midi": 58,
                    "time": 330.04552000000297,
                    "velocity": 0.4645669291338583,
                    "duration": 0.14226100000001907
                },
                {
                    "name": "G#3",
                    "midi": 56,
                    "time": 330.187781000003,
                    "velocity": 0.47244094488188976,
                    "duration": 0.13514794999997548
                },
                {
                    "name": "G#3",
                    "midi": 56,
                    "time": 330.33004200000295,
                    "velocity": 0.4881889763779528,
                    "duration": 0.14226100000001907
                },
                {
                    "name": "G3",
                    "midi": 55,
                    "time": 330.47230300000297,
                    "velocity": 0.5039370078740157,
                    "duration": 0.13514794999997548
                },
                {
                    "name": "G3",
                    "midi": 55,
                    "time": 330.61456400000293,
                    "velocity": 0.5354330708661418,
                    "duration": 0.14226100000001907
                },
                {
                    "name": "F3",
                    "midi": 53,
                    "time": 330.75682500000295,
                    "velocity": 0.5511811023622047,
                    "duration": 0.13514794999997548
                },
                {
                    "name": "F3",
                    "midi": 53,
                    "time": 330.8990860000029,
                    "velocity": 0.5669291338582677,
                    "duration": 0.14226100000001907
                },
                {
                    "name": "D#3",
                    "midi": 51,
                    "time": 331.04134700000293,
                    "velocity": 0.5905511811023622,
                    "duration": 0.13514794999997548
                },
                {
                    "name": "D#3",
                    "midi": 51,
                    "time": 331.1836080000029,
                    "velocity": 0.5905511811023622,
                    "duration": 0.14226100000001907
                },
                {
                    "name": "C#3",
                    "midi": 49,
                    "time": 331.3258690000029,
                    "velocity": 0.5748031496062992,
                    "duration": 0.13514794999997548
                },
                {
                    "name": "C#3",
                    "midi": 49,
                    "time": 331.4681300000029,
                    "velocity": 0.5590551181102362,
                    "duration": 0.14226100000001907
                },
                {
                    "name": "B2",
                    "midi": 47,
                    "time": 331.6103910000029,
                    "velocity": 0.5433070866141733,
                    "duration": 0.13514794999997548
                },
                {
                    "name": "B2",
                    "midi": 47,
                    "time": 331.75265200000285,
                    "velocity": 0.5354330708661418,
                    "duration": 0.14226100000001907
                },
                {
                    "name": "A#2",
                    "midi": 46,
                    "time": 331.8949130000029,
                    "velocity": 0.49606299212598426,
                    "duration": 0.13514794999997548
                },
                {
                    "name": "G#2",
                    "midi": 44,
                    "time": 332.03717400000284,
                    "velocity": 0.4881889763779528,
                    "duration": 0.14226100000001907
                },
                {
                    "name": "B3",
                    "midi": 59,
                    "time": 332.17943500000285,
                    "velocity": 0.47244094488188976,
                    "duration": 0.13514794999997548
                },
                {
                    "name": "C#4",
                    "midi": 61,
                    "time": 332.3216960000028,
                    "velocity": 0.5669291338582677,
                    "duration": 0.14226100000001907
                },
                {
                    "name": "B3",
                    "midi": 59,
                    "time": 332.46395700000284,
                    "velocity": 0.49606299212598426,
                    "duration": 0.13514794999997548
                },
                {
                    "name": "B3",
                    "midi": 59,
                    "time": 332.6062180000028,
                    "velocity": 0.5511811023622047,
                    "duration": 0.14226100000001907
                },
                {
                    "name": "A#3",
                    "midi": 58,
                    "time": 332.7484790000028,
                    "velocity": 0.49606299212598426,
                    "duration": 0.13514794999997548
                },
                {
                    "name": "A#3",
                    "midi": 58,
                    "time": 332.8907400000028,
                    "velocity": 0.5511811023622047,
                    "duration": 0.14226100000001907
                },
                {
                    "name": "G#3",
                    "midi": 56,
                    "time": 333.0330010000028,
                    "velocity": 0.5039370078740157,
                    "duration": 0.13514794999997548
                },
                {
                    "name": "G#3",
                    "midi": 56,
                    "time": 333.17526200000276,
                    "velocity": 0.5511811023622047,
                    "duration": 0.14226100000001907
                },
                {
                    "name": "F#3",
                    "midi": 54,
                    "time": 333.3175230000028,
                    "velocity": 0.5039370078740157,
                    "duration": 0.13514794999997548
                },
                {
                    "name": "F#3",
                    "midi": 54,
                    "time": 333.45978400000274,
                    "velocity": 0.5669291338582677,
                    "duration": 0.14226100000001907
                },
                {
                    "name": "E3",
                    "midi": 52,
                    "time": 333.60204500000276,
                    "velocity": 0.5039370078740157,
                    "duration": 0.13514794999997548
                },
                {
                    "name": "E3",
                    "midi": 52,
                    "time": 333.7443060000027,
                    "velocity": 0.5748031496062992,
                    "duration": 0.14226100000001907
                },
                {
                    "name": "D3",
                    "midi": 50,
                    "time": 333.88656700000274,
                    "velocity": 0.5275590551181102,
                    "duration": 0.13514794999997548
                },
                {
                    "name": "D3",
                    "midi": 50,
                    "time": 334.0288280000027,
                    "velocity": 0.5748031496062992,
                    "duration": 0.14226100000001907
                },
                {
                    "name": "C#3",
                    "midi": 49,
                    "time": 334.1710890000027,
                    "velocity": 0.5275590551181102,
                    "duration": 0.14226100000001907
                },
                {
                    "name": "B2",
                    "midi": 47,
                    "time": 334.31335000000274,
                    "velocity": 0.5669291338582677,
                    "duration": 0.14226100000001907
                },
                {
                    "name": "D4",
                    "midi": 62,
                    "time": 334.45561100000276,
                    "velocity": 0.5196850393700787,
                    "duration": 0.14226100000001907
                },
                {
                    "name": "D3",
                    "midi": 50,
                    "time": 334.45561100000276,
                    "velocity": 0.4330708661417323,
                    "duration": 0.14226100000001907
                },
                {
                    "name": "E4",
                    "midi": 64,
                    "time": 334.5978720000028,
                    "velocity": 0.5669291338582677,
                    "duration": 0.14226100000001907
                },
                {
                    "name": "E3",
                    "midi": 52,
                    "time": 334.5978720000028,
                    "velocity": 0.5669291338582677,
                    "duration": 0.14226100000001907
                },
                {
                    "name": "D4",
                    "midi": 62,
                    "time": 334.7401330000028,
                    "velocity": 0.49606299212598426,
                    "duration": 0.13514794999997548
                },
                {
                    "name": "D3",
                    "midi": 50,
                    "time": 334.7401330000028,
                    "velocity": 0.41732283464566927,
                    "duration": 0.13514794999997548
                },
                {
                    "name": "D4",
                    "midi": 62,
                    "time": 334.88239400000276,
                    "velocity": 0.5669291338582677,
                    "duration": 0.14226100000001907
                },
                {
                    "name": "D3",
                    "midi": 50,
                    "time": 334.88239400000276,
                    "velocity": 0.48031496062992124,
                    "duration": 0.14226100000001907
                },
                {
                    "name": "C#4",
                    "midi": 61,
                    "time": 335.0246550000028,
                    "velocity": 0.5039370078740157,
                    "duration": 0.13514794999997548
                },
                {
                    "name": "C#3",
                    "midi": 49,
                    "time": 335.0246550000028,
                    "velocity": 0.41732283464566927,
                    "duration": 0.13514794999997548
                },
                {
                    "name": "C#4",
                    "midi": 61,
                    "time": 335.16691600000274,
                    "velocity": 0.5748031496062992,
                    "duration": 0.14226100000001907
                },
                {
                    "name": "C#3",
                    "midi": 49,
                    "time": 335.16691600000274,
                    "velocity": 0.48031496062992124,
                    "duration": 0.14226100000001907
                },
                {
                    "name": "B3",
                    "midi": 59,
                    "time": 335.30917700000276,
                    "velocity": 0.5354330708661418,
                    "duration": 0.13514794999997548
                },
                {
                    "name": "B2",
                    "midi": 47,
                    "time": 335.30917700000276,
                    "velocity": 0.44881889763779526,
                    "duration": 0.13514794999997548
                },
                {
                    "name": "B3",
                    "midi": 59,
                    "time": 335.4514380000027,
                    "velocity": 0.5905511811023622,
                    "duration": 0.14226100000001907
                },
                {
                    "name": "B2",
                    "midi": 47,
                    "time": 335.4514380000027,
                    "velocity": 0.49606299212598426,
                    "duration": 0.14226100000001907
                },
                {
                    "name": "A3",
                    "midi": 57,
                    "time": 335.59369900000274,
                    "velocity": 0.5433070866141733,
                    "duration": 0.13514794999997548
                },
                {
                    "name": "A2",
                    "midi": 45,
                    "time": 335.59369900000274,
                    "velocity": 0.4566929133858268,
                    "duration": 0.13514794999997548
                },
                {
                    "name": "A3",
                    "midi": 57,
                    "time": 335.7359600000027,
                    "velocity": 0.6220472440944882,
                    "duration": 0.14226100000001907
                },
                {
                    "name": "A2",
                    "midi": 45,
                    "time": 335.7359600000027,
                    "velocity": 0.5275590551181102,
                    "duration": 0.14226100000001907
                },
                {
                    "name": "G3",
                    "midi": 55,
                    "time": 335.8782210000027,
                    "velocity": 0.5433070866141733,
                    "duration": 0.13514794999997548
                },
                {
                    "name": "G2",
                    "midi": 43,
                    "time": 335.8782210000027,
                    "velocity": 0.4566929133858268,
                    "duration": 0.13514794999997548
                },
                {
                    "name": "G3",
                    "midi": 55,
                    "time": 336.0204820000027,
                    "velocity": 0.6220472440944882,
                    "duration": 0.14226100000001907
                },
                {
                    "name": "G2",
                    "midi": 43,
                    "time": 336.0204820000027,
                    "velocity": 0.5275590551181102,
                    "duration": 0.14226100000001907
                },
                {
                    "name": "F3",
                    "midi": 53,
                    "time": 336.1627430000027,
                    "velocity": 0.5511811023622047,
                    "duration": 0.13514794999997548
                },
                {
                    "name": "F2",
                    "midi": 41,
                    "time": 336.1627430000027,
                    "velocity": 0.47244094488188976,
                    "duration": 0.13514794999997548
                },
                {
                    "name": "F3",
                    "midi": 53,
                    "time": 336.30500400000267,
                    "velocity": 0.6299212598425197,
                    "duration": 0.14226100000001907
                },
                {
                    "name": "F2",
                    "midi": 41,
                    "time": 336.30500400000267,
                    "velocity": 0.5275590551181102,
                    "duration": 0.14226100000001907
                },
                {
                    "name": "E3",
                    "midi": 52,
                    "time": 336.4472650000027,
                    "velocity": 0.5826771653543307,
                    "duration": 0.13514794999997548
                },
                {
                    "name": "E2",
                    "midi": 40,
                    "time": 336.4472650000027,
                    "velocity": 0.4881889763779528,
                    "duration": 0.13514794999997548
                },
                {
                    "name": "E3",
                    "midi": 52,
                    "time": 336.58952600000265,
                    "velocity": 0.6456692913385826,
                    "duration": 0.14226100000001907
                },
                {
                    "name": "E2",
                    "midi": 40,
                    "time": 336.58952600000265,
                    "velocity": 0.5433070866141733,
                    "duration": 0.14226100000001907
                },
                {
                    "name": "D3",
                    "midi": 50,
                    "time": 336.73178700000267,
                    "velocity": 0.5905511811023622,
                    "duration": 0.13514794999997548
                },
                {
                    "name": "D2",
                    "midi": 38,
                    "time": 336.73178700000267,
                    "velocity": 0.49606299212598426,
                    "duration": 0.13514794999997548
                },
                {
                    "name": "D2",
                    "midi": 38,
                    "time": 336.87404800000263,
                    "velocity": 0.6771653543307087,
                    "duration": 0.28452200000003813
                },
                {
                    "name": "D3",
                    "midi": 50,
                    "time": 337.01630900000265,
                    "velocity": 0.5905511811023622,
                    "duration": 0.14226100000001907
                },
                {
                    "name": "A2",
                    "midi": 45,
                    "time": 337.01630900000265,
                    "velocity": 0.49606299212598426,
                    "duration": 0.14226100000001907
                },
                {
                    "name": "D2",
                    "midi": 38,
                    "time": 337.15857000000267,
                    "velocity": 0.6614173228346457,
                    "duration": 0.28452200000003813
                },
                {
                    "name": "E3",
                    "midi": 52,
                    "time": 337.3008310000027,
                    "velocity": 0.5905511811023622,
                    "duration": 0.14226100000001907
                },
                {
                    "name": "A2",
                    "midi": 45,
                    "time": 337.3008310000027,
                    "velocity": 0.49606299212598426,
                    "duration": 0.14226100000001907
                },
                {
                    "name": "D2",
                    "midi": 38,
                    "time": 337.4430920000027,
                    "velocity": 0.6614173228346457,
                    "duration": 0.28452200000003813
                },
                {
                    "name": "D3",
                    "midi": 50,
                    "time": 337.5853530000027,
                    "velocity": 0.6062992125984252,
                    "duration": 0.14226100000001907
                },
                {
                    "name": "A2",
                    "midi": 45,
                    "time": 337.5853530000027,
                    "velocity": 0.5039370078740157,
                    "duration": 0.14226100000001907
                },
                {
                    "name": "D2",
                    "midi": 38,
                    "time": 337.72761400000275,
                    "velocity": 0.6614173228346457,
                    "duration": 0.28452200000003813
                },
                {
                    "name": "E3",
                    "midi": 52,
                    "time": 337.86987500000276,
                    "velocity": 0.6062992125984252,
                    "duration": 0.14226100000001907
                },
                {
                    "name": "A2",
                    "midi": 45,
                    "time": 337.86987500000276,
                    "velocity": 0.5039370078740157,
                    "duration": 0.14226100000001907
                },
                {
                    "name": "D2",
                    "midi": 38,
                    "time": 338.0121360000028,
                    "velocity": 0.6771653543307087,
                    "duration": 0.28452200000003813
                },
                {
                    "name": "D3",
                    "midi": 50,
                    "time": 338.1543970000028,
                    "velocity": 0.6062992125984252,
                    "duration": 0.14226100000001907
                },
                {
                    "name": "A2",
                    "midi": 45,
                    "time": 338.1543970000028,
                    "velocity": 0.5039370078740157,
                    "duration": 0.14226100000001907
                },
                {
                    "name": "D2",
                    "midi": 38,
                    "time": 338.2966580000028,
                    "velocity": 0.6692913385826772,
                    "duration": 0.28452200000003813
                },
                {
                    "name": "E3",
                    "midi": 52,
                    "time": 338.43891900000284,
                    "velocity": 0.6141732283464567,
                    "duration": 0.14226100000001907
                },
                {
                    "name": "A2",
                    "midi": 45,
                    "time": 338.43891900000284,
                    "velocity": 0.5196850393700787,
                    "duration": 0.14226100000001907
                },
                {
                    "name": "D2",
                    "midi": 38,
                    "time": 338.58118000000286,
                    "velocity": 0.6929133858267716,
                    "duration": 0.28452200000003813
                },
                {
                    "name": "D3",
                    "midi": 50,
                    "time": 338.7234410000029,
                    "velocity": 0.6377952755905512,
                    "duration": 0.14226100000001907
                },
                {
                    "name": "A2",
                    "midi": 45,
                    "time": 338.7234410000029,
                    "velocity": 0.5354330708661418,
                    "duration": 0.14226100000001907
                },
                {
                    "name": "D2",
                    "midi": 38,
                    "time": 338.8657020000029,
                    "velocity": 0.7007874015748031,
                    "duration": 0.28452200000003813
                },
                {
                    "name": "E3",
                    "midi": 52,
                    "time": 339.0079630000029,
                    "velocity": 0.6456692913385826,
                    "duration": 0.14226100000001907
                },
                {
                    "name": "A2",
                    "midi": 45,
                    "time": 339.0079630000029,
                    "velocity": 0.5433070866141733,
                    "duration": 0.14226100000001907
                },
                {
                    "name": "D2",
                    "midi": 38,
                    "time": 339.15022400000294,
                    "velocity": 0.6062992125984252,
                    "duration": 0.14226100000001907
                },
                {
                    "name": "A2",
                    "midi": 45,
                    "time": 339.15022400000294,
                    "velocity": 0.6062992125984252,
                    "duration": 0.14226100000001907
                },
                {
                    "name": "D3",
                    "midi": 50,
                    "time": 339.15022400000294,
                    "velocity": 0.7165354330708661,
                    "duration": 0.14226100000001907
                },
                {
                    "name": "A4",
                    "midi": 69,
                    "time": 339.29248500000296,
                    "velocity": 0.2283464566929134,
                    "duration": 0.13514794999997548
                },
                {
                    "name": "F4",
                    "midi": 65,
                    "time": 339.29248500000296,
                    "velocity": 0.1889763779527559,
                    "duration": 0.13514794999997548
                },
                {
                    "name": "D4",
                    "midi": 62,
                    "time": 339.29248500000296,
                    "velocity": 0.15748031496062992,
                    "duration": 0.13514794999997548
                },
                {
                    "name": "A4",
                    "midi": 69,
                    "time": 339.4347460000029,
                    "velocity": 0.23622047244094488,
                    "duration": 0.13514794999997548
                },
                {
                    "name": "F4",
                    "midi": 65,
                    "time": 339.4347460000029,
                    "velocity": 0.1968503937007874,
                    "duration": 0.13514794999997548
                },
                {
                    "name": "D4",
                    "midi": 62,
                    "time": 339.4347460000029,
                    "velocity": 0.16535433070866143,
                    "duration": 0.13514794999997548
                },
                {
                    "name": "A4",
                    "midi": 69,
                    "time": 339.5770070000029,
                    "velocity": 0.23622047244094488,
                    "duration": 0.13514794999997548
                },
                {
                    "name": "F4",
                    "midi": 65,
                    "time": 339.5770070000029,
                    "velocity": 0.1968503937007874,
                    "duration": 0.13514794999997548
                },
                {
                    "name": "D4",
                    "midi": 62,
                    "time": 339.5770070000029,
                    "velocity": 0.16535433070866143,
                    "duration": 0.13514794999997548
                },
                {
                    "name": "A4",
                    "midi": 69,
                    "time": 339.71926800000284,
                    "velocity": 0.2283464566929134,
                    "duration": 0.13514794999997548
                },
                {
                    "name": "F4",
                    "midi": 65,
                    "time": 339.71926800000284,
                    "velocity": 0.1889763779527559,
                    "duration": 0.13514794999997548
                },
                {
                    "name": "D4",
                    "midi": 62,
                    "time": 339.71926800000284,
                    "velocity": 0.15748031496062992,
                    "duration": 0.13514794999997548
                },
                {
                    "name": "A4",
                    "midi": 69,
                    "time": 339.8615290000028,
                    "velocity": 0.2283464566929134,
                    "duration": 0.13514794999997548
                },
                {
                    "name": "F4",
                    "midi": 65,
                    "time": 339.8615290000028,
                    "velocity": 0.1889763779527559,
                    "duration": 0.13514794999997548
                },
                {
                    "name": "D4",
                    "midi": 62,
                    "time": 339.8615290000028,
                    "velocity": 0.15748031496062992,
                    "duration": 0.13514794999997548
                },
                {
                    "name": "A4",
                    "midi": 69,
                    "time": 340.00379000000277,
                    "velocity": 0.2125984251968504,
                    "duration": 0.13514794999997548
                },
                {
                    "name": "F4",
                    "midi": 65,
                    "time": 340.00379000000277,
                    "velocity": 0.18110236220472442,
                    "duration": 0.13514794999997548
                },
                {
                    "name": "D4",
                    "midi": 62,
                    "time": 340.00379000000277,
                    "velocity": 0.14960629921259844,
                    "duration": 0.13514794999997548
                },
                {
                    "name": "A4",
                    "midi": 69,
                    "time": 340.1460510000027,
                    "velocity": 0.2125984251968504,
                    "duration": 0.13514794999997548
                },
                {
                    "name": "F4",
                    "midi": 65,
                    "time": 340.1460510000027,
                    "velocity": 0.18110236220472442,
                    "duration": 0.13514794999997548
                },
                {
                    "name": "D4",
                    "midi": 62,
                    "time": 340.1460510000027,
                    "velocity": 0.14960629921259844,
                    "duration": 0.13514794999997548
                },
                {
                    "name": "A4",
                    "midi": 69,
                    "time": 340.2883120000027,
                    "velocity": 0.2204724409448819,
                    "duration": 0.13514794999997548
                },
                {
                    "name": "F4",
                    "midi": 65,
                    "time": 340.2883120000027,
                    "velocity": 0.1889763779527559,
                    "duration": 0.13514794999997548
                },
                {
                    "name": "D4",
                    "midi": 62,
                    "time": 340.2883120000027,
                    "velocity": 0.15748031496062992,
                    "duration": 0.13514794999997548
                },
                {
                    "name": "A4",
                    "midi": 69,
                    "time": 340.43057300000265,
                    "velocity": 0.1968503937007874,
                    "duration": 0.13514794999997548
                },
                {
                    "name": "F4",
                    "midi": 65,
                    "time": 340.43057300000265,
                    "velocity": 0.16535433070866143,
                    "duration": 0.13514794999997548
                },
                {
                    "name": "D4",
                    "midi": 62,
                    "time": 340.43057300000265,
                    "velocity": 0.13385826771653545,
                    "duration": 0.13514794999997548
                },
                {
                    "name": "A4",
                    "midi": 69,
                    "time": 340.5728340000026,
                    "velocity": 0.1968503937007874,
                    "duration": 0.13514794999997548
                },
                {
                    "name": "F4",
                    "midi": 65,
                    "time": 340.5728340000026,
                    "velocity": 0.16535433070866143,
                    "duration": 0.13514794999997548
                },
                {
                    "name": "D4",
                    "midi": 62,
                    "time": 340.5728340000026,
                    "velocity": 0.13385826771653545,
                    "duration": 0.13514794999997548
                },
                {
                    "name": "A4",
                    "midi": 69,
                    "time": 340.7150950000026,
                    "velocity": 0.1968503937007874,
                    "duration": 0.13514794999997548
                },
                {
                    "name": "F4",
                    "midi": 65,
                    "time": 340.7150950000026,
                    "velocity": 0.16535433070866143,
                    "duration": 0.13514794999997548
                },
                {
                    "name": "D4",
                    "midi": 62,
                    "time": 340.7150950000026,
                    "velocity": 0.13385826771653545,
                    "duration": 0.13514794999997548
                },
                {
                    "name": "A4",
                    "midi": 69,
                    "time": 340.85735600000254,
                    "velocity": 0.1968503937007874,
                    "duration": 0.13514794999997548
                },
                {
                    "name": "F4",
                    "midi": 65,
                    "time": 340.85735600000254,
                    "velocity": 0.16535433070866143,
                    "duration": 0.13514794999997548
                },
                {
                    "name": "D4",
                    "midi": 62,
                    "time": 340.85735600000254,
                    "velocity": 0.13385826771653545,
                    "duration": 0.13514794999997548
                },
                {
                    "name": "A4",
                    "midi": 69,
                    "time": 340.9996170000025,
                    "velocity": 0.1968503937007874,
                    "duration": 0.13514794999997548
                },
                {
                    "name": "F4",
                    "midi": 65,
                    "time": 340.9996170000025,
                    "velocity": 0.16535433070866143,
                    "duration": 0.13514794999997548
                },
                {
                    "name": "D4",
                    "midi": 62,
                    "time": 340.9996170000025,
                    "velocity": 0.13385826771653545,
                    "duration": 0.13514794999997548
                },
                {
                    "name": "A4",
                    "midi": 69,
                    "time": 341.14187800000246,
                    "velocity": 0.1968503937007874,
                    "duration": 0.13514794999997548
                },
                {
                    "name": "F4",
                    "midi": 65,
                    "time": 341.14187800000246,
                    "velocity": 0.16535433070866143,
                    "duration": 0.13514794999997548
                },
                {
                    "name": "D4",
                    "midi": 62,
                    "time": 341.14187800000246,
                    "velocity": 0.13385826771653545,
                    "duration": 0.13514794999997548
                },
                {
                    "name": "A4",
                    "midi": 69,
                    "time": 341.2841390000024,
                    "velocity": 0.1968503937007874,
                    "duration": 0.13277693333333218
                },
                {
                    "name": "F4",
                    "midi": 65,
                    "time": 341.2841390000024,
                    "velocity": 0.16535433070866143,
                    "duration": 0.13514794999997548
                },
                {
                    "name": "D4",
                    "midi": 62,
                    "time": 341.2841390000024,
                    "velocity": 0.13385826771653545,
                    "duration": 0.13514794999997548
                },
                {
                    "name": "C#4",
                    "midi": 61,
                    "time": 341.4264000000024,
                    "velocity": 0.15748031496062992,
                    "duration": 0.13514794999997548
                },
                {
                    "name": "F4",
                    "midi": 65,
                    "time": 341.4264000000024,
                    "velocity": 0.1889763779527559,
                    "duration": 0.13514794999997548
                },
                {
                    "name": "C#4",
                    "midi": 61,
                    "time": 341.56866100000235,
                    "velocity": 0.13385826771653545,
                    "duration": 0.13514794999997548
                },
                {
                    "name": "F4",
                    "midi": 65,
                    "time": 341.56866100000235,
                    "velocity": 0.16535433070866143,
                    "duration": 0.13514794999997548
                },
                {
                    "name": "C#4",
                    "midi": 61,
                    "time": 341.7109220000023,
                    "velocity": 0.13385826771653545,
                    "duration": 0.13514794999997548
                },
                {
                    "name": "F4",
                    "midi": 65,
                    "time": 341.7109220000023,
                    "velocity": 0.16535433070866143,
                    "duration": 0.13514794999997548
                },
                {
                    "name": "C#4",
                    "midi": 61,
                    "time": 341.8531830000023,
                    "velocity": 0.13385826771653545,
                    "duration": 0.13514794999997548
                },
                {
                    "name": "F4",
                    "midi": 65,
                    "time": 341.8531830000023,
                    "velocity": 0.16535433070866143,
                    "duration": 0.13514794999997548
                },
                {
                    "name": "C#4",
                    "midi": 61,
                    "time": 341.99544400000224,
                    "velocity": 0.13385826771653545,
                    "duration": 0.13514794999997548
                },
                {
                    "name": "F4",
                    "midi": 65,
                    "time": 341.99544400000224,
                    "velocity": 0.16535433070866143,
                    "duration": 0.13514794999997548
                },
                {
                    "name": "A4",
                    "midi": 69,
                    "time": 341.99544400000224,
                    "velocity": 0.1968503937007874,
                    "duration": 0.13514794999997548
                },
                {
                    "name": "C#4",
                    "midi": 61,
                    "time": 342.1377050000022,
                    "velocity": 0.13385826771653545,
                    "duration": 0.13514794999997548
                },
                {
                    "name": "F4",
                    "midi": 65,
                    "time": 342.1377050000022,
                    "velocity": 0.16535433070866143,
                    "duration": 0.13514794999997548
                },
                {
                    "name": "A4",
                    "midi": 69,
                    "time": 342.1377050000022,
                    "velocity": 0.1968503937007874,
                    "duration": 0.13514794999997548
                },
                {
                    "name": "C#4",
                    "midi": 61,
                    "time": 342.27996600000216,
                    "velocity": 0.13385826771653545,
                    "duration": 0.13514794999997548
                },
                {
                    "name": "F4",
                    "midi": 65,
                    "time": 342.27996600000216,
                    "velocity": 0.16535433070866143,
                    "duration": 0.13514794999997548
                },
                {
                    "name": "A4",
                    "midi": 69,
                    "time": 342.27996600000216,
                    "velocity": 0.1968503937007874,
                    "duration": 0.13514794999997548
                },
                {
                    "name": "C#4",
                    "midi": 61,
                    "time": 342.4222270000021,
                    "velocity": 0.13385826771653545,
                    "duration": 0.13514794999997548
                },
                {
                    "name": "F4",
                    "midi": 65,
                    "time": 342.4222270000021,
                    "velocity": 0.16535433070866143,
                    "duration": 0.13514794999997548
                },
                {
                    "name": "A4",
                    "midi": 69,
                    "time": 342.4222270000021,
                    "velocity": 0.1968503937007874,
                    "duration": 0.13514794999997548
                },
                {
                    "name": "F4",
                    "midi": 65,
                    "time": 342.5644880000021,
                    "velocity": 0.1889763779527559,
                    "duration": 0.13514794999997548
                },
                {
                    "name": "D4",
                    "midi": 62,
                    "time": 342.5644880000021,
                    "velocity": 0.15748031496062992,
                    "duration": 0.13514794999997548
                },
                {
                    "name": "A4",
                    "midi": 69,
                    "time": 342.5644880000021,
                    "velocity": 0.2204724409448819,
                    "duration": 0.13514794999997548
                },
                {
                    "name": "F4",
                    "midi": 65,
                    "time": 342.70674900000205,
                    "velocity": 0.16535433070866143,
                    "duration": 0.13514794999997548
                },
                {
                    "name": "D4",
                    "midi": 62,
                    "time": 342.70674900000205,
                    "velocity": 0.13385826771653545,
                    "duration": 0.13514794999997548
                },
                {
                    "name": "A4",
                    "midi": 69,
                    "time": 342.70674900000205,
                    "velocity": 0.1968503937007874,
                    "duration": 0.13514794999997548
                },
                {
                    "name": "F4",
                    "midi": 65,
                    "time": 342.849010000002,
                    "velocity": 0.16535433070866143,
                    "duration": 0.13514794999997548
                },
                {
                    "name": "D4",
                    "midi": 62,
                    "time": 342.849010000002,
                    "velocity": 0.13385826771653545,
                    "duration": 0.13514794999997548
                },
                {
                    "name": "A4",
                    "midi": 69,
                    "time": 342.849010000002,
                    "velocity": 0.1968503937007874,
                    "duration": 0.13514794999997548
                },
                {
                    "name": "D4",
                    "midi": 62,
                    "time": 342.991271000002,
                    "velocity": 0.13385826771653545,
                    "duration": 0.13514794999997548
                },
                {
                    "name": "A4",
                    "midi": 69,
                    "time": 342.991271000002,
                    "velocity": 0.1968503937007874,
                    "duration": 0.13514794999997548
                },
                {
                    "name": "F4",
                    "midi": 65,
                    "time": 342.991271000002,
                    "velocity": 0.16535433070866143,
                    "duration": 0.13514794999997548
                },
                {
                    "name": "A4",
                    "midi": 69,
                    "time": 343.13353200000194,
                    "velocity": 0.1968503937007874,
                    "duration": 0.13514794999997548
                },
                {
                    "name": "F4",
                    "midi": 65,
                    "time": 343.13353200000194,
                    "velocity": 0.16535433070866143,
                    "duration": 0.13514794999997548
                },
                {
                    "name": "D4",
                    "midi": 62,
                    "time": 343.13353200000194,
                    "velocity": 0.13385826771653545,
                    "duration": 0.13514794999997548
                },
                {
                    "name": "A4",
                    "midi": 69,
                    "time": 343.2757930000019,
                    "velocity": 0.1968503937007874,
                    "duration": 0.13514794999997548
                },
                {
                    "name": "F4",
                    "midi": 65,
                    "time": 343.2757930000019,
                    "velocity": 0.16535433070866143,
                    "duration": 0.13514794999997548
                },
                {
                    "name": "D4",
                    "midi": 62,
                    "time": 343.2757930000019,
                    "velocity": 0.13385826771653545,
                    "duration": 0.13514794999997548
                },
                {
                    "name": "A4",
                    "midi": 69,
                    "time": 343.41805400000186,
                    "velocity": 0.2047244094488189,
                    "duration": 0.13514794999997548
                },
                {
                    "name": "F4",
                    "midi": 65,
                    "time": 343.41805400000186,
                    "velocity": 0.16535433070866143,
                    "duration": 0.13514794999997548
                },
                {
                    "name": "C#4",
                    "midi": 61,
                    "time": 343.41805400000186,
                    "velocity": 0.13385826771653545,
                    "duration": 0.13514794999997548
                },
                {
                    "name": "A4",
                    "midi": 69,
                    "time": 343.5603150000018,
                    "velocity": 0.2125984251968504,
                    "duration": 0.13514794999997548
                },
                {
                    "name": "F4",
                    "midi": 65,
                    "time": 343.5603150000018,
                    "velocity": 0.1732283464566929,
                    "duration": 0.13514794999997548
                },
                {
                    "name": "C#4",
                    "midi": 61,
                    "time": 343.5603150000018,
                    "velocity": 0.14173228346456693,
                    "duration": 0.13514794999997548
                },
                {
                    "name": "C4",
                    "midi": 60,
                    "time": 343.7025760000018,
                    "velocity": 0.18110236220472442,
                    "duration": 0.13514794999997548
                },
                {
                    "name": "F4",
                    "midi": 65,
                    "time": 343.7025760000018,
                    "velocity": 0.2204724409448819,
                    "duration": 0.13514794999997548
                },
                {
                    "name": "A4",
                    "midi": 69,
                    "time": 343.7025760000018,
                    "velocity": 0.2677165354330709,
                    "duration": 0.13514794999997548
                },
                {
                    "name": "C4",
                    "midi": 60,
                    "time": 343.84483700000175,
                    "velocity": 0.18110236220472442,
                    "duration": 0.13514794999997548
                },
                {
                    "name": "F4",
                    "midi": 65,
                    "time": 343.84483700000175,
                    "velocity": 0.2204724409448819,
                    "duration": 0.13514794999997548
                },
                {
                    "name": "A4",
                    "midi": 69,
                    "time": 343.84483700000175,
                    "velocity": 0.2677165354330709,
                    "duration": 0.13514794999997548
                },
                {
                    "name": "C4",
                    "midi": 60,
                    "time": 343.9870980000017,
                    "velocity": 0.1732283464566929,
                    "duration": 0.13514794999997548
                },
                {
                    "name": "F4",
                    "midi": 65,
                    "time": 343.9870980000017,
                    "velocity": 0.2125984251968504,
                    "duration": 0.13514794999997548
                },
                {
                    "name": "A4",
                    "midi": 69,
                    "time": 343.9870980000017,
                    "velocity": 0.25984251968503935,
                    "duration": 0.13514794999997548
                },
                {
                    "name": "C4",
                    "midi": 60,
                    "time": 344.12935900000167,
                    "velocity": 0.1732283464566929,
                    "duration": 0.13514794999997548
                },
                {
                    "name": "F4",
                    "midi": 65,
                    "time": 344.12935900000167,
                    "velocity": 0.2125984251968504,
                    "duration": 0.13514794999997548
                },
                {
                    "name": "A4",
                    "midi": 69,
                    "time": 344.12935900000167,
                    "velocity": 0.25984251968503935,
                    "duration": 0.13514794999997548
                },
                {
                    "name": "C4",
                    "midi": 60,
                    "time": 344.27162000000163,
                    "velocity": 0.1732283464566929,
                    "duration": 0.13514794999997548
                },
                {
                    "name": "F4",
                    "midi": 65,
                    "time": 344.27162000000163,
                    "velocity": 0.2047244094488189,
                    "duration": 0.13514794999997548
                },
                {
                    "name": "A4",
                    "midi": 69,
                    "time": 344.27162000000163,
                    "velocity": 0.2440944881889764,
                    "duration": 0.13514794999997548
                },
                {
                    "name": "C4",
                    "midi": 60,
                    "time": 344.4138810000016,
                    "velocity": 0.1732283464566929,
                    "duration": 0.13514794999997548
                },
                {
                    "name": "F4",
                    "midi": 65,
                    "time": 344.4138810000016,
                    "velocity": 0.2047244094488189,
                    "duration": 0.13514794999997548
                },
                {
                    "name": "A4",
                    "midi": 69,
                    "time": 344.4138810000016,
                    "velocity": 0.2440944881889764,
                    "duration": 0.13514794999997548
                },
                {
                    "name": "C#4",
                    "midi": 61,
                    "time": 344.55614200000156,
                    "velocity": 0.16535433070866143,
                    "duration": 0.13514794999997548
                },
                {
                    "name": "F4",
                    "midi": 65,
                    "time": 344.55614200000156,
                    "velocity": 0.1968503937007874,
                    "duration": 0.13514794999997548
                },
                {
                    "name": "A4",
                    "midi": 69,
                    "time": 344.55614200000156,
                    "velocity": 0.23622047244094488,
                    "duration": 0.13514794999997548
                },
                {
                    "name": "C#4",
                    "midi": 61,
                    "time": 344.6984030000015,
                    "velocity": 0.16535433070866143,
                    "duration": 0.13514794999997548
                },
                {
                    "name": "F4",
                    "midi": 65,
                    "time": 344.6984030000015,
                    "velocity": 0.1968503937007874,
                    "duration": 0.13514794999997548
                },
                {
                    "name": "A4",
                    "midi": 69,
                    "time": 344.6984030000015,
                    "velocity": 0.23622047244094488,
                    "duration": 0.13514794999997548
                },
                {
                    "name": "D4",
                    "midi": 62,
                    "time": 344.8406640000015,
                    "velocity": 0.2047244094488189,
                    "duration": 0.13514794999997548
                },
                {
                    "name": "F4",
                    "midi": 65,
                    "time": 344.8406640000015,
                    "velocity": 0.2440944881889764,
                    "duration": 0.13514794999997548
                },
                {
                    "name": "A4",
                    "midi": 69,
                    "time": 344.8406640000015,
                    "velocity": 0.2440944881889764,
                    "duration": 0.13514794999997548
                },
                {
                    "name": "D4",
                    "midi": 62,
                    "time": 344.98292500000144,
                    "velocity": 0.2047244094488189,
                    "duration": 0.13514794999997548
                },
                {
                    "name": "F4",
                    "midi": 65,
                    "time": 344.98292500000144,
                    "velocity": 0.2440944881889764,
                    "duration": 0.13514794999997548
                },
                {
                    "name": "A4",
                    "midi": 69,
                    "time": 344.98292500000144,
                    "velocity": 0.2440944881889764,
                    "duration": 0.13514794999997548
                },
                {
                    "name": "F4",
                    "midi": 65,
                    "time": 345.1251860000014,
                    "velocity": 0.2047244094488189,
                    "duration": 0.13514794999997548
                },
                {
                    "name": "A4",
                    "midi": 69,
                    "time": 345.1251860000014,
                    "velocity": 0.2440944881889764,
                    "duration": 0.13514794999997548
                },
                {
                    "name": "F4",
                    "midi": 65,
                    "time": 345.26744700000137,
                    "velocity": 0.2047244094488189,
                    "duration": 0.13514794999997548
                },
                {
                    "name": "A4",
                    "midi": 69,
                    "time": 345.26744700000137,
                    "velocity": 0.2440944881889764,
                    "duration": 0.13514794999997548
                },
                {
                    "name": "A4",
                    "midi": 69,
                    "time": 345.40970800000133,
                    "velocity": 0.2440944881889764,
                    "duration": 0.13514794999997548
                },
                {
                    "name": "A4",
                    "midi": 69,
                    "time": 345.5519690000013,
                    "velocity": 0.2440944881889764,
                    "duration": 0.13514794999997548
                },
                {
                    "name": "C4",
                    "midi": 60,
                    "time": 345.69423000000126,
                    "velocity": 0.2047244094488189,
                    "duration": 0.13514794999997548
                },
                {
                    "name": "E4",
                    "midi": 64,
                    "time": 345.69423000000126,
                    "velocity": 0.2440944881889764,
                    "duration": 0.13514794999997548
                },
                {
                    "name": "A#4",
                    "midi": 70,
                    "time": 345.69423000000126,
                    "velocity": 0.2440944881889764,
                    "duration": 0.13514794999997548
                },
                {
                    "name": "C4",
                    "midi": 60,
                    "time": 345.8364910000012,
                    "velocity": 0.2047244094488189,
                    "duration": 0.13514794999997548
                },
                {
                    "name": "E4",
                    "midi": 64,
                    "time": 345.8364910000012,
                    "velocity": 0.2440944881889764,
                    "duration": 0.13514794999997548
                },
                {
                    "name": "A#4",
                    "midi": 70,
                    "time": 345.8364910000012,
                    "velocity": 0.2440944881889764,
                    "duration": 0.13514794999997548
                },
                {
                    "name": "D3",
                    "midi": 50,
                    "time": 347.1168400000012,
                    "velocity": 0.4409448818897638,
                    "duration": 0.5690440000000194
                },
                {
                    "name": "F3",
                    "midi": 53,
                    "time": 347.68588400000124,
                    "velocity": 0.3779527559055118,
                    "duration": 0.14226100000001907
                },
                {
                    "name": "A3",
                    "midi": 57,
                    "time": 347.9704060000013,
                    "velocity": 0.3779527559055118,
                    "duration": 0.14226100000001907
                },
                {
                    "name": "A2",
                    "midi": 45,
                    "time": 348.2549280000013,
                    "velocity": 0.4409448818897638,
                    "duration": 0.5690440000000194
                },
                {
                    "name": "F3",
                    "midi": 53,
                    "time": 348.82397200000133,
                    "velocity": 0.3700787401574803,
                    "duration": 0.14226100000001907
                },
                {
                    "name": "A3",
                    "midi": 57,
                    "time": 349.1084940000014,
                    "velocity": 0.3700787401574803,
                    "duration": 0.14226100000001907
                },
                {
                    "name": "D3",
                    "midi": 50,
                    "time": 349.3930160000014,
                    "velocity": 0.4409448818897638,
                    "duration": 0.5690440000000194
                },
                {
                    "name": "F3",
                    "midi": 53,
                    "time": 349.96206000000143,
                    "velocity": 0.3779527559055118,
                    "duration": 0.14226100000001907
                },
                {
                    "name": "A3",
                    "midi": 57,
                    "time": 350.24658200000147,
                    "velocity": 0.3779527559055118,
                    "duration": 0.14226100000001907
                },
                {
                    "name": "C4",
                    "midi": 60,
                    "time": 350.5311040000015,
                    "velocity": 0.4094488188976378,
                    "duration": 0.14226100000001907
                },
                {
                    "name": "A3",
                    "midi": 57,
                    "time": 350.6733650000015,
                    "velocity": 0.3543307086614173,
                    "duration": 0.13514794999997548
                },
                {
                    "name": "A3",
                    "midi": 57,
                    "time": 350.8156260000015,
                    "velocity": 0.3779527559055118,
                    "duration": 0.14226100000001907
                },
                {
                    "name": "G3",
                    "midi": 55,
                    "time": 350.9578870000015,
                    "velocity": 0.3464566929133858,
                    "duration": 0.13514794999997548
                },
                {
                    "name": "G3",
                    "midi": 55,
                    "time": 351.10014800000147,
                    "velocity": 0.36220472440944884,
                    "duration": 0.14226100000001907
                },
                {
                    "name": "F3",
                    "midi": 53,
                    "time": 351.2424090000015,
                    "velocity": 0.33858267716535434,
                    "duration": 0.13514794999997548
                },
                {
                    "name": "F3",
                    "midi": 53,
                    "time": 351.38467000000145,
                    "velocity": 0.3464566929133858,
                    "duration": 0.14226100000001907
                },
                {
                    "name": "E3",
                    "midi": 52,
                    "time": 351.52693100000147,
                    "velocity": 0.3228346456692913,
                    "duration": 0.13514794999997548
                },
                {
                    "name": "E3",
                    "midi": 52,
                    "time": 351.66919200000143,
                    "velocity": 0.3464566929133858,
                    "duration": 0.14226100000001907
                },
                {
                    "name": "F3",
                    "midi": 53,
                    "time": 351.81145300000145,
                    "velocity": 0.31496062992125984,
                    "duration": 0.13514794999997548
                },
                {
                    "name": "F3",
                    "midi": 53,
                    "time": 351.9537140000014,
                    "velocity": 0.3464566929133858,
                    "duration": 0.14226100000001907
                },
                {
                    "name": "D3",
                    "midi": 50,
                    "time": 352.09597500000143,
                    "velocity": 0.3228346456692913,
                    "duration": 0.13514794999997548
                },
                {
                    "name": "D3",
                    "midi": 50,
                    "time": 352.2382360000014,
                    "velocity": 0.3464566929133858,
                    "duration": 0.14226100000001907
                },
                {
                    "name": "C3",
                    "midi": 48,
                    "time": 352.3804970000014,
                    "velocity": 0.31496062992125984,
                    "duration": 0.13514794999997548
                },
                {
                    "name": "D3",
                    "midi": 50,
                    "time": 352.5227580000014,
                    "velocity": 0.3464566929133858,
                    "duration": 0.14226100000001907
                },
                {
                    "name": "C3",
                    "midi": 48,
                    "time": 352.6650190000014,
                    "velocity": 0.31496062992125984,
                    "duration": 0.13514794999997548
                },
                {
                    "name": "D3",
                    "midi": 50,
                    "time": 352.80728000000136,
                    "velocity": 0.3464566929133858,
                    "duration": 0.2845219999999813
                },
                {
                    "name": "E2",
                    "midi": 40,
                    "time": 353.90980275000135,
                    "velocity": 0.2125984251968504,
                    "duration": 0.035565249999990556
                },
                {
                    "name": "D2",
                    "midi": 38,
                    "time": 353.94536800000134,
                    "velocity": 0.2125984251968504,
                    "duration": 0.053347874999985834
                },
                {
                    "name": "E2",
                    "midi": 40,
                    "time": 353.9809332500013,
                    "velocity": 0.18110236220472442,
                    "duration": 0.053347874999985834
                },
                {
                    "name": "D2",
                    "midi": 38,
                    "time": 354.0164985000013,
                    "velocity": 0.1889763779527559,
                    "duration": 0.053347874999985834
                },
                {
                    "name": "E2",
                    "midi": 40,
                    "time": 354.0520637500013,
                    "velocity": 0.1732283464566929,
                    "duration": 0.053347874999985834
                },
                {
                    "name": "D2",
                    "midi": 38,
                    "time": 354.0876290000013,
                    "velocity": 0.1889763779527559,
                    "duration": 0.053347874999985834
                },
                {
                    "name": "E2",
                    "midi": 40,
                    "time": 354.1231942500013,
                    "velocity": 0.1732283464566929,
                    "duration": 0.053347874999985834
                },
                {
                    "name": "D2",
                    "midi": 38,
                    "time": 354.1587595000013,
                    "velocity": 0.1968503937007874,
                    "duration": 0.053347874999985834
                },
                {
                    "name": "E2",
                    "midi": 40,
                    "time": 354.1943247500013,
                    "velocity": 0.1889763779527559,
                    "duration": 0.053347874999985834
                },
                {
                    "name": "D2",
                    "midi": 38,
                    "time": 354.22989000000126,
                    "velocity": 0.2047244094488189,
                    "duration": 0.053347874999985834
                },
                {
                    "name": "E2",
                    "midi": 40,
                    "time": 354.26545525000125,
                    "velocity": 0.18110236220472442,
                    "duration": 0.053347874999985834
                },
                {
                    "name": "D2",
                    "midi": 38,
                    "time": 354.30102050000124,
                    "velocity": 0.2047244094488189,
                    "duration": 0.053347874999985834
                },
                {
                    "name": "E2",
                    "midi": 40,
                    "time": 354.33658575000123,
                    "velocity": 0.1732283464566929,
                    "duration": 0.053347874999985834
                },
                {
                    "name": "D2",
                    "midi": 38,
                    "time": 354.3721510000012,
                    "velocity": 0.1968503937007874,
                    "duration": 0.053347874999985834
                },
                {
                    "name": "E2",
                    "midi": 40,
                    "time": 354.4077162500012,
                    "velocity": 0.18110236220472442,
                    "duration": 0.053347874999985834
                },
                {
                    "name": "D2",
                    "midi": 38,
                    "time": 354.4432815000012,
                    "velocity": 0.1889763779527559,
                    "duration": 0.053347874999985834
                },
                {
                    "name": "E2",
                    "midi": 40,
                    "time": 354.4788467500012,
                    "velocity": 0.1732283464566929,
                    "duration": 0.053347874999985834
                },
                {
                    "name": "D2",
                    "midi": 38,
                    "time": 354.5144120000012,
                    "velocity": 0.2047244094488189,
                    "duration": 0.053347874999985834
                },
                {
                    "name": "E2",
                    "midi": 40,
                    "time": 354.5499772500012,
                    "velocity": 0.18110236220472442,
                    "duration": 0.053347874999985834
                },
                {
                    "name": "D2",
                    "midi": 38,
                    "time": 354.58554250000117,
                    "velocity": 0.1968503937007874,
                    "duration": 0.053347874999985834
                },
                {
                    "name": "E2",
                    "midi": 40,
                    "time": 354.62110775000116,
                    "velocity": 0.18110236220472442,
                    "duration": 0.053347874999985834
                },
                {
                    "name": "D2",
                    "midi": 38,
                    "time": 354.65667300000115,
                    "velocity": 0.1968503937007874,
                    "duration": 0.053347874999985834
                },
                {
                    "name": "E2",
                    "midi": 40,
                    "time": 354.69223825000114,
                    "velocity": 0.1732283464566929,
                    "duration": 0.053347874999985834
                },
                {
                    "name": "D2",
                    "midi": 38,
                    "time": 354.72780350000113,
                    "velocity": 0.1968503937007874,
                    "duration": 0.053347874999985834
                },
                {
                    "name": "E2",
                    "midi": 40,
                    "time": 354.7633687500011,
                    "velocity": 0.1732283464566929,
                    "duration": 0.053347874999985834
                },
                {
                    "name": "D2",
                    "midi": 38,
                    "time": 354.7989340000011,
                    "velocity": 0.2125984251968504,
                    "duration": 0.053347874999985834
                },
                {
                    "name": "E2",
                    "midi": 40,
                    "time": 354.8344992500011,
                    "velocity": 0.18110236220472442,
                    "duration": 0.053347874999985834
                },
                {
                    "name": "D2",
                    "midi": 38,
                    "time": 354.8700645000011,
                    "velocity": 0.2047244094488189,
                    "duration": 0.053347874999985834
                },
                {
                    "name": "E2",
                    "midi": 40,
                    "time": 354.9056297500011,
                    "velocity": 0.1732283464566929,
                    "duration": 0.053347874999985834
                },
                {
                    "name": "C#2",
                    "midi": 37,
                    "time": 354.9411950000011,
                    "velocity": 0.2204724409448819,
                    "duration": 0.059275416666650926
                },
                {
                    "name": "D2",
                    "midi": 38,
                    "time": 354.9886153333344,
                    "velocity": 0.2440944881889764,
                    "duration": 0.059275416666650926
                },
                {
                    "name": "E2",
                    "midi": 40,
                    "time": 355.0360356666677,
                    "velocity": 0.25196850393700787,
                    "duration": 0.059275416666650926
                },
                {
                    "name": "D2",
                    "midi": 38,
                    "time": 355.08345600000104,
                    "velocity": 0.2677165354330709,
                    "duration": 0.07113049999998111
                },
                {
                    "name": "A4",
                    "midi": 69,
                    "time": 355.652500000001,
                    "velocity": 0.2125984251968504,
                    "duration": 0.13514794999997548
                },
                {
                    "name": "F4",
                    "midi": 65,
                    "time": 355.652500000001,
                    "velocity": 0.18110236220472442,
                    "duration": 0.13514794999997548
                },
                {
                    "name": "D4",
                    "midi": 62,
                    "time": 355.652500000001,
                    "velocity": 0.14960629921259844,
                    "duration": 0.13514794999997548
                },
                {
                    "name": "A4",
                    "midi": 69,
                    "time": 355.79476100000096,
                    "velocity": 0.2125984251968504,
                    "duration": 0.13514794999997548
                },
                {
                    "name": "F4",
                    "midi": 65,
                    "time": 355.79476100000096,
                    "velocity": 0.18110236220472442,
                    "duration": 0.13514794999997548
                },
                {
                    "name": "D4",
                    "midi": 62,
                    "time": 355.79476100000096,
                    "velocity": 0.14960629921259844,
                    "duration": 0.13514794999997548
                },
                {
                    "name": "A4",
                    "midi": 69,
                    "time": 355.9370220000009,
                    "velocity": 0.1889763779527559,
                    "duration": 0.13514794999997548
                },
                {
                    "name": "F4",
                    "midi": 65,
                    "time": 355.9370220000009,
                    "velocity": 0.15748031496062992,
                    "duration": 0.13514794999997548
                },
                {
                    "name": "D4",
                    "midi": 62,
                    "time": 355.9370220000009,
                    "velocity": 0.13385826771653545,
                    "duration": 0.13514794999997548
                },
                {
                    "name": "A4",
                    "midi": 69,
                    "time": 356.0792830000009,
                    "velocity": 0.1889763779527559,
                    "duration": 0.13514794999997548
                },
                {
                    "name": "F4",
                    "midi": 65,
                    "time": 356.0792830000009,
                    "velocity": 0.15748031496062992,
                    "duration": 0.13514794999997548
                },
                {
                    "name": "D4",
                    "midi": 62,
                    "time": 356.0792830000009,
                    "velocity": 0.13385826771653545,
                    "duration": 0.13514794999997548
                },
                {
                    "name": "A4",
                    "midi": 69,
                    "time": 356.22154400000085,
                    "velocity": 0.1889763779527559,
                    "duration": 0.13514794999997548
                },
                {
                    "name": "F4",
                    "midi": 65,
                    "time": 356.22154400000085,
                    "velocity": 0.15748031496062992,
                    "duration": 0.13514794999997548
                },
                {
                    "name": "D4",
                    "midi": 62,
                    "time": 356.22154400000085,
                    "velocity": 0.13385826771653545,
                    "duration": 0.13514794999997548
                },
                {
                    "name": "A4",
                    "midi": 69,
                    "time": 356.3638050000008,
                    "velocity": 0.1889763779527559,
                    "duration": 0.13514794999997548
                },
                {
                    "name": "F4",
                    "midi": 65,
                    "time": 356.3638050000008,
                    "velocity": 0.15748031496062992,
                    "duration": 0.13514794999997548
                },
                {
                    "name": "D4",
                    "midi": 62,
                    "time": 356.3638050000008,
                    "velocity": 0.13385826771653545,
                    "duration": 0.13514794999997548
                },
                {
                    "name": "A4",
                    "midi": 69,
                    "time": 356.50606600000077,
                    "velocity": 0.1889763779527559,
                    "duration": 0.13514794999997548
                },
                {
                    "name": "F4",
                    "midi": 65,
                    "time": 356.50606600000077,
                    "velocity": 0.15748031496062992,
                    "duration": 0.13514794999997548
                },
                {
                    "name": "D4",
                    "midi": 62,
                    "time": 356.50606600000077,
                    "velocity": 0.13385826771653545,
                    "duration": 0.13514794999997548
                },
                {
                    "name": "A4",
                    "midi": 69,
                    "time": 356.64832700000073,
                    "velocity": 0.1889763779527559,
                    "duration": 0.13514794999997548
                },
                {
                    "name": "F4",
                    "midi": 65,
                    "time": 356.64832700000073,
                    "velocity": 0.15748031496062992,
                    "duration": 0.13514794999997548
                },
                {
                    "name": "D4",
                    "midi": 62,
                    "time": 356.64832700000073,
                    "velocity": 0.13385826771653545,
                    "duration": 0.13514794999997548
                },
                {
                    "name": "A4",
                    "midi": 69,
                    "time": 356.7905880000007,
                    "velocity": 0.1889763779527559,
                    "duration": 0.13514794999997548
                },
                {
                    "name": "F4",
                    "midi": 65,
                    "time": 356.7905880000007,
                    "velocity": 0.15748031496062992,
                    "duration": 0.13514794999997548
                },
                {
                    "name": "D4",
                    "midi": 62,
                    "time": 356.7905880000007,
                    "velocity": 0.13385826771653545,
                    "duration": 0.13514794999997548
                },
                {
                    "name": "A4",
                    "midi": 69,
                    "time": 356.93284900000066,
                    "velocity": 0.1889763779527559,
                    "duration": 0.13514794999997548
                },
                {
                    "name": "F4",
                    "midi": 65,
                    "time": 356.93284900000066,
                    "velocity": 0.15748031496062992,
                    "duration": 0.13514794999997548
                },
                {
                    "name": "D4",
                    "midi": 62,
                    "time": 356.93284900000066,
                    "velocity": 0.13385826771653545,
                    "duration": 0.13514794999997548
                },
                {
                    "name": "A4",
                    "midi": 69,
                    "time": 357.0751100000006,
                    "velocity": 0.1889763779527559,
                    "duration": 0.13514794999997548
                },
                {
                    "name": "F4",
                    "midi": 65,
                    "time": 357.0751100000006,
                    "velocity": 0.15748031496062992,
                    "duration": 0.13514794999997548
                },
                {
                    "name": "D4",
                    "midi": 62,
                    "time": 357.0751100000006,
                    "velocity": 0.13385826771653545,
                    "duration": 0.13514794999997548
                },
                {
                    "name": "A4",
                    "midi": 69,
                    "time": 357.2173710000006,
                    "velocity": 0.1889763779527559,
                    "duration": 0.13514794999997548
                },
                {
                    "name": "F4",
                    "midi": 65,
                    "time": 357.2173710000006,
                    "velocity": 0.15748031496062992,
                    "duration": 0.13514794999997548
                },
                {
                    "name": "D4",
                    "midi": 62,
                    "time": 357.2173710000006,
                    "velocity": 0.13385826771653545,
                    "duration": 0.13514794999997548
                },
                {
                    "name": "A4",
                    "midi": 69,
                    "time": 357.35963200000054,
                    "velocity": 0.1889763779527559,
                    "duration": 0.13514794999997548
                },
                {
                    "name": "F4",
                    "midi": 65,
                    "time": 357.35963200000054,
                    "velocity": 0.15748031496062992,
                    "duration": 0.13514794999997548
                },
                {
                    "name": "D4",
                    "midi": 62,
                    "time": 357.35963200000054,
                    "velocity": 0.13385826771653545,
                    "duration": 0.13514794999997548
                },
                {
                    "name": "A4",
                    "midi": 69,
                    "time": 357.5018930000005,
                    "velocity": 0.1889763779527559,
                    "duration": 0.13514794999997548
                },
                {
                    "name": "F4",
                    "midi": 65,
                    "time": 357.5018930000005,
                    "velocity": 0.15748031496062992,
                    "duration": 0.13514794999997548
                },
                {
                    "name": "D4",
                    "midi": 62,
                    "time": 357.5018930000005,
                    "velocity": 0.13385826771653545,
                    "duration": 0.13514794999997548
                },
                {
                    "name": "A4",
                    "midi": 69,
                    "time": 357.64415400000047,
                    "velocity": 0.1968503937007874,
                    "duration": 0.13514794999997548
                },
                {
                    "name": "F4",
                    "midi": 65,
                    "time": 357.64415400000047,
                    "velocity": 0.16535433070866143,
                    "duration": 0.13514794999997548
                },
                {
                    "name": "C#4",
                    "midi": 61,
                    "time": 357.64415400000047,
                    "velocity": 0.13385826771653545,
                    "duration": 0.13514794999997548
                },
                {
                    "name": "A4",
                    "midi": 69,
                    "time": 357.78641500000043,
                    "velocity": 0.1968503937007874,
                    "duration": 0.13514794999997548
                },
                {
                    "name": "F4",
                    "midi": 65,
                    "time": 357.78641500000043,
                    "velocity": 0.16535433070866143,
                    "duration": 0.13514794999997548
                },
                {
                    "name": "C#4",
                    "midi": 61,
                    "time": 357.78641500000043,
                    "velocity": 0.13385826771653545,
                    "duration": 0.13514794999997548
                },
                {
                    "name": "A4",
                    "midi": 69,
                    "time": 357.9286760000004,
                    "velocity": 0.1968503937007874,
                    "duration": 0.13514794999997548
                },
                {
                    "name": "F4",
                    "midi": 65,
                    "time": 357.9286760000004,
                    "velocity": 0.16535433070866143,
                    "duration": 0.13514794999997548
                },
                {
                    "name": "C4",
                    "midi": 60,
                    "time": 357.9286760000004,
                    "velocity": 0.13385826771653545,
                    "duration": 0.13514794999997548
                },
                {
                    "name": "A4",
                    "midi": 69,
                    "time": 358.07093700000036,
                    "velocity": 0.1968503937007874,
                    "duration": 0.13514794999997548
                },
                {
                    "name": "F4",
                    "midi": 65,
                    "time": 358.07093700000036,
                    "velocity": 0.16535433070866143,
                    "duration": 0.13514794999997548
                },
                {
                    "name": "C4",
                    "midi": 60,
                    "time": 358.07093700000036,
                    "velocity": 0.13385826771653545,
                    "duration": 0.13514794999997548
                },
                {
                    "name": "A4",
                    "midi": 69,
                    "time": 358.2131980000003,
                    "velocity": 0.2204724409448819,
                    "duration": 0.13514794999997548
                },
                {
                    "name": "F4",
                    "midi": 65,
                    "time": 358.2131980000003,
                    "velocity": 0.1889763779527559,
                    "duration": 0.13514794999997548
                },
                {
                    "name": "B3",
                    "midi": 59,
                    "time": 358.2131980000003,
                    "velocity": 0.15748031496062992,
                    "duration": 0.13514794999997548
                },
                {
                    "name": "A4",
                    "midi": 69,
                    "time": 358.3554590000003,
                    "velocity": 0.2204724409448819,
                    "duration": 0.13514794999997548
                },
                {
                    "name": "F4",
                    "midi": 65,
                    "time": 358.3554590000003,
                    "velocity": 0.1889763779527559,
                    "duration": 0.13514794999997548
                },
                {
                    "name": "B3",
                    "midi": 59,
                    "time": 358.3554590000003,
                    "velocity": 0.15748031496062992,
                    "duration": 0.13514794999997548
                },
                {
                    "name": "A#3",
                    "midi": 58,
                    "time": 358.49772000000024,
                    "velocity": 0.15748031496062992,
                    "duration": 0.13514794999997548
                },
                {
                    "name": "F4",
                    "midi": 65,
                    "time": 358.49772000000024,
                    "velocity": 0.1889763779527559,
                    "duration": 0.13514794999997548
                },
                {
                    "name": "G4",
                    "midi": 67,
                    "time": 358.49772000000024,
                    "velocity": 0.2204724409448819,
                    "duration": 0.13514794999997548
                },
                {
                    "name": "A#3",
                    "midi": 58,
                    "time": 358.6399810000002,
                    "velocity": 0.15748031496062992,
                    "duration": 0.13514794999997548
                },
                {
                    "name": "F4",
                    "midi": 65,
                    "time": 358.6399810000002,
                    "velocity": 0.1889763779527559,
                    "duration": 0.13514794999997548
                },
                {
                    "name": "G4",
                    "midi": 67,
                    "time": 358.6399810000002,
                    "velocity": 0.2204724409448819,
                    "duration": 0.13514794999997548
                },
                {
                    "name": "A#3",
                    "midi": 58,
                    "time": 358.78224200000017,
                    "velocity": 0.15748031496062992,
                    "duration": 0.13514794999997548
                },
                {
                    "name": "D4",
                    "midi": 62,
                    "time": 358.78224200000017,
                    "velocity": 0.1889763779527559,
                    "duration": 0.13514794999997548
                },
                {
                    "name": "G4",
                    "midi": 67,
                    "time": 358.78224200000017,
                    "velocity": 0.2204724409448819,
                    "duration": 0.13514794999997548
                },
                {
                    "name": "A#3",
                    "midi": 58,
                    "time": 358.92450300000013,
                    "velocity": 0.15748031496062992,
                    "duration": 0.13514794999997548
                },
                {
                    "name": "D4",
                    "midi": 62,
                    "time": 358.92450300000013,
                    "velocity": 0.1889763779527559,
                    "duration": 0.13514794999997548
                },
                {
                    "name": "G4",
                    "midi": 67,
                    "time": 358.92450300000013,
                    "velocity": 0.2204724409448819,
                    "duration": 0.13514794999997548
                },
                {
                    "name": "A#3",
                    "midi": 58,
                    "time": 359.0667640000001,
                    "velocity": 0.15748031496062992,
                    "duration": 0.13514794999997548
                },
                {
                    "name": "E4",
                    "midi": 64,
                    "time": 359.0667640000001,
                    "velocity": 0.1889763779527559,
                    "duration": 0.13514794999997548
                },
                {
                    "name": "G4",
                    "midi": 67,
                    "time": 359.0667640000001,
                    "velocity": 0.2204724409448819,
                    "duration": 0.13514794999997548
                },
                {
                    "name": "A#3",
                    "midi": 58,
                    "time": 359.20902500000005,
                    "velocity": 0.15748031496062992,
                    "duration": 0.13514794999997548
                },
                {
                    "name": "E4",
                    "midi": 64,
                    "time": 359.20902500000005,
                    "velocity": 0.1889763779527559,
                    "duration": 0.13514794999997548
                },
                {
                    "name": "G4",
                    "midi": 67,
                    "time": 359.20902500000005,
                    "velocity": 0.2204724409448819,
                    "duration": 0.13514794999997548
                },
                {
                    "name": "A3",
                    "midi": 57,
                    "time": 359.351286,
                    "velocity": 0.15748031496062992,
                    "duration": 0.13514794999997548
                },
                {
                    "name": "C#4",
                    "midi": 61,
                    "time": 359.351286,
                    "velocity": 0.1889763779527559,
                    "duration": 0.13514794999997548
                },
                {
                    "name": "G4",
                    "midi": 67,
                    "time": 359.351286,
                    "velocity": 0.2204724409448819,
                    "duration": 0.13514794999997548
                },
                {
                    "name": "A3",
                    "midi": 57,
                    "time": 359.493547,
                    "velocity": 0.15748031496062992,
                    "duration": 0.13514794999997548
                },
                {
                    "name": "C#4",
                    "midi": 61,
                    "time": 359.493547,
                    "velocity": 0.1889763779527559,
                    "duration": 0.13514794999997548
                },
                {
                    "name": "G4",
                    "midi": 67,
                    "time": 359.493547,
                    "velocity": 0.2204724409448819,
                    "duration": 0.13514794999997548
                },
                {
                    "name": "D4",
                    "midi": 62,
                    "time": 359.63580799999994,
                    "velocity": 0.1889763779527559,
                    "duration": 0.13514794999997548
                },
                {
                    "name": "F4",
                    "midi": 65,
                    "time": 359.63580799999994,
                    "velocity": 0.2204724409448819,
                    "duration": 0.13514794999997548
                },
                {
                    "name": "D4",
                    "midi": 62,
                    "time": 359.7780689999999,
                    "velocity": 0.1889763779527559,
                    "duration": 0.13514794999997548
                },
                {
                    "name": "F4",
                    "midi": 65,
                    "time": 359.7780689999999,
                    "velocity": 0.2204724409448819,
                    "duration": 0.13514794999997548
                },
                {
                    "name": "D4",
                    "midi": 62,
                    "time": 359.92032999999986,
                    "velocity": 0.1889763779527559,
                    "duration": 0.13514794999997548
                },
                {
                    "name": "F4",
                    "midi": 65,
                    "time": 359.92032999999986,
                    "velocity": 0.2204724409448819,
                    "duration": 0.13514794999997548
                },
                {
                    "name": "D4",
                    "midi": 62,
                    "time": 360.0625909999998,
                    "velocity": 0.1889763779527559,
                    "duration": 0.13514794999997548
                },
                {
                    "name": "F4",
                    "midi": 65,
                    "time": 360.0625909999998,
                    "velocity": 0.2204724409448819,
                    "duration": 0.13514794999997548
                },
                {
                    "name": "E2",
                    "midi": 40,
                    "time": 360.7383307499998,
                    "velocity": 0.2125984251968504,
                    "duration": 0.035565249999990556
                },
                {
                    "name": "D2",
                    "midi": 38,
                    "time": 360.7738959999998,
                    "velocity": 0.2125984251968504,
                    "duration": 0.053347874999985834
                },
                {
                    "name": "E2",
                    "midi": 40,
                    "time": 360.8094612499998,
                    "velocity": 0.18110236220472442,
                    "duration": 0.053347874999985834
                },
                {
                    "name": "D2",
                    "midi": 38,
                    "time": 360.8450264999998,
                    "velocity": 0.1889763779527559,
                    "duration": 0.053347874999985834
                },
                {
                    "name": "E2",
                    "midi": 40,
                    "time": 360.8805917499998,
                    "velocity": 0.1732283464566929,
                    "duration": 0.053347874999985834
                },
                {
                    "name": "D2",
                    "midi": 38,
                    "time": 360.91615699999977,
                    "velocity": 0.1889763779527559,
                    "duration": 0.053347874999985834
                },
                {
                    "name": "E2",
                    "midi": 40,
                    "time": 360.95172224999976,
                    "velocity": 0.1732283464566929,
                    "duration": 0.053347874999985834
                },
                {
                    "name": "D2",
                    "midi": 38,
                    "time": 360.98728749999975,
                    "velocity": 0.1968503937007874,
                    "duration": 0.053347874999985834
                },
                {
                    "name": "E2",
                    "midi": 40,
                    "time": 361.02285274999974,
                    "velocity": 0.1889763779527559,
                    "duration": 0.053347874999985834
                },
                {
                    "name": "D2",
                    "midi": 38,
                    "time": 361.05841799999973,
                    "velocity": 0.2047244094488189,
                    "duration": 0.053347874999985834
                },
                {
                    "name": "E2",
                    "midi": 40,
                    "time": 361.0939832499997,
                    "velocity": 0.18110236220472442,
                    "duration": 0.053347874999985834
                },
                {
                    "name": "D2",
                    "midi": 38,
                    "time": 361.1295484999997,
                    "velocity": 0.2047244094488189,
                    "duration": 0.053347874999985834
                },
                {
                    "name": "E2",
                    "midi": 40,
                    "time": 361.1651137499997,
                    "velocity": 0.1732283464566929,
                    "duration": 0.053347874999985834
                },
                {
                    "name": "D2",
                    "midi": 38,
                    "time": 361.2006789999997,
                    "velocity": 0.1968503937007874,
                    "duration": 0.053347874999985834
                },
                {
                    "name": "E2",
                    "midi": 40,
                    "time": 361.2362442499997,
                    "velocity": 0.18110236220472442,
                    "duration": 0.053347874999985834
                },
                {
                    "name": "D2",
                    "midi": 38,
                    "time": 361.2718094999997,
                    "velocity": 0.1889763779527559,
                    "duration": 0.053347874999985834
                },
                {
                    "name": "E2",
                    "midi": 40,
                    "time": 361.30737474999967,
                    "velocity": 0.1732283464566929,
                    "duration": 0.053347874999985834
                },
                {
                    "name": "D2",
                    "midi": 38,
                    "time": 361.34293999999966,
                    "velocity": 0.2047244094488189,
                    "duration": 0.053347874999985834
                },
                {
                    "name": "E2",
                    "midi": 40,
                    "time": 361.37850524999965,
                    "velocity": 0.18110236220472442,
                    "duration": 0.053347874999985834
                },
                {
                    "name": "D2",
                    "midi": 38,
                    "time": 361.41407049999964,
                    "velocity": 0.1968503937007874,
                    "duration": 0.053347874999985834
                },
                {
                    "name": "E2",
                    "midi": 40,
                    "time": 361.44963574999963,
                    "velocity": 0.18110236220472442,
                    "duration": 0.053347874999985834
                },
                {
                    "name": "D2",
                    "midi": 38,
                    "time": 361.4852009999996,
                    "velocity": 0.1968503937007874,
                    "duration": 0.053347874999985834
                },
                {
                    "name": "E2",
                    "midi": 40,
                    "time": 361.5207662499996,
                    "velocity": 0.1732283464566929,
                    "duration": 0.053347874999985834
                },
                {
                    "name": "D2",
                    "midi": 38,
                    "time": 361.5563314999996,
                    "velocity": 0.1968503937007874,
                    "duration": 0.053347874999985834
                },
                {
                    "name": "E2",
                    "midi": 40,
                    "time": 361.5918967499996,
                    "velocity": 0.1732283464566929,
                    "duration": 0.053347874999985834
                },
                {
                    "name": "D2",
                    "midi": 38,
                    "time": 361.6274619999996,
                    "velocity": 0.2125984251968504,
                    "duration": 0.053347874999985834
                },
                {
                    "name": "E2",
                    "midi": 40,
                    "time": 361.6630272499996,
                    "velocity": 0.18110236220472442,
                    "duration": 0.053347874999985834
                },
                {
                    "name": "D2",
                    "midi": 38,
                    "time": 361.69859249999956,
                    "velocity": 0.2047244094488189,
                    "duration": 0.053347874999985834
                },
                {
                    "name": "E2",
                    "midi": 40,
                    "time": 361.73415774999955,
                    "velocity": 0.1732283464566929,
                    "duration": 0.053347874999985834
                },
                {
                    "name": "D2",
                    "midi": 38,
                    "time": 361.76972299999954,
                    "velocity": 0.2047244094488189,
                    "duration": 0.053347874999985834
                },
                {
                    "name": "E2",
                    "midi": 40,
                    "time": 361.80528824999953,
                    "velocity": 0.1732283464566929,
                    "duration": 0.053347874999985834
                },
                {
                    "name": "C2",
                    "midi": 36,
                    "time": 361.8408534999995,
                    "velocity": 0.2204724409448819,
                    "duration": 0.07113049999998111
                },
                {
                    "name": "A#1",
                    "midi": 34,
                    "time": 361.9119839999995,
                    "velocity": 0.2677165354330709,
                    "duration": 0.07113049999998111
                },
                {
                    "name": "A#4",
                    "midi": 70,
                    "time": 362.48102799999947,
                    "velocity": 0.1889763779527559,
                    "duration": 0.13514794999997548
                },
                {
                    "name": "F4",
                    "midi": 65,
                    "time": 362.48102799999947,
                    "velocity": 0.15748031496062992,
                    "duration": 0.13514794999997548
                },
                {
                    "name": "D4",
                    "midi": 62,
                    "time": 362.48102799999947,
                    "velocity": 0.13385826771653545,
                    "duration": 0.13514794999997548
                },
                {
                    "name": "A#4",
                    "midi": 70,
                    "time": 362.62328899999943,
                    "velocity": 0.1889763779527559,
                    "duration": 0.13514794999997548
                },
                {
                    "name": "F4",
                    "midi": 65,
                    "time": 362.62328899999943,
                    "velocity": 0.15748031496062992,
                    "duration": 0.13514794999997548
                },
                {
                    "name": "D4",
                    "midi": 62,
                    "time": 362.62328899999943,
                    "velocity": 0.13385826771653545,
                    "duration": 0.13514794999997548
                },
                {
                    "name": "A#4",
                    "midi": 70,
                    "time": 362.7655499999994,
                    "velocity": 0.16535433070866143,
                    "duration": 0.13514794999997548
                },
                {
                    "name": "F4",
                    "midi": 65,
                    "time": 362.7655499999994,
                    "velocity": 0.14173228346456693,
                    "duration": 0.13514794999997548
                },
                {
                    "name": "D4",
                    "midi": 62,
                    "time": 362.7655499999994,
                    "velocity": 0.11811023622047244,
                    "duration": 0.13514794999997548
                },
                {
                    "name": "A#4",
                    "midi": 70,
                    "time": 362.90781099999936,
                    "velocity": 0.16535433070866143,
                    "duration": 0.13514794999997548
                },
                {
                    "name": "F4",
                    "midi": 65,
                    "time": 362.90781099999936,
                    "velocity": 0.14173228346456693,
                    "duration": 0.13514794999997548
                },
                {
                    "name": "D4",
                    "midi": 62,
                    "time": 362.90781099999936,
                    "velocity": 0.11811023622047244,
                    "duration": 0.13514794999997548
                },
                {
                    "name": "A#4",
                    "midi": 70,
                    "time": 363.0500719999993,
                    "velocity": 0.16535433070866143,
                    "duration": 0.13514794999997548
                },
                {
                    "name": "F4",
                    "midi": 65,
                    "time": 363.0500719999993,
                    "velocity": 0.14173228346456693,
                    "duration": 0.13514794999997548
                },
                {
                    "name": "D4",
                    "midi": 62,
                    "time": 363.0500719999993,
                    "velocity": 0.11811023622047244,
                    "duration": 0.13514794999997548
                },
                {
                    "name": "A#4",
                    "midi": 70,
                    "time": 363.1923329999993,
                    "velocity": 0.16535433070866143,
                    "duration": 0.13514794999997548
                },
                {
                    "name": "F4",
                    "midi": 65,
                    "time": 363.1923329999993,
                    "velocity": 0.14173228346456693,
                    "duration": 0.13514794999997548
                },
                {
                    "name": "D4",
                    "midi": 62,
                    "time": 363.1923329999993,
                    "velocity": 0.11811023622047244,
                    "duration": 0.13514794999997548
                },
                {
                    "name": "C5",
                    "midi": 72,
                    "time": 363.33459399999924,
                    "velocity": 0.16535433070866143,
                    "duration": 0.13514794999997548
                },
                {
                    "name": "F4",
                    "midi": 65,
                    "time": 363.33459399999924,
                    "velocity": 0.14173228346456693,
                    "duration": 0.13514794999997548
                },
                {
                    "name": "D4",
                    "midi": 62,
                    "time": 363.33459399999924,
                    "velocity": 0.11811023622047244,
                    "duration": 0.13514794999997548
                },
                {
                    "name": "C5",
                    "midi": 72,
                    "time": 363.4768549999992,
                    "velocity": 0.16535433070866143,
                    "duration": 0.13514794999997548
                },
                {
                    "name": "F4",
                    "midi": 65,
                    "time": 363.4768549999992,
                    "velocity": 0.14173228346456693,
                    "duration": 0.13514794999997548
                },
                {
                    "name": "D4",
                    "midi": 62,
                    "time": 363.4768549999992,
                    "velocity": 0.11811023622047244,
                    "duration": 0.13514794999997548
                },
                {
                    "name": "D5",
                    "midi": 74,
                    "time": 363.61911599999917,
                    "velocity": 0.16535433070866143,
                    "duration": 0.13514794999997548
                },
                {
                    "name": "F4",
                    "midi": 65,
                    "time": 363.61911599999917,
                    "velocity": 0.14173228346456693,
                    "duration": 0.13514794999997548
                },
                {
                    "name": "D4",
                    "midi": 62,
                    "time": 363.61911599999917,
                    "velocity": 0.11811023622047244,
                    "duration": 0.13514794999997548
                },
                {
                    "name": "D5",
                    "midi": 74,
                    "time": 363.76137699999913,
                    "velocity": 0.16535433070866143,
                    "duration": 0.13514794999997548
                },
                {
                    "name": "F4",
                    "midi": 65,
                    "time": 363.76137699999913,
                    "velocity": 0.14173228346456693,
                    "duration": 0.13514794999997548
                },
                {
                    "name": "D4",
                    "midi": 62,
                    "time": 363.76137699999913,
                    "velocity": 0.11811023622047244,
                    "duration": 0.13514794999997548
                },
                {
                    "name": "A4",
                    "midi": 69,
                    "time": 363.9036379999991,
                    "velocity": 0.16535433070866143,
                    "duration": 0.13514794999997548
                },
                {
                    "name": "F4",
                    "midi": 65,
                    "time": 363.9036379999991,
                    "velocity": 0.14173228346456693,
                    "duration": 0.13514794999997548
                },
                {
                    "name": "D4",
                    "midi": 62,
                    "time": 363.9036379999991,
                    "velocity": 0.11811023622047244,
                    "duration": 0.13514794999997548
                },
                {
                    "name": "A4",
                    "midi": 69,
                    "time": 364.04589899999905,
                    "velocity": 0.16535433070866143,
                    "duration": 0.13514794999997548
                },
                {
                    "name": "F4",
                    "midi": 65,
                    "time": 364.04589899999905,
                    "velocity": 0.14173228346456693,
                    "duration": 0.13514794999997548
                },
                {
                    "name": "D4",
                    "midi": 62,
                    "time": 364.04589899999905,
                    "velocity": 0.11811023622047244,
                    "duration": 0.13514794999997548
                },
                {
                    "name": "A#4",
                    "midi": 70,
                    "time": 364.188159999999,
                    "velocity": 0.16535433070866143,
                    "duration": 0.13514794999997548
                },
                {
                    "name": "F4",
                    "midi": 65,
                    "time": 364.188159999999,
                    "velocity": 0.14173228346456693,
                    "duration": 0.13514794999997548
                },
                {
                    "name": "D4",
                    "midi": 62,
                    "time": 364.188159999999,
                    "velocity": 0.11811023622047244,
                    "duration": 0.13514794999997548
                },
                {
                    "name": "A#4",
                    "midi": 70,
                    "time": 364.330420999999,
                    "velocity": 0.16535433070866143,
                    "duration": 0.13514794999997548
                },
                {
                    "name": "F4",
                    "midi": 65,
                    "time": 364.330420999999,
                    "velocity": 0.14173228346456693,
                    "duration": 0.13514794999997548
                },
                {
                    "name": "D4",
                    "midi": 62,
                    "time": 364.330420999999,
                    "velocity": 0.11811023622047244,
                    "duration": 0.13514794999997548
                },
                {
                    "name": "A#4",
                    "midi": 70,
                    "time": 364.47268199999894,
                    "velocity": 0.1732283464566929,
                    "duration": 0.13514794999997548
                },
                {
                    "name": "F4",
                    "midi": 65,
                    "time": 364.47268199999894,
                    "velocity": 0.14173228346456693,
                    "duration": 0.13514794999997548
                },
                {
                    "name": "D4",
                    "midi": 62,
                    "time": 364.47268199999894,
                    "velocity": 0.11811023622047244,
                    "duration": 0.13514794999997548
                },
                {
                    "name": "A#4",
                    "midi": 70,
                    "time": 364.6149429999989,
                    "velocity": 0.1732283464566929,
                    "duration": 0.13514794999997548
                },
                {
                    "name": "F4",
                    "midi": 65,
                    "time": 364.6149429999989,
                    "velocity": 0.14173228346456693,
                    "duration": 0.13514794999997548
                },
                {
                    "name": "D4",
                    "midi": 62,
                    "time": 364.6149429999989,
                    "velocity": 0.11811023622047244,
                    "duration": 0.13514794999997548
                },
                {
                    "name": "A#4",
                    "midi": 70,
                    "time": 364.75720399999886,
                    "velocity": 0.1732283464566929,
                    "duration": 0.13514794999997548
                },
                {
                    "name": "F4",
                    "midi": 65,
                    "time": 364.75720399999886,
                    "velocity": 0.14173228346456693,
                    "duration": 0.13514794999997548
                },
                {
                    "name": "D4",
                    "midi": 62,
                    "time": 364.75720399999886,
                    "velocity": 0.11811023622047244,
                    "duration": 0.13514794999997548
                },
                {
                    "name": "A#4",
                    "midi": 70,
                    "time": 364.8994649999988,
                    "velocity": 0.1732283464566929,
                    "duration": 0.13514794999997548
                },
                {
                    "name": "F4",
                    "midi": 65,
                    "time": 364.8994649999988,
                    "velocity": 0.14173228346456693,
                    "duration": 0.13514794999997548
                },
                {
                    "name": "D4",
                    "midi": 62,
                    "time": 364.8994649999988,
                    "velocity": 0.11811023622047244,
                    "duration": 0.13514794999997548
                },
                {
                    "name": "A#4",
                    "midi": 70,
                    "time": 365.0417259999988,
                    "velocity": 0.1732283464566929,
                    "duration": 0.13514794999997548
                },
                {
                    "name": "F4",
                    "midi": 65,
                    "time": 365.0417259999988,
                    "velocity": 0.14173228346456693,
                    "duration": 0.13514794999997548
                },
                {
                    "name": "D4",
                    "midi": 62,
                    "time": 365.0417259999988,
                    "velocity": 0.11811023622047244,
                    "duration": 0.13514794999997548
                },
                {
                    "name": "A#4",
                    "midi": 70,
                    "time": 365.18398699999875,
                    "velocity": 0.1732283464566929,
                    "duration": 0.13514794999997548
                },
                {
                    "name": "F4",
                    "midi": 65,
                    "time": 365.18398699999875,
                    "velocity": 0.14173228346456693,
                    "duration": 0.13514794999997548
                },
                {
                    "name": "D4",
                    "midi": 62,
                    "time": 365.18398699999875,
                    "velocity": 0.11811023622047244,
                    "duration": 0.13514794999997548
                },
                {
                    "name": "D#4",
                    "midi": 63,
                    "time": 365.3262479999987,
                    "velocity": 0.11811023622047244,
                    "duration": 0.13514794999997548
                },
                {
                    "name": "F#4",
                    "midi": 66,
                    "time": 365.3262479999987,
                    "velocity": 0.14173228346456693,
                    "duration": 0.13514794999997548
                },
                {
                    "name": "A#4",
                    "midi": 70,
                    "time": 365.3262479999987,
                    "velocity": 0.1732283464566929,
                    "duration": 0.13514794999997548
                },
                {
                    "name": "D#4",
                    "midi": 63,
                    "time": 365.4685089999987,
                    "velocity": 0.11811023622047244,
                    "duration": 0.13514794999997548
                },
                {
                    "name": "F#4",
                    "midi": 66,
                    "time": 365.4685089999987,
                    "velocity": 0.14173228346456693,
                    "duration": 0.13514794999997548
                },
                {
                    "name": "A#4",
                    "midi": 70,
                    "time": 365.4685089999987,
                    "velocity": 0.1732283464566929,
                    "duration": 0.13514794999997548
                },
                {
                    "name": "D#4",
                    "midi": 63,
                    "time": 365.61076999999864,
                    "velocity": 0.11811023622047244,
                    "duration": 0.13514794999997548
                },
                {
                    "name": "F#4",
                    "midi": 66,
                    "time": 365.61076999999864,
                    "velocity": 0.14173228346456693,
                    "duration": 0.13514794999997548
                },
                {
                    "name": "A#4",
                    "midi": 70,
                    "time": 365.61076999999864,
                    "velocity": 0.1732283464566929,
                    "duration": 0.13514794999997548
                },
                {
                    "name": "D#4",
                    "midi": 63,
                    "time": 365.7530309999986,
                    "velocity": 0.11811023622047244,
                    "duration": 0.13514794999997548
                },
                {
                    "name": "F#4",
                    "midi": 66,
                    "time": 365.7530309999986,
                    "velocity": 0.14173228346456693,
                    "duration": 0.13514794999997548
                },
                {
                    "name": "A#4",
                    "midi": 70,
                    "time": 365.7530309999986,
                    "velocity": 0.1732283464566929,
                    "duration": 0.13514794999997548
                },
                {
                    "name": "D#4",
                    "midi": 63,
                    "time": 365.89529199999856,
                    "velocity": 0.11811023622047244,
                    "duration": 0.13514794999997548
                },
                {
                    "name": "F#4",
                    "midi": 66,
                    "time": 365.89529199999856,
                    "velocity": 0.14173228346456693,
                    "duration": 0.13514794999997548
                },
                {
                    "name": "A#4",
                    "midi": 70,
                    "time": 365.89529199999856,
                    "velocity": 0.1732283464566929,
                    "duration": 0.13514794999997548
                },
                {
                    "name": "D#4",
                    "midi": 63,
                    "time": 366.0375529999985,
                    "velocity": 0.11811023622047244,
                    "duration": 0.13514794999997548
                },
                {
                    "name": "F#4",
                    "midi": 66,
                    "time": 366.0375529999985,
                    "velocity": 0.14173228346456693,
                    "duration": 0.13514794999997548
                },
                {
                    "name": "A#4",
                    "midi": 70,
                    "time": 366.0375529999985,
                    "velocity": 0.1732283464566929,
                    "duration": 0.13514794999997548
                },
                {
                    "name": "D#4",
                    "midi": 63,
                    "time": 366.1798139999985,
                    "velocity": 0.11811023622047244,
                    "duration": 0.13514794999997548
                },
                {
                    "name": "F#4",
                    "midi": 66,
                    "time": 366.1798139999985,
                    "velocity": 0.14173228346456693,
                    "duration": 0.13514794999997548
                },
                {
                    "name": "A#4",
                    "midi": 70,
                    "time": 366.1798139999985,
                    "velocity": 0.1732283464566929,
                    "duration": 0.13514794999997548
                },
                {
                    "name": "D#4",
                    "midi": 63,
                    "time": 366.32207499999845,
                    "velocity": 0.11811023622047244,
                    "duration": 0.13514794999997548
                },
                {
                    "name": "F#4",
                    "midi": 66,
                    "time": 366.32207499999845,
                    "velocity": 0.14173228346456693,
                    "duration": 0.13514794999997548
                },
                {
                    "name": "A#4",
                    "midi": 70,
                    "time": 366.32207499999845,
                    "velocity": 0.1732283464566929,
                    "duration": 0.13514794999997548
                },
                {
                    "name": "F4",
                    "midi": 65,
                    "time": 366.4643359999984,
                    "velocity": 0.14173228346456693,
                    "duration": 0.13514794999997548
                },
                {
                    "name": "D4",
                    "midi": 62,
                    "time": 366.4643359999984,
                    "velocity": 0.11811023622047244,
                    "duration": 0.13514794999997548
                },
                {
                    "name": "A#4",
                    "midi": 70,
                    "time": 366.4643359999984,
                    "velocity": 0.1732283464566929,
                    "duration": 0.13514794999997548
                },
                {
                    "name": "F4",
                    "midi": 65,
                    "time": 366.6065969999984,
                    "velocity": 0.14173228346456693,
                    "duration": 0.13514794999997548
                },
                {
                    "name": "D4",
                    "midi": 62,
                    "time": 366.6065969999984,
                    "velocity": 0.11811023622047244,
                    "duration": 0.13514794999997548
                },
                {
                    "name": "A#4",
                    "midi": 70,
                    "time": 366.6065969999984,
                    "velocity": 0.1732283464566929,
                    "duration": 0.13514794999997548
                },
                {
                    "name": "F4",
                    "midi": 65,
                    "time": 366.74885799999834,
                    "velocity": 0.14173228346456693,
                    "duration": 0.13514794999997548
                },
                {
                    "name": "D4",
                    "midi": 62,
                    "time": 366.74885799999834,
                    "velocity": 0.11811023622047244,
                    "duration": 0.13514794999997548
                },
                {
                    "name": "A#4",
                    "midi": 70,
                    "time": 366.74885799999834,
                    "velocity": 0.1732283464566929,
                    "duration": 0.13514794999997548
                },
                {
                    "name": "F4",
                    "midi": 65,
                    "time": 366.8911189999983,
                    "velocity": 0.14173228346456693,
                    "duration": 0.13514794999997548
                },
                {
                    "name": "D4",
                    "midi": 62,
                    "time": 366.8911189999983,
                    "velocity": 0.11811023622047244,
                    "duration": 0.13514794999997548
                },
                {
                    "name": "A#4",
                    "midi": 70,
                    "time": 366.8911189999983,
                    "velocity": 0.1732283464566929,
                    "duration": 0.13514794999997548
                },
                {
                    "name": "C2",
                    "midi": 36,
                    "time": 367.5668587499983,
                    "velocity": 0.2125984251968504,
                    "duration": 0.035565249999990556
                },
                {
                    "name": "A#1",
                    "midi": 34,
                    "time": 367.6024239999983,
                    "velocity": 0.2125984251968504,
                    "duration": 0.053347874999985834
                },
                {
                    "name": "C2",
                    "midi": 36,
                    "time": 367.63798924999827,
                    "velocity": 0.18110236220472442,
                    "duration": 0.053347874999985834
                },
                {
                    "name": "A#1",
                    "midi": 34,
                    "time": 367.67355449999826,
                    "velocity": 0.1889763779527559,
                    "duration": 0.053347874999985834
                },
                {
                    "name": "C2",
                    "midi": 36,
                    "time": 367.70911974999825,
                    "velocity": 0.1732283464566929,
                    "duration": 0.053347874999985834
                },
                {
                    "name": "A#1",
                    "midi": 34,
                    "time": 367.74468499999824,
                    "velocity": 0.1889763779527559,
                    "duration": 0.053347874999985834
                },
                {
                    "name": "C2",
                    "midi": 36,
                    "time": 367.78025024999823,
                    "velocity": 0.1732283464566929,
                    "duration": 0.053347874999985834
                },
                {
                    "name": "A#1",
                    "midi": 34,
                    "time": 367.8158154999982,
                    "velocity": 0.2047244094488189,
                    "duration": 0.053347874999985834
                },
                {
                    "name": "C2",
                    "midi": 36,
                    "time": 367.8513807499982,
                    "velocity": 0.1968503937007874,
                    "duration": 0.053347874999985834
                },
                {
                    "name": "A#1",
                    "midi": 34,
                    "time": 367.8869459999982,
                    "velocity": 0.2125984251968504,
                    "duration": 0.053347874999985834
                },
                {
                    "name": "C2",
                    "midi": 36,
                    "time": 367.9225112499982,
                    "velocity": 0.1889763779527559,
                    "duration": 0.053347874999985834
                },
                {
                    "name": "A#1",
                    "midi": 34,
                    "time": 367.9580764999982,
                    "velocity": 0.2204724409448819,
                    "duration": 0.053347874999985834
                },
                {
                    "name": "C2",
                    "midi": 36,
                    "time": 367.9936417499982,
                    "velocity": 0.18110236220472442,
                    "duration": 0.053347874999985834
                },
                {
                    "name": "A#1",
                    "midi": 34,
                    "time": 368.02920699999817,
                    "velocity": 0.2125984251968504,
                    "duration": 0.053347874999985834
                },
                {
                    "name": "C2",
                    "midi": 36,
                    "time": 368.06477224999816,
                    "velocity": 0.1968503937007874,
                    "duration": 0.053347874999985834
                },
                {
                    "name": "A#1",
                    "midi": 34,
                    "time": 368.10033749999815,
                    "velocity": 0.2047244094488189,
                    "duration": 0.053347874999985834
                },
                {
                    "name": "C2",
                    "midi": 36,
                    "time": 368.13590274999814,
                    "velocity": 0.1889763779527559,
                    "duration": 0.053347874999985834
                },
                {
                    "name": "A#1",
                    "midi": 34,
                    "time": 368.17146799999813,
                    "velocity": 0.2283464566929134,
                    "duration": 0.053347874999985834
                },
                {
                    "name": "C2",
                    "midi": 36,
                    "time": 368.2070332499981,
                    "velocity": 0.2047244094488189,
                    "duration": 0.053347874999985834
                },
                {
                    "name": "A#1",
                    "midi": 34,
                    "time": 368.2425984999981,
                    "velocity": 0.2204724409448819,
                    "duration": 0.053347874999985834
                },
                {
                    "name": "C2",
                    "midi": 36,
                    "time": 368.2781637499981,
                    "velocity": 0.2047244094488189,
                    "duration": 0.053347874999985834
                },
                {
                    "name": "A#1",
                    "midi": 34,
                    "time": 368.3137289999981,
                    "velocity": 0.2283464566929134,
                    "duration": 0.053347874999985834
                },
                {
                    "name": "C2",
                    "midi": 36,
                    "time": 368.3492942499981,
                    "velocity": 0.1968503937007874,
                    "duration": 0.053347874999985834
                },
                {
                    "name": "A#1",
                    "midi": 34,
                    "time": 368.3848594999981,
                    "velocity": 0.2283464566929134,
                    "duration": 0.053347874999985834
                },
                {
                    "name": "C2",
                    "midi": 36,
                    "time": 368.42042474999806,
                    "velocity": 0.2047244094488189,
                    "duration": 0.053347874999985834
                },
                {
                    "name": "A#1",
                    "midi": 34,
                    "time": 368.45598999999805,
                    "velocity": 0.25196850393700787,
                    "duration": 0.053347874999985834
                },
                {
                    "name": "C2",
                    "midi": 36,
                    "time": 368.49155524999804,
                    "velocity": 0.2125984251968504,
                    "duration": 0.053347874999985834
                },
                {
                    "name": "A#1",
                    "midi": 34,
                    "time": 368.52712049999803,
                    "velocity": 0.2440944881889764,
                    "duration": 0.053347874999985834
                },
                {
                    "name": "C2",
                    "midi": 36,
                    "time": 368.562685749998,
                    "velocity": 0.2047244094488189,
                    "duration": 0.053347874999985834
                },
                {
                    "name": "A1",
                    "midi": 33,
                    "time": 368.598250999998,
                    "velocity": 0.2677165354330709,
                    "duration": 0.059275416666650926
                },
                {
                    "name": "A#1",
                    "midi": 34,
                    "time": 368.64567133333134,
                    "velocity": 0.2992125984251969,
                    "duration": 0.059275416666650926
                },
                {
                    "name": "C2",
                    "midi": 36,
                    "time": 368.69309166666466,
                    "velocity": 0.31496062992125984,
                    "duration": 0.059275416666650926
                },
                {
                    "name": "D2",
                    "midi": 38,
                    "time": 368.740511999998,
                    "velocity": 0.33070866141732286,
                    "duration": 0.07113049999998111
                },
                {
                    "name": "A4",
                    "midi": 69,
                    "time": 369.30955599999794,
                    "velocity": 0.2125984251968504,
                    "duration": 0.13514794999997548
                },
                {
                    "name": "F4",
                    "midi": 65,
                    "time": 369.30955599999794,
                    "velocity": 0.18110236220472442,
                    "duration": 0.13514794999997548
                },
                {
                    "name": "D4",
                    "midi": 62,
                    "time": 369.30955599999794,
                    "velocity": 0.14960629921259844,
                    "duration": 0.13514794999997548
                },
                {
                    "name": "A4",
                    "midi": 69,
                    "time": 369.4518169999979,
                    "velocity": 0.2125984251968504,
                    "duration": 0.13514794999997548
                },
                {
                    "name": "F4",
                    "midi": 65,
                    "time": 369.4518169999979,
                    "velocity": 0.18110236220472442,
                    "duration": 0.13514794999997548
                },
                {
                    "name": "D4",
                    "midi": 62,
                    "time": 369.4518169999979,
                    "velocity": 0.14960629921259844,
                    "duration": 0.13514794999997548
                },
                {
                    "name": "A4",
                    "midi": 69,
                    "time": 369.59407799999786,
                    "velocity": 0.1889763779527559,
                    "duration": 0.13514794999997548
                },
                {
                    "name": "F4",
                    "midi": 65,
                    "time": 369.59407799999786,
                    "velocity": 0.15748031496062992,
                    "duration": 0.13514794999997548
                },
                {
                    "name": "D4",
                    "midi": 62,
                    "time": 369.59407799999786,
                    "velocity": 0.13385826771653545,
                    "duration": 0.13514794999997548
                },
                {
                    "name": "A4",
                    "midi": 69,
                    "time": 369.7363389999978,
                    "velocity": 0.1889763779527559,
                    "duration": 0.13514794999997548
                },
                {
                    "name": "F4",
                    "midi": 65,
                    "time": 369.7363389999978,
                    "velocity": 0.15748031496062992,
                    "duration": 0.13514794999997548
                },
                {
                    "name": "D4",
                    "midi": 62,
                    "time": 369.7363389999978,
                    "velocity": 0.13385826771653545,
                    "duration": 0.13514794999997548
                },
                {
                    "name": "A4",
                    "midi": 69,
                    "time": 369.8785999999978,
                    "velocity": 0.1889763779527559,
                    "duration": 0.13514794999997548
                },
                {
                    "name": "F4",
                    "midi": 65,
                    "time": 369.8785999999978,
                    "velocity": 0.15748031496062992,
                    "duration": 0.13514794999997548
                },
                {
                    "name": "D4",
                    "midi": 62,
                    "time": 369.8785999999978,
                    "velocity": 0.13385826771653545,
                    "duration": 0.13514794999997548
                },
                {
                    "name": "A4",
                    "midi": 69,
                    "time": 370.02086099999775,
                    "velocity": 0.1889763779527559,
                    "duration": 0.13514794999997548
                },
                {
                    "name": "F4",
                    "midi": 65,
                    "time": 370.02086099999775,
                    "velocity": 0.15748031496062992,
                    "duration": 0.13514794999997548
                },
                {
                    "name": "D4",
                    "midi": 62,
                    "time": 370.02086099999775,
                    "velocity": 0.13385826771653545,
                    "duration": 0.13514794999997548
                },
                {
                    "name": "A4",
                    "midi": 69,
                    "time": 370.1631219999977,
                    "velocity": 0.1889763779527559,
                    "duration": 0.13514794999997548
                },
                {
                    "name": "F4",
                    "midi": 65,
                    "time": 370.1631219999977,
                    "velocity": 0.15748031496062992,
                    "duration": 0.13514794999997548
                },
                {
                    "name": "D4",
                    "midi": 62,
                    "time": 370.1631219999977,
                    "velocity": 0.13385826771653545,
                    "duration": 0.13514794999997548
                },
                {
                    "name": "A4",
                    "midi": 69,
                    "time": 370.3053829999977,
                    "velocity": 0.1889763779527559,
                    "duration": 0.13514794999997548
                },
                {
                    "name": "F4",
                    "midi": 65,
                    "time": 370.3053829999977,
                    "velocity": 0.15748031496062992,
                    "duration": 0.13514794999997548
                },
                {
                    "name": "D4",
                    "midi": 62,
                    "time": 370.3053829999977,
                    "velocity": 0.13385826771653545,
                    "duration": 0.13514794999997548
                },
                {
                    "name": "A4",
                    "midi": 69,
                    "time": 370.44764399999764,
                    "velocity": 0.1889763779527559,
                    "duration": 0.13514794999997548
                },
                {
                    "name": "F4",
                    "midi": 65,
                    "time": 370.44764399999764,
                    "velocity": 0.15748031496062992,
                    "duration": 0.13514794999997548
                },
                {
                    "name": "D4",
                    "midi": 62,
                    "time": 370.44764399999764,
                    "velocity": 0.13385826771653545,
                    "duration": 0.13514794999997548
                },
                {
                    "name": "A4",
                    "midi": 69,
                    "time": 370.5899049999976,
                    "velocity": 0.1889763779527559,
                    "duration": 0.13514794999997548
                },
                {
                    "name": "F4",
                    "midi": 65,
                    "time": 370.5899049999976,
                    "velocity": 0.15748031496062992,
                    "duration": 0.13514794999997548
                },
                {
                    "name": "D4",
                    "midi": 62,
                    "time": 370.5899049999976,
                    "velocity": 0.13385826771653545,
                    "duration": 0.13514794999997548
                },
                {
                    "name": "A4",
                    "midi": 69,
                    "time": 370.73216599999756,
                    "velocity": 0.1889763779527559,
                    "duration": 0.13514794999997548
                },
                {
                    "name": "F4",
                    "midi": 65,
                    "time": 370.73216599999756,
                    "velocity": 0.15748031496062992,
                    "duration": 0.13514794999997548
                },
                {
                    "name": "D4",
                    "midi": 62,
                    "time": 370.73216599999756,
                    "velocity": 0.13385826771653545,
                    "duration": 0.13514794999997548
                },
                {
                    "name": "A4",
                    "midi": 69,
                    "time": 370.8744269999975,
                    "velocity": 0.1889763779527559,
                    "duration": 0.13514794999997548
                },
                {
                    "name": "F4",
                    "midi": 65,
                    "time": 370.8744269999975,
                    "velocity": 0.15748031496062992,
                    "duration": 0.13514794999997548
                },
                {
                    "name": "D4",
                    "midi": 62,
                    "time": 370.8744269999975,
                    "velocity": 0.13385826771653545,
                    "duration": 0.13514794999997548
                },
                {
                    "name": "A4",
                    "midi": 69,
                    "time": 371.0166879999975,
                    "velocity": 0.1889763779527559,
                    "duration": 0.13514794999997548
                },
                {
                    "name": "F4",
                    "midi": 65,
                    "time": 371.0166879999975,
                    "velocity": 0.15748031496062992,
                    "duration": 0.13514794999997548
                },
                {
                    "name": "D4",
                    "midi": 62,
                    "time": 371.0166879999975,
                    "velocity": 0.13385826771653545,
                    "duration": 0.13514794999997548
                },
                {
                    "name": "A4",
                    "midi": 69,
                    "time": 371.15894899999745,
                    "velocity": 0.1889763779527559,
                    "duration": 0.13514794999997548
                },
                {
                    "name": "F4",
                    "midi": 65,
                    "time": 371.15894899999745,
                    "velocity": 0.15748031496062992,
                    "duration": 0.13514794999997548
                },
                {
                    "name": "D4",
                    "midi": 62,
                    "time": 371.15894899999745,
                    "velocity": 0.13385826771653545,
                    "duration": 0.13514794999997548
                },
                {
                    "name": "A4",
                    "midi": 69,
                    "time": 371.3012099999974,
                    "velocity": 0.1968503937007874,
                    "duration": 0.13514794999997548
                },
                {
                    "name": "F4",
                    "midi": 65,
                    "time": 371.3012099999974,
                    "velocity": 0.16535433070866143,
                    "duration": 0.13514794999997548
                },
                {
                    "name": "C#4",
                    "midi": 61,
                    "time": 371.3012099999974,
                    "velocity": 0.13385826771653545,
                    "duration": 0.13514794999997548
                },
                {
                    "name": "A4",
                    "midi": 69,
                    "time": 371.4434709999974,
                    "velocity": 0.1968503937007874,
                    "duration": 0.13514794999997548
                },
                {
                    "name": "F4",
                    "midi": 65,
                    "time": 371.4434709999974,
                    "velocity": 0.16535433070866143,
                    "duration": 0.13514794999997548
                },
                {
                    "name": "C#4",
                    "midi": 61,
                    "time": 371.4434709999974,
                    "velocity": 0.13385826771653545,
                    "duration": 0.13514794999997548
                },
                {
                    "name": "A4",
                    "midi": 69,
                    "time": 371.58573199999734,
                    "velocity": 0.1968503937007874,
                    "duration": 0.13514794999997548
                },
                {
                    "name": "F4",
                    "midi": 65,
                    "time": 371.58573199999734,
                    "velocity": 0.16535433070866143,
                    "duration": 0.13514794999997548
                },
                {
                    "name": "C4",
                    "midi": 60,
                    "time": 371.58573199999734,
                    "velocity": 0.13385826771653545,
                    "duration": 0.13514794999997548
                },
                {
                    "name": "A4",
                    "midi": 69,
                    "time": 371.7279929999973,
                    "velocity": 0.1968503937007874,
                    "duration": 0.13514794999997548
                },
                {
                    "name": "F4",
                    "midi": 65,
                    "time": 371.7279929999973,
                    "velocity": 0.16535433070866143,
                    "duration": 0.13514794999997548
                },
                {
                    "name": "C4",
                    "midi": 60,
                    "time": 371.7279929999973,
                    "velocity": 0.13385826771653545,
                    "duration": 0.13514794999997548
                },
                {
                    "name": "A4",
                    "midi": 69,
                    "time": 371.87025399999726,
                    "velocity": 0.1968503937007874,
                    "duration": 0.13514794999997548
                },
                {
                    "name": "F4",
                    "midi": 65,
                    "time": 371.87025399999726,
                    "velocity": 0.16535433070866143,
                    "duration": 0.13514794999997548
                },
                {
                    "name": "B3",
                    "midi": 59,
                    "time": 371.87025399999726,
                    "velocity": 0.13385826771653545,
                    "duration": 0.13514794999997548
                },
                {
                    "name": "A4",
                    "midi": 69,
                    "time": 372.0125149999972,
                    "velocity": 0.1968503937007874,
                    "duration": 0.13514794999997548
                },
                {
                    "name": "F4",
                    "midi": 65,
                    "time": 372.0125149999972,
                    "velocity": 0.16535433070866143,
                    "duration": 0.13514794999997548
                },
                {
                    "name": "B3",
                    "midi": 59,
                    "time": 372.0125149999972,
                    "velocity": 0.13385826771653545,
                    "duration": 0.13514794999997548
                },
                {
                    "name": "A#3",
                    "midi": 58,
                    "time": 372.1547759999972,
                    "velocity": 0.13385826771653545,
                    "duration": 0.13514794999997548
                },
                {
                    "name": "F4",
                    "midi": 65,
                    "time": 372.1547759999972,
                    "velocity": 0.16535433070866143,
                    "duration": 0.13514794999997548
                },
                {
                    "name": "G4",
                    "midi": 67,
                    "time": 372.1547759999972,
                    "velocity": 0.1968503937007874,
                    "duration": 0.13514794999997548
                },
                {
                    "name": "A#3",
                    "midi": 58,
                    "time": 372.29703699999715,
                    "velocity": 0.13385826771653545,
                    "duration": 0.13514794999997548
                },
                {
                    "name": "F4",
                    "midi": 65,
                    "time": 372.29703699999715,
                    "velocity": 0.16535433070866143,
                    "duration": 0.13514794999997548
                },
                {
                    "name": "G4",
                    "midi": 67,
                    "time": 372.29703699999715,
                    "velocity": 0.1968503937007874,
                    "duration": 0.13514794999997548
                },
                {
                    "name": "A#3",
                    "midi": 58,
                    "time": 372.4392979999971,
                    "velocity": 0.13385826771653545,
                    "duration": 0.13514794999997548
                },
                {
                    "name": "D4",
                    "midi": 62,
                    "time": 372.4392979999971,
                    "velocity": 0.16535433070866143,
                    "duration": 0.13514794999997548
                },
                {
                    "name": "G4",
                    "midi": 67,
                    "time": 372.4392979999971,
                    "velocity": 0.1968503937007874,
                    "duration": 0.13514794999997548
                },
                {
                    "name": "A#3",
                    "midi": 58,
                    "time": 372.58155899999707,
                    "velocity": 0.13385826771653545,
                    "duration": 0.13514794999997548
                },
                {
                    "name": "D4",
                    "midi": 62,
                    "time": 372.58155899999707,
                    "velocity": 0.16535433070866143,
                    "duration": 0.13514794999997548
                },
                {
                    "name": "G4",
                    "midi": 67,
                    "time": 372.58155899999707,
                    "velocity": 0.1968503937007874,
                    "duration": 0.13514794999997548
                },
                {
                    "name": "A#3",
                    "midi": 58,
                    "time": 372.72381999999703,
                    "velocity": 0.13385826771653545,
                    "duration": 0.13514794999997548
                },
                {
                    "name": "E4",
                    "midi": 64,
                    "time": 372.72381999999703,
                    "velocity": 0.16535433070866143,
                    "duration": 0.13514794999997548
                },
                {
                    "name": "G4",
                    "midi": 67,
                    "time": 372.72381999999703,
                    "velocity": 0.1968503937007874,
                    "duration": 0.13514794999997548
                },
                {
                    "name": "A#3",
                    "midi": 58,
                    "time": 372.866080999997,
                    "velocity": 0.13385826771653545,
                    "duration": 0.13514794999997548
                },
                {
                    "name": "E4",
                    "midi": 64,
                    "time": 372.866080999997,
                    "velocity": 0.16535433070866143,
                    "duration": 0.13514794999997548
                },
                {
                    "name": "G4",
                    "midi": 67,
                    "time": 372.866080999997,
                    "velocity": 0.1968503937007874,
                    "duration": 0.13514794999997548
                },
                {
                    "name": "A#3",
                    "midi": 58,
                    "time": 373.00834199999696,
                    "velocity": 0.13385826771653545,
                    "duration": 0.13514794999997548
                },
                {
                    "name": "C4",
                    "midi": 60,
                    "time": 373.00834199999696,
                    "velocity": 0.16535433070866143,
                    "duration": 0.13514794999997548
                },
                {
                    "name": "G4",
                    "midi": 67,
                    "time": 373.00834199999696,
                    "velocity": 0.1968503937007874,
                    "duration": 0.13514794999997548
                },
                {
                    "name": "A#3",
                    "midi": 58,
                    "time": 373.1506029999969,
                    "velocity": 0.13385826771653545,
                    "duration": 0.13514794999997548
                },
                {
                    "name": "C4",
                    "midi": 60,
                    "time": 373.1506029999969,
                    "velocity": 0.16535433070866143,
                    "duration": 0.13514794999997548
                },
                {
                    "name": "G4",
                    "midi": 67,
                    "time": 373.1506029999969,
                    "velocity": 0.1968503937007874,
                    "duration": 0.13514794999997548
                },
                {
                    "name": "A3",
                    "midi": 57,
                    "time": 373.2928639999969,
                    "velocity": 0.1889763779527559,
                    "duration": 0.13514794999997548
                },
                {
                    "name": "C4",
                    "midi": 60,
                    "time": 373.2928639999969,
                    "velocity": 0.2283464566929134,
                    "duration": 0.13514794999997548
                },
                {
                    "name": "D#4",
                    "midi": 63,
                    "time": 373.2928639999969,
                    "velocity": 0.2755905511811024,
                    "duration": 0.13514794999997548
                },
                {
                    "name": "F4",
                    "midi": 65,
                    "time": 373.2928639999969,
                    "velocity": 0.2755905511811024,
                    "duration": 0.13514794999997548
                },
                {
                    "name": "A3",
                    "midi": 57,
                    "time": 373.43512499999684,
                    "velocity": 0.14173228346456693,
                    "duration": 0.13514794999997548
                },
                {
                    "name": "C4",
                    "midi": 60,
                    "time": 373.43512499999684,
                    "velocity": 0.1732283464566929,
                    "duration": 0.13514794999997548
                },
                {
                    "name": "D#4",
                    "midi": 63,
                    "time": 373.43512499999684,
                    "velocity": 0.2125984251968504,
                    "duration": 0.13514794999997548
                },
                {
                    "name": "F4",
                    "midi": 65,
                    "time": 373.43512499999684,
                    "velocity": 0.2125984251968504,
                    "duration": 0.13514794999997548
                },
                {
                    "name": "A3",
                    "midi": 57,
                    "time": 373.5773859999968,
                    "velocity": 0.14960629921259844,
                    "duration": 0.13514794999997548
                },
                {
                    "name": "C4",
                    "midi": 60,
                    "time": 373.5773859999968,
                    "velocity": 0.18110236220472442,
                    "duration": 0.13514794999997548
                },
                {
                    "name": "D#4",
                    "midi": 63,
                    "time": 373.5773859999968,
                    "velocity": 0.2125984251968504,
                    "duration": 0.13514794999997548
                },
                {
                    "name": "F4",
                    "midi": 65,
                    "time": 373.5773859999968,
                    "velocity": 0.2125984251968504,
                    "duration": 0.13514794999997548
                },
                {
                    "name": "A3",
                    "midi": 57,
                    "time": 373.71964699999677,
                    "velocity": 0.14960629921259844,
                    "duration": 0.13514794999997548
                },
                {
                    "name": "C4",
                    "midi": 60,
                    "time": 373.71964699999677,
                    "velocity": 0.18110236220472442,
                    "duration": 0.13514794999997548
                },
                {
                    "name": "D#4",
                    "midi": 63,
                    "time": 373.71964699999677,
                    "velocity": 0.2125984251968504,
                    "duration": 0.13514794999997548
                },
                {
                    "name": "F4",
                    "midi": 65,
                    "time": 373.71964699999677,
                    "velocity": 0.2125984251968504,
                    "duration": 0.13514794999997548
                },
                {
                    "name": "A3",
                    "midi": 57,
                    "time": 373.86190799999673,
                    "velocity": 0.14960629921259844,
                    "duration": 0.13514794999997548
                },
                {
                    "name": "C4",
                    "midi": 60,
                    "time": 373.86190799999673,
                    "velocity": 0.18110236220472442,
                    "duration": 0.13514794999997548
                },
                {
                    "name": "D#4",
                    "midi": 63,
                    "time": 373.86190799999673,
                    "velocity": 0.2125984251968504,
                    "duration": 0.13514794999997548
                },
                {
                    "name": "F4",
                    "midi": 65,
                    "time": 373.86190799999673,
                    "velocity": 0.2125984251968504,
                    "duration": 0.13514794999997548
                },
                {
                    "name": "A3",
                    "midi": 57,
                    "time": 374.0041689999967,
                    "velocity": 0.14960629921259844,
                    "duration": 0.13514794999997548
                },
                {
                    "name": "C4",
                    "midi": 60,
                    "time": 374.0041689999967,
                    "velocity": 0.18110236220472442,
                    "duration": 0.13514794999997548
                },
                {
                    "name": "D#4",
                    "midi": 63,
                    "time": 374.0041689999967,
                    "velocity": 0.2125984251968504,
                    "duration": 0.13514794999997548
                },
                {
                    "name": "F4",
                    "midi": 65,
                    "time": 374.0041689999967,
                    "velocity": 0.2125984251968504,
                    "duration": 0.13514794999997548
                },
                {
                    "name": "A3",
                    "midi": 57,
                    "time": 374.14642999999666,
                    "velocity": 0.14960629921259844,
                    "duration": 0.13514794999997548
                },
                {
                    "name": "C4",
                    "midi": 60,
                    "time": 374.14642999999666,
                    "velocity": 0.18110236220472442,
                    "duration": 0.13514794999997548
                },
                {
                    "name": "D#4",
                    "midi": 63,
                    "time": 374.14642999999666,
                    "velocity": 0.2125984251968504,
                    "duration": 0.13514794999997548
                },
                {
                    "name": "F4",
                    "midi": 65,
                    "time": 374.14642999999666,
                    "velocity": 0.2125984251968504,
                    "duration": 0.13514794999997548
                },
                {
                    "name": "A3",
                    "midi": 57,
                    "time": 374.2886909999966,
                    "velocity": 0.14960629921259844,
                    "duration": 0.13514794999997548
                },
                {
                    "name": "C4",
                    "midi": 60,
                    "time": 374.2886909999966,
                    "velocity": 0.18110236220472442,
                    "duration": 0.13514794999997548
                },
                {
                    "name": "D#4",
                    "midi": 63,
                    "time": 374.2886909999966,
                    "velocity": 0.2125984251968504,
                    "duration": 0.13514794999997548
                },
                {
                    "name": "F4",
                    "midi": 65,
                    "time": 374.2886909999966,
                    "velocity": 0.2125984251968504,
                    "duration": 0.13514794999997548
                },
                {
                    "name": "A3",
                    "midi": 57,
                    "time": 374.4309519999966,
                    "velocity": 0.16535433070866143,
                    "duration": 0.2702959000000078
                },
                {
                    "name": "C4",
                    "midi": 60,
                    "time": 374.4309519999966,
                    "velocity": 0.1968503937007874,
                    "duration": 0.2702959000000078
                },
                {
                    "name": "D#4",
                    "midi": 63,
                    "time": 374.4309519999966,
                    "velocity": 0.23622047244094488,
                    "duration": 0.2702959000000078
                },
                {
                    "name": "F4",
                    "midi": 65,
                    "time": 374.4309519999966,
                    "velocity": 0.23622047244094488,
                    "duration": 0.2702959000000078
                },
                {
                    "name": "A3",
                    "midi": 57,
                    "time": 376.7071279999966,
                    "velocity": 0.1732283464566929,
                    "duration": 0.13514794999997548
                },
                {
                    "name": "C4",
                    "midi": 60,
                    "time": 376.7071279999966,
                    "velocity": 0.2047244094488189,
                    "duration": 0.13514794999997548
                },
                {
                    "name": "D#4",
                    "midi": 63,
                    "time": 376.7071279999966,
                    "velocity": 0.2440944881889764,
                    "duration": 0.13514794999997548
                },
                {
                    "name": "F#4",
                    "midi": 66,
                    "time": 376.7071279999966,
                    "velocity": 0.2440944881889764,
                    "duration": 0.13514794999997548
                },
                {
                    "name": "A3",
                    "midi": 57,
                    "time": 376.84938899999656,
                    "velocity": 0.13385826771653545,
                    "duration": 0.13514794999997548
                },
                {
                    "name": "C4",
                    "midi": 60,
                    "time": 376.84938899999656,
                    "velocity": 0.15748031496062992,
                    "duration": 0.13514794999997548
                },
                {
                    "name": "D#4",
                    "midi": 63,
                    "time": 376.84938899999656,
                    "velocity": 0.1889763779527559,
                    "duration": 0.13514794999997548
                },
                {
                    "name": "F#4",
                    "midi": 66,
                    "time": 376.84938899999656,
                    "velocity": 0.1889763779527559,
                    "duration": 0.13514794999997548
                },
                {
                    "name": "A3",
                    "midi": 57,
                    "time": 376.9916499999965,
                    "velocity": 0.13385826771653545,
                    "duration": 0.13514794999997548
                },
                {
                    "name": "C4",
                    "midi": 60,
                    "time": 376.9916499999965,
                    "velocity": 0.15748031496062992,
                    "duration": 0.13514794999997548
                },
                {
                    "name": "D#4",
                    "midi": 63,
                    "time": 376.9916499999965,
                    "velocity": 0.1889763779527559,
                    "duration": 0.13514794999997548
                },
                {
                    "name": "F#4",
                    "midi": 66,
                    "time": 376.9916499999965,
                    "velocity": 0.1889763779527559,
                    "duration": 0.13514794999997548
                },
                {
                    "name": "A3",
                    "midi": 57,
                    "time": 377.1339109999965,
                    "velocity": 0.13385826771653545,
                    "duration": 0.13514794999997548
                },
                {
                    "name": "C4",
                    "midi": 60,
                    "time": 377.1339109999965,
                    "velocity": 0.15748031496062992,
                    "duration": 0.13514794999997548
                },
                {
                    "name": "D#4",
                    "midi": 63,
                    "time": 377.1339109999965,
                    "velocity": 0.1889763779527559,
                    "duration": 0.13514794999997548
                },
                {
                    "name": "F#4",
                    "midi": 66,
                    "time": 377.1339109999965,
                    "velocity": 0.1889763779527559,
                    "duration": 0.13514794999997548
                },
                {
                    "name": "A3",
                    "midi": 57,
                    "time": 377.27617199999645,
                    "velocity": 0.13385826771653545,
                    "duration": 0.13514794999997548
                },
                {
                    "name": "C4",
                    "midi": 60,
                    "time": 377.27617199999645,
                    "velocity": 0.15748031496062992,
                    "duration": 0.13514794999997548
                },
                {
                    "name": "D#4",
                    "midi": 63,
                    "time": 377.27617199999645,
                    "velocity": 0.1889763779527559,
                    "duration": 0.13514794999997548
                },
                {
                    "name": "F#4",
                    "midi": 66,
                    "time": 377.27617199999645,
                    "velocity": 0.1889763779527559,
                    "duration": 0.13514794999997548
                },
                {
                    "name": "A3",
                    "midi": 57,
                    "time": 377.4184329999964,
                    "velocity": 0.13385826771653545,
                    "duration": 0.13514794999997548
                },
                {
                    "name": "C4",
                    "midi": 60,
                    "time": 377.4184329999964,
                    "velocity": 0.15748031496062992,
                    "duration": 0.13514794999997548
                },
                {
                    "name": "D#4",
                    "midi": 63,
                    "time": 377.4184329999964,
                    "velocity": 0.1889763779527559,
                    "duration": 0.13514794999997548
                },
                {
                    "name": "F#4",
                    "midi": 66,
                    "time": 377.4184329999964,
                    "velocity": 0.1889763779527559,
                    "duration": 0.13514794999997548
                },
                {
                    "name": "A3",
                    "midi": 57,
                    "time": 377.5606939999964,
                    "velocity": 0.13385826771653545,
                    "duration": 0.13514794999997548
                },
                {
                    "name": "C4",
                    "midi": 60,
                    "time": 377.5606939999964,
                    "velocity": 0.15748031496062992,
                    "duration": 0.13514794999997548
                },
                {
                    "name": "D#4",
                    "midi": 63,
                    "time": 377.5606939999964,
                    "velocity": 0.1889763779527559,
                    "duration": 0.13514794999997548
                },
                {
                    "name": "F#4",
                    "midi": 66,
                    "time": 377.5606939999964,
                    "velocity": 0.1889763779527559,
                    "duration": 0.13514794999997548
                },
                {
                    "name": "A3",
                    "midi": 57,
                    "time": 377.70295499999634,
                    "velocity": 0.13385826771653545,
                    "duration": 0.13514794999997548
                },
                {
                    "name": "C4",
                    "midi": 60,
                    "time": 377.70295499999634,
                    "velocity": 0.15748031496062992,
                    "duration": 0.13514794999997548
                },
                {
                    "name": "D#4",
                    "midi": 63,
                    "time": 377.70295499999634,
                    "velocity": 0.1889763779527559,
                    "duration": 0.13514794999997548
                },
                {
                    "name": "F#4",
                    "midi": 66,
                    "time": 377.70295499999634,
                    "velocity": 0.1889763779527559,
                    "duration": 0.13514794999997548
                },
                {
                    "name": "A3",
                    "midi": 57,
                    "time": 377.8452159999963,
                    "velocity": 0.14173228346456693,
                    "duration": 0.2702959000000078
                },
                {
                    "name": "C4",
                    "midi": 60,
                    "time": 377.8452159999963,
                    "velocity": 0.1732283464566929,
                    "duration": 0.2702959000000078
                },
                {
                    "name": "D#4",
                    "midi": 63,
                    "time": 377.8452159999963,
                    "velocity": 0.2125984251968504,
                    "duration": 0.2702959000000078
                },
                {
                    "name": "F#4",
                    "midi": 66,
                    "time": 377.8452159999963,
                    "velocity": 0.2125984251968504,
                    "duration": 0.2702959000000078
                },
                {
                    "name": "A3",
                    "midi": 57,
                    "time": 378.9833039999963,
                    "velocity": 0.13385826771653545,
                    "duration": 0.13514794999997548
                },
                {
                    "name": "C4",
                    "midi": 60,
                    "time": 378.9833039999963,
                    "velocity": 0.16535433070866143,
                    "duration": 0.13514794999997548
                },
                {
                    "name": "D#4",
                    "midi": 63,
                    "time": 378.9833039999963,
                    "velocity": 0.16535433070866143,
                    "duration": 0.13514794999997548
                },
                {
                    "name": "F4",
                    "midi": 65,
                    "time": 378.9833039999963,
                    "velocity": 0.1968503937007874,
                    "duration": 0.13514794999997548
                },
                {
                    "name": "A3",
                    "midi": 57,
                    "time": 379.12556499999624,
                    "velocity": 0.13385826771653545,
                    "duration": 0.13514794999997548
                },
                {
                    "name": "C4",
                    "midi": 60,
                    "time": 379.12556499999624,
                    "velocity": 0.16535433070866143,
                    "duration": 0.13514794999997548
                },
                {
                    "name": "D#4",
                    "midi": 63,
                    "time": 379.12556499999624,
                    "velocity": 0.1968503937007874,
                    "duration": 0.13514794999997548
                },
                {
                    "name": "F4",
                    "midi": 65,
                    "time": 379.12556499999624,
                    "velocity": 0.1968503937007874,
                    "duration": 0.13514794999997548
                },
                {
                    "name": "A3",
                    "midi": 57,
                    "time": 379.2678259999962,
                    "velocity": 0.14173228346456693,
                    "duration": 0.13514794999997548
                },
                {
                    "name": "C4",
                    "midi": 60,
                    "time": 379.2678259999962,
                    "velocity": 0.1732283464566929,
                    "duration": 0.13514794999997548
                },
                {
                    "name": "D#4",
                    "midi": 63,
                    "time": 379.2678259999962,
                    "velocity": 0.2047244094488189,
                    "duration": 0.13514794999997548
                },
                {
                    "name": "F4",
                    "midi": 65,
                    "time": 379.2678259999962,
                    "velocity": 0.2047244094488189,
                    "duration": 0.13514794999997548
                },
                {
                    "name": "A3",
                    "midi": 57,
                    "time": 379.41008699999617,
                    "velocity": 0.14173228346456693,
                    "duration": 0.13514794999997548
                },
                {
                    "name": "C4",
                    "midi": 60,
                    "time": 379.41008699999617,
                    "velocity": 0.1732283464566929,
                    "duration": 0.13514794999997548
                },
                {
                    "name": "D#4",
                    "midi": 63,
                    "time": 379.41008699999617,
                    "velocity": 0.2047244094488189,
                    "duration": 0.13514794999997548
                },
                {
                    "name": "F4",
                    "midi": 65,
                    "time": 379.41008699999617,
                    "velocity": 0.2047244094488189,
                    "duration": 0.13514794999997548
                },
                {
                    "name": "A3",
                    "midi": 57,
                    "time": 379.55234799999613,
                    "velocity": 0.14173228346456693,
                    "duration": 0.13514794999997548
                },
                {
                    "name": "C4",
                    "midi": 60,
                    "time": 379.55234799999613,
                    "velocity": 0.1732283464566929,
                    "duration": 0.13514794999997548
                },
                {
                    "name": "D#4",
                    "midi": 63,
                    "time": 379.55234799999613,
                    "velocity": 0.2047244094488189,
                    "duration": 0.13514794999997548
                },
                {
                    "name": "F4",
                    "midi": 65,
                    "time": 379.55234799999613,
                    "velocity": 0.2047244094488189,
                    "duration": 0.13514794999997548
                },
                {
                    "name": "A3",
                    "midi": 57,
                    "time": 379.6946089999961,
                    "velocity": 0.14173228346456693,
                    "duration": 0.13514794999997548
                },
                {
                    "name": "C4",
                    "midi": 60,
                    "time": 379.6946089999961,
                    "velocity": 0.1732283464566929,
                    "duration": 0.13514794999997548
                },
                {
                    "name": "D#4",
                    "midi": 63,
                    "time": 379.6946089999961,
                    "velocity": 0.2047244094488189,
                    "duration": 0.13514794999997548
                },
                {
                    "name": "F4",
                    "midi": 65,
                    "time": 379.6946089999961,
                    "velocity": 0.2047244094488189,
                    "duration": 0.13514794999997548
                },
                {
                    "name": "A3",
                    "midi": 57,
                    "time": 379.83686999999605,
                    "velocity": 0.14173228346456693,
                    "duration": 0.13514794999997548
                },
                {
                    "name": "C4",
                    "midi": 60,
                    "time": 379.83686999999605,
                    "velocity": 0.1732283464566929,
                    "duration": 0.13514794999997548
                },
                {
                    "name": "D#4",
                    "midi": 63,
                    "time": 379.83686999999605,
                    "velocity": 0.2047244094488189,
                    "duration": 0.13514794999997548
                },
                {
                    "name": "F4",
                    "midi": 65,
                    "time": 379.83686999999605,
                    "velocity": 0.2047244094488189,
                    "duration": 0.13514794999997548
                },
                {
                    "name": "A3",
                    "midi": 57,
                    "time": 379.979130999996,
                    "velocity": 0.14173228346456693,
                    "duration": 0.13514794999997548
                },
                {
                    "name": "C4",
                    "midi": 60,
                    "time": 379.979130999996,
                    "velocity": 0.1732283464566929,
                    "duration": 0.13514794999997548
                },
                {
                    "name": "D#4",
                    "midi": 63,
                    "time": 379.979130999996,
                    "velocity": 0.2047244094488189,
                    "duration": 0.13514794999997548
                },
                {
                    "name": "F4",
                    "midi": 65,
                    "time": 379.979130999996,
                    "velocity": 0.2047244094488189,
                    "duration": 0.13514794999997548
                },
                {
                    "name": "A3",
                    "midi": 57,
                    "time": 380.121391999996,
                    "velocity": 0.1732283464566929,
                    "duration": 0.2845219999999813
                },
                {
                    "name": "C4",
                    "midi": 60,
                    "time": 380.121391999996,
                    "velocity": 0.1732283464566929,
                    "duration": 0.2845219999999813
                },
                {
                    "name": "D#4",
                    "midi": 63,
                    "time": 380.121391999996,
                    "velocity": 0.2125984251968504,
                    "duration": 0.2845219999999813
                },
                {
                    "name": "F4",
                    "midi": 65,
                    "time": 380.121391999996,
                    "velocity": 0.2125984251968504,
                    "duration": 0.2845219999999813
                },
                {
                    "name": "B3",
                    "midi": 59,
                    "time": 382.96661199999596,
                    "velocity": 0.25984251968503935,
                    "duration": 0.09484066666664148
                },
                {
                    "name": "A#3",
                    "midi": 58,
                    "time": 383.0614526666626,
                    "velocity": 0.25196850393700787,
                    "duration": 0.09484066666664148
                },
                {
                    "name": "A3",
                    "midi": 57,
                    "time": 383.15629333332924,
                    "velocity": 0.2440944881889764,
                    "duration": 0.09484066666664148
                },
                {
                    "name": "G#3",
                    "midi": 56,
                    "time": 383.2511339999959,
                    "velocity": 0.23622047244094488,
                    "duration": 0.09484066666664148
                },
                {
                    "name": "G3",
                    "midi": 55,
                    "time": 383.3459746666625,
                    "velocity": 0.2283464566929134,
                    "duration": 0.09484066666664148
                },
                {
                    "name": "F#3",
                    "midi": 54,
                    "time": 383.44081533332917,
                    "velocity": 0.2125984251968504,
                    "duration": 0.09484066666664148
                },
                {
                    "name": "G#3",
                    "midi": 56,
                    "time": 383.5356559999958,
                    "velocity": 0.1732283464566929,
                    "duration": 0.053347874999985834
                },
                {
                    "name": "F#3",
                    "midi": 54,
                    "time": 383.5712212499958,
                    "velocity": 0.14960629921259844,
                    "duration": 0.053347874999985834
                },
                {
                    "name": "G#3",
                    "midi": 56,
                    "time": 383.6067864999958,
                    "velocity": 0.15748031496062992,
                    "duration": 0.053347874999985834
                },
                {
                    "name": "F#3",
                    "midi": 54,
                    "time": 383.6423517499958,
                    "velocity": 0.14173228346456693,
                    "duration": 0.053347874999985834
                },
                {
                    "name": "G#3",
                    "midi": 56,
                    "time": 383.6779169999958,
                    "velocity": 0.15748031496062992,
                    "duration": 0.053347874999985834
                },
                {
                    "name": "F#3",
                    "midi": 54,
                    "time": 383.71348224999576,
                    "velocity": 0.14173228346456693,
                    "duration": 0.053347874999985834
                },
                {
                    "name": "G#3",
                    "midi": 56,
                    "time": 383.74904749999575,
                    "velocity": 0.16535433070866143,
                    "duration": 0.053347874999985834
                },
                {
                    "name": "F#3",
                    "midi": 54,
                    "time": 383.78461274999574,
                    "velocity": 0.15748031496062992,
                    "duration": 0.053347874999985834
                },
                {
                    "name": "G#3",
                    "midi": 56,
                    "time": 383.82017799999574,
                    "velocity": 0.1732283464566929,
                    "duration": 0.053347874999985834
                },
                {
                    "name": "F#3",
                    "midi": 54,
                    "time": 383.8557432499957,
                    "velocity": 0.14960629921259844,
                    "duration": 0.053347874999985834
                },
                {
                    "name": "G#3",
                    "midi": 56,
                    "time": 383.8913084999957,
                    "velocity": 0.1732283464566929,
                    "duration": 0.053347874999985834
                },
                {
                    "name": "F#3",
                    "midi": 54,
                    "time": 383.9268737499957,
                    "velocity": 0.14173228346456693,
                    "duration": 0.053347874999985834
                },
                {
                    "name": "G#3",
                    "midi": 56,
                    "time": 383.9624389999957,
                    "velocity": 0.16535433070866143,
                    "duration": 0.053347874999985834
                },
                {
                    "name": "F#3",
                    "midi": 54,
                    "time": 383.9980042499957,
                    "velocity": 0.14960629921259844,
                    "duration": 0.053347874999985834
                },
                {
                    "name": "G#3",
                    "midi": 56,
                    "time": 384.0335694999957,
                    "velocity": 0.15748031496062992,
                    "duration": 0.053347874999985834
                },
                {
                    "name": "F#3",
                    "midi": 54,
                    "time": 384.06913474999567,
                    "velocity": 0.14173228346456693,
                    "duration": 0.053347874999985834
                },
                {
                    "name": "G#3",
                    "midi": 56,
                    "time": 384.10469999999566,
                    "velocity": 0.1732283464566929,
                    "duration": 0.053347874999985834
                },
                {
                    "name": "F#3",
                    "midi": 54,
                    "time": 384.14026524999565,
                    "velocity": 0.14960629921259844,
                    "duration": 0.053347874999985834
                },
                {
                    "name": "G#3",
                    "midi": 56,
                    "time": 384.17583049999564,
                    "velocity": 0.16535433070866143,
                    "duration": 0.053347874999985834
                },
                {
                    "name": "F#3",
                    "midi": 54,
                    "time": 384.21139574999563,
                    "velocity": 0.14960629921259844,
                    "duration": 0.053347874999985834
                },
                {
                    "name": "G#3",
                    "midi": 56,
                    "time": 384.2469609999956,
                    "velocity": 0.16535433070866143,
                    "duration": 0.053347874999985834
                },
                {
                    "name": "F#3",
                    "midi": 54,
                    "time": 384.2825262499956,
                    "velocity": 0.14173228346456693,
                    "duration": 0.053347874999985834
                },
                {
                    "name": "G#3",
                    "midi": 56,
                    "time": 384.3180914999956,
                    "velocity": 0.16535433070866143,
                    "duration": 0.053347874999985834
                },
                {
                    "name": "F#3",
                    "midi": 54,
                    "time": 384.3536567499956,
                    "velocity": 0.14173228346456693,
                    "duration": 0.053347874999985834
                },
                {
                    "name": "G#3",
                    "midi": 56,
                    "time": 384.3892219999956,
                    "velocity": 0.1732283464566929,
                    "duration": 0.053347874999985834
                },
                {
                    "name": "F#3",
                    "midi": 54,
                    "time": 384.4247872499956,
                    "velocity": 0.14960629921259844,
                    "duration": 0.053347874999985834
                },
                {
                    "name": "G#3",
                    "midi": 56,
                    "time": 384.46035249999557,
                    "velocity": 0.1732283464566929,
                    "duration": 0.053347874999985834
                },
                {
                    "name": "F#3",
                    "midi": 54,
                    "time": 384.49591774999556,
                    "velocity": 0.14173228346456693,
                    "duration": 0.053347874999985834
                },
                {
                    "name": "F3",
                    "midi": 53,
                    "time": 384.53148299999555,
                    "velocity": 0.15748031496062992,
                    "duration": 0.0829855833333113
                },
                {
                    "name": "F#3",
                    "midi": 54,
                    "time": 384.6026134999955,
                    "velocity": 0.18110236220472442,
                    "duration": 0.0829855833333113
                },
                {
                    "name": "F3",
                    "midi": 53,
                    "time": 384.6737439999955,
                    "velocity": 0.1968503937007874,
                    "duration": 0.07113049999998111
                },
                {
                    "name": "F1",
                    "midi": 29,
                    "time": 385.66957099999547,
                    "velocity": 0.2125984251968504,
                    "duration": 0.059275416666650926
                },
                {
                    "name": "F#1",
                    "midi": 30,
                    "time": 385.7169913333288,
                    "velocity": 0.1732283464566929,
                    "duration": 0.059275416666650926
                },
                {
                    "name": "G#1",
                    "midi": 32,
                    "time": 385.7644116666621,
                    "velocity": 0.1732283464566929,
                    "duration": 0.059275416666650926
                },
                {
                    "name": "F#1",
                    "midi": 30,
                    "time": 385.81183199999543,
                    "velocity": 0.2125984251968504,
                    "duration": 0.053347874999985834
                },
                {
                    "name": "G#1",
                    "midi": 32,
                    "time": 385.8473972499954,
                    "velocity": 0.18110236220472442,
                    "duration": 0.053347874999985834
                },
                {
                    "name": "F#1",
                    "midi": 30,
                    "time": 385.8829624999954,
                    "velocity": 0.1889763779527559,
                    "duration": 0.053347874999985834
                },
                {
                    "name": "G#1",
                    "midi": 32,
                    "time": 385.9185277499954,
                    "velocity": 0.1732283464566929,
                    "duration": 0.053347874999985834
                },
                {
                    "name": "F#1",
                    "midi": 30,
                    "time": 385.9540929999954,
                    "velocity": 0.1889763779527559,
                    "duration": 0.053347874999985834
                },
                {
                    "name": "G#1",
                    "midi": 32,
                    "time": 385.9896582499954,
                    "velocity": 0.1732283464566929,
                    "duration": 0.053347874999985834
                },
                {
                    "name": "F#1",
                    "midi": 30,
                    "time": 386.0252234999954,
                    "velocity": 0.1968503937007874,
                    "duration": 0.053347874999985834
                },
                {
                    "name": "G#1",
                    "midi": 32,
                    "time": 386.06078874999537,
                    "velocity": 0.1889763779527559,
                    "duration": 0.053347874999985834
                },
                {
                    "name": "F#1",
                    "midi": 30,
                    "time": 386.09635399999536,
                    "velocity": 0.2047244094488189,
                    "duration": 0.053347874999985834
                },
                {
                    "name": "G#1",
                    "midi": 32,
                    "time": 386.13191924999535,
                    "velocity": 0.18110236220472442,
                    "duration": 0.053347874999985834
                },
                {
                    "name": "F#1",
                    "midi": 30,
                    "time": 386.16748449999534,
                    "velocity": 0.2047244094488189,
                    "duration": 0.053347874999985834
                },
                {
                    "name": "G#1",
                    "midi": 32,
                    "time": 386.20304974999533,
                    "velocity": 0.1732283464566929,
                    "duration": 0.053347874999985834
                },
                {
                    "name": "F#1",
                    "midi": 30,
                    "time": 386.2386149999953,
                    "velocity": 0.1968503937007874,
                    "duration": 0.053347874999985834
                },
                {
                    "name": "G#1",
                    "midi": 32,
                    "time": 386.2741802499953,
                    "velocity": 0.18110236220472442,
                    "duration": 0.053347874999985834
                },
                {
                    "name": "F#1",
                    "midi": 30,
                    "time": 386.3097454999953,
                    "velocity": 0.1889763779527559,
                    "duration": 0.053347874999985834
                },
                {
                    "name": "G#1",
                    "midi": 32,
                    "time": 386.3453107499953,
                    "velocity": 0.1732283464566929,
                    "duration": 0.053347874999985834
                },
                {
                    "name": "F#1",
                    "midi": 30,
                    "time": 386.3808759999953,
                    "velocity": 0.2047244094488189,
                    "duration": 0.053347874999985834
                },
                {
                    "name": "G#1",
                    "midi": 32,
                    "time": 386.4164412499953,
                    "velocity": 0.18110236220472442,
                    "duration": 0.053347874999985834
                },
                {
                    "name": "F#1",
                    "midi": 30,
                    "time": 386.45200649999526,
                    "velocity": 0.1968503937007874,
                    "duration": 0.053347874999985834
                },
                {
                    "name": "G#1",
                    "midi": 32,
                    "time": 386.48757174999525,
                    "velocity": 0.18110236220472442,
                    "duration": 0.053347874999985834
                },
                {
                    "name": "F#1",
                    "midi": 30,
                    "time": 386.52313699999524,
                    "velocity": 0.1968503937007874,
                    "duration": 0.053347874999985834
                },
                {
                    "name": "G#1",
                    "midi": 32,
                    "time": 386.55870224999524,
                    "velocity": 0.1732283464566929,
                    "duration": 0.053347874999985834
                },
                {
                    "name": "F#1",
                    "midi": 30,
                    "time": 386.5942674999952,
                    "velocity": 0.1968503937007874,
                    "duration": 0.053347874999985834
                },
                {
                    "name": "G#1",
                    "midi": 32,
                    "time": 386.6298327499952,
                    "velocity": 0.1732283464566929,
                    "duration": 0.053347874999985834
                },
                {
                    "name": "F#1",
                    "midi": 30,
                    "time": 386.6653979999952,
                    "velocity": 0.2125984251968504,
                    "duration": 0.053347874999985834
                },
                {
                    "name": "G#1",
                    "midi": 32,
                    "time": 386.7009632499952,
                    "velocity": 0.18110236220472442,
                    "duration": 0.053347874999985834
                },
                {
                    "name": "F#1",
                    "midi": 30,
                    "time": 386.7365284999952,
                    "velocity": 0.2047244094488189,
                    "duration": 0.053347874999985834
                },
                {
                    "name": "G#1",
                    "midi": 32,
                    "time": 386.7720937499952,
                    "velocity": 0.1732283464566929,
                    "duration": 0.053347874999985834
                },
                {
                    "name": "F1",
                    "midi": 29,
                    "time": 386.80765899999517,
                    "velocity": 0.1732283464566929,
                    "duration": 0.0829855833333113
                },
                {
                    "name": "F#1",
                    "midi": 30,
                    "time": 386.87878949999515,
                    "velocity": 0.14173228346456693,
                    "duration": 0.0829855833333113
                },
                {
                    "name": "F1",
                    "midi": 29,
                    "time": 386.94991999999513,
                    "velocity": 0.18110236220472442,
                    "duration": 0.07113049999998111
                },
                {
                    "name": "A#2",
                    "midi": 46,
                    "time": 387.80348599999513,
                    "velocity": 0.1889763779527559,
                    "duration": 0.28452200000003813
                },
                {
                    "name": "D3",
                    "midi": 50,
                    "time": 387.80348599999513,
                    "velocity": 0.2283464566929134,
                    "duration": 0.14226100000001907
                },
                {
                    "name": "F3",
                    "midi": 53,
                    "time": 387.94574699999515,
                    "velocity": 0.1968503937007874,
                    "duration": 0.14226100000001907
                },
                {
                    "name": "A#2",
                    "midi": 46,
                    "time": 388.08800799999517,
                    "velocity": 0.1968503937007874,
                    "duration": 0.28452200000003813
                },
                {
                    "name": "D3",
                    "midi": 50,
                    "time": 388.08800799999517,
                    "velocity": 0.23622047244094488,
                    "duration": 0.14226100000001907
                },
                {
                    "name": "F3",
                    "midi": 53,
                    "time": 388.2302689999952,
                    "velocity": 0.1968503937007874,
                    "duration": 0.14226100000001907
                },
                {
                    "name": "A#2",
                    "midi": 46,
                    "time": 388.3725299999952,
                    "velocity": 0.16535433070866143,
                    "duration": 0.28452200000003813
                },
                {
                    "name": "C3",
                    "midi": 48,
                    "time": 388.3725299999952,
                    "velocity": 0.2125984251968504,
                    "duration": 0.14226100000001907
                },
                {
                    "name": "F3",
                    "midi": 53,
                    "time": 388.5147909999952,
                    "velocity": 0.1889763779527559,
                    "duration": 0.14226100000001907
                },
                {
                    "name": "A#2",
                    "midi": 46,
                    "time": 388.65705199999525,
                    "velocity": 0.1968503937007874,
                    "duration": 0.28452200000003813
                },
                {
                    "name": "D3",
                    "midi": 50,
                    "time": 388.65705199999525,
                    "velocity": 0.23622047244094488,
                    "duration": 0.14226100000001907
                },
                {
                    "name": "F3",
                    "midi": 53,
                    "time": 388.79931299999527,
                    "velocity": 0.1889763779527559,
                    "duration": 0.14226100000001907
                },
                {
                    "name": "A#2",
                    "midi": 46,
                    "time": 388.9415739999953,
                    "velocity": 0.1889763779527559,
                    "duration": 0.28452200000003813
                },
                {
                    "name": "D#3",
                    "midi": 51,
                    "time": 388.9415739999953,
                    "velocity": 0.2283464566929134,
                    "duration": 0.14226100000001907
                },
                {
                    "name": "F3",
                    "midi": 53,
                    "time": 389.0838349999953,
                    "velocity": 0.18110236220472442,
                    "duration": 0.14226100000001907
                },
                {
                    "name": "E3",
                    "midi": 52,
                    "time": 389.2260959999953,
                    "velocity": 0.23622047244094488,
                    "duration": 0.14226100000001907
                },
                {
                    "name": "A#2",
                    "midi": 46,
                    "time": 389.2260959999953,
                    "velocity": 0.1968503937007874,
                    "duration": 0.8535659999998302
                },
                {
                    "name": "F3",
                    "midi": 53,
                    "time": 389.36835699999534,
                    "velocity": 0.18110236220472442,
                    "duration": 0.07113049999998111
                },
                {
                    "name": "F3",
                    "midi": 53,
                    "time": 389.5106179999953,
                    "velocity": 0.18110236220472442,
                    "duration": 0.07113049999998111
                },
                {
                    "name": "F3",
                    "midi": 53,
                    "time": 389.65287899999527,
                    "velocity": 0.18110236220472442,
                    "duration": 0.07113049999998111
                },
                {
                    "name": "F3",
                    "midi": 53,
                    "time": 389.79513999999523,
                    "velocity": 0.18110236220472442,
                    "duration": 0.07113049999998111
                },
                {
                    "name": "F3",
                    "midi": 53,
                    "time": 389.9374009999952,
                    "velocity": 0.18110236220472442,
                    "duration": 0.07113049999998111
                },
                {
                    "name": "A#2",
                    "midi": 46,
                    "time": 390.07966199999515,
                    "velocity": 0.1889763779527559,
                    "duration": 0.28452200000003813
                },
                {
                    "name": "D#3",
                    "midi": 51,
                    "time": 390.07966199999515,
                    "velocity": 0.2283464566929134,
                    "duration": 0.14226100000001907
                },
                {
                    "name": "D3",
                    "midi": 50,
                    "time": 390.2219229999952,
                    "velocity": 0.1889763779527559,
                    "duration": 0.14226100000001907
                },
                {
                    "name": "F2",
                    "midi": 41,
                    "time": 390.3641839999952,
                    "velocity": 0.18110236220472442,
                    "duration": 0.28452200000003813
                },
                {
                    "name": "D#3",
                    "midi": 51,
                    "time": 390.3641839999952,
                    "velocity": 0.2125984251968504,
                    "duration": 0.14226100000001907
                },
                {
                    "name": "F3",
                    "midi": 53,
                    "time": 390.5064449999952,
                    "velocity": 0.1732283464566929,
                    "duration": 0.14226100000001907
                },
                {
                    "name": "F2",
                    "midi": 41,
                    "time": 390.64870599999523,
                    "velocity": 0.18110236220472442,
                    "duration": 0.28452200000003813
                },
                {
                    "name": "D#3",
                    "midi": 51,
                    "time": 390.64870599999523,
                    "velocity": 0.2047244094488189,
                    "duration": 0.14226100000001907
                },
                {
                    "name": "F3",
                    "midi": 53,
                    "time": 390.79096699999525,
                    "velocity": 0.1732283464566929,
                    "duration": 0.14226100000001907
                },
                {
                    "name": "F2",
                    "midi": 41,
                    "time": 390.93322799999527,
                    "velocity": 0.18110236220472442,
                    "duration": 0.28452200000003813
                },
                {
                    "name": "D#3",
                    "midi": 51,
                    "time": 390.93322799999527,
                    "velocity": 0.2047244094488189,
                    "duration": 0.14226100000001907
                },
                {
                    "name": "F3",
                    "midi": 53,
                    "time": 391.0754889999953,
                    "velocity": 0.18110236220472442,
                    "duration": 0.14226100000001907
                },
                {
                    "name": "F2",
                    "midi": 41,
                    "time": 391.2177499999953,
                    "velocity": 0.1889763779527559,
                    "duration": 0.28452200000003813
                },
                {
                    "name": "D3",
                    "midi": 50,
                    "time": 391.2177499999953,
                    "velocity": 0.2283464566929134,
                    "duration": 0.14226100000001907
                },
                {
                    "name": "C3",
                    "midi": 48,
                    "time": 391.3600109999953,
                    "velocity": 0.1732283464566929,
                    "duration": 0.14226100000001907
                },
                {
                    "name": "A#2",
                    "midi": 46,
                    "time": 391.50227199999534,
                    "velocity": 0.1968503937007874,
                    "duration": 0.8535660000001144
                },
                {
                    "name": "D3",
                    "midi": 50,
                    "time": 391.50227199999534,
                    "velocity": 0.23622047244094488,
                    "duration": 0.14226100000001907
                },
                {
                    "name": "F3",
                    "midi": 53,
                    "time": 391.64453299999536,
                    "velocity": 0.2125984251968504,
                    "duration": 0.14226100000001907
                },
                {
                    "name": "D#3",
                    "midi": 51,
                    "time": 391.7867939999954,
                    "velocity": 0.2283464566929134,
                    "duration": 0.14226100000001907
                },
                {
                    "name": "G3",
                    "midi": 55,
                    "time": 391.9290549999954,
                    "velocity": 0.1968503937007874,
                    "duration": 0.14226100000001907
                },
                {
                    "name": "D3",
                    "midi": 50,
                    "time": 392.0713159999954,
                    "velocity": 0.2047244094488189,
                    "duration": 0.14226100000001907
                },
                {
                    "name": "F3",
                    "midi": 53,
                    "time": 392.21357699999544,
                    "velocity": 0.2125984251968504,
                    "duration": 0.14226100000001907
                },
                {
                    "name": "A#2",
                    "midi": 46,
                    "time": 392.35583799999546,
                    "velocity": 0.1968503937007874,
                    "duration": 0.28452200000003813
                },
                {
                    "name": "D3",
                    "midi": 50,
                    "time": 392.35583799999546,
                    "velocity": 0.2755905511811024,
                    "duration": 0.14226100000001907
                },
                {
                    "name": "A#3",
                    "midi": 58,
                    "time": 392.4980989999955,
                    "velocity": 0.23622047244094488,
                    "duration": 0.14226100000001907
                },
                {
                    "name": "A#2",
                    "midi": 46,
                    "time": 392.6403599999955,
                    "velocity": 0.2125984251968504,
                    "duration": 0.8535659999998302
                },
                {
                    "name": "G3",
                    "midi": 55,
                    "time": 392.6403599999955,
                    "velocity": 0.25196850393700787,
                    "duration": 0.8535659999998302
                },
                {
                    "name": "A#3",
                    "midi": 58,
                    "time": 392.7826209999955,
                    "velocity": 0.2204724409448819,
                    "duration": 0.07113049999998111
                },
                {
                    "name": "A#3",
                    "midi": 58,
                    "time": 392.9248819999955,
                    "velocity": 0.2283464566929134,
                    "duration": 0.07113049999998111
                },
                {
                    "name": "A#3",
                    "midi": 58,
                    "time": 393.06714299999544,
                    "velocity": 0.2125984251968504,
                    "duration": 0.07113049999998111
                },
                {
                    "name": "A#3",
                    "midi": 58,
                    "time": 393.2094039999954,
                    "velocity": 0.23622047244094488,
                    "duration": 0.07113049999998111
                },
                {
                    "name": "A#3",
                    "midi": 58,
                    "time": 393.35166499999536,
                    "velocity": 0.2125984251968504,
                    "duration": 0.07113049999998111
                },
                {
                    "name": "A#2",
                    "midi": 46,
                    "time": 393.4939259999953,
                    "velocity": 0.1889763779527559,
                    "duration": 0.28452200000003813
                },
                {
                    "name": "F3",
                    "midi": 53,
                    "time": 393.4939259999953,
                    "velocity": 0.2283464566929134,
                    "duration": 0.14226100000001907
                },
                {
                    "name": "D#3",
                    "midi": 51,
                    "time": 393.63618699999535,
                    "velocity": 0.2125984251968504,
                    "duration": 0.14226100000001907
                },
                {
                    "name": "A#2",
                    "midi": 46,
                    "time": 393.77844799999536,
                    "velocity": 0.1889763779527559,
                    "duration": 0.28452200000003813
                },
                {
                    "name": "F3",
                    "midi": 53,
                    "time": 393.77844799999536,
                    "velocity": 0.2283464566929134,
                    "duration": 0.14226100000001907
                },
                {
                    "name": "D3",
                    "midi": 50,
                    "time": 393.9207089999954,
                    "velocity": 0.1968503937007874,
                    "duration": 0.14226100000001907
                },
                {
                    "name": "A#2",
                    "midi": 46,
                    "time": 394.0629699999954,
                    "velocity": 0.1889763779527559,
                    "duration": 0.28452200000003813
                },
                {
                    "name": "C3",
                    "midi": 48,
                    "time": 394.0629699999954,
                    "velocity": 0.2283464566929134,
                    "duration": 0.14226100000001907
                },
                {
                    "name": "F3",
                    "midi": 53,
                    "time": 394.2052309999954,
                    "velocity": 0.1968503937007874,
                    "duration": 0.14226100000001907
                },
                {
                    "name": "A#2",
                    "midi": 46,
                    "time": 394.34749199999544,
                    "velocity": 0.1889763779527559,
                    "duration": 0.28452200000003813
                },
                {
                    "name": "D3",
                    "midi": 50,
                    "time": 394.34749199999544,
                    "velocity": 0.2283464566929134,
                    "duration": 0.14226100000001907
                },
                {
                    "name": "F3",
                    "midi": 53,
                    "time": 394.48975299999546,
                    "velocity": 0.2125984251968504,
                    "duration": 0.14226100000001907
                },
                {
                    "name": "A#2",
                    "midi": 46,
                    "time": 394.6320139999955,
                    "velocity": 0.1889763779527559,
                    "duration": 0.28452200000003813
                },
                {
                    "name": "D#3",
                    "midi": 51,
                    "time": 394.6320139999955,
                    "velocity": 0.2204724409448819,
                    "duration": 0.14226100000001907
                },
                {
                    "name": "F3",
                    "midi": 53,
                    "time": 394.7742749999955,
                    "velocity": 0.2047244094488189,
                    "duration": 0.14226100000001907
                },
                {
                    "name": "A#2",
                    "midi": 46,
                    "time": 394.9165359999955,
                    "velocity": 0.1889763779527559,
                    "duration": 0.28452200000003813
                },
                {
                    "name": "D3",
                    "midi": 50,
                    "time": 394.9165359999955,
                    "velocity": 0.2204724409448819,
                    "duration": 0.14226100000001907
                },
                {
                    "name": "F3",
                    "midi": 53,
                    "time": 395.05879699999554,
                    "velocity": 0.2047244094488189,
                    "duration": 0.14226100000001907
                },
                {
                    "name": "A#2",
                    "midi": 46,
                    "time": 395.20105799999556,
                    "velocity": 0.2204724409448819,
                    "duration": 0.28452200000003813
                },
                {
                    "name": "F3",
                    "midi": 53,
                    "time": 395.3433189999956,
                    "velocity": 0.2047244094488189,
                    "duration": 0.14226100000001907
                },
                {
                    "name": "F2",
                    "midi": 41,
                    "time": 395.4855799999956,
                    "velocity": 0.2204724409448819,
                    "duration": 0.2845219999999813
                },
                {
                    "name": "F1",
                    "midi": 29,
                    "time": 395.9123629999956,
                    "velocity": 0.1889763779527559,
                    "duration": 0.059275416666650926
                },
                {
                    "name": "F#1",
                    "midi": 30,
                    "time": 395.9597833333289,
                    "velocity": 0.14960629921259844,
                    "duration": 0.059275416666650926
                },
                {
                    "name": "G#1",
                    "midi": 32,
                    "time": 396.00720366666224,
                    "velocity": 0.14960629921259844,
                    "duration": 0.059275416666650926
                },
                {
                    "name": "F#1",
                    "midi": 30,
                    "time": 396.05462399999556,
                    "velocity": 0.1889763779527559,
                    "duration": 0.059275416666650926
                },
                {
                    "name": "G#1",
                    "midi": 32,
                    "time": 396.09018924999555,
                    "velocity": 0.15748031496062992,
                    "duration": 0.059275416666650926
                },
                {
                    "name": "F#1",
                    "midi": 30,
                    "time": 396.12575449999554,
                    "velocity": 0.16535433070866143,
                    "duration": 0.059275416666650926
                },
                {
                    "name": "G#1",
                    "midi": 32,
                    "time": 396.1613197499955,
                    "velocity": 0.14960629921259844,
                    "duration": 0.059275416666650926
                },
                {
                    "name": "F#1",
                    "midi": 30,
                    "time": 396.1968849999955,
                    "velocity": 0.16535433070866143,
                    "duration": 0.059275416666650926
                },
                {
                    "name": "G#1",
                    "midi": 32,
                    "time": 396.2324502499955,
                    "velocity": 0.14960629921259844,
                    "duration": 0.059275416666650926
                },
                {
                    "name": "F#1",
                    "midi": 30,
                    "time": 396.2680154999955,
                    "velocity": 0.1732283464566929,
                    "duration": 0.059275416666650926
                },
                {
                    "name": "G#1",
                    "midi": 32,
                    "time": 396.3035807499955,
                    "velocity": 0.16535433070866143,
                    "duration": 0.059275416666650926
                },
                {
                    "name": "F#1",
                    "midi": 30,
                    "time": 396.3391459999955,
                    "velocity": 0.18110236220472442,
                    "duration": 0.059275416666650926
                },
                {
                    "name": "G#1",
                    "midi": 32,
                    "time": 396.37471124999547,
                    "velocity": 0.15748031496062992,
                    "duration": 0.059275416666650926
                },
                {
                    "name": "F#1",
                    "midi": 30,
                    "time": 396.41027649999546,
                    "velocity": 0.18110236220472442,
                    "duration": 0.059275416666650926
                },
                {
                    "name": "G#1",
                    "midi": 32,
                    "time": 396.44584174999545,
                    "velocity": 0.14960629921259844,
                    "duration": 0.059275416666650926
                },
                {
                    "name": "F#1",
                    "midi": 30,
                    "time": 396.48140699999544,
                    "velocity": 0.1732283464566929,
                    "duration": 0.059275416666650926
                },
                {
                    "name": "G#1",
                    "midi": 32,
                    "time": 396.51697224999543,
                    "velocity": 0.15748031496062992,
                    "duration": 0.059275416666650926
                },
                {
                    "name": "F#1",
                    "midi": 30,
                    "time": 396.5525374999954,
                    "velocity": 0.16535433070866143,
                    "duration": 0.059275416666650926
                },
                {
                    "name": "G#1",
                    "midi": 32,
                    "time": 396.5881027499954,
                    "velocity": 0.14960629921259844,
                    "duration": 0.059275416666650926
                },
                {
                    "name": "F#1",
                    "midi": 30,
                    "time": 396.6236679999954,
                    "velocity": 0.18110236220472442,
                    "duration": 0.059275416666650926
                },
                {
                    "name": "G#1",
                    "midi": 32,
                    "time": 396.6592332499954,
                    "velocity": 0.15748031496062992,
                    "duration": 0.059275416666650926
                },
                {
                    "name": "F#1",
                    "midi": 30,
                    "time": 396.6947984999954,
                    "velocity": 0.1732283464566929,
                    "duration": 0.059275416666650926
                },
                {
                    "name": "G#1",
                    "midi": 32,
                    "time": 396.7303637499954,
                    "velocity": 0.15748031496062992,
                    "duration": 0.059275416666650926
                },
                {
                    "name": "F#1",
                    "midi": 30,
                    "time": 396.76592899999537,
                    "velocity": 0.1732283464566929,
                    "duration": 0.059275416666650926
                },
                {
                    "name": "G#1",
                    "midi": 32,
                    "time": 396.80149424999536,
                    "velocity": 0.14960629921259844,
                    "duration": 0.059275416666650926
                },
                {
                    "name": "F#1",
                    "midi": 30,
                    "time": 396.83705949999535,
                    "velocity": 0.1732283464566929,
                    "duration": 0.059275416666650926
                },
                {
                    "name": "G#1",
                    "midi": 32,
                    "time": 396.87262474999534,
                    "velocity": 0.14960629921259844,
                    "duration": 0.059275416666650926
                },
                {
                    "name": "F#1",
                    "midi": 30,
                    "time": 396.90818999999533,
                    "velocity": 0.1889763779527559,
                    "duration": 0.059275416666650926
                },
                {
                    "name": "G#1",
                    "midi": 32,
                    "time": 396.9437552499953,
                    "velocity": 0.15748031496062992,
                    "duration": 0.059275416666650926
                },
                {
                    "name": "F#1",
                    "midi": 30,
                    "time": 396.9793204999953,
                    "velocity": 0.18110236220472442,
                    "duration": 0.059275416666650926
                },
                {
                    "name": "G#1",
                    "midi": 32,
                    "time": 397.0148857499953,
                    "velocity": 0.14960629921259844,
                    "duration": 0.059275416666650926
                },
                {
                    "name": "F1",
                    "midi": 29,
                    "time": 397.0504509999953,
                    "velocity": 0.14960629921259844,
                    "duration": 0.0829855833333113
                },
                {
                    "name": "F#1",
                    "midi": 30,
                    "time": 397.1215814999953,
                    "velocity": 0.12598425196850394,
                    "duration": 0.0829855833333113
                },
                {
                    "name": "F1",
                    "midi": 29,
                    "time": 397.19271199999525,
                    "velocity": 0.15748031496062992,
                    "duration": 0.07113049999998111
                },
                {
                    "name": "A#2",
                    "midi": 46,
                    "time": 398.04627799999525,
                    "velocity": 0.1889763779527559,
                    "duration": 0.28452200000003813
                },
                {
                    "name": "D3",
                    "midi": 50,
                    "time": 398.04627799999525,
                    "velocity": 0.2283464566929134,
                    "duration": 0.14226100000001907
                },
                {
                    "name": "F3",
                    "midi": 53,
                    "time": 398.1885389999953,
                    "velocity": 0.1968503937007874,
                    "duration": 0.14226100000001907
                },
                {
                    "name": "A#2",
                    "midi": 46,
                    "time": 398.3307999999953,
                    "velocity": 0.1968503937007874,
                    "duration": 0.28452200000003813
                },
                {
                    "name": "D3",
                    "midi": 50,
                    "time": 398.3307999999953,
                    "velocity": 0.23622047244094488,
                    "duration": 0.14226100000001907
                },
                {
                    "name": "F3",
                    "midi": 53,
                    "time": 398.4730609999953,
                    "velocity": 0.1968503937007874,
                    "duration": 0.14226100000001907
                },
                {
                    "name": "A#2",
                    "midi": 46,
                    "time": 398.61532199999533,
                    "velocity": 0.16535433070866143,
                    "duration": 0.28452200000003813
                },
                {
                    "name": "C3",
                    "midi": 48,
                    "time": 398.61532199999533,
                    "velocity": 0.2125984251968504,
                    "duration": 0.14226100000001907
                },
                {
                    "name": "F3",
                    "midi": 53,
                    "time": 398.75758299999535,
                    "velocity": 0.1889763779527559,
                    "duration": 0.14226100000001907
                },
                {
                    "name": "A#2",
                    "midi": 46,
                    "time": 398.89984399999537,
                    "velocity": 0.1968503937007874,
                    "duration": 0.28452200000003813
                },
                {
                    "name": "D3",
                    "midi": 50,
                    "time": 398.89984399999537,
                    "velocity": 0.23622047244094488,
                    "duration": 0.14226100000001907
                },
                {
                    "name": "F3",
                    "midi": 53,
                    "time": 399.0421049999954,
                    "velocity": 0.1889763779527559,
                    "duration": 0.14226100000001907
                },
                {
                    "name": "A#2",
                    "midi": 46,
                    "time": 399.1843659999954,
                    "velocity": 0.1889763779527559,
                    "duration": 0.28452200000003813
                },
                {
                    "name": "D#3",
                    "midi": 51,
                    "time": 399.1843659999954,
                    "velocity": 0.2283464566929134,
                    "duration": 0.14226100000001907
                },
                {
                    "name": "F3",
                    "midi": 53,
                    "time": 399.3266269999954,
                    "velocity": 0.18110236220472442,
                    "duration": 0.14226100000001907
                },
                {
                    "name": "E3",
                    "midi": 52,
                    "time": 399.46888799999545,
                    "velocity": 0.23622047244094488,
                    "duration": 0.14226100000001907
                },
                {
                    "name": "A#2",
                    "midi": 46,
                    "time": 399.46888799999545,
                    "velocity": 0.1968503937007874,
                    "duration": 0.8535659999998302
                },
                {
                    "name": "F3",
                    "midi": 53,
                    "time": 399.61114899999546,
                    "velocity": 0.18110236220472442,
                    "duration": 0.07113049999998111
                },
                {
                    "name": "F3",
                    "midi": 53,
                    "time": 399.7534099999954,
                    "velocity": 0.18110236220472442,
                    "duration": 0.07113049999998111
                },
                {
                    "name": "F3",
                    "midi": 53,
                    "time": 399.8956709999954,
                    "velocity": 0.18110236220472442,
                    "duration": 0.07113049999998111
                },
                {
                    "name": "F3",
                    "midi": 53,
                    "time": 400.03793199999535,
                    "velocity": 0.18110236220472442,
                    "duration": 0.07113049999998111
                },
                {
                    "name": "F3",
                    "midi": 53,
                    "time": 400.1801929999953,
                    "velocity": 0.18110236220472442,
                    "duration": 0.07113049999998111
                },
                {
                    "name": "A#2",
                    "midi": 46,
                    "time": 400.3224539999953,
                    "velocity": 0.1889763779527559,
                    "duration": 0.28452200000003813
                },
                {
                    "name": "D#3",
                    "midi": 51,
                    "time": 400.3224539999953,
                    "velocity": 0.2283464566929134,
                    "duration": 0.14226100000001907
                },
                {
                    "name": "D3",
                    "midi": 50,
                    "time": 400.4647149999953,
                    "velocity": 0.1889763779527559,
                    "duration": 0.14226100000001907
                },
                {
                    "name": "F2",
                    "midi": 41,
                    "time": 400.6069759999953,
                    "velocity": 0.18110236220472442,
                    "duration": 0.28452200000003813
                },
                {
                    "name": "D#3",
                    "midi": 51,
                    "time": 400.6069759999953,
                    "velocity": 0.2125984251968504,
                    "duration": 0.14226100000001907
                },
                {
                    "name": "F3",
                    "midi": 53,
                    "time": 400.74923699999533,
                    "velocity": 0.1732283464566929,
                    "duration": 0.14226100000001907
                },
                {
                    "name": "F2",
                    "midi": 41,
                    "time": 400.89149799999535,
                    "velocity": 0.18110236220472442,
                    "duration": 0.28452200000003813
                },
                {
                    "name": "D#3",
                    "midi": 51,
                    "time": 400.89149799999535,
                    "velocity": 0.2047244094488189,
                    "duration": 0.14226100000001907
                },
                {
                    "name": "F3",
                    "midi": 53,
                    "time": 401.03375899999537,
                    "velocity": 0.1732283464566929,
                    "duration": 0.14226100000001907
                },
                {
                    "name": "F2",
                    "midi": 41,
                    "time": 401.1760199999954,
                    "velocity": 0.18110236220472442,
                    "duration": 0.28452200000003813
                },
                {
                    "name": "D#3",
                    "midi": 51,
                    "time": 401.1760199999954,
                    "velocity": 0.2047244094488189,
                    "duration": 0.14226100000001907
                },
                {
                    "name": "F3",
                    "midi": 53,
                    "time": 401.3182809999954,
                    "velocity": 0.1968503937007874,
                    "duration": 0.14226100000001907
                },
                {
                    "name": "F2",
                    "midi": 41,
                    "time": 401.4605419999954,
                    "velocity": 0.1889763779527559,
                    "duration": 0.28452200000003813
                },
                {
                    "name": "D3",
                    "midi": 50,
                    "time": 401.4605419999954,
                    "velocity": 0.2283464566929134,
                    "duration": 0.14226100000001907
                },
                {
                    "name": "C3",
                    "midi": 48,
                    "time": 401.60280299999545,
                    "velocity": 0.1732283464566929,
                    "duration": 0.14226100000001907
                },
                {
                    "name": "A#2",
                    "midi": 46,
                    "time": 401.74506399999547,
                    "velocity": 0.1968503937007874,
                    "duration": 0.8535660000001144
                },
                {
                    "name": "D3",
                    "midi": 50,
                    "time": 401.74506399999547,
                    "velocity": 0.23622047244094488,
                    "duration": 0.14226100000001907
                },
                {
                    "name": "F3",
                    "midi": 53,
                    "time": 401.8873249999955,
                    "velocity": 0.2125984251968504,
                    "duration": 0.14226100000001907
                },
                {
                    "name": "D#3",
                    "midi": 51,
                    "time": 402.0295859999955,
                    "velocity": 0.2283464566929134,
                    "duration": 0.14226100000001907
                },
                {
                    "name": "G3",
                    "midi": 55,
                    "time": 402.1718469999955,
                    "velocity": 0.1968503937007874,
                    "duration": 0.14226100000001907
                },
                {
                    "name": "D3",
                    "midi": 50,
                    "time": 402.31410799999554,
                    "velocity": 0.2047244094488189,
                    "duration": 0.14226100000001907
                },
                {
                    "name": "F3",
                    "midi": 53,
                    "time": 402.45636899999556,
                    "velocity": 0.2125984251968504,
                    "duration": 0.14226100000001907
                },
                {
                    "name": "G#2",
                    "midi": 44,
                    "time": 402.5986299999956,
                    "velocity": 0.1968503937007874,
                    "duration": 0.28452200000003813
                },
                {
                    "name": "D3",
                    "midi": 50,
                    "time": 402.5986299999956,
                    "velocity": 0.2755905511811024,
                    "duration": 0.14226100000001907
                },
                {
                    "name": "F3",
                    "midi": 53,
                    "time": 402.7408909999956,
                    "velocity": 0.23622047244094488,
                    "duration": 0.14226100000001907
                },
                {
                    "name": "G2",
                    "midi": 43,
                    "time": 402.8831519999956,
                    "velocity": 0.2125984251968504,
                    "duration": 0.8535659999998302
                },
                {
                    "name": "F3",
                    "midi": 53,
                    "time": 402.8831519999956,
                    "velocity": 0.25196850393700787,
                    "duration": 0.8535659999998302
                },
                {
                    "name": "G3",
                    "midi": 55,
                    "time": 403.02541299999564,
                    "velocity": 0.2204724409448819,
                    "duration": 0.07113049999998111
                },
                {
                    "name": "G3",
                    "midi": 55,
                    "time": 403.1676739999956,
                    "velocity": 0.2283464566929134,
                    "duration": 0.07113049999998111
                },
                {
                    "name": "G3",
                    "midi": 55,
                    "time": 403.30993499999556,
                    "velocity": 0.2125984251968504,
                    "duration": 0.07113049999998111
                },
                {
                    "name": "G3",
                    "midi": 55,
                    "time": 403.4521959999955,
                    "velocity": 0.23622047244094488,
                    "duration": 0.07113049999998111
                },
                {
                    "name": "G3",
                    "midi": 55,
                    "time": 403.5944569999955,
                    "velocity": 0.2125984251968504,
                    "duration": 0.07113049999998111
                },
                {
                    "name": "G2",
                    "midi": 43,
                    "time": 403.73671799999545,
                    "velocity": 0.16535433070866143,
                    "duration": 0.14226100000001907
                },
                {
                    "name": "D#3",
                    "midi": 51,
                    "time": 403.73671799999545,
                    "velocity": 0.1889763779527559,
                    "duration": 0.14226100000001907
                },
                {
                    "name": "G3",
                    "midi": 55,
                    "time": 403.73671799999545,
                    "velocity": 0.2283464566929134,
                    "duration": 0.14226100000001907
                },
                {
                    "name": "G2",
                    "midi": 43,
                    "time": 403.87897899999547,
                    "velocity": 0.16535433070866143,
                    "duration": 0.14226100000001907
                },
                {
                    "name": "D3",
                    "midi": 50,
                    "time": 403.87897899999547,
                    "velocity": 0.1889763779527559,
                    "duration": 0.14226100000001907
                },
                {
                    "name": "G3",
                    "midi": 55,
                    "time": 403.87897899999547,
                    "velocity": 0.2125984251968504,
                    "duration": 0.14226100000001907
                },
                {
                    "name": "G2",
                    "midi": 43,
                    "time": 404.0212399999955,
                    "velocity": 0.1968503937007874,
                    "duration": 0.28452200000003813
                },
                {
                    "name": "C3",
                    "midi": 48,
                    "time": 404.0212399999955,
                    "velocity": 0.23622047244094488,
                    "duration": 0.14226100000001907
                },
                {
                    "name": "G3",
                    "midi": 55,
                    "time": 404.1635009999955,
                    "velocity": 0.2125984251968504,
                    "duration": 0.14226100000001907
                },
                {
                    "name": "G2",
                    "midi": 43,
                    "time": 404.3057619999955,
                    "velocity": 0.1968503937007874,
                    "duration": 0.28452200000003813
                },
                {
                    "name": "F3",
                    "midi": 53,
                    "time": 404.3057619999955,
                    "velocity": 0.2283464566929134,
                    "duration": 0.14226100000001907
                },
                {
                    "name": "G3",
                    "midi": 55,
                    "time": 404.44802299999554,
                    "velocity": 0.1968503937007874,
                    "duration": 0.14226100000001907
                },
                {
                    "name": "G2",
                    "midi": 43,
                    "time": 404.59028399999556,
                    "velocity": 0.1889763779527559,
                    "duration": 0.28452200000003813
                },
                {
                    "name": "D#3",
                    "midi": 51,
                    "time": 404.59028399999556,
                    "velocity": 0.1968503937007874,
                    "duration": 0.14226100000001907
                },
                {
                    "name": "G3",
                    "midi": 55,
                    "time": 404.7325449999956,
                    "velocity": 0.2047244094488189,
                    "duration": 0.14226100000001907
                },
                {
                    "name": "F#2",
                    "midi": 42,
                    "time": 404.8748059999956,
                    "velocity": 0.1968503937007874,
                    "duration": 0.28452200000003813
                },
                {
                    "name": "D#3",
                    "midi": 51,
                    "time": 404.8748059999956,
                    "velocity": 0.2755905511811024,
                    "duration": 0.14226100000001907
                },
                {
                    "name": "F#3",
                    "midi": 54,
                    "time": 405.0170669999956,
                    "velocity": 0.23622047244094488,
                    "duration": 0.14226100000001907
                },
                {
                    "name": "F2",
                    "midi": 41,
                    "time": 405.15932799999564,
                    "velocity": 0.2125984251968504,
                    "duration": 0.8535659999998302
                },
                {
                    "name": "D#3",
                    "midi": 51,
                    "time": 405.15932799999564,
                    "velocity": 0.25196850393700787,
                    "duration": 0.8535659999998302
                },
                {
                    "name": "F3",
                    "midi": 53,
                    "time": 405.30158899999566,
                    "velocity": 0.2204724409448819,
                    "duration": 0.07113049999998111
                },
                {
                    "name": "F3",
                    "midi": 53,
                    "time": 405.4438499999956,
                    "velocity": 0.2283464566929134,
                    "duration": 0.07113049999998111
                },
                {
                    "name": "F3",
                    "midi": 53,
                    "time": 405.5861109999956,
                    "velocity": 0.2125984251968504,
                    "duration": 0.07113049999998111
                },
                {
                    "name": "F3",
                    "midi": 53,
                    "time": 405.72837199999555,
                    "velocity": 0.23622047244094488,
                    "duration": 0.07113049999998111
                },
                {
                    "name": "F3",
                    "midi": 53,
                    "time": 405.8706329999955,
                    "velocity": 0.2125984251968504,
                    "duration": 0.07113049999998111
                },
                {
                    "name": "F2",
                    "midi": 41,
                    "time": 406.01289399999547,
                    "velocity": 0.16535433070866143,
                    "duration": 0.14226100000001907
                },
                {
                    "name": "D3",
                    "midi": 50,
                    "time": 406.01289399999547,
                    "velocity": 0.1889763779527559,
                    "duration": 0.14226100000001907
                },
                {
                    "name": "F3",
                    "midi": 53,
                    "time": 406.01289399999547,
                    "velocity": 0.2283464566929134,
                    "duration": 0.14226100000001907
                },
                {
                    "name": "F2",
                    "midi": 41,
                    "time": 406.1551549999955,
                    "velocity": 0.16535433070866143,
                    "duration": 0.14226100000001907
                },
                {
                    "name": "C3",
                    "midi": 48,
                    "time": 406.1551549999955,
                    "velocity": 0.1889763779527559,
                    "duration": 0.14226100000001907
                },
                {
                    "name": "F3",
                    "midi": 53,
                    "time": 406.1551549999955,
                    "velocity": 0.2125984251968504,
                    "duration": 0.14226100000001907
                },
                {
                    "name": "F2",
                    "midi": 41,
                    "time": 406.2974159999955,
                    "velocity": 0.1968503937007874,
                    "duration": 0.28452200000003813
                },
                {
                    "name": "A#2",
                    "midi": 46,
                    "time": 406.2974159999955,
                    "velocity": 0.23622047244094488,
                    "duration": 0.14226100000001907
                },
                {
                    "name": "F3",
                    "midi": 53,
                    "time": 406.4396769999955,
                    "velocity": 0.2125984251968504,
                    "duration": 0.14226100000001907
                },
                {
                    "name": "F2",
                    "midi": 41,
                    "time": 406.58193799999555,
                    "velocity": 0.18110236220472442,
                    "duration": 0.28452200000003813
                },
                {
                    "name": "C3",
                    "midi": 48,
                    "time": 406.58193799999555,
                    "velocity": 0.2125984251968504,
                    "duration": 0.14226100000001907
                },
                {
                    "name": "F3",
                    "midi": 53,
                    "time": 406.72419899999556,
                    "velocity": 0.18110236220472442,
                    "duration": 0.14226100000001907
                },
                {
                    "name": "F2",
                    "midi": 41,
                    "time": 406.8664599999956,
                    "velocity": 0.1968503937007874,
                    "duration": 0.28452200000003813
                },
                {
                    "name": "D3",
                    "midi": 50,
                    "time": 406.8664599999956,
                    "velocity": 0.2047244094488189,
                    "duration": 0.14226100000001907
                },
                {
                    "name": "F3",
                    "midi": 53,
                    "time": 407.0087209999956,
                    "velocity": 0.1889763779527559,
                    "duration": 0.14226100000001907
                },
                {
                    "name": "F2",
                    "midi": 41,
                    "time": 407.1509819999956,
                    "velocity": 0.1732283464566929,
                    "duration": 0.28452200000003813
                },
                {
                    "name": "D#3",
                    "midi": 51,
                    "time": 407.1509819999956,
                    "velocity": 0.2440944881889764,
                    "duration": 0.14226100000001907
                },
                {
                    "name": "F3",
                    "midi": 53,
                    "time": 407.29324299999564,
                    "velocity": 0.2125984251968504,
                    "duration": 0.14226100000001907
                },
                {
                    "name": "F3",
                    "midi": 53,
                    "time": 407.43550399999566,
                    "velocity": 0.2204724409448819,
                    "duration": 0.7113050000000385
                },
                {
                    "name": "F2",
                    "midi": 41,
                    "time": 407.43550399999566,
                    "velocity": 0.1889763779527559,
                    "duration": 0.5690440000000194
                },
                {
                    "name": "D#3",
                    "midi": 51,
                    "time": 407.43550399999566,
                    "velocity": 0.2204724409448819,
                    "duration": 0.5690440000000194
                },
                {
                    "name": "A#2",
                    "midi": 46,
                    "time": 408.0045479999957,
                    "velocity": 0.1968503937007874,
                    "duration": 0.14226100000001907
                },
                {
                    "name": "D3",
                    "midi": 50,
                    "time": 408.0045479999957,
                    "velocity": 0.1968503937007874,
                    "duration": 0.14226100000001907
                },
                {
                    "name": "A#1",
                    "midi": 34,
                    "time": 408.2890699999957,
                    "velocity": 0.23622047244094488,
                    "duration": 0.14226100000001907
                },
                {
                    "name": "A#1",
                    "midi": 34,
                    "time": 408.57359199999576,
                    "velocity": 0.23622047244094488,
                    "duration": 0.053347874999985834
                },
                {
                    "name": "B1",
                    "midi": 35,
                    "time": 408.60915724999575,
                    "velocity": 0.2047244094488189,
                    "duration": 0.053347874999985834
                },
                {
                    "name": "A#1",
                    "midi": 34,
                    "time": 408.64472249999574,
                    "velocity": 0.2125984251968504,
                    "duration": 0.053347874999985834
                },
                {
                    "name": "B1",
                    "midi": 35,
                    "time": 408.6802877499957,
                    "velocity": 0.1968503937007874,
                    "duration": 0.053347874999985834
                },
                {
                    "name": "A#1",
                    "midi": 34,
                    "time": 408.7158529999957,
                    "velocity": 0.2125984251968504,
                    "duration": 0.053347874999985834
                },
                {
                    "name": "B1",
                    "midi": 35,
                    "time": 408.7514182499957,
                    "velocity": 0.1968503937007874,
                    "duration": 0.053347874999985834
                },
                {
                    "name": "A#1",
                    "midi": 34,
                    "time": 408.7869834999957,
                    "velocity": 0.2204724409448819,
                    "duration": 0.053347874999985834
                },
                {
                    "name": "B1",
                    "midi": 35,
                    "time": 408.8225487499957,
                    "velocity": 0.2125984251968504,
                    "duration": 0.053347874999985834
                },
                {
                    "name": "A#1",
                    "midi": 34,
                    "time": 408.8581139999957,
                    "velocity": 0.2283464566929134,
                    "duration": 0.053347874999985834
                },
                {
                    "name": "B1",
                    "midi": 35,
                    "time": 408.89367924999567,
                    "velocity": 0.2047244094488189,
                    "duration": 0.053347874999985834
                },
                {
                    "name": "A#1",
                    "midi": 34,
                    "time": 408.92924449999566,
                    "velocity": 0.2283464566929134,
                    "duration": 0.053347874999985834
                },
                {
                    "name": "B1",
                    "midi": 35,
                    "time": 408.96480974999565,
                    "velocity": 0.1968503937007874,
                    "duration": 0.053347874999985834
                },
                {
                    "name": "A#1",
                    "midi": 34,
                    "time": 409.00037499999564,
                    "velocity": 0.2204724409448819,
                    "duration": 0.053347874999985834
                },
                {
                    "name": "B1",
                    "midi": 35,
                    "time": 409.03594024999563,
                    "velocity": 0.2047244094488189,
                    "duration": 0.053347874999985834
                },
                {
                    "name": "A#1",
                    "midi": 34,
                    "time": 409.0715054999956,
                    "velocity": 0.2125984251968504,
                    "duration": 0.053347874999985834
                },
                {
                    "name": "B1",
                    "midi": 35,
                    "time": 409.1070707499956,
                    "velocity": 0.1968503937007874,
                    "duration": 0.053347874999985834
                },
                {
                    "name": "A#1",
                    "midi": 34,
                    "time": 409.1426359999956,
                    "velocity": 0.2283464566929134,
                    "duration": 0.053347874999985834
                },
                {
                    "name": "B1",
                    "midi": 35,
                    "time": 409.1782012499956,
                    "velocity": 0.2047244094488189,
                    "duration": 0.053347874999985834
                },
                {
                    "name": "A#1",
                    "midi": 34,
                    "time": 409.2137664999956,
                    "velocity": 0.2204724409448819,
                    "duration": 0.053347874999985834
                },
                {
                    "name": "B1",
                    "midi": 35,
                    "time": 409.2493317499956,
                    "velocity": 0.2047244094488189,
                    "duration": 0.053347874999985834
                },
                {
                    "name": "A#1",
                    "midi": 34,
                    "time": 409.28489699999557,
                    "velocity": 0.2204724409448819,
                    "duration": 0.053347874999985834
                },
                {
                    "name": "B1",
                    "midi": 35,
                    "time": 409.32046224999556,
                    "velocity": 0.1968503937007874,
                    "duration": 0.053347874999985834
                },
                {
                    "name": "A#1",
                    "midi": 34,
                    "time": 409.35602749999555,
                    "velocity": 0.2204724409448819,
                    "duration": 0.053347874999985834
                },
                {
                    "name": "B1",
                    "midi": 35,
                    "time": 409.39159274999554,
                    "velocity": 0.1968503937007874,
                    "duration": 0.053347874999985834
                },
                {
                    "name": "A#1",
                    "midi": 34,
                    "time": 409.42715799999553,
                    "velocity": 0.23622047244094488,
                    "duration": 0.0829855833333113
                },
                {
                    "name": "A1",
                    "midi": 33,
                    "time": 409.4982884999955,
                    "velocity": 0.2047244094488189,
                    "duration": 0.0829855833333113
                },
                {
                    "name": "G#1",
                    "midi": 32,
                    "time": 409.5694189999955,
                    "velocity": 0.23622047244094488,
                    "duration": 0.0829855833333113
                },
                {
                    "name": "G1",
                    "midi": 31,
                    "time": 409.6405494999955,
                    "velocity": 0.2047244094488189,
                    "duration": 0.0829855833333113
                },
                {
                    "name": "F#1",
                    "midi": 30,
                    "time": 409.71167999999545,
                    "velocity": 0.23622047244094488,
                    "duration": 0.035565249999990556
                },
                {
                    "name": "C#3",
                    "midi": 49,
                    "time": 409.78281049999543,
                    "velocity": 0.2047244094488189,
                    "duration": 0.07113049999998111
                },
                {
                    "name": "F#3",
                    "midi": 54,
                    "time": 409.8539409999954,
                    "velocity": 0.2047244094488189,
                    "duration": 0.07113049999998111
                },
                {
                    "name": "C#3",
                    "midi": 49,
                    "time": 409.9250714999954,
                    "velocity": 0.2047244094488189,
                    "duration": 0.07113049999998111
                },
                {
                    "name": "F#2",
                    "midi": 42,
                    "time": 409.9962019999954,
                    "velocity": 0.2440944881889764,
                    "duration": 0.07113049999998111
                },
                {
                    "name": "C#3",
                    "midi": 49,
                    "time": 410.06733249999536,
                    "velocity": 0.2047244094488189,
                    "duration": 0.07113049999998111
                },
                {
                    "name": "F3",
                    "midi": 53,
                    "time": 410.13846299999534,
                    "velocity": 0.2047244094488189,
                    "duration": 0.07113049999998111
                },
                {
                    "name": "C#3",
                    "midi": 49,
                    "time": 410.2095934999953,
                    "velocity": 0.1968503937007874,
                    "duration": 0.07113049999998111
                },
                {
                    "name": "F#2",
                    "midi": 42,
                    "time": 410.2807239999953,
                    "velocity": 0.23622047244094488,
                    "duration": 0.07113049999998111
                },
                {
                    "name": "C#3",
                    "midi": 49,
                    "time": 410.3518544999953,
                    "velocity": 0.2125984251968504,
                    "duration": 0.07113049999998111
                },
                {
                    "name": "F#3",
                    "midi": 54,
                    "time": 410.42298499999526,
                    "velocity": 0.2125984251968504,
                    "duration": 0.07113049999998111
                },
                {
                    "name": "C#3",
                    "midi": 49,
                    "time": 410.49411549999525,
                    "velocity": 0.2125984251968504,
                    "duration": 0.07113049999998111
                },
                {
                    "name": "F#2",
                    "midi": 42,
                    "time": 410.5652459999952,
                    "velocity": 0.23622047244094488,
                    "duration": 0.07113049999998111
                },
                {
                    "name": "C#3",
                    "midi": 49,
                    "time": 410.6363764999952,
                    "velocity": 0.2125984251968504,
                    "duration": 0.07113049999998111
                },
                {
                    "name": "G#3",
                    "midi": 56,
                    "time": 410.7075069999952,
                    "velocity": 0.2125984251968504,
                    "duration": 0.07113049999998111
                },
                {
                    "name": "C#3",
                    "midi": 49,
                    "time": 410.77863749999517,
                    "velocity": 0.2125984251968504,
                    "duration": 0.07113049999998111
                },
                {
                    "name": "F#2",
                    "midi": 42,
                    "time": 410.84976799999515,
                    "velocity": 0.25984251968503935,
                    "duration": 0.07113049999998111
                },
                {
                    "name": "C#3",
                    "midi": 49,
                    "time": 410.92089849999513,
                    "velocity": 0.2125984251968504,
                    "duration": 0.07113049999998111
                },
                {
                    "name": "A#3",
                    "midi": 58,
                    "time": 410.9920289999951,
                    "velocity": 0.2125984251968504,
                    "duration": 0.07113049999998111
                },
                {
                    "name": "C#3",
                    "midi": 49,
                    "time": 411.0631594999951,
                    "velocity": 0.2125984251968504,
                    "duration": 0.07113049999998111
                },
                {
                    "name": "F#2",
                    "midi": 42,
                    "time": 411.1342899999951,
                    "velocity": 0.2440944881889764,
                    "duration": 0.07113049999998111
                },
                {
                    "name": "C#3",
                    "midi": 49,
                    "time": 411.20542049999506,
                    "velocity": 0.2125984251968504,
                    "duration": 0.07113049999998111
                },
                {
                    "name": "A#3",
                    "midi": 58,
                    "time": 411.27655099999504,
                    "velocity": 0.2125984251968504,
                    "duration": 0.07113049999998111
                },
                {
                    "name": "C#3",
                    "midi": 49,
                    "time": 411.347681499995,
                    "velocity": 0.2125984251968504,
                    "duration": 0.07113049999998111
                },
                {
                    "name": "F#2",
                    "midi": 42,
                    "time": 411.418811999995,
                    "velocity": 0.23622047244094488,
                    "duration": 0.07113049999998111
                },
                {
                    "name": "C#3",
                    "midi": 49,
                    "time": 411.489942499995,
                    "velocity": 0.2125984251968504,
                    "duration": 0.07113049999998111
                },
                {
                    "name": "A#3",
                    "midi": 58,
                    "time": 411.56107299999496,
                    "velocity": 0.2125984251968504,
                    "duration": 0.07113049999998111
                },
                {
                    "name": "C#3",
                    "midi": 49,
                    "time": 411.63220349999494,
                    "velocity": 0.2125984251968504,
                    "duration": 0.07113049999998111
                },
                {
                    "name": "F#2",
                    "midi": 42,
                    "time": 411.7033339999949,
                    "velocity": 0.2440944881889764,
                    "duration": 0.07113049999998111
                },
                {
                    "name": "C#3",
                    "midi": 49,
                    "time": 411.7744644999949,
                    "velocity": 0.1968503937007874,
                    "duration": 0.07113049999998111
                },
                {
                    "name": "F#3",
                    "midi": 54,
                    "time": 411.8455949999949,
                    "velocity": 0.2204724409448819,
                    "duration": 0.07113049999998111
                },
                {
                    "name": "C#3",
                    "midi": 49,
                    "time": 411.91672549999487,
                    "velocity": 0.2125984251968504,
                    "duration": 0.07113049999998111
                },
                {
                    "name": "F#2",
                    "midi": 42,
                    "time": 411.98785599999485,
                    "velocity": 0.25984251968503935,
                    "duration": 0.07113049999998111
                },
                {
                    "name": "D#3",
                    "midi": 51,
                    "time": 412.05898649999483,
                    "velocity": 0.2125984251968504,
                    "duration": 0.07113049999998111
                },
                {
                    "name": "B3",
                    "midi": 59,
                    "time": 412.1301169999948,
                    "velocity": 0.2125984251968504,
                    "duration": 0.07113049999998111
                },
                {
                    "name": "D#3",
                    "midi": 51,
                    "time": 412.2012474999948,
                    "velocity": 0.2125984251968504,
                    "duration": 0.07113049999998111
                },
                {
                    "name": "F#2",
                    "midi": 42,
                    "time": 412.2723779999948,
                    "velocity": 0.25196850393700787,
                    "duration": 0.07113049999998111
                },
                {
                    "name": "D#3",
                    "midi": 51,
                    "time": 412.34350849999475,
                    "velocity": 0.2125984251968504,
                    "duration": 0.07113049999998111
                },
                {
                    "name": "B3",
                    "midi": 59,
                    "time": 412.41463899999474,
                    "velocity": 0.2125984251968504,
                    "duration": 0.07113049999998111
                },
                {
                    "name": "D#3",
                    "midi": 51,
                    "time": 412.4857694999947,
                    "velocity": 0.2125984251968504,
                    "duration": 0.07113049999998111
                },
                {
                    "name": "F#2",
                    "midi": 42,
                    "time": 412.5568999999947,
                    "velocity": 0.25196850393700787,
                    "duration": 0.07113049999998111
                },
                {
                    "name": "D#3",
                    "midi": 51,
                    "time": 412.6280304999947,
                    "velocity": 0.2125984251968504,
                    "duration": 0.07113049999998111
                },
                {
                    "name": "B3",
                    "midi": 59,
                    "time": 412.69916099999466,
                    "velocity": 0.2125984251968504,
                    "duration": 0.07113049999998111
                },
                {
                    "name": "D#3",
                    "midi": 51,
                    "time": 412.77029149999464,
                    "velocity": 0.2125984251968504,
                    "duration": 0.07113049999998111
                },
                {
                    "name": "F#2",
                    "midi": 42,
                    "time": 412.8414219999946,
                    "velocity": 0.25984251968503935,
                    "duration": 0.07113049999998111
                },
                {
                    "name": "D#3",
                    "midi": 51,
                    "time": 412.9125524999946,
                    "velocity": 0.2125984251968504,
                    "duration": 0.07113049999998111
                },
                {
                    "name": "B3",
                    "midi": 59,
                    "time": 412.9836829999946,
                    "velocity": 0.2440944881889764,
                    "duration": 0.07113049999998111
                },
                {
                    "name": "D#3",
                    "midi": 51,
                    "time": 413.05481349999457,
                    "velocity": 0.2125984251968504,
                    "duration": 0.07113049999998111
                },
                {
                    "name": "F#2",
                    "midi": 42,
                    "time": 413.12594399999455,
                    "velocity": 0.25984251968503935,
                    "duration": 0.07113049999998111
                },
                {
                    "name": "C#3",
                    "midi": 49,
                    "time": 413.1970744999945,
                    "velocity": 0.2204724409448819,
                    "duration": 0.07113049999998111
                },
                {
                    "name": "A#3",
                    "midi": 58,
                    "time": 413.2682049999945,
                    "velocity": 0.2204724409448819,
                    "duration": 0.07113049999998111
                },
                {
                    "name": "C#3",
                    "midi": 49,
                    "time": 413.3393354999945,
                    "velocity": 0.2204724409448819,
                    "duration": 0.07113049999998111
                },
                {
                    "name": "F#2",
                    "midi": 42,
                    "time": 413.41046599999447,
                    "velocity": 0.25984251968503935,
                    "duration": 0.07113049999998111
                },
                {
                    "name": "C#3",
                    "midi": 49,
                    "time": 413.48159649999445,
                    "velocity": 0.2125984251968504,
                    "duration": 0.07113049999998111
                },
                {
                    "name": "A#3",
                    "midi": 58,
                    "time": 413.55272699999443,
                    "velocity": 0.2204724409448819,
                    "duration": 0.07113049999998111
                },
                {
                    "name": "C#3",
                    "midi": 49,
                    "time": 413.6238574999944,
                    "velocity": 0.2125984251968504,
                    "duration": 0.07113049999998111
                },
                {
                    "name": "F#2",
                    "midi": 42,
                    "time": 413.6949879999944,
                    "velocity": 0.25984251968503935,
                    "duration": 0.07113049999998111
                },
                {
                    "name": "C#3",
                    "midi": 49,
                    "time": 413.7661184999944,
                    "velocity": 0.2204724409448819,
                    "duration": 0.07113049999998111
                },
                {
                    "name": "A#3",
                    "midi": 58,
                    "time": 413.83724899999436,
                    "velocity": 0.2283464566929134,
                    "duration": 0.07113049999998111
                },
                {
                    "name": "C#3",
                    "midi": 49,
                    "time": 413.90837949999434,
                    "velocity": 0.2283464566929134,
                    "duration": 0.07113049999998111
                },
                {
                    "name": "F#2",
                    "midi": 42,
                    "time": 413.9795099999943,
                    "velocity": 0.25984251968503935,
                    "duration": 0.07113049999998111
                },
                {
                    "name": "C#3",
                    "midi": 49,
                    "time": 414.0506404999943,
                    "velocity": 0.2204724409448819,
                    "duration": 0.07113049999998111
                },
                {
                    "name": "F#3",
                    "midi": 54,
                    "time": 414.1217709999943,
                    "velocity": 0.2204724409448819,
                    "duration": 0.07113049999998111
                },
                {
                    "name": "C#3",
                    "midi": 49,
                    "time": 414.19290149999426,
                    "velocity": 0.2204724409448819,
                    "duration": 0.07113049999998111
                },
                {
                    "name": "F#2",
                    "midi": 42,
                    "time": 414.26403199999424,
                    "velocity": 0.23622047244094488,
                    "duration": 0.07113049999998111
                },
                {
                    "name": "C#3",
                    "midi": 49,
                    "time": 414.3351624999942,
                    "velocity": 0.2047244094488189,
                    "duration": 0.07113049999998111
                },
                {
                    "name": "F#3",
                    "midi": 54,
                    "time": 414.4062929999942,
                    "velocity": 0.2047244094488189,
                    "duration": 0.07113049999998111
                },
                {
                    "name": "C#3",
                    "midi": 49,
                    "time": 414.4774234999942,
                    "velocity": 0.2047244094488189,
                    "duration": 0.07113049999998111
                },
                {
                    "name": "F#2",
                    "midi": 42,
                    "time": 414.54855399999417,
                    "velocity": 0.2440944881889764,
                    "duration": 0.07113049999998111
                },
                {
                    "name": "C#3",
                    "midi": 49,
                    "time": 414.61968449999415,
                    "velocity": 0.2047244094488189,
                    "duration": 0.07113049999998111
                },
                {
                    "name": "F3",
                    "midi": 53,
                    "time": 414.69081499999413,
                    "velocity": 0.2047244094488189,
                    "duration": 0.07113049999998111
                },
                {
                    "name": "C#3",
                    "midi": 49,
                    "time": 414.7619454999941,
                    "velocity": 0.1968503937007874,
                    "duration": 0.07113049999998111
                },
                {
                    "name": "F#2",
                    "midi": 42,
                    "time": 414.8330759999941,
                    "velocity": 0.23622047244094488,
                    "duration": 0.07113049999998111
                },
                {
                    "name": "C#3",
                    "midi": 49,
                    "time": 414.9042064999941,
                    "velocity": 0.2125984251968504,
                    "duration": 0.07113049999998111
                },
                {
                    "name": "F#3",
                    "midi": 54,
                    "time": 414.97533699999406,
                    "velocity": 0.2125984251968504,
                    "duration": 0.07113049999998111
                },
                {
                    "name": "C#3",
                    "midi": 49,
                    "time": 415.04646749999404,
                    "velocity": 0.2125984251968504,
                    "duration": 0.07113049999998111
                },
                {
                    "name": "F#2",
                    "midi": 42,
                    "time": 415.117597999994,
                    "velocity": 0.23622047244094488,
                    "duration": 0.07113049999998111
                },
                {
                    "name": "C#3",
                    "midi": 49,
                    "time": 415.188728499994,
                    "velocity": 0.2125984251968504,
                    "duration": 0.07113049999998111
                },
                {
                    "name": "G#3",
                    "midi": 56,
                    "time": 415.259858999994,
                    "velocity": 0.2125984251968504,
                    "duration": 0.07113049999998111
                },
                {
                    "name": "C#3",
                    "midi": 49,
                    "time": 415.33098949999396,
                    "velocity": 0.2125984251968504,
                    "duration": 0.07113049999998111
                },
                {
                    "name": "F#2",
                    "midi": 42,
                    "time": 415.40211999999394,
                    "velocity": 0.25984251968503935,
                    "duration": 0.07113049999998111
                },
                {
                    "name": "C#3",
                    "midi": 49,
                    "time": 415.4732504999939,
                    "velocity": 0.2125984251968504,
                    "duration": 0.07113049999998111
                },
                {
                    "name": "A3",
                    "midi": 57,
                    "time": 415.5443809999939,
                    "velocity": 0.2125984251968504,
                    "duration": 0.07113049999998111
                },
                {
                    "name": "C#3",
                    "midi": 49,
                    "time": 415.6155114999939,
                    "velocity": 0.2125984251968504,
                    "duration": 0.07113049999998111
                },
                {
                    "name": "G#2",
                    "midi": 44,
                    "time": 415.68664199999387,
                    "velocity": 0.2440944881889764,
                    "duration": 0.07113049999998111
                },
                {
                    "name": "C#3",
                    "midi": 49,
                    "time": 415.75777249999385,
                    "velocity": 0.2125984251968504,
                    "duration": 0.07113049999998111
                },
                {
                    "name": "A3",
                    "midi": 57,
                    "time": 415.82890299999383,
                    "velocity": 0.2125984251968504,
                    "duration": 0.07113049999998111
                },
                {
                    "name": "C#3",
                    "midi": 49,
                    "time": 415.9000334999938,
                    "velocity": 0.2125984251968504,
                    "duration": 0.07113049999998111
                },
                {
                    "name": "A2",
                    "midi": 45,
                    "time": 415.9711639999938,
                    "velocity": 0.23622047244094488,
                    "duration": 0.07113049999998111
                },
                {
                    "name": "C#3",
                    "midi": 49,
                    "time": 416.0422944999938,
                    "velocity": 0.2125984251968504,
                    "duration": 0.07113049999998111
                },
                {
                    "name": "A3",
                    "midi": 57,
                    "time": 416.11342499999375,
                    "velocity": 0.2125984251968504,
                    "duration": 0.07113049999998111
                },
                {
                    "name": "C#3",
                    "midi": 49,
                    "time": 416.18455549999373,
                    "velocity": 0.2125984251968504,
                    "duration": 0.07113049999998111
                },
                {
                    "name": "A2",
                    "midi": 45,
                    "time": 416.2556859999937,
                    "velocity": 0.2440944881889764,
                    "duration": 0.07113049999998111
                },
                {
                    "name": "C#3",
                    "midi": 49,
                    "time": 416.3268164999937,
                    "velocity": 0.1968503937007874,
                    "duration": 0.07113049999998111
                },
                {
                    "name": "A3",
                    "midi": 57,
                    "time": 416.3979469999937,
                    "velocity": 0.2204724409448819,
                    "duration": 0.07113049999998111
                },
                {
                    "name": "C#3",
                    "midi": 49,
                    "time": 416.46907749999366,
                    "velocity": 0.2125984251968504,
                    "duration": 0.07113049999998111
                },
                {
                    "name": "A2",
                    "midi": 45,
                    "time": 416.54020799999364,
                    "velocity": 0.25984251968503935,
                    "duration": 0.07113049999998111
                },
                {
                    "name": "F#3",
                    "midi": 54,
                    "time": 416.6113384999936,
                    "velocity": 0.2125984251968504,
                    "duration": 0.07113049999998111
                },
                {
                    "name": "D4",
                    "midi": 62,
                    "time": 416.6824689999936,
                    "velocity": 0.2125984251968504,
                    "duration": 0.07113049999998111
                },
                {
                    "name": "F#3",
                    "midi": 54,
                    "time": 416.7535994999936,
                    "velocity": 0.2125984251968504,
                    "duration": 0.07113049999998111
                },
                {
                    "name": "A2",
                    "midi": 45,
                    "time": 416.82472999999356,
                    "velocity": 0.25196850393700787,
                    "duration": 0.07113049999998111
                },
                {
                    "name": "F#3",
                    "midi": 54,
                    "time": 416.89586049999355,
                    "velocity": 0.2125984251968504,
                    "duration": 0.07113049999998111
                },
                {
                    "name": "D4",
                    "midi": 62,
                    "time": 416.9669909999935,
                    "velocity": 0.2125984251968504,
                    "duration": 0.07113049999998111
                },
                {
                    "name": "F#3",
                    "midi": 54,
                    "time": 417.0381214999935,
                    "velocity": 0.2125984251968504,
                    "duration": 0.07113049999998111
                },
                {
                    "name": "A2",
                    "midi": 45,
                    "time": 417.1092519999935,
                    "velocity": 0.25196850393700787,
                    "duration": 0.07113049999998111
                },
                {
                    "name": "F#3",
                    "midi": 54,
                    "time": 417.18038249999347,
                    "velocity": 0.2125984251968504,
                    "duration": 0.07113049999998111
                },
                {
                    "name": "D4",
                    "midi": 62,
                    "time": 417.25151299999345,
                    "velocity": 0.2125984251968504,
                    "duration": 0.07113049999998111
                },
                {
                    "name": "F#3",
                    "midi": 54,
                    "time": 417.32264349999343,
                    "velocity": 0.2125984251968504,
                    "duration": 0.07113049999998111
                },
                {
                    "name": "A2",
                    "midi": 45,
                    "time": 417.3937739999934,
                    "velocity": 0.25984251968503935,
                    "duration": 0.07113049999998111
                },
                {
                    "name": "F#3",
                    "midi": 54,
                    "time": 417.4649044999934,
                    "velocity": 0.2125984251968504,
                    "duration": 0.07113049999998111
                },
                {
                    "name": "D4",
                    "midi": 62,
                    "time": 417.5360349999934,
                    "velocity": 0.2440944881889764,
                    "duration": 0.07113049999998111
                },
                {
                    "name": "F#3",
                    "midi": 54,
                    "time": 417.60716549999336,
                    "velocity": 0.2125984251968504,
                    "duration": 0.07113049999998111
                },
                {
                    "name": "A2",
                    "midi": 45,
                    "time": 417.67829599999334,
                    "velocity": 0.25984251968503935,
                    "duration": 0.07113049999998111
                },
                {
                    "name": "E3",
                    "midi": 52,
                    "time": 417.7494264999933,
                    "velocity": 0.2204724409448819,
                    "duration": 0.07113049999998111
                },
                {
                    "name": "C#4",
                    "midi": 61,
                    "time": 417.8205569999933,
                    "velocity": 0.2204724409448819,
                    "duration": 0.07113049999998111
                },
                {
                    "name": "E3",
                    "midi": 52,
                    "time": 417.8916874999933,
                    "velocity": 0.2204724409448819,
                    "duration": 0.07113049999998111
                },
                {
                    "name": "A2",
                    "midi": 45,
                    "time": 417.96281799999326,
                    "velocity": 0.25984251968503935,
                    "duration": 0.07113049999998111
                },
                {
                    "name": "E3",
                    "midi": 52,
                    "time": 418.03394849999324,
                    "velocity": 0.2125984251968504,
                    "duration": 0.07113049999998111
                },
                {
                    "name": "C#4",
                    "midi": 61,
                    "time": 418.1050789999932,
                    "velocity": 0.2204724409448819,
                    "duration": 0.07113049999998111
                },
                {
                    "name": "E3",
                    "midi": 52,
                    "time": 418.1762094999932,
                    "velocity": 0.2125984251968504,
                    "duration": 0.07113049999998111
                },
                {
                    "name": "A2",
                    "midi": 45,
                    "time": 418.2473399999932,
                    "velocity": 0.25984251968503935,
                    "duration": 0.07113049999998111
                },
                {
                    "name": "E3",
                    "midi": 52,
                    "time": 418.31847049999317,
                    "velocity": 0.2204724409448819,
                    "duration": 0.07113049999998111
                },
                {
                    "name": "C#4",
                    "midi": 61,
                    "time": 418.38960099999315,
                    "velocity": 0.2283464566929134,
                    "duration": 0.07113049999998111
                },
                {
                    "name": "E3",
                    "midi": 52,
                    "time": 418.46073149999313,
                    "velocity": 0.2283464566929134,
                    "duration": 0.07113049999998111
                },
                {
                    "name": "A2",
                    "midi": 45,
                    "time": 418.5318619999931,
                    "velocity": 0.25984251968503935,
                    "duration": 0.07113049999998111
                },
                {
                    "name": "E3",
                    "midi": 52,
                    "time": 418.6029924999931,
                    "velocity": 0.2125984251968504,
                    "duration": 0.07113049999998111
                },
                {
                    "name": "A3",
                    "midi": 57,
                    "time": 418.6741229999931,
                    "velocity": 0.2440944881889764,
                    "duration": 0.07113049999998111
                },
                {
                    "name": "E3",
                    "midi": 52,
                    "time": 418.74525349999305,
                    "velocity": 0.2125984251968504,
                    "duration": 0.07113049999998111
                },
                {
                    "name": "A2",
                    "midi": 45,
                    "time": 418.81638399999304,
                    "velocity": 0.25984251968503935,
                    "duration": 0.07113049999998111
                },
                {
                    "name": "F#3",
                    "midi": 54,
                    "time": 418.887514499993,
                    "velocity": 0.2204724409448819,
                    "duration": 0.07113049999998111
                },
                {
                    "name": "D4",
                    "midi": 62,
                    "time": 418.958644999993,
                    "velocity": 0.2204724409448819,
                    "duration": 0.07113049999998111
                },
                {
                    "name": "F#3",
                    "midi": 54,
                    "time": 419.029775499993,
                    "velocity": 0.2204724409448819,
                    "duration": 0.07113049999998111
                },
                {
                    "name": "A2",
                    "midi": 45,
                    "time": 419.10090599999296,
                    "velocity": 0.25984251968503935,
                    "duration": 0.07113049999998111
                },
                {
                    "name": "F#3",
                    "midi": 54,
                    "time": 419.17203649999294,
                    "velocity": 0.2283464566929134,
                    "duration": 0.07113049999998111
                },
                {
                    "name": "D4",
                    "midi": 62,
                    "time": 419.2431669999929,
                    "velocity": 0.2283464566929134,
                    "duration": 0.07113049999998111
                },
                {
                    "name": "F#3",
                    "midi": 54,
                    "time": 419.3142974999929,
                    "velocity": 0.2283464566929134,
                    "duration": 0.07113049999998111
                },
                {
                    "name": "A2",
                    "midi": 45,
                    "time": 419.3854279999929,
                    "velocity": 0.25984251968503935,
                    "duration": 0.07113049999998111
                },
                {
                    "name": "E3",
                    "midi": 52,
                    "time": 419.45655849999287,
                    "velocity": 0.2204724409448819,
                    "duration": 0.07113049999998111
                },
                {
                    "name": "G#3",
                    "midi": 56,
                    "time": 419.52768899999285,
                    "velocity": 0.2204724409448819,
                    "duration": 0.07113049999998111
                },
                {
                    "name": "E3",
                    "midi": 52,
                    "time": 419.5988194999928,
                    "velocity": 0.2125984251968504,
                    "duration": 0.07113049999998111
                },
                {
                    "name": "A2",
                    "midi": 45,
                    "time": 419.6699499999928,
                    "velocity": 0.2440944881889764,
                    "duration": 0.07113049999998111
                },
                {
                    "name": "E3",
                    "midi": 52,
                    "time": 419.7410804999928,
                    "velocity": 0.2125984251968504,
                    "duration": 0.07113049999998111
                },
                {
                    "name": "B3",
                    "midi": 59,
                    "time": 419.81221099999277,
                    "velocity": 0.2204724409448819,
                    "duration": 0.07113049999998111
                },
                {
                    "name": "E3",
                    "midi": 52,
                    "time": 419.88334149999275,
                    "velocity": 0.2204724409448819,
                    "duration": 0.07113049999998111
                },
                {
                    "name": "A2",
                    "midi": 45,
                    "time": 419.95447199999273,
                    "velocity": 0.25984251968503935,
                    "duration": 0.07113049999998111
                },
                {
                    "name": "E3",
                    "midi": 52,
                    "time": 420.0256024999927,
                    "velocity": 0.2204724409448819,
                    "duration": 0.07113049999998111
                },
                {
                    "name": "A3",
                    "midi": 57,
                    "time": 420.0967329999927,
                    "velocity": 0.2204724409448819,
                    "duration": 0.07113049999998111
                },
                {
                    "name": "E3",
                    "midi": 52,
                    "time": 420.1678634999927,
                    "velocity": 0.2204724409448819,
                    "duration": 0.07113049999998111
                },
                {
                    "name": "A2",
                    "midi": 45,
                    "time": 420.23899399999266,
                    "velocity": 0.25984251968503935,
                    "duration": 0.07113049999998111
                },
                {
                    "name": "E3",
                    "midi": 52,
                    "time": 420.31012449999264,
                    "velocity": 0.2125984251968504,
                    "duration": 0.07113049999998111
                },
                {
                    "name": "C#4",
                    "midi": 61,
                    "time": 420.3812549999926,
                    "velocity": 0.2204724409448819,
                    "duration": 0.07113049999998111
                },
                {
                    "name": "E3",
                    "midi": 52,
                    "time": 420.4523854999926,
                    "velocity": 0.2125984251968504,
                    "duration": 0.07113049999998111
                },
                {
                    "name": "A2",
                    "midi": 45,
                    "time": 420.5235159999926,
                    "velocity": 0.25984251968503935,
                    "duration": 0.07113049999998111
                },
                {
                    "name": "E3",
                    "midi": 52,
                    "time": 420.59464649999256,
                    "velocity": 0.2204724409448819,
                    "duration": 0.07113049999998111
                },
                {
                    "name": "C#4",
                    "midi": 61,
                    "time": 420.66577699999254,
                    "velocity": 0.2283464566929134,
                    "duration": 0.07113049999998111
                },
                {
                    "name": "E3",
                    "midi": 52,
                    "time": 420.7369074999925,
                    "velocity": 0.2283464566929134,
                    "duration": 0.07113049999998111
                },
                {
                    "name": "A2",
                    "midi": 45,
                    "time": 420.8080379999925,
                    "velocity": 0.25984251968503935,
                    "duration": 0.07113049999998111
                },
                {
                    "name": "E3",
                    "midi": 52,
                    "time": 420.8791684999925,
                    "velocity": 0.2125984251968504,
                    "duration": 0.07113049999998111
                },
                {
                    "name": "C#4",
                    "midi": 61,
                    "time": 420.95029899999247,
                    "velocity": 0.2440944881889764,
                    "duration": 0.07113049999998111
                },
                {
                    "name": "E3",
                    "midi": 52,
                    "time": 421.02142949999245,
                    "velocity": 0.2125984251968504,
                    "duration": 0.07113049999998111
                },
                {
                    "name": "A2",
                    "midi": 45,
                    "time": 421.09255999999243,
                    "velocity": 0.25984251968503935,
                    "duration": 0.07113049999998111
                },
                {
                    "name": "F#3",
                    "midi": 54,
                    "time": 421.1636904999924,
                    "velocity": 0.2204724409448819,
                    "duration": 0.07113049999998111
                },
                {
                    "name": "D4",
                    "midi": 62,
                    "time": 421.2348209999924,
                    "velocity": 0.2204724409448819,
                    "duration": 0.07113049999998111
                },
                {
                    "name": "F#3",
                    "midi": 54,
                    "time": 421.3059514999924,
                    "velocity": 0.2204724409448819,
                    "duration": 0.07113049999998111
                },
                {
                    "name": "A2",
                    "midi": 45,
                    "time": 421.37708199999236,
                    "velocity": 0.25984251968503935,
                    "duration": 0.07113049999998111
                },
                {
                    "name": "F#3",
                    "midi": 54,
                    "time": 421.44821249999234,
                    "velocity": 0.2283464566929134,
                    "duration": 0.07113049999998111
                },
                {
                    "name": "D4",
                    "midi": 62,
                    "time": 421.5193429999923,
                    "velocity": 0.2283464566929134,
                    "duration": 0.07113049999998111
                },
                {
                    "name": "F#3",
                    "midi": 54,
                    "time": 421.5904734999923,
                    "velocity": 0.2283464566929134,
                    "duration": 0.07113049999998111
                },
                {
                    "name": "A2",
                    "midi": 45,
                    "time": 421.6616039999923,
                    "velocity": 0.25984251968503935,
                    "duration": 0.07113049999998111
                },
                {
                    "name": "E3",
                    "midi": 52,
                    "time": 421.73273449999226,
                    "velocity": 0.2204724409448819,
                    "duration": 0.07113049999998111
                },
                {
                    "name": "G#3",
                    "midi": 56,
                    "time": 421.80386499999224,
                    "velocity": 0.2204724409448819,
                    "duration": 0.07113049999998111
                },
                {
                    "name": "E3",
                    "midi": 52,
                    "time": 421.8749954999922,
                    "velocity": 0.2125984251968504,
                    "duration": 0.07113049999998111
                },
                {
                    "name": "A2",
                    "midi": 45,
                    "time": 421.9461259999922,
                    "velocity": 0.2440944881889764,
                    "duration": 0.07113049999998111
                },
                {
                    "name": "E3",
                    "midi": 52,
                    "time": 422.0172564999922,
                    "velocity": 0.2125984251968504,
                    "duration": 0.07113049999998111
                },
                {
                    "name": "B3",
                    "midi": 59,
                    "time": 422.08838699999217,
                    "velocity": 0.2204724409448819,
                    "duration": 0.07113049999998111
                },
                {
                    "name": "E3",
                    "midi": 52,
                    "time": 422.15951749999215,
                    "velocity": 0.2204724409448819,
                    "duration": 0.07113049999998111
                },
                {
                    "name": "A2",
                    "midi": 45,
                    "time": 422.23064799999213,
                    "velocity": 0.25984251968503935,
                    "duration": 0.035565249999990556
                },
                {
                    "name": "C#4",
                    "midi": 61,
                    "time": 422.3017784999921,
                    "velocity": 0.2204724409448819,
                    "duration": 0.07113049999998111
                },
                {
                    "name": "A3",
                    "midi": 57,
                    "time": 422.3729089999921,
                    "velocity": 0.2204724409448819,
                    "duration": 0.07113049999998111
                },
                {
                    "name": "C#4",
                    "midi": 61,
                    "time": 422.4440394999921,
                    "velocity": 0.2204724409448819,
                    "duration": 0.07113049999998111
                },
                {
                    "name": "A3",
                    "midi": 57,
                    "time": 422.51516999999205,
                    "velocity": 0.25984251968503935,
                    "duration": 0.07113049999998111
                },
                {
                    "name": "C#4",
                    "midi": 61,
                    "time": 422.58630049999203,
                    "velocity": 0.2283464566929134,
                    "duration": 0.07113049999998111
                },
                {
                    "name": "A3",
                    "midi": 57,
                    "time": 422.657430999992,
                    "velocity": 0.2283464566929134,
                    "duration": 0.07113049999998111
                },
                {
                    "name": "C#4",
                    "midi": 61,
                    "time": 422.728561499992,
                    "velocity": 0.2283464566929134,
                    "duration": 0.07113049999998111
                },
                {
                    "name": "A2",
                    "midi": 45,
                    "time": 422.799691999992,
                    "velocity": 0.25984251968503935,
                    "duration": 0.035565249999990556
                },
                {
                    "name": "C#4",
                    "midi": 61,
                    "time": 422.87082249999196,
                    "velocity": 0.2204724409448819,
                    "duration": 0.07113049999998111
                },
                {
                    "name": "A3",
                    "midi": 57,
                    "time": 422.94195299999194,
                    "velocity": 0.2204724409448819,
                    "duration": 0.07113049999998111
                },
                {
                    "name": "C#4",
                    "midi": 61,
                    "time": 423.0130834999919,
                    "velocity": 0.2125984251968504,
                    "duration": 0.07113049999998111
                },
                {
                    "name": "A3",
                    "midi": 57,
                    "time": 423.0842139999919,
                    "velocity": 0.2440944881889764,
                    "duration": 0.07113049999998111
                },
                {
                    "name": "C#4",
                    "midi": 61,
                    "time": 423.1553444999919,
                    "velocity": 0.2125984251968504,
                    "duration": 0.07113049999998111
                },
                {
                    "name": "A3",
                    "midi": 57,
                    "time": 423.22647499999186,
                    "velocity": 0.2204724409448819,
                    "duration": 0.07113049999998111
                },
                {
                    "name": "C#4",
                    "midi": 61,
                    "time": 423.29760549999185,
                    "velocity": 0.2204724409448819,
                    "duration": 0.07113049999998111
                },
                {
                    "name": "A2",
                    "midi": 45,
                    "time": 423.3687359999918,
                    "velocity": 0.25984251968503935,
                    "duration": 0.035565249999990556
                },
                {
                    "name": "D4",
                    "midi": 62,
                    "time": 423.4398664999918,
                    "velocity": 0.2204724409448819,
                    "duration": 0.07113049999998111
                },
                {
                    "name": "A3",
                    "midi": 57,
                    "time": 423.5109969999918,
                    "velocity": 0.2204724409448819,
                    "duration": 0.07113049999998111
                },
                {
                    "name": "D4",
                    "midi": 62,
                    "time": 423.58212749999177,
                    "velocity": 0.2204724409448819,
                    "duration": 0.07113049999998111
                },
                {
                    "name": "A3",
                    "midi": 57,
                    "time": 423.65325799999175,
                    "velocity": 0.25984251968503935,
                    "duration": 0.07113049999998111
                },
                {
                    "name": "D4",
                    "midi": 62,
                    "time": 423.72438849999173,
                    "velocity": 0.2283464566929134,
                    "duration": 0.07113049999998111
                },
                {
                    "name": "A3",
                    "midi": 57,
                    "time": 423.7955189999917,
                    "velocity": 0.2283464566929134,
                    "duration": 0.07113049999998111
                },
                {
                    "name": "D4",
                    "midi": 62,
                    "time": 423.8666494999917,
                    "velocity": 0.2283464566929134,
                    "duration": 0.07113049999998111
                },
                {
                    "name": "A2",
                    "midi": 45,
                    "time": 423.9377799999917,
                    "velocity": 0.25984251968503935,
                    "duration": 0.035565249999990556
                },
                {
                    "name": "D4",
                    "midi": 62,
                    "time": 424.00891049999166,
                    "velocity": 0.2204724409448819,
                    "duration": 0.07113049999998111
                },
                {
                    "name": "A3",
                    "midi": 57,
                    "time": 424.08004099999164,
                    "velocity": 0.2204724409448819,
                    "duration": 0.07113049999998111
                },
                {
                    "name": "D4",
                    "midi": 62,
                    "time": 424.1511714999916,
                    "velocity": 0.2125984251968504,
                    "duration": 0.07113049999998111
                },
                {
                    "name": "A3",
                    "midi": 57,
                    "time": 424.2223019999916,
                    "velocity": 0.2440944881889764,
                    "duration": 0.07113049999998111
                },
                {
                    "name": "D4",
                    "midi": 62,
                    "time": 424.2934324999916,
                    "velocity": 0.2125984251968504,
                    "duration": 0.07113049999998111
                },
                {
                    "name": "A3",
                    "midi": 57,
                    "time": 424.36456299999156,
                    "velocity": 0.2204724409448819,
                    "duration": 0.07113049999998111
                },
                {
                    "name": "D4",
                    "midi": 62,
                    "time": 424.43569349999154,
                    "velocity": 0.2204724409448819,
                    "duration": 0.07113049999998111
                },
                {
                    "name": "A2",
                    "midi": 45,
                    "time": 424.5068239999915,
                    "velocity": 0.25984251968503935,
                    "duration": 0.035565249999990556
                },
                {
                    "name": "C#4",
                    "midi": 61,
                    "time": 424.5779544999915,
                    "velocity": 0.2204724409448819,
                    "duration": 0.07113049999998111
                },
                {
                    "name": "A3",
                    "midi": 57,
                    "time": 424.6490849999915,
                    "velocity": 0.2204724409448819,
                    "duration": 0.07113049999998111
                },
                {
                    "name": "C#4",
                    "midi": 61,
                    "time": 424.72021549999147,
                    "velocity": 0.2204724409448819,
                    "duration": 0.07113049999998111
                },
                {
                    "name": "A3",
                    "midi": 57,
                    "time": 424.79134599999145,
                    "velocity": 0.25984251968503935,
                    "duration": 0.07113049999998111
                },
                {
                    "name": "C#4",
                    "midi": 61,
                    "time": 424.86247649999143,
                    "velocity": 0.2283464566929134,
                    "duration": 0.07113049999998111
                },
                {
                    "name": "A3",
                    "midi": 57,
                    "time": 424.9336069999914,
                    "velocity": 0.2283464566929134,
                    "duration": 0.07113049999998111
                },
                {
                    "name": "C#4",
                    "midi": 61,
                    "time": 425.0047374999914,
                    "velocity": 0.2283464566929134,
                    "duration": 0.07113049999998111
                },
                {
                    "name": "A2",
                    "midi": 45,
                    "time": 425.0758679999914,
                    "velocity": 0.25984251968503935,
                    "duration": 0.035565249999990556
                },
                {
                    "name": "C#4",
                    "midi": 61,
                    "time": 425.14699849999135,
                    "velocity": 0.2204724409448819,
                    "duration": 0.07113049999998111
                },
                {
                    "name": "A3",
                    "midi": 57,
                    "time": 425.21812899999134,
                    "velocity": 0.2204724409448819,
                    "duration": 0.07113049999998111
                },
                {
                    "name": "C#4",
                    "midi": 61,
                    "time": 425.2892594999913,
                    "velocity": 0.2125984251968504,
                    "duration": 0.07113049999998111
                },
                {
                    "name": "A3",
                    "midi": 57,
                    "time": 425.3603899999913,
                    "velocity": 0.2440944881889764,
                    "duration": 0.07113049999998111
                },
                {
                    "name": "C#4",
                    "midi": 61,
                    "time": 425.4315204999913,
                    "velocity": 0.2125984251968504,
                    "duration": 0.07113049999998111
                },
                {
                    "name": "A3",
                    "midi": 57,
                    "time": 425.50265099999126,
                    "velocity": 0.2204724409448819,
                    "duration": 0.07113049999998111
                },
                {
                    "name": "C#4",
                    "midi": 61,
                    "time": 425.57378149999124,
                    "velocity": 0.2204724409448819,
                    "duration": 0.07113049999998111
                },
                {
                    "name": "A2",
                    "midi": 45,
                    "time": 425.6449119999912,
                    "velocity": 0.25984251968503935,
                    "duration": 0.035565249999990556
                },
                {
                    "name": "D4",
                    "midi": 62,
                    "time": 425.7160424999912,
                    "velocity": 0.2204724409448819,
                    "duration": 0.07113049999998111
                },
                {
                    "name": "A3",
                    "midi": 57,
                    "time": 425.7871729999912,
                    "velocity": 0.2204724409448819,
                    "duration": 0.07113049999998111
                },
                {
                    "name": "D4",
                    "midi": 62,
                    "time": 425.85830349999117,
                    "velocity": 0.2204724409448819,
                    "duration": 0.07113049999998111
                },
                {
                    "name": "A3",
                    "midi": 57,
                    "time": 425.92943399999115,
                    "velocity": 0.25984251968503935,
                    "duration": 0.07113049999998111
                },
                {
                    "name": "D4",
                    "midi": 62,
                    "time": 426.0005644999911,
                    "velocity": 0.2283464566929134,
                    "duration": 0.07113049999998111
                },
                {
                    "name": "A3",
                    "midi": 57,
                    "time": 426.0716949999911,
                    "velocity": 0.2283464566929134,
                    "duration": 0.07113049999998111
                },
                {
                    "name": "D4",
                    "midi": 62,
                    "time": 426.1428254999911,
                    "velocity": 0.2283464566929134,
                    "duration": 0.07113049999998111
                },
                {
                    "name": "A2",
                    "midi": 45,
                    "time": 426.2139559999911,
                    "velocity": 0.25984251968503935,
                    "duration": 0.035565249999990556
                },
                {
                    "name": "D4",
                    "midi": 62,
                    "time": 426.28508649999105,
                    "velocity": 0.2204724409448819,
                    "duration": 0.07113049999998111
                },
                {
                    "name": "A3",
                    "midi": 57,
                    "time": 426.35621699999103,
                    "velocity": 0.2204724409448819,
                    "duration": 0.07113049999998111
                },
                {
                    "name": "D4",
                    "midi": 62,
                    "time": 426.427347499991,
                    "velocity": 0.2125984251968504,
                    "duration": 0.07113049999998111
                },
                {
                    "name": "A3",
                    "midi": 57,
                    "time": 426.498477999991,
                    "velocity": 0.2440944881889764,
                    "duration": 0.07113049999998111
                },
                {
                    "name": "D4",
                    "midi": 62,
                    "time": 426.569608499991,
                    "velocity": 0.2125984251968504,
                    "duration": 0.07113049999998111
                },
                {
                    "name": "A3",
                    "midi": 57,
                    "time": 426.64073899999096,
                    "velocity": 0.2204724409448819,
                    "duration": 0.07113049999998111
                },
                {
                    "name": "D4",
                    "midi": 62,
                    "time": 426.71186949999094,
                    "velocity": 0.2204724409448819,
                    "duration": 0.07113049999998111
                },
                {
                    "name": "A2",
                    "midi": 45,
                    "time": 426.7829999999909,
                    "velocity": 0.25984251968503935,
                    "duration": 0.035565249999990556
                },
                {
                    "name": "C#4",
                    "midi": 61,
                    "time": 426.8541304999909,
                    "velocity": 0.2204724409448819,
                    "duration": 0.07113049999998111
                },
                {
                    "name": "A3",
                    "midi": 57,
                    "time": 426.9252609999909,
                    "velocity": 0.2204724409448819,
                    "duration": 0.07113049999998111
                },
                {
                    "name": "C#4",
                    "midi": 61,
                    "time": 426.99639149999086,
                    "velocity": 0.2204724409448819,
                    "duration": 0.07113049999998111
                },
                {
                    "name": "A3",
                    "midi": 57,
                    "time": 427.06752199999084,
                    "velocity": 0.25984251968503935,
                    "duration": 0.07113049999998111
                },
                {
                    "name": "C#4",
                    "midi": 61,
                    "time": 427.1386524999908,
                    "velocity": 0.2283464566929134,
                    "duration": 0.07113049999998111
                },
                {
                    "name": "A3",
                    "midi": 57,
                    "time": 427.2097829999908,
                    "velocity": 0.2283464566929134,
                    "duration": 0.07113049999998111
                },
                {
                    "name": "C#4",
                    "midi": 61,
                    "time": 427.2809134999908,
                    "velocity": 0.2283464566929134,
                    "duration": 0.07113049999998111
                },
                {
                    "name": "A3",
                    "midi": 57,
                    "time": 427.35204399999077,
                    "velocity": 0.25984251968503935,
                    "duration": 0.07113049999998111
                },
                {
                    "name": "C#4",
                    "midi": 61,
                    "time": 427.42317449999075,
                    "velocity": 0.2204724409448819,
                    "duration": 0.07113049999998111
                },
                {
                    "name": "A3",
                    "midi": 57,
                    "time": 427.49430499999073,
                    "velocity": 0.2204724409448819,
                    "duration": 0.07113049999998111
                },
                {
                    "name": "C#4",
                    "midi": 61,
                    "time": 427.5654354999907,
                    "velocity": 0.2125984251968504,
                    "duration": 0.07113049999998111
                },
                {
                    "name": "A3",
                    "midi": 57,
                    "time": 427.6365659999907,
                    "velocity": 0.2440944881889764,
                    "duration": 0.07113049999998111
                },
                {
                    "name": "C#4",
                    "midi": 61,
                    "time": 427.7076964999907,
                    "velocity": 0.2125984251968504,
                    "duration": 0.07113049999998111
                },
                {
                    "name": "A3",
                    "midi": 57,
                    "time": 427.77882699999066,
                    "velocity": 0.2204724409448819,
                    "duration": 0.07113049999998111
                },
                {
                    "name": "C#4",
                    "midi": 61,
                    "time": 427.84995749999064,
                    "velocity": 0.2204724409448819,
                    "duration": 0.07113049999998111
                },
                {
                    "name": "A2",
                    "midi": 45,
                    "time": 427.9210879999906,
                    "velocity": 0.25984251968503935,
                    "duration": 0.035565249999990556
                },
                {
                    "name": "C#4",
                    "midi": 61,
                    "time": 427.9922184999906,
                    "velocity": 0.2204724409448819,
                    "duration": 0.07113049999998111
                },
                {
                    "name": "A3",
                    "midi": 57,
                    "time": 428.0633489999906,
                    "velocity": 0.2204724409448819,
                    "duration": 0.07113049999998111
                },
                {
                    "name": "C#4",
                    "midi": 61,
                    "time": 428.13447949999056,
                    "velocity": 0.2204724409448819,
                    "duration": 0.07113049999998111
                },
                {
                    "name": "A3",
                    "midi": 57,
                    "time": 428.20560999999054,
                    "velocity": 0.25984251968503935,
                    "duration": 0.07113049999998111
                },
                {
                    "name": "C#4",
                    "midi": 61,
                    "time": 428.2767404999905,
                    "velocity": 0.2283464566929134,
                    "duration": 0.07113049999998111
                },
                {
                    "name": "A3",
                    "midi": 57,
                    "time": 428.3478709999905,
                    "velocity": 0.2283464566929134,
                    "duration": 0.07113049999998111
                },
                {
                    "name": "C#4",
                    "midi": 61,
                    "time": 428.4190014999905,
                    "velocity": 0.2283464566929134,
                    "duration": 0.07113049999998111
                },
                {
                    "name": "A3",
                    "midi": 57,
                    "time": 428.49013199999047,
                    "velocity": 0.25984251968503935,
                    "duration": 0.07113049999998111
                },
                {
                    "name": "C#4",
                    "midi": 61,
                    "time": 428.56126249999045,
                    "velocity": 0.2204724409448819,
                    "duration": 0.07113049999998111
                },
                {
                    "name": "A3",
                    "midi": 57,
                    "time": 428.63239299999043,
                    "velocity": 0.2204724409448819,
                    "duration": 0.07113049999998111
                },
                {
                    "name": "C#4",
                    "midi": 61,
                    "time": 428.7035234999904,
                    "velocity": 0.2125984251968504,
                    "duration": 0.07113049999998111
                },
                {
                    "name": "A3",
                    "midi": 57,
                    "time": 428.7746539999904,
                    "velocity": 0.2440944881889764,
                    "duration": 0.07113049999998111
                },
                {
                    "name": "C#4",
                    "midi": 61,
                    "time": 428.8457844999904,
                    "velocity": 0.2125984251968504,
                    "duration": 0.07113049999998111
                },
                {
                    "name": "A3",
                    "midi": 57,
                    "time": 428.91691499999035,
                    "velocity": 0.2204724409448819,
                    "duration": 0.07113049999998111
                },
                {
                    "name": "C#4",
                    "midi": 61,
                    "time": 428.98804549999033,
                    "velocity": 0.2204724409448819,
                    "duration": 0.07113049999998111
                },
                {
                    "name": "A3",
                    "midi": 57,
                    "time": 429.0591759999903,
                    "velocity": 0.25984251968503935,
                    "duration": 0.07113049999998111
                },
                {
                    "name": "C#4",
                    "midi": 61,
                    "time": 429.1303064999903,
                    "velocity": 0.2204724409448819,
                    "duration": 0.07113049999998111
                },
                {
                    "name": "A3",
                    "midi": 57,
                    "time": 429.2014369999903,
                    "velocity": 0.2204724409448819,
                    "duration": 0.07113049999998111
                },
                {
                    "name": "C#4",
                    "midi": 61,
                    "time": 429.27256749999026,
                    "velocity": 0.2204724409448819,
                    "duration": 0.07113049999998111
                },
                {
                    "name": "A3",
                    "midi": 57,
                    "time": 429.34369799999024,
                    "velocity": 0.25984251968503935,
                    "duration": 0.07113049999998111
                },
                {
                    "name": "C#4",
                    "midi": 61,
                    "time": 429.4148284999902,
                    "velocity": 0.2283464566929134,
                    "duration": 0.07113049999998111
                },
                {
                    "name": "A3",
                    "midi": 57,
                    "time": 429.4859589999902,
                    "velocity": 0.2283464566929134,
                    "duration": 0.07113049999998111
                },
                {
                    "name": "C#4",
                    "midi": 61,
                    "time": 429.5570894999902,
                    "velocity": 0.23622047244094488,
                    "duration": 0.07113049999998111
                },
                {
                    "name": "A3",
                    "midi": 57,
                    "time": 429.62821999999016,
                    "velocity": 0.2677165354330709,
                    "duration": 0.07113049999998111
                },
                {
                    "name": "C#4",
                    "midi": 61,
                    "time": 429.69935049999015,
                    "velocity": 0.2283464566929134,
                    "duration": 0.07113049999998111
                },
                {
                    "name": "A3",
                    "midi": 57,
                    "time": 429.7704809999901,
                    "velocity": 0.2283464566929134,
                    "duration": 0.07113049999998111
                },
                {
                    "name": "C#4",
                    "midi": 61,
                    "time": 429.8416114999901,
                    "velocity": 0.2204724409448819,
                    "duration": 0.07113049999998111
                },
                {
                    "name": "A3",
                    "midi": 57,
                    "time": 429.9127419999901,
                    "velocity": 0.25984251968503935,
                    "duration": 0.07113049999998111
                },
                {
                    "name": "C#4",
                    "midi": 61,
                    "time": 429.98387249999007,
                    "velocity": 0.2283464566929134,
                    "duration": 0.07113049999998111
                },
                {
                    "name": "A3",
                    "midi": 57,
                    "time": 430.05500299999005,
                    "velocity": 0.23622047244094488,
                    "duration": 0.07113049999998111
                },
                {
                    "name": "C#4",
                    "midi": 61,
                    "time": 430.12613349999003,
                    "velocity": 0.23622047244094488,
                    "duration": 0.07113049999998111
                },
                {
                    "name": "A2",
                    "midi": 45,
                    "time": 430.19726399999,
                    "velocity": 0.2677165354330709,
                    "duration": 0.09484066666664148
                },
                {
                    "name": "A3",
                    "midi": 57,
                    "time": 430.29210466665666,
                    "velocity": 0.2440944881889764,
                    "duration": 0.09009863333335488
                },
                {
                    "name": "A3",
                    "midi": 57,
                    "time": 430.38694533332335,
                    "velocity": 0.2440944881889764,
                    "duration": 0.09009863333335488
                },
                {
                    "name": "A2",
                    "midi": 45,
                    "time": 430.38694533332335,
                    "velocity": 0.1968503937007874,
                    "duration": 0.09009863333335488
                },
                {
                    "name": "A2",
                    "midi": 45,
                    "time": 430.48178599999005,
                    "velocity": 0.2283464566929134,
                    "duration": 0.09009863333335488
                },
                {
                    "name": "A3",
                    "midi": 57,
                    "time": 430.48178599999005,
                    "velocity": 0.2755905511811024,
                    "duration": 0.09009863333335488
                },
                {
                    "name": "A2",
                    "midi": 45,
                    "time": 430.57662666665675,
                    "velocity": 0.1968503937007874,
                    "duration": 0.09009863333335488
                },
                {
                    "name": "A3",
                    "midi": 57,
                    "time": 430.57662666665675,
                    "velocity": 0.2440944881889764,
                    "duration": 0.09009863333335488
                },
                {
                    "name": "A2",
                    "midi": 45,
                    "time": 430.67146733332345,
                    "velocity": 0.2125984251968504,
                    "duration": 0.09009863333335488
                },
                {
                    "name": "A3",
                    "midi": 57,
                    "time": 430.67146733332345,
                    "velocity": 0.25984251968503935,
                    "duration": 0.09009863333335488
                },
                {
                    "name": "A2",
                    "midi": 45,
                    "time": 430.76630799999015,
                    "velocity": 0.2440944881889764,
                    "duration": 0.09009863333335488
                },
                {
                    "name": "A3",
                    "midi": 57,
                    "time": 430.76630799999015,
                    "velocity": 0.29133858267716534,
                    "duration": 0.09009863333335488
                },
                {
                    "name": "A2",
                    "midi": 45,
                    "time": 430.86114866665685,
                    "velocity": 0.2283464566929134,
                    "duration": 0.09009863333335488
                },
                {
                    "name": "A3",
                    "midi": 57,
                    "time": 430.86114866665685,
                    "velocity": 0.2755905511811024,
                    "duration": 0.09009863333335488
                },
                {
                    "name": "A2",
                    "midi": 45,
                    "time": 430.95598933332354,
                    "velocity": 0.2283464566929134,
                    "duration": 0.09009863333335488
                },
                {
                    "name": "A3",
                    "midi": 57,
                    "time": 430.95598933332354,
                    "velocity": 0.2755905511811024,
                    "duration": 0.09009863333335488
                },
                {
                    "name": "G3",
                    "midi": 55,
                    "time": 431.05082999999024,
                    "velocity": 0.25196850393700787,
                    "duration": 0.09009863333335488
                },
                {
                    "name": "E3",
                    "midi": 52,
                    "time": 431.05082999999024,
                    "velocity": 0.25196850393700787,
                    "duration": 0.09009863333335488
                },
                {
                    "name": "A2",
                    "midi": 45,
                    "time": 431.05082999999024,
                    "velocity": 0.25196850393700787,
                    "duration": 0.09009863333335488
                },
                {
                    "name": "A3",
                    "midi": 57,
                    "time": 431.05082999999024,
                    "velocity": 0.2992125984251969,
                    "duration": 0.09009863333335488
                },
                {
                    "name": "G3",
                    "midi": 55,
                    "time": 431.14567066665694,
                    "velocity": 0.25196850393700787,
                    "duration": 0.09009863333335488
                },
                {
                    "name": "E3",
                    "midi": 52,
                    "time": 431.14567066665694,
                    "velocity": 0.25196850393700787,
                    "duration": 0.09009863333335488
                },
                {
                    "name": "A2",
                    "midi": 45,
                    "time": 431.14567066665694,
                    "velocity": 0.2204724409448819,
                    "duration": 0.09009863333335488
                },
                {
                    "name": "A3",
                    "midi": 57,
                    "time": 431.14567066665694,
                    "velocity": 0.2755905511811024,
                    "duration": 0.09009863333335488
                },
                {
                    "name": "G3",
                    "midi": 55,
                    "time": 431.24051133332364,
                    "velocity": 0.25196850393700787,
                    "duration": 0.09009863333335488
                },
                {
                    "name": "E3",
                    "midi": 52,
                    "time": 431.24051133332364,
                    "velocity": 0.25984251968503935,
                    "duration": 0.09009863333335488
                },
                {
                    "name": "A2",
                    "midi": 45,
                    "time": 431.24051133332364,
                    "velocity": 0.2283464566929134,
                    "duration": 0.09009863333335488
                },
                {
                    "name": "A3",
                    "midi": 57,
                    "time": 431.24051133332364,
                    "velocity": 0.2755905511811024,
                    "duration": 0.09009863333335488
                },
                {
                    "name": "G3",
                    "midi": 55,
                    "time": 431.33535199999034,
                    "velocity": 0.25984251968503935,
                    "duration": 0.09009863333335488
                },
                {
                    "name": "E3",
                    "midi": 52,
                    "time": 431.33535199999034,
                    "velocity": 0.25984251968503935,
                    "duration": 0.09009863333335488
                },
                {
                    "name": "A2",
                    "midi": 45,
                    "time": 431.33535199999034,
                    "velocity": 0.25984251968503935,
                    "duration": 0.09009863333335488
                },
                {
                    "name": "A3",
                    "midi": 57,
                    "time": 431.33535199999034,
                    "velocity": 0.31496062992125984,
                    "duration": 0.09009863333335488
                },
                {
                    "name": "G3",
                    "midi": 55,
                    "time": 431.43019266665704,
                    "velocity": 0.25984251968503935,
                    "duration": 0.09009863333335488
                },
                {
                    "name": "E3",
                    "midi": 52,
                    "time": 431.43019266665704,
                    "velocity": 0.2677165354330709,
                    "duration": 0.09009863333335488
                },
                {
                    "name": "A2",
                    "midi": 45,
                    "time": 431.43019266665704,
                    "velocity": 0.23622047244094488,
                    "duration": 0.09009863333335488
                },
                {
                    "name": "A3",
                    "midi": 57,
                    "time": 431.43019266665704,
                    "velocity": 0.28346456692913385,
                    "duration": 0.09009863333335488
                },
                {
                    "name": "G3",
                    "midi": 55,
                    "time": 431.52503333332373,
                    "velocity": 0.25984251968503935,
                    "duration": 0.09009863333335488
                },
                {
                    "name": "E3",
                    "midi": 52,
                    "time": 431.52503333332373,
                    "velocity": 0.2755905511811024,
                    "duration": 0.09009863333335488
                },
                {
                    "name": "A2",
                    "midi": 45,
                    "time": 431.52503333332373,
                    "velocity": 0.23622047244094488,
                    "duration": 0.09009863333335488
                },
                {
                    "name": "A3",
                    "midi": 57,
                    "time": 431.52503333332373,
                    "velocity": 0.29133858267716534,
                    "duration": 0.09009863333335488
                },
                {
                    "name": "G3",
                    "midi": 55,
                    "time": 431.61987399999043,
                    "velocity": 0.3464566929133858,
                    "duration": 0.09009863333335488
                },
                {
                    "name": "E3",
                    "midi": 52,
                    "time": 431.61987399999043,
                    "velocity": 0.28346456692913385,
                    "duration": 0.09009863333335488
                },
                {
                    "name": "A2",
                    "midi": 45,
                    "time": 431.61987399999043,
                    "velocity": 0.28346456692913385,
                    "duration": 0.09009863333335488
                },
                {
                    "name": "A3",
                    "midi": 57,
                    "time": 431.61987399999043,
                    "velocity": 0.3464566929133858,
                    "duration": 0.09009863333335488
                },
                {
                    "name": "G3",
                    "midi": 55,
                    "time": 431.71471466665713,
                    "velocity": 0.3464566929133858,
                    "duration": 0.09009863333335488
                },
                {
                    "name": "E3",
                    "midi": 52,
                    "time": 431.71471466665713,
                    "velocity": 0.29133858267716534,
                    "duration": 0.09009863333335488
                },
                {
                    "name": "A2",
                    "midi": 45,
                    "time": 431.71471466665713,
                    "velocity": 0.25984251968503935,
                    "duration": 0.09009863333335488
                },
                {
                    "name": "A3",
                    "midi": 57,
                    "time": 431.71471466665713,
                    "velocity": 0.31496062992125984,
                    "duration": 0.09009863333335488
                },
                {
                    "name": "G3",
                    "midi": 55,
                    "time": 431.80955533332383,
                    "velocity": 0.3543307086614173,
                    "duration": 0.09009863333335488
                },
                {
                    "name": "E3",
                    "midi": 52,
                    "time": 431.80955533332383,
                    "velocity": 0.30708661417322836,
                    "duration": 0.09009863333335488
                },
                {
                    "name": "A2",
                    "midi": 45,
                    "time": 431.80955533332383,
                    "velocity": 0.2677165354330709,
                    "duration": 0.09009863333335488
                },
                {
                    "name": "A3",
                    "midi": 57,
                    "time": 431.80955533332383,
                    "velocity": 0.33070866141732286,
                    "duration": 0.09009863333335488
                },
                {
                    "name": "G3",
                    "midi": 55,
                    "time": 431.9043959999905,
                    "velocity": 0.3779527559055118,
                    "duration": 0.09009863333335488
                },
                {
                    "name": "E3",
                    "midi": 52,
                    "time": 431.9043959999905,
                    "velocity": 0.31496062992125984,
                    "duration": 0.09009863333335488
                },
                {
                    "name": "A2",
                    "midi": 45,
                    "time": 431.9043959999905,
                    "velocity": 0.31496062992125984,
                    "duration": 0.09009863333335488
                },
                {
                    "name": "A3",
                    "midi": 57,
                    "time": 431.9043959999905,
                    "velocity": 0.3779527559055118,
                    "duration": 0.09009863333335488
                },
                {
                    "name": "G3",
                    "midi": 55,
                    "time": 431.9992366666572,
                    "velocity": 0.3858267716535433,
                    "duration": 0.09009863333335488
                },
                {
                    "name": "E3",
                    "midi": 52,
                    "time": 431.9992366666572,
                    "velocity": 0.3228346456692913,
                    "duration": 0.09009863333335488
                },
                {
                    "name": "A2",
                    "midi": 45,
                    "time": 431.9992366666572,
                    "velocity": 0.29133858267716534,
                    "duration": 0.09009863333335488
                },
                {
                    "name": "A3",
                    "midi": 57,
                    "time": 431.9992366666572,
                    "velocity": 0.3464566929133858,
                    "duration": 0.09009863333335488
                },
                {
                    "name": "G3",
                    "midi": 55,
                    "time": 432.0940773333239,
                    "velocity": 0.3858267716535433,
                    "duration": 0.09009863333335488
                },
                {
                    "name": "E3",
                    "midi": 52,
                    "time": 432.0940773333239,
                    "velocity": 0.33858267716535434,
                    "duration": 0.09009863333335488
                },
                {
                    "name": "A2",
                    "midi": 45,
                    "time": 432.0940773333239,
                    "velocity": 0.29133858267716534,
                    "duration": 0.09009863333335488
                },
                {
                    "name": "A3",
                    "midi": 57,
                    "time": 432.0940773333239,
                    "velocity": 0.36220472440944884,
                    "duration": 0.09009863333335488
                },
                {
                    "name": "D3",
                    "midi": 50,
                    "time": 432.1889179999906,
                    "velocity": 0.3779527559055118,
                    "duration": 0.09009863333335488
                },
                {
                    "name": "A#3",
                    "midi": 58,
                    "time": 432.1889179999906,
                    "velocity": 0.44881889763779526,
                    "duration": 0.09009863333335488
                },
                {
                    "name": "A#2",
                    "midi": 46,
                    "time": 432.1889179999906,
                    "velocity": 0.3779527559055118,
                    "duration": 0.09009863333335488
                },
                {
                    "name": "F3",
                    "midi": 53,
                    "time": 432.1889179999906,
                    "velocity": 0.3779527559055118,
                    "duration": 0.09009863333335488
                },
                {
                    "name": "D3",
                    "midi": 50,
                    "time": 432.2837586666573,
                    "velocity": 0.3779527559055118,
                    "duration": 0.09009863333335488
                },
                {
                    "name": "A#3",
                    "midi": 58,
                    "time": 432.2837586666573,
                    "velocity": 0.4094488188976378,
                    "duration": 0.09009863333335488
                },
                {
                    "name": "A#2",
                    "midi": 46,
                    "time": 432.2837586666573,
                    "velocity": 0.33070866141732286,
                    "duration": 0.09009863333335488
                },
                {
                    "name": "F3",
                    "midi": 53,
                    "time": 432.2837586666573,
                    "velocity": 0.3779527559055118,
                    "duration": 0.09009863333335488
                },
                {
                    "name": "D3",
                    "midi": 50,
                    "time": 432.378599333324,
                    "velocity": 0.3779527559055118,
                    "duration": 0.09009863333335488
                },
                {
                    "name": "A#3",
                    "midi": 58,
                    "time": 432.378599333324,
                    "velocity": 0.4094488188976378,
                    "duration": 0.09009863333335488
                },
                {
                    "name": "A#2",
                    "midi": 46,
                    "time": 432.378599333324,
                    "velocity": 0.33070866141732286,
                    "duration": 0.09009863333335488
                },
                {
                    "name": "F3",
                    "midi": 53,
                    "time": 432.378599333324,
                    "velocity": 0.3779527559055118,
                    "duration": 0.09009863333335488
                },
                {
                    "name": "A#2",
                    "midi": 46,
                    "time": 432.4734399999907,
                    "velocity": 0.49606299212598426,
                    "duration": 0.28452199999992445
                },
                {
                    "name": "A#3",
                    "midi": 58,
                    "time": 432.4734399999907,
                    "velocity": 0.49606299212598426,
                    "duration": 0.09484066666664148
                },
                {
                    "name": "F2",
                    "midi": 41,
                    "time": 432.4734399999907,
                    "velocity": 0.49606299212598426,
                    "duration": 0.28452199999992445
                },
                {
                    "name": "F3",
                    "midi": 53,
                    "time": 432.56828066665736,
                    "velocity": 0.4566929133858268,
                    "duration": 0.09484066666664148
                },
                {
                    "name": "F3",
                    "midi": 53,
                    "time": 432.663121333324,
                    "velocity": 0.4566929133858268,
                    "duration": 0.04742033333332074
                },
                {
                    "name": "D#3",
                    "midi": 51,
                    "time": 432.75796199999064,
                    "velocity": 0.4881889763779528,
                    "duration": 0.09484066666664148
                },
                {
                    "name": "A#2",
                    "midi": 46,
                    "time": 432.75796199999064,
                    "velocity": 0.4881889763779528,
                    "duration": 0.28452199999992445
                },
                {
                    "name": "F3",
                    "midi": 53,
                    "time": 432.8528026666573,
                    "velocity": 0.4566929133858268,
                    "duration": 0.09484066666664148
                },
                {
                    "name": "F3",
                    "midi": 53,
                    "time": 432.9476433333239,
                    "velocity": 0.4566929133858268,
                    "duration": 0.04742033333332074
                },
                {
                    "name": "D3",
                    "midi": 50,
                    "time": 433.04248399999057,
                    "velocity": 0.47244094488188976,
                    "duration": 0.09484066666664148
                },
                {
                    "name": "A#2",
                    "midi": 46,
                    "time": 433.04248399999057,
                    "velocity": 0.47244094488188976,
                    "duration": 0.28452199999992445
                },
                {
                    "name": "F3",
                    "midi": 53,
                    "time": 433.1373246666572,
                    "velocity": 0.4566929133858268,
                    "duration": 0.09484066666664148
                },
                {
                    "name": "F3",
                    "midi": 53,
                    "time": 433.23216533332385,
                    "velocity": 0.4566929133858268,
                    "duration": 0.04742033333332074
                },
                {
                    "name": "D#3",
                    "midi": 51,
                    "time": 433.3270059999905,
                    "velocity": 0.48031496062992124,
                    "duration": 0.09484066666664148
                },
                {
                    "name": "A#2",
                    "midi": 46,
                    "time": 433.3270059999905,
                    "velocity": 0.48031496062992124,
                    "duration": 0.28452199999992445
                },
                {
                    "name": "F3",
                    "midi": 53,
                    "time": 433.42184666665713,
                    "velocity": 0.4566929133858268,
                    "duration": 0.09484066666664148
                },
                {
                    "name": "F3",
                    "midi": 53,
                    "time": 433.5166873333238,
                    "velocity": 0.4566929133858268,
                    "duration": 0.04742033333332074
                },
                {
                    "name": "E3",
                    "midi": 52,
                    "time": 433.6115279999904,
                    "velocity": 0.47244094488188976,
                    "duration": 0.09484066666664148
                },
                {
                    "name": "A#2",
                    "midi": 46,
                    "time": 433.6115279999904,
                    "velocity": 0.47244094488188976,
                    "duration": 0.8535659999997733
                },
                {
                    "name": "F3",
                    "midi": 53,
                    "time": 433.70636866665706,
                    "velocity": 0.4566929133858268,
                    "duration": 0.09484066666664148
                },
                {
                    "name": "F3",
                    "midi": 53,
                    "time": 433.8012093333237,
                    "velocity": 0.4566929133858268,
                    "duration": 0.04742033333332074
                },
                {
                    "name": "F3",
                    "midi": 53,
                    "time": 433.89604999999034,
                    "velocity": 0.47244094488188976,
                    "duration": 0.09484066666664148
                },
                {
                    "name": "F3",
                    "midi": 53,
                    "time": 433.990890666657,
                    "velocity": 0.4566929133858268,
                    "duration": 0.09484066666664148
                },
                {
                    "name": "F3",
                    "midi": 53,
                    "time": 434.0857313333236,
                    "velocity": 0.4566929133858268,
                    "duration": 0.04742033333332074
                },
                {
                    "name": "F3",
                    "midi": 53,
                    "time": 434.18057199999026,
                    "velocity": 0.4881889763779528,
                    "duration": 0.09484066666664148
                },
                {
                    "name": "F3",
                    "midi": 53,
                    "time": 434.2754126666569,
                    "velocity": 0.4566929133858268,
                    "duration": 0.09484066666664148
                },
                {
                    "name": "F3",
                    "midi": 53,
                    "time": 434.37025333332355,
                    "velocity": 0.4566929133858268,
                    "duration": 0.09484066666664148
                },
                {
                    "name": "D#3",
                    "midi": 51,
                    "time": 434.4650939999902,
                    "velocity": 0.48031496062992124,
                    "duration": 0.09484066666664148
                },
                {
                    "name": "A#2",
                    "midi": 46,
                    "time": 434.4650939999902,
                    "velocity": 0.48031496062992124,
                    "duration": 0.28452199999992445
                },
                {
                    "name": "F3",
                    "midi": 53,
                    "time": 434.55993466665683,
                    "velocity": 0.41732283464566927,
                    "duration": 0.09484066666664148
                },
                {
                    "name": "D3",
                    "midi": 50,
                    "time": 434.65477533332347,
                    "velocity": 0.41732283464566927,
                    "duration": 0.09484066666664148
                },
                {
                    "name": "D#3",
                    "midi": 51,
                    "time": 434.7496159999901,
                    "velocity": 0.47244094488188976,
                    "duration": 0.09484066666664148
                },
                {
                    "name": "F2",
                    "midi": 41,
                    "time": 434.7496159999901,
                    "velocity": 0.47244094488188976,
                    "duration": 0.28452200000003813
                },
                {
                    "name": "F3",
                    "midi": 53,
                    "time": 434.84445666665675,
                    "velocity": 0.4330708661417323,
                    "duration": 0.09009863333335488
                },
                {
                    "name": "F3",
                    "midi": 53,
                    "time": 434.93929733332345,
                    "velocity": 0.4330708661417323,
                    "duration": 0.09009863333335488
                },
                {
                    "name": "D#3",
                    "midi": 51,
                    "time": 435.03413799999015,
                    "velocity": 0.47244094488188976,
                    "duration": 0.09484066666664148
                },
                {
                    "name": "F2",
                    "midi": 41,
                    "time": 435.03413799999015,
                    "velocity": 0.47244094488188976,
                    "duration": 0.28452200000003813
                },
                {
                    "name": "F3",
                    "midi": 53,
                    "time": 435.1289786666568,
                    "velocity": 0.4409448818897638,
                    "duration": 0.09009863333335488
                },
                {
                    "name": "F3",
                    "midi": 53,
                    "time": 435.2238193333235,
                    "velocity": 0.4409448818897638,
                    "duration": 0.09009863333335488
                },
                {
                    "name": "D#3",
                    "midi": 51,
                    "time": 435.3186599999902,
                    "velocity": 0.4881889763779528,
                    "duration": 0.09484066666664148
                },
                {
                    "name": "F2",
                    "midi": 41,
                    "time": 435.3186599999902,
                    "velocity": 0.4881889763779528,
                    "duration": 0.28452200000003813
                },
                {
                    "name": "F3",
                    "midi": 53,
                    "time": 435.41350066665683,
                    "velocity": 0.4566929133858268,
                    "duration": 0.09009863333335488
                },
                {
                    "name": "F3",
                    "midi": 53,
                    "time": 435.50834133332353,
                    "velocity": 0.4566929133858268,
                    "duration": 0.09009863333335488
                },
                {
                    "name": "D3",
                    "midi": 50,
                    "time": 435.6031819999902,
                    "velocity": 0.4881889763779528,
                    "duration": 0.09484066666664148
                },
                {
                    "name": "F2",
                    "midi": 41,
                    "time": 435.6031819999902,
                    "velocity": 0.4881889763779528,
                    "duration": 0.28452199999992445
                },
                {
                    "name": "F3",
                    "midi": 53,
                    "time": 435.69802266665687,
                    "velocity": 0.4645669291338583,
                    "duration": 0.09484066666664148
                },
                {
                    "name": "C3",
                    "midi": 48,
                    "time": 435.7928633333235,
                    "velocity": 0.4645669291338583,
                    "duration": 0.09484066666664148
                },
                {
                    "name": "D3",
                    "midi": 50,
                    "time": 435.88770399999015,
                    "velocity": 0.4881889763779528,
                    "duration": 0.09484066666664148
                },
                {
                    "name": "A#2",
                    "midi": 46,
                    "time": 435.88770399999015,
                    "velocity": 0.4881889763779528,
                    "duration": 0.8535660000001144
                },
                {
                    "name": "F3",
                    "midi": 53,
                    "time": 435.9825446666568,
                    "velocity": 0.4409448818897638,
                    "duration": 0.09009863333335488
                },
                {
                    "name": "F3",
                    "midi": 53,
                    "time": 436.0773853333235,
                    "velocity": 0.4409448818897638,
                    "duration": 0.09009863333335488
                },
                {
                    "name": "D#3",
                    "midi": 51,
                    "time": 436.1722259999902,
                    "velocity": 0.47244094488188976,
                    "duration": 0.09484066666664148
                },
                {
                    "name": "G3",
                    "midi": 55,
                    "time": 436.26706666665683,
                    "velocity": 0.4409448818897638,
                    "duration": 0.09009863333335488
                },
                {
                    "name": "G3",
                    "midi": 55,
                    "time": 436.36190733332353,
                    "velocity": 0.4409448818897638,
                    "duration": 0.09009863333335488
                },
                {
                    "name": "D3",
                    "midi": 50,
                    "time": 436.4567479999902,
                    "velocity": 0.47244094488188976,
                    "duration": 0.09484066666664148
                },
                {
                    "name": "F3",
                    "midi": 53,
                    "time": 436.55158866665687,
                    "velocity": 0.4409448818897638,
                    "duration": 0.09009863333335488
                },
                {
                    "name": "F3",
                    "midi": 53,
                    "time": 436.64642933332357,
                    "velocity": 0.44881889763779526,
                    "duration": 0.09009863333335488
                },
                {
                    "name": "D3",
                    "midi": 50,
                    "time": 436.74126999999027,
                    "velocity": 0.4645669291338583,
                    "duration": 0.09484066666664148
                },
                {
                    "name": "G#2",
                    "midi": 44,
                    "time": 436.74126999999027,
                    "velocity": 0.4645669291338583,
                    "duration": 0.28452200000003813
                },
                {
                    "name": "F3",
                    "midi": 53,
                    "time": 436.8361106666569,
                    "velocity": 0.4251968503937008,
                    "duration": 0.09009863333335488
                },
                {
                    "name": "F3",
                    "midi": 53,
                    "time": 436.9309513333236,
                    "velocity": 0.4251968503937008,
                    "duration": 0.09009863333335488
                },
                {
                    "name": "F3",
                    "midi": 53,
                    "time": 437.0257919999903,
                    "velocity": 0.4645669291338583,
                    "duration": 0.09484066666664148
                },
                {
                    "name": "G2",
                    "midi": 43,
                    "time": 437.0257919999903,
                    "velocity": 0.4645669291338583,
                    "duration": 0.8535660000001144
                },
                {
                    "name": "G3",
                    "midi": 55,
                    "time": 437.12063266665695,
                    "velocity": 0.41732283464566927,
                    "duration": 0.09009863333335488
                },
                {
                    "name": "G3",
                    "midi": 55,
                    "time": 437.21547333332364,
                    "velocity": 0.41732283464566927,
                    "duration": 0.09009863333335488
                },
                {
                    "name": "F3",
                    "midi": 53,
                    "time": 437.31031399999034,
                    "velocity": 0.4409448818897638,
                    "duration": 0.09484066666664148
                },
                {
                    "name": "G3",
                    "midi": 55,
                    "time": 437.405154666657,
                    "velocity": 0.41732283464566927,
                    "duration": 0.09009863333335488
                },
                {
                    "name": "G3",
                    "midi": 55,
                    "time": 437.4999953333237,
                    "velocity": 0.41732283464566927,
                    "duration": 0.09009863333335488
                },
                {
                    "name": "F3",
                    "midi": 53,
                    "time": 437.5948359999904,
                    "velocity": 0.44881889763779526,
                    "duration": 0.09484066666664148
                },
                {
                    "name": "G3",
                    "midi": 55,
                    "time": 437.689676666657,
                    "velocity": 0.4015748031496063,
                    "duration": 0.09009863333335488
                },
                {
                    "name": "G3",
                    "midi": 55,
                    "time": 437.7845173333237,
                    "velocity": 0.4015748031496063,
                    "duration": 0.09009863333335488
                },
                {
                    "name": "D#3",
                    "midi": 51,
                    "time": 437.8793579999904,
                    "velocity": 0.4409448818897638,
                    "duration": 0.09484066666664148
                },
                {
                    "name": "G2",
                    "midi": 43,
                    "time": 437.8793579999904,
                    "velocity": 0.4409448818897638,
                    "duration": 0.28452199999992445
                },
                {
                    "name": "G3",
                    "midi": 55,
                    "time": 437.97419866665706,
                    "velocity": 0.4015748031496063,
                    "duration": 0.09484066666664148
                },
                {
                    "name": "D3",
                    "midi": 50,
                    "time": 438.0690393333237,
                    "velocity": 0.4015748031496063,
                    "duration": 0.09484066666664148
                },
                {
                    "name": "C3",
                    "midi": 48,
                    "time": 438.16387999999034,
                    "velocity": 0.4251968503937008,
                    "duration": 0.09484066666664148
                },
                {
                    "name": "G2",
                    "midi": 43,
                    "time": 438.16387999999034,
                    "velocity": 0.4251968503937008,
                    "duration": 0.28452200000003813
                },
                {
                    "name": "G3",
                    "midi": 55,
                    "time": 438.258720666657,
                    "velocity": 0.3937007874015748,
                    "duration": 0.09009863333335488
                },
                {
                    "name": "G3",
                    "midi": 55,
                    "time": 438.3535613333237,
                    "velocity": 0.3937007874015748,
                    "duration": 0.09009863333335488
                },
                {
                    "name": "F3",
                    "midi": 53,
                    "time": 438.4484019999904,
                    "velocity": 0.4251968503937008,
                    "duration": 0.09484066666664148
                },
                {
                    "name": "G2",
                    "midi": 43,
                    "time": 438.4484019999904,
                    "velocity": 0.4251968503937008,
                    "duration": 0.28452200000003813
                },
                {
                    "name": "G3",
                    "midi": 55,
                    "time": 438.543242666657,
                    "velocity": 0.3937007874015748,
                    "duration": 0.09009863333335488
                },
                {
                    "name": "G3",
                    "midi": 55,
                    "time": 438.6380833333237,
                    "velocity": 0.3937007874015748,
                    "duration": 0.09009863333335488
                },
                {
                    "name": "D#3",
                    "midi": 51,
                    "time": 438.7329239999904,
                    "velocity": 0.4330708661417323,
                    "duration": 0.09484066666664148
                },
                {
                    "name": "G2",
                    "midi": 43,
                    "time": 438.7329239999904,
                    "velocity": 0.4330708661417323,
                    "duration": 0.28452200000003813
                },
                {
                    "name": "G3",
                    "midi": 55,
                    "time": 438.82776466665706,
                    "velocity": 0.3937007874015748,
                    "duration": 0.09009863333335488
                },
                {
                    "name": "G3",
                    "midi": 55,
                    "time": 438.92260533332376,
                    "velocity": 0.3937007874015748,
                    "duration": 0.09009863333335488
                },
                {
                    "name": "D#3",
                    "midi": 51,
                    "time": 439.01744599999046,
                    "velocity": 0.44881889763779526,
                    "duration": 0.09484066666664148
                },
                {
                    "name": "F#2",
                    "midi": 42,
                    "time": 439.01744599999046,
                    "velocity": 0.44881889763779526,
                    "duration": 0.28452200000003813
                },
                {
                    "name": "F#3",
                    "midi": 54,
                    "time": 439.1122866666571,
                    "velocity": 0.4094488188976378,
                    "duration": 0.09009863333335488
                },
                {
                    "name": "F#3",
                    "midi": 54,
                    "time": 439.2071273333238,
                    "velocity": 0.4094488188976378,
                    "duration": 0.09009863333335488
                },
                {
                    "name": "D#3",
                    "midi": 51,
                    "time": 439.3019679999905,
                    "velocity": 0.4566929133858268,
                    "duration": 0.09484066666664148
                },
                {
                    "name": "F2",
                    "midi": 41,
                    "time": 439.3019679999905,
                    "velocity": 0.4566929133858268,
                    "duration": 0.8535660000001144
                },
                {
                    "name": "F3",
                    "midi": 53,
                    "time": 439.39680866665714,
                    "velocity": 0.4094488188976378,
                    "duration": 0.09009863333335488
                },
                {
                    "name": "F3",
                    "midi": 53,
                    "time": 439.49164933332383,
                    "velocity": 0.4094488188976378,
                    "duration": 0.09009863333335488
                },
                {
                    "name": "D#3",
                    "midi": 51,
                    "time": 439.58648999999053,
                    "velocity": 0.4409448818897638,
                    "duration": 0.09484066666664148
                },
                {
                    "name": "F3",
                    "midi": 53,
                    "time": 439.6813306666572,
                    "velocity": 0.4094488188976378,
                    "duration": 0.09009863333335488
                },
                {
                    "name": "F3",
                    "midi": 53,
                    "time": 439.7761713333239,
                    "velocity": 0.41732283464566927,
                    "duration": 0.09009863333335488
                },
                {
                    "name": "D#3",
                    "midi": 51,
                    "time": 439.87101199999057,
                    "velocity": 0.44881889763779526,
                    "duration": 0.09484066666664148
                },
                {
                    "name": "F3",
                    "midi": 53,
                    "time": 439.9658526666572,
                    "velocity": 0.4094488188976378,
                    "duration": 0.09009863333335488
                },
                {
                    "name": "F3",
                    "midi": 53,
                    "time": 440.0606933333239,
                    "velocity": 0.4094488188976378,
                    "duration": 0.09009863333335488
                },
                {
                    "name": "D3",
                    "midi": 50,
                    "time": 440.1555339999906,
                    "velocity": 0.44881889763779526,
                    "duration": 0.09484066666664148
                },
                {
                    "name": "F2",
                    "midi": 41,
                    "time": 440.1555339999906,
                    "velocity": 0.44881889763779526,
                    "duration": 0.28452199999992445
                },
                {
                    "name": "F3",
                    "midi": 53,
                    "time": 440.25037466665725,
                    "velocity": 0.4251968503937008,
                    "duration": 0.09484066666664148
                },
                {
                    "name": "C3",
                    "midi": 48,
                    "time": 440.3452153333239,
                    "velocity": 0.4015748031496063,
                    "duration": 0.09484066666664148
                },
                {
                    "name": "A#2",
                    "midi": 46,
                    "time": 440.44005599999053,
                    "velocity": 0.4566929133858268,
                    "duration": 0.09484066666664148
                },
                {
                    "name": "F2",
                    "midi": 41,
                    "time": 440.44005599999053,
                    "velocity": 0.4566929133858268,
                    "duration": 0.28452200000003813
                },
                {
                    "name": "F3",
                    "midi": 53,
                    "time": 440.5348966666572,
                    "velocity": 0.41732283464566927,
                    "duration": 0.09009863333335488
                },
                {
                    "name": "F3",
                    "midi": 53,
                    "time": 440.6297373333239,
                    "velocity": 0.41732283464566927,
                    "duration": 0.09009863333335488
                },
                {
                    "name": "C3",
                    "midi": 48,
                    "time": 440.7245779999906,
                    "velocity": 0.4566929133858268,
                    "duration": 0.09484066666664148
                },
                {
                    "name": "F2",
                    "midi": 41,
                    "time": 440.7245779999906,
                    "velocity": 0.4566929133858268,
                    "duration": 0.28452200000003813
                },
                {
                    "name": "F3",
                    "midi": 53,
                    "time": 440.8194186666572,
                    "velocity": 0.4094488188976378,
                    "duration": 0.09009863333335488
                },
                {
                    "name": "F3",
                    "midi": 53,
                    "time": 440.9142593333239,
                    "velocity": 0.4094488188976378,
                    "duration": 0.09009863333335488
                },
                {
                    "name": "D3",
                    "midi": 50,
                    "time": 441.0090999999906,
                    "velocity": 0.4409448818897638,
                    "duration": 0.09484066666664148
                },
                {
                    "name": "F2",
                    "midi": 41,
                    "time": 441.0090999999906,
                    "velocity": 0.4409448818897638,
                    "duration": 0.28452200000003813
                },
                {
                    "name": "F3",
                    "midi": 53,
                    "time": 441.10394066665725,
                    "velocity": 0.4094488188976378,
                    "duration": 0.09009863333335488
                },
                {
                    "name": "F3",
                    "midi": 53,
                    "time": 441.19878133332395,
                    "velocity": 0.4094488188976378,
                    "duration": 0.09009863333335488
                },
                {
                    "name": "D#3",
                    "midi": 51,
                    "time": 441.29362199999065,
                    "velocity": 0.4409448818897638,
                    "duration": 0.09484066666664148
                },
                {
                    "name": "F2",
                    "midi": 41,
                    "time": 441.29362199999065,
                    "velocity": 0.4409448818897638,
                    "duration": 0.28452200000003813
                },
                {
                    "name": "F3",
                    "midi": 53,
                    "time": 441.3884626666573,
                    "velocity": 0.4094488188976378,
                    "duration": 0.09009863333335488
                },
                {
                    "name": "F3",
                    "midi": 53,
                    "time": 441.483303333324,
                    "velocity": 0.4094488188976378,
                    "duration": 0.09009863333335488
                },
                {
                    "name": "F2",
                    "midi": 41,
                    "time": 441.5781439999907,
                    "velocity": 0.4015748031496063,
                    "duration": 0.5690440000001331
                },
                {
                    "name": "D#3",
                    "midi": 51,
                    "time": 441.5781439999907,
                    "velocity": 0.4015748031496063,
                    "duration": 0.5690440000001331
                },
                {
                    "name": "F3",
                    "midi": 53,
                    "time": 441.6729846666573,
                    "velocity": 0.3937007874015748,
                    "duration": 0.09009863333335488
                },
                {
                    "name": "F3",
                    "midi": 53,
                    "time": 441.767825333324,
                    "velocity": 0.3937007874015748,
                    "duration": 0.09009863333335488
                },
                {
                    "name": "F3",
                    "midi": 53,
                    "time": 441.8626659999907,
                    "velocity": 0.3937007874015748,
                    "duration": 0.09009863333335488
                },
                {
                    "name": "F3",
                    "midi": 53,
                    "time": 441.9575066666574,
                    "velocity": 0.3937007874015748,
                    "duration": 0.09009863333335488
                },
                {
                    "name": "F3",
                    "midi": 53,
                    "time": 442.0523473333241,
                    "velocity": 0.3858267716535433,
                    "duration": 0.09009863333335488
                },
                {
                    "name": "F3",
                    "midi": 53,
                    "time": 442.1471879999908,
                    "velocity": 0.3858267716535433,
                    "duration": 0.09009863333335488
                },
                {
                    "name": "F3",
                    "midi": 53,
                    "time": 442.2420286666575,
                    "velocity": 0.3858267716535433,
                    "duration": 0.09009863333335488
                },
                {
                    "name": "F3",
                    "midi": 53,
                    "time": 442.3368693333242,
                    "velocity": 0.3858267716535433,
                    "duration": 0.09009863333335488
                },
                {
                    "name": "F3",
                    "midi": 53,
                    "time": 442.4317099999909,
                    "velocity": 0.3779527559055118,
                    "duration": 0.09009863333335488
                },
                {
                    "name": "F3",
                    "midi": 53,
                    "time": 442.5265506666576,
                    "velocity": 0.3779527559055118,
                    "duration": 0.09009863333335488
                },
                {
                    "name": "F3",
                    "midi": 53,
                    "time": 442.6213913333243,
                    "velocity": 0.3779527559055118,
                    "duration": 0.09009863333335488
                },
                {
                    "name": "F2",
                    "midi": 41,
                    "time": 442.716231999991,
                    "velocity": 0.3543307086614173,
                    "duration": 1.138088000000323
                },
                {
                    "name": "D3",
                    "midi": 50,
                    "time": 442.716231999991,
                    "velocity": 0.3779527559055118,
                    "duration": 1.138088000000323
                },
                {
                    "name": "F3",
                    "midi": 53,
                    "time": 442.81107266665765,
                    "velocity": 0.33070866141732286,
                    "duration": 0.09009863333335488
                },
                {
                    "name": "F3",
                    "midi": 53,
                    "time": 442.90591333332435,
                    "velocity": 0.30708661417322836,
                    "duration": 0.09009863333335488
                },
                {
                    "name": "F3",
                    "midi": 53,
                    "time": 443.00075399999105,
                    "velocity": 0.2992125984251969,
                    "duration": 0.09009863333335488
                },
                {
                    "name": "F3",
                    "midi": 53,
                    "time": 443.09559466665775,
                    "velocity": 0.2992125984251969,
                    "duration": 0.09009863333335488
                },
                {
                    "name": "F3",
                    "midi": 53,
                    "time": 443.19043533332444,
                    "velocity": 0.29133858267716534,
                    "duration": 0.09009863333335488
                },
                {
                    "name": "F3",
                    "midi": 53,
                    "time": 443.28527599999114,
                    "velocity": 0.29133858267716534,
                    "duration": 0.09009863333335488
                },
                {
                    "name": "F3",
                    "midi": 53,
                    "time": 443.38011666665784,
                    "velocity": 0.28346456692913385,
                    "duration": 0.09009863333335488
                },
                {
                    "name": "F3",
                    "midi": 53,
                    "time": 443.47495733332454,
                    "velocity": 0.2755905511811024,
                    "duration": 0.09009863333335488
                },
                {
                    "name": "F3",
                    "midi": 53,
                    "time": 443.56979799999124,
                    "velocity": 0.28346456692913385,
                    "duration": 0.09009863333335488
                },
                {
                    "name": "F3",
                    "midi": 53,
                    "time": 443.66463866665794,
                    "velocity": 0.31496062992125984,
                    "duration": 0.09009863333335488
                },
                {
                    "name": "F3",
                    "midi": 53,
                    "time": 443.75947933332463,
                    "velocity": 0.3464566929133858,
                    "duration": 0.09009863333335488
                },
                {
                    "name": "F3",
                    "midi": 53,
                    "time": 443.85431999999133,
                    "velocity": 0.3937007874015748,
                    "duration": 0.09484066666664148
                },
                {
                    "name": "G#2",
                    "midi": 44,
                    "time": 443.949160666658,
                    "velocity": 0.33070866141732286,
                    "duration": 0.09009863333335488
                },
                {
                    "name": "G#2",
                    "midi": 44,
                    "time": 444.0440013333247,
                    "velocity": 0.33070866141732286,
                    "duration": 0.09009863333335488
                },
                {
                    "name": "G#2",
                    "midi": 44,
                    "time": 444.13884199999137,
                    "velocity": 0.33070866141732286,
                    "duration": 0.09009863333335488
                },
                {
                    "name": "G#2",
                    "midi": 44,
                    "time": 444.23368266665807,
                    "velocity": 0.33070866141732286,
                    "duration": 0.09009863333335488
                },
                {
                    "name": "G#2",
                    "midi": 44,
                    "time": 444.32852333332477,
                    "velocity": 0.33070866141732286,
                    "duration": 0.09009863333335488
                },
                {
                    "name": "G#2",
                    "midi": 44,
                    "time": 444.42336399999147,
                    "velocity": 0.33070866141732286,
                    "duration": 0.09009863333335488
                },
                {
                    "name": "G#2",
                    "midi": 44,
                    "time": 444.51820466665816,
                    "velocity": 0.33070866141732286,
                    "duration": 0.09009863333335488
                },
                {
                    "name": "G#2",
                    "midi": 44,
                    "time": 444.61304533332486,
                    "velocity": 0.33070866141732286,
                    "duration": 0.09009863333335488
                },
                {
                    "name": "G#2",
                    "midi": 44,
                    "time": 444.70788599999156,
                    "velocity": 0.3464566929133858,
                    "duration": 0.09009863333335488
                },
                {
                    "name": "G#2",
                    "midi": 44,
                    "time": 444.80272666665826,
                    "velocity": 0.3464566929133858,
                    "duration": 0.09009863333335488
                },
                {
                    "name": "G#2",
                    "midi": 44,
                    "time": 444.89756733332496,
                    "velocity": 0.3464566929133858,
                    "duration": 0.09009863333335488
                },
                {
                    "name": "G#2",
                    "midi": 44,
                    "time": 444.99240799999166,
                    "velocity": 0.3858267716535433,
                    "duration": 0.09484066666664148
                },
                {
                    "name": "F#2",
                    "midi": 42,
                    "time": 445.0872486666583,
                    "velocity": 0.3858267716535433,
                    "duration": 0.09009863333335488
                },
                {
                    "name": "F#2",
                    "midi": 42,
                    "time": 445.182089333325,
                    "velocity": 0.3858267716535433,
                    "duration": 0.09009863333335488
                },
                {
                    "name": "F#2",
                    "midi": 42,
                    "time": 445.2769299999917,
                    "velocity": 0.4330708661417323,
                    "duration": 0.09009863333335488
                },
                {
                    "name": "F#2",
                    "midi": 42,
                    "time": 445.3717706666584,
                    "velocity": 0.4330708661417323,
                    "duration": 0.09009863333335488
                },
                {
                    "name": "F#2",
                    "midi": 42,
                    "time": 445.4666113333251,
                    "velocity": 0.4409448818897638,
                    "duration": 0.09009863333335488
                },
                {
                    "name": "F#2",
                    "midi": 42,
                    "time": 445.5614519999918,
                    "velocity": 0.49606299212598426,
                    "duration": 0.14226100000001907
                },
                {
                    "name": "F#2",
                    "midi": 42,
                    "time": 445.8459739999918,
                    "velocity": 0.5118110236220472,
                    "duration": 0.21339150000000018
                },
                {
                    "name": "D#2",
                    "midi": 39,
                    "time": 446.0593654999918,
                    "velocity": 0.4645669291338583,
                    "duration": 0.02371016666666037
                },
                {
                    "name": "D2",
                    "midi": 38,
                    "time": 446.0830756666585,
                    "velocity": 0.48031496062992124,
                    "duration": 0.02371016666666037
                },
                {
                    "name": "C#2",
                    "midi": 37,
                    "time": 446.10678583332515,
                    "velocity": 0.4645669291338583,
                    "duration": 0.02371016666666037
                },
                {
                    "name": "B1",
                    "midi": 35,
                    "time": 446.1304959999918,
                    "velocity": 0.5118110236220472,
                    "duration": 0.07113049999998111
                },
                {
                    "name": "B3",
                    "midi": 59,
                    "time": 446.9840619999918,
                    "velocity": 0.33070866141732286,
                    "duration": 0.2845219999999813
                },
                {
                    "name": "F#4",
                    "midi": 66,
                    "time": 446.9840619999918,
                    "velocity": 0.33070866141732286,
                    "duration": 0.2845219999999813
                },
                {
                    "name": "B3",
                    "midi": 59,
                    "time": 447.2685839999918,
                    "velocity": 0.33070866141732286,
                    "duration": 0.7113050000000385
                },
                {
                    "name": "F#4",
                    "midi": 66,
                    "time": 447.2685839999918,
                    "velocity": 0.33070866141732286,
                    "duration": 0.42678300000000036
                },
                {
                    "name": "E4",
                    "midi": 64,
                    "time": 447.6953669999918,
                    "velocity": 0.2992125984251969,
                    "duration": 0.14226100000001907
                },
                {
                    "name": "D4",
                    "midi": 62,
                    "time": 447.8376279999918,
                    "velocity": 0.3228346456692913,
                    "duration": 0.14226100000001907
                },
                {
                    "name": "B3",
                    "midi": 59,
                    "time": 448.12214999999185,
                    "velocity": 0.2992125984251969,
                    "duration": 0.2845219999999813
                },
                {
                    "name": "D4",
                    "midi": 62,
                    "time": 448.12214999999185,
                    "velocity": 0.2992125984251969,
                    "duration": 0.2845219999999813
                },
                {
                    "name": "B3",
                    "midi": 59,
                    "time": 448.40667199999183,
                    "velocity": 0.3228346456692913,
                    "duration": 0.5690440000000194
                },
                {
                    "name": "D4",
                    "midi": 62,
                    "time": 448.40667199999183,
                    "velocity": 0.3228346456692913,
                    "duration": 0.42678300000000036
                },
                {
                    "name": "C#4",
                    "midi": 61,
                    "time": 448.83345499999183,
                    "velocity": 0.3228346456692913,
                    "duration": 0.14226100000001907
                },
                {
                    "name": "B3",
                    "midi": 59,
                    "time": 448.97571599999185,
                    "velocity": 0.3464566929133858,
                    "duration": 0.14226100000001907
                },
                {
                    "name": "B3",
                    "midi": 59,
                    "time": 449.2602379999919,
                    "velocity": 0.2677165354330709,
                    "duration": 0.2845219999999813
                },
                {
                    "name": "B3",
                    "midi": 59,
                    "time": 449.54475999999187,
                    "velocity": 0.3228346456692913,
                    "duration": 0.2845219999999813
                },
                {
                    "name": "C#4",
                    "midi": 61,
                    "time": 449.82928199999185,
                    "velocity": 0.33070866141732286,
                    "duration": 0.2845219999999813
                },
                {
                    "name": "D4",
                    "midi": 62,
                    "time": 450.11380399999183,
                    "velocity": 0.3700787401574803,
                    "duration": 0.2845219999999813
                },
                {
                    "name": "A3",
                    "midi": 57,
                    "time": 450.3983259999918,
                    "velocity": 0.2440944881889764,
                    "duration": 0.2845219999999813
                },
                {
                    "name": "E4",
                    "midi": 64,
                    "time": 450.3983259999918,
                    "velocity": 0.29133858267716534,
                    "duration": 0.2845219999999813
                },
                {
                    "name": "D4",
                    "midi": 62,
                    "time": 450.6828479999918,
                    "velocity": 0.30708661417322836,
                    "duration": 0.2845219999999813
                },
                {
                    "name": "F#4",
                    "midi": 66,
                    "time": 450.6828479999918,
                    "velocity": 0.3700787401574803,
                    "duration": 0.2845219999999813
                },
                {
                    "name": "C#4",
                    "midi": 61,
                    "time": 450.9673699999918,
                    "velocity": 0.2992125984251969,
                    "duration": 0.2845219999999813
                },
                {
                    "name": "F#4",
                    "midi": 66,
                    "time": 450.9673699999918,
                    "velocity": 0.3543307086614173,
                    "duration": 0.2845219999999813
                },
                {
                    "name": "B3",
                    "midi": 59,
                    "time": 451.25189199999176,
                    "velocity": 0.2992125984251969,
                    "duration": 0.2845219999999813
                },
                {
                    "name": "F#4",
                    "midi": 66,
                    "time": 451.25189199999176,
                    "velocity": 0.36220472440944884,
                    "duration": 0.2845219999999813
                },
                {
                    "name": "A3",
                    "midi": 57,
                    "time": 451.53641399999174,
                    "velocity": 0.25984251968503935,
                    "duration": 0.2845219999999813
                },
                {
                    "name": "G4",
                    "midi": 67,
                    "time": 451.53641399999174,
                    "velocity": 0.30708661417322836,
                    "duration": 0.2845219999999813
                },
                {
                    "name": "A3",
                    "midi": 57,
                    "time": 451.8209359999917,
                    "velocity": 0.25984251968503935,
                    "duration": 0.5690440000000194
                },
                {
                    "name": "G4",
                    "midi": 67,
                    "time": 451.8209359999917,
                    "velocity": 0.30708661417322836,
                    "duration": 0.5690440000000194
                },
                {
                    "name": "A#3",
                    "midi": 58,
                    "time": 452.38997999999174,
                    "velocity": 0.23622047244094488,
                    "duration": 0.2845219999999813
                },
                {
                    "name": "F#4",
                    "midi": 66,
                    "time": 452.38997999999174,
                    "velocity": 0.29133858267716534,
                    "duration": 0.2845219999999813
                },
                {
                    "name": "B3",
                    "midi": 59,
                    "time": 452.6745019999917,
                    "velocity": 0.23622047244094488,
                    "duration": 0.2845219999999813
                },
                {
                    "name": "F#4",
                    "midi": 66,
                    "time": 452.6745019999917,
                    "velocity": 0.28346456692913385,
                    "duration": 0.2845219999999813
                },
                {
                    "name": "B3",
                    "midi": 59,
                    "time": 452.9590239999917,
                    "velocity": 0.25196850393700787,
                    "duration": 0.7113050000000385
                },
                {
                    "name": "F#4",
                    "midi": 66,
                    "time": 452.9590239999917,
                    "velocity": 0.33070866141732286,
                    "duration": 0.42678300000000036
                },
                {
                    "name": "E4",
                    "midi": 64,
                    "time": 453.3858069999917,
                    "velocity": 0.2992125984251969,
                    "duration": 0.14226100000001907
                },
                {
                    "name": "D4",
                    "midi": 62,
                    "time": 453.5280679999917,
                    "velocity": 0.3228346456692913,
                    "duration": 0.14226100000001907
                },
                {
                    "name": "B3",
                    "midi": 59,
                    "time": 453.81258999999176,
                    "velocity": 0.25196850393700787,
                    "duration": 0.2845219999999813
                },
                {
                    "name": "D4",
                    "midi": 62,
                    "time": 453.81258999999176,
                    "velocity": 0.2992125984251969,
                    "duration": 0.2845219999999813
                },
                {
                    "name": "B3",
                    "midi": 59,
                    "time": 454.09711199999174,
                    "velocity": 0.2677165354330709,
                    "duration": 0.5690440000000194
                },
                {
                    "name": "D4",
                    "midi": 62,
                    "time": 454.09711199999174,
                    "velocity": 0.3228346456692913,
                    "duration": 0.42678300000000036
                },
                {
                    "name": "C#4",
                    "midi": 61,
                    "time": 454.52389499999174,
                    "velocity": 0.3228346456692913,
                    "duration": 0.14226100000001907
                },
                {
                    "name": "B3",
                    "midi": 59,
                    "time": 454.66615599999176,
                    "velocity": 0.3464566929133858,
                    "duration": 0.14226100000001907
                },
                {
                    "name": "B3",
                    "midi": 59,
                    "time": 454.9506779999918,
                    "velocity": 0.2677165354330709,
                    "duration": 0.2845219999999813
                },
                {
                    "name": "B3",
                    "midi": 59,
                    "time": 455.2351999999918,
                    "velocity": 0.3228346456692913,
                    "duration": 0.2845219999999813
                },
                {
                    "name": "C#4",
                    "midi": 61,
                    "time": 455.51972199999176,
                    "velocity": 0.33070866141732286,
                    "duration": 0.2845219999999813
                },
                {
                    "name": "D4",
                    "midi": 62,
                    "time": 455.80424399999174,
                    "velocity": 0.3700787401574803,
                    "duration": 0.2845219999999813
                },
                {
                    "name": "A3",
                    "midi": 57,
                    "time": 456.0887659999917,
                    "velocity": 0.2440944881889764,
                    "duration": 0.2845219999999813
                },
                {
                    "name": "E4",
                    "midi": 64,
                    "time": 456.0887659999917,
                    "velocity": 0.29133858267716534,
                    "duration": 0.2845219999999813
                },
                {
                    "name": "D4",
                    "midi": 62,
                    "time": 456.3732879999917,
                    "velocity": 0.30708661417322836,
                    "duration": 0.2845219999999813
                },
                {
                    "name": "F#4",
                    "midi": 66,
                    "time": 456.3732879999917,
                    "velocity": 0.3700787401574803,
                    "duration": 0.2845219999999813
                },
                {
                    "name": "C#4",
                    "midi": 61,
                    "time": 456.6578099999917,
                    "velocity": 0.2992125984251969,
                    "duration": 0.2845219999999813
                },
                {
                    "name": "F#4",
                    "midi": 66,
                    "time": 456.6578099999917,
                    "velocity": 0.3543307086614173,
                    "duration": 0.2845219999999813
                },
                {
                    "name": "B3",
                    "midi": 59,
                    "time": 456.94233199999167,
                    "velocity": 0.2992125984251969,
                    "duration": 0.2845219999999813
                },
                {
                    "name": "F#4",
                    "midi": 66,
                    "time": 456.94233199999167,
                    "velocity": 0.36220472440944884,
                    "duration": 0.2845219999999813
                },
                {
                    "name": "A3",
                    "midi": 57,
                    "time": 457.22685399999165,
                    "velocity": 0.25984251968503935,
                    "duration": 0.2845219999999813
                },
                {
                    "name": "G4",
                    "midi": 67,
                    "time": 457.22685399999165,
                    "velocity": 0.30708661417322836,
                    "duration": 0.2845219999999813
                },
                {
                    "name": "A3",
                    "midi": 57,
                    "time": 457.5113759999916,
                    "velocity": 0.25984251968503935,
                    "duration": 0.5690440000000194
                },
                {
                    "name": "G4",
                    "midi": 67,
                    "time": 457.5113759999916,
                    "velocity": 0.30708661417322836,
                    "duration": 0.5690440000000194
                },
                {
                    "name": "D4",
                    "midi": 62,
                    "time": 458.08041999999165,
                    "velocity": 0.29133858267716534,
                    "duration": 0.09484066666664148
                },
                {
                    "name": "F#4",
                    "midi": 66,
                    "time": 458.08041999999165,
                    "velocity": 0.29133858267716534,
                    "duration": 0.09484066666664148
                },
                {
                    "name": "A4",
                    "midi": 69,
                    "time": 458.1752606666583,
                    "velocity": 0.2283464566929134,
                    "duration": 0.09009863333335488
                },
                {
                    "name": "A4",
                    "midi": 69,
                    "time": 458.270101333325,
                    "velocity": 0.2283464566929134,
                    "duration": 0.09009863333335488
                },
                {
                    "name": "A4",
                    "midi": 69,
                    "time": 458.3649419999917,
                    "velocity": 0.25984251968503935,
                    "duration": 0.09009863333335488
                },
                {
                    "name": "A4",
                    "midi": 69,
                    "time": 458.4597826666584,
                    "velocity": 0.2283464566929134,
                    "duration": 0.09009863333335488
                },
                {
                    "name": "A4",
                    "midi": 69,
                    "time": 458.5546233333251,
                    "velocity": 0.2283464566929134,
                    "duration": 0.09009863333335488
                },
                {
                    "name": "D#4",
                    "midi": 63,
                    "time": 458.6494639999918,
                    "velocity": 0.25984251968503935,
                    "duration": 0.07113049999998111
                },
                {
                    "name": "A4",
                    "midi": 69,
                    "time": 458.72059449999176,
                    "velocity": 0.2125984251968504,
                    "duration": 0.07113049999998111
                },
                {
                    "name": "F#4",
                    "midi": 66,
                    "time": 458.79172499999174,
                    "velocity": 0.2125984251968504,
                    "duration": 0.07113049999998111
                },
                {
                    "name": "A4",
                    "midi": 69,
                    "time": 458.8628554999917,
                    "velocity": 0.2125984251968504,
                    "duration": 0.07113049999998111
                },
                {
                    "name": "D#4",
                    "midi": 63,
                    "time": 458.9339859999917,
                    "velocity": 0.25984251968503935,
                    "duration": 0.07113049999998111
                },
                {
                    "name": "A4",
                    "midi": 69,
                    "time": 459.0051164999917,
                    "velocity": 0.2204724409448819,
                    "duration": 0.07113049999998111
                },
                {
                    "name": "F#4",
                    "midi": 66,
                    "time": 459.07624699999167,
                    "velocity": 0.2204724409448819,
                    "duration": 0.07113049999998111
                },
                {
                    "name": "A4",
                    "midi": 69,
                    "time": 459.14737749999165,
                    "velocity": 0.2283464566929134,
                    "duration": 0.07113049999998111
                },
                {
                    "name": "D#4",
                    "midi": 63,
                    "time": 459.21850799999163,
                    "velocity": 0.25984251968503935,
                    "duration": 0.07113049999998111
                },
                {
                    "name": "A4",
                    "midi": 69,
                    "time": 459.2896384999916,
                    "velocity": 0.2283464566929134,
                    "duration": 0.07113049999998111
                },
                {
                    "name": "F#4",
                    "midi": 66,
                    "time": 459.3607689999916,
                    "velocity": 0.2283464566929134,
                    "duration": 0.07113049999998111
                },
                {
                    "name": "A4",
                    "midi": 69,
                    "time": 459.4318994999916,
                    "velocity": 0.2283464566929134,
                    "duration": 0.07113049999998111
                },
                {
                    "name": "D4",
                    "midi": 62,
                    "time": 459.50302999999155,
                    "velocity": 0.25984251968503935,
                    "duration": 0.07113049999998111
                },
                {
                    "name": "A4",
                    "midi": 69,
                    "time": 459.57416049999154,
                    "velocity": 0.2283464566929134,
                    "duration": 0.07113049999998111
                },
                {
                    "name": "F#4",
                    "midi": 66,
                    "time": 459.6452909999915,
                    "velocity": 0.2283464566929134,
                    "duration": 0.07113049999998111
                },
                {
                    "name": "A4",
                    "midi": 69,
                    "time": 459.7164214999915,
                    "velocity": 0.2283464566929134,
                    "duration": 0.07113049999998111
                },
                {
                    "name": "C4",
                    "midi": 60,
                    "time": 459.7875519999915,
                    "velocity": 0.25984251968503935,
                    "duration": 0.07113049999998111
                },
                {
                    "name": "A4",
                    "midi": 69,
                    "time": 459.85868249999146,
                    "velocity": 0.2125984251968504,
                    "duration": 0.07113049999998111
                },
                {
                    "name": "F#4",
                    "midi": 66,
                    "time": 459.92981299999144,
                    "velocity": 0.2125984251968504,
                    "duration": 0.07113049999998111
                },
                {
                    "name": "A4",
                    "midi": 69,
                    "time": 460.0009434999914,
                    "velocity": 0.2125984251968504,
                    "duration": 0.07113049999998111
                },
                {
                    "name": "C4",
                    "midi": 60,
                    "time": 460.0720739999914,
                    "velocity": 0.25984251968503935,
                    "duration": 0.07113049999998111
                },
                {
                    "name": "A4",
                    "midi": 69,
                    "time": 460.1432044999914,
                    "velocity": 0.2204724409448819,
                    "duration": 0.07113049999998111
                },
                {
                    "name": "F#4",
                    "midi": 66,
                    "time": 460.21433499999137,
                    "velocity": 0.2204724409448819,
                    "duration": 0.07113049999998111
                },
                {
                    "name": "A4",
                    "midi": 69,
                    "time": 460.28546549999135,
                    "velocity": 0.2283464566929134,
                    "duration": 0.07113049999998111
                },
                {
                    "name": "C4",
                    "midi": 60,
                    "time": 460.3565959999913,
                    "velocity": 0.25984251968503935,
                    "duration": 0.07113049999998111
                },
                {
                    "name": "A4",
                    "midi": 69,
                    "time": 460.4277264999913,
                    "velocity": 0.2283464566929134,
                    "duration": 0.07113049999998111
                },
                {
                    "name": "F#4",
                    "midi": 66,
                    "time": 460.4988569999913,
                    "velocity": 0.2283464566929134,
                    "duration": 0.07113049999998111
                },
                {
                    "name": "A4",
                    "midi": 69,
                    "time": 460.56998749999127,
                    "velocity": 0.2283464566929134,
                    "duration": 0.07113049999998111
                },
                {
                    "name": "B3",
                    "midi": 59,
                    "time": 460.64111799999125,
                    "velocity": 0.25984251968503935,
                    "duration": 0.07113049999998111
                },
                {
                    "name": "A4",
                    "midi": 69,
                    "time": 460.71224849999123,
                    "velocity": 0.2283464566929134,
                    "duration": 0.07113049999998111
                },
                {
                    "name": "F#4",
                    "midi": 66,
                    "time": 460.7833789999912,
                    "velocity": 0.2283464566929134,
                    "duration": 0.07113049999998111
                },
                {
                    "name": "A4",
                    "midi": 69,
                    "time": 460.8545094999912,
                    "velocity": 0.2283464566929134,
                    "duration": 0.07113049999998111
                },
                {
                    "name": "B3",
                    "midi": 59,
                    "time": 460.9256399999912,
                    "velocity": 0.25984251968503935,
                    "duration": 0.07113049999998111
                },
                {
                    "name": "A4",
                    "midi": 69,
                    "time": 460.99677049999116,
                    "velocity": 0.2204724409448819,
                    "duration": 0.07113049999998111
                },
                {
                    "name": "F#4",
                    "midi": 66,
                    "time": 461.06790099999114,
                    "velocity": 0.2204724409448819,
                    "duration": 0.07113049999998111
                },
                {
                    "name": "A4",
                    "midi": 69,
                    "time": 461.1390314999911,
                    "velocity": 0.2204724409448819,
                    "duration": 0.07113049999998111
                },
                {
                    "name": "B3",
                    "midi": 59,
                    "time": 461.2101619999911,
                    "velocity": 0.2677165354330709,
                    "duration": 0.07113049999998111
                },
                {
                    "name": "G4",
                    "midi": 67,
                    "time": 461.2812924999911,
                    "velocity": 0.2204724409448819,
                    "duration": 0.07113049999998111
                },
                {
                    "name": "E4",
                    "midi": 64,
                    "time": 461.35242299999106,
                    "velocity": 0.2204724409448819,
                    "duration": 0.07113049999998111
                },
                {
                    "name": "G4",
                    "midi": 67,
                    "time": 461.42355349999104,
                    "velocity": 0.2283464566929134,
                    "duration": 0.07113049999998111
                },
                {
                    "name": "B3",
                    "midi": 59,
                    "time": 461.494683999991,
                    "velocity": 0.2755905511811024,
                    "duration": 0.07113049999998111
                },
                {
                    "name": "F#4",
                    "midi": 66,
                    "time": 461.565814499991,
                    "velocity": 0.2283464566929134,
                    "duration": 0.07113049999998111
                },
                {
                    "name": "D#4",
                    "midi": 63,
                    "time": 461.636944999991,
                    "velocity": 0.2283464566929134,
                    "duration": 0.07113049999998111
                },
                {
                    "name": "F#4",
                    "midi": 66,
                    "time": 461.70807549999097,
                    "velocity": 0.2283464566929134,
                    "duration": 0.07113049999998111
                },
                {
                    "name": "B3",
                    "midi": 59,
                    "time": 461.77920599999095,
                    "velocity": 0.28346456692913385,
                    "duration": 0.07113049999998111
                },
                {
                    "name": "G4",
                    "midi": 67,
                    "time": 461.85033649999093,
                    "velocity": 0.2440944881889764,
                    "duration": 0.07113049999998111
                },
                {
                    "name": "E4",
                    "midi": 64,
                    "time": 461.9214669999909,
                    "velocity": 0.2440944881889764,
                    "duration": 0.07113049999998111
                },
                {
                    "name": "G4",
                    "midi": 67,
                    "time": 461.9925974999909,
                    "velocity": 0.2440944881889764,
                    "duration": 0.07113049999998111
                },
                {
                    "name": "B3",
                    "midi": 59,
                    "time": 462.0637279999909,
                    "velocity": 0.29133858267716534,
                    "duration": 0.07113049999998111
                },
                {
                    "name": "A4",
                    "midi": 69,
                    "time": 462.13485849999086,
                    "velocity": 0.2440944881889764,
                    "duration": 0.07113049999998111
                },
                {
                    "name": "F#4",
                    "midi": 66,
                    "time": 462.20598899999084,
                    "velocity": 0.25196850393700787,
                    "duration": 0.07113049999998111
                },
                {
                    "name": "A4",
                    "midi": 69,
                    "time": 462.2771194999908,
                    "velocity": 0.25196850393700787,
                    "duration": 0.07113049999998111
                },
                {
                    "name": "C4",
                    "midi": 60,
                    "time": 462.3482499999908,
                    "velocity": 0.29133858267716534,
                    "duration": 0.07113049999998111
                },
                {
                    "name": "A4",
                    "midi": 69,
                    "time": 462.4193804999908,
                    "velocity": 0.2440944881889764,
                    "duration": 0.07113049999998111
                },
                {
                    "name": "F#4",
                    "midi": 66,
                    "time": 462.49051099999076,
                    "velocity": 0.2440944881889764,
                    "duration": 0.07113049999998111
                },
                {
                    "name": "A4",
                    "midi": 69,
                    "time": 462.56164149999074,
                    "velocity": 0.2440944881889764,
                    "duration": 0.07113049999998111
                },
                {
                    "name": "C#4",
                    "midi": 61,
                    "time": 462.6327719999907,
                    "velocity": 0.2992125984251969,
                    "duration": 0.07113049999998111
                },
                {
                    "name": "A4",
                    "midi": 69,
                    "time": 462.7039024999907,
                    "velocity": 0.25196850393700787,
                    "duration": 0.07113049999998111
                },
                {
                    "name": "F#4",
                    "midi": 66,
                    "time": 462.7750329999907,
                    "velocity": 0.25196850393700787,
                    "duration": 0.07113049999998111
                },
                {
                    "name": "A4",
                    "midi": 69,
                    "time": 462.84616349999067,
                    "velocity": 0.25984251968503935,
                    "duration": 0.07113049999998111
                },
                {
                    "name": "D4",
                    "midi": 62,
                    "time": 462.91729399999065,
                    "velocity": 0.30708661417322836,
                    "duration": 0.07113049999998111
                },
                {
                    "name": "A4",
                    "midi": 69,
                    "time": 462.98842449999063,
                    "velocity": 0.25196850393700787,
                    "duration": 0.07113049999998111
                },
                {
                    "name": "F#4",
                    "midi": 66,
                    "time": 463.0595549999906,
                    "velocity": 0.2677165354330709,
                    "duration": 0.07113049999998111
                },
                {
                    "name": "A4",
                    "midi": 69,
                    "time": 463.1306854999906,
                    "velocity": 0.2677165354330709,
                    "duration": 0.07113049999998111
                },
                {
                    "name": "D4",
                    "midi": 62,
                    "time": 463.2018159999906,
                    "velocity": 0.25984251968503935,
                    "duration": 0.07113049999998111
                },
                {
                    "name": "A4",
                    "midi": 69,
                    "time": 463.27294649999055,
                    "velocity": 0.2125984251968504,
                    "duration": 0.07113049999998111
                },
                {
                    "name": "F#4",
                    "midi": 66,
                    "time": 463.34407699999053,
                    "velocity": 0.2125984251968504,
                    "duration": 0.07113049999998111
                },
                {
                    "name": "A4",
                    "midi": 69,
                    "time": 463.4152074999905,
                    "velocity": 0.2125984251968504,
                    "duration": 0.07113049999998111
                },
                {
                    "name": "D#4",
                    "midi": 63,
                    "time": 463.4863379999905,
                    "velocity": 0.25984251968503935,
                    "duration": 0.07113049999998111
                },
                {
                    "name": "A4",
                    "midi": 69,
                    "time": 463.5574684999905,
                    "velocity": 0.2204724409448819,
                    "duration": 0.07113049999998111
                },
                {
                    "name": "F#4",
                    "midi": 66,
                    "time": 463.62859899999046,
                    "velocity": 0.2204724409448819,
                    "duration": 0.07113049999998111
                },
                {
                    "name": "A4",
                    "midi": 69,
                    "time": 463.69972949999044,
                    "velocity": 0.2283464566929134,
                    "duration": 0.07113049999998111
                },
                {
                    "name": "D#4",
                    "midi": 63,
                    "time": 463.7708599999904,
                    "velocity": 0.25984251968503935,
                    "duration": 0.07113049999998111
                },
                {
                    "name": "A4",
                    "midi": 69,
                    "time": 463.8419904999904,
                    "velocity": 0.2283464566929134,
                    "duration": 0.07113049999998111
                },
                {
                    "name": "F#4",
                    "midi": 66,
                    "time": 463.9131209999904,
                    "velocity": 0.2283464566929134,
                    "duration": 0.07113049999998111
                },
                {
                    "name": "A4",
                    "midi": 69,
                    "time": 463.98425149999036,
                    "velocity": 0.2283464566929134,
                    "duration": 0.07113049999998111
                },
                {
                    "name": "D4",
                    "midi": 62,
                    "time": 464.05538199999035,
                    "velocity": 0.25984251968503935,
                    "duration": 0.07113049999998111
                },
                {
                    "name": "A4",
                    "midi": 69,
                    "time": 464.1265124999903,
                    "velocity": 0.2283464566929134,
                    "duration": 0.07113049999998111
                },
                {
                    "name": "F#4",
                    "midi": 66,
                    "time": 464.1976429999903,
                    "velocity": 0.2283464566929134,
                    "duration": 0.07113049999998111
                },
                {
                    "name": "A4",
                    "midi": 69,
                    "time": 464.2687734999903,
                    "velocity": 0.2283464566929134,
                    "duration": 0.07113049999998111
                },
                {
                    "name": "C4",
                    "midi": 60,
                    "time": 464.33990399999027,
                    "velocity": 0.25984251968503935,
                    "duration": 0.07113049999998111
                },
                {
                    "name": "A4",
                    "midi": 69,
                    "time": 464.41103449999025,
                    "velocity": 0.2125984251968504,
                    "duration": 0.07113049999998111
                },
                {
                    "name": "F#4",
                    "midi": 66,
                    "time": 464.48216499999023,
                    "velocity": 0.2125984251968504,
                    "duration": 0.07113049999998111
                },
                {
                    "name": "A4",
                    "midi": 69,
                    "time": 464.5532954999902,
                    "velocity": 0.2125984251968504,
                    "duration": 0.07113049999998111
                },
                {
                    "name": "C4",
                    "midi": 60,
                    "time": 464.6244259999902,
                    "velocity": 0.25984251968503935,
                    "duration": 0.07113049999998111
                },
                {
                    "name": "A4",
                    "midi": 69,
                    "time": 464.6955564999902,
                    "velocity": 0.2204724409448819,
                    "duration": 0.07113049999998111
                },
                {
                    "name": "F#4",
                    "midi": 66,
                    "time": 464.76668699999016,
                    "velocity": 0.2204724409448819,
                    "duration": 0.07113049999998111
                },
                {
                    "name": "A4",
                    "midi": 69,
                    "time": 464.83781749999014,
                    "velocity": 0.2283464566929134,
                    "duration": 0.07113049999998111
                },
                {
                    "name": "C4",
                    "midi": 60,
                    "time": 464.9089479999901,
                    "velocity": 0.25984251968503935,
                    "duration": 0.07113049999998111
                },
                {
                    "name": "A4",
                    "midi": 69,
                    "time": 464.9800784999901,
                    "velocity": 0.2283464566929134,
                    "duration": 0.07113049999998111
                },
                {
                    "name": "F#4",
                    "midi": 66,
                    "time": 465.0512089999901,
                    "velocity": 0.2283464566929134,
                    "duration": 0.07113049999998111
                },
                {
                    "name": "A4",
                    "midi": 69,
                    "time": 465.12233949999006,
                    "velocity": 0.2440944881889764,
                    "duration": 0.07113049999998111
                },
                {
                    "name": "B3",
                    "midi": 59,
                    "time": 465.19346999999004,
                    "velocity": 0.28346456692913385,
                    "duration": 0.07113049999998111
                },
                {
                    "name": "A4",
                    "midi": 69,
                    "time": 465.26460049999,
                    "velocity": 0.2440944881889764,
                    "duration": 0.07113049999998111
                },
                {
                    "name": "F#4",
                    "midi": 66,
                    "time": 465.33573099999,
                    "velocity": 0.2440944881889764,
                    "duration": 0.07113049999998111
                },
                {
                    "name": "A4",
                    "midi": 69,
                    "time": 465.40686149999,
                    "velocity": 0.2440944881889764,
                    "duration": 0.07113049999998111
                },
                {
                    "name": "B3",
                    "midi": 59,
                    "time": 465.47799199998997,
                    "velocity": 0.28346456692913385,
                    "duration": 0.07113049999998111
                },
                {
                    "name": "A4",
                    "midi": 69,
                    "time": 465.54912249998995,
                    "velocity": 0.23622047244094488,
                    "duration": 0.07113049999998111
                },
                {
                    "name": "F#4",
                    "midi": 66,
                    "time": 465.62025299998993,
                    "velocity": 0.23622047244094488,
                    "duration": 0.07113049999998111
                },
                {
                    "name": "A4",
                    "midi": 69,
                    "time": 465.6913834999899,
                    "velocity": 0.23622047244094488,
                    "duration": 0.07113049999998111
                },
                {
                    "name": "B3",
                    "midi": 59,
                    "time": 465.7625139999899,
                    "velocity": 0.29133858267716534,
                    "duration": 0.07113049999998111
                },
                {
                    "name": "G4",
                    "midi": 67,
                    "time": 465.8336444999899,
                    "velocity": 0.23622047244094488,
                    "duration": 0.07113049999998111
                },
                {
                    "name": "E4",
                    "midi": 64,
                    "time": 465.90477499998985,
                    "velocity": 0.23622047244094488,
                    "duration": 0.07113049999998111
                },
                {
                    "name": "G4",
                    "midi": 67,
                    "time": 465.97590549998984,
                    "velocity": 0.2440944881889764,
                    "duration": 0.07113049999998111
                },
                {
                    "name": "B3",
                    "midi": 59,
                    "time": 466.0470359999898,
                    "velocity": 0.2992125984251969,
                    "duration": 0.07113049999998111
                },
                {
                    "name": "F#4",
                    "midi": 66,
                    "time": 466.1181664999898,
                    "velocity": 0.2440944881889764,
                    "duration": 0.07113049999998111
                },
                {
                    "name": "D#4",
                    "midi": 63,
                    "time": 466.1892969999898,
                    "velocity": 0.2440944881889764,
                    "duration": 0.07113049999998111
                },
                {
                    "name": "F#4",
                    "midi": 66,
                    "time": 466.26042749998976,
                    "velocity": 0.2440944881889764,
                    "duration": 0.07113049999998111
                },
                {
                    "name": "B3",
                    "midi": 59,
                    "time": 466.33155799998974,
                    "velocity": 0.30708661417322836,
                    "duration": 0.07113049999998111
                },
                {
                    "name": "G4",
                    "midi": 67,
                    "time": 466.4026884999897,
                    "velocity": 0.2677165354330709,
                    "duration": 0.07113049999998111
                },
                {
                    "name": "E4",
                    "midi": 64,
                    "time": 466.4738189999897,
                    "velocity": 0.2677165354330709,
                    "duration": 0.07113049999998111
                },
                {
                    "name": "G4",
                    "midi": 67,
                    "time": 466.5449494999897,
                    "velocity": 0.2677165354330709,
                    "duration": 0.07113049999998111
                },
                {
                    "name": "B3",
                    "midi": 59,
                    "time": 466.61607999998967,
                    "velocity": 0.31496062992125984,
                    "duration": 0.07113049999998111
                },
                {
                    "name": "A4",
                    "midi": 69,
                    "time": 466.68721049998965,
                    "velocity": 0.2677165354330709,
                    "duration": 0.07113049999998111
                },
                {
                    "name": "F#4",
                    "midi": 66,
                    "time": 466.7583409999896,
                    "velocity": 0.2755905511811024,
                    "duration": 0.07113049999998111
                },
                {
                    "name": "A4",
                    "midi": 69,
                    "time": 466.8294714999896,
                    "velocity": 0.2755905511811024,
                    "duration": 0.07113049999998111
                },
                {
                    "name": "C4",
                    "midi": 60,
                    "time": 466.9006019999896,
                    "velocity": 0.31496062992125984,
                    "duration": 0.07113049999998111
                },
                {
                    "name": "A4",
                    "midi": 69,
                    "time": 466.97173249998957,
                    "velocity": 0.2677165354330709,
                    "duration": 0.07113049999998111
                },
                {
                    "name": "F#4",
                    "midi": 66,
                    "time": 467.04286299998955,
                    "velocity": 0.2677165354330709,
                    "duration": 0.07113049999998111
                },
                {
                    "name": "A4",
                    "midi": 69,
                    "time": 467.11399349998953,
                    "velocity": 0.2677165354330709,
                    "duration": 0.07113049999998111
                },
                {
                    "name": "C#4",
                    "midi": 61,
                    "time": 467.1851239999895,
                    "velocity": 0.3228346456692913,
                    "duration": 0.07113049999998111
                },
                {
                    "name": "A4",
                    "midi": 69,
                    "time": 467.2562544999895,
                    "velocity": 0.2755905511811024,
                    "duration": 0.07113049999998111
                },
                {
                    "name": "F#4",
                    "midi": 66,
                    "time": 467.3273849999895,
                    "velocity": 0.2755905511811024,
                    "duration": 0.07113049999998111
                },
                {
                    "name": "A4",
                    "midi": 69,
                    "time": 467.39851549998946,
                    "velocity": 0.28346456692913385,
                    "duration": 0.07113049999998111
                },
                {
                    "name": "D4",
                    "midi": 62,
                    "time": 467.46964599998944,
                    "velocity": 0.33070866141732286,
                    "duration": 0.07113049999998111
                },
                {
                    "name": "A4",
                    "midi": 69,
                    "time": 467.5407764999894,
                    "velocity": 0.2755905511811024,
                    "duration": 0.07113049999998111
                },
                {
                    "name": "F#4",
                    "midi": 66,
                    "time": 467.6119069999894,
                    "velocity": 0.29133858267716534,
                    "duration": 0.07113049999998111
                },
                {
                    "name": "A4",
                    "midi": 69,
                    "time": 467.6830374999894,
                    "velocity": 0.29133858267716534,
                    "duration": 0.07113049999998111
                },
                {
                    "name": "D4",
                    "midi": 62,
                    "time": 467.75416799998936,
                    "velocity": 0.28346456692913385,
                    "duration": 0.07113049999998111
                },
                {
                    "name": "A4",
                    "midi": 69,
                    "time": 467.82529849998934,
                    "velocity": 0.2283464566929134,
                    "duration": 0.07113049999998111
                },
                {
                    "name": "F#4",
                    "midi": 66,
                    "time": 467.8964289999893,
                    "velocity": 0.2283464566929134,
                    "duration": 0.07113049999998111
                },
                {
                    "name": "A4",
                    "midi": 69,
                    "time": 467.9675594999893,
                    "velocity": 0.2283464566929134,
                    "duration": 0.07113049999998111
                },
                {
                    "name": "D#4",
                    "midi": 63,
                    "time": 468.0386899999893,
                    "velocity": 0.28346456692913385,
                    "duration": 0.07113049999998111
                },
                {
                    "name": "A4",
                    "midi": 69,
                    "time": 468.10982049998927,
                    "velocity": 0.23622047244094488,
                    "duration": 0.07113049999998111
                },
                {
                    "name": "F#4",
                    "midi": 66,
                    "time": 468.18095099998925,
                    "velocity": 0.23622047244094488,
                    "duration": 0.07113049999998111
                },
                {
                    "name": "A4",
                    "midi": 69,
                    "time": 468.25208149998923,
                    "velocity": 0.2440944881889764,
                    "duration": 0.07113049999998111
                },
                {
                    "name": "D4",
                    "midi": 62,
                    "time": 468.3232119999892,
                    "velocity": 0.28346456692913385,
                    "duration": 0.07113049999998111
                },
                {
                    "name": "A4",
                    "midi": 69,
                    "time": 468.3943424999892,
                    "velocity": 0.2440944881889764,
                    "duration": 0.07113049999998111
                },
                {
                    "name": "F#4",
                    "midi": 66,
                    "time": 468.4654729999892,
                    "velocity": 0.2440944881889764,
                    "duration": 0.07113049999998111
                },
                {
                    "name": "A4",
                    "midi": 69,
                    "time": 468.53660349998916,
                    "velocity": 0.2440944881889764,
                    "duration": 0.07113049999998111
                },
                {
                    "name": "C4",
                    "midi": 60,
                    "time": 468.60773399998914,
                    "velocity": 0.28346456692913385,
                    "duration": 0.07113049999998111
                },
                {
                    "name": "A4",
                    "midi": 69,
                    "time": 468.6788644999891,
                    "velocity": 0.2440944881889764,
                    "duration": 0.07113049999998111
                },
                {
                    "name": "F#4",
                    "midi": 66,
                    "time": 468.7499949999891,
                    "velocity": 0.2440944881889764,
                    "duration": 0.07113049999998111
                },
                {
                    "name": "A4",
                    "midi": 69,
                    "time": 468.8211254999891,
                    "velocity": 0.2440944881889764,
                    "duration": 0.07113049999998111
                },
                {
                    "name": "A#3",
                    "midi": 58,
                    "time": 468.89225599998906,
                    "velocity": 0.28346456692913385,
                    "duration": 0.07113049999998111
                },
                {
                    "name": "G4",
                    "midi": 67,
                    "time": 468.96338649998904,
                    "velocity": 0.2283464566929134,
                    "duration": 0.07113049999998111
                },
                {
                    "name": "D4",
                    "midi": 62,
                    "time": 469.034516999989,
                    "velocity": 0.2283464566929134,
                    "duration": 0.07113049999998111
                },
                {
                    "name": "G4",
                    "midi": 67,
                    "time": 469.105647499989,
                    "velocity": 0.2283464566929134,
                    "duration": 0.07113049999998111
                },
                {
                    "name": "A3",
                    "midi": 57,
                    "time": 469.176777999989,
                    "velocity": 0.28346456692913385,
                    "duration": 0.07113049999998111
                },
                {
                    "name": "G4",
                    "midi": 67,
                    "time": 469.24790849998897,
                    "velocity": 0.23622047244094488,
                    "duration": 0.07113049999998111
                },
                {
                    "name": "C4",
                    "midi": 60,
                    "time": 469.31903899998895,
                    "velocity": 0.23622047244094488,
                    "duration": 0.07113049999998111
                },
                {
                    "name": "G4",
                    "midi": 67,
                    "time": 469.39016949998893,
                    "velocity": 0.2440944881889764,
                    "duration": 0.07113049999998111
                },
                {
                    "name": "G3",
                    "midi": 55,
                    "time": 469.4612999999889,
                    "velocity": 0.28346456692913385,
                    "duration": 0.07113049999998111
                },
                {
                    "name": "G4",
                    "midi": 67,
                    "time": 469.5324304999889,
                    "velocity": 0.2440944881889764,
                    "duration": 0.07113049999998111
                },
                {
                    "name": "A#3",
                    "midi": 58,
                    "time": 469.6035609999889,
                    "velocity": 0.2440944881889764,
                    "duration": 0.07113049999998111
                },
                {
                    "name": "G4",
                    "midi": 67,
                    "time": 469.67469149998885,
                    "velocity": 0.2440944881889764,
                    "duration": 0.07113049999998111
                },
                {
                    "name": "A#3",
                    "midi": 58,
                    "time": 469.74582199998883,
                    "velocity": 0.28346456692913385,
                    "duration": 0.07113049999998111
                },
                {
                    "name": "G4",
                    "midi": 67,
                    "time": 469.8169524999888,
                    "velocity": 0.2440944881889764,
                    "duration": 0.07113049999998111
                },
                {
                    "name": "D4",
                    "midi": 62,
                    "time": 469.8880829999888,
                    "velocity": 0.2440944881889764,
                    "duration": 0.07113049999998111
                },
                {
                    "name": "G4",
                    "midi": 67,
                    "time": 469.9592134999888,
                    "velocity": 0.2440944881889764,
                    "duration": 0.07113049999998111
                },
                {
                    "name": "D4",
                    "midi": 62,
                    "time": 470.03034399998876,
                    "velocity": 0.28346456692913385,
                    "duration": 0.07113049999998111
                },
                {
                    "name": "A4",
                    "midi": 69,
                    "time": 470.10147449998874,
                    "velocity": 0.2283464566929134,
                    "duration": 0.07113049999998111
                },
                {
                    "name": "F#4",
                    "midi": 66,
                    "time": 470.1726049999887,
                    "velocity": 0.2283464566929134,
                    "duration": 0.07113049999998111
                },
                {
                    "name": "A4",
                    "midi": 69,
                    "time": 470.2437354999887,
                    "velocity": 0.2283464566929134,
                    "duration": 0.07113049999998111
                },
                {
                    "name": "D#4",
                    "midi": 63,
                    "time": 470.3148659999887,
                    "velocity": 0.28346456692913385,
                    "duration": 0.07113049999998111
                },
                {
                    "name": "A4",
                    "midi": 69,
                    "time": 470.38599649998866,
                    "velocity": 0.23622047244094488,
                    "duration": 0.07113049999998111
                },
                {
                    "name": "F#4",
                    "midi": 66,
                    "time": 470.45712699998865,
                    "velocity": 0.23622047244094488,
                    "duration": 0.07113049999998111
                },
                {
                    "name": "A4",
                    "midi": 69,
                    "time": 470.5282574999886,
                    "velocity": 0.2440944881889764,
                    "duration": 0.07113049999998111
                },
                {
                    "name": "D4",
                    "midi": 62,
                    "time": 470.5993879999886,
                    "velocity": 0.28346456692913385,
                    "duration": 0.07113049999998111
                },
                {
                    "name": "A4",
                    "midi": 69,
                    "time": 470.6705184999886,
                    "velocity": 0.2440944881889764,
                    "duration": 0.07113049999998111
                },
                {
                    "name": "F#4",
                    "midi": 66,
                    "time": 470.74164899998857,
                    "velocity": 0.2440944881889764,
                    "duration": 0.07113049999998111
                },
                {
                    "name": "A4",
                    "midi": 69,
                    "time": 470.81277949998855,
                    "velocity": 0.2440944881889764,
                    "duration": 0.07113049999998111
                },
                {
                    "name": "C4",
                    "midi": 60,
                    "time": 470.88390999998853,
                    "velocity": 0.29133858267716534,
                    "duration": 0.07113049999998111
                },
                {
                    "name": "A4",
                    "midi": 69,
                    "time": 470.9550404999885,
                    "velocity": 0.25196850393700787,
                    "duration": 0.07113049999998111
                },
                {
                    "name": "F#4",
                    "midi": 66,
                    "time": 471.0261709999885,
                    "velocity": 0.25196850393700787,
                    "duration": 0.07113049999998111
                },
                {
                    "name": "A4",
                    "midi": 69,
                    "time": 471.0973014999885,
                    "velocity": 0.25196850393700787,
                    "duration": 0.07113049999998111
                },
                {
                    "name": "A#3",
                    "midi": 58,
                    "time": 471.16843199998846,
                    "velocity": 0.29133858267716534,
                    "duration": 0.07113049999998111
                },
                {
                    "name": "A#4",
                    "midi": 70,
                    "time": 471.23956249998844,
                    "velocity": 0.2440944881889764,
                    "duration": 0.07113049999998111
                },
                {
                    "name": "G4",
                    "midi": 67,
                    "time": 471.3106929999884,
                    "velocity": 0.25196850393700787,
                    "duration": 0.07113049999998111
                },
                {
                    "name": "A#4",
                    "midi": 70,
                    "time": 471.3818234999884,
                    "velocity": 0.25196850393700787,
                    "duration": 0.07113049999998111
                },
                {
                    "name": "A#3",
                    "midi": 58,
                    "time": 471.4529539999884,
                    "velocity": 0.30708661417322836,
                    "duration": 0.07113049999998111
                },
                {
                    "name": "A#4",
                    "midi": 70,
                    "time": 471.52408449998836,
                    "velocity": 0.2677165354330709,
                    "duration": 0.07113049999998111
                },
                {
                    "name": "G4",
                    "midi": 67,
                    "time": 471.59521499998834,
                    "velocity": 0.2677165354330709,
                    "duration": 0.07113049999998111
                },
                {
                    "name": "A#4",
                    "midi": 70,
                    "time": 471.6663454999883,
                    "velocity": 0.2755905511811024,
                    "duration": 0.07113049999998111
                },
                {
                    "name": "A#3",
                    "midi": 58,
                    "time": 471.7374759999883,
                    "velocity": 0.33070866141732286,
                    "duration": 0.07113049999998111
                },
                {
                    "name": "A#4",
                    "midi": 70,
                    "time": 471.8086064999883,
                    "velocity": 0.29133858267716534,
                    "duration": 0.07113049999998111
                },
                {
                    "name": "G4",
                    "midi": 67,
                    "time": 471.87973699998827,
                    "velocity": 0.29133858267716534,
                    "duration": 0.07113049999998111
                },
                {
                    "name": "A#4",
                    "midi": 70,
                    "time": 471.95086749998825,
                    "velocity": 0.29133858267716534,
                    "duration": 0.07113049999998111
                },
                {
                    "name": "A#3",
                    "midi": 58,
                    "time": 472.02199799998823,
                    "velocity": 0.3464566929133858,
                    "duration": 0.07113049999998111
                },
                {
                    "name": "C5",
                    "midi": 72,
                    "time": 472.0931284999882,
                    "velocity": 0.30708661417322836,
                    "duration": 0.07113049999998111
                },
                {
                    "name": "G#4",
                    "midi": 68,
                    "time": 472.1642589999882,
                    "velocity": 0.31496062992125984,
                    "duration": 0.07113049999998111
                },
                {
                    "name": "C5",
                    "midi": 72,
                    "time": 472.2353894999882,
                    "velocity": 0.31496062992125984,
                    "duration": 0.07113049999998111
                },
                {
                    "name": "A#3",
                    "midi": 58,
                    "time": 472.30651999998815,
                    "velocity": 0.3779527559055118,
                    "duration": 0.07113049999998111
                },
                {
                    "name": "A#4",
                    "midi": 70,
                    "time": 472.37765049998814,
                    "velocity": 0.2992125984251969,
                    "duration": 0.07113049999998111
                },
                {
                    "name": "G4",
                    "midi": 67,
                    "time": 472.4487809999881,
                    "velocity": 0.2992125984251969,
                    "duration": 0.07113049999998111
                },
                {
                    "name": "A#4",
                    "midi": 70,
                    "time": 472.5199114999881,
                    "velocity": 0.2992125984251969,
                    "duration": 0.07113049999998111
                },
                {
                    "name": "A#3",
                    "midi": 58,
                    "time": 472.5910419999881,
                    "velocity": 0.3700787401574803,
                    "duration": 0.07113049999998111
                },
                {
                    "name": "G#4",
                    "midi": 68,
                    "time": 472.66217249998806,
                    "velocity": 0.30708661417322836,
                    "duration": 0.07113049999998111
                },
                {
                    "name": "F4",
                    "midi": 65,
                    "time": 472.73330299998804,
                    "velocity": 0.30708661417322836,
                    "duration": 0.07113049999998111
                },
                {
                    "name": "G#4",
                    "midi": 68,
                    "time": 472.804433499988,
                    "velocity": 0.30708661417322836,
                    "duration": 0.07113049999998111
                },
                {
                    "name": "A#3",
                    "midi": 58,
                    "time": 472.875563999988,
                    "velocity": 0.33070866141732286,
                    "duration": 0.07113049999998111
                },
                {
                    "name": "G4",
                    "midi": 67,
                    "time": 472.946694499988,
                    "velocity": 0.28346456692913385,
                    "duration": 0.07113049999998111
                },
                {
                    "name": "D#4",
                    "midi": 63,
                    "time": 473.01782499998797,
                    "velocity": 0.28346456692913385,
                    "duration": 0.07113049999998111
                },
                {
                    "name": "G4",
                    "midi": 67,
                    "time": 473.08895549998795,
                    "velocity": 0.29133858267716534,
                    "duration": 0.07113049999998111
                },
                {
                    "name": "A#3",
                    "midi": 58,
                    "time": 473.1600859999879,
                    "velocity": 0.33070866141732286,
                    "duration": 0.07113049999998111
                },
                {
                    "name": "F4",
                    "midi": 65,
                    "time": 473.2312164999879,
                    "velocity": 0.2755905511811024,
                    "duration": 0.07113049999998111
                },
                {
                    "name": "C#4",
                    "midi": 61,
                    "time": 473.3023469999879,
                    "velocity": 0.2755905511811024,
                    "duration": 0.07113049999998111
                },
                {
                    "name": "F4",
                    "midi": 65,
                    "time": 473.37347749998787,
                    "velocity": 0.2755905511811024,
                    "duration": 0.07113049999998111
                },
                {
                    "name": "A#3",
                    "midi": 58,
                    "time": 473.44460799998785,
                    "velocity": 0.2755905511811024,
                    "duration": 0.07113049999998111
                },
                {
                    "name": "E4",
                    "midi": 64,
                    "time": 473.51573849998783,
                    "velocity": 0.2283464566929134,
                    "duration": 0.07113049999998111
                },
                {
                    "name": "C#4",
                    "midi": 61,
                    "time": 473.5868689999878,
                    "velocity": 0.2283464566929134,
                    "duration": 0.07113049999998111
                },
                {
                    "name": "E4",
                    "midi": 64,
                    "time": 473.6579994999878,
                    "velocity": 0.2283464566929134,
                    "duration": 0.07113049999998111
                },
                {
                    "name": "A#3",
                    "midi": 58,
                    "time": 473.7291299999878,
                    "velocity": 0.2677165354330709,
                    "duration": 0.07113049999998111
                },
                {
                    "name": "E4",
                    "midi": 64,
                    "time": 473.80026049998776,
                    "velocity": 0.2283464566929134,
                    "duration": 0.07113049999998111
                },
                {
                    "name": "C#4",
                    "midi": 61,
                    "time": 473.87139099998774,
                    "velocity": 0.2283464566929134,
                    "duration": 0.07113049999998111
                },
                {
                    "name": "E4",
                    "midi": 64,
                    "time": 473.9425214999877,
                    "velocity": 0.2283464566929134,
                    "duration": 0.07113049999998111
                },
                {
                    "name": "A#3",
                    "midi": 58,
                    "time": 474.0136519999877,
                    "velocity": 0.25984251968503935,
                    "duration": 0.07113049999998111
                },
                {
                    "name": "E4",
                    "midi": 64,
                    "time": 474.0847824999877,
                    "velocity": 0.2283464566929134,
                    "duration": 0.07113049999998111
                },
                {
                    "name": "C#4",
                    "midi": 61,
                    "time": 474.15591299998766,
                    "velocity": 0.2283464566929134,
                    "duration": 0.07113049999998111
                },
                {
                    "name": "E4",
                    "midi": 64,
                    "time": 474.22704349998764,
                    "velocity": 0.2283464566929134,
                    "duration": 0.07113049999998111
                },
                {
                    "name": "A#3",
                    "midi": 58,
                    "time": 474.2981739999876,
                    "velocity": 0.25984251968503935,
                    "duration": 0.07113049999998111
                },
                {
                    "name": "E4",
                    "midi": 64,
                    "time": 474.3693044999876,
                    "velocity": 0.2283464566929134,
                    "duration": 0.07113049999998111
                },
                {
                    "name": "C#4",
                    "midi": 61,
                    "time": 474.4404349999876,
                    "velocity": 0.2283464566929134,
                    "duration": 0.07113049999998111
                },
                {
                    "name": "E4",
                    "midi": 64,
                    "time": 474.51156549998757,
                    "velocity": 0.2283464566929134,
                    "duration": 0.07113049999998111
                },
                {
                    "name": "A#3",
                    "midi": 58,
                    "time": 474.58269599998755,
                    "velocity": 0.2440944881889764,
                    "duration": 0.07113049999998111
                },
                {
                    "name": "E4",
                    "midi": 64,
                    "time": 474.65382649998753,
                    "velocity": 0.2125984251968504,
                    "duration": 0.07113049999998111
                },
                {
                    "name": "C#4",
                    "midi": 61,
                    "time": 474.7249569999875,
                    "velocity": 0.2125984251968504,
                    "duration": 0.07113049999998111
                },
                {
                    "name": "E4",
                    "midi": 64,
                    "time": 474.7960874999875,
                    "velocity": 0.2125984251968504,
                    "duration": 0.07113049999998111
                },
                {
                    "name": "A#3",
                    "midi": 58,
                    "time": 474.8672179999875,
                    "velocity": 0.25196850393700787,
                    "duration": 0.07113049999998111
                },
                {
                    "name": "E4",
                    "midi": 64,
                    "time": 474.93834849998746,
                    "velocity": 0.2125984251968504,
                    "duration": 0.07113049999998111
                },
                {
                    "name": "C#4",
                    "midi": 61,
                    "time": 475.00947899998744,
                    "velocity": 0.2125984251968504,
                    "duration": 0.07113049999998111
                },
                {
                    "name": "E4",
                    "midi": 64,
                    "time": 475.0806094999874,
                    "velocity": 0.2125984251968504,
                    "duration": 0.07113049999998111
                },
                {
                    "name": "A3",
                    "midi": 57,
                    "time": 475.1517399999874,
                    "velocity": 0.25196850393700787,
                    "duration": 0.07113049999998111
                },
                {
                    "name": "E4",
                    "midi": 64,
                    "time": 475.2228704999874,
                    "velocity": 0.2047244094488189,
                    "duration": 0.07113049999998111
                },
                {
                    "name": "C#4",
                    "midi": 61,
                    "time": 475.29400099998736,
                    "velocity": 0.2047244094488189,
                    "duration": 0.07113049999998111
                },
                {
                    "name": "E4",
                    "midi": 64,
                    "time": 475.36513149998734,
                    "velocity": 0.2047244094488189,
                    "duration": 0.07113049999998111
                },
                {
                    "name": "G3",
                    "midi": 55,
                    "time": 475.4362619999873,
                    "velocity": 0.2440944881889764,
                    "duration": 0.07113049999998111
                },
                {
                    "name": "E4",
                    "midi": 64,
                    "time": 475.5073924999873,
                    "velocity": 0.2047244094488189,
                    "duration": 0.07113049999998111
                },
                {
                    "name": "C#4",
                    "midi": 61,
                    "time": 475.5785229999873,
                    "velocity": 0.2047244094488189,
                    "duration": 0.07113049999998111
                },
                {
                    "name": "E4",
                    "midi": 64,
                    "time": 475.64965349998727,
                    "velocity": 0.2047244094488189,
                    "duration": 0.07113049999998111
                },
                {
                    "name": "F3",
                    "midi": 53,
                    "time": 475.72078399998725,
                    "velocity": 0.2440944881889764,
                    "duration": 0.07113049999998111
                },
                {
                    "name": "F4",
                    "midi": 65,
                    "time": 475.79191449998723,
                    "velocity": 0.1889763779527559,
                    "duration": 0.07113049999998111
                },
                {
                    "name": "D4",
                    "midi": 62,
                    "time": 475.8630449999872,
                    "velocity": 0.1889763779527559,
                    "duration": 0.07113049999998111
                },
                {
                    "name": "F4",
                    "midi": 65,
                    "time": 475.9341754999872,
                    "velocity": 0.1889763779527559,
                    "duration": 0.07113049999998111
                },
                {
                    "name": "F3",
                    "midi": 53,
                    "time": 476.0053059999872,
                    "velocity": 0.23622047244094488,
                    "duration": 0.07113049999998111
                },
                {
                    "name": "G4",
                    "midi": 67,
                    "time": 476.07643649998715,
                    "velocity": 0.1968503937007874,
                    "duration": 0.07113049999998111
                },
                {
                    "name": "D#4",
                    "midi": 63,
                    "time": 476.14756699998713,
                    "velocity": 0.1968503937007874,
                    "duration": 0.07113049999998111
                },
                {
                    "name": "G4",
                    "midi": 67,
                    "time": 476.2186974999871,
                    "velocity": 0.2047244094488189,
                    "duration": 0.07113049999998111
                },
                {
                    "name": "F3",
                    "midi": 53,
                    "time": 476.2898279999871,
                    "velocity": 0.2283464566929134,
                    "duration": 0.07113049999998111
                },
                {
                    "name": "F4",
                    "midi": 65,
                    "time": 476.3609584999871,
                    "velocity": 0.2047244094488189,
                    "duration": 0.07113049999998111
                },
                {
                    "name": "D4",
                    "midi": 62,
                    "time": 476.43208899998706,
                    "velocity": 0.2047244094488189,
                    "duration": 0.07113049999998111
                },
                {
                    "name": "F4",
                    "midi": 65,
                    "time": 476.50321949998704,
                    "velocity": 0.2047244094488189,
                    "duration": 0.07113049999998111
                },
                {
                    "name": "F3",
                    "midi": 53,
                    "time": 476.574349999987,
                    "velocity": 0.23622047244094488,
                    "duration": 0.07113049999998111
                },
                {
                    "name": "G4",
                    "midi": 67,
                    "time": 476.645480499987,
                    "velocity": 0.2047244094488189,
                    "duration": 0.07113049999998111
                },
                {
                    "name": "D#4",
                    "midi": 63,
                    "time": 476.716610999987,
                    "velocity": 0.2047244094488189,
                    "duration": 0.07113049999998111
                },
                {
                    "name": "G4",
                    "midi": 67,
                    "time": 476.78774149998696,
                    "velocity": 0.2047244094488189,
                    "duration": 0.07113049999998111
                },
                {
                    "name": "F3",
                    "midi": 53,
                    "time": 476.85887199998695,
                    "velocity": 0.2440944881889764,
                    "duration": 0.07113049999998111
                },
                {
                    "name": "F4",
                    "midi": 65,
                    "time": 476.9300024999869,
                    "velocity": 0.1889763779527559,
                    "duration": 0.07113049999998111
                },
                {
                    "name": "D4",
                    "midi": 62,
                    "time": 477.0011329999869,
                    "velocity": 0.1889763779527559,
                    "duration": 0.07113049999998111
                },
                {
                    "name": "F4",
                    "midi": 65,
                    "time": 477.0722634999869,
                    "velocity": 0.1889763779527559,
                    "duration": 0.07113049999998111
                },
                {
                    "name": "F3",
                    "midi": 53,
                    "time": 477.14339399998687,
                    "velocity": 0.23622047244094488,
                    "duration": 0.07113049999998111
                },
                {
                    "name": "G4",
                    "midi": 67,
                    "time": 477.21452449998685,
                    "velocity": 0.1968503937007874,
                    "duration": 0.07113049999998111
                },
                {
                    "name": "D#4",
                    "midi": 63,
                    "time": 477.28565499998683,
                    "velocity": 0.1968503937007874,
                    "duration": 0.07113049999998111
                },
                {
                    "name": "G4",
                    "midi": 67,
                    "time": 477.3567854999868,
                    "velocity": 0.2047244094488189,
                    "duration": 0.07113049999998111
                },
                {
                    "name": "F3",
                    "midi": 53,
                    "time": 477.4279159999868,
                    "velocity": 0.2283464566929134,
                    "duration": 0.07113049999998111
                },
                {
                    "name": "F4",
                    "midi": 65,
                    "time": 477.4990464999868,
                    "velocity": 0.2047244094488189,
                    "duration": 0.07113049999998111
                },
                {
                    "name": "D4",
                    "midi": 62,
                    "time": 477.57017699998676,
                    "velocity": 0.2047244094488189,
                    "duration": 0.07113049999998111
                },
                {
                    "name": "F4",
                    "midi": 65,
                    "time": 477.64130749998674,
                    "velocity": 0.2047244094488189,
                    "duration": 0.07113049999998111
                },
                {
                    "name": "F3",
                    "midi": 53,
                    "time": 477.7124379999867,
                    "velocity": 0.23622047244094488,
                    "duration": 0.07113049999998111
                },
                {
                    "name": "G4",
                    "midi": 67,
                    "time": 477.7835684999867,
                    "velocity": 0.2047244094488189,
                    "duration": 0.07113049999998111
                },
                {
                    "name": "D#4",
                    "midi": 63,
                    "time": 477.8546989999867,
                    "velocity": 0.2047244094488189,
                    "duration": 0.07113049999998111
                },
                {
                    "name": "G4",
                    "midi": 67,
                    "time": 477.92582949998666,
                    "velocity": 0.2047244094488189,
                    "duration": 0.07113049999998111
                },
                {
                    "name": "F3",
                    "midi": 53,
                    "time": 477.99695999998664,
                    "velocity": 0.2440944881889764,
                    "duration": 0.07113049999998111
                },
                {
                    "name": "F4",
                    "midi": 65,
                    "time": 478.0680904999866,
                    "velocity": 0.1889763779527559,
                    "duration": 0.07113049999998111
                },
                {
                    "name": "D4",
                    "midi": 62,
                    "time": 478.1392209999866,
                    "velocity": 0.1889763779527559,
                    "duration": 0.07113049999998111
                },
                {
                    "name": "F4",
                    "midi": 65,
                    "time": 478.2103514999866,
                    "velocity": 0.1889763779527559,
                    "duration": 0.07113049999998111
                },
                {
                    "name": "F3",
                    "midi": 53,
                    "time": 478.28148199998657,
                    "velocity": 0.23622047244094488,
                    "duration": 0.07113049999998111
                },
                {
                    "name": "G4",
                    "midi": 67,
                    "time": 478.35261249998655,
                    "velocity": 0.2047244094488189,
                    "duration": 0.07113049999998111
                },
                {
                    "name": "D#4",
                    "midi": 63,
                    "time": 478.42374299998653,
                    "velocity": 0.2047244094488189,
                    "duration": 0.07113049999998111
                },
                {
                    "name": "G4",
                    "midi": 67,
                    "time": 478.4948734999865,
                    "velocity": 0.2125984251968504,
                    "duration": 0.07113049999998111
                },
                {
                    "name": "F3",
                    "midi": 53,
                    "time": 478.5660039999865,
                    "velocity": 0.23622047244094488,
                    "duration": 0.07113049999998111
                },
                {
                    "name": "F4",
                    "midi": 65,
                    "time": 478.6371344999865,
                    "velocity": 0.2125984251968504,
                    "duration": 0.07113049999998111
                },
                {
                    "name": "D4",
                    "midi": 62,
                    "time": 478.70826499998645,
                    "velocity": 0.2204724409448819,
                    "duration": 0.07113049999998111
                },
                {
                    "name": "F4",
                    "midi": 65,
                    "time": 478.77939549998644,
                    "velocity": 0.2204724409448819,
                    "duration": 0.07113049999998111
                },
                {
                    "name": "F3",
                    "midi": 53,
                    "time": 478.8505259999864,
                    "velocity": 0.25984251968503935,
                    "duration": 0.07113049999998111
                },
                {
                    "name": "G4",
                    "midi": 67,
                    "time": 478.9216564999864,
                    "velocity": 0.2204724409448819,
                    "duration": 0.07113049999998111
                },
                {
                    "name": "D#4",
                    "midi": 63,
                    "time": 478.9927869999864,
                    "velocity": 0.2204724409448819,
                    "duration": 0.07113049999998111
                },
                {
                    "name": "G4",
                    "midi": 67,
                    "time": 479.06391749998636,
                    "velocity": 0.2204724409448819,
                    "duration": 0.07113049999998111
                },
                {
                    "name": "F3",
                    "midi": 53,
                    "time": 479.13504799998634,
                    "velocity": 0.2677165354330709,
                    "duration": 0.07113049999998111
                },
                {
                    "name": "F4",
                    "midi": 65,
                    "time": 479.2061784999863,
                    "velocity": 0.2047244094488189,
                    "duration": 0.07113049999998111
                },
                {
                    "name": "D4",
                    "midi": 62,
                    "time": 479.2773089999863,
                    "velocity": 0.2047244094488189,
                    "duration": 0.07113049999998111
                },
                {
                    "name": "F4",
                    "midi": 65,
                    "time": 479.3484394999863,
                    "velocity": 0.2047244094488189,
                    "duration": 0.07113049999998111
                },
                {
                    "name": "F3",
                    "midi": 53,
                    "time": 479.41956999998627,
                    "velocity": 0.25984251968503935,
                    "duration": 0.07113049999998111
                },
                {
                    "name": "G4",
                    "midi": 67,
                    "time": 479.49070049998625,
                    "velocity": 0.2125984251968504,
                    "duration": 0.07113049999998111
                },
                {
                    "name": "D#4",
                    "midi": 63,
                    "time": 479.5618309999862,
                    "velocity": 0.2125984251968504,
                    "duration": 0.07113049999998111
                },
                {
                    "name": "G4",
                    "midi": 67,
                    "time": 479.6329614999862,
                    "velocity": 0.2204724409448819,
                    "duration": 0.07113049999998111
                },
                {
                    "name": "F3",
                    "midi": 53,
                    "time": 479.7040919999862,
                    "velocity": 0.2440944881889764,
                    "duration": 0.07113049999998111
                },
                {
                    "name": "F4",
                    "midi": 65,
                    "time": 479.77522249998617,
                    "velocity": 0.2204724409448819,
                    "duration": 0.07113049999998111
                },
                {
                    "name": "D4",
                    "midi": 62,
                    "time": 479.84635299998615,
                    "velocity": 0.2204724409448819,
                    "duration": 0.07113049999998111
                },
                {
                    "name": "F4",
                    "midi": 65,
                    "time": 479.91748349998613,
                    "velocity": 0.2204724409448819,
                    "duration": 0.07113049999998111
                },
                {
                    "name": "F3",
                    "midi": 53,
                    "time": 479.9886139999861,
                    "velocity": 0.28346456692913385,
                    "duration": 0.07113049999998111
                },
                {
                    "name": "G4",
                    "midi": 67,
                    "time": 480.0597444999861,
                    "velocity": 0.23622047244094488,
                    "duration": 0.07113049999998111
                },
                {
                    "name": "D#4",
                    "midi": 63,
                    "time": 480.1308749999861,
                    "velocity": 0.23622047244094488,
                    "duration": 0.07113049999998111
                },
                {
                    "name": "G4",
                    "midi": 67,
                    "time": 480.20200549998606,
                    "velocity": 0.23622047244094488,
                    "duration": 0.07113049999998111
                },
                {
                    "name": "F3",
                    "midi": 53,
                    "time": 480.27313599998604,
                    "velocity": 0.33070866141732286,
                    "duration": 0.07113049999998111
                },
                {
                    "name": "F4",
                    "midi": 65,
                    "time": 480.344266499986,
                    "velocity": 0.2755905511811024,
                    "duration": 0.07113049999998111
                },
                {
                    "name": "D4",
                    "midi": 62,
                    "time": 480.415396999986,
                    "velocity": 0.2755905511811024,
                    "duration": 0.07113049999998111
                },
                {
                    "name": "F4",
                    "midi": 65,
                    "time": 480.486527499986,
                    "velocity": 0.2755905511811024,
                    "duration": 0.07113049999998111
                },
                {
                    "name": "F3",
                    "midi": 53,
                    "time": 480.55765799998596,
                    "velocity": 0.3464566929133858,
                    "duration": 0.07113049999998111
                },
                {
                    "name": "G4",
                    "midi": 67,
                    "time": 480.62878849998594,
                    "velocity": 0.29133858267716534,
                    "duration": 0.07113049999998111
                },
                {
                    "name": "D#4",
                    "midi": 63,
                    "time": 480.6999189999859,
                    "velocity": 0.2992125984251969,
                    "duration": 0.07113049999998111
                },
                {
                    "name": "G4",
                    "midi": 67,
                    "time": 480.7710494999859,
                    "velocity": 0.29133858267716534,
                    "duration": 0.07113049999998111
                },
                {
                    "name": "F3",
                    "midi": 53,
                    "time": 480.8421799999859,
                    "velocity": 0.3700787401574803,
                    "duration": 0.07113049999998111
                },
                {
                    "name": "F4",
                    "midi": 65,
                    "time": 480.91331049998587,
                    "velocity": 0.29133858267716534,
                    "duration": 0.07113049999998111
                },
                {
                    "name": "D4",
                    "midi": 62,
                    "time": 480.98444099998585,
                    "velocity": 0.2992125984251969,
                    "duration": 0.07113049999998111
                },
                {
                    "name": "F4",
                    "midi": 65,
                    "time": 481.05557149998583,
                    "velocity": 0.2992125984251969,
                    "duration": 0.07113049999998111
                },
                {
                    "name": "F3",
                    "midi": 53,
                    "time": 481.1267019999858,
                    "velocity": 0.3858267716535433,
                    "duration": 0.07113049999998111
                },
                {
                    "name": "F4",
                    "midi": 65,
                    "time": 481.1978324999858,
                    "velocity": 0.31496062992125984,
                    "duration": 0.07113049999998111
                },
                {
                    "name": "D#4",
                    "midi": 63,
                    "time": 481.2689629999858,
                    "velocity": 0.31496062992125984,
                    "duration": 0.07113049999998111
                },
                {
                    "name": "F4",
                    "midi": 65,
                    "time": 481.34009349998576,
                    "velocity": 0.31496062992125984,
                    "duration": 0.07113049999998111
                },
                {
                    "name": "F3",
                    "midi": 53,
                    "time": 481.41122399998574,
                    "velocity": 0.3228346456692913,
                    "duration": 1.138087999999982
                },
                {
                    "name": "F4",
                    "midi": 65,
                    "time": 481.41122399998574,
                    "velocity": 0.3858267716535433,
                    "duration": 1.138087999999982
                },
                {
                    "name": "D#4",
                    "midi": 63,
                    "time": 481.41122399998574,
                    "velocity": 0.3228346456692913,
                    "duration": 1.138087999999982
                },
                {
                    "name": "A#3",
                    "midi": 58,
                    "time": 482.5493119999857,
                    "velocity": 0.25196850393700787,
                    "duration": 0.2845219999999813
                },
                {
                    "name": "D4",
                    "midi": 62,
                    "time": 482.5493119999857,
                    "velocity": 0.25196850393700787,
                    "duration": 0.2845219999999813
                },
                {
                    "name": "F4",
                    "midi": 65,
                    "time": 482.5493119999857,
                    "velocity": 0.2992125984251969,
                    "duration": 0.2845219999999813
                },
                {
                    "name": "A#3",
                    "midi": 58,
                    "time": 483.1183559999857,
                    "velocity": 0.2283464566929134,
                    "duration": 0.14226100000001907
                },
                {
                    "name": "D4",
                    "midi": 62,
                    "time": 483.1183559999857,
                    "velocity": 0.2283464566929134,
                    "duration": 0.14226100000001907
                },
                {
                    "name": "F4",
                    "midi": 65,
                    "time": 483.1183559999857,
                    "velocity": 0.2755905511811024,
                    "duration": 0.14226100000001907
                },
                {
                    "name": "A#3",
                    "midi": 58,
                    "time": 483.4028779999857,
                    "velocity": 0.2283464566929134,
                    "duration": 0.14226100000001907
                },
                {
                    "name": "F4",
                    "midi": 65,
                    "time": 483.4028779999857,
                    "velocity": 0.2283464566929134,
                    "duration": 0.14226100000001907
                },
                {
                    "name": "G#4",
                    "midi": 68,
                    "time": 483.4028779999857,
                    "velocity": 0.2755905511811024,
                    "duration": 0.14226100000001907
                },
                {
                    "name": "A#3",
                    "midi": 58,
                    "time": 483.68739999998576,
                    "velocity": 0.25196850393700787,
                    "duration": 0.2845219999999813
                },
                {
                    "name": "D#4",
                    "midi": 63,
                    "time": 483.68739999998576,
                    "velocity": 0.25196850393700787,
                    "duration": 0.2845219999999813
                },
                {
                    "name": "G4",
                    "midi": 67,
                    "time": 483.68739999998576,
                    "velocity": 0.2992125984251969,
                    "duration": 0.2845219999999813
                },
                {
                    "name": "A#3",
                    "midi": 58,
                    "time": 484.2564439999857,
                    "velocity": 0.2283464566929134,
                    "duration": 0.14226100000001907
                },
                {
                    "name": "D#4",
                    "midi": 63,
                    "time": 484.2564439999857,
                    "velocity": 0.2283464566929134,
                    "duration": 0.14226100000001907
                },
                {
                    "name": "G4",
                    "midi": 67,
                    "time": 484.2564439999857,
                    "velocity": 0.2755905511811024,
                    "duration": 0.14226100000001907
                },
                {
                    "name": "A#3",
                    "midi": 58,
                    "time": 484.54096599998576,
                    "velocity": 0.2283464566929134,
                    "duration": 0.14226100000001907
                },
                {
                    "name": "G4",
                    "midi": 67,
                    "time": 484.54096599998576,
                    "velocity": 0.2283464566929134,
                    "duration": 0.14226100000001907
                },
                {
                    "name": "A#4",
                    "midi": 70,
                    "time": 484.54096599998576,
                    "velocity": 0.2755905511811024,
                    "duration": 0.14226100000001907
                },
                {
                    "name": "A#3",
                    "midi": 58,
                    "time": 484.8254879999858,
                    "velocity": 0.25196850393700787,
                    "duration": 0.2845219999999813
                },
                {
                    "name": "D4",
                    "midi": 62,
                    "time": 484.8254879999858,
                    "velocity": 0.25196850393700787,
                    "duration": 0.2845219999999813
                },
                {
                    "name": "F4",
                    "midi": 65,
                    "time": 484.8254879999858,
                    "velocity": 0.2992125984251969,
                    "duration": 0.2845219999999813
                },
                {
                    "name": "A#3",
                    "midi": 58,
                    "time": 485.39453199998576,
                    "velocity": 0.2283464566929134,
                    "duration": 0.14226100000001907
                },
                {
                    "name": "D4",
                    "midi": 62,
                    "time": 485.39453199998576,
                    "velocity": 0.2755905511811024,
                    "duration": 0.14226100000001907
                },
                {
                    "name": "D4",
                    "midi": 62,
                    "time": 485.6790539999858,
                    "velocity": 0.2283464566929134,
                    "duration": 0.14226100000001907
                },
                {
                    "name": "F4",
                    "midi": 65,
                    "time": 485.6790539999858,
                    "velocity": 0.2755905511811024,
                    "duration": 0.14226100000001907
                },
                {
                    "name": "F3",
                    "midi": 53,
                    "time": 485.96357599998584,
                    "velocity": 0.2283464566929134,
                    "duration": 0.14226100000001907
                },
                {
                    "name": "D4",
                    "midi": 62,
                    "time": 485.96357599998584,
                    "velocity": 0.2283464566929134,
                    "duration": 0.14226100000001907
                },
                {
                    "name": "F4",
                    "midi": 65,
                    "time": 485.96357599998584,
                    "velocity": 0.2755905511811024,
                    "duration": 0.14226100000001907
                },
                {
                    "name": "F3",
                    "midi": 53,
                    "time": 486.2480979999859,
                    "velocity": 0.2204724409448819,
                    "duration": 0.14226100000001907
                },
                {
                    "name": "G4",
                    "midi": 67,
                    "time": 486.2480979999859,
                    "velocity": 0.2677165354330709,
                    "duration": 0.14226100000001907
                },
                {
                    "name": "D#4",
                    "midi": 63,
                    "time": 486.2480979999859,
                    "velocity": 0.2204724409448819,
                    "duration": 0.14226100000001907
                },
                {
                    "name": "F3",
                    "midi": 53,
                    "time": 486.5326199999859,
                    "velocity": 0.2204724409448819,
                    "duration": 0.14226100000001907
                },
                {
                    "name": "D4",
                    "midi": 62,
                    "time": 486.5326199999859,
                    "velocity": 0.2204724409448819,
                    "duration": 0.14226100000001907
                },
                {
                    "name": "F4",
                    "midi": 65,
                    "time": 486.5326199999859,
                    "velocity": 0.25984251968503935,
                    "duration": 0.14226100000001907
                },
                {
                    "name": "F3",
                    "midi": 53,
                    "time": 486.81714199998595,
                    "velocity": 0.2204724409448819,
                    "duration": 0.14226100000001907
                },
                {
                    "name": "C4",
                    "midi": 60,
                    "time": 486.81714199998595,
                    "velocity": 0.2204724409448819,
                    "duration": 0.14226100000001907
                },
                {
                    "name": "D#4",
                    "midi": 63,
                    "time": 486.81714199998595,
                    "velocity": 0.2677165354330709,
                    "duration": 0.14226100000001907
                },
                {
                    "name": "F3",
                    "midi": 53,
                    "time": 487.101663999986,
                    "velocity": 0.2283464566929134,
                    "duration": 0.14226100000001907
                },
                {
                    "name": "B3",
                    "midi": 59,
                    "time": 487.101663999986,
                    "velocity": 0.2283464566929134,
                    "duration": 0.14226100000001907
                },
                {
                    "name": "D4",
                    "midi": 62,
                    "time": 487.101663999986,
                    "velocity": 0.2755905511811024,
                    "duration": 0.14226100000001907
                },
                {
                    "name": "F3",
                    "midi": 53,
                    "time": 487.386185999986,
                    "velocity": 0.2204724409448819,
                    "duration": 0.14226100000001907
                },
                {
                    "name": "D4",
                    "midi": 62,
                    "time": 487.386185999986,
                    "velocity": 0.2755905511811024,
                    "duration": 0.14226100000001907
                },
                {
                    "name": "B3",
                    "midi": 59,
                    "time": 487.386185999986,
                    "velocity": 0.2204724409448819,
                    "duration": 0.14226100000001907
                },
                {
                    "name": "F3",
                    "midi": 53,
                    "time": 487.67070799998606,
                    "velocity": 0.2283464566929134,
                    "duration": 0.14226100000001907
                },
                {
                    "name": "B3",
                    "midi": 59,
                    "time": 487.67070799998606,
                    "velocity": 0.2283464566929134,
                    "duration": 0.14226100000001907
                },
                {
                    "name": "D4",
                    "midi": 62,
                    "time": 487.67070799998606,
                    "velocity": 0.2755905511811024,
                    "duration": 0.14226100000001907
                },
                {
                    "name": "F3",
                    "midi": 53,
                    "time": 487.9552299999861,
                    "velocity": 0.2440944881889764,
                    "duration": 0.14226100000001907
                },
                {
                    "name": "B3",
                    "midi": 59,
                    "time": 487.9552299999861,
                    "velocity": 0.2440944881889764,
                    "duration": 0.14226100000001907
                },
                {
                    "name": "D4",
                    "midi": 62,
                    "time": 487.9552299999861,
                    "velocity": 0.29133858267716534,
                    "duration": 0.14226100000001907
                },
                {
                    "name": "D#3",
                    "midi": 51,
                    "time": 488.23975199998614,
                    "velocity": 0.25984251968503935,
                    "duration": 0.14226100000001907
                },
                {
                    "name": "A#3",
                    "midi": 58,
                    "time": 488.23975199998614,
                    "velocity": 0.25984251968503935,
                    "duration": 0.14226100000001907
                },
                {
                    "name": "D#4",
                    "midi": 63,
                    "time": 488.23975199998614,
                    "velocity": 0.31496062992125984,
                    "duration": 0.14226100000001907
                },
                {
                    "name": "D#3",
                    "midi": 51,
                    "time": 488.5242739999862,
                    "velocity": 0.2440944881889764,
                    "duration": 0.14226100000001907
                },
                {
                    "name": "D#4",
                    "midi": 63,
                    "time": 488.5242739999862,
                    "velocity": 0.2992125984251969,
                    "duration": 0.14226100000001907
                },
                {
                    "name": "A#3",
                    "midi": 58,
                    "time": 488.5242739999862,
                    "velocity": 0.2440944881889764,
                    "duration": 0.14226100000001907
                },
                {
                    "name": "F3",
                    "midi": 53,
                    "time": 488.8087959999862,
                    "velocity": 0.2440944881889764,
                    "duration": 0.14226100000001907
                },
                {
                    "name": "A#3",
                    "midi": 58,
                    "time": 488.8087959999862,
                    "velocity": 0.2440944881889764,
                    "duration": 0.14226100000001907
                },
                {
                    "name": "D4",
                    "midi": 62,
                    "time": 488.8087959999862,
                    "velocity": 0.29133858267716534,
                    "duration": 0.14226100000001907
                },
                {
                    "name": "F3",
                    "midi": 53,
                    "time": 489.09331799998625,
                    "velocity": 0.2440944881889764,
                    "duration": 0.14226100000001907
                },
                {
                    "name": "C4",
                    "midi": 60,
                    "time": 489.09331799998625,
                    "velocity": 0.2440944881889764,
                    "duration": 0.14226100000001907
                },
                {
                    "name": "D#4",
                    "midi": 63,
                    "time": 489.09331799998625,
                    "velocity": 0.2992125984251969,
                    "duration": 0.14226100000001907
                },
                {
                    "name": "A#3",
                    "midi": 58,
                    "time": 489.3778399999863,
                    "velocity": 0.3700787401574803,
                    "duration": 0.09484066666664148
                },
                {
                    "name": "F4",
                    "midi": 65,
                    "time": 489.47268066665293,
                    "velocity": 0.3464566929133858,
                    "duration": 0.09484066666664148
                },
                {
                    "name": "D4",
                    "midi": 62,
                    "time": 489.5675213333196,
                    "velocity": 0.3464566929133858,
                    "duration": 0.04742033333332074
                },
                {
                    "name": "A#3",
                    "midi": 58,
                    "time": 489.6623619999862,
                    "velocity": 0.3700787401574803,
                    "duration": 0.04742033333332074
                },
                {
                    "name": "F3",
                    "midi": 53,
                    "time": 489.75720266665286,
                    "velocity": 0.33858267716535434,
                    "duration": 0.04742033333332074
                },
                {
                    "name": "D3",
                    "midi": 50,
                    "time": 489.8520433333195,
                    "velocity": 0.3228346456692913,
                    "duration": 0.04742033333332074
                },
                {
                    "name": "A#2",
                    "midi": 46,
                    "time": 489.94688399998614,
                    "velocity": 0.3543307086614173,
                    "duration": 0.04742033333332074
                },
                {
                    "name": "D3",
                    "midi": 50,
                    "time": 490.0417246666528,
                    "velocity": 0.3228346456692913,
                    "duration": 0.04742033333332074
                },
                {
                    "name": "F3",
                    "midi": 53,
                    "time": 490.1365653333194,
                    "velocity": 0.3228346456692913,
                    "duration": 0.04742033333332074
                },
                {
                    "name": "D3",
                    "midi": 50,
                    "time": 490.23140599998607,
                    "velocity": 0.3700787401574803,
                    "duration": 0.04742033333332074
                },
                {
                    "name": "F3",
                    "midi": 53,
                    "time": 490.3262466666527,
                    "velocity": 0.3543307086614173,
                    "duration": 0.04742033333332074
                },
                {
                    "name": "A#3",
                    "midi": 58,
                    "time": 490.42108733331935,
                    "velocity": 0.3543307086614173,
                    "duration": 0.04742033333332074
                },
                {
                    "name": "A#3",
                    "midi": 58,
                    "time": 490.515927999986,
                    "velocity": 0.3700787401574803,
                    "duration": 0.09484066666664148
                },
                {
                    "name": "G4",
                    "midi": 67,
                    "time": 490.61076866665263,
                    "velocity": 0.3464566929133858,
                    "duration": 0.09484066666664148
                },
                {
                    "name": "D#4",
                    "midi": 63,
                    "time": 490.7056093333193,
                    "velocity": 0.3464566929133858,
                    "duration": 0.04742033333332074
                },
                {
                    "name": "A#3",
                    "midi": 58,
                    "time": 490.8004499999859,
                    "velocity": 0.3700787401574803,
                    "duration": 0.04742033333332074
                },
                {
                    "name": "G3",
                    "midi": 55,
                    "time": 490.89529066665256,
                    "velocity": 0.33858267716535434,
                    "duration": 0.04742033333332074
                },
                {
                    "name": "D#3",
                    "midi": 51,
                    "time": 490.9901313333192,
                    "velocity": 0.3228346456692913,
                    "duration": 0.04742033333332074
                },
                {
                    "name": "A#2",
                    "midi": 46,
                    "time": 491.08497199998584,
                    "velocity": 0.3543307086614173,
                    "duration": 0.04742033333332074
                },
                {
                    "name": "D#3",
                    "midi": 51,
                    "time": 491.1798126666525,
                    "velocity": 0.3228346456692913,
                    "duration": 0.04742033333332074
                },
                {
                    "name": "G3",
                    "midi": 55,
                    "time": 491.2746533333191,
                    "velocity": 0.3228346456692913,
                    "duration": 0.04742033333332074
                },
                {
                    "name": "D#3",
                    "midi": 51,
                    "time": 491.36949399998576,
                    "velocity": 0.3700787401574803,
                    "duration": 0.04742033333332074
                },
                {
                    "name": "G3",
                    "midi": 55,
                    "time": 491.4643346666524,
                    "velocity": 0.3543307086614173,
                    "duration": 0.04742033333332074
                },
                {
                    "name": "A#3",
                    "midi": 58,
                    "time": 491.55917533331905,
                    "velocity": 0.3543307086614173,
                    "duration": 0.04742033333332074
                },
                {
                    "name": "A#3",
                    "midi": 58,
                    "time": 491.6540159999857,
                    "velocity": 0.3700787401574803,
                    "duration": 0.09484066666664148
                },
                {
                    "name": "A#4",
                    "midi": 70,
                    "time": 491.74885666665233,
                    "velocity": 0.3464566929133858,
                    "duration": 0.09484066666664148
                },
                {
                    "name": "F4",
                    "midi": 65,
                    "time": 491.84369733331897,
                    "velocity": 0.3464566929133858,
                    "duration": 0.04742033333332074
                },
                {
                    "name": "D4",
                    "midi": 62,
                    "time": 491.9385379999856,
                    "velocity": 0.3700787401574803,
                    "duration": 0.04742033333332074
                },
                {
                    "name": "A#3",
                    "midi": 58,
                    "time": 492.03337866665225,
                    "velocity": 0.33858267716535434,
                    "duration": 0.04742033333332074
                },
                {
                    "name": "F3",
                    "midi": 53,
                    "time": 492.1282193333189,
                    "velocity": 0.3228346456692913,
                    "duration": 0.04742033333332074
                },
                {
                    "name": "D3",
                    "midi": 50,
                    "time": 492.22305999998554,
                    "velocity": 0.3543307086614173,
                    "duration": 0.04742033333332074
                },
                {
                    "name": "A#2",
                    "midi": 46,
                    "time": 492.3179006666522,
                    "velocity": 0.3228346456692913,
                    "duration": 0.04742033333332074
                },
                {
                    "name": "F2",
                    "midi": 41,
                    "time": 492.4127413333188,
                    "velocity": 0.3228346456692913,
                    "duration": 0.04742033333332074
                },
                {
                    "name": "A#2",
                    "midi": 46,
                    "time": 492.50758199998546,
                    "velocity": 0.3700787401574803,
                    "duration": 0.04742033333332074
                },
                {
                    "name": "D3",
                    "midi": 50,
                    "time": 492.6024226666521,
                    "velocity": 0.3543307086614173,
                    "duration": 0.04742033333332074
                },
                {
                    "name": "F3",
                    "midi": 53,
                    "time": 492.69726333331874,
                    "velocity": 0.3543307086614173,
                    "duration": 0.04742033333332074
                },
                {
                    "name": "F3",
                    "midi": 53,
                    "time": 492.7921039999854,
                    "velocity": 0.2283464566929134,
                    "duration": 0.14226100000001907
                },
                {
                    "name": "D4",
                    "midi": 62,
                    "time": 492.7921039999854,
                    "velocity": 0.2283464566929134,
                    "duration": 0.14226100000001907
                },
                {
                    "name": "F4",
                    "midi": 65,
                    "time": 492.7921039999854,
                    "velocity": 0.2755905511811024,
                    "duration": 0.14226100000001907
                },
                {
                    "name": "F4",
                    "midi": 65,
                    "time": 493.0766259999854,
                    "velocity": 0.2204724409448819,
                    "duration": 0.14226100000001907
                },
                {
                    "name": "G5",
                    "midi": 79,
                    "time": 493.0766259999854,
                    "velocity": 0.2677165354330709,
                    "duration": 0.14226100000001907
                },
                {
                    "name": "D#5",
                    "midi": 75,
                    "time": 493.0766259999854,
                    "velocity": 0.2204724409448819,
                    "duration": 0.14226100000001907
                },
                {
                    "name": "F4",
                    "midi": 65,
                    "time": 493.36114799998546,
                    "velocity": 0.2204724409448819,
                    "duration": 0.14226100000001907
                },
                {
                    "name": "D5",
                    "midi": 74,
                    "time": 493.36114799998546,
                    "velocity": 0.2204724409448819,
                    "duration": 0.14226100000001907
                },
                {
                    "name": "F5",
                    "midi": 77,
                    "time": 493.36114799998546,
                    "velocity": 0.25984251968503935,
                    "duration": 0.14226100000001907
                },
                {
                    "name": "F4",
                    "midi": 65,
                    "time": 493.6456699999855,
                    "velocity": 0.2204724409448819,
                    "duration": 0.14226100000001907
                },
                {
                    "name": "C5",
                    "midi": 72,
                    "time": 493.6456699999855,
                    "velocity": 0.2204724409448819,
                    "duration": 0.14226100000001907
                },
                {
                    "name": "D#5",
                    "midi": 75,
                    "time": 493.6456699999855,
                    "velocity": 0.2677165354330709,
                    "duration": 0.14226100000001907
                },
                {
                    "name": "F4",
                    "midi": 65,
                    "time": 493.93019199998554,
                    "velocity": 0.2283464566929134,
                    "duration": 0.14226100000001907
                },
                {
                    "name": "B4",
                    "midi": 71,
                    "time": 493.93019199998554,
                    "velocity": 0.2283464566929134,
                    "duration": 0.14226100000001907
                },
                {
                    "name": "D5",
                    "midi": 74,
                    "time": 493.93019199998554,
                    "velocity": 0.2755905511811024,
                    "duration": 0.14226100000001907
                },
                {
                    "name": "F4",
                    "midi": 65,
                    "time": 494.2147139999856,
                    "velocity": 0.2204724409448819,
                    "duration": 0.14226100000001907
                },
                {
                    "name": "D5",
                    "midi": 74,
                    "time": 494.2147139999856,
                    "velocity": 0.2755905511811024,
                    "duration": 0.14226100000001907
                },
                {
                    "name": "B4",
                    "midi": 71,
                    "time": 494.2147139999856,
                    "velocity": 0.2204724409448819,
                    "duration": 0.14226100000001907
                },
                {
                    "name": "F4",
                    "midi": 65,
                    "time": 494.4992359999856,
                    "velocity": 0.2283464566929134,
                    "duration": 0.14226100000001907
                },
                {
                    "name": "B4",
                    "midi": 71,
                    "time": 494.4992359999856,
                    "velocity": 0.2283464566929134,
                    "duration": 0.14226100000001907
                },
                {
                    "name": "D5",
                    "midi": 74,
                    "time": 494.4992359999856,
                    "velocity": 0.2755905511811024,
                    "duration": 0.14226100000001907
                },
                {
                    "name": "F4",
                    "midi": 65,
                    "time": 494.78375799998565,
                    "velocity": 0.2440944881889764,
                    "duration": 0.14226100000001907
                },
                {
                    "name": "B4",
                    "midi": 71,
                    "time": 494.78375799998565,
                    "velocity": 0.2440944881889764,
                    "duration": 0.14226100000001907
                },
                {
                    "name": "D5",
                    "midi": 74,
                    "time": 494.78375799998565,
                    "velocity": 0.29133858267716534,
                    "duration": 0.14226100000001907
                },
                {
                    "name": "D#4",
                    "midi": 63,
                    "time": 495.0682799999857,
                    "velocity": 0.25984251968503935,
                    "duration": 0.14226100000001907
                },
                {
                    "name": "A#4",
                    "midi": 70,
                    "time": 495.0682799999857,
                    "velocity": 0.25984251968503935,
                    "duration": 0.14226100000001907
                },
                {
                    "name": "D#5",
                    "midi": 75,
                    "time": 495.0682799999857,
                    "velocity": 0.31496062992125984,
                    "duration": 0.14226100000001907
                },
                {
                    "name": "D#4",
                    "midi": 63,
                    "time": 495.35280199998573,
                    "velocity": 0.2440944881889764,
                    "duration": 0.14226100000001907
                },
                {
                    "name": "D#5",
                    "midi": 75,
                    "time": 495.35280199998573,
                    "velocity": 0.2992125984251969,
                    "duration": 0.14226100000001907
                },
                {
                    "name": "A#4",
                    "midi": 70,
                    "time": 495.35280199998573,
                    "velocity": 0.2440944881889764,
                    "duration": 0.14226100000001907
                },
                {
                    "name": "F4",
                    "midi": 65,
                    "time": 495.63732399998577,
                    "velocity": 0.2440944881889764,
                    "duration": 0.14226100000001907
                },
                {
                    "name": "A#4",
                    "midi": 70,
                    "time": 495.63732399998577,
                    "velocity": 0.2440944881889764,
                    "duration": 0.14226100000001907
                },
                {
                    "name": "D5",
                    "midi": 74,
                    "time": 495.63732399998577,
                    "velocity": 0.29133858267716534,
                    "duration": 0.14226100000001907
                },
                {
                    "name": "F4",
                    "midi": 65,
                    "time": 495.9218459999858,
                    "velocity": 0.2440944881889764,
                    "duration": 0.14226100000001907
                },
                {
                    "name": "C5",
                    "midi": 72,
                    "time": 495.9218459999858,
                    "velocity": 0.2440944881889764,
                    "duration": 0.14226100000001907
                },
                {
                    "name": "D#5",
                    "midi": 75,
                    "time": 495.9218459999858,
                    "velocity": 0.2992125984251969,
                    "duration": 0.14226100000001907
                },
                {
                    "name": "D#3",
                    "midi": 51,
                    "time": 496.20636799998584,
                    "velocity": 0.2047244094488189,
                    "duration": 0.14226100000001907
                },
                {
                    "name": "A3",
                    "midi": 57,
                    "time": 496.20636799998584,
                    "velocity": 0.2047244094488189,
                    "duration": 0.14226100000001907
                },
                {
                    "name": "C4",
                    "midi": 60,
                    "time": 496.20636799998584,
                    "velocity": 0.2440944881889764,
                    "duration": 0.14226100000001907
                },
                {
                    "name": "D#3",
                    "midi": 51,
                    "time": 496.4908899999859,
                    "velocity": 0.1968503937007874,
                    "duration": 0.14226100000001907
                },
                {
                    "name": "C4",
                    "midi": 60,
                    "time": 496.4908899999859,
                    "velocity": 0.2440944881889764,
                    "duration": 0.14226100000001907
                },
                {
                    "name": "A3",
                    "midi": 57,
                    "time": 496.4908899999859,
                    "velocity": 0.1968503937007874,
                    "duration": 0.14226100000001907
                },
                {
                    "name": "D#3",
                    "midi": 51,
                    "time": 496.7754119999859,
                    "velocity": 0.2047244094488189,
                    "duration": 0.14226100000001907
                },
                {
                    "name": "A3",
                    "midi": 57,
                    "time": 496.7754119999859,
                    "velocity": 0.2047244094488189,
                    "duration": 0.14226100000001907
                },
                {
                    "name": "C4",
                    "midi": 60,
                    "time": 496.7754119999859,
                    "velocity": 0.2440944881889764,
                    "duration": 0.14226100000001907
                },
                {
                    "name": "D#3",
                    "midi": 51,
                    "time": 497.05993399998596,
                    "velocity": 0.2125984251968504,
                    "duration": 0.14226100000001907
                },
                {
                    "name": "A3",
                    "midi": 57,
                    "time": 497.05993399998596,
                    "velocity": 0.2125984251968504,
                    "duration": 0.14226100000001907
                },
                {
                    "name": "C4",
                    "midi": 60,
                    "time": 497.05993399998596,
                    "velocity": 0.25984251968503935,
                    "duration": 0.14226100000001907
                },
                {
                    "name": "C#3",
                    "midi": 49,
                    "time": 497.344455999986,
                    "velocity": 0.2283464566929134,
                    "duration": 0.14226100000001907
                },
                {
                    "name": "G#3",
                    "midi": 56,
                    "time": 497.344455999986,
                    "velocity": 0.2283464566929134,
                    "duration": 0.14226100000001907
                },
                {
                    "name": "C#4",
                    "midi": 61,
                    "time": 497.344455999986,
                    "velocity": 0.28346456692913385,
                    "duration": 0.14226100000001907
                },
                {
                    "name": "C#3",
                    "midi": 49,
                    "time": 497.62897799998603,
                    "velocity": 0.2125984251968504,
                    "duration": 0.14226100000001907
                },
                {
                    "name": "C#4",
                    "midi": 61,
                    "time": 497.62897799998603,
                    "velocity": 0.2677165354330709,
                    "duration": 0.14226100000001907
                },
                {
                    "name": "G#3",
                    "midi": 56,
                    "time": 497.62897799998603,
                    "velocity": 0.2125984251968504,
                    "duration": 0.14226100000001907
                },
                {
                    "name": "D#3",
                    "midi": 51,
                    "time": 497.9134999999861,
                    "velocity": 0.2125984251968504,
                    "duration": 0.14226100000001907
                },
                {
                    "name": "G#3",
                    "midi": 56,
                    "time": 497.9134999999861,
                    "velocity": 0.2125984251968504,
                    "duration": 0.14226100000001907
                },
                {
                    "name": "C4",
                    "midi": 60,
                    "time": 497.9134999999861,
                    "velocity": 0.25984251968503935,
                    "duration": 0.14226100000001907
                },
                {
                    "name": "D#3",
                    "midi": 51,
                    "time": 498.1980219999861,
                    "velocity": 0.2125984251968504,
                    "duration": 0.14226100000001907
                },
                {
                    "name": "A#3",
                    "midi": 58,
                    "time": 498.1980219999861,
                    "velocity": 0.2125984251968504,
                    "duration": 0.14226100000001907
                },
                {
                    "name": "C#4",
                    "midi": 61,
                    "time": 498.1980219999861,
                    "velocity": 0.2677165354330709,
                    "duration": 0.14226100000001907
                },
                {
                    "name": "B4",
                    "midi": 71,
                    "time": 499.0515879999861,
                    "velocity": 0.2440944881889764,
                    "duration": 0.14226100000001907
                },
                {
                    "name": "G#4",
                    "midi": 68,
                    "time": 499.33610999998615,
                    "velocity": 0.25984251968503935,
                    "duration": 0.14226100000001907
                },
                {
                    "name": "C#5",
                    "midi": 73,
                    "time": 499.6206319999862,
                    "velocity": 0.25984251968503935,
                    "duration": 0.14226100000001907
                },
                {
                    "name": "C#5",
                    "midi": 73,
                    "time": 499.9051539999862,
                    "velocity": 0.2440944881889764,
                    "duration": 0.14226100000001907
                },
                {
                    "name": "C#3",
                    "midi": 49,
                    "time": 500.47419799998625,
                    "velocity": 0.2283464566929134,
                    "duration": 0.14226100000001907
                },
                {
                    "name": "C#3",
                    "midi": 49,
                    "time": 500.7587199999863,
                    "velocity": 0.2283464566929134,
                    "duration": 0.14226100000001907
                },
                {
                    "name": "D3",
                    "midi": 50,
                    "time": 501.3277639999863,
                    "velocity": 0.2047244094488189,
                    "duration": 0.14226100000001907
                },
                {
                    "name": "D3",
                    "midi": 50,
                    "time": 501.61228599998634,
                    "velocity": 0.2047244094488189,
                    "duration": 0.14226100000001907
                },
                {
                    "name": "D4",
                    "midi": 62,
                    "time": 502.18132999998636,
                    "velocity": 0.2047244094488189,
                    "duration": 0.14226100000001907
                },
                {
                    "name": "D#4",
                    "midi": 63,
                    "time": 502.4658519999864,
                    "velocity": 0.2125984251968504,
                    "duration": 0.14226100000001907
                },
                {
                    "name": "D#3",
                    "midi": 51,
                    "time": 502.75037399998644,
                    "velocity": 0.23622047244094488,
                    "duration": 0.14226100000001907
                },
                {
                    "name": "F3",
                    "midi": 53,
                    "time": 503.0348959999865,
                    "velocity": 0.25984251968503935,
                    "duration": 0.14226100000001907
                },
                {
                    "name": "F3",
                    "midi": 53,
                    "time": 503.3194179999865,
                    "velocity": 0.2755905511811024,
                    "duration": 0.14226100000001907
                },
                {
                    "name": "D#4",
                    "midi": 63,
                    "time": 503.60393999998655,
                    "velocity": 0.3228346456692913,
                    "duration": 0.14226100000001907
                },
                {
                    "name": "C4",
                    "midi": 60,
                    "time": 503.60393999998655,
                    "velocity": 0.2755905511811024,
                    "duration": 0.14226100000001907
                },
                {
                    "name": "F3",
                    "midi": 53,
                    "time": 503.60393999998655,
                    "velocity": 0.2755905511811024,
                    "duration": 0.14226100000001907
                },
                {
                    "name": "F3",
                    "midi": 53,
                    "time": 503.8884619999866,
                    "velocity": 0.28346456692913385,
                    "duration": 0.14226100000001907
                },
                {
                    "name": "C4",
                    "midi": 60,
                    "time": 503.8884619999866,
                    "velocity": 0.28346456692913385,
                    "duration": 0.14226100000001907
                },
                {
                    "name": "D#4",
                    "midi": 63,
                    "time": 503.8884619999866,
                    "velocity": 0.33070866141732286,
                    "duration": 0.14226100000001907
                },
                {
                    "name": "F3",
                    "midi": 53,
                    "time": 504.1729839999866,
                    "velocity": 0.28346456692913385,
                    "duration": 0.07113049999998111
                },
                {
                    "name": "A#2",
                    "midi": 46,
                    "time": 504.1729839999866,
                    "velocity": 0.28346456692913385,
                    "duration": 0.07113049999998111
                },
                {
                    "name": "A#3",
                    "midi": 58,
                    "time": 504.1729839999866,
                    "velocity": 0.33070866141732286,
                    "duration": 0.07113049999998111
                },
                {
                    "name": "D4",
                    "midi": 62,
                    "time": 504.7420279999866,
                    "velocity": 0.28346456692913385,
                    "duration": 0.42678300000000036
                },
                {
                    "name": "F4",
                    "midi": 65,
                    "time": 504.7420279999866,
                    "velocity": 0.3464566929133858,
                    "duration": 0.5690440000000194
                },
                {
                    "name": "C4",
                    "midi": 60,
                    "time": 505.1688109999866,
                    "velocity": 0.23622047244094488,
                    "duration": 0.14226100000001907
                },
                {
                    "name": "D#4",
                    "midi": 63,
                    "time": 505.1688109999866,
                    "velocity": 0.28346456692913385,
                    "duration": 0.14226100000001907
                },
                {
                    "name": "A#3",
                    "midi": 58,
                    "time": 505.3110719999866,
                    "velocity": 0.28346456692913385,
                    "duration": 0.2845219999999813
                },
                {
                    "name": "D4",
                    "midi": 62,
                    "time": 505.3110719999866,
                    "velocity": 0.3464566929133858,
                    "duration": 0.2845219999999813
                },
                {
                    "name": "G#3",
                    "midi": 56,
                    "time": 505.5955939999866,
                    "velocity": 0.2992125984251969,
                    "duration": 0.2845219999999813
                },
                {
                    "name": "D4",
                    "midi": 62,
                    "time": 505.5955939999866,
                    "velocity": 0.3543307086614173,
                    "duration": 0.2845219999999813
                },
                {
                    "name": "G3",
                    "midi": 55,
                    "time": 505.8801159999866,
                    "velocity": 0.31496062992125984,
                    "duration": 0.2845219999999813
                },
                {
                    "name": "D4",
                    "midi": 62,
                    "time": 505.8801159999866,
                    "velocity": 0.3779527559055118,
                    "duration": 0.2845219999999813
                },
                {
                    "name": "C3",
                    "midi": 48,
                    "time": 506.16463799998655,
                    "velocity": 0.29133858267716534,
                    "duration": 0.2845219999999813
                },
                {
                    "name": "G3",
                    "midi": 55,
                    "time": 506.16463799998655,
                    "velocity": 0.29133858267716534,
                    "duration": 0.2845219999999813
                },
                {
                    "name": "C4",
                    "midi": 60,
                    "time": 506.16463799998655,
                    "velocity": 0.3464566929133858,
                    "duration": 0.2845219999999813
                },
                {
                    "name": "F3",
                    "midi": 53,
                    "time": 506.44915999998653,
                    "velocity": 0.3228346456692913,
                    "duration": 0.5690440000000194
                },
                {
                    "name": "D#4",
                    "midi": 63,
                    "time": 506.44915999998653,
                    "velocity": 0.3858267716535433,
                    "duration": 0.5690440000000194
                },
                {
                    "name": "A#3",
                    "midi": 58,
                    "time": 507.01820399998655,
                    "velocity": 0.25196850393700787,
                    "duration": 0.07113049999998111
                },
                {
                    "name": "D4",
                    "midi": 62,
                    "time": 507.01820399998655,
                    "velocity": 0.2992125984251969,
                    "duration": 0.07113049999998111
                },
                {
                    "name": "A#3",
                    "midi": 58,
                    "time": 507.30272599998654,
                    "velocity": 0.2204724409448819,
                    "duration": 0.07113049999998111
                },
                {
                    "name": "D4",
                    "midi": 62,
                    "time": 507.30272599998654,
                    "velocity": 0.2677165354330709,
                    "duration": 0.07113049999998111
                },
                {
                    "name": "D3",
                    "midi": 50,
                    "time": 508.15629199998654,
                    "velocity": 0.2755905511811024,
                    "duration": 0.42678300000000036
                },
                {
                    "name": "F3",
                    "midi": 53,
                    "time": 508.15629199998654,
                    "velocity": 0.33070866141732286,
                    "duration": 0.14048273750000817
                },
                {
                    "name": "C3",
                    "midi": 48,
                    "time": 508.58307499998654,
                    "velocity": 0.23622047244094488,
                    "duration": 0.14226100000001907
                },
                {
                    "name": "D#3",
                    "midi": 51,
                    "time": 508.58307499998654,
                    "velocity": 0.28346456692913385,
                    "duration": 0.14226100000001907
                },
                {
                    "name": "A#2",
                    "midi": 46,
                    "time": 508.72533599998656,
                    "velocity": 0.28346456692913385,
                    "duration": 0.2845219999999813
                },
                {
                    "name": "D3",
                    "midi": 50,
                    "time": 508.72533599998656,
                    "velocity": 0.3464566929133858,
                    "duration": 0.2845219999999813
                },
                {
                    "name": "G#2",
                    "midi": 44,
                    "time": 509.00985799998654,
                    "velocity": 0.2992125984251969,
                    "duration": 0.2845219999999813
                },
                {
                    "name": "D3",
                    "midi": 50,
                    "time": 509.00985799998654,
                    "velocity": 0.3543307086614173,
                    "duration": 0.2845219999999813
                },
                {
                    "name": "G2",
                    "midi": 43,
                    "time": 509.2943799999865,
                    "velocity": 0.31496062992125984,
                    "duration": 0.23117412499999546
                },
                {
                    "name": "D3",
                    "midi": 50,
                    "time": 509.2943799999865,
                    "velocity": 0.3779527559055118,
                    "duration": 0.23117412499999546
                },
                {
                    "name": "C2",
                    "midi": 36,
                    "time": 509.5255541249865,
                    "velocity": 0.2755905511811024,
                    "duration": 0.1956088750000049
                },
                {
                    "name": "G2",
                    "midi": 43,
                    "time": 509.5344454374865,
                    "velocity": 0.29133858267716534,
                    "duration": 0.18671756250000726
                },
                {
                    "name": "C3",
                    "midi": 48,
                    "time": 509.5433367499865,
                    "velocity": 0.31496062992125984,
                    "duration": 0.17782625000000962
                },
                {
                    "name": "A#3",
                    "midi": 58,
                    "time": 510.1479459999865,
                    "velocity": 0.3543307086614173,
                    "duration": 0.2845219999999813
                },
                {
                    "name": "D#4",
                    "midi": 63,
                    "time": 510.1479459999865,
                    "velocity": 0.41732283464566927,
                    "duration": 0.2845219999999813
                },
                {
                    "name": "G#3",
                    "midi": 56,
                    "time": 510.4324679999865,
                    "velocity": 0.3858267716535433,
                    "duration": 0.23117412499999546
                },
                {
                    "name": "D#4",
                    "midi": 63,
                    "time": 510.4324679999865,
                    "velocity": 0.4645669291338583,
                    "duration": 0.23117412499999546
                },
                {
                    "name": "C#3",
                    "midi": 49,
                    "time": 510.6636421249865,
                    "velocity": 0.3858267716535433,
                    "duration": 0.1956088750000049
                },
                {
                    "name": "G#3",
                    "midi": 56,
                    "time": 510.6725334374865,
                    "velocity": 0.4094488188976378,
                    "duration": 0.18079002083334217
                },
                {
                    "name": "C#4",
                    "midi": 61,
                    "time": 510.6814247499865,
                    "velocity": 0.4409448818897638,
                    "duration": 0.17782625000000962
                },
                {
                    "name": "A2",
                    "midi": 45,
                    "time": 511.2860339999865,
                    "velocity": 0.5511811023622047,
                    "duration": 0.23117412499999546
                },
                {
                    "name": "C#3",
                    "midi": 49,
                    "time": 511.2860339999865,
                    "velocity": 0.5511811023622047,
                    "duration": 0.23117412499999546
                },
                {
                    "name": "E3",
                    "midi": 52,
                    "time": 511.2860339999865,
                    "velocity": 0.6614173228346457,
                    "duration": 0.23117412499999546
                },
                {
                    "name": "D2",
                    "midi": 38,
                    "time": 511.5172081249865,
                    "velocity": 0.5511811023622047,
                    "duration": 0.1956088750000049
                },
                {
                    "name": "A2",
                    "midi": 45,
                    "time": 511.5260994374865,
                    "velocity": 0.5748031496062992,
                    "duration": 0.18671756250000726
                },
                {
                    "name": "D3",
                    "midi": 50,
                    "time": 511.5349907499865,
                    "velocity": 0.6062992125984252,
                    "duration": 0.17782625000000962
                },
                {
                    "name": "A#3",
                    "midi": 58,
                    "time": 512.1395999999864,
                    "velocity": 0.3858267716535433,
                    "duration": 0.5690439999999626
                },
                {
                    "name": "G#4",
                    "midi": 68,
                    "time": 512.1395999999864,
                    "velocity": 0.4566929133858268,
                    "duration": 0.5690439999999626
                },
                {
                    "name": "D#4",
                    "midi": 63,
                    "time": 512.7086439999864,
                    "velocity": 0.2992125984251969,
                    "duration": 0.07113049999998111
                },
                {
                    "name": "G4",
                    "midi": 67,
                    "time": 512.7086439999864,
                    "velocity": 0.3543307086614173,
                    "duration": 0.07113049999998111
                },
                {
                    "name": "D#4",
                    "midi": 63,
                    "time": 512.9931659999863,
                    "velocity": 0.25984251968503935,
                    "duration": 0.07113049999998111
                },
                {
                    "name": "G4",
                    "midi": 67,
                    "time": 512.9931659999863,
                    "velocity": 0.31496062992125984,
                    "duration": 0.07113049999998111
                },
                {
                    "name": "D#4",
                    "midi": 63,
                    "time": 513.2776879999863,
                    "velocity": 0.2992125984251969,
                    "duration": 0.8535660000000007
                },
                {
                    "name": "A#4",
                    "midi": 70,
                    "time": 513.2776879999863,
                    "velocity": 0.3543307086614173,
                    "duration": 0.8535660000000007
                },
                {
                    "name": "F2",
                    "midi": 41,
                    "time": 515.5538639999862,
                    "velocity": 0.25984251968503935,
                    "duration": 0.5690439999999626
                },
                {
                    "name": "D#3",
                    "midi": 51,
                    "time": 515.5538639999862,
                    "velocity": 0.30708661417322836,
                    "duration": 0.5690439999999626
                },
                {
                    "name": "A#2",
                    "midi": 46,
                    "time": 516.1229079999862,
                    "velocity": 0.23622047244094488,
                    "duration": 0.07113049999998111
                },
                {
                    "name": "D3",
                    "midi": 50,
                    "time": 516.1229079999862,
                    "velocity": 0.28346456692913385,
                    "duration": 0.07113049999998111
                },
                {
                    "name": "A#2",
                    "midi": 46,
                    "time": 516.4074299999861,
                    "velocity": 0.1889763779527559,
                    "duration": 0.07113049999998111
                },
                {
                    "name": "D3",
                    "midi": 50,
                    "time": 516.4074299999861,
                    "velocity": 0.25196850393700787,
                    "duration": 0.07113049999998111
                },
                {
                    "name": "A#2",
                    "midi": 46,
                    "time": 516.691951999986,
                    "velocity": 0.23622047244094488,
                    "duration": 0.8535660000000007
                },
                {
                    "name": "F3",
                    "midi": 53,
                    "time": 516.691951999986,
                    "velocity": 0.28346456692913385,
                    "duration": 0.8535660000000007
                },
                {
                    "name": "A#3",
                    "midi": 58,
                    "time": 517.8300399999861,
                    "velocity": 0.3858267716535433,
                    "duration": 0.5690439999999626
                },
                {
                    "name": "G#4",
                    "midi": 68,
                    "time": 517.8300399999861,
                    "velocity": 0.4566929133858268,
                    "duration": 0.5690439999999626
                },
                {
                    "name": "D#4",
                    "midi": 63,
                    "time": 518.399083999986,
                    "velocity": 0.2992125984251969,
                    "duration": 0.07113049999998111
                },
                {
                    "name": "G4",
                    "midi": 67,
                    "time": 518.399083999986,
                    "velocity": 0.3543307086614173,
                    "duration": 0.07113049999998111
                },
                {
                    "name": "D#4",
                    "midi": 63,
                    "time": 518.683605999986,
                    "velocity": 0.30708661417322836,
                    "duration": 0.07113049999998111
                },
                {
                    "name": "G4",
                    "midi": 67,
                    "time": 518.683605999986,
                    "velocity": 0.3779527559055118,
                    "duration": 0.07113049999998111
                },
                {
                    "name": "F3",
                    "midi": 53,
                    "time": 522.3823919999859,
                    "velocity": 0.1889763779527559,
                    "duration": 0.5690439999999626
                },
                {
                    "name": "D#4",
                    "midi": 63,
                    "time": 522.3823919999859,
                    "velocity": 0.25196850393700787,
                    "duration": 0.5690439999999626
                },
                {
                    "name": "A#3",
                    "midi": 58,
                    "time": 522.9514359999858,
                    "velocity": 0.2125984251968504,
                    "duration": 0.07113049999998111
                },
                {
                    "name": "D4",
                    "midi": 62,
                    "time": 522.9514359999858,
                    "velocity": 0.25196850393700787,
                    "duration": 0.07113049999998111
                },
                {
                    "name": "A#3",
                    "midi": 58,
                    "time": 523.2359579999858,
                    "velocity": 0.16535433070866143,
                    "duration": 0.07113049999998111
                },
                {
                    "name": "D4",
                    "midi": 62,
                    "time": 523.2359579999858,
                    "velocity": 0.2204724409448819,
                    "duration": 0.07113049999998111
                },
                {
                    "name": "A#3",
                    "midi": 58,
                    "time": 523.5204799999857,
                    "velocity": 0.2125984251968504,
                    "duration": 0.8535660000000007
                },
                {
                    "name": "F4",
                    "midi": 65,
                    "time": 523.5204799999857,
                    "velocity": 0.25196850393700787,
                    "duration": 0.8535660000000007
                },
                {
                    "name": "G#3",
                    "midi": 56,
                    "time": 524.6585679999857,
                    "velocity": 0.2755905511811024,
                    "duration": 0.8535660000000007
                },
                {
                    "name": "D4",
                    "midi": 62,
                    "time": 524.6585679999857,
                    "velocity": 0.2755905511811024,
                    "duration": 0.8535660000000007
                },
                {
                    "name": "F4",
                    "midi": 65,
                    "time": 524.6585679999857,
                    "velocity": 0.3228346456692913,
                    "duration": 0.8535660000000007
                },
                {
                    "name": "F4",
                    "midi": 65,
                    "time": 525.7966559999858,
                    "velocity": 0.3228346456692913,
                    "duration": 1.1380880000000388
                },
                {
                    "name": "D4",
                    "midi": 62,
                    "time": 525.7966559999858,
                    "velocity": 0.2677165354330709,
                    "duration": 1.1380880000000388
                },
                {
                    "name": "G3",
                    "midi": 55,
                    "time": 525.7966559999858,
                    "velocity": 0.2677165354330709,
                    "duration": 1.1380880000000388
                },
                {
                    "name": "D#4",
                    "midi": 63,
                    "time": 526.9347439999858,
                    "velocity": 0.2677165354330709,
                    "duration": 0.28452200000003813
                },
                {
                    "name": "C4",
                    "midi": 60,
                    "time": 526.9347439999858,
                    "velocity": 0.2204724409448819,
                    "duration": 0.28452200000003813
                },
                {
                    "name": "C4",
                    "midi": 60,
                    "time": 528.0728319999859,
                    "velocity": 0.28346456692913385,
                    "duration": 0.14226099999996222
                },
                {
                    "name": "F3",
                    "midi": 53,
                    "time": 528.3573539999858,
                    "velocity": 0.23622047244094488,
                    "duration": 0.28452199999992445
                },
                {
                    "name": "C4",
                    "midi": 60,
                    "time": 528.3573539999858,
                    "velocity": 0.28346456692913385,
                    "duration": 0.21339149999994333
                },
                {
                    "name": "D4",
                    "midi": 62,
                    "time": 528.5707454999857,
                    "velocity": 0.2440944881889764,
                    "duration": 0.07113049999998111
                },
                {
                    "name": "F3",
                    "midi": 53,
                    "time": 528.6418759999857,
                    "velocity": 0.2204724409448819,
                    "duration": 0.28452200000003813
                },
                {
                    "name": "D#4",
                    "midi": 63,
                    "time": 528.6418759999857,
                    "velocity": 0.25196850393700787,
                    "duration": 0.28452200000003813
                },
                {
                    "name": "F3",
                    "midi": 53,
                    "time": 528.9263979999857,
                    "velocity": 0.2125984251968504,
                    "duration": 0.28452200000003813
                },
                {
                    "name": "C4",
                    "midi": 60,
                    "time": 528.9263979999857,
                    "velocity": 0.25196850393700787,
                    "duration": 0.28452200000003813
                },
                {
                    "name": "A#2",
                    "midi": 46,
                    "time": 529.2109199999858,
                    "velocity": 0.23622047244094488,
                    "duration": 0.14226099999996222
                },
                {
                    "name": "A#3",
                    "midi": 58,
                    "time": 529.2109199999858,
                    "velocity": 0.28346456692913385,
                    "duration": 0.14226099999996222
                },
                {
                    "name": "A#2",
                    "midi": 46,
                    "time": 529.4954419999857,
                    "velocity": 0.2125984251968504,
                    "duration": 0.8535660000000007
                },
                {
                    "name": "F3",
                    "midi": 53,
                    "time": 529.4954419999857,
                    "velocity": 0.25196850393700787,
                    "duration": 0.8535660000000007
                },
                {
                    "name": "G#2",
                    "midi": 44,
                    "time": 530.6335299999857,
                    "velocity": 0.2755905511811024,
                    "duration": 0.8535660000000007
                },
                {
                    "name": "F3",
                    "midi": 53,
                    "time": 530.6335299999857,
                    "velocity": 0.3228346456692913,
                    "duration": 0.8535660000000007
                },
                {
                    "name": "F3",
                    "midi": 53,
                    "time": 531.4870959999857,
                    "velocity": 0.3228346456692913,
                    "duration": 1.1380880000000388
                },
                {
                    "name": "D3",
                    "midi": 50,
                    "time": 531.4870959999857,
                    "velocity": 0.2677165354330709,
                    "duration": 1.1380880000000388
                },
                {
                    "name": "G2",
                    "midi": 43,
                    "time": 531.4870959999857,
                    "velocity": 0.2677165354330709,
                    "duration": 1.1380880000000388
                },
                {
                    "name": "D#3",
                    "midi": 51,
                    "time": 532.6251839999858,
                    "velocity": 0.23622047244094488,
                    "duration": 0.28452200000003813
                },
                {
                    "name": "C3",
                    "midi": 48,
                    "time": 532.6251839999858,
                    "velocity": 0.1968503937007874,
                    "duration": 0.28452200000003813
                },
                {
                    "name": "C3",
                    "midi": 48,
                    "time": 533.7632719999858,
                    "velocity": 0.25196850393700787,
                    "duration": 0.14226099999996222
                },
                {
                    "name": "F2",
                    "midi": 41,
                    "time": 534.0477939999857,
                    "velocity": 0.2125984251968504,
                    "duration": 0.28452199999992445
                },
                {
                    "name": "C3",
                    "midi": 48,
                    "time": 534.0477939999857,
                    "velocity": 0.25196850393700787,
                    "duration": 0.21339149999994333
                },
                {
                    "name": "D3",
                    "midi": 50,
                    "time": 534.2611854999857,
                    "velocity": 0.2125984251968504,
                    "duration": 0.07113049999998111
                },
                {
                    "name": "F2",
                    "midi": 41,
                    "time": 534.3323159999857,
                    "velocity": 0.1968503937007874,
                    "duration": 0.28452200000003813
                },
                {
                    "name": "D#3",
                    "midi": 51,
                    "time": 534.3323159999857,
                    "velocity": 0.2204724409448819,
                    "duration": 0.28452200000003813
                },
                {
                    "name": "F2",
                    "midi": 41,
                    "time": 534.6168379999857,
                    "velocity": 0.1889763779527559,
                    "duration": 0.28452200000003813
                },
                {
                    "name": "C3",
                    "midi": 48,
                    "time": 534.6168379999857,
                    "velocity": 0.2204724409448819,
                    "duration": 0.28452200000003813
                },
                {
                    "name": "D3",
                    "midi": 50,
                    "time": 534.9013599999857,
                    "velocity": 0.2677165354330709,
                    "duration": 0.14226099999996222
                },
                {
                    "name": "A#2",
                    "midi": 46,
                    "time": 534.9013599999857,
                    "velocity": 0.2204724409448819,
                    "duration": 0.28452199999992445
                },
                {
                    "name": "F3",
                    "midi": 53,
                    "time": 535.0436209999857,
                    "velocity": 0.2047244094488189,
                    "duration": 0.07113049999998111
                },
                {
                    "name": "F3",
                    "midi": 53,
                    "time": 535.1858819999857,
                    "velocity": 0.2047244094488189,
                    "duration": 0.07113049999998111
                },
                {
                    "name": "F3",
                    "midi": 53,
                    "time": 535.3281429999856,
                    "velocity": 0.2047244094488189,
                    "duration": 0.07113049999998111
                },
                {
                    "name": "F3",
                    "midi": 53,
                    "time": 535.4704039999856,
                    "velocity": 0.2047244094488189,
                    "duration": 0.07113049999998111
                },
                {
                    "name": "F3",
                    "midi": 53,
                    "time": 535.6126649999856,
                    "velocity": 0.2047244094488189,
                    "duration": 0.07113049999998111
                },
                {
                    "name": "D3",
                    "midi": 50,
                    "time": 535.7549259999855,
                    "velocity": 0.2047244094488189,
                    "duration": 0.14226099999996222
                },
                {
                    "name": "F2",
                    "midi": 41,
                    "time": 535.7549259999855,
                    "velocity": 0.16535433070866143,
                    "duration": 0.28452199999992445
                },
                {
                    "name": "F3",
                    "midi": 53,
                    "time": 535.8971869999855,
                    "velocity": 0.1732283464566929,
                    "duration": 0.14226099999996222
                },
                {
                    "name": "F2",
                    "midi": 41,
                    "time": 536.0394479999854,
                    "velocity": 0.1732283464566929,
                    "duration": 0.28452199999992445
                },
                {
                    "name": "D3",
                    "midi": 50,
                    "time": 536.0394479999854,
                    "velocity": 0.2125984251968504,
                    "duration": 0.14226099999996222
                },
                {
                    "name": "F3",
                    "midi": 53,
                    "time": 536.1817089999854,
                    "velocity": 0.1732283464566929,
                    "duration": 0.14226099999996222
                },
                {
                    "name": "F2",
                    "midi": 41,
                    "time": 536.3239699999854,
                    "velocity": 0.14173228346456693,
                    "duration": 0.28452199999992445
                },
                {
                    "name": "C3",
                    "midi": 48,
                    "time": 536.3239699999854,
                    "velocity": 0.1889763779527559,
                    "duration": 0.14226099999996222
                },
                {
                    "name": "F3",
                    "midi": 53,
                    "time": 536.4662309999853,
                    "velocity": 0.16535433070866143,
                    "duration": 0.14226099999996222
                },
                {
                    "name": "F2",
                    "midi": 41,
                    "time": 536.6084919999853,
                    "velocity": 0.1732283464566929,
                    "duration": 0.28452199999992445
                },
                {
                    "name": "D3",
                    "midi": 50,
                    "time": 536.6084919999853,
                    "velocity": 0.2125984251968504,
                    "duration": 0.14226099999996222
                },
                {
                    "name": "F3",
                    "midi": 53,
                    "time": 536.7507529999853,
                    "velocity": 0.16535433070866143,
                    "duration": 0.14226099999996222
                },
                {
                    "name": "D#3",
                    "midi": 51,
                    "time": 536.8930139999852,
                    "velocity": 0.2047244094488189,
                    "duration": 0.14226099999996222
                },
                {
                    "name": "F2",
                    "midi": 41,
                    "time": 536.8930139999852,
                    "velocity": 0.16535433070866143,
                    "duration": 0.28452199999992445
                },
                {
                    "name": "F3",
                    "midi": 53,
                    "time": 537.0352749999852,
                    "velocity": 0.15748031496062992,
                    "duration": 0.14226099999996222
                },
                {
                    "name": "A#2",
                    "midi": 46,
                    "time": 537.1775359999851,
                    "velocity": 0.1732283464566929,
                    "duration": 0.5690439999998489
                },
                {
                    "name": "D3",
                    "midi": 50,
                    "time": 537.1775359999851,
                    "velocity": 0.2125984251968504,
                    "duration": 0.14226099999996222
                },
                {
                    "name": "F3",
                    "midi": 53,
                    "time": 537.3197969999851,
                    "velocity": 0.15748031496062992,
                    "duration": 0.07113049999998111
                },
                {
                    "name": "F3",
                    "midi": 53,
                    "time": 537.4620579999851,
                    "velocity": 0.15748031496062992,
                    "duration": 0.07113049999998111
                },
                {
                    "name": "F3",
                    "midi": 53,
                    "time": 537.604318999985,
                    "velocity": 0.15748031496062992,
                    "duration": 0.07113049999998111
                },
                {
                    "name": "F3",
                    "midi": 53,
                    "time": 537.746579999985,
                    "velocity": 0.15748031496062992,
                    "duration": 0.07113049999998111
                },
                {
                    "name": "F3",
                    "midi": 53,
                    "time": 537.888840999985,
                    "velocity": 0.15748031496062992,
                    "duration": 0.07113049999998111
                },
                {
                    "name": "A#2",
                    "midi": 46,
                    "time": 538.0311019999849,
                    "velocity": 0.2047244094488189,
                    "duration": 0.14226099999996222
                },
                {
                    "name": "F2",
                    "midi": 41,
                    "time": 538.0311019999849,
                    "velocity": 0.16535433070866143,
                    "duration": 0.28452199999992445
                },
                {
                    "name": "F3",
                    "midi": 53,
                    "time": 538.1733629999849,
                    "velocity": 0.1732283464566929,
                    "duration": 0.14226099999996222
                },
                {
                    "name": "F2",
                    "midi": 41,
                    "time": 538.3156239999848,
                    "velocity": 0.1732283464566929,
                    "duration": 0.28452199999992445
                },
                {
                    "name": "A#2",
                    "midi": 46,
                    "time": 538.3156239999848,
                    "velocity": 0.2125984251968504,
                    "duration": 0.14226099999996222
                },
                {
                    "name": "F3",
                    "midi": 53,
                    "time": 538.4578849999848,
                    "velocity": 0.18110236220472442,
                    "duration": 0.14226099999996222
                },
                {
                    "name": "F2",
                    "midi": 41,
                    "time": 538.6001459999848,
                    "velocity": 0.14960629921259844,
                    "duration": 0.28452199999992445
                },
                {
                    "name": "A2",
                    "midi": 45,
                    "time": 538.6001459999848,
                    "velocity": 0.1968503937007874,
                    "duration": 0.14226099999996222
                },
                {
                    "name": "F3",
                    "midi": 53,
                    "time": 538.7424069999847,
                    "velocity": 0.1732283464566929,
                    "duration": 0.14226099999996222
                },
                {
                    "name": "F2",
                    "midi": 41,
                    "time": 538.8846679999847,
                    "velocity": 0.1889763779527559,
                    "duration": 0.28452199999992445
                },
                {
                    "name": "A#2",
                    "midi": 46,
                    "time": 538.8846679999847,
                    "velocity": 0.2204724409448819,
                    "duration": 0.14226099999996222
                },
                {
                    "name": "F3",
                    "midi": 53,
                    "time": 539.0269289999846,
                    "velocity": 0.18110236220472442,
                    "duration": 0.14226099999996222
                },
                {
                    "name": "C3",
                    "midi": 48,
                    "time": 539.1691899999846,
                    "velocity": 0.2204724409448819,
                    "duration": 0.14226099999996222
                },
                {
                    "name": "F2",
                    "midi": 41,
                    "time": 539.1691899999846,
                    "velocity": 0.18110236220472442,
                    "duration": 0.28452199999992445
                },
                {
                    "name": "F3",
                    "midi": 53,
                    "time": 539.3114509999846,
                    "velocity": 0.1732283464566929,
                    "duration": 0.14226099999996222
                },
                {
                    "name": "A#2",
                    "midi": 46,
                    "time": 539.4537119999845,
                    "velocity": 0.1732283464566929,
                    "duration": 0.5690439999998489
                },
                {
                    "name": "F3",
                    "midi": 53,
                    "time": 539.5959729999845,
                    "velocity": 0.15748031496062992,
                    "duration": 0.07113049999998111
                },
                {
                    "name": "F3",
                    "midi": 53,
                    "time": 539.7382339999845,
                    "velocity": 0.15748031496062992,
                    "duration": 0.07113049999998111
                },
                {
                    "name": "F3",
                    "midi": 53,
                    "time": 539.8804949999844,
                    "velocity": 0.15748031496062992,
                    "duration": 0.07113049999998111
                },
                {
                    "name": "F3",
                    "midi": 53,
                    "time": 540.0227559999844,
                    "velocity": 0.15748031496062992,
                    "duration": 0.07113049999998111
                },
                {
                    "name": "F3",
                    "midi": 53,
                    "time": 540.1650169999843,
                    "velocity": 0.15748031496062992,
                    "duration": 0.07113049999998111
                },
                {
                    "name": "D3",
                    "midi": 50,
                    "time": 540.3072779999843,
                    "velocity": 0.2047244094488189,
                    "duration": 0.14226099999996222
                },
                {
                    "name": "F2",
                    "midi": 41,
                    "time": 540.3072779999843,
                    "velocity": 0.16535433070866143,
                    "duration": 0.28452199999992445
                },
                {
                    "name": "F3",
                    "midi": 53,
                    "time": 540.4495389999843,
                    "velocity": 0.1732283464566929,
                    "duration": 0.14226099999996222
                },
                {
                    "name": "F2",
                    "midi": 41,
                    "time": 540.5917999999842,
                    "velocity": 0.1732283464566929,
                    "duration": 0.28452199999992445
                },
                {
                    "name": "D3",
                    "midi": 50,
                    "time": 540.5917999999842,
                    "velocity": 0.2125984251968504,
                    "duration": 0.14226099999996222
                },
                {
                    "name": "F3",
                    "midi": 53,
                    "time": 540.7340609999842,
                    "velocity": 0.1732283464566929,
                    "duration": 0.14226099999996222
                },
                {
                    "name": "F2",
                    "midi": 41,
                    "time": 540.8763219999842,
                    "velocity": 0.14173228346456693,
                    "duration": 0.28452199999992445
                },
                {
                    "name": "C3",
                    "midi": 48,
                    "time": 540.8763219999842,
                    "velocity": 0.1889763779527559,
                    "duration": 0.14226099999996222
                },
                {
                    "name": "F3",
                    "midi": 53,
                    "time": 541.0185829999841,
                    "velocity": 0.16535433070866143,
                    "duration": 0.14226099999996222
                },
                {
                    "name": "F2",
                    "midi": 41,
                    "time": 541.1608439999841,
                    "velocity": 0.1732283464566929,
                    "duration": 0.28452199999992445
                },
                {
                    "name": "D3",
                    "midi": 50,
                    "time": 541.1608439999841,
                    "velocity": 0.2125984251968504,
                    "duration": 0.14226099999996222
                },
                {
                    "name": "F3",
                    "midi": 53,
                    "time": 541.303104999984,
                    "velocity": 0.16535433070866143,
                    "duration": 0.14226099999996222
                },
                {
                    "name": "D#3",
                    "midi": 51,
                    "time": 541.445365999984,
                    "velocity": 0.2047244094488189,
                    "duration": 0.14226099999996222
                },
                {
                    "name": "F2",
                    "midi": 41,
                    "time": 541.445365999984,
                    "velocity": 0.16535433070866143,
                    "duration": 0.28452199999992445
                },
                {
                    "name": "F3",
                    "midi": 53,
                    "time": 541.587626999984,
                    "velocity": 0.15748031496062992,
                    "duration": 0.14226099999996222
                },
                {
                    "name": "F2",
                    "midi": 41,
                    "time": 541.7298879999839,
                    "velocity": 0.1732283464566929,
                    "duration": 0.9958269999999629
                },
                {
                    "name": "D#3",
                    "midi": 51,
                    "time": 541.7298879999839,
                    "velocity": 0.1732283464566929,
                    "duration": 0.9958269999999629
                },
                {
                    "name": "F3",
                    "midi": 53,
                    "time": 541.7298879999839,
                    "velocity": 0.2125984251968504,
                    "duration": 0.9958269999999629
                },
                {
                    "name": "F1",
                    "midi": 29,
                    "time": 542.7257149999839,
                    "velocity": 0.15748031496062992,
                    "duration": 0.07113049999998111
                },
                {
                    "name": "F#1",
                    "midi": 30,
                    "time": 542.7731353333172,
                    "velocity": 0.12598425196850394,
                    "duration": 0.07113049999998111
                },
                {
                    "name": "G#1",
                    "midi": 32,
                    "time": 542.8205556666505,
                    "velocity": 0.12598425196850394,
                    "duration": 0.07113049999998111
                },
                {
                    "name": "F#1",
                    "midi": 30,
                    "time": 542.8679759999839,
                    "velocity": 0.15748031496062992,
                    "duration": 0.059275416666650926
                },
                {
                    "name": "G#1",
                    "midi": 32,
                    "time": 542.9035412499838,
                    "velocity": 0.13385826771653545,
                    "duration": 0.059275416666650926
                },
                {
                    "name": "F#1",
                    "midi": 30,
                    "time": 542.9391064999838,
                    "velocity": 0.14173228346456693,
                    "duration": 0.059275416666650926
                },
                {
                    "name": "G#1",
                    "midi": 32,
                    "time": 542.9746717499838,
                    "velocity": 0.12598425196850394,
                    "duration": 0.059275416666650926
                },
                {
                    "name": "F#1",
                    "midi": 30,
                    "time": 543.0102369999838,
                    "velocity": 0.14173228346456693,
                    "duration": 0.059275416666650926
                },
                {
                    "name": "G#1",
                    "midi": 32,
                    "time": 543.0458022499838,
                    "velocity": 0.12598425196850394,
                    "duration": 0.059275416666650926
                },
                {
                    "name": "F#1",
                    "midi": 30,
                    "time": 543.0813674999838,
                    "velocity": 0.14173228346456693,
                    "duration": 0.059275416666650926
                },
                {
                    "name": "G#1",
                    "midi": 32,
                    "time": 543.1169327499838,
                    "velocity": 0.14173228346456693,
                    "duration": 0.059275416666650926
                },
                {
                    "name": "F#1",
                    "midi": 30,
                    "time": 543.1524979999838,
                    "velocity": 0.14960629921259844,
                    "duration": 0.059275416666650926
                },
                {
                    "name": "G#1",
                    "midi": 32,
                    "time": 543.1880632499838,
                    "velocity": 0.13385826771653545,
                    "duration": 0.059275416666650926
                },
                {
                    "name": "F#1",
                    "midi": 30,
                    "time": 543.2236284999838,
                    "velocity": 0.14960629921259844,
                    "duration": 0.059275416666650926
                },
                {
                    "name": "G#1",
                    "midi": 32,
                    "time": 543.2591937499838,
                    "velocity": 0.12598425196850394,
                    "duration": 0.059275416666650926
                },
                {
                    "name": "F#1",
                    "midi": 30,
                    "time": 543.2947589999837,
                    "velocity": 0.14173228346456693,
                    "duration": 0.059275416666650926
                },
                {
                    "name": "G#1",
                    "midi": 32,
                    "time": 543.3303242499837,
                    "velocity": 0.13385826771653545,
                    "duration": 0.059275416666650926
                },
                {
                    "name": "F#1",
                    "midi": 30,
                    "time": 543.3658894999837,
                    "velocity": 0.13385826771653545,
                    "duration": 0.059275416666650926
                },
                {
                    "name": "G#1",
                    "midi": 32,
                    "time": 543.4014547499837,
                    "velocity": 0.12598425196850394,
                    "duration": 0.059275416666650926
                },
                {
                    "name": "F#1",
                    "midi": 30,
                    "time": 543.4370199999837,
                    "velocity": 0.14173228346456693,
                    "duration": 0.059275416666650926
                },
                {
                    "name": "G#1",
                    "midi": 32,
                    "time": 543.4725852499837,
                    "velocity": 0.13385826771653545,
                    "duration": 0.059275416666650926
                },
                {
                    "name": "F#1",
                    "midi": 30,
                    "time": 543.5081504999837,
                    "velocity": 0.14173228346456693,
                    "duration": 0.059275416666650926
                },
                {
                    "name": "G#1",
                    "midi": 32,
                    "time": 543.5437157499837,
                    "velocity": 0.12598425196850394,
                    "duration": 0.059275416666650926
                },
                {
                    "name": "F#1",
                    "midi": 30,
                    "time": 543.5792809999837,
                    "velocity": 0.14173228346456693,
                    "duration": 0.059275416666650926
                },
                {
                    "name": "G#1",
                    "midi": 32,
                    "time": 543.6148462499837,
                    "velocity": 0.11811023622047244,
                    "duration": 0.059275416666650926
                },
                {
                    "name": "F#1",
                    "midi": 30,
                    "time": 543.6504114999836,
                    "velocity": 0.14173228346456693,
                    "duration": 0.059275416666650926
                },
                {
                    "name": "G#1",
                    "midi": 32,
                    "time": 543.6859767499836,
                    "velocity": 0.11811023622047244,
                    "duration": 0.059275416666650926
                },
                {
                    "name": "F#1",
                    "midi": 30,
                    "time": 543.7215419999836,
                    "velocity": 0.14960629921259844,
                    "duration": 0.059275416666650926
                },
                {
                    "name": "G#1",
                    "midi": 32,
                    "time": 543.7571072499836,
                    "velocity": 0.12598425196850394,
                    "duration": 0.059275416666650926
                },
                {
                    "name": "F#1",
                    "midi": 30,
                    "time": 543.7926724999836,
                    "velocity": 0.14173228346456693,
                    "duration": 0.059275416666650926
                },
                {
                    "name": "G#1",
                    "midi": 32,
                    "time": 543.8282377499836,
                    "velocity": 0.11811023622047244,
                    "duration": 0.059275416666650926
                },
                {
                    "name": "F1",
                    "midi": 29,
                    "time": 543.8638029999836,
                    "velocity": 0.14173228346456693,
                    "duration": 0.09484066666664148
                },
                {
                    "name": "F#1",
                    "midi": 30,
                    "time": 543.9349334999836,
                    "velocity": 0.11023622047244094,
                    "duration": 0.09484066666664148
                },
                {
                    "name": "F1",
                    "midi": 29,
                    "time": 544.0060639999836,
                    "velocity": 0.14173228346456693,
                    "duration": 0.07113049999998111
                },
                {
                    "name": "F2",
                    "midi": 41,
                    "time": 544.5751079999835,
                    "velocity": 0.1968503937007874,
                    "duration": 0.28452200000003813
                },
                {
                    "name": "C3",
                    "midi": 48,
                    "time": 544.5751079999835,
                    "velocity": 0.1968503937007874,
                    "duration": 0.28452200000003813
                },
                {
                    "name": "F3",
                    "midi": 53,
                    "time": 544.5751079999835,
                    "velocity": 0.2283464566929134,
                    "duration": 0.28452200000003813
                },
                {
                    "name": "A#2",
                    "midi": 46,
                    "time": 545.1441519999836,
                    "velocity": 0.1968503937007874,
                    "duration": 0.28452200000003813
                },
                {
                    "name": "F3",
                    "midi": 53,
                    "time": 545.1441519999836,
                    "velocity": 0.23622047244094488,
                    "duration": 0.28452200000003813
                },
                {
                    "name": "A#1",
                    "midi": 34,
                    "time": 546.2822399999836,
                    "velocity": 0.1889763779527559,
                    "duration": 0.28452200000003813
                },
                {
                    "name": "A#2",
                    "midi": 46,
                    "time": 546.2822399999836,
                    "velocity": 0.1889763779527559,
                    "duration": 0.28452200000003813
                },
                {
                    "name": "D3",
                    "midi": 50,
                    "time": 546.2822399999836,
                    "velocity": 0.1889763779527559,
                    "duration": 0.28452200000003813
                },
                {
                    "name": "F3",
                    "midi": 53,
                    "time": 546.2822399999836,
                    "velocity": 0.1889763779527559,
                    "duration": 0.28452200000003813
                },
                {
                    "name": "A#3",
                    "midi": 58,
                    "time": 546.2822399999836,
                    "velocity": 0.2204724409448819,
                    "duration": 0.28452200000003813
                },
                {
                    "name": "A#1",
                    "midi": 34,
                    "time": 547.4203279999837,
                    "velocity": 0.1889763779527559,
                    "duration": 1.4226099999999633
                },
                {
                    "name": "A#2",
                    "midi": 46,
                    "time": 547.4203279999837,
                    "velocity": 0.1889763779527559,
                    "duration": 1.4226099999999633
                },
                {
                    "name": "D3",
                    "midi": 50,
                    "time": 547.4203279999837,
                    "velocity": 0.1889763779527559,
                    "duration": 1.4226099999999633
                },
                {
                    "name": "F3",
                    "midi": 53,
                    "time": 547.4203279999837,
                    "velocity": 0.1889763779527559,
                    "duration": 1.4226099999999633
                },
                {
                    "name": "A#3",
                    "midi": 58,
                    "time": 547.4203279999837,
                    "velocity": 0.2204724409448819,
                    "duration": 1.4226099999999633
                }
            ],
            "controlChanges": {
                "7": [
                    {
                        "number": 7,
                        "time": 0,
                        "value": 0.7874015748031497
                    }
                ],
                "10": [
                    {
                        "number": 10,
                        "time": 0,
                        "value": 0.5039370078740157
                    }
                ],
                "64": [
                    {
                        "number": 64,
                        "time": 37.556903999999996,
                        "value": 0
                    },
                    {
                        "number": 64,
                        "time": 37.5942475125,
                        "value": 1
                    },
                    {
                        "number": 64,
                        "time": 237.19710008750374,
                        "value": 0
                    }
                ]
            },
            "id": 2,
            "name": "Piano left",
            "instrumentNumber": 1,
            "instrument": "bright acoustic piano",
            "instrumentFamily": "piano",
            "channelNumber": 0,
            "isPercussion": false
        },
        {
            "startTime": 0,
            "duration": 0,
            "length": 0,
            "notes": [],
            "controlChanges": {
                "64": [
                    {
                        "number": 64,
                        "time": 0,
                        "value": 0
                    },
                    {
                        "number": 64,
                        "time": 0.8618645583333333,
                        "value": 1
                    },
                    {
                        "number": 64,
                        "time": 1.138088,
                        "value": 0
                    },
                    {
                        "number": 64,
                        "time": 1.1884721041666666,
                        "value": 1
                    },
                    {
                        "number": 64,
                        "time": 1.42261,
                        "value": 0
                    },
                    {
                        "number": 64,
                        "time": 1.4729941041666665,
                        "value": 1
                    },
                    {
                        "number": 64,
                        "time": 1.7320276749999999,
                        "value": 0
                    },
                    {
                        "number": 64,
                        "time": 1.7990088958333332,
                        "value": 1
                    },
                    {
                        "number": 64,
                        "time": 2.0082511166666666,
                        "value": 0
                    },
                    {
                        "number": 64,
                        "time": 2.0752323374999997,
                        "value": 1
                    },
                    {
                        "number": 64,
                        "time": 2.2761759999999995,
                        "value": 0
                    },
                    {
                        "number": 64,
                        "time": 2.3372296791666662,
                        "value": 1
                    },
                    {
                        "number": 64,
                        "time": 2.4308848374999994,
                        "value": 0
                    },
                    {
                        "number": 64,
                        "time": 2.4771196624999994,
                        "value": 1
                    },
                    {
                        "number": 64,
                        "time": 3.133891279166666,
                        "value": 0
                    },
                    {
                        "number": 64,
                        "time": 3.1771623333333325,
                        "value": 1
                    },
                    {
                        "number": 64,
                        "time": 3.4142639999999993,
                        "value": 0
                    },
                    {
                        "number": 64,
                        "time": 3.489543779166666,
                        "value": 1
                    },
                    {
                        "number": 64,
                        "time": 4.276128558333333,
                        "value": 0
                    },
                    {
                        "number": 64,
                        "time": 4.334811220833333,
                        "value": 1
                    },
                    {
                        "number": 64,
                        "time": 4.552352,
                        "value": 0
                    },
                    {
                        "number": 64,
                        "time": 4.627631779166666,
                        "value": 1
                    },
                    {
                        "number": 64,
                        "time": 4.8493218375,
                        "value": 0
                    },
                    {
                        "number": 64,
                        "time": 4.928750895833333,
                        "value": 1
                    },
                    {
                        "number": 64,
                        "time": 5.130880066666666,
                        "value": 0
                    },
                    {
                        "number": 64,
                        "time": 5.247059883333333,
                        "value": 1
                    },
                    {
                        "number": 64,
                        "time": 5.41303105,
                        "value": 0
                    },
                    {
                        "number": 64,
                        "time": 5.4646006625,
                        "value": 1
                    },
                    {
                        "number": 64,
                        "time": 5.69044,
                        "value": 0
                    },
                    {
                        "number": 64,
                        "time": 5.758013975,
                        "value": 1
                    },
                    {
                        "number": 64,
                        "time": 6.5440059999999995,
                        "value": 0
                    },
                    {
                        "number": 64,
                        "time": 6.611579975,
                        "value": 1
                    },
                    {
                        "number": 64,
                        "time": 6.8285279999999995,
                        "value": 0
                    },
                    {
                        "number": 64,
                        "time": 6.895509220833333,
                        "value": 1
                    },
                    {
                        "number": 64,
                        "time": 7.1272761,
                        "value": 0
                    },
                    {
                        "number": 64,
                        "time": 7.188329779166666,
                        "value": 1
                    },
                    {
                        "number": 64,
                        "time": 7.410019837499999,
                        "value": 0
                    },
                    {
                        "number": 64,
                        "time": 7.4977474541666655,
                        "value": 1
                    },
                    {
                        "number": 64,
                        "time": 7.687428787499999,
                        "value": 0
                    },
                    {
                        "number": 64,
                        "time": 7.732478104166666,
                        "value": 1
                    },
                    {
                        "number": 64,
                        "time": 7.9755073125,
                        "value": 0
                    },
                    {
                        "number": 64,
                        "time": 8.050194337499999,
                        "value": 1
                    },
                    {
                        "number": 64,
                        "time": 8.5445513125,
                        "value": 0
                    },
                    {
                        "number": 64,
                        "time": 11.104656558333332,
                        "value": 1
                    },
                    {
                        "number": 64,
                        "time": 11.380879999999998,
                        "value": 0
                    },
                    {
                        "number": 64,
                        "time": 11.431264104166665,
                        "value": 1
                    },
                    {
                        "number": 64,
                        "time": 11.665401999999998,
                        "value": 0
                    },
                    {
                        "number": 64,
                        "time": 11.715786104166666,
                        "value": 1
                    },
                    {
                        "number": 64,
                        "time": 11.957037049999999,
                        "value": 0
                    },
                    {
                        "number": 64,
                        "time": 12.041800895833331,
                        "value": 1
                    },
                    {
                        "number": 64,
                        "time": 12.24807934583333,
                        "value": 0
                    },
                    {
                        "number": 64,
                        "time": 12.318024337499997,
                        "value": 1
                    },
                    {
                        "number": 64,
                        "time": 12.518967999999997,
                        "value": 0
                    },
                    {
                        "number": 64,
                        "time": 12.580021679166665,
                        "value": 1
                    },
                    {
                        "number": 64,
                        "time": 12.668934804166664,
                        "value": 0
                    },
                    {
                        "number": 64,
                        "time": 12.728210220833331,
                        "value": 1
                    },
                    {
                        "number": 64,
                        "time": 13.376683279166665,
                        "value": 0
                    },
                    {
                        "number": 64,
                        "time": 13.419954333333331,
                        "value": 1
                    },
                    {
                        "number": 64,
                        "time": 13.657055999999997,
                        "value": 0
                    },
                    {
                        "number": 64,
                        "time": 13.732335779166664,
                        "value": 1
                    },
                    {
                        "number": 64,
                        "time": 14.518920558333331,
                        "value": 0
                    },
                    {
                        "number": 64,
                        "time": 14.577603220833332,
                        "value": 1
                    },
                    {
                        "number": 64,
                        "time": 14.796329508333333,
                        "value": 0
                    },
                    {
                        "number": 64,
                        "time": 14.870423779166666,
                        "value": 1
                    },
                    {
                        "number": 64,
                        "time": 15.0921138375,
                        "value": 0
                    },
                    {
                        "number": 64,
                        "time": 15.171542895833333,
                        "value": 1
                    },
                    {
                        "number": 64,
                        "time": 15.397382233333333,
                        "value": 0
                    },
                    {
                        "number": 64,
                        "time": 15.489851883333333,
                        "value": 1
                    },
                    {
                        "number": 64,
                        "time": 15.661750591666667,
                        "value": 0
                    },
                    {
                        "number": 64,
                        "time": 15.7073926625,
                        "value": 1
                    },
                    {
                        "number": 64,
                        "time": 15.933232,
                        "value": 0
                    },
                    {
                        "number": 64,
                        "time": 16.000805975,
                        "value": 1
                    },
                    {
                        "number": 64,
                        "time": 16.786797999999997,
                        "value": 0
                    },
                    {
                        "number": 64,
                        "time": 16.854371974999996,
                        "value": 1
                    },
                    {
                        "number": 64,
                        "time": 17.071319999999996,
                        "value": 0
                    },
                    {
                        "number": 64,
                        "time": 17.146599779166664,
                        "value": 1
                    },
                    {
                        "number": 64,
                        "time": 17.368289837499997,
                        "value": 0
                    },
                    {
                        "number": 64,
                        "time": 17.44771889583333,
                        "value": 1
                    },
                    {
                        "number": 64,
                        "time": 17.649848066666664,
                        "value": 0
                    },
                    {
                        "number": 64,
                        "time": 17.76602788333333,
                        "value": 1
                    },
                    {
                        "number": 64,
                        "time": 17.937926591666663,
                        "value": 0
                    },
                    {
                        "number": 64,
                        "time": 17.983568662499998,
                        "value": 1
                    },
                    {
                        "number": 64,
                        "time": 18.209407999999996,
                        "value": 0
                    },
                    {
                        "number": 64,
                        "time": 18.276981974999995,
                        "value": 1
                    },
                    {
                        "number": 64,
                        "time": 19.062973999999993,
                        "value": 0
                    },
                    {
                        "number": 64,
                        "time": 19.130547974999992,
                        "value": 1
                    },
                    {
                        "number": 64,
                        "time": 19.347495999999992,
                        "value": 0
                    },
                    {
                        "number": 64,
                        "time": 19.42277577916666,
                        "value": 1
                    },
                    {
                        "number": 64,
                        "time": 19.644465837499993,
                        "value": 0
                    },
                    {
                        "number": 64,
                        "time": 19.723894895833325,
                        "value": 1
                    },
                    {
                        "number": 64,
                        "time": 19.92602406666666,
                        "value": 0
                    },
                    {
                        "number": 64,
                        "time": 20.042203883333325,
                        "value": 1
                    },
                    {
                        "number": 64,
                        "time": 20.21410259166666,
                        "value": 0
                    },
                    {
                        "number": 64,
                        "time": 20.259744662499994,
                        "value": 1
                    },
                    {
                        "number": 64,
                        "time": 20.485583999999992,
                        "value": 0
                    },
                    {
                        "number": 64,
                        "time": 20.55315797499999,
                        "value": 1
                    },
                    {
                        "number": 64,
                        "time": 21.05462799999999,
                        "value": 0
                    },
                    {
                        "number": 64,
                        "time": 22.490871345833323,
                        "value": 1
                    },
                    {
                        "number": 64,
                        "time": 22.768280295833325,
                        "value": 0
                    },
                    {
                        "number": 64,
                        "time": 22.795546987499993,
                        "value": 1
                    },
                    {
                        "number": 64,
                        "time": 23.060508099999993,
                        "value": 0
                    },
                    {
                        "number": 64,
                        "time": 23.087182037499993,
                        "value": 1
                    },
                    {
                        "number": 64,
                        "time": 23.340880820833327,
                        "value": 0
                    },
                    {
                        "number": 64,
                        "time": 23.368147512499995,
                        "value": 1
                    },
                    {
                        "number": 64,
                        "time": 23.61828977083333,
                        "value": 0
                    },
                    {
                        "number": 64,
                        "time": 23.639036166666664,
                        "value": 1
                    },
                    {
                        "number": 64,
                        "time": 23.899847999999995,
                        "value": 0
                    },
                    {
                        "number": 64,
                        "time": 23.927114691666663,
                        "value": 1
                    },
                    {
                        "number": 64,
                        "time": 24.76467632916666,
                        "value": 0
                    },
                    {
                        "number": 64,
                        "time": 24.81446767916666,
                        "value": 1
                    },
                    {
                        "number": 64,
                        "time": 25.037935999999995,
                        "value": 0
                    },
                    {
                        "number": 64,
                        "time": 25.061646166666662,
                        "value": 1
                    },
                    {
                        "number": 64,
                        "time": 25.895058524999996,
                        "value": 0
                    },
                    {
                        "number": 64,
                        "time": 25.918768691666664,
                        "value": 1
                    },
                    {
                        "number": 64,
                        "time": 26.17720950833333,
                        "value": 0
                    },
                    {
                        "number": 64,
                        "time": 26.2062544625,
                        "value": 1
                    },
                    {
                        "number": 64,
                        "time": 27.043816099999997,
                        "value": 0
                    },
                    {
                        "number": 64,
                        "time": 27.100720499999998,
                        "value": 1
                    },
                    {
                        "number": 64,
                        "time": 27.314111999999998,
                        "value": 0
                    },
                    {
                        "number": 64,
                        "time": 27.3514555125,
                        "value": 1
                    },
                    {
                        "number": 64,
                        "time": 27.886712525,
                        "value": 0
                    },
                    {
                        "number": 64,
                        "time": 27.9204995125,
                        "value": 1
                    },
                    {
                        "number": 64,
                        "time": 28.4522,
                        "value": 0
                    },
                    {
                        "number": 64,
                        "time": 28.4824304625,
                        "value": 1
                    },
                    {
                        "number": 64,
                        "time": 29.315842820833335,
                        "value": 0
                    },
                    {
                        "number": 64,
                        "time": 29.349629808333336,
                        "value": 1
                    },
                    {
                        "number": 64,
                        "time": 29.590288000000005,
                        "value": 0
                    },
                    {
                        "number": 64,
                        "time": 29.627631512500006,
                        "value": 1
                    },
                    {
                        "number": 64,
                        "time": 30.162888525000007,
                        "value": 0
                    },
                    {
                        "number": 64,
                        "time": 30.196675512500008,
                        "value": 1
                    },
                    {
                        "number": 64,
                        "time": 30.728376000000008,
                        "value": 0
                    },
                    {
                        "number": 64,
                        "time": 30.76571951250001,
                        "value": 1
                    },
                    {
                        "number": 64,
                        "time": 31.30097652500001,
                        "value": 0
                    },
                    {
                        "number": 64,
                        "time": 31.33476351250001,
                        "value": 1
                    },
                    {
                        "number": 64,
                        "time": 31.86646400000001,
                        "value": 0
                    },
                    {
                        "number": 64,
                        "time": 31.903807512500013,
                        "value": 1
                    },
                    {
                        "number": 64,
                        "time": 32.43906452500001,
                        "value": 0
                    },
                    {
                        "number": 64,
                        "time": 32.472851512500014,
                        "value": 1
                    },
                    {
                        "number": 64,
                        "time": 33.01047954166668,
                        "value": 0
                    },
                    {
                        "number": 64,
                        "time": 33.040117250000016,
                        "value": 1
                    },
                    {
                        "number": 64,
                        "time": 33.57715252500002,
                        "value": 0
                    },
                    {
                        "number": 64,
                        "time": 33.59078587083335,
                        "value": 1
                    },
                    {
                        "number": 64,
                        "time": 34.14678927916668,
                        "value": 0
                    },
                    {
                        "number": 64,
                        "time": 34.16990669166668,
                        "value": 1
                    },
                    {
                        "number": 64,
                        "time": 34.71524052500001,
                        "value": 0
                    },
                    {
                        "number": 64,
                        "time": 34.725317345833346,
                        "value": 1
                    },
                    {
                        "number": 64,
                        "time": 35.289619312500015,
                        "value": 0
                    },
                    {
                        "number": 64,
                        "time": 35.304438166666685,
                        "value": 1
                    },
                    {
                        "number": 64,
                        "time": 35.853328525000016,
                        "value": 0
                    },
                    {
                        "number": 64,
                        "time": 35.877038691666684,
                        "value": 1
                    },
                    {
                        "number": 64,
                        "time": 36.418816000000014,
                        "value": 0
                    },
                    {
                        "number": 64,
                        "time": 36.43719137916668,
                        "value": 1
                    },
                    {
                        "number": 64,
                        "time": 36.99141652500001,
                        "value": 0
                    },
                    {
                        "number": 64,
                        "time": 37.02520351250001,
                        "value": 1
                    },
                    {
                        "number": 64,
                        "time": 37.55690400000001,
                        "value": 0
                    },
                    {
                        "number": 64,
                        "time": 37.59424751250001,
                        "value": 1
                    },
                    {
                        "number": 64,
                        "time": 38.12950452500001,
                        "value": 0
                    },
                    {
                        "number": 64,
                        "time": 38.16329151250001,
                        "value": 1
                    },
                    {
                        "number": 64,
                        "time": 38.694992000000006,
                        "value": 0
                    },
                    {
                        "number": 64,
                        "time": 38.722258691666674,
                        "value": 1
                    },
                    {
                        "number": 64,
                        "time": 39.27352006666668,
                        "value": 0
                    },
                    {
                        "number": 64,
                        "time": 39.32508967916668,
                        "value": 1
                    },
                    {
                        "number": 64,
                        "time": 39.83308000000002,
                        "value": 0
                    },
                    {
                        "number": 64,
                        "time": 39.87042351250002,
                        "value": 1
                    },
                    {
                        "number": 64,
                        "time": 40.69672282083335,
                        "value": 0
                    },
                    {
                        "number": 64,
                        "time": 40.72398951250002,
                        "value": 1
                    },
                    {
                        "number": 64,
                        "time": 40.97116800000002,
                        "value": 0
                    },
                    {
                        "number": 64,
                        "time": 40.97116800000002,
                        "value": 0
                    },
                    {
                        "number": 64,
                        "time": 41.02155210416669,
                        "value": 1
                    },
                    {
                        "number": 64,
                        "time": 41.25569000000002,
                        "value": 0
                    },
                    {
                        "number": 64,
                        "time": 41.30607410416669,
                        "value": 1
                    },
                    {
                        "number": 64,
                        "time": 41.544361279166694,
                        "value": 0
                    },
                    {
                        "number": 64,
                        "time": 41.63208889583336,
                        "value": 1
                    },
                    {
                        "number": 64,
                        "time": 41.83540357500003,
                        "value": 0
                    },
                    {
                        "number": 64,
                        "time": 41.90831233750003,
                        "value": 1
                    },
                    {
                        "number": 64,
                        "time": 42.10925600000003,
                        "value": 0
                    },
                    {
                        "number": 64,
                        "time": 42.1703096791667,
                        "value": 1
                    },
                    {
                        "number": 64,
                        "time": 42.23906916250003,
                        "value": 0
                    },
                    {
                        "number": 64,
                        "time": 42.2894532666667,
                        "value": 1
                    },
                    {
                        "number": 64,
                        "time": 42.9669712791667,
                        "value": 0
                    },
                    {
                        "number": 64,
                        "time": 43.010242333333366,
                        "value": 1
                    },
                    {
                        "number": 64,
                        "time": 43.247344000000034,
                        "value": 0
                    },
                    {
                        "number": 64,
                        "time": 43.28053823333337,
                        "value": 1
                    },
                    {
                        "number": 64,
                        "time": 43.533051508333365,
                        "value": 0
                    },
                    {
                        "number": 64,
                        "time": 43.55676167500003,
                        "value": 1
                    },
                    {
                        "number": 64,
                        "time": 43.82527931250003,
                        "value": 0
                    },
                    {
                        "number": 64,
                        "time": 43.849582233333365,
                        "value": 1
                    },
                    {
                        "number": 64,
                        "time": 44.1139505916667,
                        "value": 0
                    },
                    {
                        "number": 64,
                        "time": 44.16789122083337,
                        "value": 1
                    },
                    {
                        "number": 64,
                        "time": 44.394323312500035,
                        "value": 0
                    },
                    {
                        "number": 64,
                        "time": 44.4607117791667,
                        "value": 1
                    },
                    {
                        "number": 64,
                        "time": 44.68240183750003,
                        "value": 0
                    },
                    {
                        "number": 64,
                        "time": 44.76183089583336,
                        "value": 1
                    },
                    {
                        "number": 64,
                        "time": 44.963960066666694,
                        "value": 0
                    },
                    {
                        "number": 64,
                        "time": 45.00900938333336,
                        "value": 1
                    },
                    {
                        "number": 64,
                        "time": 45.25203859166669,
                        "value": 0
                    },
                    {
                        "number": 64,
                        "time": 45.29768066250002,
                        "value": 1
                    },
                    {
                        "number": 64,
                        "time": 45.52352000000002,
                        "value": 0
                    },
                    {
                        "number": 64,
                        "time": 45.59109397500002,
                        "value": 1
                    },
                    {
                        "number": 64,
                        "time": 45.81219127916669,
                        "value": 0
                    },
                    {
                        "number": 64,
                        "time": 45.83708695416669,
                        "value": 1
                    },
                    {
                        "number": 64,
                        "time": 46.10501183750003,
                        "value": 0
                    },
                    {
                        "number": 64,
                        "time": 46.14709738333336,
                        "value": 1
                    },
                    {
                        "number": 64,
                        "time": 46.37708600000003,
                        "value": 0
                    },
                    {
                        "number": 64,
                        "time": 46.44465997500003,
                        "value": 1
                    },
                    {
                        "number": 64,
                        "time": 46.66990655833336,
                        "value": 0
                    },
                    {
                        "number": 64,
                        "time": 46.73688777916669,
                        "value": 1
                    },
                    {
                        "number": 64,
                        "time": 46.95857783750002,
                        "value": 0
                    },
                    {
                        "number": 64,
                        "time": 47.01074020416669,
                        "value": 1
                    },
                    {
                        "number": 64,
                        "time": 47.240136066666686,
                        "value": 0
                    },
                    {
                        "number": 64,
                        "time": 47.28814915416669,
                        "value": 1
                    },
                    {
                        "number": 64,
                        "time": 47.52821459166669,
                        "value": 0
                    },
                    {
                        "number": 64,
                        "time": 47.57385666250002,
                        "value": 1
                    },
                    {
                        "number": 64,
                        "time": 47.79969600000002,
                        "value": 0
                    },
                    {
                        "number": 64,
                        "time": 47.86726997500002,
                        "value": 1
                    },
                    {
                        "number": 64,
                        "time": 48.09725859166669,
                        "value": 0
                    },
                    {
                        "number": 64,
                        "time": 48.13045282500002,
                        "value": 1
                    },
                    {
                        "number": 64,
                        "time": 48.38118783750002,
                        "value": 0
                    },
                    {
                        "number": 64,
                        "time": 48.40193423333336,
                        "value": 1
                    },
                    {
                        "number": 64,
                        "time": 48.653262000000026,
                        "value": 0
                    },
                    {
                        "number": 64,
                        "time": 48.72083597500003,
                        "value": 1
                    },
                    {
                        "number": 64,
                        "time": 48.93778400000003,
                        "value": 0
                    },
                    {
                        "number": 64,
                        "time": 49.01306377916669,
                        "value": 1
                    },
                    {
                        "number": 64,
                        "time": 49.23475383750002,
                        "value": 0
                    },
                    {
                        "number": 64,
                        "time": 49.314182895833355,
                        "value": 1
                    },
                    {
                        "number": 64,
                        "time": 49.54002223333335,
                        "value": 0
                    },
                    {
                        "number": 64,
                        "time": 49.57795850000002,
                        "value": 1
                    },
                    {
                        "number": 64,
                        "time": 49.80439059166669,
                        "value": 0
                    },
                    {
                        "number": 64,
                        "time": 49.85003266250002,
                        "value": 1
                    },
                    {
                        "number": 64,
                        "time": 50.07587200000002,
                        "value": 0
                    },
                    {
                        "number": 64,
                        "time": 50.14344597500002,
                        "value": 1
                    },
                    {
                        "number": 64,
                        "time": 51.21396000000002,
                        "value": 0
                    },
                    {
                        "number": 64,
                        "time": 51.243004954166686,
                        "value": 1
                    },
                    {
                        "number": 64,
                        "time": 52.07819557500002,
                        "value": 0
                    },
                    {
                        "number": 64,
                        "time": 52.09894197083335,
                        "value": 1
                    },
                    {
                        "number": 64,
                        "time": 52.35204800000002,
                        "value": 0
                    },
                    {
                        "number": 64,
                        "time": 52.38227846250002,
                        "value": 1
                    },
                    {
                        "number": 64,
                        "time": 53.20976327916669,
                        "value": 0
                    },
                    {
                        "number": 64,
                        "time": 53.256590858333354,
                        "value": 1
                    },
                    {
                        "number": 64,
                        "time": 53.49013600000002,
                        "value": 0
                    },
                    {
                        "number": 64,
                        "time": 53.52747951250002,
                        "value": 1
                    },
                    {
                        "number": 64,
                        "time": 54.34725852500002,
                        "value": 0
                    },
                    {
                        "number": 64,
                        "time": 54.37393246250002,
                        "value": 1
                    },
                    {
                        "number": 64,
                        "time": 54.628224000000024,
                        "value": 0
                    },
                    {
                        "number": 64,
                        "time": 55.50253639583336,
                        "value": 1
                    },
                    {
                        "number": 64,
                        "time": 55.77461055833336,
                        "value": 0
                    },
                    {
                        "number": 64,
                        "time": 55.79535695416669,
                        "value": 1
                    },
                    {
                        "number": 64,
                        "time": 56.335356000000026,
                        "value": 0
                    },
                    {
                        "number": 64,
                        "time": 56.36440095416669,
                        "value": 1
                    },
                    {
                        "number": 64,
                        "time": 56.62402727916669,
                        "value": 0
                    },
                    {
                        "number": 64,
                        "time": 56.644773675000025,
                        "value": 1
                    },
                    {
                        "number": 64,
                        "time": 56.90558550833336,
                        "value": 0
                    },
                    {
                        "number": 64,
                        "time": 56.93759423333336,
                        "value": 1
                    },
                    {
                        "number": 64,
                        "time": 57.475222262500026,
                        "value": 0
                    },
                    {
                        "number": 64,
                        "time": 57.502488954166694,
                        "value": 1
                    },
                    {
                        "number": 64,
                        "time": 57.768635575000026,
                        "value": 0
                    },
                    {
                        "number": 64,
                        "time": 57.81249938333336,
                        "value": 1
                    },
                    {
                        "number": 64,
                        "time": 58.04248800000003,
                        "value": 0
                    },
                    {
                        "number": 64,
                        "time": 58.04367350833336,
                        "value": 0
                    },
                    {
                        "number": 64,
                        "time": 58.07568223333336,
                        "value": 1
                    },
                    {
                        "number": 64,
                        "time": 58.33827232916669,
                        "value": 0
                    },
                    {
                        "number": 64,
                        "time": 58.35131292083336,
                        "value": 1
                    },
                    {
                        "number": 64,
                        "time": 58.616274033333355,
                        "value": 0
                    },
                    {
                        "number": 64,
                        "time": 58.64057695416669,
                        "value": 1
                    },
                    {
                        "number": 64,
                        "time": 58.908501837500026,
                        "value": 0
                    },
                    {
                        "number": 64,
                        "time": 58.95058738333336,
                        "value": 1
                    },
                    {
                        "number": 64,
                        "time": 59.18057600000002,
                        "value": 0
                    },
                    {
                        "number": 64,
                        "time": 59.18057600000002,
                        "value": 0
                    },
                    {
                        "number": 64,
                        "time": 59.213770233333356,
                        "value": 1
                    },
                    {
                        "number": 64,
                        "time": 59.47636032916669,
                        "value": 0
                    },
                    {
                        "number": 64,
                        "time": 59.489400920833354,
                        "value": 1
                    },
                    {
                        "number": 64,
                        "time": 59.741321441666685,
                        "value": 0
                    },
                    {
                        "number": 64,
                        "time": 59.778664954166686,
                        "value": 1
                    },
                    {
                        "number": 64,
                        "time": 60.04658983750002,
                        "value": 0
                    },
                    {
                        "number": 64,
                        "time": 60.08867538333335,
                        "value": 1
                    },
                    {
                        "number": 64,
                        "time": 60.31866400000002,
                        "value": 0
                    },
                    {
                        "number": 64,
                        "time": 60.350079970833356,
                        "value": 1
                    },
                    {
                        "number": 64,
                        "time": 60.89659931250002,
                        "value": 0
                    },
                    {
                        "number": 64,
                        "time": 60.919123970833354,
                        "value": 1
                    },
                    {
                        "number": 64,
                        "time": 61.18052855833336,
                        "value": 0
                    },
                    {
                        "number": 64,
                        "time": 61.207795250000025,
                        "value": 1
                    },
                    {
                        "number": 64,
                        "time": 61.45675200000002,
                        "value": 0
                    },
                    {
                        "number": 64,
                        "time": 61.46505055833336,
                        "value": 0
                    },
                    {
                        "number": 64,
                        "time": 61.485796954166695,
                        "value": 1
                    },
                    {
                        "number": 64,
                        "time": 62.02579600000003,
                        "value": 0
                    },
                    {
                        "number": 64,
                        "time": 62.05484095416669,
                        "value": 1
                    },
                    {
                        "number": 64,
                        "time": 62.31506003333336,
                        "value": 0
                    },
                    {
                        "number": 64,
                        "time": 62.33521367500003,
                        "value": 1
                    },
                    {
                        "number": 64,
                        "time": 62.594840000000026,
                        "value": 0
                    },
                    {
                        "number": 64,
                        "time": 62.62803423333336,
                        "value": 1
                    },
                    {
                        "number": 64,
                        "time": 63.155585441666695,
                        "value": 0
                    },
                    {
                        "number": 64,
                        "time": 63.192928954166696,
                        "value": 1
                    },
                    {
                        "number": 64,
                        "time": 63.46500311666669,
                        "value": 0
                    },
                    {
                        "number": 64,
                        "time": 63.50293938333336,
                        "value": 1
                    },
                    {
                        "number": 64,
                        "time": 63.73292800000003,
                        "value": 0
                    },
                    {
                        "number": 64,
                        "time": 63.73292800000003,
                        "value": 0
                    },
                    {
                        "number": 64,
                        "time": 63.76612223333336,
                        "value": 1
                    },
                    {
                        "number": 64,
                        "time": 64.0287123291667,
                        "value": 0
                    },
                    {
                        "number": 64,
                        "time": 64.04175292083336,
                        "value": 1
                    },
                    {
                        "number": 64,
                        "time": 64.30849229583336,
                        "value": 0
                    },
                    {
                        "number": 64,
                        "time": 64.3310169541667,
                        "value": 1
                    },
                    {
                        "number": 64,
                        "time": 64.59894183750004,
                        "value": 0
                    },
                    {
                        "number": 64,
                        "time": 64.64102738333337,
                        "value": 1
                    },
                    {
                        "number": 64,
                        "time": 64.87101600000003,
                        "value": 0
                    },
                    {
                        "number": 64,
                        "time": 64.87220150833336,
                        "value": 0
                    },
                    {
                        "number": 64,
                        "time": 64.90421023333336,
                        "value": 1
                    },
                    {
                        "number": 64,
                        "time": 65.16680032916669,
                        "value": 0
                    },
                    {
                        "number": 64,
                        "time": 65.17984092083336,
                        "value": 1
                    },
                    {
                        "number": 64,
                        "time": 65.44420927916669,
                        "value": 0
                    },
                    {
                        "number": 64,
                        "time": 65.46910495416668,
                        "value": 1
                    },
                    {
                        "number": 64,
                        "time": 65.73702983750002,
                        "value": 0
                    },
                    {
                        "number": 64,
                        "time": 65.77911538333335,
                        "value": 1
                    },
                    {
                        "number": 64,
                        "time": 66.00910400000001,
                        "value": 0
                    },
                    {
                        "number": 64,
                        "time": 66.04051997083334,
                        "value": 1
                    },
                    {
                        "number": 64,
                        "time": 66.58881757500001,
                        "value": 0
                    },
                    {
                        "number": 64,
                        "time": 66.61964079166667,
                        "value": 1
                    },
                    {
                        "number": 64,
                        "time": 66.87096855833333,
                        "value": 0
                    },
                    {
                        "number": 64,
                        "time": 66.89823525,
                        "value": 1
                    },
                    {
                        "number": 64,
                        "time": 67.147192,
                        "value": 0
                    },
                    {
                        "number": 64,
                        "time": 67.16734564166667,
                        "value": 1
                    },
                    {
                        "number": 64,
                        "time": 67.72453455833333,
                        "value": 0
                    },
                    {
                        "number": 64,
                        "time": 67.77373315416666,
                        "value": 1
                    },
                    {
                        "number": 64,
                        "time": 68.00075799999999,
                        "value": 0
                    },
                    {
                        "number": 64,
                        "time": 68.02802469166666,
                        "value": 1
                    },
                    {
                        "number": 64,
                        "time": 68.28527999999999,
                        "value": 0
                    },
                    {
                        "number": 64,
                        "time": 68.30543364166665,
                        "value": 1
                    },
                    {
                        "number": 64,
                        "time": 68.86262255833331,
                        "value": 0
                    },
                    {
                        "number": 64,
                        "time": 68.91182115416665,
                        "value": 1
                    },
                    {
                        "number": 64,
                        "time": 69.13884599999997,
                        "value": 0
                    },
                    {
                        "number": 64,
                        "time": 69.16611269166664,
                        "value": 1
                    },
                    {
                        "number": 64,
                        "time": 69.4245535083333,
                        "value": 0
                    },
                    {
                        "number": 64,
                        "time": 69.44707816666664,
                        "value": 1
                    },
                    {
                        "number": 64,
                        "time": 69.71322478749998,
                        "value": 0
                    },
                    {
                        "number": 64,
                        "time": 69.72804364166664,
                        "value": 1
                    },
                    {
                        "number": 64,
                        "time": 69.99300475416665,
                        "value": 0
                    },
                    {
                        "number": 64,
                        "time": 70.00604534583331,
                        "value": 1
                    },
                    {
                        "number": 64,
                        "time": 70.28049052499998,
                        "value": 0
                    },
                    {
                        "number": 64,
                        "time": 70.30064416666664,
                        "value": 1
                    },
                    {
                        "number": 64,
                        "time": 70.56145599999998,
                        "value": 0
                    },
                    {
                        "number": 64,
                        "time": 70.58872269166665,
                        "value": 1
                    },
                    {
                        "number": 64,
                        "time": 70.85131278749998,
                        "value": 0
                    },
                    {
                        "number": 64,
                        "time": 70.88628528333331,
                        "value": 1
                    },
                    {
                        "number": 64,
                        "time": 71.13642754166663,
                        "value": 0
                    },
                    {
                        "number": 64,
                        "time": 71.1672507583333,
                        "value": 1
                    },
                    {
                        "number": 64,
                        "time": 71.42035678749997,
                        "value": 0
                    },
                    {
                        "number": 64,
                        "time": 71.44999449583331,
                        "value": 1
                    },
                    {
                        "number": 64,
                        "time": 71.69954399999997,
                        "value": 0
                    },
                    {
                        "number": 64,
                        "time": 71.70072950833331,
                        "value": 0
                    },
                    {
                        "number": 64,
                        "time": 71.71969764166664,
                        "value": 1
                    },
                    {
                        "number": 64,
                        "time": 72.28281409999998,
                        "value": 0
                    },
                    {
                        "number": 64,
                        "time": 72.32608515416665,
                        "value": 1
                    },
                    {
                        "number": 64,
                        "time": 72.55310999999998,
                        "value": 0
                    },
                    {
                        "number": 64,
                        "time": 72.58037669166664,
                        "value": 1
                    },
                    {
                        "number": 64,
                        "time": 72.83763199999997,
                        "value": 0
                    },
                    {
                        "number": 64,
                        "time": 72.85778564166664,
                        "value": 1
                    },
                    {
                        "number": 64,
                        "time": 73.4149745583333,
                        "value": 0
                    },
                    {
                        "number": 64,
                        "time": 73.46417315416663,
                        "value": 1
                    },
                    {
                        "number": 64,
                        "time": 73.69119799999996,
                        "value": 0
                    },
                    {
                        "number": 64,
                        "time": 73.71846469166663,
                        "value": 1
                    },
                    {
                        "number": 64,
                        "time": 73.97749826249996,
                        "value": 0
                    },
                    {
                        "number": 64,
                        "time": 73.99943016666663,
                        "value": 1
                    },
                    {
                        "number": 64,
                        "time": 74.26557678749997,
                        "value": 0
                    },
                    {
                        "number": 64,
                        "time": 74.28039564166663,
                        "value": 1
                    },
                    {
                        "number": 64,
                        "time": 74.55069154166662,
                        "value": 0
                    },
                    {
                        "number": 64,
                        "time": 74.57855098749995,
                        "value": 1
                    },
                    {
                        "number": 64,
                        "time": 74.83284252499995,
                        "value": 0
                    },
                    {
                        "number": 64,
                        "time": 74.85299616666661,
                        "value": 1
                    },
                    {
                        "number": 64,
                        "time": 75.11380799999995,
                        "value": 0
                    },
                    {
                        "number": 64,
                        "time": 75.14107469166662,
                        "value": 1
                    },
                    {
                        "number": 64,
                        "time": 75.40425754166662,
                        "value": 0
                    },
                    {
                        "number": 64,
                        "time": 75.44278656249996,
                        "value": 1
                    },
                    {
                        "number": 64,
                        "time": 75.6875940333333,
                        "value": 0
                    },
                    {
                        "number": 64,
                        "time": 75.72019551249997,
                        "value": 1
                    },
                    {
                        "number": 64,
                        "time": 75.97270878749997,
                        "value": 0
                    },
                    {
                        "number": 64,
                        "time": 76.01183056249997,
                        "value": 1
                    },
                    {
                        "number": 64,
                        "time": 76.25189599999996,
                        "value": 0
                    },
                    {
                        "number": 64,
                        "time": 76.27204964166663,
                        "value": 1
                    },
                    {
                        "number": 64,
                        "time": 76.82923855833329,
                        "value": 0
                    },
                    {
                        "number": 64,
                        "time": 76.87843715416662,
                        "value": 1
                    },
                    {
                        "number": 64,
                        "time": 77.10664750833328,
                        "value": 0
                    },
                    {
                        "number": 64,
                        "time": 77.13272869166661,
                        "value": 1
                    },
                    {
                        "number": 64,
                        "time": 77.38998399999994,
                        "value": 0
                    },
                    {
                        "number": 64,
                        "time": 77.41013764166661,
                        "value": 1
                    },
                    {
                        "number": 64,
                        "time": 77.67450599999994,
                        "value": 0
                    },
                    {
                        "number": 64,
                        "time": 77.68636108333327,
                        "value": 1
                    },
                    {
                        "number": 64,
                        "time": 77.96732655833327,
                        "value": 0
                    },
                    {
                        "number": 64,
                        "time": 78.0165251541666,
                        "value": 1
                    },
                    {
                        "number": 64,
                        "time": 78.25421957499994,
                        "value": 0
                    },
                    {
                        "number": 64,
                        "time": 78.27081669166661,
                        "value": 1
                    },
                    {
                        "number": 64,
                        "time": 78.52807199999994,
                        "value": 0
                    },
                    {
                        "number": 64,
                        "time": 78.57904885833327,
                        "value": 1
                    },
                    {
                        "number": 64,
                        "time": 79.10541455833327,
                        "value": 0
                    },
                    {
                        "number": 64,
                        "time": 79.1546131541666,
                        "value": 1
                    },
                    {
                        "number": 64,
                        "time": 79.38163799999992,
                        "value": 0
                    },
                    {
                        "number": 64,
                        "time": 79.40890469166659,
                        "value": 1
                    },
                    {
                        "number": 64,
                        "time": 79.66615999999992,
                        "value": 0
                    },
                    {
                        "number": 64,
                        "time": 79.72484266249992,
                        "value": 1
                    },
                    {
                        "number": 64,
                        "time": 80.24587357499992,
                        "value": 0
                    },
                    {
                        "number": 64,
                        "time": 80.28558810416659,
                        "value": 1
                    },
                    {
                        "number": 64,
                        "time": 80.53217383749993,
                        "value": 0
                    },
                    {
                        "number": 64,
                        "time": 80.56181154583327,
                        "value": 1
                    },
                    {
                        "number": 64,
                        "time": 80.8066190166666,
                        "value": 0
                    },
                    {
                        "number": 64,
                        "time": 80.8421842666666,
                        "value": 1
                    },
                    {
                        "number": 64,
                        "time": 81.09884682083327,
                        "value": 0
                    },
                    {
                        "number": 64,
                        "time": 81.12967003749993,
                        "value": 1
                    },
                    {
                        "number": 64,
                        "time": 81.38040504999994,
                        "value": 0
                    },
                    {
                        "number": 64,
                        "time": 81.41419203749993,
                        "value": 1
                    },
                    {
                        "number": 64,
                        "time": 81.65781399999993,
                        "value": 0
                    },
                    {
                        "number": 64,
                        "time": 81.6957502666666,
                        "value": 1
                    },
                    {
                        "number": 64,
                        "time": 81.94233599999993,
                        "value": 0
                    },
                    {
                        "number": 64,
                        "time": 81.97612298749992,
                        "value": 1
                    },
                    {
                        "number": 64,
                        "time": 83.65539554166659,
                        "value": 0
                    },
                    {
                        "number": 64,
                        "time": 83.67317816666659,
                        "value": 1
                    },
                    {
                        "number": 64,
                        "time": 84.22029026249992,
                        "value": 0
                    },
                    {
                        "number": 64,
                        "time": 84.25941203749991,
                        "value": 1
                    },
                    {
                        "number": 64,
                        "time": 84.79585455833325,
                        "value": 0
                    },
                    {
                        "number": 64,
                        "time": 84.84505315416658,
                        "value": 1
                    },
                    {
                        "number": 64,
                        "time": 85.0720779999999,
                        "value": 0
                    },
                    {
                        "number": 64,
                        "time": 85.08393308333324,
                        "value": 1
                    },
                    {
                        "number": 64,
                        "time": 85.3565999999999,
                        "value": 0
                    },
                    {
                        "number": 64,
                        "time": 85.42358122083323,
                        "value": 1
                    },
                    {
                        "number": 64,
                        "time": 85.93394255833323,
                        "value": 0
                    },
                    {
                        "number": 64,
                        "time": 85.98314115416656,
                        "value": 1
                    },
                    {
                        "number": 64,
                        "time": 86.21016599999989,
                        "value": 0
                    },
                    {
                        "number": 64,
                        "time": 86.23743269166656,
                        "value": 1
                    },
                    {
                        "number": 64,
                        "time": 86.49468799999988,
                        "value": 0
                    },
                    {
                        "number": 64,
                        "time": 86.53558803749988,
                        "value": 1
                    },
                    {
                        "number": 64,
                        "time": 87.07203055833321,
                        "value": 0
                    },
                    {
                        "number": 64,
                        "time": 87.12122915416654,
                        "value": 1
                    },
                    {
                        "number": 64,
                        "time": 87.34825399999987,
                        "value": 0
                    },
                    {
                        "number": 64,
                        "time": 87.3601090833332,
                        "value": 1
                    },
                    {
                        "number": 64,
                        "time": 87.63455426249986,
                        "value": 0
                    },
                    {
                        "number": 64,
                        "time": 87.67071226666653,
                        "value": 1
                    },
                    {
                        "number": 64,
                        "time": 88.21011855833319,
                        "value": 0
                    },
                    {
                        "number": 64,
                        "time": 88.25931715416652,
                        "value": 1
                    },
                    {
                        "number": 64,
                        "time": 88.48634199999985,
                        "value": 0
                    },
                    {
                        "number": 64,
                        "time": 88.53316957916651,
                        "value": 1
                    },
                    {
                        "number": 64,
                        "time": 88.77086399999985,
                        "value": 0
                    },
                    {
                        "number": 64,
                        "time": 88.81413505416651,
                        "value": 1
                    },
                    {
                        "number": 64,
                        "time": 89.05538599999984,
                        "value": 0
                    },
                    {
                        "number": 64,
                        "time": 89.10280633333318,
                        "value": 1
                    },
                    {
                        "number": 64,
                        "time": 89.33990799999984,
                        "value": 0
                    },
                    {
                        "number": 64,
                        "time": 89.3778442666665,
                        "value": 1
                    },
                    {
                        "number": 64,
                        "time": 89.62442999999983,
                        "value": 0
                    },
                    {
                        "number": 64,
                        "time": 89.66888656249984,
                        "value": 1
                    },
                    {
                        "number": 64,
                        "time": 89.90895199999983,
                        "value": 0
                    },
                    {
                        "number": 64,
                        "time": 90.05121299999983,
                        "value": 1
                    },
                    {
                        "number": 64,
                        "time": 90.49044383749984,
                        "value": 0
                    },
                    {
                        "number": 64,
                        "time": 90.51889603749984,
                        "value": 1
                    },
                    {
                        "number": 64,
                        "time": 91.04703999999984,
                        "value": 0
                    },
                    {
                        "number": 64,
                        "time": 91.08260524999984,
                        "value": 1
                    },
                    {
                        "number": 64,
                        "time": 91.19167201666652,
                        "value": 0
                    },
                    {
                        "number": 64,
                        "time": 92.18512799999985,
                        "value": 0
                    },
                    {
                        "number": 64,
                        "time": 92.22069324999985,
                        "value": 1
                    },
                    {
                        "number": 64,
                        "time": 92.32976001666653,
                        "value": 0
                    },
                    {
                        "number": 64,
                        "time": 93.32321599999986,
                        "value": 0
                    },
                    {
                        "number": 64,
                        "time": 93.35878124999986,
                        "value": 1
                    },
                    {
                        "number": 64,
                        "time": 93.46784801666654,
                        "value": 0
                    },
                    {
                        "number": 64,
                        "time": 94.4678242958332,
                        "value": 1
                    },
                    {
                        "number": 64,
                        "time": 94.6580983833332,
                        "value": 0
                    },
                    {
                        "number": 64,
                        "time": 94.7647941333332,
                        "value": 1
                    },
                    {
                        "number": 64,
                        "time": 94.93610008749987,
                        "value": 0
                    },
                    {
                        "number": 64,
                        "time": 95.04516685416654,
                        "value": 1
                    },
                    {
                        "number": 64,
                        "time": 95.23721920416654,
                        "value": 0
                    },
                    {
                        "number": 64,
                        "time": 95.31724101666653,
                        "value": 1
                    },
                    {
                        "number": 64,
                        "time": 95.50751510416653,
                        "value": 0
                    },
                    {
                        "number": 64,
                        "time": 95.62665869166653,
                        "value": 1
                    },
                    {
                        "number": 64,
                        "time": 95.80626320416654,
                        "value": 0
                    },
                    {
                        "number": 64,
                        "time": 95.90288213333321,
                        "value": 1
                    },
                    {
                        "number": 64,
                        "time": 96.09730549999988,
                        "value": 0
                    },
                    {
                        "number": 64,
                        "time": 96.19866646249987,
                        "value": 1
                    },
                    {
                        "number": 64,
                        "time": 96.3776782208332,
                        "value": 0
                    },
                    {
                        "number": 64,
                        "time": 96.48674498749988,
                        "value": 1
                    },
                    {
                        "number": 64,
                        "time": 96.68946691249988,
                        "value": 0
                    },
                    {
                        "number": 64,
                        "time": 96.77482351249988,
                        "value": 1
                    },
                    {
                        "number": 64,
                        "time": 96.94672222083321,
                        "value": 0
                    },
                    {
                        "number": 64,
                        "time": 97.0409701333332,
                        "value": 1
                    },
                    {
                        "number": 64,
                        "time": 97.23539349999987,
                        "value": 0
                    },
                    {
                        "number": 64,
                        "time": 97.33675446249987,
                        "value": 1
                    },
                    {
                        "number": 64,
                        "time": 97.54481117499986,
                        "value": 0
                    },
                    {
                        "number": 64,
                        "time": 97.62483298749986,
                        "value": 1
                    },
                    {
                        "number": 64,
                        "time": 97.79791720416652,
                        "value": 0
                    },
                    {
                        "number": 64,
                        "time": 101.29635229583319,
                        "value": 1
                    },
                    {
                        "number": 64,
                        "time": 101.48662638333319,
                        "value": 0
                    },
                    {
                        "number": 64,
                        "time": 101.59332213333319,
                        "value": 1
                    },
                    {
                        "number": 64,
                        "time": 101.76462808749986,
                        "value": 0
                    },
                    {
                        "number": 64,
                        "time": 101.87369485416653,
                        "value": 1
                    },
                    {
                        "number": 64,
                        "time": 102.06574720416653,
                        "value": 0
                    },
                    {
                        "number": 64,
                        "time": 102.14576901666652,
                        "value": 1
                    },
                    {
                        "number": 64,
                        "time": 102.33604310416652,
                        "value": 0
                    },
                    {
                        "number": 64,
                        "time": 102.45518669166653,
                        "value": 1
                    },
                    {
                        "number": 64,
                        "time": 102.64131149999986,
                        "value": 0
                    },
                    {
                        "number": 64,
                        "time": 102.73141013333318,
                        "value": 1
                    },
                    {
                        "number": 64,
                        "time": 102.91101464583319,
                        "value": 0
                    },
                    {
                        "number": 64,
                        "time": 103.02719446249986,
                        "value": 1
                    },
                    {
                        "number": 64,
                        "time": 103.21450477916653,
                        "value": 0
                    },
                    {
                        "number": 64,
                        "time": 103.31527298749987,
                        "value": 1
                    },
                    {
                        "number": 64,
                        "time": 103.4925064833332,
                        "value": 0
                    },
                    {
                        "number": 64,
                        "time": 103.60335151249987,
                        "value": 1
                    },
                    {
                        "number": 64,
                        "time": 103.7770284833332,
                        "value": 0
                    },
                    {
                        "number": 64,
                        "time": 103.8694981333332,
                        "value": 1
                    },
                    {
                        "number": 64,
                        "time": 104.0597722208332,
                        "value": 0
                    },
                    {
                        "number": 64,
                        "time": 104.16528246249986,
                        "value": 1
                    },
                    {
                        "number": 64,
                        "time": 104.33777392499987,
                        "value": 0
                    },
                    {
                        "number": 64,
                        "time": 104.45336098749986,
                        "value": 1
                    },
                    {
                        "number": 64,
                        "time": 104.64956261666653,
                        "value": 0
                    },
                    {
                        "number": 64,
                        "time": 104.73136269166653,
                        "value": 1
                    },
                    {
                        "number": 64,
                        "time": 104.90681792499987,
                        "value": 0
                    },
                    {
                        "number": 64,
                        "time": 105.0075861333332,
                        "value": 1
                    },
                    {
                        "number": 64,
                        "time": 105.19548920416653,
                        "value": 0
                    },
                    {
                        "number": 64,
                        "time": 105.30337046249987,
                        "value": 1
                    },
                    {
                        "number": 64,
                        "time": 105.49068077916654,
                        "value": 0
                    },
                    {
                        "number": 64,
                        "time": 105.59144898749987,
                        "value": 1
                    },
                    {
                        "number": 64,
                        "time": 105.76275494166654,
                        "value": 0
                    },
                    {
                        "number": 64,
                        "time": 105.87952751249988,
                        "value": 1
                    },
                    {
                        "number": 64,
                        "time": 106.05557549999988,
                        "value": 0
                    },
                    {
                        "number": 64,
                        "time": 106.1456741333332,
                        "value": 1
                    },
                    {
                        "number": 64,
                        "time": 106.34246851666653,
                        "value": 0
                    },
                    {
                        "number": 64,
                        "time": 106.44145846249987,
                        "value": 1
                    },
                    {
                        "number": 64,
                        "time": 106.62876877916653,
                        "value": 0
                    },
                    {
                        "number": 64,
                        "time": 106.72953698749987,
                        "value": 1
                    },
                    {
                        "number": 64,
                        "time": 106.9067704833332,
                        "value": 0
                    },
                    {
                        "number": 64,
                        "time": 107.5611710833332,
                        "value": 0
                    },
                    {
                        "number": 64,
                        "time": 107.57954646249988,
                        "value": 1
                    },
                    {
                        "number": 64,
                        "time": 107.75855822083321,
                        "value": 0
                    },
                    {
                        "number": 64,
                        "time": 107.86762498749988,
                        "value": 1
                    },
                    {
                        "number": 64,
                        "time": 108.04485848333321,
                        "value": 0
                    },
                    {
                        "number": 64,
                        "time": 108.15570351249988,
                        "value": 1
                    },
                    {
                        "number": 64,
                        "time": 108.34419933749989,
                        "value": 0
                    },
                    {
                        "number": 64,
                        "time": 108.42185013333322,
                        "value": 1
                    },
                    {
                        "number": 64,
                        "time": 108.63287061666655,
                        "value": 0
                    },
                    {
                        "number": 64,
                        "time": 108.97192599999988,
                        "value": 0
                    },
                    {
                        "number": 64,
                        "time": 109.00571298749988,
                        "value": 1
                    },
                    {
                        "number": 64,
                        "time": 109.1936160583332,
                        "value": 0
                    },
                    {
                        "number": 64,
                        "time": 109.29379151249987,
                        "value": 1
                    },
                    {
                        "number": 64,
                        "time": 109.48465835416653,
                        "value": 0
                    },
                    {
                        "number": 64,
                        "time": 109.82549199999985,
                        "value": 0
                    },
                    {
                        "number": 64,
                        "time": 109.85927898749985,
                        "value": 1
                    },
                    {
                        "number": 64,
                        "time": 110.04125451666651,
                        "value": 0
                    },
                    {
                        "number": 64,
                        "time": 110.14735751249985,
                        "value": 1
                    },
                    {
                        "number": 64,
                        "time": 110.32340549999985,
                        "value": 0
                    },
                    {
                        "number": 64,
                        "time": 110.69565511666652,
                        "value": 1
                    },
                    {
                        "number": 64,
                        "time": 110.89896979583318,
                        "value": 0
                    },
                    {
                        "number": 64,
                        "time": 110.99262495416652,
                        "value": 1
                    },
                    {
                        "number": 64,
                        "time": 111.17697149999985,
                        "value": 0
                    },
                    {
                        "number": 64,
                        "time": 111.29018754583319,
                        "value": 1
                    },
                    {
                        "number": 64,
                        "time": 111.47216307499986,
                        "value": 0
                    },
                    {
                        "number": 64,
                        "time": 111.57352403749985,
                        "value": 1
                    },
                    {
                        "number": 64,
                        "time": 111.75016477916651,
                        "value": 0
                    },
                    {
                        "number": 64,
                        "time": 111.85093298749985,
                        "value": 1
                    },
                    {
                        "number": 64,
                        "time": 112.0346867791665,
                        "value": 0
                    },
                    {
                        "number": 64,
                        "time": 112.14553180833317,
                        "value": 1
                    },
                    {
                        "number": 64,
                        "time": 112.32335805833317,
                        "value": 0
                    },
                    {
                        "number": 64,
                        "time": 112.42709003749984,
                        "value": 1
                    },
                    {
                        "number": 64,
                        "time": 112.57646408749984,
                        "value": 0
                    },
                    {
                        "number": 64,
                        "time": 112.67071199999984,
                        "value": 1
                    },
                    {
                        "number": 64,
                        "time": 113.2510183291665,
                        "value": 0
                    },
                    {
                        "number": 64,
                        "time": 113.29428938333317,
                        "value": 1
                    },
                    {
                        "number": 64,
                        "time": 113.80879999999983,
                        "value": 0
                    },
                    {
                        "number": 64,
                        "time": 113.8467362666665,
                        "value": 1
                    },
                    {
                        "number": 64,
                        "time": 114.10399157499982,
                        "value": 0
                    },
                    {
                        "number": 64,
                        "time": 114.18934817499982,
                        "value": 1
                    },
                    {
                        "number": 64,
                        "time": 114.39029183749982,
                        "value": 0
                    },
                    {
                        "number": 64,
                        "time": 114.46557161666648,
                        "value": 1
                    },
                    {
                        "number": 64,
                        "time": 114.67066455833314,
                        "value": 0
                    },
                    {
                        "number": 64,
                        "time": 114.73349649999982,
                        "value": 1
                    },
                    {
                        "number": 64,
                        "time": 114.95815032916649,
                        "value": 0
                    },
                    {
                        "number": 64,
                        "time": 115.03046633749982,
                        "value": 1
                    },
                    {
                        "number": 64,
                        "time": 115.51178272083315,
                        "value": 0
                    },
                    {
                        "number": 64,
                        "time": 116.08497599999983,
                        "value": 0
                    },
                    {
                        "number": 64,
                        "time": 116.18337319166649,
                        "value": 1
                    },
                    {
                        "number": 64,
                        "time": 116.66528232916649,
                        "value": 0
                    },
                    {
                        "number": 64,
                        "time": 116.70855338333315,
                        "value": 1
                    },
                    {
                        "number": 64,
                        "time": 117.22306399999982,
                        "value": 0
                    },
                    {
                        "number": 64,
                        "time": 117.27285534999983,
                        "value": 1
                    },
                    {
                        "number": 64,
                        "time": 117.52418311666649,
                        "value": 0
                    },
                    {
                        "number": 64,
                        "time": 117.60361217499982,
                        "value": 1
                    },
                    {
                        "number": 64,
                        "time": 117.80396308333316,
                        "value": 0
                    },
                    {
                        "number": 64,
                        "time": 117.8798356166665,
                        "value": 1
                    },
                    {
                        "number": 64,
                        "time": 118.09085609999983,
                        "value": 0
                    },
                    {
                        "number": 64,
                        "time": 118.66227111666649,
                        "value": 0
                    },
                    {
                        "number": 64,
                        "time": 118.74170017499982,
                        "value": 1
                    },
                    {
                        "number": 64,
                        "time": 118.94264383749982,
                        "value": 0
                    },
                    {
                        "number": 64,
                        "time": 119.01792361666648,
                        "value": 1
                    },
                    {
                        "number": 64,
                        "time": 119.22894409999981,
                        "value": 0
                    },
                    {
                        "number": 64,
                        "time": 119.83414610416648,
                        "value": 1
                    },
                    {
                        "number": 64,
                        "time": 120.08073183749981,
                        "value": 0
                    },
                    {
                        "number": 64,
                        "time": 120.66637295416648,
                        "value": 0
                    },
                    {
                        "number": 64,
                        "time": 120.72090633749981,
                        "value": 1
                    },
                    {
                        "number": 64,
                        "time": 121.20222272083315,
                        "value": 0
                    },
                    {
                        "number": 64,
                        "time": 122.91350399999982,
                        "value": 1
                    },
                    {
                        "number": 64,
                        "time": 124.06285432916648,
                        "value": 0
                    },
                    {
                        "number": 64,
                        "time": 124.13517033749982,
                        "value": 1
                    },
                    {
                        "number": 64,
                        "time": 124.62597078749981,
                        "value": 0
                    },
                    {
                        "number": 64,
                        "time": 125.28452066666648,
                        "value": 1
                    },
                    {
                        "number": 64,
                        "time": 125.99582566666648,
                        "value": 0
                    },
                    {
                        "number": 64,
                        "time": 126.35681295416647,
                        "value": 0
                    },
                    {
                        "number": 64,
                        "time": 126.41134633749981,
                        "value": 1
                    },
                    {
                        "number": 64,
                        "time": 126.90155403333314,
                        "value": 0
                    },
                    {
                        "number": 64,
                        "time": 127.47652557499981,
                        "value": 1
                    },
                    {
                        "number": 64,
                        "time": 128.01178258749982,
                        "value": 0
                    },
                    {
                        "number": 64,
                        "time": 130.9091649541665,
                        "value": 0
                    },
                    {
                        "number": 64,
                        "time": 130.96369833749984,
                        "value": 1
                    },
                    {
                        "number": 64,
                        "time": 131.4533132791665,
                        "value": 0
                    },
                    {
                        "number": 64,
                        "time": 132.11304866666651,
                        "value": 1
                    },
                    {
                        "number": 64,
                        "time": 132.82435366666652,
                        "value": 0
                    },
                    {
                        "number": 64,
                        "time": 134.95826866666653,
                        "value": 1
                    },
                    {
                        "number": 64,
                        "time": 135.43247199999985,
                        "value": 0
                    },
                    {
                        "number": 64,
                        "time": 137.23444466666652,
                        "value": 1
                    },
                    {
                        "number": 64,
                        "time": 137.70864799999984,
                        "value": 0
                    },
                    {
                        "number": 64,
                        "time": 140.27705180416652,
                        "value": 1
                    },
                    {
                        "number": 64,
                        "time": 140.67360434166653,
                        "value": 0
                    },
                    {
                        "number": 64,
                        "time": 142.26099999999985,
                        "value": 0
                    },
                    {
                        "number": 64,
                        "time": 143.1228645583332,
                        "value": 1
                    },
                    {
                        "number": 64,
                        "time": 143.39908799999986,
                        "value": 0
                    },
                    {
                        "number": 64,
                        "time": 143.44947210416652,
                        "value": 1
                    },
                    {
                        "number": 64,
                        "time": 143.68360999999985,
                        "value": 0
                    },
                    {
                        "number": 64,
                        "time": 143.7339941041665,
                        "value": 1
                    },
                    {
                        "number": 64,
                        "time": 143.99302767499984,
                        "value": 0
                    },
                    {
                        "number": 64,
                        "time": 144.06000889583316,
                        "value": 1
                    },
                    {
                        "number": 64,
                        "time": 144.2692511166665,
                        "value": 0
                    },
                    {
                        "number": 64,
                        "time": 144.33623233749984,
                        "value": 1
                    },
                    {
                        "number": 64,
                        "time": 144.53717599999985,
                        "value": 0
                    },
                    {
                        "number": 64,
                        "time": 144.5982296791665,
                        "value": 1
                    },
                    {
                        "number": 64,
                        "time": 144.69188483749983,
                        "value": 0
                    },
                    {
                        "number": 64,
                        "time": 144.73811966249983,
                        "value": 1
                    },
                    {
                        "number": 64,
                        "time": 145.3948912791665,
                        "value": 0
                    },
                    {
                        "number": 64,
                        "time": 145.43816233333317,
                        "value": 1
                    },
                    {
                        "number": 64,
                        "time": 145.67526399999983,
                        "value": 0
                    },
                    {
                        "number": 64,
                        "time": 145.7505437791665,
                        "value": 1
                    },
                    {
                        "number": 64,
                        "time": 146.53712855833317,
                        "value": 0
                    },
                    {
                        "number": 64,
                        "time": 146.59581122083316,
                        "value": 1
                    },
                    {
                        "number": 64,
                        "time": 146.8133519999998,
                        "value": 0
                    },
                    {
                        "number": 64,
                        "time": 146.88863177916647,
                        "value": 1
                    },
                    {
                        "number": 64,
                        "time": 147.1103218374998,
                        "value": 0
                    },
                    {
                        "number": 64,
                        "time": 147.18975089583316,
                        "value": 1
                    },
                    {
                        "number": 64,
                        "time": 147.3918800666665,
                        "value": 0
                    },
                    {
                        "number": 64,
                        "time": 147.50805988333315,
                        "value": 1
                    },
                    {
                        "number": 64,
                        "time": 147.67403104999983,
                        "value": 0
                    },
                    {
                        "number": 64,
                        "time": 147.72560066249983,
                        "value": 1
                    },
                    {
                        "number": 64,
                        "time": 147.95143999999982,
                        "value": 0
                    },
                    {
                        "number": 64,
                        "time": 148.0190139749998,
                        "value": 1
                    },
                    {
                        "number": 64,
                        "time": 148.80500599999982,
                        "value": 0
                    },
                    {
                        "number": 64,
                        "time": 148.8725799749998,
                        "value": 1
                    },
                    {
                        "number": 64,
                        "time": 149.0895279999998,
                        "value": 0
                    },
                    {
                        "number": 64,
                        "time": 149.15650922083313,
                        "value": 1
                    },
                    {
                        "number": 64,
                        "time": 149.38827609999979,
                        "value": 0
                    },
                    {
                        "number": 64,
                        "time": 149.44932977916645,
                        "value": 1
                    },
                    {
                        "number": 64,
                        "time": 149.67101983749978,
                        "value": 0
                    },
                    {
                        "number": 64,
                        "time": 149.75874745416644,
                        "value": 1
                    },
                    {
                        "number": 64,
                        "time": 149.94842878749978,
                        "value": 0
                    },
                    {
                        "number": 64,
                        "time": 149.99347810416646,
                        "value": 1
                    },
                    {
                        "number": 64,
                        "time": 150.23650731249978,
                        "value": 0
                    },
                    {
                        "number": 64,
                        "time": 150.31119433749978,
                        "value": 1
                    },
                    {
                        "number": 64,
                        "time": 150.80555131249977,
                        "value": 0
                    },
                    {
                        "number": 64,
                        "time": 153.36565655833311,
                        "value": 1
                    },
                    {
                        "number": 64,
                        "time": 153.6418799999998,
                        "value": 0
                    },
                    {
                        "number": 64,
                        "time": 153.69226410416644,
                        "value": 1
                    },
                    {
                        "number": 64,
                        "time": 153.92640199999977,
                        "value": 0
                    },
                    {
                        "number": 64,
                        "time": 153.97678610416642,
                        "value": 1
                    },
                    {
                        "number": 64,
                        "time": 154.21803704999977,
                        "value": 0
                    },
                    {
                        "number": 64,
                        "time": 154.3028008958331,
                        "value": 1
                    },
                    {
                        "number": 64,
                        "time": 154.5090793458331,
                        "value": 0
                    },
                    {
                        "number": 64,
                        "time": 154.57902433749976,
                        "value": 1
                    },
                    {
                        "number": 64,
                        "time": 154.77996799999977,
                        "value": 0
                    },
                    {
                        "number": 64,
                        "time": 154.84102167916643,
                        "value": 1
                    },
                    {
                        "number": 64,
                        "time": 154.92993480416644,
                        "value": 0
                    },
                    {
                        "number": 64,
                        "time": 154.98921022083312,
                        "value": 1
                    },
                    {
                        "number": 64,
                        "time": 155.63768327916645,
                        "value": 0
                    },
                    {
                        "number": 64,
                        "time": 155.68095433333312,
                        "value": 1
                    },
                    {
                        "number": 64,
                        "time": 155.91805599999978,
                        "value": 0
                    },
                    {
                        "number": 64,
                        "time": 155.99333577916644,
                        "value": 1
                    },
                    {
                        "number": 64,
                        "time": 156.77992055833312,
                        "value": 0
                    },
                    {
                        "number": 64,
                        "time": 156.8386032208331,
                        "value": 1
                    },
                    {
                        "number": 64,
                        "time": 157.0573295083331,
                        "value": 0
                    },
                    {
                        "number": 64,
                        "time": 157.13142377916645,
                        "value": 1
                    },
                    {
                        "number": 64,
                        "time": 157.3531138374998,
                        "value": 0
                    },
                    {
                        "number": 64,
                        "time": 157.43254289583314,
                        "value": 1
                    },
                    {
                        "number": 64,
                        "time": 157.65838223333313,
                        "value": 0
                    },
                    {
                        "number": 64,
                        "time": 157.75085188333313,
                        "value": 1
                    },
                    {
                        "number": 64,
                        "time": 157.92275059166647,
                        "value": 0
                    },
                    {
                        "number": 64,
                        "time": 157.9683926624998,
                        "value": 1
                    },
                    {
                        "number": 64,
                        "time": 158.1942319999998,
                        "value": 0
                    },
                    {
                        "number": 64,
                        "time": 158.2618059749998,
                        "value": 1
                    },
                    {
                        "number": 64,
                        "time": 159.0477979999998,
                        "value": 0
                    },
                    {
                        "number": 64,
                        "time": 159.1153719749998,
                        "value": 1
                    },
                    {
                        "number": 64,
                        "time": 159.33231999999978,
                        "value": 0
                    },
                    {
                        "number": 64,
                        "time": 159.40759977916645,
                        "value": 1
                    },
                    {
                        "number": 64,
                        "time": 159.62928983749978,
                        "value": 0
                    },
                    {
                        "number": 64,
                        "time": 159.70871889583313,
                        "value": 1
                    },
                    {
                        "number": 64,
                        "time": 159.91084806666646,
                        "value": 0
                    },
                    {
                        "number": 64,
                        "time": 160.02702788333312,
                        "value": 1
                    },
                    {
                        "number": 64,
                        "time": 160.19892659166646,
                        "value": 0
                    },
                    {
                        "number": 64,
                        "time": 160.2445686624998,
                        "value": 1
                    },
                    {
                        "number": 64,
                        "time": 160.4704079999998,
                        "value": 0
                    },
                    {
                        "number": 64,
                        "time": 160.53798197499978,
                        "value": 1
                    },
                    {
                        "number": 64,
                        "time": 161.3239739999998,
                        "value": 0
                    },
                    {
                        "number": 64,
                        "time": 161.39154797499978,
                        "value": 1
                    },
                    {
                        "number": 64,
                        "time": 161.60849599999977,
                        "value": 0
                    },
                    {
                        "number": 64,
                        "time": 161.68377577916644,
                        "value": 1
                    },
                    {
                        "number": 64,
                        "time": 161.90546583749978,
                        "value": 0
                    },
                    {
                        "number": 64,
                        "time": 161.98489489583312,
                        "value": 1
                    },
                    {
                        "number": 64,
                        "time": 162.18702406666645,
                        "value": 0
                    },
                    {
                        "number": 64,
                        "time": 162.3032038833331,
                        "value": 1
                    },
                    {
                        "number": 64,
                        "time": 162.47510259166646,
                        "value": 0
                    },
                    {
                        "number": 64,
                        "time": 162.5207446624998,
                        "value": 1
                    },
                    {
                        "number": 64,
                        "time": 162.74658399999979,
                        "value": 0
                    },
                    {
                        "number": 64,
                        "time": 162.81415797499977,
                        "value": 1
                    },
                    {
                        "number": 64,
                        "time": 163.31562799999978,
                        "value": 0
                    },
                    {
                        "number": 64,
                        "time": 164.7518713458331,
                        "value": 1
                    },
                    {
                        "number": 64,
                        "time": 165.0292802958331,
                        "value": 0
                    },
                    {
                        "number": 64,
                        "time": 165.04291364166644,
                        "value": 1
                    },
                    {
                        "number": 64,
                        "time": 165.3215080999998,
                        "value": 0
                    },
                    {
                        "number": 64,
                        "time": 165.34818203749978,
                        "value": 1
                    },
                    {
                        "number": 64,
                        "time": 165.60188082083312,
                        "value": 0
                    },
                    {
                        "number": 64,
                        "time": 165.62914751249977,
                        "value": 1
                    },
                    {
                        "number": 64,
                        "time": 165.8792897708331,
                        "value": 0
                    },
                    {
                        "number": 64,
                        "time": 165.90003616666644,
                        "value": 1
                    },
                    {
                        "number": 64,
                        "time": 166.16084799999976,
                        "value": 0
                    },
                    {
                        "number": 64,
                        "time": 166.1881146916664,
                        "value": 1
                    },
                    {
                        "number": 64,
                        "time": 167.0256763291664,
                        "value": 0
                    },
                    {
                        "number": 64,
                        "time": 167.0754676791664,
                        "value": 1
                    },
                    {
                        "number": 64,
                        "time": 167.2989359999997,
                        "value": 0
                    },
                    {
                        "number": 64,
                        "time": 167.32264616666637,
                        "value": 1
                    },
                    {
                        "number": 64,
                        "time": 168.1560585249997,
                        "value": 0
                    },
                    {
                        "number": 64,
                        "time": 168.17976869166637,
                        "value": 1
                    },
                    {
                        "number": 64,
                        "time": 168.43820950833305,
                        "value": 0
                    },
                    {
                        "number": 64,
                        "time": 168.4672544624997,
                        "value": 1
                    },
                    {
                        "number": 64,
                        "time": 169.3048160999997,
                        "value": 0
                    },
                    {
                        "number": 64,
                        "time": 169.3617204999997,
                        "value": 1
                    },
                    {
                        "number": 64,
                        "time": 169.5751119999997,
                        "value": 0
                    },
                    {
                        "number": 64,
                        "time": 169.6124555124997,
                        "value": 1
                    },
                    {
                        "number": 64,
                        "time": 170.14771252499972,
                        "value": 0
                    },
                    {
                        "number": 64,
                        "time": 170.18149951249973,
                        "value": 1
                    },
                    {
                        "number": 64,
                        "time": 170.71319999999972,
                        "value": 0
                    },
                    {
                        "number": 64,
                        "time": 170.7434304624997,
                        "value": 1
                    },
                    {
                        "number": 64,
                        "time": 171.57684282083304,
                        "value": 0
                    },
                    {
                        "number": 64,
                        "time": 171.61062980833304,
                        "value": 1
                    },
                    {
                        "number": 64,
                        "time": 171.8512879999997,
                        "value": 0
                    },
                    {
                        "number": 64,
                        "time": 171.8886315124997,
                        "value": 1
                    },
                    {
                        "number": 64,
                        "time": 172.4238885249997,
                        "value": 0
                    },
                    {
                        "number": 64,
                        "time": 172.45767551249972,
                        "value": 1
                    },
                    {
                        "number": 64,
                        "time": 172.9893759999997,
                        "value": 0
                    },
                    {
                        "number": 64,
                        "time": 173.0267195124997,
                        "value": 1
                    },
                    {
                        "number": 64,
                        "time": 173.56197652499972,
                        "value": 0
                    },
                    {
                        "number": 64,
                        "time": 173.59576351249973,
                        "value": 1
                    },
                    {
                        "number": 64,
                        "time": 174.12746399999972,
                        "value": 0
                    },
                    {
                        "number": 64,
                        "time": 174.16480751249972,
                        "value": 1
                    },
                    {
                        "number": 64,
                        "time": 174.70006452499973,
                        "value": 0
                    },
                    {
                        "number": 64,
                        "time": 174.73385151249974,
                        "value": 1
                    },
                    {
                        "number": 64,
                        "time": 175.2714795416664,
                        "value": 0
                    },
                    {
                        "number": 64,
                        "time": 175.30111724999972,
                        "value": 1
                    },
                    {
                        "number": 64,
                        "time": 175.8381525249997,
                        "value": 0
                    },
                    {
                        "number": 64,
                        "time": 175.85178587083306,
                        "value": 1
                    },
                    {
                        "number": 64,
                        "time": 176.4077892791664,
                        "value": 0
                    },
                    {
                        "number": 64,
                        "time": 176.4309066916664,
                        "value": 1
                    },
                    {
                        "number": 64,
                        "time": 176.97624052499972,
                        "value": 0
                    },
                    {
                        "number": 64,
                        "time": 176.98631734583304,
                        "value": 1
                    },
                    {
                        "number": 64,
                        "time": 177.55061931249972,
                        "value": 0
                    },
                    {
                        "number": 64,
                        "time": 177.56543816666638,
                        "value": 1
                    },
                    {
                        "number": 64,
                        "time": 178.1143285249997,
                        "value": 0
                    },
                    {
                        "number": 64,
                        "time": 178.13803869166637,
                        "value": 1
                    },
                    {
                        "number": 64,
                        "time": 178.6798159999997,
                        "value": 0
                    },
                    {
                        "number": 64,
                        "time": 178.69819137916636,
                        "value": 1
                    },
                    {
                        "number": 64,
                        "time": 179.2524165249997,
                        "value": 0
                    },
                    {
                        "number": 64,
                        "time": 179.2862035124997,
                        "value": 1
                    },
                    {
                        "number": 64,
                        "time": 179.8179039999997,
                        "value": 0
                    },
                    {
                        "number": 64,
                        "time": 179.8552475124997,
                        "value": 1
                    },
                    {
                        "number": 64,
                        "time": 180.3905045249997,
                        "value": 0
                    },
                    {
                        "number": 64,
                        "time": 180.4242915124997,
                        "value": 1
                    },
                    {
                        "number": 64,
                        "time": 180.9559919999997,
                        "value": 0
                    },
                    {
                        "number": 64,
                        "time": 180.98325869166635,
                        "value": 1
                    },
                    {
                        "number": 64,
                        "time": 181.53452006666635,
                        "value": 0
                    },
                    {
                        "number": 64,
                        "time": 181.58608967916635,
                        "value": 1
                    },
                    {
                        "number": 64,
                        "time": 182.09407999999968,
                        "value": 0
                    },
                    {
                        "number": 64,
                        "time": 182.13142351249968,
                        "value": 1
                    },
                    {
                        "number": 64,
                        "time": 182.95772282083303,
                        "value": 0
                    },
                    {
                        "number": 64,
                        "time": 182.98498951249968,
                        "value": 1
                    },
                    {
                        "number": 64,
                        "time": 183.2321679999997,
                        "value": 0
                    },
                    {
                        "number": 64,
                        "time": 183.2321679999997,
                        "value": 0
                    },
                    {
                        "number": 64,
                        "time": 183.28255210416634,
                        "value": 1
                    },
                    {
                        "number": 64,
                        "time": 183.51668999999967,
                        "value": 0
                    },
                    {
                        "number": 64,
                        "time": 183.56707410416632,
                        "value": 1
                    },
                    {
                        "number": 64,
                        "time": 183.80536127916633,
                        "value": 0
                    },
                    {
                        "number": 64,
                        "time": 183.893088895833,
                        "value": 1
                    },
                    {
                        "number": 64,
                        "time": 184.09640357499967,
                        "value": 0
                    },
                    {
                        "number": 64,
                        "time": 184.16931233749966,
                        "value": 1
                    },
                    {
                        "number": 64,
                        "time": 184.37025599999967,
                        "value": 0
                    },
                    {
                        "number": 64,
                        "time": 184.43130967916633,
                        "value": 1
                    },
                    {
                        "number": 64,
                        "time": 184.50006916249967,
                        "value": 0
                    },
                    {
                        "number": 64,
                        "time": 184.55045326666632,
                        "value": 1
                    },
                    {
                        "number": 64,
                        "time": 185.22797127916633,
                        "value": 0
                    },
                    {
                        "number": 64,
                        "time": 185.271242333333,
                        "value": 1
                    },
                    {
                        "number": 64,
                        "time": 185.50834399999965,
                        "value": 0
                    },
                    {
                        "number": 64,
                        "time": 185.541538233333,
                        "value": 1
                    },
                    {
                        "number": 64,
                        "time": 185.794051508333,
                        "value": 0
                    },
                    {
                        "number": 64,
                        "time": 185.81776167499967,
                        "value": 1
                    },
                    {
                        "number": 64,
                        "time": 186.08627931249967,
                        "value": 0
                    },
                    {
                        "number": 64,
                        "time": 186.110582233333,
                        "value": 1
                    },
                    {
                        "number": 64,
                        "time": 186.37495059166633,
                        "value": 0
                    },
                    {
                        "number": 64,
                        "time": 186.428891220833,
                        "value": 1
                    },
                    {
                        "number": 64,
                        "time": 186.6553233124997,
                        "value": 0
                    },
                    {
                        "number": 64,
                        "time": 186.72171177916636,
                        "value": 1
                    },
                    {
                        "number": 64,
                        "time": 186.9434018374997,
                        "value": 0
                    },
                    {
                        "number": 64,
                        "time": 187.02283089583304,
                        "value": 1
                    },
                    {
                        "number": 64,
                        "time": 187.22496006666637,
                        "value": 0
                    },
                    {
                        "number": 64,
                        "time": 187.27000938333305,
                        "value": 1
                    },
                    {
                        "number": 64,
                        "time": 187.51303859166637,
                        "value": 0
                    },
                    {
                        "number": 64,
                        "time": 187.5586806624997,
                        "value": 1
                    },
                    {
                        "number": 64,
                        "time": 187.7845199999997,
                        "value": 0
                    },
                    {
                        "number": 64,
                        "time": 187.8520939749997,
                        "value": 1
                    },
                    {
                        "number": 64,
                        "time": 188.07319127916637,
                        "value": 0
                    },
                    {
                        "number": 64,
                        "time": 188.09808695416638,
                        "value": 1
                    },
                    {
                        "number": 64,
                        "time": 188.3660118374997,
                        "value": 0
                    },
                    {
                        "number": 64,
                        "time": 188.40809738333306,
                        "value": 1
                    },
                    {
                        "number": 64,
                        "time": 188.63808599999973,
                        "value": 0
                    },
                    {
                        "number": 64,
                        "time": 188.70565997499972,
                        "value": 1
                    },
                    {
                        "number": 64,
                        "time": 188.93090655833305,
                        "value": 0
                    },
                    {
                        "number": 64,
                        "time": 188.99788777916638,
                        "value": 1
                    },
                    {
                        "number": 64,
                        "time": 189.2195778374997,
                        "value": 0
                    },
                    {
                        "number": 64,
                        "time": 189.27174020416638,
                        "value": 1
                    },
                    {
                        "number": 64,
                        "time": 189.5011360666664,
                        "value": 0
                    },
                    {
                        "number": 64,
                        "time": 189.5491491541664,
                        "value": 1
                    },
                    {
                        "number": 64,
                        "time": 189.7892145916664,
                        "value": 0
                    },
                    {
                        "number": 64,
                        "time": 189.83485666249973,
                        "value": 1
                    },
                    {
                        "number": 64,
                        "time": 190.06069599999972,
                        "value": 0
                    },
                    {
                        "number": 64,
                        "time": 190.1282699749997,
                        "value": 1
                    },
                    {
                        "number": 64,
                        "time": 190.35825859166638,
                        "value": 0
                    },
                    {
                        "number": 64,
                        "time": 190.39145282499973,
                        "value": 1
                    },
                    {
                        "number": 64,
                        "time": 190.64218783749973,
                        "value": 0
                    },
                    {
                        "number": 64,
                        "time": 190.66293423333306,
                        "value": 1
                    },
                    {
                        "number": 64,
                        "time": 190.91426199999972,
                        "value": 0
                    },
                    {
                        "number": 64,
                        "time": 190.9818359749997,
                        "value": 1
                    },
                    {
                        "number": 64,
                        "time": 191.1987839999997,
                        "value": 0
                    },
                    {
                        "number": 64,
                        "time": 191.27406377916637,
                        "value": 1
                    },
                    {
                        "number": 64,
                        "time": 191.4957538374997,
                        "value": 0
                    },
                    {
                        "number": 64,
                        "time": 191.57518289583305,
                        "value": 1
                    },
                    {
                        "number": 64,
                        "time": 191.80102223333304,
                        "value": 0
                    },
                    {
                        "number": 64,
                        "time": 191.8389584999997,
                        "value": 1
                    },
                    {
                        "number": 64,
                        "time": 192.0653905916664,
                        "value": 0
                    },
                    {
                        "number": 64,
                        "time": 192.11103266249972,
                        "value": 1
                    },
                    {
                        "number": 64,
                        "time": 192.33687199999972,
                        "value": 0
                    },
                    {
                        "number": 64,
                        "time": 192.4044459749997,
                        "value": 1
                    },
                    {
                        "number": 64,
                        "time": 193.4749599999997,
                        "value": 0
                    },
                    {
                        "number": 64,
                        "time": 193.50400495416636,
                        "value": 1
                    },
                    {
                        "number": 64,
                        "time": 194.3391955749997,
                        "value": 0
                    },
                    {
                        "number": 64,
                        "time": 194.35994197083303,
                        "value": 1
                    },
                    {
                        "number": 64,
                        "time": 194.6130479999997,
                        "value": 0
                    },
                    {
                        "number": 64,
                        "time": 194.6432784624997,
                        "value": 1
                    },
                    {
                        "number": 64,
                        "time": 195.47076327916636,
                        "value": 0
                    },
                    {
                        "number": 64,
                        "time": 195.51759085833302,
                        "value": 1
                    },
                    {
                        "number": 64,
                        "time": 195.7511359999997,
                        "value": 0
                    },
                    {
                        "number": 64,
                        "time": 195.7884795124997,
                        "value": 1
                    },
                    {
                        "number": 64,
                        "time": 196.60825852499968,
                        "value": 0
                    },
                    {
                        "number": 64,
                        "time": 196.63493246249968,
                        "value": 1
                    },
                    {
                        "number": 64,
                        "time": 196.88922399999967,
                        "value": 0
                    },
                    {
                        "number": 64,
                        "time": 197.763536395833,
                        "value": 1
                    },
                    {
                        "number": 64,
                        "time": 198.035610558333,
                        "value": 0
                    },
                    {
                        "number": 64,
                        "time": 198.05635695416632,
                        "value": 1
                    },
                    {
                        "number": 64,
                        "time": 198.59635599999964,
                        "value": 0
                    },
                    {
                        "number": 64,
                        "time": 198.6254009541663,
                        "value": 1
                    },
                    {
                        "number": 64,
                        "time": 198.8850272791663,
                        "value": 0
                    },
                    {
                        "number": 64,
                        "time": 198.90577367499964,
                        "value": 1
                    },
                    {
                        "number": 64,
                        "time": 199.16658550833296,
                        "value": 0
                    },
                    {
                        "number": 64,
                        "time": 199.19859423333295,
                        "value": 1
                    },
                    {
                        "number": 64,
                        "time": 199.7362222624996,
                        "value": 0
                    },
                    {
                        "number": 64,
                        "time": 199.76348895416626,
                        "value": 1
                    },
                    {
                        "number": 64,
                        "time": 200.0296355749996,
                        "value": 0
                    },
                    {
                        "number": 64,
                        "time": 200.07349938333292,
                        "value": 1
                    },
                    {
                        "number": 64,
                        "time": 200.3034879999996,
                        "value": 0
                    },
                    {
                        "number": 64,
                        "time": 200.3046735083329,
                        "value": 0
                    },
                    {
                        "number": 64,
                        "time": 200.3366822333329,
                        "value": 1
                    },
                    {
                        "number": 64,
                        "time": 200.59927232916624,
                        "value": 0
                    },
                    {
                        "number": 64,
                        "time": 200.61231292083292,
                        "value": 1
                    },
                    {
                        "number": 64,
                        "time": 200.87727403333292,
                        "value": 0
                    },
                    {
                        "number": 64,
                        "time": 200.90157695416625,
                        "value": 1
                    },
                    {
                        "number": 64,
                        "time": 201.16950183749958,
                        "value": 0
                    },
                    {
                        "number": 64,
                        "time": 201.21158738333293,
                        "value": 1
                    },
                    {
                        "number": 64,
                        "time": 201.4415759999996,
                        "value": 0
                    },
                    {
                        "number": 64,
                        "time": 201.4415759999996,
                        "value": 0
                    },
                    {
                        "number": 64,
                        "time": 201.47477023333295,
                        "value": 1
                    },
                    {
                        "number": 64,
                        "time": 201.73736032916628,
                        "value": 0
                    },
                    {
                        "number": 64,
                        "time": 201.7622560041663,
                        "value": 1
                    },
                    {
                        "number": 64,
                        "time": 202.00232144166628,
                        "value": 0
                    },
                    {
                        "number": 64,
                        "time": 202.03966495416628,
                        "value": 1
                    },
                    {
                        "number": 64,
                        "time": 202.30758983749962,
                        "value": 0
                    },
                    {
                        "number": 64,
                        "time": 202.34967538333296,
                        "value": 1
                    },
                    {
                        "number": 64,
                        "time": 202.57966399999964,
                        "value": 0
                    },
                    {
                        "number": 64,
                        "time": 202.61107997083298,
                        "value": 1
                    },
                    {
                        "number": 64,
                        "time": 203.15759931249966,
                        "value": 0
                    },
                    {
                        "number": 64,
                        "time": 203.180123970833,
                        "value": 1
                    },
                    {
                        "number": 64,
                        "time": 203.441528558333,
                        "value": 0
                    },
                    {
                        "number": 64,
                        "time": 203.46879524999966,
                        "value": 1
                    },
                    {
                        "number": 64,
                        "time": 203.71775199999965,
                        "value": 0
                    },
                    {
                        "number": 64,
                        "time": 203.726050558333,
                        "value": 0
                    },
                    {
                        "number": 64,
                        "time": 203.7467969541663,
                        "value": 1
                    },
                    {
                        "number": 64,
                        "time": 204.28679599999964,
                        "value": 0
                    },
                    {
                        "number": 64,
                        "time": 204.3158409541663,
                        "value": 1
                    },
                    {
                        "number": 64,
                        "time": 204.57606003333296,
                        "value": 0
                    },
                    {
                        "number": 64,
                        "time": 204.59621367499963,
                        "value": 1
                    },
                    {
                        "number": 64,
                        "time": 204.85583999999963,
                        "value": 0
                    },
                    {
                        "number": 64,
                        "time": 204.88903423333298,
                        "value": 1
                    },
                    {
                        "number": 64,
                        "time": 205.4165854416663,
                        "value": 0
                    },
                    {
                        "number": 64,
                        "time": 205.45392895416632,
                        "value": 1
                    },
                    {
                        "number": 64,
                        "time": 205.7260031166663,
                        "value": 0
                    },
                    {
                        "number": 64,
                        "time": 205.76393938333297,
                        "value": 1
                    },
                    {
                        "number": 64,
                        "time": 205.99392799999964,
                        "value": 0
                    },
                    {
                        "number": 64,
                        "time": 205.99392799999964,
                        "value": 0
                    },
                    {
                        "number": 64,
                        "time": 206.027122233333,
                        "value": 1
                    },
                    {
                        "number": 64,
                        "time": 206.28971232916632,
                        "value": 0
                    },
                    {
                        "number": 64,
                        "time": 206.302752920833,
                        "value": 1
                    },
                    {
                        "number": 64,
                        "time": 206.569492295833,
                        "value": 0
                    },
                    {
                        "number": 64,
                        "time": 206.59201695416633,
                        "value": 1
                    },
                    {
                        "number": 64,
                        "time": 206.85994183749966,
                        "value": 0
                    },
                    {
                        "number": 64,
                        "time": 206.902027383333,
                        "value": 1
                    },
                    {
                        "number": 64,
                        "time": 207.13201599999968,
                        "value": 0
                    },
                    {
                        "number": 64,
                        "time": 207.133201508333,
                        "value": 0
                    },
                    {
                        "number": 64,
                        "time": 207.165210233333,
                        "value": 1
                    },
                    {
                        "number": 64,
                        "time": 207.42780032916633,
                        "value": 0
                    },
                    {
                        "number": 64,
                        "time": 207.45625252916633,
                        "value": 1
                    },
                    {
                        "number": 64,
                        "time": 207.70520927916633,
                        "value": 0
                    },
                    {
                        "number": 64,
                        "time": 207.73010495416634,
                        "value": 1
                    },
                    {
                        "number": 64,
                        "time": 207.99802983749967,
                        "value": 0
                    },
                    {
                        "number": 64,
                        "time": 208.04011538333302,
                        "value": 1
                    },
                    {
                        "number": 64,
                        "time": 208.2701039999997,
                        "value": 0
                    },
                    {
                        "number": 64,
                        "time": 208.30151997083303,
                        "value": 1
                    },
                    {
                        "number": 64,
                        "time": 208.8498175749997,
                        "value": 0
                    },
                    {
                        "number": 64,
                        "time": 208.89486689166637,
                        "value": 1
                    },
                    {
                        "number": 64,
                        "time": 209.13196855833303,
                        "value": 0
                    },
                    {
                        "number": 64,
                        "time": 209.15923524999968,
                        "value": 1
                    },
                    {
                        "number": 64,
                        "time": 209.40819199999967,
                        "value": 0
                    },
                    {
                        "number": 64,
                        "time": 209.42834564166634,
                        "value": 1
                    },
                    {
                        "number": 64,
                        "time": 209.985534558333,
                        "value": 0
                    },
                    {
                        "number": 64,
                        "time": 210.03473315416633,
                        "value": 1
                    },
                    {
                        "number": 64,
                        "time": 210.26175799999967,
                        "value": 0
                    },
                    {
                        "number": 64,
                        "time": 210.28902469166633,
                        "value": 1
                    },
                    {
                        "number": 64,
                        "time": 210.54627999999965,
                        "value": 0
                    },
                    {
                        "number": 64,
                        "time": 210.56643364166632,
                        "value": 1
                    },
                    {
                        "number": 64,
                        "time": 211.12362255833298,
                        "value": 0
                    },
                    {
                        "number": 64,
                        "time": 211.17282115416631,
                        "value": 1
                    },
                    {
                        "number": 64,
                        "time": 211.39984599999966,
                        "value": 0
                    },
                    {
                        "number": 64,
                        "time": 211.4271126916663,
                        "value": 1
                    },
                    {
                        "number": 64,
                        "time": 211.685553508333,
                        "value": 0
                    },
                    {
                        "number": 64,
                        "time": 211.70807816666633,
                        "value": 1
                    },
                    {
                        "number": 64,
                        "time": 211.97422478749965,
                        "value": 0
                    },
                    {
                        "number": 64,
                        "time": 211.9890436416663,
                        "value": 1
                    },
                    {
                        "number": 64,
                        "time": 212.25400475416632,
                        "value": 0
                    },
                    {
                        "number": 64,
                        "time": 212.267045345833,
                        "value": 1
                    },
                    {
                        "number": 64,
                        "time": 212.54149052499966,
                        "value": 0
                    },
                    {
                        "number": 64,
                        "time": 212.56164416666633,
                        "value": 1
                    },
                    {
                        "number": 64,
                        "time": 212.82245599999965,
                        "value": 0
                    },
                    {
                        "number": 64,
                        "time": 212.8497226916663,
                        "value": 1
                    },
                    {
                        "number": 64,
                        "time": 213.11231278749963,
                        "value": 0
                    },
                    {
                        "number": 64,
                        "time": 213.14728528333296,
                        "value": 1
                    },
                    {
                        "number": 64,
                        "time": 213.3974275416663,
                        "value": 0
                    },
                    {
                        "number": 64,
                        "time": 213.42825075833298,
                        "value": 1
                    },
                    {
                        "number": 64,
                        "time": 213.68135678749965,
                        "value": 0
                    },
                    {
                        "number": 64,
                        "time": 213.71099449583298,
                        "value": 1
                    },
                    {
                        "number": 64,
                        "time": 213.96054399999966,
                        "value": 0
                    },
                    {
                        "number": 64,
                        "time": 213.96172950833298,
                        "value": 0
                    },
                    {
                        "number": 64,
                        "time": 213.98069764166632,
                        "value": 1
                    },
                    {
                        "number": 64,
                        "time": 214.54381409999965,
                        "value": 0
                    },
                    {
                        "number": 64,
                        "time": 214.58708515416632,
                        "value": 1
                    },
                    {
                        "number": 64,
                        "time": 214.81410999999966,
                        "value": 0
                    },
                    {
                        "number": 64,
                        "time": 214.8413766916663,
                        "value": 1
                    },
                    {
                        "number": 64,
                        "time": 215.09863199999964,
                        "value": 0
                    },
                    {
                        "number": 64,
                        "time": 215.1187856416663,
                        "value": 1
                    },
                    {
                        "number": 64,
                        "time": 215.67597455833297,
                        "value": 0
                    },
                    {
                        "number": 64,
                        "time": 215.7251731541663,
                        "value": 1
                    },
                    {
                        "number": 64,
                        "time": 215.95219799999964,
                        "value": 0
                    },
                    {
                        "number": 64,
                        "time": 215.9794646916663,
                        "value": 1
                    },
                    {
                        "number": 64,
                        "time": 216.23849826249963,
                        "value": 0
                    },
                    {
                        "number": 64,
                        "time": 216.2604301666663,
                        "value": 1
                    },
                    {
                        "number": 64,
                        "time": 216.52657678749964,
                        "value": 0
                    },
                    {
                        "number": 64,
                        "time": 216.56747682499963,
                        "value": 1
                    },
                    {
                        "number": 64,
                        "time": 216.8116915416663,
                        "value": 0
                    },
                    {
                        "number": 64,
                        "time": 216.83955098749965,
                        "value": 1
                    },
                    {
                        "number": 64,
                        "time": 217.09384252499964,
                        "value": 0
                    },
                    {
                        "number": 64,
                        "time": 217.13474256249964,
                        "value": 1
                    },
                    {
                        "number": 64,
                        "time": 217.37480799999963,
                        "value": 0
                    },
                    {
                        "number": 64,
                        "time": 217.4020746916663,
                        "value": 1
                    },
                    {
                        "number": 64,
                        "time": 217.66525754166628,
                        "value": 0
                    },
                    {
                        "number": 64,
                        "time": 217.7037865624996,
                        "value": 1
                    },
                    {
                        "number": 64,
                        "time": 217.94859403333294,
                        "value": 0
                    },
                    {
                        "number": 64,
                        "time": 217.9811955124996,
                        "value": 1
                    },
                    {
                        "number": 64,
                        "time": 218.2337087874996,
                        "value": 0
                    },
                    {
                        "number": 64,
                        "time": 218.27283056249962,
                        "value": 1
                    },
                    {
                        "number": 64,
                        "time": 218.5128959999996,
                        "value": 0
                    },
                    {
                        "number": 64,
                        "time": 218.53304964166628,
                        "value": 1
                    },
                    {
                        "number": 64,
                        "time": 219.09023855833294,
                        "value": 0
                    },
                    {
                        "number": 64,
                        "time": 219.13943715416627,
                        "value": 1
                    },
                    {
                        "number": 64,
                        "time": 219.36764750833294,
                        "value": 0
                    },
                    {
                        "number": 64,
                        "time": 219.39372869166627,
                        "value": 1
                    },
                    {
                        "number": 64,
                        "time": 219.6509839999996,
                        "value": 0
                    },
                    {
                        "number": 64,
                        "time": 219.67113764166626,
                        "value": 1
                    },
                    {
                        "number": 64,
                        "time": 219.9355059999996,
                        "value": 0
                    },
                    {
                        "number": 64,
                        "time": 219.94736108333294,
                        "value": 1
                    },
                    {
                        "number": 64,
                        "time": 220.22832655833292,
                        "value": 0
                    },
                    {
                        "number": 64,
                        "time": 220.27752515416626,
                        "value": 1
                    },
                    {
                        "number": 64,
                        "time": 220.51521957499958,
                        "value": 0
                    },
                    {
                        "number": 64,
                        "time": 220.53181669166625,
                        "value": 1
                    },
                    {
                        "number": 64,
                        "time": 220.78907199999958,
                        "value": 0
                    },
                    {
                        "number": 64,
                        "time": 220.84004885833292,
                        "value": 1
                    },
                    {
                        "number": 64,
                        "time": 221.36641455833293,
                        "value": 0
                    },
                    {
                        "number": 64,
                        "time": 221.41561315416627,
                        "value": 1
                    },
                    {
                        "number": 64,
                        "time": 221.6426379999996,
                        "value": 0
                    },
                    {
                        "number": 64,
                        "time": 221.66990469166626,
                        "value": 1
                    },
                    {
                        "number": 64,
                        "time": 221.9271599999996,
                        "value": 0
                    },
                    {
                        "number": 64,
                        "time": 221.98584266249958,
                        "value": 1
                    },
                    {
                        "number": 64,
                        "time": 222.5068735749996,
                        "value": 0
                    },
                    {
                        "number": 64,
                        "time": 222.54658810416626,
                        "value": 1
                    },
                    {
                        "number": 64,
                        "time": 222.7931738374996,
                        "value": 0
                    },
                    {
                        "number": 64,
                        "time": 222.82281154583293,
                        "value": 1
                    },
                    {
                        "number": 64,
                        "time": 223.06761901666627,
                        "value": 0
                    },
                    {
                        "number": 64,
                        "time": 223.10318426666626,
                        "value": 1
                    },
                    {
                        "number": 64,
                        "time": 223.35984682083293,
                        "value": 0
                    },
                    {
                        "number": 64,
                        "time": 223.3906700374996,
                        "value": 1
                    },
                    {
                        "number": 64,
                        "time": 223.6414050499996,
                        "value": 0
                    },
                    {
                        "number": 64,
                        "time": 223.6751920374996,
                        "value": 1
                    },
                    {
                        "number": 64,
                        "time": 223.9188139999996,
                        "value": 0
                    },
                    {
                        "number": 64,
                        "time": 223.95675026666626,
                        "value": 1
                    },
                    {
                        "number": 64,
                        "time": 224.2033359999996,
                        "value": 0
                    },
                    {
                        "number": 64,
                        "time": 224.23712298749962,
                        "value": 1
                    },
                    {
                        "number": 64,
                        "time": 225.91639554166628,
                        "value": 0
                    },
                    {
                        "number": 64,
                        "time": 225.95611007083295,
                        "value": 1
                    },
                    {
                        "number": 64,
                        "time": 226.4812902624996,
                        "value": 0
                    },
                    {
                        "number": 64,
                        "time": 226.52041203749963,
                        "value": 1
                    },
                    {
                        "number": 64,
                        "time": 227.05685455833296,
                        "value": 0
                    },
                    {
                        "number": 64,
                        "time": 227.1060531541663,
                        "value": 1
                    },
                    {
                        "number": 64,
                        "time": 227.33307799999963,
                        "value": 0
                    },
                    {
                        "number": 64,
                        "time": 227.34493308333296,
                        "value": 1
                    },
                    {
                        "number": 64,
                        "time": 227.61759999999964,
                        "value": 0
                    },
                    {
                        "number": 64,
                        "time": 227.68458122083297,
                        "value": 1
                    },
                    {
                        "number": 64,
                        "time": 228.19494255833297,
                        "value": 0
                    },
                    {
                        "number": 64,
                        "time": 228.2441411541663,
                        "value": 1
                    },
                    {
                        "number": 64,
                        "time": 228.47116599999964,
                        "value": 0
                    },
                    {
                        "number": 64,
                        "time": 228.4984326916663,
                        "value": 1
                    },
                    {
                        "number": 64,
                        "time": 228.75568799999962,
                        "value": 0
                    },
                    {
                        "number": 64,
                        "time": 228.79658803749962,
                        "value": 1
                    },
                    {
                        "number": 64,
                        "time": 229.33303055833295,
                        "value": 0
                    },
                    {
                        "number": 64,
                        "time": 229.38222915416628,
                        "value": 1
                    },
                    {
                        "number": 64,
                        "time": 229.60925399999962,
                        "value": 0
                    },
                    {
                        "number": 64,
                        "time": 229.62110908333295,
                        "value": 1
                    },
                    {
                        "number": 64,
                        "time": 229.89555426249962,
                        "value": 0
                    },
                    {
                        "number": 64,
                        "time": 229.9317122666663,
                        "value": 1
                    },
                    {
                        "number": 64,
                        "time": 230.47111855833296,
                        "value": 0
                    },
                    {
                        "number": 64,
                        "time": 230.5203171541663,
                        "value": 1
                    },
                    {
                        "number": 64,
                        "time": 230.74734199999963,
                        "value": 0
                    },
                    {
                        "number": 64,
                        "time": 230.7941695791663,
                        "value": 1
                    },
                    {
                        "number": 64,
                        "time": 231.03186399999962,
                        "value": 0
                    },
                    {
                        "number": 64,
                        "time": 231.07513505416628,
                        "value": 1
                    },
                    {
                        "number": 64,
                        "time": 231.31638599999962,
                        "value": 0
                    },
                    {
                        "number": 64,
                        "time": 231.36380633333295,
                        "value": 1
                    },
                    {
                        "number": 64,
                        "time": 231.6009079999996,
                        "value": 0
                    },
                    {
                        "number": 64,
                        "time": 231.63884426666627,
                        "value": 1
                    },
                    {
                        "number": 64,
                        "time": 231.88542999999962,
                        "value": 0
                    },
                    {
                        "number": 64,
                        "time": 231.9298865624996,
                        "value": 1
                    },
                    {
                        "number": 64,
                        "time": 232.1699519999996,
                        "value": 0
                    },
                    {
                        "number": 64,
                        "time": 232.3122129999996,
                        "value": 1
                    },
                    {
                        "number": 64,
                        "time": 232.75144383749958,
                        "value": 0
                    },
                    {
                        "number": 64,
                        "time": 232.77989603749958,
                        "value": 1
                    },
                    {
                        "number": 64,
                        "time": 233.30803999999958,
                        "value": 0
                    },
                    {
                        "number": 64,
                        "time": 233.34360524999957,
                        "value": 1
                    },
                    {
                        "number": 64,
                        "time": 233.45267201666624,
                        "value": 0
                    },
                    {
                        "number": 64,
                        "time": 234.44612799999956,
                        "value": 0
                    },
                    {
                        "number": 64,
                        "time": 234.48169324999955,
                        "value": 1
                    },
                    {
                        "number": 64,
                        "time": 234.59076001666622,
                        "value": 0
                    },
                    {
                        "number": 64,
                        "time": 235.58421599999954,
                        "value": 0
                    },
                    {
                        "number": 64,
                        "time": 235.61978124999953,
                        "value": 1
                    },
                    {
                        "number": 64,
                        "time": 235.7288480166662,
                        "value": 0
                    },
                    {
                        "number": 64,
                        "time": 236.72882429583288,
                        "value": 1
                    },
                    {
                        "number": 64,
                        "time": 236.91909838333288,
                        "value": 0
                    },
                    {
                        "number": 64,
                        "time": 237.02579413333288,
                        "value": 1
                    },
                    {
                        "number": 64,
                        "time": 237.19710008749954,
                        "value": 0
                    },
                    {
                        "number": 64,
                        "time": 237.3061668541662,
                        "value": 1
                    },
                    {
                        "number": 64,
                        "time": 237.49821920416622,
                        "value": 0
                    },
                    {
                        "number": 64,
                        "time": 237.57824101666623,
                        "value": 1
                    },
                    {
                        "number": 64,
                        "time": 237.76851510416623,
                        "value": 0
                    },
                    {
                        "number": 64,
                        "time": 237.88765869166622,
                        "value": 1
                    },
                    {
                        "number": 64,
                        "time": 238.0672632041662,
                        "value": 0
                    },
                    {
                        "number": 64,
                        "time": 238.1638821333329,
                        "value": 1
                    },
                    {
                        "number": 64,
                        "time": 238.35830549999955,
                        "value": 0
                    },
                    {
                        "number": 64,
                        "time": 238.45966646249954,
                        "value": 1
                    },
                    {
                        "number": 64,
                        "time": 238.63867822083287,
                        "value": 0
                    },
                    {
                        "number": 64,
                        "time": 238.74774498749954,
                        "value": 1
                    },
                    {
                        "number": 64,
                        "time": 238.95046691249954,
                        "value": 0
                    },
                    {
                        "number": 64,
                        "time": 239.03582351249955,
                        "value": 1
                    },
                    {
                        "number": 64,
                        "time": 239.2077222208329,
                        "value": 0
                    },
                    {
                        "number": 64,
                        "time": 239.3019701333329,
                        "value": 1
                    },
                    {
                        "number": 64,
                        "time": 239.49639349999956,
                        "value": 0
                    },
                    {
                        "number": 64,
                        "time": 239.59775446249955,
                        "value": 1
                    },
                    {
                        "number": 64,
                        "time": 239.80581117499955,
                        "value": 0
                    },
                    {
                        "number": 64,
                        "time": 239.88583298749955,
                        "value": 1
                    },
                    {
                        "number": 64,
                        "time": 240.05891720416622,
                        "value": 0
                    },
                    {
                        "number": 64,
                        "time": 243.55735229583289,
                        "value": 1
                    },
                    {
                        "number": 64,
                        "time": 243.74762638333289,
                        "value": 0
                    },
                    {
                        "number": 64,
                        "time": 243.8543221333329,
                        "value": 1
                    },
                    {
                        "number": 64,
                        "time": 244.02562808749954,
                        "value": 0
                    },
                    {
                        "number": 64,
                        "time": 244.1346948541662,
                        "value": 1
                    },
                    {
                        "number": 64,
                        "time": 244.32674720416622,
                        "value": 0
                    },
                    {
                        "number": 64,
                        "time": 244.40676901666623,
                        "value": 1
                    },
                    {
                        "number": 64,
                        "time": 244.59704310416623,
                        "value": 0
                    },
                    {
                        "number": 64,
                        "time": 244.71618669166622,
                        "value": 1
                    },
                    {
                        "number": 64,
                        "time": 244.90231149999957,
                        "value": 0
                    },
                    {
                        "number": 64,
                        "time": 244.9924101333329,
                        "value": 1
                    },
                    {
                        "number": 64,
                        "time": 245.1720146458329,
                        "value": 0
                    },
                    {
                        "number": 64,
                        "time": 245.28819446249955,
                        "value": 1
                    },
                    {
                        "number": 64,
                        "time": 245.47550477916622,
                        "value": 0
                    },
                    {
                        "number": 64,
                        "time": 245.57627298749955,
                        "value": 1
                    },
                    {
                        "number": 64,
                        "time": 245.75350648333287,
                        "value": 0
                    },
                    {
                        "number": 64,
                        "time": 245.86435151249952,
                        "value": 1
                    },
                    {
                        "number": 64,
                        "time": 246.03802848333285,
                        "value": 0
                    },
                    {
                        "number": 64,
                        "time": 246.13049813333285,
                        "value": 1
                    },
                    {
                        "number": 64,
                        "time": 246.32077222083285,
                        "value": 0
                    },
                    {
                        "number": 64,
                        "time": 246.42628246249953,
                        "value": 1
                    },
                    {
                        "number": 64,
                        "time": 246.59877392499953,
                        "value": 0
                    },
                    {
                        "number": 64,
                        "time": 246.71436098749953,
                        "value": 1
                    },
                    {
                        "number": 64,
                        "time": 246.9105626166662,
                        "value": 0
                    },
                    {
                        "number": 64,
                        "time": 246.9923626916662,
                        "value": 1
                    },
                    {
                        "number": 64,
                        "time": 247.16781792499953,
                        "value": 0
                    },
                    {
                        "number": 64,
                        "time": 247.26858613333286,
                        "value": 1
                    },
                    {
                        "number": 64,
                        "time": 247.4564892041662,
                        "value": 0
                    },
                    {
                        "number": 64,
                        "time": 247.5643704624995,
                        "value": 1
                    },
                    {
                        "number": 64,
                        "time": 247.75168077916618,
                        "value": 0
                    },
                    {
                        "number": 64,
                        "time": 247.8524489874995,
                        "value": 1
                    },
                    {
                        "number": 64,
                        "time": 248.02375494166617,
                        "value": 0
                    },
                    {
                        "number": 64,
                        "time": 248.1405275124995,
                        "value": 1
                    },
                    {
                        "number": 64,
                        "time": 248.3165754999995,
                        "value": 0
                    },
                    {
                        "number": 64,
                        "time": 248.4066741333328,
                        "value": 1
                    },
                    {
                        "number": 64,
                        "time": 248.60346851666614,
                        "value": 0
                    },
                    {
                        "number": 64,
                        "time": 248.70245846249946,
                        "value": 1
                    },
                    {
                        "number": 64,
                        "time": 248.88976877916613,
                        "value": 0
                    },
                    {
                        "number": 64,
                        "time": 248.99053698749947,
                        "value": 1
                    },
                    {
                        "number": 64,
                        "time": 249.1677704833328,
                        "value": 0
                    },
                    {
                        "number": 64,
                        "time": 249.8221710833328,
                        "value": 0
                    },
                    {
                        "number": 64,
                        "time": 249.84054646249945,
                        "value": 1
                    },
                    {
                        "number": 64,
                        "time": 250.01955822083278,
                        "value": 0
                    },
                    {
                        "number": 64,
                        "time": 250.12862498749945,
                        "value": 1
                    },
                    {
                        "number": 64,
                        "time": 250.30585848333277,
                        "value": 0
                    },
                    {
                        "number": 64,
                        "time": 250.41670351249942,
                        "value": 1
                    },
                    {
                        "number": 64,
                        "time": 250.6051993374994,
                        "value": 0
                    },
                    {
                        "number": 64,
                        "time": 250.68285013333275,
                        "value": 1
                    },
                    {
                        "number": 64,
                        "time": 250.89387061666608,
                        "value": 0
                    },
                    {
                        "number": 64,
                        "time": 251.23292599999942,
                        "value": 0
                    },
                    {
                        "number": 64,
                        "time": 251.26671298749943,
                        "value": 1
                    },
                    {
                        "number": 64,
                        "time": 251.45461605833276,
                        "value": 0
                    },
                    {
                        "number": 64,
                        "time": 251.55479151249943,
                        "value": 1
                    },
                    {
                        "number": 64,
                        "time": 251.7456583541661,
                        "value": 0
                    },
                    {
                        "number": 64,
                        "time": 252.08649199999942,
                        "value": 0
                    },
                    {
                        "number": 64,
                        "time": 252.12027898749943,
                        "value": 1
                    },
                    {
                        "number": 64,
                        "time": 252.3022545166661,
                        "value": 0
                    },
                    {
                        "number": 64,
                        "time": 252.40835751249944,
                        "value": 1
                    },
                    {
                        "number": 64,
                        "time": 252.58440549999943,
                        "value": 0
                    },
                    {
                        "number": 64,
                        "time": 252.9566551166661,
                        "value": 1
                    },
                    {
                        "number": 64,
                        "time": 253.15996979583275,
                        "value": 0
                    },
                    {
                        "number": 64,
                        "time": 253.25362495416607,
                        "value": 1
                    },
                    {
                        "number": 64,
                        "time": 253.4379714999994,
                        "value": 0
                    },
                    {
                        "number": 64,
                        "time": 253.55118754583273,
                        "value": 1
                    },
                    {
                        "number": 64,
                        "time": 253.7331630749994,
                        "value": 0
                    },
                    {
                        "number": 64,
                        "time": 253.8345240374994,
                        "value": 1
                    },
                    {
                        "number": 64,
                        "time": 254.01116477916605,
                        "value": 0
                    },
                    {
                        "number": 64,
                        "time": 254.1119329874994,
                        "value": 1
                    },
                    {
                        "number": 64,
                        "time": 254.29568677916606,
                        "value": 0
                    },
                    {
                        "number": 64,
                        "time": 254.40653180833272,
                        "value": 1
                    },
                    {
                        "number": 64,
                        "time": 254.58435805833273,
                        "value": 0
                    },
                    {
                        "number": 64,
                        "time": 254.6880900374994,
                        "value": 1
                    },
                    {
                        "number": 64,
                        "time": 254.8374640874994,
                        "value": 0
                    },
                    {
                        "number": 64,
                        "time": 254.9317119999994,
                        "value": 1
                    },
                    {
                        "number": 64,
                        "time": 255.51201832916607,
                        "value": 0
                    },
                    {
                        "number": 64,
                        "time": 255.55528938333273,
                        "value": 1
                    },
                    {
                        "number": 64,
                        "time": 256.0697999999994,
                        "value": 0
                    },
                    {
                        "number": 64,
                        "time": 256.1160348249994,
                        "value": 1
                    },
                    {
                        "number": 64,
                        "time": 256.3649915749994,
                        "value": 0
                    },
                    {
                        "number": 64,
                        "time": 256.4503481749994,
                        "value": 1
                    },
                    {
                        "number": 64,
                        "time": 256.6512918374994,
                        "value": 0
                    },
                    {
                        "number": 64,
                        "time": 256.7265716166661,
                        "value": 1
                    },
                    {
                        "number": 64,
                        "time": 256.9316645583328,
                        "value": 0
                    },
                    {
                        "number": 64,
                        "time": 256.99449649999946,
                        "value": 1
                    },
                    {
                        "number": 64,
                        "time": 257.2191503291661,
                        "value": 0
                    },
                    {
                        "number": 64,
                        "time": 257.29146633749946,
                        "value": 1
                    },
                    {
                        "number": 64,
                        "time": 257.77278272083277,
                        "value": 0
                    },
                    {
                        "number": 64,
                        "time": 258.34597599999944,
                        "value": 0
                    },
                    {
                        "number": 64,
                        "time": 258.4443731916661,
                        "value": 1
                    },
                    {
                        "number": 64,
                        "time": 258.9262823291661,
                        "value": 0
                    },
                    {
                        "number": 64,
                        "time": 258.96955338333277,
                        "value": 1
                    },
                    {
                        "number": 64,
                        "time": 259.4840639999994,
                        "value": 0
                    },
                    {
                        "number": 64,
                        "time": 259.53385534999944,
                        "value": 1
                    },
                    {
                        "number": 64,
                        "time": 259.78518311666613,
                        "value": 0
                    },
                    {
                        "number": 64,
                        "time": 259.8646121749995,
                        "value": 1
                    },
                    {
                        "number": 64,
                        "time": 260.0649630833328,
                        "value": 0
                    },
                    {
                        "number": 64,
                        "time": 260.14083561666615,
                        "value": 1
                    },
                    {
                        "number": 64,
                        "time": 260.3518560999995,
                        "value": 0
                    },
                    {
                        "number": 64,
                        "time": 260.92327111666617,
                        "value": 0
                    },
                    {
                        "number": 64,
                        "time": 261.0027001749995,
                        "value": 1
                    },
                    {
                        "number": 64,
                        "time": 261.2036438374995,
                        "value": 0
                    },
                    {
                        "number": 64,
                        "time": 261.2789236166662,
                        "value": 1
                    },
                    {
                        "number": 64,
                        "time": 261.48994409999955,
                        "value": 0
                    },
                    {
                        "number": 64,
                        "time": 262.0951461041662,
                        "value": 1
                    },
                    {
                        "number": 64,
                        "time": 262.34173183749954,
                        "value": 0
                    },
                    {
                        "number": 64,
                        "time": 262.92737295416623,
                        "value": 0
                    },
                    {
                        "number": 64,
                        "time": 262.98190633749954,
                        "value": 1
                    },
                    {
                        "number": 64,
                        "time": 263.46322272083285,
                        "value": 0
                    },
                    {
                        "number": 64,
                        "time": 265.1745039999995,
                        "value": 1
                    },
                    {
                        "number": 64,
                        "time": 266.3238543291662,
                        "value": 0
                    },
                    {
                        "number": 64,
                        "time": 266.39617033749954,
                        "value": 1
                    },
                    {
                        "number": 64,
                        "time": 266.88697078749954,
                        "value": 0
                    },
                    {
                        "number": 64,
                        "time": 267.5455206666662,
                        "value": 1
                    },
                    {
                        "number": 64,
                        "time": 268.2568256666662,
                        "value": 0
                    },
                    {
                        "number": 64,
                        "time": 268.6178129541662,
                        "value": 0
                    },
                    {
                        "number": 64,
                        "time": 268.6723463374995,
                        "value": 1
                    },
                    {
                        "number": 64,
                        "time": 269.1625540333328,
                        "value": 0
                    },
                    {
                        "number": 64,
                        "time": 269.7375255749995,
                        "value": 1
                    },
                    {
                        "number": 64,
                        "time": 270.2727825874995,
                        "value": 0
                    },
                    {
                        "number": 64,
                        "time": 273.1701649541661,
                        "value": 0
                    },
                    {
                        "number": 64,
                        "time": 273.22469833749943,
                        "value": 1
                    },
                    {
                        "number": 64,
                        "time": 273.7143132791661,
                        "value": 0
                    },
                    {
                        "number": 64,
                        "time": 274.3740486666661,
                        "value": 1
                    },
                    {
                        "number": 64,
                        "time": 275.0853536666661,
                        "value": 0
                    },
                    {
                        "number": 64,
                        "time": 275.9863399999994,
                        "value": 1
                    },
                    {
                        "number": 64,
                        "time": 276.2708619999994,
                        "value": 0
                    },
                    {
                        "number": 64,
                        "time": 276.3153185624994,
                        "value": 1
                    },
                    {
                        "number": 64,
                        "time": 276.55953327916603,
                        "value": 0
                    },
                    {
                        "number": 64,
                        "time": 276.6365913208327,
                        "value": 1
                    },
                    {
                        "number": 64,
                        "time": 276.84820455833267,
                        "value": 0
                    },
                    {
                        "number": 64,
                        "time": 276.900959679166,
                        "value": 1
                    },
                    {
                        "number": 64,
                        "time": 277.13450482083266,
                        "value": 0
                    },
                    {
                        "number": 64,
                        "time": 277.185481679166,
                        "value": 1
                    },
                    {
                        "number": 64,
                        "time": 277.4160630499993,
                        "value": 0
                    },
                    {
                        "number": 64,
                        "time": 277.4836370249993,
                        "value": 1
                    },
                    {
                        "number": 64,
                        "time": 277.69880678749934,
                        "value": 0
                    },
                    {
                        "number": 64,
                        "time": 277.802538766666,
                        "value": 1
                    },
                    {
                        "number": 64,
                        "time": 278.554743804166,
                        "value": 0
                    },
                    {
                        "number": 64,
                        "time": 278.6306163374993,
                        "value": 1
                    },
                    {
                        "number": 64,
                        "time": 278.8368947874993,
                        "value": 0
                    },
                    {
                        "number": 64,
                        "time": 278.90624702499935,
                        "value": 1
                    },
                    {
                        "number": 64,
                        "time": 279.1249733124993,
                        "value": 0
                    },
                    {
                        "number": 64,
                        "time": 279.184248729166,
                        "value": 1
                    },
                    {
                        "number": 64,
                        "time": 279.41245908333264,
                        "value": 0
                    },
                    {
                        "number": 64,
                        "time": 279.4752910249993,
                        "value": 1
                    },
                    {
                        "number": 64,
                        "time": 279.69223904999933,
                        "value": 0
                    },
                    {
                        "number": 64,
                        "time": 279.73965938333265,
                        "value": 1
                    },
                    {
                        "number": 64,
                        "time": 279.97083350833265,
                        "value": 0
                    },
                    {
                        "number": 64,
                        "time": 280.07160171666595,
                        "value": 1
                    },
                    {
                        "number": 64,
                        "time": 280.25831927916596,
                        "value": 0
                    },
                    {
                        "number": 64,
                        "time": 280.3288570249993,
                        "value": 1
                    },
                    {
                        "number": 64,
                        "time": 280.548176066666,
                        "value": 0
                    },
                    {
                        "number": 64,
                        "time": 280.6133790249993,
                        "value": 1
                    },
                    {
                        "number": 64,
                        "time": 280.8285487874993,
                        "value": 0
                    },
                    {
                        "number": 64,
                        "time": 280.884267679166,
                        "value": 1
                    },
                    {
                        "number": 64,
                        "time": 281.11188527916596,
                        "value": 0
                    },
                    {
                        "number": 64,
                        "time": 281.20257666666595,
                        "value": 1
                    },
                    {
                        "number": 64,
                        "time": 281.40352032916593,
                        "value": 0
                    },
                    {
                        "number": 64,
                        "time": 281.46694502499923,
                        "value": 1
                    },
                    {
                        "number": 64,
                        "time": 281.6868568208326,
                        "value": 0
                    },
                    {
                        "number": 64,
                        "time": 281.7313133833326,
                        "value": 1
                    },
                    {
                        "number": 64,
                        "time": 281.96841504999924,
                        "value": 0
                    },
                    {
                        "number": 64,
                        "time": 282.0223556791659,
                        "value": 1
                    },
                    {
                        "number": 64,
                        "time": 282.2517515416659,
                        "value": 0
                    },
                    {
                        "number": 64,
                        "time": 282.3548907666659,
                        "value": 1
                    },
                    {
                        "number": 64,
                        "time": 283.10116826249924,
                        "value": 0
                    },
                    {
                        "number": 64,
                        "time": 283.18296833749923,
                        "value": 1
                    },
                    {
                        "number": 64,
                        "time": 283.3898395416659,
                        "value": 0
                    },
                    {
                        "number": 64,
                        "time": 283.4449656791659,
                        "value": 1
                    },
                    {
                        "number": 64,
                        "time": 283.6808818374992,
                        "value": 0
                    },
                    {
                        "number": 64,
                        "time": 283.7366007291659,
                        "value": 1
                    },
                    {
                        "number": 64,
                        "time": 283.9600690499992,
                        "value": 0
                    },
                    {
                        "number": 64,
                        "time": 284.0140096791659,
                        "value": 1
                    },
                    {
                        "number": 64,
                        "time": 284.24992583749923,
                        "value": 0
                    },
                    {
                        "number": 64,
                        "time": 284.32579837083256,
                        "value": 1
                    },
                    {
                        "number": 64,
                        "time": 284.5231855083326,
                        "value": 0
                    },
                    {
                        "number": 64,
                        "time": 284.5901667291659,
                        "value": 1
                    },
                    {
                        "number": 64,
                        "time": 285.1005280666659,
                        "value": 0
                    },
                    {
                        "number": 64,
                        "time": 285.1455773833326,
                        "value": 1
                    },
                    {
                        "number": 64,
                        "time": 285.3868283291659,
                        "value": 0
                    },
                    {
                        "number": 64,
                        "time": 285.4437327291659,
                        "value": 1
                    },
                    {
                        "number": 64,
                        "time": 285.6648300333326,
                        "value": 0
                    },
                    {
                        "number": 64,
                        "time": 285.7282547291659,
                        "value": 1
                    },
                    {
                        "number": 64,
                        "time": 286.2392088208326,
                        "value": 0
                    },
                    {
                        "number": 64,
                        "time": 286.31033932083255,
                        "value": 1
                    },
                    {
                        "number": 64,
                        "time": 286.80054701666586,
                        "value": 0
                    },
                    {
                        "number": 64,
                        "time": 286.8728630249992,
                        "value": 1
                    },
                    {
                        "number": 64,
                        "time": 287.37018377083257,
                        "value": 0
                    },
                    {
                        "number": 64,
                        "time": 287.4282736791659,
                        "value": 1
                    },
                    {
                        "number": 64,
                        "time": 287.94337704999924,
                        "value": 0
                    },
                    {
                        "number": 64,
                        "time": 288.0032452208326,
                        "value": 1
                    },
                    {
                        "number": 64,
                        "time": 288.5130138041659,
                        "value": 0
                    },
                    {
                        "number": 64,
                        "time": 288.5888863374992,
                        "value": 1
                    },
                    {
                        "number": 64,
                        "time": 289.0814650499992,
                        "value": 0
                    },
                    {
                        "number": 64,
                        "time": 289.1425187291659,
                        "value": 1
                    },
                    {
                        "number": 64,
                        "time": 289.9350310499992,
                        "value": 0
                    },
                    {
                        "number": 64,
                        "time": 289.9889716791659,
                        "value": 1
                    },
                    {
                        "number": 64,
                        "time": 290.21777478749925,
                        "value": 0
                    },
                    {
                        "number": 64,
                        "time": 290.2960183374993,
                        "value": 1
                    },
                    {
                        "number": 64,
                        "time": 290.79393183749926,
                        "value": 0
                    },
                    {
                        "number": 64,
                        "time": 290.85676377916593,
                        "value": 1
                    },
                    {
                        "number": 64,
                        "time": 291.3546772791659,
                        "value": 0
                    },
                    {
                        "number": 64,
                        "time": 291.37364541249923,
                        "value": 1
                    },
                    {
                        "number": 64,
                        "time": 291.50345857499923,
                        "value": 0
                    },
                    {
                        "number": 64,
                        "time": 291.94091114999924,
                        "value": 1
                    },
                    {
                        "number": 64,
                        "time": 292.4957290499992,
                        "value": 0
                    },
                    {
                        "number": 64,
                        "time": 292.5224029874992,
                        "value": 1
                    },
                    {
                        "number": 64,
                        "time": 292.6498451333326,
                        "value": 0
                    },
                    {
                        "number": 64,
                        "time": 293.0766281333326,
                        "value": 1
                    },
                    {
                        "number": 64,
                        "time": 293.63381704999927,
                        "value": 0
                    },
                    {
                        "number": 64,
                        "time": 293.6776808583326,
                        "value": 1
                    },
                    {
                        "number": 64,
                        "time": 294.20701032916594,
                        "value": 0
                    },
                    {
                        "number": 64,
                        "time": 294.2402045624993,
                        "value": 1
                    },
                    {
                        "number": 64,
                        "time": 294.48975406666597,
                        "value": 0
                    },
                    {
                        "number": 64,
                        "time": 294.53480338333264,
                        "value": 1
                    },
                    {
                        "number": 64,
                        "time": 294.7736833124993,
                        "value": 0
                    },
                    {
                        "number": 64,
                        "time": 294.79561521666596,
                        "value": 1
                    },
                    {
                        "number": 64,
                        "time": 295.3373925249993,
                        "value": 0
                    },
                    {
                        "number": 64,
                        "time": 295.3782925624993,
                        "value": 1
                    },
                    {
                        "number": 64,
                        "time": 295.62843482083264,
                        "value": 0
                    },
                    {
                        "number": 64,
                        "time": 295.6628145624993,
                        "value": 1
                    },
                    {
                        "number": 64,
                        "time": 295.91117855833267,
                        "value": 0
                    },
                    {
                        "number": 64,
                        "time": 295.9342959708327,
                        "value": 1
                    },
                    {
                        "number": 64,
                        "time": 296.0516612958327,
                        "value": 0
                    },
                    {
                        "number": 64,
                        "time": 296.499190691666,
                        "value": 1
                    },
                    {
                        "number": 64,
                        "time": 297.0480810499993,
                        "value": 0
                    },
                    {
                        "number": 64,
                        "time": 297.07831151249934,
                        "value": 1
                    },
                    {
                        "number": 64,
                        "time": 297.3343813124993,
                        "value": 0
                    },
                    {
                        "number": 64,
                        "time": 297.3800233833326,
                        "value": 1
                    },
                    {
                        "number": 64,
                        "time": 297.6189033124993,
                        "value": 0
                    },
                    {
                        "number": 64,
                        "time": 297.6509120374993,
                        "value": 1
                    },
                    {
                        "number": 64,
                        "time": 297.9069818374993,
                        "value": 0
                    },
                    {
                        "number": 64,
                        "time": 297.9354340374993,
                        "value": 1
                    },
                    {
                        "number": 64,
                        "time": 298.18142701666596,
                        "value": 0
                    },
                    {
                        "number": 64,
                        "time": 298.20632269166595,
                        "value": 1
                    },
                    {
                        "number": 64,
                        "time": 298.3236880166659,
                        "value": 0
                    },
                    {
                        "number": 64,
                        "time": 298.7563985583326,
                        "value": 1
                    },
                    {
                        "number": 64,
                        "time": 299.3254425583326,
                        "value": 0
                    },
                    {
                        "number": 64,
                        "time": 299.3402614124993,
                        "value": 1
                    },
                    {
                        "number": 64,
                        "time": 299.46770355833263,
                        "value": 0
                    },
                    {
                        "number": 64,
                        "time": 299.8986358374993,
                        "value": 1
                    },
                    {
                        "number": 64,
                        "time": 300.4676798374993,
                        "value": 0
                    },
                    {
                        "number": 64,
                        "time": 300.5062088583326,
                        "value": 1
                    },
                    {
                        "number": 64,
                        "time": 301.0313890499993,
                        "value": 0
                    },
                    {
                        "number": 64,
                        "time": 301.07525285833265,
                        "value": 1
                    },
                    {
                        "number": 64,
                        "time": 301.3212458374993,
                        "value": 0
                    },
                    {
                        "number": 64,
                        "time": 301.3597748583326,
                        "value": 1
                    },
                    {
                        "number": 64,
                        "time": 301.60161855833263,
                        "value": 0
                    },
                    {
                        "number": 64,
                        "time": 301.643704104166,
                        "value": 1
                    },
                    {
                        "number": 64,
                        "time": 302.1748118374993,
                        "value": 0
                    },
                    {
                        "number": 64,
                        "time": 302.22519594166596,
                        "value": 1
                    },
                    {
                        "number": 64,
                        "time": 302.7367427874993,
                        "value": 0
                    },
                    {
                        "number": 64,
                        "time": 302.7734935458326,
                        "value": 1
                    },
                    {
                        "number": 64,
                        "time": 303.3087505583326,
                        "value": 0
                    },
                    {
                        "number": 64,
                        "time": 303.35913466249923,
                        "value": 1
                    },
                    {
                        "number": 64,
                        "time": 303.8718670166659,
                        "value": 0
                    },
                    {
                        "number": 64,
                        "time": 303.90683951249923,
                        "value": 1
                    },
                    {
                        "number": 64,
                        "time": 304.4503950833326,
                        "value": 0
                    },
                    {
                        "number": 64,
                        "time": 304.4960371541659,
                        "value": 1
                    },
                    {
                        "number": 64,
                        "time": 304.7307678041659,
                        "value": 0
                    },
                    {
                        "number": 64,
                        "time": 304.7775953833326,
                        "value": 1
                    },
                    {
                        "number": 64,
                        "time": 305.0087695083326,
                        "value": 0
                    },
                    {
                        "number": 64,
                        "time": 305.05204056249926,
                        "value": 1
                    },
                    {
                        "number": 64,
                        "time": 305.5831482958326,
                        "value": 0
                    },
                    {
                        "number": 64,
                        "time": 305.61041498749927,
                        "value": 1
                    },
                    {
                        "number": 64,
                        "time": 305.8730050833326,
                        "value": 0
                    },
                    {
                        "number": 64,
                        "time": 305.90560656249926,
                        "value": 1
                    },
                    {
                        "number": 64,
                        "time": 306.1533778041659,
                        "value": 0
                    },
                    {
                        "number": 64,
                        "time": 306.1960561041659,
                        "value": 1
                    },
                    {
                        "number": 64,
                        "time": 306.72005078749925,
                        "value": 0
                    },
                    {
                        "number": 64,
                        "time": 306.7651001041659,
                        "value": 1
                    },
                    {
                        "number": 64,
                        "time": 307.28553826249924,
                        "value": 0
                    },
                    {
                        "number": 64,
                        "time": 307.31754698749927,
                        "value": 1
                    },
                    {
                        "number": 64,
                        "time": 307.5801370833326,
                        "value": 0
                    },
                    {
                        "number": 64,
                        "time": 307.6157023333326,
                        "value": 1
                    },
                    {
                        "number": 64,
                        "time": 307.8563605249993,
                        "value": 0
                    },
                    {
                        "number": 64,
                        "time": 307.89014751249925,
                        "value": 1
                    },
                    {
                        "number": 64,
                        "time": 308.14266078749927,
                        "value": 0
                    },
                    {
                        "number": 64,
                        "time": 308.1847463333326,
                        "value": 1
                    },
                    {
                        "number": 64,
                        "time": 308.4354813458326,
                        "value": 0
                    },
                    {
                        "number": 64,
                        "time": 308.4591915124993,
                        "value": 1
                    },
                    {
                        "number": 64,
                        "time": 308.9980050499993,
                        "value": 0
                    },
                    {
                        "number": 64,
                        "time": 309.0353485624993,
                        "value": 1
                    },
                    {
                        "number": 64,
                        "time": 309.57001282083263,
                        "value": 0
                    },
                    {
                        "number": 64,
                        "time": 309.5972795124993,
                        "value": 1
                    },
                    {
                        "number": 64,
                        "time": 309.72294339583266,
                        "value": 0
                    },
                    {
                        "number": 64,
                        "time": 310.13905682083265,
                        "value": 1
                    },
                    {
                        "number": 64,
                        "time": 310.70810082083267,
                        "value": 0
                    },
                    {
                        "number": 64,
                        "time": 310.73181098749933,
                        "value": 1
                    },
                    {
                        "number": 64,
                        "time": 311.2777375749993,
                        "value": 0
                    },
                    {
                        "number": 64,
                        "time": 311.3216013833327,
                        "value": 1
                    },
                    {
                        "number": 64,
                        "time": 311.56166682083267,
                        "value": 0
                    },
                    {
                        "number": 64,
                        "time": 311.58537698749933,
                        "value": 1
                    },
                    {
                        "number": 64,
                        "time": 311.838483016666,
                        "value": 0
                    },
                    {
                        "number": 64,
                        "time": 311.8770120374993,
                        "value": 1
                    },
                    {
                        "number": 64,
                        "time": 312.4152328208326,
                        "value": 0
                    },
                    {
                        "number": 64,
                        "time": 312.4596893833326,
                        "value": 1
                    },
                    {
                        "number": 64,
                        "time": 312.97597826249927,
                        "value": 0
                    },
                    {
                        "number": 64,
                        "time": 316.4495176791659,
                        "value": 1
                    },
                    {
                        "number": 64,
                        "time": 316.96462104999927,
                        "value": 0
                    },
                    {
                        "number": 64,
                        "time": 317.0321950249993,
                        "value": 1
                    },
                    {
                        "number": 64,
                        "time": 317.53247954166596,
                        "value": 0
                    },
                    {
                        "number": 64,
                        "time": 317.5638955124993,
                        "value": 1
                    },
                    {
                        "number": 64,
                        "time": 317.824114591666,
                        "value": 0
                    },
                    {
                        "number": 64,
                        "time": 317.85671607083265,
                        "value": 1
                    },
                    {
                        "number": 64,
                        "time": 318.1038945583326,
                        "value": 0
                    },
                    {
                        "number": 64,
                        "time": 318.129975741666,
                        "value": 1
                    },
                    {
                        "number": 64,
                        "time": 318.389602066666,
                        "value": 0
                    },
                    {
                        "number": 64,
                        "time": 318.4085701999993,
                        "value": 1
                    },
                    {
                        "number": 64,
                        "time": 318.6693820333326,
                        "value": 0
                    },
                    {
                        "number": 64,
                        "time": 320.9408159999993,
                        "value": 1
                    },
                    {
                        "number": 64,
                        "time": 321.5146020333326,
                        "value": 0
                    },
                    {
                        "number": 64,
                        "time": 321.5910673208326,
                        "value": 1
                    },
                    {
                        "number": 64,
                        "time": 322.0842387874993,
                        "value": 0
                    },
                    {
                        "number": 64,
                        "time": 322.12632433333266,
                        "value": 1
                    },
                    {
                        "number": 64,
                        "time": 322.372910066666,
                        "value": 0
                    },
                    {
                        "number": 64,
                        "time": 322.40432603749935,
                        "value": 1
                    },
                    {
                        "number": 64,
                        "time": 322.6598030833327,
                        "value": 0
                    },
                    {
                        "number": 64,
                        "time": 322.6989248583327,
                        "value": 1
                    },
                    {
                        "number": 64,
                        "time": 322.94491783749936,
                        "value": 0
                    },
                    {
                        "number": 64,
                        "time": 322.9870033833327,
                        "value": 1
                    },
                    {
                        "number": 64,
                        "time": 323.228254329166,
                        "value": 0
                    },
                    {
                        "number": 64,
                        "time": 325.51272888749935,
                        "value": 1
                    },
                    {
                        "number": 64,
                        "time": 325.788952329166,
                        "value": 0
                    },
                    {
                        "number": 64,
                        "time": 325.84348571249933,
                        "value": 1
                    },
                    {
                        "number": 64,
                        "time": 326.07584534583265,
                        "value": 0
                    },
                    {
                        "number": 64,
                        "time": 326.11259610416596,
                        "value": 1
                    },
                    {
                        "number": 64,
                        "time": 326.356218066666,
                        "value": 0
                    },
                    {
                        "number": 64,
                        "time": 326.38526302083267,
                        "value": 1
                    },
                    {
                        "number": 64,
                        "time": 326.633627016666,
                        "value": 0
                    },
                    {
                        "number": 64,
                        "time": 326.6857893833327,
                        "value": 1
                    },
                    {
                        "number": 64,
                        "time": 326.9264475749994,
                        "value": 0
                    },
                    {
                        "number": 64,
                        "time": 326.99046502499937,
                        "value": 1
                    },
                    {
                        "number": 64,
                        "time": 327.21156232916604,
                        "value": 0
                    },
                    {
                        "number": 64,
                        "time": 327.2886203708327,
                        "value": 1
                    },
                    {
                        "number": 64,
                        "time": 327.4948988208327,
                        "value": 0
                    },
                    {
                        "number": 64,
                        "time": 327.5393553833327,
                        "value": 1
                    },
                    {
                        "number": 64,
                        "time": 327.7705295083327,
                        "value": 0
                    },
                    {
                        "number": 64,
                        "time": 330.0455199999993,
                        "value": 1
                    },
                    {
                        "number": 64,
                        "time": 330.3407115749993,
                        "value": 0
                    },
                    {
                        "number": 64,
                        "time": 330.39939423749934,
                        "value": 1
                    },
                    {
                        "number": 64,
                        "time": 330.62523357499936,
                        "value": 0
                    },
                    {
                        "number": 64,
                        "time": 330.695178566666,
                        "value": 1
                    },
                    {
                        "number": 64,
                        "time": 330.90323527916604,
                        "value": 0
                    },
                    {
                        "number": 64,
                        "time": 330.9453208249994,
                        "value": 1
                    },
                    {
                        "number": 64,
                        "time": 331.1883500333327,
                        "value": 0
                    },
                    {
                        "number": 64,
                        "time": 331.2452544333327,
                        "value": 1
                    },
                    {
                        "number": 64,
                        "time": 331.4734647874994,
                        "value": 0
                    },
                    {
                        "number": 64,
                        "time": 331.5143648249994,
                        "value": 1
                    },
                    {
                        "number": 64,
                        "time": 331.7568012791661,
                        "value": 0
                    },
                    {
                        "number": 64,
                        "time": 331.79888682499944,
                        "value": 1
                    },
                    {
                        "number": 64,
                        "time": 332.0448798041661,
                        "value": 0
                    },
                    {
                        "number": 64,
                        "time": 332.07985229999946,
                        "value": 1
                    },
                    {
                        "number": 64,
                        "time": 332.32703078749944,
                        "value": 0
                    },
                    {
                        "number": 64,
                        "time": 332.3507409541661,
                        "value": 1
                    },
                    {
                        "number": 64,
                        "time": 332.6115527874994,
                        "value": 0
                    },
                    {
                        "number": 64,
                        "time": 332.6352629541661,
                        "value": 1
                    },
                    {
                        "number": 64,
                        "time": 332.90022406666606,
                        "value": 0
                    },
                    {
                        "number": 64,
                        "time": 332.92926902083275,
                        "value": 1
                    },
                    {
                        "number": 64,
                        "time": 333.1865243291661,
                        "value": 0
                    },
                    {
                        "number": 64,
                        "time": 333.2120127583328,
                        "value": 1
                    },
                    {
                        "number": 64,
                        "time": 333.4621550166661,
                        "value": 0
                    },
                    {
                        "number": 64,
                        "time": 333.4793448874994,
                        "value": 1
                    },
                    {
                        "number": 64,
                        "time": 333.7514190499994,
                        "value": 0
                    },
                    {
                        "number": 64,
                        "time": 333.77157269166605,
                        "value": 1
                    },
                    {
                        "number": 64,
                        "time": 334.0341627874994,
                        "value": 0
                    },
                    {
                        "number": 64,
                        "time": 334.06142947916607,
                        "value": 1
                    },
                    {
                        "number": 64,
                        "time": 334.32105580416606,
                        "value": 0
                    },
                    {
                        "number": 64,
                        "time": 334.34595147916605,
                        "value": 1
                    },
                    {
                        "number": 64,
                        "time": 334.602021279166,
                        "value": 0
                    },
                    {
                        "number": 64,
                        "time": 334.62513869166605,
                        "value": 1
                    },
                    {
                        "number": 64,
                        "time": 334.88535777083274,
                        "value": 0
                    },
                    {
                        "number": 64,
                        "time": 334.9096606916661,
                        "value": 1
                    },
                    {
                        "number": 64,
                        "time": 335.17402904999943,
                        "value": 0
                    },
                    {
                        "number": 64,
                        "time": 335.20366675833276,
                        "value": 1
                    },
                    {
                        "number": 64,
                        "time": 335.4591438041661,
                        "value": 0
                    },
                    {
                        "number": 64,
                        "time": 335.4804829541661,
                        "value": 1
                    },
                    {
                        "number": 64,
                        "time": 335.7460368208328,
                        "value": 0
                    },
                    {
                        "number": 64,
                        "time": 335.77686003749943,
                        "value": 1
                    },
                    {
                        "number": 64,
                        "time": 336.02759504999943,
                        "value": 0
                    },
                    {
                        "number": 64,
                        "time": 336.05782551249945,
                        "value": 1
                    },
                    {
                        "number": 64,
                        "time": 336.3138953124994,
                        "value": 0
                    },
                    {
                        "number": 64,
                        "time": 336.35598085833277,
                        "value": 1
                    },
                    {
                        "number": 64,
                        "time": 336.60315934583275,
                        "value": 0
                    },
                    {
                        "number": 64,
                        "time": 336.63694633333273,
                        "value": 1
                    },
                    {
                        "number": 64,
                        "time": 336.8740479999994,
                        "value": 0
                    },
                    {
                        "number": 64,
                        "time": 336.9107987583327,
                        "value": 1
                    },
                    {
                        "number": 64,
                        "time": 337.1633120333327,
                        "value": 0
                    },
                    {
                        "number": 64,
                        "time": 337.19294974166604,
                        "value": 1
                    },
                    {
                        "number": 64,
                        "time": 337.44546301666605,
                        "value": 0
                    },
                    {
                        "number": 64,
                        "time": 337.4751007249994,
                        "value": 1
                    },
                    {
                        "number": 64,
                        "time": 337.73294878749937,
                        "value": 0
                    },
                    {
                        "number": 64,
                        "time": 337.76673577499935,
                        "value": 1
                    },
                    {
                        "number": 64,
                        "time": 338.01747078749935,
                        "value": 0
                    },
                    {
                        "number": 64,
                        "time": 338.04414472499934,
                        "value": 1
                    },
                    {
                        "number": 64,
                        "time": 338.3002145249993,
                        "value": 0
                    },
                    {
                        "number": 64,
                        "time": 338.32155367499934,
                        "value": 1
                    },
                    {
                        "number": 64,
                        "time": 338.588885804166,
                        "value": 0
                    },
                    {
                        "number": 64,
                        "time": 338.615559741666,
                        "value": 1
                    },
                    {
                        "number": 64,
                        "time": 338.87814983749934,
                        "value": 0
                    },
                    {
                        "number": 64,
                        "time": 338.9024527583327,
                        "value": 1
                    },
                    {
                        "number": 64,
                        "time": 339.154373279166,
                        "value": 0
                    },
                    {
                        "number": 64,
                        "time": 339.26758932499934,
                        "value": 1
                    },
                    {
                        "number": 64,
                        "time": 340.2948322958327,
                        "value": 0
                    },
                    {
                        "number": 64,
                        "time": 340.38078164999934,
                        "value": 1
                    },
                    {
                        "number": 64,
                        "time": 340.865061804166,
                        "value": 0
                    },
                    {
                        "number": 64,
                        "time": 340.97472132499934,
                        "value": 1
                    },
                    {
                        "number": 64,
                        "time": 341.43351304999936,
                        "value": 0
                    },
                    {
                        "number": 64,
                        "time": 341.5076073208327,
                        "value": 1
                    },
                    {
                        "number": 64,
                        "time": 342.00670632916604,
                        "value": 0
                    },
                    {
                        "number": 64,
                        "time": 342.0766513208327,
                        "value": 1
                    },
                    {
                        "number": 64,
                        "time": 342.57160104999934,
                        "value": 0
                    },
                    {
                        "number": 64,
                        "time": 342.659328666666,
                        "value": 1
                    },
                    {
                        "number": 64,
                        "time": 343.146572591666,
                        "value": 0
                    },
                    {
                        "number": 64,
                        "time": 343.20169872916597,
                        "value": 1
                    },
                    {
                        "number": 64,
                        "time": 343.4287235749993,
                        "value": 0
                    },
                    {
                        "number": 64,
                        "time": 343.4927410249993,
                        "value": 1
                    },
                    {
                        "number": 64,
                        "time": 343.7096890499993,
                        "value": 0
                    },
                    {
                        "number": 64,
                        "time": 343.7908963708327,
                        "value": 1
                    },
                    {
                        "number": 64,
                        "time": 344.2816968208327,
                        "value": 0
                    },
                    {
                        "number": 64,
                        "time": 344.34630702499936,
                        "value": 1
                    },
                    {
                        "number": 64,
                        "time": 344.56799708333267,
                        "value": 0
                    },
                    {
                        "number": 64,
                        "time": 344.624308729166,
                        "value": 1
                    },
                    {
                        "number": 64,
                        "time": 344.844813279166,
                        "value": 0
                    },
                    {
                        "number": 64,
                        "time": 344.90883072916597,
                        "value": 1
                    },
                    {
                        "number": 64,
                        "time": 345.4150427874993,
                        "value": 0
                    },
                    {
                        "number": 64,
                        "time": 345.477874729166,
                        "value": 1
                    },
                    {
                        "number": 64,
                        "time": 345.7013430499993,
                        "value": 0
                    },
                    {
                        "number": 64,
                        "time": 345.755283679166,
                        "value": 1
                    },
                    {
                        "number": 64,
                        "time": 345.98349403333265,
                        "value": 0
                    },
                    {
                        "number": 64,
                        "time": 346.09611732499934,
                        "value": 1
                    },
                    {
                        "number": 64,
                        "time": 347.119211016666,
                        "value": 0
                    },
                    {
                        "number": 64,
                        "time": 347.22590676666596,
                        "value": 1
                    },
                    {
                        "number": 64,
                        "time": 347.69062603333265,
                        "value": 0
                    },
                    {
                        "number": 64,
                        "time": 347.7783536499993,
                        "value": 1
                    },
                    {
                        "number": 64,
                        "time": 348.259077279166,
                        "value": 0
                    },
                    {
                        "number": 64,
                        "time": 348.323094729166,
                        "value": 1
                    },
                    {
                        "number": 64,
                        "time": 348.8328633124993,
                        "value": 0
                    },
                    {
                        "number": 64,
                        "time": 348.89213872916594,
                        "value": 1
                    },
                    {
                        "number": 64,
                        "time": 349.3977580333326,
                        "value": 0
                    },
                    {
                        "number": 64,
                        "time": 349.46770302499925,
                        "value": 1
                    },
                    {
                        "number": 64,
                        "time": 349.9721368208326,
                        "value": 0
                    },
                    {
                        "number": 64,
                        "time": 350.0302267291659,
                        "value": 1
                    },
                    {
                        "number": 64,
                        "time": 350.2584370833326,
                        "value": 0
                    },
                    {
                        "number": 64,
                        "time": 350.32126902499925,
                        "value": 1
                    },
                    {
                        "number": 64,
                        "time": 350.53288226249924,
                        "value": 0
                    },
                    {
                        "number": 64,
                        "time": 350.5921576791659,
                        "value": 1
                    },
                    {
                        "number": 64,
                        "time": 351.1025190166659,
                        "value": 0
                    },
                    {
                        "number": 64,
                        "time": 351.18135532083255,
                        "value": 1
                    },
                    {
                        "number": 64,
                        "time": 351.3971178374992,
                        "value": 0
                    },
                    {
                        "number": 64,
                        "time": 351.4528367291659,
                        "value": 1
                    },
                    {
                        "number": 64,
                        "time": 351.68163983749923,
                        "value": 0
                    },
                    {
                        "number": 64,
                        "time": 351.75039932083257,
                        "value": 1
                    },
                    {
                        "number": 64,
                        "time": 352.24712731249923,
                        "value": 0
                    },
                    {
                        "number": 64,
                        "time": 352.3064027291659,
                        "value": 1
                    },
                    {
                        "number": 64,
                        "time": 352.53283482083253,
                        "value": 0
                    },
                    {
                        "number": 64,
                        "time": 352.59092472916586,
                        "value": 1
                    },
                    {
                        "number": 64,
                        "time": 352.80965101666584,
                        "value": 0
                    },
                    {
                        "number": 64,
                        "time": 352.8262481333325,
                        "value": 1
                    },
                    {
                        "number": 64,
                        "time": 353.8843143208325,
                        "value": 0
                    },
                    {
                        "number": 64,
                        "time": 355.1047951499992,
                        "value": 1
                    },
                    {
                        "number": 64,
                        "time": 355.66198406666587,
                        "value": 0
                    },
                    {
                        "number": 64,
                        "time": 355.7319290583325,
                        "value": 1
                    },
                    {
                        "number": 64,
                        "time": 356.22628603333254,
                        "value": 0
                    },
                    {
                        "number": 64,
                        "time": 356.32231220833256,
                        "value": 1
                    },
                    {
                        "number": 64,
                        "time": 356.7982938041659,
                        "value": 0
                    },
                    {
                        "number": 64,
                        "time": 356.85756922083254,
                        "value": 1
                    },
                    {
                        "number": 64,
                        "time": 357.3649667874992,
                        "value": 0
                    },
                    {
                        "number": 64,
                        "time": 357.4206856791659,
                        "value": 1
                    },
                    {
                        "number": 64,
                        "time": 357.6506742958326,
                        "value": 0
                    },
                    {
                        "number": 64,
                        "time": 357.7253613208326,
                        "value": 1
                    },
                    {
                        "number": 64,
                        "time": 357.9405310833326,
                        "value": 0
                    },
                    {
                        "number": 64,
                        "time": 358.00336302499926,
                        "value": 1
                    },
                    {
                        "number": 64,
                        "time": 358.2226820666659,
                        "value": 0
                    },
                    {
                        "number": 64,
                        "time": 358.28788502499924,
                        "value": 1
                    },
                    {
                        "number": 64,
                        "time": 358.50246203333256,
                        "value": 0
                    },
                    {
                        "number": 64,
                        "time": 358.5789273208326,
                        "value": 1
                    },
                    {
                        "number": 64,
                        "time": 359.0715060333326,
                        "value": 0
                    },
                    {
                        "number": 64,
                        "time": 359.14145102499924,
                        "value": 1
                    },
                    {
                        "number": 64,
                        "time": 359.3607700666659,
                        "value": 0
                    },
                    {
                        "number": 64,
                        "time": 359.4259730249992,
                        "value": 1
                    },
                    {
                        "number": 64,
                        "time": 359.64114278749923,
                        "value": 0
                    },
                    {
                        "number": 64,
                        "time": 359.68145007083257,
                        "value": 1
                    },
                    {
                        "number": 64,
                        "time": 360.20959403333256,
                        "value": 0
                    },
                    {
                        "number": 64,
                        "time": 361.9582188249992,
                        "value": 1
                    },
                    {
                        "number": 64,
                        "time": 362.4869555416659,
                        "value": 0
                    },
                    {
                        "number": 64,
                        "time": 362.5314121041659,
                        "value": 1
                    },
                    {
                        "number": 64,
                        "time": 363.05481403333255,
                        "value": 0
                    },
                    {
                        "number": 64,
                        "time": 363.1087546624992,
                        "value": 1
                    },
                    {
                        "number": 64,
                        "time": 363.3399287874992,
                        "value": 0
                    },
                    {
                        "number": 64,
                        "time": 363.41817233749924,
                        "value": 1
                    },
                    {
                        "number": 64,
                        "time": 363.62978557499923,
                        "value": 0
                    },
                    {
                        "number": 64,
                        "time": 363.7198842083326,
                        "value": 1
                    },
                    {
                        "number": 64,
                        "time": 363.9066017708326,
                        "value": 0
                    },
                    {
                        "number": 64,
                        "time": 363.99610764999926,
                        "value": 1
                    },
                    {
                        "number": 64,
                        "time": 364.19230927916595,
                        "value": 0
                    },
                    {
                        "number": 64,
                        "time": 364.26343977916594,
                        "value": 1
                    },
                    {
                        "number": 64,
                        "time": 365.3309900333326,
                        "value": 0
                    },
                    {
                        "number": 64,
                        "time": 365.4145683708326,
                        "value": 1
                    },
                    {
                        "number": 64,
                        "time": 365.9053688208326,
                        "value": 0
                    },
                    {
                        "number": 64,
                        "time": 365.95634567916596,
                        "value": 1
                    },
                    {
                        "number": 64,
                        "time": 366.46729977083265,
                        "value": 0
                    },
                    {
                        "number": 64,
                        "time": 366.4999012499993,
                        "value": 1
                    },
                    {
                        "number": 64,
                        "time": 367.02923072083263,
                        "value": 0
                    },
                    {
                        "number": 64,
                        "time": 368.7742989874993,
                        "value": 1
                    },
                    {
                        "number": 64,
                        "time": 368.86617588333263,
                        "value": 0
                    },
                    {
                        "number": 64,
                        "time": 369.35164154583265,
                        "value": 1
                    },
                    {
                        "number": 64,
                        "time": 369.88334203333267,
                        "value": 0
                    },
                    {
                        "number": 64,
                        "time": 369.9793682083327,
                        "value": 1
                    },
                    {
                        "number": 64,
                        "time": 370.46009183749936,
                        "value": 0
                    },
                    {
                        "number": 64,
                        "time": 370.53122233749934,
                        "value": 1
                    },
                    {
                        "number": 64,
                        "time": 371.02143003333265,
                        "value": 0
                    },
                    {
                        "number": 64,
                        "time": 371.09789532083266,
                        "value": 1
                    },
                    {
                        "number": 64,
                        "time": 371.31010131249934,
                        "value": 0
                    },
                    {
                        "number": 64,
                        "time": 371.34863033333266,
                        "value": 1
                    },
                    {
                        "number": 64,
                        "time": 371.5928450499993,
                        "value": 0
                    },
                    {
                        "number": 64,
                        "time": 371.6604190249993,
                        "value": 1
                    },
                    {
                        "number": 64,
                        "time": 371.881516329166,
                        "value": 0
                    },
                    {
                        "number": 64,
                        "time": 371.95857437083265,
                        "value": 1
                    },
                    {
                        "number": 64,
                        "time": 372.1565542624993,
                        "value": 0
                    },
                    {
                        "number": 64,
                        "time": 372.24309637083263,
                        "value": 1
                    },
                    {
                        "number": 64,
                        "time": 372.73508232916595,
                        "value": 0
                    },
                    {
                        "number": 64,
                        "time": 372.79850702499925,
                        "value": 1
                    },
                    {
                        "number": 64,
                        "time": 373.0178260666659,
                        "value": 0
                    },
                    {
                        "number": 64,
                        "time": 373.07650872916594,
                        "value": 1
                    },
                    {
                        "number": 64,
                        "time": 373.2946422624993,
                        "value": 0
                    },
                    {
                        "number": 64,
                        "time": 373.37525682916595,
                        "value": 1
                    },
                    {
                        "number": 64,
                        "time": 374.6318956624993,
                        "value": 0
                    },
                    {
                        "number": 64,
                        "time": 376.7818150249993,
                        "value": 1
                    },
                    {
                        "number": 64,
                        "time": 378.0011103458326,
                        "value": 0
                    },
                    {
                        "number": 64,
                        "time": 379.08051568333264,
                        "value": 1
                    },
                    {
                        "number": 64,
                        "time": 380.2915124458326,
                        "value": 0
                    },
                    {
                        "number": 64,
                        "time": 386.9499199999993,
                        "value": 0
                    },
                    {
                        "number": 64,
                        "time": 387.8117845583326,
                        "value": 1
                    },
                    {
                        "number": 64,
                        "time": 388.08800799999926,
                        "value": 0
                    },
                    {
                        "number": 64,
                        "time": 388.1383921041659,
                        "value": 1
                    },
                    {
                        "number": 64,
                        "time": 388.37252999999924,
                        "value": 0
                    },
                    {
                        "number": 64,
                        "time": 388.4229141041659,
                        "value": 1
                    },
                    {
                        "number": 64,
                        "time": 388.6819476749992,
                        "value": 0
                    },
                    {
                        "number": 64,
                        "time": 388.74892889583253,
                        "value": 1
                    },
                    {
                        "number": 64,
                        "time": 388.9581711166659,
                        "value": 0
                    },
                    {
                        "number": 64,
                        "time": 389.0251523374992,
                        "value": 1
                    },
                    {
                        "number": 64,
                        "time": 389.2260959999992,
                        "value": 0
                    },
                    {
                        "number": 64,
                        "time": 389.28714967916585,
                        "value": 1
                    },
                    {
                        "number": 64,
                        "time": 389.38080483749917,
                        "value": 0
                    },
                    {
                        "number": 64,
                        "time": 389.42703966249917,
                        "value": 1
                    },
                    {
                        "number": 64,
                        "time": 390.08381127916584,
                        "value": 0
                    },
                    {
                        "number": 64,
                        "time": 390.1270823333325,
                        "value": 1
                    },
                    {
                        "number": 64,
                        "time": 390.36418399999917,
                        "value": 0
                    },
                    {
                        "number": 64,
                        "time": 390.43946377916586,
                        "value": 1
                    },
                    {
                        "number": 64,
                        "time": 391.22604855833254,
                        "value": 0
                    },
                    {
                        "number": 64,
                        "time": 391.28473122083255,
                        "value": 1
                    },
                    {
                        "number": 64,
                        "time": 391.5022719999992,
                        "value": 0
                    },
                    {
                        "number": 64,
                        "time": 391.5775517791659,
                        "value": 1
                    },
                    {
                        "number": 64,
                        "time": 391.7992418374992,
                        "value": 0
                    },
                    {
                        "number": 64,
                        "time": 391.87867089583256,
                        "value": 1
                    },
                    {
                        "number": 64,
                        "time": 392.0808000666659,
                        "value": 0
                    },
                    {
                        "number": 64,
                        "time": 392.1969798833326,
                        "value": 1
                    },
                    {
                        "number": 64,
                        "time": 392.36295104999925,
                        "value": 0
                    },
                    {
                        "number": 64,
                        "time": 392.4145206624992,
                        "value": 1
                    },
                    {
                        "number": 64,
                        "time": 392.64035999999925,
                        "value": 0
                    },
                    {
                        "number": 64,
                        "time": 392.70793397499926,
                        "value": 1
                    },
                    {
                        "number": 64,
                        "time": 393.49392599999925,
                        "value": 0
                    },
                    {
                        "number": 64,
                        "time": 393.56149997499926,
                        "value": 1
                    },
                    {
                        "number": 64,
                        "time": 393.7784479999993,
                        "value": 0
                    },
                    {
                        "number": 64,
                        "time": 393.8454292208326,
                        "value": 1
                    },
                    {
                        "number": 64,
                        "time": 394.0771960999993,
                        "value": 0
                    },
                    {
                        "number": 64,
                        "time": 394.13824977916596,
                        "value": 1
                    },
                    {
                        "number": 64,
                        "time": 394.35993983749927,
                        "value": 0
                    },
                    {
                        "number": 64,
                        "time": 394.4476674541659,
                        "value": 1
                    },
                    {
                        "number": 64,
                        "time": 394.63734878749926,
                        "value": 0
                    },
                    {
                        "number": 64,
                        "time": 394.68239810416594,
                        "value": 1
                    },
                    {
                        "number": 64,
                        "time": 394.92542731249927,
                        "value": 0
                    },
                    {
                        "number": 64,
                        "time": 395.00011433749927,
                        "value": 1
                    },
                    {
                        "number": 64,
                        "time": 395.4944713124993,
                        "value": 0
                    },
                    {
                        "number": 64,
                        "time": 398.0545765583326,
                        "value": 1
                    },
                    {
                        "number": 64,
                        "time": 398.3307999999993,
                        "value": 0
                    },
                    {
                        "number": 64,
                        "time": 398.3811841041659,
                        "value": 1
                    },
                    {
                        "number": 64,
                        "time": 398.61532199999925,
                        "value": 0
                    },
                    {
                        "number": 64,
                        "time": 398.6657061041659,
                        "value": 1
                    },
                    {
                        "number": 64,
                        "time": 398.9069570499992,
                        "value": 0
                    },
                    {
                        "number": 64,
                        "time": 398.99172089583254,
                        "value": 1
                    },
                    {
                        "number": 64,
                        "time": 399.19799934583256,
                        "value": 0
                    },
                    {
                        "number": 64,
                        "time": 399.2679443374992,
                        "value": 1
                    },
                    {
                        "number": 64,
                        "time": 399.4688879999992,
                        "value": 0
                    },
                    {
                        "number": 64,
                        "time": 399.52994167916586,
                        "value": 1
                    },
                    {
                        "number": 64,
                        "time": 399.61885480416584,
                        "value": 0
                    },
                    {
                        "number": 64,
                        "time": 399.6781302208325,
                        "value": 1
                    },
                    {
                        "number": 64,
                        "time": 400.3266032791658,
                        "value": 0
                    },
                    {
                        "number": 64,
                        "time": 400.36987433333246,
                        "value": 1
                    },
                    {
                        "number": 64,
                        "time": 400.6069759999991,
                        "value": 0
                    },
                    {
                        "number": 64,
                        "time": 400.6822557791658,
                        "value": 1
                    },
                    {
                        "number": 64,
                        "time": 401.4688405583325,
                        "value": 0
                    },
                    {
                        "number": 64,
                        "time": 401.5275232208325,
                        "value": 1
                    },
                    {
                        "number": 64,
                        "time": 401.7462495083325,
                        "value": 0
                    },
                    {
                        "number": 64,
                        "time": 401.8203437791658,
                        "value": 1
                    },
                    {
                        "number": 64,
                        "time": 402.0420338374991,
                        "value": 0
                    },
                    {
                        "number": 64,
                        "time": 402.12146289583245,
                        "value": 1
                    },
                    {
                        "number": 64,
                        "time": 402.34730223333247,
                        "value": 0
                    },
                    {
                        "number": 64,
                        "time": 402.43977188333247,
                        "value": 1
                    },
                    {
                        "number": 64,
                        "time": 402.6116705916658,
                        "value": 0
                    },
                    {
                        "number": 64,
                        "time": 402.6573126624991,
                        "value": 1
                    },
                    {
                        "number": 64,
                        "time": 402.88315199999914,
                        "value": 0
                    },
                    {
                        "number": 64,
                        "time": 402.95072597499916,
                        "value": 1
                    },
                    {
                        "number": 64,
                        "time": 403.73671799999914,
                        "value": 0
                    },
                    {
                        "number": 64,
                        "time": 403.80429197499916,
                        "value": 1
                    },
                    {
                        "number": 64,
                        "time": 404.0212399999992,
                        "value": 0
                    },
                    {
                        "number": 64,
                        "time": 404.0965197791659,
                        "value": 1
                    },
                    {
                        "number": 64,
                        "time": 404.3182098374992,
                        "value": 0
                    },
                    {
                        "number": 64,
                        "time": 404.39763889583253,
                        "value": 1
                    },
                    {
                        "number": 64,
                        "time": 404.5997680666659,
                        "value": 0
                    },
                    {
                        "number": 64,
                        "time": 404.71594788333255,
                        "value": 1
                    },
                    {
                        "number": 64,
                        "time": 404.8878465916659,
                        "value": 0
                    },
                    {
                        "number": 64,
                        "time": 404.9334886624992,
                        "value": 1
                    },
                    {
                        "number": 64,
                        "time": 405.1593279999992,
                        "value": 0
                    },
                    {
                        "number": 64,
                        "time": 405.22690197499924,
                        "value": 1
                    },
                    {
                        "number": 64,
                        "time": 406.0128939999992,
                        "value": 0
                    },
                    {
                        "number": 64,
                        "time": 406.08046797499924,
                        "value": 1
                    },
                    {
                        "number": 64,
                        "time": 406.29741599999926,
                        "value": 0
                    },
                    {
                        "number": 64,
                        "time": 406.37269577916595,
                        "value": 1
                    },
                    {
                        "number": 64,
                        "time": 406.59438583749926,
                        "value": 0
                    },
                    {
                        "number": 64,
                        "time": 406.6738148958326,
                        "value": 1
                    },
                    {
                        "number": 64,
                        "time": 406.87594406666597,
                        "value": 0
                    },
                    {
                        "number": 64,
                        "time": 406.9921238833326,
                        "value": 1
                    },
                    {
                        "number": 64,
                        "time": 407.16402259166597,
                        "value": 0
                    },
                    {
                        "number": 64,
                        "time": 407.2096646624993,
                        "value": 1
                    },
                    {
                        "number": 64,
                        "time": 407.4355039999993,
                        "value": 0
                    },
                    {
                        "number": 64,
                        "time": 407.5030779749993,
                        "value": 1
                    },
                    {
                        "number": 64,
                        "time": 408.0045479999993,
                        "value": 0
                    },
                    {
                        "number": 64,
                        "time": 409.4407913458327,
                        "value": 1
                    },
                    {
                        "number": 64,
                        "time": 409.7182002958327,
                        "value": 0
                    },
                    {
                        "number": 64,
                        "time": 409.731833641666,
                        "value": 1
                    },
                    {
                        "number": 64,
                        "time": 410.01042809999933,
                        "value": 0
                    },
                    {
                        "number": 64,
                        "time": 410.0371020374993,
                        "value": 1
                    },
                    {
                        "number": 64,
                        "time": 410.29080082083266,
                        "value": 0
                    },
                    {
                        "number": 64,
                        "time": 410.31806751249934,
                        "value": 1
                    },
                    {
                        "number": 64,
                        "time": 410.56820977083265,
                        "value": 0
                    },
                    {
                        "number": 64,
                        "time": 410.588956166666,
                        "value": 1
                    },
                    {
                        "number": 64,
                        "time": 410.8497679999993,
                        "value": 0
                    },
                    {
                        "number": 64,
                        "time": 410.877034691666,
                        "value": 1
                    },
                    {
                        "number": 64,
                        "time": 411.714596329166,
                        "value": 0
                    },
                    {
                        "number": 64,
                        "time": 411.764387679166,
                        "value": 1
                    },
                    {
                        "number": 64,
                        "time": 411.98785599999934,
                        "value": 0
                    },
                    {
                        "number": 64,
                        "time": 412.011566166666,
                        "value": 1
                    },
                    {
                        "number": 64,
                        "time": 412.8449785249993,
                        "value": 0
                    },
                    {
                        "number": 64,
                        "time": 412.86868869166597,
                        "value": 1
                    },
                    {
                        "number": 64,
                        "time": 413.12712950833264,
                        "value": 0
                    },
                    {
                        "number": 64,
                        "time": 413.15617446249934,
                        "value": 1
                    },
                    {
                        "number": 64,
                        "time": 413.98306652499934,
                        "value": 0
                    },
                    {
                        "number": 64,
                        "time": 414.02041003749935,
                        "value": 1
                    },
                    {
                        "number": 64,
                        "time": 414.266403016666,
                        "value": 0
                    },
                    {
                        "number": 64,
                        "time": 414.3114523333327,
                        "value": 1
                    },
                    {
                        "number": 64,
                        "time": 414.55863082083266,
                        "value": 0
                    },
                    {
                        "number": 64,
                        "time": 414.5995308583327,
                        "value": 1
                    },
                    {
                        "number": 64,
                        "time": 414.8419673124994,
                        "value": 0
                    },
                    {
                        "number": 64,
                        "time": 414.8704195124994,
                        "value": 1
                    },
                    {
                        "number": 64,
                        "time": 415.1211545249994,
                        "value": 0
                    },
                    {
                        "number": 64,
                        "time": 415.141308166666,
                        "value": 1
                    },
                    {
                        "number": 64,
                        "time": 415.4139750833327,
                        "value": 0
                    },
                    {
                        "number": 64,
                        "time": 415.44657656249933,
                        "value": 1
                    },
                    {
                        "number": 64,
                        "time": 415.69138403333267,
                        "value": 0
                    },
                    {
                        "number": 64,
                        "time": 415.72754203749935,
                        "value": 1
                    },
                    {
                        "number": 64,
                        "time": 415.9759060333327,
                        "value": 0
                    },
                    {
                        "number": 64,
                        "time": 416.0120640374994,
                        "value": 1
                    },
                    {
                        "number": 64,
                        "time": 416.5419862624994,
                        "value": 0
                    },
                    {
                        "number": 64,
                        "time": 416.58466456249937,
                        "value": 1
                    },
                    {
                        "number": 64,
                        "time": 417.39910878749936,
                        "value": 0
                    },
                    {
                        "number": 64,
                        "time": 417.43467403749935,
                        "value": 1
                    },
                    {
                        "number": 64,
                        "time": 417.682445279166,
                        "value": 0
                    },
                    {
                        "number": 64,
                        "time": 417.71208298749934,
                        "value": 1
                    },
                    {
                        "number": 64,
                        "time": 418.5419388208327,
                        "value": 0
                    },
                    {
                        "number": 64,
                        "time": 418.5792823333327,
                        "value": 1
                    },
                    {
                        "number": 64,
                        "time": 418.81875501666605,
                        "value": 0
                    },
                    {
                        "number": 64,
                        "time": 418.8537275124994,
                        "value": 1
                    },
                    {
                        "number": 64,
                        "time": 419.39728308333275,
                        "value": 0
                    },
                    {
                        "number": 64,
                        "time": 419.4500382041661,
                        "value": 1
                    },
                    {
                        "number": 64,
                        "time": 419.96454882083276,
                        "value": 0
                    },
                    {
                        "number": 64,
                        "time": 419.9882589874994,
                        "value": 1
                    },
                    {
                        "number": 64,
                        "time": 420.81811482083276,
                        "value": 0
                    },
                    {
                        "number": 64,
                        "time": 420.85545833333276,
                        "value": 1
                    },
                    {
                        "number": 64,
                        "time": 421.0996730499994,
                        "value": 0
                    },
                    {
                        "number": 64,
                        "time": 421.1334600374994,
                        "value": 1
                    },
                    {
                        "number": 64,
                        "time": 421.6651605249994,
                        "value": 0
                    },
                    {
                        "number": 64,
                        "time": 421.7191011541661,
                        "value": 1
                    },
                    {
                        "number": 64,
                        "time": 422.23539003333275,
                        "value": 0
                    },
                    {
                        "number": 64,
                        "time": 422.26028570833273,
                        "value": 1
                    },
                    {
                        "number": 64,
                        "time": 422.8044340333327,
                        "value": 0
                    },
                    {
                        "number": 64,
                        "time": 422.82518042916604,
                        "value": 1
                    },
                    {
                        "number": 64,
                        "time": 423.37347803333273,
                        "value": 0
                    },
                    {
                        "number": 64,
                        "time": 423.39422442916606,
                        "value": 1
                    },
                    {
                        "number": 64,
                        "time": 423.9454858041661,
                        "value": 0
                    },
                    {
                        "number": 64,
                        "time": 423.9733452499994,
                        "value": 1
                    },
                    {
                        "number": 64,
                        "time": 424.5133442958327,
                        "value": 0
                    },
                    {
                        "number": 64,
                        "time": 424.5299414124994,
                        "value": 1
                    },
                    {
                        "number": 64,
                        "time": 425.0871303291661,
                        "value": 0
                    },
                    {
                        "number": 64,
                        "time": 425.1096549874994,
                        "value": 1
                    },
                    {
                        "number": 64,
                        "time": 425.6532105583328,
                        "value": 0
                    },
                    {
                        "number": 64,
                        "time": 425.6704004291661,
                        "value": 1
                    },
                    {
                        "number": 64,
                        "time": 426.22758934583277,
                        "value": 0
                    },
                    {
                        "number": 64,
                        "time": 426.2578198083328,
                        "value": 1
                    },
                    {
                        "number": 64,
                        "time": 426.79307682083277,
                        "value": 0
                    },
                    {
                        "number": 64,
                        "time": 426.8043391499994,
                        "value": 1
                    },
                    {
                        "number": 64,
                        "time": 427.35500777083274,
                        "value": 0
                    },
                    {
                        "number": 64,
                        "time": 427.3876092499994,
                        "value": 1
                    },
                    {
                        "number": 64,
                        "time": 427.9299793124994,
                        "value": 0
                    },
                    {
                        "number": 64,
                        "time": 427.9548749874994,
                        "value": 1
                    },
                    {
                        "number": 64,
                        "time": 428.4942812791661,
                        "value": 0
                    },
                    {
                        "number": 64,
                        "time": 428.5197697083328,
                        "value": 1
                    },
                    {
                        "number": 64,
                        "time": 429.0621397708328,
                        "value": 0
                    },
                    {
                        "number": 64,
                        "time": 429.1000760374995,
                        "value": 1
                    },
                    {
                        "number": 64,
                        "time": 429.6353330499995,
                        "value": 0
                    },
                    {
                        "number": 64,
                        "time": 429.66912003749945,
                        "value": 1
                    },
                    {
                        "number": 64,
                        "time": 430.1996350166661,
                        "value": 0
                    },
                    {
                        "number": 64,
                        "time": 430.2363857749994,
                        "value": 1
                    },
                    {
                        "number": 64,
                        "time": 430.7740138041661,
                        "value": 0
                    },
                    {
                        "number": 64,
                        "time": 430.8107645624994,
                        "value": 1
                    },
                    {
                        "number": 64,
                        "time": 431.3371302624994,
                        "value": 0
                    },
                    {
                        "number": 64,
                        "time": 431.38217957916606,
                        "value": 1
                    },
                    {
                        "number": 64,
                        "time": 432.2013658374994,
                        "value": 0
                    },
                    {
                        "number": 64,
                        "time": 432.23574557916606,
                        "value": 1
                    },
                    {
                        "number": 64,
                        "time": 432.4823313124994,
                        "value": 0
                    },
                    {
                        "number": 64,
                        "time": 432.5072269874994,
                        "value": 1
                    },
                    {
                        "number": 64,
                        "time": 432.76448229583275,
                        "value": 0
                    },
                    {
                        "number": 64,
                        "time": 432.7958982666661,
                        "value": 1
                    },
                    {
                        "number": 64,
                        "time": 433.05196806666606,
                        "value": 0
                    },
                    {
                        "number": 64,
                        "time": 433.08634780833273,
                        "value": 1
                    },
                    {
                        "number": 64,
                        "time": 433.3347118041661,
                        "value": 0
                    },
                    {
                        "number": 64,
                        "time": 433.3732408249994,
                        "value": 1
                    },
                    {
                        "number": 64,
                        "time": 433.6133062624994,
                        "value": 0
                    },
                    {
                        "number": 64,
                        "time": 433.65361354583274,
                        "value": 1
                    },
                    {
                        "number": 64,
                        "time": 433.73719188333274,
                        "value": 0
                    },
                    {
                        "number": 64,
                        "time": 433.78520497083275,
                        "value": 1
                    },
                    {
                        "number": 64,
                        "time": 434.4692432791661,
                        "value": 0
                    },
                    {
                        "number": 64,
                        "time": 434.5030302666661,
                        "value": 1
                    },
                    {
                        "number": 64,
                        "time": 434.7549507874994,
                        "value": 0
                    },
                    {
                        "number": 64,
                        "time": 434.80414938333274,
                        "value": 1
                    },
                    {
                        "number": 64,
                        "time": 435.0424365583327,
                        "value": 0
                    },
                    {
                        "number": 64,
                        "time": 435.0928206624994,
                        "value": 1
                    },
                    {
                        "number": 64,
                        "time": 435.33170059166605,
                        "value": 0
                    },
                    {
                        "number": 64,
                        "time": 435.3648948249994,
                        "value": 1
                    },
                    {
                        "number": 64,
                        "time": 435.6144443291661,
                        "value": 0
                    },
                    {
                        "number": 64,
                        "time": 435.6618646624994,
                        "value": 1
                    },
                    {
                        "number": 64,
                        "time": 435.8936315416661,
                        "value": 0
                    },
                    {
                        "number": 64,
                        "time": 435.91734170833274,
                        "value": 1
                    },
                    {
                        "number": 64,
                        "time": 436.1823028208327,
                        "value": 0
                    },
                    {
                        "number": 64,
                        "time": 436.2060129874994,
                        "value": 1
                    },
                    {
                        "number": 64,
                        "time": 436.4650465583327,
                        "value": 0
                    },
                    {
                        "number": 64,
                        "time": 436.5112813833327,
                        "value": 1
                    },
                    {
                        "number": 64,
                        "time": 436.75193957499937,
                        "value": 0
                    },
                    {
                        "number": 64,
                        "time": 436.7999526624994,
                        "value": 1
                    },
                    {
                        "number": 64,
                        "time": 437.02816301666604,
                        "value": 0
                    },
                    {
                        "number": 64,
                        "time": 437.06372826666603,
                        "value": 1
                    },
                    {
                        "number": 64,
                        "time": 437.32276183749934,
                        "value": 0
                    },
                    {
                        "number": 64,
                        "time": 437.385593779166,
                        "value": 1
                    },
                    {
                        "number": 64,
                        "time": 437.60313455833267,
                        "value": 0
                    },
                    {
                        "number": 64,
                        "time": 437.64107082499936,
                        "value": 1
                    },
                    {
                        "number": 64,
                        "time": 437.89180583749936,
                        "value": 0
                    },
                    {
                        "number": 64,
                        "time": 437.91729426666603,
                        "value": 1
                    },
                    {
                        "number": 64,
                        "time": 438.1656582624994,
                        "value": 0
                    },
                    {
                        "number": 64,
                        "time": 438.18759016666604,
                        "value": 1
                    },
                    {
                        "number": 64,
                        "time": 438.45966432916606,
                        "value": 0
                    },
                    {
                        "number": 64,
                        "time": 438.4993788583327,
                        "value": 1
                    },
                    {
                        "number": 64,
                        "time": 438.73648052499937,
                        "value": 0
                    },
                    {
                        "number": 64,
                        "time": 438.7667109874994,
                        "value": 1
                    },
                    {
                        "number": 64,
                        "time": 439.02159527916604,
                        "value": 0
                    },
                    {
                        "number": 64,
                        "time": 439.05834603749935,
                        "value": 1
                    },
                    {
                        "number": 64,
                        "time": 439.3067100333327,
                        "value": 0
                    },
                    {
                        "number": 64,
                        "time": 439.34820282499936,
                        "value": 1
                    },
                    {
                        "number": 64,
                        "time": 439.59597406666603,
                        "value": 0
                    },
                    {
                        "number": 64,
                        "time": 439.6410233833327,
                        "value": 1
                    },
                    {
                        "number": 64,
                        "time": 439.88049606666607,
                        "value": 0
                    },
                    {
                        "number": 64,
                        "time": 439.9462917791661,
                        "value": 1
                    },
                    {
                        "number": 64,
                        "time": 440.1596832791661,
                        "value": 0
                    },
                    {
                        "number": 64,
                        "time": 440.2142166624994,
                        "value": 1
                    },
                    {
                        "number": 64,
                        "time": 440.44301977083273,
                        "value": 0
                    },
                    {
                        "number": 64,
                        "time": 440.4945893833327,
                        "value": 1
                    },
                    {
                        "number": 64,
                        "time": 440.73406206666607,
                        "value": 0
                    },
                    {
                        "number": 64,
                        "time": 440.7832606624994,
                        "value": 1
                    },
                    {
                        "number": 64,
                        "time": 441.01976957499943,
                        "value": 0
                    },
                    {
                        "number": 64,
                        "time": 441.0636333833328,
                        "value": 1
                    },
                    {
                        "number": 64,
                        "time": 441.30192055833277,
                        "value": 0
                    },
                    {
                        "number": 64,
                        "time": 441.33985682499946,
                        "value": 1
                    },
                    {
                        "number": 64,
                        "time": 441.57992226249945,
                        "value": 0
                    },
                    {
                        "number": 64,
                        "time": 441.63682666249946,
                        "value": 1
                    },
                    {
                        "number": 64,
                        "time": 442.72038127916613,
                        "value": 0
                    },
                    {
                        "number": 64,
                        "time": 442.77906394166615,
                        "value": 1
                    },
                    {
                        "number": 64,
                        "time": 443.57750380416616,
                        "value": 0
                    },
                    {
                        "number": 64,
                        "time": 443.6284806624995,
                        "value": 1
                    },
                    {
                        "number": 64,
                        "time": 443.85669101666616,
                        "value": 0
                    },
                    {
                        "number": 64,
                        "time": 443.8987765624995,
                        "value": 1
                    },
                    {
                        "number": 64,
                        "time": 444.7114425249995,
                        "value": 0
                    },
                    {
                        "number": 64,
                        "time": 444.7588628583328,
                        "value": 1
                    },
                    {
                        "number": 64,
                        "time": 444.99596452499947,
                        "value": 0
                    },
                    {
                        "number": 64,
                        "time": 445.0261949874995,
                        "value": 1
                    },
                    {
                        "number": 64,
                        "time": 445.5733070833328,
                        "value": 0
                    },
                    {
                        "number": 64,
                        "time": 445.8702769208328,
                        "value": 1
                    },
                    {
                        "number": 64,
                        "time": 446.13227426249944,
                        "value": 0
                    },
                    {
                        "number": 64,
                        "time": 447.0676403374994,
                        "value": 1
                    },
                    {
                        "number": 64,
                        "time": 447.2810318374994,
                        "value": 0
                    },
                    {
                        "number": 64,
                        "time": 447.3189681041661,
                        "value": 1
                    },
                    {
                        "number": 64,
                        "time": 447.8459265583328,
                        "value": 0
                    },
                    {
                        "number": 64,
                        "time": 447.8921613833328,
                        "value": 1
                    },
                    {
                        "number": 64,
                        "time": 448.13163406666615,
                        "value": 0
                    },
                    {
                        "number": 64,
                        "time": 448.1808326624995,
                        "value": 1
                    },
                    {
                        "number": 64,
                        "time": 448.40845026249946,
                        "value": 0
                    },
                    {
                        "number": 64,
                        "time": 448.4487575458328,
                        "value": 1
                    },
                    {
                        "number": 64,
                        "time": 448.9840145583328,
                        "value": 0
                    },
                    {
                        "number": 64,
                        "time": 449.0261001041661,
                        "value": 1
                    },
                    {
                        "number": 64,
                        "time": 449.26912931249944,
                        "value": 0
                    },
                    {
                        "number": 64,
                        "time": 449.31477138333275,
                        "value": 1
                    },
                    {
                        "number": 64,
                        "time": 449.54653826249944,
                        "value": 0
                    },
                    {
                        "number": 64,
                        "time": 449.58388177499944,
                        "value": 1
                    },
                    {
                        "number": 64,
                        "time": 449.83461678749944,
                        "value": 0
                    },
                    {
                        "number": 64,
                        "time": 449.8660327583328,
                        "value": 1
                    },
                    {
                        "number": 64,
                        "time": 450.1191387874994,
                        "value": 0
                    },
                    {
                        "number": 64,
                        "time": 450.15588954583274,
                        "value": 1
                    },
                    {
                        "number": 64,
                        "time": 450.40840282083275,
                        "value": 0
                    },
                    {
                        "number": 64,
                        "time": 450.4327057416661,
                        "value": 1
                    },
                    {
                        "number": 64,
                        "time": 450.6852190166661,
                        "value": 0
                    },
                    {
                        "number": 64,
                        "time": 450.7124857083328,
                        "value": 1
                    },
                    {
                        "number": 64,
                        "time": 450.9727047874995,
                        "value": 0
                    },
                    {
                        "number": 64,
                        "time": 450.9922656749995,
                        "value": 1
                    },
                    {
                        "number": 64,
                        "time": 451.25722678749946,
                        "value": 0
                    },
                    {
                        "number": 64,
                        "time": 451.2963485624995,
                        "value": 1
                    },
                    {
                        "number": 64,
                        "time": 451.5488618374995,
                        "value": 0
                    },
                    {
                        "number": 64,
                        "time": 451.5660517083328,
                        "value": 1
                    },
                    {
                        "number": 64,
                        "time": 451.8250852791661,
                        "value": 0
                    },
                    {
                        "number": 64,
                        "time": 451.8624287916661,
                        "value": 1
                    },
                    {
                        "number": 64,
                        "time": 452.40361334583275,
                        "value": 0
                    },
                    {
                        "number": 64,
                        "time": 452.46881630416607,
                        "value": 1
                    },
                    {
                        "number": 64,
                        "time": 452.68754259166604,
                        "value": 0
                    },
                    {
                        "number": 64,
                        "time": 452.7385194499994,
                        "value": 1
                    },
                    {
                        "number": 64,
                        "time": 452.9608022624994,
                        "value": 0
                    },
                    {
                        "number": 64,
                        "time": 453.009408104166,
                        "value": 1
                    },
                    {
                        "number": 64,
                        "time": 453.53340278749937,
                        "value": 0
                    },
                    {
                        "number": 64,
                        "time": 453.590899941666,
                        "value": 1
                    },
                    {
                        "number": 64,
                        "time": 453.8208885583327,
                        "value": 0
                    },
                    {
                        "number": 64,
                        "time": 453.862974104166,
                        "value": 1
                    },
                    {
                        "number": 64,
                        "time": 454.09889026249937,
                        "value": 0
                    },
                    {
                        "number": 64,
                        "time": 454.1682424999994,
                        "value": 1
                    },
                    {
                        "number": 64,
                        "time": 454.6703052791661,
                        "value": 0
                    },
                    {
                        "number": 64,
                        "time": 454.71239082499943,
                        "value": 1
                    },
                    {
                        "number": 64,
                        "time": 454.9601620666661,
                        "value": 0
                    },
                    {
                        "number": 64,
                        "time": 455.0010621041661,
                        "value": 1
                    },
                    {
                        "number": 64,
                        "time": 455.23757101666615,
                        "value": 0
                    },
                    {
                        "number": 64,
                        "time": 455.2772855458328,
                        "value": 1
                    },
                    {
                        "number": 64,
                        "time": 455.52387127916614,
                        "value": 0
                    },
                    {
                        "number": 64,
                        "time": 455.55173072499946,
                        "value": 1
                    },
                    {
                        "number": 64,
                        "time": 455.8089860333328,
                        "value": 0
                    },
                    {
                        "number": 64,
                        "time": 455.83151069166615,
                        "value": 1
                    },
                    {
                        "number": 64,
                        "time": 456.09884282083283,
                        "value": 0
                    },
                    {
                        "number": 64,
                        "time": 456.13085154583285,
                        "value": 1
                    },
                    {
                        "number": 64,
                        "time": 456.3786227874995,
                        "value": 0
                    },
                    {
                        "number": 64,
                        "time": 456.4076677416662,
                        "value": 1
                    },
                    {
                        "number": 64,
                        "time": 456.6678868208329,
                        "value": 0
                    },
                    {
                        "number": 64,
                        "time": 456.6969317749996,
                        "value": 1
                    },
                    {
                        "number": 64,
                        "time": 456.9482595416663,
                        "value": 0
                    },
                    {
                        "number": 64,
                        "time": 456.97434072499965,
                        "value": 1
                    },
                    {
                        "number": 64,
                        "time": 457.2292250166663,
                        "value": 0
                    },
                    {
                        "number": 64,
                        "time": 457.27131056249965,
                        "value": 1
                    },
                    {
                        "number": 64,
                        "time": 457.5155252791663,
                        "value": 0
                    },
                    {
                        "number": 64,
                        "time": 457.5617601041663,
                        "value": 1
                    },
                    {
                        "number": 64,
                        "time": 458.0928678374996,
                        "value": 0
                    },
                    {
                        "number": 64,
                        "time": 458.1391026624996,
                        "value": 1
                    },
                    {
                        "number": 64,
                        "time": 458.37324055833295,
                        "value": 0
                    },
                    {
                        "number": 64,
                        "time": 458.4153261041663,
                        "value": 1
                    },
                    {
                        "number": 64,
                        "time": 458.6518350166663,
                        "value": 0
                    },
                    {
                        "number": 64,
                        "time": 458.69036403749965,
                        "value": 1
                    },
                    {
                        "number": 64,
                        "time": 459.2244355416663,
                        "value": 0
                    },
                    {
                        "number": 64,
                        "time": 459.27304138333295,
                        "value": 1
                    },
                    {
                        "number": 64,
                        "time": 459.51310682083295,
                        "value": 0
                    },
                    {
                        "number": 64,
                        "time": 459.55756338333293,
                        "value": 1
                    },
                    {
                        "number": 64,
                        "time": 459.7911085249996,
                        "value": 0
                    },
                    {
                        "number": 64,
                        "time": 459.8320085624996,
                        "value": 1
                    },
                    {
                        "number": 64,
                        "time": 460.3613380333329,
                        "value": 0
                    },
                    {
                        "number": 64,
                        "time": 460.3903829874996,
                        "value": 1
                    },
                    {
                        "number": 64,
                        "time": 460.64526727916626,
                        "value": 0
                    },
                    {
                        "number": 64,
                        "time": 460.6855745624996,
                        "value": 1
                    },
                    {
                        "number": 64,
                        "time": 460.9345313124996,
                        "value": 0
                    },
                    {
                        "number": 64,
                        "time": 460.98313715416623,
                        "value": 1
                    },
                    {
                        "number": 64,
                        "time": 461.2208315749996,
                        "value": 0
                    },
                    {
                        "number": 64,
                        "time": 461.2611388583329,
                        "value": 1
                    },
                    {
                        "number": 64,
                        "time": 461.5035753124996,
                        "value": 0
                    },
                    {
                        "number": 64,
                        "time": 461.54210433333293,
                        "value": 1
                    },
                    {
                        "number": 64,
                        "time": 461.7904683291663,
                        "value": 0
                    },
                    {
                        "number": 64,
                        "time": 461.81654951249965,
                        "value": 1
                    },
                    {
                        "number": 64,
                        "time": 462.073804820833,
                        "value": 0
                    },
                    {
                        "number": 64,
                        "time": 462.1081845624997,
                        "value": 1
                    },
                    {
                        "number": 64,
                        "time": 462.358326820833,
                        "value": 0
                    },
                    {
                        "number": 64,
                        "time": 462.4057471541663,
                        "value": 1
                    },
                    {
                        "number": 64,
                        "time": 462.64284882083297,
                        "value": 0
                    },
                    {
                        "number": 64,
                        "time": 462.68730538333295,
                        "value": 1
                    },
                    {
                        "number": 64,
                        "time": 462.9226287874996,
                        "value": 0
                    },
                    {
                        "number": 64,
                        "time": 462.96471433333295,
                        "value": 1
                    },
                    {
                        "number": 64,
                        "time": 463.20537252499963,
                        "value": 0
                    },
                    {
                        "number": 64,
                        "time": 463.24271603749963,
                        "value": 1
                    },
                    {
                        "number": 64,
                        "time": 463.7797513124996,
                        "value": 0
                    },
                    {
                        "number": 64,
                        "time": 463.821836858333,
                        "value": 1
                    },
                    {
                        "number": 64,
                        "time": 464.05893852499963,
                        "value": 0
                    },
                    {
                        "number": 64,
                        "time": 464.0826486916663,
                        "value": 1
                    },
                    {
                        "number": 64,
                        "time": 464.34998082083297,
                        "value": 0
                    },
                    {
                        "number": 64,
                        "time": 464.3808040374996,
                        "value": 1
                    },
                    {
                        "number": 64,
                        "time": 464.91309727916627,
                        "value": 0
                    },
                    {
                        "number": 64,
                        "time": 464.9498480374996,
                        "value": 1
                    },
                    {
                        "number": 64,
                        "time": 465.2035468208329,
                        "value": 0
                    },
                    {
                        "number": 64,
                        "time": 465.2480033833329,
                        "value": 1
                    },
                    {
                        "number": 64,
                        "time": 465.4797702624996,
                        "value": 0
                    },
                    {
                        "number": 64,
                        "time": 465.5153355124996,
                        "value": 1
                    },
                    {
                        "number": 64,
                        "time": 465.7654777708329,
                        "value": 0
                    },
                    {
                        "number": 64,
                        "time": 465.79630098749954,
                        "value": 1
                    },
                    {
                        "number": 64,
                        "time": 466.05711282083286,
                        "value": 0
                    },
                    {
                        "number": 64,
                        "time": 466.0879360374995,
                        "value": 1
                    },
                    {
                        "number": 64,
                        "time": 466.34341308333285,
                        "value": 0
                    },
                    {
                        "number": 64,
                        "time": 466.37897833333284,
                        "value": 1
                    },
                    {
                        "number": 64,
                        "time": 466.61904377083283,
                        "value": 0
                    },
                    {
                        "number": 64,
                        "time": 466.6498669874995,
                        "value": 1
                    },
                    {
                        "number": 64,
                        "time": 466.90771504999947,
                        "value": 0
                    },
                    {
                        "number": 64,
                        "time": 466.9379455124995,
                        "value": 1
                    },
                    {
                        "number": 64,
                        "time": 467.19816459166617,
                        "value": 0
                    },
                    {
                        "number": 64,
                        "time": 467.23610085833286,
                        "value": 1
                    },
                    {
                        "number": 64,
                        "time": 467.4815010833329,
                        "value": 0
                    },
                    {
                        "number": 64,
                        "time": 467.52417938333286,
                        "value": 1
                    },
                    {
                        "number": 64,
                        "time": 467.76602308333287,
                        "value": 0
                    },
                    {
                        "number": 64,
                        "time": 467.7879549874995,
                        "value": 1
                    },
                    {
                        "number": 64,
                        "time": 468.3273612791662,
                        "value": 0
                    },
                    {
                        "number": 64,
                        "time": 468.3528497083329,
                        "value": 1
                    },
                    {
                        "number": 64,
                        "time": 468.61010501666624,
                        "value": 0
                    },
                    {
                        "number": 64,
                        "time": 468.6350006916662,
                        "value": 1
                    },
                    {
                        "number": 64,
                        "time": 468.8946270166662,
                        "value": 0
                    },
                    {
                        "number": 64,
                        "time": 468.91596616666624,
                        "value": 1
                    },
                    {
                        "number": 64,
                        "time": 469.1815200333329,
                        "value": 0
                    },
                    {
                        "number": 64,
                        "time": 469.20404469166624,
                        "value": 1
                    },
                    {
                        "number": 64,
                        "time": 469.4713768208329,
                        "value": 0
                    },
                    {
                        "number": 64,
                        "time": 469.4968652499996,
                        "value": 1
                    },
                    {
                        "number": 64,
                        "time": 469.7576770833329,
                        "value": 0
                    },
                    {
                        "number": 64,
                        "time": 469.7849437749996,
                        "value": 1
                    },
                    {
                        "number": 64,
                        "time": 470.03330777083295,
                        "value": 0
                    },
                    {
                        "number": 64,
                        "time": 470.0676875124996,
                        "value": 1
                    },
                    {
                        "number": 64,
                        "time": 470.60235177083297,
                        "value": 0
                    },
                    {
                        "number": 64,
                        "time": 470.63673151249964,
                        "value": 1
                    },
                    {
                        "number": 64,
                        "time": 470.88924478749965,
                        "value": 0
                    },
                    {
                        "number": 64,
                        "time": 470.9147332166663,
                        "value": 1
                    },
                    {
                        "number": 64,
                        "time": 471.1708030166663,
                        "value": 0
                    },
                    {
                        "number": 64,
                        "time": 471.215852333333,
                        "value": 1
                    },
                    {
                        "number": 64,
                        "time": 471.747552820833,
                        "value": 0
                    },
                    {
                        "number": 64,
                        "time": 471.784896333333,
                        "value": 1
                    },
                    {
                        "number": 64,
                        "time": 472.03266757499966,
                        "value": 0
                    },
                    {
                        "number": 64,
                        "time": 472.05934151249966,
                        "value": 1
                    },
                    {
                        "number": 64,
                        "time": 472.3136330499997,
                        "value": 0
                    },
                    {
                        "number": 64,
                        "time": 472.34742003749966,
                        "value": 1
                    },
                    {
                        "number": 64,
                        "time": 472.602897083333,
                        "value": 0
                    },
                    {
                        "number": 64,
                        "time": 472.645575383333,
                        "value": 1
                    },
                    {
                        "number": 64,
                        "time": 472.889197345833,
                        "value": 0
                    },
                    {
                        "number": 64,
                        "time": 472.922984333333,
                        "value": 1
                    },
                    {
                        "number": 64,
                        "time": 473.1671990499996,
                        "value": 0
                    },
                    {
                        "number": 64,
                        "time": 473.2009860374996,
                        "value": 1
                    },
                    {
                        "number": 64,
                        "time": 473.45468482083294,
                        "value": 0
                    },
                    {
                        "number": 64,
                        "time": 473.4991413833329,
                        "value": 1
                    },
                    {
                        "number": 64,
                        "time": 474.5844742624996,
                        "value": 0
                    },
                    {
                        "number": 64,
                        "time": 474.5844742624996,
                        "value": 0
                    },
                    {
                        "number": 64,
                        "time": 474.63367285833294,
                        "value": 1
                    },
                    {
                        "number": 64,
                        "time": 475.1558892791663,
                        "value": 0
                    },
                    {
                        "number": 64,
                        "time": 475.1961965624996,
                        "value": 1
                    },
                    {
                        "number": 64,
                        "time": 475.4487098374996,
                        "value": 0
                    },
                    {
                        "number": 64,
                        "time": 475.4937591541663,
                        "value": 1
                    },
                    {
                        "number": 64,
                        "time": 475.7231550166663,
                        "value": 0
                    },
                    {
                        "number": 64,
                        "time": 475.7587202666663,
                        "value": 1
                    },
                    {
                        "number": 64,
                        "time": 476.29812655833297,
                        "value": 0
                    },
                    {
                        "number": 64,
                        "time": 476.32539324999965,
                        "value": 1
                    },
                    {
                        "number": 64,
                        "time": 476.582648558333,
                        "value": 0
                    },
                    {
                        "number": 64,
                        "time": 476.60576597083303,
                        "value": 1
                    },
                    {
                        "number": 64,
                        "time": 476.8606502624997,
                        "value": 0
                    },
                    {
                        "number": 64,
                        "time": 476.9175546624997,
                        "value": 1
                    },
                    {
                        "number": 64,
                        "time": 477.44214209999967,
                        "value": 0
                    },
                    {
                        "number": 64,
                        "time": 477.48659866249966,
                        "value": 1
                    },
                    {
                        "number": 64,
                        "time": 477.720736558333,
                        "value": 0
                    },
                    {
                        "number": 64,
                        "time": 477.7503742666663,
                        "value": 1
                    },
                    {
                        "number": 64,
                        "time": 477.9993310166663,
                        "value": 0
                    },
                    {
                        "number": 64,
                        "time": 478.0242266916663,
                        "value": 1
                    },
                    {
                        "number": 64,
                        "time": 478.5719315416663,
                        "value": 0
                    },
                    {
                        "number": 64,
                        "time": 478.59741997083296,
                        "value": 1
                    },
                    {
                        "number": 64,
                        "time": 478.8617883291663,
                        "value": 0
                    },
                    {
                        "number": 64,
                        "time": 478.88431298749964,
                        "value": 1
                    },
                    {
                        "number": 64,
                        "time": 479.14334655833295,
                        "value": 0
                    },
                    {
                        "number": 64,
                        "time": 479.1854321041663,
                        "value": 1
                    },
                    {
                        "number": 64,
                        "time": 479.71594708333294,
                        "value": 0
                    },
                    {
                        "number": 64,
                        "time": 479.7669239416663,
                        "value": 1
                    },
                    {
                        "number": 64,
                        "time": 479.9927632791663,
                        "value": 0
                    },
                    {
                        "number": 64,
                        "time": 480.030699545833,
                        "value": 1
                    },
                    {
                        "number": 64,
                        "time": 480.28558383749964,
                        "value": 0
                    },
                    {
                        "number": 64,
                        "time": 480.3193708249996,
                        "value": 1
                    },
                    {
                        "number": 64,
                        "time": 480.56595655833297,
                        "value": 0
                    },
                    {
                        "number": 64,
                        "time": 480.59974354583295,
                        "value": 1
                    },
                    {
                        "number": 64,
                        "time": 480.8516640666663,
                        "value": 0
                    },
                    {
                        "number": 64,
                        "time": 480.9008626624996,
                        "value": 1
                    },
                    {
                        "number": 64,
                        "time": 481.1302585249996,
                        "value": 0
                    },
                    {
                        "number": 64,
                        "time": 481.1687875458329,
                        "value": 1
                    },
                    {
                        "number": 64,
                        "time": 481.41300226249956,
                        "value": 0
                    },
                    {
                        "number": 64,
                        "time": 481.4823544999996,
                        "value": 1
                    },
                    {
                        "number": 64,
                        "time": 481.9909375749996,
                        "value": 0
                    },
                    {
                        "number": 64,
                        "time": 482.05139849999955,
                        "value": 1
                    },
                    {
                        "number": 64,
                        "time": 482.55346127916624,
                        "value": 0
                    },
                    {
                        "number": 64,
                        "time": 482.5807279708329,
                        "value": 1
                    },
                    {
                        "number": 64,
                        "time": 482.69572227916626,
                        "value": 0
                    },
                    {
                        "number": 64,
                        "time": 483.69569855833294,
                        "value": 1
                    },
                    {
                        "number": 64,
                        "time": 483.8403305749996,
                        "value": 0
                    },
                    {
                        "number": 64,
                        "time": 484.8468271499996,
                        "value": 1
                    },
                    {
                        "number": 64,
                        "time": 484.98671713333295,
                        "value": 0
                    },
                    {
                        "number": 64,
                        "time": 485.9635759999996,
                        "value": 1
                    },
                    {
                        "number": 64,
                        "time": 486.1520718249996,
                        "value": 0
                    },
                    {
                        "number": 64,
                        "time": 486.27536469166625,
                        "value": 1
                    },
                    {
                        "number": 64,
                        "time": 486.44252136666626,
                        "value": 0
                    },
                    {
                        "number": 64,
                        "time": 486.56403597083295,
                        "value": 1
                    },
                    {
                        "number": 64,
                        "time": 486.7335636624996,
                        "value": 0
                    },
                    {
                        "number": 64,
                        "time": 486.84025941249956,
                        "value": 1
                    },
                    {
                        "number": 64,
                        "time": 487.0204566791662,
                        "value": 0
                    },
                    {
                        "number": 64,
                        "time": 487.1289306916662,
                        "value": 1
                    },
                    {
                        "number": 64,
                        "time": 487.3085352041662,
                        "value": 0
                    },
                    {
                        "number": 64,
                        "time": 487.40515413333287,
                        "value": 1
                    },
                    {
                        "number": 64,
                        "time": 487.59957749999955,
                        "value": 0
                    },
                    {
                        "number": 64,
                        "time": 487.70093846249955,
                        "value": 1
                    },
                    {
                        "number": 64,
                        "time": 487.8799502208329,
                        "value": 0
                    },
                    {
                        "number": 64,
                        "time": 487.98901698749955,
                        "value": 1
                    },
                    {
                        "number": 64,
                        "time": 488.19173891249955,
                        "value": 0
                    },
                    {
                        "number": 64,
                        "time": 488.27709551249956,
                        "value": 1
                    },
                    {
                        "number": 64,
                        "time": 488.4489942208329,
                        "value": 0
                    },
                    {
                        "number": 64,
                        "time": 488.5432421333329,
                        "value": 1
                    },
                    {
                        "number": 64,
                        "time": 488.7376654999996,
                        "value": 0
                    },
                    {
                        "number": 64,
                        "time": 488.8390264624996,
                        "value": 1
                    },
                    {
                        "number": 64,
                        "time": 489.0470831749996,
                        "value": 0
                    },
                    {
                        "number": 64,
                        "time": 489.1271049874996,
                        "value": 1
                    },
                    {
                        "number": 64,
                        "time": 489.30018920416626,
                        "value": 0
                    },
                    {
                        "number": 64,
                        "time": 492.79862429583295,
                        "value": 1
                    },
                    {
                        "number": 64,
                        "time": 492.9888983833329,
                        "value": 0
                    },
                    {
                        "number": 64,
                        "time": 493.0955941333329,
                        "value": 1
                    },
                    {
                        "number": 64,
                        "time": 493.26690008749955,
                        "value": 0
                    },
                    {
                        "number": 64,
                        "time": 493.3759668541662,
                        "value": 1
                    },
                    {
                        "number": 64,
                        "time": 493.5680192041662,
                        "value": 0
                    },
                    {
                        "number": 64,
                        "time": 493.6480410166662,
                        "value": 1
                    },
                    {
                        "number": 64,
                        "time": 493.83831510416616,
                        "value": 0
                    },
                    {
                        "number": 64,
                        "time": 493.95745869166615,
                        "value": 1
                    },
                    {
                        "number": 64,
                        "time": 494.14358349999947,
                        "value": 0
                    },
                    {
                        "number": 64,
                        "time": 494.2336821333328,
                        "value": 1
                    },
                    {
                        "number": 64,
                        "time": 494.41328664583284,
                        "value": 0
                    },
                    {
                        "number": 64,
                        "time": 494.5294664624995,
                        "value": 1
                    },
                    {
                        "number": 64,
                        "time": 494.71677677916614,
                        "value": 0
                    },
                    {
                        "number": 64,
                        "time": 494.81754498749945,
                        "value": 1
                    },
                    {
                        "number": 64,
                        "time": 494.99477848333277,
                        "value": 0
                    },
                    {
                        "number": 64,
                        "time": 495.10562351249945,
                        "value": 1
                    },
                    {
                        "number": 64,
                        "time": 495.2793004833328,
                        "value": 0
                    },
                    {
                        "number": 64,
                        "time": 495.3717701333328,
                        "value": 1
                    },
                    {
                        "number": 64,
                        "time": 495.5620442208328,
                        "value": 0
                    },
                    {
                        "number": 64,
                        "time": 495.6675544624994,
                        "value": 1
                    },
                    {
                        "number": 64,
                        "time": 495.8400459249994,
                        "value": 0
                    },
                    {
                        "number": 64,
                        "time": 495.9556329874994,
                        "value": 1
                    },
                    {
                        "number": 64,
                        "time": 496.1518346166661,
                        "value": 0
                    },
                    {
                        "number": 64,
                        "time": 496.2336346916661,
                        "value": 1
                    },
                    {
                        "number": 64,
                        "time": 496.4090899249994,
                        "value": 0
                    },
                    {
                        "number": 64,
                        "time": 496.5098581333327,
                        "value": 1
                    },
                    {
                        "number": 64,
                        "time": 496.69776120416606,
                        "value": 0
                    },
                    {
                        "number": 64,
                        "time": 496.8056424624994,
                        "value": 1
                    },
                    {
                        "number": 64,
                        "time": 496.99295277916605,
                        "value": 0
                    },
                    {
                        "number": 64,
                        "time": 497.09372098749935,
                        "value": 1
                    },
                    {
                        "number": 64,
                        "time": 497.265026941666,
                        "value": 0
                    },
                    {
                        "number": 64,
                        "time": 497.38179951249936,
                        "value": 1
                    },
                    {
                        "number": 64,
                        "time": 497.55784749999935,
                        "value": 0
                    },
                    {
                        "number": 64,
                        "time": 497.6479461333327,
                        "value": 1
                    },
                    {
                        "number": 64,
                        "time": 497.84474051666604,
                        "value": 0
                    },
                    {
                        "number": 64,
                        "time": 497.9437304624994,
                        "value": 1
                    },
                    {
                        "number": 64,
                        "time": 498.131040779166,
                        "value": 0
                    },
                    {
                        "number": 64,
                        "time": 498.23180898749933,
                        "value": 1
                    },
                    {
                        "number": 64,
                        "time": 498.40904248333266,
                        "value": 0
                    },
                    {
                        "number": 64,
                        "time": 499.06344308333263,
                        "value": 0
                    },
                    {
                        "number": 64,
                        "time": 499.0818184624993,
                        "value": 1
                    },
                    {
                        "number": 64,
                        "time": 499.26083022083264,
                        "value": 0
                    },
                    {
                        "number": 64,
                        "time": 499.3698969874993,
                        "value": 1
                    },
                    {
                        "number": 64,
                        "time": 499.54713048333264,
                        "value": 0
                    },
                    {
                        "number": 64,
                        "time": 499.6579755124993,
                        "value": 1
                    },
                    {
                        "number": 64,
                        "time": 499.84647133749934,
                        "value": 0
                    },
                    {
                        "number": 64,
                        "time": 499.9241221333327,
                        "value": 1
                    },
                    {
                        "number": 64,
                        "time": 500.13514261666603,
                        "value": 0
                    },
                    {
                        "number": 64,
                        "time": 500.4741979999994,
                        "value": 0
                    },
                    {
                        "number": 64,
                        "time": 500.50798498749936,
                        "value": 1
                    },
                    {
                        "number": 64,
                        "time": 500.6958880583327,
                        "value": 0
                    },
                    {
                        "number": 64,
                        "time": 500.79606351249936,
                        "value": 1
                    },
                    {
                        "number": 64,
                        "time": 500.986930354166,
                        "value": 0
                    },
                    {
                        "number": 64,
                        "time": 501.3277639999994,
                        "value": 0
                    },
                    {
                        "number": 64,
                        "time": 501.36155098749936,
                        "value": 1
                    },
                    {
                        "number": 64,
                        "time": 501.543526516666,
                        "value": 0
                    },
                    {
                        "number": 64,
                        "time": 501.64962951249936,
                        "value": 1
                    },
                    {
                        "number": 64,
                        "time": 501.82567749999936,
                        "value": 0
                    },
                    {
                        "number": 64,
                        "time": 502.19792711666605,
                        "value": 1
                    },
                    {
                        "number": 64,
                        "time": 502.40124179583273,
                        "value": 0
                    },
                    {
                        "number": 64,
                        "time": 502.49489695416605,
                        "value": 1
                    },
                    {
                        "number": 64,
                        "time": 502.67924349999936,
                        "value": 0
                    },
                    {
                        "number": 64,
                        "time": 502.7924595458327,
                        "value": 1
                    },
                    {
                        "number": 64,
                        "time": 502.97443507499935,
                        "value": 0
                    },
                    {
                        "number": 64,
                        "time": 503.07579603749934,
                        "value": 1
                    },
                    {
                        "number": 64,
                        "time": 503.25243677916603,
                        "value": 0
                    },
                    {
                        "number": 64,
                        "time": 503.35320498749934,
                        "value": 1
                    },
                    {
                        "number": 64,
                        "time": 503.536958779166,
                        "value": 0
                    },
                    {
                        "number": 64,
                        "time": 503.6478038083327,
                        "value": 1
                    },
                    {
                        "number": 64,
                        "time": 503.8256300583327,
                        "value": 0
                    },
                    {
                        "number": 64,
                        "time": 503.92936203749935,
                        "value": 1
                    },
                    {
                        "number": 64,
                        "time": 504.07873608749935,
                        "value": 0
                    },
                    {
                        "number": 64,
                        "time": 504.17298399999936,
                        "value": 1
                    },
                    {
                        "number": 64,
                        "time": 504.753290329166,
                        "value": 0
                    },
                    {
                        "number": 64,
                        "time": 504.7965613833327,
                        "value": 1
                    },
                    {
                        "number": 64,
                        "time": 505.31107199999934,
                        "value": 0
                    },
                    {
                        "number": 64,
                        "time": 505.34900826666603,
                        "value": 1
                    },
                    {
                        "number": 64,
                        "time": 505.61219111666605,
                        "value": 0
                    },
                    {
                        "number": 64,
                        "time": 505.6916201749994,
                        "value": 1
                    },
                    {
                        "number": 64,
                        "time": 505.8925638374994,
                        "value": 0
                    },
                    {
                        "number": 64,
                        "time": 505.9678436166661,
                        "value": 1
                    },
                    {
                        "number": 64,
                        "time": 506.17293655833276,
                        "value": 0
                    },
                    {
                        "number": 64,
                        "time": 506.23576849999944,
                        "value": 1
                    },
                    {
                        "number": 64,
                        "time": 506.4604223291661,
                        "value": 0
                    },
                    {
                        "number": 64,
                        "time": 506.53273833749944,
                        "value": 1
                    },
                    {
                        "number": 64,
                        "time": 507.0199822624994,
                        "value": 0
                    },
                    {
                        "number": 64,
                        "time": 507.6334828249994,
                        "value": 1
                    },
                    {
                        "number": 64,
                        "time": 508.1622195416661,
                        "value": 0
                    },
                    {
                        "number": 64,
                        "time": 508.1983775458328,
                        "value": 1
                    },
                    {
                        "number": 64,
                        "time": 508.7312635416661,
                        "value": 0
                    },
                    {
                        "number": 64,
                        "time": 508.79468823749943,
                        "value": 1
                    },
                    {
                        "number": 64,
                        "time": 509.01637829583274,
                        "value": 0
                    },
                    {
                        "number": 64,
                        "time": 509.03712469166607,
                        "value": 1
                    },
                    {
                        "number": 64,
                        "time": 509.2985292791661,
                        "value": 0
                    },
                    {
                        "number": 64,
                        "time": 509.3281669874994,
                        "value": 1
                    },
                    {
                        "number": 64,
                        "time": 509.5794947541661,
                        "value": 0
                    },
                    {
                        "number": 64,
                        "time": 510.2054431541661,
                        "value": 1
                    },
                    {
                        "number": 64,
                        "time": 510.4455085916661,
                        "value": 0
                    },
                    {
                        "number": 64,
                        "time": 510.47514629999944,
                        "value": 1
                    },
                    {
                        "number": 64,
                        "time": 510.71758275416613,
                        "value": 0
                    },
                    {
                        "number": 64,
                        "time": 511.3067803958328,
                        "value": 1
                    },
                    {
                        "number": 64,
                        "time": 511.5764835416661,
                        "value": 0
                    },
                    {
                        "number": 64,
                        "time": 512.2024319416661,
                        "value": 1
                    },
                    {
                        "number": 64,
                        "time": 512.7139787874994,
                        "value": 0
                    },
                    {
                        "number": 64,
                        "time": 513.3885330291661,
                        "value": 1
                    },
                    {
                        "number": 64,
                        "time": 514.0210017249995,
                        "value": 0
                    },
                    {
                        "number": 64,
                        "time": 514.4827572208328,
                        "value": 1
                    },
                    {
                        "number": 64,
                        "time": 515.5562350166662,
                        "value": 0
                    },
                    {
                        "number": 64,
                        "time": 515.6149176791662,
                        "value": 1
                    },
                    {
                        "number": 64,
                        "time": 516.1276500333329,
                        "value": 0
                    },
                    {
                        "number": 64,
                        "time": 516.7393723333329,
                        "value": 1
                    },
                    {
                        "number": 64,
                        "time": 517.4826860583329,
                        "value": 0
                    },
                    {
                        "number": 64,
                        "time": 517.8679762666662,
                        "value": 1
                    },
                    {
                        "number": 64,
                        "time": 518.4073825583329,
                        "value": 0
                    },
                    {
                        "number": 64,
                        "time": 518.9746482958328,
                        "value": 1
                    },
                    {
                        "number": 64,
                        "time": 519.5229458999995,
                        "value": 0
                    },
                    {
                        "number": 64,
                        "time": 522.4369253833329,
                        "value": 1
                    },
                    {
                        "number": 64,
                        "time": 522.9538070166662,
                        "value": 0
                    },
                    {
                        "number": 64,
                        "time": 523.5364843624996,
                        "value": 1
                    },
                    {
                        "number": 64,
                        "time": 524.3586343916662,
                        "value": 0
                    },
                    {
                        "number": 64,
                        "time": 524.6745723624996,
                        "value": 1
                    },
                    {
                        "number": 64,
                        "time": 525.4807180291663,
                        "value": 0
                    },
                    {
                        "number": 64,
                        "time": 525.8286647249996,
                        "value": 1
                    },
                    {
                        "number": 64,
                        "time": 526.9347439999996,
                        "value": 0
                    },
                    {
                        "number": 64,
                        "time": 527.0295846666662,
                        "value": 1
                    },
                    {
                        "number": 64,
                        "time": 527.5150503291662,
                        "value": 0
                    },
                    {
                        "number": 64,
                        "time": 527.6193750624996,
                        "value": 1
                    },
                    {
                        "number": 64,
                        "time": 528.0746102624995,
                        "value": 0
                    },
                    {
                        "number": 64,
                        "time": 528.1190668249995,
                        "value": 1
                    },
                    {
                        "number": 64,
                        "time": 528.3680235749996,
                        "value": 0
                    },
                    {
                        "number": 64,
                        "time": 528.4118873833329,
                        "value": 1
                    },
                    {
                        "number": 64,
                        "time": 528.6531383291663,
                        "value": 0
                    },
                    {
                        "number": 64,
                        "time": 528.6922601041663,
                        "value": 1
                    },
                    {
                        "number": 64,
                        "time": 528.9412168541663,
                        "value": 0
                    },
                    {
                        "number": 64,
                        "time": 528.993379220833,
                        "value": 1
                    },
                    {
                        "number": 64,
                        "time": 529.2126982624998,
                        "value": 0
                    },
                    {
                        "number": 64,
                        "time": 529.6880871041665,
                        "value": 1
                    },
                    {
                        "number": 64,
                        "time": 530.3490079999998,
                        "value": 0
                    },
                    {
                        "number": 64,
                        "time": 530.8232113333331,
                        "value": 1
                    },
                    {
                        "number": 64,
                        "time": 531.4870959999998,
                        "value": 0
                    },
                    {
                        "number": 64,
                        "time": 531.6293569999998,
                        "value": 1
                    },
                    {
                        "number": 64,
                        "time": 532.6269622624998,
                        "value": 0
                    },
                    {
                        "number": 64,
                        "time": 532.6862376791664,
                        "value": 1
                    },
                    {
                        "number": 64,
                        "time": 533.204304820833,
                        "value": 0
                    },
                    {
                        "number": 64,
                        "time": 533.275435320833,
                        "value": 1
                    },
                    {
                        "number": 64,
                        "time": 533.7656430166663,
                        "value": 0
                    },
                    {
                        "number": 64,
                        "time": 533.817805383333,
                        "value": 1
                    },
                    {
                        "number": 64,
                        "time": 534.0590563291664,
                        "value": 0
                    },
                    {
                        "number": 64,
                        "time": 534.1023273833331,
                        "value": 1
                    },
                    {
                        "number": 64,
                        "time": 534.3382435416664,
                        "value": 0
                    },
                    {
                        "number": 64,
                        "time": 534.3909986624998,
                        "value": 1
                    },
                    {
                        "number": 64,
                        "time": 534.6281003291665,
                        "value": 0
                    },
                    {
                        "number": 64,
                        "time": 534.6672221041665,
                        "value": 1
                    },
                    {
                        "number": 64,
                        "time": 534.9025455083332,
                        "value": 0
                    },
                    {
                        "number": 64,
                        "time": 535.7928622666666,
                        "value": 1
                    },
                    {
                        "number": 64,
                        "time": 536.0495248208332,
                        "value": 0
                    },
                    {
                        "number": 64,
                        "time": 536.1568133249999,
                        "value": 1
                    },
                    {
                        "number": 64,
                        "time": 536.3340468208332,
                        "value": 0
                    },
                    {
                        "number": 64,
                        "time": 536.4247382083332,
                        "value": 1
                    },
                    {
                        "number": 64,
                        "time": 536.6209398374999,
                        "value": 0
                    },
                    {
                        "number": 64,
                        "time": 536.6837717791666,
                        "value": 1
                    },
                    {
                        "number": 64,
                        "time": 536.9030908208333,
                        "value": 0
                    },
                    {
                        "number": 64,
                        "time": 536.98548365,
                        "value": 1
                    },
                    {
                        "number": 64,
                        "time": 537.1793142625,
                        "value": 0
                    },
                    {
                        "number": 64,
                        "time": 537.2154722666667,
                        "value": 1
                    },
                    {
                        "number": 64,
                        "time": 537.3275028041667,
                        "value": 0
                    },
                    {
                        "number": 64,
                        "time": 537.3743303833334,
                        "value": 1
                    },
                    {
                        "number": 64,
                        "time": 538.0405860666667,
                        "value": 0
                    },
                    {
                        "number": 64,
                        "time": 538.0690382666667,
                        "value": 1
                    },
                    {
                        "number": 64,
                        "time": 538.3179950166667,
                        "value": 0
                    },
                    {
                        "number": 64,
                        "time": 538.3826052208334,
                        "value": 1
                    },
                    {
                        "number": 64,
                        "time": 538.6114083291667,
                        "value": 0
                    },
                    {
                        "number": 64,
                        "time": 538.7009142083334,
                        "value": 1
                    },
                    {
                        "number": 64,
                        "time": 538.8935593125001,
                        "value": 0
                    },
                    {
                        "number": 64,
                        "time": 538.9433506625,
                        "value": 1
                    },
                    {
                        "number": 64,
                        "time": 539.1804523291668,
                        "value": 0
                    },
                    {
                        "number": 64,
                        "time": 539.2527683375001,
                        "value": 1
                    },
                    {
                        "number": 64,
                        "time": 539.4554902625001,
                        "value": 0
                    },
                    {
                        "number": 64,
                        "time": 539.4999468250002,
                        "value": 1
                    },
                    {
                        "number": 64,
                        "time": 539.6001222791668,
                        "value": 0
                    },
                    {
                        "number": 64,
                        "time": 539.6588049416669,
                        "value": 1
                    },
                    {
                        "number": 64,
                        "time": 540.3114272791669,
                        "value": 0
                    },
                    {
                        "number": 64,
                        "time": 540.3535128250002,
                        "value": 1
                    },
                    {
                        "number": 64,
                        "time": 540.6000985583335,
                        "value": 0
                    },
                    {
                        "number": 64,
                        "time": 540.6925682083335,
                        "value": 1
                    },
                    {
                        "number": 64,
                        "time": 540.8846205583335,
                        "value": 0
                    },
                    {
                        "number": 64,
                        "time": 540.9687916500002,
                        "value": 1
                    },
                    {
                        "number": 64,
                        "time": 541.1697353125002,
                        "value": 0
                    },
                    {
                        "number": 64,
                        "time": 541.2278252208336,
                        "value": 1
                    },
                    {
                        "number": 64,
                        "time": 541.4578138375002,
                        "value": 0
                    },
                    {
                        "number": 64,
                        "time": 541.5123472208336,
                        "value": 1
                    },
                    {
                        "number": 64,
                        "time": 541.7346300333336,
                        "value": 0
                    },
                    {
                        "number": 64,
                        "time": 541.7808648583336,
                        "value": 1
                    },
                    {
                        "number": 64,
                        "time": 542.7357918208337,
                        "value": 0
                    },
                    {
                        "number": 64,
                        "time": 544.5922978708337,
                        "value": 1
                    },
                    {
                        "number": 64,
                        "time": 544.918905416667,
                        "value": 0
                    },
                    {
                        "number": 64,
                        "time": 545.1441520000004,
                        "value": 1
                    },
                    {
                        "number": 64,
                        "time": 545.6343596958337,
                        "value": 0
                    },
                    {
                        "number": 64,
                        "time": 546.3616690583337,
                        "value": 1
                    },
                    {
                        "number": 64,
                        "time": 546.8038636666671,
                        "value": 0
                    },
                    {
                        "number": 64,
                        "time": 547.5471773916671,
                        "value": 1
                    },
                    {
                        "number": 64,
                        "time": 549.4594023333337,
                        "value": 0
                    }
                ]
            },
            "id": 3,
            "name": "Pedal"
        },
        {
            "startTime": 0,
            "duration": 0,
            "length": 0,
            "notes": [],
            "controlChanges": {},
            "id": 4,
            "name": "Schubert Sonate D960  1. Satz"
        },
        {
            "startTime": 0,
            "duration": 0,
            "length": 0,
            "notes": [],
            "controlChanges": {},
            "id": 5,
            "name": "Copyright  2002 by Bernd Krger"
        },
        {
            "startTime": 0,
            "duration": 0,
            "length": 0,
            "notes": [],
            "controlChanges": {},
            "id": 6,
            "name": "http://www.piano-midi.de"
        },
        {
            "startTime": 0,
            "duration": 0,
            "length": 0,
            "notes": [],
            "controlChanges": {},
            "id": 7,
            "name": "Edition: 2014-03-23"
        },
        {
            "startTime": 0,
            "duration": 0,
            "length": 0,
            "notes": [],
            "controlChanges": {},
            "id": 8,
            "name": "Spur 8"
        },
        {
            "startTime": 0,
            "duration": 0,
            "length": 0,
            "notes": [],
            "controlChanges": {},
            "id": 9,
            "name": "Spur 9"
        },
        {
            "startTime": 0,
            "duration": 0,
            "length": 0,
            "notes": [],
            "controlChanges": {},
            "id": 10,
            "name": "Spur 10"
        }
    ]
}